{
    "header": {
        "PPQ": 480,
        "timeSignature": [
            4,
            4
        ],
        "bpm": 119.6900028925084,
        "name": "Klaviersonate a-Moll, Opus 143"
    },
    "startTime": 0,
    "duration": 790.0409200000191,
    "tracks": [
        {
            "startTime": 0,
            "duration": 0,
            "length": 0,
            "notes": [],
            "controlChanges": {},
            "id": 0,
            "name": "Klaviersonate a-Moll, Opus 143"
        },
        {
            "startTime": 0.0010443645833333333,
            "duration": 790.0409200000191,
            "length": 2673,
            "notes": [
                {
                    "name": "A4",
                    "midi": 69,
                    "time": 0.0010443645833333333,
                    "velocity": 0.3937007874015748,
                    "duration": 1.00259
                },
                {
                    "name": "E5",
                    "midi": 76,
                    "time": 1.00259,
                    "velocity": 0.3937007874015748,
                    "duration": 1.00259
                },
                {
                    "name": "D#5",
                    "midi": 75,
                    "time": 2.00518,
                    "velocity": 0.41732283464566927,
                    "duration": 1.00259
                },
                {
                    "name": "E5",
                    "midi": 76,
                    "time": 3.0077700000000003,
                    "velocity": 0.3700787401574803,
                    "duration": 0.20887291666666652
                },
                {
                    "name": "C5",
                    "midi": 72,
                    "time": 3.509065,
                    "velocity": 0.3858267716535433,
                    "duration": 0.39685854166666656
                },
                {
                    "name": "B4",
                    "midi": 71,
                    "time": 3.88503625,
                    "velocity": 0.3700787401574803,
                    "duration": 0.1462110416666671
                },
                {
                    "name": "A4",
                    "midi": 69,
                    "time": 4.01036,
                    "velocity": 0.3779527559055118,
                    "duration": 1.0025900000000005
                },
                {
                    "name": "G#3",
                    "midi": 56,
                    "time": 5.012950000000001,
                    "velocity": 0.4409448818897638,
                    "duration": 1.0025900000000005
                },
                {
                    "name": "E4",
                    "midi": 64,
                    "time": 5.012950000000001,
                    "velocity": 0.4409448818897638,
                    "duration": 1.0025900000000005
                },
                {
                    "name": "B3",
                    "midi": 59,
                    "time": 5.012950000000001,
                    "velocity": 0.4409448818897638,
                    "duration": 1.0025900000000005
                },
                {
                    "name": "C4",
                    "midi": 60,
                    "time": 6.015540000000001,
                    "velocity": 0.4094488188976378,
                    "duration": 1.0025899999999996
                },
                {
                    "name": "A3",
                    "midi": 57,
                    "time": 7.018130000000001,
                    "velocity": 0.4015748031496063,
                    "duration": 0.1879856249999996
                },
                {
                    "name": "A3",
                    "midi": 57,
                    "time": 8.02072,
                    "velocity": 0.3937007874015748,
                    "duration": 1.0025899999999996
                },
                {
                    "name": "A3",
                    "midi": 57,
                    "time": 9.02331,
                    "velocity": 0.4645669291338583,
                    "duration": 1.0025899999999996
                },
                {
                    "name": "F4",
                    "midi": 65,
                    "time": 9.02331,
                    "velocity": 0.4645669291338583,
                    "duration": 1.0025899999999996
                },
                {
                    "name": "A#3",
                    "midi": 58,
                    "time": 10.0259,
                    "velocity": 0.5039370078740157,
                    "duration": 1.0025899999999996
                },
                {
                    "name": "G4",
                    "midi": 67,
                    "time": 10.0259,
                    "velocity": 0.5039370078740157,
                    "duration": 1.0025899999999996
                },
                {
                    "name": "F4",
                    "midi": 65,
                    "time": 11.02849,
                    "velocity": 0.4251968503937008,
                    "duration": 0.2088729166666674
                },
                {
                    "name": "A3",
                    "midi": 57,
                    "time": 11.02849,
                    "velocity": 0.4251968503937008,
                    "duration": 0.2088729166666674
                },
                {
                    "name": "A3",
                    "midi": 57,
                    "time": 11.529785,
                    "velocity": 0.4015748031496063,
                    "duration": 0.39685854166666523
                },
                {
                    "name": "B3",
                    "midi": 59,
                    "time": 11.90575625,
                    "velocity": 0.4251968503937008,
                    "duration": 0.14621104166666576
                },
                {
                    "name": "C4",
                    "midi": 60,
                    "time": 12.03108,
                    "velocity": 0.4094488188976378,
                    "duration": 1.0025899999999996
                },
                {
                    "name": "B3",
                    "midi": 59,
                    "time": 13.033669999999999,
                    "velocity": 0.4251968503937008,
                    "duration": 1.0025899999999996
                },
                {
                    "name": "E4",
                    "midi": 64,
                    "time": 13.033669999999999,
                    "velocity": 0.4251968503937008,
                    "duration": 1.0025899999999996
                },
                {
                    "name": "E3",
                    "midi": 52,
                    "time": 13.033669999999999,
                    "velocity": 0.4251968503937008,
                    "duration": 1.0025899999999996
                },
                {
                    "name": "G#3",
                    "midi": 56,
                    "time": 13.033669999999999,
                    "velocity": 0.4251968503937008,
                    "duration": 1.0025899999999996
                },
                {
                    "name": "C4",
                    "midi": 60,
                    "time": 14.036259999999999,
                    "velocity": 0.3937007874015748,
                    "duration": 1.0025899999999996
                },
                {
                    "name": "C3",
                    "midi": 48,
                    "time": 14.036259999999999,
                    "velocity": 0.3937007874015748,
                    "duration": 1.0025899999999996
                },
                {
                    "name": "A2",
                    "midi": 45,
                    "time": 15.038849999999998,
                    "velocity": 0.3937007874015748,
                    "duration": 0.2088729166666674
                },
                {
                    "name": "A3",
                    "midi": 57,
                    "time": 15.038849999999998,
                    "velocity": 0.3937007874015748,
                    "duration": 0.2088729166666674
                },
                {
                    "name": "A3",
                    "midi": 57,
                    "time": 19.550505,
                    "velocity": 0.4094488188976378,
                    "duration": 1.0025900000000014
                },
                {
                    "name": "D4",
                    "midi": 62,
                    "time": 20.553095000000003,
                    "velocity": 0.36220472440944884,
                    "duration": 0.5012949999999989
                },
                {
                    "name": "E4",
                    "midi": 64,
                    "time": 21.05439,
                    "velocity": 0.3858267716535433,
                    "duration": 0.5012949999999989
                },
                {
                    "name": "F4",
                    "midi": 65,
                    "time": 21.555685,
                    "velocity": 0.3700787401574803,
                    "duration": 0.5012949999999989
                },
                {
                    "name": "E4",
                    "midi": 64,
                    "time": 22.05698,
                    "velocity": 0.3937007874015748,
                    "duration": 1.0025900000000014
                },
                {
                    "name": "A3",
                    "midi": 57,
                    "time": 23.05957,
                    "velocity": 0.36220472440944884,
                    "duration": 0.2088729166666674
                },
                {
                    "name": "G4",
                    "midi": 67,
                    "time": 23.560865000000003,
                    "velocity": 0.3464566929133858,
                    "duration": 0.5012949999999989
                },
                {
                    "name": "F4",
                    "midi": 65,
                    "time": 24.062160000000002,
                    "velocity": 0.3700787401574803,
                    "duration": 1.0025900000000014
                },
                {
                    "name": "A3",
                    "midi": 57,
                    "time": 25.064750000000004,
                    "velocity": 0.3779527559055118,
                    "duration": 0.2088729166666674
                },
                {
                    "name": "F4",
                    "midi": 65,
                    "time": 25.566045000000006,
                    "velocity": 0.3543307086614173,
                    "duration": 0.5012949999999989
                },
                {
                    "name": "E4",
                    "midi": 64,
                    "time": 26.067340000000005,
                    "velocity": 0.3937007874015748,
                    "duration": 1.0025900000000014
                },
                {
                    "name": "A3",
                    "midi": 57,
                    "time": 27.069930000000006,
                    "velocity": 0.3779527559055118,
                    "duration": 0.2088729166666674
                },
                {
                    "name": "A3",
                    "midi": 57,
                    "time": 27.57122500000001,
                    "velocity": 0.4409448818897638,
                    "duration": 0.4981619062500009
                },
                {
                    "name": "A4",
                    "midi": 69,
                    "time": 27.57122500000001,
                    "velocity": 0.4409448818897638,
                    "duration": 1.0025900000000014
                },
                {
                    "name": "D4",
                    "midi": 62,
                    "time": 28.57381500000001,
                    "velocity": 0.4409448818897638,
                    "duration": 0.5012949999999989
                },
                {
                    "name": "D5",
                    "midi": 74,
                    "time": 28.57381500000001,
                    "velocity": 0.4409448818897638,
                    "duration": 0.5012949999999989
                },
                {
                    "name": "E5",
                    "midi": 76,
                    "time": 29.07511000000001,
                    "velocity": 0.4645669291338583,
                    "duration": 0.5012949999999989
                },
                {
                    "name": "E4",
                    "midi": 64,
                    "time": 29.07511000000001,
                    "velocity": 0.4645669291338583,
                    "duration": 0.5012949999999989
                },
                {
                    "name": "F4",
                    "midi": 65,
                    "time": 29.57640500000001,
                    "velocity": 0.4251968503937008,
                    "duration": 0.5012949999999989
                },
                {
                    "name": "F5",
                    "midi": 77,
                    "time": 29.57640500000001,
                    "velocity": 0.4251968503937008,
                    "duration": 0.5012949999999989
                },
                {
                    "name": "E4",
                    "midi": 64,
                    "time": 30.077700000000007,
                    "velocity": 0.4645669291338583,
                    "duration": 1.0025900000000014
                },
                {
                    "name": "E5",
                    "midi": 76,
                    "time": 30.077700000000007,
                    "velocity": 0.4645669291338583,
                    "duration": 1.0025900000000014
                },
                {
                    "name": "A3",
                    "midi": 57,
                    "time": 31.08029000000001,
                    "velocity": 0.4409448818897638,
                    "duration": 0.2088729166666674
                },
                {
                    "name": "A4",
                    "midi": 69,
                    "time": 31.08029000000001,
                    "velocity": 0.4409448818897638,
                    "duration": 0.2088729166666674
                },
                {
                    "name": "E5",
                    "midi": 76,
                    "time": 31.58158500000001,
                    "velocity": 0.5433070866141733,
                    "duration": 1.0025899999999979
                },
                {
                    "name": "E4",
                    "midi": 64,
                    "time": 31.58158500000001,
                    "velocity": 0.5433070866141733,
                    "duration": 1.0025899999999979
                },
                {
                    "name": "G4",
                    "midi": 67,
                    "time": 32.58417500000001,
                    "velocity": 0.5826771653543307,
                    "duration": 0.5012949999999989
                },
                {
                    "name": "G5",
                    "midi": 79,
                    "time": 32.58417500000001,
                    "velocity": 0.5826771653543307,
                    "duration": 0.5012949999999989
                },
                {
                    "name": "A4",
                    "midi": 69,
                    "time": 33.08547000000001,
                    "velocity": 0.6220472440944882,
                    "duration": 0.5012949999999989
                },
                {
                    "name": "A5",
                    "midi": 81,
                    "time": 33.08547000000001,
                    "velocity": 0.6220472440944882,
                    "duration": 0.5012949999999989
                },
                {
                    "name": "B4",
                    "midi": 71,
                    "time": 33.58676500000001,
                    "velocity": 0.6062992125984252,
                    "duration": 0.5012949999999989
                },
                {
                    "name": "B5",
                    "midi": 83,
                    "time": 33.58676500000001,
                    "velocity": 0.6062992125984252,
                    "duration": 0.5012949999999989
                },
                {
                    "name": "B4",
                    "midi": 71,
                    "time": 34.088060000000006,
                    "velocity": 0.6692913385826772,
                    "duration": 0.9190408333333338
                },
                {
                    "name": "B5",
                    "midi": 83,
                    "time": 34.088060000000006,
                    "velocity": 0.6692913385826772,
                    "duration": 0.9190408333333338
                },
                {
                    "name": "B5",
                    "midi": 83,
                    "time": 35.090650000000004,
                    "velocity": 0.6377952755905512,
                    "duration": 0.9190408333333338
                },
                {
                    "name": "B4",
                    "midi": 71,
                    "time": 35.090650000000004,
                    "velocity": 0.6377952755905512,
                    "duration": 0.9190408333333338
                },
                {
                    "name": "G4",
                    "midi": 67,
                    "time": 36.09324,
                    "velocity": 0.49606299212598426,
                    "duration": 1.0025899999999979
                },
                {
                    "name": "G5",
                    "midi": 79,
                    "time": 36.09324,
                    "velocity": 0.49606299212598426,
                    "duration": 1.0025899999999979
                },
                {
                    "name": "E4",
                    "midi": 64,
                    "time": 37.09583,
                    "velocity": 0.41732283464566927,
                    "duration": 0.20887291666666385
                },
                {
                    "name": "E5",
                    "midi": 76,
                    "time": 37.09583,
                    "velocity": 0.41732283464566927,
                    "duration": 0.20887291666666385
                },
                {
                    "name": "B3",
                    "midi": 59,
                    "time": 38.09842,
                    "velocity": 0.3228346456692913,
                    "duration": 0.9190408333333338
                },
                {
                    "name": "B4",
                    "midi": 71,
                    "time": 38.09842,
                    "velocity": 0.3228346456692913,
                    "duration": 0.9190408333333338
                },
                {
                    "name": "B4",
                    "midi": 71,
                    "time": 39.101009999999995,
                    "velocity": 0.29133858267716534,
                    "duration": 0.9190408333333338
                },
                {
                    "name": "B3",
                    "midi": 59,
                    "time": 39.101009999999995,
                    "velocity": 0.29133858267716534,
                    "duration": 0.9190408333333338
                },
                {
                    "name": "G3",
                    "midi": 55,
                    "time": 40.10359999999999,
                    "velocity": 0.29133858267716534,
                    "duration": 1.0025899999999979
                },
                {
                    "name": "G4",
                    "midi": 67,
                    "time": 40.10359999999999,
                    "velocity": 0.29133858267716534,
                    "duration": 1.0025899999999979
                },
                {
                    "name": "E3",
                    "midi": 52,
                    "time": 41.10618999999999,
                    "velocity": 0.25984251968503935,
                    "duration": 0.20887291666666385
                },
                {
                    "name": "E4",
                    "midi": 64,
                    "time": 41.10618999999999,
                    "velocity": 0.25984251968503935,
                    "duration": 0.20887291666666385
                },
                {
                    "name": "G3",
                    "midi": 55,
                    "time": 42.10877999999999,
                    "velocity": 0.29133858267716534,
                    "duration": 1.0025899999999979
                },
                {
                    "name": "G4",
                    "midi": 67,
                    "time": 42.10877999999999,
                    "velocity": 0.29133858267716534,
                    "duration": 1.0025899999999979
                },
                {
                    "name": "E3",
                    "midi": 52,
                    "time": 43.11136999999999,
                    "velocity": 0.25984251968503935,
                    "duration": 0.14621104166666754
                },
                {
                    "name": "E4",
                    "midi": 64,
                    "time": 43.11136999999999,
                    "velocity": 0.25984251968503935,
                    "duration": 0.14621104166666754
                },
                {
                    "name": "F4",
                    "midi": 65,
                    "time": 44.113959999999985,
                    "velocity": 0.3543307086614173,
                    "duration": 1.0025899999999979
                },
                {
                    "name": "F3",
                    "midi": 53,
                    "time": 44.113959999999985,
                    "velocity": 0.3543307086614173,
                    "duration": 1.0025899999999979
                },
                {
                    "name": "D4",
                    "midi": 62,
                    "time": 45.11654999999998,
                    "velocity": 0.31496062992125984,
                    "duration": 0.14621104166666754
                },
                {
                    "name": "D3",
                    "midi": 50,
                    "time": 45.11654999999998,
                    "velocity": 0.31496062992125984,
                    "duration": 0.14621104166666754
                },
                {
                    "name": "E4",
                    "midi": 64,
                    "time": 46.11913999999998,
                    "velocity": 0.4409448818897638,
                    "duration": 1.0025899999999979
                },
                {
                    "name": "E3",
                    "midi": 52,
                    "time": 46.11913999999998,
                    "velocity": 0.4409448818897638,
                    "duration": 1.0025899999999979
                },
                {
                    "name": "C3",
                    "midi": 48,
                    "time": 47.12172999999998,
                    "velocity": 0.4015748031496063,
                    "duration": 0.14621104166666754
                },
                {
                    "name": "C4",
                    "midi": 60,
                    "time": 47.12172999999998,
                    "velocity": 0.4015748031496063,
                    "duration": 0.14621104166666754
                },
                {
                    "name": "D3",
                    "midi": 50,
                    "time": 48.124319999999976,
                    "velocity": 0.5748031496062992,
                    "duration": 1.0025899999999979
                },
                {
                    "name": "D4",
                    "midi": 62,
                    "time": 48.124319999999976,
                    "velocity": 0.5748031496062992,
                    "duration": 1.0025899999999979
                },
                {
                    "name": "B3",
                    "midi": 59,
                    "time": 49.126909999999974,
                    "velocity": 0.5433070866141733,
                    "duration": 0.14621104166666754
                },
                {
                    "name": "B2",
                    "midi": 47,
                    "time": 49.126909999999974,
                    "velocity": 0.5433070866141733,
                    "duration": 0.14621104166666754
                },
                {
                    "name": "A3",
                    "midi": 57,
                    "time": 50.12949999999997,
                    "velocity": 0.7480314960629921,
                    "duration": 1.0025899999999979
                },
                {
                    "name": "A4",
                    "midi": 69,
                    "time": 50.12949999999997,
                    "velocity": 0.7480314960629921,
                    "duration": 1.0025899999999979
                },
                {
                    "name": "E4",
                    "midi": 64,
                    "time": 51.13208999999997,
                    "velocity": 0.7165354330708661,
                    "duration": 1.0025899999999979
                },
                {
                    "name": "E5",
                    "midi": 76,
                    "time": 51.13208999999997,
                    "velocity": 0.7165354330708661,
                    "duration": 1.0025899999999979
                },
                {
                    "name": "D#4",
                    "midi": 63,
                    "time": 52.13467999999997,
                    "velocity": 0.6929133858267716,
                    "duration": 1.0025899999999979
                },
                {
                    "name": "D#5",
                    "midi": 75,
                    "time": 52.13467999999997,
                    "velocity": 0.6929133858267716,
                    "duration": 1.0025899999999979
                },
                {
                    "name": "E5",
                    "midi": 76,
                    "time": 53.137269999999965,
                    "velocity": 0.6377952755905512,
                    "duration": 0.25064749999999947
                },
                {
                    "name": "E4",
                    "midi": 64,
                    "time": 53.137269999999965,
                    "velocity": 0.6377952755905512,
                    "duration": 0.25064749999999947
                },
                {
                    "name": "C5",
                    "midi": 72,
                    "time": 53.638564999999964,
                    "velocity": 0.6141732283464567,
                    "duration": 0.25064749999999947
                },
                {
                    "name": "E4",
                    "midi": 64,
                    "time": 53.638564999999964,
                    "velocity": 0.6141732283464567,
                    "duration": 0.25064749999999947
                },
                {
                    "name": "E4",
                    "midi": 64,
                    "time": 54.01453624999996,
                    "velocity": 0.49606299212598426,
                    "duration": 0.09399281249999802
                },
                {
                    "name": "B4",
                    "midi": 71,
                    "time": 54.01453624999996,
                    "velocity": 0.5748031496062992,
                    "duration": 0.09399281249999802
                },
                {
                    "name": "E4",
                    "midi": 64,
                    "time": 54.13985999999996,
                    "velocity": 0.5275590551181102,
                    "duration": 0.25064749999999947
                },
                {
                    "name": "A4",
                    "midi": 69,
                    "time": 54.13985999999996,
                    "velocity": 0.6299212598425197,
                    "duration": 0.25064749999999947
                },
                {
                    "name": "D4",
                    "midi": 62,
                    "time": 54.51583124999996,
                    "velocity": 0.49606299212598426,
                    "duration": 0.09399281249999802
                },
                {
                    "name": "G4",
                    "midi": 67,
                    "time": 54.51583124999996,
                    "velocity": 0.5748031496062992,
                    "duration": 0.09399281249999802
                },
                {
                    "name": "F4",
                    "midi": 65,
                    "time": 54.64115499999996,
                    "velocity": 0.5669291338582677,
                    "duration": 0.25064749999999947
                },
                {
                    "name": "C4",
                    "midi": 60,
                    "time": 54.64115499999996,
                    "velocity": 0.49606299212598426,
                    "duration": 0.25064749999999947
                },
                {
                    "name": "E4",
                    "midi": 64,
                    "time": 55.01712624999996,
                    "velocity": 0.5511811023622047,
                    "duration": 0.09399281249999802
                },
                {
                    "name": "B3",
                    "midi": 59,
                    "time": 55.01712624999996,
                    "velocity": 0.4566929133858268,
                    "duration": 0.09399281249999802
                },
                {
                    "name": "C4",
                    "midi": 60,
                    "time": 55.14244999999996,
                    "velocity": 0.5826771653543307,
                    "duration": 0.25064749999999947
                },
                {
                    "name": "F4",
                    "midi": 65,
                    "time": 55.14244999999996,
                    "velocity": 0.5826771653543307,
                    "duration": 0.25064749999999947
                },
                {
                    "name": "B3",
                    "midi": 59,
                    "time": 55.51842124999996,
                    "velocity": 0.44881889763779526,
                    "duration": 0.09399281249999802
                },
                {
                    "name": "E4",
                    "midi": 64,
                    "time": 55.51842124999996,
                    "velocity": 0.5511811023622047,
                    "duration": 0.09399281249999802
                },
                {
                    "name": "A3",
                    "midi": 57,
                    "time": 55.64374499999996,
                    "velocity": 0.5039370078740157,
                    "duration": 0.25064749999999947
                },
                {
                    "name": "D4",
                    "midi": 62,
                    "time": 55.64374499999996,
                    "velocity": 0.5905511811023622,
                    "duration": 0.25064749999999947
                },
                {
                    "name": "C#4",
                    "midi": 61,
                    "time": 56.01971624999996,
                    "velocity": 0.5511811023622047,
                    "duration": 0.09399281249999802
                },
                {
                    "name": "G3",
                    "midi": 55,
                    "time": 56.01971624999996,
                    "velocity": 0.4566929133858268,
                    "duration": 0.09399281249999802
                },
                {
                    "name": "A3",
                    "midi": 57,
                    "time": 56.14503999999996,
                    "velocity": 0.5984251968503937,
                    "duration": 0.25064749999999947
                },
                {
                    "name": "D4",
                    "midi": 62,
                    "time": 56.14503999999996,
                    "velocity": 0.5984251968503937,
                    "duration": 0.25064749999999947
                },
                {
                    "name": "B3",
                    "midi": 59,
                    "time": 56.52101124999996,
                    "velocity": 0.49606299212598426,
                    "duration": 0.09399281249999802
                },
                {
                    "name": "E4",
                    "midi": 64,
                    "time": 56.52101124999996,
                    "velocity": 0.5748031496062992,
                    "duration": 0.09399281249999802
                },
                {
                    "name": "C4",
                    "midi": 60,
                    "time": 56.64633499999996,
                    "velocity": 0.6062992125984252,
                    "duration": 0.25064749999999947
                },
                {
                    "name": "F4",
                    "midi": 65,
                    "time": 56.64633499999996,
                    "velocity": 0.6062992125984252,
                    "duration": 0.25064749999999947
                },
                {
                    "name": "D4",
                    "midi": 62,
                    "time": 57.02230624999996,
                    "velocity": 0.49606299212598426,
                    "duration": 0.09399281249999802
                },
                {
                    "name": "G#4",
                    "midi": 68,
                    "time": 57.02230624999996,
                    "velocity": 0.5748031496062992,
                    "duration": 0.09399281249999802
                },
                {
                    "name": "A4",
                    "midi": 69,
                    "time": 57.14762999999996,
                    "velocity": 0.6377952755905512,
                    "duration": 0.25064749999999947
                },
                {
                    "name": "E4",
                    "midi": 64,
                    "time": 57.14762999999996,
                    "velocity": 0.6377952755905512,
                    "duration": 0.25064749999999947
                },
                {
                    "name": "E4",
                    "midi": 64,
                    "time": 57.523601249999956,
                    "velocity": 0.5275590551181102,
                    "duration": 0.09399281249999802
                },
                {
                    "name": "B4",
                    "midi": 71,
                    "time": 57.523601249999956,
                    "velocity": 0.6299212598425197,
                    "duration": 0.09399281249999802
                },
                {
                    "name": "E4",
                    "midi": 64,
                    "time": 57.648924999999956,
                    "velocity": 0.5590551181102362,
                    "duration": 0.12532374999999973
                },
                {
                    "name": "A4",
                    "midi": 69,
                    "time": 57.648924999999956,
                    "velocity": 0.6771653543307087,
                    "duration": 0.12532374999999973
                },
                {
                    "name": "A3",
                    "midi": 57,
                    "time": 58.150219999999955,
                    "velocity": 0.7637795275590551,
                    "duration": 1.0025899999999979
                },
                {
                    "name": "A3",
                    "midi": 57,
                    "time": 59.15280999999995,
                    "velocity": 0.6692913385826772,
                    "duration": 1.0025899999999979
                },
                {
                    "name": "A4",
                    "midi": 69,
                    "time": 59.15280999999995,
                    "velocity": 0.6692913385826772,
                    "duration": 1.0025899999999979
                },
                {
                    "name": "F4",
                    "midi": 65,
                    "time": 59.15280999999995,
                    "velocity": 0.6692913385826772,
                    "duration": 1.0025899999999979
                },
                {
                    "name": "A#4",
                    "midi": 70,
                    "time": 60.15539999999995,
                    "velocity": 0.7086614173228346,
                    "duration": 1.0025899999999979
                },
                {
                    "name": "A#3",
                    "midi": 58,
                    "time": 60.15539999999995,
                    "velocity": 0.7086614173228346,
                    "duration": 1.0025899999999979
                },
                {
                    "name": "G4",
                    "midi": 67,
                    "time": 60.15539999999995,
                    "velocity": 0.7086614173228346,
                    "duration": 1.0025899999999979
                },
                {
                    "name": "F4",
                    "midi": 65,
                    "time": 61.15798999999995,
                    "velocity": 0.6299212598425197,
                    "duration": 0.25064749999999947
                },
                {
                    "name": "A4",
                    "midi": 69,
                    "time": 61.15798999999995,
                    "velocity": 0.6299212598425197,
                    "duration": 0.25064749999999947
                },
                {
                    "name": "A3",
                    "midi": 57,
                    "time": 61.15798999999995,
                    "velocity": 0.6299212598425197,
                    "duration": 0.25064749999999947
                },
                {
                    "name": "A4",
                    "midi": 69,
                    "time": 61.65928499999995,
                    "velocity": 0.5748031496062992,
                    "duration": 0.25064749999999947
                },
                {
                    "name": "F5",
                    "midi": 77,
                    "time": 61.65928499999995,
                    "velocity": 0.7007874015748031,
                    "duration": 0.25064749999999947
                },
                {
                    "name": "A4",
                    "midi": 69,
                    "time": 62.03525624999995,
                    "velocity": 0.5511811023622047,
                    "duration": 0.09399281249999802
                },
                {
                    "name": "E5",
                    "midi": 76,
                    "time": 62.03525624999995,
                    "velocity": 0.6614173228346457,
                    "duration": 0.09399281249999802
                },
                {
                    "name": "D5",
                    "midi": 74,
                    "time": 62.160579999999946,
                    "velocity": 0.6299212598425197,
                    "duration": 0.25064749999999947
                },
                {
                    "name": "A4",
                    "midi": 69,
                    "time": 62.160579999999946,
                    "velocity": 0.5275590551181102,
                    "duration": 0.25064749999999947
                },
                {
                    "name": "G4",
                    "midi": 67,
                    "time": 62.536551249999945,
                    "velocity": 0.49606299212598426,
                    "duration": 0.09399281249999802
                },
                {
                    "name": "C5",
                    "midi": 72,
                    "time": 62.536551249999945,
                    "velocity": 0.5748031496062992,
                    "duration": 0.09399281249999802
                },
                {
                    "name": "F4",
                    "midi": 65,
                    "time": 62.661874999999945,
                    "velocity": 0.49606299212598426,
                    "duration": 0.25064749999999947
                },
                {
                    "name": "A#4",
                    "midi": 70,
                    "time": 62.661874999999945,
                    "velocity": 0.5669291338582677,
                    "duration": 0.25064749999999947
                },
                {
                    "name": "E4",
                    "midi": 64,
                    "time": 63.037846249999944,
                    "velocity": 0.4566929133858268,
                    "duration": 0.09399281249999802
                },
                {
                    "name": "A4",
                    "midi": 69,
                    "time": 63.037846249999944,
                    "velocity": 0.5511811023622047,
                    "duration": 0.09399281249999802
                },
                {
                    "name": "A#4",
                    "midi": 70,
                    "time": 63.163169999999944,
                    "velocity": 0.5905511811023622,
                    "duration": 0.25064749999999947
                },
                {
                    "name": "F4",
                    "midi": 65,
                    "time": 63.163169999999944,
                    "velocity": 0.5039370078740157,
                    "duration": 0.25064749999999947
                },
                {
                    "name": "E4",
                    "midi": 64,
                    "time": 63.53914124999994,
                    "velocity": 0.44881889763779526,
                    "duration": 0.09399281249999802
                },
                {
                    "name": "A4",
                    "midi": 69,
                    "time": 63.53914124999994,
                    "velocity": 0.5511811023622047,
                    "duration": 0.09399281249999802
                },
                {
                    "name": "D4",
                    "midi": 62,
                    "time": 63.66446499999994,
                    "velocity": 0.5826771653543307,
                    "duration": 0.25064749999999947
                },
                {
                    "name": "G4",
                    "midi": 67,
                    "time": 63.66446499999994,
                    "velocity": 0.5826771653543307,
                    "duration": 0.25064749999999947
                },
                {
                    "name": "C4",
                    "midi": 60,
                    "time": 64.04043624999994,
                    "velocity": 0.4566929133858268,
                    "duration": 0.09399281250000513
                },
                {
                    "name": "F#4",
                    "midi": 66,
                    "time": 64.04043624999994,
                    "velocity": 0.5511811023622047,
                    "duration": 0.09399281250000513
                },
                {
                    "name": "D4",
                    "midi": 62,
                    "time": 64.16575999999995,
                    "velocity": 0.6062992125984252,
                    "duration": 0.25064749999999947
                },
                {
                    "name": "G4",
                    "midi": 67,
                    "time": 64.16575999999995,
                    "velocity": 0.6062992125984252,
                    "duration": 0.25064749999999947
                },
                {
                    "name": "A4",
                    "midi": 69,
                    "time": 64.54173124999996,
                    "velocity": 0.5748031496062992,
                    "duration": 0.09399281250000513
                },
                {
                    "name": "E4",
                    "midi": 64,
                    "time": 64.54173124999996,
                    "velocity": 0.49606299212598426,
                    "duration": 0.09399281250000513
                },
                {
                    "name": "F4",
                    "midi": 65,
                    "time": 64.66705499999996,
                    "velocity": 0.6141732283464567,
                    "duration": 0.25064749999999947
                },
                {
                    "name": "A#4",
                    "midi": 70,
                    "time": 64.66705499999996,
                    "velocity": 0.6141732283464567,
                    "duration": 0.25064749999999947
                },
                {
                    "name": "G4",
                    "midi": 67,
                    "time": 65.04302624999997,
                    "velocity": 0.49606299212598426,
                    "duration": 0.09399281250000513
                },
                {
                    "name": "C#5",
                    "midi": 73,
                    "time": 65.04302624999997,
                    "velocity": 0.5748031496062992,
                    "duration": 0.09399281250000513
                },
                {
                    "name": "A4",
                    "midi": 69,
                    "time": 65.16834999999998,
                    "velocity": 0.5511811023622047,
                    "duration": 0.25064749999999947
                },
                {
                    "name": "D5",
                    "midi": 74,
                    "time": 65.16834999999998,
                    "velocity": 0.6614173228346457,
                    "duration": 0.25064749999999947
                },
                {
                    "name": "E5",
                    "midi": 76,
                    "time": 65.54432124999998,
                    "velocity": 0.6299212598425197,
                    "duration": 0.09399281250000513
                },
                {
                    "name": "A4",
                    "midi": 69,
                    "time": 65.54432124999998,
                    "velocity": 0.5275590551181102,
                    "duration": 0.09399281250000513
                },
                {
                    "name": "A4",
                    "midi": 69,
                    "time": 65.66964499999999,
                    "velocity": 0.5590551181102362,
                    "duration": 0.12532375000000684
                },
                {
                    "name": "D5",
                    "midi": 74,
                    "time": 65.66964499999999,
                    "velocity": 0.6771653543307087,
                    "duration": 0.12532375000000684
                },
                {
                    "name": "D4",
                    "midi": 62,
                    "time": 69.680005,
                    "velocity": 0.6535433070866141,
                    "duration": 0.49816190625000445
                },
                {
                    "name": "D5",
                    "midi": 74,
                    "time": 69.680005,
                    "velocity": 0.7322834645669292,
                    "duration": 1.0025899999999979
                },
                {
                    "name": "G4",
                    "midi": 67,
                    "time": 70.68259499999999,
                    "velocity": 0.6299212598425197,
                    "duration": 0.5012949999999989
                },
                {
                    "name": "G5",
                    "midi": 79,
                    "time": 70.68259499999999,
                    "velocity": 0.7007874015748031,
                    "duration": 0.5012949999999989
                },
                {
                    "name": "A4",
                    "midi": 69,
                    "time": 71.18388999999999,
                    "velocity": 0.6614173228346457,
                    "duration": 0.5012949999999989
                },
                {
                    "name": "A5",
                    "midi": 81,
                    "time": 71.18388999999999,
                    "velocity": 0.7401574803149606,
                    "duration": 0.5012949999999989
                },
                {
                    "name": "A#4",
                    "midi": 70,
                    "time": 71.68518499999999,
                    "velocity": 0.6299212598425197,
                    "duration": 0.5012949999999989
                },
                {
                    "name": "A#5",
                    "midi": 82,
                    "time": 71.68518499999999,
                    "velocity": 0.7007874015748031,
                    "duration": 0.5012949999999989
                },
                {
                    "name": "A4",
                    "midi": 69,
                    "time": 72.18647999999999,
                    "velocity": 0.6535433070866141,
                    "duration": 1.0025899999999979
                },
                {
                    "name": "A5",
                    "midi": 81,
                    "time": 72.18647999999999,
                    "velocity": 0.7322834645669292,
                    "duration": 1.0025899999999979
                },
                {
                    "name": "D4",
                    "midi": 62,
                    "time": 73.18906999999999,
                    "velocity": 0.5984251968503937,
                    "duration": 0.20887291666666385
                },
                {
                    "name": "D5",
                    "midi": 74,
                    "time": 73.18906999999999,
                    "velocity": 0.6692913385826772,
                    "duration": 0.20887291666666385
                },
                {
                    "name": "C5",
                    "midi": 72,
                    "time": 73.69036499999999,
                    "velocity": 0.6850393700787402,
                    "duration": 0.5012949999999989
                },
                {
                    "name": "C6",
                    "midi": 84,
                    "time": 73.69036499999999,
                    "velocity": 0.7637795275590551,
                    "duration": 0.5012949999999989
                },
                {
                    "name": "A#4",
                    "midi": 70,
                    "time": 74.19165999999998,
                    "velocity": 0.6850393700787402,
                    "duration": 1.0025899999999979
                },
                {
                    "name": "A#5",
                    "midi": 82,
                    "time": 74.19165999999998,
                    "velocity": 0.7637795275590551,
                    "duration": 1.0025899999999979
                },
                {
                    "name": "D5",
                    "midi": 74,
                    "time": 75.19424999999998,
                    "velocity": 0.7244094488188977,
                    "duration": 0.20887291666666385
                },
                {
                    "name": "D4",
                    "midi": 62,
                    "time": 75.19424999999998,
                    "velocity": 0.6456692913385826,
                    "duration": 0.20887291666666385
                },
                {
                    "name": "A#4",
                    "midi": 70,
                    "time": 75.69554499999998,
                    "velocity": 0.6850393700787402,
                    "duration": 0.5012949999999989
                },
                {
                    "name": "A#5",
                    "midi": 82,
                    "time": 75.69554499999998,
                    "velocity": 0.7637795275590551,
                    "duration": 0.5012949999999989
                },
                {
                    "name": "A4",
                    "midi": 69,
                    "time": 76.19683999999998,
                    "velocity": 0.6456692913385826,
                    "duration": 1.0025899999999979
                },
                {
                    "name": "A5",
                    "midi": 81,
                    "time": 76.19683999999998,
                    "velocity": 0.7244094488188977,
                    "duration": 1.0025899999999979
                },
                {
                    "name": "D4",
                    "midi": 62,
                    "time": 77.19942999999998,
                    "velocity": 0.5905511811023622,
                    "duration": 0.20887291666666385
                },
                {
                    "name": "D5",
                    "midi": 74,
                    "time": 77.19942999999998,
                    "velocity": 0.6614173228346457,
                    "duration": 0.20887291666666385
                },
                {
                    "name": "D5",
                    "midi": 74,
                    "time": 77.70072499999998,
                    "velocity": 0.7637795275590551,
                    "duration": 1.0025899999999979
                },
                {
                    "name": "D4",
                    "midi": 62,
                    "time": 77.70072499999998,
                    "velocity": 0.6850393700787402,
                    "duration": 1.0025899999999979
                },
                {
                    "name": "G4",
                    "midi": 67,
                    "time": 78.70331499999998,
                    "velocity": 0.6377952755905512,
                    "duration": 0.5012949999999989
                },
                {
                    "name": "G5",
                    "midi": 79,
                    "time": 78.70331499999998,
                    "velocity": 0.7165354330708661,
                    "duration": 0.5012949999999989
                },
                {
                    "name": "A4",
                    "midi": 69,
                    "time": 79.20460999999997,
                    "velocity": 0.6771653543307087,
                    "duration": 0.5012949999999989
                },
                {
                    "name": "A5",
                    "midi": 81,
                    "time": 79.20460999999997,
                    "velocity": 0.7559055118110236,
                    "duration": 0.5012949999999989
                },
                {
                    "name": "A#4",
                    "midi": 70,
                    "time": 79.70590499999997,
                    "velocity": 0.6535433070866141,
                    "duration": 0.5012949999999989
                },
                {
                    "name": "A#5",
                    "midi": 82,
                    "time": 79.70590499999997,
                    "velocity": 0.7322834645669292,
                    "duration": 0.5012949999999989
                },
                {
                    "name": "A4",
                    "midi": 69,
                    "time": 80.20719999999997,
                    "velocity": 0.6929133858267716,
                    "duration": 1.0025899999999979
                },
                {
                    "name": "A5",
                    "midi": 81,
                    "time": 80.20719999999997,
                    "velocity": 0.7716535433070866,
                    "duration": 1.0025899999999979
                },
                {
                    "name": "D5",
                    "midi": 74,
                    "time": 81.20978999999997,
                    "velocity": 0.6614173228346457,
                    "duration": 0.20887291666666385
                },
                {
                    "name": "D4",
                    "midi": 62,
                    "time": 81.20978999999997,
                    "velocity": 0.5905511811023622,
                    "duration": 0.20887291666666385
                },
                {
                    "name": "A4",
                    "midi": 69,
                    "time": 81.71108499999997,
                    "velocity": 0.6614173228346457,
                    "duration": 1.0025899999999979
                },
                {
                    "name": "A5",
                    "midi": 81,
                    "time": 81.71108499999997,
                    "velocity": 0.7401574803149606,
                    "duration": 1.0025899999999979
                },
                {
                    "name": "C6",
                    "midi": 84,
                    "time": 82.71367499999997,
                    "velocity": 0.7480314960629921,
                    "duration": 0.5012949999999989
                },
                {
                    "name": "C5",
                    "midi": 72,
                    "time": 82.71367499999997,
                    "velocity": 0.6692913385826772,
                    "duration": 0.5012949999999989
                },
                {
                    "name": "D5",
                    "midi": 74,
                    "time": 83.21496999999997,
                    "velocity": 0.7322834645669292,
                    "duration": 0.5012949999999989
                },
                {
                    "name": "D6",
                    "midi": 86,
                    "time": 83.21496999999997,
                    "velocity": 0.8188976377952756,
                    "duration": 0.5012949999999989
                },
                {
                    "name": "E6",
                    "midi": 88,
                    "time": 83.71626499999996,
                    "velocity": 0.7952755905511811,
                    "duration": 0.5012949999999989
                },
                {
                    "name": "E5",
                    "midi": 76,
                    "time": 83.71626499999996,
                    "velocity": 0.7086614173228346,
                    "duration": 0.5012949999999989
                },
                {
                    "name": "E6",
                    "midi": 88,
                    "time": 84.21755999999996,
                    "velocity": 0.8503937007874016,
                    "duration": 0.9608154166666623
                },
                {
                    "name": "E5",
                    "midi": 76,
                    "time": 84.21755999999996,
                    "velocity": 0.7637795275590551,
                    "duration": 0.9608154166666623
                },
                {
                    "name": "E5",
                    "midi": 76,
                    "time": 85.22014999999996,
                    "velocity": 0.6614173228346457,
                    "duration": 0.9608154166666623
                },
                {
                    "name": "E6",
                    "midi": 88,
                    "time": 85.22014999999996,
                    "velocity": 0.7401574803149606,
                    "duration": 0.9608154166666623
                },
                {
                    "name": "C6",
                    "midi": 84,
                    "time": 86.22273999999996,
                    "velocity": 0.7559055118110236,
                    "duration": 1.0025899999999979
                },
                {
                    "name": "C5",
                    "midi": 72,
                    "time": 86.22273999999996,
                    "velocity": 0.6771653543307087,
                    "duration": 1.0025899999999979
                },
                {
                    "name": "A5",
                    "midi": 81,
                    "time": 87.22532999999996,
                    "velocity": 0.6377952755905512,
                    "duration": 0.20887291666666385
                },
                {
                    "name": "A4",
                    "midi": 69,
                    "time": 87.22532999999996,
                    "velocity": 0.5669291338582677,
                    "duration": 0.20887291666666385
                },
                {
                    "name": "E4",
                    "midi": 64,
                    "time": 88.22791999999995,
                    "velocity": 0.3779527559055118,
                    "duration": 0.9608154166666623
                },
                {
                    "name": "E5",
                    "midi": 76,
                    "time": 88.22791999999995,
                    "velocity": 0.3779527559055118,
                    "duration": 0.9608154166666623
                },
                {
                    "name": "E5",
                    "midi": 76,
                    "time": 89.23050999999995,
                    "velocity": 0.3779527559055118,
                    "duration": 0.9608154166666623
                },
                {
                    "name": "E4",
                    "midi": 64,
                    "time": 89.23050999999995,
                    "velocity": 0.3779527559055118,
                    "duration": 0.9608154166666623
                },
                {
                    "name": "C4",
                    "midi": 60,
                    "time": 90.23309999999995,
                    "velocity": 0.3543307086614173,
                    "duration": 1.0025899999999979
                },
                {
                    "name": "C5",
                    "midi": 72,
                    "time": 90.23309999999995,
                    "velocity": 0.3543307086614173,
                    "duration": 1.0025899999999979
                },
                {
                    "name": "A3",
                    "midi": 57,
                    "time": 91.23568999999995,
                    "velocity": 0.3228346456692913,
                    "duration": 0.20887291666666385
                },
                {
                    "name": "A4",
                    "midi": 69,
                    "time": 91.23568999999995,
                    "velocity": 0.3228346456692913,
                    "duration": 0.20887291666666385
                },
                {
                    "name": "A#3",
                    "midi": 58,
                    "time": 92.23827999999995,
                    "velocity": 0.2677165354330709,
                    "duration": 1.0025899999999979
                },
                {
                    "name": "A#4",
                    "midi": 70,
                    "time": 92.23827999999995,
                    "velocity": 0.2677165354330709,
                    "duration": 1.0025899999999979
                },
                {
                    "name": "G4",
                    "midi": 67,
                    "time": 93.24086999999994,
                    "velocity": 0.1968503937007874,
                    "duration": 0.18798562499999605
                },
                {
                    "name": "G3",
                    "midi": 55,
                    "time": 93.24086999999994,
                    "velocity": 0.1968503937007874,
                    "duration": 0.18798562499999605
                },
                {
                    "name": "A#3",
                    "midi": 58,
                    "time": 94.24345999999994,
                    "velocity": 0.2440944881889764,
                    "duration": 1.0025899999999979
                },
                {
                    "name": "A#4",
                    "midi": 70,
                    "time": 94.24345999999994,
                    "velocity": 0.2440944881889764,
                    "duration": 1.0025899999999979
                },
                {
                    "name": "G3",
                    "midi": 55,
                    "time": 95.24604999999994,
                    "velocity": 0.1968503937007874,
                    "duration": 0.18798562499999605
                },
                {
                    "name": "G4",
                    "midi": 67,
                    "time": 95.24604999999994,
                    "velocity": 0.1968503937007874,
                    "duration": 0.18798562499999605
                },
                {
                    "name": "A#3",
                    "midi": 58,
                    "time": 96.24863999999994,
                    "velocity": 0.2440944881889764,
                    "duration": 1.0025899999999979
                },
                {
                    "name": "A#4",
                    "midi": 70,
                    "time": 96.24863999999994,
                    "velocity": 0.2440944881889764,
                    "duration": 1.0025899999999979
                },
                {
                    "name": "G3",
                    "midi": 55,
                    "time": 97.25122999999994,
                    "velocity": 0.1889763779527559,
                    "duration": 0.18798562499999605
                },
                {
                    "name": "G4",
                    "midi": 67,
                    "time": 97.25122999999994,
                    "velocity": 0.1889763779527559,
                    "duration": 0.18798562499999605
                },
                {
                    "name": "A#4",
                    "midi": 70,
                    "time": 98.25381999999993,
                    "velocity": 0.2677165354330709,
                    "duration": 1.0025899999999979
                },
                {
                    "name": "A#3",
                    "midi": 58,
                    "time": 98.25381999999993,
                    "velocity": 0.2677165354330709,
                    "duration": 1.0025899999999979
                },
                {
                    "name": "G3",
                    "midi": 55,
                    "time": 99.25640999999993,
                    "velocity": 0.2283464566929134,
                    "duration": 0.18798562499999605
                },
                {
                    "name": "G4",
                    "midi": 67,
                    "time": 99.25640999999993,
                    "velocity": 0.2283464566929134,
                    "duration": 0.18798562499999605
                },
                {
                    "name": "B3",
                    "midi": 59,
                    "time": 100.25899999999993,
                    "velocity": 0.6299212598425197,
                    "duration": 0.12532375000000684
                },
                {
                    "name": "B4",
                    "midi": 71,
                    "time": 100.38432374999994,
                    "velocity": 0.5984251968503937,
                    "duration": 0.12532375000000684
                },
                {
                    "name": "B3",
                    "midi": 59,
                    "time": 100.50964749999994,
                    "velocity": 0.5669291338582677,
                    "duration": 0.12532375000000684
                },
                {
                    "name": "B4",
                    "midi": 71,
                    "time": 100.63497124999995,
                    "velocity": 0.5275590551181102,
                    "duration": 0.12532375000000684
                },
                {
                    "name": "B3",
                    "midi": 59,
                    "time": 100.76029499999996,
                    "velocity": 0.49606299212598426,
                    "duration": 0.12532375000000684
                },
                {
                    "name": "B4",
                    "midi": 71,
                    "time": 100.88561874999996,
                    "velocity": 0.47244094488188976,
                    "duration": 0.12532375000000684
                },
                {
                    "name": "B3",
                    "midi": 59,
                    "time": 101.01094249999997,
                    "velocity": 0.44881889763779526,
                    "duration": 0.12532375000000684
                },
                {
                    "name": "B4",
                    "midi": 71,
                    "time": 101.13626624999998,
                    "velocity": 0.4251968503937008,
                    "duration": 0.12532375000000684
                },
                {
                    "name": "B3",
                    "midi": 59,
                    "time": 101.26158999999998,
                    "velocity": 0.47244094488188976,
                    "duration": 0.12532375000000684
                },
                {
                    "name": "B4",
                    "midi": 71,
                    "time": 101.38691374999999,
                    "velocity": 0.44881889763779526,
                    "duration": 0.12532375000000684
                },
                {
                    "name": "B3",
                    "midi": 59,
                    "time": 101.5122375,
                    "velocity": 0.4330708661417323,
                    "duration": 0.12532375000000684
                },
                {
                    "name": "B4",
                    "midi": 71,
                    "time": 101.63756125,
                    "velocity": 0.4094488188976378,
                    "duration": 0.12532375000000684
                },
                {
                    "name": "B3",
                    "midi": 59,
                    "time": 101.76288500000001,
                    "velocity": 0.4566929133858268,
                    "duration": 0.12532375000000684
                },
                {
                    "name": "B4",
                    "midi": 71,
                    "time": 101.88820875000002,
                    "velocity": 0.4409448818897638,
                    "duration": 0.12532375000000684
                },
                {
                    "name": "B3",
                    "midi": 59,
                    "time": 102.01353250000003,
                    "velocity": 0.4251968503937008,
                    "duration": 0.12532375000000684
                },
                {
                    "name": "B4",
                    "midi": 71,
                    "time": 102.13885625000003,
                    "velocity": 0.4015748031496063,
                    "duration": 0.12532375000000684
                },
                {
                    "name": "G#3",
                    "midi": 56,
                    "time": 102.26418000000004,
                    "velocity": 0.6299212598425197,
                    "duration": 0.12532375000000684
                },
                {
                    "name": "G#4",
                    "midi": 68,
                    "time": 102.38950375000005,
                    "velocity": 0.5905511811023622,
                    "duration": 0.12532375000000684
                },
                {
                    "name": "G#3",
                    "midi": 56,
                    "time": 102.51482750000005,
                    "velocity": 0.5433070866141733,
                    "duration": 0.12532375000000684
                },
                {
                    "name": "G#4",
                    "midi": 68,
                    "time": 102.64015125000006,
                    "velocity": 0.5118110236220472,
                    "duration": 0.12532375000000684
                },
                {
                    "name": "G#3",
                    "midi": 56,
                    "time": 102.76547500000007,
                    "velocity": 0.48031496062992124,
                    "duration": 0.12532375000000684
                },
                {
                    "name": "G#4",
                    "midi": 68,
                    "time": 102.89079875000007,
                    "velocity": 0.47244094488188976,
                    "duration": 0.12532375000000684
                },
                {
                    "name": "G#3",
                    "midi": 56,
                    "time": 103.01612250000008,
                    "velocity": 0.4645669291338583,
                    "duration": 0.12532375000000684
                },
                {
                    "name": "G#4",
                    "midi": 68,
                    "time": 103.14144625000009,
                    "velocity": 0.4566929133858268,
                    "duration": 0.12532375000000684
                },
                {
                    "name": "G#3",
                    "midi": 56,
                    "time": 103.2667700000001,
                    "velocity": 0.5433070866141733,
                    "duration": 0.12532375000000684
                },
                {
                    "name": "G#4",
                    "midi": 68,
                    "time": 103.3920937500001,
                    "velocity": 0.5354330708661418,
                    "duration": 0.12532375000000684
                },
                {
                    "name": "G#3",
                    "midi": 56,
                    "time": 103.51741750000011,
                    "velocity": 0.5196850393700787,
                    "duration": 0.12532375000000684
                },
                {
                    "name": "G#4",
                    "midi": 68,
                    "time": 103.64274125000011,
                    "velocity": 0.49606299212598426,
                    "duration": 0.12532375000000684
                },
                {
                    "name": "G#3",
                    "midi": 56,
                    "time": 103.76806500000012,
                    "velocity": 0.5748031496062992,
                    "duration": 0.12532375000000684
                },
                {
                    "name": "G#4",
                    "midi": 68,
                    "time": 103.89338875000013,
                    "velocity": 0.5511811023622047,
                    "duration": 0.12532375000000684
                },
                {
                    "name": "G#3",
                    "midi": 56,
                    "time": 104.01871250000013,
                    "velocity": 0.5275590551181102,
                    "duration": 0.12532375000000684
                },
                {
                    "name": "G#4",
                    "midi": 68,
                    "time": 104.14403625000014,
                    "velocity": 0.5039370078740157,
                    "duration": 0.12532375000000684
                },
                {
                    "name": "B5",
                    "midi": 83,
                    "time": 104.26936000000015,
                    "velocity": 0.7795275590551181,
                    "duration": 0.5012949999999989
                },
                {
                    "name": "B4",
                    "midi": 71,
                    "time": 104.26936000000015,
                    "velocity": 0.7795275590551181,
                    "duration": 0.5012949999999989
                },
                {
                    "name": "G#4",
                    "midi": 68,
                    "time": 104.77065500000015,
                    "velocity": 0.7086614173228346,
                    "duration": 0.18798562499999605
                },
                {
                    "name": "G#5",
                    "midi": 80,
                    "time": 104.77065500000015,
                    "velocity": 0.7086614173228346,
                    "duration": 0.18798562499999605
                },
                {
                    "name": "B4",
                    "midi": 71,
                    "time": 105.27195000000015,
                    "velocity": 0.7716535433070866,
                    "duration": 0.5012949999999989
                },
                {
                    "name": "B5",
                    "midi": 83,
                    "time": 105.27195000000015,
                    "velocity": 0.7716535433070866,
                    "duration": 0.5012949999999989
                },
                {
                    "name": "E6",
                    "midi": 88,
                    "time": 105.77324500000014,
                    "velocity": 0.7322834645669292,
                    "duration": 0.18798562499999605
                },
                {
                    "name": "E5",
                    "midi": 76,
                    "time": 105.77324500000014,
                    "velocity": 0.7322834645669292,
                    "duration": 0.18798562499999605
                },
                {
                    "name": "B4",
                    "midi": 71,
                    "time": 106.27454000000014,
                    "velocity": 0.7480314960629921,
                    "duration": 0.5012949999999989
                },
                {
                    "name": "B5",
                    "midi": 83,
                    "time": 106.27454000000014,
                    "velocity": 0.7480314960629921,
                    "duration": 0.5012949999999989
                },
                {
                    "name": "G#4",
                    "midi": 68,
                    "time": 106.77583500000014,
                    "velocity": 0.7086614173228346,
                    "duration": 0.18798562499999605
                },
                {
                    "name": "G#5",
                    "midi": 80,
                    "time": 106.77583500000014,
                    "velocity": 0.7086614173228346,
                    "duration": 0.18798562499999605
                },
                {
                    "name": "E5",
                    "midi": 76,
                    "time": 107.27713000000014,
                    "velocity": 0.7086614173228346,
                    "duration": 0.5012949999999989
                },
                {
                    "name": "E4",
                    "midi": 64,
                    "time": 107.27713000000014,
                    "velocity": 0.7086614173228346,
                    "duration": 0.5012949999999989
                },
                {
                    "name": "B3",
                    "midi": 59,
                    "time": 107.77842500000014,
                    "velocity": 0.6377952755905512,
                    "duration": 0.18798562499999605
                },
                {
                    "name": "B4",
                    "midi": 71,
                    "time": 107.77842500000014,
                    "velocity": 0.6377952755905512,
                    "duration": 0.18798562499999605
                },
                {
                    "name": "G#4",
                    "midi": 68,
                    "time": 108.27972000000014,
                    "velocity": 0.2677165354330709,
                    "duration": 2.0051799999999957
                },
                {
                    "name": "E4",
                    "midi": 64,
                    "time": 108.27972000000014,
                    "velocity": 0.2677165354330709,
                    "duration": 2.0051799999999957
                },
                {
                    "name": "G#3",
                    "midi": 56,
                    "time": 108.27972000000014,
                    "velocity": 0.2677165354330709,
                    "duration": 2.0051799999999957
                },
                {
                    "name": "A3",
                    "midi": 57,
                    "time": 110.28490000000014,
                    "velocity": 0.2992125984251969,
                    "duration": 2.0051799999999957
                },
                {
                    "name": "B4",
                    "midi": 71,
                    "time": 110.28490000000014,
                    "velocity": 0.2992125984251969,
                    "duration": 2.0051799999999957
                },
                {
                    "name": "D#4",
                    "midi": 63,
                    "time": 110.28490000000014,
                    "velocity": 0.2992125984251969,
                    "duration": 2.0051799999999957
                },
                {
                    "name": "B3",
                    "midi": 59,
                    "time": 112.29008000000013,
                    "velocity": 0.7322834645669292,
                    "duration": 0.12532375000000684
                },
                {
                    "name": "B4",
                    "midi": 71,
                    "time": 112.41540375000014,
                    "velocity": 0.6850393700787402,
                    "duration": 0.12532375000000684
                },
                {
                    "name": "B3",
                    "midi": 59,
                    "time": 112.54072750000014,
                    "velocity": 0.6377952755905512,
                    "duration": 0.12532375000000684
                },
                {
                    "name": "B4",
                    "midi": 71,
                    "time": 112.66605125000015,
                    "velocity": 0.5905511811023622,
                    "duration": 0.12532375000000684
                },
                {
                    "name": "G#3",
                    "midi": 56,
                    "time": 112.79137500000016,
                    "velocity": 0.7165354330708661,
                    "duration": 0.12532375000000684
                },
                {
                    "name": "G#4",
                    "midi": 68,
                    "time": 112.91669875000017,
                    "velocity": 0.6771653543307087,
                    "duration": 0.12532375000000684
                },
                {
                    "name": "G#3",
                    "midi": 56,
                    "time": 113.04202250000017,
                    "velocity": 0.6377952755905512,
                    "duration": 0.12532375000000684
                },
                {
                    "name": "G#4",
                    "midi": 68,
                    "time": 113.16734625000018,
                    "velocity": 0.5905511811023622,
                    "duration": 0.12532375000000684
                },
                {
                    "name": "B3",
                    "midi": 59,
                    "time": 113.29267000000019,
                    "velocity": 0.6614173228346457,
                    "duration": 0.12532375000000684
                },
                {
                    "name": "B4",
                    "midi": 71,
                    "time": 113.41799375000019,
                    "velocity": 0.6299212598425197,
                    "duration": 0.12532375000000684
                },
                {
                    "name": "B3",
                    "midi": 59,
                    "time": 113.5433175000002,
                    "velocity": 0.6062992125984252,
                    "duration": 0.12532375000000684
                },
                {
                    "name": "B4",
                    "midi": 71,
                    "time": 113.6686412500002,
                    "velocity": 0.5748031496062992,
                    "duration": 0.12532375000000684
                },
                {
                    "name": "E4",
                    "midi": 64,
                    "time": 113.79396500000021,
                    "velocity": 0.6929133858267716,
                    "duration": 0.12532375000000684
                },
                {
                    "name": "E5",
                    "midi": 76,
                    "time": 113.91928875000022,
                    "velocity": 0.6692913385826772,
                    "duration": 0.12532375000000684
                },
                {
                    "name": "E4",
                    "midi": 64,
                    "time": 114.04461250000023,
                    "velocity": 0.6535433070866141,
                    "duration": 0.12532375000000684
                },
                {
                    "name": "E5",
                    "midi": 76,
                    "time": 114.16993625000023,
                    "velocity": 0.6299212598425197,
                    "duration": 0.12532375000000684
                },
                {
                    "name": "G#4",
                    "midi": 68,
                    "time": 114.29526000000024,
                    "velocity": 0.7165354330708661,
                    "duration": 0.12532375000000684
                },
                {
                    "name": "G#5",
                    "midi": 80,
                    "time": 114.42058375000025,
                    "velocity": 0.6929133858267716,
                    "duration": 0.12532375000000684
                },
                {
                    "name": "G#4",
                    "midi": 68,
                    "time": 114.54590750000025,
                    "velocity": 0.6771653543307087,
                    "duration": 0.12532375000000684
                },
                {
                    "name": "G#5",
                    "midi": 80,
                    "time": 114.67123125000026,
                    "velocity": 0.6535433070866141,
                    "duration": 0.12532375000000684
                },
                {
                    "name": "B4",
                    "midi": 71,
                    "time": 114.79655500000027,
                    "velocity": 0.7401574803149606,
                    "duration": 0.12532375000000684
                },
                {
                    "name": "B5",
                    "midi": 83,
                    "time": 114.92187875000027,
                    "velocity": 0.7165354330708661,
                    "duration": 0.12532375000000684
                },
                {
                    "name": "B4",
                    "midi": 71,
                    "time": 115.04720250000028,
                    "velocity": 0.6929133858267716,
                    "duration": 0.12532375000000684
                },
                {
                    "name": "B5",
                    "midi": 83,
                    "time": 115.17252625000029,
                    "velocity": 0.6614173228346457,
                    "duration": 0.12532375000000684
                },
                {
                    "name": "E5",
                    "midi": 76,
                    "time": 115.2978500000003,
                    "velocity": 0.8031496062992126,
                    "duration": 0.12532375000000684
                },
                {
                    "name": "E6",
                    "midi": 88,
                    "time": 115.4231737500003,
                    "velocity": 0.7559055118110236,
                    "duration": 0.12532375000000684
                },
                {
                    "name": "E5",
                    "midi": 76,
                    "time": 115.54849750000031,
                    "velocity": 0.7086614173228346,
                    "duration": 0.12532375000000684
                },
                {
                    "name": "E6",
                    "midi": 88,
                    "time": 115.67382125000032,
                    "velocity": 0.6614173228346457,
                    "duration": 0.12532375000000684
                },
                {
                    "name": "B4",
                    "midi": 71,
                    "time": 115.79914500000032,
                    "velocity": 0.6456692913385826,
                    "duration": 0.12532375000000684
                },
                {
                    "name": "B5",
                    "midi": 83,
                    "time": 115.92446875000033,
                    "velocity": 0.5590551181102362,
                    "duration": 0.12532375000000684
                },
                {
                    "name": "B4",
                    "midi": 71,
                    "time": 116.04979250000034,
                    "velocity": 0.5354330708661418,
                    "duration": 0.12532375000000684
                },
                {
                    "name": "B5",
                    "midi": 83,
                    "time": 116.17511625000034,
                    "velocity": 0.5039370078740157,
                    "duration": 0.12532375000000684
                },
                {
                    "name": "G#4",
                    "midi": 68,
                    "time": 116.30044000000035,
                    "velocity": 0.30708661417322836,
                    "duration": 2.0051799999999957
                },
                {
                    "name": "E4",
                    "midi": 64,
                    "time": 116.30044000000035,
                    "velocity": 0.30708661417322836,
                    "duration": 2.0051799999999957
                },
                {
                    "name": "G#3",
                    "midi": 56,
                    "time": 116.30044000000035,
                    "velocity": 0.30708661417322836,
                    "duration": 2.0051799999999957
                },
                {
                    "name": "B4",
                    "midi": 71,
                    "time": 118.30562000000035,
                    "velocity": 0.3700787401574803,
                    "duration": 2.0051799999999957
                },
                {
                    "name": "A3",
                    "midi": 57,
                    "time": 118.30562000000035,
                    "velocity": 0.3700787401574803,
                    "duration": 2.0051799999999957
                },
                {
                    "name": "D#4",
                    "midi": 63,
                    "time": 118.30562000000035,
                    "velocity": 0.3700787401574803,
                    "duration": 2.0051799999999957
                },
                {
                    "name": "G#3",
                    "midi": 56,
                    "time": 120.31080000000034,
                    "velocity": 0.2677165354330709,
                    "duration": 0.9608154166666623
                },
                {
                    "name": "E4",
                    "midi": 64,
                    "time": 120.31080000000034,
                    "velocity": 0.31496062992125984,
                    "duration": 0.9608154166666623
                },
                {
                    "name": "G#3",
                    "midi": 56,
                    "time": 121.31339000000034,
                    "velocity": 0.2047244094488189,
                    "duration": 0.8772662500000052
                },
                {
                    "name": "E4",
                    "midi": 64,
                    "time": 121.31339000000034,
                    "velocity": 0.23622047244094488,
                    "duration": 0.8772662500000052
                },
                {
                    "name": "G#3",
                    "midi": 56,
                    "time": 122.31598000000035,
                    "velocity": 0.30708661417322836,
                    "duration": 0.49085135416666503
                },
                {
                    "name": "E4",
                    "midi": 64,
                    "time": 122.31598000000035,
                    "velocity": 0.30708661417322836,
                    "duration": 0.49085135416666503
                },
                {
                    "name": "G#4",
                    "midi": 68,
                    "time": 122.81727500000035,
                    "velocity": 0.2677165354330709,
                    "duration": 0.49085135416666503
                },
                {
                    "name": "G#3",
                    "midi": 56,
                    "time": 122.81727500000035,
                    "velocity": 0.2677165354330709,
                    "duration": 0.49085135416666503
                },
                {
                    "name": "G#3",
                    "midi": 56,
                    "time": 123.31857000000035,
                    "velocity": 0.2992125984251969,
                    "duration": 0.49085135416666503
                },
                {
                    "name": "F#4",
                    "midi": 66,
                    "time": 123.31857000000035,
                    "velocity": 0.2992125984251969,
                    "duration": 0.49085135416666503
                },
                {
                    "name": "G#3",
                    "midi": 56,
                    "time": 123.81986500000035,
                    "velocity": 0.2755905511811024,
                    "duration": 0.49085135416666503
                },
                {
                    "name": "G#4",
                    "midi": 68,
                    "time": 123.81986500000035,
                    "velocity": 0.2755905511811024,
                    "duration": 0.49085135416666503
                },
                {
                    "name": "A3",
                    "midi": 57,
                    "time": 124.32116000000035,
                    "velocity": 0.30708661417322836,
                    "duration": 0.9608154166666623
                },
                {
                    "name": "C#4",
                    "midi": 61,
                    "time": 124.32116000000035,
                    "velocity": 0.30708661417322836,
                    "duration": 0.9608154166666623
                },
                {
                    "name": "A3",
                    "midi": 57,
                    "time": 125.32375000000035,
                    "velocity": 0.2204724409448819,
                    "duration": 0.8772662500000052
                },
                {
                    "name": "C#4",
                    "midi": 61,
                    "time": 125.32375000000035,
                    "velocity": 0.2204724409448819,
                    "duration": 0.8772662500000052
                },
                {
                    "name": "C#4",
                    "midi": 61,
                    "time": 126.32634000000036,
                    "velocity": 0.2992125984251969,
                    "duration": 0.49085135416666503
                },
                {
                    "name": "A3",
                    "midi": 57,
                    "time": 126.32634000000036,
                    "velocity": 0.2992125984251969,
                    "duration": 0.49085135416666503
                },
                {
                    "name": "B3",
                    "midi": 59,
                    "time": 126.82763500000036,
                    "velocity": 0.2440944881889764,
                    "duration": 0.49085135416666503
                },
                {
                    "name": "A3",
                    "midi": 57,
                    "time": 126.82763500000036,
                    "velocity": 0.2440944881889764,
                    "duration": 0.49085135416666503
                },
                {
                    "name": "F#4",
                    "midi": 66,
                    "time": 126.82763500000036,
                    "velocity": 0.2440944881889764,
                    "duration": 0.49085135416666503
                },
                {
                    "name": "E4",
                    "midi": 64,
                    "time": 127.32893000000035,
                    "velocity": 0.29133858267716534,
                    "duration": 0.49085135416666503
                },
                {
                    "name": "A3",
                    "midi": 57,
                    "time": 127.32893000000035,
                    "velocity": 0.29133858267716534,
                    "duration": 0.49085135416666503
                },
                {
                    "name": "B3",
                    "midi": 59,
                    "time": 127.32893000000035,
                    "velocity": 0.29133858267716534,
                    "duration": 0.49085135416666503
                },
                {
                    "name": "F#4",
                    "midi": 66,
                    "time": 127.83022500000035,
                    "velocity": 0.2283464566929134,
                    "duration": 0.49085135416666503
                },
                {
                    "name": "A3",
                    "midi": 57,
                    "time": 127.83022500000035,
                    "velocity": 0.2283464566929134,
                    "duration": 0.49085135416666503
                },
                {
                    "name": "B3",
                    "midi": 59,
                    "time": 127.83022500000035,
                    "velocity": 0.2283464566929134,
                    "duration": 0.49085135416666503
                },
                {
                    "name": "B3",
                    "midi": 59,
                    "time": 128.33152000000035,
                    "velocity": 0.28346456692913385,
                    "duration": 0.9608154166666623
                },
                {
                    "name": "G#3",
                    "midi": 56,
                    "time": 128.33152000000035,
                    "velocity": 0.28346456692913385,
                    "duration": 0.9608154166666623
                },
                {
                    "name": "G#3",
                    "midi": 56,
                    "time": 129.33411000000035,
                    "velocity": 0.1889763779527559,
                    "duration": 0.877266249999991
                },
                {
                    "name": "E4",
                    "midi": 64,
                    "time": 129.33411000000035,
                    "velocity": 0.2283464566929134,
                    "duration": 0.877266249999991
                },
                {
                    "name": "G#3",
                    "midi": 56,
                    "time": 130.33670000000035,
                    "velocity": 0.36220472440944884,
                    "duration": 0.49085135416666503
                },
                {
                    "name": "E4",
                    "midi": 64,
                    "time": 130.33670000000035,
                    "velocity": 0.36220472440944884,
                    "duration": 0.49085135416666503
                },
                {
                    "name": "G#3",
                    "midi": 56,
                    "time": 130.83799500000035,
                    "velocity": 0.2992125984251969,
                    "duration": 0.49085135416666503
                },
                {
                    "name": "G#4",
                    "midi": 68,
                    "time": 130.83799500000035,
                    "velocity": 0.2992125984251969,
                    "duration": 0.49085135416666503
                },
                {
                    "name": "F#4",
                    "midi": 66,
                    "time": 131.33929000000035,
                    "velocity": 0.36220472440944884,
                    "duration": 0.49085135416666503
                },
                {
                    "name": "G#3",
                    "midi": 56,
                    "time": 131.33929000000035,
                    "velocity": 0.36220472440944884,
                    "duration": 0.49085135416666503
                },
                {
                    "name": "G#3",
                    "midi": 56,
                    "time": 131.84058500000035,
                    "velocity": 0.30708661417322836,
                    "duration": 0.49085135416666503
                },
                {
                    "name": "G#4",
                    "midi": 68,
                    "time": 131.84058500000035,
                    "velocity": 0.30708661417322836,
                    "duration": 0.49085135416666503
                },
                {
                    "name": "A3",
                    "midi": 57,
                    "time": 132.34188000000034,
                    "velocity": 0.36220472440944884,
                    "duration": 0.9608154166666623
                },
                {
                    "name": "E4",
                    "midi": 64,
                    "time": 132.34188000000034,
                    "velocity": 0.36220472440944884,
                    "duration": 0.9608154166666623
                },
                {
                    "name": "A4",
                    "midi": 69,
                    "time": 132.34188000000034,
                    "velocity": 0.36220472440944884,
                    "duration": 0.9608154166666623
                },
                {
                    "name": "A3",
                    "midi": 57,
                    "time": 133.34447000000034,
                    "velocity": 0.2992125984251969,
                    "duration": 0.877266249999991
                },
                {
                    "name": "E4",
                    "midi": 64,
                    "time": 133.34447000000034,
                    "velocity": 0.2992125984251969,
                    "duration": 0.877266249999991
                },
                {
                    "name": "A4",
                    "midi": 69,
                    "time": 133.34447000000034,
                    "velocity": 0.2992125984251969,
                    "duration": 0.877266249999991
                },
                {
                    "name": "A4",
                    "midi": 69,
                    "time": 134.34706000000034,
                    "velocity": 0.4015748031496063,
                    "duration": 0.9608154166666623
                },
                {
                    "name": "C#4",
                    "midi": 61,
                    "time": 134.34706000000034,
                    "velocity": 0.4015748031496063,
                    "duration": 0.9608154166666623
                },
                {
                    "name": "C#5",
                    "midi": 73,
                    "time": 134.34706000000034,
                    "velocity": 0.4015748031496063,
                    "duration": 0.9608154166666623
                },
                {
                    "name": "C#4",
                    "midi": 61,
                    "time": 135.34965000000034,
                    "velocity": 0.3937007874015748,
                    "duration": 0.497117541666654
                },
                {
                    "name": "A4",
                    "midi": 69,
                    "time": 135.34965000000034,
                    "velocity": 0.3937007874015748,
                    "duration": 0.877266249999991
                },
                {
                    "name": "C#5",
                    "midi": 73,
                    "time": 135.34965000000034,
                    "velocity": 0.3937007874015748,
                    "duration": 0.877266249999991
                },
                {
                    "name": "E4",
                    "midi": 64,
                    "time": 136.35224000000034,
                    "velocity": 0.2677165354330709,
                    "duration": 0.9608154166666623
                },
                {
                    "name": "G#4",
                    "midi": 68,
                    "time": 136.35224000000034,
                    "velocity": 0.2677165354330709,
                    "duration": 0.9608154166666623
                },
                {
                    "name": "E5",
                    "midi": 76,
                    "time": 136.35224000000034,
                    "velocity": 0.31496062992125984,
                    "duration": 0.9608154166666623
                },
                {
                    "name": "G#4",
                    "midi": 68,
                    "time": 137.35483000000033,
                    "velocity": 0.2047244094488189,
                    "duration": 0.877266249999991
                },
                {
                    "name": "E4",
                    "midi": 64,
                    "time": 137.35483000000033,
                    "velocity": 0.2047244094488189,
                    "duration": 0.877266249999991
                },
                {
                    "name": "E5",
                    "midi": 76,
                    "time": 137.35483000000033,
                    "velocity": 0.2440944881889764,
                    "duration": 0.877266249999991
                },
                {
                    "name": "D#4",
                    "midi": 63,
                    "time": 138.35742000000033,
                    "velocity": 0.2992125984251969,
                    "duration": 0.49085135416666503
                },
                {
                    "name": "A4",
                    "midi": 69,
                    "time": 138.35742000000033,
                    "velocity": 0.2992125984251969,
                    "duration": 0.49085135416666503
                },
                {
                    "name": "F#5",
                    "midi": 78,
                    "time": 138.35742000000033,
                    "velocity": 0.2992125984251969,
                    "duration": 0.49085135416666503
                },
                {
                    "name": "F#4",
                    "midi": 66,
                    "time": 138.85871500000033,
                    "velocity": 0.2440944881889764,
                    "duration": 0.49085135416666503
                },
                {
                    "name": "A4",
                    "midi": 69,
                    "time": 138.85871500000033,
                    "velocity": 0.2440944881889764,
                    "duration": 0.49085135416666503
                },
                {
                    "name": "D#5",
                    "midi": 75,
                    "time": 138.85871500000033,
                    "velocity": 0.2440944881889764,
                    "duration": 0.49085135416666503
                },
                {
                    "name": "F#4",
                    "midi": 66,
                    "time": 139.36001000000033,
                    "velocity": 0.28346456692913385,
                    "duration": 0.49085135416666503
                },
                {
                    "name": "B4",
                    "midi": 71,
                    "time": 139.36001000000033,
                    "velocity": 0.28346456692913385,
                    "duration": 0.49085135416666503
                },
                {
                    "name": "E4",
                    "midi": 64,
                    "time": 139.86130500000033,
                    "velocity": 0.2440944881889764,
                    "duration": 0.49085135416666503
                },
                {
                    "name": "A4",
                    "midi": 69,
                    "time": 139.86130500000033,
                    "velocity": 0.2440944881889764,
                    "duration": 0.49085135416666503
                },
                {
                    "name": "E4",
                    "midi": 64,
                    "time": 140.36260000000033,
                    "velocity": 0.2283464566929134,
                    "duration": 0.9608154166666623
                },
                {
                    "name": "G#4",
                    "midi": 68,
                    "time": 140.36260000000033,
                    "velocity": 0.2755905511811024,
                    "duration": 0.9608154166666623
                },
                {
                    "name": "E4",
                    "midi": 64,
                    "time": 141.36519000000033,
                    "velocity": 0.14960629921259844,
                    "duration": 0.877266249999991
                },
                {
                    "name": "G#4",
                    "midi": 68,
                    "time": 141.36519000000033,
                    "velocity": 0.18110236220472442,
                    "duration": 0.877266249999991
                },
                {
                    "name": "D#4",
                    "midi": 63,
                    "time": 142.36778000000032,
                    "velocity": 0.29133858267716534,
                    "duration": 0.49085135416666503
                },
                {
                    "name": "F#5",
                    "midi": 78,
                    "time": 142.36778000000032,
                    "velocity": 0.29133858267716534,
                    "duration": 0.49085135416666503
                },
                {
                    "name": "A4",
                    "midi": 69,
                    "time": 142.36778000000032,
                    "velocity": 0.29133858267716534,
                    "duration": 0.49085135416666503
                },
                {
                    "name": "D#5",
                    "midi": 75,
                    "time": 142.86907500000032,
                    "velocity": 0.23622047244094488,
                    "duration": 0.49085135416666503
                },
                {
                    "name": "A4",
                    "midi": 69,
                    "time": 142.86907500000032,
                    "velocity": 0.23622047244094488,
                    "duration": 0.49085135416666503
                },
                {
                    "name": "F#4",
                    "midi": 66,
                    "time": 142.86907500000032,
                    "velocity": 0.23622047244094488,
                    "duration": 0.49085135416666503
                },
                {
                    "name": "F#4",
                    "midi": 66,
                    "time": 143.37037000000032,
                    "velocity": 0.2755905511811024,
                    "duration": 0.49085135416666503
                },
                {
                    "name": "B4",
                    "midi": 71,
                    "time": 143.37037000000032,
                    "velocity": 0.2755905511811024,
                    "duration": 0.49085135416666503
                },
                {
                    "name": "E4",
                    "midi": 64,
                    "time": 143.87166500000032,
                    "velocity": 0.23622047244094488,
                    "duration": 0.49085135416666503
                },
                {
                    "name": "A4",
                    "midi": 69,
                    "time": 143.87166500000032,
                    "velocity": 0.23622047244094488,
                    "duration": 0.49085135416666503
                },
                {
                    "name": "G#4",
                    "midi": 68,
                    "time": 144.37296000000032,
                    "velocity": 0.2755905511811024,
                    "duration": 0.9608154166666623
                },
                {
                    "name": "E4",
                    "midi": 64,
                    "time": 144.37296000000032,
                    "velocity": 0.2283464566929134,
                    "duration": 0.9608154166666623
                },
                {
                    "name": "E4",
                    "midi": 64,
                    "time": 145.37555000000032,
                    "velocity": 0.14960629921259844,
                    "duration": 0.877266249999991
                },
                {
                    "name": "G#4",
                    "midi": 68,
                    "time": 145.37555000000032,
                    "velocity": 0.18110236220472442,
                    "duration": 0.877266249999991
                },
                {
                    "name": "E4",
                    "midi": 64,
                    "time": 146.37814000000031,
                    "velocity": 0.2755905511811024,
                    "duration": 0.49085135416666503
                },
                {
                    "name": "E4",
                    "midi": 64,
                    "time": 146.8794350000003,
                    "velocity": 0.2047244094488189,
                    "duration": 0.49085135416666503
                },
                {
                    "name": "G#4",
                    "midi": 68,
                    "time": 146.8794350000003,
                    "velocity": 0.2440944881889764,
                    "duration": 0.49085135416666503
                },
                {
                    "name": "E4",
                    "midi": 64,
                    "time": 147.3807300000003,
                    "velocity": 0.2283464566929134,
                    "duration": 0.49085135416666503
                },
                {
                    "name": "F#4",
                    "midi": 66,
                    "time": 147.3807300000003,
                    "velocity": 0.2755905511811024,
                    "duration": 0.49085135416666503
                },
                {
                    "name": "G#4",
                    "midi": 68,
                    "time": 147.8820250000003,
                    "velocity": 0.25984251968503935,
                    "duration": 0.49085135416666503
                },
                {
                    "name": "E4",
                    "midi": 64,
                    "time": 147.8820250000003,
                    "velocity": 0.2125984251968504,
                    "duration": 0.49085135416666503
                },
                {
                    "name": "E4",
                    "midi": 64,
                    "time": 148.3833200000003,
                    "velocity": 0.2204724409448819,
                    "duration": 0.9608154166666623
                },
                {
                    "name": "B4",
                    "midi": 71,
                    "time": 148.3833200000003,
                    "velocity": 0.2677165354330709,
                    "duration": 0.9608154166666623
                },
                {
                    "name": "E4",
                    "midi": 64,
                    "time": 149.3859100000003,
                    "velocity": 0.14173228346456693,
                    "duration": 0.2506475000000137
                },
                {
                    "name": "A#4",
                    "midi": 70,
                    "time": 149.3859100000003,
                    "velocity": 0.1889763779527559,
                    "duration": 0.2506475000000137
                },
                {
                    "name": "E6",
                    "midi": 88,
                    "time": 150.38850000000033,
                    "velocity": 0.3464566929133858,
                    "duration": 0.9608154166666623
                },
                {
                    "name": "B5",
                    "midi": 83,
                    "time": 150.38850000000033,
                    "velocity": 0.3464566929133858,
                    "duration": 0.9608154166666623
                },
                {
                    "name": "E5",
                    "midi": 76,
                    "time": 150.38850000000033,
                    "velocity": 0.3464566929133858,
                    "duration": 0.9608154166666623
                },
                {
                    "name": "A5",
                    "midi": 81,
                    "time": 151.39109000000033,
                    "velocity": 0.2125984251968504,
                    "duration": 0.4595204166666633
                },
                {
                    "name": "E6",
                    "midi": 88,
                    "time": 151.39109000000033,
                    "velocity": 0.2125984251968504,
                    "duration": 0.4595204166666633
                },
                {
                    "name": "E5",
                    "midi": 76,
                    "time": 151.39109000000033,
                    "velocity": 0.2125984251968504,
                    "duration": 0.4595204166666633
                },
                {
                    "name": "A4",
                    "midi": 69,
                    "time": 152.39368000000033,
                    "velocity": 0.2677165354330709,
                    "duration": 0.9608154166666623
                },
                {
                    "name": "E4",
                    "midi": 64,
                    "time": 152.39368000000033,
                    "velocity": 0.2677165354330709,
                    "duration": 0.9608154166666623
                },
                {
                    "name": "E4",
                    "midi": 64,
                    "time": 153.39627000000033,
                    "velocity": 0.1889763779527559,
                    "duration": 0.4595204166666633
                },
                {
                    "name": "G#4",
                    "midi": 68,
                    "time": 153.39627000000033,
                    "velocity": 0.1889763779527559,
                    "duration": 0.4595204166666633
                },
                {
                    "name": "E6",
                    "midi": 88,
                    "time": 154.39886000000033,
                    "velocity": 0.33070866141732286,
                    "duration": 0.9608154166666623
                },
                {
                    "name": "A5",
                    "midi": 81,
                    "time": 154.39886000000033,
                    "velocity": 0.33070866141732286,
                    "duration": 0.9608154166666623
                },
                {
                    "name": "E5",
                    "midi": 76,
                    "time": 154.39886000000033,
                    "velocity": 0.33070866141732286,
                    "duration": 0.9608154166666623
                },
                {
                    "name": "E5",
                    "midi": 76,
                    "time": 155.40145000000032,
                    "velocity": 0.2047244094488189,
                    "duration": 0.4595204166666633
                },
                {
                    "name": "G5",
                    "midi": 79,
                    "time": 155.40145000000032,
                    "velocity": 0.2047244094488189,
                    "duration": 0.4595204166666633
                },
                {
                    "name": "E6",
                    "midi": 88,
                    "time": 155.40145000000032,
                    "velocity": 0.2047244094488189,
                    "duration": 0.4595204166666633
                },
                {
                    "name": "E4",
                    "midi": 64,
                    "time": 156.40404000000032,
                    "velocity": 0.6929133858267716,
                    "duration": 0.9608154166666623
                },
                {
                    "name": "C4",
                    "midi": 60,
                    "time": 156.40404000000032,
                    "velocity": 0.5511811023622047,
                    "duration": 0.9608154166666623
                },
                {
                    "name": "F#3",
                    "midi": 54,
                    "time": 156.40404000000032,
                    "velocity": 0.5511811023622047,
                    "duration": 0.9608154166666623
                },
                {
                    "name": "F#4",
                    "midi": 66,
                    "time": 156.40404000000032,
                    "velocity": 0.6929133858267716,
                    "duration": 0.9608154166666623
                },
                {
                    "name": "E4",
                    "midi": 64,
                    "time": 157.40663000000032,
                    "velocity": 0.5433070866141733,
                    "duration": 0.4595204166666633
                },
                {
                    "name": "C4",
                    "midi": 60,
                    "time": 157.40663000000032,
                    "velocity": 0.4330708661417323,
                    "duration": 0.4595204166666633
                },
                {
                    "name": "F#3",
                    "midi": 54,
                    "time": 157.40663000000032,
                    "velocity": 0.4330708661417323,
                    "duration": 0.4595204166666633
                },
                {
                    "name": "F#4",
                    "midi": 66,
                    "time": 157.40663000000032,
                    "velocity": 0.5433070866141733,
                    "duration": 0.4595204166666633
                },
                {
                    "name": "E5",
                    "midi": 76,
                    "time": 158.40922000000032,
                    "velocity": 0.36220472440944884,
                    "duration": 0.49085135416666503
                },
                {
                    "name": "C#5",
                    "midi": 73,
                    "time": 158.40922000000032,
                    "velocity": 0.36220472440944884,
                    "duration": 0.49085135416666503
                },
                {
                    "name": "F#5",
                    "midi": 78,
                    "time": 158.40922000000032,
                    "velocity": 0.4330708661417323,
                    "duration": 0.49085135416666503
                },
                {
                    "name": "B4",
                    "midi": 71,
                    "time": 158.91051500000032,
                    "velocity": 0.29133858267716534,
                    "duration": 0.49085135416666503
                },
                {
                    "name": "E5",
                    "midi": 76,
                    "time": 158.91051500000032,
                    "velocity": 0.29133858267716534,
                    "duration": 0.49085135416666503
                },
                {
                    "name": "G#5",
                    "midi": 80,
                    "time": 158.91051500000032,
                    "velocity": 0.36220472440944884,
                    "duration": 0.49085135416666503
                },
                {
                    "name": "A4",
                    "midi": 69,
                    "time": 159.41181000000032,
                    "velocity": 0.33070866141732286,
                    "duration": 0.49085135416666503
                },
                {
                    "name": "E5",
                    "midi": 76,
                    "time": 159.41181000000032,
                    "velocity": 0.33070866141732286,
                    "duration": 0.49085135416666503
                },
                {
                    "name": "A5",
                    "midi": 81,
                    "time": 159.41181000000032,
                    "velocity": 0.3937007874015748,
                    "duration": 0.49085135416666503
                },
                {
                    "name": "E5",
                    "midi": 76,
                    "time": 159.91310500000031,
                    "velocity": 0.29133858267716534,
                    "duration": 0.49085135416666503
                },
                {
                    "name": "B4",
                    "midi": 71,
                    "time": 159.91310500000031,
                    "velocity": 0.29133858267716534,
                    "duration": 0.49085135416666503
                },
                {
                    "name": "G#5",
                    "midi": 80,
                    "time": 159.91310500000031,
                    "velocity": 0.36220472440944884,
                    "duration": 0.49085135416666503
                },
                {
                    "name": "E5",
                    "midi": 76,
                    "time": 160.4144000000003,
                    "velocity": 0.3937007874015748,
                    "duration": 0.9608154166666623
                },
                {
                    "name": "B4",
                    "midi": 71,
                    "time": 160.4144000000003,
                    "velocity": 0.3937007874015748,
                    "duration": 0.9608154166666623
                },
                {
                    "name": "B5",
                    "midi": 83,
                    "time": 160.4144000000003,
                    "velocity": 0.3937007874015748,
                    "duration": 0.9608154166666623
                },
                {
                    "name": "B4",
                    "midi": 71,
                    "time": 161.4169900000003,
                    "velocity": 0.2047244094488189,
                    "duration": 0.4595204166666633
                },
                {
                    "name": "B5",
                    "midi": 83,
                    "time": 161.4169900000003,
                    "velocity": 0.2047244094488189,
                    "duration": 0.4595204166666633
                },
                {
                    "name": "D#5",
                    "midi": 75,
                    "time": 161.4169900000003,
                    "velocity": 0.25984251968503935,
                    "duration": 0.4595204166666633
                },
                {
                    "name": "E4",
                    "midi": 64,
                    "time": 162.4195800000003,
                    "velocity": 0.23622047244094488,
                    "duration": 0.9608154166666623
                },
                {
                    "name": "G#4",
                    "midi": 68,
                    "time": 162.4195800000003,
                    "velocity": 0.29133858267716534,
                    "duration": 0.9608154166666623
                },
                {
                    "name": "E4",
                    "midi": 64,
                    "time": 163.4221700000003,
                    "velocity": 0.18110236220472442,
                    "duration": 0.4595204166666633
                },
                {
                    "name": "G#4",
                    "midi": 68,
                    "time": 163.4221700000003,
                    "velocity": 0.18110236220472442,
                    "duration": 0.4595204166666633
                },
                {
                    "name": "F#3",
                    "midi": 54,
                    "time": 164.4247600000003,
                    "velocity": 0.5669291338582677,
                    "duration": 0.9608154166666623
                },
                {
                    "name": "F#4",
                    "midi": 66,
                    "time": 164.4247600000003,
                    "velocity": 0.7165354330708661,
                    "duration": 0.9608154166666623
                },
                {
                    "name": "E4",
                    "midi": 64,
                    "time": 164.4247600000003,
                    "velocity": 0.7165354330708661,
                    "duration": 0.9608154166666623
                },
                {
                    "name": "C4",
                    "midi": 60,
                    "time": 164.4247600000003,
                    "velocity": 0.5669291338582677,
                    "duration": 0.9608154166666623
                },
                {
                    "name": "C4",
                    "midi": 60,
                    "time": 165.4273500000003,
                    "velocity": 0.4094488188976378,
                    "duration": 0.4595204166666633
                },
                {
                    "name": "F#3",
                    "midi": 54,
                    "time": 165.4273500000003,
                    "velocity": 0.4094488188976378,
                    "duration": 0.4595204166666633
                },
                {
                    "name": "E4",
                    "midi": 64,
                    "time": 165.4273500000003,
                    "velocity": 0.5275590551181102,
                    "duration": 0.4595204166666633
                },
                {
                    "name": "F#4",
                    "midi": 66,
                    "time": 165.4273500000003,
                    "velocity": 0.5275590551181102,
                    "duration": 0.4595204166666633
                },
                {
                    "name": "C#5",
                    "midi": 73,
                    "time": 166.4299400000003,
                    "velocity": 0.36220472440944884,
                    "duration": 0.49085135416666503
                },
                {
                    "name": "E5",
                    "midi": 76,
                    "time": 166.4299400000003,
                    "velocity": 0.36220472440944884,
                    "duration": 0.49085135416666503
                },
                {
                    "name": "F#5",
                    "midi": 78,
                    "time": 166.4299400000003,
                    "velocity": 0.4330708661417323,
                    "duration": 0.49085135416666503
                },
                {
                    "name": "G#5",
                    "midi": 80,
                    "time": 166.9312350000003,
                    "velocity": 0.3858267716535433,
                    "duration": 0.49085135416666503
                },
                {
                    "name": "B4",
                    "midi": 71,
                    "time": 166.9312350000003,
                    "velocity": 0.3228346456692913,
                    "duration": 0.49085135416666503
                },
                {
                    "name": "E5",
                    "midi": 76,
                    "time": 166.9312350000003,
                    "velocity": 0.3228346456692913,
                    "duration": 0.49085135416666503
                },
                {
                    "name": "A5",
                    "midi": 81,
                    "time": 167.4325300000003,
                    "velocity": 0.41732283464566927,
                    "duration": 0.49085135416666503
                },
                {
                    "name": "E5",
                    "midi": 76,
                    "time": 167.4325300000003,
                    "velocity": 0.3464566929133858,
                    "duration": 0.49085135416666503
                },
                {
                    "name": "A4",
                    "midi": 69,
                    "time": 167.4325300000003,
                    "velocity": 0.3464566929133858,
                    "duration": 0.49085135416666503
                },
                {
                    "name": "B4",
                    "midi": 71,
                    "time": 167.9338250000003,
                    "velocity": 0.30708661417322836,
                    "duration": 0.49085135416666503
                },
                {
                    "name": "E5",
                    "midi": 76,
                    "time": 167.9338250000003,
                    "velocity": 0.30708661417322836,
                    "duration": 0.49085135416666503
                },
                {
                    "name": "G#5",
                    "midi": 80,
                    "time": 167.9338250000003,
                    "velocity": 0.3700787401574803,
                    "duration": 0.49085135416666503
                },
                {
                    "name": "B5",
                    "midi": 83,
                    "time": 168.4351200000003,
                    "velocity": 0.3937007874015748,
                    "duration": 0.9608154166666623
                },
                {
                    "name": "E5",
                    "midi": 76,
                    "time": 168.4351200000003,
                    "velocity": 0.3937007874015748,
                    "duration": 0.9608154166666623
                },
                {
                    "name": "B4",
                    "midi": 71,
                    "time": 168.4351200000003,
                    "velocity": 0.33070866141732286,
                    "duration": 0.9608154166666623
                },
                {
                    "name": "D#5",
                    "midi": 75,
                    "time": 169.4377100000003,
                    "velocity": 0.25984251968503935,
                    "duration": 0.4595204166666633
                },
                {
                    "name": "B5",
                    "midi": 83,
                    "time": 169.4377100000003,
                    "velocity": 0.2125984251968504,
                    "duration": 0.4595204166666633
                },
                {
                    "name": "B4",
                    "midi": 71,
                    "time": 169.4377100000003,
                    "velocity": 0.2047244094488189,
                    "duration": 0.4595204166666633
                },
                {
                    "name": "E4",
                    "midi": 64,
                    "time": 170.4403000000003,
                    "velocity": 0.8110236220472441,
                    "duration": 0.9608154166666623
                },
                {
                    "name": "E3",
                    "midi": 52,
                    "time": 170.4403000000003,
                    "velocity": 0.8110236220472441,
                    "duration": 0.9608154166666623
                },
                {
                    "name": "E3",
                    "midi": 52,
                    "time": 171.4428900000003,
                    "velocity": 0.3700787401574803,
                    "duration": 0.4595204166666633
                },
                {
                    "name": "E4",
                    "midi": 64,
                    "time": 171.4428900000003,
                    "velocity": 0.5196850393700787,
                    "duration": 0.4595204166666633
                },
                {
                    "name": "G#3",
                    "midi": 56,
                    "time": 172.4454800000003,
                    "velocity": 0.28346456692913385,
                    "duration": 0.49085135416666503
                },
                {
                    "name": "B3",
                    "midi": 59,
                    "time": 172.4454800000003,
                    "velocity": 0.28346456692913385,
                    "duration": 0.49085135416666503
                },
                {
                    "name": "G#4",
                    "midi": 68,
                    "time": 172.9467750000003,
                    "velocity": 0.23622047244094488,
                    "duration": 0.49085135416666503
                },
                {
                    "name": "G#3",
                    "midi": 56,
                    "time": 172.9467750000003,
                    "velocity": 0.23622047244094488,
                    "duration": 0.49085135416666503
                },
                {
                    "name": "G#3",
                    "midi": 56,
                    "time": 173.44807000000029,
                    "velocity": 0.29133858267716534,
                    "duration": 0.49085135416666503
                },
                {
                    "name": "F#4",
                    "midi": 66,
                    "time": 173.44807000000029,
                    "velocity": 0.29133858267716534,
                    "duration": 0.49085135416666503
                },
                {
                    "name": "G#3",
                    "midi": 56,
                    "time": 173.94936500000028,
                    "velocity": 0.23622047244094488,
                    "duration": 0.49085135416666503
                },
                {
                    "name": "G#4",
                    "midi": 68,
                    "time": 173.94936500000028,
                    "velocity": 0.23622047244094488,
                    "duration": 0.49085135416666503
                },
                {
                    "name": "G#4",
                    "midi": 68,
                    "time": 174.45066000000028,
                    "velocity": 0.30708661417322836,
                    "duration": 0.9608154166666623
                },
                {
                    "name": "B4",
                    "midi": 71,
                    "time": 174.45066000000028,
                    "velocity": 0.30708661417322836,
                    "duration": 0.9608154166666623
                },
                {
                    "name": "C4",
                    "midi": 60,
                    "time": 174.45066000000028,
                    "velocity": 0.1889763779527559,
                    "duration": 0.9608154166666623
                },
                {
                    "name": "F#4",
                    "midi": 66,
                    "time": 175.45325000000028,
                    "velocity": 0.18110236220472442,
                    "duration": 0.2506475000000137
                },
                {
                    "name": "C4",
                    "midi": 60,
                    "time": 175.45325000000028,
                    "velocity": 0.1732283464566929,
                    "duration": 0.2506475000000137
                },
                {
                    "name": "A4",
                    "midi": 69,
                    "time": 175.45325000000028,
                    "velocity": 0.18110236220472442,
                    "duration": 0.2506475000000137
                },
                {
                    "name": "G#4",
                    "midi": 68,
                    "time": 176.4558400000003,
                    "velocity": 0.30708661417322836,
                    "duration": 0.9608154166666623
                },
                {
                    "name": "B4",
                    "midi": 71,
                    "time": 176.4558400000003,
                    "velocity": 0.30708661417322836,
                    "duration": 0.9608154166666623
                },
                {
                    "name": "B3",
                    "midi": 59,
                    "time": 176.4558400000003,
                    "velocity": 0.2283464566929134,
                    "duration": 0.9608154166666623
                },
                {
                    "name": "B3",
                    "midi": 59,
                    "time": 177.4584300000003,
                    "velocity": 0.14960629921259844,
                    "duration": 0.2506475000000137
                },
                {
                    "name": "F#4",
                    "midi": 66,
                    "time": 177.4584300000003,
                    "velocity": 0.18110236220472442,
                    "duration": 0.2506475000000137
                },
                {
                    "name": "A4",
                    "midi": 69,
                    "time": 177.4584300000003,
                    "velocity": 0.18110236220472442,
                    "duration": 0.2506475000000137
                },
                {
                    "name": "E5",
                    "midi": 76,
                    "time": 178.46102000000033,
                    "velocity": 0.8110236220472441,
                    "duration": 0.9608154166666623
                },
                {
                    "name": "E4",
                    "midi": 64,
                    "time": 178.46102000000033,
                    "velocity": 0.8110236220472441,
                    "duration": 0.9608154166666623
                },
                {
                    "name": "E5",
                    "midi": 76,
                    "time": 179.46361000000033,
                    "velocity": 0.5354330708661418,
                    "duration": 0.4595204166666633
                },
                {
                    "name": "E4",
                    "midi": 64,
                    "time": 179.46361000000033,
                    "velocity": 0.47244094488188976,
                    "duration": 0.4595204166666633
                },
                {
                    "name": "B3",
                    "midi": 59,
                    "time": 180.46620000000033,
                    "velocity": 0.2992125984251969,
                    "duration": 0.49085135416666503
                },
                {
                    "name": "G#3",
                    "midi": 56,
                    "time": 180.46620000000033,
                    "velocity": 0.2992125984251969,
                    "duration": 0.49085135416666503
                },
                {
                    "name": "G#3",
                    "midi": 56,
                    "time": 180.96749500000033,
                    "velocity": 0.2440944881889764,
                    "duration": 0.49085135416666503
                },
                {
                    "name": "G#4",
                    "midi": 68,
                    "time": 180.96749500000033,
                    "velocity": 0.2440944881889764,
                    "duration": 0.49085135416666503
                },
                {
                    "name": "G#3",
                    "midi": 56,
                    "time": 181.46879000000033,
                    "velocity": 0.2992125984251969,
                    "duration": 0.49085135416666503
                },
                {
                    "name": "F#4",
                    "midi": 66,
                    "time": 181.46879000000033,
                    "velocity": 0.2992125984251969,
                    "duration": 0.49085135416666503
                },
                {
                    "name": "G#3",
                    "midi": 56,
                    "time": 181.97008500000032,
                    "velocity": 0.2440944881889764,
                    "duration": 0.49085135416666503
                },
                {
                    "name": "G#4",
                    "midi": 68,
                    "time": 181.97008500000032,
                    "velocity": 0.2440944881889764,
                    "duration": 0.49085135416666503
                },
                {
                    "name": "A4",
                    "midi": 69,
                    "time": 182.47138000000032,
                    "velocity": 0.3464566929133858,
                    "duration": 0.9608154166666623
                },
                {
                    "name": "C#4",
                    "midi": 61,
                    "time": 182.47138000000032,
                    "velocity": 0.29133858267716534,
                    "duration": 0.9608154166666623
                },
                {
                    "name": "C#5",
                    "midi": 73,
                    "time": 182.47138000000032,
                    "velocity": 0.3464566929133858,
                    "duration": 0.9608154166666623
                },
                {
                    "name": "C#4",
                    "midi": 61,
                    "time": 183.47397000000032,
                    "velocity": 0.18110236220472442,
                    "duration": 0.2506475000000137
                },
                {
                    "name": "F#4",
                    "midi": 66,
                    "time": 183.47397000000032,
                    "velocity": 0.2047244094488189,
                    "duration": 0.2506475000000137
                },
                {
                    "name": "A4",
                    "midi": 69,
                    "time": 183.47397000000032,
                    "velocity": 0.2047244094488189,
                    "duration": 0.2506475000000137
                },
                {
                    "name": "G#4",
                    "midi": 68,
                    "time": 184.47656000000035,
                    "velocity": 0.3228346456692913,
                    "duration": 0.9608154166666623
                },
                {
                    "name": "B4",
                    "midi": 71,
                    "time": 184.47656000000035,
                    "velocity": 0.3228346456692913,
                    "duration": 0.9608154166666623
                },
                {
                    "name": "B3",
                    "midi": 59,
                    "time": 184.47656000000035,
                    "velocity": 0.2755905511811024,
                    "duration": 0.9608154166666623
                },
                {
                    "name": "F#4",
                    "midi": 66,
                    "time": 185.47915000000035,
                    "velocity": 0.2283464566929134,
                    "duration": 0.2506475000000137
                },
                {
                    "name": "B3",
                    "midi": 59,
                    "time": 185.47915000000035,
                    "velocity": 0.2125984251968504,
                    "duration": 0.2506475000000137
                },
                {
                    "name": "A4",
                    "midi": 69,
                    "time": 185.47915000000035,
                    "velocity": 0.2283464566929134,
                    "duration": 0.2506475000000137
                },
                {
                    "name": "E4",
                    "midi": 64,
                    "time": 186.48174000000037,
                    "velocity": 0.2755905511811024,
                    "duration": 0.9608154166666623
                },
                {
                    "name": "A4",
                    "midi": 69,
                    "time": 186.48174000000037,
                    "velocity": 0.3228346456692913,
                    "duration": 0.9608154166666623
                },
                {
                    "name": "B3",
                    "midi": 59,
                    "time": 186.48174000000037,
                    "velocity": 0.2755905511811024,
                    "duration": 0.9608154166666623
                },
                {
                    "name": "G4",
                    "midi": 67,
                    "time": 187.48433000000037,
                    "velocity": 0.2283464566929134,
                    "duration": 0.2506475000000137
                },
                {
                    "name": "B3",
                    "midi": 59,
                    "time": 187.48433000000037,
                    "velocity": 0.2047244094488189,
                    "duration": 0.2506475000000137
                },
                {
                    "name": "E4",
                    "midi": 64,
                    "time": 187.48433000000037,
                    "velocity": 0.2047244094488189,
                    "duration": 0.2506475000000137
                },
                {
                    "name": "A3",
                    "midi": 57,
                    "time": 188.4869200000004,
                    "velocity": 0.28346456692913385,
                    "duration": 0.9608154166666623
                },
                {
                    "name": "G4",
                    "midi": 67,
                    "time": 188.4869200000004,
                    "velocity": 0.33070866141732286,
                    "duration": 0.9608154166666623
                },
                {
                    "name": "C4",
                    "midi": 60,
                    "time": 188.4869200000004,
                    "velocity": 0.28346456692913385,
                    "duration": 0.9608154166666623
                },
                {
                    "name": "C4",
                    "midi": 60,
                    "time": 189.4895100000004,
                    "velocity": 0.2047244094488189,
                    "duration": 0.2506475000000137
                },
                {
                    "name": "A3",
                    "midi": 57,
                    "time": 189.4895100000004,
                    "velocity": 0.2125984251968504,
                    "duration": 0.2506475000000137
                },
                {
                    "name": "F4",
                    "midi": 65,
                    "time": 189.4895100000004,
                    "velocity": 0.2283464566929134,
                    "duration": 0.2506475000000137
                },
                {
                    "name": "G3",
                    "midi": 55,
                    "time": 190.49210000000042,
                    "velocity": 0.28346456692913385,
                    "duration": 0.9608154166666623
                },
                {
                    "name": "F4",
                    "midi": 65,
                    "time": 190.49210000000042,
                    "velocity": 0.33070866141732286,
                    "duration": 0.9608154166666623
                },
                {
                    "name": "C4",
                    "midi": 60,
                    "time": 190.49210000000042,
                    "velocity": 0.28346456692913385,
                    "duration": 0.9608154166666623
                },
                {
                    "name": "E4",
                    "midi": 64,
                    "time": 191.49469000000042,
                    "velocity": 0.2283464566929134,
                    "duration": 0.2506475000000137
                },
                {
                    "name": "C4",
                    "midi": 60,
                    "time": 191.49469000000042,
                    "velocity": 0.2047244094488189,
                    "duration": 0.2506475000000137
                },
                {
                    "name": "G3",
                    "midi": 55,
                    "time": 191.49469000000042,
                    "velocity": 0.2047244094488189,
                    "duration": 0.2506475000000137
                },
                {
                    "name": "E4",
                    "midi": 64,
                    "time": 192.49728000000044,
                    "velocity": 0.33070866141732286,
                    "duration": 0.9608154166666623
                },
                {
                    "name": "A3",
                    "midi": 57,
                    "time": 192.49728000000044,
                    "velocity": 0.28346456692913385,
                    "duration": 0.9608154166666623
                },
                {
                    "name": "F3",
                    "midi": 53,
                    "time": 192.49728000000044,
                    "velocity": 0.28346456692913385,
                    "duration": 0.9608154166666623
                },
                {
                    "name": "D4",
                    "midi": 62,
                    "time": 193.49987000000044,
                    "velocity": 0.2283464566929134,
                    "duration": 0.2506475000000137
                },
                {
                    "name": "A3",
                    "midi": 57,
                    "time": 193.49987000000044,
                    "velocity": 0.1968503937007874,
                    "duration": 0.2506475000000137
                },
                {
                    "name": "F3",
                    "midi": 53,
                    "time": 193.49987000000044,
                    "velocity": 0.1968503937007874,
                    "duration": 0.2506475000000137
                },
                {
                    "name": "E3",
                    "midi": 52,
                    "time": 194.50246000000047,
                    "velocity": 0.2755905511811024,
                    "duration": 0.9608154166666623
                },
                {
                    "name": "D4",
                    "midi": 62,
                    "time": 194.50246000000047,
                    "velocity": 0.3228346456692913,
                    "duration": 0.9608154166666623
                },
                {
                    "name": "A3",
                    "midi": 57,
                    "time": 194.50246000000047,
                    "velocity": 0.2755905511811024,
                    "duration": 0.9608154166666623
                },
                {
                    "name": "C4",
                    "midi": 60,
                    "time": 195.50505000000047,
                    "velocity": 0.2283464566929134,
                    "duration": 0.2506475000000137
                },
                {
                    "name": "A3",
                    "midi": 57,
                    "time": 195.50505000000047,
                    "velocity": 0.1889763779527559,
                    "duration": 0.2506475000000137
                },
                {
                    "name": "B3",
                    "midi": 59,
                    "time": 200.51800000000048,
                    "velocity": 0.3228346456692913,
                    "duration": 0.9608154166666623
                },
                {
                    "name": "A3",
                    "midi": 57,
                    "time": 200.51800000000048,
                    "velocity": 0.2283464566929134,
                    "duration": 0.9608154166666623
                },
                {
                    "name": "B3",
                    "midi": 59,
                    "time": 201.52059000000048,
                    "velocity": 0.2283464566929134,
                    "duration": 0.4595204166666633
                },
                {
                    "name": "G#3",
                    "midi": 56,
                    "time": 201.52059000000048,
                    "velocity": 0.2283464566929134,
                    "duration": 0.4595204166666633
                },
                {
                    "name": "A4",
                    "midi": 69,
                    "time": 206.53354000000047,
                    "velocity": 0.3937007874015748,
                    "duration": 1.0025899999999979
                },
                {
                    "name": "E5",
                    "midi": 76,
                    "time": 207.53613000000047,
                    "velocity": 0.3937007874015748,
                    "duration": 1.0025899999999979
                },
                {
                    "name": "D#5",
                    "midi": 75,
                    "time": 208.53872000000047,
                    "velocity": 0.41732283464566927,
                    "duration": 1.0025899999999979
                },
                {
                    "name": "E5",
                    "midi": 76,
                    "time": 209.54131000000046,
                    "velocity": 0.3700787401574803,
                    "duration": 0.20887291666667807
                },
                {
                    "name": "C5",
                    "midi": 72,
                    "time": 210.04260500000046,
                    "velocity": 0.3858267716535433,
                    "duration": 0.3968585416666599
                },
                {
                    "name": "B4",
                    "midi": 71,
                    "time": 210.41857625000046,
                    "velocity": 0.3700787401574803,
                    "duration": 0.14621104166667465
                },
                {
                    "name": "A4",
                    "midi": 69,
                    "time": 210.54390000000046,
                    "velocity": 0.3779527559055118,
                    "duration": 1.0025899999999979
                },
                {
                    "name": "G#3",
                    "midi": 56,
                    "time": 211.54649000000046,
                    "velocity": 0.4645669291338583,
                    "duration": 1.0025899999999979
                },
                {
                    "name": "B3",
                    "midi": 59,
                    "time": 211.54649000000046,
                    "velocity": 0.4645669291338583,
                    "duration": 1.0025899999999979
                },
                {
                    "name": "E4",
                    "midi": 64,
                    "time": 211.54649000000046,
                    "velocity": 0.4645669291338583,
                    "duration": 1.0025899999999979
                },
                {
                    "name": "C4",
                    "midi": 60,
                    "time": 212.54908000000046,
                    "velocity": 0.4094488188976378,
                    "duration": 1.0025899999999979
                },
                {
                    "name": "A3",
                    "midi": 57,
                    "time": 213.55167000000046,
                    "velocity": 0.4015748031496063,
                    "duration": 0.18798562500001026
                },
                {
                    "name": "A3",
                    "midi": 57,
                    "time": 214.55426000000045,
                    "velocity": 0.3937007874015748,
                    "duration": 1.0025899999999979
                },
                {
                    "name": "A3",
                    "midi": 57,
                    "time": 215.55685000000045,
                    "velocity": 0.49606299212598426,
                    "duration": 1.0025899999999979
                },
                {
                    "name": "F4",
                    "midi": 65,
                    "time": 215.55685000000045,
                    "velocity": 0.49606299212598426,
                    "duration": 1.0025899999999979
                },
                {
                    "name": "A#3",
                    "midi": 58,
                    "time": 216.55944000000045,
                    "velocity": 0.5511811023622047,
                    "duration": 1.0025899999999979
                },
                {
                    "name": "G4",
                    "midi": 67,
                    "time": 216.55944000000045,
                    "velocity": 0.5511811023622047,
                    "duration": 1.0025899999999979
                },
                {
                    "name": "A3",
                    "midi": 57,
                    "time": 217.56203000000045,
                    "velocity": 0.4251968503937008,
                    "duration": 0.20887291666667807
                },
                {
                    "name": "F4",
                    "midi": 65,
                    "time": 217.56203000000045,
                    "velocity": 0.4251968503937008,
                    "duration": 0.20887291666667807
                },
                {
                    "name": "A3",
                    "midi": 57,
                    "time": 218.06332500000045,
                    "velocity": 0.4015748031496063,
                    "duration": 0.3968585416666599
                },
                {
                    "name": "B3",
                    "midi": 59,
                    "time": 218.43929625000044,
                    "velocity": 0.4251968503937008,
                    "duration": 0.14621104166667465
                },
                {
                    "name": "C4",
                    "midi": 60,
                    "time": 218.56462000000045,
                    "velocity": 0.4094488188976378,
                    "duration": 1.0025899999999979
                },
                {
                    "name": "E3",
                    "midi": 52,
                    "time": 219.56721000000044,
                    "velocity": 0.4881889763779528,
                    "duration": 1.0025899999999979
                },
                {
                    "name": "G#3",
                    "midi": 56,
                    "time": 219.56721000000044,
                    "velocity": 0.4881889763779528,
                    "duration": 1.0025899999999979
                },
                {
                    "name": "B3",
                    "midi": 59,
                    "time": 219.56721000000044,
                    "velocity": 0.4881889763779528,
                    "duration": 1.0025899999999979
                },
                {
                    "name": "E4",
                    "midi": 64,
                    "time": 219.56721000000044,
                    "velocity": 0.4881889763779528,
                    "duration": 1.0025899999999979
                },
                {
                    "name": "C3",
                    "midi": 48,
                    "time": 220.56980000000044,
                    "velocity": 0.3937007874015748,
                    "duration": 1.0025899999999979
                },
                {
                    "name": "C4",
                    "midi": 60,
                    "time": 220.56980000000044,
                    "velocity": 0.3937007874015748,
                    "duration": 1.0025899999999979
                },
                {
                    "name": "A2",
                    "midi": 45,
                    "time": 221.57239000000044,
                    "velocity": 0.3937007874015748,
                    "duration": 0.20887291666667807
                },
                {
                    "name": "A3",
                    "midi": 57,
                    "time": 221.57239000000044,
                    "velocity": 0.3937007874015748,
                    "duration": 0.20887291666667807
                },
                {
                    "name": "A3",
                    "midi": 57,
                    "time": 226.08404500000046,
                    "velocity": 0.4094488188976378,
                    "duration": 1.0025899999999979
                },
                {
                    "name": "D4",
                    "midi": 62,
                    "time": 227.08663500000046,
                    "velocity": 0.36220472440944884,
                    "duration": 0.5012949999999989
                },
                {
                    "name": "E4",
                    "midi": 64,
                    "time": 227.58793000000045,
                    "velocity": 0.3858267716535433,
                    "duration": 0.5012949999999989
                },
                {
                    "name": "F4",
                    "midi": 65,
                    "time": 228.08922500000045,
                    "velocity": 0.3700787401574803,
                    "duration": 0.5012949999999989
                },
                {
                    "name": "E4",
                    "midi": 64,
                    "time": 228.59052000000045,
                    "velocity": 0.3937007874015748,
                    "duration": 1.0025899999999979
                },
                {
                    "name": "A3",
                    "midi": 57,
                    "time": 229.59311000000045,
                    "velocity": 0.36220472440944884,
                    "duration": 0.20887291666667807
                },
                {
                    "name": "G4",
                    "midi": 67,
                    "time": 230.09440500000045,
                    "velocity": 0.3700787401574803,
                    "duration": 0.5012949999999989
                },
                {
                    "name": "F4",
                    "midi": 65,
                    "time": 230.59570000000045,
                    "velocity": 0.3700787401574803,
                    "duration": 1.0025899999999979
                },
                {
                    "name": "A3",
                    "midi": 57,
                    "time": 231.59829000000045,
                    "velocity": 0.3779527559055118,
                    "duration": 0.20887291666667807
                },
                {
                    "name": "F4",
                    "midi": 65,
                    "time": 232.09958500000045,
                    "velocity": 0.3543307086614173,
                    "duration": 0.5012949999999989
                },
                {
                    "name": "E4",
                    "midi": 64,
                    "time": 232.60088000000044,
                    "velocity": 0.3937007874015748,
                    "duration": 1.0025899999999979
                },
                {
                    "name": "A3",
                    "midi": 57,
                    "time": 233.60347000000044,
                    "velocity": 0.3779527559055118,
                    "duration": 0.20887291666667807
                },
                {
                    "name": "A3",
                    "midi": 57,
                    "time": 234.10476500000044,
                    "velocity": 0.4409448818897638,
                    "duration": 0.49816190625000445
                },
                {
                    "name": "A4",
                    "midi": 69,
                    "time": 234.10476500000044,
                    "velocity": 0.4409448818897638,
                    "duration": 1.0025899999999979
                },
                {
                    "name": "D4",
                    "midi": 62,
                    "time": 235.10735500000044,
                    "velocity": 0.44881889763779526,
                    "duration": 0.5012949999999989
                },
                {
                    "name": "D5",
                    "midi": 74,
                    "time": 235.10735500000044,
                    "velocity": 0.44881889763779526,
                    "duration": 0.5012949999999989
                },
                {
                    "name": "E4",
                    "midi": 64,
                    "time": 235.60865000000044,
                    "velocity": 0.47244094488188976,
                    "duration": 0.5012949999999989
                },
                {
                    "name": "E5",
                    "midi": 76,
                    "time": 235.60865000000044,
                    "velocity": 0.47244094488188976,
                    "duration": 0.5012949999999989
                },
                {
                    "name": "F4",
                    "midi": 65,
                    "time": 236.10994500000044,
                    "velocity": 0.4409448818897638,
                    "duration": 0.5012949999999989
                },
                {
                    "name": "F5",
                    "midi": 77,
                    "time": 236.10994500000044,
                    "velocity": 0.4409448818897638,
                    "duration": 0.5012949999999989
                },
                {
                    "name": "E4",
                    "midi": 64,
                    "time": 236.61124000000044,
                    "velocity": 0.47244094488188976,
                    "duration": 1.0025899999999979
                },
                {
                    "name": "E5",
                    "midi": 76,
                    "time": 236.61124000000044,
                    "velocity": 0.47244094488188976,
                    "duration": 1.0025899999999979
                },
                {
                    "name": "A3",
                    "midi": 57,
                    "time": 237.61383000000043,
                    "velocity": 0.4409448818897638,
                    "duration": 0.20887291666667807
                },
                {
                    "name": "A4",
                    "midi": 69,
                    "time": 237.61383000000043,
                    "velocity": 0.4409448818897638,
                    "duration": 0.20887291666667807
                },
                {
                    "name": "E4",
                    "midi": 64,
                    "time": 238.11512500000043,
                    "velocity": 0.5354330708661418,
                    "duration": 1.0025899999999979
                },
                {
                    "name": "E5",
                    "midi": 76,
                    "time": 238.11512500000043,
                    "velocity": 0.5354330708661418,
                    "duration": 1.0025899999999979
                },
                {
                    "name": "G4",
                    "midi": 67,
                    "time": 239.11771500000043,
                    "velocity": 0.5826771653543307,
                    "duration": 0.5012949999999989
                },
                {
                    "name": "G5",
                    "midi": 79,
                    "time": 239.11771500000043,
                    "velocity": 0.5826771653543307,
                    "duration": 0.5012949999999989
                },
                {
                    "name": "A4",
                    "midi": 69,
                    "time": 239.61901000000043,
                    "velocity": 0.6062992125984252,
                    "duration": 0.5012949999999989
                },
                {
                    "name": "A5",
                    "midi": 81,
                    "time": 239.61901000000043,
                    "velocity": 0.6062992125984252,
                    "duration": 0.5012949999999989
                },
                {
                    "name": "B4",
                    "midi": 71,
                    "time": 240.12030500000043,
                    "velocity": 0.5748031496062992,
                    "duration": 0.5012949999999989
                },
                {
                    "name": "B5",
                    "midi": 83,
                    "time": 240.12030500000043,
                    "velocity": 0.5748031496062992,
                    "duration": 0.5012949999999989
                },
                {
                    "name": "B4",
                    "midi": 71,
                    "time": 240.62160000000043,
                    "velocity": 0.6692913385826772,
                    "duration": 0.9190408333333266
                },
                {
                    "name": "B5",
                    "midi": 83,
                    "time": 240.62160000000043,
                    "velocity": 0.6692913385826772,
                    "duration": 0.9190408333333266
                },
                {
                    "name": "B4",
                    "midi": 71,
                    "time": 241.62419000000043,
                    "velocity": 0.5590551181102362,
                    "duration": 0.9190408333333266
                },
                {
                    "name": "B5",
                    "midi": 83,
                    "time": 241.62419000000043,
                    "velocity": 0.5590551181102362,
                    "duration": 0.9190408333333266
                },
                {
                    "name": "G4",
                    "midi": 67,
                    "time": 242.62678000000042,
                    "velocity": 0.44881889763779526,
                    "duration": 1.0025899999999979
                },
                {
                    "name": "G5",
                    "midi": 79,
                    "time": 242.62678000000042,
                    "velocity": 0.44881889763779526,
                    "duration": 1.0025899999999979
                },
                {
                    "name": "E4",
                    "midi": 64,
                    "time": 243.62937000000042,
                    "velocity": 0.41732283464566927,
                    "duration": 0.20887291666667807
                },
                {
                    "name": "E5",
                    "midi": 76,
                    "time": 243.62937000000042,
                    "velocity": 0.41732283464566927,
                    "duration": 0.20887291666667807
                },
                {
                    "name": "B3",
                    "midi": 59,
                    "time": 244.63196000000042,
                    "velocity": 0.3228346456692913,
                    "duration": 0.9190408333333266
                },
                {
                    "name": "B4",
                    "midi": 71,
                    "time": 244.63196000000042,
                    "velocity": 0.3228346456692913,
                    "duration": 0.9190408333333266
                },
                {
                    "name": "B3",
                    "midi": 59,
                    "time": 245.63455000000042,
                    "velocity": 0.29133858267716534,
                    "duration": 0.9190408333333266
                },
                {
                    "name": "B4",
                    "midi": 71,
                    "time": 245.63455000000042,
                    "velocity": 0.29133858267716534,
                    "duration": 0.9190408333333266
                },
                {
                    "name": "G3",
                    "midi": 55,
                    "time": 246.63714000000041,
                    "velocity": 0.29133858267716534,
                    "duration": 1.0025899999999979
                },
                {
                    "name": "G4",
                    "midi": 67,
                    "time": 246.63714000000041,
                    "velocity": 0.29133858267716534,
                    "duration": 1.0025899999999979
                },
                {
                    "name": "E3",
                    "midi": 52,
                    "time": 247.6397300000004,
                    "velocity": 0.25984251968503935,
                    "duration": 0.20887291666667807
                },
                {
                    "name": "E4",
                    "midi": 64,
                    "time": 247.6397300000004,
                    "velocity": 0.25984251968503935,
                    "duration": 0.20887291666667807
                },
                {
                    "name": "G3",
                    "midi": 55,
                    "time": 248.6423200000004,
                    "velocity": 0.29133858267716534,
                    "duration": 1.0025899999999979
                },
                {
                    "name": "G4",
                    "midi": 67,
                    "time": 248.6423200000004,
                    "velocity": 0.29133858267716534,
                    "duration": 1.0025899999999979
                },
                {
                    "name": "E3",
                    "midi": 52,
                    "time": 249.6449100000004,
                    "velocity": 0.25984251968503935,
                    "duration": 0.12532375000000684
                },
                {
                    "name": "E4",
                    "midi": 64,
                    "time": 249.6449100000004,
                    "velocity": 0.25984251968503935,
                    "duration": 0.12532375000000684
                },
                {
                    "name": "F4",
                    "midi": 65,
                    "time": 250.6475000000004,
                    "velocity": 0.3779527559055118,
                    "duration": 1.0025899999999979
                },
                {
                    "name": "F3",
                    "midi": 53,
                    "time": 250.6475000000004,
                    "velocity": 0.3779527559055118,
                    "duration": 1.0025899999999979
                },
                {
                    "name": "D3",
                    "midi": 50,
                    "time": 251.6500900000004,
                    "velocity": 0.33858267716535434,
                    "duration": 0.12532375000000684
                },
                {
                    "name": "D4",
                    "midi": 62,
                    "time": 251.6500900000004,
                    "velocity": 0.33858267716535434,
                    "duration": 0.12532375000000684
                },
                {
                    "name": "E4",
                    "midi": 64,
                    "time": 252.6526800000004,
                    "velocity": 0.4566929133858268,
                    "duration": 1.0025899999999979
                },
                {
                    "name": "E3",
                    "midi": 52,
                    "time": 252.6526800000004,
                    "velocity": 0.4566929133858268,
                    "duration": 1.0025899999999979
                },
                {
                    "name": "C3",
                    "midi": 48,
                    "time": 253.6552700000004,
                    "velocity": 0.3937007874015748,
                    "duration": 0.12532375000000684
                },
                {
                    "name": "C4",
                    "midi": 60,
                    "time": 253.6552700000004,
                    "velocity": 0.3937007874015748,
                    "duration": 0.12532375000000684
                },
                {
                    "name": "D3",
                    "midi": 50,
                    "time": 254.6578600000004,
                    "velocity": 0.5748031496062992,
                    "duration": 1.0025899999999979
                },
                {
                    "name": "D4",
                    "midi": 62,
                    "time": 254.6578600000004,
                    "velocity": 0.5748031496062992,
                    "duration": 1.0025899999999979
                },
                {
                    "name": "B2",
                    "midi": 47,
                    "time": 255.6604500000004,
                    "velocity": 0.5275590551181102,
                    "duration": 0.12532375000000684
                },
                {
                    "name": "B3",
                    "midi": 59,
                    "time": 255.6604500000004,
                    "velocity": 0.5275590551181102,
                    "duration": 0.12532375000000684
                },
                {
                    "name": "A3",
                    "midi": 57,
                    "time": 256.6630400000004,
                    "velocity": 0.7716535433070866,
                    "duration": 1.0025899999999979
                },
                {
                    "name": "A4",
                    "midi": 69,
                    "time": 256.6630400000004,
                    "velocity": 0.7716535433070866,
                    "duration": 1.0025899999999979
                },
                {
                    "name": "E4",
                    "midi": 64,
                    "time": 257.6656300000004,
                    "velocity": 0.6929133858267716,
                    "duration": 1.0025899999999979
                },
                {
                    "name": "E5",
                    "midi": 76,
                    "time": 257.6656300000004,
                    "velocity": 0.6929133858267716,
                    "duration": 1.0025899999999979
                },
                {
                    "name": "D#4",
                    "midi": 63,
                    "time": 258.6682200000004,
                    "velocity": 0.6614173228346457,
                    "duration": 1.0025899999999979
                },
                {
                    "name": "D#5",
                    "midi": 75,
                    "time": 258.6682200000004,
                    "velocity": 0.6614173228346457,
                    "duration": 1.0025899999999979
                },
                {
                    "name": "E5",
                    "midi": 76,
                    "time": 259.6708100000004,
                    "velocity": 0.6062992125984252,
                    "duration": 0.2506475000000137
                },
                {
                    "name": "E4",
                    "midi": 64,
                    "time": 259.6708100000004,
                    "velocity": 0.6062992125984252,
                    "duration": 0.2506475000000137
                },
                {
                    "name": "E4",
                    "midi": 64,
                    "time": 260.17210500000044,
                    "velocity": 0.5275590551181102,
                    "duration": 0.2506475000000137
                },
                {
                    "name": "C5",
                    "midi": 72,
                    "time": 260.17210500000044,
                    "velocity": 0.6299212598425197,
                    "duration": 0.2506475000000137
                },
                {
                    "name": "E4",
                    "midi": 64,
                    "time": 260.54807625000046,
                    "velocity": 0.49606299212598426,
                    "duration": 0.09399281250000513
                },
                {
                    "name": "B4",
                    "midi": 71,
                    "time": 260.54807625000046,
                    "velocity": 0.5748031496062992,
                    "duration": 0.09399281250000513
                },
                {
                    "name": "E4",
                    "midi": 64,
                    "time": 260.67340000000047,
                    "velocity": 0.5275590551181102,
                    "duration": 0.2506475000000137
                },
                {
                    "name": "A4",
                    "midi": 69,
                    "time": 260.67340000000047,
                    "velocity": 0.6299212598425197,
                    "duration": 0.2506475000000137
                },
                {
                    "name": "D4",
                    "midi": 62,
                    "time": 261.0493712500005,
                    "velocity": 0.49606299212598426,
                    "duration": 0.09399281250000513
                },
                {
                    "name": "G4",
                    "midi": 67,
                    "time": 261.0493712500005,
                    "velocity": 0.5748031496062992,
                    "duration": 0.09399281250000513
                },
                {
                    "name": "C4",
                    "midi": 60,
                    "time": 261.1746950000005,
                    "velocity": 0.49606299212598426,
                    "duration": 0.2506475000000137
                },
                {
                    "name": "F4",
                    "midi": 65,
                    "time": 261.1746950000005,
                    "velocity": 0.5669291338582677,
                    "duration": 0.2506475000000137
                },
                {
                    "name": "B3",
                    "midi": 59,
                    "time": 261.5506662500005,
                    "velocity": 0.4566929133858268,
                    "duration": 0.09399281250000513
                },
                {
                    "name": "E4",
                    "midi": 64,
                    "time": 261.5506662500005,
                    "velocity": 0.5511811023622047,
                    "duration": 0.09399281250000513
                },
                {
                    "name": "C4",
                    "midi": 60,
                    "time": 261.6759900000005,
                    "velocity": 0.5039370078740157,
                    "duration": 0.2506475000000137
                },
                {
                    "name": "F4",
                    "midi": 65,
                    "time": 261.6759900000005,
                    "velocity": 0.5905511811023622,
                    "duration": 0.2506475000000137
                },
                {
                    "name": "B3",
                    "midi": 59,
                    "time": 262.05196125000055,
                    "velocity": 0.44881889763779526,
                    "duration": 0.09399281250000513
                },
                {
                    "name": "E4",
                    "midi": 64,
                    "time": 262.05196125000055,
                    "velocity": 0.5511811023622047,
                    "duration": 0.09399281250000513
                },
                {
                    "name": "A3",
                    "midi": 57,
                    "time": 262.17728500000055,
                    "velocity": 0.5039370078740157,
                    "duration": 0.2506475000000137
                },
                {
                    "name": "D4",
                    "midi": 62,
                    "time": 262.17728500000055,
                    "velocity": 0.5905511811023622,
                    "duration": 0.2506475000000137
                },
                {
                    "name": "G3",
                    "midi": 55,
                    "time": 262.5532562500006,
                    "velocity": 0.4566929133858268,
                    "duration": 0.09399281250000513
                },
                {
                    "name": "C#4",
                    "midi": 61,
                    "time": 262.5532562500006,
                    "velocity": 0.5511811023622047,
                    "duration": 0.09399281250000513
                },
                {
                    "name": "A3",
                    "midi": 57,
                    "time": 262.6785800000006,
                    "velocity": 0.6141732283464567,
                    "duration": 0.2506475000000137
                },
                {
                    "name": "D4",
                    "midi": 62,
                    "time": 262.6785800000006,
                    "velocity": 0.6141732283464567,
                    "duration": 0.2506475000000137
                },
                {
                    "name": "B3",
                    "midi": 59,
                    "time": 263.0545512500006,
                    "velocity": 0.49606299212598426,
                    "duration": 0.09399281250000513
                },
                {
                    "name": "E4",
                    "midi": 64,
                    "time": 263.0545512500006,
                    "velocity": 0.5748031496062992,
                    "duration": 0.09399281250000513
                },
                {
                    "name": "C4",
                    "midi": 60,
                    "time": 263.1798750000006,
                    "velocity": 0.6141732283464567,
                    "duration": 0.2506475000000137
                },
                {
                    "name": "F4",
                    "midi": 65,
                    "time": 263.1798750000006,
                    "velocity": 0.6141732283464567,
                    "duration": 0.2506475000000137
                },
                {
                    "name": "D4",
                    "midi": 62,
                    "time": 263.5558462500006,
                    "velocity": 0.49606299212598426,
                    "duration": 0.09399281250000513
                },
                {
                    "name": "G#4",
                    "midi": 68,
                    "time": 263.5558462500006,
                    "velocity": 0.5748031496062992,
                    "duration": 0.09399281250000513
                },
                {
                    "name": "E4",
                    "midi": 64,
                    "time": 263.68117000000063,
                    "velocity": 0.5511811023622047,
                    "duration": 0.2506475000000137
                },
                {
                    "name": "A4",
                    "midi": 69,
                    "time": 263.68117000000063,
                    "velocity": 0.6614173228346457,
                    "duration": 0.2506475000000137
                },
                {
                    "name": "E4",
                    "midi": 64,
                    "time": 264.05714125000065,
                    "velocity": 0.5275590551181102,
                    "duration": 0.09399281250000513
                },
                {
                    "name": "B4",
                    "midi": 71,
                    "time": 264.05714125000065,
                    "velocity": 0.6299212598425197,
                    "duration": 0.09399281250000513
                },
                {
                    "name": "E4",
                    "midi": 64,
                    "time": 264.18246500000066,
                    "velocity": 0.5590551181102362,
                    "duration": 0.12532375000000684
                },
                {
                    "name": "A4",
                    "midi": 69,
                    "time": 264.18246500000066,
                    "velocity": 0.6771653543307087,
                    "duration": 0.12532375000000684
                },
                {
                    "name": "A3",
                    "midi": 57,
                    "time": 264.6837600000007,
                    "velocity": 0.7637795275590551,
                    "duration": 1.0025899999999979
                },
                {
                    "name": "A3",
                    "midi": 57,
                    "time": 265.6863500000007,
                    "velocity": 0.6692913385826772,
                    "duration": 1.0025899999999979
                },
                {
                    "name": "F4",
                    "midi": 65,
                    "time": 265.6863500000007,
                    "velocity": 0.6692913385826772,
                    "duration": 1.0025899999999979
                },
                {
                    "name": "A4",
                    "midi": 69,
                    "time": 265.6863500000007,
                    "velocity": 0.6692913385826772,
                    "duration": 1.0025899999999979
                },
                {
                    "name": "G4",
                    "midi": 67,
                    "time": 266.6889400000007,
                    "velocity": 0.7086614173228346,
                    "duration": 1.0025899999999979
                },
                {
                    "name": "A#3",
                    "midi": 58,
                    "time": 266.6889400000007,
                    "velocity": 0.7086614173228346,
                    "duration": 1.0025899999999979
                },
                {
                    "name": "A#4",
                    "midi": 70,
                    "time": 266.6889400000007,
                    "velocity": 0.7086614173228346,
                    "duration": 1.0025899999999979
                },
                {
                    "name": "A3",
                    "midi": 57,
                    "time": 267.6915300000007,
                    "velocity": 0.6299212598425197,
                    "duration": 0.2506475000000137
                },
                {
                    "name": "A4",
                    "midi": 69,
                    "time": 267.6915300000007,
                    "velocity": 0.6299212598425197,
                    "duration": 0.2506475000000137
                },
                {
                    "name": "F4",
                    "midi": 65,
                    "time": 267.6915300000007,
                    "velocity": 0.6299212598425197,
                    "duration": 0.2506475000000137
                },
                {
                    "name": "A4",
                    "midi": 69,
                    "time": 268.1928250000007,
                    "velocity": 0.5748031496062992,
                    "duration": 0.2506475000000137
                },
                {
                    "name": "F5",
                    "midi": 77,
                    "time": 268.1928250000007,
                    "velocity": 0.7007874015748031,
                    "duration": 0.2506475000000137
                },
                {
                    "name": "A4",
                    "midi": 69,
                    "time": 268.56879625000073,
                    "velocity": 0.5511811023622047,
                    "duration": 0.09399281250000513
                },
                {
                    "name": "E5",
                    "midi": 76,
                    "time": 268.56879625000073,
                    "velocity": 0.6614173228346457,
                    "duration": 0.09399281250000513
                },
                {
                    "name": "A4",
                    "midi": 69,
                    "time": 268.69412000000074,
                    "velocity": 0.5275590551181102,
                    "duration": 0.2506475000000137
                },
                {
                    "name": "D5",
                    "midi": 74,
                    "time": 268.69412000000074,
                    "velocity": 0.6299212598425197,
                    "duration": 0.2506475000000137
                },
                {
                    "name": "G4",
                    "midi": 67,
                    "time": 269.07009125000076,
                    "velocity": 0.49606299212598426,
                    "duration": 0.09399281250000513
                },
                {
                    "name": "C5",
                    "midi": 72,
                    "time": 269.07009125000076,
                    "velocity": 0.5748031496062992,
                    "duration": 0.09399281250000513
                },
                {
                    "name": "F4",
                    "midi": 65,
                    "time": 269.19541500000076,
                    "velocity": 0.49606299212598426,
                    "duration": 0.2506475000000137
                },
                {
                    "name": "A#4",
                    "midi": 70,
                    "time": 269.19541500000076,
                    "velocity": 0.5669291338582677,
                    "duration": 0.2506475000000137
                },
                {
                    "name": "E4",
                    "midi": 64,
                    "time": 269.5713862500008,
                    "velocity": 0.4566929133858268,
                    "duration": 0.09399281250000513
                },
                {
                    "name": "A4",
                    "midi": 69,
                    "time": 269.5713862500008,
                    "velocity": 0.5511811023622047,
                    "duration": 0.09399281250000513
                },
                {
                    "name": "F4",
                    "midi": 65,
                    "time": 269.6967100000008,
                    "velocity": 0.5748031496062992,
                    "duration": 0.2506475000000137
                },
                {
                    "name": "A#4",
                    "midi": 70,
                    "time": 269.6967100000008,
                    "velocity": 0.5748031496062992,
                    "duration": 0.2506475000000137
                },
                {
                    "name": "E4",
                    "midi": 64,
                    "time": 270.0726812500008,
                    "velocity": 0.44881889763779526,
                    "duration": 0.09399281250000513
                },
                {
                    "name": "A4",
                    "midi": 69,
                    "time": 270.0726812500008,
                    "velocity": 0.5511811023622047,
                    "duration": 0.09399281250000513
                },
                {
                    "name": "D4",
                    "midi": 62,
                    "time": 270.1980050000008,
                    "velocity": 0.5669291338582677,
                    "duration": 0.2506475000000137
                },
                {
                    "name": "G4",
                    "midi": 67,
                    "time": 270.1980050000008,
                    "velocity": 0.5669291338582677,
                    "duration": 0.2506475000000137
                },
                {
                    "name": "C4",
                    "midi": 60,
                    "time": 270.57397625000084,
                    "velocity": 0.4566929133858268,
                    "duration": 0.09399281250000513
                },
                {
                    "name": "F#4",
                    "midi": 66,
                    "time": 270.57397625000084,
                    "velocity": 0.5511811023622047,
                    "duration": 0.09399281250000513
                },
                {
                    "name": "D4",
                    "midi": 62,
                    "time": 270.69930000000085,
                    "velocity": 0.5984251968503937,
                    "duration": 0.2506475000000137
                },
                {
                    "name": "G4",
                    "midi": 67,
                    "time": 270.69930000000085,
                    "velocity": 0.5984251968503937,
                    "duration": 0.2506475000000137
                },
                {
                    "name": "E4",
                    "midi": 64,
                    "time": 271.07527125000087,
                    "velocity": 0.49606299212598426,
                    "duration": 0.09399281250000513
                },
                {
                    "name": "A4",
                    "midi": 69,
                    "time": 271.07527125000087,
                    "velocity": 0.5748031496062992,
                    "duration": 0.09399281250000513
                },
                {
                    "name": "F4",
                    "midi": 65,
                    "time": 271.2005950000009,
                    "velocity": 0.6062992125984252,
                    "duration": 0.2506475000000137
                },
                {
                    "name": "A#4",
                    "midi": 70,
                    "time": 271.2005950000009,
                    "velocity": 0.6062992125984252,
                    "duration": 0.2506475000000137
                },
                {
                    "name": "G4",
                    "midi": 67,
                    "time": 271.5765662500009,
                    "velocity": 0.49606299212598426,
                    "duration": 0.09399281250000513
                },
                {
                    "name": "C#5",
                    "midi": 73,
                    "time": 271.5765662500009,
                    "velocity": 0.5748031496062992,
                    "duration": 0.09399281250000513
                },
                {
                    "name": "A4",
                    "midi": 69,
                    "time": 271.7018900000009,
                    "velocity": 0.6220472440944882,
                    "duration": 0.2506475000000137
                },
                {
                    "name": "D5",
                    "midi": 74,
                    "time": 271.7018900000009,
                    "velocity": 0.6220472440944882,
                    "duration": 0.2506475000000137
                },
                {
                    "name": "A4",
                    "midi": 69,
                    "time": 272.0778612500009,
                    "velocity": 0.5275590551181102,
                    "duration": 0.09399281250000513
                },
                {
                    "name": "E5",
                    "midi": 76,
                    "time": 272.0778612500009,
                    "velocity": 0.6299212598425197,
                    "duration": 0.09399281250000513
                },
                {
                    "name": "A4",
                    "midi": 69,
                    "time": 272.20318500000093,
                    "velocity": 0.5590551181102362,
                    "duration": 0.12532375000000684
                },
                {
                    "name": "D5",
                    "midi": 74,
                    "time": 272.20318500000093,
                    "velocity": 0.6771653543307087,
                    "duration": 0.12532375000000684
                },
                {
                    "name": "D4",
                    "midi": 62,
                    "time": 276.2135450000009,
                    "velocity": 0.6535433070866141,
                    "duration": 1.0025899999999979
                },
                {
                    "name": "D5",
                    "midi": 74,
                    "time": 276.2135450000009,
                    "velocity": 0.7322834645669292,
                    "duration": 1.0025899999999979
                },
                {
                    "name": "G4",
                    "midi": 67,
                    "time": 277.2161350000009,
                    "velocity": 0.6299212598425197,
                    "duration": 0.5012950000000274
                },
                {
                    "name": "G5",
                    "midi": 79,
                    "time": 277.2161350000009,
                    "velocity": 0.7007874015748031,
                    "duration": 0.5012950000000274
                },
                {
                    "name": "A4",
                    "midi": 69,
                    "time": 277.71743000000095,
                    "velocity": 0.6614173228346457,
                    "duration": 0.5012950000000274
                },
                {
                    "name": "A5",
                    "midi": 81,
                    "time": 277.71743000000095,
                    "velocity": 0.7401574803149606,
                    "duration": 0.5012950000000274
                },
                {
                    "name": "A#4",
                    "midi": 70,
                    "time": 278.218725000001,
                    "velocity": 0.6377952755905512,
                    "duration": 0.5012950000000274
                },
                {
                    "name": "A#5",
                    "midi": 82,
                    "time": 278.218725000001,
                    "velocity": 0.7165354330708661,
                    "duration": 0.5012950000000274
                },
                {
                    "name": "A4",
                    "midi": 69,
                    "time": 278.720020000001,
                    "velocity": 0.6535433070866141,
                    "duration": 1.0025899999999979
                },
                {
                    "name": "A5",
                    "midi": 81,
                    "time": 278.720020000001,
                    "velocity": 0.7322834645669292,
                    "duration": 1.0025899999999979
                },
                {
                    "name": "D4",
                    "midi": 62,
                    "time": 279.722610000001,
                    "velocity": 0.5984251968503937,
                    "duration": 0.20887291666667807
                },
                {
                    "name": "D5",
                    "midi": 74,
                    "time": 279.722610000001,
                    "velocity": 0.6692913385826772,
                    "duration": 0.20887291666667807
                },
                {
                    "name": "C5",
                    "midi": 72,
                    "time": 280.223905000001,
                    "velocity": 0.6850393700787402,
                    "duration": 0.5012950000000274
                },
                {
                    "name": "C6",
                    "midi": 84,
                    "time": 280.223905000001,
                    "velocity": 0.7637795275590551,
                    "duration": 0.5012950000000274
                },
                {
                    "name": "A#4",
                    "midi": 70,
                    "time": 280.72520000000105,
                    "velocity": 0.6850393700787402,
                    "duration": 1.0025899999999979
                },
                {
                    "name": "A#5",
                    "midi": 82,
                    "time": 280.72520000000105,
                    "velocity": 0.7637795275590551,
                    "duration": 1.0025899999999979
                },
                {
                    "name": "D4",
                    "midi": 62,
                    "time": 281.72779000000105,
                    "velocity": 0.6456692913385826,
                    "duration": 0.20887291666667807
                },
                {
                    "name": "D5",
                    "midi": 74,
                    "time": 281.72779000000105,
                    "velocity": 0.7244094488188977,
                    "duration": 0.20887291666667807
                },
                {
                    "name": "A#4",
                    "midi": 70,
                    "time": 282.2290850000011,
                    "velocity": 0.6850393700787402,
                    "duration": 0.5012950000000274
                },
                {
                    "name": "A#5",
                    "midi": 82,
                    "time": 282.2290850000011,
                    "velocity": 0.7637795275590551,
                    "duration": 0.5012950000000274
                },
                {
                    "name": "A4",
                    "midi": 69,
                    "time": 282.7303800000011,
                    "velocity": 0.6456692913385826,
                    "duration": 1.0025899999999979
                },
                {
                    "name": "A5",
                    "midi": 81,
                    "time": 282.7303800000011,
                    "velocity": 0.7244094488188977,
                    "duration": 1.0025899999999979
                },
                {
                    "name": "D4",
                    "midi": 62,
                    "time": 283.7329700000011,
                    "velocity": 0.5905511811023622,
                    "duration": 0.20887291666667807
                },
                {
                    "name": "D5",
                    "midi": 74,
                    "time": 283.7329700000011,
                    "velocity": 0.6614173228346457,
                    "duration": 0.20887291666667807
                },
                {
                    "name": "D4",
                    "midi": 62,
                    "time": 284.23426500000113,
                    "velocity": 0.6850393700787402,
                    "duration": 1.0025899999999979
                },
                {
                    "name": "D5",
                    "midi": 74,
                    "time": 284.23426500000113,
                    "velocity": 0.7637795275590551,
                    "duration": 1.0025899999999979
                },
                {
                    "name": "G4",
                    "midi": 67,
                    "time": 285.2368550000011,
                    "velocity": 0.6456692913385826,
                    "duration": 0.5012950000000274
                },
                {
                    "name": "G5",
                    "midi": 79,
                    "time": 285.2368550000011,
                    "velocity": 0.7244094488188977,
                    "duration": 0.5012950000000274
                },
                {
                    "name": "A4",
                    "midi": 69,
                    "time": 285.73815000000116,
                    "velocity": 0.6850393700787402,
                    "duration": 0.5012950000000274
                },
                {
                    "name": "A5",
                    "midi": 81,
                    "time": 285.73815000000116,
                    "velocity": 0.7637795275590551,
                    "duration": 0.5012950000000274
                },
                {
                    "name": "A#4",
                    "midi": 70,
                    "time": 286.2394450000012,
                    "velocity": 0.6456692913385826,
                    "duration": 0.5012950000000274
                },
                {
                    "name": "A#5",
                    "midi": 82,
                    "time": 286.2394450000012,
                    "velocity": 0.7244094488188977,
                    "duration": 0.5012950000000274
                },
                {
                    "name": "A4",
                    "midi": 69,
                    "time": 286.7407400000012,
                    "velocity": 0.7007874015748031,
                    "duration": 1.0025899999999979
                },
                {
                    "name": "A5",
                    "midi": 81,
                    "time": 286.7407400000012,
                    "velocity": 0.7795275590551181,
                    "duration": 1.0025899999999979
                },
                {
                    "name": "D4",
                    "midi": 62,
                    "time": 287.7433300000012,
                    "velocity": 0.5905511811023622,
                    "duration": 0.20887291666667807
                },
                {
                    "name": "D5",
                    "midi": 74,
                    "time": 287.7433300000012,
                    "velocity": 0.6614173228346457,
                    "duration": 0.20887291666667807
                },
                {
                    "name": "A4",
                    "midi": 69,
                    "time": 288.24462500000124,
                    "velocity": 0.6692913385826772,
                    "duration": 1.0025899999999979
                },
                {
                    "name": "A5",
                    "midi": 81,
                    "time": 288.24462500000124,
                    "velocity": 0.7480314960629921,
                    "duration": 1.0025899999999979
                },
                {
                    "name": "C6",
                    "midi": 84,
                    "time": 289.24721500000123,
                    "velocity": 0.7244094488188977,
                    "duration": 0.5012950000000274
                },
                {
                    "name": "C5",
                    "midi": 72,
                    "time": 289.24721500000123,
                    "velocity": 0.6456692913385826,
                    "duration": 0.5012950000000274
                },
                {
                    "name": "D5",
                    "midi": 74,
                    "time": 289.74851000000126,
                    "velocity": 0.7165354330708661,
                    "duration": 0.5012950000000274
                },
                {
                    "name": "D6",
                    "midi": 86,
                    "time": 289.74851000000126,
                    "velocity": 0.8031496062992126,
                    "duration": 0.5012950000000274
                },
                {
                    "name": "E5",
                    "midi": 76,
                    "time": 290.2498050000013,
                    "velocity": 0.7401574803149606,
                    "duration": 0.5012950000000274
                },
                {
                    "name": "E6",
                    "midi": 88,
                    "time": 290.2498050000013,
                    "velocity": 0.8267716535433071,
                    "duration": 0.5012950000000274
                },
                {
                    "name": "E6",
                    "midi": 88,
                    "time": 290.7511000000013,
                    "velocity": 0.84251968503937,
                    "duration": 0.9608154166666623
                },
                {
                    "name": "E5",
                    "midi": 76,
                    "time": 290.7511000000013,
                    "velocity": 0.7559055118110236,
                    "duration": 0.9608154166666623
                },
                {
                    "name": "E5",
                    "midi": 76,
                    "time": 291.7536900000013,
                    "velocity": 0.6614173228346457,
                    "duration": 0.9608154166666623
                },
                {
                    "name": "E6",
                    "midi": 88,
                    "time": 291.7536900000013,
                    "velocity": 0.7401574803149606,
                    "duration": 0.9608154166666623
                },
                {
                    "name": "C6",
                    "midi": 84,
                    "time": 292.7562800000013,
                    "velocity": 0.7007874015748031,
                    "duration": 1.0025899999999979
                },
                {
                    "name": "C5",
                    "midi": 72,
                    "time": 292.7562800000013,
                    "velocity": 0.6299212598425197,
                    "duration": 1.0025899999999979
                },
                {
                    "name": "A5",
                    "midi": 81,
                    "time": 293.7588700000013,
                    "velocity": 0.6377952755905512,
                    "duration": 0.20887291666667807
                },
                {
                    "name": "A4",
                    "midi": 69,
                    "time": 293.7588700000013,
                    "velocity": 0.5669291338582677,
                    "duration": 0.20887291666667807
                },
                {
                    "name": "E4",
                    "midi": 64,
                    "time": 294.7614600000013,
                    "velocity": 0.3779527559055118,
                    "duration": 0.9608154166666623
                },
                {
                    "name": "E5",
                    "midi": 76,
                    "time": 294.7614600000013,
                    "velocity": 0.3779527559055118,
                    "duration": 0.9608154166666623
                },
                {
                    "name": "E4",
                    "midi": 64,
                    "time": 295.7640500000013,
                    "velocity": 0.3779527559055118,
                    "duration": 0.9608154166666623
                },
                {
                    "name": "E5",
                    "midi": 76,
                    "time": 295.7640500000013,
                    "velocity": 0.3779527559055118,
                    "duration": 0.9608154166666623
                },
                {
                    "name": "C4",
                    "midi": 60,
                    "time": 296.7666400000013,
                    "velocity": 0.3543307086614173,
                    "duration": 1.0025899999999979
                },
                {
                    "name": "C5",
                    "midi": 72,
                    "time": 296.7666400000013,
                    "velocity": 0.3543307086614173,
                    "duration": 1.0025899999999979
                },
                {
                    "name": "A3",
                    "midi": 57,
                    "time": 297.7692300000013,
                    "velocity": 0.3228346456692913,
                    "duration": 0.18798562500001026
                },
                {
                    "name": "A4",
                    "midi": 69,
                    "time": 297.7692300000013,
                    "velocity": 0.3228346456692913,
                    "duration": 0.18798562500001026
                },
                {
                    "name": "A#3",
                    "midi": 58,
                    "time": 298.7718200000013,
                    "velocity": 0.2677165354330709,
                    "duration": 1.0025899999999979
                },
                {
                    "name": "A#4",
                    "midi": 70,
                    "time": 298.7718200000013,
                    "velocity": 0.2677165354330709,
                    "duration": 1.0025899999999979
                },
                {
                    "name": "G3",
                    "midi": 55,
                    "time": 299.7744100000013,
                    "velocity": 0.1968503937007874,
                    "duration": 0.18798562500001026
                },
                {
                    "name": "G4",
                    "midi": 67,
                    "time": 299.7744100000013,
                    "velocity": 0.1968503937007874,
                    "duration": 0.18798562500001026
                },
                {
                    "name": "A#3",
                    "midi": 58,
                    "time": 300.7770000000013,
                    "velocity": 0.2440944881889764,
                    "duration": 1.0025899999999979
                },
                {
                    "name": "A#4",
                    "midi": 70,
                    "time": 300.7770000000013,
                    "velocity": 0.2440944881889764,
                    "duration": 1.0025899999999979
                },
                {
                    "name": "G3",
                    "midi": 55,
                    "time": 301.7795900000013,
                    "velocity": 0.1968503937007874,
                    "duration": 0.18798562500001026
                },
                {
                    "name": "G4",
                    "midi": 67,
                    "time": 301.7795900000013,
                    "velocity": 0.1968503937007874,
                    "duration": 0.18798562500001026
                },
                {
                    "name": "A#3",
                    "midi": 58,
                    "time": 302.7821800000013,
                    "velocity": 0.2440944881889764,
                    "duration": 1.0025899999999979
                },
                {
                    "name": "A#4",
                    "midi": 70,
                    "time": 302.7821800000013,
                    "velocity": 0.2440944881889764,
                    "duration": 1.0025899999999979
                },
                {
                    "name": "G3",
                    "midi": 55,
                    "time": 303.7847700000013,
                    "velocity": 0.1889763779527559,
                    "duration": 0.18798562500001026
                },
                {
                    "name": "G4",
                    "midi": 67,
                    "time": 303.7847700000013,
                    "velocity": 0.1889763779527559,
                    "duration": 0.18798562500001026
                },
                {
                    "name": "A#3",
                    "midi": 58,
                    "time": 304.7873600000013,
                    "velocity": 0.2677165354330709,
                    "duration": 1.0025899999999979
                },
                {
                    "name": "A#4",
                    "midi": 70,
                    "time": 304.7873600000013,
                    "velocity": 0.2677165354330709,
                    "duration": 1.0025899999999979
                },
                {
                    "name": "G3",
                    "midi": 55,
                    "time": 305.7899500000013,
                    "velocity": 0.2283464566929134,
                    "duration": 0.18798562500001026
                },
                {
                    "name": "G4",
                    "midi": 67,
                    "time": 305.7899500000013,
                    "velocity": 0.2283464566929134,
                    "duration": 0.18798562500001026
                },
                {
                    "name": "B3",
                    "midi": 59,
                    "time": 306.7925400000013,
                    "velocity": 0.6299212598425197,
                    "duration": 0.12532375000000684
                },
                {
                    "name": "B4",
                    "midi": 71,
                    "time": 306.9178637500013,
                    "velocity": 0.5984251968503937,
                    "duration": 0.12532375000000684
                },
                {
                    "name": "B3",
                    "midi": 59,
                    "time": 307.0431875000013,
                    "velocity": 0.5669291338582677,
                    "duration": 0.12532375000000684
                },
                {
                    "name": "B4",
                    "midi": 71,
                    "time": 307.1685112500013,
                    "velocity": 0.5275590551181102,
                    "duration": 0.12532375000000684
                },
                {
                    "name": "B3",
                    "midi": 59,
                    "time": 307.2938350000013,
                    "velocity": 0.49606299212598426,
                    "duration": 0.12532375000000684
                },
                {
                    "name": "B4",
                    "midi": 71,
                    "time": 307.4191587500013,
                    "velocity": 0.47244094488188976,
                    "duration": 0.12532375000000684
                },
                {
                    "name": "B3",
                    "midi": 59,
                    "time": 307.5444825000013,
                    "velocity": 0.44881889763779526,
                    "duration": 0.12532375000000684
                },
                {
                    "name": "B4",
                    "midi": 71,
                    "time": 307.66980625000133,
                    "velocity": 0.4251968503937008,
                    "duration": 0.12532375000000684
                },
                {
                    "name": "B3",
                    "midi": 59,
                    "time": 307.79513000000134,
                    "velocity": 0.47244094488188976,
                    "duration": 0.12532375000000684
                },
                {
                    "name": "B4",
                    "midi": 71,
                    "time": 307.92045375000134,
                    "velocity": 0.44881889763779526,
                    "duration": 0.12532375000000684
                },
                {
                    "name": "B3",
                    "midi": 59,
                    "time": 308.04577750000135,
                    "velocity": 0.4330708661417323,
                    "duration": 0.12532375000000684
                },
                {
                    "name": "B4",
                    "midi": 71,
                    "time": 308.17110125000136,
                    "velocity": 0.4094488188976378,
                    "duration": 0.12532375000000684
                },
                {
                    "name": "B3",
                    "midi": 59,
                    "time": 308.29642500000136,
                    "velocity": 0.4566929133858268,
                    "duration": 0.12532375000000684
                },
                {
                    "name": "B4",
                    "midi": 71,
                    "time": 308.42174875000137,
                    "velocity": 0.4409448818897638,
                    "duration": 0.12532375000000684
                },
                {
                    "name": "B3",
                    "midi": 59,
                    "time": 308.5470725000014,
                    "velocity": 0.4251968503937008,
                    "duration": 0.12532375000000684
                },
                {
                    "name": "B4",
                    "midi": 71,
                    "time": 308.6723962500014,
                    "velocity": 0.4015748031496063,
                    "duration": 0.12532375000000684
                },
                {
                    "name": "G#3",
                    "midi": 56,
                    "time": 308.7977200000014,
                    "velocity": 0.6299212598425197,
                    "duration": 0.12532375000000684
                },
                {
                    "name": "G#4",
                    "midi": 68,
                    "time": 308.9230437500014,
                    "velocity": 0.5905511811023622,
                    "duration": 0.12532375000000684
                },
                {
                    "name": "G#3",
                    "midi": 56,
                    "time": 309.0483675000014,
                    "velocity": 0.5433070866141733,
                    "duration": 0.12532375000000684
                },
                {
                    "name": "G#4",
                    "midi": 68,
                    "time": 309.1736912500014,
                    "velocity": 0.5118110236220472,
                    "duration": 0.12532375000000684
                },
                {
                    "name": "G#3",
                    "midi": 56,
                    "time": 309.2990150000014,
                    "velocity": 0.48031496062992124,
                    "duration": 0.12532375000000684
                },
                {
                    "name": "G#4",
                    "midi": 68,
                    "time": 309.4243387500014,
                    "velocity": 0.47244094488188976,
                    "duration": 0.12532375000000684
                },
                {
                    "name": "G#3",
                    "midi": 56,
                    "time": 309.54966250000143,
                    "velocity": 0.4645669291338583,
                    "duration": 0.12532375000000684
                },
                {
                    "name": "G#4",
                    "midi": 68,
                    "time": 309.67498625000144,
                    "velocity": 0.4566929133858268,
                    "duration": 0.12532375000000684
                },
                {
                    "name": "G#3",
                    "midi": 56,
                    "time": 309.80031000000145,
                    "velocity": 0.5433070866141733,
                    "duration": 0.12532375000000684
                },
                {
                    "name": "G#4",
                    "midi": 68,
                    "time": 309.92563375000145,
                    "velocity": 0.5354330708661418,
                    "duration": 0.12532375000000684
                },
                {
                    "name": "G#3",
                    "midi": 56,
                    "time": 310.05095750000146,
                    "velocity": 0.5196850393700787,
                    "duration": 0.12532375000000684
                },
                {
                    "name": "G#4",
                    "midi": 68,
                    "time": 310.17628125000147,
                    "velocity": 0.49606299212598426,
                    "duration": 0.12532375000000684
                },
                {
                    "name": "G#3",
                    "midi": 56,
                    "time": 310.3016050000015,
                    "velocity": 0.5748031496062992,
                    "duration": 0.12532375000000684
                },
                {
                    "name": "G#4",
                    "midi": 68,
                    "time": 310.4269287500015,
                    "velocity": 0.5511811023622047,
                    "duration": 0.12532375000000684
                },
                {
                    "name": "G#3",
                    "midi": 56,
                    "time": 310.5522525000015,
                    "velocity": 0.5275590551181102,
                    "duration": 0.12532375000000684
                },
                {
                    "name": "G#4",
                    "midi": 68,
                    "time": 310.6775762500015,
                    "velocity": 0.5039370078740157,
                    "duration": 0.12532375000000684
                },
                {
                    "name": "B4",
                    "midi": 71,
                    "time": 310.8029000000015,
                    "velocity": 0.7795275590551181,
                    "duration": 0.5012950000000274
                },
                {
                    "name": "B5",
                    "midi": 83,
                    "time": 310.8029000000015,
                    "velocity": 0.7795275590551181,
                    "duration": 0.5012950000000274
                },
                {
                    "name": "G#4",
                    "midi": 68,
                    "time": 311.3041950000015,
                    "velocity": 0.7086614173228346,
                    "duration": 0.18798562500001026
                },
                {
                    "name": "G#5",
                    "midi": 80,
                    "time": 311.3041950000015,
                    "velocity": 0.7086614173228346,
                    "duration": 0.18798562500001026
                },
                {
                    "name": "B5",
                    "midi": 83,
                    "time": 311.80549000000156,
                    "velocity": 0.7559055118110236,
                    "duration": 0.5012950000000274
                },
                {
                    "name": "B4",
                    "midi": 71,
                    "time": 311.80549000000156,
                    "velocity": 0.7559055118110236,
                    "duration": 0.5012950000000274
                },
                {
                    "name": "E6",
                    "midi": 88,
                    "time": 312.3067850000016,
                    "velocity": 0.7086614173228346,
                    "duration": 0.18798562500001026
                },
                {
                    "name": "E5",
                    "midi": 76,
                    "time": 312.3067850000016,
                    "velocity": 0.7086614173228346,
                    "duration": 0.18798562500001026
                },
                {
                    "name": "B4",
                    "midi": 71,
                    "time": 312.8080800000016,
                    "velocity": 0.7007874015748031,
                    "duration": 0.5012950000000274
                },
                {
                    "name": "B5",
                    "midi": 83,
                    "time": 312.8080800000016,
                    "velocity": 0.7007874015748031,
                    "duration": 0.5012950000000274
                },
                {
                    "name": "G#5",
                    "midi": 80,
                    "time": 313.30937500000164,
                    "velocity": 0.6456692913385826,
                    "duration": 0.18798562500001026
                },
                {
                    "name": "G#4",
                    "midi": 68,
                    "time": 313.30937500000164,
                    "velocity": 0.6456692913385826,
                    "duration": 0.18798562500001026
                },
                {
                    "name": "E4",
                    "midi": 64,
                    "time": 313.81067000000166,
                    "velocity": 0.5118110236220472,
                    "duration": 0.5012950000000274
                },
                {
                    "name": "E5",
                    "midi": 76,
                    "time": 313.81067000000166,
                    "velocity": 0.5118110236220472,
                    "duration": 0.5012950000000274
                },
                {
                    "name": "B3",
                    "midi": 59,
                    "time": 314.3119650000017,
                    "velocity": 0.41732283464566927,
                    "duration": 0.18798562500001026
                },
                {
                    "name": "B4",
                    "midi": 71,
                    "time": 314.3119650000017,
                    "velocity": 0.41732283464566927,
                    "duration": 0.18798562500001026
                },
                {
                    "name": "G#3",
                    "midi": 56,
                    "time": 314.8132600000017,
                    "velocity": 0.2677165354330709,
                    "duration": 2.0051799999999957
                },
                {
                    "name": "E4",
                    "midi": 64,
                    "time": 314.8132600000017,
                    "velocity": 0.2677165354330709,
                    "duration": 2.0051799999999957
                },
                {
                    "name": "G#4",
                    "midi": 68,
                    "time": 314.8132600000017,
                    "velocity": 0.2677165354330709,
                    "duration": 2.0051799999999957
                },
                {
                    "name": "D#4",
                    "midi": 63,
                    "time": 316.8184400000017,
                    "velocity": 0.2992125984251969,
                    "duration": 2.0051799999999957
                },
                {
                    "name": "A3",
                    "midi": 57,
                    "time": 316.8184400000017,
                    "velocity": 0.2992125984251969,
                    "duration": 2.0051799999999957
                },
                {
                    "name": "B4",
                    "midi": 71,
                    "time": 316.8184400000017,
                    "velocity": 0.2992125984251969,
                    "duration": 2.0051799999999957
                },
                {
                    "name": "B3",
                    "midi": 59,
                    "time": 318.8236200000017,
                    "velocity": 0.7322834645669292,
                    "duration": 0.12532375000000684
                },
                {
                    "name": "B4",
                    "midi": 71,
                    "time": 318.9489437500017,
                    "velocity": 0.6850393700787402,
                    "duration": 0.12532375000000684
                },
                {
                    "name": "B3",
                    "midi": 59,
                    "time": 319.0742675000017,
                    "velocity": 0.6377952755905512,
                    "duration": 0.12532375000000684
                },
                {
                    "name": "B4",
                    "midi": 71,
                    "time": 319.19959125000173,
                    "velocity": 0.5905511811023622,
                    "duration": 0.12532375000000684
                },
                {
                    "name": "G#3",
                    "midi": 56,
                    "time": 319.32491500000174,
                    "velocity": 0.7165354330708661,
                    "duration": 0.12532375000000684
                },
                {
                    "name": "G#4",
                    "midi": 68,
                    "time": 319.45023875000174,
                    "velocity": 0.6771653543307087,
                    "duration": 0.12532375000000684
                },
                {
                    "name": "G#3",
                    "midi": 56,
                    "time": 319.57556250000175,
                    "velocity": 0.6377952755905512,
                    "duration": 0.12532375000000684
                },
                {
                    "name": "G#4",
                    "midi": 68,
                    "time": 319.70088625000176,
                    "velocity": 0.5905511811023622,
                    "duration": 0.12532375000000684
                },
                {
                    "name": "B3",
                    "midi": 59,
                    "time": 319.82621000000177,
                    "velocity": 0.6614173228346457,
                    "duration": 0.12532375000000684
                },
                {
                    "name": "B4",
                    "midi": 71,
                    "time": 319.9515337500018,
                    "velocity": 0.6299212598425197,
                    "duration": 0.12532375000000684
                },
                {
                    "name": "B3",
                    "midi": 59,
                    "time": 320.0768575000018,
                    "velocity": 0.6062992125984252,
                    "duration": 0.12532375000000684
                },
                {
                    "name": "B4",
                    "midi": 71,
                    "time": 320.2021812500018,
                    "velocity": 0.5748031496062992,
                    "duration": 0.12532375000000684
                },
                {
                    "name": "E4",
                    "midi": 64,
                    "time": 320.3275050000018,
                    "velocity": 0.6929133858267716,
                    "duration": 0.12532375000000684
                },
                {
                    "name": "E5",
                    "midi": 76,
                    "time": 320.4528287500018,
                    "velocity": 0.6692913385826772,
                    "duration": 0.12532375000000684
                },
                {
                    "name": "E4",
                    "midi": 64,
                    "time": 320.5781525000018,
                    "velocity": 0.6535433070866141,
                    "duration": 0.12532375000000684
                },
                {
                    "name": "E5",
                    "midi": 76,
                    "time": 320.7034762500018,
                    "velocity": 0.6299212598425197,
                    "duration": 0.12532375000000684
                },
                {
                    "name": "G#4",
                    "midi": 68,
                    "time": 320.8288000000018,
                    "velocity": 0.7165354330708661,
                    "duration": 0.12532375000000684
                },
                {
                    "name": "G#5",
                    "midi": 80,
                    "time": 320.9541237500018,
                    "velocity": 0.6929133858267716,
                    "duration": 0.12532375000000684
                },
                {
                    "name": "G#4",
                    "midi": 68,
                    "time": 321.07944750000183,
                    "velocity": 0.6771653543307087,
                    "duration": 0.12532375000000684
                },
                {
                    "name": "G#5",
                    "midi": 80,
                    "time": 321.20477125000184,
                    "velocity": 0.6535433070866141,
                    "duration": 0.12532375000000684
                },
                {
                    "name": "B4",
                    "midi": 71,
                    "time": 321.33009500000185,
                    "velocity": 0.7401574803149606,
                    "duration": 0.12532375000000684
                },
                {
                    "name": "B5",
                    "midi": 83,
                    "time": 321.45541875000185,
                    "velocity": 0.7165354330708661,
                    "duration": 0.12532375000000684
                },
                {
                    "name": "B4",
                    "midi": 71,
                    "time": 321.58074250000186,
                    "velocity": 0.6929133858267716,
                    "duration": 0.12532375000000684
                },
                {
                    "name": "B5",
                    "midi": 83,
                    "time": 321.70606625000187,
                    "velocity": 0.6614173228346457,
                    "duration": 0.12532375000000684
                },
                {
                    "name": "E5",
                    "midi": 76,
                    "time": 321.8313900000019,
                    "velocity": 0.8031496062992126,
                    "duration": 0.12532375000000684
                },
                {
                    "name": "E6",
                    "midi": 88,
                    "time": 321.9567137500019,
                    "velocity": 0.7559055118110236,
                    "duration": 0.12532375000000684
                },
                {
                    "name": "E5",
                    "midi": 76,
                    "time": 322.0820375000019,
                    "velocity": 0.7086614173228346,
                    "duration": 0.12532375000000684
                },
                {
                    "name": "E6",
                    "midi": 88,
                    "time": 322.2073612500019,
                    "velocity": 0.6614173228346457,
                    "duration": 0.12532375000000684
                },
                {
                    "name": "B4",
                    "midi": 71,
                    "time": 322.3326850000019,
                    "velocity": 0.6456692913385826,
                    "duration": 0.12532375000000684
                },
                {
                    "name": "B5",
                    "midi": 83,
                    "time": 322.4580087500019,
                    "velocity": 0.5590551181102362,
                    "duration": 0.12532375000000684
                },
                {
                    "name": "B4",
                    "midi": 71,
                    "time": 322.5833325000019,
                    "velocity": 0.5354330708661418,
                    "duration": 0.12532375000000684
                },
                {
                    "name": "B5",
                    "midi": 83,
                    "time": 322.7086562500019,
                    "velocity": 0.5039370078740157,
                    "duration": 0.12532375000000684
                },
                {
                    "name": "E4",
                    "midi": 64,
                    "time": 322.83398000000193,
                    "velocity": 0.2755905511811024,
                    "duration": 2.0051799999999957
                },
                {
                    "name": "G#3",
                    "midi": 56,
                    "time": 322.83398000000193,
                    "velocity": 0.2755905511811024,
                    "duration": 2.0051799999999957
                },
                {
                    "name": "G#4",
                    "midi": 68,
                    "time": 322.83398000000193,
                    "velocity": 0.2755905511811024,
                    "duration": 2.0051799999999957
                },
                {
                    "name": "D#4",
                    "midi": 63,
                    "time": 324.8391600000019,
                    "velocity": 0.28346456692913385,
                    "duration": 2.0051799999999957
                },
                {
                    "name": "A3",
                    "midi": 57,
                    "time": 324.8391600000019,
                    "velocity": 0.28346456692913385,
                    "duration": 2.0051799999999957
                },
                {
                    "name": "B4",
                    "midi": 71,
                    "time": 324.8391600000019,
                    "velocity": 0.33858267716535434,
                    "duration": 2.0051799999999957
                },
                {
                    "name": "G#3",
                    "midi": 56,
                    "time": 326.8443400000019,
                    "velocity": 0.2677165354330709,
                    "duration": 0.9608154166666623
                },
                {
                    "name": "E4",
                    "midi": 64,
                    "time": 326.8443400000019,
                    "velocity": 0.31496062992125984,
                    "duration": 0.9608154166666623
                },
                {
                    "name": "G#3",
                    "midi": 56,
                    "time": 327.8469300000019,
                    "velocity": 0.18110236220472442,
                    "duration": 0.877266249999991
                },
                {
                    "name": "E4",
                    "midi": 64,
                    "time": 327.8469300000019,
                    "velocity": 0.2125984251968504,
                    "duration": 0.877266249999991
                },
                {
                    "name": "E4",
                    "midi": 64,
                    "time": 328.8495200000019,
                    "velocity": 0.30708661417322836,
                    "duration": 0.49085135416669345
                },
                {
                    "name": "G#3",
                    "midi": 56,
                    "time": 328.8495200000019,
                    "velocity": 0.30708661417322836,
                    "duration": 0.49085135416669345
                },
                {
                    "name": "G#3",
                    "midi": 56,
                    "time": 329.35081500000194,
                    "velocity": 0.2677165354330709,
                    "duration": 0.49085135416669345
                },
                {
                    "name": "G#4",
                    "midi": 68,
                    "time": 329.35081500000194,
                    "velocity": 0.2677165354330709,
                    "duration": 0.49085135416669345
                },
                {
                    "name": "G#3",
                    "midi": 56,
                    "time": 329.85211000000197,
                    "velocity": 0.2992125984251969,
                    "duration": 0.49085135416669345
                },
                {
                    "name": "F#4",
                    "midi": 66,
                    "time": 329.85211000000197,
                    "velocity": 0.2992125984251969,
                    "duration": 0.49085135416669345
                },
                {
                    "name": "G#3",
                    "midi": 56,
                    "time": 330.353405000002,
                    "velocity": 0.2755905511811024,
                    "duration": 0.49085135416669345
                },
                {
                    "name": "G#4",
                    "midi": 68,
                    "time": 330.353405000002,
                    "velocity": 0.2755905511811024,
                    "duration": 0.49085135416669345
                },
                {
                    "name": "A3",
                    "midi": 57,
                    "time": 330.854700000002,
                    "velocity": 0.30708661417322836,
                    "duration": 0.9608154166666623
                },
                {
                    "name": "C#4",
                    "midi": 61,
                    "time": 330.854700000002,
                    "velocity": 0.30708661417322836,
                    "duration": 0.9608154166666623
                },
                {
                    "name": "A3",
                    "midi": 57,
                    "time": 331.857290000002,
                    "velocity": 0.1968503937007874,
                    "duration": 0.877266249999991
                },
                {
                    "name": "C#4",
                    "midi": 61,
                    "time": 331.857290000002,
                    "velocity": 0.1968503937007874,
                    "duration": 0.877266249999991
                },
                {
                    "name": "A3",
                    "midi": 57,
                    "time": 332.859880000002,
                    "velocity": 0.2992125984251969,
                    "duration": 0.49085135416669345
                },
                {
                    "name": "C#4",
                    "midi": 61,
                    "time": 332.859880000002,
                    "velocity": 0.2992125984251969,
                    "duration": 0.49085135416669345
                },
                {
                    "name": "A3",
                    "midi": 57,
                    "time": 333.36117500000205,
                    "velocity": 0.2440944881889764,
                    "duration": 0.49085135416669345
                },
                {
                    "name": "B3",
                    "midi": 59,
                    "time": 333.36117500000205,
                    "velocity": 0.2440944881889764,
                    "duration": 0.49085135416669345
                },
                {
                    "name": "F#4",
                    "midi": 66,
                    "time": 333.36117500000205,
                    "velocity": 0.2440944881889764,
                    "duration": 0.49085135416669345
                },
                {
                    "name": "A3",
                    "midi": 57,
                    "time": 333.8624700000021,
                    "velocity": 0.29133858267716534,
                    "duration": 0.49085135416669345
                },
                {
                    "name": "B3",
                    "midi": 59,
                    "time": 333.8624700000021,
                    "velocity": 0.29133858267716534,
                    "duration": 0.49085135416669345
                },
                {
                    "name": "E4",
                    "midi": 64,
                    "time": 333.8624700000021,
                    "velocity": 0.29133858267716534,
                    "duration": 0.49085135416669345
                },
                {
                    "name": "A3",
                    "midi": 57,
                    "time": 334.3637650000021,
                    "velocity": 0.2283464566929134,
                    "duration": 0.49085135416669345
                },
                {
                    "name": "F#4",
                    "midi": 66,
                    "time": 334.3637650000021,
                    "velocity": 0.2283464566929134,
                    "duration": 0.49085135416669345
                },
                {
                    "name": "B3",
                    "midi": 59,
                    "time": 334.3637650000021,
                    "velocity": 0.2283464566929134,
                    "duration": 0.49085135416669345
                },
                {
                    "name": "G#3",
                    "midi": 56,
                    "time": 334.86506000000213,
                    "velocity": 0.28346456692913385,
                    "duration": 0.9608154166666623
                },
                {
                    "name": "B3",
                    "midi": 59,
                    "time": 334.86506000000213,
                    "velocity": 0.28346456692913385,
                    "duration": 0.9608154166666623
                },
                {
                    "name": "G#3",
                    "midi": 56,
                    "time": 335.86765000000213,
                    "velocity": 0.1889763779527559,
                    "duration": 0.877266249999991
                },
                {
                    "name": "E4",
                    "midi": 64,
                    "time": 335.86765000000213,
                    "velocity": 0.2283464566929134,
                    "duration": 0.877266249999991
                },
                {
                    "name": "G#3",
                    "midi": 56,
                    "time": 336.8702400000021,
                    "velocity": 0.36220472440944884,
                    "duration": 0.49085135416669345
                },
                {
                    "name": "E4",
                    "midi": 64,
                    "time": 336.8702400000021,
                    "velocity": 0.36220472440944884,
                    "duration": 0.49085135416669345
                },
                {
                    "name": "G#3",
                    "midi": 56,
                    "time": 337.37153500000215,
                    "velocity": 0.28346456692913385,
                    "duration": 0.49085135416669345
                },
                {
                    "name": "G#4",
                    "midi": 68,
                    "time": 337.37153500000215,
                    "velocity": 0.28346456692913385,
                    "duration": 0.49085135416669345
                },
                {
                    "name": "F#4",
                    "midi": 66,
                    "time": 337.8728300000022,
                    "velocity": 0.3543307086614173,
                    "duration": 0.49085135416669345
                },
                {
                    "name": "G#3",
                    "midi": 56,
                    "time": 337.8728300000022,
                    "velocity": 0.3543307086614173,
                    "duration": 0.49085135416669345
                },
                {
                    "name": "G#3",
                    "midi": 56,
                    "time": 338.3741250000022,
                    "velocity": 0.30708661417322836,
                    "duration": 0.49085135416669345
                },
                {
                    "name": "G#4",
                    "midi": 68,
                    "time": 338.3741250000022,
                    "velocity": 0.30708661417322836,
                    "duration": 0.49085135416669345
                },
                {
                    "name": "A3",
                    "midi": 57,
                    "time": 338.87542000000224,
                    "velocity": 0.33070866141732286,
                    "duration": 0.9608154166666623
                },
                {
                    "name": "A4",
                    "midi": 69,
                    "time": 338.87542000000224,
                    "velocity": 0.33070866141732286,
                    "duration": 0.9608154166666623
                },
                {
                    "name": "E4",
                    "midi": 64,
                    "time": 338.87542000000224,
                    "velocity": 0.33070866141732286,
                    "duration": 0.9608154166666623
                },
                {
                    "name": "A4",
                    "midi": 69,
                    "time": 339.87801000000223,
                    "velocity": 0.29133858267716534,
                    "duration": 0.877266249999991
                },
                {
                    "name": "A3",
                    "midi": 57,
                    "time": 339.87801000000223,
                    "velocity": 0.29133858267716534,
                    "duration": 0.877266249999991
                },
                {
                    "name": "E4",
                    "midi": 64,
                    "time": 339.87801000000223,
                    "velocity": 0.29133858267716534,
                    "duration": 0.877266249999991
                },
                {
                    "name": "A4",
                    "midi": 69,
                    "time": 340.88060000000223,
                    "velocity": 0.31496062992125984,
                    "duration": 0.9608154166666623
                },
                {
                    "name": "C#4",
                    "midi": 61,
                    "time": 340.88060000000223,
                    "velocity": 0.31496062992125984,
                    "duration": 0.9608154166666623
                },
                {
                    "name": "C#5",
                    "midi": 73,
                    "time": 340.88060000000223,
                    "velocity": 0.3779527559055118,
                    "duration": 0.9608154166666623
                },
                {
                    "name": "C#5",
                    "midi": 73,
                    "time": 341.88319000000223,
                    "velocity": 0.3779527559055118,
                    "duration": 0.9608154166667191
                },
                {
                    "name": "C#4",
                    "midi": 61,
                    "time": 341.88319000000223,
                    "velocity": 0.31496062992125984,
                    "duration": 0.49085135416669345
                },
                {
                    "name": "A4",
                    "midi": 69,
                    "time": 341.88319000000223,
                    "velocity": 0.31496062992125984,
                    "duration": 0.9608154166667191
                },
                {
                    "name": "E4",
                    "midi": 64,
                    "time": 342.8857800000023,
                    "velocity": 0.2677165354330709,
                    "duration": 0.9608154166666623
                },
                {
                    "name": "E5",
                    "midi": 76,
                    "time": 342.8857800000023,
                    "velocity": 0.31496062992125984,
                    "duration": 0.9608154166666623
                },
                {
                    "name": "G#4",
                    "midi": 68,
                    "time": 342.8857800000023,
                    "velocity": 0.2677165354330709,
                    "duration": 0.9608154166666623
                },
                {
                    "name": "G#4",
                    "midi": 68,
                    "time": 343.8883700000023,
                    "velocity": 0.18110236220472442,
                    "duration": 0.877266249999991
                },
                {
                    "name": "E4",
                    "midi": 64,
                    "time": 343.8883700000023,
                    "velocity": 0.18110236220472442,
                    "duration": 0.877266249999991
                },
                {
                    "name": "E5",
                    "midi": 76,
                    "time": 343.8883700000023,
                    "velocity": 0.2125984251968504,
                    "duration": 0.877266249999991
                },
                {
                    "name": "A4",
                    "midi": 69,
                    "time": 344.8909600000023,
                    "velocity": 0.2992125984251969,
                    "duration": 0.49085135416669345
                },
                {
                    "name": "F#5",
                    "midi": 78,
                    "time": 344.8909600000023,
                    "velocity": 0.2992125984251969,
                    "duration": 0.49085135416669345
                },
                {
                    "name": "D#4",
                    "midi": 63,
                    "time": 344.8909600000023,
                    "velocity": 0.2992125984251969,
                    "duration": 0.49085135416669345
                },
                {
                    "name": "D#5",
                    "midi": 75,
                    "time": 345.3922550000023,
                    "velocity": 0.2440944881889764,
                    "duration": 0.49085135416669345
                },
                {
                    "name": "A4",
                    "midi": 69,
                    "time": 345.3922550000023,
                    "velocity": 0.2440944881889764,
                    "duration": 0.49085135416669345
                },
                {
                    "name": "F#4",
                    "midi": 66,
                    "time": 345.3922550000023,
                    "velocity": 0.2440944881889764,
                    "duration": 0.49085135416669345
                },
                {
                    "name": "B4",
                    "midi": 71,
                    "time": 345.89355000000234,
                    "velocity": 0.28346456692913385,
                    "duration": 0.49085135416669345
                },
                {
                    "name": "F#4",
                    "midi": 66,
                    "time": 345.89355000000234,
                    "velocity": 0.28346456692913385,
                    "duration": 0.49085135416669345
                },
                {
                    "name": "A4",
                    "midi": 69,
                    "time": 346.39484500000236,
                    "velocity": 0.2440944881889764,
                    "duration": 0.49085135416669345
                },
                {
                    "name": "E4",
                    "midi": 64,
                    "time": 346.39484500000236,
                    "velocity": 0.2440944881889764,
                    "duration": 0.49085135416669345
                },
                {
                    "name": "E4",
                    "midi": 64,
                    "time": 346.8961400000024,
                    "velocity": 0.2283464566929134,
                    "duration": 0.9608154166666623
                },
                {
                    "name": "G#4",
                    "midi": 68,
                    "time": 346.8961400000024,
                    "velocity": 0.2755905511811024,
                    "duration": 0.9608154166666623
                },
                {
                    "name": "E4",
                    "midi": 64,
                    "time": 347.8987300000024,
                    "velocity": 0.14960629921259844,
                    "duration": 0.877266249999991
                },
                {
                    "name": "G#4",
                    "midi": 68,
                    "time": 347.8987300000024,
                    "velocity": 0.18110236220472442,
                    "duration": 0.877266249999991
                },
                {
                    "name": "F#5",
                    "midi": 78,
                    "time": 348.9013200000024,
                    "velocity": 0.29133858267716534,
                    "duration": 0.49085135416669345
                },
                {
                    "name": "A4",
                    "midi": 69,
                    "time": 348.9013200000024,
                    "velocity": 0.29133858267716534,
                    "duration": 0.49085135416669345
                },
                {
                    "name": "D#4",
                    "midi": 63,
                    "time": 348.9013200000024,
                    "velocity": 0.29133858267716534,
                    "duration": 0.49085135416669345
                },
                {
                    "name": "F#4",
                    "midi": 66,
                    "time": 349.4026150000024,
                    "velocity": 0.23622047244094488,
                    "duration": 0.49085135416669345
                },
                {
                    "name": "D#5",
                    "midi": 75,
                    "time": 349.4026150000024,
                    "velocity": 0.23622047244094488,
                    "duration": 0.49085135416669345
                },
                {
                    "name": "A4",
                    "midi": 69,
                    "time": 349.4026150000024,
                    "velocity": 0.23622047244094488,
                    "duration": 0.49085135416669345
                },
                {
                    "name": "F#4",
                    "midi": 66,
                    "time": 349.90391000000244,
                    "velocity": 0.2755905511811024,
                    "duration": 0.49085135416669345
                },
                {
                    "name": "B4",
                    "midi": 71,
                    "time": 349.90391000000244,
                    "velocity": 0.2755905511811024,
                    "duration": 0.49085135416669345
                },
                {
                    "name": "E4",
                    "midi": 64,
                    "time": 350.40520500000247,
                    "velocity": 0.23622047244094488,
                    "duration": 0.49085135416669345
                },
                {
                    "name": "A4",
                    "midi": 69,
                    "time": 350.40520500000247,
                    "velocity": 0.23622047244094488,
                    "duration": 0.49085135416669345
                },
                {
                    "name": "E4",
                    "midi": 64,
                    "time": 350.9065000000025,
                    "velocity": 0.2283464566929134,
                    "duration": 0.9608154166666623
                },
                {
                    "name": "G#4",
                    "midi": 68,
                    "time": 350.9065000000025,
                    "velocity": 0.2755905511811024,
                    "duration": 0.9608154166666623
                },
                {
                    "name": "E4",
                    "midi": 64,
                    "time": 351.9090900000025,
                    "velocity": 0.14960629921259844,
                    "duration": 0.877266249999991
                },
                {
                    "name": "G#4",
                    "midi": 68,
                    "time": 351.9090900000025,
                    "velocity": 0.18110236220472442,
                    "duration": 0.877266249999991
                },
                {
                    "name": "E4",
                    "midi": 64,
                    "time": 352.9116800000025,
                    "velocity": 0.2755905511811024,
                    "duration": 0.49085135416669345
                },
                {
                    "name": "E4",
                    "midi": 64,
                    "time": 353.4129750000025,
                    "velocity": 0.2047244094488189,
                    "duration": 0.49085135416669345
                },
                {
                    "name": "G#4",
                    "midi": 68,
                    "time": 353.4129750000025,
                    "velocity": 0.2440944881889764,
                    "duration": 0.49085135416669345
                },
                {
                    "name": "E4",
                    "midi": 64,
                    "time": 353.91427000000255,
                    "velocity": 0.2283464566929134,
                    "duration": 0.49085135416669345
                },
                {
                    "name": "F#4",
                    "midi": 66,
                    "time": 353.91427000000255,
                    "velocity": 0.2755905511811024,
                    "duration": 0.49085135416669345
                },
                {
                    "name": "G#4",
                    "midi": 68,
                    "time": 354.4155650000026,
                    "velocity": 0.25984251968503935,
                    "duration": 0.49085135416669345
                },
                {
                    "name": "E4",
                    "midi": 64,
                    "time": 354.4155650000026,
                    "velocity": 0.2125984251968504,
                    "duration": 0.49085135416669345
                },
                {
                    "name": "E4",
                    "midi": 64,
                    "time": 354.9168600000026,
                    "velocity": 0.2204724409448819,
                    "duration": 0.9608154166666623
                },
                {
                    "name": "B4",
                    "midi": 71,
                    "time": 354.9168600000026,
                    "velocity": 0.2677165354330709,
                    "duration": 0.9608154166666623
                },
                {
                    "name": "E4",
                    "midi": 64,
                    "time": 355.9194500000026,
                    "velocity": 0.14173228346456693,
                    "duration": 0.2506475000000137
                },
                {
                    "name": "A#4",
                    "midi": 70,
                    "time": 355.9194500000026,
                    "velocity": 0.1889763779527559,
                    "duration": 0.2506475000000137
                },
                {
                    "name": "E5",
                    "midi": 76,
                    "time": 356.9220400000026,
                    "velocity": 0.3228346456692913,
                    "duration": 0.9608154166666623
                },
                {
                    "name": "B5",
                    "midi": 83,
                    "time": 356.9220400000026,
                    "velocity": 0.3228346456692913,
                    "duration": 0.9608154166666623
                },
                {
                    "name": "E6",
                    "midi": 88,
                    "time": 356.9220400000026,
                    "velocity": 0.3228346456692913,
                    "duration": 0.9608154166666623
                },
                {
                    "name": "E5",
                    "midi": 76,
                    "time": 357.9246300000026,
                    "velocity": 0.1968503937007874,
                    "duration": 0.45952041666669174
                },
                {
                    "name": "E6",
                    "midi": 88,
                    "time": 357.9246300000026,
                    "velocity": 0.1968503937007874,
                    "duration": 0.45952041666669174
                },
                {
                    "name": "A5",
                    "midi": 81,
                    "time": 357.9246300000026,
                    "velocity": 0.1968503937007874,
                    "duration": 0.45952041666669174
                },
                {
                    "name": "E4",
                    "midi": 64,
                    "time": 358.9272200000026,
                    "velocity": 0.2677165354330709,
                    "duration": 0.9608154166666623
                },
                {
                    "name": "A4",
                    "midi": 69,
                    "time": 358.9272200000026,
                    "velocity": 0.2677165354330709,
                    "duration": 0.9608154166666623
                },
                {
                    "name": "E4",
                    "midi": 64,
                    "time": 359.9298100000026,
                    "velocity": 0.1889763779527559,
                    "duration": 0.45952041666669174
                },
                {
                    "name": "G#4",
                    "midi": 68,
                    "time": 359.9298100000026,
                    "velocity": 0.1889763779527559,
                    "duration": 0.45952041666669174
                },
                {
                    "name": "E5",
                    "midi": 76,
                    "time": 360.9324000000026,
                    "velocity": 0.33070866141732286,
                    "duration": 0.9608154166666623
                },
                {
                    "name": "E6",
                    "midi": 88,
                    "time": 360.9324000000026,
                    "velocity": 0.33070866141732286,
                    "duration": 0.9608154166666623
                },
                {
                    "name": "A5",
                    "midi": 81,
                    "time": 360.9324000000026,
                    "velocity": 0.33070866141732286,
                    "duration": 0.9608154166666623
                },
                {
                    "name": "E5",
                    "midi": 76,
                    "time": 361.9349900000026,
                    "velocity": 0.1968503937007874,
                    "duration": 0.45952041666669174
                },
                {
                    "name": "G5",
                    "midi": 79,
                    "time": 361.9349900000026,
                    "velocity": 0.1968503937007874,
                    "duration": 0.45952041666669174
                },
                {
                    "name": "E6",
                    "midi": 88,
                    "time": 361.9349900000026,
                    "velocity": 0.1968503937007874,
                    "duration": 0.45952041666669174
                },
                {
                    "name": "C4",
                    "midi": 60,
                    "time": 362.9375800000026,
                    "velocity": 0.6141732283464567,
                    "duration": 0.9608154166666623
                },
                {
                    "name": "F#4",
                    "midi": 66,
                    "time": 362.9375800000026,
                    "velocity": 0.6771653543307087,
                    "duration": 0.9608154166666623
                },
                {
                    "name": "E4",
                    "midi": 64,
                    "time": 362.9375800000026,
                    "velocity": 0.6771653543307087,
                    "duration": 0.9608154166666623
                },
                {
                    "name": "F#3",
                    "midi": 54,
                    "time": 362.9375800000026,
                    "velocity": 0.6141732283464567,
                    "duration": 0.9608154166666623
                },
                {
                    "name": "F#3",
                    "midi": 54,
                    "time": 363.9401700000026,
                    "velocity": 0.4645669291338583,
                    "duration": 0.45952041666669174
                },
                {
                    "name": "E4",
                    "midi": 64,
                    "time": 363.9401700000026,
                    "velocity": 0.5275590551181102,
                    "duration": 0.45952041666669174
                },
                {
                    "name": "C4",
                    "midi": 60,
                    "time": 363.9401700000026,
                    "velocity": 0.4645669291338583,
                    "duration": 0.45952041666669174
                },
                {
                    "name": "F#4",
                    "midi": 66,
                    "time": 363.9401700000026,
                    "velocity": 0.5275590551181102,
                    "duration": 0.45952041666669174
                },
                {
                    "name": "C#5",
                    "midi": 73,
                    "time": 364.9427600000026,
                    "velocity": 0.36220472440944884,
                    "duration": 0.49085135416669345
                },
                {
                    "name": "E5",
                    "midi": 76,
                    "time": 364.9427600000026,
                    "velocity": 0.36220472440944884,
                    "duration": 0.49085135416669345
                },
                {
                    "name": "F#5",
                    "midi": 78,
                    "time": 364.9427600000026,
                    "velocity": 0.4330708661417323,
                    "duration": 0.49085135416669345
                },
                {
                    "name": "E5",
                    "midi": 76,
                    "time": 365.4440550000026,
                    "velocity": 0.29133858267716534,
                    "duration": 0.49085135416669345
                },
                {
                    "name": "G#5",
                    "midi": 80,
                    "time": 365.4440550000026,
                    "velocity": 0.36220472440944884,
                    "duration": 0.49085135416669345
                },
                {
                    "name": "B4",
                    "midi": 71,
                    "time": 365.4440550000026,
                    "velocity": 0.29133858267716534,
                    "duration": 0.49085135416669345
                },
                {
                    "name": "A5",
                    "midi": 81,
                    "time": 365.94535000000263,
                    "velocity": 0.3937007874015748,
                    "duration": 0.49085135416669345
                },
                {
                    "name": "A4",
                    "midi": 69,
                    "time": 365.94535000000263,
                    "velocity": 0.33070866141732286,
                    "duration": 0.49085135416669345
                },
                {
                    "name": "E5",
                    "midi": 76,
                    "time": 365.94535000000263,
                    "velocity": 0.33070866141732286,
                    "duration": 0.49085135416669345
                },
                {
                    "name": "E5",
                    "midi": 76,
                    "time": 366.44664500000266,
                    "velocity": 0.29133858267716534,
                    "duration": 0.49085135416669345
                },
                {
                    "name": "G#5",
                    "midi": 80,
                    "time": 366.44664500000266,
                    "velocity": 0.36220472440944884,
                    "duration": 0.49085135416669345
                },
                {
                    "name": "B4",
                    "midi": 71,
                    "time": 366.44664500000266,
                    "velocity": 0.29133858267716534,
                    "duration": 0.49085135416669345
                },
                {
                    "name": "E5",
                    "midi": 76,
                    "time": 366.9479400000027,
                    "velocity": 0.3937007874015748,
                    "duration": 0.9608154166666623
                },
                {
                    "name": "B4",
                    "midi": 71,
                    "time": 366.9479400000027,
                    "velocity": 0.3937007874015748,
                    "duration": 0.9608154166666623
                },
                {
                    "name": "B5",
                    "midi": 83,
                    "time": 366.9479400000027,
                    "velocity": 0.3937007874015748,
                    "duration": 0.9608154166666623
                },
                {
                    "name": "B5",
                    "midi": 83,
                    "time": 367.9505300000027,
                    "velocity": 0.2047244094488189,
                    "duration": 0.45952041666669174
                },
                {
                    "name": "B4",
                    "midi": 71,
                    "time": 367.9505300000027,
                    "velocity": 0.2047244094488189,
                    "duration": 0.45952041666669174
                },
                {
                    "name": "D#5",
                    "midi": 75,
                    "time": 367.9505300000027,
                    "velocity": 0.25984251968503935,
                    "duration": 0.45952041666669174
                },
                {
                    "name": "E4",
                    "midi": 64,
                    "time": 368.9531200000027,
                    "velocity": 0.23622047244094488,
                    "duration": 0.9608154166666623
                },
                {
                    "name": "G#4",
                    "midi": 68,
                    "time": 368.9531200000027,
                    "velocity": 0.29133858267716534,
                    "duration": 0.9608154166666623
                },
                {
                    "name": "G#4",
                    "midi": 68,
                    "time": 369.9557100000027,
                    "velocity": 0.18110236220472442,
                    "duration": 0.45952041666669174
                },
                {
                    "name": "E4",
                    "midi": 64,
                    "time": 369.9557100000027,
                    "velocity": 0.18110236220472442,
                    "duration": 0.45952041666669174
                },
                {
                    "name": "F#3",
                    "midi": 54,
                    "time": 370.9583000000027,
                    "velocity": 0.6220472440944882,
                    "duration": 0.9608154166666623
                },
                {
                    "name": "F#4",
                    "midi": 66,
                    "time": 370.9583000000027,
                    "velocity": 0.7007874015748031,
                    "duration": 0.9608154166666623
                },
                {
                    "name": "C4",
                    "midi": 60,
                    "time": 370.9583000000027,
                    "velocity": 0.6220472440944882,
                    "duration": 0.9608154166666623
                },
                {
                    "name": "E4",
                    "midi": 64,
                    "time": 370.9583000000027,
                    "velocity": 0.7007874015748031,
                    "duration": 0.9608154166666623
                },
                {
                    "name": "F#3",
                    "midi": 54,
                    "time": 371.9608900000027,
                    "velocity": 0.4645669291338583,
                    "duration": 0.45952041666669174
                },
                {
                    "name": "C4",
                    "midi": 60,
                    "time": 371.9608900000027,
                    "velocity": 0.4645669291338583,
                    "duration": 0.45952041666669174
                },
                {
                    "name": "F#4",
                    "midi": 66,
                    "time": 371.9608900000027,
                    "velocity": 0.5275590551181102,
                    "duration": 0.45952041666669174
                },
                {
                    "name": "E4",
                    "midi": 64,
                    "time": 371.9608900000027,
                    "velocity": 0.5275590551181102,
                    "duration": 0.45952041666669174
                },
                {
                    "name": "E5",
                    "midi": 76,
                    "time": 372.9634800000027,
                    "velocity": 0.36220472440944884,
                    "duration": 0.49085135416669345
                },
                {
                    "name": "F#5",
                    "midi": 78,
                    "time": 372.9634800000027,
                    "velocity": 0.4330708661417323,
                    "duration": 0.49085135416669345
                },
                {
                    "name": "C#5",
                    "midi": 73,
                    "time": 372.9634800000027,
                    "velocity": 0.36220472440944884,
                    "duration": 0.49085135416669345
                },
                {
                    "name": "B4",
                    "midi": 71,
                    "time": 373.4647750000027,
                    "velocity": 0.3228346456692913,
                    "duration": 0.49085135416669345
                },
                {
                    "name": "G#5",
                    "midi": 80,
                    "time": 373.4647750000027,
                    "velocity": 0.3858267716535433,
                    "duration": 0.49085135416669345
                },
                {
                    "name": "E5",
                    "midi": 76,
                    "time": 373.4647750000027,
                    "velocity": 0.3228346456692913,
                    "duration": 0.49085135416669345
                },
                {
                    "name": "A4",
                    "midi": 69,
                    "time": 373.96607000000273,
                    "velocity": 0.3464566929133858,
                    "duration": 0.49085135416669345
                },
                {
                    "name": "E5",
                    "midi": 76,
                    "time": 373.96607000000273,
                    "velocity": 0.3464566929133858,
                    "duration": 0.49085135416669345
                },
                {
                    "name": "A5",
                    "midi": 81,
                    "time": 373.96607000000273,
                    "velocity": 0.41732283464566927,
                    "duration": 0.49085135416669345
                },
                {
                    "name": "B4",
                    "midi": 71,
                    "time": 374.46736500000276,
                    "velocity": 0.30708661417322836,
                    "duration": 0.49085135416669345
                },
                {
                    "name": "E5",
                    "midi": 76,
                    "time": 374.46736500000276,
                    "velocity": 0.30708661417322836,
                    "duration": 0.49085135416669345
                },
                {
                    "name": "G#5",
                    "midi": 80,
                    "time": 374.46736500000276,
                    "velocity": 0.3700787401574803,
                    "duration": 0.49085135416669345
                },
                {
                    "name": "B5",
                    "midi": 83,
                    "time": 374.9686600000028,
                    "velocity": 0.3937007874015748,
                    "duration": 0.9608154166666623
                },
                {
                    "name": "B4",
                    "midi": 71,
                    "time": 374.9686600000028,
                    "velocity": 0.33070866141732286,
                    "duration": 0.9608154166666623
                },
                {
                    "name": "E5",
                    "midi": 76,
                    "time": 374.9686600000028,
                    "velocity": 0.3937007874015748,
                    "duration": 0.9608154166666623
                },
                {
                    "name": "B4",
                    "midi": 71,
                    "time": 375.9712500000028,
                    "velocity": 0.2047244094488189,
                    "duration": 0.45952041666669174
                },
                {
                    "name": "B5",
                    "midi": 83,
                    "time": 375.9712500000028,
                    "velocity": 0.2125984251968504,
                    "duration": 0.45952041666669174
                },
                {
                    "name": "D#5",
                    "midi": 75,
                    "time": 375.9712500000028,
                    "velocity": 0.25984251968503935,
                    "duration": 0.45952041666669174
                },
                {
                    "name": "E4",
                    "midi": 64,
                    "time": 376.9738400000028,
                    "velocity": 0.8188976377952756,
                    "duration": 0.9608154166666623
                },
                {
                    "name": "E3",
                    "midi": 52,
                    "time": 376.9738400000028,
                    "velocity": 0.8188976377952756,
                    "duration": 0.9608154166666623
                },
                {
                    "name": "E3",
                    "midi": 52,
                    "time": 377.9764300000028,
                    "velocity": 0.5826771653543307,
                    "duration": 0.45952041666669174
                },
                {
                    "name": "E4",
                    "midi": 64,
                    "time": 377.9764300000028,
                    "velocity": 0.6535433070866141,
                    "duration": 0.45952041666669174
                },
                {
                    "name": "G#3",
                    "midi": 56,
                    "time": 378.9790200000028,
                    "velocity": 0.28346456692913385,
                    "duration": 0.49085135416669345
                },
                {
                    "name": "B3",
                    "midi": 59,
                    "time": 378.9790200000028,
                    "velocity": 0.28346456692913385,
                    "duration": 0.49085135416669345
                },
                {
                    "name": "G#3",
                    "midi": 56,
                    "time": 379.4803150000028,
                    "velocity": 0.23622047244094488,
                    "duration": 0.49085135416669345
                },
                {
                    "name": "G#4",
                    "midi": 68,
                    "time": 379.4803150000028,
                    "velocity": 0.23622047244094488,
                    "duration": 0.49085135416669345
                },
                {
                    "name": "F#4",
                    "midi": 66,
                    "time": 379.98161000000283,
                    "velocity": 0.29133858267716534,
                    "duration": 0.49085135416669345
                },
                {
                    "name": "G#3",
                    "midi": 56,
                    "time": 379.98161000000283,
                    "velocity": 0.29133858267716534,
                    "duration": 0.49085135416669345
                },
                {
                    "name": "G#3",
                    "midi": 56,
                    "time": 380.48290500000286,
                    "velocity": 0.23622047244094488,
                    "duration": 0.49085135416669345
                },
                {
                    "name": "G#4",
                    "midi": 68,
                    "time": 380.48290500000286,
                    "velocity": 0.23622047244094488,
                    "duration": 0.49085135416669345
                },
                {
                    "name": "B4",
                    "midi": 71,
                    "time": 380.9842000000029,
                    "velocity": 0.30708661417322836,
                    "duration": 0.9608154166666623
                },
                {
                    "name": "G#4",
                    "midi": 68,
                    "time": 380.9842000000029,
                    "velocity": 0.30708661417322836,
                    "duration": 0.9608154166666623
                },
                {
                    "name": "C4",
                    "midi": 60,
                    "time": 380.9842000000029,
                    "velocity": 0.1889763779527559,
                    "duration": 0.9608154166666623
                },
                {
                    "name": "A4",
                    "midi": 69,
                    "time": 381.9867900000029,
                    "velocity": 0.18110236220472442,
                    "duration": 0.2506475000000137
                },
                {
                    "name": "C4",
                    "midi": 60,
                    "time": 381.9867900000029,
                    "velocity": 0.1732283464566929,
                    "duration": 0.2506475000000137
                },
                {
                    "name": "F#4",
                    "midi": 66,
                    "time": 381.9867900000029,
                    "velocity": 0.18110236220472442,
                    "duration": 0.2506475000000137
                },
                {
                    "name": "B3",
                    "midi": 59,
                    "time": 382.9893800000029,
                    "velocity": 0.2283464566929134,
                    "duration": 0.9608154166666623
                },
                {
                    "name": "G#4",
                    "midi": 68,
                    "time": 382.9893800000029,
                    "velocity": 0.30708661417322836,
                    "duration": 0.9608154166666623
                },
                {
                    "name": "B4",
                    "midi": 71,
                    "time": 382.9893800000029,
                    "velocity": 0.30708661417322836,
                    "duration": 0.9608154166666623
                },
                {
                    "name": "B3",
                    "midi": 59,
                    "time": 383.9919700000029,
                    "velocity": 0.14960629921259844,
                    "duration": 0.2506475000000137
                },
                {
                    "name": "F#4",
                    "midi": 66,
                    "time": 383.9919700000029,
                    "velocity": 0.18110236220472442,
                    "duration": 0.2506475000000137
                },
                {
                    "name": "A4",
                    "midi": 69,
                    "time": 383.9919700000029,
                    "velocity": 0.18110236220472442,
                    "duration": 0.2506475000000137
                },
                {
                    "name": "E4",
                    "midi": 64,
                    "time": 384.9945600000029,
                    "velocity": 0.8267716535433071,
                    "duration": 0.9608154166666623
                },
                {
                    "name": "E5",
                    "midi": 76,
                    "time": 384.9945600000029,
                    "velocity": 0.8267716535433071,
                    "duration": 0.9608154166666623
                },
                {
                    "name": "E4",
                    "midi": 64,
                    "time": 385.9971500000029,
                    "velocity": 0.48031496062992124,
                    "duration": 0.45952041666669174
                },
                {
                    "name": "E5",
                    "midi": 76,
                    "time": 385.9971500000029,
                    "velocity": 0.5433070866141733,
                    "duration": 0.45952041666669174
                },
                {
                    "name": "G#3",
                    "midi": 56,
                    "time": 386.9997400000029,
                    "velocity": 0.2992125984251969,
                    "duration": 0.49085135416669345
                },
                {
                    "name": "B3",
                    "midi": 59,
                    "time": 386.9997400000029,
                    "velocity": 0.2992125984251969,
                    "duration": 0.49085135416669345
                },
                {
                    "name": "G#4",
                    "midi": 68,
                    "time": 387.5010350000029,
                    "velocity": 0.2440944881889764,
                    "duration": 0.49085135416669345
                },
                {
                    "name": "G#3",
                    "midi": 56,
                    "time": 387.5010350000029,
                    "velocity": 0.2440944881889764,
                    "duration": 0.49085135416669345
                },
                {
                    "name": "G#3",
                    "midi": 56,
                    "time": 388.0023300000029,
                    "velocity": 0.2992125984251969,
                    "duration": 0.49085135416669345
                },
                {
                    "name": "F#4",
                    "midi": 66,
                    "time": 388.0023300000029,
                    "velocity": 0.2992125984251969,
                    "duration": 0.49085135416669345
                },
                {
                    "name": "G#3",
                    "midi": 56,
                    "time": 388.50362500000296,
                    "velocity": 0.2440944881889764,
                    "duration": 0.49085135416669345
                },
                {
                    "name": "G#4",
                    "midi": 68,
                    "time": 388.50362500000296,
                    "velocity": 0.2440944881889764,
                    "duration": 0.49085135416669345
                },
                {
                    "name": "C#4",
                    "midi": 61,
                    "time": 389.004920000003,
                    "velocity": 0.29133858267716534,
                    "duration": 0.9608154166666623
                },
                {
                    "name": "C#5",
                    "midi": 73,
                    "time": 389.004920000003,
                    "velocity": 0.3464566929133858,
                    "duration": 0.9608154166666623
                },
                {
                    "name": "A4",
                    "midi": 69,
                    "time": 389.004920000003,
                    "velocity": 0.3464566929133858,
                    "duration": 0.9608154166666623
                },
                {
                    "name": "C#4",
                    "midi": 61,
                    "time": 390.007510000003,
                    "velocity": 0.14960629921259844,
                    "duration": 0.2506475000000137
                },
                {
                    "name": "A4",
                    "midi": 69,
                    "time": 390.007510000003,
                    "velocity": 0.18110236220472442,
                    "duration": 0.2506475000000137
                },
                {
                    "name": "F#4",
                    "midi": 66,
                    "time": 390.007510000003,
                    "velocity": 0.18110236220472442,
                    "duration": 0.2506475000000137
                },
                {
                    "name": "B3",
                    "midi": 59,
                    "time": 391.010100000003,
                    "velocity": 0.2755905511811024,
                    "duration": 0.9608154166666623
                },
                {
                    "name": "B4",
                    "midi": 71,
                    "time": 391.010100000003,
                    "velocity": 0.3228346456692913,
                    "duration": 0.9608154166666623
                },
                {
                    "name": "G#4",
                    "midi": 68,
                    "time": 391.010100000003,
                    "velocity": 0.3228346456692913,
                    "duration": 0.9608154166666623
                },
                {
                    "name": "A4",
                    "midi": 69,
                    "time": 392.012690000003,
                    "velocity": 0.1968503937007874,
                    "duration": 0.2506475000000137
                },
                {
                    "name": "B3",
                    "midi": 59,
                    "time": 392.012690000003,
                    "velocity": 0.1889763779527559,
                    "duration": 0.2506475000000137
                },
                {
                    "name": "F#4",
                    "midi": 66,
                    "time": 392.012690000003,
                    "velocity": 0.1968503937007874,
                    "duration": 0.2506475000000137
                },
                {
                    "name": "E4",
                    "midi": 64,
                    "time": 393.015280000003,
                    "velocity": 0.2755905511811024,
                    "duration": 0.9608154166666623
                },
                {
                    "name": "A4",
                    "midi": 69,
                    "time": 393.015280000003,
                    "velocity": 0.3228346456692913,
                    "duration": 0.9608154166666623
                },
                {
                    "name": "B3",
                    "midi": 59,
                    "time": 393.015280000003,
                    "velocity": 0.2755905511811024,
                    "duration": 0.9608154166666623
                },
                {
                    "name": "E4",
                    "midi": 64,
                    "time": 394.017870000003,
                    "velocity": 0.18110236220472442,
                    "duration": 0.2506475000000137
                },
                {
                    "name": "G4",
                    "midi": 67,
                    "time": 394.017870000003,
                    "velocity": 0.1968503937007874,
                    "duration": 0.2506475000000137
                },
                {
                    "name": "B3",
                    "midi": 59,
                    "time": 394.017870000003,
                    "velocity": 0.18110236220472442,
                    "duration": 0.2506475000000137
                },
                {
                    "name": "C4",
                    "midi": 60,
                    "time": 395.02046000000297,
                    "velocity": 0.28346456692913385,
                    "duration": 0.9608154166666623
                },
                {
                    "name": "G4",
                    "midi": 67,
                    "time": 395.02046000000297,
                    "velocity": 0.33070866141732286,
                    "duration": 0.9608154166666623
                },
                {
                    "name": "A3",
                    "midi": 57,
                    "time": 395.02046000000297,
                    "velocity": 0.28346456692913385,
                    "duration": 0.9608154166666623
                },
                {
                    "name": "F4",
                    "midi": 65,
                    "time": 396.02305000000297,
                    "velocity": 0.1968503937007874,
                    "duration": 0.2506475000000137
                },
                {
                    "name": "C4",
                    "midi": 60,
                    "time": 396.02305000000297,
                    "velocity": 0.18110236220472442,
                    "duration": 0.2506475000000137
                },
                {
                    "name": "A3",
                    "midi": 57,
                    "time": 396.02305000000297,
                    "velocity": 0.1889763779527559,
                    "duration": 0.2506475000000137
                },
                {
                    "name": "G3",
                    "midi": 55,
                    "time": 397.02564000000297,
                    "velocity": 0.28346456692913385,
                    "duration": 0.9608154166666623
                },
                {
                    "name": "C4",
                    "midi": 60,
                    "time": 397.02564000000297,
                    "velocity": 0.28346456692913385,
                    "duration": 0.9608154166666623
                },
                {
                    "name": "F4",
                    "midi": 65,
                    "time": 397.02564000000297,
                    "velocity": 0.33070866141732286,
                    "duration": 0.9608154166666623
                },
                {
                    "name": "C4",
                    "midi": 60,
                    "time": 398.02823000000296,
                    "velocity": 0.18110236220472442,
                    "duration": 0.2506475000000137
                },
                {
                    "name": "G3",
                    "midi": 55,
                    "time": 398.02823000000296,
                    "velocity": 0.18110236220472442,
                    "duration": 0.2506475000000137
                },
                {
                    "name": "E4",
                    "midi": 64,
                    "time": 398.02823000000296,
                    "velocity": 0.1968503937007874,
                    "duration": 0.2506475000000137
                },
                {
                    "name": "A3",
                    "midi": 57,
                    "time": 399.03082000000296,
                    "velocity": 0.28346456692913385,
                    "duration": 0.9608154166666623
                },
                {
                    "name": "F3",
                    "midi": 53,
                    "time": 399.03082000000296,
                    "velocity": 0.28346456692913385,
                    "duration": 0.9608154166666623
                },
                {
                    "name": "E4",
                    "midi": 64,
                    "time": 399.03082000000296,
                    "velocity": 0.33070866141732286,
                    "duration": 0.9608154166666623
                },
                {
                    "name": "A3",
                    "midi": 57,
                    "time": 400.03341000000296,
                    "velocity": 0.1968503937007874,
                    "duration": 0.2506475000000137
                },
                {
                    "name": "D4",
                    "midi": 62,
                    "time": 400.03341000000296,
                    "velocity": 0.2283464566929134,
                    "duration": 0.2506475000000137
                },
                {
                    "name": "F3",
                    "midi": 53,
                    "time": 400.03341000000296,
                    "velocity": 0.1968503937007874,
                    "duration": 0.2506475000000137
                },
                {
                    "name": "E3",
                    "midi": 52,
                    "time": 401.03600000000296,
                    "velocity": 0.2755905511811024,
                    "duration": 0.9608154166666623
                },
                {
                    "name": "D4",
                    "midi": 62,
                    "time": 401.03600000000296,
                    "velocity": 0.3228346456692913,
                    "duration": 0.9608154166666623
                },
                {
                    "name": "A3",
                    "midi": 57,
                    "time": 401.03600000000296,
                    "velocity": 0.2755905511811024,
                    "duration": 0.9608154166666623
                },
                {
                    "name": "A3",
                    "midi": 57,
                    "time": 402.03859000000296,
                    "velocity": 0.15748031496062992,
                    "duration": 0.2506475000000137
                },
                {
                    "name": "C4",
                    "midi": 60,
                    "time": 402.03859000000296,
                    "velocity": 0.1968503937007874,
                    "duration": 0.2506475000000137
                },
                {
                    "name": "A3",
                    "midi": 57,
                    "time": 407.05154000000294,
                    "velocity": 0.2283464566929134,
                    "duration": 0.9608154166666623
                },
                {
                    "name": "B3",
                    "midi": 59,
                    "time": 407.05154000000294,
                    "velocity": 0.3228346456692913,
                    "duration": 0.9608154166666623
                },
                {
                    "name": "B3",
                    "midi": 59,
                    "time": 408.05413000000294,
                    "velocity": 0.1968503937007874,
                    "duration": 0.45952041666669174
                },
                {
                    "name": "G#3",
                    "midi": 56,
                    "time": 408.05413000000294,
                    "velocity": 0.1968503937007874,
                    "duration": 0.45952041666669174
                },
                {
                    "name": "C4",
                    "midi": 60,
                    "time": 413.067080000003,
                    "velocity": 0.28346456692913385,
                    "duration": 1.0025899999999979
                },
                {
                    "name": "A3",
                    "midi": 57,
                    "time": 414.069670000003,
                    "velocity": 0.25984251968503935,
                    "duration": 1.0025899999999979
                },
                {
                    "name": "A4",
                    "midi": 69,
                    "time": 414.069670000003,
                    "velocity": 0.25984251968503935,
                    "duration": 1.0025899999999979
                },
                {
                    "name": "G#3",
                    "midi": 56,
                    "time": 415.072260000003,
                    "velocity": 0.31496062992125984,
                    "duration": 1.0025899999999979
                },
                {
                    "name": "G#4",
                    "midi": 68,
                    "time": 415.072260000003,
                    "velocity": 0.31496062992125984,
                    "duration": 1.0025899999999979
                },
                {
                    "name": "A3",
                    "midi": 57,
                    "time": 416.074850000003,
                    "velocity": 0.29133858267716534,
                    "duration": 1.0025899999999979
                },
                {
                    "name": "A4",
                    "midi": 69,
                    "time": 416.074850000003,
                    "velocity": 0.29133858267716534,
                    "duration": 1.0025899999999979
                },
                {
                    "name": "A#3",
                    "midi": 58,
                    "time": 417.077440000003,
                    "velocity": 0.3700787401574803,
                    "duration": 1.0025899999999979
                },
                {
                    "name": "A#4",
                    "midi": 70,
                    "time": 417.077440000003,
                    "velocity": 0.3700787401574803,
                    "duration": 1.0025899999999979
                },
                {
                    "name": "A3",
                    "midi": 57,
                    "time": 418.080030000003,
                    "velocity": 0.3543307086614173,
                    "duration": 1.0025899999999979
                },
                {
                    "name": "A4",
                    "midi": 69,
                    "time": 418.080030000003,
                    "velocity": 0.3543307086614173,
                    "duration": 1.0025899999999979
                },
                {
                    "name": "D4",
                    "midi": 62,
                    "time": 419.082620000003,
                    "velocity": 0.49606299212598426,
                    "duration": 1.0025899999999979
                },
                {
                    "name": "D5",
                    "midi": 74,
                    "time": 419.082620000003,
                    "velocity": 0.49606299212598426,
                    "duration": 1.0025899999999979
                },
                {
                    "name": "C4",
                    "midi": 60,
                    "time": 420.085210000003,
                    "velocity": 0.48031496062992124,
                    "duration": 1.0025899999999979
                },
                {
                    "name": "C5",
                    "midi": 72,
                    "time": 420.085210000003,
                    "velocity": 0.48031496062992124,
                    "duration": 1.0025899999999979
                },
                {
                    "name": "G4",
                    "midi": 67,
                    "time": 421.08780000000297,
                    "velocity": 0.6062992125984252,
                    "duration": 1.0025899999999979
                },
                {
                    "name": "G5",
                    "midi": 79,
                    "time": 421.08780000000297,
                    "velocity": 0.6062992125984252,
                    "duration": 1.0025899999999979
                },
                {
                    "name": "F4",
                    "midi": 65,
                    "time": 422.09039000000297,
                    "velocity": 0.5748031496062992,
                    "duration": 1.0025899999999979
                },
                {
                    "name": "F5",
                    "midi": 77,
                    "time": 422.09039000000297,
                    "velocity": 0.5748031496062992,
                    "duration": 1.0025899999999979
                },
                {
                    "name": "A#4",
                    "midi": 70,
                    "time": 423.09298000000297,
                    "velocity": 0.7559055118110236,
                    "duration": 1.0025899999999979
                },
                {
                    "name": "A#5",
                    "midi": 82,
                    "time": 423.09298000000297,
                    "velocity": 0.7559055118110236,
                    "duration": 1.0025899999999979
                },
                {
                    "name": "A4",
                    "midi": 69,
                    "time": 424.09557000000297,
                    "velocity": 0.7322834645669292,
                    "duration": 1.0025899999999979
                },
                {
                    "name": "A5",
                    "midi": 81,
                    "time": 424.09557000000297,
                    "velocity": 0.7322834645669292,
                    "duration": 1.0025899999999979
                },
                {
                    "name": "D6",
                    "midi": 86,
                    "time": 425.09816000000296,
                    "velocity": 0.7952755905511811,
                    "duration": 1.0025899999999979
                },
                {
                    "name": "A5",
                    "midi": 81,
                    "time": 425.09816000000296,
                    "velocity": 0.7952755905511811,
                    "duration": 1.0025899999999979
                },
                {
                    "name": "F5",
                    "midi": 77,
                    "time": 425.09816000000296,
                    "velocity": 0.7086614173228346,
                    "duration": 1.0025899999999979
                },
                {
                    "name": "D5",
                    "midi": 74,
                    "time": 425.09816000000296,
                    "velocity": 0.7086614173228346,
                    "duration": 1.0025899999999979
                },
                {
                    "name": "A4",
                    "midi": 69,
                    "time": 426.10075000000296,
                    "velocity": 0.5984251968503937,
                    "duration": 0.20887291666667807
                },
                {
                    "name": "A5",
                    "midi": 81,
                    "time": 426.10075000000296,
                    "velocity": 0.6692913385826772,
                    "duration": 0.20887291666667807
                },
                {
                    "name": "E6",
                    "midi": 88,
                    "time": 427.10334000000296,
                    "velocity": 0.7952755905511811,
                    "duration": 1.0025899999999979
                },
                {
                    "name": "C#6",
                    "midi": 85,
                    "time": 427.10334000000296,
                    "velocity": 0.7952755905511811,
                    "duration": 1.0025899999999979
                },
                {
                    "name": "A5",
                    "midi": 81,
                    "time": 427.10334000000296,
                    "velocity": 0.7086614173228346,
                    "duration": 1.0025899999999979
                },
                {
                    "name": "E5",
                    "midi": 76,
                    "time": 427.10334000000296,
                    "velocity": 0.7086614173228346,
                    "duration": 1.0025899999999979
                },
                {
                    "name": "A4",
                    "midi": 69,
                    "time": 428.10593000000296,
                    "velocity": 0.5984251968503937,
                    "duration": 0.20887291666667807
                },
                {
                    "name": "A5",
                    "midi": 81,
                    "time": 428.10593000000296,
                    "velocity": 0.6692913385826772,
                    "duration": 0.20887291666667807
                },
                {
                    "name": "F6",
                    "midi": 89,
                    "time": 429.10852000000295,
                    "velocity": 0.7952755905511811,
                    "duration": 1.0025899999999979
                },
                {
                    "name": "D6",
                    "midi": 86,
                    "time": 429.10852000000295,
                    "velocity": 0.7952755905511811,
                    "duration": 1.0025899999999979
                },
                {
                    "name": "A5",
                    "midi": 81,
                    "time": 429.10852000000295,
                    "velocity": 0.7086614173228346,
                    "duration": 1.0025899999999979
                },
                {
                    "name": "F5",
                    "midi": 77,
                    "time": 429.10852000000295,
                    "velocity": 0.7086614173228346,
                    "duration": 1.0025899999999979
                },
                {
                    "name": "A4",
                    "midi": 69,
                    "time": 430.11111000000295,
                    "velocity": 0.5984251968503937,
                    "duration": 0.20887291666667807
                },
                {
                    "name": "A5",
                    "midi": 81,
                    "time": 430.11111000000295,
                    "velocity": 0.6692913385826772,
                    "duration": 0.20887291666667807
                },
                {
                    "name": "E6",
                    "midi": 88,
                    "time": 431.11370000000295,
                    "velocity": 0.8031496062992126,
                    "duration": 1.0025899999999979
                },
                {
                    "name": "C#6",
                    "midi": 85,
                    "time": 431.11370000000295,
                    "velocity": 0.8031496062992126,
                    "duration": 1.0025899999999979
                },
                {
                    "name": "A5",
                    "midi": 81,
                    "time": 431.11370000000295,
                    "velocity": 0.7165354330708661,
                    "duration": 1.0025899999999979
                },
                {
                    "name": "E5",
                    "midi": 76,
                    "time": 431.11370000000295,
                    "velocity": 0.7165354330708661,
                    "duration": 1.0025899999999979
                },
                {
                    "name": "A4",
                    "midi": 69,
                    "time": 432.11629000000295,
                    "velocity": 0.5984251968503937,
                    "duration": 0.20887291666667807
                },
                {
                    "name": "A5",
                    "midi": 81,
                    "time": 432.11629000000295,
                    "velocity": 0.6692913385826772,
                    "duration": 0.20887291666667807
                },
                {
                    "name": "D6",
                    "midi": 86,
                    "time": 433.11888000000295,
                    "velocity": 0.7952755905511811,
                    "duration": 1.0025899999999979
                },
                {
                    "name": "A5",
                    "midi": 81,
                    "time": 433.11888000000295,
                    "velocity": 0.7952755905511811,
                    "duration": 1.0025899999999979
                },
                {
                    "name": "F5",
                    "midi": 77,
                    "time": 433.11888000000295,
                    "velocity": 0.7086614173228346,
                    "duration": 1.0025899999999979
                },
                {
                    "name": "D5",
                    "midi": 74,
                    "time": 433.11888000000295,
                    "velocity": 0.7086614173228346,
                    "duration": 1.0025899999999979
                },
                {
                    "name": "A4",
                    "midi": 69,
                    "time": 434.12147000000294,
                    "velocity": 0.6535433070866141,
                    "duration": 0.20887291666667807
                },
                {
                    "name": "A5",
                    "midi": 81,
                    "time": 434.12147000000294,
                    "velocity": 0.7322834645669292,
                    "duration": 0.20887291666667807
                },
                {
                    "name": "E6",
                    "midi": 88,
                    "time": 435.12406000000294,
                    "velocity": 0.8188976377952756,
                    "duration": 1.0025899999999979
                },
                {
                    "name": "C#6",
                    "midi": 85,
                    "time": 435.12406000000294,
                    "velocity": 0.8188976377952756,
                    "duration": 1.0025899999999979
                },
                {
                    "name": "A5",
                    "midi": 81,
                    "time": 435.12406000000294,
                    "velocity": 0.7322834645669292,
                    "duration": 1.0025899999999979
                },
                {
                    "name": "E5",
                    "midi": 76,
                    "time": 435.12406000000294,
                    "velocity": 0.7322834645669292,
                    "duration": 1.0025899999999979
                },
                {
                    "name": "A4",
                    "midi": 69,
                    "time": 436.12665000000294,
                    "velocity": 0.6614173228346457,
                    "duration": 0.12532375000000684
                },
                {
                    "name": "A5",
                    "midi": 81,
                    "time": 436.12665000000294,
                    "velocity": 0.7401574803149606,
                    "duration": 0.12532375000000684
                },
                {
                    "name": "F6",
                    "midi": 89,
                    "time": 437.12924000000294,
                    "velocity": 0.7952755905511811,
                    "duration": 1.0025899999999979
                },
                {
                    "name": "D6",
                    "midi": 86,
                    "time": 437.12924000000294,
                    "velocity": 0.7952755905511811,
                    "duration": 1.0025899999999979
                },
                {
                    "name": "A5",
                    "midi": 81,
                    "time": 437.12924000000294,
                    "velocity": 0.7086614173228346,
                    "duration": 1.0025899999999979
                },
                {
                    "name": "F5",
                    "midi": 77,
                    "time": 437.12924000000294,
                    "velocity": 0.7086614173228346,
                    "duration": 1.0025899999999979
                },
                {
                    "name": "A4",
                    "midi": 69,
                    "time": 438.13183000000294,
                    "velocity": 0.6456692913385826,
                    "duration": 0.12532375000000684
                },
                {
                    "name": "A5",
                    "midi": 81,
                    "time": 438.13183000000294,
                    "velocity": 0.7244094488188977,
                    "duration": 0.12532375000000684
                },
                {
                    "name": "E6",
                    "midi": 88,
                    "time": 439.13442000000293,
                    "velocity": 0.8188976377952756,
                    "duration": 1.0025899999999979
                },
                {
                    "name": "C#6",
                    "midi": 85,
                    "time": 439.13442000000293,
                    "velocity": 0.8188976377952756,
                    "duration": 1.0025899999999979
                },
                {
                    "name": "A5",
                    "midi": 81,
                    "time": 439.13442000000293,
                    "velocity": 0.7322834645669292,
                    "duration": 1.0025899999999979
                },
                {
                    "name": "E5",
                    "midi": 76,
                    "time": 439.13442000000293,
                    "velocity": 0.7322834645669292,
                    "duration": 1.0025899999999979
                },
                {
                    "name": "A4",
                    "midi": 69,
                    "time": 440.13701000000293,
                    "velocity": 0.6535433070866141,
                    "duration": 0.12532375000000684
                },
                {
                    "name": "A5",
                    "midi": 81,
                    "time": 440.13701000000293,
                    "velocity": 0.7322834645669292,
                    "duration": 0.12532375000000684
                },
                {
                    "name": "F6",
                    "midi": 89,
                    "time": 441.13960000000293,
                    "velocity": 0.8267716535433071,
                    "duration": 1.0025899999999979
                },
                {
                    "name": "C6",
                    "midi": 84,
                    "time": 441.13960000000293,
                    "velocity": 0.8267716535433071,
                    "duration": 1.0025899999999979
                },
                {
                    "name": "A5",
                    "midi": 81,
                    "time": 441.13960000000293,
                    "velocity": 0.7401574803149606,
                    "duration": 1.0025899999999979
                },
                {
                    "name": "F5",
                    "midi": 77,
                    "time": 441.13960000000293,
                    "velocity": 0.7401574803149606,
                    "duration": 1.0025899999999979
                },
                {
                    "name": "C5",
                    "midi": 72,
                    "time": 442.1421900000029,
                    "velocity": 0.6456692913385826,
                    "duration": 0.12532375000000684
                },
                {
                    "name": "C6",
                    "midi": 84,
                    "time": 442.1421900000029,
                    "velocity": 0.7244094488188977,
                    "duration": 0.12532375000000684
                },
                {
                    "name": "G6",
                    "midi": 91,
                    "time": 443.1447800000029,
                    "velocity": 0.7874015748031497,
                    "duration": 1.0025899999999979
                },
                {
                    "name": "E6",
                    "midi": 88,
                    "time": 443.1447800000029,
                    "velocity": 0.7874015748031497,
                    "duration": 1.0025899999999979
                },
                {
                    "name": "C6",
                    "midi": 84,
                    "time": 443.1447800000029,
                    "velocity": 0.7086614173228346,
                    "duration": 1.0025899999999979
                },
                {
                    "name": "G5",
                    "midi": 79,
                    "time": 443.1447800000029,
                    "velocity": 0.7086614173228346,
                    "duration": 1.0025899999999979
                },
                {
                    "name": "C5",
                    "midi": 72,
                    "time": 444.1473700000029,
                    "velocity": 0.5984251968503937,
                    "duration": 0.12532375000000684
                },
                {
                    "name": "C6",
                    "midi": 84,
                    "time": 444.1473700000029,
                    "velocity": 0.6692913385826772,
                    "duration": 0.12532375000000684
                },
                {
                    "name": "A6",
                    "midi": 93,
                    "time": 445.1499600000029,
                    "velocity": 0.7874015748031497,
                    "duration": 1.0025899999999979
                },
                {
                    "name": "F6",
                    "midi": 89,
                    "time": 445.1499600000029,
                    "velocity": 0.7874015748031497,
                    "duration": 1.0025899999999979
                },
                {
                    "name": "C6",
                    "midi": 84,
                    "time": 445.1499600000029,
                    "velocity": 0.7086614173228346,
                    "duration": 1.0025899999999979
                },
                {
                    "name": "A5",
                    "midi": 81,
                    "time": 445.1499600000029,
                    "velocity": 0.7086614173228346,
                    "duration": 1.0025899999999979
                },
                {
                    "name": "C5",
                    "midi": 72,
                    "time": 446.1525500000029,
                    "velocity": 0.5984251968503937,
                    "duration": 0.12532375000000684
                },
                {
                    "name": "C6",
                    "midi": 84,
                    "time": 446.1525500000029,
                    "velocity": 0.6692913385826772,
                    "duration": 0.12532375000000684
                },
                {
                    "name": "G6",
                    "midi": 91,
                    "time": 447.1551400000029,
                    "velocity": 0.7559055118110236,
                    "duration": 1.0025899999999979
                },
                {
                    "name": "E6",
                    "midi": 88,
                    "time": 447.1551400000029,
                    "velocity": 0.7559055118110236,
                    "duration": 1.0025899999999979
                },
                {
                    "name": "C6",
                    "midi": 84,
                    "time": 447.1551400000029,
                    "velocity": 0.6771653543307087,
                    "duration": 1.0025899999999979
                },
                {
                    "name": "G5",
                    "midi": 79,
                    "time": 447.1551400000029,
                    "velocity": 0.6771653543307087,
                    "duration": 1.0025899999999979
                },
                {
                    "name": "C5",
                    "midi": 72,
                    "time": 448.1577300000029,
                    "velocity": 0.5984251968503937,
                    "duration": 0.12532375000000684
                },
                {
                    "name": "C6",
                    "midi": 84,
                    "time": 448.1577300000029,
                    "velocity": 0.6692913385826772,
                    "duration": 0.12532375000000684
                },
                {
                    "name": "A6",
                    "midi": 93,
                    "time": 449.1603200000029,
                    "velocity": 0.7637795275590551,
                    "duration": 0.3341966666666849
                },
                {
                    "name": "F6",
                    "midi": 89,
                    "time": 449.1603200000029,
                    "velocity": 0.7637795275590551,
                    "duration": 0.3341966666666849
                },
                {
                    "name": "C6",
                    "midi": 84,
                    "time": 449.1603200000029,
                    "velocity": 0.6850393700787402,
                    "duration": 0.3341966666666849
                },
                {
                    "name": "A5",
                    "midi": 81,
                    "time": 449.1603200000029,
                    "velocity": 0.6850393700787402,
                    "duration": 0.3341966666666849
                },
                {
                    "name": "F6",
                    "midi": 89,
                    "time": 449.53629125000293,
                    "velocity": 0.5511811023622047,
                    "duration": 0.08354916666667123
                },
                {
                    "name": "C6",
                    "midi": 84,
                    "time": 449.53629125000293,
                    "velocity": 0.5511811023622047,
                    "duration": 0.08354916666667123
                },
                {
                    "name": "A5",
                    "midi": 81,
                    "time": 449.53629125000293,
                    "velocity": 0.49606299212598426,
                    "duration": 0.08354916666667123
                },
                {
                    "name": "F5",
                    "midi": 77,
                    "time": 449.53629125000293,
                    "velocity": 0.49606299212598426,
                    "duration": 0.08354916666667123
                },
                {
                    "name": "F6",
                    "midi": 89,
                    "time": 449.66161500000294,
                    "velocity": 0.6141732283464567,
                    "duration": 0.3341966666666849
                },
                {
                    "name": "C6",
                    "midi": 84,
                    "time": 449.66161500000294,
                    "velocity": 0.6141732283464567,
                    "duration": 0.3341966666666849
                },
                {
                    "name": "A5",
                    "midi": 81,
                    "time": 449.66161500000294,
                    "velocity": 0.5511811023622047,
                    "duration": 0.3341966666666849
                },
                {
                    "name": "F5",
                    "midi": 77,
                    "time": 449.66161500000294,
                    "velocity": 0.5511811023622047,
                    "duration": 0.3341966666666849
                },
                {
                    "name": "C6",
                    "midi": 84,
                    "time": 450.03758625000296,
                    "velocity": 0.5511811023622047,
                    "duration": 0.08354916666667123
                },
                {
                    "name": "A5",
                    "midi": 81,
                    "time": 450.03758625000296,
                    "velocity": 0.5511811023622047,
                    "duration": 0.08354916666667123
                },
                {
                    "name": "F5",
                    "midi": 77,
                    "time": 450.03758625000296,
                    "velocity": 0.49606299212598426,
                    "duration": 0.08354916666667123
                },
                {
                    "name": "C5",
                    "midi": 72,
                    "time": 450.03758625000296,
                    "velocity": 0.49606299212598426,
                    "duration": 0.08354916666667123
                },
                {
                    "name": "C6",
                    "midi": 84,
                    "time": 450.16291000000297,
                    "velocity": 0.6141732283464567,
                    "duration": 0.3341966666666849
                },
                {
                    "name": "A5",
                    "midi": 81,
                    "time": 450.16291000000297,
                    "velocity": 0.6141732283464567,
                    "duration": 0.3341966666666849
                },
                {
                    "name": "F5",
                    "midi": 77,
                    "time": 450.16291000000297,
                    "velocity": 0.5511811023622047,
                    "duration": 0.3341966666666849
                },
                {
                    "name": "C5",
                    "midi": 72,
                    "time": 450.16291000000297,
                    "velocity": 0.5511811023622047,
                    "duration": 0.3341966666666849
                },
                {
                    "name": "A5",
                    "midi": 81,
                    "time": 450.538881250003,
                    "velocity": 0.5511811023622047,
                    "duration": 0.08354916666667123
                },
                {
                    "name": "F5",
                    "midi": 77,
                    "time": 450.538881250003,
                    "velocity": 0.5511811023622047,
                    "duration": 0.08354916666667123
                },
                {
                    "name": "C5",
                    "midi": 72,
                    "time": 450.538881250003,
                    "velocity": 0.49606299212598426,
                    "duration": 0.08354916666667123
                },
                {
                    "name": "A4",
                    "midi": 69,
                    "time": 450.538881250003,
                    "velocity": 0.49606299212598426,
                    "duration": 0.08354916666667123
                },
                {
                    "name": "A4",
                    "midi": 69,
                    "time": 450.664205000003,
                    "velocity": 0.5511811023622047,
                    "duration": 0.09399281250000513
                },
                {
                    "name": "C5",
                    "midi": 72,
                    "time": 450.664205000003,
                    "velocity": 0.5511811023622047,
                    "duration": 0.09399281250000513
                },
                {
                    "name": "F5",
                    "midi": 77,
                    "time": 450.664205000003,
                    "velocity": 0.6141732283464567,
                    "duration": 0.09399281250000513
                },
                {
                    "name": "A5",
                    "midi": 81,
                    "time": 450.664205000003,
                    "velocity": 0.6141732283464567,
                    "duration": 0.09399281250000513
                },
                {
                    "name": "F4",
                    "midi": 65,
                    "time": 450.914852500003,
                    "velocity": 0.49606299212598426,
                    "duration": 0.09399281250000513
                },
                {
                    "name": "A4",
                    "midi": 69,
                    "time": 450.914852500003,
                    "velocity": 0.49606299212598426,
                    "duration": 0.09399281250000513
                },
                {
                    "name": "C5",
                    "midi": 72,
                    "time": 450.914852500003,
                    "velocity": 0.5511811023622047,
                    "duration": 0.09399281250000513
                },
                {
                    "name": "F5",
                    "midi": 77,
                    "time": 450.914852500003,
                    "velocity": 0.5511811023622047,
                    "duration": 0.09399281250000513
                },
                {
                    "name": "A6",
                    "midi": 93,
                    "time": 451.165500000003,
                    "velocity": 0.7795275590551181,
                    "duration": 0.3341966666666849
                },
                {
                    "name": "F6",
                    "midi": 89,
                    "time": 451.165500000003,
                    "velocity": 0.7795275590551181,
                    "duration": 0.3341966666666849
                },
                {
                    "name": "C6",
                    "midi": 84,
                    "time": 451.165500000003,
                    "velocity": 0.7007874015748031,
                    "duration": 0.3341966666666849
                },
                {
                    "name": "A5",
                    "midi": 81,
                    "time": 451.165500000003,
                    "velocity": 0.7007874015748031,
                    "duration": 0.3341966666666849
                },
                {
                    "name": "F6",
                    "midi": 89,
                    "time": 451.54147125000304,
                    "velocity": 0.5511811023622047,
                    "duration": 0.08354916666667123
                },
                {
                    "name": "C6",
                    "midi": 84,
                    "time": 451.54147125000304,
                    "velocity": 0.5511811023622047,
                    "duration": 0.08354916666667123
                },
                {
                    "name": "A5",
                    "midi": 81,
                    "time": 451.54147125000304,
                    "velocity": 0.49606299212598426,
                    "duration": 0.08354916666667123
                },
                {
                    "name": "F5",
                    "midi": 77,
                    "time": 451.54147125000304,
                    "velocity": 0.49606299212598426,
                    "duration": 0.08354916666667123
                },
                {
                    "name": "F6",
                    "midi": 89,
                    "time": 451.66679500000305,
                    "velocity": 0.6141732283464567,
                    "duration": 0.3341966666666849
                },
                {
                    "name": "C6",
                    "midi": 84,
                    "time": 451.66679500000305,
                    "velocity": 0.6141732283464567,
                    "duration": 0.3341966666666849
                },
                {
                    "name": "A5",
                    "midi": 81,
                    "time": 451.66679500000305,
                    "velocity": 0.5511811023622047,
                    "duration": 0.3341966666666849
                },
                {
                    "name": "F5",
                    "midi": 77,
                    "time": 451.66679500000305,
                    "velocity": 0.5511811023622047,
                    "duration": 0.3341966666666849
                },
                {
                    "name": "C6",
                    "midi": 84,
                    "time": 452.04276625000307,
                    "velocity": 0.5511811023622047,
                    "duration": 0.08354916666667123
                },
                {
                    "name": "A5",
                    "midi": 81,
                    "time": 452.04276625000307,
                    "velocity": 0.5511811023622047,
                    "duration": 0.08354916666667123
                },
                {
                    "name": "F5",
                    "midi": 77,
                    "time": 452.04276625000307,
                    "velocity": 0.49606299212598426,
                    "duration": 0.08354916666667123
                },
                {
                    "name": "C5",
                    "midi": 72,
                    "time": 452.04276625000307,
                    "velocity": 0.49606299212598426,
                    "duration": 0.08354916666667123
                },
                {
                    "name": "C6",
                    "midi": 84,
                    "time": 452.1680900000031,
                    "velocity": 0.6141732283464567,
                    "duration": 0.3341966666666849
                },
                {
                    "name": "A5",
                    "midi": 81,
                    "time": 452.1680900000031,
                    "velocity": 0.6141732283464567,
                    "duration": 0.3341966666666849
                },
                {
                    "name": "F5",
                    "midi": 77,
                    "time": 452.1680900000031,
                    "velocity": 0.5511811023622047,
                    "duration": 0.3341966666666849
                },
                {
                    "name": "C5",
                    "midi": 72,
                    "time": 452.1680900000031,
                    "velocity": 0.5511811023622047,
                    "duration": 0.3341966666666849
                },
                {
                    "name": "A5",
                    "midi": 81,
                    "time": 452.5440612500031,
                    "velocity": 0.5511811023622047,
                    "duration": 0.08354916666667123
                },
                {
                    "name": "F5",
                    "midi": 77,
                    "time": 452.5440612500031,
                    "velocity": 0.5511811023622047,
                    "duration": 0.08354916666667123
                },
                {
                    "name": "C5",
                    "midi": 72,
                    "time": 452.5440612500031,
                    "velocity": 0.49606299212598426,
                    "duration": 0.08354916666667123
                },
                {
                    "name": "A4",
                    "midi": 69,
                    "time": 452.5440612500031,
                    "velocity": 0.49606299212598426,
                    "duration": 0.08354916666667123
                },
                {
                    "name": "A4",
                    "midi": 69,
                    "time": 452.6693850000031,
                    "velocity": 0.5511811023622047,
                    "duration": 0.09399281250000513
                },
                {
                    "name": "C5",
                    "midi": 72,
                    "time": 452.6693850000031,
                    "velocity": 0.5511811023622047,
                    "duration": 0.09399281250000513
                },
                {
                    "name": "F5",
                    "midi": 77,
                    "time": 452.6693850000031,
                    "velocity": 0.6141732283464567,
                    "duration": 0.09399281250000513
                },
                {
                    "name": "A5",
                    "midi": 81,
                    "time": 452.6693850000031,
                    "velocity": 0.6141732283464567,
                    "duration": 0.09399281250000513
                },
                {
                    "name": "F4",
                    "midi": 65,
                    "time": 452.9200325000031,
                    "velocity": 0.49606299212598426,
                    "duration": 0.09399281250000513
                },
                {
                    "name": "A4",
                    "midi": 69,
                    "time": 452.9200325000031,
                    "velocity": 0.49606299212598426,
                    "duration": 0.09399281250000513
                },
                {
                    "name": "C5",
                    "midi": 72,
                    "time": 452.9200325000031,
                    "velocity": 0.5511811023622047,
                    "duration": 0.09399281250000513
                },
                {
                    "name": "F5",
                    "midi": 77,
                    "time": 452.9200325000031,
                    "velocity": 0.5511811023622047,
                    "duration": 0.09399281250000513
                },
                {
                    "name": "A6",
                    "midi": 93,
                    "time": 453.17068000000313,
                    "velocity": 0.7244094488188977,
                    "duration": 0.3341966666666849
                },
                {
                    "name": "E6",
                    "midi": 88,
                    "time": 453.17068000000313,
                    "velocity": 0.7244094488188977,
                    "duration": 0.3341966666666849
                },
                {
                    "name": "C#6",
                    "midi": 85,
                    "time": 453.17068000000313,
                    "velocity": 0.6456692913385826,
                    "duration": 0.3341966666666849
                },
                {
                    "name": "A5",
                    "midi": 81,
                    "time": 453.17068000000313,
                    "velocity": 0.6456692913385826,
                    "duration": 0.3341966666666849
                },
                {
                    "name": "A6",
                    "midi": 93,
                    "time": 453.54665125000315,
                    "velocity": 0.5511811023622047,
                    "duration": 0.08354916666667123
                },
                {
                    "name": "E6",
                    "midi": 88,
                    "time": 453.54665125000315,
                    "velocity": 0.5511811023622047,
                    "duration": 0.08354916666667123
                },
                {
                    "name": "C#6",
                    "midi": 85,
                    "time": 453.54665125000315,
                    "velocity": 0.5511811023622047,
                    "duration": 0.08354916666667123
                },
                {
                    "name": "A5",
                    "midi": 81,
                    "time": 453.54665125000315,
                    "velocity": 0.49606299212598426,
                    "duration": 0.08354916666667123
                },
                {
                    "name": "A6",
                    "midi": 93,
                    "time": 453.67197500000316,
                    "velocity": 0.6535433070866141,
                    "duration": 0.3341966666666849
                },
                {
                    "name": "E6",
                    "midi": 88,
                    "time": 453.67197500000316,
                    "velocity": 0.6535433070866141,
                    "duration": 0.3341966666666849
                },
                {
                    "name": "C#6",
                    "midi": 85,
                    "time": 453.67197500000316,
                    "velocity": 0.5826771653543307,
                    "duration": 0.3341966666666849
                },
                {
                    "name": "A5",
                    "midi": 81,
                    "time": 453.67197500000316,
                    "velocity": 0.5826771653543307,
                    "duration": 0.3341966666666849
                },
                {
                    "name": "A6",
                    "midi": 93,
                    "time": 454.0479462500032,
                    "velocity": 0.5511811023622047,
                    "duration": 0.08354916666667123
                },
                {
                    "name": "E6",
                    "midi": 88,
                    "time": 454.0479462500032,
                    "velocity": 0.5511811023622047,
                    "duration": 0.08354916666667123
                },
                {
                    "name": "C#6",
                    "midi": 85,
                    "time": 454.0479462500032,
                    "velocity": 0.49606299212598426,
                    "duration": 0.08354916666667123
                },
                {
                    "name": "A5",
                    "midi": 81,
                    "time": 454.0479462500032,
                    "velocity": 0.49606299212598426,
                    "duration": 0.08354916666667123
                },
                {
                    "name": "A6",
                    "midi": 93,
                    "time": 454.1732700000032,
                    "velocity": 0.6456692913385826,
                    "duration": 0.3341966666666849
                },
                {
                    "name": "E6",
                    "midi": 88,
                    "time": 454.1732700000032,
                    "velocity": 0.6456692913385826,
                    "duration": 0.3341966666666849
                },
                {
                    "name": "C#6",
                    "midi": 85,
                    "time": 454.1732700000032,
                    "velocity": 0.5748031496062992,
                    "duration": 0.3341966666666849
                },
                {
                    "name": "A5",
                    "midi": 81,
                    "time": 454.1732700000032,
                    "velocity": 0.5748031496062992,
                    "duration": 0.3341966666666849
                },
                {
                    "name": "A6",
                    "midi": 93,
                    "time": 454.5492412500032,
                    "velocity": 0.5511811023622047,
                    "duration": 0.08354916666667123
                },
                {
                    "name": "E6",
                    "midi": 88,
                    "time": 454.5492412500032,
                    "velocity": 0.5511811023622047,
                    "duration": 0.08354916666667123
                },
                {
                    "name": "C#6",
                    "midi": 85,
                    "time": 454.5492412500032,
                    "velocity": 0.49606299212598426,
                    "duration": 0.08354916666667123
                },
                {
                    "name": "A5",
                    "midi": 81,
                    "time": 454.5492412500032,
                    "velocity": 0.49606299212598426,
                    "duration": 0.08354916666667123
                },
                {
                    "name": "A6",
                    "midi": 93,
                    "time": 454.6745650000032,
                    "velocity": 0.6299212598425197,
                    "duration": 0.09399281250000513
                },
                {
                    "name": "E6",
                    "midi": 88,
                    "time": 454.6745650000032,
                    "velocity": 0.6299212598425197,
                    "duration": 0.09399281250000513
                },
                {
                    "name": "C#6",
                    "midi": 85,
                    "time": 454.6745650000032,
                    "velocity": 0.5669291338582677,
                    "duration": 0.09399281250000513
                },
                {
                    "name": "A5",
                    "midi": 81,
                    "time": 454.6745650000032,
                    "velocity": 0.5669291338582677,
                    "duration": 0.09399281250000513
                },
                {
                    "name": "A5",
                    "midi": 81,
                    "time": 454.9252125000032,
                    "velocity": 0.49606299212598426,
                    "duration": 0.09399281250000513
                },
                {
                    "name": "C#6",
                    "midi": 85,
                    "time": 454.9252125000032,
                    "velocity": 0.49606299212598426,
                    "duration": 0.09399281250000513
                },
                {
                    "name": "E6",
                    "midi": 88,
                    "time": 454.9252125000032,
                    "velocity": 0.5511811023622047,
                    "duration": 0.09399281250000513
                },
                {
                    "name": "A6",
                    "midi": 93,
                    "time": 454.9252125000032,
                    "velocity": 0.5511811023622047,
                    "duration": 0.09399281250000513
                },
                {
                    "name": "A5",
                    "midi": 81,
                    "time": 455.17586000000324,
                    "velocity": 0.3937007874015748,
                    "duration": 0.3341966666666849
                },
                {
                    "name": "E5",
                    "midi": 76,
                    "time": 455.17586000000324,
                    "velocity": 0.3937007874015748,
                    "duration": 0.3341966666666849
                },
                {
                    "name": "C#5",
                    "midi": 73,
                    "time": 455.17586000000324,
                    "velocity": 0.3937007874015748,
                    "duration": 0.3341966666666849
                },
                {
                    "name": "A4",
                    "midi": 69,
                    "time": 455.17586000000324,
                    "velocity": 0.3937007874015748,
                    "duration": 0.3341966666666849
                },
                {
                    "name": "C#5",
                    "midi": 73,
                    "time": 455.55183125000326,
                    "velocity": 0.3543307086614173,
                    "duration": 0.08354916666667123
                },
                {
                    "name": "E5",
                    "midi": 76,
                    "time": 455.55183125000326,
                    "velocity": 0.3543307086614173,
                    "duration": 0.08354916666667123
                },
                {
                    "name": "A5",
                    "midi": 81,
                    "time": 455.55183125000326,
                    "velocity": 0.3543307086614173,
                    "duration": 0.08354916666667123
                },
                {
                    "name": "A5",
                    "midi": 81,
                    "time": 455.67715500000327,
                    "velocity": 0.3937007874015748,
                    "duration": 0.3341966666666849
                },
                {
                    "name": "E5",
                    "midi": 76,
                    "time": 455.67715500000327,
                    "velocity": 0.3937007874015748,
                    "duration": 0.3341966666666849
                },
                {
                    "name": "C#5",
                    "midi": 73,
                    "time": 455.67715500000327,
                    "velocity": 0.3937007874015748,
                    "duration": 0.3341966666666849
                },
                {
                    "name": "C#5",
                    "midi": 73,
                    "time": 456.0531262500033,
                    "velocity": 0.3543307086614173,
                    "duration": 0.08354916666667123
                },
                {
                    "name": "E5",
                    "midi": 76,
                    "time": 456.0531262500033,
                    "velocity": 0.3543307086614173,
                    "duration": 0.08354916666667123
                },
                {
                    "name": "A5",
                    "midi": 81,
                    "time": 456.0531262500033,
                    "velocity": 0.3543307086614173,
                    "duration": 0.08354916666667123
                },
                {
                    "name": "A5",
                    "midi": 81,
                    "time": 456.1784500000033,
                    "velocity": 0.3858267716535433,
                    "duration": 0.3341966666666849
                },
                {
                    "name": "E5",
                    "midi": 76,
                    "time": 456.1784500000033,
                    "velocity": 0.3858267716535433,
                    "duration": 0.3341966666666849
                },
                {
                    "name": "C#5",
                    "midi": 73,
                    "time": 456.1784500000033,
                    "velocity": 0.3858267716535433,
                    "duration": 0.3341966666666849
                },
                {
                    "name": "C#5",
                    "midi": 73,
                    "time": 456.5544212500033,
                    "velocity": 0.3543307086614173,
                    "duration": 0.08354916666667123
                },
                {
                    "name": "E5",
                    "midi": 76,
                    "time": 456.5544212500033,
                    "velocity": 0.3543307086614173,
                    "duration": 0.08354916666667123
                },
                {
                    "name": "A5",
                    "midi": 81,
                    "time": 456.5544212500033,
                    "velocity": 0.3543307086614173,
                    "duration": 0.08354916666667123
                },
                {
                    "name": "A5",
                    "midi": 81,
                    "time": 456.6797450000033,
                    "velocity": 0.3937007874015748,
                    "duration": 0.09399281250000513
                },
                {
                    "name": "E5",
                    "midi": 76,
                    "time": 456.6797450000033,
                    "velocity": 0.3937007874015748,
                    "duration": 0.09399281250000513
                },
                {
                    "name": "C#5",
                    "midi": 73,
                    "time": 456.6797450000033,
                    "velocity": 0.3937007874015748,
                    "duration": 0.09399281250000513
                },
                {
                    "name": "C#5",
                    "midi": 73,
                    "time": 456.93039250000334,
                    "velocity": 0.3543307086614173,
                    "duration": 0.09399281250000513
                },
                {
                    "name": "E5",
                    "midi": 76,
                    "time": 456.93039250000334,
                    "velocity": 0.3543307086614173,
                    "duration": 0.09399281250000513
                },
                {
                    "name": "A5",
                    "midi": 81,
                    "time": 456.93039250000334,
                    "velocity": 0.3543307086614173,
                    "duration": 0.09399281250000513
                },
                {
                    "name": "C5",
                    "midi": 72,
                    "time": 457.18104000000335,
                    "velocity": 0.3543307086614173,
                    "duration": 0.3341966666666849
                },
                {
                    "name": "F5",
                    "midi": 77,
                    "time": 457.18104000000335,
                    "velocity": 0.3543307086614173,
                    "duration": 0.3341966666666849
                },
                {
                    "name": "A5",
                    "midi": 81,
                    "time": 457.18104000000335,
                    "velocity": 0.3543307086614173,
                    "duration": 0.3341966666666849
                },
                {
                    "name": "C5",
                    "midi": 72,
                    "time": 457.55701125000337,
                    "velocity": 0.2992125984251969,
                    "duration": 0.08354916666667123
                },
                {
                    "name": "F5",
                    "midi": 77,
                    "time": 457.55701125000337,
                    "velocity": 0.2992125984251969,
                    "duration": 0.08354916666667123
                },
                {
                    "name": "A5",
                    "midi": 81,
                    "time": 457.55701125000337,
                    "velocity": 0.2992125984251969,
                    "duration": 0.08354916666667123
                },
                {
                    "name": "C5",
                    "midi": 72,
                    "time": 457.6823350000034,
                    "velocity": 0.3543307086614173,
                    "duration": 0.3341966666666849
                },
                {
                    "name": "F5",
                    "midi": 77,
                    "time": 457.6823350000034,
                    "velocity": 0.3543307086614173,
                    "duration": 0.3341966666666849
                },
                {
                    "name": "A5",
                    "midi": 81,
                    "time": 457.6823350000034,
                    "velocity": 0.3543307086614173,
                    "duration": 0.3341966666666849
                },
                {
                    "name": "C5",
                    "midi": 72,
                    "time": 458.0583062500034,
                    "velocity": 0.29133858267716534,
                    "duration": 0.08354916666667123
                },
                {
                    "name": "F5",
                    "midi": 77,
                    "time": 458.0583062500034,
                    "velocity": 0.29133858267716534,
                    "duration": 0.08354916666667123
                },
                {
                    "name": "A5",
                    "midi": 81,
                    "time": 458.0583062500034,
                    "velocity": 0.29133858267716534,
                    "duration": 0.08354916666667123
                },
                {
                    "name": "C5",
                    "midi": 72,
                    "time": 458.1836300000034,
                    "velocity": 0.3543307086614173,
                    "duration": 0.3341966666666849
                },
                {
                    "name": "F5",
                    "midi": 77,
                    "time": 458.1836300000034,
                    "velocity": 0.3543307086614173,
                    "duration": 0.3341966666666849
                },
                {
                    "name": "A5",
                    "midi": 81,
                    "time": 458.1836300000034,
                    "velocity": 0.3543307086614173,
                    "duration": 0.3341966666666849
                },
                {
                    "name": "C5",
                    "midi": 72,
                    "time": 458.5596012500034,
                    "velocity": 0.2992125984251969,
                    "duration": 0.08354916666667123
                },
                {
                    "name": "F5",
                    "midi": 77,
                    "time": 458.5596012500034,
                    "velocity": 0.2992125984251969,
                    "duration": 0.08354916666667123
                },
                {
                    "name": "A5",
                    "midi": 81,
                    "time": 458.5596012500034,
                    "velocity": 0.2992125984251969,
                    "duration": 0.08354916666667123
                },
                {
                    "name": "C5",
                    "midi": 72,
                    "time": 458.68492500000343,
                    "velocity": 0.3543307086614173,
                    "duration": 0.09399281250000513
                },
                {
                    "name": "F5",
                    "midi": 77,
                    "time": 458.68492500000343,
                    "velocity": 0.3543307086614173,
                    "duration": 0.09399281250000513
                },
                {
                    "name": "A5",
                    "midi": 81,
                    "time": 458.68492500000343,
                    "velocity": 0.3543307086614173,
                    "duration": 0.09399281250000513
                },
                {
                    "name": "F5",
                    "midi": 77,
                    "time": 458.93557250000345,
                    "velocity": 0.30708661417322836,
                    "duration": 0.09399281250000513
                },
                {
                    "name": "C5",
                    "midi": 72,
                    "time": 458.93557250000345,
                    "velocity": 0.30708661417322836,
                    "duration": 0.09399281250000513
                },
                {
                    "name": "A5",
                    "midi": 81,
                    "time": 458.93557250000345,
                    "velocity": 0.30708661417322836,
                    "duration": 0.09399281250000513
                },
                {
                    "name": "C5",
                    "midi": 72,
                    "time": 459.18622000000346,
                    "velocity": 0.4015748031496063,
                    "duration": 0.3341966666666849
                },
                {
                    "name": "F5",
                    "midi": 77,
                    "time": 459.18622000000346,
                    "velocity": 0.4015748031496063,
                    "duration": 0.3341966666666849
                },
                {
                    "name": "A5",
                    "midi": 81,
                    "time": 459.18622000000346,
                    "velocity": 0.4015748031496063,
                    "duration": 0.3341966666666849
                },
                {
                    "name": "D5",
                    "midi": 74,
                    "time": 459.5621912500035,
                    "velocity": 0.29133858267716534,
                    "duration": 0.08354916666667123
                },
                {
                    "name": "F5",
                    "midi": 77,
                    "time": 459.5621912500035,
                    "velocity": 0.29133858267716534,
                    "duration": 0.08354916666667123
                },
                {
                    "name": "A#5",
                    "midi": 82,
                    "time": 459.5621912500035,
                    "velocity": 0.29133858267716534,
                    "duration": 0.08354916666667123
                },
                {
                    "name": "C5",
                    "midi": 72,
                    "time": 459.6875150000035,
                    "velocity": 0.3543307086614173,
                    "duration": 0.3341966666666849
                },
                {
                    "name": "F5",
                    "midi": 77,
                    "time": 459.6875150000035,
                    "velocity": 0.3543307086614173,
                    "duration": 0.3341966666666849
                },
                {
                    "name": "A5",
                    "midi": 81,
                    "time": 459.6875150000035,
                    "velocity": 0.3543307086614173,
                    "duration": 0.3341966666666849
                },
                {
                    "name": "A#4",
                    "midi": 70,
                    "time": 460.0634862500035,
                    "velocity": 0.29133858267716534,
                    "duration": 0.08354916666667123
                },
                {
                    "name": "C5",
                    "midi": 72,
                    "time": 460.0634862500035,
                    "velocity": 0.29133858267716534,
                    "duration": 0.08354916666667123
                },
                {
                    "name": "G5",
                    "midi": 79,
                    "time": 460.0634862500035,
                    "velocity": 0.29133858267716534,
                    "duration": 0.08354916666667123
                },
                {
                    "name": "A4",
                    "midi": 69,
                    "time": 460.1888100000035,
                    "velocity": 0.3543307086614173,
                    "duration": 0.3341966666666849
                },
                {
                    "name": "C5",
                    "midi": 72,
                    "time": 460.1888100000035,
                    "velocity": 0.3543307086614173,
                    "duration": 0.3341966666666849
                },
                {
                    "name": "F5",
                    "midi": 77,
                    "time": 460.1888100000035,
                    "velocity": 0.3543307086614173,
                    "duration": 0.3341966666666849
                },
                {
                    "name": "A#4",
                    "midi": 70,
                    "time": 460.56478125000353,
                    "velocity": 0.29133858267716534,
                    "duration": 0.08354916666667123
                },
                {
                    "name": "C5",
                    "midi": 72,
                    "time": 460.56478125000353,
                    "velocity": 0.29133858267716534,
                    "duration": 0.08354916666667123
                },
                {
                    "name": "G5",
                    "midi": 79,
                    "time": 460.56478125000353,
                    "velocity": 0.29133858267716534,
                    "duration": 0.08354916666667123
                },
                {
                    "name": "A4",
                    "midi": 69,
                    "time": 460.69010500000354,
                    "velocity": 0.3543307086614173,
                    "duration": 0.3341966666666849
                },
                {
                    "name": "C5",
                    "midi": 72,
                    "time": 460.69010500000354,
                    "velocity": 0.3543307086614173,
                    "duration": 0.3341966666666849
                },
                {
                    "name": "F5",
                    "midi": 77,
                    "time": 460.69010500000354,
                    "velocity": 0.3543307086614173,
                    "duration": 0.3341966666666849
                },
                {
                    "name": "F4",
                    "midi": 65,
                    "time": 461.06607625000356,
                    "velocity": 0.29133858267716534,
                    "duration": 0.08354916666667123
                },
                {
                    "name": "A#4",
                    "midi": 70,
                    "time": 461.06607625000356,
                    "velocity": 0.29133858267716534,
                    "duration": 0.08354916666667123
                },
                {
                    "name": "D5",
                    "midi": 74,
                    "time": 461.06607625000356,
                    "velocity": 0.29133858267716534,
                    "duration": 0.08354916666667123
                },
                {
                    "name": "E4",
                    "midi": 64,
                    "time": 461.19140000000357,
                    "velocity": 0.4094488188976378,
                    "duration": 0.3759712500000205
                },
                {
                    "name": "A#4",
                    "midi": 70,
                    "time": 461.19140000000357,
                    "velocity": 0.4094488188976378,
                    "duration": 0.3759712500000205
                },
                {
                    "name": "C5",
                    "midi": 72,
                    "time": 461.19140000000357,
                    "velocity": 0.4094488188976378,
                    "duration": 0.3759712500000205
                },
                {
                    "name": "F4",
                    "midi": 65,
                    "time": 461.5673712500036,
                    "velocity": 0.29133858267716534,
                    "duration": 0.12532375000000684
                },
                {
                    "name": "A#4",
                    "midi": 70,
                    "time": 461.5673712500036,
                    "velocity": 0.29133858267716534,
                    "duration": 0.12532375000000684
                },
                {
                    "name": "D5",
                    "midi": 74,
                    "time": 461.5673712500036,
                    "velocity": 0.29133858267716534,
                    "duration": 0.12532375000000684
                },
                {
                    "name": "F4",
                    "midi": 65,
                    "time": 461.6926950000036,
                    "velocity": 0.3543307086614173,
                    "duration": 0.3759712500000205
                },
                {
                    "name": "A#4",
                    "midi": 70,
                    "time": 461.6926950000036,
                    "velocity": 0.3543307086614173,
                    "duration": 0.3759712500000205
                },
                {
                    "name": "D5",
                    "midi": 74,
                    "time": 461.6926950000036,
                    "velocity": 0.3543307086614173,
                    "duration": 0.3759712500000205
                },
                {
                    "name": "E4",
                    "midi": 64,
                    "time": 462.0686662500036,
                    "velocity": 0.29133858267716534,
                    "duration": 0.12532375000000684
                },
                {
                    "name": "A#4",
                    "midi": 70,
                    "time": 462.0686662500036,
                    "velocity": 0.29133858267716534,
                    "duration": 0.12532375000000684
                },
                {
                    "name": "C5",
                    "midi": 72,
                    "time": 462.0686662500036,
                    "velocity": 0.29133858267716534,
                    "duration": 0.12532375000000684
                },
                {
                    "name": "E4",
                    "midi": 64,
                    "time": 462.1939900000036,
                    "velocity": 0.3543307086614173,
                    "duration": 0.3759712500000205
                },
                {
                    "name": "A#4",
                    "midi": 70,
                    "time": 462.1939900000036,
                    "velocity": 0.3543307086614173,
                    "duration": 0.3759712500000205
                },
                {
                    "name": "C5",
                    "midi": 72,
                    "time": 462.1939900000036,
                    "velocity": 0.3543307086614173,
                    "duration": 0.3759712500000205
                },
                {
                    "name": "F4",
                    "midi": 65,
                    "time": 462.56996125000364,
                    "velocity": 0.29133858267716534,
                    "duration": 0.12532375000000684
                },
                {
                    "name": "A#4",
                    "midi": 70,
                    "time": 462.56996125000364,
                    "velocity": 0.29133858267716534,
                    "duration": 0.12532375000000684
                },
                {
                    "name": "D5",
                    "midi": 74,
                    "time": 462.56996125000364,
                    "velocity": 0.29133858267716534,
                    "duration": 0.12532375000000684
                },
                {
                    "name": "F4",
                    "midi": 65,
                    "time": 462.69528500000365,
                    "velocity": 0.30708661417322836,
                    "duration": 0.09399281250000513
                },
                {
                    "name": "A#4",
                    "midi": 70,
                    "time": 462.69528500000365,
                    "velocity": 0.30708661417322836,
                    "duration": 0.09399281250000513
                },
                {
                    "name": "D5",
                    "midi": 74,
                    "time": 462.69528500000365,
                    "velocity": 0.30708661417322836,
                    "duration": 0.09399281250000513
                },
                {
                    "name": "E4",
                    "midi": 64,
                    "time": 462.94593250000366,
                    "velocity": 0.29133858267716534,
                    "duration": 0.08354916666667123
                },
                {
                    "name": "A#4",
                    "midi": 70,
                    "time": 462.94593250000366,
                    "velocity": 0.29133858267716534,
                    "duration": 0.08354916666667123
                },
                {
                    "name": "C5",
                    "midi": 72,
                    "time": 462.94593250000366,
                    "velocity": 0.29133858267716534,
                    "duration": 0.08354916666667123
                },
                {
                    "name": "D5",
                    "midi": 74,
                    "time": 463.1965800000037,
                    "velocity": 0.3543307086614173,
                    "duration": 0.3341966666666849
                },
                {
                    "name": "G5",
                    "midi": 79,
                    "time": 463.1965800000037,
                    "velocity": 0.3543307086614173,
                    "duration": 0.3341966666666849
                },
                {
                    "name": "A#5",
                    "midi": 82,
                    "time": 463.1965800000037,
                    "velocity": 0.3543307086614173,
                    "duration": 0.3341966666666849
                },
                {
                    "name": "D#5",
                    "midi": 75,
                    "time": 463.5725512500037,
                    "velocity": 0.29133858267716534,
                    "duration": 0.08354916666667123
                },
                {
                    "name": "G5",
                    "midi": 79,
                    "time": 463.5725512500037,
                    "velocity": 0.29133858267716534,
                    "duration": 0.08354916666667123
                },
                {
                    "name": "C6",
                    "midi": 84,
                    "time": 463.5725512500037,
                    "velocity": 0.29133858267716534,
                    "duration": 0.08354916666667123
                },
                {
                    "name": "D5",
                    "midi": 74,
                    "time": 463.6978750000037,
                    "velocity": 0.3543307086614173,
                    "duration": 0.3341966666666849
                },
                {
                    "name": "G5",
                    "midi": 79,
                    "time": 463.6978750000037,
                    "velocity": 0.3543307086614173,
                    "duration": 0.3341966666666849
                },
                {
                    "name": "A#5",
                    "midi": 82,
                    "time": 463.6978750000037,
                    "velocity": 0.3543307086614173,
                    "duration": 0.3341966666666849
                },
                {
                    "name": "C5",
                    "midi": 72,
                    "time": 464.0738462500037,
                    "velocity": 0.29133858267716534,
                    "duration": 0.08354916666667123
                },
                {
                    "name": "D5",
                    "midi": 74,
                    "time": 464.0738462500037,
                    "velocity": 0.29133858267716534,
                    "duration": 0.08354916666667123
                },
                {
                    "name": "A5",
                    "midi": 81,
                    "time": 464.0738462500037,
                    "velocity": 0.29133858267716534,
                    "duration": 0.08354916666667123
                },
                {
                    "name": "A#4",
                    "midi": 70,
                    "time": 464.19917000000373,
                    "velocity": 0.3543307086614173,
                    "duration": 0.3341966666666849
                },
                {
                    "name": "D5",
                    "midi": 74,
                    "time": 464.19917000000373,
                    "velocity": 0.3543307086614173,
                    "duration": 0.3341966666666849
                },
                {
                    "name": "G5",
                    "midi": 79,
                    "time": 464.19917000000373,
                    "velocity": 0.3543307086614173,
                    "duration": 0.3341966666666849
                },
                {
                    "name": "C5",
                    "midi": 72,
                    "time": 464.57514125000375,
                    "velocity": 0.29133858267716534,
                    "duration": 0.08354916666667123
                },
                {
                    "name": "D5",
                    "midi": 74,
                    "time": 464.57514125000375,
                    "velocity": 0.29133858267716534,
                    "duration": 0.08354916666667123
                },
                {
                    "name": "A5",
                    "midi": 81,
                    "time": 464.57514125000375,
                    "velocity": 0.29133858267716534,
                    "duration": 0.08354916666667123
                },
                {
                    "name": "A#4",
                    "midi": 70,
                    "time": 464.70046500000376,
                    "velocity": 0.3543307086614173,
                    "duration": 0.3341966666666849
                },
                {
                    "name": "D5",
                    "midi": 74,
                    "time": 464.70046500000376,
                    "velocity": 0.3543307086614173,
                    "duration": 0.3341966666666849
                },
                {
                    "name": "G5",
                    "midi": 79,
                    "time": 464.70046500000376,
                    "velocity": 0.3543307086614173,
                    "duration": 0.3341966666666849
                },
                {
                    "name": "G4",
                    "midi": 67,
                    "time": 465.0764362500038,
                    "velocity": 0.29133858267716534,
                    "duration": 0.08354916666667123
                },
                {
                    "name": "C5",
                    "midi": 72,
                    "time": 465.0764362500038,
                    "velocity": 0.29133858267716534,
                    "duration": 0.08354916666667123
                },
                {
                    "name": "D#5",
                    "midi": 75,
                    "time": 465.0764362500038,
                    "velocity": 0.29133858267716534,
                    "duration": 0.08354916666667123
                },
                {
                    "name": "F#4",
                    "midi": 66,
                    "time": 465.2017600000038,
                    "velocity": 0.4094488188976378,
                    "duration": 0.3759712500000205
                },
                {
                    "name": "C5",
                    "midi": 72,
                    "time": 465.2017600000038,
                    "velocity": 0.4094488188976378,
                    "duration": 0.3759712500000205
                },
                {
                    "name": "D5",
                    "midi": 74,
                    "time": 465.2017600000038,
                    "velocity": 0.4094488188976378,
                    "duration": 0.3759712500000205
                },
                {
                    "name": "G4",
                    "midi": 67,
                    "time": 465.5777312500038,
                    "velocity": 0.29133858267716534,
                    "duration": 0.12532375000000684
                },
                {
                    "name": "C5",
                    "midi": 72,
                    "time": 465.5777312500038,
                    "velocity": 0.29133858267716534,
                    "duration": 0.12532375000000684
                },
                {
                    "name": "D#5",
                    "midi": 75,
                    "time": 465.5777312500038,
                    "velocity": 0.29133858267716534,
                    "duration": 0.12532375000000684
                },
                {
                    "name": "G4",
                    "midi": 67,
                    "time": 465.7030550000038,
                    "velocity": 0.3543307086614173,
                    "duration": 0.3759712500000205
                },
                {
                    "name": "C5",
                    "midi": 72,
                    "time": 465.7030550000038,
                    "velocity": 0.3543307086614173,
                    "duration": 0.3759712500000205
                },
                {
                    "name": "D#5",
                    "midi": 75,
                    "time": 465.7030550000038,
                    "velocity": 0.3543307086614173,
                    "duration": 0.3759712500000205
                },
                {
                    "name": "F#4",
                    "midi": 66,
                    "time": 466.07902625000384,
                    "velocity": 0.29133858267716534,
                    "duration": 0.12532375000000684
                },
                {
                    "name": "C5",
                    "midi": 72,
                    "time": 466.07902625000384,
                    "velocity": 0.29133858267716534,
                    "duration": 0.12532375000000684
                },
                {
                    "name": "D5",
                    "midi": 74,
                    "time": 466.07902625000384,
                    "velocity": 0.29133858267716534,
                    "duration": 0.12532375000000684
                },
                {
                    "name": "F#4",
                    "midi": 66,
                    "time": 466.20435000000384,
                    "velocity": 0.3543307086614173,
                    "duration": 0.3759712500000205
                },
                {
                    "name": "C5",
                    "midi": 72,
                    "time": 466.20435000000384,
                    "velocity": 0.3543307086614173,
                    "duration": 0.3759712500000205
                },
                {
                    "name": "D5",
                    "midi": 74,
                    "time": 466.20435000000384,
                    "velocity": 0.3543307086614173,
                    "duration": 0.3759712500000205
                },
                {
                    "name": "G4",
                    "midi": 67,
                    "time": 466.58032125000386,
                    "velocity": 0.29133858267716534,
                    "duration": 0.12532375000000684
                },
                {
                    "name": "C5",
                    "midi": 72,
                    "time": 466.58032125000386,
                    "velocity": 0.29133858267716534,
                    "duration": 0.12532375000000684
                },
                {
                    "name": "D#5",
                    "midi": 75,
                    "time": 466.58032125000386,
                    "velocity": 0.29133858267716534,
                    "duration": 0.12532375000000684
                },
                {
                    "name": "G4",
                    "midi": 67,
                    "time": 466.70564500000387,
                    "velocity": 0.30708661417322836,
                    "duration": 0.09399281250000513
                },
                {
                    "name": "C5",
                    "midi": 72,
                    "time": 466.70564500000387,
                    "velocity": 0.30708661417322836,
                    "duration": 0.09399281250000513
                },
                {
                    "name": "D#5",
                    "midi": 75,
                    "time": 466.70564500000387,
                    "velocity": 0.30708661417322836,
                    "duration": 0.09399281250000513
                },
                {
                    "name": "F#4",
                    "midi": 66,
                    "time": 466.9562925000039,
                    "velocity": 0.29133858267716534,
                    "duration": 0.08354916666667123
                },
                {
                    "name": "C5",
                    "midi": 72,
                    "time": 466.9562925000039,
                    "velocity": 0.29133858267716534,
                    "duration": 0.08354916666667123
                },
                {
                    "name": "D5",
                    "midi": 74,
                    "time": 466.9562925000039,
                    "velocity": 0.29133858267716534,
                    "duration": 0.08354916666667123
                },
                {
                    "name": "B4",
                    "midi": 71,
                    "time": 467.2069400000039,
                    "velocity": 0.4015748031496063,
                    "duration": 0.3759712500000205
                },
                {
                    "name": "F5",
                    "midi": 77,
                    "time": 467.2069400000039,
                    "velocity": 0.4015748031496063,
                    "duration": 0.3759712500000205
                },
                {
                    "name": "G5",
                    "midi": 79,
                    "time": 467.2069400000039,
                    "velocity": 0.4015748031496063,
                    "duration": 0.3759712500000205
                },
                {
                    "name": "B4",
                    "midi": 71,
                    "time": 467.5829112500039,
                    "velocity": 0.29133858267716534,
                    "duration": 0.08354916666667123
                },
                {
                    "name": "F5",
                    "midi": 77,
                    "time": 467.5829112500039,
                    "velocity": 0.29133858267716534,
                    "duration": 0.08354916666667123
                },
                {
                    "name": "G#5",
                    "midi": 80,
                    "time": 467.5829112500039,
                    "velocity": 0.29133858267716534,
                    "duration": 0.08354916666667123
                },
                {
                    "name": "B4",
                    "midi": 71,
                    "time": 467.7082350000039,
                    "velocity": 0.4015748031496063,
                    "duration": 0.2506475000000137
                },
                {
                    "name": "F5",
                    "midi": 77,
                    "time": 467.7082350000039,
                    "velocity": 0.4015748031496063,
                    "duration": 0.2506475000000137
                },
                {
                    "name": "G#5",
                    "midi": 80,
                    "time": 467.7082350000039,
                    "velocity": 0.4015748031496063,
                    "duration": 0.2506475000000137
                },
                {
                    "name": "B4",
                    "midi": 71,
                    "time": 467.95888250000394,
                    "velocity": 0.33070866141732286,
                    "duration": 0.08354916666667123
                },
                {
                    "name": "F5",
                    "midi": 77,
                    "time": 467.95888250000394,
                    "velocity": 0.33070866141732286,
                    "duration": 0.08354916666667123
                },
                {
                    "name": "G5",
                    "midi": 79,
                    "time": 467.95888250000394,
                    "velocity": 0.33070866141732286,
                    "duration": 0.08354916666667123
                },
                {
                    "name": "G4",
                    "midi": 67,
                    "time": 468.20953000000395,
                    "velocity": 0.3543307086614173,
                    "duration": 0.3759712500000205
                },
                {
                    "name": "A#4",
                    "midi": 70,
                    "time": 468.20953000000395,
                    "velocity": 0.3543307086614173,
                    "duration": 0.3759712500000205
                },
                {
                    "name": "C5",
                    "midi": 72,
                    "time": 468.20953000000395,
                    "velocity": 0.3543307086614173,
                    "duration": 0.3759712500000205
                },
                {
                    "name": "G4",
                    "midi": 67,
                    "time": 468.585501250004,
                    "velocity": 0.30708661417322836,
                    "duration": 0.08354916666667123
                },
                {
                    "name": "A#4",
                    "midi": 70,
                    "time": 468.585501250004,
                    "velocity": 0.30708661417322836,
                    "duration": 0.08354916666667123
                },
                {
                    "name": "C#5",
                    "midi": 73,
                    "time": 468.585501250004,
                    "velocity": 0.30708661417322836,
                    "duration": 0.08354916666667123
                },
                {
                    "name": "G4",
                    "midi": 67,
                    "time": 468.710825000004,
                    "velocity": 0.3700787401574803,
                    "duration": 0.09399281250000513
                },
                {
                    "name": "A#4",
                    "midi": 70,
                    "time": 468.710825000004,
                    "velocity": 0.3700787401574803,
                    "duration": 0.09399281250000513
                },
                {
                    "name": "C#5",
                    "midi": 73,
                    "time": 468.710825000004,
                    "velocity": 0.3700787401574803,
                    "duration": 0.09399281250000513
                },
                {
                    "name": "G4",
                    "midi": 67,
                    "time": 468.961472500004,
                    "velocity": 0.29133858267716534,
                    "duration": 0.08354916666667123
                },
                {
                    "name": "A#4",
                    "midi": 70,
                    "time": 468.961472500004,
                    "velocity": 0.29133858267716534,
                    "duration": 0.08354916666667123
                },
                {
                    "name": "C5",
                    "midi": 72,
                    "time": 468.961472500004,
                    "velocity": 0.29133858267716534,
                    "duration": 0.08354916666667123
                },
                {
                    "name": "A4",
                    "midi": 69,
                    "time": 469.212120000004,
                    "velocity": 0.4094488188976378,
                    "duration": 0.3759712500000205
                },
                {
                    "name": "D#5",
                    "midi": 75,
                    "time": 469.212120000004,
                    "velocity": 0.4094488188976378,
                    "duration": 0.3759712500000205
                },
                {
                    "name": "F5",
                    "midi": 77,
                    "time": 469.212120000004,
                    "velocity": 0.4094488188976378,
                    "duration": 0.3759712500000205
                },
                {
                    "name": "A4",
                    "midi": 69,
                    "time": 469.588091250004,
                    "velocity": 0.33070866141732286,
                    "duration": 0.08354916666667123
                },
                {
                    "name": "D#5",
                    "midi": 75,
                    "time": 469.588091250004,
                    "velocity": 0.33070866141732286,
                    "duration": 0.08354916666667123
                },
                {
                    "name": "G5",
                    "midi": 79,
                    "time": 469.588091250004,
                    "velocity": 0.33070866141732286,
                    "duration": 0.08354916666667123
                },
                {
                    "name": "A4",
                    "midi": 69,
                    "time": 469.71341500000403,
                    "velocity": 0.3858267716535433,
                    "duration": 0.2506475000000137
                },
                {
                    "name": "D#5",
                    "midi": 75,
                    "time": 469.71341500000403,
                    "velocity": 0.3858267716535433,
                    "duration": 0.2506475000000137
                },
                {
                    "name": "G5",
                    "midi": 79,
                    "time": 469.71341500000403,
                    "velocity": 0.3858267716535433,
                    "duration": 0.2506475000000137
                },
                {
                    "name": "A4",
                    "midi": 69,
                    "time": 469.96406250000405,
                    "velocity": 0.29133858267716534,
                    "duration": 0.08354916666667123
                },
                {
                    "name": "D#5",
                    "midi": 75,
                    "time": 469.96406250000405,
                    "velocity": 0.29133858267716534,
                    "duration": 0.08354916666667123
                },
                {
                    "name": "F5",
                    "midi": 77,
                    "time": 469.96406250000405,
                    "velocity": 0.29133858267716534,
                    "duration": 0.08354916666667123
                },
                {
                    "name": "D4",
                    "midi": 62,
                    "time": 470.21471000000406,
                    "velocity": 0.3858267716535433,
                    "duration": 0.3759712500000205
                },
                {
                    "name": "F4",
                    "midi": 65,
                    "time": 470.21471000000406,
                    "velocity": 0.3858267716535433,
                    "duration": 0.3759712500000205
                },
                {
                    "name": "A#4",
                    "midi": 70,
                    "time": 470.21471000000406,
                    "velocity": 0.3858267716535433,
                    "duration": 0.3759712500000205
                },
                {
                    "name": "D4",
                    "midi": 62,
                    "time": 470.5906812500041,
                    "velocity": 0.29133858267716534,
                    "duration": 0.08354916666667123
                },
                {
                    "name": "F4",
                    "midi": 65,
                    "time": 470.5906812500041,
                    "velocity": 0.29133858267716534,
                    "duration": 0.08354916666667123
                },
                {
                    "name": "C5",
                    "midi": 72,
                    "time": 470.5906812500041,
                    "velocity": 0.29133858267716534,
                    "duration": 0.08354916666667123
                },
                {
                    "name": "D4",
                    "midi": 62,
                    "time": 470.7160050000041,
                    "velocity": 0.3543307086614173,
                    "duration": 0.09399281250000513
                },
                {
                    "name": "F4",
                    "midi": 65,
                    "time": 470.7160050000041,
                    "velocity": 0.3543307086614173,
                    "duration": 0.09399281250000513
                },
                {
                    "name": "C5",
                    "midi": 72,
                    "time": 470.7160050000041,
                    "velocity": 0.3543307086614173,
                    "duration": 0.09399281250000513
                },
                {
                    "name": "D4",
                    "midi": 62,
                    "time": 470.9666525000041,
                    "velocity": 0.29133858267716534,
                    "duration": 0.08354916666667123
                },
                {
                    "name": "A#4",
                    "midi": 70,
                    "time": 470.9666525000041,
                    "velocity": 0.29133858267716534,
                    "duration": 0.08354916666667123
                },
                {
                    "name": "F4",
                    "midi": 65,
                    "time": 470.9666525000041,
                    "velocity": 0.29133858267716534,
                    "duration": 0.08354916666667123
                },
                {
                    "name": "F4",
                    "midi": 65,
                    "time": 471.2173000000041,
                    "velocity": 0.4330708661417323,
                    "duration": 0.3759712500000205
                },
                {
                    "name": "A#4",
                    "midi": 70,
                    "time": 471.2173000000041,
                    "velocity": 0.4330708661417323,
                    "duration": 0.3759712500000205
                },
                {
                    "name": "D5",
                    "midi": 74,
                    "time": 471.2173000000041,
                    "velocity": 0.4330708661417323,
                    "duration": 0.3759712500000205
                },
                {
                    "name": "F4",
                    "midi": 65,
                    "time": 471.59327125000414,
                    "velocity": 0.4330708661417323,
                    "duration": 0.12532375000000684
                },
                {
                    "name": "C#5",
                    "midi": 73,
                    "time": 471.59327125000414,
                    "velocity": 0.4330708661417323,
                    "duration": 0.12532375000000684
                },
                {
                    "name": "E5",
                    "midi": 76,
                    "time": 471.59327125000414,
                    "velocity": 0.4330708661417323,
                    "duration": 0.12532375000000684
                },
                {
                    "name": "F4",
                    "midi": 65,
                    "time": 471.71859500000414,
                    "velocity": 0.4645669291338583,
                    "duration": 0.3759712500000205
                },
                {
                    "name": "C#5",
                    "midi": 73,
                    "time": 471.71859500000414,
                    "velocity": 0.4645669291338583,
                    "duration": 0.3759712500000205
                },
                {
                    "name": "E5",
                    "midi": 76,
                    "time": 471.71859500000414,
                    "velocity": 0.4645669291338583,
                    "duration": 0.3759712500000205
                },
                {
                    "name": "F4",
                    "midi": 65,
                    "time": 472.09456625000416,
                    "velocity": 0.4566929133858268,
                    "duration": 0.12532375000000684
                },
                {
                    "name": "D5",
                    "midi": 74,
                    "time": 472.09456625000416,
                    "velocity": 0.4566929133858268,
                    "duration": 0.12532375000000684
                },
                {
                    "name": "F5",
                    "midi": 77,
                    "time": 472.09456625000416,
                    "velocity": 0.4566929133858268,
                    "duration": 0.12532375000000684
                },
                {
                    "name": "F4",
                    "midi": 65,
                    "time": 472.21989000000417,
                    "velocity": 0.5275590551181102,
                    "duration": 0.3759712500000205
                },
                {
                    "name": "D5",
                    "midi": 74,
                    "time": 472.21989000000417,
                    "velocity": 0.5275590551181102,
                    "duration": 0.3759712500000205
                },
                {
                    "name": "F5",
                    "midi": 77,
                    "time": 472.21989000000417,
                    "velocity": 0.5275590551181102,
                    "duration": 0.3759712500000205
                },
                {
                    "name": "G4",
                    "midi": 67,
                    "time": 472.5958612500042,
                    "velocity": 0.5196850393700787,
                    "duration": 0.12532375000000684
                },
                {
                    "name": "E5",
                    "midi": 76,
                    "time": 472.5958612500042,
                    "velocity": 0.5196850393700787,
                    "duration": 0.12532375000000684
                },
                {
                    "name": "G5",
                    "midi": 79,
                    "time": 472.5958612500042,
                    "velocity": 0.5196850393700787,
                    "duration": 0.12532375000000684
                },
                {
                    "name": "G4",
                    "midi": 67,
                    "time": 472.7211850000042,
                    "velocity": 0.5748031496062992,
                    "duration": 0.3759712500000205
                },
                {
                    "name": "E5",
                    "midi": 76,
                    "time": 472.7211850000042,
                    "velocity": 0.5748031496062992,
                    "duration": 0.3759712500000205
                },
                {
                    "name": "G5",
                    "midi": 79,
                    "time": 472.7211850000042,
                    "velocity": 0.5748031496062992,
                    "duration": 0.3759712500000205
                },
                {
                    "name": "G#4",
                    "midi": 68,
                    "time": 473.0971562500042,
                    "velocity": 0.5275590551181102,
                    "duration": 0.12532375000000684
                },
                {
                    "name": "F5",
                    "midi": 77,
                    "time": 473.0971562500042,
                    "velocity": 0.5275590551181102,
                    "duration": 0.12532375000000684
                },
                {
                    "name": "G#5",
                    "midi": 80,
                    "time": 473.0971562500042,
                    "velocity": 0.5275590551181102,
                    "duration": 0.12532375000000684
                },
                {
                    "name": "G#4",
                    "midi": 68,
                    "time": 473.2224800000042,
                    "velocity": 0.5984251968503937,
                    "duration": 0.3759712500000205
                },
                {
                    "name": "F5",
                    "midi": 77,
                    "time": 473.2224800000042,
                    "velocity": 0.5984251968503937,
                    "duration": 0.3759712500000205
                },
                {
                    "name": "G#5",
                    "midi": 80,
                    "time": 473.2224800000042,
                    "velocity": 0.5984251968503937,
                    "duration": 0.3759712500000205
                },
                {
                    "name": "C5",
                    "midi": 72,
                    "time": 473.59845125000425,
                    "velocity": 0.5511811023622047,
                    "duration": 0.12532375000000684
                },
                {
                    "name": "G#4",
                    "midi": 68,
                    "time": 473.59845125000425,
                    "velocity": 0.5511811023622047,
                    "duration": 0.12532375000000684
                },
                {
                    "name": "F5",
                    "midi": 77,
                    "time": 473.59845125000425,
                    "velocity": 0.5511811023622047,
                    "duration": 0.12532375000000684
                },
                {
                    "name": "G#5",
                    "midi": 80,
                    "time": 473.59845125000425,
                    "velocity": 0.5511811023622047,
                    "duration": 0.12532375000000684
                },
                {
                    "name": "C5",
                    "midi": 72,
                    "time": 473.72377500000425,
                    "velocity": 0.5984251968503937,
                    "duration": 0.3759712500000205
                },
                {
                    "name": "G#4",
                    "midi": 68,
                    "time": 473.72377500000425,
                    "velocity": 0.5984251968503937,
                    "duration": 0.3759712500000205
                },
                {
                    "name": "F5",
                    "midi": 77,
                    "time": 473.72377500000425,
                    "velocity": 0.5984251968503937,
                    "duration": 0.3759712500000205
                },
                {
                    "name": "G#5",
                    "midi": 80,
                    "time": 473.72377500000425,
                    "velocity": 0.5984251968503937,
                    "duration": 0.3759712500000205
                },
                {
                    "name": "G4",
                    "midi": 67,
                    "time": 474.0997462500043,
                    "velocity": 0.5590551181102362,
                    "duration": 0.12532375000000684
                },
                {
                    "name": "B4",
                    "midi": 71,
                    "time": 474.0997462500043,
                    "velocity": 0.5590551181102362,
                    "duration": 0.12532375000000684
                },
                {
                    "name": "F5",
                    "midi": 77,
                    "time": 474.0997462500043,
                    "velocity": 0.5590551181102362,
                    "duration": 0.12532375000000684
                },
                {
                    "name": "G5",
                    "midi": 79,
                    "time": 474.0997462500043,
                    "velocity": 0.5590551181102362,
                    "duration": 0.12532375000000684
                },
                {
                    "name": "G4",
                    "midi": 67,
                    "time": 474.2250700000043,
                    "velocity": 0.6141732283464567,
                    "duration": 0.3759712500000205
                },
                {
                    "name": "B4",
                    "midi": 71,
                    "time": 474.2250700000043,
                    "velocity": 0.6141732283464567,
                    "duration": 0.3759712500000205
                },
                {
                    "name": "F5",
                    "midi": 77,
                    "time": 474.2250700000043,
                    "velocity": 0.6141732283464567,
                    "duration": 0.3759712500000205
                },
                {
                    "name": "G5",
                    "midi": 79,
                    "time": 474.2250700000043,
                    "velocity": 0.6141732283464567,
                    "duration": 0.3759712500000205
                },
                {
                    "name": "G4",
                    "midi": 67,
                    "time": 474.6010412500043,
                    "velocity": 0.5118110236220472,
                    "duration": 0.12532375000000684
                },
                {
                    "name": "B4",
                    "midi": 71,
                    "time": 474.6010412500043,
                    "velocity": 0.5118110236220472,
                    "duration": 0.12532375000000684
                },
                {
                    "name": "D5",
                    "midi": 74,
                    "time": 474.6010412500043,
                    "velocity": 0.5748031496062992,
                    "duration": 0.12532375000000684
                },
                {
                    "name": "F5",
                    "midi": 77,
                    "time": 474.6010412500043,
                    "velocity": 0.5748031496062992,
                    "duration": 0.12532375000000684
                },
                {
                    "name": "G5",
                    "midi": 79,
                    "time": 474.6010412500043,
                    "velocity": 0.5748031496062992,
                    "duration": 0.12532375000000684
                },
                {
                    "name": "G4",
                    "midi": 67,
                    "time": 474.7263650000043,
                    "velocity": 0.6377952755905512,
                    "duration": 0.3759712500000205
                },
                {
                    "name": "B4",
                    "midi": 71,
                    "time": 474.7263650000043,
                    "velocity": 0.6377952755905512,
                    "duration": 0.3759712500000205
                },
                {
                    "name": "D5",
                    "midi": 74,
                    "time": 474.7263650000043,
                    "velocity": 0.6377952755905512,
                    "duration": 0.3759712500000205
                },
                {
                    "name": "F5",
                    "midi": 77,
                    "time": 474.7263650000043,
                    "velocity": 0.6377952755905512,
                    "duration": 0.3759712500000205
                },
                {
                    "name": "G5",
                    "midi": 79,
                    "time": 474.7263650000043,
                    "velocity": 0.6377952755905512,
                    "duration": 0.3759712500000205
                },
                {
                    "name": "E4",
                    "midi": 64,
                    "time": 475.1023362500043,
                    "velocity": 0.5433070866141733,
                    "duration": 0.12532375000000684
                },
                {
                    "name": "G4",
                    "midi": 67,
                    "time": 475.1023362500043,
                    "velocity": 0.5433070866141733,
                    "duration": 0.12532375000000684
                },
                {
                    "name": "C5",
                    "midi": 72,
                    "time": 475.1023362500043,
                    "velocity": 0.6062992125984252,
                    "duration": 0.12532375000000684
                },
                {
                    "name": "E5",
                    "midi": 76,
                    "time": 475.1023362500043,
                    "velocity": 0.6062992125984252,
                    "duration": 0.12532375000000684
                },
                {
                    "name": "E4",
                    "midi": 64,
                    "time": 475.22766000000433,
                    "velocity": 0.6614173228346457,
                    "duration": 0.3759712500000205
                },
                {
                    "name": "G4",
                    "midi": 67,
                    "time": 475.22766000000433,
                    "velocity": 0.6614173228346457,
                    "duration": 0.3759712500000205
                },
                {
                    "name": "C5",
                    "midi": 72,
                    "time": 475.22766000000433,
                    "velocity": 0.7401574803149606,
                    "duration": 0.3759712500000205
                },
                {
                    "name": "E5",
                    "midi": 76,
                    "time": 475.22766000000433,
                    "velocity": 0.7401574803149606,
                    "duration": 0.3759712500000205
                },
                {
                    "name": "C5",
                    "midi": 72,
                    "time": 475.60363125000436,
                    "velocity": 0.5669291338582677,
                    "duration": 0.08354916666667123
                },
                {
                    "name": "E5",
                    "midi": 76,
                    "time": 475.60363125000436,
                    "velocity": 0.6299212598425197,
                    "duration": 0.08354916666667123
                },
                {
                    "name": "G4",
                    "midi": 67,
                    "time": 475.60363125000436,
                    "velocity": 0.5669291338582677,
                    "duration": 0.08354916666667123
                },
                {
                    "name": "G5",
                    "midi": 79,
                    "time": 475.60363125000436,
                    "velocity": 0.6299212598425197,
                    "duration": 0.08354916666667123
                },
                {
                    "name": "G4",
                    "midi": 67,
                    "time": 475.72895500000436,
                    "velocity": 0.6377952755905512,
                    "duration": 0.09399281250000513
                },
                {
                    "name": "C5",
                    "midi": 72,
                    "time": 475.72895500000436,
                    "velocity": 0.6377952755905512,
                    "duration": 0.09399281250000513
                },
                {
                    "name": "E5",
                    "midi": 76,
                    "time": 475.72895500000436,
                    "velocity": 0.7165354330708661,
                    "duration": 0.09399281250000513
                },
                {
                    "name": "G5",
                    "midi": 79,
                    "time": 475.72895500000436,
                    "velocity": 0.7165354330708661,
                    "duration": 0.09399281250000513
                },
                {
                    "name": "C6",
                    "midi": 84,
                    "time": 475.9796025000044,
                    "velocity": 0.6456692913385826,
                    "duration": 0.09399281250000513
                },
                {
                    "name": "G5",
                    "midi": 79,
                    "time": 475.9796025000044,
                    "velocity": 0.6456692913385826,
                    "duration": 0.09399281250000513
                },
                {
                    "name": "E5",
                    "midi": 76,
                    "time": 475.9796025000044,
                    "velocity": 0.5748031496062992,
                    "duration": 0.09399281250000513
                },
                {
                    "name": "C5",
                    "midi": 72,
                    "time": 475.9796025000044,
                    "velocity": 0.5748031496062992,
                    "duration": 0.09399281250000513
                },
                {
                    "name": "C5",
                    "midi": 72,
                    "time": 476.2302500000044,
                    "velocity": 0.6614173228346457,
                    "duration": 0.5012950000000274
                },
                {
                    "name": "F5",
                    "midi": 77,
                    "time": 476.2302500000044,
                    "velocity": 0.7401574803149606,
                    "duration": 0.5012950000000274
                },
                {
                    "name": "G#5",
                    "midi": 80,
                    "time": 476.2302500000044,
                    "velocity": 0.7401574803149606,
                    "duration": 0.5012950000000274
                },
                {
                    "name": "E4",
                    "midi": 64,
                    "time": 477.23284000000444,
                    "velocity": 0.6614173228346457,
                    "duration": 0.3759712500000205
                },
                {
                    "name": "G4",
                    "midi": 67,
                    "time": 477.23284000000444,
                    "velocity": 0.6614173228346457,
                    "duration": 0.3759712500000205
                },
                {
                    "name": "C5",
                    "midi": 72,
                    "time": 477.23284000000444,
                    "velocity": 0.7401574803149606,
                    "duration": 0.3759712500000205
                },
                {
                    "name": "E5",
                    "midi": 76,
                    "time": 477.23284000000444,
                    "velocity": 0.7401574803149606,
                    "duration": 0.3759712500000205
                },
                {
                    "name": "C5",
                    "midi": 72,
                    "time": 477.60881125000446,
                    "velocity": 0.5433070866141733,
                    "duration": 0.08354916666667123
                },
                {
                    "name": "E5",
                    "midi": 76,
                    "time": 477.60881125000446,
                    "velocity": 0.6062992125984252,
                    "duration": 0.08354916666667123
                },
                {
                    "name": "G4",
                    "midi": 67,
                    "time": 477.60881125000446,
                    "velocity": 0.5433070866141733,
                    "duration": 0.08354916666667123
                },
                {
                    "name": "G5",
                    "midi": 79,
                    "time": 477.60881125000446,
                    "velocity": 0.6062992125984252,
                    "duration": 0.08354916666667123
                },
                {
                    "name": "G4",
                    "midi": 67,
                    "time": 477.73413500000447,
                    "velocity": 0.6456692913385826,
                    "duration": 0.09399281250000513
                },
                {
                    "name": "C5",
                    "midi": 72,
                    "time": 477.73413500000447,
                    "velocity": 0.6456692913385826,
                    "duration": 0.09399281250000513
                },
                {
                    "name": "E5",
                    "midi": 76,
                    "time": 477.73413500000447,
                    "velocity": 0.7244094488188977,
                    "duration": 0.09399281250000513
                },
                {
                    "name": "G5",
                    "midi": 79,
                    "time": 477.73413500000447,
                    "velocity": 0.7244094488188977,
                    "duration": 0.09399281250000513
                },
                {
                    "name": "C6",
                    "midi": 84,
                    "time": 477.9847825000045,
                    "velocity": 0.6692913385826772,
                    "duration": 0.09399281250000513
                },
                {
                    "name": "G5",
                    "midi": 79,
                    "time": 477.9847825000045,
                    "velocity": 0.5984251968503937,
                    "duration": 0.09399281250000513
                },
                {
                    "name": "E5",
                    "midi": 76,
                    "time": 477.9847825000045,
                    "velocity": 0.6692913385826772,
                    "duration": 0.09399281250000513
                },
                {
                    "name": "C5",
                    "midi": 72,
                    "time": 477.9847825000045,
                    "velocity": 0.5984251968503937,
                    "duration": 0.09399281250000513
                },
                {
                    "name": "C5",
                    "midi": 72,
                    "time": 478.2354300000045,
                    "velocity": 0.6614173228346457,
                    "duration": 0.5012950000000274
                },
                {
                    "name": "F5",
                    "midi": 77,
                    "time": 478.2354300000045,
                    "velocity": 0.7401574803149606,
                    "duration": 0.5012950000000274
                },
                {
                    "name": "G#5",
                    "midi": 80,
                    "time": 478.2354300000045,
                    "velocity": 0.7401574803149606,
                    "duration": 0.5012950000000274
                },
                {
                    "name": "C6",
                    "midi": 84,
                    "time": 479.23802000000455,
                    "velocity": 0.6614173228346457,
                    "duration": 0.3759712500000205
                },
                {
                    "name": "G5",
                    "midi": 79,
                    "time": 479.23802000000455,
                    "velocity": 0.6614173228346457,
                    "duration": 0.3759712500000205
                },
                {
                    "name": "E5",
                    "midi": 76,
                    "time": 479.23802000000455,
                    "velocity": 0.6614173228346457,
                    "duration": 0.3759712500000205
                },
                {
                    "name": "C5",
                    "midi": 72,
                    "time": 479.23802000000455,
                    "velocity": 0.6614173228346457,
                    "duration": 0.3759712500000205
                },
                {
                    "name": "C5",
                    "midi": 72,
                    "time": 479.6139912500046,
                    "velocity": 0.4566929133858268,
                    "duration": 0.12532375000000684
                },
                {
                    "name": "C5",
                    "midi": 72,
                    "time": 479.7393150000046,
                    "velocity": 0.5511811023622047,
                    "duration": 0.3759712500000205
                },
                {
                    "name": "C5",
                    "midi": 72,
                    "time": 480.1152862500046,
                    "velocity": 0.4330708661417323,
                    "duration": 0.12532375000000684
                },
                {
                    "name": "C6",
                    "midi": 84,
                    "time": 480.2406100000046,
                    "velocity": 0.5433070866141733,
                    "duration": 0.3759712500000205
                },
                {
                    "name": "G5",
                    "midi": 79,
                    "time": 480.2406100000046,
                    "velocity": 0.5433070866141733,
                    "duration": 0.3759712500000205
                },
                {
                    "name": "E5",
                    "midi": 76,
                    "time": 480.2406100000046,
                    "velocity": 0.5433070866141733,
                    "duration": 0.3759712500000205
                },
                {
                    "name": "C5",
                    "midi": 72,
                    "time": 480.2406100000046,
                    "velocity": 0.5433070866141733,
                    "duration": 0.3759712500000205
                },
                {
                    "name": "C5",
                    "midi": 72,
                    "time": 480.61658125000463,
                    "velocity": 0.44881889763779526,
                    "duration": 0.12532375000000684
                },
                {
                    "name": "C5",
                    "midi": 72,
                    "time": 480.74190500000464,
                    "velocity": 0.5433070866141733,
                    "duration": 0.3759712500000205
                },
                {
                    "name": "C5",
                    "midi": 72,
                    "time": 481.11787625000466,
                    "velocity": 0.4409448818897638,
                    "duration": 0.12532375000000684
                },
                {
                    "name": "C5",
                    "midi": 72,
                    "time": 481.24320000000466,
                    "velocity": 0.5196850393700787,
                    "duration": 0.3759712500000205
                },
                {
                    "name": "C#5",
                    "midi": 73,
                    "time": 481.6191712500047,
                    "velocity": 0.4566929133858268,
                    "duration": 0.12532375000000684
                },
                {
                    "name": "C#5",
                    "midi": 73,
                    "time": 481.7444950000047,
                    "velocity": 0.5039370078740157,
                    "duration": 0.3759712500000205
                },
                {
                    "name": "C5",
                    "midi": 72,
                    "time": 482.1204662500047,
                    "velocity": 0.4015748031496063,
                    "duration": 0.12532375000000684
                },
                {
                    "name": "C5",
                    "midi": 72,
                    "time": 482.2457900000047,
                    "velocity": 0.49606299212598426,
                    "duration": 0.3759712500000205
                },
                {
                    "name": "C5",
                    "midi": 72,
                    "time": 482.62176125000474,
                    "velocity": 0.41732283464566927,
                    "duration": 0.12532375000000684
                },
                {
                    "name": "C5",
                    "midi": 72,
                    "time": 482.74708500000474,
                    "velocity": 0.4881889763779528,
                    "duration": 0.3759712500000205
                },
                {
                    "name": "C5",
                    "midi": 72,
                    "time": 483.12305625000477,
                    "velocity": 0.3858267716535433,
                    "duration": 0.12532375000000684
                },
                {
                    "name": "C5",
                    "midi": 72,
                    "time": 483.2483800000048,
                    "velocity": 0.47244094488188976,
                    "duration": 0.3759712500000205
                },
                {
                    "name": "F5",
                    "midi": 77,
                    "time": 483.6243512500048,
                    "velocity": 0.3858267716535433,
                    "duration": 0.12532375000000684
                },
                {
                    "name": "F5",
                    "midi": 77,
                    "time": 483.7496750000048,
                    "velocity": 0.49606299212598426,
                    "duration": 0.3759712500000205
                },
                {
                    "name": "C5",
                    "midi": 72,
                    "time": 484.1256462500048,
                    "velocity": 0.3464566929133858,
                    "duration": 0.12532375000000684
                },
                {
                    "name": "C5",
                    "midi": 72,
                    "time": 484.2509700000048,
                    "velocity": 0.4409448818897638,
                    "duration": 0.3759712500000205
                },
                {
                    "name": "C5",
                    "midi": 72,
                    "time": 484.62694125000485,
                    "velocity": 0.33070866141732286,
                    "duration": 0.12532375000000684
                },
                {
                    "name": "C5",
                    "midi": 72,
                    "time": 484.75226500000485,
                    "velocity": 0.4251968503937008,
                    "duration": 0.3759712500000205
                },
                {
                    "name": "C5",
                    "midi": 72,
                    "time": 485.1282362500049,
                    "velocity": 0.3228346456692913,
                    "duration": 0.12532375000000684
                },
                {
                    "name": "C5",
                    "midi": 72,
                    "time": 485.2535600000049,
                    "velocity": 0.41732283464566927,
                    "duration": 0.3759712500000205
                },
                {
                    "name": "D5",
                    "midi": 74,
                    "time": 485.6295312500049,
                    "velocity": 0.30708661417322836,
                    "duration": 0.12532375000000684
                },
                {
                    "name": "D5",
                    "midi": 74,
                    "time": 485.7548550000049,
                    "velocity": 0.4094488188976378,
                    "duration": 0.3759712500000205
                },
                {
                    "name": "C5",
                    "midi": 72,
                    "time": 486.13082625000493,
                    "velocity": 0.30708661417322836,
                    "duration": 0.12532375000000684
                },
                {
                    "name": "C5",
                    "midi": 72,
                    "time": 486.25615000000494,
                    "velocity": 0.3937007874015748,
                    "duration": 0.3759712500000205
                },
                {
                    "name": "A#5",
                    "midi": 82,
                    "time": 486.63212125000496,
                    "velocity": 0.29133858267716534,
                    "duration": 0.12532375000000684
                },
                {
                    "name": "A#5",
                    "midi": 82,
                    "time": 486.75744500000496,
                    "velocity": 0.3700787401574803,
                    "duration": 0.3759712500000205
                },
                {
                    "name": "E5",
                    "midi": 76,
                    "time": 487.133416250005,
                    "velocity": 0.2755905511811024,
                    "duration": 0.12532375000000684
                },
                {
                    "name": "F6",
                    "midi": 89,
                    "time": 487.258740000005,
                    "velocity": 0.3700787401574803,
                    "duration": 0.3759712500000205
                },
                {
                    "name": "F5",
                    "midi": 77,
                    "time": 487.258740000005,
                    "velocity": 0.3700787401574803,
                    "duration": 0.3759712500000205
                },
                {
                    "name": "C6",
                    "midi": 84,
                    "time": 487.634711250005,
                    "velocity": 0.2755905511811024,
                    "duration": 0.08354916666667123
                },
                {
                    "name": "C6",
                    "midi": 84,
                    "time": 487.760035000005,
                    "velocity": 0.33858267716535434,
                    "duration": 0.3341966666666849
                },
                {
                    "name": "C6",
                    "midi": 84,
                    "time": 488.13600625000504,
                    "velocity": 0.2677165354330709,
                    "duration": 0.08354916666667123
                },
                {
                    "name": "B5",
                    "midi": 83,
                    "time": 488.26133000000505,
                    "velocity": 0.33070866141732286,
                    "duration": 0.3341966666666849
                },
                {
                    "name": "C6",
                    "midi": 84,
                    "time": 488.63730125000507,
                    "velocity": 0.2677165354330709,
                    "duration": 0.08354916666667123
                },
                {
                    "name": "C6",
                    "midi": 84,
                    "time": 488.7626250000051,
                    "velocity": 0.3228346456692913,
                    "duration": 0.3341966666666849
                },
                {
                    "name": "C6",
                    "midi": 84,
                    "time": 489.1385962500051,
                    "velocity": 0.2755905511811024,
                    "duration": 0.08354916666667123
                },
                {
                    "name": "A5",
                    "midi": 81,
                    "time": 489.2639200000051,
                    "velocity": 0.3464566929133858,
                    "duration": 0.3341966666666849
                },
                {
                    "name": "C6",
                    "midi": 84,
                    "time": 489.6398912500051,
                    "velocity": 0.2677165354330709,
                    "duration": 0.08354916666667123
                },
                {
                    "name": "A6",
                    "midi": 93,
                    "time": 489.7652150000051,
                    "velocity": 0.33070866141732286,
                    "duration": 0.3341966666666849
                },
                {
                    "name": "G6",
                    "midi": 91,
                    "time": 490.14118625000515,
                    "velocity": 0.2677165354330709,
                    "duration": 0.08354916666667123
                },
                {
                    "name": "G6",
                    "midi": 91,
                    "time": 490.26651000000516,
                    "velocity": 0.3228346456692913,
                    "duration": 0.3341966666666849
                },
                {
                    "name": "A6",
                    "midi": 93,
                    "time": 490.6424812500052,
                    "velocity": 0.2755905511811024,
                    "duration": 0.08354916666667123
                },
                {
                    "name": "A6",
                    "midi": 93,
                    "time": 490.7678050000052,
                    "velocity": 0.3228346456692913,
                    "duration": 0.3341966666666849
                },
                {
                    "name": "F6",
                    "midi": 89,
                    "time": 491.1437762500052,
                    "velocity": 0.29133858267716534,
                    "duration": 0.08354916666667123
                },
                {
                    "name": "E6",
                    "midi": 88,
                    "time": 491.2691000000052,
                    "velocity": 0.3779527559055118,
                    "duration": 0.3341966666666849
                },
                {
                    "name": "D6",
                    "midi": 86,
                    "time": 491.64507125000523,
                    "velocity": 0.25984251968503935,
                    "duration": 0.08354916666667123
                },
                {
                    "name": "D6",
                    "midi": 86,
                    "time": 491.77039500000524,
                    "velocity": 0.33858267716535434,
                    "duration": 0.3341966666666849
                },
                {
                    "name": "D6",
                    "midi": 86,
                    "time": 492.14636625000526,
                    "velocity": 0.2755905511811024,
                    "duration": 0.08354916666667123
                },
                {
                    "name": "C#6",
                    "midi": 85,
                    "time": 492.27169000000526,
                    "velocity": 0.3543307086614173,
                    "duration": 0.3341966666666849
                },
                {
                    "name": "D6",
                    "midi": 86,
                    "time": 492.6476612500053,
                    "velocity": 0.2677165354330709,
                    "duration": 0.08354916666667123
                },
                {
                    "name": "D6",
                    "midi": 86,
                    "time": 492.7729850000053,
                    "velocity": 0.3464566929133858,
                    "duration": 0.3341966666666849
                },
                {
                    "name": "D6",
                    "midi": 86,
                    "time": 493.1489562500053,
                    "velocity": 0.25984251968503935,
                    "duration": 0.08354916666667123
                },
                {
                    "name": "A#5",
                    "midi": 82,
                    "time": 493.2742800000053,
                    "velocity": 0.3464566929133858,
                    "duration": 0.3759712500000205
                },
                {
                    "name": "D6",
                    "midi": 86,
                    "time": 493.65025125000534,
                    "velocity": 0.2755905511811024,
                    "duration": 0.12532375000000684
                },
                {
                    "name": "G6",
                    "midi": 91,
                    "time": 493.77557500000535,
                    "velocity": 0.33858267716535434,
                    "duration": 0.3759712500000205
                },
                {
                    "name": "F6",
                    "midi": 89,
                    "time": 494.15154625000537,
                    "velocity": 0.2677165354330709,
                    "duration": 0.12532375000000684
                },
                {
                    "name": "F6",
                    "midi": 89,
                    "time": 494.2768700000054,
                    "velocity": 0.3464566929133858,
                    "duration": 0.3759712500000205
                },
                {
                    "name": "G6",
                    "midi": 91,
                    "time": 494.6528412500054,
                    "velocity": 0.2677165354330709,
                    "duration": 0.12532375000000684
                },
                {
                    "name": "G6",
                    "midi": 91,
                    "time": 494.7781650000054,
                    "velocity": 0.33070866141732286,
                    "duration": 0.3759712500000205
                },
                {
                    "name": "E6",
                    "midi": 88,
                    "time": 495.1541362500054,
                    "velocity": 0.25984251968503935,
                    "duration": 0.12532375000000684
                },
                {
                    "name": "C6",
                    "midi": 84,
                    "time": 495.27946000000543,
                    "velocity": 0.3700787401574803,
                    "duration": 0.3759712500000205
                },
                {
                    "name": "C5",
                    "midi": 72,
                    "time": 495.65543125000545,
                    "velocity": 0.2755905511811024,
                    "duration": 0.12532375000000684
                },
                {
                    "name": "C5",
                    "midi": 72,
                    "time": 495.78075500000546,
                    "velocity": 0.33858267716535434,
                    "duration": 0.3759712500000205
                },
                {
                    "name": "C5",
                    "midi": 72,
                    "time": 496.1567262500055,
                    "velocity": 0.28346456692913385,
                    "duration": 0.12532375000000684
                },
                {
                    "name": "B4",
                    "midi": 71,
                    "time": 496.2820500000055,
                    "velocity": 0.33070866141732286,
                    "duration": 0.3759712500000205
                },
                {
                    "name": "C5",
                    "midi": 72,
                    "time": 496.6580212500055,
                    "velocity": 0.25984251968503935,
                    "duration": 0.12532375000000684
                },
                {
                    "name": "C5",
                    "midi": 72,
                    "time": 496.7833450000055,
                    "velocity": 0.3228346456692913,
                    "duration": 0.3759712500000205
                },
                {
                    "name": "C5",
                    "midi": 72,
                    "time": 497.15931625000553,
                    "velocity": 0.2755905511811024,
                    "duration": 0.12532375000000684
                },
                {
                    "name": "G#4",
                    "midi": 68,
                    "time": 497.28464000000554,
                    "velocity": 0.3464566929133858,
                    "duration": 0.3759712500000205
                },
                {
                    "name": "C5",
                    "midi": 72,
                    "time": 497.66061125000556,
                    "velocity": 0.25984251968503935,
                    "duration": 0.12532375000000684
                },
                {
                    "name": "G#5",
                    "midi": 80,
                    "time": 497.78593500000557,
                    "velocity": 0.33070866141732286,
                    "duration": 0.3759712500000205
                },
                {
                    "name": "G5",
                    "midi": 79,
                    "time": 498.1619062500056,
                    "velocity": 0.2440944881889764,
                    "duration": 0.12532375000000684
                },
                {
                    "name": "G5",
                    "midi": 79,
                    "time": 498.2872300000056,
                    "velocity": 0.3228346456692913,
                    "duration": 0.3759712500000205
                },
                {
                    "name": "G#5",
                    "midi": 80,
                    "time": 498.6632012500056,
                    "velocity": 0.25984251968503935,
                    "duration": 0.12532375000000684
                },
                {
                    "name": "G#5",
                    "midi": 80,
                    "time": 498.7885250000056,
                    "velocity": 0.3228346456692913,
                    "duration": 0.3759712500000205
                },
                {
                    "name": "F5",
                    "midi": 77,
                    "time": 499.16449625000564,
                    "velocity": 0.2677165354330709,
                    "duration": 0.12532375000000684
                },
                {
                    "name": "G5",
                    "midi": 79,
                    "time": 499.28982000000565,
                    "velocity": 0.3779527559055118,
                    "duration": 0.3759712500000205
                },
                {
                    "name": "F5",
                    "midi": 77,
                    "time": 499.66579125000567,
                    "velocity": 0.30708661417322836,
                    "duration": 0.12532375000000684
                },
                {
                    "name": "F5",
                    "midi": 77,
                    "time": 499.7911150000057,
                    "velocity": 0.33858267716535434,
                    "duration": 0.3759712500000205
                },
                {
                    "name": "F5",
                    "midi": 77,
                    "time": 500.1670862500057,
                    "velocity": 0.3228346456692913,
                    "duration": 0.12532375000000684
                },
                {
                    "name": "E5",
                    "midi": 76,
                    "time": 500.2924100000057,
                    "velocity": 0.3543307086614173,
                    "duration": 0.3759712500000205
                },
                {
                    "name": "F5",
                    "midi": 77,
                    "time": 500.6683812500057,
                    "velocity": 0.3228346456692913,
                    "duration": 0.12532375000000684
                },
                {
                    "name": "F5",
                    "midi": 77,
                    "time": 500.79370500000573,
                    "velocity": 0.3464566929133858,
                    "duration": 0.3759712500000205
                },
                {
                    "name": "F5",
                    "midi": 77,
                    "time": 501.16967625000575,
                    "velocity": 0.3228346456692913,
                    "duration": 0.12532375000000684
                },
                {
                    "name": "C#5",
                    "midi": 73,
                    "time": 501.29500000000576,
                    "velocity": 0.3464566929133858,
                    "duration": 0.3759712500000205
                },
                {
                    "name": "F5",
                    "midi": 77,
                    "time": 501.6709712500058,
                    "velocity": 0.28346456692913385,
                    "duration": 0.12532375000000684
                },
                {
                    "name": "A#5",
                    "midi": 82,
                    "time": 501.7962950000058,
                    "velocity": 0.33858267716535434,
                    "duration": 0.3759712500000205
                },
                {
                    "name": "G#5",
                    "midi": 80,
                    "time": 502.1722662500058,
                    "velocity": 0.2755905511811024,
                    "duration": 0.12532375000000684
                },
                {
                    "name": "G#5",
                    "midi": 80,
                    "time": 502.2975900000058,
                    "velocity": 0.3464566929133858,
                    "duration": 0.3759712500000205
                },
                {
                    "name": "A#5",
                    "midi": 82,
                    "time": 502.67356125000583,
                    "velocity": 0.2677165354330709,
                    "duration": 0.12532375000000684
                },
                {
                    "name": "A#5",
                    "midi": 82,
                    "time": 502.79888500000584,
                    "velocity": 0.33070866141732286,
                    "duration": 0.3759712500000205
                },
                {
                    "name": "G5",
                    "midi": 79,
                    "time": 503.17485625000586,
                    "velocity": 0.2677165354330709,
                    "duration": 0.12532375000000684
                },
                {
                    "name": "D#5",
                    "midi": 75,
                    "time": 503.30018000000587,
                    "velocity": 0.3543307086614173,
                    "duration": 0.3759712500000205
                },
                {
                    "name": "C6",
                    "midi": 84,
                    "time": 503.6761512500059,
                    "velocity": 0.31496062992125984,
                    "duration": 0.12532375000000684
                },
                {
                    "name": "C6",
                    "midi": 84,
                    "time": 503.8014750000059,
                    "velocity": 0.3779527559055118,
                    "duration": 0.3759712500000205
                },
                {
                    "name": "A#5",
                    "midi": 82,
                    "time": 504.1774462500059,
                    "velocity": 0.28346456692913385,
                    "duration": 0.12532375000000684
                },
                {
                    "name": "A#5",
                    "midi": 82,
                    "time": 504.3027700000059,
                    "velocity": 0.36220472440944884,
                    "duration": 0.3759712500000205
                },
                {
                    "name": "G#5",
                    "midi": 80,
                    "time": 504.67874125000594,
                    "velocity": 0.2755905511811024,
                    "duration": 0.12532375000000684
                },
                {
                    "name": "G#5",
                    "midi": 80,
                    "time": 504.80406500000595,
                    "velocity": 0.3464566929133858,
                    "duration": 0.3759712500000205
                },
                {
                    "name": "F#5",
                    "midi": 78,
                    "time": 505.18003625000597,
                    "velocity": 0.2755905511811024,
                    "duration": 0.12532375000000684
                },
                {
                    "name": "F#5",
                    "midi": 78,
                    "time": 505.305360000006,
                    "velocity": 0.3464566929133858,
                    "duration": 0.3759712500000205
                },
                {
                    "name": "F5",
                    "midi": 77,
                    "time": 505.681331250006,
                    "velocity": 0.2755905511811024,
                    "duration": 0.12532375000000684
                },
                {
                    "name": "F5",
                    "midi": 77,
                    "time": 505.806655000006,
                    "velocity": 0.31496062992125984,
                    "duration": 0.3759712500000205
                },
                {
                    "name": "F5",
                    "midi": 77,
                    "time": 506.182626250006,
                    "velocity": 0.2755905511811024,
                    "duration": 0.12532375000000684
                },
                {
                    "name": "E5",
                    "midi": 76,
                    "time": 506.30795000000603,
                    "velocity": 0.31496062992125984,
                    "duration": 0.3759712500000205
                },
                {
                    "name": "D#5",
                    "midi": 75,
                    "time": 506.68392125000605,
                    "velocity": 0.2677165354330709,
                    "duration": 0.12532375000000684
                },
                {
                    "name": "D#5",
                    "midi": 75,
                    "time": 506.80924500000606,
                    "velocity": 0.31496062992125984,
                    "duration": 0.3759712500000205
                },
                {
                    "name": "D#5",
                    "midi": 75,
                    "time": 507.1852162500061,
                    "velocity": 0.30708661417322836,
                    "duration": 0.12532375000000684
                },
                {
                    "name": "C#5",
                    "midi": 73,
                    "time": 507.3105400000061,
                    "velocity": 0.3543307086614173,
                    "duration": 0.3759712500000205
                },
                {
                    "name": "C#6",
                    "midi": 85,
                    "time": 507.6865112500061,
                    "velocity": 0.3543307086614173,
                    "duration": 0.12532375000000684
                },
                {
                    "name": "C#6",
                    "midi": 85,
                    "time": 507.8118350000061,
                    "velocity": 0.3779527559055118,
                    "duration": 0.3759712500000205
                },
                {
                    "name": "C6",
                    "midi": 84,
                    "time": 508.18780625000613,
                    "velocity": 0.2992125984251969,
                    "duration": 0.12532375000000684
                },
                {
                    "name": "C6",
                    "midi": 84,
                    "time": 508.31313000000614,
                    "velocity": 0.36220472440944884,
                    "duration": 0.3759712500000205
                },
                {
                    "name": "A#5",
                    "midi": 82,
                    "time": 508.68910125000616,
                    "velocity": 0.2992125984251969,
                    "duration": 0.12532375000000684
                },
                {
                    "name": "A#5",
                    "midi": 82,
                    "time": 508.81442500000617,
                    "velocity": 0.3464566929133858,
                    "duration": 0.3759712500000205
                },
                {
                    "name": "G#5",
                    "midi": 80,
                    "time": 509.1903962500062,
                    "velocity": 0.2992125984251969,
                    "duration": 0.12532375000000684
                },
                {
                    "name": "G#5",
                    "midi": 80,
                    "time": 509.3157200000062,
                    "velocity": 0.3464566929133858,
                    "duration": 0.3759712500000205
                },
                {
                    "name": "G5",
                    "midi": 79,
                    "time": 509.6916912500062,
                    "velocity": 0.2755905511811024,
                    "duration": 0.12532375000000684
                },
                {
                    "name": "G5",
                    "midi": 79,
                    "time": 509.8170150000062,
                    "velocity": 0.31496062992125984,
                    "duration": 0.3759712500000205
                },
                {
                    "name": "G5",
                    "midi": 79,
                    "time": 510.19298625000624,
                    "velocity": 0.2677165354330709,
                    "duration": 0.12532375000000684
                },
                {
                    "name": "F#5",
                    "midi": 78,
                    "time": 510.31831000000625,
                    "velocity": 0.31496062992125984,
                    "duration": 0.3759712500000205
                },
                {
                    "name": "F5",
                    "midi": 77,
                    "time": 510.69428125000627,
                    "velocity": 0.28346456692913385,
                    "duration": 0.12532375000000684
                },
                {
                    "name": "F5",
                    "midi": 77,
                    "time": 510.8196050000063,
                    "velocity": 0.31496062992125984,
                    "duration": 0.3759712500000205
                },
                {
                    "name": "F5",
                    "midi": 77,
                    "time": 511.1955762500063,
                    "velocity": 0.28346456692913385,
                    "duration": 0.12532375000000684
                },
                {
                    "name": "E5",
                    "midi": 76,
                    "time": 511.3209000000063,
                    "velocity": 0.3543307086614173,
                    "duration": 0.3759712500000205
                },
                {
                    "name": "E6",
                    "midi": 88,
                    "time": 511.6968712500063,
                    "velocity": 0.3228346456692913,
                    "duration": 0.12532375000000684
                },
                {
                    "name": "E6",
                    "midi": 88,
                    "time": 511.82219500000633,
                    "velocity": 0.3858267716535433,
                    "duration": 0.3759712500000205
                },
                {
                    "name": "E6",
                    "midi": 88,
                    "time": 512.1981662500064,
                    "velocity": 0.3228346456692913,
                    "duration": 0.12532375000000684
                },
                {
                    "name": "G6",
                    "midi": 91,
                    "time": 512.3234900000064,
                    "velocity": 0.4015748031496063,
                    "duration": 0.3759712500000205
                },
                {
                    "name": "F6",
                    "midi": 89,
                    "time": 512.6994612500064,
                    "velocity": 0.33070866141732286,
                    "duration": 0.12532375000000684
                },
                {
                    "name": "F6",
                    "midi": 89,
                    "time": 512.8247850000064,
                    "velocity": 0.3937007874015748,
                    "duration": 0.3759712500000205
                },
                {
                    "name": "F6",
                    "midi": 89,
                    "time": 513.2007562500064,
                    "velocity": 0.2992125984251969,
                    "duration": 0.12532375000000684
                },
                {
                    "name": "F6",
                    "midi": 89,
                    "time": 513.3260800000064,
                    "velocity": 0.3937007874015748,
                    "duration": 0.3759712500000205
                },
                {
                    "name": "E6",
                    "midi": 88,
                    "time": 513.7020512500064,
                    "velocity": 0.3228346456692913,
                    "duration": 0.12532375000000684
                },
                {
                    "name": "E6",
                    "midi": 88,
                    "time": 513.8273750000064,
                    "velocity": 0.3779527559055118,
                    "duration": 0.3759712500000205
                },
                {
                    "name": "E6",
                    "midi": 88,
                    "time": 514.2033462500065,
                    "velocity": 0.31496062992125984,
                    "duration": 0.12532375000000684
                },
                {
                    "name": "E6",
                    "midi": 88,
                    "time": 514.3286700000065,
                    "velocity": 0.3779527559055118,
                    "duration": 0.3759712500000205
                },
                {
                    "name": "B5",
                    "midi": 83,
                    "time": 514.7046412500065,
                    "velocity": 0.28346456692913385,
                    "duration": 0.12532375000000684
                },
                {
                    "name": "B5",
                    "midi": 83,
                    "time": 514.8299650000065,
                    "velocity": 0.3543307086614173,
                    "duration": 0.3759712500000205
                },
                {
                    "name": "B5",
                    "midi": 83,
                    "time": 515.2059362500065,
                    "velocity": 0.33070866141732286,
                    "duration": 0.12532375000000684
                },
                {
                    "name": "D6",
                    "midi": 86,
                    "time": 515.3312600000065,
                    "velocity": 0.4409448818897638,
                    "duration": 0.3759712500000205
                },
                {
                    "name": "C6",
                    "midi": 84,
                    "time": 515.7072312500065,
                    "velocity": 0.31496062992125984,
                    "duration": 0.12532375000000684
                },
                {
                    "name": "C6",
                    "midi": 84,
                    "time": 515.8325550000066,
                    "velocity": 0.3858267716535433,
                    "duration": 0.3759712500000205
                },
                {
                    "name": "E5",
                    "midi": 76,
                    "time": 516.2085262500066,
                    "velocity": 0.30708661417322836,
                    "duration": 0.12532375000000684
                },
                {
                    "name": "G5",
                    "midi": 79,
                    "time": 516.3338500000066,
                    "velocity": 0.3700787401574803,
                    "duration": 0.3759712500000205
                },
                {
                    "name": "F5",
                    "midi": 77,
                    "time": 516.7098212500066,
                    "velocity": 0.2755905511811024,
                    "duration": 0.12532375000000684
                },
                {
                    "name": "F5",
                    "midi": 77,
                    "time": 516.8351450000066,
                    "velocity": 0.3464566929133858,
                    "duration": 0.3759712500000205
                },
                {
                    "name": "F5",
                    "midi": 77,
                    "time": 517.2111162500066,
                    "velocity": 0.2992125984251969,
                    "duration": 0.12532375000000684
                },
                {
                    "name": "F5",
                    "midi": 77,
                    "time": 517.3364400000066,
                    "velocity": 0.36220472440944884,
                    "duration": 0.3759712500000205
                },
                {
                    "name": "E5",
                    "midi": 76,
                    "time": 517.7124112500067,
                    "velocity": 0.30708661417322836,
                    "duration": 0.12532375000000684
                },
                {
                    "name": "E5",
                    "midi": 76,
                    "time": 517.8377350000067,
                    "velocity": 0.36220472440944884,
                    "duration": 0.3759712500000205
                },
                {
                    "name": "E5",
                    "midi": 76,
                    "time": 518.2137062500067,
                    "velocity": 0.29133858267716534,
                    "duration": 0.12532375000000684
                },
                {
                    "name": "E5",
                    "midi": 76,
                    "time": 518.3390300000067,
                    "velocity": 0.3464566929133858,
                    "duration": 0.3759712500000205
                },
                {
                    "name": "B4",
                    "midi": 71,
                    "time": 518.7150012500067,
                    "velocity": 0.28346456692913385,
                    "duration": 0.12532375000000684
                },
                {
                    "name": "B4",
                    "midi": 71,
                    "time": 518.8403250000067,
                    "velocity": 0.3464566929133858,
                    "duration": 0.3759712500000205
                },
                {
                    "name": "B4",
                    "midi": 71,
                    "time": 519.2162962500067,
                    "velocity": 0.29133858267716534,
                    "duration": 0.12532375000000684
                },
                {
                    "name": "D5",
                    "midi": 74,
                    "time": 519.3416200000067,
                    "velocity": 0.36220472440944884,
                    "duration": 0.3759712500000205
                },
                {
                    "name": "C5",
                    "midi": 72,
                    "time": 519.7175912500068,
                    "velocity": 0.28346456692913385,
                    "duration": 0.12532375000000684
                },
                {
                    "name": "C5",
                    "midi": 72,
                    "time": 519.8429150000068,
                    "velocity": 0.3464566929133858,
                    "duration": 0.3759712500000205
                },
                {
                    "name": "C5",
                    "midi": 72,
                    "time": 520.2188862500068,
                    "velocity": 0.28346456692913385,
                    "duration": 0.12532375000000684
                },
                {
                    "name": "C5",
                    "midi": 72,
                    "time": 520.3442100000068,
                    "velocity": 0.33858267716535434,
                    "duration": 0.3759712500000205
                },
                {
                    "name": "E5",
                    "midi": 76,
                    "time": 520.7201812500068,
                    "velocity": 0.30708661417322836,
                    "duration": 0.12532375000000684
                },
                {
                    "name": "E5",
                    "midi": 76,
                    "time": 520.8455050000068,
                    "velocity": 0.3700787401574803,
                    "duration": 0.3759712500000205
                },
                {
                    "name": "E5",
                    "midi": 76,
                    "time": 521.2214762500068,
                    "velocity": 0.2992125984251969,
                    "duration": 0.12532375000000684
                },
                {
                    "name": "E5",
                    "midi": 76,
                    "time": 521.3468000000069,
                    "velocity": 0.3700787401574803,
                    "duration": 0.3759712500000205
                },
                {
                    "name": "G#4",
                    "midi": 68,
                    "time": 521.7227712500069,
                    "velocity": 0.2992125984251969,
                    "duration": 0.12532375000000684
                },
                {
                    "name": "G#4",
                    "midi": 68,
                    "time": 521.8480950000069,
                    "velocity": 0.3700787401574803,
                    "duration": 0.3759712500000205
                },
                {
                    "name": "G#4",
                    "midi": 68,
                    "time": 522.2240662500069,
                    "velocity": 0.29133858267716534,
                    "duration": 0.12532375000000684
                },
                {
                    "name": "G#4",
                    "midi": 68,
                    "time": 522.3493900000069,
                    "velocity": 0.3543307086614173,
                    "duration": 0.3759712500000205
                },
                {
                    "name": "E5",
                    "midi": 76,
                    "time": 522.7253612500069,
                    "velocity": 0.30708661417322836,
                    "duration": 0.12532375000000684
                },
                {
                    "name": "E5",
                    "midi": 76,
                    "time": 522.8506850000069,
                    "velocity": 0.3700787401574803,
                    "duration": 0.3759712500000205
                },
                {
                    "name": "E5",
                    "midi": 76,
                    "time": 523.226656250007,
                    "velocity": 0.29133858267716534,
                    "duration": 0.12532375000000684
                },
                {
                    "name": "E5",
                    "midi": 76,
                    "time": 523.351980000007,
                    "velocity": 0.3543307086614173,
                    "duration": 0.3759712500000205
                },
                {
                    "name": "A4",
                    "midi": 69,
                    "time": 523.727951250007,
                    "velocity": 0.25196850393700787,
                    "duration": 0.12532375000000684
                },
                {
                    "name": "A4",
                    "midi": 69,
                    "time": 523.853275000007,
                    "velocity": 0.31496062992125984,
                    "duration": 0.3759712500000205
                },
                {
                    "name": "A4",
                    "midi": 69,
                    "time": 524.229246250007,
                    "velocity": 0.25196850393700787,
                    "duration": 0.12532375000000684
                },
                {
                    "name": "A4",
                    "midi": 69,
                    "time": 524.354570000007,
                    "velocity": 0.30708661417322836,
                    "duration": 0.3759712500000205
                },
                {
                    "name": "E5",
                    "midi": 76,
                    "time": 524.730541250007,
                    "velocity": 0.2677165354330709,
                    "duration": 0.12532375000000684
                },
                {
                    "name": "E5",
                    "midi": 76,
                    "time": 524.855865000007,
                    "velocity": 0.30708661417322836,
                    "duration": 0.3759712500000205
                },
                {
                    "name": "E5",
                    "midi": 76,
                    "time": 525.2318362500071,
                    "velocity": 0.2677165354330709,
                    "duration": 0.12532375000000684
                },
                {
                    "name": "E5",
                    "midi": 76,
                    "time": 525.3571600000071,
                    "velocity": 0.3228346456692913,
                    "duration": 0.3759712500000205
                },
                {
                    "name": "B4",
                    "midi": 71,
                    "time": 525.7331312500071,
                    "velocity": 0.25984251968503935,
                    "duration": 0.12532375000000684
                },
                {
                    "name": "B4",
                    "midi": 71,
                    "time": 525.8584550000071,
                    "velocity": 0.29133858267716534,
                    "duration": 0.3759712500000205
                },
                {
                    "name": "B4",
                    "midi": 71,
                    "time": 526.2344262500071,
                    "velocity": 0.25196850393700787,
                    "duration": 0.12532375000000684
                },
                {
                    "name": "B4",
                    "midi": 71,
                    "time": 526.3597500000071,
                    "velocity": 0.29133858267716534,
                    "duration": 0.3759712500000205
                },
                {
                    "name": "F5",
                    "midi": 77,
                    "time": 526.7357212500071,
                    "velocity": 0.2283464566929134,
                    "duration": 0.12532375000000684
                },
                {
                    "name": "F5",
                    "midi": 77,
                    "time": 526.8610450000072,
                    "velocity": 0.2677165354330709,
                    "duration": 0.3759712500000205
                },
                {
                    "name": "F5",
                    "midi": 77,
                    "time": 527.2370162500072,
                    "velocity": 0.23622047244094488,
                    "duration": 0.12532375000000684
                },
                {
                    "name": "G#4",
                    "midi": 68,
                    "time": 527.3623400000072,
                    "velocity": 0.29133858267716534,
                    "duration": 1.0025900000000547
                },
                {
                    "name": "D5",
                    "midi": 74,
                    "time": 527.3623400000072,
                    "velocity": 0.29133858267716534,
                    "duration": 1.0025900000000547
                },
                {
                    "name": "E5",
                    "midi": 76,
                    "time": 527.3623400000072,
                    "velocity": 0.29133858267716534,
                    "duration": 1.0025900000000547
                },
                {
                    "name": "F4",
                    "midi": 65,
                    "time": 530.7460812500073,
                    "velocity": 0.25196850393700787,
                    "duration": 0.12532375000000684
                },
                {
                    "name": "F4",
                    "midi": 65,
                    "time": 530.8714050000073,
                    "velocity": 0.28346456692913385,
                    "duration": 0.3759712500000205
                },
                {
                    "name": "F4",
                    "midi": 65,
                    "time": 531.2473762500073,
                    "velocity": 0.25196850393700787,
                    "duration": 0.12532375000000684
                },
                {
                    "name": "G#3",
                    "midi": 56,
                    "time": 531.3727000000073,
                    "velocity": 0.28346456692913385,
                    "duration": 1.0025900000000547
                },
                {
                    "name": "D4",
                    "midi": 62,
                    "time": 531.3727000000073,
                    "velocity": 0.28346456692913385,
                    "duration": 1.0025900000000547
                },
                {
                    "name": "E4",
                    "midi": 64,
                    "time": 531.3727000000073,
                    "velocity": 0.28346456692913385,
                    "duration": 1.0025900000000547
                },
                {
                    "name": "A4",
                    "midi": 69,
                    "time": 537.3882400000074,
                    "velocity": 0.3937007874015748,
                    "duration": 1.0025900000000547
                },
                {
                    "name": "E5",
                    "midi": 76,
                    "time": 538.3908300000074,
                    "velocity": 0.3937007874015748,
                    "duration": 1.0025900000000547
                },
                {
                    "name": "D#5",
                    "midi": 75,
                    "time": 539.3934200000075,
                    "velocity": 0.41732283464566927,
                    "duration": 1.0025900000000547
                },
                {
                    "name": "E5",
                    "midi": 76,
                    "time": 540.3960100000075,
                    "velocity": 0.3700787401574803,
                    "duration": 0.20887291666667807
                },
                {
                    "name": "C5",
                    "midi": 72,
                    "time": 540.8973050000076,
                    "velocity": 0.3858267716535433,
                    "duration": 0.3968585416666883
                },
                {
                    "name": "B4",
                    "midi": 71,
                    "time": 541.2732762500076,
                    "velocity": 0.3700787401574803,
                    "duration": 0.14621104166667465
                },
                {
                    "name": "A4",
                    "midi": 69,
                    "time": 541.3986000000076,
                    "velocity": 0.3779527559055118,
                    "duration": 1.0025900000000547
                },
                {
                    "name": "E4",
                    "midi": 64,
                    "time": 542.4011900000077,
                    "velocity": 0.4566929133858268,
                    "duration": 1.0025900000000547
                },
                {
                    "name": "G#3",
                    "midi": 56,
                    "time": 542.4011900000077,
                    "velocity": 0.4566929133858268,
                    "duration": 1.0025900000000547
                },
                {
                    "name": "B3",
                    "midi": 59,
                    "time": 542.4011900000077,
                    "velocity": 0.4566929133858268,
                    "duration": 1.0025900000000547
                },
                {
                    "name": "C4",
                    "midi": 60,
                    "time": 543.4037800000077,
                    "velocity": 0.4094488188976378,
                    "duration": 1.0025900000000547
                },
                {
                    "name": "A3",
                    "midi": 57,
                    "time": 544.4063700000078,
                    "velocity": 0.4015748031496063,
                    "duration": 0.18798562500001026
                },
                {
                    "name": "A3",
                    "midi": 57,
                    "time": 545.4089600000078,
                    "velocity": 0.3937007874015748,
                    "duration": 1.0025900000000547
                },
                {
                    "name": "F4",
                    "midi": 65,
                    "time": 546.4115500000079,
                    "velocity": 0.47244094488188976,
                    "duration": 1.0025900000000547
                },
                {
                    "name": "A3",
                    "midi": 57,
                    "time": 546.4115500000079,
                    "velocity": 0.47244094488188976,
                    "duration": 1.0025900000000547
                },
                {
                    "name": "A#3",
                    "midi": 58,
                    "time": 547.4141400000079,
                    "velocity": 0.5275590551181102,
                    "duration": 1.0025900000000547
                },
                {
                    "name": "G4",
                    "midi": 67,
                    "time": 547.4141400000079,
                    "velocity": 0.5275590551181102,
                    "duration": 1.0025900000000547
                },
                {
                    "name": "A3",
                    "midi": 57,
                    "time": 548.416730000008,
                    "velocity": 0.4251968503937008,
                    "duration": 0.20887291666667807
                },
                {
                    "name": "F4",
                    "midi": 65,
                    "time": 548.416730000008,
                    "velocity": 0.4251968503937008,
                    "duration": 0.20887291666667807
                },
                {
                    "name": "A3",
                    "midi": 57,
                    "time": 548.918025000008,
                    "velocity": 0.4015748031496063,
                    "duration": 0.3968585416666883
                },
                {
                    "name": "B3",
                    "midi": 59,
                    "time": 549.293996250008,
                    "velocity": 0.4251968503937008,
                    "duration": 0.14621104166667465
                },
                {
                    "name": "C4",
                    "midi": 60,
                    "time": 549.419320000008,
                    "velocity": 0.4094488188976378,
                    "duration": 1.0025900000000547
                },
                {
                    "name": "G#3",
                    "midi": 56,
                    "time": 550.4219100000081,
                    "velocity": 0.47244094488188976,
                    "duration": 1.0025900000000547
                },
                {
                    "name": "B3",
                    "midi": 59,
                    "time": 550.4219100000081,
                    "velocity": 0.47244094488188976,
                    "duration": 1.0025900000000547
                },
                {
                    "name": "E4",
                    "midi": 64,
                    "time": 550.4219100000081,
                    "velocity": 0.47244094488188976,
                    "duration": 1.0025900000000547
                },
                {
                    "name": "C4",
                    "midi": 60,
                    "time": 551.4245000000082,
                    "velocity": 0.3937007874015748,
                    "duration": 1.0025900000000547
                },
                {
                    "name": "A3",
                    "midi": 57,
                    "time": 552.4270900000082,
                    "velocity": 0.3937007874015748,
                    "duration": 0.20887291666667807
                },
                {
                    "name": "A3",
                    "midi": 57,
                    "time": 553.4296800000083,
                    "velocity": 0.36220472440944884,
                    "duration": 1.0025900000000547
                },
                {
                    "name": "D4",
                    "midi": 62,
                    "time": 553.4296800000083,
                    "velocity": 0.36220472440944884,
                    "duration": 1.0025900000000547
                },
                {
                    "name": "A4",
                    "midi": 69,
                    "time": 553.4296800000083,
                    "velocity": 0.36220472440944884,
                    "duration": 1.0025900000000547
                },
                {
                    "name": "F4",
                    "midi": 65,
                    "time": 553.4296800000083,
                    "velocity": 0.36220472440944884,
                    "duration": 1.0025900000000547
                },
                {
                    "name": "A3",
                    "midi": 57,
                    "time": 554.4322700000083,
                    "velocity": 0.29133858267716534,
                    "duration": 0.12532375000000684
                },
                {
                    "name": "C4",
                    "midi": 60,
                    "time": 555.4348600000084,
                    "velocity": 0.3700787401574803,
                    "duration": 1.0025900000000547
                },
                {
                    "name": "A4",
                    "midi": 69,
                    "time": 555.4348600000084,
                    "velocity": 0.3700787401574803,
                    "duration": 1.0025900000000547
                },
                {
                    "name": "E4",
                    "midi": 64,
                    "time": 555.4348600000084,
                    "velocity": 0.3700787401574803,
                    "duration": 1.0025900000000547
                },
                {
                    "name": "A3",
                    "midi": 57,
                    "time": 555.4348600000084,
                    "velocity": 0.3700787401574803,
                    "duration": 1.0025900000000547
                },
                {
                    "name": "A3",
                    "midi": 57,
                    "time": 556.4374500000084,
                    "velocity": 0.31496062992125984,
                    "duration": 0.12532375000000684
                },
                {
                    "name": "D4",
                    "midi": 62,
                    "time": 557.4400400000085,
                    "velocity": 0.3700787401574803,
                    "duration": 1.0025900000000547
                },
                {
                    "name": "A4",
                    "midi": 69,
                    "time": 557.4400400000085,
                    "velocity": 0.3700787401574803,
                    "duration": 1.0025900000000547
                },
                {
                    "name": "F4",
                    "midi": 65,
                    "time": 557.4400400000085,
                    "velocity": 0.3700787401574803,
                    "duration": 1.0025900000000547
                },
                {
                    "name": "A3",
                    "midi": 57,
                    "time": 557.4400400000085,
                    "velocity": 0.3700787401574803,
                    "duration": 1.0025900000000547
                },
                {
                    "name": "A3",
                    "midi": 57,
                    "time": 558.4426300000085,
                    "velocity": 0.30708661417322836,
                    "duration": 0.12532375000000684
                },
                {
                    "name": "A4",
                    "midi": 69,
                    "time": 559.4452200000086,
                    "velocity": 0.3543307086614173,
                    "duration": 1.0025900000000547
                },
                {
                    "name": "A3",
                    "midi": 57,
                    "time": 559.4452200000086,
                    "velocity": 0.3543307086614173,
                    "duration": 1.0025900000000547
                },
                {
                    "name": "C4",
                    "midi": 60,
                    "time": 559.4452200000086,
                    "velocity": 0.3543307086614173,
                    "duration": 1.0025900000000547
                },
                {
                    "name": "A3",
                    "midi": 57,
                    "time": 560.4478100000086,
                    "velocity": 0.30708661417322836,
                    "duration": 0.12532375000000684
                },
                {
                    "name": "D4",
                    "midi": 62,
                    "time": 561.4504000000087,
                    "velocity": 0.3700787401574803,
                    "duration": 1.0025900000000547
                },
                {
                    "name": "A4",
                    "midi": 69,
                    "time": 561.4504000000087,
                    "velocity": 0.3700787401574803,
                    "duration": 1.0025900000000547
                },
                {
                    "name": "A3",
                    "midi": 57,
                    "time": 561.4504000000087,
                    "velocity": 0.3700787401574803,
                    "duration": 1.0025900000000547
                },
                {
                    "name": "A3",
                    "midi": 57,
                    "time": 562.4529900000088,
                    "velocity": 0.31496062992125984,
                    "duration": 0.12532375000000684
                },
                {
                    "name": "C4",
                    "midi": 60,
                    "time": 563.4555800000088,
                    "velocity": 0.3543307086614173,
                    "duration": 1.0025900000000547
                },
                {
                    "name": "A3",
                    "midi": 57,
                    "time": 563.4555800000088,
                    "velocity": 0.3543307086614173,
                    "duration": 1.0025900000000547
                },
                {
                    "name": "A4",
                    "midi": 69,
                    "time": 563.4555800000088,
                    "velocity": 0.3543307086614173,
                    "duration": 1.0025900000000547
                },
                {
                    "name": "A3",
                    "midi": 57,
                    "time": 564.4581700000089,
                    "velocity": 0.29133858267716534,
                    "duration": 0.12532375000000684
                },
                {
                    "name": "F5",
                    "midi": 77,
                    "time": 565.4607600000089,
                    "velocity": 0.5433070866141733,
                    "duration": 1.0025900000000547
                },
                {
                    "name": "A5",
                    "midi": 81,
                    "time": 565.4607600000089,
                    "velocity": 0.5433070866141733,
                    "duration": 1.0025900000000547
                },
                {
                    "name": "D5",
                    "midi": 74,
                    "time": 565.4607600000089,
                    "velocity": 0.5433070866141733,
                    "duration": 1.0025900000000547
                },
                {
                    "name": "A4",
                    "midi": 69,
                    "time": 565.4607600000089,
                    "velocity": 0.5433070866141733,
                    "duration": 1.0025900000000547
                },
                {
                    "name": "A4",
                    "midi": 69,
                    "time": 566.463350000009,
                    "velocity": 0.4409448818897638,
                    "duration": 0.18798562500001026
                },
                {
                    "name": "C5",
                    "midi": 72,
                    "time": 567.465940000009,
                    "velocity": 0.5511811023622047,
                    "duration": 1.0025900000000547
                },
                {
                    "name": "A5",
                    "midi": 81,
                    "time": 567.465940000009,
                    "velocity": 0.5511811023622047,
                    "duration": 1.0025900000000547
                },
                {
                    "name": "A4",
                    "midi": 69,
                    "time": 567.465940000009,
                    "velocity": 0.5511811023622047,
                    "duration": 1.0025900000000547
                },
                {
                    "name": "A4",
                    "midi": 69,
                    "time": 568.4685300000091,
                    "velocity": 0.4251968503937008,
                    "duration": 0.12532375000000684
                },
                {
                    "name": "B4",
                    "midi": 71,
                    "time": 569.4711200000091,
                    "velocity": 0.5826771653543307,
                    "duration": 1.0025900000000547
                },
                {
                    "name": "E5",
                    "midi": 76,
                    "time": 569.4711200000091,
                    "velocity": 0.5826771653543307,
                    "duration": 1.0025900000000547
                },
                {
                    "name": "G5",
                    "midi": 79,
                    "time": 569.4711200000091,
                    "velocity": 0.5826771653543307,
                    "duration": 1.0025900000000547
                },
                {
                    "name": "G4",
                    "midi": 67,
                    "time": 570.4737100000092,
                    "velocity": 0.5748031496062992,
                    "duration": 0.18798562500001026
                },
                {
                    "name": "D#5",
                    "midi": 75,
                    "time": 571.4763000000092,
                    "velocity": 0.6456692913385826,
                    "duration": 0.9190408333333835
                },
                {
                    "name": "F#4",
                    "midi": 66,
                    "time": 571.4763000000092,
                    "velocity": 0.6456692913385826,
                    "duration": 0.9190408333333835
                },
                {
                    "name": "F#5",
                    "midi": 78,
                    "time": 571.4763000000092,
                    "velocity": 0.6456692913385826,
                    "duration": 0.9190408333333835
                },
                {
                    "name": "B4",
                    "midi": 71,
                    "time": 572.4788900000093,
                    "velocity": 0.5984251968503937,
                    "duration": 0.9190408333333835
                },
                {
                    "name": "B5",
                    "midi": 83,
                    "time": 572.4788900000093,
                    "velocity": 0.5984251968503937,
                    "duration": 0.9190408333333835
                },
                {
                    "name": "D#5",
                    "midi": 75,
                    "time": 572.4788900000093,
                    "velocity": 0.5984251968503937,
                    "duration": 0.9190408333333835
                },
                {
                    "name": "G4",
                    "midi": 67,
                    "time": 573.4814800000094,
                    "velocity": 0.5748031496062992,
                    "duration": 1.0025900000000547
                },
                {
                    "name": "G5",
                    "midi": 79,
                    "time": 573.4814800000094,
                    "velocity": 0.5748031496062992,
                    "duration": 1.0025900000000547
                },
                {
                    "name": "E4",
                    "midi": 64,
                    "time": 574.4840700000094,
                    "velocity": 0.47244094488188976,
                    "duration": 0.20887291666667807
                },
                {
                    "name": "E5",
                    "midi": 76,
                    "time": 574.4840700000094,
                    "velocity": 0.47244094488188976,
                    "duration": 0.20887291666667807
                },
                {
                    "name": "F#4",
                    "midi": 66,
                    "time": 575.4866600000095,
                    "velocity": 0.2992125984251969,
                    "duration": 0.9190408333333835
                },
                {
                    "name": "F#3",
                    "midi": 54,
                    "time": 575.4866600000095,
                    "velocity": 0.2992125984251969,
                    "duration": 0.9190408333333835
                },
                {
                    "name": "D#4",
                    "midi": 63,
                    "time": 575.4866600000095,
                    "velocity": 0.2992125984251969,
                    "duration": 0.9190408333333835
                },
                {
                    "name": "B3",
                    "midi": 59,
                    "time": 576.4892500000095,
                    "velocity": 0.28346456692913385,
                    "duration": 0.9190408333333835
                },
                {
                    "name": "D#4",
                    "midi": 63,
                    "time": 576.4892500000095,
                    "velocity": 0.28346456692913385,
                    "duration": 0.9190408333333835
                },
                {
                    "name": "B4",
                    "midi": 71,
                    "time": 576.4892500000095,
                    "velocity": 0.28346456692913385,
                    "duration": 0.9190408333333835
                },
                {
                    "name": "G4",
                    "midi": 67,
                    "time": 577.4918400000096,
                    "velocity": 0.29133858267716534,
                    "duration": 1.0025900000000547
                },
                {
                    "name": "G3",
                    "midi": 55,
                    "time": 577.4918400000096,
                    "velocity": 0.29133858267716534,
                    "duration": 1.0025900000000547
                },
                {
                    "name": "E3",
                    "midi": 52,
                    "time": 578.4944300000096,
                    "velocity": 0.2440944881889764,
                    "duration": 0.20887291666667807
                },
                {
                    "name": "E4",
                    "midi": 64,
                    "time": 578.4944300000096,
                    "velocity": 0.2440944881889764,
                    "duration": 0.20887291666667807
                },
                {
                    "name": "G3",
                    "midi": 55,
                    "time": 579.4970200000097,
                    "velocity": 0.29133858267716534,
                    "duration": 1.0025900000000547
                },
                {
                    "name": "G4",
                    "midi": 67,
                    "time": 579.4970200000097,
                    "velocity": 0.29133858267716534,
                    "duration": 1.0025900000000547
                },
                {
                    "name": "E3",
                    "midi": 52,
                    "time": 580.4996100000097,
                    "velocity": 0.25984251968503935,
                    "duration": 0.12532375000000684
                },
                {
                    "name": "E4",
                    "midi": 64,
                    "time": 580.4996100000097,
                    "velocity": 0.25984251968503935,
                    "duration": 0.12532375000000684
                },
                {
                    "name": "F4",
                    "midi": 65,
                    "time": 581.5022000000098,
                    "velocity": 0.3779527559055118,
                    "duration": 1.0025900000000547
                },
                {
                    "name": "F3",
                    "midi": 53,
                    "time": 581.5022000000098,
                    "velocity": 0.3779527559055118,
                    "duration": 1.0025900000000547
                },
                {
                    "name": "D3",
                    "midi": 50,
                    "time": 582.5047900000098,
                    "velocity": 0.33070866141732286,
                    "duration": 0.12532375000000684
                },
                {
                    "name": "D4",
                    "midi": 62,
                    "time": 582.5047900000098,
                    "velocity": 0.33070866141732286,
                    "duration": 0.12532375000000684
                },
                {
                    "name": "E3",
                    "midi": 52,
                    "time": 583.5073800000099,
                    "velocity": 0.44881889763779526,
                    "duration": 1.0025900000000547
                },
                {
                    "name": "E4",
                    "midi": 64,
                    "time": 583.5073800000099,
                    "velocity": 0.44881889763779526,
                    "duration": 1.0025900000000547
                },
                {
                    "name": "C3",
                    "midi": 48,
                    "time": 584.50997000001,
                    "velocity": 0.4094488188976378,
                    "duration": 0.12532375000000684
                },
                {
                    "name": "C4",
                    "midi": 60,
                    "time": 584.50997000001,
                    "velocity": 0.4094488188976378,
                    "duration": 0.12532375000000684
                },
                {
                    "name": "D4",
                    "midi": 62,
                    "time": 585.51256000001,
                    "velocity": 0.5984251968503937,
                    "duration": 1.0025900000000547
                },
                {
                    "name": "D3",
                    "midi": 50,
                    "time": 585.51256000001,
                    "velocity": 0.5984251968503937,
                    "duration": 1.0025900000000547
                },
                {
                    "name": "B2",
                    "midi": 47,
                    "time": 586.5151500000101,
                    "velocity": 0.5275590551181102,
                    "duration": 0.12532375000000684
                },
                {
                    "name": "B3",
                    "midi": 59,
                    "time": 586.5151500000101,
                    "velocity": 0.5275590551181102,
                    "duration": 0.12532375000000684
                },
                {
                    "name": "A3",
                    "midi": 57,
                    "time": 587.5177400000101,
                    "velocity": 0.7952755905511811,
                    "duration": 1.0025900000000547
                },
                {
                    "name": "A4",
                    "midi": 69,
                    "time": 587.5177400000101,
                    "velocity": 0.7952755905511811,
                    "duration": 1.0025900000000547
                },
                {
                    "name": "E4",
                    "midi": 64,
                    "time": 588.5203300000102,
                    "velocity": 0.7322834645669292,
                    "duration": 1.0025900000000547
                },
                {
                    "name": "E5",
                    "midi": 76,
                    "time": 588.5203300000102,
                    "velocity": 0.7322834645669292,
                    "duration": 1.0025900000000547
                },
                {
                    "name": "D#5",
                    "midi": 75,
                    "time": 589.5229200000102,
                    "velocity": 0.7007874015748031,
                    "duration": 1.0025900000000547
                },
                {
                    "name": "D#4",
                    "midi": 63,
                    "time": 589.5229200000102,
                    "velocity": 0.7007874015748031,
                    "duration": 1.0025900000000547
                },
                {
                    "name": "E5",
                    "midi": 76,
                    "time": 590.5255100000103,
                    "velocity": 0.5905511811023622,
                    "duration": 0.2506475000000137
                },
                {
                    "name": "E4",
                    "midi": 64,
                    "time": 590.5255100000103,
                    "velocity": 0.5905511811023622,
                    "duration": 0.2506475000000137
                },
                {
                    "name": "C3",
                    "midi": 48,
                    "time": 591.0268050000103,
                    "velocity": 0.5354330708661418,
                    "duration": 0.3341966666666849
                },
                {
                    "name": "E3",
                    "midi": 52,
                    "time": 591.0268050000103,
                    "velocity": 0.5354330708661418,
                    "duration": 0.3341966666666849
                },
                {
                    "name": "G#3",
                    "midi": 56,
                    "time": 591.4027762500103,
                    "velocity": 0.48031496062992124,
                    "duration": 0.10443645833333903
                },
                {
                    "name": "D3",
                    "midi": 50,
                    "time": 591.4027762500103,
                    "velocity": 0.48031496062992124,
                    "duration": 0.10443645833333903
                },
                {
                    "name": "E3",
                    "midi": 52,
                    "time": 591.5281000000103,
                    "velocity": 0.5039370078740157,
                    "duration": 0.3341966666666849
                },
                {
                    "name": "A3",
                    "midi": 57,
                    "time": 591.5281000000103,
                    "velocity": 0.5039370078740157,
                    "duration": 0.3341966666666849
                },
                {
                    "name": "B3",
                    "midi": 59,
                    "time": 591.9040712500104,
                    "velocity": 0.49606299212598426,
                    "duration": 0.10443645833333903
                },
                {
                    "name": "F3",
                    "midi": 53,
                    "time": 591.9040712500104,
                    "velocity": 0.49606299212598426,
                    "duration": 0.10443645833333903
                },
                {
                    "name": "G3",
                    "midi": 55,
                    "time": 592.0293950000104,
                    "velocity": 0.5118110236220472,
                    "duration": 0.3341966666666849
                },
                {
                    "name": "C4",
                    "midi": 60,
                    "time": 592.0293950000104,
                    "velocity": 0.5118110236220472,
                    "duration": 0.3341966666666849
                },
                {
                    "name": "A3",
                    "midi": 57,
                    "time": 592.4053662500104,
                    "velocity": 0.5275590551181102,
                    "duration": 0.10443645833333903
                },
                {
                    "name": "D4",
                    "midi": 62,
                    "time": 592.4053662500104,
                    "velocity": 0.5275590551181102,
                    "duration": 0.10443645833333903
                },
                {
                    "name": "G3",
                    "midi": 55,
                    "time": 592.5306900000104,
                    "velocity": 0.5511811023622047,
                    "duration": 0.3341966666666849
                },
                {
                    "name": "C4",
                    "midi": 60,
                    "time": 592.5306900000104,
                    "velocity": 0.5511811023622047,
                    "duration": 0.3341966666666849
                },
                {
                    "name": "D4",
                    "midi": 62,
                    "time": 592.9066612500104,
                    "velocity": 0.5275590551181102,
                    "duration": 0.10443645833333903
                },
                {
                    "name": "A3",
                    "midi": 57,
                    "time": 592.9066612500104,
                    "velocity": 0.4330708661417323,
                    "duration": 0.10443645833333903
                },
                {
                    "name": "B3",
                    "midi": 59,
                    "time": 593.0319850000104,
                    "velocity": 0.5511811023622047,
                    "duration": 0.3341966666666849
                },
                {
                    "name": "E4",
                    "midi": 64,
                    "time": 593.0319850000104,
                    "velocity": 0.5511811023622047,
                    "duration": 0.3341966666666849
                },
                {
                    "name": "F4",
                    "midi": 65,
                    "time": 593.4079562500104,
                    "velocity": 0.5275590551181102,
                    "duration": 0.10443645833333903
                },
                {
                    "name": "C4",
                    "midi": 60,
                    "time": 593.4079562500104,
                    "velocity": 0.4409448818897638,
                    "duration": 0.10443645833333903
                },
                {
                    "name": "B3",
                    "midi": 59,
                    "time": 593.5332800000104,
                    "velocity": 0.5590551181102362,
                    "duration": 0.3341966666666849
                },
                {
                    "name": "E4",
                    "midi": 64,
                    "time": 593.5332800000104,
                    "velocity": 0.5590551181102362,
                    "duration": 0.3341966666666849
                },
                {
                    "name": "A3",
                    "midi": 57,
                    "time": 593.9092512500105,
                    "velocity": 0.47244094488188976,
                    "duration": 0.10443645833333903
                },
                {
                    "name": "D4",
                    "midi": 62,
                    "time": 593.9092512500105,
                    "velocity": 0.5511811023622047,
                    "duration": 0.10443645833333903
                },
                {
                    "name": "G3",
                    "midi": 55,
                    "time": 594.0345750000105,
                    "velocity": 0.5748031496062992,
                    "duration": 0.3341966666666849
                },
                {
                    "name": "C4",
                    "midi": 60,
                    "time": 594.0345750000105,
                    "velocity": 0.5748031496062992,
                    "duration": 0.3341966666666849
                },
                {
                    "name": "F3",
                    "midi": 53,
                    "time": 594.4105462500105,
                    "velocity": 0.47244094488188976,
                    "duration": 0.10443645833333903
                },
                {
                    "name": "B3",
                    "midi": 59,
                    "time": 594.4105462500105,
                    "velocity": 0.5511811023622047,
                    "duration": 0.10443645833333903
                },
                {
                    "name": "A3",
                    "midi": 57,
                    "time": 594.5358700000105,
                    "velocity": 0.5748031496062992,
                    "duration": 0.3341966666666849
                },
                {
                    "name": "E3",
                    "midi": 52,
                    "time": 594.5358700000105,
                    "velocity": 0.5748031496062992,
                    "duration": 0.3341966666666849
                },
                {
                    "name": "G#3",
                    "midi": 56,
                    "time": 594.9118412500105,
                    "velocity": 0.6062992125984252,
                    "duration": 0.10443645833333903
                },
                {
                    "name": "E3",
                    "midi": 52,
                    "time": 594.9118412500105,
                    "velocity": 0.5039370078740157,
                    "duration": 0.10443645833333903
                },
                {
                    "name": "E3",
                    "midi": 52,
                    "time": 595.0371650000105,
                    "velocity": 0.5354330708661418,
                    "duration": 0.12532375000000684
                },
                {
                    "name": "A3",
                    "midi": 57,
                    "time": 595.0371650000105,
                    "velocity": 0.6456692913385826,
                    "duration": 0.12532375000000684
                },
                {
                    "name": "A3",
                    "midi": 57,
                    "time": 595.5384600000106,
                    "velocity": 0.7874015748031497,
                    "duration": 1.0025900000000547
                },
                {
                    "name": "A4",
                    "midi": 69,
                    "time": 595.5384600000106,
                    "velocity": 0.7874015748031497,
                    "duration": 1.0025900000000547
                },
                {
                    "name": "F5",
                    "midi": 77,
                    "time": 596.5410500000106,
                    "velocity": 0.7322834645669292,
                    "duration": 1.0025900000000547
                },
                {
                    "name": "A4",
                    "midi": 69,
                    "time": 596.5410500000106,
                    "velocity": 0.7322834645669292,
                    "duration": 1.0025900000000547
                },
                {
                    "name": "A5",
                    "midi": 81,
                    "time": 596.5410500000106,
                    "velocity": 0.7322834645669292,
                    "duration": 1.0025900000000547
                },
                {
                    "name": "G5",
                    "midi": 79,
                    "time": 597.5436400000107,
                    "velocity": 0.7716535433070866,
                    "duration": 1.0025900000000547
                },
                {
                    "name": "A4",
                    "midi": 69,
                    "time": 597.5436400000107,
                    "velocity": 0.7716535433070866,
                    "duration": 1.2532375000000684
                },
                {
                    "name": "A#5",
                    "midi": 82,
                    "time": 597.5436400000107,
                    "velocity": 0.7716535433070866,
                    "duration": 1.0025900000000547
                },
                {
                    "name": "F5",
                    "midi": 77,
                    "time": 598.5462300000107,
                    "velocity": 0.7007874015748031,
                    "duration": 0.2506475000000137
                },
                {
                    "name": "A5",
                    "midi": 81,
                    "time": 598.5462300000107,
                    "velocity": 0.7007874015748031,
                    "duration": 0.2506475000000137
                },
                {
                    "name": "F3",
                    "midi": 53,
                    "time": 599.0475250000108,
                    "velocity": 0.5275590551181102,
                    "duration": 0.3341966666666849
                },
                {
                    "name": "A3",
                    "midi": 57,
                    "time": 599.0475250000108,
                    "velocity": 0.5275590551181102,
                    "duration": 0.3341966666666849
                },
                {
                    "name": "G3",
                    "midi": 55,
                    "time": 599.4234962500108,
                    "velocity": 0.4881889763779528,
                    "duration": 0.10443645833333903
                },
                {
                    "name": "C#4",
                    "midi": 61,
                    "time": 599.4234962500108,
                    "velocity": 0.4881889763779528,
                    "duration": 0.10443645833333903
                },
                {
                    "name": "D4",
                    "midi": 62,
                    "time": 599.5488200000108,
                    "velocity": 0.5196850393700787,
                    "duration": 0.3341966666666849
                },
                {
                    "name": "A3",
                    "midi": 57,
                    "time": 599.5488200000108,
                    "velocity": 0.5196850393700787,
                    "duration": 0.3341966666666849
                },
                {
                    "name": "A#3",
                    "midi": 58,
                    "time": 599.9247912500108,
                    "velocity": 0.5039370078740157,
                    "duration": 0.10443645833333903
                },
                {
                    "name": "E4",
                    "midi": 64,
                    "time": 599.9247912500108,
                    "velocity": 0.5039370078740157,
                    "duration": 0.10443645833333903
                },
                {
                    "name": "F4",
                    "midi": 65,
                    "time": 600.0501150000108,
                    "velocity": 0.5275590551181102,
                    "duration": 0.3341966666666849
                },
                {
                    "name": "C4",
                    "midi": 60,
                    "time": 600.0501150000108,
                    "velocity": 0.5275590551181102,
                    "duration": 0.3341966666666849
                },
                {
                    "name": "D4",
                    "midi": 62,
                    "time": 600.4260862500108,
                    "velocity": 0.5039370078740157,
                    "duration": 0.10443645833333903
                },
                {
                    "name": "G4",
                    "midi": 67,
                    "time": 600.4260862500108,
                    "velocity": 0.5039370078740157,
                    "duration": 0.10443645833333903
                },
                {
                    "name": "C4",
                    "midi": 60,
                    "time": 600.5514100000108,
                    "velocity": 0.5354330708661418,
                    "duration": 0.3341966666666849
                },
                {
                    "name": "F4",
                    "midi": 65,
                    "time": 600.5514100000108,
                    "velocity": 0.5354330708661418,
                    "duration": 0.3341966666666849
                },
                {
                    "name": "D4",
                    "midi": 62,
                    "time": 600.9273812500109,
                    "velocity": 0.4330708661417323,
                    "duration": 0.10443645833333903
                },
                {
                    "name": "G4",
                    "midi": 67,
                    "time": 600.9273812500109,
                    "velocity": 0.5275590551181102,
                    "duration": 0.10443645833333903
                },
                {
                    "name": "A4",
                    "midi": 69,
                    "time": 601.0527050000109,
                    "velocity": 0.5590551181102362,
                    "duration": 0.3341966666666849
                },
                {
                    "name": "E4",
                    "midi": 64,
                    "time": 601.0527050000109,
                    "velocity": 0.5590551181102362,
                    "duration": 0.3341966666666849
                },
                {
                    "name": "F4",
                    "midi": 65,
                    "time": 601.4286762500109,
                    "velocity": 0.4409448818897638,
                    "duration": 0.10443645833333903
                },
                {
                    "name": "A#4",
                    "midi": 70,
                    "time": 601.4286762500109,
                    "velocity": 0.5275590551181102,
                    "duration": 0.10443645833333903
                },
                {
                    "name": "A4",
                    "midi": 69,
                    "time": 601.5540000000109,
                    "velocity": 0.5669291338582677,
                    "duration": 0.3341966666666849
                },
                {
                    "name": "E4",
                    "midi": 64,
                    "time": 601.5540000000109,
                    "velocity": 0.5669291338582677,
                    "duration": 0.3341966666666849
                },
                {
                    "name": "D4",
                    "midi": 62,
                    "time": 601.9299712500109,
                    "velocity": 0.47244094488188976,
                    "duration": 0.10443645833333903
                },
                {
                    "name": "G4",
                    "midi": 67,
                    "time": 601.9299712500109,
                    "velocity": 0.5511811023622047,
                    "duration": 0.10443645833333903
                },
                {
                    "name": "C4",
                    "midi": 60,
                    "time": 602.0552950000109,
                    "velocity": 0.5826771653543307,
                    "duration": 0.3341966666666849
                },
                {
                    "name": "F4",
                    "midi": 65,
                    "time": 602.0552950000109,
                    "velocity": 0.5826771653543307,
                    "duration": 0.3341966666666849
                },
                {
                    "name": "A#3",
                    "midi": 58,
                    "time": 602.4312662500109,
                    "velocity": 0.47244094488188976,
                    "duration": 0.10443645833333903
                },
                {
                    "name": "E4",
                    "midi": 64,
                    "time": 602.4312662500109,
                    "velocity": 0.5511811023622047,
                    "duration": 0.10443645833333903
                },
                {
                    "name": "A3",
                    "midi": 57,
                    "time": 602.5565900000109,
                    "velocity": 0.5905511811023622,
                    "duration": 0.3341966666666849
                },
                {
                    "name": "D4",
                    "midi": 62,
                    "time": 602.5565900000109,
                    "velocity": 0.5905511811023622,
                    "duration": 0.3341966666666849
                },
                {
                    "name": "A3",
                    "midi": 57,
                    "time": 602.932561250011,
                    "velocity": 0.5039370078740157,
                    "duration": 0.10443645833333903
                },
                {
                    "name": "C#4",
                    "midi": 61,
                    "time": 602.932561250011,
                    "velocity": 0.6062992125984252,
                    "duration": 0.10443645833333903
                },
                {
                    "name": "D4",
                    "midi": 62,
                    "time": 603.057885000011,
                    "velocity": 0.6456692913385826,
                    "duration": 0.12532375000000684
                },
                {
                    "name": "A3",
                    "midi": 57,
                    "time": 603.057885000011,
                    "velocity": 0.5354330708661418,
                    "duration": 0.12532375000000684
                },
                {
                    "name": "D4",
                    "midi": 62,
                    "time": 607.068245000011,
                    "velocity": 0.6456692913385826,
                    "duration": 0.4971175416666256
                },
                {
                    "name": "D5",
                    "midi": 74,
                    "time": 607.068245000011,
                    "velocity": 0.7244094488188977,
                    "duration": 1.002589999999941
                },
                {
                    "name": "G5",
                    "midi": 79,
                    "time": 608.0708350000109,
                    "velocity": 0.7165354330708661,
                    "duration": 0.5012950000000274
                },
                {
                    "name": "G4",
                    "midi": 67,
                    "time": 608.0708350000109,
                    "velocity": 0.6377952755905512,
                    "duration": 0.5012950000000274
                },
                {
                    "name": "A4",
                    "midi": 69,
                    "time": 608.5721300000109,
                    "velocity": 0.6535433070866141,
                    "duration": 0.5012950000000274
                },
                {
                    "name": "A5",
                    "midi": 81,
                    "time": 608.5721300000109,
                    "velocity": 0.7322834645669292,
                    "duration": 0.5012950000000274
                },
                {
                    "name": "A#4",
                    "midi": 70,
                    "time": 609.073425000011,
                    "velocity": 0.6377952755905512,
                    "duration": 0.5012950000000274
                },
                {
                    "name": "A#5",
                    "midi": 82,
                    "time": 609.073425000011,
                    "velocity": 0.7165354330708661,
                    "duration": 0.5012950000000274
                },
                {
                    "name": "A4",
                    "midi": 69,
                    "time": 609.574720000011,
                    "velocity": 0.6456692913385826,
                    "duration": 1.0025900000000547
                },
                {
                    "name": "A5",
                    "midi": 81,
                    "time": 609.574720000011,
                    "velocity": 0.7244094488188977,
                    "duration": 1.0025900000000547
                },
                {
                    "name": "D5",
                    "midi": 74,
                    "time": 610.577310000011,
                    "velocity": 0.6692913385826772,
                    "duration": 0.18798562500001026
                },
                {
                    "name": "D4",
                    "midi": 62,
                    "time": 610.577310000011,
                    "velocity": 0.5984251968503937,
                    "duration": 0.18798562500001026
                },
                {
                    "name": "C5",
                    "midi": 72,
                    "time": 611.0786050000111,
                    "velocity": 0.6614173228346457,
                    "duration": 0.5012950000000274
                },
                {
                    "name": "C6",
                    "midi": 84,
                    "time": 611.0786050000111,
                    "velocity": 0.7401574803149606,
                    "duration": 0.5012950000000274
                },
                {
                    "name": "A#5",
                    "midi": 82,
                    "time": 611.5799000000111,
                    "velocity": 0.7559055118110236,
                    "duration": 1.0025900000000547
                },
                {
                    "name": "A#4",
                    "midi": 70,
                    "time": 611.5799000000111,
                    "velocity": 0.6771653543307087,
                    "duration": 1.0025900000000547
                },
                {
                    "name": "D5",
                    "midi": 74,
                    "time": 612.5824900000111,
                    "velocity": 0.7165354330708661,
                    "duration": 0.18798562500001026
                },
                {
                    "name": "D4",
                    "midi": 62,
                    "time": 612.5824900000111,
                    "velocity": 0.6377952755905512,
                    "duration": 0.18798562500001026
                },
                {
                    "name": "A#4",
                    "midi": 70,
                    "time": 613.0837850000112,
                    "velocity": 0.6692913385826772,
                    "duration": 0.5012950000000274
                },
                {
                    "name": "A#5",
                    "midi": 82,
                    "time": 613.0837850000112,
                    "velocity": 0.7480314960629921,
                    "duration": 0.5012950000000274
                },
                {
                    "name": "A5",
                    "midi": 81,
                    "time": 613.5850800000112,
                    "velocity": 0.7165354330708661,
                    "duration": 1.0025900000000547
                },
                {
                    "name": "A4",
                    "midi": 69,
                    "time": 613.5850800000112,
                    "velocity": 0.6377952755905512,
                    "duration": 1.0025900000000547
                },
                {
                    "name": "D4",
                    "midi": 62,
                    "time": 614.5876700000113,
                    "velocity": 0.5826771653543307,
                    "duration": 0.18798562500001026
                },
                {
                    "name": "D5",
                    "midi": 74,
                    "time": 614.5876700000113,
                    "velocity": 0.6535433070866141,
                    "duration": 0.18798562500001026
                },
                {
                    "name": "D4",
                    "midi": 62,
                    "time": 615.0889650000113,
                    "velocity": 0.6771653543307087,
                    "duration": 1.0025900000000547
                },
                {
                    "name": "D5",
                    "midi": 74,
                    "time": 615.0889650000113,
                    "velocity": 0.7559055118110236,
                    "duration": 1.0025900000000547
                },
                {
                    "name": "G4",
                    "midi": 67,
                    "time": 616.0915550000113,
                    "velocity": 0.6614173228346457,
                    "duration": 0.5012950000000274
                },
                {
                    "name": "G5",
                    "midi": 79,
                    "time": 616.0915550000113,
                    "velocity": 0.7401574803149606,
                    "duration": 0.5012950000000274
                },
                {
                    "name": "A#5",
                    "midi": 82,
                    "time": 616.5928500000114,
                    "velocity": 0.8267716535433071,
                    "duration": 0.5012950000000274
                },
                {
                    "name": "A#4",
                    "midi": 70,
                    "time": 616.5928500000114,
                    "velocity": 0.7401574803149606,
                    "duration": 0.5012950000000274
                },
                {
                    "name": "D5",
                    "midi": 74,
                    "time": 617.0941450000114,
                    "velocity": 0.7244094488188977,
                    "duration": 0.5012950000000274
                },
                {
                    "name": "D6",
                    "midi": 86,
                    "time": 617.0941450000114,
                    "velocity": 0.8110236220472441,
                    "duration": 0.5012950000000274
                },
                {
                    "name": "D#6",
                    "midi": 87,
                    "time": 617.5954400000114,
                    "velocity": 0.8661417322834646,
                    "duration": 1.0025900000000547
                },
                {
                    "name": "D#5",
                    "midi": 75,
                    "time": 617.5954400000114,
                    "velocity": 0.7795275590551181,
                    "duration": 1.0025900000000547
                },
                {
                    "name": "G4",
                    "midi": 67,
                    "time": 618.5980300000115,
                    "velocity": 0.5826771653543307,
                    "duration": 0.18798562500001026
                },
                {
                    "name": "G5",
                    "midi": 79,
                    "time": 618.5980300000115,
                    "velocity": 0.6535433070866141,
                    "duration": 0.18798562500001026
                },
                {
                    "name": "D#5",
                    "midi": 75,
                    "time": 619.0993250000115,
                    "velocity": 0.7401574803149606,
                    "duration": 0.5012950000000274
                },
                {
                    "name": "D#6",
                    "midi": 87,
                    "time": 619.0993250000115,
                    "velocity": 0.8267716535433071,
                    "duration": 0.5012950000000274
                },
                {
                    "name": "D5",
                    "midi": 74,
                    "time": 619.6006200000115,
                    "velocity": 0.7401574803149606,
                    "duration": 1.0025900000000547
                },
                {
                    "name": "D6",
                    "midi": 86,
                    "time": 619.6006200000115,
                    "velocity": 0.8267716535433071,
                    "duration": 1.0025900000000547
                },
                {
                    "name": "G4",
                    "midi": 67,
                    "time": 620.6032100000116,
                    "velocity": 0.5826771653543307,
                    "duration": 0.18798562500001026
                },
                {
                    "name": "G5",
                    "midi": 79,
                    "time": 620.6032100000116,
                    "velocity": 0.6535433070866141,
                    "duration": 0.18798562500001026
                },
                {
                    "name": "D5",
                    "midi": 74,
                    "time": 621.1045050000116,
                    "velocity": 0.6850393700787402,
                    "duration": 1.0025900000000547
                },
                {
                    "name": "D6",
                    "midi": 86,
                    "time": 621.1045050000116,
                    "velocity": 0.7637795275590551,
                    "duration": 1.0025900000000547
                },
                {
                    "name": "F5",
                    "midi": 77,
                    "time": 622.1070950000117,
                    "velocity": 0.6692913385826772,
                    "duration": 0.5012950000000274
                },
                {
                    "name": "F6",
                    "midi": 89,
                    "time": 622.1070950000117,
                    "velocity": 0.7480314960629921,
                    "duration": 0.5012950000000274
                },
                {
                    "name": "G6",
                    "midi": 91,
                    "time": 622.6083900000117,
                    "velocity": 0.8188976377952756,
                    "duration": 0.5012950000000274
                },
                {
                    "name": "G5",
                    "midi": 79,
                    "time": 622.6083900000117,
                    "velocity": 0.7322834645669292,
                    "duration": 0.5012950000000274
                },
                {
                    "name": "A6",
                    "midi": 93,
                    "time": 623.1096850000117,
                    "velocity": 0.7874015748031497,
                    "duration": 0.5012950000000274
                },
                {
                    "name": "A5",
                    "midi": 81,
                    "time": 623.1096850000117,
                    "velocity": 0.7086614173228346,
                    "duration": 0.5012950000000274
                },
                {
                    "name": "A5",
                    "midi": 81,
                    "time": 623.6109800000118,
                    "velocity": 0.7716535433070866,
                    "duration": 0.9608154166667191
                },
                {
                    "name": "A6",
                    "midi": 93,
                    "time": 623.6109800000118,
                    "velocity": 0.8582677165354331,
                    "duration": 0.9608154166667191
                },
                {
                    "name": "A6",
                    "midi": 93,
                    "time": 624.6135700000118,
                    "velocity": 0.8267716535433071,
                    "duration": 0.9608154166667191
                },
                {
                    "name": "A5",
                    "midi": 81,
                    "time": 624.6135700000118,
                    "velocity": 0.7401574803149606,
                    "duration": 0.9608154166667191
                },
                {
                    "name": "F6",
                    "midi": 89,
                    "time": 625.6161600000119,
                    "velocity": 0.7007874015748031,
                    "duration": 1.0025900000000547
                },
                {
                    "name": "F5",
                    "midi": 77,
                    "time": 625.6161600000119,
                    "velocity": 0.6299212598425197,
                    "duration": 1.0025900000000547
                },
                {
                    "name": "D6",
                    "midi": 86,
                    "time": 626.6187500000119,
                    "velocity": 0.6377952755905512,
                    "duration": 0.20887291666667807
                },
                {
                    "name": "D5",
                    "midi": 74,
                    "time": 626.6187500000119,
                    "velocity": 0.5669291338582677,
                    "duration": 0.20887291666667807
                },
                {
                    "name": "A4",
                    "midi": 69,
                    "time": 627.621340000012,
                    "velocity": 0.4094488188976378,
                    "duration": 0.9608154166667191
                },
                {
                    "name": "A5",
                    "midi": 81,
                    "time": 627.621340000012,
                    "velocity": 0.4094488188976378,
                    "duration": 0.9608154166667191
                },
                {
                    "name": "A5",
                    "midi": 81,
                    "time": 628.623930000012,
                    "velocity": 0.4094488188976378,
                    "duration": 0.9608154166667191
                },
                {
                    "name": "A4",
                    "midi": 69,
                    "time": 628.623930000012,
                    "velocity": 0.4094488188976378,
                    "duration": 0.9608154166667191
                },
                {
                    "name": "F4",
                    "midi": 65,
                    "time": 629.6265200000121,
                    "velocity": 0.3858267716535433,
                    "duration": 1.0025900000000547
                },
                {
                    "name": "F5",
                    "midi": 77,
                    "time": 629.6265200000121,
                    "velocity": 0.3858267716535433,
                    "duration": 1.0025900000000547
                },
                {
                    "name": "D5",
                    "midi": 74,
                    "time": 630.6291100000121,
                    "velocity": 0.3543307086614173,
                    "duration": 0.20887291666667807
                },
                {
                    "name": "D4",
                    "midi": 62,
                    "time": 630.6291100000121,
                    "velocity": 0.3543307086614173,
                    "duration": 0.20887291666667807
                },
                {
                    "name": "D#4",
                    "midi": 63,
                    "time": 631.6317000000122,
                    "velocity": 0.29133858267716534,
                    "duration": 1.0025900000000547
                },
                {
                    "name": "D#5",
                    "midi": 75,
                    "time": 631.6317000000122,
                    "velocity": 0.29133858267716534,
                    "duration": 1.0025900000000547
                },
                {
                    "name": "C5",
                    "midi": 72,
                    "time": 632.6342900000122,
                    "velocity": 0.2125984251968504,
                    "duration": 0.20887291666667807
                },
                {
                    "name": "C4",
                    "midi": 60,
                    "time": 632.6342900000122,
                    "velocity": 0.2125984251968504,
                    "duration": 0.20887291666667807
                },
                {
                    "name": "D#4",
                    "midi": 63,
                    "time": 633.6368800000123,
                    "velocity": 0.2677165354330709,
                    "duration": 1.0025900000000547
                },
                {
                    "name": "D#5",
                    "midi": 75,
                    "time": 633.6368800000123,
                    "velocity": 0.2677165354330709,
                    "duration": 1.0025900000000547
                },
                {
                    "name": "C5",
                    "midi": 72,
                    "time": 634.6394700000124,
                    "velocity": 0.2125984251968504,
                    "duration": 0.20887291666667807
                },
                {
                    "name": "C4",
                    "midi": 60,
                    "time": 634.6394700000124,
                    "velocity": 0.2125984251968504,
                    "duration": 0.20887291666667807
                },
                {
                    "name": "A4",
                    "midi": 69,
                    "time": 635.6420600000124,
                    "velocity": 0.2677165354330709,
                    "duration": 1.190575625000065
                },
                {
                    "name": "D#5",
                    "midi": 75,
                    "time": 635.6420600000124,
                    "velocity": 0.2677165354330709,
                    "duration": 1.0025900000000547
                },
                {
                    "name": "C5",
                    "midi": 72,
                    "time": 636.6446500000125,
                    "velocity": 0.2125984251968504,
                    "duration": 0.20887291666667807
                },
                {
                    "name": "A4",
                    "midi": 69,
                    "time": 637.6472400000125,
                    "velocity": 0.2677165354330709,
                    "duration": 1.190575625000065
                },
                {
                    "name": "D#5",
                    "midi": 75,
                    "time": 637.6472400000125,
                    "velocity": 0.2677165354330709,
                    "duration": 1.0025900000000547
                },
                {
                    "name": "C5",
                    "midi": 72,
                    "time": 638.6498300000126,
                    "velocity": 0.2125984251968504,
                    "duration": 0.20887291666667807
                },
                {
                    "name": "E5",
                    "midi": 76,
                    "time": 639.6524200000126,
                    "velocity": 0.2677165354330709,
                    "duration": 1.0025900000000547
                },
                {
                    "name": "A4",
                    "midi": 69,
                    "time": 639.6524200000126,
                    "velocity": 0.2677165354330709,
                    "duration": 1.190575625000065
                },
                {
                    "name": "C#5",
                    "midi": 73,
                    "time": 640.6550100000127,
                    "velocity": 0.2125984251968504,
                    "duration": 0.20887291666667807
                },
                {
                    "name": "G#4",
                    "midi": 68,
                    "time": 641.6576000000127,
                    "velocity": 0.2677165354330709,
                    "duration": 1.190575625000065
                },
                {
                    "name": "E5",
                    "midi": 76,
                    "time": 641.6576000000127,
                    "velocity": 0.2677165354330709,
                    "duration": 1.0025900000000547
                },
                {
                    "name": "B4",
                    "midi": 71,
                    "time": 642.6601900000128,
                    "velocity": 0.2125984251968504,
                    "duration": 0.20887291666667807
                },
                {
                    "name": "C#5",
                    "midi": 73,
                    "time": 643.6627800000128,
                    "velocity": 0.2677165354330709,
                    "duration": 0.2924220833333493
                },
                {
                    "name": "C#4",
                    "midi": 61,
                    "time": 643.6627800000128,
                    "velocity": 0.2677165354330709,
                    "duration": 0.2924220833333493
                },
                {
                    "name": "C#4",
                    "midi": 61,
                    "time": 643.9969766666795,
                    "velocity": 0.2283464566929134,
                    "duration": 0.2924220833333493
                },
                {
                    "name": "C#5",
                    "midi": 73,
                    "time": 643.9969766666795,
                    "velocity": 0.2283464566929134,
                    "duration": 0.2924220833333493
                },
                {
                    "name": "C#5",
                    "midi": 73,
                    "time": 644.3311733333462,
                    "velocity": 0.2283464566929134,
                    "duration": 0.2924220833333493
                },
                {
                    "name": "C#4",
                    "midi": 61,
                    "time": 644.3311733333462,
                    "velocity": 0.2283464566929134,
                    "duration": 0.2924220833333493
                },
                {
                    "name": "C#4",
                    "midi": 61,
                    "time": 644.6653700000129,
                    "velocity": 0.18110236220472442,
                    "duration": 0.8772662500000479
                },
                {
                    "name": "C#5",
                    "midi": 73,
                    "time": 644.6653700000129,
                    "velocity": 0.2125984251968504,
                    "duration": 0.8772662500000479
                },
                {
                    "name": "C#4",
                    "midi": 61,
                    "time": 645.667960000013,
                    "velocity": 0.30708661417322836,
                    "duration": 0.49085135416669345
                },
                {
                    "name": "A4",
                    "midi": 69,
                    "time": 645.667960000013,
                    "velocity": 0.30708661417322836,
                    "duration": 0.49085135416669345
                },
                {
                    "name": "C#4",
                    "midi": 61,
                    "time": 646.169255000013,
                    "velocity": 0.2677165354330709,
                    "duration": 0.49085135416669345
                },
                {
                    "name": "C#5",
                    "midi": 73,
                    "time": 646.169255000013,
                    "velocity": 0.2677165354330709,
                    "duration": 0.49085135416669345
                },
                {
                    "name": "B4",
                    "midi": 71,
                    "time": 646.670550000013,
                    "velocity": 0.2992125984251969,
                    "duration": 0.49085135416669345
                },
                {
                    "name": "C#4",
                    "midi": 61,
                    "time": 646.670550000013,
                    "velocity": 0.2992125984251969,
                    "duration": 0.49085135416669345
                },
                {
                    "name": "C#4",
                    "midi": 61,
                    "time": 647.171845000013,
                    "velocity": 0.2755905511811024,
                    "duration": 0.49085135416669345
                },
                {
                    "name": "C#5",
                    "midi": 73,
                    "time": 647.171845000013,
                    "velocity": 0.2755905511811024,
                    "duration": 0.49085135416669345
                },
                {
                    "name": "F#4",
                    "midi": 66,
                    "time": 647.6731400000131,
                    "velocity": 0.30708661417322836,
                    "duration": 0.2924220833333493
                },
                {
                    "name": "D4",
                    "midi": 62,
                    "time": 647.6731400000131,
                    "velocity": 0.30708661417322836,
                    "duration": 0.2924220833333493
                },
                {
                    "name": "D4",
                    "midi": 62,
                    "time": 648.0073366666797,
                    "velocity": 0.23622047244094488,
                    "duration": 0.2924220833333493
                },
                {
                    "name": "F#4",
                    "midi": 66,
                    "time": 648.0073366666797,
                    "velocity": 0.23622047244094488,
                    "duration": 0.2924220833333493
                },
                {
                    "name": "D4",
                    "midi": 62,
                    "time": 648.3415333333464,
                    "velocity": 0.23622047244094488,
                    "duration": 0.2924220833333493
                },
                {
                    "name": "F#4",
                    "midi": 66,
                    "time": 648.3415333333464,
                    "velocity": 0.23622047244094488,
                    "duration": 0.2924220833333493
                },
                {
                    "name": "D4",
                    "midi": 62,
                    "time": 648.6757300000131,
                    "velocity": 0.1968503937007874,
                    "duration": 0.8772662500000479
                },
                {
                    "name": "F#4",
                    "midi": 66,
                    "time": 648.6757300000131,
                    "velocity": 0.1968503937007874,
                    "duration": 0.8772662500000479
                },
                {
                    "name": "D4",
                    "midi": 62,
                    "time": 649.6783200000132,
                    "velocity": 0.2992125984251969,
                    "duration": 0.49085135416669345
                },
                {
                    "name": "F#4",
                    "midi": 66,
                    "time": 649.6783200000132,
                    "velocity": 0.2992125984251969,
                    "duration": 0.49085135416669345
                },
                {
                    "name": "E4",
                    "midi": 64,
                    "time": 650.1796150000132,
                    "velocity": 0.2440944881889764,
                    "duration": 0.49085135416669345
                },
                {
                    "name": "B4",
                    "midi": 71,
                    "time": 650.1796150000132,
                    "velocity": 0.2440944881889764,
                    "duration": 0.49085135416669345
                },
                {
                    "name": "D4",
                    "midi": 62,
                    "time": 650.1796150000132,
                    "velocity": 0.2440944881889764,
                    "duration": 0.49085135416669345
                },
                {
                    "name": "E4",
                    "midi": 64,
                    "time": 650.6809100000132,
                    "velocity": 0.29133858267716534,
                    "duration": 0.49085135416669345
                },
                {
                    "name": "D4",
                    "midi": 62,
                    "time": 650.6809100000132,
                    "velocity": 0.29133858267716534,
                    "duration": 0.49085135416669345
                },
                {
                    "name": "A4",
                    "midi": 69,
                    "time": 650.6809100000132,
                    "velocity": 0.29133858267716534,
                    "duration": 0.49085135416669345
                },
                {
                    "name": "B4",
                    "midi": 71,
                    "time": 651.1822050000133,
                    "velocity": 0.2283464566929134,
                    "duration": 0.49085135416669345
                },
                {
                    "name": "D4",
                    "midi": 62,
                    "time": 651.1822050000133,
                    "velocity": 0.2283464566929134,
                    "duration": 0.49085135416669345
                },
                {
                    "name": "E4",
                    "midi": 64,
                    "time": 651.1822050000133,
                    "velocity": 0.2283464566929134,
                    "duration": 0.49085135416669345
                },
                {
                    "name": "E4",
                    "midi": 64,
                    "time": 651.6835000000133,
                    "velocity": 0.28346456692913385,
                    "duration": 0.2924220833333493
                },
                {
                    "name": "C#4",
                    "midi": 61,
                    "time": 651.6835000000133,
                    "velocity": 0.28346456692913385,
                    "duration": 0.2924220833333493
                },
                {
                    "name": "C#4",
                    "midi": 61,
                    "time": 652.01769666668,
                    "velocity": 0.2283464566929134,
                    "duration": 0.2924220833333493
                },
                {
                    "name": "E4",
                    "midi": 64,
                    "time": 652.01769666668,
                    "velocity": 0.2283464566929134,
                    "duration": 0.2924220833333493
                },
                {
                    "name": "E4",
                    "midi": 64,
                    "time": 652.3518933333467,
                    "velocity": 0.2283464566929134,
                    "duration": 0.2924220833333493
                },
                {
                    "name": "C#4",
                    "midi": 61,
                    "time": 652.3518933333467,
                    "velocity": 0.2283464566929134,
                    "duration": 0.2924220833333493
                },
                {
                    "name": "C#4",
                    "midi": 61,
                    "time": 652.6860900000133,
                    "velocity": 0.15748031496062992,
                    "duration": 0.8772662500000479
                },
                {
                    "name": "A4",
                    "midi": 69,
                    "time": 652.6860900000133,
                    "velocity": 0.25196850393700787,
                    "duration": 0.8772662500000479
                },
                {
                    "name": "C#4",
                    "midi": 61,
                    "time": 653.6886800000134,
                    "velocity": 0.3937007874015748,
                    "duration": 0.49085135416669345
                },
                {
                    "name": "A4",
                    "midi": 69,
                    "time": 653.6886800000134,
                    "velocity": 0.3937007874015748,
                    "duration": 0.49085135416669345
                },
                {
                    "name": "C#4",
                    "midi": 61,
                    "time": 654.1899750000134,
                    "velocity": 0.31496062992125984,
                    "duration": 0.49085135416669345
                },
                {
                    "name": "C#5",
                    "midi": 73,
                    "time": 654.1899750000134,
                    "velocity": 0.31496062992125984,
                    "duration": 0.49085135416669345
                },
                {
                    "name": "C#4",
                    "midi": 61,
                    "time": 654.6912700000134,
                    "velocity": 0.33070866141732286,
                    "duration": 0.49085135416669345
                },
                {
                    "name": "B4",
                    "midi": 71,
                    "time": 654.6912700000134,
                    "velocity": 0.33070866141732286,
                    "duration": 0.49085135416669345
                },
                {
                    "name": "C#4",
                    "midi": 61,
                    "time": 655.1925650000135,
                    "velocity": 0.33070866141732286,
                    "duration": 0.49085135416669345
                },
                {
                    "name": "C#5",
                    "midi": 73,
                    "time": 655.1925650000135,
                    "velocity": 0.33070866141732286,
                    "duration": 0.49085135416669345
                },
                {
                    "name": "A4",
                    "midi": 69,
                    "time": 655.6938600000135,
                    "velocity": 0.3779527559055118,
                    "duration": 0.2924220833333493
                },
                {
                    "name": "D4",
                    "midi": 62,
                    "time": 655.6938600000135,
                    "velocity": 0.3779527559055118,
                    "duration": 0.2924220833333493
                },
                {
                    "name": "D5",
                    "midi": 74,
                    "time": 655.6938600000135,
                    "velocity": 0.3779527559055118,
                    "duration": 0.2924220833333493
                },
                {
                    "name": "D4",
                    "midi": 62,
                    "time": 656.0280566666802,
                    "velocity": 0.31496062992125984,
                    "duration": 0.2924220833333493
                },
                {
                    "name": "D5",
                    "midi": 74,
                    "time": 656.0280566666802,
                    "velocity": 0.31496062992125984,
                    "duration": 0.2924220833333493
                },
                {
                    "name": "A4",
                    "midi": 69,
                    "time": 656.0280566666802,
                    "velocity": 0.31496062992125984,
                    "duration": 0.2924220833333493
                },
                {
                    "name": "D5",
                    "midi": 74,
                    "time": 656.3622533333469,
                    "velocity": 0.31496062992125984,
                    "duration": 0.2924220833333493
                },
                {
                    "name": "A4",
                    "midi": 69,
                    "time": 656.3622533333469,
                    "velocity": 0.31496062992125984,
                    "duration": 0.2924220833333493
                },
                {
                    "name": "D4",
                    "midi": 62,
                    "time": 656.3622533333469,
                    "velocity": 0.31496062992125984,
                    "duration": 0.2924220833333493
                },
                {
                    "name": "D4",
                    "midi": 62,
                    "time": 656.6964500000136,
                    "velocity": 0.28346456692913385,
                    "duration": 0.8772662500000479
                },
                {
                    "name": "A4",
                    "midi": 69,
                    "time": 656.6964500000136,
                    "velocity": 0.28346456692913385,
                    "duration": 0.8772662500000479
                },
                {
                    "name": "D5",
                    "midi": 74,
                    "time": 656.6964500000136,
                    "velocity": 0.28346456692913385,
                    "duration": 0.8772662500000479
                },
                {
                    "name": "D5",
                    "midi": 74,
                    "time": 657.6990400000136,
                    "velocity": 0.33070866141732286,
                    "duration": 0.2924220833333493
                },
                {
                    "name": "F#4",
                    "midi": 66,
                    "time": 657.6990400000136,
                    "velocity": 0.33070866141732286,
                    "duration": 0.2924220833333493
                },
                {
                    "name": "F#5",
                    "midi": 78,
                    "time": 657.6990400000136,
                    "velocity": 0.33070866141732286,
                    "duration": 0.2924220833333493
                },
                {
                    "name": "F#4",
                    "midi": 66,
                    "time": 658.0332366666803,
                    "velocity": 0.2992125984251969,
                    "duration": 0.2924220833333493
                },
                {
                    "name": "F#5",
                    "midi": 78,
                    "time": 658.0332366666803,
                    "velocity": 0.2992125984251969,
                    "duration": 0.2924220833333493
                },
                {
                    "name": "D5",
                    "midi": 74,
                    "time": 658.0332366666803,
                    "velocity": 0.2992125984251969,
                    "duration": 0.2924220833333493
                },
                {
                    "name": "D5",
                    "midi": 74,
                    "time": 658.367433333347,
                    "velocity": 0.2992125984251969,
                    "duration": 0.2924220833333493
                },
                {
                    "name": "F#4",
                    "midi": 66,
                    "time": 658.367433333347,
                    "velocity": 0.2992125984251969,
                    "duration": 0.2924220833333493
                },
                {
                    "name": "F#5",
                    "midi": 78,
                    "time": 658.367433333347,
                    "velocity": 0.2992125984251969,
                    "duration": 0.2924220833333493
                },
                {
                    "name": "F#4",
                    "midi": 66,
                    "time": 658.7016300000137,
                    "velocity": 0.33070866141732286,
                    "duration": 0.49085135416669345
                },
                {
                    "name": "F#5",
                    "midi": 78,
                    "time": 658.7016300000137,
                    "velocity": 0.33070866141732286,
                    "duration": 0.9608154166667191
                },
                {
                    "name": "D5",
                    "midi": 74,
                    "time": 658.7016300000137,
                    "velocity": 0.33070866141732286,
                    "duration": 0.9608154166667191
                },
                {
                    "name": "A4",
                    "midi": 69,
                    "time": 659.7042200000137,
                    "velocity": 0.31496062992125984,
                    "duration": 0.2924220833333493
                },
                {
                    "name": "C#5",
                    "midi": 73,
                    "time": 659.7042200000137,
                    "velocity": 0.31496062992125984,
                    "duration": 0.2924220833333493
                },
                {
                    "name": "A5",
                    "midi": 81,
                    "time": 659.7042200000137,
                    "velocity": 0.31496062992125984,
                    "duration": 0.2924220833333493
                },
                {
                    "name": "A5",
                    "midi": 81,
                    "time": 660.0384166666804,
                    "velocity": 0.28346456692913385,
                    "duration": 0.2924220833333493
                },
                {
                    "name": "C#5",
                    "midi": 73,
                    "time": 660.0384166666804,
                    "velocity": 0.28346456692913385,
                    "duration": 0.2924220833333493
                },
                {
                    "name": "A4",
                    "midi": 69,
                    "time": 660.0384166666804,
                    "velocity": 0.28346456692913385,
                    "duration": 0.2924220833333493
                },
                {
                    "name": "C#5",
                    "midi": 73,
                    "time": 660.3726133333471,
                    "velocity": 0.28346456692913385,
                    "duration": 0.2924220833333493
                },
                {
                    "name": "A4",
                    "midi": 69,
                    "time": 660.3726133333471,
                    "velocity": 0.28346456692913385,
                    "duration": 0.2924220833333493
                },
                {
                    "name": "A5",
                    "midi": 81,
                    "time": 660.3726133333471,
                    "velocity": 0.28346456692913385,
                    "duration": 0.2924220833333493
                },
                {
                    "name": "A4",
                    "midi": 69,
                    "time": 660.7068100000138,
                    "velocity": 0.18110236220472442,
                    "duration": 0.8772662500000479
                },
                {
                    "name": "A5",
                    "midi": 81,
                    "time": 660.7068100000138,
                    "velocity": 0.2125984251968504,
                    "duration": 0.8772662500000479
                },
                {
                    "name": "C#5",
                    "midi": 73,
                    "time": 660.7068100000138,
                    "velocity": 0.18110236220472442,
                    "duration": 0.8772662500000479
                },
                {
                    "name": "G#4",
                    "midi": 68,
                    "time": 661.7094000000138,
                    "velocity": 0.3543307086614173,
                    "duration": 0.49085135416669345
                },
                {
                    "name": "D5",
                    "midi": 74,
                    "time": 661.7094000000138,
                    "velocity": 0.3543307086614173,
                    "duration": 0.49085135416669345
                },
                {
                    "name": "B5",
                    "midi": 83,
                    "time": 661.7094000000138,
                    "velocity": 0.3543307086614173,
                    "duration": 0.49085135416669345
                },
                {
                    "name": "G#5",
                    "midi": 80,
                    "time": 662.2106950000139,
                    "velocity": 0.28346456692913385,
                    "duration": 0.49085135416669345
                },
                {
                    "name": "D5",
                    "midi": 74,
                    "time": 662.2106950000139,
                    "velocity": 0.28346456692913385,
                    "duration": 0.49085135416669345
                },
                {
                    "name": "B4",
                    "midi": 71,
                    "time": 662.2106950000139,
                    "velocity": 0.28346456692913385,
                    "duration": 0.49085135416669345
                },
                {
                    "name": "B4",
                    "midi": 71,
                    "time": 662.7119900000139,
                    "velocity": 0.3228346456692913,
                    "duration": 0.49085135416669345
                },
                {
                    "name": "E5",
                    "midi": 76,
                    "time": 662.7119900000139,
                    "velocity": 0.3228346456692913,
                    "duration": 0.49085135416669345
                },
                {
                    "name": "A4",
                    "midi": 69,
                    "time": 663.2132850000139,
                    "velocity": 0.2677165354330709,
                    "duration": 0.49085135416669345
                },
                {
                    "name": "D5",
                    "midi": 74,
                    "time": 663.2132850000139,
                    "velocity": 0.2677165354330709,
                    "duration": 0.49085135416669345
                },
                {
                    "name": "C#5",
                    "midi": 73,
                    "time": 663.7145800000139,
                    "velocity": 0.2755905511811024,
                    "duration": 0.2924220833333493
                },
                {
                    "name": "A4",
                    "midi": 69,
                    "time": 663.7145800000139,
                    "velocity": 0.2755905511811024,
                    "duration": 0.2924220833333493
                },
                {
                    "name": "A4",
                    "midi": 69,
                    "time": 664.0487766666806,
                    "velocity": 0.2125984251968504,
                    "duration": 0.2924220833333493
                },
                {
                    "name": "C#5",
                    "midi": 73,
                    "time": 664.0487766666806,
                    "velocity": 0.2125984251968504,
                    "duration": 0.2924220833333493
                },
                {
                    "name": "C#5",
                    "midi": 73,
                    "time": 664.3829733333473,
                    "velocity": 0.2047244094488189,
                    "duration": 0.2924220833333493
                },
                {
                    "name": "A4",
                    "midi": 69,
                    "time": 664.3829733333473,
                    "velocity": 0.2047244094488189,
                    "duration": 0.2924220833333493
                },
                {
                    "name": "A4",
                    "midi": 69,
                    "time": 664.717170000014,
                    "velocity": 0.14960629921259844,
                    "duration": 0.8772662500000479
                },
                {
                    "name": "C#5",
                    "midi": 73,
                    "time": 664.717170000014,
                    "velocity": 0.18110236220472442,
                    "duration": 0.8772662500000479
                },
                {
                    "name": "G#4",
                    "midi": 68,
                    "time": 665.719760000014,
                    "velocity": 0.3464566929133858,
                    "duration": 0.49085135416669345
                },
                {
                    "name": "D5",
                    "midi": 74,
                    "time": 665.719760000014,
                    "velocity": 0.3464566929133858,
                    "duration": 0.49085135416669345
                },
                {
                    "name": "B5",
                    "midi": 83,
                    "time": 665.719760000014,
                    "velocity": 0.3464566929133858,
                    "duration": 0.49085135416669345
                },
                {
                    "name": "G#5",
                    "midi": 80,
                    "time": 666.2210550000141,
                    "velocity": 0.25984251968503935,
                    "duration": 0.49085135416669345
                },
                {
                    "name": "B4",
                    "midi": 71,
                    "time": 666.2210550000141,
                    "velocity": 0.25984251968503935,
                    "duration": 0.49085135416669345
                },
                {
                    "name": "D5",
                    "midi": 74,
                    "time": 666.2210550000141,
                    "velocity": 0.25984251968503935,
                    "duration": 0.49085135416669345
                },
                {
                    "name": "B4",
                    "midi": 71,
                    "time": 666.7223500000141,
                    "velocity": 0.2992125984251969,
                    "duration": 0.49085135416669345
                },
                {
                    "name": "E5",
                    "midi": 76,
                    "time": 666.7223500000141,
                    "velocity": 0.2992125984251969,
                    "duration": 0.49085135416669345
                },
                {
                    "name": "D5",
                    "midi": 74,
                    "time": 667.2236450000141,
                    "velocity": 0.25984251968503935,
                    "duration": 0.49085135416669345
                },
                {
                    "name": "A4",
                    "midi": 69,
                    "time": 667.2236450000141,
                    "velocity": 0.25984251968503935,
                    "duration": 0.49085135416669345
                },
                {
                    "name": "C#5",
                    "midi": 73,
                    "time": 667.7249400000142,
                    "velocity": 0.2755905511811024,
                    "duration": 0.2924220833333493
                },
                {
                    "name": "A4",
                    "midi": 69,
                    "time": 667.7249400000142,
                    "velocity": 0.2755905511811024,
                    "duration": 0.2924220833333493
                },
                {
                    "name": "A4",
                    "midi": 69,
                    "time": 668.0591366666808,
                    "velocity": 0.2440944881889764,
                    "duration": 0.2924220833333493
                },
                {
                    "name": "C#5",
                    "midi": 73,
                    "time": 668.0591366666808,
                    "velocity": 0.2440944881889764,
                    "duration": 0.2924220833333493
                },
                {
                    "name": "C#5",
                    "midi": 73,
                    "time": 668.3933333333475,
                    "velocity": 0.2204724409448819,
                    "duration": 0.2924220833333493
                },
                {
                    "name": "A4",
                    "midi": 69,
                    "time": 668.3933333333475,
                    "velocity": 0.2204724409448819,
                    "duration": 0.2924220833333493
                },
                {
                    "name": "A4",
                    "midi": 69,
                    "time": 668.7275300000142,
                    "velocity": 0.14960629921259844,
                    "duration": 0.8772662500000479
                },
                {
                    "name": "C#5",
                    "midi": 73,
                    "time": 668.7275300000142,
                    "velocity": 0.18110236220472442,
                    "duration": 0.8772662500000479
                },
                {
                    "name": "A4",
                    "midi": 69,
                    "time": 669.7301200000143,
                    "velocity": 0.2755905511811024,
                    "duration": 0.49085135416669345
                },
                {
                    "name": "C#5",
                    "midi": 73,
                    "time": 670.2314150000143,
                    "velocity": 0.2440944881889764,
                    "duration": 0.49085135416669345
                },
                {
                    "name": "A4",
                    "midi": 69,
                    "time": 670.2314150000143,
                    "velocity": 0.2047244094488189,
                    "duration": 0.49085135416669345
                },
                {
                    "name": "A4",
                    "midi": 69,
                    "time": 670.7327100000143,
                    "velocity": 0.2283464566929134,
                    "duration": 0.49085135416669345
                },
                {
                    "name": "B4",
                    "midi": 71,
                    "time": 670.7327100000143,
                    "velocity": 0.2755905511811024,
                    "duration": 0.49085135416669345
                },
                {
                    "name": "A4",
                    "midi": 69,
                    "time": 671.2340050000143,
                    "velocity": 0.2125984251968504,
                    "duration": 0.49085135416669345
                },
                {
                    "name": "C#5",
                    "midi": 73,
                    "time": 671.2340050000143,
                    "velocity": 0.25984251968503935,
                    "duration": 0.49085135416669345
                },
                {
                    "name": "A4",
                    "midi": 69,
                    "time": 671.7353000000144,
                    "velocity": 0.2677165354330709,
                    "duration": 0.2924220833333493
                },
                {
                    "name": "E5",
                    "midi": 76,
                    "time": 671.7353000000144,
                    "velocity": 0.2677165354330709,
                    "duration": 0.2924220833333493
                },
                {
                    "name": "E5",
                    "midi": 76,
                    "time": 672.0694966666811,
                    "velocity": 0.23622047244094488,
                    "duration": 0.2924220833333493
                },
                {
                    "name": "A4",
                    "midi": 69,
                    "time": 672.0694966666811,
                    "velocity": 0.23622047244094488,
                    "duration": 0.2924220833333493
                },
                {
                    "name": "A4",
                    "midi": 69,
                    "time": 672.4036933333477,
                    "velocity": 0.2283464566929134,
                    "duration": 0.2924220833333493
                },
                {
                    "name": "E5",
                    "midi": 76,
                    "time": 672.4036933333477,
                    "velocity": 0.2283464566929134,
                    "duration": 0.2924220833333493
                },
                {
                    "name": "D#5",
                    "midi": 75,
                    "time": 672.7378900000144,
                    "velocity": 0.1889763779527559,
                    "duration": 0.2506475000000137
                },
                {
                    "name": "A4",
                    "midi": 69,
                    "time": 672.7378900000144,
                    "velocity": 0.14173228346456693,
                    "duration": 0.2506475000000137
                },
                {
                    "name": "E6",
                    "midi": 88,
                    "time": 673.7404800000145,
                    "velocity": 0.29133858267716534,
                    "duration": 0.2924220833333493
                },
                {
                    "name": "A6",
                    "midi": 93,
                    "time": 673.7404800000145,
                    "velocity": 0.29133858267716534,
                    "duration": 0.2924220833333493
                },
                {
                    "name": "A5",
                    "midi": 81,
                    "time": 673.7404800000145,
                    "velocity": 0.29133858267716534,
                    "duration": 0.2924220833333493
                },
                {
                    "name": "A6",
                    "midi": 93,
                    "time": 674.0746766666812,
                    "velocity": 0.2440944881889764,
                    "duration": 0.2924220833333493
                },
                {
                    "name": "A5",
                    "midi": 81,
                    "time": 674.0746766666812,
                    "velocity": 0.2440944881889764,
                    "duration": 0.2924220833333493
                },
                {
                    "name": "E6",
                    "midi": 88,
                    "time": 674.0746766666812,
                    "velocity": 0.2440944881889764,
                    "duration": 0.2924220833333493
                },
                {
                    "name": "A6",
                    "midi": 93,
                    "time": 674.4088733333479,
                    "velocity": 0.23622047244094488,
                    "duration": 0.2924220833333493
                },
                {
                    "name": "E6",
                    "midi": 88,
                    "time": 674.4088733333479,
                    "velocity": 0.23622047244094488,
                    "duration": 0.2924220833333493
                },
                {
                    "name": "A5",
                    "midi": 81,
                    "time": 674.4088733333479,
                    "velocity": 0.23622047244094488,
                    "duration": 0.2924220833333493
                },
                {
                    "name": "D6",
                    "midi": 86,
                    "time": 674.7430700000145,
                    "velocity": 0.1889763779527559,
                    "duration": 0.45952041666669174
                },
                {
                    "name": "A6",
                    "midi": 93,
                    "time": 674.7430700000145,
                    "velocity": 0.1889763779527559,
                    "duration": 0.45952041666669174
                },
                {
                    "name": "A5",
                    "midi": 81,
                    "time": 674.7430700000145,
                    "velocity": 0.1889763779527559,
                    "duration": 0.45952041666669174
                },
                {
                    "name": "A4",
                    "midi": 69,
                    "time": 675.7456600000146,
                    "velocity": 0.2677165354330709,
                    "duration": 0.2924220833333493
                },
                {
                    "name": "D5",
                    "midi": 74,
                    "time": 675.7456600000146,
                    "velocity": 0.2677165354330709,
                    "duration": 0.2924220833333493
                },
                {
                    "name": "A4",
                    "midi": 69,
                    "time": 676.0798566666813,
                    "velocity": 0.2283464566929134,
                    "duration": 0.2924220833333493
                },
                {
                    "name": "D5",
                    "midi": 74,
                    "time": 676.0798566666813,
                    "velocity": 0.2283464566929134,
                    "duration": 0.2924220833333493
                },
                {
                    "name": "A4",
                    "midi": 69,
                    "time": 676.414053333348,
                    "velocity": 0.2283464566929134,
                    "duration": 0.2924220833333493
                },
                {
                    "name": "D5",
                    "midi": 74,
                    "time": 676.414053333348,
                    "velocity": 0.2283464566929134,
                    "duration": 0.2924220833333493
                },
                {
                    "name": "C#5",
                    "midi": 73,
                    "time": 676.7482500000147,
                    "velocity": 0.2125984251968504,
                    "duration": 0.45952041666669174
                },
                {
                    "name": "A4",
                    "midi": 69,
                    "time": 676.7482500000147,
                    "velocity": 0.2125984251968504,
                    "duration": 0.45952041666669174
                },
                {
                    "name": "A6",
                    "midi": 93,
                    "time": 677.7508400000147,
                    "velocity": 0.29133858267716534,
                    "duration": 0.2924220833333493
                },
                {
                    "name": "D6",
                    "midi": 86,
                    "time": 677.7508400000147,
                    "velocity": 0.29133858267716534,
                    "duration": 0.2924220833333493
                },
                {
                    "name": "A5",
                    "midi": 81,
                    "time": 677.7508400000147,
                    "velocity": 0.29133858267716534,
                    "duration": 0.2924220833333493
                },
                {
                    "name": "A5",
                    "midi": 81,
                    "time": 678.0850366666814,
                    "velocity": 0.25984251968503935,
                    "duration": 0.2924220833333493
                },
                {
                    "name": "D6",
                    "midi": 86,
                    "time": 678.0850366666814,
                    "velocity": 0.25984251968503935,
                    "duration": 0.2924220833333493
                },
                {
                    "name": "A6",
                    "midi": 93,
                    "time": 678.0850366666814,
                    "velocity": 0.25984251968503935,
                    "duration": 0.2924220833333493
                },
                {
                    "name": "A6",
                    "midi": 93,
                    "time": 678.4192333333481,
                    "velocity": 0.23622047244094488,
                    "duration": 0.2924220833333493
                },
                {
                    "name": "D6",
                    "midi": 86,
                    "time": 678.4192333333481,
                    "velocity": 0.23622047244094488,
                    "duration": 0.2924220833333493
                },
                {
                    "name": "A5",
                    "midi": 81,
                    "time": 678.4192333333481,
                    "velocity": 0.23622047244094488,
                    "duration": 0.2924220833333493
                },
                {
                    "name": "A6",
                    "midi": 93,
                    "time": 678.7534300000148,
                    "velocity": 0.2125984251968504,
                    "duration": 0.45952041666669174
                },
                {
                    "name": "A5",
                    "midi": 81,
                    "time": 678.7534300000148,
                    "velocity": 0.2125984251968504,
                    "duration": 0.45952041666669174
                },
                {
                    "name": "C6",
                    "midi": 84,
                    "time": 678.7534300000148,
                    "velocity": 0.2125984251968504,
                    "duration": 0.45952041666669174
                },
                {
                    "name": "B3",
                    "midi": 59,
                    "time": 679.7560200000148,
                    "velocity": 0.6692913385826772,
                    "duration": 0.2924220833333493
                },
                {
                    "name": "B4",
                    "midi": 71,
                    "time": 679.7560200000148,
                    "velocity": 0.6692913385826772,
                    "duration": 0.2924220833333493
                },
                {
                    "name": "A4",
                    "midi": 69,
                    "time": 679.7560200000148,
                    "velocity": 0.6692913385826772,
                    "duration": 0.2924220833333493
                },
                {
                    "name": "F4",
                    "midi": 65,
                    "time": 679.7560200000148,
                    "velocity": 0.6692913385826772,
                    "duration": 0.2924220833333493
                },
                {
                    "name": "F4",
                    "midi": 65,
                    "time": 680.0902166666815,
                    "velocity": 0.6220472440944882,
                    "duration": 0.2924220833333493
                },
                {
                    "name": "B4",
                    "midi": 71,
                    "time": 680.0902166666815,
                    "velocity": 0.6220472440944882,
                    "duration": 0.2924220833333493
                },
                {
                    "name": "A4",
                    "midi": 69,
                    "time": 680.0902166666815,
                    "velocity": 0.6220472440944882,
                    "duration": 0.2924220833333493
                },
                {
                    "name": "B3",
                    "midi": 59,
                    "time": 680.0902166666815,
                    "velocity": 0.6220472440944882,
                    "duration": 0.2924220833333493
                },
                {
                    "name": "A4",
                    "midi": 69,
                    "time": 680.4244133333482,
                    "velocity": 0.5748031496062992,
                    "duration": 0.2924220833333493
                },
                {
                    "name": "B4",
                    "midi": 71,
                    "time": 680.4244133333482,
                    "velocity": 0.5748031496062992,
                    "duration": 0.2924220833333493
                },
                {
                    "name": "F4",
                    "midi": 65,
                    "time": 680.4244133333482,
                    "velocity": 0.5748031496062992,
                    "duration": 0.2924220833333493
                },
                {
                    "name": "B3",
                    "midi": 59,
                    "time": 680.4244133333482,
                    "velocity": 0.5748031496062992,
                    "duration": 0.2924220833333493
                },
                {
                    "name": "B3",
                    "midi": 59,
                    "time": 680.7586100000149,
                    "velocity": 0.44881889763779526,
                    "duration": 0.45952041666669174
                },
                {
                    "name": "B4",
                    "midi": 71,
                    "time": 680.7586100000149,
                    "velocity": 0.44881889763779526,
                    "duration": 0.45952041666669174
                },
                {
                    "name": "A4",
                    "midi": 69,
                    "time": 680.7586100000149,
                    "velocity": 0.44881889763779526,
                    "duration": 0.45952041666669174
                },
                {
                    "name": "F4",
                    "midi": 65,
                    "time": 680.7586100000149,
                    "velocity": 0.44881889763779526,
                    "duration": 0.45952041666669174
                },
                {
                    "name": "F#5",
                    "midi": 78,
                    "time": 681.7612000000149,
                    "velocity": 0.36220472440944884,
                    "duration": 0.49085135416669345
                },
                {
                    "name": "A5",
                    "midi": 81,
                    "time": 681.7612000000149,
                    "velocity": 0.36220472440944884,
                    "duration": 0.49085135416669345
                },
                {
                    "name": "B5",
                    "midi": 83,
                    "time": 681.7612000000149,
                    "velocity": 0.4330708661417323,
                    "duration": 0.49085135416669345
                },
                {
                    "name": "C#6",
                    "midi": 85,
                    "time": 682.262495000015,
                    "velocity": 0.36220472440944884,
                    "duration": 0.49085135416669345
                },
                {
                    "name": "E5",
                    "midi": 76,
                    "time": 682.262495000015,
                    "velocity": 0.29133858267716534,
                    "duration": 0.49085135416669345
                },
                {
                    "name": "A5",
                    "midi": 81,
                    "time": 682.262495000015,
                    "velocity": 0.29133858267716534,
                    "duration": 0.49085135416669345
                },
                {
                    "name": "D5",
                    "midi": 74,
                    "time": 682.763790000015,
                    "velocity": 0.33070866141732286,
                    "duration": 0.49085135416669345
                },
                {
                    "name": "A5",
                    "midi": 81,
                    "time": 682.763790000015,
                    "velocity": 0.33070866141732286,
                    "duration": 0.49085135416669345
                },
                {
                    "name": "D6",
                    "midi": 86,
                    "time": 682.763790000015,
                    "velocity": 0.3937007874015748,
                    "duration": 0.49085135416669345
                },
                {
                    "name": "C#6",
                    "midi": 85,
                    "time": 683.265085000015,
                    "velocity": 0.36220472440944884,
                    "duration": 0.49085135416669345
                },
                {
                    "name": "E5",
                    "midi": 76,
                    "time": 683.265085000015,
                    "velocity": 0.29133858267716534,
                    "duration": 0.49085135416669345
                },
                {
                    "name": "A5",
                    "midi": 81,
                    "time": 683.265085000015,
                    "velocity": 0.29133858267716534,
                    "duration": 0.49085135416669345
                },
                {
                    "name": "E6",
                    "midi": 88,
                    "time": 683.766380000015,
                    "velocity": 0.3937007874015748,
                    "duration": 0.2924220833333493
                },
                {
                    "name": "A5",
                    "midi": 81,
                    "time": 683.766380000015,
                    "velocity": 0.3937007874015748,
                    "duration": 0.2924220833333493
                },
                {
                    "name": "E5",
                    "midi": 76,
                    "time": 683.766380000015,
                    "velocity": 0.3937007874015748,
                    "duration": 0.2924220833333493
                },
                {
                    "name": "E5",
                    "midi": 76,
                    "time": 684.1005766666817,
                    "velocity": 0.33070866141732286,
                    "duration": 0.2924220833333493
                },
                {
                    "name": "E6",
                    "midi": 88,
                    "time": 684.1005766666817,
                    "velocity": 0.33070866141732286,
                    "duration": 0.2924220833333493
                },
                {
                    "name": "A5",
                    "midi": 81,
                    "time": 684.1005766666817,
                    "velocity": 0.33070866141732286,
                    "duration": 0.2924220833333493
                },
                {
                    "name": "E6",
                    "midi": 88,
                    "time": 684.4347733333484,
                    "velocity": 0.3228346456692913,
                    "duration": 0.2924220833333493
                },
                {
                    "name": "A5",
                    "midi": 81,
                    "time": 684.4347733333484,
                    "velocity": 0.3228346456692913,
                    "duration": 0.2924220833333493
                },
                {
                    "name": "E5",
                    "midi": 76,
                    "time": 684.4347733333484,
                    "velocity": 0.3228346456692913,
                    "duration": 0.2924220833333493
                },
                {
                    "name": "G#5",
                    "midi": 80,
                    "time": 684.7689700000151,
                    "velocity": 0.2204724409448819,
                    "duration": 0.45952041666669174
                },
                {
                    "name": "E6",
                    "midi": 88,
                    "time": 684.7689700000151,
                    "velocity": 0.18110236220472442,
                    "duration": 0.45952041666669174
                },
                {
                    "name": "E5",
                    "midi": 76,
                    "time": 684.7689700000151,
                    "velocity": 0.18110236220472442,
                    "duration": 0.45952041666669174
                },
                {
                    "name": "A4",
                    "midi": 69,
                    "time": 685.7715600000151,
                    "velocity": 0.29133858267716534,
                    "duration": 0.2924220833333493
                },
                {
                    "name": "C#5",
                    "midi": 73,
                    "time": 685.7715600000151,
                    "velocity": 0.29133858267716534,
                    "duration": 0.2924220833333493
                },
                {
                    "name": "C#5",
                    "midi": 73,
                    "time": 686.1057566666818,
                    "velocity": 0.23622047244094488,
                    "duration": 0.2924220833333493
                },
                {
                    "name": "A4",
                    "midi": 69,
                    "time": 686.1057566666818,
                    "velocity": 0.23622047244094488,
                    "duration": 0.2924220833333493
                },
                {
                    "name": "A4",
                    "midi": 69,
                    "time": 686.4399533333485,
                    "velocity": 0.2283464566929134,
                    "duration": 0.2924220833333493
                },
                {
                    "name": "C#5",
                    "midi": 73,
                    "time": 686.4399533333485,
                    "velocity": 0.2283464566929134,
                    "duration": 0.2924220833333493
                },
                {
                    "name": "A4",
                    "midi": 69,
                    "time": 686.7741500000152,
                    "velocity": 0.18110236220472442,
                    "duration": 0.45952041666669174
                },
                {
                    "name": "C#5",
                    "midi": 73,
                    "time": 686.7741500000152,
                    "velocity": 0.18110236220472442,
                    "duration": 0.45952041666669174
                },
                {
                    "name": "A4",
                    "midi": 69,
                    "time": 687.7767400000153,
                    "velocity": 0.6692913385826772,
                    "duration": 0.2924220833333493
                },
                {
                    "name": "B4",
                    "midi": 71,
                    "time": 687.7767400000153,
                    "velocity": 0.6692913385826772,
                    "duration": 0.2924220833333493
                },
                {
                    "name": "F4",
                    "midi": 65,
                    "time": 687.7767400000153,
                    "velocity": 0.6692913385826772,
                    "duration": 0.2924220833333493
                },
                {
                    "name": "B3",
                    "midi": 59,
                    "time": 687.7767400000153,
                    "velocity": 0.6692913385826772,
                    "duration": 0.2924220833333493
                },
                {
                    "name": "B3",
                    "midi": 59,
                    "time": 688.1109366666819,
                    "velocity": 0.6220472440944882,
                    "duration": 0.2924220833333493
                },
                {
                    "name": "F4",
                    "midi": 65,
                    "time": 688.1109366666819,
                    "velocity": 0.6220472440944882,
                    "duration": 0.2924220833333493
                },
                {
                    "name": "B4",
                    "midi": 71,
                    "time": 688.1109366666819,
                    "velocity": 0.6220472440944882,
                    "duration": 0.2924220833333493
                },
                {
                    "name": "A4",
                    "midi": 69,
                    "time": 688.1109366666819,
                    "velocity": 0.6220472440944882,
                    "duration": 0.2924220833333493
                },
                {
                    "name": "B3",
                    "midi": 59,
                    "time": 688.4451333333486,
                    "velocity": 0.5669291338582677,
                    "duration": 0.2924220833333493
                },
                {
                    "name": "F4",
                    "midi": 65,
                    "time": 688.4451333333486,
                    "velocity": 0.5669291338582677,
                    "duration": 0.2924220833333493
                },
                {
                    "name": "A4",
                    "midi": 69,
                    "time": 688.4451333333486,
                    "velocity": 0.5669291338582677,
                    "duration": 0.2924220833333493
                },
                {
                    "name": "B4",
                    "midi": 71,
                    "time": 688.4451333333486,
                    "velocity": 0.5669291338582677,
                    "duration": 0.2924220833333493
                },
                {
                    "name": "B4",
                    "midi": 71,
                    "time": 688.7793300000153,
                    "velocity": 0.4409448818897638,
                    "duration": 0.45952041666669174
                },
                {
                    "name": "A4",
                    "midi": 69,
                    "time": 688.7793300000153,
                    "velocity": 0.4409448818897638,
                    "duration": 0.45952041666669174
                },
                {
                    "name": "F4",
                    "midi": 65,
                    "time": 688.7793300000153,
                    "velocity": 0.4409448818897638,
                    "duration": 0.45952041666669174
                },
                {
                    "name": "B3",
                    "midi": 59,
                    "time": 688.7793300000153,
                    "velocity": 0.4409448818897638,
                    "duration": 0.45952041666669174
                },
                {
                    "name": "F#5",
                    "midi": 78,
                    "time": 689.7819200000154,
                    "velocity": 0.36220472440944884,
                    "duration": 0.49085135416669345
                },
                {
                    "name": "B5",
                    "midi": 83,
                    "time": 689.7819200000154,
                    "velocity": 0.4330708661417323,
                    "duration": 0.49085135416669345
                },
                {
                    "name": "A5",
                    "midi": 81,
                    "time": 689.7819200000154,
                    "velocity": 0.36220472440944884,
                    "duration": 0.49085135416669345
                },
                {
                    "name": "A5",
                    "midi": 81,
                    "time": 690.2832150000154,
                    "velocity": 0.3228346456692913,
                    "duration": 0.49085135416669345
                },
                {
                    "name": "E5",
                    "midi": 76,
                    "time": 690.2832150000154,
                    "velocity": 0.3228346456692913,
                    "duration": 0.49085135416669345
                },
                {
                    "name": "C#6",
                    "midi": 85,
                    "time": 690.2832150000154,
                    "velocity": 0.3858267716535433,
                    "duration": 0.49085135416669345
                },
                {
                    "name": "D6",
                    "midi": 86,
                    "time": 690.7845100000154,
                    "velocity": 0.41732283464566927,
                    "duration": 0.49085135416669345
                },
                {
                    "name": "D5",
                    "midi": 74,
                    "time": 690.7845100000154,
                    "velocity": 0.3464566929133858,
                    "duration": 0.49085135416669345
                },
                {
                    "name": "A5",
                    "midi": 81,
                    "time": 690.7845100000154,
                    "velocity": 0.3464566929133858,
                    "duration": 0.49085135416669345
                },
                {
                    "name": "A5",
                    "midi": 81,
                    "time": 691.2858050000154,
                    "velocity": 0.30708661417322836,
                    "duration": 0.49085135416669345
                },
                {
                    "name": "E5",
                    "midi": 76,
                    "time": 691.2858050000154,
                    "velocity": 0.30708661417322836,
                    "duration": 0.49085135416669345
                },
                {
                    "name": "C#6",
                    "midi": 85,
                    "time": 691.2858050000154,
                    "velocity": 0.3700787401574803,
                    "duration": 0.49085135416669345
                },
                {
                    "name": "E6",
                    "midi": 88,
                    "time": 691.7871000000155,
                    "velocity": 0.3937007874015748,
                    "duration": 0.2924220833333493
                },
                {
                    "name": "E5",
                    "midi": 76,
                    "time": 691.7871000000155,
                    "velocity": 0.3937007874015748,
                    "duration": 0.2924220833333493
                },
                {
                    "name": "A5",
                    "midi": 81,
                    "time": 691.7871000000155,
                    "velocity": 0.3937007874015748,
                    "duration": 0.2924220833333493
                },
                {
                    "name": "E6",
                    "midi": 88,
                    "time": 692.1212966666822,
                    "velocity": 0.3700787401574803,
                    "duration": 0.2924220833333493
                },
                {
                    "name": "A5",
                    "midi": 81,
                    "time": 692.1212966666822,
                    "velocity": 0.3700787401574803,
                    "duration": 0.2924220833333493
                },
                {
                    "name": "E5",
                    "midi": 76,
                    "time": 692.1212966666822,
                    "velocity": 0.3700787401574803,
                    "duration": 0.2924220833333493
                },
                {
                    "name": "E5",
                    "midi": 76,
                    "time": 692.4554933333488,
                    "velocity": 0.3700787401574803,
                    "duration": 0.2924220833333493
                },
                {
                    "name": "A5",
                    "midi": 81,
                    "time": 692.4554933333488,
                    "velocity": 0.3700787401574803,
                    "duration": 0.2924220833333493
                },
                {
                    "name": "E6",
                    "midi": 88,
                    "time": 692.4554933333488,
                    "velocity": 0.3700787401574803,
                    "duration": 0.2924220833333493
                },
                {
                    "name": "E6",
                    "midi": 88,
                    "time": 692.7896900000155,
                    "velocity": 0.2125984251968504,
                    "duration": 0.45952041666669174
                },
                {
                    "name": "E5",
                    "midi": 76,
                    "time": 692.7896900000155,
                    "velocity": 0.2047244094488189,
                    "duration": 0.45952041666669174
                },
                {
                    "name": "G#5",
                    "midi": 80,
                    "time": 692.7896900000155,
                    "velocity": 0.25984251968503935,
                    "duration": 0.45952041666669174
                },
                {
                    "name": "A4",
                    "midi": 69,
                    "time": 693.7922800000156,
                    "velocity": 0.8346456692913385,
                    "duration": 0.2924220833333493
                },
                {
                    "name": "A3",
                    "midi": 57,
                    "time": 693.7922800000156,
                    "velocity": 0.7480314960629921,
                    "duration": 0.2924220833333493
                },
                {
                    "name": "A3",
                    "midi": 57,
                    "time": 694.1264766666823,
                    "velocity": 0.6929133858267716,
                    "duration": 0.2924220833333493
                },
                {
                    "name": "A4",
                    "midi": 69,
                    "time": 694.1264766666823,
                    "velocity": 0.7637795275590551,
                    "duration": 0.2924220833333493
                },
                {
                    "name": "A3",
                    "midi": 57,
                    "time": 694.460673333349,
                    "velocity": 0.6141732283464567,
                    "duration": 0.2924220833333493
                },
                {
                    "name": "A4",
                    "midi": 69,
                    "time": 694.460673333349,
                    "velocity": 0.6771653543307087,
                    "duration": 0.2924220833333493
                },
                {
                    "name": "A3",
                    "midi": 57,
                    "time": 694.7948700000156,
                    "velocity": 0.5433070866141733,
                    "duration": 0.45952041666669174
                },
                {
                    "name": "A4",
                    "midi": 69,
                    "time": 694.7948700000156,
                    "velocity": 0.6062992125984252,
                    "duration": 0.45952041666669174
                },
                {
                    "name": "E4",
                    "midi": 64,
                    "time": 695.7974600000157,
                    "velocity": 0.28346456692913385,
                    "duration": 0.49085135416669345
                },
                {
                    "name": "C#4",
                    "midi": 61,
                    "time": 695.7974600000157,
                    "velocity": 0.28346456692913385,
                    "duration": 0.49085135416669345
                },
                {
                    "name": "C#4",
                    "midi": 61,
                    "time": 696.2987550000157,
                    "velocity": 0.23622047244094488,
                    "duration": 0.49085135416669345
                },
                {
                    "name": "C#5",
                    "midi": 73,
                    "time": 696.2987550000157,
                    "velocity": 0.23622047244094488,
                    "duration": 0.49085135416669345
                },
                {
                    "name": "B4",
                    "midi": 71,
                    "time": 696.8000500000157,
                    "velocity": 0.29133858267716534,
                    "duration": 0.49085135416669345
                },
                {
                    "name": "C#4",
                    "midi": 61,
                    "time": 696.8000500000157,
                    "velocity": 0.29133858267716534,
                    "duration": 0.49085135416669345
                },
                {
                    "name": "C#4",
                    "midi": 61,
                    "time": 697.3013450000158,
                    "velocity": 0.23622047244094488,
                    "duration": 0.49085135416669345
                },
                {
                    "name": "C#5",
                    "midi": 73,
                    "time": 697.3013450000158,
                    "velocity": 0.23622047244094488,
                    "duration": 0.49085135416669345
                },
                {
                    "name": "C#5",
                    "midi": 73,
                    "time": 697.8026400000158,
                    "velocity": 0.30708661417322836,
                    "duration": 0.9608154166667191
                },
                {
                    "name": "F4",
                    "midi": 65,
                    "time": 697.8026400000158,
                    "velocity": 0.1889763779527559,
                    "duration": 0.9608154166667191
                },
                {
                    "name": "E5",
                    "midi": 76,
                    "time": 697.8026400000158,
                    "velocity": 0.30708661417322836,
                    "duration": 0.9608154166667191
                },
                {
                    "name": "F4",
                    "midi": 65,
                    "time": 698.8052300000159,
                    "velocity": 0.1732283464566929,
                    "duration": 0.2506475000000137
                },
                {
                    "name": "B4",
                    "midi": 71,
                    "time": 698.8052300000159,
                    "velocity": 0.18110236220472442,
                    "duration": 0.2506475000000137
                },
                {
                    "name": "D5",
                    "midi": 74,
                    "time": 698.8052300000159,
                    "velocity": 0.18110236220472442,
                    "duration": 0.2506475000000137
                },
                {
                    "name": "E5",
                    "midi": 76,
                    "time": 699.8078200000159,
                    "velocity": 0.30708661417322836,
                    "duration": 0.9608154166667191
                },
                {
                    "name": "E4",
                    "midi": 64,
                    "time": 699.8078200000159,
                    "velocity": 0.2283464566929134,
                    "duration": 0.9608154166667191
                },
                {
                    "name": "C#5",
                    "midi": 73,
                    "time": 699.8078200000159,
                    "velocity": 0.30708661417322836,
                    "duration": 0.9608154166667191
                },
                {
                    "name": "E4",
                    "midi": 64,
                    "time": 700.810410000016,
                    "velocity": 0.14960629921259844,
                    "duration": 0.2506475000000137
                },
                {
                    "name": "B4",
                    "midi": 71,
                    "time": 700.810410000016,
                    "velocity": 0.18110236220472442,
                    "duration": 0.2506475000000137
                },
                {
                    "name": "D5",
                    "midi": 74,
                    "time": 700.810410000016,
                    "velocity": 0.18110236220472442,
                    "duration": 0.2506475000000137
                },
                {
                    "name": "A5",
                    "midi": 81,
                    "time": 701.813000000016,
                    "velocity": 0.8346456692913385,
                    "duration": 0.2924220833333493
                },
                {
                    "name": "A4",
                    "midi": 69,
                    "time": 701.813000000016,
                    "velocity": 0.7480314960629921,
                    "duration": 0.2924220833333493
                },
                {
                    "name": "A4",
                    "midi": 69,
                    "time": 702.1471966666827,
                    "velocity": 0.7007874015748031,
                    "duration": 0.2924220833333493
                },
                {
                    "name": "A5",
                    "midi": 81,
                    "time": 702.1471966666827,
                    "velocity": 0.7874015748031497,
                    "duration": 0.2924220833333493
                },
                {
                    "name": "A4",
                    "midi": 69,
                    "time": 702.4813933333494,
                    "velocity": 0.6614173228346457,
                    "duration": 0.2924220833333493
                },
                {
                    "name": "A5",
                    "midi": 81,
                    "time": 702.4813933333494,
                    "velocity": 0.7401574803149606,
                    "duration": 0.2924220833333493
                },
                {
                    "name": "A4",
                    "midi": 69,
                    "time": 702.8155900000161,
                    "velocity": 0.5275590551181102,
                    "duration": 0.45952041666669174
                },
                {
                    "name": "A5",
                    "midi": 81,
                    "time": 702.8155900000161,
                    "velocity": 0.5826771653543307,
                    "duration": 0.45952041666669174
                },
                {
                    "name": "C#4",
                    "midi": 61,
                    "time": 703.8181800000161,
                    "velocity": 0.2992125984251969,
                    "duration": 0.49085135416669345
                },
                {
                    "name": "E4",
                    "midi": 64,
                    "time": 703.8181800000161,
                    "velocity": 0.2992125984251969,
                    "duration": 0.49085135416669345
                },
                {
                    "name": "C#4",
                    "midi": 61,
                    "time": 704.3194750000162,
                    "velocity": 0.2440944881889764,
                    "duration": 0.49085135416669345
                },
                {
                    "name": "C#5",
                    "midi": 73,
                    "time": 704.3194750000162,
                    "velocity": 0.2440944881889764,
                    "duration": 0.49085135416669345
                },
                {
                    "name": "B4",
                    "midi": 71,
                    "time": 704.8207700000162,
                    "velocity": 0.33070866141732286,
                    "duration": 0.49085135416669345
                },
                {
                    "name": "C#4",
                    "midi": 61,
                    "time": 704.8207700000162,
                    "velocity": 0.33070866141732286,
                    "duration": 0.49085135416669345
                },
                {
                    "name": "C#5",
                    "midi": 73,
                    "time": 705.3220650000162,
                    "velocity": 0.2992125984251969,
                    "duration": 0.49085135416669345
                },
                {
                    "name": "C#4",
                    "midi": 61,
                    "time": 705.3220650000162,
                    "velocity": 0.2992125984251969,
                    "duration": 0.49085135416669345
                },
                {
                    "name": "F#4",
                    "midi": 66,
                    "time": 705.8233600000162,
                    "velocity": 0.29133858267716534,
                    "duration": 0.9608154166667191
                },
                {
                    "name": "D5",
                    "midi": 74,
                    "time": 705.8233600000162,
                    "velocity": 0.3464566929133858,
                    "duration": 0.9608154166667191
                },
                {
                    "name": "F#5",
                    "midi": 78,
                    "time": 705.8233600000162,
                    "velocity": 0.3464566929133858,
                    "duration": 0.9608154166667191
                },
                {
                    "name": "B4",
                    "midi": 71,
                    "time": 706.8259500000163,
                    "velocity": 0.18110236220472442,
                    "duration": 0.3759712500000205
                },
                {
                    "name": "F#4",
                    "midi": 66,
                    "time": 706.8259500000163,
                    "velocity": 0.14960629921259844,
                    "duration": 0.3759712500000205
                },
                {
                    "name": "D5",
                    "midi": 74,
                    "time": 706.8259500000163,
                    "velocity": 0.18110236220472442,
                    "duration": 0.3759712500000205
                },
                {
                    "name": "C#5",
                    "midi": 73,
                    "time": 707.8285400000163,
                    "velocity": 0.3228346456692913,
                    "duration": 0.9608154166667191
                },
                {
                    "name": "E4",
                    "midi": 64,
                    "time": 707.8285400000163,
                    "velocity": 0.2755905511811024,
                    "duration": 0.9608154166667191
                },
                {
                    "name": "E5",
                    "midi": 76,
                    "time": 707.8285400000163,
                    "velocity": 0.3228346456692913,
                    "duration": 0.9608154166667191
                },
                {
                    "name": "B4",
                    "midi": 71,
                    "time": 708.8311300000164,
                    "velocity": 0.1968503937007874,
                    "duration": 0.3759712500000205
                },
                {
                    "name": "E4",
                    "midi": 64,
                    "time": 708.8311300000164,
                    "velocity": 0.1889763779527559,
                    "duration": 0.3759712500000205
                },
                {
                    "name": "D5",
                    "midi": 74,
                    "time": 708.8311300000164,
                    "velocity": 0.1968503937007874,
                    "duration": 0.3759712500000205
                },
                {
                    "name": "B4",
                    "midi": 71,
                    "time": 709.8337200000165,
                    "velocity": 0.2755905511811024,
                    "duration": 0.9608154166667191
                },
                {
                    "name": "D5",
                    "midi": 74,
                    "time": 709.8337200000165,
                    "velocity": 0.3228346456692913,
                    "duration": 0.9608154166667191
                },
                {
                    "name": "E4",
                    "midi": 64,
                    "time": 709.8337200000165,
                    "velocity": 0.2755905511811024,
                    "duration": 0.9608154166667191
                },
                {
                    "name": "E4",
                    "midi": 64,
                    "time": 710.8363100000165,
                    "velocity": 0.18110236220472442,
                    "duration": 0.3759712500000205
                },
                {
                    "name": "A4",
                    "midi": 69,
                    "time": 710.8363100000165,
                    "velocity": 0.18110236220472442,
                    "duration": 0.3759712500000205
                },
                {
                    "name": "C5",
                    "midi": 72,
                    "time": 710.8363100000165,
                    "velocity": 0.1968503937007874,
                    "duration": 0.3759712500000205
                },
                {
                    "name": "C5",
                    "midi": 72,
                    "time": 711.8389000000166,
                    "velocity": 0.33070866141732286,
                    "duration": 0.9608154166667191
                },
                {
                    "name": "D4",
                    "midi": 62,
                    "time": 711.8389000000166,
                    "velocity": 0.28346456692913385,
                    "duration": 0.9608154166667191
                },
                {
                    "name": "F4",
                    "midi": 65,
                    "time": 711.8389000000166,
                    "velocity": 0.28346456692913385,
                    "duration": 0.9608154166667191
                },
                {
                    "name": "D4",
                    "midi": 62,
                    "time": 712.8414900000166,
                    "velocity": 0.1889763779527559,
                    "duration": 0.3759712500000205
                },
                {
                    "name": "F4",
                    "midi": 65,
                    "time": 712.8414900000166,
                    "velocity": 0.18110236220472442,
                    "duration": 0.3759712500000205
                },
                {
                    "name": "A#4",
                    "midi": 70,
                    "time": 712.8414900000166,
                    "velocity": 0.1968503937007874,
                    "duration": 0.3759712500000205
                },
                {
                    "name": "A#4",
                    "midi": 70,
                    "time": 713.8440800000167,
                    "velocity": 0.3228346456692913,
                    "duration": 0.9608154166667191
                },
                {
                    "name": "C4",
                    "midi": 60,
                    "time": 713.8440800000167,
                    "velocity": 0.2755905511811024,
                    "duration": 1.0025900000000547
                },
                {
                    "name": "E4",
                    "midi": 64,
                    "time": 713.8440800000167,
                    "velocity": 0.2755905511811024,
                    "duration": 0.9608154166667191
                },
                {
                    "name": "E4",
                    "midi": 64,
                    "time": 714.8466700000167,
                    "velocity": 0.30708661417322836,
                    "duration": 1.0025900000000547
                },
                {
                    "name": "A4",
                    "midi": 69,
                    "time": 714.8466700000167,
                    "velocity": 0.1968503937007874,
                    "duration": 0.3759712500000205
                },
                {
                    "name": "C4",
                    "midi": 60,
                    "time": 714.8466700000167,
                    "velocity": 0.15748031496062992,
                    "duration": 0.3759712500000205
                },
                {
                    "name": "D#4",
                    "midi": 63,
                    "time": 715.8492600000168,
                    "velocity": 0.29133858267716534,
                    "duration": 1.0025900000000547
                },
                {
                    "name": "E4",
                    "midi": 64,
                    "time": 716.8518500000168,
                    "velocity": 0.2755905511811024,
                    "duration": 0.3759712500000205
                },
                {
                    "name": "A4",
                    "midi": 69,
                    "time": 719.8596200000169,
                    "velocity": 0.2283464566929134,
                    "duration": 0.9608154166667191
                },
                {
                    "name": "E4",
                    "midi": 64,
                    "time": 719.8596200000169,
                    "velocity": 0.2283464566929134,
                    "duration": 0.9608154166667191
                },
                {
                    "name": "B3",
                    "midi": 59,
                    "time": 719.8596200000169,
                    "velocity": 0.3228346456692913,
                    "duration": 1.0025900000000547
                },
                {
                    "name": "E4",
                    "midi": 64,
                    "time": 720.862210000017,
                    "velocity": 0.30708661417322836,
                    "duration": 1.0025900000000547
                },
                {
                    "name": "B3",
                    "midi": 59,
                    "time": 720.862210000017,
                    "velocity": 0.1968503937007874,
                    "duration": 0.45952041666669174
                },
                {
                    "name": "G#4",
                    "midi": 68,
                    "time": 720.862210000017,
                    "velocity": 0.1968503937007874,
                    "duration": 0.45952041666669174
                },
                {
                    "name": "D#4",
                    "midi": 63,
                    "time": 721.864800000017,
                    "velocity": 0.29133858267716534,
                    "duration": 1.0025900000000547
                },
                {
                    "name": "E4",
                    "midi": 64,
                    "time": 722.867390000017,
                    "velocity": 0.2755905511811024,
                    "duration": 0.3759712500000205
                },
                {
                    "name": "A3",
                    "midi": 57,
                    "time": 725.8751600000171,
                    "velocity": 0.2204724409448819,
                    "duration": 2.506475000000023
                },
                {
                    "name": "D#4",
                    "midi": 63,
                    "time": 725.8751600000171,
                    "velocity": 0.2204724409448819,
                    "duration": 2.506475000000023
                },
                {
                    "name": "F#4",
                    "midi": 66,
                    "time": 725.8751600000171,
                    "velocity": 0.2204724409448819,
                    "duration": 2.506475000000023
                },
                {
                    "name": "F#4",
                    "midi": 66,
                    "time": 729.8855200000171,
                    "velocity": 0.2204724409448819,
                    "duration": 2.506475000000023
                },
                {
                    "name": "D#4",
                    "midi": 63,
                    "time": 729.8855200000171,
                    "velocity": 0.2204724409448819,
                    "duration": 2.506475000000023
                },
                {
                    "name": "A3",
                    "midi": 57,
                    "time": 729.8855200000171,
                    "velocity": 0.2204724409448819,
                    "duration": 2.506475000000023
                },
                {
                    "name": "D#4",
                    "midi": 63,
                    "time": 733.8958800000171,
                    "velocity": 0.2677165354330709,
                    "duration": 1.0025900000000547
                },
                {
                    "name": "D#5",
                    "midi": 75,
                    "time": 733.8958800000171,
                    "velocity": 0.2677165354330709,
                    "duration": 1.0025900000000547
                },
                {
                    "name": "C4",
                    "midi": 60,
                    "time": 734.8984700000171,
                    "velocity": 0.1968503937007874,
                    "duration": 0.18798562500001026
                },
                {
                    "name": "C5",
                    "midi": 72,
                    "time": 734.8984700000171,
                    "velocity": 0.1968503937007874,
                    "duration": 0.18798562500001026
                },
                {
                    "name": "D#5",
                    "midi": 75,
                    "time": 735.9010600000172,
                    "velocity": 0.2440944881889764,
                    "duration": 1.0025900000000547
                },
                {
                    "name": "D#4",
                    "midi": 63,
                    "time": 735.9010600000172,
                    "velocity": 0.2440944881889764,
                    "duration": 1.0025900000000547
                },
                {
                    "name": "C4",
                    "midi": 60,
                    "time": 736.9036500000173,
                    "velocity": 0.1968503937007874,
                    "duration": 0.18798562500001026
                },
                {
                    "name": "C5",
                    "midi": 72,
                    "time": 736.9036500000173,
                    "velocity": 0.1968503937007874,
                    "duration": 0.18798562500001026
                },
                {
                    "name": "D#5",
                    "midi": 75,
                    "time": 737.9062400000173,
                    "velocity": 0.28346456692913385,
                    "duration": 0.5012950000000274
                },
                {
                    "name": "D#4",
                    "midi": 63,
                    "time": 737.9062400000173,
                    "velocity": 0.28346456692913385,
                    "duration": 0.5012950000000274
                },
                {
                    "name": "C4",
                    "midi": 60,
                    "time": 738.4075350000173,
                    "velocity": 0.2677165354330709,
                    "duration": 0.18798562500001026
                },
                {
                    "name": "C5",
                    "midi": 72,
                    "time": 738.4075350000173,
                    "velocity": 0.2677165354330709,
                    "duration": 0.18798562500001026
                },
                {
                    "name": "D#4",
                    "midi": 63,
                    "time": 738.9088300000174,
                    "velocity": 0.36220472440944884,
                    "duration": 0.5012950000000274
                },
                {
                    "name": "D#5",
                    "midi": 75,
                    "time": 738.9088300000174,
                    "velocity": 0.36220472440944884,
                    "duration": 0.5012950000000274
                },
                {
                    "name": "C4",
                    "midi": 60,
                    "time": 739.4101250000174,
                    "velocity": 0.31496062992125984,
                    "duration": 0.18798562500001026
                },
                {
                    "name": "C5",
                    "midi": 72,
                    "time": 739.4101250000174,
                    "velocity": 0.31496062992125984,
                    "duration": 0.18798562500001026
                },
                {
                    "name": "D#4",
                    "midi": 63,
                    "time": 739.9114200000174,
                    "velocity": 0.4645669291338583,
                    "duration": 0.5012950000000274
                },
                {
                    "name": "D#5",
                    "midi": 75,
                    "time": 739.9114200000174,
                    "velocity": 0.4645669291338583,
                    "duration": 0.5012950000000274
                },
                {
                    "name": "C5",
                    "midi": 72,
                    "time": 740.4127150000174,
                    "velocity": 0.44881889763779526,
                    "duration": 0.18798562500001026
                },
                {
                    "name": "C4",
                    "midi": 60,
                    "time": 740.4127150000174,
                    "velocity": 0.44881889763779526,
                    "duration": 0.18798562500001026
                },
                {
                    "name": "D#4",
                    "midi": 63,
                    "time": 740.9140100000175,
                    "velocity": 0.5590551181102362,
                    "duration": 0.5012950000000274
                },
                {
                    "name": "D#5",
                    "midi": 75,
                    "time": 740.9140100000175,
                    "velocity": 0.5590551181102362,
                    "duration": 0.5012950000000274
                },
                {
                    "name": "C5",
                    "midi": 72,
                    "time": 741.4153050000175,
                    "velocity": 0.5196850393700787,
                    "duration": 0.18798562500001026
                },
                {
                    "name": "C4",
                    "midi": 60,
                    "time": 741.4153050000175,
                    "velocity": 0.5196850393700787,
                    "duration": 0.18798562500001026
                },
                {
                    "name": "E4",
                    "midi": 64,
                    "time": 741.9166000000175,
                    "velocity": 0.7244094488188977,
                    "duration": 0.12532375000000684
                },
                {
                    "name": "E5",
                    "midi": 76,
                    "time": 742.0419237500175,
                    "velocity": 0.6456692913385826,
                    "duration": 0.12532375000000684
                },
                {
                    "name": "E4",
                    "midi": 64,
                    "time": 742.1672475000175,
                    "velocity": 0.6141732283464567,
                    "duration": 0.12532375000000684
                },
                {
                    "name": "E5",
                    "midi": 76,
                    "time": 742.2925712500175,
                    "velocity": 0.5826771653543307,
                    "duration": 0.12532375000000684
                },
                {
                    "name": "E4",
                    "midi": 64,
                    "time": 742.4178950000176,
                    "velocity": 0.5433070866141733,
                    "duration": 0.12532375000000684
                },
                {
                    "name": "E5",
                    "midi": 76,
                    "time": 742.5432187500176,
                    "velocity": 0.5196850393700787,
                    "duration": 0.12532375000000684
                },
                {
                    "name": "E4",
                    "midi": 64,
                    "time": 742.6685425000176,
                    "velocity": 0.4881889763779528,
                    "duration": 0.12532375000000684
                },
                {
                    "name": "E5",
                    "midi": 76,
                    "time": 742.7938662500176,
                    "velocity": 0.47244094488188976,
                    "duration": 0.12532375000000684
                },
                {
                    "name": "E4",
                    "midi": 64,
                    "time": 742.9191900000176,
                    "velocity": 0.5511811023622047,
                    "duration": 0.12532375000000684
                },
                {
                    "name": "E5",
                    "midi": 76,
                    "time": 743.0445137500176,
                    "velocity": 0.5275590551181102,
                    "duration": 0.12532375000000684
                },
                {
                    "name": "E4",
                    "midi": 64,
                    "time": 743.1698375000176,
                    "velocity": 0.5118110236220472,
                    "duration": 0.12532375000000684
                },
                {
                    "name": "E5",
                    "midi": 76,
                    "time": 743.2951612500176,
                    "velocity": 0.4881889763779528,
                    "duration": 0.12532375000000684
                },
                {
                    "name": "E4",
                    "midi": 64,
                    "time": 743.4204850000176,
                    "velocity": 0.5511811023622047,
                    "duration": 0.12532375000000684
                },
                {
                    "name": "E5",
                    "midi": 76,
                    "time": 743.5458087500176,
                    "velocity": 0.5275590551181102,
                    "duration": 0.12532375000000684
                },
                {
                    "name": "E4",
                    "midi": 64,
                    "time": 743.6711325000176,
                    "velocity": 0.5039370078740157,
                    "duration": 0.12532375000000684
                },
                {
                    "name": "E5",
                    "midi": 76,
                    "time": 743.7964562500176,
                    "velocity": 0.48031496062992124,
                    "duration": 0.12532375000000684
                },
                {
                    "name": "C#4",
                    "midi": 61,
                    "time": 743.9217800000176,
                    "velocity": 0.7559055118110236,
                    "duration": 0.12532375000000684
                },
                {
                    "name": "C#5",
                    "midi": 73,
                    "time": 744.0471037500176,
                    "velocity": 0.6614173228346457,
                    "duration": 0.12532375000000684
                },
                {
                    "name": "C#4",
                    "midi": 61,
                    "time": 744.1724275000176,
                    "velocity": 0.6220472440944882,
                    "duration": 0.12532375000000684
                },
                {
                    "name": "C#5",
                    "midi": 73,
                    "time": 744.2977512500177,
                    "velocity": 0.5826771653543307,
                    "duration": 0.12532375000000684
                },
                {
                    "name": "C#4",
                    "midi": 61,
                    "time": 744.4230750000177,
                    "velocity": 0.5433070866141733,
                    "duration": 0.12532375000000684
                },
                {
                    "name": "C#5",
                    "midi": 73,
                    "time": 744.5483987500177,
                    "velocity": 0.5118110236220472,
                    "duration": 0.12532375000000684
                },
                {
                    "name": "C#4",
                    "midi": 61,
                    "time": 744.6737225000177,
                    "velocity": 0.4881889763779528,
                    "duration": 0.12532375000000684
                },
                {
                    "name": "C#5",
                    "midi": 73,
                    "time": 744.7990462500177,
                    "velocity": 0.4330708661417323,
                    "duration": 0.12532375000000684
                },
                {
                    "name": "C#4",
                    "midi": 61,
                    "time": 744.9243700000177,
                    "velocity": 0.5748031496062992,
                    "duration": 0.12532375000000684
                },
                {
                    "name": "C#5",
                    "midi": 73,
                    "time": 745.0496937500177,
                    "velocity": 0.5433070866141733,
                    "duration": 0.12532375000000684
                },
                {
                    "name": "C#4",
                    "midi": 61,
                    "time": 745.1750175000177,
                    "velocity": 0.5196850393700787,
                    "duration": 0.12532375000000684
                },
                {
                    "name": "C#5",
                    "midi": 73,
                    "time": 745.3003412500177,
                    "velocity": 0.4409448818897638,
                    "duration": 0.12532375000000684
                },
                {
                    "name": "C#4",
                    "midi": 61,
                    "time": 745.4256650000177,
                    "velocity": 0.5669291338582677,
                    "duration": 0.12532375000000684
                },
                {
                    "name": "C#5",
                    "midi": 73,
                    "time": 745.5509887500177,
                    "velocity": 0.5433070866141733,
                    "duration": 0.12532375000000684
                },
                {
                    "name": "C#4",
                    "midi": 61,
                    "time": 745.6763125000177,
                    "velocity": 0.5196850393700787,
                    "duration": 0.12532375000000684
                },
                {
                    "name": "C#5",
                    "midi": 73,
                    "time": 745.8016362500177,
                    "velocity": 0.49606299212598426,
                    "duration": 0.12532375000000684
                },
                {
                    "name": "E5",
                    "midi": 76,
                    "time": 745.9269600000177,
                    "velocity": 0.8031496062992126,
                    "duration": 0.5012950000000274
                },
                {
                    "name": "E6",
                    "midi": 88,
                    "time": 745.9269600000177,
                    "velocity": 0.8031496062992126,
                    "duration": 0.5012950000000274
                },
                {
                    "name": "C#5",
                    "midi": 73,
                    "time": 746.4282550000178,
                    "velocity": 0.7401574803149606,
                    "duration": 0.18798562500001026
                },
                {
                    "name": "C#6",
                    "midi": 85,
                    "time": 746.4282550000178,
                    "velocity": 0.7401574803149606,
                    "duration": 0.18798562500001026
                },
                {
                    "name": "E6",
                    "midi": 88,
                    "time": 746.9295500000178,
                    "velocity": 0.7952755905511811,
                    "duration": 0.5012950000000274
                },
                {
                    "name": "E5",
                    "midi": 76,
                    "time": 746.9295500000178,
                    "velocity": 0.7952755905511811,
                    "duration": 0.5012950000000274
                },
                {
                    "name": "A6",
                    "midi": 93,
                    "time": 747.4308450000178,
                    "velocity": 0.7401574803149606,
                    "duration": 0.18798562500001026
                },
                {
                    "name": "A5",
                    "midi": 81,
                    "time": 747.4308450000178,
                    "velocity": 0.7401574803149606,
                    "duration": 0.18798562500001026
                },
                {
                    "name": "E5",
                    "midi": 76,
                    "time": 747.9321400000179,
                    "velocity": 0.7322834645669292,
                    "duration": 0.5012950000000274
                },
                {
                    "name": "E6",
                    "midi": 88,
                    "time": 747.9321400000179,
                    "velocity": 0.7322834645669292,
                    "duration": 0.5012950000000274
                },
                {
                    "name": "C#5",
                    "midi": 73,
                    "time": 748.4334350000179,
                    "velocity": 0.6771653543307087,
                    "duration": 0.18798562500001026
                },
                {
                    "name": "C#6",
                    "midi": 85,
                    "time": 748.4334350000179,
                    "velocity": 0.6771653543307087,
                    "duration": 0.18798562500001026
                },
                {
                    "name": "A5",
                    "midi": 81,
                    "time": 748.9347300000179,
                    "velocity": 0.6141732283464567,
                    "duration": 0.5012950000000274
                },
                {
                    "name": "A4",
                    "midi": 69,
                    "time": 748.9347300000179,
                    "velocity": 0.6141732283464567,
                    "duration": 0.5012950000000274
                },
                {
                    "name": "E5",
                    "midi": 76,
                    "time": 749.4360250000179,
                    "velocity": 0.5354330708661418,
                    "duration": 0.18798562500001026
                },
                {
                    "name": "E4",
                    "midi": 64,
                    "time": 749.4360250000179,
                    "velocity": 0.5354330708661418,
                    "duration": 0.18798562500001026
                },
                {
                    "name": "C#4",
                    "midi": 61,
                    "time": 749.937320000018,
                    "velocity": 0.2677165354330709,
                    "duration": 2.0051799999999957
                },
                {
                    "name": "A4",
                    "midi": 69,
                    "time": 749.937320000018,
                    "velocity": 0.2677165354330709,
                    "duration": 2.0051799999999957
                },
                {
                    "name": "C#5",
                    "midi": 73,
                    "time": 749.937320000018,
                    "velocity": 0.2677165354330709,
                    "duration": 2.0051799999999957
                },
                {
                    "name": "D4",
                    "midi": 62,
                    "time": 751.942500000018,
                    "velocity": 0.2992125984251969,
                    "duration": 2.0051799999999957
                },
                {
                    "name": "E5",
                    "midi": 76,
                    "time": 751.942500000018,
                    "velocity": 0.2992125984251969,
                    "duration": 2.0051799999999957
                },
                {
                    "name": "G#4",
                    "midi": 68,
                    "time": 751.942500000018,
                    "velocity": 0.2992125984251969,
                    "duration": 2.0051799999999957
                },
                {
                    "name": "E4",
                    "midi": 64,
                    "time": 753.947680000018,
                    "velocity": 0.7637795275590551,
                    "duration": 0.12532375000000684
                },
                {
                    "name": "E5",
                    "midi": 76,
                    "time": 754.073003750018,
                    "velocity": 0.7086614173228346,
                    "duration": 0.12532375000000684
                },
                {
                    "name": "E4",
                    "midi": 64,
                    "time": 754.198327500018,
                    "velocity": 0.6771653543307087,
                    "duration": 0.12532375000000684
                },
                {
                    "name": "E5",
                    "midi": 76,
                    "time": 754.323651250018,
                    "velocity": 0.6535433070866141,
                    "duration": 0.12532375000000684
                },
                {
                    "name": "C#4",
                    "midi": 61,
                    "time": 754.448975000018,
                    "velocity": 0.6929133858267716,
                    "duration": 0.12532375000000684
                },
                {
                    "name": "C#5",
                    "midi": 73,
                    "time": 754.574298750018,
                    "velocity": 0.6692913385826772,
                    "duration": 0.12532375000000684
                },
                {
                    "name": "C#4",
                    "midi": 61,
                    "time": 754.699622500018,
                    "velocity": 0.6456692913385826,
                    "duration": 0.12532375000000684
                },
                {
                    "name": "C#5",
                    "midi": 73,
                    "time": 754.824946250018,
                    "velocity": 0.6141732283464567,
                    "duration": 0.12532375000000684
                },
                {
                    "name": "E4",
                    "midi": 64,
                    "time": 754.950270000018,
                    "velocity": 0.6850393700787402,
                    "duration": 0.12532375000000684
                },
                {
                    "name": "E5",
                    "midi": 76,
                    "time": 755.075593750018,
                    "velocity": 0.6692913385826772,
                    "duration": 0.12532375000000684
                },
                {
                    "name": "E4",
                    "midi": 64,
                    "time": 755.200917500018,
                    "velocity": 0.6535433070866141,
                    "duration": 0.12532375000000684
                },
                {
                    "name": "E5",
                    "midi": 76,
                    "time": 755.326241250018,
                    "velocity": 0.6299212598425197,
                    "duration": 0.12532375000000684
                },
                {
                    "name": "A4",
                    "midi": 69,
                    "time": 755.451565000018,
                    "velocity": 0.7007874015748031,
                    "duration": 0.12532375000000684
                },
                {
                    "name": "A5",
                    "midi": 81,
                    "time": 755.576888750018,
                    "velocity": 0.6771653543307087,
                    "duration": 0.12532375000000684
                },
                {
                    "name": "A4",
                    "midi": 69,
                    "time": 755.702212500018,
                    "velocity": 0.6614173228346457,
                    "duration": 0.12532375000000684
                },
                {
                    "name": "A5",
                    "midi": 81,
                    "time": 755.827536250018,
                    "velocity": 0.6377952755905512,
                    "duration": 0.12532375000000684
                },
                {
                    "name": "C#5",
                    "midi": 73,
                    "time": 755.9528600000181,
                    "velocity": 0.7401574803149606,
                    "duration": 0.12532375000000684
                },
                {
                    "name": "C#6",
                    "midi": 85,
                    "time": 756.0781837500181,
                    "velocity": 0.7244094488188977,
                    "duration": 0.12532375000000684
                },
                {
                    "name": "C#5",
                    "midi": 73,
                    "time": 756.2035075000181,
                    "velocity": 0.7086614173228346,
                    "duration": 0.12532375000000684
                },
                {
                    "name": "C#6",
                    "midi": 85,
                    "time": 756.3288312500181,
                    "velocity": 0.6929133858267716,
                    "duration": 0.12532375000000684
                },
                {
                    "name": "E5",
                    "midi": 76,
                    "time": 756.4541550000181,
                    "velocity": 0.8031496062992126,
                    "duration": 0.12532375000000684
                },
                {
                    "name": "E6",
                    "midi": 88,
                    "time": 756.5794787500181,
                    "velocity": 0.7716535433070866,
                    "duration": 0.12532375000000684
                },
                {
                    "name": "E5",
                    "midi": 76,
                    "time": 756.7048025000181,
                    "velocity": 0.7401574803149606,
                    "duration": 0.12532375000000684
                },
                {
                    "name": "E6",
                    "midi": 88,
                    "time": 756.8301262500181,
                    "velocity": 0.7086614173228346,
                    "duration": 0.12532375000000684
                },
                {
                    "name": "A5",
                    "midi": 81,
                    "time": 756.9554500000181,
                    "velocity": 0.8582677165354331,
                    "duration": 0.12532375000000684
                },
                {
                    "name": "A6",
                    "midi": 93,
                    "time": 757.0807737500181,
                    "velocity": 0.7874015748031497,
                    "duration": 0.12532375000000684
                },
                {
                    "name": "A5",
                    "midi": 81,
                    "time": 757.2060975000181,
                    "velocity": 0.7401574803149606,
                    "duration": 0.12532375000000684
                },
                {
                    "name": "A6",
                    "midi": 93,
                    "time": 757.3314212500181,
                    "velocity": 0.6929133858267716,
                    "duration": 0.12532375000000684
                },
                {
                    "name": "E5",
                    "midi": 76,
                    "time": 757.4567450000181,
                    "velocity": 0.6535433070866141,
                    "duration": 0.12532375000000684
                },
                {
                    "name": "E6",
                    "midi": 88,
                    "time": 757.5820687500182,
                    "velocity": 0.6062992125984252,
                    "duration": 0.12532375000000684
                },
                {
                    "name": "E5",
                    "midi": 76,
                    "time": 757.7073925000182,
                    "velocity": 0.5511811023622047,
                    "duration": 0.12532375000000684
                },
                {
                    "name": "E6",
                    "midi": 88,
                    "time": 757.8327162500182,
                    "velocity": 0.47244094488188976,
                    "duration": 0.12532375000000684
                },
                {
                    "name": "A4",
                    "midi": 69,
                    "time": 757.9580400000182,
                    "velocity": 0.2755905511811024,
                    "duration": 2.0051799999999957
                },
                {
                    "name": "C#4",
                    "midi": 61,
                    "time": 757.9580400000182,
                    "velocity": 0.2755905511811024,
                    "duration": 2.0051799999999957
                },
                {
                    "name": "C#5",
                    "midi": 73,
                    "time": 757.9580400000182,
                    "velocity": 0.2755905511811024,
                    "duration": 2.0051799999999957
                },
                {
                    "name": "G#4",
                    "midi": 68,
                    "time": 759.9632200000182,
                    "velocity": 0.28346456692913385,
                    "duration": 2.0051799999999957
                },
                {
                    "name": "E5",
                    "midi": 76,
                    "time": 759.9632200000182,
                    "velocity": 0.33858267716535434,
                    "duration": 2.0051799999999957
                },
                {
                    "name": "D4",
                    "midi": 62,
                    "time": 759.9632200000182,
                    "velocity": 0.28346456692913385,
                    "duration": 2.0051799999999957
                },
                {
                    "name": "C#3",
                    "midi": 49,
                    "time": 761.9684000000182,
                    "velocity": 0.2677165354330709,
                    "duration": 0.9608154166667191
                },
                {
                    "name": "C#4",
                    "midi": 61,
                    "time": 761.9684000000182,
                    "velocity": 0.2677165354330709,
                    "duration": 0.9608154166667191
                },
                {
                    "name": "A3",
                    "midi": 57,
                    "time": 762.9709900000182,
                    "velocity": 0.16535433070866143,
                    "duration": 0.3759712500000205
                },
                {
                    "name": "C#3",
                    "midi": 49,
                    "time": 762.9709900000182,
                    "velocity": 0.16535433070866143,
                    "duration": 0.3759712500000205
                },
                {
                    "name": "D5",
                    "midi": 74,
                    "time": 763.9735800000183,
                    "velocity": 0.33070866141732286,
                    "duration": 0.9608154166667191
                },
                {
                    "name": "G#5",
                    "midi": 80,
                    "time": 763.9735800000183,
                    "velocity": 0.33070866141732286,
                    "duration": 0.9608154166667191
                },
                {
                    "name": "E6",
                    "midi": 88,
                    "time": 763.9735800000183,
                    "velocity": 0.33070866141732286,
                    "duration": 0.9608154166667191
                },
                {
                    "name": "G#5",
                    "midi": 80,
                    "time": 764.9761700000183,
                    "velocity": 0.2204724409448819,
                    "duration": 0.3759712500000205
                },
                {
                    "name": "D5",
                    "midi": 74,
                    "time": 764.9761700000183,
                    "velocity": 0.2204724409448819,
                    "duration": 0.3759712500000205
                },
                {
                    "name": "C#3",
                    "midi": 49,
                    "time": 765.9787600000184,
                    "velocity": 0.2677165354330709,
                    "duration": 0.9608154166667191
                },
                {
                    "name": "C#4",
                    "midi": 61,
                    "time": 765.9787600000184,
                    "velocity": 0.2677165354330709,
                    "duration": 0.9608154166667191
                },
                {
                    "name": "C#3",
                    "midi": 49,
                    "time": 766.9813500000184,
                    "velocity": 0.18110236220472442,
                    "duration": 0.3759712500000205
                },
                {
                    "name": "A3",
                    "midi": 57,
                    "time": 766.9813500000184,
                    "velocity": 0.18110236220472442,
                    "duration": 0.3759712500000205
                },
                {
                    "name": "D5",
                    "midi": 74,
                    "time": 767.9839400000185,
                    "velocity": 0.33070866141732286,
                    "duration": 0.9608154166667191
                },
                {
                    "name": "E6",
                    "midi": 88,
                    "time": 767.9839400000185,
                    "velocity": 0.33070866141732286,
                    "duration": 0.9608154166667191
                },
                {
                    "name": "G#5",
                    "midi": 80,
                    "time": 767.9839400000185,
                    "velocity": 0.33070866141732286,
                    "duration": 0.9608154166667191
                },
                {
                    "name": "D5",
                    "midi": 74,
                    "time": 768.9865300000185,
                    "velocity": 0.2204724409448819,
                    "duration": 0.3759712500000205
                },
                {
                    "name": "G#5",
                    "midi": 80,
                    "time": 768.9865300000185,
                    "velocity": 0.2204724409448819,
                    "duration": 0.3759712500000205
                },
                {
                    "name": "C#3",
                    "midi": 49,
                    "time": 769.9891200000186,
                    "velocity": 0.2677165354330709,
                    "duration": 0.9608154166667191
                },
                {
                    "name": "C#4",
                    "midi": 61,
                    "time": 769.9891200000186,
                    "velocity": 0.2677165354330709,
                    "duration": 0.9608154166667191
                },
                {
                    "name": "C#3",
                    "midi": 49,
                    "time": 770.9917100000187,
                    "velocity": 0.15748031496062992,
                    "duration": 0.3759712500000205
                },
                {
                    "name": "A3",
                    "midi": 57,
                    "time": 770.9917100000187,
                    "velocity": 0.15748031496062992,
                    "duration": 0.3759712500000205
                },
                {
                    "name": "D5",
                    "midi": 74,
                    "time": 771.9943000000187,
                    "velocity": 0.33070866141732286,
                    "duration": 0.9608154166667191
                },
                {
                    "name": "G#5",
                    "midi": 80,
                    "time": 771.9943000000187,
                    "velocity": 0.33070866141732286,
                    "duration": 0.9608154166667191
                },
                {
                    "name": "E6",
                    "midi": 88,
                    "time": 771.9943000000187,
                    "velocity": 0.33070866141732286,
                    "duration": 0.9608154166667191
                },
                {
                    "name": "G#5",
                    "midi": 80,
                    "time": 772.9968900000188,
                    "velocity": 0.2047244094488189,
                    "duration": 0.3759712500000205
                },
                {
                    "name": "D5",
                    "midi": 74,
                    "time": 772.9968900000188,
                    "velocity": 0.2047244094488189,
                    "duration": 0.3759712500000205
                },
                {
                    "name": "D5",
                    "midi": 74,
                    "time": 773.9994800000188,
                    "velocity": 0.33070866141732286,
                    "duration": 0.9608154166667191
                },
                {
                    "name": "G#5",
                    "midi": 80,
                    "time": 773.9994800000188,
                    "velocity": 0.33070866141732286,
                    "duration": 0.9608154166667191
                },
                {
                    "name": "E6",
                    "midi": 88,
                    "time": 773.9994800000188,
                    "velocity": 0.33070866141732286,
                    "duration": 0.9608154166667191
                },
                {
                    "name": "G#5",
                    "midi": 80,
                    "time": 775.0020700000189,
                    "velocity": 0.2204724409448819,
                    "duration": 0.3759712500000205
                },
                {
                    "name": "D5",
                    "midi": 74,
                    "time": 775.0020700000189,
                    "velocity": 0.2204724409448819,
                    "duration": 0.3759712500000205
                },
                {
                    "name": "E6",
                    "midi": 88,
                    "time": 776.0046600000189,
                    "velocity": 0.33070866141732286,
                    "duration": 0.9608154166667191
                },
                {
                    "name": "G#5",
                    "midi": 80,
                    "time": 776.0046600000189,
                    "velocity": 0.33070866141732286,
                    "duration": 0.9608154166667191
                },
                {
                    "name": "D5",
                    "midi": 74,
                    "time": 776.0046600000189,
                    "velocity": 0.33070866141732286,
                    "duration": 0.9608154166667191
                },
                {
                    "name": "D5",
                    "midi": 74,
                    "time": 777.007250000019,
                    "velocity": 0.2204724409448819,
                    "duration": 0.3759712500000205
                },
                {
                    "name": "G#5",
                    "midi": 80,
                    "time": 777.007250000019,
                    "velocity": 0.2204724409448819,
                    "duration": 0.3759712500000205
                },
                {
                    "name": "C#5",
                    "midi": 73,
                    "time": 778.009840000019,
                    "velocity": 0.7716535433070866,
                    "duration": 4.0103599999999915
                },
                {
                    "name": "C#6",
                    "midi": 85,
                    "time": 778.009840000019,
                    "velocity": 0.7716535433070866,
                    "duration": 4.0103599999999915
                },
                {
                    "name": "A4",
                    "midi": 69,
                    "time": 782.020200000019,
                    "velocity": 0.1889763779527559,
                    "duration": 4.0103599999999915
                },
                {
                    "name": "A5",
                    "midi": 81,
                    "time": 782.020200000019,
                    "velocity": 0.2992125984251969,
                    "duration": 4.0103599999999915
                },
                {
                    "name": "C#3",
                    "midi": 49,
                    "time": 786.030560000019,
                    "velocity": 0.1889763779527559,
                    "duration": 0.9608154166667191
                },
                {
                    "name": "C#4",
                    "midi": 61,
                    "time": 786.030560000019,
                    "velocity": 0.23622047244094488,
                    "duration": 0.9608154166667191
                },
                {
                    "name": "A3",
                    "midi": 57,
                    "time": 786.030560000019,
                    "velocity": 0.1889763779527559,
                    "duration": 0.9608154166667191
                },
                {
                    "name": "E3",
                    "midi": 52,
                    "time": 786.030560000019,
                    "velocity": 0.1889763779527559,
                    "duration": 0.9608154166667191
                },
                {
                    "name": "C#3",
                    "midi": 49,
                    "time": 787.0331500000191,
                    "velocity": 0.1889763779527559,
                    "duration": 0.9608154166667191
                },
                {
                    "name": "E3",
                    "midi": 52,
                    "time": 787.0331500000191,
                    "velocity": 0.1889763779527559,
                    "duration": 0.9608154166667191
                },
                {
                    "name": "A3",
                    "midi": 57,
                    "time": 787.0331500000191,
                    "velocity": 0.1889763779527559,
                    "duration": 0.9608154166667191
                },
                {
                    "name": "C#4",
                    "midi": 61,
                    "time": 787.0331500000191,
                    "velocity": 0.23622047244094488,
                    "duration": 0.9608154166667191
                },
                {
                    "name": "E3",
                    "midi": 52,
                    "time": 788.0357400000191,
                    "velocity": 0.1889763779527559,
                    "duration": 2.0051799999999957
                },
                {
                    "name": "C#4",
                    "midi": 61,
                    "time": 788.0357400000191,
                    "velocity": 0.23622047244094488,
                    "duration": 2.0051799999999957
                },
                {
                    "name": "A3",
                    "midi": 57,
                    "time": 788.0357400000191,
                    "velocity": 0.1889763779527559,
                    "duration": 2.0051799999999957
                },
                {
                    "name": "C#3",
                    "midi": 49,
                    "time": 788.0357400000191,
                    "velocity": 0.1889763779527559,
                    "duration": 2.0051799999999957
                }
            ],
            "controlChanges": {
                "7": [
                    {
                        "number": 7,
                        "time": 0,
                        "value": 0.7874015748031497
                    }
                ],
                "10": [
                    {
                        "number": 10,
                        "time": 0,
                        "value": 0.5039370078740157
                    }
                ],
                "91": [
                    {
                        "number": 91,
                        "time": 0,
                        "value": 1
                    },
                    {
                        "number": 91,
                        "time": 206.53354000000047,
                        "value": 1
                    },
                    {
                        "number": 91,
                        "time": 537.3882400000074,
                        "value": 1
                    }
                ]
            },
            "id": 1,
            "name": "Piaro right",
            "instrumentNumber": 0,
            "instrument": "acoustic grand piano",
            "instrumentFamily": "piano",
            "channelNumber": 0,
            "isPercussion": false
        },
        {
            "startTime": 0.0010443645833333333,
            "duration": 790.0409200000086,
            "length": 2480,
            "notes": [
                {
                    "name": "A3",
                    "midi": 57,
                    "time": 0.0010443645833333333,
                    "velocity": 0.33070866141732286,
                    "duration": 1.00259
                },
                {
                    "name": "E4",
                    "midi": 64,
                    "time": 1.00259,
                    "velocity": 0.33070866141732286,
                    "duration": 1.00259
                },
                {
                    "name": "D#4",
                    "midi": 63,
                    "time": 2.00518,
                    "velocity": 0.3464566929133858,
                    "duration": 1.0025900000000005
                },
                {
                    "name": "E4",
                    "midi": 64,
                    "time": 3.0077700000000007,
                    "velocity": 0.2992125984251969,
                    "duration": 0.20887291666666652
                },
                {
                    "name": "C4",
                    "midi": 60,
                    "time": 3.5090650000000005,
                    "velocity": 0.30708661417322836,
                    "duration": 0.39685854166666656
                },
                {
                    "name": "B3",
                    "midi": 59,
                    "time": 3.8850362500000006,
                    "velocity": 0.30708661417322836,
                    "duration": 0.14621104166666576
                },
                {
                    "name": "A3",
                    "midi": 57,
                    "time": 4.01036,
                    "velocity": 0.2992125984251969,
                    "duration": 1.0025899999999996
                },
                {
                    "name": "E3",
                    "midi": 52,
                    "time": 5.01295,
                    "velocity": 0.4094488188976378,
                    "duration": 1.0025899999999996
                },
                {
                    "name": "C3",
                    "midi": 48,
                    "time": 6.01554,
                    "velocity": 0.3700787401574803,
                    "duration": 1.0025899999999996
                },
                {
                    "name": "A2",
                    "midi": 45,
                    "time": 7.018129999999999,
                    "velocity": 0.30708661417322836,
                    "duration": 0.1879856249999996
                },
                {
                    "name": "A2",
                    "midi": 45,
                    "time": 8.020719999999999,
                    "velocity": 0.33070866141732286,
                    "duration": 1.0025899999999996
                },
                {
                    "name": "D2",
                    "midi": 38,
                    "time": 9.023309999999999,
                    "velocity": 0.3543307086614173,
                    "duration": 1.0025900000000014
                },
                {
                    "name": "C#2",
                    "midi": 37,
                    "time": 10.0259,
                    "velocity": 0.3779527559055118,
                    "duration": 1.0025899999999996
                },
                {
                    "name": "D2",
                    "midi": 38,
                    "time": 11.02849,
                    "velocity": 0.33070866141732286,
                    "duration": 0.2088729166666674
                },
                {
                    "name": "A2",
                    "midi": 45,
                    "time": 11.529785,
                    "velocity": 0.3464566929133858,
                    "duration": 0.39685854166666523
                },
                {
                    "name": "B2",
                    "midi": 47,
                    "time": 11.90575625,
                    "velocity": 0.3543307086614173,
                    "duration": 0.14621104166666576
                },
                {
                    "name": "C3",
                    "midi": 48,
                    "time": 12.03108,
                    "velocity": 0.3543307086614173,
                    "duration": 1.0025899999999996
                },
                {
                    "name": "E2",
                    "midi": 40,
                    "time": 13.033669999999999,
                    "velocity": 0.3700787401574803,
                    "duration": 1.0025899999999996
                },
                {
                    "name": "C2",
                    "midi": 36,
                    "time": 14.036259999999999,
                    "velocity": 0.3543307086614173,
                    "duration": 1.0025899999999996
                },
                {
                    "name": "A1",
                    "midi": 33,
                    "time": 15.038849999999998,
                    "velocity": 0.3228346456692913,
                    "duration": 0.2088729166666674
                },
                {
                    "name": "D2",
                    "midi": 38,
                    "time": 16.041439999999998,
                    "velocity": 0.2755905511811024,
                    "duration": 1.0025900000000014
                },
                {
                    "name": "A2",
                    "midi": 45,
                    "time": 16.041439999999998,
                    "velocity": 0.2755905511811024,
                    "duration": 1.0025900000000014
                },
                {
                    "name": "F2",
                    "midi": 41,
                    "time": 16.041439999999998,
                    "velocity": 0.2755905511811024,
                    "duration": 1.0025900000000014
                },
                {
                    "name": "A1",
                    "midi": 33,
                    "time": 17.04403,
                    "velocity": 0.25984251968503935,
                    "duration": 0.12532374999999973
                },
                {
                    "name": "C2",
                    "midi": 36,
                    "time": 18.04662,
                    "velocity": 0.28346456692913385,
                    "duration": 1.0025899999999979
                },
                {
                    "name": "A2",
                    "midi": 45,
                    "time": 18.04662,
                    "velocity": 0.28346456692913385,
                    "duration": 1.0025899999999979
                },
                {
                    "name": "E2",
                    "midi": 40,
                    "time": 18.04662,
                    "velocity": 0.28346456692913385,
                    "duration": 1.0025899999999979
                },
                {
                    "name": "A1",
                    "midi": 33,
                    "time": 19.04921,
                    "velocity": 0.2755905511811024,
                    "duration": 0.12532374999999973
                },
                {
                    "name": "F2",
                    "midi": 41,
                    "time": 20.0518,
                    "velocity": 0.28346456692913385,
                    "duration": 1.0025900000000014
                },
                {
                    "name": "A2",
                    "midi": 45,
                    "time": 20.0518,
                    "velocity": 0.28346456692913385,
                    "duration": 1.0025900000000014
                },
                {
                    "name": "D2",
                    "midi": 38,
                    "time": 20.0518,
                    "velocity": 0.28346456692913385,
                    "duration": 1.0025900000000014
                },
                {
                    "name": "A1",
                    "midi": 33,
                    "time": 21.05439,
                    "velocity": 0.2677165354330709,
                    "duration": 0.12532374999999973
                },
                {
                    "name": "C2",
                    "midi": 36,
                    "time": 22.05698,
                    "velocity": 0.28346456692913385,
                    "duration": 1.0025900000000014
                },
                {
                    "name": "E2",
                    "midi": 40,
                    "time": 22.05698,
                    "velocity": 0.28346456692913385,
                    "duration": 1.0025900000000014
                },
                {
                    "name": "A2",
                    "midi": 45,
                    "time": 22.05698,
                    "velocity": 0.28346456692913385,
                    "duration": 1.0025900000000014
                },
                {
                    "name": "A1",
                    "midi": 33,
                    "time": 23.05957,
                    "velocity": 0.2677165354330709,
                    "duration": 0.2088729166666674
                },
                {
                    "name": "D2",
                    "midi": 38,
                    "time": 24.062160000000002,
                    "velocity": 0.29133858267716534,
                    "duration": 1.0025899999999979
                },
                {
                    "name": "F2",
                    "midi": 41,
                    "time": 24.062160000000002,
                    "velocity": 0.29133858267716534,
                    "duration": 1.0025899999999979
                },
                {
                    "name": "A2",
                    "midi": 45,
                    "time": 24.062160000000002,
                    "velocity": 0.29133858267716534,
                    "duration": 1.0025899999999979
                },
                {
                    "name": "A1",
                    "midi": 33,
                    "time": 25.06475,
                    "velocity": 0.2755905511811024,
                    "duration": 0.2088729166666674
                },
                {
                    "name": "C2",
                    "midi": 36,
                    "time": 26.06734,
                    "velocity": 0.28346456692913385,
                    "duration": 1.0025900000000014
                },
                {
                    "name": "E2",
                    "midi": 40,
                    "time": 26.06734,
                    "velocity": 0.28346456692913385,
                    "duration": 1.0025900000000014
                },
                {
                    "name": "A2",
                    "midi": 45,
                    "time": 26.06734,
                    "velocity": 0.28346456692913385,
                    "duration": 1.0025900000000014
                },
                {
                    "name": "A1",
                    "midi": 33,
                    "time": 27.069930000000003,
                    "velocity": 0.25984251968503935,
                    "duration": 0.2088729166666674
                },
                {
                    "name": "F3",
                    "midi": 53,
                    "time": 28.07252,
                    "velocity": 0.3543307086614173,
                    "duration": 1.0025900000000014
                },
                {
                    "name": "A3",
                    "midi": 57,
                    "time": 28.07252,
                    "velocity": 0.3543307086614173,
                    "duration": 1.0025900000000014
                },
                {
                    "name": "D3",
                    "midi": 50,
                    "time": 28.07252,
                    "velocity": 0.3543307086614173,
                    "duration": 1.0025900000000014
                },
                {
                    "name": "A2",
                    "midi": 45,
                    "time": 29.075110000000002,
                    "velocity": 0.2755905511811024,
                    "duration": 0.12532374999999973
                },
                {
                    "name": "C3",
                    "midi": 48,
                    "time": 30.077700000000004,
                    "velocity": 0.3228346456692913,
                    "duration": 1.0025900000000014
                },
                {
                    "name": "E3",
                    "midi": 52,
                    "time": 30.077700000000004,
                    "velocity": 0.3228346456692913,
                    "duration": 1.0025900000000014
                },
                {
                    "name": "A3",
                    "midi": 57,
                    "time": 30.077700000000004,
                    "velocity": 0.3228346456692913,
                    "duration": 1.000501270833336
                },
                {
                    "name": "A2",
                    "midi": 45,
                    "time": 31.080290000000005,
                    "velocity": 0.28346456692913385,
                    "duration": 0.20887291666666385
                },
                {
                    "name": "B2",
                    "midi": 47,
                    "time": 32.08288,
                    "velocity": 0.5511811023622047,
                    "duration": 1.0025899999999979
                },
                {
                    "name": "E3",
                    "midi": 52,
                    "time": 32.08288,
                    "velocity": 0.5511811023622047,
                    "duration": 1.0025899999999979
                },
                {
                    "name": "G3",
                    "midi": 55,
                    "time": 32.08288,
                    "velocity": 0.5511811023622047,
                    "duration": 1.0025899999999979
                },
                {
                    "name": "G2",
                    "midi": 43,
                    "time": 33.08547,
                    "velocity": 0.4251968503937008,
                    "duration": 0.18798562500000315
                },
                {
                    "name": "D#3",
                    "midi": 51,
                    "time": 34.088060000000006,
                    "velocity": 0.49606299212598426,
                    "duration": 0.9190408333333338
                },
                {
                    "name": "F#3",
                    "midi": 54,
                    "time": 34.088060000000006,
                    "velocity": 0.5590551181102362,
                    "duration": 0.9190408333333338
                },
                {
                    "name": "F#2",
                    "midi": 42,
                    "time": 34.088060000000006,
                    "velocity": 0.49606299212598426,
                    "duration": 0.9190408333333338
                },
                {
                    "name": "B2",
                    "midi": 47,
                    "time": 35.090650000000004,
                    "velocity": 0.4251968503937008,
                    "duration": 0.9190408333333338
                },
                {
                    "name": "D#3",
                    "midi": 51,
                    "time": 35.090650000000004,
                    "velocity": 0.4251968503937008,
                    "duration": 0.9190408333333338
                },
                {
                    "name": "B3",
                    "midi": 59,
                    "time": 35.090650000000004,
                    "velocity": 0.48031496062992124,
                    "duration": 0.9190408333333338
                },
                {
                    "name": "G3",
                    "midi": 55,
                    "time": 36.09324,
                    "velocity": 0.3858267716535433,
                    "duration": 1.002590000000005
                },
                {
                    "name": "G2",
                    "midi": 43,
                    "time": 36.09324,
                    "velocity": 0.3858267716535433,
                    "duration": 1.002590000000005
                },
                {
                    "name": "E3",
                    "midi": 52,
                    "time": 37.09583000000001,
                    "velocity": 0.33070866141732286,
                    "duration": 0.20887291666667096
                },
                {
                    "name": "E2",
                    "midi": 40,
                    "time": 37.09583000000001,
                    "velocity": 0.33070866141732286,
                    "duration": 0.20887291666667096
                },
                {
                    "name": "F#1",
                    "midi": 30,
                    "time": 38.09842000000001,
                    "velocity": 0.2047244094488189,
                    "duration": 0.9190408333333338
                },
                {
                    "name": "F#2",
                    "midi": 42,
                    "time": 38.09842000000001,
                    "velocity": 0.2047244094488189,
                    "duration": 0.9190408333333338
                },
                {
                    "name": "D#2",
                    "midi": 39,
                    "time": 38.09842000000001,
                    "velocity": 0.2047244094488189,
                    "duration": 0.9190408333333338
                },
                {
                    "name": "B1",
                    "midi": 35,
                    "time": 39.10101000000001,
                    "velocity": 0.1889763779527559,
                    "duration": 0.9190408333333338
                },
                {
                    "name": "D#2",
                    "midi": 39,
                    "time": 39.10101000000001,
                    "velocity": 0.1889763779527559,
                    "duration": 0.9190408333333338
                },
                {
                    "name": "B2",
                    "midi": 47,
                    "time": 39.10101000000001,
                    "velocity": 0.1889763779527559,
                    "duration": 0.9190408333333338
                },
                {
                    "name": "G2",
                    "midi": 43,
                    "time": 40.10360000000001,
                    "velocity": 0.23622047244094488,
                    "duration": 1.0025899999999979
                },
                {
                    "name": "G1",
                    "midi": 31,
                    "time": 40.10360000000001,
                    "velocity": 0.23622047244094488,
                    "duration": 1.0025899999999979
                },
                {
                    "name": "E1",
                    "midi": 28,
                    "time": 41.106190000000005,
                    "velocity": 0.2125984251968504,
                    "duration": 0.20887291666667096
                },
                {
                    "name": "E2",
                    "midi": 40,
                    "time": 41.106190000000005,
                    "velocity": 0.2125984251968504,
                    "duration": 0.20887291666667096
                },
                {
                    "name": "E2",
                    "midi": 40,
                    "time": 42.10878000000001,
                    "velocity": 0.23622047244094488,
                    "duration": 1.1488010416666654
                },
                {
                    "name": "F2",
                    "midi": 41,
                    "time": 43.23669375000001,
                    "velocity": 0.18110236220472442,
                    "duration": 0.14621104166666754
                },
                {
                    "name": "E2",
                    "midi": 40,
                    "time": 43.36201750000001,
                    "velocity": 0.2125984251968504,
                    "duration": 0.14621104166666754
                },
                {
                    "name": "F2",
                    "midi": 41,
                    "time": 43.48734125000001,
                    "velocity": 0.1968503937007874,
                    "duration": 0.14621104166666754
                },
                {
                    "name": "E2",
                    "midi": 40,
                    "time": 43.61266500000001,
                    "velocity": 0.2283464566929134,
                    "duration": 0.14621104166666754
                },
                {
                    "name": "F2",
                    "midi": 41,
                    "time": 43.73798875000001,
                    "velocity": 0.1732283464566929,
                    "duration": 0.14621104166666754
                },
                {
                    "name": "E2",
                    "midi": 40,
                    "time": 43.863312500000006,
                    "velocity": 0.2125984251968504,
                    "duration": 0.14621104166666754
                },
                {
                    "name": "F2",
                    "midi": 41,
                    "time": 43.988636250000006,
                    "velocity": 0.18110236220472442,
                    "duration": 0.14621104166666754
                },
                {
                    "name": "E2",
                    "midi": 40,
                    "time": 44.113960000000006,
                    "velocity": 0.2440944881889764,
                    "duration": 0.14621104166666754
                },
                {
                    "name": "F2",
                    "midi": 41,
                    "time": 44.239283750000006,
                    "velocity": 0.2204724409448819,
                    "duration": 0.14621104166666754
                },
                {
                    "name": "E2",
                    "midi": 40,
                    "time": 44.364607500000005,
                    "velocity": 0.2440944881889764,
                    "duration": 0.14621104166666754
                },
                {
                    "name": "F2",
                    "midi": 41,
                    "time": 44.489931250000005,
                    "velocity": 0.1968503937007874,
                    "duration": 0.14621104166666754
                },
                {
                    "name": "E2",
                    "midi": 40,
                    "time": 44.615255000000005,
                    "velocity": 0.2677165354330709,
                    "duration": 0.14621104166666754
                },
                {
                    "name": "F2",
                    "midi": 41,
                    "time": 44.740578750000005,
                    "velocity": 0.23622047244094488,
                    "duration": 0.14621104166666754
                },
                {
                    "name": "E2",
                    "midi": 40,
                    "time": 44.865902500000004,
                    "velocity": 0.2677165354330709,
                    "duration": 0.14621104166666754
                },
                {
                    "name": "F2",
                    "midi": 41,
                    "time": 44.991226250000004,
                    "velocity": 0.2283464566929134,
                    "duration": 0.14621104166666754
                },
                {
                    "name": "E2",
                    "midi": 40,
                    "time": 45.116550000000004,
                    "velocity": 0.2677165354330709,
                    "duration": 0.14621104166666754
                },
                {
                    "name": "F2",
                    "midi": 41,
                    "time": 45.24187375,
                    "velocity": 0.2204724409448819,
                    "duration": 0.14621104166666754
                },
                {
                    "name": "E2",
                    "midi": 40,
                    "time": 45.3671975,
                    "velocity": 0.2677165354330709,
                    "duration": 0.14621104166666754
                },
                {
                    "name": "F2",
                    "midi": 41,
                    "time": 45.49252125,
                    "velocity": 0.2283464566929134,
                    "duration": 0.14621104166666754
                },
                {
                    "name": "E2",
                    "midi": 40,
                    "time": 45.617845,
                    "velocity": 0.2677165354330709,
                    "duration": 0.14621104166666754
                },
                {
                    "name": "F2",
                    "midi": 41,
                    "time": 45.74316875,
                    "velocity": 0.2283464566929134,
                    "duration": 0.14621104166666754
                },
                {
                    "name": "E2",
                    "midi": 40,
                    "time": 45.8684925,
                    "velocity": 0.2677165354330709,
                    "duration": 0.14621104166666754
                },
                {
                    "name": "F2",
                    "midi": 41,
                    "time": 45.99381625,
                    "velocity": 0.23622047244094488,
                    "duration": 0.14621104166666754
                },
                {
                    "name": "E2",
                    "midi": 40,
                    "time": 46.11914,
                    "velocity": 0.30708661417322836,
                    "duration": 0.14621104166666754
                },
                {
                    "name": "F2",
                    "midi": 41,
                    "time": 46.24446375,
                    "velocity": 0.25984251968503935,
                    "duration": 0.14621104166666754
                },
                {
                    "name": "E2",
                    "midi": 40,
                    "time": 46.3697875,
                    "velocity": 0.30708661417322836,
                    "duration": 0.14621104166666754
                },
                {
                    "name": "F2",
                    "midi": 41,
                    "time": 46.49511125,
                    "velocity": 0.25984251968503935,
                    "duration": 0.14621104166666754
                },
                {
                    "name": "E2",
                    "midi": 40,
                    "time": 46.620435,
                    "velocity": 0.30708661417322836,
                    "duration": 0.14621104166666754
                },
                {
                    "name": "F2",
                    "midi": 41,
                    "time": 46.74575875,
                    "velocity": 0.25984251968503935,
                    "duration": 0.14621104166666754
                },
                {
                    "name": "E2",
                    "midi": 40,
                    "time": 46.8710825,
                    "velocity": 0.31496062992125984,
                    "duration": 0.14621104166666754
                },
                {
                    "name": "F2",
                    "midi": 41,
                    "time": 46.99640625,
                    "velocity": 0.2755905511811024,
                    "duration": 0.14621104166666754
                },
                {
                    "name": "E2",
                    "midi": 40,
                    "time": 47.12173,
                    "velocity": 0.31496062992125984,
                    "duration": 0.14621104166666754
                },
                {
                    "name": "F2",
                    "midi": 41,
                    "time": 47.24705375,
                    "velocity": 0.2755905511811024,
                    "duration": 0.14621104166666754
                },
                {
                    "name": "E2",
                    "midi": 40,
                    "time": 47.3723775,
                    "velocity": 0.3228346456692913,
                    "duration": 0.14621104166666754
                },
                {
                    "name": "F2",
                    "midi": 41,
                    "time": 47.49770125,
                    "velocity": 0.2677165354330709,
                    "duration": 0.14621104166666754
                },
                {
                    "name": "E2",
                    "midi": 40,
                    "time": 47.623025,
                    "velocity": 0.3228346456692913,
                    "duration": 0.14621104166666754
                },
                {
                    "name": "F2",
                    "midi": 41,
                    "time": 47.74834875,
                    "velocity": 0.28346456692913385,
                    "duration": 0.14621104166666754
                },
                {
                    "name": "E2",
                    "midi": 40,
                    "time": 47.8736725,
                    "velocity": 0.33070866141732286,
                    "duration": 0.14621104166666754
                },
                {
                    "name": "F2",
                    "midi": 41,
                    "time": 47.99899625,
                    "velocity": 0.29133858267716534,
                    "duration": 0.14621104166666754
                },
                {
                    "name": "E2",
                    "midi": 40,
                    "time": 48.12432,
                    "velocity": 0.3700787401574803,
                    "duration": 0.14621104166666754
                },
                {
                    "name": "F2",
                    "midi": 41,
                    "time": 48.24964375,
                    "velocity": 0.30708661417322836,
                    "duration": 0.14621104166666754
                },
                {
                    "name": "E2",
                    "midi": 40,
                    "time": 48.3749675,
                    "velocity": 0.3700787401574803,
                    "duration": 0.14621104166666754
                },
                {
                    "name": "F2",
                    "midi": 41,
                    "time": 48.50029125,
                    "velocity": 0.30708661417322836,
                    "duration": 0.14621104166666754
                },
                {
                    "name": "E2",
                    "midi": 40,
                    "time": 48.625614999999996,
                    "velocity": 0.3779527559055118,
                    "duration": 0.14621104166666754
                },
                {
                    "name": "F2",
                    "midi": 41,
                    "time": 48.750938749999996,
                    "velocity": 0.31496062992125984,
                    "duration": 0.14621104166666754
                },
                {
                    "name": "E2",
                    "midi": 40,
                    "time": 48.876262499999996,
                    "velocity": 0.3779527559055118,
                    "duration": 0.14621104166666754
                },
                {
                    "name": "F2",
                    "midi": 41,
                    "time": 49.001586249999995,
                    "velocity": 0.33070866141732286,
                    "duration": 0.14621104166666754
                },
                {
                    "name": "E2",
                    "midi": 40,
                    "time": 49.126909999999995,
                    "velocity": 0.3858267716535433,
                    "duration": 0.14621104166666754
                },
                {
                    "name": "F2",
                    "midi": 41,
                    "time": 49.252233749999995,
                    "velocity": 0.33858267716535434,
                    "duration": 0.14621104166666754
                },
                {
                    "name": "E2",
                    "midi": 40,
                    "time": 49.377557499999995,
                    "velocity": 0.4251968503937008,
                    "duration": 0.14621104166666754
                },
                {
                    "name": "F2",
                    "midi": 41,
                    "time": 49.502881249999994,
                    "velocity": 0.3779527559055118,
                    "duration": 0.14621104166666754
                },
                {
                    "name": "E2",
                    "midi": 40,
                    "time": 49.628204999999994,
                    "velocity": 0.4881889763779528,
                    "duration": 0.14621104166666754
                },
                {
                    "name": "F2",
                    "midi": 41,
                    "time": 49.753528749999994,
                    "velocity": 0.49606299212598426,
                    "duration": 0.14621104166666754
                },
                {
                    "name": "E2",
                    "midi": 40,
                    "time": 49.878852499999994,
                    "velocity": 0.5590551181102362,
                    "duration": 0.14621104166666754
                },
                {
                    "name": "G#2",
                    "midi": 44,
                    "time": 50.00417624999999,
                    "velocity": 0.6220472440944882,
                    "duration": 0.14621104166666754
                },
                {
                    "name": "A1",
                    "midi": 33,
                    "time": 50.12949999999999,
                    "velocity": 0.6299212598425197,
                    "duration": 1.0025899999999979
                },
                {
                    "name": "A2",
                    "midi": 45,
                    "time": 50.12949999999999,
                    "velocity": 0.6299212598425197,
                    "duration": 1.0025899999999979
                },
                {
                    "name": "E2",
                    "midi": 40,
                    "time": 51.13208999999999,
                    "velocity": 0.5984251968503937,
                    "duration": 1.002590000000005
                },
                {
                    "name": "E3",
                    "midi": 52,
                    "time": 51.13208999999999,
                    "velocity": 0.5984251968503937,
                    "duration": 1.002590000000005
                },
                {
                    "name": "D#3",
                    "midi": 51,
                    "time": 52.134679999999996,
                    "velocity": 0.5748031496062992,
                    "duration": 1.0025899999999979
                },
                {
                    "name": "D#2",
                    "midi": 39,
                    "time": 52.134679999999996,
                    "velocity": 0.5748031496062992,
                    "duration": 1.0025899999999979
                },
                {
                    "name": "E2",
                    "midi": 40,
                    "time": 53.137269999999994,
                    "velocity": 0.5196850393700787,
                    "duration": 0.25064749999999947
                },
                {
                    "name": "E3",
                    "midi": 52,
                    "time": 53.137269999999994,
                    "velocity": 0.5196850393700787,
                    "duration": 0.25064749999999947
                },
                {
                    "name": "E3",
                    "midi": 52,
                    "time": 53.63856499999999,
                    "velocity": 0.3779527559055118,
                    "duration": 0.25064749999999947
                },
                {
                    "name": "E4",
                    "midi": 64,
                    "time": 53.63856499999999,
                    "velocity": 0.3779527559055118,
                    "duration": 0.25064749999999947
                },
                {
                    "name": "D3",
                    "midi": 50,
                    "time": 54.01453624999999,
                    "velocity": 0.36220472440944884,
                    "duration": 0.09399281249999802
                },
                {
                    "name": "D4",
                    "midi": 62,
                    "time": 54.01453624999999,
                    "velocity": 0.36220472440944884,
                    "duration": 0.09399281249999802
                },
                {
                    "name": "C4",
                    "midi": 60,
                    "time": 54.13985999999999,
                    "velocity": 0.3779527559055118,
                    "duration": 0.25064749999999947
                },
                {
                    "name": "C3",
                    "midi": 48,
                    "time": 54.13985999999999,
                    "velocity": 0.3779527559055118,
                    "duration": 0.25064749999999947
                },
                {
                    "name": "B3",
                    "midi": 59,
                    "time": 54.51583124999999,
                    "velocity": 0.36220472440944884,
                    "duration": 0.09399281250000513
                },
                {
                    "name": "B2",
                    "midi": 47,
                    "time": 54.51583124999999,
                    "velocity": 0.36220472440944884,
                    "duration": 0.09399281250000513
                },
                {
                    "name": "A3",
                    "midi": 57,
                    "time": 54.641155,
                    "velocity": 0.33858267716535434,
                    "duration": 0.25064749999999947
                },
                {
                    "name": "A2",
                    "midi": 45,
                    "time": 54.641155,
                    "velocity": 0.33858267716535434,
                    "duration": 0.25064749999999947
                },
                {
                    "name": "G#2",
                    "midi": 44,
                    "time": 55.01712625,
                    "velocity": 0.33070866141732286,
                    "duration": 0.09399281249999802
                },
                {
                    "name": "G#3",
                    "midi": 56,
                    "time": 55.01712625,
                    "velocity": 0.33070866141732286,
                    "duration": 0.09399281249999802
                },
                {
                    "name": "A3",
                    "midi": 57,
                    "time": 55.14245,
                    "velocity": 0.36220472440944884,
                    "duration": 0.25064749999999947
                },
                {
                    "name": "A2",
                    "midi": 45,
                    "time": 55.14245,
                    "velocity": 0.36220472440944884,
                    "duration": 0.25064749999999947
                },
                {
                    "name": "G3",
                    "midi": 55,
                    "time": 55.518421249999996,
                    "velocity": 0.31496062992125984,
                    "duration": 0.09399281249999802
                },
                {
                    "name": "G2",
                    "midi": 43,
                    "time": 55.518421249999996,
                    "velocity": 0.31496062992125984,
                    "duration": 0.09399281249999802
                },
                {
                    "name": "F3",
                    "midi": 53,
                    "time": 55.643744999999996,
                    "velocity": 0.36220472440944884,
                    "duration": 0.25064749999999947
                },
                {
                    "name": "F2",
                    "midi": 41,
                    "time": 55.643744999999996,
                    "velocity": 0.36220472440944884,
                    "duration": 0.25064749999999947
                },
                {
                    "name": "E3",
                    "midi": 52,
                    "time": 56.019716249999995,
                    "velocity": 0.33070866141732286,
                    "duration": 0.09399281249999802
                },
                {
                    "name": "E2",
                    "midi": 40,
                    "time": 56.019716249999995,
                    "velocity": 0.33070866141732286,
                    "duration": 0.09399281249999802
                },
                {
                    "name": "F3",
                    "midi": 53,
                    "time": 56.145039999999995,
                    "velocity": 0.3779527559055118,
                    "duration": 0.25064749999999947
                },
                {
                    "name": "F2",
                    "midi": 41,
                    "time": 56.145039999999995,
                    "velocity": 0.3779527559055118,
                    "duration": 0.25064749999999947
                },
                {
                    "name": "G#3",
                    "midi": 56,
                    "time": 56.521011249999994,
                    "velocity": 0.36220472440944884,
                    "duration": 0.09399281249999802
                },
                {
                    "name": "G#2",
                    "midi": 44,
                    "time": 56.521011249999994,
                    "velocity": 0.36220472440944884,
                    "duration": 0.09399281249999802
                },
                {
                    "name": "A2",
                    "midi": 45,
                    "time": 56.64633499999999,
                    "velocity": 0.3779527559055118,
                    "duration": 0.25064749999999947
                },
                {
                    "name": "A3",
                    "midi": 57,
                    "time": 56.64633499999999,
                    "velocity": 0.3779527559055118,
                    "duration": 0.25064749999999947
                },
                {
                    "name": "B2",
                    "midi": 47,
                    "time": 57.02230624999999,
                    "velocity": 0.36220472440944884,
                    "duration": 0.09399281250000513
                },
                {
                    "name": "B3",
                    "midi": 59,
                    "time": 57.02230624999999,
                    "velocity": 0.36220472440944884,
                    "duration": 0.09399281250000513
                },
                {
                    "name": "C3",
                    "midi": 48,
                    "time": 57.14763,
                    "velocity": 0.4094488188976378,
                    "duration": 0.25064749999999947
                },
                {
                    "name": "C4",
                    "midi": 60,
                    "time": 57.14763,
                    "velocity": 0.4094488188976378,
                    "duration": 0.25064749999999947
                },
                {
                    "name": "D3",
                    "midi": 50,
                    "time": 57.52360125,
                    "velocity": 0.3779527559055118,
                    "duration": 0.09399281249999802
                },
                {
                    "name": "D4",
                    "midi": 62,
                    "time": 57.52360125,
                    "velocity": 0.3779527559055118,
                    "duration": 0.09399281249999802
                },
                {
                    "name": "C4",
                    "midi": 60,
                    "time": 57.648925,
                    "velocity": 0.41732283464566927,
                    "duration": 0.12532374999999973
                },
                {
                    "name": "C3",
                    "midi": 48,
                    "time": 57.648925,
                    "velocity": 0.41732283464566927,
                    "duration": 0.12532374999999973
                },
                {
                    "name": "A2",
                    "midi": 45,
                    "time": 58.15022,
                    "velocity": 0.7086614173228346,
                    "duration": 1.0025899999999979
                },
                {
                    "name": "D2",
                    "midi": 38,
                    "time": 59.152809999999995,
                    "velocity": 0.6771653543307087,
                    "duration": 1.002590000000005
                },
                {
                    "name": "A2",
                    "midi": 45,
                    "time": 59.152809999999995,
                    "velocity": 0.6771653543307087,
                    "duration": 1.002590000000005
                },
                {
                    "name": "C#2",
                    "midi": 37,
                    "time": 60.1554,
                    "velocity": 0.5590551181102362,
                    "duration": 1.0025899999999979
                },
                {
                    "name": "A2",
                    "midi": 45,
                    "time": 60.1554,
                    "velocity": 0.5590551181102362,
                    "duration": 1.2532374999999973
                },
                {
                    "name": "D2",
                    "midi": 38,
                    "time": 61.15799,
                    "velocity": 0.5590551181102362,
                    "duration": 0.25064749999999947
                },
                {
                    "name": "A3",
                    "midi": 57,
                    "time": 61.659285,
                    "velocity": 0.41732283464566927,
                    "duration": 0.25064749999999947
                },
                {
                    "name": "A4",
                    "midi": 69,
                    "time": 61.659285,
                    "velocity": 0.41732283464566927,
                    "duration": 0.25064749999999947
                },
                {
                    "name": "G3",
                    "midi": 55,
                    "time": 62.035256249999996,
                    "velocity": 0.4094488188976378,
                    "duration": 0.09399281250000513
                },
                {
                    "name": "G4",
                    "midi": 67,
                    "time": 62.035256249999996,
                    "velocity": 0.4094488188976378,
                    "duration": 0.09399281250000513
                },
                {
                    "name": "F3",
                    "midi": 53,
                    "time": 62.16058,
                    "velocity": 0.3779527559055118,
                    "duration": 0.25064749999999947
                },
                {
                    "name": "F4",
                    "midi": 65,
                    "time": 62.16058,
                    "velocity": 0.3779527559055118,
                    "duration": 0.25064749999999947
                },
                {
                    "name": "E3",
                    "midi": 52,
                    "time": 62.53655125,
                    "velocity": 0.36220472440944884,
                    "duration": 0.09399281249999802
                },
                {
                    "name": "E4",
                    "midi": 64,
                    "time": 62.53655125,
                    "velocity": 0.36220472440944884,
                    "duration": 0.09399281249999802
                },
                {
                    "name": "D4",
                    "midi": 62,
                    "time": 62.661875,
                    "velocity": 0.33858267716535434,
                    "duration": 0.25064749999999947
                },
                {
                    "name": "D3",
                    "midi": 50,
                    "time": 62.661875,
                    "velocity": 0.33858267716535434,
                    "duration": 0.25064749999999947
                },
                {
                    "name": "C#3",
                    "midi": 49,
                    "time": 63.03784625,
                    "velocity": 0.33070866141732286,
                    "duration": 0.09399281249999802
                },
                {
                    "name": "C#4",
                    "midi": 61,
                    "time": 63.03784625,
                    "velocity": 0.33070866141732286,
                    "duration": 0.09399281249999802
                },
                {
                    "name": "D3",
                    "midi": 50,
                    "time": 63.16317,
                    "velocity": 0.36220472440944884,
                    "duration": 0.25064749999999947
                },
                {
                    "name": "D4",
                    "midi": 62,
                    "time": 63.16317,
                    "velocity": 0.36220472440944884,
                    "duration": 0.25064749999999947
                },
                {
                    "name": "C3",
                    "midi": 48,
                    "time": 63.53914125,
                    "velocity": 0.31496062992125984,
                    "duration": 0.09399281250000513
                },
                {
                    "name": "C4",
                    "midi": 60,
                    "time": 63.53914125,
                    "velocity": 0.31496062992125984,
                    "duration": 0.09399281250000513
                },
                {
                    "name": "A#2",
                    "midi": 46,
                    "time": 63.66446500000001,
                    "velocity": 0.36220472440944884,
                    "duration": 0.25064749999999947
                },
                {
                    "name": "A#3",
                    "midi": 58,
                    "time": 63.66446500000001,
                    "velocity": 0.36220472440944884,
                    "duration": 0.25064749999999947
                },
                {
                    "name": "A3",
                    "midi": 57,
                    "time": 64.04043625000001,
                    "velocity": 0.33070866141732286,
                    "duration": 0.09399281250000513
                },
                {
                    "name": "A2",
                    "midi": 45,
                    "time": 64.04043625000001,
                    "velocity": 0.33070866141732286,
                    "duration": 0.09399281250000513
                },
                {
                    "name": "A#3",
                    "midi": 58,
                    "time": 64.16576000000002,
                    "velocity": 0.3700787401574803,
                    "duration": 0.25064749999999947
                },
                {
                    "name": "A#2",
                    "midi": 46,
                    "time": 64.16576000000002,
                    "velocity": 0.3700787401574803,
                    "duration": 0.25064749999999947
                },
                {
                    "name": "C#4",
                    "midi": 61,
                    "time": 64.54173125000003,
                    "velocity": 0.36220472440944884,
                    "duration": 0.09399281250000513
                },
                {
                    "name": "C#3",
                    "midi": 49,
                    "time": 64.54173125000003,
                    "velocity": 0.36220472440944884,
                    "duration": 0.09399281250000513
                },
                {
                    "name": "D4",
                    "midi": 62,
                    "time": 64.66705500000003,
                    "velocity": 0.3779527559055118,
                    "duration": 0.2506475000000137
                },
                {
                    "name": "D3",
                    "midi": 50,
                    "time": 64.66705500000003,
                    "velocity": 0.3779527559055118,
                    "duration": 0.2506475000000137
                },
                {
                    "name": "E4",
                    "midi": 64,
                    "time": 65.04302625000005,
                    "velocity": 0.36220472440944884,
                    "duration": 0.09399281250000513
                },
                {
                    "name": "E3",
                    "midi": 52,
                    "time": 65.04302625000005,
                    "velocity": 0.36220472440944884,
                    "duration": 0.09399281250000513
                },
                {
                    "name": "F3",
                    "midi": 53,
                    "time": 65.16835000000006,
                    "velocity": 0.4094488188976378,
                    "duration": 0.25064749999999947
                },
                {
                    "name": "F4",
                    "midi": 65,
                    "time": 65.16835000000006,
                    "velocity": 0.4094488188976378,
                    "duration": 0.25064749999999947
                },
                {
                    "name": "G3",
                    "midi": 55,
                    "time": 65.54432125000007,
                    "velocity": 0.3779527559055118,
                    "duration": 0.09399281249999092
                },
                {
                    "name": "G4",
                    "midi": 67,
                    "time": 65.54432125000007,
                    "velocity": 0.3779527559055118,
                    "duration": 0.09399281249999092
                },
                {
                    "name": "F3",
                    "midi": 53,
                    "time": 65.66964500000006,
                    "velocity": 0.41732283464566927,
                    "duration": 0.12532375000000684
                },
                {
                    "name": "F4",
                    "midi": 65,
                    "time": 65.66964500000006,
                    "velocity": 0.41732283464566927,
                    "duration": 0.12532375000000684
                },
                {
                    "name": "G3",
                    "midi": 55,
                    "time": 66.17094000000007,
                    "velocity": 0.6771653543307087,
                    "duration": 1.0025899999999979
                },
                {
                    "name": "A#3",
                    "midi": 58,
                    "time": 66.17094000000007,
                    "velocity": 0.7559055118110236,
                    "duration": 1.0025899999999979
                },
                {
                    "name": "D3",
                    "midi": 50,
                    "time": 66.17094000000007,
                    "velocity": 0.6771653543307087,
                    "duration": 1.0025899999999979
                },
                {
                    "name": "D4",
                    "midi": 62,
                    "time": 66.17094000000007,
                    "velocity": 0.7559055118110236,
                    "duration": 1.0025899999999979
                },
                {
                    "name": "D2",
                    "midi": 38,
                    "time": 67.17353000000007,
                    "velocity": 0.5669291338582677,
                    "duration": 0.18798562500001026
                },
                {
                    "name": "D3",
                    "midi": 50,
                    "time": 67.17353000000007,
                    "velocity": 0.6377952755905512,
                    "duration": 0.18798562500001026
                },
                {
                    "name": "D3",
                    "midi": 50,
                    "time": 68.17612000000008,
                    "velocity": 0.6692913385826772,
                    "duration": 1.0025899999999979
                },
                {
                    "name": "F3",
                    "midi": 53,
                    "time": 68.17612000000008,
                    "velocity": 0.6692913385826772,
                    "duration": 1.0025899999999979
                },
                {
                    "name": "D4",
                    "midi": 62,
                    "time": 68.17612000000008,
                    "velocity": 0.7480314960629921,
                    "duration": 1.0025899999999979
                },
                {
                    "name": "A3",
                    "midi": 57,
                    "time": 68.17612000000008,
                    "velocity": 0.7480314960629921,
                    "duration": 1.0025899999999979
                },
                {
                    "name": "D3",
                    "midi": 50,
                    "time": 69.17871000000008,
                    "velocity": 0.6377952755905512,
                    "duration": 0.18798562500001026
                },
                {
                    "name": "D2",
                    "midi": 38,
                    "time": 69.17871000000008,
                    "velocity": 0.5669291338582677,
                    "duration": 0.18798562500001026
                },
                {
                    "name": "G3",
                    "midi": 55,
                    "time": 70.18130000000009,
                    "velocity": 0.6062992125984252,
                    "duration": 1.0025899999999979
                },
                {
                    "name": "A#3",
                    "midi": 58,
                    "time": 70.18130000000009,
                    "velocity": 0.6771653543307087,
                    "duration": 1.0025899999999979
                },
                {
                    "name": "D4",
                    "midi": 62,
                    "time": 70.18130000000009,
                    "velocity": 0.6771653543307087,
                    "duration": 1.0025899999999979
                },
                {
                    "name": "D3",
                    "midi": 50,
                    "time": 70.18130000000009,
                    "velocity": 0.6062992125984252,
                    "duration": 1.0025899999999979
                },
                {
                    "name": "D2",
                    "midi": 38,
                    "time": 71.18389000000009,
                    "velocity": 0.4881889763779528,
                    "duration": 0.18798562499999605
                },
                {
                    "name": "D3",
                    "midi": 50,
                    "time": 71.18389000000009,
                    "velocity": 0.5433070866141733,
                    "duration": 0.18798562499999605
                },
                {
                    "name": "F3",
                    "midi": 53,
                    "time": 72.18648000000009,
                    "velocity": 0.5748031496062992,
                    "duration": 1.0025899999999979
                },
                {
                    "name": "A3",
                    "midi": 57,
                    "time": 72.18648000000009,
                    "velocity": 0.6456692913385826,
                    "duration": 1.0025899999999979
                },
                {
                    "name": "D3",
                    "midi": 50,
                    "time": 72.18648000000009,
                    "velocity": 0.5748031496062992,
                    "duration": 1.0025899999999979
                },
                {
                    "name": "D4",
                    "midi": 62,
                    "time": 72.18648000000009,
                    "velocity": 0.6456692913385826,
                    "duration": 0.9994569062500034
                },
                {
                    "name": "D2",
                    "midi": 38,
                    "time": 73.18907000000009,
                    "velocity": 0.5196850393700787,
                    "duration": 0.20887291666666385
                },
                {
                    "name": "D3",
                    "midi": 50,
                    "time": 73.18907000000009,
                    "velocity": 0.5826771653543307,
                    "duration": 0.20887291666666385
                },
                {
                    "name": "D3",
                    "midi": 50,
                    "time": 74.19166000000008,
                    "velocity": 0.5748031496062992,
                    "duration": 1.0025899999999837
                },
                {
                    "name": "G3",
                    "midi": 55,
                    "time": 74.19166000000008,
                    "velocity": 0.5748031496062992,
                    "duration": 1.0025899999999837
                },
                {
                    "name": "D4",
                    "midi": 62,
                    "time": 74.19166000000008,
                    "velocity": 0.6456692913385826,
                    "duration": 0.9994569062499892
                },
                {
                    "name": "A#3",
                    "midi": 58,
                    "time": 74.19166000000008,
                    "velocity": 0.6456692913385826,
                    "duration": 1.0025899999999837
                },
                {
                    "name": "D3",
                    "midi": 50,
                    "time": 75.19425000000007,
                    "velocity": 0.5826771653543307,
                    "duration": 0.20887291666666385
                },
                {
                    "name": "D2",
                    "midi": 38,
                    "time": 75.19425000000007,
                    "velocity": 0.5196850393700787,
                    "duration": 0.20887291666666385
                },
                {
                    "name": "F3",
                    "midi": 53,
                    "time": 76.19684000000007,
                    "velocity": 0.5826771653543307,
                    "duration": 1.0025899999999979
                },
                {
                    "name": "A3",
                    "midi": 57,
                    "time": 76.19684000000007,
                    "velocity": 0.6535433070866141,
                    "duration": 1.0025899999999979
                },
                {
                    "name": "D4",
                    "midi": 62,
                    "time": 76.19684000000007,
                    "velocity": 0.6535433070866141,
                    "duration": 0.9994569062500034
                },
                {
                    "name": "D3",
                    "midi": 50,
                    "time": 76.19684000000007,
                    "velocity": 0.5826771653543307,
                    "duration": 1.0025899999999979
                },
                {
                    "name": "D3",
                    "midi": 50,
                    "time": 77.19943000000006,
                    "velocity": 0.5748031496062992,
                    "duration": 0.20887291666666385
                },
                {
                    "name": "D2",
                    "midi": 38,
                    "time": 77.19943000000006,
                    "velocity": 0.5118110236220472,
                    "duration": 0.20887291666666385
                },
                {
                    "name": "D3",
                    "midi": 50,
                    "time": 78.20202000000006,
                    "velocity": 0.5905511811023622,
                    "duration": 1.0025899999999979
                },
                {
                    "name": "G3",
                    "midi": 55,
                    "time": 78.20202000000006,
                    "velocity": 0.5905511811023622,
                    "duration": 1.0025899999999979
                },
                {
                    "name": "D4",
                    "midi": 62,
                    "time": 78.20202000000006,
                    "velocity": 0.6614173228346457,
                    "duration": 1.0025899999999979
                },
                {
                    "name": "A#3",
                    "midi": 58,
                    "time": 78.20202000000006,
                    "velocity": 0.6614173228346457,
                    "duration": 1.0025899999999979
                },
                {
                    "name": "D2",
                    "midi": 38,
                    "time": 79.20461000000006,
                    "velocity": 0.5196850393700787,
                    "duration": 0.18798562499999605
                },
                {
                    "name": "D3",
                    "midi": 50,
                    "time": 79.20461000000006,
                    "velocity": 0.5826771653543307,
                    "duration": 0.18798562499999605
                },
                {
                    "name": "D3",
                    "midi": 50,
                    "time": 80.20720000000006,
                    "velocity": 0.5905511811023622,
                    "duration": 1.002590000000012
                },
                {
                    "name": "A3",
                    "midi": 57,
                    "time": 80.20720000000006,
                    "velocity": 0.6614173228346457,
                    "duration": 1.002590000000012
                },
                {
                    "name": "D4",
                    "midi": 62,
                    "time": 80.20720000000006,
                    "velocity": 0.6614173228346457,
                    "duration": 0.9994569062500176
                },
                {
                    "name": "F3",
                    "midi": 53,
                    "time": 80.20720000000006,
                    "velocity": 0.5905511811023622,
                    "duration": 1.002590000000012
                },
                {
                    "name": "D2",
                    "midi": 38,
                    "time": 81.20979000000007,
                    "velocity": 0.5196850393700787,
                    "duration": 0.20887291666666385
                },
                {
                    "name": "D3",
                    "midi": 50,
                    "time": 81.20979000000007,
                    "velocity": 0.5826771653543307,
                    "duration": 0.20887291666666385
                },
                {
                    "name": "E3",
                    "midi": 52,
                    "time": 82.21238000000007,
                    "velocity": 0.5669291338582677,
                    "duration": 1.0025899999999979
                },
                {
                    "name": "A3",
                    "midi": 57,
                    "time": 82.21238000000007,
                    "velocity": 0.6377952755905512,
                    "duration": 1.0025899999999979
                },
                {
                    "name": "C4",
                    "midi": 60,
                    "time": 82.21238000000007,
                    "velocity": 0.6377952755905512,
                    "duration": 1.0025899999999979
                },
                {
                    "name": "C3",
                    "midi": 48,
                    "time": 82.21238000000007,
                    "velocity": 0.5669291338582677,
                    "duration": 1.0025899999999979
                },
                {
                    "name": "C3",
                    "midi": 48,
                    "time": 83.21497000000006,
                    "velocity": 0.5590551181102362,
                    "duration": 0.18798562499999605
                },
                {
                    "name": "C2",
                    "midi": 36,
                    "time": 83.21497000000006,
                    "velocity": 0.49606299212598426,
                    "duration": 0.18798562499999605
                },
                {
                    "name": "B2",
                    "midi": 47,
                    "time": 84.21756000000006,
                    "velocity": 0.5826771653543307,
                    "duration": 0.9608154166666765
                },
                {
                    "name": "G#3",
                    "midi": 56,
                    "time": 84.21756000000006,
                    "velocity": 0.6535433070866141,
                    "duration": 0.9608154166666765
                },
                {
                    "name": "B3",
                    "midi": 59,
                    "time": 84.21756000000006,
                    "velocity": 0.6535433070866141,
                    "duration": 0.9608154166666765
                },
                {
                    "name": "E4",
                    "midi": 64,
                    "time": 85.22015000000007,
                    "velocity": 0.5984251968503937,
                    "duration": 0.9608154166666623
                },
                {
                    "name": "E3",
                    "midi": 52,
                    "time": 85.22015000000007,
                    "velocity": 0.5354330708661418,
                    "duration": 0.9608154166666623
                },
                {
                    "name": "G#3",
                    "midi": 56,
                    "time": 85.22015000000007,
                    "velocity": 0.5984251968503937,
                    "duration": 0.9608154166666623
                },
                {
                    "name": "C3",
                    "midi": 48,
                    "time": 86.22274000000007,
                    "velocity": 0.5590551181102362,
                    "duration": 1.0025899999999979
                },
                {
                    "name": "C4",
                    "midi": 60,
                    "time": 86.22274000000007,
                    "velocity": 0.6220472440944882,
                    "duration": 1.0025899999999979
                },
                {
                    "name": "A2",
                    "midi": 45,
                    "time": 87.22533000000007,
                    "velocity": 0.5118110236220472,
                    "duration": 0.20887291666666385
                },
                {
                    "name": "A3",
                    "midi": 57,
                    "time": 87.22533000000007,
                    "velocity": 0.5748031496062992,
                    "duration": 0.20887291666666385
                },
                {
                    "name": "G#2",
                    "midi": 44,
                    "time": 88.22792000000007,
                    "velocity": 0.31496062992125984,
                    "duration": 0.9608154166666623
                },
                {
                    "name": "B2",
                    "midi": 47,
                    "time": 88.22792000000007,
                    "velocity": 0.31496062992125984,
                    "duration": 0.9608154166666623
                },
                {
                    "name": "B1",
                    "midi": 35,
                    "time": 88.22792000000007,
                    "velocity": 0.31496062992125984,
                    "duration": 0.9608154166666623
                },
                {
                    "name": "E2",
                    "midi": 40,
                    "time": 89.23051000000007,
                    "velocity": 0.29133858267716534,
                    "duration": 0.9608154166666765
                },
                {
                    "name": "G#2",
                    "midi": 44,
                    "time": 89.23051000000007,
                    "velocity": 0.29133858267716534,
                    "duration": 0.9608154166666765
                },
                {
                    "name": "E3",
                    "midi": 52,
                    "time": 89.23051000000007,
                    "velocity": 0.29133858267716534,
                    "duration": 0.9608154166666765
                },
                {
                    "name": "C3",
                    "midi": 48,
                    "time": 90.23310000000008,
                    "velocity": 0.29133858267716534,
                    "duration": 1.0025899999999979
                },
                {
                    "name": "C2",
                    "midi": 36,
                    "time": 90.23310000000008,
                    "velocity": 0.29133858267716534,
                    "duration": 1.0025899999999979
                },
                {
                    "name": "A2",
                    "midi": 45,
                    "time": 91.23569000000008,
                    "velocity": 0.29133858267716534,
                    "duration": 0.20887291666666385
                },
                {
                    "name": "A1",
                    "midi": 33,
                    "time": 91.23569000000008,
                    "velocity": 0.29133858267716534,
                    "duration": 0.20887291666666385
                },
                {
                    "name": "A#1",
                    "midi": 34,
                    "time": 92.23828000000007,
                    "velocity": 0.2440944881889764,
                    "duration": 1.002590000000012
                },
                {
                    "name": "A#2",
                    "midi": 46,
                    "time": 92.23828000000007,
                    "velocity": 0.2440944881889764,
                    "duration": 1.002590000000012
                },
                {
                    "name": "G1",
                    "midi": 31,
                    "time": 93.24087000000009,
                    "velocity": 0.1889763779527559,
                    "duration": 0.18798562500001026
                },
                {
                    "name": "G2",
                    "midi": 43,
                    "time": 93.24087000000009,
                    "velocity": 0.1889763779527559,
                    "duration": 0.18798562500001026
                },
                {
                    "name": "A#1",
                    "midi": 34,
                    "time": 94.2434600000001,
                    "velocity": 0.23622047244094488,
                    "duration": 1.0025899999999979
                },
                {
                    "name": "A#2",
                    "midi": 46,
                    "time": 94.2434600000001,
                    "velocity": 0.23622047244094488,
                    "duration": 1.0025899999999979
                },
                {
                    "name": "G1",
                    "midi": 31,
                    "time": 95.2460500000001,
                    "velocity": 0.1732283464566929,
                    "duration": 0.18798562499999605
                },
                {
                    "name": "G2",
                    "midi": 43,
                    "time": 95.2460500000001,
                    "velocity": 0.1732283464566929,
                    "duration": 0.18798562499999605
                },
                {
                    "name": "A#2",
                    "midi": 46,
                    "time": 96.2486400000001,
                    "velocity": 0.23622047244094488,
                    "duration": 1.0025899999999979
                },
                {
                    "name": "A#1",
                    "midi": 34,
                    "time": 96.2486400000001,
                    "velocity": 0.23622047244094488,
                    "duration": 1.0025899999999979
                },
                {
                    "name": "G1",
                    "midi": 31,
                    "time": 97.25123000000009,
                    "velocity": 0.18110236220472442,
                    "duration": 0.18798562499999605
                },
                {
                    "name": "G2",
                    "midi": 43,
                    "time": 97.25123000000009,
                    "velocity": 0.18110236220472442,
                    "duration": 0.18798562499999605
                },
                {
                    "name": "A#1",
                    "midi": 34,
                    "time": 98.25382000000009,
                    "velocity": 0.2440944881889764,
                    "duration": 1.002590000000012
                },
                {
                    "name": "A#2",
                    "midi": 46,
                    "time": 98.25382000000009,
                    "velocity": 0.2440944881889764,
                    "duration": 1.002590000000012
                },
                {
                    "name": "G1",
                    "midi": 31,
                    "time": 99.2564100000001,
                    "velocity": 0.2047244094488189,
                    "duration": 0.18798562500001026
                },
                {
                    "name": "G2",
                    "midi": 43,
                    "time": 99.2564100000001,
                    "velocity": 0.2047244094488189,
                    "duration": 0.18798562500001026
                },
                {
                    "name": "B1",
                    "midi": 35,
                    "time": 100.25900000000011,
                    "velocity": 0.5354330708661418,
                    "duration": 0.12532375000000684
                },
                {
                    "name": "B2",
                    "midi": 47,
                    "time": 100.38432375000012,
                    "velocity": 0.4330708661417323,
                    "duration": 0.12532375000000684
                },
                {
                    "name": "B1",
                    "midi": 35,
                    "time": 100.50964750000013,
                    "velocity": 0.4251968503937008,
                    "duration": 0.12532375000000684
                },
                {
                    "name": "B2",
                    "midi": 47,
                    "time": 100.63497125000013,
                    "velocity": 0.4094488188976378,
                    "duration": 0.12532375000000684
                },
                {
                    "name": "B1",
                    "midi": 35,
                    "time": 100.76029500000014,
                    "velocity": 0.4015748031496063,
                    "duration": 0.12532375000000684
                },
                {
                    "name": "B2",
                    "midi": 47,
                    "time": 100.88561875000015,
                    "velocity": 0.3858267716535433,
                    "duration": 0.12532375000000684
                },
                {
                    "name": "B1",
                    "midi": 35,
                    "time": 101.01094250000016,
                    "velocity": 0.3779527559055118,
                    "duration": 0.12532375000000684
                },
                {
                    "name": "B2",
                    "midi": 47,
                    "time": 101.13626625000016,
                    "velocity": 0.36220472440944884,
                    "duration": 0.12532375000000684
                },
                {
                    "name": "B1",
                    "midi": 35,
                    "time": 101.26159000000017,
                    "velocity": 0.3858267716535433,
                    "duration": 0.12532375000000684
                },
                {
                    "name": "B2",
                    "midi": 47,
                    "time": 101.38691375000018,
                    "velocity": 0.3779527559055118,
                    "duration": 0.12532375000000684
                },
                {
                    "name": "B1",
                    "midi": 35,
                    "time": 101.51223750000018,
                    "velocity": 0.3700787401574803,
                    "duration": 0.12532375000000684
                },
                {
                    "name": "B2",
                    "midi": 47,
                    "time": 101.63756125000019,
                    "velocity": 0.3543307086614173,
                    "duration": 0.12532375000000684
                },
                {
                    "name": "B1",
                    "midi": 35,
                    "time": 101.7628850000002,
                    "velocity": 0.4015748031496063,
                    "duration": 0.12532375000000684
                },
                {
                    "name": "B2",
                    "midi": 47,
                    "time": 101.8882087500002,
                    "velocity": 0.3700787401574803,
                    "duration": 0.12532375000000684
                },
                {
                    "name": "B1",
                    "midi": 35,
                    "time": 102.01353250000021,
                    "velocity": 0.3464566929133858,
                    "duration": 0.12532375000000684
                },
                {
                    "name": "B2",
                    "midi": 47,
                    "time": 102.13885625000022,
                    "velocity": 0.33858267716535434,
                    "duration": 0.12532375000000684
                },
                {
                    "name": "G#1",
                    "midi": 32,
                    "time": 102.26418000000022,
                    "velocity": 0.5039370078740157,
                    "duration": 0.12532375000000684
                },
                {
                    "name": "G#2",
                    "midi": 44,
                    "time": 102.38950375000023,
                    "velocity": 0.41732283464566927,
                    "duration": 0.12532375000000684
                },
                {
                    "name": "G#1",
                    "midi": 32,
                    "time": 102.51482750000024,
                    "velocity": 0.3937007874015748,
                    "duration": 0.12532375000000684
                },
                {
                    "name": "G#2",
                    "midi": 44,
                    "time": 102.64015125000024,
                    "velocity": 0.36220472440944884,
                    "duration": 0.12532375000000684
                },
                {
                    "name": "G#1",
                    "midi": 32,
                    "time": 102.76547500000025,
                    "velocity": 0.44881889763779526,
                    "duration": 0.12532375000000684
                },
                {
                    "name": "G#2",
                    "midi": 44,
                    "time": 102.89079875000026,
                    "velocity": 0.41732283464566927,
                    "duration": 0.12532375000000684
                },
                {
                    "name": "G#1",
                    "midi": 32,
                    "time": 103.01612250000026,
                    "velocity": 0.4094488188976378,
                    "duration": 0.12532375000000684
                },
                {
                    "name": "G#2",
                    "midi": 44,
                    "time": 103.14144625000027,
                    "velocity": 0.4015748031496063,
                    "duration": 0.12532375000000684
                },
                {
                    "name": "G#1",
                    "midi": 32,
                    "time": 103.26677000000028,
                    "velocity": 0.4645669291338583,
                    "duration": 0.12532375000000684
                },
                {
                    "name": "G#2",
                    "midi": 44,
                    "time": 103.39209375000029,
                    "velocity": 0.4251968503937008,
                    "duration": 0.12532375000000684
                },
                {
                    "name": "G#1",
                    "midi": 32,
                    "time": 103.51741750000029,
                    "velocity": 0.41732283464566927,
                    "duration": 0.12532375000000684
                },
                {
                    "name": "G#2",
                    "midi": 44,
                    "time": 103.6427412500003,
                    "velocity": 0.30708661417322836,
                    "duration": 0.12532375000000684
                },
                {
                    "name": "G#1",
                    "midi": 32,
                    "time": 103.7680650000003,
                    "velocity": 0.4645669291338583,
                    "duration": 0.12532375000000684
                },
                {
                    "name": "G#2",
                    "midi": 44,
                    "time": 103.89338875000031,
                    "velocity": 0.4566929133858268,
                    "duration": 0.12532375000000684
                },
                {
                    "name": "G#1",
                    "midi": 32,
                    "time": 104.01871250000032,
                    "velocity": 0.4409448818897638,
                    "duration": 0.12532375000000684
                },
                {
                    "name": "G#2",
                    "midi": 44,
                    "time": 104.14403625000033,
                    "velocity": 0.4251968503937008,
                    "duration": 0.12532375000000684
                },
                {
                    "name": "B3",
                    "midi": 59,
                    "time": 104.26936000000033,
                    "velocity": 0.6220472440944882,
                    "duration": 0.5012949999999989
                },
                {
                    "name": "B2",
                    "midi": 47,
                    "time": 104.26936000000033,
                    "velocity": 0.6220472440944882,
                    "duration": 0.5012949999999989
                },
                {
                    "name": "G#3",
                    "midi": 56,
                    "time": 104.77065500000033,
                    "velocity": 0.5433070866141733,
                    "duration": 0.18798562499999605
                },
                {
                    "name": "G#2",
                    "midi": 44,
                    "time": 104.77065500000033,
                    "velocity": 0.5433070866141733,
                    "duration": 0.18798562499999605
                },
                {
                    "name": "B3",
                    "midi": 59,
                    "time": 105.27195000000033,
                    "velocity": 0.6220472440944882,
                    "duration": 0.5012949999999989
                },
                {
                    "name": "B2",
                    "midi": 47,
                    "time": 105.27195000000033,
                    "velocity": 0.6220472440944882,
                    "duration": 0.5012949999999989
                },
                {
                    "name": "E3",
                    "midi": 52,
                    "time": 105.77324500000033,
                    "velocity": 0.5433070866141733,
                    "duration": 0.18798562499999605
                },
                {
                    "name": "E4",
                    "midi": 64,
                    "time": 105.77324500000033,
                    "velocity": 0.5433070866141733,
                    "duration": 0.18798562499999605
                },
                {
                    "name": "B3",
                    "midi": 59,
                    "time": 106.27454000000033,
                    "velocity": 0.5905511811023622,
                    "duration": 0.5012949999999989
                },
                {
                    "name": "B2",
                    "midi": 47,
                    "time": 106.27454000000033,
                    "velocity": 0.5905511811023622,
                    "duration": 0.5012949999999989
                },
                {
                    "name": "G#3",
                    "midi": 56,
                    "time": 106.77583500000033,
                    "velocity": 0.5511811023622047,
                    "duration": 0.18798562499999605
                },
                {
                    "name": "G#2",
                    "midi": 44,
                    "time": 106.77583500000033,
                    "velocity": 0.5511811023622047,
                    "duration": 0.18798562499999605
                },
                {
                    "name": "E3",
                    "midi": 52,
                    "time": 107.27713000000033,
                    "velocity": 0.5433070866141733,
                    "duration": 0.5012949999999989
                },
                {
                    "name": "E2",
                    "midi": 40,
                    "time": 107.27713000000033,
                    "velocity": 0.5433070866141733,
                    "duration": 0.5012949999999989
                },
                {
                    "name": "B2",
                    "midi": 47,
                    "time": 107.77842500000033,
                    "velocity": 0.47244094488188976,
                    "duration": 0.18798562499999605
                },
                {
                    "name": "B1",
                    "midi": 35,
                    "time": 107.77842500000033,
                    "velocity": 0.47244094488188976,
                    "duration": 0.18798562499999605
                },
                {
                    "name": "B1",
                    "midi": 35,
                    "time": 108.27972000000032,
                    "velocity": 0.2125984251968504,
                    "duration": 4.0103599999999915
                },
                {
                    "name": "B2",
                    "midi": 47,
                    "time": 108.27972000000032,
                    "velocity": 0.2125984251968504,
                    "duration": 4.0103599999999915
                },
                {
                    "name": "B1",
                    "midi": 35,
                    "time": 112.29008000000032,
                    "velocity": 0.6377952755905512,
                    "duration": 0.12532375000000684
                },
                {
                    "name": "B2",
                    "midi": 47,
                    "time": 112.41540375000032,
                    "velocity": 0.3937007874015748,
                    "duration": 0.12532375000000684
                },
                {
                    "name": "B1",
                    "midi": 35,
                    "time": 112.54072750000033,
                    "velocity": 0.49606299212598426,
                    "duration": 0.12532375000000684
                },
                {
                    "name": "B2",
                    "midi": 47,
                    "time": 112.66605125000034,
                    "velocity": 0.3779527559055118,
                    "duration": 0.12532375000000684
                },
                {
                    "name": "G#1",
                    "midi": 32,
                    "time": 112.79137500000034,
                    "velocity": 0.5669291338582677,
                    "duration": 0.12532375000000684
                },
                {
                    "name": "G#2",
                    "midi": 44,
                    "time": 112.91669875000035,
                    "velocity": 0.4094488188976378,
                    "duration": 0.12532375000000684
                },
                {
                    "name": "G#1",
                    "midi": 32,
                    "time": 113.04202250000036,
                    "velocity": 0.4566929133858268,
                    "duration": 0.12532375000000684
                },
                {
                    "name": "G#2",
                    "midi": 44,
                    "time": 113.16734625000036,
                    "velocity": 0.36220472440944884,
                    "duration": 0.12532375000000684
                },
                {
                    "name": "B1",
                    "midi": 35,
                    "time": 113.29267000000037,
                    "velocity": 0.5669291338582677,
                    "duration": 0.12532375000000684
                },
                {
                    "name": "B2",
                    "midi": 47,
                    "time": 113.41799375000038,
                    "velocity": 0.41732283464566927,
                    "duration": 0.12532375000000684
                },
                {
                    "name": "B1",
                    "midi": 35,
                    "time": 113.54331750000038,
                    "velocity": 0.47244094488188976,
                    "duration": 0.12532375000000684
                },
                {
                    "name": "B2",
                    "midi": 47,
                    "time": 113.66864125000039,
                    "velocity": 0.3543307086614173,
                    "duration": 0.12532375000000684
                },
                {
                    "name": "E2",
                    "midi": 40,
                    "time": 113.7939650000004,
                    "velocity": 0.5669291338582677,
                    "duration": 0.12532375000000684
                },
                {
                    "name": "E3",
                    "midi": 52,
                    "time": 113.9192887500004,
                    "velocity": 0.41732283464566927,
                    "duration": 0.12532375000000684
                },
                {
                    "name": "E2",
                    "midi": 40,
                    "time": 114.04461250000041,
                    "velocity": 0.4881889763779528,
                    "duration": 0.12532375000000684
                },
                {
                    "name": "E3",
                    "midi": 52,
                    "time": 114.16993625000042,
                    "velocity": 0.3779527559055118,
                    "duration": 0.12532375000000684
                },
                {
                    "name": "G#2",
                    "midi": 44,
                    "time": 114.29526000000043,
                    "velocity": 0.6062992125984252,
                    "duration": 0.12532375000000684
                },
                {
                    "name": "G#3",
                    "midi": 56,
                    "time": 114.42058375000043,
                    "velocity": 0.47244094488188976,
                    "duration": 0.12532375000000684
                },
                {
                    "name": "G#2",
                    "midi": 44,
                    "time": 114.54590750000044,
                    "velocity": 0.5354330708661418,
                    "duration": 0.12532375000000684
                },
                {
                    "name": "G#3",
                    "midi": 56,
                    "time": 114.67123125000045,
                    "velocity": 0.4330708661417323,
                    "duration": 0.12532375000000684
                },
                {
                    "name": "B2",
                    "midi": 47,
                    "time": 114.79655500000045,
                    "velocity": 0.6220472440944882,
                    "duration": 0.12532375000000684
                },
                {
                    "name": "B3",
                    "midi": 59,
                    "time": 114.92187875000046,
                    "velocity": 0.44881889763779526,
                    "duration": 0.12532375000000684
                },
                {
                    "name": "B2",
                    "midi": 47,
                    "time": 115.04720250000047,
                    "velocity": 0.5196850393700787,
                    "duration": 0.12532375000000684
                },
                {
                    "name": "B3",
                    "midi": 59,
                    "time": 115.17252625000047,
                    "velocity": 0.4015748031496063,
                    "duration": 0.12532375000000684
                },
                {
                    "name": "E3",
                    "midi": 52,
                    "time": 115.29785000000048,
                    "velocity": 0.6929133858267716,
                    "duration": 0.12532375000000684
                },
                {
                    "name": "E4",
                    "midi": 64,
                    "time": 115.42317375000049,
                    "velocity": 0.44881889763779526,
                    "duration": 0.12532375000000684
                },
                {
                    "name": "E3",
                    "midi": 52,
                    "time": 115.5484975000005,
                    "velocity": 0.5826771653543307,
                    "duration": 0.12532375000000684
                },
                {
                    "name": "E4",
                    "midi": 64,
                    "time": 115.6738212500005,
                    "velocity": 0.44881889763779526,
                    "duration": 0.12532375000000684
                },
                {
                    "name": "B2",
                    "midi": 47,
                    "time": 115.79914500000051,
                    "velocity": 0.5748031496062992,
                    "duration": 0.12532375000000684
                },
                {
                    "name": "B3",
                    "midi": 59,
                    "time": 115.92446875000051,
                    "velocity": 0.3779527559055118,
                    "duration": 0.12532375000000684
                },
                {
                    "name": "B2",
                    "midi": 47,
                    "time": 116.04979250000052,
                    "velocity": 0.4566929133858268,
                    "duration": 0.12532375000000684
                },
                {
                    "name": "B3",
                    "midi": 59,
                    "time": 116.17511625000053,
                    "velocity": 0.3700787401574803,
                    "duration": 0.12532375000000684
                },
                {
                    "name": "B2",
                    "midi": 47,
                    "time": 116.30044000000053,
                    "velocity": 0.29133858267716534,
                    "duration": 4.010359999999977
                },
                {
                    "name": "B1",
                    "midi": 35,
                    "time": 116.30044000000053,
                    "velocity": 0.29133858267716534,
                    "duration": 4.010359999999977
                },
                {
                    "name": "B2",
                    "midi": 47,
                    "time": 120.31080000000051,
                    "velocity": 0.15748031496062992,
                    "duration": 0.9608154166666623
                },
                {
                    "name": "E2",
                    "midi": 40,
                    "time": 120.31080000000051,
                    "velocity": 0.15748031496062992,
                    "duration": 0.9608154166666623
                },
                {
                    "name": "B2",
                    "midi": 47,
                    "time": 121.31339000000051,
                    "velocity": 0.14960629921259844,
                    "duration": 0.8772662500000052
                },
                {
                    "name": "E2",
                    "midi": 40,
                    "time": 121.31339000000051,
                    "velocity": 0.14960629921259844,
                    "duration": 0.8772662500000052
                },
                {
                    "name": "B2",
                    "midi": 47,
                    "time": 122.31598000000052,
                    "velocity": 0.15748031496062992,
                    "duration": 0.49085135416666503
                },
                {
                    "name": "E2",
                    "midi": 40,
                    "time": 122.31598000000052,
                    "velocity": 0.15748031496062992,
                    "duration": 0.49085135416666503
                },
                {
                    "name": "E2",
                    "midi": 40,
                    "time": 122.81727500000052,
                    "velocity": 0.12598425196850394,
                    "duration": 0.49085135416666503
                },
                {
                    "name": "B2",
                    "midi": 47,
                    "time": 122.81727500000052,
                    "velocity": 0.12598425196850394,
                    "duration": 0.49085135416666503
                },
                {
                    "name": "E2",
                    "midi": 40,
                    "time": 123.31857000000052,
                    "velocity": 0.14960629921259844,
                    "duration": 0.49085135416666503
                },
                {
                    "name": "B2",
                    "midi": 47,
                    "time": 123.31857000000052,
                    "velocity": 0.14960629921259844,
                    "duration": 0.49085135416666503
                },
                {
                    "name": "E2",
                    "midi": 40,
                    "time": 123.81986500000052,
                    "velocity": 0.11811023622047244,
                    "duration": 0.49085135416666503
                },
                {
                    "name": "B2",
                    "midi": 47,
                    "time": 123.81986500000052,
                    "velocity": 0.11811023622047244,
                    "duration": 0.49085135416666503
                },
                {
                    "name": "E2",
                    "midi": 40,
                    "time": 124.32116000000052,
                    "velocity": 0.18110236220472442,
                    "duration": 0.9608154166666765
                },
                {
                    "name": "C#3",
                    "midi": 49,
                    "time": 124.32116000000052,
                    "velocity": 0.18110236220472442,
                    "duration": 0.9608154166666765
                },
                {
                    "name": "C#3",
                    "midi": 49,
                    "time": 125.32375000000053,
                    "velocity": 0.13385826771653545,
                    "duration": 0.8772662500000052
                },
                {
                    "name": "E2",
                    "midi": 40,
                    "time": 125.32375000000053,
                    "velocity": 0.13385826771653545,
                    "duration": 0.8772662500000052
                },
                {
                    "name": "C#3",
                    "midi": 49,
                    "time": 126.32634000000054,
                    "velocity": 0.15748031496062992,
                    "duration": 0.49085135416666503
                },
                {
                    "name": "E2",
                    "midi": 40,
                    "time": 126.32634000000054,
                    "velocity": 0.15748031496062992,
                    "duration": 0.49085135416666503
                },
                {
                    "name": "D#3",
                    "midi": 51,
                    "time": 126.82763500000054,
                    "velocity": 0.11811023622047244,
                    "duration": 0.49085135416666503
                },
                {
                    "name": "E2",
                    "midi": 40,
                    "time": 126.82763500000054,
                    "velocity": 0.11811023622047244,
                    "duration": 0.49085135416666503
                },
                {
                    "name": "E2",
                    "midi": 40,
                    "time": 127.32893000000054,
                    "velocity": 0.14960629921259844,
                    "duration": 0.49085135416667924
                },
                {
                    "name": "C#3",
                    "midi": 49,
                    "time": 127.32893000000054,
                    "velocity": 0.14960629921259844,
                    "duration": 0.49085135416667924
                },
                {
                    "name": "E2",
                    "midi": 40,
                    "time": 127.83022500000055,
                    "velocity": 0.11811023622047244,
                    "duration": 0.49085135416666503
                },
                {
                    "name": "D#3",
                    "midi": 51,
                    "time": 127.83022500000055,
                    "velocity": 0.11811023622047244,
                    "duration": 0.49085135416666503
                },
                {
                    "name": "E3",
                    "midi": 52,
                    "time": 128.33152000000055,
                    "velocity": 0.18110236220472442,
                    "duration": 0.9608154166666623
                },
                {
                    "name": "E2",
                    "midi": 40,
                    "time": 128.33152000000055,
                    "velocity": 0.18110236220472442,
                    "duration": 0.9608154166666623
                },
                {
                    "name": "B2",
                    "midi": 47,
                    "time": 129.33411000000055,
                    "velocity": 0.13385826771653545,
                    "duration": 0.877266249999991
                },
                {
                    "name": "E2",
                    "midi": 40,
                    "time": 129.33411000000055,
                    "velocity": 0.13385826771653545,
                    "duration": 0.877266249999991
                },
                {
                    "name": "B2",
                    "midi": 47,
                    "time": 130.33670000000055,
                    "velocity": 0.18110236220472442,
                    "duration": 0.49085135416666503
                },
                {
                    "name": "E2",
                    "midi": 40,
                    "time": 130.33670000000055,
                    "velocity": 0.18110236220472442,
                    "duration": 0.49085135416666503
                },
                {
                    "name": "B2",
                    "midi": 47,
                    "time": 130.83799500000055,
                    "velocity": 0.14173228346456693,
                    "duration": 0.49085135416666503
                },
                {
                    "name": "E2",
                    "midi": 40,
                    "time": 130.83799500000055,
                    "velocity": 0.14173228346456693,
                    "duration": 0.49085135416666503
                },
                {
                    "name": "E2",
                    "midi": 40,
                    "time": 131.33929000000055,
                    "velocity": 0.1889763779527559,
                    "duration": 0.49085135416666503
                },
                {
                    "name": "B2",
                    "midi": 47,
                    "time": 131.33929000000055,
                    "velocity": 0.1889763779527559,
                    "duration": 0.49085135416666503
                },
                {
                    "name": "B2",
                    "midi": 47,
                    "time": 131.84058500000054,
                    "velocity": 0.14173228346456693,
                    "duration": 0.49085135416666503
                },
                {
                    "name": "E2",
                    "midi": 40,
                    "time": 131.84058500000054,
                    "velocity": 0.14173228346456693,
                    "duration": 0.49085135416666503
                },
                {
                    "name": "C#3",
                    "midi": 49,
                    "time": 132.34188000000054,
                    "velocity": 0.1968503937007874,
                    "duration": 0.9608154166666623
                },
                {
                    "name": "E2",
                    "midi": 40,
                    "time": 132.34188000000054,
                    "velocity": 0.1968503937007874,
                    "duration": 0.9608154166666623
                },
                {
                    "name": "C#3",
                    "midi": 49,
                    "time": 133.34447000000054,
                    "velocity": 0.14960629921259844,
                    "duration": 0.877266249999991
                },
                {
                    "name": "E2",
                    "midi": 40,
                    "time": 133.34447000000054,
                    "velocity": 0.14960629921259844,
                    "duration": 0.877266249999991
                },
                {
                    "name": "E2",
                    "midi": 40,
                    "time": 134.34706000000054,
                    "velocity": 0.23622047244094488,
                    "duration": 2.0051799999999957
                },
                {
                    "name": "C#3",
                    "midi": 49,
                    "time": 134.34706000000054,
                    "velocity": 0.28346456692913385,
                    "duration": 0.5012949999999989
                },
                {
                    "name": "E3",
                    "midi": 52,
                    "time": 134.84835500000054,
                    "velocity": 0.25984251968503935,
                    "duration": 0.5012949999999989
                },
                {
                    "name": "A3",
                    "midi": 57,
                    "time": 135.34965000000054,
                    "velocity": 0.29133858267716534,
                    "duration": 0.5012949999999989
                },
                {
                    "name": "C#4",
                    "midi": 61,
                    "time": 135.85094500000054,
                    "velocity": 0.30708661417322836,
                    "duration": 0.5012949999999989
                },
                {
                    "name": "B3",
                    "midi": 59,
                    "time": 136.35224000000053,
                    "velocity": 0.2047244094488189,
                    "duration": 0.9608154166666623
                },
                {
                    "name": "E3",
                    "midi": 52,
                    "time": 136.35224000000053,
                    "velocity": 0.2047244094488189,
                    "duration": 0.9608154166666623
                },
                {
                    "name": "B3",
                    "midi": 59,
                    "time": 137.35483000000053,
                    "velocity": 0.15748031496062992,
                    "duration": 0.877266249999991
                },
                {
                    "name": "E3",
                    "midi": 52,
                    "time": 137.35483000000053,
                    "velocity": 0.15748031496062992,
                    "duration": 0.877266249999991
                },
                {
                    "name": "E3",
                    "midi": 52,
                    "time": 138.35742000000053,
                    "velocity": 0.1732283464566929,
                    "duration": 0.49085135416666503
                },
                {
                    "name": "B3",
                    "midi": 59,
                    "time": 138.35742000000053,
                    "velocity": 0.1732283464566929,
                    "duration": 0.49085135416666503
                },
                {
                    "name": "E3",
                    "midi": 52,
                    "time": 138.85871500000053,
                    "velocity": 0.14173228346456693,
                    "duration": 0.49085135416666503
                },
                {
                    "name": "B3",
                    "midi": 59,
                    "time": 138.85871500000053,
                    "velocity": 0.14173228346456693,
                    "duration": 0.49085135416666503
                },
                {
                    "name": "D#4",
                    "midi": 63,
                    "time": 139.36001000000053,
                    "velocity": 0.15748031496062992,
                    "duration": 0.49085135416666503
                },
                {
                    "name": "E3",
                    "midi": 52,
                    "time": 139.36001000000053,
                    "velocity": 0.15748031496062992,
                    "duration": 0.49085135416666503
                },
                {
                    "name": "E3",
                    "midi": 52,
                    "time": 139.86130500000053,
                    "velocity": 0.14173228346456693,
                    "duration": 0.49085135416666503
                },
                {
                    "name": "C#4",
                    "midi": 61,
                    "time": 139.86130500000053,
                    "velocity": 0.14173228346456693,
                    "duration": 0.49085135416666503
                },
                {
                    "name": "E3",
                    "midi": 52,
                    "time": 140.36260000000053,
                    "velocity": 0.1889763779527559,
                    "duration": 0.9608154166666623
                },
                {
                    "name": "B3",
                    "midi": 59,
                    "time": 140.36260000000053,
                    "velocity": 0.1889763779527559,
                    "duration": 0.9608154166666623
                },
                {
                    "name": "E3",
                    "midi": 52,
                    "time": 141.36519000000052,
                    "velocity": 0.11811023622047244,
                    "duration": 0.877266249999991
                },
                {
                    "name": "B3",
                    "midi": 59,
                    "time": 141.36519000000052,
                    "velocity": 0.11811023622047244,
                    "duration": 0.877266249999991
                },
                {
                    "name": "E3",
                    "midi": 52,
                    "time": 142.36778000000052,
                    "velocity": 0.1732283464566929,
                    "duration": 0.49085135416666503
                },
                {
                    "name": "B3",
                    "midi": 59,
                    "time": 142.36778000000052,
                    "velocity": 0.1732283464566929,
                    "duration": 0.49085135416666503
                },
                {
                    "name": "E3",
                    "midi": 52,
                    "time": 142.86907500000052,
                    "velocity": 0.13385826771653545,
                    "duration": 0.49085135416666503
                },
                {
                    "name": "B3",
                    "midi": 59,
                    "time": 142.86907500000052,
                    "velocity": 0.13385826771653545,
                    "duration": 0.49085135416666503
                },
                {
                    "name": "D#4",
                    "midi": 63,
                    "time": 143.37037000000052,
                    "velocity": 0.15748031496062992,
                    "duration": 0.49085135416666503
                },
                {
                    "name": "E3",
                    "midi": 52,
                    "time": 143.37037000000052,
                    "velocity": 0.15748031496062992,
                    "duration": 0.49085135416666503
                },
                {
                    "name": "C#4",
                    "midi": 61,
                    "time": 143.87166500000052,
                    "velocity": 0.14173228346456693,
                    "duration": 0.49085135416666503
                },
                {
                    "name": "E3",
                    "midi": 52,
                    "time": 143.87166500000052,
                    "velocity": 0.14173228346456693,
                    "duration": 0.49085135416666503
                },
                {
                    "name": "E3",
                    "midi": 52,
                    "time": 144.37296000000052,
                    "velocity": 0.1889763779527559,
                    "duration": 0.9608154166666623
                },
                {
                    "name": "B3",
                    "midi": 59,
                    "time": 144.37296000000052,
                    "velocity": 0.2283464566929134,
                    "duration": 0.9608154166666623
                },
                {
                    "name": "E3",
                    "midi": 52,
                    "time": 145.37555000000052,
                    "velocity": 0.11811023622047244,
                    "duration": 0.877266249999991
                },
                {
                    "name": "B3",
                    "midi": 59,
                    "time": 145.37555000000052,
                    "velocity": 0.11811023622047244,
                    "duration": 0.877266249999991
                },
                {
                    "name": "G#3",
                    "midi": 56,
                    "time": 146.3781400000005,
                    "velocity": 0.1968503937007874,
                    "duration": 0.49085135416666503
                },
                {
                    "name": "E3",
                    "midi": 52,
                    "time": 146.3781400000005,
                    "velocity": 0.1968503937007874,
                    "duration": 0.49085135416666503
                },
                {
                    "name": "B3",
                    "midi": 59,
                    "time": 146.8794350000005,
                    "velocity": 0.18110236220472442,
                    "duration": 0.49085135416666503
                },
                {
                    "name": "E3",
                    "midi": 52,
                    "time": 146.8794350000005,
                    "velocity": 0.18110236220472442,
                    "duration": 0.49085135416666503
                },
                {
                    "name": "E3",
                    "midi": 52,
                    "time": 147.3807300000005,
                    "velocity": 0.1968503937007874,
                    "duration": 0.49085135416666503
                },
                {
                    "name": "A3",
                    "midi": 57,
                    "time": 147.3807300000005,
                    "velocity": 0.1968503937007874,
                    "duration": 0.49085135416666503
                },
                {
                    "name": "B3",
                    "midi": 59,
                    "time": 147.8820250000005,
                    "velocity": 0.1889763779527559,
                    "duration": 0.49085135416666503
                },
                {
                    "name": "E3",
                    "midi": 52,
                    "time": 147.8820250000005,
                    "velocity": 0.1889763779527559,
                    "duration": 0.49085135416666503
                },
                {
                    "name": "E3",
                    "midi": 52,
                    "time": 148.3833200000005,
                    "velocity": 0.1968503937007874,
                    "duration": 0.9608154166666907
                },
                {
                    "name": "C#4",
                    "midi": 61,
                    "time": 148.3833200000005,
                    "velocity": 0.1968503937007874,
                    "duration": 0.9608154166666907
                },
                {
                    "name": "E3",
                    "midi": 52,
                    "time": 149.38591000000054,
                    "velocity": 0.11811023622047244,
                    "duration": 0.2506475000000137
                },
                {
                    "name": "C#4",
                    "midi": 61,
                    "time": 149.38591000000054,
                    "velocity": 0.11811023622047244,
                    "duration": 0.2506475000000137
                },
                {
                    "name": "C5",
                    "midi": 72,
                    "time": 150.38850000000056,
                    "velocity": 0.1732283464566929,
                    "duration": 0.9608154166666623
                },
                {
                    "name": "E4",
                    "midi": 64,
                    "time": 150.38850000000056,
                    "velocity": 0.1732283464566929,
                    "duration": 0.9608154166666623
                },
                {
                    "name": "E4",
                    "midi": 64,
                    "time": 151.39109000000056,
                    "velocity": 0.06299212598425197,
                    "duration": 0.45952041666669174
                },
                {
                    "name": "C5",
                    "midi": 72,
                    "time": 151.39109000000056,
                    "velocity": 0.07086614173228346,
                    "duration": 0.45952041666669174
                },
                {
                    "name": "B3",
                    "midi": 59,
                    "time": 152.3936800000006,
                    "velocity": 0.1968503937007874,
                    "duration": 0.9608154166666623
                },
                {
                    "name": "E3",
                    "midi": 52,
                    "time": 152.3936800000006,
                    "velocity": 0.1968503937007874,
                    "duration": 0.9608154166666623
                },
                {
                    "name": "B3",
                    "midi": 59,
                    "time": 153.39627000000058,
                    "velocity": 0.08661417322834646,
                    "duration": 0.4595204166666633
                },
                {
                    "name": "E3",
                    "midi": 52,
                    "time": 153.39627000000058,
                    "velocity": 0.07086614173228346,
                    "duration": 0.4595204166666633
                },
                {
                    "name": "E4",
                    "midi": 64,
                    "time": 154.39886000000058,
                    "velocity": 0.1732283464566929,
                    "duration": 0.9608154166666907
                },
                {
                    "name": "B4",
                    "midi": 71,
                    "time": 154.39886000000058,
                    "velocity": 0.1732283464566929,
                    "duration": 0.9608154166666907
                },
                {
                    "name": "B4",
                    "midi": 71,
                    "time": 155.4014500000006,
                    "velocity": 0.08661417322834646,
                    "duration": 0.4595204166666633
                },
                {
                    "name": "E4",
                    "midi": 64,
                    "time": 155.4014500000006,
                    "velocity": 0.08661417322834646,
                    "duration": 0.4595204166666633
                },
                {
                    "name": "A2",
                    "midi": 45,
                    "time": 156.4040400000006,
                    "velocity": 0.4881889763779528,
                    "duration": 0.9608154166666623
                },
                {
                    "name": "A1",
                    "midi": 33,
                    "time": 156.4040400000006,
                    "velocity": 0.4881889763779528,
                    "duration": 0.9608154166666623
                },
                {
                    "name": "A2",
                    "midi": 45,
                    "time": 157.4066300000006,
                    "velocity": 0.3543307086614173,
                    "duration": 0.4595204166666633
                },
                {
                    "name": "A1",
                    "midi": 33,
                    "time": 157.4066300000006,
                    "velocity": 0.3543307086614173,
                    "duration": 0.4595204166666633
                },
                {
                    "name": "F#4",
                    "midi": 66,
                    "time": 158.4092200000006,
                    "velocity": 0.30708661417322836,
                    "duration": 0.49085135416666503
                },
                {
                    "name": "E4",
                    "midi": 64,
                    "time": 158.4092200000006,
                    "velocity": 0.30708661417322836,
                    "duration": 0.49085135416666503
                },
                {
                    "name": "A3",
                    "midi": 57,
                    "time": 158.4092200000006,
                    "velocity": 0.30708661417322836,
                    "duration": 0.49085135416666503
                },
                {
                    "name": "B3",
                    "midi": 59,
                    "time": 158.9105150000006,
                    "velocity": 0.2677165354330709,
                    "duration": 0.49085135416669345
                },
                {
                    "name": "E4",
                    "midi": 64,
                    "time": 158.9105150000006,
                    "velocity": 0.2677165354330709,
                    "duration": 0.49085135416669345
                },
                {
                    "name": "G#4",
                    "midi": 68,
                    "time": 158.9105150000006,
                    "velocity": 0.2677165354330709,
                    "duration": 0.49085135416669345
                },
                {
                    "name": "E4",
                    "midi": 64,
                    "time": 159.41181000000063,
                    "velocity": 0.29133858267716534,
                    "duration": 0.49085135416666503
                },
                {
                    "name": "C#4",
                    "midi": 61,
                    "time": 159.41181000000063,
                    "velocity": 0.29133858267716534,
                    "duration": 0.49085135416666503
                },
                {
                    "name": "E4",
                    "midi": 64,
                    "time": 159.91310500000063,
                    "velocity": 0.28346456692913385,
                    "duration": 0.49085135416666503
                },
                {
                    "name": "G#4",
                    "midi": 68,
                    "time": 159.91310500000063,
                    "velocity": 0.28346456692913385,
                    "duration": 0.49085135416666503
                },
                {
                    "name": "B3",
                    "midi": 59,
                    "time": 159.91310500000063,
                    "velocity": 0.28346456692913385,
                    "duration": 0.49085135416666503
                },
                {
                    "name": "F#4",
                    "midi": 66,
                    "time": 160.41440000000063,
                    "velocity": 0.28346456692913385,
                    "duration": 0.9608154166666623
                },
                {
                    "name": "B3",
                    "midi": 59,
                    "time": 160.41440000000063,
                    "velocity": 0.28346456692913385,
                    "duration": 0.9608154166666623
                },
                {
                    "name": "A4",
                    "midi": 69,
                    "time": 160.41440000000063,
                    "velocity": 0.28346456692913385,
                    "duration": 0.9608154166666623
                },
                {
                    "name": "B3",
                    "midi": 59,
                    "time": 161.41699000000062,
                    "velocity": 0.13385826771653545,
                    "duration": 0.4595204166666633
                },
                {
                    "name": "F#4",
                    "midi": 66,
                    "time": 161.41699000000062,
                    "velocity": 0.13385826771653545,
                    "duration": 0.4595204166666633
                },
                {
                    "name": "A4",
                    "midi": 69,
                    "time": 161.41699000000062,
                    "velocity": 0.13385826771653545,
                    "duration": 0.4595204166666633
                },
                {
                    "name": "B3",
                    "midi": 59,
                    "time": 162.41958000000062,
                    "velocity": 0.2125984251968504,
                    "duration": 0.9608154166666907
                },
                {
                    "name": "E3",
                    "midi": 52,
                    "time": 162.41958000000062,
                    "velocity": 0.2125984251968504,
                    "duration": 0.9608154166666907
                },
                {
                    "name": "B3",
                    "midi": 59,
                    "time": 163.42217000000065,
                    "velocity": 0.12598425196850394,
                    "duration": 0.4595204166666633
                },
                {
                    "name": "E3",
                    "midi": 52,
                    "time": 163.42217000000065,
                    "velocity": 0.18110236220472442,
                    "duration": 0.4595204166666633
                },
                {
                    "name": "A2",
                    "midi": 45,
                    "time": 164.42476000000065,
                    "velocity": 0.5275590551181102,
                    "duration": 0.9608154166666907
                },
                {
                    "name": "A1",
                    "midi": 33,
                    "time": 164.42476000000065,
                    "velocity": 0.5275590551181102,
                    "duration": 0.9608154166666907
                },
                {
                    "name": "A1",
                    "midi": 33,
                    "time": 165.42735000000067,
                    "velocity": 0.3858267716535433,
                    "duration": 0.4595204166666633
                },
                {
                    "name": "A2",
                    "midi": 45,
                    "time": 165.42735000000067,
                    "velocity": 0.3858267716535433,
                    "duration": 0.4595204166666633
                },
                {
                    "name": "F#4",
                    "midi": 66,
                    "time": 166.42994000000067,
                    "velocity": 0.30708661417322836,
                    "duration": 0.49085135416666503
                },
                {
                    "name": "E4",
                    "midi": 64,
                    "time": 166.42994000000067,
                    "velocity": 0.30708661417322836,
                    "duration": 0.49085135416666503
                },
                {
                    "name": "A3",
                    "midi": 57,
                    "time": 166.42994000000067,
                    "velocity": 0.30708661417322836,
                    "duration": 0.49085135416666503
                },
                {
                    "name": "E4",
                    "midi": 64,
                    "time": 166.93123500000067,
                    "velocity": 0.28346456692913385,
                    "duration": 0.49085135416669345
                },
                {
                    "name": "G#4",
                    "midi": 68,
                    "time": 166.93123500000067,
                    "velocity": 0.28346456692913385,
                    "duration": 0.49085135416669345
                },
                {
                    "name": "B3",
                    "midi": 59,
                    "time": 166.93123500000067,
                    "velocity": 0.28346456692913385,
                    "duration": 0.49085135416669345
                },
                {
                    "name": "E4",
                    "midi": 64,
                    "time": 167.4325300000007,
                    "velocity": 0.30708661417322836,
                    "duration": 0.4908513541666366
                },
                {
                    "name": "C#4",
                    "midi": 61,
                    "time": 167.4325300000007,
                    "velocity": 0.30708661417322836,
                    "duration": 0.4908513541666366
                },
                {
                    "name": "B3",
                    "midi": 59,
                    "time": 167.93382500000067,
                    "velocity": 0.28346456692913385,
                    "duration": 0.4908513541666366
                },
                {
                    "name": "G#4",
                    "midi": 68,
                    "time": 167.93382500000067,
                    "velocity": 0.28346456692913385,
                    "duration": 0.4908513541666366
                },
                {
                    "name": "E4",
                    "midi": 64,
                    "time": 167.93382500000067,
                    "velocity": 0.28346456692913385,
                    "duration": 0.4908513541666366
                },
                {
                    "name": "F#4",
                    "midi": 66,
                    "time": 168.43512000000064,
                    "velocity": 0.28346456692913385,
                    "duration": 0.9608154166666623
                },
                {
                    "name": "A4",
                    "midi": 69,
                    "time": 168.43512000000064,
                    "velocity": 0.28346456692913385,
                    "duration": 0.9608154166666623
                },
                {
                    "name": "B3",
                    "midi": 59,
                    "time": 168.43512000000064,
                    "velocity": 0.28346456692913385,
                    "duration": 0.9608154166666623
                },
                {
                    "name": "B3",
                    "midi": 59,
                    "time": 169.43771000000064,
                    "velocity": 0.13385826771653545,
                    "duration": 0.4595204166666633
                },
                {
                    "name": "A4",
                    "midi": 69,
                    "time": 169.43771000000064,
                    "velocity": 0.13385826771653545,
                    "duration": 0.4595204166666633
                },
                {
                    "name": "F#4",
                    "midi": 66,
                    "time": 169.43771000000064,
                    "velocity": 0.13385826771653545,
                    "duration": 0.4595204166666633
                },
                {
                    "name": "E2",
                    "midi": 40,
                    "time": 170.44030000000063,
                    "velocity": 0.6614173228346457,
                    "duration": 0.9608154166666623
                },
                {
                    "name": "E2",
                    "midi": 40,
                    "time": 171.44289000000063,
                    "velocity": 0.4094488188976378,
                    "duration": 0.4595204166666633
                },
                {
                    "name": "E2",
                    "midi": 40,
                    "time": 172.44548000000063,
                    "velocity": 0.1732283464566929,
                    "duration": 0.49085135416666503
                },
                {
                    "name": "B2",
                    "midi": 47,
                    "time": 172.44548000000063,
                    "velocity": 0.1732283464566929,
                    "duration": 0.49085135416666503
                },
                {
                    "name": "B2",
                    "midi": 47,
                    "time": 172.94677500000063,
                    "velocity": 0.13385826771653545,
                    "duration": 0.49085135416666503
                },
                {
                    "name": "E2",
                    "midi": 40,
                    "time": 172.94677500000063,
                    "velocity": 0.13385826771653545,
                    "duration": 0.49085135416666503
                },
                {
                    "name": "E2",
                    "midi": 40,
                    "time": 173.44807000000063,
                    "velocity": 0.15748031496062992,
                    "duration": 0.49085135416666503
                },
                {
                    "name": "B2",
                    "midi": 47,
                    "time": 173.44807000000063,
                    "velocity": 0.15748031496062992,
                    "duration": 0.49085135416666503
                },
                {
                    "name": "E2",
                    "midi": 40,
                    "time": 173.94936500000063,
                    "velocity": 0.12598425196850394,
                    "duration": 0.49085135416666503
                },
                {
                    "name": "B2",
                    "midi": 47,
                    "time": 173.94936500000063,
                    "velocity": 0.12598425196850394,
                    "duration": 0.49085135416666503
                },
                {
                    "name": "E2",
                    "midi": 40,
                    "time": 174.45066000000062,
                    "velocity": 0.12598425196850394,
                    "duration": 0.9608154166666623
                },
                {
                    "name": "C3",
                    "midi": 48,
                    "time": 174.45066000000062,
                    "velocity": 0.12598425196850394,
                    "duration": 0.9608154166666623
                },
                {
                    "name": "C3",
                    "midi": 48,
                    "time": 175.45325000000062,
                    "velocity": 0.06299212598425197,
                    "duration": 0.25064749999998526
                },
                {
                    "name": "E2",
                    "midi": 40,
                    "time": 175.45325000000062,
                    "velocity": 0.06299212598425197,
                    "duration": 0.25064749999998526
                },
                {
                    "name": "E2",
                    "midi": 40,
                    "time": 176.45584000000062,
                    "velocity": 0.18110236220472442,
                    "duration": 0.9608154166666907
                },
                {
                    "name": "D#3",
                    "midi": 51,
                    "time": 176.45584000000062,
                    "velocity": 0.18110236220472442,
                    "duration": 0.9608154166666907
                },
                {
                    "name": "D#3",
                    "midi": 51,
                    "time": 177.45843000000065,
                    "velocity": 0.07086614173228346,
                    "duration": 0.25064749999998526
                },
                {
                    "name": "E2",
                    "midi": 40,
                    "time": 177.45843000000065,
                    "velocity": 0.07086614173228346,
                    "duration": 0.25064749999998526
                },
                {
                    "name": "E2",
                    "midi": 40,
                    "time": 178.46102000000064,
                    "velocity": 0.6456692913385826,
                    "duration": 0.9608154166666623
                },
                {
                    "name": "E3",
                    "midi": 52,
                    "time": 178.46102000000064,
                    "velocity": 0.6456692913385826,
                    "duration": 0.9608154166666623
                },
                {
                    "name": "E2",
                    "midi": 40,
                    "time": 179.46361000000064,
                    "velocity": 0.3464566929133858,
                    "duration": 0.4595204166666633
                },
                {
                    "name": "E3",
                    "midi": 52,
                    "time": 179.46361000000064,
                    "velocity": 0.3464566929133858,
                    "duration": 0.4595204166666633
                },
                {
                    "name": "E2",
                    "midi": 40,
                    "time": 180.46620000000064,
                    "velocity": 0.1968503937007874,
                    "duration": 0.49085135416666503
                },
                {
                    "name": "B2",
                    "midi": 47,
                    "time": 180.46620000000064,
                    "velocity": 0.1968503937007874,
                    "duration": 0.49085135416666503
                },
                {
                    "name": "E2",
                    "midi": 40,
                    "time": 180.96749500000064,
                    "velocity": 0.14173228346456693,
                    "duration": 0.49085135416666503
                },
                {
                    "name": "B2",
                    "midi": 47,
                    "time": 180.96749500000064,
                    "velocity": 0.14173228346456693,
                    "duration": 0.49085135416666503
                },
                {
                    "name": "B2",
                    "midi": 47,
                    "time": 181.46879000000064,
                    "velocity": 0.1968503937007874,
                    "duration": 0.49085135416666503
                },
                {
                    "name": "E2",
                    "midi": 40,
                    "time": 181.46879000000064,
                    "velocity": 0.1968503937007874,
                    "duration": 0.49085135416666503
                },
                {
                    "name": "B2",
                    "midi": 47,
                    "time": 181.97008500000064,
                    "velocity": 0.13385826771653545,
                    "duration": 0.49085135416666503
                },
                {
                    "name": "E2",
                    "midi": 40,
                    "time": 181.97008500000064,
                    "velocity": 0.13385826771653545,
                    "duration": 0.49085135416666503
                },
                {
                    "name": "A2",
                    "midi": 45,
                    "time": 182.47138000000064,
                    "velocity": 0.1889763779527559,
                    "duration": 0.9608154166666623
                },
                {
                    "name": "E2",
                    "midi": 40,
                    "time": 182.47138000000064,
                    "velocity": 0.1889763779527559,
                    "duration": 0.9608154166666623
                },
                {
                    "name": "E2",
                    "midi": 40,
                    "time": 183.47397000000063,
                    "velocity": 0.10236220472440945,
                    "duration": 0.25064749999998526
                },
                {
                    "name": "C#3",
                    "midi": 49,
                    "time": 183.47397000000063,
                    "velocity": 0.14173228346456693,
                    "duration": 0.25064749999998526
                },
                {
                    "name": "E2",
                    "midi": 40,
                    "time": 184.47656000000063,
                    "velocity": 0.1968503937007874,
                    "duration": 0.9608154166666623
                },
                {
                    "name": "B2",
                    "midi": 47,
                    "time": 184.47656000000063,
                    "velocity": 0.1968503937007874,
                    "duration": 0.9608154166666623
                },
                {
                    "name": "E2",
                    "midi": 40,
                    "time": 185.47915000000063,
                    "velocity": 0.12598425196850394,
                    "duration": 0.2506475000000137
                },
                {
                    "name": "D#3",
                    "midi": 51,
                    "time": 185.47915000000063,
                    "velocity": 0.1732283464566929,
                    "duration": 0.2506475000000137
                },
                {
                    "name": "E3",
                    "midi": 52,
                    "time": 186.48174000000066,
                    "velocity": 0.1968503937007874,
                    "duration": 0.9608154166666907
                },
                {
                    "name": "E2",
                    "midi": 40,
                    "time": 186.48174000000066,
                    "velocity": 0.1968503937007874,
                    "duration": 0.9608154166666907
                },
                {
                    "name": "E2",
                    "midi": 40,
                    "time": 187.48433000000068,
                    "velocity": 0.03937007874015748,
                    "duration": 0.2506475000000137
                },
                {
                    "name": "E3",
                    "midi": 52,
                    "time": 187.48433000000068,
                    "velocity": 0.11023622047244094,
                    "duration": 0.2506475000000137
                },
                {
                    "name": "A2",
                    "midi": 45,
                    "time": 188.4869200000007,
                    "velocity": 0.1968503937007874,
                    "duration": 0.9608154166666623
                },
                {
                    "name": "C3",
                    "midi": 48,
                    "time": 188.4869200000007,
                    "velocity": 0.1968503937007874,
                    "duration": 0.9608154166666623
                },
                {
                    "name": "A2",
                    "midi": 45,
                    "time": 189.4895100000007,
                    "velocity": 0.11023622047244094,
                    "duration": 0.2506475000000137
                },
                {
                    "name": "C3",
                    "midi": 48,
                    "time": 189.4895100000007,
                    "velocity": 0.11023622047244094,
                    "duration": 0.2506475000000137
                },
                {
                    "name": "C3",
                    "midi": 48,
                    "time": 190.49210000000073,
                    "velocity": 0.1968503937007874,
                    "duration": 0.9608154166666907
                },
                {
                    "name": "C3",
                    "midi": 48,
                    "time": 191.49469000000076,
                    "velocity": 0.12598425196850394,
                    "duration": 0.2506475000000137
                },
                {
                    "name": "D2",
                    "midi": 38,
                    "time": 192.49728000000079,
                    "velocity": 0.1968503937007874,
                    "duration": 0.9608154166666623
                },
                {
                    "name": "D3",
                    "midi": 50,
                    "time": 192.49728000000079,
                    "velocity": 0.1968503937007874,
                    "duration": 0.9608154166666623
                },
                {
                    "name": "D3",
                    "midi": 50,
                    "time": 193.49987000000078,
                    "velocity": 0.11811023622047244,
                    "duration": 0.25064749999998526
                },
                {
                    "name": "D2",
                    "midi": 38,
                    "time": 193.49987000000078,
                    "velocity": 0.11811023622047244,
                    "duration": 0.25064749999998526
                },
                {
                    "name": "E2",
                    "midi": 40,
                    "time": 194.50246000000078,
                    "velocity": 0.1889763779527559,
                    "duration": 0.9608154166666623
                },
                {
                    "name": "A2",
                    "midi": 45,
                    "time": 194.50246000000078,
                    "velocity": 0.1889763779527559,
                    "duration": 1.0025899999999979
                },
                {
                    "name": "E3",
                    "midi": 52,
                    "time": 195.50505000000078,
                    "velocity": 0.30708661417322836,
                    "duration": 1.0025900000000263
                },
                {
                    "name": "E2",
                    "midi": 40,
                    "time": 195.50505000000078,
                    "velocity": 0.11023622047244094,
                    "duration": 0.2506475000000137
                },
                {
                    "name": "D#3",
                    "midi": 51,
                    "time": 196.5076400000008,
                    "velocity": 0.29133858267716534,
                    "duration": 1.0025899999999979
                },
                {
                    "name": "E3",
                    "midi": 52,
                    "time": 197.5102300000008,
                    "velocity": 0.2755905511811024,
                    "duration": 0.2506475000000137
                },
                {
                    "name": "E2",
                    "midi": 40,
                    "time": 200.51800000000082,
                    "velocity": 0.14960629921259844,
                    "duration": 0.9608154166666623
                },
                {
                    "name": "B2",
                    "midi": 47,
                    "time": 200.51800000000082,
                    "velocity": 0.25984251968503935,
                    "duration": 1.0025899999999979
                },
                {
                    "name": "E3",
                    "midi": 52,
                    "time": 201.52059000000082,
                    "velocity": 0.30708661417322836,
                    "duration": 1.0025900000000263
                },
                {
                    "name": "E2",
                    "midi": 40,
                    "time": 201.52059000000082,
                    "velocity": 0.09448818897637795,
                    "duration": 0.45952041666669174
                },
                {
                    "name": "D#3",
                    "midi": 51,
                    "time": 202.52318000000085,
                    "velocity": 0.29133858267716534,
                    "duration": 1.0025899999999979
                },
                {
                    "name": "E3",
                    "midi": 52,
                    "time": 203.52577000000085,
                    "velocity": 0.2755905511811024,
                    "duration": 0.2506475000000137
                },
                {
                    "name": "A3",
                    "midi": 57,
                    "time": 206.53354000000087,
                    "velocity": 0.33070866141732286,
                    "duration": 1.0025899999999979
                },
                {
                    "name": "E4",
                    "midi": 64,
                    "time": 207.53613000000087,
                    "velocity": 0.33070866141732286,
                    "duration": 1.0025900000000263
                },
                {
                    "name": "D#4",
                    "midi": 63,
                    "time": 208.5387200000009,
                    "velocity": 0.3464566929133858,
                    "duration": 1.0025899999999979
                },
                {
                    "name": "E4",
                    "midi": 64,
                    "time": 209.5413100000009,
                    "velocity": 0.2992125984251969,
                    "duration": 0.20887291666667807
                },
                {
                    "name": "C4",
                    "midi": 60,
                    "time": 210.0426050000009,
                    "velocity": 0.30708661417322836,
                    "duration": 0.3968585416666599
                },
                {
                    "name": "B3",
                    "midi": 59,
                    "time": 210.41857625000088,
                    "velocity": 0.30708661417322836,
                    "duration": 0.14621104166667465
                },
                {
                    "name": "A3",
                    "midi": 57,
                    "time": 210.5439000000009,
                    "velocity": 0.2992125984251969,
                    "duration": 1.0025899999999979
                },
                {
                    "name": "E3",
                    "midi": 52,
                    "time": 211.5464900000009,
                    "velocity": 0.4094488188976378,
                    "duration": 1.0025899999999979
                },
                {
                    "name": "C3",
                    "midi": 48,
                    "time": 212.54908000000088,
                    "velocity": 0.3700787401574803,
                    "duration": 1.0025899999999979
                },
                {
                    "name": "A2",
                    "midi": 45,
                    "time": 213.55167000000088,
                    "velocity": 0.30708661417322836,
                    "duration": 0.18798562500001026
                },
                {
                    "name": "A2",
                    "midi": 45,
                    "time": 214.55426000000088,
                    "velocity": 0.33070866141732286,
                    "duration": 1.0025899999999979
                },
                {
                    "name": "D2",
                    "midi": 38,
                    "time": 215.55685000000088,
                    "velocity": 0.3543307086614173,
                    "duration": 1.0025899999999979
                },
                {
                    "name": "C#2",
                    "midi": 37,
                    "time": 216.55944000000088,
                    "velocity": 0.3937007874015748,
                    "duration": 1.0025899999999979
                },
                {
                    "name": "D2",
                    "midi": 38,
                    "time": 217.56203000000087,
                    "velocity": 0.33070866141732286,
                    "duration": 0.20887291666664964
                },
                {
                    "name": "A2",
                    "midi": 45,
                    "time": 218.06332500000084,
                    "velocity": 0.3464566929133858,
                    "duration": 0.3968585416666599
                },
                {
                    "name": "B2",
                    "midi": 47,
                    "time": 218.43929625000084,
                    "velocity": 0.3543307086614173,
                    "duration": 0.14621104166667465
                },
                {
                    "name": "C3",
                    "midi": 48,
                    "time": 218.56462000000084,
                    "velocity": 0.3543307086614173,
                    "duration": 1.0025899999999979
                },
                {
                    "name": "E2",
                    "midi": 40,
                    "time": 219.56721000000084,
                    "velocity": 0.4094488188976378,
                    "duration": 1.0025899999999979
                },
                {
                    "name": "C2",
                    "midi": 36,
                    "time": 220.56980000000084,
                    "velocity": 0.3543307086614173,
                    "duration": 1.0025899999999979
                },
                {
                    "name": "A1",
                    "midi": 33,
                    "time": 221.57239000000084,
                    "velocity": 0.3228346456692913,
                    "duration": 0.20887291666667807
                },
                {
                    "name": "D2",
                    "midi": 38,
                    "time": 222.57498000000083,
                    "velocity": 0.2755905511811024,
                    "duration": 1.0025899999999979
                },
                {
                    "name": "F2",
                    "midi": 41,
                    "time": 222.57498000000083,
                    "velocity": 0.2755905511811024,
                    "duration": 1.0025899999999979
                },
                {
                    "name": "A2",
                    "midi": 45,
                    "time": 222.57498000000083,
                    "velocity": 0.2755905511811024,
                    "duration": 1.0025899999999979
                },
                {
                    "name": "A1",
                    "midi": 33,
                    "time": 223.57757000000083,
                    "velocity": 0.25984251968503935,
                    "duration": 0.12532374999997842
                },
                {
                    "name": "C2",
                    "midi": 36,
                    "time": 224.5801600000008,
                    "velocity": 0.28346456692913385,
                    "duration": 1.0025899999999979
                },
                {
                    "name": "E2",
                    "midi": 40,
                    "time": 224.5801600000008,
                    "velocity": 0.28346456692913385,
                    "duration": 1.0025899999999979
                },
                {
                    "name": "A2",
                    "midi": 45,
                    "time": 224.5801600000008,
                    "velocity": 0.28346456692913385,
                    "duration": 1.0025899999999979
                },
                {
                    "name": "A1",
                    "midi": 33,
                    "time": 225.5827500000008,
                    "velocity": 0.2755905511811024,
                    "duration": 0.12532374999997842
                },
                {
                    "name": "D2",
                    "midi": 38,
                    "time": 226.58534000000077,
                    "velocity": 0.28346456692913385,
                    "duration": 1.0025899999999979
                },
                {
                    "name": "F2",
                    "midi": 41,
                    "time": 226.58534000000077,
                    "velocity": 0.28346456692913385,
                    "duration": 1.0025899999999979
                },
                {
                    "name": "A2",
                    "midi": 45,
                    "time": 226.58534000000077,
                    "velocity": 0.28346456692913385,
                    "duration": 1.0025899999999979
                },
                {
                    "name": "A1",
                    "midi": 33,
                    "time": 227.58793000000077,
                    "velocity": 0.2677165354330709,
                    "duration": 0.12532375000000684
                },
                {
                    "name": "C2",
                    "midi": 36,
                    "time": 228.5905200000008,
                    "velocity": 0.28346456692913385,
                    "duration": 1.0025899999999979
                },
                {
                    "name": "E2",
                    "midi": 40,
                    "time": 228.5905200000008,
                    "velocity": 0.28346456692913385,
                    "duration": 1.0025899999999979
                },
                {
                    "name": "A2",
                    "midi": 45,
                    "time": 228.5905200000008,
                    "velocity": 0.28346456692913385,
                    "duration": 1.0025899999999979
                },
                {
                    "name": "A1",
                    "midi": 33,
                    "time": 229.5931100000008,
                    "velocity": 0.2677165354330709,
                    "duration": 0.20887291666664964
                },
                {
                    "name": "D2",
                    "midi": 38,
                    "time": 230.5957000000008,
                    "velocity": 0.29133858267716534,
                    "duration": 1.0025899999999979
                },
                {
                    "name": "F2",
                    "midi": 41,
                    "time": 230.5957000000008,
                    "velocity": 0.29133858267716534,
                    "duration": 1.0025899999999979
                },
                {
                    "name": "A2",
                    "midi": 45,
                    "time": 230.5957000000008,
                    "velocity": 0.29133858267716534,
                    "duration": 1.0025899999999979
                },
                {
                    "name": "A1",
                    "midi": 33,
                    "time": 231.5982900000008,
                    "velocity": 0.2755905511811024,
                    "duration": 0.20887291666667807
                },
                {
                    "name": "C2",
                    "midi": 36,
                    "time": 232.60088000000079,
                    "velocity": 0.28346456692913385,
                    "duration": 1.0025899999999979
                },
                {
                    "name": "E2",
                    "midi": 40,
                    "time": 232.60088000000079,
                    "velocity": 0.28346456692913385,
                    "duration": 1.0025899999999979
                },
                {
                    "name": "A2",
                    "midi": 45,
                    "time": 232.60088000000079,
                    "velocity": 0.28346456692913385,
                    "duration": 1.0025899999999979
                },
                {
                    "name": "A1",
                    "midi": 33,
                    "time": 233.60347000000078,
                    "velocity": 0.25984251968503935,
                    "duration": 0.20887291666667807
                },
                {
                    "name": "D3",
                    "midi": 50,
                    "time": 234.60606000000078,
                    "velocity": 0.4015748031496063,
                    "duration": 1.0025899999999979
                },
                {
                    "name": "F3",
                    "midi": 53,
                    "time": 234.60606000000078,
                    "velocity": 0.4015748031496063,
                    "duration": 1.0025899999999979
                },
                {
                    "name": "A3",
                    "midi": 57,
                    "time": 234.60606000000078,
                    "velocity": 0.4015748031496063,
                    "duration": 1.0025899999999979
                },
                {
                    "name": "A2",
                    "midi": 45,
                    "time": 235.60865000000078,
                    "velocity": 0.2755905511811024,
                    "duration": 0.12532374999997842
                },
                {
                    "name": "C3",
                    "midi": 48,
                    "time": 236.61124000000078,
                    "velocity": 0.3228346456692913,
                    "duration": 1.0025899999999979
                },
                {
                    "name": "E3",
                    "midi": 52,
                    "time": 236.61124000000078,
                    "velocity": 0.3228346456692913,
                    "duration": 1.0025899999999979
                },
                {
                    "name": "A3",
                    "midi": 57,
                    "time": 236.61124000000078,
                    "velocity": 0.3228346456692913,
                    "duration": 0.9994569062500034
                },
                {
                    "name": "A2",
                    "midi": 45,
                    "time": 237.61383000000077,
                    "velocity": 0.28346456692913385,
                    "duration": 0.20887291666664964
                },
                {
                    "name": "B2",
                    "midi": 47,
                    "time": 238.61642000000074,
                    "velocity": 0.44881889763779526,
                    "duration": 1.0025899999999979
                },
                {
                    "name": "E3",
                    "midi": 52,
                    "time": 238.61642000000074,
                    "velocity": 0.44881889763779526,
                    "duration": 1.0025899999999979
                },
                {
                    "name": "G3",
                    "midi": 55,
                    "time": 238.61642000000074,
                    "velocity": 0.44881889763779526,
                    "duration": 1.0025899999999979
                },
                {
                    "name": "G2",
                    "midi": 43,
                    "time": 239.61901000000074,
                    "velocity": 0.4251968503937008,
                    "duration": 0.18798562500001026
                },
                {
                    "name": "F#2",
                    "midi": 42,
                    "time": 240.62160000000077,
                    "velocity": 0.4645669291338583,
                    "duration": 0.9190408333333266
                },
                {
                    "name": "D#3",
                    "midi": 51,
                    "time": 240.62160000000077,
                    "velocity": 0.4645669291338583,
                    "duration": 0.9190408333333266
                },
                {
                    "name": "F#3",
                    "midi": 54,
                    "time": 240.62160000000077,
                    "velocity": 0.5196850393700787,
                    "duration": 0.9190408333333266
                },
                {
                    "name": "B2",
                    "midi": 47,
                    "time": 241.62419000000077,
                    "velocity": 0.3858267716535433,
                    "duration": 0.9190408333333551
                },
                {
                    "name": "D#3",
                    "midi": 51,
                    "time": 241.62419000000077,
                    "velocity": 0.3858267716535433,
                    "duration": 0.9190408333333551
                },
                {
                    "name": "B3",
                    "midi": 59,
                    "time": 241.62419000000077,
                    "velocity": 0.4330708661417323,
                    "duration": 0.9190408333333551
                },
                {
                    "name": "G2",
                    "midi": 43,
                    "time": 242.6267800000008,
                    "velocity": 0.3858267716535433,
                    "duration": 1.0025899999999979
                },
                {
                    "name": "G3",
                    "midi": 55,
                    "time": 242.6267800000008,
                    "velocity": 0.3858267716535433,
                    "duration": 1.0025899999999979
                },
                {
                    "name": "E2",
                    "midi": 40,
                    "time": 243.6293700000008,
                    "velocity": 0.33070866141732286,
                    "duration": 0.20887291666667807
                },
                {
                    "name": "E3",
                    "midi": 52,
                    "time": 243.6293700000008,
                    "velocity": 0.33070866141732286,
                    "duration": 0.20887291666667807
                },
                {
                    "name": "F#1",
                    "midi": 30,
                    "time": 244.6319600000008,
                    "velocity": 0.2047244094488189,
                    "duration": 0.9190408333333266
                },
                {
                    "name": "D#2",
                    "midi": 39,
                    "time": 244.6319600000008,
                    "velocity": 0.2047244094488189,
                    "duration": 0.9190408333333266
                },
                {
                    "name": "F#2",
                    "midi": 42,
                    "time": 244.6319600000008,
                    "velocity": 0.2047244094488189,
                    "duration": 0.9190408333333266
                },
                {
                    "name": "B1",
                    "midi": 35,
                    "time": 245.6345500000008,
                    "velocity": 0.1889763779527559,
                    "duration": 0.9190408333333266
                },
                {
                    "name": "D#2",
                    "midi": 39,
                    "time": 245.6345500000008,
                    "velocity": 0.1889763779527559,
                    "duration": 0.9190408333333266
                },
                {
                    "name": "B2",
                    "midi": 47,
                    "time": 245.6345500000008,
                    "velocity": 0.1889763779527559,
                    "duration": 0.9190408333333266
                },
                {
                    "name": "G1",
                    "midi": 31,
                    "time": 246.63714000000078,
                    "velocity": 0.23622047244094488,
                    "duration": 1.0025899999999979
                },
                {
                    "name": "G2",
                    "midi": 43,
                    "time": 246.63714000000078,
                    "velocity": 0.23622047244094488,
                    "duration": 1.0025899999999979
                },
                {
                    "name": "E1",
                    "midi": 28,
                    "time": 247.63973000000078,
                    "velocity": 0.2125984251968504,
                    "duration": 0.20887291666667807
                },
                {
                    "name": "E2",
                    "midi": 40,
                    "time": 247.63973000000078,
                    "velocity": 0.2125984251968504,
                    "duration": 0.20887291666667807
                },
                {
                    "name": "E2",
                    "midi": 40,
                    "time": 248.64232000000078,
                    "velocity": 0.23622047244094488,
                    "duration": 1.1488010416666725
                },
                {
                    "name": "F2",
                    "midi": 41,
                    "time": 249.77023375000078,
                    "velocity": 0.23622047244094488,
                    "duration": 0.14621104166667465
                },
                {
                    "name": "E2",
                    "midi": 40,
                    "time": 249.8955575000008,
                    "velocity": 0.2047244094488189,
                    "duration": 0.14621104166667465
                },
                {
                    "name": "F2",
                    "midi": 41,
                    "time": 250.0208812500008,
                    "velocity": 0.23622047244094488,
                    "duration": 0.14621104166667465
                },
                {
                    "name": "E2",
                    "midi": 40,
                    "time": 250.1462050000008,
                    "velocity": 0.1889763779527559,
                    "duration": 0.14621104166667465
                },
                {
                    "name": "F2",
                    "midi": 41,
                    "time": 250.2715287500008,
                    "velocity": 0.23622047244094488,
                    "duration": 0.14621104166667465
                },
                {
                    "name": "E2",
                    "midi": 40,
                    "time": 250.39685250000082,
                    "velocity": 0.1968503937007874,
                    "duration": 0.14621104166667465
                },
                {
                    "name": "F2",
                    "midi": 41,
                    "time": 250.52217625000083,
                    "velocity": 0.23622047244094488,
                    "duration": 0.14621104166667465
                },
                {
                    "name": "E2",
                    "midi": 40,
                    "time": 250.64750000000083,
                    "velocity": 0.2440944881889764,
                    "duration": 0.14621104166667465
                },
                {
                    "name": "F2",
                    "midi": 41,
                    "time": 250.77282375000084,
                    "velocity": 0.2204724409448819,
                    "duration": 0.14621104166667465
                },
                {
                    "name": "E2",
                    "midi": 40,
                    "time": 250.89814750000085,
                    "velocity": 0.2440944881889764,
                    "duration": 0.14621104166667465
                },
                {
                    "name": "F2",
                    "midi": 41,
                    "time": 251.02347125000085,
                    "velocity": 0.2440944881889764,
                    "duration": 0.14621104166667465
                },
                {
                    "name": "E2",
                    "midi": 40,
                    "time": 251.14879500000086,
                    "velocity": 0.2677165354330709,
                    "duration": 0.14621104166667465
                },
                {
                    "name": "F2",
                    "midi": 41,
                    "time": 251.27411875000087,
                    "velocity": 0.23622047244094488,
                    "duration": 0.14621104166667465
                },
                {
                    "name": "E2",
                    "midi": 40,
                    "time": 251.39944250000087,
                    "velocity": 0.2677165354330709,
                    "duration": 0.14621104166667465
                },
                {
                    "name": "F2",
                    "midi": 41,
                    "time": 251.52476625000088,
                    "velocity": 0.2283464566929134,
                    "duration": 0.14621104166667465
                },
                {
                    "name": "E2",
                    "midi": 40,
                    "time": 251.6500900000009,
                    "velocity": 0.2677165354330709,
                    "duration": 0.14621104166667465
                },
                {
                    "name": "F2",
                    "midi": 41,
                    "time": 251.7754137500009,
                    "velocity": 0.2204724409448819,
                    "duration": 0.14621104166667465
                },
                {
                    "name": "E2",
                    "midi": 40,
                    "time": 251.9007375000009,
                    "velocity": 0.2677165354330709,
                    "duration": 0.14621104166667465
                },
                {
                    "name": "F2",
                    "midi": 41,
                    "time": 252.0260612500009,
                    "velocity": 0.2283464566929134,
                    "duration": 0.14621104166667465
                },
                {
                    "name": "E2",
                    "midi": 40,
                    "time": 252.15138500000091,
                    "velocity": 0.2677165354330709,
                    "duration": 0.14621104166667465
                },
                {
                    "name": "F2",
                    "midi": 41,
                    "time": 252.27670875000092,
                    "velocity": 0.2283464566929134,
                    "duration": 0.14621104166667465
                },
                {
                    "name": "E2",
                    "midi": 40,
                    "time": 252.40203250000093,
                    "velocity": 0.2677165354330709,
                    "duration": 0.14621104166667465
                },
                {
                    "name": "F2",
                    "midi": 41,
                    "time": 252.52735625000093,
                    "velocity": 0.23622047244094488,
                    "duration": 0.14621104166667465
                },
                {
                    "name": "E2",
                    "midi": 40,
                    "time": 252.65268000000094,
                    "velocity": 0.30708661417322836,
                    "duration": 0.14621104166667465
                },
                {
                    "name": "F2",
                    "midi": 41,
                    "time": 252.77800375000095,
                    "velocity": 0.25984251968503935,
                    "duration": 0.14621104166667465
                },
                {
                    "name": "E2",
                    "midi": 40,
                    "time": 252.90332750000096,
                    "velocity": 0.30708661417322836,
                    "duration": 0.14621104166667465
                },
                {
                    "name": "F2",
                    "midi": 41,
                    "time": 253.02865125000096,
                    "velocity": 0.25984251968503935,
                    "duration": 0.14621104166667465
                },
                {
                    "name": "E2",
                    "midi": 40,
                    "time": 253.15397500000097,
                    "velocity": 0.30708661417322836,
                    "duration": 0.14621104166667465
                },
                {
                    "name": "F2",
                    "midi": 41,
                    "time": 253.27929875000098,
                    "velocity": 0.25984251968503935,
                    "duration": 0.14621104166667465
                },
                {
                    "name": "E2",
                    "midi": 40,
                    "time": 253.40462250000098,
                    "velocity": 0.31496062992125984,
                    "duration": 0.14621104166667465
                },
                {
                    "name": "F2",
                    "midi": 41,
                    "time": 253.529946250001,
                    "velocity": 0.2755905511811024,
                    "duration": 0.14621104166667465
                },
                {
                    "name": "E2",
                    "midi": 40,
                    "time": 253.655270000001,
                    "velocity": 0.31496062992125984,
                    "duration": 0.14621104166667465
                },
                {
                    "name": "F2",
                    "midi": 41,
                    "time": 253.780593750001,
                    "velocity": 0.2755905511811024,
                    "duration": 0.14621104166667465
                },
                {
                    "name": "E2",
                    "midi": 40,
                    "time": 253.905917500001,
                    "velocity": 0.3228346456692913,
                    "duration": 0.14621104166667465
                },
                {
                    "name": "F2",
                    "midi": 41,
                    "time": 254.03124125000102,
                    "velocity": 0.2677165354330709,
                    "duration": 0.14621104166667465
                },
                {
                    "name": "E2",
                    "midi": 40,
                    "time": 254.15656500000102,
                    "velocity": 0.3228346456692913,
                    "duration": 0.14621104166667465
                },
                {
                    "name": "F2",
                    "midi": 41,
                    "time": 254.28188875000103,
                    "velocity": 0.28346456692913385,
                    "duration": 0.14621104166667465
                },
                {
                    "name": "E2",
                    "midi": 40,
                    "time": 254.40721250000104,
                    "velocity": 0.33070866141732286,
                    "duration": 0.14621104166667465
                },
                {
                    "name": "F2",
                    "midi": 41,
                    "time": 254.53253625000104,
                    "velocity": 0.29133858267716534,
                    "duration": 0.14621104166667465
                },
                {
                    "name": "E2",
                    "midi": 40,
                    "time": 254.65786000000105,
                    "velocity": 0.3700787401574803,
                    "duration": 0.14621104166667465
                },
                {
                    "name": "F2",
                    "midi": 41,
                    "time": 254.78318375000106,
                    "velocity": 0.30708661417322836,
                    "duration": 0.14621104166667465
                },
                {
                    "name": "E2",
                    "midi": 40,
                    "time": 254.90850750000106,
                    "velocity": 0.3700787401574803,
                    "duration": 0.14621104166667465
                },
                {
                    "name": "F2",
                    "midi": 41,
                    "time": 255.03383125000107,
                    "velocity": 0.30708661417322836,
                    "duration": 0.14621104166667465
                },
                {
                    "name": "E2",
                    "midi": 40,
                    "time": 255.15915500000108,
                    "velocity": 0.3779527559055118,
                    "duration": 0.14621104166667465
                },
                {
                    "name": "F2",
                    "midi": 41,
                    "time": 255.28447875000109,
                    "velocity": 0.31496062992125984,
                    "duration": 0.14621104166667465
                },
                {
                    "name": "E2",
                    "midi": 40,
                    "time": 255.4098025000011,
                    "velocity": 0.3779527559055118,
                    "duration": 0.14621104166667465
                },
                {
                    "name": "F2",
                    "midi": 41,
                    "time": 255.5351262500011,
                    "velocity": 0.33070866141732286,
                    "duration": 0.14621104166667465
                },
                {
                    "name": "E2",
                    "midi": 40,
                    "time": 255.6604500000011,
                    "velocity": 0.3858267716535433,
                    "duration": 0.14621104166667465
                },
                {
                    "name": "F2",
                    "midi": 41,
                    "time": 255.7857737500011,
                    "velocity": 0.33858267716535434,
                    "duration": 0.14621104166667465
                },
                {
                    "name": "E2",
                    "midi": 40,
                    "time": 255.91109750000112,
                    "velocity": 0.4251968503937008,
                    "duration": 0.14621104166667465
                },
                {
                    "name": "F2",
                    "midi": 41,
                    "time": 256.0364212500011,
                    "velocity": 0.3779527559055118,
                    "duration": 0.14621104166667465
                },
                {
                    "name": "E2",
                    "midi": 40,
                    "time": 256.16174500000113,
                    "velocity": 0.4881889763779528,
                    "duration": 0.14621104166667465
                },
                {
                    "name": "F2",
                    "midi": 41,
                    "time": 256.28706875000114,
                    "velocity": 0.49606299212598426,
                    "duration": 0.14621104166667465
                },
                {
                    "name": "E2",
                    "midi": 40,
                    "time": 256.41239250000115,
                    "velocity": 0.5590551181102362,
                    "duration": 0.14621104166667465
                },
                {
                    "name": "G#2",
                    "midi": 44,
                    "time": 256.53771625000115,
                    "velocity": 0.6220472440944882,
                    "duration": 0.14621104166667465
                },
                {
                    "name": "A1",
                    "midi": 33,
                    "time": 256.66304000000116,
                    "velocity": 0.6141732283464567,
                    "duration": 1.0025899999999979
                },
                {
                    "name": "A2",
                    "midi": 45,
                    "time": 256.66304000000116,
                    "velocity": 0.6141732283464567,
                    "duration": 1.0025899999999979
                },
                {
                    "name": "E2",
                    "midi": 40,
                    "time": 257.66563000000116,
                    "velocity": 0.5905511811023622,
                    "duration": 1.0025899999999979
                },
                {
                    "name": "E3",
                    "midi": 52,
                    "time": 257.66563000000116,
                    "velocity": 0.5905511811023622,
                    "duration": 1.0025899999999979
                },
                {
                    "name": "D#2",
                    "midi": 39,
                    "time": 258.66822000000116,
                    "velocity": 0.5669291338582677,
                    "duration": 1.0025899999999979
                },
                {
                    "name": "D#3",
                    "midi": 51,
                    "time": 258.66822000000116,
                    "velocity": 0.5669291338582677,
                    "duration": 1.0025899999999979
                },
                {
                    "name": "E2",
                    "midi": 40,
                    "time": 259.67081000000115,
                    "velocity": 0.5275590551181102,
                    "duration": 0.2506475000000137
                },
                {
                    "name": "E3",
                    "midi": 52,
                    "time": 259.67081000000115,
                    "velocity": 0.5275590551181102,
                    "duration": 0.2506475000000137
                },
                {
                    "name": "E3",
                    "midi": 52,
                    "time": 260.1721050000012,
                    "velocity": 0.3779527559055118,
                    "duration": 0.2506475000000137
                },
                {
                    "name": "E4",
                    "midi": 64,
                    "time": 260.1721050000012,
                    "velocity": 0.3779527559055118,
                    "duration": 0.2506475000000137
                },
                {
                    "name": "D3",
                    "midi": 50,
                    "time": 260.5480762500012,
                    "velocity": 0.36220472440944884,
                    "duration": 0.09399281250000513
                },
                {
                    "name": "D4",
                    "midi": 62,
                    "time": 260.5480762500012,
                    "velocity": 0.36220472440944884,
                    "duration": 0.09399281250000513
                },
                {
                    "name": "C3",
                    "midi": 48,
                    "time": 260.6734000000012,
                    "velocity": 0.3779527559055118,
                    "duration": 0.25064749999995684
                },
                {
                    "name": "C4",
                    "midi": 60,
                    "time": 260.6734000000012,
                    "velocity": 0.3779527559055118,
                    "duration": 0.25064749999995684
                },
                {
                    "name": "B2",
                    "midi": 47,
                    "time": 261.0493712500012,
                    "velocity": 0.36220472440944884,
                    "duration": 0.09399281250000513
                },
                {
                    "name": "B3",
                    "midi": 59,
                    "time": 261.0493712500012,
                    "velocity": 0.36220472440944884,
                    "duration": 0.09399281250000513
                },
                {
                    "name": "A2",
                    "midi": 45,
                    "time": 261.1746950000012,
                    "velocity": 0.33858267716535434,
                    "duration": 0.2506475000000137
                },
                {
                    "name": "A3",
                    "midi": 57,
                    "time": 261.1746950000012,
                    "velocity": 0.33858267716535434,
                    "duration": 0.2506475000000137
                },
                {
                    "name": "G#2",
                    "midi": 44,
                    "time": 261.5506662500012,
                    "velocity": 0.33070866141732286,
                    "duration": 0.09399281250000513
                },
                {
                    "name": "G#3",
                    "midi": 56,
                    "time": 261.5506662500012,
                    "velocity": 0.33070866141732286,
                    "duration": 0.09399281250000513
                },
                {
                    "name": "A2",
                    "midi": 45,
                    "time": 261.6759900000012,
                    "velocity": 0.36220472440944884,
                    "duration": 0.2506475000000137
                },
                {
                    "name": "A3",
                    "midi": 57,
                    "time": 261.6759900000012,
                    "velocity": 0.36220472440944884,
                    "duration": 0.2506475000000137
                },
                {
                    "name": "G2",
                    "midi": 43,
                    "time": 262.0519612500012,
                    "velocity": 0.31496062992125984,
                    "duration": 0.09399281250000513
                },
                {
                    "name": "G3",
                    "midi": 55,
                    "time": 262.0519612500012,
                    "velocity": 0.31496062992125984,
                    "duration": 0.09399281250000513
                },
                {
                    "name": "F2",
                    "midi": 41,
                    "time": 262.17728500000123,
                    "velocity": 0.36220472440944884,
                    "duration": 0.2506475000000137
                },
                {
                    "name": "F3",
                    "midi": 53,
                    "time": 262.17728500000123,
                    "velocity": 0.36220472440944884,
                    "duration": 0.2506475000000137
                },
                {
                    "name": "E2",
                    "midi": 40,
                    "time": 262.55325625000125,
                    "velocity": 0.33070866141732286,
                    "duration": 0.09399281250000513
                },
                {
                    "name": "E3",
                    "midi": 52,
                    "time": 262.55325625000125,
                    "velocity": 0.33070866141732286,
                    "duration": 0.09399281250000513
                },
                {
                    "name": "F2",
                    "midi": 41,
                    "time": 262.67858000000126,
                    "velocity": 0.3779527559055118,
                    "duration": 0.2506475000000137
                },
                {
                    "name": "F3",
                    "midi": 53,
                    "time": 262.67858000000126,
                    "velocity": 0.3779527559055118,
                    "duration": 0.2506475000000137
                },
                {
                    "name": "G#2",
                    "midi": 44,
                    "time": 263.0545512500013,
                    "velocity": 0.36220472440944884,
                    "duration": 0.09399281250000513
                },
                {
                    "name": "G#3",
                    "midi": 56,
                    "time": 263.0545512500013,
                    "velocity": 0.36220472440944884,
                    "duration": 0.09399281250000513
                },
                {
                    "name": "A2",
                    "midi": 45,
                    "time": 263.1798750000013,
                    "velocity": 0.3779527559055118,
                    "duration": 0.2506475000000137
                },
                {
                    "name": "A3",
                    "midi": 57,
                    "time": 263.1798750000013,
                    "velocity": 0.3779527559055118,
                    "duration": 0.2506475000000137
                },
                {
                    "name": "B2",
                    "midi": 47,
                    "time": 263.5558462500013,
                    "velocity": 0.36220472440944884,
                    "duration": 0.09399281250000513
                },
                {
                    "name": "B3",
                    "midi": 59,
                    "time": 263.5558462500013,
                    "velocity": 0.36220472440944884,
                    "duration": 0.09399281250000513
                },
                {
                    "name": "C3",
                    "midi": 48,
                    "time": 263.6811700000013,
                    "velocity": 0.4094488188976378,
                    "duration": 0.2506475000000137
                },
                {
                    "name": "C4",
                    "midi": 60,
                    "time": 263.6811700000013,
                    "velocity": 0.4094488188976378,
                    "duration": 0.2506475000000137
                },
                {
                    "name": "D3",
                    "midi": 50,
                    "time": 264.05714125000134,
                    "velocity": 0.3779527559055118,
                    "duration": 0.09399281250000513
                },
                {
                    "name": "D4",
                    "midi": 62,
                    "time": 264.05714125000134,
                    "velocity": 0.3779527559055118,
                    "duration": 0.09399281250000513
                },
                {
                    "name": "C3",
                    "midi": 48,
                    "time": 264.18246500000134,
                    "velocity": 0.41732283464566927,
                    "duration": 0.12532375000000684
                },
                {
                    "name": "C4",
                    "midi": 60,
                    "time": 264.18246500000134,
                    "velocity": 0.41732283464566927,
                    "duration": 0.12532375000000684
                },
                {
                    "name": "A2",
                    "midi": 45,
                    "time": 264.68376000000137,
                    "velocity": 0.7086614173228346,
                    "duration": 1.0025899999999979
                },
                {
                    "name": "D2",
                    "midi": 38,
                    "time": 265.68635000000137,
                    "velocity": 0.6771653543307087,
                    "duration": 1.0025899999999979
                },
                {
                    "name": "A2",
                    "midi": 45,
                    "time": 265.68635000000137,
                    "velocity": 0.6771653543307087,
                    "duration": 1.0025899999999979
                },
                {
                    "name": "C#2",
                    "midi": 37,
                    "time": 266.68894000000137,
                    "velocity": 0.5590551181102362,
                    "duration": 1.0025899999999979
                },
                {
                    "name": "A2",
                    "midi": 45,
                    "time": 266.68894000000137,
                    "velocity": 0.5590551181102362,
                    "duration": 1.2532375000000116
                },
                {
                    "name": "D2",
                    "midi": 38,
                    "time": 267.69153000000136,
                    "velocity": 0.5590551181102362,
                    "duration": 0.2506475000000137
                },
                {
                    "name": "A3",
                    "midi": 57,
                    "time": 268.1928250000014,
                    "velocity": 0.41732283464566927,
                    "duration": 0.2506475000000137
                },
                {
                    "name": "A4",
                    "midi": 69,
                    "time": 268.1928250000014,
                    "velocity": 0.41732283464566927,
                    "duration": 0.2506475000000137
                },
                {
                    "name": "G3",
                    "midi": 55,
                    "time": 268.5687962500014,
                    "velocity": 0.4094488188976378,
                    "duration": 0.09399281250000513
                },
                {
                    "name": "G4",
                    "midi": 67,
                    "time": 268.5687962500014,
                    "velocity": 0.4094488188976378,
                    "duration": 0.09399281250000513
                },
                {
                    "name": "F3",
                    "midi": 53,
                    "time": 268.6941200000014,
                    "velocity": 0.3779527559055118,
                    "duration": 0.2506475000000137
                },
                {
                    "name": "F4",
                    "midi": 65,
                    "time": 268.6941200000014,
                    "velocity": 0.3779527559055118,
                    "duration": 0.2506475000000137
                },
                {
                    "name": "E3",
                    "midi": 52,
                    "time": 269.07009125000144,
                    "velocity": 0.36220472440944884,
                    "duration": 0.09399281250000513
                },
                {
                    "name": "E4",
                    "midi": 64,
                    "time": 269.07009125000144,
                    "velocity": 0.36220472440944884,
                    "duration": 0.09399281250000513
                },
                {
                    "name": "D3",
                    "midi": 50,
                    "time": 269.19541500000145,
                    "velocity": 0.33858267716535434,
                    "duration": 0.25064749999995684
                },
                {
                    "name": "D4",
                    "midi": 62,
                    "time": 269.19541500000145,
                    "velocity": 0.33858267716535434,
                    "duration": 0.25064749999995684
                },
                {
                    "name": "C#3",
                    "midi": 49,
                    "time": 269.5713862500014,
                    "velocity": 0.33070866141732286,
                    "duration": 0.09399281250000513
                },
                {
                    "name": "C#4",
                    "midi": 61,
                    "time": 269.5713862500014,
                    "velocity": 0.33070866141732286,
                    "duration": 0.09399281250000513
                },
                {
                    "name": "D3",
                    "midi": 50,
                    "time": 269.6967100000014,
                    "velocity": 0.36220472440944884,
                    "duration": 0.25064749999995684
                },
                {
                    "name": "D4",
                    "midi": 62,
                    "time": 269.6967100000014,
                    "velocity": 0.36220472440944884,
                    "duration": 0.25064749999995684
                },
                {
                    "name": "C3",
                    "midi": 48,
                    "time": 270.0726812500014,
                    "velocity": 0.31496062992125984,
                    "duration": 0.09399281250000513
                },
                {
                    "name": "C4",
                    "midi": 60,
                    "time": 270.0726812500014,
                    "velocity": 0.31496062992125984,
                    "duration": 0.09399281250000513
                },
                {
                    "name": "A#2",
                    "midi": 46,
                    "time": 270.1980050000014,
                    "velocity": 0.36220472440944884,
                    "duration": 0.2506475000000137
                },
                {
                    "name": "A#3",
                    "midi": 58,
                    "time": 270.1980050000014,
                    "velocity": 0.36220472440944884,
                    "duration": 0.2506475000000137
                },
                {
                    "name": "A2",
                    "midi": 45,
                    "time": 270.5739762500014,
                    "velocity": 0.33070866141732286,
                    "duration": 0.09399281250000513
                },
                {
                    "name": "A3",
                    "midi": 57,
                    "time": 270.5739762500014,
                    "velocity": 0.33070866141732286,
                    "duration": 0.09399281250000513
                },
                {
                    "name": "A#2",
                    "midi": 46,
                    "time": 270.6993000000014,
                    "velocity": 0.3779527559055118,
                    "duration": 0.2506475000000137
                },
                {
                    "name": "A#3",
                    "midi": 58,
                    "time": 270.6993000000014,
                    "velocity": 0.3779527559055118,
                    "duration": 0.2506475000000137
                },
                {
                    "name": "C#3",
                    "midi": 49,
                    "time": 271.07527125000144,
                    "velocity": 0.36220472440944884,
                    "duration": 0.09399281250000513
                },
                {
                    "name": "C#4",
                    "midi": 61,
                    "time": 271.07527125000144,
                    "velocity": 0.36220472440944884,
                    "duration": 0.09399281250000513
                },
                {
                    "name": "D3",
                    "midi": 50,
                    "time": 271.20059500000144,
                    "velocity": 0.3779527559055118,
                    "duration": 0.2506475000000137
                },
                {
                    "name": "D4",
                    "midi": 62,
                    "time": 271.20059500000144,
                    "velocity": 0.3779527559055118,
                    "duration": 0.2506475000000137
                },
                {
                    "name": "E3",
                    "midi": 52,
                    "time": 271.57656625000146,
                    "velocity": 0.36220472440944884,
                    "duration": 0.09399281250000513
                },
                {
                    "name": "E4",
                    "midi": 64,
                    "time": 271.57656625000146,
                    "velocity": 0.36220472440944884,
                    "duration": 0.09399281250000513
                },
                {
                    "name": "F3",
                    "midi": 53,
                    "time": 271.70189000000147,
                    "velocity": 0.4094488188976378,
                    "duration": 0.25064749999995684
                },
                {
                    "name": "F4",
                    "midi": 65,
                    "time": 271.70189000000147,
                    "velocity": 0.4094488188976378,
                    "duration": 0.25064749999995684
                },
                {
                    "name": "G3",
                    "midi": 55,
                    "time": 272.07786125000143,
                    "velocity": 0.3779527559055118,
                    "duration": 0.09399281250000513
                },
                {
                    "name": "G4",
                    "midi": 67,
                    "time": 272.07786125000143,
                    "velocity": 0.3779527559055118,
                    "duration": 0.09399281250000513
                },
                {
                    "name": "F3",
                    "midi": 53,
                    "time": 272.20318500000144,
                    "velocity": 0.41732283464566927,
                    "duration": 0.12532375000000684
                },
                {
                    "name": "F4",
                    "midi": 65,
                    "time": 272.20318500000144,
                    "velocity": 0.41732283464566927,
                    "duration": 0.12532375000000684
                },
                {
                    "name": "D3",
                    "midi": 50,
                    "time": 272.70448000000147,
                    "velocity": 0.6929133858267716,
                    "duration": 1.0025899999999979
                },
                {
                    "name": "G3",
                    "midi": 55,
                    "time": 272.70448000000147,
                    "velocity": 0.6929133858267716,
                    "duration": 1.0025899999999979
                },
                {
                    "name": "A#3",
                    "midi": 58,
                    "time": 272.70448000000147,
                    "velocity": 0.7716535433070866,
                    "duration": 1.0025899999999979
                },
                {
                    "name": "D4",
                    "midi": 62,
                    "time": 272.70448000000147,
                    "velocity": 0.7716535433070866,
                    "duration": 1.0025899999999979
                },
                {
                    "name": "D2",
                    "midi": 38,
                    "time": 273.70707000000147,
                    "velocity": 0.5669291338582677,
                    "duration": 0.18798562500001026
                },
                {
                    "name": "D3",
                    "midi": 50,
                    "time": 273.70707000000147,
                    "velocity": 0.6377952755905512,
                    "duration": 0.18798562500001026
                },
                {
                    "name": "D3",
                    "midi": 50,
                    "time": 274.70966000000146,
                    "velocity": 0.6850393700787402,
                    "duration": 1.0025899999999979
                },
                {
                    "name": "F3",
                    "midi": 53,
                    "time": 274.70966000000146,
                    "velocity": 0.6850393700787402,
                    "duration": 1.0025899999999979
                },
                {
                    "name": "A3",
                    "midi": 57,
                    "time": 274.70966000000146,
                    "velocity": 0.7637795275590551,
                    "duration": 1.0025899999999979
                },
                {
                    "name": "D4",
                    "midi": 62,
                    "time": 274.70966000000146,
                    "velocity": 0.7637795275590551,
                    "duration": 0.999456906249975
                },
                {
                    "name": "D2",
                    "midi": 38,
                    "time": 275.71225000000146,
                    "velocity": 0.5669291338582677,
                    "duration": 0.18798562500001026
                },
                {
                    "name": "D3",
                    "midi": 50,
                    "time": 275.71225000000146,
                    "velocity": 0.6377952755905512,
                    "duration": 0.18798562500001026
                },
                {
                    "name": "D3",
                    "midi": 50,
                    "time": 276.71484000000146,
                    "velocity": 0.5905511811023622,
                    "duration": 1.0025899999999979
                },
                {
                    "name": "G3",
                    "midi": 55,
                    "time": 276.71484000000146,
                    "velocity": 0.5905511811023622,
                    "duration": 1.0025899999999979
                },
                {
                    "name": "A#3",
                    "midi": 58,
                    "time": 276.71484000000146,
                    "velocity": 0.6614173228346457,
                    "duration": 1.0025899999999979
                },
                {
                    "name": "D4",
                    "midi": 62,
                    "time": 276.71484000000146,
                    "velocity": 0.6614173228346457,
                    "duration": 1.0025899999999979
                },
                {
                    "name": "D2",
                    "midi": 38,
                    "time": 277.71743000000146,
                    "velocity": 0.4881889763779528,
                    "duration": 0.18798562500001026
                },
                {
                    "name": "D3",
                    "midi": 50,
                    "time": 277.71743000000146,
                    "velocity": 0.5433070866141733,
                    "duration": 0.18798562500001026
                },
                {
                    "name": "D3",
                    "midi": 50,
                    "time": 278.7200200000015,
                    "velocity": 0.5748031496062992,
                    "duration": 1.0025899999999979
                },
                {
                    "name": "F3",
                    "midi": 53,
                    "time": 278.7200200000015,
                    "velocity": 0.5748031496062992,
                    "duration": 1.0025899999999979
                },
                {
                    "name": "A3",
                    "midi": 57,
                    "time": 278.7200200000015,
                    "velocity": 0.6456692913385826,
                    "duration": 1.0025899999999979
                },
                {
                    "name": "D4",
                    "midi": 62,
                    "time": 278.7200200000015,
                    "velocity": 0.6456692913385826,
                    "duration": 0.999456906249975
                },
                {
                    "name": "D2",
                    "midi": 38,
                    "time": 279.7226100000015,
                    "velocity": 0.5196850393700787,
                    "duration": 0.20887291666667807
                },
                {
                    "name": "D3",
                    "midi": 50,
                    "time": 279.7226100000015,
                    "velocity": 0.5826771653543307,
                    "duration": 0.20887291666667807
                },
                {
                    "name": "D3",
                    "midi": 50,
                    "time": 280.7252000000015,
                    "velocity": 0.5748031496062992,
                    "duration": 1.0025899999999979
                },
                {
                    "name": "G3",
                    "midi": 55,
                    "time": 280.7252000000015,
                    "velocity": 0.5748031496062992,
                    "duration": 1.0025899999999979
                },
                {
                    "name": "A#3",
                    "midi": 58,
                    "time": 280.7252000000015,
                    "velocity": 0.6456692913385826,
                    "duration": 1.0025899999999979
                },
                {
                    "name": "D4",
                    "midi": 62,
                    "time": 280.7252000000015,
                    "velocity": 0.6456692913385826,
                    "duration": 0.999456906249975
                },
                {
                    "name": "D2",
                    "midi": 38,
                    "time": 281.7277900000015,
                    "velocity": 0.5196850393700787,
                    "duration": 0.20887291666662122
                },
                {
                    "name": "D3",
                    "midi": 50,
                    "time": 281.7277900000015,
                    "velocity": 0.5826771653543307,
                    "duration": 0.20887291666662122
                },
                {
                    "name": "D3",
                    "midi": 50,
                    "time": 282.73038000000145,
                    "velocity": 0.5826771653543307,
                    "duration": 1.0025900000000547
                },
                {
                    "name": "F3",
                    "midi": 53,
                    "time": 282.73038000000145,
                    "velocity": 0.5826771653543307,
                    "duration": 1.0025900000000547
                },
                {
                    "name": "A3",
                    "midi": 57,
                    "time": 282.73038000000145,
                    "velocity": 0.6535433070866141,
                    "duration": 1.0025900000000547
                },
                {
                    "name": "D4",
                    "midi": 62,
                    "time": 282.73038000000145,
                    "velocity": 0.6535433070866141,
                    "duration": 0.9994569062500318
                },
                {
                    "name": "D2",
                    "midi": 38,
                    "time": 283.7329700000015,
                    "velocity": 0.5118110236220472,
                    "duration": 0.20887291666667807
                },
                {
                    "name": "D3",
                    "midi": 50,
                    "time": 283.7329700000015,
                    "velocity": 0.5748031496062992,
                    "duration": 0.20887291666667807
                },
                {
                    "name": "D3",
                    "midi": 50,
                    "time": 284.7355600000015,
                    "velocity": 0.5905511811023622,
                    "duration": 1.0025899999999979
                },
                {
                    "name": "G3",
                    "midi": 55,
                    "time": 284.7355600000015,
                    "velocity": 0.5905511811023622,
                    "duration": 1.0025899999999979
                },
                {
                    "name": "A#3",
                    "midi": 58,
                    "time": 284.7355600000015,
                    "velocity": 0.6614173228346457,
                    "duration": 1.0025899999999979
                },
                {
                    "name": "D4",
                    "midi": 62,
                    "time": 284.7355600000015,
                    "velocity": 0.6614173228346457,
                    "duration": 1.0025899999999979
                },
                {
                    "name": "D2",
                    "midi": 38,
                    "time": 285.7381500000015,
                    "velocity": 0.5196850393700787,
                    "duration": 0.18798562500001026
                },
                {
                    "name": "D3",
                    "midi": 50,
                    "time": 285.7381500000015,
                    "velocity": 0.5826771653543307,
                    "duration": 0.18798562500001026
                },
                {
                    "name": "D3",
                    "midi": 50,
                    "time": 286.7407400000015,
                    "velocity": 0.5905511811023622,
                    "duration": 1.0025899999999979
                },
                {
                    "name": "F3",
                    "midi": 53,
                    "time": 286.7407400000015,
                    "velocity": 0.5905511811023622,
                    "duration": 1.0025899999999979
                },
                {
                    "name": "A3",
                    "midi": 57,
                    "time": 286.7407400000015,
                    "velocity": 0.6614173228346457,
                    "duration": 1.0025899999999979
                },
                {
                    "name": "D4",
                    "midi": 62,
                    "time": 286.7407400000015,
                    "velocity": 0.6614173228346457,
                    "duration": 0.999456906249975
                },
                {
                    "name": "D2",
                    "midi": 38,
                    "time": 287.7433300000015,
                    "velocity": 0.5196850393700787,
                    "duration": 0.20887291666667807
                },
                {
                    "name": "D3",
                    "midi": 50,
                    "time": 287.7433300000015,
                    "velocity": 0.5826771653543307,
                    "duration": 0.20887291666667807
                },
                {
                    "name": "C3",
                    "midi": 48,
                    "time": 288.7459200000015,
                    "velocity": 0.5669291338582677,
                    "duration": 1.0025899999999979
                },
                {
                    "name": "E3",
                    "midi": 52,
                    "time": 288.7459200000015,
                    "velocity": 0.5669291338582677,
                    "duration": 1.0025899999999979
                },
                {
                    "name": "A3",
                    "midi": 57,
                    "time": 288.7459200000015,
                    "velocity": 0.6377952755905512,
                    "duration": 1.0025899999999979
                },
                {
                    "name": "C4",
                    "midi": 60,
                    "time": 288.7459200000015,
                    "velocity": 0.6377952755905512,
                    "duration": 1.0025899999999979
                },
                {
                    "name": "C2",
                    "midi": 36,
                    "time": 289.7485100000015,
                    "velocity": 0.49606299212598426,
                    "duration": 0.18798562500001026
                },
                {
                    "name": "C3",
                    "midi": 48,
                    "time": 289.7485100000015,
                    "velocity": 0.5590551181102362,
                    "duration": 0.18798562500001026
                },
                {
                    "name": "B2",
                    "midi": 47,
                    "time": 290.75110000000154,
                    "velocity": 0.5984251968503937,
                    "duration": 0.9608154166666054
                },
                {
                    "name": "G#3",
                    "midi": 56,
                    "time": 290.75110000000154,
                    "velocity": 0.6692913385826772,
                    "duration": 0.9608154166666054
                },
                {
                    "name": "B3",
                    "midi": 59,
                    "time": 290.75110000000154,
                    "velocity": 0.6692913385826772,
                    "duration": 0.9608154166666054
                },
                {
                    "name": "E4",
                    "midi": 64,
                    "time": 291.7536900000015,
                    "velocity": 0.6692913385826772,
                    "duration": 0.9608154166666623
                },
                {
                    "name": "G#3",
                    "midi": 56,
                    "time": 291.7536900000015,
                    "velocity": 0.6692913385826772,
                    "duration": 0.9608154166666623
                },
                {
                    "name": "E3",
                    "midi": 52,
                    "time": 291.7536900000015,
                    "velocity": 0.5984251968503937,
                    "duration": 0.9608154166666623
                },
                {
                    "name": "C3",
                    "midi": 48,
                    "time": 292.7562800000015,
                    "velocity": 0.5748031496062992,
                    "duration": 1.0025899999999979
                },
                {
                    "name": "C4",
                    "midi": 60,
                    "time": 292.7562800000015,
                    "velocity": 0.6456692913385826,
                    "duration": 1.0025899999999979
                },
                {
                    "name": "A2",
                    "midi": 45,
                    "time": 293.7588700000015,
                    "velocity": 0.5118110236220472,
                    "duration": 0.20887291666667807
                },
                {
                    "name": "A3",
                    "midi": 57,
                    "time": 293.7588700000015,
                    "velocity": 0.5748031496062992,
                    "duration": 0.20887291666667807
                },
                {
                    "name": "B1",
                    "midi": 35,
                    "time": 294.7614600000015,
                    "velocity": 0.31496062992125984,
                    "duration": 0.9608154166666623
                },
                {
                    "name": "G#2",
                    "midi": 44,
                    "time": 294.7614600000015,
                    "velocity": 0.31496062992125984,
                    "duration": 0.9608154166666623
                },
                {
                    "name": "B2",
                    "midi": 47,
                    "time": 294.7614600000015,
                    "velocity": 0.31496062992125984,
                    "duration": 0.9608154166666623
                },
                {
                    "name": "E2",
                    "midi": 40,
                    "time": 295.7640500000015,
                    "velocity": 0.29133858267716534,
                    "duration": 0.9608154166666623
                },
                {
                    "name": "G#2",
                    "midi": 44,
                    "time": 295.7640500000015,
                    "velocity": 0.29133858267716534,
                    "duration": 0.9608154166666623
                },
                {
                    "name": "E3",
                    "midi": 52,
                    "time": 295.7640500000015,
                    "velocity": 0.29133858267716534,
                    "duration": 0.9608154166666623
                },
                {
                    "name": "C2",
                    "midi": 36,
                    "time": 296.7666400000015,
                    "velocity": 0.29133858267716534,
                    "duration": 1.0025900000000547
                },
                {
                    "name": "C3",
                    "midi": 48,
                    "time": 296.7666400000015,
                    "velocity": 0.29133858267716534,
                    "duration": 1.0025900000000547
                },
                {
                    "name": "A1",
                    "midi": 33,
                    "time": 297.7692300000015,
                    "velocity": 0.29133858267716534,
                    "duration": 0.18798562500001026
                },
                {
                    "name": "A2",
                    "midi": 45,
                    "time": 297.7692300000015,
                    "velocity": 0.29133858267716534,
                    "duration": 0.18798562500001026
                },
                {
                    "name": "A#1",
                    "midi": 34,
                    "time": 298.7718200000015,
                    "velocity": 0.2440944881889764,
                    "duration": 1.0025899999999979
                },
                {
                    "name": "A#2",
                    "midi": 46,
                    "time": 298.7718200000015,
                    "velocity": 0.2440944881889764,
                    "duration": 1.0025899999999979
                },
                {
                    "name": "G1",
                    "midi": 31,
                    "time": 299.7744100000015,
                    "velocity": 0.1889763779527559,
                    "duration": 0.18798562500001026
                },
                {
                    "name": "G2",
                    "midi": 43,
                    "time": 299.7744100000015,
                    "velocity": 0.1889763779527559,
                    "duration": 0.18798562500001026
                },
                {
                    "name": "A#1",
                    "midi": 34,
                    "time": 300.7770000000015,
                    "velocity": 0.23622047244094488,
                    "duration": 1.0025899999999979
                },
                {
                    "name": "A#2",
                    "midi": 46,
                    "time": 300.7770000000015,
                    "velocity": 0.23622047244094488,
                    "duration": 1.0025899999999979
                },
                {
                    "name": "G1",
                    "midi": 31,
                    "time": 301.7795900000015,
                    "velocity": 0.1732283464566929,
                    "duration": 0.18798562500001026
                },
                {
                    "name": "G2",
                    "midi": 43,
                    "time": 301.7795900000015,
                    "velocity": 0.1732283464566929,
                    "duration": 0.18798562500001026
                },
                {
                    "name": "A#1",
                    "midi": 34,
                    "time": 302.7821800000015,
                    "velocity": 0.23622047244094488,
                    "duration": 1.0025899999999979
                },
                {
                    "name": "A#2",
                    "midi": 46,
                    "time": 302.7821800000015,
                    "velocity": 0.23622047244094488,
                    "duration": 1.0025899999999979
                },
                {
                    "name": "G1",
                    "midi": 31,
                    "time": 303.7847700000015,
                    "velocity": 0.18110236220472442,
                    "duration": 0.18798562500001026
                },
                {
                    "name": "G2",
                    "midi": 43,
                    "time": 303.7847700000015,
                    "velocity": 0.18110236220472442,
                    "duration": 0.18798562500001026
                },
                {
                    "name": "A#1",
                    "midi": 34,
                    "time": 304.7873600000015,
                    "velocity": 0.2440944881889764,
                    "duration": 1.0025899999999979
                },
                {
                    "name": "A#2",
                    "midi": 46,
                    "time": 304.7873600000015,
                    "velocity": 0.2440944881889764,
                    "duration": 1.0025899999999979
                },
                {
                    "name": "G1",
                    "midi": 31,
                    "time": 305.7899500000015,
                    "velocity": 0.2047244094488189,
                    "duration": 0.18798562499995342
                },
                {
                    "name": "G2",
                    "midi": 43,
                    "time": 305.7899500000015,
                    "velocity": 0.2047244094488189,
                    "duration": 0.18798562499995342
                },
                {
                    "name": "B1",
                    "midi": 35,
                    "time": 306.79254000000145,
                    "velocity": 0.5669291338582677,
                    "duration": 0.12532375000000684
                },
                {
                    "name": "B2",
                    "midi": 47,
                    "time": 306.91786375000146,
                    "velocity": 0.2440944881889764,
                    "duration": 0.12532375000000684
                },
                {
                    "name": "B1",
                    "midi": 35,
                    "time": 307.04318750000147,
                    "velocity": 0.33070866141732286,
                    "duration": 0.12532375000000684
                },
                {
                    "name": "B2",
                    "midi": 47,
                    "time": 307.1685112500015,
                    "velocity": 0.23622047244094488,
                    "duration": 0.12532375000000684
                },
                {
                    "name": "B1",
                    "midi": 35,
                    "time": 307.2938350000015,
                    "velocity": 0.36220472440944884,
                    "duration": 0.12532375000000684
                },
                {
                    "name": "B2",
                    "midi": 47,
                    "time": 307.4191587500015,
                    "velocity": 0.25984251968503935,
                    "duration": 0.12532375000000684
                },
                {
                    "name": "B1",
                    "midi": 35,
                    "time": 307.5444825000015,
                    "velocity": 0.3464566929133858,
                    "duration": 0.12532375000000684
                },
                {
                    "name": "B2",
                    "midi": 47,
                    "time": 307.6698062500015,
                    "velocity": 0.2440944881889764,
                    "duration": 0.12532375000000684
                },
                {
                    "name": "B1",
                    "midi": 35,
                    "time": 307.7951300000015,
                    "velocity": 0.3543307086614173,
                    "duration": 0.12532375000000684
                },
                {
                    "name": "B2",
                    "midi": 47,
                    "time": 307.9204537500015,
                    "velocity": 0.25984251968503935,
                    "duration": 0.12532375000000684
                },
                {
                    "name": "B1",
                    "midi": 35,
                    "time": 308.0457775000015,
                    "velocity": 0.3464566929133858,
                    "duration": 0.12532375000000684
                },
                {
                    "name": "B2",
                    "midi": 47,
                    "time": 308.1711012500015,
                    "velocity": 0.2440944881889764,
                    "duration": 0.12532375000000684
                },
                {
                    "name": "B1",
                    "midi": 35,
                    "time": 308.29642500000153,
                    "velocity": 0.4015748031496063,
                    "duration": 0.12532375000000684
                },
                {
                    "name": "B2",
                    "midi": 47,
                    "time": 308.42174875000154,
                    "velocity": 0.29133858267716534,
                    "duration": 0.12532375000000684
                },
                {
                    "name": "B1",
                    "midi": 35,
                    "time": 308.54707250000155,
                    "velocity": 0.3700787401574803,
                    "duration": 0.12532375000000684
                },
                {
                    "name": "B2",
                    "midi": 47,
                    "time": 308.67239625000155,
                    "velocity": 0.25984251968503935,
                    "duration": 0.12532375000000684
                },
                {
                    "name": "G#1",
                    "midi": 32,
                    "time": 308.79772000000156,
                    "velocity": 0.5826771653543307,
                    "duration": 0.12532375000000684
                },
                {
                    "name": "G#2",
                    "midi": 44,
                    "time": 308.92304375000157,
                    "velocity": 0.29133858267716534,
                    "duration": 0.12532375000000684
                },
                {
                    "name": "G#1",
                    "midi": 32,
                    "time": 309.0483675000016,
                    "velocity": 0.3700787401574803,
                    "duration": 0.12532375000000684
                },
                {
                    "name": "G#2",
                    "midi": 44,
                    "time": 309.1736912500016,
                    "velocity": 0.29133858267716534,
                    "duration": 0.12532375000000684
                },
                {
                    "name": "G#1",
                    "midi": 32,
                    "time": 309.2990150000016,
                    "velocity": 0.4094488188976378,
                    "duration": 0.12532375000000684
                },
                {
                    "name": "G#2",
                    "midi": 44,
                    "time": 309.4243387500016,
                    "velocity": 0.30708661417322836,
                    "duration": 0.12532375000000684
                },
                {
                    "name": "G#1",
                    "midi": 32,
                    "time": 309.5496625000016,
                    "velocity": 0.3858267716535433,
                    "duration": 0.12532375000000684
                },
                {
                    "name": "G#2",
                    "midi": 44,
                    "time": 309.6749862500016,
                    "velocity": 0.2992125984251969,
                    "duration": 0.12532375000000684
                },
                {
                    "name": "G#1",
                    "midi": 32,
                    "time": 309.8003100000016,
                    "velocity": 0.4330708661417323,
                    "duration": 0.12532375000000684
                },
                {
                    "name": "G#2",
                    "midi": 44,
                    "time": 309.9256337500016,
                    "velocity": 0.30708661417322836,
                    "duration": 0.12532375000000684
                },
                {
                    "name": "G#1",
                    "midi": 32,
                    "time": 310.05095750000163,
                    "velocity": 0.4015748031496063,
                    "duration": 0.12532375000000684
                },
                {
                    "name": "G#2",
                    "midi": 44,
                    "time": 310.17628125000164,
                    "velocity": 0.30708661417322836,
                    "duration": 0.12532375000000684
                },
                {
                    "name": "G#1",
                    "midi": 32,
                    "time": 310.30160500000164,
                    "velocity": 0.5196850393700787,
                    "duration": 0.12532375000000684
                },
                {
                    "name": "G#2",
                    "midi": 44,
                    "time": 310.42692875000165,
                    "velocity": 0.4094488188976378,
                    "duration": 0.12532375000000684
                },
                {
                    "name": "G#1",
                    "midi": 32,
                    "time": 310.55225250000166,
                    "velocity": 0.44881889763779526,
                    "duration": 0.12532375000000684
                },
                {
                    "name": "G#2",
                    "midi": 44,
                    "time": 310.67757625000166,
                    "velocity": 0.36220472440944884,
                    "duration": 0.12532375000000684
                },
                {
                    "name": "B2",
                    "midi": 47,
                    "time": 310.80290000000167,
                    "velocity": 0.6220472440944882,
                    "duration": 0.5012950000000274
                },
                {
                    "name": "B3",
                    "midi": 59,
                    "time": 310.80290000000167,
                    "velocity": 0.6220472440944882,
                    "duration": 0.5012950000000274
                },
                {
                    "name": "G#2",
                    "midi": 44,
                    "time": 311.3041950000017,
                    "velocity": 0.5433070866141733,
                    "duration": 0.18798562500001026
                },
                {
                    "name": "G#3",
                    "midi": 56,
                    "time": 311.3041950000017,
                    "velocity": 0.5433070866141733,
                    "duration": 0.18798562500001026
                },
                {
                    "name": "B2",
                    "midi": 47,
                    "time": 311.8054900000017,
                    "velocity": 0.6220472440944882,
                    "duration": 0.5012950000000274
                },
                {
                    "name": "B3",
                    "midi": 59,
                    "time": 311.8054900000017,
                    "velocity": 0.6220472440944882,
                    "duration": 0.5012950000000274
                },
                {
                    "name": "E4",
                    "midi": 64,
                    "time": 312.30678500000175,
                    "velocity": 0.5433070866141733,
                    "duration": 0.18798562500001026
                },
                {
                    "name": "E3",
                    "midi": 52,
                    "time": 312.30678500000175,
                    "velocity": 0.5433070866141733,
                    "duration": 0.18798562500001026
                },
                {
                    "name": "B2",
                    "midi": 47,
                    "time": 312.8080800000018,
                    "velocity": 0.5511811023622047,
                    "duration": 0.5012949999999705
                },
                {
                    "name": "B3",
                    "midi": 59,
                    "time": 312.8080800000018,
                    "velocity": 0.5511811023622047,
                    "duration": 0.5012949999999705
                },
                {
                    "name": "G#2",
                    "midi": 44,
                    "time": 313.30937500000175,
                    "velocity": 0.49606299212598426,
                    "duration": 0.18798562500001026
                },
                {
                    "name": "G#3",
                    "midi": 56,
                    "time": 313.30937500000175,
                    "velocity": 0.49606299212598426,
                    "duration": 0.18798562500001026
                },
                {
                    "name": "E3",
                    "midi": 52,
                    "time": 313.8106700000018,
                    "velocity": 0.4251968503937008,
                    "duration": 0.5012949999999705
                },
                {
                    "name": "E2",
                    "midi": 40,
                    "time": 313.8106700000018,
                    "velocity": 0.4251968503937008,
                    "duration": 0.5012949999999705
                },
                {
                    "name": "B2",
                    "midi": 47,
                    "time": 314.31196500000175,
                    "velocity": 0.3464566929133858,
                    "duration": 0.18798562500001026
                },
                {
                    "name": "B1",
                    "midi": 35,
                    "time": 314.31196500000175,
                    "velocity": 0.3464566929133858,
                    "duration": 0.18798562500001026
                },
                {
                    "name": "B1",
                    "midi": 35,
                    "time": 314.8132600000018,
                    "velocity": 0.2125984251968504,
                    "duration": 4.010360000000048
                },
                {
                    "name": "B2",
                    "midi": 47,
                    "time": 314.8132600000018,
                    "velocity": 0.2125984251968504,
                    "duration": 4.010360000000048
                },
                {
                    "name": "B1",
                    "midi": 35,
                    "time": 318.8236200000018,
                    "velocity": 0.6377952755905512,
                    "duration": 0.12532375000000684
                },
                {
                    "name": "B2",
                    "midi": 47,
                    "time": 318.94894375000183,
                    "velocity": 0.2992125984251969,
                    "duration": 0.12532375000000684
                },
                {
                    "name": "B1",
                    "midi": 35,
                    "time": 319.07426750000184,
                    "velocity": 0.4566929133858268,
                    "duration": 0.12532375000000684
                },
                {
                    "name": "B2",
                    "midi": 47,
                    "time": 319.19959125000184,
                    "velocity": 0.2992125984251969,
                    "duration": 0.12532375000000684
                },
                {
                    "name": "G#1",
                    "midi": 32,
                    "time": 319.32491500000185,
                    "velocity": 0.5669291338582677,
                    "duration": 0.12532375000000684
                },
                {
                    "name": "G#2",
                    "midi": 44,
                    "time": 319.45023875000186,
                    "velocity": 0.2992125984251969,
                    "duration": 0.12532375000000684
                },
                {
                    "name": "G#1",
                    "midi": 32,
                    "time": 319.57556250000187,
                    "velocity": 0.44881889763779526,
                    "duration": 0.12532375000000684
                },
                {
                    "name": "G#2",
                    "midi": 44,
                    "time": 319.7008862500019,
                    "velocity": 0.2992125984251969,
                    "duration": 0.12532375000000684
                },
                {
                    "name": "B1",
                    "midi": 35,
                    "time": 319.8262100000019,
                    "velocity": 0.5669291338582677,
                    "duration": 0.12532375000000684
                },
                {
                    "name": "B2",
                    "midi": 47,
                    "time": 319.9515337500019,
                    "velocity": 0.31496062992125984,
                    "duration": 0.12532375000000684
                },
                {
                    "name": "B1",
                    "midi": 35,
                    "time": 320.0768575000019,
                    "velocity": 0.47244094488188976,
                    "duration": 0.12532375000000684
                },
                {
                    "name": "B2",
                    "midi": 47,
                    "time": 320.2021812500019,
                    "velocity": 0.3228346456692913,
                    "duration": 0.12532375000000684
                },
                {
                    "name": "E2",
                    "midi": 40,
                    "time": 320.3275050000019,
                    "velocity": 0.5669291338582677,
                    "duration": 0.12532375000000684
                },
                {
                    "name": "E3",
                    "midi": 52,
                    "time": 320.4528287500019,
                    "velocity": 0.3543307086614173,
                    "duration": 0.12532375000000684
                },
                {
                    "name": "E2",
                    "midi": 40,
                    "time": 320.5781525000019,
                    "velocity": 0.48031496062992124,
                    "duration": 0.12532375000000684
                },
                {
                    "name": "E3",
                    "midi": 52,
                    "time": 320.7034762500019,
                    "velocity": 0.3543307086614173,
                    "duration": 0.12532375000000684
                },
                {
                    "name": "G#2",
                    "midi": 44,
                    "time": 320.82880000000193,
                    "velocity": 0.6062992125984252,
                    "duration": 0.12532375000000684
                },
                {
                    "name": "G#3",
                    "midi": 56,
                    "time": 320.95412375000194,
                    "velocity": 0.3858267716535433,
                    "duration": 0.12532375000000684
                },
                {
                    "name": "G#2",
                    "midi": 44,
                    "time": 321.07944750000195,
                    "velocity": 0.5196850393700787,
                    "duration": 0.12532375000000684
                },
                {
                    "name": "G#3",
                    "midi": 56,
                    "time": 321.20477125000195,
                    "velocity": 0.4015748031496063,
                    "duration": 0.12532375000000684
                },
                {
                    "name": "B2",
                    "midi": 47,
                    "time": 321.33009500000196,
                    "velocity": 0.6220472440944882,
                    "duration": 0.12532375000000684
                },
                {
                    "name": "B3",
                    "midi": 59,
                    "time": 321.45541875000197,
                    "velocity": 0.41732283464566927,
                    "duration": 0.12532375000000684
                },
                {
                    "name": "B2",
                    "midi": 47,
                    "time": 321.580742500002,
                    "velocity": 0.5669291338582677,
                    "duration": 0.12532375000000684
                },
                {
                    "name": "B3",
                    "midi": 59,
                    "time": 321.706066250002,
                    "velocity": 0.4330708661417323,
                    "duration": 0.12532375000000684
                },
                {
                    "name": "E3",
                    "midi": 52,
                    "time": 321.831390000002,
                    "velocity": 0.6929133858267716,
                    "duration": 0.12532375000000684
                },
                {
                    "name": "E4",
                    "midi": 64,
                    "time": 321.956713750002,
                    "velocity": 0.44881889763779526,
                    "duration": 0.12532375000000684
                },
                {
                    "name": "E3",
                    "midi": 52,
                    "time": 322.082037500002,
                    "velocity": 0.5826771653543307,
                    "duration": 0.12532375000000684
                },
                {
                    "name": "E4",
                    "midi": 64,
                    "time": 322.207361250002,
                    "velocity": 0.44881889763779526,
                    "duration": 0.12532375000000684
                },
                {
                    "name": "B2",
                    "midi": 47,
                    "time": 322.332685000002,
                    "velocity": 0.5748031496062992,
                    "duration": 0.12532375000000684
                },
                {
                    "name": "B3",
                    "midi": 59,
                    "time": 322.458008750002,
                    "velocity": 0.3779527559055118,
                    "duration": 0.12532375000000684
                },
                {
                    "name": "B2",
                    "midi": 47,
                    "time": 322.58333250000203,
                    "velocity": 0.4566929133858268,
                    "duration": 0.12532375000000684
                },
                {
                    "name": "B3",
                    "midi": 59,
                    "time": 322.70865625000204,
                    "velocity": 0.3700787401574803,
                    "duration": 0.12532375000000684
                },
                {
                    "name": "B1",
                    "midi": 35,
                    "time": 322.83398000000204,
                    "velocity": 0.2204724409448819,
                    "duration": 4.0103599999999915
                },
                {
                    "name": "B2",
                    "midi": 47,
                    "time": 322.83398000000204,
                    "velocity": 0.2204724409448819,
                    "duration": 4.0103599999999915
                },
                {
                    "name": "B2",
                    "midi": 47,
                    "time": 326.84434000000203,
                    "velocity": 0.15748031496062992,
                    "duration": 0.9608154166666623
                },
                {
                    "name": "E2",
                    "midi": 40,
                    "time": 326.84434000000203,
                    "velocity": 0.15748031496062992,
                    "duration": 0.9608154166666623
                },
                {
                    "name": "E2",
                    "midi": 40,
                    "time": 327.84693000000203,
                    "velocity": 0.13385826771653545,
                    "duration": 0.877266249999991
                },
                {
                    "name": "B2",
                    "midi": 47,
                    "time": 327.84693000000203,
                    "velocity": 0.13385826771653545,
                    "duration": 0.877266249999991
                },
                {
                    "name": "B2",
                    "midi": 47,
                    "time": 328.84952000000203,
                    "velocity": 0.15748031496062992,
                    "duration": 0.49085135416669345
                },
                {
                    "name": "E2",
                    "midi": 40,
                    "time": 328.84952000000203,
                    "velocity": 0.15748031496062992,
                    "duration": 0.49085135416669345
                },
                {
                    "name": "B2",
                    "midi": 47,
                    "time": 329.35081500000206,
                    "velocity": 0.12598425196850394,
                    "duration": 0.49085135416669345
                },
                {
                    "name": "E2",
                    "midi": 40,
                    "time": 329.35081500000206,
                    "velocity": 0.12598425196850394,
                    "duration": 0.49085135416669345
                },
                {
                    "name": "E2",
                    "midi": 40,
                    "time": 329.8521100000021,
                    "velocity": 0.14960629921259844,
                    "duration": 0.49085135416669345
                },
                {
                    "name": "B2",
                    "midi": 47,
                    "time": 329.8521100000021,
                    "velocity": 0.14960629921259844,
                    "duration": 0.49085135416669345
                },
                {
                    "name": "E2",
                    "midi": 40,
                    "time": 330.3534050000021,
                    "velocity": 0.11811023622047244,
                    "duration": 0.49085135416669345
                },
                {
                    "name": "B2",
                    "midi": 47,
                    "time": 330.3534050000021,
                    "velocity": 0.11811023622047244,
                    "duration": 0.49085135416669345
                },
                {
                    "name": "E2",
                    "midi": 40,
                    "time": 330.85470000000214,
                    "velocity": 0.18110236220472442,
                    "duration": 0.9608154166666623
                },
                {
                    "name": "C#3",
                    "midi": 49,
                    "time": 330.85470000000214,
                    "velocity": 0.18110236220472442,
                    "duration": 0.9608154166666623
                },
                {
                    "name": "E2",
                    "midi": 40,
                    "time": 331.85729000000214,
                    "velocity": 0.11811023622047244,
                    "duration": 0.877266249999991
                },
                {
                    "name": "C#3",
                    "midi": 49,
                    "time": 331.85729000000214,
                    "velocity": 0.11811023622047244,
                    "duration": 0.877266249999991
                },
                {
                    "name": "E2",
                    "midi": 40,
                    "time": 332.85988000000214,
                    "velocity": 0.15748031496062992,
                    "duration": 0.4908513541666366
                },
                {
                    "name": "C#3",
                    "midi": 49,
                    "time": 332.85988000000214,
                    "velocity": 0.15748031496062992,
                    "duration": 0.4908513541666366
                },
                {
                    "name": "E2",
                    "midi": 40,
                    "time": 333.3611750000021,
                    "velocity": 0.11811023622047244,
                    "duration": 0.49085135416669345
                },
                {
                    "name": "D#3",
                    "midi": 51,
                    "time": 333.3611750000021,
                    "velocity": 0.11811023622047244,
                    "duration": 0.49085135416669345
                },
                {
                    "name": "E2",
                    "midi": 40,
                    "time": 333.86247000000213,
                    "velocity": 0.14960629921259844,
                    "duration": 0.49085135416669345
                },
                {
                    "name": "C#3",
                    "midi": 49,
                    "time": 333.86247000000213,
                    "velocity": 0.14960629921259844,
                    "duration": 0.49085135416669345
                },
                {
                    "name": "D#3",
                    "midi": 51,
                    "time": 334.36376500000216,
                    "velocity": 0.11811023622047244,
                    "duration": 0.49085135416669345
                },
                {
                    "name": "E2",
                    "midi": 40,
                    "time": 334.36376500000216,
                    "velocity": 0.11811023622047244,
                    "duration": 0.49085135416669345
                },
                {
                    "name": "E3",
                    "midi": 52,
                    "time": 334.8650600000022,
                    "velocity": 0.18110236220472442,
                    "duration": 0.9608154166667191
                },
                {
                    "name": "E2",
                    "midi": 40,
                    "time": 334.8650600000022,
                    "velocity": 0.18110236220472442,
                    "duration": 0.9608154166667191
                },
                {
                    "name": "E2",
                    "midi": 40,
                    "time": 335.86765000000224,
                    "velocity": 0.13385826771653545,
                    "duration": 0.877266249999991
                },
                {
                    "name": "B2",
                    "midi": 47,
                    "time": 335.86765000000224,
                    "velocity": 0.13385826771653545,
                    "duration": 0.877266249999991
                },
                {
                    "name": "B2",
                    "midi": 47,
                    "time": 336.87024000000224,
                    "velocity": 0.18110236220472442,
                    "duration": 0.49085135416669345
                },
                {
                    "name": "E2",
                    "midi": 40,
                    "time": 336.87024000000224,
                    "velocity": 0.18110236220472442,
                    "duration": 0.49085135416669345
                },
                {
                    "name": "E2",
                    "midi": 40,
                    "time": 337.37153500000227,
                    "velocity": 0.14173228346456693,
                    "duration": 0.49085135416669345
                },
                {
                    "name": "B2",
                    "midi": 47,
                    "time": 337.37153500000227,
                    "velocity": 0.14173228346456693,
                    "duration": 0.49085135416669345
                },
                {
                    "name": "E2",
                    "midi": 40,
                    "time": 337.8728300000023,
                    "velocity": 0.1889763779527559,
                    "duration": 0.49085135416669345
                },
                {
                    "name": "B2",
                    "midi": 47,
                    "time": 337.8728300000023,
                    "velocity": 0.1889763779527559,
                    "duration": 0.49085135416669345
                },
                {
                    "name": "B2",
                    "midi": 47,
                    "time": 338.3741250000023,
                    "velocity": 0.14173228346456693,
                    "duration": 0.49085135416669345
                },
                {
                    "name": "E2",
                    "midi": 40,
                    "time": 338.3741250000023,
                    "velocity": 0.14173228346456693,
                    "duration": 0.49085135416669345
                },
                {
                    "name": "E2",
                    "midi": 40,
                    "time": 338.87542000000235,
                    "velocity": 0.1968503937007874,
                    "duration": 0.9608154166666623
                },
                {
                    "name": "C#3",
                    "midi": 49,
                    "time": 338.87542000000235,
                    "velocity": 0.1968503937007874,
                    "duration": 0.9608154166666623
                },
                {
                    "name": "C#3",
                    "midi": 49,
                    "time": 339.87801000000235,
                    "velocity": 0.14960629921259844,
                    "duration": 0.877266249999991
                },
                {
                    "name": "E2",
                    "midi": 40,
                    "time": 339.87801000000235,
                    "velocity": 0.14960629921259844,
                    "duration": 0.877266249999991
                },
                {
                    "name": "E2",
                    "midi": 40,
                    "time": 340.88060000000235,
                    "velocity": 0.23622047244094488,
                    "duration": 2.0051800000001094
                },
                {
                    "name": "C#3",
                    "midi": 49,
                    "time": 340.88060000000235,
                    "velocity": 0.28346456692913385,
                    "duration": 0.5012950000000274
                },
                {
                    "name": "E3",
                    "midi": 52,
                    "time": 341.3818950000024,
                    "velocity": 0.25984251968503935,
                    "duration": 0.5012950000000274
                },
                {
                    "name": "A3",
                    "midi": 57,
                    "time": 341.8831900000024,
                    "velocity": 0.29133858267716534,
                    "duration": 0.5012950000000274
                },
                {
                    "name": "C#4",
                    "midi": 61,
                    "time": 342.3844850000024,
                    "velocity": 0.30708661417322836,
                    "duration": 0.5012950000000274
                },
                {
                    "name": "E3",
                    "midi": 52,
                    "time": 342.88578000000246,
                    "velocity": 0.2047244094488189,
                    "duration": 0.9608154166666623
                },
                {
                    "name": "B3",
                    "midi": 59,
                    "time": 342.88578000000246,
                    "velocity": 0.2047244094488189,
                    "duration": 0.9608154166666623
                },
                {
                    "name": "B3",
                    "midi": 59,
                    "time": 343.88837000000245,
                    "velocity": 0.13385826771653545,
                    "duration": 0.877266249999991
                },
                {
                    "name": "E3",
                    "midi": 52,
                    "time": 343.88837000000245,
                    "velocity": 0.13385826771653545,
                    "duration": 0.877266249999991
                },
                {
                    "name": "E3",
                    "midi": 52,
                    "time": 344.89096000000245,
                    "velocity": 0.1732283464566929,
                    "duration": 0.49085135416669345
                },
                {
                    "name": "B3",
                    "midi": 59,
                    "time": 344.89096000000245,
                    "velocity": 0.1732283464566929,
                    "duration": 0.49085135416669345
                },
                {
                    "name": "B3",
                    "midi": 59,
                    "time": 345.3922550000025,
                    "velocity": 0.14173228346456693,
                    "duration": 0.49085135416669345
                },
                {
                    "name": "E3",
                    "midi": 52,
                    "time": 345.3922550000025,
                    "velocity": 0.14173228346456693,
                    "duration": 0.49085135416669345
                },
                {
                    "name": "E3",
                    "midi": 52,
                    "time": 345.8935500000025,
                    "velocity": 0.15748031496062992,
                    "duration": 0.49085135416669345
                },
                {
                    "name": "D#4",
                    "midi": 63,
                    "time": 345.8935500000025,
                    "velocity": 0.15748031496062992,
                    "duration": 0.49085135416669345
                },
                {
                    "name": "C#4",
                    "midi": 61,
                    "time": 346.39484500000253,
                    "velocity": 0.14173228346456693,
                    "duration": 0.49085135416669345
                },
                {
                    "name": "E3",
                    "midi": 52,
                    "time": 346.39484500000253,
                    "velocity": 0.14173228346456693,
                    "duration": 0.49085135416669345
                },
                {
                    "name": "E3",
                    "midi": 52,
                    "time": 346.89614000000256,
                    "velocity": 0.1889763779527559,
                    "duration": 0.9608154166666623
                },
                {
                    "name": "B3",
                    "midi": 59,
                    "time": 346.89614000000256,
                    "velocity": 0.1889763779527559,
                    "duration": 0.9608154166666623
                },
                {
                    "name": "B3",
                    "midi": 59,
                    "time": 347.89873000000256,
                    "velocity": 0.11811023622047244,
                    "duration": 0.877266249999991
                },
                {
                    "name": "E3",
                    "midi": 52,
                    "time": 347.89873000000256,
                    "velocity": 0.11811023622047244,
                    "duration": 0.877266249999991
                },
                {
                    "name": "E3",
                    "midi": 52,
                    "time": 348.90132000000256,
                    "velocity": 0.1732283464566929,
                    "duration": 0.49085135416669345
                },
                {
                    "name": "B3",
                    "midi": 59,
                    "time": 348.90132000000256,
                    "velocity": 0.1732283464566929,
                    "duration": 0.49085135416669345
                },
                {
                    "name": "B3",
                    "midi": 59,
                    "time": 349.4026150000026,
                    "velocity": 0.13385826771653545,
                    "duration": 0.49085135416669345
                },
                {
                    "name": "E3",
                    "midi": 52,
                    "time": 349.4026150000026,
                    "velocity": 0.13385826771653545,
                    "duration": 0.49085135416669345
                },
                {
                    "name": "E3",
                    "midi": 52,
                    "time": 349.9039100000026,
                    "velocity": 0.15748031496062992,
                    "duration": 0.49085135416669345
                },
                {
                    "name": "D#4",
                    "midi": 63,
                    "time": 349.9039100000026,
                    "velocity": 0.15748031496062992,
                    "duration": 0.49085135416669345
                },
                {
                    "name": "E3",
                    "midi": 52,
                    "time": 350.40520500000264,
                    "velocity": 0.14173228346456693,
                    "duration": 0.49085135416669345
                },
                {
                    "name": "C#4",
                    "midi": 61,
                    "time": 350.40520500000264,
                    "velocity": 0.14173228346456693,
                    "duration": 0.49085135416669345
                },
                {
                    "name": "B3",
                    "midi": 59,
                    "time": 350.90650000000267,
                    "velocity": 0.2283464566929134,
                    "duration": 0.9608154166666623
                },
                {
                    "name": "E3",
                    "midi": 52,
                    "time": 350.90650000000267,
                    "velocity": 0.1889763779527559,
                    "duration": 0.9608154166666623
                },
                {
                    "name": "B3",
                    "midi": 59,
                    "time": 351.90909000000266,
                    "velocity": 0.11811023622047244,
                    "duration": 0.877266249999991
                },
                {
                    "name": "E3",
                    "midi": 52,
                    "time": 351.90909000000266,
                    "velocity": 0.11811023622047244,
                    "duration": 0.877266249999991
                },
                {
                    "name": "G#3",
                    "midi": 56,
                    "time": 352.91168000000266,
                    "velocity": 0.1968503937007874,
                    "duration": 0.49085135416669345
                },
                {
                    "name": "E3",
                    "midi": 52,
                    "time": 352.91168000000266,
                    "velocity": 0.1968503937007874,
                    "duration": 0.49085135416669345
                },
                {
                    "name": "E3",
                    "midi": 52,
                    "time": 353.4129750000027,
                    "velocity": 0.18110236220472442,
                    "duration": 0.49085135416669345
                },
                {
                    "name": "B3",
                    "midi": 59,
                    "time": 353.4129750000027,
                    "velocity": 0.18110236220472442,
                    "duration": 0.49085135416669345
                },
                {
                    "name": "A3",
                    "midi": 57,
                    "time": 353.9142700000027,
                    "velocity": 0.1968503937007874,
                    "duration": 0.4908513541666366
                },
                {
                    "name": "E3",
                    "midi": 52,
                    "time": 353.9142700000027,
                    "velocity": 0.1968503937007874,
                    "duration": 0.4908513541666366
                },
                {
                    "name": "E3",
                    "midi": 52,
                    "time": 354.4155650000027,
                    "velocity": 0.1889763779527559,
                    "duration": 0.49085135416669345
                },
                {
                    "name": "B3",
                    "midi": 59,
                    "time": 354.4155650000027,
                    "velocity": 0.1889763779527559,
                    "duration": 0.49085135416669345
                },
                {
                    "name": "E3",
                    "midi": 52,
                    "time": 354.9168600000027,
                    "velocity": 0.1968503937007874,
                    "duration": 0.9608154166666054
                },
                {
                    "name": "C#4",
                    "midi": 61,
                    "time": 354.9168600000027,
                    "velocity": 0.1968503937007874,
                    "duration": 0.9608154166666054
                },
                {
                    "name": "C#4",
                    "midi": 61,
                    "time": 355.91945000000266,
                    "velocity": 0.11811023622047244,
                    "duration": 0.2506475000000137
                },
                {
                    "name": "E3",
                    "midi": 52,
                    "time": 355.91945000000266,
                    "velocity": 0.11811023622047244,
                    "duration": 0.2506475000000137
                },
                {
                    "name": "E4",
                    "midi": 64,
                    "time": 356.92204000000265,
                    "velocity": 0.1732283464566929,
                    "duration": 0.9608154166666623
                },
                {
                    "name": "C5",
                    "midi": 72,
                    "time": 356.92204000000265,
                    "velocity": 0.1732283464566929,
                    "duration": 0.9608154166666623
                },
                {
                    "name": "E4",
                    "midi": 64,
                    "time": 357.92463000000265,
                    "velocity": 0.06299212598425197,
                    "duration": 0.4595204166666349
                },
                {
                    "name": "C5",
                    "midi": 72,
                    "time": 357.92463000000265,
                    "velocity": 0.07086614173228346,
                    "duration": 0.4595204166666349
                },
                {
                    "name": "E3",
                    "midi": 52,
                    "time": 358.9272200000026,
                    "velocity": 0.1968503937007874,
                    "duration": 0.9608154166666623
                },
                {
                    "name": "B3",
                    "midi": 59,
                    "time": 358.9272200000026,
                    "velocity": 0.1968503937007874,
                    "duration": 0.9608154166666623
                },
                {
                    "name": "E3",
                    "midi": 52,
                    "time": 359.9298100000026,
                    "velocity": 0.07086614173228346,
                    "duration": 0.4595204166666349
                },
                {
                    "name": "B3",
                    "midi": 59,
                    "time": 359.9298100000026,
                    "velocity": 0.08661417322834646,
                    "duration": 0.4595204166666349
                },
                {
                    "name": "B4",
                    "midi": 71,
                    "time": 360.93240000000253,
                    "velocity": 0.1732283464566929,
                    "duration": 0.9608154166666623
                },
                {
                    "name": "E4",
                    "midi": 64,
                    "time": 360.93240000000253,
                    "velocity": 0.1732283464566929,
                    "duration": 0.9608154166666623
                },
                {
                    "name": "E4",
                    "midi": 64,
                    "time": 361.93499000000253,
                    "velocity": 0.08661417322834646,
                    "duration": 0.45952041666669174
                },
                {
                    "name": "B4",
                    "midi": 71,
                    "time": 361.93499000000253,
                    "velocity": 0.08661417322834646,
                    "duration": 0.45952041666669174
                },
                {
                    "name": "A1",
                    "midi": 33,
                    "time": 362.9375800000025,
                    "velocity": 0.4566929133858268,
                    "duration": 0.9608154166666623
                },
                {
                    "name": "A2",
                    "midi": 45,
                    "time": 362.9375800000025,
                    "velocity": 0.5039370078740157,
                    "duration": 0.9608154166666623
                },
                {
                    "name": "A1",
                    "midi": 33,
                    "time": 363.9401700000025,
                    "velocity": 0.30708661417322836,
                    "duration": 0.45952041666669174
                },
                {
                    "name": "A2",
                    "midi": 45,
                    "time": 363.9401700000025,
                    "velocity": 0.3464566929133858,
                    "duration": 0.45952041666669174
                },
                {
                    "name": "E4",
                    "midi": 64,
                    "time": 364.9427600000026,
                    "velocity": 0.30708661417322836,
                    "duration": 0.49085135416669345
                },
                {
                    "name": "F#4",
                    "midi": 66,
                    "time": 364.9427600000026,
                    "velocity": 0.30708661417322836,
                    "duration": 0.49085135416669345
                },
                {
                    "name": "A3",
                    "midi": 57,
                    "time": 364.9427600000026,
                    "velocity": 0.30708661417322836,
                    "duration": 0.49085135416669345
                },
                {
                    "name": "E4",
                    "midi": 64,
                    "time": 365.4440550000026,
                    "velocity": 0.2677165354330709,
                    "duration": 0.49085135416669345
                },
                {
                    "name": "B3",
                    "midi": 59,
                    "time": 365.4440550000026,
                    "velocity": 0.2677165354330709,
                    "duration": 0.49085135416669345
                },
                {
                    "name": "G#4",
                    "midi": 68,
                    "time": 365.4440550000026,
                    "velocity": 0.2677165354330709,
                    "duration": 0.49085135416669345
                },
                {
                    "name": "E4",
                    "midi": 64,
                    "time": 365.94535000000263,
                    "velocity": 0.29133858267716534,
                    "duration": 0.49085135416669345
                },
                {
                    "name": "C#4",
                    "midi": 61,
                    "time": 365.94535000000263,
                    "velocity": 0.29133858267716534,
                    "duration": 0.49085135416669345
                },
                {
                    "name": "E4",
                    "midi": 64,
                    "time": 366.44664500000266,
                    "velocity": 0.28346456692913385,
                    "duration": 0.4908513541666366
                },
                {
                    "name": "B3",
                    "midi": 59,
                    "time": 366.44664500000266,
                    "velocity": 0.28346456692913385,
                    "duration": 0.4908513541666366
                },
                {
                    "name": "G#4",
                    "midi": 68,
                    "time": 366.44664500000266,
                    "velocity": 0.28346456692913385,
                    "duration": 0.4908513541666366
                },
                {
                    "name": "A4",
                    "midi": 69,
                    "time": 366.94794000000263,
                    "velocity": 0.28346456692913385,
                    "duration": 0.9608154166666623
                },
                {
                    "name": "F#4",
                    "midi": 66,
                    "time": 366.94794000000263,
                    "velocity": 0.28346456692913385,
                    "duration": 0.9608154166666623
                },
                {
                    "name": "B3",
                    "midi": 59,
                    "time": 366.94794000000263,
                    "velocity": 0.28346456692913385,
                    "duration": 0.9608154166666623
                },
                {
                    "name": "B3",
                    "midi": 59,
                    "time": 367.95053000000263,
                    "velocity": 0.13385826771653545,
                    "duration": 0.45952041666669174
                },
                {
                    "name": "A4",
                    "midi": 69,
                    "time": 367.95053000000263,
                    "velocity": 0.13385826771653545,
                    "duration": 0.45952041666669174
                },
                {
                    "name": "F#4",
                    "midi": 66,
                    "time": 367.95053000000263,
                    "velocity": 0.13385826771653545,
                    "duration": 0.45952041666669174
                },
                {
                    "name": "E3",
                    "midi": 52,
                    "time": 368.9531200000026,
                    "velocity": 0.2125984251968504,
                    "duration": 0.9608154166666623
                },
                {
                    "name": "B3",
                    "midi": 59,
                    "time": 368.9531200000026,
                    "velocity": 0.2125984251968504,
                    "duration": 0.9608154166666623
                },
                {
                    "name": "E3",
                    "midi": 52,
                    "time": 369.9557100000026,
                    "velocity": 0.18110236220472442,
                    "duration": 0.45952041666669174
                },
                {
                    "name": "B3",
                    "midi": 59,
                    "time": 369.9557100000026,
                    "velocity": 0.12598425196850394,
                    "duration": 0.45952041666669174
                },
                {
                    "name": "A1",
                    "midi": 33,
                    "time": 370.9583000000027,
                    "velocity": 0.4566929133858268,
                    "duration": 0.9608154166666623
                },
                {
                    "name": "A2",
                    "midi": 45,
                    "time": 370.9583000000027,
                    "velocity": 0.5039370078740157,
                    "duration": 0.9608154166666623
                },
                {
                    "name": "A2",
                    "midi": 45,
                    "time": 371.9608900000027,
                    "velocity": 0.3779527559055118,
                    "duration": 0.45952041666669174
                },
                {
                    "name": "A1",
                    "midi": 33,
                    "time": 371.9608900000027,
                    "velocity": 0.33070866141732286,
                    "duration": 0.45952041666669174
                },
                {
                    "name": "E4",
                    "midi": 64,
                    "time": 372.96348000000273,
                    "velocity": 0.30708661417322836,
                    "duration": 0.4908513541666366
                },
                {
                    "name": "F#4",
                    "midi": 66,
                    "time": 372.96348000000273,
                    "velocity": 0.30708661417322836,
                    "duration": 0.4908513541666366
                },
                {
                    "name": "A3",
                    "midi": 57,
                    "time": 372.96348000000273,
                    "velocity": 0.30708661417322836,
                    "duration": 0.4908513541666366
                },
                {
                    "name": "B3",
                    "midi": 59,
                    "time": 373.4647750000027,
                    "velocity": 0.28346456692913385,
                    "duration": 0.4908513541666366
                },
                {
                    "name": "G#4",
                    "midi": 68,
                    "time": 373.4647750000027,
                    "velocity": 0.28346456692913385,
                    "duration": 0.4908513541666366
                },
                {
                    "name": "E4",
                    "midi": 64,
                    "time": 373.4647750000027,
                    "velocity": 0.28346456692913385,
                    "duration": 0.4908513541666366
                },
                {
                    "name": "C#4",
                    "midi": 61,
                    "time": 373.9660700000027,
                    "velocity": 0.30708661417322836,
                    "duration": 0.49085135416669345
                },
                {
                    "name": "E4",
                    "midi": 64,
                    "time": 373.9660700000027,
                    "velocity": 0.30708661417322836,
                    "duration": 0.49085135416669345
                },
                {
                    "name": "G#4",
                    "midi": 68,
                    "time": 374.4673650000027,
                    "velocity": 0.28346456692913385,
                    "duration": 0.49085135416669345
                },
                {
                    "name": "B3",
                    "midi": 59,
                    "time": 374.4673650000027,
                    "velocity": 0.28346456692913385,
                    "duration": 0.49085135416669345
                },
                {
                    "name": "E4",
                    "midi": 64,
                    "time": 374.4673650000027,
                    "velocity": 0.28346456692913385,
                    "duration": 0.49085135416669345
                },
                {
                    "name": "A4",
                    "midi": 69,
                    "time": 374.9686600000027,
                    "velocity": 0.28346456692913385,
                    "duration": 0.9608154166666623
                },
                {
                    "name": "B3",
                    "midi": 59,
                    "time": 374.9686600000027,
                    "velocity": 0.28346456692913385,
                    "duration": 0.9608154166666623
                },
                {
                    "name": "F#4",
                    "midi": 66,
                    "time": 374.9686600000027,
                    "velocity": 0.28346456692913385,
                    "duration": 0.9608154166666623
                },
                {
                    "name": "F#4",
                    "midi": 66,
                    "time": 375.9712500000027,
                    "velocity": 0.13385826771653545,
                    "duration": 0.4595204166666349
                },
                {
                    "name": "A4",
                    "midi": 69,
                    "time": 375.9712500000027,
                    "velocity": 0.13385826771653545,
                    "duration": 0.4595204166666349
                },
                {
                    "name": "B3",
                    "midi": 59,
                    "time": 375.9712500000027,
                    "velocity": 0.13385826771653545,
                    "duration": 0.4595204166666349
                },
                {
                    "name": "E2",
                    "midi": 40,
                    "time": 376.97384000000267,
                    "velocity": 0.6771653543307087,
                    "duration": 0.9608154166666623
                },
                {
                    "name": "E2",
                    "midi": 40,
                    "time": 377.97643000000267,
                    "velocity": 0.5511811023622047,
                    "duration": 0.45952041666669174
                },
                {
                    "name": "E2",
                    "midi": 40,
                    "time": 378.97902000000266,
                    "velocity": 0.1732283464566929,
                    "duration": 0.4908513541666366
                },
                {
                    "name": "B2",
                    "midi": 47,
                    "time": 378.97902000000266,
                    "velocity": 0.1732283464566929,
                    "duration": 0.4908513541666366
                },
                {
                    "name": "B2",
                    "midi": 47,
                    "time": 379.48031500000263,
                    "velocity": 0.13385826771653545,
                    "duration": 0.49085135416669345
                },
                {
                    "name": "E2",
                    "midi": 40,
                    "time": 379.48031500000263,
                    "velocity": 0.13385826771653545,
                    "duration": 0.49085135416669345
                },
                {
                    "name": "E2",
                    "midi": 40,
                    "time": 379.98161000000266,
                    "velocity": 0.15748031496062992,
                    "duration": 0.4908513541666366
                },
                {
                    "name": "B2",
                    "midi": 47,
                    "time": 379.98161000000266,
                    "velocity": 0.15748031496062992,
                    "duration": 0.4908513541666366
                },
                {
                    "name": "E2",
                    "midi": 40,
                    "time": 380.48290500000263,
                    "velocity": 0.12598425196850394,
                    "duration": 0.49085135416669345
                },
                {
                    "name": "B2",
                    "midi": 47,
                    "time": 380.48290500000263,
                    "velocity": 0.12598425196850394,
                    "duration": 0.49085135416669345
                },
                {
                    "name": "C3",
                    "midi": 48,
                    "time": 380.98420000000266,
                    "velocity": 0.12598425196850394,
                    "duration": 0.9608154166667191
                },
                {
                    "name": "E2",
                    "midi": 40,
                    "time": 380.98420000000266,
                    "velocity": 0.12598425196850394,
                    "duration": 0.9608154166667191
                },
                {
                    "name": "E2",
                    "midi": 40,
                    "time": 381.9867900000027,
                    "velocity": 0.06299212598425197,
                    "duration": 0.2506475000000137
                },
                {
                    "name": "C3",
                    "midi": 48,
                    "time": 381.9867900000027,
                    "velocity": 0.06299212598425197,
                    "duration": 0.2506475000000137
                },
                {
                    "name": "E2",
                    "midi": 40,
                    "time": 382.9893800000027,
                    "velocity": 0.18110236220472442,
                    "duration": 0.9608154166666623
                },
                {
                    "name": "D#3",
                    "midi": 51,
                    "time": 382.9893800000027,
                    "velocity": 0.18110236220472442,
                    "duration": 0.9608154166666623
                },
                {
                    "name": "E2",
                    "midi": 40,
                    "time": 383.9919700000027,
                    "velocity": 0.07086614173228346,
                    "duration": 0.2506475000000137
                },
                {
                    "name": "D#3",
                    "midi": 51,
                    "time": 383.9919700000027,
                    "velocity": 0.07086614173228346,
                    "duration": 0.2506475000000137
                },
                {
                    "name": "E2",
                    "midi": 40,
                    "time": 384.9945600000027,
                    "velocity": 0.6771653543307087,
                    "duration": 0.9608154166666623
                },
                {
                    "name": "E3",
                    "midi": 52,
                    "time": 384.9945600000027,
                    "velocity": 0.6771653543307087,
                    "duration": 0.9608154166666623
                },
                {
                    "name": "E3",
                    "midi": 52,
                    "time": 385.9971500000027,
                    "velocity": 0.5196850393700787,
                    "duration": 0.45952041666669174
                },
                {
                    "name": "E2",
                    "midi": 40,
                    "time": 385.9971500000027,
                    "velocity": 0.4645669291338583,
                    "duration": 0.45952041666669174
                },
                {
                    "name": "E2",
                    "midi": 40,
                    "time": 386.99974000000276,
                    "velocity": 0.1968503937007874,
                    "duration": 0.4908513541666366
                },
                {
                    "name": "B2",
                    "midi": 47,
                    "time": 386.99974000000276,
                    "velocity": 0.1968503937007874,
                    "duration": 0.4908513541666366
                },
                {
                    "name": "B2",
                    "midi": 47,
                    "time": 387.50103500000273,
                    "velocity": 0.14173228346456693,
                    "duration": 0.49085135416669345
                },
                {
                    "name": "E2",
                    "midi": 40,
                    "time": 387.50103500000273,
                    "velocity": 0.14173228346456693,
                    "duration": 0.49085135416669345
                },
                {
                    "name": "B2",
                    "midi": 47,
                    "time": 388.00233000000276,
                    "velocity": 0.1968503937007874,
                    "duration": 0.49085135416669345
                },
                {
                    "name": "E2",
                    "midi": 40,
                    "time": 388.00233000000276,
                    "velocity": 0.1968503937007874,
                    "duration": 0.49085135416669345
                },
                {
                    "name": "E2",
                    "midi": 40,
                    "time": 388.5036250000028,
                    "velocity": 0.13385826771653545,
                    "duration": 0.49085135416669345
                },
                {
                    "name": "B2",
                    "midi": 47,
                    "time": 388.5036250000028,
                    "velocity": 0.13385826771653545,
                    "duration": 0.49085135416669345
                },
                {
                    "name": "A2",
                    "midi": 45,
                    "time": 389.0049200000028,
                    "velocity": 0.1889763779527559,
                    "duration": 0.9608154166666623
                },
                {
                    "name": "E2",
                    "midi": 40,
                    "time": 389.0049200000028,
                    "velocity": 0.1889763779527559,
                    "duration": 0.9608154166666623
                },
                {
                    "name": "E2",
                    "midi": 40,
                    "time": 390.0075100000028,
                    "velocity": 0.09448818897637795,
                    "duration": 0.2506475000000137
                },
                {
                    "name": "C#3",
                    "midi": 49,
                    "time": 390.0075100000028,
                    "velocity": 0.12598425196850394,
                    "duration": 0.2506475000000137
                },
                {
                    "name": "B2",
                    "midi": 47,
                    "time": 391.0101000000028,
                    "velocity": 0.1968503937007874,
                    "duration": 0.9608154166666623
                },
                {
                    "name": "E2",
                    "midi": 40,
                    "time": 391.0101000000028,
                    "velocity": 0.1968503937007874,
                    "duration": 0.9608154166666623
                },
                {
                    "name": "D#3",
                    "midi": 51,
                    "time": 392.0126900000028,
                    "velocity": 0.14173228346456693,
                    "duration": 0.2506475000000137
                },
                {
                    "name": "E2",
                    "midi": 40,
                    "time": 392.0126900000028,
                    "velocity": 0.11023622047244094,
                    "duration": 0.2506475000000137
                },
                {
                    "name": "E3",
                    "midi": 52,
                    "time": 393.0152800000028,
                    "velocity": 0.1968503937007874,
                    "duration": 0.9608154166666623
                },
                {
                    "name": "E2",
                    "midi": 40,
                    "time": 393.0152800000028,
                    "velocity": 0.1968503937007874,
                    "duration": 0.9608154166666623
                },
                {
                    "name": "E3",
                    "midi": 52,
                    "time": 394.0178700000028,
                    "velocity": 0.09448818897637795,
                    "duration": 0.2506475000000137
                },
                {
                    "name": "E2",
                    "midi": 40,
                    "time": 394.0178700000028,
                    "velocity": 0.031496062992125984,
                    "duration": 0.2506475000000137
                },
                {
                    "name": "A2",
                    "midi": 45,
                    "time": 395.0204600000028,
                    "velocity": 0.1968503937007874,
                    "duration": 0.9608154166666623
                },
                {
                    "name": "C3",
                    "midi": 48,
                    "time": 395.0204600000028,
                    "velocity": 0.1968503937007874,
                    "duration": 0.9608154166666623
                },
                {
                    "name": "C3",
                    "midi": 48,
                    "time": 396.0230500000028,
                    "velocity": 0.09448818897637795,
                    "duration": 0.25064749999995684
                },
                {
                    "name": "A2",
                    "midi": 45,
                    "time": 396.0230500000028,
                    "velocity": 0.09448818897637795,
                    "duration": 0.25064749999995684
                },
                {
                    "name": "C3",
                    "midi": 48,
                    "time": 397.02564000000274,
                    "velocity": 0.1968503937007874,
                    "duration": 0.9608154166666623
                },
                {
                    "name": "C3",
                    "midi": 48,
                    "time": 398.02823000000274,
                    "velocity": 0.11023622047244094,
                    "duration": 0.2506475000000137
                },
                {
                    "name": "D2",
                    "midi": 38,
                    "time": 399.03082000000273,
                    "velocity": 0.1968503937007874,
                    "duration": 0.9608154166667191
                },
                {
                    "name": "D3",
                    "midi": 50,
                    "time": 399.03082000000273,
                    "velocity": 0.1968503937007874,
                    "duration": 0.9608154166667191
                },
                {
                    "name": "D2",
                    "midi": 38,
                    "time": 400.0334100000028,
                    "velocity": 0.11811023622047244,
                    "duration": 0.2506475000000137
                },
                {
                    "name": "D3",
                    "midi": 50,
                    "time": 400.0334100000028,
                    "velocity": 0.11811023622047244,
                    "duration": 0.2506475000000137
                },
                {
                    "name": "E2",
                    "midi": 40,
                    "time": 401.0360000000028,
                    "velocity": 0.1889763779527559,
                    "duration": 0.9608154166666623
                },
                {
                    "name": "A2",
                    "midi": 45,
                    "time": 401.0360000000028,
                    "velocity": 0.1889763779527559,
                    "duration": 1.0025899999999979
                },
                {
                    "name": "E3",
                    "midi": 52,
                    "time": 402.0385900000028,
                    "velocity": 0.30708661417322836,
                    "duration": 1.0025899999999979
                },
                {
                    "name": "E2",
                    "midi": 40,
                    "time": 402.0385900000028,
                    "velocity": 0.09448818897637795,
                    "duration": 0.2506475000000137
                },
                {
                    "name": "D#3",
                    "midi": 51,
                    "time": 403.0411800000028,
                    "velocity": 0.29133858267716534,
                    "duration": 1.0025899999999979
                },
                {
                    "name": "E3",
                    "midi": 52,
                    "time": 404.0437700000028,
                    "velocity": 0.2755905511811024,
                    "duration": 0.2506475000000137
                },
                {
                    "name": "E2",
                    "midi": 40,
                    "time": 407.0515400000028,
                    "velocity": 0.14960629921259844,
                    "duration": 0.9608154166666623
                },
                {
                    "name": "B2",
                    "midi": 47,
                    "time": 407.0515400000028,
                    "velocity": 0.25984251968503935,
                    "duration": 1.0025899999999979
                },
                {
                    "name": "E2",
                    "midi": 40,
                    "time": 408.0541300000028,
                    "velocity": 0.07086614173228346,
                    "duration": 0.45952041666669174
                },
                {
                    "name": "E3",
                    "midi": 52,
                    "time": 408.0541300000028,
                    "velocity": 0.30708661417322836,
                    "duration": 1.0025899999999979
                },
                {
                    "name": "D#3",
                    "midi": 51,
                    "time": 409.05672000000277,
                    "velocity": 0.29133858267716534,
                    "duration": 1.0025899999999979
                },
                {
                    "name": "E3",
                    "midi": 52,
                    "time": 410.05931000000277,
                    "velocity": 0.2755905511811024,
                    "duration": 0.2506475000000137
                },
                {
                    "name": "F2",
                    "midi": 41,
                    "time": 413.06708000000276,
                    "velocity": 0.1732283464566929,
                    "duration": 0.12532375000000684
                },
                {
                    "name": "C3",
                    "midi": 48,
                    "time": 413.19240375000277,
                    "velocity": 0.11023622047244094,
                    "duration": 0.12532375000000684
                },
                {
                    "name": "F2",
                    "midi": 41,
                    "time": 413.3177275000028,
                    "velocity": 0.13385826771653545,
                    "duration": 0.12532375000000684
                },
                {
                    "name": "C3",
                    "midi": 48,
                    "time": 413.4430512500028,
                    "velocity": 0.11811023622047244,
                    "duration": 0.12532375000000684
                },
                {
                    "name": "F2",
                    "midi": 41,
                    "time": 413.5683750000028,
                    "velocity": 0.14173228346456693,
                    "duration": 0.12532375000000684
                },
                {
                    "name": "C3",
                    "midi": 48,
                    "time": 413.6936987500028,
                    "velocity": 0.11023622047244094,
                    "duration": 0.12532375000000684
                },
                {
                    "name": "F2",
                    "midi": 41,
                    "time": 413.8190225000028,
                    "velocity": 0.14173228346456693,
                    "duration": 0.12532375000000684
                },
                {
                    "name": "C3",
                    "midi": 48,
                    "time": 413.9443462500028,
                    "velocity": 0.10236220472440945,
                    "duration": 0.12532375000000684
                },
                {
                    "name": "F2",
                    "midi": 41,
                    "time": 414.0696700000028,
                    "velocity": 0.15748031496062992,
                    "duration": 0.12532375000000684
                },
                {
                    "name": "C3",
                    "midi": 48,
                    "time": 414.1949937500028,
                    "velocity": 0.09448818897637795,
                    "duration": 0.12532375000000684
                },
                {
                    "name": "F2",
                    "midi": 41,
                    "time": 414.32031750000283,
                    "velocity": 0.14173228346456693,
                    "duration": 0.12532375000000684
                },
                {
                    "name": "C3",
                    "midi": 48,
                    "time": 414.44564125000284,
                    "velocity": 0.10236220472440945,
                    "duration": 0.12532375000000684
                },
                {
                    "name": "F2",
                    "midi": 41,
                    "time": 414.57096500000284,
                    "velocity": 0.14960629921259844,
                    "duration": 0.12532375000000684
                },
                {
                    "name": "C3",
                    "midi": 48,
                    "time": 414.69628875000285,
                    "velocity": 0.09448818897637795,
                    "duration": 0.12532375000000684
                },
                {
                    "name": "F2",
                    "midi": 41,
                    "time": 414.82161250000286,
                    "velocity": 0.12598425196850394,
                    "duration": 0.12532375000000684
                },
                {
                    "name": "C3",
                    "midi": 48,
                    "time": 414.94693625000286,
                    "velocity": 0.09448818897637795,
                    "duration": 0.12532375000000684
                },
                {
                    "name": "F2",
                    "midi": 41,
                    "time": 415.07226000000287,
                    "velocity": 0.1889763779527559,
                    "duration": 0.12532375000000684
                },
                {
                    "name": "C3",
                    "midi": 48,
                    "time": 415.1975837500029,
                    "velocity": 0.11023622047244094,
                    "duration": 0.12532375000000684
                },
                {
                    "name": "F2",
                    "midi": 41,
                    "time": 415.3229075000029,
                    "velocity": 0.14173228346456693,
                    "duration": 0.12532375000000684
                },
                {
                    "name": "C3",
                    "midi": 48,
                    "time": 415.4482312500029,
                    "velocity": 0.11811023622047244,
                    "duration": 0.12532375000000684
                },
                {
                    "name": "F2",
                    "midi": 41,
                    "time": 415.5735550000029,
                    "velocity": 0.15748031496062992,
                    "duration": 0.12532375000000684
                },
                {
                    "name": "C3",
                    "midi": 48,
                    "time": 415.6988787500029,
                    "velocity": 0.12598425196850394,
                    "duration": 0.12532375000000684
                },
                {
                    "name": "F2",
                    "midi": 41,
                    "time": 415.8242025000029,
                    "velocity": 0.14960629921259844,
                    "duration": 0.12532375000000684
                },
                {
                    "name": "C3",
                    "midi": 48,
                    "time": 415.9495262500029,
                    "velocity": 0.11811023622047244,
                    "duration": 0.12532375000000684
                },
                {
                    "name": "F2",
                    "midi": 41,
                    "time": 416.0748500000029,
                    "velocity": 0.16535433070866143,
                    "duration": 0.12532375000000684
                },
                {
                    "name": "C3",
                    "midi": 48,
                    "time": 416.20017375000293,
                    "velocity": 0.11023622047244094,
                    "duration": 0.12532375000000684
                },
                {
                    "name": "F2",
                    "midi": 41,
                    "time": 416.32549750000294,
                    "velocity": 0.15748031496062992,
                    "duration": 0.12532375000000684
                },
                {
                    "name": "C3",
                    "midi": 48,
                    "time": 416.45082125000295,
                    "velocity": 0.11811023622047244,
                    "duration": 0.12532375000000684
                },
                {
                    "name": "F2",
                    "midi": 41,
                    "time": 416.57614500000295,
                    "velocity": 0.15748031496062992,
                    "duration": 0.12532375000000684
                },
                {
                    "name": "C3",
                    "midi": 48,
                    "time": 416.70146875000296,
                    "velocity": 0.11023622047244094,
                    "duration": 0.12532375000000684
                },
                {
                    "name": "F2",
                    "midi": 41,
                    "time": 416.82679250000297,
                    "velocity": 0.14173228346456693,
                    "duration": 0.12532375000000684
                },
                {
                    "name": "C3",
                    "midi": 48,
                    "time": 416.952116250003,
                    "velocity": 0.10236220472440945,
                    "duration": 0.12532375000000684
                },
                {
                    "name": "F2",
                    "midi": 41,
                    "time": 417.077440000003,
                    "velocity": 0.2125984251968504,
                    "duration": 0.12532374999995
                },
                {
                    "name": "C3",
                    "midi": 48,
                    "time": 417.20276375000293,
                    "velocity": 0.13385826771653545,
                    "duration": 0.12532374999995
                },
                {
                    "name": "F2",
                    "midi": 41,
                    "time": 417.3280875000029,
                    "velocity": 0.1732283464566929,
                    "duration": 0.12532375000000684
                },
                {
                    "name": "C3",
                    "midi": 48,
                    "time": 417.4534112500029,
                    "velocity": 0.15748031496062992,
                    "duration": 0.12532375000000684
                },
                {
                    "name": "F2",
                    "midi": 41,
                    "time": 417.5787350000029,
                    "velocity": 0.2125984251968504,
                    "duration": 0.12532375000000684
                },
                {
                    "name": "C3",
                    "midi": 48,
                    "time": 417.7040587500029,
                    "velocity": 0.15748031496062992,
                    "duration": 0.12532375000000684
                },
                {
                    "name": "F2",
                    "midi": 41,
                    "time": 417.8293825000029,
                    "velocity": 0.2125984251968504,
                    "duration": 0.12532375000000684
                },
                {
                    "name": "C3",
                    "midi": 48,
                    "time": 417.9547062500029,
                    "velocity": 0.15748031496062992,
                    "duration": 0.12532375000000684
                },
                {
                    "name": "F2",
                    "midi": 41,
                    "time": 418.0800300000029,
                    "velocity": 0.2440944881889764,
                    "duration": 0.12532375000000684
                },
                {
                    "name": "C3",
                    "midi": 48,
                    "time": 418.2053537500029,
                    "velocity": 0.14960629921259844,
                    "duration": 0.12532375000000684
                },
                {
                    "name": "F2",
                    "midi": 41,
                    "time": 418.33067750000293,
                    "velocity": 0.2283464566929134,
                    "duration": 0.12532375000000684
                },
                {
                    "name": "C3",
                    "midi": 48,
                    "time": 418.45600125000294,
                    "velocity": 0.16535433070866143,
                    "duration": 0.12532375000000684
                },
                {
                    "name": "F2",
                    "midi": 41,
                    "time": 418.58132500000295,
                    "velocity": 0.25984251968503935,
                    "duration": 0.12532375000000684
                },
                {
                    "name": "C3",
                    "midi": 48,
                    "time": 418.70664875000296,
                    "velocity": 0.1732283464566929,
                    "duration": 0.12532375000000684
                },
                {
                    "name": "F2",
                    "midi": 41,
                    "time": 418.83197250000296,
                    "velocity": 0.2283464566929134,
                    "duration": 0.12532375000000684
                },
                {
                    "name": "C3",
                    "midi": 48,
                    "time": 418.95729625000297,
                    "velocity": 0.16535433070866143,
                    "duration": 0.12532375000000684
                },
                {
                    "name": "F2",
                    "midi": 41,
                    "time": 419.082620000003,
                    "velocity": 0.29133858267716534,
                    "duration": 0.12532375000000684
                },
                {
                    "name": "C3",
                    "midi": 48,
                    "time": 419.207943750003,
                    "velocity": 0.2204724409448819,
                    "duration": 0.12532375000000684
                },
                {
                    "name": "F2",
                    "midi": 41,
                    "time": 419.333267500003,
                    "velocity": 0.2440944881889764,
                    "duration": 0.12532375000000684
                },
                {
                    "name": "C3",
                    "midi": 48,
                    "time": 419.458591250003,
                    "velocity": 0.2440944881889764,
                    "duration": 0.12532375000000684
                },
                {
                    "name": "F2",
                    "midi": 41,
                    "time": 419.583915000003,
                    "velocity": 0.2755905511811024,
                    "duration": 0.12532375000000684
                },
                {
                    "name": "C3",
                    "midi": 48,
                    "time": 419.709238750003,
                    "velocity": 0.23622047244094488,
                    "duration": 0.12532375000000684
                },
                {
                    "name": "F2",
                    "midi": 41,
                    "time": 419.834562500003,
                    "velocity": 0.28346456692913385,
                    "duration": 0.12532375000000684
                },
                {
                    "name": "C3",
                    "midi": 48,
                    "time": 419.959886250003,
                    "velocity": 0.2440944881889764,
                    "duration": 0.12532375000000684
                },
                {
                    "name": "F2",
                    "midi": 41,
                    "time": 420.08521000000303,
                    "velocity": 0.33070866141732286,
                    "duration": 0.12532375000000684
                },
                {
                    "name": "C3",
                    "midi": 48,
                    "time": 420.21053375000304,
                    "velocity": 0.23622047244094488,
                    "duration": 0.12532375000000684
                },
                {
                    "name": "F2",
                    "midi": 41,
                    "time": 420.33585750000304,
                    "velocity": 0.33070866141732286,
                    "duration": 0.12532375000000684
                },
                {
                    "name": "C3",
                    "midi": 48,
                    "time": 420.46118125000305,
                    "velocity": 0.25984251968503935,
                    "duration": 0.12532375000000684
                },
                {
                    "name": "F2",
                    "midi": 41,
                    "time": 420.58650500000306,
                    "velocity": 0.33070866141732286,
                    "duration": 0.12532375000000684
                },
                {
                    "name": "C3",
                    "midi": 48,
                    "time": 420.71182875000306,
                    "velocity": 0.25196850393700787,
                    "duration": 0.12532375000000684
                },
                {
                    "name": "F2",
                    "midi": 41,
                    "time": 420.83715250000307,
                    "velocity": 0.3228346456692913,
                    "duration": 0.12532375000000684
                },
                {
                    "name": "C3",
                    "midi": 48,
                    "time": 420.9624762500031,
                    "velocity": 0.2440944881889764,
                    "duration": 0.12532375000000684
                },
                {
                    "name": "F2",
                    "midi": 41,
                    "time": 421.0878000000031,
                    "velocity": 0.4251968503937008,
                    "duration": 0.12532375000000684
                },
                {
                    "name": "C3",
                    "midi": 48,
                    "time": 421.2131237500031,
                    "velocity": 0.30708661417322836,
                    "duration": 0.12532375000000684
                },
                {
                    "name": "F2",
                    "midi": 41,
                    "time": 421.3384475000031,
                    "velocity": 0.3543307086614173,
                    "duration": 0.12532375000000684
                },
                {
                    "name": "C3",
                    "midi": 48,
                    "time": 421.4637712500031,
                    "velocity": 0.31496062992125984,
                    "duration": 0.12532375000000684
                },
                {
                    "name": "F2",
                    "midi": 41,
                    "time": 421.5890950000031,
                    "velocity": 0.4094488188976378,
                    "duration": 0.12532375000000684
                },
                {
                    "name": "C3",
                    "midi": 48,
                    "time": 421.7144187500031,
                    "velocity": 0.2992125984251969,
                    "duration": 0.12532375000000684
                },
                {
                    "name": "F2",
                    "midi": 41,
                    "time": 421.8397425000031,
                    "velocity": 0.4094488188976378,
                    "duration": 0.12532375000000684
                },
                {
                    "name": "C3",
                    "midi": 48,
                    "time": 421.96506625000313,
                    "velocity": 0.33070866141732286,
                    "duration": 0.12532375000000684
                },
                {
                    "name": "F2",
                    "midi": 41,
                    "time": 422.09039000000314,
                    "velocity": 0.44881889763779526,
                    "duration": 0.12532375000000684
                },
                {
                    "name": "C3",
                    "midi": 48,
                    "time": 422.21571375000315,
                    "velocity": 0.3228346456692913,
                    "duration": 0.12532375000000684
                },
                {
                    "name": "F2",
                    "midi": 41,
                    "time": 422.34103750000315,
                    "velocity": 0.4251968503937008,
                    "duration": 0.12532375000000684
                },
                {
                    "name": "C3",
                    "midi": 48,
                    "time": 422.46636125000316,
                    "velocity": 0.3543307086614173,
                    "duration": 0.12532375000000684
                },
                {
                    "name": "F2",
                    "midi": 41,
                    "time": 422.59168500000317,
                    "velocity": 0.47244094488188976,
                    "duration": 0.12532375000000684
                },
                {
                    "name": "C3",
                    "midi": 48,
                    "time": 422.7170087500032,
                    "velocity": 0.33858267716535434,
                    "duration": 0.12532375000000684
                },
                {
                    "name": "F2",
                    "midi": 41,
                    "time": 422.8423325000032,
                    "velocity": 0.44881889763779526,
                    "duration": 0.12532375000000684
                },
                {
                    "name": "C3",
                    "midi": 48,
                    "time": 422.9676562500032,
                    "velocity": 0.33070866141732286,
                    "duration": 0.12532375000000684
                },
                {
                    "name": "F2",
                    "midi": 41,
                    "time": 423.0929800000032,
                    "velocity": 0.4881889763779528,
                    "duration": 0.12532375000000684
                },
                {
                    "name": "C3",
                    "midi": 48,
                    "time": 423.2183037500032,
                    "velocity": 0.3779527559055118,
                    "duration": 0.12532374999995
                },
                {
                    "name": "F2",
                    "midi": 41,
                    "time": 423.34362750000315,
                    "velocity": 0.44881889763779526,
                    "duration": 0.12532375000000684
                },
                {
                    "name": "C3",
                    "midi": 48,
                    "time": 423.46895125000316,
                    "velocity": 0.41732283464566927,
                    "duration": 0.12532375000000684
                },
                {
                    "name": "F2",
                    "midi": 41,
                    "time": 423.59427500000317,
                    "velocity": 0.49606299212598426,
                    "duration": 0.12532375000000684
                },
                {
                    "name": "C3",
                    "midi": 48,
                    "time": 423.7195987500032,
                    "velocity": 0.3858267716535433,
                    "duration": 0.12532375000000684
                },
                {
                    "name": "F2",
                    "midi": 41,
                    "time": 423.8449225000032,
                    "velocity": 0.49606299212598426,
                    "duration": 0.12532375000000684
                },
                {
                    "name": "C3",
                    "midi": 48,
                    "time": 423.9702462500032,
                    "velocity": 0.3937007874015748,
                    "duration": 0.12532375000000684
                },
                {
                    "name": "F2",
                    "midi": 41,
                    "time": 424.0955700000032,
                    "velocity": 0.5354330708661418,
                    "duration": 0.12532375000000684
                },
                {
                    "name": "C3",
                    "midi": 48,
                    "time": 424.2208937500032,
                    "velocity": 0.3779527559055118,
                    "duration": 0.12532375000000684
                },
                {
                    "name": "F2",
                    "midi": 41,
                    "time": 424.3462175000032,
                    "velocity": 0.5118110236220472,
                    "duration": 0.12532375000000684
                },
                {
                    "name": "C3",
                    "midi": 48,
                    "time": 424.4715412500032,
                    "velocity": 0.3858267716535433,
                    "duration": 0.12532375000000684
                },
                {
                    "name": "F2",
                    "midi": 41,
                    "time": 424.5968650000032,
                    "velocity": 0.5433070866141733,
                    "duration": 0.12532375000000684
                },
                {
                    "name": "C3",
                    "midi": 48,
                    "time": 424.7221887500032,
                    "velocity": 0.4015748031496063,
                    "duration": 0.12532375000000684
                },
                {
                    "name": "F2",
                    "midi": 41,
                    "time": 424.84751250000323,
                    "velocity": 0.5118110236220472,
                    "duration": 0.12532375000000684
                },
                {
                    "name": "C3",
                    "midi": 48,
                    "time": 424.97283625000324,
                    "velocity": 0.3779527559055118,
                    "duration": 0.12532375000000684
                },
                {
                    "name": "F2",
                    "midi": 41,
                    "time": 425.09816000000325,
                    "velocity": 0.5905511811023622,
                    "duration": 1.0025899999999979
                },
                {
                    "name": "A2",
                    "midi": 45,
                    "time": 425.09816000000325,
                    "velocity": 0.5905511811023622,
                    "duration": 1.0025899999999979
                },
                {
                    "name": "D3",
                    "midi": 50,
                    "time": 425.09816000000325,
                    "velocity": 0.6614173228346457,
                    "duration": 1.0025899999999979
                },
                {
                    "name": "F3",
                    "midi": 53,
                    "time": 425.09816000000325,
                    "velocity": 0.6614173228346457,
                    "duration": 1.0025899999999979
                },
                {
                    "name": "A2",
                    "midi": 45,
                    "time": 426.10075000000325,
                    "velocity": 0.5433070866141733,
                    "duration": 0.20887291666667807
                },
                {
                    "name": "A3",
                    "midi": 57,
                    "time": 426.10075000000325,
                    "velocity": 0.6062992125984252,
                    "duration": 0.20887291666667807
                },
                {
                    "name": "E2",
                    "midi": 40,
                    "time": 427.10334000000324,
                    "velocity": 0.5905511811023622,
                    "duration": 1.0025899999999979
                },
                {
                    "name": "A2",
                    "midi": 45,
                    "time": 427.10334000000324,
                    "velocity": 0.5905511811023622,
                    "duration": 1.0025899999999979
                },
                {
                    "name": "C#3",
                    "midi": 49,
                    "time": 427.10334000000324,
                    "velocity": 0.6614173228346457,
                    "duration": 1.0025899999999979
                },
                {
                    "name": "E3",
                    "midi": 52,
                    "time": 427.10334000000324,
                    "velocity": 0.6614173228346457,
                    "duration": 1.0025899999999979
                },
                {
                    "name": "A2",
                    "midi": 45,
                    "time": 428.10593000000324,
                    "velocity": 0.5433070866141733,
                    "duration": 0.20887291666667807
                },
                {
                    "name": "A3",
                    "midi": 57,
                    "time": 428.10593000000324,
                    "velocity": 0.6062992125984252,
                    "duration": 0.20887291666667807
                },
                {
                    "name": "D2",
                    "midi": 38,
                    "time": 429.10852000000324,
                    "velocity": 0.5905511811023622,
                    "duration": 1.0025899999999979
                },
                {
                    "name": "F2",
                    "midi": 41,
                    "time": 429.10852000000324,
                    "velocity": 0.5905511811023622,
                    "duration": 1.0025899999999979
                },
                {
                    "name": "A2",
                    "midi": 45,
                    "time": 429.10852000000324,
                    "velocity": 0.6614173228346457,
                    "duration": 1.0025899999999979
                },
                {
                    "name": "D3",
                    "midi": 50,
                    "time": 429.10852000000324,
                    "velocity": 0.6614173228346457,
                    "duration": 1.0025899999999979
                },
                {
                    "name": "A2",
                    "midi": 45,
                    "time": 430.11111000000324,
                    "velocity": 0.5433070866141733,
                    "duration": 0.20887291666667807
                },
                {
                    "name": "A3",
                    "midi": 57,
                    "time": 430.11111000000324,
                    "velocity": 0.6062992125984252,
                    "duration": 0.20887291666667807
                },
                {
                    "name": "E2",
                    "midi": 40,
                    "time": 431.11370000000323,
                    "velocity": 0.5905511811023622,
                    "duration": 1.0025899999999979
                },
                {
                    "name": "A2",
                    "midi": 45,
                    "time": 431.11370000000323,
                    "velocity": 0.5905511811023622,
                    "duration": 1.0025899999999979
                },
                {
                    "name": "C#3",
                    "midi": 49,
                    "time": 431.11370000000323,
                    "velocity": 0.6614173228346457,
                    "duration": 1.0025899999999979
                },
                {
                    "name": "E3",
                    "midi": 52,
                    "time": 431.11370000000323,
                    "velocity": 0.6614173228346457,
                    "duration": 1.0025899999999979
                },
                {
                    "name": "A2",
                    "midi": 45,
                    "time": 432.11629000000323,
                    "velocity": 0.5433070866141733,
                    "duration": 0.20887291666662122
                },
                {
                    "name": "A3",
                    "midi": 57,
                    "time": 432.11629000000323,
                    "velocity": 0.6062992125984252,
                    "duration": 0.20887291666662122
                },
                {
                    "name": "A4",
                    "midi": 69,
                    "time": 432.6175850000032,
                    "velocity": 0.6692913385826772,
                    "duration": 0.2506475000000137
                },
                {
                    "name": "A3",
                    "midi": 57,
                    "time": 432.6175850000032,
                    "velocity": 0.6692913385826772,
                    "duration": 0.2506475000000137
                },
                {
                    "name": "G4",
                    "midi": 67,
                    "time": 432.9935562500032,
                    "velocity": 0.5748031496062992,
                    "duration": 0.06266187500000342
                },
                {
                    "name": "G3",
                    "midi": 55,
                    "time": 432.9935562500032,
                    "velocity": 0.5748031496062992,
                    "duration": 0.06266187500000342
                },
                {
                    "name": "F4",
                    "midi": 65,
                    "time": 433.11888000000323,
                    "velocity": 0.6850393700787402,
                    "duration": 0.18798562500001026
                },
                {
                    "name": "F3",
                    "midi": 53,
                    "time": 433.11888000000323,
                    "velocity": 0.6850393700787402,
                    "duration": 0.18798562500001026
                },
                {
                    "name": "E4",
                    "midi": 64,
                    "time": 433.49485125000325,
                    "velocity": 0.5669291338582677,
                    "duration": 0.06266187500000342
                },
                {
                    "name": "E3",
                    "midi": 52,
                    "time": 433.49485125000325,
                    "velocity": 0.5669291338582677,
                    "duration": 0.06266187500000342
                },
                {
                    "name": "D3",
                    "midi": 50,
                    "time": 433.62017500000326,
                    "velocity": 0.6141732283464567,
                    "duration": 0.18798562499995342
                },
                {
                    "name": "D4",
                    "midi": 62,
                    "time": 433.62017500000326,
                    "velocity": 0.6141732283464567,
                    "duration": 0.18798562499995342
                },
                {
                    "name": "C#3",
                    "midi": 49,
                    "time": 433.9961462500032,
                    "velocity": 0.5669291338582677,
                    "duration": 0.06266187500000342
                },
                {
                    "name": "C#4",
                    "midi": 61,
                    "time": 433.9961462500032,
                    "velocity": 0.5669291338582677,
                    "duration": 0.06266187500000342
                },
                {
                    "name": "D3",
                    "midi": 50,
                    "time": 434.1214700000032,
                    "velocity": 0.6141732283464567,
                    "duration": 0.18798562500001026
                },
                {
                    "name": "D4",
                    "midi": 62,
                    "time": 434.1214700000032,
                    "velocity": 0.6141732283464567,
                    "duration": 0.18798562500001026
                },
                {
                    "name": "C3",
                    "midi": 48,
                    "time": 434.49744125000325,
                    "velocity": 0.5511811023622047,
                    "duration": 0.06266187500000342
                },
                {
                    "name": "C4",
                    "midi": 60,
                    "time": 434.49744125000325,
                    "velocity": 0.5511811023622047,
                    "duration": 0.06266187500000342
                },
                {
                    "name": "A#2",
                    "midi": 46,
                    "time": 434.62276500000326,
                    "velocity": 0.6220472440944882,
                    "duration": 0.18798562500001026
                },
                {
                    "name": "A#3",
                    "midi": 58,
                    "time": 434.62276500000326,
                    "velocity": 0.6220472440944882,
                    "duration": 0.18798562500001026
                },
                {
                    "name": "A2",
                    "midi": 45,
                    "time": 434.9987362500033,
                    "velocity": 0.5905511811023622,
                    "duration": 0.06266187500000342
                },
                {
                    "name": "A3",
                    "midi": 57,
                    "time": 434.9987362500033,
                    "velocity": 0.5905511811023622,
                    "duration": 0.06266187500000342
                },
                {
                    "name": "G2",
                    "midi": 43,
                    "time": 435.1240600000033,
                    "velocity": 0.5748031496062992,
                    "duration": 0.18798562500001026
                },
                {
                    "name": "G3",
                    "midi": 55,
                    "time": 435.1240600000033,
                    "velocity": 0.5748031496062992,
                    "duration": 0.18798562500001026
                },
                {
                    "name": "F2",
                    "midi": 41,
                    "time": 435.5000312500033,
                    "velocity": 0.5433070866141733,
                    "duration": 0.06266187500000342
                },
                {
                    "name": "F3",
                    "midi": 53,
                    "time": 435.5000312500033,
                    "velocity": 0.5433070866141733,
                    "duration": 0.06266187500000342
                },
                {
                    "name": "E2",
                    "midi": 40,
                    "time": 435.6253550000033,
                    "velocity": 0.5826771653543307,
                    "duration": 0.18798562500001026
                },
                {
                    "name": "E3",
                    "midi": 52,
                    "time": 435.6253550000033,
                    "velocity": 0.5826771653543307,
                    "duration": 0.18798562500001026
                },
                {
                    "name": "D2",
                    "midi": 38,
                    "time": 436.00132625000333,
                    "velocity": 0.5354330708661418,
                    "duration": 0.06266187500000342
                },
                {
                    "name": "D3",
                    "midi": 50,
                    "time": 436.00132625000333,
                    "velocity": 0.5354330708661418,
                    "duration": 0.06266187500000342
                },
                {
                    "name": "C#2",
                    "midi": 37,
                    "time": 436.12665000000334,
                    "velocity": 0.6299212598425197,
                    "duration": 0.18798562499995342
                },
                {
                    "name": "C#3",
                    "midi": 49,
                    "time": 436.12665000000334,
                    "velocity": 0.6299212598425197,
                    "duration": 0.18798562499995342
                },
                {
                    "name": "A#1",
                    "midi": 34,
                    "time": 436.5026212500033,
                    "velocity": 0.5826771653543307,
                    "duration": 0.06266187500000342
                },
                {
                    "name": "A#2",
                    "midi": 46,
                    "time": 436.5026212500033,
                    "velocity": 0.5826771653543307,
                    "duration": 0.06266187500000342
                },
                {
                    "name": "A1",
                    "midi": 33,
                    "time": 436.6279450000033,
                    "velocity": 0.6614173228346457,
                    "duration": 0.18798562500001026
                },
                {
                    "name": "A2",
                    "midi": 45,
                    "time": 436.6279450000033,
                    "velocity": 0.6614173228346457,
                    "duration": 0.18798562500001026
                },
                {
                    "name": "G1",
                    "midi": 31,
                    "time": 437.00391625000333,
                    "velocity": 0.5748031496062992,
                    "duration": 0.06266187500000342
                },
                {
                    "name": "G2",
                    "midi": 43,
                    "time": 437.00391625000333,
                    "velocity": 0.5748031496062992,
                    "duration": 0.06266187500000342
                },
                {
                    "name": "F1",
                    "midi": 29,
                    "time": 437.12924000000334,
                    "velocity": 0.6614173228346457,
                    "duration": 0.33419666666662806
                },
                {
                    "name": "F2",
                    "midi": 41,
                    "time": 437.12924000000334,
                    "velocity": 0.6614173228346457,
                    "duration": 0.33419666666662806
                },
                {
                    "name": "G4",
                    "midi": 67,
                    "time": 437.5052112500033,
                    "velocity": 0.5433070866141733,
                    "duration": 0.06266187500000342
                },
                {
                    "name": "G3",
                    "midi": 55,
                    "time": 437.5052112500033,
                    "velocity": 0.5433070866141733,
                    "duration": 0.06266187500000342
                },
                {
                    "name": "F4",
                    "midi": 65,
                    "time": 437.6305350000033,
                    "velocity": 0.5984251968503937,
                    "duration": 0.18798562500001026
                },
                {
                    "name": "F3",
                    "midi": 53,
                    "time": 437.6305350000033,
                    "velocity": 0.5984251968503937,
                    "duration": 0.18798562500001026
                },
                {
                    "name": "E4",
                    "midi": 64,
                    "time": 438.0065062500033,
                    "velocity": 0.5196850393700787,
                    "duration": 0.06266187500000342
                },
                {
                    "name": "E3",
                    "midi": 52,
                    "time": 438.0065062500033,
                    "velocity": 0.5196850393700787,
                    "duration": 0.06266187500000342
                },
                {
                    "name": "D3",
                    "midi": 50,
                    "time": 438.13183000000333,
                    "velocity": 0.6062992125984252,
                    "duration": 0.18798562500001026
                },
                {
                    "name": "D4",
                    "midi": 62,
                    "time": 438.13183000000333,
                    "velocity": 0.6062992125984252,
                    "duration": 0.18798562500001026
                },
                {
                    "name": "C3",
                    "midi": 48,
                    "time": 438.50780125000335,
                    "velocity": 0.5118110236220472,
                    "duration": 0.06266187500000342
                },
                {
                    "name": "C4",
                    "midi": 60,
                    "time": 438.50780125000335,
                    "velocity": 0.5118110236220472,
                    "duration": 0.06266187500000342
                },
                {
                    "name": "A#2",
                    "midi": 46,
                    "time": 438.63312500000336,
                    "velocity": 0.5984251968503937,
                    "duration": 0.18798562500001026
                },
                {
                    "name": "A#3",
                    "midi": 58,
                    "time": 438.63312500000336,
                    "velocity": 0.5984251968503937,
                    "duration": 0.18798562500001026
                },
                {
                    "name": "A2",
                    "midi": 45,
                    "time": 439.0090962500034,
                    "velocity": 0.5275590551181102,
                    "duration": 0.06266187500000342
                },
                {
                    "name": "A3",
                    "midi": 57,
                    "time": 439.0090962500034,
                    "velocity": 0.5275590551181102,
                    "duration": 0.06266187500000342
                },
                {
                    "name": "G2",
                    "midi": 43,
                    "time": 439.1344200000034,
                    "velocity": 0.5826771653543307,
                    "duration": 0.18798562500001026
                },
                {
                    "name": "G3",
                    "midi": 55,
                    "time": 439.1344200000034,
                    "velocity": 0.5826771653543307,
                    "duration": 0.18798562500001026
                },
                {
                    "name": "F2",
                    "midi": 41,
                    "time": 439.5103912500034,
                    "velocity": 0.5275590551181102,
                    "duration": 0.06266187500000342
                },
                {
                    "name": "F3",
                    "midi": 53,
                    "time": 439.5103912500034,
                    "velocity": 0.5275590551181102,
                    "duration": 0.06266187500000342
                },
                {
                    "name": "E2",
                    "midi": 40,
                    "time": 439.6357150000034,
                    "velocity": 0.5748031496062992,
                    "duration": 0.18798562499995342
                },
                {
                    "name": "E3",
                    "midi": 52,
                    "time": 439.6357150000034,
                    "velocity": 0.5748031496062992,
                    "duration": 0.18798562499995342
                },
                {
                    "name": "D2",
                    "midi": 38,
                    "time": 440.0116862500034,
                    "velocity": 0.5275590551181102,
                    "duration": 0.06266187500000342
                },
                {
                    "name": "D3",
                    "midi": 50,
                    "time": 440.0116862500034,
                    "velocity": 0.5275590551181102,
                    "duration": 0.06266187500000342
                },
                {
                    "name": "C#2",
                    "midi": 37,
                    "time": 440.1370100000034,
                    "velocity": 0.6141732283464567,
                    "duration": 0.18798562500001026
                },
                {
                    "name": "C#3",
                    "midi": 49,
                    "time": 440.1370100000034,
                    "velocity": 0.6141732283464567,
                    "duration": 0.18798562500001026
                },
                {
                    "name": "A#1",
                    "midi": 34,
                    "time": 440.5129812500034,
                    "velocity": 0.5669291338582677,
                    "duration": 0.06266187500000342
                },
                {
                    "name": "A#2",
                    "midi": 46,
                    "time": 440.5129812500034,
                    "velocity": 0.5669291338582677,
                    "duration": 0.06266187500000342
                },
                {
                    "name": "A1",
                    "midi": 33,
                    "time": 440.6383050000034,
                    "velocity": 0.6377952755905512,
                    "duration": 0.18798562500001026
                },
                {
                    "name": "A2",
                    "midi": 45,
                    "time": 440.6383050000034,
                    "velocity": 0.6377952755905512,
                    "duration": 0.18798562500001026
                },
                {
                    "name": "G1",
                    "midi": 31,
                    "time": 441.01427625000343,
                    "velocity": 0.5511811023622047,
                    "duration": 0.06266187500000342
                },
                {
                    "name": "G2",
                    "midi": 43,
                    "time": 441.0205424375034,
                    "velocity": 0.5511811023622047,
                    "duration": 0.06266187500000342
                },
                {
                    "name": "F1",
                    "midi": 29,
                    "time": 441.13960000000344,
                    "velocity": 0.6614173228346457,
                    "duration": 0.33419666666662806
                },
                {
                    "name": "F2",
                    "midi": 41,
                    "time": 441.13960000000344,
                    "velocity": 0.6614173228346457,
                    "duration": 0.33419666666662806
                },
                {
                    "name": "G4",
                    "midi": 67,
                    "time": 441.5155712500034,
                    "velocity": 0.5590551181102362,
                    "duration": 0.06266187500000342
                },
                {
                    "name": "G3",
                    "midi": 55,
                    "time": 441.5155712500034,
                    "velocity": 0.5590551181102362,
                    "duration": 0.06266187500000342
                },
                {
                    "name": "F4",
                    "midi": 65,
                    "time": 441.6408950000034,
                    "velocity": 0.6141732283464567,
                    "duration": 0.18798562500001026
                },
                {
                    "name": "F3",
                    "midi": 53,
                    "time": 441.6408950000034,
                    "velocity": 0.6141732283464567,
                    "duration": 0.18798562500001026
                },
                {
                    "name": "E4",
                    "midi": 64,
                    "time": 442.01686625000343,
                    "velocity": 0.5590551181102362,
                    "duration": 0.06266187500000342
                },
                {
                    "name": "E3",
                    "midi": 52,
                    "time": 442.01686625000343,
                    "velocity": 0.5590551181102362,
                    "duration": 0.06266187500000342
                },
                {
                    "name": "F3",
                    "midi": 53,
                    "time": 442.14219000000344,
                    "velocity": 0.6062992125984252,
                    "duration": 0.18798562499995342
                },
                {
                    "name": "F4",
                    "midi": 65,
                    "time": 442.14219000000344,
                    "velocity": 0.6062992125984252,
                    "duration": 0.18798562499995342
                },
                {
                    "name": "E3",
                    "midi": 52,
                    "time": 442.5181612500034,
                    "velocity": 0.5433070866141733,
                    "duration": 0.06266187500000342
                },
                {
                    "name": "E4",
                    "midi": 64,
                    "time": 442.5181612500034,
                    "velocity": 0.5433070866141733,
                    "duration": 0.06266187500000342
                },
                {
                    "name": "D3",
                    "midi": 50,
                    "time": 442.6434850000034,
                    "velocity": 0.5984251968503937,
                    "duration": 0.18798562500001026
                },
                {
                    "name": "D4",
                    "midi": 62,
                    "time": 442.6434850000034,
                    "velocity": 0.5984251968503937,
                    "duration": 0.18798562500001026
                },
                {
                    "name": "C3",
                    "midi": 48,
                    "time": 443.01945625000343,
                    "velocity": 0.5433070866141733,
                    "duration": 0.06266187500000342
                },
                {
                    "name": "C4",
                    "midi": 60,
                    "time": 443.01945625000343,
                    "velocity": 0.5433070866141733,
                    "duration": 0.06266187500000342
                },
                {
                    "name": "A#2",
                    "midi": 46,
                    "time": 443.14478000000344,
                    "velocity": 0.6141732283464567,
                    "duration": 0.18798562500001026
                },
                {
                    "name": "A#3",
                    "midi": 58,
                    "time": 443.14478000000344,
                    "velocity": 0.6141732283464567,
                    "duration": 0.18798562500001026
                },
                {
                    "name": "A2",
                    "midi": 45,
                    "time": 443.52075125000346,
                    "velocity": 0.5196850393700787,
                    "duration": 0.06266187500000342
                },
                {
                    "name": "A3",
                    "midi": 57,
                    "time": 443.52075125000346,
                    "velocity": 0.5196850393700787,
                    "duration": 0.06266187500000342
                },
                {
                    "name": "G2",
                    "midi": 43,
                    "time": 443.64607500000346,
                    "velocity": 0.5669291338582677,
                    "duration": 0.18798562500001026
                },
                {
                    "name": "G3",
                    "midi": 55,
                    "time": 443.64607500000346,
                    "velocity": 0.5669291338582677,
                    "duration": 0.18798562500001026
                },
                {
                    "name": "F2",
                    "midi": 41,
                    "time": 444.0220462500035,
                    "velocity": 0.5354330708661418,
                    "duration": 0.06266187500000342
                },
                {
                    "name": "F3",
                    "midi": 53,
                    "time": 444.0220462500035,
                    "velocity": 0.5354330708661418,
                    "duration": 0.06266187500000342
                },
                {
                    "name": "E2",
                    "midi": 40,
                    "time": 444.1473700000035,
                    "velocity": 0.5826771653543307,
                    "duration": 0.18798562500001026
                },
                {
                    "name": "E3",
                    "midi": 52,
                    "time": 444.1473700000035,
                    "velocity": 0.5826771653543307,
                    "duration": 0.18798562500001026
                },
                {
                    "name": "D2",
                    "midi": 38,
                    "time": 444.5233412500035,
                    "velocity": 0.5433070866141733,
                    "duration": 0.06266187500000342
                },
                {
                    "name": "D3",
                    "midi": 50,
                    "time": 444.5233412500035,
                    "velocity": 0.5433070866141733,
                    "duration": 0.06266187500000342
                },
                {
                    "name": "C2",
                    "midi": 36,
                    "time": 444.6486650000035,
                    "velocity": 0.6220472440944882,
                    "duration": 0.18798562500001026
                },
                {
                    "name": "C3",
                    "midi": 48,
                    "time": 444.6486650000035,
                    "velocity": 0.6220472440944882,
                    "duration": 0.18798562500001026
                },
                {
                    "name": "A#1",
                    "midi": 34,
                    "time": 445.02463625000354,
                    "velocity": 0.5590551181102362,
                    "duration": 0.06266187500000342
                },
                {
                    "name": "A#2",
                    "midi": 46,
                    "time": 445.02463625000354,
                    "velocity": 0.5590551181102362,
                    "duration": 0.06266187500000342
                },
                {
                    "name": "A1",
                    "midi": 33,
                    "time": 445.14996000000355,
                    "velocity": 0.6692913385826772,
                    "duration": 0.3341966666666849
                },
                {
                    "name": "A2",
                    "midi": 45,
                    "time": 445.14996000000355,
                    "velocity": 0.6692913385826772,
                    "duration": 0.3341966666666849
                },
                {
                    "name": "A#3",
                    "midi": 58,
                    "time": 445.52593125000357,
                    "velocity": 0.5748031496062992,
                    "duration": 0.06266187500000342
                },
                {
                    "name": "A#4",
                    "midi": 70,
                    "time": 445.52593125000357,
                    "velocity": 0.5748031496062992,
                    "duration": 0.06266187500000342
                },
                {
                    "name": "A3",
                    "midi": 57,
                    "time": 445.6512550000036,
                    "velocity": 0.6299212598425197,
                    "duration": 0.18798562500001026
                },
                {
                    "name": "A4",
                    "midi": 69,
                    "time": 445.6512550000036,
                    "velocity": 0.6299212598425197,
                    "duration": 0.18798562500001026
                },
                {
                    "name": "G3",
                    "midi": 55,
                    "time": 446.0272262500036,
                    "velocity": 0.5590551181102362,
                    "duration": 0.06266187500000342
                },
                {
                    "name": "G4",
                    "midi": 67,
                    "time": 446.0272262500036,
                    "velocity": 0.5590551181102362,
                    "duration": 0.06266187500000342
                },
                {
                    "name": "F4",
                    "midi": 65,
                    "time": 446.1525500000036,
                    "velocity": 0.5984251968503937,
                    "duration": 0.18798562500001026
                },
                {
                    "name": "F3",
                    "midi": 53,
                    "time": 446.1525500000036,
                    "velocity": 0.5984251968503937,
                    "duration": 0.18798562500001026
                },
                {
                    "name": "E4",
                    "midi": 64,
                    "time": 446.5285212500036,
                    "velocity": 0.5669291338582677,
                    "duration": 0.06266187500000342
                },
                {
                    "name": "E3",
                    "midi": 52,
                    "time": 446.5285212500036,
                    "velocity": 0.5669291338582677,
                    "duration": 0.06266187500000342
                },
                {
                    "name": "D3",
                    "midi": 50,
                    "time": 446.6538450000036,
                    "velocity": 0.6456692913385826,
                    "duration": 0.18798562500001026
                },
                {
                    "name": "D4",
                    "midi": 62,
                    "time": 446.6538450000036,
                    "velocity": 0.6456692913385826,
                    "duration": 0.18798562500001026
                },
                {
                    "name": "C3",
                    "midi": 48,
                    "time": 447.02981625000365,
                    "velocity": 0.5433070866141733,
                    "duration": 0.06266187500000342
                },
                {
                    "name": "C4",
                    "midi": 60,
                    "time": 447.02981625000365,
                    "velocity": 0.5433070866141733,
                    "duration": 0.06266187500000342
                },
                {
                    "name": "A#2",
                    "midi": 46,
                    "time": 447.15514000000366,
                    "velocity": 0.6692913385826772,
                    "duration": 0.18798562500001026
                },
                {
                    "name": "A#3",
                    "midi": 58,
                    "time": 447.15514000000366,
                    "velocity": 0.6692913385826772,
                    "duration": 0.18798562500001026
                },
                {
                    "name": "A2",
                    "midi": 45,
                    "time": 447.5311112500037,
                    "velocity": 0.5433070866141733,
                    "duration": 0.06266187500000342
                },
                {
                    "name": "A3",
                    "midi": 57,
                    "time": 447.5311112500037,
                    "velocity": 0.5433070866141733,
                    "duration": 0.06266187500000342
                },
                {
                    "name": "G2",
                    "midi": 43,
                    "time": 447.6564350000037,
                    "velocity": 0.6299212598425197,
                    "duration": 0.1879856250000671
                },
                {
                    "name": "G3",
                    "midi": 55,
                    "time": 447.6564350000037,
                    "velocity": 0.6299212598425197,
                    "duration": 0.1879856250000671
                },
                {
                    "name": "F2",
                    "midi": 41,
                    "time": 448.03240625000376,
                    "velocity": 0.5511811023622047,
                    "duration": 0.06266187500000342
                },
                {
                    "name": "F3",
                    "midi": 53,
                    "time": 448.03240625000376,
                    "velocity": 0.5511811023622047,
                    "duration": 0.06266187500000342
                },
                {
                    "name": "E2",
                    "midi": 40,
                    "time": 448.15773000000377,
                    "velocity": 0.6535433070866141,
                    "duration": 0.18798562500001026
                },
                {
                    "name": "E3",
                    "midi": 52,
                    "time": 448.15773000000377,
                    "velocity": 0.6535433070866141,
                    "duration": 0.18798562500001026
                },
                {
                    "name": "D2",
                    "midi": 38,
                    "time": 448.5337012500038,
                    "velocity": 0.5748031496062992,
                    "duration": 0.06266187500000342
                },
                {
                    "name": "D3",
                    "midi": 50,
                    "time": 448.5337012500038,
                    "velocity": 0.5748031496062992,
                    "duration": 0.06266187500000342
                },
                {
                    "name": "C2",
                    "midi": 36,
                    "time": 448.6590250000038,
                    "velocity": 0.6614173228346457,
                    "duration": 0.18798562499995342
                },
                {
                    "name": "C3",
                    "midi": 48,
                    "time": 448.6590250000038,
                    "velocity": 0.6614173228346457,
                    "duration": 0.18798562499995342
                },
                {
                    "name": "A#1",
                    "midi": 34,
                    "time": 449.03499625000376,
                    "velocity": 0.6614173228346457,
                    "duration": 0.06266187500000342
                },
                {
                    "name": "A#2",
                    "midi": 46,
                    "time": 449.03499625000376,
                    "velocity": 0.6614173228346457,
                    "duration": 0.06266187500000342
                },
                {
                    "name": "A1",
                    "midi": 33,
                    "time": 449.16032000000376,
                    "velocity": 0.6141732283464567,
                    "duration": 1.0025899999999979
                },
                {
                    "name": "C2",
                    "midi": 36,
                    "time": 449.16032000000376,
                    "velocity": 0.6141732283464567,
                    "duration": 1.0025899999999979
                },
                {
                    "name": "F2",
                    "midi": 41,
                    "time": 449.16032000000376,
                    "velocity": 0.6850393700787402,
                    "duration": 1.0025899999999979
                },
                {
                    "name": "A2",
                    "midi": 45,
                    "time": 449.16032000000376,
                    "velocity": 0.6850393700787402,
                    "duration": 1.0025899999999979
                },
                {
                    "name": "F3",
                    "midi": 53,
                    "time": 450.16291000000376,
                    "velocity": 0.4566929133858268,
                    "duration": 0.12532375000000684
                },
                {
                    "name": "A3",
                    "midi": 57,
                    "time": 450.16291000000376,
                    "velocity": 0.4566929133858268,
                    "duration": 0.12532375000000684
                },
                {
                    "name": "C3",
                    "midi": 48,
                    "time": 450.16291000000376,
                    "velocity": 0.4094488188976378,
                    "duration": 0.12532375000000684
                },
                {
                    "name": "A2",
                    "midi": 45,
                    "time": 450.16291000000376,
                    "velocity": 0.4094488188976378,
                    "duration": 0.12532375000000684
                },
                {
                    "name": "A1",
                    "midi": 33,
                    "time": 451.1655000000038,
                    "velocity": 0.47244094488188976,
                    "duration": 1.0025900000000547
                },
                {
                    "name": "C2",
                    "midi": 36,
                    "time": 451.1655000000038,
                    "velocity": 0.5275590551181102,
                    "duration": 1.0025900000000547
                },
                {
                    "name": "F2",
                    "midi": 41,
                    "time": 451.1655000000038,
                    "velocity": 0.5275590551181102,
                    "duration": 1.0025900000000547
                },
                {
                    "name": "F1",
                    "midi": 29,
                    "time": 451.1655000000038,
                    "velocity": 0.47244094488188976,
                    "duration": 1.0025900000000547
                },
                {
                    "name": "A2",
                    "midi": 45,
                    "time": 452.1680900000039,
                    "velocity": 0.4094488188976378,
                    "duration": 0.12532375000000684
                },
                {
                    "name": "C3",
                    "midi": 48,
                    "time": 452.1680900000039,
                    "velocity": 0.4566929133858268,
                    "duration": 0.12532375000000684
                },
                {
                    "name": "F3",
                    "midi": 53,
                    "time": 452.1680900000039,
                    "velocity": 0.4566929133858268,
                    "duration": 0.12532375000000684
                },
                {
                    "name": "F2",
                    "midi": 41,
                    "time": 452.1680900000039,
                    "velocity": 0.4094488188976378,
                    "duration": 0.12532375000000684
                },
                {
                    "name": "A1",
                    "midi": 33,
                    "time": 453.17068000000387,
                    "velocity": 0.5511811023622047,
                    "duration": 0.3341966666666849
                },
                {
                    "name": "A2",
                    "midi": 45,
                    "time": 453.17068000000387,
                    "velocity": 0.6141732283464567,
                    "duration": 0.3341966666666849
                },
                {
                    "name": "C#2",
                    "midi": 37,
                    "time": 453.5466512500039,
                    "velocity": 0.49606299212598426,
                    "duration": 0.08354916666667123
                },
                {
                    "name": "C#3",
                    "midi": 49,
                    "time": 453.5466512500039,
                    "velocity": 0.5511811023622047,
                    "duration": 0.08354916666667123
                },
                {
                    "name": "C#2",
                    "midi": 37,
                    "time": 453.6719750000039,
                    "velocity": 0.5511811023622047,
                    "duration": 0.3341966666666849
                },
                {
                    "name": "C#3",
                    "midi": 49,
                    "time": 453.6719750000039,
                    "velocity": 0.6141732283464567,
                    "duration": 0.3341966666666849
                },
                {
                    "name": "E2",
                    "midi": 40,
                    "time": 454.0479462500039,
                    "velocity": 0.49606299212598426,
                    "duration": 0.08354916666667123
                },
                {
                    "name": "E3",
                    "midi": 52,
                    "time": 454.0479462500039,
                    "velocity": 0.5511811023622047,
                    "duration": 0.08354916666667123
                },
                {
                    "name": "E2",
                    "midi": 40,
                    "time": 454.1732700000039,
                    "velocity": 0.5511811023622047,
                    "duration": 0.3341966666666849
                },
                {
                    "name": "E3",
                    "midi": 52,
                    "time": 454.1732700000039,
                    "velocity": 0.6141732283464567,
                    "duration": 0.3341966666666849
                },
                {
                    "name": "A2",
                    "midi": 45,
                    "time": 454.54924125000394,
                    "velocity": 0.49606299212598426,
                    "duration": 0.08354916666667123
                },
                {
                    "name": "A3",
                    "midi": 57,
                    "time": 454.54924125000394,
                    "velocity": 0.5511811023622047,
                    "duration": 0.08354916666667123
                },
                {
                    "name": "A2",
                    "midi": 45,
                    "time": 454.67456500000395,
                    "velocity": 0.5511811023622047,
                    "duration": 0.09399281250000513
                },
                {
                    "name": "A3",
                    "midi": 57,
                    "time": 454.67456500000395,
                    "velocity": 0.6141732283464567,
                    "duration": 0.09399281250000513
                },
                {
                    "name": "A2",
                    "midi": 45,
                    "time": 454.92521250000397,
                    "velocity": 0.49606299212598426,
                    "duration": 0.09399281250000513
                },
                {
                    "name": "A3",
                    "midi": 57,
                    "time": 454.92521250000397,
                    "velocity": 0.5590551181102362,
                    "duration": 0.09399281250000513
                },
                {
                    "name": "A3",
                    "midi": 57,
                    "time": 455.175860000004,
                    "velocity": 0.3937007874015748,
                    "duration": 0.3341966666666849
                },
                {
                    "name": "C#4",
                    "midi": 61,
                    "time": 455.551831250004,
                    "velocity": 0.31496062992125984,
                    "duration": 0.08354916666667123
                },
                {
                    "name": "C#4",
                    "midi": 61,
                    "time": 455.677155000004,
                    "velocity": 0.3858267716535433,
                    "duration": 0.3341966666666849
                },
                {
                    "name": "E4",
                    "midi": 64,
                    "time": 456.053126250004,
                    "velocity": 0.2992125984251969,
                    "duration": 0.08354916666667123
                },
                {
                    "name": "E4",
                    "midi": 64,
                    "time": 456.17845000000403,
                    "velocity": 0.3779527559055118,
                    "duration": 0.3341966666666849
                },
                {
                    "name": "A4",
                    "midi": 69,
                    "time": 456.55442125000405,
                    "velocity": 0.2992125984251969,
                    "duration": 0.08354916666667123
                },
                {
                    "name": "A4",
                    "midi": 69,
                    "time": 456.67974500000406,
                    "velocity": 0.3543307086614173,
                    "duration": 0.09399281250000513
                },
                {
                    "name": "A4",
                    "midi": 69,
                    "time": 456.9303925000041,
                    "velocity": 0.2992125984251969,
                    "duration": 0.09399281250000513
                },
                {
                    "name": "F4",
                    "midi": 65,
                    "time": 457.1810400000041,
                    "velocity": 0.3464566929133858,
                    "duration": 0.3341966666666849
                },
                {
                    "name": "A4",
                    "midi": 69,
                    "time": 457.1810400000041,
                    "velocity": 0.3464566929133858,
                    "duration": 0.3341966666666849
                },
                {
                    "name": "F4",
                    "midi": 65,
                    "time": 457.5570112500041,
                    "velocity": 0.25984251968503935,
                    "duration": 0.08354916666667123
                },
                {
                    "name": "A4",
                    "midi": 69,
                    "time": 457.5570112500041,
                    "velocity": 0.25984251968503935,
                    "duration": 0.08354916666667123
                },
                {
                    "name": "F4",
                    "midi": 65,
                    "time": 457.6823350000041,
                    "velocity": 0.33070866141732286,
                    "duration": 0.3341966666666849
                },
                {
                    "name": "A4",
                    "midi": 69,
                    "time": 457.6823350000041,
                    "velocity": 0.33070866141732286,
                    "duration": 0.3341966666666849
                },
                {
                    "name": "F4",
                    "midi": 65,
                    "time": 458.05830625000414,
                    "velocity": 0.25984251968503935,
                    "duration": 0.08354916666667123
                },
                {
                    "name": "A4",
                    "midi": 69,
                    "time": 458.05830625000414,
                    "velocity": 0.25984251968503935,
                    "duration": 0.08354916666667123
                },
                {
                    "name": "F4",
                    "midi": 65,
                    "time": 458.18363000000414,
                    "velocity": 0.33070866141732286,
                    "duration": 0.3341966666666849
                },
                {
                    "name": "A4",
                    "midi": 69,
                    "time": 458.18363000000414,
                    "velocity": 0.33070866141732286,
                    "duration": 0.3341966666666849
                },
                {
                    "name": "F4",
                    "midi": 65,
                    "time": 458.55960125000416,
                    "velocity": 0.2677165354330709,
                    "duration": 0.08354916666667123
                },
                {
                    "name": "A4",
                    "midi": 69,
                    "time": 458.55960125000416,
                    "velocity": 0.2677165354330709,
                    "duration": 0.08354916666667123
                },
                {
                    "name": "F4",
                    "midi": 65,
                    "time": 458.68492500000417,
                    "velocity": 0.31496062992125984,
                    "duration": 0.09399281250000513
                },
                {
                    "name": "A4",
                    "midi": 69,
                    "time": 458.68492500000417,
                    "velocity": 0.31496062992125984,
                    "duration": 0.09399281250000513
                },
                {
                    "name": "F4",
                    "midi": 65,
                    "time": 458.9355725000042,
                    "velocity": 0.28346456692913385,
                    "duration": 0.09399281250000513
                },
                {
                    "name": "A4",
                    "midi": 69,
                    "time": 458.9355725000042,
                    "velocity": 0.28346456692913385,
                    "duration": 0.09399281250000513
                },
                {
                    "name": "F2",
                    "midi": 41,
                    "time": 459.1862200000042,
                    "velocity": 0.2440944881889764,
                    "duration": 1.0025900000000547
                },
                {
                    "name": "F3",
                    "midi": 53,
                    "time": 459.1862200000042,
                    "velocity": 0.2440944881889764,
                    "duration": 1.0025900000000547
                },
                {
                    "name": "A2",
                    "midi": 45,
                    "time": 460.18881000000425,
                    "velocity": 0.29133858267716534,
                    "duration": 0.20887291666662122
                },
                {
                    "name": "A3",
                    "midi": 57,
                    "time": 460.18881000000425,
                    "velocity": 0.29133858267716534,
                    "duration": 0.20887291666662122
                },
                {
                    "name": "C3",
                    "midi": 48,
                    "time": 461.1914000000042,
                    "velocity": 0.2677165354330709,
                    "duration": 1.0025899999999979
                },
                {
                    "name": "G3",
                    "midi": 55,
                    "time": 461.1914000000042,
                    "velocity": 0.2677165354330709,
                    "duration": 1.0025899999999979
                },
                {
                    "name": "C4",
                    "midi": 60,
                    "time": 462.1939900000042,
                    "velocity": 0.29133858267716534,
                    "duration": 0.20887291666667807
                },
                {
                    "name": "G2",
                    "midi": 43,
                    "time": 463.1965800000042,
                    "velocity": 0.2440944881889764,
                    "duration": 1.002589999999941
                },
                {
                    "name": "G3",
                    "midi": 55,
                    "time": 463.1965800000042,
                    "velocity": 0.2440944881889764,
                    "duration": 1.002589999999941
                },
                {
                    "name": "A#2",
                    "midi": 46,
                    "time": 464.19917000000413,
                    "velocity": 0.29133858267716534,
                    "duration": 0.20887291666667807
                },
                {
                    "name": "A#3",
                    "midi": 58,
                    "time": 464.19917000000413,
                    "velocity": 0.29133858267716534,
                    "duration": 0.20887291666667807
                },
                {
                    "name": "D3",
                    "midi": 50,
                    "time": 465.2017600000042,
                    "velocity": 0.29133858267716534,
                    "duration": 1.0025899999999979
                },
                {
                    "name": "A3",
                    "midi": 57,
                    "time": 465.2017600000042,
                    "velocity": 0.29133858267716534,
                    "duration": 1.0025899999999979
                },
                {
                    "name": "D4",
                    "midi": 62,
                    "time": 466.2043500000042,
                    "velocity": 0.29133858267716534,
                    "duration": 0.20887291666667807
                },
                {
                    "name": "G2",
                    "midi": 43,
                    "time": 467.2069400000042,
                    "velocity": 0.31496062992125984,
                    "duration": 1.0025899999999979
                },
                {
                    "name": "D3",
                    "midi": 50,
                    "time": 467.2069400000042,
                    "velocity": 0.31496062992125984,
                    "duration": 1.0025899999999979
                },
                {
                    "name": "C3",
                    "midi": 48,
                    "time": 468.2095300000042,
                    "velocity": 0.29133858267716534,
                    "duration": 0.20887291666662122
                },
                {
                    "name": "E3",
                    "midi": 52,
                    "time": 468.2095300000042,
                    "velocity": 0.29133858267716534,
                    "duration": 0.20887291666662122
                },
                {
                    "name": "F2",
                    "midi": 41,
                    "time": 469.2121200000041,
                    "velocity": 0.3228346456692913,
                    "duration": 1.0025899999999979
                },
                {
                    "name": "C3",
                    "midi": 48,
                    "time": 469.2121200000041,
                    "velocity": 0.3228346456692913,
                    "duration": 1.0025899999999979
                },
                {
                    "name": "A#2",
                    "midi": 46,
                    "time": 470.2147100000041,
                    "velocity": 0.29133858267716534,
                    "duration": 0.20887291666662122
                },
                {
                    "name": "D3",
                    "midi": 50,
                    "time": 470.2147100000041,
                    "velocity": 0.29133858267716534,
                    "duration": 0.20887291666662122
                },
                {
                    "name": "A#2",
                    "midi": 46,
                    "time": 471.2173000000041,
                    "velocity": 0.3858267716535433,
                    "duration": 0.3759712500000205
                },
                {
                    "name": "D3",
                    "midi": 50,
                    "time": 471.2173000000041,
                    "velocity": 0.3858267716535433,
                    "duration": 0.3759712500000205
                },
                {
                    "name": "A#2",
                    "midi": 46,
                    "time": 471.59327125000414,
                    "velocity": 0.3858267716535433,
                    "duration": 0.12532375000000684
                },
                {
                    "name": "C#3",
                    "midi": 49,
                    "time": 471.59327125000414,
                    "velocity": 0.3858267716535433,
                    "duration": 0.12532375000000684
                },
                {
                    "name": "E3",
                    "midi": 52,
                    "time": 471.59327125000414,
                    "velocity": 0.3858267716535433,
                    "duration": 0.12532375000000684
                },
                {
                    "name": "A#2",
                    "midi": 46,
                    "time": 471.71859500000414,
                    "velocity": 0.41732283464566927,
                    "duration": 0.3759712500000205
                },
                {
                    "name": "C#3",
                    "midi": 49,
                    "time": 471.71859500000414,
                    "velocity": 0.41732283464566927,
                    "duration": 0.3759712500000205
                },
                {
                    "name": "E3",
                    "midi": 52,
                    "time": 471.71859500000414,
                    "velocity": 0.41732283464566927,
                    "duration": 0.3759712500000205
                },
                {
                    "name": "A#2",
                    "midi": 46,
                    "time": 472.09456625000416,
                    "velocity": 0.4094488188976378,
                    "duration": 0.12532375000000684
                },
                {
                    "name": "D3",
                    "midi": 50,
                    "time": 472.09456625000416,
                    "velocity": 0.4094488188976378,
                    "duration": 0.12532375000000684
                },
                {
                    "name": "F3",
                    "midi": 53,
                    "time": 472.09456625000416,
                    "velocity": 0.4094488188976378,
                    "duration": 0.12532375000000684
                },
                {
                    "name": "A#2",
                    "midi": 46,
                    "time": 472.21989000000417,
                    "velocity": 0.47244094488188976,
                    "duration": 0.3759712500000205
                },
                {
                    "name": "D3",
                    "midi": 50,
                    "time": 472.21989000000417,
                    "velocity": 0.47244094488188976,
                    "duration": 0.3759712500000205
                },
                {
                    "name": "F3",
                    "midi": 53,
                    "time": 472.21989000000417,
                    "velocity": 0.47244094488188976,
                    "duration": 0.3759712500000205
                },
                {
                    "name": "A#2",
                    "midi": 46,
                    "time": 472.5958612500042,
                    "velocity": 0.4645669291338583,
                    "duration": 0.12532375000000684
                },
                {
                    "name": "E3",
                    "midi": 52,
                    "time": 472.5958612500042,
                    "velocity": 0.4645669291338583,
                    "duration": 0.12532375000000684
                },
                {
                    "name": "G3",
                    "midi": 55,
                    "time": 472.5958612500042,
                    "velocity": 0.4645669291338583,
                    "duration": 0.12532375000000684
                },
                {
                    "name": "A#2",
                    "midi": 46,
                    "time": 472.7211850000042,
                    "velocity": 0.5039370078740157,
                    "duration": 0.3759712500000205
                },
                {
                    "name": "E3",
                    "midi": 52,
                    "time": 472.7211850000042,
                    "velocity": 0.5039370078740157,
                    "duration": 0.3759712500000205
                },
                {
                    "name": "G3",
                    "midi": 55,
                    "time": 472.7211850000042,
                    "velocity": 0.5039370078740157,
                    "duration": 0.3759712500000205
                },
                {
                    "name": "B2",
                    "midi": 47,
                    "time": 473.0971562500042,
                    "velocity": 0.47244094488188976,
                    "duration": 0.12532375000006368
                },
                {
                    "name": "F3",
                    "midi": 53,
                    "time": 473.0971562500042,
                    "velocity": 0.47244094488188976,
                    "duration": 0.12532375000006368
                },
                {
                    "name": "G#3",
                    "midi": 56,
                    "time": 473.0971562500042,
                    "velocity": 0.47244094488188976,
                    "duration": 0.12532375000006368
                },
                {
                    "name": "B2",
                    "midi": 47,
                    "time": 473.2224800000043,
                    "velocity": 0.5354330708661418,
                    "duration": 0.3759712500000205
                },
                {
                    "name": "F3",
                    "midi": 53,
                    "time": 473.2224800000043,
                    "velocity": 0.5354330708661418,
                    "duration": 0.3759712500000205
                },
                {
                    "name": "G#3",
                    "midi": 56,
                    "time": 473.2224800000043,
                    "velocity": 0.5354330708661418,
                    "duration": 0.3759712500000205
                },
                {
                    "name": "C2",
                    "midi": 36,
                    "time": 473.5984512500043,
                    "velocity": 0.49606299212598426,
                    "duration": 0.12532375000000684
                },
                {
                    "name": "C3",
                    "midi": 48,
                    "time": 473.5984512500043,
                    "velocity": 0.49606299212598426,
                    "duration": 0.12532375000000684
                },
                {
                    "name": "C2",
                    "midi": 36,
                    "time": 473.7237750000043,
                    "velocity": 0.5275590551181102,
                    "duration": 0.3759712500000205
                },
                {
                    "name": "C3",
                    "midi": 48,
                    "time": 473.7237750000043,
                    "velocity": 0.5275590551181102,
                    "duration": 0.3759712500000205
                },
                {
                    "name": "D2",
                    "midi": 38,
                    "time": 474.09974625000433,
                    "velocity": 0.5039370078740157,
                    "duration": 0.12532375000000684
                },
                {
                    "name": "D3",
                    "midi": 50,
                    "time": 474.09974625000433,
                    "velocity": 0.5039370078740157,
                    "duration": 0.12532375000000684
                },
                {
                    "name": "D2",
                    "midi": 38,
                    "time": 474.22507000000434,
                    "velocity": 0.5433070866141733,
                    "duration": 0.3759712500000205
                },
                {
                    "name": "D3",
                    "midi": 50,
                    "time": 474.22507000000434,
                    "velocity": 0.5433070866141733,
                    "duration": 0.3759712500000205
                },
                {
                    "name": "G1",
                    "midi": 31,
                    "time": 474.60104125000436,
                    "velocity": 0.4566929133858268,
                    "duration": 0.12532375000000684
                },
                {
                    "name": "G2",
                    "midi": 43,
                    "time": 474.60104125000436,
                    "velocity": 0.5118110236220472,
                    "duration": 0.12532375000000684
                },
                {
                    "name": "G1",
                    "midi": 31,
                    "time": 474.72636500000436,
                    "velocity": 0.5039370078740157,
                    "duration": 0.3759712500000205
                },
                {
                    "name": "G2",
                    "midi": 43,
                    "time": 474.72636500000436,
                    "velocity": 0.5669291338582677,
                    "duration": 0.3759712500000205
                },
                {
                    "name": "C2",
                    "midi": 36,
                    "time": 475.1023362500044,
                    "velocity": 0.48031496062992124,
                    "duration": 0.12532375000000684
                },
                {
                    "name": "C3",
                    "midi": 48,
                    "time": 475.1023362500044,
                    "velocity": 0.5354330708661418,
                    "duration": 0.12532375000000684
                },
                {
                    "name": "C2",
                    "midi": 36,
                    "time": 475.2276600000044,
                    "velocity": 0.5433070866141733,
                    "duration": 0.5012950000000274
                },
                {
                    "name": "C3",
                    "midi": 48,
                    "time": 475.2276600000044,
                    "velocity": 0.6062992125984252,
                    "duration": 0.5012950000000274
                },
                {
                    "name": "C3",
                    "midi": 48,
                    "time": 476.23025000000445,
                    "velocity": 0.7244094488188977,
                    "duration": 0.3759712500000205
                },
                {
                    "name": "C4",
                    "midi": 60,
                    "time": 476.23025000000445,
                    "velocity": 0.7244094488188977,
                    "duration": 0.3759712500000205
                },
                {
                    "name": "G#2",
                    "midi": 44,
                    "time": 476.60622125000447,
                    "velocity": 0.6377952755905512,
                    "duration": 0.08354916666667123
                },
                {
                    "name": "G#3",
                    "midi": 56,
                    "time": 476.60622125000447,
                    "velocity": 0.6377952755905512,
                    "duration": 0.08354916666667123
                },
                {
                    "name": "G#2",
                    "midi": 44,
                    "time": 476.7315450000045,
                    "velocity": 0.6692913385826772,
                    "duration": 0.09399281250000513
                },
                {
                    "name": "G#3",
                    "midi": 56,
                    "time": 476.7315450000045,
                    "velocity": 0.6692913385826772,
                    "duration": 0.09399281250000513
                },
                {
                    "name": "F2",
                    "midi": 41,
                    "time": 476.9821925000045,
                    "velocity": 0.6299212598425197,
                    "duration": 0.09399281250000513
                },
                {
                    "name": "F3",
                    "midi": 53,
                    "time": 476.9821925000045,
                    "velocity": 0.6299212598425197,
                    "duration": 0.09399281250000513
                },
                {
                    "name": "C2",
                    "midi": 36,
                    "time": 477.2328400000045,
                    "velocity": 0.6062992125984252,
                    "duration": 0.5012950000000274
                },
                {
                    "name": "C3",
                    "midi": 48,
                    "time": 477.2328400000045,
                    "velocity": 0.6062992125984252,
                    "duration": 0.5012950000000274
                },
                {
                    "name": "C3",
                    "midi": 48,
                    "time": 478.23543000000456,
                    "velocity": 0.7244094488188977,
                    "duration": 0.3759712500000205
                },
                {
                    "name": "C4",
                    "midi": 60,
                    "time": 478.23543000000456,
                    "velocity": 0.7244094488188977,
                    "duration": 0.3759712500000205
                },
                {
                    "name": "G#2",
                    "midi": 44,
                    "time": 478.6114012500046,
                    "velocity": 0.6377952755905512,
                    "duration": 0.08354916666667123
                },
                {
                    "name": "G#3",
                    "midi": 56,
                    "time": 478.6114012500046,
                    "velocity": 0.6377952755905512,
                    "duration": 0.08354916666667123
                },
                {
                    "name": "G#2",
                    "midi": 44,
                    "time": 478.7367250000046,
                    "velocity": 0.6692913385826772,
                    "duration": 0.09399281250000513
                },
                {
                    "name": "G#3",
                    "midi": 56,
                    "time": 478.7367250000046,
                    "velocity": 0.6692913385826772,
                    "duration": 0.09399281250000513
                },
                {
                    "name": "F2",
                    "midi": 41,
                    "time": 478.9873725000046,
                    "velocity": 0.6299212598425197,
                    "duration": 0.09399281250000513
                },
                {
                    "name": "F3",
                    "midi": 53,
                    "time": 478.9873725000046,
                    "velocity": 0.6299212598425197,
                    "duration": 0.09399281250000513
                },
                {
                    "name": "C2",
                    "midi": 36,
                    "time": 479.2380200000046,
                    "velocity": 0.5511811023622047,
                    "duration": 0.5012950000000274
                },
                {
                    "name": "C3",
                    "midi": 48,
                    "time": 479.2380200000046,
                    "velocity": 0.5511811023622047,
                    "duration": 0.5012950000000274
                },
                {
                    "name": "G4",
                    "midi": 67,
                    "time": 481.24320000000466,
                    "velocity": 0.3543307086614173,
                    "duration": 2.0051800000000526
                },
                {
                    "name": "E4",
                    "midi": 64,
                    "time": 481.24320000000466,
                    "velocity": 0.28346456692913385,
                    "duration": 2.0051800000000526
                },
                {
                    "name": "A#3",
                    "midi": 58,
                    "time": 481.24320000000466,
                    "velocity": 0.28346456692913385,
                    "duration": 2.0051800000000526
                },
                {
                    "name": "F4",
                    "midi": 65,
                    "time": 483.2483800000047,
                    "velocity": 0.3543307086614173,
                    "duration": 2.0051799999999957
                },
                {
                    "name": "C4",
                    "midi": 60,
                    "time": 483.2483800000047,
                    "velocity": 0.28346456692913385,
                    "duration": 2.0051799999999957
                },
                {
                    "name": "A3",
                    "midi": 57,
                    "time": 483.2483800000047,
                    "velocity": 0.28346456692913385,
                    "duration": 2.0051799999999957
                },
                {
                    "name": "E4",
                    "midi": 64,
                    "time": 485.2535600000047,
                    "velocity": 0.31496062992125984,
                    "duration": 2.0051799999999957
                },
                {
                    "name": "G3",
                    "midi": 55,
                    "time": 485.2535600000047,
                    "velocity": 0.25196850393700787,
                    "duration": 2.0051799999999957
                },
                {
                    "name": "A#3",
                    "midi": 58,
                    "time": 485.2535600000047,
                    "velocity": 0.25196850393700787,
                    "duration": 2.0051799999999957
                },
                {
                    "name": "F4",
                    "midi": 65,
                    "time": 487.2587400000047,
                    "velocity": 0.2755905511811024,
                    "duration": 0.9608154166666623
                },
                {
                    "name": "A3",
                    "midi": 57,
                    "time": 487.2587400000047,
                    "velocity": 0.2204724409448819,
                    "duration": 0.9608154166666623
                },
                {
                    "name": "F3",
                    "midi": 53,
                    "time": 487.2587400000047,
                    "velocity": 0.2204724409448819,
                    "duration": 0.9608154166666623
                },
                {
                    "name": "F3",
                    "midi": 53,
                    "time": 488.2613300000047,
                    "velocity": 0.2125984251968504,
                    "duration": 0.9608154166666623
                },
                {
                    "name": "A3",
                    "midi": 57,
                    "time": 488.2613300000047,
                    "velocity": 0.2125984251968504,
                    "duration": 0.9608154166666623
                },
                {
                    "name": "C4",
                    "midi": 60,
                    "time": 488.2613300000047,
                    "velocity": 0.2677165354330709,
                    "duration": 0.9608154166666623
                },
                {
                    "name": "F3",
                    "midi": 53,
                    "time": 489.76521500000473,
                    "velocity": 0.1732283464566929,
                    "duration": 0.45952041666669174
                },
                {
                    "name": "A3",
                    "midi": 57,
                    "time": 489.76521500000473,
                    "velocity": 0.1732283464566929,
                    "duration": 0.45952041666669174
                },
                {
                    "name": "C4",
                    "midi": 60,
                    "time": 489.76521500000473,
                    "velocity": 0.2204724409448819,
                    "duration": 0.45952041666669174
                },
                {
                    "name": "F3",
                    "midi": 53,
                    "time": 490.26651000000476,
                    "velocity": 0.1732283464566929,
                    "duration": 0.45952041666669174
                },
                {
                    "name": "A3",
                    "midi": 57,
                    "time": 490.26651000000476,
                    "velocity": 0.1732283464566929,
                    "duration": 0.45952041666669174
                },
                {
                    "name": "C4",
                    "midi": 60,
                    "time": 490.26651000000476,
                    "velocity": 0.2204724409448819,
                    "duration": 0.45952041666669174
                },
                {
                    "name": "F3",
                    "midi": 53,
                    "time": 490.7678050000048,
                    "velocity": 0.15748031496062992,
                    "duration": 0.45952041666669174
                },
                {
                    "name": "A3",
                    "midi": 57,
                    "time": 490.7678050000048,
                    "velocity": 0.15748031496062992,
                    "duration": 0.45952041666669174
                },
                {
                    "name": "C4",
                    "midi": 60,
                    "time": 490.7678050000048,
                    "velocity": 0.2047244094488189,
                    "duration": 0.45952041666669174
                },
                {
                    "name": "D4",
                    "midi": 62,
                    "time": 491.2691000000048,
                    "velocity": 0.2440944881889764,
                    "duration": 0.9608154166666054
                },
                {
                    "name": "A#3",
                    "midi": 58,
                    "time": 491.2691000000048,
                    "velocity": 0.1889763779527559,
                    "duration": 0.9608154166666054
                },
                {
                    "name": "F3",
                    "midi": 53,
                    "time": 491.2691000000048,
                    "velocity": 0.1889763779527559,
                    "duration": 0.9608154166666054
                },
                {
                    "name": "F3",
                    "midi": 53,
                    "time": 492.27169000000475,
                    "velocity": 0.1889763779527559,
                    "duration": 0.9608154166666623
                },
                {
                    "name": "A#3",
                    "midi": 58,
                    "time": 492.27169000000475,
                    "velocity": 0.1889763779527559,
                    "duration": 0.9608154166666623
                },
                {
                    "name": "D4",
                    "midi": 62,
                    "time": 492.27169000000475,
                    "velocity": 0.23622047244094488,
                    "duration": 0.9608154166666623
                },
                {
                    "name": "E4",
                    "midi": 64,
                    "time": 493.7755750000048,
                    "velocity": 0.1889763779527559,
                    "duration": 0.45952041666669174
                },
                {
                    "name": "C4",
                    "midi": 60,
                    "time": 493.7755750000048,
                    "velocity": 0.14960629921259844,
                    "duration": 0.45952041666669174
                },
                {
                    "name": "A#3",
                    "midi": 58,
                    "time": 493.7755750000048,
                    "velocity": 0.14960629921259844,
                    "duration": 0.45952041666669174
                },
                {
                    "name": "F3",
                    "midi": 53,
                    "time": 493.7755750000048,
                    "velocity": 0.14960629921259844,
                    "duration": 0.45952041666669174
                },
                {
                    "name": "D4",
                    "midi": 62,
                    "time": 494.2768700000048,
                    "velocity": 0.1889763779527559,
                    "duration": 0.4595204166666349
                },
                {
                    "name": "C4",
                    "midi": 60,
                    "time": 494.2768700000048,
                    "velocity": 0.14960629921259844,
                    "duration": 0.4595204166666349
                },
                {
                    "name": "A#3",
                    "midi": 58,
                    "time": 494.2768700000048,
                    "velocity": 0.14960629921259844,
                    "duration": 0.4595204166666349
                },
                {
                    "name": "F3",
                    "midi": 53,
                    "time": 494.2768700000048,
                    "velocity": 0.14960629921259844,
                    "duration": 0.4595204166666349
                },
                {
                    "name": "E4",
                    "midi": 64,
                    "time": 494.7781650000048,
                    "velocity": 0.1889763779527559,
                    "duration": 0.45952041666669174
                },
                {
                    "name": "C4",
                    "midi": 60,
                    "time": 494.7781650000048,
                    "velocity": 0.14960629921259844,
                    "duration": 0.45952041666669174
                },
                {
                    "name": "A#3",
                    "midi": 58,
                    "time": 494.7781650000048,
                    "velocity": 0.14960629921259844,
                    "duration": 0.45952041666669174
                },
                {
                    "name": "F3",
                    "midi": 53,
                    "time": 494.7781650000048,
                    "velocity": 0.14960629921259844,
                    "duration": 0.45952041666669174
                },
                {
                    "name": "C4",
                    "midi": 60,
                    "time": 495.2794600000048,
                    "velocity": 0.2283464566929134,
                    "duration": 0.9608154166666623
                },
                {
                    "name": "F4",
                    "midi": 65,
                    "time": 495.2794600000048,
                    "velocity": 0.29133858267716534,
                    "duration": 0.9608154166666623
                },
                {
                    "name": "A3",
                    "midi": 57,
                    "time": 495.2794600000048,
                    "velocity": 0.2283464566929134,
                    "duration": 0.9608154166666623
                },
                {
                    "name": "F3",
                    "midi": 53,
                    "time": 495.2794600000048,
                    "velocity": 0.2283464566929134,
                    "duration": 0.9608154166666623
                },
                {
                    "name": "F3",
                    "midi": 53,
                    "time": 496.2820500000048,
                    "velocity": 0.18110236220472442,
                    "duration": 0.9608154166666623
                },
                {
                    "name": "G#3",
                    "midi": 56,
                    "time": 496.2820500000048,
                    "velocity": 0.18110236220472442,
                    "duration": 0.9608154166666623
                },
                {
                    "name": "C4",
                    "midi": 60,
                    "time": 496.2820500000048,
                    "velocity": 0.2283464566929134,
                    "duration": 0.9608154166666623
                },
                {
                    "name": "F3",
                    "midi": 53,
                    "time": 497.78593500000477,
                    "velocity": 0.1732283464566929,
                    "duration": 0.45952041666669174
                },
                {
                    "name": "G#3",
                    "midi": 56,
                    "time": 497.78593500000477,
                    "velocity": 0.1732283464566929,
                    "duration": 0.45952041666669174
                },
                {
                    "name": "C4",
                    "midi": 60,
                    "time": 497.78593500000477,
                    "velocity": 0.2204724409448819,
                    "duration": 0.45952041666669174
                },
                {
                    "name": "F3",
                    "midi": 53,
                    "time": 498.2872300000048,
                    "velocity": 0.1732283464566929,
                    "duration": 0.4595204166666349
                },
                {
                    "name": "G#3",
                    "midi": 56,
                    "time": 498.2872300000048,
                    "velocity": 0.1732283464566929,
                    "duration": 0.4595204166666349
                },
                {
                    "name": "C4",
                    "midi": 60,
                    "time": 498.2872300000048,
                    "velocity": 0.2204724409448819,
                    "duration": 0.4595204166666349
                },
                {
                    "name": "F3",
                    "midi": 53,
                    "time": 498.78852500000477,
                    "velocity": 0.15748031496062992,
                    "duration": 0.45952041666669174
                },
                {
                    "name": "G#3",
                    "midi": 56,
                    "time": 498.78852500000477,
                    "velocity": 0.15748031496062992,
                    "duration": 0.45952041666669174
                },
                {
                    "name": "C4",
                    "midi": 60,
                    "time": 498.78852500000477,
                    "velocity": 0.2047244094488189,
                    "duration": 0.45952041666669174
                },
                {
                    "name": "F4",
                    "midi": 65,
                    "time": 499.2898200000048,
                    "velocity": 0.2440944881889764,
                    "duration": 0.9608154166666623
                },
                {
                    "name": "C#4",
                    "midi": 61,
                    "time": 499.2898200000048,
                    "velocity": 0.1889763779527559,
                    "duration": 0.9608154166666623
                },
                {
                    "name": "G#3",
                    "midi": 56,
                    "time": 499.2898200000048,
                    "velocity": 0.1889763779527559,
                    "duration": 0.9608154166666623
                },
                {
                    "name": "F3",
                    "midi": 53,
                    "time": 499.2898200000048,
                    "velocity": 0.1889763779527559,
                    "duration": 0.9608154166666623
                },
                {
                    "name": "G#3",
                    "midi": 56,
                    "time": 500.2924100000048,
                    "velocity": 0.1889763779527559,
                    "duration": 0.9608154166666054
                },
                {
                    "name": "C#4",
                    "midi": 61,
                    "time": 500.2924100000048,
                    "velocity": 0.1889763779527559,
                    "duration": 0.9608154166666054
                },
                {
                    "name": "F4",
                    "midi": 65,
                    "time": 500.2924100000048,
                    "velocity": 0.23622047244094488,
                    "duration": 0.9608154166666054
                },
                {
                    "name": "G4",
                    "midi": 67,
                    "time": 501.79629500000476,
                    "velocity": 0.1732283464566929,
                    "duration": 0.45952041666669174
                },
                {
                    "name": "D#4",
                    "midi": 63,
                    "time": 501.79629500000476,
                    "velocity": 0.13385826771653545,
                    "duration": 0.45952041666669174
                },
                {
                    "name": "C#4",
                    "midi": 61,
                    "time": 501.79629500000476,
                    "velocity": 0.13385826771653545,
                    "duration": 0.45952041666669174
                },
                {
                    "name": "G#3",
                    "midi": 56,
                    "time": 501.79629500000476,
                    "velocity": 0.13385826771653545,
                    "duration": 0.45952041666669174
                },
                {
                    "name": "F4",
                    "midi": 65,
                    "time": 502.2975900000048,
                    "velocity": 0.1889763779527559,
                    "duration": 0.45952041666669174
                },
                {
                    "name": "D#4",
                    "midi": 63,
                    "time": 502.2975900000048,
                    "velocity": 0.14960629921259844,
                    "duration": 0.45952041666669174
                },
                {
                    "name": "C#4",
                    "midi": 61,
                    "time": 502.2975900000048,
                    "velocity": 0.14960629921259844,
                    "duration": 0.45952041666669174
                },
                {
                    "name": "G#3",
                    "midi": 56,
                    "time": 502.2975900000048,
                    "velocity": 0.14960629921259844,
                    "duration": 0.45952041666669174
                },
                {
                    "name": "G4",
                    "midi": 67,
                    "time": 502.7988850000048,
                    "velocity": 0.1732283464566929,
                    "duration": 0.45952041666669174
                },
                {
                    "name": "D#4",
                    "midi": 63,
                    "time": 502.7988850000048,
                    "velocity": 0.13385826771653545,
                    "duration": 0.45952041666669174
                },
                {
                    "name": "C#4",
                    "midi": 61,
                    "time": 502.7988850000048,
                    "velocity": 0.13385826771653545,
                    "duration": 0.45952041666669174
                },
                {
                    "name": "G#3",
                    "midi": 56,
                    "time": 502.7988850000048,
                    "velocity": 0.13385826771653545,
                    "duration": 0.45952041666669174
                },
                {
                    "name": "G#3",
                    "midi": 56,
                    "time": 503.30018000000484,
                    "velocity": 0.15748031496062992,
                    "duration": 2.0051800000000526
                },
                {
                    "name": "C4",
                    "midi": 60,
                    "time": 503.30018000000484,
                    "velocity": 0.15748031496062992,
                    "duration": 2.0051800000000526
                },
                {
                    "name": "D#4",
                    "midi": 63,
                    "time": 503.30018000000484,
                    "velocity": 0.15748031496062992,
                    "duration": 2.0051800000000526
                },
                {
                    "name": "G#4",
                    "midi": 68,
                    "time": 503.30018000000484,
                    "velocity": 0.2047244094488189,
                    "duration": 2.0051800000000526
                },
                {
                    "name": "A3",
                    "midi": 57,
                    "time": 505.3053600000049,
                    "velocity": 0.13385826771653545,
                    "duration": 2.0051799999999957
                },
                {
                    "name": "C4",
                    "midi": 60,
                    "time": 505.3053600000049,
                    "velocity": 0.13385826771653545,
                    "duration": 2.0051799999999957
                },
                {
                    "name": "D#4",
                    "midi": 63,
                    "time": 505.3053600000049,
                    "velocity": 0.13385826771653545,
                    "duration": 2.0051799999999957
                },
                {
                    "name": "F4",
                    "midi": 65,
                    "time": 505.3053600000049,
                    "velocity": 0.1732283464566929,
                    "duration": 2.0051799999999957
                },
                {
                    "name": "A#3",
                    "midi": 58,
                    "time": 507.3105400000049,
                    "velocity": 0.15748031496062992,
                    "duration": 2.0051799999999957
                },
                {
                    "name": "C#4",
                    "midi": 61,
                    "time": 507.3105400000049,
                    "velocity": 0.15748031496062992,
                    "duration": 2.0051799999999957
                },
                {
                    "name": "F4",
                    "midi": 65,
                    "time": 507.3105400000049,
                    "velocity": 0.2047244094488189,
                    "duration": 2.0051799999999957
                },
                {
                    "name": "B3",
                    "midi": 59,
                    "time": 509.3157200000049,
                    "velocity": 0.13385826771653545,
                    "duration": 2.0051799999999957
                },
                {
                    "name": "D4",
                    "midi": 62,
                    "time": 509.3157200000049,
                    "velocity": 0.13385826771653545,
                    "duration": 2.0051799999999957
                },
                {
                    "name": "F4",
                    "midi": 65,
                    "time": 509.3157200000049,
                    "velocity": 0.13385826771653545,
                    "duration": 2.0051799999999957
                },
                {
                    "name": "G4",
                    "midi": 67,
                    "time": 509.3157200000049,
                    "velocity": 0.1732283464566929,
                    "duration": 2.0051799999999957
                },
                {
                    "name": "C4",
                    "midi": 60,
                    "time": 511.3209000000049,
                    "velocity": 0.15748031496062992,
                    "duration": 1.0025899999999979
                },
                {
                    "name": "E4",
                    "midi": 64,
                    "time": 511.3209000000049,
                    "velocity": 0.15748031496062992,
                    "duration": 1.0025899999999979
                },
                {
                    "name": "G4",
                    "midi": 67,
                    "time": 511.3209000000049,
                    "velocity": 0.1968503937007874,
                    "duration": 1.0025899999999979
                },
                {
                    "name": "G4",
                    "midi": 67,
                    "time": 512.3234900000049,
                    "velocity": 0.1732283464566929,
                    "duration": 2.0051799999999957
                },
                {
                    "name": "A#4",
                    "midi": 70,
                    "time": 512.3234900000049,
                    "velocity": 0.2204724409448819,
                    "duration": 2.0051799999999957
                },
                {
                    "name": "C#4",
                    "midi": 61,
                    "time": 512.3234900000049,
                    "velocity": 0.1732283464566929,
                    "duration": 1.0025900000000547
                },
                {
                    "name": "C4",
                    "midi": 60,
                    "time": 513.3260800000049,
                    "velocity": 0.25196850393700787,
                    "duration": 1.002589999999941
                },
                {
                    "name": "C4",
                    "midi": 60,
                    "time": 514.3286700000049,
                    "velocity": 0.16535433070866143,
                    "duration": 1.002589999999941
                },
                {
                    "name": "F4",
                    "midi": 65,
                    "time": 514.3286700000049,
                    "velocity": 0.16535433070866143,
                    "duration": 1.002589999999941
                },
                {
                    "name": "G#4",
                    "midi": 68,
                    "time": 514.3286700000049,
                    "velocity": 0.2125984251968504,
                    "duration": 1.002589999999941
                },
                {
                    "name": "G4",
                    "midi": 67,
                    "time": 515.3312600000048,
                    "velocity": 0.2204724409448819,
                    "duration": 1.002589999999941
                },
                {
                    "name": "E4",
                    "midi": 64,
                    "time": 515.3312600000048,
                    "velocity": 0.1732283464566929,
                    "duration": 1.002589999999941
                },
                {
                    "name": "C4",
                    "midi": 60,
                    "time": 515.3312600000048,
                    "velocity": 0.1732283464566929,
                    "duration": 1.002589999999941
                },
                {
                    "name": "C#3",
                    "midi": 49,
                    "time": 516.3338500000048,
                    "velocity": 0.13385826771653545,
                    "duration": 1.0025900000000547
                },
                {
                    "name": "G3",
                    "midi": 55,
                    "time": 516.3338500000048,
                    "velocity": 0.13385826771653545,
                    "duration": 2.0051800000001094
                },
                {
                    "name": "A#3",
                    "midi": 58,
                    "time": 516.3338500000048,
                    "velocity": 0.1732283464566929,
                    "duration": 2.0051800000001094
                },
                {
                    "name": "C3",
                    "midi": 48,
                    "time": 517.3364400000048,
                    "velocity": 0.1732283464566929,
                    "duration": 1.0025900000000547
                },
                {
                    "name": "C3",
                    "midi": 48,
                    "time": 518.3390300000049,
                    "velocity": 0.15748031496062992,
                    "duration": 1.0025900000000547
                },
                {
                    "name": "F3",
                    "midi": 53,
                    "time": 518.3390300000049,
                    "velocity": 0.15748031496062992,
                    "duration": 1.0025900000000547
                },
                {
                    "name": "G#3",
                    "midi": 56,
                    "time": 518.3390300000049,
                    "velocity": 0.1968503937007874,
                    "duration": 1.0025900000000547
                },
                {
                    "name": "C3",
                    "midi": 48,
                    "time": 519.3416200000049,
                    "velocity": 0.1732283464566929,
                    "duration": 2.0051799999999957
                },
                {
                    "name": "E3",
                    "midi": 52,
                    "time": 519.3416200000049,
                    "velocity": 0.1732283464566929,
                    "duration": 2.0051799999999957
                },
                {
                    "name": "G3",
                    "midi": 55,
                    "time": 519.3416200000049,
                    "velocity": 0.2204724409448819,
                    "duration": 2.0051799999999957
                },
                {
                    "name": "B3",
                    "midi": 59,
                    "time": 521.3468000000049,
                    "velocity": 0.1732283464566929,
                    "duration": 2.0051799999999957
                },
                {
                    "name": "D4",
                    "midi": 62,
                    "time": 521.3468000000049,
                    "velocity": 0.1732283464566929,
                    "duration": 2.0051799999999957
                },
                {
                    "name": "E4",
                    "midi": 64,
                    "time": 521.3468000000049,
                    "velocity": 0.2204724409448819,
                    "duration": 2.0051799999999957
                },
                {
                    "name": "A3",
                    "midi": 57,
                    "time": 523.3519800000049,
                    "velocity": 0.15748031496062992,
                    "duration": 2.0051799999999957
                },
                {
                    "name": "D4",
                    "midi": 62,
                    "time": 523.3519800000049,
                    "velocity": 0.15748031496062992,
                    "duration": 2.0051799999999957
                },
                {
                    "name": "E4",
                    "midi": 64,
                    "time": 523.3519800000049,
                    "velocity": 0.2047244094488189,
                    "duration": 2.0051799999999957
                },
                {
                    "name": "G#3",
                    "midi": 56,
                    "time": 525.3571600000049,
                    "velocity": 0.13385826771653545,
                    "duration": 2.005179999999882
                },
                {
                    "name": "D4",
                    "midi": 62,
                    "time": 525.3571600000049,
                    "velocity": 0.13385826771653545,
                    "duration": 2.005179999999882
                },
                {
                    "name": "E4",
                    "midi": 64,
                    "time": 525.3571600000049,
                    "velocity": 0.1732283464566929,
                    "duration": 2.005179999999882
                },
                {
                    "name": "E3",
                    "midi": 52,
                    "time": 527.3623400000048,
                    "velocity": 0.25984251968503935,
                    "duration": 1.002589999999941
                },
                {
                    "name": "B3",
                    "midi": 59,
                    "time": 528.3649300000047,
                    "velocity": 0.23622047244094488,
                    "duration": 1.002589999999941
                },
                {
                    "name": "A#3",
                    "midi": 58,
                    "time": 529.3675200000047,
                    "velocity": 0.28346456692913385,
                    "duration": 1.0025900000000547
                },
                {
                    "name": "B3",
                    "midi": 59,
                    "time": 530.3701100000047,
                    "velocity": 0.2677165354330709,
                    "duration": 0.20887291666667807
                },
                {
                    "name": "E2",
                    "midi": 40,
                    "time": 531.3727000000048,
                    "velocity": 0.2440944881889764,
                    "duration": 1.0025900000000547
                },
                {
                    "name": "B2",
                    "midi": 47,
                    "time": 532.3752900000048,
                    "velocity": 0.25984251968503935,
                    "duration": 1.0025900000000547
                },
                {
                    "name": "A#2",
                    "midi": 46,
                    "time": 533.3778800000049,
                    "velocity": 0.2992125984251969,
                    "duration": 1.002589999999941
                },
                {
                    "name": "B2",
                    "midi": 47,
                    "time": 534.3804700000048,
                    "velocity": 0.2755905511811024,
                    "duration": 0.20887291666667807
                },
                {
                    "name": "A3",
                    "midi": 57,
                    "time": 537.3882400000049,
                    "velocity": 0.33070866141732286,
                    "duration": 1.0025900000000547
                },
                {
                    "name": "E4",
                    "midi": 64,
                    "time": 538.3908300000049,
                    "velocity": 0.33070866141732286,
                    "duration": 1.002589999999941
                },
                {
                    "name": "D#4",
                    "midi": 63,
                    "time": 539.3934200000049,
                    "velocity": 0.3464566929133858,
                    "duration": 1.0025900000000547
                },
                {
                    "name": "E4",
                    "midi": 64,
                    "time": 540.3960100000049,
                    "velocity": 0.2992125984251969,
                    "duration": 0.20887291666667807
                },
                {
                    "name": "C4",
                    "midi": 60,
                    "time": 540.897305000005,
                    "velocity": 0.30708661417322836,
                    "duration": 0.3968585416666883
                },
                {
                    "name": "B3",
                    "midi": 59,
                    "time": 541.273276250005,
                    "velocity": 0.30708661417322836,
                    "duration": 0.14621104166667465
                },
                {
                    "name": "A3",
                    "midi": 57,
                    "time": 541.398600000005,
                    "velocity": 0.2992125984251969,
                    "duration": 1.0025900000000547
                },
                {
                    "name": "E3",
                    "midi": 52,
                    "time": 542.401190000005,
                    "velocity": 0.4094488188976378,
                    "duration": 1.002589999999941
                },
                {
                    "name": "C3",
                    "midi": 48,
                    "time": 543.403780000005,
                    "velocity": 0.3700787401574803,
                    "duration": 1.0025900000000547
                },
                {
                    "name": "A2",
                    "midi": 45,
                    "time": 544.406370000005,
                    "velocity": 0.30708661417322836,
                    "duration": 0.18798562500001026
                },
                {
                    "name": "A2",
                    "midi": 45,
                    "time": 545.4089600000051,
                    "velocity": 0.33070866141732286,
                    "duration": 1.0025900000000547
                },
                {
                    "name": "D2",
                    "midi": 38,
                    "time": 546.4115500000051,
                    "velocity": 0.3858267716535433,
                    "duration": 1.002589999999941
                },
                {
                    "name": "C#2",
                    "midi": 37,
                    "time": 547.4141400000051,
                    "velocity": 0.4094488188976378,
                    "duration": 1.0025900000000547
                },
                {
                    "name": "D2",
                    "midi": 38,
                    "time": 548.4167300000051,
                    "velocity": 0.33070866141732286,
                    "duration": 0.20887291666667807
                },
                {
                    "name": "A1",
                    "midi": 33,
                    "time": 548.9180250000052,
                    "velocity": 0.3464566929133858,
                    "duration": 0.3968585416666883
                },
                {
                    "name": "A2",
                    "midi": 45,
                    "time": 548.9180250000052,
                    "velocity": 0.3464566929133858,
                    "duration": 0.3968585416666883
                },
                {
                    "name": "B2",
                    "midi": 47,
                    "time": 549.2939962500052,
                    "velocity": 0.3543307086614173,
                    "duration": 0.14621104166667465
                },
                {
                    "name": "B1",
                    "midi": 35,
                    "time": 549.2939962500052,
                    "velocity": 0.3543307086614173,
                    "duration": 0.14621104166667465
                },
                {
                    "name": "C2",
                    "midi": 36,
                    "time": 549.4193200000052,
                    "velocity": 0.3543307086614173,
                    "duration": 1.002589999999941
                },
                {
                    "name": "C3",
                    "midi": 48,
                    "time": 549.4193200000052,
                    "velocity": 0.3543307086614173,
                    "duration": 1.002589999999941
                },
                {
                    "name": "E3",
                    "midi": 52,
                    "time": 550.4219100000051,
                    "velocity": 0.4330708661417323,
                    "duration": 1.0025900000000547
                },
                {
                    "name": "E2",
                    "midi": 40,
                    "time": 550.4219100000051,
                    "velocity": 0.4330708661417323,
                    "duration": 1.0025900000000547
                },
                {
                    "name": "C3",
                    "midi": 48,
                    "time": 551.4245000000052,
                    "velocity": 0.3543307086614173,
                    "duration": 1.002589999999941
                },
                {
                    "name": "C2",
                    "midi": 36,
                    "time": 551.4245000000052,
                    "velocity": 0.3543307086614173,
                    "duration": 1.002589999999941
                },
                {
                    "name": "A2",
                    "midi": 45,
                    "time": 552.4270900000051,
                    "velocity": 0.3937007874015748,
                    "duration": 0.20887291666656438
                },
                {
                    "name": "A1",
                    "midi": 33,
                    "time": 552.4270900000051,
                    "velocity": 0.3228346456692913,
                    "duration": 0.20887291666656438
                },
                {
                    "name": "A2",
                    "midi": 45,
                    "time": 556.9387450000052,
                    "velocity": 0.36220472440944884,
                    "duration": 1.002589999999941
                },
                {
                    "name": "D3",
                    "midi": 50,
                    "time": 557.9413350000051,
                    "velocity": 0.3228346456692913,
                    "duration": 0.5012950000000274
                },
                {
                    "name": "E3",
                    "midi": 52,
                    "time": 558.4426300000051,
                    "velocity": 0.3464566929133858,
                    "duration": 0.5012950000000274
                },
                {
                    "name": "F3",
                    "midi": 53,
                    "time": 558.9439250000052,
                    "velocity": 0.33070866141732286,
                    "duration": 0.5012950000000274
                },
                {
                    "name": "E3",
                    "midi": 52,
                    "time": 559.4452200000052,
                    "velocity": 0.3543307086614173,
                    "duration": 1.002589999999941
                },
                {
                    "name": "A2",
                    "midi": 45,
                    "time": 560.4478100000051,
                    "velocity": 0.3228346456692913,
                    "duration": 0.12532375000000684
                },
                {
                    "name": "G3",
                    "midi": 55,
                    "time": 560.9491050000051,
                    "velocity": 0.4015748031496063,
                    "duration": 0.5012950000000274
                },
                {
                    "name": "F3",
                    "midi": 53,
                    "time": 561.4504000000052,
                    "velocity": 0.36220472440944884,
                    "duration": 1.0025900000000547
                },
                {
                    "name": "A2",
                    "midi": 45,
                    "time": 562.4529900000052,
                    "velocity": 0.33858267716535434,
                    "duration": 0.12532375000000684
                },
                {
                    "name": "F3",
                    "midi": 53,
                    "time": 562.9542850000053,
                    "velocity": 0.31496062992125984,
                    "duration": 0.5012950000000274
                },
                {
                    "name": "E3",
                    "midi": 52,
                    "time": 563.4555800000053,
                    "velocity": 0.3543307086614173,
                    "duration": 1.002589999999941
                },
                {
                    "name": "A2",
                    "midi": 45,
                    "time": 564.4581700000052,
                    "velocity": 0.33858267716535434,
                    "duration": 0.12532375000000684
                },
                {
                    "name": "A1",
                    "midi": 33,
                    "time": 564.9594650000053,
                    "velocity": 0.4409448818897638,
                    "duration": 1.002589999999941
                },
                {
                    "name": "A2",
                    "midi": 45,
                    "time": 564.9594650000053,
                    "velocity": 0.4409448818897638,
                    "duration": 1.002589999999941
                },
                {
                    "name": "D2",
                    "midi": 38,
                    "time": 565.9620550000052,
                    "velocity": 0.4094488188976378,
                    "duration": 0.5012950000000274
                },
                {
                    "name": "D3",
                    "midi": 50,
                    "time": 565.9620550000052,
                    "velocity": 0.4094488188976378,
                    "duration": 0.5012950000000274
                },
                {
                    "name": "E3",
                    "midi": 52,
                    "time": 566.4633500000052,
                    "velocity": 0.4409448818897638,
                    "duration": 0.5012950000000274
                },
                {
                    "name": "E2",
                    "midi": 40,
                    "time": 566.4633500000052,
                    "velocity": 0.4409448818897638,
                    "duration": 0.5012950000000274
                },
                {
                    "name": "F2",
                    "midi": 41,
                    "time": 566.9646450000052,
                    "velocity": 0.4094488188976378,
                    "duration": 0.5012949999999137
                },
                {
                    "name": "F3",
                    "midi": 53,
                    "time": 566.9646450000052,
                    "velocity": 0.4094488188976378,
                    "duration": 0.5012949999999137
                },
                {
                    "name": "E2",
                    "midi": 40,
                    "time": 567.4659400000052,
                    "velocity": 0.4409448818897638,
                    "duration": 1.0025900000000547
                },
                {
                    "name": "E3",
                    "midi": 52,
                    "time": 567.4659400000052,
                    "velocity": 0.4409448818897638,
                    "duration": 1.0025900000000547
                },
                {
                    "name": "A1",
                    "midi": 33,
                    "time": 568.4685300000052,
                    "velocity": 0.41732283464566927,
                    "duration": 0.12532375000000684
                },
                {
                    "name": "A2",
                    "midi": 45,
                    "time": 568.4685300000052,
                    "velocity": 0.41732283464566927,
                    "duration": 0.12532375000000684
                },
                {
                    "name": "E2",
                    "midi": 40,
                    "time": 568.9698250000052,
                    "velocity": 0.4881889763779528,
                    "duration": 1.002589999999941
                },
                {
                    "name": "E3",
                    "midi": 52,
                    "time": 568.9698250000052,
                    "velocity": 0.4881889763779528,
                    "duration": 1.002589999999941
                },
                {
                    "name": "G2",
                    "midi": 43,
                    "time": 569.9724150000052,
                    "velocity": 0.5354330708661418,
                    "duration": 0.5012950000000274
                },
                {
                    "name": "G3",
                    "midi": 55,
                    "time": 569.9724150000052,
                    "velocity": 0.5354330708661418,
                    "duration": 0.5012950000000274
                },
                {
                    "name": "A2",
                    "midi": 45,
                    "time": 570.4737100000052,
                    "velocity": 0.5826771653543307,
                    "duration": 0.5012949999999137
                },
                {
                    "name": "A3",
                    "midi": 57,
                    "time": 570.4737100000052,
                    "velocity": 0.5826771653543307,
                    "duration": 0.5012949999999137
                },
                {
                    "name": "B3",
                    "midi": 59,
                    "time": 570.9750050000051,
                    "velocity": 0.5669291338582677,
                    "duration": 0.5012949999999137
                },
                {
                    "name": "B2",
                    "midi": 47,
                    "time": 570.9750050000051,
                    "velocity": 0.5669291338582677,
                    "duration": 0.5012949999999137
                },
                {
                    "name": "B2",
                    "midi": 47,
                    "time": 571.476300000005,
                    "velocity": 0.6692913385826772,
                    "duration": 0.9190408333332698
                },
                {
                    "name": "B3",
                    "midi": 59,
                    "time": 571.476300000005,
                    "velocity": 0.6692913385826772,
                    "duration": 0.9190408333332698
                },
                {
                    "name": "B3",
                    "midi": 59,
                    "time": 572.478890000005,
                    "velocity": 0.5511811023622047,
                    "duration": 0.9190408333332698
                },
                {
                    "name": "B2",
                    "midi": 47,
                    "time": 572.478890000005,
                    "velocity": 0.5511811023622047,
                    "duration": 0.9190408333332698
                },
                {
                    "name": "G3",
                    "midi": 55,
                    "time": 573.4814800000049,
                    "velocity": 0.4566929133858268,
                    "duration": 1.0025900000000547
                },
                {
                    "name": "G2",
                    "midi": 43,
                    "time": 573.4814800000049,
                    "velocity": 0.4566929133858268,
                    "duration": 1.0025900000000547
                },
                {
                    "name": "E3",
                    "midi": 52,
                    "time": 574.484070000005,
                    "velocity": 0.3700787401574803,
                    "duration": 0.20887291666656438
                },
                {
                    "name": "E2",
                    "midi": 40,
                    "time": 574.484070000005,
                    "velocity": 0.3700787401574803,
                    "duration": 0.20887291666656438
                },
                {
                    "name": "B1",
                    "midi": 35,
                    "time": 575.4866600000049,
                    "velocity": 0.25196850393700787,
                    "duration": 0.9190408333333835
                },
                {
                    "name": "B2",
                    "midi": 47,
                    "time": 575.4866600000049,
                    "velocity": 0.25196850393700787,
                    "duration": 0.9190408333333835
                },
                {
                    "name": "B2",
                    "midi": 47,
                    "time": 576.489250000005,
                    "velocity": 0.23622047244094488,
                    "duration": 0.9190408333333835
                },
                {
                    "name": "B1",
                    "midi": 35,
                    "time": 576.489250000005,
                    "velocity": 0.23622047244094488,
                    "duration": 0.9190408333333835
                },
                {
                    "name": "G1",
                    "midi": 31,
                    "time": 577.491840000005,
                    "velocity": 0.2283464566929134,
                    "duration": 1.002589999999941
                },
                {
                    "name": "G2",
                    "midi": 43,
                    "time": 577.491840000005,
                    "velocity": 0.2283464566929134,
                    "duration": 1.002589999999941
                },
                {
                    "name": "E1",
                    "midi": 28,
                    "time": 578.494430000005,
                    "velocity": 0.2204724409448819,
                    "duration": 0.20887291666656438
                },
                {
                    "name": "E2",
                    "midi": 40,
                    "time": 578.494430000005,
                    "velocity": 0.2204724409448819,
                    "duration": 0.20887291666656438
                },
                {
                    "name": "E2",
                    "midi": 40,
                    "time": 579.4970200000049,
                    "velocity": 0.23622047244094488,
                    "duration": 1.1488010416666157
                },
                {
                    "name": "F2",
                    "midi": 41,
                    "time": 580.6249337500049,
                    "velocity": 0.23622047244094488,
                    "duration": 0.14621104166667465
                },
                {
                    "name": "E2",
                    "midi": 40,
                    "time": 580.7502575000049,
                    "velocity": 0.2047244094488189,
                    "duration": 0.14621104166667465
                },
                {
                    "name": "F2",
                    "midi": 41,
                    "time": 580.8755812500049,
                    "velocity": 0.23622047244094488,
                    "duration": 0.14621104166667465
                },
                {
                    "name": "E2",
                    "midi": 40,
                    "time": 581.0009050000049,
                    "velocity": 0.1889763779527559,
                    "duration": 0.14621104166667465
                },
                {
                    "name": "F2",
                    "midi": 41,
                    "time": 581.1262287500049,
                    "velocity": 0.23622047244094488,
                    "duration": 0.14621104166667465
                },
                {
                    "name": "E2",
                    "midi": 40,
                    "time": 581.2515525000049,
                    "velocity": 0.1968503937007874,
                    "duration": 0.14621104166667465
                },
                {
                    "name": "F2",
                    "midi": 41,
                    "time": 581.3768762500049,
                    "velocity": 0.23622047244094488,
                    "duration": 0.14621104166667465
                },
                {
                    "name": "E2",
                    "midi": 40,
                    "time": 581.5022000000049,
                    "velocity": 0.2440944881889764,
                    "duration": 0.14621104166667465
                },
                {
                    "name": "F2",
                    "midi": 41,
                    "time": 581.6275237500049,
                    "velocity": 0.2204724409448819,
                    "duration": 0.14621104166667465
                },
                {
                    "name": "E2",
                    "midi": 40,
                    "time": 581.7528475000049,
                    "velocity": 0.2440944881889764,
                    "duration": 0.14621104166667465
                },
                {
                    "name": "F2",
                    "midi": 41,
                    "time": 581.8781712500049,
                    "velocity": 0.2440944881889764,
                    "duration": 0.14621104166667465
                },
                {
                    "name": "E2",
                    "midi": 40,
                    "time": 582.0034950000049,
                    "velocity": 0.2677165354330709,
                    "duration": 0.14621104166667465
                },
                {
                    "name": "F2",
                    "midi": 41,
                    "time": 582.1288187500049,
                    "velocity": 0.23622047244094488,
                    "duration": 0.14621104166667465
                },
                {
                    "name": "E2",
                    "midi": 40,
                    "time": 582.254142500005,
                    "velocity": 0.2677165354330709,
                    "duration": 0.14621104166667465
                },
                {
                    "name": "F2",
                    "midi": 41,
                    "time": 582.379466250005,
                    "velocity": 0.2283464566929134,
                    "duration": 0.14621104166667465
                },
                {
                    "name": "E2",
                    "midi": 40,
                    "time": 582.504790000005,
                    "velocity": 0.2677165354330709,
                    "duration": 0.14621104166667465
                },
                {
                    "name": "F2",
                    "midi": 41,
                    "time": 582.630113750005,
                    "velocity": 0.2204724409448819,
                    "duration": 0.14621104166667465
                },
                {
                    "name": "E2",
                    "midi": 40,
                    "time": 582.755437500005,
                    "velocity": 0.2677165354330709,
                    "duration": 0.14621104166667465
                },
                {
                    "name": "F2",
                    "midi": 41,
                    "time": 582.880761250005,
                    "velocity": 0.2283464566929134,
                    "duration": 0.14621104166667465
                },
                {
                    "name": "E2",
                    "midi": 40,
                    "time": 583.006085000005,
                    "velocity": 0.2677165354330709,
                    "duration": 0.14621104166667465
                },
                {
                    "name": "F2",
                    "midi": 41,
                    "time": 583.131408750005,
                    "velocity": 0.2283464566929134,
                    "duration": 0.14621104166667465
                },
                {
                    "name": "E2",
                    "midi": 40,
                    "time": 583.256732500005,
                    "velocity": 0.2677165354330709,
                    "duration": 0.14621104166667465
                },
                {
                    "name": "F2",
                    "midi": 41,
                    "time": 583.382056250005,
                    "velocity": 0.23622047244094488,
                    "duration": 0.14621104166667465
                },
                {
                    "name": "E2",
                    "midi": 40,
                    "time": 583.507380000005,
                    "velocity": 0.30708661417322836,
                    "duration": 0.14621104166667465
                },
                {
                    "name": "F2",
                    "midi": 41,
                    "time": 583.632703750005,
                    "velocity": 0.25984251968503935,
                    "duration": 0.14621104166667465
                },
                {
                    "name": "E2",
                    "midi": 40,
                    "time": 583.758027500005,
                    "velocity": 0.30708661417322836,
                    "duration": 0.14621104166667465
                },
                {
                    "name": "F2",
                    "midi": 41,
                    "time": 583.883351250005,
                    "velocity": 0.25984251968503935,
                    "duration": 0.14621104166667465
                },
                {
                    "name": "E2",
                    "midi": 40,
                    "time": 584.008675000005,
                    "velocity": 0.30708661417322836,
                    "duration": 0.14621104166667465
                },
                {
                    "name": "F2",
                    "midi": 41,
                    "time": 584.133998750005,
                    "velocity": 0.25984251968503935,
                    "duration": 0.14621104166667465
                },
                {
                    "name": "E2",
                    "midi": 40,
                    "time": 584.259322500005,
                    "velocity": 0.31496062992125984,
                    "duration": 0.14621104166667465
                },
                {
                    "name": "F2",
                    "midi": 41,
                    "time": 584.3846462500051,
                    "velocity": 0.2755905511811024,
                    "duration": 0.14621104166667465
                },
                {
                    "name": "E2",
                    "midi": 40,
                    "time": 584.5099700000051,
                    "velocity": 0.31496062992125984,
                    "duration": 0.14621104166667465
                },
                {
                    "name": "F2",
                    "midi": 41,
                    "time": 584.6352937500051,
                    "velocity": 0.2755905511811024,
                    "duration": 0.14621104166667465
                },
                {
                    "name": "E2",
                    "midi": 40,
                    "time": 584.7606175000051,
                    "velocity": 0.3228346456692913,
                    "duration": 0.14621104166667465
                },
                {
                    "name": "F2",
                    "midi": 41,
                    "time": 584.8859412500051,
                    "velocity": 0.2677165354330709,
                    "duration": 0.14621104166667465
                },
                {
                    "name": "E2",
                    "midi": 40,
                    "time": 585.0112650000051,
                    "velocity": 0.3228346456692913,
                    "duration": 0.14621104166667465
                },
                {
                    "name": "F2",
                    "midi": 41,
                    "time": 585.1365887500051,
                    "velocity": 0.28346456692913385,
                    "duration": 0.14621104166667465
                },
                {
                    "name": "E2",
                    "midi": 40,
                    "time": 585.2619125000051,
                    "velocity": 0.33070866141732286,
                    "duration": 0.14621104166667465
                },
                {
                    "name": "F2",
                    "midi": 41,
                    "time": 585.3872362500051,
                    "velocity": 0.29133858267716534,
                    "duration": 0.14621104166667465
                },
                {
                    "name": "E2",
                    "midi": 40,
                    "time": 585.5125600000051,
                    "velocity": 0.3700787401574803,
                    "duration": 0.14621104166667465
                },
                {
                    "name": "F2",
                    "midi": 41,
                    "time": 585.6378837500051,
                    "velocity": 0.30708661417322836,
                    "duration": 0.14621104166667465
                },
                {
                    "name": "E2",
                    "midi": 40,
                    "time": 585.7632075000051,
                    "velocity": 0.3700787401574803,
                    "duration": 0.14621104166667465
                },
                {
                    "name": "F2",
                    "midi": 41,
                    "time": 585.8885312500051,
                    "velocity": 0.30708661417322836,
                    "duration": 0.14621104166667465
                },
                {
                    "name": "E2",
                    "midi": 40,
                    "time": 586.0138550000052,
                    "velocity": 0.3779527559055118,
                    "duration": 0.14621104166667465
                },
                {
                    "name": "F2",
                    "midi": 41,
                    "time": 586.1391787500052,
                    "velocity": 0.31496062992125984,
                    "duration": 0.14621104166667465
                },
                {
                    "name": "E2",
                    "midi": 40,
                    "time": 586.2645025000052,
                    "velocity": 0.3779527559055118,
                    "duration": 0.14621104166667465
                },
                {
                    "name": "F2",
                    "midi": 41,
                    "time": 586.3898262500052,
                    "velocity": 0.33070866141732286,
                    "duration": 0.14621104166667465
                },
                {
                    "name": "E2",
                    "midi": 40,
                    "time": 586.5151500000052,
                    "velocity": 0.3858267716535433,
                    "duration": 0.14621104166667465
                },
                {
                    "name": "F2",
                    "midi": 41,
                    "time": 586.6404737500052,
                    "velocity": 0.33858267716535434,
                    "duration": 0.14621104166667465
                },
                {
                    "name": "E2",
                    "midi": 40,
                    "time": 586.7657975000052,
                    "velocity": 0.4251968503937008,
                    "duration": 0.14621104166667465
                },
                {
                    "name": "F2",
                    "midi": 41,
                    "time": 586.8911212500052,
                    "velocity": 0.3779527559055118,
                    "duration": 0.14621104166667465
                },
                {
                    "name": "E2",
                    "midi": 40,
                    "time": 587.0164450000052,
                    "velocity": 0.4881889763779528,
                    "duration": 0.14621104166667465
                },
                {
                    "name": "F2",
                    "midi": 41,
                    "time": 587.1417687500052,
                    "velocity": 0.49606299212598426,
                    "duration": 0.14621104166667465
                },
                {
                    "name": "E2",
                    "midi": 40,
                    "time": 587.2670925000052,
                    "velocity": 0.5590551181102362,
                    "duration": 0.14621104166667465
                },
                {
                    "name": "G#2",
                    "midi": 44,
                    "time": 587.3924162500052,
                    "velocity": 0.6220472440944882,
                    "duration": 0.14621104166667465
                },
                {
                    "name": "A2",
                    "midi": 45,
                    "time": 587.5177400000052,
                    "velocity": 0.6141732283464567,
                    "duration": 1.002589999999941
                },
                {
                    "name": "A1",
                    "midi": 33,
                    "time": 587.5177400000052,
                    "velocity": 0.6141732283464567,
                    "duration": 1.002589999999941
                },
                {
                    "name": "E2",
                    "midi": 40,
                    "time": 588.5203300000052,
                    "velocity": 0.6062992125984252,
                    "duration": 1.0025900000000547
                },
                {
                    "name": "E3",
                    "midi": 52,
                    "time": 588.5203300000052,
                    "velocity": 0.6062992125984252,
                    "duration": 1.0025900000000547
                },
                {
                    "name": "D#3",
                    "midi": 51,
                    "time": 589.5229200000052,
                    "velocity": 0.5905511811023622,
                    "duration": 1.0025900000000547
                },
                {
                    "name": "D#2",
                    "midi": 39,
                    "time": 589.5229200000052,
                    "velocity": 0.5905511811023622,
                    "duration": 1.0025900000000547
                },
                {
                    "name": "E3",
                    "midi": 52,
                    "time": 590.5255100000053,
                    "velocity": 0.5590551181102362,
                    "duration": 0.2506475000000137
                },
                {
                    "name": "E2",
                    "midi": 40,
                    "time": 590.5255100000053,
                    "velocity": 0.5590551181102362,
                    "duration": 0.2506475000000137
                },
                {
                    "name": "A1",
                    "midi": 33,
                    "time": 591.0268050000053,
                    "velocity": 0.29133858267716534,
                    "duration": 0.3341966666666849
                },
                {
                    "name": "A2",
                    "midi": 45,
                    "time": 591.0268050000053,
                    "velocity": 0.29133858267716534,
                    "duration": 0.3341966666666849
                },
                {
                    "name": "B1",
                    "midi": 35,
                    "time": 591.4027762500053,
                    "velocity": 0.2755905511811024,
                    "duration": 0.10443645833333903
                },
                {
                    "name": "B2",
                    "midi": 47,
                    "time": 591.4027762500053,
                    "velocity": 0.2755905511811024,
                    "duration": 0.10443645833333903
                },
                {
                    "name": "C2",
                    "midi": 36,
                    "time": 591.5281000000053,
                    "velocity": 0.30708661417322836,
                    "duration": 0.3341966666666849
                },
                {
                    "name": "C3",
                    "midi": 48,
                    "time": 591.5281000000053,
                    "velocity": 0.30708661417322836,
                    "duration": 0.3341966666666849
                },
                {
                    "name": "D3",
                    "midi": 50,
                    "time": 591.9040712500054,
                    "velocity": 0.28346456692913385,
                    "duration": 0.10443645833333903
                },
                {
                    "name": "D2",
                    "midi": 38,
                    "time": 591.9040712500054,
                    "velocity": 0.28346456692913385,
                    "duration": 0.10443645833333903
                },
                {
                    "name": "E3",
                    "midi": 52,
                    "time": 592.0293950000054,
                    "velocity": 0.3228346456692913,
                    "duration": 0.3341966666666849
                },
                {
                    "name": "E2",
                    "midi": 40,
                    "time": 592.0293950000054,
                    "velocity": 0.3228346456692913,
                    "duration": 0.3341966666666849
                },
                {
                    "name": "F3",
                    "midi": 53,
                    "time": 592.4053662500054,
                    "velocity": 0.2992125984251969,
                    "duration": 0.10443645833322535
                },
                {
                    "name": "F2",
                    "midi": 41,
                    "time": 592.4053662500054,
                    "velocity": 0.2992125984251969,
                    "duration": 0.10443645833322535
                },
                {
                    "name": "E2",
                    "midi": 40,
                    "time": 592.5306900000053,
                    "velocity": 0.3543307086614173,
                    "duration": 0.3341966666666849
                },
                {
                    "name": "E3",
                    "midi": 52,
                    "time": 592.5306900000053,
                    "velocity": 0.3543307086614173,
                    "duration": 0.3341966666666849
                },
                {
                    "name": "F2",
                    "midi": 41,
                    "time": 592.9066612500053,
                    "velocity": 0.30708661417322836,
                    "duration": 0.10443645833333903
                },
                {
                    "name": "F3",
                    "midi": 53,
                    "time": 592.9066612500053,
                    "velocity": 0.30708661417322836,
                    "duration": 0.10443645833333903
                },
                {
                    "name": "G2",
                    "midi": 43,
                    "time": 593.0319850000053,
                    "velocity": 0.3464566929133858,
                    "duration": 0.3341966666666849
                },
                {
                    "name": "G3",
                    "midi": 55,
                    "time": 593.0319850000053,
                    "velocity": 0.3464566929133858,
                    "duration": 0.3341966666666849
                },
                {
                    "name": "A2",
                    "midi": 45,
                    "time": 593.4079562500053,
                    "velocity": 0.31496062992125984,
                    "duration": 0.10443645833333903
                },
                {
                    "name": "A3",
                    "midi": 57,
                    "time": 593.4079562500053,
                    "velocity": 0.31496062992125984,
                    "duration": 0.10443645833333903
                },
                {
                    "name": "G3",
                    "midi": 55,
                    "time": 593.5332800000053,
                    "velocity": 0.36220472440944884,
                    "duration": 0.3341966666666849
                },
                {
                    "name": "G2",
                    "midi": 43,
                    "time": 593.5332800000053,
                    "velocity": 0.36220472440944884,
                    "duration": 0.3341966666666849
                },
                {
                    "name": "F2",
                    "midi": 41,
                    "time": 593.9092512500054,
                    "velocity": 0.3464566929133858,
                    "duration": 0.10443645833333903
                },
                {
                    "name": "F3",
                    "midi": 53,
                    "time": 593.9092512500054,
                    "velocity": 0.3464566929133858,
                    "duration": 0.10443645833333903
                },
                {
                    "name": "E3",
                    "midi": 52,
                    "time": 594.0345750000054,
                    "velocity": 0.36220472440944884,
                    "duration": 0.3341966666665712
                },
                {
                    "name": "E2",
                    "midi": 40,
                    "time": 594.0345750000054,
                    "velocity": 0.36220472440944884,
                    "duration": 0.3341966666665712
                },
                {
                    "name": "D3",
                    "midi": 50,
                    "time": 594.4105462500053,
                    "velocity": 0.3464566929133858,
                    "duration": 0.10443645833333903
                },
                {
                    "name": "D2",
                    "midi": 38,
                    "time": 594.4105462500053,
                    "velocity": 0.3464566929133858,
                    "duration": 0.10443645833333903
                },
                {
                    "name": "C2",
                    "midi": 36,
                    "time": 594.5358700000053,
                    "velocity": 0.3937007874015748,
                    "duration": 0.3341966666666849
                },
                {
                    "name": "C3",
                    "midi": 48,
                    "time": 594.5358700000053,
                    "velocity": 0.3937007874015748,
                    "duration": 0.3341966666666849
                },
                {
                    "name": "B1",
                    "midi": 35,
                    "time": 594.9118412500053,
                    "velocity": 0.36220472440944884,
                    "duration": 0.10443645833333903
                },
                {
                    "name": "B2",
                    "midi": 47,
                    "time": 594.9118412500053,
                    "velocity": 0.36220472440944884,
                    "duration": 0.10443645833333903
                },
                {
                    "name": "C3",
                    "midi": 48,
                    "time": 595.0371650000053,
                    "velocity": 0.4015748031496063,
                    "duration": 0.12532375000000684
                },
                {
                    "name": "C2",
                    "midi": 36,
                    "time": 595.0371650000053,
                    "velocity": 0.4015748031496063,
                    "duration": 0.12532375000000684
                },
                {
                    "name": "A2",
                    "midi": 45,
                    "time": 595.5384600000053,
                    "velocity": 0.6692913385826772,
                    "duration": 1.0025900000000547
                },
                {
                    "name": "A2",
                    "midi": 45,
                    "time": 596.5410500000054,
                    "velocity": 0.5826771653543307,
                    "duration": 1.002589999999941
                },
                {
                    "name": "D2",
                    "midi": 38,
                    "time": 596.5410500000054,
                    "velocity": 0.5826771653543307,
                    "duration": 1.002589999999941
                },
                {
                    "name": "C#2",
                    "midi": 37,
                    "time": 597.5436400000053,
                    "velocity": 0.5590551181102362,
                    "duration": 1.0025900000000547
                },
                {
                    "name": "A2",
                    "midi": 45,
                    "time": 597.5436400000053,
                    "velocity": 0.5590551181102362,
                    "duration": 1.2532375000000684
                },
                {
                    "name": "D2",
                    "midi": 38,
                    "time": 598.5462300000054,
                    "velocity": 0.5590551181102362,
                    "duration": 0.2506475000000137
                },
                {
                    "name": "D2",
                    "midi": 38,
                    "time": 599.0475250000054,
                    "velocity": 0.3464566929133858,
                    "duration": 0.3341966666666849
                },
                {
                    "name": "D3",
                    "midi": 50,
                    "time": 599.0475250000054,
                    "velocity": 0.3464566929133858,
                    "duration": 0.3341966666666849
                },
                {
                    "name": "E3",
                    "midi": 52,
                    "time": 599.4234962500054,
                    "velocity": 0.29133858267716534,
                    "duration": 0.10443645833333903
                },
                {
                    "name": "E2",
                    "midi": 40,
                    "time": 599.4234962500054,
                    "velocity": 0.29133858267716534,
                    "duration": 0.10443645833333903
                },
                {
                    "name": "F3",
                    "midi": 53,
                    "time": 599.5488200000054,
                    "velocity": 0.33070866141732286,
                    "duration": 0.3341966666666849
                },
                {
                    "name": "F2",
                    "midi": 41,
                    "time": 599.5488200000054,
                    "velocity": 0.33070866141732286,
                    "duration": 0.3341966666666849
                },
                {
                    "name": "G3",
                    "midi": 55,
                    "time": 599.9247912500055,
                    "velocity": 0.31496062992125984,
                    "duration": 0.10443645833333903
                },
                {
                    "name": "G2",
                    "midi": 43,
                    "time": 599.9247912500055,
                    "velocity": 0.31496062992125984,
                    "duration": 0.10443645833333903
                },
                {
                    "name": "A2",
                    "midi": 45,
                    "time": 600.0501150000055,
                    "velocity": 0.33858267716535434,
                    "duration": 0.3341966666666849
                },
                {
                    "name": "A3",
                    "midi": 57,
                    "time": 600.0501150000055,
                    "velocity": 0.33858267716535434,
                    "duration": 0.3341966666666849
                },
                {
                    "name": "A#2",
                    "midi": 46,
                    "time": 600.4260862500055,
                    "velocity": 0.33070866141732286,
                    "duration": 0.10443645833333903
                },
                {
                    "name": "A#3",
                    "midi": 58,
                    "time": 600.4260862500055,
                    "velocity": 0.33070866141732286,
                    "duration": 0.10443645833333903
                },
                {
                    "name": "A3",
                    "midi": 57,
                    "time": 600.5514100000055,
                    "velocity": 0.3543307086614173,
                    "duration": 0.3341966666666849
                },
                {
                    "name": "A2",
                    "midi": 45,
                    "time": 600.5514100000055,
                    "velocity": 0.3543307086614173,
                    "duration": 0.3341966666666849
                },
                {
                    "name": "A#2",
                    "midi": 46,
                    "time": 600.9273812500055,
                    "velocity": 0.30708661417322836,
                    "duration": 0.10443645833333903
                },
                {
                    "name": "A#3",
                    "midi": 58,
                    "time": 600.9273812500055,
                    "velocity": 0.30708661417322836,
                    "duration": 0.10443645833333903
                },
                {
                    "name": "C3",
                    "midi": 48,
                    "time": 601.0527050000055,
                    "velocity": 0.3464566929133858,
                    "duration": 0.3341966666665712
                },
                {
                    "name": "C4",
                    "midi": 60,
                    "time": 601.0527050000055,
                    "velocity": 0.3464566929133858,
                    "duration": 0.3341966666665712
                },
                {
                    "name": "D4",
                    "midi": 62,
                    "time": 601.4286762500054,
                    "velocity": 0.31496062992125984,
                    "duration": 0.10443645833333903
                },
                {
                    "name": "D3",
                    "midi": 50,
                    "time": 601.4286762500054,
                    "velocity": 0.31496062992125984,
                    "duration": 0.10443645833333903
                },
                {
                    "name": "C3",
                    "midi": 48,
                    "time": 601.5540000000054,
                    "velocity": 0.36220472440944884,
                    "duration": 0.3341966666666849
                },
                {
                    "name": "C4",
                    "midi": 60,
                    "time": 601.5540000000054,
                    "velocity": 0.36220472440944884,
                    "duration": 0.3341966666666849
                },
                {
                    "name": "A#2",
                    "midi": 46,
                    "time": 601.9299712500055,
                    "velocity": 0.3464566929133858,
                    "duration": 0.10443645833333903
                },
                {
                    "name": "A#3",
                    "midi": 58,
                    "time": 601.9299712500055,
                    "velocity": 0.3464566929133858,
                    "duration": 0.10443645833333903
                },
                {
                    "name": "A2",
                    "midi": 45,
                    "time": 602.0552950000055,
                    "velocity": 0.36220472440944884,
                    "duration": 0.3341966666666849
                },
                {
                    "name": "A3",
                    "midi": 57,
                    "time": 602.0552950000055,
                    "velocity": 0.36220472440944884,
                    "duration": 0.3341966666666849
                },
                {
                    "name": "G3",
                    "midi": 55,
                    "time": 602.4312662500055,
                    "velocity": 0.3464566929133858,
                    "duration": 0.10443645833333903
                },
                {
                    "name": "G2",
                    "midi": 43,
                    "time": 602.4312662500055,
                    "velocity": 0.3464566929133858,
                    "duration": 0.10443645833333903
                },
                {
                    "name": "F3",
                    "midi": 53,
                    "time": 602.5565900000055,
                    "velocity": 0.3937007874015748,
                    "duration": 0.3341966666666849
                },
                {
                    "name": "F2",
                    "midi": 41,
                    "time": 602.5565900000055,
                    "velocity": 0.3937007874015748,
                    "duration": 0.3341966666666849
                },
                {
                    "name": "E3",
                    "midi": 52,
                    "time": 602.9325612500055,
                    "velocity": 0.36220472440944884,
                    "duration": 0.10443645833333903
                },
                {
                    "name": "E2",
                    "midi": 40,
                    "time": 602.9325612500055,
                    "velocity": 0.36220472440944884,
                    "duration": 0.10443645833333903
                },
                {
                    "name": "F2",
                    "midi": 41,
                    "time": 603.0578850000055,
                    "velocity": 0.4015748031496063,
                    "duration": 0.12532375000000684
                },
                {
                    "name": "F3",
                    "midi": 53,
                    "time": 603.0578850000055,
                    "velocity": 0.4015748031496063,
                    "duration": 0.12532375000000684
                },
                {
                    "name": "D3",
                    "midi": 50,
                    "time": 603.5591800000055,
                    "velocity": 0.7007874015748031,
                    "duration": 1.002589999999941
                },
                {
                    "name": "G3",
                    "midi": 55,
                    "time": 603.5591800000055,
                    "velocity": 0.7007874015748031,
                    "duration": 1.002589999999941
                },
                {
                    "name": "D4",
                    "midi": 62,
                    "time": 603.5591800000055,
                    "velocity": 0.7795275590551181,
                    "duration": 1.002589999999941
                },
                {
                    "name": "A#3",
                    "midi": 58,
                    "time": 603.5591800000055,
                    "velocity": 0.7795275590551181,
                    "duration": 1.002589999999941
                },
                {
                    "name": "D3",
                    "midi": 50,
                    "time": 604.5617700000055,
                    "velocity": 0.6377952755905512,
                    "duration": 0.18798562500001026
                },
                {
                    "name": "D2",
                    "midi": 38,
                    "time": 604.5617700000055,
                    "velocity": 0.5669291338582677,
                    "duration": 0.18798562500001026
                },
                {
                    "name": "D3",
                    "midi": 50,
                    "time": 605.5643600000055,
                    "velocity": 0.7086614173228346,
                    "duration": 1.002589999999941
                },
                {
                    "name": "F3",
                    "midi": 53,
                    "time": 605.5643600000055,
                    "velocity": 0.7086614173228346,
                    "duration": 1.002589999999941
                },
                {
                    "name": "A3",
                    "midi": 57,
                    "time": 605.5643600000055,
                    "velocity": 0.7874015748031497,
                    "duration": 1.002589999999941
                },
                {
                    "name": "D4",
                    "midi": 62,
                    "time": 605.5643600000055,
                    "velocity": 0.7874015748031497,
                    "duration": 1.002589999999941
                },
                {
                    "name": "D2",
                    "midi": 38,
                    "time": 606.5669500000055,
                    "velocity": 0.5669291338582677,
                    "duration": 0.18798562500001026
                },
                {
                    "name": "D3",
                    "midi": 50,
                    "time": 606.5669500000055,
                    "velocity": 0.6377952755905512,
                    "duration": 0.18798562500001026
                },
                {
                    "name": "D3",
                    "midi": 50,
                    "time": 607.5695400000055,
                    "velocity": 0.6062992125984252,
                    "duration": 1.0025900000000547
                },
                {
                    "name": "G3",
                    "midi": 55,
                    "time": 607.5695400000055,
                    "velocity": 0.6062992125984252,
                    "duration": 1.0025900000000547
                },
                {
                    "name": "A#3",
                    "midi": 58,
                    "time": 607.5695400000055,
                    "velocity": 0.6771653543307087,
                    "duration": 1.0025900000000547
                },
                {
                    "name": "D4",
                    "midi": 62,
                    "time": 607.5695400000055,
                    "velocity": 0.6771653543307087,
                    "duration": 1.0025900000000547
                },
                {
                    "name": "D3",
                    "midi": 50,
                    "time": 608.5721300000056,
                    "velocity": 0.5354330708661418,
                    "duration": 0.18798562500001026
                },
                {
                    "name": "D2",
                    "midi": 38,
                    "time": 608.5721300000056,
                    "velocity": 0.48031496062992124,
                    "duration": 0.18798562500001026
                },
                {
                    "name": "D3",
                    "midi": 50,
                    "time": 609.5747200000056,
                    "velocity": 0.5669291338582677,
                    "duration": 1.002589999999941
                },
                {
                    "name": "F3",
                    "midi": 53,
                    "time": 609.5747200000056,
                    "velocity": 0.5669291338582677,
                    "duration": 1.002589999999941
                },
                {
                    "name": "A3",
                    "midi": 57,
                    "time": 609.5747200000056,
                    "velocity": 0.6377952755905512,
                    "duration": 1.002589999999941
                },
                {
                    "name": "D4",
                    "midi": 62,
                    "time": 609.5747200000056,
                    "velocity": 0.6377952755905512,
                    "duration": 0.9921463541666071
                },
                {
                    "name": "D3",
                    "midi": 50,
                    "time": 610.5773100000056,
                    "velocity": 0.5748031496062992,
                    "duration": 0.18798562500001026
                },
                {
                    "name": "D2",
                    "midi": 38,
                    "time": 610.5773100000056,
                    "velocity": 0.5118110236220472,
                    "duration": 0.18798562500001026
                },
                {
                    "name": "D3",
                    "midi": 50,
                    "time": 611.5799000000056,
                    "velocity": 0.5669291338582677,
                    "duration": 1.002589999999941
                },
                {
                    "name": "G3",
                    "midi": 55,
                    "time": 611.5799000000056,
                    "velocity": 0.5669291338582677,
                    "duration": 1.002589999999941
                },
                {
                    "name": "A#3",
                    "midi": 58,
                    "time": 611.5799000000056,
                    "velocity": 0.6377952755905512,
                    "duration": 1.002589999999941
                },
                {
                    "name": "D4",
                    "midi": 62,
                    "time": 611.5799000000056,
                    "velocity": 0.6377952755905512,
                    "duration": 0.9921463541666071
                },
                {
                    "name": "D2",
                    "midi": 38,
                    "time": 612.5824900000056,
                    "velocity": 0.5118110236220472,
                    "duration": 0.18798562500001026
                },
                {
                    "name": "D3",
                    "midi": 50,
                    "time": 612.5824900000056,
                    "velocity": 0.5748031496062992,
                    "duration": 0.18798562500001026
                },
                {
                    "name": "D3",
                    "midi": 50,
                    "time": 613.5850800000056,
                    "velocity": 0.5748031496062992,
                    "duration": 1.002589999999941
                },
                {
                    "name": "A3",
                    "midi": 57,
                    "time": 613.5850800000056,
                    "velocity": 0.6456692913385826,
                    "duration": 1.002589999999941
                },
                {
                    "name": "D4",
                    "midi": 62,
                    "time": 613.5850800000056,
                    "velocity": 0.6456692913385826,
                    "duration": 0.9921463541666071
                },
                {
                    "name": "F3",
                    "midi": 53,
                    "time": 613.5850800000056,
                    "velocity": 0.5748031496062992,
                    "duration": 1.002589999999941
                },
                {
                    "name": "D2",
                    "midi": 38,
                    "time": 614.5876700000056,
                    "velocity": 0.5039370078740157,
                    "duration": 0.18798562499989657
                },
                {
                    "name": "D3",
                    "midi": 50,
                    "time": 614.5876700000056,
                    "velocity": 0.5669291338582677,
                    "duration": 0.18798562499989657
                },
                {
                    "name": "G3",
                    "midi": 55,
                    "time": 615.5902600000055,
                    "velocity": 0.6220472440944882,
                    "duration": 1.0025900000000547
                },
                {
                    "name": "D4",
                    "midi": 62,
                    "time": 615.5902600000055,
                    "velocity": 0.6929133858267716,
                    "duration": 1.0025900000000547
                },
                {
                    "name": "A#3",
                    "midi": 58,
                    "time": 615.5902600000055,
                    "velocity": 0.6220472440944882,
                    "duration": 1.0025900000000547
                },
                {
                    "name": "G4",
                    "midi": 67,
                    "time": 615.5902600000055,
                    "velocity": 0.6929133858267716,
                    "duration": 0.49085135416669345
                },
                {
                    "name": "G2",
                    "midi": 43,
                    "time": 616.5928500000056,
                    "velocity": 0.5118110236220472,
                    "duration": 0.18798562499989657
                },
                {
                    "name": "G3",
                    "midi": 55,
                    "time": 616.5928500000056,
                    "velocity": 0.5748031496062992,
                    "duration": 0.18798562499989657
                },
                {
                    "name": "C4",
                    "midi": 60,
                    "time": 617.5954400000054,
                    "velocity": 0.5826771653543307,
                    "duration": 1.0025900000000547
                },
                {
                    "name": "G3",
                    "midi": 55,
                    "time": 617.5954400000054,
                    "velocity": 0.5826771653543307,
                    "duration": 1.0025900000000547
                },
                {
                    "name": "D#4",
                    "midi": 63,
                    "time": 617.5954400000054,
                    "velocity": 0.6535433070866141,
                    "duration": 1.0025900000000547
                },
                {
                    "name": "G4",
                    "midi": 67,
                    "time": 617.5954400000054,
                    "velocity": 0.6535433070866141,
                    "duration": 0.49085135416669345
                },
                {
                    "name": "G3",
                    "midi": 55,
                    "time": 618.5980300000055,
                    "velocity": 0.5748031496062992,
                    "duration": 0.18798562499989657
                },
                {
                    "name": "G2",
                    "midi": 43,
                    "time": 618.5980300000055,
                    "velocity": 0.5118110236220472,
                    "duration": 0.18798562499989657
                },
                {
                    "name": "A#3",
                    "midi": 58,
                    "time": 619.6006200000053,
                    "velocity": 0.5748031496062992,
                    "duration": 1.0025900000000547
                },
                {
                    "name": "G3",
                    "midi": 55,
                    "time": 619.6006200000053,
                    "velocity": 0.5748031496062992,
                    "duration": 1.0025900000000547
                },
                {
                    "name": "G4",
                    "midi": 67,
                    "time": 619.6006200000053,
                    "velocity": 0.6456692913385826,
                    "duration": 0.49085135416669345
                },
                {
                    "name": "D4",
                    "midi": 62,
                    "time": 619.6006200000053,
                    "velocity": 0.6456692913385826,
                    "duration": 1.0025900000000547
                },
                {
                    "name": "G2",
                    "midi": 43,
                    "time": 620.6032100000053,
                    "velocity": 0.5039370078740157,
                    "duration": 0.18798562500001026
                },
                {
                    "name": "G3",
                    "midi": 55,
                    "time": 620.6032100000053,
                    "velocity": 0.5669291338582677,
                    "duration": 0.18798562500001026
                },
                {
                    "name": "F3",
                    "midi": 53,
                    "time": 621.6058000000054,
                    "velocity": 0.5748031496062992,
                    "duration": 1.002589999999941
                },
                {
                    "name": "D4",
                    "midi": 62,
                    "time": 621.6058000000054,
                    "velocity": 0.6456692913385826,
                    "duration": 1.002589999999941
                },
                {
                    "name": "A3",
                    "midi": 57,
                    "time": 621.6058000000054,
                    "velocity": 0.5748031496062992,
                    "duration": 1.002589999999941
                },
                {
                    "name": "F4",
                    "midi": 65,
                    "time": 621.6058000000054,
                    "velocity": 0.6456692913385826,
                    "duration": 1.002589999999941
                },
                {
                    "name": "F3",
                    "midi": 53,
                    "time": 622.6083900000053,
                    "velocity": 0.5826771653543307,
                    "duration": 0.18798562500001026
                },
                {
                    "name": "F2",
                    "midi": 41,
                    "time": 622.6083900000053,
                    "velocity": 0.5196850393700787,
                    "duration": 0.18798562500001026
                },
                {
                    "name": "E3",
                    "midi": 52,
                    "time": 623.6109800000054,
                    "velocity": 0.5984251968503937,
                    "duration": 0.9608154166667191
                },
                {
                    "name": "C#4",
                    "midi": 61,
                    "time": 623.6109800000054,
                    "velocity": 0.6692913385826772,
                    "duration": 0.9608154166667191
                },
                {
                    "name": "E4",
                    "midi": 64,
                    "time": 623.6109800000054,
                    "velocity": 0.6692913385826772,
                    "duration": 0.9608154166667191
                },
                {
                    "name": "C#4",
                    "midi": 61,
                    "time": 624.6135700000054,
                    "velocity": 0.5905511811023622,
                    "duration": 0.9608154166666054
                },
                {
                    "name": "A4",
                    "midi": 69,
                    "time": 624.6135700000054,
                    "velocity": 0.6614173228346457,
                    "duration": 0.9608154166666054
                },
                {
                    "name": "A3",
                    "midi": 57,
                    "time": 624.6135700000054,
                    "velocity": 0.5905511811023622,
                    "duration": 0.9608154166666054
                },
                {
                    "name": "F4",
                    "midi": 65,
                    "time": 625.6161600000054,
                    "velocity": 0.6456692913385826,
                    "duration": 1.0025900000000547
                },
                {
                    "name": "F3",
                    "midi": 53,
                    "time": 625.6161600000054,
                    "velocity": 0.5748031496062992,
                    "duration": 1.0025900000000547
                },
                {
                    "name": "D4",
                    "midi": 62,
                    "time": 626.6187500000054,
                    "velocity": 0.5748031496062992,
                    "duration": 0.20887291666667807
                },
                {
                    "name": "D3",
                    "midi": 50,
                    "time": 626.6187500000054,
                    "velocity": 0.5118110236220472,
                    "duration": 0.20887291666667807
                },
                {
                    "name": "E2",
                    "midi": 40,
                    "time": 627.6213400000055,
                    "velocity": 0.3464566929133858,
                    "duration": 0.9608154166666054
                },
                {
                    "name": "C#3",
                    "midi": 49,
                    "time": 627.6213400000055,
                    "velocity": 0.3464566929133858,
                    "duration": 0.9608154166666054
                },
                {
                    "name": "E3",
                    "midi": 52,
                    "time": 627.6213400000055,
                    "velocity": 0.3464566929133858,
                    "duration": 0.9608154166666054
                },
                {
                    "name": "A3",
                    "midi": 57,
                    "time": 628.6239300000054,
                    "velocity": 0.31496062992125984,
                    "duration": 0.9608154166667191
                },
                {
                    "name": "A2",
                    "midi": 45,
                    "time": 628.6239300000054,
                    "velocity": 0.31496062992125984,
                    "duration": 0.9608154166667191
                },
                {
                    "name": "C#3",
                    "midi": 49,
                    "time": 628.6239300000054,
                    "velocity": 0.31496062992125984,
                    "duration": 0.9608154166667191
                },
                {
                    "name": "F3",
                    "midi": 53,
                    "time": 629.6265200000055,
                    "velocity": 0.31496062992125984,
                    "duration": 1.0025900000000547
                },
                {
                    "name": "F2",
                    "midi": 41,
                    "time": 629.6265200000055,
                    "velocity": 0.31496062992125984,
                    "duration": 1.0025900000000547
                },
                {
                    "name": "D3",
                    "midi": 50,
                    "time": 630.6291100000055,
                    "velocity": 0.31496062992125984,
                    "duration": 0.20887291666667807
                },
                {
                    "name": "D2",
                    "midi": 38,
                    "time": 630.6291100000055,
                    "velocity": 0.31496062992125984,
                    "duration": 0.20887291666667807
                },
                {
                    "name": "D#3",
                    "midi": 51,
                    "time": 631.6317000000056,
                    "velocity": 0.2677165354330709,
                    "duration": 1.002589999999941
                },
                {
                    "name": "D#2",
                    "midi": 39,
                    "time": 631.6317000000056,
                    "velocity": 0.2677165354330709,
                    "duration": 1.002589999999941
                },
                {
                    "name": "C2",
                    "midi": 36,
                    "time": 632.6342900000055,
                    "velocity": 0.2047244094488189,
                    "duration": 0.20887291666656438
                },
                {
                    "name": "C3",
                    "midi": 48,
                    "time": 632.6342900000055,
                    "velocity": 0.2047244094488189,
                    "duration": 0.20887291666656438
                },
                {
                    "name": "D#2",
                    "midi": 39,
                    "time": 633.6368800000055,
                    "velocity": 0.25984251968503935,
                    "duration": 1.002589999999941
                },
                {
                    "name": "D#3",
                    "midi": 51,
                    "time": 633.6368800000055,
                    "velocity": 0.25984251968503935,
                    "duration": 1.002589999999941
                },
                {
                    "name": "C3",
                    "midi": 48,
                    "time": 634.6394700000054,
                    "velocity": 0.1889763779527559,
                    "duration": 0.20887291666656438
                },
                {
                    "name": "C2",
                    "midi": 36,
                    "time": 634.6394700000054,
                    "velocity": 0.1889763779527559,
                    "duration": 0.20887291666656438
                },
                {
                    "name": "C4",
                    "midi": 60,
                    "time": 635.6420600000054,
                    "velocity": 0.25984251968503935,
                    "duration": 1.0025900000000547
                },
                {
                    "name": "F#3",
                    "midi": 54,
                    "time": 635.6420600000054,
                    "velocity": 0.25984251968503935,
                    "duration": 1.190575625000065
                },
                {
                    "name": "D#4",
                    "midi": 63,
                    "time": 636.6446500000054,
                    "velocity": 0.1889763779527559,
                    "duration": 0.20887291666667807
                },
                {
                    "name": "F3",
                    "midi": 53,
                    "time": 637.6472400000055,
                    "velocity": 0.25984251968503935,
                    "duration": 1.190575625000065
                },
                {
                    "name": "C4",
                    "midi": 60,
                    "time": 637.6472400000055,
                    "velocity": 0.25984251968503935,
                    "duration": 1.0025900000000547
                },
                {
                    "name": "D#4",
                    "midi": 63,
                    "time": 638.6498300000055,
                    "velocity": 0.1889763779527559,
                    "duration": 0.20887291666667807
                },
                {
                    "name": "E3",
                    "midi": 52,
                    "time": 639.6524200000056,
                    "velocity": 0.25984251968503935,
                    "duration": 1.1905756249999513
                },
                {
                    "name": "C#4",
                    "midi": 61,
                    "time": 639.6524200000056,
                    "velocity": 0.25984251968503935,
                    "duration": 1.002589999999941
                },
                {
                    "name": "E4",
                    "midi": 64,
                    "time": 640.6550100000055,
                    "velocity": 0.1889763779527559,
                    "duration": 0.20887291666667807
                },
                {
                    "name": "D4",
                    "midi": 62,
                    "time": 641.6576000000056,
                    "velocity": 0.25984251968503935,
                    "duration": 1.0025900000000547
                },
                {
                    "name": "E3",
                    "midi": 52,
                    "time": 641.6576000000056,
                    "velocity": 0.25984251968503935,
                    "duration": 1.190575625000065
                },
                {
                    "name": "E4",
                    "midi": 64,
                    "time": 642.6601900000056,
                    "velocity": 0.1889763779527559,
                    "duration": 0.20887291666667807
                },
                {
                    "name": "A2",
                    "midi": 45,
                    "time": 643.6627800000057,
                    "velocity": 0.15748031496062992,
                    "duration": 0.2924220833333493
                },
                {
                    "name": "E3",
                    "midi": 52,
                    "time": 643.6627800000057,
                    "velocity": 0.15748031496062992,
                    "duration": 0.2924220833333493
                },
                {
                    "name": "E3",
                    "midi": 52,
                    "time": 643.9969766666724,
                    "velocity": 0.12598425196850394,
                    "duration": 0.2924220833333493
                },
                {
                    "name": "A2",
                    "midi": 45,
                    "time": 643.9969766666724,
                    "velocity": 0.12598425196850394,
                    "duration": 0.2924220833333493
                },
                {
                    "name": "E3",
                    "midi": 52,
                    "time": 644.331173333339,
                    "velocity": 0.12598425196850394,
                    "duration": 0.2924220833333493
                },
                {
                    "name": "A2",
                    "midi": 45,
                    "time": 644.331173333339,
                    "velocity": 0.12598425196850394,
                    "duration": 0.2924220833333493
                },
                {
                    "name": "A2",
                    "midi": 45,
                    "time": 644.6653700000057,
                    "velocity": 0.12598425196850394,
                    "duration": 0.8772662500000479
                },
                {
                    "name": "E3",
                    "midi": 52,
                    "time": 644.6653700000057,
                    "velocity": 0.12598425196850394,
                    "duration": 0.8772662500000479
                },
                {
                    "name": "A2",
                    "midi": 45,
                    "time": 645.6679600000058,
                    "velocity": 0.15748031496062992,
                    "duration": 0.49085135416669345
                },
                {
                    "name": "E3",
                    "midi": 52,
                    "time": 645.6679600000058,
                    "velocity": 0.15748031496062992,
                    "duration": 0.49085135416669345
                },
                {
                    "name": "E3",
                    "midi": 52,
                    "time": 646.1692550000058,
                    "velocity": 0.12598425196850394,
                    "duration": 0.49085135416669345
                },
                {
                    "name": "A2",
                    "midi": 45,
                    "time": 646.1692550000058,
                    "velocity": 0.12598425196850394,
                    "duration": 0.49085135416669345
                },
                {
                    "name": "A2",
                    "midi": 45,
                    "time": 646.6705500000058,
                    "velocity": 0.14960629921259844,
                    "duration": 0.49085135416669345
                },
                {
                    "name": "E3",
                    "midi": 52,
                    "time": 646.6705500000058,
                    "velocity": 0.14960629921259844,
                    "duration": 0.49085135416669345
                },
                {
                    "name": "E3",
                    "midi": 52,
                    "time": 647.1718450000059,
                    "velocity": 0.11811023622047244,
                    "duration": 0.49085135416669345
                },
                {
                    "name": "A2",
                    "midi": 45,
                    "time": 647.1718450000059,
                    "velocity": 0.11811023622047244,
                    "duration": 0.49085135416669345
                },
                {
                    "name": "A2",
                    "midi": 45,
                    "time": 647.6731400000059,
                    "velocity": 0.18110236220472442,
                    "duration": 0.2924220833333493
                },
                {
                    "name": "F#3",
                    "midi": 54,
                    "time": 647.6731400000059,
                    "velocity": 0.18110236220472442,
                    "duration": 0.2924220833333493
                },
                {
                    "name": "F#3",
                    "midi": 54,
                    "time": 648.0073366666726,
                    "velocity": 0.14960629921259844,
                    "duration": 0.2924220833333493
                },
                {
                    "name": "A2",
                    "midi": 45,
                    "time": 648.0073366666726,
                    "velocity": 0.14960629921259844,
                    "duration": 0.2924220833333493
                },
                {
                    "name": "A2",
                    "midi": 45,
                    "time": 648.3415333333393,
                    "velocity": 0.13385826771653545,
                    "duration": 0.2924220833333493
                },
                {
                    "name": "F#3",
                    "midi": 54,
                    "time": 648.3415333333393,
                    "velocity": 0.13385826771653545,
                    "duration": 0.2924220833333493
                },
                {
                    "name": "A2",
                    "midi": 45,
                    "time": 648.675730000006,
                    "velocity": 0.11811023622047244,
                    "duration": 0.8772662500000479
                },
                {
                    "name": "F#3",
                    "midi": 54,
                    "time": 648.675730000006,
                    "velocity": 0.11811023622047244,
                    "duration": 0.8772662500000479
                },
                {
                    "name": "F#3",
                    "midi": 54,
                    "time": 649.678320000006,
                    "velocity": 0.15748031496062992,
                    "duration": 0.49085135416657977
                },
                {
                    "name": "A2",
                    "midi": 45,
                    "time": 649.678320000006,
                    "velocity": 0.15748031496062992,
                    "duration": 0.49085135416657977
                },
                {
                    "name": "G#3",
                    "midi": 56,
                    "time": 650.1796150000059,
                    "velocity": 0.11811023622047244,
                    "duration": 0.49085135416669345
                },
                {
                    "name": "A2",
                    "midi": 45,
                    "time": 650.1796150000059,
                    "velocity": 0.11811023622047244,
                    "duration": 0.49085135416669345
                },
                {
                    "name": "A2",
                    "midi": 45,
                    "time": 650.680910000006,
                    "velocity": 0.14960629921259844,
                    "duration": 0.49085135416669345
                },
                {
                    "name": "F#3",
                    "midi": 54,
                    "time": 650.680910000006,
                    "velocity": 0.14960629921259844,
                    "duration": 0.49085135416669345
                },
                {
                    "name": "A2",
                    "midi": 45,
                    "time": 651.182205000006,
                    "velocity": 0.11811023622047244,
                    "duration": 0.49085135416669345
                },
                {
                    "name": "G#3",
                    "midi": 56,
                    "time": 651.182205000006,
                    "velocity": 0.11811023622047244,
                    "duration": 0.49085135416669345
                },
                {
                    "name": "A3",
                    "midi": 57,
                    "time": 651.683500000006,
                    "velocity": 0.18110236220472442,
                    "duration": 0.2924220833333493
                },
                {
                    "name": "A2",
                    "midi": 45,
                    "time": 651.683500000006,
                    "velocity": 0.18110236220472442,
                    "duration": 0.2924220833333493
                },
                {
                    "name": "A2",
                    "midi": 45,
                    "time": 652.0176966666727,
                    "velocity": 0.14173228346456693,
                    "duration": 0.2924220833333493
                },
                {
                    "name": "A3",
                    "midi": 57,
                    "time": 652.0176966666727,
                    "velocity": 0.14173228346456693,
                    "duration": 0.2924220833333493
                },
                {
                    "name": "A2",
                    "midi": 45,
                    "time": 652.3518933333394,
                    "velocity": 0.13385826771653545,
                    "duration": 0.2924220833333493
                },
                {
                    "name": "A3",
                    "midi": 57,
                    "time": 652.3518933333394,
                    "velocity": 0.13385826771653545,
                    "duration": 0.2924220833333493
                },
                {
                    "name": "E3",
                    "midi": 52,
                    "time": 652.6860900000061,
                    "velocity": 0.11811023622047244,
                    "duration": 0.8772662500000479
                },
                {
                    "name": "A2",
                    "midi": 45,
                    "time": 652.6860900000061,
                    "velocity": 0.11811023622047244,
                    "duration": 0.8772662500000479
                },
                {
                    "name": "A2",
                    "midi": 45,
                    "time": 653.6886800000061,
                    "velocity": 0.18110236220472442,
                    "duration": 0.49085135416669345
                },
                {
                    "name": "E3",
                    "midi": 52,
                    "time": 653.6886800000061,
                    "velocity": 0.18110236220472442,
                    "duration": 0.49085135416669345
                },
                {
                    "name": "E3",
                    "midi": 52,
                    "time": 654.1899750000061,
                    "velocity": 0.14173228346456693,
                    "duration": 0.49085135416669345
                },
                {
                    "name": "A2",
                    "midi": 45,
                    "time": 654.1899750000061,
                    "velocity": 0.14173228346456693,
                    "duration": 0.49085135416669345
                },
                {
                    "name": "E3",
                    "midi": 52,
                    "time": 654.6912700000062,
                    "velocity": 0.2047244094488189,
                    "duration": 0.49085135416669345
                },
                {
                    "name": "A2",
                    "midi": 45,
                    "time": 654.6912700000062,
                    "velocity": 0.2047244094488189,
                    "duration": 0.49085135416669345
                },
                {
                    "name": "A2",
                    "midi": 45,
                    "time": 655.1925650000062,
                    "velocity": 0.1732283464566929,
                    "duration": 0.49085135416669345
                },
                {
                    "name": "E3",
                    "midi": 52,
                    "time": 655.1925650000062,
                    "velocity": 0.1732283464566929,
                    "duration": 0.49085135416669345
                },
                {
                    "name": "F#3",
                    "midi": 54,
                    "time": 655.6938600000062,
                    "velocity": 0.2440944881889764,
                    "duration": 0.2924220833333493
                },
                {
                    "name": "A2",
                    "midi": 45,
                    "time": 655.6938600000062,
                    "velocity": 0.2440944881889764,
                    "duration": 0.2924220833333493
                },
                {
                    "name": "A2",
                    "midi": 45,
                    "time": 656.0280566666729,
                    "velocity": 0.18110236220472442,
                    "duration": 0.2924220833333493
                },
                {
                    "name": "F#3",
                    "midi": 54,
                    "time": 656.0280566666729,
                    "velocity": 0.18110236220472442,
                    "duration": 0.2924220833333493
                },
                {
                    "name": "A2",
                    "midi": 45,
                    "time": 656.3622533333396,
                    "velocity": 0.1732283464566929,
                    "duration": 0.2924220833333493
                },
                {
                    "name": "F#3",
                    "midi": 54,
                    "time": 656.3622533333396,
                    "velocity": 0.1732283464566929,
                    "duration": 0.2924220833333493
                },
                {
                    "name": "F#3",
                    "midi": 54,
                    "time": 656.6964500000063,
                    "velocity": 0.13385826771653545,
                    "duration": 0.8772662500000479
                },
                {
                    "name": "A2",
                    "midi": 45,
                    "time": 656.6964500000063,
                    "velocity": 0.13385826771653545,
                    "duration": 0.8772662500000479
                },
                {
                    "name": "A2",
                    "midi": 45,
                    "time": 657.6990400000063,
                    "velocity": 0.4409448818897638,
                    "duration": 2.0051800000001094
                },
                {
                    "name": "F#3",
                    "midi": 54,
                    "time": 657.6990400000063,
                    "velocity": 0.4409448818897638,
                    "duration": 0.5012950000000274
                },
                {
                    "name": "A3",
                    "midi": 57,
                    "time": 658.2003350000064,
                    "velocity": 0.41732283464566927,
                    "duration": 0.5012950000000274
                },
                {
                    "name": "D4",
                    "midi": 62,
                    "time": 658.7016300000064,
                    "velocity": 0.4409448818897638,
                    "duration": 0.5012950000000274
                },
                {
                    "name": "F#4",
                    "midi": 66,
                    "time": 659.2029250000064,
                    "velocity": 0.4566929133858268,
                    "duration": 0.5012950000000274
                },
                {
                    "name": "A3",
                    "midi": 57,
                    "time": 659.7042200000064,
                    "velocity": 0.2047244094488189,
                    "duration": 0.2924220833333493
                },
                {
                    "name": "E4",
                    "midi": 64,
                    "time": 659.7042200000064,
                    "velocity": 0.2047244094488189,
                    "duration": 0.2924220833333493
                },
                {
                    "name": "E4",
                    "midi": 64,
                    "time": 660.0384166666731,
                    "velocity": 0.1732283464566929,
                    "duration": 0.2924220833333493
                },
                {
                    "name": "A3",
                    "midi": 57,
                    "time": 660.0384166666731,
                    "velocity": 0.1732283464566929,
                    "duration": 0.2924220833333493
                },
                {
                    "name": "E4",
                    "midi": 64,
                    "time": 660.3726133333398,
                    "velocity": 0.1732283464566929,
                    "duration": 0.2924220833333493
                },
                {
                    "name": "A3",
                    "midi": 57,
                    "time": 660.3726133333398,
                    "velocity": 0.1732283464566929,
                    "duration": 0.2924220833333493
                },
                {
                    "name": "A3",
                    "midi": 57,
                    "time": 660.7068100000065,
                    "velocity": 0.13385826771653545,
                    "duration": 0.8772662500000479
                },
                {
                    "name": "E4",
                    "midi": 64,
                    "time": 660.7068100000065,
                    "velocity": 0.13385826771653545,
                    "duration": 0.8772662500000479
                },
                {
                    "name": "A3",
                    "midi": 57,
                    "time": 661.7094000000066,
                    "velocity": 0.1889763779527559,
                    "duration": 0.49085135416669345
                },
                {
                    "name": "E4",
                    "midi": 64,
                    "time": 661.7094000000066,
                    "velocity": 0.1889763779527559,
                    "duration": 0.49085135416669345
                },
                {
                    "name": "E4",
                    "midi": 64,
                    "time": 662.2106950000066,
                    "velocity": 0.14960629921259844,
                    "duration": 0.49085135416669345
                },
                {
                    "name": "A3",
                    "midi": 57,
                    "time": 662.2106950000066,
                    "velocity": 0.14960629921259844,
                    "duration": 0.49085135416669345
                },
                {
                    "name": "A3",
                    "midi": 57,
                    "time": 662.7119900000066,
                    "velocity": 0.1732283464566929,
                    "duration": 0.49085135416669345
                },
                {
                    "name": "G#4",
                    "midi": 68,
                    "time": 662.7119900000066,
                    "velocity": 0.1732283464566929,
                    "duration": 0.49085135416669345
                },
                {
                    "name": "A3",
                    "midi": 57,
                    "time": 663.2132850000066,
                    "velocity": 0.14960629921259844,
                    "duration": 0.49085135416669345
                },
                {
                    "name": "F#4",
                    "midi": 66,
                    "time": 663.2132850000066,
                    "velocity": 0.14960629921259844,
                    "duration": 0.49085135416669345
                },
                {
                    "name": "A3",
                    "midi": 57,
                    "time": 663.7145800000067,
                    "velocity": 0.1889763779527559,
                    "duration": 0.2924220833333493
                },
                {
                    "name": "E4",
                    "midi": 64,
                    "time": 663.7145800000067,
                    "velocity": 0.1889763779527559,
                    "duration": 0.2924220833333493
                },
                {
                    "name": "A3",
                    "midi": 57,
                    "time": 664.0487766666733,
                    "velocity": 0.14960629921259844,
                    "duration": 0.2924220833333493
                },
                {
                    "name": "E4",
                    "midi": 64,
                    "time": 664.0487766666733,
                    "velocity": 0.14960629921259844,
                    "duration": 0.2924220833333493
                },
                {
                    "name": "A3",
                    "midi": 57,
                    "time": 664.38297333334,
                    "velocity": 0.14960629921259844,
                    "duration": 0.2924220833333493
                },
                {
                    "name": "E4",
                    "midi": 64,
                    "time": 664.38297333334,
                    "velocity": 0.14960629921259844,
                    "duration": 0.2924220833333493
                },
                {
                    "name": "A3",
                    "midi": 57,
                    "time": 664.7171700000067,
                    "velocity": 0.11811023622047244,
                    "duration": 0.8772662500000479
                },
                {
                    "name": "E4",
                    "midi": 64,
                    "time": 664.7171700000067,
                    "velocity": 0.11811023622047244,
                    "duration": 0.8772662500000479
                },
                {
                    "name": "E4",
                    "midi": 64,
                    "time": 665.7197600000068,
                    "velocity": 0.1889763779527559,
                    "duration": 0.49085135416657977
                },
                {
                    "name": "A3",
                    "midi": 57,
                    "time": 665.7197600000068,
                    "velocity": 0.1889763779527559,
                    "duration": 0.49085135416657977
                },
                {
                    "name": "E4",
                    "midi": 64,
                    "time": 666.2210550000067,
                    "velocity": 0.14173228346456693,
                    "duration": 0.49085135416669345
                },
                {
                    "name": "A3",
                    "midi": 57,
                    "time": 666.2210550000067,
                    "velocity": 0.14173228346456693,
                    "duration": 0.49085135416669345
                },
                {
                    "name": "G#4",
                    "midi": 68,
                    "time": 666.7223500000067,
                    "velocity": 0.1732283464566929,
                    "duration": 0.49085135416669345
                },
                {
                    "name": "A3",
                    "midi": 57,
                    "time": 666.7223500000067,
                    "velocity": 0.1732283464566929,
                    "duration": 0.49085135416669345
                },
                {
                    "name": "A3",
                    "midi": 57,
                    "time": 667.2236450000067,
                    "velocity": 0.14960629921259844,
                    "duration": 0.49085135416669345
                },
                {
                    "name": "F#4",
                    "midi": 66,
                    "time": 667.2236450000067,
                    "velocity": 0.14960629921259844,
                    "duration": 0.49085135416669345
                },
                {
                    "name": "E4",
                    "midi": 64,
                    "time": 667.7249400000068,
                    "velocity": 0.2283464566929134,
                    "duration": 0.2924220833332356
                },
                {
                    "name": "A3",
                    "midi": 57,
                    "time": 667.7249400000068,
                    "velocity": 0.2283464566929134,
                    "duration": 0.2924220833332356
                },
                {
                    "name": "A3",
                    "midi": 57,
                    "time": 668.0591366666733,
                    "velocity": 0.2047244094488189,
                    "duration": 0.2924220833333493
                },
                {
                    "name": "E4",
                    "midi": 64,
                    "time": 668.0591366666733,
                    "velocity": 0.2047244094488189,
                    "duration": 0.2924220833333493
                },
                {
                    "name": "A3",
                    "midi": 57,
                    "time": 668.39333333334,
                    "velocity": 0.1732283464566929,
                    "duration": 0.2924220833333493
                },
                {
                    "name": "E4",
                    "midi": 64,
                    "time": 668.39333333334,
                    "velocity": 0.1732283464566929,
                    "duration": 0.2924220833333493
                },
                {
                    "name": "E4",
                    "midi": 64,
                    "time": 668.7275300000067,
                    "velocity": 0.11811023622047244,
                    "duration": 0.8772662500000479
                },
                {
                    "name": "A3",
                    "midi": 57,
                    "time": 668.7275300000067,
                    "velocity": 0.11811023622047244,
                    "duration": 0.8772662500000479
                },
                {
                    "name": "A3",
                    "midi": 57,
                    "time": 669.7301200000068,
                    "velocity": 0.1968503937007874,
                    "duration": 0.49085135416657977
                },
                {
                    "name": "C#4",
                    "midi": 61,
                    "time": 669.7301200000068,
                    "velocity": 0.1968503937007874,
                    "duration": 0.49085135416657977
                },
                {
                    "name": "E4",
                    "midi": 64,
                    "time": 670.2314150000067,
                    "velocity": 0.18110236220472442,
                    "duration": 0.49085135416669345
                },
                {
                    "name": "A3",
                    "midi": 57,
                    "time": 670.2314150000067,
                    "velocity": 0.18110236220472442,
                    "duration": 0.49085135416669345
                },
                {
                    "name": "D4",
                    "midi": 62,
                    "time": 670.7327100000067,
                    "velocity": 0.1968503937007874,
                    "duration": 0.49085135416669345
                },
                {
                    "name": "A3",
                    "midi": 57,
                    "time": 670.7327100000067,
                    "velocity": 0.1968503937007874,
                    "duration": 0.49085135416669345
                },
                {
                    "name": "A3",
                    "midi": 57,
                    "time": 671.2340050000067,
                    "velocity": 0.1889763779527559,
                    "duration": 0.49085135416669345
                },
                {
                    "name": "E4",
                    "midi": 64,
                    "time": 671.2340050000067,
                    "velocity": 0.1889763779527559,
                    "duration": 0.49085135416669345
                },
                {
                    "name": "F#4",
                    "midi": 66,
                    "time": 671.7353000000068,
                    "velocity": 0.1968503937007874,
                    "duration": 0.2924220833333493
                },
                {
                    "name": "A3",
                    "midi": 57,
                    "time": 671.7353000000068,
                    "velocity": 0.1968503937007874,
                    "duration": 0.2924220833333493
                },
                {
                    "name": "A3",
                    "midi": 57,
                    "time": 672.0694966666734,
                    "velocity": 0.15748031496062992,
                    "duration": 0.2924220833333493
                },
                {
                    "name": "F#4",
                    "midi": 66,
                    "time": 672.0694966666734,
                    "velocity": 0.15748031496062992,
                    "duration": 0.2924220833333493
                },
                {
                    "name": "A3",
                    "midi": 57,
                    "time": 672.4036933333401,
                    "velocity": 0.15748031496062992,
                    "duration": 0.2924220833333493
                },
                {
                    "name": "F#4",
                    "midi": 66,
                    "time": 672.4036933333401,
                    "velocity": 0.15748031496062992,
                    "duration": 0.2924220833333493
                },
                {
                    "name": "F#4",
                    "midi": 66,
                    "time": 672.7378900000068,
                    "velocity": 0.11811023622047244,
                    "duration": 0.2506475000000137
                },
                {
                    "name": "A3",
                    "midi": 57,
                    "time": 672.7378900000068,
                    "velocity": 0.11811023622047244,
                    "duration": 0.2506475000000137
                },
                {
                    "name": "A4",
                    "midi": 69,
                    "time": 673.7404800000069,
                    "velocity": 0.1732283464566929,
                    "duration": 0.2924220833332356
                },
                {
                    "name": "F5",
                    "midi": 77,
                    "time": 673.7404800000069,
                    "velocity": 0.1732283464566929,
                    "duration": 0.2924220833332356
                },
                {
                    "name": "F5",
                    "midi": 77,
                    "time": 674.0746766666734,
                    "velocity": 0.14960629921259844,
                    "duration": 0.2924220833333493
                },
                {
                    "name": "A4",
                    "midi": 69,
                    "time": 674.0746766666734,
                    "velocity": 0.14960629921259844,
                    "duration": 0.2924220833333493
                },
                {
                    "name": "A4",
                    "midi": 69,
                    "time": 674.4088733333401,
                    "velocity": 0.14960629921259844,
                    "duration": 0.2924220833333493
                },
                {
                    "name": "F5",
                    "midi": 77,
                    "time": 674.4088733333401,
                    "velocity": 0.14960629921259844,
                    "duration": 0.2924220833333493
                },
                {
                    "name": "A4",
                    "midi": 69,
                    "time": 674.7430700000068,
                    "velocity": 0.06299212598425197,
                    "duration": 0.45952041666669174
                },
                {
                    "name": "F5",
                    "midi": 77,
                    "time": 674.7430700000068,
                    "velocity": 0.07086614173228346,
                    "duration": 0.45952041666669174
                },
                {
                    "name": "E4",
                    "midi": 64,
                    "time": 675.7456600000069,
                    "velocity": 0.1968503937007874,
                    "duration": 0.2924220833333493
                },
                {
                    "name": "A3",
                    "midi": 57,
                    "time": 675.7456600000069,
                    "velocity": 0.1968503937007874,
                    "duration": 0.2924220833333493
                },
                {
                    "name": "E4",
                    "midi": 64,
                    "time": 676.0798566666735,
                    "velocity": 0.15748031496062992,
                    "duration": 0.2924220833333493
                },
                {
                    "name": "A3",
                    "midi": 57,
                    "time": 676.0798566666735,
                    "velocity": 0.15748031496062992,
                    "duration": 0.2924220833333493
                },
                {
                    "name": "E4",
                    "midi": 64,
                    "time": 676.4140533333402,
                    "velocity": 0.1732283464566929,
                    "duration": 0.2924220833333493
                },
                {
                    "name": "A3",
                    "midi": 57,
                    "time": 676.4140533333402,
                    "velocity": 0.1732283464566929,
                    "duration": 0.2924220833333493
                },
                {
                    "name": "A3",
                    "midi": 57,
                    "time": 676.7482500000069,
                    "velocity": 0.09448818897637795,
                    "duration": 0.45952041666669174
                },
                {
                    "name": "E4",
                    "midi": 64,
                    "time": 676.7482500000069,
                    "velocity": 0.10236220472440945,
                    "duration": 0.45952041666669174
                },
                {
                    "name": "E5",
                    "midi": 76,
                    "time": 677.750840000007,
                    "velocity": 0.1732283464566929,
                    "duration": 0.2924220833333493
                },
                {
                    "name": "A4",
                    "midi": 69,
                    "time": 677.750840000007,
                    "velocity": 0.1732283464566929,
                    "duration": 0.2924220833333493
                },
                {
                    "name": "A4",
                    "midi": 69,
                    "time": 678.0850366666737,
                    "velocity": 0.14960629921259844,
                    "duration": 0.2924220833333493
                },
                {
                    "name": "E5",
                    "midi": 76,
                    "time": 678.0850366666737,
                    "velocity": 0.14960629921259844,
                    "duration": 0.2924220833333493
                },
                {
                    "name": "E5",
                    "midi": 76,
                    "time": 678.4192333333403,
                    "velocity": 0.15748031496062992,
                    "duration": 0.2924220833333493
                },
                {
                    "name": "A4",
                    "midi": 69,
                    "time": 678.4192333333403,
                    "velocity": 0.15748031496062992,
                    "duration": 0.2924220833333493
                },
                {
                    "name": "A4",
                    "midi": 69,
                    "time": 678.753430000007,
                    "velocity": 0.10236220472440945,
                    "duration": 0.45952041666669174
                },
                {
                    "name": "E5",
                    "midi": 76,
                    "time": 678.753430000007,
                    "velocity": 0.10236220472440945,
                    "duration": 0.45952041666669174
                },
                {
                    "name": "D2",
                    "midi": 38,
                    "time": 679.7560200000071,
                    "velocity": 0.4645669291338583,
                    "duration": 0.2924220833333493
                },
                {
                    "name": "D3",
                    "midi": 50,
                    "time": 679.7560200000071,
                    "velocity": 0.4645669291338583,
                    "duration": 0.2924220833333493
                },
                {
                    "name": "D3",
                    "midi": 50,
                    "time": 680.0902166666738,
                    "velocity": 0.41732283464566927,
                    "duration": 0.2924220833333493
                },
                {
                    "name": "D2",
                    "midi": 38,
                    "time": 680.0902166666738,
                    "velocity": 0.41732283464566927,
                    "duration": 0.2924220833333493
                },
                {
                    "name": "D2",
                    "midi": 38,
                    "time": 680.4244133333405,
                    "velocity": 0.3858267716535433,
                    "duration": 0.2924220833333493
                },
                {
                    "name": "D3",
                    "midi": 50,
                    "time": 680.4244133333405,
                    "velocity": 0.3858267716535433,
                    "duration": 0.2924220833333493
                },
                {
                    "name": "D2",
                    "midi": 38,
                    "time": 680.7586100000071,
                    "velocity": 0.2677165354330709,
                    "duration": 0.45952041666669174
                },
                {
                    "name": "D3",
                    "midi": 50,
                    "time": 680.7586100000071,
                    "velocity": 0.2677165354330709,
                    "duration": 0.45952041666669174
                },
                {
                    "name": "A4",
                    "midi": 69,
                    "time": 681.7612000000072,
                    "velocity": 0.30708661417322836,
                    "duration": 0.49085135416669345
                },
                {
                    "name": "B4",
                    "midi": 71,
                    "time": 681.7612000000072,
                    "velocity": 0.30708661417322836,
                    "duration": 0.49085135416669345
                },
                {
                    "name": "D4",
                    "midi": 62,
                    "time": 681.7612000000072,
                    "velocity": 0.30708661417322836,
                    "duration": 0.49085135416669345
                },
                {
                    "name": "A4",
                    "midi": 69,
                    "time": 682.2624950000072,
                    "velocity": 0.2677165354330709,
                    "duration": 0.49085135416669345
                },
                {
                    "name": "C#5",
                    "midi": 73,
                    "time": 682.2624950000072,
                    "velocity": 0.2677165354330709,
                    "duration": 0.49085135416669345
                },
                {
                    "name": "E4",
                    "midi": 64,
                    "time": 682.2624950000072,
                    "velocity": 0.2677165354330709,
                    "duration": 0.49085135416669345
                },
                {
                    "name": "A4",
                    "midi": 69,
                    "time": 682.7637900000072,
                    "velocity": 0.29133858267716534,
                    "duration": 0.49085135416657977
                },
                {
                    "name": "F#4",
                    "midi": 66,
                    "time": 682.7637900000072,
                    "velocity": 0.29133858267716534,
                    "duration": 0.49085135416657977
                },
                {
                    "name": "E4",
                    "midi": 64,
                    "time": 683.2650850000072,
                    "velocity": 0.28346456692913385,
                    "duration": 0.49085135416669345
                },
                {
                    "name": "C#5",
                    "midi": 73,
                    "time": 683.2650850000072,
                    "velocity": 0.28346456692913385,
                    "duration": 0.49085135416669345
                },
                {
                    "name": "A4",
                    "midi": 69,
                    "time": 683.2650850000072,
                    "velocity": 0.28346456692913385,
                    "duration": 0.49085135416669345
                },
                {
                    "name": "E4",
                    "midi": 64,
                    "time": 683.7663800000072,
                    "velocity": 0.28346456692913385,
                    "duration": 0.2924220833333493
                },
                {
                    "name": "B4",
                    "midi": 71,
                    "time": 683.7663800000072,
                    "velocity": 0.28346456692913385,
                    "duration": 0.2924220833333493
                },
                {
                    "name": "D5",
                    "midi": 74,
                    "time": 683.7663800000072,
                    "velocity": 0.28346456692913385,
                    "duration": 0.2924220833333493
                },
                {
                    "name": "E4",
                    "midi": 64,
                    "time": 684.1005766666739,
                    "velocity": 0.2677165354330709,
                    "duration": 0.2924220833333493
                },
                {
                    "name": "B4",
                    "midi": 71,
                    "time": 684.1005766666739,
                    "velocity": 0.2677165354330709,
                    "duration": 0.2924220833333493
                },
                {
                    "name": "D5",
                    "midi": 74,
                    "time": 684.1005766666739,
                    "velocity": 0.2677165354330709,
                    "duration": 0.2924220833333493
                },
                {
                    "name": "E4",
                    "midi": 64,
                    "time": 684.4347733333406,
                    "velocity": 0.2283464566929134,
                    "duration": 0.2924220833333493
                },
                {
                    "name": "B4",
                    "midi": 71,
                    "time": 684.4347733333406,
                    "velocity": 0.2283464566929134,
                    "duration": 0.2924220833333493
                },
                {
                    "name": "D5",
                    "midi": 74,
                    "time": 684.4347733333406,
                    "velocity": 0.2283464566929134,
                    "duration": 0.2924220833333493
                },
                {
                    "name": "D5",
                    "midi": 74,
                    "time": 684.7689700000072,
                    "velocity": 0.11811023622047244,
                    "duration": 0.45952041666669174
                },
                {
                    "name": "B4",
                    "midi": 71,
                    "time": 684.7689700000072,
                    "velocity": 0.11811023622047244,
                    "duration": 0.45952041666669174
                },
                {
                    "name": "E4",
                    "midi": 64,
                    "time": 684.7689700000072,
                    "velocity": 0.11811023622047244,
                    "duration": 0.45952041666669174
                },
                {
                    "name": "E4",
                    "midi": 64,
                    "time": 685.7715600000073,
                    "velocity": 0.2125984251968504,
                    "duration": 0.2924220833333493
                },
                {
                    "name": "A3",
                    "midi": 57,
                    "time": 685.7715600000073,
                    "velocity": 0.2125984251968504,
                    "duration": 0.2924220833333493
                },
                {
                    "name": "E4",
                    "midi": 64,
                    "time": 686.105756666674,
                    "velocity": 0.1889763779527559,
                    "duration": 0.2924220833333493
                },
                {
                    "name": "A3",
                    "midi": 57,
                    "time": 686.105756666674,
                    "velocity": 0.1889763779527559,
                    "duration": 0.2924220833333493
                },
                {
                    "name": "E4",
                    "midi": 64,
                    "time": 686.4399533333407,
                    "velocity": 0.1889763779527559,
                    "duration": 0.2924220833333493
                },
                {
                    "name": "A3",
                    "midi": 57,
                    "time": 686.4399533333407,
                    "velocity": 0.1889763779527559,
                    "duration": 0.2924220833333493
                },
                {
                    "name": "A3",
                    "midi": 57,
                    "time": 686.7741500000074,
                    "velocity": 0.18110236220472442,
                    "duration": 0.45952041666669174
                },
                {
                    "name": "E4",
                    "midi": 64,
                    "time": 686.7741500000074,
                    "velocity": 0.12598425196850394,
                    "duration": 0.45952041666669174
                },
                {
                    "name": "D3",
                    "midi": 50,
                    "time": 687.7767400000074,
                    "velocity": 0.49606299212598426,
                    "duration": 0.2924220833333493
                },
                {
                    "name": "D2",
                    "midi": 38,
                    "time": 687.7767400000074,
                    "velocity": 0.49606299212598426,
                    "duration": 0.2924220833333493
                },
                {
                    "name": "D2",
                    "midi": 38,
                    "time": 688.1109366666741,
                    "velocity": 0.4330708661417323,
                    "duration": 0.2924220833333493
                },
                {
                    "name": "D3",
                    "midi": 50,
                    "time": 688.1109366666741,
                    "velocity": 0.4330708661417323,
                    "duration": 0.2924220833333493
                },
                {
                    "name": "D2",
                    "midi": 38,
                    "time": 688.4451333333408,
                    "velocity": 0.4015748031496063,
                    "duration": 0.2924220833333493
                },
                {
                    "name": "D3",
                    "midi": 50,
                    "time": 688.4451333333408,
                    "velocity": 0.4015748031496063,
                    "duration": 0.2924220833333493
                },
                {
                    "name": "D2",
                    "midi": 38,
                    "time": 688.7793300000075,
                    "velocity": 0.2755905511811024,
                    "duration": 0.45952041666669174
                },
                {
                    "name": "D3",
                    "midi": 50,
                    "time": 688.7793300000075,
                    "velocity": 0.2755905511811024,
                    "duration": 0.45952041666669174
                },
                {
                    "name": "D4",
                    "midi": 62,
                    "time": 689.7819200000075,
                    "velocity": 0.30708661417322836,
                    "duration": 0.49085135416669345
                },
                {
                    "name": "B4",
                    "midi": 71,
                    "time": 689.7819200000075,
                    "velocity": 0.30708661417322836,
                    "duration": 0.49085135416669345
                },
                {
                    "name": "A4",
                    "midi": 69,
                    "time": 689.7819200000075,
                    "velocity": 0.30708661417322836,
                    "duration": 0.49085135416669345
                },
                {
                    "name": "C#5",
                    "midi": 73,
                    "time": 690.2832150000075,
                    "velocity": 0.28346456692913385,
                    "duration": 0.49085135416669345
                },
                {
                    "name": "A4",
                    "midi": 69,
                    "time": 690.2832150000075,
                    "velocity": 0.28346456692913385,
                    "duration": 0.49085135416669345
                },
                {
                    "name": "E4",
                    "midi": 64,
                    "time": 690.2832150000075,
                    "velocity": 0.28346456692913385,
                    "duration": 0.49085135416669345
                },
                {
                    "name": "F#4",
                    "midi": 66,
                    "time": 690.7845100000076,
                    "velocity": 0.30708661417322836,
                    "duration": 0.49085135416669345
                },
                {
                    "name": "A4",
                    "midi": 69,
                    "time": 690.7845100000076,
                    "velocity": 0.30708661417322836,
                    "duration": 0.49085135416669345
                },
                {
                    "name": "E4",
                    "midi": 64,
                    "time": 691.2858050000076,
                    "velocity": 0.28346456692913385,
                    "duration": 0.49085135416669345
                },
                {
                    "name": "A4",
                    "midi": 69,
                    "time": 691.2858050000076,
                    "velocity": 0.28346456692913385,
                    "duration": 0.49085135416669345
                },
                {
                    "name": "C#5",
                    "midi": 73,
                    "time": 691.2858050000076,
                    "velocity": 0.28346456692913385,
                    "duration": 0.49085135416669345
                },
                {
                    "name": "B4",
                    "midi": 71,
                    "time": 691.7871000000076,
                    "velocity": 0.28346456692913385,
                    "duration": 0.2924220833332356
                },
                {
                    "name": "D5",
                    "midi": 74,
                    "time": 691.7871000000076,
                    "velocity": 0.28346456692913385,
                    "duration": 0.2924220833332356
                },
                {
                    "name": "E4",
                    "midi": 64,
                    "time": 691.7871000000076,
                    "velocity": 0.28346456692913385,
                    "duration": 0.2924220833332356
                },
                {
                    "name": "E4",
                    "midi": 64,
                    "time": 692.1212966666742,
                    "velocity": 0.25984251968503935,
                    "duration": 0.2924220833333493
                },
                {
                    "name": "B4",
                    "midi": 71,
                    "time": 692.1212966666742,
                    "velocity": 0.25984251968503935,
                    "duration": 0.2924220833333493
                },
                {
                    "name": "D5",
                    "midi": 74,
                    "time": 692.1212966666742,
                    "velocity": 0.25984251968503935,
                    "duration": 0.2924220833333493
                },
                {
                    "name": "B4",
                    "midi": 71,
                    "time": 692.4554933333409,
                    "velocity": 0.25984251968503935,
                    "duration": 0.2924220833333493
                },
                {
                    "name": "D5",
                    "midi": 74,
                    "time": 692.4554933333409,
                    "velocity": 0.25984251968503935,
                    "duration": 0.2924220833333493
                },
                {
                    "name": "E4",
                    "midi": 64,
                    "time": 692.4554933333409,
                    "velocity": 0.25984251968503935,
                    "duration": 0.2924220833333493
                },
                {
                    "name": "E4",
                    "midi": 64,
                    "time": 692.7896900000076,
                    "velocity": 0.13385826771653545,
                    "duration": 0.45952041666669174
                },
                {
                    "name": "D5",
                    "midi": 74,
                    "time": 692.7896900000076,
                    "velocity": 0.13385826771653545,
                    "duration": 0.45952041666669174
                },
                {
                    "name": "B4",
                    "midi": 71,
                    "time": 692.7896900000076,
                    "velocity": 0.13385826771653545,
                    "duration": 0.45952041666669174
                },
                {
                    "name": "A2",
                    "midi": 45,
                    "time": 693.7922800000076,
                    "velocity": 0.6535433070866141,
                    "duration": 0.2924220833333493
                },
                {
                    "name": "A1",
                    "midi": 33,
                    "time": 693.7922800000076,
                    "velocity": 0.5826771653543307,
                    "duration": 0.2924220833333493
                },
                {
                    "name": "A2",
                    "midi": 45,
                    "time": 694.1264766666743,
                    "velocity": 0.5748031496062992,
                    "duration": 0.2924220833333493
                },
                {
                    "name": "A1",
                    "midi": 33,
                    "time": 694.1264766666743,
                    "velocity": 0.5196850393700787,
                    "duration": 0.2924220833333493
                },
                {
                    "name": "A2",
                    "midi": 45,
                    "time": 694.460673333341,
                    "velocity": 0.5275590551181102,
                    "duration": 0.2924220833333493
                },
                {
                    "name": "A1",
                    "midi": 33,
                    "time": 694.460673333341,
                    "velocity": 0.4645669291338583,
                    "duration": 0.2924220833333493
                },
                {
                    "name": "A1",
                    "midi": 33,
                    "time": 694.7948700000077,
                    "velocity": 0.3937007874015748,
                    "duration": 0.45952041666669174
                },
                {
                    "name": "A2",
                    "midi": 45,
                    "time": 694.7948700000077,
                    "velocity": 0.44881889763779526,
                    "duration": 0.45952041666669174
                },
                {
                    "name": "E3",
                    "midi": 52,
                    "time": 695.7974600000077,
                    "velocity": 0.1732283464566929,
                    "duration": 0.49085135416669345
                },
                {
                    "name": "A2",
                    "midi": 45,
                    "time": 695.7974600000077,
                    "velocity": 0.1732283464566929,
                    "duration": 0.49085135416669345
                },
                {
                    "name": "E3",
                    "midi": 52,
                    "time": 696.2987550000078,
                    "velocity": 0.13385826771653545,
                    "duration": 0.49085135416669345
                },
                {
                    "name": "A2",
                    "midi": 45,
                    "time": 696.2987550000078,
                    "velocity": 0.13385826771653545,
                    "duration": 0.49085135416669345
                },
                {
                    "name": "E3",
                    "midi": 52,
                    "time": 696.8000500000078,
                    "velocity": 0.15748031496062992,
                    "duration": 0.49085135416669345
                },
                {
                    "name": "A2",
                    "midi": 45,
                    "time": 696.8000500000078,
                    "velocity": 0.15748031496062992,
                    "duration": 0.49085135416669345
                },
                {
                    "name": "A2",
                    "midi": 45,
                    "time": 697.3013450000078,
                    "velocity": 0.12598425196850394,
                    "duration": 0.49085135416669345
                },
                {
                    "name": "E3",
                    "midi": 52,
                    "time": 697.3013450000078,
                    "velocity": 0.12598425196850394,
                    "duration": 0.49085135416669345
                },
                {
                    "name": "A2",
                    "midi": 45,
                    "time": 697.8026400000078,
                    "velocity": 0.12598425196850394,
                    "duration": 0.9608154166667191
                },
                {
                    "name": "F3",
                    "midi": 53,
                    "time": 697.8026400000078,
                    "velocity": 0.12598425196850394,
                    "duration": 0.9608154166667191
                },
                {
                    "name": "A2",
                    "midi": 45,
                    "time": 698.8052300000079,
                    "velocity": 0.06299212598425197,
                    "duration": 0.2506475000000137
                },
                {
                    "name": "F3",
                    "midi": 53,
                    "time": 698.8052300000079,
                    "velocity": 0.06299212598425197,
                    "duration": 0.2506475000000137
                },
                {
                    "name": "G#3",
                    "midi": 56,
                    "time": 699.807820000008,
                    "velocity": 0.18110236220472442,
                    "duration": 0.9608154166667191
                },
                {
                    "name": "A2",
                    "midi": 45,
                    "time": 699.807820000008,
                    "velocity": 0.18110236220472442,
                    "duration": 0.9608154166667191
                },
                {
                    "name": "G#3",
                    "midi": 56,
                    "time": 700.810410000008,
                    "velocity": 0.07086614173228346,
                    "duration": 0.2506475000000137
                },
                {
                    "name": "A2",
                    "midi": 45,
                    "time": 700.810410000008,
                    "velocity": 0.07086614173228346,
                    "duration": 0.2506475000000137
                },
                {
                    "name": "A2",
                    "midi": 45,
                    "time": 701.8130000000081,
                    "velocity": 0.6456692913385826,
                    "duration": 0.2924220833333493
                },
                {
                    "name": "A1",
                    "midi": 33,
                    "time": 701.8130000000081,
                    "velocity": 0.5748031496062992,
                    "duration": 0.2924220833333493
                },
                {
                    "name": "A2",
                    "midi": 45,
                    "time": 702.1471966666747,
                    "velocity": 0.5905511811023622,
                    "duration": 0.2924220833333493
                },
                {
                    "name": "A1",
                    "midi": 33,
                    "time": 702.1471966666747,
                    "velocity": 0.5354330708661418,
                    "duration": 0.2924220833333493
                },
                {
                    "name": "A2",
                    "midi": 45,
                    "time": 702.4813933333414,
                    "velocity": 0.5748031496062992,
                    "duration": 0.2924220833333493
                },
                {
                    "name": "A1",
                    "midi": 33,
                    "time": 702.4813933333414,
                    "velocity": 0.5196850393700787,
                    "duration": 0.2924220833333493
                },
                {
                    "name": "A2",
                    "midi": 45,
                    "time": 702.8155900000081,
                    "velocity": 0.4566929133858268,
                    "duration": 0.45952041666669174
                },
                {
                    "name": "A1",
                    "midi": 33,
                    "time": 702.8155900000081,
                    "velocity": 0.4015748031496063,
                    "duration": 0.45952041666669174
                },
                {
                    "name": "E3",
                    "midi": 52,
                    "time": 703.8181800000082,
                    "velocity": 0.1968503937007874,
                    "duration": 0.49085135416669345
                },
                {
                    "name": "A2",
                    "midi": 45,
                    "time": 703.8181800000082,
                    "velocity": 0.1968503937007874,
                    "duration": 0.49085135416669345
                },
                {
                    "name": "A2",
                    "midi": 45,
                    "time": 704.3194750000082,
                    "velocity": 0.14173228346456693,
                    "duration": 0.49085135416669345
                },
                {
                    "name": "E3",
                    "midi": 52,
                    "time": 704.3194750000082,
                    "velocity": 0.14173228346456693,
                    "duration": 0.49085135416669345
                },
                {
                    "name": "E3",
                    "midi": 52,
                    "time": 704.8207700000082,
                    "velocity": 0.2125984251968504,
                    "duration": 0.49085135416669345
                },
                {
                    "name": "A2",
                    "midi": 45,
                    "time": 704.8207700000082,
                    "velocity": 0.2125984251968504,
                    "duration": 0.49085135416669345
                },
                {
                    "name": "A2",
                    "midi": 45,
                    "time": 705.3220650000083,
                    "velocity": 0.1732283464566929,
                    "duration": 0.49085135416669345
                },
                {
                    "name": "E3",
                    "midi": 52,
                    "time": 705.3220650000083,
                    "velocity": 0.1732283464566929,
                    "duration": 0.49085135416669345
                },
                {
                    "name": "D3",
                    "midi": 50,
                    "time": 705.8233600000083,
                    "velocity": 0.2204724409448819,
                    "duration": 0.9608154166666054
                },
                {
                    "name": "A2",
                    "midi": 45,
                    "time": 705.8233600000083,
                    "velocity": 0.2204724409448819,
                    "duration": 0.9608154166666054
                },
                {
                    "name": "A2",
                    "midi": 45,
                    "time": 706.8259500000082,
                    "velocity": 0.09448818897637795,
                    "duration": 0.3759712500000205
                },
                {
                    "name": "F#3",
                    "midi": 54,
                    "time": 706.8259500000082,
                    "velocity": 0.12598425196850394,
                    "duration": 0.3759712500000205
                },
                {
                    "name": "A2",
                    "midi": 45,
                    "time": 707.8285400000083,
                    "velocity": 0.1968503937007874,
                    "duration": 0.9608154166666054
                },
                {
                    "name": "E3",
                    "midi": 52,
                    "time": 707.8285400000083,
                    "velocity": 0.1968503937007874,
                    "duration": 0.9608154166666054
                },
                {
                    "name": "A2",
                    "midi": 45,
                    "time": 708.8311300000082,
                    "velocity": 0.11023622047244094,
                    "duration": 0.37597124999990683
                },
                {
                    "name": "G#3",
                    "midi": 56,
                    "time": 708.8311300000082,
                    "velocity": 0.14173228346456693,
                    "duration": 0.37597124999990683
                },
                {
                    "name": "A2",
                    "midi": 45,
                    "time": 709.8337200000082,
                    "velocity": 0.1968503937007874,
                    "duration": 0.9608154166667191
                },
                {
                    "name": "A3",
                    "midi": 57,
                    "time": 709.8337200000082,
                    "velocity": 0.1968503937007874,
                    "duration": 0.9608154166667191
                },
                {
                    "name": "A2",
                    "midi": 45,
                    "time": 710.8363100000082,
                    "velocity": 0.031496062992125984,
                    "duration": 0.3759712500000205
                },
                {
                    "name": "A3",
                    "midi": 57,
                    "time": 710.8363100000082,
                    "velocity": 0.09448818897637795,
                    "duration": 0.3759712500000205
                },
                {
                    "name": "F3",
                    "midi": 53,
                    "time": 711.8389000000083,
                    "velocity": 0.1968503937007874,
                    "duration": 0.9608154166667191
                },
                {
                    "name": "D3",
                    "midi": 50,
                    "time": 711.8389000000083,
                    "velocity": 0.1968503937007874,
                    "duration": 0.9608154166667191
                },
                {
                    "name": "D3",
                    "midi": 50,
                    "time": 712.8414900000083,
                    "velocity": 0.09448818897637795,
                    "duration": 0.3759712500000205
                },
                {
                    "name": "F3",
                    "midi": 53,
                    "time": 712.8414900000083,
                    "velocity": 0.09448818897637795,
                    "duration": 0.3759712500000205
                },
                {
                    "name": "E2",
                    "midi": 40,
                    "time": 713.8440800000084,
                    "velocity": 0.1889763779527559,
                    "duration": 0.9608154166666054
                },
                {
                    "name": "C3",
                    "midi": 48,
                    "time": 713.8440800000084,
                    "velocity": 0.1889763779527559,
                    "duration": 1.002589999999941
                },
                {
                    "name": "E2",
                    "midi": 40,
                    "time": 714.8466700000083,
                    "velocity": 0.11023622047244094,
                    "duration": 0.37597124999990683
                },
                {
                    "name": "E3",
                    "midi": 52,
                    "time": 714.8466700000083,
                    "velocity": 0.2283464566929134,
                    "duration": 1.002589999999941
                },
                {
                    "name": "D#3",
                    "midi": 51,
                    "time": 715.8492600000083,
                    "velocity": 0.2677165354330709,
                    "duration": 1.0025900000000547
                },
                {
                    "name": "E3",
                    "midi": 52,
                    "time": 716.8518500000083,
                    "velocity": 0.25984251968503935,
                    "duration": 0.3759712500000205
                },
                {
                    "name": "E2",
                    "midi": 40,
                    "time": 719.8596200000084,
                    "velocity": 0.14960629921259844,
                    "duration": 0.9608154166667191
                },
                {
                    "name": "B2",
                    "midi": 47,
                    "time": 719.8596200000084,
                    "velocity": 0.25984251968503935,
                    "duration": 1.0025900000000547
                },
                {
                    "name": "E3",
                    "midi": 52,
                    "time": 720.8622100000084,
                    "velocity": 0.2755905511811024,
                    "duration": 1.0025900000000547
                },
                {
                    "name": "E2",
                    "midi": 40,
                    "time": 720.8622100000084,
                    "velocity": 0.12598425196850394,
                    "duration": 0.45952041666669174
                },
                {
                    "name": "D#3",
                    "midi": 51,
                    "time": 721.8648000000085,
                    "velocity": 0.2755905511811024,
                    "duration": 1.0025900000000547
                },
                {
                    "name": "E3",
                    "midi": 52,
                    "time": 722.8673900000085,
                    "velocity": 0.2677165354330709,
                    "duration": 0.3759712500000205
                },
                {
                    "name": "D#3",
                    "midi": 51,
                    "time": 725.8751600000086,
                    "velocity": 0.1732283464566929,
                    "duration": 2.506475000000023
                },
                {
                    "name": "F#3",
                    "midi": 54,
                    "time": 725.8751600000086,
                    "velocity": 0.1732283464566929,
                    "duration": 2.506475000000023
                },
                {
                    "name": "A2",
                    "midi": 45,
                    "time": 725.8751600000086,
                    "velocity": 0.1732283464566929,
                    "duration": 2.506475000000023
                },
                {
                    "name": "A2",
                    "midi": 45,
                    "time": 729.8855200000086,
                    "velocity": 0.15748031496062992,
                    "duration": 2.506475000000023
                },
                {
                    "name": "F#3",
                    "midi": 54,
                    "time": 729.8855200000086,
                    "velocity": 0.15748031496062992,
                    "duration": 2.506475000000023
                },
                {
                    "name": "D#3",
                    "midi": 51,
                    "time": 729.8855200000086,
                    "velocity": 0.15748031496062992,
                    "duration": 2.506475000000023
                },
                {
                    "name": "D#2",
                    "midi": 39,
                    "time": 733.8958800000086,
                    "velocity": 0.2440944881889764,
                    "duration": 1.0025900000000547
                },
                {
                    "name": "D#3",
                    "midi": 51,
                    "time": 733.8958800000086,
                    "velocity": 0.2440944881889764,
                    "duration": 1.0025900000000547
                },
                {
                    "name": "C3",
                    "midi": 48,
                    "time": 734.8984700000086,
                    "velocity": 0.1889763779527559,
                    "duration": 0.18798562500001026
                },
                {
                    "name": "C2",
                    "midi": 36,
                    "time": 734.8984700000086,
                    "velocity": 0.1889763779527559,
                    "duration": 0.18798562500001026
                },
                {
                    "name": "D#2",
                    "midi": 39,
                    "time": 735.9010600000087,
                    "velocity": 0.23622047244094488,
                    "duration": 1.002589999999941
                },
                {
                    "name": "D#3",
                    "midi": 51,
                    "time": 735.9010600000087,
                    "velocity": 0.23622047244094488,
                    "duration": 1.002589999999941
                },
                {
                    "name": "C2",
                    "midi": 36,
                    "time": 736.9036500000086,
                    "velocity": 0.1732283464566929,
                    "duration": 0.18798562499989657
                },
                {
                    "name": "C3",
                    "midi": 48,
                    "time": 736.9036500000086,
                    "velocity": 0.1732283464566929,
                    "duration": 0.18798562499989657
                },
                {
                    "name": "D#3",
                    "midi": 51,
                    "time": 737.9062400000086,
                    "velocity": 0.23622047244094488,
                    "duration": 0.5012949999999137
                },
                {
                    "name": "D#2",
                    "midi": 39,
                    "time": 737.9062400000086,
                    "velocity": 0.23622047244094488,
                    "duration": 0.5012949999999137
                },
                {
                    "name": "C3",
                    "midi": 48,
                    "time": 738.4075350000085,
                    "velocity": 0.18110236220472442,
                    "duration": 0.18798562500001026
                },
                {
                    "name": "C2",
                    "midi": 36,
                    "time": 738.4075350000085,
                    "velocity": 0.18110236220472442,
                    "duration": 0.18798562500001026
                },
                {
                    "name": "D#3",
                    "midi": 51,
                    "time": 738.9088300000085,
                    "velocity": 0.30708661417322836,
                    "duration": 0.5012949999999137
                },
                {
                    "name": "D#2",
                    "midi": 39,
                    "time": 738.9088300000085,
                    "velocity": 0.30708661417322836,
                    "duration": 0.5012949999999137
                },
                {
                    "name": "C2",
                    "midi": 36,
                    "time": 739.4101250000084,
                    "velocity": 0.23622047244094488,
                    "duration": 0.18798562500001026
                },
                {
                    "name": "C3",
                    "midi": 48,
                    "time": 739.4101250000084,
                    "velocity": 0.23622047244094488,
                    "duration": 0.18798562500001026
                },
                {
                    "name": "D#3",
                    "midi": 51,
                    "time": 739.9114200000084,
                    "velocity": 0.4094488188976378,
                    "duration": 0.5012949999999137
                },
                {
                    "name": "D#2",
                    "midi": 39,
                    "time": 739.9114200000084,
                    "velocity": 0.4094488188976378,
                    "duration": 0.5012949999999137
                },
                {
                    "name": "C2",
                    "midi": 36,
                    "time": 740.4127150000083,
                    "velocity": 0.3937007874015748,
                    "duration": 0.18798562500001026
                },
                {
                    "name": "C3",
                    "midi": 48,
                    "time": 740.4127150000083,
                    "velocity": 0.3937007874015748,
                    "duration": 0.18798562500001026
                },
                {
                    "name": "D#2",
                    "midi": 39,
                    "time": 740.9140100000084,
                    "velocity": 0.5196850393700787,
                    "duration": 0.5012949999999137
                },
                {
                    "name": "D#3",
                    "midi": 51,
                    "time": 740.9140100000084,
                    "velocity": 0.5196850393700787,
                    "duration": 0.5012949999999137
                },
                {
                    "name": "C3",
                    "midi": 48,
                    "time": 741.4153050000083,
                    "velocity": 0.4566929133858268,
                    "duration": 0.18798562500001026
                },
                {
                    "name": "C2",
                    "midi": 36,
                    "time": 741.4153050000083,
                    "velocity": 0.4566929133858268,
                    "duration": 0.18798562500001026
                },
                {
                    "name": "E2",
                    "midi": 40,
                    "time": 741.9166000000083,
                    "velocity": 0.5669291338582677,
                    "duration": 0.12532375000000684
                },
                {
                    "name": "E3",
                    "midi": 52,
                    "time": 742.0419237500083,
                    "velocity": 0.3228346456692913,
                    "duration": 0.12532375000000684
                },
                {
                    "name": "E2",
                    "midi": 40,
                    "time": 742.1672475000083,
                    "velocity": 0.41732283464566927,
                    "duration": 0.12532375000000684
                },
                {
                    "name": "E3",
                    "midi": 52,
                    "time": 742.2925712500083,
                    "velocity": 0.2992125984251969,
                    "duration": 0.12532375000000684
                },
                {
                    "name": "E2",
                    "midi": 40,
                    "time": 742.4178950000083,
                    "velocity": 0.3700787401574803,
                    "duration": 0.12532375000000684
                },
                {
                    "name": "E3",
                    "midi": 52,
                    "time": 742.5432187500084,
                    "velocity": 0.31496062992125984,
                    "duration": 0.12532375000000684
                },
                {
                    "name": "E2",
                    "midi": 40,
                    "time": 742.6685425000084,
                    "velocity": 0.3700787401574803,
                    "duration": 0.12532375000000684
                },
                {
                    "name": "E3",
                    "midi": 52,
                    "time": 742.7938662500084,
                    "velocity": 0.29133858267716534,
                    "duration": 0.12532375000000684
                },
                {
                    "name": "E2",
                    "midi": 40,
                    "time": 742.9191900000084,
                    "velocity": 0.33070866141732286,
                    "duration": 0.12532375000000684
                },
                {
                    "name": "E3",
                    "midi": 52,
                    "time": 743.0445137500084,
                    "velocity": 0.25984251968503935,
                    "duration": 0.12532375000000684
                },
                {
                    "name": "E2",
                    "midi": 40,
                    "time": 743.1698375000084,
                    "velocity": 0.33070866141732286,
                    "duration": 0.12532375000000684
                },
                {
                    "name": "E3",
                    "midi": 52,
                    "time": 743.2951612500084,
                    "velocity": 0.2755905511811024,
                    "duration": 0.12532375000000684
                },
                {
                    "name": "E2",
                    "midi": 40,
                    "time": 743.4204850000084,
                    "velocity": 0.3228346456692913,
                    "duration": 0.12532375000000684
                },
                {
                    "name": "E3",
                    "midi": 52,
                    "time": 743.5458087500084,
                    "velocity": 0.25196850393700787,
                    "duration": 0.12532375000000684
                },
                {
                    "name": "E2",
                    "midi": 40,
                    "time": 743.6711325000084,
                    "velocity": 0.33070866141732286,
                    "duration": 0.12532375000000684
                },
                {
                    "name": "E3",
                    "midi": 52,
                    "time": 743.7964562500084,
                    "velocity": 0.2440944881889764,
                    "duration": 0.12532375000000684
                },
                {
                    "name": "C#2",
                    "midi": 37,
                    "time": 743.9217800000084,
                    "velocity": 0.5905511811023622,
                    "duration": 0.12532375000000684
                },
                {
                    "name": "C#3",
                    "midi": 49,
                    "time": 744.0471037500084,
                    "velocity": 0.29133858267716534,
                    "duration": 0.12532375000000684
                },
                {
                    "name": "C#2",
                    "midi": 37,
                    "time": 744.1724275000084,
                    "velocity": 0.3937007874015748,
                    "duration": 0.12532375000000684
                },
                {
                    "name": "C#3",
                    "midi": 49,
                    "time": 744.2977512500084,
                    "velocity": 0.2755905511811024,
                    "duration": 0.12532375000000684
                },
                {
                    "name": "C#2",
                    "midi": 37,
                    "time": 744.4230750000085,
                    "velocity": 0.3858267716535433,
                    "duration": 0.12532375000000684
                },
                {
                    "name": "C#3",
                    "midi": 49,
                    "time": 744.5483987500085,
                    "velocity": 0.25196850393700787,
                    "duration": 0.12532375000000684
                },
                {
                    "name": "C#2",
                    "midi": 37,
                    "time": 744.6737225000085,
                    "velocity": 0.33070866141732286,
                    "duration": 0.12532375000000684
                },
                {
                    "name": "C#3",
                    "midi": 49,
                    "time": 744.7990462500085,
                    "velocity": 0.25984251968503935,
                    "duration": 0.12532375000000684
                },
                {
                    "name": "C#2",
                    "midi": 37,
                    "time": 744.9243700000085,
                    "velocity": 0.33858267716535434,
                    "duration": 0.12532375000000684
                },
                {
                    "name": "C#3",
                    "midi": 49,
                    "time": 745.0496937500085,
                    "velocity": 0.25196850393700787,
                    "duration": 0.12532375000000684
                },
                {
                    "name": "C#2",
                    "midi": 37,
                    "time": 745.1750175000085,
                    "velocity": 0.33858267716535434,
                    "duration": 0.12532375000000684
                },
                {
                    "name": "C#3",
                    "midi": 49,
                    "time": 745.3003412500085,
                    "velocity": 0.25984251968503935,
                    "duration": 0.12532375000000684
                },
                {
                    "name": "C#2",
                    "midi": 37,
                    "time": 745.4256650000085,
                    "velocity": 0.33858267716535434,
                    "duration": 0.12532375000000684
                },
                {
                    "name": "C#3",
                    "midi": 49,
                    "time": 745.5509887500085,
                    "velocity": 0.2755905511811024,
                    "duration": 0.12532375000000684
                },
                {
                    "name": "C#2",
                    "midi": 37,
                    "time": 745.6763125000085,
                    "velocity": 0.33070866141732286,
                    "duration": 0.12532375000000684
                },
                {
                    "name": "C#3",
                    "midi": 49,
                    "time": 745.8016362500085,
                    "velocity": 0.29133858267716534,
                    "duration": 0.12532375000000684
                },
                {
                    "name": "E4",
                    "midi": 64,
                    "time": 745.9269600000085,
                    "velocity": 0.6535433070866141,
                    "duration": 0.5012949999999137
                },
                {
                    "name": "E3",
                    "midi": 52,
                    "time": 745.9269600000085,
                    "velocity": 0.6535433070866141,
                    "duration": 0.5012949999999137
                },
                {
                    "name": "C#3",
                    "midi": 49,
                    "time": 746.4282550000084,
                    "velocity": 0.5669291338582677,
                    "duration": 0.18798562499989657
                },
                {
                    "name": "C#4",
                    "midi": 61,
                    "time": 746.4282550000084,
                    "velocity": 0.5669291338582677,
                    "duration": 0.18798562499989657
                },
                {
                    "name": "E3",
                    "midi": 52,
                    "time": 746.9295500000084,
                    "velocity": 0.6535433070866141,
                    "duration": 0.5012949999999137
                },
                {
                    "name": "E4",
                    "midi": 64,
                    "time": 746.9295500000084,
                    "velocity": 0.6535433070866141,
                    "duration": 0.5012949999999137
                },
                {
                    "name": "A4",
                    "midi": 69,
                    "time": 747.4308450000083,
                    "velocity": 0.5669291338582677,
                    "duration": 0.18798562500001026
                },
                {
                    "name": "A3",
                    "midi": 57,
                    "time": 747.4308450000083,
                    "velocity": 0.5669291338582677,
                    "duration": 0.18798562500001026
                },
                {
                    "name": "E3",
                    "midi": 52,
                    "time": 747.9321400000083,
                    "velocity": 0.5748031496062992,
                    "duration": 0.5012950000000274
                },
                {
                    "name": "E4",
                    "midi": 64,
                    "time": 747.9321400000083,
                    "velocity": 0.5748031496062992,
                    "duration": 0.5012950000000274
                },
                {
                    "name": "C#3",
                    "midi": 49,
                    "time": 748.4334350000083,
                    "velocity": 0.5196850393700787,
                    "duration": 0.18798562499989657
                },
                {
                    "name": "C#4",
                    "midi": 61,
                    "time": 748.4334350000083,
                    "velocity": 0.5196850393700787,
                    "duration": 0.18798562499989657
                },
                {
                    "name": "A3",
                    "midi": 57,
                    "time": 748.9347300000082,
                    "velocity": 0.44881889763779526,
                    "duration": 0.5012950000000274
                },
                {
                    "name": "A2",
                    "midi": 45,
                    "time": 748.9347300000082,
                    "velocity": 0.44881889763779526,
                    "duration": 0.5012950000000274
                },
                {
                    "name": "E3",
                    "midi": 52,
                    "time": 749.4360250000083,
                    "velocity": 0.3464566929133858,
                    "duration": 0.18798562500001026
                },
                {
                    "name": "E2",
                    "midi": 40,
                    "time": 749.4360250000083,
                    "velocity": 0.3464566929133858,
                    "duration": 0.18798562500001026
                },
                {
                    "name": "E3",
                    "midi": 52,
                    "time": 749.9373200000083,
                    "velocity": 0.2125984251968504,
                    "duration": 4.010359999999878
                },
                {
                    "name": "E2",
                    "midi": 40,
                    "time": 749.9373200000083,
                    "velocity": 0.2125984251968504,
                    "duration": 4.010359999999878
                },
                {
                    "name": "E2",
                    "midi": 40,
                    "time": 753.9476800000082,
                    "velocity": 0.5590551181102362,
                    "duration": 0.12532375000000684
                },
                {
                    "name": "E3",
                    "midi": 52,
                    "time": 754.0730037500082,
                    "velocity": 0.2992125984251969,
                    "duration": 0.12532375000000684
                },
                {
                    "name": "E2",
                    "midi": 40,
                    "time": 754.1983275000082,
                    "velocity": 0.3700787401574803,
                    "duration": 0.12532375000000684
                },
                {
                    "name": "E3",
                    "midi": 52,
                    "time": 754.3236512500082,
                    "velocity": 0.2755905511811024,
                    "duration": 0.12532375000000684
                },
                {
                    "name": "C#2",
                    "midi": 37,
                    "time": 754.4489750000082,
                    "velocity": 0.5196850393700787,
                    "duration": 0.12532375000000684
                },
                {
                    "name": "C#3",
                    "midi": 49,
                    "time": 754.5742987500082,
                    "velocity": 0.29133858267716534,
                    "duration": 0.12532375000000684
                },
                {
                    "name": "C#2",
                    "midi": 37,
                    "time": 754.6996225000082,
                    "velocity": 0.33070866141732286,
                    "duration": 0.12532375000000684
                },
                {
                    "name": "C#3",
                    "midi": 49,
                    "time": 754.8249462500082,
                    "velocity": 0.2755905511811024,
                    "duration": 0.12532375000000684
                },
                {
                    "name": "E2",
                    "midi": 40,
                    "time": 754.9502700000082,
                    "velocity": 0.49606299212598426,
                    "duration": 0.12532375000000684
                },
                {
                    "name": "E3",
                    "midi": 52,
                    "time": 755.0755937500082,
                    "velocity": 0.3228346456692913,
                    "duration": 0.12532375000000684
                },
                {
                    "name": "E2",
                    "midi": 40,
                    "time": 755.2009175000082,
                    "velocity": 0.4015748031496063,
                    "duration": 0.12532375000000684
                },
                {
                    "name": "E3",
                    "midi": 52,
                    "time": 755.3262412500083,
                    "velocity": 0.2992125984251969,
                    "duration": 0.12532375000000684
                },
                {
                    "name": "A2",
                    "midi": 45,
                    "time": 755.4515650000083,
                    "velocity": 0.5275590551181102,
                    "duration": 0.12532375000000684
                },
                {
                    "name": "A3",
                    "midi": 57,
                    "time": 755.5768887500083,
                    "velocity": 0.31496062992125984,
                    "duration": 0.12532375000000684
                },
                {
                    "name": "A2",
                    "midi": 45,
                    "time": 755.7022125000083,
                    "velocity": 0.4094488188976378,
                    "duration": 0.12532375000000684
                },
                {
                    "name": "A3",
                    "midi": 57,
                    "time": 755.8275362500083,
                    "velocity": 0.31496062992125984,
                    "duration": 0.12532375000000684
                },
                {
                    "name": "C#3",
                    "midi": 49,
                    "time": 755.9528600000083,
                    "velocity": 0.5669291338582677,
                    "duration": 0.12532375000000684
                },
                {
                    "name": "C#4",
                    "midi": 61,
                    "time": 756.0781837500083,
                    "velocity": 0.3700787401574803,
                    "duration": 0.12532375000000684
                },
                {
                    "name": "C#3",
                    "midi": 49,
                    "time": 756.2035075000083,
                    "velocity": 0.48031496062992124,
                    "duration": 0.12532375000000684
                },
                {
                    "name": "C#4",
                    "midi": 61,
                    "time": 756.3288312500083,
                    "velocity": 0.3779527559055118,
                    "duration": 0.12532375000000684
                },
                {
                    "name": "E3",
                    "midi": 52,
                    "time": 756.4541550000083,
                    "velocity": 0.6220472440944882,
                    "duration": 0.12532375000000684
                },
                {
                    "name": "E4",
                    "midi": 64,
                    "time": 756.5794787500083,
                    "velocity": 0.4094488188976378,
                    "duration": 0.12532375000000684
                },
                {
                    "name": "E3",
                    "midi": 52,
                    "time": 756.7048025000083,
                    "velocity": 0.49606299212598426,
                    "duration": 0.12532375000000684
                },
                {
                    "name": "E4",
                    "midi": 64,
                    "time": 756.8301262500083,
                    "velocity": 0.4409448818897638,
                    "duration": 0.12532375000000684
                },
                {
                    "name": "A3",
                    "midi": 57,
                    "time": 756.9554500000083,
                    "velocity": 0.6614173228346457,
                    "duration": 0.12532375000000684
                },
                {
                    "name": "A4",
                    "midi": 69,
                    "time": 757.0807737500083,
                    "velocity": 0.44881889763779526,
                    "duration": 0.12532375000000684
                },
                {
                    "name": "A3",
                    "midi": 57,
                    "time": 757.2060975000084,
                    "velocity": 0.5196850393700787,
                    "duration": 0.12532375000000684
                },
                {
                    "name": "A4",
                    "midi": 69,
                    "time": 757.3314212500084,
                    "velocity": 0.41732283464566927,
                    "duration": 0.12532375000000684
                },
                {
                    "name": "E3",
                    "midi": 52,
                    "time": 757.4567450000084,
                    "velocity": 0.5748031496062992,
                    "duration": 0.12532375000000684
                },
                {
                    "name": "E4",
                    "midi": 64,
                    "time": 757.5820687500084,
                    "velocity": 0.36220472440944884,
                    "duration": 0.12532375000000684
                },
                {
                    "name": "E3",
                    "midi": 52,
                    "time": 757.7073925000084,
                    "velocity": 0.44881889763779526,
                    "duration": 0.12532375000000684
                },
                {
                    "name": "E4",
                    "midi": 64,
                    "time": 757.8327162500084,
                    "velocity": 0.3543307086614173,
                    "duration": 0.12532375000000684
                },
                {
                    "name": "E3",
                    "midi": 52,
                    "time": 757.9580400000084,
                    "velocity": 0.2204724409448819,
                    "duration": 4.0103599999999915
                },
                {
                    "name": "E2",
                    "midi": 40,
                    "time": 757.9580400000084,
                    "velocity": 0.2204724409448819,
                    "duration": 4.0103599999999915
                },
                {
                    "name": "E2",
                    "midi": 40,
                    "time": 761.9684000000084,
                    "velocity": 0.2047244094488189,
                    "duration": 0.9608154166667191
                },
                {
                    "name": "A2",
                    "midi": 45,
                    "time": 761.9684000000084,
                    "velocity": 0.2047244094488189,
                    "duration": 0.9608154166667191
                },
                {
                    "name": "A1",
                    "midi": 33,
                    "time": 761.9684000000084,
                    "velocity": 0.2047244094488189,
                    "duration": 0.9608154166667191
                },
                {
                    "name": "A1",
                    "midi": 33,
                    "time": 762.9709900000084,
                    "velocity": 0.10236220472440945,
                    "duration": 0.3759712500000205
                },
                {
                    "name": "E2",
                    "midi": 40,
                    "time": 762.9709900000084,
                    "velocity": 0.10236220472440945,
                    "duration": 0.3759712500000205
                },
                {
                    "name": "A2",
                    "midi": 45,
                    "time": 762.9709900000084,
                    "velocity": 0.10236220472440945,
                    "duration": 0.3759712500000205
                },
                {
                    "name": "A3",
                    "midi": 57,
                    "time": 763.9735800000085,
                    "velocity": 0.2047244094488189,
                    "duration": 0.9608154166667191
                },
                {
                    "name": "B4",
                    "midi": 71,
                    "time": 763.9735800000085,
                    "velocity": 0.2047244094488189,
                    "duration": 0.9608154166667191
                },
                {
                    "name": "E4",
                    "midi": 64,
                    "time": 763.9735800000085,
                    "velocity": 0.2047244094488189,
                    "duration": 0.9608154166667191
                },
                {
                    "name": "A3",
                    "midi": 57,
                    "time": 764.9761700000086,
                    "velocity": 0.08661417322834646,
                    "duration": 0.3759712500000205
                },
                {
                    "name": "B4",
                    "midi": 71,
                    "time": 764.9761700000086,
                    "velocity": 0.08661417322834646,
                    "duration": 0.3759712500000205
                },
                {
                    "name": "E4",
                    "midi": 64,
                    "time": 764.9761700000086,
                    "velocity": 0.08661417322834646,
                    "duration": 0.3759712500000205
                },
                {
                    "name": "E2",
                    "midi": 40,
                    "time": 765.9787600000086,
                    "velocity": 0.2047244094488189,
                    "duration": 0.9608154166666054
                },
                {
                    "name": "A1",
                    "midi": 33,
                    "time": 765.9787600000086,
                    "velocity": 0.2047244094488189,
                    "duration": 0.9608154166666054
                },
                {
                    "name": "A2",
                    "midi": 45,
                    "time": 765.9787600000086,
                    "velocity": 0.2047244094488189,
                    "duration": 0.9608154166666054
                },
                {
                    "name": "A1",
                    "midi": 33,
                    "time": 766.9813500000085,
                    "velocity": 0.09448818897637795,
                    "duration": 0.3759712500000205
                },
                {
                    "name": "A2",
                    "midi": 45,
                    "time": 766.9813500000085,
                    "velocity": 0.09448818897637795,
                    "duration": 0.3759712500000205
                },
                {
                    "name": "E2",
                    "midi": 40,
                    "time": 766.9813500000085,
                    "velocity": 0.09448818897637795,
                    "duration": 0.3759712500000205
                },
                {
                    "name": "A3",
                    "midi": 57,
                    "time": 767.9839400000086,
                    "velocity": 0.2047244094488189,
                    "duration": 0.9608154166667191
                },
                {
                    "name": "B4",
                    "midi": 71,
                    "time": 767.9839400000086,
                    "velocity": 0.2047244094488189,
                    "duration": 0.9608154166667191
                },
                {
                    "name": "E4",
                    "midi": 64,
                    "time": 767.9839400000086,
                    "velocity": 0.2047244094488189,
                    "duration": 0.9608154166667191
                },
                {
                    "name": "E4",
                    "midi": 64,
                    "time": 768.9865300000087,
                    "velocity": 0.08661417322834646,
                    "duration": 0.3759712500000205
                },
                {
                    "name": "B4",
                    "midi": 71,
                    "time": 768.9865300000087,
                    "velocity": 0.08661417322834646,
                    "duration": 0.3759712500000205
                },
                {
                    "name": "A3",
                    "midi": 57,
                    "time": 768.9865300000087,
                    "velocity": 0.08661417322834646,
                    "duration": 0.3759712500000205
                },
                {
                    "name": "A1",
                    "midi": 33,
                    "time": 769.9891200000087,
                    "velocity": 0.2047244094488189,
                    "duration": 0.9608154166666054
                },
                {
                    "name": "E2",
                    "midi": 40,
                    "time": 769.9891200000087,
                    "velocity": 0.2047244094488189,
                    "duration": 0.9608154166666054
                },
                {
                    "name": "A2",
                    "midi": 45,
                    "time": 769.9891200000087,
                    "velocity": 0.2047244094488189,
                    "duration": 0.9608154166666054
                },
                {
                    "name": "E2",
                    "midi": 40,
                    "time": 770.9917100000087,
                    "velocity": 0.09448818897637795,
                    "duration": 0.3759712500000205
                },
                {
                    "name": "A2",
                    "midi": 45,
                    "time": 770.9917100000087,
                    "velocity": 0.09448818897637795,
                    "duration": 0.3759712500000205
                },
                {
                    "name": "A1",
                    "midi": 33,
                    "time": 770.9917100000087,
                    "velocity": 0.09448818897637795,
                    "duration": 0.3759712500000205
                },
                {
                    "name": "A3",
                    "midi": 57,
                    "time": 771.9943000000087,
                    "velocity": 0.2047244094488189,
                    "duration": 0.9608154166666054
                },
                {
                    "name": "B4",
                    "midi": 71,
                    "time": 771.9943000000087,
                    "velocity": 0.2047244094488189,
                    "duration": 0.9608154166666054
                },
                {
                    "name": "E4",
                    "midi": 64,
                    "time": 771.9943000000087,
                    "velocity": 0.2047244094488189,
                    "duration": 0.9608154166666054
                },
                {
                    "name": "E4",
                    "midi": 64,
                    "time": 772.9968900000086,
                    "velocity": 0.08661417322834646,
                    "duration": 0.3759712500000205
                },
                {
                    "name": "B4",
                    "midi": 71,
                    "time": 772.9968900000086,
                    "velocity": 0.08661417322834646,
                    "duration": 0.3759712500000205
                },
                {
                    "name": "A3",
                    "midi": 57,
                    "time": 772.9968900000086,
                    "velocity": 0.08661417322834646,
                    "duration": 0.3759712500000205
                },
                {
                    "name": "A3",
                    "midi": 57,
                    "time": 773.9994800000086,
                    "velocity": 0.2047244094488189,
                    "duration": 0.9608154166667191
                },
                {
                    "name": "B4",
                    "midi": 71,
                    "time": 773.9994800000086,
                    "velocity": 0.2047244094488189,
                    "duration": 0.9608154166667191
                },
                {
                    "name": "E4",
                    "midi": 64,
                    "time": 773.9994800000086,
                    "velocity": 0.2047244094488189,
                    "duration": 0.9608154166667191
                },
                {
                    "name": "E4",
                    "midi": 64,
                    "time": 775.0020700000086,
                    "velocity": 0.08661417322834646,
                    "duration": 0.3759712500000205
                },
                {
                    "name": "A3",
                    "midi": 57,
                    "time": 775.0020700000086,
                    "velocity": 0.08661417322834646,
                    "duration": 0.3759712500000205
                },
                {
                    "name": "B4",
                    "midi": 71,
                    "time": 775.0020700000086,
                    "velocity": 0.08661417322834646,
                    "duration": 0.3759712500000205
                },
                {
                    "name": "A3",
                    "midi": 57,
                    "time": 776.0046600000086,
                    "velocity": 0.2047244094488189,
                    "duration": 0.9608154166666054
                },
                {
                    "name": "E4",
                    "midi": 64,
                    "time": 776.0046600000086,
                    "velocity": 0.2047244094488189,
                    "duration": 0.9608154166666054
                },
                {
                    "name": "B4",
                    "midi": 71,
                    "time": 776.0046600000086,
                    "velocity": 0.2047244094488189,
                    "duration": 0.9608154166666054
                },
                {
                    "name": "A3",
                    "midi": 57,
                    "time": 777.0072500000085,
                    "velocity": 0.08661417322834646,
                    "duration": 0.3759712500000205
                },
                {
                    "name": "E4",
                    "midi": 64,
                    "time": 777.0072500000085,
                    "velocity": 0.08661417322834646,
                    "duration": 0.3759712500000205
                },
                {
                    "name": "B4",
                    "midi": 71,
                    "time": 777.0072500000085,
                    "velocity": 0.08661417322834646,
                    "duration": 0.3759712500000205
                },
                {
                    "name": "C#4",
                    "midi": 61,
                    "time": 778.0098400000086,
                    "velocity": 0.6141732283464567,
                    "duration": 4.0103599999999915
                },
                {
                    "name": "C#3",
                    "midi": 49,
                    "time": 778.0098400000086,
                    "velocity": 0.6141732283464567,
                    "duration": 4.0103599999999915
                },
                {
                    "name": "A2",
                    "midi": 45,
                    "time": 782.0202000000086,
                    "velocity": 0.1732283464566929,
                    "duration": 4.0103599999999915
                },
                {
                    "name": "A3",
                    "midi": 57,
                    "time": 782.0202000000086,
                    "velocity": 0.2755905511811024,
                    "duration": 4.0103599999999915
                },
                {
                    "name": "A2",
                    "midi": 45,
                    "time": 786.0305600000086,
                    "velocity": 0.13385826771653545,
                    "duration": 0.9608154166666054
                },
                {
                    "name": "E2",
                    "midi": 40,
                    "time": 786.0305600000086,
                    "velocity": 0.10236220472440945,
                    "duration": 0.9608154166666054
                },
                {
                    "name": "A1",
                    "midi": 33,
                    "time": 786.0305600000086,
                    "velocity": 0.10236220472440945,
                    "duration": 0.9608154166666054
                },
                {
                    "name": "E2",
                    "midi": 40,
                    "time": 787.0331500000085,
                    "velocity": 0.10236220472440945,
                    "duration": 0.9608154166667191
                },
                {
                    "name": "A2",
                    "midi": 45,
                    "time": 787.0331500000085,
                    "velocity": 0.13385826771653545,
                    "duration": 0.9608154166667191
                },
                {
                    "name": "A1",
                    "midi": 33,
                    "time": 787.0331500000085,
                    "velocity": 0.10236220472440945,
                    "duration": 0.9608154166667191
                },
                {
                    "name": "A2",
                    "midi": 45,
                    "time": 788.0357400000086,
                    "velocity": 0.13385826771653545,
                    "duration": 2.0051799999999957
                },
                {
                    "name": "A1",
                    "midi": 33,
                    "time": 788.0357400000086,
                    "velocity": 0.10236220472440945,
                    "duration": 2.0051799999999957
                },
                {
                    "name": "E2",
                    "midi": 40,
                    "time": 788.0357400000086,
                    "velocity": 0.10236220472440945,
                    "duration": 2.0051799999999957
                }
            ],
            "controlChanges": {
                "7": [
                    {
                        "number": 7,
                        "time": 0,
                        "value": 0.7874015748031497
                    }
                ],
                "10": [
                    {
                        "number": 10,
                        "time": 0,
                        "value": 0.5039370078740157
                    }
                ],
                "64": [
                    {
                        "number": 64,
                        "time": 0,
                        "value": 0
                    },
                    {
                        "number": 64,
                        "time": 0.08354916666666667,
                        "value": 1
                    },
                    {
                        "number": 64,
                        "time": 1.0203441979166668,
                        "value": 0
                    },
                    {
                        "number": 64,
                        "time": 1.3921379895833335,
                        "value": 1
                    },
                    {
                        "number": 64,
                        "time": 2.0218898333333337,
                        "value": 0
                    },
                    {
                        "number": 64,
                        "time": 2.178544520833334,
                        "value": 1
                    },
                    {
                        "number": 64,
                        "time": 3.0077700000000007,
                        "value": 0
                    },
                    {
                        "number": 64,
                        "time": 3.5717268750000004,
                        "value": 1
                    },
                    {
                        "number": 64,
                        "time": 4.024981104166667,
                        "value": 0
                    },
                    {
                        "number": 64,
                        "time": 4.177458333333333,
                        "value": 1
                    },
                    {
                        "number": 64,
                        "time": 5.024438010416667,
                        "value": 0
                    },
                    {
                        "number": 64,
                        "time": 5.375344510416666,
                        "value": 1
                    },
                    {
                        "number": 64,
                        "time": 6.032249833333333,
                        "value": 0
                    },
                    {
                        "number": 64,
                        "time": 6.188904520833333,
                        "value": 1
                    },
                    {
                        "number": 64,
                        "time": 7.290709156249999,
                        "value": 0
                    },
                    {
                        "number": 64,
                        "time": 8.132467010416665,
                        "value": 1
                    },
                    {
                        "number": 64,
                        "time": 9.0421085625,
                        "value": 0
                    },
                    {
                        "number": 64,
                        "time": 9.49640715625,
                        "value": 1
                    },
                    {
                        "number": 64,
                        "time": 10.0446985625,
                        "value": 0
                    },
                    {
                        "number": 64,
                        "time": 10.1700223125,
                        "value": 1
                    },
                    {
                        "number": 64,
                        "time": 11.02849,
                        "value": 0
                    },
                    {
                        "number": 64,
                        "time": 11.592446875,
                        "value": 1
                    },
                    {
                        "number": 64,
                        "time": 12.040479281249999,
                        "value": 0
                    },
                    {
                        "number": 64,
                        "time": 12.253529656249999,
                        "value": 1
                    },
                    {
                        "number": 64,
                        "time": 13.045158010416666,
                        "value": 0
                    },
                    {
                        "number": 64,
                        "time": 13.451415833333332,
                        "value": 1
                    },
                    {
                        "number": 64,
                        "time": 14.050881104166665,
                        "value": 0
                    },
                    {
                        "number": 64,
                        "time": 14.187692864583331,
                        "value": 1
                    },
                    {
                        "number": 64,
                        "time": 15.200726510416665,
                        "value": 0
                    },
                    {
                        "number": 64,
                        "time": 16.108279333333332,
                        "value": 1
                    },
                    {
                        "number": 64,
                        "time": 17.110869333333333,
                        "value": 0
                    },
                    {
                        "number": 64,
                        "time": 18.105104416666666,
                        "value": 1
                    },
                    {
                        "number": 64,
                        "time": 19.107694416666664,
                        "value": 0
                    },
                    {
                        "number": 64,
                        "time": 19.587057760416666,
                        "value": 1
                    },
                    {
                        "number": 64,
                        "time": 21.1358504375,
                        "value": 0
                    },
                    {
                        "number": 64,
                        "time": 21.732182614583333,
                        "value": 1
                    },
                    {
                        "number": 64,
                        "time": 22.068468010416666,
                        "value": 0
                    },
                    {
                        "number": 64,
                        "time": 22.249143083333333,
                        "value": 1
                    },
                    {
                        "number": 64,
                        "time": 23.126409333333335,
                        "value": 0
                    },
                    {
                        "number": 64,
                        "time": 23.671567645833335,
                        "value": 1
                    },
                    {
                        "number": 64,
                        "time": 24.069470552083335,
                        "value": 0
                    },
                    {
                        "number": 64,
                        "time": 24.26163363541667,
                        "value": 1
                    },
                    {
                        "number": 64,
                        "time": 25.10548021875,
                        "value": 0
                    },
                    {
                        "number": 64,
                        "time": 25.698679302083335,
                        "value": 1
                    },
                    {
                        "number": 64,
                        "time": 26.078828010416668,
                        "value": 0
                    },
                    {
                        "number": 64,
                        "time": 26.243837614583335,
                        "value": 1
                    },
                    {
                        "number": 64,
                        "time": 27.16601154166667,
                        "value": 0
                    },
                    {
                        "number": 64,
                        "time": 27.66730654166667,
                        "value": 1
                    },
                    {
                        "number": 64,
                        "time": 29.17850209375,
                        "value": 0
                    },
                    {
                        "number": 64,
                        "time": 29.71634985416667,
                        "value": 1
                    },
                    {
                        "number": 64,
                        "time": 30.087099281250005,
                        "value": 0
                    },
                    {
                        "number": 64,
                        "time": 30.239576510416672,
                        "value": 1
                    },
                    {
                        "number": 64,
                        "time": 31.13877441666667,
                        "value": 0
                    },
                    {
                        "number": 64,
                        "time": 31.6254483125,
                        "value": 1
                    },
                    {
                        "number": 64,
                        "time": 33.12202276041667,
                        "value": 0
                    },
                    {
                        "number": 64,
                        "time": 33.71626620833334,
                        "value": 1
                    },
                    {
                        "number": 64,
                        "time": 34.09850364583334,
                        "value": 0
                    },
                    {
                        "number": 64,
                        "time": 34.20607319791667,
                        "value": 1
                    },
                    {
                        "number": 64,
                        "time": 35.10004928125,
                        "value": 0
                    },
                    {
                        "number": 64,
                        "time": 35.24939341666667,
                        "value": 1
                    },
                    {
                        "number": 64,
                        "time": 36.11099419791667,
                        "value": 0
                    },
                    {
                        "number": 64,
                        "time": 36.20394264583334,
                        "value": 1
                    },
                    {
                        "number": 64,
                        "time": 37.12193911458334,
                        "value": 0
                    },
                    {
                        "number": 64,
                        "time": 38.12766220833335,
                        "value": 1
                    },
                    {
                        "number": 64,
                        "time": 39.11354237500001,
                        "value": 0
                    },
                    {
                        "number": 64,
                        "time": 39.19291408333334,
                        "value": 1
                    },
                    {
                        "number": 64,
                        "time": 40.11404364583334,
                        "value": 0
                    },
                    {
                        "number": 64,
                        "time": 40.24354485416667,
                        "value": 1
                    },
                    {
                        "number": 64,
                        "time": 41.13229911458334,
                        "value": 0
                    },
                    {
                        "number": 64,
                        "time": 50.35194965624999,
                        "value": 1
                    },
                    {
                        "number": 64,
                        "time": 51.15297729166666,
                        "value": 0
                    },
                    {
                        "number": 64,
                        "time": 51.549835833333326,
                        "value": 1
                    },
                    {
                        "number": 64,
                        "time": 52.155567291666664,
                        "value": 0
                    },
                    {
                        "number": 64,
                        "time": 52.28089104166666,
                        "value": 1
                    },
                    {
                        "number": 64,
                        "time": 53.137269999999994,
                        "value": 0
                    },
                    {
                        "number": 64,
                        "time": 53.66258538541666,
                        "value": 1
                    },
                    {
                        "number": 64,
                        "time": 54.03542354166666,
                        "value": 0
                    },
                    {
                        "number": 64,
                        "time": 54.22027607291666,
                        "value": 1
                    },
                    {
                        "number": 64,
                        "time": 54.52731926041666,
                        "value": 0
                    },
                    {
                        "number": 64,
                        "time": 54.72470416666666,
                        "value": 1
                    },
                    {
                        "number": 64,
                        "time": 55.04323536458333,
                        "value": 0
                    },
                    {
                        "number": 64,
                        "time": 55.25315264583333,
                        "value": 1
                    },
                    {
                        "number": 64,
                        "time": 55.53617544791666,
                        "value": 0
                    },
                    {
                        "number": 64,
                        "time": 55.736693447916664,
                        "value": 1
                    },
                    {
                        "number": 64,
                        "time": 56.064623927083325,
                        "value": 0
                    },
                    {
                        "number": 64,
                        "time": 56.22858916666666,
                        "value": 1
                    },
                    {
                        "number": 64,
                        "time": 56.537721083333324,
                        "value": 0
                    },
                    {
                        "number": 64,
                        "time": 56.74450527083333,
                        "value": 1
                    },
                    {
                        "number": 64,
                        "time": 57.04632663541666,
                        "value": 0
                    },
                    {
                        "number": 64,
                        "time": 57.221779885416666,
                        "value": 1
                    },
                    {
                        "number": 64,
                        "time": 57.54448854166667,
                        "value": 0
                    },
                    {
                        "number": 64,
                        "time": 58.28285430208333,
                        "value": 1
                    },
                    {
                        "number": 64,
                        "time": 59.17369729166666,
                        "value": 0
                    },
                    {
                        "number": 64,
                        "time": 59.54235798958333,
                        "value": 1
                    },
                    {
                        "number": 64,
                        "time": 60.17524292708333,
                        "value": 0
                    },
                    {
                        "number": 64,
                        "time": 60.31727651041667,
                        "value": 1
                    },
                    {
                        "number": 64,
                        "time": 61.15381254166667,
                        "value": 0
                    },
                    {
                        "number": 64,
                        "time": 61.71463632291666,
                        "value": 1
                    },
                    {
                        "number": 64,
                        "time": 62.043611166666665,
                        "value": 0
                    },
                    {
                        "number": 64,
                        "time": 62.31619032291667,
                        "value": 1
                    },
                    {
                        "number": 64,
                        "time": 62.55743854166667,
                        "value": 0
                    },
                    {
                        "number": 64,
                        "time": 62.81121913541667,
                        "value": 1
                    },
                    {
                        "number": 64,
                        "time": 63.05560044791667,
                        "value": 0
                    },
                    {
                        "number": 64,
                        "time": 63.31251413541667,
                        "value": 1
                    },
                    {
                        "number": 64,
                        "time": 63.56316163541667,
                        "value": 0
                    },
                    {
                        "number": 64,
                        "time": 63.7835225625,
                        "value": 1
                    },
                    {
                        "number": 64,
                        "time": 64.06132354166668,
                        "value": 0
                    },
                    {
                        "number": 64,
                        "time": 64.25870844791669,
                        "value": 1
                    },
                    {
                        "number": 64,
                        "time": 64.5688847291667,
                        "value": 0
                    },
                    {
                        "number": 64,
                        "time": 64.79237875000004,
                        "value": 1
                    },
                    {
                        "number": 64,
                        "time": 65.05346989583339,
                        "value": 0
                    },
                    {
                        "number": 64,
                        "time": 65.26965336458339,
                        "value": 1
                    },
                    {
                        "number": 64,
                        "time": 65.56834163541673,
                        "value": 0
                    },
                    {
                        "number": 64,
                        "time": 66.19287165625008,
                        "value": 1
                    },
                    {
                        "number": 64,
                        "time": 67.19546165625007,
                        "value": 0
                    },
                    {
                        "number": 64,
                        "time": 68.18760801041675,
                        "value": 1
                    },
                    {
                        "number": 64,
                        "time": 69.19019801041675,
                        "value": 0
                    },
                    {
                        "number": 64,
                        "time": 69.73117886458343,
                        "value": 1
                    },
                    {
                        "number": 64,
                        "time": 71.22462021875009,
                        "value": 0
                    },
                    {
                        "number": 64,
                        "time": 71.43453750000009,
                        "value": 1
                    },
                    {
                        "number": 64,
                        "time": 71.69249555208343,
                        "value": 0
                    },
                    {
                        "number": 64,
                        "time": 71.78439963541676,
                        "value": 1
                    },
                    {
                        "number": 64,
                        "time": 72.1990123750001,
                        "value": 0
                    },
                    {
                        "number": 64,
                        "time": 72.30762629166676,
                        "value": 1
                    },
                    {
                        "number": 64,
                        "time": 73.21831220833342,
                        "value": 0
                    },
                    {
                        "number": 64,
                        "time": 74.23552331250008,
                        "value": 1
                    },
                    {
                        "number": 64,
                        "time": 75.23811331250006,
                        "value": 0
                    },
                    {
                        "number": 64,
                        "time": 76.25219132291673,
                        "value": 1
                    },
                    {
                        "number": 64,
                        "time": 77.2255391145834,
                        "value": 0
                    },
                    {
                        "number": 64,
                        "time": 77.74458831250006,
                        "value": 1
                    },
                    {
                        "number": 64,
                        "time": 79.24116276041673,
                        "value": 0
                    },
                    {
                        "number": 64,
                        "time": 79.48867716666672,
                        "value": 1
                    },
                    {
                        "number": 64,
                        "time": 79.71008245833339,
                        "value": 0
                    },
                    {
                        "number": 64,
                        "time": 79.79780908333339,
                        "value": 1
                    },
                    {
                        "number": 64,
                        "time": 80.21973237500006,
                        "value": 0
                    },
                    {
                        "number": 64,
                        "time": 80.35445540625007,
                        "value": 1
                    },
                    {
                        "number": 64,
                        "time": 81.2358991145834,
                        "value": 0
                    },
                    {
                        "number": 64,
                        "time": 81.76643632291673,
                        "value": 1
                    },
                    {
                        "number": 64,
                        "time": 83.2410791145834,
                        "value": 0
                    },
                    {
                        "number": 64,
                        "time": 83.42175418750006,
                        "value": 1
                    },
                    {
                        "number": 64,
                        "time": 83.72461991666673,
                        "value": 0
                    },
                    {
                        "number": 64,
                        "time": 83.80085853125006,
                        "value": 1
                    },
                    {
                        "number": 64,
                        "time": 84.22904801041673,
                        "value": 0
                    },
                    {
                        "number": 64,
                        "time": 84.35750485416673,
                        "value": 1
                    },
                    {
                        "number": 64,
                        "time": 85.2337267395834,
                        "value": 0
                    },
                    {
                        "number": 64,
                        "time": 85.32354209375006,
                        "value": 1
                    },
                    {
                        "number": 64,
                        "time": 86.23736110416674,
                        "value": 0
                    },
                    {
                        "number": 64,
                        "time": 86.36999540625007,
                        "value": 1
                    },
                    {
                        "number": 64,
                        "time": 87.33185518750007,
                        "value": 0
                    },
                    {
                        "number": 64,
                        "time": 88.2978924270834,
                        "value": 1
                    },
                    {
                        "number": 64,
                        "time": 89.24304237500007,
                        "value": 0
                    },
                    {
                        "number": 64,
                        "time": 89.33703518750008,
                        "value": 1
                    },
                    {
                        "number": 64,
                        "time": 90.24249928125008,
                        "value": 0
                    },
                    {
                        "number": 64,
                        "time": 90.32918154166674,
                        "value": 1
                    },
                    {
                        "number": 64,
                        "time": 91.33177154166674,
                        "value": 0
                    },
                    {
                        "number": 64,
                        "time": 92.28632077083341,
                        "value": 1
                    },
                    {
                        "number": 64,
                        "time": 93.28891077083343,
                        "value": 0
                    },
                    {
                        "number": 64,
                        "time": 94.26956911458343,
                        "value": 1
                    },
                    {
                        "number": 64,
                        "time": 95.27215911458343,
                        "value": 0
                    },
                    {
                        "number": 64,
                        "time": 96.27474911458343,
                        "value": 1
                    },
                    {
                        "number": 64,
                        "time": 97.27733911458343,
                        "value": 0
                    },
                    {
                        "number": 64,
                        "time": 98.26113055208343,
                        "value": 1
                    },
                    {
                        "number": 64,
                        "time": 99.26372055208344,
                        "value": 0
                    },
                    {
                        "number": 64,
                        "time": 100.31017386458345,
                        "value": 1
                    },
                    {
                        "number": 64,
                        "time": 102.27044618750023,
                        "value": 0
                    },
                    {
                        "number": 64,
                        "time": 102.3477291666669,
                        "value": 1
                    },
                    {
                        "number": 64,
                        "time": 104.27353745833366,
                        "value": 0
                    },
                    {
                        "number": 64,
                        "time": 104.41348231250034,
                        "value": 1
                    },
                    {
                        "number": 64,
                        "time": 105.00668139583367,
                        "value": 0
                    },
                    {
                        "number": 64,
                        "time": 105.286571104167,
                        "value": 1
                    },
                    {
                        "number": 64,
                        "time": 106.06462271875033,
                        "value": 0
                    },
                    {
                        "number": 64,
                        "time": 106.286028010417,
                        "value": 1
                    },
                    {
                        "number": 64,
                        "time": 107.09332183333366,
                        "value": 0
                    },
                    {
                        "number": 64,
                        "time": 107.32099331250032,
                        "value": 1
                    },
                    {
                        "number": 64,
                        "time": 108.13246459375033,
                        "value": 0
                    },
                    {
                        "number": 64,
                        "time": 108.33507132291699,
                        "value": 1
                    },
                    {
                        "number": 64,
                        "time": 110.30578729166699,
                        "value": 0
                    },
                    {
                        "number": 64,
                        "time": 110.70264583333365,
                        "value": 1
                    },
                    {
                        "number": 64,
                        "time": 112.29008000000032,
                        "value": 0
                    },
                    {
                        "number": 64,
                        "time": 112.34334259375032,
                        "value": 1
                    },
                    {
                        "number": 64,
                        "time": 116.30044000000053,
                        "value": 0
                    },
                    {
                        "number": 64,
                        "time": 116.8257553854172,
                        "value": 1
                    },
                    {
                        "number": 64,
                        "time": 118.32337419791719,
                        "value": 0
                    },
                    {
                        "number": 64,
                        "time": 118.69516798958385,
                        "value": 1
                    },
                    {
                        "number": 64,
                        "time": 120.31080000000051,
                        "value": 0
                    },
                    {
                        "number": 64,
                        "time": 120.40688154166718,
                        "value": 1
                    },
                    {
                        "number": 64,
                        "time": 122.31598000000052,
                        "value": 0
                    },
                    {
                        "number": 64,
                        "time": 122.53111910416719,
                        "value": 1
                    },
                    {
                        "number": 64,
                        "time": 123.33423546875052,
                        "value": 0
                    },
                    {
                        "number": 64,
                        "time": 123.60472589583385,
                        "value": 1
                    },
                    {
                        "number": 64,
                        "time": 124.34204729166719,
                        "value": 0
                    },
                    {
                        "number": 64,
                        "time": 124.49765761458386,
                        "value": 1
                    },
                    {
                        "number": 64,
                        "time": 126.32634000000054,
                        "value": 0
                    },
                    {
                        "number": 64,
                        "time": 126.49970452083387,
                        "value": 1
                    },
                    {
                        "number": 64,
                        "time": 127.34981729166721,
                        "value": 0
                    },
                    {
                        "number": 64,
                        "time": 127.48454032291721,
                        "value": 1
                    },
                    {
                        "number": 64,
                        "time": 128.34091928125056,
                        "value": 0
                    },
                    {
                        "number": 64,
                        "time": 128.42342408333388,
                        "value": 1
                    },
                    {
                        "number": 64,
                        "time": 130.33670000000055,
                        "value": 0
                    },
                    {
                        "number": 64,
                        "time": 130.57585948958388,
                        "value": 1
                    },
                    {
                        "number": 64,
                        "time": 131.35495546875055,
                        "value": 0
                    },
                    {
                        "number": 64,
                        "time": 131.42283916666722,
                        "value": 1
                    },
                    {
                        "number": 64,
                        "time": 132.36485602083388,
                        "value": 0
                    },
                    {
                        "number": 64,
                        "time": 132.49644595833388,
                        "value": 1
                    },
                    {
                        "number": 64,
                        "time": 134.34706000000054,
                        "value": 0
                    },
                    {
                        "number": 64,
                        "time": 134.50893651041721,
                        "value": 1
                    },
                    {
                        "number": 64,
                        "time": 136.36268364583387,
                        "value": 0
                    },
                    {
                        "number": 64,
                        "time": 136.49636231250054,
                        "value": 1
                    },
                    {
                        "number": 64,
                        "time": 138.35742000000053,
                        "value": 0
                    },
                    {
                        "number": 64,
                        "time": 138.59657948958386,
                        "value": 1
                    },
                    {
                        "number": 64,
                        "time": 139.3808972916672,
                        "value": 0
                    },
                    {
                        "number": 64,
                        "time": 139.48533375000054,
                        "value": 1
                    },
                    {
                        "number": 64,
                        "time": 140.38453165625052,
                        "value": 0
                    },
                    {
                        "number": 64,
                        "time": 140.47643573958385,
                        "value": 1
                    },
                    {
                        "number": 64,
                        "time": 142.36778000000052,
                        "value": 0
                    },
                    {
                        "number": 64,
                        "time": 142.5829191041672,
                        "value": 1
                    },
                    {
                        "number": 64,
                        "time": 143.3912572916672,
                        "value": 0
                    },
                    {
                        "number": 64,
                        "time": 143.6325055104172,
                        "value": 1
                    },
                    {
                        "number": 64,
                        "time": 144.38444801041717,
                        "value": 0
                    },
                    {
                        "number": 64,
                        "time": 144.48679573958384,
                        "value": 1
                    },
                    {
                        "number": 64,
                        "time": 146.3781400000005,
                        "value": 0
                    },
                    {
                        "number": 64,
                        "time": 146.6026783854172,
                        "value": 1
                    },
                    {
                        "number": 64,
                        "time": 147.40161729166718,
                        "value": 0
                    },
                    {
                        "number": 64,
                        "time": 147.57080435416717,
                        "value": 1
                    },
                    {
                        "number": 64,
                        "time": 148.40107419791718,
                        "value": 0
                    },
                    {
                        "number": 64,
                        "time": 148.45015933333386,
                        "value": 1
                    },
                    {
                        "number": 64,
                        "time": 149.73577213541722,
                        "value": 0
                    },
                    {
                        "number": 64,
                        "time": 150.42505276041723,
                        "value": 1
                    },
                    {
                        "number": 64,
                        "time": 151.72319793750057,
                        "value": 0
                    },
                    {
                        "number": 64,
                        "time": 152.4375433125006,
                        "value": 1
                    },
                    {
                        "number": 64,
                        "time": 153.74299904166725,
                        "value": 0
                    },
                    {
                        "number": 64,
                        "time": 154.4395902187506,
                        "value": 1
                    },
                    {
                        "number": 64,
                        "time": 155.74086848958393,
                        "value": 0
                    },
                    {
                        "number": 64,
                        "time": 156.54294048958394,
                        "value": 1
                    },
                    {
                        "number": 64,
                        "time": 157.9079250000006,
                        "value": 0
                    },
                    {
                        "number": 64,
                        "time": 158.42279673958393,
                        "value": 1
                    },
                    {
                        "number": 64,
                        "time": 158.93035792708395,
                        "value": 0
                    },
                    {
                        "number": 64,
                        "time": 159.0661253229173,
                        "value": 1
                    },
                    {
                        "number": 64,
                        "time": 159.4326972916673,
                        "value": 0
                    },
                    {
                        "number": 64,
                        "time": 159.6363483854173,
                        "value": 1
                    },
                    {
                        "number": 64,
                        "time": 159.9339922916673,
                        "value": 0
                    },
                    {
                        "number": 64,
                        "time": 160.10317935416728,
                        "value": 1
                    },
                    {
                        "number": 64,
                        "time": 160.42066618750061,
                        "value": 0
                    },
                    {
                        "number": 64,
                        "time": 160.74755230208396,
                        "value": 1
                    },
                    {
                        "number": 64,
                        "time": 161.75640848958395,
                        "value": 0
                    },
                    {
                        "number": 64,
                        "time": 162.46031021875064,
                        "value": 1
                    },
                    {
                        "number": 64,
                        "time": 163.92346500000065,
                        "value": 0
                    },
                    {
                        "number": 64,
                        "time": 164.53650701041732,
                        "value": 1
                    },
                    {
                        "number": 64,
                        "time": 165.92864500000067,
                        "value": 0
                    },
                    {
                        "number": 64,
                        "time": 166.46335966666734,
                        "value": 1
                    },
                    {
                        "number": 64,
                        "time": 166.94063428125068,
                        "value": 0
                    },
                    {
                        "number": 64,
                        "time": 167.01060670833402,
                        "value": 1
                    },
                    {
                        "number": 64,
                        "time": 167.4544616562507,
                        "value": 0
                    },
                    {
                        "number": 64,
                        "time": 167.53174463541734,
                        "value": 1
                    },
                    {
                        "number": 64,
                        "time": 167.947401739584,
                        "value": 0
                    },
                    {
                        "number": 64,
                        "time": 168.00901925000065,
                        "value": 1
                    },
                    {
                        "number": 64,
                        "time": 168.4560072916673,
                        "value": 0
                    },
                    {
                        "number": 64,
                        "time": 168.5969965104173,
                        "value": 1
                    },
                    {
                        "number": 64,
                        "time": 169.73222081250063,
                        "value": 0
                    },
                    {
                        "number": 64,
                        "time": 170.7744966666673,
                        "value": 1
                    },
                    {
                        "number": 64,
                        "time": 171.88152312500063,
                        "value": 0
                    },
                    {
                        "number": 64,
                        "time": 172.4788996666673,
                        "value": 1
                    },
                    {
                        "number": 64,
                        "time": 173.4689572916673,
                        "value": 0
                    },
                    {
                        "number": 64,
                        "time": 173.63918871875063,
                        "value": 1
                    },
                    {
                        "number": 64,
                        "time": 174.46945856250062,
                        "value": 0
                    },
                    {
                        "number": 64,
                        "time": 174.52480988541728,
                        "value": 1
                    },
                    {
                        "number": 64,
                        "time": 175.54515408333395,
                        "value": 0
                    },
                    {
                        "number": 64,
                        "time": 176.49657021875063,
                        "value": 1
                    },
                    {
                        "number": 64,
                        "time": 177.6171734166673,
                        "value": 0
                    },
                    {
                        "number": 64,
                        "time": 178.68346965625065,
                        "value": 1
                    },
                    {
                        "number": 64,
                        "time": 179.96490500000064,
                        "value": 0
                    },
                    {
                        "number": 64,
                        "time": 180.51006331250065,
                        "value": 1
                    },
                    {
                        "number": 64,
                        "time": 181.4896772916673,
                        "value": 0
                    },
                    {
                        "number": 64,
                        "time": 181.75494589583397,
                        "value": 1
                    },
                    {
                        "number": 64,
                        "time": 182.49017856250063,
                        "value": 0
                    },
                    {
                        "number": 64,
                        "time": 182.57477209375062,
                        "value": 1
                    },
                    {
                        "number": 64,
                        "time": 183.55856353125063,
                        "value": 0
                    },
                    {
                        "number": 64,
                        "time": 184.50266911458397,
                        "value": 1
                    },
                    {
                        "number": 64,
                        "time": 185.50525911458396,
                        "value": 0
                    },
                    {
                        "number": 64,
                        "time": 186.52247021875067,
                        "value": 1
                    },
                    {
                        "number": 64,
                        "time": 187.5250602187507,
                        "value": 0
                    },
                    {
                        "number": 64,
                        "time": 188.55689242708405,
                        "value": 1
                    },
                    {
                        "number": 64,
                        "time": 189.55948242708405,
                        "value": 0
                    },
                    {
                        "number": 64,
                        "time": 190.53283021875075,
                        "value": 1
                    },
                    {
                        "number": 64,
                        "time": 191.53542021875077,
                        "value": 0
                    },
                    {
                        "number": 64,
                        "time": 192.52652220833411,
                        "value": 1
                    },
                    {
                        "number": 64,
                        "time": 193.5291122083341,
                        "value": 0
                    },
                    {
                        "number": 64,
                        "time": 194.53901276041745,
                        "value": 1
                    },
                    {
                        "number": 64,
                        "time": 195.52593729166745,
                        "value": 0
                    },
                    {
                        "number": 64,
                        "time": 200.56604077083415,
                        "value": 1
                    },
                    {
                        "number": 64,
                        "time": 201.54043292708417,
                        "value": 0
                    },
                    {
                        "number": 64,
                        "time": 206.53354000000087,
                        "value": 0
                    },
                    {
                        "number": 64,
                        "time": 206.61708916666754,
                        "value": 1
                    },
                    {
                        "number": 64,
                        "time": 207.55388419791754,
                        "value": 0
                    },
                    {
                        "number": 64,
                        "time": 207.92567798958422,
                        "value": 1
                    },
                    {
                        "number": 64,
                        "time": 208.55542983333422,
                        "value": 0
                    },
                    {
                        "number": 64,
                        "time": 208.71208452083422,
                        "value": 1
                    },
                    {
                        "number": 64,
                        "time": 209.5413100000009,
                        "value": 0
                    },
                    {
                        "number": 64,
                        "time": 210.1052668750009,
                        "value": 1
                    },
                    {
                        "number": 64,
                        "time": 210.55852110416757,
                        "value": 0
                    },
                    {
                        "number": 64,
                        "time": 210.71099833333423,
                        "value": 1
                    },
                    {
                        "number": 64,
                        "time": 211.55797801041754,
                        "value": 0
                    },
                    {
                        "number": 64,
                        "time": 211.90888451041755,
                        "value": 1
                    },
                    {
                        "number": 64,
                        "time": 212.5657898333342,
                        "value": 0
                    },
                    {
                        "number": 64,
                        "time": 212.72244452083422,
                        "value": 1
                    },
                    {
                        "number": 64,
                        "time": 213.8242491562509,
                        "value": 0
                    },
                    {
                        "number": 64,
                        "time": 214.66600701041756,
                        "value": 1
                    },
                    {
                        "number": 64,
                        "time": 215.57564856250087,
                        "value": 0
                    },
                    {
                        "number": 64,
                        "time": 216.02994715625087,
                        "value": 1
                    },
                    {
                        "number": 64,
                        "time": 216.57823856250087,
                        "value": 0
                    },
                    {
                        "number": 64,
                        "time": 216.70356231250088,
                        "value": 1
                    },
                    {
                        "number": 64,
                        "time": 217.57038491666754,
                        "value": 0
                    },
                    {
                        "number": 64,
                        "time": 218.12598687500085,
                        "value": 1
                    },
                    {
                        "number": 64,
                        "time": 218.57401928125086,
                        "value": 0
                    },
                    {
                        "number": 64,
                        "time": 218.78706965625085,
                        "value": 1
                    },
                    {
                        "number": 64,
                        "time": 219.5786980104175,
                        "value": 0
                    },
                    {
                        "number": 64,
                        "time": 219.98495583333417,
                        "value": 1
                    },
                    {
                        "number": 64,
                        "time": 220.58442110416752,
                        "value": 0
                    },
                    {
                        "number": 64,
                        "time": 220.72123286458418,
                        "value": 1
                    },
                    {
                        "number": 64,
                        "time": 221.7342665104175,
                        "value": 0
                    },
                    {
                        "number": 64,
                        "time": 222.64181933333415,
                        "value": 1
                    },
                    {
                        "number": 64,
                        "time": 223.64440933333415,
                        "value": 0
                    },
                    {
                        "number": 64,
                        "time": 224.63864441666746,
                        "value": 1
                    },
                    {
                        "number": 64,
                        "time": 225.64123441666746,
                        "value": 0
                    },
                    {
                        "number": 64,
                        "time": 226.12059776041744,
                        "value": 1
                    },
                    {
                        "number": 64,
                        "time": 227.66939043750077,
                        "value": 0
                    },
                    {
                        "number": 64,
                        "time": 228.26572261458412,
                        "value": 1
                    },
                    {
                        "number": 64,
                        "time": 228.60200801041745,
                        "value": 0
                    },
                    {
                        "number": 64,
                        "time": 228.78268308333412,
                        "value": 1
                    },
                    {
                        "number": 64,
                        "time": 229.6599493333341,
                        "value": 0
                    },
                    {
                        "number": 64,
                        "time": 230.20510764583412,
                        "value": 1
                    },
                    {
                        "number": 64,
                        "time": 230.60301055208413,
                        "value": 0
                    },
                    {
                        "number": 64,
                        "time": 230.79517363541746,
                        "value": 1
                    },
                    {
                        "number": 64,
                        "time": 231.6390202187508,
                        "value": 0
                    },
                    {
                        "number": 64,
                        "time": 232.23221930208413,
                        "value": 1
                    },
                    {
                        "number": 64,
                        "time": 232.61236801041744,
                        "value": 0
                    },
                    {
                        "number": 64,
                        "time": 232.7773776145841,
                        "value": 1
                    },
                    {
                        "number": 64,
                        "time": 233.69955154166746,
                        "value": 0
                    },
                    {
                        "number": 64,
                        "time": 234.20084654166746,
                        "value": 1
                    },
                    {
                        "number": 64,
                        "time": 235.71204209375077,
                        "value": 0
                    },
                    {
                        "number": 64,
                        "time": 236.24988985416744,
                        "value": 1
                    },
                    {
                        "number": 64,
                        "time": 236.6206392812508,
                        "value": 0
                    },
                    {
                        "number": 64,
                        "time": 236.77311651041745,
                        "value": 1
                    },
                    {
                        "number": 64,
                        "time": 237.67231441666743,
                        "value": 0
                    },
                    {
                        "number": 64,
                        "time": 238.15898831250075,
                        "value": 1
                    },
                    {
                        "number": 64,
                        "time": 239.6555627604174,
                        "value": 0
                    },
                    {
                        "number": 64,
                        "time": 240.2498062083341,
                        "value": 1
                    },
                    {
                        "number": 64,
                        "time": 240.6320436458341,
                        "value": 0
                    },
                    {
                        "number": 64,
                        "time": 240.73961319791744,
                        "value": 1
                    },
                    {
                        "number": 64,
                        "time": 241.63358928125078,
                        "value": 0
                    },
                    {
                        "number": 64,
                        "time": 241.78293341666745,
                        "value": 1
                    },
                    {
                        "number": 64,
                        "time": 242.64453419791747,
                        "value": 0
                    },
                    {
                        "number": 64,
                        "time": 242.73748264583412,
                        "value": 1
                    },
                    {
                        "number": 64,
                        "time": 243.65547911458412,
                        "value": 0
                    },
                    {
                        "number": 64,
                        "time": 244.66120220833412,
                        "value": 1
                    },
                    {
                        "number": 64,
                        "time": 245.6470823750008,
                        "value": 0
                    },
                    {
                        "number": 64,
                        "time": 245.72645408333412,
                        "value": 1
                    },
                    {
                        "number": 64,
                        "time": 246.64758364583412,
                        "value": 0
                    },
                    {
                        "number": 64,
                        "time": 246.77708485416744,
                        "value": 1
                    },
                    {
                        "number": 64,
                        "time": 247.66583911458412,
                        "value": 0
                    },
                    {
                        "number": 64,
                        "time": 256.88548965625114,
                        "value": 1
                    },
                    {
                        "number": 64,
                        "time": 257.6865172916678,
                        "value": 0
                    },
                    {
                        "number": 64,
                        "time": 258.0833758333345,
                        "value": 1
                    },
                    {
                        "number": 64,
                        "time": 258.6891072916678,
                        "value": 0
                    },
                    {
                        "number": 64,
                        "time": 258.81443104166783,
                        "value": 1
                    },
                    {
                        "number": 64,
                        "time": 259.61441431250114,
                        "value": 0
                    },
                    {
                        "number": 64,
                        "time": 260.1961253854179,
                        "value": 1
                    },
                    {
                        "number": 64,
                        "time": 260.56896354166787,
                        "value": 0
                    },
                    {
                        "number": 64,
                        "time": 260.75381607291786,
                        "value": 1
                    },
                    {
                        "number": 64,
                        "time": 261.0608592604178,
                        "value": 0
                    },
                    {
                        "number": 64,
                        "time": 261.25824416666785,
                        "value": 1
                    },
                    {
                        "number": 64,
                        "time": 261.57677536458453,
                        "value": 0
                    },
                    {
                        "number": 64,
                        "time": 261.78669264583453,
                        "value": 1
                    },
                    {
                        "number": 64,
                        "time": 262.0697154479179,
                        "value": 0
                    },
                    {
                        "number": 64,
                        "time": 262.2702334479179,
                        "value": 1
                    },
                    {
                        "number": 64,
                        "time": 262.5981639270846,
                        "value": 0
                    },
                    {
                        "number": 64,
                        "time": 262.76212916666793,
                        "value": 1
                    },
                    {
                        "number": 64,
                        "time": 263.0712610833346,
                        "value": 0
                    },
                    {
                        "number": 64,
                        "time": 263.27804527083464,
                        "value": 1
                    },
                    {
                        "number": 64,
                        "time": 263.579866635418,
                        "value": 0
                    },
                    {
                        "number": 64,
                        "time": 263.755319885418,
                        "value": 1
                    },
                    {
                        "number": 64,
                        "time": 264.078028541668,
                        "value": 0
                    },
                    {
                        "number": 64,
                        "time": 264.8163943020847,
                        "value": 1
                    },
                    {
                        "number": 64,
                        "time": 265.70723729166804,
                        "value": 0
                    },
                    {
                        "number": 64,
                        "time": 266.0758979895847,
                        "value": 1
                    },
                    {
                        "number": 64,
                        "time": 266.7087829270847,
                        "value": 0
                    },
                    {
                        "number": 64,
                        "time": 266.85081651041804,
                        "value": 1
                    },
                    {
                        "number": 64,
                        "time": 267.69779618750135,
                        "value": 0
                    },
                    {
                        "number": 64,
                        "time": 268.2481763229181,
                        "value": 1
                    },
                    {
                        "number": 64,
                        "time": 268.5771511666681,
                        "value": 0
                    },
                    {
                        "number": 64,
                        "time": 268.8497303229181,
                        "value": 1
                    },
                    {
                        "number": 64,
                        "time": 269.0909785416681,
                        "value": 0
                    },
                    {
                        "number": 64,
                        "time": 269.3447591354181,
                        "value": 1
                    },
                    {
                        "number": 64,
                        "time": 269.58914044791806,
                        "value": 0
                    },
                    {
                        "number": 64,
                        "time": 269.84605413541806,
                        "value": 1
                    },
                    {
                        "number": 64,
                        "time": 270.09670163541807,
                        "value": 0
                    },
                    {
                        "number": 64,
                        "time": 270.3170625625014,
                        "value": 1
                    },
                    {
                        "number": 64,
                        "time": 270.5948635416681,
                        "value": 0
                    },
                    {
                        "number": 64,
                        "time": 270.7922484479181,
                        "value": 1
                    },
                    {
                        "number": 64,
                        "time": 271.1024247291681,
                        "value": 0
                    },
                    {
                        "number": 64,
                        "time": 271.32591875000145,
                        "value": 1
                    },
                    {
                        "number": 64,
                        "time": 271.5870098958348,
                        "value": 0
                    },
                    {
                        "number": 64,
                        "time": 271.8031933645848,
                        "value": 1
                    },
                    {
                        "number": 64,
                        "time": 272.1018816354181,
                        "value": 0
                    },
                    {
                        "number": 64,
                        "time": 272.72641165625146,
                        "value": 1
                    },
                    {
                        "number": 64,
                        "time": 273.72900165625146,
                        "value": 0
                    },
                    {
                        "number": 64,
                        "time": 274.7211480104181,
                        "value": 1
                    },
                    {
                        "number": 64,
                        "time": 275.7237380104181,
                        "value": 0
                    },
                    {
                        "number": 64,
                        "time": 276.2647188645848,
                        "value": 1
                    },
                    {
                        "number": 64,
                        "time": 277.75816021875147,
                        "value": 0
                    },
                    {
                        "number": 64,
                        "time": 277.96807750000147,
                        "value": 1
                    },
                    {
                        "number": 64,
                        "time": 278.2260355520848,
                        "value": 0
                    },
                    {
                        "number": 64,
                        "time": 278.31793963541816,
                        "value": 1
                    },
                    {
                        "number": 64,
                        "time": 278.7325523750015,
                        "value": 0
                    },
                    {
                        "number": 64,
                        "time": 278.8411662916682,
                        "value": 1
                    },
                    {
                        "number": 64,
                        "time": 279.75185220833487,
                        "value": 0
                    },
                    {
                        "number": 64,
                        "time": 280.7690633125015,
                        "value": 1
                    },
                    {
                        "number": 64,
                        "time": 281.7716533125015,
                        "value": 0
                    },
                    {
                        "number": 64,
                        "time": 282.78573132291814,
                        "value": 1
                    },
                    {
                        "number": 64,
                        "time": 283.75907911458484,
                        "value": 0
                    },
                    {
                        "number": 64,
                        "time": 284.2781283125015,
                        "value": 1
                    },
                    {
                        "number": 64,
                        "time": 285.77470276041817,
                        "value": 0
                    },
                    {
                        "number": 64,
                        "time": 286.02221716666816,
                        "value": 1
                    },
                    {
                        "number": 64,
                        "time": 286.2436224583348,
                        "value": 0
                    },
                    {
                        "number": 64,
                        "time": 286.3313490833348,
                        "value": 1
                    },
                    {
                        "number": 64,
                        "time": 286.7532723750015,
                        "value": 0
                    },
                    {
                        "number": 64,
                        "time": 286.8879954062515,
                        "value": 1
                    },
                    {
                        "number": 64,
                        "time": 287.7694391145848,
                        "value": 0
                    },
                    {
                        "number": 64,
                        "time": 288.29997632291816,
                        "value": 1
                    },
                    {
                        "number": 64,
                        "time": 289.7746191145848,
                        "value": 0
                    },
                    {
                        "number": 64,
                        "time": 289.9552941875015,
                        "value": 1
                    },
                    {
                        "number": 64,
                        "time": 290.2581599166682,
                        "value": 0
                    },
                    {
                        "number": 64,
                        "time": 290.33439853125157,
                        "value": 1
                    },
                    {
                        "number": 64,
                        "time": 290.7625880104182,
                        "value": 0
                    },
                    {
                        "number": 64,
                        "time": 290.8910448541682,
                        "value": 1
                    },
                    {
                        "number": 64,
                        "time": 291.76726673958484,
                        "value": 0
                    },
                    {
                        "number": 64,
                        "time": 291.8570820937515,
                        "value": 1
                    },
                    {
                        "number": 64,
                        "time": 292.77090110416816,
                        "value": 0
                    },
                    {
                        "number": 64,
                        "time": 292.9035354062515,
                        "value": 1
                    },
                    {
                        "number": 64,
                        "time": 293.86539518750146,
                        "value": 0
                    },
                    {
                        "number": 64,
                        "time": 294.8314324270848,
                        "value": 1
                    },
                    {
                        "number": 64,
                        "time": 295.77658237500145,
                        "value": 0
                    },
                    {
                        "number": 64,
                        "time": 295.87057518750146,
                        "value": 1
                    },
                    {
                        "number": 64,
                        "time": 296.7760392812515,
                        "value": 0
                    },
                    {
                        "number": 64,
                        "time": 296.8627215416682,
                        "value": 1
                    },
                    {
                        "number": 64,
                        "time": 297.8653115416682,
                        "value": 0
                    },
                    {
                        "number": 64,
                        "time": 298.81986077083485,
                        "value": 1
                    },
                    {
                        "number": 64,
                        "time": 299.82245077083485,
                        "value": 0
                    },
                    {
                        "number": 64,
                        "time": 300.80310911458486,
                        "value": 1
                    },
                    {
                        "number": 64,
                        "time": 301.80569911458485,
                        "value": 0
                    },
                    {
                        "number": 64,
                        "time": 302.80828911458485,
                        "value": 1
                    },
                    {
                        "number": 64,
                        "time": 303.81087911458485,
                        "value": 0
                    },
                    {
                        "number": 64,
                        "time": 304.7946705520848,
                        "value": 1
                    },
                    {
                        "number": 64,
                        "time": 305.7972605520848,
                        "value": 0
                    },
                    {
                        "number": 64,
                        "time": 306.8437138645848,
                        "value": 1
                    },
                    {
                        "number": 64,
                        "time": 308.80398618750155,
                        "value": 0
                    },
                    {
                        "number": 64,
                        "time": 308.88126916666823,
                        "value": 1
                    },
                    {
                        "number": 64,
                        "time": 310.807077458335,
                        "value": 0
                    },
                    {
                        "number": 64,
                        "time": 310.9470223125017,
                        "value": 1
                    },
                    {
                        "number": 64,
                        "time": 311.54022139583503,
                        "value": 0
                    },
                    {
                        "number": 64,
                        "time": 311.8201111041684,
                        "value": 1
                    },
                    {
                        "number": 64,
                        "time": 312.5981627187518,
                        "value": 0
                    },
                    {
                        "number": 64,
                        "time": 312.81956801041844,
                        "value": 1
                    },
                    {
                        "number": 64,
                        "time": 313.6268618333351,
                        "value": 0
                    },
                    {
                        "number": 64,
                        "time": 313.85453331250176,
                        "value": 1
                    },
                    {
                        "number": 64,
                        "time": 314.6660045937518,
                        "value": 0
                    },
                    {
                        "number": 64,
                        "time": 314.86861132291847,
                        "value": 1
                    },
                    {
                        "number": 64,
                        "time": 316.8393272916685,
                        "value": 0
                    },
                    {
                        "number": 64,
                        "time": 317.2361858333352,
                        "value": 1
                    },
                    {
                        "number": 64,
                        "time": 318.8236200000018,
                        "value": 0
                    },
                    {
                        "number": 64,
                        "time": 318.8768825937518,
                        "value": 1
                    },
                    {
                        "number": 64,
                        "time": 322.83398000000204,
                        "value": 0
                    },
                    {
                        "number": 64,
                        "time": 323.3592953854187,
                        "value": 1
                    },
                    {
                        "number": 64,
                        "time": 324.8600472916687,
                        "value": 0
                    },
                    {
                        "number": 64,
                        "time": 325.22870798958536,
                        "value": 1
                    },
                    {
                        "number": 64,
                        "time": 326.84434000000203,
                        "value": 0
                    },
                    {
                        "number": 64,
                        "time": 326.9404215416687,
                        "value": 1
                    },
                    {
                        "number": 64,
                        "time": 328.84952000000203,
                        "value": 0
                    },
                    {
                        "number": 64,
                        "time": 329.0646591041687,
                        "value": 1
                    },
                    {
                        "number": 64,
                        "time": 329.8677754687521,
                        "value": 0
                    },
                    {
                        "number": 64,
                        "time": 330.13826589583545,
                        "value": 1
                    },
                    {
                        "number": 64,
                        "time": 330.8755872916688,
                        "value": 0
                    },
                    {
                        "number": 64,
                        "time": 331.0311976145855,
                        "value": 1
                    },
                    {
                        "number": 64,
                        "time": 332.85988000000214,
                        "value": 0
                    },
                    {
                        "number": 64,
                        "time": 333.03324452083547,
                        "value": 1
                    },
                    {
                        "number": 64,
                        "time": 333.8833572916688,
                        "value": 0
                    },
                    {
                        "number": 64,
                        "time": 334.0180803229188,
                        "value": 1
                    },
                    {
                        "number": 64,
                        "time": 334.8744592812522,
                        "value": 0
                    },
                    {
                        "number": 64,
                        "time": 334.95696408333555,
                        "value": 1
                    },
                    {
                        "number": 64,
                        "time": 336.87024000000224,
                        "value": 0
                    },
                    {
                        "number": 64,
                        "time": 337.1093994895856,
                        "value": 1
                    },
                    {
                        "number": 64,
                        "time": 337.8884954687523,
                        "value": 0
                    },
                    {
                        "number": 64,
                        "time": 337.95637916666897,
                        "value": 1
                    },
                    {
                        "number": 64,
                        "time": 338.89839602083566,
                        "value": 0
                    },
                    {
                        "number": 64,
                        "time": 339.02998595833566,
                        "value": 1
                    },
                    {
                        "number": 64,
                        "time": 340.88060000000235,
                        "value": 0
                    },
                    {
                        "number": 64,
                        "time": 341.042476510419,
                        "value": 1
                    },
                    {
                        "number": 64,
                        "time": 342.8962236458358,
                        "value": 0
                    },
                    {
                        "number": 64,
                        "time": 343.02990231250243,
                        "value": 1
                    },
                    {
                        "number": 64,
                        "time": 344.89096000000245,
                        "value": 0
                    },
                    {
                        "number": 64,
                        "time": 345.1301194895858,
                        "value": 1
                    },
                    {
                        "number": 64,
                        "time": 345.9144372916692,
                        "value": 0
                    },
                    {
                        "number": 64,
                        "time": 346.0188737500025,
                        "value": 1
                    },
                    {
                        "number": 64,
                        "time": 346.91807165625255,
                        "value": 0
                    },
                    {
                        "number": 64,
                        "time": 347.0099757395859,
                        "value": 1
                    },
                    {
                        "number": 64,
                        "time": 348.90132000000256,
                        "value": 0
                    },
                    {
                        "number": 64,
                        "time": 349.1164591041692,
                        "value": 1
                    },
                    {
                        "number": 64,
                        "time": 349.9247972916693,
                        "value": 0
                    },
                    {
                        "number": 64,
                        "time": 350.1660455104193,
                        "value": 1
                    },
                    {
                        "number": 64,
                        "time": 350.9179880104193,
                        "value": 0
                    },
                    {
                        "number": 64,
                        "time": 351.020335739586,
                        "value": 1
                    },
                    {
                        "number": 64,
                        "time": 352.91168000000266,
                        "value": 0
                    },
                    {
                        "number": 64,
                        "time": 353.13621838541934,
                        "value": 1
                    },
                    {
                        "number": 64,
                        "time": 353.9351572916694,
                        "value": 0
                    },
                    {
                        "number": 64,
                        "time": 354.10434435416937,
                        "value": 1
                    },
                    {
                        "number": 64,
                        "time": 354.93461419791936,
                        "value": 0
                    },
                    {
                        "number": 64,
                        "time": 354.983699333336,
                        "value": 1
                    },
                    {
                        "number": 64,
                        "time": 356.26931213541934,
                        "value": 0
                    },
                    {
                        "number": 64,
                        "time": 356.9585927604193,
                        "value": 1
                    },
                    {
                        "number": 64,
                        "time": 358.25673793750263,
                        "value": 0
                    },
                    {
                        "number": 64,
                        "time": 358.97108331250257,
                        "value": 1
                    },
                    {
                        "number": 64,
                        "time": 360.27653904166925,
                        "value": 0
                    },
                    {
                        "number": 64,
                        "time": 360.97313021875254,
                        "value": 1
                    },
                    {
                        "number": 64,
                        "time": 362.2744084895859,
                        "value": 0
                    },
                    {
                        "number": 64,
                        "time": 363.07648048958583,
                        "value": 1
                    },
                    {
                        "number": 64,
                        "time": 364.44146500000255,
                        "value": 0
                    },
                    {
                        "number": 64,
                        "time": 364.95633673958594,
                        "value": 1
                    },
                    {
                        "number": 64,
                        "time": 365.46389792708595,
                        "value": 0
                    },
                    {
                        "number": 64,
                        "time": 365.5996653229193,
                        "value": 1
                    },
                    {
                        "number": 64,
                        "time": 365.9662372916693,
                        "value": 0
                    },
                    {
                        "number": 64,
                        "time": 366.1698883854193,
                        "value": 1
                    },
                    {
                        "number": 64,
                        "time": 366.46753229166933,
                        "value": 0
                    },
                    {
                        "number": 64,
                        "time": 366.6367193541693,
                        "value": 1
                    },
                    {
                        "number": 64,
                        "time": 366.9542061875026,
                        "value": 0
                    },
                    {
                        "number": 64,
                        "time": 367.28109230208594,
                        "value": 1
                    },
                    {
                        "number": 64,
                        "time": 367.95053000000263,
                        "value": 0
                    },
                    {
                        "number": 64,
                        "time": 368.99385021875264,
                        "value": 1
                    },
                    {
                        "number": 64,
                        "time": 370.45700500000265,
                        "value": 0
                    },
                    {
                        "number": 64,
                        "time": 371.07004701041933,
                        "value": 1
                    },
                    {
                        "number": 64,
                        "time": 372.4621850000027,
                        "value": 0
                    },
                    {
                        "number": 64,
                        "time": 372.9968996666694,
                        "value": 1
                    },
                    {
                        "number": 64,
                        "time": 373.4741742812527,
                        "value": 0
                    },
                    {
                        "number": 64,
                        "time": 373.54414670833603,
                        "value": 1
                    },
                    {
                        "number": 64,
                        "time": 373.98800165625266,
                        "value": 0
                    },
                    {
                        "number": 64,
                        "time": 374.06528463541935,
                        "value": 1
                    },
                    {
                        "number": 64,
                        "time": 374.48094173958606,
                        "value": 0
                    },
                    {
                        "number": 64,
                        "time": 374.54255925000274,
                        "value": 1
                    },
                    {
                        "number": 64,
                        "time": 374.9895472916694,
                        "value": 0
                    },
                    {
                        "number": 64,
                        "time": 375.1305365104194,
                        "value": 1
                    },
                    {
                        "number": 64,
                        "time": 375.97856055208604,
                        "value": 0
                    },
                    {
                        "number": 64,
                        "time": 377.30803666666935,
                        "value": 1
                    },
                    {
                        "number": 64,
                        "time": 378.4150631250027,
                        "value": 0
                    },
                    {
                        "number": 64,
                        "time": 379.0124396666693,
                        "value": 1
                    },
                    {
                        "number": 64,
                        "time": 380.00249729166933,
                        "value": 0
                    },
                    {
                        "number": 64,
                        "time": 380.17272871875264,
                        "value": 1
                    },
                    {
                        "number": 64,
                        "time": 381.0029985625027,
                        "value": 0
                    },
                    {
                        "number": 64,
                        "time": 381.0583498854194,
                        "value": 1
                    },
                    {
                        "number": 64,
                        "time": 382.0786940833361,
                        "value": 0
                    },
                    {
                        "number": 64,
                        "time": 383.0301102187527,
                        "value": 1
                    },
                    {
                        "number": 64,
                        "time": 384.15071341666936,
                        "value": 0
                    },
                    {
                        "number": 64,
                        "time": 385.2170096562527,
                        "value": 1
                    },
                    {
                        "number": 64,
                        "time": 386.49844500000273,
                        "value": 0
                    },
                    {
                        "number": 64,
                        "time": 387.04360331250274,
                        "value": 1
                    },
                    {
                        "number": 64,
                        "time": 388.0232172916694,
                        "value": 0
                    },
                    {
                        "number": 64,
                        "time": 388.2884858958361,
                        "value": 1
                    },
                    {
                        "number": 64,
                        "time": 389.02371856250284,
                        "value": 0
                    },
                    {
                        "number": 64,
                        "time": 389.10831209375283,
                        "value": 1
                    },
                    {
                        "number": 64,
                        "time": 390.0921035312528,
                        "value": 0
                    },
                    {
                        "number": 64,
                        "time": 391.03620911458614,
                        "value": 1
                    },
                    {
                        "number": 64,
                        "time": 392.03879911458614,
                        "value": 0
                    },
                    {
                        "number": 64,
                        "time": 393.0560102187528,
                        "value": 1
                    },
                    {
                        "number": 64,
                        "time": 394.0586002187528,
                        "value": 0
                    },
                    {
                        "number": 64,
                        "time": 395.0904324270861,
                        "value": 1
                    },
                    {
                        "number": 64,
                        "time": 396.0930224270861,
                        "value": 0
                    },
                    {
                        "number": 64,
                        "time": 397.06637021875275,
                        "value": 1
                    },
                    {
                        "number": 64,
                        "time": 398.06896021875275,
                        "value": 0
                    },
                    {
                        "number": 64,
                        "time": 399.0600622083361,
                        "value": 1
                    },
                    {
                        "number": 64,
                        "time": 400.06265220833615,
                        "value": 0
                    },
                    {
                        "number": 64,
                        "time": 401.07255276041946,
                        "value": 1
                    },
                    {
                        "number": 64,
                        "time": 402.05947729166945,
                        "value": 0
                    },
                    {
                        "number": 64,
                        "time": 407.0995807708361,
                        "value": 1
                    },
                    {
                        "number": 64,
                        "time": 408.0739729270861,
                        "value": 0
                    },
                    {
                        "number": 64,
                        "time": 413.1339193333361,
                        "value": 1
                    },
                    {
                        "number": 64,
                        "time": 414.0905572916695,
                        "value": 0
                    },
                    {
                        "number": 64,
                        "time": 414.18037264583614,
                        "value": 1
                    },
                    {
                        "number": 64,
                        "time": 415.08688110416955,
                        "value": 0
                    },
                    {
                        "number": 64,
                        "time": 415.1829626458362,
                        "value": 1
                    },
                    {
                        "number": 64,
                        "time": 416.0894711041696,
                        "value": 0
                    },
                    {
                        "number": 64,
                        "time": 416.20017375000293,
                        "value": 1
                    },
                    {
                        "number": 64,
                        "time": 417.08997237500296,
                        "value": 0
                    },
                    {
                        "number": 64,
                        "time": 417.21007430208624,
                        "value": 1
                    },
                    {
                        "number": 64,
                        "time": 418.1009172916696,
                        "value": 0
                    },
                    {
                        "number": 64,
                        "time": 418.17611154166957,
                        "value": 1
                    },
                    {
                        "number": 64,
                        "time": 419.09724110416965,
                        "value": 0
                    },
                    {
                        "number": 64,
                        "time": 419.186012093753,
                        "value": 1
                    },
                    {
                        "number": 64,
                        "time": 420.10191983333635,
                        "value": 0
                    },
                    {
                        "number": 64,
                        "time": 420.1812915416697,
                        "value": 1
                    },
                    {
                        "number": 64,
                        "time": 421.0982436458364,
                        "value": 0
                    },
                    {
                        "number": 64,
                        "time": 421.1985026458364,
                        "value": 1
                    },
                    {
                        "number": 64,
                        "time": 422.1112772916698,
                        "value": 0
                    },
                    {
                        "number": 64,
                        "time": 422.20109264583647,
                        "value": 1
                    },
                    {
                        "number": 64,
                        "time": 423.1013349166699,
                        "value": 0
                    },
                    {
                        "number": 64,
                        "time": 423.2256143020865,
                        "value": 1
                    },
                    {
                        "number": 64,
                        "time": 424.11645729166986,
                        "value": 0
                    },
                    {
                        "number": 64,
                        "time": 424.25013595833656,
                        "value": 1
                    },
                    {
                        "number": 64,
                        "time": 425.1096480104199,
                        "value": 0
                    },
                    {
                        "number": 64,
                        "time": 425.2976336354199,
                        "value": 1
                    },
                    {
                        "number": 64,
                        "time": 426.3148447395866,
                        "value": 0
                    },
                    {
                        "number": 64,
                        "time": 427.3174347395866,
                        "value": 1
                    },
                    {
                        "number": 64,
                        "time": 428.3200247395866,
                        "value": 0
                    },
                    {
                        "number": 64,
                        "time": 429.24115430208656,
                        "value": 1
                    },
                    {
                        "number": 64,
                        "time": 430.37637860416993,
                        "value": 0
                    },
                    {
                        "number": 64,
                        "time": 431.24633430208655,
                        "value": 1
                    },
                    {
                        "number": 64,
                        "time": 432.3230741875032,
                        "value": 0
                    },
                    {
                        "number": 64,
                        "time": 432.6583152187532,
                        "value": 1
                    },
                    {
                        "number": 64,
                        "time": 433.0896377916699,
                        "value": 0
                    },
                    {
                        "number": 64,
                        "time": 433.2086953541699,
                        "value": 1
                    },
                    {
                        "number": 64,
                        "time": 433.6379291979199,
                        "value": 0
                    },
                    {
                        "number": 64,
                        "time": 433.71834527083655,
                        "value": 1
                    },
                    {
                        "number": 64,
                        "time": 434.1423572916699,
                        "value": 0
                    },
                    {
                        "number": 64,
                        "time": 434.21650717708656,
                        "value": 1
                    },
                    {
                        "number": 64,
                        "time": 434.6258980937533,
                        "value": 0
                    },
                    {
                        "number": 64,
                        "time": 435.2253633645866,
                        "value": 1
                    },
                    {
                        "number": 64,
                        "time": 435.63684301041997,
                        "value": 0
                    },
                    {
                        "number": 64,
                        "time": 435.66086339583666,
                        "value": 1
                    },
                    {
                        "number": 64,
                        "time": 436.14753729167,
                        "value": 0
                    },
                    {
                        "number": 64,
                        "time": 436.20706607292,
                        "value": 1
                    },
                    {
                        "number": 64,
                        "time": 436.64883229167,
                        "value": 0
                    },
                    {
                        "number": 64,
                        "time": 437.26187430208665,
                        "value": 1
                    },
                    {
                        "number": 64,
                        "time": 437.64933356250333,
                        "value": 0
                    },
                    {
                        "number": 64,
                        "time": 437.71930598958664,
                        "value": 1
                    },
                    {
                        "number": 64,
                        "time": 438.14645110417,
                        "value": 0
                    },
                    {
                        "number": 64,
                        "time": 438.19449187500334,
                        "value": 1
                    },
                    {
                        "number": 64,
                        "time": 438.6529679270867,
                        "value": 0
                    },
                    {
                        "number": 64,
                        "time": 438.73233963542003,
                        "value": 1
                    },
                    {
                        "number": 64,
                        "time": 439.15217419792003,
                        "value": 0
                    },
                    {
                        "number": 64,
                        "time": 439.22423535417005,
                        "value": 1
                    },
                    {
                        "number": 64,
                        "time": 439.6513804687534,
                        "value": 0
                    },
                    {
                        "number": 64,
                        "time": 439.6952437812534,
                        "value": 1
                    },
                    {
                        "number": 64,
                        "time": 440.15163110417006,
                        "value": 0
                    },
                    {
                        "number": 64,
                        "time": 440.2236922604201,
                        "value": 1
                    },
                    {
                        "number": 64,
                        "time": 440.6623253854201,
                        "value": 0
                    },
                    {
                        "number": 64,
                        "time": 441.27223430208676,
                        "value": 1
                    },
                    {
                        "number": 64,
                        "time": 441.6565604687534,
                        "value": 0
                    },
                    {
                        "number": 64,
                        "time": 441.7181779791701,
                        "value": 1
                    },
                    {
                        "number": 64,
                        "time": 442.1630772916701,
                        "value": 0
                    },
                    {
                        "number": 64,
                        "time": 442.21216242708675,
                        "value": 1
                    },
                    {
                        "number": 64,
                        "time": 442.66959411458674,
                        "value": 0
                    },
                    {
                        "number": 64,
                        "time": 443.21370806250343,
                        "value": 1
                    },
                    {
                        "number": 64,
                        "time": 443.66696229167013,
                        "value": 0
                    },
                    {
                        "number": 64,
                        "time": 443.73275726042016,
                        "value": 1
                    },
                    {
                        "number": 64,
                        "time": 444.16512419792014,
                        "value": 0
                    },
                    {
                        "number": 64,
                        "time": 444.2424071770868,
                        "value": 1
                    },
                    {
                        "number": 64,
                        "time": 444.6726853854202,
                        "value": 0
                    },
                    {
                        "number": 64,
                        "time": 445.27528375000355,
                        "value": 1
                    },
                    {
                        "number": 64,
                        "time": 446.17030419792025,
                        "value": 0
                    },
                    {
                        "number": 64,
                        "time": 446.22669988542026,
                        "value": 1
                    },
                    {
                        "number": 64,
                        "time": 446.67264356250365,
                        "value": 0
                    },
                    {
                        "number": 64,
                        "time": 447.250177177087,
                        "value": 1
                    },
                    {
                        "number": 64,
                        "time": 447.6752335625037,
                        "value": 0
                    },
                    {
                        "number": 64,
                        "time": 447.70969759375373,
                        "value": 1
                    },
                    {
                        "number": 64,
                        "time": 448.17861729167043,
                        "value": 0
                    },
                    {
                        "number": 64,
                        "time": 448.2318798854204,
                        "value": 1
                    },
                    {
                        "number": 64,
                        "time": 448.67677919792044,
                        "value": 0
                    },
                    {
                        "number": 64,
                        "time": 449.25953463542044,
                        "value": 1
                    },
                    {
                        "number": 64,
                        "time": 450.18379729167043,
                        "value": 0
                    },
                    {
                        "number": 64,
                        "time": 450.26212463542043,
                        "value": 1
                    },
                    {
                        "number": 64,
                        "time": 450.5796114687538,
                        "value": 0
                    },
                    {
                        "number": 64,
                        "time": 451.24696043750384,
                        "value": 1
                    },
                    {
                        "number": 64,
                        "time": 452.18271110417055,
                        "value": 0
                    },
                    {
                        "number": 64,
                        "time": 452.24537297917055,
                        "value": 1
                    },
                    {
                        "number": 64,
                        "time": 452.61821113542055,
                        "value": 0
                    },
                    {
                        "number": 64,
                        "time": 453.26049535417053,
                        "value": 1
                    },
                    {
                        "number": 64,
                        "time": 454.1878911041706,
                        "value": 0
                    },
                    {
                        "number": 64,
                        "time": 454.2181776770873,
                        "value": 1
                    },
                    {
                        "number": 64,
                        "time": 454.63592351042064,
                        "value": 0
                    },
                    {
                        "number": 64,
                        "time": 455.2082353020873,
                        "value": 1
                    },
                    {
                        "number": 64,
                        "time": 456.1930711041707,
                        "value": 0
                    },
                    {
                        "number": 64,
                        "time": 456.247378062504,
                        "value": 1
                    },
                    {
                        "number": 64,
                        "time": 456.6202162187541,
                        "value": 0
                    },
                    {
                        "number": 64,
                        "time": 457.2844320937541,
                        "value": 1
                    },
                    {
                        "number": 64,
                        "time": 458.20033983333747,
                        "value": 0
                    },
                    {
                        "number": 64,
                        "time": 458.2348038645875,
                        "value": 1
                    },
                    {
                        "number": 64,
                        "time": 458.6410616875042,
                        "value": 0
                    },
                    {
                        "number": 64,
                        "time": 459.2269502187542,
                        "value": 1
                    },
                    {
                        "number": 64,
                        "time": 460.11779320833756,
                        "value": 0
                    },
                    {
                        "number": 64,
                        "time": 460.22745148958757,
                        "value": 1
                    },
                    {
                        "number": 64,
                        "time": 460.61595511458756,
                        "value": 0
                    },
                    {
                        "number": 64,
                        "time": 460.7120366562542,
                        "value": 1
                    },
                    {
                        "number": 64,
                        "time": 461.1235163020875,
                        "value": 0
                    },
                    {
                        "number": 64,
                        "time": 461.29688082292085,
                        "value": 1
                    },
                    {
                        "number": 64,
                        "time": 462.2033892812542,
                        "value": 0
                    },
                    {
                        "number": 64,
                        "time": 462.2597849687542,
                        "value": 1
                    },
                    {
                        "number": 64,
                        "time": 462.6326231250042,
                        "value": 0
                    },
                    {
                        "number": 64,
                        "time": 463.2352214895875,
                        "value": 1
                    },
                    {
                        "number": 64,
                        "time": 464.0978666354208,
                        "value": 0
                    },
                    {
                        "number": 64,
                        "time": 464.2733198854208,
                        "value": 1
                    },
                    {
                        "number": 64,
                        "time": 465.1568523229208,
                        "value": 0
                    },
                    {
                        "number": 64,
                        "time": 465.3208175625042,
                        "value": 1
                    },
                    {
                        "number": 64,
                        "time": 466.2137492812542,
                        "value": 0
                    },
                    {
                        "number": 64,
                        "time": 466.2993871770875,
                        "value": 1
                    },
                    {
                        "number": 64,
                        "time": 466.6461162187542,
                        "value": 0
                    },
                    {
                        "number": 64,
                        "time": 467.3019771770875,
                        "value": 1
                    },
                    {
                        "number": 64,
                        "time": 468.2095300000042,
                        "value": 0
                    },
                    {
                        "number": 64,
                        "time": 468.3170995520875,
                        "value": 1
                    },
                    {
                        "number": 64,
                        "time": 468.63354202083747,
                        "value": 0
                    },
                    {
                        "number": 64,
                        "time": 469.30715717708745,
                        "value": 1
                    },
                    {
                        "number": 64,
                        "time": 470.2147100000041,
                        "value": 0
                    },
                    {
                        "number": 64,
                        "time": 470.3222795520874,
                        "value": 1
                    },
                    {
                        "number": 64,
                        "time": 470.67318605208743,
                        "value": 0
                    },
                    {
                        "number": 64,
                        "time": 471.2862280625041,
                        "value": 1
                    },
                    {
                        "number": 64,
                        "time": 471.6131141770875,
                        "value": 0
                    },
                    {
                        "number": 64,
                        "time": 471.6663767708375,
                        "value": 1
                    },
                    {
                        "number": 64,
                        "time": 472.1206753645875,
                        "value": 0
                    },
                    {
                        "number": 64,
                        "time": 472.17184922917085,
                        "value": 1
                    },
                    {
                        "number": 64,
                        "time": 472.61674854167086,
                        "value": 0
                    },
                    {
                        "number": 64,
                        "time": 472.7086526250042,
                        "value": 1
                    },
                    {
                        "number": 64,
                        "time": 473.11595481250424,
                        "value": 0
                    },
                    {
                        "number": 64,
                        "time": 473.18801596875426,
                        "value": 1
                    },
                    {
                        "number": 64,
                        "time": 473.61933854167097,
                        "value": 0
                    },
                    {
                        "number": 64,
                        "time": 473.70393207292096,
                        "value": 1
                    },
                    {
                        "number": 64,
                        "time": 474.120633541671,
                        "value": 0
                    },
                    {
                        "number": 64,
                        "time": 474.21880381250435,
                        "value": 1
                    },
                    {
                        "number": 64,
                        "time": 474.62506163542105,
                        "value": 0
                    },
                    {
                        "number": 64,
                        "time": 474.6929453333377,
                        "value": 1
                    },
                    {
                        "number": 64,
                        "time": 475.1368002812544,
                        "value": 0
                    },
                    {
                        "number": 64,
                        "time": 475.24228110417107,
                        "value": 1
                    },
                    {
                        "number": 64,
                        "time": 475.69866842708774,
                        "value": 0
                    },
                    {
                        "number": 64,
                        "time": 476.2511372916711,
                        "value": 1
                    },
                    {
                        "number": 64,
                        "time": 476.6960366041711,
                        "value": 0
                    },
                    {
                        "number": 64,
                        "time": 477.2955018750045,
                        "value": 1
                    },
                    {
                        "number": 64,
                        "time": 477.70384842708785,
                        "value": 0
                    },
                    {
                        "number": 64,
                        "time": 478.2563172916712,
                        "value": 1
                    },
                    {
                        "number": 64,
                        "time": 478.70121660417124,
                        "value": 0
                    },
                    {
                        "number": 64,
                        "time": 479.32679098958795,
                        "value": 1
                    },
                    {
                        "number": 64,
                        "time": 480.25627546875467,
                        "value": 0
                    },
                    {
                        "number": 64,
                        "time": 480.373244302088,
                        "value": 1
                    },
                    {
                        "number": 64,
                        "time": 481.253643645838,
                        "value": 0
                    },
                    {
                        "number": 64,
                        "time": 481.3089949687547,
                        "value": 1
                    },
                    {
                        "number": 64,
                        "time": 483.2609123750047,
                        "value": 0
                    },
                    {
                        "number": 64,
                        "time": 483.3956354062547,
                        "value": 1
                    },
                    {
                        "number": 64,
                        "time": 485.27235856250473,
                        "value": 0
                    },
                    {
                        "number": 64,
                        "time": 485.3851499375047,
                        "value": 1
                    },
                    {
                        "number": 64,
                        "time": 487.2733611041714,
                        "value": 0
                    },
                    {
                        "number": 64,
                        "time": 487.3214018750047,
                        "value": 1
                    },
                    {
                        "number": 64,
                        "time": 489.27749673958806,
                        "value": 0
                    },
                    {
                        "number": 64,
                        "time": 489.3380698854214,
                        "value": 1
                    },
                    {
                        "number": 64,
                        "time": 491.2816323750048,
                        "value": 0
                    },
                    {
                        "number": 64,
                        "time": 491.3359393333381,
                        "value": 1
                    },
                    {
                        "number": 64,
                        "time": 492.28735546875475,
                        "value": 0
                    },
                    {
                        "number": 64,
                        "time": 492.3228638645881,
                        "value": 1
                    },
                    {
                        "number": 64,
                        "time": 493.2878567395881,
                        "value": 0
                    },
                    {
                        "number": 64,
                        "time": 493.33067568750477,
                        "value": 1
                    },
                    {
                        "number": 64,
                        "time": 494.29462419792145,
                        "value": 0
                    },
                    {
                        "number": 64,
                        "time": 494.3531086145881,
                        "value": 1
                    },
                    {
                        "number": 64,
                        "time": 495.29094801042146,
                        "value": 0
                    },
                    {
                        "number": 64,
                        "time": 495.3421218750048,
                        "value": 1
                    },
                    {
                        "number": 64,
                        "time": 496.2977154687548,
                        "value": 0
                    },
                    {
                        "number": 64,
                        "time": 496.35619988542146,
                        "value": 1
                    },
                    {
                        "number": 64,
                        "time": 497.2971723750048,
                        "value": 0
                    },
                    {
                        "number": 64,
                        "time": 497.35878988542146,
                        "value": 1
                    },
                    {
                        "number": 64,
                        "time": 498.3102060208381,
                        "value": 0
                    },
                    {
                        "number": 64,
                        "time": 498.3384038645881,
                        "value": 1
                    },
                    {
                        "number": 64,
                        "time": 499.30339673958815,
                        "value": 0
                    },
                    {
                        "number": 64,
                        "time": 499.35665933333814,
                        "value": 1
                    },
                    {
                        "number": 64,
                        "time": 500.31016419792144,
                        "value": 0
                    },
                    {
                        "number": 64,
                        "time": 500.3435838645881,
                        "value": 1
                    },
                    {
                        "number": 64,
                        "time": 501.3085767395881,
                        "value": 0
                    },
                    {
                        "number": 64,
                        "time": 501.35139568750475,
                        "value": 1
                    },
                    {
                        "number": 64,
                        "time": 502.3163885625048,
                        "value": 0
                    },
                    {
                        "number": 64,
                        "time": 502.37382861458815,
                        "value": 1
                    },
                    {
                        "number": 64,
                        "time": 503.30853491667153,
                        "value": 0
                    },
                    {
                        "number": 64,
                        "time": 503.3952171770882,
                        "value": 1
                    },
                    {
                        "number": 64,
                        "time": 505.31684801042155,
                        "value": 0
                    },
                    {
                        "number": 64,
                        "time": 505.4066633645882,
                        "value": 1
                    },
                    {
                        "number": 64,
                        "time": 507.32307237500487,
                        "value": 0
                    },
                    {
                        "number": 64,
                        "time": 507.37633496875486,
                        "value": 1
                    },
                    {
                        "number": 64,
                        "time": 509.32825237500487,
                        "value": 0
                    },
                    {
                        "number": 64,
                        "time": 509.45253176042155,
                        "value": 1
                    },
                    {
                        "number": 64,
                        "time": 511.34178729167155,
                        "value": 0
                    },
                    {
                        "number": 64,
                        "time": 511.46084485417157,
                        "value": 1
                    },
                    {
                        "number": 64,
                        "time": 512.3443772916715,
                        "value": 0
                    },
                    {
                        "number": 64,
                        "time": 512.5072981666716,
                        "value": 1
                    },
                    {
                        "number": 64,
                        "time": 513.3396567395882,
                        "value": 0
                    },
                    {
                        "number": 64,
                        "time": 513.4733354062549,
                        "value": 1
                    },
                    {
                        "number": 64,
                        "time": 514.3506016562549,
                        "value": 0
                    },
                    {
                        "number": 64,
                        "time": 514.4393726458381,
                        "value": 1
                    },
                    {
                        "number": 64,
                        "time": 515.3469254687548,
                        "value": 0
                    },
                    {
                        "number": 64,
                        "time": 515.4492731979215,
                        "value": 1
                    },
                    {
                        "number": 64,
                        "time": 516.3547372916714,
                        "value": 0
                    },
                    {
                        "number": 64,
                        "time": 516.4591737500048,
                        "value": 1
                    },
                    {
                        "number": 64,
                        "time": 517.3583716562548,
                        "value": 0
                    },
                    {
                        "number": 64,
                        "time": 517.4617637500048,
                        "value": 1
                    },
                    {
                        "number": 64,
                        "time": 519.3551967395882,
                        "value": 0
                    },
                    {
                        "number": 64,
                        "time": 519.4596331979216,
                        "value": 1
                    },
                    {
                        "number": 64,
                        "time": 521.3603767395882,
                        "value": 0
                    },
                    {
                        "number": 64,
                        "time": 521.4836117604216,
                        "value": 1
                    },
                    {
                        "number": 64,
                        "time": 523.3624236458382,
                        "value": 0
                    },
                    {
                        "number": 64,
                        "time": 523.4846143020883,
                        "value": 1
                    },
                    {
                        "number": 64,
                        "time": 525.3717811041715,
                        "value": 0
                    },
                    {
                        "number": 64,
                        "time": 525.4897943020882,
                        "value": 1
                    },
                    {
                        "number": 64,
                        "time": 527.3759167395881,
                        "value": 0
                    },
                    {
                        "number": 64,
                        "time": 527.5628580000048,
                        "value": 1
                    },
                    {
                        "number": 64,
                        "time": 528.3774623750047,
                        "value": 0
                    },
                    {
                        "number": 64,
                        "time": 528.6709288229214,
                        "value": 1
                    },
                    {
                        "number": 64,
                        "time": 529.3863185625047,
                        "value": 0
                    },
                    {
                        "number": 64,
                        "time": 529.5408845208381,
                        "value": 1
                    },
                    {
                        "number": 64,
                        "time": 530.3774205520881,
                        "value": 0
                    },
                    {
                        "number": 64,
                        "time": 531.6860093750048,
                        "value": 1
                    },
                    {
                        "number": 64,
                        "time": 532.3961772916715,
                        "value": 0
                    },
                    {
                        "number": 64,
                        "time": 532.6541353437549,
                        "value": 1
                    },
                    {
                        "number": 64,
                        "time": 533.3935454687548,
                        "value": 0
                    },
                    {
                        "number": 64,
                        "time": 533.5512445208382,
                        "value": 1
                    },
                    {
                        "number": 64,
                        "time": 534.4138896666715,
                        "value": 0
                    },
                    {
                        "number": 64,
                        "time": 537.3882400000049,
                        "value": 0
                    },
                    {
                        "number": 64,
                        "time": 537.4717891666716,
                        "value": 1
                    },
                    {
                        "number": 64,
                        "time": 538.4085841979216,
                        "value": 0
                    },
                    {
                        "number": 64,
                        "time": 538.7803779895883,
                        "value": 1
                    },
                    {
                        "number": 64,
                        "time": 539.4101298333383,
                        "value": 0
                    },
                    {
                        "number": 64,
                        "time": 539.5667845208383,
                        "value": 1
                    },
                    {
                        "number": 64,
                        "time": 540.3552797812549,
                        "value": 0
                    },
                    {
                        "number": 64,
                        "time": 540.959966875005,
                        "value": 1
                    },
                    {
                        "number": 64,
                        "time": 541.4132211041716,
                        "value": 0
                    },
                    {
                        "number": 64,
                        "time": 541.5656983333383,
                        "value": 1
                    },
                    {
                        "number": 64,
                        "time": 542.4126780104217,
                        "value": 0
                    },
                    {
                        "number": 64,
                        "time": 542.7635845104217,
                        "value": 1
                    },
                    {
                        "number": 64,
                        "time": 543.4204898333384,
                        "value": 0
                    },
                    {
                        "number": 64,
                        "time": 543.5771445208384,
                        "value": 1
                    },
                    {
                        "number": 64,
                        "time": 544.678949156255,
                        "value": 0
                    },
                    {
                        "number": 64,
                        "time": 545.5207070104218,
                        "value": 1
                    },
                    {
                        "number": 64,
                        "time": 546.4303485625052,
                        "value": 0
                    },
                    {
                        "number": 64,
                        "time": 546.8846471562551,
                        "value": 1
                    },
                    {
                        "number": 64,
                        "time": 547.4329385625051,
                        "value": 0
                    },
                    {
                        "number": 64,
                        "time": 547.5582623125051,
                        "value": 1
                    },
                    {
                        "number": 64,
                        "time": 548.3582455833384,
                        "value": 0
                    },
                    {
                        "number": 64,
                        "time": 548.9806868750052,
                        "value": 1
                    },
                    {
                        "number": 64,
                        "time": 549.4287192812552,
                        "value": 0
                    },
                    {
                        "number": 64,
                        "time": 549.6417696562552,
                        "value": 1
                    },
                    {
                        "number": 64,
                        "time": 550.4333980104218,
                        "value": 0
                    },
                    {
                        "number": 64,
                        "time": 550.8396558333385,
                        "value": 1
                    },
                    {
                        "number": 64,
                        "time": 551.4391211041718,
                        "value": 0
                    },
                    {
                        "number": 64,
                        "time": 551.5759328645885,
                        "value": 1
                    },
                    {
                        "number": 64,
                        "time": 552.5889665104218,
                        "value": 0
                    },
                    {
                        "number": 64,
                        "time": 553.4965193333384,
                        "value": 1
                    },
                    {
                        "number": 64,
                        "time": 554.4991093333384,
                        "value": 0
                    },
                    {
                        "number": 64,
                        "time": 555.4933444166718,
                        "value": 1
                    },
                    {
                        "number": 64,
                        "time": 556.4959344166718,
                        "value": 0
                    },
                    {
                        "number": 64,
                        "time": 556.9752977604218,
                        "value": 1
                    },
                    {
                        "number": 64,
                        "time": 558.5240904375052,
                        "value": 0
                    },
                    {
                        "number": 64,
                        "time": 559.1204226145885,
                        "value": 1
                    },
                    {
                        "number": 64,
                        "time": 559.4567080104218,
                        "value": 0
                    },
                    {
                        "number": 64,
                        "time": 559.6373830833385,
                        "value": 1
                    },
                    {
                        "number": 64,
                        "time": 560.5146493333384,
                        "value": 0
                    },
                    {
                        "number": 64,
                        "time": 561.0598076458385,
                        "value": 1
                    },
                    {
                        "number": 64,
                        "time": 561.4577105520885,
                        "value": 0
                    },
                    {
                        "number": 64,
                        "time": 561.6498736354218,
                        "value": 1
                    },
                    {
                        "number": 64,
                        "time": 562.4937202187552,
                        "value": 0
                    },
                    {
                        "number": 64,
                        "time": 563.0869193020886,
                        "value": 1
                    },
                    {
                        "number": 64,
                        "time": 563.4649792812553,
                        "value": 0
                    },
                    {
                        "number": 64,
                        "time": 563.7500908125053,
                        "value": 1
                    },
                    {
                        "number": 64,
                        "time": 564.5542515416719,
                        "value": 0
                    },
                    {
                        "number": 64,
                        "time": 565.0555465416719,
                        "value": 1
                    },
                    {
                        "number": 64,
                        "time": 566.5667420937552,
                        "value": 0
                    },
                    {
                        "number": 64,
                        "time": 567.1045898541719,
                        "value": 1
                    },
                    {
                        "number": 64,
                        "time": 567.4753392812552,
                        "value": 0
                    },
                    {
                        "number": 64,
                        "time": 567.7750719166719,
                        "value": 1
                    },
                    {
                        "number": 64,
                        "time": 568.5270144166719,
                        "value": 0
                    },
                    {
                        "number": 64,
                        "time": 569.0136883125052,
                        "value": 1
                    },
                    {
                        "number": 64,
                        "time": 570.5102627604218,
                        "value": 0
                    },
                    {
                        "number": 64,
                        "time": 571.1045062083384,
                        "value": 1
                    },
                    {
                        "number": 64,
                        "time": 571.4867436458384,
                        "value": 0
                    },
                    {
                        "number": 64,
                        "time": 571.5943131979217,
                        "value": 1
                    },
                    {
                        "number": 64,
                        "time": 572.488289281255,
                        "value": 0
                    },
                    {
                        "number": 64,
                        "time": 572.6376334166716,
                        "value": 1
                    },
                    {
                        "number": 64,
                        "time": 573.4992341979216,
                        "value": 0
                    },
                    {
                        "number": 64,
                        "time": 573.5921826458383,
                        "value": 1
                    },
                    {
                        "number": 64,
                        "time": 574.5101791145883,
                        "value": 0
                    },
                    {
                        "number": 64,
                        "time": 575.5159022083383,
                        "value": 1
                    },
                    {
                        "number": 64,
                        "time": 576.501782375005,
                        "value": 0
                    },
                    {
                        "number": 64,
                        "time": 576.5811540833383,
                        "value": 1
                    },
                    {
                        "number": 64,
                        "time": 577.5022836458384,
                        "value": 0
                    },
                    {
                        "number": 64,
                        "time": 577.6317848541717,
                        "value": 1
                    },
                    {
                        "number": 64,
                        "time": 578.5205391145882,
                        "value": 0
                    },
                    {
                        "number": 64,
                        "time": 587.7401896562552,
                        "value": 1
                    },
                    {
                        "number": 64,
                        "time": 588.5412172916718,
                        "value": 0
                    },
                    {
                        "number": 64,
                        "time": 588.9380758333385,
                        "value": 1
                    },
                    {
                        "number": 64,
                        "time": 589.5438072916719,
                        "value": 0
                    },
                    {
                        "number": 64,
                        "time": 589.6691310416719,
                        "value": 1
                    },
                    {
                        "number": 64,
                        "time": 590.5328205520887,
                        "value": 0
                    },
                    {
                        "number": 64,
                        "time": 591.050825385422,
                        "value": 1
                    },
                    {
                        "number": 64,
                        "time": 591.423663541672,
                        "value": 0
                    },
                    {
                        "number": 64,
                        "time": 591.608516072922,
                        "value": 1
                    },
                    {
                        "number": 64,
                        "time": 591.915559260422,
                        "value": 0
                    },
                    {
                        "number": 64,
                        "time": 592.112944166672,
                        "value": 1
                    },
                    {
                        "number": 64,
                        "time": 592.4314753645887,
                        "value": 0
                    },
                    {
                        "number": 64,
                        "time": 592.6413926458387,
                        "value": 1
                    },
                    {
                        "number": 64,
                        "time": 592.924415447922,
                        "value": 0
                    },
                    {
                        "number": 64,
                        "time": 593.124933447922,
                        "value": 1
                    },
                    {
                        "number": 64,
                        "time": 593.4528639270886,
                        "value": 0
                    },
                    {
                        "number": 64,
                        "time": 593.616829166672,
                        "value": 1
                    },
                    {
                        "number": 64,
                        "time": 593.9259610833387,
                        "value": 0
                    },
                    {
                        "number": 64,
                        "time": 594.1327452708387,
                        "value": 1
                    },
                    {
                        "number": 64,
                        "time": 594.4345666354219,
                        "value": 0
                    },
                    {
                        "number": 64,
                        "time": 594.6100198854219,
                        "value": 1
                    },
                    {
                        "number": 64,
                        "time": 594.932728541672,
                        "value": 0
                    },
                    {
                        "number": 64,
                        "time": 595.6710943020887,
                        "value": 1
                    },
                    {
                        "number": 64,
                        "time": 596.561937291672,
                        "value": 0
                    },
                    {
                        "number": 64,
                        "time": 596.9305979895887,
                        "value": 1
                    },
                    {
                        "number": 64,
                        "time": 597.5634829270887,
                        "value": 0
                    },
                    {
                        "number": 64,
                        "time": 597.7055165104221,
                        "value": 1
                    },
                    {
                        "number": 64,
                        "time": 598.5420525416721,
                        "value": 0
                    },
                    {
                        "number": 64,
                        "time": 599.102876322922,
                        "value": 1
                    },
                    {
                        "number": 64,
                        "time": 599.4318511666721,
                        "value": 0
                    },
                    {
                        "number": 64,
                        "time": 599.7044303229221,
                        "value": 1
                    },
                    {
                        "number": 64,
                        "time": 599.9456785416721,
                        "value": 0
                    },
                    {
                        "number": 64,
                        "time": 600.1994591354221,
                        "value": 1
                    },
                    {
                        "number": 64,
                        "time": 600.4438404479222,
                        "value": 0
                    },
                    {
                        "number": 64,
                        "time": 600.4532397291722,
                        "value": 0
                    },
                    {
                        "number": 64,
                        "time": 600.7007541354221,
                        "value": 1
                    },
                    {
                        "number": 64,
                        "time": 600.9514016354221,
                        "value": 0
                    },
                    {
                        "number": 64,
                        "time": 601.1717625625055,
                        "value": 1
                    },
                    {
                        "number": 64,
                        "time": 601.4495635416721,
                        "value": 0
                    },
                    {
                        "number": 64,
                        "time": 601.6469484479221,
                        "value": 1
                    },
                    {
                        "number": 64,
                        "time": 601.9571247291722,
                        "value": 0
                    },
                    {
                        "number": 64,
                        "time": 602.1806187500055,
                        "value": 1
                    },
                    {
                        "number": 64,
                        "time": 602.4417098958388,
                        "value": 0
                    },
                    {
                        "number": 64,
                        "time": 602.6578933645889,
                        "value": 1
                    },
                    {
                        "number": 64,
                        "time": 602.9565816354221,
                        "value": 0
                    },
                    {
                        "number": 64,
                        "time": 603.5811116562555,
                        "value": 1
                    },
                    {
                        "number": 64,
                        "time": 604.5837016562555,
                        "value": 0
                    },
                    {
                        "number": 64,
                        "time": 605.5758480104222,
                        "value": 1
                    },
                    {
                        "number": 64,
                        "time": 606.5784380104221,
                        "value": 0
                    },
                    {
                        "number": 64,
                        "time": 607.1194188645889,
                        "value": 1
                    },
                    {
                        "number": 64,
                        "time": 608.6128602187556,
                        "value": 0
                    },
                    {
                        "number": 64,
                        "time": 608.8227775000056,
                        "value": 1
                    },
                    {
                        "number": 64,
                        "time": 609.080735552089,
                        "value": 0
                    },
                    {
                        "number": 64,
                        "time": 609.1726396354223,
                        "value": 1
                    },
                    {
                        "number": 64,
                        "time": 609.5872523750056,
                        "value": 0
                    },
                    {
                        "number": 64,
                        "time": 609.6958662916722,
                        "value": 1
                    },
                    {
                        "number": 64,
                        "time": 610.6065522083389,
                        "value": 0
                    },
                    {
                        "number": 64,
                        "time": 611.6237633125056,
                        "value": 1
                    },
                    {
                        "number": 64,
                        "time": 612.6263533125056,
                        "value": 0
                    },
                    {
                        "number": 64,
                        "time": 613.6404313229223,
                        "value": 1
                    },
                    {
                        "number": 64,
                        "time": 614.6137791145889,
                        "value": 0
                    },
                    {
                        "number": 64,
                        "time": 615.1328283125055,
                        "value": 1
                    },
                    {
                        "number": 64,
                        "time": 616.6294027604222,
                        "value": 0
                    },
                    {
                        "number": 64,
                        "time": 616.8769171666721,
                        "value": 1
                    },
                    {
                        "number": 64,
                        "time": 617.0983224583388,
                        "value": 0
                    },
                    {
                        "number": 64,
                        "time": 617.1860490833387,
                        "value": 1
                    },
                    {
                        "number": 64,
                        "time": 617.6079723750054,
                        "value": 0
                    },
                    {
                        "number": 64,
                        "time": 617.7426954062554,
                        "value": 1
                    },
                    {
                        "number": 64,
                        "time": 618.6241391145887,
                        "value": 0
                    },
                    {
                        "number": 64,
                        "time": 619.154676322922,
                        "value": 1
                    },
                    {
                        "number": 64,
                        "time": 619.6152411041719,
                        "value": 0
                    },
                    {
                        "number": 64,
                        "time": 619.8324689375053,
                        "value": 1
                    },
                    {
                        "number": 64,
                        "time": 620.6543838645887,
                        "value": 0
                    },
                    {
                        "number": 64,
                        "time": 621.1890985312554,
                        "value": 1
                    },
                    {
                        "number": 64,
                        "time": 621.617288010422,
                        "value": 0
                    },
                    {
                        "number": 64,
                        "time": 621.745744854172,
                        "value": 1
                    },
                    {
                        "number": 64,
                        "time": 622.6219667395886,
                        "value": 0
                    },
                    {
                        "number": 64,
                        "time": 622.7117820937553,
                        "value": 1
                    },
                    {
                        "number": 64,
                        "time": 623.625601104172,
                        "value": 0
                    },
                    {
                        "number": 64,
                        "time": 623.7582354062554,
                        "value": 1
                    },
                    {
                        "number": 64,
                        "time": 624.7200951875054,
                        "value": 0
                    },
                    {
                        "number": 64,
                        "time": 625.6861324270888,
                        "value": 1
                    },
                    {
                        "number": 64,
                        "time": 626.6312823750054,
                        "value": 0
                    },
                    {
                        "number": 64,
                        "time": 627.7174215416721,
                        "value": 1
                    },
                    {
                        "number": 64,
                        "time": 628.6448172916721,
                        "value": 0
                    },
                    {
                        "number": 64,
                        "time": 629.6745607708389,
                        "value": 1
                    },
                    {
                        "number": 64,
                        "time": 630.6771507708389,
                        "value": 0
                    },
                    {
                        "number": 64,
                        "time": 631.6578091145889,
                        "value": 1
                    },
                    {
                        "number": 64,
                        "time": 632.6603991145888,
                        "value": 0
                    },
                    {
                        "number": 64,
                        "time": 633.6629891145888,
                        "value": 1
                    },
                    {
                        "number": 64,
                        "time": 634.6655791145887,
                        "value": 0
                    },
                    {
                        "number": 64,
                        "time": 635.6493705520887,
                        "value": 1
                    },
                    {
                        "number": 64,
                        "time": 636.6519605520888,
                        "value": 0
                    },
                    {
                        "number": 64,
                        "time": 637.6952807708388,
                        "value": 1
                    },
                    {
                        "number": 64,
                        "time": 638.6613180104222,
                        "value": 0
                    },
                    {
                        "number": 64,
                        "time": 639.6858396666722,
                        "value": 1
                    },
                    {
                        "number": 64,
                        "time": 640.6769416562555,
                        "value": 0
                    },
                    {
                        "number": 64,
                        "time": 641.6868422083389,
                        "value": 1
                    },
                    {
                        "number": 64,
                        "time": 642.6831660208389,
                        "value": 0
                    },
                    {
                        "number": 64,
                        "time": 643.7588615416723,
                        "value": 1
                    },
                    {
                        "number": 64,
                        "time": 645.6773592812558,
                        "value": 0
                    },
                    {
                        "number": 64,
                        "time": 645.8590787187558,
                        "value": 1
                    },
                    {
                        "number": 64,
                        "time": 647.6846280104226,
                        "value": 0
                    },
                    {
                        "number": 64,
                        "time": 647.8496376145893,
                        "value": 1
                    },
                    {
                        "number": 64,
                        "time": 649.678320000006,
                        "value": 0
                    },
                    {
                        "number": 64,
                        "time": 649.797377562506,
                        "value": 1
                    },
                    {
                        "number": 64,
                        "time": 650.7017972916726,
                        "value": 0
                    },
                    {
                        "number": 64,
                        "time": 650.9430455104226,
                        "value": 1
                    },
                    {
                        "number": 64,
                        "time": 651.6939436458393,
                        "value": 0
                    },
                    {
                        "number": 64,
                        "time": 651.7754040833394,
                        "value": 1
                    },
                    {
                        "number": 64,
                        "time": 653.6970349166728,
                        "value": 0
                    },
                    {
                        "number": 64,
                        "time": 654.0228766666728,
                        "value": 1
                    },
                    {
                        "number": 64,
                        "time": 655.7063923750062,
                        "value": 0
                    },
                    {
                        "number": 64,
                        "time": 655.8484259583396,
                        "value": 1
                    },
                    {
                        "number": 64,
                        "time": 657.7094836458397,
                        "value": 0
                    },
                    {
                        "number": 64,
                        "time": 657.7690124270897,
                        "value": 1
                    },
                    {
                        "number": 64,
                        "time": 659.7157080104231,
                        "value": 0
                    },
                    {
                        "number": 64,
                        "time": 659.8629634166731,
                        "value": 1
                    },
                    {
                        "number": 64,
                        "time": 661.7094000000066,
                        "value": 0
                    },
                    {
                        "number": 64,
                        "time": 661.9715355104232,
                        "value": 1
                    },
                    {
                        "number": 64,
                        "time": 662.7349660208399,
                        "value": 0
                    },
                    {
                        "number": 64,
                        "time": 662.9741255104233,
                        "value": 1
                    },
                    {
                        "number": 64,
                        "time": 663.72815673959,
                        "value": 0
                    },
                    {
                        "number": 64,
                        "time": 663.82841573959,
                        "value": 1
                    },
                    {
                        "number": 64,
                        "time": 665.7197600000068,
                        "value": 0
                    },
                    {
                        "number": 64,
                        "time": 665.9348991041734,
                        "value": 1
                    },
                    {
                        "number": 64,
                        "time": 666.7432372916734,
                        "value": 0
                    },
                    {
                        "number": 64,
                        "time": 667.00850589584,
                        "value": 1
                    },
                    {
                        "number": 64,
                        "time": 667.7385167395901,
                        "value": 0
                    },
                    {
                        "number": 64,
                        "time": 667.8868165104234,
                        "value": 1
                    },
                    {
                        "number": 64,
                        "time": 669.7426523750067,
                        "value": 0
                    },
                    {
                        "number": 64,
                        "time": 669.9452591041734,
                        "value": 1
                    },
                    {
                        "number": 64,
                        "time": 670.7535972916734,
                        "value": 0
                    },
                    {
                        "number": 64,
                        "time": 670.9227843541734,
                        "value": 1
                    },
                    {
                        "number": 64,
                        "time": 671.7353000000068,
                        "value": 0
                    },
                    {
                        "number": 64,
                        "time": 671.9932580520901,
                        "value": 1
                    },
                    {
                        "number": 64,
                        "time": 672.7441561875069,
                        "value": 0
                    },
                    {
                        "number": 64,
                        "time": 673.7770327604235,
                        "value": 1
                    },
                    {
                        "number": 64,
                        "time": 674.7524692812568,
                        "value": 0
                    },
                    {
                        "number": 64,
                        "time": 675.7895233125068,
                        "value": 1
                    },
                    {
                        "number": 64,
                        "time": 676.7576492812569,
                        "value": 0
                    },
                    {
                        "number": 64,
                        "time": 677.791570218757,
                        "value": 1
                    },
                    {
                        "number": 64,
                        "time": 678.7743172916737,
                        "value": 0
                    },
                    {
                        "number": 64,
                        "time": 679.8949204895904,
                        "value": 1
                    },
                    {
                        "number": 64,
                        "time": 681.2995908541739,
                        "value": 0
                    },
                    {
                        "number": 64,
                        "time": 681.9512743541738,
                        "value": 1
                    },
                    {
                        "number": 64,
                        "time": 682.2750273750072,
                        "value": 0
                    },
                    {
                        "number": 64,
                        "time": 682.4003511250072,
                        "value": 1
                    },
                    {
                        "number": 64,
                        "time": 682.7846772916739,
                        "value": 0
                    },
                    {
                        "number": 64,
                        "time": 682.9883283854239,
                        "value": 1
                    },
                    {
                        "number": 64,
                        "time": 683.2807504687571,
                        "value": 0
                    },
                    {
                        "number": 64,
                        "time": 683.4029411250071,
                        "value": 1
                    },
                    {
                        "number": 64,
                        "time": 683.7778680104238,
                        "value": 0
                    },
                    {
                        "number": 64,
                        "time": 683.8843931979238,
                        "value": 1
                    },
                    {
                        "number": 64,
                        "time": 684.7804580104239,
                        "value": 0
                    },
                    {
                        "number": 64,
                        "time": 685.8122902187573,
                        "value": 1
                    },
                    {
                        "number": 64,
                        "time": 687.2754450000074,
                        "value": 0
                    },
                    {
                        "number": 64,
                        "time": 687.8884870104241,
                        "value": 1
                    },
                    {
                        "number": 64,
                        "time": 689.2806250000075,
                        "value": 0
                    },
                    {
                        "number": 64,
                        "time": 689.8153396666742,
                        "value": 1
                    },
                    {
                        "number": 64,
                        "time": 690.3009691979242,
                        "value": 0
                    },
                    {
                        "number": 64,
                        "time": 690.4732893541742,
                        "value": 1
                    },
                    {
                        "number": 64,
                        "time": 690.8001754687575,
                        "value": 0
                    },
                    {
                        "number": 64,
                        "time": 690.9004344687576,
                        "value": 1
                    },
                    {
                        "number": 64,
                        "time": 691.2972930104243,
                        "value": 0
                    },
                    {
                        "number": 64,
                        "time": 691.493633552091,
                        "value": 1
                    },
                    {
                        "number": 64,
                        "time": 691.8006767395909,
                        "value": 0
                    },
                    {
                        "number": 64,
                        "time": 691.9489765104242,
                        "value": 1
                    },
                    {
                        "number": 64,
                        "time": 692.8105772916742,
                        "value": 0
                    },
                    {
                        "number": 64,
                        "time": 693.9802656250076,
                        "value": 1
                    },
                    {
                        "number": 64,
                        "time": 695.2335031250077,
                        "value": 0
                    },
                    {
                        "number": 64,
                        "time": 695.8308796666744,
                        "value": 1
                    },
                    {
                        "number": 64,
                        "time": 697.8224829270912,
                        "value": 0
                    },
                    {
                        "number": 64,
                        "time": 697.8914109895912,
                        "value": 1
                    },
                    {
                        "number": 64,
                        "time": 698.8971340833413,
                        "value": 0
                    },
                    {
                        "number": 64,
                        "time": 699.848550218758,
                        "value": 1
                    },
                    {
                        "number": 64,
                        "time": 700.9691534166747,
                        "value": 0
                    },
                    {
                        "number": 64,
                        "time": 702.035449656258,
                        "value": 1
                    },
                    {
                        "number": 64,
                        "time": 703.3168850000081,
                        "value": 0
                    },
                    {
                        "number": 64,
                        "time": 703.8620433125081,
                        "value": 1
                    },
                    {
                        "number": 64,
                        "time": 705.8348480104249,
                        "value": 0
                    },
                    {
                        "number": 64,
                        "time": 705.9413731979249,
                        "value": 1
                    },
                    {
                        "number": 64,
                        "time": 706.9105435312582,
                        "value": 0
                    },
                    {
                        "number": 64,
                        "time": 707.8546491145916,
                        "value": 1
                    },
                    {
                        "number": 64,
                        "time": 708.8572391145915,
                        "value": 0
                    },
                    {
                        "number": 64,
                        "time": 709.8744502187582,
                        "value": 1
                    },
                    {
                        "number": 64,
                        "time": 710.8770402187582,
                        "value": 0
                    },
                    {
                        "number": 64,
                        "time": 711.9088724270916,
                        "value": 1
                    },
                    {
                        "number": 64,
                        "time": 712.9114624270917,
                        "value": 0
                    },
                    {
                        "number": 64,
                        "time": 713.880632760425,
                        "value": 1
                    },
                    {
                        "number": 64,
                        "time": 714.8832227604249,
                        "value": 0
                    },
                    {
                        "number": 64,
                        "time": 719.9076607708417,
                        "value": 1
                    },
                    {
                        "number": 64,
                        "time": 720.9102507708418,
                        "value": 0
                    },
                    {
                        "number": 64,
                        "time": 726.0976096562586,
                        "value": 1
                    },
                    {
                        "number": 64,
                        "time": 728.2563112500086,
                        "value": 0
                    },
                    {
                        "number": 64,
                        "time": 730.2479145104253,
                        "value": 1
                    },
                    {
                        "number": 64,
                        "time": 732.1350813125086,
                        "value": 0
                    },
                    {
                        "number": 64,
                        "time": 733.9439207708419,
                        "value": 1
                    },
                    {
                        "number": 64,
                        "time": 734.946510770842,
                        "value": 0
                    },
                    {
                        "number": 64,
                        "time": 735.927169114592,
                        "value": 1
                    },
                    {
                        "number": 64,
                        "time": 736.9297591145919,
                        "value": 0
                    },
                    {
                        "number": 64,
                        "time": 737.9323491145918,
                        "value": 1
                    },
                    {
                        "number": 64,
                        "time": 738.4701968750085,
                        "value": 0
                    },
                    {
                        "number": 64,
                        "time": 738.9641813229251,
                        "value": 1
                    },
                    {
                        "number": 64,
                        "time": 739.4769643333417,
                        "value": 0
                    },
                    {
                        "number": 64,
                        "time": 739.9375291145917,
                        "value": 1
                    },
                    {
                        "number": 64,
                        "time": 740.4753768750084,
                        "value": 0
                    },
                    {
                        "number": 64,
                        "time": 740.969361322925,
                        "value": 1
                    },
                    {
                        "number": 64,
                        "time": 741.4821443333416,
                        "value": 0
                    },
                    {
                        "number": 64,
                        "time": 741.9677738645917,
                        "value": 1
                    },
                    {
                        "number": 64,
                        "time": 743.9343123750084,
                        "value": 0
                    },
                    {
                        "number": 64,
                        "time": 743.9844418750084,
                        "value": 1
                    },
                    {
                        "number": 64,
                        "time": 745.9426254687585,
                        "value": 0
                    },
                    {
                        "number": 64,
                        "time": 746.0710823125085,
                        "value": 1
                    },
                    {
                        "number": 64,
                        "time": 746.5274696354251,
                        "value": 0
                    },
                    {
                        "number": 64,
                        "time": 746.944171104175,
                        "value": 1
                    },
                    {
                        "number": 64,
                        "time": 747.5488581979249,
                        "value": 0
                    },
                    {
                        "number": 64,
                        "time": 747.943628010425,
                        "value": 1
                    },
                    {
                        "number": 64,
                        "time": 748.4699877604249,
                        "value": 0
                    },
                    {
                        "number": 64,
                        "time": 748.9785933125082,
                        "value": 1
                    },
                    {
                        "number": 64,
                        "time": 749.4694446666749,
                        "value": 0
                    },
                    {
                        "number": 64,
                        "time": 749.9926713229249,
                        "value": 1
                    },
                    {
                        "number": 64,
                        "time": 751.9571211041749,
                        "value": 0
                    },
                    {
                        "number": 64,
                        "time": 752.3602458333415,
                        "value": 1
                    },
                    {
                        "number": 64,
                        "time": 753.9602123750082,
                        "value": 0
                    },
                    {
                        "number": 64,
                        "time": 754.0615157395915,
                        "value": 1
                    },
                    {
                        "number": 64,
                        "time": 757.9747498333418,
                        "value": 0
                    },
                    {
                        "number": 64,
                        "time": 758.3757858333418,
                        "value": 1
                    },
                    {
                        "number": 64,
                        "time": 759.9726192812584,
                        "value": 0
                    },
                    {
                        "number": 64,
                        "time": 760.3527679895917,
                        "value": 1
                    },
                    {
                        "number": 64,
                        "time": 761.9757105520918,
                        "value": 0
                    },
                    {
                        "number": 64,
                        "time": 762.0153964062584,
                        "value": 1
                    },
                    {
                        "number": 64,
                        "time": 763.3542718020918,
                        "value": 0
                    },
                    {
                        "number": 64,
                        "time": 764.0247538645918,
                        "value": 1
                    },
                    {
                        "number": 64,
                        "time": 765.1202923125086,
                        "value": 0
                    },
                    {
                        "number": 64,
                        "time": 766.0257564062586,
                        "value": 1
                    },
                    {
                        "number": 64,
                        "time": 767.3646318020919,
                        "value": 0
                    },
                    {
                        "number": 64,
                        "time": 768.0246702187586,
                        "value": 1
                    },
                    {
                        "number": 64,
                        "time": 769.3812998125087,
                        "value": 0
                    },
                    {
                        "number": 64,
                        "time": 770.0361164062587,
                        "value": 1
                    },
                    {
                        "number": 64,
                        "time": 771.374991802092,
                        "value": 0
                    },
                    {
                        "number": 64,
                        "time": 772.0277196666754,
                        "value": 1
                    },
                    {
                        "number": 64,
                        "time": 773.398970364592,
                        "value": 0
                    },
                    {
                        "number": 64,
                        "time": 774.028722208342,
                        "value": 1
                    },
                    {
                        "number": 64,
                        "time": 775.3926623541753,
                        "value": 0
                    },
                    {
                        "number": 64,
                        "time": 776.0192811041752,
                        "value": 1
                    },
                    {
                        "number": 64,
                        "time": 777.4239514687586,
                        "value": 0
                    },
                    {
                        "number": 64,
                        "time": 778.2604875000086,
                        "value": 1
                    },
                    {
                        "number": 64,
                        "time": 782.0337767395919,
                        "value": 0
                    },
                    {
                        "number": 64,
                        "time": 782.4661436770918,
                        "value": 1
                    },
                    {
                        "number": 64,
                        "time": 786.0410036458419,
                        "value": 0
                    },
                    {
                        "number": 64,
                        "time": 786.1893034166752,
                        "value": 1
                    },
                    {
                        "number": 64,
                        "time": 791.2659596562586,
                        "value": 0
                    }
                ],
                "91": [
                    {
                        "number": 91,
                        "time": 0,
                        "value": 1
                    },
                    {
                        "number": 91,
                        "time": 206.53354000000087,
                        "value": 1
                    },
                    {
                        "number": 91,
                        "time": 537.3882400000049,
                        "value": 1
                    }
                ]
            },
            "id": 2,
            "name": "Piano left",
            "instrumentNumber": 0,
            "instrument": "acoustic grand piano",
            "instrumentFamily": "piano",
            "channelNumber": 0,
            "isPercussion": false
        },
        {
            "startTime": 0,
            "duration": 0,
            "length": 0,
            "notes": [],
            "controlChanges": {},
            "id": 3,
            "name": "Schubert: Piano sonata in G minor, Op. 143, 1. Movement"
        },
        {
            "startTime": 0,
            "duration": 0,
            "length": 0,
            "notes": [],
            "controlChanges": {},
            "id": 4,
            "name": "Copyright  2004 by Bernd Krger"
        },
        {
            "startTime": 0,
            "duration": 0,
            "length": 0,
            "notes": [],
            "controlChanges": {},
            "id": 5,
            "name": "http://www.piano-midi.de"
        },
        {
            "startTime": 0,
            "duration": 0,
            "length": 0,
            "notes": [],
            "controlChanges": {},
            "id": 6,
            "name": "Edition: 2014-03-17"
        }
    ]
}