{
    "header": {
        "PPQ": 480,
        "timeSignature": [
            8,
            4
        ],
        "bpm": 110.93997592602523,
        "name": "Impromptu Nr. 3 Ges-Dur"
    },
    "startTime": 0,
    "duration": 372.09310400000106,
    "tracks": [
        {
            "startTime": 0,
            "duration": 0,
            "length": 0,
            "notes": [],
            "controlChanges": {},
            "id": 0,
            "name": "Impromptu Nr. 3 Ges-Dur"
        },
        {
            "startTime": 0,
            "duration": 372.0931039999852,
            "length": 2050,
            "notes": [
                {
                    "name": "A#4",
                    "midi": 70,
                    "time": 0,
                    "velocity": 0.3464566929133858,
                    "duration": 2.1633319999999996
                },
                {
                    "name": "A#3",
                    "midi": 58,
                    "time": 0.18027766666666667,
                    "velocity": 0.2047244094488189,
                    "duration": 0.18027766666666667
                },
                {
                    "name": "C#4",
                    "midi": 61,
                    "time": 0.36055533333333334,
                    "velocity": 0.2047244094488189,
                    "duration": 0.18027766666666667
                },
                {
                    "name": "F#4",
                    "midi": 66,
                    "time": 0.540833,
                    "velocity": 0.2283464566929134,
                    "duration": 0.18027766666666667
                },
                {
                    "name": "C#4",
                    "midi": 61,
                    "time": 0.7211106666666667,
                    "velocity": 0.1968503937007874,
                    "duration": 0.18027766666666667
                },
                {
                    "name": "A#3",
                    "midi": 58,
                    "time": 0.9013883333333333,
                    "velocity": 0.1732283464566929,
                    "duration": 0.18027766666666667
                },
                {
                    "name": "C#4",
                    "midi": 61,
                    "time": 1.081666,
                    "velocity": 0.23622047244094488,
                    "duration": 0.18027766666666678
                },
                {
                    "name": "A#3",
                    "midi": 58,
                    "time": 1.2619436666666668,
                    "velocity": 0.1968503937007874,
                    "duration": 0.18027766666666656
                },
                {
                    "name": "C#4",
                    "midi": 61,
                    "time": 1.4422213333333334,
                    "velocity": 0.1968503937007874,
                    "duration": 0.18027766666666656
                },
                {
                    "name": "F#4",
                    "midi": 66,
                    "time": 1.622499,
                    "velocity": 0.2283464566929134,
                    "duration": 0.18027766666666656
                },
                {
                    "name": "C#4",
                    "midi": 61,
                    "time": 1.8027766666666665,
                    "velocity": 0.2047244094488189,
                    "duration": 0.18027766666666656
                },
                {
                    "name": "A#3",
                    "midi": 58,
                    "time": 1.983054333333333,
                    "velocity": 0.18110236220472442,
                    "duration": 0.18027766666666656
                },
                {
                    "name": "A#4",
                    "midi": 70,
                    "time": 2.1633319999999996,
                    "velocity": 0.3228346456692913,
                    "duration": 1.0816659999999994
                },
                {
                    "name": "A#3",
                    "midi": 58,
                    "time": 2.343609666666666,
                    "velocity": 0.2125984251968504,
                    "duration": 0.18027766666666656
                },
                {
                    "name": "C#4",
                    "midi": 61,
                    "time": 2.5238873333333327,
                    "velocity": 0.2283464566929134,
                    "duration": 0.18027766666666656
                },
                {
                    "name": "F#4",
                    "midi": 66,
                    "time": 2.7041649999999993,
                    "velocity": 0.2440944881889764,
                    "duration": 0.18027766666666656
                },
                {
                    "name": "C#4",
                    "midi": 61,
                    "time": 2.884442666666666,
                    "velocity": 0.2047244094488189,
                    "duration": 0.18027766666666656
                },
                {
                    "name": "A#3",
                    "midi": 58,
                    "time": 3.0647203333333324,
                    "velocity": 0.2283464566929134,
                    "duration": 0.18027766666666656
                },
                {
                    "name": "A#4",
                    "midi": 70,
                    "time": 3.244997999999999,
                    "velocity": 0.3464566929133858,
                    "duration": 1.0816660000000002
                },
                {
                    "name": "A#3",
                    "midi": 58,
                    "time": 3.4252756666666655,
                    "velocity": 0.2204724409448819,
                    "duration": 0.18027766666666656
                },
                {
                    "name": "C#4",
                    "midi": 61,
                    "time": 3.605553333333332,
                    "velocity": 0.23622047244094488,
                    "duration": 0.18027766666666656
                },
                {
                    "name": "F#4",
                    "midi": 66,
                    "time": 3.7858309999999986,
                    "velocity": 0.2755905511811024,
                    "duration": 0.18027766666666656
                },
                {
                    "name": "C#4",
                    "midi": 61,
                    "time": 3.966108666666665,
                    "velocity": 0.2440944881889764,
                    "duration": 0.180277666666667
                },
                {
                    "name": "A#3",
                    "midi": 58,
                    "time": 4.146386333333332,
                    "velocity": 0.25984251968503935,
                    "duration": 0.180277666666667
                },
                {
                    "name": "A#4",
                    "midi": 70,
                    "time": 4.326663999999999,
                    "velocity": 0.3858267716535433,
                    "duration": 2.163332000000004
                },
                {
                    "name": "A#3",
                    "midi": 58,
                    "time": 4.506941666666666,
                    "velocity": 0.2125984251968504,
                    "duration": 0.180277666666667
                },
                {
                    "name": "D#4",
                    "midi": 63,
                    "time": 4.687219333333333,
                    "velocity": 0.2125984251968504,
                    "duration": 0.180277666666667
                },
                {
                    "name": "F#4",
                    "midi": 66,
                    "time": 4.867497,
                    "velocity": 0.2677165354330709,
                    "duration": 0.180277666666667
                },
                {
                    "name": "D#4",
                    "midi": 63,
                    "time": 5.047774666666667,
                    "velocity": 0.2283464566929134,
                    "duration": 0.180277666666667
                },
                {
                    "name": "A#3",
                    "midi": 58,
                    "time": 5.228052333333334,
                    "velocity": 0.2047244094488189,
                    "duration": 0.180277666666667
                },
                {
                    "name": "D#4",
                    "midi": 63,
                    "time": 5.408330000000001,
                    "velocity": 0.29133858267716534,
                    "duration": 0.180277666666667
                },
                {
                    "name": "A#3",
                    "midi": 58,
                    "time": 5.588607666666668,
                    "velocity": 0.2283464566929134,
                    "duration": 0.180277666666667
                },
                {
                    "name": "D#4",
                    "midi": 63,
                    "time": 5.768885333333335,
                    "velocity": 0.2283464566929134,
                    "duration": 0.180277666666667
                },
                {
                    "name": "F#4",
                    "midi": 66,
                    "time": 5.949163000000002,
                    "velocity": 0.28346456692913385,
                    "duration": 0.180277666666667
                },
                {
                    "name": "D#4",
                    "midi": 63,
                    "time": 6.129440666666669,
                    "velocity": 0.2283464566929134,
                    "duration": 0.180277666666667
                },
                {
                    "name": "A#3",
                    "midi": 58,
                    "time": 6.309718333333336,
                    "velocity": 0.1968503937007874,
                    "duration": 0.180277666666667
                },
                {
                    "name": "F#4",
                    "midi": 66,
                    "time": 6.489996000000003,
                    "velocity": 0.3858267716535433,
                    "duration": 2.163332000000004
                },
                {
                    "name": "F#3",
                    "midi": 54,
                    "time": 6.67027366666667,
                    "velocity": 0.23622047244094488,
                    "duration": 0.180277666666667
                },
                {
                    "name": "A#3",
                    "midi": 58,
                    "time": 6.850551333333337,
                    "velocity": 0.23622047244094488,
                    "duration": 0.180277666666667
                },
                {
                    "name": "D#4",
                    "midi": 63,
                    "time": 7.030829000000004,
                    "velocity": 0.28346456692913385,
                    "duration": 0.180277666666667
                },
                {
                    "name": "A#3",
                    "midi": 58,
                    "time": 7.211106666666671,
                    "velocity": 0.23622047244094488,
                    "duration": 0.180277666666667
                },
                {
                    "name": "F#3",
                    "midi": 54,
                    "time": 7.391384333333338,
                    "velocity": 0.23622047244094488,
                    "duration": 0.180277666666667
                },
                {
                    "name": "A#3",
                    "midi": 58,
                    "time": 7.571662000000005,
                    "velocity": 0.29133858267716534,
                    "duration": 0.180277666666667
                },
                {
                    "name": "F#3",
                    "midi": 54,
                    "time": 7.751939666666672,
                    "velocity": 0.23622047244094488,
                    "duration": 0.180277666666667
                },
                {
                    "name": "A#3",
                    "midi": 58,
                    "time": 7.932217333333339,
                    "velocity": 0.23622047244094488,
                    "duration": 0.180277666666667
                },
                {
                    "name": "D#4",
                    "midi": 63,
                    "time": 8.112495000000006,
                    "velocity": 0.2755905511811024,
                    "duration": 0.180277666666667
                },
                {
                    "name": "A#3",
                    "midi": 58,
                    "time": 8.292772666666673,
                    "velocity": 0.23622047244094488,
                    "duration": 0.180277666666667
                },
                {
                    "name": "F#3",
                    "midi": 54,
                    "time": 8.47305033333334,
                    "velocity": 0.2125984251968504,
                    "duration": 0.180277666666667
                },
                {
                    "name": "G#4",
                    "midi": 68,
                    "time": 8.653328000000007,
                    "velocity": 0.3858267716535433,
                    "duration": 2.163332000000004
                },
                {
                    "name": "G#3",
                    "midi": 56,
                    "time": 8.833605666666674,
                    "velocity": 0.2283464566929134,
                    "duration": 0.180277666666667
                },
                {
                    "name": "B3",
                    "midi": 59,
                    "time": 9.013883333333341,
                    "velocity": 0.2283464566929134,
                    "duration": 0.180277666666667
                },
                {
                    "name": "D#4",
                    "midi": 63,
                    "time": 9.194161000000008,
                    "velocity": 0.29133858267716534,
                    "duration": 0.180277666666667
                },
                {
                    "name": "B3",
                    "midi": 59,
                    "time": 9.374438666666675,
                    "velocity": 0.2283464566929134,
                    "duration": 0.180277666666667
                },
                {
                    "name": "G#3",
                    "midi": 56,
                    "time": 9.554716333333342,
                    "velocity": 0.2283464566929134,
                    "duration": 0.180277666666667
                },
                {
                    "name": "B3",
                    "midi": 59,
                    "time": 9.73499400000001,
                    "velocity": 0.29133858267716534,
                    "duration": 0.180277666666667
                },
                {
                    "name": "G#3",
                    "midi": 56,
                    "time": 9.915271666666676,
                    "velocity": 0.2283464566929134,
                    "duration": 0.180277666666667
                },
                {
                    "name": "B3",
                    "midi": 59,
                    "time": 10.095549333333343,
                    "velocity": 0.2283464566929134,
                    "duration": 0.180277666666667
                },
                {
                    "name": "D#4",
                    "midi": 63,
                    "time": 10.27582700000001,
                    "velocity": 0.28346456692913385,
                    "duration": 0.180277666666667
                },
                {
                    "name": "B3",
                    "midi": 59,
                    "time": 10.456104666666677,
                    "velocity": 0.2283464566929134,
                    "duration": 0.180277666666667
                },
                {
                    "name": "G#3",
                    "midi": 56,
                    "time": 10.636382333333344,
                    "velocity": 0.2283464566929134,
                    "duration": 0.180277666666667
                },
                {
                    "name": "F#4",
                    "midi": 66,
                    "time": 10.816660000000011,
                    "velocity": 0.36220472440944884,
                    "duration": 0.540833000000001
                },
                {
                    "name": "G#3",
                    "midi": 56,
                    "time": 10.996937666666678,
                    "velocity": 0.2283464566929134,
                    "duration": 0.180277666666667
                },
                {
                    "name": "B3",
                    "midi": 59,
                    "time": 11.177215333333345,
                    "velocity": 0.2283464566929134,
                    "duration": 0.180277666666667
                },
                {
                    "name": "F4",
                    "midi": 65,
                    "time": 11.357493000000012,
                    "velocity": 0.3543307086614173,
                    "duration": 0.540833000000001
                },
                {
                    "name": "G#3",
                    "midi": 56,
                    "time": 11.53777066666668,
                    "velocity": 0.2204724409448819,
                    "duration": 0.180277666666667
                },
                {
                    "name": "B3",
                    "midi": 59,
                    "time": 11.718048333333346,
                    "velocity": 0.2204724409448819,
                    "duration": 0.180277666666667
                },
                {
                    "name": "D#4",
                    "midi": 63,
                    "time": 11.898326000000013,
                    "velocity": 0.3464566929133858,
                    "duration": 0.540833000000001
                },
                {
                    "name": "G#3",
                    "midi": 56,
                    "time": 12.07860366666668,
                    "velocity": 0.2283464566929134,
                    "duration": 0.180277666666667
                },
                {
                    "name": "B3",
                    "midi": 59,
                    "time": 12.258881333333347,
                    "velocity": 0.23622047244094488,
                    "duration": 0.180277666666667
                },
                {
                    "name": "C#4",
                    "midi": 61,
                    "time": 12.439159000000014,
                    "velocity": 0.31496062992125984,
                    "duration": 0.540833000000001
                },
                {
                    "name": "F3",
                    "midi": 53,
                    "time": 12.619436666666681,
                    "velocity": 0.2283464566929134,
                    "duration": 0.180277666666667
                },
                {
                    "name": "G#3",
                    "midi": 56,
                    "time": 12.799714333333348,
                    "velocity": 0.23622047244094488,
                    "duration": 0.180277666666667
                },
                {
                    "name": "F#4",
                    "midi": 66,
                    "time": 12.979992000000015,
                    "velocity": 0.3858267716535433,
                    "duration": 0.540833000000001
                },
                {
                    "name": "F#3",
                    "midi": 54,
                    "time": 13.160269666666682,
                    "velocity": 0.25196850393700787,
                    "duration": 0.180277666666667
                },
                {
                    "name": "A#3",
                    "midi": 58,
                    "time": 13.34054733333335,
                    "velocity": 0.25984251968503935,
                    "duration": 0.180277666666667
                },
                {
                    "name": "C#4",
                    "midi": 61,
                    "time": 13.520825000000016,
                    "velocity": 0.2755905511811024,
                    "duration": 0.180277666666667
                },
                {
                    "name": "A#3",
                    "midi": 58,
                    "time": 13.701102666666683,
                    "velocity": 0.28346456692913385,
                    "duration": 0.180277666666667
                },
                {
                    "name": "F#3",
                    "midi": 54,
                    "time": 13.88138033333335,
                    "velocity": 0.2992125984251969,
                    "duration": 0.180277666666667
                },
                {
                    "name": "A#4",
                    "midi": 70,
                    "time": 14.061658000000017,
                    "velocity": 0.3779527559055118,
                    "duration": 0.540833000000001
                },
                {
                    "name": "C4",
                    "midi": 60,
                    "time": 14.241935666666684,
                    "velocity": 0.2992125984251969,
                    "duration": 0.180277666666667
                },
                {
                    "name": "D#4",
                    "midi": 63,
                    "time": 14.422213333333351,
                    "velocity": 0.28346456692913385,
                    "duration": 0.180277666666667
                },
                {
                    "name": "F#4",
                    "midi": 66,
                    "time": 14.602491000000018,
                    "velocity": 0.2755905511811024,
                    "duration": 0.180277666666667
                },
                {
                    "name": "D#4",
                    "midi": 63,
                    "time": 14.782768666666685,
                    "velocity": 0.25984251968503935,
                    "duration": 0.180277666666667
                },
                {
                    "name": "C4",
                    "midi": 60,
                    "time": 14.963046333333352,
                    "velocity": 0.25196850393700787,
                    "duration": 0.180277666666667
                },
                {
                    "name": "G#4",
                    "midi": 68,
                    "time": 15.14332400000002,
                    "velocity": 0.3228346456692913,
                    "duration": 1.622498999999996
                },
                {
                    "name": "G#3",
                    "midi": 56,
                    "time": 15.323601666666686,
                    "velocity": 0.2125984251968504,
                    "duration": 0.180277666666667
                },
                {
                    "name": "C#4",
                    "midi": 61,
                    "time": 15.503879333333353,
                    "velocity": 0.2125984251968504,
                    "duration": 0.180277666666667
                },
                {
                    "name": "F4",
                    "midi": 65,
                    "time": 15.68415700000002,
                    "velocity": 0.23622047244094488,
                    "duration": 0.180277666666667
                },
                {
                    "name": "C#4",
                    "midi": 61,
                    "time": 15.864434666666687,
                    "velocity": 0.2125984251968504,
                    "duration": 0.180277666666667
                },
                {
                    "name": "G#3",
                    "midi": 56,
                    "time": 16.044712333333354,
                    "velocity": 0.2125984251968504,
                    "duration": 0.18027766666666523
                },
                {
                    "name": "C#4",
                    "midi": 61,
                    "time": 16.22499000000002,
                    "velocity": 0.23622047244094488,
                    "duration": 0.18027766666666523
                },
                {
                    "name": "G#3",
                    "midi": 56,
                    "time": 16.405267666666685,
                    "velocity": 0.2125984251968504,
                    "duration": 0.18027766666666523
                },
                {
                    "name": "C#4",
                    "midi": 61,
                    "time": 16.58554533333335,
                    "velocity": 0.2125984251968504,
                    "duration": 0.18027766666666523
                },
                {
                    "name": "F4",
                    "midi": 65,
                    "time": 16.765823000000015,
                    "velocity": 0.2440944881889764,
                    "duration": 0.18027766666666523
                },
                {
                    "name": "A4",
                    "midi": 69,
                    "time": 16.765823000000015,
                    "velocity": 0.30708661417322836,
                    "duration": 0.5408329999999957
                },
                {
                    "name": "C#4",
                    "midi": 61,
                    "time": 16.94610066666668,
                    "velocity": 0.1889763779527559,
                    "duration": 0.18027766666666523
                },
                {
                    "name": "A3",
                    "midi": 57,
                    "time": 17.126378333333346,
                    "velocity": 0.1889763779527559,
                    "duration": 0.18027766666666523
                },
                {
                    "name": "A#4",
                    "midi": 70,
                    "time": 17.30665600000001,
                    "velocity": 0.3464566929133858,
                    "duration": 2.1633319999999827
                },
                {
                    "name": "A#3",
                    "midi": 58,
                    "time": 17.486933666666676,
                    "velocity": 0.2047244094488189,
                    "duration": 0.18027766666666523
                },
                {
                    "name": "C#4",
                    "midi": 61,
                    "time": 17.66721133333334,
                    "velocity": 0.2047244094488189,
                    "duration": 0.18027766666666523
                },
                {
                    "name": "F#4",
                    "midi": 66,
                    "time": 17.847489000000007,
                    "velocity": 0.2283464566929134,
                    "duration": 0.18027766666666523
                },
                {
                    "name": "C#4",
                    "midi": 61,
                    "time": 18.027766666666672,
                    "velocity": 0.1968503937007874,
                    "duration": 0.18027766666666523
                },
                {
                    "name": "A#3",
                    "midi": 58,
                    "time": 18.208044333333337,
                    "velocity": 0.1968503937007874,
                    "duration": 0.18027766666666523
                },
                {
                    "name": "C#4",
                    "midi": 61,
                    "time": 18.388322000000002,
                    "velocity": 0.23622047244094488,
                    "duration": 0.18027766666666523
                },
                {
                    "name": "A#3",
                    "midi": 58,
                    "time": 18.568599666666668,
                    "velocity": 0.1968503937007874,
                    "duration": 0.18027766666666523
                },
                {
                    "name": "C#4",
                    "midi": 61,
                    "time": 18.748877333333333,
                    "velocity": 0.16535433070866143,
                    "duration": 0.18027766666666523
                },
                {
                    "name": "F#4",
                    "midi": 66,
                    "time": 18.929154999999998,
                    "velocity": 0.2283464566929134,
                    "duration": 0.18027766666666523
                },
                {
                    "name": "C#4",
                    "midi": 61,
                    "time": 19.109432666666663,
                    "velocity": 0.2047244094488189,
                    "duration": 0.18027766666666523
                },
                {
                    "name": "A#3",
                    "midi": 58,
                    "time": 19.28971033333333,
                    "velocity": 0.1889763779527559,
                    "duration": 0.18027766666666523
                },
                {
                    "name": "A#4",
                    "midi": 70,
                    "time": 19.469987999999994,
                    "velocity": 0.3228346456692913,
                    "duration": 1.0816659999999914
                },
                {
                    "name": "A#3",
                    "midi": 58,
                    "time": 19.65026566666666,
                    "velocity": 0.2125984251968504,
                    "duration": 0.18027766666666523
                },
                {
                    "name": "C#4",
                    "midi": 61,
                    "time": 19.830543333333324,
                    "velocity": 0.2283464566929134,
                    "duration": 0.18027766666666523
                },
                {
                    "name": "F#4",
                    "midi": 66,
                    "time": 20.01082099999999,
                    "velocity": 0.2440944881889764,
                    "duration": 0.18027766666666523
                },
                {
                    "name": "C#4",
                    "midi": 61,
                    "time": 20.191098666666655,
                    "velocity": 0.2047244094488189,
                    "duration": 0.18027766666666523
                },
                {
                    "name": "A#3",
                    "midi": 58,
                    "time": 20.37137633333332,
                    "velocity": 0.2283464566929134,
                    "duration": 0.18027766666666523
                },
                {
                    "name": "A#4",
                    "midi": 70,
                    "time": 20.551653999999985,
                    "velocity": 0.3464566929133858,
                    "duration": 1.0816659999999914
                },
                {
                    "name": "A#3",
                    "midi": 58,
                    "time": 20.73193166666665,
                    "velocity": 0.2204724409448819,
                    "duration": 0.18027766666666523
                },
                {
                    "name": "C#4",
                    "midi": 61,
                    "time": 20.912209333333315,
                    "velocity": 0.23622047244094488,
                    "duration": 0.18027766666666523
                },
                {
                    "name": "F#4",
                    "midi": 66,
                    "time": 21.09248699999998,
                    "velocity": 0.2755905511811024,
                    "duration": 0.18027766666666523
                },
                {
                    "name": "C#4",
                    "midi": 61,
                    "time": 21.272764666666646,
                    "velocity": 0.2440944881889764,
                    "duration": 0.18027766666666523
                },
                {
                    "name": "A#3",
                    "midi": 58,
                    "time": 21.45304233333331,
                    "velocity": 0.25984251968503935,
                    "duration": 0.18027766666666523
                },
                {
                    "name": "A#4",
                    "midi": 70,
                    "time": 21.633319999999976,
                    "velocity": 0.3858267716535433,
                    "duration": 2.1633319999999827
                },
                {
                    "name": "A#3",
                    "midi": 58,
                    "time": 21.81359766666664,
                    "velocity": 0.2125984251968504,
                    "duration": 0.18027766666666523
                },
                {
                    "name": "D#4",
                    "midi": 63,
                    "time": 21.993875333333307,
                    "velocity": 0.2125984251968504,
                    "duration": 0.18027766666666523
                },
                {
                    "name": "F#4",
                    "midi": 66,
                    "time": 22.174152999999972,
                    "velocity": 0.2677165354330709,
                    "duration": 0.18027766666666523
                },
                {
                    "name": "D#4",
                    "midi": 63,
                    "time": 22.354430666666637,
                    "velocity": 0.2283464566929134,
                    "duration": 0.18027766666666523
                },
                {
                    "name": "A#3",
                    "midi": 58,
                    "time": 22.534708333333302,
                    "velocity": 0.2283464566929134,
                    "duration": 0.18027766666666523
                },
                {
                    "name": "D#4",
                    "midi": 63,
                    "time": 22.714985999999968,
                    "velocity": 0.29133858267716534,
                    "duration": 0.18027766666666523
                },
                {
                    "name": "A#3",
                    "midi": 58,
                    "time": 22.895263666666633,
                    "velocity": 0.2283464566929134,
                    "duration": 0.18027766666666523
                },
                {
                    "name": "D#4",
                    "midi": 63,
                    "time": 23.075541333333298,
                    "velocity": 0.2283464566929134,
                    "duration": 0.18027766666666523
                },
                {
                    "name": "F#4",
                    "midi": 66,
                    "time": 23.255818999999963,
                    "velocity": 0.28346456692913385,
                    "duration": 0.18027766666666523
                },
                {
                    "name": "D#4",
                    "midi": 63,
                    "time": 23.43609666666663,
                    "velocity": 0.2283464566929134,
                    "duration": 0.18027766666666523
                },
                {
                    "name": "A#3",
                    "midi": 58,
                    "time": 23.616374333333294,
                    "velocity": 0.2283464566929134,
                    "duration": 0.18027766666666523
                },
                {
                    "name": "F#4",
                    "midi": 66,
                    "time": 23.79665199999996,
                    "velocity": 0.3858267716535433,
                    "duration": 1.0816659999999914
                },
                {
                    "name": "F#3",
                    "midi": 54,
                    "time": 23.976929666666624,
                    "velocity": 0.23622047244094488,
                    "duration": 0.18027766666666523
                },
                {
                    "name": "A#3",
                    "midi": 58,
                    "time": 24.15720733333329,
                    "velocity": 0.23622047244094488,
                    "duration": 0.18027766666666523
                },
                {
                    "name": "D#4",
                    "midi": 63,
                    "time": 24.337484999999955,
                    "velocity": 0.28346456692913385,
                    "duration": 0.18027766666666523
                },
                {
                    "name": "A#3",
                    "midi": 58,
                    "time": 24.51776266666662,
                    "velocity": 0.23622047244094488,
                    "duration": 0.18027766666666523
                },
                {
                    "name": "F#3",
                    "midi": 54,
                    "time": 24.698040333333285,
                    "velocity": 0.23622047244094488,
                    "duration": 0.18027766666666523
                },
                {
                    "name": "F4",
                    "midi": 65,
                    "time": 24.87831799999995,
                    "velocity": 0.3858267716535433,
                    "duration": 1.0816659999999914
                },
                {
                    "name": "F3",
                    "midi": 53,
                    "time": 25.058595666666616,
                    "velocity": 0.23622047244094488,
                    "duration": 0.18027766666666523
                },
                {
                    "name": "G#3",
                    "midi": 56,
                    "time": 25.23887333333328,
                    "velocity": 0.23622047244094488,
                    "duration": 0.18027766666666523
                },
                {
                    "name": "D4",
                    "midi": 62,
                    "time": 25.419150999999946,
                    "velocity": 0.2755905511811024,
                    "duration": 0.18027766666666523
                },
                {
                    "name": "G#3",
                    "midi": 56,
                    "time": 25.59942866666661,
                    "velocity": 0.23622047244094488,
                    "duration": 0.18027766666666523
                },
                {
                    "name": "F3",
                    "midi": 53,
                    "time": 25.779706333333277,
                    "velocity": 0.23622047244094488,
                    "duration": 0.18027766666666523
                },
                {
                    "name": "D#4",
                    "midi": 63,
                    "time": 25.95998399999994,
                    "velocity": 0.3858267716535433,
                    "duration": 1.0816659999999914
                },
                {
                    "name": "D#3",
                    "midi": 51,
                    "time": 26.140261666666607,
                    "velocity": 0.2755905511811024,
                    "duration": 0.18027766666666523
                },
                {
                    "name": "F#3",
                    "midi": 54,
                    "time": 26.320539333333272,
                    "velocity": 0.2992125984251969,
                    "duration": 0.18027766666666523
                },
                {
                    "name": "B3",
                    "midi": 59,
                    "time": 26.500816999999937,
                    "velocity": 0.33858267716535434,
                    "duration": 0.18027766666666523
                },
                {
                    "name": "F#3",
                    "midi": 54,
                    "time": 26.681094666666603,
                    "velocity": 0.3543307086614173,
                    "duration": 0.18027766666666523
                },
                {
                    "name": "D#3",
                    "midi": 51,
                    "time": 26.861372333333268,
                    "velocity": 0.3858267716535433,
                    "duration": 0.18027766666666523
                },
                {
                    "name": "G#4",
                    "midi": 68,
                    "time": 27.041649999999933,
                    "velocity": 0.4566929133858268,
                    "duration": 1.0816659999999914
                },
                {
                    "name": "G#3",
                    "midi": 56,
                    "time": 27.2219276666666,
                    "velocity": 0.3228346456692913,
                    "duration": 0.18027766666666523
                },
                {
                    "name": "B3",
                    "midi": 59,
                    "time": 27.402205333333264,
                    "velocity": 0.3228346456692913,
                    "duration": 0.18027766666666523
                },
                {
                    "name": "D#4",
                    "midi": 63,
                    "time": 27.58248299999993,
                    "velocity": 0.3700787401574803,
                    "duration": 0.18027766666666523
                },
                {
                    "name": "B3",
                    "midi": 59,
                    "time": 27.762760666666594,
                    "velocity": 0.25984251968503935,
                    "duration": 0.18027766666666523
                },
                {
                    "name": "G#3",
                    "midi": 56,
                    "time": 27.94303833333326,
                    "velocity": 0.25984251968503935,
                    "duration": 0.18027766666666523
                },
                {
                    "name": "F#4",
                    "midi": 66,
                    "time": 28.123315999999924,
                    "velocity": 0.36220472440944884,
                    "duration": 0.5408329999999957
                },
                {
                    "name": "B3",
                    "midi": 59,
                    "time": 28.30359366666659,
                    "velocity": 0.2283464566929134,
                    "duration": 0.18027766666666523
                },
                {
                    "name": "G#3",
                    "midi": 56,
                    "time": 28.483871333333255,
                    "velocity": 0.2283464566929134,
                    "duration": 0.18027766666666523
                },
                {
                    "name": "F4",
                    "midi": 65,
                    "time": 28.66414899999992,
                    "velocity": 0.3543307086614173,
                    "duration": 0.5408329999999957
                },
                {
                    "name": "B3",
                    "midi": 59,
                    "time": 28.844426666666585,
                    "velocity": 0.2204724409448819,
                    "duration": 0.18027766666666523
                },
                {
                    "name": "G#3",
                    "midi": 56,
                    "time": 29.02470433333325,
                    "velocity": 0.2204724409448819,
                    "duration": 0.18027766666666523
                },
                {
                    "name": "D#4",
                    "midi": 63,
                    "time": 29.204981999999916,
                    "velocity": 0.3464566929133858,
                    "duration": 0.5408329999999957
                },
                {
                    "name": "B3",
                    "midi": 59,
                    "time": 29.38525966666658,
                    "velocity": 0.2283464566929134,
                    "duration": 0.18027766666666523
                },
                {
                    "name": "G#3",
                    "midi": 56,
                    "time": 29.565537333333246,
                    "velocity": 0.23622047244094488,
                    "duration": 0.18027766666666523
                },
                {
                    "name": "F4",
                    "midi": 65,
                    "time": 29.74581499999991,
                    "velocity": 0.31496062992125984,
                    "duration": 0.5408329999999957
                },
                {
                    "name": "B3",
                    "midi": 59,
                    "time": 29.926092666666577,
                    "velocity": 0.2283464566929134,
                    "duration": 0.18027766666666523
                },
                {
                    "name": "G#3",
                    "midi": 56,
                    "time": 30.106370333333242,
                    "velocity": 0.23622047244094488,
                    "duration": 0.18027766666666523
                },
                {
                    "name": "G#4",
                    "midi": 68,
                    "time": 30.286647999999907,
                    "velocity": 0.3858267716535433,
                    "duration": 2.16333199999999
                },
                {
                    "name": "B3",
                    "midi": 59,
                    "time": 30.466925666666572,
                    "velocity": 0.2125984251968504,
                    "duration": 0.18027766666666523
                },
                {
                    "name": "C#4",
                    "midi": 61,
                    "time": 30.647203333333238,
                    "velocity": 0.2125984251968504,
                    "duration": 0.18027766666666523
                },
                {
                    "name": "F4",
                    "midi": 65,
                    "time": 30.827480999999903,
                    "velocity": 0.2677165354330709,
                    "duration": 0.18027766666666523
                },
                {
                    "name": "C#4",
                    "midi": 61,
                    "time": 31.007758666666568,
                    "velocity": 0.2283464566929134,
                    "duration": 0.18027766666666523
                },
                {
                    "name": "B3",
                    "midi": 59,
                    "time": 31.188036333333233,
                    "velocity": 0.2283464566929134,
                    "duration": 0.18027766666666523
                },
                {
                    "name": "C#4",
                    "midi": 61,
                    "time": 31.3683139999999,
                    "velocity": 0.29133858267716534,
                    "duration": 0.18027766666666523
                },
                {
                    "name": "B3",
                    "midi": 59,
                    "time": 31.548591666666564,
                    "velocity": 0.2283464566929134,
                    "duration": 0.18027766666666523
                },
                {
                    "name": "C#4",
                    "midi": 61,
                    "time": 31.72886933333323,
                    "velocity": 0.2283464566929134,
                    "duration": 0.18027766666666523
                },
                {
                    "name": "F4",
                    "midi": 65,
                    "time": 31.909146999999894,
                    "velocity": 0.28346456692913385,
                    "duration": 0.18027766666666523
                },
                {
                    "name": "C#4",
                    "midi": 61,
                    "time": 32.08942466666656,
                    "velocity": 0.2283464566929134,
                    "duration": 0.18027766666666878
                },
                {
                    "name": "B3",
                    "midi": 59,
                    "time": 32.26970233333323,
                    "velocity": 0.2283464566929134,
                    "duration": 0.18027766666666878
                },
                {
                    "name": "F#4",
                    "midi": 66,
                    "time": 32.4499799999999,
                    "velocity": 0.3858267716535433,
                    "duration": 2.1633320000000253
                },
                {
                    "name": "F#3",
                    "midi": 54,
                    "time": 32.630257666666566,
                    "velocity": 0.23622047244094488,
                    "duration": 0.18027766666666878
                },
                {
                    "name": "A#3",
                    "midi": 58,
                    "time": 32.810535333333235,
                    "velocity": 0.1889763779527559,
                    "duration": 0.18027766666666878
                },
                {
                    "name": "C#4",
                    "midi": 61,
                    "time": 32.9908129999999,
                    "velocity": 0.28346456692913385,
                    "duration": 0.18027766666666878
                },
                {
                    "name": "A#3",
                    "midi": 58,
                    "time": 33.17109066666657,
                    "velocity": 0.23622047244094488,
                    "duration": 0.18027766666666878
                },
                {
                    "name": "F#3",
                    "midi": 54,
                    "time": 33.35136833333324,
                    "velocity": 0.1889763779527559,
                    "duration": 0.18027766666666878
                },
                {
                    "name": "A#3",
                    "midi": 58,
                    "time": 33.53164599999991,
                    "velocity": 0.29133858267716534,
                    "duration": 0.18027766666666878
                },
                {
                    "name": "F#3",
                    "midi": 54,
                    "time": 33.71192366666658,
                    "velocity": 0.23622047244094488,
                    "duration": 0.18027766666666878
                },
                {
                    "name": "A#3",
                    "midi": 58,
                    "time": 33.89220133333325,
                    "velocity": 0.2047244094488189,
                    "duration": 0.18027766666666878
                },
                {
                    "name": "C#4",
                    "midi": 61,
                    "time": 34.072478999999916,
                    "velocity": 0.2755905511811024,
                    "duration": 0.18027766666666878
                },
                {
                    "name": "A#3",
                    "midi": 58,
                    "time": 34.252756666666585,
                    "velocity": 0.23622047244094488,
                    "duration": 0.18027766666666878
                },
                {
                    "name": "F#3",
                    "midi": 54,
                    "time": 34.433034333333254,
                    "velocity": 0.2047244094488189,
                    "duration": 0.18027766666666878
                },
                {
                    "name": "G#4",
                    "midi": 68,
                    "time": 34.61331199999992,
                    "velocity": 0.3464566929133858,
                    "duration": 2.1633320000000253
                },
                {
                    "name": "G#3",
                    "midi": 56,
                    "time": 34.79358966666659,
                    "velocity": 0.2047244094488189,
                    "duration": 0.18027766666666878
                },
                {
                    "name": "C#4",
                    "midi": 61,
                    "time": 34.97386733333326,
                    "velocity": 0.2047244094488189,
                    "duration": 0.18027766666666878
                },
                {
                    "name": "F4",
                    "midi": 65,
                    "time": 35.15414499999993,
                    "velocity": 0.2283464566929134,
                    "duration": 0.18027766666666878
                },
                {
                    "name": "C#4",
                    "midi": 61,
                    "time": 35.3344226666666,
                    "velocity": 0.1968503937007874,
                    "duration": 0.18027766666666878
                },
                {
                    "name": "G#3",
                    "midi": 56,
                    "time": 35.514700333333266,
                    "velocity": 0.1968503937007874,
                    "duration": 0.18027766666666878
                },
                {
                    "name": "C#4",
                    "midi": 61,
                    "time": 35.694977999999935,
                    "velocity": 0.23622047244094488,
                    "duration": 0.18027766666666878
                },
                {
                    "name": "G#3",
                    "midi": 56,
                    "time": 35.875255666666604,
                    "velocity": 0.2047244094488189,
                    "duration": 0.18027766666666878
                },
                {
                    "name": "C#4",
                    "midi": 61,
                    "time": 36.05553333333327,
                    "velocity": 0.2047244094488189,
                    "duration": 0.18027766666666878
                },
                {
                    "name": "F4",
                    "midi": 65,
                    "time": 36.23581099999994,
                    "velocity": 0.23622047244094488,
                    "duration": 0.18027766666666878
                },
                {
                    "name": "C#4",
                    "midi": 61,
                    "time": 36.41608866666661,
                    "velocity": 0.2125984251968504,
                    "duration": 0.18027766666666878
                },
                {
                    "name": "G#3",
                    "midi": 56,
                    "time": 36.59636633333328,
                    "velocity": 0.2125984251968504,
                    "duration": 0.18027766666666878
                },
                {
                    "name": "A#4",
                    "midi": 70,
                    "time": 36.77664399999995,
                    "velocity": 0.33858267716535434,
                    "duration": 2.1633320000000253
                },
                {
                    "name": "C#4",
                    "midi": 61,
                    "time": 36.95692166666662,
                    "velocity": 0.2283464566929134,
                    "duration": 0.18027766666666878
                },
                {
                    "name": "D#4",
                    "midi": 63,
                    "time": 37.137199333333285,
                    "velocity": 0.2440944881889764,
                    "duration": 0.18027766666666878
                },
                {
                    "name": "G4",
                    "midi": 67,
                    "time": 37.317476999999954,
                    "velocity": 0.30708661417322836,
                    "duration": 0.18027766666666878
                },
                {
                    "name": "D#4",
                    "midi": 63,
                    "time": 37.49775466666662,
                    "velocity": 0.2440944881889764,
                    "duration": 0.18027766666666878
                },
                {
                    "name": "C#4",
                    "midi": 61,
                    "time": 37.67803233333329,
                    "velocity": 0.3464566929133858,
                    "duration": 0.18027766666666878
                },
                {
                    "name": "D#4",
                    "midi": 63,
                    "time": 37.85830999999996,
                    "velocity": 0.3700787401574803,
                    "duration": 0.18027766666666878
                },
                {
                    "name": "C#4",
                    "midi": 61,
                    "time": 38.03858766666663,
                    "velocity": 0.4015748031496063,
                    "duration": 0.18027766666666878
                },
                {
                    "name": "D#4",
                    "midi": 63,
                    "time": 38.2188653333333,
                    "velocity": 0.4251968503937008,
                    "duration": 0.18027766666666878
                },
                {
                    "name": "G4",
                    "midi": 67,
                    "time": 38.39914299999997,
                    "velocity": 0.4330708661417323,
                    "duration": 0.18027766666666878
                },
                {
                    "name": "D#4",
                    "midi": 63,
                    "time": 38.579420666666635,
                    "velocity": 0.4881889763779528,
                    "duration": 0.18027766666666878
                },
                {
                    "name": "C#4",
                    "midi": 61,
                    "time": 38.759698333333304,
                    "velocity": 0.5275590551181102,
                    "duration": 0.18027766666666878
                },
                {
                    "name": "C#5",
                    "midi": 73,
                    "time": 38.93997599999997,
                    "velocity": 0.5826771653543307,
                    "duration": 1.622499000000019
                },
                {
                    "name": "C#4",
                    "midi": 61,
                    "time": 39.12025366666664,
                    "velocity": 0.4015748031496063,
                    "duration": 0.18027766666666878
                },
                {
                    "name": "D#4",
                    "midi": 63,
                    "time": 39.30053133333331,
                    "velocity": 0.4015748031496063,
                    "duration": 0.18027766666666878
                },
                {
                    "name": "G#4",
                    "midi": 68,
                    "time": 39.48080899999998,
                    "velocity": 0.5196850393700787,
                    "duration": 0.18027766666666878
                },
                {
                    "name": "D#4",
                    "midi": 63,
                    "time": 39.66108666666665,
                    "velocity": 0.3858267716535433,
                    "duration": 0.18027766666666878
                },
                {
                    "name": "C#4",
                    "midi": 61,
                    "time": 39.84136433333332,
                    "velocity": 0.3858267716535433,
                    "duration": 0.18027766666666878
                },
                {
                    "name": "D#4",
                    "midi": 63,
                    "time": 40.021641999999986,
                    "velocity": 0.4330708661417323,
                    "duration": 0.18027766666666878
                },
                {
                    "name": "C#4",
                    "midi": 61,
                    "time": 40.201919666666655,
                    "velocity": 0.29133858267716534,
                    "duration": 0.18027766666666878
                },
                {
                    "name": "D#4",
                    "midi": 63,
                    "time": 40.38219733333332,
                    "velocity": 0.25984251968503935,
                    "duration": 0.18027766666666878
                },
                {
                    "name": "B4",
                    "midi": 71,
                    "time": 40.56247499999999,
                    "velocity": 0.3937007874015748,
                    "duration": 0.5408330000000063
                },
                {
                    "name": "G#4",
                    "midi": 68,
                    "time": 40.56247499999999,
                    "velocity": 0.29133858267716534,
                    "duration": 0.18027766666666878
                },
                {
                    "name": "D#4",
                    "midi": 63,
                    "time": 40.74275266666666,
                    "velocity": 0.25984251968503935,
                    "duration": 0.18027766666666878
                },
                {
                    "name": "B3",
                    "midi": 59,
                    "time": 40.92303033333333,
                    "velocity": 0.25984251968503935,
                    "duration": 0.18027766666666878
                },
                {
                    "name": "B4",
                    "midi": 71,
                    "time": 41.103308,
                    "velocity": 0.3228346456692913,
                    "duration": 2.1633320000000253
                },
                {
                    "name": "B3",
                    "midi": 59,
                    "time": 41.28358566666667,
                    "velocity": 0.2204724409448819,
                    "duration": 0.18027766666666878
                },
                {
                    "name": "D#4",
                    "midi": 63,
                    "time": 41.463863333333336,
                    "velocity": 0.2204724409448819,
                    "duration": 0.18027766666666878
                },
                {
                    "name": "G#4",
                    "midi": 68,
                    "time": 41.644141000000005,
                    "velocity": 0.23622047244094488,
                    "duration": 0.18027766666666878
                },
                {
                    "name": "D#4",
                    "midi": 63,
                    "time": 41.82441866666667,
                    "velocity": 0.1968503937007874,
                    "duration": 0.18027766666666878
                },
                {
                    "name": "B3",
                    "midi": 59,
                    "time": 42.00469633333334,
                    "velocity": 0.1968503937007874,
                    "duration": 0.18027766666666878
                },
                {
                    "name": "D#4",
                    "midi": 63,
                    "time": 42.18497400000001,
                    "velocity": 0.2440944881889764,
                    "duration": 0.18027766666666878
                },
                {
                    "name": "B3",
                    "midi": 59,
                    "time": 42.36525166666668,
                    "velocity": 0.1968503937007874,
                    "duration": 0.18027766666666878
                },
                {
                    "name": "D#4",
                    "midi": 63,
                    "time": 42.54552933333335,
                    "velocity": 0.1968503937007874,
                    "duration": 0.18027766666666878
                },
                {
                    "name": "G#4",
                    "midi": 68,
                    "time": 42.72580700000002,
                    "velocity": 0.2283464566929134,
                    "duration": 0.18027766666666878
                },
                {
                    "name": "D#4",
                    "midi": 63,
                    "time": 42.906084666666686,
                    "velocity": 0.1968503937007874,
                    "duration": 0.18027766666666878
                },
                {
                    "name": "B3",
                    "midi": 59,
                    "time": 43.086362333333355,
                    "velocity": 0.1968503937007874,
                    "duration": 0.18027766666666878
                },
                {
                    "name": "B4",
                    "midi": 71,
                    "time": 43.266640000000024,
                    "velocity": 0.4251968503937008,
                    "duration": 2.1633320000000253
                },
                {
                    "name": "B3",
                    "midi": 59,
                    "time": 43.44691766666669,
                    "velocity": 0.25984251968503935,
                    "duration": 0.18027766666666878
                },
                {
                    "name": "E4",
                    "midi": 64,
                    "time": 43.62719533333336,
                    "velocity": 0.25984251968503935,
                    "duration": 0.18027766666666878
                },
                {
                    "name": "G#4",
                    "midi": 68,
                    "time": 43.80747300000003,
                    "velocity": 0.29133858267716534,
                    "duration": 0.18027766666666878
                },
                {
                    "name": "E4",
                    "midi": 64,
                    "time": 43.9877506666667,
                    "velocity": 0.25196850393700787,
                    "duration": 0.18027766666666878
                },
                {
                    "name": "B3",
                    "midi": 59,
                    "time": 44.16802833333337,
                    "velocity": 0.25196850393700787,
                    "duration": 0.18027766666666878
                },
                {
                    "name": "E4",
                    "midi": 64,
                    "time": 44.348306000000036,
                    "velocity": 0.30708661417322836,
                    "duration": 0.18027766666666878
                },
                {
                    "name": "B3",
                    "midi": 59,
                    "time": 44.528583666666705,
                    "velocity": 0.25984251968503935,
                    "duration": 0.18027766666666878
                },
                {
                    "name": "E4",
                    "midi": 64,
                    "time": 44.708861333333374,
                    "velocity": 0.25984251968503935,
                    "duration": 0.18027766666666878
                },
                {
                    "name": "G#4",
                    "midi": 68,
                    "time": 44.88913900000004,
                    "velocity": 0.30708661417322836,
                    "duration": 0.18027766666666878
                },
                {
                    "name": "E4",
                    "midi": 64,
                    "time": 45.06941666666671,
                    "velocity": 0.2755905511811024,
                    "duration": 0.18027766666666878
                },
                {
                    "name": "B3",
                    "midi": 59,
                    "time": 45.24969433333338,
                    "velocity": 0.28346456692913385,
                    "duration": 0.18027766666666878
                },
                {
                    "name": "B4",
                    "midi": 71,
                    "time": 45.42997200000005,
                    "velocity": 0.3858267716535433,
                    "duration": 1.0816660000000127
                },
                {
                    "name": "B3",
                    "midi": 59,
                    "time": 45.61024966666672,
                    "velocity": 0.29133858267716534,
                    "duration": 0.18027766666666878
                },
                {
                    "name": "D#4",
                    "midi": 63,
                    "time": 45.79052733333339,
                    "velocity": 0.31496062992125984,
                    "duration": 0.18027766666666878
                },
                {
                    "name": "F#4",
                    "midi": 66,
                    "time": 45.970805000000055,
                    "velocity": 0.3464566929133858,
                    "duration": 0.18027766666666878
                },
                {
                    "name": "D#4",
                    "midi": 63,
                    "time": 46.151082666666724,
                    "velocity": 0.29133858267716534,
                    "duration": 0.18027766666666878
                },
                {
                    "name": "B3",
                    "midi": 59,
                    "time": 46.33136033333339,
                    "velocity": 0.30708661417322836,
                    "duration": 0.18027766666666878
                },
                {
                    "name": "C#5",
                    "midi": 73,
                    "time": 46.51163800000006,
                    "velocity": 0.4330708661417323,
                    "duration": 1.0816660000000127
                },
                {
                    "name": "E4",
                    "midi": 64,
                    "time": 46.69191566666673,
                    "velocity": 0.3858267716535433,
                    "duration": 0.18027766666666878
                },
                {
                    "name": "F#4",
                    "midi": 66,
                    "time": 46.8721933333334,
                    "velocity": 0.4015748031496063,
                    "duration": 0.18027766666666878
                },
                {
                    "name": "A#4",
                    "midi": 70,
                    "time": 47.05247100000007,
                    "velocity": 0.47244094488188976,
                    "duration": 0.18027766666666878
                },
                {
                    "name": "F#4",
                    "midi": 66,
                    "time": 47.23274866666674,
                    "velocity": 0.5039370078740157,
                    "duration": 0.18027766666666878
                },
                {
                    "name": "E4",
                    "midi": 64,
                    "time": 47.413026333333406,
                    "velocity": 0.49606299212598426,
                    "duration": 0.18027766666666878
                },
                {
                    "name": "E5",
                    "midi": 76,
                    "time": 47.593304000000074,
                    "velocity": 0.5433070866141733,
                    "duration": 1.622499000000019
                },
                {
                    "name": "E4",
                    "midi": 64,
                    "time": 47.77358166666674,
                    "velocity": 0.44881889763779526,
                    "duration": 0.18027766666666878
                },
                {
                    "name": "F#4",
                    "midi": 66,
                    "time": 47.95385933333341,
                    "velocity": 0.44881889763779526,
                    "duration": 0.18027766666666878
                },
                {
                    "name": "B4",
                    "midi": 71,
                    "time": 48.13413700000008,
                    "velocity": 0.49606299212598426,
                    "duration": 0.18027766666666878
                },
                {
                    "name": "F#4",
                    "midi": 66,
                    "time": 48.31441466666675,
                    "velocity": 0.3779527559055118,
                    "duration": 0.18027766666666878
                },
                {
                    "name": "E4",
                    "midi": 64,
                    "time": 48.49469233333342,
                    "velocity": 0.3779527559055118,
                    "duration": 0.18027766666666878
                },
                {
                    "name": "F#4",
                    "midi": 66,
                    "time": 48.67497000000009,
                    "velocity": 0.4251968503937008,
                    "duration": 0.18027766666666878
                },
                {
                    "name": "E4",
                    "midi": 64,
                    "time": 48.855247666666756,
                    "velocity": 0.2755905511811024,
                    "duration": 0.18027766666666878
                },
                {
                    "name": "F#4",
                    "midi": 66,
                    "time": 49.035525333333425,
                    "velocity": 0.29133858267716534,
                    "duration": 0.18027766666666878
                },
                {
                    "name": "D#5",
                    "midi": 75,
                    "time": 49.21580300000009,
                    "velocity": 0.44881889763779526,
                    "duration": 0.5408330000000063
                },
                {
                    "name": "B4",
                    "midi": 71,
                    "time": 49.21580300000009,
                    "velocity": 0.33070866141732286,
                    "duration": 0.18027766666666878
                },
                {
                    "name": "F#4",
                    "midi": 66,
                    "time": 49.39608066666676,
                    "velocity": 0.29133858267716534,
                    "duration": 0.18027766666666878
                },
                {
                    "name": "D#4",
                    "midi": 63,
                    "time": 49.57635833333343,
                    "velocity": 0.29133858267716534,
                    "duration": 0.18027766666666878
                },
                {
                    "name": "D#5",
                    "midi": 75,
                    "time": 49.7566360000001,
                    "velocity": 0.3543307086614173,
                    "duration": 2.1633320000000253
                },
                {
                    "name": "D#4",
                    "midi": 63,
                    "time": 49.93691366666677,
                    "velocity": 0.2440944881889764,
                    "duration": 0.18027766666666878
                },
                {
                    "name": "F#4",
                    "midi": 66,
                    "time": 50.11719133333344,
                    "velocity": 0.2440944881889764,
                    "duration": 0.18027766666666878
                },
                {
                    "name": "B4",
                    "midi": 71,
                    "time": 50.297469000000106,
                    "velocity": 0.2677165354330709,
                    "duration": 0.18027766666666878
                },
                {
                    "name": "F#4",
                    "midi": 66,
                    "time": 50.477746666666775,
                    "velocity": 0.2204724409448819,
                    "duration": 0.18027766666666878
                },
                {
                    "name": "D#4",
                    "midi": 63,
                    "time": 50.658024333333444,
                    "velocity": 0.2204724409448819,
                    "duration": 0.18027766666666878
                },
                {
                    "name": "F#4",
                    "midi": 66,
                    "time": 50.83830200000011,
                    "velocity": 0.2755905511811024,
                    "duration": 0.18027766666666878
                },
                {
                    "name": "D#4",
                    "midi": 63,
                    "time": 51.01857966666678,
                    "velocity": 0.2204724409448819,
                    "duration": 0.18027766666666878
                },
                {
                    "name": "F#4",
                    "midi": 66,
                    "time": 51.19885733333345,
                    "velocity": 0.2204724409448819,
                    "duration": 0.18027766666666878
                },
                {
                    "name": "B4",
                    "midi": 71,
                    "time": 51.37913500000012,
                    "velocity": 0.2677165354330709,
                    "duration": 0.18027766666666878
                },
                {
                    "name": "F#4",
                    "midi": 66,
                    "time": 51.55941266666679,
                    "velocity": 0.2204724409448819,
                    "duration": 0.18027766666666878
                },
                {
                    "name": "D#4",
                    "midi": 63,
                    "time": 51.739690333333456,
                    "velocity": 0.2204724409448819,
                    "duration": 0.18027766666666878
                },
                {
                    "name": "D#5",
                    "midi": 75,
                    "time": 51.919968000000125,
                    "velocity": 0.3700787401574803,
                    "duration": 2.1633320000000253
                },
                {
                    "name": "D#4",
                    "midi": 63,
                    "time": 52.100245666666794,
                    "velocity": 0.25196850393700787,
                    "duration": 0.18027766666666878
                },
                {
                    "name": "F#4",
                    "midi": 66,
                    "time": 52.28052333333346,
                    "velocity": 0.25196850393700787,
                    "duration": 0.18027766666666878
                },
                {
                    "name": "B4",
                    "midi": 71,
                    "time": 52.46080100000013,
                    "velocity": 0.3543307086614173,
                    "duration": 0.18027766666666878
                },
                {
                    "name": "F#4",
                    "midi": 66,
                    "time": 52.6410786666668,
                    "velocity": 0.25196850393700787,
                    "duration": 0.18027766666666878
                },
                {
                    "name": "D#4",
                    "midi": 63,
                    "time": 52.82135633333347,
                    "velocity": 0.2755905511811024,
                    "duration": 0.18027766666666878
                },
                {
                    "name": "F#4",
                    "midi": 66,
                    "time": 53.00163400000014,
                    "velocity": 0.2440944881889764,
                    "duration": 0.18027766666666878
                },
                {
                    "name": "D#4",
                    "midi": 63,
                    "time": 53.18191166666681,
                    "velocity": 0.2440944881889764,
                    "duration": 0.18027766666666878
                },
                {
                    "name": "F#4",
                    "midi": 66,
                    "time": 53.362189333333475,
                    "velocity": 0.2440944881889764,
                    "duration": 0.18027766666666878
                },
                {
                    "name": "B4",
                    "midi": 71,
                    "time": 53.542467000000144,
                    "velocity": 0.28346456692913385,
                    "duration": 0.18027766666666878
                },
                {
                    "name": "F#4",
                    "midi": 66,
                    "time": 53.72274466666681,
                    "velocity": 0.23622047244094488,
                    "duration": 0.18027766666666878
                },
                {
                    "name": "D#4",
                    "midi": 63,
                    "time": 53.90302233333348,
                    "velocity": 0.23622047244094488,
                    "duration": 0.18027766666666878
                },
                {
                    "name": "D#5",
                    "midi": 75,
                    "time": 54.08330000000015,
                    "velocity": 0.36220472440944884,
                    "duration": 0.5408330000000063
                },
                {
                    "name": "G#4",
                    "midi": 68,
                    "time": 54.26357766666682,
                    "velocity": 0.2283464566929134,
                    "duration": 0.18027766666666878
                },
                {
                    "name": "F4",
                    "midi": 65,
                    "time": 54.44385533333349,
                    "velocity": 0.2283464566929134,
                    "duration": 0.18027766666666878
                },
                {
                    "name": "B4",
                    "midi": 71,
                    "time": 54.62413300000016,
                    "velocity": 0.33858267716535434,
                    "duration": 0.5408330000000063
                },
                {
                    "name": "G#4",
                    "midi": 68,
                    "time": 54.804410666666826,
                    "velocity": 0.2204724409448819,
                    "duration": 0.18027766666666878
                },
                {
                    "name": "F4",
                    "midi": 65,
                    "time": 54.984688333333494,
                    "velocity": 0.2204724409448819,
                    "duration": 0.18027766666666878
                },
                {
                    "name": "A#4",
                    "midi": 70,
                    "time": 55.16496600000016,
                    "velocity": 0.33858267716535434,
                    "duration": 0.5408330000000063
                },
                {
                    "name": "F4",
                    "midi": 65,
                    "time": 55.34524366666683,
                    "velocity": 0.2204724409448819,
                    "duration": 0.18027766666666878
                },
                {
                    "name": "C#4",
                    "midi": 61,
                    "time": 55.5255213333335,
                    "velocity": 0.2204724409448819,
                    "duration": 0.18027766666666878
                },
                {
                    "name": "G#4",
                    "midi": 68,
                    "time": 55.70579900000017,
                    "velocity": 0.30708661417322836,
                    "duration": 0.5408330000000063
                },
                {
                    "name": "F4",
                    "midi": 65,
                    "time": 55.88607666666684,
                    "velocity": 0.2204724409448819,
                    "duration": 0.18027766666666878
                },
                {
                    "name": "C#4",
                    "midi": 61,
                    "time": 56.06635433333351,
                    "velocity": 0.2204724409448819,
                    "duration": 0.18027766666666878
                },
                {
                    "name": "C#5",
                    "midi": 73,
                    "time": 56.246632000000176,
                    "velocity": 0.3700787401574803,
                    "duration": 2.1633320000000253
                },
                {
                    "name": "C#4",
                    "midi": 61,
                    "time": 56.426909666666845,
                    "velocity": 0.25196850393700787,
                    "duration": 0.18027766666666878
                },
                {
                    "name": "F#4",
                    "midi": 66,
                    "time": 56.60718733333351,
                    "velocity": 0.25196850393700787,
                    "duration": 0.18027766666666878
                },
                {
                    "name": "A#4",
                    "midi": 70,
                    "time": 56.78746500000018,
                    "velocity": 0.25196850393700787,
                    "duration": 0.18027766666666878
                },
                {
                    "name": "F#4",
                    "midi": 66,
                    "time": 56.96774266666685,
                    "velocity": 0.25196850393700787,
                    "duration": 0.18027766666666878
                },
                {
                    "name": "C#4",
                    "midi": 61,
                    "time": 57.14802033333352,
                    "velocity": 0.2440944881889764,
                    "duration": 0.18027766666666878
                },
                {
                    "name": "F#4",
                    "midi": 66,
                    "time": 57.32829800000019,
                    "velocity": 0.3228346456692913,
                    "duration": 0.18027766666666878
                },
                {
                    "name": "C#4",
                    "midi": 61,
                    "time": 57.50857566666686,
                    "velocity": 0.2440944881889764,
                    "duration": 0.18027766666666878
                },
                {
                    "name": "F#4",
                    "midi": 66,
                    "time": 57.688853333333526,
                    "velocity": 0.2125984251968504,
                    "duration": 0.18027766666666878
                },
                {
                    "name": "A#4",
                    "midi": 70,
                    "time": 57.869131000000195,
                    "velocity": 0.28346456692913385,
                    "duration": 0.18027766666666878
                },
                {
                    "name": "F#4",
                    "midi": 66,
                    "time": 58.049408666666864,
                    "velocity": 0.23622047244094488,
                    "duration": 0.18027766666666878
                },
                {
                    "name": "C#4",
                    "midi": 61,
                    "time": 58.22968633333353,
                    "velocity": 0.2047244094488189,
                    "duration": 0.18027766666666878
                },
                {
                    "name": "C#5",
                    "midi": 73,
                    "time": 58.4099640000002,
                    "velocity": 0.36220472440944884,
                    "duration": 0.5408330000000063
                },
                {
                    "name": "F#4",
                    "midi": 66,
                    "time": 58.59024166666687,
                    "velocity": 0.2283464566929134,
                    "duration": 0.18027766666666878
                },
                {
                    "name": "D#4",
                    "midi": 63,
                    "time": 58.77051933333354,
                    "velocity": 0.2283464566929134,
                    "duration": 0.18027766666666878
                },
                {
                    "name": "B4",
                    "midi": 71,
                    "time": 58.95079700000021,
                    "velocity": 0.33858267716535434,
                    "duration": 0.5408330000000063
                },
                {
                    "name": "F#4",
                    "midi": 66,
                    "time": 59.131074666666876,
                    "velocity": 0.2204724409448819,
                    "duration": 0.18027766666666878
                },
                {
                    "name": "D#4",
                    "midi": 63,
                    "time": 59.311352333333545,
                    "velocity": 0.2204724409448819,
                    "duration": 0.18027766666666878
                },
                {
                    "name": "G#4",
                    "midi": 68,
                    "time": 59.491630000000214,
                    "velocity": 0.33858267716535434,
                    "duration": 0.5408330000000063
                },
                {
                    "name": "D#4",
                    "midi": 63,
                    "time": 59.67190766666688,
                    "velocity": 0.2204724409448819,
                    "duration": 0.18027766666666878
                },
                {
                    "name": "B3",
                    "midi": 59,
                    "time": 59.85218533333355,
                    "velocity": 0.2204724409448819,
                    "duration": 0.18027766666666878
                },
                {
                    "name": "D#4",
                    "midi": 63,
                    "time": 60.03246300000022,
                    "velocity": 0.30708661417322836,
                    "duration": 0.5408330000000063
                },
                {
                    "name": "B3",
                    "midi": 59,
                    "time": 60.21274066666689,
                    "velocity": 0.2204724409448819,
                    "duration": 0.18027766666666878
                },
                {
                    "name": "G#3",
                    "midi": 56,
                    "time": 60.39301833333356,
                    "velocity": 0.2204724409448819,
                    "duration": 0.18027766666666878
                },
                {
                    "name": "F#4",
                    "midi": 66,
                    "time": 60.57329600000023,
                    "velocity": 0.3700787401574803,
                    "duration": 2.1633320000000253
                },
                {
                    "name": "F#3",
                    "midi": 54,
                    "time": 60.753573666666895,
                    "velocity": 0.2283464566929134,
                    "duration": 0.18027766666666878
                },
                {
                    "name": "A#3",
                    "midi": 58,
                    "time": 60.933851333333564,
                    "velocity": 0.2283464566929134,
                    "duration": 0.18027766666666878
                },
                {
                    "name": "C#4",
                    "midi": 61,
                    "time": 61.11412900000023,
                    "velocity": 0.30708661417322836,
                    "duration": 0.18027766666666878
                },
                {
                    "name": "A#3",
                    "midi": 58,
                    "time": 61.2944066666669,
                    "velocity": 0.2283464566929134,
                    "duration": 0.18027766666666878
                },
                {
                    "name": "F#3",
                    "midi": 54,
                    "time": 61.47468433333357,
                    "velocity": 0.2283464566929134,
                    "duration": 0.18027766666666878
                },
                {
                    "name": "A#3",
                    "midi": 58,
                    "time": 61.65496200000024,
                    "velocity": 0.28346456692913385,
                    "duration": 0.18027766666666878
                },
                {
                    "name": "F#3",
                    "midi": 54,
                    "time": 61.83523966666691,
                    "velocity": 0.23622047244094488,
                    "duration": 0.18027766666666878
                },
                {
                    "name": "A#3",
                    "midi": 58,
                    "time": 62.01551733333358,
                    "velocity": 0.23622047244094488,
                    "duration": 0.18027766666666878
                },
                {
                    "name": "C#4",
                    "midi": 61,
                    "time": 62.195795000000246,
                    "velocity": 0.28346456692913385,
                    "duration": 0.18027766666666878
                },
                {
                    "name": "A#3",
                    "midi": 58,
                    "time": 62.376072666666914,
                    "velocity": 0.23622047244094488,
                    "duration": 0.18027766666666878
                },
                {
                    "name": "F#3",
                    "midi": 54,
                    "time": 62.55635033333358,
                    "velocity": 0.23622047244094488,
                    "duration": 0.18027766666666878
                },
                {
                    "name": "F#4",
                    "midi": 66,
                    "time": 62.73662800000025,
                    "velocity": 0.3543307086614173,
                    "duration": 0.5408330000000063
                },
                {
                    "name": "B3",
                    "midi": 59,
                    "time": 62.91690566666692,
                    "velocity": 0.2283464566929134,
                    "duration": 0.18027766666666878
                },
                {
                    "name": "G#3",
                    "midi": 56,
                    "time": 63.09718333333359,
                    "velocity": 0.2283464566929134,
                    "duration": 0.18027766666666878
                },
                {
                    "name": "F4",
                    "midi": 65,
                    "time": 63.27746100000026,
                    "velocity": 0.3228346456692913,
                    "duration": 0.5408330000000063
                },
                {
                    "name": "B3",
                    "midi": 59,
                    "time": 63.45773866666693,
                    "velocity": 0.2204724409448819,
                    "duration": 0.18027766666666878
                },
                {
                    "name": "G#3",
                    "midi": 56,
                    "time": 63.638016333333596,
                    "velocity": 0.2204724409448819,
                    "duration": 0.18027766666666878
                },
                {
                    "name": "A#4",
                    "midi": 70,
                    "time": 63.818294000000265,
                    "velocity": 0.33070866141732286,
                    "duration": 0.5408330000000063
                },
                {
                    "name": "C#4",
                    "midi": 61,
                    "time": 63.99857166666693,
                    "velocity": 0.2204724409448819,
                    "duration": 0.18027766666666878
                },
                {
                    "name": "B3",
                    "midi": 59,
                    "time": 64.1788493333336,
                    "velocity": 0.2204724409448819,
                    "duration": 0.18027766666666878
                },
                {
                    "name": "G#4",
                    "midi": 68,
                    "time": 64.35912700000027,
                    "velocity": 0.30708661417322836,
                    "duration": 0.5408330000000063
                },
                {
                    "name": "C#4",
                    "midi": 61,
                    "time": 64.53940466666694,
                    "velocity": 0.2047244094488189,
                    "duration": 0.18027766666666878
                },
                {
                    "name": "B3",
                    "midi": 59,
                    "time": 64.71968233333361,
                    "velocity": 0.2047244094488189,
                    "duration": 0.18027766666666878
                },
                {
                    "name": "F#4",
                    "midi": 66,
                    "time": 64.89996000000028,
                    "velocity": 0.3700787401574803,
                    "duration": 2.1633320000000253
                },
                {
                    "name": "F#3",
                    "midi": 54,
                    "time": 65.08023766666695,
                    "velocity": 0.2283464566929134,
                    "duration": 0.18027766666666878
                },
                {
                    "name": "A#3",
                    "midi": 58,
                    "time": 65.26051533333361,
                    "velocity": 0.2283464566929134,
                    "duration": 0.18027766666666878
                },
                {
                    "name": "C#4",
                    "midi": 61,
                    "time": 65.44079300000028,
                    "velocity": 0.2283464566929134,
                    "duration": 0.18027766666666878
                },
                {
                    "name": "A#3",
                    "midi": 58,
                    "time": 65.62107066666695,
                    "velocity": 0.2283464566929134,
                    "duration": 0.18027766666666878
                },
                {
                    "name": "F#3",
                    "midi": 54,
                    "time": 65.80134833333362,
                    "velocity": 0.2047244094488189,
                    "duration": 0.18027766666666878
                },
                {
                    "name": "A#3",
                    "midi": 58,
                    "time": 65.98162600000029,
                    "velocity": 0.28346456692913385,
                    "duration": 0.18027766666666878
                },
                {
                    "name": "F#3",
                    "midi": 54,
                    "time": 66.16190366666696,
                    "velocity": 0.23622047244094488,
                    "duration": 0.18027766666666878
                },
                {
                    "name": "A#3",
                    "midi": 58,
                    "time": 66.34218133333363,
                    "velocity": 0.23622047244094488,
                    "duration": 0.18027766666666878
                },
                {
                    "name": "C#4",
                    "midi": 61,
                    "time": 66.5224590000003,
                    "velocity": 0.28346456692913385,
                    "duration": 0.18027766666666878
                },
                {
                    "name": "A#3",
                    "midi": 58,
                    "time": 66.70273666666696,
                    "velocity": 0.23622047244094488,
                    "duration": 0.18027766666666878
                },
                {
                    "name": "F#3",
                    "midi": 54,
                    "time": 66.88301433333363,
                    "velocity": 0.23622047244094488,
                    "duration": 0.18027766666666878
                },
                {
                    "name": "F#4",
                    "midi": 66,
                    "time": 67.0632920000003,
                    "velocity": 0.3700787401574803,
                    "duration": 1.0816660000000127
                },
                {
                    "name": "F#3",
                    "midi": 54,
                    "time": 67.24356966666697,
                    "velocity": 0.2283464566929134,
                    "duration": 0.18027766666666878
                },
                {
                    "name": "A#3",
                    "midi": 58,
                    "time": 67.42384733333364,
                    "velocity": 0.2283464566929134,
                    "duration": 0.18027766666666878
                },
                {
                    "name": "C#4",
                    "midi": 61,
                    "time": 67.60412500000031,
                    "velocity": 0.28346456692913385,
                    "duration": 0.18027766666666878
                },
                {
                    "name": "A#3",
                    "midi": 58,
                    "time": 67.78440266666698,
                    "velocity": 0.2283464566929134,
                    "duration": 0.18027766666666878
                },
                {
                    "name": "F#3",
                    "midi": 54,
                    "time": 67.96468033333365,
                    "velocity": 0.2440944881889764,
                    "duration": 0.18027766666666878
                },
                {
                    "name": "G4",
                    "midi": 67,
                    "time": 68.14495800000032,
                    "velocity": 0.3700787401574803,
                    "duration": 1.0816660000000127
                },
                {
                    "name": "G3",
                    "midi": 55,
                    "time": 68.32523566666698,
                    "velocity": 0.23622047244094488,
                    "duration": 0.18027766666666878
                },
                {
                    "name": "A#3",
                    "midi": 58,
                    "time": 68.50551333333365,
                    "velocity": 0.23622047244094488,
                    "duration": 0.18027766666666878
                },
                {
                    "name": "C#4",
                    "midi": 61,
                    "time": 68.68579100000032,
                    "velocity": 0.28346456692913385,
                    "duration": 0.18027766666666878
                },
                {
                    "name": "A#3",
                    "midi": 58,
                    "time": 68.86606866666699,
                    "velocity": 0.23622047244094488,
                    "duration": 0.18027766666666878
                },
                {
                    "name": "G3",
                    "midi": 55,
                    "time": 69.04634633333366,
                    "velocity": 0.23622047244094488,
                    "duration": 0.18027766666666878
                },
                {
                    "name": "G#4",
                    "midi": 68,
                    "time": 69.22662400000033,
                    "velocity": 0.3464566929133858,
                    "duration": 2.1633320000000253
                },
                {
                    "name": "G#3",
                    "midi": 56,
                    "time": 69.406901666667,
                    "velocity": 0.2047244094488189,
                    "duration": 0.18027766666666878
                },
                {
                    "name": "C#4",
                    "midi": 61,
                    "time": 69.58717933333367,
                    "velocity": 0.2047244094488189,
                    "duration": 0.18027766666666878
                },
                {
                    "name": "F4",
                    "midi": 65,
                    "time": 69.76745700000033,
                    "velocity": 0.2283464566929134,
                    "duration": 0.18027766666666878
                },
                {
                    "name": "C#4",
                    "midi": 61,
                    "time": 69.947734666667,
                    "velocity": 0.1968503937007874,
                    "duration": 0.18027766666666878
                },
                {
                    "name": "G#3",
                    "midi": 56,
                    "time": 70.12801233333367,
                    "velocity": 0.1968503937007874,
                    "duration": 0.18027766666666878
                },
                {
                    "name": "C#4",
                    "midi": 61,
                    "time": 70.30829000000034,
                    "velocity": 0.23622047244094488,
                    "duration": 0.18027766666666878
                },
                {
                    "name": "G#3",
                    "midi": 56,
                    "time": 70.48856766666701,
                    "velocity": 0.2047244094488189,
                    "duration": 0.18027766666666878
                },
                {
                    "name": "C#4",
                    "midi": 61,
                    "time": 70.66884533333368,
                    "velocity": 0.2047244094488189,
                    "duration": 0.18027766666666878
                },
                {
                    "name": "F4",
                    "midi": 65,
                    "time": 70.84912300000035,
                    "velocity": 0.23622047244094488,
                    "duration": 0.18027766666666878
                },
                {
                    "name": "C#4",
                    "midi": 61,
                    "time": 71.02940066666702,
                    "velocity": 0.2125984251968504,
                    "duration": 0.18027766666666878
                },
                {
                    "name": "G#3",
                    "midi": 56,
                    "time": 71.20967833333368,
                    "velocity": 0.2125984251968504,
                    "duration": 0.18027766666666878
                },
                {
                    "name": "A#4",
                    "midi": 70,
                    "time": 71.38995600000035,
                    "velocity": 0.33858267716535434,
                    "duration": 2.1633320000000253
                },
                {
                    "name": "C#4",
                    "midi": 61,
                    "time": 71.57023366666702,
                    "velocity": 0.2283464566929134,
                    "duration": 0.18027766666666878
                },
                {
                    "name": "E4",
                    "midi": 64,
                    "time": 71.75051133333369,
                    "velocity": 0.2440944881889764,
                    "duration": 0.18027766666666878
                },
                {
                    "name": "G4",
                    "midi": 67,
                    "time": 71.93078900000036,
                    "velocity": 0.33070866141732286,
                    "duration": 0.18027766666666878
                },
                {
                    "name": "E4",
                    "midi": 64,
                    "time": 72.11106666666703,
                    "velocity": 0.2992125984251969,
                    "duration": 0.18027766666666878
                },
                {
                    "name": "C#4",
                    "midi": 61,
                    "time": 72.2913443333337,
                    "velocity": 0.33858267716535434,
                    "duration": 0.18027766666666878
                },
                {
                    "name": "D#4",
                    "midi": 63,
                    "time": 72.47162200000037,
                    "velocity": 0.3779527559055118,
                    "duration": 0.18027766666666878
                },
                {
                    "name": "C#4",
                    "midi": 61,
                    "time": 72.65189966666703,
                    "velocity": 0.4094488188976378,
                    "duration": 0.18027766666666878
                },
                {
                    "name": "D#4",
                    "midi": 63,
                    "time": 72.8321773333337,
                    "velocity": 0.44881889763779526,
                    "duration": 0.18027766666666878
                },
                {
                    "name": "G4",
                    "midi": 67,
                    "time": 73.01245500000037,
                    "velocity": 0.4881889763779528,
                    "duration": 0.18027766666666878
                },
                {
                    "name": "D#4",
                    "midi": 63,
                    "time": 73.19273266666704,
                    "velocity": 0.4566929133858268,
                    "duration": 0.18027766666666878
                },
                {
                    "name": "C#4",
                    "midi": 61,
                    "time": 73.37301033333371,
                    "velocity": 0.47244094488188976,
                    "duration": 0.18027766666666878
                },
                {
                    "name": "C#5",
                    "midi": 73,
                    "time": 73.55328800000038,
                    "velocity": 0.6141732283464567,
                    "duration": 1.622499000000019
                },
                {
                    "name": "C#4",
                    "midi": 61,
                    "time": 73.73356566666705,
                    "velocity": 0.4645669291338583,
                    "duration": 0.18027766666666878
                },
                {
                    "name": "D#4",
                    "midi": 63,
                    "time": 73.91384333333372,
                    "velocity": 0.44881889763779526,
                    "duration": 0.18027766666666878
                },
                {
                    "name": "A#4",
                    "midi": 70,
                    "time": 74.09412100000038,
                    "velocity": 0.5354330708661418,
                    "duration": 0.18027766666666878
                },
                {
                    "name": "D#4",
                    "midi": 63,
                    "time": 74.27439866666705,
                    "velocity": 0.33070866141732286,
                    "duration": 0.18027766666666878
                },
                {
                    "name": "C#4",
                    "midi": 61,
                    "time": 74.45467633333372,
                    "velocity": 0.3700787401574803,
                    "duration": 0.18027766666666878
                },
                {
                    "name": "D#4",
                    "midi": 63,
                    "time": 74.63495400000039,
                    "velocity": 0.4409448818897638,
                    "duration": 0.18027766666666878
                },
                {
                    "name": "C#4",
                    "midi": 61,
                    "time": 74.81523166666706,
                    "velocity": 0.2755905511811024,
                    "duration": 0.18027766666666878
                },
                {
                    "name": "D#4",
                    "midi": 63,
                    "time": 74.99550933333373,
                    "velocity": 0.28346456692913385,
                    "duration": 0.18027766666666878
                },
                {
                    "name": "B4",
                    "midi": 71,
                    "time": 75.1757870000004,
                    "velocity": 0.3937007874015748,
                    "duration": 0.5408330000000063
                },
                {
                    "name": "G#4",
                    "midi": 68,
                    "time": 75.1757870000004,
                    "velocity": 0.29133858267716534,
                    "duration": 0.18027766666666878
                },
                {
                    "name": "D#4",
                    "midi": 63,
                    "time": 75.35606466666707,
                    "velocity": 0.25984251968503935,
                    "duration": 0.18027766666666878
                },
                {
                    "name": "B3",
                    "midi": 59,
                    "time": 75.53634233333374,
                    "velocity": 0.25984251968503935,
                    "duration": 0.18027766666666878
                },
                {
                    "name": "B4",
                    "midi": 71,
                    "time": 75.7166200000004,
                    "velocity": 0.3228346456692913,
                    "duration": 2.1633320000000253
                },
                {
                    "name": "B3",
                    "midi": 59,
                    "time": 75.89689766666707,
                    "velocity": 0.2204724409448819,
                    "duration": 0.18027766666666878
                },
                {
                    "name": "D#4",
                    "midi": 63,
                    "time": 76.07717533333374,
                    "velocity": 0.2204724409448819,
                    "duration": 0.18027766666666878
                },
                {
                    "name": "G#4",
                    "midi": 68,
                    "time": 76.25745300000041,
                    "velocity": 0.23622047244094488,
                    "duration": 0.18027766666666878
                },
                {
                    "name": "D#4",
                    "midi": 63,
                    "time": 76.43773066666708,
                    "velocity": 0.1968503937007874,
                    "duration": 0.18027766666666878
                },
                {
                    "name": "B3",
                    "midi": 59,
                    "time": 76.61800833333375,
                    "velocity": 0.1968503937007874,
                    "duration": 0.18027766666666878
                },
                {
                    "name": "D#4",
                    "midi": 63,
                    "time": 76.79828600000042,
                    "velocity": 0.2440944881889764,
                    "duration": 0.18027766666666878
                },
                {
                    "name": "B3",
                    "midi": 59,
                    "time": 76.97856366666709,
                    "velocity": 0.1968503937007874,
                    "duration": 0.18027766666666878
                },
                {
                    "name": "D#4",
                    "midi": 63,
                    "time": 77.15884133333375,
                    "velocity": 0.1968503937007874,
                    "duration": 0.18027766666666878
                },
                {
                    "name": "G#4",
                    "midi": 68,
                    "time": 77.33911900000042,
                    "velocity": 0.2283464566929134,
                    "duration": 0.18027766666666878
                },
                {
                    "name": "D#4",
                    "midi": 63,
                    "time": 77.51939666666709,
                    "velocity": 0.1968503937007874,
                    "duration": 0.18027766666666878
                },
                {
                    "name": "B3",
                    "midi": 59,
                    "time": 77.69967433333376,
                    "velocity": 0.1968503937007874,
                    "duration": 0.18027766666666878
                },
                {
                    "name": "B4",
                    "midi": 71,
                    "time": 77.87995200000043,
                    "velocity": 0.4251968503937008,
                    "duration": 2.1633320000000253
                },
                {
                    "name": "B3",
                    "midi": 59,
                    "time": 78.0602296666671,
                    "velocity": 0.25984251968503935,
                    "duration": 0.18027766666666878
                },
                {
                    "name": "E4",
                    "midi": 64,
                    "time": 78.24050733333377,
                    "velocity": 0.25984251968503935,
                    "duration": 0.18027766666666878
                },
                {
                    "name": "G#4",
                    "midi": 68,
                    "time": 78.42078500000044,
                    "velocity": 0.29133858267716534,
                    "duration": 0.18027766666666878
                },
                {
                    "name": "E4",
                    "midi": 64,
                    "time": 78.6010626666671,
                    "velocity": 0.25196850393700787,
                    "duration": 0.18027766666666878
                },
                {
                    "name": "B3",
                    "midi": 59,
                    "time": 78.78134033333377,
                    "velocity": 0.25196850393700787,
                    "duration": 0.18027766666666878
                },
                {
                    "name": "E4",
                    "midi": 64,
                    "time": 78.96161800000044,
                    "velocity": 0.30708661417322836,
                    "duration": 0.18027766666666878
                },
                {
                    "name": "B3",
                    "midi": 59,
                    "time": 79.14189566666711,
                    "velocity": 0.25984251968503935,
                    "duration": 0.18027766666666878
                },
                {
                    "name": "E4",
                    "midi": 64,
                    "time": 79.32217333333378,
                    "velocity": 0.25984251968503935,
                    "duration": 0.18027766666666878
                },
                {
                    "name": "G#4",
                    "midi": 68,
                    "time": 79.50245100000045,
                    "velocity": 0.33858267716535434,
                    "duration": 0.18027766666666878
                },
                {
                    "name": "E4",
                    "midi": 64,
                    "time": 79.68272866666712,
                    "velocity": 0.28346456692913385,
                    "duration": 0.18027766666666878
                },
                {
                    "name": "B3",
                    "midi": 59,
                    "time": 79.86300633333379,
                    "velocity": 0.29133858267716534,
                    "duration": 0.18027766666666878
                },
                {
                    "name": "B4",
                    "midi": 71,
                    "time": 80.04328400000045,
                    "velocity": 0.4566929133858268,
                    "duration": 1.0816660000000127
                },
                {
                    "name": "B3",
                    "midi": 59,
                    "time": 80.22356166666712,
                    "velocity": 0.30708661417322836,
                    "duration": 0.18027766666666878
                },
                {
                    "name": "D#4",
                    "midi": 63,
                    "time": 80.40383933333379,
                    "velocity": 0.31496062992125984,
                    "duration": 0.18027766666666878
                },
                {
                    "name": "F#4",
                    "midi": 66,
                    "time": 80.58411700000046,
                    "velocity": 0.3858267716535433,
                    "duration": 0.18027766666666878
                },
                {
                    "name": "D#4",
                    "midi": 63,
                    "time": 80.76439466666713,
                    "velocity": 0.33858267716535434,
                    "duration": 0.18027766666666878
                },
                {
                    "name": "B3",
                    "midi": 59,
                    "time": 80.9446723333338,
                    "velocity": 0.3543307086614173,
                    "duration": 0.18027766666666878
                },
                {
                    "name": "C#5",
                    "midi": 73,
                    "time": 81.12495000000047,
                    "velocity": 0.4251968503937008,
                    "duration": 1.0816660000000127
                },
                {
                    "name": "E4",
                    "midi": 64,
                    "time": 81.30522766666714,
                    "velocity": 0.36220472440944884,
                    "duration": 0.18027766666666878
                },
                {
                    "name": "F#4",
                    "midi": 66,
                    "time": 81.4855053333338,
                    "velocity": 0.3858267716535433,
                    "duration": 0.18027766666666878
                },
                {
                    "name": "A#4",
                    "midi": 70,
                    "time": 81.66578300000047,
                    "velocity": 0.4881889763779528,
                    "duration": 0.18027766666666878
                },
                {
                    "name": "F#4",
                    "midi": 66,
                    "time": 81.84606066666714,
                    "velocity": 0.4645669291338583,
                    "duration": 0.18027766666666878
                },
                {
                    "name": "E4",
                    "midi": 64,
                    "time": 82.02633833333381,
                    "velocity": 0.5275590551181102,
                    "duration": 0.18027766666666878
                },
                {
                    "name": "E5",
                    "midi": 76,
                    "time": 82.20661600000048,
                    "velocity": 0.6062992125984252,
                    "duration": 1.622499000000019
                },
                {
                    "name": "E4",
                    "midi": 64,
                    "time": 82.38689366666715,
                    "velocity": 0.41732283464566927,
                    "duration": 0.18027766666666878
                },
                {
                    "name": "F#4",
                    "midi": 66,
                    "time": 82.56717133333382,
                    "velocity": 0.4094488188976378,
                    "duration": 0.18027766666666878
                },
                {
                    "name": "C#5",
                    "midi": 73,
                    "time": 82.74744900000049,
                    "velocity": 0.49606299212598426,
                    "duration": 0.18027766666666878
                },
                {
                    "name": "F#4",
                    "midi": 66,
                    "time": 82.92772666666716,
                    "velocity": 0.36220472440944884,
                    "duration": 0.18027766666666878
                },
                {
                    "name": "E4",
                    "midi": 64,
                    "time": 83.10800433333382,
                    "velocity": 0.36220472440944884,
                    "duration": 0.18027766666666878
                },
                {
                    "name": "F#4",
                    "midi": 66,
                    "time": 83.28828200000049,
                    "velocity": 0.4251968503937008,
                    "duration": 0.18027766666666878
                },
                {
                    "name": "E4",
                    "midi": 64,
                    "time": 83.46855966666716,
                    "velocity": 0.31496062992125984,
                    "duration": 0.18027766666666878
                },
                {
                    "name": "F#4",
                    "midi": 66,
                    "time": 83.64883733333383,
                    "velocity": 0.31496062992125984,
                    "duration": 0.18027766666666878
                },
                {
                    "name": "D#5",
                    "midi": 75,
                    "time": 83.8291150000005,
                    "velocity": 0.4015748031496063,
                    "duration": 0.5408330000000063
                },
                {
                    "name": "B4",
                    "midi": 71,
                    "time": 83.8291150000005,
                    "velocity": 0.4015748031496063,
                    "duration": 0.18027766666666878
                },
                {
                    "name": "F#4",
                    "midi": 66,
                    "time": 84.00939266666717,
                    "velocity": 0.29133858267716534,
                    "duration": 0.18027766666666878
                },
                {
                    "name": "D#4",
                    "midi": 63,
                    "time": 84.18967033333384,
                    "velocity": 0.29133858267716534,
                    "duration": 0.18027766666666878
                },
                {
                    "name": "D#5",
                    "midi": 75,
                    "time": 84.3699480000005,
                    "velocity": 0.4330708661417323,
                    "duration": 2.1633320000000253
                },
                {
                    "name": "D#4",
                    "midi": 63,
                    "time": 84.55022566666717,
                    "velocity": 0.2755905511811024,
                    "duration": 0.18027766666666878
                },
                {
                    "name": "F#4",
                    "midi": 66,
                    "time": 84.73050333333384,
                    "velocity": 0.2755905511811024,
                    "duration": 0.18027766666666878
                },
                {
                    "name": "B4",
                    "midi": 71,
                    "time": 84.91078100000051,
                    "velocity": 0.3543307086614173,
                    "duration": 0.18027766666666878
                },
                {
                    "name": "F#4",
                    "midi": 66,
                    "time": 85.09105866666718,
                    "velocity": 0.23622047244094488,
                    "duration": 0.18027766666666878
                },
                {
                    "name": "D#4",
                    "midi": 63,
                    "time": 85.27133633333385,
                    "velocity": 0.25196850393700787,
                    "duration": 0.18027766666666878
                },
                {
                    "name": "F#4",
                    "midi": 66,
                    "time": 85.45161400000052,
                    "velocity": 0.33070866141732286,
                    "duration": 0.18027766666666878
                },
                {
                    "name": "D#4",
                    "midi": 63,
                    "time": 85.63189166666719,
                    "velocity": 0.2440944881889764,
                    "duration": 0.18027766666666878
                },
                {
                    "name": "F#4",
                    "midi": 66,
                    "time": 85.81216933333386,
                    "velocity": 0.2440944881889764,
                    "duration": 0.18027766666666878
                },
                {
                    "name": "B4",
                    "midi": 71,
                    "time": 85.99244700000052,
                    "velocity": 0.3228346456692913,
                    "duration": 0.18027766666666878
                },
                {
                    "name": "F#4",
                    "midi": 66,
                    "time": 86.1727246666672,
                    "velocity": 0.2440944881889764,
                    "duration": 0.18027766666666878
                },
                {
                    "name": "D#4",
                    "midi": 63,
                    "time": 86.35300233333386,
                    "velocity": 0.2440944881889764,
                    "duration": 0.18027766666666878
                },
                {
                    "name": "D#5",
                    "midi": 75,
                    "time": 86.53328000000053,
                    "velocity": 0.3700787401574803,
                    "duration": 2.1633320000000253
                },
                {
                    "name": "D#4",
                    "midi": 63,
                    "time": 86.7135576666672,
                    "velocity": 0.25196850393700787,
                    "duration": 0.18027766666666878
                },
                {
                    "name": "F#4",
                    "midi": 66,
                    "time": 86.89383533333387,
                    "velocity": 0.25196850393700787,
                    "duration": 0.18027766666666878
                },
                {
                    "name": "B4",
                    "midi": 71,
                    "time": 87.07411300000054,
                    "velocity": 0.29133858267716534,
                    "duration": 0.18027766666666878
                },
                {
                    "name": "F#4",
                    "midi": 66,
                    "time": 87.2543906666672,
                    "velocity": 0.25196850393700787,
                    "duration": 0.18027766666666878
                },
                {
                    "name": "D#4",
                    "midi": 63,
                    "time": 87.43466833333387,
                    "velocity": 0.25984251968503935,
                    "duration": 0.18027766666666878
                },
                {
                    "name": "F#4",
                    "midi": 66,
                    "time": 87.61494600000054,
                    "velocity": 0.2755905511811024,
                    "duration": 0.18027766666666878
                },
                {
                    "name": "D#4",
                    "midi": 63,
                    "time": 87.79522366666721,
                    "velocity": 0.2440944881889764,
                    "duration": 0.18027766666666878
                },
                {
                    "name": "F#4",
                    "midi": 66,
                    "time": 87.97550133333388,
                    "velocity": 0.2440944881889764,
                    "duration": 0.18027766666666878
                },
                {
                    "name": "B4",
                    "midi": 71,
                    "time": 88.15577900000055,
                    "velocity": 0.28346456692913385,
                    "duration": 0.18027766666666878
                },
                {
                    "name": "F#4",
                    "midi": 66,
                    "time": 88.33605666666722,
                    "velocity": 0.23622047244094488,
                    "duration": 0.18027766666666878
                },
                {
                    "name": "D#4",
                    "midi": 63,
                    "time": 88.51633433333389,
                    "velocity": 0.23622047244094488,
                    "duration": 0.18027766666666878
                },
                {
                    "name": "D#5",
                    "midi": 75,
                    "time": 88.69661200000056,
                    "velocity": 0.3937007874015748,
                    "duration": 0.5408330000000063
                },
                {
                    "name": "G#4",
                    "midi": 68,
                    "time": 88.87688966666722,
                    "velocity": 0.2283464566929134,
                    "duration": 0.18027766666666878
                },
                {
                    "name": "F4",
                    "midi": 65,
                    "time": 89.0571673333339,
                    "velocity": 0.2283464566929134,
                    "duration": 0.18027766666666878
                },
                {
                    "name": "D5",
                    "midi": 74,
                    "time": 89.23744500000056,
                    "velocity": 0.3779527559055118,
                    "duration": 0.5408330000000063
                },
                {
                    "name": "G#4",
                    "midi": 68,
                    "time": 89.41772266666723,
                    "velocity": 0.2204724409448819,
                    "duration": 0.18027766666666878
                },
                {
                    "name": "F4",
                    "midi": 65,
                    "time": 89.5980003333339,
                    "velocity": 0.2204724409448819,
                    "duration": 0.18027766666666878
                },
                {
                    "name": "B4",
                    "midi": 71,
                    "time": 89.77827800000057,
                    "velocity": 0.33070866141732286,
                    "duration": 0.5408330000000063
                },
                {
                    "name": "F4",
                    "midi": 65,
                    "time": 89.95855566666724,
                    "velocity": 0.2204724409448819,
                    "duration": 0.18027766666666878
                },
                {
                    "name": "D4",
                    "midi": 62,
                    "time": 90.1388333333339,
                    "velocity": 0.2204724409448819,
                    "duration": 0.18027766666666878
                },
                {
                    "name": "G#4",
                    "midi": 68,
                    "time": 90.31911100000058,
                    "velocity": 0.30708661417322836,
                    "duration": 0.5408330000000063
                },
                {
                    "name": "F4",
                    "midi": 65,
                    "time": 90.49938866666724,
                    "velocity": 0.2204724409448819,
                    "duration": 0.18027766666666878
                },
                {
                    "name": "C#4",
                    "midi": 61,
                    "time": 90.67966633333391,
                    "velocity": 0.2204724409448819,
                    "duration": 0.18027766666666878
                },
                {
                    "name": "C#5",
                    "midi": 73,
                    "time": 90.85994400000058,
                    "velocity": 0.3700787401574803,
                    "duration": 2.1633320000000253
                },
                {
                    "name": "C#4",
                    "midi": 61,
                    "time": 91.04022166666725,
                    "velocity": 0.25196850393700787,
                    "duration": 0.18027766666666878
                },
                {
                    "name": "F#4",
                    "midi": 66,
                    "time": 91.22049933333392,
                    "velocity": 0.25196850393700787,
                    "duration": 0.18027766666666878
                },
                {
                    "name": "A#4",
                    "midi": 70,
                    "time": 91.40077700000059,
                    "velocity": 0.28346456692913385,
                    "duration": 0.18027766666666878
                },
                {
                    "name": "F#4",
                    "midi": 66,
                    "time": 91.58105466666726,
                    "velocity": 0.25196850393700787,
                    "duration": 0.18027766666666878
                },
                {
                    "name": "C#4",
                    "midi": 61,
                    "time": 91.76133233333393,
                    "velocity": 0.25196850393700787,
                    "duration": 0.18027766666666878
                },
                {
                    "name": "F#4",
                    "midi": 66,
                    "time": 91.9416100000006,
                    "velocity": 0.28346456692913385,
                    "duration": 0.18027766666666878
                },
                {
                    "name": "C#4",
                    "midi": 61,
                    "time": 92.12188766666726,
                    "velocity": 0.2440944881889764,
                    "duration": 0.18027766666666878
                },
                {
                    "name": "F#4",
                    "midi": 66,
                    "time": 92.30216533333393,
                    "velocity": 0.2440944881889764,
                    "duration": 0.18027766666666878
                },
                {
                    "name": "A#4",
                    "midi": 70,
                    "time": 92.4824430000006,
                    "velocity": 0.28346456692913385,
                    "duration": 0.18027766666666878
                },
                {
                    "name": "F#4",
                    "midi": 66,
                    "time": 92.66272066666727,
                    "velocity": 0.23622047244094488,
                    "duration": 0.18027766666666878
                },
                {
                    "name": "C#4",
                    "midi": 61,
                    "time": 92.84299833333394,
                    "velocity": 0.23622047244094488,
                    "duration": 0.18027766666666878
                },
                {
                    "name": "C#5",
                    "midi": 73,
                    "time": 93.0232760000006,
                    "velocity": 0.36220472440944884,
                    "duration": 0.5408330000000063
                },
                {
                    "name": "G4",
                    "midi": 67,
                    "time": 93.20355366666728,
                    "velocity": 0.2283464566929134,
                    "duration": 0.18027766666666878
                },
                {
                    "name": "D#4",
                    "midi": 63,
                    "time": 93.38383133333394,
                    "velocity": 0.2283464566929134,
                    "duration": 0.18027766666666878
                },
                {
                    "name": "B4",
                    "midi": 71,
                    "time": 93.56410900000061,
                    "velocity": 0.33858267716535434,
                    "duration": 0.5408330000000063
                },
                {
                    "name": "G#4",
                    "midi": 68,
                    "time": 93.74438666666728,
                    "velocity": 0.2204724409448819,
                    "duration": 0.18027766666666878
                },
                {
                    "name": "D#4",
                    "midi": 63,
                    "time": 93.92466433333395,
                    "velocity": 0.2204724409448819,
                    "duration": 0.18027766666666878
                },
                {
                    "name": "G#4",
                    "midi": 68,
                    "time": 94.10494200000062,
                    "velocity": 0.33858267716535434,
                    "duration": 0.5408330000000063
                },
                {
                    "name": "D#4",
                    "midi": 63,
                    "time": 94.28521966666729,
                    "velocity": 0.2204724409448819,
                    "duration": 0.18027766666666878
                },
                {
                    "name": "B3",
                    "midi": 59,
                    "time": 94.46549733333396,
                    "velocity": 0.2204724409448819,
                    "duration": 0.18027766666666878
                },
                {
                    "name": "D#4",
                    "midi": 63,
                    "time": 94.64577500000063,
                    "velocity": 0.30708661417322836,
                    "duration": 0.5408330000000063
                },
                {
                    "name": "C4",
                    "midi": 60,
                    "time": 94.8260526666673,
                    "velocity": 0.2204724409448819,
                    "duration": 0.18027766666666878
                },
                {
                    "name": "G#3",
                    "midi": 56,
                    "time": 95.00633033333396,
                    "velocity": 0.2204724409448819,
                    "duration": 0.18027766666666878
                },
                {
                    "name": "F#4",
                    "midi": 66,
                    "time": 95.18660800000063,
                    "velocity": 0.3700787401574803,
                    "duration": 2.1633320000000253
                },
                {
                    "name": "F#3",
                    "midi": 54,
                    "time": 95.3668856666673,
                    "velocity": 0.2283464566929134,
                    "duration": 0.18027766666666878
                },
                {
                    "name": "A#3",
                    "midi": 58,
                    "time": 95.54716333333397,
                    "velocity": 0.2283464566929134,
                    "duration": 0.18027766666666878
                },
                {
                    "name": "C#4",
                    "midi": 61,
                    "time": 95.72744100000064,
                    "velocity": 0.2677165354330709,
                    "duration": 0.18027766666666878
                },
                {
                    "name": "A#3",
                    "midi": 58,
                    "time": 95.90771866666731,
                    "velocity": 0.2283464566929134,
                    "duration": 0.18027766666666878
                },
                {
                    "name": "F#3",
                    "midi": 54,
                    "time": 96.08799633333398,
                    "velocity": 0.23622047244094488,
                    "duration": 0.18027766666666878
                },
                {
                    "name": "A#3",
                    "midi": 58,
                    "time": 96.26827400000064,
                    "velocity": 0.2677165354330709,
                    "duration": 0.18027766666666878
                },
                {
                    "name": "F#3",
                    "midi": 54,
                    "time": 96.44855166666731,
                    "velocity": 0.23622047244094488,
                    "duration": 0.18027766666666878
                },
                {
                    "name": "A#3",
                    "midi": 58,
                    "time": 96.62882933333398,
                    "velocity": 0.23622047244094488,
                    "duration": 0.18027766666666878
                },
                {
                    "name": "C#4",
                    "midi": 61,
                    "time": 96.80910700000065,
                    "velocity": 0.28346456692913385,
                    "duration": 0.18027766666666878
                },
                {
                    "name": "A#3",
                    "midi": 58,
                    "time": 96.98938466666732,
                    "velocity": 0.23622047244094488,
                    "duration": 0.18027766666666878
                },
                {
                    "name": "F#3",
                    "midi": 54,
                    "time": 97.16966233333399,
                    "velocity": 0.23622047244094488,
                    "duration": 0.18027766666666878
                },
                {
                    "name": "F#4",
                    "midi": 66,
                    "time": 97.34994000000066,
                    "velocity": 0.3543307086614173,
                    "duration": 0.5408330000000063
                },
                {
                    "name": "B3",
                    "midi": 59,
                    "time": 97.53021766666733,
                    "velocity": 0.2283464566929134,
                    "duration": 0.18027766666666878
                },
                {
                    "name": "G#3",
                    "midi": 56,
                    "time": 97.710495333334,
                    "velocity": 0.2283464566929134,
                    "duration": 0.18027766666666878
                },
                {
                    "name": "F4",
                    "midi": 65,
                    "time": 97.89077300000066,
                    "velocity": 0.3228346456692913,
                    "duration": 0.5408330000000063
                },
                {
                    "name": "B3",
                    "midi": 59,
                    "time": 98.07105066666733,
                    "velocity": 0.2204724409448819,
                    "duration": 0.18027766666666878
                },
                {
                    "name": "G#3",
                    "midi": 56,
                    "time": 98.251328333334,
                    "velocity": 0.2204724409448819,
                    "duration": 0.18027766666666878
                },
                {
                    "name": "A#4",
                    "midi": 70,
                    "time": 98.43160600000067,
                    "velocity": 0.33070866141732286,
                    "duration": 0.5408330000000063
                },
                {
                    "name": "C#4",
                    "midi": 61,
                    "time": 98.61188366666734,
                    "velocity": 0.2204724409448819,
                    "duration": 0.18027766666666878
                },
                {
                    "name": "B3",
                    "midi": 59,
                    "time": 98.79216133333401,
                    "velocity": 0.2204724409448819,
                    "duration": 0.18027766666666878
                },
                {
                    "name": "G#4",
                    "midi": 68,
                    "time": 98.97243900000068,
                    "velocity": 0.30708661417322836,
                    "duration": 0.5408330000000063
                },
                {
                    "name": "C#4",
                    "midi": 61,
                    "time": 99.15271666666735,
                    "velocity": 0.2047244094488189,
                    "duration": 0.18027766666666878
                },
                {
                    "name": "B3",
                    "midi": 59,
                    "time": 99.33299433333401,
                    "velocity": 0.2047244094488189,
                    "duration": 0.18027766666666878
                },
                {
                    "name": "F#4",
                    "midi": 66,
                    "time": 99.51327200000068,
                    "velocity": 0.3700787401574803,
                    "duration": 4.326664000000051
                },
                {
                    "name": "F#3",
                    "midi": 54,
                    "time": 99.69354966666735,
                    "velocity": 0.2283464566929134,
                    "duration": 0.18027766666666878
                },
                {
                    "name": "A#3",
                    "midi": 58,
                    "time": 99.87382733333402,
                    "velocity": 0.2283464566929134,
                    "duration": 0.18027766666666878
                },
                {
                    "name": "C#4",
                    "midi": 61,
                    "time": 100.05410500000069,
                    "velocity": 0.25984251968503935,
                    "duration": 0.18027766666666878
                },
                {
                    "name": "A#3",
                    "midi": 58,
                    "time": 100.23438266666736,
                    "velocity": 0.2283464566929134,
                    "duration": 0.18027766666666878
                },
                {
                    "name": "F#3",
                    "midi": 54,
                    "time": 100.41466033333403,
                    "velocity": 0.2283464566929134,
                    "duration": 0.18027766666666878
                },
                {
                    "name": "A#3",
                    "midi": 58,
                    "time": 100.5949380000007,
                    "velocity": 0.25196850393700787,
                    "duration": 0.18027766666666878
                },
                {
                    "name": "F#3",
                    "midi": 54,
                    "time": 100.77521566666736,
                    "velocity": 0.23622047244094488,
                    "duration": 0.18027766666666878
                },
                {
                    "name": "A#3",
                    "midi": 58,
                    "time": 100.95549333333403,
                    "velocity": 0.23622047244094488,
                    "duration": 0.18027766666666878
                },
                {
                    "name": "C#4",
                    "midi": 61,
                    "time": 101.1357710000007,
                    "velocity": 0.28346456692913385,
                    "duration": 0.18027766666666878
                },
                {
                    "name": "A#3",
                    "midi": 58,
                    "time": 101.31604866666737,
                    "velocity": 0.23622047244094488,
                    "duration": 0.18027766666666878
                },
                {
                    "name": "F#3",
                    "midi": 54,
                    "time": 101.49632633333404,
                    "velocity": 0.23622047244094488,
                    "duration": 0.18027766666666878
                },
                {
                    "name": "A#3",
                    "midi": 58,
                    "time": 101.67660400000071,
                    "velocity": 0.29133858267716534,
                    "duration": 0.18027766666666878
                },
                {
                    "name": "F#3",
                    "midi": 54,
                    "time": 101.85688166666738,
                    "velocity": 0.2283464566929134,
                    "duration": 0.18027766666666878
                },
                {
                    "name": "A#3",
                    "midi": 58,
                    "time": 102.03715933333405,
                    "velocity": 0.2283464566929134,
                    "duration": 0.18027766666666878
                },
                {
                    "name": "C#4",
                    "midi": 61,
                    "time": 102.21743700000071,
                    "velocity": 0.25196850393700787,
                    "duration": 0.18027766666666878
                },
                {
                    "name": "A#3",
                    "midi": 58,
                    "time": 102.39771466666738,
                    "velocity": 0.2283464566929134,
                    "duration": 0.18027766666666878
                },
                {
                    "name": "F#3",
                    "midi": 54,
                    "time": 102.57799233333405,
                    "velocity": 0.3543307086614173,
                    "duration": 0.18027766666666878
                },
                {
                    "name": "A#3",
                    "midi": 58,
                    "time": 102.75827000000072,
                    "velocity": 0.3779527559055118,
                    "duration": 0.18027766666666878
                },
                {
                    "name": "F#3",
                    "midi": 54,
                    "time": 102.93854766666739,
                    "velocity": 0.4015748031496063,
                    "duration": 0.18027766666666878
                },
                {
                    "name": "A#3",
                    "midi": 58,
                    "time": 103.11882533333406,
                    "velocity": 0.41732283464566927,
                    "duration": 0.18027766666666878
                },
                {
                    "name": "D4",
                    "midi": 62,
                    "time": 103.29910300000073,
                    "velocity": 0.4409448818897638,
                    "duration": 0.18027766666666878
                },
                {
                    "name": "A#3",
                    "midi": 58,
                    "time": 103.4793806666674,
                    "velocity": 0.4645669291338583,
                    "duration": 0.18027766666666878
                },
                {
                    "name": "F#3",
                    "midi": 54,
                    "time": 103.65965833333406,
                    "velocity": 0.48031496062992124,
                    "duration": 0.18027766666666878
                },
                {
                    "name": "A#4",
                    "midi": 70,
                    "time": 103.83993600000073,
                    "velocity": 0.5984251968503937,
                    "duration": 2.1633320000000253
                },
                {
                    "name": "A#3",
                    "midi": 58,
                    "time": 104.0202136666674,
                    "velocity": 0.3937007874015748,
                    "duration": 0.18027766666666878
                },
                {
                    "name": "D#4",
                    "midi": 63,
                    "time": 104.20049133333407,
                    "velocity": 0.3937007874015748,
                    "duration": 0.18027766666666878
                },
                {
                    "name": "F#4",
                    "midi": 66,
                    "time": 104.38076900000074,
                    "velocity": 0.49606299212598426,
                    "duration": 0.18027766666666878
                },
                {
                    "name": "D#4",
                    "midi": 63,
                    "time": 104.56104666666741,
                    "velocity": 0.3858267716535433,
                    "duration": 0.18027766666666878
                },
                {
                    "name": "A#3",
                    "midi": 58,
                    "time": 104.74132433333408,
                    "velocity": 0.3779527559055118,
                    "duration": 0.18027766666666878
                },
                {
                    "name": "D#4",
                    "midi": 63,
                    "time": 104.92160200000075,
                    "velocity": 0.48031496062992124,
                    "duration": 0.18027766666666878
                },
                {
                    "name": "A#3",
                    "midi": 58,
                    "time": 105.10187966666741,
                    "velocity": 0.3779527559055118,
                    "duration": 0.18027766666666878
                },
                {
                    "name": "D#4",
                    "midi": 63,
                    "time": 105.28215733333408,
                    "velocity": 0.3779527559055118,
                    "duration": 0.18027766666666878
                },
                {
                    "name": "F#4",
                    "midi": 66,
                    "time": 105.46243500000075,
                    "velocity": 0.4330708661417323,
                    "duration": 0.18027766666666878
                },
                {
                    "name": "D#4",
                    "midi": 63,
                    "time": 105.64271266666742,
                    "velocity": 0.3700787401574803,
                    "duration": 0.18027766666666878
                },
                {
                    "name": "A#3",
                    "midi": 58,
                    "time": 105.82299033333409,
                    "velocity": 0.3700787401574803,
                    "duration": 0.18027766666666878
                },
                {
                    "name": "A#4",
                    "midi": 70,
                    "time": 106.00326800000076,
                    "velocity": 0.5748031496062992,
                    "duration": 2.1633320000000253
                },
                {
                    "name": "A#3",
                    "midi": 58,
                    "time": 106.18354566666743,
                    "velocity": 0.3464566929133858,
                    "duration": 0.18027766666666878
                },
                {
                    "name": "D#4",
                    "midi": 63,
                    "time": 106.3638233333341,
                    "velocity": 0.3464566929133858,
                    "duration": 0.18027766666666878
                },
                {
                    "name": "F#4",
                    "midi": 66,
                    "time": 106.54410100000077,
                    "velocity": 0.41732283464566927,
                    "duration": 0.18027766666666878
                },
                {
                    "name": "D#4",
                    "midi": 63,
                    "time": 106.72437866666743,
                    "velocity": 0.33858267716535434,
                    "duration": 0.18027766666666878
                },
                {
                    "name": "A#3",
                    "midi": 58,
                    "time": 106.9046563333341,
                    "velocity": 0.33858267716535434,
                    "duration": 0.18027766666666878
                },
                {
                    "name": "D#4",
                    "midi": 63,
                    "time": 107.08493400000077,
                    "velocity": 0.4330708661417323,
                    "duration": 0.18027766666666878
                },
                {
                    "name": "A#3",
                    "midi": 58,
                    "time": 107.26521166666744,
                    "velocity": 0.3464566929133858,
                    "duration": 0.18027766666666878
                },
                {
                    "name": "D#4",
                    "midi": 63,
                    "time": 107.44548933333411,
                    "velocity": 0.3543307086614173,
                    "duration": 0.18027766666666878
                },
                {
                    "name": "F#4",
                    "midi": 66,
                    "time": 107.62576700000078,
                    "velocity": 0.4015748031496063,
                    "duration": 0.18027766666666878
                },
                {
                    "name": "D#4",
                    "midi": 63,
                    "time": 107.80604466666745,
                    "velocity": 0.36220472440944884,
                    "duration": 0.18027766666666878
                },
                {
                    "name": "A#3",
                    "midi": 58,
                    "time": 107.98632233333412,
                    "velocity": 0.36220472440944884,
                    "duration": 0.18027766666666878
                },
                {
                    "name": "A#4",
                    "midi": 70,
                    "time": 108.16660000000078,
                    "velocity": 0.5354330708661418,
                    "duration": 0.5408330000000063
                },
                {
                    "name": "D4",
                    "midi": 62,
                    "time": 108.34687766666745,
                    "velocity": 0.4251968503937008,
                    "duration": 0.18027766666666878
                },
                {
                    "name": "F4",
                    "midi": 65,
                    "time": 108.52715533333412,
                    "velocity": 0.4251968503937008,
                    "duration": 0.18027766666666878
                },
                {
                    "name": "F5",
                    "midi": 77,
                    "time": 108.70743300000079,
                    "velocity": 0.5118110236220472,
                    "duration": 0.5408330000000063
                },
                {
                    "name": "F4",
                    "midi": 65,
                    "time": 108.88771066666746,
                    "velocity": 0.3464566929133858,
                    "duration": 0.18027766666666878
                },
                {
                    "name": "G#4",
                    "midi": 68,
                    "time": 109.06798833333413,
                    "velocity": 0.3464566929133858,
                    "duration": 0.18027766666666878
                },
                {
                    "name": "D5",
                    "midi": 74,
                    "time": 109.2482660000008,
                    "velocity": 0.48031496062992124,
                    "duration": 0.5408330000000063
                },
                {
                    "name": "F4",
                    "midi": 65,
                    "time": 109.42854366666747,
                    "velocity": 0.3228346456692913,
                    "duration": 0.18027766666666878
                },
                {
                    "name": "G#4",
                    "midi": 68,
                    "time": 109.60882133333413,
                    "velocity": 0.3228346456692913,
                    "duration": 0.18027766666666878
                },
                {
                    "name": "B4",
                    "midi": 71,
                    "time": 109.7890990000008,
                    "velocity": 0.4094488188976378,
                    "duration": 0.5408330000000063
                },
                {
                    "name": "F4",
                    "midi": 65,
                    "time": 109.96937666666747,
                    "velocity": 0.2755905511811024,
                    "duration": 0.18027766666666878
                },
                {
                    "name": "G#4",
                    "midi": 68,
                    "time": 110.14965433333414,
                    "velocity": 0.2755905511811024,
                    "duration": 0.18027766666666878
                },
                {
                    "name": "B4",
                    "midi": 71,
                    "time": 110.32993200000081,
                    "velocity": 0.41732283464566927,
                    "duration": 0.5408330000000063
                },
                {
                    "name": "F4",
                    "midi": 65,
                    "time": 110.51020966666748,
                    "velocity": 0.2992125984251969,
                    "duration": 0.18027766666666878
                },
                {
                    "name": "G#4",
                    "midi": 68,
                    "time": 110.69048733333415,
                    "velocity": 0.2992125984251969,
                    "duration": 0.18027766666666878
                },
                {
                    "name": "A#4",
                    "midi": 70,
                    "time": 110.87076500000082,
                    "velocity": 0.3937007874015748,
                    "duration": 0.5408330000000063
                },
                {
                    "name": "F4",
                    "midi": 65,
                    "time": 111.05104266666748,
                    "velocity": 0.2755905511811024,
                    "duration": 0.18027766666666878
                },
                {
                    "name": "G#4",
                    "midi": 68,
                    "time": 111.23132033333415,
                    "velocity": 0.2755905511811024,
                    "duration": 0.18027766666666878
                },
                {
                    "name": "A#4",
                    "midi": 70,
                    "time": 111.41159800000082,
                    "velocity": 0.3858267716535433,
                    "duration": 0.5408330000000063
                },
                {
                    "name": "A#3",
                    "midi": 58,
                    "time": 111.59187566666749,
                    "velocity": 0.29133858267716534,
                    "duration": 0.18027766666666878
                },
                {
                    "name": "F4",
                    "midi": 65,
                    "time": 111.77215333333416,
                    "velocity": 0.2992125984251969,
                    "duration": 0.18027766666666878
                },
                {
                    "name": "G#4",
                    "midi": 68,
                    "time": 111.95243100000083,
                    "velocity": 0.3700787401574803,
                    "duration": 0.5408330000000063
                },
                {
                    "name": "A#3",
                    "midi": 58,
                    "time": 112.1327086666675,
                    "velocity": 0.25196850393700787,
                    "duration": 0.18027766666666878
                },
                {
                    "name": "F4",
                    "midi": 65,
                    "time": 112.31298633333417,
                    "velocity": 0.2440944881889764,
                    "duration": 0.18027766666666878
                },
                {
                    "name": "G#4",
                    "midi": 68,
                    "time": 112.49326400000083,
                    "velocity": 0.3464566929133858,
                    "duration": 0.5408330000000063
                },
                {
                    "name": "A#3",
                    "midi": 58,
                    "time": 112.6735416666675,
                    "velocity": 0.25984251968503935,
                    "duration": 0.18027766666666878
                },
                {
                    "name": "D#4",
                    "midi": 63,
                    "time": 112.85381933333417,
                    "velocity": 0.2755905511811024,
                    "duration": 0.18027766666666878
                },
                {
                    "name": "F#4",
                    "midi": 66,
                    "time": 113.03409700000084,
                    "velocity": 0.3464566929133858,
                    "duration": 0.5408330000000063
                },
                {
                    "name": "A#3",
                    "midi": 58,
                    "time": 113.21437466666751,
                    "velocity": 0.25196850393700787,
                    "duration": 0.18027766666666878
                },
                {
                    "name": "D#4",
                    "midi": 63,
                    "time": 113.39465233333418,
                    "velocity": 0.25196850393700787,
                    "duration": 0.18027766666666878
                },
                {
                    "name": "F4",
                    "midi": 65,
                    "time": 113.57493000000085,
                    "velocity": 0.31496062992125984,
                    "duration": 0.5408330000000063
                },
                {
                    "name": "G#3",
                    "midi": 56,
                    "time": 113.75520766666752,
                    "velocity": 0.2440944881889764,
                    "duration": 0.18027766666666878
                },
                {
                    "name": "B3",
                    "midi": 59,
                    "time": 113.93548533333419,
                    "velocity": 0.2440944881889764,
                    "duration": 0.18027766666666878
                },
                {
                    "name": "G#4",
                    "midi": 68,
                    "time": 114.11576300000085,
                    "velocity": 0.3464566929133858,
                    "duration": 0.5408330000000063
                },
                {
                    "name": "G#3",
                    "midi": 56,
                    "time": 114.29604066666752,
                    "velocity": 0.23622047244094488,
                    "duration": 0.18027766666666878
                },
                {
                    "name": "B3",
                    "midi": 59,
                    "time": 114.47631833333419,
                    "velocity": 0.23622047244094488,
                    "duration": 0.18027766666666878
                },
                {
                    "name": "D#4",
                    "midi": 63,
                    "time": 114.65659600000086,
                    "velocity": 0.33070866141732286,
                    "duration": 1.0816660000000127
                },
                {
                    "name": "D#3",
                    "midi": 51,
                    "time": 114.83687366666753,
                    "velocity": 0.25196850393700787,
                    "duration": 0.18027766666666878
                },
                {
                    "name": "F#3",
                    "midi": 54,
                    "time": 115.0171513333342,
                    "velocity": 0.25196850393700787,
                    "duration": 0.18027766666666878
                },
                {
                    "name": "A#3",
                    "midi": 58,
                    "time": 115.19742900000087,
                    "velocity": 0.30708661417322836,
                    "duration": 0.18027766666666878
                },
                {
                    "name": "F#3",
                    "midi": 54,
                    "time": 115.37770666666754,
                    "velocity": 0.25196850393700787,
                    "duration": 0.18027766666666878
                },
                {
                    "name": "D#3",
                    "midi": 51,
                    "time": 115.5579843333342,
                    "velocity": 0.25196850393700787,
                    "duration": 0.18027766666666878
                },
                {
                    "name": "D4",
                    "midi": 62,
                    "time": 115.73826200000087,
                    "velocity": 0.33070866141732286,
                    "duration": 0.8112495000000024
                },
                {
                    "name": "D3",
                    "midi": 50,
                    "time": 115.91853966666754,
                    "velocity": 0.25984251968503935,
                    "duration": 0.18027766666666878
                },
                {
                    "name": "F3",
                    "midi": 53,
                    "time": 116.09881733333421,
                    "velocity": 0.25984251968503935,
                    "duration": 0.18027766666666878
                },
                {
                    "name": "A#3",
                    "midi": 58,
                    "time": 116.27909500000088,
                    "velocity": 0.33858267716535434,
                    "duration": 0.18027766666666878
                },
                {
                    "name": "F3",
                    "midi": 53,
                    "time": 116.45937266666755,
                    "velocity": 0.3779527559055118,
                    "duration": 0.18027766666665457
                },
                {
                    "name": "A#4",
                    "midi": 70,
                    "time": 116.6396503333342,
                    "velocity": 0.4251968503937008,
                    "duration": 0.16901031250000642
                },
                {
                    "name": "A#4",
                    "midi": 70,
                    "time": 116.81992800000087,
                    "velocity": 0.5196850393700787,
                    "duration": 2.1633320000000253
                },
                {
                    "name": "A#3",
                    "midi": 58,
                    "time": 117.00020566666754,
                    "velocity": 0.3779527559055118,
                    "duration": 0.18027766666666878
                },
                {
                    "name": "D#4",
                    "midi": 63,
                    "time": 117.18048333333421,
                    "velocity": 0.3779527559055118,
                    "duration": 0.18027766666666878
                },
                {
                    "name": "F#4",
                    "midi": 66,
                    "time": 117.36076100000088,
                    "velocity": 0.4409448818897638,
                    "duration": 0.18027766666666878
                },
                {
                    "name": "D#4",
                    "midi": 63,
                    "time": 117.54103866666755,
                    "velocity": 0.3779527559055118,
                    "duration": 0.18027766666666878
                },
                {
                    "name": "A#3",
                    "midi": 58,
                    "time": 117.72131633333422,
                    "velocity": 0.3779527559055118,
                    "duration": 0.18027766666666878
                },
                {
                    "name": "D#4",
                    "midi": 63,
                    "time": 117.90159400000088,
                    "velocity": 0.4409448818897638,
                    "duration": 0.18027766666666878
                },
                {
                    "name": "A#3",
                    "midi": 58,
                    "time": 118.08187166666755,
                    "velocity": 0.3779527559055118,
                    "duration": 0.18027766666666878
                },
                {
                    "name": "D#4",
                    "midi": 63,
                    "time": 118.26214933333422,
                    "velocity": 0.3779527559055118,
                    "duration": 0.18027766666666878
                },
                {
                    "name": "F#4",
                    "midi": 66,
                    "time": 118.44242700000089,
                    "velocity": 0.3779527559055118,
                    "duration": 0.18027766666666878
                },
                {
                    "name": "D#4",
                    "midi": 63,
                    "time": 118.62270466666756,
                    "velocity": 0.3779527559055118,
                    "duration": 0.18027766666666878
                },
                {
                    "name": "A#3",
                    "midi": 58,
                    "time": 118.80298233333423,
                    "velocity": 0.3464566929133858,
                    "duration": 0.18027766666666878
                },
                {
                    "name": "A#4",
                    "midi": 70,
                    "time": 118.9832600000009,
                    "velocity": 0.4881889763779528,
                    "duration": 1.622499000000019
                },
                {
                    "name": "A#3",
                    "midi": 58,
                    "time": 119.16353766666757,
                    "velocity": 0.3228346456692913,
                    "duration": 0.18027766666666878
                },
                {
                    "name": "D#4",
                    "midi": 63,
                    "time": 119.34381533333423,
                    "velocity": 0.3464566929133858,
                    "duration": 0.18027766666666878
                },
                {
                    "name": "F#4",
                    "midi": 66,
                    "time": 119.5240930000009,
                    "velocity": 0.3858267716535433,
                    "duration": 0.18027766666666878
                },
                {
                    "name": "D#4",
                    "midi": 63,
                    "time": 119.70437066666757,
                    "velocity": 0.3543307086614173,
                    "duration": 0.18027766666666878
                },
                {
                    "name": "A#3",
                    "midi": 58,
                    "time": 119.88464833333424,
                    "velocity": 0.3464566929133858,
                    "duration": 0.18027766666666878
                },
                {
                    "name": "D#4",
                    "midi": 63,
                    "time": 120.06492600000091,
                    "velocity": 0.4015748031496063,
                    "duration": 0.18027766666666878
                },
                {
                    "name": "A#3",
                    "midi": 58,
                    "time": 120.24520366666758,
                    "velocity": 0.3700787401574803,
                    "duration": 0.18027766666666878
                },
                {
                    "name": "D#4",
                    "midi": 63,
                    "time": 120.42548133333425,
                    "velocity": 0.3464566929133858,
                    "duration": 0.18027766666666878
                },
                {
                    "name": "B4",
                    "midi": 71,
                    "time": 120.60575900000092,
                    "velocity": 0.47244094488188976,
                    "duration": 0.5408330000000063
                },
                {
                    "name": "F#4",
                    "midi": 66,
                    "time": 120.60575900000092,
                    "velocity": 0.3700787401574803,
                    "duration": 0.18027766666666878
                },
                {
                    "name": "D#4",
                    "midi": 63,
                    "time": 120.78603666666758,
                    "velocity": 0.33070866141732286,
                    "duration": 0.18027766666666878
                },
                {
                    "name": "A#3",
                    "midi": 58,
                    "time": 120.96631433333425,
                    "velocity": 0.33070866141732286,
                    "duration": 0.18027766666666878
                },
                {
                    "name": "A#4",
                    "midi": 70,
                    "time": 121.14659200000092,
                    "velocity": 0.4330708661417323,
                    "duration": 0.5408330000000063
                },
                {
                    "name": "D4",
                    "midi": 62,
                    "time": 121.32686966666759,
                    "velocity": 0.36220472440944884,
                    "duration": 0.18027766666666878
                },
                {
                    "name": "F4",
                    "midi": 65,
                    "time": 121.50714733333426,
                    "velocity": 0.36220472440944884,
                    "duration": 0.18027766666666878
                },
                {
                    "name": "F5",
                    "midi": 77,
                    "time": 121.68742500000093,
                    "velocity": 0.4645669291338583,
                    "duration": 0.5408330000000063
                },
                {
                    "name": "F4",
                    "midi": 65,
                    "time": 121.8677026666676,
                    "velocity": 0.3464566929133858,
                    "duration": 0.18027766666666878
                },
                {
                    "name": "G#4",
                    "midi": 68,
                    "time": 122.04798033333427,
                    "velocity": 0.3464566929133858,
                    "duration": 0.18027766666666878
                },
                {
                    "name": "D5",
                    "midi": 74,
                    "time": 122.22825800000093,
                    "velocity": 0.41732283464566927,
                    "duration": 0.5408330000000063
                },
                {
                    "name": "F4",
                    "midi": 65,
                    "time": 122.4085356666676,
                    "velocity": 0.3228346456692913,
                    "duration": 0.18027766666666878
                },
                {
                    "name": "G#4",
                    "midi": 68,
                    "time": 122.58881333333427,
                    "velocity": 0.3228346456692913,
                    "duration": 0.18027766666666878
                },
                {
                    "name": "B4",
                    "midi": 71,
                    "time": 122.76909100000094,
                    "velocity": 0.3700787401574803,
                    "duration": 0.5408330000000063
                },
                {
                    "name": "F4",
                    "midi": 65,
                    "time": 122.94936866666761,
                    "velocity": 0.2755905511811024,
                    "duration": 0.18027766666666878
                },
                {
                    "name": "G#4",
                    "midi": 68,
                    "time": 123.12964633333428,
                    "velocity": 0.2755905511811024,
                    "duration": 0.18027766666666878
                },
                {
                    "name": "A#4",
                    "midi": 70,
                    "time": 123.30992400000095,
                    "velocity": 0.41732283464566927,
                    "duration": 0.5408330000000063
                },
                {
                    "name": "F4",
                    "midi": 65,
                    "time": 123.49020166666762,
                    "velocity": 0.2992125984251969,
                    "duration": 0.18027766666666878
                },
                {
                    "name": "G#4",
                    "midi": 68,
                    "time": 123.67047933333428,
                    "velocity": 0.2992125984251969,
                    "duration": 0.18027766666666878
                },
                {
                    "name": "B4",
                    "midi": 71,
                    "time": 123.85075700000095,
                    "velocity": 0.3937007874015748,
                    "duration": 0.5408330000000063
                },
                {
                    "name": "F4",
                    "midi": 65,
                    "time": 124.03103466666762,
                    "velocity": 0.2755905511811024,
                    "duration": 0.18027766666666878
                },
                {
                    "name": "G#4",
                    "midi": 68,
                    "time": 124.21131233333429,
                    "velocity": 0.2755905511811024,
                    "duration": 0.18027766666666878
                },
                {
                    "name": "A#4",
                    "midi": 70,
                    "time": 124.39159000000096,
                    "velocity": 0.3858267716535433,
                    "duration": 0.5408330000000063
                },
                {
                    "name": "A#3",
                    "midi": 58,
                    "time": 124.57186766666763,
                    "velocity": 0.29133858267716534,
                    "duration": 0.18027766666666878
                },
                {
                    "name": "F4",
                    "midi": 65,
                    "time": 124.7521453333343,
                    "velocity": 0.2992125984251969,
                    "duration": 0.18027766666666878
                },
                {
                    "name": "G#4",
                    "midi": 68,
                    "time": 124.93242300000097,
                    "velocity": 0.3700787401574803,
                    "duration": 0.5408330000000063
                },
                {
                    "name": "A#3",
                    "midi": 58,
                    "time": 125.11270066666764,
                    "velocity": 0.25196850393700787,
                    "duration": 0.18027766666666878
                },
                {
                    "name": "F4",
                    "midi": 65,
                    "time": 125.2929783333343,
                    "velocity": 0.2440944881889764,
                    "duration": 0.18027766666666878
                },
                {
                    "name": "G#4",
                    "midi": 68,
                    "time": 125.47325600000097,
                    "velocity": 0.3464566929133858,
                    "duration": 0.18027766666666878
                },
                {
                    "name": "A#3",
                    "midi": 58,
                    "time": 125.65353366666764,
                    "velocity": 0.25984251968503935,
                    "duration": 0.18027766666666878
                },
                {
                    "name": "D#4",
                    "midi": 63,
                    "time": 125.83381133333431,
                    "velocity": 0.2755905511811024,
                    "duration": 0.18027766666666878
                },
                {
                    "name": "F#4",
                    "midi": 66,
                    "time": 126.01408900000098,
                    "velocity": 0.3464566929133858,
                    "duration": 0.18027766666666878
                },
                {
                    "name": "A#3",
                    "midi": 58,
                    "time": 126.19436666666765,
                    "velocity": 0.25196850393700787,
                    "duration": 0.18027766666666878
                },
                {
                    "name": "D#4",
                    "midi": 63,
                    "time": 126.37464433333432,
                    "velocity": 0.25196850393700787,
                    "duration": 0.18027766666666878
                },
                {
                    "name": "F4",
                    "midi": 65,
                    "time": 126.55492200000099,
                    "velocity": 0.31496062992125984,
                    "duration": 0.18027766666666878
                },
                {
                    "name": "G#3",
                    "midi": 56,
                    "time": 126.73519966666765,
                    "velocity": 0.2440944881889764,
                    "duration": 0.18027766666666878
                },
                {
                    "name": "B3",
                    "midi": 59,
                    "time": 126.91547733333432,
                    "velocity": 0.2440944881889764,
                    "duration": 0.18027766666666878
                },
                {
                    "name": "B4",
                    "midi": 71,
                    "time": 127.09575500000099,
                    "velocity": 0.3464566929133858,
                    "duration": 0.18027766666666878
                },
                {
                    "name": "B3",
                    "midi": 59,
                    "time": 127.27603266666766,
                    "velocity": 0.23622047244094488,
                    "duration": 0.18027766666666878
                },
                {
                    "name": "F4",
                    "midi": 65,
                    "time": 127.45631033333433,
                    "velocity": 0.23622047244094488,
                    "duration": 0.18027766666666878
                },
                {
                    "name": "D#4",
                    "midi": 63,
                    "time": 127.636588000001,
                    "velocity": 0.33070866141732286,
                    "duration": 1.08166599999997
                },
                {
                    "name": "D#3",
                    "midi": 51,
                    "time": 127.81686566666767,
                    "velocity": 0.25196850393700787,
                    "duration": 0.18027766666666878
                },
                {
                    "name": "F#3",
                    "midi": 54,
                    "time": 127.99714333333434,
                    "velocity": 0.25196850393700787,
                    "duration": 0.18027766666666878
                },
                {
                    "name": "A#3",
                    "midi": 58,
                    "time": 128.177421000001,
                    "velocity": 0.25196850393700787,
                    "duration": 0.18027766666665457
                },
                {
                    "name": "F#3",
                    "midi": 54,
                    "time": 128.35769866666766,
                    "velocity": 0.25196850393700787,
                    "duration": 0.18027766666665457
                },
                {
                    "name": "D#3",
                    "midi": 51,
                    "time": 128.5379763333343,
                    "velocity": 0.25196850393700787,
                    "duration": 0.18027766666665457
                },
                {
                    "name": "D4",
                    "midi": 62,
                    "time": 128.71825400000097,
                    "velocity": 0.33070866141732286,
                    "duration": 0.8112494999999456
                },
                {
                    "name": "D3",
                    "midi": 50,
                    "time": 128.89853166666762,
                    "velocity": 0.25984251968503935,
                    "duration": 0.18027766666665457
                },
                {
                    "name": "A#3",
                    "midi": 58,
                    "time": 129.07880933333428,
                    "velocity": 0.25984251968503935,
                    "duration": 0.18027766666665457
                },
                {
                    "name": "F3",
                    "midi": 53,
                    "time": 129.07880933333428,
                    "velocity": 0.25984251968503935,
                    "duration": 0.18027766666665457
                },
                {
                    "name": "A#4",
                    "midi": 70,
                    "time": 129.25908700000093,
                    "velocity": 0.25984251968503935,
                    "duration": 0.5408329999999637
                },
                {
                    "name": "A#3",
                    "midi": 58,
                    "time": 129.4393646666676,
                    "velocity": 0.25984251968503935,
                    "duration": 0.18027766666665457
                },
                {
                    "name": "F4",
                    "midi": 65,
                    "time": 129.61964233333424,
                    "velocity": 0.3464566929133858,
                    "duration": 0.18027766666665457
                },
                {
                    "name": "G#4",
                    "midi": 68,
                    "time": 129.7999200000009,
                    "velocity": 0.29133858267716534,
                    "duration": 0.18027766666665457
                },
                {
                    "name": "A#3",
                    "midi": 58,
                    "time": 129.98019766666755,
                    "velocity": 0.2204724409448819,
                    "duration": 0.18027766666665457
                },
                {
                    "name": "D#4",
                    "midi": 63,
                    "time": 130.1604753333342,
                    "velocity": 0.2283464566929134,
                    "duration": 0.18027766666665457
                },
                {
                    "name": "F#4",
                    "midi": 66,
                    "time": 130.34075300000086,
                    "velocity": 0.29133858267716534,
                    "duration": 0.18027766666665457
                },
                {
                    "name": "A#3",
                    "midi": 58,
                    "time": 130.5210306666675,
                    "velocity": 0.2125984251968504,
                    "duration": 0.18027766666665457
                },
                {
                    "name": "D#4",
                    "midi": 63,
                    "time": 130.70130833333417,
                    "velocity": 0.2125984251968504,
                    "duration": 0.18027766666665457
                },
                {
                    "name": "E4",
                    "midi": 64,
                    "time": 130.88158600000082,
                    "velocity": 0.2677165354330709,
                    "duration": 0.18027766666665457
                },
                {
                    "name": "G#3",
                    "midi": 56,
                    "time": 131.06186366666748,
                    "velocity": 0.2047244094488189,
                    "duration": 0.18027766666665457
                },
                {
                    "name": "B3",
                    "midi": 59,
                    "time": 131.24214133333413,
                    "velocity": 0.2047244094488189,
                    "duration": 0.18027766666665457
                },
                {
                    "name": "B4",
                    "midi": 71,
                    "time": 131.4224190000008,
                    "velocity": 0.29133858267716534,
                    "duration": 0.18027766666665457
                },
                {
                    "name": "B3",
                    "midi": 59,
                    "time": 131.60269666666744,
                    "velocity": 0.1968503937007874,
                    "duration": 0.18027766666665457
                },
                {
                    "name": "E4",
                    "midi": 64,
                    "time": 131.7829743333341,
                    "velocity": 0.1968503937007874,
                    "duration": 0.18027766666665457
                },
                {
                    "name": "D#4",
                    "midi": 63,
                    "time": 131.96325200000075,
                    "velocity": 0.2755905511811024,
                    "duration": 1.0816659999999274
                },
                {
                    "name": "D#3",
                    "midi": 51,
                    "time": 132.1435296666674,
                    "velocity": 0.2125984251968504,
                    "duration": 0.18027766666665457
                },
                {
                    "name": "F#3",
                    "midi": 54,
                    "time": 132.32380733333406,
                    "velocity": 0.2125984251968504,
                    "duration": 0.18027766666665457
                },
                {
                    "name": "B3",
                    "midi": 59,
                    "time": 132.5040850000007,
                    "velocity": 0.2125984251968504,
                    "duration": 0.18027766666665457
                },
                {
                    "name": "F#3",
                    "midi": 54,
                    "time": 132.68436266666737,
                    "velocity": 0.2125984251968504,
                    "duration": 0.18027766666665457
                },
                {
                    "name": "D#3",
                    "midi": 51,
                    "time": 132.86464033333402,
                    "velocity": 0.2125984251968504,
                    "duration": 0.18027766666665457
                },
                {
                    "name": "C#4",
                    "midi": 61,
                    "time": 133.04491800000068,
                    "velocity": 0.2755905511811024,
                    "duration": 1.0816659999999274
                },
                {
                    "name": "C#3",
                    "midi": 49,
                    "time": 133.22519566666733,
                    "velocity": 0.2204724409448819,
                    "duration": 0.18027766666665457
                },
                {
                    "name": "F#3",
                    "midi": 54,
                    "time": 133.405473333334,
                    "velocity": 0.2204724409448819,
                    "duration": 0.18027766666665457
                },
                {
                    "name": "A#3",
                    "midi": 58,
                    "time": 133.58575100000064,
                    "velocity": 0.2204724409448819,
                    "duration": 0.18027766666665457
                },
                {
                    "name": "F#3",
                    "midi": 54,
                    "time": 133.7660286666673,
                    "velocity": 0.2204724409448819,
                    "duration": 0.18027766666665457
                },
                {
                    "name": "C#3",
                    "midi": 49,
                    "time": 133.94630633333395,
                    "velocity": 0.2440944881889764,
                    "duration": 0.18027766666665457
                },
                {
                    "name": "F#4",
                    "midi": 66,
                    "time": 134.1265840000006,
                    "velocity": 0.30708661417322836,
                    "duration": 2.163331999999855
                },
                {
                    "name": "F#3",
                    "midi": 54,
                    "time": 134.30686166666726,
                    "velocity": 0.1889763779527559,
                    "duration": 0.18027766666665457
                },
                {
                    "name": "B3",
                    "midi": 59,
                    "time": 134.48713933333391,
                    "velocity": 0.1889763779527559,
                    "duration": 0.18027766666665457
                },
                {
                    "name": "D#4",
                    "midi": 63,
                    "time": 134.66741700000057,
                    "velocity": 0.1889763779527559,
                    "duration": 0.18027766666665457
                },
                {
                    "name": "B3",
                    "midi": 59,
                    "time": 134.84769466666722,
                    "velocity": 0.1889763779527559,
                    "duration": 0.18027766666665457
                },
                {
                    "name": "F#3",
                    "midi": 54,
                    "time": 135.02797233333388,
                    "velocity": 0.1889763779527559,
                    "duration": 0.18027766666665457
                },
                {
                    "name": "B3",
                    "midi": 59,
                    "time": 135.20825000000053,
                    "velocity": 0.2125984251968504,
                    "duration": 0.18027766666665457
                },
                {
                    "name": "F#3",
                    "midi": 54,
                    "time": 135.3885276666672,
                    "velocity": 0.1889763779527559,
                    "duration": 0.18027766666665457
                },
                {
                    "name": "B3",
                    "midi": 59,
                    "time": 135.56880533333384,
                    "velocity": 0.1732283464566929,
                    "duration": 0.18027766666665457
                },
                {
                    "name": "D#4",
                    "midi": 63,
                    "time": 135.7490830000005,
                    "velocity": 0.1968503937007874,
                    "duration": 0.18027766666665457
                },
                {
                    "name": "B3",
                    "midi": 59,
                    "time": 135.92936066666715,
                    "velocity": 0.18110236220472442,
                    "duration": 0.18027766666665457
                },
                {
                    "name": "F#3",
                    "midi": 54,
                    "time": 136.1096383333338,
                    "velocity": 0.1732283464566929,
                    "duration": 0.18027766666665457
                },
                {
                    "name": "F#4",
                    "midi": 66,
                    "time": 136.28991600000046,
                    "velocity": 0.2755905511811024,
                    "duration": 1.0816659999999274
                },
                {
                    "name": "F#3",
                    "midi": 54,
                    "time": 136.47019366666711,
                    "velocity": 0.1968503937007874,
                    "duration": 0.18027766666665457
                },
                {
                    "name": "A#3",
                    "midi": 58,
                    "time": 136.65047133333377,
                    "velocity": 0.2047244094488189,
                    "duration": 0.18027766666665457
                },
                {
                    "name": "E4",
                    "midi": 64,
                    "time": 136.83074900000042,
                    "velocity": 0.2204724409448819,
                    "duration": 0.18027766666665457
                },
                {
                    "name": "A#3",
                    "midi": 58,
                    "time": 137.01102666666708,
                    "velocity": 0.1968503937007874,
                    "duration": 0.18027766666665457
                },
                {
                    "name": "F#3",
                    "midi": 54,
                    "time": 137.19130433333373,
                    "velocity": 0.1968503937007874,
                    "duration": 0.18027766666665457
                },
                {
                    "name": "G#4",
                    "midi": 68,
                    "time": 137.3715820000004,
                    "velocity": 0.2677165354330709,
                    "duration": 0.5408329999999637
                },
                {
                    "name": "A#3",
                    "midi": 58,
                    "time": 137.55185966666704,
                    "velocity": 0.2125984251968504,
                    "duration": 0.18027766666665457
                },
                {
                    "name": "E4",
                    "midi": 64,
                    "time": 137.7321373333337,
                    "velocity": 0.2125984251968504,
                    "duration": 0.18027766666665457
                },
                {
                    "name": "F#4",
                    "midi": 66,
                    "time": 137.91241500000035,
                    "velocity": 0.25984251968503935,
                    "duration": 0.5408329999999637
                },
                {
                    "name": "E4",
                    "midi": 64,
                    "time": 138.092692666667,
                    "velocity": 0.2125984251968504,
                    "duration": 0.18027766666665457
                },
                {
                    "name": "A#3",
                    "midi": 58,
                    "time": 138.27297033333366,
                    "velocity": 0.2125984251968504,
                    "duration": 0.18027766666665457
                },
                {
                    "name": "D#5",
                    "midi": 75,
                    "time": 138.45324800000031,
                    "velocity": 0.3228346456692913,
                    "duration": 1.6224989999998911
                },
                {
                    "name": "D#4",
                    "midi": 63,
                    "time": 138.63352566666697,
                    "velocity": 0.1968503937007874,
                    "duration": 0.18027766666665457
                },
                {
                    "name": "F#4",
                    "midi": 66,
                    "time": 138.81380333333362,
                    "velocity": 0.1968503937007874,
                    "duration": 0.18027766666665457
                },
                {
                    "name": "B4",
                    "midi": 71,
                    "time": 138.99408100000028,
                    "velocity": 0.2440944881889764,
                    "duration": 0.18027766666665457
                },
                {
                    "name": "F#4",
                    "midi": 66,
                    "time": 139.17435866666693,
                    "velocity": 0.1968503937007874,
                    "duration": 0.18027766666665457
                },
                {
                    "name": "D#4",
                    "midi": 63,
                    "time": 139.3546363333336,
                    "velocity": 0.1968503937007874,
                    "duration": 0.18027766666665457
                },
                {
                    "name": "F#4",
                    "midi": 66,
                    "time": 139.53491400000024,
                    "velocity": 0.2204724409448819,
                    "duration": 0.18027766666665457
                },
                {
                    "name": "D#4",
                    "midi": 63,
                    "time": 139.7151916666669,
                    "velocity": 0.1968503937007874,
                    "duration": 0.18027766666665457
                },
                {
                    "name": "F#4",
                    "midi": 66,
                    "time": 139.89546933333355,
                    "velocity": 0.2204724409448819,
                    "duration": 0.18027766666665457
                },
                {
                    "name": "C#5",
                    "midi": 73,
                    "time": 140.0757470000002,
                    "velocity": 0.2440944881889764,
                    "duration": 0.5408329999999637
                },
                {
                    "name": "G4",
                    "midi": 67,
                    "time": 140.25602466666686,
                    "velocity": 0.18110236220472442,
                    "duration": 0.18027766666665457
                },
                {
                    "name": "D#4",
                    "midi": 63,
                    "time": 140.43630233333351,
                    "velocity": 0.18110236220472442,
                    "duration": 0.18027766666665457
                },
                {
                    "name": "C#5",
                    "midi": 73,
                    "time": 140.61658000000017,
                    "velocity": 0.29133858267716534,
                    "duration": 0.5408329999999637
                },
                {
                    "name": "G#4",
                    "midi": 68,
                    "time": 140.79685766666682,
                    "velocity": 0.1968503937007874,
                    "duration": 0.18027766666665457
                },
                {
                    "name": "B3",
                    "midi": 59,
                    "time": 140.97713533333348,
                    "velocity": 0.18110236220472442,
                    "duration": 0.18027766666665457
                },
                {
                    "name": "B4",
                    "midi": 71,
                    "time": 141.15741300000013,
                    "velocity": 0.28346456692913385,
                    "duration": 0.5408329999999637
                },
                {
                    "name": "G#4",
                    "midi": 68,
                    "time": 141.3376906666668,
                    "velocity": 0.1732283464566929,
                    "duration": 0.18027766666665457
                },
                {
                    "name": "B3",
                    "midi": 59,
                    "time": 141.51796833333344,
                    "velocity": 0.1732283464566929,
                    "duration": 0.18027766666665457
                },
                {
                    "name": "G#4",
                    "midi": 68,
                    "time": 141.6982460000001,
                    "velocity": 0.2755905511811024,
                    "duration": 0.5408329999999637
                },
                {
                    "name": "E4",
                    "midi": 64,
                    "time": 141.87852366666675,
                    "velocity": 0.18110236220472442,
                    "duration": 0.18027766666665457
                },
                {
                    "name": "B3",
                    "midi": 59,
                    "time": 142.0588013333334,
                    "velocity": 0.18110236220472442,
                    "duration": 0.18027766666665457
                },
                {
                    "name": "E4",
                    "midi": 64,
                    "time": 142.23907900000006,
                    "velocity": 0.2440944881889764,
                    "duration": 0.5408329999999637
                },
                {
                    "name": "C#4",
                    "midi": 61,
                    "time": 142.41935666666672,
                    "velocity": 0.1732283464566929,
                    "duration": 0.18027766666665457
                },
                {
                    "name": "G#3",
                    "midi": 56,
                    "time": 142.59963433333337,
                    "velocity": 0.1732283464566929,
                    "duration": 0.18027766666665457
                },
                {
                    "name": "D#4",
                    "midi": 63,
                    "time": 142.77991200000002,
                    "velocity": 0.2992125984251969,
                    "duration": 1.6224989999998911
                },
                {
                    "name": "D#3",
                    "midi": 51,
                    "time": 142.96018966666668,
                    "velocity": 0.2047244094488189,
                    "duration": 0.18027766666665457
                },
                {
                    "name": "F#3",
                    "midi": 54,
                    "time": 143.14046733333333,
                    "velocity": 0.2047244094488189,
                    "duration": 0.18027766666665457
                },
                {
                    "name": "B3",
                    "midi": 59,
                    "time": 143.320745,
                    "velocity": 0.2204724409448819,
                    "duration": 0.18027766666665457
                },
                {
                    "name": "F#3",
                    "midi": 54,
                    "time": 143.50102266666664,
                    "velocity": 0.2047244094488189,
                    "duration": 0.18027766666665457
                },
                {
                    "name": "D#3",
                    "midi": 51,
                    "time": 143.6813003333333,
                    "velocity": 0.2047244094488189,
                    "duration": 0.18027766666665457
                },
                {
                    "name": "F#3",
                    "midi": 54,
                    "time": 143.86157799999995,
                    "velocity": 0.2125984251968504,
                    "duration": 0.18027766666665457
                },
                {
                    "name": "D#3",
                    "midi": 51,
                    "time": 144.0418556666666,
                    "velocity": 0.2047244094488189,
                    "duration": 0.18027766666665457
                },
                {
                    "name": "F#3",
                    "midi": 54,
                    "time": 144.22213333333326,
                    "velocity": 0.2204724409448819,
                    "duration": 0.18027766666665457
                },
                {
                    "name": "B3",
                    "midi": 59,
                    "time": 144.40241099999992,
                    "velocity": 0.2204724409448819,
                    "duration": 0.18027766666665457
                },
                {
                    "name": "D#4",
                    "midi": 63,
                    "time": 144.40241099999992,
                    "velocity": 0.2755905511811024,
                    "duration": 0.5408329999999637
                },
                {
                    "name": "F#3",
                    "midi": 54,
                    "time": 144.58268866666657,
                    "velocity": 0.2204724409448819,
                    "duration": 0.18027766666665457
                },
                {
                    "name": "D#3",
                    "midi": 51,
                    "time": 144.76296633333322,
                    "velocity": 0.2204724409448819,
                    "duration": 0.18027766666665457
                },
                {
                    "name": "G#4",
                    "midi": 68,
                    "time": 144.94324399999988,
                    "velocity": 0.2992125984251969,
                    "duration": 0.5408329999999637
                },
                {
                    "name": "A#3",
                    "midi": 58,
                    "time": 145.12352166666653,
                    "velocity": 0.2204724409448819,
                    "duration": 0.18027766666665457
                },
                {
                    "name": "C#4",
                    "midi": 61,
                    "time": 145.3037993333332,
                    "velocity": 0.2204724409448819,
                    "duration": 0.18027766666665457
                },
                {
                    "name": "F#4",
                    "midi": 66,
                    "time": 145.48407699999984,
                    "velocity": 0.28346456692913385,
                    "duration": 0.5408329999999637
                },
                {
                    "name": "A#3",
                    "midi": 58,
                    "time": 145.6643546666665,
                    "velocity": 0.2125984251968504,
                    "duration": 0.18027766666665457
                },
                {
                    "name": "C#4",
                    "midi": 61,
                    "time": 145.84463233333315,
                    "velocity": 0.2204724409448819,
                    "duration": 0.18027766666665457
                },
                {
                    "name": "E4",
                    "midi": 64,
                    "time": 146.0249099999998,
                    "velocity": 0.2755905511811024,
                    "duration": 0.5408329999999637
                },
                {
                    "name": "F#3",
                    "midi": 54,
                    "time": 146.20518766666646,
                    "velocity": 0.2125984251968504,
                    "duration": 0.18027766666665457
                },
                {
                    "name": "A#3",
                    "midi": 58,
                    "time": 146.38546533333312,
                    "velocity": 0.2125984251968504,
                    "duration": 0.18027766666665457
                },
                {
                    "name": "C#4",
                    "midi": 61,
                    "time": 146.56574299999977,
                    "velocity": 0.2677165354330709,
                    "duration": 0.5408329999999637
                },
                {
                    "name": "F#3",
                    "midi": 54,
                    "time": 146.74602066666642,
                    "velocity": 0.2047244094488189,
                    "duration": 0.18027766666665457
                },
                {
                    "name": "A#3",
                    "midi": 58,
                    "time": 146.92629833333308,
                    "velocity": 0.2047244094488189,
                    "duration": 0.18027766666665457
                },
                {
                    "name": "B3",
                    "midi": 59,
                    "time": 147.10657599999973,
                    "velocity": 0.23622047244094488,
                    "duration": 1.6224989999998911
                },
                {
                    "name": "B2",
                    "midi": 47,
                    "time": 147.2868536666664,
                    "velocity": 0.15748031496062992,
                    "duration": 0.18027766666665457
                },
                {
                    "name": "D#3",
                    "midi": 51,
                    "time": 147.46713133333304,
                    "velocity": 0.15748031496062992,
                    "duration": 0.18027766666665457
                },
                {
                    "name": "F#3",
                    "midi": 54,
                    "time": 147.6474089999997,
                    "velocity": 0.1732283464566929,
                    "duration": 0.18027766666665457
                },
                {
                    "name": "D#3",
                    "midi": 51,
                    "time": 147.82768666666635,
                    "velocity": 0.15748031496062992,
                    "duration": 0.18027766666665457
                },
                {
                    "name": "B2",
                    "midi": 47,
                    "time": 148.007964333333,
                    "velocity": 0.15748031496062992,
                    "duration": 0.18027766666665457
                },
                {
                    "name": "D#3",
                    "midi": 51,
                    "time": 148.18824199999966,
                    "velocity": 0.16535433070866143,
                    "duration": 0.18027766666665457
                },
                {
                    "name": "B2",
                    "midi": 47,
                    "time": 148.36851966666632,
                    "velocity": 0.15748031496062992,
                    "duration": 0.18027766666665457
                },
                {
                    "name": "D#3",
                    "midi": 51,
                    "time": 148.54879733333297,
                    "velocity": 0.1732283464566929,
                    "duration": 0.18027766666665457
                },
                {
                    "name": "F#3",
                    "midi": 54,
                    "time": 148.72907499999963,
                    "velocity": 0.1732283464566929,
                    "duration": 0.18027766666665457
                },
                {
                    "name": "D#3",
                    "midi": 51,
                    "time": 148.90935266666628,
                    "velocity": 0.1732283464566929,
                    "duration": 0.18027766666665457
                },
                {
                    "name": "B2",
                    "midi": 47,
                    "time": 149.08963033333293,
                    "velocity": 0.1732283464566929,
                    "duration": 0.18027766666665457
                },
                {
                    "name": "B3",
                    "midi": 59,
                    "time": 149.2699079999996,
                    "velocity": 0.23622047244094488,
                    "duration": 1.6224989999998911
                },
                {
                    "name": "B2",
                    "midi": 47,
                    "time": 149.45018566666624,
                    "velocity": 0.15748031496062992,
                    "duration": 0.18027766666665457
                },
                {
                    "name": "E3",
                    "midi": 52,
                    "time": 149.6304633333329,
                    "velocity": 0.15748031496062992,
                    "duration": 0.18027766666665457
                },
                {
                    "name": "G3",
                    "midi": 55,
                    "time": 149.81074099999955,
                    "velocity": 0.1732283464566929,
                    "duration": 0.18027766666665457
                },
                {
                    "name": "E3",
                    "midi": 52,
                    "time": 149.9910186666662,
                    "velocity": 0.15748031496062992,
                    "duration": 0.18027766666665457
                },
                {
                    "name": "B2",
                    "midi": 47,
                    "time": 150.17129633333286,
                    "velocity": 0.15748031496062992,
                    "duration": 0.18027766666665457
                },
                {
                    "name": "E3",
                    "midi": 52,
                    "time": 150.35157399999952,
                    "velocity": 0.16535433070866143,
                    "duration": 0.18027766666665457
                },
                {
                    "name": "B2",
                    "midi": 47,
                    "time": 150.53185166666617,
                    "velocity": 0.15748031496062992,
                    "duration": 0.18027766666665457
                },
                {
                    "name": "E3",
                    "midi": 52,
                    "time": 150.71212933333283,
                    "velocity": 0.1732283464566929,
                    "duration": 0.18027766666665457
                },
                {
                    "name": "G3",
                    "midi": 55,
                    "time": 150.89240699999948,
                    "velocity": 0.1732283464566929,
                    "duration": 0.18027766666665457
                },
                {
                    "name": "E3",
                    "midi": 52,
                    "time": 151.07268466666613,
                    "velocity": 0.1732283464566929,
                    "duration": 0.18027766666665457
                },
                {
                    "name": "B2",
                    "midi": 47,
                    "time": 151.2529623333328,
                    "velocity": 0.1732283464566929,
                    "duration": 0.18027766666665457
                },
                {
                    "name": "B3",
                    "midi": 59,
                    "time": 151.43323999999944,
                    "velocity": 0.23622047244094488,
                    "duration": 1.6224989999998911
                },
                {
                    "name": "B2",
                    "midi": 47,
                    "time": 151.6135176666661,
                    "velocity": 0.15748031496062992,
                    "duration": 0.18027766666665457
                },
                {
                    "name": "D#3",
                    "midi": 51,
                    "time": 151.79379533333275,
                    "velocity": 0.15748031496062992,
                    "duration": 0.18027766666665457
                },
                {
                    "name": "F#3",
                    "midi": 54,
                    "time": 151.9740729999994,
                    "velocity": 0.1732283464566929,
                    "duration": 0.18027766666665457
                },
                {
                    "name": "D#3",
                    "midi": 51,
                    "time": 152.15435066666606,
                    "velocity": 0.15748031496062992,
                    "duration": 0.18027766666665457
                },
                {
                    "name": "B2",
                    "midi": 47,
                    "time": 152.33462833333272,
                    "velocity": 0.15748031496062992,
                    "duration": 0.18027766666665457
                },
                {
                    "name": "D#3",
                    "midi": 51,
                    "time": 152.51490599999937,
                    "velocity": 0.1968503937007874,
                    "duration": 0.18027766666665457
                },
                {
                    "name": "B2",
                    "midi": 47,
                    "time": 152.69518366666603,
                    "velocity": 0.2677165354330709,
                    "duration": 0.18027766666665457
                },
                {
                    "name": "D#3",
                    "midi": 51,
                    "time": 152.87546133333268,
                    "velocity": 0.2992125984251969,
                    "duration": 0.18027766666665457
                },
                {
                    "name": "F#3",
                    "midi": 54,
                    "time": 153.05573899999933,
                    "velocity": 0.33070866141732286,
                    "duration": 0.18027766666665457
                },
                {
                    "name": "D#3",
                    "midi": 51,
                    "time": 153.236016666666,
                    "velocity": 0.36220472440944884,
                    "duration": 0.18027766666665457
                },
                {
                    "name": "B2",
                    "midi": 47,
                    "time": 153.41629433333264,
                    "velocity": 0.3937007874015748,
                    "duration": 0.18027766666665457
                },
                {
                    "name": "B3",
                    "midi": 59,
                    "time": 153.5965719999993,
                    "velocity": 0.4251968503937008,
                    "duration": 1.0816659999999274
                },
                {
                    "name": "B2",
                    "midi": 47,
                    "time": 153.77684966666595,
                    "velocity": 0.4015748031496063,
                    "duration": 0.18027766666665457
                },
                {
                    "name": "D3",
                    "midi": 50,
                    "time": 153.9571273333326,
                    "velocity": 0.3700787401574803,
                    "duration": 0.18027766666665457
                },
                {
                    "name": "F3",
                    "midi": 53,
                    "time": 154.13740499999926,
                    "velocity": 0.33070866141732286,
                    "duration": 0.18027766666665457
                },
                {
                    "name": "D3",
                    "midi": 50,
                    "time": 154.31768266666592,
                    "velocity": 0.2992125984251969,
                    "duration": 0.18027766666665457
                },
                {
                    "name": "B2",
                    "midi": 47,
                    "time": 154.49796033333257,
                    "velocity": 0.2677165354330709,
                    "duration": 0.18027766666665457
                },
                {
                    "name": "A#3",
                    "midi": 58,
                    "time": 154.67823799999923,
                    "velocity": 0.30708661417322836,
                    "duration": 1.0816659999999274
                },
                {
                    "name": "C#3",
                    "midi": 49,
                    "time": 154.85851566666588,
                    "velocity": 0.15748031496062992,
                    "duration": 0.18027766666665457
                },
                {
                    "name": "E3",
                    "midi": 52,
                    "time": 155.03879333333253,
                    "velocity": 0.1732283464566929,
                    "duration": 0.18027766666665457
                },
                {
                    "name": "F#3",
                    "midi": 54,
                    "time": 155.2190709999992,
                    "velocity": 0.1732283464566929,
                    "duration": 0.18027766666665457
                },
                {
                    "name": "E3",
                    "midi": 52,
                    "time": 155.39934866666584,
                    "velocity": 0.1732283464566929,
                    "duration": 0.18027766666665457
                },
                {
                    "name": "C#3",
                    "midi": 49,
                    "time": 155.5796263333325,
                    "velocity": 0.1732283464566929,
                    "duration": 0.18027766666665457
                },
                {
                    "name": "B3",
                    "midi": 59,
                    "time": 155.75990399999915,
                    "velocity": 0.23622047244094488,
                    "duration": 1.6224989999998911
                },
                {
                    "name": "B2",
                    "midi": 47,
                    "time": 155.9401816666658,
                    "velocity": 0.15748031496062992,
                    "duration": 0.18027766666665457
                },
                {
                    "name": "D#3",
                    "midi": 51,
                    "time": 156.12045933333246,
                    "velocity": 0.15748031496062992,
                    "duration": 0.18027766666665457
                },
                {
                    "name": "F#3",
                    "midi": 54,
                    "time": 156.30073699999912,
                    "velocity": 0.1732283464566929,
                    "duration": 0.18027766666665457
                },
                {
                    "name": "D#3",
                    "midi": 51,
                    "time": 156.48101466666577,
                    "velocity": 0.15748031496062992,
                    "duration": 0.18027766666665457
                },
                {
                    "name": "B2",
                    "midi": 47,
                    "time": 156.66129233333243,
                    "velocity": 0.15748031496062992,
                    "duration": 0.18027766666665457
                },
                {
                    "name": "D#3",
                    "midi": 51,
                    "time": 156.84156999999908,
                    "velocity": 0.16535433070866143,
                    "duration": 0.18027766666665457
                },
                {
                    "name": "B2",
                    "midi": 47,
                    "time": 157.02184766666574,
                    "velocity": 0.15748031496062992,
                    "duration": 0.18027766666665457
                },
                {
                    "name": "D#3",
                    "midi": 51,
                    "time": 157.2021253333324,
                    "velocity": 0.1732283464566929,
                    "duration": 0.18027766666665457
                },
                {
                    "name": "F#3",
                    "midi": 54,
                    "time": 157.38240299999904,
                    "velocity": 0.1732283464566929,
                    "duration": 0.18027766666665457
                },
                {
                    "name": "D#3",
                    "midi": 51,
                    "time": 157.5626806666657,
                    "velocity": 0.1732283464566929,
                    "duration": 0.18027766666665457
                },
                {
                    "name": "B2",
                    "midi": 47,
                    "time": 157.74295833333235,
                    "velocity": 0.1732283464566929,
                    "duration": 0.18027766666665457
                },
                {
                    "name": "B3",
                    "midi": 59,
                    "time": 157.923235999999,
                    "velocity": 0.23622047244094488,
                    "duration": 1.6224989999998911
                },
                {
                    "name": "B2",
                    "midi": 47,
                    "time": 158.10351366666566,
                    "velocity": 0.15748031496062992,
                    "duration": 0.18027766666665457
                },
                {
                    "name": "E3",
                    "midi": 52,
                    "time": 158.28379133333232,
                    "velocity": 0.15748031496062992,
                    "duration": 0.18027766666665457
                },
                {
                    "name": "G#3",
                    "midi": 56,
                    "time": 158.46406899999897,
                    "velocity": 0.1732283464566929,
                    "duration": 0.18027766666665457
                },
                {
                    "name": "E3",
                    "midi": 52,
                    "time": 158.64434666666563,
                    "velocity": 0.15748031496062992,
                    "duration": 0.18027766666665457
                },
                {
                    "name": "B2",
                    "midi": 47,
                    "time": 158.82462433333228,
                    "velocity": 0.15748031496062992,
                    "duration": 0.18027766666665457
                },
                {
                    "name": "E3",
                    "midi": 52,
                    "time": 159.00490199999894,
                    "velocity": 0.16535433070866143,
                    "duration": 0.18027766666665457
                },
                {
                    "name": "B2",
                    "midi": 47,
                    "time": 159.1851796666656,
                    "velocity": 0.15748031496062992,
                    "duration": 0.18027766666665457
                },
                {
                    "name": "E3",
                    "midi": 52,
                    "time": 159.36545733333224,
                    "velocity": 0.1732283464566929,
                    "duration": 0.18027766666665457
                },
                {
                    "name": "G#3",
                    "midi": 56,
                    "time": 159.5457349999989,
                    "velocity": 0.1732283464566929,
                    "duration": 0.18027766666665457
                },
                {
                    "name": "E3",
                    "midi": 52,
                    "time": 159.72601266666555,
                    "velocity": 0.1732283464566929,
                    "duration": 0.18027766666665457
                },
                {
                    "name": "B2",
                    "midi": 47,
                    "time": 159.9062903333322,
                    "velocity": 0.1732283464566929,
                    "duration": 0.18027766666665457
                },
                {
                    "name": "B3",
                    "midi": 59,
                    "time": 160.08656799999886,
                    "velocity": 0.23622047244094488,
                    "duration": 1.6224989999998911
                },
                {
                    "name": "B2",
                    "midi": 47,
                    "time": 160.26684566666552,
                    "velocity": 0.15748031496062992,
                    "duration": 0.18027766666665457
                },
                {
                    "name": "D#3",
                    "midi": 51,
                    "time": 160.44712333333217,
                    "velocity": 0.15748031496062992,
                    "duration": 0.18027766666665457
                },
                {
                    "name": "F#3",
                    "midi": 54,
                    "time": 160.62740099999883,
                    "velocity": 0.1732283464566929,
                    "duration": 0.18027766666665457
                },
                {
                    "name": "D#3",
                    "midi": 51,
                    "time": 160.80767866666548,
                    "velocity": 0.15748031496062992,
                    "duration": 0.18027766666665457
                },
                {
                    "name": "B2",
                    "midi": 47,
                    "time": 160.98795633333214,
                    "velocity": 0.15748031496062992,
                    "duration": 0.18027766666665457
                },
                {
                    "name": "D#3",
                    "midi": 51,
                    "time": 161.1682339999988,
                    "velocity": 0.1968503937007874,
                    "duration": 0.18027766666665457
                },
                {
                    "name": "B2",
                    "midi": 47,
                    "time": 161.34851166666544,
                    "velocity": 0.25984251968503935,
                    "duration": 0.18027766666665457
                },
                {
                    "name": "D#3",
                    "midi": 51,
                    "time": 161.5287893333321,
                    "velocity": 0.28346456692913385,
                    "duration": 0.18027766666665457
                },
                {
                    "name": "F#3",
                    "midi": 54,
                    "time": 161.70906699999875,
                    "velocity": 0.30708661417322836,
                    "duration": 0.18027766666665457
                },
                {
                    "name": "D#3",
                    "midi": 51,
                    "time": 161.8893446666654,
                    "velocity": 0.33070866141732286,
                    "duration": 0.18027766666665457
                },
                {
                    "name": "B2",
                    "midi": 47,
                    "time": 162.06962233333206,
                    "velocity": 0.3543307086614173,
                    "duration": 0.18027766666665457
                },
                {
                    "name": "B3",
                    "midi": 59,
                    "time": 162.24989999999872,
                    "velocity": 0.3779527559055118,
                    "duration": 1.0816659999999274
                },
                {
                    "name": "B2",
                    "midi": 47,
                    "time": 162.43017766666537,
                    "velocity": 0.3543307086614173,
                    "duration": 0.18027766666665457
                },
                {
                    "name": "D3",
                    "midi": 50,
                    "time": 162.61045533333203,
                    "velocity": 0.33070866141732286,
                    "duration": 0.18027766666665457
                },
                {
                    "name": "F3",
                    "midi": 53,
                    "time": 162.79073299999868,
                    "velocity": 0.31496062992125984,
                    "duration": 0.18027766666665457
                },
                {
                    "name": "D3",
                    "midi": 50,
                    "time": 162.97101066666534,
                    "velocity": 0.29133858267716534,
                    "duration": 0.18027766666665457
                },
                {
                    "name": "B2",
                    "midi": 47,
                    "time": 163.151288333332,
                    "velocity": 0.2755905511811024,
                    "duration": 0.18027766666665457
                },
                {
                    "name": "A#3",
                    "midi": 58,
                    "time": 163.33156599999865,
                    "velocity": 0.30708661417322836,
                    "duration": 1.0816659999999274
                },
                {
                    "name": "C#3",
                    "midi": 49,
                    "time": 163.5118436666653,
                    "velocity": 0.15748031496062992,
                    "duration": 0.18027766666665457
                },
                {
                    "name": "E3",
                    "midi": 52,
                    "time": 163.69212133333195,
                    "velocity": 0.1732283464566929,
                    "duration": 0.18027766666665457
                },
                {
                    "name": "F#3",
                    "midi": 54,
                    "time": 163.8723989999986,
                    "velocity": 0.1732283464566929,
                    "duration": 0.18027766666665457
                },
                {
                    "name": "E3",
                    "midi": 52,
                    "time": 164.05267666666526,
                    "velocity": 0.1732283464566929,
                    "duration": 0.18027766666665457
                },
                {
                    "name": "C#3",
                    "midi": 49,
                    "time": 164.23295433333192,
                    "velocity": 0.1732283464566929,
                    "duration": 0.18027766666665457
                },
                {
                    "name": "B3",
                    "midi": 59,
                    "time": 164.41323199999857,
                    "velocity": 0.23622047244094488,
                    "duration": 1.6224989999998911
                },
                {
                    "name": "B2",
                    "midi": 47,
                    "time": 164.59350966666523,
                    "velocity": 0.15748031496062992,
                    "duration": 0.18027766666665457
                },
                {
                    "name": "D#3",
                    "midi": 51,
                    "time": 164.77378733333188,
                    "velocity": 0.15748031496062992,
                    "duration": 0.18027766666665457
                },
                {
                    "name": "F#3",
                    "midi": 54,
                    "time": 164.95406499999854,
                    "velocity": 0.1732283464566929,
                    "duration": 0.18027766666665457
                },
                {
                    "name": "D#3",
                    "midi": 51,
                    "time": 165.1343426666652,
                    "velocity": 0.15748031496062992,
                    "duration": 0.18027766666665457
                },
                {
                    "name": "B2",
                    "midi": 47,
                    "time": 165.31462033333185,
                    "velocity": 0.15748031496062992,
                    "duration": 0.18027766666665457
                },
                {
                    "name": "D#3",
                    "midi": 51,
                    "time": 165.4948979999985,
                    "velocity": 0.1968503937007874,
                    "duration": 0.18027766666665457
                },
                {
                    "name": "B2",
                    "midi": 47,
                    "time": 165.67517566666515,
                    "velocity": 0.2204724409448819,
                    "duration": 0.18027766666665457
                },
                {
                    "name": "D#3",
                    "midi": 51,
                    "time": 165.8554533333318,
                    "velocity": 0.2440944881889764,
                    "duration": 0.18027766666665457
                },
                {
                    "name": "F#3",
                    "midi": 54,
                    "time": 166.03573099999846,
                    "velocity": 0.2677165354330709,
                    "duration": 0.18027766666665457
                },
                {
                    "name": "D#3",
                    "midi": 51,
                    "time": 166.21600866666512,
                    "velocity": 0.29133858267716534,
                    "duration": 0.18027766666665457
                },
                {
                    "name": "B2",
                    "midi": 47,
                    "time": 166.39628633333177,
                    "velocity": 0.31496062992125984,
                    "duration": 0.18027766666665457
                },
                {
                    "name": "B3",
                    "midi": 59,
                    "time": 166.57656399999843,
                    "velocity": 0.3858267716535433,
                    "duration": 0.5408329999999637
                },
                {
                    "name": "D#3",
                    "midi": 51,
                    "time": 166.75684166666508,
                    "velocity": 0.3228346456692913,
                    "duration": 0.18027766666665457
                },
                {
                    "name": "F#3",
                    "midi": 54,
                    "time": 166.93711933333174,
                    "velocity": 0.3228346456692913,
                    "duration": 0.18027766666665457
                },
                {
                    "name": "D#4",
                    "midi": 63,
                    "time": 167.1173969999984,
                    "velocity": 0.4251968503937008,
                    "duration": 0.5408329999999637
                },
                {
                    "name": "F#3",
                    "midi": 54,
                    "time": 167.29767466666505,
                    "velocity": 0.36220472440944884,
                    "duration": 0.18027766666665457
                },
                {
                    "name": "B3",
                    "midi": 59,
                    "time": 167.4779523333317,
                    "velocity": 0.33070866141732286,
                    "duration": 0.18027766666665457
                },
                {
                    "name": "F#4",
                    "midi": 66,
                    "time": 167.65822999999835,
                    "velocity": 0.4881889763779528,
                    "duration": 0.5408329999999637
                },
                {
                    "name": "B3",
                    "midi": 59,
                    "time": 167.838507666665,
                    "velocity": 0.3858267716535433,
                    "duration": 0.18027766666665457
                },
                {
                    "name": "D#4",
                    "midi": 63,
                    "time": 168.01878533333166,
                    "velocity": 0.41732283464566927,
                    "duration": 0.18027766666665457
                },
                {
                    "name": "B4",
                    "midi": 71,
                    "time": 168.19906299999832,
                    "velocity": 0.5275590551181102,
                    "duration": 0.5408329999999637
                },
                {
                    "name": "D#4",
                    "midi": 63,
                    "time": 168.37934066666497,
                    "velocity": 0.4330708661417323,
                    "duration": 0.18027766666665457
                },
                {
                    "name": "F#4",
                    "midi": 66,
                    "time": 168.55961833333163,
                    "velocity": 0.4566929133858268,
                    "duration": 0.18027766666665457
                },
                {
                    "name": "B4",
                    "midi": 71,
                    "time": 168.73989599999828,
                    "velocity": 0.6062992125984252,
                    "duration": 2.163331999999855
                },
                {
                    "name": "B3",
                    "midi": 59,
                    "time": 168.92017366666494,
                    "velocity": 0.47244094488188976,
                    "duration": 0.18027766666665457
                },
                {
                    "name": "D4",
                    "midi": 62,
                    "time": 169.1004513333316,
                    "velocity": 0.47244094488188976,
                    "duration": 0.18027766666665457
                },
                {
                    "name": "F4",
                    "midi": 65,
                    "time": 169.28072899999825,
                    "velocity": 0.5354330708661418,
                    "duration": 0.18027766666665457
                },
                {
                    "name": "D4",
                    "midi": 62,
                    "time": 169.4610066666649,
                    "velocity": 0.3858267716535433,
                    "duration": 0.18027766666665457
                },
                {
                    "name": "B3",
                    "midi": 59,
                    "time": 169.64128433333155,
                    "velocity": 0.44881889763779526,
                    "duration": 0.18027766666665457
                },
                {
                    "name": "D4",
                    "midi": 62,
                    "time": 169.8215619999982,
                    "velocity": 0.5118110236220472,
                    "duration": 0.18027766666665457
                },
                {
                    "name": "B3",
                    "midi": 59,
                    "time": 170.00183966666486,
                    "velocity": 0.4251968503937008,
                    "duration": 0.18027766666665457
                },
                {
                    "name": "D4",
                    "midi": 62,
                    "time": 170.18211733333152,
                    "velocity": 0.4251968503937008,
                    "duration": 0.18027766666665457
                },
                {
                    "name": "F4",
                    "midi": 65,
                    "time": 170.36239499999817,
                    "velocity": 0.49606299212598426,
                    "duration": 0.18027766666665457
                },
                {
                    "name": "D4",
                    "midi": 62,
                    "time": 170.54267266666483,
                    "velocity": 0.4251968503937008,
                    "duration": 0.18027766666665457
                },
                {
                    "name": "B3",
                    "midi": 59,
                    "time": 170.72295033333148,
                    "velocity": 0.4251968503937008,
                    "duration": 0.18027766666665457
                },
                {
                    "name": "A#4",
                    "midi": 70,
                    "time": 170.90322799999814,
                    "velocity": 0.5905511811023622,
                    "duration": 0.5408329999999637
                },
                {
                    "name": "G#3",
                    "midi": 56,
                    "time": 171.0835056666648,
                    "velocity": 0.3937007874015748,
                    "duration": 0.18027766666665457
                },
                {
                    "name": "D4",
                    "midi": 62,
                    "time": 171.26378333333145,
                    "velocity": 0.3937007874015748,
                    "duration": 0.18027766666665457
                },
                {
                    "name": "G#4",
                    "midi": 68,
                    "time": 171.4440609999981,
                    "velocity": 0.5354330708661418,
                    "duration": 1.6224989999998911
                },
                {
                    "name": "F4",
                    "midi": 65,
                    "time": 171.4440609999981,
                    "velocity": 0.36220472440944884,
                    "duration": 0.18027766666665457
                },
                {
                    "name": "D4",
                    "midi": 62,
                    "time": 171.62433866666476,
                    "velocity": 0.3858267716535433,
                    "duration": 0.18027766666665457
                },
                {
                    "name": "G#3",
                    "midi": 56,
                    "time": 171.8046163333314,
                    "velocity": 0.3464566929133858,
                    "duration": 0.18027766666665457
                },
                {
                    "name": "D4",
                    "midi": 62,
                    "time": 171.98489399999806,
                    "velocity": 0.4409448818897638,
                    "duration": 0.18027766666665457
                },
                {
                    "name": "G#3",
                    "midi": 56,
                    "time": 172.16517166666472,
                    "velocity": 0.36220472440944884,
                    "duration": 0.18027766666665457
                },
                {
                    "name": "D4",
                    "midi": 62,
                    "time": 172.34544933333137,
                    "velocity": 0.3228346456692913,
                    "duration": 0.18027766666665457
                },
                {
                    "name": "F4",
                    "midi": 65,
                    "time": 172.52572699999803,
                    "velocity": 0.44881889763779526,
                    "duration": 0.18027766666665457
                },
                {
                    "name": "D4",
                    "midi": 62,
                    "time": 172.70600466666468,
                    "velocity": 0.36220472440944884,
                    "duration": 0.18027766666665457
                },
                {
                    "name": "G#3",
                    "midi": 56,
                    "time": 172.88628233333134,
                    "velocity": 0.36220472440944884,
                    "duration": 0.18027766666665457
                },
                {
                    "name": "F#4",
                    "midi": 66,
                    "time": 173.066559999998,
                    "velocity": 0.5905511811023622,
                    "duration": 0.5408329999999637
                },
                {
                    "name": "G#3",
                    "midi": 56,
                    "time": 173.24683766666465,
                    "velocity": 0.41732283464566927,
                    "duration": 0.18027766666665457
                },
                {
                    "name": "A#3",
                    "midi": 58,
                    "time": 173.4271153333313,
                    "velocity": 0.41732283464566927,
                    "duration": 0.18027766666665457
                },
                {
                    "name": "F4",
                    "midi": 65,
                    "time": 173.60739299999796,
                    "velocity": 0.5354330708661418,
                    "duration": 1.6224989999998911
                },
                {
                    "name": "B3",
                    "midi": 59,
                    "time": 173.60739299999796,
                    "velocity": 0.36220472440944884,
                    "duration": 0.18027766666665457
                },
                {
                    "name": "A#3",
                    "midi": 58,
                    "time": 173.7876706666646,
                    "velocity": 0.3464566929133858,
                    "duration": 0.18027766666665457
                },
                {
                    "name": "G#3",
                    "midi": 56,
                    "time": 173.96794833333126,
                    "velocity": 0.36220472440944884,
                    "duration": 0.18027766666665457
                },
                {
                    "name": "A#3",
                    "midi": 58,
                    "time": 174.14822599999792,
                    "velocity": 0.4409448818897638,
                    "duration": 0.18027766666665457
                },
                {
                    "name": "G#3",
                    "midi": 56,
                    "time": 174.32850366666457,
                    "velocity": 0.36220472440944884,
                    "duration": 0.18027766666665457
                },
                {
                    "name": "A#3",
                    "midi": 58,
                    "time": 174.50878133333123,
                    "velocity": 0.3228346456692913,
                    "duration": 0.18027766666665457
                },
                {
                    "name": "B3",
                    "midi": 59,
                    "time": 174.68905899999788,
                    "velocity": 0.41732283464566927,
                    "duration": 0.18027766666665457
                },
                {
                    "name": "A#3",
                    "midi": 58,
                    "time": 174.86933666666454,
                    "velocity": 0.36220472440944884,
                    "duration": 0.18027766666665457
                },
                {
                    "name": "G#3",
                    "midi": 56,
                    "time": 175.0496143333312,
                    "velocity": 0.36220472440944884,
                    "duration": 0.18027766666665457
                },
                {
                    "name": "D#4",
                    "midi": 63,
                    "time": 175.22989199999785,
                    "velocity": 0.5905511811023622,
                    "duration": 0.5408329999999637
                },
                {
                    "name": "G#3",
                    "midi": 56,
                    "time": 175.4101696666645,
                    "velocity": 0.41732283464566927,
                    "duration": 0.18027766666665457
                },
                {
                    "name": "A#3",
                    "midi": 58,
                    "time": 175.59044733333116,
                    "velocity": 0.41732283464566927,
                    "duration": 0.18027766666665457
                },
                {
                    "name": "D4",
                    "midi": 62,
                    "time": 175.7707249999978,
                    "velocity": 0.5354330708661418,
                    "duration": 1.6224989999998911
                },
                {
                    "name": "B3",
                    "midi": 59,
                    "time": 175.7707249999978,
                    "velocity": 0.36220472440944884,
                    "duration": 0.18027766666665457
                },
                {
                    "name": "A#3",
                    "midi": 58,
                    "time": 175.95100266666446,
                    "velocity": 0.3937007874015748,
                    "duration": 0.18027766666665457
                },
                {
                    "name": "G#3",
                    "midi": 56,
                    "time": 176.13128033333112,
                    "velocity": 0.3937007874015748,
                    "duration": 0.18027766666665457
                },
                {
                    "name": "A#3",
                    "midi": 58,
                    "time": 176.31155799999777,
                    "velocity": 0.4409448818897638,
                    "duration": 0.18027766666665457
                },
                {
                    "name": "G#3",
                    "midi": 56,
                    "time": 176.49183566666443,
                    "velocity": 0.3228346456692913,
                    "duration": 0.18027766666665457
                },
                {
                    "name": "A#3",
                    "midi": 58,
                    "time": 176.67211333333108,
                    "velocity": 0.2755905511811024,
                    "duration": 0.18027766666665457
                },
                {
                    "name": "B3",
                    "midi": 59,
                    "time": 176.85239099999774,
                    "velocity": 0.3858267716535433,
                    "duration": 0.18027766666665457
                },
                {
                    "name": "A#3",
                    "midi": 58,
                    "time": 177.0326686666644,
                    "velocity": 0.29133858267716534,
                    "duration": 0.18027766666665457
                },
                {
                    "name": "G#3",
                    "midi": 56,
                    "time": 177.21294633333105,
                    "velocity": 0.2755905511811024,
                    "duration": 0.18027766666665457
                },
                {
                    "name": "F4",
                    "midi": 65,
                    "time": 177.3932239999977,
                    "velocity": 0.3543307086614173,
                    "duration": 0.5408329999999637
                },
                {
                    "name": "F#3",
                    "midi": 54,
                    "time": 177.57350166666436,
                    "velocity": 0.23622047244094488,
                    "duration": 0.18027766666665457
                },
                {
                    "name": "A#3",
                    "midi": 58,
                    "time": 177.753779333331,
                    "velocity": 0.1889763779527559,
                    "duration": 0.18027766666665457
                },
                {
                    "name": "D#4",
                    "midi": 63,
                    "time": 177.93405699999767,
                    "velocity": 0.3464566929133858,
                    "duration": 0.5408329999999637
                },
                {
                    "name": "F#3",
                    "midi": 54,
                    "time": 178.11433466666432,
                    "velocity": 0.2283464566929134,
                    "duration": 0.18027766666665457
                },
                {
                    "name": "A#3",
                    "midi": 58,
                    "time": 178.29461233333097,
                    "velocity": 0.1889763779527559,
                    "duration": 0.18027766666665457
                },
                {
                    "name": "F#4",
                    "midi": 66,
                    "time": 178.47488999999763,
                    "velocity": 0.3700787401574803,
                    "duration": 0.5408329999999637
                },
                {
                    "name": "G#3",
                    "midi": 56,
                    "time": 178.65516766666428,
                    "velocity": 0.23622047244094488,
                    "duration": 0.18027766666665457
                },
                {
                    "name": "B3",
                    "midi": 59,
                    "time": 178.83544533333094,
                    "velocity": 0.1889763779527559,
                    "duration": 0.18027766666665457
                },
                {
                    "name": "F4",
                    "midi": 65,
                    "time": 179.0157229999976,
                    "velocity": 0.3464566929133858,
                    "duration": 0.5408329999999637
                },
                {
                    "name": "G#3",
                    "midi": 56,
                    "time": 179.19600066666425,
                    "velocity": 0.2755905511811024,
                    "duration": 0.18027766666665457
                },
                {
                    "name": "B3",
                    "midi": 59,
                    "time": 179.3762783333309,
                    "velocity": 0.23622047244094488,
                    "duration": 0.18027766666665457
                },
                {
                    "name": "G#4",
                    "midi": 68,
                    "time": 179.55655599999756,
                    "velocity": 0.4251968503937008,
                    "duration": 0.5408329999999637
                },
                {
                    "name": "A#3",
                    "midi": 58,
                    "time": 179.7368336666642,
                    "velocity": 0.29133858267716534,
                    "duration": 0.18027766666665457
                },
                {
                    "name": "D#4",
                    "midi": 63,
                    "time": 179.91711133333087,
                    "velocity": 0.23622047244094488,
                    "duration": 0.18027766666665457
                },
                {
                    "name": "F#4",
                    "midi": 66,
                    "time": 180.09738899999752,
                    "velocity": 0.3700787401574803,
                    "duration": 0.5408329999999637
                },
                {
                    "name": "A#3",
                    "midi": 58,
                    "time": 180.27766666666417,
                    "velocity": 0.23622047244094488,
                    "duration": 0.18027766666665457
                },
                {
                    "name": "D#4",
                    "midi": 63,
                    "time": 180.45794433333083,
                    "velocity": 0.2047244094488189,
                    "duration": 0.18027766666665457
                },
                {
                    "name": "F4",
                    "midi": 65,
                    "time": 180.63822199999748,
                    "velocity": 0.3937007874015748,
                    "duration": 0.5408329999999637
                },
                {
                    "name": "G#3",
                    "midi": 56,
                    "time": 180.81849966666414,
                    "velocity": 0.2283464566929134,
                    "duration": 0.18027766666665457
                },
                {
                    "name": "B3",
                    "midi": 59,
                    "time": 180.9987773333308,
                    "velocity": 0.1889763779527559,
                    "duration": 0.18027766666665457
                },
                {
                    "name": "G#4",
                    "midi": 68,
                    "time": 181.17905499999745,
                    "velocity": 0.3543307086614173,
                    "duration": 0.5408329999999637
                },
                {
                    "name": "G#3",
                    "midi": 56,
                    "time": 181.3593326666641,
                    "velocity": 0.2283464566929134,
                    "duration": 0.18027766666665457
                },
                {
                    "name": "B3",
                    "midi": 59,
                    "time": 181.53961033333076,
                    "velocity": 0.1968503937007874,
                    "duration": 0.18027766666665457
                },
                {
                    "name": "D#4",
                    "midi": 63,
                    "time": 181.7198879999974,
                    "velocity": 0.23622047244094488,
                    "duration": 1.6224989999998911
                },
                {
                    "name": "D#3",
                    "midi": 51,
                    "time": 181.90016566666407,
                    "velocity": 0.15748031496062992,
                    "duration": 0.18027766666665457
                },
                {
                    "name": "F#3",
                    "midi": 54,
                    "time": 182.08044333333072,
                    "velocity": 0.15748031496062992,
                    "duration": 0.18027766666665457
                },
                {
                    "name": "A#3",
                    "midi": 58,
                    "time": 182.26072099999737,
                    "velocity": 0.1732283464566929,
                    "duration": 0.18027766666665457
                },
                {
                    "name": "F#3",
                    "midi": 54,
                    "time": 182.44099866666403,
                    "velocity": 0.15748031496062992,
                    "duration": 0.18027766666665457
                },
                {
                    "name": "D#3",
                    "midi": 51,
                    "time": 182.62127633333068,
                    "velocity": 0.15748031496062992,
                    "duration": 0.18027766666665457
                },
                {
                    "name": "F#3",
                    "midi": 54,
                    "time": 182.80155399999734,
                    "velocity": 0.1968503937007874,
                    "duration": 0.18027766666665457
                },
                {
                    "name": "D#3",
                    "midi": 51,
                    "time": 182.981831666664,
                    "velocity": 0.2204724409448819,
                    "duration": 0.18027766666665457
                },
                {
                    "name": "F#3",
                    "midi": 54,
                    "time": 183.16210933333065,
                    "velocity": 0.2204724409448819,
                    "duration": 0.18027766666665457
                },
                {
                    "name": "A#3",
                    "midi": 58,
                    "time": 183.3423869999973,
                    "velocity": 0.2677165354330709,
                    "duration": 0.18027766666665457
                },
                {
                    "name": "F#3",
                    "midi": 54,
                    "time": 183.52266466666396,
                    "velocity": 0.29133858267716534,
                    "duration": 0.18027766666665457
                },
                {
                    "name": "D#3",
                    "midi": 51,
                    "time": 183.7029423333306,
                    "velocity": 0.31496062992125984,
                    "duration": 0.18027766666665457
                },
                {
                    "name": "D4",
                    "midi": 62,
                    "time": 183.88321999999727,
                    "velocity": 0.3858267716535433,
                    "duration": 1.0816659999999274
                },
                {
                    "name": "D3",
                    "midi": 50,
                    "time": 184.06349766666392,
                    "velocity": 0.3228346456692913,
                    "duration": 0.18027766666665457
                },
                {
                    "name": "F3",
                    "midi": 53,
                    "time": 184.24377533333057,
                    "velocity": 0.3228346456692913,
                    "duration": 0.18027766666665457
                },
                {
                    "name": "A#3",
                    "midi": 58,
                    "time": 184.42405299999723,
                    "velocity": 0.31496062992125984,
                    "duration": 0.18027766666665457
                },
                {
                    "name": "F3",
                    "midi": 53,
                    "time": 184.60433066666388,
                    "velocity": 0.33070866141732286,
                    "duration": 0.18027766666665457
                },
                {
                    "name": "D3",
                    "midi": 50,
                    "time": 184.78460833333054,
                    "velocity": 0.33070866141732286,
                    "duration": 0.18027766666665457
                },
                {
                    "name": "F4",
                    "midi": 65,
                    "time": 184.9648859999972,
                    "velocity": 0.4566929133858268,
                    "duration": 0.5408329999999637
                },
                {
                    "name": "A#3",
                    "midi": 58,
                    "time": 185.14516366666385,
                    "velocity": 0.3858267716535433,
                    "duration": 0.18027766666665457
                },
                {
                    "name": "D4",
                    "midi": 62,
                    "time": 185.3254413333305,
                    "velocity": 0.41732283464566927,
                    "duration": 0.18027766666665457
                },
                {
                    "name": "A#4",
                    "midi": 70,
                    "time": 185.50571899999716,
                    "velocity": 0.5039370078740157,
                    "duration": 0.5408329999999637
                },
                {
                    "name": "D4",
                    "midi": 62,
                    "time": 185.6859966666638,
                    "velocity": 0.4251968503937008,
                    "duration": 0.18027766666665457
                },
                {
                    "name": "F4",
                    "midi": 65,
                    "time": 185.86627433333047,
                    "velocity": 0.4566929133858268,
                    "duration": 0.18027766666665457
                },
                {
                    "name": "B4",
                    "midi": 71,
                    "time": 186.04655199999712,
                    "velocity": 0.6062992125984252,
                    "duration": 2.163331999999855
                },
                {
                    "name": "B3",
                    "midi": 59,
                    "time": 186.22682966666378,
                    "velocity": 0.4015748031496063,
                    "duration": 0.18027766666665457
                },
                {
                    "name": "D4",
                    "midi": 62,
                    "time": 186.40710733333043,
                    "velocity": 0.4409448818897638,
                    "duration": 0.18027766666665457
                },
                {
                    "name": "F4",
                    "midi": 65,
                    "time": 186.58738499999708,
                    "velocity": 0.5196850393700787,
                    "duration": 0.18027766666665457
                },
                {
                    "name": "D4",
                    "midi": 62,
                    "time": 186.76766266666374,
                    "velocity": 0.3858267716535433,
                    "duration": 0.18027766666665457
                },
                {
                    "name": "B3",
                    "midi": 59,
                    "time": 186.9479403333304,
                    "velocity": 0.4409448818897638,
                    "duration": 0.18027766666665457
                },
                {
                    "name": "D4",
                    "midi": 62,
                    "time": 187.12821799999705,
                    "velocity": 0.48031496062992124,
                    "duration": 0.18027766666665457
                },
                {
                    "name": "B3",
                    "midi": 59,
                    "time": 187.3084956666637,
                    "velocity": 0.4409448818897638,
                    "duration": 0.18027766666665457
                },
                {
                    "name": "D4",
                    "midi": 62,
                    "time": 187.48877333333036,
                    "velocity": 0.4409448818897638,
                    "duration": 0.18027766666665457
                },
                {
                    "name": "F4",
                    "midi": 65,
                    "time": 187.669050999997,
                    "velocity": 0.4409448818897638,
                    "duration": 0.18027766666665457
                },
                {
                    "name": "D4",
                    "midi": 62,
                    "time": 187.84932866666367,
                    "velocity": 0.4409448818897638,
                    "duration": 0.18027766666665457
                },
                {
                    "name": "B3",
                    "midi": 59,
                    "time": 188.02960633333032,
                    "velocity": 0.44881889763779526,
                    "duration": 0.18027766666665457
                },
                {
                    "name": "A#4",
                    "midi": 70,
                    "time": 188.20988399999698,
                    "velocity": 0.5905511811023622,
                    "duration": 0.5408329999999637
                },
                {
                    "name": "G#3",
                    "midi": 56,
                    "time": 188.39016166666363,
                    "velocity": 0.4094488188976378,
                    "duration": 0.18027766666665457
                },
                {
                    "name": "D4",
                    "midi": 62,
                    "time": 188.57043933333028,
                    "velocity": 0.4094488188976378,
                    "duration": 0.18027766666665457
                },
                {
                    "name": "G#4",
                    "midi": 68,
                    "time": 188.75071699999694,
                    "velocity": 0.5354330708661418,
                    "duration": 1.6224989999998911
                },
                {
                    "name": "F4",
                    "midi": 65,
                    "time": 188.75071699999694,
                    "velocity": 0.36220472440944884,
                    "duration": 0.18027766666665457
                },
                {
                    "name": "D4",
                    "midi": 62,
                    "time": 188.9309946666636,
                    "velocity": 0.3779527559055118,
                    "duration": 0.18027766666665457
                },
                {
                    "name": "G#3",
                    "midi": 56,
                    "time": 189.11127233333025,
                    "velocity": 0.3779527559055118,
                    "duration": 0.18027766666665457
                },
                {
                    "name": "D4",
                    "midi": 62,
                    "time": 189.2915499999969,
                    "velocity": 0.4409448818897638,
                    "duration": 0.18027766666665457
                },
                {
                    "name": "G#3",
                    "midi": 56,
                    "time": 189.47182766666356,
                    "velocity": 0.36220472440944884,
                    "duration": 0.18027766666665457
                },
                {
                    "name": "D4",
                    "midi": 62,
                    "time": 189.6521053333302,
                    "velocity": 0.3228346456692913,
                    "duration": 0.18027766666665457
                },
                {
                    "name": "F4",
                    "midi": 65,
                    "time": 189.83238299999687,
                    "velocity": 0.41732283464566927,
                    "duration": 0.18027766666665457
                },
                {
                    "name": "D4",
                    "midi": 62,
                    "time": 190.01266066666352,
                    "velocity": 0.36220472440944884,
                    "duration": 0.18027766666665457
                },
                {
                    "name": "G#3",
                    "midi": 56,
                    "time": 190.19293833333018,
                    "velocity": 0.36220472440944884,
                    "duration": 0.18027766666665457
                },
                {
                    "name": "F#4",
                    "midi": 66,
                    "time": 190.37321599999683,
                    "velocity": 0.5905511811023622,
                    "duration": 0.5408329999999637
                },
                {
                    "name": "G#3",
                    "midi": 56,
                    "time": 190.55349366666348,
                    "velocity": 0.4094488188976378,
                    "duration": 0.18027766666665457
                },
                {
                    "name": "A#3",
                    "midi": 58,
                    "time": 190.73377133333014,
                    "velocity": 0.41732283464566927,
                    "duration": 0.18027766666665457
                },
                {
                    "name": "F4",
                    "midi": 65,
                    "time": 190.9140489999968,
                    "velocity": 0.5354330708661418,
                    "duration": 1.6224989999998911
                },
                {
                    "name": "B3",
                    "midi": 59,
                    "time": 190.9140489999968,
                    "velocity": 0.36220472440944884,
                    "duration": 0.18027766666665457
                },
                {
                    "name": "A#3",
                    "midi": 58,
                    "time": 191.09432666666345,
                    "velocity": 0.3464566929133858,
                    "duration": 0.18027766666665457
                },
                {
                    "name": "G#3",
                    "midi": 56,
                    "time": 191.2746043333301,
                    "velocity": 0.3937007874015748,
                    "duration": 0.18027766666665457
                },
                {
                    "name": "A#3",
                    "midi": 58,
                    "time": 191.45488199999676,
                    "velocity": 0.4409448818897638,
                    "duration": 0.18027766666665457
                },
                {
                    "name": "G#3",
                    "midi": 56,
                    "time": 191.6351596666634,
                    "velocity": 0.36220472440944884,
                    "duration": 0.18027766666665457
                },
                {
                    "name": "A#3",
                    "midi": 58,
                    "time": 191.81543733333007,
                    "velocity": 0.3228346456692913,
                    "duration": 0.18027766666665457
                },
                {
                    "name": "B3",
                    "midi": 59,
                    "time": 191.99571499999672,
                    "velocity": 0.41732283464566927,
                    "duration": 0.18027766666665457
                },
                {
                    "name": "A#3",
                    "midi": 58,
                    "time": 192.17599266666338,
                    "velocity": 0.36220472440944884,
                    "duration": 0.18027766666665457
                },
                {
                    "name": "G#3",
                    "midi": 56,
                    "time": 192.35627033333003,
                    "velocity": 0.36220472440944884,
                    "duration": 0.18027766666665457
                },
                {
                    "name": "D#4",
                    "midi": 63,
                    "time": 192.53654799999669,
                    "velocity": 0.5905511811023622,
                    "duration": 0.5408329999999637
                },
                {
                    "name": "G#3",
                    "midi": 56,
                    "time": 192.71682566666334,
                    "velocity": 0.4409448818897638,
                    "duration": 0.18027766666665457
                },
                {
                    "name": "A#3",
                    "midi": 58,
                    "time": 192.89710333333,
                    "velocity": 0.4409448818897638,
                    "duration": 0.18027766666665457
                },
                {
                    "name": "D4",
                    "midi": 62,
                    "time": 193.07738099999665,
                    "velocity": 0.5354330708661418,
                    "duration": 1.6224989999998911
                },
                {
                    "name": "B3",
                    "midi": 59,
                    "time": 193.07738099999665,
                    "velocity": 0.36220472440944884,
                    "duration": 0.18027766666665457
                },
                {
                    "name": "A#3",
                    "midi": 58,
                    "time": 193.2576586666633,
                    "velocity": 0.3700787401574803,
                    "duration": 0.18027766666665457
                },
                {
                    "name": "G#3",
                    "midi": 56,
                    "time": 193.43793633332996,
                    "velocity": 0.3700787401574803,
                    "duration": 0.18027766666665457
                },
                {
                    "name": "A#3",
                    "midi": 58,
                    "time": 193.6182139999966,
                    "velocity": 0.4409448818897638,
                    "duration": 0.18027766666665457
                },
                {
                    "name": "G#3",
                    "midi": 56,
                    "time": 193.79849166666327,
                    "velocity": 0.3228346456692913,
                    "duration": 0.18027766666665457
                },
                {
                    "name": "A#3",
                    "midi": 58,
                    "time": 193.97876933332992,
                    "velocity": 0.30708661417322836,
                    "duration": 0.18027766666665457
                },
                {
                    "name": "B3",
                    "midi": 59,
                    "time": 194.15904699999658,
                    "velocity": 0.3858267716535433,
                    "duration": 0.18027766666665457
                },
                {
                    "name": "A#3",
                    "midi": 58,
                    "time": 194.33932466666323,
                    "velocity": 0.29133858267716534,
                    "duration": 0.18027766666665457
                },
                {
                    "name": "G#3",
                    "midi": 56,
                    "time": 194.51960233332989,
                    "velocity": 0.2755905511811024,
                    "duration": 0.18027766666665457
                },
                {
                    "name": "F4",
                    "midi": 65,
                    "time": 194.69987999999654,
                    "velocity": 0.3543307086614173,
                    "duration": 0.5408329999999637
                },
                {
                    "name": "F#3",
                    "midi": 54,
                    "time": 194.8801576666632,
                    "velocity": 0.23622047244094488,
                    "duration": 0.18027766666665457
                },
                {
                    "name": "A#3",
                    "midi": 58,
                    "time": 195.06043533332985,
                    "velocity": 0.1889763779527559,
                    "duration": 0.18027766666665457
                },
                {
                    "name": "D#4",
                    "midi": 63,
                    "time": 195.2407129999965,
                    "velocity": 0.3464566929133858,
                    "duration": 0.5408329999999637
                },
                {
                    "name": "F#3",
                    "midi": 54,
                    "time": 195.42099066666316,
                    "velocity": 0.2283464566929134,
                    "duration": 0.18027766666665457
                },
                {
                    "name": "A#3",
                    "midi": 58,
                    "time": 195.6012683333298,
                    "velocity": 0.1889763779527559,
                    "duration": 0.18027766666665457
                },
                {
                    "name": "F#4",
                    "midi": 66,
                    "time": 195.78154599999647,
                    "velocity": 0.3700787401574803,
                    "duration": 0.5408329999999637
                },
                {
                    "name": "G#3",
                    "midi": 56,
                    "time": 195.96182366666312,
                    "velocity": 0.23622047244094488,
                    "duration": 0.18027766666665457
                },
                {
                    "name": "B3",
                    "midi": 59,
                    "time": 196.14210133332978,
                    "velocity": 0.1889763779527559,
                    "duration": 0.18027766666665457
                },
                {
                    "name": "F4",
                    "midi": 65,
                    "time": 196.32237899999643,
                    "velocity": 0.3464566929133858,
                    "duration": 0.5408329999999637
                },
                {
                    "name": "G#3",
                    "midi": 56,
                    "time": 196.50265666666309,
                    "velocity": 0.2755905511811024,
                    "duration": 0.18027766666665457
                },
                {
                    "name": "B3",
                    "midi": 59,
                    "time": 196.68293433332974,
                    "velocity": 0.23622047244094488,
                    "duration": 0.18027766666665457
                },
                {
                    "name": "G#4",
                    "midi": 68,
                    "time": 196.8632119999964,
                    "velocity": 0.4251968503937008,
                    "duration": 0.5408329999999637
                },
                {
                    "name": "A#3",
                    "midi": 58,
                    "time": 197.04348966666305,
                    "velocity": 0.29133858267716534,
                    "duration": 0.18027766666665457
                },
                {
                    "name": "D#4",
                    "midi": 63,
                    "time": 197.2237673333297,
                    "velocity": 0.23622047244094488,
                    "duration": 0.18027766666665457
                },
                {
                    "name": "F#4",
                    "midi": 66,
                    "time": 197.40404499999636,
                    "velocity": 0.3700787401574803,
                    "duration": 0.5408329999999637
                },
                {
                    "name": "A#3",
                    "midi": 58,
                    "time": 197.584322666663,
                    "velocity": 0.23622047244094488,
                    "duration": 0.18027766666665457
                },
                {
                    "name": "D#4",
                    "midi": 63,
                    "time": 197.76460033332967,
                    "velocity": 0.2047244094488189,
                    "duration": 0.18027766666665457
                },
                {
                    "name": "E4",
                    "midi": 64,
                    "time": 197.94487799999632,
                    "velocity": 0.3937007874015748,
                    "duration": 0.5408329999999637
                },
                {
                    "name": "G#3",
                    "midi": 56,
                    "time": 198.12515566666298,
                    "velocity": 0.2283464566929134,
                    "duration": 0.18027766666665457
                },
                {
                    "name": "B3",
                    "midi": 59,
                    "time": 198.30543333332963,
                    "velocity": 0.1889763779527559,
                    "duration": 0.18027766666665457
                },
                {
                    "name": "B4",
                    "midi": 71,
                    "time": 198.46993670416296,
                    "velocity": 0.3543307086614173,
                    "duration": 0.5408329999999637
                },
                {
                    "name": "B3",
                    "midi": 59,
                    "time": 198.66598866666294,
                    "velocity": 0.2283464566929134,
                    "duration": 0.18027766666665457
                },
                {
                    "name": "E4",
                    "midi": 64,
                    "time": 198.8462663333296,
                    "velocity": 0.1968503937007874,
                    "duration": 0.18027766666665457
                },
                {
                    "name": "D#4",
                    "midi": 63,
                    "time": 199.02654399999625,
                    "velocity": 0.23622047244094488,
                    "duration": 1.6224989999998911
                },
                {
                    "name": "D#3",
                    "midi": 51,
                    "time": 199.2068216666629,
                    "velocity": 0.15748031496062992,
                    "duration": 0.18027766666665457
                },
                {
                    "name": "F#3",
                    "midi": 54,
                    "time": 199.38709933332956,
                    "velocity": 0.15748031496062992,
                    "duration": 0.18027766666665457
                },
                {
                    "name": "A#3",
                    "midi": 58,
                    "time": 199.5673769999962,
                    "velocity": 0.1732283464566929,
                    "duration": 0.18027766666665457
                },
                {
                    "name": "F#3",
                    "midi": 54,
                    "time": 199.74765466666287,
                    "velocity": 0.15748031496062992,
                    "duration": 0.18027766666665457
                },
                {
                    "name": "D#3",
                    "midi": 51,
                    "time": 199.92793233332952,
                    "velocity": 0.15748031496062992,
                    "duration": 0.18027766666665457
                },
                {
                    "name": "F#3",
                    "midi": 54,
                    "time": 200.10820999999618,
                    "velocity": 0.1968503937007874,
                    "duration": 0.18027766666665457
                },
                {
                    "name": "D#3",
                    "midi": 51,
                    "time": 200.28848766666283,
                    "velocity": 0.2204724409448819,
                    "duration": 0.18027766666665457
                },
                {
                    "name": "F#3",
                    "midi": 54,
                    "time": 200.4687653333295,
                    "velocity": 0.2204724409448819,
                    "duration": 0.18027766666665457
                },
                {
                    "name": "A#3",
                    "midi": 58,
                    "time": 200.64904299999614,
                    "velocity": 0.2677165354330709,
                    "duration": 0.18027766666665457
                },
                {
                    "name": "F#3",
                    "midi": 54,
                    "time": 200.8293206666628,
                    "velocity": 0.29133858267716534,
                    "duration": 0.18027766666665457
                },
                {
                    "name": "D#3",
                    "midi": 51,
                    "time": 201.00959833332945,
                    "velocity": 0.31496062992125984,
                    "duration": 0.18027766666665457
                },
                {
                    "name": "D4",
                    "midi": 62,
                    "time": 201.1898759999961,
                    "velocity": 0.3858267716535433,
                    "duration": 1.0816659999999274
                },
                {
                    "name": "D3",
                    "midi": 50,
                    "time": 201.37015366666276,
                    "velocity": 0.3228346456692913,
                    "duration": 0.18027766666665457
                },
                {
                    "name": "F3",
                    "midi": 53,
                    "time": 201.5504313333294,
                    "velocity": 0.2992125984251969,
                    "duration": 0.18027766666665457
                },
                {
                    "name": "A#3",
                    "midi": 58,
                    "time": 201.73070899999607,
                    "velocity": 0.31496062992125984,
                    "duration": 0.18027766666665457
                },
                {
                    "name": "F3",
                    "midi": 53,
                    "time": 201.91098666666272,
                    "velocity": 0.2755905511811024,
                    "duration": 0.18027766666665457
                },
                {
                    "name": "D3",
                    "midi": 50,
                    "time": 202.09126433332938,
                    "velocity": 0.28346456692913385,
                    "duration": 0.18027766666665457
                },
                {
                    "name": "F3",
                    "midi": 53,
                    "time": 202.27154199999603,
                    "velocity": 0.31496062992125984,
                    "duration": 0.18027766666665457
                },
                {
                    "name": "D3",
                    "midi": 50,
                    "time": 202.4518196666627,
                    "velocity": 0.2755905511811024,
                    "duration": 0.18027766666665457
                },
                {
                    "name": "F3",
                    "midi": 53,
                    "time": 202.63209733332934,
                    "velocity": 0.2755905511811024,
                    "duration": 0.18027766666665457
                },
                {
                    "name": "A#3",
                    "midi": 58,
                    "time": 202.812374999996,
                    "velocity": 0.31496062992125984,
                    "duration": 0.18027766666665457
                },
                {
                    "name": "F3",
                    "midi": 53,
                    "time": 202.99265266666265,
                    "velocity": 0.2755905511811024,
                    "duration": 0.18027766666665457
                },
                {
                    "name": "D3",
                    "midi": 50,
                    "time": 203.1729303333293,
                    "velocity": 0.28346456692913385,
                    "duration": 0.18027766666665457
                },
                {
                    "name": "A#4",
                    "midi": 70,
                    "time": 203.35320799999596,
                    "velocity": 0.3700787401574803,
                    "duration": 2.163331999999855
                },
                {
                    "name": "A#3",
                    "midi": 58,
                    "time": 203.5334856666626,
                    "velocity": 0.25196850393700787,
                    "duration": 0.18027766666665457
                },
                {
                    "name": "D#4",
                    "midi": 63,
                    "time": 203.71376333332927,
                    "velocity": 0.25196850393700787,
                    "duration": 0.18027766666665457
                },
                {
                    "name": "G4",
                    "midi": 67,
                    "time": 203.89404099999592,
                    "velocity": 0.29133858267716534,
                    "duration": 0.18027766666665457
                },
                {
                    "name": "D#4",
                    "midi": 63,
                    "time": 204.07431866666258,
                    "velocity": 0.25196850393700787,
                    "duration": 0.18027766666665457
                },
                {
                    "name": "A#3",
                    "midi": 58,
                    "time": 204.25459633332923,
                    "velocity": 0.25984251968503935,
                    "duration": 0.18027766666665457
                },
                {
                    "name": "D#4",
                    "midi": 63,
                    "time": 204.4348739999959,
                    "velocity": 0.2755905511811024,
                    "duration": 0.18027766666665457
                },
                {
                    "name": "A#3",
                    "midi": 58,
                    "time": 204.61515166666254,
                    "velocity": 0.2440944881889764,
                    "duration": 0.18027766666665457
                },
                {
                    "name": "D#4",
                    "midi": 63,
                    "time": 204.7954293333292,
                    "velocity": 0.2440944881889764,
                    "duration": 0.18027766666665457
                },
                {
                    "name": "G4",
                    "midi": 67,
                    "time": 204.97570699999585,
                    "velocity": 0.28346456692913385,
                    "duration": 0.18027766666665457
                },
                {
                    "name": "D#4",
                    "midi": 63,
                    "time": 205.1559846666625,
                    "velocity": 0.23622047244094488,
                    "duration": 0.18027766666665457
                },
                {
                    "name": "A#3",
                    "midi": 58,
                    "time": 205.33626233332916,
                    "velocity": 0.23622047244094488,
                    "duration": 0.18027766666665457
                },
                {
                    "name": "A#4",
                    "midi": 70,
                    "time": 205.5165399999958,
                    "velocity": 0.3937007874015748,
                    "duration": 0.5408329999999637
                },
                {
                    "name": "A#3",
                    "midi": 58,
                    "time": 205.69681766666247,
                    "velocity": 0.2283464566929134,
                    "duration": 0.18027766666665457
                },
                {
                    "name": "D4",
                    "midi": 62,
                    "time": 205.87709533332912,
                    "velocity": 0.2283464566929134,
                    "duration": 0.18027766666665457
                },
                {
                    "name": "G#4",
                    "midi": 68,
                    "time": 206.05737299999578,
                    "velocity": 0.2992125984251969,
                    "duration": 0.18027766666665457
                },
                {
                    "name": "D4",
                    "midi": 62,
                    "time": 206.23765066666243,
                    "velocity": 0.2204724409448819,
                    "duration": 0.18027766666665457
                },
                {
                    "name": "A#3",
                    "midi": 58,
                    "time": 206.4179283333291,
                    "velocity": 0.2204724409448819,
                    "duration": 0.18027766666665457
                },
                {
                    "name": "C5",
                    "midi": 72,
                    "time": 206.59820599999574,
                    "velocity": 0.33070866141732286,
                    "duration": 0.5408329999999637
                },
                {
                    "name": "D4",
                    "midi": 62,
                    "time": 206.7784836666624,
                    "velocity": 0.2204724409448819,
                    "duration": 0.18027766666665457
                },
                {
                    "name": "G#4",
                    "midi": 68,
                    "time": 206.95876133332905,
                    "velocity": 0.2204724409448819,
                    "duration": 0.18027766666665457
                },
                {
                    "name": "A#4",
                    "midi": 70,
                    "time": 207.1390389999957,
                    "velocity": 0.30708661417322836,
                    "duration": 0.5408329999999637
                },
                {
                    "name": "G#4",
                    "midi": 68,
                    "time": 207.31931666666236,
                    "velocity": 0.2204724409448819,
                    "duration": 0.18027766666665457
                },
                {
                    "name": "D4",
                    "midi": 62,
                    "time": 207.49959433332901,
                    "velocity": 0.2204724409448819,
                    "duration": 0.18027766666665457
                },
                {
                    "name": "G5",
                    "midi": 79,
                    "time": 207.67987199999567,
                    "velocity": 0.3228346456692913,
                    "duration": 1.6224989999998911
                },
                {
                    "name": "G4",
                    "midi": 67,
                    "time": 207.86014966666232,
                    "velocity": 0.1968503937007874,
                    "duration": 0.18027766666665457
                },
                {
                    "name": "A#4",
                    "midi": 70,
                    "time": 208.04042733332898,
                    "velocity": 0.1968503937007874,
                    "duration": 0.18027766666665457
                },
                {
                    "name": "D#5",
                    "midi": 75,
                    "time": 208.22070499999563,
                    "velocity": 0.2440944881889764,
                    "duration": 0.18027766666665457
                },
                {
                    "name": "A#4",
                    "midi": 70,
                    "time": 208.4009826666623,
                    "velocity": 0.1968503937007874,
                    "duration": 0.18027766666665457
                },
                {
                    "name": "G4",
                    "midi": 67,
                    "time": 208.58126033332894,
                    "velocity": 0.1968503937007874,
                    "duration": 0.18027766666665457
                },
                {
                    "name": "A#4",
                    "midi": 70,
                    "time": 208.7615379999956,
                    "velocity": 0.2204724409448819,
                    "duration": 0.18027766666665457
                },
                {
                    "name": "G4",
                    "midi": 67,
                    "time": 208.94181566666225,
                    "velocity": 0.1968503937007874,
                    "duration": 0.18027766666665457
                },
                {
                    "name": "A#4",
                    "midi": 70,
                    "time": 209.1220933333289,
                    "velocity": 0.2204724409448819,
                    "duration": 0.18027766666665457
                },
                {
                    "name": "F5",
                    "midi": 77,
                    "time": 209.30237099999556,
                    "velocity": 0.2440944881889764,
                    "duration": 0.5408329999999637
                },
                {
                    "name": "B4",
                    "midi": 71,
                    "time": 209.48264866666221,
                    "velocity": 0.18110236220472442,
                    "duration": 0.18027766666665457
                },
                {
                    "name": "G4",
                    "midi": 67,
                    "time": 209.66292633332887,
                    "velocity": 0.18110236220472442,
                    "duration": 0.18027766666665457
                },
                {
                    "name": "F5",
                    "midi": 77,
                    "time": 209.84320399999552,
                    "velocity": 0.29133858267716534,
                    "duration": 0.5408329999999637
                },
                {
                    "name": "C5",
                    "midi": 72,
                    "time": 210.02348166666218,
                    "velocity": 0.1968503937007874,
                    "duration": 0.18027766666665457
                },
                {
                    "name": "D#4",
                    "midi": 63,
                    "time": 210.20375933332883,
                    "velocity": 0.18110236220472442,
                    "duration": 0.18027766666665457
                },
                {
                    "name": "D#5",
                    "midi": 75,
                    "time": 210.3840369999955,
                    "velocity": 0.28346456692913385,
                    "duration": 0.5408329999999637
                },
                {
                    "name": "C5",
                    "midi": 72,
                    "time": 210.56431466666214,
                    "velocity": 0.1732283464566929,
                    "duration": 0.18027766666665457
                },
                {
                    "name": "D#4",
                    "midi": 63,
                    "time": 210.7445923333288,
                    "velocity": 0.1732283464566929,
                    "duration": 0.18027766666665457
                },
                {
                    "name": "C5",
                    "midi": 72,
                    "time": 210.92486999999545,
                    "velocity": 0.2755905511811024,
                    "duration": 0.5408329999999637
                },
                {
                    "name": "G#4",
                    "midi": 68,
                    "time": 211.1051476666621,
                    "velocity": 0.18110236220472442,
                    "duration": 0.18027766666665457
                },
                {
                    "name": "D#4",
                    "midi": 63,
                    "time": 211.28542533332876,
                    "velocity": 0.18110236220472442,
                    "duration": 0.18027766666665457
                },
                {
                    "name": "G#4",
                    "midi": 68,
                    "time": 211.46570299999541,
                    "velocity": 0.2440944881889764,
                    "duration": 0.5408329999999637
                },
                {
                    "name": "F4",
                    "midi": 65,
                    "time": 211.64598066666207,
                    "velocity": 0.1732283464566929,
                    "duration": 0.18027766666665457
                },
                {
                    "name": "C4",
                    "midi": 60,
                    "time": 211.82625833332872,
                    "velocity": 0.1732283464566929,
                    "duration": 0.18027766666665457
                },
                {
                    "name": "G4",
                    "midi": 67,
                    "time": 212.00653599999538,
                    "velocity": 0.30708661417322836,
                    "duration": 1.6224989999998911
                },
                {
                    "name": "G3",
                    "midi": 55,
                    "time": 212.18681366666203,
                    "velocity": 0.1889763779527559,
                    "duration": 0.18027766666665457
                },
                {
                    "name": "A#3",
                    "midi": 58,
                    "time": 212.3670913333287,
                    "velocity": 0.1889763779527559,
                    "duration": 0.18027766666665457
                },
                {
                    "name": "D#4",
                    "midi": 63,
                    "time": 212.54736899999534,
                    "velocity": 0.2283464566929134,
                    "duration": 0.18027766666665457
                },
                {
                    "name": "A#3",
                    "midi": 58,
                    "time": 212.727646666662,
                    "velocity": 0.1968503937007874,
                    "duration": 0.18027766666665457
                },
                {
                    "name": "G3",
                    "midi": 55,
                    "time": 212.90792433332865,
                    "velocity": 0.1968503937007874,
                    "duration": 0.18027766666665457
                },
                {
                    "name": "A#3",
                    "midi": 58,
                    "time": 213.0882019999953,
                    "velocity": 0.2283464566929134,
                    "duration": 0.18027766666665457
                },
                {
                    "name": "G3",
                    "midi": 55,
                    "time": 213.26847966666196,
                    "velocity": 0.1889763779527559,
                    "duration": 0.18027766666665457
                },
                {
                    "name": "A#3",
                    "midi": 58,
                    "time": 213.44875733332862,
                    "velocity": 0.1889763779527559,
                    "duration": 0.18027766666665457
                },
                {
                    "name": "D#4",
                    "midi": 63,
                    "time": 213.62903499999527,
                    "velocity": 0.2992125984251969,
                    "duration": 0.18027766666665457
                },
                {
                    "name": "G4",
                    "midi": 67,
                    "time": 213.62903499999527,
                    "velocity": 0.2992125984251969,
                    "duration": 0.5408329999999637
                },
                {
                    "name": "A#3",
                    "midi": 58,
                    "time": 213.80931266666192,
                    "velocity": 0.1968503937007874,
                    "duration": 0.18027766666665457
                },
                {
                    "name": "G3",
                    "midi": 55,
                    "time": 213.98959033332858,
                    "velocity": 0.1968503937007874,
                    "duration": 0.18027766666665457
                },
                {
                    "name": "C5",
                    "midi": 72,
                    "time": 214.16986799999523,
                    "velocity": 0.28346456692913385,
                    "duration": 0.5408329999999637
                },
                {
                    "name": "D4",
                    "midi": 62,
                    "time": 214.3501456666619,
                    "velocity": 0.2047244094488189,
                    "duration": 0.18027766666665457
                },
                {
                    "name": "F4",
                    "midi": 65,
                    "time": 214.53042333332854,
                    "velocity": 0.2047244094488189,
                    "duration": 0.18027766666665457
                },
                {
                    "name": "A#4",
                    "midi": 70,
                    "time": 214.7107009999952,
                    "velocity": 0.28346456692913385,
                    "duration": 0.5408329999999637
                },
                {
                    "name": "D4",
                    "midi": 62,
                    "time": 214.89097866666185,
                    "velocity": 0.1732283464566929,
                    "duration": 0.18027766666665457
                },
                {
                    "name": "F4",
                    "midi": 65,
                    "time": 215.0712563333285,
                    "velocity": 0.1732283464566929,
                    "duration": 0.18027766666665457
                },
                {
                    "name": "G#4",
                    "midi": 68,
                    "time": 215.25153399999516,
                    "velocity": 0.25984251968503935,
                    "duration": 0.5408329999999637
                },
                {
                    "name": "A#3",
                    "midi": 58,
                    "time": 215.43181166666182,
                    "velocity": 0.1889763779527559,
                    "duration": 0.18027766666665457
                },
                {
                    "name": "D4",
                    "midi": 62,
                    "time": 215.61208933332847,
                    "velocity": 0.1889763779527559,
                    "duration": 0.18027766666665457
                },
                {
                    "name": "F4",
                    "midi": 65,
                    "time": 215.79236699999512,
                    "velocity": 0.25984251968503935,
                    "duration": 0.5408329999999637
                },
                {
                    "name": "A#3",
                    "midi": 58,
                    "time": 215.97264466666178,
                    "velocity": 0.1732283464566929,
                    "duration": 0.18027766666665457
                },
                {
                    "name": "D4",
                    "midi": 62,
                    "time": 216.15292233332843,
                    "velocity": 0.1732283464566929,
                    "duration": 0.18027766666665457
                },
                {
                    "name": "D#4",
                    "midi": 63,
                    "time": 216.3331999999951,
                    "velocity": 0.23622047244094488,
                    "duration": 1.6224989999998911
                },
                {
                    "name": "D#3",
                    "midi": 51,
                    "time": 216.51347766666174,
                    "velocity": 0.15748031496062992,
                    "duration": 0.18027766666665457
                },
                {
                    "name": "G3",
                    "midi": 55,
                    "time": 216.6937553333284,
                    "velocity": 0.15748031496062992,
                    "duration": 0.18027766666665457
                },
                {
                    "name": "A#3",
                    "midi": 58,
                    "time": 216.87403299999505,
                    "velocity": 0.1732283464566929,
                    "duration": 0.18027766666665457
                },
                {
                    "name": "G3",
                    "midi": 55,
                    "time": 217.0543106666617,
                    "velocity": 0.15748031496062992,
                    "duration": 0.18027766666665457
                },
                {
                    "name": "D#3",
                    "midi": 51,
                    "time": 217.23458833332836,
                    "velocity": 0.15748031496062992,
                    "duration": 0.18027766666665457
                },
                {
                    "name": "G3",
                    "midi": 55,
                    "time": 217.41486599999502,
                    "velocity": 0.16535433070866143,
                    "duration": 0.18027766666665457
                },
                {
                    "name": "D#3",
                    "midi": 51,
                    "time": 217.59514366666167,
                    "velocity": 0.15748031496062992,
                    "duration": 0.18027766666665457
                },
                {
                    "name": "G3",
                    "midi": 55,
                    "time": 217.77542133332832,
                    "velocity": 0.1732283464566929,
                    "duration": 0.18027766666665457
                },
                {
                    "name": "A#3",
                    "midi": 58,
                    "time": 217.95569899999498,
                    "velocity": 0.1732283464566929,
                    "duration": 0.18027766666665457
                },
                {
                    "name": "G3",
                    "midi": 55,
                    "time": 218.13597666666163,
                    "velocity": 0.1732283464566929,
                    "duration": 0.18027766666665457
                },
                {
                    "name": "D#3",
                    "midi": 51,
                    "time": 218.3162543333283,
                    "velocity": 0.1732283464566929,
                    "duration": 0.18027766666665457
                },
                {
                    "name": "D#4",
                    "midi": 63,
                    "time": 218.49653199999494,
                    "velocity": 0.23622047244094488,
                    "duration": 1.6224989999998911
                },
                {
                    "name": "D#3",
                    "midi": 51,
                    "time": 218.6768096666616,
                    "velocity": 0.15748031496062992,
                    "duration": 0.18027766666665457
                },
                {
                    "name": "G3",
                    "midi": 55,
                    "time": 218.85708733332825,
                    "velocity": 0.15748031496062992,
                    "duration": 0.18027766666665457
                },
                {
                    "name": "A#3",
                    "midi": 58,
                    "time": 219.0373649999949,
                    "velocity": 0.1732283464566929,
                    "duration": 0.18027766666665457
                },
                {
                    "name": "G3",
                    "midi": 55,
                    "time": 219.21764266666156,
                    "velocity": 0.15748031496062992,
                    "duration": 0.18027766666665457
                },
                {
                    "name": "D#3",
                    "midi": 51,
                    "time": 219.39792033332822,
                    "velocity": 0.15748031496062992,
                    "duration": 0.18027766666665457
                },
                {
                    "name": "G3",
                    "midi": 55,
                    "time": 219.57819799999487,
                    "velocity": 0.16535433070866143,
                    "duration": 0.18027766666665457
                },
                {
                    "name": "D#3",
                    "midi": 51,
                    "time": 219.75847566666152,
                    "velocity": 0.15748031496062992,
                    "duration": 0.18027766666665457
                },
                {
                    "name": "G3",
                    "midi": 55,
                    "time": 219.93875333332818,
                    "velocity": 0.1732283464566929,
                    "duration": 0.18027766666665457
                },
                {
                    "name": "A#3",
                    "midi": 58,
                    "time": 220.11903099999483,
                    "velocity": 0.1732283464566929,
                    "duration": 0.18027766666665457
                },
                {
                    "name": "G3",
                    "midi": 55,
                    "time": 220.2993086666615,
                    "velocity": 0.1732283464566929,
                    "duration": 0.18027766666665457
                },
                {
                    "name": "D#3",
                    "midi": 51,
                    "time": 220.47958633332814,
                    "velocity": 0.1732283464566929,
                    "duration": 0.18027766666665457
                },
                {
                    "name": "D#4",
                    "midi": 63,
                    "time": 220.6598639999948,
                    "velocity": 0.23622047244094488,
                    "duration": 1.6224989999998911
                },
                {
                    "name": "D#3",
                    "midi": 51,
                    "time": 220.84014166666145,
                    "velocity": 0.15748031496062992,
                    "duration": 0.18027766666665457
                },
                {
                    "name": "G#3",
                    "midi": 56,
                    "time": 221.0204193333281,
                    "velocity": 0.15748031496062992,
                    "duration": 0.18027766666665457
                },
                {
                    "name": "B3",
                    "midi": 59,
                    "time": 221.20069699999476,
                    "velocity": 0.1732283464566929,
                    "duration": 0.18027766666665457
                },
                {
                    "name": "G#3",
                    "midi": 56,
                    "time": 221.38097466666142,
                    "velocity": 0.15748031496062992,
                    "duration": 0.18027766666665457
                },
                {
                    "name": "D#3",
                    "midi": 51,
                    "time": 221.56125233332807,
                    "velocity": 0.15748031496062992,
                    "duration": 0.18027766666665457
                },
                {
                    "name": "G#3",
                    "midi": 56,
                    "time": 221.74152999999473,
                    "velocity": 0.16535433070866143,
                    "duration": 0.18027766666665457
                },
                {
                    "name": "D#3",
                    "midi": 51,
                    "time": 221.92180766666138,
                    "velocity": 0.15748031496062992,
                    "duration": 0.18027766666665457
                },
                {
                    "name": "G#3",
                    "midi": 56,
                    "time": 222.10208533332803,
                    "velocity": 0.1732283464566929,
                    "duration": 0.18027766666665457
                },
                {
                    "name": "B3",
                    "midi": 59,
                    "time": 222.2823629999947,
                    "velocity": 0.1732283464566929,
                    "duration": 0.18027766666665457
                },
                {
                    "name": "G#3",
                    "midi": 56,
                    "time": 222.46264066666134,
                    "velocity": 0.1732283464566929,
                    "duration": 0.18027766666665457
                },
                {
                    "name": "D#3",
                    "midi": 51,
                    "time": 222.642918333328,
                    "velocity": 0.1732283464566929,
                    "duration": 0.18027766666665457
                },
                {
                    "name": "D#4",
                    "midi": 63,
                    "time": 222.82319599999465,
                    "velocity": 0.23622047244094488,
                    "duration": 1.6224989999998911
                },
                {
                    "name": "D#3",
                    "midi": 51,
                    "time": 223.0034736666613,
                    "velocity": 0.15748031496062992,
                    "duration": 0.18027766666665457
                },
                {
                    "name": "G3",
                    "midi": 55,
                    "time": 223.18375133332796,
                    "velocity": 0.15748031496062992,
                    "duration": 0.18027766666665457
                },
                {
                    "name": "C#4",
                    "midi": 61,
                    "time": 223.36402899999462,
                    "velocity": 0.1732283464566929,
                    "duration": 0.18027766666665457
                },
                {
                    "name": "G3",
                    "midi": 55,
                    "time": 223.54430666666127,
                    "velocity": 0.15748031496062992,
                    "duration": 0.18027766666665457
                },
                {
                    "name": "D#3",
                    "midi": 51,
                    "time": 223.72458433332793,
                    "velocity": 0.15748031496062992,
                    "duration": 0.18027766666665457
                },
                {
                    "name": "G3",
                    "midi": 55,
                    "time": 223.90486199999458,
                    "velocity": 0.16535433070866143,
                    "duration": 0.18027766666665457
                },
                {
                    "name": "D#3",
                    "midi": 51,
                    "time": 224.08513966666123,
                    "velocity": 0.15748031496062992,
                    "duration": 0.18027766666665457
                },
                {
                    "name": "G3",
                    "midi": 55,
                    "time": 224.2654173333279,
                    "velocity": 0.1732283464566929,
                    "duration": 0.18027766666665457
                },
                {
                    "name": "C#4",
                    "midi": 61,
                    "time": 224.44569499999454,
                    "velocity": 0.1732283464566929,
                    "duration": 0.18027766666665457
                },
                {
                    "name": "G3",
                    "midi": 55,
                    "time": 224.6259726666612,
                    "velocity": 0.1732283464566929,
                    "duration": 0.18027766666665457
                },
                {
                    "name": "D#3",
                    "midi": 51,
                    "time": 224.80625033332785,
                    "velocity": 0.1732283464566929,
                    "duration": 0.18027766666665457
                },
                {
                    "name": "D#4",
                    "midi": 63,
                    "time": 224.9865279999945,
                    "velocity": 0.23622047244094488,
                    "duration": 1.6224989999998911
                },
                {
                    "name": "D#3",
                    "midi": 51,
                    "time": 225.16680566666116,
                    "velocity": 0.15748031496062992,
                    "duration": 0.18027766666665457
                },
                {
                    "name": "G#3",
                    "midi": 56,
                    "time": 225.34708333332782,
                    "velocity": 0.15748031496062992,
                    "duration": 0.18027766666665457
                },
                {
                    "name": "B3",
                    "midi": 59,
                    "time": 225.52736099999447,
                    "velocity": 0.1732283464566929,
                    "duration": 0.18027766666665457
                },
                {
                    "name": "G#3",
                    "midi": 56,
                    "time": 225.70763866666113,
                    "velocity": 0.15748031496062992,
                    "duration": 0.18027766666665457
                },
                {
                    "name": "D#3",
                    "midi": 51,
                    "time": 225.88791633332778,
                    "velocity": 0.15748031496062992,
                    "duration": 0.18027766666665457
                },
                {
                    "name": "G#3",
                    "midi": 56,
                    "time": 226.06819399999443,
                    "velocity": 0.16535433070866143,
                    "duration": 0.18027766666665457
                },
                {
                    "name": "D#3",
                    "midi": 51,
                    "time": 226.2484716666611,
                    "velocity": 0.15748031496062992,
                    "duration": 0.18027766666665457
                },
                {
                    "name": "G#3",
                    "midi": 56,
                    "time": 226.42874933332774,
                    "velocity": 0.1732283464566929,
                    "duration": 0.18027766666665457
                },
                {
                    "name": "B3",
                    "midi": 59,
                    "time": 226.6090269999944,
                    "velocity": 0.1732283464566929,
                    "duration": 0.18027766666665457
                },
                {
                    "name": "G#3",
                    "midi": 56,
                    "time": 226.78930466666105,
                    "velocity": 0.1732283464566929,
                    "duration": 0.18027766666665457
                },
                {
                    "name": "D#3",
                    "midi": 51,
                    "time": 226.9695823333277,
                    "velocity": 0.1732283464566929,
                    "duration": 0.18027766666665457
                },
                {
                    "name": "G#4",
                    "midi": 68,
                    "time": 227.14985999999436,
                    "velocity": 0.28346456692913385,
                    "duration": 1.6224989999998911
                },
                {
                    "name": "G#3",
                    "midi": 56,
                    "time": 227.33013766666102,
                    "velocity": 0.1889763779527559,
                    "duration": 0.18027766666665457
                },
                {
                    "name": "B3",
                    "midi": 59,
                    "time": 227.51041533332767,
                    "velocity": 0.1889763779527559,
                    "duration": 0.18027766666665457
                },
                {
                    "name": "D4",
                    "midi": 62,
                    "time": 227.69069299999433,
                    "velocity": 0.2125984251968504,
                    "duration": 0.18027766666665457
                },
                {
                    "name": "B3",
                    "midi": 59,
                    "time": 227.87097066666098,
                    "velocity": 0.1968503937007874,
                    "duration": 0.18027766666665457
                },
                {
                    "name": "G#3",
                    "midi": 56,
                    "time": 228.05124833332764,
                    "velocity": 0.1968503937007874,
                    "duration": 0.18027766666665457
                },
                {
                    "name": "B3",
                    "midi": 59,
                    "time": 228.2315259999943,
                    "velocity": 0.30708661417322836,
                    "duration": 0.18027766666665457
                },
                {
                    "name": "G#3",
                    "midi": 56,
                    "time": 228.41180366666094,
                    "velocity": 0.33858267716535434,
                    "duration": 0.18027766666665457
                },
                {
                    "name": "B3",
                    "midi": 59,
                    "time": 228.5920813333276,
                    "velocity": 0.36220472440944884,
                    "duration": 0.18027766666665457
                },
                {
                    "name": "D4",
                    "midi": 62,
                    "time": 228.77235899999425,
                    "velocity": 0.3937007874015748,
                    "duration": 0.18027766666665457
                },
                {
                    "name": "B3",
                    "midi": 59,
                    "time": 228.9526366666609,
                    "velocity": 0.4251968503937008,
                    "duration": 0.18027766666665457
                },
                {
                    "name": "G#3",
                    "midi": 56,
                    "time": 229.13291433332756,
                    "velocity": 0.44881889763779526,
                    "duration": 0.18027766666665457
                },
                {
                    "name": "B4",
                    "midi": 71,
                    "time": 229.31319199999422,
                    "velocity": 0.5826771653543307,
                    "duration": 4.32666399999971
                },
                {
                    "name": "B3",
                    "midi": 59,
                    "time": 229.49346966666087,
                    "velocity": 0.4330708661417323,
                    "duration": 0.18027766666665457
                },
                {
                    "name": "C#4",
                    "midi": 61,
                    "time": 229.67374733332753,
                    "velocity": 0.4330708661417323,
                    "duration": 0.18027766666665457
                },
                {
                    "name": "G#4",
                    "midi": 68,
                    "time": 229.85402499999418,
                    "velocity": 0.5039370078740157,
                    "duration": 0.18027766666665457
                },
                {
                    "name": "C#4",
                    "midi": 61,
                    "time": 230.03430266666084,
                    "velocity": 0.3779527559055118,
                    "duration": 0.18027766666665457
                },
                {
                    "name": "B3",
                    "midi": 59,
                    "time": 230.2145803333275,
                    "velocity": 0.3779527559055118,
                    "duration": 0.18027766666665457
                },
                {
                    "name": "C#4",
                    "midi": 61,
                    "time": 230.39485799999414,
                    "velocity": 0.4094488188976378,
                    "duration": 0.18027766666665457
                },
                {
                    "name": "B3",
                    "midi": 59,
                    "time": 230.5751356666608,
                    "velocity": 0.33070866141732286,
                    "duration": 0.18027766666665457
                },
                {
                    "name": "C#4",
                    "midi": 61,
                    "time": 230.75541333332745,
                    "velocity": 0.33070866141732286,
                    "duration": 0.18027766666665457
                },
                {
                    "name": "G#4",
                    "midi": 68,
                    "time": 230.9356909999941,
                    "velocity": 0.4015748031496063,
                    "duration": 0.18027766666665457
                },
                {
                    "name": "C#4",
                    "midi": 61,
                    "time": 231.11596866666076,
                    "velocity": 0.2992125984251969,
                    "duration": 0.18027766666665457
                },
                {
                    "name": "B3",
                    "midi": 59,
                    "time": 231.29624633332742,
                    "velocity": 0.28346456692913385,
                    "duration": 0.18027766666665457
                },
                {
                    "name": "D4",
                    "midi": 62,
                    "time": 231.47652399999407,
                    "velocity": 0.36220472440944884,
                    "duration": 0.18027766666665457
                },
                {
                    "name": "B3",
                    "midi": 59,
                    "time": 231.65680166666073,
                    "velocity": 0.2992125984251969,
                    "duration": 0.18027766666665457
                },
                {
                    "name": "D4",
                    "midi": 62,
                    "time": 231.83707933332738,
                    "velocity": 0.29133858267716534,
                    "duration": 0.18027766666665457
                },
                {
                    "name": "G#4",
                    "midi": 68,
                    "time": 232.01735699999404,
                    "velocity": 0.28346456692913385,
                    "duration": 0.18027766666665457
                },
                {
                    "name": "D4",
                    "midi": 62,
                    "time": 232.1976346666607,
                    "velocity": 0.28346456692913385,
                    "duration": 0.18027766666665457
                },
                {
                    "name": "B3",
                    "midi": 59,
                    "time": 232.37791233332734,
                    "velocity": 0.2755905511811024,
                    "duration": 0.18027766666665457
                },
                {
                    "name": "C#4",
                    "midi": 61,
                    "time": 232.558189999994,
                    "velocity": 0.2677165354330709,
                    "duration": 0.18027766666665457
                },
                {
                    "name": "B3",
                    "midi": 59,
                    "time": 232.73846766666065,
                    "velocity": 0.25984251968503935,
                    "duration": 0.18027766666665457
                },
                {
                    "name": "C#4",
                    "midi": 61,
                    "time": 232.9187453333273,
                    "velocity": 0.25196850393700787,
                    "duration": 0.18027766666665457
                },
                {
                    "name": "G#4",
                    "midi": 68,
                    "time": 233.09902299999396,
                    "velocity": 0.2440944881889764,
                    "duration": 0.18027766666665457
                },
                {
                    "name": "C#4",
                    "midi": 61,
                    "time": 233.27930066666062,
                    "velocity": 0.23622047244094488,
                    "duration": 0.18027766666665457
                },
                {
                    "name": "B3",
                    "midi": 59,
                    "time": 233.45957833332727,
                    "velocity": 0.2283464566929134,
                    "duration": 0.18027766666665457
                },
                {
                    "name": "A#4",
                    "midi": 70,
                    "time": 233.63985599999393,
                    "velocity": 0.3464566929133858,
                    "duration": 2.163331999999855
                },
                {
                    "name": "A#3",
                    "midi": 58,
                    "time": 233.82013366666058,
                    "velocity": 0.2047244094488189,
                    "duration": 0.18027766666665457
                },
                {
                    "name": "C#4",
                    "midi": 61,
                    "time": 234.00041133332724,
                    "velocity": 0.2047244094488189,
                    "duration": 0.18027766666665457
                },
                {
                    "name": "F#4",
                    "midi": 66,
                    "time": 234.1806889999939,
                    "velocity": 0.2283464566929134,
                    "duration": 0.18027766666665457
                },
                {
                    "name": "C#4",
                    "midi": 61,
                    "time": 234.36096666666054,
                    "velocity": 0.1968503937007874,
                    "duration": 0.18027766666665457
                },
                {
                    "name": "A#3",
                    "midi": 58,
                    "time": 234.5412443333272,
                    "velocity": 0.1968503937007874,
                    "duration": 0.18027766666665457
                },
                {
                    "name": "C#4",
                    "midi": 61,
                    "time": 234.72152199999385,
                    "velocity": 0.23622047244094488,
                    "duration": 0.18027766666665457
                },
                {
                    "name": "A#3",
                    "midi": 58,
                    "time": 234.9017996666605,
                    "velocity": 0.1968503937007874,
                    "duration": 0.18027766666665457
                },
                {
                    "name": "C#4",
                    "midi": 61,
                    "time": 235.08207733332716,
                    "velocity": 0.1968503937007874,
                    "duration": 0.18027766666665457
                },
                {
                    "name": "F#4",
                    "midi": 66,
                    "time": 235.26235499999382,
                    "velocity": 0.2283464566929134,
                    "duration": 0.18027766666665457
                },
                {
                    "name": "C#4",
                    "midi": 61,
                    "time": 235.44263266666047,
                    "velocity": 0.2047244094488189,
                    "duration": 0.18027766666665457
                },
                {
                    "name": "A#3",
                    "midi": 58,
                    "time": 235.62291033332713,
                    "velocity": 0.2047244094488189,
                    "duration": 0.18027766666665457
                },
                {
                    "name": "A#4",
                    "midi": 70,
                    "time": 235.80318799999378,
                    "velocity": 0.3228346456692913,
                    "duration": 1.0816659999999274
                },
                {
                    "name": "A#3",
                    "midi": 58,
                    "time": 235.98346566666044,
                    "velocity": 0.2125984251968504,
                    "duration": 0.18027766666665457
                },
                {
                    "name": "C#4",
                    "midi": 61,
                    "time": 236.1637433333271,
                    "velocity": 0.2283464566929134,
                    "duration": 0.18027766666665457
                },
                {
                    "name": "F#4",
                    "midi": 66,
                    "time": 236.34402099999375,
                    "velocity": 0.2440944881889764,
                    "duration": 0.18027766666665457
                },
                {
                    "name": "C#4",
                    "midi": 61,
                    "time": 236.5242986666604,
                    "velocity": 0.2047244094488189,
                    "duration": 0.18027766666665457
                },
                {
                    "name": "A#3",
                    "midi": 58,
                    "time": 236.70457633332705,
                    "velocity": 0.2283464566929134,
                    "duration": 0.18027766666665457
                },
                {
                    "name": "A#4",
                    "midi": 70,
                    "time": 236.8848539999937,
                    "velocity": 0.3464566929133858,
                    "duration": 1.0816659999999274
                },
                {
                    "name": "A#3",
                    "midi": 58,
                    "time": 237.06513166666036,
                    "velocity": 0.2204724409448819,
                    "duration": 0.18027766666665457
                },
                {
                    "name": "C#4",
                    "midi": 61,
                    "time": 237.24540933332702,
                    "velocity": 0.23622047244094488,
                    "duration": 0.18027766666665457
                },
                {
                    "name": "F#4",
                    "midi": 66,
                    "time": 237.42568699999367,
                    "velocity": 0.2755905511811024,
                    "duration": 0.18027766666665457
                },
                {
                    "name": "C#4",
                    "midi": 61,
                    "time": 237.60596466666033,
                    "velocity": 0.2440944881889764,
                    "duration": 0.18027766666665457
                },
                {
                    "name": "A#3",
                    "midi": 58,
                    "time": 237.78624233332698,
                    "velocity": 0.25984251968503935,
                    "duration": 0.18027766666665457
                },
                {
                    "name": "A#4",
                    "midi": 70,
                    "time": 237.96651999999364,
                    "velocity": 0.3858267716535433,
                    "duration": 2.163331999999855
                },
                {
                    "name": "A#3",
                    "midi": 58,
                    "time": 238.1467976666603,
                    "velocity": 0.2125984251968504,
                    "duration": 0.18027766666665457
                },
                {
                    "name": "D#4",
                    "midi": 63,
                    "time": 238.32707533332695,
                    "velocity": 0.2125984251968504,
                    "duration": 0.18027766666665457
                },
                {
                    "name": "F#4",
                    "midi": 66,
                    "time": 238.5073529999936,
                    "velocity": 0.2677165354330709,
                    "duration": 0.18027766666665457
                },
                {
                    "name": "D#4",
                    "midi": 63,
                    "time": 238.68763066666025,
                    "velocity": 0.2283464566929134,
                    "duration": 0.18027766666665457
                },
                {
                    "name": "A#3",
                    "midi": 58,
                    "time": 238.8679083333269,
                    "velocity": 0.2283464566929134,
                    "duration": 0.18027766666665457
                },
                {
                    "name": "D#4",
                    "midi": 63,
                    "time": 239.04818599999356,
                    "velocity": 0.29133858267716534,
                    "duration": 0.18027766666665457
                },
                {
                    "name": "A#3",
                    "midi": 58,
                    "time": 239.22846366666022,
                    "velocity": 0.2283464566929134,
                    "duration": 0.18027766666665457
                },
                {
                    "name": "D#4",
                    "midi": 63,
                    "time": 239.40874133332687,
                    "velocity": 0.2283464566929134,
                    "duration": 0.18027766666665457
                },
                {
                    "name": "F#4",
                    "midi": 66,
                    "time": 239.58901899999353,
                    "velocity": 0.28346456692913385,
                    "duration": 0.18027766666665457
                },
                {
                    "name": "D#4",
                    "midi": 63,
                    "time": 239.76929666666018,
                    "velocity": 0.2283464566929134,
                    "duration": 0.18027766666665457
                },
                {
                    "name": "A#3",
                    "midi": 58,
                    "time": 239.94957433332684,
                    "velocity": 0.2283464566929134,
                    "duration": 0.18027766666665457
                },
                {
                    "name": "F#4",
                    "midi": 66,
                    "time": 240.1298519999935,
                    "velocity": 0.3858267716535433,
                    "duration": 2.163331999999855
                },
                {
                    "name": "F#3",
                    "midi": 54,
                    "time": 240.31012966666015,
                    "velocity": 0.23622047244094488,
                    "duration": 0.18027766666665457
                },
                {
                    "name": "A#3",
                    "midi": 58,
                    "time": 240.4904073333268,
                    "velocity": 0.23622047244094488,
                    "duration": 0.18027766666665457
                },
                {
                    "name": "D#4",
                    "midi": 63,
                    "time": 240.67068499999345,
                    "velocity": 0.28346456692913385,
                    "duration": 0.18027766666665457
                },
                {
                    "name": "A#3",
                    "midi": 58,
                    "time": 240.8509626666601,
                    "velocity": 0.23622047244094488,
                    "duration": 0.18027766666665457
                },
                {
                    "name": "F#3",
                    "midi": 54,
                    "time": 241.03124033332676,
                    "velocity": 0.23622047244094488,
                    "duration": 0.18027766666665457
                },
                {
                    "name": "A#3",
                    "midi": 58,
                    "time": 241.21151799999342,
                    "velocity": 0.29133858267716534,
                    "duration": 0.18027766666665457
                },
                {
                    "name": "F#3",
                    "midi": 54,
                    "time": 241.39179566666007,
                    "velocity": 0.23622047244094488,
                    "duration": 0.18027766666665457
                },
                {
                    "name": "A#3",
                    "midi": 58,
                    "time": 241.57207333332673,
                    "velocity": 0.23622047244094488,
                    "duration": 0.18027766666665457
                },
                {
                    "name": "D#4",
                    "midi": 63,
                    "time": 241.75235099999338,
                    "velocity": 0.2755905511811024,
                    "duration": 0.18027766666665457
                },
                {
                    "name": "A#3",
                    "midi": 58,
                    "time": 241.93262866666004,
                    "velocity": 0.23622047244094488,
                    "duration": 0.18027766666665457
                },
                {
                    "name": "F#3",
                    "midi": 54,
                    "time": 242.1129063333267,
                    "velocity": 0.23622047244094488,
                    "duration": 0.18027766666665457
                },
                {
                    "name": "G#4",
                    "midi": 68,
                    "time": 242.29318399999335,
                    "velocity": 0.3858267716535433,
                    "duration": 2.163331999999855
                },
                {
                    "name": "G#3",
                    "midi": 56,
                    "time": 242.47346166666,
                    "velocity": 0.2283464566929134,
                    "duration": 0.18027766666665457
                },
                {
                    "name": "B3",
                    "midi": 59,
                    "time": 242.65373933332666,
                    "velocity": 0.2283464566929134,
                    "duration": 0.18027766666665457
                },
                {
                    "name": "D#4",
                    "midi": 63,
                    "time": 242.8340169999933,
                    "velocity": 0.29133858267716534,
                    "duration": 0.18027766666665457
                },
                {
                    "name": "B3",
                    "midi": 59,
                    "time": 243.01429466665996,
                    "velocity": 0.2283464566929134,
                    "duration": 0.18027766666665457
                },
                {
                    "name": "G#3",
                    "midi": 56,
                    "time": 243.19457233332662,
                    "velocity": 0.2283464566929134,
                    "duration": 0.18027766666665457
                },
                {
                    "name": "B3",
                    "midi": 59,
                    "time": 243.37484999999327,
                    "velocity": 0.29133858267716534,
                    "duration": 0.18027766666665457
                },
                {
                    "name": "G#3",
                    "midi": 56,
                    "time": 243.55512766665993,
                    "velocity": 0.2283464566929134,
                    "duration": 0.18027766666665457
                },
                {
                    "name": "B3",
                    "midi": 59,
                    "time": 243.73540533332658,
                    "velocity": 0.2283464566929134,
                    "duration": 0.18027766666665457
                },
                {
                    "name": "D#4",
                    "midi": 63,
                    "time": 243.91568299999324,
                    "velocity": 0.28346456692913385,
                    "duration": 0.18027766666665457
                },
                {
                    "name": "B3",
                    "midi": 59,
                    "time": 244.0959606666599,
                    "velocity": 0.2283464566929134,
                    "duration": 0.18027766666665457
                },
                {
                    "name": "G#3",
                    "midi": 56,
                    "time": 244.27623833332655,
                    "velocity": 0.2283464566929134,
                    "duration": 0.18027766666665457
                },
                {
                    "name": "F#4",
                    "midi": 66,
                    "time": 244.4565159999932,
                    "velocity": 0.36220472440944884,
                    "duration": 0.5408329999999637
                },
                {
                    "name": "G#3",
                    "midi": 56,
                    "time": 244.63679366665986,
                    "velocity": 0.2283464566929134,
                    "duration": 0.18027766666665457
                },
                {
                    "name": "B3",
                    "midi": 59,
                    "time": 244.8170713333265,
                    "velocity": 0.2283464566929134,
                    "duration": 0.18027766666665457
                },
                {
                    "name": "F4",
                    "midi": 65,
                    "time": 244.99734899999316,
                    "velocity": 0.3543307086614173,
                    "duration": 0.5408329999999637
                },
                {
                    "name": "G#3",
                    "midi": 56,
                    "time": 245.17762666665982,
                    "velocity": 0.2204724409448819,
                    "duration": 0.18027766666665457
                },
                {
                    "name": "B3",
                    "midi": 59,
                    "time": 245.35790433332647,
                    "velocity": 0.2204724409448819,
                    "duration": 0.18027766666665457
                },
                {
                    "name": "D#4",
                    "midi": 63,
                    "time": 245.53818199999313,
                    "velocity": 0.3464566929133858,
                    "duration": 0.5408329999999637
                },
                {
                    "name": "G#3",
                    "midi": 56,
                    "time": 245.71845966665978,
                    "velocity": 0.2283464566929134,
                    "duration": 0.18027766666665457
                },
                {
                    "name": "B3",
                    "midi": 59,
                    "time": 245.89873733332644,
                    "velocity": 0.23622047244094488,
                    "duration": 0.18027766666665457
                },
                {
                    "name": "C#4",
                    "midi": 61,
                    "time": 246.0790149999931,
                    "velocity": 0.31496062992125984,
                    "duration": 0.5408329999999637
                },
                {
                    "name": "F3",
                    "midi": 53,
                    "time": 246.25929266665975,
                    "velocity": 0.2283464566929134,
                    "duration": 0.18027766666665457
                },
                {
                    "name": "G#3",
                    "midi": 56,
                    "time": 246.4395703333264,
                    "velocity": 0.23622047244094488,
                    "duration": 0.18027766666665457
                },
                {
                    "name": "F#4",
                    "midi": 66,
                    "time": 246.61984799999306,
                    "velocity": 0.3858267716535433,
                    "duration": 1.0816659999999274
                },
                {
                    "name": "F#3",
                    "midi": 54,
                    "time": 246.8001256666597,
                    "velocity": 0.25196850393700787,
                    "duration": 0.18027766666665457
                },
                {
                    "name": "A#3",
                    "midi": 58,
                    "time": 246.98040333332636,
                    "velocity": 0.25984251968503935,
                    "duration": 0.18027766666665457
                },
                {
                    "name": "C#4",
                    "midi": 61,
                    "time": 247.16068099999302,
                    "velocity": 0.2755905511811024,
                    "duration": 0.18027766666665457
                },
                {
                    "name": "A#3",
                    "midi": 58,
                    "time": 247.34095866665967,
                    "velocity": 0.28346456692913385,
                    "duration": 0.18027766666665457
                },
                {
                    "name": "F#3",
                    "midi": 54,
                    "time": 247.52123633332633,
                    "velocity": 0.2992125984251969,
                    "duration": 0.18027766666665457
                },
                {
                    "name": "A#4",
                    "midi": 70,
                    "time": 247.70151399999298,
                    "velocity": 0.3779527559055118,
                    "duration": 1.0816659999999274
                },
                {
                    "name": "C4",
                    "midi": 60,
                    "time": 247.88179166665964,
                    "velocity": 0.2992125984251969,
                    "duration": 0.18027766666665457
                },
                {
                    "name": "D#4",
                    "midi": 63,
                    "time": 248.0620693333263,
                    "velocity": 0.28346456692913385,
                    "duration": 0.18027766666665457
                },
                {
                    "name": "F#4",
                    "midi": 66,
                    "time": 248.24234699999295,
                    "velocity": 0.2755905511811024,
                    "duration": 0.18027766666665457
                },
                {
                    "name": "D#4",
                    "midi": 63,
                    "time": 248.4226246666596,
                    "velocity": 0.25984251968503935,
                    "duration": 0.18027766666665457
                },
                {
                    "name": "C4",
                    "midi": 60,
                    "time": 248.60290233332626,
                    "velocity": 0.25196850393700787,
                    "duration": 0.18027766666665457
                },
                {
                    "name": "G#4",
                    "midi": 68,
                    "time": 248.7831799999929,
                    "velocity": 0.3228346456692913,
                    "duration": 1.6224989999998911
                },
                {
                    "name": "G#3",
                    "midi": 56,
                    "time": 248.96345766665956,
                    "velocity": 0.2125984251968504,
                    "duration": 0.18027766666665457
                },
                {
                    "name": "C#4",
                    "midi": 61,
                    "time": 249.14373533332622,
                    "velocity": 0.2125984251968504,
                    "duration": 0.18027766666665457
                },
                {
                    "name": "F4",
                    "midi": 65,
                    "time": 249.32401299999287,
                    "velocity": 0.23622047244094488,
                    "duration": 0.18027766666665457
                },
                {
                    "name": "C#4",
                    "midi": 61,
                    "time": 249.50429066665953,
                    "velocity": 0.2125984251968504,
                    "duration": 0.18027766666665457
                },
                {
                    "name": "G#3",
                    "midi": 56,
                    "time": 249.68456833332618,
                    "velocity": 0.2125984251968504,
                    "duration": 0.18027766666665457
                },
                {
                    "name": "C#4",
                    "midi": 61,
                    "time": 249.86484599999284,
                    "velocity": 0.23622047244094488,
                    "duration": 0.18027766666665457
                },
                {
                    "name": "G#3",
                    "midi": 56,
                    "time": 250.0451236666595,
                    "velocity": 0.2125984251968504,
                    "duration": 0.18027766666665457
                },
                {
                    "name": "C#4",
                    "midi": 61,
                    "time": 250.22540133332615,
                    "velocity": 0.2125984251968504,
                    "duration": 0.18027766666665457
                },
                {
                    "name": "F4",
                    "midi": 65,
                    "time": 250.4056789999928,
                    "velocity": 0.2440944881889764,
                    "duration": 0.18027766666665457
                },
                {
                    "name": "A4",
                    "midi": 69,
                    "time": 250.4056789999928,
                    "velocity": 0.30708661417322836,
                    "duration": 0.5408329999999637
                },
                {
                    "name": "C#4",
                    "midi": 61,
                    "time": 250.58595666665946,
                    "velocity": 0.1889763779527559,
                    "duration": 0.18027766666665457
                },
                {
                    "name": "A3",
                    "midi": 57,
                    "time": 250.7662343333261,
                    "velocity": 0.1889763779527559,
                    "duration": 0.18027766666665457
                },
                {
                    "name": "A#4",
                    "midi": 70,
                    "time": 250.94651199999277,
                    "velocity": 0.3464566929133858,
                    "duration": 2.163331999999855
                },
                {
                    "name": "A#3",
                    "midi": 58,
                    "time": 251.12678966665942,
                    "velocity": 0.2047244094488189,
                    "duration": 0.18027766666665457
                },
                {
                    "name": "C#4",
                    "midi": 61,
                    "time": 251.30706733332607,
                    "velocity": 0.2047244094488189,
                    "duration": 0.18027766666665457
                },
                {
                    "name": "F#4",
                    "midi": 66,
                    "time": 251.48734499999273,
                    "velocity": 0.2283464566929134,
                    "duration": 0.18027766666665457
                },
                {
                    "name": "C#4",
                    "midi": 61,
                    "time": 251.66762266665938,
                    "velocity": 0.1968503937007874,
                    "duration": 0.18027766666665457
                },
                {
                    "name": "A#3",
                    "midi": 58,
                    "time": 251.84790033332604,
                    "velocity": 0.1968503937007874,
                    "duration": 0.18027766666665457
                },
                {
                    "name": "C#4",
                    "midi": 61,
                    "time": 252.0281779999927,
                    "velocity": 0.23622047244094488,
                    "duration": 0.18027766666665457
                },
                {
                    "name": "A#3",
                    "midi": 58,
                    "time": 252.20845566665935,
                    "velocity": 0.1968503937007874,
                    "duration": 0.18027766666665457
                },
                {
                    "name": "C#4",
                    "midi": 61,
                    "time": 252.388733333326,
                    "velocity": 0.1968503937007874,
                    "duration": 0.18027766666665457
                },
                {
                    "name": "F#4",
                    "midi": 66,
                    "time": 252.56901099999266,
                    "velocity": 0.2283464566929134,
                    "duration": 0.18027766666665457
                },
                {
                    "name": "C#4",
                    "midi": 61,
                    "time": 252.7492886666593,
                    "velocity": 0.2047244094488189,
                    "duration": 0.18027766666665457
                },
                {
                    "name": "A#3",
                    "midi": 58,
                    "time": 252.92956633332597,
                    "velocity": 0.2047244094488189,
                    "duration": 0.18027766666665457
                },
                {
                    "name": "A#4",
                    "midi": 70,
                    "time": 253.10984399999262,
                    "velocity": 0.3228346456692913,
                    "duration": 1.0816659999999274
                },
                {
                    "name": "A#3",
                    "midi": 58,
                    "time": 253.29012166665927,
                    "velocity": 0.2125984251968504,
                    "duration": 0.18027766666665457
                },
                {
                    "name": "C#4",
                    "midi": 61,
                    "time": 253.47039933332593,
                    "velocity": 0.2283464566929134,
                    "duration": 0.18027766666665457
                },
                {
                    "name": "F#4",
                    "midi": 66,
                    "time": 253.65067699999258,
                    "velocity": 0.2440944881889764,
                    "duration": 0.18027766666665457
                },
                {
                    "name": "C#4",
                    "midi": 61,
                    "time": 253.83095466665924,
                    "velocity": 0.2047244094488189,
                    "duration": 0.18027766666665457
                },
                {
                    "name": "A#3",
                    "midi": 58,
                    "time": 254.0112323333259,
                    "velocity": 0.2283464566929134,
                    "duration": 0.18027766666665457
                },
                {
                    "name": "A#4",
                    "midi": 70,
                    "time": 254.19150999999255,
                    "velocity": 0.3464566929133858,
                    "duration": 1.0816659999999274
                },
                {
                    "name": "A#3",
                    "midi": 58,
                    "time": 254.3717876666592,
                    "velocity": 0.2204724409448819,
                    "duration": 0.18027766666665457
                },
                {
                    "name": "C#4",
                    "midi": 61,
                    "time": 254.55206533332586,
                    "velocity": 0.23622047244094488,
                    "duration": 0.18027766666665457
                },
                {
                    "name": "F#4",
                    "midi": 66,
                    "time": 254.7323429999925,
                    "velocity": 0.2755905511811024,
                    "duration": 0.18027766666665457
                },
                {
                    "name": "C#4",
                    "midi": 61,
                    "time": 254.91262066665917,
                    "velocity": 0.2440944881889764,
                    "duration": 0.18027766666665457
                },
                {
                    "name": "A#3",
                    "midi": 58,
                    "time": 255.09289833332582,
                    "velocity": 0.25984251968503935,
                    "duration": 0.18027766666665457
                },
                {
                    "name": "A#4",
                    "midi": 70,
                    "time": 255.27317599999247,
                    "velocity": 0.3858267716535433,
                    "duration": 2.163331999999855
                },
                {
                    "name": "A#3",
                    "midi": 58,
                    "time": 255.45345366665913,
                    "velocity": 0.2125984251968504,
                    "duration": 0.18027766666665457
                },
                {
                    "name": "D#4",
                    "midi": 63,
                    "time": 255.63373133332578,
                    "velocity": 0.2125984251968504,
                    "duration": 0.18027766666665457
                },
                {
                    "name": "F#4",
                    "midi": 66,
                    "time": 255.81400899999244,
                    "velocity": 0.2677165354330709,
                    "duration": 0.18027766666665457
                },
                {
                    "name": "D#4",
                    "midi": 63,
                    "time": 255.9942866666591,
                    "velocity": 0.2283464566929134,
                    "duration": 0.18027766666665457
                },
                {
                    "name": "A#3",
                    "midi": 58,
                    "time": 256.17456433332575,
                    "velocity": 0.2283464566929134,
                    "duration": 0.18027766666665457
                },
                {
                    "name": "D#4",
                    "midi": 63,
                    "time": 256.3548419999924,
                    "velocity": 0.29133858267716534,
                    "duration": 0.18027766666665457
                },
                {
                    "name": "A#3",
                    "midi": 58,
                    "time": 256.53511966665906,
                    "velocity": 0.2283464566929134,
                    "duration": 0.18027766666665457
                },
                {
                    "name": "D#4",
                    "midi": 63,
                    "time": 256.7153973333257,
                    "velocity": 0.2283464566929134,
                    "duration": 0.18027766666665457
                },
                {
                    "name": "F#4",
                    "midi": 66,
                    "time": 256.89567499999237,
                    "velocity": 0.28346456692913385,
                    "duration": 0.18027766666665457
                },
                {
                    "name": "D#4",
                    "midi": 63,
                    "time": 257.075952666659,
                    "velocity": 0.2283464566929134,
                    "duration": 0.18027766666665457
                },
                {
                    "name": "A#3",
                    "midi": 58,
                    "time": 257.2562303333257,
                    "velocity": 0.2283464566929134,
                    "duration": 0.18027766666665457
                },
                {
                    "name": "F#4",
                    "midi": 66,
                    "time": 257.43650799999233,
                    "velocity": 0.3858267716535433,
                    "duration": 1.0816659999999274
                },
                {
                    "name": "F#3",
                    "midi": 54,
                    "time": 257.616785666659,
                    "velocity": 0.23622047244094488,
                    "duration": 0.18027766666665457
                },
                {
                    "name": "A#3",
                    "midi": 58,
                    "time": 257.79706333332564,
                    "velocity": 0.23622047244094488,
                    "duration": 0.18027766666665457
                },
                {
                    "name": "D#4",
                    "midi": 63,
                    "time": 257.9773409999923,
                    "velocity": 0.28346456692913385,
                    "duration": 0.18027766666665457
                },
                {
                    "name": "A#3",
                    "midi": 58,
                    "time": 258.15761866665895,
                    "velocity": 0.23622047244094488,
                    "duration": 0.18027766666665457
                },
                {
                    "name": "F#3",
                    "midi": 54,
                    "time": 258.3378963333256,
                    "velocity": 0.23622047244094488,
                    "duration": 0.18027766666665457
                },
                {
                    "name": "F4",
                    "midi": 65,
                    "time": 258.51817399999226,
                    "velocity": 0.3858267716535433,
                    "duration": 1.0816659999999274
                },
                {
                    "name": "F3",
                    "midi": 53,
                    "time": 258.6984516666589,
                    "velocity": 0.23622047244094488,
                    "duration": 0.18027766666665457
                },
                {
                    "name": "G#3",
                    "midi": 56,
                    "time": 258.87872933332557,
                    "velocity": 0.23622047244094488,
                    "duration": 0.18027766666665457
                },
                {
                    "name": "D4",
                    "midi": 62,
                    "time": 259.0590069999922,
                    "velocity": 0.2755905511811024,
                    "duration": 0.18027766666665457
                },
                {
                    "name": "G#3",
                    "midi": 56,
                    "time": 259.2392846666589,
                    "velocity": 0.23622047244094488,
                    "duration": 0.18027766666665457
                },
                {
                    "name": "F3",
                    "midi": 53,
                    "time": 259.41956233332553,
                    "velocity": 0.23622047244094488,
                    "duration": 0.18027766666665457
                },
                {
                    "name": "D#4",
                    "midi": 63,
                    "time": 259.5998399999922,
                    "velocity": 0.3858267716535433,
                    "duration": 1.0816659999999274
                },
                {
                    "name": "D#3",
                    "midi": 51,
                    "time": 259.78011766665884,
                    "velocity": 0.2755905511811024,
                    "duration": 0.18027766666665457
                },
                {
                    "name": "F#3",
                    "midi": 54,
                    "time": 259.9603953333255,
                    "velocity": 0.31496062992125984,
                    "duration": 0.18027766666665457
                },
                {
                    "name": "B3",
                    "midi": 59,
                    "time": 260.14067299999215,
                    "velocity": 0.3543307086614173,
                    "duration": 0.18027766666665457
                },
                {
                    "name": "F#3",
                    "midi": 54,
                    "time": 260.3209506666588,
                    "velocity": 0.3937007874015748,
                    "duration": 0.18027766666665457
                },
                {
                    "name": "D#3",
                    "midi": 51,
                    "time": 260.50122833332546,
                    "velocity": 0.4409448818897638,
                    "duration": 0.18027766666665457
                },
                {
                    "name": "G#4",
                    "midi": 68,
                    "time": 260.6815059999921,
                    "velocity": 0.5118110236220472,
                    "duration": 1.0816659999999274
                },
                {
                    "name": "G#3",
                    "midi": 56,
                    "time": 260.86178366665877,
                    "velocity": 0.3779527559055118,
                    "duration": 0.18027766666665457
                },
                {
                    "name": "B3",
                    "midi": 59,
                    "time": 261.0420613333254,
                    "velocity": 0.3543307086614173,
                    "duration": 0.18027766666665457
                },
                {
                    "name": "D#4",
                    "midi": 63,
                    "time": 261.2223389999921,
                    "velocity": 0.4330708661417323,
                    "duration": 0.18027766666665457
                },
                {
                    "name": "B3",
                    "midi": 59,
                    "time": 261.40261666665873,
                    "velocity": 0.25984251968503935,
                    "duration": 0.18027766666665457
                },
                {
                    "name": "G#3",
                    "midi": 56,
                    "time": 261.5828943333254,
                    "velocity": 0.28346456692913385,
                    "duration": 0.18027766666665457
                },
                {
                    "name": "F#4",
                    "midi": 66,
                    "time": 261.76317199999204,
                    "velocity": 0.36220472440944884,
                    "duration": 0.5408329999999637
                },
                {
                    "name": "G#3",
                    "midi": 56,
                    "time": 261.9434496666587,
                    "velocity": 0.2283464566929134,
                    "duration": 0.18027766666665457
                },
                {
                    "name": "B3",
                    "midi": 59,
                    "time": 262.12372733332535,
                    "velocity": 0.2283464566929134,
                    "duration": 0.18027766666665457
                },
                {
                    "name": "F4",
                    "midi": 65,
                    "time": 262.304004999992,
                    "velocity": 0.3543307086614173,
                    "duration": 0.5408329999999637
                },
                {
                    "name": "G#3",
                    "midi": 56,
                    "time": 262.48428266665866,
                    "velocity": 0.2204724409448819,
                    "duration": 0.18027766666665457
                },
                {
                    "name": "B3",
                    "midi": 59,
                    "time": 262.6645603333253,
                    "velocity": 0.2204724409448819,
                    "duration": 0.18027766666665457
                },
                {
                    "name": "D#4",
                    "midi": 63,
                    "time": 262.84483799999197,
                    "velocity": 0.3464566929133858,
                    "duration": 0.5408329999999637
                },
                {
                    "name": "G#3",
                    "midi": 56,
                    "time": 263.0251156666586,
                    "velocity": 0.2283464566929134,
                    "duration": 0.18027766666665457
                },
                {
                    "name": "B3",
                    "midi": 59,
                    "time": 263.2053933333253,
                    "velocity": 0.23622047244094488,
                    "duration": 0.18027766666665457
                },
                {
                    "name": "F4",
                    "midi": 65,
                    "time": 263.38567099999193,
                    "velocity": 0.31496062992125984,
                    "duration": 0.5408329999999637
                },
                {
                    "name": "G#3",
                    "midi": 56,
                    "time": 263.5659486666586,
                    "velocity": 0.2283464566929134,
                    "duration": 0.18027766666665457
                },
                {
                    "name": "B3",
                    "midi": 59,
                    "time": 263.74622633332524,
                    "velocity": 0.23622047244094488,
                    "duration": 0.18027766666665457
                },
                {
                    "name": "G#4",
                    "midi": 68,
                    "time": 263.9265039999919,
                    "velocity": 0.3858267716535433,
                    "duration": 2.163331999999855
                },
                {
                    "name": "B3",
                    "midi": 59,
                    "time": 264.10678166665855,
                    "velocity": 0.2125984251968504,
                    "duration": 0.18027766666665457
                },
                {
                    "name": "C#4",
                    "midi": 61,
                    "time": 264.2870593333252,
                    "velocity": 0.2125984251968504,
                    "duration": 0.18027766666665457
                },
                {
                    "name": "F4",
                    "midi": 65,
                    "time": 264.46733699999186,
                    "velocity": 0.2677165354330709,
                    "duration": 0.18027766666665457
                },
                {
                    "name": "C#4",
                    "midi": 61,
                    "time": 264.6476146666585,
                    "velocity": 0.2283464566929134,
                    "duration": 0.18027766666665457
                },
                {
                    "name": "B3",
                    "midi": 59,
                    "time": 264.82789233332517,
                    "velocity": 0.2283464566929134,
                    "duration": 0.18027766666665457
                },
                {
                    "name": "C#4",
                    "midi": 61,
                    "time": 265.0081699999918,
                    "velocity": 0.29133858267716534,
                    "duration": 0.18027766666665457
                },
                {
                    "name": "B3",
                    "midi": 59,
                    "time": 265.1884476666585,
                    "velocity": 0.2283464566929134,
                    "duration": 0.18027766666665457
                },
                {
                    "name": "C#4",
                    "midi": 61,
                    "time": 265.36872533332513,
                    "velocity": 0.2283464566929134,
                    "duration": 0.18027766666665457
                },
                {
                    "name": "F4",
                    "midi": 65,
                    "time": 265.5490029999918,
                    "velocity": 0.28346456692913385,
                    "duration": 0.18027766666665457
                },
                {
                    "name": "C#4",
                    "midi": 61,
                    "time": 265.72928066665844,
                    "velocity": 0.2283464566929134,
                    "duration": 0.18027766666665457
                },
                {
                    "name": "B3",
                    "midi": 59,
                    "time": 265.9095583333251,
                    "velocity": 0.2283464566929134,
                    "duration": 0.18027766666665457
                },
                {
                    "name": "F#4",
                    "midi": 66,
                    "time": 266.08983599999175,
                    "velocity": 0.3858267716535433,
                    "duration": 2.163331999999855
                },
                {
                    "name": "F#3",
                    "midi": 54,
                    "time": 266.2701136666584,
                    "velocity": 0.23622047244094488,
                    "duration": 0.18027766666665457
                },
                {
                    "name": "A#3",
                    "midi": 58,
                    "time": 266.45039133332506,
                    "velocity": 0.23622047244094488,
                    "duration": 0.18027766666665457
                },
                {
                    "name": "C#4",
                    "midi": 61,
                    "time": 266.6306689999917,
                    "velocity": 0.28346456692913385,
                    "duration": 0.18027766666665457
                },
                {
                    "name": "A#3",
                    "midi": 58,
                    "time": 266.81094666665837,
                    "velocity": 0.23622047244094488,
                    "duration": 0.18027766666665457
                },
                {
                    "name": "F#3",
                    "midi": 54,
                    "time": 266.991224333325,
                    "velocity": 0.23622047244094488,
                    "duration": 0.18027766666665457
                },
                {
                    "name": "A#3",
                    "midi": 58,
                    "time": 267.1715019999917,
                    "velocity": 0.29133858267716534,
                    "duration": 0.18027766666665457
                },
                {
                    "name": "F#3",
                    "midi": 54,
                    "time": 267.35177966665833,
                    "velocity": 0.23622047244094488,
                    "duration": 0.18027766666665457
                },
                {
                    "name": "A#3",
                    "midi": 58,
                    "time": 267.532057333325,
                    "velocity": 0.23622047244094488,
                    "duration": 0.18027766666665457
                },
                {
                    "name": "C#4",
                    "midi": 61,
                    "time": 267.71233499999164,
                    "velocity": 0.2755905511811024,
                    "duration": 0.18027766666665457
                },
                {
                    "name": "A#3",
                    "midi": 58,
                    "time": 267.8926126666583,
                    "velocity": 0.23622047244094488,
                    "duration": 0.18027766666665457
                },
                {
                    "name": "F#3",
                    "midi": 54,
                    "time": 268.07289033332495,
                    "velocity": 0.23622047244094488,
                    "duration": 0.18027766666665457
                },
                {
                    "name": "G#4",
                    "midi": 68,
                    "time": 268.2531679999916,
                    "velocity": 0.3464566929133858,
                    "duration": 2.163331999999855
                },
                {
                    "name": "G#3",
                    "midi": 56,
                    "time": 268.43344566665826,
                    "velocity": 0.2047244094488189,
                    "duration": 0.18027766666665457
                },
                {
                    "name": "C#4",
                    "midi": 61,
                    "time": 268.6137233333249,
                    "velocity": 0.2047244094488189,
                    "duration": 0.18027766666665457
                },
                {
                    "name": "F4",
                    "midi": 65,
                    "time": 268.79400099999157,
                    "velocity": 0.2283464566929134,
                    "duration": 0.18027766666665457
                },
                {
                    "name": "C#4",
                    "midi": 61,
                    "time": 268.9742786666582,
                    "velocity": 0.1968503937007874,
                    "duration": 0.18027766666665457
                },
                {
                    "name": "G#3",
                    "midi": 56,
                    "time": 269.1545563333249,
                    "velocity": 0.1968503937007874,
                    "duration": 0.18027766666665457
                },
                {
                    "name": "C#4",
                    "midi": 61,
                    "time": 269.33483399999153,
                    "velocity": 0.23622047244094488,
                    "duration": 0.18027766666665457
                },
                {
                    "name": "G#3",
                    "midi": 56,
                    "time": 269.5151116666582,
                    "velocity": 0.2047244094488189,
                    "duration": 0.18027766666665457
                },
                {
                    "name": "C#4",
                    "midi": 61,
                    "time": 269.69538933332484,
                    "velocity": 0.2047244094488189,
                    "duration": 0.18027766666665457
                },
                {
                    "name": "F4",
                    "midi": 65,
                    "time": 269.8756669999915,
                    "velocity": 0.23622047244094488,
                    "duration": 0.18027766666665457
                },
                {
                    "name": "C#4",
                    "midi": 61,
                    "time": 270.05594466665815,
                    "velocity": 0.2125984251968504,
                    "duration": 0.18027766666665457
                },
                {
                    "name": "G#3",
                    "midi": 56,
                    "time": 270.2362223333248,
                    "velocity": 0.2125984251968504,
                    "duration": 0.18027766666665457
                },
                {
                    "name": "A#4",
                    "midi": 70,
                    "time": 270.41649999999146,
                    "velocity": 0.33858267716535434,
                    "duration": 2.163331999999855
                },
                {
                    "name": "C#4",
                    "midi": 61,
                    "time": 270.5967776666581,
                    "velocity": 0.2283464566929134,
                    "duration": 0.18027766666665457
                },
                {
                    "name": "E4",
                    "midi": 64,
                    "time": 270.77705533332477,
                    "velocity": 0.2440944881889764,
                    "duration": 0.18027766666665457
                },
                {
                    "name": "G4",
                    "midi": 67,
                    "time": 270.9573329999914,
                    "velocity": 0.30708661417322836,
                    "duration": 0.18027766666665457
                },
                {
                    "name": "E4",
                    "midi": 64,
                    "time": 271.1376106666581,
                    "velocity": 0.2440944881889764,
                    "duration": 0.18027766666665457
                },
                {
                    "name": "C#4",
                    "midi": 61,
                    "time": 271.31788833332473,
                    "velocity": 0.2992125984251969,
                    "duration": 0.18027766666665457
                },
                {
                    "name": "D#4",
                    "midi": 63,
                    "time": 271.4981659999914,
                    "velocity": 0.33070866141732286,
                    "duration": 0.18027766666665457
                },
                {
                    "name": "C#4",
                    "midi": 61,
                    "time": 271.67844366665804,
                    "velocity": 0.3543307086614173,
                    "duration": 0.18027766666665457
                },
                {
                    "name": "D#4",
                    "midi": 63,
                    "time": 271.8587213333247,
                    "velocity": 0.3858267716535433,
                    "duration": 0.18027766666665457
                },
                {
                    "name": "G4",
                    "midi": 67,
                    "time": 272.03899899999135,
                    "velocity": 0.4330708661417323,
                    "duration": 0.18027766666665457
                },
                {
                    "name": "D#4",
                    "midi": 63,
                    "time": 272.219276666658,
                    "velocity": 0.41732283464566927,
                    "duration": 0.18027766666665457
                },
                {
                    "name": "C#4",
                    "midi": 61,
                    "time": 272.39955433332466,
                    "velocity": 0.4645669291338583,
                    "duration": 0.18027766666665457
                },
                {
                    "name": "C#5",
                    "midi": 73,
                    "time": 272.5798319999913,
                    "velocity": 0.5511811023622047,
                    "duration": 1.6224989999998911
                },
                {
                    "name": "C#4",
                    "midi": 61,
                    "time": 272.76010966665797,
                    "velocity": 0.3779527559055118,
                    "duration": 0.18027766666665457
                },
                {
                    "name": "D#4",
                    "midi": 63,
                    "time": 272.9403873333246,
                    "velocity": 0.3858267716535433,
                    "duration": 0.18027766666665457
                },
                {
                    "name": "A#4",
                    "midi": 70,
                    "time": 273.1127778520746,
                    "velocity": 0.4566929133858268,
                    "duration": 0.18027766666665457
                },
                {
                    "name": "D#4",
                    "midi": 63,
                    "time": 273.30094266665793,
                    "velocity": 0.30708661417322836,
                    "duration": 0.18027766666665457
                },
                {
                    "name": "C#4",
                    "midi": 61,
                    "time": 273.4812203333246,
                    "velocity": 0.33070866141732286,
                    "duration": 0.18027766666665457
                },
                {
                    "name": "D#4",
                    "midi": 63,
                    "time": 273.66149799999124,
                    "velocity": 0.41732283464566927,
                    "duration": 0.18027766666665457
                },
                {
                    "name": "C#4",
                    "midi": 61,
                    "time": 273.8417756666579,
                    "velocity": 0.31496062992125984,
                    "duration": 0.18027766666665457
                },
                {
                    "name": "D#4",
                    "midi": 63,
                    "time": 274.02205333332455,
                    "velocity": 0.25984251968503935,
                    "duration": 0.18027766666665457
                },
                {
                    "name": "B4",
                    "midi": 71,
                    "time": 274.2023309999912,
                    "velocity": 0.3937007874015748,
                    "duration": 0.5408329999999637
                },
                {
                    "name": "G#4",
                    "midi": 68,
                    "time": 274.2023309999912,
                    "velocity": 0.29133858267716534,
                    "duration": 0.18027766666665457
                },
                {
                    "name": "D#4",
                    "midi": 63,
                    "time": 274.38260866665786,
                    "velocity": 0.25984251968503935,
                    "duration": 0.18027766666665457
                },
                {
                    "name": "B3",
                    "midi": 59,
                    "time": 274.5628863333245,
                    "velocity": 0.25984251968503935,
                    "duration": 0.18027766666665457
                },
                {
                    "name": "B4",
                    "midi": 71,
                    "time": 274.74316399999117,
                    "velocity": 0.3228346456692913,
                    "duration": 2.163331999999855
                },
                {
                    "name": "B3",
                    "midi": 59,
                    "time": 274.9234416666578,
                    "velocity": 0.2204724409448819,
                    "duration": 0.18027766666665457
                },
                {
                    "name": "D#4",
                    "midi": 63,
                    "time": 275.1037193333245,
                    "velocity": 0.2204724409448819,
                    "duration": 0.18027766666665457
                },
                {
                    "name": "G#4",
                    "midi": 68,
                    "time": 275.28399699999113,
                    "velocity": 0.23622047244094488,
                    "duration": 0.18027766666665457
                },
                {
                    "name": "D#4",
                    "midi": 63,
                    "time": 275.4642746666578,
                    "velocity": 0.1968503937007874,
                    "duration": 0.18027766666665457
                },
                {
                    "name": "B3",
                    "midi": 59,
                    "time": 275.64455233332444,
                    "velocity": 0.1968503937007874,
                    "duration": 0.18027766666665457
                },
                {
                    "name": "D#4",
                    "midi": 63,
                    "time": 275.8248299999911,
                    "velocity": 0.2440944881889764,
                    "duration": 0.18027766666665457
                },
                {
                    "name": "B3",
                    "midi": 59,
                    "time": 276.00510766665775,
                    "velocity": 0.1968503937007874,
                    "duration": 0.18027766666665457
                },
                {
                    "name": "D#4",
                    "midi": 63,
                    "time": 276.1853853333244,
                    "velocity": 0.1968503937007874,
                    "duration": 0.18027766666665457
                },
                {
                    "name": "G#4",
                    "midi": 68,
                    "time": 276.36566299999106,
                    "velocity": 0.2283464566929134,
                    "duration": 0.18027766666665457
                },
                {
                    "name": "D#4",
                    "midi": 63,
                    "time": 276.5459406666577,
                    "velocity": 0.1968503937007874,
                    "duration": 0.18027766666665457
                },
                {
                    "name": "B3",
                    "midi": 59,
                    "time": 276.72621833332437,
                    "velocity": 0.1968503937007874,
                    "duration": 0.18027766666665457
                },
                {
                    "name": "B4",
                    "midi": 71,
                    "time": 276.906495999991,
                    "velocity": 0.4251968503937008,
                    "duration": 2.163331999999855
                },
                {
                    "name": "B3",
                    "midi": 59,
                    "time": 277.0867736666577,
                    "velocity": 0.25984251968503935,
                    "duration": 0.18027766666665457
                },
                {
                    "name": "E4",
                    "midi": 64,
                    "time": 277.26705133332433,
                    "velocity": 0.25984251968503935,
                    "duration": 0.18027766666665457
                },
                {
                    "name": "G#4",
                    "midi": 68,
                    "time": 277.447328999991,
                    "velocity": 0.29133858267716534,
                    "duration": 0.18027766666665457
                },
                {
                    "name": "E4",
                    "midi": 64,
                    "time": 277.62760666665764,
                    "velocity": 0.25196850393700787,
                    "duration": 0.18027766666665457
                },
                {
                    "name": "B3",
                    "midi": 59,
                    "time": 277.8078843333243,
                    "velocity": 0.25196850393700787,
                    "duration": 0.18027766666665457
                },
                {
                    "name": "E4",
                    "midi": 64,
                    "time": 277.98816199999095,
                    "velocity": 0.30708661417322836,
                    "duration": 0.18027766666665457
                },
                {
                    "name": "B3",
                    "midi": 59,
                    "time": 278.1684396666576,
                    "velocity": 0.25984251968503935,
                    "duration": 0.18027766666665457
                },
                {
                    "name": "E4",
                    "midi": 64,
                    "time": 278.34871733332426,
                    "velocity": 0.25984251968503935,
                    "duration": 0.18027766666665457
                },
                {
                    "name": "G#4",
                    "midi": 68,
                    "time": 278.5289949999909,
                    "velocity": 0.30708661417322836,
                    "duration": 0.18027766666665457
                },
                {
                    "name": "E4",
                    "midi": 64,
                    "time": 278.70927266665757,
                    "velocity": 0.2755905511811024,
                    "duration": 0.18027766666665457
                },
                {
                    "name": "B3",
                    "midi": 59,
                    "time": 278.8895503333242,
                    "velocity": 0.28346456692913385,
                    "duration": 0.18027766666665457
                },
                {
                    "name": "B4",
                    "midi": 71,
                    "time": 279.0698279999909,
                    "velocity": 0.3858267716535433,
                    "duration": 1.0816659999999274
                },
                {
                    "name": "B3",
                    "midi": 59,
                    "time": 279.25010566665753,
                    "velocity": 0.29133858267716534,
                    "duration": 0.18027766666665457
                },
                {
                    "name": "D#4",
                    "midi": 63,
                    "time": 279.4303833333242,
                    "velocity": 0.31496062992125984,
                    "duration": 0.18027766666665457
                },
                {
                    "name": "F#4",
                    "midi": 66,
                    "time": 279.61066099999084,
                    "velocity": 0.3464566929133858,
                    "duration": 0.18027766666665457
                },
                {
                    "name": "D#4",
                    "midi": 63,
                    "time": 279.7909386666575,
                    "velocity": 0.2992125984251969,
                    "duration": 0.18027766666665457
                },
                {
                    "name": "B3",
                    "midi": 59,
                    "time": 279.97121633332415,
                    "velocity": 0.31496062992125984,
                    "duration": 0.18027766666665457
                },
                {
                    "name": "C#5",
                    "midi": 73,
                    "time": 280.1514939999908,
                    "velocity": 0.4015748031496063,
                    "duration": 1.0816659999999274
                },
                {
                    "name": "E4",
                    "midi": 64,
                    "time": 280.33177166665746,
                    "velocity": 0.36220472440944884,
                    "duration": 0.18027766666665457
                },
                {
                    "name": "F#4",
                    "midi": 66,
                    "time": 280.5120493333241,
                    "velocity": 0.3858267716535433,
                    "duration": 0.18027766666665457
                },
                {
                    "name": "A#4",
                    "midi": 70,
                    "time": 280.69232699999077,
                    "velocity": 0.4566929133858268,
                    "duration": 0.18027766666665457
                },
                {
                    "name": "F#4",
                    "midi": 66,
                    "time": 280.8726046666574,
                    "velocity": 0.4251968503937008,
                    "duration": 0.18027766666665457
                },
                {
                    "name": "E4",
                    "midi": 64,
                    "time": 281.0528823333241,
                    "velocity": 0.4881889763779528,
                    "duration": 0.18027766666665457
                },
                {
                    "name": "E5",
                    "midi": 76,
                    "time": 281.23315999999073,
                    "velocity": 0.5433070866141733,
                    "duration": 1.6224989999998911
                },
                {
                    "name": "E4",
                    "midi": 64,
                    "time": 281.4134376666574,
                    "velocity": 0.3858267716535433,
                    "duration": 0.18027766666665457
                },
                {
                    "name": "F#4",
                    "midi": 66,
                    "time": 281.59371533332404,
                    "velocity": 0.3858267716535433,
                    "duration": 0.18027766666665457
                },
                {
                    "name": "C#5",
                    "midi": 73,
                    "time": 281.7739929999907,
                    "velocity": 0.49606299212598426,
                    "duration": 0.18027766666665457
                },
                {
                    "name": "F#4",
                    "midi": 66,
                    "time": 281.95427066665735,
                    "velocity": 0.36220472440944884,
                    "duration": 0.18027766666665457
                },
                {
                    "name": "E4",
                    "midi": 64,
                    "time": 282.134548333324,
                    "velocity": 0.36220472440944884,
                    "duration": 0.18027766666665457
                },
                {
                    "name": "F#4",
                    "midi": 66,
                    "time": 282.31482599999066,
                    "velocity": 0.4251968503937008,
                    "duration": 0.18027766666665457
                },
                {
                    "name": "E4",
                    "midi": 64,
                    "time": 282.4951036666573,
                    "velocity": 0.28346456692913385,
                    "duration": 0.18027766666665457
                },
                {
                    "name": "F#4",
                    "midi": 66,
                    "time": 282.67538133332397,
                    "velocity": 0.29133858267716534,
                    "duration": 0.18027766666665457
                },
                {
                    "name": "D#5",
                    "midi": 75,
                    "time": 282.8556589999906,
                    "velocity": 0.44881889763779526,
                    "duration": 0.5408329999999637
                },
                {
                    "name": "B4",
                    "midi": 71,
                    "time": 282.8556589999906,
                    "velocity": 0.33070866141732286,
                    "duration": 0.18027766666665457
                },
                {
                    "name": "F#4",
                    "midi": 66,
                    "time": 283.0359366666573,
                    "velocity": 0.29133858267716534,
                    "duration": 0.18027766666665457
                },
                {
                    "name": "D#4",
                    "midi": 63,
                    "time": 283.21621433332393,
                    "velocity": 0.29133858267716534,
                    "duration": 0.18027766666665457
                },
                {
                    "name": "D#5",
                    "midi": 75,
                    "time": 283.3964919999906,
                    "velocity": 0.3543307086614173,
                    "duration": 2.163331999999855
                },
                {
                    "name": "D#4",
                    "midi": 63,
                    "time": 283.57676966665724,
                    "velocity": 0.2440944881889764,
                    "duration": 0.18027766666665457
                },
                {
                    "name": "F#4",
                    "midi": 66,
                    "time": 283.7570473333239,
                    "velocity": 0.2440944881889764,
                    "duration": 0.18027766666665457
                },
                {
                    "name": "B4",
                    "midi": 71,
                    "time": 283.93732499999055,
                    "velocity": 0.2677165354330709,
                    "duration": 0.18027766666665457
                },
                {
                    "name": "F#4",
                    "midi": 66,
                    "time": 284.1176026666572,
                    "velocity": 0.2204724409448819,
                    "duration": 0.18027766666665457
                },
                {
                    "name": "D#4",
                    "midi": 63,
                    "time": 284.29788033332386,
                    "velocity": 0.2204724409448819,
                    "duration": 0.18027766666665457
                },
                {
                    "name": "F#4",
                    "midi": 66,
                    "time": 284.4781579999905,
                    "velocity": 0.2755905511811024,
                    "duration": 0.18027766666665457
                },
                {
                    "name": "D#4",
                    "midi": 63,
                    "time": 284.65843566665717,
                    "velocity": 0.2204724409448819,
                    "duration": 0.18027766666665457
                },
                {
                    "name": "F#4",
                    "midi": 66,
                    "time": 284.8387133333238,
                    "velocity": 0.2204724409448819,
                    "duration": 0.18027766666665457
                },
                {
                    "name": "B4",
                    "midi": 71,
                    "time": 285.0189909999905,
                    "velocity": 0.2677165354330709,
                    "duration": 0.18027766666665457
                },
                {
                    "name": "F#4",
                    "midi": 66,
                    "time": 285.19926866665713,
                    "velocity": 0.2204724409448819,
                    "duration": 0.18027766666665457
                },
                {
                    "name": "D#4",
                    "midi": 63,
                    "time": 285.3795463333238,
                    "velocity": 0.2204724409448819,
                    "duration": 0.18027766666665457
                },
                {
                    "name": "D#5",
                    "midi": 75,
                    "time": 285.55982399999044,
                    "velocity": 0.3700787401574803,
                    "duration": 2.163331999999855
                },
                {
                    "name": "D#4",
                    "midi": 63,
                    "time": 285.7401016666571,
                    "velocity": 0.25196850393700787,
                    "duration": 0.18027766666665457
                },
                {
                    "name": "F#4",
                    "midi": 66,
                    "time": 285.92037933332375,
                    "velocity": 0.25196850393700787,
                    "duration": 0.18027766666665457
                },
                {
                    "name": "B4",
                    "midi": 71,
                    "time": 286.1006569999904,
                    "velocity": 0.25196850393700787,
                    "duration": 0.18027766666665457
                },
                {
                    "name": "F#4",
                    "midi": 66,
                    "time": 286.28093466665706,
                    "velocity": 0.25196850393700787,
                    "duration": 0.18027766666665457
                },
                {
                    "name": "D#4",
                    "midi": 63,
                    "time": 286.4612123333237,
                    "velocity": 0.33858267716535434,
                    "duration": 0.18027766666665457
                },
                {
                    "name": "F#4",
                    "midi": 66,
                    "time": 286.64148999999037,
                    "velocity": 0.2440944881889764,
                    "duration": 0.18027766666665457
                },
                {
                    "name": "D#4",
                    "midi": 63,
                    "time": 286.821767666657,
                    "velocity": 0.2440944881889764,
                    "duration": 0.18027766666665457
                },
                {
                    "name": "F#4",
                    "midi": 66,
                    "time": 287.0020453333237,
                    "velocity": 0.2440944881889764,
                    "duration": 0.18027766666665457
                },
                {
                    "name": "B4",
                    "midi": 71,
                    "time": 287.18232299999033,
                    "velocity": 0.28346456692913385,
                    "duration": 0.18027766666665457
                },
                {
                    "name": "F#4",
                    "midi": 66,
                    "time": 287.362600666657,
                    "velocity": 0.23622047244094488,
                    "duration": 0.18027766666665457
                },
                {
                    "name": "D#4",
                    "midi": 63,
                    "time": 287.54287833332364,
                    "velocity": 0.23622047244094488,
                    "duration": 0.18027766666665457
                },
                {
                    "name": "D#5",
                    "midi": 75,
                    "time": 287.7231559999903,
                    "velocity": 0.36220472440944884,
                    "duration": 0.5408329999999637
                },
                {
                    "name": "G#4",
                    "midi": 68,
                    "time": 287.90343366665695,
                    "velocity": 0.2283464566929134,
                    "duration": 0.18027766666665457
                },
                {
                    "name": "F4",
                    "midi": 65,
                    "time": 288.0837113333236,
                    "velocity": 0.2283464566929134,
                    "duration": 0.18027766666665457
                },
                {
                    "name": "B4",
                    "midi": 71,
                    "time": 288.26398899999026,
                    "velocity": 0.33858267716535434,
                    "duration": 0.5408329999999637
                },
                {
                    "name": "G#4",
                    "midi": 68,
                    "time": 288.4442666666569,
                    "velocity": 0.2204724409448819,
                    "duration": 0.18027766666665457
                },
                {
                    "name": "F4",
                    "midi": 65,
                    "time": 288.62454433332357,
                    "velocity": 0.2204724409448819,
                    "duration": 0.18027766666665457
                },
                {
                    "name": "A#4",
                    "midi": 70,
                    "time": 288.8048219999902,
                    "velocity": 0.33858267716535434,
                    "duration": 0.5408329999999637
                },
                {
                    "name": "F4",
                    "midi": 65,
                    "time": 288.9850996666569,
                    "velocity": 0.2204724409448819,
                    "duration": 0.18027766666665457
                },
                {
                    "name": "C#4",
                    "midi": 61,
                    "time": 289.16537733332353,
                    "velocity": 0.2204724409448819,
                    "duration": 0.18027766666665457
                },
                {
                    "name": "G#4",
                    "midi": 68,
                    "time": 289.3456549999902,
                    "velocity": 0.30708661417322836,
                    "duration": 0.5408329999999637
                },
                {
                    "name": "F4",
                    "midi": 65,
                    "time": 289.52593266665684,
                    "velocity": 0.2204724409448819,
                    "duration": 0.18027766666665457
                },
                {
                    "name": "C#4",
                    "midi": 61,
                    "time": 289.7062103333235,
                    "velocity": 0.2204724409448819,
                    "duration": 0.18027766666665457
                },
                {
                    "name": "C#5",
                    "midi": 73,
                    "time": 289.88648799999015,
                    "velocity": 0.3700787401574803,
                    "duration": 2.163331999999855
                },
                {
                    "name": "C#4",
                    "midi": 61,
                    "time": 290.0667656666568,
                    "velocity": 0.25196850393700787,
                    "duration": 0.18027766666665457
                },
                {
                    "name": "F#4",
                    "midi": 66,
                    "time": 290.24704333332346,
                    "velocity": 0.25196850393700787,
                    "duration": 0.18027766666665457
                },
                {
                    "name": "A#4",
                    "midi": 70,
                    "time": 290.4273209999901,
                    "velocity": 0.33070866141732286,
                    "duration": 0.18027766666665457
                },
                {
                    "name": "F#4",
                    "midi": 66,
                    "time": 290.60759866665677,
                    "velocity": 0.25196850393700787,
                    "duration": 0.18027766666665457
                },
                {
                    "name": "C#4",
                    "midi": 61,
                    "time": 290.7878763333234,
                    "velocity": 0.25196850393700787,
                    "duration": 0.18027766666665457
                },
                {
                    "name": "F#4",
                    "midi": 66,
                    "time": 290.9681539999901,
                    "velocity": 0.2755905511811024,
                    "duration": 0.18027766666665457
                },
                {
                    "name": "C#4",
                    "midi": 61,
                    "time": 291.14843166665673,
                    "velocity": 0.2440944881889764,
                    "duration": 0.18027766666665457
                },
                {
                    "name": "F#4",
                    "midi": 66,
                    "time": 291.3287093333234,
                    "velocity": 0.2440944881889764,
                    "duration": 0.18027766666665457
                },
                {
                    "name": "A#4",
                    "midi": 70,
                    "time": 291.50898699999004,
                    "velocity": 0.28346456692913385,
                    "duration": 0.18027766666665457
                },
                {
                    "name": "F#4",
                    "midi": 66,
                    "time": 291.6892646666567,
                    "velocity": 0.23622047244094488,
                    "duration": 0.18027766666665457
                },
                {
                    "name": "C#4",
                    "midi": 61,
                    "time": 291.86954233332335,
                    "velocity": 0.23622047244094488,
                    "duration": 0.18027766666665457
                },
                {
                    "name": "C#5",
                    "midi": 73,
                    "time": 292.04981999999,
                    "velocity": 0.36220472440944884,
                    "duration": 0.5408329999999637
                },
                {
                    "name": "F#4",
                    "midi": 66,
                    "time": 292.23009766665666,
                    "velocity": 0.2283464566929134,
                    "duration": 0.18027766666665457
                },
                {
                    "name": "D#4",
                    "midi": 63,
                    "time": 292.4103753333233,
                    "velocity": 0.2283464566929134,
                    "duration": 0.18027766666665457
                },
                {
                    "name": "B4",
                    "midi": 71,
                    "time": 292.59065299998997,
                    "velocity": 0.33858267716535434,
                    "duration": 0.5408329999999637
                },
                {
                    "name": "F#4",
                    "midi": 66,
                    "time": 292.7709306666566,
                    "velocity": 0.2204724409448819,
                    "duration": 0.18027766666665457
                },
                {
                    "name": "D#4",
                    "midi": 63,
                    "time": 292.9512083333233,
                    "velocity": 0.2204724409448819,
                    "duration": 0.18027766666665457
                },
                {
                    "name": "G#4",
                    "midi": 68,
                    "time": 293.13148599998993,
                    "velocity": 0.33858267716535434,
                    "duration": 0.5408329999999637
                },
                {
                    "name": "D#4",
                    "midi": 63,
                    "time": 293.3117636666566,
                    "velocity": 0.2204724409448819,
                    "duration": 0.18027766666665457
                },
                {
                    "name": "B3",
                    "midi": 59,
                    "time": 293.49204133332324,
                    "velocity": 0.2204724409448819,
                    "duration": 0.18027766666665457
                },
                {
                    "name": "D#4",
                    "midi": 63,
                    "time": 293.6723189999899,
                    "velocity": 0.30708661417322836,
                    "duration": 0.5408329999999637
                },
                {
                    "name": "B3",
                    "midi": 59,
                    "time": 293.85259666665655,
                    "velocity": 0.2204724409448819,
                    "duration": 0.18027766666665457
                },
                {
                    "name": "G#3",
                    "midi": 56,
                    "time": 294.0328743333232,
                    "velocity": 0.2204724409448819,
                    "duration": 0.18027766666665457
                },
                {
                    "name": "F#4",
                    "midi": 66,
                    "time": 294.21315199998986,
                    "velocity": 0.3700787401574803,
                    "duration": 2.163331999999855
                },
                {
                    "name": "F#3",
                    "midi": 54,
                    "time": 294.3934296666565,
                    "velocity": 0.2283464566929134,
                    "duration": 0.18027766666665457
                },
                {
                    "name": "A#3",
                    "midi": 58,
                    "time": 294.57370733332317,
                    "velocity": 0.2283464566929134,
                    "duration": 0.18027766666665457
                },
                {
                    "name": "C#4",
                    "midi": 61,
                    "time": 294.7539849999898,
                    "velocity": 0.2992125984251969,
                    "duration": 0.18027766666665457
                },
                {
                    "name": "A#3",
                    "midi": 58,
                    "time": 294.9342626666565,
                    "velocity": 0.2283464566929134,
                    "duration": 0.18027766666665457
                },
                {
                    "name": "F#3",
                    "midi": 54,
                    "time": 295.11454033332313,
                    "velocity": 0.2440944881889764,
                    "duration": 0.18027766666665457
                },
                {
                    "name": "A#3",
                    "midi": 58,
                    "time": 295.2948179999898,
                    "velocity": 0.2755905511811024,
                    "duration": 0.18027766666665457
                },
                {
                    "name": "F#3",
                    "midi": 54,
                    "time": 295.47509566665644,
                    "velocity": 0.23622047244094488,
                    "duration": 0.18027766666665457
                },
                {
                    "name": "A#3",
                    "midi": 58,
                    "time": 295.6553733333231,
                    "velocity": 0.23622047244094488,
                    "duration": 0.18027766666665457
                },
                {
                    "name": "C#4",
                    "midi": 61,
                    "time": 295.83565099998975,
                    "velocity": 0.28346456692913385,
                    "duration": 0.18027766666665457
                },
                {
                    "name": "A#3",
                    "midi": 58,
                    "time": 296.0159286666564,
                    "velocity": 0.23622047244094488,
                    "duration": 0.18027766666665457
                },
                {
                    "name": "F#3",
                    "midi": 54,
                    "time": 296.19620633332306,
                    "velocity": 0.23622047244094488,
                    "duration": 0.18027766666665457
                },
                {
                    "name": "F#4",
                    "midi": 66,
                    "time": 296.3764839999897,
                    "velocity": 0.3543307086614173,
                    "duration": 0.5408329999999637
                },
                {
                    "name": "B3",
                    "midi": 59,
                    "time": 296.55676166665637,
                    "velocity": 0.2283464566929134,
                    "duration": 0.18027766666665457
                },
                {
                    "name": "G#3",
                    "midi": 56,
                    "time": 296.737039333323,
                    "velocity": 0.2283464566929134,
                    "duration": 0.18027766666665457
                },
                {
                    "name": "F4",
                    "midi": 65,
                    "time": 296.9173169999897,
                    "velocity": 0.3228346456692913,
                    "duration": 0.5408329999999637
                },
                {
                    "name": "B3",
                    "midi": 59,
                    "time": 297.09759466665633,
                    "velocity": 0.2204724409448819,
                    "duration": 0.18027766666665457
                },
                {
                    "name": "G#3",
                    "midi": 56,
                    "time": 297.277872333323,
                    "velocity": 0.2204724409448819,
                    "duration": 0.18027766666665457
                },
                {
                    "name": "A#4",
                    "midi": 70,
                    "time": 297.45814999998964,
                    "velocity": 0.33070866141732286,
                    "duration": 0.5408329999999637
                },
                {
                    "name": "C#4",
                    "midi": 61,
                    "time": 297.6384276666563,
                    "velocity": 0.2204724409448819,
                    "duration": 0.18027766666665457
                },
                {
                    "name": "B3",
                    "midi": 59,
                    "time": 297.81870533332295,
                    "velocity": 0.2204724409448819,
                    "duration": 0.18027766666665457
                },
                {
                    "name": "G#4",
                    "midi": 68,
                    "time": 297.9989829999896,
                    "velocity": 0.30708661417322836,
                    "duration": 0.5408329999999637
                },
                {
                    "name": "C#4",
                    "midi": 61,
                    "time": 298.17926066665626,
                    "velocity": 0.2047244094488189,
                    "duration": 0.18027766666665457
                },
                {
                    "name": "B3",
                    "midi": 59,
                    "time": 298.3595383333229,
                    "velocity": 0.2047244094488189,
                    "duration": 0.18027766666665457
                },
                {
                    "name": "B4",
                    "midi": 71,
                    "time": 298.53981599998957,
                    "velocity": 0.3700787401574803,
                    "duration": 2.163331999999855
                },
                {
                    "name": "B3",
                    "midi": 59,
                    "time": 298.7200936666562,
                    "velocity": 0.2283464566929134,
                    "duration": 0.18027766666665457
                },
                {
                    "name": "D#4",
                    "midi": 63,
                    "time": 298.9003713333229,
                    "velocity": 0.2283464566929134,
                    "duration": 0.18027766666665457
                },
                {
                    "name": "F#4",
                    "midi": 66,
                    "time": 299.08064899998953,
                    "velocity": 0.2283464566929134,
                    "duration": 0.18027766666665457
                },
                {
                    "name": "D#4",
                    "midi": 63,
                    "time": 299.2609266666562,
                    "velocity": 0.2283464566929134,
                    "duration": 0.18027766666665457
                },
                {
                    "name": "B3",
                    "midi": 59,
                    "time": 299.44120433332284,
                    "velocity": 0.2047244094488189,
                    "duration": 0.18027766666665457
                },
                {
                    "name": "D#4",
                    "midi": 63,
                    "time": 299.6214819999895,
                    "velocity": 0.28346456692913385,
                    "duration": 0.18027766666665457
                },
                {
                    "name": "B3",
                    "midi": 59,
                    "time": 299.80175966665615,
                    "velocity": 0.23622047244094488,
                    "duration": 0.18027766666665457
                },
                {
                    "name": "D#4",
                    "midi": 63,
                    "time": 299.9820373333228,
                    "velocity": 0.23622047244094488,
                    "duration": 0.18027766666665457
                },
                {
                    "name": "F#4",
                    "midi": 66,
                    "time": 300.16231499998946,
                    "velocity": 0.3779527559055118,
                    "duration": 0.18027766666665457
                },
                {
                    "name": "D#4",
                    "midi": 63,
                    "time": 300.3425926666561,
                    "velocity": 0.29133858267716534,
                    "duration": 0.18027766666665457
                },
                {
                    "name": "B3",
                    "midi": 59,
                    "time": 300.52287033332277,
                    "velocity": 0.29133858267716534,
                    "duration": 0.18027766666665457
                },
                {
                    "name": "C#5",
                    "midi": 73,
                    "time": 300.7031479999894,
                    "velocity": 0.4566929133858268,
                    "duration": 1.0816659999999274
                },
                {
                    "name": "E4",
                    "midi": 64,
                    "time": 300.8834256666561,
                    "velocity": 0.3228346456692913,
                    "duration": 0.18027766666665457
                },
                {
                    "name": "F#4",
                    "midi": 66,
                    "time": 301.06370333332274,
                    "velocity": 0.28346456692913385,
                    "duration": 0.18027766666665457
                },
                {
                    "name": "A#4",
                    "midi": 70,
                    "time": 301.2439809999894,
                    "velocity": 0.4251968503937008,
                    "duration": 0.18027766666665457
                },
                {
                    "name": "F#4",
                    "midi": 66,
                    "time": 301.42425866665604,
                    "velocity": 0.3464566929133858,
                    "duration": 0.18027766666665457
                },
                {
                    "name": "E4",
                    "midi": 64,
                    "time": 301.6045363333227,
                    "velocity": 0.3543307086614173,
                    "duration": 0.18027766666665457
                },
                {
                    "name": "D5",
                    "midi": 74,
                    "time": 301.78481399998935,
                    "velocity": 0.5275590551181102,
                    "duration": 1.0816659999999274
                },
                {
                    "name": "E4",
                    "midi": 64,
                    "time": 301.965091666656,
                    "velocity": 0.3464566929133858,
                    "duration": 0.18027766666665457
                },
                {
                    "name": "F#4",
                    "midi": 66,
                    "time": 302.14536933332266,
                    "velocity": 0.3464566929133858,
                    "duration": 0.18027766666665457
                },
                {
                    "name": "A#4",
                    "midi": 70,
                    "time": 302.3256469999893,
                    "velocity": 0.4409448818897638,
                    "duration": 0.18027766666665457
                },
                {
                    "name": "F#4",
                    "midi": 66,
                    "time": 302.50592466665597,
                    "velocity": 0.4015748031496063,
                    "duration": 0.18027766666665457
                },
                {
                    "name": "E4",
                    "midi": 64,
                    "time": 302.6862023333226,
                    "velocity": 0.41732283464566927,
                    "duration": 0.18027766666665457
                },
                {
                    "name": "D#5",
                    "midi": 75,
                    "time": 302.8664799999893,
                    "velocity": 0.5590551181102362,
                    "duration": 2.163331999999855
                },
                {
                    "name": "D#4",
                    "midi": 63,
                    "time": 303.04675766665594,
                    "velocity": 0.2992125984251969,
                    "duration": 0.18027766666665457
                },
                {
                    "name": "F#4",
                    "midi": 66,
                    "time": 303.2270353333226,
                    "velocity": 0.29133858267716534,
                    "duration": 0.18027766666665457
                },
                {
                    "name": "B4",
                    "midi": 71,
                    "time": 303.40731299998924,
                    "velocity": 0.33070866141732286,
                    "duration": 0.18027766666665457
                },
                {
                    "name": "F#4",
                    "midi": 66,
                    "time": 303.5875906666559,
                    "velocity": 0.28346456692913385,
                    "duration": 0.18027766666665457
                },
                {
                    "name": "D#4",
                    "midi": 63,
                    "time": 303.76786833332255,
                    "velocity": 0.28346456692913385,
                    "duration": 0.18027766666665457
                },
                {
                    "name": "F#4",
                    "midi": 66,
                    "time": 303.9481459999892,
                    "velocity": 0.2992125984251969,
                    "duration": 0.18027766666665457
                },
                {
                    "name": "D#4",
                    "midi": 63,
                    "time": 304.12842366665586,
                    "velocity": 0.25984251968503935,
                    "duration": 0.18027766666665457
                },
                {
                    "name": "F#4",
                    "midi": 66,
                    "time": 304.3087013333225,
                    "velocity": 0.25984251968503935,
                    "duration": 0.18027766666665457
                },
                {
                    "name": "B4",
                    "midi": 71,
                    "time": 304.4889789999892,
                    "velocity": 0.29133858267716534,
                    "duration": 0.18027766666665457
                },
                {
                    "name": "F#4",
                    "midi": 66,
                    "time": 304.6692566666558,
                    "velocity": 0.2440944881889764,
                    "duration": 0.18027766666665457
                },
                {
                    "name": "D#4",
                    "midi": 63,
                    "time": 304.8495343333225,
                    "velocity": 0.23622047244094488,
                    "duration": 0.18027766666665457
                },
                {
                    "name": "D#5",
                    "midi": 75,
                    "time": 305.02981199998914,
                    "velocity": 0.3937007874015748,
                    "duration": 0.5408329999999637
                },
                {
                    "name": "G#4",
                    "midi": 68,
                    "time": 305.2100896666558,
                    "velocity": 0.2283464566929134,
                    "duration": 0.18027766666665457
                },
                {
                    "name": "F4",
                    "midi": 65,
                    "time": 305.39036733332244,
                    "velocity": 0.2283464566929134,
                    "duration": 0.18027766666665457
                },
                {
                    "name": "D5",
                    "midi": 74,
                    "time": 305.5706449999891,
                    "velocity": 0.3779527559055118,
                    "duration": 0.5408329999999637
                },
                {
                    "name": "G#4",
                    "midi": 68,
                    "time": 305.75092266665575,
                    "velocity": 0.2204724409448819,
                    "duration": 0.18027766666665457
                },
                {
                    "name": "F4",
                    "midi": 65,
                    "time": 305.9312003333224,
                    "velocity": 0.2204724409448819,
                    "duration": 0.18027766666665457
                },
                {
                    "name": "B4",
                    "midi": 71,
                    "time": 306.11147799998906,
                    "velocity": 0.33070866141732286,
                    "duration": 0.5408329999999637
                },
                {
                    "name": "F4",
                    "midi": 65,
                    "time": 306.2917556666557,
                    "velocity": 0.2204724409448819,
                    "duration": 0.18027766666665457
                },
                {
                    "name": "D4",
                    "midi": 62,
                    "time": 306.4720333333224,
                    "velocity": 0.2204724409448819,
                    "duration": 0.18027766666665457
                },
                {
                    "name": "G#4",
                    "midi": 68,
                    "time": 306.652310999989,
                    "velocity": 0.30708661417322836,
                    "duration": 0.5408329999999637
                },
                {
                    "name": "F4",
                    "midi": 65,
                    "time": 306.8325886666557,
                    "velocity": 0.2204724409448819,
                    "duration": 0.18027766666665457
                },
                {
                    "name": "C#4",
                    "midi": 61,
                    "time": 307.01286633332234,
                    "velocity": 0.2204724409448819,
                    "duration": 0.18027766666665457
                },
                {
                    "name": "C#5",
                    "midi": 73,
                    "time": 307.193143999989,
                    "velocity": 0.3700787401574803,
                    "duration": 2.163331999999855
                },
                {
                    "name": "C#4",
                    "midi": 61,
                    "time": 307.37342166665564,
                    "velocity": 0.25196850393700787,
                    "duration": 0.18027766666665457
                },
                {
                    "name": "F#4",
                    "midi": 66,
                    "time": 307.5536993333223,
                    "velocity": 0.25196850393700787,
                    "duration": 0.18027766666665457
                },
                {
                    "name": "A#4",
                    "midi": 70,
                    "time": 307.73397699998895,
                    "velocity": 0.28346456692913385,
                    "duration": 0.18027766666665457
                },
                {
                    "name": "F#4",
                    "midi": 66,
                    "time": 307.9142546666556,
                    "velocity": 0.25196850393700787,
                    "duration": 0.18027766666665457
                },
                {
                    "name": "C#4",
                    "midi": 61,
                    "time": 308.09453233332226,
                    "velocity": 0.25196850393700787,
                    "duration": 0.18027766666665457
                },
                {
                    "name": "F#4",
                    "midi": 66,
                    "time": 308.2748099999889,
                    "velocity": 0.28346456692913385,
                    "duration": 0.18027766666665457
                },
                {
                    "name": "C#4",
                    "midi": 61,
                    "time": 308.4550876666556,
                    "velocity": 0.2440944881889764,
                    "duration": 0.18027766666665457
                },
                {
                    "name": "F#4",
                    "midi": 66,
                    "time": 308.6353653333222,
                    "velocity": 0.2440944881889764,
                    "duration": 0.18027766666665457
                },
                {
                    "name": "A#4",
                    "midi": 70,
                    "time": 308.8156429999889,
                    "velocity": 0.28346456692913385,
                    "duration": 0.18027766666665457
                },
                {
                    "name": "F#4",
                    "midi": 66,
                    "time": 308.99592066665554,
                    "velocity": 0.23622047244094488,
                    "duration": 0.18027766666665457
                },
                {
                    "name": "C#4",
                    "midi": 61,
                    "time": 309.1761983333222,
                    "velocity": 0.23622047244094488,
                    "duration": 0.18027766666665457
                },
                {
                    "name": "C#5",
                    "midi": 73,
                    "time": 309.35647599998885,
                    "velocity": 0.36220472440944884,
                    "duration": 0.5408329999999637
                },
                {
                    "name": "G4",
                    "midi": 67,
                    "time": 309.5367536666555,
                    "velocity": 0.2283464566929134,
                    "duration": 0.18027766666665457
                },
                {
                    "name": "D#4",
                    "midi": 63,
                    "time": 309.71703133332215,
                    "velocity": 0.2283464566929134,
                    "duration": 0.18027766666665457
                },
                {
                    "name": "B4",
                    "midi": 71,
                    "time": 309.8973089999888,
                    "velocity": 0.33858267716535434,
                    "duration": 0.5408329999999637
                },
                {
                    "name": "G#4",
                    "midi": 68,
                    "time": 310.07758666665546,
                    "velocity": 0.2204724409448819,
                    "duration": 0.18027766666665457
                },
                {
                    "name": "D#4",
                    "midi": 63,
                    "time": 310.2578643333221,
                    "velocity": 0.2204724409448819,
                    "duration": 0.18027766666665457
                },
                {
                    "name": "G#4",
                    "midi": 68,
                    "time": 310.4381419999888,
                    "velocity": 0.33858267716535434,
                    "duration": 0.5408329999999637
                },
                {
                    "name": "D#4",
                    "midi": 63,
                    "time": 310.6184196666554,
                    "velocity": 0.2204724409448819,
                    "duration": 0.18027766666665457
                },
                {
                    "name": "B3",
                    "midi": 59,
                    "time": 310.7986973333221,
                    "velocity": 0.2204724409448819,
                    "duration": 0.18027766666665457
                },
                {
                    "name": "D#4",
                    "midi": 63,
                    "time": 310.97897499998874,
                    "velocity": 0.30708661417322836,
                    "duration": 0.5408329999999637
                },
                {
                    "name": "C4",
                    "midi": 60,
                    "time": 311.1592526666554,
                    "velocity": 0.2204724409448819,
                    "duration": 0.18027766666665457
                },
                {
                    "name": "G#3",
                    "midi": 56,
                    "time": 311.33953033332205,
                    "velocity": 0.2204724409448819,
                    "duration": 0.18027766666665457
                },
                {
                    "name": "F#4",
                    "midi": 66,
                    "time": 311.5198079999887,
                    "velocity": 0.3700787401574803,
                    "duration": 2.163331999999855
                },
                {
                    "name": "F#3",
                    "midi": 54,
                    "time": 311.70008566665535,
                    "velocity": 0.2283464566929134,
                    "duration": 0.18027766666665457
                },
                {
                    "name": "A#3",
                    "midi": 58,
                    "time": 311.880363333322,
                    "velocity": 0.2283464566929134,
                    "duration": 0.18027766666665457
                },
                {
                    "name": "C#4",
                    "midi": 61,
                    "time": 312.06064099998866,
                    "velocity": 0.2677165354330709,
                    "duration": 0.18027766666665457
                },
                {
                    "name": "A#3",
                    "midi": 58,
                    "time": 312.2409186666553,
                    "velocity": 0.2283464566929134,
                    "duration": 0.18027766666665457
                },
                {
                    "name": "F#3",
                    "midi": 54,
                    "time": 312.421196333322,
                    "velocity": 0.23622047244094488,
                    "duration": 0.18027766666665457
                },
                {
                    "name": "A#3",
                    "midi": 58,
                    "time": 312.6014739999886,
                    "velocity": 0.2677165354330709,
                    "duration": 0.18027766666665457
                },
                {
                    "name": "F#3",
                    "midi": 54,
                    "time": 312.7817516666553,
                    "velocity": 0.23622047244094488,
                    "duration": 0.18027766666665457
                },
                {
                    "name": "A#3",
                    "midi": 58,
                    "time": 312.96202933332194,
                    "velocity": 0.23622047244094488,
                    "duration": 0.18027766666665457
                },
                {
                    "name": "C#4",
                    "midi": 61,
                    "time": 313.1423069999886,
                    "velocity": 0.28346456692913385,
                    "duration": 0.18027766666665457
                },
                {
                    "name": "A#3",
                    "midi": 58,
                    "time": 313.32258466665525,
                    "velocity": 0.23622047244094488,
                    "duration": 0.18027766666665457
                },
                {
                    "name": "F#3",
                    "midi": 54,
                    "time": 313.5028623333219,
                    "velocity": 0.23622047244094488,
                    "duration": 0.18027766666665457
                },
                {
                    "name": "F#4",
                    "midi": 66,
                    "time": 313.68313999998855,
                    "velocity": 0.3543307086614173,
                    "duration": 0.5408329999999637
                },
                {
                    "name": "B3",
                    "midi": 59,
                    "time": 313.8634176666552,
                    "velocity": 0.2283464566929134,
                    "duration": 0.18027766666665457
                },
                {
                    "name": "G#3",
                    "midi": 56,
                    "time": 314.04369533332186,
                    "velocity": 0.2283464566929134,
                    "duration": 0.18027766666665457
                },
                {
                    "name": "F4",
                    "midi": 65,
                    "time": 314.2239729999885,
                    "velocity": 0.3228346456692913,
                    "duration": 0.5408329999999637
                },
                {
                    "name": "B3",
                    "midi": 59,
                    "time": 314.4042506666552,
                    "velocity": 0.2204724409448819,
                    "duration": 0.18027766666665457
                },
                {
                    "name": "G#3",
                    "midi": 56,
                    "time": 314.5845283333218,
                    "velocity": 0.2204724409448819,
                    "duration": 0.18027766666665457
                },
                {
                    "name": "A#4",
                    "midi": 70,
                    "time": 314.7648059999885,
                    "velocity": 0.33070866141732286,
                    "duration": 0.5408329999999637
                },
                {
                    "name": "C#4",
                    "midi": 61,
                    "time": 314.94508366665514,
                    "velocity": 0.2204724409448819,
                    "duration": 0.18027766666665457
                },
                {
                    "name": "B3",
                    "midi": 59,
                    "time": 315.1253613333218,
                    "velocity": 0.2204724409448819,
                    "duration": 0.18027766666665457
                },
                {
                    "name": "G#4",
                    "midi": 68,
                    "time": 315.30563899998845,
                    "velocity": 0.30708661417322836,
                    "duration": 0.5408329999999637
                },
                {
                    "name": "C#4",
                    "midi": 61,
                    "time": 315.4859166666551,
                    "velocity": 0.2047244094488189,
                    "duration": 0.18027766666665457
                },
                {
                    "name": "B3",
                    "midi": 59,
                    "time": 315.66619433332176,
                    "velocity": 0.2047244094488189,
                    "duration": 0.18027766666665457
                },
                {
                    "name": "F#4",
                    "midi": 66,
                    "time": 315.8464719999884,
                    "velocity": 0.3700787401574803,
                    "duration": 2.163331999999855
                },
                {
                    "name": "F#3",
                    "midi": 54,
                    "time": 316.02674966665506,
                    "velocity": 0.2283464566929134,
                    "duration": 0.18027766666665457
                },
                {
                    "name": "A#3",
                    "midi": 58,
                    "time": 316.2070273333217,
                    "velocity": 0.2283464566929134,
                    "duration": 0.18027766666665457
                },
                {
                    "name": "C#4",
                    "midi": 61,
                    "time": 316.3873049999884,
                    "velocity": 0.25984251968503935,
                    "duration": 0.18027766666665457
                },
                {
                    "name": "A#3",
                    "midi": 58,
                    "time": 316.567582666655,
                    "velocity": 0.2283464566929134,
                    "duration": 0.18027766666665457
                },
                {
                    "name": "F#3",
                    "midi": 54,
                    "time": 316.7478603333217,
                    "velocity": 0.2283464566929134,
                    "duration": 0.18027766666665457
                },
                {
                    "name": "A#3",
                    "midi": 58,
                    "time": 316.92813799998834,
                    "velocity": 0.25196850393700787,
                    "duration": 0.18027766666665457
                },
                {
                    "name": "F#3",
                    "midi": 54,
                    "time": 317.108415666655,
                    "velocity": 0.23622047244094488,
                    "duration": 0.18027766666665457
                },
                {
                    "name": "A#3",
                    "midi": 58,
                    "time": 317.28869333332165,
                    "velocity": 0.23622047244094488,
                    "duration": 0.18027766666665457
                },
                {
                    "name": "C#4",
                    "midi": 61,
                    "time": 317.4689709999883,
                    "velocity": 0.28346456692913385,
                    "duration": 0.18027766666665457
                },
                {
                    "name": "A#3",
                    "midi": 58,
                    "time": 317.64924866665496,
                    "velocity": 0.23622047244094488,
                    "duration": 0.18027766666665457
                },
                {
                    "name": "F#3",
                    "midi": 54,
                    "time": 317.8295263333216,
                    "velocity": 0.23622047244094488,
                    "duration": 0.18027766666665457
                },
                {
                    "name": "F#4",
                    "midi": 66,
                    "time": 318.00980399998826,
                    "velocity": 0.3700787401574803,
                    "duration": 2.163331999999855
                },
                {
                    "name": "F#3",
                    "midi": 54,
                    "time": 318.1900816666549,
                    "velocity": 0.2283464566929134,
                    "duration": 0.18027766666665457
                },
                {
                    "name": "A#3",
                    "midi": 58,
                    "time": 318.3703593333216,
                    "velocity": 0.2283464566929134,
                    "duration": 0.18027766666665457
                },
                {
                    "name": "C#4",
                    "midi": 61,
                    "time": 318.5506369999882,
                    "velocity": 0.25196850393700787,
                    "duration": 0.18027766666665457
                },
                {
                    "name": "A#3",
                    "midi": 58,
                    "time": 318.7309146666549,
                    "velocity": 0.2283464566929134,
                    "duration": 0.18027766666665457
                },
                {
                    "name": "F#3",
                    "midi": 54,
                    "time": 318.91119233332154,
                    "velocity": 0.29133858267716534,
                    "duration": 0.18027766666665457
                },
                {
                    "name": "A#3",
                    "midi": 58,
                    "time": 319.0914699999882,
                    "velocity": 0.3228346456692913,
                    "duration": 0.18027766666665457
                },
                {
                    "name": "F#3",
                    "midi": 54,
                    "time": 319.27174766665485,
                    "velocity": 0.33858267716535434,
                    "duration": 0.18027766666665457
                },
                {
                    "name": "A#3",
                    "midi": 58,
                    "time": 319.4520253333215,
                    "velocity": 0.3543307086614173,
                    "duration": 0.18027766666665457
                },
                {
                    "name": "C#4",
                    "midi": 61,
                    "time": 319.63230299998816,
                    "velocity": 0.3700787401574803,
                    "duration": 0.18027766666665457
                },
                {
                    "name": "A#3",
                    "midi": 58,
                    "time": 319.8125806666548,
                    "velocity": 0.3937007874015748,
                    "duration": 0.18027766666665457
                },
                {
                    "name": "F#3",
                    "midi": 54,
                    "time": 319.99285833332146,
                    "velocity": 0.4094488188976378,
                    "duration": 0.18027766666665457
                },
                {
                    "name": "F#4",
                    "midi": 66,
                    "time": 320.1731359999881,
                    "velocity": 0.47244094488188976,
                    "duration": 2.163331999999855
                },
                {
                    "name": "F#3",
                    "midi": 54,
                    "time": 320.3534136666548,
                    "velocity": 0.3700787401574803,
                    "duration": 0.18027766666665457
                },
                {
                    "name": "B3",
                    "midi": 59,
                    "time": 320.5336913333214,
                    "velocity": 0.33858267716535434,
                    "duration": 0.18027766666665457
                },
                {
                    "name": "D4",
                    "midi": 62,
                    "time": 320.7139689999881,
                    "velocity": 0.44881889763779526,
                    "duration": 0.18027766666665457
                },
                {
                    "name": "B3",
                    "midi": 59,
                    "time": 320.89424666665474,
                    "velocity": 0.36220472440944884,
                    "duration": 0.18027766666665457
                },
                {
                    "name": "F#3",
                    "midi": 54,
                    "time": 321.0745243333214,
                    "velocity": 0.36220472440944884,
                    "duration": 0.18027766666665457
                },
                {
                    "name": "B3",
                    "midi": 59,
                    "time": 321.25480199998805,
                    "velocity": 0.4566929133858268,
                    "duration": 0.18027766666665457
                },
                {
                    "name": "F#3",
                    "midi": 54,
                    "time": 321.4350796666547,
                    "velocity": 0.3464566929133858,
                    "duration": 0.18027766666665457
                },
                {
                    "name": "B3",
                    "midi": 59,
                    "time": 321.61535733332136,
                    "velocity": 0.3543307086614173,
                    "duration": 0.18027766666665457
                },
                {
                    "name": "D4",
                    "midi": 62,
                    "time": 321.795634999988,
                    "velocity": 0.48031496062992124,
                    "duration": 0.18027766666665457
                },
                {
                    "name": "B3",
                    "midi": 59,
                    "time": 321.97591266665466,
                    "velocity": 0.4015748031496063,
                    "duration": 0.18027766666665457
                },
                {
                    "name": "F#3",
                    "midi": 54,
                    "time": 322.1561903333213,
                    "velocity": 0.41732283464566927,
                    "duration": 0.18027766666665457
                },
                {
                    "name": "F#4",
                    "midi": 66,
                    "time": 322.336467999988,
                    "velocity": 0.5669291338582677,
                    "duration": 1.0816659999999274
                },
                {
                    "name": "F#3",
                    "midi": 54,
                    "time": 322.51674566665463,
                    "velocity": 0.3779527559055118,
                    "duration": 0.18027766666665457
                },
                {
                    "name": "A#3",
                    "midi": 58,
                    "time": 322.6970233333213,
                    "velocity": 0.3779527559055118,
                    "duration": 0.18027766666665457
                },
                {
                    "name": "E4",
                    "midi": 64,
                    "time": 322.87730099998794,
                    "velocity": 0.48031496062992124,
                    "duration": 0.18027766666665457
                },
                {
                    "name": "A#3",
                    "midi": 58,
                    "time": 323.0575786666546,
                    "velocity": 0.4094488188976378,
                    "duration": 0.18027766666665457
                },
                {
                    "name": "F#3",
                    "midi": 54,
                    "time": 323.23785633332125,
                    "velocity": 0.4094488188976378,
                    "duration": 0.18027766666665457
                },
                {
                    "name": "G4",
                    "midi": 67,
                    "time": 323.4181339999879,
                    "velocity": 0.5196850393700787,
                    "duration": 0.5408329999999637
                },
                {
                    "name": "A#3",
                    "midi": 58,
                    "time": 323.4181339999879,
                    "velocity": 0.4566929133858268,
                    "duration": 0.18027766666665457
                },
                {
                    "name": "F#3",
                    "midi": 54,
                    "time": 323.59841166665456,
                    "velocity": 0.4645669291338583,
                    "duration": 0.18027766666665457
                },
                {
                    "name": "A#3",
                    "midi": 58,
                    "time": 323.7786893333212,
                    "velocity": 0.4645669291338583,
                    "duration": 0.18027766666665457
                },
                {
                    "name": "F#4",
                    "midi": 66,
                    "time": 323.95896699998787,
                    "velocity": 0.5275590551181102,
                    "duration": 0.5408329999999637
                },
                {
                    "name": "E4",
                    "midi": 64,
                    "time": 323.95896699998787,
                    "velocity": 0.5275590551181102,
                    "duration": 0.18027766666665457
                },
                {
                    "name": "A#3",
                    "midi": 58,
                    "time": 324.1392446666545,
                    "velocity": 0.4881889763779528,
                    "duration": 0.18027766666665457
                },
                {
                    "name": "F#3",
                    "midi": 54,
                    "time": 324.3195223333212,
                    "velocity": 0.4881889763779528,
                    "duration": 0.18027766666665457
                },
                {
                    "name": "F#4",
                    "midi": 66,
                    "time": 324.49979999998783,
                    "velocity": 0.6299212598425197,
                    "duration": 2.163331999999855
                },
                {
                    "name": "F#3",
                    "midi": 54,
                    "time": 324.6800776666545,
                    "velocity": 0.4566929133858268,
                    "duration": 0.18027766666665457
                },
                {
                    "name": "B3",
                    "midi": 59,
                    "time": 324.86035533332114,
                    "velocity": 0.4645669291338583,
                    "duration": 0.18027766666665457
                },
                {
                    "name": "D4",
                    "midi": 62,
                    "time": 325.0406329999878,
                    "velocity": 0.5511811023622047,
                    "duration": 0.18027766666665457
                },
                {
                    "name": "B3",
                    "midi": 59,
                    "time": 325.22091066665445,
                    "velocity": 0.47244094488188976,
                    "duration": 0.18027766666665457
                },
                {
                    "name": "F#3",
                    "midi": 54,
                    "time": 325.4011883333211,
                    "velocity": 0.48031496062992124,
                    "duration": 0.18027766666665457
                },
                {
                    "name": "B3",
                    "midi": 59,
                    "time": 325.58146599998776,
                    "velocity": 0.5590551181102362,
                    "duration": 0.18027766666665457
                },
                {
                    "name": "F#3",
                    "midi": 54,
                    "time": 325.7617436666544,
                    "velocity": 0.49606299212598426,
                    "duration": 0.18027766666665457
                },
                {
                    "name": "B3",
                    "midi": 59,
                    "time": 325.94202133332107,
                    "velocity": 0.4645669291338583,
                    "duration": 0.18027766666665457
                },
                {
                    "name": "D4",
                    "midi": 62,
                    "time": 326.1222989999877,
                    "velocity": 0.5905511811023622,
                    "duration": 0.18027766666665457
                },
                {
                    "name": "B3",
                    "midi": 59,
                    "time": 326.3025766666544,
                    "velocity": 0.49606299212598426,
                    "duration": 0.18027766666665457
                },
                {
                    "name": "F#3",
                    "midi": 54,
                    "time": 326.48285433332103,
                    "velocity": 0.5039370078740157,
                    "duration": 0.18027766666665457
                },
                {
                    "name": "C4",
                    "midi": 60,
                    "time": 326.6631319999877,
                    "velocity": 0.6456692913385826,
                    "duration": 1.0816659999999274
                },
                {
                    "name": "C3",
                    "midi": 48,
                    "time": 326.84340966665434,
                    "velocity": 0.5275590551181102,
                    "duration": 0.18027766666665457
                },
                {
                    "name": "F#3",
                    "midi": 54,
                    "time": 327.023687333321,
                    "velocity": 0.5118110236220472,
                    "duration": 0.18027766666665457
                },
                {
                    "name": "A3",
                    "midi": 57,
                    "time": 327.20396499998765,
                    "velocity": 0.49606299212598426,
                    "duration": 0.18027766666665457
                },
                {
                    "name": "F#3",
                    "midi": 54,
                    "time": 327.3842426666543,
                    "velocity": 0.48031496062992124,
                    "duration": 0.18027766666665457
                },
                {
                    "name": "C3",
                    "midi": 48,
                    "time": 327.56452033332096,
                    "velocity": 0.4645669291338583,
                    "duration": 0.18027766666665457
                },
                {
                    "name": "F#3",
                    "midi": 54,
                    "time": 327.7447979999876,
                    "velocity": 0.4409448818897638,
                    "duration": 0.18027766666665457
                },
                {
                    "name": "C3",
                    "midi": 48,
                    "time": 327.92507566665427,
                    "velocity": 0.4251968503937008,
                    "duration": 0.18027766666665457
                },
                {
                    "name": "F#3",
                    "midi": 54,
                    "time": 328.1053533333209,
                    "velocity": 0.3937007874015748,
                    "duration": 0.18027766666665457
                },
                {
                    "name": "A3",
                    "midi": 57,
                    "time": 328.2856309999876,
                    "velocity": 0.36220472440944884,
                    "duration": 0.18027766666665457
                },
                {
                    "name": "F#3",
                    "midi": 54,
                    "time": 328.46590866665423,
                    "velocity": 0.33070866141732286,
                    "duration": 0.18027766666665457
                },
                {
                    "name": "C3",
                    "midi": 48,
                    "time": 328.6461863333209,
                    "velocity": 0.30708661417322836,
                    "duration": 0.18027766666665457
                },
                {
                    "name": "C#4",
                    "midi": 61,
                    "time": 328.82646399998754,
                    "velocity": 0.3543307086614173,
                    "duration": 2.163331999999855
                },
                {
                    "name": "C#3",
                    "midi": 49,
                    "time": 329.0067416666542,
                    "velocity": 0.25984251968503935,
                    "duration": 0.18027766666665457
                },
                {
                    "name": "F#3",
                    "midi": 54,
                    "time": 329.18701933332085,
                    "velocity": 0.25984251968503935,
                    "duration": 0.18027766666665457
                },
                {
                    "name": "A#3",
                    "midi": 58,
                    "time": 329.3672969999875,
                    "velocity": 0.28346456692913385,
                    "duration": 0.18027766666665457
                },
                {
                    "name": "F#3",
                    "midi": 54,
                    "time": 329.54757466665416,
                    "velocity": 0.25196850393700787,
                    "duration": 0.18027766666665457
                },
                {
                    "name": "C#3",
                    "midi": 49,
                    "time": 329.7278523333208,
                    "velocity": 0.25196850393700787,
                    "duration": 0.18027766666665457
                },
                {
                    "name": "F#3",
                    "midi": 54,
                    "time": 329.90812999998747,
                    "velocity": 0.2755905511811024,
                    "duration": 0.18027766666665457
                },
                {
                    "name": "C#3",
                    "midi": 49,
                    "time": 330.0884076666541,
                    "velocity": 0.2440944881889764,
                    "duration": 0.18027766666665457
                },
                {
                    "name": "F#3",
                    "midi": 54,
                    "time": 330.2686853333208,
                    "velocity": 0.2440944881889764,
                    "duration": 0.18027766666665457
                },
                {
                    "name": "A#3",
                    "midi": 58,
                    "time": 330.44896299998743,
                    "velocity": 0.29133858267716534,
                    "duration": 0.18027766666665457
                },
                {
                    "name": "F#3",
                    "midi": 54,
                    "time": 330.6292406666541,
                    "velocity": 0.23622047244094488,
                    "duration": 0.18027766666665457
                },
                {
                    "name": "C#3",
                    "midi": 49,
                    "time": 330.80951833332074,
                    "velocity": 0.23622047244094488,
                    "duration": 0.18027766666665457
                },
                {
                    "name": "C#4",
                    "midi": 61,
                    "time": 330.9897959999874,
                    "velocity": 0.3543307086614173,
                    "duration": 0.5408329999999637
                },
                {
                    "name": "F3",
                    "midi": 53,
                    "time": 331.17007366665405,
                    "velocity": 0.2283464566929134,
                    "duration": 0.18027766666665457
                },
                {
                    "name": "G#3",
                    "midi": 56,
                    "time": 331.3503513333207,
                    "velocity": 0.2283464566929134,
                    "duration": 0.18027766666665457
                },
                {
                    "name": "B4",
                    "midi": 71,
                    "time": 331.53062899998736,
                    "velocity": 0.3228346456692913,
                    "duration": 0.5408329999999637
                },
                {
                    "name": "B3",
                    "midi": 59,
                    "time": 331.710906666654,
                    "velocity": 0.2204724409448819,
                    "duration": 0.18027766666665457
                },
                {
                    "name": "C#4",
                    "midi": 61,
                    "time": 331.89118433332067,
                    "velocity": 0.2204724409448819,
                    "duration": 0.18027766666665457
                },
                {
                    "name": "G#4",
                    "midi": 68,
                    "time": 332.0714619999873,
                    "velocity": 0.33070866141732286,
                    "duration": 0.5408329999999637
                },
                {
                    "name": "B3",
                    "midi": 59,
                    "time": 332.251739666654,
                    "velocity": 0.2204724409448819,
                    "duration": 0.18027766666665457
                },
                {
                    "name": "C#4",
                    "midi": 61,
                    "time": 332.43201733332063,
                    "velocity": 0.2204724409448819,
                    "duration": 0.18027766666665457
                },
                {
                    "name": "F4",
                    "midi": 65,
                    "time": 332.6122949999873,
                    "velocity": 0.30708661417322836,
                    "duration": 0.5408329999999637
                },
                {
                    "name": "B3",
                    "midi": 59,
                    "time": 332.79257266665394,
                    "velocity": 0.2047244094488189,
                    "duration": 0.18027766666665457
                },
                {
                    "name": "C#4",
                    "midi": 61,
                    "time": 332.9728503333206,
                    "velocity": 0.2047244094488189,
                    "duration": 0.18027766666665457
                },
                {
                    "name": "F#4",
                    "midi": 66,
                    "time": 333.15312799998725,
                    "velocity": 0.3700787401574803,
                    "duration": 2.163331999999855
                },
                {
                    "name": "F#3",
                    "midi": 54,
                    "time": 333.3334056666539,
                    "velocity": 0.2125984251968504,
                    "duration": 0.18027766666665457
                },
                {
                    "name": "A#3",
                    "midi": 58,
                    "time": 333.51368333332056,
                    "velocity": 0.2125984251968504,
                    "duration": 0.18027766666665457
                },
                {
                    "name": "C#4",
                    "midi": 61,
                    "time": 333.6939609999872,
                    "velocity": 0.25984251968503935,
                    "duration": 0.18027766666665457
                },
                {
                    "name": "A#3",
                    "midi": 58,
                    "time": 333.87423866665387,
                    "velocity": 0.2125984251968504,
                    "duration": 0.18027766666665457
                },
                {
                    "name": "F#3",
                    "midi": 54,
                    "time": 334.0545163333205,
                    "velocity": 0.2125984251968504,
                    "duration": 0.18027766666665457
                },
                {
                    "name": "A#3",
                    "midi": 58,
                    "time": 334.2347939999872,
                    "velocity": 0.25196850393700787,
                    "duration": 0.18027766666665457
                },
                {
                    "name": "F#3",
                    "midi": 54,
                    "time": 334.41507166665383,
                    "velocity": 0.23622047244094488,
                    "duration": 0.18027766666665457
                },
                {
                    "name": "A#3",
                    "midi": 58,
                    "time": 334.5953493333205,
                    "velocity": 0.23622047244094488,
                    "duration": 0.18027766666665457
                },
                {
                    "name": "C#4",
                    "midi": 61,
                    "time": 334.77562699998714,
                    "velocity": 0.28346456692913385,
                    "duration": 0.18027766666665457
                },
                {
                    "name": "A#3",
                    "midi": 58,
                    "time": 334.9559046666538,
                    "velocity": 0.23622047244094488,
                    "duration": 0.18027766666665457
                },
                {
                    "name": "F#3",
                    "midi": 54,
                    "time": 335.13618233332045,
                    "velocity": 0.23622047244094488,
                    "duration": 0.18027766666665457
                },
                {
                    "name": "F#4",
                    "midi": 66,
                    "time": 335.3164599999871,
                    "velocity": 0.3700787401574803,
                    "duration": 2.163331999999855
                },
                {
                    "name": "F#3",
                    "midi": 54,
                    "time": 335.49673766665376,
                    "velocity": 0.2283464566929134,
                    "duration": 0.18027766666665457
                },
                {
                    "name": "A#3",
                    "midi": 58,
                    "time": 335.6770153333204,
                    "velocity": 0.2283464566929134,
                    "duration": 0.18027766666665457
                },
                {
                    "name": "C#4",
                    "midi": 61,
                    "time": 335.85729299998707,
                    "velocity": 0.25196850393700787,
                    "duration": 0.18027766666665457
                },
                {
                    "name": "A#3",
                    "midi": 58,
                    "time": 336.0375706666537,
                    "velocity": 0.2283464566929134,
                    "duration": 0.18027766666665457
                },
                {
                    "name": "F#3",
                    "midi": 54,
                    "time": 336.2178483333204,
                    "velocity": 0.29133858267716534,
                    "duration": 0.18027766666665457
                },
                {
                    "name": "A#3",
                    "midi": 58,
                    "time": 336.39812599998703,
                    "velocity": 0.3228346456692913,
                    "duration": 0.18027766666665457
                },
                {
                    "name": "F#3",
                    "midi": 54,
                    "time": 336.5784036666537,
                    "velocity": 0.33858267716535434,
                    "duration": 0.18027766666665457
                },
                {
                    "name": "A#3",
                    "midi": 58,
                    "time": 336.75868133332034,
                    "velocity": 0.3543307086614173,
                    "duration": 0.18027766666665457
                },
                {
                    "name": "C#4",
                    "midi": 61,
                    "time": 336.938958999987,
                    "velocity": 0.3700787401574803,
                    "duration": 0.18027766666665457
                },
                {
                    "name": "A#3",
                    "midi": 58,
                    "time": 337.11923666665365,
                    "velocity": 0.3937007874015748,
                    "duration": 0.18027766666665457
                },
                {
                    "name": "F#3",
                    "midi": 54,
                    "time": 337.2995143333203,
                    "velocity": 0.4094488188976378,
                    "duration": 0.18027766666665457
                },
                {
                    "name": "F#4",
                    "midi": 66,
                    "time": 337.47979199998696,
                    "velocity": 0.47244094488188976,
                    "duration": 2.163331999999855
                },
                {
                    "name": "F#3",
                    "midi": 54,
                    "time": 337.6600696666536,
                    "velocity": 0.3464566929133858,
                    "duration": 0.18027766666665457
                },
                {
                    "name": "B3",
                    "midi": 59,
                    "time": 337.84034733332027,
                    "velocity": 0.33858267716535434,
                    "duration": 0.18027766666665457
                },
                {
                    "name": "D4",
                    "midi": 62,
                    "time": 338.0206249999869,
                    "velocity": 0.4094488188976378,
                    "duration": 0.18027766666665457
                },
                {
                    "name": "B3",
                    "midi": 59,
                    "time": 338.2009026666536,
                    "velocity": 0.36220472440944884,
                    "duration": 0.18027766666665457
                },
                {
                    "name": "F#3",
                    "midi": 54,
                    "time": 338.38118033332023,
                    "velocity": 0.36220472440944884,
                    "duration": 0.18027766666665457
                },
                {
                    "name": "B3",
                    "midi": 59,
                    "time": 338.5614579999869,
                    "velocity": 0.41732283464566927,
                    "duration": 0.18027766666665457
                },
                {
                    "name": "F#3",
                    "midi": 54,
                    "time": 338.74173566665354,
                    "velocity": 0.3464566929133858,
                    "duration": 0.18027766666665457
                },
                {
                    "name": "B3",
                    "midi": 59,
                    "time": 338.9220133333202,
                    "velocity": 0.3543307086614173,
                    "duration": 0.18027766666665457
                },
                {
                    "name": "D4",
                    "midi": 62,
                    "time": 339.10229099998685,
                    "velocity": 0.4409448818897638,
                    "duration": 0.18027766666665457
                },
                {
                    "name": "B3",
                    "midi": 59,
                    "time": 339.2825686666535,
                    "velocity": 0.36220472440944884,
                    "duration": 0.18027766666665457
                },
                {
                    "name": "F#3",
                    "midi": 54,
                    "time": 339.46284633332016,
                    "velocity": 0.36220472440944884,
                    "duration": 0.18027766666665457
                },
                {
                    "name": "F#4",
                    "midi": 66,
                    "time": 339.6431239999868,
                    "velocity": 0.5039370078740157,
                    "duration": 2.163331999999855
                },
                {
                    "name": "F#3",
                    "midi": 54,
                    "time": 339.82340166665347,
                    "velocity": 0.3779527559055118,
                    "duration": 0.18027766666665457
                },
                {
                    "name": "A3",
                    "midi": 57,
                    "time": 340.0036793333201,
                    "velocity": 0.3779527559055118,
                    "duration": 0.18027766666665457
                },
                {
                    "name": "D4",
                    "midi": 62,
                    "time": 340.1839569999868,
                    "velocity": 0.4566929133858268,
                    "duration": 0.18027766666665457
                },
                {
                    "name": "A3",
                    "midi": 57,
                    "time": 340.36423466665343,
                    "velocity": 0.3700787401574803,
                    "duration": 0.18027766666665457
                },
                {
                    "name": "F#3",
                    "midi": 54,
                    "time": 340.5445123333201,
                    "velocity": 0.3779527559055118,
                    "duration": 0.18027766666665457
                },
                {
                    "name": "A3",
                    "midi": 57,
                    "time": 340.72478999998674,
                    "velocity": 0.4566929133858268,
                    "duration": 0.18027766666665457
                },
                {
                    "name": "F#3",
                    "midi": 54,
                    "time": 340.9050676666534,
                    "velocity": 0.4645669291338583,
                    "duration": 0.18027766666665457
                },
                {
                    "name": "A3",
                    "midi": 57,
                    "time": 341.08534533332005,
                    "velocity": 0.4645669291338583,
                    "duration": 0.18027766666665457
                },
                {
                    "name": "D4",
                    "midi": 62,
                    "time": 341.2656229999867,
                    "velocity": 0.5275590551181102,
                    "duration": 0.18027766666665457
                },
                {
                    "name": "A3",
                    "midi": 57,
                    "time": 341.44590066665336,
                    "velocity": 0.4881889763779528,
                    "duration": 0.18027766666665457
                },
                {
                    "name": "F#3",
                    "midi": 54,
                    "time": 341.62617833332,
                    "velocity": 0.4881889763779528,
                    "duration": 0.18027766666665457
                },
                {
                    "name": "G4",
                    "midi": 67,
                    "time": 341.80645599998667,
                    "velocity": 0.6299212598425197,
                    "duration": 2.163331999999855
                },
                {
                    "name": "G3",
                    "midi": 55,
                    "time": 341.9867336666533,
                    "velocity": 0.41732283464566927,
                    "duration": 0.18027766666665457
                },
                {
                    "name": "A#3",
                    "midi": 58,
                    "time": 342.16701133332,
                    "velocity": 0.4251968503937008,
                    "duration": 0.18027766666665457
                },
                {
                    "name": "D4",
                    "midi": 62,
                    "time": 342.34728899998663,
                    "velocity": 0.5275590551181102,
                    "duration": 0.18027766666665457
                },
                {
                    "name": "A#3",
                    "midi": 58,
                    "time": 342.5275666666533,
                    "velocity": 0.4409448818897638,
                    "duration": 0.18027766666665457
                },
                {
                    "name": "G3",
                    "midi": 55,
                    "time": 342.70784433331994,
                    "velocity": 0.4409448818897638,
                    "duration": 0.18027766666665457
                },
                {
                    "name": "A#3",
                    "midi": 58,
                    "time": 342.8881219999866,
                    "velocity": 0.5511811023622047,
                    "duration": 0.18027766666665457
                },
                {
                    "name": "G3",
                    "midi": 55,
                    "time": 343.06839966665325,
                    "velocity": 0.4566929133858268,
                    "duration": 0.18027766666665457
                },
                {
                    "name": "A#3",
                    "midi": 58,
                    "time": 343.2486773333199,
                    "velocity": 0.4645669291338583,
                    "duration": 0.18027766666665457
                },
                {
                    "name": "D4",
                    "midi": 62,
                    "time": 343.42895499998656,
                    "velocity": 0.5669291338582677,
                    "duration": 0.18027766666665457
                },
                {
                    "name": "A#3",
                    "midi": 58,
                    "time": 343.6092326666532,
                    "velocity": 0.4330708661417323,
                    "duration": 0.18027766666665457
                },
                {
                    "name": "G3",
                    "midi": 55,
                    "time": 343.78951033331987,
                    "velocity": 0.47244094488188976,
                    "duration": 0.18027766666665457
                },
                {
                    "name": "C4",
                    "midi": 60,
                    "time": 343.9697879999865,
                    "velocity": 0.6535433070866141,
                    "duration": 1.0816659999999274
                },
                {
                    "name": "C3",
                    "midi": 48,
                    "time": 344.1500656666532,
                    "velocity": 0.5275590551181102,
                    "duration": 0.18027766666665457
                },
                {
                    "name": "F#3",
                    "midi": 54,
                    "time": 344.33034333331983,
                    "velocity": 0.5118110236220472,
                    "duration": 0.18027766666665457
                },
                {
                    "name": "A3",
                    "midi": 57,
                    "time": 344.5106209999865,
                    "velocity": 0.49606299212598426,
                    "duration": 0.18027766666665457
                },
                {
                    "name": "F#3",
                    "midi": 54,
                    "time": 344.69089866665314,
                    "velocity": 0.48031496062992124,
                    "duration": 0.18027766666665457
                },
                {
                    "name": "C3",
                    "midi": 48,
                    "time": 344.8711763333198,
                    "velocity": 0.4645669291338583,
                    "duration": 0.18027766666665457
                },
                {
                    "name": "F#3",
                    "midi": 54,
                    "time": 345.05145399998645,
                    "velocity": 0.4409448818897638,
                    "duration": 0.18027766666665457
                },
                {
                    "name": "C3",
                    "midi": 48,
                    "time": 345.2317316666531,
                    "velocity": 0.4251968503937008,
                    "duration": 0.18027766666665457
                },
                {
                    "name": "F#3",
                    "midi": 54,
                    "time": 345.41200933331976,
                    "velocity": 0.3937007874015748,
                    "duration": 0.18027766666665457
                },
                {
                    "name": "A3",
                    "midi": 57,
                    "time": 345.5922869999864,
                    "velocity": 0.36220472440944884,
                    "duration": 0.18027766666665457
                },
                {
                    "name": "F#3",
                    "midi": 54,
                    "time": 345.77256466665307,
                    "velocity": 0.33070866141732286,
                    "duration": 0.18027766666665457
                },
                {
                    "name": "C3",
                    "midi": 48,
                    "time": 345.9528423333197,
                    "velocity": 0.30708661417322836,
                    "duration": 0.18027766666665457
                },
                {
                    "name": "C#4",
                    "midi": 61,
                    "time": 346.1331199999864,
                    "velocity": 0.3543307086614173,
                    "duration": 2.163331999999855
                },
                {
                    "name": "C#3",
                    "midi": 49,
                    "time": 346.31339766665303,
                    "velocity": 0.25984251968503935,
                    "duration": 0.18027766666665457
                },
                {
                    "name": "F#3",
                    "midi": 54,
                    "time": 346.4936753333197,
                    "velocity": 0.25984251968503935,
                    "duration": 0.18027766666665457
                },
                {
                    "name": "A#3",
                    "midi": 58,
                    "time": 346.67395299998634,
                    "velocity": 0.28346456692913385,
                    "duration": 0.18027766666665457
                },
                {
                    "name": "F#3",
                    "midi": 54,
                    "time": 346.854230666653,
                    "velocity": 0.25196850393700787,
                    "duration": 0.18027766666665457
                },
                {
                    "name": "C#3",
                    "midi": 49,
                    "time": 347.03450833331965,
                    "velocity": 0.25196850393700787,
                    "duration": 0.18027766666665457
                },
                {
                    "name": "F#3",
                    "midi": 54,
                    "time": 347.2147859999863,
                    "velocity": 0.2755905511811024,
                    "duration": 0.18027766666665457
                },
                {
                    "name": "C#3",
                    "midi": 49,
                    "time": 347.39506366665296,
                    "velocity": 0.2440944881889764,
                    "duration": 0.18027766666665457
                },
                {
                    "name": "F#3",
                    "midi": 54,
                    "time": 347.5753413333196,
                    "velocity": 0.2440944881889764,
                    "duration": 0.18027766666665457
                },
                {
                    "name": "A#3",
                    "midi": 58,
                    "time": 347.75561899998627,
                    "velocity": 0.29133858267716534,
                    "duration": 0.18027766666665457
                },
                {
                    "name": "F#3",
                    "midi": 54,
                    "time": 347.9358966666529,
                    "velocity": 0.23622047244094488,
                    "duration": 0.18027766666665457
                },
                {
                    "name": "C#3",
                    "midi": 49,
                    "time": 348.1161743333196,
                    "velocity": 0.23622047244094488,
                    "duration": 0.18027766666665457
                },
                {
                    "name": "C#4",
                    "midi": 61,
                    "time": 348.29645199998623,
                    "velocity": 0.3543307086614173,
                    "duration": 0.5408329999999637
                },
                {
                    "name": "F3",
                    "midi": 53,
                    "time": 348.4767296666529,
                    "velocity": 0.2283464566929134,
                    "duration": 0.18027766666665457
                },
                {
                    "name": "G#3",
                    "midi": 56,
                    "time": 348.65700733331954,
                    "velocity": 0.2283464566929134,
                    "duration": 0.18027766666665457
                },
                {
                    "name": "B4",
                    "midi": 71,
                    "time": 348.8372849999862,
                    "velocity": 0.3228346456692913,
                    "duration": 0.5408329999999637
                },
                {
                    "name": "B3",
                    "midi": 59,
                    "time": 349.01756266665285,
                    "velocity": 0.2204724409448819,
                    "duration": 0.18027766666665457
                },
                {
                    "name": "C#4",
                    "midi": 61,
                    "time": 349.1978403333195,
                    "velocity": 0.2204724409448819,
                    "duration": 0.18027766666665457
                },
                {
                    "name": "G#4",
                    "midi": 68,
                    "time": 349.37811799998616,
                    "velocity": 0.33070866141732286,
                    "duration": 0.5408329999999637
                },
                {
                    "name": "B3",
                    "midi": 59,
                    "time": 349.5583956666528,
                    "velocity": 0.2204724409448819,
                    "duration": 0.18027766666665457
                },
                {
                    "name": "C#4",
                    "midi": 61,
                    "time": 349.73867333331947,
                    "velocity": 0.2204724409448819,
                    "duration": 0.18027766666665457
                },
                {
                    "name": "F4",
                    "midi": 65,
                    "time": 349.9189509999861,
                    "velocity": 0.30708661417322836,
                    "duration": 0.5408329999999637
                },
                {
                    "name": "B3",
                    "midi": 59,
                    "time": 350.0992286666528,
                    "velocity": 0.2047244094488189,
                    "duration": 0.18027766666665457
                },
                {
                    "name": "C#4",
                    "midi": 61,
                    "time": 350.27950633331943,
                    "velocity": 0.2047244094488189,
                    "duration": 0.18027766666665457
                },
                {
                    "name": "F#4",
                    "midi": 66,
                    "time": 350.4597839999861,
                    "velocity": 0.3543307086614173,
                    "duration": 2.163331999999855
                },
                {
                    "name": "F#3",
                    "midi": 54,
                    "time": 350.64006166665274,
                    "velocity": 0.25196850393700787,
                    "duration": 0.18027766666665457
                },
                {
                    "name": "A#3",
                    "midi": 58,
                    "time": 350.8203393333194,
                    "velocity": 0.25196850393700787,
                    "duration": 0.18027766666665457
                },
                {
                    "name": "C#4",
                    "midi": 61,
                    "time": 351.00061699998605,
                    "velocity": 0.2677165354330709,
                    "duration": 0.18027766666665457
                },
                {
                    "name": "F#3",
                    "midi": 54,
                    "time": 351.1808946666527,
                    "velocity": 0.23622047244094488,
                    "duration": 0.18027766666665457
                },
                {
                    "name": "A#3",
                    "midi": 58,
                    "time": 351.36117233331936,
                    "velocity": 0.23622047244094488,
                    "duration": 0.18027766666665457
                },
                {
                    "name": "D#4",
                    "midi": 63,
                    "time": 351.541449999986,
                    "velocity": 0.2992125984251969,
                    "duration": 0.18027766666665457
                },
                {
                    "name": "F#3",
                    "midi": 54,
                    "time": 351.72172766665267,
                    "velocity": 0.2204724409448819,
                    "duration": 0.18027766666665457
                },
                {
                    "name": "B3",
                    "midi": 59,
                    "time": 351.9020053333193,
                    "velocity": 0.2125984251968504,
                    "duration": 0.18027766666665457
                },
                {
                    "name": "C#4",
                    "midi": 61,
                    "time": 352.082282999986,
                    "velocity": 0.25196850393700787,
                    "duration": 0.18027766666665457
                },
                {
                    "name": "F#3",
                    "midi": 54,
                    "time": 352.26256066665263,
                    "velocity": 0.2047244094488189,
                    "duration": 0.18027766666665457
                },
                {
                    "name": "A#3",
                    "midi": 58,
                    "time": 352.4428383333193,
                    "velocity": 0.2047244094488189,
                    "duration": 0.18027766666665457
                },
                {
                    "name": "F4",
                    "midi": 65,
                    "time": 352.62311599998594,
                    "velocity": 0.31496062992125984,
                    "duration": 0.5408329999999637
                },
                {
                    "name": "B3",
                    "midi": 59,
                    "time": 352.8033936666526,
                    "velocity": 0.18110236220472442,
                    "duration": 0.18027766666665457
                },
                {
                    "name": "C#4",
                    "midi": 61,
                    "time": 352.98367133331925,
                    "velocity": 0.18110236220472442,
                    "duration": 0.18027766666665457
                },
                {
                    "name": "B4",
                    "midi": 71,
                    "time": 353.1639489999859,
                    "velocity": 0.2992125984251969,
                    "duration": 0.5408329999999637
                },
                {
                    "name": "B3",
                    "midi": 59,
                    "time": 353.34422666665256,
                    "velocity": 0.1968503937007874,
                    "duration": 0.18027766666665457
                },
                {
                    "name": "C#4",
                    "midi": 61,
                    "time": 353.5245043333192,
                    "velocity": 0.1968503937007874,
                    "duration": 0.18027766666665457
                },
                {
                    "name": "G#4",
                    "midi": 68,
                    "time": 353.70478199998587,
                    "velocity": 0.30708661417322836,
                    "duration": 0.5408329999999637
                },
                {
                    "name": "B3",
                    "midi": 59,
                    "time": 353.8850596666525,
                    "velocity": 0.1732283464566929,
                    "duration": 0.18027766666665457
                },
                {
                    "name": "C#4",
                    "midi": 61,
                    "time": 354.0653373333192,
                    "velocity": 0.2047244094488189,
                    "duration": 0.18027766666665457
                },
                {
                    "name": "F4",
                    "midi": 65,
                    "time": 354.24561499998583,
                    "velocity": 0.2755905511811024,
                    "duration": 0.5408329999999637
                },
                {
                    "name": "B3",
                    "midi": 59,
                    "time": 354.4258926666525,
                    "velocity": 0.15748031496062992,
                    "duration": 0.18027766666665457
                },
                {
                    "name": "C#4",
                    "midi": 61,
                    "time": 354.60617033331914,
                    "velocity": 0.15748031496062992,
                    "duration": 0.18027766666665457
                },
                {
                    "name": "F#4",
                    "midi": 66,
                    "time": 354.7864479999858,
                    "velocity": 0.33070866141732286,
                    "duration": 2.163331999999855
                },
                {
                    "name": "F#3",
                    "midi": 54,
                    "time": 354.96672566665245,
                    "velocity": 0.1968503937007874,
                    "duration": 0.18027766666665457
                },
                {
                    "name": "A#3",
                    "midi": 58,
                    "time": 355.1470033333191,
                    "velocity": 0.2047244094488189,
                    "duration": 0.18027766666665457
                },
                {
                    "name": "C#4",
                    "midi": 61,
                    "time": 355.32728099998576,
                    "velocity": 0.25196850393700787,
                    "duration": 0.18027766666665457
                },
                {
                    "name": "F#3",
                    "midi": 54,
                    "time": 355.5075586666524,
                    "velocity": 0.2047244094488189,
                    "duration": 0.18027766666665457
                },
                {
                    "name": "A#3",
                    "midi": 58,
                    "time": 355.68783633331907,
                    "velocity": 0.2047244094488189,
                    "duration": 0.18027766666665457
                },
                {
                    "name": "D#4",
                    "midi": 63,
                    "time": 355.8681139999857,
                    "velocity": 0.2992125984251969,
                    "duration": 0.18027766666665457
                },
                {
                    "name": "F#3",
                    "midi": 54,
                    "time": 356.0483916666524,
                    "velocity": 0.1968503937007874,
                    "duration": 0.18027766666665457
                },
                {
                    "name": "B3",
                    "midi": 59,
                    "time": 356.22866933331903,
                    "velocity": 0.1968503937007874,
                    "duration": 0.18027766666665457
                },
                {
                    "name": "C#4",
                    "midi": 61,
                    "time": 356.4089469999857,
                    "velocity": 0.25196850393700787,
                    "duration": 0.18027766666665457
                },
                {
                    "name": "F#3",
                    "midi": 54,
                    "time": 356.58922466665234,
                    "velocity": 0.2047244094488189,
                    "duration": 0.18027766666665457
                },
                {
                    "name": "A#3",
                    "midi": 58,
                    "time": 356.769502333319,
                    "velocity": 0.2047244094488189,
                    "duration": 0.18027766666665457
                },
                {
                    "name": "F4",
                    "midi": 65,
                    "time": 356.94977999998565,
                    "velocity": 0.28346456692913385,
                    "duration": 0.5408329999999637
                },
                {
                    "name": "B3",
                    "midi": 59,
                    "time": 357.1300576666523,
                    "velocity": 0.18110236220472442,
                    "duration": 0.18027766666665457
                },
                {
                    "name": "C#4",
                    "midi": 61,
                    "time": 357.31033533331896,
                    "velocity": 0.18110236220472442,
                    "duration": 0.18027766666665457
                },
                {
                    "name": "D#5",
                    "midi": 75,
                    "time": 357.4906129999856,
                    "velocity": 0.31496062992125984,
                    "duration": 0.5408329999999637
                },
                {
                    "name": "F4",
                    "midi": 65,
                    "time": 357.67089066665227,
                    "velocity": 0.1732283464566929,
                    "duration": 0.18027766666665457
                },
                {
                    "name": "G#4",
                    "midi": 68,
                    "time": 357.8511683333189,
                    "velocity": 0.1732283464566929,
                    "duration": 0.18027766666665457
                },
                {
                    "name": "B4",
                    "midi": 71,
                    "time": 358.0314459999856,
                    "velocity": 0.29133858267716534,
                    "duration": 0.5408329999999637
                },
                {
                    "name": "C#4",
                    "midi": 61,
                    "time": 358.21172366665223,
                    "velocity": 0.1732283464566929,
                    "duration": 0.18027766666665457
                },
                {
                    "name": "F4",
                    "midi": 65,
                    "time": 358.3920013333189,
                    "velocity": 0.1732283464566929,
                    "duration": 0.18027766666665457
                },
                {
                    "name": "G#4",
                    "midi": 68,
                    "time": 358.57227899998554,
                    "velocity": 0.2440944881889764,
                    "duration": 0.5408329999999637
                },
                {
                    "name": "C#4",
                    "midi": 61,
                    "time": 358.7525566666522,
                    "velocity": 0.15748031496062992,
                    "duration": 0.18027766666665457
                },
                {
                    "name": "F4",
                    "midi": 65,
                    "time": 358.93283433331885,
                    "velocity": 0.15748031496062992,
                    "duration": 0.18027766666665457
                },
                {
                    "name": "F#4",
                    "midi": 66,
                    "time": 359.1131119999855,
                    "velocity": 0.28346456692913385,
                    "duration": 2.163331999999855
                },
                {
                    "name": "F#3",
                    "midi": 54,
                    "time": 359.29338966665216,
                    "velocity": 0.2047244094488189,
                    "duration": 0.18027766666665457
                },
                {
                    "name": "A#3",
                    "midi": 58,
                    "time": 359.4736673333188,
                    "velocity": 0.2047244094488189,
                    "duration": 0.18027766666665457
                },
                {
                    "name": "C#4",
                    "midi": 61,
                    "time": 359.65394499998547,
                    "velocity": 0.2204724409448819,
                    "duration": 0.18027766666665457
                },
                {
                    "name": "A#3",
                    "midi": 58,
                    "time": 359.8342226666521,
                    "velocity": 0.1968503937007874,
                    "duration": 0.18027766666665457
                },
                {
                    "name": "F#3",
                    "midi": 54,
                    "time": 360.0145003333188,
                    "velocity": 0.1968503937007874,
                    "duration": 0.18027766666665457
                },
                {
                    "name": "A#3",
                    "midi": 58,
                    "time": 360.19477799998543,
                    "velocity": 0.25196850393700787,
                    "duration": 0.18027766666665457
                },
                {
                    "name": "F#3",
                    "midi": 54,
                    "time": 360.3750556666521,
                    "velocity": 0.1889763779527559,
                    "duration": 0.18027766666665457
                },
                {
                    "name": "A#3",
                    "midi": 58,
                    "time": 360.55533333331874,
                    "velocity": 0.1889763779527559,
                    "duration": 0.18027766666665457
                },
                {
                    "name": "C#4",
                    "midi": 61,
                    "time": 360.7356109999854,
                    "velocity": 0.2283464566929134,
                    "duration": 0.18027766666665457
                },
                {
                    "name": "A#3",
                    "midi": 58,
                    "time": 360.91588866665205,
                    "velocity": 0.1889763779527559,
                    "duration": 0.18027766666665457
                },
                {
                    "name": "F#3",
                    "midi": 54,
                    "time": 361.0961663333187,
                    "velocity": 0.1889763779527559,
                    "duration": 0.18027766666665457
                },
                {
                    "name": "A#3",
                    "midi": 58,
                    "time": 361.27644399998536,
                    "velocity": 0.25196850393700787,
                    "duration": 0.18027766666665457
                },
                {
                    "name": "F#4",
                    "midi": 66,
                    "time": 361.27644399998536,
                    "velocity": 0.28346456692913385,
                    "duration": 1.0816659999999274
                },
                {
                    "name": "F#3",
                    "midi": 54,
                    "time": 361.456721666652,
                    "velocity": 0.2047244094488189,
                    "duration": 0.18027766666665457
                },
                {
                    "name": "A#3",
                    "midi": 58,
                    "time": 361.63699933331867,
                    "velocity": 0.2047244094488189,
                    "duration": 0.18027766666665457
                },
                {
                    "name": "C#4",
                    "midi": 61,
                    "time": 361.8172769999853,
                    "velocity": 0.2204724409448819,
                    "duration": 0.18027766666665457
                },
                {
                    "name": "A#3",
                    "midi": 58,
                    "time": 361.997554666652,
                    "velocity": 0.1968503937007874,
                    "duration": 0.18027766666665457
                },
                {
                    "name": "F#3",
                    "midi": 54,
                    "time": 362.17783233331863,
                    "velocity": 0.1968503937007874,
                    "duration": 0.18027766666665457
                },
                {
                    "name": "F#4",
                    "midi": 66,
                    "time": 362.3581099999853,
                    "velocity": 0.28346456692913385,
                    "duration": 1.0816659999999274
                },
                {
                    "name": "A#3",
                    "midi": 58,
                    "time": 362.3581099999853,
                    "velocity": 0.25196850393700787,
                    "duration": 0.18027766666665457
                },
                {
                    "name": "F#3",
                    "midi": 54,
                    "time": 362.53838766665194,
                    "velocity": 0.1889763779527559,
                    "duration": 0.18027766666665457
                },
                {
                    "name": "A#3",
                    "midi": 58,
                    "time": 362.7186653333186,
                    "velocity": 0.1889763779527559,
                    "duration": 0.18027766666665457
                },
                {
                    "name": "C#4",
                    "midi": 61,
                    "time": 362.89894299998525,
                    "velocity": 0.2283464566929134,
                    "duration": 0.18027766666665457
                },
                {
                    "name": "A#3",
                    "midi": 58,
                    "time": 363.0792206666519,
                    "velocity": 0.1889763779527559,
                    "duration": 0.18027766666665457
                },
                {
                    "name": "F#3",
                    "midi": 54,
                    "time": 363.25949833331856,
                    "velocity": 0.1889763779527559,
                    "duration": 0.18027766666665457
                },
                {
                    "name": "F#3",
                    "midi": 54,
                    "time": 363.4397759999852,
                    "velocity": 0.1968503937007874,
                    "duration": 2.1633320000000253
                },
                {
                    "name": "A#3",
                    "midi": 58,
                    "time": 363.4397759999852,
                    "velocity": 0.1968503937007874,
                    "duration": 2.1633320000000253
                },
                {
                    "name": "F#4",
                    "midi": 66,
                    "time": 363.4397759999852,
                    "velocity": 0.28346456692913385,
                    "duration": 2.1633320000000253
                },
                {
                    "name": "F#3",
                    "midi": 54,
                    "time": 365.60310799998524,
                    "velocity": 0.1732283464566929,
                    "duration": 1.0816659999999843
                },
                {
                    "name": "A#3",
                    "midi": 58,
                    "time": 365.60310799998524,
                    "velocity": 0.1732283464566929,
                    "duration": 1.0816659999999843
                },
                {
                    "name": "F#4",
                    "midi": 66,
                    "time": 365.60310799998524,
                    "velocity": 0.25196850393700787,
                    "duration": 1.0816659999999843
                },
                {
                    "name": "F#3",
                    "midi": 54,
                    "time": 366.6847739999852,
                    "velocity": 0.15748031496062992,
                    "duration": 1.0816659999999843
                },
                {
                    "name": "A#3",
                    "midi": 58,
                    "time": 366.6847739999852,
                    "velocity": 0.15748031496062992,
                    "duration": 1.0816659999999843
                },
                {
                    "name": "F#4",
                    "midi": 66,
                    "time": 366.6847739999852,
                    "velocity": 0.23622047244094488,
                    "duration": 1.0816659999999843
                },
                {
                    "name": "F#3",
                    "midi": 54,
                    "time": 367.7664399999852,
                    "velocity": 0.14960629921259844,
                    "duration": 4.326663999999994
                },
                {
                    "name": "A#3",
                    "midi": 58,
                    "time": 367.7664399999852,
                    "velocity": 0.14960629921259844,
                    "duration": 4.326663999999994
                },
                {
                    "name": "F#4",
                    "midi": 66,
                    "time": 367.7664399999852,
                    "velocity": 0.2204724409448819,
                    "duration": 4.326663999999994
                }
            ],
            "controlChanges": {
                "7": [
                    {
                        "number": 7,
                        "time": 0,
                        "value": 0.7874015748031497
                    }
                ],
                "10": [
                    {
                        "number": 10,
                        "time": 0,
                        "value": 0.5039370078740157
                    }
                ]
            },
            "id": 1,
            "name": "Piano right",
            "instrumentNumber": 0,
            "instrument": "acoustic grand piano",
            "instrumentFamily": "piano",
            "channelNumber": 0,
            "isPercussion": false
        },
        {
            "startTime": 0,
            "duration": 372.09310400000106,
            "length": 551,
            "notes": [
                {
                    "name": "F#2",
                    "midi": 42,
                    "time": 0,
                    "velocity": 0.2283464566929134,
                    "duration": 2.163332
                },
                {
                    "name": "C#3",
                    "midi": 49,
                    "time": 0,
                    "velocity": 0.2755905511811024,
                    "duration": 2.163332
                },
                {
                    "name": "C#3",
                    "midi": 49,
                    "time": 2.163332,
                    "velocity": 0.2755905511811024,
                    "duration": 1.0816659999999998
                },
                {
                    "name": "F#2",
                    "midi": 42,
                    "time": 2.163332,
                    "velocity": 0.2283464566929134,
                    "duration": 1.0816659999999998
                },
                {
                    "name": "F#2",
                    "midi": 42,
                    "time": 3.244998,
                    "velocity": 0.2283464566929134,
                    "duration": 1.0816660000000002
                },
                {
                    "name": "C#3",
                    "midi": 49,
                    "time": 3.244998,
                    "velocity": 0.2755905511811024,
                    "duration": 1.0816660000000002
                },
                {
                    "name": "D#3",
                    "midi": 51,
                    "time": 4.326664,
                    "velocity": 0.2755905511811024,
                    "duration": 4.326664
                },
                {
                    "name": "D#2",
                    "midi": 39,
                    "time": 4.326664,
                    "velocity": 0.2283464566929134,
                    "duration": 4.326664
                },
                {
                    "name": "B1",
                    "midi": 35,
                    "time": 8.653328,
                    "velocity": 0.2283464566929134,
                    "duration": 2.1633320000000005
                },
                {
                    "name": "B2",
                    "midi": 47,
                    "time": 8.653328,
                    "velocity": 0.2755905511811024,
                    "duration": 2.1633320000000005
                },
                {
                    "name": "C#2",
                    "midi": 37,
                    "time": 10.81666,
                    "velocity": 0.2283464566929134,
                    "duration": 1.6224989999999995
                },
                {
                    "name": "C#3",
                    "midi": 49,
                    "time": 10.81666,
                    "velocity": 0.2755905511811024,
                    "duration": 1.6224989999999995
                },
                {
                    "name": "B2",
                    "midi": 47,
                    "time": 12.439159,
                    "velocity": 0.15748031496062992,
                    "duration": 0.5408329999999992
                },
                {
                    "name": "C#3",
                    "midi": 49,
                    "time": 12.439159,
                    "velocity": 0.2047244094488189,
                    "duration": 0.5408329999999992
                },
                {
                    "name": "A#2",
                    "midi": 46,
                    "time": 12.979992,
                    "velocity": 0.2283464566929134,
                    "duration": 1.0816660000000002
                },
                {
                    "name": "C#3",
                    "midi": 49,
                    "time": 12.979992,
                    "velocity": 0.2755905511811024,
                    "duration": 1.0816660000000002
                },
                {
                    "name": "D#3",
                    "midi": 51,
                    "time": 14.061658,
                    "velocity": 0.2755905511811024,
                    "duration": 0.9464577500000004
                },
                {
                    "name": "F#2",
                    "midi": 42,
                    "time": 14.061658,
                    "velocity": 0.2283464566929134,
                    "duration": 0.9464577500000004
                },
                {
                    "name": "C#2",
                    "midi": 37,
                    "time": 15.00811575,
                    "velocity": 0.2283464566929134,
                    "duration": 2.2985402500000003
                },
                {
                    "name": "F3",
                    "midi": 53,
                    "time": 15.143324,
                    "velocity": 0.2755905511811024,
                    "duration": 2.1633320000000005
                },
                {
                    "name": "C#3",
                    "midi": 49,
                    "time": 17.306656,
                    "velocity": 0.2755905511811024,
                    "duration": 2.1633320000000005
                },
                {
                    "name": "F#2",
                    "midi": 42,
                    "time": 17.306656,
                    "velocity": 0.2283464566929134,
                    "duration": 2.1633320000000005
                },
                {
                    "name": "C#3",
                    "midi": 49,
                    "time": 19.469988,
                    "velocity": 0.2755905511811024,
                    "duration": 1.0816659999999985
                },
                {
                    "name": "F#2",
                    "midi": 42,
                    "time": 19.469988,
                    "velocity": 0.2283464566929134,
                    "duration": 1.0816659999999985
                },
                {
                    "name": "C#3",
                    "midi": 49,
                    "time": 20.551654,
                    "velocity": 0.2755905511811024,
                    "duration": 1.0816659999999985
                },
                {
                    "name": "F#2",
                    "midi": 42,
                    "time": 20.551654,
                    "velocity": 0.2283464566929134,
                    "duration": 1.0816659999999985
                },
                {
                    "name": "D#3",
                    "midi": 51,
                    "time": 21.633319999999998,
                    "velocity": 0.2755905511811024,
                    "duration": 2.1633320000000005
                },
                {
                    "name": "D#2",
                    "midi": 39,
                    "time": 21.633319999999998,
                    "velocity": 0.2283464566929134,
                    "duration": 2.1633320000000005
                },
                {
                    "name": "D#2",
                    "midi": 39,
                    "time": 23.796651999999998,
                    "velocity": 0.2283464566929134,
                    "duration": 1.0816659999999985
                },
                {
                    "name": "D#3",
                    "midi": 51,
                    "time": 23.796651999999998,
                    "velocity": 0.2755905511811024,
                    "duration": 1.0816659999999985
                },
                {
                    "name": "A#2",
                    "midi": 46,
                    "time": 24.878317999999997,
                    "velocity": 0.2755905511811024,
                    "duration": 1.0816659999999985
                },
                {
                    "name": "A#1",
                    "midi": 34,
                    "time": 24.878317999999997,
                    "velocity": 0.2283464566929134,
                    "duration": 1.0816659999999985
                },
                {
                    "name": "B1",
                    "midi": 35,
                    "time": 25.959983999999995,
                    "velocity": 0.2283464566929134,
                    "duration": 1.0816659999999985
                },
                {
                    "name": "B2",
                    "midi": 47,
                    "time": 25.959983999999995,
                    "velocity": 0.2755905511811024,
                    "duration": 1.0816659999999985
                },
                {
                    "name": "G#2",
                    "midi": 44,
                    "time": 27.041649999999994,
                    "velocity": 0.2755905511811024,
                    "duration": 1.0816659999999985
                },
                {
                    "name": "G#1",
                    "midi": 32,
                    "time": 27.041649999999994,
                    "velocity": 0.2283464566929134,
                    "duration": 1.0816659999999985
                },
                {
                    "name": "C#2",
                    "midi": 37,
                    "time": 28.123315999999992,
                    "velocity": 0.2283464566929134,
                    "duration": 2.1633320000000005
                },
                {
                    "name": "C#3",
                    "midi": 49,
                    "time": 28.123315999999992,
                    "velocity": 0.2755905511811024,
                    "duration": 2.1633320000000005
                },
                {
                    "name": "F#2",
                    "midi": 42,
                    "time": 30.286647999999992,
                    "velocity": 0.2283464566929134,
                    "duration": 4.326664000000001
                },
                {
                    "name": "C#3",
                    "midi": 49,
                    "time": 30.286647999999992,
                    "velocity": 0.2755905511811024,
                    "duration": 4.326664000000001
                },
                {
                    "name": "F3",
                    "midi": 53,
                    "time": 34.61331199999999,
                    "velocity": 0.2755905511811024,
                    "duration": 2.163331999999997
                },
                {
                    "name": "C#3",
                    "midi": 49,
                    "time": 34.61331199999999,
                    "velocity": 0.2283464566929134,
                    "duration": 2.163331999999997
                },
                {
                    "name": "D#3",
                    "midi": 51,
                    "time": 36.77664399999999,
                    "velocity": 0.2677165354330709,
                    "duration": 2.163331999999997
                },
                {
                    "name": "G3",
                    "midi": 55,
                    "time": 36.77664399999999,
                    "velocity": 0.31496062992125984,
                    "duration": 2.163331999999997
                },
                {
                    "name": "A#2",
                    "midi": 46,
                    "time": 36.77664399999999,
                    "velocity": 0.2677165354330709,
                    "duration": 2.163331999999997
                },
                {
                    "name": "G#3",
                    "midi": 56,
                    "time": 38.93997599999999,
                    "velocity": 0.3937007874015748,
                    "duration": 2.163331999999997
                },
                {
                    "name": "G#2",
                    "midi": 44,
                    "time": 38.93997599999999,
                    "velocity": 0.3228346456692913,
                    "duration": 2.163331999999997
                },
                {
                    "name": "D#3",
                    "midi": 51,
                    "time": 38.93997599999999,
                    "velocity": 0.3228346456692913,
                    "duration": 2.163331999999997
                },
                {
                    "name": "G#3",
                    "midi": 56,
                    "time": 41.103307999999984,
                    "velocity": 0.2755905511811024,
                    "duration": 2.163331999999997
                },
                {
                    "name": "D#3",
                    "midi": 51,
                    "time": 41.103307999999984,
                    "velocity": 0.2283464566929134,
                    "duration": 2.163331999999997
                },
                {
                    "name": "G#2",
                    "midi": 44,
                    "time": 41.103307999999984,
                    "velocity": 0.2283464566929134,
                    "duration": 2.163331999999997
                },
                {
                    "name": "E3",
                    "midi": 52,
                    "time": 43.26663999999998,
                    "velocity": 0.25984251968503935,
                    "duration": 2.163331999999997
                },
                {
                    "name": "G#3",
                    "midi": 56,
                    "time": 43.26663999999998,
                    "velocity": 0.31496062992125984,
                    "duration": 2.163331999999997
                },
                {
                    "name": "F#3",
                    "midi": 54,
                    "time": 45.42997199999998,
                    "velocity": 0.36220472440944884,
                    "duration": 1.0816659999999985
                },
                {
                    "name": "D#3",
                    "midi": 51,
                    "time": 45.42997199999998,
                    "velocity": 0.30708661417322836,
                    "duration": 1.0816659999999985
                },
                {
                    "name": "A#3",
                    "midi": 58,
                    "time": 46.51163799999998,
                    "velocity": 0.36220472440944884,
                    "duration": 1.0816659999999985
                },
                {
                    "name": "C#3",
                    "midi": 49,
                    "time": 46.51163799999998,
                    "velocity": 0.30708661417322836,
                    "duration": 1.0816659999999985
                },
                {
                    "name": "F#3",
                    "midi": 54,
                    "time": 46.51163799999998,
                    "velocity": 0.30708661417322836,
                    "duration": 1.0816659999999985
                },
                {
                    "name": "B2",
                    "midi": 47,
                    "time": 47.593303999999975,
                    "velocity": 0.3700787401574803,
                    "duration": 2.163331999999997
                },
                {
                    "name": "F#3",
                    "midi": 54,
                    "time": 47.593303999999975,
                    "velocity": 0.3700787401574803,
                    "duration": 2.163331999999997
                },
                {
                    "name": "B3",
                    "midi": 59,
                    "time": 47.593303999999975,
                    "velocity": 0.44881889763779526,
                    "duration": 2.163331999999997
                },
                {
                    "name": "B2",
                    "midi": 47,
                    "time": 49.75663599999997,
                    "velocity": 0.25984251968503935,
                    "duration": 2.163331999999997
                },
                {
                    "name": "F#3",
                    "midi": 54,
                    "time": 49.75663599999997,
                    "velocity": 0.25984251968503935,
                    "duration": 2.163331999999997
                },
                {
                    "name": "B3",
                    "midi": 59,
                    "time": 49.75663599999997,
                    "velocity": 0.31496062992125984,
                    "duration": 2.163331999999997
                },
                {
                    "name": "B2",
                    "midi": 47,
                    "time": 51.91996799999997,
                    "velocity": 0.2283464566929134,
                    "duration": 2.163331999999997
                },
                {
                    "name": "F#3",
                    "midi": 54,
                    "time": 51.91996799999997,
                    "velocity": 0.2755905511811024,
                    "duration": 2.163331999999997
                },
                {
                    "name": "G#3",
                    "midi": 56,
                    "time": 54.083299999999966,
                    "velocity": 0.2755905511811024,
                    "duration": 1.0816659999999985
                },
                {
                    "name": "B2",
                    "midi": 47,
                    "time": 54.083299999999966,
                    "velocity": 0.2283464566929134,
                    "duration": 2.163331999999997
                },
                {
                    "name": "F3",
                    "midi": 53,
                    "time": 55.164965999999964,
                    "velocity": 0.2755905511811024,
                    "duration": 1.0816659999999985
                },
                {
                    "name": "A#2",
                    "midi": 46,
                    "time": 56.24663199999996,
                    "velocity": 0.2283464566929134,
                    "duration": 2.163331999999997
                },
                {
                    "name": "F#3",
                    "midi": 54,
                    "time": 56.24663199999996,
                    "velocity": 0.2755905511811024,
                    "duration": 2.163331999999997
                },
                {
                    "name": "B2",
                    "midi": 47,
                    "time": 58.40996399999996,
                    "velocity": 0.2283464566929134,
                    "duration": 2.163331999999997
                },
                {
                    "name": "F#3",
                    "midi": 54,
                    "time": 58.40996399999996,
                    "velocity": 0.2755905511811024,
                    "duration": 1.0816659999999985
                },
                {
                    "name": "G#3",
                    "midi": 56,
                    "time": 59.49162999999996,
                    "velocity": 0.2755905511811024,
                    "duration": 0.8991348624999986
                },
                {
                    "name": "C#3",
                    "midi": 49,
                    "time": 60.57329599999996,
                    "velocity": 0.2755905511811024,
                    "duration": 2.163331999999997
                },
                {
                    "name": "C#2",
                    "midi": 37,
                    "time": 62.601419749999955,
                    "velocity": 0.2755905511811024,
                    "duration": 0.13520824999999803
                },
                {
                    "name": "C#3",
                    "midi": 49,
                    "time": 62.73662799999995,
                    "velocity": 0.2755905511811024,
                    "duration": 2.163332000000011
                },
                {
                    "name": "F#3",
                    "midi": 54,
                    "time": 63.81829399999995,
                    "velocity": 0.2755905511811024,
                    "duration": 0.5408330000000063
                },
                {
                    "name": "F3",
                    "midi": 53,
                    "time": 64.35912699999996,
                    "velocity": 0.2755905511811024,
                    "duration": 0.5408330000000063
                },
                {
                    "name": "F#2",
                    "midi": 42,
                    "time": 64.89995999999996,
                    "velocity": 0.23622047244094488,
                    "duration": 2.163331999999997
                },
                {
                    "name": "C#3",
                    "midi": 49,
                    "time": 64.89995999999996,
                    "velocity": 0.2755905511811024,
                    "duration": 2.163331999999997
                },
                {
                    "name": "C#3",
                    "midi": 49,
                    "time": 67.06329199999996,
                    "velocity": 0.2755905511811024,
                    "duration": 1.0816659999999985
                },
                {
                    "name": "A#2",
                    "midi": 46,
                    "time": 67.06329199999996,
                    "velocity": 0.23622047244094488,
                    "duration": 1.0816659999999985
                },
                {
                    "name": "A#2",
                    "midi": 46,
                    "time": 68.14495799999996,
                    "velocity": 0.23622047244094488,
                    "duration": 1.0816659999999985
                },
                {
                    "name": "C#3",
                    "midi": 49,
                    "time": 68.14495799999996,
                    "velocity": 0.2755905511811024,
                    "duration": 1.0816659999999985
                },
                {
                    "name": "C#3",
                    "midi": 49,
                    "time": 69.22662399999996,
                    "velocity": 0.2283464566929134,
                    "duration": 2.163331999999997
                },
                {
                    "name": "F3",
                    "midi": 53,
                    "time": 69.22662399999996,
                    "velocity": 0.2755905511811024,
                    "duration": 2.163331999999997
                },
                {
                    "name": "A#2",
                    "midi": 46,
                    "time": 71.38995599999996,
                    "velocity": 0.2677165354330709,
                    "duration": 2.163331999999997
                },
                {
                    "name": "G3",
                    "midi": 55,
                    "time": 71.38995599999996,
                    "velocity": 0.31496062992125984,
                    "duration": 2.163331999999997
                },
                {
                    "name": "E3",
                    "midi": 52,
                    "time": 71.38995599999996,
                    "velocity": 0.2677165354330709,
                    "duration": 1.0816659999999985
                },
                {
                    "name": "D#3",
                    "midi": 51,
                    "time": 72.47838241249995,
                    "velocity": 0.4330708661417323,
                    "duration": 1.0816659999999985
                },
                {
                    "name": "G#2",
                    "midi": 44,
                    "time": 73.55328799999995,
                    "velocity": 0.3228346456692913,
                    "duration": 2.163332000000011
                },
                {
                    "name": "D#3",
                    "midi": 51,
                    "time": 73.55328799999995,
                    "velocity": 0.3228346456692913,
                    "duration": 2.163332000000011
                },
                {
                    "name": "G3",
                    "midi": 55,
                    "time": 73.55328799999995,
                    "velocity": 0.3937007874015748,
                    "duration": 1.6224990000000048
                },
                {
                    "name": "G#3",
                    "midi": 56,
                    "time": 75.17578699999996,
                    "velocity": 0.3464566929133858,
                    "duration": 0.5408330000000063
                },
                {
                    "name": "D#3",
                    "midi": 51,
                    "time": 75.71661999999996,
                    "velocity": 0.2283464566929134,
                    "duration": 2.163331999999997
                },
                {
                    "name": "G#3",
                    "midi": 56,
                    "time": 75.71661999999996,
                    "velocity": 0.2755905511811024,
                    "duration": 2.163331999999997
                },
                {
                    "name": "G#2",
                    "midi": 44,
                    "time": 75.71661999999996,
                    "velocity": 0.2283464566929134,
                    "duration": 1.8929155000000009
                },
                {
                    "name": "F#2",
                    "midi": 42,
                    "time": 77.60953549999996,
                    "velocity": 0.47244094488188976,
                    "duration": 0.27041649999999606
                },
                {
                    "name": "E2",
                    "midi": 40,
                    "time": 77.87995199999996,
                    "velocity": 0.5354330708661418,
                    "duration": 2.163331999999997
                },
                {
                    "name": "D#2",
                    "midi": 39,
                    "time": 80.04328399999996,
                    "velocity": 0.4330708661417323,
                    "duration": 1.0816659999999985
                },
                {
                    "name": "C#2",
                    "midi": 37,
                    "time": 81.12494999999996,
                    "velocity": 0.4409448818897638,
                    "duration": 0.10816660000000411
                },
                {
                    "name": "D#2",
                    "midi": 39,
                    "time": 81.23311659999996,
                    "velocity": 0.2992125984251969,
                    "duration": 0.10816660000000411
                },
                {
                    "name": "C#2",
                    "midi": 37,
                    "time": 81.34128319999996,
                    "velocity": 0.3543307086614173,
                    "duration": 0.10816660000000411
                },
                {
                    "name": "D#2",
                    "midi": 39,
                    "time": 81.44944979999997,
                    "velocity": 0.30708661417322836,
                    "duration": 0.10816660000000411
                },
                {
                    "name": "C#2",
                    "midi": 37,
                    "time": 81.55761639999997,
                    "velocity": 0.33070866141732286,
                    "duration": 0.10816660000000411
                },
                {
                    "name": "D#2",
                    "midi": 39,
                    "time": 81.66578299999998,
                    "velocity": 0.3464566929133858,
                    "duration": 0.10816660000000411
                },
                {
                    "name": "C#2",
                    "midi": 37,
                    "time": 81.77394959999998,
                    "velocity": 0.4330708661417323,
                    "duration": 0.14422213333332934
                },
                {
                    "name": "B1",
                    "midi": 35,
                    "time": 81.91817173333331,
                    "velocity": 0.36220472440944884,
                    "duration": 0.14422213333332934
                },
                {
                    "name": "C#2",
                    "midi": 37,
                    "time": 82.06239386666664,
                    "velocity": 0.4409448818897638,
                    "duration": 0.14422213333332934
                },
                {
                    "name": "B1",
                    "midi": 35,
                    "time": 82.20661599999997,
                    "velocity": 0.5275590551181102,
                    "duration": 4.326663999999994
                },
                {
                    "name": "B2",
                    "midi": 47,
                    "time": 86.53327999999996,
                    "velocity": 0.2283464566929134,
                    "duration": 2.163331999999997
                },
                {
                    "name": "F#3",
                    "midi": 54,
                    "time": 86.53327999999996,
                    "velocity": 0.2755905511811024,
                    "duration": 2.163331999999997
                },
                {
                    "name": "B2",
                    "midi": 47,
                    "time": 88.69661199999996,
                    "velocity": 0.2283464566929134,
                    "duration": 2.163331999999997
                },
                {
                    "name": "G#3",
                    "midi": 56,
                    "time": 88.69661199999996,
                    "velocity": 0.2755905511811024,
                    "duration": 1.0816659999999985
                },
                {
                    "name": "F3",
                    "midi": 53,
                    "time": 89.77827799999996,
                    "velocity": 0.2755905511811024,
                    "duration": 1.0816659999999985
                },
                {
                    "name": "F#3",
                    "midi": 54,
                    "time": 90.85994399999996,
                    "velocity": 0.2755905511811024,
                    "duration": 2.163331999999997
                },
                {
                    "name": "A#2",
                    "midi": 46,
                    "time": 90.85994399999996,
                    "velocity": 0.2283464566929134,
                    "duration": 2.163331999999997
                },
                {
                    "name": "G3",
                    "midi": 55,
                    "time": 93.02327599999995,
                    "velocity": 0.2755905511811024,
                    "duration": 0.5408330000000063
                },
                {
                    "name": "B2",
                    "midi": 47,
                    "time": 93.02327599999995,
                    "velocity": 0.2283464566929134,
                    "duration": 1.622499000000019
                },
                {
                    "name": "G#3",
                    "midi": 56,
                    "time": 93.56410899999996,
                    "velocity": 0.2755905511811024,
                    "duration": 0.5408330000000063
                },
                {
                    "name": "D#3",
                    "midi": 51,
                    "time": 94.10494199999997,
                    "velocity": 0.2755905511811024,
                    "duration": 1.0816660000000127
                },
                {
                    "name": "C3",
                    "midi": 48,
                    "time": 94.64577499999997,
                    "velocity": 0.2283464566929134,
                    "duration": 0.5408330000000063
                },
                {
                    "name": "C#3",
                    "midi": 49,
                    "time": 95.18660799999998,
                    "velocity": 0.2755905511811024,
                    "duration": 2.163332000000011
                },
                {
                    "name": "C#2",
                    "midi": 37,
                    "time": 97.21473174999998,
                    "velocity": 0.2755905511811024,
                    "duration": 0.13520825000000514
                },
                {
                    "name": "C#3",
                    "midi": 49,
                    "time": 97.34993999999999,
                    "velocity": 0.2755905511811024,
                    "duration": 2.163332000000011
                },
                {
                    "name": "F#3",
                    "midi": 54,
                    "time": 98.43160599999999,
                    "velocity": 0.2755905511811024,
                    "duration": 0.5408330000000063
                },
                {
                    "name": "F3",
                    "midi": 53,
                    "time": 98.972439,
                    "velocity": 0.2755905511811024,
                    "duration": 0.5408330000000063
                },
                {
                    "name": "F#2",
                    "midi": 42,
                    "time": 99.513272,
                    "velocity": 0.23622047244094488,
                    "duration": 3.2449979999999954
                },
                {
                    "name": "C#3",
                    "midi": 49,
                    "time": 99.513272,
                    "velocity": 0.2755905511811024,
                    "duration": 3.2449979999999954
                },
                {
                    "name": "D3",
                    "midi": 50,
                    "time": 102.75827,
                    "velocity": 0.4330708661417323,
                    "duration": 1.0816659999999985
                },
                {
                    "name": "F2",
                    "midi": 41,
                    "time": 102.75827,
                    "velocity": 0.4330708661417323,
                    "duration": 1.0816659999999985
                },
                {
                    "name": "D#2",
                    "midi": 39,
                    "time": 103.839936,
                    "velocity": 0.4566929133858268,
                    "duration": 1.6224990000000048
                },
                {
                    "name": "D#3",
                    "midi": 51,
                    "time": 103.839936,
                    "velocity": 0.4566929133858268,
                    "duration": 1.6224990000000048
                },
                {
                    "name": "D#2",
                    "midi": 39,
                    "time": 105.462435,
                    "velocity": 0.44881889763779526,
                    "duration": 0.18027766666666878
                },
                {
                    "name": "F2",
                    "midi": 41,
                    "time": 105.64271266666667,
                    "velocity": 0.48031496062992124,
                    "duration": 0.18027766666666878
                },
                {
                    "name": "F#2",
                    "midi": 42,
                    "time": 105.82299033333334,
                    "velocity": 0.5118110236220472,
                    "duration": 0.18027766666666878
                },
                {
                    "name": "F#2",
                    "midi": 42,
                    "time": 106.003268,
                    "velocity": 0.5433070866141733,
                    "duration": 1.6224990000000048
                },
                {
                    "name": "F#2",
                    "midi": 42,
                    "time": 107.62576700000001,
                    "velocity": 0.47244094488188976,
                    "duration": 0.18027766666666878
                },
                {
                    "name": "G#2",
                    "midi": 44,
                    "time": 107.80604466666668,
                    "velocity": 0.49606299212598426,
                    "duration": 0.18027766666666878
                },
                {
                    "name": "A#2",
                    "midi": 46,
                    "time": 107.98632233333335,
                    "velocity": 0.5275590551181102,
                    "duration": 0.18027766666666878
                },
                {
                    "name": "A#2",
                    "midi": 46,
                    "time": 108.16660000000002,
                    "velocity": 0.6062992125984252,
                    "duration": 4.3266640000000365
                },
                {
                    "name": "B3",
                    "midi": 59,
                    "time": 108.70743300000002,
                    "velocity": 0.4409448818897638,
                    "duration": 0.5408330000000063
                },
                {
                    "name": "G#3",
                    "midi": 56,
                    "time": 109.24826600000003,
                    "velocity": 0.4251968503937008,
                    "duration": 0.5408330000000063
                },
                {
                    "name": "F3",
                    "midi": 53,
                    "time": 109.78909900000004,
                    "velocity": 0.3858267716535433,
                    "duration": 0.5408330000000063
                },
                {
                    "name": "D3",
                    "midi": 50,
                    "time": 110.32993200000004,
                    "velocity": 0.3858267716535433,
                    "duration": 1.8929155000000009
                },
                {
                    "name": "C3",
                    "midi": 48,
                    "time": 112.22284750000004,
                    "velocity": 0.2755905511811024,
                    "duration": 0.13520825000000514
                },
                {
                    "name": "D3",
                    "midi": 50,
                    "time": 112.35805575000005,
                    "velocity": 0.2755905511811024,
                    "duration": 0.13520825000000514
                },
                {
                    "name": "D#3",
                    "midi": 51,
                    "time": 112.49326400000005,
                    "velocity": 0.3464566929133858,
                    "duration": 1.0816659999999985
                },
                {
                    "name": "G#2",
                    "midi": 44,
                    "time": 113.57493000000005,
                    "velocity": 0.3464566929133858,
                    "duration": 1.0816659999999985
                },
                {
                    "name": "A#2",
                    "midi": 46,
                    "time": 114.65659600000005,
                    "velocity": 0.33070866141732286,
                    "duration": 1.6224990000000048
                },
                {
                    "name": "G#2",
                    "midi": 44,
                    "time": 116.27909500000005,
                    "velocity": 0.4645669291338583,
                    "duration": 0.18027766666666878
                },
                {
                    "name": "F#2",
                    "midi": 42,
                    "time": 116.45937266666672,
                    "velocity": 0.4881889763779528,
                    "duration": 0.18027766666666878
                },
                {
                    "name": "F2",
                    "midi": 41,
                    "time": 116.63965033333339,
                    "velocity": 0.5196850393700787,
                    "duration": 0.18027766666666878
                },
                {
                    "name": "D#2",
                    "midi": 39,
                    "time": 116.81992800000006,
                    "velocity": 0.5433070866141733,
                    "duration": 1.6224990000000048
                },
                {
                    "name": "D#3",
                    "midi": 51,
                    "time": 116.81992800000006,
                    "velocity": 0.5433070866141733,
                    "duration": 1.6224990000000048
                },
                {
                    "name": "D#2",
                    "midi": 39,
                    "time": 118.44242700000007,
                    "velocity": 0.48031496062992124,
                    "duration": 0.18027766666666878
                },
                {
                    "name": "F2",
                    "midi": 41,
                    "time": 118.62270466666673,
                    "velocity": 0.5039370078740157,
                    "duration": 0.18027766666666878
                },
                {
                    "name": "F#2",
                    "midi": 42,
                    "time": 118.8029823333334,
                    "velocity": 0.5275590551181102,
                    "duration": 0.18027766666666878
                },
                {
                    "name": "F#2",
                    "midi": 42,
                    "time": 118.98326000000007,
                    "velocity": 0.5511811023622047,
                    "duration": 1.6224990000000048
                },
                {
                    "name": "F#2",
                    "midi": 42,
                    "time": 120.60575900000008,
                    "velocity": 0.4566929133858268,
                    "duration": 0.18027766666666878
                },
                {
                    "name": "G#2",
                    "midi": 44,
                    "time": 120.78603666666675,
                    "velocity": 0.48031496062992124,
                    "duration": 0.18027766666666878
                },
                {
                    "name": "A#2",
                    "midi": 46,
                    "time": 120.96631433333341,
                    "velocity": 0.5039370078740157,
                    "duration": 0.18027766666666878
                },
                {
                    "name": "A#2",
                    "midi": 46,
                    "time": 121.14659200000008,
                    "velocity": 0.5826771653543307,
                    "duration": 4.326664000000008
                },
                {
                    "name": "B3",
                    "midi": 59,
                    "time": 121.68742500000009,
                    "velocity": 0.4409448818897638,
                    "duration": 0.5408330000000063
                },
                {
                    "name": "G#3",
                    "midi": 56,
                    "time": 122.2282580000001,
                    "velocity": 0.4251968503937008,
                    "duration": 0.5408330000000063
                },
                {
                    "name": "F3",
                    "midi": 53,
                    "time": 122.7690910000001,
                    "velocity": 0.3858267716535433,
                    "duration": 0.5408330000000063
                },
                {
                    "name": "D3",
                    "midi": 50,
                    "time": 123.30992400000011,
                    "velocity": 0.3858267716535433,
                    "duration": 1.0816659999999985
                },
                {
                    "name": "D3",
                    "midi": 50,
                    "time": 124.39159000000011,
                    "velocity": 0.2755905511811024,
                    "duration": 0.10816660000000411
                },
                {
                    "name": "D#3",
                    "midi": 51,
                    "time": 124.49975660000011,
                    "velocity": 0.23622047244094488,
                    "duration": 0.10816660000000411
                },
                {
                    "name": "D3",
                    "midi": 50,
                    "time": 124.60792320000012,
                    "velocity": 0.2755905511811024,
                    "duration": 0.09689924583332754
                },
                {
                    "name": "D#3",
                    "midi": 51,
                    "time": 124.70482244583344,
                    "velocity": 0.23622047244094488,
                    "duration": 0.09577251041666557
                },
                {
                    "name": "D3",
                    "midi": 50,
                    "time": 124.80059495625011,
                    "velocity": 0.2755905511811024,
                    "duration": 0.09689924583332754
                },
                {
                    "name": "D#3",
                    "midi": 51,
                    "time": 124.89749420208344,
                    "velocity": 0.23622047244094488,
                    "duration": 0.09577251041666557
                },
                {
                    "name": "D3",
                    "midi": 50,
                    "time": 124.9932667125001,
                    "velocity": 0.2755905511811024,
                    "duration": 0.09689924583332754
                },
                {
                    "name": "D#3",
                    "midi": 51,
                    "time": 125.08903922291677,
                    "velocity": 0.25196850393700787,
                    "duration": 0.09689924583332754
                },
                {
                    "name": "D3",
                    "midi": 50,
                    "time": 125.1859384687501,
                    "velocity": 0.2755905511811024,
                    "duration": 0.09577251041666557
                },
                {
                    "name": "C3",
                    "midi": 48,
                    "time": 125.28171097916676,
                    "velocity": 0.25196850393700787,
                    "duration": 0.09689924583332754
                },
                {
                    "name": "D3",
                    "midi": 50,
                    "time": 125.37748348958343,
                    "velocity": 0.2992125984251969,
                    "duration": 0.09577251041666557
                },
                {
                    "name": "D#3",
                    "midi": 51,
                    "time": 125.47325600000009,
                    "velocity": 0.3464566929133858,
                    "duration": 1.0816659999999985
                },
                {
                    "name": "G#2",
                    "midi": 44,
                    "time": 126.55492200000009,
                    "velocity": 0.3464566929133858,
                    "duration": 1.0816659999999985
                },
                {
                    "name": "A#2",
                    "midi": 46,
                    "time": 127.63658800000009,
                    "velocity": 0.33070866141732286,
                    "duration": 1.6224989999999906
                },
                {
                    "name": "D2",
                    "midi": 38,
                    "time": 129.25908700000008,
                    "velocity": 0.2755905511811024,
                    "duration": 0.5408329999999921
                },
                {
                    "name": "D3",
                    "midi": 50,
                    "time": 129.25908700000008,
                    "velocity": 0.31496062992125984,
                    "duration": 0.5408329999999921
                },
                {
                    "name": "D#2",
                    "midi": 39,
                    "time": 129.79992000000007,
                    "velocity": 0.2440944881889764,
                    "duration": 1.0816660000000127
                },
                {
                    "name": "D#3",
                    "midi": 51,
                    "time": 129.79992000000007,
                    "velocity": 0.29133858267716534,
                    "duration": 1.0816660000000127
                },
                {
                    "name": "G#1",
                    "midi": 32,
                    "time": 130.88158600000008,
                    "velocity": 0.2440944881889764,
                    "duration": 1.0816660000000127
                },
                {
                    "name": "G#2",
                    "midi": 44,
                    "time": 130.88158600000008,
                    "velocity": 0.29133858267716534,
                    "duration": 1.0816660000000127
                },
                {
                    "name": "F#2",
                    "midi": 42,
                    "time": 131.9632520000001,
                    "velocity": 0.2755905511811024,
                    "duration": 1.0816660000000127
                },
                {
                    "name": "F#1",
                    "midi": 30,
                    "time": 131.9632520000001,
                    "velocity": 0.2283464566929134,
                    "duration": 1.0816660000000127
                },
                {
                    "name": "E2",
                    "midi": 40,
                    "time": 133.0449180000001,
                    "velocity": 0.2755905511811024,
                    "duration": 1.0816660000000127
                },
                {
                    "name": "D#2",
                    "midi": 39,
                    "time": 134.12658400000012,
                    "velocity": 0.2755905511811024,
                    "duration": 2.163331999999997
                },
                {
                    "name": "C#2",
                    "midi": 37,
                    "time": 136.28991600000012,
                    "velocity": 0.25196850393700787,
                    "duration": 2.163331999999997
                },
                {
                    "name": "B1",
                    "midi": 35,
                    "time": 138.45324800000012,
                    "velocity": 0.29133858267716534,
                    "duration": 2.163331999999997
                },
                {
                    "name": "E2",
                    "midi": 40,
                    "time": 140.6165800000001,
                    "velocity": 0.25984251968503935,
                    "duration": 2.163331999999997
                },
                {
                    "name": "F#2",
                    "midi": 42,
                    "time": 142.7799120000001,
                    "velocity": 0.29133858267716534,
                    "duration": 2.163331999999997
                },
                {
                    "name": "C#3",
                    "midi": 49,
                    "time": 144.9432440000001,
                    "velocity": 0.25984251968503935,
                    "duration": 1.6224990000000048
                },
                {
                    "name": "F#2",
                    "midi": 42,
                    "time": 144.9432440000001,
                    "velocity": 0.25984251968503935,
                    "duration": 2.163331999999997
                },
                {
                    "name": "E3",
                    "midi": 52,
                    "time": 146.5657430000001,
                    "velocity": 0.25984251968503935,
                    "duration": 0.5408329999999921
                },
                {
                    "name": "B1",
                    "midi": 35,
                    "time": 147.1065760000001,
                    "velocity": 0.2283464566929134,
                    "duration": 2.163331999999997
                },
                {
                    "name": "G1",
                    "midi": 31,
                    "time": 149.2699080000001,
                    "velocity": 0.2283464566929134,
                    "duration": 1.6224990000000048
                },
                {
                    "name": "G1",
                    "midi": 31,
                    "time": 150.8924070000001,
                    "velocity": 0.2283464566929134,
                    "duration": 0.18027766666665457
                },
                {
                    "name": "A1",
                    "midi": 33,
                    "time": 151.07268466666676,
                    "velocity": 0.2283464566929134,
                    "duration": 0.18027766666665457
                },
                {
                    "name": "B1",
                    "midi": 35,
                    "time": 151.25296233333341,
                    "velocity": 0.2283464566929134,
                    "duration": 0.16901031250000642
                },
                {
                    "name": "B1",
                    "midi": 35,
                    "time": 151.4332400000001,
                    "velocity": 0.2283464566929134,
                    "duration": 1.6224990000000048
                },
                {
                    "name": "C#2",
                    "midi": 37,
                    "time": 153.0557390000001,
                    "velocity": 0.3858267716535433,
                    "duration": 0.13520825000000514
                },
                {
                    "name": "D#2",
                    "midi": 39,
                    "time": 153.1909472500001,
                    "velocity": 0.4015748031496063,
                    "duration": 0.13520825000000514
                },
                {
                    "name": "E2",
                    "midi": 40,
                    "time": 153.3261555000001,
                    "velocity": 0.4251968503937008,
                    "duration": 0.13520825000000514
                },
                {
                    "name": "F#2",
                    "midi": 42,
                    "time": 153.46136375000012,
                    "velocity": 0.4566929133858268,
                    "duration": 0.13520825000000514
                },
                {
                    "name": "G2",
                    "midi": 43,
                    "time": 153.59657200000012,
                    "velocity": 0.48031496062992124,
                    "duration": 1.0816660000000127
                },
                {
                    "name": "F#2",
                    "midi": 42,
                    "time": 154.67823800000014,
                    "velocity": 0.2992125984251969,
                    "duration": 1.0816660000000127
                },
                {
                    "name": "B1",
                    "midi": 35,
                    "time": 155.75990400000015,
                    "velocity": 0.2283464566929134,
                    "duration": 2.163331999999997
                },
                {
                    "name": "G#1",
                    "midi": 32,
                    "time": 157.92323600000014,
                    "velocity": 0.2283464566929134,
                    "duration": 1.6224990000000048
                },
                {
                    "name": "G#1",
                    "midi": 32,
                    "time": 159.54573500000015,
                    "velocity": 0.2283464566929134,
                    "duration": 0.18027766666665457
                },
                {
                    "name": "A#1",
                    "midi": 34,
                    "time": 159.7260126666668,
                    "velocity": 0.2283464566929134,
                    "duration": 0.18027766666665457
                },
                {
                    "name": "B1",
                    "midi": 35,
                    "time": 159.90629033333346,
                    "velocity": 0.2283464566929134,
                    "duration": 0.16901031250000642
                },
                {
                    "name": "B1",
                    "midi": 35,
                    "time": 160.08656800000014,
                    "velocity": 0.2283464566929134,
                    "duration": 1.6224990000000048
                },
                {
                    "name": "C#2",
                    "midi": 37,
                    "time": 161.70906700000015,
                    "velocity": 0.3937007874015748,
                    "duration": 0.13520825000000514
                },
                {
                    "name": "D#2",
                    "midi": 39,
                    "time": 161.84427525000015,
                    "velocity": 0.41732283464566927,
                    "duration": 0.13520825000000514
                },
                {
                    "name": "E2",
                    "midi": 40,
                    "time": 161.97948350000016,
                    "velocity": 0.44881889763779526,
                    "duration": 0.13520825000000514
                },
                {
                    "name": "F#2",
                    "midi": 42,
                    "time": 162.11469175000016,
                    "velocity": 0.48031496062992124,
                    "duration": 0.13520825000000514
                },
                {
                    "name": "G#2",
                    "midi": 44,
                    "time": 162.24990000000017,
                    "velocity": 0.5118110236220472,
                    "duration": 1.0816660000000127
                },
                {
                    "name": "F#2",
                    "midi": 42,
                    "time": 163.33156600000018,
                    "velocity": 0.2992125984251969,
                    "duration": 1.0816660000000127
                },
                {
                    "name": "B1",
                    "midi": 35,
                    "time": 164.4132320000002,
                    "velocity": 0.2283464566929134,
                    "duration": 4.326663999999994
                },
                {
                    "name": "G#2",
                    "midi": 44,
                    "time": 168.7398960000002,
                    "velocity": 0.5826771653543307,
                    "duration": 1.6224990000000048
                },
                {
                    "name": "G#2",
                    "midi": 44,
                    "time": 170.3623950000002,
                    "velocity": 0.4330708661417323,
                    "duration": 0.18027766666665457
                },
                {
                    "name": "A#2",
                    "midi": 46,
                    "time": 170.54267266666685,
                    "velocity": 0.4645669291338583,
                    "duration": 0.18027766666665457
                },
                {
                    "name": "B2",
                    "midi": 47,
                    "time": 170.7229503333335,
                    "velocity": 0.49606299212598426,
                    "duration": 0.16901031250000642
                },
                {
                    "name": "B2",
                    "midi": 47,
                    "time": 170.90322800000018,
                    "velocity": 0.5748031496062992,
                    "duration": 1.6224990000000048
                },
                {
                    "name": "B2",
                    "midi": 47,
                    "time": 172.5257270000002,
                    "velocity": 0.4409448818897638,
                    "duration": 0.18027766666665457
                },
                {
                    "name": "C#3",
                    "midi": 49,
                    "time": 172.70600466666684,
                    "velocity": 0.48031496062992124,
                    "duration": 0.18027766666665457
                },
                {
                    "name": "D3",
                    "midi": 50,
                    "time": 172.8862823333335,
                    "velocity": 0.5039370078740157,
                    "duration": 0.16901031250000642
                },
                {
                    "name": "D3",
                    "midi": 50,
                    "time": 173.06656000000018,
                    "velocity": 0.5748031496062992,
                    "duration": 1.6224990000000048
                },
                {
                    "name": "D3",
                    "midi": 50,
                    "time": 174.68905900000019,
                    "velocity": 0.4409448818897638,
                    "duration": 0.18027766666665457
                },
                {
                    "name": "D#3",
                    "midi": 51,
                    "time": 174.86933666666684,
                    "velocity": 0.48031496062992124,
                    "duration": 0.18027766666665457
                },
                {
                    "name": "F3",
                    "midi": 53,
                    "time": 175.0496143333335,
                    "velocity": 0.5039370078740157,
                    "duration": 0.16901031250000642
                },
                {
                    "name": "F3",
                    "midi": 53,
                    "time": 175.22989200000018,
                    "velocity": 0.5748031496062992,
                    "duration": 1.6224990000000048
                },
                {
                    "name": "F2",
                    "midi": 41,
                    "time": 176.85239100000018,
                    "velocity": 0.4409448818897638,
                    "duration": 0.5408329999999921
                },
                {
                    "name": "F#2",
                    "midi": 42,
                    "time": 177.39322400000017,
                    "velocity": 0.31496062992125984,
                    "duration": 1.0816660000000127
                },
                {
                    "name": "D2",
                    "midi": 38,
                    "time": 178.4748900000002,
                    "velocity": 0.31496062992125984,
                    "duration": 1.0816660000000127
                },
                {
                    "name": "D#2",
                    "midi": 39,
                    "time": 179.5565560000002,
                    "velocity": 0.3858267716535433,
                    "duration": 1.0816660000000127
                },
                {
                    "name": "G#1",
                    "midi": 32,
                    "time": 180.6382220000002,
                    "velocity": 0.31496062992125984,
                    "duration": 1.0816660000000127
                },
                {
                    "name": "A#1",
                    "midi": 34,
                    "time": 181.71988800000022,
                    "velocity": 0.2283464566929134,
                    "duration": 1.2619436666666672
                },
                {
                    "name": "A1",
                    "midi": 33,
                    "time": 182.9818316666669,
                    "velocity": 0.1968503937007874,
                    "duration": 0.18027766666665457
                },
                {
                    "name": "A#1",
                    "midi": 34,
                    "time": 183.16210933333355,
                    "velocity": 0.1968503937007874,
                    "duration": 0.18027766666665457
                },
                {
                    "name": "B1",
                    "midi": 35,
                    "time": 183.3423870000002,
                    "velocity": 0.2283464566929134,
                    "duration": 0.18027766666665457
                },
                {
                    "name": "A#1",
                    "midi": 34,
                    "time": 183.52266466666686,
                    "velocity": 0.1968503937007874,
                    "duration": 0.18027766666665457
                },
                {
                    "name": "A1",
                    "midi": 33,
                    "time": 183.7029423333335,
                    "velocity": 0.1968503937007874,
                    "duration": 0.18027766666665457
                },
                {
                    "name": "A#1",
                    "midi": 34,
                    "time": 183.88322000000016,
                    "velocity": 0.2283464566929134,
                    "duration": 1.6224990000000048
                },
                {
                    "name": "A#2",
                    "midi": 46,
                    "time": 185.50571900000017,
                    "velocity": 0.2283464566929134,
                    "duration": 0.5408329999999921
                },
                {
                    "name": "A#1",
                    "midi": 34,
                    "time": 185.50571900000017,
                    "velocity": 0.2283464566929134,
                    "duration": 0.5408329999999921
                },
                {
                    "name": "G#2",
                    "midi": 44,
                    "time": 186.04655200000016,
                    "velocity": 0.5826771653543307,
                    "duration": 1.6224990000000048
                },
                {
                    "name": "G#1",
                    "midi": 32,
                    "time": 186.04655200000016,
                    "velocity": 0.5039370078740157,
                    "duration": 1.6224990000000048
                },
                {
                    "name": "G#2",
                    "midi": 44,
                    "time": 187.66905100000017,
                    "velocity": 0.4330708661417323,
                    "duration": 0.18027766666665457
                },
                {
                    "name": "A#2",
                    "midi": 46,
                    "time": 187.84932866666682,
                    "velocity": 0.4645669291338583,
                    "duration": 0.18027766666665457
                },
                {
                    "name": "B2",
                    "midi": 47,
                    "time": 188.02960633333348,
                    "velocity": 0.49606299212598426,
                    "duration": 0.16901031250000642
                },
                {
                    "name": "B1",
                    "midi": 35,
                    "time": 188.20988400000016,
                    "velocity": 0.5039370078740157,
                    "duration": 1.6224990000000048
                },
                {
                    "name": "B2",
                    "midi": 47,
                    "time": 188.20988400000016,
                    "velocity": 0.5748031496062992,
                    "duration": 1.6224990000000048
                },
                {
                    "name": "B2",
                    "midi": 47,
                    "time": 189.83238300000016,
                    "velocity": 0.4409448818897638,
                    "duration": 0.18027766666665457
                },
                {
                    "name": "C#3",
                    "midi": 49,
                    "time": 190.01266066666682,
                    "velocity": 0.48031496062992124,
                    "duration": 0.18027766666665457
                },
                {
                    "name": "D3",
                    "midi": 50,
                    "time": 190.19293833333347,
                    "velocity": 0.5039370078740157,
                    "duration": 0.16901031250000642
                },
                {
                    "name": "D3",
                    "midi": 50,
                    "time": 190.37321600000016,
                    "velocity": 0.5748031496062992,
                    "duration": 1.6224990000000048
                },
                {
                    "name": "D2",
                    "midi": 38,
                    "time": 190.38110314791683,
                    "velocity": 0.5039370078740157,
                    "duration": 1.6224990000000048
                },
                {
                    "name": "D3",
                    "midi": 50,
                    "time": 191.99571500000016,
                    "velocity": 0.4409448818897638,
                    "duration": 0.180277666666683
                },
                {
                    "name": "D#3",
                    "midi": 51,
                    "time": 192.17599266666684,
                    "velocity": 0.48031496062992124,
                    "duration": 0.18027766666665457
                },
                {
                    "name": "F3",
                    "midi": 53,
                    "time": 192.3562703333335,
                    "velocity": 0.5039370078740157,
                    "duration": 0.16901031250000642
                },
                {
                    "name": "F2",
                    "midi": 41,
                    "time": 192.53654800000018,
                    "velocity": 0.5039370078740157,
                    "duration": 1.6224990000000048
                },
                {
                    "name": "F3",
                    "midi": 53,
                    "time": 192.53654800000018,
                    "velocity": 0.5748031496062992,
                    "duration": 1.6224990000000048
                },
                {
                    "name": "F2",
                    "midi": 41,
                    "time": 194.1590470000002,
                    "velocity": 0.4409448818897638,
                    "duration": 0.5408329999999921
                },
                {
                    "name": "F#2",
                    "midi": 42,
                    "time": 194.69988000000018,
                    "velocity": 0.31496062992125984,
                    "duration": 1.0816660000000127
                },
                {
                    "name": "D2",
                    "midi": 38,
                    "time": 195.7815460000002,
                    "velocity": 0.31496062992125984,
                    "duration": 0.15436275208332972
                },
                {
                    "name": "D#2",
                    "midi": 39,
                    "time": 195.93590875208352,
                    "velocity": 0.28346456692913385,
                    "duration": 0.15436275208332972
                },
                {
                    "name": "D2",
                    "midi": 38,
                    "time": 196.09027150416685,
                    "velocity": 0.31496062992125984,
                    "duration": 0.15436275208332972
                },
                {
                    "name": "D#2",
                    "midi": 39,
                    "time": 196.24463425625018,
                    "velocity": 0.28346456692913385,
                    "duration": 0.15436275208332972
                },
                {
                    "name": "D2",
                    "midi": 38,
                    "time": 196.39787027291683,
                    "velocity": 0.31496062992125984,
                    "duration": 0.15436275208332972
                },
                {
                    "name": "C2",
                    "midi": 36,
                    "time": 196.55223302500016,
                    "velocity": 0.2755905511811024,
                    "duration": 0.15436275208332972
                },
                {
                    "name": "D2",
                    "midi": 38,
                    "time": 196.7065957770835,
                    "velocity": 0.28346456692913385,
                    "duration": 0.15661622291665367
                },
                {
                    "name": "D#2",
                    "midi": 39,
                    "time": 196.86321200000015,
                    "velocity": 0.3858267716535433,
                    "duration": 1.0816660000000127
                },
                {
                    "name": "G#1",
                    "midi": 32,
                    "time": 197.94487800000016,
                    "velocity": 0.31496062992125984,
                    "duration": 1.0816660000000127
                },
                {
                    "name": "A#1",
                    "midi": 34,
                    "time": 199.02654400000017,
                    "velocity": 0.2283464566929134,
                    "duration": 1.2619436666666672
                },
                {
                    "name": "A1",
                    "midi": 33,
                    "time": 200.28848766666684,
                    "velocity": 0.1968503937007874,
                    "duration": 0.18027766666665457
                },
                {
                    "name": "A#1",
                    "midi": 34,
                    "time": 200.4687653333335,
                    "velocity": 0.1968503937007874,
                    "duration": 0.18027766666665457
                },
                {
                    "name": "B1",
                    "midi": 35,
                    "time": 200.64904300000015,
                    "velocity": 0.2283464566929134,
                    "duration": 0.18027766666665457
                },
                {
                    "name": "A#1",
                    "midi": 34,
                    "time": 200.8293206666668,
                    "velocity": 0.1968503937007874,
                    "duration": 0.18027766666665457
                },
                {
                    "name": "A1",
                    "midi": 33,
                    "time": 201.00959833333346,
                    "velocity": 0.1968503937007874,
                    "duration": 0.18027766666665457
                },
                {
                    "name": "A#1",
                    "midi": 34,
                    "time": 201.1898760000001,
                    "velocity": 0.2283464566929134,
                    "duration": 1.0816660000000127
                },
                {
                    "name": "G#1",
                    "midi": 32,
                    "time": 202.27154200000012,
                    "velocity": 0.2283464566929134,
                    "duration": 1.0816660000000127
                },
                {
                    "name": "G1",
                    "midi": 31,
                    "time": 203.35320800000014,
                    "velocity": 0.2283464566929134,
                    "duration": 2.163331999999997
                },
                {
                    "name": "G2",
                    "midi": 43,
                    "time": 203.35320800000014,
                    "velocity": 0.2755905511811024,
                    "duration": 2.163331999999997
                },
                {
                    "name": "F2",
                    "midi": 41,
                    "time": 205.51654000000013,
                    "velocity": 0.2755905511811024,
                    "duration": 2.163331999999997
                },
                {
                    "name": "D#2",
                    "midi": 39,
                    "time": 207.67987200000013,
                    "velocity": 0.29133858267716534,
                    "duration": 2.163331999999997
                },
                {
                    "name": "G#2",
                    "midi": 44,
                    "time": 209.84320400000013,
                    "velocity": 0.25984251968503935,
                    "duration": 2.163331999999997
                },
                {
                    "name": "A#2",
                    "midi": 46,
                    "time": 212.00653600000012,
                    "velocity": 0.2755905511811024,
                    "duration": 2.163331999999997
                },
                {
                    "name": "F3",
                    "midi": 53,
                    "time": 214.16986800000012,
                    "velocity": 0.2755905511811024,
                    "duration": 1.6224990000000048
                },
                {
                    "name": "A#2",
                    "midi": 46,
                    "time": 214.16986800000012,
                    "velocity": 0.2283464566929134,
                    "duration": 2.163331999999997
                },
                {
                    "name": "G#3",
                    "midi": 56,
                    "time": 215.79236700000013,
                    "velocity": 0.2755905511811024,
                    "duration": 0.5408329999999921
                },
                {
                    "name": "D#2",
                    "midi": 39,
                    "time": 216.33320000000012,
                    "velocity": 0.2283464566929134,
                    "duration": 2.163331999999997
                },
                {
                    "name": "C#2",
                    "midi": 37,
                    "time": 218.49653200000012,
                    "velocity": 0.2755905511811024,
                    "duration": 1.6224990000000048
                },
                {
                    "name": "E2",
                    "midi": 40,
                    "time": 220.11903100000012,
                    "velocity": 0.1889763779527559,
                    "duration": 0.18027766666665457
                },
                {
                    "name": "D#2",
                    "midi": 39,
                    "time": 220.29930866666678,
                    "velocity": 0.2204724409448819,
                    "duration": 0.18027766666665457
                },
                {
                    "name": "C#2",
                    "midi": 37,
                    "time": 220.47958633333343,
                    "velocity": 0.2440944881889764,
                    "duration": 0.18027766666665457
                },
                {
                    "name": "B1",
                    "midi": 35,
                    "time": 220.65986400000008,
                    "velocity": 0.2283464566929134,
                    "duration": 2.163331999999997
                },
                {
                    "name": "A#1",
                    "midi": 34,
                    "time": 222.82319600000008,
                    "velocity": 0.2755905511811024,
                    "duration": 1.2619436666666672
                },
                {
                    "name": "B1",
                    "midi": 35,
                    "time": 224.08513966666675,
                    "velocity": 0.1889763779527559,
                    "duration": 0.18027766666665457
                },
                {
                    "name": "A#1",
                    "midi": 34,
                    "time": 224.2654173333334,
                    "velocity": 0.1889763779527559,
                    "duration": 0.18027766666665457
                },
                {
                    "name": "C#2",
                    "midi": 37,
                    "time": 224.44569500000006,
                    "velocity": 0.2125984251968504,
                    "duration": 0.18027766666665457
                },
                {
                    "name": "B1",
                    "midi": 35,
                    "time": 224.6259726666667,
                    "velocity": 0.1889763779527559,
                    "duration": 0.18027766666665457
                },
                {
                    "name": "A#1",
                    "midi": 34,
                    "time": 224.80625033333337,
                    "velocity": 0.1889763779527559,
                    "duration": 0.18027766666665457
                },
                {
                    "name": "G#1",
                    "midi": 32,
                    "time": 224.98652800000002,
                    "velocity": 0.2283464566929134,
                    "duration": 2.163331999999997
                },
                {
                    "name": "F#1",
                    "midi": 30,
                    "time": 227.14986000000002,
                    "velocity": 0.1732283464566929,
                    "duration": 0.10816660000000411
                },
                {
                    "name": "G#1",
                    "midi": 32,
                    "time": 227.25802660000002,
                    "velocity": 0.14173228346456693,
                    "duration": 0.10816660000000411
                },
                {
                    "name": "F#1",
                    "midi": 30,
                    "time": 227.36619320000003,
                    "velocity": 0.1889763779527559,
                    "duration": 0.10816660000000411
                },
                {
                    "name": "G#1",
                    "midi": 32,
                    "time": 227.47435980000003,
                    "velocity": 0.16535433070866143,
                    "duration": 0.10816660000000411
                },
                {
                    "name": "F#1",
                    "midi": 30,
                    "time": 227.58252640000003,
                    "velocity": 0.1732283464566929,
                    "duration": 0.10816660000000411
                },
                {
                    "name": "G#1",
                    "midi": 32,
                    "time": 227.69069300000004,
                    "velocity": 0.14173228346456693,
                    "duration": 0.10816660000000411
                },
                {
                    "name": "F#1",
                    "midi": 30,
                    "time": 227.79885960000004,
                    "velocity": 0.1889763779527559,
                    "duration": 0.10816660000000411
                },
                {
                    "name": "G#1",
                    "midi": 32,
                    "time": 227.90702620000005,
                    "velocity": 0.16535433070866143,
                    "duration": 0.10816660000000411
                },
                {
                    "name": "F#1",
                    "midi": 30,
                    "time": 228.01519280000005,
                    "velocity": 0.2125984251968504,
                    "duration": 0.10816660000000411
                },
                {
                    "name": "G#1",
                    "midi": 32,
                    "time": 228.12335940000006,
                    "velocity": 0.18110236220472442,
                    "duration": 0.10816660000000411
                },
                {
                    "name": "F#1",
                    "midi": 30,
                    "time": 228.23152600000006,
                    "velocity": 0.2440944881889764,
                    "duration": 0.10816660000000411
                },
                {
                    "name": "G#1",
                    "midi": 32,
                    "time": 228.33969260000006,
                    "velocity": 0.2047244094488189,
                    "duration": 0.10816660000000411
                },
                {
                    "name": "F#1",
                    "midi": 30,
                    "time": 228.44785920000007,
                    "velocity": 0.2755905511811024,
                    "duration": 0.10816660000000411
                },
                {
                    "name": "G#1",
                    "midi": 32,
                    "time": 228.55602580000007,
                    "velocity": 0.2283464566929134,
                    "duration": 0.10816660000000411
                },
                {
                    "name": "F#1",
                    "midi": 30,
                    "time": 228.66419240000008,
                    "velocity": 0.2992125984251969,
                    "duration": 0.10816660000000411
                },
                {
                    "name": "G#1",
                    "midi": 32,
                    "time": 228.77235900000008,
                    "velocity": 0.25196850393700787,
                    "duration": 0.10816660000000411
                },
                {
                    "name": "F#1",
                    "midi": 30,
                    "time": 228.88052560000008,
                    "velocity": 0.33070866141732286,
                    "duration": 0.14422213333332934
                },
                {
                    "name": "F1",
                    "midi": 29,
                    "time": 229.0247477333334,
                    "velocity": 0.29133858267716534,
                    "duration": 0.14422213333332934
                },
                {
                    "name": "F#1",
                    "midi": 30,
                    "time": 229.16896986666674,
                    "velocity": 0.2992125984251969,
                    "duration": 0.14422213333332934
                },
                {
                    "name": "F2",
                    "midi": 41,
                    "time": 229.31319200000007,
                    "velocity": 0.5354330708661418,
                    "duration": 1.0816660000000127
                },
                {
                    "name": "F1",
                    "midi": 29,
                    "time": 229.31319200000007,
                    "velocity": 0.47244094488188976,
                    "duration": 1.0816660000000127
                },
                {
                    "name": "F2",
                    "midi": 41,
                    "time": 230.39485800000008,
                    "velocity": 0.3937007874015748,
                    "duration": 1.081666000000041
                },
                {
                    "name": "G#2",
                    "midi": 44,
                    "time": 230.6652745000001,
                    "velocity": 0.3228346456692913,
                    "duration": 0.2704165000000103
                },
                {
                    "name": "B2",
                    "midi": 47,
                    "time": 230.9356910000001,
                    "velocity": 0.3228346456692913,
                    "duration": 0.2704165000000103
                },
                {
                    "name": "C#3",
                    "midi": 49,
                    "time": 231.20610750000012,
                    "velocity": 0.3228346456692913,
                    "duration": 0.2704165000000103
                },
                {
                    "name": "F2",
                    "midi": 41,
                    "time": 231.47652400000013,
                    "velocity": 0.31496062992125984,
                    "duration": 1.0816660000000127
                },
                {
                    "name": "D3",
                    "midi": 50,
                    "time": 231.47652400000013,
                    "velocity": 0.3858267716535433,
                    "duration": 1.0816660000000127
                },
                {
                    "name": "C#3",
                    "midi": 49,
                    "time": 232.55819000000014,
                    "velocity": 0.2440944881889764,
                    "duration": 1.0816660000000127
                },
                {
                    "name": "F#2",
                    "midi": 42,
                    "time": 233.63985600000015,
                    "velocity": 0.2283464566929134,
                    "duration": 2.163331999999997
                },
                {
                    "name": "C#3",
                    "midi": 49,
                    "time": 233.63985600000015,
                    "velocity": 0.2755905511811024,
                    "duration": 2.163331999999997
                },
                {
                    "name": "C#3",
                    "midi": 49,
                    "time": 235.80318800000015,
                    "velocity": 0.2755905511811024,
                    "duration": 1.0816660000000127
                },
                {
                    "name": "F#2",
                    "midi": 42,
                    "time": 235.80318800000015,
                    "velocity": 0.2283464566929134,
                    "duration": 1.0816660000000127
                },
                {
                    "name": "F#2",
                    "midi": 42,
                    "time": 236.88485400000016,
                    "velocity": 0.2283464566929134,
                    "duration": 1.0816660000000127
                },
                {
                    "name": "C#3",
                    "midi": 49,
                    "time": 236.88485400000016,
                    "velocity": 0.2755905511811024,
                    "duration": 1.0816660000000127
                },
                {
                    "name": "D#3",
                    "midi": 51,
                    "time": 237.96652000000017,
                    "velocity": 0.2755905511811024,
                    "duration": 4.326663999999994
                },
                {
                    "name": "D#2",
                    "midi": 39,
                    "time": 237.96652000000017,
                    "velocity": 0.2283464566929134,
                    "duration": 4.326663999999994
                },
                {
                    "name": "B1",
                    "midi": 35,
                    "time": 242.29769094166684,
                    "velocity": 0.2283464566929134,
                    "duration": 2.163331999999997
                },
                {
                    "name": "B2",
                    "midi": 47,
                    "time": 242.30107114791684,
                    "velocity": 0.2755905511811024,
                    "duration": 2.163331999999997
                },
                {
                    "name": "C#2",
                    "midi": 37,
                    "time": 244.45651600000016,
                    "velocity": 0.2283464566929134,
                    "duration": 1.6224990000000048
                },
                {
                    "name": "C#3",
                    "midi": 49,
                    "time": 244.45651600000016,
                    "velocity": 0.2755905511811024,
                    "duration": 1.6224990000000048
                },
                {
                    "name": "B2",
                    "midi": 47,
                    "time": 246.07901500000017,
                    "velocity": 0.15748031496062992,
                    "duration": 0.5408329999999921
                },
                {
                    "name": "C#3",
                    "midi": 49,
                    "time": 246.07901500000017,
                    "velocity": 0.2047244094488189,
                    "duration": 0.5408329999999921
                },
                {
                    "name": "A#2",
                    "midi": 46,
                    "time": 246.61984800000016,
                    "velocity": 0.2283464566929134,
                    "duration": 1.0816660000000127
                },
                {
                    "name": "C#3",
                    "midi": 49,
                    "time": 246.61984800000016,
                    "velocity": 0.2755905511811024,
                    "duration": 1.0816660000000127
                },
                {
                    "name": "D#3",
                    "midi": 51,
                    "time": 247.70151400000017,
                    "velocity": 0.2755905511811024,
                    "duration": 0.9464577500000075
                },
                {
                    "name": "F#2",
                    "midi": 42,
                    "time": 247.70151400000017,
                    "velocity": 0.2283464566929134,
                    "duration": 0.9464577500000075
                },
                {
                    "name": "C#2",
                    "midi": 37,
                    "time": 248.64797175000018,
                    "velocity": 0.2283464566929134,
                    "duration": 2.298540250000002
                },
                {
                    "name": "F3",
                    "midi": 53,
                    "time": 248.7831800000002,
                    "velocity": 0.2755905511811024,
                    "duration": 2.163331999999997
                },
                {
                    "name": "C#3",
                    "midi": 49,
                    "time": 250.94651200000018,
                    "velocity": 0.2755905511811024,
                    "duration": 2.163331999999997
                },
                {
                    "name": "F#2",
                    "midi": 42,
                    "time": 250.94651200000018,
                    "velocity": 0.2283464566929134,
                    "duration": 2.163331999999997
                },
                {
                    "name": "C#3",
                    "midi": 49,
                    "time": 253.10984400000018,
                    "velocity": 0.2755905511811024,
                    "duration": 1.0816660000000127
                },
                {
                    "name": "F#2",
                    "midi": 42,
                    "time": 253.10984400000018,
                    "velocity": 0.2283464566929134,
                    "duration": 1.0816660000000127
                },
                {
                    "name": "C#3",
                    "midi": 49,
                    "time": 254.1915100000002,
                    "velocity": 0.2755905511811024,
                    "duration": 1.0816660000000127
                },
                {
                    "name": "F#2",
                    "midi": 42,
                    "time": 254.1915100000002,
                    "velocity": 0.2283464566929134,
                    "duration": 1.0816660000000127
                },
                {
                    "name": "D#2",
                    "midi": 39,
                    "time": 255.2731760000002,
                    "velocity": 0.2283464566929134,
                    "duration": 3.2449980000000096
                },
                {
                    "name": "D#3",
                    "midi": 51,
                    "time": 255.2731760000002,
                    "velocity": 0.2755905511811024,
                    "duration": 3.2449980000000096
                },
                {
                    "name": "A#2",
                    "midi": 46,
                    "time": 258.5181740000002,
                    "velocity": 0.2755905511811024,
                    "duration": 1.0816659999999843
                },
                {
                    "name": "A#1",
                    "midi": 34,
                    "time": 258.5181740000002,
                    "velocity": 0.2283464566929134,
                    "duration": 1.0816659999999843
                },
                {
                    "name": "B1",
                    "midi": 35,
                    "time": 259.60434694166685,
                    "velocity": 0.2283464566929134,
                    "duration": 1.0816659999999274
                },
                {
                    "name": "B2",
                    "midi": 47,
                    "time": 259.6077271479168,
                    "velocity": 0.2755905511811024,
                    "duration": 1.0816659999999274
                },
                {
                    "name": "G#2",
                    "midi": 44,
                    "time": 260.6815060000001,
                    "velocity": 0.31496062992125984,
                    "duration": 1.0816659999999274
                },
                {
                    "name": "G#1",
                    "midi": 32,
                    "time": 260.6815060000001,
                    "velocity": 0.25984251968503935,
                    "duration": 1.0816659999999274
                },
                {
                    "name": "C#2",
                    "midi": 37,
                    "time": 261.76317200000005,
                    "velocity": 0.2283464566929134,
                    "duration": 2.1633320000000253
                },
                {
                    "name": "C#3",
                    "midi": 49,
                    "time": 261.76317200000005,
                    "velocity": 0.2755905511811024,
                    "duration": 2.1633320000000253
                },
                {
                    "name": "F#2",
                    "midi": 42,
                    "time": 263.9265040000001,
                    "velocity": 0.2283464566929134,
                    "duration": 4.326663999999994
                },
                {
                    "name": "C#3",
                    "midi": 49,
                    "time": 263.9265040000001,
                    "velocity": 0.2755905511811024,
                    "duration": 4.326663999999994
                },
                {
                    "name": "F3",
                    "midi": 53,
                    "time": 268.2531680000001,
                    "velocity": 0.2755905511811024,
                    "duration": 2.1633320000000253
                },
                {
                    "name": "C#3",
                    "midi": 49,
                    "time": 268.2531680000001,
                    "velocity": 0.2283464566929134,
                    "duration": 2.1633320000000253
                },
                {
                    "name": "E3",
                    "midi": 52,
                    "time": 270.4165000000001,
                    "velocity": 0.2677165354330709,
                    "duration": 1.0816659999999843
                },
                {
                    "name": "G3",
                    "midi": 55,
                    "time": 270.4165000000001,
                    "velocity": 0.31496062992125984,
                    "duration": 2.1633319999999685
                },
                {
                    "name": "A#2",
                    "midi": 46,
                    "time": 270.4165000000001,
                    "velocity": 0.2677165354330709,
                    "duration": 2.1633319999999685
                },
                {
                    "name": "D#3",
                    "midi": 51,
                    "time": 271.4981660000001,
                    "velocity": 0.3228346456692913,
                    "duration": 1.0816659999999843
                },
                {
                    "name": "G#2",
                    "midi": 44,
                    "time": 272.57983200000007,
                    "velocity": 0.3228346456692913,
                    "duration": 2.1633320000000253
                },
                {
                    "name": "D#3",
                    "midi": 51,
                    "time": 272.57983200000007,
                    "velocity": 0.3228346456692913,
                    "duration": 2.1633320000000253
                },
                {
                    "name": "G3",
                    "midi": 55,
                    "time": 272.58771914791674,
                    "velocity": 0.3937007874015748,
                    "duration": 1.6224990000000048
                },
                {
                    "name": "G#3",
                    "midi": 56,
                    "time": 274.2181052958334,
                    "velocity": 0.3464566929133858,
                    "duration": 0.5408330000000205
                },
                {
                    "name": "G#3",
                    "midi": 56,
                    "time": 274.7431640000001,
                    "velocity": 0.2755905511811024,
                    "duration": 2.1633320000000253
                },
                {
                    "name": "D#3",
                    "midi": 51,
                    "time": 274.7431640000001,
                    "velocity": 0.2283464566929134,
                    "duration": 2.1633320000000253
                },
                {
                    "name": "G#2",
                    "midi": 44,
                    "time": 274.7431640000001,
                    "velocity": 0.2283464566929134,
                    "duration": 1.892915500000015
                },
                {
                    "name": "F#2",
                    "midi": 42,
                    "time": 276.6360795000001,
                    "velocity": 0.33858267716535434,
                    "duration": 0.2704165000000103
                },
                {
                    "name": "E2",
                    "midi": 40,
                    "time": 276.9064960000001,
                    "velocity": 0.5354330708661418,
                    "duration": 2.1633320000000253
                },
                {
                    "name": "D#2",
                    "midi": 39,
                    "time": 279.06982800000014,
                    "velocity": 0.4330708661417323,
                    "duration": 1.0816659999999843
                },
                {
                    "name": "C#2",
                    "midi": 37,
                    "time": 280.1514940000001,
                    "velocity": 0.3464566929133858,
                    "duration": 0.10816660000000411
                },
                {
                    "name": "D#2",
                    "midi": 39,
                    "time": 280.25966060000013,
                    "velocity": 0.3464566929133858,
                    "duration": 0.10816660000000411
                },
                {
                    "name": "C#2",
                    "midi": 37,
                    "time": 280.36782720000014,
                    "velocity": 0.4409448818897638,
                    "duration": 0.08675862708332716
                },
                {
                    "name": "D#2",
                    "midi": 39,
                    "time": 280.45458582708346,
                    "velocity": 0.30708661417322836,
                    "duration": 0.08675862708332716
                },
                {
                    "name": "C#2",
                    "midi": 37,
                    "time": 280.5413444541668,
                    "velocity": 0.4409448818897638,
                    "duration": 0.08675862708332716
                },
                {
                    "name": "D#2",
                    "midi": 39,
                    "time": 280.6281030812501,
                    "velocity": 0.30708661417322836,
                    "duration": 0.08675862708332716
                },
                {
                    "name": "C#2",
                    "midi": 37,
                    "time": 280.71373497291677,
                    "velocity": 0.33070866141732286,
                    "duration": 0.08675862708332716
                },
                {
                    "name": "D#2",
                    "midi": 39,
                    "time": 280.8004936000001,
                    "velocity": 0.3464566929133858,
                    "duration": 0.08675862708332716
                },
                {
                    "name": "C#2",
                    "midi": 37,
                    "time": 280.8872522270834,
                    "velocity": 0.4330708661417323,
                    "duration": 0.11605374791668055
                },
                {
                    "name": "B1",
                    "midi": 35,
                    "time": 281.0021792395834,
                    "velocity": 0.36220472440944884,
                    "duration": 0.11605374791668055
                },
                {
                    "name": "C#2",
                    "midi": 37,
                    "time": 281.1182329875001,
                    "velocity": 0.4409448818897638,
                    "duration": 0.11492701250000437
                },
                {
                    "name": "B1",
                    "midi": 35,
                    "time": 281.2331600000001,
                    "velocity": 0.5275590551181102,
                    "duration": 4.326663999999994
                },
                {
                    "name": "F#3",
                    "midi": 54,
                    "time": 285.5598240000001,
                    "velocity": 0.2755905511811024,
                    "duration": 2.1633319999999685
                },
                {
                    "name": "B2",
                    "midi": 47,
                    "time": 285.56433094166675,
                    "velocity": 0.2283464566929134,
                    "duration": 2.1633319999999685
                },
                {
                    "name": "B2",
                    "midi": 47,
                    "time": 287.7231560000001,
                    "velocity": 0.2283464566929134,
                    "duration": 2.1633319999999685
                },
                {
                    "name": "G#3",
                    "midi": 56,
                    "time": 287.7231560000001,
                    "velocity": 0.2755905511811024,
                    "duration": 1.0816659999999843
                },
                {
                    "name": "F3",
                    "midi": 53,
                    "time": 288.80482200000006,
                    "velocity": 0.2755905511811024,
                    "duration": 1.0816659999999843
                },
                {
                    "name": "F#3",
                    "midi": 54,
                    "time": 289.88648800000004,
                    "velocity": 0.2755905511811024,
                    "duration": 2.1633320000000253
                },
                {
                    "name": "A#2",
                    "midi": 46,
                    "time": 289.88648800000004,
                    "velocity": 0.2283464566929134,
                    "duration": 2.1633320000000253
                },
                {
                    "name": "F#3",
                    "midi": 54,
                    "time": 292.04982000000007,
                    "velocity": 0.2755905511811024,
                    "duration": 1.0816659999999843
                },
                {
                    "name": "B2",
                    "midi": 47,
                    "time": 292.04982000000007,
                    "velocity": 0.2283464566929134,
                    "duration": 2.1633320000000253
                },
                {
                    "name": "G#3",
                    "midi": 56,
                    "time": 293.13148600000005,
                    "velocity": 0.2755905511811024,
                    "duration": 0.8901209791666815
                },
                {
                    "name": "C#3",
                    "midi": 49,
                    "time": 294.2131520000001,
                    "velocity": 0.2755905511811024,
                    "duration": 2.1633320000000253
                },
                {
                    "name": "C#2",
                    "midi": 37,
                    "time": 296.2412757500001,
                    "velocity": 0.2755905511811024,
                    "duration": 0.13520825000000514
                },
                {
                    "name": "C#3",
                    "midi": 49,
                    "time": 296.3764840000001,
                    "velocity": 0.33070866141732286,
                    "duration": 2.1633320000000253
                },
                {
                    "name": "F#3",
                    "midi": 54,
                    "time": 297.4581500000001,
                    "velocity": 0.2755905511811024,
                    "duration": 0.5408330000000205
                },
                {
                    "name": "F3",
                    "midi": 53,
                    "time": 297.9989830000001,
                    "velocity": 0.2755905511811024,
                    "duration": 0.5408330000000205
                },
                {
                    "name": "D#3",
                    "midi": 51,
                    "time": 298.53981600000014,
                    "velocity": 0.23622047244094488,
                    "duration": 2.1633320000000253
                },
                {
                    "name": "F#3",
                    "midi": 54,
                    "time": 298.53981600000014,
                    "velocity": 0.2755905511811024,
                    "duration": 2.1633320000000253
                },
                {
                    "name": "F#3",
                    "midi": 54,
                    "time": 300.70314800000017,
                    "velocity": 0.2755905511811024,
                    "duration": 2.1633320000000253
                },
                {
                    "name": "A#3",
                    "midi": 58,
                    "time": 300.70314800000017,
                    "velocity": 0.33070866141732286,
                    "duration": 2.1633320000000253
                },
                {
                    "name": "B2",
                    "midi": 47,
                    "time": 302.8664800000002,
                    "velocity": 0.36220472440944884,
                    "duration": 2.1633320000000253
                },
                {
                    "name": "F#3",
                    "midi": 54,
                    "time": 302.8664800000002,
                    "velocity": 0.36220472440944884,
                    "duration": 2.1633320000000253
                },
                {
                    "name": "B3",
                    "midi": 59,
                    "time": 302.8664800000002,
                    "velocity": 0.44881889763779526,
                    "duration": 2.1633320000000253
                },
                {
                    "name": "B2",
                    "midi": 47,
                    "time": 305.0298120000002,
                    "velocity": 0.2283464566929134,
                    "duration": 2.1633319999999685
                },
                {
                    "name": "G#3",
                    "midi": 56,
                    "time": 305.0298120000002,
                    "velocity": 0.2755905511811024,
                    "duration": 1.0816659999999843
                },
                {
                    "name": "F3",
                    "midi": 53,
                    "time": 306.1114780000002,
                    "velocity": 0.2755905511811024,
                    "duration": 1.0816659999999843
                },
                {
                    "name": "F#3",
                    "midi": 54,
                    "time": 307.1931440000002,
                    "velocity": 0.2755905511811024,
                    "duration": 2.1633320000000253
                },
                {
                    "name": "A#2",
                    "midi": 46,
                    "time": 307.1931440000002,
                    "velocity": 0.2283464566929134,
                    "duration": 2.1633320000000253
                },
                {
                    "name": "G3",
                    "midi": 55,
                    "time": 309.3564760000002,
                    "velocity": 0.2755905511811024,
                    "duration": 0.5408330000000205
                },
                {
                    "name": "B2",
                    "midi": 47,
                    "time": 309.3564760000002,
                    "velocity": 0.2283464566929134,
                    "duration": 1.6224990000000616
                },
                {
                    "name": "G#3",
                    "midi": 56,
                    "time": 309.89730900000023,
                    "velocity": 0.2755905511811024,
                    "duration": 0.5408330000000205
                },
                {
                    "name": "D#3",
                    "midi": 51,
                    "time": 310.43814200000025,
                    "velocity": 0.2755905511811024,
                    "duration": 1.081666000000041
                },
                {
                    "name": "C3",
                    "midi": 48,
                    "time": 310.9789750000003,
                    "velocity": 0.2283464566929134,
                    "duration": 0.5408330000000205
                },
                {
                    "name": "C#3",
                    "midi": 49,
                    "time": 311.5198080000003,
                    "velocity": 0.2755905511811024,
                    "duration": 2.1633320000000253
                },
                {
                    "name": "C#2",
                    "midi": 37,
                    "time": 313.5479317500003,
                    "velocity": 0.2755905511811024,
                    "duration": 0.13520825000000514
                },
                {
                    "name": "C#3",
                    "midi": 49,
                    "time": 313.6831400000003,
                    "velocity": 0.2755905511811024,
                    "duration": 2.1633320000000253
                },
                {
                    "name": "F#3",
                    "midi": 54,
                    "time": 314.7648060000003,
                    "velocity": 0.2755905511811024,
                    "duration": 0.5408330000000205
                },
                {
                    "name": "F3",
                    "midi": 53,
                    "time": 315.3056390000003,
                    "velocity": 0.2755905511811024,
                    "duration": 0.5408330000000205
                },
                {
                    "name": "F#2",
                    "midi": 42,
                    "time": 315.84647200000035,
                    "velocity": 0.2755905511811024,
                    "duration": 2.1633320000000253
                },
                {
                    "name": "E2",
                    "midi": 40,
                    "time": 318.0098040000004,
                    "velocity": 0.33858267716535434,
                    "duration": 2.1633320000000253
                },
                {
                    "name": "D2",
                    "midi": 38,
                    "time": 320.1731360000004,
                    "velocity": 0.49606299212598426,
                    "duration": 2.1633320000000253
                },
                {
                    "name": "D2",
                    "midi": 38,
                    "time": 322.3364680000004,
                    "velocity": 0.3464566929133858,
                    "duration": 0.10816660000000411
                },
                {
                    "name": "C#2",
                    "midi": 37,
                    "time": 322.4446346000004,
                    "velocity": 0.3228346456692913,
                    "duration": 0.10816660000000411
                },
                {
                    "name": "D2",
                    "midi": 38,
                    "time": 322.55280120000043,
                    "velocity": 0.3464566929133858,
                    "duration": 0.10816660000000411
                },
                {
                    "name": "C#2",
                    "midi": 37,
                    "time": 322.66096780000044,
                    "velocity": 0.33070866141732286,
                    "duration": 0.10816660000000411
                },
                {
                    "name": "D2",
                    "midi": 38,
                    "time": 322.76913440000044,
                    "velocity": 0.3464566929133858,
                    "duration": 0.12394089583335699
                },
                {
                    "name": "C#2",
                    "midi": 37,
                    "time": 322.8930752958338,
                    "velocity": 0.3543307086614173,
                    "duration": 0.1228141604166808
                },
                {
                    "name": "D2",
                    "midi": 38,
                    "time": 323.0158894562505,
                    "velocity": 0.3700787401574803,
                    "duration": 0.12394089583335699
                },
                {
                    "name": "C#2",
                    "midi": 37,
                    "time": 323.13983035208383,
                    "velocity": 0.3779527559055118,
                    "duration": 0.1228141604166808
                },
                {
                    "name": "D2",
                    "midi": 38,
                    "time": 323.2626445125005,
                    "velocity": 0.3937007874015748,
                    "duration": 0.12394089583335699
                },
                {
                    "name": "C#2",
                    "midi": 37,
                    "time": 323.3854586729172,
                    "velocity": 0.4015748031496063,
                    "duration": 0.12394089583335699
                },
                {
                    "name": "D2",
                    "midi": 38,
                    "time": 323.50939956875055,
                    "velocity": 0.4094488188976378,
                    "duration": 0.12506763124997633
                },
                {
                    "name": "C#2",
                    "midi": 37,
                    "time": 323.6355939354172,
                    "velocity": 0.4251968503937008,
                    "duration": 0.1228141604166808
                },
                {
                    "name": "D2",
                    "midi": 38,
                    "time": 323.7584080958339,
                    "velocity": 0.4330708661417323,
                    "duration": 0.12394089583335699
                },
                {
                    "name": "C#2",
                    "midi": 37,
                    "time": 323.88234899166724,
                    "velocity": 0.4409448818897638,
                    "duration": 0.1228141604166808
                },
                {
                    "name": "D2",
                    "midi": 38,
                    "time": 324.0051631520839,
                    "velocity": 0.4566929133858268,
                    "duration": 0.12394089583335699
                },
                {
                    "name": "C#2",
                    "midi": 37,
                    "time": 324.1279773125006,
                    "velocity": 0.4645669291338583,
                    "duration": 0.12394089583335699
                },
                {
                    "name": "B1",
                    "midi": 35,
                    "time": 324.25191820833396,
                    "velocity": 0.47244094488188976,
                    "duration": 0.1228141604166808
                },
                {
                    "name": "C#2",
                    "midi": 37,
                    "time": 324.37473236875064,
                    "velocity": 0.4881889763779528,
                    "duration": 0.12506763124997633
                },
                {
                    "name": "B1",
                    "midi": 35,
                    "time": 324.4998000000006,
                    "velocity": 0.6614173228346457,
                    "duration": 2.1633320000000253
                },
                {
                    "name": "D2",
                    "midi": 38,
                    "time": 326.66313200000064,
                    "velocity": 0.6062992125984252,
                    "duration": 2.1633320000000253
                },
                {
                    "name": "C#2",
                    "midi": 37,
                    "time": 328.82646400000067,
                    "velocity": 0.31496062992125984,
                    "duration": 2.1633320000000253
                },
                {
                    "name": "C#2",
                    "midi": 37,
                    "time": 330.9897960000007,
                    "velocity": 0.2755905511811024,
                    "duration": 0.5408330000000205
                },
                {
                    "name": "C#3",
                    "midi": 49,
                    "time": 331.5306290000007,
                    "velocity": 0.2755905511811024,
                    "duration": 1.6224990000000616
                },
                {
                    "name": "F3",
                    "midi": 53,
                    "time": 332.07146200000074,
                    "velocity": 0.2440944881889764,
                    "duration": 0.5408330000000205
                },
                {
                    "name": "G#3",
                    "midi": 56,
                    "time": 332.61229500000076,
                    "velocity": 0.2440944881889764,
                    "duration": 0.5408330000000205
                },
                {
                    "name": "F#2",
                    "midi": 42,
                    "time": 333.1531280000008,
                    "velocity": 0.2755905511811024,
                    "duration": 2.1633320000000253
                },
                {
                    "name": "E2",
                    "midi": 40,
                    "time": 335.3164600000008,
                    "velocity": 0.33858267716535434,
                    "duration": 2.1633320000000253
                },
                {
                    "name": "D2",
                    "midi": 38,
                    "time": 337.4797920000008,
                    "velocity": 0.49606299212598426,
                    "duration": 2.1633320000000253
                },
                {
                    "name": "C2",
                    "midi": 36,
                    "time": 339.64312400000085,
                    "velocity": 0.29133858267716534,
                    "duration": 0.10816660000000411
                },
                {
                    "name": "D2",
                    "midi": 38,
                    "time": 339.75129060000086,
                    "velocity": 0.25984251968503935,
                    "duration": 0.10816660000000411
                },
                {
                    "name": "C2",
                    "midi": 36,
                    "time": 339.85945720000086,
                    "velocity": 0.29133858267716534,
                    "duration": 0.10816660000000411
                },
                {
                    "name": "D2",
                    "midi": 38,
                    "time": 339.96762380000087,
                    "velocity": 0.25984251968503935,
                    "duration": 0.10816660000000411
                },
                {
                    "name": "C2",
                    "midi": 36,
                    "time": 340.07579040000087,
                    "velocity": 0.2992125984251969,
                    "duration": 0.10816660000000411
                },
                {
                    "name": "D2",
                    "midi": 38,
                    "time": 340.1839570000009,
                    "velocity": 0.30708661417322836,
                    "duration": 0.10816660000000411
                },
                {
                    "name": "C2",
                    "midi": 36,
                    "time": 340.2921236000009,
                    "velocity": 0.3228346456692913,
                    "duration": 0.10816660000000411
                },
                {
                    "name": "D2",
                    "midi": 38,
                    "time": 340.4002902000009,
                    "velocity": 0.3464566929133858,
                    "duration": 0.10816660000000411
                },
                {
                    "name": "C2",
                    "midi": 36,
                    "time": 340.5084568000009,
                    "velocity": 0.3543307086614173,
                    "duration": 0.10816660000000411
                },
                {
                    "name": "D2",
                    "midi": 38,
                    "time": 340.6166234000009,
                    "velocity": 0.3700787401574803,
                    "duration": 0.10816660000000411
                },
                {
                    "name": "C2",
                    "midi": 36,
                    "time": 340.7247900000009,
                    "velocity": 0.3937007874015748,
                    "duration": 0.10816660000000411
                },
                {
                    "name": "D2",
                    "midi": 38,
                    "time": 340.8329566000009,
                    "velocity": 0.4015748031496063,
                    "duration": 0.10816660000000411
                },
                {
                    "name": "C2",
                    "midi": 36,
                    "time": 340.9411232000009,
                    "velocity": 0.4251968503937008,
                    "duration": 0.10816660000000411
                },
                {
                    "name": "D2",
                    "midi": 38,
                    "time": 341.0492898000009,
                    "velocity": 0.4330708661417323,
                    "duration": 0.10816660000000411
                },
                {
                    "name": "C2",
                    "midi": 36,
                    "time": 341.1574564000009,
                    "velocity": 0.4566929133858268,
                    "duration": 0.10816660000000411
                },
                {
                    "name": "D2",
                    "midi": 38,
                    "time": 341.2656230000009,
                    "velocity": 0.47244094488188976,
                    "duration": 0.10816660000000411
                },
                {
                    "name": "C2",
                    "midi": 36,
                    "time": 341.3737896000009,
                    "velocity": 0.4881889763779528,
                    "duration": 0.14422213333335776
                },
                {
                    "name": "A#1",
                    "midi": 34,
                    "time": 341.5180117333343,
                    "velocity": 0.5118110236220472,
                    "duration": 0.14422213333335776
                },
                {
                    "name": "C2",
                    "midi": 36,
                    "time": 341.66223386666763,
                    "velocity": 0.5354330708661418,
                    "duration": 0.14422213333335776
                },
                {
                    "name": "A#1",
                    "midi": 34,
                    "time": 341.8120896770843,
                    "velocity": 0.6614173228346457,
                    "duration": 2.1633319999999685
                },
                {
                    "name": "D2",
                    "midi": 38,
                    "time": 343.96978800000096,
                    "velocity": 0.6062992125984252,
                    "duration": 2.1633319999999685
                },
                {
                    "name": "C#2",
                    "midi": 37,
                    "time": 346.13312000000093,
                    "velocity": 0.31496062992125984,
                    "duration": 2.1633320000000253
                },
                {
                    "name": "C#2",
                    "midi": 37,
                    "time": 348.29645200000095,
                    "velocity": 0.2755905511811024,
                    "duration": 0.5408330000000205
                },
                {
                    "name": "C#3",
                    "midi": 49,
                    "time": 348.837285000001,
                    "velocity": 0.2755905511811024,
                    "duration": 1.6224990000000616
                },
                {
                    "name": "F3",
                    "midi": 53,
                    "time": 349.378118000001,
                    "velocity": 0.2440944881889764,
                    "duration": 0.5408330000000205
                },
                {
                    "name": "G#3",
                    "midi": 56,
                    "time": 349.918951000001,
                    "velocity": 0.2440944881889764,
                    "duration": 0.5408330000000205
                },
                {
                    "name": "F#2",
                    "midi": 42,
                    "time": 350.45978400000104,
                    "velocity": 0.31496062992125984,
                    "duration": 2.163332000000082
                },
                {
                    "name": "C#3",
                    "midi": 49,
                    "time": 351.00061700000106,
                    "velocity": 0.2125984251968504,
                    "duration": 0.5408330000000205
                },
                {
                    "name": "A#2",
                    "midi": 46,
                    "time": 351.00061700000106,
                    "velocity": 0.2125984251968504,
                    "duration": 0.5408330000000205
                },
                {
                    "name": "B2",
                    "midi": 47,
                    "time": 351.5414500000011,
                    "velocity": 0.2047244094488189,
                    "duration": 0.5408330000000205
                },
                {
                    "name": "D#3",
                    "midi": 51,
                    "time": 351.5414500000011,
                    "velocity": 0.23622047244094488,
                    "duration": 0.5408330000000205
                },
                {
                    "name": "C#3",
                    "midi": 49,
                    "time": 352.0822830000011,
                    "velocity": 0.1889763779527559,
                    "duration": 0.5408330000000205
                },
                {
                    "name": "A#2",
                    "midi": 46,
                    "time": 352.0822830000011,
                    "velocity": 0.1889763779527559,
                    "duration": 0.5408330000000205
                },
                {
                    "name": "C#2",
                    "midi": 37,
                    "time": 352.6231160000011,
                    "velocity": 0.2204724409448819,
                    "duration": 0.5408330000000205
                },
                {
                    "name": "C#3",
                    "midi": 49,
                    "time": 353.16394900000114,
                    "velocity": 0.2204724409448819,
                    "duration": 1.6224990000000616
                },
                {
                    "name": "F3",
                    "midi": 53,
                    "time": 353.70478200000116,
                    "velocity": 0.1889763779527559,
                    "duration": 0.5408330000000205
                },
                {
                    "name": "G#3",
                    "midi": 56,
                    "time": 354.2456150000012,
                    "velocity": 0.1889763779527559,
                    "duration": 0.5408330000000205
                },
                {
                    "name": "F#2",
                    "midi": 42,
                    "time": 354.7864480000012,
                    "velocity": 0.31496062992125984,
                    "duration": 2.163332000000082
                },
                {
                    "name": "C#3",
                    "midi": 49,
                    "time": 355.3272810000012,
                    "velocity": 0.1889763779527559,
                    "duration": 0.5408330000000205
                },
                {
                    "name": "A#2",
                    "midi": 46,
                    "time": 355.3272810000012,
                    "velocity": 0.1889763779527559,
                    "duration": 0.5408330000000205
                },
                {
                    "name": "B2",
                    "midi": 47,
                    "time": 355.86811400000124,
                    "velocity": 0.18110236220472442,
                    "duration": 0.5408330000000205
                },
                {
                    "name": "D#3",
                    "midi": 51,
                    "time": 355.86811400000124,
                    "velocity": 0.2125984251968504,
                    "duration": 0.5408330000000205
                },
                {
                    "name": "C#3",
                    "midi": 49,
                    "time": 356.40894700000126,
                    "velocity": 0.16535433070866143,
                    "duration": 0.5408330000000205
                },
                {
                    "name": "A#2",
                    "midi": 46,
                    "time": 356.40894700000126,
                    "velocity": 0.16535433070866143,
                    "duration": 0.5408330000000205
                },
                {
                    "name": "C#2",
                    "midi": 37,
                    "time": 356.9497800000013,
                    "velocity": 0.2204724409448819,
                    "duration": 0.5408330000000205
                },
                {
                    "name": "C#3",
                    "midi": 49,
                    "time": 357.4906130000013,
                    "velocity": 0.2204724409448819,
                    "duration": 1.6224990000000616
                },
                {
                    "name": "G#3",
                    "midi": 56,
                    "time": 358.0314460000013,
                    "velocity": 0.1889763779527559,
                    "duration": 0.5408330000000205
                },
                {
                    "name": "B3",
                    "midi": 59,
                    "time": 358.57227900000134,
                    "velocity": 0.1889763779527559,
                    "duration": 0.5408330000000205
                },
                {
                    "name": "C#3",
                    "midi": 49,
                    "time": 359.11311200000137,
                    "velocity": 0.25196850393700787,
                    "duration": 2.1633320000000253
                },
                {
                    "name": "F#2",
                    "midi": 42,
                    "time": 359.11311200000137,
                    "velocity": 0.2204724409448819,
                    "duration": 2.1633320000000253
                },
                {
                    "name": "C#3",
                    "midi": 49,
                    "time": 361.2764440000014,
                    "velocity": 0.2204724409448819,
                    "duration": 1.0816659999999843
                },
                {
                    "name": "F#2",
                    "midi": 42,
                    "time": 361.2764440000014,
                    "velocity": 0.1968503937007874,
                    "duration": 1.0816659999999843
                },
                {
                    "name": "F#2",
                    "midi": 42,
                    "time": 362.3581100000014,
                    "velocity": 0.1968503937007874,
                    "duration": 1.0816659999999843
                },
                {
                    "name": "C#3",
                    "midi": 49,
                    "time": 362.3581100000014,
                    "velocity": 0.2204724409448819,
                    "duration": 1.0816659999999843
                },
                {
                    "name": "F#2",
                    "midi": 42,
                    "time": 363.620053666668,
                    "velocity": 0.2047244094488189,
                    "duration": 0.18027766666665457
                },
                {
                    "name": "A#2",
                    "midi": 46,
                    "time": 363.80033133333467,
                    "velocity": 0.1968503937007874,
                    "duration": 0.18027766666665457
                },
                {
                    "name": "C#3",
                    "midi": 49,
                    "time": 363.9806090000013,
                    "velocity": 0.2125984251968504,
                    "duration": 0.18027766666665457
                },
                {
                    "name": "A#2",
                    "midi": 46,
                    "time": 364.160886666668,
                    "velocity": 0.1889763779527559,
                    "duration": 0.18027766666665457
                },
                {
                    "name": "F#2",
                    "midi": 42,
                    "time": 364.34116433333463,
                    "velocity": 0.1889763779527559,
                    "duration": 0.18027766666665457
                },
                {
                    "name": "A#2",
                    "midi": 46,
                    "time": 364.5214420000013,
                    "velocity": 0.23622047244094488,
                    "duration": 0.18027766666665457
                },
                {
                    "name": "F#2",
                    "midi": 42,
                    "time": 364.70171966666794,
                    "velocity": 0.1732283464566929,
                    "duration": 0.18027766666665457
                },
                {
                    "name": "A#2",
                    "midi": 46,
                    "time": 364.8819973333346,
                    "velocity": 0.1732283464566929,
                    "duration": 0.18027766666665457
                },
                {
                    "name": "C#3",
                    "midi": 49,
                    "time": 365.06227500000125,
                    "velocity": 0.2047244094488189,
                    "duration": 0.18027766666665457
                },
                {
                    "name": "A#2",
                    "midi": 46,
                    "time": 365.2425526666679,
                    "velocity": 0.1732283464566929,
                    "duration": 0.18027766666665457
                },
                {
                    "name": "F#2",
                    "midi": 42,
                    "time": 365.42283033333456,
                    "velocity": 0.16535433070866143,
                    "duration": 0.18027766666665457
                },
                {
                    "name": "A#2",
                    "midi": 46,
                    "time": 365.6031080000012,
                    "velocity": 0.2204724409448819,
                    "duration": 0.18027766666665457
                },
                {
                    "name": "F#2",
                    "midi": 42,
                    "time": 365.78338566666787,
                    "velocity": 0.18110236220472442,
                    "duration": 0.18027766666665457
                },
                {
                    "name": "A#2",
                    "midi": 46,
                    "time": 365.9636633333345,
                    "velocity": 0.18110236220472442,
                    "duration": 0.18027766666665457
                },
                {
                    "name": "C#3",
                    "midi": 49,
                    "time": 366.1439410000012,
                    "velocity": 0.1889763779527559,
                    "duration": 0.18027766666665457
                },
                {
                    "name": "A#2",
                    "midi": 46,
                    "time": 366.32421866666783,
                    "velocity": 0.16535433070866143,
                    "duration": 0.18027766666665457
                },
                {
                    "name": "F#2",
                    "midi": 42,
                    "time": 366.5044963333345,
                    "velocity": 0.16535433070866143,
                    "duration": 0.18027766666665457
                },
                {
                    "name": "A#2",
                    "midi": 46,
                    "time": 366.68477400000114,
                    "velocity": 0.2125984251968504,
                    "duration": 0.18027766666665457
                },
                {
                    "name": "F#2",
                    "midi": 42,
                    "time": 366.8650516666678,
                    "velocity": 0.15748031496062992,
                    "duration": 0.18027766666665457
                },
                {
                    "name": "C#2",
                    "midi": 37,
                    "time": 367.04532933333445,
                    "velocity": 0.15748031496062992,
                    "duration": 0.18027766666665457
                },
                {
                    "name": "F#2",
                    "midi": 42,
                    "time": 367.2256070000011,
                    "velocity": 0.1889763779527559,
                    "duration": 0.18027766666665457
                },
                {
                    "name": "C#2",
                    "midi": 37,
                    "time": 367.40588466666776,
                    "velocity": 0.14960629921259844,
                    "duration": 0.18027766666665457
                },
                {
                    "name": "A#1",
                    "midi": 34,
                    "time": 367.5861623333344,
                    "velocity": 0.14960629921259844,
                    "duration": 0.18027766666665457
                },
                {
                    "name": "F#1",
                    "midi": 30,
                    "time": 367.76644000000107,
                    "velocity": 0.15748031496062992,
                    "duration": 4.326663999999994
                },
                {
                    "name": "C#2",
                    "midi": 37,
                    "time": 367.76644000000107,
                    "velocity": 0.15748031496062992,
                    "duration": 4.326663999999994
                },
                {
                    "name": "F#2",
                    "midi": 42,
                    "time": 367.76644000000107,
                    "velocity": 0.18110236220472442,
                    "duration": 4.326663999999994
                }
            ],
            "controlChanges": {
                "7": [
                    {
                        "number": 7,
                        "time": 0,
                        "value": 0.7874015748031497
                    }
                ],
                "10": [
                    {
                        "number": 10,
                        "time": 0,
                        "value": 0.5039370078740157
                    }
                ]
            },
            "id": 2,
            "name": "Piano left",
            "instrumentNumber": 0,
            "instrument": "acoustic grand piano",
            "instrumentFamily": "piano",
            "channelNumber": 0,
            "isPercussion": false
        },
        {
            "startTime": 0,
            "duration": 0,
            "length": 0,
            "notes": [],
            "controlChanges": {
                "64": [
                    {
                        "number": 64,
                        "time": 0.007887147916666667,
                        "value": 1
                    },
                    {
                        "number": 64,
                        "time": 4.332297677083334,
                        "value": 0
                    },
                    {
                        "number": 64,
                        "time": 4.469759397916667,
                        "value": 1
                    },
                    {
                        "number": 64,
                        "time": 8.653328000000002,
                        "value": 0
                    },
                    {
                        "number": 64,
                        "time": 8.79642339791667,
                        "value": 1
                    },
                    {
                        "number": 64,
                        "time": 10.833561031250003,
                        "value": 0
                    },
                    {
                        "number": 64,
                        "time": 10.943981102083336,
                        "value": 1
                    },
                    {
                        "number": 64,
                        "time": 12.986752412500003,
                        "value": 0
                    },
                    {
                        "number": 64,
                        "time": 13.10956657291667,
                        "value": 1
                    },
                    {
                        "number": 64,
                        "time": 14.070671883333336,
                        "value": 0
                    },
                    {
                        "number": 64,
                        "time": 14.158557245833336,
                        "value": 1
                    },
                    {
                        "number": 64,
                        "time": 15.15459135416667,
                        "value": 0
                    },
                    {
                        "number": 64,
                        "time": 15.278532250000003,
                        "value": 1
                    },
                    {
                        "number": 64,
                        "time": 16.781597295833336,
                        "value": 0
                    },
                    {
                        "number": 64,
                        "time": 16.862722245833336,
                        "value": 1
                    },
                    {
                        "number": 64,
                        "time": 17.306656000000004,
                        "value": 0
                    },
                    {
                        "number": 64,
                        "time": 17.577072500000003,
                        "value": 1
                    },
                    {
                        "number": 64,
                        "time": 21.638953677083336,
                        "value": 0
                    },
                    {
                        "number": 64,
                        "time": 21.77641539791667,
                        "value": 1
                    },
                    {
                        "number": 64,
                        "time": 24.88958535416667,
                        "value": 0
                    },
                    {
                        "number": 64,
                        "time": 25.01352625,
                        "value": 1
                    },
                    {
                        "number": 64,
                        "time": 25.959984000000002,
                        "value": 0
                    },
                    {
                        "number": 64,
                        "time": 26.10307939791667,
                        "value": 1
                    },
                    {
                        "number": 64,
                        "time": 27.05629756041667,
                        "value": 0
                    },
                    {
                        "number": 64,
                        "time": 27.192632545833337,
                        "value": 1
                    },
                    {
                        "number": 64,
                        "time": 28.140217031250003,
                        "value": 0
                    },
                    {
                        "number": 64,
                        "time": 28.250637102083335,
                        "value": 1
                    },
                    {
                        "number": 64,
                        "time": 30.292281677083334,
                        "value": 0
                    },
                    {
                        "number": 64,
                        "time": 30.429743397916667,
                        "value": 1
                    },
                    {
                        "number": 64,
                        "time": 32.464627560416666,
                        "value": 0
                    },
                    {
                        "number": 64,
                        "time": 32.633637872916665,
                        "value": 1
                    },
                    {
                        "number": 64,
                        "time": 34.613312,
                        "value": 0
                    },
                    {
                        "number": 64,
                        "time": 34.789082725,
                        "value": 1
                    },
                    {
                        "number": 64,
                        "time": 36.792418295833336,
                        "value": 0
                    },
                    {
                        "number": 64,
                        "time": 36.931006752083334,
                        "value": 1
                    },
                    {
                        "number": 64,
                        "time": 38.94560967708333,
                        "value": 0
                    },
                    {
                        "number": 64,
                        "time": 39.08307139791667,
                        "value": 1
                    },
                    {
                        "number": 64,
                        "time": 41.11119514791667,
                        "value": 0
                    },
                    {
                        "number": 64,
                        "time": 41.29485302083334,
                        "value": 1
                    },
                    {
                        "number": 64,
                        "time": 43.26664,
                        "value": 0
                    },
                    {
                        "number": 64,
                        "time": 43.442410725,
                        "value": 1
                    },
                    {
                        "number": 64,
                        "time": 45.44574629583334,
                        "value": 0
                    },
                    {
                        "number": 64,
                        "time": 45.584334752083336,
                        "value": 1
                    },
                    {
                        "number": 64,
                        "time": 46.525158825000005,
                        "value": 0
                    },
                    {
                        "number": 64,
                        "time": 46.64121257291667,
                        "value": 1
                    },
                    {
                        "number": 64,
                        "time": 47.59893767708334,
                        "value": 0
                    },
                    {
                        "number": 64,
                        "time": 47.73639939791668,
                        "value": 1
                    },
                    {
                        "number": 64,
                        "time": 49.76452314791668,
                        "value": 0
                    },
                    {
                        "number": 64,
                        "time": 49.948181020833346,
                        "value": 1
                    },
                    {
                        "number": 64,
                        "time": 51.91996800000001,
                        "value": 0
                    },
                    {
                        "number": 64,
                        "time": 52.06306339791668,
                        "value": 1
                    },
                    {
                        "number": 64,
                        "time": 54.10020103125001,
                        "value": 0
                    },
                    {
                        "number": 64,
                        "time": 54.210621102083344,
                        "value": 1
                    },
                    {
                        "number": 64,
                        "time": 55.17848682500001,
                        "value": 0
                    },
                    {
                        "number": 64,
                        "time": 55.28439995416667,
                        "value": 1
                    },
                    {
                        "number": 64,
                        "time": 56.246632000000005,
                        "value": 0
                    },
                    {
                        "number": 64,
                        "time": 56.38972739791667,
                        "value": 1
                    },
                    {
                        "number": 64,
                        "time": 58.42686503125,
                        "value": 0
                    },
                    {
                        "number": 64,
                        "time": 58.53728510208334,
                        "value": 1
                    },
                    {
                        "number": 64,
                        "time": 59.505150825,
                        "value": 0
                    },
                    {
                        "number": 64,
                        "time": 59.61106395416667,
                        "value": 1
                    },
                    {
                        "number": 64,
                        "time": 60.573296,
                        "value": 0
                    },
                    {
                        "number": 64,
                        "time": 60.71639139791667,
                        "value": 1
                    },
                    {
                        "number": 64,
                        "time": 62.75352903125,
                        "value": 0
                    },
                    {
                        "number": 64,
                        "time": 62.86394910208333,
                        "value": 1
                    },
                    {
                        "number": 64,
                        "time": 63.831814824999995,
                        "value": 0
                    },
                    {
                        "number": 64,
                        "time": 63.93772795416666,
                        "value": 1
                    },
                    {
                        "number": 64,
                        "time": 64.89996,
                        "value": 0
                    },
                    {
                        "number": 64,
                        "time": 65.04305539791666,
                        "value": 1
                    },
                    {
                        "number": 64,
                        "time": 67.06329199999999,
                        "value": 0
                    },
                    {
                        "number": 64,
                        "time": 67.20638739791666,
                        "value": 1
                    },
                    {
                        "number": 64,
                        "time": 68.16073229583333,
                        "value": 0
                    },
                    {
                        "number": 64,
                        "time": 68.29932075208333,
                        "value": 1
                    },
                    {
                        "number": 64,
                        "time": 69.226624,
                        "value": 0
                    },
                    {
                        "number": 64,
                        "time": 69.40239472500001,
                        "value": 1
                    },
                    {
                        "number": 64,
                        "time": 71.40573029583334,
                        "value": 0
                    },
                    {
                        "number": 64,
                        "time": 71.54431875208334,
                        "value": 1
                    },
                    {
                        "number": 64,
                        "time": 72.48739629583334,
                        "value": 0
                    },
                    {
                        "number": 64,
                        "time": 72.63274516458334,
                        "value": 1
                    },
                    {
                        "number": 64,
                        "time": 73.55892167708335,
                        "value": 0
                    },
                    {
                        "number": 64,
                        "time": 73.69638339791668,
                        "value": 1
                    },
                    {
                        "number": 64,
                        "time": 75.72450714791668,
                        "value": 0
                    },
                    {
                        "number": 64,
                        "time": 75.90816502083335,
                        "value": 1
                    },
                    {
                        "number": 64,
                        "time": 77.87995200000002,
                        "value": 0
                    },
                    {
                        "number": 64,
                        "time": 78.05572272500002,
                        "value": 1
                    },
                    {
                        "number": 64,
                        "time": 80.05905829583335,
                        "value": 0
                    },
                    {
                        "number": 64,
                        "time": 80.19764675208336,
                        "value": 1
                    },
                    {
                        "number": 64,
                        "time": 81.13847082500003,
                        "value": 0
                    },
                    {
                        "number": 64,
                        "time": 81.2545245729167,
                        "value": 1
                    },
                    {
                        "number": 64,
                        "time": 82.21224967708336,
                        "value": 0
                    },
                    {
                        "number": 64,
                        "time": 82.34971139791669,
                        "value": 1
                    },
                    {
                        "number": 64,
                        "time": 84.3778351479167,
                        "value": 0
                    },
                    {
                        "number": 64,
                        "time": 84.4860017479167,
                        "value": 1
                    },
                    {
                        "number": 64,
                        "time": 86.53328000000003,
                        "value": 0
                    },
                    {
                        "number": 64,
                        "time": 86.6763753979167,
                        "value": 1
                    },
                    {
                        "number": 64,
                        "time": 88.71351303125003,
                        "value": 0
                    },
                    {
                        "number": 64,
                        "time": 88.82393310208336,
                        "value": 1
                    },
                    {
                        "number": 64,
                        "time": 89.79179882500003,
                        "value": 0
                    },
                    {
                        "number": 64,
                        "time": 89.8977119541667,
                        "value": 1
                    },
                    {
                        "number": 64,
                        "time": 90.85994400000003,
                        "value": 0
                    },
                    {
                        "number": 64,
                        "time": 91.0030393979167,
                        "value": 1
                    },
                    {
                        "number": 64,
                        "time": 93.04017703125002,
                        "value": 0
                    },
                    {
                        "number": 64,
                        "time": 93.15059710208335,
                        "value": 1
                    },
                    {
                        "number": 64,
                        "time": 94.11846282500002,
                        "value": 0
                    },
                    {
                        "number": 64,
                        "time": 94.22437595416669,
                        "value": 1
                    },
                    {
                        "number": 64,
                        "time": 95.18660800000002,
                        "value": 0
                    },
                    {
                        "number": 64,
                        "time": 95.32970339791669,
                        "value": 1
                    },
                    {
                        "number": 64,
                        "time": 97.36684103125002,
                        "value": 0
                    },
                    {
                        "number": 64,
                        "time": 97.47726110208335,
                        "value": 1
                    },
                    {
                        "number": 64,
                        "time": 98.44512682500002,
                        "value": 0
                    },
                    {
                        "number": 64,
                        "time": 98.55103995416668,
                        "value": 1
                    },
                    {
                        "number": 64,
                        "time": 99.51327200000001,
                        "value": 0
                    },
                    {
                        "number": 64,
                        "time": 99.65636739791668,
                        "value": 1
                    },
                    {
                        "number": 64,
                        "time": 102.77404429583335,
                        "value": 0
                    },
                    {
                        "number": 64,
                        "time": 102.91263275208335,
                        "value": 1
                    },
                    {
                        "number": 64,
                        "time": 103.83993600000002,
                        "value": 0
                    },
                    {
                        "number": 64,
                        "time": 103.98303139791669,
                        "value": 1
                    },
                    {
                        "number": 64,
                        "time": 106.01566208958336,
                        "value": 0
                    },
                    {
                        "number": 64,
                        "time": 106.17002484166669,
                        "value": 1
                    },
                    {
                        "number": 64,
                        "time": 108.16660000000002,
                        "value": 0
                    },
                    {
                        "number": 64,
                        "time": 108.27025965833334,
                        "value": 1
                    },
                    {
                        "number": 64,
                        "time": 109.25953335416668,
                        "value": 0
                    },
                    {
                        "number": 64,
                        "time": 109.34516524583334,
                        "value": 1
                    },
                    {
                        "number": 64,
                        "time": 110.34232608958334,
                        "value": 0
                    },
                    {
                        "number": 64,
                        "time": 110.43359165833334,
                        "value": 1
                    },
                    {
                        "number": 64,
                        "time": 111.42511882500001,
                        "value": 0
                    },
                    {
                        "number": 64,
                        "time": 111.52765174791668,
                        "value": 1
                    },
                    {
                        "number": 64,
                        "time": 112.50565808958335,
                        "value": 0
                    },
                    {
                        "number": 64,
                        "time": 112.59692365833335,
                        "value": 1
                    },
                    {
                        "number": 64,
                        "time": 113.59295776666669,
                        "value": 0
                    },
                    {
                        "number": 64,
                        "time": 113.67070251041669,
                        "value": 1
                    },
                    {
                        "number": 64,
                        "time": 114.67124356041668,
                        "value": 0
                    },
                    {
                        "number": 64,
                        "time": 114.76476260000001,
                        "value": 1
                    },
                    {
                        "number": 64,
                        "time": 115.751782825,
                        "value": 0
                    },
                    {
                        "number": 64,
                        "time": 115.82952756875001,
                        "value": 1
                    },
                    {
                        "number": 64,
                        "time": 116.819928,
                        "value": 0
                    },
                    {
                        "number": 64,
                        "time": 116.96302339791667,
                        "value": 1
                    },
                    {
                        "number": 64,
                        "time": 118.99565408958334,
                        "value": 0
                    },
                    {
                        "number": 64,
                        "time": 119.15001684166667,
                        "value": 1
                    },
                    {
                        "number": 64,
                        "time": 121.146592,
                        "value": 0
                    },
                    {
                        "number": 64,
                        "time": 121.25025165833333,
                        "value": 1
                    },
                    {
                        "number": 64,
                        "time": 122.23952535416666,
                        "value": 0
                    },
                    {
                        "number": 64,
                        "time": 122.32515724583332,
                        "value": 1
                    },
                    {
                        "number": 64,
                        "time": 123.32231808958332,
                        "value": 0
                    },
                    {
                        "number": 64,
                        "time": 123.41358365833332,
                        "value": 1
                    },
                    {
                        "number": 64,
                        "time": 124.405110825,
                        "value": 0
                    },
                    {
                        "number": 64,
                        "time": 124.50764374791666,
                        "value": 1
                    },
                    {
                        "number": 64,
                        "time": 125.48565008958333,
                        "value": 0
                    },
                    {
                        "number": 64,
                        "time": 125.57691565833333,
                        "value": 1
                    },
                    {
                        "number": 64,
                        "time": 126.57294976666667,
                        "value": 0
                    },
                    {
                        "number": 64,
                        "time": 126.65069451041667,
                        "value": 1
                    },
                    {
                        "number": 64,
                        "time": 127.65123556041667,
                        "value": 0
                    },
                    {
                        "number": 64,
                        "time": 127.7447546,
                        "value": 1
                    },
                    {
                        "number": 64,
                        "time": 128.731774825,
                        "value": 0
                    },
                    {
                        "number": 64,
                        "time": 128.80951956875,
                        "value": 1
                    },
                    {
                        "number": 64,
                        "time": 129.81231408958334,
                        "value": 0
                    },
                    {
                        "number": 64,
                        "time": 129.90357965833334,
                        "value": 1
                    },
                    {
                        "number": 64,
                        "time": 130.89961376666668,
                        "value": 0
                    },
                    {
                        "number": 64,
                        "time": 130.97735851041668,
                        "value": 1
                    },
                    {
                        "number": 64,
                        "time": 131.9778995604167,
                        "value": 0
                    },
                    {
                        "number": 64,
                        "time": 132.07141860000002,
                        "value": 1
                    },
                    {
                        "number": 64,
                        "time": 133.05843882500002,
                        "value": 0
                    },
                    {
                        "number": 64,
                        "time": 133.13618356875003,
                        "value": 1
                    },
                    {
                        "number": 64,
                        "time": 134.16601973958336,
                        "value": 0
                    },
                    {
                        "number": 64,
                        "time": 134.29446757708337,
                        "value": 1
                    },
                    {
                        "number": 64,
                        "time": 136.30569029583336,
                        "value": 0
                    },
                    {
                        "number": 64,
                        "time": 136.38005483333336,
                        "value": 1
                    },
                    {
                        "number": 64,
                        "time": 138.45550147083335,
                        "value": 0
                    },
                    {
                        "number": 64,
                        "time": 138.54338683333336,
                        "value": 1
                    },
                    {
                        "number": 64,
                        "time": 140.63348103125003,
                        "value": 0
                    },
                    {
                        "number": 64,
                        "time": 140.7393941604167,
                        "value": 1
                    },
                    {
                        "number": 64,
                        "time": 142.77991200000005,
                        "value": 0
                    },
                    {
                        "number": 64,
                        "time": 142.88357165833338,
                        "value": 1
                    },
                    {
                        "number": 64,
                        "time": 144.95338461875005,
                        "value": 0
                    },
                    {
                        "number": 64,
                        "time": 145.07056510208338,
                        "value": 1
                    },
                    {
                        "number": 64,
                        "time": 147.10657600000005,
                        "value": 0
                    },
                    {
                        "number": 64,
                        "time": 147.21023565833337,
                        "value": 1
                    },
                    {
                        "number": 64,
                        "time": 149.26990800000004,
                        "value": 0
                    },
                    {
                        "number": 64,
                        "time": 149.37356765833337,
                        "value": 1
                    },
                    {
                        "number": 64,
                        "time": 151.43324000000004,
                        "value": 0
                    },
                    {
                        "number": 64,
                        "time": 151.53689965833337,
                        "value": 1
                    },
                    {
                        "number": 64,
                        "time": 153.59657200000004,
                        "value": 0
                    },
                    {
                        "number": 64,
                        "time": 153.70023165833337,
                        "value": 1
                    },
                    {
                        "number": 64,
                        "time": 154.69063208958337,
                        "value": 0
                    },
                    {
                        "number": 64,
                        "time": 154.83260075208338,
                        "value": 1
                    },
                    {
                        "number": 64,
                        "time": 155.75990400000003,
                        "value": 0
                    },
                    {
                        "number": 64,
                        "time": 155.86356365833336,
                        "value": 1
                    },
                    {
                        "number": 64,
                        "time": 157.9345033541667,
                        "value": 0
                    },
                    {
                        "number": 64,
                        "time": 158.0268956583334,
                        "value": 1
                    },
                    {
                        "number": 64,
                        "time": 160.08656800000006,
                        "value": 0
                    },
                    {
                        "number": 64,
                        "time": 160.19022765833338,
                        "value": 1
                    },
                    {
                        "number": 64,
                        "time": 162.24990000000005,
                        "value": 0
                    },
                    {
                        "number": 64,
                        "time": 162.35355965833338,
                        "value": 1
                    },
                    {
                        "number": 64,
                        "time": 163.3439600895834,
                        "value": 0
                    },
                    {
                        "number": 64,
                        "time": 163.44761974791672,
                        "value": 1
                    },
                    {
                        "number": 64,
                        "time": 164.41323200000005,
                        "value": 0
                    },
                    {
                        "number": 64,
                        "time": 164.51689165833338,
                        "value": 1
                    },
                    {
                        "number": 64,
                        "time": 168.73989600000004,
                        "value": 0
                    },
                    {
                        "number": 64,
                        "time": 168.8829913979167,
                        "value": 1
                    },
                    {
                        "number": 64,
                        "time": 170.91562208958337,
                        "value": 0
                    },
                    {
                        "number": 64,
                        "time": 171.0699848416667,
                        "value": 1
                    },
                    {
                        "number": 64,
                        "time": 173.07895408958336,
                        "value": 0
                    },
                    {
                        "number": 64,
                        "time": 173.2333168416667,
                        "value": 1
                    },
                    {
                        "number": 64,
                        "time": 175.24228608958336,
                        "value": 0
                    },
                    {
                        "number": 64,
                        "time": 175.3966488416667,
                        "value": 1
                    },
                    {
                        "number": 64,
                        "time": 177.39322400000003,
                        "value": 0
                    },
                    {
                        "number": 64,
                        "time": 177.47322221458336,
                        "value": 1
                    },
                    {
                        "number": 64,
                        "time": 178.48390388333337,
                        "value": 0
                    },
                    {
                        "number": 64,
                        "time": 178.6179853979167,
                        "value": 1
                    },
                    {
                        "number": 64,
                        "time": 179.5712035604167,
                        "value": 0
                    },
                    {
                        "number": 64,
                        "time": 179.70753854583336,
                        "value": 1
                    },
                    {
                        "number": 64,
                        "time": 180.651742825,
                        "value": 0
                    },
                    {
                        "number": 64,
                        "time": 180.79709169375002,
                        "value": 1
                    },
                    {
                        "number": 64,
                        "time": 181.71988800000003,
                        "value": 0
                    },
                    {
                        "number": 64,
                        "time": 181.82354765833335,
                        "value": 1
                    },
                    {
                        "number": 64,
                        "time": 183.89561408958335,
                        "value": 0
                    },
                    {
                        "number": 64,
                        "time": 183.97899251041667,
                        "value": 1
                    },
                    {
                        "number": 64,
                        "time": 186.04655200000002,
                        "value": 0
                    },
                    {
                        "number": 64,
                        "time": 186.18964739791667,
                        "value": 1
                    },
                    {
                        "number": 64,
                        "time": 188.22227808958334,
                        "value": 0
                    },
                    {
                        "number": 64,
                        "time": 188.37664084166667,
                        "value": 1
                    },
                    {
                        "number": 64,
                        "time": 190.38561008958334,
                        "value": 0
                    },
                    {
                        "number": 64,
                        "time": 190.53997284166667,
                        "value": 1
                    },
                    {
                        "number": 64,
                        "time": 192.54894208958333,
                        "value": 0
                    },
                    {
                        "number": 64,
                        "time": 192.70330484166666,
                        "value": 1
                    },
                    {
                        "number": 64,
                        "time": 194.69988,
                        "value": 0
                    },
                    {
                        "number": 64,
                        "time": 194.77987821458333,
                        "value": 1
                    },
                    {
                        "number": 64,
                        "time": 195.79055988333334,
                        "value": 0
                    },
                    {
                        "number": 64,
                        "time": 195.92464139791667,
                        "value": 1
                    },
                    {
                        "number": 64,
                        "time": 196.87785956041668,
                        "value": 0
                    },
                    {
                        "number": 64,
                        "time": 197.01419454583333,
                        "value": 1
                    },
                    {
                        "number": 64,
                        "time": 197.958398825,
                        "value": 0
                    },
                    {
                        "number": 64,
                        "time": 198.10374769375,
                        "value": 1
                    },
                    {
                        "number": 64,
                        "time": 199.026544,
                        "value": 0
                    },
                    {
                        "number": 64,
                        "time": 199.13020365833333,
                        "value": 1
                    },
                    {
                        "number": 64,
                        "time": 201.20227008958332,
                        "value": 0
                    },
                    {
                        "number": 64,
                        "time": 201.28564851041665,
                        "value": 1
                    },
                    {
                        "number": 64,
                        "time": 203.353208,
                        "value": 0
                    },
                    {
                        "number": 64,
                        "time": 203.49630339791665,
                        "value": 1
                    },
                    {
                        "number": 64,
                        "time": 205.53344103125,
                        "value": 0
                    },
                    {
                        "number": 64,
                        "time": 205.64386110208332,
                        "value": 1
                    },
                    {
                        "number": 64,
                        "time": 207.679872,
                        "value": 0
                    },
                    {
                        "number": 64,
                        "time": 207.6821254708333,
                        "value": 0
                    },
                    {
                        "number": 64,
                        "time": 207.77001083333332,
                        "value": 1
                    },
                    {
                        "number": 64,
                        "time": 209.86010503125,
                        "value": 0
                    },
                    {
                        "number": 64,
                        "time": 209.86010503125,
                        "value": 0
                    },
                    {
                        "number": 64,
                        "time": 209.96601816041667,
                        "value": 1
                    },
                    {
                        "number": 64,
                        "time": 209.97052510208334,
                        "value": 1
                    },
                    {
                        "number": 64,
                        "time": 210.938390825,
                        "value": 0
                    },
                    {
                        "number": 64,
                        "time": 211.04430395416668,
                        "value": 1
                    },
                    {
                        "number": 64,
                        "time": 212.006536,
                        "value": 0
                    },
                    {
                        "number": 64,
                        "time": 212.006536,
                        "value": 0
                    },
                    {
                        "number": 64,
                        "time": 212.14963139791666,
                        "value": 1
                    },
                    {
                        "number": 64,
                        "time": 212.14963139791666,
                        "value": 1
                    },
                    {
                        "number": 64,
                        "time": 214.18676903125,
                        "value": 0
                    },
                    {
                        "number": 64,
                        "time": 214.18676903125,
                        "value": 0
                    },
                    {
                        "number": 64,
                        "time": 214.29718910208334,
                        "value": 1
                    },
                    {
                        "number": 64,
                        "time": 214.29718910208334,
                        "value": 1
                    },
                    {
                        "number": 64,
                        "time": 215.265054825,
                        "value": 0
                    },
                    {
                        "number": 64,
                        "time": 215.265054825,
                        "value": 0
                    },
                    {
                        "number": 64,
                        "time": 215.37096795416667,
                        "value": 1
                    },
                    {
                        "number": 64,
                        "time": 215.37096795416667,
                        "value": 1
                    },
                    {
                        "number": 64,
                        "time": 216.3332,
                        "value": 0
                    },
                    {
                        "number": 64,
                        "time": 216.3332,
                        "value": 0
                    },
                    {
                        "number": 64,
                        "time": 216.43685965833333,
                        "value": 1
                    },
                    {
                        "number": 64,
                        "time": 218.50779935416668,
                        "value": 0
                    },
                    {
                        "number": 64,
                        "time": 218.60019165833336,
                        "value": 1
                    },
                    {
                        "number": 64,
                        "time": 219.59397229583337,
                        "value": 0
                    },
                    {
                        "number": 64,
                        "time": 219.73256075208337,
                        "value": 1
                    },
                    {
                        "number": 64,
                        "time": 220.65986400000003,
                        "value": 0
                    },
                    {
                        "number": 64,
                        "time": 220.76352365833336,
                        "value": 1
                    },
                    {
                        "number": 64,
                        "time": 222.8344633541667,
                        "value": 0
                    },
                    {
                        "number": 64,
                        "time": 222.92685565833338,
                        "value": 1
                    },
                    {
                        "number": 64,
                        "time": 224.98652800000005,
                        "value": 0
                    },
                    {
                        "number": 64,
                        "time": 225.09018765833338,
                        "value": 1
                    },
                    {
                        "number": 64,
                        "time": 227.16112735416672,
                        "value": 0
                    },
                    {
                        "number": 64,
                        "time": 227.2535196583334,
                        "value": 1
                    },
                    {
                        "number": 64,
                        "time": 229.31319200000007,
                        "value": 0
                    },
                    {
                        "number": 64,
                        "time": 229.45628739791673,
                        "value": 1
                    },
                    {
                        "number": 64,
                        "time": 231.4889180895834,
                        "value": 0
                    },
                    {
                        "number": 64,
                        "time": 231.49455176666672,
                        "value": 0
                    },
                    {
                        "number": 64,
                        "time": 231.5632826270834,
                        "value": 1
                    },
                    {
                        "number": 64,
                        "time": 232.57509103125005,
                        "value": 0
                    },
                    {
                        "number": 64,
                        "time": 232.67762395416673,
                        "value": 1
                    },
                    {
                        "number": 64,
                        "time": 233.6522500895834,
                        "value": 0
                    },
                    {
                        "number": 64,
                        "time": 233.6556302958334,
                        "value": 0
                    },
                    {
                        "number": 64,
                        "time": 233.82351387291672,
                        "value": 1
                    },
                    {
                        "number": 64,
                        "time": 235.8155820895834,
                        "value": 0
                    },
                    {
                        "number": 64,
                        "time": 235.96994484166672,
                        "value": 1
                    },
                    {
                        "number": 64,
                        "time": 237.96652000000006,
                        "value": 0
                    },
                    {
                        "number": 64,
                        "time": 237.97215367708338,
                        "value": 0
                    },
                    {
                        "number": 64,
                        "time": 238.0465182145834,
                        "value": 1
                    },
                    {
                        "number": 64,
                        "time": 239.0571998833334,
                        "value": 0
                    },
                    {
                        "number": 64,
                        "time": 239.19128139791673,
                        "value": 1
                    },
                    {
                        "number": 64,
                        "time": 240.14449956041673,
                        "value": 0
                    },
                    {
                        "number": 64,
                        "time": 240.2808345458334,
                        "value": 1
                    },
                    {
                        "number": 64,
                        "time": 241.22503882500004,
                        "value": 0
                    },
                    {
                        "number": 64,
                        "time": 241.37038769375005,
                        "value": 1
                    },
                    {
                        "number": 64,
                        "time": 242.29318400000005,
                        "value": 0
                    },
                    {
                        "number": 64,
                        "time": 242.29318400000005,
                        "value": 0
                    },
                    {
                        "number": 64,
                        "time": 242.39684365833338,
                        "value": 1
                    },
                    {
                        "number": 64,
                        "time": 244.46891008958337,
                        "value": 0
                    },
                    {
                        "number": 64,
                        "time": 244.47341703125005,
                        "value": 0
                    },
                    {
                        "number": 64,
                        "time": 244.55228851041673,
                        "value": 1
                    },
                    {
                        "number": 64,
                        "time": 246.61984800000008,
                        "value": 0
                    },
                    {
                        "number": 64,
                        "time": 246.62660841250008,
                        "value": 0
                    },
                    {
                        "number": 64,
                        "time": 246.76294339791673,
                        "value": 1
                    },
                    {
                        "number": 64,
                        "time": 247.71052788333338,
                        "value": 0
                    },
                    {
                        "number": 64,
                        "time": 247.7984132458334,
                        "value": 1
                    },
                    {
                        "number": 64,
                        "time": 248.79444735416672,
                        "value": 0
                    },
                    {
                        "number": 64,
                        "time": 248.7955740895834,
                        "value": 0
                    },
                    {
                        "number": 64,
                        "time": 248.91838825000008,
                        "value": 1
                    },
                    {
                        "number": 64,
                        "time": 250.4214532958334,
                        "value": 0
                    },
                    {
                        "number": 64,
                        "time": 250.5025782458334,
                        "value": 1
                    },
                    {
                        "number": 64,
                        "time": 250.94651200000007,
                        "value": 0
                    },
                    {
                        "number": 64,
                        "time": 250.9589060895834,
                        "value": 0
                    },
                    {
                        "number": 64,
                        "time": 251.11326884166672,
                        "value": 1
                    },
                    {
                        "number": 64,
                        "time": 253.1222380895834,
                        "value": 0
                    },
                    {
                        "number": 64,
                        "time": 253.27660084166672,
                        "value": 1
                    },
                    {
                        "number": 64,
                        "time": 255.27317600000006,
                        "value": 0
                    },
                    {
                        "number": 64,
                        "time": 255.2788096770834,
                        "value": 0
                    },
                    {
                        "number": 64,
                        "time": 255.3531742145834,
                        "value": 1
                    },
                    {
                        "number": 64,
                        "time": 256.3638558833334,
                        "value": 0
                    },
                    {
                        "number": 64,
                        "time": 256.4979373979167,
                        "value": 1
                    },
                    {
                        "number": 64,
                        "time": 257.4511555604167,
                        "value": 0
                    },
                    {
                        "number": 64,
                        "time": 257.58749054583336,
                        "value": 1
                    },
                    {
                        "number": 64,
                        "time": 258.5294413541667,
                        "value": 0
                    },
                    {
                        "number": 64,
                        "time": 258.53169482500005,
                        "value": 0
                    },
                    {
                        "number": 64,
                        "time": 258.65338225000005,
                        "value": 1
                    },
                    {
                        "number": 64,
                        "time": 259.59984000000003,
                        "value": 0
                    },
                    {
                        "number": 64,
                        "time": 259.59984000000003,
                        "value": 0
                    },
                    {
                        "number": 64,
                        "time": 259.7034996583334,
                        "value": 1
                    },
                    {
                        "number": 64,
                        "time": 260.69615356041675,
                        "value": 0
                    },
                    {
                        "number": 64,
                        "time": 260.8324885458334,
                        "value": 1
                    },
                    {
                        "number": 64,
                        "time": 261.77556608958344,
                        "value": 0
                    },
                    {
                        "number": 64,
                        "time": 261.7800730312501,
                        "value": 0
                    },
                    {
                        "number": 64,
                        "time": 261.89049310208344,
                        "value": 1
                    },
                    {
                        "number": 64,
                        "time": 263.9265040000001,
                        "value": 0
                    },
                    {
                        "number": 64,
                        "time": 263.9321376770834,
                        "value": 0
                    },
                    {
                        "number": 64,
                        "time": 264.06959939791676,
                        "value": 1
                    },
                    {
                        "number": 64,
                        "time": 264.06959939791676,
                        "value": 1
                    },
                    {
                        "number": 64,
                        "time": 266.1044835604168,
                        "value": 0
                    },
                    {
                        "number": 64,
                        "time": 266.10673703125013,
                        "value": 0
                    },
                    {
                        "number": 64,
                        "time": 266.2171571020835,
                        "value": 1
                    },
                    {
                        "number": 64,
                        "time": 268.25316800000013,
                        "value": 0
                    },
                    {
                        "number": 64,
                        "time": 268.25316800000013,
                        "value": 0
                    },
                    {
                        "number": 64,
                        "time": 268.3962633979168,
                        "value": 1
                    },
                    {
                        "number": 64,
                        "time": 270.43227429583345,
                        "value": 0
                    },
                    {
                        "number": 64,
                        "time": 270.4334010312501,
                        "value": 0
                    },
                    {
                        "number": 64,
                        "time": 270.5438211020835,
                        "value": 1
                    },
                    {
                        "number": 64,
                        "time": 271.51168682500014,
                        "value": 0
                    },
                    {
                        "number": 64,
                        "time": 271.5139402958335,
                        "value": 0
                    },
                    {
                        "number": 64,
                        "time": 271.6018256583335,
                        "value": 1
                    },
                    {
                        "number": 64,
                        "time": 272.5798320000002,
                        "value": 0
                    },
                    {
                        "number": 64,
                        "time": 272.5854656770835,
                        "value": 0
                    },
                    {
                        "number": 64,
                        "time": 272.72292739791686,
                        "value": 1
                    },
                    {
                        "number": 64,
                        "time": 272.72292739791686,
                        "value": 1
                    },
                    {
                        "number": 64,
                        "time": 274.7510511479169,
                        "value": 0
                    },
                    {
                        "number": 64,
                        "time": 274.76006503125024,
                        "value": 0
                    },
                    {
                        "number": 64,
                        "time": 274.8704851020836,
                        "value": 1
                    },
                    {
                        "number": 64,
                        "time": 276.90649600000023,
                        "value": 0
                    },
                    {
                        "number": 64,
                        "time": 276.90649600000023,
                        "value": 0
                    },
                    {
                        "number": 64,
                        "time": 277.0495913979169,
                        "value": 1
                    },
                    {
                        "number": 64,
                        "time": 279.08560229583355,
                        "value": 0
                    },
                    {
                        "number": 64,
                        "time": 279.22419075208353,
                        "value": 1
                    },
                    {
                        "number": 64,
                        "time": 280.1650148250002,
                        "value": 0
                    },
                    {
                        "number": 64,
                        "time": 280.16726829583354,
                        "value": 0
                    },
                    {
                        "number": 64,
                        "time": 280.3058567520835,
                        "value": 1
                    },
                    {
                        "number": 64,
                        "time": 281.2387936770835,
                        "value": 0
                    },
                    {
                        "number": 64,
                        "time": 281.37625539791685,
                        "value": 1
                    },
                    {
                        "number": 64,
                        "time": 283.40437914791687,
                        "value": 0
                    },
                    {
                        "number": 64,
                        "time": 283.58803702083355,
                        "value": 1
                    },
                    {
                        "number": 64,
                        "time": 285.5598240000002,
                        "value": 0
                    },
                    {
                        "number": 64,
                        "time": 285.7029193979169,
                        "value": 1
                    },
                    {
                        "number": 64,
                        "time": 287.7400570312502,
                        "value": 0
                    },
                    {
                        "number": 64,
                        "time": 287.8504771020836,
                        "value": 1
                    },
                    {
                        "number": 64,
                        "time": 288.81834282500023,
                        "value": 0
                    },
                    {
                        "number": 64,
                        "time": 288.9242559541669,
                        "value": 1
                    },
                    {
                        "number": 64,
                        "time": 289.8864880000002,
                        "value": 0
                    },
                    {
                        "number": 64,
                        "time": 290.0295833979169,
                        "value": 1
                    },
                    {
                        "number": 64,
                        "time": 292.0667210312502,
                        "value": 0
                    },
                    {
                        "number": 64,
                        "time": 292.17714110208357,
                        "value": 1
                    },
                    {
                        "number": 64,
                        "time": 293.1450068250002,
                        "value": 0
                    },
                    {
                        "number": 64,
                        "time": 293.2509199541669,
                        "value": 1
                    },
                    {
                        "number": 64,
                        "time": 294.2131520000002,
                        "value": 0
                    },
                    {
                        "number": 64,
                        "time": 294.3562473979169,
                        "value": 1
                    },
                    {
                        "number": 64,
                        "time": 296.3933850312502,
                        "value": 0
                    },
                    {
                        "number": 64,
                        "time": 296.50380510208356,
                        "value": 1
                    },
                    {
                        "number": 64,
                        "time": 297.4716708250002,
                        "value": 0
                    },
                    {
                        "number": 64,
                        "time": 297.57758395416687,
                        "value": 1
                    },
                    {
                        "number": 64,
                        "time": 298.5398160000002,
                        "value": 0
                    },
                    {
                        "number": 64,
                        "time": 298.6829113979169,
                        "value": 1
                    },
                    {
                        "number": 64,
                        "time": 300.7031480000002,
                        "value": 0
                    },
                    {
                        "number": 64,
                        "time": 300.8462433979169,
                        "value": 1
                    },
                    {
                        "number": 64,
                        "time": 301.80058829583356,
                        "value": 0
                    },
                    {
                        "number": 64,
                        "time": 301.93917675208354,
                        "value": 1
                    },
                    {
                        "number": 64,
                        "time": 302.8664800000002,
                        "value": 0
                    },
                    {
                        "number": 64,
                        "time": 303.0095753979169,
                        "value": 1
                    },
                    {
                        "number": 64,
                        "time": 305.0467130312502,
                        "value": 0
                    },
                    {
                        "number": 64,
                        "time": 305.15713310208355,
                        "value": 1
                    },
                    {
                        "number": 64,
                        "time": 306.1249988250002,
                        "value": 0
                    },
                    {
                        "number": 64,
                        "time": 306.23091195416686,
                        "value": 1
                    },
                    {
                        "number": 64,
                        "time": 307.1931440000002,
                        "value": 0
                    },
                    {
                        "number": 64,
                        "time": 307.33623939791687,
                        "value": 1
                    },
                    {
                        "number": 64,
                        "time": 309.3733770312502,
                        "value": 0
                    },
                    {
                        "number": 64,
                        "time": 309.48379710208354,
                        "value": 1
                    },
                    {
                        "number": 64,
                        "time": 310.4516628250002,
                        "value": 0
                    },
                    {
                        "number": 64,
                        "time": 310.55757595416685,
                        "value": 1
                    },
                    {
                        "number": 64,
                        "time": 311.5198080000002,
                        "value": 0
                    },
                    {
                        "number": 64,
                        "time": 311.66290339791686,
                        "value": 1
                    },
                    {
                        "number": 64,
                        "time": 313.7000410312502,
                        "value": 0
                    },
                    {
                        "number": 64,
                        "time": 313.81046110208354,
                        "value": 1
                    },
                    {
                        "number": 64,
                        "time": 314.7783268250002,
                        "value": 0
                    },
                    {
                        "number": 64,
                        "time": 314.88423995416684,
                        "value": 1
                    },
                    {
                        "number": 64,
                        "time": 315.8464720000002,
                        "value": 0
                    },
                    {
                        "number": 64,
                        "time": 315.98956739791686,
                        "value": 1
                    },
                    {
                        "number": 64,
                        "time": 318.0255782958335,
                        "value": 0
                    },
                    {
                        "number": 64,
                        "time": 318.32867012291683,
                        "value": 1
                    },
                    {
                        "number": 64,
                        "time": 320.17313600000017,
                        "value": 0
                    },
                    {
                        "number": 64,
                        "time": 320.31623139791685,
                        "value": 1
                    },
                    {
                        "number": 64,
                        "time": 322.3522422958335,
                        "value": 0
                    },
                    {
                        "number": 64,
                        "time": 322.6553341229168,
                        "value": 1
                    },
                    {
                        "number": 64,
                        "time": 324.49980000000016,
                        "value": 0
                    },
                    {
                        "number": 64,
                        "time": 324.64289539791685,
                        "value": 1
                    },
                    {
                        "number": 64,
                        "time": 326.6789062958335,
                        "value": 0
                    },
                    {
                        "number": 64,
                        "time": 326.88622561250014,
                        "value": 1
                    },
                    {
                        "number": 64,
                        "time": 328.82646400000016,
                        "value": 0
                    },
                    {
                        "number": 64,
                        "time": 328.96955939791684,
                        "value": 1
                    },
                    {
                        "number": 64,
                        "time": 331.00669703125016,
                        "value": 0
                    },
                    {
                        "number": 64,
                        "time": 331.1171171020835,
                        "value": 1
                    },
                    {
                        "number": 64,
                        "time": 332.08498282500017,
                        "value": 0
                    },
                    {
                        "number": 64,
                        "time": 332.1908959541668,
                        "value": 1
                    },
                    {
                        "number": 64,
                        "time": 333.15312800000015,
                        "value": 0
                    },
                    {
                        "number": 64,
                        "time": 333.29622339791683,
                        "value": 1
                    },
                    {
                        "number": 64,
                        "time": 335.3322342958335,
                        "value": 0
                    },
                    {
                        "number": 64,
                        "time": 335.6353261229168,
                        "value": 1
                    },
                    {
                        "number": 64,
                        "time": 337.47979200000015,
                        "value": 0
                    },
                    {
                        "number": 64,
                        "time": 337.6228873979168,
                        "value": 1
                    },
                    {
                        "number": 64,
                        "time": 339.65889829583347,
                        "value": 0
                    },
                    {
                        "number": 64,
                        "time": 339.8369224916668,
                        "value": 1
                    },
                    {
                        "number": 64,
                        "time": 341.80645600000014,
                        "value": 0
                    },
                    {
                        "number": 64,
                        "time": 341.9495513979168,
                        "value": 1
                    },
                    {
                        "number": 64,
                        "time": 343.98556229583346,
                        "value": 0
                    },
                    {
                        "number": 64,
                        "time": 344.2886541229168,
                        "value": 1
                    },
                    {
                        "number": 64,
                        "time": 346.13312000000013,
                        "value": 0
                    },
                    {
                        "number": 64,
                        "time": 346.2762153979168,
                        "value": 1
                    },
                    {
                        "number": 64,
                        "time": 348.3291273270835,
                        "value": 0
                    },
                    {
                        "number": 64,
                        "time": 348.43954739791684,
                        "value": 1
                    },
                    {
                        "number": 64,
                        "time": 349.4074131208335,
                        "value": 0
                    },
                    {
                        "number": 64,
                        "time": 349.51332625000015,
                        "value": 1
                    },
                    {
                        "number": 64,
                        "time": 350.4597840000001,
                        "value": 0
                    },
                    {
                        "number": 64,
                        "time": 350.6028793979168,
                        "value": 1
                    },
                    {
                        "number": 64,
                        "time": 351.5560975604168,
                        "value": 0
                    },
                    {
                        "number": 64,
                        "time": 351.66877110208344,
                        "value": 1
                    },
                    {
                        "number": 64,
                        "time": 352.09693056041675,
                        "value": 0
                    },
                    {
                        "number": 64,
                        "time": 352.2017169541667,
                        "value": 1
                    },
                    {
                        "number": 64,
                        "time": 352.6557913270834,
                        "value": 0
                    },
                    {
                        "number": 64,
                        "time": 352.7662113979168,
                        "value": 1
                    },
                    {
                        "number": 64,
                        "time": 353.73407712083343,
                        "value": 0
                    },
                    {
                        "number": 64,
                        "time": 353.8399902500001,
                        "value": 1
                    },
                    {
                        "number": 64,
                        "time": 354.78644800000006,
                        "value": 0
                    },
                    {
                        "number": 64,
                        "time": 354.92954339791675,
                        "value": 1
                    },
                    {
                        "number": 64,
                        "time": 355.8827615604167,
                        "value": 0
                    },
                    {
                        "number": 64,
                        "time": 355.9954351020834,
                        "value": 1
                    },
                    {
                        "number": 64,
                        "time": 356.4235945604167,
                        "value": 0
                    },
                    {
                        "number": 64,
                        "time": 356.52838095416666,
                        "value": 1
                    },
                    {
                        "number": 64,
                        "time": 356.98245532708336,
                        "value": 0
                    },
                    {
                        "number": 64,
                        "time": 357.0928753979167,
                        "value": 1
                    },
                    {
                        "number": 64,
                        "time": 358.06074112083337,
                        "value": 0
                    },
                    {
                        "number": 64,
                        "time": 358.16665425,
                        "value": 1
                    },
                    {
                        "number": 64,
                        "time": 359.113112,
                        "value": 0
                    },
                    {
                        "number": 64,
                        "time": 359.2562073979167,
                        "value": 1
                    },
                    {
                        "number": 64,
                        "time": 375.3088068791667,
                        "value": 0
                    }
                ]
            },
            "id": 3,
            "name": "Pedal"
        },
        {
            "startTime": 0,
            "duration": 0,
            "length": 0,
            "notes": [],
            "controlChanges": {},
            "id": 4,
            "name": "Schubert: Impromptus No.3 , Op. 90 - D 899"
        },
        {
            "startTime": 0,
            "duration": 0,
            "length": 0,
            "notes": [],
            "controlChanges": {},
            "id": 5,
            "name": "Copyright  2007 by Bernd Krueger"
        },
        {
            "startTime": 0,
            "duration": 0,
            "length": 0,
            "notes": [],
            "controlChanges": {},
            "id": 6,
            "name": "http://www.piano-midi.de"
        },
        {
            "startTime": 0,
            "duration": 0,
            "length": 0,
            "notes": [],
            "controlChanges": {},
            "id": 7,
            "name": "Edition: 2014-03-19"
        }
    ]
}