{
    "header": {
        "PPQ": 480,
        "timeSignature": [
            3,
            4
        ],
        "bpm": 143.8600529404995,
        "name": "Wichtige Begebenheit"
    },
    "startTime": 0,
    "duration": 40.87305600000005,
    "tracks": [
        {
            "startTime": 0,
            "duration": 0,
            "length": 0,
            "notes": [],
            "controlChanges": {},
            "id": 0,
            "name": "Wichtige Begebenheit"
        },
        {
            "startTime": 0.8341439999999999,
            "duration": 40.873055999999906,
            "length": 310,
            "notes": [
                {
                    "name": "C#5",
                    "midi": 73,
                    "time": 0.8341439999999999,
                    "velocity": 0.7086614173228346,
                    "duration": 0.417072
                },
                {
                    "name": "A5",
                    "midi": 81,
                    "time": 0.8341439999999999,
                    "velocity": 0.7874015748031497,
                    "duration": 0.417072
                },
                {
                    "name": "E5",
                    "midi": 76,
                    "time": 0.8341439999999999,
                    "velocity": 0.7086614173228346,
                    "duration": 0.417072
                },
                {
                    "name": "B4",
                    "midi": 71,
                    "time": 1.2512159999999999,
                    "velocity": 0.7086614173228346,
                    "duration": 0.31280399999999986
                },
                {
                    "name": "G#5",
                    "midi": 80,
                    "time": 1.2512159999999999,
                    "velocity": 0.7874015748031497,
                    "duration": 0.31280399999999986
                },
                {
                    "name": "E5",
                    "midi": 76,
                    "time": 1.2512159999999999,
                    "velocity": 0.7086614173228346,
                    "duration": 0.31280399999999986
                },
                {
                    "name": "A4",
                    "midi": 69,
                    "time": 1.5640199999999997,
                    "velocity": 0.6377952755905512,
                    "duration": 0.10426800000000003
                },
                {
                    "name": "D#5",
                    "midi": 75,
                    "time": 1.5640199999999997,
                    "velocity": 0.6377952755905512,
                    "duration": 0.10426800000000003
                },
                {
                    "name": "F#5",
                    "midi": 78,
                    "time": 1.5640199999999997,
                    "velocity": 0.7086614173228346,
                    "duration": 0.10426800000000003
                },
                {
                    "name": "E5",
                    "midi": 76,
                    "time": 1.6682879999999998,
                    "velocity": 0.7401574803149606,
                    "duration": 0.399694
                },
                {
                    "name": "C#5",
                    "midi": 73,
                    "time": 1.6682879999999998,
                    "velocity": 0.6614173228346457,
                    "duration": 0.399694
                },
                {
                    "name": "G#4",
                    "midi": 68,
                    "time": 1.6682879999999998,
                    "velocity": 0.6614173228346457,
                    "duration": 0.399694
                },
                {
                    "name": "A4",
                    "midi": 69,
                    "time": 2.0853599999999997,
                    "velocity": 0.6220472440944882,
                    "duration": 0.3996940000000002
                },
                {
                    "name": "C#5",
                    "midi": 73,
                    "time": 2.0853599999999997,
                    "velocity": 0.6220472440944882,
                    "duration": 0.3996940000000002
                },
                {
                    "name": "F#5",
                    "midi": 78,
                    "time": 2.0853599999999997,
                    "velocity": 0.6929133858267716,
                    "duration": 0.3996940000000002
                },
                {
                    "name": "D#5",
                    "midi": 75,
                    "time": 2.5024319999999998,
                    "velocity": 0.7007874015748031,
                    "duration": 0.3996940000000002
                },
                {
                    "name": "F#4",
                    "midi": 66,
                    "time": 2.5024319999999998,
                    "velocity": 0.6299212598425197,
                    "duration": 0.3996940000000002
                },
                {
                    "name": "B4",
                    "midi": 71,
                    "time": 2.5024319999999998,
                    "velocity": 0.6299212598425197,
                    "duration": 0.3996940000000002
                },
                {
                    "name": "G#4",
                    "midi": 68,
                    "time": 2.919504,
                    "velocity": 0.6377952755905512,
                    "duration": 0.31280399999999986
                },
                {
                    "name": "B4",
                    "midi": 71,
                    "time": 2.919504,
                    "velocity": 0.6377952755905512,
                    "duration": 0.31280399999999986
                },
                {
                    "name": "E5",
                    "midi": 76,
                    "time": 2.919504,
                    "velocity": 0.7165354330708661,
                    "duration": 0.31280399999999986
                },
                {
                    "name": "D5",
                    "midi": 74,
                    "time": 3.3365759999999995,
                    "velocity": 0.7165354330708661,
                    "duration": 0.4170719999999992
                },
                {
                    "name": "B4",
                    "midi": 71,
                    "time": 3.3365759999999995,
                    "velocity": 0.6377952755905512,
                    "duration": 0.4170719999999992
                },
                {
                    "name": "F#4",
                    "midi": 66,
                    "time": 3.3365759999999995,
                    "velocity": 0.7165354330708661,
                    "duration": 0.1042679999999998
                },
                {
                    "name": "E4",
                    "midi": 64,
                    "time": 3.545111999999999,
                    "velocity": 0.7165354330708661,
                    "duration": 0.1042679999999998
                },
                {
                    "name": "E4",
                    "midi": 64,
                    "time": 3.7536479999999988,
                    "velocity": 0.6456692913385826,
                    "duration": 0.3128040000000003
                },
                {
                    "name": "C#5",
                    "midi": 73,
                    "time": 3.7536479999999988,
                    "velocity": 0.7244094488188977,
                    "duration": 0.3128040000000003
                },
                {
                    "name": "A4",
                    "midi": 69,
                    "time": 3.7536479999999988,
                    "velocity": 0.6456692913385826,
                    "duration": 0.3128040000000003
                },
                {
                    "name": "D4",
                    "midi": 62,
                    "time": 4.066451999999999,
                    "velocity": 0.6141732283464567,
                    "duration": 0.10426800000000025
                },
                {
                    "name": "G#4",
                    "midi": 68,
                    "time": 4.066451999999999,
                    "velocity": 0.6141732283464567,
                    "duration": 0.10426800000000025
                },
                {
                    "name": "B4",
                    "midi": 71,
                    "time": 4.066451999999999,
                    "velocity": 0.6850393700787402,
                    "duration": 0.10426800000000025
                },
                {
                    "name": "A4",
                    "midi": 69,
                    "time": 4.170719999999999,
                    "velocity": 0.6850393700787402,
                    "duration": 0.3996940000000002
                },
                {
                    "name": "F#4",
                    "midi": 66,
                    "time": 4.170719999999999,
                    "velocity": 0.6141732283464567,
                    "duration": 0.3996940000000002
                },
                {
                    "name": "C#4",
                    "midi": 61,
                    "time": 4.170719999999999,
                    "velocity": 0.6141732283464567,
                    "duration": 0.3996940000000002
                },
                {
                    "name": "D4",
                    "midi": 62,
                    "time": 4.587791999999999,
                    "velocity": 0.6377952755905512,
                    "duration": 0.3996940000000002
                },
                {
                    "name": "F#4",
                    "midi": 66,
                    "time": 4.587791999999999,
                    "velocity": 0.6377952755905512,
                    "duration": 0.3996940000000002
                },
                {
                    "name": "B4",
                    "midi": 71,
                    "time": 4.587791999999999,
                    "velocity": 0.7086614173228346,
                    "duration": 0.3996940000000002
                },
                {
                    "name": "G#4",
                    "midi": 68,
                    "time": 5.0048639999999995,
                    "velocity": 0.6850393700787402,
                    "duration": 0.3996940000000002
                },
                {
                    "name": "B3",
                    "midi": 59,
                    "time": 5.0048639999999995,
                    "velocity": 0.6141732283464567,
                    "duration": 0.3996940000000002
                },
                {
                    "name": "E4",
                    "midi": 64,
                    "time": 5.0048639999999995,
                    "velocity": 0.6141732283464567,
                    "duration": 0.3996940000000002
                },
                {
                    "name": "C#4",
                    "midi": 61,
                    "time": 5.421936,
                    "velocity": 0.6141732283464567,
                    "duration": 0.31280399999999986
                },
                {
                    "name": "E4",
                    "midi": 64,
                    "time": 5.421936,
                    "velocity": 0.6141732283464567,
                    "duration": 0.31280399999999986
                },
                {
                    "name": "A4",
                    "midi": 69,
                    "time": 5.421936,
                    "velocity": 0.6850393700787402,
                    "duration": 0.31280399999999986
                },
                {
                    "name": "E4",
                    "midi": 64,
                    "time": 5.839008,
                    "velocity": 0.5984251968503937,
                    "duration": 0.4170720000000001
                },
                {
                    "name": "C#4",
                    "midi": 61,
                    "time": 5.839008,
                    "velocity": 0.5984251968503937,
                    "duration": 0.4170720000000001
                },
                {
                    "name": "A4",
                    "midi": 69,
                    "time": 5.839008,
                    "velocity": 0.6692913385826772,
                    "duration": 0.4170720000000001
                },
                {
                    "name": "B3",
                    "midi": 59,
                    "time": 6.25608,
                    "velocity": 0.5984251968503937,
                    "duration": 0.31280399999999986
                },
                {
                    "name": "E4",
                    "midi": 64,
                    "time": 6.25608,
                    "velocity": 0.6692913385826772,
                    "duration": 0.31280399999999986
                },
                {
                    "name": "G#4",
                    "midi": 68,
                    "time": 6.25608,
                    "velocity": 0.6692913385826772,
                    "duration": 0.31280399999999986
                },
                {
                    "name": "D#4",
                    "midi": 63,
                    "time": 6.568884,
                    "velocity": 0.5984251968503937,
                    "duration": 0.10426800000000025
                },
                {
                    "name": "A3",
                    "midi": 57,
                    "time": 6.568884,
                    "velocity": 0.5354330708661418,
                    "duration": 0.10426800000000025
                },
                {
                    "name": "F#4",
                    "midi": 66,
                    "time": 6.568884,
                    "velocity": 0.5984251968503937,
                    "duration": 0.10426800000000025
                },
                {
                    "name": "G#3",
                    "midi": 56,
                    "time": 6.673152,
                    "velocity": 0.5590551181102362,
                    "duration": 0.3996940000000002
                },
                {
                    "name": "E4",
                    "midi": 64,
                    "time": 6.673152,
                    "velocity": 0.6220472440944882,
                    "duration": 0.3996940000000002
                },
                {
                    "name": "C#4",
                    "midi": 61,
                    "time": 6.673152,
                    "velocity": 0.5590551181102362,
                    "duration": 0.3996940000000002
                },
                {
                    "name": "C#4",
                    "midi": 61,
                    "time": 7.090224,
                    "velocity": 0.5196850393700787,
                    "duration": 0.3996940000000002
                },
                {
                    "name": "A3",
                    "midi": 57,
                    "time": 7.090224,
                    "velocity": 0.5196850393700787,
                    "duration": 0.3996940000000002
                },
                {
                    "name": "F#4",
                    "midi": 66,
                    "time": 7.090224,
                    "velocity": 0.5826771653543307,
                    "duration": 0.3996940000000002
                },
                {
                    "name": "F#3",
                    "midi": 54,
                    "time": 7.507296,
                    "velocity": 0.5275590551181102,
                    "duration": 0.3996940000000002
                },
                {
                    "name": "D#4",
                    "midi": 63,
                    "time": 7.507296,
                    "velocity": 0.5905511811023622,
                    "duration": 0.3996940000000002
                },
                {
                    "name": "B3",
                    "midi": 59,
                    "time": 7.507296,
                    "velocity": 0.5275590551181102,
                    "duration": 0.3996940000000002
                },
                {
                    "name": "G#3",
                    "midi": 56,
                    "time": 7.924368,
                    "velocity": 0.5433070866141733,
                    "duration": 0.31280400000000075
                },
                {
                    "name": "B3",
                    "midi": 59,
                    "time": 7.924368,
                    "velocity": 0.5433070866141733,
                    "duration": 0.31280400000000075
                },
                {
                    "name": "E4",
                    "midi": 64,
                    "time": 7.924368,
                    "velocity": 0.6062992125984252,
                    "duration": 0.31280400000000075
                },
                {
                    "name": "D4",
                    "midi": 62,
                    "time": 8.34144,
                    "velocity": 0.5826771653543307,
                    "duration": 0.41707199999999744
                },
                {
                    "name": "B3",
                    "midi": 59,
                    "time": 8.34144,
                    "velocity": 0.5196850393700787,
                    "duration": 0.41707199999999744
                },
                {
                    "name": "F#3",
                    "midi": 54,
                    "time": 8.34144,
                    "velocity": 0.5826771653543307,
                    "duration": 0.10426799999999936
                },
                {
                    "name": "E3",
                    "midi": 52,
                    "time": 8.549976,
                    "velocity": 0.5826771653543307,
                    "duration": 0.10426799999999936
                },
                {
                    "name": "E3",
                    "midi": 52,
                    "time": 8.758511999999998,
                    "velocity": 0.5354330708661418,
                    "duration": 0.31280399999999986
                },
                {
                    "name": "A3",
                    "midi": 57,
                    "time": 8.758511999999998,
                    "velocity": 0.5984251968503937,
                    "duration": 0.31280399999999986
                },
                {
                    "name": "C#4",
                    "midi": 61,
                    "time": 8.758511999999998,
                    "velocity": 0.5984251968503937,
                    "duration": 0.31280399999999986
                },
                {
                    "name": "G#3",
                    "midi": 56,
                    "time": 9.071315999999998,
                    "velocity": 0.47244094488188976,
                    "duration": 0.10426799999999936
                },
                {
                    "name": "D3",
                    "midi": 50,
                    "time": 9.071315999999998,
                    "velocity": 0.47244094488188976,
                    "duration": 0.10426799999999936
                },
                {
                    "name": "B3",
                    "midi": 59,
                    "time": 9.071315999999998,
                    "velocity": 0.5275590551181102,
                    "duration": 0.10426799999999936
                },
                {
                    "name": "C#3",
                    "midi": 49,
                    "time": 9.175583999999997,
                    "velocity": 0.47244094488188976,
                    "duration": 0.3996940000000002
                },
                {
                    "name": "A3",
                    "midi": 57,
                    "time": 9.175583999999997,
                    "velocity": 0.5275590551181102,
                    "duration": 0.3996940000000002
                },
                {
                    "name": "F#3",
                    "midi": 54,
                    "time": 9.175583999999997,
                    "velocity": 0.47244094488188976,
                    "duration": 0.3996940000000002
                },
                {
                    "name": "F#3",
                    "midi": 54,
                    "time": 9.592655999999998,
                    "velocity": 0.49606299212598426,
                    "duration": 0.3996940000000002
                },
                {
                    "name": "D3",
                    "midi": 50,
                    "time": 9.592655999999998,
                    "velocity": 0.49606299212598426,
                    "duration": 0.3996940000000002
                },
                {
                    "name": "B3",
                    "midi": 59,
                    "time": 9.592655999999998,
                    "velocity": 0.5590551181102362,
                    "duration": 0.3996940000000002
                },
                {
                    "name": "B2",
                    "midi": 47,
                    "time": 10.009727999999999,
                    "velocity": 0.47244094488188976,
                    "duration": 0.3996940000000002
                },
                {
                    "name": "G#3",
                    "midi": 56,
                    "time": 10.009727999999999,
                    "velocity": 0.5275590551181102,
                    "duration": 0.3996940000000002
                },
                {
                    "name": "E3",
                    "midi": 52,
                    "time": 10.009727999999999,
                    "velocity": 0.47244094488188976,
                    "duration": 0.3996940000000002
                },
                {
                    "name": "C#3",
                    "midi": 49,
                    "time": 10.4268,
                    "velocity": 0.4409448818897638,
                    "duration": 0.31280399999999986
                },
                {
                    "name": "E3",
                    "midi": 52,
                    "time": 10.4268,
                    "velocity": 0.4409448818897638,
                    "duration": 0.31280399999999986
                },
                {
                    "name": "A3",
                    "midi": 57,
                    "time": 10.4268,
                    "velocity": 0.49606299212598426,
                    "duration": 0.31280399999999986
                },
                {
                    "name": "A3",
                    "midi": 57,
                    "time": 10.843872,
                    "velocity": 0.5196850393700787,
                    "duration": 0.4170719999999992
                },
                {
                    "name": "C#4",
                    "midi": 61,
                    "time": 10.843872,
                    "velocity": 0.5196850393700787,
                    "duration": 0.4170719999999992
                },
                {
                    "name": "E4",
                    "midi": 64,
                    "time": 10.843872,
                    "velocity": 0.5196850393700787,
                    "duration": 0.4170719999999992
                },
                {
                    "name": "A4",
                    "midi": 69,
                    "time": 10.843872,
                    "velocity": 0.5826771653543307,
                    "duration": 0.4170719999999992
                },
                {
                    "name": "A3",
                    "midi": 57,
                    "time": 11.260943999999999,
                    "velocity": 0.5669291338582677,
                    "duration": 0.8341440000000002
                },
                {
                    "name": "D4",
                    "midi": 62,
                    "time": 11.260943999999999,
                    "velocity": 0.5669291338582677,
                    "duration": 0.8341440000000002
                },
                {
                    "name": "F#4",
                    "midi": 66,
                    "time": 11.260943999999999,
                    "velocity": 0.5669291338582677,
                    "duration": 0.8341440000000002
                },
                {
                    "name": "A4",
                    "midi": 69,
                    "time": 11.260943999999999,
                    "velocity": 0.6299212598425197,
                    "duration": 0.8341440000000002
                },
                {
                    "name": "A3",
                    "midi": 57,
                    "time": 12.095087999999999,
                    "velocity": 0.5039370078740157,
                    "duration": 0.4170719999999992
                },
                {
                    "name": "D4",
                    "midi": 62,
                    "time": 12.095087999999999,
                    "velocity": 0.5039370078740157,
                    "duration": 0.4170719999999992
                },
                {
                    "name": "F#4",
                    "midi": 66,
                    "time": 12.095087999999999,
                    "velocity": 0.5039370078740157,
                    "duration": 0.4170719999999992
                },
                {
                    "name": "A4",
                    "midi": 69,
                    "time": 12.095087999999999,
                    "velocity": 0.5669291338582677,
                    "duration": 0.4170719999999992
                },
                {
                    "name": "B4",
                    "midi": 71,
                    "time": 12.512159999999998,
                    "velocity": 0.6220472440944882,
                    "duration": 0.8341440000000002
                },
                {
                    "name": "D4",
                    "midi": 62,
                    "time": 12.512159999999998,
                    "velocity": 0.5590551181102362,
                    "duration": 0.8341440000000002
                },
                {
                    "name": "E4",
                    "midi": 64,
                    "time": 12.512159999999998,
                    "velocity": 0.5590551181102362,
                    "duration": 0.8341440000000002
                },
                {
                    "name": "G4",
                    "midi": 67,
                    "time": 12.512159999999998,
                    "velocity": 0.5590551181102362,
                    "duration": 0.8341440000000002
                },
                {
                    "name": "D4",
                    "midi": 62,
                    "time": 13.346303999999998,
                    "velocity": 0.5039370078740157,
                    "duration": 0.4170719999999992
                },
                {
                    "name": "E4",
                    "midi": 64,
                    "time": 13.346303999999998,
                    "velocity": 0.5039370078740157,
                    "duration": 0.4170719999999992
                },
                {
                    "name": "G4",
                    "midi": 67,
                    "time": 13.346303999999998,
                    "velocity": 0.5039370078740157,
                    "duration": 0.4170719999999992
                },
                {
                    "name": "B4",
                    "midi": 71,
                    "time": 13.346303999999998,
                    "velocity": 0.5669291338582677,
                    "duration": 0.4170719999999992
                },
                {
                    "name": "G3",
                    "midi": 55,
                    "time": 13.763375999999997,
                    "velocity": 0.4330708661417323,
                    "duration": 0.2085360000000005
                },
                {
                    "name": "A3",
                    "midi": 57,
                    "time": 13.763375999999997,
                    "velocity": 0.4330708661417323,
                    "duration": 0.2085360000000005
                },
                {
                    "name": "C#4",
                    "midi": 61,
                    "time": 13.763375999999997,
                    "velocity": 0.4330708661417323,
                    "duration": 0.2085360000000005
                },
                {
                    "name": "E4",
                    "midi": 64,
                    "time": 13.763375999999997,
                    "velocity": 0.4881889763779528,
                    "duration": 0.2085360000000005
                },
                {
                    "name": "G3",
                    "midi": 55,
                    "time": 14.180447999999998,
                    "velocity": 0.4330708661417323,
                    "duration": 0.2085360000000005
                },
                {
                    "name": "A3",
                    "midi": 57,
                    "time": 14.180447999999998,
                    "velocity": 0.4330708661417323,
                    "duration": 0.2085360000000005
                },
                {
                    "name": "C#4",
                    "midi": 61,
                    "time": 14.180447999999998,
                    "velocity": 0.4330708661417323,
                    "duration": 0.2085360000000005
                },
                {
                    "name": "E4",
                    "midi": 64,
                    "time": 14.180447999999998,
                    "velocity": 0.4881889763779528,
                    "duration": 0.2085360000000005
                },
                {
                    "name": "G3",
                    "midi": 55,
                    "time": 14.59752,
                    "velocity": 0.4330708661417323,
                    "duration": 0.2085360000000005
                },
                {
                    "name": "A3",
                    "midi": 57,
                    "time": 14.59752,
                    "velocity": 0.4330708661417323,
                    "duration": 0.2085360000000005
                },
                {
                    "name": "C#4",
                    "midi": 61,
                    "time": 14.59752,
                    "velocity": 0.4330708661417323,
                    "duration": 0.2085360000000005
                },
                {
                    "name": "E4",
                    "midi": 64,
                    "time": 14.59752,
                    "velocity": 0.4881889763779528,
                    "duration": 0.2085360000000005
                },
                {
                    "name": "C4",
                    "midi": 60,
                    "time": 15.014592,
                    "velocity": 0.5039370078740157,
                    "duration": 1.2512159999999994
                },
                {
                    "name": "D4",
                    "midi": 62,
                    "time": 15.014592,
                    "velocity": 0.5039370078740157,
                    "duration": 1.2512159999999994
                },
                {
                    "name": "A4",
                    "midi": 69,
                    "time": 15.014592,
                    "velocity": 0.5669291338582677,
                    "duration": 1.2512159999999994
                },
                {
                    "name": "G3",
                    "midi": 55,
                    "time": 16.265808,
                    "velocity": 0.41732283464566927,
                    "duration": 0.20853599999999872
                },
                {
                    "name": "C4",
                    "midi": 60,
                    "time": 16.265808,
                    "velocity": 0.41732283464566927,
                    "duration": 0.20853599999999872
                },
                {
                    "name": "D4",
                    "midi": 62,
                    "time": 16.265808,
                    "velocity": 0.4645669291338583,
                    "duration": 0.20853599999999872
                },
                {
                    "name": "G3",
                    "midi": 55,
                    "time": 16.682879999999997,
                    "velocity": 0.4330708661417323,
                    "duration": 0.20853599999999872
                },
                {
                    "name": "C4",
                    "midi": 60,
                    "time": 16.682879999999997,
                    "velocity": 0.4330708661417323,
                    "duration": 0.20853599999999872
                },
                {
                    "name": "D4",
                    "midi": 62,
                    "time": 16.682879999999997,
                    "velocity": 0.4881889763779528,
                    "duration": 0.20853599999999872
                },
                {
                    "name": "G3",
                    "midi": 55,
                    "time": 17.099951999999995,
                    "velocity": 0.4566929133858268,
                    "duration": 0.20853599999999872
                },
                {
                    "name": "C4",
                    "midi": 60,
                    "time": 17.099951999999995,
                    "velocity": 0.4566929133858268,
                    "duration": 0.20853599999999872
                },
                {
                    "name": "D4",
                    "midi": 62,
                    "time": 17.099951999999995,
                    "velocity": 0.5118110236220472,
                    "duration": 0.20853599999999872
                },
                {
                    "name": "G3",
                    "midi": 55,
                    "time": 17.517023999999992,
                    "velocity": 0.49606299212598426,
                    "duration": 0.417072000000001
                },
                {
                    "name": "B3",
                    "midi": 59,
                    "time": 17.517023999999992,
                    "velocity": 0.49606299212598426,
                    "duration": 0.417072000000001
                },
                {
                    "name": "D4",
                    "midi": 62,
                    "time": 17.517023999999992,
                    "velocity": 0.5590551181102362,
                    "duration": 0.417072000000001
                },
                {
                    "name": "G3",
                    "midi": 55,
                    "time": 17.934095999999993,
                    "velocity": 0.5669291338582677,
                    "duration": 0.20853599999999872
                },
                {
                    "name": "D4",
                    "midi": 62,
                    "time": 17.934095999999993,
                    "velocity": 0.5669291338582677,
                    "duration": 0.20853599999999872
                },
                {
                    "name": "G4",
                    "midi": 67,
                    "time": 17.934095999999993,
                    "velocity": 0.6299212598425197,
                    "duration": 0.20853599999999872
                },
                {
                    "name": "A3",
                    "midi": 57,
                    "time": 18.35116799999999,
                    "velocity": 0.5196850393700787,
                    "duration": 0.20853599999999872
                },
                {
                    "name": "D4",
                    "midi": 62,
                    "time": 18.35116799999999,
                    "velocity": 0.5196850393700787,
                    "duration": 0.20853599999999872
                },
                {
                    "name": "F#4",
                    "midi": 66,
                    "time": 18.35116799999999,
                    "velocity": 0.5826771653543307,
                    "duration": 0.20853599999999872
                },
                {
                    "name": "B3",
                    "midi": 59,
                    "time": 18.768239999999988,
                    "velocity": 0.5118110236220472,
                    "duration": 0.20853599999999872
                },
                {
                    "name": "D4",
                    "midi": 62,
                    "time": 18.768239999999988,
                    "velocity": 0.5118110236220472,
                    "duration": 0.20853599999999872
                },
                {
                    "name": "E4",
                    "midi": 64,
                    "time": 18.768239999999988,
                    "velocity": 0.5748031496062992,
                    "duration": 0.20853599999999872
                },
                {
                    "name": "B3",
                    "midi": 59,
                    "time": 19.081043999999988,
                    "velocity": 0.5354330708661418,
                    "duration": 0.10426800000000114
                },
                {
                    "name": "D4",
                    "midi": 62,
                    "time": 19.081043999999988,
                    "velocity": 0.5354330708661418,
                    "duration": 0.10426800000000114
                },
                {
                    "name": "F#4",
                    "midi": 66,
                    "time": 19.081043999999988,
                    "velocity": 0.5984251968503937,
                    "duration": 0.10426800000000114
                },
                {
                    "name": "B3",
                    "midi": 59,
                    "time": 19.18531199999999,
                    "velocity": 0.6299212598425197,
                    "duration": 0.20853599999999872
                },
                {
                    "name": "D4",
                    "midi": 62,
                    "time": 19.18531199999999,
                    "velocity": 0.6299212598425197,
                    "duration": 0.20853599999999872
                },
                {
                    "name": "G4",
                    "midi": 67,
                    "time": 19.18531199999999,
                    "velocity": 0.7007874015748031,
                    "duration": 0.20853599999999872
                },
                {
                    "name": "G3",
                    "midi": 55,
                    "time": 19.602383999999986,
                    "velocity": 0.48031496062992124,
                    "duration": 0.417072000000001
                },
                {
                    "name": "A3",
                    "midi": 57,
                    "time": 19.602383999999986,
                    "velocity": 0.48031496062992124,
                    "duration": 0.417072000000001
                },
                {
                    "name": "C#4",
                    "midi": 61,
                    "time": 19.602383999999986,
                    "velocity": 0.48031496062992124,
                    "duration": 0.417072000000001
                },
                {
                    "name": "E4",
                    "midi": 64,
                    "time": 19.602383999999986,
                    "velocity": 0.5354330708661418,
                    "duration": 0.417072000000001
                },
                {
                    "name": "F#3",
                    "midi": 54,
                    "time": 20.019455999999987,
                    "velocity": 0.5511811023622047,
                    "duration": 0.417072000000001
                },
                {
                    "name": "A3",
                    "midi": 57,
                    "time": 20.019455999999987,
                    "velocity": 0.5511811023622047,
                    "duration": 0.417072000000001
                },
                {
                    "name": "D4",
                    "midi": 62,
                    "time": 20.019455999999987,
                    "velocity": 0.6141732283464567,
                    "duration": 0.417072000000001
                },
                {
                    "name": "A3",
                    "midi": 57,
                    "time": 20.85359999999999,
                    "velocity": 0.5196850393700787,
                    "duration": 0.417072000000001
                },
                {
                    "name": "C#4",
                    "midi": 61,
                    "time": 20.85359999999999,
                    "velocity": 0.5196850393700787,
                    "duration": 0.417072000000001
                },
                {
                    "name": "E4",
                    "midi": 64,
                    "time": 20.85359999999999,
                    "velocity": 0.5196850393700787,
                    "duration": 0.417072000000001
                },
                {
                    "name": "A4",
                    "midi": 69,
                    "time": 20.85359999999999,
                    "velocity": 0.5826771653543307,
                    "duration": 0.417072000000001
                },
                {
                    "name": "A3",
                    "midi": 57,
                    "time": 21.27067199999999,
                    "velocity": 0.5669291338582677,
                    "duration": 0.8341439999999984
                },
                {
                    "name": "D4",
                    "midi": 62,
                    "time": 21.27067199999999,
                    "velocity": 0.5669291338582677,
                    "duration": 0.8341439999999984
                },
                {
                    "name": "F#4",
                    "midi": 66,
                    "time": 21.27067199999999,
                    "velocity": 0.5669291338582677,
                    "duration": 0.8341439999999984
                },
                {
                    "name": "A4",
                    "midi": 69,
                    "time": 21.27067199999999,
                    "velocity": 0.6299212598425197,
                    "duration": 0.8341439999999984
                },
                {
                    "name": "A3",
                    "midi": 57,
                    "time": 22.10481599999999,
                    "velocity": 0.5039370078740157,
                    "duration": 0.417072000000001
                },
                {
                    "name": "D4",
                    "midi": 62,
                    "time": 22.10481599999999,
                    "velocity": 0.5039370078740157,
                    "duration": 0.417072000000001
                },
                {
                    "name": "F#4",
                    "midi": 66,
                    "time": 22.10481599999999,
                    "velocity": 0.5039370078740157,
                    "duration": 0.417072000000001
                },
                {
                    "name": "A4",
                    "midi": 69,
                    "time": 22.10481599999999,
                    "velocity": 0.5669291338582677,
                    "duration": 0.417072000000001
                },
                {
                    "name": "B4",
                    "midi": 71,
                    "time": 22.52188799999999,
                    "velocity": 0.6220472440944882,
                    "duration": 0.8341439999999984
                },
                {
                    "name": "D4",
                    "midi": 62,
                    "time": 22.52188799999999,
                    "velocity": 0.5590551181102362,
                    "duration": 0.8341439999999984
                },
                {
                    "name": "E4",
                    "midi": 64,
                    "time": 22.52188799999999,
                    "velocity": 0.5590551181102362,
                    "duration": 0.8341439999999984
                },
                {
                    "name": "G4",
                    "midi": 67,
                    "time": 22.52188799999999,
                    "velocity": 0.5590551181102362,
                    "duration": 0.8341439999999984
                },
                {
                    "name": "D4",
                    "midi": 62,
                    "time": 23.35603199999999,
                    "velocity": 0.5039370078740157,
                    "duration": 0.417072000000001
                },
                {
                    "name": "E4",
                    "midi": 64,
                    "time": 23.35603199999999,
                    "velocity": 0.5039370078740157,
                    "duration": 0.417072000000001
                },
                {
                    "name": "G4",
                    "midi": 67,
                    "time": 23.35603199999999,
                    "velocity": 0.5039370078740157,
                    "duration": 0.417072000000001
                },
                {
                    "name": "B4",
                    "midi": 71,
                    "time": 23.35603199999999,
                    "velocity": 0.5669291338582677,
                    "duration": 0.417072000000001
                },
                {
                    "name": "G3",
                    "midi": 55,
                    "time": 23.77310399999999,
                    "velocity": 0.4251968503937008,
                    "duration": 0.20853599999999872
                },
                {
                    "name": "A3",
                    "midi": 57,
                    "time": 23.77310399999999,
                    "velocity": 0.4251968503937008,
                    "duration": 0.20853599999999872
                },
                {
                    "name": "C#4",
                    "midi": 61,
                    "time": 23.77310399999999,
                    "velocity": 0.4251968503937008,
                    "duration": 0.20853599999999872
                },
                {
                    "name": "E4",
                    "midi": 64,
                    "time": 23.77310399999999,
                    "velocity": 0.48031496062992124,
                    "duration": 0.20853599999999872
                },
                {
                    "name": "G3",
                    "midi": 55,
                    "time": 24.190175999999987,
                    "velocity": 0.4251968503937008,
                    "duration": 0.20853599999999872
                },
                {
                    "name": "A3",
                    "midi": 57,
                    "time": 24.190175999999987,
                    "velocity": 0.4251968503937008,
                    "duration": 0.20853599999999872
                },
                {
                    "name": "C#4",
                    "midi": 61,
                    "time": 24.190175999999987,
                    "velocity": 0.4251968503937008,
                    "duration": 0.20853599999999872
                },
                {
                    "name": "E4",
                    "midi": 64,
                    "time": 24.190175999999987,
                    "velocity": 0.48031496062992124,
                    "duration": 0.20853599999999872
                },
                {
                    "name": "G3",
                    "midi": 55,
                    "time": 24.607247999999984,
                    "velocity": 0.4251968503937008,
                    "duration": 0.20853599999999872
                },
                {
                    "name": "A3",
                    "midi": 57,
                    "time": 24.607247999999984,
                    "velocity": 0.4251968503937008,
                    "duration": 0.20853599999999872
                },
                {
                    "name": "C#4",
                    "midi": 61,
                    "time": 24.607247999999984,
                    "velocity": 0.4251968503937008,
                    "duration": 0.20853599999999872
                },
                {
                    "name": "E4",
                    "midi": 64,
                    "time": 24.607247999999984,
                    "velocity": 0.48031496062992124,
                    "duration": 0.20853599999999872
                },
                {
                    "name": "C4",
                    "midi": 60,
                    "time": 25.02431999999998,
                    "velocity": 0.5039370078740157,
                    "duration": 1.2512159999999994
                },
                {
                    "name": "D4",
                    "midi": 62,
                    "time": 25.02431999999998,
                    "velocity": 0.5039370078740157,
                    "duration": 1.2512159999999994
                },
                {
                    "name": "A4",
                    "midi": 69,
                    "time": 25.02431999999998,
                    "velocity": 0.5669291338582677,
                    "duration": 1.2512159999999994
                },
                {
                    "name": "G3",
                    "midi": 55,
                    "time": 26.27553599999998,
                    "velocity": 0.41732283464566927,
                    "duration": 0.20853599999999872
                },
                {
                    "name": "C4",
                    "midi": 60,
                    "time": 26.27553599999998,
                    "velocity": 0.41732283464566927,
                    "duration": 0.20853599999999872
                },
                {
                    "name": "D4",
                    "midi": 62,
                    "time": 26.27553599999998,
                    "velocity": 0.4645669291338583,
                    "duration": 0.20853599999999872
                },
                {
                    "name": "G3",
                    "midi": 55,
                    "time": 26.69260799999998,
                    "velocity": 0.4330708661417323,
                    "duration": 0.20853599999999872
                },
                {
                    "name": "C4",
                    "midi": 60,
                    "time": 26.69260799999998,
                    "velocity": 0.4330708661417323,
                    "duration": 0.20853599999999872
                },
                {
                    "name": "D4",
                    "midi": 62,
                    "time": 26.69260799999998,
                    "velocity": 0.4881889763779528,
                    "duration": 0.20853599999999872
                },
                {
                    "name": "G3",
                    "midi": 55,
                    "time": 27.109679999999976,
                    "velocity": 0.4566929133858268,
                    "duration": 0.20853599999999872
                },
                {
                    "name": "C4",
                    "midi": 60,
                    "time": 27.109679999999976,
                    "velocity": 0.4566929133858268,
                    "duration": 0.20853599999999872
                },
                {
                    "name": "D4",
                    "midi": 62,
                    "time": 27.109679999999976,
                    "velocity": 0.5118110236220472,
                    "duration": 0.20853599999999872
                },
                {
                    "name": "G3",
                    "midi": 55,
                    "time": 27.526751999999973,
                    "velocity": 0.49606299212598426,
                    "duration": 0.417072000000001
                },
                {
                    "name": "B3",
                    "midi": 59,
                    "time": 27.526751999999973,
                    "velocity": 0.49606299212598426,
                    "duration": 0.417072000000001
                },
                {
                    "name": "D4",
                    "midi": 62,
                    "time": 27.526751999999973,
                    "velocity": 0.5590551181102362,
                    "duration": 0.417072000000001
                },
                {
                    "name": "G3",
                    "midi": 55,
                    "time": 27.943823999999974,
                    "velocity": 0.5669291338582677,
                    "duration": 0.20853599999999872
                },
                {
                    "name": "D4",
                    "midi": 62,
                    "time": 27.943823999999974,
                    "velocity": 0.5669291338582677,
                    "duration": 0.20853599999999872
                },
                {
                    "name": "G4",
                    "midi": 67,
                    "time": 27.943823999999974,
                    "velocity": 0.6299212598425197,
                    "duration": 0.20853599999999872
                },
                {
                    "name": "A3",
                    "midi": 57,
                    "time": 28.360895999999972,
                    "velocity": 0.5196850393700787,
                    "duration": 0.20853599999999872
                },
                {
                    "name": "D4",
                    "midi": 62,
                    "time": 28.360895999999972,
                    "velocity": 0.5196850393700787,
                    "duration": 0.20853599999999872
                },
                {
                    "name": "F#4",
                    "midi": 66,
                    "time": 28.360895999999972,
                    "velocity": 0.5826771653543307,
                    "duration": 0.20853599999999872
                },
                {
                    "name": "B3",
                    "midi": 59,
                    "time": 28.77796799999997,
                    "velocity": 0.5118110236220472,
                    "duration": 0.20853599999999872
                },
                {
                    "name": "D4",
                    "midi": 62,
                    "time": 28.77796799999997,
                    "velocity": 0.5118110236220472,
                    "duration": 0.20853599999999872
                },
                {
                    "name": "E4",
                    "midi": 64,
                    "time": 28.77796799999997,
                    "velocity": 0.5748031496062992,
                    "duration": 0.20853599999999872
                },
                {
                    "name": "B3",
                    "midi": 59,
                    "time": 29.09077199999997,
                    "velocity": 0.5354330708661418,
                    "duration": 0.10426800000000114
                },
                {
                    "name": "D4",
                    "midi": 62,
                    "time": 29.09077199999997,
                    "velocity": 0.5354330708661418,
                    "duration": 0.10426800000000114
                },
                {
                    "name": "F#4",
                    "midi": 66,
                    "time": 29.09077199999997,
                    "velocity": 0.5984251968503937,
                    "duration": 0.10426800000000114
                },
                {
                    "name": "B3",
                    "midi": 59,
                    "time": 29.19503999999997,
                    "velocity": 0.6299212598425197,
                    "duration": 0.20853599999999872
                },
                {
                    "name": "D4",
                    "midi": 62,
                    "time": 29.19503999999997,
                    "velocity": 0.6299212598425197,
                    "duration": 0.20853599999999872
                },
                {
                    "name": "G4",
                    "midi": 67,
                    "time": 29.19503999999997,
                    "velocity": 0.7007874015748031,
                    "duration": 0.20853599999999872
                },
                {
                    "name": "G3",
                    "midi": 55,
                    "time": 29.612111999999968,
                    "velocity": 0.48031496062992124,
                    "duration": 0.417072000000001
                },
                {
                    "name": "A3",
                    "midi": 57,
                    "time": 29.612111999999968,
                    "velocity": 0.48031496062992124,
                    "duration": 0.417072000000001
                },
                {
                    "name": "C#4",
                    "midi": 61,
                    "time": 29.612111999999968,
                    "velocity": 0.48031496062992124,
                    "duration": 0.417072000000001
                },
                {
                    "name": "E4",
                    "midi": 64,
                    "time": 29.612111999999968,
                    "velocity": 0.5354330708661418,
                    "duration": 0.417072000000001
                },
                {
                    "name": "F#3",
                    "midi": 54,
                    "time": 30.02918399999997,
                    "velocity": 0.5511811023622047,
                    "duration": 0.417072000000001
                },
                {
                    "name": "A3",
                    "midi": 57,
                    "time": 30.02918399999997,
                    "velocity": 0.5511811023622047,
                    "duration": 0.417072000000001
                },
                {
                    "name": "D4",
                    "midi": 62,
                    "time": 30.02918399999997,
                    "velocity": 0.6141732283464567,
                    "duration": 0.417072000000001
                },
                {
                    "name": "A5",
                    "midi": 81,
                    "time": 30.86332799999997,
                    "velocity": 0.7086614173228346,
                    "duration": 0.417072000000001
                },
                {
                    "name": "C#5",
                    "midi": 73,
                    "time": 30.86332799999997,
                    "velocity": 0.6377952755905512,
                    "duration": 0.417072000000001
                },
                {
                    "name": "E5",
                    "midi": 76,
                    "time": 30.86332799999997,
                    "velocity": 0.6377952755905512,
                    "duration": 0.417072000000001
                },
                {
                    "name": "B4",
                    "midi": 71,
                    "time": 31.280399999999972,
                    "velocity": 0.6377952755905512,
                    "duration": 0.31280399999999986
                },
                {
                    "name": "E5",
                    "midi": 76,
                    "time": 31.280399999999972,
                    "velocity": 0.6377952755905512,
                    "duration": 0.31280399999999986
                },
                {
                    "name": "G#5",
                    "midi": 80,
                    "time": 31.280399999999972,
                    "velocity": 0.7086614173228346,
                    "duration": 0.31280399999999986
                },
                {
                    "name": "A4",
                    "midi": 69,
                    "time": 31.59320399999997,
                    "velocity": 0.5669291338582677,
                    "duration": 0.10426800000000114
                },
                {
                    "name": "D#5",
                    "midi": 75,
                    "time": 31.59320399999997,
                    "velocity": 0.5669291338582677,
                    "duration": 0.10426800000000114
                },
                {
                    "name": "F#5",
                    "midi": 78,
                    "time": 31.59320399999997,
                    "velocity": 0.6377952755905512,
                    "duration": 0.10426800000000114
                },
                {
                    "name": "G#4",
                    "midi": 68,
                    "time": 31.697471999999973,
                    "velocity": 0.5905511811023622,
                    "duration": 0.3996940000000002
                },
                {
                    "name": "C#5",
                    "midi": 73,
                    "time": 31.697471999999973,
                    "velocity": 0.5905511811023622,
                    "duration": 0.3996940000000002
                },
                {
                    "name": "E5",
                    "midi": 76,
                    "time": 31.697471999999973,
                    "velocity": 0.6614173228346457,
                    "duration": 0.3996940000000002
                },
                {
                    "name": "A4",
                    "midi": 69,
                    "time": 32.114543999999974,
                    "velocity": 0.5590551181102362,
                    "duration": 0.39969399999999666
                },
                {
                    "name": "C#5",
                    "midi": 73,
                    "time": 32.114543999999974,
                    "velocity": 0.5590551181102362,
                    "duration": 0.39969399999999666
                },
                {
                    "name": "F#5",
                    "midi": 78,
                    "time": 32.114543999999974,
                    "velocity": 0.6220472440944882,
                    "duration": 0.39969399999999666
                },
                {
                    "name": "F#4",
                    "midi": 66,
                    "time": 32.53161599999997,
                    "velocity": 0.5669291338582677,
                    "duration": 0.39969399999999666
                },
                {
                    "name": "B4",
                    "midi": 71,
                    "time": 32.53161599999997,
                    "velocity": 0.5669291338582677,
                    "duration": 0.39969399999999666
                },
                {
                    "name": "D#5",
                    "midi": 75,
                    "time": 32.53161599999997,
                    "velocity": 0.6299212598425197,
                    "duration": 0.39969399999999666
                },
                {
                    "name": "G#4",
                    "midi": 68,
                    "time": 32.94868799999997,
                    "velocity": 0.5669291338582677,
                    "duration": 0.31280399999999986
                },
                {
                    "name": "B4",
                    "midi": 71,
                    "time": 32.94868799999997,
                    "velocity": 0.5669291338582677,
                    "duration": 0.31280399999999986
                },
                {
                    "name": "E5",
                    "midi": 76,
                    "time": 32.94868799999997,
                    "velocity": 0.6377952755905512,
                    "duration": 0.31280399999999986
                },
                {
                    "name": "F#4",
                    "midi": 66,
                    "time": 33.365759999999966,
                    "velocity": 0.6377952755905512,
                    "duration": 0.10426799999999758
                },
                {
                    "name": "B4",
                    "midi": 71,
                    "time": 33.365759999999966,
                    "velocity": 0.5669291338582677,
                    "duration": 0.41707199999999034
                },
                {
                    "name": "D5",
                    "midi": 74,
                    "time": 33.365759999999966,
                    "velocity": 0.6377952755905512,
                    "duration": 0.41707199999999034
                },
                {
                    "name": "E4",
                    "midi": 64,
                    "time": 33.57429599999996,
                    "velocity": 0.6377952755905512,
                    "duration": 0.10426799999999758
                },
                {
                    "name": "E4",
                    "midi": 64,
                    "time": 33.78283199999996,
                    "velocity": 0.5748031496062992,
                    "duration": 0.31280399999999986
                },
                {
                    "name": "A4",
                    "midi": 69,
                    "time": 33.78283199999996,
                    "velocity": 0.5748031496062992,
                    "duration": 0.31280399999999986
                },
                {
                    "name": "C#5",
                    "midi": 73,
                    "time": 33.78283199999996,
                    "velocity": 0.6456692913385826,
                    "duration": 0.31280399999999986
                },
                {
                    "name": "D4",
                    "midi": 62,
                    "time": 34.095635999999956,
                    "velocity": 0.5511811023622047,
                    "duration": 0.10426799999999758
                },
                {
                    "name": "G#4",
                    "midi": 68,
                    "time": 34.095635999999956,
                    "velocity": 0.5511811023622047,
                    "duration": 0.10426799999999758
                },
                {
                    "name": "B4",
                    "midi": 71,
                    "time": 34.095635999999956,
                    "velocity": 0.6141732283464567,
                    "duration": 0.10426799999999758
                },
                {
                    "name": "C#4",
                    "midi": 61,
                    "time": 34.199903999999954,
                    "velocity": 0.5511811023622047,
                    "duration": 0.39969399999999666
                },
                {
                    "name": "F#4",
                    "midi": 66,
                    "time": 34.199903999999954,
                    "velocity": 0.5511811023622047,
                    "duration": 0.39969399999999666
                },
                {
                    "name": "A4",
                    "midi": 69,
                    "time": 34.199903999999954,
                    "velocity": 0.6141732283464567,
                    "duration": 0.39969399999999666
                },
                {
                    "name": "D4",
                    "midi": 62,
                    "time": 34.61697599999995,
                    "velocity": 0.5669291338582677,
                    "duration": 0.39969399999999666
                },
                {
                    "name": "F#4",
                    "midi": 66,
                    "time": 34.61697599999995,
                    "velocity": 0.5669291338582677,
                    "duration": 0.39969399999999666
                },
                {
                    "name": "B4",
                    "midi": 71,
                    "time": 34.61697599999995,
                    "velocity": 0.6377952755905512,
                    "duration": 0.39969399999999666
                },
                {
                    "name": "B3",
                    "midi": 59,
                    "time": 35.03404799999995,
                    "velocity": 0.5511811023622047,
                    "duration": 0.39969399999999666
                },
                {
                    "name": "E4",
                    "midi": 64,
                    "time": 35.03404799999995,
                    "velocity": 0.5511811023622047,
                    "duration": 0.39969399999999666
                },
                {
                    "name": "G#4",
                    "midi": 68,
                    "time": 35.03404799999995,
                    "velocity": 0.6141732283464567,
                    "duration": 0.39969399999999666
                },
                {
                    "name": "C#4",
                    "midi": 61,
                    "time": 35.451119999999946,
                    "velocity": 0.5511811023622047,
                    "duration": 0.31280399999999986
                },
                {
                    "name": "E4",
                    "midi": 64,
                    "time": 35.451119999999946,
                    "velocity": 0.5511811023622047,
                    "duration": 0.31280399999999986
                },
                {
                    "name": "A4",
                    "midi": 69,
                    "time": 35.451119999999946,
                    "velocity": 0.6141732283464567,
                    "duration": 0.31280399999999986
                },
                {
                    "name": "A4",
                    "midi": 69,
                    "time": 35.868191999999944,
                    "velocity": 0.5984251968503937,
                    "duration": 0.41707199999999744
                },
                {
                    "name": "C#4",
                    "midi": 61,
                    "time": 35.868191999999944,
                    "velocity": 0.5354330708661418,
                    "duration": 0.41707199999999744
                },
                {
                    "name": "E4",
                    "midi": 64,
                    "time": 35.868191999999944,
                    "velocity": 0.5354330708661418,
                    "duration": 0.41707199999999744
                },
                {
                    "name": "B3",
                    "midi": 59,
                    "time": 36.28526399999994,
                    "velocity": 0.5354330708661418,
                    "duration": 0.31280399999999986
                },
                {
                    "name": "E4",
                    "midi": 64,
                    "time": 36.28526399999994,
                    "velocity": 0.5354330708661418,
                    "duration": 0.31280399999999986
                },
                {
                    "name": "G#4",
                    "midi": 68,
                    "time": 36.28526399999994,
                    "velocity": 0.5984251968503937,
                    "duration": 0.31280399999999986
                },
                {
                    "name": "A3",
                    "midi": 57,
                    "time": 36.59806799999994,
                    "velocity": 0.48031496062992124,
                    "duration": 0.10426799999999758
                },
                {
                    "name": "D#4",
                    "midi": 63,
                    "time": 36.59806799999994,
                    "velocity": 0.48031496062992124,
                    "duration": 0.10426799999999758
                },
                {
                    "name": "F#4",
                    "midi": 66,
                    "time": 36.59806799999994,
                    "velocity": 0.5354330708661418,
                    "duration": 0.10426799999999758
                },
                {
                    "name": "G#3",
                    "midi": 56,
                    "time": 36.70233599999994,
                    "velocity": 0.49606299212598426,
                    "duration": 0.39969399999999666
                },
                {
                    "name": "C#4",
                    "midi": 61,
                    "time": 36.70233599999994,
                    "velocity": 0.49606299212598426,
                    "duration": 0.39969399999999666
                },
                {
                    "name": "E4",
                    "midi": 64,
                    "time": 36.70233599999994,
                    "velocity": 0.5590551181102362,
                    "duration": 0.39969399999999666
                },
                {
                    "name": "A3",
                    "midi": 57,
                    "time": 37.119407999999936,
                    "velocity": 0.4645669291338583,
                    "duration": 0.39969399999999666
                },
                {
                    "name": "C#4",
                    "midi": 61,
                    "time": 37.119407999999936,
                    "velocity": 0.4645669291338583,
                    "duration": 0.39969399999999666
                },
                {
                    "name": "F#4",
                    "midi": 66,
                    "time": 37.119407999999936,
                    "velocity": 0.5196850393700787,
                    "duration": 0.39969399999999666
                },
                {
                    "name": "F#3",
                    "midi": 54,
                    "time": 37.53647999999993,
                    "velocity": 0.47244094488188976,
                    "duration": 0.39969399999999666
                },
                {
                    "name": "B3",
                    "midi": 59,
                    "time": 37.53647999999993,
                    "velocity": 0.47244094488188976,
                    "duration": 0.39969399999999666
                },
                {
                    "name": "D#4",
                    "midi": 63,
                    "time": 37.53647999999993,
                    "velocity": 0.5275590551181102,
                    "duration": 0.39969399999999666
                },
                {
                    "name": "G#3",
                    "midi": 56,
                    "time": 37.95355199999993,
                    "velocity": 0.4881889763779528,
                    "duration": 0.31280399999999986
                },
                {
                    "name": "B3",
                    "midi": 59,
                    "time": 37.95355199999993,
                    "velocity": 0.4881889763779528,
                    "duration": 0.31280399999999986
                },
                {
                    "name": "E4",
                    "midi": 64,
                    "time": 37.95355199999993,
                    "velocity": 0.5433070866141733,
                    "duration": 0.31280399999999986
                },
                {
                    "name": "F#3",
                    "midi": 54,
                    "time": 38.37062399999993,
                    "velocity": 0.4645669291338583,
                    "duration": 0.10426799999999758
                },
                {
                    "name": "B3",
                    "midi": 59,
                    "time": 38.37062399999993,
                    "velocity": 0.41732283464566927,
                    "duration": 0.41707199999999034
                },
                {
                    "name": "D4",
                    "midi": 62,
                    "time": 38.37062399999993,
                    "velocity": 0.4645669291338583,
                    "duration": 0.41707199999999034
                },
                {
                    "name": "E3",
                    "midi": 52,
                    "time": 38.57915999999992,
                    "velocity": 0.4645669291338583,
                    "duration": 0.10426799999999758
                },
                {
                    "name": "E3",
                    "midi": 52,
                    "time": 38.78769599999992,
                    "velocity": 0.4251968503937008,
                    "duration": 0.31280399999999986
                },
                {
                    "name": "A3",
                    "midi": 57,
                    "time": 38.78769599999992,
                    "velocity": 0.4251968503937008,
                    "duration": 0.31280399999999986
                },
                {
                    "name": "C#4",
                    "midi": 61,
                    "time": 38.78769599999992,
                    "velocity": 0.48031496062992124,
                    "duration": 0.31280399999999986
                },
                {
                    "name": "D3",
                    "midi": 50,
                    "time": 39.10049999999992,
                    "velocity": 0.3543307086614173,
                    "duration": 0.10426799999999758
                },
                {
                    "name": "G#3",
                    "midi": 56,
                    "time": 39.10049999999992,
                    "velocity": 0.3543307086614173,
                    "duration": 0.10426799999999758
                },
                {
                    "name": "B3",
                    "midi": 59,
                    "time": 39.10049999999992,
                    "velocity": 0.3937007874015748,
                    "duration": 0.10426799999999758
                },
                {
                    "name": "C#3",
                    "midi": 49,
                    "time": 39.204767999999916,
                    "velocity": 0.3779527559055118,
                    "duration": 0.39969399999999666
                },
                {
                    "name": "F#3",
                    "midi": 54,
                    "time": 39.204767999999916,
                    "velocity": 0.3779527559055118,
                    "duration": 0.39969399999999666
                },
                {
                    "name": "A3",
                    "midi": 57,
                    "time": 39.204767999999916,
                    "velocity": 0.4251968503937008,
                    "duration": 0.39969399999999666
                },
                {
                    "name": "D3",
                    "midi": 50,
                    "time": 39.621839999999914,
                    "velocity": 0.3858267716535433,
                    "duration": 0.39969399999999666
                },
                {
                    "name": "F#3",
                    "midi": 54,
                    "time": 39.621839999999914,
                    "velocity": 0.3858267716535433,
                    "duration": 0.39969399999999666
                },
                {
                    "name": "B3",
                    "midi": 59,
                    "time": 39.621839999999914,
                    "velocity": 0.4330708661417323,
                    "duration": 0.39969399999999666
                },
                {
                    "name": "B2",
                    "midi": 47,
                    "time": 40.03891199999991,
                    "velocity": 0.33070866141732286,
                    "duration": 0.39969399999999666
                },
                {
                    "name": "E3",
                    "midi": 52,
                    "time": 40.03891199999991,
                    "velocity": 0.33070866141732286,
                    "duration": 0.39969399999999666
                },
                {
                    "name": "G#3",
                    "midi": 56,
                    "time": 40.03891199999991,
                    "velocity": 0.3700787401574803,
                    "duration": 0.39969399999999666
                },
                {
                    "name": "C#3",
                    "midi": 49,
                    "time": 40.45598399999991,
                    "velocity": 0.2992125984251969,
                    "duration": 0.41707199999999744
                },
                {
                    "name": "E3",
                    "midi": 52,
                    "time": 40.45598399999991,
                    "velocity": 0.2992125984251969,
                    "duration": 0.41707199999999744
                },
                {
                    "name": "A3",
                    "midi": 57,
                    "time": 40.45598399999991,
                    "velocity": 0.33858267716535434,
                    "duration": 0.41707199999999744
                }
            ],
            "controlChanges": {
                "7": [
                    {
                        "number": 7,
                        "time": 0,
                        "value": 0.7874015748031497
                    }
                ],
                "10": [
                    {
                        "number": 10,
                        "time": 0,
                        "value": 0.5039370078740157
                    }
                ],
                "91": [
                    {
                        "number": 91,
                        "time": 0,
                        "value": 1
                    },
                    {
                        "number": 91,
                        "time": 0.8332750999999999,
                        "value": 1
                    }
                ]
            },
            "id": 1,
            "name": "Piano right",
            "instrumentNumber": 0,
            "instrument": "acoustic grand piano",
            "instrumentFamily": "piano",
            "channelNumber": 0,
            "isPercussion": false
        },
        {
            "startTime": 0.8341439999999999,
            "duration": 40.87305600000005,
            "length": 270,
            "notes": [
                {
                    "name": "A3",
                    "midi": 57,
                    "time": 0.8341439999999999,
                    "velocity": 0.6062992125984252,
                    "duration": 0.10426800000000003
                },
                {
                    "name": "A2",
                    "midi": 45,
                    "time": 0.8341439999999999,
                    "velocity": 0.5433070866141733,
                    "duration": 0.10426800000000003
                },
                {
                    "name": "C#4",
                    "midi": 61,
                    "time": 1.0426799999999998,
                    "velocity": 0.6062992125984252,
                    "duration": 0.10426800000000003
                },
                {
                    "name": "C#3",
                    "midi": 49,
                    "time": 1.0426799999999998,
                    "velocity": 0.5433070866141733,
                    "duration": 0.10426800000000003
                },
                {
                    "name": "E4",
                    "midi": 64,
                    "time": 1.2512159999999999,
                    "velocity": 0.6377952755905512,
                    "duration": 0.31280399999999986
                },
                {
                    "name": "E3",
                    "midi": 52,
                    "time": 1.2512159999999999,
                    "velocity": 0.5669291338582677,
                    "duration": 0.31280399999999986
                },
                {
                    "name": "C4",
                    "midi": 60,
                    "time": 1.5640199999999997,
                    "velocity": 0.5354330708661418,
                    "duration": 0.1042679999999998
                },
                {
                    "name": "C3",
                    "midi": 48,
                    "time": 1.5640199999999997,
                    "velocity": 0.48031496062992124,
                    "duration": 0.1042679999999998
                },
                {
                    "name": "C#3",
                    "midi": 49,
                    "time": 1.6682879999999995,
                    "velocity": 0.5118110236220472,
                    "duration": 0.39969399999999977
                },
                {
                    "name": "C#4",
                    "midi": 61,
                    "time": 1.6682879999999995,
                    "velocity": 0.5748031496062992,
                    "duration": 0.39969399999999977
                },
                {
                    "name": "A2",
                    "midi": 45,
                    "time": 2.085359999999999,
                    "velocity": 0.49606299212598426,
                    "duration": 0.39969399999999977
                },
                {
                    "name": "A3",
                    "midi": 57,
                    "time": 2.085359999999999,
                    "velocity": 0.5590551181102362,
                    "duration": 0.39969399999999977
                },
                {
                    "name": "B3",
                    "midi": 59,
                    "time": 2.502431999999999,
                    "velocity": 0.5511811023622047,
                    "duration": 0.39969399999999977
                },
                {
                    "name": "B2",
                    "midi": 47,
                    "time": 2.502431999999999,
                    "velocity": 0.49606299212598426,
                    "duration": 0.39969399999999977
                },
                {
                    "name": "E3",
                    "midi": 52,
                    "time": 2.9195039999999985,
                    "velocity": 0.5354330708661418,
                    "duration": 0.31280399999999986
                },
                {
                    "name": "E2",
                    "midi": 40,
                    "time": 2.9195039999999985,
                    "velocity": 0.48031496062992124,
                    "duration": 0.31280399999999986
                },
                {
                    "name": "F#3",
                    "midi": 54,
                    "time": 3.336575999999998,
                    "velocity": 0.5433070866141733,
                    "duration": 0.1042679999999998
                },
                {
                    "name": "F#2",
                    "midi": 42,
                    "time": 3.336575999999998,
                    "velocity": 0.4881889763779528,
                    "duration": 0.1042679999999998
                },
                {
                    "name": "G#3",
                    "midi": 56,
                    "time": 3.545111999999998,
                    "velocity": 0.5433070866141733,
                    "duration": 0.1042679999999998
                },
                {
                    "name": "G#2",
                    "midi": 44,
                    "time": 3.545111999999998,
                    "velocity": 0.4881889763779528,
                    "duration": 0.1042679999999998
                },
                {
                    "name": "A3",
                    "midi": 57,
                    "time": 3.7536479999999974,
                    "velocity": 0.5748031496062992,
                    "duration": 0.31280399999999986
                },
                {
                    "name": "A2",
                    "midi": 45,
                    "time": 3.7536479999999974,
                    "velocity": 0.5118110236220472,
                    "duration": 0.31280399999999986
                },
                {
                    "name": "F3",
                    "midi": 53,
                    "time": 4.066451999999997,
                    "velocity": 0.5118110236220472,
                    "duration": 0.10426800000000025
                },
                {
                    "name": "F2",
                    "midi": 41,
                    "time": 4.066451999999997,
                    "velocity": 0.4566929133858268,
                    "duration": 0.10426800000000025
                },
                {
                    "name": "F#2",
                    "midi": 42,
                    "time": 4.1707199999999975,
                    "velocity": 0.4566929133858268,
                    "duration": 0.3996940000000002
                },
                {
                    "name": "F#3",
                    "midi": 54,
                    "time": 4.1707199999999975,
                    "velocity": 0.5118110236220472,
                    "duration": 0.3996940000000002
                },
                {
                    "name": "D2",
                    "midi": 38,
                    "time": 4.587791999999998,
                    "velocity": 0.48031496062992124,
                    "duration": 0.3996940000000002
                },
                {
                    "name": "D3",
                    "midi": 50,
                    "time": 4.587791999999998,
                    "velocity": 0.5354330708661418,
                    "duration": 0.3996940000000002
                },
                {
                    "name": "E3",
                    "midi": 52,
                    "time": 5.004863999999998,
                    "velocity": 0.5039370078740157,
                    "duration": 0.3996940000000002
                },
                {
                    "name": "E2",
                    "midi": 40,
                    "time": 5.004863999999998,
                    "velocity": 0.44881889763779526,
                    "duration": 0.3996940000000002
                },
                {
                    "name": "A2",
                    "midi": 45,
                    "time": 5.421935999999998,
                    "velocity": 0.5039370078740157,
                    "duration": 0.31280400000000075
                },
                {
                    "name": "A1",
                    "midi": 33,
                    "time": 5.421935999999998,
                    "velocity": 0.44881889763779526,
                    "duration": 0.31280400000000075
                },
                {
                    "name": "A2",
                    "midi": 45,
                    "time": 5.839007999999999,
                    "velocity": 0.5118110236220472,
                    "duration": 0.10426800000000025
                },
                {
                    "name": "A1",
                    "midi": 33,
                    "time": 5.839007999999999,
                    "velocity": 0.4566929133858268,
                    "duration": 0.10426800000000025
                },
                {
                    "name": "C#2",
                    "midi": 37,
                    "time": 6.047543999999999,
                    "velocity": 0.4566929133858268,
                    "duration": 0.10426800000000025
                },
                {
                    "name": "C#3",
                    "midi": 49,
                    "time": 6.047543999999999,
                    "velocity": 0.5118110236220472,
                    "duration": 0.10426800000000025
                },
                {
                    "name": "E2",
                    "midi": 40,
                    "time": 6.25608,
                    "velocity": 0.48031496062992124,
                    "duration": 0.31280399999999986
                },
                {
                    "name": "E3",
                    "midi": 52,
                    "time": 6.25608,
                    "velocity": 0.5354330708661418,
                    "duration": 0.31280399999999986
                },
                {
                    "name": "C2",
                    "midi": 36,
                    "time": 6.568884,
                    "velocity": 0.4015748031496063,
                    "duration": 0.10426800000000025
                },
                {
                    "name": "C3",
                    "midi": 48,
                    "time": 6.568884,
                    "velocity": 0.44881889763779526,
                    "duration": 0.10426800000000025
                },
                {
                    "name": "C#2",
                    "midi": 37,
                    "time": 6.673152,
                    "velocity": 0.4330708661417323,
                    "duration": 0.3996940000000002
                },
                {
                    "name": "C#3",
                    "midi": 49,
                    "time": 6.673152,
                    "velocity": 0.4881889763779528,
                    "duration": 0.3996940000000002
                },
                {
                    "name": "A1",
                    "midi": 33,
                    "time": 7.090224,
                    "velocity": 0.4251968503937008,
                    "duration": 0.3996940000000002
                },
                {
                    "name": "A2",
                    "midi": 45,
                    "time": 7.090224,
                    "velocity": 0.47244094488188976,
                    "duration": 0.3996940000000002
                },
                {
                    "name": "B1",
                    "midi": 35,
                    "time": 7.507296,
                    "velocity": 0.41732283464566927,
                    "duration": 0.3996940000000002
                },
                {
                    "name": "B2",
                    "midi": 47,
                    "time": 7.507296,
                    "velocity": 0.4645669291338583,
                    "duration": 0.3996940000000002
                },
                {
                    "name": "E1",
                    "midi": 28,
                    "time": 7.924368,
                    "velocity": 0.4015748031496063,
                    "duration": 0.31280399999999897
                },
                {
                    "name": "E2",
                    "midi": 40,
                    "time": 7.924368,
                    "velocity": 0.44881889763779526,
                    "duration": 0.31280399999999897
                },
                {
                    "name": "F#2",
                    "midi": 42,
                    "time": 8.341439999999999,
                    "velocity": 0.4251968503937008,
                    "duration": 0.10426799999999936
                },
                {
                    "name": "F#1",
                    "midi": 30,
                    "time": 8.341439999999999,
                    "velocity": 0.3779527559055118,
                    "duration": 0.10426799999999936
                },
                {
                    "name": "G#1",
                    "midi": 32,
                    "time": 8.549975999999997,
                    "velocity": 0.3779527559055118,
                    "duration": 0.10426799999999936
                },
                {
                    "name": "G#2",
                    "midi": 44,
                    "time": 8.549975999999997,
                    "velocity": 0.4251968503937008,
                    "duration": 0.10426799999999936
                },
                {
                    "name": "A1",
                    "midi": 33,
                    "time": 8.758511999999996,
                    "velocity": 0.44881889763779526,
                    "duration": 0.31280399999999986
                },
                {
                    "name": "A2",
                    "midi": 45,
                    "time": 8.758511999999996,
                    "velocity": 0.44881889763779526,
                    "duration": 0.31280399999999986
                },
                {
                    "name": "F1",
                    "midi": 29,
                    "time": 9.071315999999996,
                    "velocity": 0.33858267716535434,
                    "duration": 0.10426799999999936
                },
                {
                    "name": "F2",
                    "midi": 41,
                    "time": 9.071315999999996,
                    "velocity": 0.3779527559055118,
                    "duration": 0.10426799999999936
                },
                {
                    "name": "F#1",
                    "midi": 30,
                    "time": 9.175583999999995,
                    "velocity": 0.33858267716535434,
                    "duration": 0.3996940000000002
                },
                {
                    "name": "F#2",
                    "midi": 42,
                    "time": 9.175583999999995,
                    "velocity": 0.3779527559055118,
                    "duration": 0.3996940000000002
                },
                {
                    "name": "D1",
                    "midi": 26,
                    "time": 9.592655999999996,
                    "velocity": 0.3464566929133858,
                    "duration": 0.3996940000000002
                },
                {
                    "name": "D2",
                    "midi": 38,
                    "time": 9.592655999999996,
                    "velocity": 0.3858267716535433,
                    "duration": 0.3996940000000002
                },
                {
                    "name": "E1",
                    "midi": 28,
                    "time": 10.009727999999997,
                    "velocity": 0.3228346456692913,
                    "duration": 0.3996940000000002
                },
                {
                    "name": "E2",
                    "midi": 40,
                    "time": 10.009727999999997,
                    "velocity": 0.36220472440944884,
                    "duration": 0.3996940000000002
                },
                {
                    "name": "A1",
                    "midi": 33,
                    "time": 10.426799999999998,
                    "velocity": 0.28346456692913385,
                    "duration": 0.31280399999999986
                },
                {
                    "name": "E2",
                    "midi": 40,
                    "time": 10.426799999999998,
                    "velocity": 0.3228346456692913,
                    "duration": 0.31280399999999986
                },
                {
                    "name": "A1",
                    "midi": 33,
                    "time": 10.843871999999998,
                    "velocity": 0.5275590551181102,
                    "duration": 0.10426799999999936
                },
                {
                    "name": "A2",
                    "midi": 45,
                    "time": 10.843871999999998,
                    "velocity": 0.5905511811023622,
                    "duration": 0.10426799999999936
                },
                {
                    "name": "C#3",
                    "midi": 49,
                    "time": 11.052407999999998,
                    "velocity": 0.5905511811023622,
                    "duration": 0.10426799999999936
                },
                {
                    "name": "D2",
                    "midi": 38,
                    "time": 11.260943999999997,
                    "velocity": 0.6377952755905512,
                    "duration": 0.10426799999999936
                },
                {
                    "name": "D3",
                    "midi": 50,
                    "time": 11.260943999999997,
                    "velocity": 0.7165354330708661,
                    "duration": 0.10426799999999936
                },
                {
                    "name": "A1",
                    "midi": 33,
                    "time": 11.469479999999995,
                    "velocity": 0.5669291338582677,
                    "duration": 0.10426799999999936
                },
                {
                    "name": "A2",
                    "midi": 45,
                    "time": 11.469479999999995,
                    "velocity": 0.6377952755905512,
                    "duration": 0.10426799999999936
                },
                {
                    "name": "G1",
                    "midi": 31,
                    "time": 11.678015999999994,
                    "velocity": 0.5669291338582677,
                    "duration": 0.10426799999999936
                },
                {
                    "name": "G2",
                    "midi": 43,
                    "time": 11.678015999999994,
                    "velocity": 0.6377952755905512,
                    "duration": 0.10426799999999936
                },
                {
                    "name": "F#1",
                    "midi": 30,
                    "time": 11.886551999999993,
                    "velocity": 0.5669291338582677,
                    "duration": 0.10426799999999936
                },
                {
                    "name": "F#2",
                    "midi": 42,
                    "time": 11.886551999999993,
                    "velocity": 0.6377952755905512,
                    "duration": 0.10426799999999936
                },
                {
                    "name": "F#1",
                    "midi": 30,
                    "time": 12.095087999999992,
                    "velocity": 0.6141732283464567,
                    "duration": 0.417072000000001
                },
                {
                    "name": "F#2",
                    "midi": 42,
                    "time": 12.095087999999992,
                    "velocity": 0.6850393700787402,
                    "duration": 0.417072000000001
                },
                {
                    "name": "D2",
                    "midi": 38,
                    "time": 12.512159999999993,
                    "velocity": 0.6377952755905512,
                    "duration": 0.10426799999999936
                },
                {
                    "name": "D3",
                    "midi": 50,
                    "time": 12.512159999999993,
                    "velocity": 0.7086614173228346,
                    "duration": 0.10426799999999936
                },
                {
                    "name": "B1",
                    "midi": 35,
                    "time": 12.720695999999991,
                    "velocity": 0.5511811023622047,
                    "duration": 0.10426799999999936
                },
                {
                    "name": "B2",
                    "midi": 47,
                    "time": 12.720695999999991,
                    "velocity": 0.6141732283464567,
                    "duration": 0.10426799999999936
                },
                {
                    "name": "A1",
                    "midi": 33,
                    "time": 12.92923199999999,
                    "velocity": 0.5433070866141733,
                    "duration": 0.10426799999999936
                },
                {
                    "name": "A2",
                    "midi": 45,
                    "time": 12.92923199999999,
                    "velocity": 0.6062992125984252,
                    "duration": 0.10426799999999936
                },
                {
                    "name": "G1",
                    "midi": 31,
                    "time": 13.137767999999989,
                    "velocity": 0.5433070866141733,
                    "duration": 0.10426799999999936
                },
                {
                    "name": "G2",
                    "midi": 43,
                    "time": 13.137767999999989,
                    "velocity": 0.6062992125984252,
                    "duration": 0.10426799999999936
                },
                {
                    "name": "G1",
                    "midi": 31,
                    "time": 13.346303999999988,
                    "velocity": 0.6062992125984252,
                    "duration": 0.4170719999999992
                },
                {
                    "name": "G2",
                    "midi": 43,
                    "time": 13.346303999999988,
                    "velocity": 0.6771653543307087,
                    "duration": 0.4170719999999992
                },
                {
                    "name": "A1",
                    "midi": 33,
                    "time": 13.763375999999987,
                    "velocity": 0.6141732283464567,
                    "duration": 0.10426799999999936
                },
                {
                    "name": "A2",
                    "midi": 45,
                    "time": 13.763375999999987,
                    "velocity": 0.6850393700787402,
                    "duration": 0.10426799999999936
                },
                {
                    "name": "E1",
                    "midi": 28,
                    "time": 13.971911999999985,
                    "velocity": 0.5433070866141733,
                    "duration": 0.10426799999999936
                },
                {
                    "name": "E2",
                    "midi": 40,
                    "time": 13.971911999999985,
                    "velocity": 0.6062992125984252,
                    "duration": 0.10426799999999936
                },
                {
                    "name": "D1",
                    "midi": 26,
                    "time": 14.180447999999984,
                    "velocity": 0.5433070866141733,
                    "duration": 0.10426799999999936
                },
                {
                    "name": "D2",
                    "midi": 38,
                    "time": 14.180447999999984,
                    "velocity": 0.6062992125984252,
                    "duration": 0.10426799999999936
                },
                {
                    "name": "C#1",
                    "midi": 25,
                    "time": 14.388983999999983,
                    "velocity": 0.5433070866141733,
                    "duration": 0.10426799999999936
                },
                {
                    "name": "C#2",
                    "midi": 37,
                    "time": 14.388983999999983,
                    "velocity": 0.6062992125984252,
                    "duration": 0.10426799999999936
                },
                {
                    "name": "C#1",
                    "midi": 25,
                    "time": 14.597519999999982,
                    "velocity": 0.5905511811023622,
                    "duration": 0.4170719999999992
                },
                {
                    "name": "C#2",
                    "midi": 37,
                    "time": 14.597519999999982,
                    "velocity": 0.6614173228346457,
                    "duration": 0.4170719999999992
                },
                {
                    "name": "D2",
                    "midi": 38,
                    "time": 15.01459199999998,
                    "velocity": 0.6377952755905512,
                    "duration": 0.10426799999999936
                },
                {
                    "name": "D3",
                    "midi": 50,
                    "time": 15.01459199999998,
                    "velocity": 0.7086614173228346,
                    "duration": 0.10426799999999936
                },
                {
                    "name": "A1",
                    "midi": 33,
                    "time": 15.22312799999998,
                    "velocity": 0.5590551181102362,
                    "duration": 0.10426799999999936
                },
                {
                    "name": "A2",
                    "midi": 45,
                    "time": 15.22312799999998,
                    "velocity": 0.6220472440944882,
                    "duration": 0.10426799999999936
                },
                {
                    "name": "G1",
                    "midi": 31,
                    "time": 15.431663999999978,
                    "velocity": 0.5590551181102362,
                    "duration": 0.10426799999999936
                },
                {
                    "name": "G2",
                    "midi": 43,
                    "time": 15.431663999999978,
                    "velocity": 0.6220472440944882,
                    "duration": 0.10426799999999936
                },
                {
                    "name": "F#1",
                    "midi": 30,
                    "time": 15.640199999999977,
                    "velocity": 0.5590551181102362,
                    "duration": 0.10426799999999936
                },
                {
                    "name": "F#2",
                    "midi": 42,
                    "time": 15.640199999999977,
                    "velocity": 0.6220472440944882,
                    "duration": 0.10426799999999936
                },
                {
                    "name": "F#1",
                    "midi": 30,
                    "time": 15.848735999999976,
                    "velocity": 0.5984251968503937,
                    "duration": 0.4170719999999992
                },
                {
                    "name": "F#2",
                    "midi": 42,
                    "time": 15.848735999999976,
                    "velocity": 0.6692913385826772,
                    "duration": 0.4170719999999992
                },
                {
                    "name": "G1",
                    "midi": 31,
                    "time": 16.265807999999975,
                    "velocity": 0.5039370078740157,
                    "duration": 0.10426800000000114
                },
                {
                    "name": "G2",
                    "midi": 43,
                    "time": 16.265807999999975,
                    "velocity": 0.5669291338582677,
                    "duration": 0.10426800000000114
                },
                {
                    "name": "A1",
                    "midi": 33,
                    "time": 16.474343999999977,
                    "velocity": 0.5196850393700787,
                    "duration": 0.10426800000000114
                },
                {
                    "name": "A2",
                    "midi": 45,
                    "time": 16.474343999999977,
                    "velocity": 0.5826771653543307,
                    "duration": 0.10426800000000114
                },
                {
                    "name": "B1",
                    "midi": 35,
                    "time": 16.68287999999998,
                    "velocity": 0.5433070866141733,
                    "duration": 0.10426800000000114
                },
                {
                    "name": "B2",
                    "midi": 47,
                    "time": 16.68287999999998,
                    "velocity": 0.6062992125984252,
                    "duration": 0.10426800000000114
                },
                {
                    "name": "C2",
                    "midi": 36,
                    "time": 16.891415999999982,
                    "velocity": 0.5590551181102362,
                    "duration": 0.10426800000000114
                },
                {
                    "name": "C3",
                    "midi": 48,
                    "time": 16.891415999999982,
                    "velocity": 0.6220472440944882,
                    "duration": 0.10426800000000114
                },
                {
                    "name": "D2",
                    "midi": 38,
                    "time": 17.099951999999984,
                    "velocity": 0.5669291338582677,
                    "duration": 0.10426800000000114
                },
                {
                    "name": "D3",
                    "midi": 50,
                    "time": 17.099951999999984,
                    "velocity": 0.6377952755905512,
                    "duration": 0.10426800000000114
                },
                {
                    "name": "E2",
                    "midi": 40,
                    "time": 17.308487999999986,
                    "velocity": 0.5826771653543307,
                    "duration": 0.10426800000000114
                },
                {
                    "name": "E3",
                    "midi": 52,
                    "time": 17.308487999999986,
                    "velocity": 0.6535433070866141,
                    "duration": 0.10426800000000114
                },
                {
                    "name": "D2",
                    "midi": 38,
                    "time": 17.51702399999999,
                    "velocity": 0.6062992125984252,
                    "duration": 0.417072000000001
                },
                {
                    "name": "D3",
                    "midi": 50,
                    "time": 17.51702399999999,
                    "velocity": 0.6771653543307087,
                    "duration": 0.417072000000001
                },
                {
                    "name": "B1",
                    "midi": 35,
                    "time": 17.93409599999999,
                    "velocity": 0.5826771653543307,
                    "duration": 0.20853599999999872
                },
                {
                    "name": "B2",
                    "midi": 47,
                    "time": 17.93409599999999,
                    "velocity": 0.6535433070866141,
                    "duration": 0.20853599999999872
                },
                {
                    "name": "A1",
                    "midi": 33,
                    "time": 18.351167999999987,
                    "velocity": 0.5118110236220472,
                    "duration": 0.20853599999999872
                },
                {
                    "name": "A2",
                    "midi": 45,
                    "time": 18.351167999999987,
                    "velocity": 0.5748031496062992,
                    "duration": 0.20853599999999872
                },
                {
                    "name": "G1",
                    "midi": 31,
                    "time": 18.768239999999984,
                    "velocity": 0.5196850393700787,
                    "duration": 0.20853600000000228
                },
                {
                    "name": "G2",
                    "midi": 43,
                    "time": 18.768239999999984,
                    "velocity": 0.5826771653543307,
                    "duration": 0.20853600000000228
                },
                {
                    "name": "F#1",
                    "midi": 30,
                    "time": 19.081043999999984,
                    "velocity": 0.5354330708661418,
                    "duration": 0.10426800000000114
                },
                {
                    "name": "F#2",
                    "midi": 42,
                    "time": 19.081043999999984,
                    "velocity": 0.5984251968503937,
                    "duration": 0.10426800000000114
                },
                {
                    "name": "E1",
                    "midi": 28,
                    "time": 19.185311999999985,
                    "velocity": 0.6220472440944882,
                    "duration": 0.20853600000000228
                },
                {
                    "name": "E2",
                    "midi": 40,
                    "time": 19.185311999999985,
                    "velocity": 0.6929133858267716,
                    "duration": 0.20853600000000228
                },
                {
                    "name": "A1",
                    "midi": 33,
                    "time": 19.602383999999986,
                    "velocity": 0.49606299212598426,
                    "duration": 0.417072000000001
                },
                {
                    "name": "A2",
                    "midi": 45,
                    "time": 19.602383999999986,
                    "velocity": 0.5511811023622047,
                    "duration": 0.417072000000001
                },
                {
                    "name": "D2",
                    "midi": 38,
                    "time": 20.019455999999987,
                    "velocity": 0.5511811023622047,
                    "duration": 0.417072000000001
                },
                {
                    "name": "D3",
                    "midi": 50,
                    "time": 20.019455999999987,
                    "velocity": 0.6141732283464567,
                    "duration": 0.417072000000001
                },
                {
                    "name": "A1",
                    "midi": 33,
                    "time": 20.853599999999986,
                    "velocity": 0.5275590551181102,
                    "duration": 0.10426800000000114
                },
                {
                    "name": "A2",
                    "midi": 45,
                    "time": 20.853599999999986,
                    "velocity": 0.5905511811023622,
                    "duration": 0.10426800000000114
                },
                {
                    "name": "C#3",
                    "midi": 49,
                    "time": 21.062135999999988,
                    "velocity": 0.5905511811023622,
                    "duration": 0.10426800000000114
                },
                {
                    "name": "D2",
                    "midi": 38,
                    "time": 21.27067199999999,
                    "velocity": 0.6377952755905512,
                    "duration": 0.10426800000000114
                },
                {
                    "name": "D3",
                    "midi": 50,
                    "time": 21.27067199999999,
                    "velocity": 0.7165354330708661,
                    "duration": 0.10426800000000114
                },
                {
                    "name": "A1",
                    "midi": 33,
                    "time": 21.479207999999993,
                    "velocity": 0.5669291338582677,
                    "duration": 0.10426800000000114
                },
                {
                    "name": "A2",
                    "midi": 45,
                    "time": 21.479207999999993,
                    "velocity": 0.6377952755905512,
                    "duration": 0.10426800000000114
                },
                {
                    "name": "G1",
                    "midi": 31,
                    "time": 21.687743999999995,
                    "velocity": 0.5669291338582677,
                    "duration": 0.10426800000000114
                },
                {
                    "name": "G2",
                    "midi": 43,
                    "time": 21.687743999999995,
                    "velocity": 0.6377952755905512,
                    "duration": 0.10426800000000114
                },
                {
                    "name": "F#1",
                    "midi": 30,
                    "time": 21.896279999999997,
                    "velocity": 0.5669291338582677,
                    "duration": 0.10426800000000114
                },
                {
                    "name": "F#2",
                    "midi": 42,
                    "time": 21.896279999999997,
                    "velocity": 0.6377952755905512,
                    "duration": 0.10426800000000114
                },
                {
                    "name": "F#1",
                    "midi": 30,
                    "time": 22.104816,
                    "velocity": 0.6141732283464567,
                    "duration": 0.417072000000001
                },
                {
                    "name": "F#2",
                    "midi": 42,
                    "time": 22.104816,
                    "velocity": 0.6850393700787402,
                    "duration": 0.417072000000001
                },
                {
                    "name": "D2",
                    "midi": 38,
                    "time": 22.521888,
                    "velocity": 0.6377952755905512,
                    "duration": 0.10426800000000114
                },
                {
                    "name": "D3",
                    "midi": 50,
                    "time": 22.521888,
                    "velocity": 0.7086614173228346,
                    "duration": 0.10426800000000114
                },
                {
                    "name": "B1",
                    "midi": 35,
                    "time": 22.730424000000003,
                    "velocity": 0.5511811023622047,
                    "duration": 0.10426800000000114
                },
                {
                    "name": "B2",
                    "midi": 47,
                    "time": 22.730424000000003,
                    "velocity": 0.6141732283464567,
                    "duration": 0.10426800000000114
                },
                {
                    "name": "A1",
                    "midi": 33,
                    "time": 22.938960000000005,
                    "velocity": 0.5433070866141733,
                    "duration": 0.10426800000000114
                },
                {
                    "name": "A2",
                    "midi": 45,
                    "time": 22.938960000000005,
                    "velocity": 0.6062992125984252,
                    "duration": 0.10426800000000114
                },
                {
                    "name": "G1",
                    "midi": 31,
                    "time": 23.147496000000007,
                    "velocity": 0.5433070866141733,
                    "duration": 0.10426800000000114
                },
                {
                    "name": "G2",
                    "midi": 43,
                    "time": 23.147496000000007,
                    "velocity": 0.6062992125984252,
                    "duration": 0.10426800000000114
                },
                {
                    "name": "G1",
                    "midi": 31,
                    "time": 23.35603200000001,
                    "velocity": 0.6062992125984252,
                    "duration": 0.41707199999999744
                },
                {
                    "name": "G2",
                    "midi": 43,
                    "time": 23.35603200000001,
                    "velocity": 0.6771653543307087,
                    "duration": 0.41707199999999744
                },
                {
                    "name": "A1",
                    "midi": 33,
                    "time": 23.773104000000007,
                    "velocity": 0.6141732283464567,
                    "duration": 0.10426800000000114
                },
                {
                    "name": "A2",
                    "midi": 45,
                    "time": 23.773104000000007,
                    "velocity": 0.6850393700787402,
                    "duration": 0.10426800000000114
                },
                {
                    "name": "E1",
                    "midi": 28,
                    "time": 23.98164000000001,
                    "velocity": 0.5433070866141733,
                    "duration": 0.10426800000000114
                },
                {
                    "name": "E2",
                    "midi": 40,
                    "time": 23.98164000000001,
                    "velocity": 0.6062992125984252,
                    "duration": 0.10426800000000114
                },
                {
                    "name": "D1",
                    "midi": 26,
                    "time": 24.19017600000001,
                    "velocity": 0.5433070866141733,
                    "duration": 0.10426800000000114
                },
                {
                    "name": "D2",
                    "midi": 38,
                    "time": 24.19017600000001,
                    "velocity": 0.6062992125984252,
                    "duration": 0.10426800000000114
                },
                {
                    "name": "C#1",
                    "midi": 25,
                    "time": 24.398712000000014,
                    "velocity": 0.5433070866141733,
                    "duration": 0.10426800000000114
                },
                {
                    "name": "C#2",
                    "midi": 37,
                    "time": 24.398712000000014,
                    "velocity": 0.6062992125984252,
                    "duration": 0.10426800000000114
                },
                {
                    "name": "C#1",
                    "midi": 25,
                    "time": 24.607248000000016,
                    "velocity": 0.5905511811023622,
                    "duration": 0.417072000000001
                },
                {
                    "name": "C#2",
                    "midi": 37,
                    "time": 24.607248000000016,
                    "velocity": 0.6614173228346457,
                    "duration": 0.417072000000001
                },
                {
                    "name": "D2",
                    "midi": 38,
                    "time": 25.024320000000017,
                    "velocity": 0.6377952755905512,
                    "duration": 0.10426800000000114
                },
                {
                    "name": "D3",
                    "midi": 50,
                    "time": 25.024320000000017,
                    "velocity": 0.7086614173228346,
                    "duration": 0.10426800000000114
                },
                {
                    "name": "A1",
                    "midi": 33,
                    "time": 25.23285600000002,
                    "velocity": 0.5590551181102362,
                    "duration": 0.10426800000000114
                },
                {
                    "name": "A2",
                    "midi": 45,
                    "time": 25.23285600000002,
                    "velocity": 0.6220472440944882,
                    "duration": 0.10426800000000114
                },
                {
                    "name": "G1",
                    "midi": 31,
                    "time": 25.44139200000002,
                    "velocity": 0.5590551181102362,
                    "duration": 0.10426800000000114
                },
                {
                    "name": "G2",
                    "midi": 43,
                    "time": 25.44139200000002,
                    "velocity": 0.6220472440944882,
                    "duration": 0.10426800000000114
                },
                {
                    "name": "F#1",
                    "midi": 30,
                    "time": 25.649928000000024,
                    "velocity": 0.5590551181102362,
                    "duration": 0.10426800000000114
                },
                {
                    "name": "F#2",
                    "midi": 42,
                    "time": 25.649928000000024,
                    "velocity": 0.6220472440944882,
                    "duration": 0.10426800000000114
                },
                {
                    "name": "F#1",
                    "midi": 30,
                    "time": 25.858464000000026,
                    "velocity": 0.5984251968503937,
                    "duration": 0.41707199999999744
                },
                {
                    "name": "F#2",
                    "midi": 42,
                    "time": 25.858464000000026,
                    "velocity": 0.6692913385826772,
                    "duration": 0.41707199999999744
                },
                {
                    "name": "G1",
                    "midi": 31,
                    "time": 26.275536000000024,
                    "velocity": 0.5039370078740157,
                    "duration": 0.10426800000000114
                },
                {
                    "name": "G2",
                    "midi": 43,
                    "time": 26.275536000000024,
                    "velocity": 0.5669291338582677,
                    "duration": 0.10426800000000114
                },
                {
                    "name": "A1",
                    "midi": 33,
                    "time": 26.484072000000026,
                    "velocity": 0.5196850393700787,
                    "duration": 0.10426800000000114
                },
                {
                    "name": "A2",
                    "midi": 45,
                    "time": 26.484072000000026,
                    "velocity": 0.5826771653543307,
                    "duration": 0.10426800000000114
                },
                {
                    "name": "B1",
                    "midi": 35,
                    "time": 26.69260800000003,
                    "velocity": 0.5433070866141733,
                    "duration": 0.10426800000000114
                },
                {
                    "name": "B2",
                    "midi": 47,
                    "time": 26.69260800000003,
                    "velocity": 0.6062992125984252,
                    "duration": 0.10426800000000114
                },
                {
                    "name": "C2",
                    "midi": 36,
                    "time": 26.90114400000003,
                    "velocity": 0.5590551181102362,
                    "duration": 0.10426800000000114
                },
                {
                    "name": "C3",
                    "midi": 48,
                    "time": 26.90114400000003,
                    "velocity": 0.6220472440944882,
                    "duration": 0.10426800000000114
                },
                {
                    "name": "D2",
                    "midi": 38,
                    "time": 27.109680000000033,
                    "velocity": 0.5669291338582677,
                    "duration": 0.10426800000000114
                },
                {
                    "name": "D3",
                    "midi": 50,
                    "time": 27.109680000000033,
                    "velocity": 0.6377952755905512,
                    "duration": 0.10426800000000114
                },
                {
                    "name": "E2",
                    "midi": 40,
                    "time": 27.318216000000035,
                    "velocity": 0.5826771653543307,
                    "duration": 0.10426800000000114
                },
                {
                    "name": "E3",
                    "midi": 52,
                    "time": 27.318216000000035,
                    "velocity": 0.6535433070866141,
                    "duration": 0.10426800000000114
                },
                {
                    "name": "D2",
                    "midi": 38,
                    "time": 27.526752000000037,
                    "velocity": 0.6062992125984252,
                    "duration": 0.417072000000001
                },
                {
                    "name": "D3",
                    "midi": 50,
                    "time": 27.526752000000037,
                    "velocity": 0.6771653543307087,
                    "duration": 0.417072000000001
                },
                {
                    "name": "B1",
                    "midi": 35,
                    "time": 27.94382400000004,
                    "velocity": 0.5826771653543307,
                    "duration": 0.20853599999999872
                },
                {
                    "name": "B2",
                    "midi": 47,
                    "time": 27.94382400000004,
                    "velocity": 0.6535433070866141,
                    "duration": 0.20853599999999872
                },
                {
                    "name": "A1",
                    "midi": 33,
                    "time": 28.360896000000036,
                    "velocity": 0.5118110236220472,
                    "duration": 0.20853599999999872
                },
                {
                    "name": "A2",
                    "midi": 45,
                    "time": 28.360896000000036,
                    "velocity": 0.5748031496062992,
                    "duration": 0.20853599999999872
                },
                {
                    "name": "G1",
                    "midi": 31,
                    "time": 28.777968000000033,
                    "velocity": 0.5196850393700787,
                    "duration": 0.20853600000000228
                },
                {
                    "name": "G2",
                    "midi": 43,
                    "time": 28.777968000000033,
                    "velocity": 0.5826771653543307,
                    "duration": 0.20853600000000228
                },
                {
                    "name": "F#1",
                    "midi": 30,
                    "time": 29.090772000000033,
                    "velocity": 0.5354330708661418,
                    "duration": 0.10426800000000114
                },
                {
                    "name": "F#2",
                    "midi": 42,
                    "time": 29.090772000000033,
                    "velocity": 0.5984251968503937,
                    "duration": 0.10426800000000114
                },
                {
                    "name": "E1",
                    "midi": 28,
                    "time": 29.195040000000034,
                    "velocity": 0.6220472440944882,
                    "duration": 0.20853599999999872
                },
                {
                    "name": "E2",
                    "midi": 40,
                    "time": 29.195040000000034,
                    "velocity": 0.6929133858267716,
                    "duration": 0.20853599999999872
                },
                {
                    "name": "A1",
                    "midi": 33,
                    "time": 29.61211200000003,
                    "velocity": 0.49606299212598426,
                    "duration": 0.417072000000001
                },
                {
                    "name": "A2",
                    "midi": 45,
                    "time": 29.61211200000003,
                    "velocity": 0.5511811023622047,
                    "duration": 0.417072000000001
                },
                {
                    "name": "D2",
                    "midi": 38,
                    "time": 30.029184000000033,
                    "velocity": 0.5511811023622047,
                    "duration": 0.41707199999999744
                },
                {
                    "name": "D3",
                    "midi": 50,
                    "time": 30.029184000000033,
                    "velocity": 0.6141732283464567,
                    "duration": 0.41707199999999744
                },
                {
                    "name": "A2",
                    "midi": 45,
                    "time": 30.86332800000003,
                    "velocity": 0.4881889763779528,
                    "duration": 0.10426800000000114
                },
                {
                    "name": "A3",
                    "midi": 57,
                    "time": 30.86332800000003,
                    "velocity": 0.5433070866141733,
                    "duration": 0.10426800000000114
                },
                {
                    "name": "C#3",
                    "midi": 49,
                    "time": 31.071864000000033,
                    "velocity": 0.4881889763779528,
                    "duration": 0.10426800000000114
                },
                {
                    "name": "C#4",
                    "midi": 61,
                    "time": 31.071864000000033,
                    "velocity": 0.5433070866141733,
                    "duration": 0.10426800000000114
                },
                {
                    "name": "E3",
                    "midi": 52,
                    "time": 31.280400000000036,
                    "velocity": 0.5039370078740157,
                    "duration": 0.31280399999999986
                },
                {
                    "name": "E4",
                    "midi": 64,
                    "time": 31.280400000000036,
                    "velocity": 0.5669291338582677,
                    "duration": 0.31280399999999986
                },
                {
                    "name": "C3",
                    "midi": 48,
                    "time": 31.593204000000036,
                    "velocity": 0.4251968503937008,
                    "duration": 0.10426800000000114
                },
                {
                    "name": "C4",
                    "midi": 60,
                    "time": 31.593204000000036,
                    "velocity": 0.48031496062992124,
                    "duration": 0.10426800000000114
                },
                {
                    "name": "C#3",
                    "midi": 49,
                    "time": 31.697472000000037,
                    "velocity": 0.4566929133858268,
                    "duration": 0.3996940000000002
                },
                {
                    "name": "C#4",
                    "midi": 61,
                    "time": 31.697472000000037,
                    "velocity": 0.5118110236220472,
                    "duration": 0.3996940000000002
                },
                {
                    "name": "A2",
                    "midi": 45,
                    "time": 32.11454400000004,
                    "velocity": 0.4409448818897638,
                    "duration": 0.39969400000000377
                },
                {
                    "name": "A3",
                    "midi": 57,
                    "time": 32.11454400000004,
                    "velocity": 0.49606299212598426,
                    "duration": 0.39969400000000377
                },
                {
                    "name": "B2",
                    "midi": 47,
                    "time": 32.53161600000004,
                    "velocity": 0.4409448818897638,
                    "duration": 0.39969399999999666
                },
                {
                    "name": "B3",
                    "midi": 59,
                    "time": 32.53161600000004,
                    "velocity": 0.49606299212598426,
                    "duration": 0.39969399999999666
                },
                {
                    "name": "E2",
                    "midi": 40,
                    "time": 32.94868800000004,
                    "velocity": 0.4251968503937008,
                    "duration": 0.31280399999999986
                },
                {
                    "name": "E3",
                    "midi": 52,
                    "time": 32.94868800000004,
                    "velocity": 0.48031496062992124,
                    "duration": 0.31280399999999986
                },
                {
                    "name": "F#2",
                    "midi": 42,
                    "time": 33.36576000000004,
                    "velocity": 0.4330708661417323,
                    "duration": 0.10426799999999758
                },
                {
                    "name": "F#3",
                    "midi": 54,
                    "time": 33.36576000000004,
                    "velocity": 0.4881889763779528,
                    "duration": 0.10426799999999758
                },
                {
                    "name": "G#2",
                    "midi": 44,
                    "time": 33.57429600000003,
                    "velocity": 0.4330708661417323,
                    "duration": 0.10426799999999758
                },
                {
                    "name": "G#3",
                    "midi": 56,
                    "time": 33.57429600000003,
                    "velocity": 0.4881889763779528,
                    "duration": 0.10426799999999758
                },
                {
                    "name": "A2",
                    "midi": 45,
                    "time": 33.78283200000003,
                    "velocity": 0.4566929133858268,
                    "duration": 0.31280399999999986
                },
                {
                    "name": "A3",
                    "midi": 57,
                    "time": 33.78283200000003,
                    "velocity": 0.5118110236220472,
                    "duration": 0.31280399999999986
                },
                {
                    "name": "F2",
                    "midi": 41,
                    "time": 34.09563600000003,
                    "velocity": 0.4094488188976378,
                    "duration": 0.10426800000000469
                },
                {
                    "name": "F3",
                    "midi": 53,
                    "time": 34.09563600000003,
                    "velocity": 0.4566929133858268,
                    "duration": 0.10426800000000469
                },
                {
                    "name": "F#2",
                    "midi": 42,
                    "time": 34.19990400000003,
                    "velocity": 0.4094488188976378,
                    "duration": 0.39969399999999666
                },
                {
                    "name": "F#3",
                    "midi": 54,
                    "time": 34.19990400000003,
                    "velocity": 0.4566929133858268,
                    "duration": 0.39969399999999666
                },
                {
                    "name": "D2",
                    "midi": 38,
                    "time": 34.61697600000003,
                    "velocity": 0.4251968503937008,
                    "duration": 0.39969399999999666
                },
                {
                    "name": "D3",
                    "midi": 50,
                    "time": 34.61697600000003,
                    "velocity": 0.48031496062992124,
                    "duration": 0.39969399999999666
                },
                {
                    "name": "E2",
                    "midi": 40,
                    "time": 35.03404800000003,
                    "velocity": 0.4015748031496063,
                    "duration": 0.39969400000000377
                },
                {
                    "name": "E3",
                    "midi": 52,
                    "time": 35.03404800000003,
                    "velocity": 0.44881889763779526,
                    "duration": 0.39969400000000377
                },
                {
                    "name": "A1",
                    "midi": 33,
                    "time": 35.45112000000003,
                    "velocity": 0.4015748031496063,
                    "duration": 0.31280399999999986
                },
                {
                    "name": "A2",
                    "midi": 45,
                    "time": 35.45112000000003,
                    "velocity": 0.44881889763779526,
                    "duration": 0.31280399999999986
                },
                {
                    "name": "A1",
                    "midi": 33,
                    "time": 35.86819200000003,
                    "velocity": 0.4094488188976378,
                    "duration": 0.10426799999999758
                },
                {
                    "name": "A2",
                    "midi": 45,
                    "time": 35.86819200000003,
                    "velocity": 0.4566929133858268,
                    "duration": 0.10426799999999758
                },
                {
                    "name": "C#2",
                    "midi": 37,
                    "time": 36.076728000000024,
                    "velocity": 0.4094488188976378,
                    "duration": 0.10426799999999758
                },
                {
                    "name": "C#3",
                    "midi": 49,
                    "time": 36.076728000000024,
                    "velocity": 0.4566929133858268,
                    "duration": 0.10426799999999758
                },
                {
                    "name": "E2",
                    "midi": 40,
                    "time": 36.28526400000002,
                    "velocity": 0.4251968503937008,
                    "duration": 0.31280399999999986
                },
                {
                    "name": "E3",
                    "midi": 52,
                    "time": 36.28526400000002,
                    "velocity": 0.48031496062992124,
                    "duration": 0.31280399999999986
                },
                {
                    "name": "C2",
                    "midi": 36,
                    "time": 36.59806800000002,
                    "velocity": 0.3543307086614173,
                    "duration": 0.10426800000000469
                },
                {
                    "name": "C3",
                    "midi": 48,
                    "time": 36.59806800000002,
                    "velocity": 0.4015748031496063,
                    "duration": 0.10426800000000469
                },
                {
                    "name": "C#2",
                    "midi": 37,
                    "time": 36.702336000000024,
                    "velocity": 0.3858267716535433,
                    "duration": 0.39969400000000377
                },
                {
                    "name": "C#3",
                    "midi": 49,
                    "time": 36.702336000000024,
                    "velocity": 0.4330708661417323,
                    "duration": 0.39969400000000377
                },
                {
                    "name": "A1",
                    "midi": 33,
                    "time": 37.11940800000003,
                    "velocity": 0.3779527559055118,
                    "duration": 0.39969400000000377
                },
                {
                    "name": "A2",
                    "midi": 45,
                    "time": 37.11940800000003,
                    "velocity": 0.4251968503937008,
                    "duration": 0.39969400000000377
                },
                {
                    "name": "B1",
                    "midi": 35,
                    "time": 37.53648000000003,
                    "velocity": 0.3700787401574803,
                    "duration": 0.39969399999999666
                },
                {
                    "name": "B2",
                    "midi": 47,
                    "time": 37.53648000000003,
                    "velocity": 0.41732283464566927,
                    "duration": 0.39969399999999666
                },
                {
                    "name": "E1",
                    "midi": 28,
                    "time": 37.95355200000003,
                    "velocity": 0.3543307086614173,
                    "duration": 0.31280399999999986
                },
                {
                    "name": "E2",
                    "midi": 40,
                    "time": 37.95355200000003,
                    "velocity": 0.4015748031496063,
                    "duration": 0.31280399999999986
                },
                {
                    "name": "F#1",
                    "midi": 30,
                    "time": 38.37062400000003,
                    "velocity": 0.2992125984251969,
                    "duration": 0.10426800000000469
                },
                {
                    "name": "F#2",
                    "midi": 42,
                    "time": 38.37062400000003,
                    "velocity": 0.33858267716535434,
                    "duration": 0.10426800000000469
                },
                {
                    "name": "G#1",
                    "midi": 32,
                    "time": 38.57916000000003,
                    "velocity": 0.2992125984251969,
                    "duration": 0.10426799999999758
                },
                {
                    "name": "G#2",
                    "midi": 44,
                    "time": 38.57916000000003,
                    "velocity": 0.33858267716535434,
                    "duration": 0.10426799999999758
                },
                {
                    "name": "A1",
                    "midi": 33,
                    "time": 38.787696000000025,
                    "velocity": 0.31496062992125984,
                    "duration": 0.31280399999999986
                },
                {
                    "name": "A2",
                    "midi": 45,
                    "time": 38.787696000000025,
                    "velocity": 0.3543307086614173,
                    "duration": 0.31280399999999986
                },
                {
                    "name": "F1",
                    "midi": 29,
                    "time": 39.100500000000025,
                    "velocity": 0.23622047244094488,
                    "duration": 0.10426800000000469
                },
                {
                    "name": "F2",
                    "midi": 41,
                    "time": 39.100500000000025,
                    "velocity": 0.2677165354330709,
                    "duration": 0.10426800000000469
                },
                {
                    "name": "F#1",
                    "midi": 30,
                    "time": 39.20476800000003,
                    "velocity": 0.2755905511811024,
                    "duration": 0.39969400000000377
                },
                {
                    "name": "F#2",
                    "midi": 42,
                    "time": 39.20476800000003,
                    "velocity": 0.30708661417322836,
                    "duration": 0.39969400000000377
                },
                {
                    "name": "D1",
                    "midi": 26,
                    "time": 39.621840000000034,
                    "velocity": 0.25984251968503935,
                    "duration": 0.39969400000000377
                },
                {
                    "name": "D2",
                    "midi": 38,
                    "time": 39.621840000000034,
                    "velocity": 0.29133858267716534,
                    "duration": 0.39969400000000377
                },
                {
                    "name": "E1",
                    "midi": 28,
                    "time": 40.03891200000004,
                    "velocity": 0.2283464566929134,
                    "duration": 0.39969400000000377
                },
                {
                    "name": "E2",
                    "midi": 40,
                    "time": 40.03891200000004,
                    "velocity": 0.25984251968503935,
                    "duration": 0.39969400000000377
                },
                {
                    "name": "A1",
                    "midi": 33,
                    "time": 40.45598400000004,
                    "velocity": 0.2125984251968504,
                    "duration": 0.41707200000000455
                },
                {
                    "name": "E2",
                    "midi": 40,
                    "time": 40.45598400000004,
                    "velocity": 0.23622047244094488,
                    "duration": 0.41707200000000455
                }
            ],
            "controlChanges": {
                "7": [
                    {
                        "number": 7,
                        "time": 0,
                        "value": 0.7874015748031497
                    }
                ],
                "10": [
                    {
                        "number": 10,
                        "time": 0,
                        "value": 0.5039370078740157
                    }
                ],
                "64": [
                    {
                        "number": 64,
                        "time": 0,
                        "value": 0
                    },
                    {
                        "number": 64,
                        "time": 0.8402262999999999,
                        "value": 1
                    },
                    {
                        "number": 64,
                        "time": 1.2607738999999998,
                        "value": 0
                    },
                    {
                        "number": 64,
                        "time": 1.3207279999999997,
                        "value": 1
                    },
                    {
                        "number": 64,
                        "time": 1.5692333999999997,
                        "value": 0
                    },
                    {
                        "number": 64,
                        "time": 1.7977540999999995,
                        "value": 1
                    },
                    {
                        "number": 64,
                        "time": 2.0914422999999993,
                        "value": 0
                    },
                    {
                        "number": 64,
                        "time": 2.140100699999999,
                        "value": 1
                    },
                    {
                        "number": 64,
                        "time": 2.502431999999999,
                        "value": 0
                    },
                    {
                        "number": 64,
                        "time": 2.5823707999999987,
                        "value": 1
                    },
                    {
                        "number": 64,
                        "time": 2.9255862999999986,
                        "value": 0
                    },
                    {
                        "number": 64,
                        "time": 3.0055250999999985,
                        "value": 1
                    },
                    {
                        "number": 64,
                        "time": 3.2018964999999984,
                        "value": 0
                    },
                    {
                        "number": 64,
                        "time": 3.385234399999998,
                        "value": 1
                    },
                    {
                        "number": 64,
                        "time": 3.7632058999999973,
                        "value": 0
                    },
                    {
                        "number": 64,
                        "time": 3.843144699999997,
                        "value": 1
                    },
                    {
                        "number": 64,
                        "time": 4.076009899999997,
                        "value": 0
                    },
                    {
                        "number": 64,
                        "time": 4.300186099999998,
                        "value": 1
                    },
                    {
                        "number": 64,
                        "time": 4.5973498999999975,
                        "value": 0
                    },
                    {
                        "number": 64,
                        "time": 4.692059999999998,
                        "value": 1
                    },
                    {
                        "number": 64,
                        "time": 5.004863999999998,
                        "value": 0
                    },
                    {
                        "number": 64,
                        "time": 5.103049699999998,
                        "value": 1
                    },
                    {
                        "number": 64,
                        "time": 5.428018299999998,
                        "value": 0
                    },
                    {
                        "number": 64,
                        "time": 5.483627899999998,
                        "value": 1
                    },
                    {
                        "number": 64,
                        "time": 5.648718899999999,
                        "value": 0
                    },
                    {
                        "number": 64,
                        "time": 5.887666399999999,
                        "value": 1
                    },
                    {
                        "number": 64,
                        "time": 6.25608,
                        "value": 0
                    },
                    {
                        "number": 64,
                        "time": 6.3203786,
                        "value": 1
                    },
                    {
                        "number": 64,
                        "time": 6.5723595999999995,
                        "value": 0
                    },
                    {
                        "number": 64,
                        "time": 6.7574353,
                        "value": 1
                    },
                    {
                        "number": 64,
                        "time": 7.1041264,
                        "value": 0
                    },
                    {
                        "number": 64,
                        "time": 7.229248,
                        "value": 1
                    },
                    {
                        "number": 64,
                        "time": 7.507296,
                        "value": 0
                    },
                    {
                        "number": 64,
                        "time": 7.562905600000001,
                        "value": 1
                    },
                    {
                        "number": 64,
                        "time": 7.940877100000001,
                        "value": 0
                    },
                    {
                        "number": 64,
                        "time": 8.0164714,
                        "value": 1
                    },
                    {
                        "number": 64,
                        "time": 8.1945959,
                        "value": 0
                    },
                    {
                        "number": 64,
                        "time": 8.359686899999998,
                        "value": 1
                    },
                    {
                        "number": 64,
                        "time": 8.758511999999996,
                        "value": 0
                    },
                    {
                        "number": 64,
                        "time": 8.848008699999996,
                        "value": 1
                    },
                    {
                        "number": 64,
                        "time": 9.075660499999996,
                        "value": 0
                    },
                    {
                        "number": 64,
                        "time": 9.374562099999995,
                        "value": 1
                    },
                    {
                        "number": 64,
                        "time": 9.599607199999996,
                        "value": 0
                    },
                    {
                        "number": 64,
                        "time": 9.756878099999996,
                        "value": 1
                    },
                    {
                        "number": 64,
                        "time": 10.009727999999997,
                        "value": 0
                    },
                    {
                        "number": 64,
                        "time": 10.138325199999997,
                        "value": 1
                    },
                    {
                        "number": 64,
                        "time": 10.445046899999998,
                        "value": 0
                    },
                    {
                        "number": 64,
                        "time": 10.567561799999998,
                        "value": 1
                    },
                    {
                        "number": 64,
                        "time": 10.690945599999997,
                        "value": 0
                    },
                    {
                        "number": 64,
                        "time": 10.972469199999997,
                        "value": 1
                    },
                    {
                        "number": 64,
                        "time": 11.199252099999997,
                        "value": 0
                    },
                    {
                        "number": 64,
                        "time": 12.139401899999992,
                        "value": 1
                    },
                    {
                        "number": 64,
                        "time": 12.512159999999993,
                        "value": 0
                    },
                    {
                        "number": 64,
                        "time": 13.395831299999987,
                        "value": 1
                    },
                    {
                        "number": 64,
                        "time": 13.763375999999987,
                        "value": 0
                    },
                    {
                        "number": 64,
                        "time": 14.647916199999981,
                        "value": 1
                    },
                    {
                        "number": 64,
                        "time": 15.01459199999998,
                        "value": 0
                    },
                    {
                        "number": 64,
                        "time": 15.898263299999975,
                        "value": 1
                    },
                    {
                        "number": 64,
                        "time": 16.265807999999975,
                        "value": 0
                    },
                    {
                        "number": 64,
                        "time": 18.786486899999986,
                        "value": 1
                    },
                    {
                        "number": 64,
                        "time": 19.044550199999986,
                        "value": 0
                    },
                    {
                        "number": 64,
                        "time": 19.233970399999986,
                        "value": 1
                    },
                    {
                        "number": 64,
                        "time": 19.406012599999986,
                        "value": 0
                    },
                    {
                        "number": 64,
                        "time": 19.651042399999987,
                        "value": 1
                    },
                    {
                        "number": 64,
                        "time": 20.02119379999999,
                        "value": 0
                    },
                    {
                        "number": 64,
                        "time": 20.129806299999988,
                        "value": 1
                    },
                    {
                        "number": 64,
                        "time": 20.442610299999988,
                        "value": 0
                    },
                    {
                        "number": 64,
                        "time": 20.877929199999986,
                        "value": 1
                    },
                    {
                        "number": 64,
                        "time": 21.27067199999999,
                        "value": 0
                    },
                    {
                        "number": 64,
                        "time": 22.139572,
                        "value": 1
                    },
                    {
                        "number": 64,
                        "time": 22.521888,
                        "value": 0
                    },
                    {
                        "number": 64,
                        "time": 23.40034590000001,
                        "value": 1
                    },
                    {
                        "number": 64,
                        "time": 23.773104000000007,
                        "value": 0
                    },
                    {
                        "number": 64,
                        "time": 24.652430800000015,
                        "value": 1
                    },
                    {
                        "number": 64,
                        "time": 25.024320000000017,
                        "value": 0
                    },
                    {
                        "number": 64,
                        "time": 25.918418100000025,
                        "value": 1
                    },
                    {
                        "number": 64,
                        "time": 26.275536000000024,
                        "value": 0
                    },
                    {
                        "number": 64,
                        "time": 28.796214900000034,
                        "value": 1
                    },
                    {
                        "number": 64,
                        "time": 29.084689700000034,
                        "value": 0
                    },
                    {
                        "number": 64,
                        "time": 29.262814200000033,
                        "value": 1
                    },
                    {
                        "number": 64,
                        "time": 29.36099990000003,
                        "value": 0
                    },
                    {
                        "number": 64,
                        "time": 29.654688100000033,
                        "value": 1
                    },
                    {
                        "number": 64,
                        "time": 30.03352850000003,
                        "value": 0
                    },
                    {
                        "number": 64,
                        "time": 30.10304050000003,
                        "value": 1
                    },
                    {
                        "number": 64,
                        "time": 30.348070300000032,
                        "value": 0
                    },
                    {
                        "number": 64,
                        "time": 30.88765720000003,
                        "value": 1
                    },
                    {
                        "number": 64,
                        "time": 31.280400000000036,
                        "value": 0
                    },
                    {
                        "number": 64,
                        "time": 31.359469900000036,
                        "value": 1
                    },
                    {
                        "number": 64,
                        "time": 31.601024100000036,
                        "value": 0
                    },
                    {
                        "number": 64,
                        "time": 31.811297900000035,
                        "value": 1
                    },
                    {
                        "number": 64,
                        "time": 32.13105310000004,
                        "value": 0
                    },
                    {
                        "number": 64,
                        "time": 32.22836990000004,
                        "value": 1
                    },
                    {
                        "number": 64,
                        "time": 32.53161600000004,
                        "value": 0
                    },
                    {
                        "number": 64,
                        "time": 32.63588400000004,
                        "value": 1
                    },
                    {
                        "number": 64,
                        "time": 32.96432820000004,
                        "value": 0
                    },
                    {
                        "number": 64,
                        "time": 33.05903830000004,
                        "value": 1
                    },
                    {
                        "number": 64,
                        "time": 33.18763550000004,
                        "value": 0
                    },
                    {
                        "number": 64,
                        "time": 33.390089200000034,
                        "value": 1
                    },
                    {
                        "number": 64,
                        "time": 33.78283200000003,
                        "value": 0
                    },
                    {
                        "number": 64,
                        "time": 33.83235930000003,
                        "value": 1
                    },
                    {
                        "number": 64,
                        "time": 34.09911160000003,
                        "value": 0
                    },
                    {
                        "number": 64,
                        "time": 34.33371460000003,
                        "value": 1
                    },
                    {
                        "number": 64,
                        "time": 34.63087840000003,
                        "value": 0
                    },
                    {
                        "number": 64,
                        "time": 34.72124400000003,
                        "value": 1
                    },
                    {
                        "number": 64,
                        "time": 35.03404800000003,
                        "value": 0
                    },
                    {
                        "number": 64,
                        "time": 35.12006910000003,
                        "value": 1
                    },
                    {
                        "number": 64,
                        "time": 35.456333400000034,
                        "value": 0
                    },
                    {
                        "number": 64,
                        "time": 35.54322340000003,
                        "value": 1
                    },
                    {
                        "number": 64,
                        "time": 35.64749140000003,
                        "value": 0
                    },
                    {
                        "number": 64,
                        "time": 35.88035660000003,
                        "value": 1
                    },
                    {
                        "number": 64,
                        "time": 36.28526400000002,
                        "value": 0
                    },
                    {
                        "number": 64,
                        "time": 36.36520280000002,
                        "value": 1
                    },
                    {
                        "number": 64,
                        "time": 36.60501920000002,
                        "value": 0
                    },
                    {
                        "number": 64,
                        "time": 36.831802100000026,
                        "value": 1
                    },
                    {
                        "number": 64,
                        "time": 37.130703700000026,
                        "value": 0
                    },
                    {
                        "number": 64,
                        "time": 37.26364540000003,
                        "value": 1
                    },
                    {
                        "number": 64,
                        "time": 37.53648000000003,
                        "value": 0
                    },
                    {
                        "number": 64,
                        "time": 37.62858340000003,
                        "value": 1
                    },
                    {
                        "number": 64,
                        "time": 37.96571660000003,
                        "value": 0
                    },
                    {
                        "number": 64,
                        "time": 38.08214920000003,
                        "value": 1
                    },
                    {
                        "number": 64,
                        "time": 38.21769760000003,
                        "value": 0
                    },
                    {
                        "number": 64,
                        "time": 38.40711780000003,
                        "value": 1
                    },
                    {
                        "number": 64,
                        "time": 38.802467300000025,
                        "value": 0
                    },
                    {
                        "number": 64,
                        "time": 38.882406100000026,
                        "value": 1
                    },
                    {
                        "number": 64,
                        "time": 39.10745120000003,
                        "value": 0
                    },
                    {
                        "number": 64,
                        "time": 39.36377670000003,
                        "value": 1
                    },
                    {
                        "number": 64,
                        "time": 39.63400460000003,
                        "value": 0
                    },
                    {
                        "number": 64,
                        "time": 39.766077400000036,
                        "value": 1
                    },
                    {
                        "number": 64,
                        "time": 40.04412540000004,
                        "value": 0
                    },
                    {
                        "number": 64,
                        "time": 40.20139630000004,
                        "value": 1
                    },
                    {
                        "number": 64,
                        "time": 40.46727970000004,
                        "value": 0
                    },
                    {
                        "number": 64,
                        "time": 40.850464600000045,
                        "value": 1
                    },
                    {
                        "number": 64,
                        "time": 41.290128000000045,
                        "value": 0
                    }
                ],
                "91": [
                    {
                        "number": 91,
                        "time": 0.8332750999999999,
                        "value": 1
                    }
                ]
            },
            "id": 2,
            "name": "Piano left",
            "instrumentNumber": 0,
            "instrument": "acoustic grand piano",
            "instrumentFamily": "piano",
            "channelNumber": 0,
            "isPercussion": false
        },
        {
            "startTime": 0,
            "duration": 0,
            "length": 0,
            "notes": [],
            "controlChanges": {},
            "id": 3,
            "name": "Schumann: Scenes from Childhood Op. 15"
        },
        {
            "startTime": 0,
            "duration": 0,
            "length": 0,
            "notes": [],
            "controlChanges": {},
            "id": 4,
            "name": "Copyright  1997 by Bernd Krueger"
        },
        {
            "startTime": 0,
            "duration": 0,
            "length": 0,
            "notes": [],
            "controlChanges": {},
            "id": 5,
            "name": "http://www.piano-midi.de"
        },
        {
            "startTime": 0,
            "duration": 0,
            "length": 0,
            "notes": [],
            "controlChanges": {},
            "id": 6,
            "name": "Edition: 2014-03-26"
        }
    ]
}