{
    "header": {
        "PPQ": 480,
        "timeSignature": [
            2,
            4
        ],
        "bpm": 47.499996041666996,
        "name": "Kinderszenen Opus 15"
    },
    "startTime": 0,
    "duration": 41.684214000000026,
    "tracks": [
        {
            "startTime": 0,
            "duration": 0,
            "length": 0,
            "notes": [],
            "controlChanges": {},
            "id": 0,
            "name": "Kinderszenen Opus 15"
        },
        {
            "startTime": 0.002631579166666667,
            "duration": 41.684214000000026,
            "length": 133,
            "notes": [
                {
                    "name": "G4",
                    "midi": 67,
                    "time": 0.002631579166666667,
                    "velocity": 0.3543307086614173,
                    "duration": 0.3157895
                },
                {
                    "name": "B4",
                    "midi": 71,
                    "time": 0.002631579166666667,
                    "velocity": 0.4015748031496063,
                    "duration": 0.6289474208333333
                },
                {
                    "name": "E4",
                    "midi": 64,
                    "time": 0.3157895,
                    "velocity": 0.31496062992125984,
                    "duration": 0.3157895
                },
                {
                    "name": "G5",
                    "midi": 79,
                    "time": 0.631579,
                    "velocity": 0.4330708661417323,
                    "duration": 0.631579
                },
                {
                    "name": "A#4",
                    "midi": 70,
                    "time": 1.263158,
                    "velocity": 0.3543307086614173,
                    "duration": 0.31578949999999995
                },
                {
                    "name": "F#5",
                    "midi": 78,
                    "time": 1.263158,
                    "velocity": 0.4015748031496063,
                    "duration": 0.6315789999999999
                },
                {
                    "name": "G4",
                    "midi": 67,
                    "time": 1.5789475,
                    "velocity": 0.33070866141732286,
                    "duration": 0.31578949999999995
                },
                {
                    "name": "E5",
                    "midi": 76,
                    "time": 1.894737,
                    "velocity": 0.3937007874015748,
                    "duration": 0.6315790000000001
                },
                {
                    "name": "A4",
                    "midi": 69,
                    "time": 2.526316,
                    "velocity": 0.3543307086614173,
                    "duration": 0.31578950000000017
                },
                {
                    "name": "D5",
                    "midi": 74,
                    "time": 2.526316,
                    "velocity": 0.3779527559055118,
                    "duration": 0.6315790000000003
                },
                {
                    "name": "F#4",
                    "midi": 66,
                    "time": 2.8421055,
                    "velocity": 0.2755905511811024,
                    "duration": 0.31578950000000017
                },
                {
                    "name": "G#4",
                    "midi": 68,
                    "time": 3.1578950000000003,
                    "velocity": 0.29133858267716534,
                    "duration": 0.6315789999999999
                },
                {
                    "name": "B4",
                    "midi": 71,
                    "time": 3.1578950000000003,
                    "velocity": 0.3464566929133858,
                    "duration": 0.6315789999999999
                },
                {
                    "name": "A4",
                    "midi": 69,
                    "time": 3.7894740000000002,
                    "velocity": 0.2755905511811024,
                    "duration": 0.31578950000000017
                },
                {
                    "name": "C#5",
                    "midi": 73,
                    "time": 3.7894740000000002,
                    "velocity": 0.30708661417322836,
                    "duration": 1.2631580000000007
                },
                {
                    "name": "E4",
                    "midi": 64,
                    "time": 4.1052635,
                    "velocity": 0.2204724409448819,
                    "duration": 0.31578950000000017
                },
                {
                    "name": "G4",
                    "midi": 67,
                    "time": 5.052632000000001,
                    "velocity": 0.36220472440944884,
                    "duration": 0.31578950000000017
                },
                {
                    "name": "B4",
                    "midi": 71,
                    "time": 5.052632000000001,
                    "velocity": 0.36220472440944884,
                    "duration": 0.6315790000000003
                },
                {
                    "name": "E4",
                    "midi": 64,
                    "time": 5.368421500000001,
                    "velocity": 0.2755905511811024,
                    "duration": 0.31578950000000017
                },
                {
                    "name": "G5",
                    "midi": 79,
                    "time": 5.684211000000001,
                    "velocity": 0.4251968503937008,
                    "duration": 0.6315790000000003
                },
                {
                    "name": "A#4",
                    "midi": 70,
                    "time": 6.315790000000002,
                    "velocity": 0.3858267716535433,
                    "duration": 0.31578950000000017
                },
                {
                    "name": "F#5",
                    "midi": 78,
                    "time": 6.315790000000002,
                    "velocity": 0.3858267716535433,
                    "duration": 0.6315790000000003
                },
                {
                    "name": "G4",
                    "midi": 67,
                    "time": 6.631579500000002,
                    "velocity": 0.3228346456692913,
                    "duration": 0.31578950000000017
                },
                {
                    "name": "E5",
                    "midi": 76,
                    "time": 6.947369000000002,
                    "velocity": 0.3858267716535433,
                    "duration": 0.6315790000000003
                },
                {
                    "name": "A4",
                    "midi": 69,
                    "time": 7.578948000000002,
                    "velocity": 0.3779527559055118,
                    "duration": 0.31578950000000017
                },
                {
                    "name": "D5",
                    "midi": 74,
                    "time": 7.578948000000002,
                    "velocity": 0.3779527559055118,
                    "duration": 0.6315790000000003
                },
                {
                    "name": "F#4",
                    "midi": 66,
                    "time": 7.894737500000002,
                    "velocity": 0.2755905511811024,
                    "duration": 0.31578950000000017
                },
                {
                    "name": "G#4",
                    "midi": 68,
                    "time": 8.210527000000003,
                    "velocity": 0.29133858267716534,
                    "duration": 0.6315790000000003
                },
                {
                    "name": "B4",
                    "midi": 71,
                    "time": 8.210527000000003,
                    "velocity": 0.3464566929133858,
                    "duration": 0.6315790000000003
                },
                {
                    "name": "A4",
                    "midi": 69,
                    "time": 8.842106000000003,
                    "velocity": 0.2755905511811024,
                    "duration": 0.3157894999999993
                },
                {
                    "name": "C#5",
                    "midi": 73,
                    "time": 8.842106000000003,
                    "velocity": 0.30708661417322836,
                    "duration": 1.263157999999999
                },
                {
                    "name": "E4",
                    "midi": 64,
                    "time": 9.157895500000002,
                    "velocity": 0.2204724409448819,
                    "duration": 0.3157894999999993
                },
                {
                    "name": "C5",
                    "midi": 72,
                    "time": 10.105264000000002,
                    "velocity": 0.3858267716535433,
                    "duration": 0.6315789999999986
                },
                {
                    "name": "A4",
                    "midi": 69,
                    "time": 10.105264000000002,
                    "velocity": 0.30708661417322836,
                    "duration": 0.3157894999999993
                },
                {
                    "name": "E4",
                    "midi": 64,
                    "time": 10.421053500000001,
                    "velocity": 0.2677165354330709,
                    "duration": 0.3157894999999993
                },
                {
                    "name": "F#4",
                    "midi": 66,
                    "time": 10.736843,
                    "velocity": 0.23622047244094488,
                    "duration": 0.3157894999999993
                },
                {
                    "name": "A4",
                    "midi": 69,
                    "time": 10.736843,
                    "velocity": 0.3228346456692913,
                    "duration": 0.6315789999999986
                },
                {
                    "name": "D#4",
                    "midi": 63,
                    "time": 11.0526325,
                    "velocity": 0.2283464566929134,
                    "duration": 0.3157894999999993
                },
                {
                    "name": "G4",
                    "midi": 67,
                    "time": 11.368421999999999,
                    "velocity": 0.33070866141732286,
                    "duration": 0.3157894999999993
                },
                {
                    "name": "B4",
                    "midi": 71,
                    "time": 11.368421999999999,
                    "velocity": 0.33070866141732286,
                    "duration": 0.6315789999999986
                },
                {
                    "name": "D4",
                    "midi": 62,
                    "time": 11.684211499999998,
                    "velocity": 0.2755905511811024,
                    "duration": 0.3157894999999993
                },
                {
                    "name": "D#4",
                    "midi": 63,
                    "time": 12.000000999999997,
                    "velocity": 0.23622047244094488,
                    "duration": 0.3157894999999993
                },
                {
                    "name": "F#4",
                    "midi": 66,
                    "time": 12.000000999999997,
                    "velocity": 0.31496062992125984,
                    "duration": 0.6315789999999986
                },
                {
                    "name": "C4",
                    "midi": 60,
                    "time": 12.315790499999997,
                    "velocity": 0.23622047244094488,
                    "duration": 0.3157894999999993
                },
                {
                    "name": "D4",
                    "midi": 62,
                    "time": 12.631579999999996,
                    "velocity": 0.28346456692913385,
                    "duration": 0.3157894999999993
                },
                {
                    "name": "G4",
                    "midi": 67,
                    "time": 12.631579999999996,
                    "velocity": 0.33070866141732286,
                    "duration": 0.6315789999999986
                },
                {
                    "name": "B3",
                    "midi": 59,
                    "time": 12.947369499999995,
                    "velocity": 0.25984251968503935,
                    "duration": 0.3157894999999993
                },
                {
                    "name": "C#4",
                    "midi": 61,
                    "time": 13.263158999999995,
                    "velocity": 0.23622047244094488,
                    "duration": 0.3157894999999993
                },
                {
                    "name": "E4",
                    "midi": 64,
                    "time": 13.263158999999995,
                    "velocity": 0.2992125984251969,
                    "duration": 0.6315789999999986
                },
                {
                    "name": "A#3",
                    "midi": 58,
                    "time": 13.578948499999994,
                    "velocity": 0.2283464566929134,
                    "duration": 0.3157894999999993
                },
                {
                    "name": "F#4",
                    "midi": 66,
                    "time": 13.894737999999993,
                    "velocity": 0.31496062992125984,
                    "duration": 1.263157999999999
                },
                {
                    "name": "D4",
                    "midi": 62,
                    "time": 13.894737999999993,
                    "velocity": 0.2755905511811024,
                    "duration": 0.3157894999999993
                },
                {
                    "name": "A3",
                    "midi": 57,
                    "time": 14.210527499999992,
                    "velocity": 0.23622047244094488,
                    "duration": 0.3157894999999993
                },
                {
                    "name": "A4",
                    "midi": 69,
                    "time": 15.157895999999992,
                    "velocity": 0.2755905511811024,
                    "duration": 0.3157894999999993
                },
                {
                    "name": "C5",
                    "midi": 72,
                    "time": 15.157895999999992,
                    "velocity": 0.3464566929133858,
                    "duration": 0.6315789999999986
                },
                {
                    "name": "E4",
                    "midi": 64,
                    "time": 15.473685499999991,
                    "velocity": 0.23622047244094488,
                    "duration": 0.3157894999999993
                },
                {
                    "name": "F#4",
                    "midi": 66,
                    "time": 15.78947499999999,
                    "velocity": 0.2125984251968504,
                    "duration": 0.3157894999999993
                },
                {
                    "name": "A4",
                    "midi": 69,
                    "time": 15.78947499999999,
                    "velocity": 0.28346456692913385,
                    "duration": 0.6315790000000003
                },
                {
                    "name": "D#4",
                    "midi": 63,
                    "time": 16.10526449999999,
                    "velocity": 0.2047244094488189,
                    "duration": 0.31578950000000106
                },
                {
                    "name": "G4",
                    "midi": 67,
                    "time": 16.42105399999999,
                    "velocity": 0.29133858267716534,
                    "duration": 0.31578950000000106
                },
                {
                    "name": "B4",
                    "midi": 71,
                    "time": 16.42105399999999,
                    "velocity": 0.29133858267716534,
                    "duration": 0.6315790000000021
                },
                {
                    "name": "D4",
                    "midi": 62,
                    "time": 16.736843499999992,
                    "velocity": 0.2440944881889764,
                    "duration": 0.31578950000000106
                },
                {
                    "name": "D#4",
                    "midi": 63,
                    "time": 17.052632999999993,
                    "velocity": 0.2125984251968504,
                    "duration": 0.31578950000000106
                },
                {
                    "name": "F#4",
                    "midi": 66,
                    "time": 17.052632999999993,
                    "velocity": 0.28346456692913385,
                    "duration": 0.6315790000000021
                },
                {
                    "name": "C4",
                    "midi": 60,
                    "time": 17.368422499999994,
                    "velocity": 0.2125984251968504,
                    "duration": 0.31578950000000106
                },
                {
                    "name": "D4",
                    "midi": 62,
                    "time": 17.684211999999995,
                    "velocity": 0.25196850393700787,
                    "duration": 0.31578950000000106
                },
                {
                    "name": "G4",
                    "midi": 67,
                    "time": 17.684211999999995,
                    "velocity": 0.29133858267716534,
                    "duration": 0.6315790000000021
                },
                {
                    "name": "B3",
                    "midi": 59,
                    "time": 18.000001499999996,
                    "velocity": 0.2283464566929134,
                    "duration": 0.31578950000000106
                },
                {
                    "name": "E4",
                    "midi": 64,
                    "time": 18.315790999999997,
                    "velocity": 0.2677165354330709,
                    "duration": 0.6315790000000021
                },
                {
                    "name": "C#4",
                    "midi": 61,
                    "time": 18.315790999999997,
                    "velocity": 0.2125984251968504,
                    "duration": 0.31578950000000106
                },
                {
                    "name": "A#3",
                    "midi": 58,
                    "time": 18.6315805,
                    "velocity": 0.2047244094488189,
                    "duration": 0.31578950000000106
                },
                {
                    "name": "D4",
                    "midi": 62,
                    "time": 18.94737,
                    "velocity": 0.2440944881889764,
                    "duration": 0.31578950000000106
                },
                {
                    "name": "F#4",
                    "midi": 66,
                    "time": 18.94737,
                    "velocity": 0.28346456692913385,
                    "duration": 1.2631580000000007
                },
                {
                    "name": "A3",
                    "midi": 57,
                    "time": 19.2631595,
                    "velocity": 0.2125984251968504,
                    "duration": 0.31578950000000106
                },
                {
                    "name": "D4",
                    "midi": 62,
                    "time": 20.210528,
                    "velocity": 0.30708661417322836,
                    "duration": 0.31578950000000106
                },
                {
                    "name": "F#4",
                    "midi": 66,
                    "time": 20.210528,
                    "velocity": 0.33858267716535434,
                    "duration": 0.6315790000000021
                },
                {
                    "name": "B3",
                    "midi": 59,
                    "time": 20.5263175,
                    "velocity": 0.30708661417322836,
                    "duration": 0.31578950000000106
                },
                {
                    "name": "G#4",
                    "midi": 68,
                    "time": 20.842107000000002,
                    "velocity": 0.36220472440944884,
                    "duration": 0.6315789999999986
                },
                {
                    "name": "A4",
                    "midi": 69,
                    "time": 21.473686,
                    "velocity": 0.3779527559055118,
                    "duration": 0.6315789999999986
                },
                {
                    "name": "B4",
                    "midi": 71,
                    "time": 22.105265,
                    "velocity": 0.3937007874015748,
                    "duration": 0.6315790000000021
                },
                {
                    "name": "F#4",
                    "midi": 66,
                    "time": 22.4210545,
                    "velocity": 0.3228346456692913,
                    "duration": 0.31578950000000106
                },
                {
                    "name": "C#5",
                    "midi": 73,
                    "time": 22.736844,
                    "velocity": 0.41732283464566927,
                    "duration": 0.6315790000000021
                },
                {
                    "name": "E4",
                    "midi": 64,
                    "time": 23.052633500000002,
                    "velocity": 0.3228346456692913,
                    "duration": 0.31578950000000106
                },
                {
                    "name": "G#4",
                    "midi": 68,
                    "time": 23.368423000000003,
                    "velocity": 0.3464566929133858,
                    "duration": 0.6315789999999986
                },
                {
                    "name": "B4",
                    "midi": 71,
                    "time": 23.368423000000003,
                    "velocity": 0.3700787401574803,
                    "duration": 0.6315789999999986
                },
                {
                    "name": "A4",
                    "midi": 69,
                    "time": 24.000002000000002,
                    "velocity": 0.36220472440944884,
                    "duration": 0.31578950000000106
                },
                {
                    "name": "C#4",
                    "midi": 61,
                    "time": 24.315791500000003,
                    "velocity": 0.29133858267716534,
                    "duration": 0.31578950000000106
                },
                {
                    "name": "D4",
                    "midi": 62,
                    "time": 25.263160000000003,
                    "velocity": 0.2755905511811024,
                    "duration": 0.31578950000000106
                },
                {
                    "name": "F#4",
                    "midi": 66,
                    "time": 25.263160000000003,
                    "velocity": 0.2992125984251969,
                    "duration": 0.6315790000000021
                },
                {
                    "name": "B3",
                    "midi": 59,
                    "time": 25.578949500000004,
                    "velocity": 0.2755905511811024,
                    "duration": 0.31578950000000106
                },
                {
                    "name": "G#4",
                    "midi": 68,
                    "time": 25.894739000000005,
                    "velocity": 0.3228346456692913,
                    "duration": 0.6315789999999986
                },
                {
                    "name": "A4",
                    "midi": 69,
                    "time": 26.526318000000003,
                    "velocity": 0.33858267716535434,
                    "duration": 0.6315789999999986
                },
                {
                    "name": "B4",
                    "midi": 71,
                    "time": 27.157897000000002,
                    "velocity": 0.3543307086614173,
                    "duration": 0.6315790000000021
                },
                {
                    "name": "F#4",
                    "midi": 66,
                    "time": 27.473686500000003,
                    "velocity": 0.28346456692913385,
                    "duration": 0.31578950000000106
                },
                {
                    "name": "C#5",
                    "midi": 73,
                    "time": 27.789476000000004,
                    "velocity": 0.3700787401574803,
                    "duration": 0.6315790000000021
                },
                {
                    "name": "E4",
                    "midi": 64,
                    "time": 28.105265500000005,
                    "velocity": 0.28346456692913385,
                    "duration": 0.31578950000000106
                },
                {
                    "name": "G#4",
                    "midi": 68,
                    "time": 28.421055000000006,
                    "velocity": 0.25984251968503935,
                    "duration": 0.6315789999999986
                },
                {
                    "name": "B4",
                    "midi": 71,
                    "time": 28.421055000000006,
                    "velocity": 0.2992125984251969,
                    "duration": 0.6315789999999986
                },
                {
                    "name": "A4",
                    "midi": 69,
                    "time": 29.052634000000005,
                    "velocity": 0.29133858267716534,
                    "duration": 1.2631580000000007
                },
                {
                    "name": "C#4",
                    "midi": 61,
                    "time": 29.368423500000006,
                    "velocity": 0.2204724409448819,
                    "duration": 0.31578950000000106
                },
                {
                    "name": "G4",
                    "midi": 67,
                    "time": 30.315792000000005,
                    "velocity": 0.3543307086614173,
                    "duration": 0.31578950000000106
                },
                {
                    "name": "B4",
                    "midi": 71,
                    "time": 30.315792000000005,
                    "velocity": 0.4015748031496063,
                    "duration": 0.6315790000000021
                },
                {
                    "name": "E4",
                    "midi": 64,
                    "time": 30.631581500000006,
                    "velocity": 0.31496062992125984,
                    "duration": 0.31578950000000106
                },
                {
                    "name": "G5",
                    "midi": 79,
                    "time": 30.947371000000008,
                    "velocity": 0.4330708661417323,
                    "duration": 0.6315789999999986
                },
                {
                    "name": "A#4",
                    "midi": 70,
                    "time": 31.578950000000006,
                    "velocity": 0.3543307086614173,
                    "duration": 0.31578950000000106
                },
                {
                    "name": "F#5",
                    "midi": 78,
                    "time": 31.578950000000006,
                    "velocity": 0.4015748031496063,
                    "duration": 0.6315790000000021
                },
                {
                    "name": "G4",
                    "midi": 67,
                    "time": 31.894739500000007,
                    "velocity": 0.33070866141732286,
                    "duration": 0.31578950000000106
                },
                {
                    "name": "E5",
                    "midi": 76,
                    "time": 32.21052900000001,
                    "velocity": 0.3937007874015748,
                    "duration": 0.6315790000000021
                },
                {
                    "name": "A4",
                    "midi": 69,
                    "time": 32.84210800000001,
                    "velocity": 0.3543307086614173,
                    "duration": 0.31578950000000106
                },
                {
                    "name": "D5",
                    "midi": 74,
                    "time": 32.84210800000001,
                    "velocity": 0.3779527559055118,
                    "duration": 0.6315790000000021
                },
                {
                    "name": "F#4",
                    "midi": 66,
                    "time": 33.15789750000001,
                    "velocity": 0.2755905511811024,
                    "duration": 0.31578950000000106
                },
                {
                    "name": "G#4",
                    "midi": 68,
                    "time": 33.47368700000001,
                    "velocity": 0.29133858267716534,
                    "duration": 0.6315790000000021
                },
                {
                    "name": "B4",
                    "midi": 71,
                    "time": 33.47368700000001,
                    "velocity": 0.3464566929133858,
                    "duration": 0.6315790000000021
                },
                {
                    "name": "A4",
                    "midi": 69,
                    "time": 34.105266000000015,
                    "velocity": 0.2755905511811024,
                    "duration": 0.31578950000000106
                },
                {
                    "name": "C#5",
                    "midi": 73,
                    "time": 34.105266000000015,
                    "velocity": 0.30708661417322836,
                    "duration": 1.2631580000000042
                },
                {
                    "name": "E4",
                    "midi": 64,
                    "time": 34.421055500000016,
                    "velocity": 0.2204724409448819,
                    "duration": 0.31578950000000106
                },
                {
                    "name": "G4",
                    "midi": 67,
                    "time": 35.36842400000002,
                    "velocity": 0.2992125984251969,
                    "duration": 0.31578950000000106
                },
                {
                    "name": "B4",
                    "midi": 71,
                    "time": 35.36842400000002,
                    "velocity": 0.33858267716535434,
                    "duration": 0.6315790000000021
                },
                {
                    "name": "E4",
                    "midi": 64,
                    "time": 35.68421350000002,
                    "velocity": 0.2677165354330709,
                    "duration": 0.31578950000000106
                },
                {
                    "name": "G5",
                    "midi": 79,
                    "time": 36.00000300000002,
                    "velocity": 0.36220472440944884,
                    "duration": 0.6315790000000021
                },
                {
                    "name": "A#4",
                    "midi": 70,
                    "time": 36.63158200000002,
                    "velocity": 0.2992125984251969,
                    "duration": 0.31578950000000106
                },
                {
                    "name": "F#5",
                    "midi": 78,
                    "time": 36.63158200000002,
                    "velocity": 0.33858267716535434,
                    "duration": 0.6315790000000021
                },
                {
                    "name": "G4",
                    "midi": 67,
                    "time": 36.947371500000024,
                    "velocity": 0.2755905511811024,
                    "duration": 0.31578950000000106
                },
                {
                    "name": "E5",
                    "midi": 76,
                    "time": 37.263161000000025,
                    "velocity": 0.33070866141732286,
                    "duration": 0.6315790000000021
                },
                {
                    "name": "A4",
                    "midi": 69,
                    "time": 37.89474000000003,
                    "velocity": 0.2992125984251969,
                    "duration": 0.368421083333331
                },
                {
                    "name": "D5",
                    "midi": 74,
                    "time": 37.89474000000003,
                    "velocity": 0.31496062992125984,
                    "duration": 0.631578999999995
                },
                {
                    "name": "F#4",
                    "midi": 66,
                    "time": 38.21052950000003,
                    "velocity": 0.2283464566929134,
                    "duration": 0.31578949999999395
                },
                {
                    "name": "G#4",
                    "midi": 68,
                    "time": 38.52631900000002,
                    "velocity": 0.2440944881889764,
                    "duration": 0.6315790000000021
                },
                {
                    "name": "B4",
                    "midi": 71,
                    "time": 38.52631900000002,
                    "velocity": 0.29133858267716534,
                    "duration": 0.6315790000000021
                },
                {
                    "name": "A4",
                    "midi": 69,
                    "time": 39.157898000000024,
                    "velocity": 0.2283464566929134,
                    "duration": 2.5263160000000013
                },
                {
                    "name": "C#5",
                    "midi": 73,
                    "time": 39.157898000000024,
                    "velocity": 0.25984251968503935,
                    "duration": 2.5263160000000013
                },
                {
                    "name": "E4",
                    "midi": 64,
                    "time": 39.473687500000025,
                    "velocity": 0.2125984251968504,
                    "duration": 2.2105265000000003
                },
                {
                    "name": "G5",
                    "midi": 79,
                    "time": 40.42105600000003,
                    "velocity": 0.25984251968503935,
                    "duration": 1.2631579999999971
                }
            ],
            "controlChanges": {
                "7": [
                    {
                        "number": 7,
                        "time": 0,
                        "value": 0.7874015748031497
                    }
                ],
                "10": [
                    {
                        "number": 10,
                        "time": 0,
                        "value": 0.5039370078740157
                    }
                ],
                "91": [
                    {
                        "number": 91,
                        "time": 0,
                        "value": 1
                    },
                    {
                        "number": 91,
                        "time": 5.052632000000001,
                        "value": 1
                    },
                    {
                        "number": 91,
                        "time": 30.315792000000005,
                        "value": 1
                    },
                    {
                        "number": 91,
                        "time": 35.36842400000002,
                        "value": 1
                    }
                ]
            },
            "id": 1,
            "name": "Piano right",
            "instrumentNumber": 0,
            "instrument": "acoustic grand piano",
            "instrumentFamily": "piano",
            "channelNumber": 0,
            "isPercussion": false
        },
        {
            "startTime": 0.002631579166666667,
            "duration": 41.684214,
            "length": 87,
            "notes": [
                {
                    "name": "A3",
                    "midi": 57,
                    "time": 0.002631579166666667,
                    "velocity": 0.36220472440944884,
                    "duration": 0.6315789999999999
                },
                {
                    "name": "B4",
                    "midi": 71,
                    "time": 0.6315789999999999,
                    "velocity": 0.28346456692913385,
                    "duration": 0.31578949999999995
                },
                {
                    "name": "G4",
                    "midi": 67,
                    "time": 0.9473684999999998,
                    "velocity": 0.28346456692913385,
                    "duration": 0.31578949999999995
                },
                {
                    "name": "C#4",
                    "midi": 61,
                    "time": 1.2631579999999998,
                    "velocity": 0.36220472440944884,
                    "duration": 0.6315790000000003
                },
                {
                    "name": "A4",
                    "midi": 69,
                    "time": 1.8947370000000001,
                    "velocity": 0.2677165354330709,
                    "duration": 0.31578950000000017
                },
                {
                    "name": "G4",
                    "midi": 67,
                    "time": 2.2105265000000003,
                    "velocity": 0.2677165354330709,
                    "duration": 0.31578950000000017
                },
                {
                    "name": "D4",
                    "midi": 62,
                    "time": 2.5263160000000005,
                    "velocity": 0.3464566929133858,
                    "duration": 0.6315789999999999
                },
                {
                    "name": "F4",
                    "midi": 65,
                    "time": 3.1578950000000003,
                    "velocity": 0.2283464566929134,
                    "duration": 0.31578950000000017
                },
                {
                    "name": "D4",
                    "midi": 62,
                    "time": 3.4736845000000005,
                    "velocity": 0.2283464566929134,
                    "duration": 0.31578950000000017
                },
                {
                    "name": "A3",
                    "midi": 57,
                    "time": 3.7894740000000007,
                    "velocity": 0.25196850393700787,
                    "duration": 0.6315789999999999
                },
                {
                    "name": "C#4",
                    "midi": 61,
                    "time": 4.421053000000001,
                    "velocity": 0.1968503937007874,
                    "duration": 0.31578950000000017
                },
                {
                    "name": "A3",
                    "midi": 57,
                    "time": 4.736842500000001,
                    "velocity": 0.1968503937007874,
                    "duration": 0.31578950000000017
                },
                {
                    "name": "A2",
                    "midi": 45,
                    "time": 5.052632000000001,
                    "velocity": 0.2992125984251969,
                    "duration": 0.6315789999999994
                },
                {
                    "name": "B4",
                    "midi": 71,
                    "time": 5.684211,
                    "velocity": 0.25984251968503935,
                    "duration": 0.31578950000000017
                },
                {
                    "name": "G4",
                    "midi": 67,
                    "time": 6.0000005000000005,
                    "velocity": 0.2755905511811024,
                    "duration": 0.31578950000000017
                },
                {
                    "name": "C#4",
                    "midi": 61,
                    "time": 6.315790000000001,
                    "velocity": 0.3543307086614173,
                    "duration": 0.6315790000000003
                },
                {
                    "name": "A4",
                    "midi": 69,
                    "time": 6.947369000000001,
                    "velocity": 0.25984251968503935,
                    "duration": 0.31578950000000017
                },
                {
                    "name": "G4",
                    "midi": 67,
                    "time": 7.263158500000001,
                    "velocity": 0.25984251968503935,
                    "duration": 0.31578950000000017
                },
                {
                    "name": "D4",
                    "midi": 62,
                    "time": 7.578948000000001,
                    "velocity": 0.33070866141732286,
                    "duration": 0.6315789999999994
                },
                {
                    "name": "F4",
                    "midi": 65,
                    "time": 8.210527,
                    "velocity": 0.2283464566929134,
                    "duration": 0.31578950000000106
                },
                {
                    "name": "D4",
                    "midi": 62,
                    "time": 8.526316500000002,
                    "velocity": 0.2283464566929134,
                    "duration": 0.3157894999999993
                },
                {
                    "name": "A3",
                    "midi": 57,
                    "time": 8.842106000000001,
                    "velocity": 0.25196850393700787,
                    "duration": 0.6315790000000003
                },
                {
                    "name": "C#4",
                    "midi": 61,
                    "time": 9.473685000000001,
                    "velocity": 0.1968503937007874,
                    "duration": 0.3157894999999993
                },
                {
                    "name": "A3",
                    "midi": 57,
                    "time": 9.7894745,
                    "velocity": 0.1968503937007874,
                    "duration": 0.3157894999999993
                },
                {
                    "name": "D3",
                    "midi": 50,
                    "time": 10.105264,
                    "velocity": 0.2755905511811024,
                    "duration": 1.2631580000000007
                },
                {
                    "name": "D3",
                    "midi": 50,
                    "time": 11.368422,
                    "velocity": 0.2755905511811024,
                    "duration": 1.263157999999999
                },
                {
                    "name": "D3",
                    "midi": 50,
                    "time": 12.63158,
                    "velocity": 0.2755905511811024,
                    "duration": 1.2631580000000024
                },
                {
                    "name": "D3",
                    "midi": 50,
                    "time": 13.894738000000002,
                    "velocity": 0.2755905511811024,
                    "duration": 0.9394737625000005
                },
                {
                    "name": "F#3",
                    "midi": 54,
                    "time": 14.526317000000002,
                    "velocity": 0.2125984251968504,
                    "duration": 0.3157894999999993
                },
                {
                    "name": "D3",
                    "midi": 50,
                    "time": 14.842106500000002,
                    "velocity": 0.2125984251968504,
                    "duration": 0.3157894999999993
                },
                {
                    "name": "D2",
                    "midi": 38,
                    "time": 15.157896000000001,
                    "velocity": 0.2440944881889764,
                    "duration": 1.2631579999999971
                },
                {
                    "name": "D3",
                    "midi": 50,
                    "time": 16.421053999999998,
                    "velocity": 0.2440944881889764,
                    "duration": 1.2631580000000007
                },
                {
                    "name": "D3",
                    "midi": 50,
                    "time": 17.684212,
                    "velocity": 0.2440944881889764,
                    "duration": 1.2631580000000042
                },
                {
                    "name": "D3",
                    "midi": 50,
                    "time": 18.947370000000003,
                    "velocity": 0.2440944881889764,
                    "duration": 0.9210527083333311
                },
                {
                    "name": "F#3",
                    "midi": 54,
                    "time": 19.578949,
                    "velocity": 0.1889763779527559,
                    "duration": 0.3157894999999975
                },
                {
                    "name": "D3",
                    "midi": 50,
                    "time": 19.8947385,
                    "velocity": 0.1889763779527559,
                    "duration": 0.31578950000000106
                },
                {
                    "name": "B2",
                    "midi": 47,
                    "time": 20.210528,
                    "velocity": 0.28346456692913385,
                    "duration": 1.2631580000000007
                },
                {
                    "name": "A3",
                    "midi": 57,
                    "time": 20.842107000000002,
                    "velocity": 0.25984251968503935,
                    "duration": 0.3157894999999975
                },
                {
                    "name": "G#3",
                    "midi": 56,
                    "time": 21.1578965,
                    "velocity": 0.25984251968503935,
                    "duration": 0.31578950000000106
                },
                {
                    "name": "F#3",
                    "midi": 54,
                    "time": 21.473686,
                    "velocity": 0.2755905511811024,
                    "duration": 0.31578950000000106
                },
                {
                    "name": "C#3",
                    "midi": 49,
                    "time": 21.473686,
                    "velocity": 0.31496062992125984,
                    "duration": 0.6315790000000021
                },
                {
                    "name": "E3",
                    "midi": 52,
                    "time": 21.7894755,
                    "velocity": 0.2755905511811024,
                    "duration": 0.31578950000000106
                },
                {
                    "name": "D3",
                    "midi": 50,
                    "time": 22.105265000000003,
                    "velocity": 0.2755905511811024,
                    "duration": 0.6315789999999986
                },
                {
                    "name": "E3",
                    "midi": 52,
                    "time": 22.736844,
                    "velocity": 0.3543307086614173,
                    "duration": 1.2631580000000042
                },
                {
                    "name": "D#4",
                    "midi": 63,
                    "time": 23.368423000000003,
                    "velocity": 0.28346456692913385,
                    "duration": 0.31578950000000106
                },
                {
                    "name": "D4",
                    "midi": 62,
                    "time": 23.684212500000005,
                    "velocity": 0.28346456692913385,
                    "duration": 0.31578950000000106
                },
                {
                    "name": "A3",
                    "midi": 57,
                    "time": 24.000002000000006,
                    "velocity": 0.30708661417322836,
                    "duration": 1.2631580000000007
                },
                {
                    "name": "E3",
                    "midi": 52,
                    "time": 24.631581000000004,
                    "velocity": 0.25984251968503935,
                    "duration": 0.31578950000000106
                },
                {
                    "name": "C#3",
                    "midi": 49,
                    "time": 24.947370500000005,
                    "velocity": 0.25984251968503935,
                    "duration": 0.31578950000000106
                },
                {
                    "name": "B2",
                    "midi": 47,
                    "time": 25.263160000000006,
                    "velocity": 0.25196850393700787,
                    "duration": 1.2631580000000007
                },
                {
                    "name": "A3",
                    "midi": 57,
                    "time": 25.894739000000005,
                    "velocity": 0.2283464566929134,
                    "duration": 0.31578950000000106
                },
                {
                    "name": "G#3",
                    "midi": 56,
                    "time": 26.210528500000006,
                    "velocity": 0.2283464566929134,
                    "duration": 0.31578950000000106
                },
                {
                    "name": "F#3",
                    "midi": 54,
                    "time": 26.526318000000007,
                    "velocity": 0.2440944881889764,
                    "duration": 0.31578950000000106
                },
                {
                    "name": "C#3",
                    "midi": 49,
                    "time": 26.526318000000007,
                    "velocity": 0.28346456692913385,
                    "duration": 0.6315790000000021
                },
                {
                    "name": "E3",
                    "midi": 52,
                    "time": 26.842107500000008,
                    "velocity": 0.2440944881889764,
                    "duration": 0.31578950000000106
                },
                {
                    "name": "D3",
                    "midi": 50,
                    "time": 27.15789700000001,
                    "velocity": 0.2440944881889764,
                    "duration": 0.631578999999995
                },
                {
                    "name": "E3",
                    "midi": 52,
                    "time": 27.789476000000004,
                    "velocity": 0.31496062992125984,
                    "duration": 1.2631580000000007
                },
                {
                    "name": "D#4",
                    "midi": 63,
                    "time": 28.421055000000003,
                    "velocity": 0.25196850393700787,
                    "duration": 0.31578950000000106
                },
                {
                    "name": "D4",
                    "midi": 62,
                    "time": 28.736844500000004,
                    "velocity": 0.25196850393700787,
                    "duration": 0.31578950000000106
                },
                {
                    "name": "A3",
                    "midi": 57,
                    "time": 29.052634000000005,
                    "velocity": 0.2755905511811024,
                    "duration": 1.2631580000000007
                },
                {
                    "name": "E3",
                    "midi": 52,
                    "time": 29.684213000000003,
                    "velocity": 0.1889763779527559,
                    "duration": 0.31578950000000106
                },
                {
                    "name": "C#3",
                    "midi": 49,
                    "time": 30.000002500000004,
                    "velocity": 0.1889763779527559,
                    "duration": 0.31578950000000106
                },
                {
                    "name": "A2",
                    "midi": 45,
                    "time": 30.315792000000005,
                    "velocity": 0.36220472440944884,
                    "duration": 0.6315789999999986
                },
                {
                    "name": "B4",
                    "midi": 71,
                    "time": 30.947371000000004,
                    "velocity": 0.28346456692913385,
                    "duration": 0.31578950000000106
                },
                {
                    "name": "G4",
                    "midi": 67,
                    "time": 31.263160500000005,
                    "velocity": 0.28346456692913385,
                    "duration": 0.31578950000000106
                },
                {
                    "name": "C#4",
                    "midi": 61,
                    "time": 31.578950000000006,
                    "velocity": 0.36220472440944884,
                    "duration": 0.6315790000000021
                },
                {
                    "name": "A4",
                    "midi": 69,
                    "time": 32.21052900000001,
                    "velocity": 0.2677165354330709,
                    "duration": 0.31578950000000106
                },
                {
                    "name": "G4",
                    "midi": 67,
                    "time": 32.52631850000001,
                    "velocity": 0.2677165354330709,
                    "duration": 0.31578950000000106
                },
                {
                    "name": "D4",
                    "midi": 62,
                    "time": 32.84210800000001,
                    "velocity": 0.3464566929133858,
                    "duration": 0.6315790000000021
                },
                {
                    "name": "F4",
                    "midi": 65,
                    "time": 33.47368700000001,
                    "velocity": 0.2283464566929134,
                    "duration": 0.31578950000000106
                },
                {
                    "name": "D4",
                    "midi": 62,
                    "time": 33.78947650000001,
                    "velocity": 0.2283464566929134,
                    "duration": 0.31578950000000106
                },
                {
                    "name": "A3",
                    "midi": 57,
                    "time": 34.105266000000015,
                    "velocity": 0.25196850393700787,
                    "duration": 0.631578999999995
                },
                {
                    "name": "C#4",
                    "midi": 61,
                    "time": 34.73684500000001,
                    "velocity": 0.1968503937007874,
                    "duration": 0.31578950000000106
                },
                {
                    "name": "A3",
                    "midi": 57,
                    "time": 35.05263450000001,
                    "velocity": 0.1968503937007874,
                    "duration": 0.31578950000000106
                },
                {
                    "name": "A2",
                    "midi": 45,
                    "time": 35.36842400000001,
                    "velocity": 0.30708661417322836,
                    "duration": 0.631578999999995
                },
                {
                    "name": "B4",
                    "midi": 71,
                    "time": 36.00000300000001,
                    "velocity": 0.23622047244094488,
                    "duration": 0.31578950000000106
                },
                {
                    "name": "G4",
                    "midi": 67,
                    "time": 36.31579250000001,
                    "velocity": 0.23622047244094488,
                    "duration": 0.31578950000000106
                },
                {
                    "name": "C#4",
                    "midi": 61,
                    "time": 36.63158200000001,
                    "velocity": 0.30708661417322836,
                    "duration": 0.6315790000000021
                },
                {
                    "name": "A4",
                    "midi": 69,
                    "time": 37.26316100000001,
                    "velocity": 0.2204724409448819,
                    "duration": 0.31578950000000106
                },
                {
                    "name": "G4",
                    "midi": 67,
                    "time": 37.57895050000001,
                    "velocity": 0.2204724409448819,
                    "duration": 0.31578950000000106
                },
                {
                    "name": "D4",
                    "midi": 62,
                    "time": 37.89474000000001,
                    "velocity": 0.29133858267716534,
                    "duration": 0.6315790000000021
                },
                {
                    "name": "F4",
                    "midi": 65,
                    "time": 38.526319000000015,
                    "velocity": 0.1968503937007874,
                    "duration": 0.3684210833333239
                },
                {
                    "name": "D4",
                    "midi": 62,
                    "time": 38.84210850000001,
                    "velocity": 0.1968503937007874,
                    "duration": 0.31578949999999395
                },
                {
                    "name": "A3",
                    "midi": 57,
                    "time": 39.157898,
                    "velocity": 0.2125984251968504,
                    "duration": 0.631578999999995
                },
                {
                    "name": "C#4",
                    "midi": 61,
                    "time": 39.789477,
                    "velocity": 0.18110236220472442,
                    "duration": 1.8947369999999992
                },
                {
                    "name": "A3",
                    "midi": 57,
                    "time": 40.1052665,
                    "velocity": 0.18110236220472442,
                    "duration": 1.5789474999999982
                },
                {
                    "name": "A2",
                    "midi": 45,
                    "time": 40.421056,
                    "velocity": 0.2204724409448819,
                    "duration": 1.2631579999999971
                }
            ],
            "controlChanges": {
                "7": [
                    {
                        "number": 7,
                        "time": 0,
                        "value": 0.7874015748031497
                    }
                ],
                "10": [
                    {
                        "number": 10,
                        "time": 0,
                        "value": 0.5039370078740157
                    }
                ],
                "64": [
                    {
                        "number": 64,
                        "time": 0.015789474999999997,
                        "value": 1
                    },
                    {
                        "number": 64,
                        "time": 1.2921053708333332,
                        "value": 0
                    },
                    {
                        "number": 64,
                        "time": 1.4578948583333333,
                        "value": 1
                    },
                    {
                        "number": 64,
                        "time": 2.5263160000000005,
                        "value": 0
                    },
                    {
                        "number": 64,
                        "time": 2.647368641666667,
                        "value": 1
                    },
                    {
                        "number": 64,
                        "time": 3.1973686875000005,
                        "value": 0
                    },
                    {
                        "number": 64,
                        "time": 3.368421333333334,
                        "value": 1
                    },
                    {
                        "number": 64,
                        "time": 3.834210845833334,
                        "value": 0
                    },
                    {
                        "number": 64,
                        "time": 4.015789808333334,
                        "value": 1
                    },
                    {
                        "number": 64,
                        "time": 5.052632000000001,
                        "value": 0
                    },
                    {
                        "number": 64,
                        "time": 5.250000437500001,
                        "value": 1
                    },
                    {
                        "number": 64,
                        "time": 6.347368950000001,
                        "value": 0
                    },
                    {
                        "number": 64,
                        "time": 6.465790012500001,
                        "value": 1
                    },
                    {
                        "number": 64,
                        "time": 7.578948000000001,
                        "value": 0
                    },
                    {
                        "number": 64,
                        "time": 7.728948012500001,
                        "value": 1
                    },
                    {
                        "number": 64,
                        "time": 8.226316475,
                        "value": 0
                    },
                    {
                        "number": 64,
                        "time": 8.421053333333335,
                        "value": 1
                    },
                    {
                        "number": 64,
                        "time": 8.886842845833334,
                        "value": 0
                    },
                    {
                        "number": 64,
                        "time": 9.097369179166668,
                        "value": 1
                    },
                    {
                        "number": 64,
                        "time": 10.105264,
                        "value": 0
                    },
                    {
                        "number": 64,
                        "time": 10.2710534875,
                        "value": 1
                    },
                    {
                        "number": 64,
                        "time": 10.771053529166666,
                        "value": 0
                    },
                    {
                        "number": 64,
                        "time": 10.992106179166667,
                        "value": 1
                    },
                    {
                        "number": 64,
                        "time": 11.381579895833333,
                        "value": 0
                    },
                    {
                        "number": 64,
                        "time": 11.594737808333333,
                        "value": 1
                    },
                    {
                        "number": 64,
                        "time": 12.013158895833334,
                        "value": 0
                    },
                    {
                        "number": 64,
                        "time": 12.210527333333333,
                        "value": 1
                    },
                    {
                        "number": 64,
                        "time": 12.63158,
                        "value": 0
                    },
                    {
                        "number": 64,
                        "time": 12.842106333333334,
                        "value": 1
                    },
                    {
                        "number": 64,
                        "time": 13.276316895833334,
                        "value": 0
                    },
                    {
                        "number": 64,
                        "time": 13.460527437500001,
                        "value": 1
                    },
                    {
                        "number": 64,
                        "time": 13.900001158333335,
                        "value": 0
                    },
                    {
                        "number": 64,
                        "time": 14.136843283333336,
                        "value": 1
                    },
                    {
                        "number": 64,
                        "time": 15.1657907375,
                        "value": 0
                    },
                    {
                        "number": 64,
                        "time": 15.294738116666666,
                        "value": 1
                    },
                    {
                        "number": 64,
                        "time": 15.794738158333333,
                        "value": 0
                    },
                    {
                        "number": 64,
                        "time": 15.9868434375,
                        "value": 1
                    },
                    {
                        "number": 64,
                        "time": 16.421053999999998,
                        "value": 0
                    },
                    {
                        "number": 64,
                        "time": 16.631580333333332,
                        "value": 1
                    },
                    {
                        "number": 64,
                        "time": 17.089475108333332,
                        "value": 0
                    },
                    {
                        "number": 64,
                        "time": 17.29473828333333,
                        "value": 1
                    },
                    {
                        "number": 64,
                        "time": 17.684212,
                        "value": 0
                    },
                    {
                        "number": 64,
                        "time": 17.894738333333333,
                        "value": 1
                    },
                    {
                        "number": 64,
                        "time": 18.344738370833333,
                        "value": 0
                    },
                    {
                        "number": 64,
                        "time": 18.557896283333335,
                        "value": 1
                    },
                    {
                        "number": 64,
                        "time": 18.984212108333335,
                        "value": 0
                    },
                    {
                        "number": 64,
                        "time": 19.25000160416667,
                        "value": 1
                    },
                    {
                        "number": 64,
                        "time": 20.210528,
                        "value": 0
                    },
                    {
                        "number": 64,
                        "time": 20.347370116666667,
                        "value": 1
                    },
                    {
                        "number": 64,
                        "time": 20.871054370833335,
                        "value": 0
                    },
                    {
                        "number": 64,
                        "time": 20.9921070125,
                        "value": 1
                    },
                    {
                        "number": 64,
                        "time": 21.502633370833333,
                        "value": 0
                    },
                    {
                        "number": 64,
                        "time": 21.6394754875,
                        "value": 1
                    },
                    {
                        "number": 64,
                        "time": 22.736844,
                        "value": 0
                    },
                    {
                        "number": 64,
                        "time": 22.947370333333335,
                        "value": 1
                    },
                    {
                        "number": 64,
                        "time": 23.397370370833336,
                        "value": 0
                    },
                    {
                        "number": 64,
                        "time": 23.534212487500003,
                        "value": 1
                    },
                    {
                        "number": 64,
                        "time": 24.02631779166667,
                        "value": 0
                    },
                    {
                        "number": 64,
                        "time": 24.226317808333338,
                        "value": 1
                    },
                    {
                        "number": 64,
                        "time": 25.263160000000006,
                        "value": 0
                    },
                    {
                        "number": 64,
                        "time": 25.397370537500006,
                        "value": 1
                    },
                    {
                        "number": 64,
                        "time": 25.918423212500006,
                        "value": 0
                    },
                    {
                        "number": 64,
                        "time": 26.092107437500005,
                        "value": 1
                    },
                    {
                        "number": 64,
                        "time": 26.53947589583334,
                        "value": 0
                    },
                    {
                        "number": 64,
                        "time": 26.73684433333334,
                        "value": 1
                    },
                    {
                        "number": 64,
                        "time": 27.16316015833334,
                        "value": 0
                    },
                    {
                        "number": 64,
                        "time": 27.428949654166672,
                        "value": 1
                    },
                    {
                        "number": 64,
                        "time": 27.789476000000004,
                        "value": 0
                    },
                    {
                        "number": 64,
                        "time": 27.986844437500004,
                        "value": 1
                    },
                    {
                        "number": 64,
                        "time": 28.43158131666667,
                        "value": 0
                    },
                    {
                        "number": 64,
                        "time": 28.586844487500002,
                        "value": 1
                    },
                    {
                        "number": 64,
                        "time": 29.092107687500004,
                        "value": 0
                    },
                    {
                        "number": 64,
                        "time": 29.278949808333337,
                        "value": 1
                    },
                    {
                        "number": 64,
                        "time": 30.315792000000005,
                        "value": 0
                    },
                    {
                        "number": 64,
                        "time": 30.481581487500005,
                        "value": 1
                    },
                    {
                        "number": 64,
                        "time": 31.589476316666673,
                        "value": 0
                    },
                    {
                        "number": 64,
                        "time": 31.744739487500006,
                        "value": 1
                    },
                    {
                        "number": 64,
                        "time": 32.84210800000001,
                        "value": 0
                    },
                    {
                        "number": 64,
                        "time": 32.963160641666676,
                        "value": 1
                    },
                    {
                        "number": 64,
                        "time": 33.48684489583334,
                        "value": 0
                    },
                    {
                        "number": 64,
                        "time": 33.76052912916668,
                        "value": 1
                    },
                    {
                        "number": 64,
                        "time": 34.118423895833345,
                        "value": 0
                    },
                    {
                        "number": 64,
                        "time": 34.39210812916668,
                        "value": 1
                    },
                    {
                        "number": 64,
                        "time": 35.36842400000001,
                        "value": 0
                    },
                    {
                        "number": 64,
                        "time": 35.65526612916668,
                        "value": 1
                    },
                    {
                        "number": 64,
                        "time": 36.64737147500001,
                        "value": 0
                    },
                    {
                        "number": 64,
                        "time": 36.84210833333334,
                        "value": 1
                    },
                    {
                        "number": 64,
                        "time": 37.89474000000001,
                        "value": 0
                    },
                    {
                        "number": 64,
                        "time": 38.01579264166668,
                        "value": 1
                    },
                    {
                        "number": 64,
                        "time": 38.56316110833335,
                        "value": 0
                    },
                    {
                        "number": 64,
                        "time": 38.721055858333344,
                        "value": 1
                    },
                    {
                        "number": 64,
                        "time": 39.194740108333335,
                        "value": 0
                    },
                    {
                        "number": 64,
                        "time": 39.397371704166666,
                        "value": 1
                    },
                    {
                        "number": 64,
                        "time": 43.10526675,
                        "value": 0
                    }
                ],
                "91": [
                    {
                        "number": 91,
                        "time": 0,
                        "value": 1
                    },
                    {
                        "number": 91,
                        "time": 5.052632000000001,
                        "value": 1
                    },
                    {
                        "number": 91,
                        "time": 30.315792000000005,
                        "value": 1
                    },
                    {
                        "number": 91,
                        "time": 35.36842400000001,
                        "value": 1
                    }
                ]
            },
            "id": 2,
            "name": "Piano left",
            "instrumentNumber": 0,
            "instrument": "acoustic grand piano",
            "instrumentFamily": "piano",
            "channelNumber": 0,
            "isPercussion": false
        },
        {
            "startTime": 0,
            "duration": 0,
            "length": 0,
            "notes": [],
            "controlChanges": {},
            "id": 3,
            "name": "Schumann: Scenes from Childhood Op. 15"
        },
        {
            "startTime": 0,
            "duration": 0,
            "length": 0,
            "notes": [],
            "controlChanges": {},
            "id": 4,
            "name": "Copyright  1997 by Bernd Krueger"
        },
        {
            "startTime": 0,
            "duration": 0,
            "length": 0,
            "notes": [],
            "controlChanges": {},
            "id": 5,
            "name": "http://www.piano-midi.de"
        },
        {
            "startTime": 0,
            "duration": 0,
            "length": 0,
            "notes": [],
            "controlChanges": {},
            "id": 6,
            "name": "Edition: 2014-03-14"
        },
        {
            "startTime": 0,
            "duration": 0,
            "length": 0,
            "notes": [],
            "controlChanges": {},
            "id": 7,
            "name": "Spur 7"
        }
    ]
}