{
    "header": {
        "PPQ": 480,
        "timeSignature": [
            2,
            4
        ],
        "bpm": 68.39999863200002,
        "name": "Von fremden Ländern und Menschen"
    },
    "startTime": 0,
    "duration": 77.19298400000008,
    "tracks": [
        {
            "startTime": 0,
            "duration": 0,
            "length": 0,
            "notes": [],
            "controlChanges": {},
            "id": 0,
            "name": "Von fremden Ländern und Menschen"
        },
        {
            "startTime": 0.0018274854166666669,
            "duration": 77.19298399999998,
            "length": 116,
            "notes": [
                {
                    "name": "B4",
                    "midi": 71,
                    "time": 0.0018274854166666669,
                    "velocity": 0.4330708661417323,
                    "duration": 0.8954678541666667
                },
                {
                    "name": "G5",
                    "midi": 79,
                    "time": 0.8771930000000001,
                    "velocity": 0.47244094488188976,
                    "duration": 0.8771930000000001
                },
                {
                    "name": "F#5",
                    "midi": 78,
                    "time": 1.7543860000000002,
                    "velocity": 0.44881889763779526,
                    "duration": 0.6761696041666667
                },
                {
                    "name": "E5",
                    "midi": 76,
                    "time": 2.4122807500000003,
                    "velocity": 0.29133858267716534,
                    "duration": 0.23757310416666666
                },
                {
                    "name": "D5",
                    "midi": 74,
                    "time": 2.6315790000000003,
                    "velocity": 0.29133858267716534,
                    "duration": 0.8771930000000001
                },
                {
                    "name": "B4",
                    "midi": 71,
                    "time": 3.5105994854166673,
                    "velocity": 0.4330708661417323,
                    "duration": 0.8954678541666667
                },
                {
                    "name": "G5",
                    "midi": 79,
                    "time": 4.385965000000001,
                    "velocity": 0.47244094488188976,
                    "duration": 0.8771930000000001
                },
                {
                    "name": "F#5",
                    "midi": 78,
                    "time": 5.263158000000001,
                    "velocity": 0.44881889763779526,
                    "duration": 0.6761696041666676
                },
                {
                    "name": "E5",
                    "midi": 76,
                    "time": 5.921052750000001,
                    "velocity": 0.29133858267716534,
                    "duration": 0.23757310416666755
                },
                {
                    "name": "D5",
                    "midi": 74,
                    "time": 6.140351000000002,
                    "velocity": 0.29133858267716534,
                    "duration": 0.8771930000000001
                },
                {
                    "name": "B4",
                    "midi": 71,
                    "time": 7.019371485416668,
                    "velocity": 0.4566929133858268,
                    "duration": 0.8954678541666672
                },
                {
                    "name": "G5",
                    "midi": 79,
                    "time": 7.894737000000002,
                    "velocity": 0.47244094488188976,
                    "duration": 0.877193000000001
                },
                {
                    "name": "E5",
                    "midi": 76,
                    "time": 8.771930000000003,
                    "velocity": 0.44881889763779526,
                    "duration": 0.6761696041666667
                },
                {
                    "name": "D5",
                    "midi": 74,
                    "time": 9.429824750000003,
                    "velocity": 0.4094488188976378,
                    "duration": 0.23757310416666577
                },
                {
                    "name": "C5",
                    "midi": 72,
                    "time": 9.649123000000003,
                    "velocity": 0.3858267716535433,
                    "duration": 0.8771930000000001
                },
                {
                    "name": "A4",
                    "midi": 69,
                    "time": 10.526316000000003,
                    "velocity": 0.4015748031496063,
                    "duration": 0.8954678541666663
                },
                {
                    "name": "D5",
                    "midi": 74,
                    "time": 11.403509000000003,
                    "velocity": 0.3779527559055118,
                    "duration": 0.8771930000000001
                },
                {
                    "name": "B4",
                    "midi": 71,
                    "time": 12.280702000000003,
                    "velocity": 0.3543307086614173,
                    "duration": 1.7543860000000002
                },
                {
                    "name": "B4",
                    "midi": 71,
                    "time": 14.036915485416671,
                    "velocity": 0.4330708661417323,
                    "duration": 0.8954678541666663
                },
                {
                    "name": "G5",
                    "midi": 79,
                    "time": 14.912281000000004,
                    "velocity": 0.47244094488188976,
                    "duration": 0.8771930000000001
                },
                {
                    "name": "F#5",
                    "midi": 78,
                    "time": 15.789474000000004,
                    "velocity": 0.44881889763779526,
                    "duration": 0.6761696041666649
                },
                {
                    "name": "E5",
                    "midi": 76,
                    "time": 16.447368750000003,
                    "velocity": 0.2992125984251969,
                    "duration": 0.237573104166664
                },
                {
                    "name": "D5",
                    "midi": 74,
                    "time": 16.666667,
                    "velocity": 0.2992125984251969,
                    "duration": 0.8771929999999983
                },
                {
                    "name": "B4",
                    "midi": 71,
                    "time": 17.545687485416664,
                    "velocity": 0.4330708661417323,
                    "duration": 0.8954678541666645
                },
                {
                    "name": "G5",
                    "midi": 79,
                    "time": 18.421052999999997,
                    "velocity": 0.47244094488188976,
                    "duration": 0.8771929999999983
                },
                {
                    "name": "F#5",
                    "midi": 78,
                    "time": 19.298245999999995,
                    "velocity": 0.44881889763779526,
                    "duration": 0.6761696041666667
                },
                {
                    "name": "E5",
                    "midi": 76,
                    "time": 19.956140749999996,
                    "velocity": 0.29133858267716534,
                    "duration": 0.237573104166664
                },
                {
                    "name": "D5",
                    "midi": 74,
                    "time": 20.175438999999994,
                    "velocity": 0.29133858267716534,
                    "duration": 0.8771929999999983
                },
                {
                    "name": "B4",
                    "midi": 71,
                    "time": 21.054459485416658,
                    "velocity": 0.4566929133858268,
                    "duration": 0.8954678541666645
                },
                {
                    "name": "G5",
                    "midi": 79,
                    "time": 21.92982499999999,
                    "velocity": 0.47244094488188976,
                    "duration": 0.8771929999999983
                },
                {
                    "name": "E5",
                    "midi": 76,
                    "time": 22.80701799999999,
                    "velocity": 0.44881889763779526,
                    "duration": 0.6761696041666667
                },
                {
                    "name": "D5",
                    "midi": 74,
                    "time": 23.46491274999999,
                    "velocity": 0.3858267716535433,
                    "duration": 0.237573104166664
                },
                {
                    "name": "C5",
                    "midi": 72,
                    "time": 23.684210999999987,
                    "velocity": 0.3858267716535433,
                    "duration": 0.8771929999999983
                },
                {
                    "name": "A4",
                    "midi": 69,
                    "time": 24.561403999999985,
                    "velocity": 0.4015748031496063,
                    "duration": 0.8954678541666681
                },
                {
                    "name": "D5",
                    "midi": 74,
                    "time": 25.438596999999987,
                    "velocity": 0.3779527559055118,
                    "duration": 0.8771929999999983
                },
                {
                    "name": "B4",
                    "midi": 71,
                    "time": 26.315789999999986,
                    "velocity": 0.3543307086614173,
                    "duration": 1.7543860000000002
                },
                {
                    "name": "G4",
                    "midi": 67,
                    "time": 28.070175999999986,
                    "velocity": 0.41732283464566927,
                    "duration": 0.8954678541666681
                },
                {
                    "name": "B4",
                    "midi": 71,
                    "time": 28.070175999999986,
                    "velocity": 0.41732283464566927,
                    "duration": 0.8954678541666681
                },
                {
                    "name": "A4",
                    "midi": 69,
                    "time": 28.947368999999988,
                    "velocity": 0.4015748031496063,
                    "duration": 0.8771929999999983
                },
                {
                    "name": "C5",
                    "midi": 72,
                    "time": 28.947368999999988,
                    "velocity": 0.4015748031496063,
                    "duration": 0.8771929999999983
                },
                {
                    "name": "F#4",
                    "midi": 66,
                    "time": 29.824561999999986,
                    "velocity": 0.41732283464566927,
                    "duration": 0.8954678541666645
                },
                {
                    "name": "A4",
                    "midi": 69,
                    "time": 29.824561999999986,
                    "velocity": 0.41732283464566927,
                    "duration": 0.8954678541666645
                },
                {
                    "name": "G4",
                    "midi": 67,
                    "time": 30.701754999999984,
                    "velocity": 0.4094488188976378,
                    "duration": 0.8771929999999983
                },
                {
                    "name": "B4",
                    "midi": 71,
                    "time": 30.701754999999984,
                    "velocity": 0.4094488188976378,
                    "duration": 0.8771929999999983
                },
                {
                    "name": "E4",
                    "midi": 64,
                    "time": 31.578947999999983,
                    "velocity": 0.3779527559055118,
                    "duration": 0.8771929999999983
                },
                {
                    "name": "G4",
                    "midi": 67,
                    "time": 31.578947999999983,
                    "velocity": 0.3779527559055118,
                    "duration": 0.8954678541666681
                },
                {
                    "name": "E4",
                    "midi": 64,
                    "time": 32.45614099999998,
                    "velocity": 0.3543307086614173,
                    "duration": 0.8771930000000054
                },
                {
                    "name": "A4",
                    "midi": 69,
                    "time": 32.45614099999998,
                    "velocity": 0.3543307086614173,
                    "duration": 0.8771930000000054
                },
                {
                    "name": "D#4",
                    "midi": 63,
                    "time": 33.33333399999999,
                    "velocity": 0.3464566929133858,
                    "duration": 0.8771929999999983
                },
                {
                    "name": "F#4",
                    "midi": 66,
                    "time": 33.33333399999999,
                    "velocity": 0.3464566929133858,
                    "duration": 0.8771929999999983
                },
                {
                    "name": "D4",
                    "midi": 62,
                    "time": 34.210526999999985,
                    "velocity": 0.31496062992125984,
                    "duration": 0.8771929999999983
                },
                {
                    "name": "G4",
                    "midi": 67,
                    "time": 34.210526999999985,
                    "velocity": 0.31496062992125984,
                    "duration": 0.8771929999999983
                },
                {
                    "name": "E4",
                    "midi": 64,
                    "time": 35.08771999999998,
                    "velocity": 0.3858267716535433,
                    "duration": 0.8954678541666681
                },
                {
                    "name": "F#4",
                    "midi": 66,
                    "time": 35.96491299999998,
                    "velocity": 0.3779527559055118,
                    "duration": 0.8771930000000054
                },
                {
                    "name": "G4",
                    "midi": 67,
                    "time": 36.84210599999999,
                    "velocity": 0.4094488188976378,
                    "duration": 0.6761696041666667
                },
                {
                    "name": "A4",
                    "midi": 69,
                    "time": 37.500000749999984,
                    "velocity": 0.3937007874015748,
                    "duration": 0.2375731041666711
                },
                {
                    "name": "B4",
                    "midi": 71,
                    "time": 37.719298999999985,
                    "velocity": 0.41732283464566927,
                    "duration": 0.6761696041666738
                },
                {
                    "name": "C5",
                    "midi": 72,
                    "time": 38.37719374999999,
                    "velocity": 0.2992125984251969,
                    "duration": 0.21929825000000136
                },
                {
                    "name": "D5",
                    "midi": 74,
                    "time": 38.59649199999999,
                    "velocity": 0.3464566929133858,
                    "duration": 0.8954678541666681
                },
                {
                    "name": "G5",
                    "midi": 79,
                    "time": 39.47368499999999,
                    "velocity": 0.3779527559055118,
                    "duration": 0.8771930000000054
                },
                {
                    "name": "F#5",
                    "midi": 78,
                    "time": 40.350877999999994,
                    "velocity": 0.3779527559055118,
                    "duration": 0.6761696041666667
                },
                {
                    "name": "E5",
                    "midi": 76,
                    "time": 41.00877274999999,
                    "velocity": 0.2992125984251969,
                    "duration": 0.2375731041666711
                },
                {
                    "name": "D5",
                    "midi": 74,
                    "time": 41.22807099999999,
                    "velocity": 0.2992125984251969,
                    "duration": 0.8771930000000054
                },
                {
                    "name": "B4",
                    "midi": 71,
                    "time": 42.10709148541667,
                    "velocity": 0.3937007874015748,
                    "duration": 0.8954678541666681
                },
                {
                    "name": "G5",
                    "midi": 79,
                    "time": 42.982457000000004,
                    "velocity": 0.4409448818897638,
                    "duration": 0.8771929999999983
                },
                {
                    "name": "F#5",
                    "midi": 78,
                    "time": 43.85965,
                    "velocity": 0.41732283464566927,
                    "duration": 0.6761696041666667
                },
                {
                    "name": "E5",
                    "midi": 76,
                    "time": 44.51754475,
                    "velocity": 0.2992125984251969,
                    "duration": 0.2375731041666711
                },
                {
                    "name": "D5",
                    "midi": 74,
                    "time": 44.736843,
                    "velocity": 0.2992125984251969,
                    "duration": 0.8771930000000054
                },
                {
                    "name": "B4",
                    "midi": 71,
                    "time": 45.615863485416675,
                    "velocity": 0.4566929133858268,
                    "duration": 0.8954678541666681
                },
                {
                    "name": "G5",
                    "midi": 79,
                    "time": 46.49122900000001,
                    "velocity": 0.47244094488188976,
                    "duration": 0.8771929999999983
                },
                {
                    "name": "E5",
                    "midi": 76,
                    "time": 47.36842200000001,
                    "velocity": 0.44881889763779526,
                    "duration": 0.6761696041666667
                },
                {
                    "name": "D5",
                    "midi": 74,
                    "time": 48.02631675000001,
                    "velocity": 0.4094488188976378,
                    "duration": 0.2375731041666711
                },
                {
                    "name": "C5",
                    "midi": 72,
                    "time": 48.24561500000001,
                    "velocity": 0.3858267716535433,
                    "duration": 0.8771930000000054
                },
                {
                    "name": "A4",
                    "midi": 69,
                    "time": 49.12280800000001,
                    "velocity": 0.4015748031496063,
                    "duration": 0.8954678541666681
                },
                {
                    "name": "D5",
                    "midi": 74,
                    "time": 50.00000100000001,
                    "velocity": 0.3779527559055118,
                    "duration": 0.8771930000000054
                },
                {
                    "name": "B4",
                    "midi": 71,
                    "time": 50.87719400000002,
                    "velocity": 0.3543307086614173,
                    "duration": 1.7543859999999967
                },
                {
                    "name": "G4",
                    "midi": 67,
                    "time": 52.631580000000014,
                    "velocity": 0.41732283464566927,
                    "duration": 0.8954678541666681
                },
                {
                    "name": "B4",
                    "midi": 71,
                    "time": 52.631580000000014,
                    "velocity": 0.41732283464566927,
                    "duration": 0.8954678541666681
                },
                {
                    "name": "A4",
                    "midi": 69,
                    "time": 53.50877300000001,
                    "velocity": 0.4015748031496063,
                    "duration": 0.8771930000000054
                },
                {
                    "name": "C5",
                    "midi": 72,
                    "time": 53.50877300000001,
                    "velocity": 0.4015748031496063,
                    "duration": 0.8771930000000054
                },
                {
                    "name": "F#4",
                    "midi": 66,
                    "time": 54.38596600000002,
                    "velocity": 0.41732283464566927,
                    "duration": 0.8954678541666681
                },
                {
                    "name": "A4",
                    "midi": 69,
                    "time": 54.38596600000002,
                    "velocity": 0.41732283464566927,
                    "duration": 0.8954678541666681
                },
                {
                    "name": "G4",
                    "midi": 67,
                    "time": 55.263159000000016,
                    "velocity": 0.4094488188976378,
                    "duration": 0.8771930000000054
                },
                {
                    "name": "B4",
                    "midi": 71,
                    "time": 55.263159000000016,
                    "velocity": 0.4094488188976378,
                    "duration": 0.8771930000000054
                },
                {
                    "name": "E4",
                    "midi": 64,
                    "time": 56.14035200000002,
                    "velocity": 0.3779527559055118,
                    "duration": 0.8771929999999983
                },
                {
                    "name": "G4",
                    "midi": 67,
                    "time": 56.14035200000002,
                    "velocity": 0.3779527559055118,
                    "duration": 0.8954678541666681
                },
                {
                    "name": "E4",
                    "midi": 64,
                    "time": 57.01754500000002,
                    "velocity": 0.3543307086614173,
                    "duration": 0.8771930000000054
                },
                {
                    "name": "A4",
                    "midi": 69,
                    "time": 57.01754500000002,
                    "velocity": 0.3543307086614173,
                    "duration": 0.8771930000000054
                },
                {
                    "name": "D#4",
                    "midi": 63,
                    "time": 57.894738000000025,
                    "velocity": 0.3464566929133858,
                    "duration": 0.8771929999999983
                },
                {
                    "name": "F#4",
                    "midi": 66,
                    "time": 57.894738000000025,
                    "velocity": 0.3464566929133858,
                    "duration": 0.8771929999999983
                },
                {
                    "name": "D4",
                    "midi": 62,
                    "time": 58.77193100000002,
                    "velocity": 0.31496062992125984,
                    "duration": 0.8771929999999983
                },
                {
                    "name": "G4",
                    "midi": 67,
                    "time": 58.77193100000002,
                    "velocity": 0.31496062992125984,
                    "duration": 0.8771929999999983
                },
                {
                    "name": "E4",
                    "midi": 64,
                    "time": 59.64912400000002,
                    "velocity": 0.3858267716535433,
                    "duration": 0.8954678541666681
                },
                {
                    "name": "F#4",
                    "midi": 66,
                    "time": 60.52631700000002,
                    "velocity": 0.3779527559055118,
                    "duration": 0.8771930000000054
                },
                {
                    "name": "G4",
                    "midi": 67,
                    "time": 61.403510000000026,
                    "velocity": 0.4094488188976378,
                    "duration": 0.6761696041666667
                },
                {
                    "name": "A4",
                    "midi": 69,
                    "time": 62.06140475000002,
                    "velocity": 0.3937007874015748,
                    "duration": 0.21929825000000136
                },
                {
                    "name": "B4",
                    "midi": 71,
                    "time": 62.280703000000024,
                    "velocity": 0.41732283464566927,
                    "duration": 0.6761696041666667
                },
                {
                    "name": "C5",
                    "midi": 72,
                    "time": 62.93859775000002,
                    "velocity": 0.2992125984251969,
                    "duration": 0.21929825000000136
                },
                {
                    "name": "D5",
                    "midi": 74,
                    "time": 63.15789600000002,
                    "velocity": 0.3464566929133858,
                    "duration": 0.8954678541666681
                },
                {
                    "name": "G5",
                    "midi": 79,
                    "time": 64.03508900000003,
                    "velocity": 0.3779527559055118,
                    "duration": 0.8771929999999912
                },
                {
                    "name": "F#5",
                    "midi": 78,
                    "time": 64.91228200000002,
                    "velocity": 0.3779527559055118,
                    "duration": 0.6761696041666596
                },
                {
                    "name": "E5",
                    "midi": 76,
                    "time": 65.57017675000002,
                    "velocity": 0.29133858267716534,
                    "duration": 0.2375731041666569
                },
                {
                    "name": "D5",
                    "midi": 74,
                    "time": 65.78947500000001,
                    "velocity": 0.29133858267716534,
                    "duration": 0.8771929999999912
                },
                {
                    "name": "B4",
                    "midi": 71,
                    "time": 66.66849548541667,
                    "velocity": 0.3937007874015748,
                    "duration": 0.8954678541666681
                },
                {
                    "name": "G5",
                    "midi": 79,
                    "time": 67.543861,
                    "velocity": 0.4409448818897638,
                    "duration": 0.8771930000000054
                },
                {
                    "name": "F#5",
                    "midi": 78,
                    "time": 68.42105400000001,
                    "velocity": 0.41732283464566927,
                    "duration": 0.6761696041666596
                },
                {
                    "name": "E5",
                    "midi": 76,
                    "time": 69.07894875000001,
                    "velocity": 0.2992125984251969,
                    "duration": 0.2375731041666569
                },
                {
                    "name": "D5",
                    "midi": 74,
                    "time": 69.298247,
                    "velocity": 0.2992125984251969,
                    "duration": 0.8771929999999912
                },
                {
                    "name": "B4",
                    "midi": 71,
                    "time": 70.17726748541666,
                    "velocity": 0.4566929133858268,
                    "duration": 0.8954678541666681
                },
                {
                    "name": "G5",
                    "midi": 79,
                    "time": 71.052633,
                    "velocity": 0.47244094488188976,
                    "duration": 0.8771930000000054
                },
                {
                    "name": "E5",
                    "midi": 76,
                    "time": 71.929826,
                    "velocity": 0.44881889763779526,
                    "duration": 0.6761696041666596
                },
                {
                    "name": "D5",
                    "midi": 74,
                    "time": 72.58772075,
                    "velocity": 0.4094488188976378,
                    "duration": 0.2375731041666569
                },
                {
                    "name": "C5",
                    "midi": 72,
                    "time": 72.807019,
                    "velocity": 0.3858267716535433,
                    "duration": 0.8771929999999912
                },
                {
                    "name": "A4",
                    "midi": 69,
                    "time": 73.68421199999999,
                    "velocity": 0.4015748031496063,
                    "duration": 0.8954678541666681
                },
                {
                    "name": "D5",
                    "midi": 74,
                    "time": 74.561405,
                    "velocity": 0.3779527559055118,
                    "duration": 0.8771929999999912
                },
                {
                    "name": "B4",
                    "midi": 71,
                    "time": 75.43859799999998,
                    "velocity": 0.3543307086614173,
                    "duration": 1.7543859999999967
                }
            ],
            "controlChanges": {
                "7": [
                    {
                        "number": 7,
                        "time": 0,
                        "value": 0.7874015748031497
                    }
                ],
                "10": [
                    {
                        "number": 10,
                        "time": 0,
                        "value": 0.5039370078740157
                    }
                ],
                "91": [
                    {
                        "number": 91,
                        "time": 0,
                        "value": 1
                    },
                    {
                        "number": 91,
                        "time": 3.5087720000000004,
                        "value": 1
                    },
                    {
                        "number": 91,
                        "time": 7.017544000000002,
                        "value": 1
                    },
                    {
                        "number": 91,
                        "time": 14.035088000000004,
                        "value": 1
                    },
                    {
                        "number": 91,
                        "time": 17.54386,
                        "value": 1
                    },
                    {
                        "number": 91,
                        "time": 21.052631999999992,
                        "value": 1
                    },
                    {
                        "number": 91,
                        "time": 38.59649199999999,
                        "value": 1
                    },
                    {
                        "number": 91,
                        "time": 42.105264,
                        "value": 1
                    },
                    {
                        "number": 91,
                        "time": 45.614036000000006,
                        "value": 1
                    },
                    {
                        "number": 91,
                        "time": 63.15789600000002,
                        "value": 1
                    },
                    {
                        "number": 91,
                        "time": 66.666668,
                        "value": 1
                    },
                    {
                        "number": 91,
                        "time": 70.17544,
                        "value": 1
                    }
                ]
            },
            "id": 1,
            "name": "Piano right",
            "instrumentNumber": 0,
            "instrument": "acoustic grand piano",
            "instrumentFamily": "piano",
            "channelNumber": 0,
            "isPercussion": false
        },
        {
            "startTime": 0.0018274854166666669,
            "duration": 77.19298400000008,
            "length": 328,
            "notes": [
                {
                    "name": "G3",
                    "midi": 55,
                    "time": 0.0018274854166666669,
                    "velocity": 0.2755905511811024,
                    "duration": 0.43859650000000006
                },
                {
                    "name": "B3",
                    "midi": 59,
                    "time": 0.0018274854166666669,
                    "velocity": 0.2755905511811024,
                    "duration": 0.31067252083333335
                },
                {
                    "name": "D4",
                    "midi": 62,
                    "time": 0.29239766666666667,
                    "velocity": 0.29133858267716534,
                    "duration": 0.3106725208333333
                },
                {
                    "name": "G4",
                    "midi": 67,
                    "time": 0.5847953333333333,
                    "velocity": 0.25196850393700787,
                    "duration": 0.29239766666666667
                },
                {
                    "name": "A#3",
                    "midi": 58,
                    "time": 0.877193,
                    "velocity": 0.2755905511811024,
                    "duration": 0.3106725208333333
                },
                {
                    "name": "C#3",
                    "midi": 49,
                    "time": 0.877193,
                    "velocity": 0.2755905511811024,
                    "duration": 0.43859649999999994
                },
                {
                    "name": "E4",
                    "midi": 64,
                    "time": 1.1695906666666667,
                    "velocity": 0.2992125984251969,
                    "duration": 0.3106725208333332
                },
                {
                    "name": "G4",
                    "midi": 67,
                    "time": 1.4619883333333332,
                    "velocity": 0.25196850393700787,
                    "duration": 0.29239766666666656
                },
                {
                    "name": "A3",
                    "midi": 57,
                    "time": 1.7543859999999998,
                    "velocity": 0.2755905511811024,
                    "duration": 0.3106725208333332
                },
                {
                    "name": "D3",
                    "midi": 50,
                    "time": 1.7543859999999998,
                    "velocity": 0.2755905511811024,
                    "duration": 0.43859650000000006
                },
                {
                    "name": "D4",
                    "midi": 62,
                    "time": 2.0467836666666663,
                    "velocity": 0.29133858267716534,
                    "duration": 0.31067252083333363
                },
                {
                    "name": "F#4",
                    "midi": 66,
                    "time": 2.3391813333333333,
                    "velocity": 0.2204724409448819,
                    "duration": 0.29239766666666656
                },
                {
                    "name": "C4",
                    "midi": 60,
                    "time": 2.631579,
                    "velocity": 0.2125984251968504,
                    "duration": 0.31067252083333363
                },
                {
                    "name": "F#3",
                    "midi": 54,
                    "time": 2.631579,
                    "velocity": 0.2125984251968504,
                    "duration": 0.4385965000000005
                },
                {
                    "name": "D4",
                    "midi": 62,
                    "time": 2.923976666666667,
                    "velocity": 0.2125984251968504,
                    "duration": 0.31067252083333363
                },
                {
                    "name": "A4",
                    "midi": 69,
                    "time": 3.216374333333334,
                    "velocity": 0.2125984251968504,
                    "duration": 0.29239766666666656
                },
                {
                    "name": "B3",
                    "midi": 59,
                    "time": 3.5105994854166673,
                    "velocity": 0.2755905511811024,
                    "duration": 0.3106725208333332
                },
                {
                    "name": "G3",
                    "midi": 55,
                    "time": 3.5105994854166673,
                    "velocity": 0.2755905511811024,
                    "duration": 0.43859650000000006
                },
                {
                    "name": "D4",
                    "midi": 62,
                    "time": 3.801169666666667,
                    "velocity": 0.29133858267716534,
                    "duration": 0.3106725208333345
                },
                {
                    "name": "G4",
                    "midi": 67,
                    "time": 4.0935673333333344,
                    "velocity": 0.25196850393700787,
                    "duration": 0.292397666666667
                },
                {
                    "name": "C#3",
                    "midi": 49,
                    "time": 4.3859650000000014,
                    "velocity": 0.2755905511811024,
                    "duration": 0.43859650000000006
                },
                {
                    "name": "A#3",
                    "midi": 58,
                    "time": 4.3859650000000014,
                    "velocity": 0.2755905511811024,
                    "duration": 0.3106725208333332
                },
                {
                    "name": "E4",
                    "midi": 64,
                    "time": 4.678362666666668,
                    "velocity": 0.2992125984251969,
                    "duration": 0.3106725208333341
                },
                {
                    "name": "G4",
                    "midi": 67,
                    "time": 4.970760333333335,
                    "velocity": 0.25196850393700787,
                    "duration": 0.292397666666667
                },
                {
                    "name": "A3",
                    "midi": 57,
                    "time": 5.263158000000002,
                    "velocity": 0.2755905511811024,
                    "duration": 0.3106725208333341
                },
                {
                    "name": "D3",
                    "midi": 50,
                    "time": 5.263158000000002,
                    "velocity": 0.2755905511811024,
                    "duration": 0.43859650000000094
                },
                {
                    "name": "D4",
                    "midi": 62,
                    "time": 5.555555666666669,
                    "velocity": 0.29133858267716534,
                    "duration": 0.3106725208333341
                },
                {
                    "name": "F#4",
                    "midi": 66,
                    "time": 5.847953333333336,
                    "velocity": 0.2283464566929134,
                    "duration": 0.292397666666667
                },
                {
                    "name": "C4",
                    "midi": 60,
                    "time": 6.140351000000003,
                    "velocity": 0.2125984251968504,
                    "duration": 0.3106725208333332
                },
                {
                    "name": "F#3",
                    "midi": 54,
                    "time": 6.140351000000003,
                    "velocity": 0.2125984251968504,
                    "duration": 0.43859650000000006
                },
                {
                    "name": "D4",
                    "midi": 62,
                    "time": 6.432748666666669,
                    "velocity": 0.2204724409448819,
                    "duration": 0.3106725208333341
                },
                {
                    "name": "A4",
                    "midi": 69,
                    "time": 6.725146333333336,
                    "velocity": 0.2204724409448819,
                    "duration": 0.292397666666667
                },
                {
                    "name": "G3",
                    "midi": 55,
                    "time": 7.019371485416669,
                    "velocity": 0.2755905511811024,
                    "duration": 0.43859650000000006
                },
                {
                    "name": "B3",
                    "midi": 59,
                    "time": 7.019371485416669,
                    "velocity": 0.2755905511811024,
                    "duration": 0.3106725208333332
                },
                {
                    "name": "D4",
                    "midi": 62,
                    "time": 7.309941666666669,
                    "velocity": 0.29133858267716534,
                    "duration": 0.3106725208333341
                },
                {
                    "name": "G4",
                    "midi": 67,
                    "time": 7.602339333333336,
                    "velocity": 0.29133858267716534,
                    "duration": 0.292397666666667
                },
                {
                    "name": "B2",
                    "midi": 47,
                    "time": 7.894737000000003,
                    "velocity": 0.2992125984251969,
                    "duration": 0.43859649999999917
                },
                {
                    "name": "G3",
                    "midi": 55,
                    "time": 7.894737000000003,
                    "velocity": 0.2992125984251969,
                    "duration": 1.1695906666666662
                },
                {
                    "name": "D4",
                    "midi": 62,
                    "time": 8.187134666666669,
                    "velocity": 0.3228346456692913,
                    "duration": 0.3106725208333323
                },
                {
                    "name": "G4",
                    "midi": 67,
                    "time": 8.479532333333335,
                    "velocity": 0.3228346456692913,
                    "duration": 0.2923976666666661
                },
                {
                    "name": "C3",
                    "midi": 48,
                    "time": 8.771930000000001,
                    "velocity": 0.2992125984251969,
                    "duration": 0.43859650000000094
                },
                {
                    "name": "E4",
                    "midi": 64,
                    "time": 9.064327666666669,
                    "velocity": 0.31496062992125984,
                    "duration": 0.3106725208333323
                },
                {
                    "name": "G4",
                    "midi": 67,
                    "time": 9.356725333333335,
                    "velocity": 0.31496062992125984,
                    "duration": 0.2923976666666661
                },
                {
                    "name": "E3",
                    "midi": 52,
                    "time": 9.649123000000001,
                    "velocity": 0.2992125984251969,
                    "duration": 0.43859650000000094
                },
                {
                    "name": "G3",
                    "midi": 55,
                    "time": 9.649123000000001,
                    "velocity": 0.2992125984251969,
                    "duration": 0.3106725208333341
                },
                {
                    "name": "C4",
                    "midi": 60,
                    "time": 9.94152066666667,
                    "velocity": 0.31496062992125984,
                    "duration": 0.3106725208333323
                },
                {
                    "name": "G4",
                    "midi": 67,
                    "time": 10.233918333333335,
                    "velocity": 0.31496062992125984,
                    "duration": 0.2923976666666661
                },
                {
                    "name": "D3",
                    "midi": 50,
                    "time": 10.526316000000001,
                    "velocity": 0.2204724409448819,
                    "duration": 0.43859649999999917
                },
                {
                    "name": "G3",
                    "midi": 55,
                    "time": 10.526316000000001,
                    "velocity": 0.2204724409448819,
                    "duration": 0.3106725208333323
                },
                {
                    "name": "C4",
                    "midi": 60,
                    "time": 10.818713666666667,
                    "velocity": 0.25196850393700787,
                    "duration": 0.2923976666666661
                },
                {
                    "name": "G4",
                    "midi": 67,
                    "time": 11.111111333333334,
                    "velocity": 0.2283464566929134,
                    "duration": 0.2923976666666661
                },
                {
                    "name": "F#3",
                    "midi": 54,
                    "time": 11.403509,
                    "velocity": 0.2047244094488189,
                    "duration": 0.3106725208333305
                },
                {
                    "name": "D3",
                    "midi": 50,
                    "time": 11.403509,
                    "velocity": 0.2047244094488189,
                    "duration": 0.4385964999999974
                },
                {
                    "name": "C4",
                    "midi": 60,
                    "time": 11.695906666666664,
                    "velocity": 0.2440944881889764,
                    "duration": 0.2923976666666661
                },
                {
                    "name": "A4",
                    "midi": 69,
                    "time": 11.98830433333333,
                    "velocity": 0.2047244094488189,
                    "duration": 0.2923976666666661
                },
                {
                    "name": "G2",
                    "midi": 43,
                    "time": 12.280701999999996,
                    "velocity": 0.1889763779527559,
                    "duration": 0.43859649999999917
                },
                {
                    "name": "D3",
                    "midi": 50,
                    "time": 12.280701999999996,
                    "velocity": 0.1889763779527559,
                    "duration": 0.3106725208333323
                },
                {
                    "name": "B3",
                    "midi": 59,
                    "time": 12.573099666666662,
                    "velocity": 0.2204724409448819,
                    "duration": 0.3106725208333323
                },
                {
                    "name": "G4",
                    "midi": 67,
                    "time": 12.865497333333328,
                    "velocity": 0.1968503937007874,
                    "duration": 0.2923976666666661
                },
                {
                    "name": "G3",
                    "midi": 55,
                    "time": 13.157894999999995,
                    "velocity": 0.2047244094488189,
                    "duration": 0.43859649999999917
                },
                {
                    "name": "B3",
                    "midi": 59,
                    "time": 13.45029266666666,
                    "velocity": 0.2047244094488189,
                    "duration": 0.3106725208333323
                },
                {
                    "name": "G4",
                    "midi": 67,
                    "time": 13.742690333333327,
                    "velocity": 0.16535433070866143,
                    "duration": 0.2923976666666661
                },
                {
                    "name": "B3",
                    "midi": 59,
                    "time": 14.03691548541666,
                    "velocity": 0.2755905511811024,
                    "duration": 0.3106725208333323
                },
                {
                    "name": "G3",
                    "midi": 55,
                    "time": 14.03691548541666,
                    "velocity": 0.2755905511811024,
                    "duration": 0.43859649999999917
                },
                {
                    "name": "D4",
                    "midi": 62,
                    "time": 14.327485666666659,
                    "velocity": 0.29133858267716534,
                    "duration": 0.3106725208333341
                },
                {
                    "name": "G4",
                    "midi": 67,
                    "time": 14.619883333333327,
                    "velocity": 0.25196850393700787,
                    "duration": 0.2923976666666661
                },
                {
                    "name": "C#3",
                    "midi": 49,
                    "time": 14.912280999999993,
                    "velocity": 0.2755905511811024,
                    "duration": 0.43859649999999917
                },
                {
                    "name": "A#3",
                    "midi": 58,
                    "time": 14.912280999999993,
                    "velocity": 0.2755905511811024,
                    "duration": 0.2923976666666661
                },
                {
                    "name": "E4",
                    "midi": 64,
                    "time": 15.20467866666666,
                    "velocity": 0.2992125984251969,
                    "duration": 0.3106725208333323
                },
                {
                    "name": "G4",
                    "midi": 67,
                    "time": 15.497076333333325,
                    "velocity": 0.25196850393700787,
                    "duration": 0.2923976666666661
                },
                {
                    "name": "D3",
                    "midi": 50,
                    "time": 15.789473999999991,
                    "velocity": 0.2755905511811024,
                    "duration": 0.43859649999999917
                },
                {
                    "name": "A3",
                    "midi": 57,
                    "time": 15.789473999999991,
                    "velocity": 0.2755905511811024,
                    "duration": 0.3106725208333323
                },
                {
                    "name": "D4",
                    "midi": 62,
                    "time": 16.081871666666657,
                    "velocity": 0.29133858267716534,
                    "duration": 0.3106725208333323
                },
                {
                    "name": "F#4",
                    "midi": 66,
                    "time": 16.374269333333324,
                    "velocity": 0.2125984251968504,
                    "duration": 0.2923976666666661
                },
                {
                    "name": "F#3",
                    "midi": 54,
                    "time": 16.66666699999999,
                    "velocity": 0.2125984251968504,
                    "duration": 0.43859649999999917
                },
                {
                    "name": "C4",
                    "midi": 60,
                    "time": 16.66666699999999,
                    "velocity": 0.2125984251968504,
                    "duration": 0.3106725208333323
                },
                {
                    "name": "D4",
                    "midi": 62,
                    "time": 16.959064666666656,
                    "velocity": 0.2125984251968504,
                    "duration": 0.3106725208333323
                },
                {
                    "name": "A4",
                    "midi": 69,
                    "time": 17.251462333333322,
                    "velocity": 0.2125984251968504,
                    "duration": 0.2923976666666661
                },
                {
                    "name": "B3",
                    "midi": 59,
                    "time": 17.545687485416654,
                    "velocity": 0.2755905511811024,
                    "duration": 0.3106725208333323
                },
                {
                    "name": "G3",
                    "midi": 55,
                    "time": 17.545687485416654,
                    "velocity": 0.2755905511811024,
                    "duration": 0.43859649999999917
                },
                {
                    "name": "D4",
                    "midi": 62,
                    "time": 17.836257666666654,
                    "velocity": 0.29133858267716534,
                    "duration": 0.3106725208333323
                },
                {
                    "name": "G4",
                    "midi": 67,
                    "time": 18.12865533333332,
                    "velocity": 0.25196850393700787,
                    "duration": 0.2923976666666661
                },
                {
                    "name": "C#3",
                    "midi": 49,
                    "time": 18.421052999999986,
                    "velocity": 0.2755905511811024,
                    "duration": 0.4385965000000027
                },
                {
                    "name": "A#3",
                    "midi": 58,
                    "time": 18.421052999999986,
                    "velocity": 0.2755905511811024,
                    "duration": 0.31067252083333585
                },
                {
                    "name": "E4",
                    "midi": 64,
                    "time": 18.713450666666656,
                    "velocity": 0.2992125984251969,
                    "duration": 0.3106725208333323
                },
                {
                    "name": "G4",
                    "midi": 67,
                    "time": 19.005848333333322,
                    "velocity": 0.25196850393700787,
                    "duration": 0.2923976666666661
                },
                {
                    "name": "D3",
                    "midi": 50,
                    "time": 19.29824599999999,
                    "velocity": 0.2755905511811024,
                    "duration": 0.43859649999999917
                },
                {
                    "name": "A3",
                    "midi": 57,
                    "time": 19.29824599999999,
                    "velocity": 0.2755905511811024,
                    "duration": 0.3106725208333323
                },
                {
                    "name": "D4",
                    "midi": 62,
                    "time": 19.590643666666654,
                    "velocity": 0.29133858267716534,
                    "duration": 0.3106725208333323
                },
                {
                    "name": "F#4",
                    "midi": 66,
                    "time": 19.88304133333332,
                    "velocity": 0.2204724409448819,
                    "duration": 0.2923976666666661
                },
                {
                    "name": "F#3",
                    "midi": 54,
                    "time": 20.175438999999987,
                    "velocity": 0.2125984251968504,
                    "duration": 0.43859649999999917
                },
                {
                    "name": "C4",
                    "midi": 60,
                    "time": 20.175438999999987,
                    "velocity": 0.2125984251968504,
                    "duration": 0.3106725208333323
                },
                {
                    "name": "D4",
                    "midi": 62,
                    "time": 20.467836666666653,
                    "velocity": 0.2204724409448819,
                    "duration": 0.3106725208333323
                },
                {
                    "name": "A4",
                    "midi": 69,
                    "time": 20.76023433333332,
                    "velocity": 0.2125984251968504,
                    "duration": 0.2923976666666661
                },
                {
                    "name": "B3",
                    "midi": 59,
                    "time": 21.05445948541665,
                    "velocity": 0.2755905511811024,
                    "duration": 0.3106725208333323
                },
                {
                    "name": "G3",
                    "midi": 55,
                    "time": 21.05445948541665,
                    "velocity": 0.2755905511811024,
                    "duration": 0.43859649999999917
                },
                {
                    "name": "D4",
                    "midi": 62,
                    "time": 21.34502966666665,
                    "velocity": 0.29133858267716534,
                    "duration": 0.3106725208333323
                },
                {
                    "name": "G4",
                    "midi": 67,
                    "time": 21.637427333333317,
                    "velocity": 0.29133858267716534,
                    "duration": 0.2923976666666661
                },
                {
                    "name": "B2",
                    "midi": 47,
                    "time": 21.929824999999983,
                    "velocity": 0.2992125984251969,
                    "duration": 0.43859649999999917
                },
                {
                    "name": "G3",
                    "midi": 55,
                    "time": 21.929824999999983,
                    "velocity": 0.2992125984251969,
                    "duration": 1.1695906666666644
                },
                {
                    "name": "D4",
                    "midi": 62,
                    "time": 22.22222266666665,
                    "velocity": 0.3228346456692913,
                    "duration": 0.3106725208333323
                },
                {
                    "name": "G4",
                    "midi": 67,
                    "time": 22.514620333333315,
                    "velocity": 0.3228346456692913,
                    "duration": 0.2923976666666661
                },
                {
                    "name": "C3",
                    "midi": 48,
                    "time": 22.80701799999998,
                    "velocity": 0.2992125984251969,
                    "duration": 0.43859649999999917
                },
                {
                    "name": "E4",
                    "midi": 64,
                    "time": 23.099415666666648,
                    "velocity": 0.31496062992125984,
                    "duration": 0.3106725208333323
                },
                {
                    "name": "G4",
                    "midi": 67,
                    "time": 23.391813333333314,
                    "velocity": 0.31496062992125984,
                    "duration": 0.2923976666666661
                },
                {
                    "name": "E3",
                    "midi": 52,
                    "time": 23.68421099999998,
                    "velocity": 0.2992125984251969,
                    "duration": 0.43859649999999917
                },
                {
                    "name": "G3",
                    "midi": 55,
                    "time": 23.68421099999998,
                    "velocity": 0.2992125984251969,
                    "duration": 0.3106725208333323
                },
                {
                    "name": "C4",
                    "midi": 60,
                    "time": 23.976608666666646,
                    "velocity": 0.31496062992125984,
                    "duration": 0.3106725208333323
                },
                {
                    "name": "G4",
                    "midi": 67,
                    "time": 24.269006333333312,
                    "velocity": 0.31496062992125984,
                    "duration": 0.2923976666666661
                },
                {
                    "name": "D3",
                    "midi": 50,
                    "time": 24.56140399999998,
                    "velocity": 0.2204724409448819,
                    "duration": 0.43859649999999917
                },
                {
                    "name": "G3",
                    "midi": 55,
                    "time": 24.56140399999998,
                    "velocity": 0.2204724409448819,
                    "duration": 0.3106725208333323
                },
                {
                    "name": "C4",
                    "midi": 60,
                    "time": 24.853801666666644,
                    "velocity": 0.25196850393700787,
                    "duration": 0.3106725208333323
                },
                {
                    "name": "G4",
                    "midi": 67,
                    "time": 25.14619933333331,
                    "velocity": 0.2283464566929134,
                    "duration": 0.2923976666666661
                },
                {
                    "name": "D3",
                    "midi": 50,
                    "time": 25.438596999999977,
                    "velocity": 0.2047244094488189,
                    "duration": 0.43859649999999917
                },
                {
                    "name": "F#3",
                    "midi": 54,
                    "time": 25.438596999999977,
                    "velocity": 0.2047244094488189,
                    "duration": 0.3106725208333323
                },
                {
                    "name": "C4",
                    "midi": 60,
                    "time": 25.730994666666643,
                    "velocity": 0.2440944881889764,
                    "duration": 0.3106725208333323
                },
                {
                    "name": "A4",
                    "midi": 69,
                    "time": 26.02339233333331,
                    "velocity": 0.2047244094488189,
                    "duration": 0.2923976666666661
                },
                {
                    "name": "G2",
                    "midi": 43,
                    "time": 26.315789999999975,
                    "velocity": 0.1889763779527559,
                    "duration": 0.4385965000000027
                },
                {
                    "name": "D3",
                    "midi": 50,
                    "time": 26.315789999999975,
                    "velocity": 0.1889763779527559,
                    "duration": 0.31067252083333585
                },
                {
                    "name": "B3",
                    "midi": 59,
                    "time": 26.608187666666645,
                    "velocity": 0.2204724409448819,
                    "duration": 0.3106725208333323
                },
                {
                    "name": "G4",
                    "midi": 67,
                    "time": 26.90058533333331,
                    "velocity": 0.1968503937007874,
                    "duration": 0.2923976666666661
                },
                {
                    "name": "G3",
                    "midi": 55,
                    "time": 27.192982999999977,
                    "velocity": 0.2047244094488189,
                    "duration": 0.43859649999999917
                },
                {
                    "name": "B3",
                    "midi": 59,
                    "time": 27.485380666666643,
                    "velocity": 0.2047244094488189,
                    "duration": 0.3106725208333323
                },
                {
                    "name": "G4",
                    "midi": 67,
                    "time": 27.77777833333331,
                    "velocity": 0.16535433070866143,
                    "duration": 0.28874269583333145
                },
                {
                    "name": "E3",
                    "midi": 52,
                    "time": 28.070175999999975,
                    "velocity": 0.28346456692913385,
                    "duration": 0.8771929999999983
                },
                {
                    "name": "B3",
                    "midi": 59,
                    "time": 28.36257366666664,
                    "velocity": 0.28346456692913385,
                    "duration": 0.3106725208333323
                },
                {
                    "name": "E4",
                    "midi": 64,
                    "time": 28.654971333333307,
                    "velocity": 0.28346456692913385,
                    "duration": 0.2923976666666661
                },
                {
                    "name": "A2",
                    "midi": 45,
                    "time": 28.947368999999973,
                    "velocity": 0.28346456692913385,
                    "duration": 0.8771930000000019
                },
                {
                    "name": "A3",
                    "midi": 57,
                    "time": 29.239766666666643,
                    "velocity": 0.28346456692913385,
                    "duration": 0.3106725208333323
                },
                {
                    "name": "E4",
                    "midi": 64,
                    "time": 29.53216433333331,
                    "velocity": 0.28346456692913385,
                    "duration": 0.2923976666666661
                },
                {
                    "name": "D3",
                    "midi": 50,
                    "time": 29.824561999999975,
                    "velocity": 0.28346456692913385,
                    "duration": 0.657894749999997
                },
                {
                    "name": "A3",
                    "midi": 57,
                    "time": 30.11695966666664,
                    "velocity": 0.30708661417322836,
                    "duration": 0.3106725208333323
                },
                {
                    "name": "D4",
                    "midi": 62,
                    "time": 30.409357333333308,
                    "velocity": 0.31496062992125984,
                    "duration": 0.2923976666666661
                },
                {
                    "name": "C3",
                    "midi": 48,
                    "time": 30.482456749999972,
                    "velocity": 0.36220472440944884,
                    "duration": 0.21929825000000136
                },
                {
                    "name": "B2",
                    "midi": 47,
                    "time": 30.701754999999974,
                    "velocity": 0.2755905511811024,
                    "duration": 0.8771929999999983
                },
                {
                    "name": "G3",
                    "midi": 55,
                    "time": 30.99415266666664,
                    "velocity": 0.2755905511811024,
                    "duration": 0.3106725208333323
                },
                {
                    "name": "D4",
                    "midi": 62,
                    "time": 31.286550333333306,
                    "velocity": 0.2755905511811024,
                    "duration": 0.2923976666666661
                },
                {
                    "name": "C3",
                    "midi": 48,
                    "time": 31.578947999999972,
                    "velocity": 0.2125984251968504,
                    "duration": 0.877193000000009
                },
                {
                    "name": "G3",
                    "midi": 55,
                    "time": 31.871345666666638,
                    "velocity": 0.2125984251968504,
                    "duration": 0.3106725208333394
                },
                {
                    "name": "C4",
                    "midi": 60,
                    "time": 32.16374333333331,
                    "velocity": 0.2125984251968504,
                    "duration": 0.2923976666666732
                },
                {
                    "name": "F#2",
                    "midi": 42,
                    "time": 32.45614099999998,
                    "velocity": 0.2125984251968504,
                    "duration": 0.8771930000000054
                },
                {
                    "name": "F#3",
                    "midi": 54,
                    "time": 32.74853866666665,
                    "velocity": 0.2125984251968504,
                    "duration": 0.31067252083333585
                },
                {
                    "name": "C4",
                    "midi": 60,
                    "time": 33.04093633333331,
                    "velocity": 0.2125984251968504,
                    "duration": 0.2923976666666732
                },
                {
                    "name": "B2",
                    "midi": 47,
                    "time": 33.33333399999999,
                    "velocity": 0.2125984251968504,
                    "duration": 0.6578947500000041
                },
                {
                    "name": "F#3",
                    "midi": 54,
                    "time": 33.62573166666665,
                    "velocity": 0.2677165354330709,
                    "duration": 0.31067252083333585
                },
                {
                    "name": "B3",
                    "midi": 59,
                    "time": 33.91812933333332,
                    "velocity": 0.2677165354330709,
                    "duration": 0.2923976666666732
                },
                {
                    "name": "A2",
                    "midi": 45,
                    "time": 33.99122874999999,
                    "velocity": 0.30708661417322836,
                    "duration": 0.21929825000000136
                },
                {
                    "name": "G2",
                    "midi": 43,
                    "time": 34.21052699999999,
                    "velocity": 0.2125984251968504,
                    "duration": 0.8771930000000054
                },
                {
                    "name": "G3",
                    "midi": 55,
                    "time": 34.50292466666666,
                    "velocity": 0.2125984251968504,
                    "duration": 0.31067252083333585
                },
                {
                    "name": "B3",
                    "midi": 59,
                    "time": 34.795322333333324,
                    "velocity": 0.2125984251968504,
                    "duration": 0.2923976666666732
                },
                {
                    "name": "C3",
                    "midi": 48,
                    "time": 35.08772,
                    "velocity": 0.2440944881889764,
                    "duration": 0.8771930000000054
                },
                {
                    "name": "G3",
                    "midi": 55,
                    "time": 35.38011766666666,
                    "velocity": 0.2440944881889764,
                    "duration": 0.31067252083333585
                },
                {
                    "name": "C4",
                    "midi": 60,
                    "time": 35.67251533333333,
                    "velocity": 0.2440944881889764,
                    "duration": 0.2923976666666732
                },
                {
                    "name": "C3",
                    "midi": 48,
                    "time": 35.964913,
                    "velocity": 0.2440944881889764,
                    "duration": 0.8771930000000197
                },
                {
                    "name": "D3",
                    "midi": 50,
                    "time": 35.964913,
                    "velocity": 0.2440944881889764,
                    "duration": 0.31067252083334296
                },
                {
                    "name": "A3",
                    "midi": 57,
                    "time": 36.257310666666676,
                    "velocity": 0.2440944881889764,
                    "duration": 0.31067252083334296
                },
                {
                    "name": "D4",
                    "midi": 62,
                    "time": 36.54970833333335,
                    "velocity": 0.2440944881889764,
                    "duration": 0.2923976666666732
                },
                {
                    "name": "B2",
                    "midi": 47,
                    "time": 36.84210600000002,
                    "velocity": 0.2440944881889764,
                    "duration": 0.657894749999997
                },
                {
                    "name": "D3",
                    "midi": 50,
                    "time": 36.84210600000002,
                    "velocity": 0.2440944881889764,
                    "duration": 1.7543859999999967
                },
                {
                    "name": "G3",
                    "midi": 55,
                    "time": 37.13450366666669,
                    "velocity": 0.25984251968503935,
                    "duration": 0.2923976666666661
                },
                {
                    "name": "D4",
                    "midi": 62,
                    "time": 37.426901333333355,
                    "velocity": 0.2677165354330709,
                    "duration": 0.2923976666666661
                },
                {
                    "name": "A2",
                    "midi": 45,
                    "time": 37.50000075000002,
                    "velocity": 0.31496062992125984,
                    "duration": 0.21929825000000136
                },
                {
                    "name": "G2",
                    "midi": 43,
                    "time": 37.71929900000002,
                    "velocity": 0.2440944881889764,
                    "duration": 0.8771929999999983
                },
                {
                    "name": "A3",
                    "midi": 57,
                    "time": 38.01169666666669,
                    "velocity": 0.1968503937007874,
                    "duration": 0.5847953333333322
                },
                {
                    "name": "D4",
                    "midi": 62,
                    "time": 38.30409433333335,
                    "velocity": 0.1968503937007874,
                    "duration": 0.2923976666666661
                },
                {
                    "name": "B3",
                    "midi": 59,
                    "time": 38.59831948541669,
                    "velocity": 0.2755905511811024,
                    "duration": 0.31067252083332875
                },
                {
                    "name": "G3",
                    "midi": 55,
                    "time": 38.59831948541669,
                    "velocity": 0.2755905511811024,
                    "duration": 0.4385964999999956
                },
                {
                    "name": "D4",
                    "midi": 62,
                    "time": 38.888889666666685,
                    "velocity": 0.29133858267716534,
                    "duration": 0.31067252083333585
                },
                {
                    "name": "G4",
                    "midi": 67,
                    "time": 39.18128733333335,
                    "velocity": 0.25196850393700787,
                    "duration": 0.2923976666666732
                },
                {
                    "name": "C#3",
                    "midi": 49,
                    "time": 39.473685000000025,
                    "velocity": 0.2755905511811024,
                    "duration": 0.4385965000000027
                },
                {
                    "name": "A#3",
                    "midi": 58,
                    "time": 39.473685000000025,
                    "velocity": 0.2755905511811024,
                    "duration": 0.31067252083333585
                },
                {
                    "name": "E4",
                    "midi": 64,
                    "time": 39.76608266666669,
                    "velocity": 0.2992125984251969,
                    "duration": 0.31067252083334296
                },
                {
                    "name": "G4",
                    "midi": 67,
                    "time": 40.058480333333364,
                    "velocity": 0.25196850393700787,
                    "duration": 0.2923976666666732
                },
                {
                    "name": "D3",
                    "midi": 50,
                    "time": 40.35087800000004,
                    "velocity": 0.2755905511811024,
                    "duration": 0.4385965000000027
                },
                {
                    "name": "A3",
                    "midi": 57,
                    "time": 40.35087800000004,
                    "velocity": 0.2755905511811024,
                    "duration": 0.31067252083333585
                },
                {
                    "name": "D4",
                    "midi": 62,
                    "time": 40.6432756666667,
                    "velocity": 0.29133858267716534,
                    "duration": 0.31067252083334296
                },
                {
                    "name": "F#4",
                    "midi": 66,
                    "time": 40.935673333333376,
                    "velocity": 0.2283464566929134,
                    "duration": 0.2923976666666732
                },
                {
                    "name": "F#3",
                    "midi": 54,
                    "time": 41.22807100000005,
                    "velocity": 0.2125984251968504,
                    "duration": 0.4385965000000027
                },
                {
                    "name": "C4",
                    "midi": 60,
                    "time": 41.22807100000005,
                    "velocity": 0.2125984251968504,
                    "duration": 0.31067252083333585
                },
                {
                    "name": "D4",
                    "midi": 62,
                    "time": 41.520468666666716,
                    "velocity": 0.2204724409448819,
                    "duration": 0.31067252083334296
                },
                {
                    "name": "A4",
                    "midi": 69,
                    "time": 41.81286633333339,
                    "velocity": 0.1968503937007874,
                    "duration": 0.2923976666666732
                },
                {
                    "name": "B3",
                    "midi": 59,
                    "time": 42.10709148541673,
                    "velocity": 0.2755905511811024,
                    "duration": 0.31067252083332875
                },
                {
                    "name": "G3",
                    "midi": 55,
                    "time": 42.10709148541673,
                    "velocity": 0.2755905511811024,
                    "duration": 0.4385964999999956
                },
                {
                    "name": "D4",
                    "midi": 62,
                    "time": 42.39766166666673,
                    "velocity": 0.29133858267716534,
                    "duration": 0.31067252083333585
                },
                {
                    "name": "G4",
                    "midi": 67,
                    "time": 42.690059333333394,
                    "velocity": 0.25196850393700787,
                    "duration": 0.2923976666666732
                },
                {
                    "name": "C#3",
                    "midi": 49,
                    "time": 42.98245700000007,
                    "velocity": 0.2755905511811024,
                    "duration": 0.4385965000000027
                },
                {
                    "name": "A#3",
                    "midi": 58,
                    "time": 42.98245700000007,
                    "velocity": 0.2755905511811024,
                    "duration": 0.31067252083333585
                },
                {
                    "name": "E4",
                    "midi": 64,
                    "time": 43.274854666666734,
                    "velocity": 0.2992125984251969,
                    "duration": 0.31067252083334296
                },
                {
                    "name": "G4",
                    "midi": 67,
                    "time": 43.56725233333341,
                    "velocity": 0.25196850393700787,
                    "duration": 0.2923976666666732
                },
                {
                    "name": "D3",
                    "midi": 50,
                    "time": 43.85965000000008,
                    "velocity": 0.2755905511811024,
                    "duration": 0.4385965000000027
                },
                {
                    "name": "A3",
                    "midi": 57,
                    "time": 43.85965000000008,
                    "velocity": 0.2755905511811024,
                    "duration": 0.31067252083333585
                },
                {
                    "name": "D4",
                    "midi": 62,
                    "time": 44.152047666666746,
                    "velocity": 0.29133858267716534,
                    "duration": 0.31067252083334296
                },
                {
                    "name": "F#4",
                    "midi": 66,
                    "time": 44.44444533333342,
                    "velocity": 0.2125984251968504,
                    "duration": 0.2923976666666732
                },
                {
                    "name": "F#3",
                    "midi": 54,
                    "time": 44.73684300000009,
                    "velocity": 0.2047244094488189,
                    "duration": 0.4385965000000027
                },
                {
                    "name": "C4",
                    "midi": 60,
                    "time": 44.73684300000009,
                    "velocity": 0.2047244094488189,
                    "duration": 0.31067252083333585
                },
                {
                    "name": "D4",
                    "midi": 62,
                    "time": 45.02924066666676,
                    "velocity": 0.2204724409448819,
                    "duration": 0.31067252083334296
                },
                {
                    "name": "A4",
                    "midi": 69,
                    "time": 45.32163833333343,
                    "velocity": 0.2125984251968504,
                    "duration": 0.2923976666666732
                },
                {
                    "name": "B3",
                    "midi": 59,
                    "time": 45.615863485416774,
                    "velocity": 0.2755905511811024,
                    "duration": 0.31067252083332875
                },
                {
                    "name": "G3",
                    "midi": 55,
                    "time": 45.615863485416774,
                    "velocity": 0.2755905511811024,
                    "duration": 0.4385964999999956
                },
                {
                    "name": "D4",
                    "midi": 62,
                    "time": 45.90643366666677,
                    "velocity": 0.29133858267716534,
                    "duration": 0.31067252083333585
                },
                {
                    "name": "G4",
                    "midi": 67,
                    "time": 46.19883133333344,
                    "velocity": 0.29133858267716534,
                    "duration": 0.2923976666666732
                },
                {
                    "name": "B2",
                    "midi": 47,
                    "time": 46.49122900000011,
                    "velocity": 0.2992125984251969,
                    "duration": 0.4385965000000027
                },
                {
                    "name": "G3",
                    "midi": 55,
                    "time": 46.49122900000011,
                    "velocity": 0.2992125984251969,
                    "duration": 1.1695906666666787
                },
                {
                    "name": "D4",
                    "midi": 62,
                    "time": 46.78362666666678,
                    "velocity": 0.3228346456692913,
                    "duration": 0.31067252083334296
                },
                {
                    "name": "G4",
                    "midi": 67,
                    "time": 47.07602433333345,
                    "velocity": 0.3228346456692913,
                    "duration": 0.2923976666666732
                },
                {
                    "name": "C3",
                    "midi": 48,
                    "time": 47.36842200000012,
                    "velocity": 0.2992125984251969,
                    "duration": 0.4385965000000027
                },
                {
                    "name": "E4",
                    "midi": 64,
                    "time": 47.66081966666679,
                    "velocity": 0.31496062992125984,
                    "duration": 0.31067252083334296
                },
                {
                    "name": "G4",
                    "midi": 67,
                    "time": 47.95321733333346,
                    "velocity": 0.31496062992125984,
                    "duration": 0.2923976666666732
                },
                {
                    "name": "E3",
                    "midi": 52,
                    "time": 48.245615000000136,
                    "velocity": 0.2992125984251969,
                    "duration": 0.4385965000000027
                },
                {
                    "name": "G3",
                    "midi": 55,
                    "time": 48.245615000000136,
                    "velocity": 0.2992125984251969,
                    "duration": 0.31067252083333585
                },
                {
                    "name": "C4",
                    "midi": 60,
                    "time": 48.5380126666668,
                    "velocity": 0.31496062992125984,
                    "duration": 0.31067252083334296
                },
                {
                    "name": "G4",
                    "midi": 67,
                    "time": 48.830410333333475,
                    "velocity": 0.31496062992125984,
                    "duration": 0.2923976666666732
                },
                {
                    "name": "D3",
                    "midi": 50,
                    "time": 49.12280800000015,
                    "velocity": 0.2204724409448819,
                    "duration": 0.4385965000000027
                },
                {
                    "name": "G3",
                    "midi": 55,
                    "time": 49.12280800000015,
                    "velocity": 0.2204724409448819,
                    "duration": 0.31067252083333585
                },
                {
                    "name": "C4",
                    "midi": 60,
                    "time": 49.415205666666814,
                    "velocity": 0.25196850393700787,
                    "duration": 0.31067252083334296
                },
                {
                    "name": "G4",
                    "midi": 67,
                    "time": 49.70760333333349,
                    "velocity": 0.2283464566929134,
                    "duration": 0.2923976666666732
                },
                {
                    "name": "D3",
                    "midi": 50,
                    "time": 50.00000100000016,
                    "velocity": 0.2047244094488189,
                    "duration": 0.4385965000000098
                },
                {
                    "name": "F#3",
                    "midi": 54,
                    "time": 50.00000100000016,
                    "velocity": 0.2047244094488189,
                    "duration": 0.31067252083334296
                },
                {
                    "name": "C4",
                    "midi": 60,
                    "time": 50.292398666666834,
                    "velocity": 0.2440944881889764,
                    "duration": 0.31067252083334296
                },
                {
                    "name": "A4",
                    "midi": 69,
                    "time": 50.58479633333351,
                    "velocity": 0.2047244094488189,
                    "duration": 0.2923976666666732
                },
                {
                    "name": "G2",
                    "midi": 43,
                    "time": 50.87719400000018,
                    "velocity": 0.1889763779527559,
                    "duration": 1.7543859999999967
                },
                {
                    "name": "D3",
                    "midi": 50,
                    "time": 50.87719400000018,
                    "velocity": 0.1889763779527559,
                    "duration": 1.7543859999999967
                },
                {
                    "name": "B3",
                    "midi": 59,
                    "time": 51.16959166666685,
                    "velocity": 0.2204724409448819,
                    "duration": 0.8771929999999983
                },
                {
                    "name": "G4",
                    "midi": 67,
                    "time": 51.46198933333351,
                    "velocity": 0.1968503937007874,
                    "duration": 0.2923976666666661
                },
                {
                    "name": "B3",
                    "midi": 59,
                    "time": 52.046784666666845,
                    "velocity": 0.2047244094488189,
                    "duration": 0.2923976666666661
                },
                {
                    "name": "G4",
                    "midi": 67,
                    "time": 52.33918233333351,
                    "velocity": 0.16535433070866143,
                    "duration": 0.288742695833335
                },
                {
                    "name": "E3",
                    "midi": 52,
                    "time": 52.63158000000018,
                    "velocity": 0.28346456692913385,
                    "duration": 0.8771930000000054
                },
                {
                    "name": "B3",
                    "midi": 59,
                    "time": 52.92397766666684,
                    "velocity": 0.28346456692913385,
                    "duration": 0.31067252083333585
                },
                {
                    "name": "E4",
                    "midi": 64,
                    "time": 53.21637533333351,
                    "velocity": 0.28346456692913385,
                    "duration": 0.2923976666666732
                },
                {
                    "name": "A2",
                    "midi": 45,
                    "time": 53.50877300000018,
                    "velocity": 0.28346456692913385,
                    "duration": 0.8771930000000054
                },
                {
                    "name": "A3",
                    "midi": 57,
                    "time": 53.80117066666685,
                    "velocity": 0.28346456692913385,
                    "duration": 0.31067252083333585
                },
                {
                    "name": "E4",
                    "midi": 64,
                    "time": 54.093568333333515,
                    "velocity": 0.28346456692913385,
                    "duration": 0.2923976666666732
                },
                {
                    "name": "D3",
                    "midi": 50,
                    "time": 54.38596600000019,
                    "velocity": 0.28346456692913385,
                    "duration": 0.6578947500000041
                },
                {
                    "name": "A3",
                    "midi": 57,
                    "time": 54.678363666666854,
                    "velocity": 0.3228346456692913,
                    "duration": 0.31067252083333585
                },
                {
                    "name": "D4",
                    "midi": 62,
                    "time": 54.97076133333352,
                    "velocity": 0.31496062992125984,
                    "duration": 0.2923976666666732
                },
                {
                    "name": "C3",
                    "midi": 48,
                    "time": 55.04386075000019,
                    "velocity": 0.3779527559055118,
                    "duration": 0.21929825000000136
                },
                {
                    "name": "B2",
                    "midi": 47,
                    "time": 55.26315900000019,
                    "velocity": 0.2755905511811024,
                    "duration": 0.8771930000000125
                },
                {
                    "name": "G3",
                    "midi": 55,
                    "time": 55.55555666666687,
                    "velocity": 0.2755905511811024,
                    "duration": 0.31067252083333585
                },
                {
                    "name": "D4",
                    "midi": 62,
                    "time": 55.84795433333353,
                    "velocity": 0.2755905511811024,
                    "duration": 0.2923976666666732
                },
                {
                    "name": "C3",
                    "midi": 48,
                    "time": 56.140352000000206,
                    "velocity": 0.2125984251968504,
                    "duration": 0.8771930000000054
                },
                {
                    "name": "G3",
                    "midi": 55,
                    "time": 56.43274966666687,
                    "velocity": 0.2125984251968504,
                    "duration": 0.31067252083333585
                },
                {
                    "name": "C4",
                    "midi": 60,
                    "time": 56.72514733333354,
                    "velocity": 0.2125984251968504,
                    "duration": 0.2923976666666732
                },
                {
                    "name": "F#2",
                    "midi": 42,
                    "time": 57.01754500000021,
                    "velocity": 0.2125984251968504,
                    "duration": 0.8771930000000054
                },
                {
                    "name": "F#3",
                    "midi": 54,
                    "time": 57.30994266666688,
                    "velocity": 0.2125984251968504,
                    "duration": 0.31067252083333585
                },
                {
                    "name": "C4",
                    "midi": 60,
                    "time": 57.602340333333544,
                    "velocity": 0.2125984251968504,
                    "duration": 0.2923976666666732
                },
                {
                    "name": "B2",
                    "midi": 47,
                    "time": 57.89473800000022,
                    "velocity": 0.2125984251968504,
                    "duration": 0.6578947500000041
                },
                {
                    "name": "F#3",
                    "midi": 54,
                    "time": 58.18713566666688,
                    "velocity": 0.25984251968503935,
                    "duration": 0.31067252083333585
                },
                {
                    "name": "B3",
                    "midi": 59,
                    "time": 58.47953333333355,
                    "velocity": 0.2677165354330709,
                    "duration": 0.2923976666666732
                },
                {
                    "name": "A2",
                    "midi": 45,
                    "time": 58.55263275000022,
                    "velocity": 0.30708661417322836,
                    "duration": 0.21929825000000136
                },
                {
                    "name": "G2",
                    "midi": 43,
                    "time": 58.77193100000022,
                    "velocity": 0.2125984251968504,
                    "duration": 0.8771930000000054
                },
                {
                    "name": "G3",
                    "midi": 55,
                    "time": 59.06432866666689,
                    "velocity": 0.2125984251968504,
                    "duration": 0.31067252083333585
                },
                {
                    "name": "B3",
                    "midi": 59,
                    "time": 59.356726333333555,
                    "velocity": 0.2125984251968504,
                    "duration": 0.2923976666666732
                },
                {
                    "name": "C3",
                    "midi": 48,
                    "time": 59.64912400000023,
                    "velocity": 0.2440944881889764,
                    "duration": 0.8771930000000054
                },
                {
                    "name": "G3",
                    "midi": 55,
                    "time": 59.941521666666894,
                    "velocity": 0.2440944881889764,
                    "duration": 0.31067252083333585
                },
                {
                    "name": "C4",
                    "midi": 60,
                    "time": 60.23391933333356,
                    "velocity": 0.2440944881889764,
                    "duration": 0.2923976666666732
                },
                {
                    "name": "C3",
                    "midi": 48,
                    "time": 60.52631700000023,
                    "velocity": 0.2440944881889764,
                    "duration": 0.8771930000000125
                },
                {
                    "name": "D3",
                    "midi": 50,
                    "time": 60.52631700000023,
                    "velocity": 0.2440944881889764,
                    "duration": 0.31067252083333585
                },
                {
                    "name": "A3",
                    "midi": 57,
                    "time": 60.8187146666669,
                    "velocity": 0.2440944881889764,
                    "duration": 0.31067252083334296
                },
                {
                    "name": "D4",
                    "midi": 62,
                    "time": 61.11111233333357,
                    "velocity": 0.2440944881889764,
                    "duration": 0.2923976666666732
                },
                {
                    "name": "B2",
                    "midi": 47,
                    "time": 61.403510000000246,
                    "velocity": 0.2440944881889764,
                    "duration": 0.657894749999997
                },
                {
                    "name": "D3",
                    "midi": 50,
                    "time": 61.403510000000246,
                    "velocity": 0.2440944881889764,
                    "duration": 1.7543859999999967
                },
                {
                    "name": "G3",
                    "midi": 55,
                    "time": 61.69590766666691,
                    "velocity": 0.2677165354330709,
                    "duration": 0.2923976666666661
                },
                {
                    "name": "D4",
                    "midi": 62,
                    "time": 61.98830533333358,
                    "velocity": 0.2677165354330709,
                    "duration": 0.2923976666666661
                },
                {
                    "name": "A2",
                    "midi": 45,
                    "time": 62.06140475000024,
                    "velocity": 0.30708661417322836,
                    "duration": 0.21929825000000136
                },
                {
                    "name": "G2",
                    "midi": 43,
                    "time": 62.280703000000244,
                    "velocity": 0.2440944881889764,
                    "duration": 0.8771929999999983
                },
                {
                    "name": "A3",
                    "midi": 57,
                    "time": 62.57310066666691,
                    "velocity": 0.1968503937007874,
                    "duration": 0.5847953333333322
                },
                {
                    "name": "D4",
                    "midi": 62,
                    "time": 62.865498333333576,
                    "velocity": 0.1968503937007874,
                    "duration": 0.2923976666666661
                },
                {
                    "name": "B3",
                    "midi": 59,
                    "time": 63.15972348541691,
                    "velocity": 0.2755905511811024,
                    "duration": 0.31067252083332875
                },
                {
                    "name": "G3",
                    "midi": 55,
                    "time": 63.15972348541691,
                    "velocity": 0.2755905511811024,
                    "duration": 0.4385964999999956
                },
                {
                    "name": "D4",
                    "midi": 62,
                    "time": 63.45029366666691,
                    "velocity": 0.29133858267716534,
                    "duration": 0.31067252083333585
                },
                {
                    "name": "G4",
                    "midi": 67,
                    "time": 63.742691333333575,
                    "velocity": 0.25196850393700787,
                    "duration": 0.2923976666666661
                },
                {
                    "name": "C#3",
                    "midi": 49,
                    "time": 64.03508900000024,
                    "velocity": 0.2755905511811024,
                    "duration": 0.4385965000000027
                },
                {
                    "name": "A#3",
                    "midi": 58,
                    "time": 64.03508900000024,
                    "velocity": 0.2755905511811024,
                    "duration": 0.31067252083333585
                },
                {
                    "name": "E4",
                    "midi": 64,
                    "time": 64.32748666666691,
                    "velocity": 0.2992125984251969,
                    "duration": 0.31067252083332164
                },
                {
                    "name": "G4",
                    "midi": 67,
                    "time": 64.61988433333357,
                    "velocity": 0.25196850393700787,
                    "duration": 0.292397666666659
                },
                {
                    "name": "D3",
                    "midi": 50,
                    "time": 64.91228200000023,
                    "velocity": 0.2755905511811024,
                    "duration": 0.4385965000000027
                },
                {
                    "name": "A3",
                    "midi": 57,
                    "time": 64.91228200000023,
                    "velocity": 0.2755905511811024,
                    "duration": 0.31067252083333585
                },
                {
                    "name": "D4",
                    "midi": 62,
                    "time": 65.2046796666669,
                    "velocity": 0.29133858267716534,
                    "duration": 0.31067252083332164
                },
                {
                    "name": "F#4",
                    "midi": 66,
                    "time": 65.49707733333356,
                    "velocity": 0.2125984251968504,
                    "duration": 0.292397666666659
                },
                {
                    "name": "F#3",
                    "midi": 54,
                    "time": 65.78947500000022,
                    "velocity": 0.2047244094488189,
                    "duration": 0.4385965000000027
                },
                {
                    "name": "C4",
                    "midi": 60,
                    "time": 65.78947500000022,
                    "velocity": 0.2047244094488189,
                    "duration": 0.31067252083333585
                },
                {
                    "name": "D4",
                    "midi": 62,
                    "time": 66.0818726666669,
                    "velocity": 0.2204724409448819,
                    "duration": 0.31067252083332164
                },
                {
                    "name": "A4",
                    "midi": 69,
                    "time": 66.37427033333356,
                    "velocity": 0.2125984251968504,
                    "duration": 0.292397666666659
                },
                {
                    "name": "B3",
                    "midi": 59,
                    "time": 66.66849548541688,
                    "velocity": 0.2755905511811024,
                    "duration": 0.31067252083333585
                },
                {
                    "name": "G3",
                    "midi": 55,
                    "time": 66.66849548541688,
                    "velocity": 0.2755905511811024,
                    "duration": 0.4385965000000027
                },
                {
                    "name": "D4",
                    "midi": 62,
                    "time": 66.95906566666689,
                    "velocity": 0.29133858267716534,
                    "duration": 0.31067252083332164
                },
                {
                    "name": "G4",
                    "midi": 67,
                    "time": 67.25146333333355,
                    "velocity": 0.25196850393700787,
                    "duration": 0.292397666666659
                },
                {
                    "name": "C#3",
                    "midi": 49,
                    "time": 67.5438610000002,
                    "velocity": 0.2755905511811024,
                    "duration": 0.4385965000000027
                },
                {
                    "name": "A#3",
                    "midi": 58,
                    "time": 67.5438610000002,
                    "velocity": 0.2755905511811024,
                    "duration": 0.31067252083333585
                },
                {
                    "name": "E4",
                    "midi": 64,
                    "time": 67.83625866666688,
                    "velocity": 0.2992125984251969,
                    "duration": 0.31067252083332164
                },
                {
                    "name": "G4",
                    "midi": 67,
                    "time": 68.12865633333354,
                    "velocity": 0.25196850393700787,
                    "duration": 0.292397666666659
                },
                {
                    "name": "D3",
                    "midi": 50,
                    "time": 68.4210540000002,
                    "velocity": 0.2755905511811024,
                    "duration": 0.4385965000000027
                },
                {
                    "name": "A3",
                    "midi": 57,
                    "time": 68.4210540000002,
                    "velocity": 0.2755905511811024,
                    "duration": 0.31067252083333585
                },
                {
                    "name": "D4",
                    "midi": 62,
                    "time": 68.71345166666687,
                    "velocity": 0.29133858267716534,
                    "duration": 0.31067252083332164
                },
                {
                    "name": "F#4",
                    "midi": 66,
                    "time": 69.00584933333353,
                    "velocity": 0.2204724409448819,
                    "duration": 0.292397666666659
                },
                {
                    "name": "F#3",
                    "midi": 54,
                    "time": 69.29824700000019,
                    "velocity": 0.2125984251968504,
                    "duration": 0.4385964999999885
                },
                {
                    "name": "C4",
                    "midi": 60,
                    "time": 69.29824700000019,
                    "velocity": 0.2125984251968504,
                    "duration": 0.31067252083332164
                },
                {
                    "name": "D4",
                    "midi": 62,
                    "time": 69.59064466666685,
                    "velocity": 0.2204724409448819,
                    "duration": 0.31067252083332164
                },
                {
                    "name": "A4",
                    "midi": 69,
                    "time": 69.8830423333335,
                    "velocity": 0.2047244094488189,
                    "duration": 0.292397666666659
                },
                {
                    "name": "B3",
                    "midi": 59,
                    "time": 70.17726748541683,
                    "velocity": 0.2755905511811024,
                    "duration": 0.31067252083332164
                },
                {
                    "name": "G3",
                    "midi": 55,
                    "time": 70.17726748541683,
                    "velocity": 0.2755905511811024,
                    "duration": 0.4385964999999885
                },
                {
                    "name": "D4",
                    "midi": 62,
                    "time": 70.46783766666682,
                    "velocity": 0.29133858267716534,
                    "duration": 0.31067252083332164
                },
                {
                    "name": "G4",
                    "midi": 67,
                    "time": 70.76023533333348,
                    "velocity": 0.29133858267716534,
                    "duration": 0.292397666666659
                },
                {
                    "name": "B2",
                    "midi": 47,
                    "time": 71.05263300000014,
                    "velocity": 0.2992125984251969,
                    "duration": 0.4385965000000027
                },
                {
                    "name": "G3",
                    "midi": 55,
                    "time": 71.05263300000014,
                    "velocity": 0.2992125984251969,
                    "duration": 1.1695906666666644
                },
                {
                    "name": "D4",
                    "midi": 62,
                    "time": 71.34503066666682,
                    "velocity": 0.3228346456692913,
                    "duration": 0.31067252083332164
                },
                {
                    "name": "G4",
                    "midi": 67,
                    "time": 71.63742833333347,
                    "velocity": 0.3228346456692913,
                    "duration": 0.292397666666659
                },
                {
                    "name": "C3",
                    "midi": 48,
                    "time": 71.92982600000013,
                    "velocity": 0.2992125984251969,
                    "duration": 0.4385965000000027
                },
                {
                    "name": "E4",
                    "midi": 64,
                    "time": 72.2222236666668,
                    "velocity": 0.31496062992125984,
                    "duration": 0.31067252083332164
                },
                {
                    "name": "G4",
                    "midi": 67,
                    "time": 72.51462133333347,
                    "velocity": 0.31496062992125984,
                    "duration": 0.292397666666659
                },
                {
                    "name": "E3",
                    "midi": 52,
                    "time": 72.80701900000012,
                    "velocity": 0.2992125984251969,
                    "duration": 0.4385965000000027
                },
                {
                    "name": "G3",
                    "midi": 55,
                    "time": 72.80701900000012,
                    "velocity": 0.2992125984251969,
                    "duration": 0.31067252083333585
                },
                {
                    "name": "C4",
                    "midi": 60,
                    "time": 73.0994166666668,
                    "velocity": 0.31496062992125984,
                    "duration": 0.31067252083332164
                },
                {
                    "name": "G4",
                    "midi": 67,
                    "time": 73.39181433333346,
                    "velocity": 0.31496062992125984,
                    "duration": 0.292397666666659
                },
                {
                    "name": "D3",
                    "midi": 50,
                    "time": 73.68421200000012,
                    "velocity": 0.2204724409448819,
                    "duration": 0.4385964999999885
                },
                {
                    "name": "G3",
                    "midi": 55,
                    "time": 73.68421200000012,
                    "velocity": 0.2204724409448819,
                    "duration": 0.31067252083332164
                },
                {
                    "name": "C4",
                    "midi": 60,
                    "time": 73.97660966666677,
                    "velocity": 0.25196850393700787,
                    "duration": 0.31067252083332164
                },
                {
                    "name": "G4",
                    "midi": 67,
                    "time": 74.26900733333343,
                    "velocity": 0.2283464566929134,
                    "duration": 0.292397666666659
                },
                {
                    "name": "D3",
                    "midi": 50,
                    "time": 74.5614050000001,
                    "velocity": 0.2047244094488189,
                    "duration": 0.4385964999999885
                },
                {
                    "name": "F#3",
                    "midi": 54,
                    "time": 74.5614050000001,
                    "velocity": 0.2047244094488189,
                    "duration": 0.31067252083332164
                },
                {
                    "name": "C4",
                    "midi": 60,
                    "time": 74.85380266666675,
                    "velocity": 0.2440944881889764,
                    "duration": 0.31067252083332164
                },
                {
                    "name": "A4",
                    "midi": 69,
                    "time": 75.14620033333341,
                    "velocity": 0.2047244094488189,
                    "duration": 0.292397666666659
                },
                {
                    "name": "G2",
                    "midi": 43,
                    "time": 75.43859800000007,
                    "velocity": 0.1889763779527559,
                    "duration": 1.7543860000000109
                },
                {
                    "name": "D3",
                    "midi": 50,
                    "time": 75.43859800000007,
                    "velocity": 0.1889763779527559,
                    "duration": 1.7543860000000109
                },
                {
                    "name": "B3",
                    "midi": 59,
                    "time": 75.73099566666673,
                    "velocity": 0.2204724409448819,
                    "duration": 0.8771930000000197
                },
                {
                    "name": "G4",
                    "midi": 67,
                    "time": 76.0233933333334,
                    "velocity": 0.1968503937007874,
                    "duration": 0.2923976666666732
                },
                {
                    "name": "B3",
                    "midi": 59,
                    "time": 76.60818866666675,
                    "velocity": 0.1889763779527559,
                    "duration": 0.31067252083333585
                },
                {
                    "name": "G4",
                    "midi": 67,
                    "time": 76.90058633333342,
                    "velocity": 0.14960629921259844,
                    "duration": 0.292397666666659
                }
            ],
            "controlChanges": {
                "7": [
                    {
                        "number": 7,
                        "time": 0,
                        "value": 0.7874015748031497
                    }
                ],
                "10": [
                    {
                        "number": 10,
                        "time": 0,
                        "value": 0.5039370078740157
                    }
                ],
                "64": [
                    {
                        "number": 64,
                        "time": 0,
                        "value": 1
                    },
                    {
                        "number": 64,
                        "time": 0.9009503104166666,
                        "value": 0
                    },
                    {
                        "number": 64,
                        "time": 1.0124269208333332,
                        "value": 1
                    },
                    {
                        "number": 64,
                        "time": 1.7543859999999998,
                        "value": 0
                    },
                    {
                        "number": 64,
                        "time": 1.8969298624999997,
                        "value": 1
                    },
                    {
                        "number": 64,
                        "time": 2.657163795833333,
                        "value": 0
                    },
                    {
                        "number": 64,
                        "time": 2.7741228625,
                        "value": 1
                    },
                    {
                        "number": 64,
                        "time": 3.5087720000000004,
                        "value": 0
                    },
                    {
                        "number": 64,
                        "time": 3.605628727083334,
                        "value": 1
                    },
                    {
                        "number": 64,
                        "time": 4.3951024270833345,
                        "value": 0
                    },
                    {
                        "number": 64,
                        "time": 4.462719387500001,
                        "value": 1
                    },
                    {
                        "number": 64,
                        "time": 5.263158000000002,
                        "value": 0
                    },
                    {
                        "number": 64,
                        "time": 5.444079056250001,
                        "value": 1
                    },
                    {
                        "number": 64,
                        "time": 6.154970883333336,
                        "value": 0
                    },
                    {
                        "number": 64,
                        "time": 6.321272056250002,
                        "value": 1
                    },
                    {
                        "number": 64,
                        "time": 7.017544000000003,
                        "value": 0
                    },
                    {
                        "number": 64,
                        "time": 7.101608329166669,
                        "value": 1
                    },
                    {
                        "number": 64,
                        "time": 8.771930000000001,
                        "value": 0
                    },
                    {
                        "number": 64,
                        "time": 8.861476785416668,
                        "value": 1
                    },
                    {
                        "number": 64,
                        "time": 9.656432941666669,
                        "value": 0
                    },
                    {
                        "number": 64,
                        "time": 9.725877387500002,
                        "value": 1
                    },
                    {
                        "number": 64,
                        "time": 10.526316000000001,
                        "value": 0
                    },
                    {
                        "number": 64,
                        "time": 10.707237056250001,
                        "value": 1
                    },
                    {
                        "number": 64,
                        "time": 11.416301397916666,
                        "value": 0
                    },
                    {
                        "number": 64,
                        "time": 11.610014852083332,
                        "value": 1
                    },
                    {
                        "number": 64,
                        "time": 12.280701999999996,
                        "value": 0
                    },
                    {
                        "number": 64,
                        "time": 12.364766329166663,
                        "value": 1
                    },
                    {
                        "number": 64,
                        "time": 14.035087999999993,
                        "value": 0
                    },
                    {
                        "number": 64,
                        "time": 14.11915232916666,
                        "value": 1
                    },
                    {
                        "number": 64,
                        "time": 14.925073397916659,
                        "value": 0
                    },
                    {
                        "number": 64,
                        "time": 15.03472252291666,
                        "value": 1
                    },
                    {
                        "number": 64,
                        "time": 15.789473999999991,
                        "value": 0
                    },
                    {
                        "number": 64,
                        "time": 15.886330727083324,
                        "value": 1
                    },
                    {
                        "number": 64,
                        "time": 16.69225179583332,
                        "value": 0
                    },
                    {
                        "number": 64,
                        "time": 16.76900618333332,
                        "value": 1
                    },
                    {
                        "number": 64,
                        "time": 17.543859999999988,
                        "value": 0
                    },
                    {
                        "number": 64,
                        "time": 17.686403862499986,
                        "value": 1
                    },
                    {
                        "number": 64,
                        "time": 18.43567288333332,
                        "value": 0
                    },
                    {
                        "number": 64,
                        "time": 18.538012066666656,
                        "value": 1
                    },
                    {
                        "number": 64,
                        "time": 19.29824599999999,
                        "value": 0
                    },
                    {
                        "number": 64,
                        "time": 19.369517931249987,
                        "value": 1
                    },
                    {
                        "number": 64,
                        "time": 20.19554133958332,
                        "value": 0
                    },
                    {
                        "number": 64,
                        "time": 20.30519046458332,
                        "value": 1
                    },
                    {
                        "number": 64,
                        "time": 21.052631999999985,
                        "value": 0
                    },
                    {
                        "number": 64,
                        "time": 21.195175862499983,
                        "value": 1
                    },
                    {
                        "number": 64,
                        "time": 22.80701799999998,
                        "value": 0
                    },
                    {
                        "number": 64,
                        "time": 22.88377238749998,
                        "value": 1
                    },
                    {
                        "number": 64,
                        "time": 23.70614082499998,
                        "value": 0
                    },
                    {
                        "number": 64,
                        "time": 23.86513205624998,
                        "value": 1
                    },
                    {
                        "number": 64,
                        "time": 24.56140399999998,
                        "value": 0
                    },
                    {
                        "number": 64,
                        "time": 24.67105312499998,
                        "value": 1
                    },
                    {
                        "number": 64,
                        "time": 25.451389397916643,
                        "value": 0
                    },
                    {
                        "number": 64,
                        "time": 25.57383092083331,
                        "value": 1
                    },
                    {
                        "number": 64,
                        "time": 26.315789999999975,
                        "value": 0
                    },
                    {
                        "number": 64,
                        "time": 26.41264672708331,
                        "value": 1
                    },
                    {
                        "number": 64,
                        "time": 28.070175999999975,
                        "value": 0
                    },
                    {
                        "number": 64,
                        "time": 28.212719862499974,
                        "value": 1
                    },
                    {
                        "number": 64,
                        "time": 28.974781281249975,
                        "value": 0
                    },
                    {
                        "number": 64,
                        "time": 29.141082454166643,
                        "value": 1
                    },
                    {
                        "number": 64,
                        "time": 29.844664339583307,
                        "value": 0
                    },
                    {
                        "number": 64,
                        "time": 30.043860249999973,
                        "value": 1
                    },
                    {
                        "number": 64,
                        "time": 30.71454739791664,
                        "value": 0
                    },
                    {
                        "number": 64,
                        "time": 30.92105324999997,
                        "value": 1
                    },
                    {
                        "number": 64,
                        "time": 31.578947999999972,
                        "value": 0
                    },
                    {
                        "number": 64,
                        "time": 31.708699464583304,
                        "value": 1
                    },
                    {
                        "number": 64,
                        "time": 32.46893339791665,
                        "value": 0
                    },
                    {
                        "number": 64,
                        "time": 32.63706205624998,
                        "value": 1
                    },
                    {
                        "number": 64,
                        "time": 33.33333399999999,
                        "value": 0
                    },
                    {
                        "number": 64,
                        "time": 33.45577552291665,
                        "value": 1
                    },
                    {
                        "number": 64,
                        "time": 34.22331939791666,
                        "value": 0
                    },
                    {
                        "number": 64,
                        "time": 34.40424045416666,
                        "value": 1
                    },
                    {
                        "number": 64,
                        "time": 35.08772,
                        "value": 0
                    },
                    {
                        "number": 64,
                        "time": 35.230263862499996,
                        "value": 1
                    },
                    {
                        "number": 64,
                        "time": 36.003290193750004,
                        "value": 0
                    },
                    {
                        "number": 64,
                        "time": 36.197003647916674,
                        "value": 1
                    },
                    {
                        "number": 64,
                        "time": 36.84210600000002,
                        "value": 0
                    },
                    {
                        "number": 64,
                        "time": 36.95906506666669,
                        "value": 1
                    },
                    {
                        "number": 64,
                        "time": 37.74488379583335,
                        "value": 0
                    },
                    {
                        "number": 64,
                        "time": 37.86184286250002,
                        "value": 1
                    },
                    {
                        "number": 64,
                        "time": 38.59649200000002,
                        "value": 0
                    },
                    {
                        "number": 64,
                        "time": 38.713451066666686,
                        "value": 1
                    },
                    {
                        "number": 64,
                        "time": 39.480994941666694,
                        "value": 0
                    },
                    {
                        "number": 64,
                        "time": 39.60343646458336,
                        "value": 1
                    },
                    {
                        "number": 64,
                        "time": 40.35087800000004,
                        "value": 0
                    },
                    {
                        "number": 64,
                        "time": 40.4349423291667,
                        "value": 1
                    },
                    {
                        "number": 64,
                        "time": 41.23538094166672,
                        "value": 0
                    },
                    {
                        "number": 64,
                        "time": 41.350512522916716,
                        "value": 1
                    },
                    {
                        "number": 64,
                        "time": 42.1089189708334,
                        "value": 0
                    },
                    {
                        "number": 64,
                        "time": 42.2021207270834,
                        "value": 1
                    },
                    {
                        "number": 64,
                        "time": 42.99524939791674,
                        "value": 0
                    },
                    {
                        "number": 64,
                        "time": 43.0847961833334,
                        "value": 1
                    },
                    {
                        "number": 64,
                        "time": 43.85965000000008,
                        "value": 0
                    },
                    {
                        "number": 64,
                        "time": 43.949196785416746,
                        "value": 1
                    },
                    {
                        "number": 64,
                        "time": 44.74780791250009,
                        "value": 0
                    },
                    {
                        "number": 64,
                        "time": 44.84649212500009,
                        "value": 1
                    },
                    {
                        "number": 64,
                        "time": 45.614036000000105,
                        "value": 0
                    },
                    {
                        "number": 64,
                        "time": 45.73099506666677,
                        "value": 1
                    },
                    {
                        "number": 64,
                        "time": 47.36842200000012,
                        "value": 0
                    },
                    {
                        "number": 64,
                        "time": 47.439693931250126,
                        "value": 1
                    },
                    {
                        "number": 64,
                        "time": 48.27850973750014,
                        "value": 0
                    },
                    {
                        "number": 64,
                        "time": 48.3625740666668,
                        "value": 1
                    },
                    {
                        "number": 64,
                        "time": 49.12280800000015,
                        "value": 0
                    },
                    {
                        "number": 64,
                        "time": 49.19407993125015,
                        "value": 1
                    },
                    {
                        "number": 64,
                        "time": 50.01279339791683,
                        "value": 0
                    },
                    {
                        "number": 64,
                        "time": 50.109650125000165,
                        "value": 1
                    },
                    {
                        "number": 64,
                        "time": 50.87719400000018,
                        "value": 0
                    },
                    {
                        "number": 64,
                        "time": 50.974050727083515,
                        "value": 1
                    },
                    {
                        "number": 64,
                        "time": 52.63158000000018,
                        "value": 0
                    },
                    {
                        "number": 64,
                        "time": 52.774123862500176,
                        "value": 1
                    },
                    {
                        "number": 64,
                        "time": 53.51973791250018,
                        "value": 0
                    },
                    {
                        "number": 64,
                        "time": 53.65131686250018,
                        "value": 1
                    },
                    {
                        "number": 64,
                        "time": 54.38596600000019,
                        "value": 0
                    },
                    {
                        "number": 64,
                        "time": 54.48282272708352,
                        "value": 1
                    },
                    {
                        "number": 64,
                        "time": 55.279606368750194,
                        "value": 0
                    },
                    {
                        "number": 64,
                        "time": 55.43128765833353,
                        "value": 1
                    },
                    {
                        "number": 64,
                        "time": 56.140352000000206,
                        "value": 0
                    },
                    {
                        "number": 64,
                        "time": 56.27010346458354,
                        "value": 1
                    },
                    {
                        "number": 64,
                        "time": 57.04495728125021,
                        "value": 0
                    },
                    {
                        "number": 64,
                        "time": 57.21125845416688,
                        "value": 1
                    },
                    {
                        "number": 64,
                        "time": 57.89473800000022,
                        "value": 0
                    },
                    {
                        "number": 64,
                        "time": 58.02448946458355,
                        "value": 1
                    },
                    {
                        "number": 64,
                        "time": 58.78837836875022,
                        "value": 0
                    },
                    {
                        "number": 64,
                        "time": 58.96564445416689,
                        "value": 1
                    },
                    {
                        "number": 64,
                        "time": 59.64912400000023,
                        "value": 0
                    },
                    {
                        "number": 64,
                        "time": 59.88121464791689,
                        "value": 1
                    },
                    {
                        "number": 64,
                        "time": 60.551901795833565,
                        "value": 0
                    },
                    {
                        "number": 64,
                        "time": 60.694445658333564,
                        "value": 1
                    },
                    {
                        "number": 64,
                        "time": 61.403510000000246,
                        "value": 0
                    },
                    {
                        "number": 64,
                        "time": 61.51315912500024,
                        "value": 1
                    },
                    {
                        "number": 64,
                        "time": 62.297150368750245,
                        "value": 0
                    },
                    {
                        "number": 64,
                        "time": 62.456141600000244,
                        "value": 1
                    },
                    {
                        "number": 64,
                        "time": 63.190790737500244,
                        "value": 0
                    },
                    {
                        "number": 64,
                        "time": 63.33881705625024,
                        "value": 1
                    },
                    {
                        "number": 64,
                        "time": 64.04788139791691,
                        "value": 0
                    },
                    {
                        "number": 64,
                        "time": 64.14473812500025,
                        "value": 1
                    },
                    {
                        "number": 64,
                        "time": 64.91228200000023,
                        "value": 0
                    },
                    {
                        "number": 64,
                        "time": 65.0018287854169,
                        "value": 1
                    },
                    {
                        "number": 64,
                        "time": 65.79312997083356,
                        "value": 0
                    },
                    {
                        "number": 64,
                        "time": 65.89912412500023,
                        "value": 1
                    },
                    {
                        "number": 64,
                        "time": 66.66666800000021,
                        "value": 0
                    },
                    {
                        "number": 64,
                        "time": 66.79641946458355,
                        "value": 1
                    },
                    {
                        "number": 64,
                        "time": 67.55665339791688,
                        "value": 0
                    },
                    {
                        "number": 64,
                        "time": 67.64071772708354,
                        "value": 1
                    },
                    {
                        "number": 64,
                        "time": 68.44663879583354,
                        "value": 0
                    },
                    {
                        "number": 64,
                        "time": 68.51791072708353,
                        "value": 1
                    },
                    {
                        "number": 64,
                        "time": 69.31652185416685,
                        "value": 0
                    },
                    {
                        "number": 64,
                        "time": 69.40789612500018,
                        "value": 1
                    },
                    {
                        "number": 64,
                        "time": 70.17544000000017,
                        "value": 0
                    },
                    {
                        "number": 64,
                        "time": 70.40753064791683,
                        "value": 1
                    },
                    {
                        "number": 64,
                        "time": 71.93348097083347,
                        "value": 0
                    },
                    {
                        "number": 64,
                        "time": 72.02668272708347,
                        "value": 1
                    },
                    {
                        "number": 64,
                        "time": 72.83260379583346,
                        "value": 0
                    },
                    {
                        "number": 64,
                        "time": 72.90935818333347,
                        "value": 1
                    },
                    {
                        "number": 64,
                        "time": 73.69700439791679,
                        "value": 0
                    },
                    {
                        "number": 64,
                        "time": 73.76827632916678,
                        "value": 1
                    },
                    {
                        "number": 64,
                        "time": 74.58881728125009,
                        "value": 0
                    },
                    {
                        "number": 64,
                        "time": 74.66374418333342,
                        "value": 1
                    },
                    {
                        "number": 64,
                        "time": 75.43859800000007,
                        "value": 0
                    },
                    {
                        "number": 64,
                        "time": 75.5409371833334,
                        "value": 1
                    },
                    {
                        "number": 64,
                        "time": 78.26571793958341,
                        "value": 0
                    }
                ],
                "91": [
                    {
                        "number": 91,
                        "time": 0,
                        "value": 1
                    },
                    {
                        "number": 91,
                        "time": 3.5087720000000004,
                        "value": 1
                    },
                    {
                        "number": 91,
                        "time": 7.017544000000003,
                        "value": 1
                    },
                    {
                        "number": 91,
                        "time": 14.035087999999993,
                        "value": 1
                    },
                    {
                        "number": 91,
                        "time": 17.543859999999988,
                        "value": 1
                    },
                    {
                        "number": 91,
                        "time": 21.052631999999985,
                        "value": 1
                    },
                    {
                        "number": 91,
                        "time": 38.59649200000002,
                        "value": 1
                    },
                    {
                        "number": 91,
                        "time": 42.10526400000006,
                        "value": 1
                    },
                    {
                        "number": 91,
                        "time": 45.614036000000105,
                        "value": 1
                    },
                    {
                        "number": 91,
                        "time": 63.15789600000024,
                        "value": 1
                    },
                    {
                        "number": 91,
                        "time": 66.66666800000021,
                        "value": 1
                    },
                    {
                        "number": 91,
                        "time": 70.17544000000017,
                        "value": 1
                    }
                ]
            },
            "id": 2,
            "name": "Piano left",
            "instrumentNumber": 0,
            "instrument": "acoustic grand piano",
            "instrumentFamily": "piano",
            "channelNumber": 0,
            "isPercussion": false
        },
        {
            "startTime": 0,
            "duration": 0,
            "length": 0,
            "notes": [],
            "controlChanges": {},
            "id": 3,
            "name": "Schumann: Scenes from Childhood Op. 15"
        },
        {
            "startTime": 0,
            "duration": 0,
            "length": 0,
            "notes": [],
            "controlChanges": {},
            "id": 4,
            "name": "Copyright © 1997 by Bernd Krueger"
        },
        {
            "startTime": 0,
            "duration": 0,
            "length": 0,
            "notes": [],
            "controlChanges": {},
            "id": 5,
            "name": "http://www.piano-midi.de"
        },
        {
            "startTime": 0,
            "duration": 0,
            "length": 0,
            "notes": [],
            "controlChanges": {},
            "id": 6,
            "name": "Edition: 2014-03-26"
        },
        {
            "startTime": 0,
            "duration": 0,
            "length": 0,
            "notes": [],
            "controlChanges": {},
            "id": 7,
            "name": "Spur 7"
        },
        {
            "startTime": 0,
            "duration": 0,
            "length": 0,
            "notes": [],
            "controlChanges": {},
            "id": 8,
            "name": "Spur 8"
        }
    ]
}