{
    "header": {
        "PPQ": 480,
        "timeSignature": [
            12,
            8
        ],
        "bpm": 124.95990869596005,
        "name": "Sehr langsam"
    },
    "startTime": 0,
    "duration": 89.30864400000034,
    "tracks": [
        {
            "startTime": 0,
            "duration": 0,
            "length": 0,
            "notes": [],
            "controlChanges": {},
            "id": 0,
            "name": "Sehr langsam"
        },
        {
            "startTime": 2.640847,
            "duration": 87.86818200000022,
            "length": 373,
            "notes": [
                {
                    "name": "D4",
                    "midi": 62,
                    "time": 2.640847,
                    "velocity": 0.33858267716535434,
                    "duration": 0.24007699999999987
                },
                {
                    "name": "F4",
                    "midi": 65,
                    "time": 2.880924,
                    "velocity": 0.29133858267716534,
                    "duration": 2.8809240000000007
                },
                {
                    "name": "C4",
                    "midi": 60,
                    "time": 2.880924,
                    "velocity": 0.3937007874015748,
                    "duration": 0.4801540000000002
                },
                {
                    "name": "D4",
                    "midi": 62,
                    "time": 3.361078,
                    "velocity": 0.3464566929133858,
                    "duration": 0.18005775000000002
                },
                {
                    "name": "C4",
                    "midi": 60,
                    "time": 3.54113575,
                    "velocity": 0.33858267716535434,
                    "duration": 0.03000962499999993
                },
                {
                    "name": "D4",
                    "midi": 62,
                    "time": 3.571145375,
                    "velocity": 0.33858267716535434,
                    "duration": 0.03000962499999993
                },
                {
                    "name": "D#4",
                    "midi": 63,
                    "time": 3.601155,
                    "velocity": 0.3937007874015748,
                    "duration": 0.36011550000000003
                },
                {
                    "name": "D4",
                    "midi": 62,
                    "time": 3.9612705,
                    "velocity": 0.29133858267716534,
                    "duration": 0.12003850000000016
                },
                {
                    "name": "C4",
                    "midi": 60,
                    "time": 4.081309,
                    "velocity": 0.33070866141732286,
                    "duration": 0.24007700000000032
                },
                {
                    "name": "A#3",
                    "midi": 58,
                    "time": 4.321386,
                    "velocity": 0.3543307086614173,
                    "duration": 0.7202310000000001
                },
                {
                    "name": "F3",
                    "midi": 53,
                    "time": 5.0416170000000005,
                    "velocity": 0.25984251968503935,
                    "duration": 0.48015399999999975
                },
                {
                    "name": "D4",
                    "midi": 62,
                    "time": 5.521771,
                    "velocity": 0.33858267716535434,
                    "duration": 0.24007700000000032
                },
                {
                    "name": "F4",
                    "midi": 65,
                    "time": 5.7618480000000005,
                    "velocity": 0.29133858267716534,
                    "duration": 2.8809240000000003
                },
                {
                    "name": "C4",
                    "midi": 60,
                    "time": 5.7618480000000005,
                    "velocity": 0.3937007874015748,
                    "duration": 0.36011550000000003
                },
                {
                    "name": "D4",
                    "midi": 62,
                    "time": 6.121963500000001,
                    "velocity": 0.29133858267716534,
                    "duration": 0.12003849999999971
                },
                {
                    "name": "C4",
                    "midi": 60,
                    "time": 6.242002,
                    "velocity": 0.3464566929133858,
                    "duration": 0.2100673750000004
                },
                {
                    "name": "D4",
                    "midi": 62,
                    "time": 6.452069375000001,
                    "velocity": 0.33858267716535434,
                    "duration": 0.03000962499999993
                },
                {
                    "name": "D#4",
                    "midi": 63,
                    "time": 6.482079000000001,
                    "velocity": 0.3937007874015748,
                    "duration": 0.36011550000000003
                },
                {
                    "name": "D4",
                    "midi": 62,
                    "time": 6.842194500000001,
                    "velocity": 0.29133858267716534,
                    "duration": 0.12003849999999971
                },
                {
                    "name": "C4",
                    "midi": 60,
                    "time": 6.962233,
                    "velocity": 0.33070866141732286,
                    "duration": 0.24007700000000032
                },
                {
                    "name": "A#3",
                    "midi": 58,
                    "time": 7.202310000000001,
                    "velocity": 0.3543307086614173,
                    "duration": 2.8809240000000003
                },
                {
                    "name": "A#4",
                    "midi": 70,
                    "time": 8.642772,
                    "velocity": 0.31496062992125984,
                    "duration": 1.2003850000000007
                },
                {
                    "name": "A#3",
                    "midi": 58,
                    "time": 9.843157000000001,
                    "velocity": 0.23622047244094488,
                    "duration": 0.9603079999999995
                },
                {
                    "name": "A#4",
                    "midi": 70,
                    "time": 10.083234000000001,
                    "velocity": 0.3228346456692913,
                    "duration": 1.4404620000000001
                },
                {
                    "name": "A#3",
                    "midi": 58,
                    "time": 11.283619000000002,
                    "velocity": 0.2677165354330709,
                    "duration": 0.24007699999999943
                },
                {
                    "name": "D#4",
                    "midi": 63,
                    "time": 11.523696000000001,
                    "velocity": 0.33858267716535434,
                    "duration": 0.36011549999999914
                },
                {
                    "name": "D#4",
                    "midi": 63,
                    "time": 11.8838115,
                    "velocity": 0.25196850393700787,
                    "duration": 0.12003849999999971
                },
                {
                    "name": "D#4",
                    "midi": 63,
                    "time": 12.00385,
                    "velocity": 0.2992125984251969,
                    "duration": 0.2100673749999995
                },
                {
                    "name": "D#4",
                    "midi": 63,
                    "time": 12.18390775,
                    "velocity": 0.23622047244094488,
                    "duration": 0.06001924999999986
                },
                {
                    "name": "F4",
                    "midi": 65,
                    "time": 12.213917375,
                    "velocity": 0.2204724409448819,
                    "duration": 0.03000962499999993
                },
                {
                    "name": "G4",
                    "midi": 67,
                    "time": 12.243927,
                    "velocity": 0.30708661417322836,
                    "duration": 0.36011549999999914
                },
                {
                    "name": "F4",
                    "midi": 65,
                    "time": 12.604042499999998,
                    "velocity": 0.23622047244094488,
                    "duration": 0.12003849999999971
                },
                {
                    "name": "D#4",
                    "midi": 63,
                    "time": 12.724080999999998,
                    "velocity": 0.25984251968503935,
                    "duration": 0.24007699999999943
                },
                {
                    "name": "D4",
                    "midi": 62,
                    "time": 12.964157999999998,
                    "velocity": 0.25984251968503935,
                    "duration": 1.2003850000000007
                },
                {
                    "name": "G3",
                    "midi": 55,
                    "time": 16.565312999999996,
                    "velocity": 0.4251968503937008,
                    "duration": 0.7202309999999983
                },
                {
                    "name": "F3",
                    "midi": 53,
                    "time": 16.565312999999996,
                    "velocity": 0.4251968503937008,
                    "duration": 0.7202309999999983
                },
                {
                    "name": "D4",
                    "midi": 62,
                    "time": 16.565312999999996,
                    "velocity": 0.4251968503937008,
                    "duration": 0.7202309999999983
                },
                {
                    "name": "B3",
                    "midi": 59,
                    "time": 16.565312999999996,
                    "velocity": 0.4251968503937008,
                    "duration": 0.7202309999999983
                },
                {
                    "name": "D#3",
                    "midi": 51,
                    "time": 17.285543999999994,
                    "velocity": 0.4645669291338583,
                    "duration": 0.48015399999999886
                },
                {
                    "name": "G3",
                    "midi": 55,
                    "time": 17.285543999999994,
                    "velocity": 0.4645669291338583,
                    "duration": 0.48015399999999886
                },
                {
                    "name": "C4",
                    "midi": 60,
                    "time": 17.285543999999994,
                    "velocity": 0.4645669291338583,
                    "duration": 0.48015399999999886
                },
                {
                    "name": "F3",
                    "midi": 53,
                    "time": 18.005774999999993,
                    "velocity": 0.4330708661417323,
                    "duration": 0.48015399999999886
                },
                {
                    "name": "B3",
                    "midi": 59,
                    "time": 18.005774999999993,
                    "velocity": 0.4330708661417323,
                    "duration": 0.48015399999999886
                },
                {
                    "name": "G3",
                    "midi": 55,
                    "time": 18.67799059999999,
                    "velocity": 0.41732283464566927,
                    "duration": 0.048015400000000596
                },
                {
                    "name": "D#3",
                    "midi": 51,
                    "time": 18.72600599999999,
                    "velocity": 0.49606299212598426,
                    "duration": 0.48015399999999886
                },
                {
                    "name": "C4",
                    "midi": 60,
                    "time": 18.72600599999999,
                    "velocity": 0.49606299212598426,
                    "duration": 0.5281693999999995
                },
                {
                    "name": "D4",
                    "midi": 62,
                    "time": 19.25417539999999,
                    "velocity": 0.4645669291338583,
                    "duration": 0.048015400000000596
                },
                {
                    "name": "D#4",
                    "midi": 63,
                    "time": 19.30219079999999,
                    "velocity": 0.48031496062992124,
                    "duration": 0.048015400000000596
                },
                {
                    "name": "F4",
                    "midi": 65,
                    "time": 19.35020619999999,
                    "velocity": 0.49606299212598426,
                    "duration": 0.048015400000000596
                },
                {
                    "name": "G4",
                    "midi": 67,
                    "time": 19.398221599999992,
                    "velocity": 0.5039370078740157,
                    "duration": 0.048015400000000596
                },
                {
                    "name": "D4",
                    "midi": 62,
                    "time": 19.446236999999993,
                    "velocity": 0.5196850393700787,
                    "duration": 0.48015399999999886
                },
                {
                    "name": "G#4",
                    "midi": 68,
                    "time": 19.446236999999993,
                    "velocity": 0.5196850393700787,
                    "duration": 0.5281693999999995
                },
                {
                    "name": "G4",
                    "midi": 67,
                    "time": 19.974406399999992,
                    "velocity": 0.4645669291338583,
                    "duration": 0.048015400000000596
                },
                {
                    "name": "F4",
                    "midi": 65,
                    "time": 20.022421799999993,
                    "velocity": 0.47244094488188976,
                    "duration": 0.048015400000000596
                },
                {
                    "name": "D#4",
                    "midi": 63,
                    "time": 20.070437199999994,
                    "velocity": 0.48031496062992124,
                    "duration": 0.048015400000000596
                },
                {
                    "name": "D4",
                    "midi": 62,
                    "time": 20.118452599999994,
                    "velocity": 0.5275590551181102,
                    "duration": 0.048015400000000596
                },
                {
                    "name": "A#3",
                    "midi": 58,
                    "time": 20.166467999999995,
                    "velocity": 0.4645669291338583,
                    "duration": 0.48015399999999886
                },
                {
                    "name": "G4",
                    "midi": 67,
                    "time": 20.166467999999995,
                    "velocity": 0.4645669291338583,
                    "duration": 0.48015399999999886
                },
                {
                    "name": "C4",
                    "midi": 60,
                    "time": 20.886698999999993,
                    "velocity": 0.4330708661417323,
                    "duration": 0.48015399999999886
                },
                {
                    "name": "D4",
                    "midi": 62,
                    "time": 20.886698999999993,
                    "velocity": 0.4330708661417323,
                    "duration": 0.48015399999999886
                },
                {
                    "name": "F#4",
                    "midi": 66,
                    "time": 20.886698999999993,
                    "velocity": 0.4330708661417323,
                    "duration": 0.48015399999999886
                },
                {
                    "name": "D4",
                    "midi": 62,
                    "time": 21.55891459999999,
                    "velocity": 0.41732283464566927,
                    "duration": 0.048015400000000596
                },
                {
                    "name": "A#3",
                    "midi": 58,
                    "time": 21.60692999999999,
                    "velocity": 0.49606299212598426,
                    "duration": 0.48015399999999886
                },
                {
                    "name": "G4",
                    "midi": 67,
                    "time": 21.60692999999999,
                    "velocity": 0.49606299212598426,
                    "duration": 0.5281693999999995
                },
                {
                    "name": "A4",
                    "midi": 69,
                    "time": 22.13509939999999,
                    "velocity": 0.4645669291338583,
                    "duration": 0.048015400000000596
                },
                {
                    "name": "A#4",
                    "midi": 70,
                    "time": 22.18311479999999,
                    "velocity": 0.48031496062992124,
                    "duration": 0.048015400000000596
                },
                {
                    "name": "C5",
                    "midi": 72,
                    "time": 22.231130199999992,
                    "velocity": 0.49606299212598426,
                    "duration": 0.048015400000000596
                },
                {
                    "name": "D5",
                    "midi": 74,
                    "time": 22.279145599999993,
                    "velocity": 0.5039370078740157,
                    "duration": 0.048015400000000596
                },
                {
                    "name": "A#4",
                    "midi": 70,
                    "time": 22.327160999999993,
                    "velocity": 0.5196850393700787,
                    "duration": 0.48015399999999886
                },
                {
                    "name": "D#5",
                    "midi": 75,
                    "time": 22.327160999999993,
                    "velocity": 0.5196850393700787,
                    "duration": 0.5281693999999995
                },
                {
                    "name": "D5",
                    "midi": 74,
                    "time": 22.855330399999993,
                    "velocity": 0.4566929133858268,
                    "duration": 0.048015400000000596
                },
                {
                    "name": "D#5",
                    "midi": 75,
                    "time": 22.903345799999993,
                    "velocity": 0.47244094488188976,
                    "duration": 0.048015400000000596
                },
                {
                    "name": "F5",
                    "midi": 77,
                    "time": 22.951361199999994,
                    "velocity": 0.4881889763779528,
                    "duration": 0.048015400000000596
                },
                {
                    "name": "F#5",
                    "midi": 78,
                    "time": 22.999376599999994,
                    "velocity": 0.5039370078740157,
                    "duration": 0.048015400000000596
                },
                {
                    "name": "A4",
                    "midi": 69,
                    "time": 23.047391999999995,
                    "velocity": 0.4409448818897638,
                    "duration": 0.48015399999999886
                },
                {
                    "name": "F#5",
                    "midi": 78,
                    "time": 23.047391999999995,
                    "velocity": 0.5196850393700787,
                    "duration": 0.5281693999999995
                },
                {
                    "name": "A4",
                    "midi": 69,
                    "time": 23.575561399999994,
                    "velocity": 0.4645669291338583,
                    "duration": 0.048015400000000596
                },
                {
                    "name": "A#4",
                    "midi": 70,
                    "time": 23.623576799999995,
                    "velocity": 0.47244094488188976,
                    "duration": 0.048015400000000596
                },
                {
                    "name": "C5",
                    "midi": 72,
                    "time": 23.671592199999996,
                    "velocity": 0.48031496062992124,
                    "duration": 0.048015400000000596
                },
                {
                    "name": "D5",
                    "midi": 74,
                    "time": 23.719607599999996,
                    "velocity": 0.49606299212598426,
                    "duration": 0.048015400000000596
                },
                {
                    "name": "C5",
                    "midi": 72,
                    "time": 23.767622999999997,
                    "velocity": 0.5196850393700787,
                    "duration": 0.48015399999999886
                },
                {
                    "name": "D#5",
                    "midi": 75,
                    "time": 23.767622999999997,
                    "velocity": 0.5196850393700787,
                    "duration": 0.48015399999999886
                },
                {
                    "name": "A#4",
                    "midi": 70,
                    "time": 24.247776999999996,
                    "velocity": 0.3543307086614173,
                    "duration": 0.24007699999999943
                },
                {
                    "name": "D5",
                    "midi": 74,
                    "time": 24.247776999999996,
                    "velocity": 0.4251968503937008,
                    "duration": 0.06001924999999986
                },
                {
                    "name": "D#5",
                    "midi": 75,
                    "time": 24.307796249999996,
                    "velocity": 0.3937007874015748,
                    "duration": 0.06001924999999986
                },
                {
                    "name": "F5",
                    "midi": 77,
                    "time": 24.367815499999995,
                    "velocity": 0.3779527559055118,
                    "duration": 0.06001924999999986
                },
                {
                    "name": "F#5",
                    "midi": 78,
                    "time": 24.427834749999995,
                    "velocity": 0.36220472440944884,
                    "duration": 0.06001924999999986
                },
                {
                    "name": "A#4",
                    "midi": 70,
                    "time": 24.487853999999995,
                    "velocity": 0.3543307086614173,
                    "duration": 0.7202309999999983
                },
                {
                    "name": "F#5",
                    "midi": 78,
                    "time": 24.487853999999995,
                    "velocity": 0.3543307086614173,
                    "duration": 0.48015399999999886
                },
                {
                    "name": "D#5",
                    "midi": 75,
                    "time": 24.968007999999994,
                    "velocity": 0.2992125984251969,
                    "duration": 0.24007699999999943
                },
                {
                    "name": "A#4",
                    "midi": 70,
                    "time": 25.208084999999993,
                    "velocity": 0.3228346456692913,
                    "duration": 0.7202309999999983
                },
                {
                    "name": "F#4",
                    "midi": 66,
                    "time": 25.688238999999992,
                    "velocity": 0.2440944881889764,
                    "duration": 0.24007699999999943
                },
                {
                    "name": "G#3",
                    "midi": 56,
                    "time": 25.92831599999999,
                    "velocity": 0.2755905511811024,
                    "duration": 0.48015399999999886
                },
                {
                    "name": "E4",
                    "midi": 64,
                    "time": 25.92831599999999,
                    "velocity": 0.2755905511811024,
                    "duration": 0.5281693999999995
                },
                {
                    "name": "G3",
                    "midi": 55,
                    "time": 26.45648539999999,
                    "velocity": 0.2755905511811024,
                    "duration": 0.048015400000000596
                },
                {
                    "name": "G#3",
                    "midi": 56,
                    "time": 26.50450079999999,
                    "velocity": 0.29133858267716534,
                    "duration": 0.048015400000000596
                },
                {
                    "name": "A#3",
                    "midi": 58,
                    "time": 26.552516199999992,
                    "velocity": 0.30708661417322836,
                    "duration": 0.048015400000000596
                },
                {
                    "name": "B3",
                    "midi": 59,
                    "time": 26.600531599999993,
                    "velocity": 0.3228346456692913,
                    "duration": 0.048015400000000596
                },
                {
                    "name": "A#3",
                    "midi": 58,
                    "time": 26.648546999999994,
                    "velocity": 0.2755905511811024,
                    "duration": 0.48015399999999886
                },
                {
                    "name": "E4",
                    "midi": 64,
                    "time": 26.648546999999994,
                    "velocity": 0.2755905511811024,
                    "duration": 0.5281693999999995
                },
                {
                    "name": "D#4",
                    "midi": 63,
                    "time": 27.176716399999993,
                    "velocity": 0.2755905511811024,
                    "duration": 0.048015400000000596
                },
                {
                    "name": "E4",
                    "midi": 64,
                    "time": 27.224731799999994,
                    "velocity": 0.29133858267716534,
                    "duration": 0.048015400000000596
                },
                {
                    "name": "F#4",
                    "midi": 66,
                    "time": 27.272747199999994,
                    "velocity": 0.30708661417322836,
                    "duration": 0.048015400000000596
                },
                {
                    "name": "G#4",
                    "midi": 68,
                    "time": 27.320762599999995,
                    "velocity": 0.3228346456692913,
                    "duration": 0.048015400000000596
                },
                {
                    "name": "A#4",
                    "midi": 70,
                    "time": 27.368777999999995,
                    "velocity": 0.3543307086614173,
                    "duration": 1.4404619999999966
                },
                {
                    "name": "F#4",
                    "midi": 66,
                    "time": 27.368777999999995,
                    "velocity": 0.3543307086614173,
                    "duration": 0.48015399999999886
                },
                {
                    "name": "D#4",
                    "midi": 63,
                    "time": 27.848931999999994,
                    "velocity": 0.2440944881889764,
                    "duration": 0.24007699999999943
                },
                {
                    "name": "A#3",
                    "midi": 58,
                    "time": 28.089008999999994,
                    "velocity": 0.2677165354330709,
                    "duration": 0.48015399999999886
                },
                {
                    "name": "F#3",
                    "midi": 54,
                    "time": 28.569162999999993,
                    "velocity": 0.2047244094488189,
                    "duration": 0.24007699999999943
                },
                {
                    "name": "G#3",
                    "midi": 56,
                    "time": 28.809239999999992,
                    "velocity": 0.2755905511811024,
                    "duration": 0.48015399999999886
                },
                {
                    "name": "D#4",
                    "midi": 63,
                    "time": 28.809239999999992,
                    "velocity": 0.2755905511811024,
                    "duration": 0.5281693999999995
                },
                {
                    "name": "G3",
                    "midi": 55,
                    "time": 29.33740939999999,
                    "velocity": 0.2755905511811024,
                    "duration": 0.048015400000000596
                },
                {
                    "name": "G#3",
                    "midi": 56,
                    "time": 29.385424799999992,
                    "velocity": 0.29133858267716534,
                    "duration": 0.048015400000000596
                },
                {
                    "name": "A#3",
                    "midi": 58,
                    "time": 29.433440199999993,
                    "velocity": 0.30708661417322836,
                    "duration": 0.048015400000000596
                },
                {
                    "name": "B3",
                    "midi": 59,
                    "time": 29.481455599999993,
                    "velocity": 0.3228346456692913,
                    "duration": 0.048015400000000596
                },
                {
                    "name": "A#3",
                    "midi": 58,
                    "time": 29.529470999999994,
                    "velocity": 0.2047244094488189,
                    "duration": 0.48015399999999886
                },
                {
                    "name": "D4",
                    "midi": 62,
                    "time": 29.529470999999994,
                    "velocity": 0.3228346456692913,
                    "duration": 0.5281693999999995
                },
                {
                    "name": "C#4",
                    "midi": 61,
                    "time": 30.057640399999993,
                    "velocity": 0.2755905511811024,
                    "duration": 0.048015400000000596
                },
                {
                    "name": "D4",
                    "midi": 62,
                    "time": 30.105655799999994,
                    "velocity": 0.29133858267716534,
                    "duration": 0.048015400000000596
                },
                {
                    "name": "D#4",
                    "midi": 63,
                    "time": 30.153671199999994,
                    "velocity": 0.30708661417322836,
                    "duration": 0.048015400000000596
                },
                {
                    "name": "F4",
                    "midi": 65,
                    "time": 30.201686599999995,
                    "velocity": 0.3228346456692913,
                    "duration": 0.048015400000000596
                },
                {
                    "name": "F#4",
                    "midi": 66,
                    "time": 30.249701999999996,
                    "velocity": 0.3543307086614173,
                    "duration": 1.4404620000000001
                },
                {
                    "name": "D#4",
                    "midi": 63,
                    "time": 30.249701999999996,
                    "velocity": 0.3543307086614173,
                    "duration": 1.2003850000000007
                },
                {
                    "name": "A#3",
                    "midi": 58,
                    "time": 31.450086999999996,
                    "velocity": 0.2047244094488189,
                    "duration": 0.24007699999999943
                },
                {
                    "name": "A3",
                    "midi": 57,
                    "time": 31.690163999999996,
                    "velocity": 0.2047244094488189,
                    "duration": 2.880923999999993
                },
                {
                    "name": "D#4",
                    "midi": 63,
                    "time": 31.690163999999996,
                    "velocity": 0.2047244094488189,
                    "duration": 2.880923999999993
                },
                {
                    "name": "F4",
                    "midi": 65,
                    "time": 31.690163999999996,
                    "velocity": 0.25984251968503935,
                    "duration": 2.880923999999993
                },
                {
                    "name": "F3",
                    "midi": 53,
                    "time": 33.13062599999999,
                    "velocity": 0.2047244094488189,
                    "duration": 1.4404619999999966
                },
                {
                    "name": "A#3",
                    "midi": 58,
                    "time": 33.13062599999999,
                    "velocity": 0.2047244094488189,
                    "duration": 1.4404619999999966
                },
                {
                    "name": "F4",
                    "midi": 65,
                    "time": 33.13062599999999,
                    "velocity": 0.25984251968503935,
                    "duration": 1.4404619999999966
                },
                {
                    "name": "A3",
                    "midi": 57,
                    "time": 34.57108799999999,
                    "velocity": 0.2047244094488189,
                    "duration": 1.4404619999999966
                },
                {
                    "name": "D#4",
                    "midi": 63,
                    "time": 34.57108799999999,
                    "velocity": 0.2047244094488189,
                    "duration": 1.4404619999999966
                },
                {
                    "name": "F4",
                    "midi": 65,
                    "time": 34.57108799999999,
                    "velocity": 0.25984251968503935,
                    "duration": 1.4404619999999966
                },
                {
                    "name": "A#3",
                    "midi": 58,
                    "time": 36.011549999999986,
                    "velocity": 0.2047244094488189,
                    "duration": 2.880923999999993
                },
                {
                    "name": "F3",
                    "midi": 53,
                    "time": 36.011549999999986,
                    "velocity": 0.2047244094488189,
                    "duration": 1.4404619999999966
                },
                {
                    "name": "F4",
                    "midi": 65,
                    "time": 36.011549999999986,
                    "velocity": 0.25984251968503935,
                    "duration": 1.4404619999999966
                },
                {
                    "name": "A#4",
                    "midi": 70,
                    "time": 37.45201199999998,
                    "velocity": 0.31496062992125984,
                    "duration": 1.2003849999999971
                },
                {
                    "name": "A#3",
                    "midi": 58,
                    "time": 38.65239699999998,
                    "velocity": 0.23622047244094488,
                    "duration": 0.9603079999999977
                },
                {
                    "name": "A#4",
                    "midi": 70,
                    "time": 38.89247399999998,
                    "velocity": 0.3779527559055118,
                    "duration": 0.36011549999999914
                },
                {
                    "name": "A#4",
                    "midi": 70,
                    "time": 39.25258949999998,
                    "velocity": 0.3937007874015748,
                    "duration": 0.12003849999999971
                },
                {
                    "name": "A#4",
                    "midi": 70,
                    "time": 39.37262799999998,
                    "velocity": 0.4409448818897638,
                    "duration": 0.21006737500000128
                },
                {
                    "name": "A#4",
                    "midi": 70,
                    "time": 39.55268574999998,
                    "velocity": 0.4094488188976378,
                    "duration": 0.060019249999996305
                },
                {
                    "name": "C5",
                    "midi": 72,
                    "time": 39.58269537499998,
                    "velocity": 0.4251968503937008,
                    "duration": 0.030009624999998152
                },
                {
                    "name": "D4",
                    "midi": 62,
                    "time": 39.61270499999998,
                    "velocity": 0.3858267716535433,
                    "duration": 0.36011549999999914
                },
                {
                    "name": "D5",
                    "midi": 74,
                    "time": 39.61270499999998,
                    "velocity": 0.4409448818897638,
                    "duration": 0.36011549999999914
                },
                {
                    "name": "C4",
                    "midi": 60,
                    "time": 39.972820499999976,
                    "velocity": 0.29133858267716534,
                    "duration": 0.12003849999999971
                },
                {
                    "name": "C5",
                    "midi": 72,
                    "time": 39.972820499999976,
                    "velocity": 0.3464566929133858,
                    "duration": 0.12003849999999971
                },
                {
                    "name": "A#3",
                    "midi": 58,
                    "time": 40.092858999999976,
                    "velocity": 0.25984251968503935,
                    "duration": 0.24007699999999943
                },
                {
                    "name": "A#4",
                    "midi": 70,
                    "time": 40.092858999999976,
                    "velocity": 0.30708661417322836,
                    "duration": 0.24007699999999943
                },
                {
                    "name": "A#4",
                    "midi": 70,
                    "time": 40.332935999999975,
                    "velocity": 0.31496062992125984,
                    "duration": 1.2003849999999971
                },
                {
                    "name": "A#3",
                    "midi": 58,
                    "time": 41.53332099999997,
                    "velocity": 0.23622047244094488,
                    "duration": 0.9603079999999977
                },
                {
                    "name": "A#4",
                    "midi": 70,
                    "time": 41.77339799999997,
                    "velocity": 0.3858267716535433,
                    "duration": 0.36011549999999914
                },
                {
                    "name": "A#4",
                    "midi": 70,
                    "time": 42.13351349999997,
                    "velocity": 0.3937007874015748,
                    "duration": 0.12003849999999971
                },
                {
                    "name": "A#4",
                    "midi": 70,
                    "time": 42.25355199999997,
                    "velocity": 0.4409448818897638,
                    "duration": 0.21006737500000128
                },
                {
                    "name": "A#4",
                    "midi": 70,
                    "time": 42.433609749999974,
                    "velocity": 0.4094488188976378,
                    "duration": 0.060019249999996305
                },
                {
                    "name": "C5",
                    "midi": 72,
                    "time": 42.46361937499997,
                    "velocity": 0.4251968503937008,
                    "duration": 0.030009624999998152
                },
                {
                    "name": "D4",
                    "midi": 62,
                    "time": 42.49362899999997,
                    "velocity": 0.3779527559055118,
                    "duration": 0.36011549999999914
                },
                {
                    "name": "D5",
                    "midi": 74,
                    "time": 42.49362899999997,
                    "velocity": 0.4409448818897638,
                    "duration": 0.36011549999999914
                },
                {
                    "name": "C4",
                    "midi": 60,
                    "time": 42.85374449999997,
                    "velocity": 0.33858267716535434,
                    "duration": 0.12003849999999971
                },
                {
                    "name": "C5",
                    "midi": 72,
                    "time": 42.85374449999997,
                    "velocity": 0.4015748031496063,
                    "duration": 0.12003849999999971
                },
                {
                    "name": "A#3",
                    "midi": 58,
                    "time": 42.97378299999997,
                    "velocity": 0.33070866141732286,
                    "duration": 0.24007699999999943
                },
                {
                    "name": "A#4",
                    "midi": 70,
                    "time": 42.97378299999997,
                    "velocity": 0.3937007874015748,
                    "duration": 0.24007699999999943
                },
                {
                    "name": "D#5",
                    "midi": 75,
                    "time": 43.21385999999997,
                    "velocity": 0.5118110236220472,
                    "duration": 0.36011549999999914
                },
                {
                    "name": "D#4",
                    "midi": 63,
                    "time": 43.21385999999997,
                    "velocity": 0.4330708661417323,
                    "duration": 0.36011549999999914
                },
                {
                    "name": "F5",
                    "midi": 77,
                    "time": 43.57397549999997,
                    "velocity": 0.3779527559055118,
                    "duration": 0.12003849999999971
                },
                {
                    "name": "F4",
                    "midi": 65,
                    "time": 43.57397549999997,
                    "velocity": 0.31496062992125984,
                    "duration": 0.12003849999999971
                },
                {
                    "name": "D#5",
                    "midi": 75,
                    "time": 43.69401399999997,
                    "velocity": 0.4566929133858268,
                    "duration": 0.15004812499999787
                },
                {
                    "name": "D#4",
                    "midi": 63,
                    "time": 43.69401399999997,
                    "velocity": 0.3858267716535433,
                    "duration": 0.15004812499999787
                },
                {
                    "name": "F4",
                    "midi": 65,
                    "time": 43.844062124999965,
                    "velocity": 0.3779527559055118,
                    "duration": 0.030009624999998152
                },
                {
                    "name": "F5",
                    "midi": 77,
                    "time": 43.844062124999965,
                    "velocity": 0.44881889763779526,
                    "duration": 0.030009624999998152
                },
                {
                    "name": "D#5",
                    "midi": 75,
                    "time": 43.87407174999996,
                    "velocity": 0.48031496062992124,
                    "duration": 0.060019249999996305
                },
                {
                    "name": "D#4",
                    "midi": 63,
                    "time": 43.87407174999996,
                    "velocity": 0.4015748031496063,
                    "duration": 0.030009624999998152
                },
                {
                    "name": "F5",
                    "midi": 77,
                    "time": 43.90408137499996,
                    "velocity": 0.5039370078740157,
                    "duration": 0.030009624999998152
                },
                {
                    "name": "F4",
                    "midi": 65,
                    "time": 43.90408137499996,
                    "velocity": 0.4251968503937008,
                    "duration": 0.030009624999998152
                },
                {
                    "name": "G5",
                    "midi": 79,
                    "time": 43.93409099999996,
                    "velocity": 0.5354330708661418,
                    "duration": 0.36011549999999914
                },
                {
                    "name": "G4",
                    "midi": 67,
                    "time": 43.93409099999996,
                    "velocity": 0.44881889763779526,
                    "duration": 0.36011549999999914
                },
                {
                    "name": "F5",
                    "midi": 77,
                    "time": 44.29420649999996,
                    "velocity": 0.4409448818897638,
                    "duration": 0.12003849999999971
                },
                {
                    "name": "F4",
                    "midi": 65,
                    "time": 44.29420649999996,
                    "velocity": 0.3700787401574803,
                    "duration": 0.12003849999999971
                },
                {
                    "name": "D#5",
                    "midi": 75,
                    "time": 44.41424499999996,
                    "velocity": 0.5118110236220472,
                    "duration": 0.24007699999999943
                },
                {
                    "name": "D#4",
                    "midi": 63,
                    "time": 44.41424499999996,
                    "velocity": 0.4330708661417323,
                    "duration": 0.24007699999999943
                },
                {
                    "name": "C4",
                    "midi": 60,
                    "time": 44.65432199999996,
                    "velocity": 0.4645669291338583,
                    "duration": 0.7202309999999983
                },
                {
                    "name": "D4",
                    "midi": 62,
                    "time": 44.65432199999996,
                    "velocity": 0.4645669291338583,
                    "duration": 0.7202309999999983
                },
                {
                    "name": "D5",
                    "midi": 74,
                    "time": 44.65432199999996,
                    "velocity": 0.5511811023622047,
                    "duration": 0.7202309999999983
                },
                {
                    "name": "F4",
                    "midi": 65,
                    "time": 45.374552999999956,
                    "velocity": 0.2755905511811024,
                    "duration": 0.7202309999999983
                },
                {
                    "name": "D5",
                    "midi": 74,
                    "time": 45.374552999999956,
                    "velocity": 0.3543307086614173,
                    "duration": 0.7202309999999983
                },
                {
                    "name": "G4",
                    "midi": 67,
                    "time": 45.374552999999956,
                    "velocity": 0.3937007874015748,
                    "duration": 0.48015399999999886
                },
                {
                    "name": "G4",
                    "midi": 67,
                    "time": 45.854706999999955,
                    "velocity": 0.33070866141732286,
                    "duration": 0.24007699999999943
                },
                {
                    "name": "D#4",
                    "midi": 63,
                    "time": 46.094783999999954,
                    "velocity": 0.3228346456692913,
                    "duration": 1.4404619999999966
                },
                {
                    "name": "C5",
                    "midi": 72,
                    "time": 46.094783999999954,
                    "velocity": 0.33858267716535434,
                    "duration": 0.7202309999999983
                },
                {
                    "name": "G#4",
                    "midi": 68,
                    "time": 46.094783999999954,
                    "velocity": 0.41732283464566927,
                    "duration": 0.36011549999999914
                },
                {
                    "name": "G#4",
                    "midi": 68,
                    "time": 46.454899499999954,
                    "velocity": 0.30708661417322836,
                    "duration": 0.12003849999999971
                },
                {
                    "name": "G#4",
                    "midi": 68,
                    "time": 46.57493799999995,
                    "velocity": 0.3700787401574803,
                    "duration": 0.21006737500000128
                },
                {
                    "name": "G#4",
                    "midi": 68,
                    "time": 46.754995749999956,
                    "velocity": 0.29133858267716534,
                    "duration": 0.060019249999996305
                },
                {
                    "name": "A#4",
                    "midi": 70,
                    "time": 46.785005374999955,
                    "velocity": 0.2755905511811024,
                    "duration": 0.030009624999998152
                },
                {
                    "name": "C5",
                    "midi": 72,
                    "time": 46.81501499999995,
                    "velocity": 0.3779527559055118,
                    "duration": 0.36011549999999914
                },
                {
                    "name": "A#4",
                    "midi": 70,
                    "time": 47.17513049999995,
                    "velocity": 0.2755905511811024,
                    "duration": 0.12003849999999971
                },
                {
                    "name": "G#4",
                    "midi": 68,
                    "time": 47.29516899999995,
                    "velocity": 0.29133858267716534,
                    "duration": 0.24007699999999943
                },
                {
                    "name": "G4",
                    "midi": 67,
                    "time": 47.53524599999995,
                    "velocity": 0.29133858267716534,
                    "duration": 0.7202309999999983
                },
                {
                    "name": "F4",
                    "midi": 65,
                    "time": 47.53524599999995,
                    "velocity": 0.29133858267716534,
                    "duration": 0.7202309999999983
                },
                {
                    "name": "A#3",
                    "midi": 58,
                    "time": 48.25547699999995,
                    "velocity": 0.29133858267716534,
                    "duration": 0.7202309999999983
                },
                {
                    "name": "G4",
                    "midi": 67,
                    "time": 48.25547699999995,
                    "velocity": 0.29133858267716534,
                    "duration": 0.7202309999999983
                },
                {
                    "name": "D4",
                    "midi": 62,
                    "time": 48.73563099999995,
                    "velocity": 0.3228346456692913,
                    "duration": 0.24007699999999943
                },
                {
                    "name": "F4",
                    "midi": 65,
                    "time": 48.97570799999995,
                    "velocity": 0.29133858267716534,
                    "duration": 0.7202309999999983
                },
                {
                    "name": "C4",
                    "midi": 60,
                    "time": 48.97570799999995,
                    "velocity": 0.3937007874015748,
                    "duration": 0.48015399999999886
                },
                {
                    "name": "D4",
                    "midi": 62,
                    "time": 49.45586199999995,
                    "velocity": 0.3464566929133858,
                    "duration": 0.18005775000000313
                },
                {
                    "name": "C4",
                    "midi": 60,
                    "time": 49.63591974999995,
                    "velocity": 0.33858267716535434,
                    "duration": 0.030009624999998152
                },
                {
                    "name": "D4",
                    "midi": 62,
                    "time": 49.66592937499995,
                    "velocity": 0.33858267716535434,
                    "duration": 0.030009624999998152
                },
                {
                    "name": "D#4",
                    "midi": 63,
                    "time": 49.695938999999946,
                    "velocity": 0.3937007874015748,
                    "duration": 0.36011549999999914
                },
                {
                    "name": "D4",
                    "midi": 62,
                    "time": 50.056054499999945,
                    "velocity": 0.29133858267716534,
                    "duration": 0.12003849999999971
                },
                {
                    "name": "F4",
                    "midi": 65,
                    "time": 50.176092999999945,
                    "velocity": 0.3464566929133858,
                    "duration": 1.680538999999996
                },
                {
                    "name": "C4",
                    "midi": 60,
                    "time": 50.176092999999945,
                    "velocity": 0.33070866141732286,
                    "duration": 0.24007699999999943
                },
                {
                    "name": "A#3",
                    "midi": 58,
                    "time": 50.416169999999944,
                    "velocity": 0.3543307086614173,
                    "duration": 0.7202309999999983
                },
                {
                    "name": "F3",
                    "midi": 53,
                    "time": 51.13640099999994,
                    "velocity": 0.25984251968503935,
                    "duration": 0.48015399999999886
                },
                {
                    "name": "D4",
                    "midi": 62,
                    "time": 51.61655499999994,
                    "velocity": 0.33858267716535434,
                    "duration": 0.24007699999999943
                },
                {
                    "name": "F4",
                    "midi": 65,
                    "time": 51.85663199999994,
                    "velocity": 0.29133858267716534,
                    "duration": 1.2003849999999971
                },
                {
                    "name": "C4",
                    "midi": 60,
                    "time": 51.85663199999994,
                    "velocity": 0.3937007874015748,
                    "duration": 0.36011549999999914
                },
                {
                    "name": "D4",
                    "midi": 62,
                    "time": 52.21674749999994,
                    "velocity": 0.2755905511811024,
                    "duration": 0.12003849999999971
                },
                {
                    "name": "C4",
                    "midi": 60,
                    "time": 52.33678599999994,
                    "velocity": 0.3464566929133858,
                    "duration": 0.18005775000000313
                },
                {
                    "name": "D4",
                    "midi": 62,
                    "time": 52.54685337499994,
                    "velocity": 0.33858267716535434,
                    "duration": 0.030009624999998152
                },
                {
                    "name": "D#4",
                    "midi": 63,
                    "time": 52.57686299999994,
                    "velocity": 0.3937007874015748,
                    "duration": 0.36011549999999914
                },
                {
                    "name": "D4",
                    "midi": 62,
                    "time": 52.93697849999994,
                    "velocity": 0.29133858267716534,
                    "duration": 0.12003849999999971
                },
                {
                    "name": "F4",
                    "midi": 65,
                    "time": 53.05701699999994,
                    "velocity": 0.3464566929133858,
                    "duration": 0.7202309999999983
                },
                {
                    "name": "C4",
                    "midi": 60,
                    "time": 53.05701699999994,
                    "velocity": 0.33070866141732286,
                    "duration": 0.6001924999999986
                },
                {
                    "name": "A#3",
                    "midi": 58,
                    "time": 53.65720949999994,
                    "velocity": 0.29133858267716534,
                    "duration": 0.12003849999999971
                },
                {
                    "name": "F4",
                    "midi": 65,
                    "time": 53.777247999999936,
                    "velocity": 0.33070866141732286,
                    "duration": 0.24007699999999943
                },
                {
                    "name": "D4",
                    "midi": 62,
                    "time": 53.777247999999936,
                    "velocity": 0.29133858267716534,
                    "duration": 0.24007699999999943
                },
                {
                    "name": "F4",
                    "midi": 65,
                    "time": 54.017324999999936,
                    "velocity": 0.3937007874015748,
                    "duration": 0.36011549999999914
                },
                {
                    "name": "C4",
                    "midi": 60,
                    "time": 54.377440499999935,
                    "velocity": 0.2440944881889764,
                    "duration": 0.12003849999999971
                },
                {
                    "name": "G4",
                    "midi": 67,
                    "time": 54.377440499999935,
                    "velocity": 0.3858267716535433,
                    "duration": 0.12003849999999971
                },
                {
                    "name": "D#4",
                    "midi": 63,
                    "time": 54.497478999999935,
                    "velocity": 0.29133858267716534,
                    "duration": 0.24007699999999943
                },
                {
                    "name": "A4",
                    "midi": 69,
                    "time": 54.497478999999935,
                    "velocity": 0.4094488188976378,
                    "duration": 0.24007699999999943
                },
                {
                    "name": "A#4",
                    "midi": 70,
                    "time": 54.737555999999934,
                    "velocity": 0.4566929133858268,
                    "duration": 0.48015399999999886
                },
                {
                    "name": "A#3",
                    "midi": 58,
                    "time": 55.09767149999993,
                    "velocity": 0.29133858267716534,
                    "duration": 0.12003849999999971
                },
                {
                    "name": "D4",
                    "midi": 62,
                    "time": 55.21770999999993,
                    "velocity": 0.29133858267716534,
                    "duration": 0.24007699999999943
                },
                {
                    "name": "F4",
                    "midi": 65,
                    "time": 55.21770999999993,
                    "velocity": 0.3464566929133858,
                    "duration": 0.24007699999999943
                },
                {
                    "name": "G#3",
                    "midi": 56,
                    "time": 55.45778699999993,
                    "velocity": 0.4330708661417323,
                    "duration": 0.36011549999999914
                },
                {
                    "name": "G3",
                    "midi": 55,
                    "time": 55.81790249999993,
                    "velocity": 0.33070866141732286,
                    "duration": 0.36011549999999914
                },
                {
                    "name": "G4",
                    "midi": 67,
                    "time": 55.93794099999993,
                    "velocity": 0.3858267716535433,
                    "duration": 0.7202309999999983
                },
                {
                    "name": "D4",
                    "midi": 62,
                    "time": 55.93794099999993,
                    "velocity": 0.36220472440944884,
                    "duration": 0.24007699999999943
                },
                {
                    "name": "C4",
                    "midi": 60,
                    "time": 56.53813349999993,
                    "velocity": 0.33858267716535434,
                    "duration": 0.12003849999999971
                },
                {
                    "name": "G4",
                    "midi": 67,
                    "time": 56.65817199999993,
                    "velocity": 0.3858267716535433,
                    "duration": 0.24007699999999943
                },
                {
                    "name": "D#4",
                    "midi": 63,
                    "time": 56.65817199999993,
                    "velocity": 0.33070866141732286,
                    "duration": 0.24007699999999943
                },
                {
                    "name": "G4",
                    "midi": 67,
                    "time": 56.89824899999993,
                    "velocity": 0.4330708661417323,
                    "duration": 0.36011549999999914
                },
                {
                    "name": "D4",
                    "midi": 62,
                    "time": 57.25836449999993,
                    "velocity": 0.2440944881889764,
                    "duration": 0.12003849999999971
                },
                {
                    "name": "A4",
                    "midi": 69,
                    "time": 57.25836449999993,
                    "velocity": 0.4094488188976378,
                    "duration": 0.12003849999999971
                },
                {
                    "name": "F4",
                    "midi": 65,
                    "time": 57.37840299999993,
                    "velocity": 0.29133858267716534,
                    "duration": 0.24007699999999943
                },
                {
                    "name": "B4",
                    "midi": 71,
                    "time": 57.37840299999993,
                    "velocity": 0.4330708661417323,
                    "duration": 0.24007699999999943
                },
                {
                    "name": "C5",
                    "midi": 72,
                    "time": 57.61847999999993,
                    "velocity": 0.4566929133858268,
                    "duration": 0.48015399999999886
                },
                {
                    "name": "C4",
                    "midi": 60,
                    "time": 57.978595499999926,
                    "velocity": 0.29133858267716534,
                    "duration": 0.12003849999999971
                },
                {
                    "name": "D#4",
                    "midi": 63,
                    "time": 58.098633999999926,
                    "velocity": 0.29133858267716534,
                    "duration": 0.24007699999999943
                },
                {
                    "name": "G4",
                    "midi": 67,
                    "time": 58.098633999999926,
                    "velocity": 0.3464566929133858,
                    "duration": 0.24007699999999943
                },
                {
                    "name": "A#3",
                    "midi": 58,
                    "time": 58.338710999999925,
                    "velocity": 0.3937007874015748,
                    "duration": 0.36011549999999914
                },
                {
                    "name": "A3",
                    "midi": 57,
                    "time": 58.698826499999925,
                    "velocity": 0.29133858267716534,
                    "duration": 0.36011549999999914
                },
                {
                    "name": "A4",
                    "midi": 69,
                    "time": 58.818864999999924,
                    "velocity": 0.3464566929133858,
                    "duration": 0.24007699999999943
                },
                {
                    "name": "E4",
                    "midi": 64,
                    "time": 58.818864999999924,
                    "velocity": 0.3464566929133858,
                    "duration": 0.24007699999999943
                },
                {
                    "name": "A4",
                    "midi": 69,
                    "time": 59.058941999999924,
                    "velocity": 0.44881889763779526,
                    "duration": 0.48015399999999886
                },
                {
                    "name": "D4",
                    "midi": 62,
                    "time": 59.41905749999992,
                    "velocity": 0.29133858267716534,
                    "duration": 0.12003849999999971
                },
                {
                    "name": "F4",
                    "midi": 65,
                    "time": 59.53909599999992,
                    "velocity": 0.29133858267716534,
                    "duration": 0.24007699999999943
                },
                {
                    "name": "A4",
                    "midi": 69,
                    "time": 59.53909599999992,
                    "velocity": 0.3779527559055118,
                    "duration": 0.24007699999999943
                },
                {
                    "name": "A4",
                    "midi": 69,
                    "time": 59.77917299999992,
                    "velocity": 0.4330708661417323,
                    "duration": 0.36011549999999914
                },
                {
                    "name": "B4",
                    "midi": 71,
                    "time": 60.13928849999992,
                    "velocity": 0.41732283464566927,
                    "duration": 0.12003849999999971
                },
                {
                    "name": "C#4",
                    "midi": 61,
                    "time": 60.13928849999992,
                    "velocity": 0.29133858267716534,
                    "duration": 0.12003849999999971
                },
                {
                    "name": "C#5",
                    "midi": 73,
                    "time": 60.25932699999992,
                    "velocity": 0.4094488188976378,
                    "duration": 0.24007699999999943
                },
                {
                    "name": "E4",
                    "midi": 64,
                    "time": 60.25932699999992,
                    "velocity": 0.3464566929133858,
                    "duration": 0.24007699999999943
                },
                {
                    "name": "D5",
                    "midi": 74,
                    "time": 60.49940399999992,
                    "velocity": 0.49606299212598426,
                    "duration": 1.0803464999999974
                },
                {
                    "name": "D4",
                    "midi": 62,
                    "time": 60.85951949999992,
                    "velocity": 0.29133858267716534,
                    "duration": 0.12003849999999971
                },
                {
                    "name": "F4",
                    "midi": 65,
                    "time": 60.97955799999992,
                    "velocity": 0.3464566929133858,
                    "duration": 0.24007699999999943
                },
                {
                    "name": "D#4",
                    "midi": 63,
                    "time": 61.21963499999992,
                    "velocity": 0.4251968503937008,
                    "duration": 0.36011549999999914
                },
                {
                    "name": "C5",
                    "midi": 72,
                    "time": 61.57975049999992,
                    "velocity": 0.4251968503937008,
                    "duration": 0.7202309999999983
                },
                {
                    "name": "D4",
                    "midi": 62,
                    "time": 61.93986599999992,
                    "velocity": 0.4251968503937008,
                    "duration": 0.36011549999999914
                },
                {
                    "name": "A#4",
                    "midi": 70,
                    "time": 62.299981499999916,
                    "velocity": 0.4094488188976378,
                    "duration": 0.7202309999999983
                },
                {
                    "name": "C4",
                    "midi": 60,
                    "time": 62.660096999999915,
                    "velocity": 0.4566929133858268,
                    "duration": 0.36011549999999914
                },
                {
                    "name": "A4",
                    "midi": 69,
                    "time": 63.020212499999914,
                    "velocity": 0.4094488188976378,
                    "duration": 0.36011549999999914
                },
                {
                    "name": "G4",
                    "midi": 67,
                    "time": 63.38032799999991,
                    "velocity": 0.47244094488188976,
                    "duration": 0.36011549999999914
                },
                {
                    "name": "A4",
                    "midi": 69,
                    "time": 63.74044349999991,
                    "velocity": 0.4015748031496063,
                    "duration": 0.12003849999999971
                },
                {
                    "name": "A#4",
                    "midi": 70,
                    "time": 63.86048199999991,
                    "velocity": 0.47244094488188976,
                    "duration": 0.18005774999999602
                },
                {
                    "name": "A#4",
                    "midi": 70,
                    "time": 64.04053974999991,
                    "velocity": 0.47244094488188976,
                    "duration": 0.060019249999996305
                },
                {
                    "name": "D5",
                    "midi": 74,
                    "time": 64.1005589999999,
                    "velocity": 0.5354330708661418,
                    "duration": 0.36011550000000625
                },
                {
                    "name": "C5",
                    "midi": 72,
                    "time": 64.46067449999991,
                    "velocity": 0.49606299212598426,
                    "duration": 0.12003850000000682
                },
                {
                    "name": "F4",
                    "midi": 65,
                    "time": 64.58071299999992,
                    "velocity": 0.5433070866141733,
                    "duration": 0.6001925000000057
                },
                {
                    "name": "F5",
                    "midi": 77,
                    "time": 64.82078999999992,
                    "velocity": 0.5039370078740157,
                    "duration": 0.24007699999999943
                },
                {
                    "name": "A3",
                    "midi": 57,
                    "time": 65.18090549999992,
                    "velocity": 0.23622047244094488,
                    "duration": 0.12003850000000682
                },
                {
                    "name": "D#4",
                    "midi": 63,
                    "time": 65.18090549999992,
                    "velocity": 0.29133858267716534,
                    "duration": 0.12003850000000682
                },
                {
                    "name": "F4",
                    "midi": 65,
                    "time": 65.30094399999993,
                    "velocity": 0.33070866141732286,
                    "duration": 0.12003850000000682
                },
                {
                    "name": "F4",
                    "midi": 65,
                    "time": 65.54102099999994,
                    "velocity": 0.3937007874015748,
                    "duration": 0.36011550000000625
                },
                {
                    "name": "C4",
                    "midi": 60,
                    "time": 65.90113649999995,
                    "velocity": 0.2440944881889764,
                    "duration": 0.060019249999996305
                },
                {
                    "name": "G4",
                    "midi": 67,
                    "time": 65.90113649999995,
                    "velocity": 0.3858267716535433,
                    "duration": 0.060019249999996305
                },
                {
                    "name": "A4",
                    "midi": 69,
                    "time": 66.02117499999994,
                    "velocity": 0.4094488188976378,
                    "duration": 0.12003850000000682
                },
                {
                    "name": "A4",
                    "midi": 69,
                    "time": 66.26125199999996,
                    "velocity": 0.4251968503937008,
                    "duration": 0.24007699999999943
                },
                {
                    "name": "A#3",
                    "midi": 58,
                    "time": 66.62136749999996,
                    "velocity": 0.29133858267716534,
                    "duration": 0.12003850000000682
                },
                {
                    "name": "F4",
                    "midi": 65,
                    "time": 66.62136749999996,
                    "velocity": 0.29133858267716534,
                    "duration": 0.12003850000000682
                },
                {
                    "name": "A#4",
                    "midi": 70,
                    "time": 66.74140599999997,
                    "velocity": 0.33070866141732286,
                    "duration": 0.6001925000000057
                },
                {
                    "name": "G#3",
                    "midi": 56,
                    "time": 67.34159849999998,
                    "velocity": 0.2440944881889764,
                    "duration": 0.060019249999996305
                },
                {
                    "name": "F4",
                    "midi": 65,
                    "time": 67.34159849999998,
                    "velocity": 0.3858267716535433,
                    "duration": 0.060019249999996305
                },
                {
                    "name": "G#4",
                    "midi": 68,
                    "time": 67.46163699999997,
                    "velocity": 0.4094488188976378,
                    "duration": 0.12003850000000682
                },
                {
                    "name": "G4",
                    "midi": 67,
                    "time": 67.70171399999998,
                    "velocity": 0.47244094488188976,
                    "duration": 0.24007699999999943
                },
                {
                    "name": "G3",
                    "midi": 55,
                    "time": 68.06182949999999,
                    "velocity": 0.30708661417322836,
                    "duration": 0.12003850000000682
                },
                {
                    "name": "F4",
                    "midi": 65,
                    "time": 68.06182949999999,
                    "velocity": 0.3700787401574803,
                    "duration": 0.12003850000000682
                },
                {
                    "name": "G4",
                    "midi": 67,
                    "time": 68.181868,
                    "velocity": 0.4251968503937008,
                    "duration": 0.12003850000000682
                },
                {
                    "name": "G4",
                    "midi": 67,
                    "time": 68.42194500000001,
                    "velocity": 0.48031496062992124,
                    "duration": 0.36011550000000625
                },
                {
                    "name": "B3",
                    "midi": 59,
                    "time": 68.78206050000001,
                    "velocity": 0.2283464566929134,
                    "duration": 0.060019249999996305
                },
                {
                    "name": "A4",
                    "midi": 69,
                    "time": 68.78206050000001,
                    "velocity": 0.4409448818897638,
                    "duration": 0.060019249999996305
                },
                {
                    "name": "B4",
                    "midi": 71,
                    "time": 68.902099,
                    "velocity": 0.4645669291338583,
                    "duration": 0.12003850000000682
                },
                {
                    "name": "B4",
                    "midi": 71,
                    "time": 69.14217600000002,
                    "velocity": 0.5118110236220472,
                    "duration": 0.36011550000000625
                },
                {
                    "name": "C4",
                    "midi": 60,
                    "time": 69.50229150000003,
                    "velocity": 0.33858267716535434,
                    "duration": 0.12003850000000682
                },
                {
                    "name": "G4",
                    "midi": 67,
                    "time": 69.50229150000003,
                    "velocity": 0.4015748031496063,
                    "duration": 0.12003850000000682
                },
                {
                    "name": "C5",
                    "midi": 72,
                    "time": 69.62233000000003,
                    "velocity": 0.4566929133858268,
                    "duration": 0.6001925000000057
                },
                {
                    "name": "A#3",
                    "midi": 58,
                    "time": 70.22252250000004,
                    "velocity": 0.3779527559055118,
                    "duration": 0.060019249999996305
                },
                {
                    "name": "G4",
                    "midi": 67,
                    "time": 70.22252250000004,
                    "velocity": 0.44881889763779526,
                    "duration": 0.060019249999996305
                },
                {
                    "name": "A#4",
                    "midi": 70,
                    "time": 70.34256100000003,
                    "velocity": 0.49606299212598426,
                    "duration": 0.6001925000000057
                },
                {
                    "name": "A3",
                    "midi": 57,
                    "time": 70.94275350000004,
                    "velocity": 0.30708661417322836,
                    "duration": 0.12003850000000682
                },
                {
                    "name": "G4",
                    "midi": 67,
                    "time": 70.94275350000004,
                    "velocity": 0.36220472440944884,
                    "duration": 0.12003850000000682
                },
                {
                    "name": "A4",
                    "midi": 69,
                    "time": 71.06279200000004,
                    "velocity": 0.4645669291338583,
                    "duration": 0.12003850000000682
                },
                {
                    "name": "A4",
                    "midi": 69,
                    "time": 71.30286900000006,
                    "velocity": 0.5196850393700787,
                    "duration": 0.36011550000000625
                },
                {
                    "name": "C#4",
                    "midi": 61,
                    "time": 71.66298450000006,
                    "velocity": 0.4330708661417323,
                    "duration": 0.060019249999996305
                },
                {
                    "name": "B4",
                    "midi": 71,
                    "time": 71.66298450000006,
                    "velocity": 0.5118110236220472,
                    "duration": 0.060019249999996305
                },
                {
                    "name": "C#5",
                    "midi": 73,
                    "time": 71.78302300000006,
                    "velocity": 0.5590551181102362,
                    "duration": 0.12003850000000682
                },
                {
                    "name": "D5",
                    "midi": 74,
                    "time": 72.02310000000007,
                    "velocity": 0.6299212598425197,
                    "duration": 1.0803465000000188
                },
                {
                    "name": "D4",
                    "midi": 62,
                    "time": 72.38321550000008,
                    "velocity": 0.4251968503937008,
                    "duration": 0.12003850000000682
                },
                {
                    "name": "A4",
                    "midi": 69,
                    "time": 72.50325400000008,
                    "velocity": 0.48031496062992124,
                    "duration": 0.24007699999999943
                },
                {
                    "name": "D#4",
                    "midi": 63,
                    "time": 72.74333100000008,
                    "velocity": 0.4645669291338583,
                    "duration": 0.36011550000000625
                },
                {
                    "name": "C5",
                    "midi": 72,
                    "time": 73.10344650000009,
                    "velocity": 0.5354330708661418,
                    "duration": 0.7202310000000125
                },
                {
                    "name": "D4",
                    "midi": 62,
                    "time": 73.4635620000001,
                    "velocity": 0.5511811023622047,
                    "duration": 0.36011550000000625
                },
                {
                    "name": "A#4",
                    "midi": 70,
                    "time": 73.8236775000001,
                    "velocity": 0.5196850393700787,
                    "duration": 0.7202310000000125
                },
                {
                    "name": "C4",
                    "midi": 60,
                    "time": 74.18379300000011,
                    "velocity": 0.5511811023622047,
                    "duration": 0.36011550000000625
                },
                {
                    "name": "A4",
                    "midi": 69,
                    "time": 74.54390850000011,
                    "velocity": 0.5118110236220472,
                    "duration": 0.36011550000000625
                },
                {
                    "name": "A#3",
                    "midi": 58,
                    "time": 74.90402400000012,
                    "velocity": 0.5511811023622047,
                    "duration": 0.36011550000000625
                },
                {
                    "name": "G4",
                    "midi": 67,
                    "time": 74.90402400000012,
                    "velocity": 0.5984251968503937,
                    "duration": 0.36011550000000625
                },
                {
                    "name": "A4",
                    "midi": 69,
                    "time": 75.26413950000013,
                    "velocity": 0.5039370078740157,
                    "duration": 0.12003850000000682
                },
                {
                    "name": "A#4",
                    "midi": 70,
                    "time": 75.38417800000013,
                    "velocity": 0.5433070866141733,
                    "duration": 0.18005775000000313
                },
                {
                    "name": "F4",
                    "midi": 65,
                    "time": 75.61325147083348,
                    "velocity": 0.5511811023622047,
                    "duration": 0.24007699999999943
                },
                {
                    "name": "D5",
                    "midi": 74,
                    "time": 75.62425500000015,
                    "velocity": 0.6535433070866141,
                    "duration": 0.36011549999999204
                },
                {
                    "name": "C5",
                    "midi": 72,
                    "time": 75.98437050000014,
                    "velocity": 0.5511811023622047,
                    "duration": 0.12003850000000682
                },
                {
                    "name": "F4",
                    "midi": 65,
                    "time": 76.10440900000015,
                    "velocity": 0.5433070866141733,
                    "duration": 0.24007699999998522
                },
                {
                    "name": "C4",
                    "midi": 60,
                    "time": 76.28446675000015,
                    "velocity": 0.4094488188976378,
                    "duration": 0.020006416666660698
                },
                {
                    "name": "D#4",
                    "midi": 63,
                    "time": 76.30447316666681,
                    "velocity": 0.4251968503937008,
                    "duration": 0.020006416666660698
                },
                {
                    "name": "F4",
                    "midi": 65,
                    "time": 76.32447958333347,
                    "velocity": 0.4566929133858268,
                    "duration": 2.9009304166666823
                },
                {
                    "name": "F5",
                    "midi": 77,
                    "time": 76.34448600000013,
                    "velocity": 0.5433070866141733,
                    "duration": 0.24007699999999943
                },
                {
                    "name": "C4",
                    "midi": 60,
                    "time": 76.34448600000013,
                    "velocity": 0.3937007874015748,
                    "duration": 0.48015399999999886
                },
                {
                    "name": "D4",
                    "midi": 62,
                    "time": 76.82464000000013,
                    "velocity": 0.3464566929133858,
                    "duration": 0.18005775000000313
                },
                {
                    "name": "C4",
                    "midi": 60,
                    "time": 77.00469775000013,
                    "velocity": 0.33858267716535434,
                    "duration": 0.030009625000005258
                },
                {
                    "name": "D4",
                    "midi": 62,
                    "time": 77.03470737500014,
                    "velocity": 0.33858267716535434,
                    "duration": 0.030009625000005258
                },
                {
                    "name": "D#4",
                    "midi": 63,
                    "time": 77.06471700000014,
                    "velocity": 0.3937007874015748,
                    "duration": 0.36011550000000625
                },
                {
                    "name": "D4",
                    "midi": 62,
                    "time": 77.42483250000015,
                    "velocity": 0.29133858267716534,
                    "duration": 0.12003850000000682
                },
                {
                    "name": "C4",
                    "midi": 60,
                    "time": 77.54487100000016,
                    "velocity": 0.33070866141732286,
                    "duration": 0.24007699999999943
                },
                {
                    "name": "A#3",
                    "midi": 58,
                    "time": 77.78494800000016,
                    "velocity": 0.3543307086614173,
                    "duration": 0.7202309999999983
                },
                {
                    "name": "F3",
                    "midi": 53,
                    "time": 78.50517900000015,
                    "velocity": 0.25984251968503935,
                    "duration": 0.48015399999999886
                },
                {
                    "name": "D4",
                    "midi": 62,
                    "time": 78.98533300000015,
                    "velocity": 0.33858267716535434,
                    "duration": 0.24007699999999943
                },
                {
                    "name": "F4",
                    "midi": 65,
                    "time": 79.22541000000015,
                    "velocity": 0.29133858267716534,
                    "duration": 2.8809240000000216
                },
                {
                    "name": "C4",
                    "midi": 60,
                    "time": 79.22541000000015,
                    "velocity": 0.3937007874015748,
                    "duration": 0.36011550000000625
                },
                {
                    "name": "D4",
                    "midi": 62,
                    "time": 79.58552550000016,
                    "velocity": 0.3464566929133858,
                    "duration": 0.12003850000000682
                },
                {
                    "name": "C4",
                    "midi": 60,
                    "time": 79.70556400000017,
                    "velocity": 0.3464566929133858,
                    "duration": 0.21006737499999417
                },
                {
                    "name": "D4",
                    "midi": 62,
                    "time": 79.91563137500016,
                    "velocity": 0.33858267716535434,
                    "duration": 0.030009625000005258
                },
                {
                    "name": "D#4",
                    "midi": 63,
                    "time": 79.94564100000017,
                    "velocity": 0.3937007874015748,
                    "duration": 0.36011550000000625
                },
                {
                    "name": "D4",
                    "midi": 62,
                    "time": 80.30575650000017,
                    "velocity": 0.29133858267716534,
                    "duration": 0.12003850000000682
                },
                {
                    "name": "C4",
                    "midi": 60,
                    "time": 80.42579500000018,
                    "velocity": 0.33070866141732286,
                    "duration": 0.24007699999999943
                },
                {
                    "name": "A#3",
                    "midi": 58,
                    "time": 80.66587200000018,
                    "velocity": 0.3543307086614173,
                    "duration": 2.880923999999993
                },
                {
                    "name": "A#4",
                    "midi": 70,
                    "time": 82.10633400000017,
                    "velocity": 0.31496062992125984,
                    "duration": 1.2003849999999971
                },
                {
                    "name": "A#3",
                    "midi": 58,
                    "time": 83.30671900000017,
                    "velocity": 0.23622047244094488,
                    "duration": 0.9603079999999977
                },
                {
                    "name": "A#4",
                    "midi": 70,
                    "time": 83.54679600000017,
                    "velocity": 0.3228346456692913,
                    "duration": 1.4404619999999966
                },
                {
                    "name": "A#3",
                    "midi": 58,
                    "time": 84.74718100000017,
                    "velocity": 0.2677165354330709,
                    "duration": 0.9603080000000261
                },
                {
                    "name": "D#4",
                    "midi": 63,
                    "time": 84.98725800000017,
                    "velocity": 0.33858267716535434,
                    "duration": 0.36011550000000625
                },
                {
                    "name": "D#4",
                    "midi": 63,
                    "time": 85.34737350000017,
                    "velocity": 0.25196850393700787,
                    "duration": 0.12003850000000682
                },
                {
                    "name": "D#4",
                    "midi": 63,
                    "time": 85.46741200000018,
                    "velocity": 0.2992125984251969,
                    "duration": 0.21006737500000838
                },
                {
                    "name": "D#4",
                    "midi": 63,
                    "time": 85.64746975000018,
                    "velocity": 0.23622047244094488,
                    "duration": 0.060019250000010516
                },
                {
                    "name": "F4",
                    "midi": 65,
                    "time": 85.67747937500019,
                    "velocity": 0.2204724409448819,
                    "duration": 0.030009625000005258
                },
                {
                    "name": "A3",
                    "midi": 57,
                    "time": 85.7074890000002,
                    "velocity": 0.25984251968503935,
                    "duration": 0.7202310000000125
                },
                {
                    "name": "F#4",
                    "midi": 66,
                    "time": 85.7074890000002,
                    "velocity": 0.30708661417322836,
                    "duration": 0.36011550000000625
                },
                {
                    "name": "F4",
                    "midi": 65,
                    "time": 86.0676045000002,
                    "velocity": 0.23622047244094488,
                    "duration": 0.12003850000000682
                },
                {
                    "name": "D#4",
                    "midi": 63,
                    "time": 86.18764300000021,
                    "velocity": 0.25984251968503935,
                    "duration": 0.24007699999999943
                },
                {
                    "name": "D4",
                    "midi": 62,
                    "time": 86.4277200000002,
                    "velocity": 0.25984251968503935,
                    "duration": 2.8809240000000074
                },
                {
                    "name": "A#3",
                    "midi": 58,
                    "time": 86.4277200000002,
                    "velocity": 0.25984251968503935,
                    "duration": 2.8809240000000074
                },
                {
                    "name": "F4",
                    "midi": 65,
                    "time": 86.54775850000021,
                    "velocity": 0.25984251968503935,
                    "duration": 1.320423500000004
                }
            ],
            "controlChanges": {
                "91": [
                    {
                        "number": 91,
                        "time": 0,
                        "value": 1
                    }
                ]
            },
            "id": 1,
            "name": "Piano right",
            "instrumentNumber": 0,
            "instrument": "acoustic grand piano",
            "instrumentFamily": "piano",
            "channelNumber": 0,
            "isPercussion": false
        },
        {
            "startTime": 2.82090475,
            "duration": 89.30864400000034,
            "length": 336,
            "notes": [
                {
                    "name": "F2",
                    "midi": 41,
                    "time": 2.82090475,
                    "velocity": 0.2677165354330709,
                    "duration": 2.940943249999999
                },
                {
                    "name": "D#3",
                    "midi": 51,
                    "time": 2.880924,
                    "velocity": 0.29133858267716534,
                    "duration": 1.4404619999999997
                },
                {
                    "name": "A3",
                    "midi": 57,
                    "time": 2.880924,
                    "velocity": 0.29133858267716534,
                    "duration": 1.4404619999999997
                },
                {
                    "name": "D3",
                    "midi": 50,
                    "time": 4.3213859999999995,
                    "velocity": 0.29133858267716534,
                    "duration": 1.4404619999999992
                },
                {
                    "name": "F2",
                    "midi": 41,
                    "time": 5.701828749999999,
                    "velocity": 0.2204724409448819,
                    "duration": 2.9409432499999983
                },
                {
                    "name": "D#3",
                    "midi": 51,
                    "time": 5.761847999999999,
                    "velocity": 0.29133858267716534,
                    "duration": 1.4404620000000001
                },
                {
                    "name": "A3",
                    "midi": 57,
                    "time": 5.761847999999999,
                    "velocity": 0.29133858267716534,
                    "duration": 1.4404620000000001
                },
                {
                    "name": "D3",
                    "midi": 50,
                    "time": 7.202309999999999,
                    "velocity": 0.29133858267716534,
                    "duration": 0.9603079999999995
                },
                {
                    "name": "A#2",
                    "midi": 46,
                    "time": 8.402694999999998,
                    "velocity": 0.2992125984251969,
                    "duration": 2.400769999999998
                },
                {
                    "name": "D#2",
                    "midi": 39,
                    "time": 8.582752749999997,
                    "velocity": 0.2755905511811024,
                    "duration": 0.06001924999999986
                },
                {
                    "name": "G3",
                    "midi": 55,
                    "time": 8.642771999999997,
                    "velocity": 0.3543307086614173,
                    "duration": 0.48015400000000064
                },
                {
                    "name": "G3",
                    "midi": 55,
                    "time": 9.122925999999998,
                    "velocity": 0.2992125984251969,
                    "duration": 0.24007699999999943
                },
                {
                    "name": "A#3",
                    "midi": 58,
                    "time": 9.363002999999997,
                    "velocity": 0.33070866141732286,
                    "duration": 0.36011549999999914
                },
                {
                    "name": "A3",
                    "midi": 57,
                    "time": 9.723118499999996,
                    "velocity": 0.29133858267716534,
                    "duration": 0.12003849999999971
                },
                {
                    "name": "G3",
                    "midi": 55,
                    "time": 9.843156999999996,
                    "velocity": 0.3228346456692913,
                    "duration": 0.24007699999999943
                },
                {
                    "name": "D2",
                    "midi": 38,
                    "time": 10.023214749999996,
                    "velocity": 0.25984251968503935,
                    "duration": 0.06001924999999986
                },
                {
                    "name": "F3",
                    "midi": 53,
                    "time": 10.083233999999996,
                    "velocity": 0.33070866141732286,
                    "duration": 0.7202310000000001
                },
                {
                    "name": "A#2",
                    "midi": 46,
                    "time": 10.796462754166662,
                    "velocity": 0.33070866141732286,
                    "duration": 0.2400770000000012
                },
                {
                    "name": "A#2",
                    "midi": 46,
                    "time": 11.283618999999996,
                    "velocity": 0.2125984251968504,
                    "duration": 0.24007699999999943
                },
                {
                    "name": "C2",
                    "midi": 36,
                    "time": 11.463676749999996,
                    "velocity": 0.2440944881889764,
                    "duration": 0.7802502499999981
                },
                {
                    "name": "D#3",
                    "midi": 51,
                    "time": 11.523695999999996,
                    "velocity": 0.2677165354330709,
                    "duration": 0.36011549999999914
                },
                {
                    "name": "D#3",
                    "midi": 51,
                    "time": 11.883811499999995,
                    "velocity": 0.1968503937007874,
                    "duration": 0.12003849999999971
                },
                {
                    "name": "D#3",
                    "midi": 51,
                    "time": 12.003849999999995,
                    "velocity": 0.23622047244094488,
                    "duration": 0.2100673749999995
                },
                {
                    "name": "D#3",
                    "midi": 51,
                    "time": 12.183907749999994,
                    "velocity": 0.1889763779527559,
                    "duration": 0.06001924999999986
                },
                {
                    "name": "F3",
                    "midi": 53,
                    "time": 12.213917374999994,
                    "velocity": 0.1732283464566929,
                    "duration": 0.03000962499999993
                },
                {
                    "name": "G3",
                    "midi": 55,
                    "time": 12.243926999999994,
                    "velocity": 0.2440944881889764,
                    "duration": 0.36011549999999914
                },
                {
                    "name": "F3",
                    "midi": 53,
                    "time": 12.604042499999993,
                    "velocity": 0.1889763779527559,
                    "duration": 0.12003849999999971
                },
                {
                    "name": "D#3",
                    "midi": 51,
                    "time": 12.724080999999993,
                    "velocity": 0.2047244094488189,
                    "duration": 0.24007699999999943
                },
                {
                    "name": "D2",
                    "midi": 38,
                    "time": 12.964157999999992,
                    "velocity": 0.18110236220472442,
                    "duration": 1.200384999999999
                },
                {
                    "name": "D3",
                    "midi": 50,
                    "time": 12.964157999999992,
                    "velocity": 0.2047244094488189,
                    "duration": 1.200384999999999
                },
                {
                    "name": "A1",
                    "midi": 33,
                    "time": 14.164542999999991,
                    "velocity": 0.2125984251968504,
                    "duration": 0.24007699999999943
                },
                {
                    "name": "E3",
                    "midi": 52,
                    "time": 14.40461999999999,
                    "velocity": 0.1889763779527559,
                    "duration": 1.4404619999999984
                },
                {
                    "name": "A3",
                    "midi": 57,
                    "time": 14.40461999999999,
                    "velocity": 0.1889763779527559,
                    "duration": 1.920615999999999
                },
                {
                    "name": "D4",
                    "midi": 62,
                    "time": 14.40461999999999,
                    "velocity": 0.2125984251968504,
                    "duration": 0.7202310000000001
                },
                {
                    "name": "A1",
                    "midi": 33,
                    "time": 14.40461999999999,
                    "velocity": 0.2440944881889764,
                    "duration": 0.48015400000000064
                },
                {
                    "name": "A1",
                    "midi": 33,
                    "time": 14.884773999999991,
                    "velocity": 0.2125984251968504,
                    "duration": 0.24007699999999943
                },
                {
                    "name": "C#4",
                    "midi": 61,
                    "time": 15.12485099999999,
                    "velocity": 0.2125984251968504,
                    "duration": 0.7202309999999983
                },
                {
                    "name": "A1",
                    "midi": 33,
                    "time": 15.12485099999999,
                    "velocity": 0.25984251968503935,
                    "duration": 0.36011549999999914
                },
                {
                    "name": "A1",
                    "midi": 33,
                    "time": 15.48496649999999,
                    "velocity": 0.2125984251968504,
                    "duration": 0.12003849999999971
                },
                {
                    "name": "A1",
                    "midi": 33,
                    "time": 15.60500499999999,
                    "velocity": 0.2440944881889764,
                    "duration": 0.24007699999999943
                },
                {
                    "name": "F#3",
                    "midi": 54,
                    "time": 15.845081999999989,
                    "velocity": 0.1889763779527559,
                    "duration": 0.48015400000000064
                },
                {
                    "name": "D4",
                    "midi": 62,
                    "time": 15.845081999999989,
                    "velocity": 0.2125984251968504,
                    "duration": 0.48015400000000064
                },
                {
                    "name": "D1",
                    "midi": 26,
                    "time": 15.845081999999989,
                    "velocity": 0.2440944881889764,
                    "duration": 0.7202310000000001
                },
                {
                    "name": "G1",
                    "midi": 31,
                    "time": 16.56531299999999,
                    "velocity": 0.3779527559055118,
                    "duration": 0.48015399999999886
                },
                {
                    "name": "G2",
                    "midi": 43,
                    "time": 16.56531299999999,
                    "velocity": 0.3779527559055118,
                    "duration": 0.48015399999999886
                },
                {
                    "name": "G2",
                    "midi": 43,
                    "time": 17.045466999999988,
                    "velocity": 0.4409448818897638,
                    "duration": 0.24007699999999943
                },
                {
                    "name": "C2",
                    "midi": 36,
                    "time": 17.285543999999987,
                    "velocity": 0.3779527559055118,
                    "duration": 0.48015399999999886
                },
                {
                    "name": "C3",
                    "midi": 48,
                    "time": 17.285543999999987,
                    "velocity": 0.3779527559055118,
                    "duration": 0.5281693999999995
                },
                {
                    "name": "D3",
                    "midi": 50,
                    "time": 17.813713399999987,
                    "velocity": 0.3700787401574803,
                    "duration": 0.048015400000000596
                },
                {
                    "name": "D#3",
                    "midi": 51,
                    "time": 17.861728799999987,
                    "velocity": 0.3858267716535433,
                    "duration": 0.048015400000000596
                },
                {
                    "name": "F3",
                    "midi": 53,
                    "time": 17.909744199999988,
                    "velocity": 0.4015748031496063,
                    "duration": 0.048015400000000596
                },
                {
                    "name": "G3",
                    "midi": 55,
                    "time": 17.95775959999999,
                    "velocity": 0.41732283464566927,
                    "duration": 0.048015400000000596
                },
                {
                    "name": "G#3",
                    "midi": 56,
                    "time": 18.00577499999999,
                    "velocity": 0.4330708661417323,
                    "duration": 0.5281693999999995
                },
                {
                    "name": "G3",
                    "midi": 55,
                    "time": 18.53394439999999,
                    "velocity": 0.3937007874015748,
                    "duration": 0.048015400000000596
                },
                {
                    "name": "F3",
                    "midi": 53,
                    "time": 18.58195979999999,
                    "velocity": 0.4094488188976378,
                    "duration": 0.048015400000000596
                },
                {
                    "name": "D#3",
                    "midi": 51,
                    "time": 18.62997519999999,
                    "velocity": 0.4330708661417323,
                    "duration": 0.048015400000000596
                },
                {
                    "name": "D3",
                    "midi": 50,
                    "time": 18.67799059999999,
                    "velocity": 0.44881889763779526,
                    "duration": 0.048015400000000596
                },
                {
                    "name": "C2",
                    "midi": 36,
                    "time": 18.72600599999999,
                    "velocity": 0.49606299212598426,
                    "duration": 0.48015399999999886
                },
                {
                    "name": "C3",
                    "midi": 48,
                    "time": 18.72600599999999,
                    "velocity": 0.49606299212598426,
                    "duration": 0.48015399999999886
                },
                {
                    "name": "A#1",
                    "midi": 34,
                    "time": 19.44623699999999,
                    "velocity": 0.48031496062992124,
                    "duration": 0.48015399999999886
                },
                {
                    "name": "A#2",
                    "midi": 46,
                    "time": 19.44623699999999,
                    "velocity": 0.48031496062992124,
                    "duration": 0.48015399999999886
                },
                {
                    "name": "A#2",
                    "midi": 46,
                    "time": 20.118452599999987,
                    "velocity": 0.41732283464566927,
                    "duration": 0.048015400000000596
                },
                {
                    "name": "D#2",
                    "midi": 39,
                    "time": 20.166467999999988,
                    "velocity": 0.3779527559055118,
                    "duration": 0.48015399999999886
                },
                {
                    "name": "D#3",
                    "midi": 51,
                    "time": 20.166467999999988,
                    "velocity": 0.3779527559055118,
                    "duration": 0.5281693999999995
                },
                {
                    "name": "F#3",
                    "midi": 54,
                    "time": 20.694637399999987,
                    "velocity": 0.3700787401574803,
                    "duration": 0.048015400000000596
                },
                {
                    "name": "G3",
                    "midi": 55,
                    "time": 20.742652799999988,
                    "velocity": 0.3858267716535433,
                    "duration": 0.048015400000000596
                },
                {
                    "name": "A3",
                    "midi": 57,
                    "time": 20.79066819999999,
                    "velocity": 0.4015748031496063,
                    "duration": 0.048015400000000596
                },
                {
                    "name": "A#3",
                    "midi": 58,
                    "time": 20.83868359999999,
                    "velocity": 0.41732283464566927,
                    "duration": 0.048015400000000596
                },
                {
                    "name": "D3",
                    "midi": 50,
                    "time": 20.88669899999999,
                    "velocity": 0.4330708661417323,
                    "duration": 0.48015399999999886
                },
                {
                    "name": "C4",
                    "midi": 60,
                    "time": 20.88669899999999,
                    "velocity": 0.4330708661417323,
                    "duration": 0.5281693999999995
                },
                {
                    "name": "A#3",
                    "midi": 58,
                    "time": 21.41486839999999,
                    "velocity": 0.3937007874015748,
                    "duration": 0.048015400000000596
                },
                {
                    "name": "A3",
                    "midi": 57,
                    "time": 21.46288379999999,
                    "velocity": 0.4094488188976378,
                    "duration": 0.048015400000000596
                },
                {
                    "name": "G3",
                    "midi": 55,
                    "time": 21.51089919999999,
                    "velocity": 0.4330708661417323,
                    "duration": 0.048015400000000596
                },
                {
                    "name": "F#3",
                    "midi": 54,
                    "time": 21.55891459999999,
                    "velocity": 0.44881889763779526,
                    "duration": 0.048015400000000596
                },
                {
                    "name": "G2",
                    "midi": 43,
                    "time": 21.60692999999999,
                    "velocity": 0.49606299212598426,
                    "duration": 0.7202309999999983
                },
                {
                    "name": "G3",
                    "midi": 55,
                    "time": 21.60692999999999,
                    "velocity": 0.49606299212598426,
                    "duration": 0.7202309999999983
                },
                {
                    "name": "F#2",
                    "midi": 42,
                    "time": 22.32716099999999,
                    "velocity": 0.48031496062992124,
                    "duration": 0.7202309999999983
                },
                {
                    "name": "F#3",
                    "midi": 54,
                    "time": 22.32716099999999,
                    "velocity": 0.48031496062992124,
                    "duration": 0.7202309999999983
                },
                {
                    "name": "F2",
                    "midi": 41,
                    "time": 23.047391999999988,
                    "velocity": 0.48031496062992124,
                    "duration": 0.48015399999999886
                },
                {
                    "name": "F3",
                    "midi": 53,
                    "time": 23.047391999999988,
                    "velocity": 0.48031496062992124,
                    "duration": 0.48015399999999886
                },
                {
                    "name": "F#2",
                    "midi": 42,
                    "time": 23.767622999999986,
                    "velocity": 0.4409448818897638,
                    "duration": 0.7202309999999983
                },
                {
                    "name": "F#3",
                    "midi": 54,
                    "time": 23.767622999999986,
                    "velocity": 0.4409448818897638,
                    "duration": 1.920615999999999
                },
                {
                    "name": "D#2",
                    "midi": 39,
                    "time": 24.487853999999984,
                    "velocity": 0.2047244094488189,
                    "duration": 1.4404620000000001
                },
                {
                    "name": "F#3",
                    "midi": 54,
                    "time": 25.688238999999985,
                    "velocity": 0.1732283464566929,
                    "duration": 0.24007699999999943
                },
                {
                    "name": "C#2",
                    "midi": 37,
                    "time": 25.928315999999985,
                    "velocity": 0.23622047244094488,
                    "duration": 0.7202309999999983
                },
                {
                    "name": "F#2",
                    "midi": 42,
                    "time": 26.648546999999983,
                    "velocity": 0.23622047244094488,
                    "duration": 2.1606929999999984
                },
                {
                    "name": "F#1",
                    "midi": 30,
                    "time": 27.36877799999998,
                    "velocity": 0.2047244094488189,
                    "duration": 1.4404620000000001
                },
                {
                    "name": "F1",
                    "midi": 29,
                    "time": 28.80923999999998,
                    "velocity": 0.23622047244094488,
                    "duration": 0.7202309999999983
                },
                {
                    "name": "F2",
                    "midi": 41,
                    "time": 28.80923999999998,
                    "velocity": 0.23622047244094488,
                    "duration": 0.7202309999999983
                },
                {
                    "name": "A#1",
                    "midi": 34,
                    "time": 29.52947099999998,
                    "velocity": 0.23622047244094488,
                    "duration": 1.4404620000000001
                },
                {
                    "name": "A#2",
                    "midi": 46,
                    "time": 29.52947099999998,
                    "velocity": 0.23622047244094488,
                    "duration": 1.4404620000000001
                },
                {
                    "name": "B1",
                    "midi": 35,
                    "time": 30.96993299999998,
                    "velocity": 0.2047244094488189,
                    "duration": 0.7202309999999983
                },
                {
                    "name": "B2",
                    "midi": 47,
                    "time": 30.96993299999998,
                    "velocity": 0.2677165354330709,
                    "duration": 0.7202309999999983
                },
                {
                    "name": "F2",
                    "midi": 41,
                    "time": 31.690163999999978,
                    "velocity": 0.29133858267716534,
                    "duration": 2.400769999999998
                },
                {
                    "name": "C2",
                    "midi": 36,
                    "time": 31.690163999999978,
                    "velocity": 0.3937007874015748,
                    "duration": 0.4801540000000024
                },
                {
                    "name": "C3",
                    "midi": 48,
                    "time": 31.697166245833312,
                    "velocity": 0.29133858267716534,
                    "duration": 2.8809239999999967
                },
                {
                    "name": "D2",
                    "midi": 38,
                    "time": 32.17031799999998,
                    "velocity": 0.3464566929133858,
                    "duration": 0.18005775000000313
                },
                {
                    "name": "C2",
                    "midi": 36,
                    "time": 32.350375749999984,
                    "velocity": 0.33858267716535434,
                    "duration": 0.030009624999998152
                },
                {
                    "name": "D2",
                    "midi": 38,
                    "time": 32.38038537499998,
                    "velocity": 0.33858267716535434,
                    "duration": 0.030009624999998152
                },
                {
                    "name": "D#2",
                    "midi": 39,
                    "time": 32.41039499999998,
                    "velocity": 0.3937007874015748,
                    "duration": 0.36011549999999914
                },
                {
                    "name": "D2",
                    "midi": 38,
                    "time": 32.77051049999998,
                    "velocity": 0.29133858267716534,
                    "duration": 0.12003849999999971
                },
                {
                    "name": "C2",
                    "midi": 36,
                    "time": 32.89054899999998,
                    "velocity": 0.33070866141732286,
                    "duration": 0.21006737500000128
                },
                {
                    "name": "A#1",
                    "midi": 34,
                    "time": 33.10061637499998,
                    "velocity": 0.3543307086614173,
                    "duration": 0.7502406249999964
                },
                {
                    "name": "F2",
                    "midi": 41,
                    "time": 33.13062599999998,
                    "velocity": 0.3543307086614173,
                    "duration": 1.4404619999999966
                },
                {
                    "name": "D3",
                    "midi": 50,
                    "time": 33.13062599999998,
                    "velocity": 0.29133858267716534,
                    "duration": 0.7202309999999983
                },
                {
                    "name": "F1",
                    "midi": 29,
                    "time": 33.850856999999976,
                    "velocity": 0.25984251968503935,
                    "duration": 0.24007699999999943
                },
                {
                    "name": "D2",
                    "midi": 38,
                    "time": 34.331010999999975,
                    "velocity": 0.33858267716535434,
                    "duration": 0.24007699999999943
                },
                {
                    "name": "C3",
                    "midi": 48,
                    "time": 34.571087999999975,
                    "velocity": 0.29133858267716534,
                    "duration": 2.8809240000000074
                },
                {
                    "name": "F2",
                    "midi": 41,
                    "time": 34.571087999999975,
                    "velocity": 0.29133858267716534,
                    "duration": 2.640847000000001
                },
                {
                    "name": "C2",
                    "midi": 36,
                    "time": 34.571087999999975,
                    "velocity": 0.3937007874015748,
                    "duration": 0.36011549999999914
                },
                {
                    "name": "D2",
                    "midi": 38,
                    "time": 34.931203499999974,
                    "velocity": 0.3464566929133858,
                    "duration": 0.12003849999999971
                },
                {
                    "name": "C2",
                    "midi": 36,
                    "time": 35.051241999999974,
                    "velocity": 0.3464566929133858,
                    "duration": 0.18005775000000313
                },
                {
                    "name": "C2",
                    "midi": 36,
                    "time": 35.23129974999998,
                    "velocity": 0.33858267716535434,
                    "duration": 0.030009624999998152
                },
                {
                    "name": "D2",
                    "midi": 38,
                    "time": 35.261309374999975,
                    "velocity": 0.33858267716535434,
                    "duration": 0.030009624999998152
                },
                {
                    "name": "D#2",
                    "midi": 39,
                    "time": 35.29131899999997,
                    "velocity": 0.3937007874015748,
                    "duration": 0.36011549999999914
                },
                {
                    "name": "D2",
                    "midi": 38,
                    "time": 35.65143449999997,
                    "velocity": 0.29133858267716534,
                    "duration": 0.12003849999999971
                },
                {
                    "name": "C2",
                    "midi": 36,
                    "time": 35.77147299999997,
                    "velocity": 0.33070866141732286,
                    "duration": 0.18005775000000313
                },
                {
                    "name": "A#1",
                    "midi": 34,
                    "time": 35.951530749999975,
                    "velocity": 0.3543307086614173,
                    "duration": 0.06001925000000341
                },
                {
                    "name": "D3",
                    "midi": 50,
                    "time": 36.01154999999998,
                    "velocity": 0.3543307086614173,
                    "duration": 1.2003849999999971
                },
                {
                    "name": "F2",
                    "midi": 41,
                    "time": 36.01154999999998,
                    "velocity": 0.3543307086614173,
                    "duration": 1.4404620000000037
                },
                {
                    "name": "A#2",
                    "midi": 46,
                    "time": 37.211934999999976,
                    "velocity": 0.2992125984251969,
                    "duration": 2.4007700000000085
                },
                {
                    "name": "D#2",
                    "midi": 39,
                    "time": 37.39199274999998,
                    "velocity": 0.2755905511811024,
                    "duration": 0.06001925000000341
                },
                {
                    "name": "G3",
                    "midi": 55,
                    "time": 37.45201199999998,
                    "velocity": 0.3543307086614173,
                    "duration": 0.48015399999999886
                },
                {
                    "name": "G3",
                    "midi": 55,
                    "time": 37.93216599999998,
                    "velocity": 0.2992125984251969,
                    "duration": 0.24007699999999943
                },
                {
                    "name": "A#3",
                    "midi": 58,
                    "time": 38.17224299999998,
                    "velocity": 0.33070866141732286,
                    "duration": 0.36011549999999914
                },
                {
                    "name": "A3",
                    "midi": 57,
                    "time": 38.53235849999998,
                    "velocity": 0.29133858267716534,
                    "duration": 0.12003849999999971
                },
                {
                    "name": "G3",
                    "midi": 55,
                    "time": 38.65239699999998,
                    "velocity": 0.3228346456692913,
                    "duration": 0.24007700000000654
                },
                {
                    "name": "D2",
                    "midi": 38,
                    "time": 38.83245474999998,
                    "velocity": 0.2755905511811024,
                    "duration": 0.06001925000000341
                },
                {
                    "name": "F3",
                    "midi": 53,
                    "time": 38.892473999999986,
                    "velocity": 0.2677165354330709,
                    "duration": 0.7292338875000013
                },
                {
                    "name": "A#2",
                    "midi": 46,
                    "time": 39.612704999999984,
                    "velocity": 0.2440944881889764,
                    "duration": 0.24007700000000654
                },
                {
                    "name": "D2",
                    "midi": 38,
                    "time": 40.09285899999999,
                    "velocity": 0.1732283464566929,
                    "duration": 0.18005775000000313
                },
                {
                    "name": "A#2",
                    "midi": 46,
                    "time": 40.09285899999999,
                    "velocity": 0.1732283464566929,
                    "duration": 0.18005775000000313
                },
                {
                    "name": "F#3",
                    "midi": 54,
                    "time": 40.09285899999999,
                    "velocity": 0.2047244094488189,
                    "duration": 0.18005775000000313
                },
                {
                    "name": "D#2",
                    "midi": 39,
                    "time": 40.27291674999999,
                    "velocity": 0.2677165354330709,
                    "duration": 0.030009624999998152
                },
                {
                    "name": "A#2",
                    "midi": 46,
                    "time": 40.30292637499999,
                    "velocity": 0.28346456692913385,
                    "duration": 0.7502406249999964
                },
                {
                    "name": "G3",
                    "midi": 55,
                    "time": 40.33293599999999,
                    "velocity": 0.3543307086614173,
                    "duration": 0.48015399999999886
                },
                {
                    "name": "G3",
                    "midi": 55,
                    "time": 40.81308999999999,
                    "velocity": 0.2992125984251969,
                    "duration": 0.18005775000000313
                },
                {
                    "name": "E2",
                    "midi": 40,
                    "time": 40.99314774999999,
                    "velocity": 0.25196850393700787,
                    "duration": 0.7802502499999946
                },
                {
                    "name": "C#3",
                    "midi": 49,
                    "time": 41.02315737499999,
                    "velocity": 0.28346456692913385,
                    "duration": 0.7502406249999964
                },
                {
                    "name": "A#3",
                    "midi": 58,
                    "time": 41.05316699999999,
                    "velocity": 0.33070866141732286,
                    "duration": 0.36011549999999914
                },
                {
                    "name": "A3",
                    "midi": 57,
                    "time": 41.41328249999999,
                    "velocity": 0.29133858267716534,
                    "duration": 0.12003849999999971
                },
                {
                    "name": "G3",
                    "midi": 55,
                    "time": 41.53332099999999,
                    "velocity": 0.3228346456692913,
                    "duration": 0.24007699999999943
                },
                {
                    "name": "F2",
                    "midi": 41,
                    "time": 41.773397999999986,
                    "velocity": 0.23622047244094488,
                    "duration": 0.7202309999999983
                },
                {
                    "name": "D3",
                    "midi": 50,
                    "time": 41.773397999999986,
                    "velocity": 0.2677165354330709,
                    "duration": 1.2003849999999971
                },
                {
                    "name": "F3",
                    "midi": 53,
                    "time": 41.773397999999986,
                    "velocity": 0.2677165354330709,
                    "duration": 1.2003849999999971
                },
                {
                    "name": "G#2",
                    "midi": 44,
                    "time": 42.493628999999984,
                    "velocity": 0.3937007874015748,
                    "duration": 0.7202309999999983
                },
                {
                    "name": "A#2",
                    "midi": 46,
                    "time": 42.97378299999998,
                    "velocity": 0.2047244094488189,
                    "duration": 0.24007699999999943
                },
                {
                    "name": "G2",
                    "midi": 43,
                    "time": 43.21385999999998,
                    "velocity": 0.28346456692913385,
                    "duration": 1.4404619999999895
                },
                {
                    "name": "A#2",
                    "midi": 46,
                    "time": 43.21385999999998,
                    "velocity": 0.28346456692913385,
                    "duration": 1.4404619999999895
                },
                {
                    "name": "D#3",
                    "midi": 51,
                    "time": 43.21385999999998,
                    "velocity": 0.3700787401574803,
                    "duration": 0.36011549999999914
                },
                {
                    "name": "F3",
                    "midi": 53,
                    "time": 43.57397549999998,
                    "velocity": 0.33070866141732286,
                    "duration": 0.12003849999999971
                },
                {
                    "name": "D#3",
                    "midi": 51,
                    "time": 43.69401399999998,
                    "velocity": 0.3937007874015748,
                    "duration": 0.15004812499999787
                },
                {
                    "name": "F3",
                    "midi": 53,
                    "time": 43.84406212499998,
                    "velocity": 0.3543307086614173,
                    "duration": 0.030009624999998152
                },
                {
                    "name": "D#3",
                    "midi": 51,
                    "time": 43.87407174999998,
                    "velocity": 0.3700787401574803,
                    "duration": 0.030009624999998152
                },
                {
                    "name": "F3",
                    "midi": 53,
                    "time": 43.904081374999976,
                    "velocity": 0.3858267716535433,
                    "duration": 0.030009624999998152
                },
                {
                    "name": "G3",
                    "midi": 55,
                    "time": 43.934090999999974,
                    "velocity": 0.4094488188976378,
                    "duration": 0.36011549999999914
                },
                {
                    "name": "F3",
                    "midi": 53,
                    "time": 44.29420649999997,
                    "velocity": 0.3937007874015748,
                    "duration": 0.12003849999999971
                },
                {
                    "name": "D#3",
                    "midi": 51,
                    "time": 44.41424499999997,
                    "velocity": 0.3543307086614173,
                    "duration": 0.24007699999999943
                },
                {
                    "name": "A2",
                    "midi": 45,
                    "time": 44.65432199999997,
                    "velocity": 0.3700787401574803,
                    "duration": 0.7202309999999983
                },
                {
                    "name": "D3",
                    "midi": 50,
                    "time": 44.65432199999997,
                    "velocity": 0.3700787401574803,
                    "duration": 0.7202309999999983
                },
                {
                    "name": "F#3",
                    "midi": 54,
                    "time": 44.65432199999997,
                    "velocity": 0.4409448818897638,
                    "duration": 0.7202309999999983
                },
                {
                    "name": "A#2",
                    "midi": 46,
                    "time": 45.37455299999997,
                    "velocity": 0.2677165354330709,
                    "duration": 0.7202309999999983
                },
                {
                    "name": "G3",
                    "midi": 55,
                    "time": 45.37455299999997,
                    "velocity": 0.30708661417322836,
                    "duration": 0.48015399999999886
                },
                {
                    "name": "G3",
                    "midi": 55,
                    "time": 45.85470699999997,
                    "velocity": 0.2677165354330709,
                    "duration": 0.24007699999999943
                },
                {
                    "name": "C4",
                    "midi": 60,
                    "time": 46.09478399999997,
                    "velocity": 0.28346456692913385,
                    "duration": 0.7202309999999983
                },
                {
                    "name": "C3",
                    "midi": 48,
                    "time": 46.09478399999997,
                    "velocity": 0.2992125984251969,
                    "duration": 1.4404619999999966
                },
                {
                    "name": "G#3",
                    "midi": 56,
                    "time": 46.09478399999997,
                    "velocity": 0.33070866141732286,
                    "duration": 0.36011549999999914
                },
                {
                    "name": "G#3",
                    "midi": 56,
                    "time": 46.45489949999997,
                    "velocity": 0.23622047244094488,
                    "duration": 0.12003849999999971
                },
                {
                    "name": "G#3",
                    "midi": 56,
                    "time": 46.57493799999997,
                    "velocity": 0.29133858267716534,
                    "duration": 0.21006737500000128
                },
                {
                    "name": "G#3",
                    "midi": 56,
                    "time": 46.75499574999997,
                    "velocity": 0.2283464566929134,
                    "duration": 0.060019249999996305
                },
                {
                    "name": "A#3",
                    "midi": 58,
                    "time": 46.78500537499997,
                    "velocity": 0.2125984251968504,
                    "duration": 0.030009624999998152
                },
                {
                    "name": "C4",
                    "midi": 60,
                    "time": 46.81501499999997,
                    "velocity": 0.2992125984251969,
                    "duration": 0.36011549999999914
                },
                {
                    "name": "A#3",
                    "midi": 58,
                    "time": 47.175130499999966,
                    "velocity": 0.2204724409448819,
                    "duration": 0.12003849999999971
                },
                {
                    "name": "G#3",
                    "midi": 56,
                    "time": 47.295168999999966,
                    "velocity": 0.2283464566929134,
                    "duration": 0.24007699999999943
                },
                {
                    "name": "D3",
                    "midi": 50,
                    "time": 47.535245999999965,
                    "velocity": 0.2755905511811024,
                    "duration": 0.36011549999999914
                },
                {
                    "name": "G3",
                    "midi": 55,
                    "time": 47.535245999999965,
                    "velocity": 0.2755905511811024,
                    "duration": 0.7202309999999983
                },
                {
                    "name": "B3",
                    "midi": 59,
                    "time": 47.535245999999965,
                    "velocity": 0.2755905511811024,
                    "duration": 0.7202309999999983
                },
                {
                    "name": "D#3",
                    "midi": 51,
                    "time": 47.895361499999964,
                    "velocity": 0.2755905511811024,
                    "duration": 0.12003849999999971
                },
                {
                    "name": "F3",
                    "midi": 53,
                    "time": 48.015399999999964,
                    "velocity": 0.2755905511811024,
                    "duration": 0.18005775000000313
                },
                {
                    "name": "C3",
                    "midi": 48,
                    "time": 48.19545774999997,
                    "velocity": 0.2755905511811024,
                    "duration": 0.7802502500000017
                },
                {
                    "name": "F3",
                    "midi": 53,
                    "time": 48.225467374999965,
                    "velocity": 0.2755905511811024,
                    "duration": 0.3901251249999973
                },
                {
                    "name": "C4",
                    "midi": 60,
                    "time": 48.25547699999996,
                    "velocity": 0.2755905511811024,
                    "duration": 0.7202310000000054
                },
                {
                    "name": "E3",
                    "midi": 52,
                    "time": 48.61559249999996,
                    "velocity": 0.2755905511811024,
                    "duration": 0.12003849999999971
                },
                {
                    "name": "F2",
                    "midi": 41,
                    "time": 48.915688749999966,
                    "velocity": 0.2677165354330709,
                    "duration": 2.9409432500000037
                },
                {
                    "name": "D#3",
                    "midi": 51,
                    "time": 48.97570799999997,
                    "velocity": 0.29133858267716534,
                    "duration": 1.4404619999999966
                },
                {
                    "name": "A3",
                    "midi": 57,
                    "time": 48.97570799999997,
                    "velocity": 0.29133858267716534,
                    "duration": 1.4404619999999966
                },
                {
                    "name": "D3",
                    "midi": 50,
                    "time": 50.416169999999966,
                    "velocity": 0.29133858267716534,
                    "duration": 1.4404620000000037
                },
                {
                    "name": "F2",
                    "midi": 41,
                    "time": 51.796612749999966,
                    "velocity": 0.2204724409448819,
                    "duration": 1.50048125
                },
                {
                    "name": "D#3",
                    "midi": 51,
                    "time": 51.85663199999997,
                    "velocity": 0.29133858267716534,
                    "duration": 1.2003849999999971
                },
                {
                    "name": "A3",
                    "midi": 57,
                    "time": 51.85663199999997,
                    "velocity": 0.29133858267716534,
                    "duration": 1.2003849999999971
                },
                {
                    "name": "D#3",
                    "midi": 51,
                    "time": 53.057016999999966,
                    "velocity": 0.29133858267716534,
                    "duration": 0.6001924999999986
                },
                {
                    "name": "F2",
                    "midi": 41,
                    "time": 53.297093999999966,
                    "velocity": 0.4094488188976378,
                    "duration": 0.7202309999999983
                },
                {
                    "name": "D3",
                    "midi": 50,
                    "time": 53.657209499999965,
                    "velocity": 0.2440944881889764,
                    "duration": 0.12003849999999971
                },
                {
                    "name": "F3",
                    "midi": 53,
                    "time": 53.777247999999965,
                    "velocity": 0.2992125984251969,
                    "duration": 0.24007699999999943
                },
                {
                    "name": "F2",
                    "midi": 41,
                    "time": 54.017324999999964,
                    "velocity": 0.33070866141732286,
                    "duration": 0.7202309999999983
                },
                {
                    "name": "D#3",
                    "midi": 51,
                    "time": 54.37744049999996,
                    "velocity": 0.25196850393700787,
                    "duration": 0.12003849999999971
                },
                {
                    "name": "F3",
                    "midi": 53,
                    "time": 54.49747899999996,
                    "velocity": 0.29133858267716534,
                    "duration": 0.24007699999999943
                },
                {
                    "name": "F2",
                    "midi": 41,
                    "time": 54.73755599999996,
                    "velocity": 0.3937007874015748,
                    "duration": 0.7202309999999983
                },
                {
                    "name": "D3",
                    "midi": 50,
                    "time": 55.09767149999996,
                    "velocity": 0.25196850393700787,
                    "duration": 0.12003849999999971
                },
                {
                    "name": "F3",
                    "midi": 53,
                    "time": 55.21770999999996,
                    "velocity": 0.28346456692913385,
                    "duration": 0.24007699999999943
                },
                {
                    "name": "F2",
                    "midi": 41,
                    "time": 55.45778699999996,
                    "velocity": 0.33070866141732286,
                    "duration": 0.48015399999999886
                },
                {
                    "name": "F3",
                    "midi": 53,
                    "time": 55.81790249999996,
                    "velocity": 0.2440944881889764,
                    "duration": 0.12003849999999971
                },
                {
                    "name": "B3",
                    "midi": 59,
                    "time": 55.93794099999996,
                    "velocity": 0.29133858267716534,
                    "duration": 0.24007699999999943
                },
                {
                    "name": "F2",
                    "midi": 41,
                    "time": 56.17801799999996,
                    "velocity": 0.4094488188976378,
                    "duration": 0.7202309999999983
                },
                {
                    "name": "D#3",
                    "midi": 51,
                    "time": 56.53813349999996,
                    "velocity": 0.2440944881889764,
                    "duration": 0.12003849999999971
                },
                {
                    "name": "G3",
                    "midi": 55,
                    "time": 56.65817199999996,
                    "velocity": 0.2992125984251969,
                    "duration": 0.24007699999999943
                },
                {
                    "name": "F2",
                    "midi": 41,
                    "time": 56.89824899999996,
                    "velocity": 0.33070866141732286,
                    "duration": 0.7202309999999983
                },
                {
                    "name": "F3",
                    "midi": 53,
                    "time": 57.258364499999956,
                    "velocity": 0.2677165354330709,
                    "duration": 0.12003849999999971
                },
                {
                    "name": "G3",
                    "midi": 55,
                    "time": 57.378402999999956,
                    "velocity": 0.31496062992125984,
                    "duration": 0.24007699999999943
                },
                {
                    "name": "F2",
                    "midi": 41,
                    "time": 57.618479999999956,
                    "velocity": 0.41732283464566927,
                    "duration": 0.7202309999999983
                },
                {
                    "name": "D#3",
                    "midi": 51,
                    "time": 57.978595499999955,
                    "velocity": 0.31496062992125984,
                    "duration": 0.12003849999999971
                },
                {
                    "name": "G3",
                    "midi": 55,
                    "time": 58.098633999999954,
                    "velocity": 0.3543307086614173,
                    "duration": 0.24007699999999943
                },
                {
                    "name": "F2",
                    "midi": 41,
                    "time": 58.338710999999954,
                    "velocity": 0.4015748031496063,
                    "duration": 0.48015399999999886
                },
                {
                    "name": "E3",
                    "midi": 52,
                    "time": 58.69882649999995,
                    "velocity": 0.30708661417322836,
                    "duration": 0.12003849999999971
                },
                {
                    "name": "C#4",
                    "midi": 61,
                    "time": 58.81886499999995,
                    "velocity": 0.33070866141732286,
                    "duration": 0.24007699999999943
                },
                {
                    "name": "F2",
                    "midi": 41,
                    "time": 59.05894199999995,
                    "velocity": 0.3858267716535433,
                    "duration": 0.7202309999999983
                },
                {
                    "name": "F3",
                    "midi": 53,
                    "time": 59.41905749999995,
                    "velocity": 0.30708661417322836,
                    "duration": 0.12003849999999971
                },
                {
                    "name": "A3",
                    "midi": 57,
                    "time": 59.53909599999995,
                    "velocity": 0.33858267716535434,
                    "duration": 0.24007699999999943
                },
                {
                    "name": "F2",
                    "midi": 41,
                    "time": 59.77917299999995,
                    "velocity": 0.3779527559055118,
                    "duration": 0.48015399999999886
                },
                {
                    "name": "G3",
                    "midi": 55,
                    "time": 60.13928849999995,
                    "velocity": 0.2440944881889764,
                    "duration": 0.12003849999999971
                },
                {
                    "name": "A3",
                    "midi": 57,
                    "time": 60.25932699999995,
                    "velocity": 0.3464566929133858,
                    "duration": 0.24007699999999943
                },
                {
                    "name": "F2",
                    "midi": 41,
                    "time": 60.49940399999995,
                    "velocity": 0.4015748031496063,
                    "duration": 0.7202309999999983
                },
                {
                    "name": "F3",
                    "midi": 53,
                    "time": 60.85951949999995,
                    "velocity": 0.2992125984251969,
                    "duration": 0.12003849999999971
                },
                {
                    "name": "A3",
                    "midi": 57,
                    "time": 60.97955799999995,
                    "velocity": 0.3543307086614173,
                    "duration": 0.24007699999999943
                },
                {
                    "name": "F2",
                    "midi": 41,
                    "time": 61.21963499999995,
                    "velocity": 0.4409448818897638,
                    "duration": 0.48015399999999886
                },
                {
                    "name": "A3",
                    "midi": 57,
                    "time": 61.579750499999946,
                    "velocity": 0.30708661417322836,
                    "duration": 0.12003849999999971
                },
                {
                    "name": "F3",
                    "midi": 53,
                    "time": 61.699788999999946,
                    "velocity": 0.33858267716535434,
                    "duration": 0.24007699999999943
                },
                {
                    "name": "A#2",
                    "midi": 46,
                    "time": 61.939865999999945,
                    "velocity": 0.4015748031496063,
                    "duration": 0.48015399999999886
                },
                {
                    "name": "A#3",
                    "midi": 58,
                    "time": 62.299981499999944,
                    "velocity": 0.28346456692913385,
                    "duration": 0.12003849999999971
                },
                {
                    "name": "F3",
                    "midi": 53,
                    "time": 62.420019999999944,
                    "velocity": 0.3228346456692913,
                    "duration": 0.24007699999999943
                },
                {
                    "name": "D2",
                    "midi": 38,
                    "time": 62.66009699999994,
                    "velocity": 0.4094488188976378,
                    "duration": 0.48015399999999886
                },
                {
                    "name": "F#3",
                    "midi": 54,
                    "time": 63.02021249999994,
                    "velocity": 0.28346456692913385,
                    "duration": 0.12003849999999971
                },
                {
                    "name": "D3",
                    "midi": 50,
                    "time": 63.14025099999994,
                    "velocity": 0.3228346456692913,
                    "duration": 0.24007699999999943
                },
                {
                    "name": "D#2",
                    "midi": 39,
                    "time": 63.38032799999994,
                    "velocity": 0.3858267716535433,
                    "duration": 0.48015399999999886
                },
                {
                    "name": "G3",
                    "midi": 55,
                    "time": 63.74044349999994,
                    "velocity": 0.29133858267716534,
                    "duration": 0.12003849999999971
                },
                {
                    "name": "A#2",
                    "midi": 46,
                    "time": 63.86048199999994,
                    "velocity": 0.33858267716535434,
                    "duration": 0.24007700000000654
                },
                {
                    "name": "F2",
                    "midi": 41,
                    "time": 64.10055899999995,
                    "velocity": 0.3937007874015748,
                    "duration": 0.48015400000001307
                },
                {
                    "name": "A3",
                    "midi": 57,
                    "time": 64.46067449999995,
                    "velocity": 0.30708661417322836,
                    "duration": 0.12003850000000682
                },
                {
                    "name": "F3",
                    "midi": 53,
                    "time": 64.58071299999996,
                    "velocity": 0.3464566929133858,
                    "duration": 0.48015399999999886
                },
                {
                    "name": "F2",
                    "midi": 41,
                    "time": 64.82078999999996,
                    "velocity": 0.33070866141732286,
                    "duration": 0.24007699999999943
                },
                {
                    "name": "C4",
                    "midi": 60,
                    "time": 65.18090549999997,
                    "velocity": 0.2440944881889764,
                    "duration": 0.24007700000001364
                },
                {
                    "name": "F3",
                    "midi": 53,
                    "time": 65.18090549999997,
                    "velocity": 0.1968503937007874,
                    "duration": 0.24007700000001364
                },
                {
                    "name": "C3",
                    "midi": 48,
                    "time": 65.30094399999997,
                    "velocity": 0.2992125984251969,
                    "duration": 0.12003850000000682
                },
                {
                    "name": "F2",
                    "midi": 41,
                    "time": 65.54102099999999,
                    "velocity": 0.33070866141732286,
                    "duration": 0.24007699999999943
                },
                {
                    "name": "D#4",
                    "midi": 63,
                    "time": 65.90113649999999,
                    "velocity": 0.2440944881889764,
                    "duration": 0.24007700000001364
                },
                {
                    "name": "F3",
                    "midi": 53,
                    "time": 65.90113649999999,
                    "velocity": 0.16535433070866143,
                    "duration": 0.24007700000001364
                },
                {
                    "name": "C3",
                    "midi": 48,
                    "time": 66.021175,
                    "velocity": 0.29133858267716534,
                    "duration": 0.12003850000000682
                },
                {
                    "name": "F2",
                    "midi": 41,
                    "time": 66.26125200000001,
                    "velocity": 0.33070866141732286,
                    "duration": 0.24007699999999943
                },
                {
                    "name": "D4",
                    "midi": 62,
                    "time": 66.62136750000002,
                    "velocity": 0.2440944881889764,
                    "duration": 0.24007700000001364
                },
                {
                    "name": "F3",
                    "midi": 53,
                    "time": 66.62136750000002,
                    "velocity": 0.1968503937007874,
                    "duration": 0.24007700000001364
                },
                {
                    "name": "D3",
                    "midi": 50,
                    "time": 66.74140600000003,
                    "velocity": 0.2992125984251969,
                    "duration": 0.12003850000000682
                },
                {
                    "name": "F2",
                    "midi": 41,
                    "time": 66.98148300000004,
                    "velocity": 0.33070866141732286,
                    "duration": 0.24007699999999943
                },
                {
                    "name": "C4",
                    "midi": 60,
                    "time": 67.34159850000005,
                    "velocity": 0.2440944881889764,
                    "duration": 0.24007700000001364
                },
                {
                    "name": "F3",
                    "midi": 53,
                    "time": 67.34159850000005,
                    "velocity": 0.2125984251968504,
                    "duration": 0.24007700000001364
                },
                {
                    "name": "C3",
                    "midi": 48,
                    "time": 67.46163700000005,
                    "velocity": 0.29133858267716534,
                    "duration": 0.12003850000000682
                },
                {
                    "name": "F2",
                    "midi": 41,
                    "time": 67.70171400000007,
                    "velocity": 0.36220472440944884,
                    "duration": 0.24007699999999943
                },
                {
                    "name": "B3",
                    "midi": 59,
                    "time": 68.06182950000007,
                    "velocity": 0.28346456692913385,
                    "duration": 0.24007700000001364
                },
                {
                    "name": "D3",
                    "midi": 50,
                    "time": 68.06182950000007,
                    "velocity": 0.2204724409448819,
                    "duration": 0.24007700000001364
                },
                {
                    "name": "B2",
                    "midi": 47,
                    "time": 68.18186800000008,
                    "velocity": 0.3543307086614173,
                    "duration": 0.12003850000000682
                },
                {
                    "name": "F2",
                    "midi": 41,
                    "time": 68.4219450000001,
                    "velocity": 0.3700787401574803,
                    "duration": 0.24007699999999943
                },
                {
                    "name": "D4",
                    "midi": 62,
                    "time": 68.7820605000001,
                    "velocity": 0.31496062992125984,
                    "duration": 0.24007700000001364
                },
                {
                    "name": "F3",
                    "midi": 53,
                    "time": 68.7820605000001,
                    "velocity": 0.23622047244094488,
                    "duration": 0.24007700000001364
                },
                {
                    "name": "D3",
                    "midi": 50,
                    "time": 68.9020990000001,
                    "velocity": 0.3543307086614173,
                    "duration": 0.12003850000000682
                },
                {
                    "name": "F2",
                    "midi": 41,
                    "time": 69.14217600000012,
                    "velocity": 0.41732283464566927,
                    "duration": 0.24007699999999943
                },
                {
                    "name": "D#4",
                    "midi": 63,
                    "time": 69.50229150000013,
                    "velocity": 0.31496062992125984,
                    "duration": 0.24007700000001364
                },
                {
                    "name": "G3",
                    "midi": 55,
                    "time": 69.50229150000013,
                    "velocity": 0.23622047244094488,
                    "duration": 0.24007700000001364
                },
                {
                    "name": "D#3",
                    "midi": 51,
                    "time": 69.62233000000013,
                    "velocity": 0.3779527559055118,
                    "duration": 0.12003850000000682
                },
                {
                    "name": "F2",
                    "midi": 41,
                    "time": 69.86240700000015,
                    "velocity": 0.4566929133858268,
                    "duration": 0.24007699999999943
                },
                {
                    "name": "D4",
                    "midi": 62,
                    "time": 70.22252250000015,
                    "velocity": 0.29133858267716534,
                    "duration": 0.24007700000001364
                },
                {
                    "name": "F3",
                    "midi": 53,
                    "time": 70.22252250000015,
                    "velocity": 0.2283464566929134,
                    "duration": 0.24007700000001364
                },
                {
                    "name": "D3",
                    "midi": 50,
                    "time": 70.34256100000016,
                    "velocity": 0.3543307086614173,
                    "duration": 0.12003850000000682
                },
                {
                    "name": "F2",
                    "midi": 41,
                    "time": 70.58263800000017,
                    "velocity": 0.48031496062992124,
                    "duration": 0.24007699999999943
                },
                {
                    "name": "C#4",
                    "midi": 61,
                    "time": 70.94275350000018,
                    "velocity": 0.2992125984251969,
                    "duration": 0.24007700000001364
                },
                {
                    "name": "E3",
                    "midi": 52,
                    "time": 70.94275350000018,
                    "velocity": 0.2125984251968504,
                    "duration": 0.24007700000001364
                },
                {
                    "name": "C#3",
                    "midi": 49,
                    "time": 71.06279200000019,
                    "velocity": 0.3700787401574803,
                    "duration": 0.12003850000000682
                },
                {
                    "name": "F2",
                    "midi": 41,
                    "time": 71.3028690000002,
                    "velocity": 0.4094488188976378,
                    "duration": 0.24007699999999943
                },
                {
                    "name": "E4",
                    "midi": 64,
                    "time": 71.6629845000002,
                    "velocity": 0.30708661417322836,
                    "duration": 0.24007700000001364
                },
                {
                    "name": "G3",
                    "midi": 55,
                    "time": 71.6629845000002,
                    "velocity": 0.23622047244094488,
                    "duration": 0.24007700000001364
                },
                {
                    "name": "E3",
                    "midi": 52,
                    "time": 71.78302300000021,
                    "velocity": 0.3700787401574803,
                    "duration": 0.12003850000000682
                },
                {
                    "name": "F2",
                    "midi": 41,
                    "time": 72.02310000000023,
                    "velocity": 0.5275590551181102,
                    "duration": 0.7202310000000125
                },
                {
                    "name": "F4",
                    "midi": 65,
                    "time": 72.38321550000023,
                    "velocity": 0.4015748031496063,
                    "duration": 0.30009625000000995
                },
                {
                    "name": "A3",
                    "midi": 57,
                    "time": 72.38321550000023,
                    "velocity": 0.33858267716535434,
                    "duration": 0.30009625000000995
                },
                {
                    "name": "F3",
                    "midi": 53,
                    "time": 72.50325400000024,
                    "velocity": 0.44881889763779526,
                    "duration": 0.18005775000000313
                },
                {
                    "name": "F2",
                    "midi": 41,
                    "time": 72.68331175000024,
                    "velocity": 0.4015748031496063,
                    "duration": 0.060019249999996305
                },
                {
                    "name": "D#3",
                    "midi": 51,
                    "time": 72.74333100000024,
                    "velocity": 0.5039370078740157,
                    "duration": 0.7202310000000125
                },
                {
                    "name": "C4",
                    "midi": 60,
                    "time": 73.10344650000025,
                    "velocity": 0.3464566929133858,
                    "duration": 0.12003850000000682
                },
                {
                    "name": "A3",
                    "midi": 57,
                    "time": 73.22348500000025,
                    "velocity": 0.4409448818897638,
                    "duration": 0.18005775000000313
                },
                {
                    "name": "A#2",
                    "midi": 46,
                    "time": 73.40354275000026,
                    "velocity": 0.4409448818897638,
                    "duration": 0.060019249999996305
                },
                {
                    "name": "D3",
                    "midi": 50,
                    "time": 73.46356200000025,
                    "velocity": 0.49606299212598426,
                    "duration": 0.7202310000000125
                },
                {
                    "name": "A#3",
                    "midi": 58,
                    "time": 73.82367750000026,
                    "velocity": 0.4015748031496063,
                    "duration": 0.12003850000000682
                },
                {
                    "name": "F3",
                    "midi": 53,
                    "time": 73.94371600000026,
                    "velocity": 0.48031496062992124,
                    "duration": 0.18005775000000313
                },
                {
                    "name": "D2",
                    "midi": 38,
                    "time": 74.12377375000027,
                    "velocity": 0.4330708661417323,
                    "duration": 0.060019249999996305
                },
                {
                    "name": "C3",
                    "midi": 48,
                    "time": 74.18379300000026,
                    "velocity": 0.5196850393700787,
                    "duration": 0.7202310000000267
                },
                {
                    "name": "A3",
                    "midi": 57,
                    "time": 74.54390850000027,
                    "velocity": 0.3937007874015748,
                    "duration": 0.12003850000000682
                },
                {
                    "name": "F#3",
                    "midi": 54,
                    "time": 74.66394700000028,
                    "velocity": 0.4330708661417323,
                    "duration": 0.12003850000000682
                },
                {
                    "name": "D#2",
                    "midi": 39,
                    "time": 74.84400475000028,
                    "velocity": 0.4015748031496063,
                    "duration": 0.7802502500000088
                },
                {
                    "name": "A#2",
                    "midi": 46,
                    "time": 74.87401437500029,
                    "velocity": 0.4409448818897638,
                    "duration": 0.7202310000000125
                },
                {
                    "name": "G3",
                    "midi": 55,
                    "time": 74.90402400000029,
                    "velocity": 0.5196850393700787,
                    "duration": 0.36011550000000625
                },
                {
                    "name": "A3",
                    "midi": 57,
                    "time": 75.2641395000003,
                    "velocity": 0.3779527559055118,
                    "duration": 0.12003850000000682
                },
                {
                    "name": "A#3",
                    "midi": 58,
                    "time": 75.3841780000003,
                    "velocity": 0.44881889763779526,
                    "duration": 0.18005775000000313
                },
                {
                    "name": "F2",
                    "midi": 41,
                    "time": 75.56423575000031,
                    "velocity": 0.33858267716535434,
                    "duration": 0.020006416666660698
                },
                {
                    "name": "D#3",
                    "midi": 51,
                    "time": 75.58424216666697,
                    "velocity": 0.3700787401574803,
                    "duration": 0.020006416666660698
                },
                {
                    "name": "A3",
                    "midi": 57,
                    "time": 75.60424858333363,
                    "velocity": 0.4015748031496063,
                    "duration": 0.020006416666660698
                },
                {
                    "name": "D4",
                    "midi": 62,
                    "time": 75.62425500000029,
                    "velocity": 0.5039370078740157,
                    "duration": 0.36011550000000625
                },
                {
                    "name": "C4",
                    "midi": 60,
                    "time": 75.9843705000003,
                    "velocity": 0.3937007874015748,
                    "duration": 0.12003850000000682
                },
                {
                    "name": "D4",
                    "midi": 62,
                    "time": 76.1044090000003,
                    "velocity": 0.4409448818897638,
                    "duration": 0.24007699999999943
                },
                {
                    "name": "F2",
                    "midi": 41,
                    "time": 76.2844667500003,
                    "velocity": 0.2677165354330709,
                    "duration": 2.9409432499999895
                },
                {
                    "name": "D#3",
                    "midi": 51,
                    "time": 76.3444860000003,
                    "velocity": 0.29133858267716534,
                    "duration": 1.4404619999999966
                },
                {
                    "name": "A3",
                    "midi": 57,
                    "time": 76.3444860000003,
                    "velocity": 0.29133858267716534,
                    "duration": 1.4404619999999966
                },
                {
                    "name": "D3",
                    "midi": 50,
                    "time": 77.7849480000003,
                    "velocity": 0.29133858267716534,
                    "duration": 1.4404619999999966
                },
                {
                    "name": "F2",
                    "midi": 41,
                    "time": 79.1653907500003,
                    "velocity": 0.2204724409448819,
                    "duration": 2.9409432499999895
                },
                {
                    "name": "D#3",
                    "midi": 51,
                    "time": 79.2254100000003,
                    "velocity": 0.29133858267716534,
                    "duration": 1.4404619999999966
                },
                {
                    "name": "A3",
                    "midi": 57,
                    "time": 79.2254100000003,
                    "velocity": 0.29133858267716534,
                    "duration": 1.4404619999999966
                },
                {
                    "name": "D3",
                    "midi": 50,
                    "time": 80.66587200000029,
                    "velocity": 0.29133858267716534,
                    "duration": 1.2003849999999971
                },
                {
                    "name": "A#2",
                    "midi": 46,
                    "time": 81.86625700000029,
                    "velocity": 0.2992125984251969,
                    "duration": 2.4007700000000085
                },
                {
                    "name": "D#2",
                    "midi": 39,
                    "time": 82.04631475000029,
                    "velocity": 0.2755905511811024,
                    "duration": 0.060019249999996305
                },
                {
                    "name": "G3",
                    "midi": 55,
                    "time": 82.10633400000029,
                    "velocity": 0.3543307086614173,
                    "duration": 0.48015399999999886
                },
                {
                    "name": "G3",
                    "midi": 55,
                    "time": 82.58648800000029,
                    "velocity": 0.2992125984251969,
                    "duration": 0.24007699999999943
                },
                {
                    "name": "A#3",
                    "midi": 58,
                    "time": 82.82656500000029,
                    "velocity": 0.33070866141732286,
                    "duration": 0.36011550000000625
                },
                {
                    "name": "A3",
                    "midi": 57,
                    "time": 83.18668050000029,
                    "velocity": 0.29133858267716534,
                    "duration": 0.12003850000000682
                },
                {
                    "name": "G3",
                    "midi": 55,
                    "time": 83.3067190000003,
                    "velocity": 0.3228346456692913,
                    "duration": 0.24007699999999943
                },
                {
                    "name": "D2",
                    "midi": 38,
                    "time": 83.4867767500003,
                    "velocity": 0.25984251968503935,
                    "duration": 0.060019249999996305
                },
                {
                    "name": "F3",
                    "midi": 53,
                    "time": 83.5467960000003,
                    "velocity": 0.33070866141732286,
                    "duration": 0.7202309999999983
                },
                {
                    "name": "A#2",
                    "midi": 46,
                    "time": 84.26002475416696,
                    "velocity": 0.25984251968503935,
                    "duration": 0.48015399999999886
                },
                {
                    "name": "A#2",
                    "midi": 46,
                    "time": 84.7471810000003,
                    "velocity": 0.2125984251968504,
                    "duration": 0.24007699999999943
                },
                {
                    "name": "B1",
                    "midi": 35,
                    "time": 84.9872580000003,
                    "velocity": 0.2440944881889764,
                    "duration": 0.7202310000000267
                },
                {
                    "name": "D#3",
                    "midi": 51,
                    "time": 84.9872580000003,
                    "velocity": 0.2677165354330709,
                    "duration": 0.36011550000000625
                },
                {
                    "name": "D#3",
                    "midi": 51,
                    "time": 85.3473735000003,
                    "velocity": 0.1968503937007874,
                    "duration": 0.12003850000000682
                },
                {
                    "name": "D#3",
                    "midi": 51,
                    "time": 85.46741200000031,
                    "velocity": 0.23622047244094488,
                    "duration": 0.21006737500000838
                },
                {
                    "name": "D#3",
                    "midi": 51,
                    "time": 85.64746975000031,
                    "velocity": 0.1889763779527559,
                    "duration": 0.060019250000010516
                },
                {
                    "name": "F3",
                    "midi": 53,
                    "time": 85.67747937500032,
                    "velocity": 0.1732283464566929,
                    "duration": 0.030009625000005258
                },
                {
                    "name": "F#3",
                    "midi": 54,
                    "time": 85.70748900000032,
                    "velocity": 0.2440944881889764,
                    "duration": 0.36011550000000625
                },
                {
                    "name": "F3",
                    "midi": 53,
                    "time": 86.06760450000033,
                    "velocity": 0.1889763779527559,
                    "duration": 0.12003850000000682
                },
                {
                    "name": "D#3",
                    "midi": 51,
                    "time": 86.18764300000034,
                    "velocity": 0.2047244094488189,
                    "duration": 0.24007699999999943
                },
                {
                    "name": "A#1",
                    "midi": 34,
                    "time": 86.42772000000033,
                    "velocity": 0.18110236220472442,
                    "duration": 0.12003850000000682
                },
                {
                    "name": "D3",
                    "midi": 50,
                    "time": 86.54775850000034,
                    "velocity": 0.2047244094488189,
                    "duration": 2.7608855000000005
                }
            ],
            "controlChanges": {
                "91": [
                    {
                        "number": 91,
                        "time": 0,
                        "value": 1
                    }
                ]
            },
            "id": 2,
            "name": "Piano left",
            "instrumentNumber": 0,
            "instrument": "acoustic grand piano",
            "instrumentFamily": "piano",
            "channelNumber": 0,
            "isPercussion": false
        },
        {
            "startTime": 0,
            "duration": 0,
            "length": 0,
            "notes": [],
            "controlChanges": {
                "64": [
                    {
                        "number": 64,
                        "time": 0,
                        "value": 0
                    },
                    {
                        "number": 64,
                        "time": 2.6728572666666666,
                        "value": 1
                    },
                    {
                        "number": 64,
                        "time": 3.608157245833333,
                        "value": 0
                    },
                    {
                        "number": 64,
                        "time": 3.6581732875,
                        "value": 1
                    },
                    {
                        "number": 64,
                        "time": 4.335390491666667,
                        "value": 0
                    },
                    {
                        "number": 64,
                        "time": 4.463431558333333,
                        "value": 1
                    },
                    {
                        "number": 64,
                        "time": 5.539776775,
                        "value": 0
                    },
                    {
                        "number": 64,
                        "time": 5.660815595833333,
                        "value": 1
                    },
                    {
                        "number": 64,
                        "time": 6.489081245833333,
                        "value": 0
                    },
                    {
                        "number": 64,
                        "time": 6.5390972875,
                        "value": 1
                    },
                    {
                        "number": 64,
                        "time": 7.216314491666666,
                        "value": 0
                    },
                    {
                        "number": 64,
                        "time": 7.344355558333333,
                        "value": 1
                    },
                    {
                        "number": 64,
                        "time": 8.289658745833332,
                        "value": 0
                    },
                    {
                        "number": 64,
                        "time": 8.445708795833331,
                        "value": 1
                    },
                    {
                        "number": 64,
                        "time": 9.370005245833331,
                        "value": 0
                    },
                    {
                        "number": 64,
                        "time": 9.420021287499997,
                        "value": 1
                    },
                    {
                        "number": 64,
                        "time": 10.097238491666664,
                        "value": 0
                    },
                    {
                        "number": 64,
                        "time": 10.140252287499997,
                        "value": 1
                    },
                    {
                        "number": 64,
                        "time": 11.064548737499997,
                        "value": 0
                    },
                    {
                        "number": 64,
                        "time": 11.357642741666664,
                        "value": 1
                    },
                    {
                        "number": 64,
                        "time": 12.256931170833331,
                        "value": 0
                    },
                    {
                        "number": 64,
                        "time": 12.329954591666665,
                        "value": 1
                    },
                    {
                        "number": 64,
                        "time": 12.977162170833331,
                        "value": 0
                    },
                    {
                        "number": 64,
                        "time": 13.081195537499998,
                        "value": 1
                    },
                    {
                        "number": 64,
                        "time": 13.99748942083333,
                        "value": 0
                    },
                    {
                        "number": 64,
                        "time": 14.152539149999997,
                        "value": 1
                    },
                    {
                        "number": 64,
                        "time": 15.138855491666664,
                        "value": 0
                    },
                    {
                        "number": 64,
                        "time": 15.27289848333333,
                        "value": 1
                    },
                    {
                        "number": 64,
                        "time": 15.85508520833333,
                        "value": 0
                    },
                    {
                        "number": 64,
                        "time": 15.923107024999997,
                        "value": 1
                    },
                    {
                        "number": 64,
                        "time": 16.523299524999995,
                        "value": 0
                    },
                    {
                        "number": 64,
                        "time": 16.657342516666663,
                        "value": 1
                    },
                    {
                        "number": 64,
                        "time": 17.285543999999998,
                        "value": 0
                    },
                    {
                        "number": 64,
                        "time": 17.329558116666664,
                        "value": 1
                    },
                    {
                        "number": 64,
                        "time": 17.83271949583333,
                        "value": 0
                    },
                    {
                        "number": 64,
                        "time": 17.863729441666663,
                        "value": 1
                    },
                    {
                        "number": 64,
                        "time": 18.014777887499996,
                        "value": 0
                    },
                    {
                        "number": 64,
                        "time": 18.062793287499996,
                        "value": 1
                    },
                    {
                        "number": 64,
                        "time": 18.536945362499996,
                        "value": 0
                    },
                    {
                        "number": 64,
                        "time": 18.580959479166662,
                        "value": 1
                    },
                    {
                        "number": 64,
                        "time": 18.752014341666662,
                        "value": 0
                    },
                    {
                        "number": 64,
                        "time": 18.808032308333328,
                        "value": 1
                    },
                    {
                        "number": 64,
                        "time": 19.29518855416666,
                        "value": 0
                    },
                    {
                        "number": 64,
                        "time": 19.323197537499993,
                        "value": 1
                    },
                    {
                        "number": 64,
                        "time": 19.458240849999992,
                        "value": 0
                    },
                    {
                        "number": 64,
                        "time": 19.54126747916666,
                        "value": 1
                    },
                    {
                        "number": 64,
                        "time": 20.005416345833325,
                        "value": 0
                    },
                    {
                        "number": 64,
                        "time": 20.037426612499992,
                        "value": 1
                    },
                    {
                        "number": 64,
                        "time": 20.16646799999999,
                        "value": 0
                    },
                    {
                        "number": 64,
                        "time": 20.199478587499993,
                        "value": 1
                    },
                    {
                        "number": 64,
                        "time": 20.69363707916666,
                        "value": 0
                    },
                    {
                        "number": 64,
                        "time": 20.709642212499993,
                        "value": 1
                    },
                    {
                        "number": 64,
                        "time": 20.896702208333327,
                        "value": 0
                    },
                    {
                        "number": 64,
                        "time": 20.974727233333326,
                        "value": 1
                    },
                    {
                        "number": 64,
                        "time": 21.425871929166657,
                        "value": 0
                    },
                    {
                        "number": 64,
                        "time": 21.442877383333325,
                        "value": 1
                    },
                    {
                        "number": 64,
                        "time": 21.622935133333325,
                        "value": 0
                    },
                    {
                        "number": 64,
                        "time": 21.668949891666657,
                        "value": 1
                    },
                    {
                        "number": 64,
                        "time": 22.134099079166656,
                        "value": 0
                    },
                    {
                        "number": 64,
                        "time": 22.14710324999999,
                        "value": 1
                    },
                    {
                        "number": 64,
                        "time": 22.326160679166655,
                        "value": 0
                    },
                    {
                        "number": 64,
                        "time": 22.37917768333332,
                        "value": 1
                    },
                    {
                        "number": 64,
                        "time": 22.869334891666654,
                        "value": 0
                    },
                    {
                        "number": 64,
                        "time": 22.887340666666653,
                        "value": 1
                    },
                    {
                        "number": 64,
                        "time": 23.067398416666652,
                        "value": 0
                    },
                    {
                        "number": 64,
                        "time": 23.09940868333332,
                        "value": 1
                    },
                    {
                        "number": 64,
                        "time": 23.776625887499986,
                        "value": 0
                    },
                    {
                        "number": 64,
                        "time": 23.836645137499985,
                        "value": 1
                    },
                    {
                        "number": 64,
                        "time": 24.499857849999984,
                        "value": 0
                    },
                    {
                        "number": 64,
                        "time": 24.559877099999984,
                        "value": 1
                    },
                    {
                        "number": 64,
                        "time": 25.95432434166665,
                        "value": 0
                    },
                    {
                        "number": 64,
                        "time": 26.010342308333314,
                        "value": 1
                    },
                    {
                        "number": 64,
                        "time": 26.478492458333314,
                        "value": 0
                    },
                    {
                        "number": 64,
                        "time": 26.502500158333312,
                        "value": 1
                    },
                    {
                        "number": 64,
                        "time": 26.662551491666644,
                        "value": 0
                    },
                    {
                        "number": 64,
                        "time": 26.730573308333312,
                        "value": 1
                    },
                    {
                        "number": 64,
                        "time": 27.20972698749998,
                        "value": 0
                    },
                    {
                        "number": 64,
                        "time": 27.235735329166648,
                        "value": 1
                    },
                    {
                        "number": 64,
                        "time": 27.38078184999998,
                        "value": 0
                    },
                    {
                        "number": 64,
                        "time": 27.44080109999998,
                        "value": 1
                    },
                    {
                        "number": 64,
                        "time": 28.83524834166665,
                        "value": 0
                    },
                    {
                        "number": 64,
                        "time": 28.891266308333314,
                        "value": 1
                    },
                    {
                        "number": 64,
                        "time": 29.374421270833313,
                        "value": 0
                    },
                    {
                        "number": 64,
                        "time": 29.40643153749998,
                        "value": 1
                    },
                    {
                        "number": 64,
                        "time": 29.555479341666647,
                        "value": 0
                    },
                    {
                        "number": 64,
                        "time": 29.611497308333313,
                        "value": 1
                    },
                    {
                        "number": 64,
                        "time": 30.089650666666646,
                        "value": 0
                    },
                    {
                        "number": 64,
                        "time": 30.10865676249998,
                        "value": 1
                    },
                    {
                        "number": 64,
                        "time": 30.26170584999998,
                        "value": 0
                    },
                    {
                        "number": 64,
                        "time": 30.32172509999998,
                        "value": 1
                    },
                    {
                        "number": 64,
                        "time": 31.697166245833316,
                        "value": 0
                    },
                    {
                        "number": 64,
                        "time": 33.18464332499998,
                        "value": 1
                    },
                    {
                        "number": 64,
                        "time": 34.372024154166645,
                        "value": 0
                    },
                    {
                        "number": 64,
                        "time": 36.169600691666645,
                        "value": 1
                    },
                    {
                        "number": 64,
                        "time": 37.303964516666646,
                        "value": 0
                    },
                    {
                        "number": 64,
                        "time": 37.39199274999998,
                        "value": 1
                    },
                    {
                        "number": 64,
                        "time": 38.179245245833314,
                        "value": 0
                    },
                    {
                        "number": 64,
                        "time": 38.22926128749998,
                        "value": 1
                    },
                    {
                        "number": 64,
                        "time": 38.90647849166665,
                        "value": 0
                    },
                    {
                        "number": 64,
                        "time": 38.987504479166645,
                        "value": 1
                    },
                    {
                        "number": 64,
                        "time": 39.62570917083331,
                        "value": 0
                    },
                    {
                        "number": 64,
                        "time": 39.69873259166664,
                        "value": 1
                    },
                    {
                        "number": 64,
                        "time": 40.344939849999975,
                        "value": 0
                    },
                    {
                        "number": 64,
                        "time": 41.06016924583331,
                        "value": 0
                    },
                    {
                        "number": 64,
                        "time": 41.110185287499974,
                        "value": 1
                    },
                    {
                        "number": 64,
                        "time": 41.78540184999997,
                        "value": 0
                    },
                    {
                        "number": 64,
                        "time": 41.82741532499997,
                        "value": 1
                    },
                    {
                        "number": 64,
                        "time": 42.506633170833304,
                        "value": 0
                    },
                    {
                        "number": 64,
                        "time": 42.579656591666634,
                        "value": 1
                    },
                    {
                        "number": 64,
                        "time": 43.9470951708333,
                        "value": 0
                    },
                    {
                        "number": 64,
                        "time": 44.02011859166663,
                        "value": 1
                    },
                    {
                        "number": 64,
                        "time": 44.666325849999964,
                        "value": 0
                    },
                    {
                        "number": 64,
                        "time": 44.74935247916663,
                        "value": 1
                    },
                    {
                        "number": 64,
                        "time": 45.3905581333333,
                        "value": 0
                    },
                    {
                        "number": 64,
                        "time": 45.497592462499966,
                        "value": 1
                    },
                    {
                        "number": 64,
                        "time": 46.09478399999997,
                        "value": 0
                    },
                    {
                        "number": 64,
                        "time": 46.1648064583333,
                        "value": 1
                    },
                    {
                        "number": 64,
                        "time": 46.841023341666634,
                        "value": 0
                    },
                    {
                        "number": 64,
                        "time": 46.90104259166664,
                        "value": 1
                    },
                    {
                        "number": 64,
                        "time": 47.542248245833306,
                        "value": 0
                    },
                    {
                        "number": 64,
                        "time": 53.29709399999997,
                        "value": 1
                    },
                    {
                        "number": 64,
                        "time": 53.67521527499997,
                        "value": 0
                    },
                    {
                        "number": 64,
                        "time": 53.735234524999974,
                        "value": 1
                    },
                    {
                        "number": 64,
                        "time": 54.04533398333331,
                        "value": 0
                    },
                    {
                        "number": 64,
                        "time": 54.130361254166644,
                        "value": 1
                    },
                    {
                        "number": 64,
                        "time": 54.38444274583331,
                        "value": 0
                    },
                    {
                        "number": 64,
                        "time": 54.462467770833314,
                        "value": 1
                    },
                    {
                        "number": 64,
                        "time": 54.737555999999984,
                        "value": 0
                    },
                    {
                        "number": 64,
                        "time": 54.82958551666665,
                        "value": 1
                    },
                    {
                        "number": 64,
                        "time": 55.10767470833331,
                        "value": 0
                    },
                    {
                        "number": 64,
                        "time": 55.203705508333314,
                        "value": 1
                    },
                    {
                        "number": 64,
                        "time": 55.46278860416665,
                        "value": 0
                    },
                    {
                        "number": 64,
                        "time": 55.584827745833316,
                        "value": 1
                    },
                    {
                        "number": 64,
                        "time": 55.820903462499984,
                        "value": 0
                    },
                    {
                        "number": 64,
                        "time": 55.916934262499986,
                        "value": 1
                    },
                    {
                        "number": 64,
                        "time": 56.18201928333332,
                        "value": 0
                    },
                    {
                        "number": 64,
                        "time": 56.26304527083332,
                        "value": 1
                    },
                    {
                        "number": 64,
                        "time": 56.544135424999986,
                        "value": 0
                    },
                    {
                        "number": 64,
                        "time": 56.62316077083332,
                        "value": 1
                    },
                    {
                        "number": 64,
                        "time": 56.91125317083332,
                        "value": 0
                    },
                    {
                        "number": 64,
                        "time": 57.03229199166665,
                        "value": 1
                    },
                    {
                        "number": 64,
                        "time": 57.26936802916666,
                        "value": 0
                    },
                    {
                        "number": 64,
                        "time": 57.33638952499999,
                        "value": 1
                    },
                    {
                        "number": 64,
                        "time": 57.618479999999984,
                        "value": 0
                    },
                    {
                        "number": 64,
                        "time": 57.67049668333332,
                        "value": 1
                    },
                    {
                        "number": 64,
                        "time": 57.98559774583332,
                        "value": 0
                    },
                    {
                        "number": 64,
                        "time": 58.05361956249998,
                        "value": 1
                    },
                    {
                        "number": 64,
                        "time": 58.34871420833331,
                        "value": 0
                    },
                    {
                        "number": 64,
                        "time": 58.44774597083331,
                        "value": 1
                    },
                    {
                        "number": 64,
                        "time": 58.704828424999974,
                        "value": 0
                    },
                    {
                        "number": 64,
                        "time": 58.77885216666664,
                        "value": 1
                    },
                    {
                        "number": 64,
                        "time": 59.06594424583331,
                        "value": 0
                    },
                    {
                        "number": 64,
                        "time": 59.17898049999997,
                        "value": 1
                    },
                    {
                        "number": 64,
                        "time": 59.42706006666664,
                        "value": 0
                    },
                    {
                        "number": 64,
                        "time": 59.499083166666644,
                        "value": 1
                    },
                    {
                        "number": 64,
                        "time": 59.788175887499975,
                        "value": 0
                    },
                    {
                        "number": 64,
                        "time": 59.89921149999997,
                        "value": 1
                    },
                    {
                        "number": 64,
                        "time": 60.148291387499974,
                        "value": 0
                    },
                    {
                        "number": 64,
                        "time": 60.22531609166664,
                        "value": 1
                    },
                    {
                        "number": 64,
                        "time": 60.49940399999998,
                        "value": 0
                    },
                    {
                        "number": 64,
                        "time": 60.598435762499975,
                        "value": 1
                    },
                    {
                        "number": 64,
                        "time": 60.871523349999975,
                        "value": 0
                    },
                    {
                        "number": 64,
                        "time": 60.958551262499974,
                        "value": 1
                    },
                    {
                        "number": 64,
                        "time": 61.24064173749997,
                        "value": 0
                    },
                    {
                        "number": 64,
                        "time": 61.353677991666636,
                        "value": 1
                    },
                    {
                        "number": 64,
                        "time": 61.58475210416664,
                        "value": 0
                    },
                    {
                        "number": 64,
                        "time": 61.664777770833304,
                        "value": 1
                    },
                    {
                        "number": 64,
                        "time": 61.939865999999974,
                        "value": 0
                    },
                    {
                        "number": 64,
                        "time": 62.05490289583331,
                        "value": 1
                    },
                    {
                        "number": 64,
                        "time": 62.30998470833331,
                        "value": 0
                    },
                    {
                        "number": 64,
                        "time": 62.39201101666664,
                        "value": 1
                    },
                    {
                        "number": 64,
                        "time": 62.70611175833331,
                        "value": 0
                    },
                    {
                        "number": 64,
                        "time": 62.78013549999997,
                        "value": 1
                    },
                    {
                        "number": 64,
                        "time": 63.023213462499974,
                        "value": 0
                    },
                    {
                        "number": 64,
                        "time": 63.08323271249998,
                        "value": 1
                    },
                    {
                        "number": 64,
                        "time": 63.38032799999998,
                        "value": 0
                    },
                    {
                        "number": 64,
                        "time": 63.44434853333331,
                        "value": 1
                    },
                    {
                        "number": 64,
                        "time": 63.74744574583331,
                        "value": 0
                    },
                    {
                        "number": 64,
                        "time": 63.80446403333331,
                        "value": 1
                    },
                    {
                        "number": 64,
                        "time": 64.11156252916665,
                        "value": 0
                    },
                    {
                        "number": 64,
                        "time": 64.17458274166665,
                        "value": 1
                    },
                    {
                        "number": 64,
                        "time": 64.46567610416666,
                        "value": 0
                    },
                    {
                        "number": 64,
                        "time": 64.51069054166666,
                        "value": 1
                    },
                    {
                        "number": 64,
                        "time": 64.82079,
                        "value": 0
                    },
                    {
                        "number": 64,
                        "time": 64.92682400833334,
                        "value": 1
                    },
                    {
                        "number": 64,
                        "time": 65.18590710416667,
                        "value": 0
                    },
                    {
                        "number": 64,
                        "time": 65.29394175416667,
                        "value": 1
                    },
                    {
                        "number": 64,
                        "time": 65.56902998333334,
                        "value": 0
                    },
                    {
                        "number": 64,
                        "time": 65.69707105,
                        "value": 1
                    },
                    {
                        "number": 64,
                        "time": 65.91113970833334,
                        "value": 0
                    },
                    {
                        "number": 64,
                        "time": 65.96115575,
                        "value": 1
                    },
                    {
                        "number": 64,
                        "time": 66.261252,
                        "value": 0
                    },
                    {
                        "number": 64,
                        "time": 66.36728600833334,
                        "value": 1
                    },
                    {
                        "number": 64,
                        "time": 66.62636910416667,
                        "value": 0
                    },
                    {
                        "number": 64,
                        "time": 66.6933906,
                        "value": 1
                    },
                    {
                        "number": 64,
                        "time": 67.00949198333333,
                        "value": 0
                    },
                    {
                        "number": 64,
                        "time": 67.13753305,
                        "value": 1
                    },
                    {
                        "number": 64,
                        "time": 67.35160170833333,
                        "value": 0
                    },
                    {
                        "number": 64,
                        "time": 67.39361518333334,
                        "value": 1
                    },
                    {
                        "number": 64,
                        "time": 67.70171400000001,
                        "value": 0
                    },
                    {
                        "number": 64,
                        "time": 67.80774800833335,
                        "value": 1
                    },
                    {
                        "number": 64,
                        "time": 68.06683110416668,
                        "value": 0
                    },
                    {
                        "number": 64,
                        "time": 68.17486575416667,
                        "value": 1
                    },
                    {
                        "number": 64,
                        "time": 68.44995398333334,
                        "value": 0
                    },
                    {
                        "number": 64,
                        "time": 68.57799505000001,
                        "value": 1
                    },
                    {
                        "number": 64,
                        "time": 68.79206370833334,
                        "value": 0
                    },
                    {
                        "number": 64,
                        "time": 68.81407076666667,
                        "value": 1
                    },
                    {
                        "number": 64,
                        "time": 69.142176,
                        "value": 0
                    },
                    {
                        "number": 64,
                        "time": 69.24821000833334,
                        "value": 1
                    },
                    {
                        "number": 64,
                        "time": 69.50729310416668,
                        "value": 0
                    },
                    {
                        "number": 64,
                        "time": 69.61532775416667,
                        "value": 1
                    },
                    {
                        "number": 64,
                        "time": 69.89041598333334,
                        "value": 0
                    },
                    {
                        "number": 64,
                        "time": 70.01845705000001,
                        "value": 1
                    },
                    {
                        "number": 64,
                        "time": 70.23252570833334,
                        "value": 0
                    },
                    {
                        "number": 64,
                        "time": 70.27453918333335,
                        "value": 1
                    },
                    {
                        "number": 64,
                        "time": 70.58263800000002,
                        "value": 0
                    },
                    {
                        "number": 64,
                        "time": 70.68867200833336,
                        "value": 1
                    },
                    {
                        "number": 64,
                        "time": 70.94775510416669,
                        "value": 0
                    },
                    {
                        "number": 64,
                        "time": 71.05578975416668,
                        "value": 1
                    },
                    {
                        "number": 64,
                        "time": 71.33087798333335,
                        "value": 0
                    },
                    {
                        "number": 64,
                        "time": 71.45891905000002,
                        "value": 1
                    },
                    {
                        "number": 64,
                        "time": 71.67298770833335,
                        "value": 0
                    },
                    {
                        "number": 64,
                        "time": 71.71500118333336,
                        "value": 1
                    },
                    {
                        "number": 64,
                        "time": 72.02310000000003,
                        "value": 0
                    },
                    {
                        "number": 64,
                        "time": 72.06911475833336,
                        "value": 1
                    },
                    {
                        "number": 64,
                        "time": 72.39021774583335,
                        "value": 0
                    },
                    {
                        "number": 64,
                        "time": 72.48224726250002,
                        "value": 1
                    },
                    {
                        "number": 64,
                        "time": 72.76433773750003,
                        "value": 0
                    },
                    {
                        "number": 64,
                        "time": 72.84236276250003,
                        "value": 1
                    },
                    {
                        "number": 64,
                        "time": 73.10644746250003,
                        "value": 0
                    },
                    {
                        "number": 64,
                        "time": 73.16046478750003,
                        "value": 1
                    },
                    {
                        "number": 64,
                        "time": 73.46356200000004,
                        "value": 0
                    },
                    {
                        "number": 64,
                        "time": 73.5135780416667,
                        "value": 1
                    },
                    {
                        "number": 64,
                        "time": 73.82067653750003,
                        "value": 0
                    },
                    {
                        "number": 64,
                        "time": 73.86969225833337,
                        "value": 1
                    },
                    {
                        "number": 64,
                        "time": 74.19079524583337,
                        "value": 0
                    },
                    {
                        "number": 64,
                        "time": 74.2548157791667,
                        "value": 1
                    },
                    {
                        "number": 64,
                        "time": 74.55391170833337,
                        "value": 0
                    },
                    {
                        "number": 64,
                        "time": 74.60692871250004,
                        "value": 1
                    },
                    {
                        "number": 64,
                        "time": 74.90402400000004,
                        "value": 0
                    },
                    {
                        "number": 64,
                        "time": 74.9540400416667,
                        "value": 1
                    },
                    {
                        "number": 64,
                        "time": 75.26714046250004,
                        "value": 0
                    },
                    {
                        "number": 64,
                        "time": 75.34216452500004,
                        "value": 1
                    },
                    {
                        "number": 64,
                        "time": 75.57123799583337,
                        "value": 0
                    },
                    {
                        "number": 64,
                        "time": 75.60724954583337,
                        "value": 1
                    },
                    {
                        "number": 64,
                        "time": 75.99137274583337,
                        "value": 0
                    },
                    {
                        "number": 64,
                        "time": 76.0583942416667,
                        "value": 1
                    },
                    {
                        "number": 64,
                        "time": 77.07171924583336,
                        "value": 0
                    },
                    {
                        "number": 64,
                        "time": 77.12173528750003,
                        "value": 1
                    },
                    {
                        "number": 64,
                        "time": 77.7989524916667,
                        "value": 0
                    },
                    {
                        "number": 64,
                        "time": 77.92699355833336,
                        "value": 1
                    },
                    {
                        "number": 64,
                        "time": 79.00433909583336,
                        "value": 0
                    },
                    {
                        "number": 64,
                        "time": 79.09336765000002,
                        "value": 1
                    },
                    {
                        "number": 64,
                        "time": 79.95264324583336,
                        "value": 0
                    },
                    {
                        "number": 64,
                        "time": 80.00265928750002,
                        "value": 1
                    },
                    {
                        "number": 64,
                        "time": 80.67987649166669,
                        "value": 0
                    },
                    {
                        "number": 64,
                        "time": 80.80791755833336,
                        "value": 1
                    },
                    {
                        "number": 64,
                        "time": 81.88126181250003,
                        "value": 0
                    },
                    {
                        "number": 64,
                        "time": 81.96228780000003,
                        "value": 1
                    },
                    {
                        "number": 64,
                        "time": 82.83356724583336,
                        "value": 0
                    },
                    {
                        "number": 64,
                        "time": 82.88358328750003,
                        "value": 1
                    },
                    {
                        "number": 64,
                        "time": 83.5608004916667,
                        "value": 0
                    },
                    {
                        "number": 64,
                        "time": 83.60381428750003,
                        "value": 1
                    },
                    {
                        "number": 64,
                        "time": 84.7701883791667,
                        "value": 0
                    },
                    {
                        "number": 64,
                        "time": 84.8572162916667,
                        "value": 1
                    },
                    {
                        "number": 64,
                        "time": 85.72049317083336,
                        "value": 0
                    },
                    {
                        "number": 64,
                        "time": 85.7935165916667,
                        "value": 1
                    },
                    {
                        "number": 64,
                        "time": 86.44072417083336,
                        "value": 0
                    },
                    {
                        "number": 64,
                        "time": 86.50974630833336,
                        "value": 1
                    },
                    {
                        "number": 64,
                        "time": 89.90883650000004,
                        "value": 0
                    }
                ]
            },
            "id": 3,
            "name": "Pedale",
            "instrumentNumber": 0,
            "instrument": "acoustic grand piano",
            "instrumentFamily": "piano",
            "channelNumber": 0,
            "isPercussion": false
        },
        {
            "startTime": 0,
            "duration": 0,
            "length": 0,
            "notes": [],
            "controlChanges": {},
            "id": 4,
            "name": "Schumann: Kreisleriana  No. 6"
        },
        {
            "startTime": 0,
            "duration": 0,
            "length": 0,
            "notes": [],
            "controlChanges": {},
            "id": 5,
            "name": "Copyright  2006 by Bernd Krueger"
        },
        {
            "startTime": 0,
            "duration": 0,
            "length": 0,
            "notes": [],
            "controlChanges": {},
            "id": 6,
            "name": "http://www.piano-midi.de/"
        },
        {
            "startTime": 0,
            "duration": 0,
            "length": 0,
            "notes": [],
            "controlChanges": {},
            "id": 7,
            "name": "Edition: 2014-03-27"
        },
        {
            "startTime": 0,
            "duration": 0,
            "length": 0,
            "notes": [],
            "controlChanges": {},
            "id": 8,
            "name": "Spur 8"
        },
        {
            "startTime": 0,
            "duration": 0,
            "length": 0,
            "notes": [],
            "controlChanges": {},
            "id": 9,
            "name": "Spur 9"
        },
        {
            "startTime": 0,
            "duration": 0,
            "length": 0,
            "notes": [],
            "controlChanges": {},
            "id": 10,
            "name": "Spur 10"
        },
        {
            "startTime": 0,
            "duration": 0,
            "length": 0,
            "notes": [],
            "controlChanges": {},
            "id": 11,
            "name": "Spur 11"
        },
        {
            "startTime": 0,
            "duration": 0,
            "length": 0,
            "notes": [],
            "controlChanges": {},
            "id": 12,
            "name": "Spur 12"
        },
        {
            "startTime": 0,
            "duration": 0,
            "length": 0,
            "notes": [],
            "controlChanges": {},
            "id": 13,
            "name": "Spur 13"
        },
        {
            "startTime": 0,
            "duration": 0,
            "length": 0,
            "notes": [],
            "controlChanges": {},
            "id": 14,
            "name": "Spur 14"
        },
        {
            "startTime": 0,
            "duration": 0,
            "length": 0,
            "notes": [],
            "controlChanges": {},
            "id": 15,
            "name": "Spur 15"
        },
        {
            "startTime": 0,
            "duration": 0,
            "length": 0,
            "notes": [],
            "controlChanges": {},
            "id": 16,
            "name": "Spur 16"
        }
    ]
}