{
    "header": {
        "PPQ": 120,
        "timeSignature": [
            4,
            4
        ],
        "bpm": 145.00003625000906,
        "name": "Bruno Giovannetti"
    },
    "startTime": 0,
    "duration": 312.3964736250083,
    "tracks": [
        {
            "startTime": 0,
            "duration": 0,
            "length": 0,
            "notes": [],
            "controlChanges": {},
            "id": 0
        },
        {
            "startTime": 0.413793,
            "duration": 311.99992199999883,
            "length": 518,
            "notes": [
                {
                    "name": "C3",
                    "midi": 48,
                    "time": 0.413793,
                    "velocity": 0.31496062992125984,
                    "duration": 0.413793
                },
                {
                    "name": "C3",
                    "midi": 48,
                    "time": 1.258620375,
                    "velocity": 0.33070866141732286,
                    "duration": 0.4137930000000001
                },
                {
                    "name": "B2",
                    "midi": 47,
                    "time": 2.086206375,
                    "velocity": 0.3858267716535433,
                    "duration": 0.4137930000000001
                },
                {
                    "name": "B2",
                    "midi": 47,
                    "time": 2.9137923750000003,
                    "velocity": 0.31496062992125984,
                    "duration": 0.4137930000000001
                },
                {
                    "name": "C3",
                    "midi": 48,
                    "time": 3.7413783750000005,
                    "velocity": 0.33858267716535434,
                    "duration": 0.41379299999999963
                },
                {
                    "name": "C#3",
                    "midi": 49,
                    "time": 4.568964375,
                    "velocity": 0.3937007874015748,
                    "duration": 0.4137930000000001
                },
                {
                    "name": "D3",
                    "midi": 50,
                    "time": 5.396550375,
                    "velocity": 0.36220472440944884,
                    "duration": 0.4137930000000001
                },
                {
                    "name": "G2",
                    "midi": 43,
                    "time": 5.810343375,
                    "velocity": 0.36220472440944884,
                    "duration": 0.4137930000000001
                },
                {
                    "name": "C3",
                    "midi": 48,
                    "time": 6.2241363750000005,
                    "velocity": 0.3937007874015748,
                    "duration": 0.4137930000000001
                },
                {
                    "name": "D3",
                    "midi": 50,
                    "time": 6.637929375000001,
                    "velocity": 0.4251968503937008,
                    "duration": 0.4137930000000001
                },
                {
                    "name": "G2",
                    "midi": 43,
                    "time": 7.051722375000001,
                    "velocity": 0.3228346456692913,
                    "duration": 0.4137930000000001
                },
                {
                    "name": "C3",
                    "midi": 48,
                    "time": 7.879308375000001,
                    "velocity": 0.3937007874015748,
                    "duration": 0.4137930000000001
                },
                {
                    "name": "B2",
                    "midi": 47,
                    "time": 8.706894375000001,
                    "velocity": 0.4015748031496063,
                    "duration": 0.4137930000000001
                },
                {
                    "name": "B2",
                    "midi": 47,
                    "time": 9.534480375000001,
                    "velocity": 0.31496062992125984,
                    "duration": 0.4137930000000001
                },
                {
                    "name": "C3",
                    "midi": 48,
                    "time": 10.362066375000001,
                    "velocity": 0.3937007874015748,
                    "duration": 0.4137930000000001
                },
                {
                    "name": "C#3",
                    "midi": 49,
                    "time": 11.189652375000001,
                    "velocity": 0.3937007874015748,
                    "duration": 0.4137930000000001
                },
                {
                    "name": "D3",
                    "midi": 50,
                    "time": 12.017238375000002,
                    "velocity": 0.33070866141732286,
                    "duration": 0.4137930000000001
                },
                {
                    "name": "G2",
                    "midi": 43,
                    "time": 12.431031375000002,
                    "velocity": 0.36220472440944884,
                    "duration": 0.4137930000000001
                },
                {
                    "name": "C3",
                    "midi": 48,
                    "time": 12.844824375000002,
                    "velocity": 0.3779527559055118,
                    "duration": 0.4137930000000001
                },
                {
                    "name": "F2",
                    "midi": 41,
                    "time": 13.258617375000002,
                    "velocity": 0.4251968503937008,
                    "duration": 0.4137930000000001
                },
                {
                    "name": "B2",
                    "midi": 47,
                    "time": 13.672410375000002,
                    "velocity": 0.3858267716535433,
                    "duration": 0.4137930000000001
                },
                {
                    "name": "E2",
                    "midi": 40,
                    "time": 14.086203375000002,
                    "velocity": 0.33070866141732286,
                    "duration": 0.4137930000000001
                },
                {
                    "name": "A2",
                    "midi": 45,
                    "time": 14.499996375000002,
                    "velocity": 0.33070866141732286,
                    "duration": 0.4137930000000001
                },
                {
                    "name": "D2",
                    "midi": 38,
                    "time": 14.913789375000002,
                    "velocity": 0.33858267716535434,
                    "duration": 0.4137930000000001
                },
                {
                    "name": "G2",
                    "midi": 43,
                    "time": 15.327582375000002,
                    "velocity": 0.41732283464566927,
                    "duration": 0.4137930000000001
                },
                {
                    "name": "F3",
                    "midi": 53,
                    "time": 16.155168375000002,
                    "velocity": 0.3937007874015748,
                    "duration": 0.4137929999999983
                },
                {
                    "name": "E3",
                    "midi": 52,
                    "time": 16.982754375,
                    "velocity": 0.4330708661417323,
                    "duration": 0.4137929999999983
                },
                {
                    "name": "F3",
                    "midi": 53,
                    "time": 17.810340374999996,
                    "velocity": 0.41732283464566927,
                    "duration": 0.4137929999999983
                },
                {
                    "name": "G3",
                    "midi": 55,
                    "time": 18.637926374999992,
                    "velocity": 0.4330708661417323,
                    "duration": 0.4137929999999983
                },
                {
                    "name": "G2",
                    "midi": 43,
                    "time": 19.46551237499999,
                    "velocity": 0.33070866141732286,
                    "duration": 0.4137929999999983
                },
                {
                    "name": "C3",
                    "midi": 48,
                    "time": 20.293098374999985,
                    "velocity": 0.3228346456692913,
                    "duration": 0.4137929999999983
                },
                {
                    "name": "E3",
                    "midi": 52,
                    "time": 21.120684374999982,
                    "velocity": 0.4015748031496063,
                    "duration": 0.4137929999999983
                },
                {
                    "name": "F3",
                    "midi": 53,
                    "time": 21.94827037499998,
                    "velocity": 0.36220472440944884,
                    "duration": 0.4137929999999983
                },
                {
                    "name": "G3",
                    "midi": 55,
                    "time": 22.775856374999975,
                    "velocity": 0.3228346456692913,
                    "duration": 0.4137929999999983
                },
                {
                    "name": "C3",
                    "midi": 48,
                    "time": 23.60344237499997,
                    "velocity": 0.3779527559055118,
                    "duration": 0.4137929999999983
                },
                {
                    "name": "E3",
                    "midi": 52,
                    "time": 24.43102837499997,
                    "velocity": 0.3464566929133858,
                    "duration": 0.4137929999999983
                },
                {
                    "name": "F3",
                    "midi": 53,
                    "time": 25.258614374999965,
                    "velocity": 0.3228346456692913,
                    "duration": 0.4137929999999983
                },
                {
                    "name": "G3",
                    "midi": 55,
                    "time": 26.08620037499996,
                    "velocity": 0.36220472440944884,
                    "duration": 0.4137929999999983
                },
                {
                    "name": "C3",
                    "midi": 48,
                    "time": 26.913786374999958,
                    "velocity": 0.3543307086614173,
                    "duration": 0.4137929999999983
                },
                {
                    "name": "A2",
                    "midi": 45,
                    "time": 27.741372374999955,
                    "velocity": 0.31496062992125984,
                    "duration": 0.4137929999999983
                },
                {
                    "name": "E3",
                    "midi": 52,
                    "time": 28.56895837499995,
                    "velocity": 0.41732283464566927,
                    "duration": 0.4137929999999983
                },
                {
                    "name": "A2",
                    "midi": 45,
                    "time": 29.396544374999948,
                    "velocity": 0.4330708661417323,
                    "duration": 0.4137929999999983
                },
                {
                    "name": "D3",
                    "midi": 50,
                    "time": 30.224130374999945,
                    "velocity": 0.4409448818897638,
                    "duration": 0.4137929999999983
                },
                {
                    "name": "G2",
                    "midi": 43,
                    "time": 31.05171637499994,
                    "velocity": 0.33858267716535434,
                    "duration": 0.4137929999999983
                },
                {
                    "name": "E2",
                    "midi": 40,
                    "time": 31.879302374999938,
                    "velocity": 0.3228346456692913,
                    "duration": 0.4137929999999983
                },
                {
                    "name": "A2",
                    "midi": 45,
                    "time": 32.706888374999934,
                    "velocity": 0.3700787401574803,
                    "duration": 0.4137929999999983
                },
                {
                    "name": "D3",
                    "midi": 50,
                    "time": 33.53447437499993,
                    "velocity": 0.3779527559055118,
                    "duration": 0.4137929999999983
                },
                {
                    "name": "F#3",
                    "midi": 54,
                    "time": 34.36206037499993,
                    "velocity": 0.4251968503937008,
                    "duration": 0.4137929999999983
                },
                {
                    "name": "G3",
                    "midi": 55,
                    "time": 35.189646374999924,
                    "velocity": 0.3937007874015748,
                    "duration": 0.4137929999999983
                },
                {
                    "name": "A3",
                    "midi": 57,
                    "time": 36.01723237499992,
                    "velocity": 0.3937007874015748,
                    "duration": 0.4137929999999983
                },
                {
                    "name": "D3",
                    "midi": 50,
                    "time": 36.84481837499992,
                    "velocity": 0.3700787401574803,
                    "duration": 0.4137929999999983
                },
                {
                    "name": "F#2",
                    "midi": 42,
                    "time": 37.672404374999914,
                    "velocity": 0.3779527559055118,
                    "duration": 0.4137929999999983
                },
                {
                    "name": "G2",
                    "midi": 43,
                    "time": 38.49999037499991,
                    "velocity": 0.3858267716535433,
                    "duration": 0.4137929999999983
                },
                {
                    "name": "A2",
                    "midi": 45,
                    "time": 39.32757637499991,
                    "velocity": 0.4094488188976378,
                    "duration": 0.4137929999999983
                },
                {
                    "name": "D3",
                    "midi": 50,
                    "time": 40.155162374999904,
                    "velocity": 0.3858267716535433,
                    "duration": 0.4137929999999983
                },
                {
                    "name": "A2",
                    "midi": 45,
                    "time": 40.5689553749999,
                    "velocity": 0.4094488188976378,
                    "duration": 0.4137929999999983
                },
                {
                    "name": "D3",
                    "midi": 50,
                    "time": 40.9827483749999,
                    "velocity": 0.33858267716535434,
                    "duration": 0.4137929999999983
                },
                {
                    "name": "A2",
                    "midi": 45,
                    "time": 41.3965413749999,
                    "velocity": 0.3700787401574803,
                    "duration": 0.4137929999999983
                },
                {
                    "name": "D3",
                    "midi": 50,
                    "time": 41.8103343749999,
                    "velocity": 0.41732283464566927,
                    "duration": 0.4137929999999983
                },
                {
                    "name": "A2",
                    "midi": 45,
                    "time": 42.224127374999895,
                    "velocity": 0.3228346456692913,
                    "duration": 0.4137929999999983
                },
                {
                    "name": "D3",
                    "midi": 50,
                    "time": 42.637920374999894,
                    "velocity": 0.3858267716535433,
                    "duration": 0.4137929999999983
                },
                {
                    "name": "A2",
                    "midi": 45,
                    "time": 43.05171337499989,
                    "velocity": 0.31496062992125984,
                    "duration": 0.4137929999999983
                },
                {
                    "name": "D2",
                    "midi": 38,
                    "time": 43.46550637499989,
                    "velocity": 0.3779527559055118,
                    "duration": 0.4137929999999983
                },
                {
                    "name": "F#2",
                    "midi": 42,
                    "time": 44.29309237499989,
                    "velocity": 0.41732283464566927,
                    "duration": 0.4137929999999983
                },
                {
                    "name": "G2",
                    "midi": 43,
                    "time": 45.12067837499988,
                    "velocity": 0.4330708661417323,
                    "duration": 0.4137929999999983
                },
                {
                    "name": "D#3",
                    "midi": 51,
                    "time": 45.94826437499988,
                    "velocity": 0.4251968503937008,
                    "duration": 0.4137929999999983
                },
                {
                    "name": "E3",
                    "midi": 52,
                    "time": 46.77585037499988,
                    "velocity": 0.4094488188976378,
                    "duration": 0.4137929999999983
                },
                {
                    "name": "G2",
                    "midi": 43,
                    "time": 47.60343637499987,
                    "velocity": 0.4251968503937008,
                    "duration": 0.4137929999999983
                },
                {
                    "name": "C3",
                    "midi": 48,
                    "time": 48.43102237499987,
                    "velocity": 0.31496062992125984,
                    "duration": 0.4137929999999983
                },
                {
                    "name": "D3",
                    "midi": 50,
                    "time": 49.258608374999866,
                    "velocity": 0.4409448818897638,
                    "duration": 0.4137929999999983
                },
                {
                    "name": "D3",
                    "midi": 50,
                    "time": 49.672401374999865,
                    "velocity": 0.4094488188976378,
                    "duration": 0.4137929999999983
                },
                {
                    "name": "G3",
                    "midi": 55,
                    "time": 50.08619437499986,
                    "velocity": 0.3700787401574803,
                    "duration": 0.4137929999999983
                },
                {
                    "name": "E3",
                    "midi": 52,
                    "time": 50.49998737499986,
                    "velocity": 0.3937007874015748,
                    "duration": 0.4137929999999983
                },
                {
                    "name": "A2",
                    "midi": 45,
                    "time": 50.91378037499986,
                    "velocity": 0.4330708661417323,
                    "duration": 0.4137929999999983
                },
                {
                    "name": "D3",
                    "midi": 50,
                    "time": 51.32757337499986,
                    "velocity": 0.4251968503937008,
                    "duration": 0.4137929999999983
                },
                {
                    "name": "G2",
                    "midi": 43,
                    "time": 51.741366374999856,
                    "velocity": 0.31496062992125984,
                    "duration": 0.4137929999999983
                },
                {
                    "name": "C3",
                    "midi": 48,
                    "time": 52.155159374999855,
                    "velocity": 0.3779527559055118,
                    "duration": 0.4137929999999983
                },
                {
                    "name": "F#2",
                    "midi": 42,
                    "time": 52.56895237499985,
                    "velocity": 0.33070866141732286,
                    "duration": 0.4137929999999983
                },
                {
                    "name": "B2",
                    "midi": 47,
                    "time": 52.98274537499985,
                    "velocity": 0.41732283464566927,
                    "duration": 0.4137929999999983
                },
                {
                    "name": "E2",
                    "midi": 40,
                    "time": 53.39653837499985,
                    "velocity": 0.3228346456692913,
                    "duration": 0.4137929999999983
                },
                {
                    "name": "A2",
                    "midi": 45,
                    "time": 53.81033137499985,
                    "velocity": 0.3779527559055118,
                    "duration": 0.4137929999999983
                },
                {
                    "name": "D3",
                    "midi": 50,
                    "time": 54.224124374999846,
                    "velocity": 0.3464566929133858,
                    "duration": 0.4137929999999983
                },
                {
                    "name": "C3",
                    "midi": 48,
                    "time": 54.637917374999844,
                    "velocity": 0.3779527559055118,
                    "duration": 0.4137929999999983
                },
                {
                    "name": "B2",
                    "midi": 47,
                    "time": 55.05171037499984,
                    "velocity": 0.4094488188976378,
                    "duration": 0.4137929999999983
                },
                {
                    "name": "C3",
                    "midi": 48,
                    "time": 55.46550337499984,
                    "velocity": 0.3700787401574803,
                    "duration": 0.4137929999999983
                },
                {
                    "name": "D3",
                    "midi": 50,
                    "time": 55.87929637499984,
                    "velocity": 0.3464566929133858,
                    "duration": 0.4137929999999983
                },
                {
                    "name": "D2",
                    "midi": 38,
                    "time": 56.29308937499984,
                    "velocity": 0.3858267716535433,
                    "duration": 0.4137929999999983
                },
                {
                    "name": "G2",
                    "midi": 43,
                    "time": 56.706882374999836,
                    "velocity": 0.4015748031496063,
                    "duration": 0.4137929999999983
                },
                {
                    "name": "E3",
                    "midi": 52,
                    "time": 57.120675374999834,
                    "velocity": 0.3228346456692913,
                    "duration": 0.4137929999999983
                },
                {
                    "name": "A2",
                    "midi": 45,
                    "time": 57.53446837499983,
                    "velocity": 0.4251968503937008,
                    "duration": 0.4137929999999983
                },
                {
                    "name": "D3",
                    "midi": 50,
                    "time": 57.94826137499983,
                    "velocity": 0.41732283464566927,
                    "duration": 0.4137929999999983
                },
                {
                    "name": "G2",
                    "midi": 43,
                    "time": 58.36205437499983,
                    "velocity": 0.41732283464566927,
                    "duration": 0.4137929999999983
                },
                {
                    "name": "C3",
                    "midi": 48,
                    "time": 58.77584737499983,
                    "velocity": 0.31496062992125984,
                    "duration": 0.4137929999999983
                },
                {
                    "name": "D#2",
                    "midi": 39,
                    "time": 59.189640374999826,
                    "velocity": 0.3543307086614173,
                    "duration": 0.4137929999999983
                },
                {
                    "name": "B2",
                    "midi": 47,
                    "time": 59.603433374999824,
                    "velocity": 0.4330708661417323,
                    "duration": 0.4137929999999983
                },
                {
                    "name": "E2",
                    "midi": 40,
                    "time": 60.01722637499982,
                    "velocity": 0.3543307086614173,
                    "duration": 0.4137929999999983
                },
                {
                    "name": "A2",
                    "midi": 45,
                    "time": 60.43101937499982,
                    "velocity": 0.3937007874015748,
                    "duration": 0.4137929999999983
                },
                {
                    "name": "D3",
                    "midi": 50,
                    "time": 60.84481237499982,
                    "velocity": 0.3543307086614173,
                    "duration": 0.4137929999999983
                },
                {
                    "name": "C3",
                    "midi": 48,
                    "time": 61.25860537499982,
                    "velocity": 0.3543307086614173,
                    "duration": 0.4137929999999983
                },
                {
                    "name": "B2",
                    "midi": 47,
                    "time": 61.672398374999815,
                    "velocity": 0.33070866141732286,
                    "duration": 0.4137929999999983
                },
                {
                    "name": "C3",
                    "midi": 48,
                    "time": 62.086191374999814,
                    "velocity": 0.3228346456692913,
                    "duration": 0.4137929999999983
                },
                {
                    "name": "D3",
                    "midi": 50,
                    "time": 62.49998437499981,
                    "velocity": 0.3543307086614173,
                    "duration": 0.4137929999999983
                },
                {
                    "name": "D2",
                    "midi": 38,
                    "time": 62.91377737499981,
                    "velocity": 0.4094488188976378,
                    "duration": 0.4137929999999983
                },
                {
                    "name": "G2",
                    "midi": 43,
                    "time": 63.32757037499981,
                    "velocity": 0.3779527559055118,
                    "duration": 0.4137929999999983
                },
                {
                    "name": "F#2",
                    "midi": 42,
                    "time": 64.1551563749998,
                    "velocity": 0.41732283464566927,
                    "duration": 0.4137929999999983
                },
                {
                    "name": "G2",
                    "midi": 43,
                    "time": 64.9827423749998,
                    "velocity": 0.33070866141732286,
                    "duration": 0.4137929999999983
                },
                {
                    "name": "D3",
                    "midi": 50,
                    "time": 65.8103283749998,
                    "velocity": 0.33858267716535434,
                    "duration": 0.4137929999999983
                },
                {
                    "name": "G2",
                    "midi": 43,
                    "time": 66.6379143749998,
                    "velocity": 0.4015748031496063,
                    "duration": 0.4137929999999983
                },
                {
                    "name": "D3",
                    "midi": 50,
                    "time": 67.46550037499979,
                    "velocity": 0.4094488188976378,
                    "duration": 0.4137929999999983
                },
                {
                    "name": "G2",
                    "midi": 43,
                    "time": 68.29308637499979,
                    "velocity": 0.3937007874015748,
                    "duration": 0.4137929999999983
                },
                {
                    "name": "D2",
                    "midi": 38,
                    "time": 68.70687937499979,
                    "velocity": 0.36220472440944884,
                    "duration": 0.4137929999999983
                },
                {
                    "name": "G2",
                    "midi": 43,
                    "time": 69.12067237499978,
                    "velocity": 0.33070866141732286,
                    "duration": 0.4137929999999983
                },
                {
                    "name": "D2",
                    "midi": 38,
                    "time": 69.53446537499978,
                    "velocity": 0.3543307086614173,
                    "duration": 0.4137929999999983
                },
                {
                    "name": "G2",
                    "midi": 43,
                    "time": 69.94825837499978,
                    "velocity": 0.36220472440944884,
                    "duration": 0.4137929999999983
                },
                {
                    "name": "F2",
                    "midi": 41,
                    "time": 71.60343037499977,
                    "velocity": 0.36220472440944884,
                    "duration": 0.4137929999999983
                },
                {
                    "name": "G2",
                    "midi": 43,
                    "time": 73.25860237499977,
                    "velocity": 0.3937007874015748,
                    "duration": 0.4137929999999983
                },
                {
                    "name": "C3",
                    "midi": 48,
                    "time": 77.39653237499977,
                    "velocity": 0.4015748031496063,
                    "duration": 0.4137929999999983
                },
                {
                    "name": "B2",
                    "midi": 47,
                    "time": 78.22411837499976,
                    "velocity": 0.31496062992125984,
                    "duration": 0.4137929999999983
                },
                {
                    "name": "B2",
                    "midi": 47,
                    "time": 79.05170437499976,
                    "velocity": 0.41732283464566927,
                    "duration": 0.4137929999999983
                },
                {
                    "name": "C3",
                    "midi": 48,
                    "time": 79.87929037499975,
                    "velocity": 0.4251968503937008,
                    "duration": 0.4137929999999983
                },
                {
                    "name": "C#3",
                    "midi": 49,
                    "time": 80.70687637499975,
                    "velocity": 0.3543307086614173,
                    "duration": 0.4137929999999983
                },
                {
                    "name": "D3",
                    "midi": 50,
                    "time": 81.53446237499975,
                    "velocity": 0.4409448818897638,
                    "duration": 0.4137929999999983
                },
                {
                    "name": "G2",
                    "midi": 43,
                    "time": 81.94825537499975,
                    "velocity": 0.4094488188976378,
                    "duration": 0.4137929999999983
                },
                {
                    "name": "C3",
                    "midi": 48,
                    "time": 82.36204837499974,
                    "velocity": 0.4015748031496063,
                    "duration": 0.4137929999999983
                },
                {
                    "name": "D3",
                    "midi": 50,
                    "time": 82.77584137499974,
                    "velocity": 0.33858267716535434,
                    "duration": 0.4137929999999983
                },
                {
                    "name": "G2",
                    "midi": 43,
                    "time": 83.18963437499974,
                    "velocity": 0.4251968503937008,
                    "duration": 0.4137929999999983
                },
                {
                    "name": "C3",
                    "midi": 48,
                    "time": 84.01722037499974,
                    "velocity": 0.3779527559055118,
                    "duration": 0.4137929999999983
                },
                {
                    "name": "B2",
                    "midi": 47,
                    "time": 84.84480637499973,
                    "velocity": 0.3937007874015748,
                    "duration": 0.4137929999999983
                },
                {
                    "name": "B2",
                    "midi": 47,
                    "time": 85.67239237499973,
                    "velocity": 0.4251968503937008,
                    "duration": 0.4137929999999983
                },
                {
                    "name": "C3",
                    "midi": 48,
                    "time": 86.49997837499973,
                    "velocity": 0.33858267716535434,
                    "duration": 0.4137929999999983
                },
                {
                    "name": "C#3",
                    "midi": 49,
                    "time": 87.32756437499972,
                    "velocity": 0.3464566929133858,
                    "duration": 0.4137929999999983
                },
                {
                    "name": "D3",
                    "midi": 50,
                    "time": 88.15515037499972,
                    "velocity": 0.36220472440944884,
                    "duration": 0.4137929999999983
                },
                {
                    "name": "G2",
                    "midi": 43,
                    "time": 88.56894337499972,
                    "velocity": 0.3700787401574803,
                    "duration": 0.4137929999999983
                },
                {
                    "name": "C3",
                    "midi": 48,
                    "time": 88.98273637499972,
                    "velocity": 0.31496062992125984,
                    "duration": 0.4137929999999983
                },
                {
                    "name": "F2",
                    "midi": 41,
                    "time": 89.39652937499972,
                    "velocity": 0.4409448818897638,
                    "duration": 0.4137929999999983
                },
                {
                    "name": "B2",
                    "midi": 47,
                    "time": 89.81032237499971,
                    "velocity": 0.3779527559055118,
                    "duration": 0.4137929999999983
                },
                {
                    "name": "E2",
                    "midi": 40,
                    "time": 90.22411537499971,
                    "velocity": 0.33858267716535434,
                    "duration": 0.4137929999999983
                },
                {
                    "name": "A2",
                    "midi": 45,
                    "time": 90.63790837499971,
                    "velocity": 0.3464566929133858,
                    "duration": 0.4137929999999983
                },
                {
                    "name": "D2",
                    "midi": 38,
                    "time": 91.05170137499971,
                    "velocity": 0.4251968503937008,
                    "duration": 0.4137929999999983
                },
                {
                    "name": "G2",
                    "midi": 43,
                    "time": 91.46549437499971,
                    "velocity": 0.41732283464566927,
                    "duration": 0.4137929999999983
                },
                {
                    "name": "F3",
                    "midi": 53,
                    "time": 92.2930803749997,
                    "velocity": 0.3543307086614173,
                    "duration": 0.4137929999999983
                },
                {
                    "name": "E3",
                    "midi": 52,
                    "time": 93.1206663749997,
                    "velocity": 0.3779527559055118,
                    "duration": 0.4137929999999983
                },
                {
                    "name": "F3",
                    "midi": 53,
                    "time": 93.9482523749997,
                    "velocity": 0.3543307086614173,
                    "duration": 0.4137929999999983
                },
                {
                    "name": "G3",
                    "midi": 55,
                    "time": 94.7758383749997,
                    "velocity": 0.3779527559055118,
                    "duration": 0.4137929999999983
                },
                {
                    "name": "G2",
                    "midi": 43,
                    "time": 95.60342437499969,
                    "velocity": 0.3228346456692913,
                    "duration": 0.4137929999999983
                },
                {
                    "name": "C3",
                    "midi": 48,
                    "time": 96.43101037499969,
                    "velocity": 0.41732283464566927,
                    "duration": 0.4137929999999983
                },
                {
                    "name": "E3",
                    "midi": 52,
                    "time": 97.25859637499968,
                    "velocity": 0.41732283464566927,
                    "duration": 0.4137929999999983
                },
                {
                    "name": "F3",
                    "midi": 53,
                    "time": 98.08618237499968,
                    "velocity": 0.4094488188976378,
                    "duration": 0.4137929999999983
                },
                {
                    "name": "G3",
                    "midi": 55,
                    "time": 98.91376837499968,
                    "velocity": 0.4251968503937008,
                    "duration": 0.4137929999999983
                },
                {
                    "name": "C3",
                    "midi": 48,
                    "time": 99.74135437499967,
                    "velocity": 0.33858267716535434,
                    "duration": 0.4137929999999983
                },
                {
                    "name": "E3",
                    "midi": 52,
                    "time": 100.56894037499967,
                    "velocity": 0.36220472440944884,
                    "duration": 0.4137929999999983
                },
                {
                    "name": "F3",
                    "midi": 53,
                    "time": 101.39652637499967,
                    "velocity": 0.3858267716535433,
                    "duration": 0.4137929999999983
                },
                {
                    "name": "G3",
                    "midi": 55,
                    "time": 102.22411237499966,
                    "velocity": 0.3228346456692913,
                    "duration": 0.4137929999999983
                },
                {
                    "name": "C3",
                    "midi": 48,
                    "time": 103.05169837499966,
                    "velocity": 0.36220472440944884,
                    "duration": 0.4137929999999983
                },
                {
                    "name": "A2",
                    "midi": 45,
                    "time": 103.87928437499966,
                    "velocity": 0.4409448818897638,
                    "duration": 0.4137929999999983
                },
                {
                    "name": "E3",
                    "midi": 52,
                    "time": 104.70687037499965,
                    "velocity": 0.4330708661417323,
                    "duration": 0.4137929999999983
                },
                {
                    "name": "A2",
                    "midi": 45,
                    "time": 105.53445637499965,
                    "velocity": 0.41732283464566927,
                    "duration": 0.4137929999999983
                },
                {
                    "name": "D3",
                    "midi": 50,
                    "time": 106.36204237499965,
                    "velocity": 0.3700787401574803,
                    "duration": 0.4137929999999983
                },
                {
                    "name": "G2",
                    "midi": 43,
                    "time": 107.18962837499964,
                    "velocity": 0.3858267716535433,
                    "duration": 0.4137929999999983
                },
                {
                    "name": "E2",
                    "midi": 40,
                    "time": 108.01721437499964,
                    "velocity": 0.3228346456692913,
                    "duration": 0.4137929999999983
                },
                {
                    "name": "A2",
                    "midi": 45,
                    "time": 108.84480037499964,
                    "velocity": 0.4094488188976378,
                    "duration": 0.4137929999999983
                },
                {
                    "name": "D3",
                    "midi": 50,
                    "time": 109.67238637499963,
                    "velocity": 0.31496062992125984,
                    "duration": 0.4137929999999983
                },
                {
                    "name": "F#3",
                    "midi": 54,
                    "time": 110.49997237499963,
                    "velocity": 0.3464566929133858,
                    "duration": 0.4137929999999983
                },
                {
                    "name": "G3",
                    "midi": 55,
                    "time": 111.32755837499963,
                    "velocity": 0.33070866141732286,
                    "duration": 0.4137929999999983
                },
                {
                    "name": "A3",
                    "midi": 57,
                    "time": 112.15514437499962,
                    "velocity": 0.4015748031496063,
                    "duration": 0.4137929999999983
                },
                {
                    "name": "D3",
                    "midi": 50,
                    "time": 112.98273037499962,
                    "velocity": 0.4409448818897638,
                    "duration": 0.4137929999999983
                },
                {
                    "name": "F#2",
                    "midi": 42,
                    "time": 113.81031637499962,
                    "velocity": 0.4015748031496063,
                    "duration": 0.4137929999999983
                },
                {
                    "name": "G2",
                    "midi": 43,
                    "time": 114.63790237499961,
                    "velocity": 0.3464566929133858,
                    "duration": 0.4137929999999983
                },
                {
                    "name": "A2",
                    "midi": 45,
                    "time": 115.46548837499961,
                    "velocity": 0.3858267716535433,
                    "duration": 0.4137929999999983
                },
                {
                    "name": "D3",
                    "midi": 50,
                    "time": 116.2930743749996,
                    "velocity": 0.31496062992125984,
                    "duration": 0.4137929999999983
                },
                {
                    "name": "A2",
                    "midi": 45,
                    "time": 116.7068673749996,
                    "velocity": 0.31496062992125984,
                    "duration": 0.4137929999999983
                },
                {
                    "name": "D3",
                    "midi": 50,
                    "time": 117.1206603749996,
                    "velocity": 0.3464566929133858,
                    "duration": 0.4137929999999983
                },
                {
                    "name": "A2",
                    "midi": 45,
                    "time": 117.5344533749996,
                    "velocity": 0.3779527559055118,
                    "duration": 0.4137929999999983
                },
                {
                    "name": "D3",
                    "midi": 50,
                    "time": 117.9482463749996,
                    "velocity": 0.36220472440944884,
                    "duration": 0.4137929999999983
                },
                {
                    "name": "A2",
                    "midi": 45,
                    "time": 118.3620393749996,
                    "velocity": 0.4015748031496063,
                    "duration": 0.4137929999999983
                },
                {
                    "name": "D3",
                    "midi": 50,
                    "time": 118.7758323749996,
                    "velocity": 0.41732283464566927,
                    "duration": 0.4137929999999983
                },
                {
                    "name": "A2",
                    "midi": 45,
                    "time": 119.1896253749996,
                    "velocity": 0.33070866141732286,
                    "duration": 0.4137929999999983
                },
                {
                    "name": "D2",
                    "midi": 38,
                    "time": 119.60341837499959,
                    "velocity": 0.33858267716535434,
                    "duration": 0.4137929999999983
                },
                {
                    "name": "F#2",
                    "midi": 42,
                    "time": 120.43100437499959,
                    "velocity": 0.3228346456692913,
                    "duration": 0.4137929999999983
                },
                {
                    "name": "G2",
                    "midi": 43,
                    "time": 121.25859037499959,
                    "velocity": 0.3700787401574803,
                    "duration": 0.4137929999999983
                },
                {
                    "name": "D#3",
                    "midi": 51,
                    "time": 122.08617637499958,
                    "velocity": 0.4251968503937008,
                    "duration": 0.4137929999999983
                },
                {
                    "name": "E3",
                    "midi": 52,
                    "time": 122.91376237499958,
                    "velocity": 0.3464566929133858,
                    "duration": 0.4137929999999983
                },
                {
                    "name": "G2",
                    "midi": 43,
                    "time": 123.74134837499957,
                    "velocity": 0.33858267716535434,
                    "duration": 0.4137929999999983
                },
                {
                    "name": "C3",
                    "midi": 48,
                    "time": 124.56893437499957,
                    "velocity": 0.3858267716535433,
                    "duration": 0.4137929999999983
                },
                {
                    "name": "D3",
                    "midi": 50,
                    "time": 125.39652037499957,
                    "velocity": 0.3464566929133858,
                    "duration": 0.4137929999999983
                },
                {
                    "name": "D3",
                    "midi": 50,
                    "time": 125.81031337499957,
                    "velocity": 0.41732283464566927,
                    "duration": 0.4137929999999983
                },
                {
                    "name": "G3",
                    "midi": 55,
                    "time": 126.22410637499956,
                    "velocity": 0.31496062992125984,
                    "duration": 0.4137929999999983
                },
                {
                    "name": "E3",
                    "midi": 52,
                    "time": 126.63789937499956,
                    "velocity": 0.3858267716535433,
                    "duration": 0.4137929999999983
                },
                {
                    "name": "A2",
                    "midi": 45,
                    "time": 127.05169237499956,
                    "velocity": 0.33070866141732286,
                    "duration": 0.4137929999999983
                },
                {
                    "name": "D3",
                    "midi": 50,
                    "time": 127.46548537499956,
                    "velocity": 0.4330708661417323,
                    "duration": 0.4137929999999983
                },
                {
                    "name": "G2",
                    "midi": 43,
                    "time": 127.87927837499956,
                    "velocity": 0.3858267716535433,
                    "duration": 0.4137929999999983
                },
                {
                    "name": "C3",
                    "midi": 48,
                    "time": 128.29307137499956,
                    "velocity": 0.4409448818897638,
                    "duration": 0.4137929999999983
                },
                {
                    "name": "F#2",
                    "midi": 42,
                    "time": 128.70686437499955,
                    "velocity": 0.3858267716535433,
                    "duration": 0.4137929999999983
                },
                {
                    "name": "B2",
                    "midi": 47,
                    "time": 129.12065737499955,
                    "velocity": 0.31496062992125984,
                    "duration": 0.4137929999999983
                },
                {
                    "name": "E2",
                    "midi": 40,
                    "time": 129.53445037499955,
                    "velocity": 0.31496062992125984,
                    "duration": 0.4137929999999983
                },
                {
                    "name": "A2",
                    "midi": 45,
                    "time": 129.94824337499955,
                    "velocity": 0.4409448818897638,
                    "duration": 0.4137929999999983
                },
                {
                    "name": "D3",
                    "midi": 50,
                    "time": 130.36203637499955,
                    "velocity": 0.3700787401574803,
                    "duration": 0.4137929999999983
                },
                {
                    "name": "C3",
                    "midi": 48,
                    "time": 130.77582937499955,
                    "velocity": 0.41732283464566927,
                    "duration": 0.4137929999999983
                },
                {
                    "name": "B2",
                    "midi": 47,
                    "time": 131.18962237499954,
                    "velocity": 0.41732283464566927,
                    "duration": 0.4137929999999983
                },
                {
                    "name": "C3",
                    "midi": 48,
                    "time": 131.60341537499954,
                    "velocity": 0.4409448818897638,
                    "duration": 0.4137929999999983
                },
                {
                    "name": "D3",
                    "midi": 50,
                    "time": 132.01720837499954,
                    "velocity": 0.3937007874015748,
                    "duration": 0.4137929999999983
                },
                {
                    "name": "D2",
                    "midi": 38,
                    "time": 132.43100137499954,
                    "velocity": 0.4094488188976378,
                    "duration": 0.4137929999999983
                },
                {
                    "name": "G2",
                    "midi": 43,
                    "time": 132.84479437499954,
                    "velocity": 0.3464566929133858,
                    "duration": 0.4137929999999983
                },
                {
                    "name": "E3",
                    "midi": 52,
                    "time": 133.25858737499954,
                    "velocity": 0.33070866141732286,
                    "duration": 0.4137929999999983
                },
                {
                    "name": "A2",
                    "midi": 45,
                    "time": 133.67238037499953,
                    "velocity": 0.3464566929133858,
                    "duration": 0.4137929999999983
                },
                {
                    "name": "D3",
                    "midi": 50,
                    "time": 134.08617337499953,
                    "velocity": 0.4251968503937008,
                    "duration": 0.4137929999999983
                },
                {
                    "name": "G2",
                    "midi": 43,
                    "time": 134.49996637499953,
                    "velocity": 0.4015748031496063,
                    "duration": 0.4137929999999983
                },
                {
                    "name": "C3",
                    "midi": 48,
                    "time": 134.91375937499953,
                    "velocity": 0.3700787401574803,
                    "duration": 0.4137929999999983
                },
                {
                    "name": "D#2",
                    "midi": 39,
                    "time": 135.32755237499953,
                    "velocity": 0.3858267716535433,
                    "duration": 0.4137929999999983
                },
                {
                    "name": "B2",
                    "midi": 47,
                    "time": 135.74134537499953,
                    "velocity": 0.3228346456692913,
                    "duration": 0.4137929999999983
                },
                {
                    "name": "E2",
                    "midi": 40,
                    "time": 136.15513837499952,
                    "velocity": 0.4094488188976378,
                    "duration": 0.4137929999999983
                },
                {
                    "name": "A2",
                    "midi": 45,
                    "time": 136.56893137499952,
                    "velocity": 0.41732283464566927,
                    "duration": 0.4137929999999983
                },
                {
                    "name": "D3",
                    "midi": 50,
                    "time": 136.98272437499952,
                    "velocity": 0.4094488188976378,
                    "duration": 0.4137929999999983
                },
                {
                    "name": "C3",
                    "midi": 48,
                    "time": 137.39651737499952,
                    "velocity": 0.3543307086614173,
                    "duration": 0.4137929999999983
                },
                {
                    "name": "B2",
                    "midi": 47,
                    "time": 137.81031037499952,
                    "velocity": 0.4094488188976378,
                    "duration": 0.4137929999999983
                },
                {
                    "name": "C3",
                    "midi": 48,
                    "time": 138.22410337499952,
                    "velocity": 0.4409448818897638,
                    "duration": 0.4137929999999983
                },
                {
                    "name": "D3",
                    "midi": 50,
                    "time": 138.6378963749995,
                    "velocity": 0.4330708661417323,
                    "duration": 0.4137929999999983
                },
                {
                    "name": "D2",
                    "midi": 38,
                    "time": 139.0516893749995,
                    "velocity": 0.3543307086614173,
                    "duration": 0.4137929999999983
                },
                {
                    "name": "G2",
                    "midi": 43,
                    "time": 139.4654823749995,
                    "velocity": 0.4409448818897638,
                    "duration": 0.4137929999999983
                },
                {
                    "name": "F#2",
                    "midi": 42,
                    "time": 140.2930683749995,
                    "velocity": 0.3228346456692913,
                    "duration": 0.4137929999999983
                },
                {
                    "name": "G2",
                    "midi": 43,
                    "time": 141.1206543749995,
                    "velocity": 0.3464566929133858,
                    "duration": 0.4137929999999983
                },
                {
                    "name": "D3",
                    "midi": 50,
                    "time": 141.9482403749995,
                    "velocity": 0.33858267716535434,
                    "duration": 0.4137929999999983
                },
                {
                    "name": "G2",
                    "midi": 43,
                    "time": 142.7758263749995,
                    "velocity": 0.4330708661417323,
                    "duration": 0.4137929999999983
                },
                {
                    "name": "D3",
                    "midi": 50,
                    "time": 143.6034123749995,
                    "velocity": 0.3700787401574803,
                    "duration": 0.4137929999999983
                },
                {
                    "name": "G2",
                    "midi": 43,
                    "time": 144.4309983749995,
                    "velocity": 0.36220472440944884,
                    "duration": 0.4137929999999983
                },
                {
                    "name": "D2",
                    "midi": 38,
                    "time": 144.8447913749995,
                    "velocity": 0.3700787401574803,
                    "duration": 0.4137929999999983
                },
                {
                    "name": "G2",
                    "midi": 43,
                    "time": 145.2585843749995,
                    "velocity": 0.31496062992125984,
                    "duration": 0.4137929999999983
                },
                {
                    "name": "D2",
                    "midi": 38,
                    "time": 145.67237737499948,
                    "velocity": 0.4330708661417323,
                    "duration": 0.4137929999999983
                },
                {
                    "name": "G2",
                    "midi": 43,
                    "time": 146.08617037499948,
                    "velocity": 0.4251968503937008,
                    "duration": 0.4137929999999983
                },
                {
                    "name": "F3",
                    "midi": 53,
                    "time": 147.74134237499948,
                    "velocity": 0.3937007874015748,
                    "duration": 0.4137929999999983
                },
                {
                    "name": "D3",
                    "midi": 50,
                    "time": 149.39651437499947,
                    "velocity": 0.4094488188976378,
                    "duration": 0.4137929999999983
                },
                {
                    "name": "E3",
                    "midi": 52,
                    "time": 151.05168637499946,
                    "velocity": 0.33070866141732286,
                    "duration": 0.4137929999999983
                },
                {
                    "name": "A3",
                    "midi": 57,
                    "time": 153.53444437499945,
                    "velocity": 0.33070866141732286,
                    "duration": 0.4137929999999983
                },
                {
                    "name": "E3",
                    "midi": 52,
                    "time": 154.36203037499945,
                    "velocity": 0.4330708661417323,
                    "duration": 0.4137929999999983
                },
                {
                    "name": "E4",
                    "midi": 64,
                    "time": 155.18961637499945,
                    "velocity": 0.3858267716535433,
                    "duration": 0.4137929999999983
                },
                {
                    "name": "A3",
                    "midi": 57,
                    "time": 156.01720237499944,
                    "velocity": 0.3858267716535433,
                    "duration": 0.4137929999999983
                },
                {
                    "name": "C4",
                    "midi": 60,
                    "time": 156.84478837499944,
                    "velocity": 0.3543307086614173,
                    "duration": 0.4137929999999983
                },
                {
                    "name": "E4",
                    "midi": 64,
                    "time": 157.67237437499944,
                    "velocity": 0.3937007874015748,
                    "duration": 0.4137929999999983
                },
                {
                    "name": "G3",
                    "midi": 55,
                    "time": 158.49996037499943,
                    "velocity": 0.3937007874015748,
                    "duration": 0.4137929999999983
                },
                {
                    "name": "C4",
                    "midi": 60,
                    "time": 159.32754637499943,
                    "velocity": 0.4330708661417323,
                    "duration": 0.4137929999999983
                },
                {
                    "name": "E4",
                    "midi": 64,
                    "time": 160.15513237499943,
                    "velocity": 0.4015748031496063,
                    "duration": 0.4137929999999983
                },
                {
                    "name": "B3",
                    "midi": 59,
                    "time": 160.98271837499942,
                    "velocity": 0.3937007874015748,
                    "duration": 0.4137929999999983
                },
                {
                    "name": "B3",
                    "midi": 59,
                    "time": 161.81030437499942,
                    "velocity": 0.41732283464566927,
                    "duration": 0.4137929999999983
                },
                {
                    "name": "E4",
                    "midi": 64,
                    "time": 162.63789037499942,
                    "velocity": 0.3700787401574803,
                    "duration": 0.4137929999999983
                },
                {
                    "name": "A3",
                    "midi": 57,
                    "time": 163.4654763749994,
                    "velocity": 0.4330708661417323,
                    "duration": 0.4137929999999983
                },
                {
                    "name": "B3",
                    "midi": 59,
                    "time": 164.2930623749994,
                    "velocity": 0.31496062992125984,
                    "duration": 0.4137929999999983
                },
                {
                    "name": "B3",
                    "midi": 59,
                    "time": 165.1206483749994,
                    "velocity": 0.4409448818897638,
                    "duration": 0.4137929999999983
                },
                {
                    "name": "E3",
                    "midi": 52,
                    "time": 165.9482343749994,
                    "velocity": 0.36220472440944884,
                    "duration": 0.4137929999999983
                },
                {
                    "name": "A3",
                    "midi": 57,
                    "time": 166.7758203749994,
                    "velocity": 0.31496062992125984,
                    "duration": 0.4137929999999983
                },
                {
                    "name": "D3",
                    "midi": 50,
                    "time": 167.6034063749994,
                    "velocity": 0.36220472440944884,
                    "duration": 0.4137929999999983
                },
                {
                    "name": "G3",
                    "midi": 55,
                    "time": 168.4309923749994,
                    "velocity": 0.3228346456692913,
                    "duration": 0.4137929999999983
                },
                {
                    "name": "C4",
                    "midi": 60,
                    "time": 169.2585783749994,
                    "velocity": 0.4409448818897638,
                    "duration": 0.4137929999999983
                },
                {
                    "name": "F3",
                    "midi": 53,
                    "time": 170.08616437499938,
                    "velocity": 0.33070866141732286,
                    "duration": 0.4137929999999983
                },
                {
                    "name": "A#3",
                    "midi": 58,
                    "time": 170.91375037499938,
                    "velocity": 0.3543307086614173,
                    "duration": 0.4137929999999983
                },
                {
                    "name": "C4",
                    "midi": 60,
                    "time": 171.74133637499938,
                    "velocity": 0.36220472440944884,
                    "duration": 0.4137929999999983
                },
                {
                    "name": "C4",
                    "midi": 60,
                    "time": 172.15512937499938,
                    "velocity": 0.3937007874015748,
                    "duration": 0.4137929999999983
                },
                {
                    "name": "F4",
                    "midi": 65,
                    "time": 172.56892237499937,
                    "velocity": 0.3858267716535433,
                    "duration": 0.4137929999999983
                },
                {
                    "name": "F3",
                    "midi": 53,
                    "time": 172.56892237499937,
                    "velocity": 0.31496062992125984,
                    "duration": 0.4137929999999983
                },
                {
                    "name": "F4",
                    "midi": 65,
                    "time": 173.39650837499937,
                    "velocity": 0.4094488188976378,
                    "duration": 0.4137929999999983
                },
                {
                    "name": "F3",
                    "midi": 53,
                    "time": 173.39650837499937,
                    "velocity": 0.41732283464566927,
                    "duration": 0.4137929999999983
                },
                {
                    "name": "F3",
                    "midi": 53,
                    "time": 173.81030137499937,
                    "velocity": 0.4409448818897638,
                    "duration": 0.4137929999999983
                },
                {
                    "name": "F3",
                    "midi": 53,
                    "time": 173.81030137499937,
                    "velocity": 0.3228346456692913,
                    "duration": 0.4137929999999983
                },
                {
                    "name": "E4",
                    "midi": 64,
                    "time": 174.22409437499937,
                    "velocity": 0.4015748031496063,
                    "duration": 0.4137929999999983
                },
                {
                    "name": "E3",
                    "midi": 52,
                    "time": 174.22409437499937,
                    "velocity": 0.4330708661417323,
                    "duration": 0.4137929999999983
                },
                {
                    "name": "C4",
                    "midi": 60,
                    "time": 175.05168037499936,
                    "velocity": 0.4251968503937008,
                    "duration": 0.4137929999999983
                },
                {
                    "name": "F4",
                    "midi": 65,
                    "time": 175.87926637499936,
                    "velocity": 0.33858267716535434,
                    "duration": 0.4137929999999983
                },
                {
                    "name": "F3",
                    "midi": 53,
                    "time": 175.87926637499936,
                    "velocity": 0.31496062992125984,
                    "duration": 0.4137929999999983
                },
                {
                    "name": "F4",
                    "midi": 65,
                    "time": 176.70685237499936,
                    "velocity": 0.4409448818897638,
                    "duration": 0.4137929999999983
                },
                {
                    "name": "F3",
                    "midi": 53,
                    "time": 176.70685237499936,
                    "velocity": 0.33070866141732286,
                    "duration": 0.4137929999999983
                },
                {
                    "name": "F3",
                    "midi": 53,
                    "time": 177.12064537499936,
                    "velocity": 0.3779527559055118,
                    "duration": 0.4137929999999983
                },
                {
                    "name": "F4",
                    "midi": 65,
                    "time": 177.12064537499936,
                    "velocity": 0.4409448818897638,
                    "duration": 0.4137929999999983
                },
                {
                    "name": "E4",
                    "midi": 64,
                    "time": 177.53443837499935,
                    "velocity": 0.3779527559055118,
                    "duration": 0.4137929999999983
                },
                {
                    "name": "E3",
                    "midi": 52,
                    "time": 177.53443837499935,
                    "velocity": 0.36220472440944884,
                    "duration": 0.4137929999999983
                },
                {
                    "name": "C4",
                    "midi": 60,
                    "time": 178.36202437499935,
                    "velocity": 0.4251968503937008,
                    "duration": 0.4137929999999983
                },
                {
                    "name": "F4",
                    "midi": 65,
                    "time": 179.18961037499935,
                    "velocity": 0.3700787401574803,
                    "duration": 0.4137929999999983
                },
                {
                    "name": "F3",
                    "midi": 53,
                    "time": 179.18961037499935,
                    "velocity": 0.41732283464566927,
                    "duration": 0.4137929999999983
                },
                {
                    "name": "D4",
                    "midi": 62,
                    "time": 180.01719637499934,
                    "velocity": 0.4409448818897638,
                    "duration": 0.4137929999999983
                },
                {
                    "name": "D3",
                    "midi": 50,
                    "time": 180.01719637499934,
                    "velocity": 0.3779527559055118,
                    "duration": 0.4137929999999983
                },
                {
                    "name": "E4",
                    "midi": 64,
                    "time": 180.84478237499934,
                    "velocity": 0.3779527559055118,
                    "duration": 0.4137929999999983
                },
                {
                    "name": "D4",
                    "midi": 62,
                    "time": 181.67236837499934,
                    "velocity": 0.4094488188976378,
                    "duration": 0.4137929999999983
                },
                {
                    "name": "D5",
                    "midi": 74,
                    "time": 182.49995437499933,
                    "velocity": 0.3858267716535433,
                    "duration": 0.4137929999999983
                },
                {
                    "name": "C5",
                    "midi": 72,
                    "time": 183.32754037499933,
                    "velocity": 0.3937007874015748,
                    "duration": 0.4137929999999983
                },
                {
                    "name": "G#4",
                    "midi": 68,
                    "time": 183.74133337499933,
                    "velocity": 0.33070866141732286,
                    "duration": 0.4137929999999983
                },
                {
                    "name": "A4",
                    "midi": 69,
                    "time": 184.15512637499933,
                    "velocity": 0.4409448818897638,
                    "duration": 0.4137929999999983
                },
                {
                    "name": "G5",
                    "midi": 79,
                    "time": 184.56891937499933,
                    "velocity": 0.33858267716535434,
                    "duration": 0.4137929999999983
                },
                {
                    "name": "F#5",
                    "midi": 78,
                    "time": 184.98271237499932,
                    "velocity": 0.33858267716535434,
                    "duration": 0.4137929999999983
                },
                {
                    "name": "F5",
                    "midi": 77,
                    "time": 185.39650537499932,
                    "velocity": 0.3858267716535433,
                    "duration": 0.4137929999999983
                },
                {
                    "name": "E5",
                    "midi": 76,
                    "time": 185.81029837499932,
                    "velocity": 0.3858267716535433,
                    "duration": 0.20689649999999915
                },
                {
                    "name": "E5",
                    "midi": 76,
                    "time": 186.63788437499932,
                    "velocity": 0.4409448818897638,
                    "duration": 0.4137929999999983
                },
                {
                    "name": "E4",
                    "midi": 64,
                    "time": 186.63788437499932,
                    "velocity": 0.3858267716535433,
                    "duration": 0.4137929999999983
                },
                {
                    "name": "E5",
                    "midi": 76,
                    "time": 187.05167737499931,
                    "velocity": 0.3543307086614173,
                    "duration": 0.4137929999999983
                },
                {
                    "name": "E4",
                    "midi": 64,
                    "time": 187.05167737499931,
                    "velocity": 0.4409448818897638,
                    "duration": 0.4137929999999983
                },
                {
                    "name": "E5",
                    "midi": 76,
                    "time": 187.4654703749993,
                    "velocity": 0.3543307086614173,
                    "duration": 0.4137929999999983
                },
                {
                    "name": "E4",
                    "midi": 64,
                    "time": 187.4654703749993,
                    "velocity": 0.3779527559055118,
                    "duration": 0.4137929999999983
                },
                {
                    "name": "E5",
                    "midi": 76,
                    "time": 188.2930563749993,
                    "velocity": 0.3464566929133858,
                    "duration": 0.4137929999999983
                },
                {
                    "name": "E4",
                    "midi": 64,
                    "time": 188.2930563749993,
                    "velocity": 0.4015748031496063,
                    "duration": 0.4137929999999983
                },
                {
                    "name": "E5",
                    "midi": 76,
                    "time": 189.1206423749993,
                    "velocity": 0.3700787401574803,
                    "duration": 0.4137929999999983
                },
                {
                    "name": "E4",
                    "midi": 64,
                    "time": 189.1206423749993,
                    "velocity": 0.4094488188976378,
                    "duration": 0.4137929999999983
                },
                {
                    "name": "E4",
                    "midi": 64,
                    "time": 189.9482283749993,
                    "velocity": 0.3700787401574803,
                    "duration": 0.4137929999999983
                },
                {
                    "name": "E4",
                    "midi": 64,
                    "time": 190.3620213749993,
                    "velocity": 0.4330708661417323,
                    "duration": 0.4137929999999983
                },
                {
                    "name": "E4",
                    "midi": 64,
                    "time": 190.7758143749993,
                    "velocity": 0.4330708661417323,
                    "duration": 0.4137929999999983
                },
                {
                    "name": "E4",
                    "midi": 64,
                    "time": 191.6034003749993,
                    "velocity": 0.33070866141732286,
                    "duration": 0.4137929999999983
                },
                {
                    "name": "E4",
                    "midi": 64,
                    "time": 192.4309863749993,
                    "velocity": 0.3464566929133858,
                    "duration": 0.4137929999999983
                },
                {
                    "name": "D5",
                    "midi": 74,
                    "time": 192.8447793749993,
                    "velocity": 0.3700787401574803,
                    "duration": 0.4137929999999983
                },
                {
                    "name": "C5",
                    "midi": 72,
                    "time": 193.2585723749993,
                    "velocity": 0.3228346456692913,
                    "duration": 0.4137929999999983
                },
                {
                    "name": "B4",
                    "midi": 71,
                    "time": 193.6723653749993,
                    "velocity": 0.4015748031496063,
                    "duration": 0.4137929999999983
                },
                {
                    "name": "A4",
                    "midi": 69,
                    "time": 194.0861583749993,
                    "velocity": 0.3779527559055118,
                    "duration": 0.4137929999999983
                },
                {
                    "name": "G5",
                    "midi": 79,
                    "time": 194.49995137499928,
                    "velocity": 0.41732283464566927,
                    "duration": 0.4137929999999983
                },
                {
                    "name": "F5",
                    "midi": 77,
                    "time": 194.91374437499928,
                    "velocity": 0.3937007874015748,
                    "duration": 0.4137929999999983
                },
                {
                    "name": "E5",
                    "midi": 76,
                    "time": 195.32753737499928,
                    "velocity": 0.3858267716535433,
                    "duration": 0.4137929999999983
                },
                {
                    "name": "D5",
                    "midi": 74,
                    "time": 195.74133037499928,
                    "velocity": 0.4015748031496063,
                    "duration": 0.4137929999999983
                },
                {
                    "name": "D4",
                    "midi": 62,
                    "time": 196.56891637499928,
                    "velocity": 0.3779527559055118,
                    "duration": 0.4137929999999983
                },
                {
                    "name": "D5",
                    "midi": 74,
                    "time": 196.56891637499928,
                    "velocity": 0.36220472440944884,
                    "duration": 0.4137929999999983
                },
                {
                    "name": "E5",
                    "midi": 76,
                    "time": 197.39650237499927,
                    "velocity": 0.31496062992125984,
                    "duration": 0.4137929999999983
                },
                {
                    "name": "E4",
                    "midi": 64,
                    "time": 197.39650237499927,
                    "velocity": 0.33858267716535434,
                    "duration": 0.4137929999999983
                },
                {
                    "name": "E5",
                    "midi": 76,
                    "time": 198.22408837499927,
                    "velocity": 0.4330708661417323,
                    "duration": 0.4137929999999983
                },
                {
                    "name": "E4",
                    "midi": 64,
                    "time": 198.22408837499927,
                    "velocity": 0.4330708661417323,
                    "duration": 0.4137929999999983
                },
                {
                    "name": "A4",
                    "midi": 69,
                    "time": 199.05167437499927,
                    "velocity": 0.31496062992125984,
                    "duration": 0.4137929999999983
                },
                {
                    "name": "A3",
                    "midi": 57,
                    "time": 199.46546737499926,
                    "velocity": 0.36220472440944884,
                    "duration": 0.4137929999999983
                },
                {
                    "name": "D4",
                    "midi": 62,
                    "time": 199.87926037499926,
                    "velocity": 0.33858267716535434,
                    "duration": 0.4137929999999983
                },
                {
                    "name": "A3",
                    "midi": 57,
                    "time": 200.29305337499926,
                    "velocity": 0.4409448818897638,
                    "duration": 0.4137929999999983
                },
                {
                    "name": "D4",
                    "midi": 62,
                    "time": 200.70684637499926,
                    "velocity": 0.3700787401574803,
                    "duration": 0.4137929999999983
                },
                {
                    "name": "G3",
                    "midi": 55,
                    "time": 201.12063937499926,
                    "velocity": 0.4251968503937008,
                    "duration": 0.4137929999999983
                },
                {
                    "name": "C4",
                    "midi": 60,
                    "time": 201.53443237499926,
                    "velocity": 0.3937007874015748,
                    "duration": 0.4137929999999983
                },
                {
                    "name": "G3",
                    "midi": 55,
                    "time": 201.94822537499925,
                    "velocity": 0.3937007874015748,
                    "duration": 0.4137929999999983
                },
                {
                    "name": "C4",
                    "midi": 60,
                    "time": 202.36201837499925,
                    "velocity": 0.3779527559055118,
                    "duration": 0.4137929999999983
                },
                {
                    "name": "C5",
                    "midi": 72,
                    "time": 202.77581137499925,
                    "velocity": 0.4094488188976378,
                    "duration": 0.4137929999999983
                },
                {
                    "name": "B4",
                    "midi": 71,
                    "time": 203.18960437499925,
                    "velocity": 0.3543307086614173,
                    "duration": 0.4137929999999983
                },
                {
                    "name": "A4",
                    "midi": 69,
                    "time": 203.60339737499925,
                    "velocity": 0.3858267716535433,
                    "duration": 0.4137929999999983
                },
                {
                    "name": "E4",
                    "midi": 64,
                    "time": 204.01719037499925,
                    "velocity": 0.4409448818897638,
                    "duration": 0.4137929999999983
                },
                {
                    "name": "C4",
                    "midi": 60,
                    "time": 204.43098337499924,
                    "velocity": 0.41732283464566927,
                    "duration": 0.4137929999999983
                },
                {
                    "name": "B3",
                    "midi": 59,
                    "time": 204.84477637499924,
                    "velocity": 0.31496062992125984,
                    "duration": 0.4137929999999983
                },
                {
                    "name": "A3",
                    "midi": 57,
                    "time": 205.25856937499924,
                    "velocity": 0.3779527559055118,
                    "duration": 0.4137929999999983
                },
                {
                    "name": "E4",
                    "midi": 64,
                    "time": 205.67236237499924,
                    "velocity": 0.3779527559055118,
                    "duration": 0.4137929999999983
                },
                {
                    "name": "D5",
                    "midi": 74,
                    "time": 206.08615537499924,
                    "velocity": 0.33858267716535434,
                    "duration": 0.4137929999999983
                },
                {
                    "name": "C5",
                    "midi": 72,
                    "time": 206.49994837499924,
                    "velocity": 0.4251968503937008,
                    "duration": 0.4137929999999983
                },
                {
                    "name": "B4",
                    "midi": 71,
                    "time": 206.91374137499923,
                    "velocity": 0.4094488188976378,
                    "duration": 0.4137929999999983
                },
                {
                    "name": "A4",
                    "midi": 69,
                    "time": 207.32753437499923,
                    "velocity": 0.4015748031496063,
                    "duration": 0.4137929999999983
                },
                {
                    "name": "G5",
                    "midi": 79,
                    "time": 207.74132737499923,
                    "velocity": 0.4251968503937008,
                    "duration": 0.4137929999999983
                },
                {
                    "name": "F5",
                    "midi": 77,
                    "time": 208.15512037499923,
                    "velocity": 0.33070866141732286,
                    "duration": 0.4137929999999983
                },
                {
                    "name": "E5",
                    "midi": 76,
                    "time": 208.56891337499923,
                    "velocity": 0.4409448818897638,
                    "duration": 0.4137929999999983
                },
                {
                    "name": "D5",
                    "midi": 74,
                    "time": 208.98270637499922,
                    "velocity": 0.3779527559055118,
                    "duration": 0.4137929999999983
                },
                {
                    "name": "D5",
                    "midi": 74,
                    "time": 209.81029237499922,
                    "velocity": 0.3543307086614173,
                    "duration": 0.4137929999999983
                },
                {
                    "name": "D4",
                    "midi": 62,
                    "time": 209.81029237499922,
                    "velocity": 0.3779527559055118,
                    "duration": 0.4137929999999983
                },
                {
                    "name": "D#5",
                    "midi": 75,
                    "time": 210.63787837499922,
                    "velocity": 0.3858267716535433,
                    "duration": 0.4137929999999983
                },
                {
                    "name": "D#4",
                    "midi": 63,
                    "time": 210.63787837499922,
                    "velocity": 0.4251968503937008,
                    "duration": 0.4137929999999983
                },
                {
                    "name": "D#4",
                    "midi": 63,
                    "time": 211.46546437499921,
                    "velocity": 0.4015748031496063,
                    "duration": 0.4137929999999983
                },
                {
                    "name": "D#3",
                    "midi": 51,
                    "time": 211.46546437499921,
                    "velocity": 0.4251968503937008,
                    "duration": 0.4137929999999983
                },
                {
                    "name": "E4",
                    "midi": 64,
                    "time": 212.2930503749992,
                    "velocity": 0.33070866141732286,
                    "duration": 0.4137929999999983
                },
                {
                    "name": "E3",
                    "midi": 52,
                    "time": 212.2930503749992,
                    "velocity": 0.41732283464566927,
                    "duration": 0.4137929999999983
                },
                {
                    "name": "E5",
                    "midi": 76,
                    "time": 213.9482223749992,
                    "velocity": 0.4251968503937008,
                    "duration": 0.4137929999999983
                },
                {
                    "name": "E4",
                    "midi": 64,
                    "time": 213.9482223749992,
                    "velocity": 0.36220472440944884,
                    "duration": 0.4137929999999983
                },
                {
                    "name": "E5",
                    "midi": 76,
                    "time": 215.6033943749992,
                    "velocity": 0.3858267716535433,
                    "duration": 0.4137929999999983
                },
                {
                    "name": "E4",
                    "midi": 64,
                    "time": 215.6033943749992,
                    "velocity": 0.3228346456692913,
                    "duration": 0.4137929999999983
                },
                {
                    "name": "E5",
                    "midi": 76,
                    "time": 217.2585663749992,
                    "velocity": 0.36220472440944884,
                    "duration": 0.4137929999999983
                },
                {
                    "name": "E4",
                    "midi": 64,
                    "time": 217.2585663749992,
                    "velocity": 0.3779527559055118,
                    "duration": 0.4137929999999983
                },
                {
                    "name": "E5",
                    "midi": 76,
                    "time": 218.0861523749992,
                    "velocity": 0.4015748031496063,
                    "duration": 0.4137929999999983
                },
                {
                    "name": "E4",
                    "midi": 64,
                    "time": 218.0861523749992,
                    "velocity": 0.3700787401574803,
                    "duration": 0.4137929999999983
                },
                {
                    "name": "A4",
                    "midi": 69,
                    "time": 218.91373837499918,
                    "velocity": 0.33858267716535434,
                    "duration": 0.4137929999999983
                },
                {
                    "name": "A3",
                    "midi": 57,
                    "time": 218.91373837499918,
                    "velocity": 0.3228346456692913,
                    "duration": 0.4137929999999983
                },
                {
                    "name": "A4",
                    "midi": 69,
                    "time": 219.74132437499918,
                    "velocity": 0.4409448818897638,
                    "duration": 0.4137929999999983
                },
                {
                    "name": "B4",
                    "midi": 71,
                    "time": 220.56891037499918,
                    "velocity": 0.3700787401574803,
                    "duration": 0.4137929999999983
                },
                {
                    "name": "E4",
                    "midi": 64,
                    "time": 221.39649637499917,
                    "velocity": 0.36220472440944884,
                    "duration": 0.4137929999999983
                },
                {
                    "name": "A4",
                    "midi": 69,
                    "time": 222.22408237499917,
                    "velocity": 0.3543307086614173,
                    "duration": 0.4137929999999983
                },
                {
                    "name": "A4",
                    "midi": 69,
                    "time": 223.05166837499917,
                    "velocity": 0.4015748031496063,
                    "duration": 0.4137929999999983
                },
                {
                    "name": "B4",
                    "midi": 71,
                    "time": 223.87925437499916,
                    "velocity": 0.3700787401574803,
                    "duration": 0.4137929999999983
                },
                {
                    "name": "E4",
                    "midi": 64,
                    "time": 224.70684037499916,
                    "velocity": 0.3700787401574803,
                    "duration": 0.4137929999999983
                },
                {
                    "name": "A4",
                    "midi": 69,
                    "time": 225.53442637499916,
                    "velocity": 0.4330708661417323,
                    "duration": 0.4137929999999983
                },
                {
                    "name": "G4",
                    "midi": 67,
                    "time": 226.36201237499915,
                    "velocity": 0.3858267716535433,
                    "duration": 0.4137929999999983
                },
                {
                    "name": "F4",
                    "midi": 65,
                    "time": 227.18959837499915,
                    "velocity": 0.3543307086614173,
                    "duration": 0.4137929999999983
                },
                {
                    "name": "E4",
                    "midi": 64,
                    "time": 228.01718437499915,
                    "velocity": 0.31496062992125984,
                    "duration": 0.4137929999999983
                },
                {
                    "name": "D4",
                    "midi": 62,
                    "time": 228.84477037499914,
                    "velocity": 0.3543307086614173,
                    "duration": 0.4137929999999983
                },
                {
                    "name": "G3",
                    "midi": 55,
                    "time": 229.67235637499914,
                    "velocity": 0.3464566929133858,
                    "duration": 0.4137929999999983
                },
                {
                    "name": "C4",
                    "midi": 60,
                    "time": 230.49994237499914,
                    "velocity": 0.3228346456692913,
                    "duration": 0.4137929999999983
                },
                {
                    "name": "B3",
                    "midi": 59,
                    "time": 230.91373537499913,
                    "velocity": 0.4330708661417323,
                    "duration": 0.4137929999999983
                },
                {
                    "name": "C4",
                    "midi": 60,
                    "time": 231.32752837499913,
                    "velocity": 0.4330708661417323,
                    "duration": 0.4137929999999983
                },
                {
                    "name": "D4",
                    "midi": 62,
                    "time": 231.74132137499913,
                    "velocity": 0.4330708661417323,
                    "duration": 0.4137929999999983
                },
                {
                    "name": "G3",
                    "midi": 55,
                    "time": 232.15511437499913,
                    "velocity": 0.4015748031496063,
                    "duration": 0.4137929999999983
                },
                {
                    "name": "G4",
                    "midi": 67,
                    "time": 232.98270037499913,
                    "velocity": 0.36220472440944884,
                    "duration": 0.4137929999999983
                },
                {
                    "name": "G3",
                    "midi": 55,
                    "time": 232.98270037499913,
                    "velocity": 0.3228346456692913,
                    "duration": 0.4137929999999983
                },
                {
                    "name": "G4",
                    "midi": 67,
                    "time": 233.39649337499912,
                    "velocity": 0.41732283464566927,
                    "duration": 0.4137929999999983
                },
                {
                    "name": "G3",
                    "midi": 55,
                    "time": 233.39649337499912,
                    "velocity": 0.4094488188976378,
                    "duration": 0.4137929999999983
                },
                {
                    "name": "G4",
                    "midi": 67,
                    "time": 233.81028637499912,
                    "velocity": 0.4330708661417323,
                    "duration": 0.4137929999999983
                },
                {
                    "name": "G3",
                    "midi": 55,
                    "time": 233.81028637499912,
                    "velocity": 0.4330708661417323,
                    "duration": 0.4137929999999983
                },
                {
                    "name": "G3",
                    "midi": 55,
                    "time": 234.63787237499912,
                    "velocity": 0.4409448818897638,
                    "duration": 0.4137929999999983
                },
                {
                    "name": "G4",
                    "midi": 67,
                    "time": 234.63787237499912,
                    "velocity": 0.3700787401574803,
                    "duration": 0.4137929999999983
                },
                {
                    "name": "G4",
                    "midi": 67,
                    "time": 235.46545837499912,
                    "velocity": 0.3937007874015748,
                    "duration": 0.4137929999999983
                },
                {
                    "name": "G3",
                    "midi": 55,
                    "time": 235.46545837499912,
                    "velocity": 0.3228346456692913,
                    "duration": 0.4137929999999983
                },
                {
                    "name": "G3",
                    "midi": 55,
                    "time": 236.2930443749991,
                    "velocity": 0.3937007874015748,
                    "duration": 0.4137929999999983
                },
                {
                    "name": "G3",
                    "midi": 55,
                    "time": 236.7068373749991,
                    "velocity": 0.33070866141732286,
                    "duration": 0.4137929999999983
                },
                {
                    "name": "G3",
                    "midi": 55,
                    "time": 237.1206303749991,
                    "velocity": 0.31496062992125984,
                    "duration": 0.4137929999999983
                },
                {
                    "name": "G3",
                    "midi": 55,
                    "time": 237.9482163749991,
                    "velocity": 0.4094488188976378,
                    "duration": 0.4137929999999983
                },
                {
                    "name": "G3",
                    "midi": 55,
                    "time": 238.7758023749991,
                    "velocity": 0.3464566929133858,
                    "duration": 0.4137929999999983
                },
                {
                    "name": "G4",
                    "midi": 67,
                    "time": 239.1895953749991,
                    "velocity": 0.3464566929133858,
                    "duration": 0.4137929999999983
                },
                {
                    "name": "G3",
                    "midi": 55,
                    "time": 239.6033883749991,
                    "velocity": 0.4409448818897638,
                    "duration": 0.4137929999999983
                },
                {
                    "name": "G4",
                    "midi": 67,
                    "time": 240.0171813749991,
                    "velocity": 0.4094488188976378,
                    "duration": 0.4137929999999983
                },
                {
                    "name": "G3",
                    "midi": 55,
                    "time": 240.4309743749991,
                    "velocity": 0.4015748031496063,
                    "duration": 0.4137929999999983
                },
                {
                    "name": "G4",
                    "midi": 67,
                    "time": 240.8447673749991,
                    "velocity": 0.4251968503937008,
                    "duration": 0.4137929999999983
                },
                {
                    "name": "G3",
                    "midi": 55,
                    "time": 241.2585603749991,
                    "velocity": 0.4330708661417323,
                    "duration": 0.4137929999999983
                },
                {
                    "name": "G4",
                    "midi": 67,
                    "time": 241.6723533749991,
                    "velocity": 0.3779527559055118,
                    "duration": 0.4137929999999983
                },
                {
                    "name": "G3",
                    "midi": 55,
                    "time": 242.0861463749991,
                    "velocity": 0.3779527559055118,
                    "duration": 0.4137929999999983
                },
                {
                    "name": "F3",
                    "midi": 53,
                    "time": 243.74131837499908,
                    "velocity": 0.4251968503937008,
                    "duration": 0.4137929999999983
                },
                {
                    "name": "G3",
                    "midi": 55,
                    "time": 245.39649037499908,
                    "velocity": 0.3858267716535433,
                    "duration": 0.4137929999999983
                },
                {
                    "name": "C4",
                    "midi": 60,
                    "time": 249.5344203749991,
                    "velocity": 0.3464566929133858,
                    "duration": 0.4137929999999983
                },
                {
                    "name": "B3",
                    "midi": 59,
                    "time": 250.36200637499908,
                    "velocity": 0.3228346456692913,
                    "duration": 0.4137929999999983
                },
                {
                    "name": "B3",
                    "midi": 59,
                    "time": 251.18959237499908,
                    "velocity": 0.4094488188976378,
                    "duration": 0.4137929999999983
                },
                {
                    "name": "C4",
                    "midi": 60,
                    "time": 252.01717837499908,
                    "velocity": 0.3858267716535433,
                    "duration": 0.4137929999999983
                },
                {
                    "name": "C#4",
                    "midi": 61,
                    "time": 252.84476437499907,
                    "velocity": 0.3779527559055118,
                    "duration": 0.4137929999999983
                },
                {
                    "name": "D4",
                    "midi": 62,
                    "time": 253.67235037499907,
                    "velocity": 0.36220472440944884,
                    "duration": 0.4137929999999983
                },
                {
                    "name": "G3",
                    "midi": 55,
                    "time": 254.08614337499907,
                    "velocity": 0.3700787401574803,
                    "duration": 0.4137929999999983
                },
                {
                    "name": "C4",
                    "midi": 60,
                    "time": 254.49993637499907,
                    "velocity": 0.36220472440944884,
                    "duration": 0.4137929999999983
                },
                {
                    "name": "D4",
                    "midi": 62,
                    "time": 254.91372937499906,
                    "velocity": 0.4409448818897638,
                    "duration": 0.4137929999999983
                },
                {
                    "name": "G3",
                    "midi": 55,
                    "time": 255.32752237499906,
                    "velocity": 0.3464566929133858,
                    "duration": 0.4137929999999983
                },
                {
                    "name": "C4",
                    "midi": 60,
                    "time": 256.1551083749991,
                    "velocity": 0.31496062992125984,
                    "duration": 0.4137929999999983
                },
                {
                    "name": "B3",
                    "midi": 59,
                    "time": 256.9826943749991,
                    "velocity": 0.41732283464566927,
                    "duration": 0.4137929999999983
                },
                {
                    "name": "B3",
                    "midi": 59,
                    "time": 257.8102803749991,
                    "velocity": 0.3779527559055118,
                    "duration": 0.4137929999999983
                },
                {
                    "name": "C4",
                    "midi": 60,
                    "time": 258.6378663749991,
                    "velocity": 0.31496062992125984,
                    "duration": 0.4137929999999983
                },
                {
                    "name": "E4",
                    "midi": 64,
                    "time": 259.4654523749991,
                    "velocity": 0.3779527559055118,
                    "duration": 0.4137929999999983
                },
                {
                    "name": "F4",
                    "midi": 65,
                    "time": 260.29303837499907,
                    "velocity": 0.3543307086614173,
                    "duration": 0.4137929999999983
                },
                {
                    "name": "F#4",
                    "midi": 66,
                    "time": 261.12062437499907,
                    "velocity": 0.3779527559055118,
                    "duration": 0.4137929999999983
                },
                {
                    "name": "G4",
                    "midi": 67,
                    "time": 261.94821037499906,
                    "velocity": 0.4409448818897638,
                    "duration": 0.4137929999999983
                },
                {
                    "name": "B4",
                    "midi": 71,
                    "time": 262.77579637499906,
                    "velocity": 0.3228346456692913,
                    "duration": 0.4137929999999983
                },
                {
                    "name": "C5",
                    "midi": 72,
                    "time": 263.60338237499906,
                    "velocity": 0.36220472440944884,
                    "duration": 0.4137929999999983
                },
                {
                    "name": "G#4",
                    "midi": 68,
                    "time": 264.01717537499906,
                    "velocity": 0.36220472440944884,
                    "duration": 0.4137929999999983
                },
                {
                    "name": "A4",
                    "midi": 69,
                    "time": 264.43096837499905,
                    "velocity": 0.33070866141732286,
                    "duration": 0.4137929999999983
                },
                {
                    "name": "E4",
                    "midi": 64,
                    "time": 264.84476137499905,
                    "velocity": 0.3937007874015748,
                    "duration": 0.4137929999999983
                },
                {
                    "name": "F4",
                    "midi": 65,
                    "time": 265.25855437499905,
                    "velocity": 0.3937007874015748,
                    "duration": 0.4137929999999983
                },
                {
                    "name": "F#4",
                    "midi": 66,
                    "time": 266.08614037499905,
                    "velocity": 0.3937007874015748,
                    "duration": 0.4137929999999983
                },
                {
                    "name": "G4",
                    "midi": 67,
                    "time": 266.91372637499904,
                    "velocity": 0.4094488188976378,
                    "duration": 0.4137929999999983
                },
                {
                    "name": "G3",
                    "midi": 55,
                    "time": 267.74131237499904,
                    "velocity": 0.4094488188976378,
                    "duration": 0.4137929999999983
                },
                {
                    "name": "G#3",
                    "midi": 56,
                    "time": 268.56889837499904,
                    "velocity": 0.3858267716535433,
                    "duration": 0.4137929999999983
                },
                {
                    "name": "G#4",
                    "midi": 68,
                    "time": 269.39648437499903,
                    "velocity": 0.4015748031496063,
                    "duration": 0.4137929999999983
                },
                {
                    "name": "G#3",
                    "midi": 56,
                    "time": 269.39648437499903,
                    "velocity": 0.4251968503937008,
                    "duration": 0.4137929999999983
                },
                {
                    "name": "G#4",
                    "midi": 68,
                    "time": 269.81027737499903,
                    "velocity": 0.3464566929133858,
                    "duration": 0.4137929999999983
                },
                {
                    "name": "G#3",
                    "midi": 56,
                    "time": 269.81027737499903,
                    "velocity": 0.41732283464566927,
                    "duration": 0.4137929999999983
                },
                {
                    "name": "G4",
                    "midi": 67,
                    "time": 270.22407037499903,
                    "velocity": 0.4094488188976378,
                    "duration": 0.4137929999999983
                },
                {
                    "name": "G3",
                    "midi": 55,
                    "time": 270.22407037499903,
                    "velocity": 0.3228346456692913,
                    "duration": 0.4137929999999983
                },
                {
                    "name": "D#4",
                    "midi": 63,
                    "time": 271.051656374999,
                    "velocity": 0.36220472440944884,
                    "duration": 0.4137929999999983
                },
                {
                    "name": "G#3",
                    "midi": 56,
                    "time": 271.879242374999,
                    "velocity": 0.4409448818897638,
                    "duration": 0.4137929999999983
                },
                {
                    "name": "G#4",
                    "midi": 68,
                    "time": 271.879242374999,
                    "velocity": 0.3464566929133858,
                    "duration": 0.4137929999999983
                },
                {
                    "name": "G#4",
                    "midi": 68,
                    "time": 272.706828374999,
                    "velocity": 0.41732283464566927,
                    "duration": 0.4137929999999983
                },
                {
                    "name": "G#3",
                    "midi": 56,
                    "time": 272.706828374999,
                    "velocity": 0.33858267716535434,
                    "duration": 0.4137929999999983
                },
                {
                    "name": "G#3",
                    "midi": 56,
                    "time": 273.120621374999,
                    "velocity": 0.3464566929133858,
                    "duration": 0.4137929999999983
                },
                {
                    "name": "G#4",
                    "midi": 68,
                    "time": 273.120621374999,
                    "velocity": 0.3228346456692913,
                    "duration": 0.4137929999999983
                },
                {
                    "name": "G4",
                    "midi": 67,
                    "time": 273.534414374999,
                    "velocity": 0.4330708661417323,
                    "duration": 0.4137929999999983
                },
                {
                    "name": "G3",
                    "midi": 55,
                    "time": 273.534414374999,
                    "velocity": 0.4330708661417323,
                    "duration": 0.4137929999999983
                },
                {
                    "name": "G4",
                    "midi": 67,
                    "time": 274.362000374999,
                    "velocity": 0.41732283464566927,
                    "duration": 0.4137929999999983
                },
                {
                    "name": "G3",
                    "midi": 55,
                    "time": 274.362000374999,
                    "velocity": 0.4251968503937008,
                    "duration": 0.4137929999999983
                },
                {
                    "name": "G#3",
                    "midi": 56,
                    "time": 275.189586374999,
                    "velocity": 0.33070866141732286,
                    "duration": 0.4137929999999983
                },
                {
                    "name": "G#4",
                    "midi": 68,
                    "time": 275.189586374999,
                    "velocity": 0.4330708661417323,
                    "duration": 0.4137929999999983
                },
                {
                    "name": "G#3",
                    "midi": 56,
                    "time": 276.017172374999,
                    "velocity": 0.4409448818897638,
                    "duration": 0.4137929999999983
                },
                {
                    "name": "G#3",
                    "midi": 56,
                    "time": 276.430965374999,
                    "velocity": 0.3779527559055118,
                    "duration": 0.4137929999999983
                },
                {
                    "name": "G3",
                    "midi": 55,
                    "time": 276.844758374999,
                    "velocity": 0.33858267716535434,
                    "duration": 0.4137929999999983
                },
                {
                    "name": "D#3",
                    "midi": 51,
                    "time": 277.672344374999,
                    "velocity": 0.33858267716535434,
                    "duration": 0.4137929999999983
                },
                {
                    "name": "G#3",
                    "midi": 56,
                    "time": 278.499930374999,
                    "velocity": 0.3228346456692913,
                    "duration": 0.4137929999999983
                },
                {
                    "name": "G#3",
                    "midi": 56,
                    "time": 279.327516374999,
                    "velocity": 0.3937007874015748,
                    "duration": 0.4137929999999983
                },
                {
                    "name": "G#3",
                    "midi": 56,
                    "time": 279.741309374999,
                    "velocity": 0.33858267716535434,
                    "duration": 0.4137929999999983
                },
                {
                    "name": "G3",
                    "midi": 55,
                    "time": 280.155102374999,
                    "velocity": 0.3228346456692913,
                    "duration": 0.4137929999999983
                },
                {
                    "name": "G3",
                    "midi": 55,
                    "time": 280.982688374999,
                    "velocity": 0.4094488188976378,
                    "duration": 0.4137929999999983
                },
                {
                    "name": "G3",
                    "midi": 55,
                    "time": 281.396481374999,
                    "velocity": 0.3543307086614173,
                    "duration": 0.4137929999999983
                },
                {
                    "name": "C4",
                    "midi": 60,
                    "time": 281.810274374999,
                    "velocity": 0.4094488188976378,
                    "duration": 0.4137929999999983
                },
                {
                    "name": "A3",
                    "midi": 57,
                    "time": 282.224067374999,
                    "velocity": 0.3228346456692913,
                    "duration": 0.4137929999999983
                },
                {
                    "name": "D4",
                    "midi": 62,
                    "time": 282.637860374999,
                    "velocity": 0.3779527559055118,
                    "duration": 0.4137929999999983
                },
                {
                    "name": "G3",
                    "midi": 55,
                    "time": 283.051653374999,
                    "velocity": 0.33858267716535434,
                    "duration": 0.4137929999999983
                },
                {
                    "name": "C4",
                    "midi": 60,
                    "time": 283.465446374999,
                    "velocity": 0.3700787401574803,
                    "duration": 0.4137929999999983
                },
                {
                    "name": "F3",
                    "midi": 53,
                    "time": 283.879239374999,
                    "velocity": 0.36220472440944884,
                    "duration": 0.4137929999999983
                },
                {
                    "name": "B3",
                    "midi": 59,
                    "time": 284.293032374999,
                    "velocity": 0.4409448818897638,
                    "duration": 0.4137929999999983
                },
                {
                    "name": "E3",
                    "midi": 52,
                    "time": 284.70682537499897,
                    "velocity": 0.3228346456692913,
                    "duration": 0.4137929999999983
                },
                {
                    "name": "A3",
                    "midi": 57,
                    "time": 285.12061837499897,
                    "velocity": 0.36220472440944884,
                    "duration": 0.4137929999999983
                },
                {
                    "name": "D3",
                    "midi": 50,
                    "time": 285.53441137499897,
                    "velocity": 0.3700787401574803,
                    "duration": 0.4137929999999983
                },
                {
                    "name": "G3",
                    "midi": 55,
                    "time": 285.94820437499897,
                    "velocity": 0.3543307086614173,
                    "duration": 0.4137929999999983
                },
                {
                    "name": "F4",
                    "midi": 65,
                    "time": 286.36199737499896,
                    "velocity": 0.4251968503937008,
                    "duration": 0.4137929999999983
                },
                {
                    "name": "E4",
                    "midi": 64,
                    "time": 286.77579037499896,
                    "velocity": 0.3228346456692913,
                    "duration": 0.4137929999999983
                },
                {
                    "name": "F4",
                    "midi": 65,
                    "time": 287.18958337499896,
                    "velocity": 0.3700787401574803,
                    "duration": 0.4137929999999983
                },
                {
                    "name": "G4",
                    "midi": 67,
                    "time": 287.60337637499896,
                    "velocity": 0.4330708661417323,
                    "duration": 0.4137929999999983
                },
                {
                    "name": "G3",
                    "midi": 55,
                    "time": 288.01716937499896,
                    "velocity": 0.33070866141732286,
                    "duration": 0.4137929999999983
                },
                {
                    "name": "C4",
                    "midi": 60,
                    "time": 288.43096237499896,
                    "velocity": 0.4015748031496063,
                    "duration": 0.4137929999999983
                },
                {
                    "name": "A3",
                    "midi": 57,
                    "time": 288.84475537499895,
                    "velocity": 0.4015748031496063,
                    "duration": 0.4137929999999983
                },
                {
                    "name": "D4",
                    "midi": 62,
                    "time": 289.25854837499895,
                    "velocity": 0.3464566929133858,
                    "duration": 0.4137929999999983
                },
                {
                    "name": "G3",
                    "midi": 55,
                    "time": 289.67234137499895,
                    "velocity": 0.3700787401574803,
                    "duration": 0.4137929999999983
                },
                {
                    "name": "C4",
                    "midi": 60,
                    "time": 290.08613437499895,
                    "velocity": 0.31496062992125984,
                    "duration": 0.4137929999999983
                },
                {
                    "name": "A3",
                    "midi": 57,
                    "time": 290.49992737499895,
                    "velocity": 0.3228346456692913,
                    "duration": 0.4137929999999983
                },
                {
                    "name": "B3",
                    "midi": 59,
                    "time": 290.91372037499895,
                    "velocity": 0.4409448818897638,
                    "duration": 0.4137929999999983
                },
                {
                    "name": "E3",
                    "midi": 52,
                    "time": 291.32751337499894,
                    "velocity": 0.4015748031496063,
                    "duration": 0.4137929999999983
                },
                {
                    "name": "A3",
                    "midi": 57,
                    "time": 291.74130637499894,
                    "velocity": 0.3464566929133858,
                    "duration": 0.4137929999999983
                },
                {
                    "name": "D3",
                    "midi": 50,
                    "time": 292.15509937499894,
                    "velocity": 0.4330708661417323,
                    "duration": 0.4137929999999983
                },
                {
                    "name": "G3",
                    "midi": 55,
                    "time": 292.56889237499894,
                    "velocity": 0.3779527559055118,
                    "duration": 0.4137929999999983
                },
                {
                    "name": "F4",
                    "midi": 65,
                    "time": 292.98268537499894,
                    "velocity": 0.3700787401574803,
                    "duration": 0.4137929999999983
                },
                {
                    "name": "E4",
                    "midi": 64,
                    "time": 293.39647837499894,
                    "velocity": 0.4409448818897638,
                    "duration": 0.4137929999999983
                },
                {
                    "name": "F4",
                    "midi": 65,
                    "time": 293.81027137499893,
                    "velocity": 0.3779527559055118,
                    "duration": 0.4137929999999983
                },
                {
                    "name": "G4",
                    "midi": 67,
                    "time": 294.22406437499893,
                    "velocity": 0.33070866141732286,
                    "duration": 0.4137929999999983
                },
                {
                    "name": "G3",
                    "midi": 55,
                    "time": 294.63785737499893,
                    "velocity": 0.36220472440944884,
                    "duration": 0.4137929999999983
                },
                {
                    "name": "C4",
                    "midi": 60,
                    "time": 295.0516503749989,
                    "velocity": 0.33858267716535434,
                    "duration": 0.4137929999999983
                },
                {
                    "name": "G3",
                    "midi": 55,
                    "time": 295.8792363749989,
                    "velocity": 0.4409448818897638,
                    "duration": 0.4137929999999983
                },
                {
                    "name": "C4",
                    "midi": 60,
                    "time": 296.7068223749989,
                    "velocity": 0.4409448818897638,
                    "duration": 0.4137929999999983
                },
                {
                    "name": "G4",
                    "midi": 67,
                    "time": 297.5344083749989,
                    "velocity": 0.4330708661417323,
                    "duration": 0.4137929999999983
                },
                {
                    "name": "C4",
                    "midi": 60,
                    "time": 298.3619943749989,
                    "velocity": 0.3779527559055118,
                    "duration": 0.4137929999999983
                },
                {
                    "name": "G3",
                    "midi": 55,
                    "time": 299.1895803749989,
                    "velocity": 0.4251968503937008,
                    "duration": 0.4137929999999983
                },
                {
                    "name": "C4",
                    "midi": 60,
                    "time": 300.0171663749989,
                    "velocity": 0.33070866141732286,
                    "duration": 0.4137929999999983
                },
                {
                    "name": "G3",
                    "midi": 55,
                    "time": 300.8447523749989,
                    "velocity": 0.3700787401574803,
                    "duration": 0.4137929999999983
                },
                {
                    "name": "C4",
                    "midi": 60,
                    "time": 301.6723383749989,
                    "velocity": 0.31496062992125984,
                    "duration": 0.4137929999999983
                },
                {
                    "name": "G3",
                    "midi": 55,
                    "time": 302.0861313749989,
                    "velocity": 0.31496062992125984,
                    "duration": 0.4137929999999983
                },
                {
                    "name": "C4",
                    "midi": 60,
                    "time": 302.4999243749989,
                    "velocity": 0.4094488188976378,
                    "duration": 0.4137929999999983
                },
                {
                    "name": "G4",
                    "midi": 67,
                    "time": 302.9137173749989,
                    "velocity": 0.3228346456692913,
                    "duration": 0.4137929999999983
                },
                {
                    "name": "C5",
                    "midi": 72,
                    "time": 303.3275103749989,
                    "velocity": 0.33070866141732286,
                    "duration": 0.4137929999999983
                },
                {
                    "name": "G4",
                    "midi": 67,
                    "time": 303.7413033749989,
                    "velocity": 0.31496062992125984,
                    "duration": 0.4137929999999983
                },
                {
                    "name": "C5",
                    "midi": 72,
                    "time": 304.1550963749989,
                    "velocity": 0.3700787401574803,
                    "duration": 0.4137929999999983
                },
                {
                    "name": "G4",
                    "midi": 67,
                    "time": 304.5688893749989,
                    "velocity": 0.3228346456692913,
                    "duration": 0.4137929999999983
                },
                {
                    "name": "C4",
                    "midi": 60,
                    "time": 304.9826823749989,
                    "velocity": 0.33858267716535434,
                    "duration": 0.4137929999999983
                },
                {
                    "name": "C4",
                    "midi": 60,
                    "time": 306.6378543749989,
                    "velocity": 0.4015748031496063,
                    "duration": 0.4137929999999983
                },
                {
                    "name": "C5",
                    "midi": 72,
                    "time": 306.6378543749989,
                    "velocity": 0.41732283464566927,
                    "duration": 0.4137929999999983
                },
                {
                    "name": "C5",
                    "midi": 72,
                    "time": 308.2930263749989,
                    "velocity": 0.41732283464566927,
                    "duration": 0.4137929999999983
                },
                {
                    "name": "C4",
                    "midi": 60,
                    "time": 308.2930263749989,
                    "velocity": 0.31496062992125984,
                    "duration": 0.4137929999999983
                },
                {
                    "name": "C4",
                    "midi": 60,
                    "time": 309.94819837499887,
                    "velocity": 0.36220472440944884,
                    "duration": 0.3965516249999723
                },
                {
                    "name": "C3",
                    "midi": 48,
                    "time": 309.94819837499887,
                    "velocity": 0.3858267716535433,
                    "duration": 0.3965516249999723
                },
                {
                    "name": "C4",
                    "midi": 60,
                    "time": 310.77578437499886,
                    "velocity": 0.31496062992125984,
                    "duration": 0.3965516249999723
                },
                {
                    "name": "C3",
                    "midi": 48,
                    "time": 310.77578437499886,
                    "velocity": 0.33858267716535434,
                    "duration": 0.3965516249999723
                },
                {
                    "name": "C3",
                    "midi": 48,
                    "time": 311.60337037499886,
                    "velocity": 0.3543307086614173,
                    "duration": 0.3965516249999723
                }
            ],
            "controlChanges": {},
            "id": 1,
            "name": "'Moto perpetuo'   (1830)",
            "instrumentNumber": 1,
            "instrument": "bright acoustic piano",
            "instrumentFamily": "piano",
            "channelNumber": 0,
            "isPercussion": false
        },
        {
            "startTime": 0.827586,
            "duration": 311.99992199999906,
            "length": 1391,
            "notes": [
                {
                    "name": "C4",
                    "midi": 60,
                    "time": 0.827586,
                    "velocity": 0.31496062992125984,
                    "duration": 0.41379299999999997
                },
                {
                    "name": "G3",
                    "midi": 55,
                    "time": 0.827586,
                    "velocity": 0.25196850393700787,
                    "duration": 0.41379299999999997
                },
                {
                    "name": "E4",
                    "midi": 64,
                    "time": 0.827586,
                    "velocity": 0.2677165354330709,
                    "duration": 0.41379299999999997
                },
                {
                    "name": "G3",
                    "midi": 55,
                    "time": 1.655172,
                    "velocity": 0.2440944881889764,
                    "duration": 0.3965516250000001
                },
                {
                    "name": "C4",
                    "midi": 60,
                    "time": 1.655172,
                    "velocity": 0.23622047244094488,
                    "duration": 0.3965516250000001
                },
                {
                    "name": "E4",
                    "midi": 64,
                    "time": 1.655172,
                    "velocity": 0.33858267716535434,
                    "duration": 0.3965516250000001
                },
                {
                    "name": "D4",
                    "midi": 62,
                    "time": 2.4827580000000005,
                    "velocity": 0.31496062992125984,
                    "duration": 0.39655162499999985
                },
                {
                    "name": "G3",
                    "midi": 55,
                    "time": 2.4827580000000005,
                    "velocity": 0.3228346456692913,
                    "duration": 0.39655162499999985
                },
                {
                    "name": "F4",
                    "midi": 65,
                    "time": 2.4827580000000005,
                    "velocity": 0.2755905511811024,
                    "duration": 0.39655162499999985
                },
                {
                    "name": "D4",
                    "midi": 62,
                    "time": 3.3103440000000006,
                    "velocity": 0.30708661417322836,
                    "duration": 0.39655162499999985
                },
                {
                    "name": "G3",
                    "midi": 55,
                    "time": 3.3103440000000006,
                    "velocity": 0.3779527559055118,
                    "duration": 0.39655162499999985
                },
                {
                    "name": "F4",
                    "midi": 65,
                    "time": 3.3103440000000006,
                    "velocity": 0.2440944881889764,
                    "duration": 0.39655162499999985
                },
                {
                    "name": "E4",
                    "midi": 64,
                    "time": 4.137930000000001,
                    "velocity": 0.2755905511811024,
                    "duration": 0.39655162499999985
                },
                {
                    "name": "C4",
                    "midi": 60,
                    "time": 4.137930000000001,
                    "velocity": 0.31496062992125984,
                    "duration": 0.39655162499999985
                },
                {
                    "name": "G3",
                    "midi": 55,
                    "time": 4.137930000000001,
                    "velocity": 0.3228346456692913,
                    "duration": 0.39655162499999985
                },
                {
                    "name": "E4",
                    "midi": 64,
                    "time": 4.965516000000001,
                    "velocity": 0.33070866141732286,
                    "duration": 0.39655162499999985
                },
                {
                    "name": "G4",
                    "midi": 67,
                    "time": 4.965516000000001,
                    "velocity": 0.3228346456692913,
                    "duration": 0.39655162499999985
                },
                {
                    "name": "A3",
                    "midi": 57,
                    "time": 4.965516000000001,
                    "velocity": 0.2992125984251969,
                    "duration": 0.39655162499999985
                },
                {
                    "name": "D4",
                    "midi": 62,
                    "time": 5.379309000000001,
                    "velocity": 0.3464566929133858,
                    "duration": 0.39655162499999985
                },
                {
                    "name": "F4",
                    "midi": 65,
                    "time": 5.379309000000001,
                    "velocity": 0.3700787401574803,
                    "duration": 0.39655162499999985
                },
                {
                    "name": "A3",
                    "midi": 57,
                    "time": 5.379309000000001,
                    "velocity": 0.3228346456692913,
                    "duration": 0.39655162499999985
                },
                {
                    "name": "D4",
                    "midi": 62,
                    "time": 5.793102000000001,
                    "velocity": 0.3937007874015748,
                    "duration": 0.39655162499999985
                },
                {
                    "name": "F4",
                    "midi": 65,
                    "time": 5.793102000000001,
                    "velocity": 0.23622047244094488,
                    "duration": 0.39655162499999985
                },
                {
                    "name": "B3",
                    "midi": 59,
                    "time": 5.793102000000001,
                    "velocity": 0.28346456692913385,
                    "duration": 0.39655162499999985
                },
                {
                    "name": "C4",
                    "midi": 60,
                    "time": 6.206895000000001,
                    "velocity": 0.3858267716535433,
                    "duration": 0.39655162499999985
                },
                {
                    "name": "E4",
                    "midi": 64,
                    "time": 6.206895000000001,
                    "velocity": 0.29133858267716534,
                    "duration": 0.39655162499999985
                },
                {
                    "name": "D4",
                    "midi": 62,
                    "time": 6.620688000000001,
                    "velocity": 0.3779527559055118,
                    "duration": 0.39655162499999985
                },
                {
                    "name": "C4",
                    "midi": 60,
                    "time": 6.620688000000001,
                    "velocity": 0.36220472440944884,
                    "duration": 0.39655162499999985
                },
                {
                    "name": "F#4",
                    "midi": 66,
                    "time": 6.620688000000001,
                    "velocity": 0.3858267716535433,
                    "duration": 0.39655162499999985
                },
                {
                    "name": "G4",
                    "midi": 67,
                    "time": 7.034481000000001,
                    "velocity": 0.31496062992125984,
                    "duration": 0.39655162499999985
                },
                {
                    "name": "D4",
                    "midi": 62,
                    "time": 7.034481000000001,
                    "velocity": 0.28346456692913385,
                    "duration": 0.39655162499999985
                },
                {
                    "name": "B3",
                    "midi": 59,
                    "time": 7.034481000000001,
                    "velocity": 0.23622047244094488,
                    "duration": 0.39655162499999985
                },
                {
                    "name": "C4",
                    "midi": 60,
                    "time": 8.275860000000002,
                    "velocity": 0.3543307086614173,
                    "duration": 0.39655162500000074
                },
                {
                    "name": "E4",
                    "midi": 64,
                    "time": 8.275860000000002,
                    "velocity": 0.33858267716535434,
                    "duration": 0.39655162500000074
                },
                {
                    "name": "G3",
                    "midi": 55,
                    "time": 8.275860000000002,
                    "velocity": 0.29133858267716534,
                    "duration": 0.39655162500000074
                },
                {
                    "name": "D4",
                    "midi": 62,
                    "time": 9.103446000000002,
                    "velocity": 0.2677165354330709,
                    "duration": 0.39655162500000074
                },
                {
                    "name": "G3",
                    "midi": 55,
                    "time": 9.103446000000002,
                    "velocity": 0.3700787401574803,
                    "duration": 0.39655162500000074
                },
                {
                    "name": "F4",
                    "midi": 65,
                    "time": 9.103446000000002,
                    "velocity": 0.3858267716535433,
                    "duration": 0.39655162500000074
                },
                {
                    "name": "D4",
                    "midi": 62,
                    "time": 9.931032000000002,
                    "velocity": 0.33858267716535434,
                    "duration": 0.39655162500000074
                },
                {
                    "name": "G3",
                    "midi": 55,
                    "time": 9.931032000000002,
                    "velocity": 0.3937007874015748,
                    "duration": 0.39655162500000074
                },
                {
                    "name": "F4",
                    "midi": 65,
                    "time": 9.931032000000002,
                    "velocity": 0.3543307086614173,
                    "duration": 0.39655162500000074
                },
                {
                    "name": "G3",
                    "midi": 55,
                    "time": 10.758618000000002,
                    "velocity": 0.30708661417322836,
                    "duration": 0.39655162500000074
                },
                {
                    "name": "C4",
                    "midi": 60,
                    "time": 10.758618000000002,
                    "velocity": 0.3700787401574803,
                    "duration": 0.39655162500000074
                },
                {
                    "name": "E4",
                    "midi": 64,
                    "time": 10.758618000000002,
                    "velocity": 0.28346456692913385,
                    "duration": 0.39655162500000074
                },
                {
                    "name": "E4",
                    "midi": 64,
                    "time": 11.586204000000002,
                    "velocity": 0.2440944881889764,
                    "duration": 0.39655162500000074
                },
                {
                    "name": "A3",
                    "midi": 57,
                    "time": 11.586204000000002,
                    "velocity": 0.33070866141732286,
                    "duration": 0.39655162500000074
                },
                {
                    "name": "G4",
                    "midi": 67,
                    "time": 11.586204000000002,
                    "velocity": 0.3464566929133858,
                    "duration": 0.39655162500000074
                },
                {
                    "name": "A3",
                    "midi": 57,
                    "time": 11.999997000000002,
                    "velocity": 0.29133858267716534,
                    "duration": 0.39655162500000074
                },
                {
                    "name": "D4",
                    "midi": 62,
                    "time": 11.999997000000002,
                    "velocity": 0.3937007874015748,
                    "duration": 0.39655162500000074
                },
                {
                    "name": "F4",
                    "midi": 65,
                    "time": 11.999997000000002,
                    "velocity": 0.3228346456692913,
                    "duration": 0.39655162500000074
                },
                {
                    "name": "B3",
                    "midi": 59,
                    "time": 12.413790000000002,
                    "velocity": 0.33858267716535434,
                    "duration": 0.39655162500000074
                },
                {
                    "name": "D4",
                    "midi": 62,
                    "time": 12.413790000000002,
                    "velocity": 0.2992125984251969,
                    "duration": 0.39655162500000074
                },
                {
                    "name": "F4",
                    "midi": 65,
                    "time": 12.413790000000002,
                    "velocity": 0.2440944881889764,
                    "duration": 0.39655162500000074
                },
                {
                    "name": "C4",
                    "midi": 60,
                    "time": 12.827583000000002,
                    "velocity": 0.25196850393700787,
                    "duration": 0.39655162500000074
                },
                {
                    "name": "E4",
                    "midi": 64,
                    "time": 12.827583000000002,
                    "velocity": 0.28346456692913385,
                    "duration": 0.39655162500000074
                },
                {
                    "name": "A3",
                    "midi": 57,
                    "time": 13.241376000000002,
                    "velocity": 0.3937007874015748,
                    "duration": 0.39655162500000074
                },
                {
                    "name": "E4",
                    "midi": 64,
                    "time": 13.241376000000002,
                    "velocity": 0.30708661417322836,
                    "duration": 0.39655162500000074
                },
                {
                    "name": "C4",
                    "midi": 60,
                    "time": 13.241376000000002,
                    "velocity": 0.29133858267716534,
                    "duration": 0.39655162500000074
                },
                {
                    "name": "B3",
                    "midi": 59,
                    "time": 13.655169000000003,
                    "velocity": 0.3779527559055118,
                    "duration": 0.39655162500000074
                },
                {
                    "name": "D4",
                    "midi": 62,
                    "time": 13.655169000000003,
                    "velocity": 0.2677165354330709,
                    "duration": 0.39655162500000074
                },
                {
                    "name": "G#3",
                    "midi": 56,
                    "time": 14.068962000000003,
                    "velocity": 0.3858267716535433,
                    "duration": 0.39655162500000074
                },
                {
                    "name": "D4",
                    "midi": 62,
                    "time": 14.068962000000003,
                    "velocity": 0.30708661417322836,
                    "duration": 0.39655162500000074
                },
                {
                    "name": "B3",
                    "midi": 59,
                    "time": 14.068962000000003,
                    "velocity": 0.25984251968503935,
                    "duration": 0.39655162500000074
                },
                {
                    "name": "A3",
                    "midi": 57,
                    "time": 14.482755000000003,
                    "velocity": 0.25984251968503935,
                    "duration": 0.39655162500000074
                },
                {
                    "name": "C4",
                    "midi": 60,
                    "time": 14.482755000000003,
                    "velocity": 0.29133858267716534,
                    "duration": 0.39655162500000074
                },
                {
                    "name": "F#4",
                    "midi": 66,
                    "time": 14.896548000000003,
                    "velocity": 0.25196850393700787,
                    "duration": 0.39655162500000074
                },
                {
                    "name": "A3",
                    "midi": 57,
                    "time": 14.896548000000003,
                    "velocity": 0.2440944881889764,
                    "duration": 0.39655162500000074
                },
                {
                    "name": "C4",
                    "midi": 60,
                    "time": 14.896548000000003,
                    "velocity": 0.3464566929133858,
                    "duration": 0.39655162500000074
                },
                {
                    "name": "G4",
                    "midi": 67,
                    "time": 15.310341000000003,
                    "velocity": 0.31496062992125984,
                    "duration": 0.39655162500000074
                },
                {
                    "name": "B3",
                    "midi": 59,
                    "time": 15.310341000000003,
                    "velocity": 0.2992125984251969,
                    "duration": 0.39655162500000074
                },
                {
                    "name": "B4",
                    "midi": 71,
                    "time": 16.551720000000003,
                    "velocity": 0.31496062992125984,
                    "duration": 0.39655162500000074
                },
                {
                    "name": "D4",
                    "midi": 62,
                    "time": 16.551720000000003,
                    "velocity": 0.30708661417322836,
                    "duration": 0.39655162500000074
                },
                {
                    "name": "G4",
                    "midi": 67,
                    "time": 16.551720000000003,
                    "velocity": 0.3937007874015748,
                    "duration": 0.39655162500000074
                },
                {
                    "name": "C5",
                    "midi": 72,
                    "time": 17.379306000000003,
                    "velocity": 0.30708661417322836,
                    "duration": 0.39655162500000074
                },
                {
                    "name": "C4",
                    "midi": 60,
                    "time": 17.379306000000003,
                    "velocity": 0.2440944881889764,
                    "duration": 0.39655162500000074
                },
                {
                    "name": "G4",
                    "midi": 67,
                    "time": 17.379306000000003,
                    "velocity": 0.3228346456692913,
                    "duration": 0.39655162500000074
                },
                {
                    "name": "D5",
                    "midi": 74,
                    "time": 18.206892000000003,
                    "velocity": 0.2755905511811024,
                    "duration": 0.39655162500000074
                },
                {
                    "name": "A4",
                    "midi": 69,
                    "time": 18.206892000000003,
                    "velocity": 0.3779527559055118,
                    "duration": 0.39655162500000074
                },
                {
                    "name": "F4",
                    "midi": 65,
                    "time": 18.206892000000003,
                    "velocity": 0.2755905511811024,
                    "duration": 0.39655162500000074
                },
                {
                    "name": "C5",
                    "midi": 72,
                    "time": 19.034478000000004,
                    "velocity": 0.3779527559055118,
                    "duration": 0.39655162500000074
                },
                {
                    "name": "G4",
                    "midi": 67,
                    "time": 19.034478000000004,
                    "velocity": 0.36220472440944884,
                    "duration": 0.39655162500000074
                },
                {
                    "name": "E4",
                    "midi": 64,
                    "time": 19.034478000000004,
                    "velocity": 0.3543307086614173,
                    "duration": 0.39655162500000074
                },
                {
                    "name": "B4",
                    "midi": 71,
                    "time": 19.862064000000004,
                    "velocity": 0.36220472440944884,
                    "duration": 0.39655162500000074
                },
                {
                    "name": "G4",
                    "midi": 67,
                    "time": 19.862064000000004,
                    "velocity": 0.2755905511811024,
                    "duration": 0.39655162500000074
                },
                {
                    "name": "F4",
                    "midi": 65,
                    "time": 19.862064000000004,
                    "velocity": 0.2992125984251969,
                    "duration": 0.39655162500000074
                },
                {
                    "name": "G4",
                    "midi": 67,
                    "time": 20.275857000000006,
                    "velocity": 0.3858267716535433,
                    "duration": 0.39655162500000074
                },
                {
                    "name": "C5",
                    "midi": 72,
                    "time": 20.275857000000006,
                    "velocity": 0.3779527559055118,
                    "duration": 0.39655162500000074
                },
                {
                    "name": "E4",
                    "midi": 64,
                    "time": 20.275857000000006,
                    "velocity": 0.2677165354330709,
                    "duration": 0.39655162500000074
                },
                {
                    "name": "C4",
                    "midi": 60,
                    "time": 21.517236000000008,
                    "velocity": 0.25196850393700787,
                    "duration": 0.39655162500000074
                },
                {
                    "name": "C5",
                    "midi": 72,
                    "time": 21.517236000000008,
                    "velocity": 0.25196850393700787,
                    "duration": 0.39655162500000074
                },
                {
                    "name": "G4",
                    "midi": 67,
                    "time": 21.517236000000008,
                    "velocity": 0.3543307086614173,
                    "duration": 0.39655162500000074
                },
                {
                    "name": "A4",
                    "midi": 69,
                    "time": 22.344822000000008,
                    "velocity": 0.29133858267716534,
                    "duration": 0.39655162500000074
                },
                {
                    "name": "F4",
                    "midi": 65,
                    "time": 22.344822000000008,
                    "velocity": 0.30708661417322836,
                    "duration": 0.39655162500000074
                },
                {
                    "name": "C4",
                    "midi": 60,
                    "time": 22.344822000000008,
                    "velocity": 0.25984251968503935,
                    "duration": 0.39655162500000074
                },
                {
                    "name": "D4",
                    "midi": 62,
                    "time": 23.172408000000008,
                    "velocity": 0.3228346456692913,
                    "duration": 0.39655162500000074
                },
                {
                    "name": "G4",
                    "midi": 67,
                    "time": 23.172408000000008,
                    "velocity": 0.29133858267716534,
                    "duration": 0.39655162500000074
                },
                {
                    "name": "B3",
                    "midi": 59,
                    "time": 23.172408000000008,
                    "velocity": 0.25984251968503935,
                    "duration": 0.39655162500000074
                },
                {
                    "name": "E4",
                    "midi": 64,
                    "time": 23.58620100000001,
                    "velocity": 0.28346456692913385,
                    "duration": 0.39655162500000074
                },
                {
                    "name": "G3",
                    "midi": 55,
                    "time": 23.58620100000001,
                    "velocity": 0.3700787401574803,
                    "duration": 0.39655162500000074
                },
                {
                    "name": "C4",
                    "midi": 60,
                    "time": 23.58620100000001,
                    "velocity": 0.33070866141732286,
                    "duration": 0.39655162500000074
                },
                {
                    "name": "C5",
                    "midi": 72,
                    "time": 24.82758000000001,
                    "velocity": 0.2677165354330709,
                    "duration": 0.39655162500000074
                },
                {
                    "name": "G4",
                    "midi": 67,
                    "time": 24.82758000000001,
                    "velocity": 0.28346456692913385,
                    "duration": 0.39655162500000074
                },
                {
                    "name": "C4",
                    "midi": 60,
                    "time": 24.82758000000001,
                    "velocity": 0.3228346456692913,
                    "duration": 0.39655162500000074
                },
                {
                    "name": "F4",
                    "midi": 65,
                    "time": 25.655166000000012,
                    "velocity": 0.2677165354330709,
                    "duration": 0.39655162500000074
                },
                {
                    "name": "A4",
                    "midi": 69,
                    "time": 25.655166000000012,
                    "velocity": 0.3228346456692913,
                    "duration": 0.39655162500000074
                },
                {
                    "name": "C4",
                    "midi": 60,
                    "time": 25.655166000000012,
                    "velocity": 0.3858267716535433,
                    "duration": 0.39655162500000074
                },
                {
                    "name": "D4",
                    "midi": 62,
                    "time": 26.482752000000012,
                    "velocity": 0.3779527559055118,
                    "duration": 0.39655162500000074
                },
                {
                    "name": "G4",
                    "midi": 67,
                    "time": 26.482752000000012,
                    "velocity": 0.3228346456692913,
                    "duration": 0.39655162500000074
                },
                {
                    "name": "B3",
                    "midi": 59,
                    "time": 26.482752000000012,
                    "velocity": 0.28346456692913385,
                    "duration": 0.39655162500000074
                },
                {
                    "name": "G3",
                    "midi": 55,
                    "time": 27.310338000000012,
                    "velocity": 0.25196850393700787,
                    "duration": 0.39655162500000074
                },
                {
                    "name": "E4",
                    "midi": 64,
                    "time": 27.310338000000012,
                    "velocity": 0.31496062992125984,
                    "duration": 0.39655162500000074
                },
                {
                    "name": "C4",
                    "midi": 60,
                    "time": 27.310338000000012,
                    "velocity": 0.30708661417322836,
                    "duration": 0.39655162500000074
                },
                {
                    "name": "A3",
                    "midi": 57,
                    "time": 28.137924000000012,
                    "velocity": 0.2755905511811024,
                    "duration": 0.39655162500000074
                },
                {
                    "name": "E4",
                    "midi": 64,
                    "time": 28.137924000000012,
                    "velocity": 0.33070866141732286,
                    "duration": 0.39655162500000074
                },
                {
                    "name": "C4",
                    "midi": 60,
                    "time": 28.137924000000012,
                    "velocity": 0.3779527559055118,
                    "duration": 0.39655162500000074
                },
                {
                    "name": "G#4",
                    "midi": 68,
                    "time": 28.965510000000013,
                    "velocity": 0.29133858267716534,
                    "duration": 0.39655162500000074
                },
                {
                    "name": "D4",
                    "midi": 62,
                    "time": 28.965510000000013,
                    "velocity": 0.25984251968503935,
                    "duration": 0.39655162500000074
                },
                {
                    "name": "E4",
                    "midi": 64,
                    "time": 28.965510000000013,
                    "velocity": 0.3937007874015748,
                    "duration": 0.39655162500000074
                },
                {
                    "name": "A4",
                    "midi": 69,
                    "time": 29.793096000000013,
                    "velocity": 0.31496062992125984,
                    "duration": 0.39655162500000074
                },
                {
                    "name": "E4",
                    "midi": 64,
                    "time": 29.793096000000013,
                    "velocity": 0.31496062992125984,
                    "duration": 0.39655162500000074
                },
                {
                    "name": "C4",
                    "midi": 60,
                    "time": 29.793096000000013,
                    "velocity": 0.3779527559055118,
                    "duration": 0.39655162500000074
                },
                {
                    "name": "D4",
                    "midi": 62,
                    "time": 30.620682000000013,
                    "velocity": 0.36220472440944884,
                    "duration": 0.39655162500000074
                },
                {
                    "name": "C4",
                    "midi": 60,
                    "time": 30.620682000000013,
                    "velocity": 0.3464566929133858,
                    "duration": 0.39655162500000074
                },
                {
                    "name": "F#4",
                    "midi": 66,
                    "time": 30.620682000000013,
                    "velocity": 0.33070866141732286,
                    "duration": 0.39655162500000074
                },
                {
                    "name": "D4",
                    "midi": 62,
                    "time": 31.448268000000013,
                    "velocity": 0.25984251968503935,
                    "duration": 0.39655162500000074
                },
                {
                    "name": "B3",
                    "midi": 59,
                    "time": 31.448268000000013,
                    "velocity": 0.2992125984251969,
                    "duration": 0.39655162500000074
                },
                {
                    "name": "G4",
                    "midi": 67,
                    "time": 31.448268000000013,
                    "velocity": 0.31496062992125984,
                    "duration": 0.39655162500000074
                },
                {
                    "name": "E4",
                    "midi": 64,
                    "time": 32.27585400000002,
                    "velocity": 0.3779527559055118,
                    "duration": 0.39655162500000074
                },
                {
                    "name": "B3",
                    "midi": 59,
                    "time": 32.27585400000002,
                    "velocity": 0.33070866141732286,
                    "duration": 0.39655162500000074
                },
                {
                    "name": "G4",
                    "midi": 67,
                    "time": 32.27585400000002,
                    "velocity": 0.2677165354330709,
                    "duration": 0.39655162500000074
                },
                {
                    "name": "A3",
                    "midi": 57,
                    "time": 33.10344000000002,
                    "velocity": 0.2755905511811024,
                    "duration": 0.39655162500000074
                },
                {
                    "name": "E4",
                    "midi": 64,
                    "time": 33.10344000000002,
                    "velocity": 0.25984251968503935,
                    "duration": 0.39655162500000074
                },
                {
                    "name": "G4",
                    "midi": 67,
                    "time": 33.10344000000002,
                    "velocity": 0.33070866141732286,
                    "duration": 0.39655162500000074
                },
                {
                    "name": "F#3",
                    "midi": 54,
                    "time": 33.51723300000002,
                    "velocity": 0.25196850393700787,
                    "duration": 0.39655162500000074
                },
                {
                    "name": "A2",
                    "midi": 45,
                    "time": 33.51723300000002,
                    "velocity": 0.25196850393700787,
                    "duration": 0.39655162500000074
                },
                {
                    "name": "D3",
                    "midi": 50,
                    "time": 33.51723300000002,
                    "velocity": 0.33858267716535434,
                    "duration": 0.39655162500000074
                },
                {
                    "name": "A3",
                    "midi": 57,
                    "time": 34.75861200000002,
                    "velocity": 0.28346456692913385,
                    "duration": 0.39655162500000074
                },
                {
                    "name": "C3",
                    "midi": 48,
                    "time": 34.75861200000002,
                    "velocity": 0.2677165354330709,
                    "duration": 0.39655162500000074
                },
                {
                    "name": "D3",
                    "midi": 50,
                    "time": 34.75861200000002,
                    "velocity": 0.3858267716535433,
                    "duration": 0.39655162500000074
                },
                {
                    "name": "G3",
                    "midi": 55,
                    "time": 35.586198000000024,
                    "velocity": 0.3937007874015748,
                    "duration": 0.39655162500000074
                },
                {
                    "name": "B2",
                    "midi": 47,
                    "time": 35.586198000000024,
                    "velocity": 0.33858267716535434,
                    "duration": 0.39655162500000074
                },
                {
                    "name": "D3",
                    "midi": 50,
                    "time": 35.586198000000024,
                    "velocity": 0.3464566929133858,
                    "duration": 0.39655162500000074
                },
                {
                    "name": "C#3",
                    "midi": 49,
                    "time": 36.41378400000003,
                    "velocity": 0.3543307086614173,
                    "duration": 0.39655162500000074
                },
                {
                    "name": "E3",
                    "midi": 52,
                    "time": 36.41378400000003,
                    "velocity": 0.36220472440944884,
                    "duration": 0.39655162500000074
                },
                {
                    "name": "G3",
                    "midi": 55,
                    "time": 36.41378400000003,
                    "velocity": 0.2992125984251969,
                    "duration": 0.39655162500000074
                },
                {
                    "name": "F#3",
                    "midi": 54,
                    "time": 36.827577000000026,
                    "velocity": 0.25984251968503935,
                    "duration": 0.39655162500000074
                },
                {
                    "name": "D3",
                    "midi": 50,
                    "time": 36.827577000000026,
                    "velocity": 0.3543307086614173,
                    "duration": 0.39655162500000074
                },
                {
                    "name": "A2",
                    "midi": 45,
                    "time": 36.827577000000026,
                    "velocity": 0.23622047244094488,
                    "duration": 0.39655162500000074
                },
                {
                    "name": "A3",
                    "midi": 57,
                    "time": 38.06895600000003,
                    "velocity": 0.2992125984251969,
                    "duration": 0.39655162500000074
                },
                {
                    "name": "C3",
                    "midi": 48,
                    "time": 38.06895600000003,
                    "velocity": 0.23622047244094488,
                    "duration": 0.39655162500000074
                },
                {
                    "name": "D3",
                    "midi": 50,
                    "time": 38.06895600000003,
                    "velocity": 0.31496062992125984,
                    "duration": 0.39655162500000074
                },
                {
                    "name": "G3",
                    "midi": 55,
                    "time": 38.89654200000003,
                    "velocity": 0.30708661417322836,
                    "duration": 0.39655162500000074
                },
                {
                    "name": "D3",
                    "midi": 50,
                    "time": 38.89654200000003,
                    "velocity": 0.3700787401574803,
                    "duration": 0.39655162500000074
                },
                {
                    "name": "B2",
                    "midi": 47,
                    "time": 38.89654200000003,
                    "velocity": 0.30708661417322836,
                    "duration": 0.39655162500000074
                },
                {
                    "name": "A2",
                    "midi": 45,
                    "time": 39.724128000000036,
                    "velocity": 0.30708661417322836,
                    "duration": 0.39655162500000074
                },
                {
                    "name": "E2",
                    "midi": 40,
                    "time": 39.724128000000036,
                    "velocity": 0.2677165354330709,
                    "duration": 0.39655162500000074
                },
                {
                    "name": "C#3",
                    "midi": 49,
                    "time": 39.724128000000036,
                    "velocity": 0.3464566929133858,
                    "duration": 0.39655162500000074
                },
                {
                    "name": "D3",
                    "midi": 50,
                    "time": 40.137921000000034,
                    "velocity": 0.3464566929133858,
                    "duration": 0.39655162500000074
                },
                {
                    "name": "A2",
                    "midi": 45,
                    "time": 40.137921000000034,
                    "velocity": 0.2677165354330709,
                    "duration": 0.39655162500000074
                },
                {
                    "name": "F#2",
                    "midi": 42,
                    "time": 40.137921000000034,
                    "velocity": 0.3228346456692913,
                    "duration": 0.39655162500000074
                },
                {
                    "name": "C#3",
                    "midi": 49,
                    "time": 40.55171400000003,
                    "velocity": 0.33858267716535434,
                    "duration": 0.39655162500000074
                },
                {
                    "name": "A2",
                    "midi": 45,
                    "time": 40.55171400000003,
                    "velocity": 0.30708661417322836,
                    "duration": 0.39655162500000074
                },
                {
                    "name": "E3",
                    "midi": 52,
                    "time": 40.55171400000003,
                    "velocity": 0.36220472440944884,
                    "duration": 0.39655162500000074
                },
                {
                    "name": "F#3",
                    "midi": 54,
                    "time": 40.96550700000003,
                    "velocity": 0.25984251968503935,
                    "duration": 0.39655162500000074
                },
                {
                    "name": "A2",
                    "midi": 45,
                    "time": 40.96550700000003,
                    "velocity": 0.3228346456692913,
                    "duration": 0.39655162500000074
                },
                {
                    "name": "D3",
                    "midi": 50,
                    "time": 40.96550700000003,
                    "velocity": 0.29133858267716534,
                    "duration": 0.39655162500000074
                },
                {
                    "name": "G2",
                    "midi": 43,
                    "time": 41.37930000000003,
                    "velocity": 0.25196850393700787,
                    "duration": 0.39655162500000074
                },
                {
                    "name": "C#3",
                    "midi": 49,
                    "time": 41.37930000000003,
                    "velocity": 0.3937007874015748,
                    "duration": 0.39655162500000074
                },
                {
                    "name": "A2",
                    "midi": 45,
                    "time": 41.37930000000003,
                    "velocity": 0.23622047244094488,
                    "duration": 0.39655162500000074
                },
                {
                    "name": "D3",
                    "midi": 50,
                    "time": 41.79309300000003,
                    "velocity": 0.33858267716535434,
                    "duration": 0.39655162500000074
                },
                {
                    "name": "A2",
                    "midi": 45,
                    "time": 41.79309300000003,
                    "velocity": 0.30708661417322836,
                    "duration": 0.39655162500000074
                },
                {
                    "name": "F#2",
                    "midi": 42,
                    "time": 41.79309300000003,
                    "velocity": 0.2677165354330709,
                    "duration": 0.39655162500000074
                },
                {
                    "name": "C#3",
                    "midi": 49,
                    "time": 42.206886000000026,
                    "velocity": 0.30708661417322836,
                    "duration": 0.39655162500000074
                },
                {
                    "name": "A2",
                    "midi": 45,
                    "time": 42.206886000000026,
                    "velocity": 0.33858267716535434,
                    "duration": 0.39655162500000074
                },
                {
                    "name": "E3",
                    "midi": 52,
                    "time": 42.206886000000026,
                    "velocity": 0.33070866141732286,
                    "duration": 0.39655162500000074
                },
                {
                    "name": "F#3",
                    "midi": 54,
                    "time": 42.620679000000024,
                    "velocity": 0.2677165354330709,
                    "duration": 0.39655162500000074
                },
                {
                    "name": "D3",
                    "midi": 50,
                    "time": 42.620679000000024,
                    "velocity": 0.36220472440944884,
                    "duration": 0.39655162500000074
                },
                {
                    "name": "A2",
                    "midi": 45,
                    "time": 42.620679000000024,
                    "velocity": 0.3779527559055118,
                    "duration": 0.39655162500000074
                },
                {
                    "name": "G2",
                    "midi": 43,
                    "time": 43.03447200000002,
                    "velocity": 0.25196850393700787,
                    "duration": 0.39655162500000074
                },
                {
                    "name": "A2",
                    "midi": 45,
                    "time": 43.03447200000002,
                    "velocity": 0.3464566929133858,
                    "duration": 0.39655162500000074
                },
                {
                    "name": "C#3",
                    "midi": 49,
                    "time": 43.03447200000002,
                    "velocity": 0.31496062992125984,
                    "duration": 0.39655162500000074
                },
                {
                    "name": "A2",
                    "midi": 45,
                    "time": 43.44826500000002,
                    "velocity": 0.25196850393700787,
                    "duration": 0.39655162500000074
                },
                {
                    "name": "D3",
                    "midi": 50,
                    "time": 43.44826500000002,
                    "velocity": 0.23622047244094488,
                    "duration": 0.39655162500000074
                },
                {
                    "name": "F#2",
                    "midi": 42,
                    "time": 43.44826500000002,
                    "velocity": 0.3464566929133858,
                    "duration": 0.39655162500000074
                },
                {
                    "name": "D3",
                    "midi": 50,
                    "time": 44.68964400000002,
                    "velocity": 0.25196850393700787,
                    "duration": 0.39655162500000074
                },
                {
                    "name": "C3",
                    "midi": 48,
                    "time": 44.68964400000002,
                    "velocity": 0.25196850393700787,
                    "duration": 0.39655162500000074
                },
                {
                    "name": "A3",
                    "midi": 57,
                    "time": 44.68964400000002,
                    "velocity": 0.2677165354330709,
                    "duration": 0.39655162500000074
                },
                {
                    "name": "G3",
                    "midi": 55,
                    "time": 45.517230000000026,
                    "velocity": 0.2755905511811024,
                    "duration": 0.39655162500000074
                },
                {
                    "name": "D3",
                    "midi": 50,
                    "time": 45.517230000000026,
                    "velocity": 0.28346456692913385,
                    "duration": 0.39655162500000074
                },
                {
                    "name": "B2",
                    "midi": 47,
                    "time": 45.517230000000026,
                    "velocity": 0.2677165354330709,
                    "duration": 0.39655162500000074
                },
                {
                    "name": "F#3",
                    "midi": 54,
                    "time": 46.34481600000003,
                    "velocity": 0.2755905511811024,
                    "duration": 0.39655162500000074
                },
                {
                    "name": "A2",
                    "midi": 45,
                    "time": 46.34481600000003,
                    "velocity": 0.33070866141732286,
                    "duration": 0.39655162500000074
                },
                {
                    "name": "B2",
                    "midi": 47,
                    "time": 46.34481600000003,
                    "velocity": 0.3858267716535433,
                    "duration": 0.39655162500000074
                },
                {
                    "name": "B2",
                    "midi": 47,
                    "time": 47.172402000000034,
                    "velocity": 0.3779527559055118,
                    "duration": 0.39655162500000074
                },
                {
                    "name": "G2",
                    "midi": 43,
                    "time": 47.172402000000034,
                    "velocity": 0.3937007874015748,
                    "duration": 0.39655162500000074
                },
                {
                    "name": "E3",
                    "midi": 52,
                    "time": 47.172402000000034,
                    "velocity": 0.30708661417322836,
                    "duration": 0.39655162500000074
                },
                {
                    "name": "G2",
                    "midi": 43,
                    "time": 47.99998800000004,
                    "velocity": 0.30708661417322836,
                    "duration": 0.39655162500000074
                },
                {
                    "name": "D3",
                    "midi": 50,
                    "time": 47.99998800000004,
                    "velocity": 0.3779527559055118,
                    "duration": 0.39655162500000074
                },
                {
                    "name": "B2",
                    "midi": 47,
                    "time": 47.99998800000004,
                    "velocity": 0.29133858267716534,
                    "duration": 0.39655162500000074
                },
                {
                    "name": "E3",
                    "midi": 52,
                    "time": 48.413781000000036,
                    "velocity": 0.3464566929133858,
                    "duration": 0.39655162500000074
                },
                {
                    "name": "G2",
                    "midi": 43,
                    "time": 48.413781000000036,
                    "velocity": 0.3543307086614173,
                    "duration": 0.39655162500000074
                },
                {
                    "name": "C3",
                    "midi": 48,
                    "time": 48.413781000000036,
                    "velocity": 0.30708661417322836,
                    "duration": 0.39655162500000074
                },
                {
                    "name": "G3",
                    "midi": 55,
                    "time": 49.24136700000004,
                    "velocity": 0.25196850393700787,
                    "duration": 0.39655162500000074
                },
                {
                    "name": "B2",
                    "midi": 47,
                    "time": 49.24136700000004,
                    "velocity": 0.31496062992125984,
                    "duration": 0.39655162500000074
                },
                {
                    "name": "D3",
                    "midi": 50,
                    "time": 49.24136700000004,
                    "velocity": 0.36220472440944884,
                    "duration": 0.39655162500000074
                },
                {
                    "name": "F#3",
                    "midi": 54,
                    "time": 49.65516000000004,
                    "velocity": 0.3700787401574803,
                    "duration": 0.39655162500000074
                },
                {
                    "name": "C3",
                    "midi": 48,
                    "time": 49.65516000000004,
                    "velocity": 0.3937007874015748,
                    "duration": 0.39655162500000074
                },
                {
                    "name": "D3",
                    "midi": 50,
                    "time": 49.65516000000004,
                    "velocity": 0.3228346456692913,
                    "duration": 0.39655162500000074
                },
                {
                    "name": "G3",
                    "midi": 55,
                    "time": 50.068953000000036,
                    "velocity": 0.33070866141732286,
                    "duration": 0.39655162500000074
                },
                {
                    "name": "B2",
                    "midi": 47,
                    "time": 50.068953000000036,
                    "velocity": 0.3543307086614173,
                    "duration": 0.39655162500000074
                },
                {
                    "name": "D3",
                    "midi": 50,
                    "time": 50.068953000000036,
                    "velocity": 0.3543307086614173,
                    "duration": 0.39655162500000074
                },
                {
                    "name": "G#3",
                    "midi": 56,
                    "time": 50.482746000000034,
                    "velocity": 0.28346456692913385,
                    "duration": 0.39655162500000074
                },
                {
                    "name": "B2",
                    "midi": 47,
                    "time": 50.482746000000034,
                    "velocity": 0.25196850393700787,
                    "duration": 0.39655162500000074
                },
                {
                    "name": "E3",
                    "midi": 52,
                    "time": 50.482746000000034,
                    "velocity": 0.2755905511811024,
                    "duration": 0.39655162500000074
                },
                {
                    "name": "A3",
                    "midi": 57,
                    "time": 50.89653900000003,
                    "velocity": 0.3779527559055118,
                    "duration": 0.39655162500000074
                },
                {
                    "name": "C3",
                    "midi": 48,
                    "time": 50.89653900000003,
                    "velocity": 0.3779527559055118,
                    "duration": 0.39655162500000074
                },
                {
                    "name": "E3",
                    "midi": 52,
                    "time": 50.89653900000003,
                    "velocity": 0.3937007874015748,
                    "duration": 0.39655162500000074
                },
                {
                    "name": "F#3",
                    "midi": 54,
                    "time": 51.31033200000003,
                    "velocity": 0.3543307086614173,
                    "duration": 0.39655162500000074
                },
                {
                    "name": "D3",
                    "midi": 50,
                    "time": 51.31033200000003,
                    "velocity": 0.33070866141732286,
                    "duration": 0.39655162500000074
                },
                {
                    "name": "A2",
                    "midi": 45,
                    "time": 51.31033200000003,
                    "velocity": 0.33858267716535434,
                    "duration": 0.39655162500000074
                },
                {
                    "name": "B2",
                    "midi": 47,
                    "time": 51.72412500000003,
                    "velocity": 0.2992125984251969,
                    "duration": 0.39655162500000074
                },
                {
                    "name": "G3",
                    "midi": 55,
                    "time": 51.72412500000003,
                    "velocity": 0.36220472440944884,
                    "duration": 0.39655162500000074
                },
                {
                    "name": "D3",
                    "midi": 50,
                    "time": 51.72412500000003,
                    "velocity": 0.28346456692913385,
                    "duration": 0.39655162500000074
                },
                {
                    "name": "E3",
                    "midi": 52,
                    "time": 52.13791800000003,
                    "velocity": 0.3858267716535433,
                    "duration": 0.39655162500000074
                },
                {
                    "name": "C3",
                    "midi": 48,
                    "time": 52.13791800000003,
                    "velocity": 0.3464566929133858,
                    "duration": 0.39655162500000074
                },
                {
                    "name": "G2",
                    "midi": 43,
                    "time": 52.13791800000003,
                    "velocity": 0.3779527559055118,
                    "duration": 0.39655162500000074
                },
                {
                    "name": "F#3",
                    "midi": 54,
                    "time": 52.551711000000026,
                    "velocity": 0.2755905511811024,
                    "duration": 0.39655162500000074
                },
                {
                    "name": "A2",
                    "midi": 45,
                    "time": 52.551711000000026,
                    "velocity": 0.2755905511811024,
                    "duration": 0.39655162500000074
                },
                {
                    "name": "C3",
                    "midi": 48,
                    "time": 52.551711000000026,
                    "velocity": 0.3779527559055118,
                    "duration": 0.39655162500000074
                },
                {
                    "name": "F#2",
                    "midi": 42,
                    "time": 52.965504000000024,
                    "velocity": 0.33858267716535434,
                    "duration": 0.39655162500000074
                },
                {
                    "name": "D#3",
                    "midi": 51,
                    "time": 52.965504000000024,
                    "velocity": 0.2755905511811024,
                    "duration": 0.39655162500000074
                },
                {
                    "name": "B2",
                    "midi": 47,
                    "time": 52.965504000000024,
                    "velocity": 0.25984251968503935,
                    "duration": 0.39655162500000074
                },
                {
                    "name": "E3",
                    "midi": 52,
                    "time": 53.37929700000002,
                    "velocity": 0.2992125984251969,
                    "duration": 0.39655162500000074
                },
                {
                    "name": "G2",
                    "midi": 43,
                    "time": 53.37929700000002,
                    "velocity": 0.3543307086614173,
                    "duration": 0.39655162500000074
                },
                {
                    "name": "B2",
                    "midi": 47,
                    "time": 53.37929700000002,
                    "velocity": 0.25196850393700787,
                    "duration": 0.39655162500000074
                },
                {
                    "name": "A2",
                    "midi": 45,
                    "time": 53.79309000000002,
                    "velocity": 0.3543307086614173,
                    "duration": 0.39655162500000074
                },
                {
                    "name": "E2",
                    "midi": 40,
                    "time": 53.79309000000002,
                    "velocity": 0.3464566929133858,
                    "duration": 0.39655162500000074
                },
                {
                    "name": "C#3",
                    "midi": 49,
                    "time": 53.79309000000002,
                    "velocity": 0.33070866141732286,
                    "duration": 0.39655162500000074
                },
                {
                    "name": "D3",
                    "midi": 50,
                    "time": 54.20688300000002,
                    "velocity": 0.3937007874015748,
                    "duration": 0.39655162500000074
                },
                {
                    "name": "F#2",
                    "midi": 42,
                    "time": 54.20688300000002,
                    "velocity": 0.25984251968503935,
                    "duration": 0.39655162500000074
                },
                {
                    "name": "A2",
                    "midi": 45,
                    "time": 54.20688300000002,
                    "velocity": 0.33070866141732286,
                    "duration": 0.39655162500000074
                },
                {
                    "name": "D3",
                    "midi": 50,
                    "time": 54.62067600000002,
                    "velocity": 0.3937007874015748,
                    "duration": 0.39655162500000074
                },
                {
                    "name": "A2",
                    "midi": 45,
                    "time": 54.62067600000002,
                    "velocity": 0.29133858267716534,
                    "duration": 0.39655162500000074
                },
                {
                    "name": "F#3",
                    "midi": 54,
                    "time": 54.62067600000002,
                    "velocity": 0.3858267716535433,
                    "duration": 0.39655162500000074
                },
                {
                    "name": "G3",
                    "midi": 55,
                    "time": 55.034469000000016,
                    "velocity": 0.30708661417322836,
                    "duration": 0.39655162500000074
                },
                {
                    "name": "B2",
                    "midi": 47,
                    "time": 55.034469000000016,
                    "velocity": 0.36220472440944884,
                    "duration": 0.39655162500000074
                },
                {
                    "name": "D3",
                    "midi": 50,
                    "time": 55.034469000000016,
                    "velocity": 0.3464566929133858,
                    "duration": 0.39655162500000074
                },
                {
                    "name": "E3",
                    "midi": 52,
                    "time": 55.448262000000014,
                    "velocity": 0.3543307086614173,
                    "duration": 0.39655162500000074
                },
                {
                    "name": "A3",
                    "midi": 57,
                    "time": 55.448262000000014,
                    "velocity": 0.3700787401574803,
                    "duration": 0.39655162500000074
                },
                {
                    "name": "D3",
                    "midi": 50,
                    "time": 55.86205500000001,
                    "velocity": 0.25984251968503935,
                    "duration": 0.39655162500000074
                },
                {
                    "name": "G3",
                    "midi": 55,
                    "time": 55.86205500000001,
                    "velocity": 0.3779527559055118,
                    "duration": 0.39655162500000074
                },
                {
                    "name": "B3",
                    "midi": 59,
                    "time": 55.86205500000001,
                    "velocity": 0.3779527559055118,
                    "duration": 0.39655162500000074
                },
                {
                    "name": "F#3",
                    "midi": 54,
                    "time": 56.27584800000001,
                    "velocity": 0.2440944881889764,
                    "duration": 0.39655162500000074
                },
                {
                    "name": "C3",
                    "midi": 48,
                    "time": 56.27584800000001,
                    "velocity": 0.3937007874015748,
                    "duration": 0.39655162500000074
                },
                {
                    "name": "A3",
                    "midi": 57,
                    "time": 56.27584800000001,
                    "velocity": 0.28346456692913385,
                    "duration": 0.39655162500000074
                },
                {
                    "name": "D3",
                    "midi": 50,
                    "time": 56.68964100000001,
                    "velocity": 0.23622047244094488,
                    "duration": 0.39655162500000074
                },
                {
                    "name": "G3",
                    "midi": 55,
                    "time": 56.68964100000001,
                    "velocity": 0.3700787401574803,
                    "duration": 0.39655162500000074
                },
                {
                    "name": "B2",
                    "midi": 47,
                    "time": 56.68964100000001,
                    "velocity": 0.2677165354330709,
                    "duration": 0.39655162500000074
                },
                {
                    "name": "E3",
                    "midi": 52,
                    "time": 57.10343400000001,
                    "velocity": 0.25196850393700787,
                    "duration": 0.39655162500000074
                },
                {
                    "name": "B2",
                    "midi": 47,
                    "time": 57.10343400000001,
                    "velocity": 0.25984251968503935,
                    "duration": 0.39655162500000074
                },
                {
                    "name": "G#3",
                    "midi": 56,
                    "time": 57.10343400000001,
                    "velocity": 0.3937007874015748,
                    "duration": 0.39655162500000074
                },
                {
                    "name": "A3",
                    "midi": 57,
                    "time": 57.517227000000005,
                    "velocity": 0.3543307086614173,
                    "duration": 0.39655162500000074
                },
                {
                    "name": "E3",
                    "midi": 52,
                    "time": 57.517227000000005,
                    "velocity": 0.2440944881889764,
                    "duration": 0.39655162500000074
                },
                {
                    "name": "C3",
                    "midi": 48,
                    "time": 57.517227000000005,
                    "velocity": 0.3937007874015748,
                    "duration": 0.39655162500000074
                },
                {
                    "name": "F#3",
                    "midi": 54,
                    "time": 57.931020000000004,
                    "velocity": 0.28346456692913385,
                    "duration": 0.39655162500000074
                },
                {
                    "name": "D3",
                    "midi": 50,
                    "time": 57.931020000000004,
                    "velocity": 0.33858267716535434,
                    "duration": 0.39655162500000074
                },
                {
                    "name": "A2",
                    "midi": 45,
                    "time": 57.931020000000004,
                    "velocity": 0.25196850393700787,
                    "duration": 0.39655162500000074
                },
                {
                    "name": "G3",
                    "midi": 55,
                    "time": 58.344813,
                    "velocity": 0.3700787401574803,
                    "duration": 0.39655162500000074
                },
                {
                    "name": "D3",
                    "midi": 50,
                    "time": 58.344813,
                    "velocity": 0.3779527559055118,
                    "duration": 0.39655162500000074
                },
                {
                    "name": "B2",
                    "midi": 47,
                    "time": 58.344813,
                    "velocity": 0.25196850393700787,
                    "duration": 0.39655162500000074
                },
                {
                    "name": "E3",
                    "midi": 52,
                    "time": 58.758606,
                    "velocity": 0.3700787401574803,
                    "duration": 0.39655162500000074
                },
                {
                    "name": "G2",
                    "midi": 43,
                    "time": 58.758606,
                    "velocity": 0.2440944881889764,
                    "duration": 0.39655162500000074
                },
                {
                    "name": "C3",
                    "midi": 48,
                    "time": 58.758606,
                    "velocity": 0.25984251968503935,
                    "duration": 0.39655162500000074
                },
                {
                    "name": "F#3",
                    "midi": 54,
                    "time": 59.172399,
                    "velocity": 0.29133858267716534,
                    "duration": 0.39655162500000074
                },
                {
                    "name": "A2",
                    "midi": 45,
                    "time": 59.172399,
                    "velocity": 0.33858267716535434,
                    "duration": 0.39655162500000074
                },
                {
                    "name": "C3",
                    "midi": 48,
                    "time": 59.172399,
                    "velocity": 0.3937007874015748,
                    "duration": 0.39655162500000074
                },
                {
                    "name": "F#2",
                    "midi": 42,
                    "time": 59.586192,
                    "velocity": 0.3858267716535433,
                    "duration": 0.39655162500000074
                },
                {
                    "name": "D#3",
                    "midi": 51,
                    "time": 59.586192,
                    "velocity": 0.25984251968503935,
                    "duration": 0.39655162500000074
                },
                {
                    "name": "B2",
                    "midi": 47,
                    "time": 59.586192,
                    "velocity": 0.36220472440944884,
                    "duration": 0.39655162500000074
                },
                {
                    "name": "E3",
                    "midi": 52,
                    "time": 59.999984999999995,
                    "velocity": 0.23622047244094488,
                    "duration": 0.39655162500000074
                },
                {
                    "name": "G2",
                    "midi": 43,
                    "time": 59.999984999999995,
                    "velocity": 0.25984251968503935,
                    "duration": 0.39655162500000074
                },
                {
                    "name": "B2",
                    "midi": 47,
                    "time": 59.999984999999995,
                    "velocity": 0.25984251968503935,
                    "duration": 0.39655162500000074
                },
                {
                    "name": "A2",
                    "midi": 45,
                    "time": 60.41377799999999,
                    "velocity": 0.33858267716535434,
                    "duration": 0.39655162500000074
                },
                {
                    "name": "E2",
                    "midi": 40,
                    "time": 60.41377799999999,
                    "velocity": 0.33070866141732286,
                    "duration": 0.39655162500000074
                },
                {
                    "name": "C#3",
                    "midi": 49,
                    "time": 60.41377799999999,
                    "velocity": 0.2677165354330709,
                    "duration": 0.39655162500000074
                },
                {
                    "name": "D3",
                    "midi": 50,
                    "time": 60.82757099999999,
                    "velocity": 0.3858267716535433,
                    "duration": 0.39655162500000074
                },
                {
                    "name": "F#2",
                    "midi": 42,
                    "time": 60.82757099999999,
                    "velocity": 0.31496062992125984,
                    "duration": 0.39655162500000074
                },
                {
                    "name": "A2",
                    "midi": 45,
                    "time": 60.82757099999999,
                    "velocity": 0.3543307086614173,
                    "duration": 0.39655162500000074
                },
                {
                    "name": "D3",
                    "midi": 50,
                    "time": 61.24136399999999,
                    "velocity": 0.3464566929133858,
                    "duration": 0.39655162500000074
                },
                {
                    "name": "F#3",
                    "midi": 54,
                    "time": 61.24136399999999,
                    "velocity": 0.2440944881889764,
                    "duration": 0.39655162500000074
                },
                {
                    "name": "A2",
                    "midi": 45,
                    "time": 61.24136399999999,
                    "velocity": 0.2440944881889764,
                    "duration": 0.39655162500000074
                },
                {
                    "name": "G3",
                    "midi": 55,
                    "time": 61.65515699999999,
                    "velocity": 0.3937007874015748,
                    "duration": 0.39655162500000074
                },
                {
                    "name": "D3",
                    "midi": 50,
                    "time": 61.65515699999999,
                    "velocity": 0.2440944881889764,
                    "duration": 0.39655162500000074
                },
                {
                    "name": "B2",
                    "midi": 47,
                    "time": 61.65515699999999,
                    "velocity": 0.30708661417322836,
                    "duration": 0.39655162500000074
                },
                {
                    "name": "A3",
                    "midi": 57,
                    "time": 62.06894999999999,
                    "velocity": 0.3543307086614173,
                    "duration": 0.39655162500000074
                },
                {
                    "name": "E3",
                    "midi": 52,
                    "time": 62.06894999999999,
                    "velocity": 0.33070866141732286,
                    "duration": 0.39655162500000074
                },
                {
                    "name": "B3",
                    "midi": 59,
                    "time": 62.482742999999985,
                    "velocity": 0.3543307086614173,
                    "duration": 0.39655162500000074
                },
                {
                    "name": "D3",
                    "midi": 50,
                    "time": 62.482742999999985,
                    "velocity": 0.25196850393700787,
                    "duration": 0.39655162500000074
                },
                {
                    "name": "G3",
                    "midi": 55,
                    "time": 62.482742999999985,
                    "velocity": 0.2677165354330709,
                    "duration": 0.39655162500000074
                },
                {
                    "name": "F#3",
                    "midi": 54,
                    "time": 62.89653599999998,
                    "velocity": 0.2755905511811024,
                    "duration": 0.39655162500000074
                },
                {
                    "name": "A3",
                    "midi": 57,
                    "time": 62.89653599999998,
                    "velocity": 0.23622047244094488,
                    "duration": 0.39655162500000074
                },
                {
                    "name": "C3",
                    "midi": 48,
                    "time": 62.89653599999998,
                    "velocity": 0.25196850393700787,
                    "duration": 0.39655162500000074
                },
                {
                    "name": "D3",
                    "midi": 50,
                    "time": 63.72412199999999,
                    "velocity": 0.2677165354330709,
                    "duration": 0.39655162499999363
                },
                {
                    "name": "G3",
                    "midi": 55,
                    "time": 63.72412199999999,
                    "velocity": 0.3543307086614173,
                    "duration": 0.39655162499999363
                },
                {
                    "name": "B2",
                    "midi": 47,
                    "time": 63.72412199999999,
                    "velocity": 0.29133858267716534,
                    "duration": 0.39655162499999363
                },
                {
                    "name": "A3",
                    "midi": 57,
                    "time": 64.55170799999998,
                    "velocity": 0.23622047244094488,
                    "duration": 0.39655162500000074
                },
                {
                    "name": "D3",
                    "midi": 50,
                    "time": 64.55170799999998,
                    "velocity": 0.29133858267716534,
                    "duration": 0.39655162500000074
                },
                {
                    "name": "C3",
                    "midi": 48,
                    "time": 64.55170799999998,
                    "velocity": 0.2755905511811024,
                    "duration": 0.39655162500000074
                },
                {
                    "name": "G3",
                    "midi": 55,
                    "time": 65.37929399999997,
                    "velocity": 0.29133858267716534,
                    "duration": 0.39655162500000074
                },
                {
                    "name": "B2",
                    "midi": 47,
                    "time": 65.37929399999997,
                    "velocity": 0.23622047244094488,
                    "duration": 0.39655162500000074
                },
                {
                    "name": "D3",
                    "midi": 50,
                    "time": 65.37929399999997,
                    "velocity": 0.25984251968503935,
                    "duration": 0.39655162500000074
                },
                {
                    "name": "F#3",
                    "midi": 54,
                    "time": 66.20687999999997,
                    "velocity": 0.3228346456692913,
                    "duration": 0.39655162500000074
                },
                {
                    "name": "D3",
                    "midi": 50,
                    "time": 66.20687999999997,
                    "velocity": 0.3228346456692913,
                    "duration": 0.39655162500000074
                },
                {
                    "name": "C3",
                    "midi": 48,
                    "time": 66.20687999999997,
                    "velocity": 0.31496062992125984,
                    "duration": 0.39655162500000074
                },
                {
                    "name": "G3",
                    "midi": 55,
                    "time": 67.03446599999997,
                    "velocity": 0.3937007874015748,
                    "duration": 0.39655162500000074
                },
                {
                    "name": "D3",
                    "midi": 50,
                    "time": 67.03446599999997,
                    "velocity": 0.3700787401574803,
                    "duration": 0.39655162500000074
                },
                {
                    "name": "B2",
                    "midi": 47,
                    "time": 67.03446599999997,
                    "velocity": 0.3700787401574803,
                    "duration": 0.39655162500000074
                },
                {
                    "name": "F#3",
                    "midi": 54,
                    "time": 67.86205199999996,
                    "velocity": 0.3228346456692913,
                    "duration": 0.39655162500000074
                },
                {
                    "name": "D3",
                    "midi": 50,
                    "time": 67.86205199999996,
                    "velocity": 0.2755905511811024,
                    "duration": 0.39655162500000074
                },
                {
                    "name": "C3",
                    "midi": 48,
                    "time": 67.86205199999996,
                    "velocity": 0.3464566929133858,
                    "duration": 0.39655162500000074
                },
                {
                    "name": "D3",
                    "midi": 50,
                    "time": 68.27584499999996,
                    "velocity": 0.2992125984251969,
                    "duration": 0.39655162500000074
                },
                {
                    "name": "G3",
                    "midi": 55,
                    "time": 68.27584499999996,
                    "velocity": 0.25196850393700787,
                    "duration": 0.39655162500000074
                },
                {
                    "name": "B2",
                    "midi": 47,
                    "time": 68.27584499999996,
                    "velocity": 0.31496062992125984,
                    "duration": 0.39655162500000074
                },
                {
                    "name": "D3",
                    "midi": 50,
                    "time": 68.68963799999996,
                    "velocity": 0.3700787401574803,
                    "duration": 0.39655162500000074
                },
                {
                    "name": "F#3",
                    "midi": 54,
                    "time": 68.68963799999996,
                    "velocity": 0.3858267716535433,
                    "duration": 0.39655162500000074
                },
                {
                    "name": "C3",
                    "midi": 48,
                    "time": 68.68963799999996,
                    "velocity": 0.28346456692913385,
                    "duration": 0.39655162500000074
                },
                {
                    "name": "D3",
                    "midi": 50,
                    "time": 69.10343099999996,
                    "velocity": 0.3779527559055118,
                    "duration": 0.39655162500000074
                },
                {
                    "name": "B2",
                    "midi": 47,
                    "time": 69.10343099999996,
                    "velocity": 0.33858267716535434,
                    "duration": 0.39655162500000074
                },
                {
                    "name": "G3",
                    "midi": 55,
                    "time": 69.10343099999996,
                    "velocity": 0.2440944881889764,
                    "duration": 0.39655162500000074
                },
                {
                    "name": "D3",
                    "midi": 50,
                    "time": 69.51722399999996,
                    "velocity": 0.2440944881889764,
                    "duration": 0.39655162500000074
                },
                {
                    "name": "C3",
                    "midi": 48,
                    "time": 69.51722399999996,
                    "velocity": 0.23622047244094488,
                    "duration": 0.39655162500000074
                },
                {
                    "name": "F#3",
                    "midi": 54,
                    "time": 69.51722399999996,
                    "velocity": 0.3228346456692913,
                    "duration": 0.39655162500000074
                },
                {
                    "name": "D3",
                    "midi": 50,
                    "time": 69.93101699999995,
                    "velocity": 0.3543307086614173,
                    "duration": 0.39655162500000074
                },
                {
                    "name": "G3",
                    "midi": 55,
                    "time": 69.93101699999995,
                    "velocity": 0.25196850393700787,
                    "duration": 0.39655162500000074
                },
                {
                    "name": "B2",
                    "midi": 47,
                    "time": 69.93101699999995,
                    "velocity": 0.3700787401574803,
                    "duration": 0.39655162500000074
                },
                {
                    "name": "A3",
                    "midi": 57,
                    "time": 71.58618899999996,
                    "velocity": 0.25196850393700787,
                    "duration": 0.39655162500000074
                },
                {
                    "name": "F3",
                    "midi": 53,
                    "time": 71.58618899999996,
                    "velocity": 0.36220472440944884,
                    "duration": 0.39655162500000074
                },
                {
                    "name": "C3",
                    "midi": 48,
                    "time": 71.58618899999996,
                    "velocity": 0.33070866141732286,
                    "duration": 0.39655162500000074
                },
                {
                    "name": "B2",
                    "midi": 47,
                    "time": 73.24136099999997,
                    "velocity": 0.25984251968503935,
                    "duration": 0.39655162500000074
                },
                {
                    "name": "F3",
                    "midi": 53,
                    "time": 73.24136099999997,
                    "velocity": 0.3464566929133858,
                    "duration": 0.39655162500000074
                },
                {
                    "name": "G3",
                    "midi": 55,
                    "time": 73.24136099999997,
                    "velocity": 0.3858267716535433,
                    "duration": 0.39655162500000074
                },
                {
                    "name": "G3",
                    "midi": 55,
                    "time": 77.79308399999996,
                    "velocity": 0.25196850393700787,
                    "duration": 0.39655162500000074
                },
                {
                    "name": "C4",
                    "midi": 60,
                    "time": 77.79308399999996,
                    "velocity": 0.3464566929133858,
                    "duration": 0.39655162500000074
                },
                {
                    "name": "E4",
                    "midi": 64,
                    "time": 77.79308399999996,
                    "velocity": 0.25984251968503935,
                    "duration": 0.39655162500000074
                },
                {
                    "name": "D4",
                    "midi": 62,
                    "time": 78.62066999999996,
                    "velocity": 0.3464566929133858,
                    "duration": 0.39655162500000074
                },
                {
                    "name": "G3",
                    "midi": 55,
                    "time": 78.62066999999996,
                    "velocity": 0.3543307086614173,
                    "duration": 0.39655162500000074
                },
                {
                    "name": "F4",
                    "midi": 65,
                    "time": 78.62066999999996,
                    "velocity": 0.33070866141732286,
                    "duration": 0.39655162500000074
                },
                {
                    "name": "D4",
                    "midi": 62,
                    "time": 79.44825599999996,
                    "velocity": 0.36220472440944884,
                    "duration": 0.39655162500000074
                },
                {
                    "name": "G3",
                    "midi": 55,
                    "time": 79.44825599999996,
                    "velocity": 0.30708661417322836,
                    "duration": 0.39655162500000074
                },
                {
                    "name": "F4",
                    "midi": 65,
                    "time": 79.44825599999996,
                    "velocity": 0.28346456692913385,
                    "duration": 0.39655162500000074
                },
                {
                    "name": "E4",
                    "midi": 64,
                    "time": 80.27584199999995,
                    "velocity": 0.2755905511811024,
                    "duration": 0.39655162500000074
                },
                {
                    "name": "C4",
                    "midi": 60,
                    "time": 80.27584199999995,
                    "velocity": 0.3779527559055118,
                    "duration": 0.39655162500000074
                },
                {
                    "name": "G3",
                    "midi": 55,
                    "time": 80.27584199999995,
                    "velocity": 0.33070866141732286,
                    "duration": 0.39655162500000074
                },
                {
                    "name": "E4",
                    "midi": 64,
                    "time": 81.10342799999995,
                    "velocity": 0.28346456692913385,
                    "duration": 0.39655162500000074
                },
                {
                    "name": "G4",
                    "midi": 67,
                    "time": 81.10342799999995,
                    "velocity": 0.3779527559055118,
                    "duration": 0.39655162500000074
                },
                {
                    "name": "A3",
                    "midi": 57,
                    "time": 81.10342799999995,
                    "velocity": 0.25984251968503935,
                    "duration": 0.39655162500000074
                },
                {
                    "name": "D4",
                    "midi": 62,
                    "time": 81.51722099999995,
                    "velocity": 0.33070866141732286,
                    "duration": 0.39655162500000074
                },
                {
                    "name": "F4",
                    "midi": 65,
                    "time": 81.51722099999995,
                    "velocity": 0.3779527559055118,
                    "duration": 0.39655162500000074
                },
                {
                    "name": "A3",
                    "midi": 57,
                    "time": 81.51722099999995,
                    "velocity": 0.3858267716535433,
                    "duration": 0.39655162500000074
                },
                {
                    "name": "D4",
                    "midi": 62,
                    "time": 81.93101399999995,
                    "velocity": 0.3543307086614173,
                    "duration": 0.39655162500000074
                },
                {
                    "name": "F4",
                    "midi": 65,
                    "time": 81.93101399999995,
                    "velocity": 0.36220472440944884,
                    "duration": 0.39655162500000074
                },
                {
                    "name": "B3",
                    "midi": 59,
                    "time": 81.93101399999995,
                    "velocity": 0.29133858267716534,
                    "duration": 0.39655162500000074
                },
                {
                    "name": "C4",
                    "midi": 60,
                    "time": 82.34480699999995,
                    "velocity": 0.3464566929133858,
                    "duration": 0.39655162500000074
                },
                {
                    "name": "E4",
                    "midi": 64,
                    "time": 82.34480699999995,
                    "velocity": 0.36220472440944884,
                    "duration": 0.39655162500000074
                },
                {
                    "name": "D4",
                    "midi": 62,
                    "time": 82.75859999999994,
                    "velocity": 0.28346456692913385,
                    "duration": 0.39655162500000074
                },
                {
                    "name": "C4",
                    "midi": 60,
                    "time": 82.75859999999994,
                    "velocity": 0.25984251968503935,
                    "duration": 0.39655162500000074
                },
                {
                    "name": "F#4",
                    "midi": 66,
                    "time": 82.75859999999994,
                    "velocity": 0.3543307086614173,
                    "duration": 0.39655162500000074
                },
                {
                    "name": "G4",
                    "midi": 67,
                    "time": 83.17239299999994,
                    "velocity": 0.3779527559055118,
                    "duration": 0.39655162500000074
                },
                {
                    "name": "D4",
                    "midi": 62,
                    "time": 83.17239299999994,
                    "velocity": 0.3464566929133858,
                    "duration": 0.39655162500000074
                },
                {
                    "name": "B3",
                    "midi": 59,
                    "time": 83.17239299999994,
                    "velocity": 0.3937007874015748,
                    "duration": 0.39655162500000074
                },
                {
                    "name": "C4",
                    "midi": 60,
                    "time": 84.41377199999994,
                    "velocity": 0.3464566929133858,
                    "duration": 0.39655162500000074
                },
                {
                    "name": "E4",
                    "midi": 64,
                    "time": 84.41377199999994,
                    "velocity": 0.3464566929133858,
                    "duration": 0.39655162500000074
                },
                {
                    "name": "G3",
                    "midi": 55,
                    "time": 84.41377199999994,
                    "velocity": 0.25984251968503935,
                    "duration": 0.39655162500000074
                },
                {
                    "name": "D4",
                    "midi": 62,
                    "time": 85.24135799999993,
                    "velocity": 0.3228346456692913,
                    "duration": 0.39655162500000074
                },
                {
                    "name": "G3",
                    "midi": 55,
                    "time": 85.24135799999993,
                    "velocity": 0.3700787401574803,
                    "duration": 0.39655162500000074
                },
                {
                    "name": "F4",
                    "midi": 65,
                    "time": 85.24135799999993,
                    "velocity": 0.3700787401574803,
                    "duration": 0.39655162500000074
                },
                {
                    "name": "D4",
                    "midi": 62,
                    "time": 86.06894399999993,
                    "velocity": 0.30708661417322836,
                    "duration": 0.39655162500000074
                },
                {
                    "name": "G3",
                    "midi": 55,
                    "time": 86.06894399999993,
                    "velocity": 0.2992125984251969,
                    "duration": 0.39655162500000074
                },
                {
                    "name": "F4",
                    "midi": 65,
                    "time": 86.06894399999993,
                    "velocity": 0.3228346456692913,
                    "duration": 0.39655162500000074
                },
                {
                    "name": "G3",
                    "midi": 55,
                    "time": 86.89652999999993,
                    "velocity": 0.2677165354330709,
                    "duration": 0.39655162500000074
                },
                {
                    "name": "C4",
                    "midi": 60,
                    "time": 86.89652999999993,
                    "velocity": 0.36220472440944884,
                    "duration": 0.39655162500000074
                },
                {
                    "name": "E4",
                    "midi": 64,
                    "time": 86.89652999999993,
                    "velocity": 0.31496062992125984,
                    "duration": 0.39655162500000074
                },
                {
                    "name": "E4",
                    "midi": 64,
                    "time": 87.72411599999992,
                    "velocity": 0.30708661417322836,
                    "duration": 0.39655162500000074
                },
                {
                    "name": "A3",
                    "midi": 57,
                    "time": 87.72411599999992,
                    "velocity": 0.3858267716535433,
                    "duration": 0.39655162500000074
                },
                {
                    "name": "G4",
                    "midi": 67,
                    "time": 87.72411599999992,
                    "velocity": 0.33858267716535434,
                    "duration": 0.39655162500000074
                },
                {
                    "name": "A3",
                    "midi": 57,
                    "time": 88.13790899999992,
                    "velocity": 0.2677165354330709,
                    "duration": 0.39655162500000074
                },
                {
                    "name": "D4",
                    "midi": 62,
                    "time": 88.13790899999992,
                    "velocity": 0.3228346456692913,
                    "duration": 0.39655162500000074
                },
                {
                    "name": "F4",
                    "midi": 65,
                    "time": 88.13790899999992,
                    "velocity": 0.33858267716535434,
                    "duration": 0.39655162500000074
                },
                {
                    "name": "B3",
                    "midi": 59,
                    "time": 88.55170199999992,
                    "velocity": 0.33858267716535434,
                    "duration": 0.39655162500000074
                },
                {
                    "name": "D4",
                    "midi": 62,
                    "time": 88.55170199999992,
                    "velocity": 0.23622047244094488,
                    "duration": 0.39655162500000074
                },
                {
                    "name": "F4",
                    "midi": 65,
                    "time": 88.55170199999992,
                    "velocity": 0.23622047244094488,
                    "duration": 0.39655162500000074
                },
                {
                    "name": "C4",
                    "midi": 60,
                    "time": 88.96549499999992,
                    "velocity": 0.33070866141732286,
                    "duration": 0.39655162500000074
                },
                {
                    "name": "E4",
                    "midi": 64,
                    "time": 88.96549499999992,
                    "velocity": 0.3228346456692913,
                    "duration": 0.39655162500000074
                },
                {
                    "name": "A3",
                    "midi": 57,
                    "time": 89.37928799999992,
                    "velocity": 0.3543307086614173,
                    "duration": 0.39655162500000074
                },
                {
                    "name": "E4",
                    "midi": 64,
                    "time": 89.37928799999992,
                    "velocity": 0.3700787401574803,
                    "duration": 0.39655162500000074
                },
                {
                    "name": "C4",
                    "midi": 60,
                    "time": 89.37928799999992,
                    "velocity": 0.3858267716535433,
                    "duration": 0.39655162500000074
                },
                {
                    "name": "B3",
                    "midi": 59,
                    "time": 89.79308099999992,
                    "velocity": 0.23622047244094488,
                    "duration": 0.39655162500000074
                },
                {
                    "name": "D4",
                    "midi": 62,
                    "time": 89.79308099999992,
                    "velocity": 0.25196850393700787,
                    "duration": 0.39655162500000074
                },
                {
                    "name": "G#3",
                    "midi": 56,
                    "time": 90.20687399999991,
                    "velocity": 0.2677165354330709,
                    "duration": 0.39655162500000074
                },
                {
                    "name": "D4",
                    "midi": 62,
                    "time": 90.20687399999991,
                    "velocity": 0.25196850393700787,
                    "duration": 0.39655162500000074
                },
                {
                    "name": "B3",
                    "midi": 59,
                    "time": 90.20687399999991,
                    "velocity": 0.3700787401574803,
                    "duration": 0.39655162500000074
                },
                {
                    "name": "A3",
                    "midi": 57,
                    "time": 90.62066699999991,
                    "velocity": 0.3543307086614173,
                    "duration": 0.39655162500000074
                },
                {
                    "name": "C4",
                    "midi": 60,
                    "time": 90.62066699999991,
                    "velocity": 0.33858267716535434,
                    "duration": 0.39655162500000074
                },
                {
                    "name": "F#4",
                    "midi": 66,
                    "time": 91.03445999999991,
                    "velocity": 0.3779527559055118,
                    "duration": 0.39655162500000074
                },
                {
                    "name": "A3",
                    "midi": 57,
                    "time": 91.03445999999991,
                    "velocity": 0.3858267716535433,
                    "duration": 0.39655162500000074
                },
                {
                    "name": "C4",
                    "midi": 60,
                    "time": 91.03445999999991,
                    "velocity": 0.28346456692913385,
                    "duration": 0.39655162500000074
                },
                {
                    "name": "G4",
                    "midi": 67,
                    "time": 91.44825299999991,
                    "velocity": 0.3779527559055118,
                    "duration": 0.39655162500000074
                },
                {
                    "name": "B3",
                    "midi": 59,
                    "time": 91.44825299999991,
                    "velocity": 0.30708661417322836,
                    "duration": 0.39655162500000074
                },
                {
                    "name": "B4",
                    "midi": 71,
                    "time": 92.6896319999999,
                    "velocity": 0.3464566929133858,
                    "duration": 0.39655162500000074
                },
                {
                    "name": "D4",
                    "midi": 62,
                    "time": 92.6896319999999,
                    "velocity": 0.3937007874015748,
                    "duration": 0.39655162500000074
                },
                {
                    "name": "G4",
                    "midi": 67,
                    "time": 92.6896319999999,
                    "velocity": 0.2992125984251969,
                    "duration": 0.39655162500000074
                },
                {
                    "name": "C5",
                    "midi": 72,
                    "time": 93.5172179999999,
                    "velocity": 0.3543307086614173,
                    "duration": 0.39655162500000074
                },
                {
                    "name": "C4",
                    "midi": 60,
                    "time": 93.5172179999999,
                    "velocity": 0.2677165354330709,
                    "duration": 0.39655162500000074
                },
                {
                    "name": "G4",
                    "midi": 67,
                    "time": 93.5172179999999,
                    "velocity": 0.3858267716535433,
                    "duration": 0.39655162500000074
                },
                {
                    "name": "D5",
                    "midi": 74,
                    "time": 94.3448039999999,
                    "velocity": 0.3779527559055118,
                    "duration": 0.39655162500000074
                },
                {
                    "name": "A4",
                    "midi": 69,
                    "time": 94.3448039999999,
                    "velocity": 0.3858267716535433,
                    "duration": 0.39655162500000074
                },
                {
                    "name": "F4",
                    "midi": 65,
                    "time": 94.3448039999999,
                    "velocity": 0.28346456692913385,
                    "duration": 0.39655162500000074
                },
                {
                    "name": "C5",
                    "midi": 72,
                    "time": 95.1723899999999,
                    "velocity": 0.33858267716535434,
                    "duration": 0.39655162500000074
                },
                {
                    "name": "G4",
                    "midi": 67,
                    "time": 95.1723899999999,
                    "velocity": 0.3858267716535433,
                    "duration": 0.39655162500000074
                },
                {
                    "name": "E4",
                    "midi": 64,
                    "time": 95.1723899999999,
                    "velocity": 0.29133858267716534,
                    "duration": 0.39655162500000074
                },
                {
                    "name": "B4",
                    "midi": 71,
                    "time": 95.99997599999989,
                    "velocity": 0.36220472440944884,
                    "duration": 0.39655162500000074
                },
                {
                    "name": "G4",
                    "midi": 67,
                    "time": 95.99997599999989,
                    "velocity": 0.3464566929133858,
                    "duration": 0.39655162500000074
                },
                {
                    "name": "F4",
                    "midi": 65,
                    "time": 95.99997599999989,
                    "velocity": 0.23622047244094488,
                    "duration": 0.39655162500000074
                },
                {
                    "name": "G4",
                    "midi": 67,
                    "time": 96.41376899999989,
                    "velocity": 0.3779527559055118,
                    "duration": 0.39655162500000074
                },
                {
                    "name": "C5",
                    "midi": 72,
                    "time": 96.41376899999989,
                    "velocity": 0.2440944881889764,
                    "duration": 0.39655162500000074
                },
                {
                    "name": "E4",
                    "midi": 64,
                    "time": 96.41376899999989,
                    "velocity": 0.3700787401574803,
                    "duration": 0.39655162500000074
                },
                {
                    "name": "C4",
                    "midi": 60,
                    "time": 97.65514799999988,
                    "velocity": 0.30708661417322836,
                    "duration": 0.39655162500000074
                },
                {
                    "name": "C5",
                    "midi": 72,
                    "time": 97.65514799999988,
                    "velocity": 0.3700787401574803,
                    "duration": 0.39655162500000074
                },
                {
                    "name": "G4",
                    "midi": 67,
                    "time": 97.65514799999988,
                    "velocity": 0.3937007874015748,
                    "duration": 0.39655162500000074
                },
                {
                    "name": "A4",
                    "midi": 69,
                    "time": 98.48273399999988,
                    "velocity": 0.29133858267716534,
                    "duration": 0.39655162500000074
                },
                {
                    "name": "F4",
                    "midi": 65,
                    "time": 98.48273399999988,
                    "velocity": 0.3543307086614173,
                    "duration": 0.39655162500000074
                },
                {
                    "name": "C4",
                    "midi": 60,
                    "time": 98.48273399999988,
                    "velocity": 0.3228346456692913,
                    "duration": 0.39655162500000074
                },
                {
                    "name": "D4",
                    "midi": 62,
                    "time": 99.31031999999988,
                    "velocity": 0.3543307086614173,
                    "duration": 0.39655162500000074
                },
                {
                    "name": "G4",
                    "midi": 67,
                    "time": 99.31031999999988,
                    "velocity": 0.33070866141732286,
                    "duration": 0.39655162500000074
                },
                {
                    "name": "B3",
                    "midi": 59,
                    "time": 99.31031999999988,
                    "velocity": 0.33070866141732286,
                    "duration": 0.39655162500000074
                },
                {
                    "name": "E4",
                    "midi": 64,
                    "time": 99.72411299999987,
                    "velocity": 0.2440944881889764,
                    "duration": 0.39655162500000074
                },
                {
                    "name": "G3",
                    "midi": 55,
                    "time": 99.72411299999987,
                    "velocity": 0.33070866141732286,
                    "duration": 0.39655162500000074
                },
                {
                    "name": "C4",
                    "midi": 60,
                    "time": 99.72411299999987,
                    "velocity": 0.3779527559055118,
                    "duration": 0.39655162500000074
                },
                {
                    "name": "C5",
                    "midi": 72,
                    "time": 100.96549199999987,
                    "velocity": 0.3700787401574803,
                    "duration": 0.39655162500000074
                },
                {
                    "name": "G4",
                    "midi": 67,
                    "time": 100.96549199999987,
                    "velocity": 0.3937007874015748,
                    "duration": 0.39655162500000074
                },
                {
                    "name": "C4",
                    "midi": 60,
                    "time": 100.96549199999987,
                    "velocity": 0.31496062992125984,
                    "duration": 0.39655162500000074
                },
                {
                    "name": "F4",
                    "midi": 65,
                    "time": 101.79307799999987,
                    "velocity": 0.3858267716535433,
                    "duration": 0.39655162500000074
                },
                {
                    "name": "A4",
                    "midi": 69,
                    "time": 101.79307799999987,
                    "velocity": 0.2677165354330709,
                    "duration": 0.39655162500000074
                },
                {
                    "name": "C4",
                    "midi": 60,
                    "time": 101.79307799999987,
                    "velocity": 0.3700787401574803,
                    "duration": 0.39655162500000074
                },
                {
                    "name": "D4",
                    "midi": 62,
                    "time": 102.62066399999986,
                    "velocity": 0.3937007874015748,
                    "duration": 0.39655162500000074
                },
                {
                    "name": "G4",
                    "midi": 67,
                    "time": 102.62066399999986,
                    "velocity": 0.2677165354330709,
                    "duration": 0.39655162500000074
                },
                {
                    "name": "B3",
                    "midi": 59,
                    "time": 102.62066399999986,
                    "velocity": 0.3937007874015748,
                    "duration": 0.39655162500000074
                },
                {
                    "name": "G3",
                    "midi": 55,
                    "time": 103.44824999999986,
                    "velocity": 0.3464566929133858,
                    "duration": 0.39655162500000074
                },
                {
                    "name": "E4",
                    "midi": 64,
                    "time": 103.44824999999986,
                    "velocity": 0.2677165354330709,
                    "duration": 0.39655162500000074
                },
                {
                    "name": "C4",
                    "midi": 60,
                    "time": 103.44824999999986,
                    "velocity": 0.3858267716535433,
                    "duration": 0.39655162500000074
                },
                {
                    "name": "A3",
                    "midi": 57,
                    "time": 104.27583599999986,
                    "velocity": 0.2992125984251969,
                    "duration": 0.39655162500000074
                },
                {
                    "name": "E4",
                    "midi": 64,
                    "time": 104.27583599999986,
                    "velocity": 0.3228346456692913,
                    "duration": 0.39655162500000074
                },
                {
                    "name": "C4",
                    "midi": 60,
                    "time": 104.27583599999986,
                    "velocity": 0.28346456692913385,
                    "duration": 0.39655162500000074
                },
                {
                    "name": "G#4",
                    "midi": 68,
                    "time": 105.10342199999985,
                    "velocity": 0.25196850393700787,
                    "duration": 0.39655162500000074
                },
                {
                    "name": "D4",
                    "midi": 62,
                    "time": 105.10342199999985,
                    "velocity": 0.33070866141732286,
                    "duration": 0.39655162500000074
                },
                {
                    "name": "E4",
                    "midi": 64,
                    "time": 105.10342199999985,
                    "velocity": 0.29133858267716534,
                    "duration": 0.39655162500000074
                },
                {
                    "name": "A4",
                    "midi": 69,
                    "time": 105.93100799999985,
                    "velocity": 0.2677165354330709,
                    "duration": 0.39655162500000074
                },
                {
                    "name": "E4",
                    "midi": 64,
                    "time": 105.93100799999985,
                    "velocity": 0.28346456692913385,
                    "duration": 0.39655162500000074
                },
                {
                    "name": "C4",
                    "midi": 60,
                    "time": 105.93100799999985,
                    "velocity": 0.25984251968503935,
                    "duration": 0.39655162500000074
                },
                {
                    "name": "D4",
                    "midi": 62,
                    "time": 106.75859399999985,
                    "velocity": 0.2440944881889764,
                    "duration": 0.39655162500000074
                },
                {
                    "name": "C4",
                    "midi": 60,
                    "time": 106.75859399999985,
                    "velocity": 0.25196850393700787,
                    "duration": 0.39655162500000074
                },
                {
                    "name": "F#4",
                    "midi": 66,
                    "time": 106.75859399999985,
                    "velocity": 0.25196850393700787,
                    "duration": 0.39655162500000074
                },
                {
                    "name": "D4",
                    "midi": 62,
                    "time": 107.58617999999984,
                    "velocity": 0.2440944881889764,
                    "duration": 0.39655162500000074
                },
                {
                    "name": "B3",
                    "midi": 59,
                    "time": 107.58617999999984,
                    "velocity": 0.28346456692913385,
                    "duration": 0.39655162500000074
                },
                {
                    "name": "G4",
                    "midi": 67,
                    "time": 107.58617999999984,
                    "velocity": 0.2992125984251969,
                    "duration": 0.39655162500000074
                },
                {
                    "name": "E4",
                    "midi": 64,
                    "time": 108.41376599999984,
                    "velocity": 0.3779527559055118,
                    "duration": 0.39655162500000074
                },
                {
                    "name": "B3",
                    "midi": 59,
                    "time": 108.41376599999984,
                    "velocity": 0.2677165354330709,
                    "duration": 0.39655162500000074
                },
                {
                    "name": "G4",
                    "midi": 67,
                    "time": 108.41376599999984,
                    "velocity": 0.3228346456692913,
                    "duration": 0.39655162500000074
                },
                {
                    "name": "A3",
                    "midi": 57,
                    "time": 109.24135199999984,
                    "velocity": 0.33858267716535434,
                    "duration": 0.39655162500000074
                },
                {
                    "name": "E4",
                    "midi": 64,
                    "time": 109.24135199999984,
                    "velocity": 0.33070866141732286,
                    "duration": 0.39655162500000074
                },
                {
                    "name": "G4",
                    "midi": 67,
                    "time": 109.24135199999984,
                    "velocity": 0.29133858267716534,
                    "duration": 0.39655162500000074
                },
                {
                    "name": "F#3",
                    "midi": 54,
                    "time": 109.65514499999983,
                    "velocity": 0.3228346456692913,
                    "duration": 0.39655162500000074
                },
                {
                    "name": "A2",
                    "midi": 45,
                    "time": 109.65514499999983,
                    "velocity": 0.3937007874015748,
                    "duration": 0.39655162500000074
                },
                {
                    "name": "D3",
                    "midi": 50,
                    "time": 109.65514499999983,
                    "velocity": 0.30708661417322836,
                    "duration": 0.39655162500000074
                },
                {
                    "name": "A3",
                    "midi": 57,
                    "time": 110.89652399999983,
                    "velocity": 0.33070866141732286,
                    "duration": 0.39655162500000074
                },
                {
                    "name": "C3",
                    "midi": 48,
                    "time": 110.89652399999983,
                    "velocity": 0.33858267716535434,
                    "duration": 0.39655162500000074
                },
                {
                    "name": "D3",
                    "midi": 50,
                    "time": 110.89652399999983,
                    "velocity": 0.2755905511811024,
                    "duration": 0.39655162500000074
                },
                {
                    "name": "G3",
                    "midi": 55,
                    "time": 111.72410999999983,
                    "velocity": 0.3228346456692913,
                    "duration": 0.39655162500000074
                },
                {
                    "name": "B2",
                    "midi": 47,
                    "time": 111.72410999999983,
                    "velocity": 0.28346456692913385,
                    "duration": 0.39655162500000074
                },
                {
                    "name": "D3",
                    "midi": 50,
                    "time": 111.72410999999983,
                    "velocity": 0.29133858267716534,
                    "duration": 0.39655162500000074
                },
                {
                    "name": "C#3",
                    "midi": 49,
                    "time": 112.55169599999982,
                    "velocity": 0.29133858267716534,
                    "duration": 0.39655162500000074
                },
                {
                    "name": "E3",
                    "midi": 52,
                    "time": 112.55169599999982,
                    "velocity": 0.36220472440944884,
                    "duration": 0.39655162500000074
                },
                {
                    "name": "G3",
                    "midi": 55,
                    "time": 112.55169599999982,
                    "velocity": 0.29133858267716534,
                    "duration": 0.39655162500000074
                },
                {
                    "name": "F#3",
                    "midi": 54,
                    "time": 112.96548899999982,
                    "velocity": 0.3700787401574803,
                    "duration": 0.39655162500000074
                },
                {
                    "name": "D3",
                    "midi": 50,
                    "time": 112.96548899999982,
                    "velocity": 0.3464566929133858,
                    "duration": 0.39655162500000074
                },
                {
                    "name": "A2",
                    "midi": 45,
                    "time": 112.96548899999982,
                    "velocity": 0.3228346456692913,
                    "duration": 0.39655162500000074
                },
                {
                    "name": "A3",
                    "midi": 57,
                    "time": 114.20686799999982,
                    "velocity": 0.23622047244094488,
                    "duration": 0.39655162500000074
                },
                {
                    "name": "C3",
                    "midi": 48,
                    "time": 114.20686799999982,
                    "velocity": 0.3858267716535433,
                    "duration": 0.39655162500000074
                },
                {
                    "name": "D3",
                    "midi": 50,
                    "time": 114.20686799999982,
                    "velocity": 0.3779527559055118,
                    "duration": 0.39655162500000074
                },
                {
                    "name": "G3",
                    "midi": 55,
                    "time": 115.03445399999981,
                    "velocity": 0.33858267716535434,
                    "duration": 0.39655162500000074
                },
                {
                    "name": "D3",
                    "midi": 50,
                    "time": 115.03445399999981,
                    "velocity": 0.23622047244094488,
                    "duration": 0.39655162500000074
                },
                {
                    "name": "B2",
                    "midi": 47,
                    "time": 115.03445399999981,
                    "velocity": 0.3937007874015748,
                    "duration": 0.39655162500000074
                },
                {
                    "name": "A2",
                    "midi": 45,
                    "time": 115.86203999999981,
                    "velocity": 0.28346456692913385,
                    "duration": 0.39655162500000074
                },
                {
                    "name": "E2",
                    "midi": 40,
                    "time": 115.86203999999981,
                    "velocity": 0.25196850393700787,
                    "duration": 0.39655162500000074
                },
                {
                    "name": "C#3",
                    "midi": 49,
                    "time": 115.86203999999981,
                    "velocity": 0.25984251968503935,
                    "duration": 0.39655162500000074
                },
                {
                    "name": "D3",
                    "midi": 50,
                    "time": 116.2758329999998,
                    "velocity": 0.2755905511811024,
                    "duration": 0.39655162500000074
                },
                {
                    "name": "A2",
                    "midi": 45,
                    "time": 116.2758329999998,
                    "velocity": 0.3228346456692913,
                    "duration": 0.39655162500000074
                },
                {
                    "name": "F#2",
                    "midi": 42,
                    "time": 116.2758329999998,
                    "velocity": 0.2755905511811024,
                    "duration": 0.39655162500000074
                },
                {
                    "name": "C#3",
                    "midi": 49,
                    "time": 116.6896259999998,
                    "velocity": 0.25196850393700787,
                    "duration": 0.39655162500000074
                },
                {
                    "name": "A2",
                    "midi": 45,
                    "time": 116.6896259999998,
                    "velocity": 0.3700787401574803,
                    "duration": 0.39655162500000074
                },
                {
                    "name": "E3",
                    "midi": 52,
                    "time": 116.6896259999998,
                    "velocity": 0.25196850393700787,
                    "duration": 0.39655162500000074
                },
                {
                    "name": "F#3",
                    "midi": 54,
                    "time": 117.1034189999998,
                    "velocity": 0.2755905511811024,
                    "duration": 0.39655162500000074
                },
                {
                    "name": "A2",
                    "midi": 45,
                    "time": 117.1034189999998,
                    "velocity": 0.3937007874015748,
                    "duration": 0.39655162500000074
                },
                {
                    "name": "D3",
                    "midi": 50,
                    "time": 117.1034189999998,
                    "velocity": 0.2677165354330709,
                    "duration": 0.39655162500000074
                },
                {
                    "name": "G2",
                    "midi": 43,
                    "time": 117.5172119999998,
                    "velocity": 0.2992125984251969,
                    "duration": 0.39655162500000074
                },
                {
                    "name": "C#3",
                    "midi": 49,
                    "time": 117.5172119999998,
                    "velocity": 0.3779527559055118,
                    "duration": 0.39655162500000074
                },
                {
                    "name": "A2",
                    "midi": 45,
                    "time": 117.5172119999998,
                    "velocity": 0.3228346456692913,
                    "duration": 0.39655162500000074
                },
                {
                    "name": "D3",
                    "midi": 50,
                    "time": 117.9310049999998,
                    "velocity": 0.28346456692913385,
                    "duration": 0.39655162500000074
                },
                {
                    "name": "A2",
                    "midi": 45,
                    "time": 117.9310049999998,
                    "velocity": 0.2440944881889764,
                    "duration": 0.39655162500000074
                },
                {
                    "name": "F#2",
                    "midi": 42,
                    "time": 117.9310049999998,
                    "velocity": 0.36220472440944884,
                    "duration": 0.39655162500000074
                },
                {
                    "name": "C#3",
                    "midi": 49,
                    "time": 118.3447979999998,
                    "velocity": 0.3543307086614173,
                    "duration": 0.39655162500000074
                },
                {
                    "name": "A2",
                    "midi": 45,
                    "time": 118.3447979999998,
                    "velocity": 0.36220472440944884,
                    "duration": 0.39655162500000074
                },
                {
                    "name": "E3",
                    "midi": 52,
                    "time": 118.3447979999998,
                    "velocity": 0.3228346456692913,
                    "duration": 0.39655162500000074
                },
                {
                    "name": "F#3",
                    "midi": 54,
                    "time": 118.7585909999998,
                    "velocity": 0.29133858267716534,
                    "duration": 0.39655162500000074
                },
                {
                    "name": "D3",
                    "midi": 50,
                    "time": 118.7585909999998,
                    "velocity": 0.25196850393700787,
                    "duration": 0.39655162500000074
                },
                {
                    "name": "A2",
                    "midi": 45,
                    "time": 118.7585909999998,
                    "velocity": 0.2677165354330709,
                    "duration": 0.39655162500000074
                },
                {
                    "name": "G2",
                    "midi": 43,
                    "time": 119.1723839999998,
                    "velocity": 0.3779527559055118,
                    "duration": 0.39655162500000074
                },
                {
                    "name": "A2",
                    "midi": 45,
                    "time": 119.1723839999998,
                    "velocity": 0.31496062992125984,
                    "duration": 0.39655162500000074
                },
                {
                    "name": "C#3",
                    "midi": 49,
                    "time": 119.1723839999998,
                    "velocity": 0.30708661417322836,
                    "duration": 0.39655162500000074
                },
                {
                    "name": "A2",
                    "midi": 45,
                    "time": 119.5861769999998,
                    "velocity": 0.2992125984251969,
                    "duration": 0.39655162500000074
                },
                {
                    "name": "D3",
                    "midi": 50,
                    "time": 119.5861769999998,
                    "velocity": 0.25984251968503935,
                    "duration": 0.39655162500000074
                },
                {
                    "name": "F#2",
                    "midi": 42,
                    "time": 119.5861769999998,
                    "velocity": 0.28346456692913385,
                    "duration": 0.39655162500000074
                },
                {
                    "name": "D3",
                    "midi": 50,
                    "time": 120.82755599999979,
                    "velocity": 0.31496062992125984,
                    "duration": 0.39655162500000074
                },
                {
                    "name": "C3",
                    "midi": 48,
                    "time": 120.82755599999979,
                    "velocity": 0.3464566929133858,
                    "duration": 0.39655162500000074
                },
                {
                    "name": "A3",
                    "midi": 57,
                    "time": 120.82755599999979,
                    "velocity": 0.2677165354330709,
                    "duration": 0.39655162500000074
                },
                {
                    "name": "G3",
                    "midi": 55,
                    "time": 121.65514199999978,
                    "velocity": 0.3779527559055118,
                    "duration": 0.39655162500000074
                },
                {
                    "name": "D3",
                    "midi": 50,
                    "time": 121.65514199999978,
                    "velocity": 0.25984251968503935,
                    "duration": 0.39655162500000074
                },
                {
                    "name": "B2",
                    "midi": 47,
                    "time": 121.65514199999978,
                    "velocity": 0.3464566929133858,
                    "duration": 0.39655162500000074
                },
                {
                    "name": "F#3",
                    "midi": 54,
                    "time": 122.48272799999978,
                    "velocity": 0.29133858267716534,
                    "duration": 0.39655162500000074
                },
                {
                    "name": "A2",
                    "midi": 45,
                    "time": 122.48272799999978,
                    "velocity": 0.3700787401574803,
                    "duration": 0.39655162500000074
                },
                {
                    "name": "B2",
                    "midi": 47,
                    "time": 122.48272799999978,
                    "velocity": 0.3700787401574803,
                    "duration": 0.39655162500000074
                },
                {
                    "name": "B2",
                    "midi": 47,
                    "time": 123.31031399999978,
                    "velocity": 0.3464566929133858,
                    "duration": 0.39655162500000074
                },
                {
                    "name": "G2",
                    "midi": 43,
                    "time": 123.31031399999978,
                    "velocity": 0.28346456692913385,
                    "duration": 0.39655162500000074
                },
                {
                    "name": "E3",
                    "midi": 52,
                    "time": 123.31031399999978,
                    "velocity": 0.33070866141732286,
                    "duration": 0.39655162500000074
                },
                {
                    "name": "G2",
                    "midi": 43,
                    "time": 124.13789999999977,
                    "velocity": 0.3779527559055118,
                    "duration": 0.39655162500000074
                },
                {
                    "name": "D3",
                    "midi": 50,
                    "time": 124.13789999999977,
                    "velocity": 0.25196850393700787,
                    "duration": 0.39655162500000074
                },
                {
                    "name": "B2",
                    "midi": 47,
                    "time": 124.13789999999977,
                    "velocity": 0.25984251968503935,
                    "duration": 0.39655162500000074
                },
                {
                    "name": "E3",
                    "midi": 52,
                    "time": 124.55169299999977,
                    "velocity": 0.2755905511811024,
                    "duration": 0.39655162500000074
                },
                {
                    "name": "G2",
                    "midi": 43,
                    "time": 124.55169299999977,
                    "velocity": 0.33858267716535434,
                    "duration": 0.39655162500000074
                },
                {
                    "name": "C3",
                    "midi": 48,
                    "time": 124.55169299999977,
                    "velocity": 0.3228346456692913,
                    "duration": 0.39655162500000074
                },
                {
                    "name": "G3",
                    "midi": 55,
                    "time": 125.37927899999977,
                    "velocity": 0.2677165354330709,
                    "duration": 0.39655162500000074
                },
                {
                    "name": "B2",
                    "midi": 47,
                    "time": 125.37927899999977,
                    "velocity": 0.3228346456692913,
                    "duration": 0.39655162500000074
                },
                {
                    "name": "D3",
                    "midi": 50,
                    "time": 125.37927899999977,
                    "velocity": 0.2755905511811024,
                    "duration": 0.39655162500000074
                },
                {
                    "name": "F#3",
                    "midi": 54,
                    "time": 125.79307199999977,
                    "velocity": 0.28346456692913385,
                    "duration": 0.39655162500000074
                },
                {
                    "name": "C3",
                    "midi": 48,
                    "time": 125.79307199999977,
                    "velocity": 0.2440944881889764,
                    "duration": 0.39655162500000074
                },
                {
                    "name": "D3",
                    "midi": 50,
                    "time": 125.79307199999977,
                    "velocity": 0.2755905511811024,
                    "duration": 0.39655162500000074
                },
                {
                    "name": "G3",
                    "midi": 55,
                    "time": 126.20686499999977,
                    "velocity": 0.3937007874015748,
                    "duration": 0.39655162500000074
                },
                {
                    "name": "B2",
                    "midi": 47,
                    "time": 126.20686499999977,
                    "velocity": 0.36220472440944884,
                    "duration": 0.39655162500000074
                },
                {
                    "name": "D3",
                    "midi": 50,
                    "time": 126.20686499999977,
                    "velocity": 0.2440944881889764,
                    "duration": 0.39655162500000074
                },
                {
                    "name": "G#3",
                    "midi": 56,
                    "time": 126.62065799999976,
                    "velocity": 0.33858267716535434,
                    "duration": 0.39655162500000074
                },
                {
                    "name": "B2",
                    "midi": 47,
                    "time": 126.62065799999976,
                    "velocity": 0.33070866141732286,
                    "duration": 0.39655162500000074
                },
                {
                    "name": "E3",
                    "midi": 52,
                    "time": 126.62065799999976,
                    "velocity": 0.3464566929133858,
                    "duration": 0.39655162500000074
                },
                {
                    "name": "A3",
                    "midi": 57,
                    "time": 127.03445099999976,
                    "velocity": 0.2755905511811024,
                    "duration": 0.39655162500000074
                },
                {
                    "name": "C3",
                    "midi": 48,
                    "time": 127.03445099999976,
                    "velocity": 0.33858267716535434,
                    "duration": 0.39655162500000074
                },
                {
                    "name": "E3",
                    "midi": 52,
                    "time": 127.03445099999976,
                    "velocity": 0.3464566929133858,
                    "duration": 0.39655162500000074
                },
                {
                    "name": "F#3",
                    "midi": 54,
                    "time": 127.44824399999976,
                    "velocity": 0.2755905511811024,
                    "duration": 0.39655162500000074
                },
                {
                    "name": "D3",
                    "midi": 50,
                    "time": 127.44824399999976,
                    "velocity": 0.29133858267716534,
                    "duration": 0.39655162500000074
                },
                {
                    "name": "A2",
                    "midi": 45,
                    "time": 127.44824399999976,
                    "velocity": 0.33070866141732286,
                    "duration": 0.39655162500000074
                },
                {
                    "name": "B2",
                    "midi": 47,
                    "time": 127.86203699999976,
                    "velocity": 0.33070866141732286,
                    "duration": 0.39655162500000074
                },
                {
                    "name": "G3",
                    "midi": 55,
                    "time": 127.86203699999976,
                    "velocity": 0.2992125984251969,
                    "duration": 0.39655162500000074
                },
                {
                    "name": "D3",
                    "midi": 50,
                    "time": 127.86203699999976,
                    "velocity": 0.3700787401574803,
                    "duration": 0.39655162500000074
                },
                {
                    "name": "E3",
                    "midi": 52,
                    "time": 128.27582999999976,
                    "velocity": 0.25984251968503935,
                    "duration": 0.39655162500000074
                },
                {
                    "name": "C3",
                    "midi": 48,
                    "time": 128.27582999999976,
                    "velocity": 0.3937007874015748,
                    "duration": 0.39655162500000074
                },
                {
                    "name": "G2",
                    "midi": 43,
                    "time": 128.27582999999976,
                    "velocity": 0.2755905511811024,
                    "duration": 0.39655162500000074
                },
                {
                    "name": "F#3",
                    "midi": 54,
                    "time": 128.68962299999976,
                    "velocity": 0.3937007874015748,
                    "duration": 0.39655162500000074
                },
                {
                    "name": "A2",
                    "midi": 45,
                    "time": 128.68962299999976,
                    "velocity": 0.3464566929133858,
                    "duration": 0.39655162500000074
                },
                {
                    "name": "C3",
                    "midi": 48,
                    "time": 128.68962299999976,
                    "velocity": 0.3937007874015748,
                    "duration": 0.39655162500000074
                },
                {
                    "name": "F#2",
                    "midi": 42,
                    "time": 129.10341599999975,
                    "velocity": 0.30708661417322836,
                    "duration": 0.39655162500000074
                },
                {
                    "name": "D#3",
                    "midi": 51,
                    "time": 129.10341599999975,
                    "velocity": 0.33858267716535434,
                    "duration": 0.39655162500000074
                },
                {
                    "name": "B2",
                    "midi": 47,
                    "time": 129.10341599999975,
                    "velocity": 0.36220472440944884,
                    "duration": 0.39655162500000074
                },
                {
                    "name": "E3",
                    "midi": 52,
                    "time": 129.51720899999975,
                    "velocity": 0.36220472440944884,
                    "duration": 0.39655162500000074
                },
                {
                    "name": "G2",
                    "midi": 43,
                    "time": 129.51720899999975,
                    "velocity": 0.3937007874015748,
                    "duration": 0.39655162500000074
                },
                {
                    "name": "B2",
                    "midi": 47,
                    "time": 129.51720899999975,
                    "velocity": 0.30708661417322836,
                    "duration": 0.39655162500000074
                },
                {
                    "name": "A2",
                    "midi": 45,
                    "time": 129.93100199999975,
                    "velocity": 0.23622047244094488,
                    "duration": 0.39655162500000074
                },
                {
                    "name": "E2",
                    "midi": 40,
                    "time": 129.93100199999975,
                    "velocity": 0.2755905511811024,
                    "duration": 0.39655162500000074
                },
                {
                    "name": "C#3",
                    "midi": 49,
                    "time": 129.93100199999975,
                    "velocity": 0.3543307086614173,
                    "duration": 0.39655162500000074
                },
                {
                    "name": "D3",
                    "midi": 50,
                    "time": 130.34479499999975,
                    "velocity": 0.3779527559055118,
                    "duration": 0.39655162500000074
                },
                {
                    "name": "F#2",
                    "midi": 42,
                    "time": 130.34479499999975,
                    "velocity": 0.30708661417322836,
                    "duration": 0.39655162500000074
                },
                {
                    "name": "A2",
                    "midi": 45,
                    "time": 130.34479499999975,
                    "velocity": 0.28346456692913385,
                    "duration": 0.39655162500000074
                },
                {
                    "name": "D3",
                    "midi": 50,
                    "time": 130.75858799999975,
                    "velocity": 0.2440944881889764,
                    "duration": 0.39655162500000074
                },
                {
                    "name": "A2",
                    "midi": 45,
                    "time": 130.75858799999975,
                    "velocity": 0.3937007874015748,
                    "duration": 0.39655162500000074
                },
                {
                    "name": "F#3",
                    "midi": 54,
                    "time": 130.75858799999975,
                    "velocity": 0.3779527559055118,
                    "duration": 0.39655162500000074
                },
                {
                    "name": "G3",
                    "midi": 55,
                    "time": 131.17238099999975,
                    "velocity": 0.2440944881889764,
                    "duration": 0.39655162500000074
                },
                {
                    "name": "B2",
                    "midi": 47,
                    "time": 131.17238099999975,
                    "velocity": 0.36220472440944884,
                    "duration": 0.39655162500000074
                },
                {
                    "name": "D3",
                    "midi": 50,
                    "time": 131.17238099999975,
                    "velocity": 0.2992125984251969,
                    "duration": 0.39655162500000074
                },
                {
                    "name": "E3",
                    "midi": 52,
                    "time": 131.58617399999974,
                    "velocity": 0.3937007874015748,
                    "duration": 0.39655162500000074
                },
                {
                    "name": "A3",
                    "midi": 57,
                    "time": 131.58617399999974,
                    "velocity": 0.3937007874015748,
                    "duration": 0.39655162500000074
                },
                {
                    "name": "D3",
                    "midi": 50,
                    "time": 131.99996699999974,
                    "velocity": 0.29133858267716534,
                    "duration": 0.39655162500000074
                },
                {
                    "name": "G3",
                    "midi": 55,
                    "time": 131.99996699999974,
                    "velocity": 0.25196850393700787,
                    "duration": 0.39655162500000074
                },
                {
                    "name": "B3",
                    "midi": 59,
                    "time": 131.99996699999974,
                    "velocity": 0.23622047244094488,
                    "duration": 0.39655162500000074
                },
                {
                    "name": "F#3",
                    "midi": 54,
                    "time": 132.41375999999974,
                    "velocity": 0.2440944881889764,
                    "duration": 0.39655162500000074
                },
                {
                    "name": "C3",
                    "midi": 48,
                    "time": 132.41375999999974,
                    "velocity": 0.3779527559055118,
                    "duration": 0.39655162500000074
                },
                {
                    "name": "A3",
                    "midi": 57,
                    "time": 132.41375999999974,
                    "velocity": 0.29133858267716534,
                    "duration": 0.39655162500000074
                },
                {
                    "name": "D3",
                    "midi": 50,
                    "time": 132.82755299999974,
                    "velocity": 0.2677165354330709,
                    "duration": 0.39655162500000074
                },
                {
                    "name": "G3",
                    "midi": 55,
                    "time": 132.82755299999974,
                    "velocity": 0.25196850393700787,
                    "duration": 0.39655162500000074
                },
                {
                    "name": "B2",
                    "midi": 47,
                    "time": 132.82755299999974,
                    "velocity": 0.3858267716535433,
                    "duration": 0.39655162500000074
                },
                {
                    "name": "E3",
                    "midi": 52,
                    "time": 133.24134599999974,
                    "velocity": 0.25196850393700787,
                    "duration": 0.39655162500000074
                },
                {
                    "name": "B2",
                    "midi": 47,
                    "time": 133.24134599999974,
                    "velocity": 0.3464566929133858,
                    "duration": 0.39655162500000074
                },
                {
                    "name": "G#3",
                    "midi": 56,
                    "time": 133.24134599999974,
                    "velocity": 0.3937007874015748,
                    "duration": 0.39655162500000074
                },
                {
                    "name": "A3",
                    "midi": 57,
                    "time": 133.65513899999974,
                    "velocity": 0.30708661417322836,
                    "duration": 0.39655162500000074
                },
                {
                    "name": "E3",
                    "midi": 52,
                    "time": 133.65513899999974,
                    "velocity": 0.3228346456692913,
                    "duration": 0.39655162500000074
                },
                {
                    "name": "C3",
                    "midi": 48,
                    "time": 133.65513899999974,
                    "velocity": 0.29133858267716534,
                    "duration": 0.39655162500000074
                },
                {
                    "name": "F#3",
                    "midi": 54,
                    "time": 134.06893199999973,
                    "velocity": 0.3228346456692913,
                    "duration": 0.39655162500000074
                },
                {
                    "name": "D3",
                    "midi": 50,
                    "time": 134.06893199999973,
                    "velocity": 0.25196850393700787,
                    "duration": 0.39655162500000074
                },
                {
                    "name": "A2",
                    "midi": 45,
                    "time": 134.06893199999973,
                    "velocity": 0.2992125984251969,
                    "duration": 0.39655162500000074
                },
                {
                    "name": "G3",
                    "midi": 55,
                    "time": 134.48272499999973,
                    "velocity": 0.25984251968503935,
                    "duration": 0.39655162500000074
                },
                {
                    "name": "D3",
                    "midi": 50,
                    "time": 134.48272499999973,
                    "velocity": 0.2677165354330709,
                    "duration": 0.39655162500000074
                },
                {
                    "name": "B2",
                    "midi": 47,
                    "time": 134.48272499999973,
                    "velocity": 0.33858267716535434,
                    "duration": 0.39655162500000074
                },
                {
                    "name": "E3",
                    "midi": 52,
                    "time": 134.89651799999973,
                    "velocity": 0.31496062992125984,
                    "duration": 0.39655162500000074
                },
                {
                    "name": "G2",
                    "midi": 43,
                    "time": 134.89651799999973,
                    "velocity": 0.29133858267716534,
                    "duration": 0.39655162500000074
                },
                {
                    "name": "C3",
                    "midi": 48,
                    "time": 134.89651799999973,
                    "velocity": 0.2992125984251969,
                    "duration": 0.39655162500000074
                },
                {
                    "name": "F#3",
                    "midi": 54,
                    "time": 135.31031099999973,
                    "velocity": 0.3858267716535433,
                    "duration": 0.39655162500000074
                },
                {
                    "name": "A2",
                    "midi": 45,
                    "time": 135.31031099999973,
                    "velocity": 0.3228346456692913,
                    "duration": 0.39655162500000074
                },
                {
                    "name": "C3",
                    "midi": 48,
                    "time": 135.31031099999973,
                    "velocity": 0.25984251968503935,
                    "duration": 0.39655162500000074
                },
                {
                    "name": "F#2",
                    "midi": 42,
                    "time": 135.72410399999973,
                    "velocity": 0.25984251968503935,
                    "duration": 0.39655162500000074
                },
                {
                    "name": "D#3",
                    "midi": 51,
                    "time": 135.72410399999973,
                    "velocity": 0.33858267716535434,
                    "duration": 0.39655162500000074
                },
                {
                    "name": "B2",
                    "midi": 47,
                    "time": 135.72410399999973,
                    "velocity": 0.3937007874015748,
                    "duration": 0.39655162500000074
                },
                {
                    "name": "E3",
                    "midi": 52,
                    "time": 136.13789699999973,
                    "velocity": 0.30708661417322836,
                    "duration": 0.39655162500000074
                },
                {
                    "name": "G2",
                    "midi": 43,
                    "time": 136.13789699999973,
                    "velocity": 0.31496062992125984,
                    "duration": 0.39655162500000074
                },
                {
                    "name": "B2",
                    "midi": 47,
                    "time": 136.13789699999973,
                    "velocity": 0.33858267716535434,
                    "duration": 0.39655162500000074
                },
                {
                    "name": "A2",
                    "midi": 45,
                    "time": 136.55168999999972,
                    "velocity": 0.3700787401574803,
                    "duration": 0.39655162500000074
                },
                {
                    "name": "E2",
                    "midi": 40,
                    "time": 136.55168999999972,
                    "velocity": 0.3464566929133858,
                    "duration": 0.39655162500000074
                },
                {
                    "name": "C#3",
                    "midi": 49,
                    "time": 136.55168999999972,
                    "velocity": 0.31496062992125984,
                    "duration": 0.39655162500000074
                },
                {
                    "name": "D3",
                    "midi": 50,
                    "time": 136.96548299999972,
                    "velocity": 0.23622047244094488,
                    "duration": 0.39655162500000074
                },
                {
                    "name": "F#2",
                    "midi": 42,
                    "time": 136.96548299999972,
                    "velocity": 0.25196850393700787,
                    "duration": 0.39655162500000074
                },
                {
                    "name": "A2",
                    "midi": 45,
                    "time": 136.96548299999972,
                    "velocity": 0.29133858267716534,
                    "duration": 0.39655162500000074
                },
                {
                    "name": "D3",
                    "midi": 50,
                    "time": 137.37927599999972,
                    "velocity": 0.36220472440944884,
                    "duration": 0.39655162500000074
                },
                {
                    "name": "F#3",
                    "midi": 54,
                    "time": 137.37927599999972,
                    "velocity": 0.29133858267716534,
                    "duration": 0.39655162500000074
                },
                {
                    "name": "A2",
                    "midi": 45,
                    "time": 137.37927599999972,
                    "velocity": 0.2677165354330709,
                    "duration": 0.39655162500000074
                },
                {
                    "name": "G3",
                    "midi": 55,
                    "time": 137.79306899999972,
                    "velocity": 0.3937007874015748,
                    "duration": 0.39655162500000074
                },
                {
                    "name": "D3",
                    "midi": 50,
                    "time": 137.79306899999972,
                    "velocity": 0.2677165354330709,
                    "duration": 0.39655162500000074
                },
                {
                    "name": "B2",
                    "midi": 47,
                    "time": 137.79306899999972,
                    "velocity": 0.2992125984251969,
                    "duration": 0.39655162500000074
                },
                {
                    "name": "A3",
                    "midi": 57,
                    "time": 138.20686199999972,
                    "velocity": 0.31496062992125984,
                    "duration": 0.39655162500000074
                },
                {
                    "name": "E3",
                    "midi": 52,
                    "time": 138.20686199999972,
                    "velocity": 0.3937007874015748,
                    "duration": 0.39655162500000074
                },
                {
                    "name": "B3",
                    "midi": 59,
                    "time": 138.62065499999972,
                    "velocity": 0.3858267716535433,
                    "duration": 0.39655162500000074
                },
                {
                    "name": "D3",
                    "midi": 50,
                    "time": 138.62065499999972,
                    "velocity": 0.23622047244094488,
                    "duration": 0.39655162500000074
                },
                {
                    "name": "G3",
                    "midi": 55,
                    "time": 138.62065499999972,
                    "velocity": 0.30708661417322836,
                    "duration": 0.39655162500000074
                },
                {
                    "name": "F#3",
                    "midi": 54,
                    "time": 139.0344479999997,
                    "velocity": 0.33070866141732286,
                    "duration": 0.39655162500000074
                },
                {
                    "name": "A3",
                    "midi": 57,
                    "time": 139.0344479999997,
                    "velocity": 0.3858267716535433,
                    "duration": 0.39655162500000074
                },
                {
                    "name": "C3",
                    "midi": 48,
                    "time": 139.0344479999997,
                    "velocity": 0.3779527559055118,
                    "duration": 0.39655162500000074
                },
                {
                    "name": "D3",
                    "midi": 50,
                    "time": 139.8620339999997,
                    "velocity": 0.2440944881889764,
                    "duration": 0.39655162500000074
                },
                {
                    "name": "G3",
                    "midi": 55,
                    "time": 139.8620339999997,
                    "velocity": 0.3700787401574803,
                    "duration": 0.39655162500000074
                },
                {
                    "name": "B2",
                    "midi": 47,
                    "time": 139.8620339999997,
                    "velocity": 0.3228346456692913,
                    "duration": 0.39655162500000074
                },
                {
                    "name": "A3",
                    "midi": 57,
                    "time": 140.6896199999997,
                    "velocity": 0.2992125984251969,
                    "duration": 0.39655162500000074
                },
                {
                    "name": "D3",
                    "midi": 50,
                    "time": 140.6896199999997,
                    "velocity": 0.2440944881889764,
                    "duration": 0.39655162500000074
                },
                {
                    "name": "C3",
                    "midi": 48,
                    "time": 140.6896199999997,
                    "velocity": 0.3464566929133858,
                    "duration": 0.39655162500000074
                },
                {
                    "name": "G3",
                    "midi": 55,
                    "time": 141.5172059999997,
                    "velocity": 0.3779527559055118,
                    "duration": 0.39655162500000074
                },
                {
                    "name": "B2",
                    "midi": 47,
                    "time": 141.5172059999997,
                    "velocity": 0.2992125984251969,
                    "duration": 0.39655162500000074
                },
                {
                    "name": "D3",
                    "midi": 50,
                    "time": 141.5172059999997,
                    "velocity": 0.31496062992125984,
                    "duration": 0.39655162500000074
                },
                {
                    "name": "F#3",
                    "midi": 54,
                    "time": 142.3447919999997,
                    "velocity": 0.2755905511811024,
                    "duration": 0.39655162500000074
                },
                {
                    "name": "D3",
                    "midi": 50,
                    "time": 142.3447919999997,
                    "velocity": 0.33070866141732286,
                    "duration": 0.39655162500000074
                },
                {
                    "name": "C3",
                    "midi": 48,
                    "time": 142.3447919999997,
                    "velocity": 0.2992125984251969,
                    "duration": 0.39655162500000074
                },
                {
                    "name": "G3",
                    "midi": 55,
                    "time": 143.1723779999997,
                    "velocity": 0.3228346456692913,
                    "duration": 0.39655162500000074
                },
                {
                    "name": "D3",
                    "midi": 50,
                    "time": 143.1723779999997,
                    "velocity": 0.36220472440944884,
                    "duration": 0.39655162500000074
                },
                {
                    "name": "B2",
                    "midi": 47,
                    "time": 143.1723779999997,
                    "velocity": 0.23622047244094488,
                    "duration": 0.39655162500000074
                },
                {
                    "name": "F#3",
                    "midi": 54,
                    "time": 143.9999639999997,
                    "velocity": 0.2992125984251969,
                    "duration": 0.39655162500000074
                },
                {
                    "name": "D3",
                    "midi": 50,
                    "time": 143.9999639999997,
                    "velocity": 0.36220472440944884,
                    "duration": 0.39655162500000074
                },
                {
                    "name": "C3",
                    "midi": 48,
                    "time": 143.9999639999997,
                    "velocity": 0.2992125984251969,
                    "duration": 0.39655162500000074
                },
                {
                    "name": "D3",
                    "midi": 50,
                    "time": 144.4137569999997,
                    "velocity": 0.30708661417322836,
                    "duration": 0.39655162500000074
                },
                {
                    "name": "G3",
                    "midi": 55,
                    "time": 144.4137569999997,
                    "velocity": 0.33070866141732286,
                    "duration": 0.39655162500000074
                },
                {
                    "name": "B2",
                    "midi": 47,
                    "time": 144.4137569999997,
                    "velocity": 0.3858267716535433,
                    "duration": 0.39655162500000074
                },
                {
                    "name": "D3",
                    "midi": 50,
                    "time": 144.8275499999997,
                    "velocity": 0.23622047244094488,
                    "duration": 0.39655162500000074
                },
                {
                    "name": "F#3",
                    "midi": 54,
                    "time": 144.8275499999997,
                    "velocity": 0.3700787401574803,
                    "duration": 0.39655162500000074
                },
                {
                    "name": "C3",
                    "midi": 48,
                    "time": 144.8275499999997,
                    "velocity": 0.33070866141732286,
                    "duration": 0.39655162500000074
                },
                {
                    "name": "D3",
                    "midi": 50,
                    "time": 145.2413429999997,
                    "velocity": 0.2755905511811024,
                    "duration": 0.39655162500000074
                },
                {
                    "name": "B2",
                    "midi": 47,
                    "time": 145.2413429999997,
                    "velocity": 0.2992125984251969,
                    "duration": 0.39655162500000074
                },
                {
                    "name": "G3",
                    "midi": 55,
                    "time": 145.2413429999997,
                    "velocity": 0.28346456692913385,
                    "duration": 0.39655162500000074
                },
                {
                    "name": "D3",
                    "midi": 50,
                    "time": 145.6551359999997,
                    "velocity": 0.3700787401574803,
                    "duration": 0.39655162500000074
                },
                {
                    "name": "C3",
                    "midi": 48,
                    "time": 145.6551359999997,
                    "velocity": 0.3779527559055118,
                    "duration": 0.39655162500000074
                },
                {
                    "name": "F#3",
                    "midi": 54,
                    "time": 145.6551359999997,
                    "velocity": 0.30708661417322836,
                    "duration": 0.39655162500000074
                },
                {
                    "name": "D3",
                    "midi": 50,
                    "time": 146.06892899999968,
                    "velocity": 0.29133858267716534,
                    "duration": 0.39655162500000074
                },
                {
                    "name": "G3",
                    "midi": 55,
                    "time": 146.06892899999968,
                    "velocity": 0.23622047244094488,
                    "duration": 0.39655162500000074
                },
                {
                    "name": "B2",
                    "midi": 47,
                    "time": 146.06892899999968,
                    "velocity": 0.2992125984251969,
                    "duration": 0.39655162500000074
                },
                {
                    "name": "A3",
                    "midi": 57,
                    "time": 147.72410099999968,
                    "velocity": 0.25196850393700787,
                    "duration": 0.39655162500000074
                },
                {
                    "name": "F3",
                    "midi": 53,
                    "time": 147.72410099999968,
                    "velocity": 0.3937007874015748,
                    "duration": 0.39655162500000074
                },
                {
                    "name": "C3",
                    "midi": 48,
                    "time": 147.72410099999968,
                    "velocity": 0.3779527559055118,
                    "duration": 0.39655162500000074
                },
                {
                    "name": "D3",
                    "midi": 50,
                    "time": 149.37927299999967,
                    "velocity": 0.28346456692913385,
                    "duration": 0.39655162500000074
                },
                {
                    "name": "A3",
                    "midi": 57,
                    "time": 149.37927299999967,
                    "velocity": 0.3700787401574803,
                    "duration": 0.39655162500000074
                },
                {
                    "name": "F3",
                    "midi": 53,
                    "time": 149.37927299999967,
                    "velocity": 0.3937007874015748,
                    "duration": 0.39655162500000074
                },
                {
                    "name": "E3",
                    "midi": 52,
                    "time": 151.03444499999966,
                    "velocity": 0.2440944881889764,
                    "duration": 0.39655162500000074
                },
                {
                    "name": "G#3",
                    "midi": 56,
                    "time": 151.03444499999966,
                    "velocity": 0.33070866141732286,
                    "duration": 0.39655162500000074
                },
                {
                    "name": "B2",
                    "midi": 47,
                    "time": 151.03444499999966,
                    "velocity": 0.30708661417322836,
                    "duration": 0.39655162500000074
                },
                {
                    "name": "E3",
                    "midi": 52,
                    "time": 153.93099599999965,
                    "velocity": 0.2755905511811024,
                    "duration": 0.39655162500000074
                },
                {
                    "name": "A3",
                    "midi": 57,
                    "time": 153.93099599999965,
                    "velocity": 0.3700787401574803,
                    "duration": 0.39655162500000074
                },
                {
                    "name": "C3",
                    "midi": 48,
                    "time": 153.93099599999965,
                    "velocity": 0.28346456692913385,
                    "duration": 0.39655162500000074
                },
                {
                    "name": "G#3",
                    "midi": 56,
                    "time": 154.75858199999965,
                    "velocity": 0.2440944881889764,
                    "duration": 0.39655162500000074
                },
                {
                    "name": "E3",
                    "midi": 52,
                    "time": 154.75858199999965,
                    "velocity": 0.23622047244094488,
                    "duration": 0.39655162500000074
                },
                {
                    "name": "B2",
                    "midi": 47,
                    "time": 154.75858199999965,
                    "velocity": 0.23622047244094488,
                    "duration": 0.39655162500000074
                },
                {
                    "name": "E3",
                    "midi": 52,
                    "time": 155.58616799999965,
                    "velocity": 0.3464566929133858,
                    "duration": 0.39655162500000074
                },
                {
                    "name": "G#3",
                    "midi": 56,
                    "time": 155.58616799999965,
                    "velocity": 0.31496062992125984,
                    "duration": 0.39655162500000074
                },
                {
                    "name": "B2",
                    "midi": 47,
                    "time": 155.58616799999965,
                    "velocity": 0.3543307086614173,
                    "duration": 0.39655162500000074
                },
                {
                    "name": "A3",
                    "midi": 57,
                    "time": 156.41375399999964,
                    "velocity": 0.3858267716535433,
                    "duration": 0.39655162500000074
                },
                {
                    "name": "C3",
                    "midi": 48,
                    "time": 156.41375399999964,
                    "velocity": 0.30708661417322836,
                    "duration": 0.39655162500000074
                },
                {
                    "name": "E3",
                    "midi": 52,
                    "time": 156.41375399999964,
                    "velocity": 0.3228346456692913,
                    "duration": 0.39655162500000074
                },
                {
                    "name": "E3",
                    "midi": 52,
                    "time": 157.24133999999964,
                    "velocity": 0.36220472440944884,
                    "duration": 0.39655162500000074
                },
                {
                    "name": "C3",
                    "midi": 48,
                    "time": 157.24133999999964,
                    "velocity": 0.30708661417322836,
                    "duration": 0.39655162500000074
                },
                {
                    "name": "G3",
                    "midi": 55,
                    "time": 157.24133999999964,
                    "velocity": 0.3700787401574803,
                    "duration": 0.39655162500000074
                },
                {
                    "name": "G3",
                    "midi": 55,
                    "time": 158.06892599999964,
                    "velocity": 0.31496062992125984,
                    "duration": 0.39655162500000074
                },
                {
                    "name": "F3",
                    "midi": 53,
                    "time": 158.06892599999964,
                    "velocity": 0.33858267716535434,
                    "duration": 0.39655162500000074
                },
                {
                    "name": "B3",
                    "midi": 59,
                    "time": 158.06892599999964,
                    "velocity": 0.2677165354330709,
                    "duration": 0.39655162500000074
                },
                {
                    "name": "G3",
                    "midi": 55,
                    "time": 158.89651199999963,
                    "velocity": 0.3779527559055118,
                    "duration": 0.39655162500000074
                },
                {
                    "name": "F3",
                    "midi": 53,
                    "time": 158.89651199999963,
                    "velocity": 0.3543307086614173,
                    "duration": 0.39655162500000074
                },
                {
                    "name": "B3",
                    "midi": 59,
                    "time": 158.89651199999963,
                    "velocity": 0.3700787401574803,
                    "duration": 0.39655162500000074
                },
                {
                    "name": "E3",
                    "midi": 52,
                    "time": 159.72409799999963,
                    "velocity": 0.25984251968503935,
                    "duration": 0.39655162500000074
                },
                {
                    "name": "C4",
                    "midi": 60,
                    "time": 159.72409799999963,
                    "velocity": 0.3779527559055118,
                    "duration": 0.39655162500000074
                },
                {
                    "name": "G3",
                    "midi": 55,
                    "time": 159.72409799999963,
                    "velocity": 0.3779527559055118,
                    "duration": 0.39655162500000074
                },
                {
                    "name": "E3",
                    "midi": 52,
                    "time": 160.55168399999963,
                    "velocity": 0.3937007874015748,
                    "duration": 0.39655162500000074
                },
                {
                    "name": "G3",
                    "midi": 55,
                    "time": 160.55168399999963,
                    "velocity": 0.2440944881889764,
                    "duration": 0.39655162500000074
                },
                {
                    "name": "B3",
                    "midi": 59,
                    "time": 160.55168399999963,
                    "velocity": 0.28346456692913385,
                    "duration": 0.39655162500000074
                },
                {
                    "name": "A3",
                    "midi": 57,
                    "time": 161.37926999999962,
                    "velocity": 0.25196850393700787,
                    "duration": 0.39655162500000074
                },
                {
                    "name": "D#4",
                    "midi": 63,
                    "time": 161.37926999999962,
                    "velocity": 0.3779527559055118,
                    "duration": 0.39655162500000074
                },
                {
                    "name": "G3",
                    "midi": 55,
                    "time": 161.37926999999962,
                    "velocity": 0.3700787401574803,
                    "duration": 0.39655162500000074
                },
                {
                    "name": "D#4",
                    "midi": 63,
                    "time": 162.20685599999962,
                    "velocity": 0.3858267716535433,
                    "duration": 0.39655162500000074
                },
                {
                    "name": "A3",
                    "midi": 57,
                    "time": 162.20685599999962,
                    "velocity": 0.3937007874015748,
                    "duration": 0.39655162500000074
                },
                {
                    "name": "G3",
                    "midi": 55,
                    "time": 162.20685599999962,
                    "velocity": 0.3858267716535433,
                    "duration": 0.39655162500000074
                },
                {
                    "name": "E4",
                    "midi": 64,
                    "time": 163.03444199999961,
                    "velocity": 0.3700787401574803,
                    "duration": 0.39655162500000074
                },
                {
                    "name": "G3",
                    "midi": 55,
                    "time": 163.03444199999961,
                    "velocity": 0.3779527559055118,
                    "duration": 0.39655162500000074
                },
                {
                    "name": "B3",
                    "midi": 59,
                    "time": 163.03444199999961,
                    "velocity": 0.25984251968503935,
                    "duration": 0.39655162500000074
                },
                {
                    "name": "E3",
                    "midi": 52,
                    "time": 163.8620279999996,
                    "velocity": 0.2440944881889764,
                    "duration": 0.39655162500000074
                },
                {
                    "name": "A3",
                    "midi": 57,
                    "time": 163.8620279999996,
                    "velocity": 0.30708661417322836,
                    "duration": 0.39655162500000074
                },
                {
                    "name": "C4",
                    "midi": 60,
                    "time": 163.8620279999996,
                    "velocity": 0.3543307086614173,
                    "duration": 0.39655162500000074
                },
                {
                    "name": "E3",
                    "midi": 52,
                    "time": 164.6896139999996,
                    "velocity": 0.29133858267716534,
                    "duration": 0.39655162500000074
                },
                {
                    "name": "B3",
                    "midi": 59,
                    "time": 164.6896139999996,
                    "velocity": 0.23622047244094488,
                    "duration": 0.39655162500000074
                },
                {
                    "name": "G3",
                    "midi": 55,
                    "time": 164.6896139999996,
                    "velocity": 0.3858267716535433,
                    "duration": 0.39655162500000074
                },
                {
                    "name": "A3",
                    "midi": 57,
                    "time": 165.5171999999996,
                    "velocity": 0.28346456692913385,
                    "duration": 0.39655162500000074
                },
                {
                    "name": "D#4",
                    "midi": 63,
                    "time": 165.5171999999996,
                    "velocity": 0.2992125984251969,
                    "duration": 0.39655162500000074
                },
                {
                    "name": "B3",
                    "midi": 59,
                    "time": 165.5171999999996,
                    "velocity": 0.3228346456692913,
                    "duration": 0.39655162500000074
                },
                {
                    "name": "G#3",
                    "midi": 56,
                    "time": 166.3447859999996,
                    "velocity": 0.29133858267716534,
                    "duration": 0.39655162500000074
                },
                {
                    "name": "E4",
                    "midi": 64,
                    "time": 166.3447859999996,
                    "velocity": 0.25984251968503935,
                    "duration": 0.39655162500000074
                },
                {
                    "name": "B3",
                    "midi": 59,
                    "time": 166.3447859999996,
                    "velocity": 0.3700787401574803,
                    "duration": 0.39655162500000074
                },
                {
                    "name": "G3",
                    "midi": 55,
                    "time": 167.1723719999996,
                    "velocity": 0.2992125984251969,
                    "duration": 0.39655162500000074
                },
                {
                    "name": "A3",
                    "midi": 57,
                    "time": 167.1723719999996,
                    "velocity": 0.3858267716535433,
                    "duration": 0.39655162500000074
                },
                {
                    "name": "C#4",
                    "midi": 61,
                    "time": 167.1723719999996,
                    "velocity": 0.31496062992125984,
                    "duration": 0.39655162500000074
                },
                {
                    "name": "F#3",
                    "midi": 54,
                    "time": 167.9999579999996,
                    "velocity": 0.2440944881889764,
                    "duration": 0.39655162500000074
                },
                {
                    "name": "D4",
                    "midi": 62,
                    "time": 167.9999579999996,
                    "velocity": 0.36220472440944884,
                    "duration": 0.39655162500000074
                },
                {
                    "name": "A3",
                    "midi": 57,
                    "time": 167.9999579999996,
                    "velocity": 0.3779527559055118,
                    "duration": 0.39655162500000074
                },
                {
                    "name": "G3",
                    "midi": 55,
                    "time": 168.8275439999996,
                    "velocity": 0.2992125984251969,
                    "duration": 0.39655162500000074
                },
                {
                    "name": "F3",
                    "midi": 53,
                    "time": 168.8275439999996,
                    "velocity": 0.2755905511811024,
                    "duration": 0.39655162500000074
                },
                {
                    "name": "B3",
                    "midi": 59,
                    "time": 168.8275439999996,
                    "velocity": 0.3543307086614173,
                    "duration": 0.39655162500000074
                },
                {
                    "name": "E3",
                    "midi": 52,
                    "time": 169.6551299999996,
                    "velocity": 0.3937007874015748,
                    "duration": 0.39655162500000074
                },
                {
                    "name": "G3",
                    "midi": 55,
                    "time": 169.6551299999996,
                    "velocity": 0.31496062992125984,
                    "duration": 0.39655162500000074
                },
                {
                    "name": "A#3",
                    "midi": 58,
                    "time": 169.6551299999996,
                    "velocity": 0.2755905511811024,
                    "duration": 0.39655162500000074
                },
                {
                    "name": "F3",
                    "midi": 53,
                    "time": 170.48271599999958,
                    "velocity": 0.3779527559055118,
                    "duration": 0.39655162500000074
                },
                {
                    "name": "C3",
                    "midi": 48,
                    "time": 170.48271599999958,
                    "velocity": 0.3858267716535433,
                    "duration": 0.39655162500000074
                },
                {
                    "name": "A3",
                    "midi": 57,
                    "time": 170.48271599999958,
                    "velocity": 0.28346456692913385,
                    "duration": 0.39655162500000074
                },
                {
                    "name": "D3",
                    "midi": 50,
                    "time": 170.89650899999958,
                    "velocity": 0.3543307086614173,
                    "duration": 0.1896551250000016
                },
                {
                    "name": "A#3",
                    "midi": 58,
                    "time": 170.89650899999958,
                    "velocity": 0.3228346456692913,
                    "duration": 0.1896551250000016
                },
                {
                    "name": "F3",
                    "midi": 53,
                    "time": 170.89650899999958,
                    "velocity": 0.25984251968503935,
                    "duration": 0.1896551250000016
                },
                {
                    "name": "F3",
                    "midi": 53,
                    "time": 171.72409499999958,
                    "velocity": 0.3937007874015748,
                    "duration": 0.39655162500000074
                },
                {
                    "name": "C3",
                    "midi": 48,
                    "time": 171.72409499999958,
                    "velocity": 0.25984251968503935,
                    "duration": 0.39655162500000074
                },
                {
                    "name": "A3",
                    "midi": 57,
                    "time": 171.72409499999958,
                    "velocity": 0.2440944881889764,
                    "duration": 0.39655162500000074
                },
                {
                    "name": "E3",
                    "midi": 52,
                    "time": 172.13788799999958,
                    "velocity": 0.3858267716535433,
                    "duration": 0.39655162500000074
                },
                {
                    "name": "G3",
                    "midi": 55,
                    "time": 172.13788799999958,
                    "velocity": 0.30708661417322836,
                    "duration": 0.39655162500000074
                },
                {
                    "name": "A#2",
                    "midi": 46,
                    "time": 172.13788799999958,
                    "velocity": 0.23622047244094488,
                    "duration": 0.39655162500000074
                },
                {
                    "name": "A2",
                    "midi": 45,
                    "time": 172.55168099999958,
                    "velocity": 0.3779527559055118,
                    "duration": 0.39655162500000074
                },
                {
                    "name": "F3",
                    "midi": 53,
                    "time": 172.55168099999958,
                    "velocity": 0.2992125984251969,
                    "duration": 0.39655162500000074
                },
                {
                    "name": "C3",
                    "midi": 48,
                    "time": 172.55168099999958,
                    "velocity": 0.28346456692913385,
                    "duration": 0.39655162500000074
                },
                {
                    "name": "A2",
                    "midi": 45,
                    "time": 173.37926699999957,
                    "velocity": 0.3464566929133858,
                    "duration": 0.39655162500000074
                },
                {
                    "name": "F3",
                    "midi": 53,
                    "time": 173.37926699999957,
                    "velocity": 0.3228346456692913,
                    "duration": 0.39655162500000074
                },
                {
                    "name": "C3",
                    "midi": 48,
                    "time": 173.37926699999957,
                    "velocity": 0.3700787401574803,
                    "duration": 0.39655162500000074
                },
                {
                    "name": "A2",
                    "midi": 45,
                    "time": 173.79305999999957,
                    "velocity": 0.2992125984251969,
                    "duration": 0.39655162500000074
                },
                {
                    "name": "C3",
                    "midi": 48,
                    "time": 173.79305999999957,
                    "velocity": 0.25196850393700787,
                    "duration": 0.39655162500000074
                },
                {
                    "name": "F3",
                    "midi": 53,
                    "time": 173.79305999999957,
                    "velocity": 0.31496062992125984,
                    "duration": 0.39655162500000074
                },
                {
                    "name": "G3",
                    "midi": 55,
                    "time": 174.20685299999957,
                    "velocity": 0.2677165354330709,
                    "duration": 0.39655162500000074
                },
                {
                    "name": "A#2",
                    "midi": 46,
                    "time": 174.20685299999957,
                    "velocity": 0.3228346456692913,
                    "duration": 0.39655162500000074
                },
                {
                    "name": "C3",
                    "midi": 48,
                    "time": 174.20685299999957,
                    "velocity": 0.33858267716535434,
                    "duration": 0.39655162500000074
                },
                {
                    "name": "E3",
                    "midi": 52,
                    "time": 175.03443899999957,
                    "velocity": 0.3779527559055118,
                    "duration": 0.39655162500000074
                },
                {
                    "name": "C3",
                    "midi": 48,
                    "time": 175.03443899999957,
                    "velocity": 0.29133858267716534,
                    "duration": 0.39655162500000074
                },
                {
                    "name": "A#2",
                    "midi": 46,
                    "time": 175.03443899999957,
                    "velocity": 0.3464566929133858,
                    "duration": 0.39655162500000074
                },
                {
                    "name": "F3",
                    "midi": 53,
                    "time": 175.86202499999956,
                    "velocity": 0.3543307086614173,
                    "duration": 0.39655162500000074
                },
                {
                    "name": "A2",
                    "midi": 45,
                    "time": 175.86202499999956,
                    "velocity": 0.3228346456692913,
                    "duration": 0.39655162500000074
                },
                {
                    "name": "C3",
                    "midi": 48,
                    "time": 175.86202499999956,
                    "velocity": 0.3700787401574803,
                    "duration": 0.39655162500000074
                },
                {
                    "name": "A2",
                    "midi": 45,
                    "time": 176.68961099999956,
                    "velocity": 0.33070866141732286,
                    "duration": 0.39655162500000074
                },
                {
                    "name": "C3",
                    "midi": 48,
                    "time": 176.68961099999956,
                    "velocity": 0.25196850393700787,
                    "duration": 0.39655162500000074
                },
                {
                    "name": "F3",
                    "midi": 53,
                    "time": 176.68961099999956,
                    "velocity": 0.3858267716535433,
                    "duration": 0.39655162500000074
                },
                {
                    "name": "A2",
                    "midi": 45,
                    "time": 177.10340399999956,
                    "velocity": 0.31496062992125984,
                    "duration": 0.39655162500000074
                },
                {
                    "name": "F3",
                    "midi": 53,
                    "time": 177.10340399999956,
                    "velocity": 0.3543307086614173,
                    "duration": 0.39655162500000074
                },
                {
                    "name": "C3",
                    "midi": 48,
                    "time": 177.10340399999956,
                    "velocity": 0.3228346456692913,
                    "duration": 0.39655162500000074
                },
                {
                    "name": "A#2",
                    "midi": 46,
                    "time": 177.51719699999956,
                    "velocity": 0.31496062992125984,
                    "duration": 0.39655162500000074
                },
                {
                    "name": "C3",
                    "midi": 48,
                    "time": 177.51719699999956,
                    "velocity": 0.2992125984251969,
                    "duration": 0.39655162500000074
                },
                {
                    "name": "G3",
                    "midi": 55,
                    "time": 177.51719699999956,
                    "velocity": 0.2677165354330709,
                    "duration": 0.39655162500000074
                },
                {
                    "name": "A#2",
                    "midi": 46,
                    "time": 178.34478299999955,
                    "velocity": 0.23622047244094488,
                    "duration": 0.39655162500000074
                },
                {
                    "name": "C3",
                    "midi": 48,
                    "time": 178.34478299999955,
                    "velocity": 0.2440944881889764,
                    "duration": 0.39655162500000074
                },
                {
                    "name": "E3",
                    "midi": 52,
                    "time": 178.34478299999955,
                    "velocity": 0.23622047244094488,
                    "duration": 0.39655162500000074
                },
                {
                    "name": "A2",
                    "midi": 45,
                    "time": 179.17236899999955,
                    "velocity": 0.2440944881889764,
                    "duration": 0.39655162500000074
                },
                {
                    "name": "F3",
                    "midi": 53,
                    "time": 179.17236899999955,
                    "velocity": 0.3937007874015748,
                    "duration": 0.39655162500000074
                },
                {
                    "name": "C3",
                    "midi": 48,
                    "time": 179.17236899999955,
                    "velocity": 0.3464566929133858,
                    "duration": 0.39655162500000074
                },
                {
                    "name": "F3",
                    "midi": 53,
                    "time": 179.99995499999955,
                    "velocity": 0.3464566929133858,
                    "duration": 0.39655162500000074
                },
                {
                    "name": "A2",
                    "midi": 45,
                    "time": 179.99995499999955,
                    "velocity": 0.33858267716535434,
                    "duration": 0.39655162500000074
                },
                {
                    "name": "C3",
                    "midi": 48,
                    "time": 179.99995499999955,
                    "velocity": 0.3228346456692913,
                    "duration": 0.39655162500000074
                },
                {
                    "name": "C#3",
                    "midi": 49,
                    "time": 181.24133399999954,
                    "velocity": 0.3700787401574803,
                    "duration": 0.39655162500000074
                },
                {
                    "name": "A2",
                    "midi": 45,
                    "time": 181.24133399999954,
                    "velocity": 0.28346456692913385,
                    "duration": 0.39655162500000074
                },
                {
                    "name": "G3",
                    "midi": 55,
                    "time": 181.24133399999954,
                    "velocity": 0.3700787401574803,
                    "duration": 0.39655162500000074
                },
                {
                    "name": "D3",
                    "midi": 50,
                    "time": 182.06891999999954,
                    "velocity": 0.3700787401574803,
                    "duration": 0.39655162500000074
                },
                {
                    "name": "A2",
                    "midi": 45,
                    "time": 182.06891999999954,
                    "velocity": 0.28346456692913385,
                    "duration": 0.39655162500000074
                },
                {
                    "name": "F3",
                    "midi": 53,
                    "time": 182.06891999999954,
                    "velocity": 0.2992125984251969,
                    "duration": 0.39655162500000074
                },
                {
                    "name": "E3",
                    "midi": 52,
                    "time": 182.48271299999953,
                    "velocity": 0.3700787401574803,
                    "duration": 0.39655162500000074
                },
                {
                    "name": "G#3",
                    "midi": 56,
                    "time": 182.48271299999953,
                    "velocity": 0.30708661417322836,
                    "duration": 0.39655162500000074
                },
                {
                    "name": "E3",
                    "midi": 52,
                    "time": 183.31029899999953,
                    "velocity": 0.2440944881889764,
                    "duration": 0.39655162500000074
                },
                {
                    "name": "A3",
                    "midi": 57,
                    "time": 183.31029899999953,
                    "velocity": 0.29133858267716534,
                    "duration": 0.39655162500000074
                },
                {
                    "name": "B3",
                    "midi": 59,
                    "time": 183.72409199999953,
                    "velocity": 0.3700787401574803,
                    "duration": 0.39655162500000074
                },
                {
                    "name": "E3",
                    "midi": 52,
                    "time": 183.72409199999953,
                    "velocity": 0.28346456692913385,
                    "duration": 0.39655162500000074
                },
                {
                    "name": "E3",
                    "midi": 52,
                    "time": 184.13788499999953,
                    "velocity": 0.3228346456692913,
                    "duration": 0.39655162500000074
                },
                {
                    "name": "C4",
                    "midi": 60,
                    "time": 184.13788499999953,
                    "velocity": 0.2755905511811024,
                    "duration": 0.39655162500000074
                },
                {
                    "name": "A3",
                    "midi": 57,
                    "time": 184.55167799999953,
                    "velocity": 0.3700787401574803,
                    "duration": 0.39655162500000074
                },
                {
                    "name": "C#4",
                    "midi": 61,
                    "time": 184.55167799999953,
                    "velocity": 0.3543307086614173,
                    "duration": 0.39655162500000074
                },
                {
                    "name": "A3",
                    "midi": 57,
                    "time": 184.96547099999952,
                    "velocity": 0.3464566929133858,
                    "duration": 0.39655162500000074
                },
                {
                    "name": "D4",
                    "midi": 62,
                    "time": 184.96547099999952,
                    "velocity": 0.3858267716535433,
                    "duration": 0.39655162500000074
                },
                {
                    "name": "D#4",
                    "midi": 63,
                    "time": 185.37926399999952,
                    "velocity": 0.2755905511811024,
                    "duration": 0.39655162500000074
                },
                {
                    "name": "A3",
                    "midi": 57,
                    "time": 185.37926399999952,
                    "velocity": 0.25984251968503935,
                    "duration": 0.39655162500000074
                },
                {
                    "name": "G#3",
                    "midi": 56,
                    "time": 185.79305699999952,
                    "velocity": 0.3464566929133858,
                    "duration": 0.39655162500000074
                },
                {
                    "name": "E4",
                    "midi": 64,
                    "time": 185.79305699999952,
                    "velocity": 0.3779527559055118,
                    "duration": 0.39655162500000074
                },
                {
                    "name": "G#4",
                    "midi": 68,
                    "time": 186.62064299999952,
                    "velocity": 0.3858267716535433,
                    "duration": 0.39655162500000074
                },
                {
                    "name": "E4",
                    "midi": 64,
                    "time": 186.62064299999952,
                    "velocity": 0.25196850393700787,
                    "duration": 0.39655162500000074
                },
                {
                    "name": "B3",
                    "midi": 59,
                    "time": 186.62064299999952,
                    "velocity": 0.28346456692913385,
                    "duration": 0.39655162500000074
                },
                {
                    "name": "G#4",
                    "midi": 68,
                    "time": 187.03443599999952,
                    "velocity": 0.2440944881889764,
                    "duration": 0.39655162500000074
                },
                {
                    "name": "E4",
                    "midi": 64,
                    "time": 187.03443599999952,
                    "velocity": 0.2755905511811024,
                    "duration": 0.39655162500000074
                },
                {
                    "name": "B3",
                    "midi": 59,
                    "time": 187.03443599999952,
                    "velocity": 0.25984251968503935,
                    "duration": 0.39655162500000074
                },
                {
                    "name": "A4",
                    "midi": 69,
                    "time": 187.44822899999951,
                    "velocity": 0.3937007874015748,
                    "duration": 0.39655162500000074
                },
                {
                    "name": "C4",
                    "midi": 60,
                    "time": 187.44822899999951,
                    "velocity": 0.25196850393700787,
                    "duration": 0.39655162500000074
                },
                {
                    "name": "E4",
                    "midi": 64,
                    "time": 187.44822899999951,
                    "velocity": 0.3779527559055118,
                    "duration": 0.39655162500000074
                },
                {
                    "name": "A4",
                    "midi": 69,
                    "time": 188.2758149999995,
                    "velocity": 0.2992125984251969,
                    "duration": 0.39655162500000074
                },
                {
                    "name": "C4",
                    "midi": 60,
                    "time": 188.2758149999995,
                    "velocity": 0.25984251968503935,
                    "duration": 0.39655162500000074
                },
                {
                    "name": "E4",
                    "midi": 64,
                    "time": 188.2758149999995,
                    "velocity": 0.2992125984251969,
                    "duration": 0.39655162500000074
                },
                {
                    "name": "G#4",
                    "midi": 68,
                    "time": 189.1034009999995,
                    "velocity": 0.3543307086614173,
                    "duration": 0.39655162500000074
                },
                {
                    "name": "B3",
                    "midi": 59,
                    "time": 189.1034009999995,
                    "velocity": 0.30708661417322836,
                    "duration": 0.39655162500000074
                },
                {
                    "name": "E4",
                    "midi": 64,
                    "time": 189.1034009999995,
                    "velocity": 0.3464566929133858,
                    "duration": 0.39655162500000074
                },
                {
                    "name": "E3",
                    "midi": 52,
                    "time": 189.9309869999995,
                    "velocity": 0.29133858267716534,
                    "duration": 0.39655162500000074
                },
                {
                    "name": "B2",
                    "midi": 47,
                    "time": 189.9309869999995,
                    "velocity": 0.3779527559055118,
                    "duration": 0.39655162500000074
                },
                {
                    "name": "G#3",
                    "midi": 56,
                    "time": 189.9309869999995,
                    "velocity": 0.25196850393700787,
                    "duration": 0.39655162500000074
                },
                {
                    "name": "G#3",
                    "midi": 56,
                    "time": 190.3447799999995,
                    "velocity": 0.33070866141732286,
                    "duration": 0.39655162500000074
                },
                {
                    "name": "E3",
                    "midi": 52,
                    "time": 190.3447799999995,
                    "velocity": 0.2440944881889764,
                    "duration": 0.39655162500000074
                },
                {
                    "name": "B2",
                    "midi": 47,
                    "time": 190.3447799999995,
                    "velocity": 0.3464566929133858,
                    "duration": 0.39655162500000074
                },
                {
                    "name": "A3",
                    "midi": 57,
                    "time": 190.7585729999995,
                    "velocity": 0.28346456692913385,
                    "duration": 0.39655162500000074
                },
                {
                    "name": "E3",
                    "midi": 52,
                    "time": 190.7585729999995,
                    "velocity": 0.3937007874015748,
                    "duration": 0.39655162500000074
                },
                {
                    "name": "C3",
                    "midi": 48,
                    "time": 190.7585729999995,
                    "velocity": 0.2440944881889764,
                    "duration": 0.39655162500000074
                },
                {
                    "name": "A3",
                    "midi": 57,
                    "time": 191.5861589999995,
                    "velocity": 0.33858267716535434,
                    "duration": 0.39655162500000074
                },
                {
                    "name": "E3",
                    "midi": 52,
                    "time": 191.5861589999995,
                    "velocity": 0.29133858267716534,
                    "duration": 0.39655162500000074
                },
                {
                    "name": "C3",
                    "midi": 48,
                    "time": 191.5861589999995,
                    "velocity": 0.3228346456692913,
                    "duration": 0.39655162500000074
                },
                {
                    "name": "E3",
                    "midi": 52,
                    "time": 192.4137449999995,
                    "velocity": 0.3228346456692913,
                    "duration": 0.39655162500000074
                },
                {
                    "name": "G#3",
                    "midi": 56,
                    "time": 192.4137449999995,
                    "velocity": 0.3937007874015748,
                    "duration": 0.39655162500000074
                },
                {
                    "name": "B2",
                    "midi": 47,
                    "time": 192.4137449999995,
                    "velocity": 0.2755905511811024,
                    "duration": 0.39655162500000074
                },
                {
                    "name": "E3",
                    "midi": 52,
                    "time": 192.8275379999995,
                    "velocity": 0.30708661417322836,
                    "duration": 0.39655162500000074
                },
                {
                    "name": "G3",
                    "midi": 55,
                    "time": 192.8275379999995,
                    "velocity": 0.3543307086614173,
                    "duration": 0.39655162500000074
                },
                {
                    "name": "E3",
                    "midi": 52,
                    "time": 193.2413309999995,
                    "velocity": 0.30708661417322836,
                    "duration": 0.39655162500000074
                },
                {
                    "name": "A3",
                    "midi": 57,
                    "time": 193.2413309999995,
                    "velocity": 0.36220472440944884,
                    "duration": 0.39655162500000074
                },
                {
                    "name": "E3",
                    "midi": 52,
                    "time": 193.6551239999995,
                    "velocity": 0.30708661417322836,
                    "duration": 0.39655162500000074
                },
                {
                    "name": "G3",
                    "midi": 55,
                    "time": 193.6551239999995,
                    "velocity": 0.3700787401574803,
                    "duration": 0.39655162500000074
                },
                {
                    "name": "B3",
                    "midi": 59,
                    "time": 193.6551239999995,
                    "velocity": 0.2992125984251969,
                    "duration": 0.39655162500000074
                },
                {
                    "name": "C4",
                    "midi": 60,
                    "time": 194.0689169999995,
                    "velocity": 0.3779527559055118,
                    "duration": 0.39655162500000074
                },
                {
                    "name": "E3",
                    "midi": 52,
                    "time": 194.0689169999995,
                    "velocity": 0.25196850393700787,
                    "duration": 0.39655162500000074
                },
                {
                    "name": "A3",
                    "midi": 57,
                    "time": 194.0689169999995,
                    "velocity": 0.33070866141732286,
                    "duration": 0.39655162500000074
                },
                {
                    "name": "A3",
                    "midi": 57,
                    "time": 194.48270999999949,
                    "velocity": 0.23622047244094488,
                    "duration": 0.39655162500000074
                },
                {
                    "name": "C#4",
                    "midi": 61,
                    "time": 194.48270999999949,
                    "velocity": 0.36220472440944884,
                    "duration": 0.39655162500000074
                },
                {
                    "name": "A3",
                    "midi": 57,
                    "time": 194.89650299999948,
                    "velocity": 0.25984251968503935,
                    "duration": 0.39655162500000074
                },
                {
                    "name": "D4",
                    "midi": 62,
                    "time": 194.89650299999948,
                    "velocity": 0.3543307086614173,
                    "duration": 0.39655162500000074
                },
                {
                    "name": "E4",
                    "midi": 64,
                    "time": 195.31029599999948,
                    "velocity": 0.33070866141732286,
                    "duration": 0.39655162500000074
                },
                {
                    "name": "A3",
                    "midi": 57,
                    "time": 195.31029599999948,
                    "velocity": 0.28346456692913385,
                    "duration": 0.39655162500000074
                },
                {
                    "name": "C4",
                    "midi": 60,
                    "time": 195.31029599999948,
                    "velocity": 0.2440944881889764,
                    "duration": 0.39655162500000074
                },
                {
                    "name": "A3",
                    "midi": 57,
                    "time": 195.72408899999948,
                    "velocity": 0.3937007874015748,
                    "duration": 0.39655162500000074
                },
                {
                    "name": "F4",
                    "midi": 65,
                    "time": 195.72408899999948,
                    "velocity": 0.25984251968503935,
                    "duration": 0.39655162500000074
                },
                {
                    "name": "D4",
                    "midi": 62,
                    "time": 195.72408899999948,
                    "velocity": 0.3858267716535433,
                    "duration": 0.39655162500000074
                },
                {
                    "name": "D4",
                    "midi": 62,
                    "time": 196.13788199999948,
                    "velocity": 0.36220472440944884,
                    "duration": 0.39655162500000074
                },
                {
                    "name": "A4",
                    "midi": 69,
                    "time": 196.13788199999948,
                    "velocity": 0.28346456692913385,
                    "duration": 0.39655162500000074
                },
                {
                    "name": "F4",
                    "midi": 65,
                    "time": 196.13788199999948,
                    "velocity": 0.3464566929133858,
                    "duration": 0.39655162500000074
                },
                {
                    "name": "A#4",
                    "midi": 70,
                    "time": 196.55167499999948,
                    "velocity": 0.3228346456692913,
                    "duration": 0.39655162500000074
                },
                {
                    "name": "D4",
                    "midi": 62,
                    "time": 196.55167499999948,
                    "velocity": 0.3937007874015748,
                    "duration": 0.39655162500000074
                },
                {
                    "name": "F4",
                    "midi": 65,
                    "time": 196.55167499999948,
                    "velocity": 0.3228346456692913,
                    "duration": 0.39655162500000074
                },
                {
                    "name": "E4",
                    "midi": 64,
                    "time": 197.79305399999947,
                    "velocity": 0.3858267716535433,
                    "duration": 0.39655162500000074
                },
                {
                    "name": "C4",
                    "midi": 60,
                    "time": 197.79305399999947,
                    "velocity": 0.29133858267716534,
                    "duration": 0.39655162500000074
                },
                {
                    "name": "A4",
                    "midi": 69,
                    "time": 197.79305399999947,
                    "velocity": 0.3543307086614173,
                    "duration": 0.39655162500000074
                },
                {
                    "name": "D4",
                    "midi": 62,
                    "time": 198.62063999999947,
                    "velocity": 0.33858267716535434,
                    "duration": 0.39655162500000074
                },
                {
                    "name": "E4",
                    "midi": 64,
                    "time": 198.62063999999947,
                    "velocity": 0.25196850393700787,
                    "duration": 0.39655162500000074
                },
                {
                    "name": "G#4",
                    "midi": 68,
                    "time": 198.62063999999947,
                    "velocity": 0.29133858267716534,
                    "duration": 0.39655162500000074
                },
                {
                    "name": "C4",
                    "midi": 60,
                    "time": 199.03443299999947,
                    "velocity": 0.33858267716535434,
                    "duration": 0.39655162500000074
                },
                {
                    "name": "A4",
                    "midi": 69,
                    "time": 199.03443299999947,
                    "velocity": 0.3779527559055118,
                    "duration": 0.39655162500000074
                },
                {
                    "name": "E4",
                    "midi": 64,
                    "time": 199.03443299999947,
                    "velocity": 0.3858267716535433,
                    "duration": 0.39655162500000074
                },
                {
                    "name": "A3",
                    "midi": 57,
                    "time": 199.44822599999947,
                    "velocity": 0.3700787401574803,
                    "duration": 0.39655162500000074
                },
                {
                    "name": "C#4",
                    "midi": 61,
                    "time": 199.44822599999947,
                    "velocity": 0.25984251968503935,
                    "duration": 0.39655162500000074
                },
                {
                    "name": "E4",
                    "midi": 64,
                    "time": 199.44822599999947,
                    "velocity": 0.33070866141732286,
                    "duration": 0.39655162500000074
                },
                {
                    "name": "G4",
                    "midi": 67,
                    "time": 199.44822599999947,
                    "velocity": 0.3228346456692913,
                    "duration": 0.39655162500000074
                },
                {
                    "name": "A3",
                    "midi": 57,
                    "time": 199.86201899999946,
                    "velocity": 0.3779527559055118,
                    "duration": 0.39655162500000074
                },
                {
                    "name": "D4",
                    "midi": 62,
                    "time": 199.86201899999946,
                    "velocity": 0.3228346456692913,
                    "duration": 0.39655162500000074
                },
                {
                    "name": "F4",
                    "midi": 65,
                    "time": 199.86201899999946,
                    "velocity": 0.2440944881889764,
                    "duration": 0.39655162500000074
                },
                {
                    "name": "C4",
                    "midi": 60,
                    "time": 200.27581199999946,
                    "velocity": 0.2755905511811024,
                    "duration": 0.39655162500000074
                },
                {
                    "name": "G3",
                    "midi": 55,
                    "time": 200.27581199999946,
                    "velocity": 0.30708661417322836,
                    "duration": 0.39655162500000074
                },
                {
                    "name": "E4",
                    "midi": 64,
                    "time": 200.27581199999946,
                    "velocity": 0.2440944881889764,
                    "duration": 0.39655162500000074
                },
                {
                    "name": "D4",
                    "midi": 62,
                    "time": 200.68960499999946,
                    "velocity": 0.3858267716535433,
                    "duration": 0.39655162500000074
                },
                {
                    "name": "A3",
                    "midi": 57,
                    "time": 200.68960499999946,
                    "velocity": 0.3937007874015748,
                    "duration": 0.39655162500000074
                },
                {
                    "name": "F3",
                    "midi": 53,
                    "time": 200.68960499999946,
                    "velocity": 0.3464566929133858,
                    "duration": 0.39655162500000074
                },
                {
                    "name": "F3",
                    "midi": 53,
                    "time": 201.10339799999946,
                    "velocity": 0.2755905511811024,
                    "duration": 0.39655162500000074
                },
                {
                    "name": "G3",
                    "midi": 55,
                    "time": 201.10339799999946,
                    "velocity": 0.3543307086614173,
                    "duration": 0.39655162500000074
                },
                {
                    "name": "B3",
                    "midi": 59,
                    "time": 201.10339799999946,
                    "velocity": 0.23622047244094488,
                    "duration": 0.39655162500000074
                },
                {
                    "name": "E3",
                    "midi": 52,
                    "time": 201.51719099999946,
                    "velocity": 0.36220472440944884,
                    "duration": 0.39655162500000074
                },
                {
                    "name": "C4",
                    "midi": 60,
                    "time": 201.51719099999946,
                    "velocity": 0.29133858267716534,
                    "duration": 0.39655162500000074
                },
                {
                    "name": "G3",
                    "midi": 55,
                    "time": 201.51719099999946,
                    "velocity": 0.31496062992125984,
                    "duration": 0.39655162500000074
                },
                {
                    "name": "F3",
                    "midi": 53,
                    "time": 201.93098399999946,
                    "velocity": 0.3700787401574803,
                    "duration": 0.39655162500000074
                },
                {
                    "name": "G3",
                    "midi": 55,
                    "time": 201.93098399999946,
                    "velocity": 0.2755905511811024,
                    "duration": 0.39655162500000074
                },
                {
                    "name": "B3",
                    "midi": 59,
                    "time": 201.93098399999946,
                    "velocity": 0.3543307086614173,
                    "duration": 0.39655162500000074
                },
                {
                    "name": "E3",
                    "midi": 52,
                    "time": 202.34477699999945,
                    "velocity": 0.2440944881889764,
                    "duration": 0.39655162500000074
                },
                {
                    "name": "C4",
                    "midi": 60,
                    "time": 202.34477699999945,
                    "velocity": 0.3700787401574803,
                    "duration": 0.39655162500000074
                },
                {
                    "name": "G3",
                    "midi": 55,
                    "time": 202.34477699999945,
                    "velocity": 0.28346456692913385,
                    "duration": 0.39655162500000074
                },
                {
                    "name": "E3",
                    "midi": 52,
                    "time": 202.75856999999945,
                    "velocity": 0.25196850393700787,
                    "duration": 0.39655162500000074
                },
                {
                    "name": "G3",
                    "midi": 55,
                    "time": 202.75856999999945,
                    "velocity": 0.3543307086614173,
                    "duration": 0.39655162500000074
                },
                {
                    "name": "E3",
                    "midi": 52,
                    "time": 203.17236299999945,
                    "velocity": 0.25984251968503935,
                    "duration": 0.39655162500000074
                },
                {
                    "name": "D3",
                    "midi": 50,
                    "time": 203.17236299999945,
                    "velocity": 0.23622047244094488,
                    "duration": 0.39655162500000074
                },
                {
                    "name": "G#3",
                    "midi": 56,
                    "time": 203.17236299999945,
                    "velocity": 0.3464566929133858,
                    "duration": 0.39655162500000074
                },
                {
                    "name": "E3",
                    "midi": 52,
                    "time": 203.58615599999945,
                    "velocity": 0.2440944881889764,
                    "duration": 0.39655162500000074
                },
                {
                    "name": "C3",
                    "midi": 48,
                    "time": 203.58615599999945,
                    "velocity": 0.2755905511811024,
                    "duration": 0.39655162500000074
                },
                {
                    "name": "A3",
                    "midi": 57,
                    "time": 203.58615599999945,
                    "velocity": 0.3700787401574803,
                    "duration": 0.39655162500000074
                },
                {
                    "name": "G#3",
                    "midi": 56,
                    "time": 203.99994899999945,
                    "velocity": 0.3228346456692913,
                    "duration": 0.39655162500000074
                },
                {
                    "name": "E3",
                    "midi": 52,
                    "time": 203.99994899999945,
                    "velocity": 0.2755905511811024,
                    "duration": 0.39655162500000074
                },
                {
                    "name": "B3",
                    "midi": 59,
                    "time": 203.99994899999945,
                    "velocity": 0.25984251968503935,
                    "duration": 0.39655162500000074
                },
                {
                    "name": "C4",
                    "midi": 60,
                    "time": 204.41374199999944,
                    "velocity": 0.29133858267716534,
                    "duration": 0.39655162500000074
                },
                {
                    "name": "E3",
                    "midi": 52,
                    "time": 204.41374199999944,
                    "velocity": 0.3464566929133858,
                    "duration": 0.39655162500000074
                },
                {
                    "name": "G3",
                    "midi": 55,
                    "time": 204.41374199999944,
                    "velocity": 0.3937007874015748,
                    "duration": 0.39655162500000074
                },
                {
                    "name": "D4",
                    "midi": 62,
                    "time": 204.82753499999944,
                    "velocity": 0.28346456692913385,
                    "duration": 0.39655162500000074
                },
                {
                    "name": "G#3",
                    "midi": 56,
                    "time": 204.82753499999944,
                    "velocity": 0.2755905511811024,
                    "duration": 0.39655162500000074
                },
                {
                    "name": "E3",
                    "midi": 52,
                    "time": 204.82753499999944,
                    "velocity": 0.3700787401574803,
                    "duration": 0.39655162500000074
                },
                {
                    "name": "A3",
                    "midi": 57,
                    "time": 205.24132799999944,
                    "velocity": 0.3464566929133858,
                    "duration": 0.39655162500000074
                },
                {
                    "name": "E3",
                    "midi": 52,
                    "time": 205.24132799999944,
                    "velocity": 0.3228346456692913,
                    "duration": 0.39655162500000074
                },
                {
                    "name": "C4",
                    "midi": 60,
                    "time": 205.24132799999944,
                    "velocity": 0.3779527559055118,
                    "duration": 0.39655162500000074
                },
                {
                    "name": "E3",
                    "midi": 52,
                    "time": 205.65512099999944,
                    "velocity": 0.33070866141732286,
                    "duration": 0.39655162500000074
                },
                {
                    "name": "G#3",
                    "midi": 56,
                    "time": 205.65512099999944,
                    "velocity": 0.25196850393700787,
                    "duration": 0.39655162500000074
                },
                {
                    "name": "B3",
                    "midi": 59,
                    "time": 205.65512099999944,
                    "velocity": 0.33858267716535434,
                    "duration": 0.39655162500000074
                },
                {
                    "name": "E3",
                    "midi": 52,
                    "time": 206.06891399999944,
                    "velocity": 0.29133858267716534,
                    "duration": 0.39655162500000074
                },
                {
                    "name": "G3",
                    "midi": 55,
                    "time": 206.06891399999944,
                    "velocity": 0.25196850393700787,
                    "duration": 0.39655162500000074
                },
                {
                    "name": "E3",
                    "midi": 52,
                    "time": 206.48270699999944,
                    "velocity": 0.30708661417322836,
                    "duration": 0.39655162500000074
                },
                {
                    "name": "A3",
                    "midi": 57,
                    "time": 206.48270699999944,
                    "velocity": 0.3700787401574803,
                    "duration": 0.39655162500000074
                },
                {
                    "name": "E3",
                    "midi": 52,
                    "time": 206.89649999999943,
                    "velocity": 0.2440944881889764,
                    "duration": 0.39655162500000074
                },
                {
                    "name": "G3",
                    "midi": 55,
                    "time": 206.89649999999943,
                    "velocity": 0.2992125984251969,
                    "duration": 0.39655162500000074
                },
                {
                    "name": "B3",
                    "midi": 59,
                    "time": 206.89649999999943,
                    "velocity": 0.30708661417322836,
                    "duration": 0.39655162500000074
                },
                {
                    "name": "A3",
                    "midi": 57,
                    "time": 207.31029299999943,
                    "velocity": 0.23622047244094488,
                    "duration": 0.39655162500000074
                },
                {
                    "name": "E3",
                    "midi": 52,
                    "time": 207.31029299999943,
                    "velocity": 0.3858267716535433,
                    "duration": 0.39655162500000074
                },
                {
                    "name": "C4",
                    "midi": 60,
                    "time": 207.31029299999943,
                    "velocity": 0.28346456692913385,
                    "duration": 0.39655162500000074
                },
                {
                    "name": "A3",
                    "midi": 57,
                    "time": 207.72408599999943,
                    "velocity": 0.2755905511811024,
                    "duration": 0.39655162500000074
                },
                {
                    "name": "C#4",
                    "midi": 61,
                    "time": 207.72408599999943,
                    "velocity": 0.31496062992125984,
                    "duration": 0.39655162500000074
                },
                {
                    "name": "A3",
                    "midi": 57,
                    "time": 208.13787899999943,
                    "velocity": 0.3464566929133858,
                    "duration": 0.39655162500000074
                },
                {
                    "name": "D4",
                    "midi": 62,
                    "time": 208.13787899999943,
                    "velocity": 0.28346456692913385,
                    "duration": 0.39655162500000074
                },
                {
                    "name": "E4",
                    "midi": 64,
                    "time": 208.55167199999943,
                    "velocity": 0.36220472440944884,
                    "duration": 0.39655162500000074
                },
                {
                    "name": "A3",
                    "midi": 57,
                    "time": 208.55167199999943,
                    "velocity": 0.2992125984251969,
                    "duration": 0.39655162500000074
                },
                {
                    "name": "C4",
                    "midi": 60,
                    "time": 208.55167199999943,
                    "velocity": 0.23622047244094488,
                    "duration": 0.39655162500000074
                },
                {
                    "name": "A3",
                    "midi": 57,
                    "time": 208.96546499999943,
                    "velocity": 0.3700787401574803,
                    "duration": 0.39655162500000074
                },
                {
                    "name": "D4",
                    "midi": 62,
                    "time": 208.96546499999943,
                    "velocity": 0.28346456692913385,
                    "duration": 0.39655162500000074
                },
                {
                    "name": "F4",
                    "midi": 65,
                    "time": 208.96546499999943,
                    "velocity": 0.3228346456692913,
                    "duration": 0.39655162500000074
                },
                {
                    "name": "D4",
                    "midi": 62,
                    "time": 209.37925799999942,
                    "velocity": 0.3700787401574803,
                    "duration": 0.39655162500000074
                },
                {
                    "name": "F4",
                    "midi": 65,
                    "time": 209.37925799999942,
                    "velocity": 0.3858267716535433,
                    "duration": 0.39655162500000074
                },
                {
                    "name": "A4",
                    "midi": 69,
                    "time": 209.37925799999942,
                    "velocity": 0.3937007874015748,
                    "duration": 0.39655162500000074
                },
                {
                    "name": "D4",
                    "midi": 62,
                    "time": 209.79305099999942,
                    "velocity": 0.25196850393700787,
                    "duration": 0.39655162500000074
                },
                {
                    "name": "F4",
                    "midi": 65,
                    "time": 209.79305099999942,
                    "velocity": 0.28346456692913385,
                    "duration": 0.39655162500000074
                },
                {
                    "name": "A#4",
                    "midi": 70,
                    "time": 209.79305099999942,
                    "velocity": 0.28346456692913385,
                    "duration": 0.39655162500000074
                },
                {
                    "name": "F#4",
                    "midi": 66,
                    "time": 211.03442999999942,
                    "velocity": 0.36220472440944884,
                    "duration": 0.39655162500000074
                },
                {
                    "name": "C4",
                    "midi": 60,
                    "time": 211.03442999999942,
                    "velocity": 0.25196850393700787,
                    "duration": 0.39655162500000074
                },
                {
                    "name": "A4",
                    "midi": 69,
                    "time": 211.03442999999942,
                    "velocity": 0.3937007874015748,
                    "duration": 0.39655162500000074
                },
                {
                    "name": "F#3",
                    "midi": 54,
                    "time": 211.86201599999941,
                    "velocity": 0.3858267716535433,
                    "duration": 0.39655162500000074
                },
                {
                    "name": "A3",
                    "midi": 57,
                    "time": 211.86201599999941,
                    "velocity": 0.2677165354330709,
                    "duration": 0.39655162500000074
                },
                {
                    "name": "C3",
                    "midi": 48,
                    "time": 211.86201599999941,
                    "velocity": 0.3937007874015748,
                    "duration": 0.39655162500000074
                },
                {
                    "name": "E3",
                    "midi": 52,
                    "time": 212.2758089999994,
                    "velocity": 0.3937007874015748,
                    "duration": 0.39655162500000074
                },
                {
                    "name": "C3",
                    "midi": 48,
                    "time": 212.2758089999994,
                    "velocity": 0.2755905511811024,
                    "duration": 0.39655162500000074
                },
                {
                    "name": "A3",
                    "midi": 57,
                    "time": 212.2758089999994,
                    "velocity": 0.3464566929133858,
                    "duration": 0.39655162500000074
                },
                {
                    "name": "C4",
                    "midi": 60,
                    "time": 213.9309809999994,
                    "velocity": 0.3700787401574803,
                    "duration": 0.39655162500000074
                },
                {
                    "name": "E4",
                    "midi": 64,
                    "time": 213.9309809999994,
                    "velocity": 0.3937007874015748,
                    "duration": 0.39655162500000074
                },
                {
                    "name": "A4",
                    "midi": 69,
                    "time": 213.9309809999994,
                    "velocity": 0.23622047244094488,
                    "duration": 0.39655162500000074
                },
                {
                    "name": "E4",
                    "midi": 64,
                    "time": 215.5861529999994,
                    "velocity": 0.3543307086614173,
                    "duration": 0.39655162500000074
                },
                {
                    "name": "C4",
                    "midi": 60,
                    "time": 215.5861529999994,
                    "velocity": 0.29133858267716534,
                    "duration": 0.39655162500000074
                },
                {
                    "name": "A4",
                    "midi": 69,
                    "time": 215.5861529999994,
                    "velocity": 0.25196850393700787,
                    "duration": 0.39655162500000074
                },
                {
                    "name": "A4",
                    "midi": 69,
                    "time": 217.2413249999994,
                    "velocity": 0.3464566929133858,
                    "duration": 0.39655162500000074
                },
                {
                    "name": "E4",
                    "midi": 64,
                    "time": 217.2413249999994,
                    "velocity": 0.36220472440944884,
                    "duration": 0.39655162500000074
                },
                {
                    "name": "B3",
                    "midi": 59,
                    "time": 217.2413249999994,
                    "velocity": 0.36220472440944884,
                    "duration": 0.39655162500000074
                },
                {
                    "name": "G#4",
                    "midi": 68,
                    "time": 218.0689109999994,
                    "velocity": 0.3464566929133858,
                    "duration": 0.39655162500000074
                },
                {
                    "name": "E4",
                    "midi": 64,
                    "time": 218.0689109999994,
                    "velocity": 0.3779527559055118,
                    "duration": 0.39655162500000074
                },
                {
                    "name": "B3",
                    "midi": 59,
                    "time": 218.0689109999994,
                    "velocity": 0.30708661417322836,
                    "duration": 0.39655162500000074
                },
                {
                    "name": "C#4",
                    "midi": 61,
                    "time": 218.89649699999939,
                    "velocity": 0.23622047244094488,
                    "duration": 0.39655162500000074
                },
                {
                    "name": "A4",
                    "midi": 69,
                    "time": 218.89649699999939,
                    "velocity": 0.2677165354330709,
                    "duration": 0.39655162500000074
                },
                {
                    "name": "E4",
                    "midi": 64,
                    "time": 218.89649699999939,
                    "velocity": 0.30708661417322836,
                    "duration": 0.39655162500000074
                },
                {
                    "name": "A3",
                    "midi": 57,
                    "time": 220.13787599999938,
                    "velocity": 0.33858267716535434,
                    "duration": 0.39655162500000074
                },
                {
                    "name": "C#4",
                    "midi": 61,
                    "time": 220.13787599999938,
                    "velocity": 0.30708661417322836,
                    "duration": 0.39655162500000074
                },
                {
                    "name": "E3",
                    "midi": 52,
                    "time": 220.13787599999938,
                    "velocity": 0.30708661417322836,
                    "duration": 0.39655162500000074
                },
                {
                    "name": "D4",
                    "midi": 62,
                    "time": 220.96546199999938,
                    "velocity": 0.33070866141732286,
                    "duration": 0.39655162500000074
                },
                {
                    "name": "E3",
                    "midi": 52,
                    "time": 220.96546199999938,
                    "velocity": 0.23622047244094488,
                    "duration": 0.39655162500000074
                },
                {
                    "name": "G#3",
                    "midi": 56,
                    "time": 220.96546199999938,
                    "velocity": 0.25196850393700787,
                    "duration": 0.39655162500000074
                },
                {
                    "name": "G#3",
                    "midi": 56,
                    "time": 221.79304799999937,
                    "velocity": 0.3700787401574803,
                    "duration": 0.39655162500000074
                },
                {
                    "name": "E3",
                    "midi": 52,
                    "time": 221.79304799999937,
                    "velocity": 0.3779527559055118,
                    "duration": 0.39655162500000074
                },
                {
                    "name": "B3",
                    "midi": 59,
                    "time": 221.79304799999937,
                    "velocity": 0.3937007874015748,
                    "duration": 0.39655162500000074
                },
                {
                    "name": "E3",
                    "midi": 52,
                    "time": 222.20684099999937,
                    "velocity": 0.3228346456692913,
                    "duration": 0.39655162500000074
                },
                {
                    "name": "C#4",
                    "midi": 61,
                    "time": 222.20684099999937,
                    "velocity": 0.2440944881889764,
                    "duration": 0.39655162500000074
                },
                {
                    "name": "A3",
                    "midi": 57,
                    "time": 222.20684099999937,
                    "velocity": 0.31496062992125984,
                    "duration": 0.39655162500000074
                },
                {
                    "name": "E3",
                    "midi": 52,
                    "time": 223.44821999999937,
                    "velocity": 0.2440944881889764,
                    "duration": 0.39655162500000074
                },
                {
                    "name": "A3",
                    "midi": 57,
                    "time": 223.44821999999937,
                    "velocity": 0.23622047244094488,
                    "duration": 0.39655162500000074
                },
                {
                    "name": "C4",
                    "midi": 60,
                    "time": 223.44821999999937,
                    "velocity": 0.3228346456692913,
                    "duration": 0.39655162500000074
                },
                {
                    "name": "E3",
                    "midi": 52,
                    "time": 224.27580599999936,
                    "velocity": 0.2440944881889764,
                    "duration": 0.39655162500000074
                },
                {
                    "name": "D4",
                    "midi": 62,
                    "time": 224.27580599999936,
                    "velocity": 0.25984251968503935,
                    "duration": 0.39655162500000074
                },
                {
                    "name": "G#3",
                    "midi": 56,
                    "time": 224.27580599999936,
                    "velocity": 0.36220472440944884,
                    "duration": 0.39655162500000074
                },
                {
                    "name": "E3",
                    "midi": 52,
                    "time": 225.10339199999936,
                    "velocity": 0.31496062992125984,
                    "duration": 0.39655162500000074
                },
                {
                    "name": "G#3",
                    "midi": 56,
                    "time": 225.10339199999936,
                    "velocity": 0.3700787401574803,
                    "duration": 0.39655162500000074
                },
                {
                    "name": "B3",
                    "midi": 59,
                    "time": 225.10339199999936,
                    "velocity": 0.2755905511811024,
                    "duration": 0.39655162500000074
                },
                {
                    "name": "E3",
                    "midi": 52,
                    "time": 225.93097799999936,
                    "velocity": 0.2677165354330709,
                    "duration": 0.39655162500000074
                },
                {
                    "name": "A3",
                    "midi": 57,
                    "time": 225.93097799999936,
                    "velocity": 0.3937007874015748,
                    "duration": 0.39655162500000074
                },
                {
                    "name": "C4",
                    "midi": 60,
                    "time": 225.93097799999936,
                    "velocity": 0.28346456692913385,
                    "duration": 0.39655162500000074
                },
                {
                    "name": "E3",
                    "midi": 52,
                    "time": 226.75856399999935,
                    "velocity": 0.3700787401574803,
                    "duration": 0.39655162500000074
                },
                {
                    "name": "A#3",
                    "midi": 58,
                    "time": 226.75856399999935,
                    "velocity": 0.3464566929133858,
                    "duration": 0.39655162500000074
                },
                {
                    "name": "C3",
                    "midi": 48,
                    "time": 226.75856399999935,
                    "velocity": 0.2755905511811024,
                    "duration": 0.39655162500000074
                },
                {
                    "name": "F3",
                    "midi": 53,
                    "time": 227.58614999999935,
                    "velocity": 0.2677165354330709,
                    "duration": 0.39655162500000074
                },
                {
                    "name": "A3",
                    "midi": 57,
                    "time": 227.58614999999935,
                    "velocity": 0.2440944881889764,
                    "duration": 0.39655162500000074
                },
                {
                    "name": "C3",
                    "midi": 48,
                    "time": 227.58614999999935,
                    "velocity": 0.3464566929133858,
                    "duration": 0.39655162500000074
                },
                {
                    "name": "G3",
                    "midi": 55,
                    "time": 228.41373599999935,
                    "velocity": 0.3937007874015748,
                    "duration": 0.39655162500000074
                },
                {
                    "name": "C#3",
                    "midi": 49,
                    "time": 228.41373599999935,
                    "velocity": 0.25984251968503935,
                    "duration": 0.39655162500000074
                },
                {
                    "name": "A2",
                    "midi": 45,
                    "time": 228.41373599999935,
                    "velocity": 0.3700787401574803,
                    "duration": 0.39655162500000074
                },
                {
                    "name": "D3",
                    "midi": 50,
                    "time": 229.24132199999934,
                    "velocity": 0.28346456692913385,
                    "duration": 0.39655162500000074
                },
                {
                    "name": "F3",
                    "midi": 53,
                    "time": 229.24132199999934,
                    "velocity": 0.3228346456692913,
                    "duration": 0.39655162500000074
                },
                {
                    "name": "A2",
                    "midi": 45,
                    "time": 229.24132199999934,
                    "velocity": 0.2440944881889764,
                    "duration": 0.39655162500000074
                },
                {
                    "name": "G2",
                    "midi": 43,
                    "time": 230.06890799999934,
                    "velocity": 0.2992125984251969,
                    "duration": 0.39655162500000074
                },
                {
                    "name": "D3",
                    "midi": 50,
                    "time": 230.06890799999934,
                    "velocity": 0.3937007874015748,
                    "duration": 0.39655162500000074
                },
                {
                    "name": "F3",
                    "midi": 53,
                    "time": 230.06890799999934,
                    "velocity": 0.2755905511811024,
                    "duration": 0.39655162500000074
                },
                {
                    "name": "E3",
                    "midi": 52,
                    "time": 230.48270099999934,
                    "velocity": 0.36220472440944884,
                    "duration": 0.39655162500000074
                },
                {
                    "name": "G2",
                    "midi": 43,
                    "time": 230.48270099999934,
                    "velocity": 0.25984251968503935,
                    "duration": 0.39655162500000074
                },
                {
                    "name": "C3",
                    "midi": 48,
                    "time": 230.48270099999934,
                    "velocity": 0.3700787401574803,
                    "duration": 0.39655162500000074
                },
                {
                    "name": "D3",
                    "midi": 50,
                    "time": 230.89649399999934,
                    "velocity": 0.25196850393700787,
                    "duration": 0.39655162500000074
                },
                {
                    "name": "G2",
                    "midi": 43,
                    "time": 230.89649399999934,
                    "velocity": 0.25196850393700787,
                    "duration": 0.39655162500000074
                },
                {
                    "name": "F3",
                    "midi": 53,
                    "time": 230.89649399999934,
                    "velocity": 0.2992125984251969,
                    "duration": 0.39655162500000074
                },
                {
                    "name": "G2",
                    "midi": 43,
                    "time": 231.31028699999933,
                    "velocity": 0.31496062992125984,
                    "duration": 0.39655162500000074
                },
                {
                    "name": "C3",
                    "midi": 48,
                    "time": 231.31028699999933,
                    "velocity": 0.3543307086614173,
                    "duration": 0.39655162500000074
                },
                {
                    "name": "E3",
                    "midi": 52,
                    "time": 231.31028699999933,
                    "velocity": 0.25984251968503935,
                    "duration": 0.39655162500000074
                },
                {
                    "name": "D3",
                    "midi": 50,
                    "time": 231.72407999999933,
                    "velocity": 0.30708661417322836,
                    "duration": 0.1896551250000016
                },
                {
                    "name": "C3",
                    "midi": 48,
                    "time": 231.72407999999933,
                    "velocity": 0.2440944881889764,
                    "duration": 0.39655162500000074
                },
                {
                    "name": "F#3",
                    "midi": 54,
                    "time": 231.93097649999933,
                    "velocity": 0.3228346456692913,
                    "duration": 0.1896551250000016
                },
                {
                    "name": "B2",
                    "midi": 47,
                    "time": 232.13787299999933,
                    "velocity": 0.3700787401574803,
                    "duration": 0.39655162500000074
                },
                {
                    "name": "G3",
                    "midi": 55,
                    "time": 232.13787299999933,
                    "velocity": 0.3543307086614173,
                    "duration": 0.39655162500000074
                },
                {
                    "name": "D3",
                    "midi": 50,
                    "time": 232.96545899999933,
                    "velocity": 0.25984251968503935,
                    "duration": 0.39655162500000074
                },
                {
                    "name": "G3",
                    "midi": 55,
                    "time": 232.96545899999933,
                    "velocity": 0.3543307086614173,
                    "duration": 0.39655162500000074
                },
                {
                    "name": "B3",
                    "midi": 59,
                    "time": 232.96545899999933,
                    "velocity": 0.23622047244094488,
                    "duration": 0.39655162500000074
                },
                {
                    "name": "D3",
                    "midi": 50,
                    "time": 233.37925199999933,
                    "velocity": 0.23622047244094488,
                    "duration": 0.39655162500000074
                },
                {
                    "name": "G3",
                    "midi": 55,
                    "time": 233.37925199999933,
                    "velocity": 0.3937007874015748,
                    "duration": 0.39655162500000074
                },
                {
                    "name": "B3",
                    "midi": 59,
                    "time": 233.37925199999933,
                    "velocity": 0.33858267716535434,
                    "duration": 0.39655162500000074
                },
                {
                    "name": "D#3",
                    "midi": 51,
                    "time": 233.79304499999932,
                    "velocity": 0.3228346456692913,
                    "duration": 0.39655162500000074
                },
                {
                    "name": "C4",
                    "midi": 60,
                    "time": 233.79304499999932,
                    "velocity": 0.3464566929133858,
                    "duration": 0.39655162500000074
                },
                {
                    "name": "G3",
                    "midi": 55,
                    "time": 233.79304499999932,
                    "velocity": 0.3700787401574803,
                    "duration": 0.39655162500000074
                },
                {
                    "name": "D#3",
                    "midi": 51,
                    "time": 234.62063099999932,
                    "velocity": 0.33070866141732286,
                    "duration": 0.39655162500000074
                },
                {
                    "name": "G3",
                    "midi": 55,
                    "time": 234.62063099999932,
                    "velocity": 0.3779527559055118,
                    "duration": 0.39655162500000074
                },
                {
                    "name": "C4",
                    "midi": 60,
                    "time": 234.62063099999932,
                    "velocity": 0.3779527559055118,
                    "duration": 0.39655162500000074
                },
                {
                    "name": "D3",
                    "midi": 50,
                    "time": 235.44821699999932,
                    "velocity": 0.25984251968503935,
                    "duration": 0.39655162500000074
                },
                {
                    "name": "B3",
                    "midi": 59,
                    "time": 235.44821699999932,
                    "velocity": 0.2440944881889764,
                    "duration": 0.39655162500000074
                },
                {
                    "name": "G3",
                    "midi": 55,
                    "time": 235.44821699999932,
                    "velocity": 0.33858267716535434,
                    "duration": 0.39655162500000074
                },
                {
                    "name": "D3",
                    "midi": 50,
                    "time": 236.2758029999993,
                    "velocity": 0.33858267716535434,
                    "duration": 0.39655162500000074
                },
                {
                    "name": "G2",
                    "midi": 43,
                    "time": 236.2758029999993,
                    "velocity": 0.36220472440944884,
                    "duration": 0.39655162500000074
                },
                {
                    "name": "B2",
                    "midi": 47,
                    "time": 236.2758029999993,
                    "velocity": 0.25984251968503935,
                    "duration": 0.39655162500000074
                },
                {
                    "name": "G2",
                    "midi": 43,
                    "time": 236.6895959999993,
                    "velocity": 0.23622047244094488,
                    "duration": 0.39655162500000074
                },
                {
                    "name": "B2",
                    "midi": 47,
                    "time": 236.6895959999993,
                    "velocity": 0.2677165354330709,
                    "duration": 0.39655162500000074
                },
                {
                    "name": "D3",
                    "midi": 50,
                    "time": 236.6895959999993,
                    "velocity": 0.25984251968503935,
                    "duration": 0.39655162500000074
                },
                {
                    "name": "G2",
                    "midi": 43,
                    "time": 237.1033889999993,
                    "velocity": 0.23622047244094488,
                    "duration": 0.39655162500000074
                },
                {
                    "name": "C3",
                    "midi": 48,
                    "time": 237.1033889999993,
                    "velocity": 0.25196850393700787,
                    "duration": 0.39655162500000074
                },
                {
                    "name": "D#3",
                    "midi": 51,
                    "time": 237.1033889999993,
                    "velocity": 0.3700787401574803,
                    "duration": 0.39655162500000074
                },
                {
                    "name": "D#3",
                    "midi": 51,
                    "time": 237.9309749999993,
                    "velocity": 0.3858267716535433,
                    "duration": 0.39655162500000074
                },
                {
                    "name": "C4",
                    "midi": 60,
                    "time": 237.9309749999993,
                    "velocity": 0.3858267716535433,
                    "duration": 0.39655162500000074
                },
                {
                    "name": "G3",
                    "midi": 55,
                    "time": 237.9309749999993,
                    "velocity": 0.29133858267716534,
                    "duration": 0.39655162500000074
                },
                {
                    "name": "D3",
                    "midi": 50,
                    "time": 238.7585609999993,
                    "velocity": 0.33070866141732286,
                    "duration": 0.39655162500000074
                },
                {
                    "name": "B3",
                    "midi": 59,
                    "time": 238.7585609999993,
                    "velocity": 0.3779527559055118,
                    "duration": 0.39655162500000074
                },
                {
                    "name": "G3",
                    "midi": 55,
                    "time": 238.7585609999993,
                    "velocity": 0.30708661417322836,
                    "duration": 0.39655162500000074
                },
                {
                    "name": "D#3",
                    "midi": 51,
                    "time": 239.1723539999993,
                    "velocity": 0.25984251968503935,
                    "duration": 0.39655162500000074
                },
                {
                    "name": "G3",
                    "midi": 55,
                    "time": 239.1723539999993,
                    "velocity": 0.2440944881889764,
                    "duration": 0.39655162500000074
                },
                {
                    "name": "C4",
                    "midi": 60,
                    "time": 239.1723539999993,
                    "velocity": 0.2755905511811024,
                    "duration": 0.39655162500000074
                },
                {
                    "name": "D3",
                    "midi": 50,
                    "time": 239.5861469999993,
                    "velocity": 0.3779527559055118,
                    "duration": 0.39655162500000074
                },
                {
                    "name": "G3",
                    "midi": 55,
                    "time": 239.5861469999993,
                    "velocity": 0.2992125984251969,
                    "duration": 0.39655162500000074
                },
                {
                    "name": "B3",
                    "midi": 59,
                    "time": 239.5861469999993,
                    "velocity": 0.23622047244094488,
                    "duration": 0.39655162500000074
                },
                {
                    "name": "D#3",
                    "midi": 51,
                    "time": 239.9999399999993,
                    "velocity": 0.33858267716535434,
                    "duration": 0.39655162500000074
                },
                {
                    "name": "G3",
                    "midi": 55,
                    "time": 239.9999399999993,
                    "velocity": 0.3858267716535433,
                    "duration": 0.39655162500000074
                },
                {
                    "name": "C4",
                    "midi": 60,
                    "time": 239.9999399999993,
                    "velocity": 0.33858267716535434,
                    "duration": 0.39655162500000074
                },
                {
                    "name": "D3",
                    "midi": 50,
                    "time": 240.4137329999993,
                    "velocity": 0.3779527559055118,
                    "duration": 0.39655162500000074
                },
                {
                    "name": "G3",
                    "midi": 55,
                    "time": 240.4137329999993,
                    "velocity": 0.36220472440944884,
                    "duration": 0.39655162500000074
                },
                {
                    "name": "B3",
                    "midi": 59,
                    "time": 240.4137329999993,
                    "velocity": 0.3937007874015748,
                    "duration": 0.39655162500000074
                },
                {
                    "name": "D#3",
                    "midi": 51,
                    "time": 240.8275259999993,
                    "velocity": 0.3700787401574803,
                    "duration": 0.39655162500000074
                },
                {
                    "name": "G3",
                    "midi": 55,
                    "time": 240.8275259999993,
                    "velocity": 0.2992125984251969,
                    "duration": 0.39655162500000074
                },
                {
                    "name": "C4",
                    "midi": 60,
                    "time": 240.8275259999993,
                    "velocity": 0.33070866141732286,
                    "duration": 0.39655162500000074
                },
                {
                    "name": "D4",
                    "midi": 62,
                    "time": 241.2413189999993,
                    "velocity": 0.2677165354330709,
                    "duration": 0.39655162500000074
                },
                {
                    "name": "G3",
                    "midi": 55,
                    "time": 241.2413189999993,
                    "velocity": 0.3543307086614173,
                    "duration": 0.39655162500000074
                },
                {
                    "name": "B3",
                    "midi": 59,
                    "time": 241.2413189999993,
                    "velocity": 0.3228346456692913,
                    "duration": 0.39655162500000074
                },
                {
                    "name": "G3",
                    "midi": 55,
                    "time": 241.6551119999993,
                    "velocity": 0.23622047244094488,
                    "duration": 0.39655162500000074
                },
                {
                    "name": "C4",
                    "midi": 60,
                    "time": 241.6551119999993,
                    "velocity": 0.28346456692913385,
                    "duration": 0.39655162500000074
                },
                {
                    "name": "D#4",
                    "midi": 63,
                    "time": 241.6551119999993,
                    "velocity": 0.25984251968503935,
                    "duration": 0.39655162500000074
                },
                {
                    "name": "D4",
                    "midi": 62,
                    "time": 242.0689049999993,
                    "velocity": 0.23622047244094488,
                    "duration": 0.39655162500000074
                },
                {
                    "name": "B3",
                    "midi": 59,
                    "time": 242.0689049999993,
                    "velocity": 0.3464566929133858,
                    "duration": 0.39655162500000074
                },
                {
                    "name": "G4",
                    "midi": 67,
                    "time": 242.0689049999993,
                    "velocity": 0.33070866141732286,
                    "duration": 0.39655162500000074
                },
                {
                    "name": "F4",
                    "midi": 65,
                    "time": 243.72407699999928,
                    "velocity": 0.25984251968503935,
                    "duration": 0.39655162500000074
                },
                {
                    "name": "C4",
                    "midi": 60,
                    "time": 243.72407699999928,
                    "velocity": 0.33858267716535434,
                    "duration": 0.39655162500000074
                },
                {
                    "name": "A4",
                    "midi": 69,
                    "time": 243.72407699999928,
                    "velocity": 0.3858267716535433,
                    "duration": 0.39655162500000074
                },
                {
                    "name": "B3",
                    "midi": 59,
                    "time": 245.37924899999928,
                    "velocity": 0.23622047244094488,
                    "duration": 0.39655162500000074
                },
                {
                    "name": "F3",
                    "midi": 53,
                    "time": 245.37924899999928,
                    "velocity": 0.3464566929133858,
                    "duration": 0.39655162500000074
                },
                {
                    "name": "D3",
                    "midi": 50,
                    "time": 245.37924899999928,
                    "velocity": 0.2755905511811024,
                    "duration": 0.39655162500000074
                },
                {
                    "name": "C3",
                    "midi": 48,
                    "time": 249.9309719999993,
                    "velocity": 0.36220472440944884,
                    "duration": 0.39655162500000074
                },
                {
                    "name": "E3",
                    "midi": 52,
                    "time": 249.9309719999993,
                    "velocity": 0.3858267716535433,
                    "duration": 0.39655162500000074
                },
                {
                    "name": "G2",
                    "midi": 43,
                    "time": 249.9309719999993,
                    "velocity": 0.3779527559055118,
                    "duration": 0.39655162500000074
                },
                {
                    "name": "D3",
                    "midi": 50,
                    "time": 250.75855799999928,
                    "velocity": 0.3228346456692913,
                    "duration": 0.39655162500000074
                },
                {
                    "name": "G2",
                    "midi": 43,
                    "time": 250.75855799999928,
                    "velocity": 0.3700787401574803,
                    "duration": 0.39655162500000074
                },
                {
                    "name": "F3",
                    "midi": 53,
                    "time": 250.75855799999928,
                    "velocity": 0.3858267716535433,
                    "duration": 0.39655162500000074
                },
                {
                    "name": "D3",
                    "midi": 50,
                    "time": 251.58614399999928,
                    "velocity": 0.36220472440944884,
                    "duration": 0.39655162500000074
                },
                {
                    "name": "F3",
                    "midi": 53,
                    "time": 251.58614399999928,
                    "velocity": 0.33070866141732286,
                    "duration": 0.39655162500000074
                },
                {
                    "name": "G2",
                    "midi": 43,
                    "time": 251.58614399999928,
                    "velocity": 0.33858267716535434,
                    "duration": 0.39655162500000074
                },
                {
                    "name": "C3",
                    "midi": 48,
                    "time": 252.41372999999928,
                    "velocity": 0.25984251968503935,
                    "duration": 0.39655162500000074
                },
                {
                    "name": "G2",
                    "midi": 43,
                    "time": 252.41372999999928,
                    "velocity": 0.3543307086614173,
                    "duration": 0.39655162500000074
                },
                {
                    "name": "E3",
                    "midi": 52,
                    "time": 252.41372999999928,
                    "velocity": 0.2755905511811024,
                    "duration": 0.39655162500000074
                },
                {
                    "name": "A2",
                    "midi": 45,
                    "time": 253.24131599999927,
                    "velocity": 0.33858267716535434,
                    "duration": 0.39655162500000074
                },
                {
                    "name": "G3",
                    "midi": 55,
                    "time": 253.24131599999927,
                    "velocity": 0.33858267716535434,
                    "duration": 0.39655162500000074
                },
                {
                    "name": "E3",
                    "midi": 52,
                    "time": 253.24131599999927,
                    "velocity": 0.2992125984251969,
                    "duration": 0.39655162500000074
                },
                {
                    "name": "D3",
                    "midi": 50,
                    "time": 253.65510899999927,
                    "velocity": 0.33858267716535434,
                    "duration": 0.39655162500000074
                },
                {
                    "name": "A2",
                    "midi": 45,
                    "time": 253.65510899999927,
                    "velocity": 0.3779527559055118,
                    "duration": 0.39655162500000074
                },
                {
                    "name": "F3",
                    "midi": 53,
                    "time": 253.65510899999927,
                    "velocity": 0.3464566929133858,
                    "duration": 0.39655162500000074
                },
                {
                    "name": "B2",
                    "midi": 47,
                    "time": 254.06890199999927,
                    "velocity": 0.33070866141732286,
                    "duration": 0.39655162500000074
                },
                {
                    "name": "D3",
                    "midi": 50,
                    "time": 254.06890199999927,
                    "velocity": 0.29133858267716534,
                    "duration": 0.39655162500000074
                },
                {
                    "name": "F3",
                    "midi": 53,
                    "time": 254.06890199999927,
                    "velocity": 0.31496062992125984,
                    "duration": 0.39655162500000074
                },
                {
                    "name": "C3",
                    "midi": 48,
                    "time": 254.48269499999927,
                    "velocity": 0.33070866141732286,
                    "duration": 0.39655162500000074
                },
                {
                    "name": "E3",
                    "midi": 52,
                    "time": 254.48269499999927,
                    "velocity": 0.3543307086614173,
                    "duration": 0.39655162500000074
                },
                {
                    "name": "C3",
                    "midi": 48,
                    "time": 254.89648799999927,
                    "velocity": 0.33858267716535434,
                    "duration": 0.39655162500000074
                },
                {
                    "name": "D3",
                    "midi": 50,
                    "time": 254.89648799999927,
                    "velocity": 0.3543307086614173,
                    "duration": 0.39655162500000074
                },
                {
                    "name": "F#3",
                    "midi": 54,
                    "time": 254.89648799999927,
                    "velocity": 0.33858267716535434,
                    "duration": 0.39655162500000074
                },
                {
                    "name": "G3",
                    "midi": 55,
                    "time": 255.31028099999926,
                    "velocity": 0.33070866141732286,
                    "duration": 0.39655162500000074
                },
                {
                    "name": "B2",
                    "midi": 47,
                    "time": 255.31028099999926,
                    "velocity": 0.2440944881889764,
                    "duration": 0.39655162500000074
                },
                {
                    "name": "D3",
                    "midi": 50,
                    "time": 255.31028099999926,
                    "velocity": 0.3464566929133858,
                    "duration": 0.39655162500000074
                },
                {
                    "name": "C3",
                    "midi": 48,
                    "time": 256.5516599999993,
                    "velocity": 0.3543307086614173,
                    "duration": 0.3965516249999723
                },
                {
                    "name": "G2",
                    "midi": 43,
                    "time": 256.5516599999993,
                    "velocity": 0.30708661417322836,
                    "duration": 0.3965516249999723
                },
                {
                    "name": "E3",
                    "midi": 52,
                    "time": 256.5516599999993,
                    "velocity": 0.33858267716535434,
                    "duration": 0.3965516249999723
                },
                {
                    "name": "D3",
                    "midi": 50,
                    "time": 257.3792459999993,
                    "velocity": 0.25984251968503935,
                    "duration": 0.3965516249999723
                },
                {
                    "name": "G2",
                    "midi": 43,
                    "time": 257.3792459999993,
                    "velocity": 0.25984251968503935,
                    "duration": 0.3965516249999723
                },
                {
                    "name": "F3",
                    "midi": 53,
                    "time": 257.3792459999993,
                    "velocity": 0.3937007874015748,
                    "duration": 0.3965516249999723
                },
                {
                    "name": "D3",
                    "midi": 50,
                    "time": 258.2068319999993,
                    "velocity": 0.3543307086614173,
                    "duration": 0.3965516249999723
                },
                {
                    "name": "G2",
                    "midi": 43,
                    "time": 258.2068319999993,
                    "velocity": 0.3464566929133858,
                    "duration": 0.3965516249999723
                },
                {
                    "name": "F3",
                    "midi": 53,
                    "time": 258.2068319999993,
                    "velocity": 0.33858267716535434,
                    "duration": 0.3965516249999723
                },
                {
                    "name": "G2",
                    "midi": 43,
                    "time": 259.0344179999993,
                    "velocity": 0.25196850393700787,
                    "duration": 0.3965516249999723
                },
                {
                    "name": "C3",
                    "midi": 48,
                    "time": 259.0344179999993,
                    "velocity": 0.2992125984251969,
                    "duration": 0.3965516249999723
                },
                {
                    "name": "E3",
                    "midi": 52,
                    "time": 259.0344179999993,
                    "velocity": 0.25984251968503935,
                    "duration": 0.3965516249999723
                },
                {
                    "name": "A#3",
                    "midi": 58,
                    "time": 259.8620039999993,
                    "velocity": 0.28346456692913385,
                    "duration": 0.3965516249999723
                },
                {
                    "name": "C3",
                    "midi": 48,
                    "time": 259.8620039999993,
                    "velocity": 0.33858267716535434,
                    "duration": 0.3965516249999723
                },
                {
                    "name": "G3",
                    "midi": 55,
                    "time": 259.8620039999993,
                    "velocity": 0.25196850393700787,
                    "duration": 0.3965516249999723
                },
                {
                    "name": "C3",
                    "midi": 48,
                    "time": 260.68958999999927,
                    "velocity": 0.2992125984251969,
                    "duration": 0.3965516249999723
                },
                {
                    "name": "F3",
                    "midi": 53,
                    "time": 260.68958999999927,
                    "velocity": 0.3700787401574803,
                    "duration": 0.3965516249999723
                },
                {
                    "name": "A3",
                    "midi": 57,
                    "time": 260.68958999999927,
                    "velocity": 0.2755905511811024,
                    "duration": 0.3965516249999723
                },
                {
                    "name": "D3",
                    "midi": 50,
                    "time": 261.51717599999927,
                    "velocity": 0.2755905511811024,
                    "duration": 0.3965516249999723
                },
                {
                    "name": "C4",
                    "midi": 60,
                    "time": 261.51717599999927,
                    "velocity": 0.3700787401574803,
                    "duration": 0.3965516249999723
                },
                {
                    "name": "A3",
                    "midi": 57,
                    "time": 261.51717599999927,
                    "velocity": 0.3543307086614173,
                    "duration": 0.3965516249999723
                },
                {
                    "name": "D3",
                    "midi": 50,
                    "time": 262.34476199999926,
                    "velocity": 0.31496062992125984,
                    "duration": 0.3965516249999723
                },
                {
                    "name": "G3",
                    "midi": 55,
                    "time": 262.34476199999926,
                    "velocity": 0.31496062992125984,
                    "duration": 0.3965516249999723
                },
                {
                    "name": "B3",
                    "midi": 59,
                    "time": 262.34476199999926,
                    "velocity": 0.28346456692913385,
                    "duration": 0.3965516249999723
                },
                {
                    "name": "G3",
                    "midi": 55,
                    "time": 263.17234799999926,
                    "velocity": 0.25984251968503935,
                    "duration": 0.3965516249999723
                },
                {
                    "name": "D4",
                    "midi": 62,
                    "time": 263.17234799999926,
                    "velocity": 0.3700787401574803,
                    "duration": 0.3965516249999723
                },
                {
                    "name": "F4",
                    "midi": 65,
                    "time": 263.17234799999926,
                    "velocity": 0.23622047244094488,
                    "duration": 0.3965516249999723
                },
                {
                    "name": "G3",
                    "midi": 55,
                    "time": 263.58614099999926,
                    "velocity": 0.3700787401574803,
                    "duration": 0.3965516249999723
                },
                {
                    "name": "C4",
                    "midi": 60,
                    "time": 263.58614099999926,
                    "velocity": 0.3543307086614173,
                    "duration": 0.3965516249999723
                },
                {
                    "name": "E4",
                    "midi": 64,
                    "time": 263.58614099999926,
                    "velocity": 0.23622047244094488,
                    "duration": 0.3965516249999723
                },
                {
                    "name": "B3",
                    "midi": 59,
                    "time": 263.99993399999926,
                    "velocity": 0.2440944881889764,
                    "duration": 0.3965516249999723
                },
                {
                    "name": "E3",
                    "midi": 52,
                    "time": 263.99993399999926,
                    "velocity": 0.31496062992125984,
                    "duration": 0.3965516249999723
                },
                {
                    "name": "D4",
                    "midi": 62,
                    "time": 263.99993399999926,
                    "velocity": 0.29133858267716534,
                    "duration": 0.3965516249999723
                },
                {
                    "name": "A3",
                    "midi": 57,
                    "time": 264.41372699999926,
                    "velocity": 0.25984251968503935,
                    "duration": 0.3965516249999723
                },
                {
                    "name": "C4",
                    "midi": 60,
                    "time": 264.41372699999926,
                    "velocity": 0.2992125984251969,
                    "duration": 0.3965516249999723
                },
                {
                    "name": "E3",
                    "midi": 52,
                    "time": 264.41372699999926,
                    "velocity": 0.3779527559055118,
                    "duration": 0.3965516249999723
                },
                {
                    "name": "G3",
                    "midi": 55,
                    "time": 264.82751999999925,
                    "velocity": 0.3543307086614173,
                    "duration": 0.3965516249999723
                },
                {
                    "name": "A#3",
                    "midi": 58,
                    "time": 264.82751999999925,
                    "velocity": 0.3228346456692913,
                    "duration": 0.3965516249999723
                },
                {
                    "name": "C3",
                    "midi": 48,
                    "time": 264.82751999999925,
                    "velocity": 0.2992125984251969,
                    "duration": 0.3965516249999723
                },
                {
                    "name": "F3",
                    "midi": 53,
                    "time": 265.65510599999925,
                    "velocity": 0.3779527559055118,
                    "duration": 0.3965516249999723
                },
                {
                    "name": "C3",
                    "midi": 48,
                    "time": 265.65510599999925,
                    "velocity": 0.23622047244094488,
                    "duration": 0.3965516249999723
                },
                {
                    "name": "A3",
                    "midi": 57,
                    "time": 265.65510599999925,
                    "velocity": 0.25984251968503935,
                    "duration": 0.3965516249999723
                },
                {
                    "name": "D#3",
                    "midi": 51,
                    "time": 266.48269199999925,
                    "velocity": 0.28346456692913385,
                    "duration": 0.3965516249999723
                },
                {
                    "name": "C3",
                    "midi": 48,
                    "time": 266.48269199999925,
                    "velocity": 0.30708661417322836,
                    "duration": 0.3965516249999723
                },
                {
                    "name": "A3",
                    "midi": 57,
                    "time": 266.48269199999925,
                    "velocity": 0.2677165354330709,
                    "duration": 0.3965516249999723
                },
                {
                    "name": "E3",
                    "midi": 52,
                    "time": 267.31027799999924,
                    "velocity": 0.31496062992125984,
                    "duration": 0.3965516249999723
                },
                {
                    "name": "C3",
                    "midi": 48,
                    "time": 267.31027799999924,
                    "velocity": 0.33070866141732286,
                    "duration": 0.3965516249999723
                },
                {
                    "name": "G3",
                    "midi": 55,
                    "time": 267.31027799999924,
                    "velocity": 0.23622047244094488,
                    "duration": 0.3965516249999723
                },
                {
                    "name": "D3",
                    "midi": 50,
                    "time": 268.13786399999924,
                    "velocity": 0.3228346456692913,
                    "duration": 0.3965516249999723
                },
                {
                    "name": "F3",
                    "midi": 53,
                    "time": 268.13786399999924,
                    "velocity": 0.2755905511811024,
                    "duration": 0.3965516249999723
                },
                {
                    "name": "B3",
                    "midi": 59,
                    "time": 268.13786399999924,
                    "velocity": 0.31496062992125984,
                    "duration": 0.3965516249999723
                },
                {
                    "name": "D#3",
                    "midi": 51,
                    "time": 268.55165699999924,
                    "velocity": 0.3937007874015748,
                    "duration": 0.3965516249999723
                },
                {
                    "name": "C3",
                    "midi": 48,
                    "time": 268.55165699999924,
                    "velocity": 0.36220472440944884,
                    "duration": 0.3965516249999723
                },
                {
                    "name": "C4",
                    "midi": 60,
                    "time": 268.55165699999924,
                    "velocity": 0.36220472440944884,
                    "duration": 0.3965516249999723
                },
                {
                    "name": "G#3",
                    "midi": 56,
                    "time": 269.37924299999924,
                    "velocity": 0.3464566929133858,
                    "duration": 0.3965516249999723
                },
                {
                    "name": "E3",
                    "midi": 52,
                    "time": 269.37924299999924,
                    "velocity": 0.23622047244094488,
                    "duration": 0.3965516249999723
                },
                {
                    "name": "C4",
                    "midi": 60,
                    "time": 269.37924299999924,
                    "velocity": 0.2755905511811024,
                    "duration": 0.3965516249999723
                },
                {
                    "name": "G#3",
                    "midi": 56,
                    "time": 269.79303599999923,
                    "velocity": 0.28346456692913385,
                    "duration": 0.3965516249999723
                },
                {
                    "name": "E3",
                    "midi": 52,
                    "time": 269.79303599999923,
                    "velocity": 0.29133858267716534,
                    "duration": 0.3965516249999723
                },
                {
                    "name": "C4",
                    "midi": 60,
                    "time": 269.79303599999923,
                    "velocity": 0.2992125984251969,
                    "duration": 0.3965516249999723
                },
                {
                    "name": "A#3",
                    "midi": 58,
                    "time": 270.20682899999923,
                    "velocity": 0.33070866141732286,
                    "duration": 0.3965516249999723
                },
                {
                    "name": "D#3",
                    "midi": 51,
                    "time": 270.20682899999923,
                    "velocity": 0.36220472440944884,
                    "duration": 0.3965516249999723
                },
                {
                    "name": "C#4",
                    "midi": 61,
                    "time": 270.20682899999923,
                    "velocity": 0.29133858267716534,
                    "duration": 0.3965516249999723
                },
                {
                    "name": "A#3",
                    "midi": 58,
                    "time": 271.0344149999992,
                    "velocity": 0.2992125984251969,
                    "duration": 0.3965516249999723
                },
                {
                    "name": "D#3",
                    "midi": 51,
                    "time": 271.0344149999992,
                    "velocity": 0.3858267716535433,
                    "duration": 0.3965516249999723
                },
                {
                    "name": "C#4",
                    "midi": 61,
                    "time": 271.0344149999992,
                    "velocity": 0.33070866141732286,
                    "duration": 0.3965516249999723
                },
                {
                    "name": "G#3",
                    "midi": 56,
                    "time": 271.8620009999992,
                    "velocity": 0.3858267716535433,
                    "duration": 0.3965516249999723
                },
                {
                    "name": "D#3",
                    "midi": 51,
                    "time": 271.8620009999992,
                    "velocity": 0.31496062992125984,
                    "duration": 0.3965516249999723
                },
                {
                    "name": "C4",
                    "midi": 60,
                    "time": 271.8620009999992,
                    "velocity": 0.3464566929133858,
                    "duration": 0.3965516249999723
                },
                {
                    "name": "F#3",
                    "midi": 54,
                    "time": 272.6895869999992,
                    "velocity": 0.33070866141732286,
                    "duration": 0.3965516249999723
                },
                {
                    "name": "C4",
                    "midi": 60,
                    "time": 272.6895869999992,
                    "velocity": 0.3543307086614173,
                    "duration": 0.3965516249999723
                },
                {
                    "name": "E3",
                    "midi": 52,
                    "time": 272.6895869999992,
                    "velocity": 0.3779527559055118,
                    "duration": 0.3965516249999723
                },
                {
                    "name": "F#3",
                    "midi": 54,
                    "time": 273.1033799999992,
                    "velocity": 0.25984251968503935,
                    "duration": 0.3965516249999723
                },
                {
                    "name": "E3",
                    "midi": 52,
                    "time": 273.1033799999992,
                    "velocity": 0.3228346456692913,
                    "duration": 0.3965516249999723
                },
                {
                    "name": "C4",
                    "midi": 60,
                    "time": 273.1033799999992,
                    "velocity": 0.25984251968503935,
                    "duration": 0.3965516249999723
                },
                {
                    "name": "E3",
                    "midi": 52,
                    "time": 273.5171729999992,
                    "velocity": 0.3700787401574803,
                    "duration": 0.3965516249999723
                },
                {
                    "name": "C4",
                    "midi": 60,
                    "time": 273.5171729999992,
                    "velocity": 0.3543307086614173,
                    "duration": 0.3965516249999723
                },
                {
                    "name": "G3",
                    "midi": 55,
                    "time": 273.5171729999992,
                    "velocity": 0.2440944881889764,
                    "duration": 0.3965516249999723
                },
                {
                    "name": "B3",
                    "midi": 59,
                    "time": 274.3447589999992,
                    "velocity": 0.31496062992125984,
                    "duration": 0.3965516249999723
                },
                {
                    "name": "F3",
                    "midi": 53,
                    "time": 274.3447589999992,
                    "velocity": 0.25984251968503935,
                    "duration": 0.3965516249999723
                },
                {
                    "name": "D3",
                    "midi": 50,
                    "time": 274.3447589999992,
                    "velocity": 0.28346456692913385,
                    "duration": 0.3965516249999723
                },
                {
                    "name": "D#3",
                    "midi": 51,
                    "time": 275.1723449999992,
                    "velocity": 0.33070866141732286,
                    "duration": 0.3965516249999723
                },
                {
                    "name": "C4",
                    "midi": 60,
                    "time": 275.1723449999992,
                    "velocity": 0.25196850393700787,
                    "duration": 0.3965516249999723
                },
                {
                    "name": "C3",
                    "midi": 48,
                    "time": 275.1723449999992,
                    "velocity": 0.29133858267716534,
                    "duration": 0.3965516249999723
                },
                {
                    "name": "D#2",
                    "midi": 39,
                    "time": 275.9999309999992,
                    "velocity": 0.3700787401574803,
                    "duration": 0.3965516249999723
                },
                {
                    "name": "G#2",
                    "midi": 44,
                    "time": 275.9999309999992,
                    "velocity": 0.33858267716535434,
                    "duration": 0.3965516249999723
                },
                {
                    "name": "C3",
                    "midi": 48,
                    "time": 275.9999309999992,
                    "velocity": 0.3858267716535433,
                    "duration": 0.3965516249999723
                },
                {
                    "name": "D#2",
                    "midi": 39,
                    "time": 276.4137239999992,
                    "velocity": 0.31496062992125984,
                    "duration": 0.3965516249999723
                },
                {
                    "name": "G#2",
                    "midi": 44,
                    "time": 276.4137239999992,
                    "velocity": 0.29133858267716534,
                    "duration": 0.3965516249999723
                },
                {
                    "name": "C3",
                    "midi": 48,
                    "time": 276.4137239999992,
                    "velocity": 0.3779527559055118,
                    "duration": 0.3965516249999723
                },
                {
                    "name": "D#2",
                    "midi": 39,
                    "time": 276.8275169999992,
                    "velocity": 0.33858267716535434,
                    "duration": 0.3965516249999723
                },
                {
                    "name": "C#3",
                    "midi": 49,
                    "time": 276.8275169999992,
                    "velocity": 0.2677165354330709,
                    "duration": 0.3965516249999723
                },
                {
                    "name": "A#2",
                    "midi": 46,
                    "time": 276.8275169999992,
                    "velocity": 0.33858267716535434,
                    "duration": 0.3965516249999723
                },
                {
                    "name": "C#3",
                    "midi": 49,
                    "time": 277.6551029999992,
                    "velocity": 0.30708661417322836,
                    "duration": 0.3965516249999723
                },
                {
                    "name": "D#2",
                    "midi": 39,
                    "time": 277.6551029999992,
                    "velocity": 0.30708661417322836,
                    "duration": 0.3965516249999723
                },
                {
                    "name": "A#2",
                    "midi": 46,
                    "time": 277.6551029999992,
                    "velocity": 0.2677165354330709,
                    "duration": 0.3965516249999723
                },
                {
                    "name": "D#2",
                    "midi": 39,
                    "time": 278.4826889999992,
                    "velocity": 0.2440944881889764,
                    "duration": 0.3965516249999723
                },
                {
                    "name": "C3",
                    "midi": 48,
                    "time": 278.4826889999992,
                    "velocity": 0.3464566929133858,
                    "duration": 0.3965516249999723
                },
                {
                    "name": "G#2",
                    "midi": 44,
                    "time": 278.4826889999992,
                    "velocity": 0.3937007874015748,
                    "duration": 0.3965516249999723
                },
                {
                    "name": "E2",
                    "midi": 40,
                    "time": 279.3102749999992,
                    "velocity": 0.2440944881889764,
                    "duration": 0.3965516249999723
                },
                {
                    "name": "C3",
                    "midi": 48,
                    "time": 279.3102749999992,
                    "velocity": 0.2992125984251969,
                    "duration": 0.3965516249999723
                },
                {
                    "name": "F#2",
                    "midi": 42,
                    "time": 279.3102749999992,
                    "velocity": 0.25196850393700787,
                    "duration": 0.3965516249999723
                },
                {
                    "name": "C3",
                    "midi": 48,
                    "time": 279.7240679999992,
                    "velocity": 0.25984251968503935,
                    "duration": 0.3965516249999723
                },
                {
                    "name": "E2",
                    "midi": 40,
                    "time": 279.7240679999992,
                    "velocity": 0.30708661417322836,
                    "duration": 0.3965516249999723
                },
                {
                    "name": "F#2",
                    "midi": 42,
                    "time": 279.7240679999992,
                    "velocity": 0.28346456692913385,
                    "duration": 0.3965516249999723
                },
                {
                    "name": "E2",
                    "midi": 40,
                    "time": 280.1378609999992,
                    "velocity": 0.2992125984251969,
                    "duration": 0.3965516249999723
                },
                {
                    "name": "C3",
                    "midi": 48,
                    "time": 280.1378609999992,
                    "velocity": 0.3779527559055118,
                    "duration": 0.3965516249999723
                },
                {
                    "name": "G2",
                    "midi": 43,
                    "time": 280.1378609999992,
                    "velocity": 0.36220472440944884,
                    "duration": 0.3965516249999723
                },
                {
                    "name": "G2",
                    "midi": 43,
                    "time": 280.9654469999992,
                    "velocity": 0.33070866141732286,
                    "duration": 0.3965516249999723
                },
                {
                    "name": "D2",
                    "midi": 38,
                    "time": 280.9654469999992,
                    "velocity": 0.30708661417322836,
                    "duration": 0.3965516249999723
                },
                {
                    "name": "B2",
                    "midi": 47,
                    "time": 280.9654469999992,
                    "velocity": 0.33070866141732286,
                    "duration": 0.3965516249999723
                },
                {
                    "name": "D3",
                    "midi": 50,
                    "time": 281.3792399999992,
                    "velocity": 0.30708661417322836,
                    "duration": 0.3965516249999723
                },
                {
                    "name": "G3",
                    "midi": 55,
                    "time": 281.3792399999992,
                    "velocity": 0.29133858267716534,
                    "duration": 0.3965516249999723
                },
                {
                    "name": "B3",
                    "midi": 59,
                    "time": 281.3792399999992,
                    "velocity": 0.33070866141732286,
                    "duration": 0.3965516249999723
                },
                {
                    "name": "C4",
                    "midi": 60,
                    "time": 281.7930329999992,
                    "velocity": 0.3228346456692913,
                    "duration": 0.3965516249999723
                },
                {
                    "name": "E3",
                    "midi": 52,
                    "time": 281.7930329999992,
                    "velocity": 0.33070866141732286,
                    "duration": 0.3965516249999723
                },
                {
                    "name": "G3",
                    "midi": 55,
                    "time": 281.7930329999992,
                    "velocity": 0.28346456692913385,
                    "duration": 0.3965516249999723
                },
                {
                    "name": "E3",
                    "midi": 52,
                    "time": 282.2068259999992,
                    "velocity": 0.28346456692913385,
                    "duration": 0.3965516249999723
                },
                {
                    "name": "G3",
                    "midi": 55,
                    "time": 282.2068259999992,
                    "velocity": 0.33858267716535434,
                    "duration": 0.3965516249999723
                },
                {
                    "name": "C#4",
                    "midi": 61,
                    "time": 282.2068259999992,
                    "velocity": 0.3937007874015748,
                    "duration": 0.3965516249999723
                },
                {
                    "name": "D4",
                    "midi": 62,
                    "time": 282.6206189999992,
                    "velocity": 0.2440944881889764,
                    "duration": 0.3965516249999723
                },
                {
                    "name": "F3",
                    "midi": 53,
                    "time": 282.6206189999992,
                    "velocity": 0.36220472440944884,
                    "duration": 0.3965516249999723
                },
                {
                    "name": "A3",
                    "midi": 57,
                    "time": 282.6206189999992,
                    "velocity": 0.25196850393700787,
                    "duration": 0.3965516249999723
                },
                {
                    "name": "D3",
                    "midi": 50,
                    "time": 283.0344119999992,
                    "velocity": 0.3937007874015748,
                    "duration": 0.3965516249999723
                },
                {
                    "name": "G3",
                    "midi": 55,
                    "time": 283.0344119999992,
                    "velocity": 0.28346456692913385,
                    "duration": 0.3965516249999723
                },
                {
                    "name": "B3",
                    "midi": 59,
                    "time": 283.0344119999992,
                    "velocity": 0.2755905511811024,
                    "duration": 0.3965516249999723
                },
                {
                    "name": "C4",
                    "midi": 60,
                    "time": 283.4482049999992,
                    "velocity": 0.3700787401574803,
                    "duration": 0.3965516249999723
                },
                {
                    "name": "E3",
                    "midi": 52,
                    "time": 283.4482049999992,
                    "velocity": 0.3700787401574803,
                    "duration": 0.3965516249999723
                },
                {
                    "name": "G3",
                    "midi": 55,
                    "time": 283.4482049999992,
                    "velocity": 0.2677165354330709,
                    "duration": 0.3965516249999723
                },
                {
                    "name": "E3",
                    "midi": 52,
                    "time": 283.8619979999992,
                    "velocity": 0.3543307086614173,
                    "duration": 0.3965516249999723
                },
                {
                    "name": "C4",
                    "midi": 60,
                    "time": 283.8619979999992,
                    "velocity": 0.3858267716535433,
                    "duration": 0.3965516249999723
                },
                {
                    "name": "F3",
                    "midi": 53,
                    "time": 283.8619979999992,
                    "velocity": 0.29133858267716534,
                    "duration": 0.3965516249999723
                },
                {
                    "name": "D3",
                    "midi": 50,
                    "time": 284.2757909999992,
                    "velocity": 0.3543307086614173,
                    "duration": 0.3965516249999723
                },
                {
                    "name": "F3",
                    "midi": 53,
                    "time": 284.2757909999992,
                    "velocity": 0.2440944881889764,
                    "duration": 0.3965516249999723
                },
                {
                    "name": "B3",
                    "midi": 59,
                    "time": 284.2757909999992,
                    "velocity": 0.30708661417322836,
                    "duration": 0.3965516249999723
                },
                {
                    "name": "E3",
                    "midi": 52,
                    "time": 284.6895839999992,
                    "velocity": 0.36220472440944884,
                    "duration": 0.3965516249999723
                },
                {
                    "name": "D3",
                    "midi": 50,
                    "time": 284.6895839999992,
                    "velocity": 0.3858267716535433,
                    "duration": 0.3965516249999723
                },
                {
                    "name": "B3",
                    "midi": 59,
                    "time": 284.6895839999992,
                    "velocity": 0.3464566929133858,
                    "duration": 0.3965516249999723
                },
                {
                    "name": "E3",
                    "midi": 52,
                    "time": 285.10337699999917,
                    "velocity": 0.29133858267716534,
                    "duration": 0.3965516249999723
                },
                {
                    "name": "C3",
                    "midi": 48,
                    "time": 285.10337699999917,
                    "velocity": 0.3779527559055118,
                    "duration": 0.3965516249999723
                },
                {
                    "name": "A3",
                    "midi": 57,
                    "time": 285.10337699999917,
                    "velocity": 0.29133858267716534,
                    "duration": 0.3965516249999723
                },
                {
                    "name": "A3",
                    "midi": 57,
                    "time": 285.51716999999917,
                    "velocity": 0.2992125984251969,
                    "duration": 0.3965516249999723
                },
                {
                    "name": "D3",
                    "midi": 50,
                    "time": 285.51716999999917,
                    "velocity": 0.29133858267716534,
                    "duration": 0.3965516249999723
                },
                {
                    "name": "C3",
                    "midi": 48,
                    "time": 285.51716999999917,
                    "velocity": 0.2755905511811024,
                    "duration": 0.3965516249999723
                },
                {
                    "name": "D3",
                    "midi": 50,
                    "time": 285.93096299999917,
                    "velocity": 0.3543307086614173,
                    "duration": 0.3965516249999723
                },
                {
                    "name": "B2",
                    "midi": 47,
                    "time": 285.93096299999917,
                    "velocity": 0.36220472440944884,
                    "duration": 0.3965516249999723
                },
                {
                    "name": "G3",
                    "midi": 55,
                    "time": 285.93096299999917,
                    "velocity": 0.33858267716535434,
                    "duration": 0.3965516249999723
                },
                {
                    "name": "D3",
                    "midi": 50,
                    "time": 286.34475599999917,
                    "velocity": 0.2440944881889764,
                    "duration": 0.3965516249999723
                },
                {
                    "name": "B3",
                    "midi": 59,
                    "time": 286.34475599999917,
                    "velocity": 0.23622047244094488,
                    "duration": 0.3965516249999723
                },
                {
                    "name": "G3",
                    "midi": 55,
                    "time": 286.34475599999917,
                    "velocity": 0.25196850393700787,
                    "duration": 0.3965516249999723
                },
                {
                    "name": "G3",
                    "midi": 55,
                    "time": 286.75854899999916,
                    "velocity": 0.2992125984251969,
                    "duration": 0.3965516249999723
                },
                {
                    "name": "C3",
                    "midi": 48,
                    "time": 286.75854899999916,
                    "velocity": 0.2440944881889764,
                    "duration": 0.3965516249999723
                },
                {
                    "name": "C4",
                    "midi": 60,
                    "time": 286.75854899999916,
                    "velocity": 0.25984251968503935,
                    "duration": 0.3965516249999723
                },
                {
                    "name": "F3",
                    "midi": 53,
                    "time": 287.17234199999916,
                    "velocity": 0.25984251968503935,
                    "duration": 0.3965516249999723
                },
                {
                    "name": "A3",
                    "midi": 57,
                    "time": 287.17234199999916,
                    "velocity": 0.3937007874015748,
                    "duration": 0.3965516249999723
                },
                {
                    "name": "C3",
                    "midi": 48,
                    "time": 287.17234199999916,
                    "velocity": 0.33070866141732286,
                    "duration": 0.3965516249999723
                },
                {
                    "name": "E3",
                    "midi": 52,
                    "time": 287.58613499999916,
                    "velocity": 0.23622047244094488,
                    "duration": 0.3965516249999723
                },
                {
                    "name": "G3",
                    "midi": 55,
                    "time": 287.58613499999916,
                    "velocity": 0.3858267716535433,
                    "duration": 0.3965516249999723
                },
                {
                    "name": "C3",
                    "midi": 48,
                    "time": 287.58613499999916,
                    "velocity": 0.31496062992125984,
                    "duration": 0.3965516249999723
                },
                {
                    "name": "F3",
                    "midi": 53,
                    "time": 287.99992799999916,
                    "velocity": 0.36220472440944884,
                    "duration": 0.3965516249999723
                },
                {
                    "name": "G3",
                    "midi": 55,
                    "time": 287.99992799999916,
                    "velocity": 0.28346456692913385,
                    "duration": 0.3965516249999723
                },
                {
                    "name": "B3",
                    "midi": 59,
                    "time": 287.99992799999916,
                    "velocity": 0.25196850393700787,
                    "duration": 0.3965516249999723
                },
                {
                    "name": "E3",
                    "midi": 52,
                    "time": 288.41372099999916,
                    "velocity": 0.3464566929133858,
                    "duration": 0.3965516249999723
                },
                {
                    "name": "G3",
                    "midi": 55,
                    "time": 288.41372099999916,
                    "velocity": 0.3543307086614173,
                    "duration": 0.3965516249999723
                },
                {
                    "name": "C4",
                    "midi": 60,
                    "time": 288.41372099999916,
                    "velocity": 0.3937007874015748,
                    "duration": 0.3965516249999723
                },
                {
                    "name": "A3",
                    "midi": 57,
                    "time": 288.82751399999916,
                    "velocity": 0.31496062992125984,
                    "duration": 0.3965516249999723
                },
                {
                    "name": "E3",
                    "midi": 52,
                    "time": 288.82751399999916,
                    "velocity": 0.33858267716535434,
                    "duration": 0.3965516249999723
                },
                {
                    "name": "C#4",
                    "midi": 61,
                    "time": 288.82751399999916,
                    "velocity": 0.30708661417322836,
                    "duration": 0.3965516249999723
                },
                {
                    "name": "D4",
                    "midi": 62,
                    "time": 289.24130699999915,
                    "velocity": 0.33858267716535434,
                    "duration": 0.3965516249999723
                },
                {
                    "name": "F3",
                    "midi": 53,
                    "time": 289.24130699999915,
                    "velocity": 0.25984251968503935,
                    "duration": 0.3965516249999723
                },
                {
                    "name": "A3",
                    "midi": 57,
                    "time": 289.24130699999915,
                    "velocity": 0.33070866141732286,
                    "duration": 0.3965516249999723
                },
                {
                    "name": "D3",
                    "midi": 50,
                    "time": 289.65509999999915,
                    "velocity": 0.36220472440944884,
                    "duration": 0.3965516249999723
                },
                {
                    "name": "G3",
                    "midi": 55,
                    "time": 289.65509999999915,
                    "velocity": 0.3464566929133858,
                    "duration": 0.3965516249999723
                },
                {
                    "name": "B3",
                    "midi": 59,
                    "time": 289.65509999999915,
                    "velocity": 0.23622047244094488,
                    "duration": 0.3965516249999723
                },
                {
                    "name": "E3",
                    "midi": 52,
                    "time": 290.06889299999915,
                    "velocity": 0.25196850393700787,
                    "duration": 0.3965516249999723
                },
                {
                    "name": "C4",
                    "midi": 60,
                    "time": 290.06889299999915,
                    "velocity": 0.3937007874015748,
                    "duration": 0.3965516249999723
                },
                {
                    "name": "G3",
                    "midi": 55,
                    "time": 290.06889299999915,
                    "velocity": 0.3858267716535433,
                    "duration": 0.3965516249999723
                },
                {
                    "name": "E3",
                    "midi": 52,
                    "time": 290.48268599999915,
                    "velocity": 0.2440944881889764,
                    "duration": 0.3965516249999723
                },
                {
                    "name": "C4",
                    "midi": 60,
                    "time": 290.48268599999915,
                    "velocity": 0.3779527559055118,
                    "duration": 0.3965516249999723
                },
                {
                    "name": "F3",
                    "midi": 53,
                    "time": 290.48268599999915,
                    "velocity": 0.33858267716535434,
                    "duration": 0.3965516249999723
                },
                {
                    "name": "D4",
                    "midi": 62,
                    "time": 290.89647899999915,
                    "velocity": 0.25984251968503935,
                    "duration": 0.3965516249999723
                },
                {
                    "name": "F3",
                    "midi": 53,
                    "time": 290.89647899999915,
                    "velocity": 0.25984251968503935,
                    "duration": 0.3965516249999723
                },
                {
                    "name": "D3",
                    "midi": 50,
                    "time": 290.89647899999915,
                    "velocity": 0.2677165354330709,
                    "duration": 0.3965516249999723
                },
                {
                    "name": "D3",
                    "midi": 50,
                    "time": 291.31027199999915,
                    "velocity": 0.36220472440944884,
                    "duration": 0.3965516249999723
                },
                {
                    "name": "E3",
                    "midi": 52,
                    "time": 291.31027199999915,
                    "velocity": 0.33858267716535434,
                    "duration": 0.3965516249999723
                },
                {
                    "name": "G#3",
                    "midi": 56,
                    "time": 291.31027199999915,
                    "velocity": 0.3779527559055118,
                    "duration": 0.3965516249999723
                },
                {
                    "name": "E3",
                    "midi": 52,
                    "time": 291.72406499999914,
                    "velocity": 0.3228346456692913,
                    "duration": 0.3965516249999723
                },
                {
                    "name": "A3",
                    "midi": 57,
                    "time": 291.72406499999914,
                    "velocity": 0.2440944881889764,
                    "duration": 0.3965516249999723
                },
                {
                    "name": "C3",
                    "midi": 48,
                    "time": 291.72406499999914,
                    "velocity": 0.23622047244094488,
                    "duration": 0.3965516249999723
                },
                {
                    "name": "F#3",
                    "midi": 54,
                    "time": 292.13785799999914,
                    "velocity": 0.31496062992125984,
                    "duration": 0.3965516249999723
                },
                {
                    "name": "D3",
                    "midi": 50,
                    "time": 292.13785799999914,
                    "velocity": 0.31496062992125984,
                    "duration": 0.3965516249999723
                },
                {
                    "name": "C3",
                    "midi": 48,
                    "time": 292.13785799999914,
                    "velocity": 0.3228346456692913,
                    "duration": 0.3965516249999723
                },
                {
                    "name": "B2",
                    "midi": 47,
                    "time": 292.55165099999914,
                    "velocity": 0.2440944881889764,
                    "duration": 0.3965516249999723
                },
                {
                    "name": "G3",
                    "midi": 55,
                    "time": 292.55165099999914,
                    "velocity": 0.33070866141732286,
                    "duration": 0.3965516249999723
                },
                {
                    "name": "D3",
                    "midi": 50,
                    "time": 292.55165099999914,
                    "velocity": 0.3543307086614173,
                    "duration": 0.3965516249999723
                },
                {
                    "name": "D3",
                    "midi": 50,
                    "time": 292.96544399999914,
                    "velocity": 0.25984251968503935,
                    "duration": 0.3965516249999723
                },
                {
                    "name": "B3",
                    "midi": 59,
                    "time": 292.96544399999914,
                    "velocity": 0.3700787401574803,
                    "duration": 0.3965516249999723
                },
                {
                    "name": "G3",
                    "midi": 55,
                    "time": 292.96544399999914,
                    "velocity": 0.28346456692913385,
                    "duration": 0.3965516249999723
                },
                {
                    "name": "C3",
                    "midi": 48,
                    "time": 293.37923699999914,
                    "velocity": 0.3937007874015748,
                    "duration": 0.3965516249999723
                },
                {
                    "name": "C4",
                    "midi": 60,
                    "time": 293.37923699999914,
                    "velocity": 0.2755905511811024,
                    "duration": 0.3965516249999723
                },
                {
                    "name": "G3",
                    "midi": 55,
                    "time": 293.37923699999914,
                    "velocity": 0.2755905511811024,
                    "duration": 0.3965516249999723
                },
                {
                    "name": "F3",
                    "midi": 53,
                    "time": 293.79302999999913,
                    "velocity": 0.2755905511811024,
                    "duration": 0.3965516249999723
                },
                {
                    "name": "A3",
                    "midi": 57,
                    "time": 293.79302999999913,
                    "velocity": 0.3464566929133858,
                    "duration": 0.3965516249999723
                },
                {
                    "name": "E3",
                    "midi": 52,
                    "time": 294.20682299999913,
                    "velocity": 0.28346456692913385,
                    "duration": 0.3965516249999723
                },
                {
                    "name": "G3",
                    "midi": 55,
                    "time": 294.20682299999913,
                    "velocity": 0.2440944881889764,
                    "duration": 0.3965516249999723
                },
                {
                    "name": "F3",
                    "midi": 53,
                    "time": 294.62061599999913,
                    "velocity": 0.3937007874015748,
                    "duration": 0.3965516249999723
                },
                {
                    "name": "B3",
                    "midi": 59,
                    "time": 294.62061599999913,
                    "velocity": 0.3858267716535433,
                    "duration": 0.3965516249999723
                },
                {
                    "name": "G3",
                    "midi": 55,
                    "time": 294.62061599999913,
                    "velocity": 0.3543307086614173,
                    "duration": 0.3965516249999723
                },
                {
                    "name": "E3",
                    "midi": 52,
                    "time": 295.4482019999991,
                    "velocity": 0.2755905511811024,
                    "duration": 0.3965516249999723
                },
                {
                    "name": "G3",
                    "midi": 55,
                    "time": 295.4482019999991,
                    "velocity": 0.31496062992125984,
                    "duration": 0.3965516249999723
                },
                {
                    "name": "C4",
                    "midi": 60,
                    "time": 295.4482019999991,
                    "velocity": 0.25984251968503935,
                    "duration": 0.3965516249999723
                },
                {
                    "name": "G3",
                    "midi": 55,
                    "time": 296.2757879999991,
                    "velocity": 0.36220472440944884,
                    "duration": 0.3965516249999723
                },
                {
                    "name": "F3",
                    "midi": 53,
                    "time": 296.2757879999991,
                    "velocity": 0.30708661417322836,
                    "duration": 0.3965516249999723
                },
                {
                    "name": "B3",
                    "midi": 59,
                    "time": 296.2757879999991,
                    "velocity": 0.3543307086614173,
                    "duration": 0.3965516249999723
                },
                {
                    "name": "C4",
                    "midi": 60,
                    "time": 297.1033739999991,
                    "velocity": 0.2677165354330709,
                    "duration": 0.3965516249999723
                },
                {
                    "name": "E3",
                    "midi": 52,
                    "time": 297.1033739999991,
                    "velocity": 0.29133858267716534,
                    "duration": 0.3965516249999723
                },
                {
                    "name": "G3",
                    "midi": 55,
                    "time": 297.1033739999991,
                    "velocity": 0.33070866141732286,
                    "duration": 0.3965516249999723
                },
                {
                    "name": "G3",
                    "midi": 55,
                    "time": 297.9309599999991,
                    "velocity": 0.2992125984251969,
                    "duration": 0.3965516249999723
                },
                {
                    "name": "B3",
                    "midi": 59,
                    "time": 297.9309599999991,
                    "velocity": 0.2440944881889764,
                    "duration": 0.3965516249999723
                },
                {
                    "name": "F3",
                    "midi": 53,
                    "time": 297.9309599999991,
                    "velocity": 0.30708661417322836,
                    "duration": 0.3965516249999723
                },
                {
                    "name": "E3",
                    "midi": 52,
                    "time": 298.7585459999991,
                    "velocity": 0.31496062992125984,
                    "duration": 0.3965516249999723
                },
                {
                    "name": "C4",
                    "midi": 60,
                    "time": 298.7585459999991,
                    "velocity": 0.33858267716535434,
                    "duration": 0.3965516249999723
                },
                {
                    "name": "G3",
                    "midi": 55,
                    "time": 298.7585459999991,
                    "velocity": 0.3228346456692913,
                    "duration": 0.3965516249999723
                },
                {
                    "name": "G3",
                    "midi": 55,
                    "time": 299.5861319999991,
                    "velocity": 0.3228346456692913,
                    "duration": 0.3965516249999723
                },
                {
                    "name": "F3",
                    "midi": 53,
                    "time": 299.5861319999991,
                    "velocity": 0.3779527559055118,
                    "duration": 0.3965516249999723
                },
                {
                    "name": "B3",
                    "midi": 59,
                    "time": 299.5861319999991,
                    "velocity": 0.2440944881889764,
                    "duration": 0.3965516249999723
                },
                {
                    "name": "C4",
                    "midi": 60,
                    "time": 300.4137179999991,
                    "velocity": 0.2440944881889764,
                    "duration": 0.3965516249999723
                },
                {
                    "name": "E3",
                    "midi": 52,
                    "time": 300.4137179999991,
                    "velocity": 0.25196850393700787,
                    "duration": 0.3965516249999723
                },
                {
                    "name": "G3",
                    "midi": 55,
                    "time": 300.4137179999991,
                    "velocity": 0.30708661417322836,
                    "duration": 0.3965516249999723
                },
                {
                    "name": "G3",
                    "midi": 55,
                    "time": 301.2413039999991,
                    "velocity": 0.30708661417322836,
                    "duration": 0.3965516249999723
                },
                {
                    "name": "F3",
                    "midi": 53,
                    "time": 301.2413039999991,
                    "velocity": 0.25984251968503935,
                    "duration": 0.3965516249999723
                },
                {
                    "name": "B3",
                    "midi": 59,
                    "time": 301.2413039999991,
                    "velocity": 0.3228346456692913,
                    "duration": 0.3965516249999723
                },
                {
                    "name": "E3",
                    "midi": 52,
                    "time": 301.6550969999991,
                    "velocity": 0.3543307086614173,
                    "duration": 0.3965516249999723
                },
                {
                    "name": "C4",
                    "midi": 60,
                    "time": 301.6550969999991,
                    "velocity": 0.25196850393700787,
                    "duration": 0.3965516249999723
                },
                {
                    "name": "G3",
                    "midi": 55,
                    "time": 301.6550969999991,
                    "velocity": 0.33858267716535434,
                    "duration": 0.3965516249999723
                },
                {
                    "name": "F3",
                    "midi": 53,
                    "time": 302.0688899999991,
                    "velocity": 0.2992125984251969,
                    "duration": 0.3965516249999723
                },
                {
                    "name": "G3",
                    "midi": 55,
                    "time": 302.0688899999991,
                    "velocity": 0.3700787401574803,
                    "duration": 0.3965516249999723
                },
                {
                    "name": "B3",
                    "midi": 59,
                    "time": 302.0688899999991,
                    "velocity": 0.2992125984251969,
                    "duration": 0.3965516249999723
                },
                {
                    "name": "E3",
                    "midi": 52,
                    "time": 302.4826829999991,
                    "velocity": 0.3543307086614173,
                    "duration": 0.3965516249999723
                },
                {
                    "name": "C4",
                    "midi": 60,
                    "time": 302.4826829999991,
                    "velocity": 0.33070866141732286,
                    "duration": 0.3965516249999723
                },
                {
                    "name": "G3",
                    "midi": 55,
                    "time": 302.4826829999991,
                    "velocity": 0.3464566929133858,
                    "duration": 0.3965516249999723
                },
                {
                    "name": "B3",
                    "midi": 59,
                    "time": 302.8964759999991,
                    "velocity": 0.28346456692913385,
                    "duration": 0.3965516249999723
                },
                {
                    "name": "G3",
                    "midi": 55,
                    "time": 302.8964759999991,
                    "velocity": 0.2440944881889764,
                    "duration": 0.3965516249999723
                },
                {
                    "name": "D4",
                    "midi": 62,
                    "time": 302.8964759999991,
                    "velocity": 0.3464566929133858,
                    "duration": 0.3965516249999723
                },
                {
                    "name": "C4",
                    "midi": 60,
                    "time": 303.3102689999991,
                    "velocity": 0.3779527559055118,
                    "duration": 0.3965516249999723
                },
                {
                    "name": "G3",
                    "midi": 55,
                    "time": 303.3102689999991,
                    "velocity": 0.3937007874015748,
                    "duration": 0.3965516249999723
                },
                {
                    "name": "E4",
                    "midi": 64,
                    "time": 303.3102689999991,
                    "velocity": 0.3937007874015748,
                    "duration": 0.3965516249999723
                },
                {
                    "name": "G4",
                    "midi": 67,
                    "time": 303.7240619999991,
                    "velocity": 0.30708661417322836,
                    "duration": 0.3965516249999723
                },
                {
                    "name": "B3",
                    "midi": 59,
                    "time": 303.7240619999991,
                    "velocity": 0.28346456692913385,
                    "duration": 0.3965516249999723
                },
                {
                    "name": "D4",
                    "midi": 62,
                    "time": 303.7240619999991,
                    "velocity": 0.2440944881889764,
                    "duration": 0.3965516249999723
                },
                {
                    "name": "C4",
                    "midi": 60,
                    "time": 304.1378549999991,
                    "velocity": 0.3779527559055118,
                    "duration": 0.3965516249999723
                },
                {
                    "name": "E4",
                    "midi": 64,
                    "time": 304.1378549999991,
                    "velocity": 0.3937007874015748,
                    "duration": 0.3965516249999723
                },
                {
                    "name": "G4",
                    "midi": 67,
                    "time": 304.1378549999991,
                    "velocity": 0.33070866141732286,
                    "duration": 0.3965516249999723
                },
                {
                    "name": "D4",
                    "midi": 62,
                    "time": 304.5516479999991,
                    "velocity": 0.31496062992125984,
                    "duration": 0.3965516249999723
                },
                {
                    "name": "B4",
                    "midi": 71,
                    "time": 304.5516479999991,
                    "velocity": 0.25196850393700787,
                    "duration": 0.3965516249999723
                },
                {
                    "name": "G4",
                    "midi": 67,
                    "time": 304.5516479999991,
                    "velocity": 0.3937007874015748,
                    "duration": 0.3965516249999723
                },
                {
                    "name": "C5",
                    "midi": 72,
                    "time": 304.9654409999991,
                    "velocity": 0.36220472440944884,
                    "duration": 0.3965516249999723
                },
                {
                    "name": "E4",
                    "midi": 64,
                    "time": 304.9654409999991,
                    "velocity": 0.3464566929133858,
                    "duration": 0.3965516249999723
                },
                {
                    "name": "G4",
                    "midi": 67,
                    "time": 304.9654409999991,
                    "velocity": 0.2755905511811024,
                    "duration": 0.3965516249999723
                },
                {
                    "name": "E4",
                    "midi": 64,
                    "time": 306.6206129999991,
                    "velocity": 0.3779527559055118,
                    "duration": 0.3965516249999723
                },
                {
                    "name": "C5",
                    "midi": 72,
                    "time": 306.6206129999991,
                    "velocity": 0.28346456692913385,
                    "duration": 0.3965516249999723
                },
                {
                    "name": "G4",
                    "midi": 67,
                    "time": 306.6206129999991,
                    "velocity": 0.3779527559055118,
                    "duration": 0.3965516249999723
                },
                {
                    "name": "C4",
                    "midi": 60,
                    "time": 308.2757849999991,
                    "velocity": 0.25196850393700787,
                    "duration": 0.3965516249999723
                },
                {
                    "name": "E3",
                    "midi": 52,
                    "time": 308.2757849999991,
                    "velocity": 0.3700787401574803,
                    "duration": 0.3965516249999723
                },
                {
                    "name": "G3",
                    "midi": 55,
                    "time": 308.2757849999991,
                    "velocity": 0.2755905511811024,
                    "duration": 0.3965516249999723
                },
                {
                    "name": "G3",
                    "midi": 55,
                    "time": 309.93095699999907,
                    "velocity": 0.33858267716535434,
                    "duration": 0.4137929999999983
                },
                {
                    "name": "E3",
                    "midi": 52,
                    "time": 309.93095699999907,
                    "velocity": 0.33858267716535434,
                    "duration": 0.4137929999999983
                },
                {
                    "name": "C4",
                    "midi": 60,
                    "time": 309.93095699999907,
                    "velocity": 0.3937007874015748,
                    "duration": 0.4137929999999983
                },
                {
                    "name": "E3",
                    "midi": 52,
                    "time": 310.75854299999907,
                    "velocity": 0.2992125984251969,
                    "duration": 0.4137929999999983
                },
                {
                    "name": "G3",
                    "midi": 55,
                    "time": 310.75854299999907,
                    "velocity": 0.3779527559055118,
                    "duration": 0.4137929999999983
                },
                {
                    "name": "C4",
                    "midi": 60,
                    "time": 310.75854299999907,
                    "velocity": 0.25196850393700787,
                    "duration": 0.4137929999999983
                },
                {
                    "name": "C3",
                    "midi": 48,
                    "time": 311.58612899999906,
                    "velocity": 0.29133858267716534,
                    "duration": 0.4137929999999983
                },
                {
                    "name": "E2",
                    "midi": 40,
                    "time": 311.58612899999906,
                    "velocity": 0.3700787401574803,
                    "duration": 0.4137929999999983
                },
                {
                    "name": "G2",
                    "midi": 43,
                    "time": 311.58612899999906,
                    "velocity": 0.25196850393700787,
                    "duration": 0.4137929999999983
                }
            ],
            "controlChanges": {},
            "id": 2,
            "name": "Nicolo' Paganini 1782-1840",
            "instrumentNumber": 0,
            "instrument": "acoustic grand piano",
            "instrumentFamily": "piano",
            "channelNumber": 1,
            "isPercussion": false
        },
        {
            "startTime": 1.2241376250000002,
            "duration": 312.3964736250083,
            "length": 2989,
            "notes": [
                {
                    "name": "C5",
                    "midi": 72,
                    "time": 1.2241376250000002,
                    "velocity": 0.33858267716535434,
                    "duration": 0.10344825000000002
                },
                {
                    "name": "D5",
                    "midi": 74,
                    "time": 1.3275858750000002,
                    "velocity": 0.25984251968503935,
                    "duration": 0.10344825000000002
                },
                {
                    "name": "C5",
                    "midi": 72,
                    "time": 1.4310341250000003,
                    "velocity": 0.25984251968503935,
                    "duration": 0.10344825000000002
                },
                {
                    "name": "B4",
                    "midi": 71,
                    "time": 1.5344823750000003,
                    "velocity": 0.25984251968503935,
                    "duration": 0.10344825000000002
                },
                {
                    "name": "C5",
                    "midi": 72,
                    "time": 1.6379306250000003,
                    "velocity": 0.29133858267716534,
                    "duration": 0.10344825000000002
                },
                {
                    "name": "D5",
                    "midi": 74,
                    "time": 1.7413788750000003,
                    "velocity": 0.28346456692913385,
                    "duration": 0.10344825000000002
                },
                {
                    "name": "E5",
                    "midi": 76,
                    "time": 1.8448271250000003,
                    "velocity": 0.29133858267716534,
                    "duration": 0.10344825000000002
                },
                {
                    "name": "C5",
                    "midi": 72,
                    "time": 1.9482753750000004,
                    "velocity": 0.3700787401574803,
                    "duration": 0.1034482499999998
                },
                {
                    "name": "D5",
                    "midi": 74,
                    "time": 2.051723625,
                    "velocity": 0.31496062992125984,
                    "duration": 0.10344825000000002
                },
                {
                    "name": "C5",
                    "midi": 72,
                    "time": 2.155171875,
                    "velocity": 0.3700787401574803,
                    "duration": 0.10344825000000002
                },
                {
                    "name": "B4",
                    "midi": 71,
                    "time": 2.258620125,
                    "velocity": 0.2992125984251969,
                    "duration": 0.10344825000000002
                },
                {
                    "name": "A4",
                    "midi": 69,
                    "time": 2.362068375,
                    "velocity": 0.33858267716535434,
                    "duration": 0.10344825000000002
                },
                {
                    "name": "G4",
                    "midi": 67,
                    "time": 2.4655166250000002,
                    "velocity": 0.33070866141732286,
                    "duration": 0.10344825000000002
                },
                {
                    "name": "A4",
                    "midi": 69,
                    "time": 2.5689648750000003,
                    "velocity": 0.3543307086614173,
                    "duration": 0.10344825000000002
                },
                {
                    "name": "B4",
                    "midi": 71,
                    "time": 2.6724131250000003,
                    "velocity": 0.30708661417322836,
                    "duration": 0.10344825000000002
                },
                {
                    "name": "C5",
                    "midi": 72,
                    "time": 2.7758613750000003,
                    "velocity": 0.3543307086614173,
                    "duration": 0.10344825000000002
                },
                {
                    "name": "D5",
                    "midi": 74,
                    "time": 2.8793096250000003,
                    "velocity": 0.2992125984251969,
                    "duration": 0.10344825000000002
                },
                {
                    "name": "E5",
                    "midi": 76,
                    "time": 2.9827578750000003,
                    "velocity": 0.2755905511811024,
                    "duration": 0.10344825000000002
                },
                {
                    "name": "F5",
                    "midi": 77,
                    "time": 3.0862061250000004,
                    "velocity": 0.30708661417322836,
                    "duration": 0.10344825000000002
                },
                {
                    "name": "E5",
                    "midi": 76,
                    "time": 3.1896543750000004,
                    "velocity": 0.30708661417322836,
                    "duration": 0.10344825000000002
                },
                {
                    "name": "G5",
                    "midi": 79,
                    "time": 3.2931026250000004,
                    "velocity": 0.25984251968503935,
                    "duration": 0.10344825000000002
                },
                {
                    "name": "F5",
                    "midi": 77,
                    "time": 3.3965508750000004,
                    "velocity": 0.2755905511811024,
                    "duration": 0.10344825000000002
                },
                {
                    "name": "E5",
                    "midi": 76,
                    "time": 3.4999991250000004,
                    "velocity": 0.2677165354330709,
                    "duration": 0.10344825000000002
                },
                {
                    "name": "D5",
                    "midi": 74,
                    "time": 3.6034473750000005,
                    "velocity": 0.31496062992125984,
                    "duration": 0.10344825000000002
                },
                {
                    "name": "E5",
                    "midi": 76,
                    "time": 3.7068956250000005,
                    "velocity": 0.3543307086614173,
                    "duration": 0.10344825000000002
                },
                {
                    "name": "F5",
                    "midi": 77,
                    "time": 3.8103438750000005,
                    "velocity": 0.28346456692913385,
                    "duration": 0.10344825000000002
                },
                {
                    "name": "E5",
                    "midi": 76,
                    "time": 3.9137921250000005,
                    "velocity": 0.3700787401574803,
                    "duration": 0.10344824999999958
                },
                {
                    "name": "D5",
                    "midi": 74,
                    "time": 4.017240375,
                    "velocity": 0.3228346456692913,
                    "duration": 0.10344824999999958
                },
                {
                    "name": "C5",
                    "midi": 72,
                    "time": 4.120688625,
                    "velocity": 0.33070866141732286,
                    "duration": 0.10344824999999958
                },
                {
                    "name": "D5",
                    "midi": 74,
                    "time": 4.224136874999999,
                    "velocity": 0.3543307086614173,
                    "duration": 0.10344824999999958
                },
                {
                    "name": "E5",
                    "midi": 76,
                    "time": 4.327585124999999,
                    "velocity": 0.25984251968503935,
                    "duration": 0.10344824999999958
                },
                {
                    "name": "F5",
                    "midi": 77,
                    "time": 4.431033374999998,
                    "velocity": 0.33070866141732286,
                    "duration": 0.10344824999999958
                },
                {
                    "name": "G5",
                    "midi": 79,
                    "time": 4.534481624999998,
                    "velocity": 0.33858267716535434,
                    "duration": 0.10344824999999958
                },
                {
                    "name": "F5",
                    "midi": 77,
                    "time": 4.6379298749999975,
                    "velocity": 0.2677165354330709,
                    "duration": 0.10344824999999958
                },
                {
                    "name": "E5",
                    "midi": 76,
                    "time": 4.741378124999997,
                    "velocity": 0.3543307086614173,
                    "duration": 0.10344824999999958
                },
                {
                    "name": "D5",
                    "midi": 74,
                    "time": 4.844826374999997,
                    "velocity": 0.2677165354330709,
                    "duration": 0.10344824999999958
                },
                {
                    "name": "C#5",
                    "midi": 73,
                    "time": 4.948274624999996,
                    "velocity": 0.29133858267716534,
                    "duration": 0.10344824999999958
                },
                {
                    "name": "E5",
                    "midi": 76,
                    "time": 5.051722874999996,
                    "velocity": 0.3700787401574803,
                    "duration": 0.10344824999999958
                },
                {
                    "name": "A5",
                    "midi": 81,
                    "time": 5.155171124999995,
                    "velocity": 0.28346456692913385,
                    "duration": 0.10344824999999958
                },
                {
                    "name": "G5",
                    "midi": 79,
                    "time": 5.258619374999995,
                    "velocity": 0.33858267716535434,
                    "duration": 0.10344824999999958
                },
                {
                    "name": "F5",
                    "midi": 77,
                    "time": 5.362067624999995,
                    "velocity": 0.28346456692913385,
                    "duration": 0.10344824999999958
                },
                {
                    "name": "E5",
                    "midi": 76,
                    "time": 5.465515874999994,
                    "velocity": 0.3543307086614173,
                    "duration": 0.10344824999999958
                },
                {
                    "name": "D5",
                    "midi": 74,
                    "time": 5.568964124999994,
                    "velocity": 0.33858267716535434,
                    "duration": 0.10344824999999958
                },
                {
                    "name": "C5",
                    "midi": 72,
                    "time": 5.672412374999993,
                    "velocity": 0.28346456692913385,
                    "duration": 0.10344824999999958
                },
                {
                    "name": "B4",
                    "midi": 71,
                    "time": 5.775860624999993,
                    "velocity": 0.2755905511811024,
                    "duration": 0.10344824999999958
                },
                {
                    "name": "D5",
                    "midi": 74,
                    "time": 5.879308874999992,
                    "velocity": 0.2677165354330709,
                    "duration": 0.10344824999999958
                },
                {
                    "name": "G5",
                    "midi": 79,
                    "time": 5.982757124999992,
                    "velocity": 0.28346456692913385,
                    "duration": 0.10344824999999958
                },
                {
                    "name": "F5",
                    "midi": 77,
                    "time": 6.086205374999992,
                    "velocity": 0.2755905511811024,
                    "duration": 0.10344824999999958
                },
                {
                    "name": "E5",
                    "midi": 76,
                    "time": 6.189653624999991,
                    "velocity": 0.2755905511811024,
                    "duration": 0.10344824999999958
                },
                {
                    "name": "D5",
                    "midi": 74,
                    "time": 6.293101874999991,
                    "velocity": 0.2992125984251969,
                    "duration": 0.10344824999999958
                },
                {
                    "name": "C5",
                    "midi": 72,
                    "time": 6.39655012499999,
                    "velocity": 0.2755905511811024,
                    "duration": 0.10344824999999958
                },
                {
                    "name": "B4",
                    "midi": 71,
                    "time": 6.49999837499999,
                    "velocity": 0.25984251968503935,
                    "duration": 0.10344824999999958
                },
                {
                    "name": "A4",
                    "midi": 69,
                    "time": 6.6034466249999895,
                    "velocity": 0.30708661417322836,
                    "duration": 0.10344824999999958
                },
                {
                    "name": "D5",
                    "midi": 74,
                    "time": 6.706894874999989,
                    "velocity": 0.3464566929133858,
                    "duration": 0.10344824999999958
                },
                {
                    "name": "E5",
                    "midi": 76,
                    "time": 6.810343124999989,
                    "velocity": 0.33858267716535434,
                    "duration": 0.10344824999999958
                },
                {
                    "name": "D5",
                    "midi": 74,
                    "time": 6.913791374999988,
                    "velocity": 0.2677165354330709,
                    "duration": 0.10344824999999958
                },
                {
                    "name": "C5",
                    "midi": 72,
                    "time": 7.017239624999988,
                    "velocity": 0.30708661417322836,
                    "duration": 0.10344824999999958
                },
                {
                    "name": "B4",
                    "midi": 71,
                    "time": 7.120687874999987,
                    "velocity": 0.30708661417322836,
                    "duration": 0.10344824999999958
                },
                {
                    "name": "A4",
                    "midi": 69,
                    "time": 7.224136124999987,
                    "velocity": 0.3464566929133858,
                    "duration": 0.10344824999999958
                },
                {
                    "name": "G4",
                    "midi": 67,
                    "time": 7.3275843749999865,
                    "velocity": 0.36220472440944884,
                    "duration": 0.10344824999999958
                },
                {
                    "name": "F#4",
                    "midi": 66,
                    "time": 7.431032624999986,
                    "velocity": 0.3228346456692913,
                    "duration": 0.10344824999999958
                },
                {
                    "name": "G4",
                    "midi": 67,
                    "time": 7.534480874999986,
                    "velocity": 0.33070866141732286,
                    "duration": 0.10344824999999958
                },
                {
                    "name": "A4",
                    "midi": 69,
                    "time": 7.637929124999985,
                    "velocity": 0.2755905511811024,
                    "duration": 0.10344824999999958
                },
                {
                    "name": "B4",
                    "midi": 71,
                    "time": 7.741377374999985,
                    "velocity": 0.3543307086614173,
                    "duration": 0.10344824999999958
                },
                {
                    "name": "C5",
                    "midi": 72,
                    "time": 7.844825624999984,
                    "velocity": 0.2755905511811024,
                    "duration": 0.10344824999999958
                },
                {
                    "name": "D5",
                    "midi": 74,
                    "time": 7.948273874999984,
                    "velocity": 0.3700787401574803,
                    "duration": 0.10344824999999958
                },
                {
                    "name": "C5",
                    "midi": 72,
                    "time": 8.051722124999984,
                    "velocity": 0.33070866141732286,
                    "duration": 0.10344824999999958
                },
                {
                    "name": "B4",
                    "midi": 71,
                    "time": 8.155170374999983,
                    "velocity": 0.29133858267716534,
                    "duration": 0.10344824999999958
                },
                {
                    "name": "C5",
                    "midi": 72,
                    "time": 8.258618624999983,
                    "velocity": 0.30708661417322836,
                    "duration": 0.10344824999999958
                },
                {
                    "name": "D5",
                    "midi": 74,
                    "time": 8.362066874999982,
                    "velocity": 0.30708661417322836,
                    "duration": 0.10344824999999958
                },
                {
                    "name": "E5",
                    "midi": 76,
                    "time": 8.465515124999982,
                    "velocity": 0.36220472440944884,
                    "duration": 0.10344824999999958
                },
                {
                    "name": "C5",
                    "midi": 72,
                    "time": 8.568963374999981,
                    "velocity": 0.36220472440944884,
                    "duration": 0.10344824999999958
                },
                {
                    "name": "D5",
                    "midi": 74,
                    "time": 8.672411624999981,
                    "velocity": 0.3464566929133858,
                    "duration": 0.10344824999999958
                },
                {
                    "name": "C5",
                    "midi": 72,
                    "time": 8.77585987499998,
                    "velocity": 0.2755905511811024,
                    "duration": 0.10344824999999958
                },
                {
                    "name": "B4",
                    "midi": 71,
                    "time": 8.87930812499998,
                    "velocity": 0.3228346456692913,
                    "duration": 0.10344824999999958
                },
                {
                    "name": "A4",
                    "midi": 69,
                    "time": 8.98275637499998,
                    "velocity": 0.33858267716535434,
                    "duration": 0.10344824999999958
                },
                {
                    "name": "G4",
                    "midi": 67,
                    "time": 9.08620462499998,
                    "velocity": 0.33070866141732286,
                    "duration": 0.10344824999999958
                },
                {
                    "name": "A4",
                    "midi": 69,
                    "time": 9.189652874999979,
                    "velocity": 0.31496062992125984,
                    "duration": 0.10344824999999958
                },
                {
                    "name": "B4",
                    "midi": 71,
                    "time": 9.293101124999978,
                    "velocity": 0.28346456692913385,
                    "duration": 0.10344824999999958
                },
                {
                    "name": "C5",
                    "midi": 72,
                    "time": 9.396549374999978,
                    "velocity": 0.3228346456692913,
                    "duration": 0.10344824999999958
                },
                {
                    "name": "D5",
                    "midi": 74,
                    "time": 9.499997624999978,
                    "velocity": 0.33858267716535434,
                    "duration": 0.10344824999999958
                },
                {
                    "name": "E5",
                    "midi": 76,
                    "time": 9.603445874999977,
                    "velocity": 0.31496062992125984,
                    "duration": 0.10344824999999958
                },
                {
                    "name": "F5",
                    "midi": 77,
                    "time": 9.706894124999977,
                    "velocity": 0.29133858267716534,
                    "duration": 0.10344824999999958
                },
                {
                    "name": "E5",
                    "midi": 76,
                    "time": 9.810342374999976,
                    "velocity": 0.3228346456692913,
                    "duration": 0.10344824999999958
                },
                {
                    "name": "G5",
                    "midi": 79,
                    "time": 9.913790624999976,
                    "velocity": 0.2677165354330709,
                    "duration": 0.10344824999999958
                },
                {
                    "name": "F5",
                    "midi": 77,
                    "time": 10.017238874999975,
                    "velocity": 0.30708661417322836,
                    "duration": 0.10344824999999958
                },
                {
                    "name": "E5",
                    "midi": 76,
                    "time": 10.120687124999975,
                    "velocity": 0.3543307086614173,
                    "duration": 0.10344824999999958
                },
                {
                    "name": "D5",
                    "midi": 74,
                    "time": 10.224135374999975,
                    "velocity": 0.31496062992125984,
                    "duration": 0.10344824999999958
                },
                {
                    "name": "E5",
                    "midi": 76,
                    "time": 10.327583624999974,
                    "velocity": 0.3543307086614173,
                    "duration": 0.10344824999999958
                },
                {
                    "name": "F5",
                    "midi": 77,
                    "time": 10.431031874999974,
                    "velocity": 0.3464566929133858,
                    "duration": 0.10344824999999958
                },
                {
                    "name": "E5",
                    "midi": 76,
                    "time": 10.534480124999973,
                    "velocity": 0.3543307086614173,
                    "duration": 0.10344824999999958
                },
                {
                    "name": "D5",
                    "midi": 74,
                    "time": 10.637928374999973,
                    "velocity": 0.25984251968503935,
                    "duration": 0.10344824999999958
                },
                {
                    "name": "C5",
                    "midi": 72,
                    "time": 10.741376624999972,
                    "velocity": 0.3700787401574803,
                    "duration": 0.10344824999999958
                },
                {
                    "name": "D5",
                    "midi": 74,
                    "time": 10.844824874999972,
                    "velocity": 0.2755905511811024,
                    "duration": 0.10344824999999958
                },
                {
                    "name": "E5",
                    "midi": 76,
                    "time": 10.948273124999972,
                    "velocity": 0.36220472440944884,
                    "duration": 0.10344824999999958
                },
                {
                    "name": "F5",
                    "midi": 77,
                    "time": 11.051721374999971,
                    "velocity": 0.3700787401574803,
                    "duration": 0.10344824999999958
                },
                {
                    "name": "G5",
                    "midi": 79,
                    "time": 11.15516962499997,
                    "velocity": 0.36220472440944884,
                    "duration": 0.10344824999999958
                },
                {
                    "name": "F5",
                    "midi": 77,
                    "time": 11.25861787499997,
                    "velocity": 0.2677165354330709,
                    "duration": 0.10344824999999958
                },
                {
                    "name": "E5",
                    "midi": 76,
                    "time": 11.36206612499997,
                    "velocity": 0.2677165354330709,
                    "duration": 0.10344824999999958
                },
                {
                    "name": "D5",
                    "midi": 74,
                    "time": 11.46551437499997,
                    "velocity": 0.33858267716535434,
                    "duration": 0.10344824999999958
                },
                {
                    "name": "C#5",
                    "midi": 73,
                    "time": 11.568962624999969,
                    "velocity": 0.30708661417322836,
                    "duration": 0.10344824999999958
                },
                {
                    "name": "E5",
                    "midi": 76,
                    "time": 11.672410874999969,
                    "velocity": 0.3543307086614173,
                    "duration": 0.10344824999999958
                },
                {
                    "name": "A5",
                    "midi": 81,
                    "time": 11.775859124999968,
                    "velocity": 0.29133858267716534,
                    "duration": 0.10344824999999958
                },
                {
                    "name": "G5",
                    "midi": 79,
                    "time": 11.879307374999968,
                    "velocity": 0.33858267716535434,
                    "duration": 0.10344824999999958
                },
                {
                    "name": "F5",
                    "midi": 77,
                    "time": 11.982755624999967,
                    "velocity": 0.30708661417322836,
                    "duration": 0.10344824999999958
                },
                {
                    "name": "E5",
                    "midi": 76,
                    "time": 12.086203874999967,
                    "velocity": 0.31496062992125984,
                    "duration": 0.10344824999999958
                },
                {
                    "name": "D5",
                    "midi": 74,
                    "time": 12.189652124999967,
                    "velocity": 0.3464566929133858,
                    "duration": 0.10344824999999958
                },
                {
                    "name": "C5",
                    "midi": 72,
                    "time": 12.293100374999966,
                    "velocity": 0.28346456692913385,
                    "duration": 0.10344824999999958
                },
                {
                    "name": "B4",
                    "midi": 71,
                    "time": 12.396548624999966,
                    "velocity": 0.3543307086614173,
                    "duration": 0.10344824999999958
                },
                {
                    "name": "D5",
                    "midi": 74,
                    "time": 12.499996874999965,
                    "velocity": 0.3464566929133858,
                    "duration": 0.10344824999999958
                },
                {
                    "name": "G5",
                    "midi": 79,
                    "time": 12.603445124999965,
                    "velocity": 0.28346456692913385,
                    "duration": 0.10344824999999958
                },
                {
                    "name": "F5",
                    "midi": 77,
                    "time": 12.706893374999964,
                    "velocity": 0.2677165354330709,
                    "duration": 0.10344824999999958
                },
                {
                    "name": "E5",
                    "midi": 76,
                    "time": 12.810341624999964,
                    "velocity": 0.3543307086614173,
                    "duration": 0.10344824999999958
                },
                {
                    "name": "D5",
                    "midi": 74,
                    "time": 12.913789874999964,
                    "velocity": 0.2755905511811024,
                    "duration": 0.10344824999999958
                },
                {
                    "name": "C5",
                    "midi": 72,
                    "time": 13.017238124999963,
                    "velocity": 0.2677165354330709,
                    "duration": 0.10344824999999958
                },
                {
                    "name": "B4",
                    "midi": 71,
                    "time": 13.120686374999963,
                    "velocity": 0.3700787401574803,
                    "duration": 0.10344824999999958
                },
                {
                    "name": "A4",
                    "midi": 69,
                    "time": 13.224134624999962,
                    "velocity": 0.28346456692913385,
                    "duration": 0.10344824999999958
                },
                {
                    "name": "C5",
                    "midi": 72,
                    "time": 13.327582874999962,
                    "velocity": 0.2755905511811024,
                    "duration": 0.10344824999999958
                },
                {
                    "name": "F5",
                    "midi": 77,
                    "time": 13.431031124999961,
                    "velocity": 0.28346456692913385,
                    "duration": 0.10344824999999958
                },
                {
                    "name": "E5",
                    "midi": 76,
                    "time": 13.534479374999961,
                    "velocity": 0.31496062992125984,
                    "duration": 0.10344824999999958
                },
                {
                    "name": "D5",
                    "midi": 74,
                    "time": 13.63792762499996,
                    "velocity": 0.2755905511811024,
                    "duration": 0.10344824999999958
                },
                {
                    "name": "C5",
                    "midi": 72,
                    "time": 13.74137587499996,
                    "velocity": 0.3543307086614173,
                    "duration": 0.10344824999999958
                },
                {
                    "name": "B4",
                    "midi": 71,
                    "time": 13.84482412499996,
                    "velocity": 0.29133858267716534,
                    "duration": 0.10344824999999958
                },
                {
                    "name": "A4",
                    "midi": 69,
                    "time": 13.94827237499996,
                    "velocity": 0.3228346456692913,
                    "duration": 0.10344824999999958
                },
                {
                    "name": "G#4",
                    "midi": 68,
                    "time": 14.051720624999959,
                    "velocity": 0.3464566929133858,
                    "duration": 0.10344824999999958
                },
                {
                    "name": "B4",
                    "midi": 71,
                    "time": 14.155168874999958,
                    "velocity": 0.3464566929133858,
                    "duration": 0.10344824999999958
                },
                {
                    "name": "E5",
                    "midi": 76,
                    "time": 14.258617124999958,
                    "velocity": 0.3228346456692913,
                    "duration": 0.10344824999999958
                },
                {
                    "name": "D5",
                    "midi": 74,
                    "time": 14.362065374999958,
                    "velocity": 0.31496062992125984,
                    "duration": 0.10344824999999958
                },
                {
                    "name": "C5",
                    "midi": 72,
                    "time": 14.465513624999957,
                    "velocity": 0.2755905511811024,
                    "duration": 0.10344824999999958
                },
                {
                    "name": "B4",
                    "midi": 71,
                    "time": 14.568961874999957,
                    "velocity": 0.33070866141732286,
                    "duration": 0.10344824999999958
                },
                {
                    "name": "A4",
                    "midi": 69,
                    "time": 14.672410124999956,
                    "velocity": 0.3228346456692913,
                    "duration": 0.10344824999999958
                },
                {
                    "name": "G4",
                    "midi": 67,
                    "time": 14.775858374999956,
                    "velocity": 0.31496062992125984,
                    "duration": 0.10344824999999958
                },
                {
                    "name": "F#4",
                    "midi": 66,
                    "time": 14.879306624999955,
                    "velocity": 0.28346456692913385,
                    "duration": 0.10344824999999958
                },
                {
                    "name": "A4",
                    "midi": 69,
                    "time": 14.982754874999955,
                    "velocity": 0.3228346456692913,
                    "duration": 0.10344824999999958
                },
                {
                    "name": "D5",
                    "midi": 74,
                    "time": 15.086203124999955,
                    "velocity": 0.33070866141732286,
                    "duration": 0.10344824999999958
                },
                {
                    "name": "C5",
                    "midi": 72,
                    "time": 15.189651374999954,
                    "velocity": 0.2755905511811024,
                    "duration": 0.10344824999999958
                },
                {
                    "name": "B4",
                    "midi": 71,
                    "time": 15.293099624999954,
                    "velocity": 0.3700787401574803,
                    "duration": 0.10344824999999958
                },
                {
                    "name": "A4",
                    "midi": 69,
                    "time": 15.396547874999953,
                    "velocity": 0.33070866141732286,
                    "duration": 0.10344824999999958
                },
                {
                    "name": "G4",
                    "midi": 67,
                    "time": 15.499996124999953,
                    "velocity": 0.25984251968503935,
                    "duration": 0.10344824999999958
                },
                {
                    "name": "A4",
                    "midi": 69,
                    "time": 15.603444374999953,
                    "velocity": 0.28346456692913385,
                    "duration": 0.10344824999999958
                },
                {
                    "name": "B4",
                    "midi": 71,
                    "time": 15.706892624999952,
                    "velocity": 0.28346456692913385,
                    "duration": 0.10344824999999958
                },
                {
                    "name": "C5",
                    "midi": 72,
                    "time": 15.810340874999952,
                    "velocity": 0.2992125984251969,
                    "duration": 0.10344824999999958
                },
                {
                    "name": "D5",
                    "midi": 74,
                    "time": 15.913789124999951,
                    "velocity": 0.31496062992125984,
                    "duration": 0.10344824999999958
                },
                {
                    "name": "C5",
                    "midi": 72,
                    "time": 16.01723737499995,
                    "velocity": 0.2677165354330709,
                    "duration": 0.10344824999999958
                },
                {
                    "name": "B4",
                    "midi": 71,
                    "time": 16.12068562499995,
                    "velocity": 0.3464566929133858,
                    "duration": 0.10344824999999958
                },
                {
                    "name": "C5",
                    "midi": 72,
                    "time": 16.22413387499995,
                    "velocity": 0.33070866141732286,
                    "duration": 0.10344824999999958
                },
                {
                    "name": "D5",
                    "midi": 74,
                    "time": 16.32758212499995,
                    "velocity": 0.28346456692913385,
                    "duration": 0.10344824999999958
                },
                {
                    "name": "E5",
                    "midi": 76,
                    "time": 16.43103037499995,
                    "velocity": 0.3700787401574803,
                    "duration": 0.10344824999999958
                },
                {
                    "name": "F5",
                    "midi": 77,
                    "time": 16.53447862499995,
                    "velocity": 0.2755905511811024,
                    "duration": 0.10344824999999958
                },
                {
                    "name": "G5",
                    "midi": 79,
                    "time": 16.63792687499995,
                    "velocity": 0.2992125984251969,
                    "duration": 0.10344824999999958
                },
                {
                    "name": "A5",
                    "midi": 81,
                    "time": 16.741375124999948,
                    "velocity": 0.36220472440944884,
                    "duration": 0.10344824999999958
                },
                {
                    "name": "G5",
                    "midi": 79,
                    "time": 16.844823374999947,
                    "velocity": 0.3464566929133858,
                    "duration": 0.10344824999999958
                },
                {
                    "name": "A5",
                    "midi": 81,
                    "time": 16.948271624999947,
                    "velocity": 0.3700787401574803,
                    "duration": 0.10344824999999958
                },
                {
                    "name": "G5",
                    "midi": 79,
                    "time": 17.051719874999947,
                    "velocity": 0.2677165354330709,
                    "duration": 0.10344824999999958
                },
                {
                    "name": "F#5",
                    "midi": 78,
                    "time": 17.155168124999946,
                    "velocity": 0.3700787401574803,
                    "duration": 0.10344824999999958
                },
                {
                    "name": "G5",
                    "midi": 79,
                    "time": 17.258616374999946,
                    "velocity": 0.30708661417322836,
                    "duration": 0.10344824999999958
                },
                {
                    "name": "A5",
                    "midi": 81,
                    "time": 17.362064624999945,
                    "velocity": 0.31496062992125984,
                    "duration": 0.10344824999999958
                },
                {
                    "name": "G5",
                    "midi": 79,
                    "time": 17.465512874999945,
                    "velocity": 0.33070866141732286,
                    "duration": 0.10344824999999958
                },
                {
                    "name": "F5",
                    "midi": 77,
                    "time": 17.568961124999944,
                    "velocity": 0.2677165354330709,
                    "duration": 0.10344824999999958
                },
                {
                    "name": "E5",
                    "midi": 76,
                    "time": 17.672409374999944,
                    "velocity": 0.2755905511811024,
                    "duration": 0.10344824999999958
                },
                {
                    "name": "G5",
                    "midi": 79,
                    "time": 17.775857624999944,
                    "velocity": 0.33858267716535434,
                    "duration": 0.10344824999999958
                },
                {
                    "name": "F5",
                    "midi": 77,
                    "time": 17.879305874999943,
                    "velocity": 0.30708661417322836,
                    "duration": 0.10344824999999958
                },
                {
                    "name": "E5",
                    "midi": 76,
                    "time": 17.982754124999943,
                    "velocity": 0.31496062992125984,
                    "duration": 0.10344824999999958
                },
                {
                    "name": "F5",
                    "midi": 77,
                    "time": 18.086202374999942,
                    "velocity": 0.33858267716535434,
                    "duration": 0.10344824999999958
                },
                {
                    "name": "G5",
                    "midi": 79,
                    "time": 18.189650624999942,
                    "velocity": 0.2677165354330709,
                    "duration": 0.10344824999999958
                },
                {
                    "name": "F5",
                    "midi": 77,
                    "time": 18.29309887499994,
                    "velocity": 0.30708661417322836,
                    "duration": 0.10344824999999958
                },
                {
                    "name": "E5",
                    "midi": 76,
                    "time": 18.39654712499994,
                    "velocity": 0.2755905511811024,
                    "duration": 0.10344824999999958
                },
                {
                    "name": "D5",
                    "midi": 74,
                    "time": 18.49999537499994,
                    "velocity": 0.36220472440944884,
                    "duration": 0.10344824999999958
                },
                {
                    "name": "F5",
                    "midi": 77,
                    "time": 18.60344362499994,
                    "velocity": 0.3700787401574803,
                    "duration": 0.10344824999999958
                },
                {
                    "name": "E5",
                    "midi": 76,
                    "time": 18.70689187499994,
                    "velocity": 0.31496062992125984,
                    "duration": 0.10344824999999958
                },
                {
                    "name": "D#5",
                    "midi": 75,
                    "time": 18.81034012499994,
                    "velocity": 0.25984251968503935,
                    "duration": 0.10344824999999958
                },
                {
                    "name": "E5",
                    "midi": 76,
                    "time": 18.91378837499994,
                    "velocity": 0.3543307086614173,
                    "duration": 0.10344824999999958
                },
                {
                    "name": "F5",
                    "midi": 77,
                    "time": 19.01723662499994,
                    "velocity": 0.2677165354330709,
                    "duration": 0.10344824999999958
                },
                {
                    "name": "E5",
                    "midi": 76,
                    "time": 19.120684874999938,
                    "velocity": 0.3228346456692913,
                    "duration": 0.10344824999999958
                },
                {
                    "name": "D5",
                    "midi": 74,
                    "time": 19.224133124999938,
                    "velocity": 0.2755905511811024,
                    "duration": 0.10344824999999958
                },
                {
                    "name": "C5",
                    "midi": 72,
                    "time": 19.327581374999937,
                    "velocity": 0.2755905511811024,
                    "duration": 0.10344824999999958
                },
                {
                    "name": "E5",
                    "midi": 76,
                    "time": 19.431029624999937,
                    "velocity": 0.30708661417322836,
                    "duration": 0.10344824999999958
                },
                {
                    "name": "D5",
                    "midi": 74,
                    "time": 19.534477874999936,
                    "velocity": 0.33070866141732286,
                    "duration": 0.10344824999999958
                },
                {
                    "name": "C#5",
                    "midi": 73,
                    "time": 19.637926124999936,
                    "velocity": 0.33858267716535434,
                    "duration": 0.10344824999999958
                },
                {
                    "name": "D5",
                    "midi": 74,
                    "time": 19.741374374999936,
                    "velocity": 0.3228346456692913,
                    "duration": 0.10344824999999958
                },
                {
                    "name": "E5",
                    "midi": 76,
                    "time": 19.844822624999935,
                    "velocity": 0.3779527559055118,
                    "duration": 0.10344824999999958
                },
                {
                    "name": "D5",
                    "midi": 74,
                    "time": 19.948270874999935,
                    "velocity": 0.4330708661417323,
                    "duration": 0.10344824999999958
                },
                {
                    "name": "C5",
                    "midi": 72,
                    "time": 20.051719124999934,
                    "velocity": 0.3779527559055118,
                    "duration": 0.10344824999999958
                },
                {
                    "name": "B4",
                    "midi": 71,
                    "time": 20.155167374999934,
                    "velocity": 0.47244094488188976,
                    "duration": 0.10344824999999958
                },
                {
                    "name": "C5",
                    "midi": 72,
                    "time": 20.258615624999933,
                    "velocity": 0.4881889763779528,
                    "duration": 0.10344824999999958
                },
                {
                    "name": "G4",
                    "midi": 67,
                    "time": 20.362063874999933,
                    "velocity": 0.49606299212598426,
                    "duration": 0.10344824999999958
                },
                {
                    "name": "A4",
                    "midi": 69,
                    "time": 20.465512124999933,
                    "velocity": 0.5905511811023622,
                    "duration": 0.10344824999999958
                },
                {
                    "name": "B4",
                    "midi": 71,
                    "time": 20.568960374999932,
                    "velocity": 0.5511811023622047,
                    "duration": 0.10344824999999958
                },
                {
                    "name": "C5",
                    "midi": 72,
                    "time": 20.67240862499993,
                    "velocity": 0.6535433070866141,
                    "duration": 0.10344824999999958
                },
                {
                    "name": "D5",
                    "midi": 74,
                    "time": 20.77585687499993,
                    "velocity": 0.6929133858267716,
                    "duration": 0.10344824999999958
                },
                {
                    "name": "E5",
                    "midi": 76,
                    "time": 20.87930512499993,
                    "velocity": 0.6535433070866141,
                    "duration": 0.10344824999999958
                },
                {
                    "name": "F5",
                    "midi": 77,
                    "time": 20.98275337499993,
                    "velocity": 0.7559055118110236,
                    "duration": 0.10344824999999958
                },
                {
                    "name": "G5",
                    "midi": 79,
                    "time": 21.08620162499993,
                    "velocity": 0.8110236220472441,
                    "duration": 0.10344824999999958
                },
                {
                    "name": "F5",
                    "midi": 77,
                    "time": 21.18964987499993,
                    "velocity": 0.7874015748031497,
                    "duration": 0.10344824999999958
                },
                {
                    "name": "E5",
                    "midi": 76,
                    "time": 21.29309812499993,
                    "velocity": 0.7007874015748031,
                    "duration": 0.10344824999999958
                },
                {
                    "name": "F5",
                    "midi": 77,
                    "time": 21.39654637499993,
                    "velocity": 0.7480314960629921,
                    "duration": 0.10344824999999958
                },
                {
                    "name": "G5",
                    "midi": 79,
                    "time": 21.49999462499993,
                    "velocity": 0.7874015748031497,
                    "duration": 0.10344824999999958
                },
                {
                    "name": "A5",
                    "midi": 81,
                    "time": 21.603442874999928,
                    "velocity": 0.7795275590551181,
                    "duration": 0.10344824999999958
                },
                {
                    "name": "B5",
                    "midi": 83,
                    "time": 21.706891124999927,
                    "velocity": 0.7480314960629921,
                    "duration": 0.10344824999999958
                },
                {
                    "name": "C6",
                    "midi": 84,
                    "time": 21.810339374999927,
                    "velocity": 0.7322834645669292,
                    "duration": 0.10344824999999958
                },
                {
                    "name": "A5",
                    "midi": 81,
                    "time": 21.913787624999927,
                    "velocity": 0.7165354330708661,
                    "duration": 0.10344824999999958
                },
                {
                    "name": "B5",
                    "midi": 83,
                    "time": 22.017235874999926,
                    "velocity": 0.8110236220472441,
                    "duration": 0.10344824999999958
                },
                {
                    "name": "C6",
                    "midi": 84,
                    "time": 22.120684124999926,
                    "velocity": 0.7322834645669292,
                    "duration": 0.10344824999999958
                },
                {
                    "name": "B5",
                    "midi": 83,
                    "time": 22.224132374999925,
                    "velocity": 0.7637795275590551,
                    "duration": 0.10344824999999958
                },
                {
                    "name": "D6",
                    "midi": 86,
                    "time": 22.327580624999925,
                    "velocity": 0.7795275590551181,
                    "duration": 0.10344824999999958
                },
                {
                    "name": "C6",
                    "midi": 84,
                    "time": 22.431028874999924,
                    "velocity": 0.7874015748031497,
                    "duration": 0.10344824999999958
                },
                {
                    "name": "B5",
                    "midi": 83,
                    "time": 22.534477124999924,
                    "velocity": 0.8110236220472441,
                    "duration": 0.10344824999999958
                },
                {
                    "name": "A5",
                    "midi": 81,
                    "time": 22.637925374999924,
                    "velocity": 0.7086614173228346,
                    "duration": 0.10344824999999958
                },
                {
                    "name": "A5",
                    "midi": 81,
                    "time": 22.741373624999923,
                    "velocity": 0.7165354330708661,
                    "duration": 0.10344824999999958
                },
                {
                    "name": "G5",
                    "midi": 79,
                    "time": 22.844821874999923,
                    "velocity": 0.7716535433070866,
                    "duration": 0.10344824999999958
                },
                {
                    "name": "F#5",
                    "midi": 78,
                    "time": 22.948270124999922,
                    "velocity": 0.7086614173228346,
                    "duration": 0.10344824999999958
                },
                {
                    "name": "G5",
                    "midi": 79,
                    "time": 23.051718374999922,
                    "velocity": 0.7165354330708661,
                    "duration": 0.10344824999999958
                },
                {
                    "name": "B5",
                    "midi": 83,
                    "time": 23.15516662499992,
                    "velocity": 0.7716535433070866,
                    "duration": 0.10344824999999958
                },
                {
                    "name": "A5",
                    "midi": 81,
                    "time": 23.25861487499992,
                    "velocity": 0.7716535433070866,
                    "duration": 0.10344824999999958
                },
                {
                    "name": "G5",
                    "midi": 79,
                    "time": 23.36206312499992,
                    "velocity": 0.7007874015748031,
                    "duration": 0.10344824999999958
                },
                {
                    "name": "F5",
                    "midi": 77,
                    "time": 23.46551137499992,
                    "velocity": 0.7007874015748031,
                    "duration": 0.10344824999999958
                },
                {
                    "name": "E5",
                    "midi": 76,
                    "time": 23.56895962499992,
                    "velocity": 0.7401574803149606,
                    "duration": 0.10344824999999958
                },
                {
                    "name": "G4",
                    "midi": 67,
                    "time": 23.67240787499992,
                    "velocity": 0.7165354330708661,
                    "duration": 0.10344824999999958
                },
                {
                    "name": "A4",
                    "midi": 69,
                    "time": 23.77585612499992,
                    "velocity": 0.7559055118110236,
                    "duration": 0.10344824999999958
                },
                {
                    "name": "B4",
                    "midi": 71,
                    "time": 23.87930437499992,
                    "velocity": 0.7952755905511811,
                    "duration": 0.10344824999999958
                },
                {
                    "name": "C5",
                    "midi": 72,
                    "time": 23.982752624999918,
                    "velocity": 0.7874015748031497,
                    "duration": 0.10344824999999958
                },
                {
                    "name": "D5",
                    "midi": 74,
                    "time": 24.086200874999918,
                    "velocity": 0.7244094488188977,
                    "duration": 0.10344824999999958
                },
                {
                    "name": "E5",
                    "midi": 76,
                    "time": 24.189649124999917,
                    "velocity": 0.7244094488188977,
                    "duration": 0.10344824999999958
                },
                {
                    "name": "F5",
                    "midi": 77,
                    "time": 24.293097374999917,
                    "velocity": 0.7795275590551181,
                    "duration": 0.10344824999999958
                },
                {
                    "name": "G5",
                    "midi": 79,
                    "time": 24.396545624999916,
                    "velocity": 0.7874015748031497,
                    "duration": 0.10344824999999958
                },
                {
                    "name": "F5",
                    "midi": 77,
                    "time": 24.499993874999916,
                    "velocity": 0.7874015748031497,
                    "duration": 0.10344824999999958
                },
                {
                    "name": "E5",
                    "midi": 76,
                    "time": 24.603442124999916,
                    "velocity": 0.7716535433070866,
                    "duration": 0.10344824999999958
                },
                {
                    "name": "F5",
                    "midi": 77,
                    "time": 24.706890374999915,
                    "velocity": 0.7795275590551181,
                    "duration": 0.10344824999999958
                },
                {
                    "name": "G5",
                    "midi": 79,
                    "time": 24.810338624999915,
                    "velocity": 0.7086614173228346,
                    "duration": 0.10344824999999958
                },
                {
                    "name": "A5",
                    "midi": 81,
                    "time": 24.913786874999914,
                    "velocity": 0.8031496062992126,
                    "duration": 0.10344824999999958
                },
                {
                    "name": "B5",
                    "midi": 83,
                    "time": 25.017235124999914,
                    "velocity": 0.7086614173228346,
                    "duration": 0.10344824999999958
                },
                {
                    "name": "C6",
                    "midi": 84,
                    "time": 25.120683374999913,
                    "velocity": 0.7795275590551181,
                    "duration": 0.10344824999999958
                },
                {
                    "name": "A5",
                    "midi": 81,
                    "time": 25.224131624999913,
                    "velocity": 0.7244094488188977,
                    "duration": 0.10344824999999958
                },
                {
                    "name": "B5",
                    "midi": 83,
                    "time": 25.327579874999913,
                    "velocity": 0.7244094488188977,
                    "duration": 0.10344824999999958
                },
                {
                    "name": "C6",
                    "midi": 84,
                    "time": 25.431028124999912,
                    "velocity": 0.7401574803149606,
                    "duration": 0.10344824999999958
                },
                {
                    "name": "B5",
                    "midi": 83,
                    "time": 25.53447637499991,
                    "velocity": 0.7322834645669292,
                    "duration": 0.10344824999999958
                },
                {
                    "name": "D6",
                    "midi": 86,
                    "time": 25.63792462499991,
                    "velocity": 0.7874015748031497,
                    "duration": 0.10344824999999958
                },
                {
                    "name": "C6",
                    "midi": 84,
                    "time": 25.74137287499991,
                    "velocity": 0.8031496062992126,
                    "duration": 0.10344824999999958
                },
                {
                    "name": "B5",
                    "midi": 83,
                    "time": 25.84482112499991,
                    "velocity": 0.7322834645669292,
                    "duration": 0.10344824999999958
                },
                {
                    "name": "A5",
                    "midi": 81,
                    "time": 25.94826937499991,
                    "velocity": 0.7952755905511811,
                    "duration": 0.10344824999999958
                },
                {
                    "name": "A5",
                    "midi": 81,
                    "time": 26.05171762499991,
                    "velocity": 0.8031496062992126,
                    "duration": 0.10344824999999958
                },
                {
                    "name": "G5",
                    "midi": 79,
                    "time": 26.15516587499991,
                    "velocity": 0.7874015748031497,
                    "duration": 0.10344824999999958
                },
                {
                    "name": "F#5",
                    "midi": 78,
                    "time": 26.25861412499991,
                    "velocity": 0.7244094488188977,
                    "duration": 0.10344824999999958
                },
                {
                    "name": "G5",
                    "midi": 79,
                    "time": 26.36206237499991,
                    "velocity": 0.7007874015748031,
                    "duration": 0.10344824999999958
                },
                {
                    "name": "B5",
                    "midi": 83,
                    "time": 26.465510624999908,
                    "velocity": 0.7480314960629921,
                    "duration": 0.10344824999999958
                },
                {
                    "name": "A5",
                    "midi": 81,
                    "time": 26.568958874999907,
                    "velocity": 0.7244094488188977,
                    "duration": 0.10344824999999958
                },
                {
                    "name": "G5",
                    "midi": 79,
                    "time": 26.672407124999907,
                    "velocity": 0.7401574803149606,
                    "duration": 0.10344824999999958
                },
                {
                    "name": "F5",
                    "midi": 77,
                    "time": 26.775855374999907,
                    "velocity": 0.7952755905511811,
                    "duration": 0.10344824999999958
                },
                {
                    "name": "E5",
                    "midi": 76,
                    "time": 26.879303624999906,
                    "velocity": 0.8110236220472441,
                    "duration": 0.10344824999999958
                },
                {
                    "name": "G5",
                    "midi": 79,
                    "time": 26.982751874999906,
                    "velocity": 0.7637795275590551,
                    "duration": 0.10344824999999958
                },
                {
                    "name": "F5",
                    "midi": 77,
                    "time": 27.086200124999905,
                    "velocity": 0.8031496062992126,
                    "duration": 0.10344824999999958
                },
                {
                    "name": "E5",
                    "midi": 76,
                    "time": 27.189648374999905,
                    "velocity": 0.7952755905511811,
                    "duration": 0.10344824999999958
                },
                {
                    "name": "F5",
                    "midi": 77,
                    "time": 27.293096624999905,
                    "velocity": 0.7637795275590551,
                    "duration": 0.10344824999999958
                },
                {
                    "name": "G5",
                    "midi": 79,
                    "time": 27.396544874999904,
                    "velocity": 0.7716535433070866,
                    "duration": 0.10344824999999958
                },
                {
                    "name": "A5",
                    "midi": 81,
                    "time": 27.499993124999904,
                    "velocity": 0.7007874015748031,
                    "duration": 0.10344824999999958
                },
                {
                    "name": "B5",
                    "midi": 83,
                    "time": 27.603441374999903,
                    "velocity": 0.7244094488188977,
                    "duration": 0.10344824999999958
                },
                {
                    "name": "C6",
                    "midi": 84,
                    "time": 27.706889624999903,
                    "velocity": 0.7716535433070866,
                    "duration": 0.10344824999999958
                },
                {
                    "name": "B5",
                    "midi": 83,
                    "time": 27.810337874999902,
                    "velocity": 0.8110236220472441,
                    "duration": 0.10344824999999958
                },
                {
                    "name": "C6",
                    "midi": 84,
                    "time": 27.913786124999902,
                    "velocity": 0.7086614173228346,
                    "duration": 0.10344824999999958
                },
                {
                    "name": "B5",
                    "midi": 83,
                    "time": 28.0172343749999,
                    "velocity": 0.7716535433070866,
                    "duration": 0.10344824999999958
                },
                {
                    "name": "D6",
                    "midi": 86,
                    "time": 28.1206826249999,
                    "velocity": 0.7244094488188977,
                    "duration": 0.10344824999999958
                },
                {
                    "name": "C6",
                    "midi": 84,
                    "time": 28.2241308749999,
                    "velocity": 0.8110236220472441,
                    "duration": 0.10344824999999958
                },
                {
                    "name": "B5",
                    "midi": 83,
                    "time": 28.3275791249999,
                    "velocity": 0.7086614173228346,
                    "duration": 0.10344824999999958
                },
                {
                    "name": "A5",
                    "midi": 81,
                    "time": 28.4310273749999,
                    "velocity": 0.7952755905511811,
                    "duration": 0.10344824999999958
                },
                {
                    "name": "G#5",
                    "midi": 80,
                    "time": 28.5344756249999,
                    "velocity": 0.8031496062992126,
                    "duration": 0.10344824999999958
                },
                {
                    "name": "A5",
                    "midi": 81,
                    "time": 28.6379238749999,
                    "velocity": 0.7401574803149606,
                    "duration": 0.10344824999999958
                },
                {
                    "name": "B5",
                    "midi": 83,
                    "time": 28.7413721249999,
                    "velocity": 0.7716535433070866,
                    "duration": 0.10344824999999958
                },
                {
                    "name": "A5",
                    "midi": 81,
                    "time": 28.844820374999898,
                    "velocity": 0.7637795275590551,
                    "duration": 0.10344824999999958
                },
                {
                    "name": "G#5",
                    "midi": 80,
                    "time": 28.948268624999898,
                    "velocity": 0.7165354330708661,
                    "duration": 0.10344824999999958
                },
                {
                    "name": "E5",
                    "midi": 76,
                    "time": 29.051716874999897,
                    "velocity": 0.8031496062992126,
                    "duration": 0.10344824999999958
                },
                {
                    "name": "F#5",
                    "midi": 78,
                    "time": 29.155165124999897,
                    "velocity": 0.7244094488188977,
                    "duration": 0.10344824999999958
                },
                {
                    "name": "G#5",
                    "midi": 80,
                    "time": 29.258613374999896,
                    "velocity": 0.7874015748031497,
                    "duration": 0.10344824999999958
                },
                {
                    "name": "A5",
                    "midi": 81,
                    "time": 29.362061624999896,
                    "velocity": 0.7086614173228346,
                    "duration": 0.10344824999999958
                },
                {
                    "name": "B5",
                    "midi": 83,
                    "time": 29.465509874999896,
                    "velocity": 0.7637795275590551,
                    "duration": 0.10344824999999958
                },
                {
                    "name": "C6",
                    "midi": 84,
                    "time": 29.568958124999895,
                    "velocity": 0.7559055118110236,
                    "duration": 0.10344824999999958
                },
                {
                    "name": "B5",
                    "midi": 83,
                    "time": 29.672406374999895,
                    "velocity": 0.7874015748031497,
                    "duration": 0.10344824999999958
                },
                {
                    "name": "C6",
                    "midi": 84,
                    "time": 29.775854624999894,
                    "velocity": 0.7795275590551181,
                    "duration": 0.10344824999999958
                },
                {
                    "name": "B5",
                    "midi": 83,
                    "time": 29.879302874999894,
                    "velocity": 0.7559055118110236,
                    "duration": 0.10344824999999958
                },
                {
                    "name": "A5",
                    "midi": 81,
                    "time": 29.982751124999893,
                    "velocity": 0.7716535433070866,
                    "duration": 0.10344824999999958
                },
                {
                    "name": "G5",
                    "midi": 79,
                    "time": 30.086199374999893,
                    "velocity": 0.7559055118110236,
                    "duration": 0.10344824999999958
                },
                {
                    "name": "F#5",
                    "midi": 78,
                    "time": 30.189647624999893,
                    "velocity": 0.8031496062992126,
                    "duration": 0.10344824999999958
                },
                {
                    "name": "G5",
                    "midi": 79,
                    "time": 30.293095874999892,
                    "velocity": 0.7637795275590551,
                    "duration": 0.10344824999999958
                },
                {
                    "name": "A5",
                    "midi": 81,
                    "time": 30.396544124999892,
                    "velocity": 0.7637795275590551,
                    "duration": 0.10344824999999958
                },
                {
                    "name": "G5",
                    "midi": 79,
                    "time": 30.49999237499989,
                    "velocity": 0.7165354330708661,
                    "duration": 0.10344824999999958
                },
                {
                    "name": "F#5",
                    "midi": 78,
                    "time": 30.60344062499989,
                    "velocity": 0.8110236220472441,
                    "duration": 0.10344824999999958
                },
                {
                    "name": "D5",
                    "midi": 74,
                    "time": 30.70688887499989,
                    "velocity": 0.7637795275590551,
                    "duration": 0.10344824999999958
                },
                {
                    "name": "E5",
                    "midi": 76,
                    "time": 30.81033712499989,
                    "velocity": 0.7559055118110236,
                    "duration": 0.10344824999999958
                },
                {
                    "name": "F#5",
                    "midi": 78,
                    "time": 30.91378537499989,
                    "velocity": 0.8110236220472441,
                    "duration": 0.10344824999999958
                },
                {
                    "name": "G5",
                    "midi": 79,
                    "time": 31.01723362499989,
                    "velocity": 0.7637795275590551,
                    "duration": 0.10344824999999958
                },
                {
                    "name": "F#5",
                    "midi": 78,
                    "time": 31.12068187499989,
                    "velocity": 0.7559055118110236,
                    "duration": 0.10344824999999958
                },
                {
                    "name": "G5",
                    "midi": 79,
                    "time": 31.22413012499989,
                    "velocity": 0.7952755905511811,
                    "duration": 0.10344824999999958
                },
                {
                    "name": "A5",
                    "midi": 81,
                    "time": 31.327578374999888,
                    "velocity": 0.7165354330708661,
                    "duration": 0.10344824999999958
                },
                {
                    "name": "B5",
                    "midi": 83,
                    "time": 31.431026624999888,
                    "velocity": 0.7716535433070866,
                    "duration": 0.10344824999999958
                },
                {
                    "name": "A5",
                    "midi": 81,
                    "time": 31.534474874999887,
                    "velocity": 0.7086614173228346,
                    "duration": 0.10344824999999958
                },
                {
                    "name": "G5",
                    "midi": 79,
                    "time": 31.637923124999887,
                    "velocity": 0.7401574803149606,
                    "duration": 0.10344824999999958
                },
                {
                    "name": "F#5",
                    "midi": 78,
                    "time": 31.741371374999886,
                    "velocity": 0.7480314960629921,
                    "duration": 0.10344824999999958
                },
                {
                    "name": "G5",
                    "midi": 79,
                    "time": 31.844819624999886,
                    "velocity": 0.7165354330708661,
                    "duration": 0.10344824999999958
                },
                {
                    "name": "F#5",
                    "midi": 78,
                    "time": 31.948267874999885,
                    "velocity": 0.7874015748031497,
                    "duration": 0.10344824999999958
                },
                {
                    "name": "E5",
                    "midi": 76,
                    "time": 32.051716124999885,
                    "velocity": 0.7480314960629921,
                    "duration": 0.10344824999999958
                },
                {
                    "name": "D#5",
                    "midi": 75,
                    "time": 32.155164374999885,
                    "velocity": 0.7401574803149606,
                    "duration": 0.10344824999999958
                },
                {
                    "name": "E5",
                    "midi": 76,
                    "time": 32.258612624999884,
                    "velocity": 0.7322834645669292,
                    "duration": 0.10344824999999958
                },
                {
                    "name": "F#5",
                    "midi": 78,
                    "time": 32.362060874999884,
                    "velocity": 0.7795275590551181,
                    "duration": 0.10344824999999958
                },
                {
                    "name": "G5",
                    "midi": 79,
                    "time": 32.46550912499988,
                    "velocity": 0.7637795275590551,
                    "duration": 0.10344824999999958
                },
                {
                    "name": "F#5",
                    "midi": 78,
                    "time": 32.56895737499988,
                    "velocity": 0.7401574803149606,
                    "duration": 0.10344824999999958
                },
                {
                    "name": "A5",
                    "midi": 81,
                    "time": 32.67240562499988,
                    "velocity": 0.7874015748031497,
                    "duration": 0.10344824999999958
                },
                {
                    "name": "G#5",
                    "midi": 80,
                    "time": 32.77585387499988,
                    "velocity": 0.7401574803149606,
                    "duration": 0.10344824999999958
                },
                {
                    "name": "F#5",
                    "midi": 78,
                    "time": 32.87930212499988,
                    "velocity": 0.7795275590551181,
                    "duration": 0.10344824999999958
                },
                {
                    "name": "E5",
                    "midi": 76,
                    "time": 32.98275037499988,
                    "velocity": 0.7165354330708661,
                    "duration": 0.10344824999999958
                },
                {
                    "name": "D5",
                    "midi": 74,
                    "time": 33.08619862499988,
                    "velocity": 0.7244094488188977,
                    "duration": 0.10344824999999958
                },
                {
                    "name": "C#5",
                    "midi": 73,
                    "time": 33.18964687499988,
                    "velocity": 0.7795275590551181,
                    "duration": 0.10344824999999958
                },
                {
                    "name": "B4",
                    "midi": 71,
                    "time": 33.29309512499988,
                    "velocity": 0.7952755905511811,
                    "duration": 0.10344824999999958
                },
                {
                    "name": "C#5",
                    "midi": 73,
                    "time": 33.39654337499988,
                    "velocity": 0.7401574803149606,
                    "duration": 0.10344824999999958
                },
                {
                    "name": "D5",
                    "midi": 74,
                    "time": 33.49999162499988,
                    "velocity": 0.7952755905511811,
                    "duration": 0.10344824999999958
                },
                {
                    "name": "D4",
                    "midi": 62,
                    "time": 33.60343987499988,
                    "velocity": 0.7244094488188977,
                    "duration": 0.10344824999999958
                },
                {
                    "name": "E4",
                    "midi": 64,
                    "time": 33.70688812499988,
                    "velocity": 0.8110236220472441,
                    "duration": 0.10344824999999958
                },
                {
                    "name": "F#4",
                    "midi": 66,
                    "time": 33.81033637499988,
                    "velocity": 0.7322834645669292,
                    "duration": 0.10344824999999958
                },
                {
                    "name": "G4",
                    "midi": 67,
                    "time": 33.91378462499988,
                    "velocity": 0.7874015748031497,
                    "duration": 0.10344824999999958
                },
                {
                    "name": "A4",
                    "midi": 69,
                    "time": 34.01723287499988,
                    "velocity": 0.7637795275590551,
                    "duration": 0.10344824999999958
                },
                {
                    "name": "B4",
                    "midi": 71,
                    "time": 34.12068112499988,
                    "velocity": 0.7874015748031497,
                    "duration": 0.10344824999999958
                },
                {
                    "name": "C#5",
                    "midi": 73,
                    "time": 34.224129374999876,
                    "velocity": 0.7952755905511811,
                    "duration": 0.10344824999999958
                },
                {
                    "name": "D5",
                    "midi": 74,
                    "time": 34.327577624999876,
                    "velocity": 0.7086614173228346,
                    "duration": 0.10344824999999958
                },
                {
                    "name": "E5",
                    "midi": 76,
                    "time": 34.431025874999875,
                    "velocity": 0.7322834645669292,
                    "duration": 0.10344824999999958
                },
                {
                    "name": "F#5",
                    "midi": 78,
                    "time": 34.534474124999875,
                    "velocity": 0.7480314960629921,
                    "duration": 0.10344824999999958
                },
                {
                    "name": "G5",
                    "midi": 79,
                    "time": 34.637922374999874,
                    "velocity": 0.7322834645669292,
                    "duration": 0.10344824999999958
                },
                {
                    "name": "A5",
                    "midi": 81,
                    "time": 34.741370624999874,
                    "velocity": 0.7244094488188977,
                    "duration": 0.10344824999999958
                },
                {
                    "name": "B5",
                    "midi": 83,
                    "time": 34.84481887499987,
                    "velocity": 0.7007874015748031,
                    "duration": 0.10344824999999958
                },
                {
                    "name": "C6",
                    "midi": 84,
                    "time": 34.94826712499987,
                    "velocity": 0.7086614173228346,
                    "duration": 0.10344824999999958
                },
                {
                    "name": "D6",
                    "midi": 86,
                    "time": 35.05171537499987,
                    "velocity": 0.7952755905511811,
                    "duration": 0.10344824999999958
                },
                {
                    "name": "C6",
                    "midi": 84,
                    "time": 35.15516362499987,
                    "velocity": 0.7874015748031497,
                    "duration": 0.10344824999999958
                },
                {
                    "name": "B5",
                    "midi": 83,
                    "time": 35.25861187499987,
                    "velocity": 0.7874015748031497,
                    "duration": 0.10344824999999958
                },
                {
                    "name": "D6",
                    "midi": 86,
                    "time": 35.36206012499987,
                    "velocity": 0.7007874015748031,
                    "duration": 0.10344824999999958
                },
                {
                    "name": "B5",
                    "midi": 83,
                    "time": 35.46550837499987,
                    "velocity": 0.7086614173228346,
                    "duration": 0.10344824999999958
                },
                {
                    "name": "A5",
                    "midi": 81,
                    "time": 35.56895662499987,
                    "velocity": 0.7480314960629921,
                    "duration": 0.10344824999999958
                },
                {
                    "name": "G5",
                    "midi": 79,
                    "time": 35.67240487499987,
                    "velocity": 0.7952755905511811,
                    "duration": 0.10344824999999958
                },
                {
                    "name": "B5",
                    "midi": 83,
                    "time": 35.77585312499987,
                    "velocity": 0.7795275590551181,
                    "duration": 0.10344824999999958
                },
                {
                    "name": "G5",
                    "midi": 79,
                    "time": 35.87930137499987,
                    "velocity": 0.7401574803149606,
                    "duration": 0.10344824999999958
                },
                {
                    "name": "F#5",
                    "midi": 78,
                    "time": 35.98274962499987,
                    "velocity": 0.7637795275590551,
                    "duration": 0.10344824999999958
                },
                {
                    "name": "E5",
                    "midi": 76,
                    "time": 36.08619787499987,
                    "velocity": 0.7007874015748031,
                    "duration": 0.10344824999999958
                },
                {
                    "name": "G5",
                    "midi": 79,
                    "time": 36.18964612499987,
                    "velocity": 0.8031496062992126,
                    "duration": 0.10344824999999958
                },
                {
                    "name": "E5",
                    "midi": 76,
                    "time": 36.29309437499987,
                    "velocity": 0.8031496062992126,
                    "duration": 0.10344824999999958
                },
                {
                    "name": "D5",
                    "midi": 74,
                    "time": 36.39654262499987,
                    "velocity": 0.7244094488188977,
                    "duration": 0.10344824999999958
                },
                {
                    "name": "C#5",
                    "midi": 73,
                    "time": 36.49999087499987,
                    "velocity": 0.7401574803149606,
                    "duration": 0.10344824999999958
                },
                {
                    "name": "E5",
                    "midi": 76,
                    "time": 36.603439124999866,
                    "velocity": 0.8031496062992126,
                    "duration": 0.10344824999999958
                },
                {
                    "name": "C#5",
                    "midi": 73,
                    "time": 36.706887374999866,
                    "velocity": 0.7401574803149606,
                    "duration": 0.10344824999999958
                },
                {
                    "name": "D5",
                    "midi": 74,
                    "time": 36.810335624999865,
                    "velocity": 0.7244094488188977,
                    "duration": 0.10344824999999958
                },
                {
                    "name": "D4",
                    "midi": 62,
                    "time": 36.913783874999865,
                    "velocity": 0.7874015748031497,
                    "duration": 0.10344824999999958
                },
                {
                    "name": "E4",
                    "midi": 64,
                    "time": 37.017232124999865,
                    "velocity": 0.7795275590551181,
                    "duration": 0.10344824999999958
                },
                {
                    "name": "F#4",
                    "midi": 66,
                    "time": 37.120680374999864,
                    "velocity": 0.7165354330708661,
                    "duration": 0.10344824999999958
                },
                {
                    "name": "G4",
                    "midi": 67,
                    "time": 37.224128624999864,
                    "velocity": 0.7322834645669292,
                    "duration": 0.10344824999999958
                },
                {
                    "name": "A4",
                    "midi": 69,
                    "time": 37.32757687499986,
                    "velocity": 0.7007874015748031,
                    "duration": 0.10344824999999958
                },
                {
                    "name": "B4",
                    "midi": 71,
                    "time": 37.43102512499986,
                    "velocity": 0.8031496062992126,
                    "duration": 0.10344824999999958
                },
                {
                    "name": "C#5",
                    "midi": 73,
                    "time": 37.53447337499986,
                    "velocity": 0.8110236220472441,
                    "duration": 0.10344824999999958
                },
                {
                    "name": "D5",
                    "midi": 74,
                    "time": 37.63792162499986,
                    "velocity": 0.7401574803149606,
                    "duration": 0.10344824999999958
                },
                {
                    "name": "E5",
                    "midi": 76,
                    "time": 37.74136987499986,
                    "velocity": 0.7874015748031497,
                    "duration": 0.10344824999999958
                },
                {
                    "name": "F#5",
                    "midi": 78,
                    "time": 37.84481812499986,
                    "velocity": 0.7086614173228346,
                    "duration": 0.10344824999999958
                },
                {
                    "name": "G5",
                    "midi": 79,
                    "time": 37.94826637499986,
                    "velocity": 0.7165354330708661,
                    "duration": 0.10344824999999958
                },
                {
                    "name": "A5",
                    "midi": 81,
                    "time": 38.05171462499986,
                    "velocity": 0.7007874015748031,
                    "duration": 0.10344824999999958
                },
                {
                    "name": "F#5",
                    "midi": 78,
                    "time": 38.15516287499986,
                    "velocity": 0.7716535433070866,
                    "duration": 0.10344824999999958
                },
                {
                    "name": "D5",
                    "midi": 74,
                    "time": 38.25861112499986,
                    "velocity": 0.7874015748031497,
                    "duration": 0.10344824999999958
                },
                {
                    "name": "C5",
                    "midi": 72,
                    "time": 38.36205937499986,
                    "velocity": 0.7086614173228346,
                    "duration": 0.10344824999999958
                },
                {
                    "name": "C5",
                    "midi": 72,
                    "time": 38.46550762499986,
                    "velocity": 0.7716535433070866,
                    "duration": 0.10344824999999958
                },
                {
                    "name": "B4",
                    "midi": 71,
                    "time": 38.56895587499986,
                    "velocity": 0.8110236220472441,
                    "duration": 0.10344824999999958
                },
                {
                    "name": "D5",
                    "midi": 74,
                    "time": 38.67240412499986,
                    "velocity": 0.7716535433070866,
                    "duration": 0.10344824999999958
                },
                {
                    "name": "B4",
                    "midi": 71,
                    "time": 38.77585237499986,
                    "velocity": 0.7795275590551181,
                    "duration": 0.10344824999999958
                },
                {
                    "name": "A4",
                    "midi": 69,
                    "time": 38.87930062499986,
                    "velocity": 0.7952755905511811,
                    "duration": 0.10344824999999958
                },
                {
                    "name": "G4",
                    "midi": 67,
                    "time": 38.98274887499986,
                    "velocity": 0.7952755905511811,
                    "duration": 0.10344824999999958
                },
                {
                    "name": "B4",
                    "midi": 71,
                    "time": 39.086197124999856,
                    "velocity": 0.7874015748031497,
                    "duration": 0.10344824999999958
                },
                {
                    "name": "G4",
                    "midi": 67,
                    "time": 39.189645374999856,
                    "velocity": 0.7795275590551181,
                    "duration": 0.10344824999999958
                },
                {
                    "name": "F#4",
                    "midi": 66,
                    "time": 39.293093624999855,
                    "velocity": 0.7637795275590551,
                    "duration": 0.10344824999999958
                },
                {
                    "name": "E4",
                    "midi": 64,
                    "time": 39.396541874999855,
                    "velocity": 0.7086614173228346,
                    "duration": 0.10344824999999958
                },
                {
                    "name": "G4",
                    "midi": 67,
                    "time": 39.499990124999854,
                    "velocity": 0.7952755905511811,
                    "duration": 0.10344824999999958
                },
                {
                    "name": "E4",
                    "midi": 64,
                    "time": 39.603438374999854,
                    "velocity": 0.7952755905511811,
                    "duration": 0.10344824999999958
                },
                {
                    "name": "D4",
                    "midi": 62,
                    "time": 39.70688662499985,
                    "velocity": 0.7322834645669292,
                    "duration": 0.10344824999999958
                },
                {
                    "name": "C#4",
                    "midi": 61,
                    "time": 39.81033487499985,
                    "velocity": 0.7322834645669292,
                    "duration": 0.10344824999999958
                },
                {
                    "name": "E4",
                    "midi": 64,
                    "time": 39.91378312499985,
                    "velocity": 0.7086614173228346,
                    "duration": 0.10344824999999958
                },
                {
                    "name": "C#4",
                    "midi": 61,
                    "time": 40.01723137499985,
                    "velocity": 0.7165354330708661,
                    "duration": 0.10344824999999958
                },
                {
                    "name": "D4",
                    "midi": 62,
                    "time": 40.12067962499985,
                    "velocity": 0.8110236220472441,
                    "duration": 0.10344824999999958
                },
                {
                    "name": "F#4",
                    "midi": 66,
                    "time": 40.22412787499985,
                    "velocity": 0.7559055118110236,
                    "duration": 0.10344824999999958
                },
                {
                    "name": "A4",
                    "midi": 69,
                    "time": 40.32757612499985,
                    "velocity": 0.7165354330708661,
                    "duration": 0.10344824999999958
                },
                {
                    "name": "D5",
                    "midi": 74,
                    "time": 40.43102437499985,
                    "velocity": 0.7165354330708661,
                    "duration": 0.10344824999999958
                },
                {
                    "name": "C#5",
                    "midi": 73,
                    "time": 40.53447262499985,
                    "velocity": 0.7952755905511811,
                    "duration": 0.10344824999999958
                },
                {
                    "name": "E5",
                    "midi": 76,
                    "time": 40.63792087499985,
                    "velocity": 0.7007874015748031,
                    "duration": 0.10344824999999958
                },
                {
                    "name": "A5",
                    "midi": 81,
                    "time": 40.74136912499985,
                    "velocity": 0.7795275590551181,
                    "duration": 0.10344824999999958
                },
                {
                    "name": "G5",
                    "midi": 79,
                    "time": 40.84481737499985,
                    "velocity": 0.7716535433070866,
                    "duration": 0.10344824999999958
                },
                {
                    "name": "F#5",
                    "midi": 78,
                    "time": 40.94826562499985,
                    "velocity": 0.8110236220472441,
                    "duration": 0.10344824999999958
                },
                {
                    "name": "A5",
                    "midi": 81,
                    "time": 41.05171387499985,
                    "velocity": 0.8110236220472441,
                    "duration": 0.10344824999999958
                },
                {
                    "name": "F#5",
                    "midi": 78,
                    "time": 41.15516212499985,
                    "velocity": 0.7480314960629921,
                    "duration": 0.10344824999999958
                },
                {
                    "name": "D5",
                    "midi": 74,
                    "time": 41.25861037499985,
                    "velocity": 0.7716535433070866,
                    "duration": 0.10344824999999958
                },
                {
                    "name": "C#5",
                    "midi": 73,
                    "time": 41.36205862499985,
                    "velocity": 0.7480314960629921,
                    "duration": 0.10344824999999958
                },
                {
                    "name": "A4",
                    "midi": 69,
                    "time": 41.465506874999846,
                    "velocity": 0.7322834645669292,
                    "duration": 0.10344824999999958
                },
                {
                    "name": "G4",
                    "midi": 67,
                    "time": 41.568955124999846,
                    "velocity": 0.7874015748031497,
                    "duration": 0.10344824999999958
                },
                {
                    "name": "E4",
                    "midi": 64,
                    "time": 41.672403374999845,
                    "velocity": 0.7086614173228346,
                    "duration": 0.10344824999999958
                },
                {
                    "name": "D4",
                    "midi": 62,
                    "time": 41.775851624999845,
                    "velocity": 0.7952755905511811,
                    "duration": 0.10344824999999958
                },
                {
                    "name": "F#4",
                    "midi": 66,
                    "time": 41.879299874999845,
                    "velocity": 0.8031496062992126,
                    "duration": 0.10344824999999958
                },
                {
                    "name": "A4",
                    "midi": 69,
                    "time": 41.982748124999844,
                    "velocity": 0.7401574803149606,
                    "duration": 0.10344824999999958
                },
                {
                    "name": "D5",
                    "midi": 74,
                    "time": 42.086196374999844,
                    "velocity": 0.7716535433070866,
                    "duration": 0.10344824999999958
                },
                {
                    "name": "C#5",
                    "midi": 73,
                    "time": 42.18964462499984,
                    "velocity": 0.7244094488188977,
                    "duration": 0.10344824999999958
                },
                {
                    "name": "E5",
                    "midi": 76,
                    "time": 42.29309287499984,
                    "velocity": 0.7165354330708661,
                    "duration": 0.10344824999999958
                },
                {
                    "name": "A5",
                    "midi": 81,
                    "time": 42.39654112499984,
                    "velocity": 0.7559055118110236,
                    "duration": 0.10344824999999958
                },
                {
                    "name": "G5",
                    "midi": 79,
                    "time": 42.49998937499984,
                    "velocity": 0.7716535433070866,
                    "duration": 0.10344824999999958
                },
                {
                    "name": "F#5",
                    "midi": 78,
                    "time": 42.60343762499984,
                    "velocity": 0.7480314960629921,
                    "duration": 0.10344824999999958
                },
                {
                    "name": "A5",
                    "midi": 81,
                    "time": 42.70688587499984,
                    "velocity": 0.7637795275590551,
                    "duration": 0.10344824999999958
                },
                {
                    "name": "F#5",
                    "midi": 78,
                    "time": 42.81033412499984,
                    "velocity": 0.7480314960629921,
                    "duration": 0.10344824999999958
                },
                {
                    "name": "D5",
                    "midi": 74,
                    "time": 42.91378237499984,
                    "velocity": 0.7637795275590551,
                    "duration": 0.10344824999999958
                },
                {
                    "name": "C#5",
                    "midi": 73,
                    "time": 43.01723062499984,
                    "velocity": 0.7086614173228346,
                    "duration": 0.10344824999999958
                },
                {
                    "name": "A4",
                    "midi": 69,
                    "time": 43.12067887499984,
                    "velocity": 0.8110236220472441,
                    "duration": 0.10344824999999958
                },
                {
                    "name": "G4",
                    "midi": 67,
                    "time": 43.22412712499984,
                    "velocity": 0.7874015748031497,
                    "duration": 0.10344824999999958
                },
                {
                    "name": "E4",
                    "midi": 64,
                    "time": 43.32757537499984,
                    "velocity": 0.7322834645669292,
                    "duration": 0.10344824999999958
                },
                {
                    "name": "D4",
                    "midi": 62,
                    "time": 43.43102362499984,
                    "velocity": 0.7795275590551181,
                    "duration": 0.10344824999999958
                },
                {
                    "name": "F#4",
                    "midi": 66,
                    "time": 43.53447187499984,
                    "velocity": 0.8031496062992126,
                    "duration": 0.10344824999999958
                },
                {
                    "name": "A4",
                    "midi": 69,
                    "time": 43.63792012499984,
                    "velocity": 0.7637795275590551,
                    "duration": 0.10344824999999958
                },
                {
                    "name": "D5",
                    "midi": 74,
                    "time": 43.74136837499984,
                    "velocity": 0.7244094488188977,
                    "duration": 0.10344824999999958
                },
                {
                    "name": "F#5",
                    "midi": 78,
                    "time": 43.84481662499984,
                    "velocity": 0.7559055118110236,
                    "duration": 0.10344824999999958
                },
                {
                    "name": "A5",
                    "midi": 81,
                    "time": 43.948264874999836,
                    "velocity": 0.7795275590551181,
                    "duration": 0.10344824999999958
                },
                {
                    "name": "C#6",
                    "midi": 85,
                    "time": 44.051713124999836,
                    "velocity": 0.7401574803149606,
                    "duration": 0.10344824999999958
                },
                {
                    "name": "D6",
                    "midi": 86,
                    "time": 44.155161374999835,
                    "velocity": 0.7480314960629921,
                    "duration": 0.10344824999999958
                },
                {
                    "name": "C6",
                    "midi": 84,
                    "time": 44.258609624999835,
                    "velocity": 0.7007874015748031,
                    "duration": 0.10344824999999958
                },
                {
                    "name": "B5",
                    "midi": 83,
                    "time": 44.362057874999834,
                    "velocity": 0.7480314960629921,
                    "duration": 0.10344824999999958
                },
                {
                    "name": "A5",
                    "midi": 81,
                    "time": 44.465506124999834,
                    "velocity": 0.7322834645669292,
                    "duration": 0.10344824999999958
                },
                {
                    "name": "G5",
                    "midi": 79,
                    "time": 44.568954374999834,
                    "velocity": 0.7716535433070866,
                    "duration": 0.10344824999999958
                },
                {
                    "name": "F#5",
                    "midi": 78,
                    "time": 44.67240262499983,
                    "velocity": 0.7007874015748031,
                    "duration": 0.10344824999999958
                },
                {
                    "name": "E5",
                    "midi": 76,
                    "time": 44.77585087499983,
                    "velocity": 0.7952755905511811,
                    "duration": 0.10344824999999958
                },
                {
                    "name": "D5",
                    "midi": 74,
                    "time": 44.87929912499983,
                    "velocity": 0.8031496062992126,
                    "duration": 0.10344824999999958
                },
                {
                    "name": "C5",
                    "midi": 72,
                    "time": 44.98274737499983,
                    "velocity": 0.7480314960629921,
                    "duration": 0.10344824999999958
                },
                {
                    "name": "B4",
                    "midi": 71,
                    "time": 45.08619562499983,
                    "velocity": 0.7244094488188977,
                    "duration": 0.10344824999999958
                },
                {
                    "name": "C5",
                    "midi": 72,
                    "time": 45.18964387499983,
                    "velocity": 0.7401574803149606,
                    "duration": 0.10344824999999958
                },
                {
                    "name": "D5",
                    "midi": 74,
                    "time": 45.29309212499983,
                    "velocity": 0.7244094488188977,
                    "duration": 0.10344824999999958
                },
                {
                    "name": "E5",
                    "midi": 76,
                    "time": 45.39654037499983,
                    "velocity": 0.7795275590551181,
                    "duration": 0.10344824999999958
                },
                {
                    "name": "F#5",
                    "midi": 78,
                    "time": 45.49998862499983,
                    "velocity": 0.7480314960629921,
                    "duration": 0.10344824999999958
                },
                {
                    "name": "G5",
                    "midi": 79,
                    "time": 45.60343687499983,
                    "velocity": 0.8110236220472441,
                    "duration": 0.10344824999999958
                },
                {
                    "name": "A5",
                    "midi": 81,
                    "time": 45.70688512499983,
                    "velocity": 0.7322834645669292,
                    "duration": 0.10344824999999958
                },
                {
                    "name": "B5",
                    "midi": 83,
                    "time": 45.81033337499983,
                    "velocity": 0.7637795275590551,
                    "duration": 0.10344824999999958
                },
                {
                    "name": "A5",
                    "midi": 81,
                    "time": 45.91378162499983,
                    "velocity": 0.7480314960629921,
                    "duration": 0.10344824999999958
                },
                {
                    "name": "G5",
                    "midi": 79,
                    "time": 46.01722987499983,
                    "velocity": 0.7165354330708661,
                    "duration": 0.10344824999999958
                },
                {
                    "name": "F#5",
                    "midi": 78,
                    "time": 46.12067812499983,
                    "velocity": 0.7244094488188977,
                    "duration": 0.10344824999999958
                },
                {
                    "name": "E5",
                    "midi": 76,
                    "time": 46.22412637499983,
                    "velocity": 0.8031496062992126,
                    "duration": 0.10344824999999958
                },
                {
                    "name": "D#5",
                    "midi": 75,
                    "time": 46.327574624999826,
                    "velocity": 0.7874015748031497,
                    "duration": 0.10344824999999958
                },
                {
                    "name": "C5",
                    "midi": 72,
                    "time": 46.431022874999826,
                    "velocity": 0.7952755905511811,
                    "duration": 0.10344824999999958
                },
                {
                    "name": "B4",
                    "midi": 71,
                    "time": 46.534471124999826,
                    "velocity": 0.7559055118110236,
                    "duration": 0.10344824999999958
                },
                {
                    "name": "A4",
                    "midi": 69,
                    "time": 46.637919374999825,
                    "velocity": 0.8031496062992126,
                    "duration": 0.10344824999999958
                },
                {
                    "name": "G4",
                    "midi": 67,
                    "time": 46.741367624999825,
                    "velocity": 0.7322834645669292,
                    "duration": 0.10344824999999958
                },
                {
                    "name": "A4",
                    "midi": 69,
                    "time": 46.844815874999824,
                    "velocity": 0.7480314960629921,
                    "duration": 0.10344824999999958
                },
                {
                    "name": "B4",
                    "midi": 71,
                    "time": 46.948264124999824,
                    "velocity": 0.7322834645669292,
                    "duration": 0.10344824999999958
                },
                {
                    "name": "C#5",
                    "midi": 73,
                    "time": 47.05171237499982,
                    "velocity": 0.7795275590551181,
                    "duration": 0.10344824999999958
                },
                {
                    "name": "D#5",
                    "midi": 75,
                    "time": 47.15516062499982,
                    "velocity": 0.8110236220472441,
                    "duration": 0.10344824999999958
                },
                {
                    "name": "E5",
                    "midi": 76,
                    "time": 47.25860887499982,
                    "velocity": 0.8110236220472441,
                    "duration": 0.10344824999999958
                },
                {
                    "name": "F#5",
                    "midi": 78,
                    "time": 47.36205712499982,
                    "velocity": 0.7007874015748031,
                    "duration": 0.10344824999999958
                },
                {
                    "name": "G5",
                    "midi": 79,
                    "time": 47.46550537499982,
                    "velocity": 0.7244094488188977,
                    "duration": 0.10344824999999958
                },
                {
                    "name": "F5",
                    "midi": 77,
                    "time": 47.56895362499982,
                    "velocity": 0.7480314960629921,
                    "duration": 0.10344824999999958
                },
                {
                    "name": "E5",
                    "midi": 76,
                    "time": 47.67240187499982,
                    "velocity": 0.7559055118110236,
                    "duration": 0.10344824999999958
                },
                {
                    "name": "D5",
                    "midi": 74,
                    "time": 47.77585012499982,
                    "velocity": 0.7322834645669292,
                    "duration": 0.10344824999999958
                },
                {
                    "name": "C5",
                    "midi": 72,
                    "time": 47.87929837499982,
                    "velocity": 0.7165354330708661,
                    "duration": 0.10344824999999958
                },
                {
                    "name": "B4",
                    "midi": 71,
                    "time": 47.98274662499982,
                    "velocity": 0.8110236220472441,
                    "duration": 0.10344824999999958
                },
                {
                    "name": "A4",
                    "midi": 69,
                    "time": 48.08619487499982,
                    "velocity": 0.7165354330708661,
                    "duration": 0.10344824999999958
                },
                {
                    "name": "G4",
                    "midi": 67,
                    "time": 48.18964312499982,
                    "velocity": 0.7007874015748031,
                    "duration": 0.10344824999999958
                },
                {
                    "name": "F4",
                    "midi": 65,
                    "time": 48.29309137499982,
                    "velocity": 0.7401574803149606,
                    "duration": 0.10344824999999958
                },
                {
                    "name": "E4",
                    "midi": 64,
                    "time": 48.39653962499982,
                    "velocity": 0.7007874015748031,
                    "duration": 0.10344824999999958
                },
                {
                    "name": "F#4",
                    "midi": 66,
                    "time": 48.49998787499982,
                    "velocity": 0.7244094488188977,
                    "duration": 0.10344824999999958
                },
                {
                    "name": "G4",
                    "midi": 67,
                    "time": 48.60343612499982,
                    "velocity": 0.7244094488188977,
                    "duration": 0.10344824999999958
                },
                {
                    "name": "A4",
                    "midi": 69,
                    "time": 48.70688437499982,
                    "velocity": 0.7322834645669292,
                    "duration": 0.10344824999999958
                },
                {
                    "name": "B4",
                    "midi": 71,
                    "time": 48.810332624999816,
                    "velocity": 0.7952755905511811,
                    "duration": 0.10344824999999958
                },
                {
                    "name": "C5",
                    "midi": 72,
                    "time": 48.913780874999816,
                    "velocity": 0.7401574803149606,
                    "duration": 0.10344824999999958
                },
                {
                    "name": "D5",
                    "midi": 74,
                    "time": 49.017229124999815,
                    "velocity": 0.7401574803149606,
                    "duration": 0.10344824999999958
                },
                {
                    "name": "E5",
                    "midi": 76,
                    "time": 49.120677374999815,
                    "velocity": 0.7165354330708661,
                    "duration": 0.10344824999999958
                },
                {
                    "name": "E5",
                    "midi": 76,
                    "time": 49.224125624999814,
                    "velocity": 0.7244094488188977,
                    "duration": 0.10344824999999958
                },
                {
                    "name": "D5",
                    "midi": 74,
                    "time": 49.327573874999814,
                    "velocity": 0.7244094488188977,
                    "duration": 0.10344824999999958
                },
                {
                    "name": "B4",
                    "midi": 71,
                    "time": 49.431022124999814,
                    "velocity": 0.8110236220472441,
                    "duration": 0.10344824999999958
                },
                {
                    "name": "D5",
                    "midi": 74,
                    "time": 49.53447037499981,
                    "velocity": 0.7559055118110236,
                    "duration": 0.10344824999999958
                },
                {
                    "name": "D5",
                    "midi": 74,
                    "time": 49.63791862499981,
                    "velocity": 0.7716535433070866,
                    "duration": 0.10344824999999958
                },
                {
                    "name": "C5",
                    "midi": 72,
                    "time": 49.74136687499981,
                    "velocity": 0.7007874015748031,
                    "duration": 0.10344824999999958
                },
                {
                    "name": "B4",
                    "midi": 71,
                    "time": 49.84481512499981,
                    "velocity": 0.8110236220472441,
                    "duration": 0.10344824999999958
                },
                {
                    "name": "A4",
                    "midi": 69,
                    "time": 49.94826337499981,
                    "velocity": 0.8110236220472441,
                    "duration": 0.10344824999999958
                },
                {
                    "name": "G4",
                    "midi": 67,
                    "time": 50.05171162499981,
                    "velocity": 0.7480314960629921,
                    "duration": 0.10344824999999958
                },
                {
                    "name": "D6",
                    "midi": 86,
                    "time": 50.15515987499981,
                    "velocity": 0.7952755905511811,
                    "duration": 0.10344824999999958
                },
                {
                    "name": "B5",
                    "midi": 83,
                    "time": 50.25860812499981,
                    "velocity": 0.7401574803149606,
                    "duration": 0.10344824999999958
                },
                {
                    "name": "A5",
                    "midi": 81,
                    "time": 50.36205637499981,
                    "velocity": 0.7559055118110236,
                    "duration": 0.10344824999999958
                },
                {
                    "name": "G#5",
                    "midi": 80,
                    "time": 50.46550462499981,
                    "velocity": 0.7007874015748031,
                    "duration": 0.10344824999999958
                },
                {
                    "name": "B5",
                    "midi": 83,
                    "time": 50.56895287499981,
                    "velocity": 0.7637795275590551,
                    "duration": 0.10344824999999958
                },
                {
                    "name": "E5",
                    "midi": 76,
                    "time": 50.67240112499981,
                    "velocity": 0.7322834645669292,
                    "duration": 0.10344824999999958
                },
                {
                    "name": "G#5",
                    "midi": 80,
                    "time": 50.77584937499981,
                    "velocity": 0.8110236220472441,
                    "duration": 0.10344824999999958
                },
                {
                    "name": "A5",
                    "midi": 81,
                    "time": 50.87929762499981,
                    "velocity": 0.7480314960629921,
                    "duration": 0.10344824999999958
                },
                {
                    "name": "C6",
                    "midi": 84,
                    "time": 50.98274587499981,
                    "velocity": 0.7086614173228346,
                    "duration": 0.10344824999999958
                },
                {
                    "name": "A5",
                    "midi": 81,
                    "time": 51.08619412499981,
                    "velocity": 0.7086614173228346,
                    "duration": 0.10344824999999958
                },
                {
                    "name": "G5",
                    "midi": 79,
                    "time": 51.189642374999806,
                    "velocity": 0.7244094488188977,
                    "duration": 0.10344824999999958
                },
                {
                    "name": "F#5",
                    "midi": 78,
                    "time": 51.293090624999806,
                    "velocity": 0.7401574803149606,
                    "duration": 0.10344824999999958
                },
                {
                    "name": "A5",
                    "midi": 81,
                    "time": 51.396538874999806,
                    "velocity": 0.7874015748031497,
                    "duration": 0.10344824999999958
                },
                {
                    "name": "D5",
                    "midi": 74,
                    "time": 51.499987124999805,
                    "velocity": 0.7244094488188977,
                    "duration": 0.10344824999999958
                },
                {
                    "name": "F#5",
                    "midi": 78,
                    "time": 51.603435374999805,
                    "velocity": 0.8110236220472441,
                    "duration": 0.10344824999999958
                },
                {
                    "name": "G5",
                    "midi": 79,
                    "time": 51.706883624999804,
                    "velocity": 0.7244094488188977,
                    "duration": 0.10344824999999958
                },
                {
                    "name": "B5",
                    "midi": 83,
                    "time": 51.810331874999804,
                    "velocity": 0.7480314960629921,
                    "duration": 0.10344824999999958
                },
                {
                    "name": "G5",
                    "midi": 79,
                    "time": 51.9137801249998,
                    "velocity": 0.7086614173228346,
                    "duration": 0.10344824999999958
                },
                {
                    "name": "F#5",
                    "midi": 78,
                    "time": 52.0172283749998,
                    "velocity": 0.7401574803149606,
                    "duration": 0.10344824999999958
                },
                {
                    "name": "E5",
                    "midi": 76,
                    "time": 52.1206766249998,
                    "velocity": 0.7874015748031497,
                    "duration": 0.10344824999999958
                },
                {
                    "name": "G5",
                    "midi": 79,
                    "time": 52.2241248749998,
                    "velocity": 0.7401574803149606,
                    "duration": 0.10344824999999958
                },
                {
                    "name": "C5",
                    "midi": 72,
                    "time": 52.3275731249998,
                    "velocity": 0.7480314960629921,
                    "duration": 0.10344824999999958
                },
                {
                    "name": "E5",
                    "midi": 76,
                    "time": 52.4310213749998,
                    "velocity": 0.7480314960629921,
                    "duration": 0.10344824999999958
                },
                {
                    "name": "F#5",
                    "midi": 78,
                    "time": 52.5344696249998,
                    "velocity": 0.7165354330708661,
                    "duration": 0.10344824999999958
                },
                {
                    "name": "A5",
                    "midi": 81,
                    "time": 52.6379178749998,
                    "velocity": 0.7795275590551181,
                    "duration": 0.10344824999999958
                },
                {
                    "name": "F#5",
                    "midi": 78,
                    "time": 52.7413661249998,
                    "velocity": 0.7086614173228346,
                    "duration": 0.10344824999999958
                },
                {
                    "name": "E5",
                    "midi": 76,
                    "time": 52.8448143749998,
                    "velocity": 0.8110236220472441,
                    "duration": 0.10344824999999958
                },
                {
                    "name": "D#5",
                    "midi": 75,
                    "time": 52.9482626249998,
                    "velocity": 0.7401574803149606,
                    "duration": 0.10344824999999958
                },
                {
                    "name": "F#5",
                    "midi": 78,
                    "time": 53.0517108749998,
                    "velocity": 0.7952755905511811,
                    "duration": 0.10344824999999958
                },
                {
                    "name": "B4",
                    "midi": 71,
                    "time": 53.1551591249998,
                    "velocity": 0.7086614173228346,
                    "duration": 0.10344824999999958
                },
                {
                    "name": "D#5",
                    "midi": 75,
                    "time": 53.2586073749998,
                    "velocity": 0.7086614173228346,
                    "duration": 0.10344824999999958
                },
                {
                    "name": "E5",
                    "midi": 76,
                    "time": 53.3620556249998,
                    "velocity": 0.7165354330708661,
                    "duration": 0.10344824999999958
                },
                {
                    "name": "G5",
                    "midi": 79,
                    "time": 53.4655038749998,
                    "velocity": 0.7952755905511811,
                    "duration": 0.10344824999999958
                },
                {
                    "name": "E5",
                    "midi": 76,
                    "time": 53.5689521249998,
                    "velocity": 0.8110236220472441,
                    "duration": 0.10344824999999958
                },
                {
                    "name": "D5",
                    "midi": 74,
                    "time": 53.672400374999796,
                    "velocity": 0.8110236220472441,
                    "duration": 0.10344824999999958
                },
                {
                    "name": "C#5",
                    "midi": 73,
                    "time": 53.775848624999796,
                    "velocity": 0.7007874015748031,
                    "duration": 0.10344824999999958
                },
                {
                    "name": "E5",
                    "midi": 76,
                    "time": 53.879296874999795,
                    "velocity": 0.7165354330708661,
                    "duration": 0.10344824999999958
                },
                {
                    "name": "A4",
                    "midi": 69,
                    "time": 53.982745124999795,
                    "velocity": 0.7795275590551181,
                    "duration": 0.10344824999999958
                },
                {
                    "name": "C#5",
                    "midi": 73,
                    "time": 54.086193374999795,
                    "velocity": 0.7007874015748031,
                    "duration": 0.10344824999999958
                },
                {
                    "name": "D5",
                    "midi": 74,
                    "time": 54.189641624999794,
                    "velocity": 0.7874015748031497,
                    "duration": 0.10344824999999958
                },
                {
                    "name": "E5",
                    "midi": 76,
                    "time": 54.293089874999794,
                    "velocity": 0.7637795275590551,
                    "duration": 0.10344824999999958
                },
                {
                    "name": "F#5",
                    "midi": 78,
                    "time": 54.39653812499979,
                    "velocity": 0.7007874015748031,
                    "duration": 0.10344824999999958
                },
                {
                    "name": "G5",
                    "midi": 79,
                    "time": 54.49998637499979,
                    "velocity": 0.7716535433070866,
                    "duration": 0.10344824999999958
                },
                {
                    "name": "A5",
                    "midi": 81,
                    "time": 54.60343462499979,
                    "velocity": 0.8031496062992126,
                    "duration": 0.10344824999999958
                },
                {
                    "name": "B5",
                    "midi": 83,
                    "time": 54.70688287499979,
                    "velocity": 0.7559055118110236,
                    "duration": 0.10344824999999958
                },
                {
                    "name": "C6",
                    "midi": 84,
                    "time": 54.81033112499979,
                    "velocity": 0.7716535433070866,
                    "duration": 0.10344824999999958
                },
                {
                    "name": "D6",
                    "midi": 86,
                    "time": 54.91377937499979,
                    "velocity": 0.8110236220472441,
                    "duration": 0.10344824999999958
                },
                {
                    "name": "C6",
                    "midi": 84,
                    "time": 55.01722762499979,
                    "velocity": 0.7007874015748031,
                    "duration": 0.10344824999999958
                },
                {
                    "name": "B5",
                    "midi": 83,
                    "time": 55.12067587499979,
                    "velocity": 0.8110236220472441,
                    "duration": 0.10344824999999958
                },
                {
                    "name": "D6",
                    "midi": 86,
                    "time": 55.22412412499979,
                    "velocity": 0.7874015748031497,
                    "duration": 0.10344824999999958
                },
                {
                    "name": "B5",
                    "midi": 83,
                    "time": 55.32757237499979,
                    "velocity": 0.7244094488188977,
                    "duration": 0.10344824999999958
                },
                {
                    "name": "B5",
                    "midi": 83,
                    "time": 55.43102062499979,
                    "velocity": 0.7322834645669292,
                    "duration": 0.10344824999999958
                },
                {
                    "name": "A5",
                    "midi": 81,
                    "time": 55.53446887499979,
                    "velocity": 0.7795275590551181,
                    "duration": 0.10344824999999958
                },
                {
                    "name": "C6",
                    "midi": 84,
                    "time": 55.63791712499979,
                    "velocity": 0.8110236220472441,
                    "duration": 0.10344824999999958
                },
                {
                    "name": "A5",
                    "midi": 81,
                    "time": 55.74136537499979,
                    "velocity": 0.7480314960629921,
                    "duration": 0.10344824999999958
                },
                {
                    "name": "A5",
                    "midi": 81,
                    "time": 55.84481362499979,
                    "velocity": 0.7165354330708661,
                    "duration": 0.10344824999999958
                },
                {
                    "name": "G5",
                    "midi": 79,
                    "time": 55.94826187499979,
                    "velocity": 0.7007874015748031,
                    "duration": 0.10344824999999958
                },
                {
                    "name": "B5",
                    "midi": 83,
                    "time": 56.051710124999786,
                    "velocity": 0.7165354330708661,
                    "duration": 0.10344824999999958
                },
                {
                    "name": "G5",
                    "midi": 79,
                    "time": 56.155158374999786,
                    "velocity": 0.7007874015748031,
                    "duration": 0.10344824999999958
                },
                {
                    "name": "G5",
                    "midi": 79,
                    "time": 56.258606624999786,
                    "velocity": 0.7007874015748031,
                    "duration": 0.10344824999999958
                },
                {
                    "name": "F#5",
                    "midi": 78,
                    "time": 56.362054874999785,
                    "velocity": 0.8110236220472441,
                    "duration": 0.10344824999999958
                },
                {
                    "name": "A5",
                    "midi": 81,
                    "time": 56.465503124999785,
                    "velocity": 0.8031496062992126,
                    "duration": 0.10344824999999958
                },
                {
                    "name": "F#5",
                    "midi": 78,
                    "time": 56.568951374999784,
                    "velocity": 0.7795275590551181,
                    "duration": 0.10344824999999958
                },
                {
                    "name": "G5",
                    "midi": 79,
                    "time": 56.672399624999784,
                    "velocity": 0.7322834645669292,
                    "duration": 0.10344824999999958
                },
                {
                    "name": "D5",
                    "midi": 74,
                    "time": 56.77584787499978,
                    "velocity": 0.7322834645669292,
                    "duration": 0.10344824999999958
                },
                {
                    "name": "B4",
                    "midi": 71,
                    "time": 56.87929612499978,
                    "velocity": 0.7007874015748031,
                    "duration": 0.10344824999999958
                },
                {
                    "name": "A4",
                    "midi": 69,
                    "time": 56.98274437499978,
                    "velocity": 0.8031496062992126,
                    "duration": 0.10344824999999958
                },
                {
                    "name": "G#4",
                    "midi": 68,
                    "time": 57.08619262499978,
                    "velocity": 0.7244094488188977,
                    "duration": 0.10344824999999958
                },
                {
                    "name": "F5",
                    "midi": 77,
                    "time": 57.18964087499978,
                    "velocity": 0.7165354330708661,
                    "duration": 0.10344824999999958
                },
                {
                    "name": "E5",
                    "midi": 76,
                    "time": 57.29308912499978,
                    "velocity": 0.7086614173228346,
                    "duration": 0.10344824999999958
                },
                {
                    "name": "D5",
                    "midi": 74,
                    "time": 57.39653737499978,
                    "velocity": 0.7952755905511811,
                    "duration": 0.10344824999999958
                },
                {
                    "name": "C5",
                    "midi": 72,
                    "time": 57.49998562499978,
                    "velocity": 0.7952755905511811,
                    "duration": 0.10344824999999958
                },
                {
                    "name": "B4",
                    "midi": 71,
                    "time": 57.60343387499978,
                    "velocity": 0.7086614173228346,
                    "duration": 0.10344824999999958
                },
                {
                    "name": "A4",
                    "midi": 69,
                    "time": 57.70688212499978,
                    "velocity": 0.7874015748031497,
                    "duration": 0.10344824999999958
                },
                {
                    "name": "G4",
                    "midi": 67,
                    "time": 57.81033037499978,
                    "velocity": 0.7401574803149606,
                    "duration": 0.10344824999999958
                },
                {
                    "name": "F#4",
                    "midi": 66,
                    "time": 57.91377862499978,
                    "velocity": 0.7401574803149606,
                    "duration": 0.10344824999999958
                },
                {
                    "name": "E5",
                    "midi": 76,
                    "time": 58.01722687499978,
                    "velocity": 0.7480314960629921,
                    "duration": 0.10344824999999958
                },
                {
                    "name": "D5",
                    "midi": 74,
                    "time": 58.12067512499978,
                    "velocity": 0.7874015748031497,
                    "duration": 0.10344824999999958
                },
                {
                    "name": "C5",
                    "midi": 72,
                    "time": 58.22412337499978,
                    "velocity": 0.8110236220472441,
                    "duration": 0.10344824999999958
                },
                {
                    "name": "B4",
                    "midi": 71,
                    "time": 58.32757162499978,
                    "velocity": 0.7795275590551181,
                    "duration": 0.10344824999999958
                },
                {
                    "name": "A4",
                    "midi": 69,
                    "time": 58.43101987499978,
                    "velocity": 0.7086614173228346,
                    "duration": 0.10344824999999958
                },
                {
                    "name": "G4",
                    "midi": 67,
                    "time": 58.534468124999776,
                    "velocity": 0.8031496062992126,
                    "duration": 0.10344824999999958
                },
                {
                    "name": "F#4",
                    "midi": 66,
                    "time": 58.637916374999776,
                    "velocity": 0.7795275590551181,
                    "duration": 0.10344824999999958
                },
                {
                    "name": "E4",
                    "midi": 64,
                    "time": 58.741364624999775,
                    "velocity": 0.7401574803149606,
                    "duration": 0.10344824999999958
                },
                {
                    "name": "D5",
                    "midi": 74,
                    "time": 58.844812874999775,
                    "velocity": 0.7086614173228346,
                    "duration": 0.10344824999999958
                },
                {
                    "name": "C5",
                    "midi": 72,
                    "time": 58.948261124999775,
                    "velocity": 0.7086614173228346,
                    "duration": 0.10344824999999958
                },
                {
                    "name": "B4",
                    "midi": 71,
                    "time": 59.051709374999774,
                    "velocity": 0.7637795275590551,
                    "duration": 0.10344824999999958
                },
                {
                    "name": "A4",
                    "midi": 69,
                    "time": 59.155157624999774,
                    "velocity": 0.7559055118110236,
                    "duration": 0.10344824999999958
                },
                {
                    "name": "G4",
                    "midi": 67,
                    "time": 59.25860587499977,
                    "velocity": 0.7559055118110236,
                    "duration": 0.10344824999999958
                },
                {
                    "name": "F#4",
                    "midi": 66,
                    "time": 59.36205412499977,
                    "velocity": 0.7480314960629921,
                    "duration": 0.10344824999999958
                },
                {
                    "name": "E4",
                    "midi": 64,
                    "time": 59.46550237499977,
                    "velocity": 0.7401574803149606,
                    "duration": 0.10344824999999958
                },
                {
                    "name": "D#4",
                    "midi": 63,
                    "time": 59.56895062499977,
                    "velocity": 0.7874015748031497,
                    "duration": 0.10344824999999958
                },
                {
                    "name": "C5",
                    "midi": 72,
                    "time": 59.67239887499977,
                    "velocity": 0.7637795275590551,
                    "duration": 0.10344824999999958
                },
                {
                    "name": "B4",
                    "midi": 71,
                    "time": 59.77584712499977,
                    "velocity": 0.7716535433070866,
                    "duration": 0.10344824999999958
                },
                {
                    "name": "A4",
                    "midi": 69,
                    "time": 59.87929537499977,
                    "velocity": 0.7952755905511811,
                    "duration": 0.10344824999999958
                },
                {
                    "name": "G4",
                    "midi": 67,
                    "time": 59.98274362499977,
                    "velocity": 0.8031496062992126,
                    "duration": 0.10344824999999958
                },
                {
                    "name": "F#4",
                    "midi": 66,
                    "time": 60.08619187499977,
                    "velocity": 0.7244094488188977,
                    "duration": 0.10344824999999958
                },
                {
                    "name": "E4",
                    "midi": 64,
                    "time": 60.18964012499977,
                    "velocity": 0.7637795275590551,
                    "duration": 0.10344824999999958
                },
                {
                    "name": "D4",
                    "midi": 62,
                    "time": 60.29308837499977,
                    "velocity": 0.7874015748031497,
                    "duration": 0.10344824999999958
                },
                {
                    "name": "C#4",
                    "midi": 61,
                    "time": 60.39653662499977,
                    "velocity": 0.7795275590551181,
                    "duration": 0.10344824999999958
                },
                {
                    "name": "B4",
                    "midi": 71,
                    "time": 60.49998487499977,
                    "velocity": 0.7086614173228346,
                    "duration": 0.10344824999999958
                },
                {
                    "name": "A4",
                    "midi": 69,
                    "time": 60.60343312499977,
                    "velocity": 0.7322834645669292,
                    "duration": 0.10344824999999958
                },
                {
                    "name": "G4",
                    "midi": 67,
                    "time": 60.70688137499977,
                    "velocity": 0.7244094488188977,
                    "duration": 0.10344824999999958
                },
                {
                    "name": "F#4",
                    "midi": 66,
                    "time": 60.81032962499977,
                    "velocity": 0.7716535433070866,
                    "duration": 0.10344824999999958
                },
                {
                    "name": "D4",
                    "midi": 62,
                    "time": 60.91377787499977,
                    "velocity": 0.7401574803149606,
                    "duration": 0.10344824999999958
                },
                {
                    "name": "E4",
                    "midi": 64,
                    "time": 61.017226124999766,
                    "velocity": 0.7401574803149606,
                    "duration": 0.10344824999999958
                },
                {
                    "name": "F#4",
                    "midi": 66,
                    "time": 61.120674374999766,
                    "velocity": 0.7165354330708661,
                    "duration": 0.10344824999999958
                },
                {
                    "name": "G4",
                    "midi": 67,
                    "time": 61.224122624999765,
                    "velocity": 0.8110236220472441,
                    "duration": 0.10344824999999958
                },
                {
                    "name": "A4",
                    "midi": 69,
                    "time": 61.327570874999765,
                    "velocity": 0.7007874015748031,
                    "duration": 0.10344824999999958
                },
                {
                    "name": "B4",
                    "midi": 71,
                    "time": 61.431019124999764,
                    "velocity": 0.7165354330708661,
                    "duration": 0.10344824999999958
                },
                {
                    "name": "C5",
                    "midi": 72,
                    "time": 61.534467374999764,
                    "velocity": 0.7086614173228346,
                    "duration": 0.10344824999999958
                },
                {
                    "name": "D5",
                    "midi": 74,
                    "time": 61.63791562499976,
                    "velocity": 0.7401574803149606,
                    "duration": 0.10344824999999958
                },
                {
                    "name": "E5",
                    "midi": 76,
                    "time": 61.74136387499976,
                    "velocity": 0.7086614173228346,
                    "duration": 0.10344824999999958
                },
                {
                    "name": "D5",
                    "midi": 74,
                    "time": 61.84481212499976,
                    "velocity": 0.7165354330708661,
                    "duration": 0.10344824999999958
                },
                {
                    "name": "B4",
                    "midi": 71,
                    "time": 61.94826037499976,
                    "velocity": 0.7086614173228346,
                    "duration": 0.10344824999999958
                },
                {
                    "name": "C5",
                    "midi": 72,
                    "time": 62.05170862499976,
                    "velocity": 0.7637795275590551,
                    "duration": 0.10344824999999958
                },
                {
                    "name": "D5",
                    "midi": 74,
                    "time": 62.15515687499976,
                    "velocity": 0.7007874015748031,
                    "duration": 0.10344824999999958
                },
                {
                    "name": "C5",
                    "midi": 72,
                    "time": 62.25860512499976,
                    "velocity": 0.7716535433070866,
                    "duration": 0.10344824999999958
                },
                {
                    "name": "A4",
                    "midi": 69,
                    "time": 62.36205337499976,
                    "velocity": 0.7480314960629921,
                    "duration": 0.10344824999999958
                },
                {
                    "name": "B4",
                    "midi": 71,
                    "time": 62.46550162499976,
                    "velocity": 0.7322834645669292,
                    "duration": 0.10344824999999958
                },
                {
                    "name": "C5",
                    "midi": 72,
                    "time": 62.56894987499976,
                    "velocity": 0.7795275590551181,
                    "duration": 0.10344824999999958
                },
                {
                    "name": "B4",
                    "midi": 71,
                    "time": 62.67239812499976,
                    "velocity": 0.7480314960629921,
                    "duration": 0.10344824999999958
                },
                {
                    "name": "G4",
                    "midi": 67,
                    "time": 62.77584637499976,
                    "velocity": 0.7559055118110236,
                    "duration": 0.10344824999999958
                },
                {
                    "name": "A4",
                    "midi": 69,
                    "time": 62.87929462499976,
                    "velocity": 0.7244094488188977,
                    "duration": 0.10344824999999958
                },
                {
                    "name": "B4",
                    "midi": 71,
                    "time": 62.98274287499976,
                    "velocity": 0.7007874015748031,
                    "duration": 0.10344824999999958
                },
                {
                    "name": "A4",
                    "midi": 69,
                    "time": 63.08619112499976,
                    "velocity": 0.7874015748031497,
                    "duration": 0.10344824999999958
                },
                {
                    "name": "F#4",
                    "midi": 66,
                    "time": 63.18963937499976,
                    "velocity": 0.7480314960629921,
                    "duration": 0.10344824999999958
                },
                {
                    "name": "G4",
                    "midi": 67,
                    "time": 63.29308762499976,
                    "velocity": 0.8110236220472441,
                    "duration": 0.10344824999999958
                },
                {
                    "name": "B4",
                    "midi": 71,
                    "time": 63.396535874999756,
                    "velocity": 0.7795275590551181,
                    "duration": 0.10344824999999958
                },
                {
                    "name": "D5",
                    "midi": 74,
                    "time": 63.499984124999756,
                    "velocity": 0.7401574803149606,
                    "duration": 0.10344824999999958
                },
                {
                    "name": "G5",
                    "midi": 79,
                    "time": 63.603432374999755,
                    "velocity": 0.7165354330708661,
                    "duration": 0.10344824999999958
                },
                {
                    "name": "F#5",
                    "midi": 78,
                    "time": 63.706880624999755,
                    "velocity": 0.9606299212598425,
                    "duration": 0.10344824999999958
                },
                {
                    "name": "A5",
                    "midi": 81,
                    "time": 63.82757024999975,
                    "velocity": 0.7007874015748031,
                    "duration": 0.10344824999999958
                },
                {
                    "name": "F#5",
                    "midi": 78,
                    "time": 63.913777124999754,
                    "velocity": 0.7795275590551181,
                    "duration": 0.10344824999999958
                },
                {
                    "name": "E5",
                    "midi": 76,
                    "time": 64.01722537499975,
                    "velocity": 0.7086614173228346,
                    "duration": 0.10344824999999958
                },
                {
                    "name": "D5",
                    "midi": 74,
                    "time": 64.12067362499975,
                    "velocity": 0.7716535433070866,
                    "duration": 0.10344824999999958
                },
                {
                    "name": "F#5",
                    "midi": 78,
                    "time": 64.22412187499975,
                    "velocity": 0.7795275590551181,
                    "duration": 0.10344824999999958
                },
                {
                    "name": "A5",
                    "midi": 81,
                    "time": 64.32757012499975,
                    "velocity": 0.7401574803149606,
                    "duration": 0.10344824999999958
                },
                {
                    "name": "D6",
                    "midi": 86,
                    "time": 64.43101837499975,
                    "velocity": 0.7086614173228346,
                    "duration": 0.10344824999999958
                },
                {
                    "name": "C#6",
                    "midi": 85,
                    "time": 64.53446662499975,
                    "velocity": 0.952755905511811,
                    "duration": 0.10344824999999958
                },
                {
                    "name": "D6",
                    "midi": 86,
                    "time": 64.65515624999975,
                    "velocity": 0.7322834645669292,
                    "duration": 0.10344824999999958
                },
                {
                    "name": "C6",
                    "midi": 84,
                    "time": 64.74136312499975,
                    "velocity": 0.7637795275590551,
                    "duration": 0.10344824999999958
                },
                {
                    "name": "A5",
                    "midi": 81,
                    "time": 64.84481137499975,
                    "velocity": 0.7401574803149606,
                    "duration": 0.10344824999999958
                },
                {
                    "name": "G5",
                    "midi": 79,
                    "time": 64.94825962499975,
                    "velocity": 0.7480314960629921,
                    "duration": 0.10344824999999958
                },
                {
                    "name": "B5",
                    "midi": 83,
                    "time": 65.05170787499975,
                    "velocity": 0.7322834645669292,
                    "duration": 0.10344824999999958
                },
                {
                    "name": "A5",
                    "midi": 81,
                    "time": 65.15515612499975,
                    "velocity": 0.7086614173228346,
                    "duration": 0.10344824999999958
                },
                {
                    "name": "G5",
                    "midi": 79,
                    "time": 65.25860437499975,
                    "velocity": 0.7244094488188977,
                    "duration": 0.10344824999999958
                },
                {
                    "name": "F#5",
                    "midi": 78,
                    "time": 65.36205262499975,
                    "velocity": 0.984251968503937,
                    "duration": 0.10344824999999958
                },
                {
                    "name": "A5",
                    "midi": 81,
                    "time": 65.48274224999975,
                    "velocity": 0.8110236220472441,
                    "duration": 0.10344824999999958
                },
                {
                    "name": "G5",
                    "midi": 79,
                    "time": 65.56894912499975,
                    "velocity": 0.7007874015748031,
                    "duration": 0.10344824999999958
                },
                {
                    "name": "E5",
                    "midi": 76,
                    "time": 65.67239737499975,
                    "velocity": 0.8031496062992126,
                    "duration": 0.10344824999999958
                },
                {
                    "name": "D5",
                    "midi": 74,
                    "time": 65.77584562499975,
                    "velocity": 0.7952755905511811,
                    "duration": 0.10344824999999958
                },
                {
                    "name": "C#5",
                    "midi": 73,
                    "time": 65.87929387499975,
                    "velocity": 0.7086614173228346,
                    "duration": 0.10344824999999958
                },
                {
                    "name": "E5",
                    "midi": 76,
                    "time": 65.98274212499975,
                    "velocity": 0.7086614173228346,
                    "duration": 0.10344824999999958
                },
                {
                    "name": "D5",
                    "midi": 74,
                    "time": 66.08619037499975,
                    "velocity": 0.7165354330708661,
                    "duration": 0.10344824999999958
                },
                {
                    "name": "C5",
                    "midi": 72,
                    "time": 66.18963862499974,
                    "velocity": 0.968503937007874,
                    "duration": 0.10344824999999958
                },
                {
                    "name": "B4",
                    "midi": 71,
                    "time": 66.31032824999974,
                    "velocity": 0.7086614173228346,
                    "duration": 0.10344824999999958
                },
                {
                    "name": "C5",
                    "midi": 72,
                    "time": 66.39653512499974,
                    "velocity": 0.7874015748031497,
                    "duration": 0.10344824999999958
                },
                {
                    "name": "A4",
                    "midi": 69,
                    "time": 66.49998337499974,
                    "velocity": 0.7086614173228346,
                    "duration": 0.10344824999999958
                },
                {
                    "name": "G4",
                    "midi": 67,
                    "time": 66.60343162499974,
                    "velocity": 0.7559055118110236,
                    "duration": 0.10344824999999958
                },
                {
                    "name": "B4",
                    "midi": 71,
                    "time": 66.70687987499974,
                    "velocity": 0.7952755905511811,
                    "duration": 0.10344824999999958
                },
                {
                    "name": "A4",
                    "midi": 69,
                    "time": 66.81032812499974,
                    "velocity": 0.7244094488188977,
                    "duration": 0.10344824999999958
                },
                {
                    "name": "G4",
                    "midi": 67,
                    "time": 66.91377637499974,
                    "velocity": 0.7716535433070866,
                    "duration": 0.10344824999999958
                },
                {
                    "name": "F#4",
                    "midi": 66,
                    "time": 67.01722462499974,
                    "velocity": 0.984251968503937,
                    "duration": 0.10344824999999958
                },
                {
                    "name": "A4",
                    "midi": 69,
                    "time": 67.13791424999974,
                    "velocity": 0.7007874015748031,
                    "duration": 0.10344824999999958
                },
                {
                    "name": "G4",
                    "midi": 67,
                    "time": 67.22412112499974,
                    "velocity": 0.7322834645669292,
                    "duration": 0.10344824999999958
                },
                {
                    "name": "E4",
                    "midi": 64,
                    "time": 67.32756937499974,
                    "velocity": 0.7795275590551181,
                    "duration": 0.10344824999999958
                },
                {
                    "name": "D4",
                    "midi": 62,
                    "time": 67.43101762499974,
                    "velocity": 0.7874015748031497,
                    "duration": 0.10344824999999958
                },
                {
                    "name": "C#4",
                    "midi": 61,
                    "time": 67.53446587499974,
                    "velocity": 0.8031496062992126,
                    "duration": 0.10344824999999958
                },
                {
                    "name": "E4",
                    "midi": 64,
                    "time": 67.63791412499974,
                    "velocity": 0.7795275590551181,
                    "duration": 0.10344824999999958
                },
                {
                    "name": "D4",
                    "midi": 62,
                    "time": 67.74136237499974,
                    "velocity": 0.8031496062992126,
                    "duration": 0.10344824999999958
                },
                {
                    "name": "C4",
                    "midi": 60,
                    "time": 67.84481062499974,
                    "velocity": 1,
                    "duration": 0.10344824999999958
                },
                {
                    "name": "B3",
                    "midi": 59,
                    "time": 67.96550024999974,
                    "velocity": 0.7322834645669292,
                    "duration": 0.10344824999999958
                },
                {
                    "name": "C4",
                    "midi": 60,
                    "time": 68.05170712499974,
                    "velocity": 0.7952755905511811,
                    "duration": 0.10344824999999958
                },
                {
                    "name": "A3",
                    "midi": 57,
                    "time": 68.15515537499974,
                    "velocity": 0.7559055118110236,
                    "duration": 0.10344824999999958
                },
                {
                    "name": "G3",
                    "midi": 55,
                    "time": 68.25860362499974,
                    "velocity": 0.7165354330708661,
                    "duration": 0.10344824999999958
                },
                {
                    "name": "B3",
                    "midi": 59,
                    "time": 68.36205187499974,
                    "velocity": 0.7322834645669292,
                    "duration": 0.10344824999999958
                },
                {
                    "name": "D4",
                    "midi": 62,
                    "time": 68.46550012499974,
                    "velocity": 0.7165354330708661,
                    "duration": 0.10344824999999958
                },
                {
                    "name": "G4",
                    "midi": 67,
                    "time": 68.56894837499974,
                    "velocity": 0.7401574803149606,
                    "duration": 0.10344824999999958
                },
                {
                    "name": "F#4",
                    "midi": 66,
                    "time": 68.67239662499973,
                    "velocity": 0.9606299212598425,
                    "duration": 0.10344824999999958
                },
                {
                    "name": "D4",
                    "midi": 62,
                    "time": 68.79308624999973,
                    "velocity": 0.7165354330708661,
                    "duration": 0.10344824999999958
                },
                {
                    "name": "C4",
                    "midi": 60,
                    "time": 68.87929312499973,
                    "velocity": 0.7480314960629921,
                    "duration": 0.10344824999999958
                },
                {
                    "name": "A3",
                    "midi": 57,
                    "time": 68.98274137499973,
                    "velocity": 0.7007874015748031,
                    "duration": 0.10344824999999958
                },
                {
                    "name": "G3",
                    "midi": 55,
                    "time": 69.08618962499973,
                    "velocity": 0.7401574803149606,
                    "duration": 0.10344824999999958
                },
                {
                    "name": "B3",
                    "midi": 59,
                    "time": 69.18963787499973,
                    "velocity": 0.7637795275590551,
                    "duration": 0.10344824999999958
                },
                {
                    "name": "D4",
                    "midi": 62,
                    "time": 69.29308612499973,
                    "velocity": 0.7952755905511811,
                    "duration": 0.10344824999999958
                },
                {
                    "name": "G4",
                    "midi": 67,
                    "time": 69.39653437499973,
                    "velocity": 0.8031496062992126,
                    "duration": 0.10344824999999958
                },
                {
                    "name": "F#4",
                    "midi": 66,
                    "time": 69.49998262499973,
                    "velocity": 0.937007874015748,
                    "duration": 0.10344824999999958
                },
                {
                    "name": "D4",
                    "midi": 62,
                    "time": 69.62067224999973,
                    "velocity": 0.7007874015748031,
                    "duration": 0.10344824999999958
                },
                {
                    "name": "C4",
                    "midi": 60,
                    "time": 69.70687912499973,
                    "velocity": 0.7480314960629921,
                    "duration": 0.10344824999999958
                },
                {
                    "name": "A3",
                    "midi": 57,
                    "time": 69.81032737499973,
                    "velocity": 0.7165354330708661,
                    "duration": 0.10344824999999958
                },
                {
                    "name": "G3",
                    "midi": 55,
                    "time": 69.91377562499973,
                    "velocity": 0.7716535433070866,
                    "duration": 0.10344824999999958
                },
                {
                    "name": "B3",
                    "midi": 59,
                    "time": 70.01722387499973,
                    "velocity": 0.7086614173228346,
                    "duration": 0.10344824999999958
                },
                {
                    "name": "D4",
                    "midi": 62,
                    "time": 70.12067212499973,
                    "velocity": 0.7874015748031497,
                    "duration": 0.10344824999999958
                },
                {
                    "name": "G4",
                    "midi": 67,
                    "time": 70.22412037499973,
                    "velocity": 0.7874015748031497,
                    "duration": 0.10344824999999958
                },
                {
                    "name": "B4",
                    "midi": 71,
                    "time": 70.32756862499973,
                    "velocity": 0.7795275590551181,
                    "duration": 0.10344824999999958
                },
                {
                    "name": "D5",
                    "midi": 74,
                    "time": 70.43101687499973,
                    "velocity": 0.7165354330708661,
                    "duration": 0.10344824999999958
                },
                {
                    "name": "F#5",
                    "midi": 78,
                    "time": 70.53446512499973,
                    "velocity": 0.8031496062992126,
                    "duration": 0.10344824999999958
                },
                {
                    "name": "G5",
                    "midi": 79,
                    "time": 70.63791337499973,
                    "velocity": 0.7559055118110236,
                    "duration": 0.10344824999999958
                },
                {
                    "name": "F#5",
                    "midi": 78,
                    "time": 70.74136162499973,
                    "velocity": 0.7716535433070866,
                    "duration": 0.10344824999999958
                },
                {
                    "name": "G5",
                    "midi": 79,
                    "time": 70.84480987499973,
                    "velocity": 0.7716535433070866,
                    "duration": 0.10344824999999958
                },
                {
                    "name": "F#5",
                    "midi": 78,
                    "time": 70.94825812499973,
                    "velocity": 0.7874015748031497,
                    "duration": 0.10344824999999958
                },
                {
                    "name": "G5",
                    "midi": 79,
                    "time": 71.05170637499972,
                    "velocity": 0.7480314960629921,
                    "duration": 0.10344824999999958
                },
                {
                    "name": "F#5",
                    "midi": 78,
                    "time": 71.15515462499972,
                    "velocity": 0.7795275590551181,
                    "duration": 0.10344824999999958
                },
                {
                    "name": "G5",
                    "midi": 79,
                    "time": 71.25860287499972,
                    "velocity": 0.7874015748031497,
                    "duration": 0.10344824999999958
                },
                {
                    "name": "F#5",
                    "midi": 78,
                    "time": 71.36205112499972,
                    "velocity": 0.7086614173228346,
                    "duration": 0.10344824999999958
                },
                {
                    "name": "G5",
                    "midi": 79,
                    "time": 71.46549937499972,
                    "velocity": 0.8110236220472441,
                    "duration": 0.10344824999999958
                },
                {
                    "name": "G#5",
                    "midi": 80,
                    "time": 71.56894762499972,
                    "velocity": 0.8110236220472441,
                    "duration": 0.10344824999999958
                },
                {
                    "name": "A5",
                    "midi": 81,
                    "time": 71.67239587499972,
                    "velocity": 0.7795275590551181,
                    "duration": 0.10344824999999958
                },
                {
                    "name": "G#5",
                    "midi": 80,
                    "time": 71.77584412499972,
                    "velocity": 0.8031496062992126,
                    "duration": 0.10344824999999958
                },
                {
                    "name": "A5",
                    "midi": 81,
                    "time": 71.87929237499972,
                    "velocity": 0.7559055118110236,
                    "duration": 0.10344824999999958
                },
                {
                    "name": "G#5",
                    "midi": 80,
                    "time": 71.98274062499972,
                    "velocity": 0.8346456692913385,
                    "duration": 0.10344824999999958
                },
                {
                    "name": "A5",
                    "midi": 81,
                    "time": 72.08618887499972,
                    "velocity": 0.7952755905511811,
                    "duration": 0.10344824999999958
                },
                {
                    "name": "G#5",
                    "midi": 80,
                    "time": 72.18963712499972,
                    "velocity": 0.8110236220472441,
                    "duration": 0.10344824999999958
                },
                {
                    "name": "A5",
                    "midi": 81,
                    "time": 72.29308537499972,
                    "velocity": 0.7559055118110236,
                    "duration": 0.10344824999999958
                },
                {
                    "name": "G5",
                    "midi": 79,
                    "time": 72.39653362499972,
                    "velocity": 0.7874015748031497,
                    "duration": 0.10344824999999958
                },
                {
                    "name": "F5",
                    "midi": 77,
                    "time": 72.49998187499972,
                    "velocity": 0.8346456692913385,
                    "duration": 0.10344824999999958
                },
                {
                    "name": "E5",
                    "midi": 76,
                    "time": 72.60343012499972,
                    "velocity": 0.8188976377952756,
                    "duration": 0.10344824999999958
                },
                {
                    "name": "F5",
                    "midi": 77,
                    "time": 72.70687837499972,
                    "velocity": 0.7874015748031497,
                    "duration": 0.10344824999999958
                },
                {
                    "name": "G5",
                    "midi": 79,
                    "time": 72.81032662499972,
                    "velocity": 0.8818897637795275,
                    "duration": 0.10344824999999958
                },
                {
                    "name": "F5",
                    "midi": 77,
                    "time": 72.91377487499972,
                    "velocity": 0.8031496062992126,
                    "duration": 0.10344824999999958
                },
                {
                    "name": "E5",
                    "midi": 76,
                    "time": 73.01722312499972,
                    "velocity": 0.8661417322834646,
                    "duration": 0.10344824999999958
                },
                {
                    "name": "D5",
                    "midi": 74,
                    "time": 73.12067137499972,
                    "velocity": 0.8582677165354331,
                    "duration": 0.10344824999999958
                },
                {
                    "name": "C5",
                    "midi": 72,
                    "time": 73.22411962499972,
                    "velocity": 0.8661417322834646,
                    "duration": 0.10344824999999958
                },
                {
                    "name": "B4",
                    "midi": 71,
                    "time": 73.32756787499972,
                    "velocity": 0.8818897637795275,
                    "duration": 0.10344824999999958
                },
                {
                    "name": "D5",
                    "midi": 74,
                    "time": 73.43101612499972,
                    "velocity": 0.889763779527559,
                    "duration": 0.10344824999999958
                },
                {
                    "name": "C5",
                    "midi": 72,
                    "time": 73.53446437499971,
                    "velocity": 0.9133858267716536,
                    "duration": 0.10344824999999958
                },
                {
                    "name": "B4",
                    "midi": 71,
                    "time": 73.63791262499971,
                    "velocity": 0.8503937007874016,
                    "duration": 0.10344824999999958
                },
                {
                    "name": "C5",
                    "midi": 72,
                    "time": 73.74136087499971,
                    "velocity": 0.8267716535433071,
                    "duration": 0.10344824999999958
                },
                {
                    "name": "A4",
                    "midi": 69,
                    "time": 73.84480912499971,
                    "velocity": 0.9212598425196851,
                    "duration": 0.10344824999999958
                },
                {
                    "name": "B4",
                    "midi": 71,
                    "time": 73.94825737499971,
                    "velocity": 0.8503937007874016,
                    "duration": 0.10344824999999958
                },
                {
                    "name": "G4",
                    "midi": 67,
                    "time": 74.05170562499971,
                    "velocity": 0.889763779527559,
                    "duration": 0.10344824999999958
                },
                {
                    "name": "A4",
                    "midi": 69,
                    "time": 74.15515387499971,
                    "velocity": 0.9448818897637795,
                    "duration": 0.10344824999999958
                },
                {
                    "name": "G4",
                    "midi": 67,
                    "time": 74.25860212499971,
                    "velocity": 0.8818897637795275,
                    "duration": 0.10344824999999958
                },
                {
                    "name": "F#4",
                    "midi": 66,
                    "time": 74.36205037499971,
                    "velocity": 0.9133858267716536,
                    "duration": 0.10344824999999958
                },
                {
                    "name": "G4",
                    "midi": 67,
                    "time": 74.46549862499971,
                    "velocity": 0.9133858267716536,
                    "duration": 0.10344824999999958
                },
                {
                    "name": "B4",
                    "midi": 71,
                    "time": 74.56894687499971,
                    "velocity": 0.9291338582677166,
                    "duration": 0.10344824999999958
                },
                {
                    "name": "A4",
                    "midi": 69,
                    "time": 74.67239512499971,
                    "velocity": 0.937007874015748,
                    "duration": 0.10344824999999958
                },
                {
                    "name": "C5",
                    "midi": 72,
                    "time": 74.77584337499971,
                    "velocity": 0.9921259842519685,
                    "duration": 0.10344824999999958
                },
                {
                    "name": "B4",
                    "midi": 71,
                    "time": 74.87929162499971,
                    "velocity": 0.9212598425196851,
                    "duration": 0.10344824999999958
                },
                {
                    "name": "D5",
                    "midi": 74,
                    "time": 74.98273987499971,
                    "velocity": 0.8976377952755905,
                    "duration": 0.10344824999999958
                },
                {
                    "name": "C5",
                    "midi": 72,
                    "time": 75.08618812499971,
                    "velocity": 0.937007874015748,
                    "duration": 0.10344824999999958
                },
                {
                    "name": "E5",
                    "midi": 76,
                    "time": 75.18963637499971,
                    "velocity": 0.9448818897637795,
                    "duration": 0.10344824999999958
                },
                {
                    "name": "D5",
                    "midi": 74,
                    "time": 75.29308462499971,
                    "velocity": 0.984251968503937,
                    "duration": 0.10344824999999958
                },
                {
                    "name": "F5",
                    "midi": 77,
                    "time": 75.3965328749997,
                    "velocity": 0.9606299212598425,
                    "duration": 0.10344824999999958
                },
                {
                    "name": "E5",
                    "midi": 76,
                    "time": 75.4999811249997,
                    "velocity": 0.952755905511811,
                    "duration": 0.10344824999999958
                },
                {
                    "name": "G5",
                    "midi": 79,
                    "time": 75.6034293749997,
                    "velocity": 1,
                    "duration": 0.10344824999999958
                },
                {
                    "name": "F5",
                    "midi": 77,
                    "time": 75.7068776249997,
                    "velocity": 1,
                    "duration": 0.10344824999999958
                },
                {
                    "name": "D5",
                    "midi": 74,
                    "time": 75.8103258749997,
                    "velocity": 1,
                    "duration": 0.10344824999999958
                },
                {
                    "name": "B4",
                    "midi": 71,
                    "time": 75.9137741249997,
                    "velocity": 0.9448818897637795,
                    "duration": 0.10344824999999958
                },
                {
                    "name": "G4",
                    "midi": 67,
                    "time": 76.0172223749997,
                    "velocity": 0.9448818897637795,
                    "duration": 0.10344824999999958
                },
                {
                    "name": "G#4",
                    "midi": 68,
                    "time": 76.1206706249997,
                    "velocity": 0.8976377952755905,
                    "duration": 0.10344824999999958
                },
                {
                    "name": "G4",
                    "midi": 67,
                    "time": 76.2241188749997,
                    "velocity": 0.84251968503937,
                    "duration": 0.10344824999999958
                },
                {
                    "name": "F#4",
                    "midi": 66,
                    "time": 76.3275671249997,
                    "velocity": 0.8031496062992126,
                    "duration": 0.10344824999999958
                },
                {
                    "name": "G4",
                    "midi": 67,
                    "time": 76.4310153749997,
                    "velocity": 0.7165354330708661,
                    "duration": 0.10344824999999958
                },
                {
                    "name": "A4",
                    "midi": 69,
                    "time": 76.5344636249997,
                    "velocity": 0.7007874015748031,
                    "duration": 0.10344824999999958
                },
                {
                    "name": "G4",
                    "midi": 67,
                    "time": 76.6379118749997,
                    "velocity": 0.6299212598425197,
                    "duration": 0.10344824999999958
                },
                {
                    "name": "F#4",
                    "midi": 66,
                    "time": 76.7413601249997,
                    "velocity": 0.5984251968503937,
                    "duration": 0.10344824999999958
                },
                {
                    "name": "G4",
                    "midi": 67,
                    "time": 76.8448083749997,
                    "velocity": 0.5748031496062992,
                    "duration": 0.10344824999999958
                },
                {
                    "name": "G#4",
                    "midi": 68,
                    "time": 76.9482566249997,
                    "velocity": 0.47244094488188976,
                    "duration": 0.10344824999999958
                },
                {
                    "name": "A4",
                    "midi": 69,
                    "time": 77.0517048749997,
                    "velocity": 0.4566929133858268,
                    "duration": 0.10344824999999958
                },
                {
                    "name": "A#4",
                    "midi": 70,
                    "time": 77.1551531249997,
                    "velocity": 0.3779527559055118,
                    "duration": 0.10344824999999958
                },
                {
                    "name": "B4",
                    "midi": 71,
                    "time": 77.2586013749997,
                    "velocity": 0.3700787401574803,
                    "duration": 0.10344824999999958
                },
                {
                    "name": "C5",
                    "midi": 72,
                    "time": 77.3620496249997,
                    "velocity": 0.33858267716535434,
                    "duration": 0.10344824999999958
                },
                {
                    "name": "D5",
                    "midi": 74,
                    "time": 77.4654978749997,
                    "velocity": 0.3228346456692913,
                    "duration": 0.10344824999999958
                },
                {
                    "name": "C5",
                    "midi": 72,
                    "time": 77.5689461249997,
                    "velocity": 0.31496062992125984,
                    "duration": 0.10344824999999958
                },
                {
                    "name": "B4",
                    "midi": 71,
                    "time": 77.6723943749997,
                    "velocity": 0.3700787401574803,
                    "duration": 0.10344824999999958
                },
                {
                    "name": "C5",
                    "midi": 72,
                    "time": 77.7758426249997,
                    "velocity": 0.3228346456692913,
                    "duration": 0.10344824999999958
                },
                {
                    "name": "D5",
                    "midi": 74,
                    "time": 77.8792908749997,
                    "velocity": 0.3700787401574803,
                    "duration": 0.10344824999999958
                },
                {
                    "name": "E5",
                    "midi": 76,
                    "time": 77.9827391249997,
                    "velocity": 0.3464566929133858,
                    "duration": 0.10344824999999958
                },
                {
                    "name": "C5",
                    "midi": 72,
                    "time": 78.0861873749997,
                    "velocity": 0.2992125984251969,
                    "duration": 0.10344824999999958
                },
                {
                    "name": "D5",
                    "midi": 74,
                    "time": 78.1896356249997,
                    "velocity": 0.33858267716535434,
                    "duration": 0.10344824999999958
                },
                {
                    "name": "C5",
                    "midi": 72,
                    "time": 78.2930838749997,
                    "velocity": 0.31496062992125984,
                    "duration": 0.10344824999999958
                },
                {
                    "name": "B4",
                    "midi": 71,
                    "time": 78.3965321249997,
                    "velocity": 0.25984251968503935,
                    "duration": 0.10344824999999958
                },
                {
                    "name": "A4",
                    "midi": 69,
                    "time": 78.4999803749997,
                    "velocity": 0.2755905511811024,
                    "duration": 0.10344824999999958
                },
                {
                    "name": "G4",
                    "midi": 67,
                    "time": 78.6034286249997,
                    "velocity": 0.33858267716535434,
                    "duration": 0.10344824999999958
                },
                {
                    "name": "A4",
                    "midi": 69,
                    "time": 78.7068768749997,
                    "velocity": 0.2992125984251969,
                    "duration": 0.10344824999999958
                },
                {
                    "name": "B4",
                    "midi": 71,
                    "time": 78.8103251249997,
                    "velocity": 0.2992125984251969,
                    "duration": 0.10344824999999958
                },
                {
                    "name": "C5",
                    "midi": 72,
                    "time": 78.91377337499969,
                    "velocity": 0.3543307086614173,
                    "duration": 0.10344824999999958
                },
                {
                    "name": "D5",
                    "midi": 74,
                    "time": 79.01722162499969,
                    "velocity": 0.3543307086614173,
                    "duration": 0.10344824999999958
                },
                {
                    "name": "E5",
                    "midi": 76,
                    "time": 79.12066987499969,
                    "velocity": 0.33858267716535434,
                    "duration": 0.10344824999999958
                },
                {
                    "name": "F5",
                    "midi": 77,
                    "time": 79.22411812499969,
                    "velocity": 0.25984251968503935,
                    "duration": 0.10344824999999958
                },
                {
                    "name": "E5",
                    "midi": 76,
                    "time": 79.32756637499969,
                    "velocity": 0.2677165354330709,
                    "duration": 0.10344824999999958
                },
                {
                    "name": "G5",
                    "midi": 79,
                    "time": 79.43101462499969,
                    "velocity": 0.33070866141732286,
                    "duration": 0.10344824999999958
                },
                {
                    "name": "F5",
                    "midi": 77,
                    "time": 79.53446287499969,
                    "velocity": 0.3228346456692913,
                    "duration": 0.10344824999999958
                },
                {
                    "name": "E5",
                    "midi": 76,
                    "time": 79.63791112499969,
                    "velocity": 0.33858267716535434,
                    "duration": 0.10344824999999958
                },
                {
                    "name": "D5",
                    "midi": 74,
                    "time": 79.74135937499969,
                    "velocity": 0.3543307086614173,
                    "duration": 0.10344824999999958
                },
                {
                    "name": "E5",
                    "midi": 76,
                    "time": 79.84480762499969,
                    "velocity": 0.36220472440944884,
                    "duration": 0.10344824999999958
                },
                {
                    "name": "F5",
                    "midi": 77,
                    "time": 79.94825587499969,
                    "velocity": 0.3464566929133858,
                    "duration": 0.10344824999999958
                },
                {
                    "name": "E5",
                    "midi": 76,
                    "time": 80.05170412499969,
                    "velocity": 0.3464566929133858,
                    "duration": 0.10344824999999958
                },
                {
                    "name": "D5",
                    "midi": 74,
                    "time": 80.15515237499969,
                    "velocity": 0.33070866141732286,
                    "duration": 0.10344824999999958
                },
                {
                    "name": "C5",
                    "midi": 72,
                    "time": 80.25860062499969,
                    "velocity": 0.29133858267716534,
                    "duration": 0.10344824999999958
                },
                {
                    "name": "D5",
                    "midi": 74,
                    "time": 80.36204887499969,
                    "velocity": 0.36220472440944884,
                    "duration": 0.10344824999999958
                },
                {
                    "name": "E5",
                    "midi": 76,
                    "time": 80.46549712499969,
                    "velocity": 0.3543307086614173,
                    "duration": 0.10344824999999958
                },
                {
                    "name": "F5",
                    "midi": 77,
                    "time": 80.56894537499969,
                    "velocity": 0.3700787401574803,
                    "duration": 0.10344824999999958
                },
                {
                    "name": "G5",
                    "midi": 79,
                    "time": 80.67239362499969,
                    "velocity": 0.33858267716535434,
                    "duration": 0.10344824999999958
                },
                {
                    "name": "F5",
                    "midi": 77,
                    "time": 80.77584187499968,
                    "velocity": 0.36220472440944884,
                    "duration": 0.10344824999999958
                },
                {
                    "name": "E5",
                    "midi": 76,
                    "time": 80.87929012499968,
                    "velocity": 0.25984251968503935,
                    "duration": 0.10344824999999958
                },
                {
                    "name": "D5",
                    "midi": 74,
                    "time": 80.98273837499968,
                    "velocity": 0.3228346456692913,
                    "duration": 0.10344824999999958
                },
                {
                    "name": "C#5",
                    "midi": 73,
                    "time": 81.08618662499968,
                    "velocity": 0.25984251968503935,
                    "duration": 0.10344824999999958
                },
                {
                    "name": "E5",
                    "midi": 76,
                    "time": 81.18963487499968,
                    "velocity": 0.33858267716535434,
                    "duration": 0.10344824999999958
                },
                {
                    "name": "A5",
                    "midi": 81,
                    "time": 81.29308312499968,
                    "velocity": 0.28346456692913385,
                    "duration": 0.10344824999999958
                },
                {
                    "name": "G5",
                    "midi": 79,
                    "time": 81.39653137499968,
                    "velocity": 0.3464566929133858,
                    "duration": 0.10344824999999958
                },
                {
                    "name": "F5",
                    "midi": 77,
                    "time": 81.49997962499968,
                    "velocity": 0.3228346456692913,
                    "duration": 0.10344824999999958
                },
                {
                    "name": "E5",
                    "midi": 76,
                    "time": 81.60342787499968,
                    "velocity": 0.33858267716535434,
                    "duration": 0.10344824999999958
                },
                {
                    "name": "D5",
                    "midi": 74,
                    "time": 81.70687612499968,
                    "velocity": 0.25984251968503935,
                    "duration": 0.10344824999999958
                },
                {
                    "name": "C5",
                    "midi": 72,
                    "time": 81.81032437499968,
                    "velocity": 0.25984251968503935,
                    "duration": 0.10344824999999958
                },
                {
                    "name": "B4",
                    "midi": 71,
                    "time": 81.91377262499968,
                    "velocity": 0.3543307086614173,
                    "duration": 0.10344824999999958
                },
                {
                    "name": "D5",
                    "midi": 74,
                    "time": 82.01722087499968,
                    "velocity": 0.2755905511811024,
                    "duration": 0.10344824999999958
                },
                {
                    "name": "G5",
                    "midi": 79,
                    "time": 82.12066912499968,
                    "velocity": 0.3464566929133858,
                    "duration": 0.10344824999999958
                },
                {
                    "name": "F5",
                    "midi": 77,
                    "time": 82.22411737499968,
                    "velocity": 0.28346456692913385,
                    "duration": 0.10344824999999958
                },
                {
                    "name": "E5",
                    "midi": 76,
                    "time": 82.32756562499968,
                    "velocity": 0.29133858267716534,
                    "duration": 0.10344824999999958
                },
                {
                    "name": "D5",
                    "midi": 74,
                    "time": 82.43101387499968,
                    "velocity": 0.3228346456692913,
                    "duration": 0.10344824999999958
                },
                {
                    "name": "C5",
                    "midi": 72,
                    "time": 82.53446212499968,
                    "velocity": 0.33070866141732286,
                    "duration": 0.10344824999999958
                },
                {
                    "name": "B4",
                    "midi": 71,
                    "time": 82.63791037499968,
                    "velocity": 0.33858267716535434,
                    "duration": 0.10344824999999958
                },
                {
                    "name": "A4",
                    "midi": 69,
                    "time": 82.74135862499968,
                    "velocity": 0.3464566929133858,
                    "duration": 0.10344824999999958
                },
                {
                    "name": "D5",
                    "midi": 74,
                    "time": 82.84480687499968,
                    "velocity": 0.31496062992125984,
                    "duration": 0.10344824999999958
                },
                {
                    "name": "E5",
                    "midi": 76,
                    "time": 82.94825512499968,
                    "velocity": 0.25984251968503935,
                    "duration": 0.10344824999999958
                },
                {
                    "name": "D5",
                    "midi": 74,
                    "time": 83.05170337499968,
                    "velocity": 0.2992125984251969,
                    "duration": 0.10344824999999958
                },
                {
                    "name": "C5",
                    "midi": 72,
                    "time": 83.15515162499968,
                    "velocity": 0.33858267716535434,
                    "duration": 0.10344824999999958
                },
                {
                    "name": "B4",
                    "midi": 71,
                    "time": 83.25859987499967,
                    "velocity": 0.30708661417322836,
                    "duration": 0.10344824999999958
                },
                {
                    "name": "A4",
                    "midi": 69,
                    "time": 83.36204812499967,
                    "velocity": 0.33858267716535434,
                    "duration": 0.10344824999999958
                },
                {
                    "name": "G4",
                    "midi": 67,
                    "time": 83.46549637499967,
                    "velocity": 0.2755905511811024,
                    "duration": 0.10344824999999958
                },
                {
                    "name": "F#4",
                    "midi": 66,
                    "time": 83.56894462499967,
                    "velocity": 0.2755905511811024,
                    "duration": 0.10344824999999958
                },
                {
                    "name": "G4",
                    "midi": 67,
                    "time": 83.67239287499967,
                    "velocity": 0.33070866141732286,
                    "duration": 0.10344824999999958
                },
                {
                    "name": "A4",
                    "midi": 69,
                    "time": 83.77584112499967,
                    "velocity": 0.25984251968503935,
                    "duration": 0.10344824999999958
                },
                {
                    "name": "B4",
                    "midi": 71,
                    "time": 83.87928937499967,
                    "velocity": 0.33070866141732286,
                    "duration": 0.10344824999999958
                },
                {
                    "name": "C5",
                    "midi": 72,
                    "time": 83.98273762499967,
                    "velocity": 0.2755905511811024,
                    "duration": 0.10344824999999958
                },
                {
                    "name": "D5",
                    "midi": 74,
                    "time": 84.08618587499967,
                    "velocity": 0.36220472440944884,
                    "duration": 0.10344824999999958
                },
                {
                    "name": "C5",
                    "midi": 72,
                    "time": 84.18963412499967,
                    "velocity": 0.3700787401574803,
                    "duration": 0.10344824999999958
                },
                {
                    "name": "B4",
                    "midi": 71,
                    "time": 84.29308237499967,
                    "velocity": 0.2677165354330709,
                    "duration": 0.10344824999999958
                },
                {
                    "name": "C5",
                    "midi": 72,
                    "time": 84.39653062499967,
                    "velocity": 0.2677165354330709,
                    "duration": 0.10344824999999958
                },
                {
                    "name": "D5",
                    "midi": 74,
                    "time": 84.49997887499967,
                    "velocity": 0.3464566929133858,
                    "duration": 0.10344824999999958
                },
                {
                    "name": "E5",
                    "midi": 76,
                    "time": 84.60342712499967,
                    "velocity": 0.3464566929133858,
                    "duration": 0.10344824999999958
                },
                {
                    "name": "C5",
                    "midi": 72,
                    "time": 84.70687537499967,
                    "velocity": 0.33858267716535434,
                    "duration": 0.10344824999999958
                },
                {
                    "name": "D5",
                    "midi": 74,
                    "time": 84.81032362499967,
                    "velocity": 0.3228346456692913,
                    "duration": 0.10344824999999958
                },
                {
                    "name": "C5",
                    "midi": 72,
                    "time": 84.91377187499967,
                    "velocity": 0.3543307086614173,
                    "duration": 0.10344824999999958
                },
                {
                    "name": "B4",
                    "midi": 71,
                    "time": 85.01722012499967,
                    "velocity": 0.30708661417322836,
                    "duration": 0.10344824999999958
                },
                {
                    "name": "A4",
                    "midi": 69,
                    "time": 85.12066837499967,
                    "velocity": 0.33070866141732286,
                    "duration": 0.10344824999999958
                },
                {
                    "name": "G4",
                    "midi": 67,
                    "time": 85.22411662499967,
                    "velocity": 0.2677165354330709,
                    "duration": 0.10344824999999958
                },
                {
                    "name": "A4",
                    "midi": 69,
                    "time": 85.32756487499967,
                    "velocity": 0.28346456692913385,
                    "duration": 0.10344824999999958
                },
                {
                    "name": "B4",
                    "midi": 71,
                    "time": 85.43101312499967,
                    "velocity": 0.3700787401574803,
                    "duration": 0.10344824999999958
                },
                {
                    "name": "C5",
                    "midi": 72,
                    "time": 85.53446137499967,
                    "velocity": 0.2755905511811024,
                    "duration": 0.10344824999999958
                },
                {
                    "name": "D5",
                    "midi": 74,
                    "time": 85.63790962499966,
                    "velocity": 0.25984251968503935,
                    "duration": 0.10344824999999958
                },
                {
                    "name": "E5",
                    "midi": 76,
                    "time": 85.74135787499966,
                    "velocity": 0.33070866141732286,
                    "duration": 0.10344824999999958
                },
                {
                    "name": "F5",
                    "midi": 77,
                    "time": 85.84480612499966,
                    "velocity": 0.33070866141732286,
                    "duration": 0.10344824999999958
                },
                {
                    "name": "E5",
                    "midi": 76,
                    "time": 85.94825437499966,
                    "velocity": 0.2677165354330709,
                    "duration": 0.10344824999999958
                },
                {
                    "name": "G5",
                    "midi": 79,
                    "time": 86.05170262499966,
                    "velocity": 0.3543307086614173,
                    "duration": 0.10344824999999958
                },
                {
                    "name": "F5",
                    "midi": 77,
                    "time": 86.15515087499966,
                    "velocity": 0.2992125984251969,
                    "duration": 0.10344824999999958
                },
                {
                    "name": "E5",
                    "midi": 76,
                    "time": 86.25859912499966,
                    "velocity": 0.2992125984251969,
                    "duration": 0.10344824999999958
                },
                {
                    "name": "D5",
                    "midi": 74,
                    "time": 86.36204737499966,
                    "velocity": 0.36220472440944884,
                    "duration": 0.10344824999999958
                },
                {
                    "name": "E5",
                    "midi": 76,
                    "time": 86.46549562499966,
                    "velocity": 0.30708661417322836,
                    "duration": 0.10344824999999958
                },
                {
                    "name": "F5",
                    "midi": 77,
                    "time": 86.56894387499966,
                    "velocity": 0.29133858267716534,
                    "duration": 0.10344824999999958
                },
                {
                    "name": "E5",
                    "midi": 76,
                    "time": 86.67239212499966,
                    "velocity": 0.33858267716535434,
                    "duration": 0.10344824999999958
                },
                {
                    "name": "D5",
                    "midi": 74,
                    "time": 86.77584037499966,
                    "velocity": 0.3228346456692913,
                    "duration": 0.10344824999999958
                },
                {
                    "name": "C5",
                    "midi": 72,
                    "time": 86.87928862499966,
                    "velocity": 0.2677165354330709,
                    "duration": 0.10344824999999958
                },
                {
                    "name": "D5",
                    "midi": 74,
                    "time": 86.98273687499966,
                    "velocity": 0.25984251968503935,
                    "duration": 0.10344824999999958
                },
                {
                    "name": "E5",
                    "midi": 76,
                    "time": 87.08618512499966,
                    "velocity": 0.3700787401574803,
                    "duration": 0.10344824999999958
                },
                {
                    "name": "F5",
                    "midi": 77,
                    "time": 87.18963337499966,
                    "velocity": 0.29133858267716534,
                    "duration": 0.10344824999999958
                },
                {
                    "name": "G5",
                    "midi": 79,
                    "time": 87.29308162499966,
                    "velocity": 0.30708661417322836,
                    "duration": 0.10344824999999958
                },
                {
                    "name": "F5",
                    "midi": 77,
                    "time": 87.39652987499966,
                    "velocity": 0.2677165354330709,
                    "duration": 0.10344824999999958
                },
                {
                    "name": "E5",
                    "midi": 76,
                    "time": 87.49997812499966,
                    "velocity": 0.33858267716535434,
                    "duration": 0.10344824999999958
                },
                {
                    "name": "D5",
                    "midi": 74,
                    "time": 87.60342637499966,
                    "velocity": 0.29133858267716534,
                    "duration": 0.10344824999999958
                },
                {
                    "name": "C#5",
                    "midi": 73,
                    "time": 87.70687462499966,
                    "velocity": 0.2992125984251969,
                    "duration": 0.10344824999999958
                },
                {
                    "name": "E5",
                    "midi": 76,
                    "time": 87.81032287499966,
                    "velocity": 0.3228346456692913,
                    "duration": 0.10344824999999958
                },
                {
                    "name": "A5",
                    "midi": 81,
                    "time": 87.91377112499966,
                    "velocity": 0.29133858267716534,
                    "duration": 0.10344824999999958
                },
                {
                    "name": "G5",
                    "midi": 79,
                    "time": 88.01721937499966,
                    "velocity": 0.2677165354330709,
                    "duration": 0.10344824999999958
                },
                {
                    "name": "F5",
                    "midi": 77,
                    "time": 88.12066762499965,
                    "velocity": 0.29133858267716534,
                    "duration": 0.10344824999999958
                },
                {
                    "name": "E5",
                    "midi": 76,
                    "time": 88.22411587499965,
                    "velocity": 0.25984251968503935,
                    "duration": 0.10344824999999958
                },
                {
                    "name": "D5",
                    "midi": 74,
                    "time": 88.32756412499965,
                    "velocity": 0.28346456692913385,
                    "duration": 0.10344824999999958
                },
                {
                    "name": "C5",
                    "midi": 72,
                    "time": 88.43101237499965,
                    "velocity": 0.2677165354330709,
                    "duration": 0.10344824999999958
                },
                {
                    "name": "B4",
                    "midi": 71,
                    "time": 88.53446062499965,
                    "velocity": 0.33858267716535434,
                    "duration": 0.10344824999999958
                },
                {
                    "name": "D5",
                    "midi": 74,
                    "time": 88.63790887499965,
                    "velocity": 0.2755905511811024,
                    "duration": 0.10344824999999958
                },
                {
                    "name": "G5",
                    "midi": 79,
                    "time": 88.74135712499965,
                    "velocity": 0.2755905511811024,
                    "duration": 0.10344824999999958
                },
                {
                    "name": "F5",
                    "midi": 77,
                    "time": 88.84480537499965,
                    "velocity": 0.28346456692913385,
                    "duration": 0.10344824999999958
                },
                {
                    "name": "E5",
                    "midi": 76,
                    "time": 88.94825362499965,
                    "velocity": 0.30708661417322836,
                    "duration": 0.10344824999999958
                },
                {
                    "name": "D5",
                    "midi": 74,
                    "time": 89.05170187499965,
                    "velocity": 0.2992125984251969,
                    "duration": 0.10344824999999958
                },
                {
                    "name": "C5",
                    "midi": 72,
                    "time": 89.15515012499965,
                    "velocity": 0.25984251968503935,
                    "duration": 0.10344824999999958
                },
                {
                    "name": "B4",
                    "midi": 71,
                    "time": 89.25859837499965,
                    "velocity": 0.36220472440944884,
                    "duration": 0.10344824999999958
                },
                {
                    "name": "A4",
                    "midi": 69,
                    "time": 89.36204662499965,
                    "velocity": 0.3543307086614173,
                    "duration": 0.10344824999999958
                },
                {
                    "name": "C5",
                    "midi": 72,
                    "time": 89.46549487499965,
                    "velocity": 0.31496062992125984,
                    "duration": 0.10344824999999958
                },
                {
                    "name": "F5",
                    "midi": 77,
                    "time": 89.56894312499965,
                    "velocity": 0.31496062992125984,
                    "duration": 0.10344824999999958
                },
                {
                    "name": "E5",
                    "midi": 76,
                    "time": 89.67239137499965,
                    "velocity": 0.28346456692913385,
                    "duration": 0.10344824999999958
                },
                {
                    "name": "D5",
                    "midi": 74,
                    "time": 89.77583962499965,
                    "velocity": 0.31496062992125984,
                    "duration": 0.10344824999999958
                },
                {
                    "name": "C5",
                    "midi": 72,
                    "time": 89.87928787499965,
                    "velocity": 0.30708661417322836,
                    "duration": 0.10344824999999958
                },
                {
                    "name": "B4",
                    "midi": 71,
                    "time": 89.98273612499965,
                    "velocity": 0.3700787401574803,
                    "duration": 0.10344824999999958
                },
                {
                    "name": "A4",
                    "midi": 69,
                    "time": 90.08618437499965,
                    "velocity": 0.3228346456692913,
                    "duration": 0.10344824999999958
                },
                {
                    "name": "G#4",
                    "midi": 68,
                    "time": 90.18963262499965,
                    "velocity": 0.30708661417322836,
                    "duration": 0.10344824999999958
                },
                {
                    "name": "B4",
                    "midi": 71,
                    "time": 90.29308087499965,
                    "velocity": 0.2677165354330709,
                    "duration": 0.10344824999999958
                },
                {
                    "name": "E5",
                    "midi": 76,
                    "time": 90.39652912499965,
                    "velocity": 0.2992125984251969,
                    "duration": 0.10344824999999958
                },
                {
                    "name": "D5",
                    "midi": 74,
                    "time": 90.49997737499965,
                    "velocity": 0.3464566929133858,
                    "duration": 0.10344824999999958
                },
                {
                    "name": "C5",
                    "midi": 72,
                    "time": 90.60342562499964,
                    "velocity": 0.2992125984251969,
                    "duration": 0.10344824999999958
                },
                {
                    "name": "B4",
                    "midi": 71,
                    "time": 90.70687387499964,
                    "velocity": 0.33858267716535434,
                    "duration": 0.10344824999999958
                },
                {
                    "name": "A4",
                    "midi": 69,
                    "time": 90.81032212499964,
                    "velocity": 0.2755905511811024,
                    "duration": 0.10344824999999958
                },
                {
                    "name": "G4",
                    "midi": 67,
                    "time": 90.91377037499964,
                    "velocity": 0.3700787401574803,
                    "duration": 0.10344824999999958
                },
                {
                    "name": "F#4",
                    "midi": 66,
                    "time": 91.01721862499964,
                    "velocity": 0.3228346456692913,
                    "duration": 0.10344824999999958
                },
                {
                    "name": "A4",
                    "midi": 69,
                    "time": 91.12066687499964,
                    "velocity": 0.3464566929133858,
                    "duration": 0.10344824999999958
                },
                {
                    "name": "D5",
                    "midi": 74,
                    "time": 91.22411512499964,
                    "velocity": 0.36220472440944884,
                    "duration": 0.10344824999999958
                },
                {
                    "name": "C5",
                    "midi": 72,
                    "time": 91.32756337499964,
                    "velocity": 0.3700787401574803,
                    "duration": 0.10344824999999958
                },
                {
                    "name": "B4",
                    "midi": 71,
                    "time": 91.43101162499964,
                    "velocity": 0.30708661417322836,
                    "duration": 0.10344824999999958
                },
                {
                    "name": "A4",
                    "midi": 69,
                    "time": 91.53445987499964,
                    "velocity": 0.3228346456692913,
                    "duration": 0.10344824999999958
                },
                {
                    "name": "G4",
                    "midi": 67,
                    "time": 91.63790812499964,
                    "velocity": 0.2992125984251969,
                    "duration": 0.10344824999999958
                },
                {
                    "name": "A4",
                    "midi": 69,
                    "time": 91.74135637499964,
                    "velocity": 0.28346456692913385,
                    "duration": 0.10344824999999958
                },
                {
                    "name": "B4",
                    "midi": 71,
                    "time": 91.84480462499964,
                    "velocity": 0.30708661417322836,
                    "duration": 0.10344824999999958
                },
                {
                    "name": "C5",
                    "midi": 72,
                    "time": 91.94825287499964,
                    "velocity": 0.2677165354330709,
                    "duration": 0.10344824999999958
                },
                {
                    "name": "D5",
                    "midi": 74,
                    "time": 92.05170112499964,
                    "velocity": 0.28346456692913385,
                    "duration": 0.10344824999999958
                },
                {
                    "name": "C5",
                    "midi": 72,
                    "time": 92.15514937499964,
                    "velocity": 0.2755905511811024,
                    "duration": 0.10344824999999958
                },
                {
                    "name": "B4",
                    "midi": 71,
                    "time": 92.25859762499964,
                    "velocity": 0.2992125984251969,
                    "duration": 0.10344824999999958
                },
                {
                    "name": "C5",
                    "midi": 72,
                    "time": 92.36204587499964,
                    "velocity": 0.25984251968503935,
                    "duration": 0.10344824999999958
                },
                {
                    "name": "D5",
                    "midi": 74,
                    "time": 92.46549412499964,
                    "velocity": 0.2677165354330709,
                    "duration": 0.10344824999999958
                },
                {
                    "name": "E5",
                    "midi": 76,
                    "time": 92.56894237499964,
                    "velocity": 0.30708661417322836,
                    "duration": 0.10344824999999958
                },
                {
                    "name": "F5",
                    "midi": 77,
                    "time": 92.67239062499964,
                    "velocity": 0.36220472440944884,
                    "duration": 0.10344824999999958
                },
                {
                    "name": "G5",
                    "midi": 79,
                    "time": 92.77583887499964,
                    "velocity": 0.3228346456692913,
                    "duration": 0.10344824999999958
                },
                {
                    "name": "A5",
                    "midi": 81,
                    "time": 92.87928712499964,
                    "velocity": 0.2992125984251969,
                    "duration": 0.10344824999999958
                },
                {
                    "name": "G5",
                    "midi": 79,
                    "time": 92.98273537499963,
                    "velocity": 0.3543307086614173,
                    "duration": 0.10344824999999958
                },
                {
                    "name": "A5",
                    "midi": 81,
                    "time": 93.08618362499963,
                    "velocity": 0.29133858267716534,
                    "duration": 0.10344824999999958
                },
                {
                    "name": "G5",
                    "midi": 79,
                    "time": 93.18963187499963,
                    "velocity": 0.3464566929133858,
                    "duration": 0.10344824999999958
                },
                {
                    "name": "F#5",
                    "midi": 78,
                    "time": 93.29308012499963,
                    "velocity": 0.3228346456692913,
                    "duration": 0.10344824999999958
                },
                {
                    "name": "G5",
                    "midi": 79,
                    "time": 93.39652837499963,
                    "velocity": 0.2992125984251969,
                    "duration": 0.10344824999999958
                },
                {
                    "name": "A5",
                    "midi": 81,
                    "time": 93.49997662499963,
                    "velocity": 0.2677165354330709,
                    "duration": 0.10344824999999958
                },
                {
                    "name": "G5",
                    "midi": 79,
                    "time": 93.60342487499963,
                    "velocity": 0.3464566929133858,
                    "duration": 0.10344824999999958
                },
                {
                    "name": "F5",
                    "midi": 77,
                    "time": 93.70687312499963,
                    "velocity": 0.3228346456692913,
                    "duration": 0.10344824999999958
                },
                {
                    "name": "E5",
                    "midi": 76,
                    "time": 93.81032137499963,
                    "velocity": 0.2677165354330709,
                    "duration": 0.10344824999999958
                },
                {
                    "name": "G5",
                    "midi": 79,
                    "time": 93.91376962499963,
                    "velocity": 0.29133858267716534,
                    "duration": 0.10344824999999958
                },
                {
                    "name": "F5",
                    "midi": 77,
                    "time": 94.01721787499963,
                    "velocity": 0.31496062992125984,
                    "duration": 0.10344824999999958
                },
                {
                    "name": "E5",
                    "midi": 76,
                    "time": 94.12066612499963,
                    "velocity": 0.33858267716535434,
                    "duration": 0.10344824999999958
                },
                {
                    "name": "F5",
                    "midi": 77,
                    "time": 94.22411437499963,
                    "velocity": 0.3543307086614173,
                    "duration": 0.10344824999999958
                },
                {
                    "name": "G5",
                    "midi": 79,
                    "time": 94.32756262499963,
                    "velocity": 0.36220472440944884,
                    "duration": 0.10344824999999958
                },
                {
                    "name": "F5",
                    "midi": 77,
                    "time": 94.43101087499963,
                    "velocity": 0.31496062992125984,
                    "duration": 0.10344824999999958
                },
                {
                    "name": "E5",
                    "midi": 76,
                    "time": 94.53445912499963,
                    "velocity": 0.3700787401574803,
                    "duration": 0.10344824999999958
                },
                {
                    "name": "D5",
                    "midi": 74,
                    "time": 94.63790737499963,
                    "velocity": 0.3543307086614173,
                    "duration": 0.10344824999999958
                },
                {
                    "name": "F5",
                    "midi": 77,
                    "time": 94.74135562499963,
                    "velocity": 0.3464566929133858,
                    "duration": 0.10344824999999958
                },
                {
                    "name": "E5",
                    "midi": 76,
                    "time": 94.84480387499963,
                    "velocity": 0.3543307086614173,
                    "duration": 0.10344824999999958
                },
                {
                    "name": "D#5",
                    "midi": 75,
                    "time": 94.94825212499963,
                    "velocity": 0.33858267716535434,
                    "duration": 0.10344824999999958
                },
                {
                    "name": "E5",
                    "midi": 76,
                    "time": 95.05170037499963,
                    "velocity": 0.2677165354330709,
                    "duration": 0.10344824999999958
                },
                {
                    "name": "F5",
                    "midi": 77,
                    "time": 95.15514862499963,
                    "velocity": 0.36220472440944884,
                    "duration": 0.10344824999999958
                },
                {
                    "name": "E5",
                    "midi": 76,
                    "time": 95.25859687499963,
                    "velocity": 0.28346456692913385,
                    "duration": 0.10344824999999958
                },
                {
                    "name": "D5",
                    "midi": 74,
                    "time": 95.36204512499963,
                    "velocity": 0.33070866141732286,
                    "duration": 0.10344824999999958
                },
                {
                    "name": "C5",
                    "midi": 72,
                    "time": 95.46549337499962,
                    "velocity": 0.3543307086614173,
                    "duration": 0.10344824999999958
                },
                {
                    "name": "E5",
                    "midi": 76,
                    "time": 95.56894162499962,
                    "velocity": 0.2755905511811024,
                    "duration": 0.10344824999999958
                },
                {
                    "name": "D5",
                    "midi": 74,
                    "time": 95.67238987499962,
                    "velocity": 0.3228346456692913,
                    "duration": 0.10344824999999958
                },
                {
                    "name": "C#5",
                    "midi": 73,
                    "time": 95.77583812499962,
                    "velocity": 0.33070866141732286,
                    "duration": 0.10344824999999958
                },
                {
                    "name": "D5",
                    "midi": 74,
                    "time": 95.87928637499962,
                    "velocity": 0.2992125984251969,
                    "duration": 0.10344824999999958
                },
                {
                    "name": "E5",
                    "midi": 76,
                    "time": 95.98273462499962,
                    "velocity": 0.3858267716535433,
                    "duration": 0.10344824999999958
                },
                {
                    "name": "D5",
                    "midi": 74,
                    "time": 96.08618287499962,
                    "velocity": 0.4094488188976378,
                    "duration": 0.10344824999999958
                },
                {
                    "name": "C5",
                    "midi": 72,
                    "time": 96.18963112499962,
                    "velocity": 0.3779527559055118,
                    "duration": 0.10344824999999958
                },
                {
                    "name": "B4",
                    "midi": 71,
                    "time": 96.29307937499962,
                    "velocity": 0.49606299212598426,
                    "duration": 0.10344824999999958
                },
                {
                    "name": "C5",
                    "midi": 72,
                    "time": 96.39652762499962,
                    "velocity": 0.48031496062992124,
                    "duration": 0.10344824999999958
                },
                {
                    "name": "G4",
                    "midi": 67,
                    "time": 96.49997587499962,
                    "velocity": 0.5275590551181102,
                    "duration": 0.10344824999999958
                },
                {
                    "name": "A4",
                    "midi": 69,
                    "time": 96.60342412499962,
                    "velocity": 0.5826771653543307,
                    "duration": 0.10344824999999958
                },
                {
                    "name": "B4",
                    "midi": 71,
                    "time": 96.70687237499962,
                    "velocity": 0.5905511811023622,
                    "duration": 0.10344824999999958
                },
                {
                    "name": "C5",
                    "midi": 72,
                    "time": 96.81032062499962,
                    "velocity": 0.6692913385826772,
                    "duration": 0.10344824999999958
                },
                {
                    "name": "D5",
                    "midi": 74,
                    "time": 96.91376887499962,
                    "velocity": 0.6929133858267716,
                    "duration": 0.10344824999999958
                },
                {
                    "name": "E5",
                    "midi": 76,
                    "time": 97.01721712499962,
                    "velocity": 0.7244094488188977,
                    "duration": 0.10344824999999958
                },
                {
                    "name": "F5",
                    "midi": 77,
                    "time": 97.12066537499962,
                    "velocity": 0.7322834645669292,
                    "duration": 0.10344824999999958
                },
                {
                    "name": "G5",
                    "midi": 79,
                    "time": 97.22411362499962,
                    "velocity": 0.7165354330708661,
                    "duration": 0.10344824999999958
                },
                {
                    "name": "F5",
                    "midi": 77,
                    "time": 97.32756187499962,
                    "velocity": 0.8110236220472441,
                    "duration": 0.10344824999999958
                },
                {
                    "name": "E5",
                    "midi": 76,
                    "time": 97.43101012499962,
                    "velocity": 0.7007874015748031,
                    "duration": 0.10344824999999958
                },
                {
                    "name": "F5",
                    "midi": 77,
                    "time": 97.53445837499962,
                    "velocity": 0.7559055118110236,
                    "duration": 0.10344824999999958
                },
                {
                    "name": "G5",
                    "midi": 79,
                    "time": 97.63790662499962,
                    "velocity": 0.7874015748031497,
                    "duration": 0.10344824999999958
                },
                {
                    "name": "A5",
                    "midi": 81,
                    "time": 97.74135487499962,
                    "velocity": 0.7322834645669292,
                    "duration": 0.10344824999999958
                },
                {
                    "name": "B5",
                    "midi": 83,
                    "time": 97.84480312499961,
                    "velocity": 0.7952755905511811,
                    "duration": 0.10344824999999958
                },
                {
                    "name": "C6",
                    "midi": 84,
                    "time": 97.94825137499961,
                    "velocity": 0.8110236220472441,
                    "duration": 0.10344824999999958
                },
                {
                    "name": "A5",
                    "midi": 81,
                    "time": 98.05169962499961,
                    "velocity": 0.8031496062992126,
                    "duration": 0.10344824999999958
                },
                {
                    "name": "B5",
                    "midi": 83,
                    "time": 98.15514787499961,
                    "velocity": 0.7322834645669292,
                    "duration": 0.10344824999999958
                },
                {
                    "name": "C6",
                    "midi": 84,
                    "time": 98.25859612499961,
                    "velocity": 0.7007874015748031,
                    "duration": 0.10344824999999958
                },
                {
                    "name": "B5",
                    "midi": 83,
                    "time": 98.36204437499961,
                    "velocity": 0.7401574803149606,
                    "duration": 0.10344824999999958
                },
                {
                    "name": "D6",
                    "midi": 86,
                    "time": 98.46549262499961,
                    "velocity": 0.7637795275590551,
                    "duration": 0.10344824999999958
                },
                {
                    "name": "C6",
                    "midi": 84,
                    "time": 98.56894087499961,
                    "velocity": 0.7637795275590551,
                    "duration": 0.10344824999999958
                },
                {
                    "name": "B5",
                    "midi": 83,
                    "time": 98.67238912499961,
                    "velocity": 0.7637795275590551,
                    "duration": 0.10344824999999958
                },
                {
                    "name": "A5",
                    "midi": 81,
                    "time": 98.77583737499961,
                    "velocity": 0.7480314960629921,
                    "duration": 0.10344824999999958
                },
                {
                    "name": "A5",
                    "midi": 81,
                    "time": 98.87928562499961,
                    "velocity": 0.8031496062992126,
                    "duration": 0.10344824999999958
                },
                {
                    "name": "G5",
                    "midi": 79,
                    "time": 98.98273387499961,
                    "velocity": 0.7401574803149606,
                    "duration": 0.10344824999999958
                },
                {
                    "name": "F#5",
                    "midi": 78,
                    "time": 99.08618212499961,
                    "velocity": 0.8031496062992126,
                    "duration": 0.10344824999999958
                },
                {
                    "name": "G5",
                    "midi": 79,
                    "time": 99.18963037499961,
                    "velocity": 0.7874015748031497,
                    "duration": 0.10344824999999958
                },
                {
                    "name": "B5",
                    "midi": 83,
                    "time": 99.29307862499961,
                    "velocity": 0.8110236220472441,
                    "duration": 0.10344824999999958
                },
                {
                    "name": "A5",
                    "midi": 81,
                    "time": 99.39652687499961,
                    "velocity": 0.7086614173228346,
                    "duration": 0.10344824999999958
                },
                {
                    "name": "G5",
                    "midi": 79,
                    "time": 99.49997512499961,
                    "velocity": 0.8110236220472441,
                    "duration": 0.10344824999999958
                },
                {
                    "name": "F5",
                    "midi": 77,
                    "time": 99.60342337499961,
                    "velocity": 0.7244094488188977,
                    "duration": 0.10344824999999958
                },
                {
                    "name": "E5",
                    "midi": 76,
                    "time": 99.70687162499961,
                    "velocity": 0.7322834645669292,
                    "duration": 0.10344824999999958
                },
                {
                    "name": "G4",
                    "midi": 67,
                    "time": 99.8103198749996,
                    "velocity": 0.7165354330708661,
                    "duration": 0.10344824999999958
                },
                {
                    "name": "A4",
                    "midi": 69,
                    "time": 99.9137681249996,
                    "velocity": 0.7401574803149606,
                    "duration": 0.10344824999999958
                },
                {
                    "name": "B4",
                    "midi": 71,
                    "time": 100.0172163749996,
                    "velocity": 0.7244094488188977,
                    "duration": 0.10344824999999958
                },
                {
                    "name": "C5",
                    "midi": 72,
                    "time": 100.1206646249996,
                    "velocity": 0.7480314960629921,
                    "duration": 0.10344824999999958
                },
                {
                    "name": "D5",
                    "midi": 74,
                    "time": 100.2241128749996,
                    "velocity": 0.7086614173228346,
                    "duration": 0.10344824999999958
                },
                {
                    "name": "E5",
                    "midi": 76,
                    "time": 100.3275611249996,
                    "velocity": 0.8031496062992126,
                    "duration": 0.10344824999999958
                },
                {
                    "name": "F5",
                    "midi": 77,
                    "time": 100.4310093749996,
                    "velocity": 0.8110236220472441,
                    "duration": 0.10344824999999958
                },
                {
                    "name": "G5",
                    "midi": 79,
                    "time": 100.5344576249996,
                    "velocity": 0.7559055118110236,
                    "duration": 0.10344824999999958
                },
                {
                    "name": "F5",
                    "midi": 77,
                    "time": 100.6379058749996,
                    "velocity": 0.8110236220472441,
                    "duration": 0.10344824999999958
                },
                {
                    "name": "E5",
                    "midi": 76,
                    "time": 100.7413541249996,
                    "velocity": 0.7322834645669292,
                    "duration": 0.10344824999999958
                },
                {
                    "name": "F5",
                    "midi": 77,
                    "time": 100.8448023749996,
                    "velocity": 0.7952755905511811,
                    "duration": 0.10344824999999958
                },
                {
                    "name": "G5",
                    "midi": 79,
                    "time": 100.9482506249996,
                    "velocity": 0.7952755905511811,
                    "duration": 0.10344824999999958
                },
                {
                    "name": "A5",
                    "midi": 81,
                    "time": 101.0516988749996,
                    "velocity": 0.8031496062992126,
                    "duration": 0.10344824999999958
                },
                {
                    "name": "B5",
                    "midi": 83,
                    "time": 101.1551471249996,
                    "velocity": 0.7244094488188977,
                    "duration": 0.10344824999999958
                },
                {
                    "name": "C6",
                    "midi": 84,
                    "time": 101.2585953749996,
                    "velocity": 0.7637795275590551,
                    "duration": 0.10344824999999958
                },
                {
                    "name": "A5",
                    "midi": 81,
                    "time": 101.3620436249996,
                    "velocity": 0.7874015748031497,
                    "duration": 0.10344824999999958
                },
                {
                    "name": "B5",
                    "midi": 83,
                    "time": 101.4654918749996,
                    "velocity": 0.7637795275590551,
                    "duration": 0.10344824999999958
                },
                {
                    "name": "C6",
                    "midi": 84,
                    "time": 101.5689401249996,
                    "velocity": 0.7007874015748031,
                    "duration": 0.10344824999999958
                },
                {
                    "name": "B5",
                    "midi": 83,
                    "time": 101.6723883749996,
                    "velocity": 0.7165354330708661,
                    "duration": 0.10344824999999958
                },
                {
                    "name": "D6",
                    "midi": 86,
                    "time": 101.7758366249996,
                    "velocity": 0.7874015748031497,
                    "duration": 0.10344824999999958
                },
                {
                    "name": "C6",
                    "midi": 84,
                    "time": 101.8792848749996,
                    "velocity": 0.7952755905511811,
                    "duration": 0.10344824999999958
                },
                {
                    "name": "B5",
                    "midi": 83,
                    "time": 101.9827331249996,
                    "velocity": 0.8110236220472441,
                    "duration": 0.10344824999999958
                },
                {
                    "name": "A5",
                    "midi": 81,
                    "time": 102.0861813749996,
                    "velocity": 0.7559055118110236,
                    "duration": 0.10344824999999958
                },
                {
                    "name": "A5",
                    "midi": 81,
                    "time": 102.1896296249996,
                    "velocity": 0.7007874015748031,
                    "duration": 0.10344824999999958
                },
                {
                    "name": "G5",
                    "midi": 79,
                    "time": 102.2930778749996,
                    "velocity": 0.7559055118110236,
                    "duration": 0.10344824999999958
                },
                {
                    "name": "F#5",
                    "midi": 78,
                    "time": 102.3965261249996,
                    "velocity": 0.7480314960629921,
                    "duration": 0.10344824999999958
                },
                {
                    "name": "G5",
                    "midi": 79,
                    "time": 102.4999743749996,
                    "velocity": 0.7559055118110236,
                    "duration": 0.10344824999999958
                },
                {
                    "name": "B5",
                    "midi": 83,
                    "time": 102.6034226249996,
                    "velocity": 0.8031496062992126,
                    "duration": 0.10344824999999958
                },
                {
                    "name": "A5",
                    "midi": 81,
                    "time": 102.7068708749996,
                    "velocity": 0.7716535433070866,
                    "duration": 0.10344824999999958
                },
                {
                    "name": "G5",
                    "midi": 79,
                    "time": 102.8103191249996,
                    "velocity": 0.7559055118110236,
                    "duration": 0.10344824999999958
                },
                {
                    "name": "F5",
                    "midi": 77,
                    "time": 102.9137673749996,
                    "velocity": 0.7795275590551181,
                    "duration": 0.10344824999999958
                },
                {
                    "name": "E5",
                    "midi": 76,
                    "time": 103.0172156249996,
                    "velocity": 0.7637795275590551,
                    "duration": 0.10344824999999958
                },
                {
                    "name": "G5",
                    "midi": 79,
                    "time": 103.1206638749996,
                    "velocity": 0.7952755905511811,
                    "duration": 0.10344824999999958
                },
                {
                    "name": "F5",
                    "midi": 77,
                    "time": 103.22411212499959,
                    "velocity": 0.7322834645669292,
                    "duration": 0.10344824999999958
                },
                {
                    "name": "E5",
                    "midi": 76,
                    "time": 103.32756037499959,
                    "velocity": 0.7086614173228346,
                    "duration": 0.10344824999999958
                },
                {
                    "name": "F5",
                    "midi": 77,
                    "time": 103.43100862499959,
                    "velocity": 0.7086614173228346,
                    "duration": 0.10344824999999958
                },
                {
                    "name": "G5",
                    "midi": 79,
                    "time": 103.53445687499959,
                    "velocity": 0.8031496062992126,
                    "duration": 0.10344824999999958
                },
                {
                    "name": "A5",
                    "midi": 81,
                    "time": 103.63790512499959,
                    "velocity": 0.7165354330708661,
                    "duration": 0.10344824999999958
                },
                {
                    "name": "B5",
                    "midi": 83,
                    "time": 103.74135337499959,
                    "velocity": 0.8031496062992126,
                    "duration": 0.10344824999999958
                },
                {
                    "name": "C6",
                    "midi": 84,
                    "time": 103.84480162499959,
                    "velocity": 0.7322834645669292,
                    "duration": 0.10344824999999958
                },
                {
                    "name": "B5",
                    "midi": 83,
                    "time": 103.94824987499959,
                    "velocity": 0.7165354330708661,
                    "duration": 0.10344824999999958
                },
                {
                    "name": "C6",
                    "midi": 84,
                    "time": 104.05169812499959,
                    "velocity": 0.7007874015748031,
                    "duration": 0.10344824999999958
                },
                {
                    "name": "B5",
                    "midi": 83,
                    "time": 104.15514637499959,
                    "velocity": 0.7401574803149606,
                    "duration": 0.10344824999999958
                },
                {
                    "name": "D6",
                    "midi": 86,
                    "time": 104.25859462499959,
                    "velocity": 0.7322834645669292,
                    "duration": 0.10344824999999958
                },
                {
                    "name": "C6",
                    "midi": 84,
                    "time": 104.36204287499959,
                    "velocity": 0.7559055118110236,
                    "duration": 0.10344824999999958
                },
                {
                    "name": "B5",
                    "midi": 83,
                    "time": 104.46549112499959,
                    "velocity": 0.8110236220472441,
                    "duration": 0.10344824999999958
                },
                {
                    "name": "A5",
                    "midi": 81,
                    "time": 104.56893937499959,
                    "velocity": 0.7322834645669292,
                    "duration": 0.10344824999999958
                },
                {
                    "name": "G#5",
                    "midi": 80,
                    "time": 104.67238762499959,
                    "velocity": 0.7244094488188977,
                    "duration": 0.10344824999999958
                },
                {
                    "name": "A5",
                    "midi": 81,
                    "time": 104.77583587499959,
                    "velocity": 0.7401574803149606,
                    "duration": 0.10344824999999958
                },
                {
                    "name": "B5",
                    "midi": 83,
                    "time": 104.87928412499959,
                    "velocity": 0.7401574803149606,
                    "duration": 0.10344824999999958
                },
                {
                    "name": "A5",
                    "midi": 81,
                    "time": 104.98273237499959,
                    "velocity": 0.7165354330708661,
                    "duration": 0.10344824999999958
                },
                {
                    "name": "G#5",
                    "midi": 80,
                    "time": 105.08618062499959,
                    "velocity": 0.7401574803149606,
                    "duration": 0.10344824999999958
                },
                {
                    "name": "E5",
                    "midi": 76,
                    "time": 105.18962887499958,
                    "velocity": 0.8031496062992126,
                    "duration": 0.10344824999999958
                },
                {
                    "name": "F#5",
                    "midi": 78,
                    "time": 105.29307712499958,
                    "velocity": 0.7322834645669292,
                    "duration": 0.10344824999999958
                },
                {
                    "name": "G#5",
                    "midi": 80,
                    "time": 105.39652537499958,
                    "velocity": 0.7637795275590551,
                    "duration": 0.10344824999999958
                },
                {
                    "name": "A5",
                    "midi": 81,
                    "time": 105.49997362499958,
                    "velocity": 0.7637795275590551,
                    "duration": 0.10344824999999958
                },
                {
                    "name": "B5",
                    "midi": 83,
                    "time": 105.60342187499958,
                    "velocity": 0.7716535433070866,
                    "duration": 0.10344824999999958
                },
                {
                    "name": "C6",
                    "midi": 84,
                    "time": 105.70687012499958,
                    "velocity": 0.7401574803149606,
                    "duration": 0.10344824999999958
                },
                {
                    "name": "B5",
                    "midi": 83,
                    "time": 105.81031837499958,
                    "velocity": 0.7952755905511811,
                    "duration": 0.10344824999999958
                },
                {
                    "name": "C6",
                    "midi": 84,
                    "time": 105.91376662499958,
                    "velocity": 0.7952755905511811,
                    "duration": 0.10344824999999958
                },
                {
                    "name": "B5",
                    "midi": 83,
                    "time": 106.01721487499958,
                    "velocity": 0.7480314960629921,
                    "duration": 0.10344824999999958
                },
                {
                    "name": "A5",
                    "midi": 81,
                    "time": 106.12066312499958,
                    "velocity": 0.7322834645669292,
                    "duration": 0.10344824999999958
                },
                {
                    "name": "G5",
                    "midi": 79,
                    "time": 106.22411137499958,
                    "velocity": 0.7637795275590551,
                    "duration": 0.10344824999999958
                },
                {
                    "name": "F#5",
                    "midi": 78,
                    "time": 106.32755962499958,
                    "velocity": 0.7874015748031497,
                    "duration": 0.10344824999999958
                },
                {
                    "name": "G5",
                    "midi": 79,
                    "time": 106.43100787499958,
                    "velocity": 0.7165354330708661,
                    "duration": 0.10344824999999958
                },
                {
                    "name": "A5",
                    "midi": 81,
                    "time": 106.53445612499958,
                    "velocity": 0.7637795275590551,
                    "duration": 0.10344824999999958
                },
                {
                    "name": "G5",
                    "midi": 79,
                    "time": 106.63790437499958,
                    "velocity": 0.7322834645669292,
                    "duration": 0.10344824999999958
                },
                {
                    "name": "F#5",
                    "midi": 78,
                    "time": 106.74135262499958,
                    "velocity": 0.7086614173228346,
                    "duration": 0.10344824999999958
                },
                {
                    "name": "D5",
                    "midi": 74,
                    "time": 106.84480087499958,
                    "velocity": 0.7874015748031497,
                    "duration": 0.10344824999999958
                },
                {
                    "name": "E5",
                    "midi": 76,
                    "time": 106.94824912499958,
                    "velocity": 0.7952755905511811,
                    "duration": 0.10344824999999958
                },
                {
                    "name": "F#5",
                    "midi": 78,
                    "time": 107.05169737499958,
                    "velocity": 0.7480314960629921,
                    "duration": 0.10344824999999958
                },
                {
                    "name": "G5",
                    "midi": 79,
                    "time": 107.15514562499958,
                    "velocity": 0.7165354330708661,
                    "duration": 0.10344824999999958
                },
                {
                    "name": "F#5",
                    "midi": 78,
                    "time": 107.25859387499958,
                    "velocity": 0.7952755905511811,
                    "duration": 0.10344824999999958
                },
                {
                    "name": "G5",
                    "midi": 79,
                    "time": 107.36204212499958,
                    "velocity": 0.7401574803149606,
                    "duration": 0.10344824999999958
                },
                {
                    "name": "A5",
                    "midi": 81,
                    "time": 107.46549037499958,
                    "velocity": 0.7952755905511811,
                    "duration": 0.10344824999999958
                },
                {
                    "name": "B5",
                    "midi": 83,
                    "time": 107.56893862499957,
                    "velocity": 0.7401574803149606,
                    "duration": 0.10344824999999958
                },
                {
                    "name": "A5",
                    "midi": 81,
                    "time": 107.67238687499957,
                    "velocity": 0.7637795275590551,
                    "duration": 0.10344824999999958
                },
                {
                    "name": "G5",
                    "midi": 79,
                    "time": 107.77583512499957,
                    "velocity": 0.8110236220472441,
                    "duration": 0.10344824999999958
                },
                {
                    "name": "F#5",
                    "midi": 78,
                    "time": 107.87928337499957,
                    "velocity": 0.7795275590551181,
                    "duration": 0.10344824999999958
                },
                {
                    "name": "G5",
                    "midi": 79,
                    "time": 107.98273162499957,
                    "velocity": 0.7086614173228346,
                    "duration": 0.10344824999999958
                },
                {
                    "name": "F#5",
                    "midi": 78,
                    "time": 108.08617987499957,
                    "velocity": 0.7480314960629921,
                    "duration": 0.10344824999999958
                },
                {
                    "name": "E5",
                    "midi": 76,
                    "time": 108.18962812499957,
                    "velocity": 0.7637795275590551,
                    "duration": 0.10344824999999958
                },
                {
                    "name": "D#5",
                    "midi": 75,
                    "time": 108.29307637499957,
                    "velocity": 0.7480314960629921,
                    "duration": 0.10344824999999958
                },
                {
                    "name": "E5",
                    "midi": 76,
                    "time": 108.39652462499957,
                    "velocity": 0.7401574803149606,
                    "duration": 0.10344824999999958
                },
                {
                    "name": "F#5",
                    "midi": 78,
                    "time": 108.49997287499957,
                    "velocity": 0.7165354330708661,
                    "duration": 0.10344824999999958
                },
                {
                    "name": "G5",
                    "midi": 79,
                    "time": 108.60342112499957,
                    "velocity": 0.7952755905511811,
                    "duration": 0.10344824999999958
                },
                {
                    "name": "F#5",
                    "midi": 78,
                    "time": 108.70686937499957,
                    "velocity": 0.7716535433070866,
                    "duration": 0.10344824999999958
                },
                {
                    "name": "A5",
                    "midi": 81,
                    "time": 108.81031762499957,
                    "velocity": 0.7244094488188977,
                    "duration": 0.10344824999999958
                },
                {
                    "name": "G#5",
                    "midi": 80,
                    "time": 108.91376587499957,
                    "velocity": 0.7086614173228346,
                    "duration": 0.10344824999999958
                },
                {
                    "name": "F#5",
                    "midi": 78,
                    "time": 109.01721412499957,
                    "velocity": 0.7007874015748031,
                    "duration": 0.10344824999999958
                },
                {
                    "name": "E5",
                    "midi": 76,
                    "time": 109.12066237499957,
                    "velocity": 0.7165354330708661,
                    "duration": 0.10344824999999958
                },
                {
                    "name": "D5",
                    "midi": 74,
                    "time": 109.22411062499957,
                    "velocity": 0.7559055118110236,
                    "duration": 0.10344824999999958
                },
                {
                    "name": "C#5",
                    "midi": 73,
                    "time": 109.32755887499957,
                    "velocity": 0.8031496062992126,
                    "duration": 0.10344824999999958
                },
                {
                    "name": "B4",
                    "midi": 71,
                    "time": 109.43100712499957,
                    "velocity": 0.7244094488188977,
                    "duration": 0.10344824999999958
                },
                {
                    "name": "C#5",
                    "midi": 73,
                    "time": 109.53445537499957,
                    "velocity": 0.7086614173228346,
                    "duration": 0.10344824999999958
                },
                {
                    "name": "D5",
                    "midi": 74,
                    "time": 109.63790362499957,
                    "velocity": 0.7874015748031497,
                    "duration": 0.10344824999999958
                },
                {
                    "name": "D4",
                    "midi": 62,
                    "time": 109.74135187499957,
                    "velocity": 0.7952755905511811,
                    "duration": 0.10344824999999958
                },
                {
                    "name": "E4",
                    "midi": 64,
                    "time": 109.84480012499957,
                    "velocity": 0.7795275590551181,
                    "duration": 0.10344824999999958
                },
                {
                    "name": "F#4",
                    "midi": 66,
                    "time": 109.94824837499957,
                    "velocity": 0.7322834645669292,
                    "duration": 0.10344824999999958
                },
                {
                    "name": "G4",
                    "midi": 67,
                    "time": 110.05169662499956,
                    "velocity": 0.7401574803149606,
                    "duration": 0.10344824999999958
                },
                {
                    "name": "A4",
                    "midi": 69,
                    "time": 110.15514487499956,
                    "velocity": 0.8031496062992126,
                    "duration": 0.10344824999999958
                },
                {
                    "name": "B4",
                    "midi": 71,
                    "time": 110.25859312499956,
                    "velocity": 0.7637795275590551,
                    "duration": 0.10344824999999958
                },
                {
                    "name": "C#5",
                    "midi": 73,
                    "time": 110.36204137499956,
                    "velocity": 0.7952755905511811,
                    "duration": 0.10344824999999958
                },
                {
                    "name": "D5",
                    "midi": 74,
                    "time": 110.46548962499956,
                    "velocity": 0.7322834645669292,
                    "duration": 0.10344824999999958
                },
                {
                    "name": "E5",
                    "midi": 76,
                    "time": 110.56893787499956,
                    "velocity": 0.7874015748031497,
                    "duration": 0.10344824999999958
                },
                {
                    "name": "F#5",
                    "midi": 78,
                    "time": 110.67238612499956,
                    "velocity": 0.7637795275590551,
                    "duration": 0.10344824999999958
                },
                {
                    "name": "G5",
                    "midi": 79,
                    "time": 110.77583437499956,
                    "velocity": 0.8031496062992126,
                    "duration": 0.10344824999999958
                },
                {
                    "name": "A5",
                    "midi": 81,
                    "time": 110.87928262499956,
                    "velocity": 0.7716535433070866,
                    "duration": 0.10344824999999958
                },
                {
                    "name": "B5",
                    "midi": 83,
                    "time": 110.98273087499956,
                    "velocity": 0.7165354330708661,
                    "duration": 0.10344824999999958
                },
                {
                    "name": "C6",
                    "midi": 84,
                    "time": 111.08617912499956,
                    "velocity": 0.7480314960629921,
                    "duration": 0.10344824999999958
                },
                {
                    "name": "D6",
                    "midi": 86,
                    "time": 111.18962737499956,
                    "velocity": 0.7007874015748031,
                    "duration": 0.10344824999999958
                },
                {
                    "name": "C6",
                    "midi": 84,
                    "time": 111.29307562499956,
                    "velocity": 0.7480314960629921,
                    "duration": 0.10344824999999958
                },
                {
                    "name": "B5",
                    "midi": 83,
                    "time": 111.39652387499956,
                    "velocity": 0.7952755905511811,
                    "duration": 0.10344824999999958
                },
                {
                    "name": "D6",
                    "midi": 86,
                    "time": 111.49997212499956,
                    "velocity": 0.7086614173228346,
                    "duration": 0.10344824999999958
                },
                {
                    "name": "B5",
                    "midi": 83,
                    "time": 111.60342037499956,
                    "velocity": 0.7637795275590551,
                    "duration": 0.10344824999999958
                },
                {
                    "name": "A5",
                    "midi": 81,
                    "time": 111.70686862499956,
                    "velocity": 0.7244094488188977,
                    "duration": 0.10344824999999958
                },
                {
                    "name": "G5",
                    "midi": 79,
                    "time": 111.81031687499956,
                    "velocity": 0.7165354330708661,
                    "duration": 0.10344824999999958
                },
                {
                    "name": "B5",
                    "midi": 83,
                    "time": 111.91376512499956,
                    "velocity": 0.7401574803149606,
                    "duration": 0.10344824999999958
                },
                {
                    "name": "G5",
                    "midi": 79,
                    "time": 112.01721337499956,
                    "velocity": 0.7795275590551181,
                    "duration": 0.10344824999999958
                },
                {
                    "name": "F#5",
                    "midi": 78,
                    "time": 112.12066162499956,
                    "velocity": 0.7086614173228346,
                    "duration": 0.10344824999999958
                },
                {
                    "name": "E5",
                    "midi": 76,
                    "time": 112.22410987499956,
                    "velocity": 0.7795275590551181,
                    "duration": 0.10344824999999958
                },
                {
                    "name": "G5",
                    "midi": 79,
                    "time": 112.32755812499956,
                    "velocity": 0.7480314960629921,
                    "duration": 0.10344824999999958
                },
                {
                    "name": "E5",
                    "midi": 76,
                    "time": 112.43100637499955,
                    "velocity": 0.8031496062992126,
                    "duration": 0.10344824999999958
                },
                {
                    "name": "D5",
                    "midi": 74,
                    "time": 112.53445462499955,
                    "velocity": 0.7007874015748031,
                    "duration": 0.10344824999999958
                },
                {
                    "name": "C#5",
                    "midi": 73,
                    "time": 112.63790287499955,
                    "velocity": 0.8031496062992126,
                    "duration": 0.10344824999999958
                },
                {
                    "name": "E5",
                    "midi": 76,
                    "time": 112.74135112499955,
                    "velocity": 0.7165354330708661,
                    "duration": 0.10344824999999958
                },
                {
                    "name": "C#5",
                    "midi": 73,
                    "time": 112.84479937499955,
                    "velocity": 0.7086614173228346,
                    "duration": 0.10344824999999958
                },
                {
                    "name": "D5",
                    "midi": 74,
                    "time": 112.94824762499955,
                    "velocity": 0.7086614173228346,
                    "duration": 0.10344824999999958
                },
                {
                    "name": "D4",
                    "midi": 62,
                    "time": 113.05169587499955,
                    "velocity": 0.7559055118110236,
                    "duration": 0.10344824999999958
                },
                {
                    "name": "E4",
                    "midi": 64,
                    "time": 113.15514412499955,
                    "velocity": 0.7637795275590551,
                    "duration": 0.10344824999999958
                },
                {
                    "name": "F#4",
                    "midi": 66,
                    "time": 113.25859237499955,
                    "velocity": 0.7322834645669292,
                    "duration": 0.10344824999999958
                },
                {
                    "name": "G4",
                    "midi": 67,
                    "time": 113.36204062499955,
                    "velocity": 0.7795275590551181,
                    "duration": 0.10344824999999958
                },
                {
                    "name": "A4",
                    "midi": 69,
                    "time": 113.46548887499955,
                    "velocity": 0.7401574803149606,
                    "duration": 0.10344824999999958
                },
                {
                    "name": "B4",
                    "midi": 71,
                    "time": 113.56893712499955,
                    "velocity": 0.8110236220472441,
                    "duration": 0.10344824999999958
                },
                {
                    "name": "C#5",
                    "midi": 73,
                    "time": 113.67238537499955,
                    "velocity": 0.7637795275590551,
                    "duration": 0.10344824999999958
                },
                {
                    "name": "D5",
                    "midi": 74,
                    "time": 113.77583362499955,
                    "velocity": 0.7244094488188977,
                    "duration": 0.10344824999999958
                },
                {
                    "name": "E5",
                    "midi": 76,
                    "time": 113.87928187499955,
                    "velocity": 0.7401574803149606,
                    "duration": 0.10344824999999958
                },
                {
                    "name": "F#5",
                    "midi": 78,
                    "time": 113.98273012499955,
                    "velocity": 0.7716535433070866,
                    "duration": 0.10344824999999958
                },
                {
                    "name": "G5",
                    "midi": 79,
                    "time": 114.08617837499955,
                    "velocity": 0.7165354330708661,
                    "duration": 0.10344824999999958
                },
                {
                    "name": "A5",
                    "midi": 81,
                    "time": 114.18962662499955,
                    "velocity": 0.7007874015748031,
                    "duration": 0.10344824999999958
                },
                {
                    "name": "F#5",
                    "midi": 78,
                    "time": 114.29307487499955,
                    "velocity": 0.7480314960629921,
                    "duration": 0.10344824999999958
                },
                {
                    "name": "D5",
                    "midi": 74,
                    "time": 114.39652312499955,
                    "velocity": 0.7637795275590551,
                    "duration": 0.10344824999999958
                },
                {
                    "name": "C5",
                    "midi": 72,
                    "time": 114.49997137499955,
                    "velocity": 0.7401574803149606,
                    "duration": 0.10344824999999958
                },
                {
                    "name": "C5",
                    "midi": 72,
                    "time": 114.60341962499955,
                    "velocity": 0.7244094488188977,
                    "duration": 0.10344824999999958
                },
                {
                    "name": "B4",
                    "midi": 71,
                    "time": 114.70686787499955,
                    "velocity": 0.7559055118110236,
                    "duration": 0.10344824999999958
                },
                {
                    "name": "D5",
                    "midi": 74,
                    "time": 114.81031612499955,
                    "velocity": 0.7322834645669292,
                    "duration": 0.10344824999999958
                },
                {
                    "name": "B4",
                    "midi": 71,
                    "time": 114.91376437499954,
                    "velocity": 0.7637795275590551,
                    "duration": 0.10344824999999958
                },
                {
                    "name": "A4",
                    "midi": 69,
                    "time": 115.01721262499954,
                    "velocity": 0.7559055118110236,
                    "duration": 0.10344824999999958
                },
                {
                    "name": "G4",
                    "midi": 67,
                    "time": 115.12066087499954,
                    "velocity": 0.7086614173228346,
                    "duration": 0.10344824999999958
                },
                {
                    "name": "B4",
                    "midi": 71,
                    "time": 115.22410912499954,
                    "velocity": 0.7559055118110236,
                    "duration": 0.10344824999999958
                },
                {
                    "name": "G4",
                    "midi": 67,
                    "time": 115.32755737499954,
                    "velocity": 0.7322834645669292,
                    "duration": 0.10344824999999958
                },
                {
                    "name": "F#4",
                    "midi": 66,
                    "time": 115.43100562499954,
                    "velocity": 0.7952755905511811,
                    "duration": 0.10344824999999958
                },
                {
                    "name": "E4",
                    "midi": 64,
                    "time": 115.53445387499954,
                    "velocity": 0.8110236220472441,
                    "duration": 0.10344824999999958
                },
                {
                    "name": "G4",
                    "midi": 67,
                    "time": 115.63790212499954,
                    "velocity": 0.7952755905511811,
                    "duration": 0.10344824999999958
                },
                {
                    "name": "E4",
                    "midi": 64,
                    "time": 115.74135037499954,
                    "velocity": 0.7401574803149606,
                    "duration": 0.10344824999999958
                },
                {
                    "name": "D4",
                    "midi": 62,
                    "time": 115.84479862499954,
                    "velocity": 0.7637795275590551,
                    "duration": 0.10344824999999958
                },
                {
                    "name": "C#4",
                    "midi": 61,
                    "time": 115.94824687499954,
                    "velocity": 0.7716535433070866,
                    "duration": 0.10344824999999958
                },
                {
                    "name": "E4",
                    "midi": 64,
                    "time": 116.05169512499954,
                    "velocity": 0.7401574803149606,
                    "duration": 0.10344824999999958
                },
                {
                    "name": "C#4",
                    "midi": 61,
                    "time": 116.15514337499954,
                    "velocity": 0.7165354330708661,
                    "duration": 0.10344824999999958
                },
                {
                    "name": "D4",
                    "midi": 62,
                    "time": 116.25859162499954,
                    "velocity": 0.7795275590551181,
                    "duration": 0.10344824999999958
                },
                {
                    "name": "F#4",
                    "midi": 66,
                    "time": 116.36203987499954,
                    "velocity": 0.8110236220472441,
                    "duration": 0.10344824999999958
                },
                {
                    "name": "A4",
                    "midi": 69,
                    "time": 116.46548812499954,
                    "velocity": 0.7716535433070866,
                    "duration": 0.10344824999999958
                },
                {
                    "name": "D5",
                    "midi": 74,
                    "time": 116.56893637499954,
                    "velocity": 0.7874015748031497,
                    "duration": 0.10344824999999958
                },
                {
                    "name": "C#5",
                    "midi": 73,
                    "time": 116.67238462499954,
                    "velocity": 0.7716535433070866,
                    "duration": 0.10344824999999958
                },
                {
                    "name": "E5",
                    "midi": 76,
                    "time": 116.77583287499954,
                    "velocity": 0.7086614173228346,
                    "duration": 0.10344824999999958
                },
                {
                    "name": "A5",
                    "midi": 81,
                    "time": 116.87928112499954,
                    "velocity": 0.7086614173228346,
                    "duration": 0.10344824999999958
                },
                {
                    "name": "G5",
                    "midi": 79,
                    "time": 116.98272937499954,
                    "velocity": 0.7401574803149606,
                    "duration": 0.10344824999999958
                },
                {
                    "name": "F#5",
                    "midi": 78,
                    "time": 117.08617762499954,
                    "velocity": 0.7244094488188977,
                    "duration": 0.10344824999999958
                },
                {
                    "name": "A5",
                    "midi": 81,
                    "time": 117.18962587499954,
                    "velocity": 0.7952755905511811,
                    "duration": 0.10344824999999958
                },
                {
                    "name": "F#5",
                    "midi": 78,
                    "time": 117.29307412499954,
                    "velocity": 0.7795275590551181,
                    "duration": 0.10344824999999958
                },
                {
                    "name": "D5",
                    "midi": 74,
                    "time": 117.39652237499953,
                    "velocity": 0.7244094488188977,
                    "duration": 0.10344824999999958
                },
                {
                    "name": "C#5",
                    "midi": 73,
                    "time": 117.49997062499953,
                    "velocity": 0.7952755905511811,
                    "duration": 0.10344824999999958
                },
                {
                    "name": "A4",
                    "midi": 69,
                    "time": 117.60341887499953,
                    "velocity": 0.8110236220472441,
                    "duration": 0.10344824999999958
                },
                {
                    "name": "G4",
                    "midi": 67,
                    "time": 117.70686712499953,
                    "velocity": 0.7007874015748031,
                    "duration": 0.10344824999999958
                },
                {
                    "name": "E4",
                    "midi": 64,
                    "time": 117.81031537499953,
                    "velocity": 0.7401574803149606,
                    "duration": 0.10344824999999958
                },
                {
                    "name": "D4",
                    "midi": 62,
                    "time": 117.91376362499953,
                    "velocity": 0.7480314960629921,
                    "duration": 0.10344824999999958
                },
                {
                    "name": "F#4",
                    "midi": 66,
                    "time": 118.01721187499953,
                    "velocity": 0.7637795275590551,
                    "duration": 0.10344824999999958
                },
                {
                    "name": "A4",
                    "midi": 69,
                    "time": 118.12066012499953,
                    "velocity": 0.7637795275590551,
                    "duration": 0.10344824999999958
                },
                {
                    "name": "D5",
                    "midi": 74,
                    "time": 118.22410837499953,
                    "velocity": 0.7086614173228346,
                    "duration": 0.10344824999999958
                },
                {
                    "name": "C#5",
                    "midi": 73,
                    "time": 118.32755662499953,
                    "velocity": 0.7480314960629921,
                    "duration": 0.10344824999999958
                },
                {
                    "name": "E5",
                    "midi": 76,
                    "time": 118.43100487499953,
                    "velocity": 0.7165354330708661,
                    "duration": 0.10344824999999958
                },
                {
                    "name": "A5",
                    "midi": 81,
                    "time": 118.53445312499953,
                    "velocity": 0.7559055118110236,
                    "duration": 0.10344824999999958
                },
                {
                    "name": "G5",
                    "midi": 79,
                    "time": 118.63790137499953,
                    "velocity": 0.8031496062992126,
                    "duration": 0.10344824999999958
                },
                {
                    "name": "F#5",
                    "midi": 78,
                    "time": 118.74134962499953,
                    "velocity": 0.7874015748031497,
                    "duration": 0.10344824999999958
                },
                {
                    "name": "A5",
                    "midi": 81,
                    "time": 118.84479787499953,
                    "velocity": 0.8110236220472441,
                    "duration": 0.10344824999999958
                },
                {
                    "name": "F#5",
                    "midi": 78,
                    "time": 118.94824612499953,
                    "velocity": 0.8110236220472441,
                    "duration": 0.10344824999999958
                },
                {
                    "name": "D5",
                    "midi": 74,
                    "time": 119.05169437499953,
                    "velocity": 0.7007874015748031,
                    "duration": 0.10344824999999958
                },
                {
                    "name": "C#5",
                    "midi": 73,
                    "time": 119.15514262499953,
                    "velocity": 0.8031496062992126,
                    "duration": 0.10344824999999958
                },
                {
                    "name": "A4",
                    "midi": 69,
                    "time": 119.25859087499953,
                    "velocity": 0.7637795275590551,
                    "duration": 0.10344824999999958
                },
                {
                    "name": "G4",
                    "midi": 67,
                    "time": 119.36203912499953,
                    "velocity": 0.7086614173228346,
                    "duration": 0.10344824999999958
                },
                {
                    "name": "E4",
                    "midi": 64,
                    "time": 119.46548737499953,
                    "velocity": 0.7795275590551181,
                    "duration": 0.10344824999999958
                },
                {
                    "name": "D4",
                    "midi": 62,
                    "time": 119.56893562499953,
                    "velocity": 0.7244094488188977,
                    "duration": 0.10344824999999958
                },
                {
                    "name": "F#4",
                    "midi": 66,
                    "time": 119.67238387499953,
                    "velocity": 0.7244094488188977,
                    "duration": 0.10344824999999958
                },
                {
                    "name": "A4",
                    "midi": 69,
                    "time": 119.77583212499952,
                    "velocity": 0.7559055118110236,
                    "duration": 0.10344824999999958
                },
                {
                    "name": "D5",
                    "midi": 74,
                    "time": 119.87928037499952,
                    "velocity": 0.7952755905511811,
                    "duration": 0.10344824999999958
                },
                {
                    "name": "F#5",
                    "midi": 78,
                    "time": 119.98272862499952,
                    "velocity": 0.7716535433070866,
                    "duration": 0.10344824999999958
                },
                {
                    "name": "A5",
                    "midi": 81,
                    "time": 120.08617687499952,
                    "velocity": 0.7007874015748031,
                    "duration": 0.10344824999999958
                },
                {
                    "name": "C#6",
                    "midi": 85,
                    "time": 120.18962512499952,
                    "velocity": 0.7874015748031497,
                    "duration": 0.10344824999999958
                },
                {
                    "name": "D6",
                    "midi": 86,
                    "time": 120.29307337499952,
                    "velocity": 0.7244094488188977,
                    "duration": 0.10344824999999958
                },
                {
                    "name": "C6",
                    "midi": 84,
                    "time": 120.39652162499952,
                    "velocity": 0.7165354330708661,
                    "duration": 0.10344824999999958
                },
                {
                    "name": "B5",
                    "midi": 83,
                    "time": 120.49996987499952,
                    "velocity": 0.7795275590551181,
                    "duration": 0.10344824999999958
                },
                {
                    "name": "A5",
                    "midi": 81,
                    "time": 120.60341812499952,
                    "velocity": 0.7637795275590551,
                    "duration": 0.10344824999999958
                },
                {
                    "name": "G5",
                    "midi": 79,
                    "time": 120.70686637499952,
                    "velocity": 0.7874015748031497,
                    "duration": 0.10344824999999958
                },
                {
                    "name": "F#5",
                    "midi": 78,
                    "time": 120.81031462499952,
                    "velocity": 0.7559055118110236,
                    "duration": 0.10344824999999958
                },
                {
                    "name": "E5",
                    "midi": 76,
                    "time": 120.91376287499952,
                    "velocity": 0.7952755905511811,
                    "duration": 0.10344824999999958
                },
                {
                    "name": "D5",
                    "midi": 74,
                    "time": 121.01721112499952,
                    "velocity": 0.7401574803149606,
                    "duration": 0.10344824999999958
                },
                {
                    "name": "C5",
                    "midi": 72,
                    "time": 121.12065937499952,
                    "velocity": 0.7480314960629921,
                    "duration": 0.10344824999999958
                },
                {
                    "name": "B4",
                    "midi": 71,
                    "time": 121.22410762499952,
                    "velocity": 0.7244094488188977,
                    "duration": 0.10344824999999958
                },
                {
                    "name": "C5",
                    "midi": 72,
                    "time": 121.32755587499952,
                    "velocity": 0.7322834645669292,
                    "duration": 0.10344824999999958
                },
                {
                    "name": "D5",
                    "midi": 74,
                    "time": 121.43100412499952,
                    "velocity": 0.7007874015748031,
                    "duration": 0.10344824999999958
                },
                {
                    "name": "E5",
                    "midi": 76,
                    "time": 121.53445237499952,
                    "velocity": 0.7086614173228346,
                    "duration": 0.10344824999999958
                },
                {
                    "name": "F#5",
                    "midi": 78,
                    "time": 121.63790062499952,
                    "velocity": 0.8110236220472441,
                    "duration": 0.10344824999999958
                },
                {
                    "name": "G5",
                    "midi": 79,
                    "time": 121.74134887499952,
                    "velocity": 0.7480314960629921,
                    "duration": 0.10344824999999958
                },
                {
                    "name": "A5",
                    "midi": 81,
                    "time": 121.84479712499952,
                    "velocity": 0.7165354330708661,
                    "duration": 0.10344824999999958
                },
                {
                    "name": "B5",
                    "midi": 83,
                    "time": 121.94824537499952,
                    "velocity": 0.7480314960629921,
                    "duration": 0.10344824999999958
                },
                {
                    "name": "A5",
                    "midi": 81,
                    "time": 122.05169362499952,
                    "velocity": 0.7716535433070866,
                    "duration": 0.10344824999999958
                },
                {
                    "name": "G5",
                    "midi": 79,
                    "time": 122.15514187499952,
                    "velocity": 0.7637795275590551,
                    "duration": 0.10344824999999958
                },
                {
                    "name": "F#5",
                    "midi": 78,
                    "time": 122.25859012499951,
                    "velocity": 0.8110236220472441,
                    "duration": 0.10344824999999958
                },
                {
                    "name": "E5",
                    "midi": 76,
                    "time": 122.36203837499951,
                    "velocity": 0.7165354330708661,
                    "duration": 0.10344824999999958
                },
                {
                    "name": "D#5",
                    "midi": 75,
                    "time": 122.46548662499951,
                    "velocity": 0.7874015748031497,
                    "duration": 0.10344824999999958
                },
                {
                    "name": "C5",
                    "midi": 72,
                    "time": 122.56893487499951,
                    "velocity": 0.7716535433070866,
                    "duration": 0.10344824999999958
                },
                {
                    "name": "B4",
                    "midi": 71,
                    "time": 122.67238312499951,
                    "velocity": 0.8031496062992126,
                    "duration": 0.10344824999999958
                },
                {
                    "name": "A4",
                    "midi": 69,
                    "time": 122.77583137499951,
                    "velocity": 0.7795275590551181,
                    "duration": 0.10344824999999958
                },
                {
                    "name": "G4",
                    "midi": 67,
                    "time": 122.87927962499951,
                    "velocity": 0.7795275590551181,
                    "duration": 0.10344824999999958
                },
                {
                    "name": "A4",
                    "midi": 69,
                    "time": 122.98272787499951,
                    "velocity": 0.7401574803149606,
                    "duration": 0.10344824999999958
                },
                {
                    "name": "B4",
                    "midi": 71,
                    "time": 123.08617612499951,
                    "velocity": 0.7716535433070866,
                    "duration": 0.10344824999999958
                },
                {
                    "name": "C#5",
                    "midi": 73,
                    "time": 123.18962437499951,
                    "velocity": 0.8110236220472441,
                    "duration": 0.10344824999999958
                },
                {
                    "name": "D#5",
                    "midi": 75,
                    "time": 123.29307262499951,
                    "velocity": 0.7874015748031497,
                    "duration": 0.10344824999999958
                },
                {
                    "name": "E5",
                    "midi": 76,
                    "time": 123.39652087499951,
                    "velocity": 0.7952755905511811,
                    "duration": 0.10344824999999958
                },
                {
                    "name": "F#5",
                    "midi": 78,
                    "time": 123.49996912499951,
                    "velocity": 0.7480314960629921,
                    "duration": 0.10344824999999958
                },
                {
                    "name": "G5",
                    "midi": 79,
                    "time": 123.60341737499951,
                    "velocity": 0.7480314960629921,
                    "duration": 0.10344824999999958
                },
                {
                    "name": "F5",
                    "midi": 77,
                    "time": 123.70686562499951,
                    "velocity": 0.7244094488188977,
                    "duration": 0.10344824999999958
                },
                {
                    "name": "E5",
                    "midi": 76,
                    "time": 123.81031387499951,
                    "velocity": 0.7322834645669292,
                    "duration": 0.10344824999999958
                },
                {
                    "name": "D5",
                    "midi": 74,
                    "time": 123.91376212499951,
                    "velocity": 0.7322834645669292,
                    "duration": 0.10344824999999958
                },
                {
                    "name": "C5",
                    "midi": 72,
                    "time": 124.01721037499951,
                    "velocity": 0.7401574803149606,
                    "duration": 0.10344824999999958
                },
                {
                    "name": "B4",
                    "midi": 71,
                    "time": 124.1206586249995,
                    "velocity": 0.7952755905511811,
                    "duration": 0.10344824999999958
                },
                {
                    "name": "A4",
                    "midi": 69,
                    "time": 124.2241068749995,
                    "velocity": 0.7322834645669292,
                    "duration": 0.10344824999999958
                },
                {
                    "name": "G4",
                    "midi": 67,
                    "time": 124.3275551249995,
                    "velocity": 0.7480314960629921,
                    "duration": 0.10344824999999958
                },
                {
                    "name": "F4",
                    "midi": 65,
                    "time": 124.4310033749995,
                    "velocity": 0.8031496062992126,
                    "duration": 0.10344824999999958
                },
                {
                    "name": "E4",
                    "midi": 64,
                    "time": 124.5344516249995,
                    "velocity": 0.7795275590551181,
                    "duration": 0.10344824999999958
                },
                {
                    "name": "F#4",
                    "midi": 66,
                    "time": 124.6378998749995,
                    "velocity": 0.7165354330708661,
                    "duration": 0.10344824999999958
                },
                {
                    "name": "G4",
                    "midi": 67,
                    "time": 124.7413481249995,
                    "velocity": 0.8110236220472441,
                    "duration": 0.10344824999999958
                },
                {
                    "name": "A4",
                    "midi": 69,
                    "time": 124.8447963749995,
                    "velocity": 0.7086614173228346,
                    "duration": 0.10344824999999958
                },
                {
                    "name": "B4",
                    "midi": 71,
                    "time": 124.9482446249995,
                    "velocity": 0.8031496062992126,
                    "duration": 0.10344824999999958
                },
                {
                    "name": "C5",
                    "midi": 72,
                    "time": 125.0516928749995,
                    "velocity": 0.7716535433070866,
                    "duration": 0.10344824999999958
                },
                {
                    "name": "D5",
                    "midi": 74,
                    "time": 125.1551411249995,
                    "velocity": 0.7086614173228346,
                    "duration": 0.10344824999999958
                },
                {
                    "name": "E5",
                    "midi": 76,
                    "time": 125.2585893749995,
                    "velocity": 0.7952755905511811,
                    "duration": 0.10344824999999958
                },
                {
                    "name": "E5",
                    "midi": 76,
                    "time": 125.3620376249995,
                    "velocity": 0.7874015748031497,
                    "duration": 0.10344824999999958
                },
                {
                    "name": "D5",
                    "midi": 74,
                    "time": 125.4654858749995,
                    "velocity": 0.8031496062992126,
                    "duration": 0.10344824999999958
                },
                {
                    "name": "B4",
                    "midi": 71,
                    "time": 125.5689341249995,
                    "velocity": 0.7480314960629921,
                    "duration": 0.10344824999999958
                },
                {
                    "name": "D5",
                    "midi": 74,
                    "time": 125.6723823749995,
                    "velocity": 0.7086614173228346,
                    "duration": 0.10344824999999958
                },
                {
                    "name": "D5",
                    "midi": 74,
                    "time": 125.7758306249995,
                    "velocity": 0.7559055118110236,
                    "duration": 0.10344824999999958
                },
                {
                    "name": "C5",
                    "midi": 72,
                    "time": 125.8792788749995,
                    "velocity": 0.7165354330708661,
                    "duration": 0.10344824999999958
                },
                {
                    "name": "B4",
                    "midi": 71,
                    "time": 125.9827271249995,
                    "velocity": 0.7480314960629921,
                    "duration": 0.10344824999999958
                },
                {
                    "name": "A4",
                    "midi": 69,
                    "time": 126.0861753749995,
                    "velocity": 0.7086614173228346,
                    "duration": 0.10344824999999958
                },
                {
                    "name": "G4",
                    "midi": 67,
                    "time": 126.1896236249995,
                    "velocity": 0.8031496062992126,
                    "duration": 0.10344824999999958
                },
                {
                    "name": "D6",
                    "midi": 86,
                    "time": 126.2930718749995,
                    "velocity": 0.7637795275590551,
                    "duration": 0.10344824999999958
                },
                {
                    "name": "B5",
                    "midi": 83,
                    "time": 126.3965201249995,
                    "velocity": 0.7322834645669292,
                    "duration": 0.10344824999999958
                },
                {
                    "name": "A5",
                    "midi": 81,
                    "time": 126.4999683749995,
                    "velocity": 0.7165354330708661,
                    "duration": 0.10344824999999958
                },
                {
                    "name": "G#5",
                    "midi": 80,
                    "time": 126.6034166249995,
                    "velocity": 0.7086614173228346,
                    "duration": 0.10344824999999958
                },
                {
                    "name": "B5",
                    "midi": 83,
                    "time": 126.7068648749995,
                    "velocity": 0.8110236220472441,
                    "duration": 0.10344824999999958
                },
                {
                    "name": "E5",
                    "midi": 76,
                    "time": 126.8103131249995,
                    "velocity": 0.7401574803149606,
                    "duration": 0.10344824999999958
                },
                {
                    "name": "G#5",
                    "midi": 80,
                    "time": 126.9137613749995,
                    "velocity": 0.7244094488188977,
                    "duration": 0.10344824999999958
                },
                {
                    "name": "A5",
                    "midi": 81,
                    "time": 127.0172096249995,
                    "velocity": 0.7401574803149606,
                    "duration": 0.10344824999999958
                },
                {
                    "name": "C6",
                    "midi": 84,
                    "time": 127.1206578749995,
                    "velocity": 0.7559055118110236,
                    "duration": 0.10344824999999958
                },
                {
                    "name": "A5",
                    "midi": 81,
                    "time": 127.2241061249995,
                    "velocity": 0.7401574803149606,
                    "duration": 0.10344824999999958
                },
                {
                    "name": "G5",
                    "midi": 79,
                    "time": 127.3275543749995,
                    "velocity": 0.7559055118110236,
                    "duration": 0.10344824999999958
                },
                {
                    "name": "F#5",
                    "midi": 78,
                    "time": 127.4310026249995,
                    "velocity": 0.8110236220472441,
                    "duration": 0.10344824999999958
                },
                {
                    "name": "A5",
                    "midi": 81,
                    "time": 127.5344508749995,
                    "velocity": 0.7007874015748031,
                    "duration": 0.10344824999999958
                },
                {
                    "name": "D5",
                    "midi": 74,
                    "time": 127.63789912499949,
                    "velocity": 0.7322834645669292,
                    "duration": 0.10344824999999958
                },
                {
                    "name": "F#5",
                    "midi": 78,
                    "time": 127.74134737499949,
                    "velocity": 0.7637795275590551,
                    "duration": 0.10344824999999958
                },
                {
                    "name": "G5",
                    "midi": 79,
                    "time": 127.84479562499949,
                    "velocity": 0.7007874015748031,
                    "duration": 0.10344824999999958
                },
                {
                    "name": "B5",
                    "midi": 83,
                    "time": 127.94824387499949,
                    "velocity": 0.7559055118110236,
                    "duration": 0.10344825000001379
                },
                {
                    "name": "G5",
                    "midi": 79,
                    "time": 128.0516921249995,
                    "velocity": 0.7401574803149606,
                    "duration": 0.10344825000001379
                },
                {
                    "name": "F#5",
                    "midi": 78,
                    "time": 128.15514037499952,
                    "velocity": 0.7165354330708661,
                    "duration": 0.10344825000001379
                },
                {
                    "name": "E5",
                    "midi": 76,
                    "time": 128.25858862499953,
                    "velocity": 0.8031496062992126,
                    "duration": 0.10344825000001379
                },
                {
                    "name": "G5",
                    "midi": 79,
                    "time": 128.36203687499955,
                    "velocity": 0.7637795275590551,
                    "duration": 0.10344825000001379
                },
                {
                    "name": "C5",
                    "midi": 72,
                    "time": 128.46548512499956,
                    "velocity": 0.7637795275590551,
                    "duration": 0.10344825000001379
                },
                {
                    "name": "E5",
                    "midi": 76,
                    "time": 128.56893337499957,
                    "velocity": 0.7559055118110236,
                    "duration": 0.10344825000001379
                },
                {
                    "name": "F#5",
                    "midi": 78,
                    "time": 128.6723816249996,
                    "velocity": 0.7086614173228346,
                    "duration": 0.10344825000001379
                },
                {
                    "name": "A5",
                    "midi": 81,
                    "time": 128.7758298749996,
                    "velocity": 0.7086614173228346,
                    "duration": 0.10344825000001379
                },
                {
                    "name": "F#5",
                    "midi": 78,
                    "time": 128.87927812499962,
                    "velocity": 0.7401574803149606,
                    "duration": 0.10344825000001379
                },
                {
                    "name": "E5",
                    "midi": 76,
                    "time": 128.98272637499963,
                    "velocity": 0.7165354330708661,
                    "duration": 0.10344825000001379
                },
                {
                    "name": "D#5",
                    "midi": 75,
                    "time": 129.08617462499964,
                    "velocity": 0.7637795275590551,
                    "duration": 0.10344825000001379
                },
                {
                    "name": "F#5",
                    "midi": 78,
                    "time": 129.18962287499966,
                    "velocity": 0.7795275590551181,
                    "duration": 0.10344825000001379
                },
                {
                    "name": "B4",
                    "midi": 71,
                    "time": 129.29307112499967,
                    "velocity": 0.7559055118110236,
                    "duration": 0.10344825000001379
                },
                {
                    "name": "D#5",
                    "midi": 75,
                    "time": 129.39651937499968,
                    "velocity": 0.7322834645669292,
                    "duration": 0.10344825000001379
                },
                {
                    "name": "E5",
                    "midi": 76,
                    "time": 129.4999676249997,
                    "velocity": 0.8031496062992126,
                    "duration": 0.10344825000001379
                },
                {
                    "name": "G5",
                    "midi": 79,
                    "time": 129.6034158749997,
                    "velocity": 0.7007874015748031,
                    "duration": 0.10344825000001379
                },
                {
                    "name": "E5",
                    "midi": 76,
                    "time": 129.70686412499973,
                    "velocity": 0.7952755905511811,
                    "duration": 0.10344825000001379
                },
                {
                    "name": "D5",
                    "midi": 74,
                    "time": 129.81031237499974,
                    "velocity": 0.7007874015748031,
                    "duration": 0.10344825000001379
                },
                {
                    "name": "C#5",
                    "midi": 73,
                    "time": 129.91376062499975,
                    "velocity": 0.7322834645669292,
                    "duration": 0.10344825000001379
                },
                {
                    "name": "E5",
                    "midi": 76,
                    "time": 130.01720887499977,
                    "velocity": 0.7952755905511811,
                    "duration": 0.10344825000001379
                },
                {
                    "name": "A4",
                    "midi": 69,
                    "time": 130.12065712499978,
                    "velocity": 0.7322834645669292,
                    "duration": 0.10344825000001379
                },
                {
                    "name": "C#5",
                    "midi": 73,
                    "time": 130.2241053749998,
                    "velocity": 0.7480314960629921,
                    "duration": 0.10344825000001379
                },
                {
                    "name": "D5",
                    "midi": 74,
                    "time": 130.3275536249998,
                    "velocity": 0.8031496062992126,
                    "duration": 0.10344825000001379
                },
                {
                    "name": "E5",
                    "midi": 76,
                    "time": 130.43100187499982,
                    "velocity": 0.7874015748031497,
                    "duration": 0.10344825000001379
                },
                {
                    "name": "F#5",
                    "midi": 78,
                    "time": 130.53445012499984,
                    "velocity": 0.7952755905511811,
                    "duration": 0.10344825000001379
                },
                {
                    "name": "G5",
                    "midi": 79,
                    "time": 130.63789837499985,
                    "velocity": 0.7952755905511811,
                    "duration": 0.10344825000001379
                },
                {
                    "name": "A5",
                    "midi": 81,
                    "time": 130.74134662499986,
                    "velocity": 0.7322834645669292,
                    "duration": 0.10344825000001379
                },
                {
                    "name": "B5",
                    "midi": 83,
                    "time": 130.84479487499988,
                    "velocity": 0.7165354330708661,
                    "duration": 0.10344825000001379
                },
                {
                    "name": "C6",
                    "midi": 84,
                    "time": 130.9482431249999,
                    "velocity": 0.7007874015748031,
                    "duration": 0.10344825000001379
                },
                {
                    "name": "D6",
                    "midi": 86,
                    "time": 131.0516913749999,
                    "velocity": 0.7165354330708661,
                    "duration": 0.10344825000001379
                },
                {
                    "name": "C6",
                    "midi": 84,
                    "time": 131.15513962499992,
                    "velocity": 0.7637795275590551,
                    "duration": 0.10344825000001379
                },
                {
                    "name": "B5",
                    "midi": 83,
                    "time": 131.25858787499993,
                    "velocity": 0.8110236220472441,
                    "duration": 0.10344825000001379
                },
                {
                    "name": "D6",
                    "midi": 86,
                    "time": 131.36203612499995,
                    "velocity": 0.7244094488188977,
                    "duration": 0.10344825000001379
                },
                {
                    "name": "B5",
                    "midi": 83,
                    "time": 131.46548437499996,
                    "velocity": 0.7874015748031497,
                    "duration": 0.10344825000001379
                },
                {
                    "name": "B5",
                    "midi": 83,
                    "time": 131.56893262499997,
                    "velocity": 0.7401574803149606,
                    "duration": 0.10344825000001379
                },
                {
                    "name": "A5",
                    "midi": 81,
                    "time": 131.672380875,
                    "velocity": 0.7874015748031497,
                    "duration": 0.10344825000001379
                },
                {
                    "name": "C6",
                    "midi": 84,
                    "time": 131.775829125,
                    "velocity": 0.7559055118110236,
                    "duration": 0.10344825000001379
                },
                {
                    "name": "A5",
                    "midi": 81,
                    "time": 131.87927737500002,
                    "velocity": 0.8110236220472441,
                    "duration": 0.10344825000001379
                },
                {
                    "name": "A5",
                    "midi": 81,
                    "time": 131.98272562500003,
                    "velocity": 0.7007874015748031,
                    "duration": 0.10344825000001379
                },
                {
                    "name": "G5",
                    "midi": 79,
                    "time": 132.08617387500004,
                    "velocity": 0.7559055118110236,
                    "duration": 0.10344825000001379
                },
                {
                    "name": "B5",
                    "midi": 83,
                    "time": 132.18962212500006,
                    "velocity": 0.7086614173228346,
                    "duration": 0.10344825000001379
                },
                {
                    "name": "G5",
                    "midi": 79,
                    "time": 132.29307037500007,
                    "velocity": 0.7716535433070866,
                    "duration": 0.10344825000001379
                },
                {
                    "name": "G5",
                    "midi": 79,
                    "time": 132.39651862500008,
                    "velocity": 0.7795275590551181,
                    "duration": 0.10344825000001379
                },
                {
                    "name": "F#5",
                    "midi": 78,
                    "time": 132.4999668750001,
                    "velocity": 0.7322834645669292,
                    "duration": 0.10344825000001379
                },
                {
                    "name": "A5",
                    "midi": 81,
                    "time": 132.6034151250001,
                    "velocity": 0.7165354330708661,
                    "duration": 0.10344825000001379
                },
                {
                    "name": "F#5",
                    "midi": 78,
                    "time": 132.70686337500013,
                    "velocity": 0.7795275590551181,
                    "duration": 0.10344825000001379
                },
                {
                    "name": "G5",
                    "midi": 79,
                    "time": 132.81031162500014,
                    "velocity": 0.7637795275590551,
                    "duration": 0.10344825000001379
                },
                {
                    "name": "D5",
                    "midi": 74,
                    "time": 132.91375987500015,
                    "velocity": 0.7165354330708661,
                    "duration": 0.10344825000001379
                },
                {
                    "name": "B4",
                    "midi": 71,
                    "time": 133.01720812500017,
                    "velocity": 0.7480314960629921,
                    "duration": 0.10344825000001379
                },
                {
                    "name": "A4",
                    "midi": 69,
                    "time": 133.12065637500018,
                    "velocity": 0.7480314960629921,
                    "duration": 0.10344825000001379
                },
                {
                    "name": "G#4",
                    "midi": 68,
                    "time": 133.2241046250002,
                    "velocity": 0.7007874015748031,
                    "duration": 0.10344825000001379
                },
                {
                    "name": "F5",
                    "midi": 77,
                    "time": 133.3275528750002,
                    "velocity": 0.7874015748031497,
                    "duration": 0.10344825000001379
                },
                {
                    "name": "E5",
                    "midi": 76,
                    "time": 133.43100112500022,
                    "velocity": 0.7795275590551181,
                    "duration": 0.10344825000001379
                },
                {
                    "name": "D5",
                    "midi": 74,
                    "time": 133.53444937500024,
                    "velocity": 0.8031496062992126,
                    "duration": 0.10344825000001379
                },
                {
                    "name": "C5",
                    "midi": 72,
                    "time": 133.63789762500025,
                    "velocity": 0.8031496062992126,
                    "duration": 0.10344825000001379
                },
                {
                    "name": "B4",
                    "midi": 71,
                    "time": 133.74134587500026,
                    "velocity": 0.7244094488188977,
                    "duration": 0.10344825000001379
                },
                {
                    "name": "A4",
                    "midi": 69,
                    "time": 133.84479412500028,
                    "velocity": 0.7007874015748031,
                    "duration": 0.10344825000001379
                },
                {
                    "name": "G4",
                    "midi": 67,
                    "time": 133.9482423750003,
                    "velocity": 0.8031496062992126,
                    "duration": 0.10344825000001379
                },
                {
                    "name": "F#4",
                    "midi": 66,
                    "time": 134.0516906250003,
                    "velocity": 0.7559055118110236,
                    "duration": 0.10344825000001379
                },
                {
                    "name": "E5",
                    "midi": 76,
                    "time": 134.15513887500032,
                    "velocity": 0.7007874015748031,
                    "duration": 0.10344825000001379
                },
                {
                    "name": "D5",
                    "midi": 74,
                    "time": 134.25858712500033,
                    "velocity": 0.7086614173228346,
                    "duration": 0.10344825000001379
                },
                {
                    "name": "C5",
                    "midi": 72,
                    "time": 134.36203537500035,
                    "velocity": 0.7165354330708661,
                    "duration": 0.10344825000001379
                },
                {
                    "name": "B4",
                    "midi": 71,
                    "time": 134.46548362500036,
                    "velocity": 0.7480314960629921,
                    "duration": 0.10344825000001379
                },
                {
                    "name": "A4",
                    "midi": 69,
                    "time": 134.56893187500037,
                    "velocity": 0.7244094488188977,
                    "duration": 0.10344825000001379
                },
                {
                    "name": "G4",
                    "midi": 67,
                    "time": 134.6723801250004,
                    "velocity": 0.7637795275590551,
                    "duration": 0.10344825000001379
                },
                {
                    "name": "F#4",
                    "midi": 66,
                    "time": 134.7758283750004,
                    "velocity": 0.8031496062992126,
                    "duration": 0.10344825000001379
                },
                {
                    "name": "E4",
                    "midi": 64,
                    "time": 134.87927662500041,
                    "velocity": 0.7637795275590551,
                    "duration": 0.10344825000001379
                },
                {
                    "name": "D5",
                    "midi": 74,
                    "time": 134.98272487500043,
                    "velocity": 0.7795275590551181,
                    "duration": 0.10344825000001379
                },
                {
                    "name": "C5",
                    "midi": 72,
                    "time": 135.08617312500044,
                    "velocity": 0.7401574803149606,
                    "duration": 0.10344825000001379
                },
                {
                    "name": "B4",
                    "midi": 71,
                    "time": 135.18962137500046,
                    "velocity": 0.7007874015748031,
                    "duration": 0.10344825000001379
                },
                {
                    "name": "A4",
                    "midi": 69,
                    "time": 135.29306962500047,
                    "velocity": 0.7716535433070866,
                    "duration": 0.10344825000001379
                },
                {
                    "name": "G4",
                    "midi": 67,
                    "time": 135.39651787500048,
                    "velocity": 0.7559055118110236,
                    "duration": 0.10344825000001379
                },
                {
                    "name": "F#4",
                    "midi": 66,
                    "time": 135.4999661250005,
                    "velocity": 0.7637795275590551,
                    "duration": 0.10344825000001379
                },
                {
                    "name": "E4",
                    "midi": 64,
                    "time": 135.6034143750005,
                    "velocity": 0.7952755905511811,
                    "duration": 0.10344825000001379
                },
                {
                    "name": "D#4",
                    "midi": 63,
                    "time": 135.70686262500053,
                    "velocity": 0.7086614173228346,
                    "duration": 0.10344825000001379
                },
                {
                    "name": "C5",
                    "midi": 72,
                    "time": 135.81031087500054,
                    "velocity": 0.7244094488188977,
                    "duration": 0.10344825000001379
                },
                {
                    "name": "B4",
                    "midi": 71,
                    "time": 135.91375912500055,
                    "velocity": 0.7716535433070866,
                    "duration": 0.10344825000001379
                },
                {
                    "name": "A4",
                    "midi": 69,
                    "time": 136.01720737500057,
                    "velocity": 0.7244094488188977,
                    "duration": 0.10344825000001379
                },
                {
                    "name": "G4",
                    "midi": 67,
                    "time": 136.12065562500058,
                    "velocity": 0.7165354330708661,
                    "duration": 0.10344825000001379
                },
                {
                    "name": "F#4",
                    "midi": 66,
                    "time": 136.2241038750006,
                    "velocity": 0.7559055118110236,
                    "duration": 0.10344825000001379
                },
                {
                    "name": "E4",
                    "midi": 64,
                    "time": 136.3275521250006,
                    "velocity": 0.7244094488188977,
                    "duration": 0.10344825000001379
                },
                {
                    "name": "D4",
                    "midi": 62,
                    "time": 136.43100037500062,
                    "velocity": 0.8031496062992126,
                    "duration": 0.10344825000001379
                },
                {
                    "name": "C#4",
                    "midi": 61,
                    "time": 136.53444862500064,
                    "velocity": 0.7637795275590551,
                    "duration": 0.10344825000001379
                },
                {
                    "name": "B4",
                    "midi": 71,
                    "time": 136.63789687500065,
                    "velocity": 0.7952755905511811,
                    "duration": 0.10344825000001379
                },
                {
                    "name": "A4",
                    "midi": 69,
                    "time": 136.74134512500066,
                    "velocity": 0.7952755905511811,
                    "duration": 0.10344825000001379
                },
                {
                    "name": "G4",
                    "midi": 67,
                    "time": 136.84479337500068,
                    "velocity": 0.7874015748031497,
                    "duration": 0.10344825000001379
                },
                {
                    "name": "F#4",
                    "midi": 66,
                    "time": 136.9482416250007,
                    "velocity": 0.7874015748031497,
                    "duration": 0.10344825000001379
                },
                {
                    "name": "D4",
                    "midi": 62,
                    "time": 137.0516898750007,
                    "velocity": 0.7637795275590551,
                    "duration": 0.10344825000001379
                },
                {
                    "name": "E4",
                    "midi": 64,
                    "time": 137.15513812500072,
                    "velocity": 0.7874015748031497,
                    "duration": 0.10344825000001379
                },
                {
                    "name": "F#4",
                    "midi": 66,
                    "time": 137.25858637500073,
                    "velocity": 0.7086614173228346,
                    "duration": 0.10344825000001379
                },
                {
                    "name": "G4",
                    "midi": 67,
                    "time": 137.36203462500075,
                    "velocity": 0.7637795275590551,
                    "duration": 0.10344825000001379
                },
                {
                    "name": "A4",
                    "midi": 69,
                    "time": 137.46548287500076,
                    "velocity": 0.7559055118110236,
                    "duration": 0.10344825000001379
                },
                {
                    "name": "B4",
                    "midi": 71,
                    "time": 137.56893112500077,
                    "velocity": 0.8110236220472441,
                    "duration": 0.10344825000001379
                },
                {
                    "name": "C5",
                    "midi": 72,
                    "time": 137.6723793750008,
                    "velocity": 0.7637795275590551,
                    "duration": 0.10344825000001379
                },
                {
                    "name": "D5",
                    "midi": 74,
                    "time": 137.7758276250008,
                    "velocity": 0.7086614173228346,
                    "duration": 0.10344825000001379
                },
                {
                    "name": "E5",
                    "midi": 76,
                    "time": 137.87927587500081,
                    "velocity": 0.7007874015748031,
                    "duration": 0.10344825000001379
                },
                {
                    "name": "D5",
                    "midi": 74,
                    "time": 137.98272412500083,
                    "velocity": 0.7086614173228346,
                    "duration": 0.10344825000001379
                },
                {
                    "name": "B4",
                    "midi": 71,
                    "time": 138.08617237500084,
                    "velocity": 0.8110236220472441,
                    "duration": 0.10344825000001379
                },
                {
                    "name": "C5",
                    "midi": 72,
                    "time": 138.18962062500086,
                    "velocity": 0.7401574803149606,
                    "duration": 0.10344825000001379
                },
                {
                    "name": "D5",
                    "midi": 74,
                    "time": 138.29306887500087,
                    "velocity": 0.7716535433070866,
                    "duration": 0.10344825000001379
                },
                {
                    "name": "C5",
                    "midi": 72,
                    "time": 138.39651712500088,
                    "velocity": 0.7637795275590551,
                    "duration": 0.10344825000001379
                },
                {
                    "name": "A4",
                    "midi": 69,
                    "time": 138.4999653750009,
                    "velocity": 0.7637795275590551,
                    "duration": 0.10344825000001379
                },
                {
                    "name": "B4",
                    "midi": 71,
                    "time": 138.6034136250009,
                    "velocity": 0.7244094488188977,
                    "duration": 0.10344825000001379
                },
                {
                    "name": "C5",
                    "midi": 72,
                    "time": 138.70686187500093,
                    "velocity": 0.7716535433070866,
                    "duration": 0.10344825000001379
                },
                {
                    "name": "B4",
                    "midi": 71,
                    "time": 138.81031012500094,
                    "velocity": 0.7007874015748031,
                    "duration": 0.10344825000001379
                },
                {
                    "name": "G4",
                    "midi": 67,
                    "time": 138.91375837500095,
                    "velocity": 0.7007874015748031,
                    "duration": 0.10344825000001379
                },
                {
                    "name": "A4",
                    "midi": 69,
                    "time": 139.01720662500097,
                    "velocity": 0.7007874015748031,
                    "duration": 0.10344825000001379
                },
                {
                    "name": "B4",
                    "midi": 71,
                    "time": 139.12065487500098,
                    "velocity": 0.7244094488188977,
                    "duration": 0.10344825000001379
                },
                {
                    "name": "A4",
                    "midi": 69,
                    "time": 139.224103125001,
                    "velocity": 0.7244094488188977,
                    "duration": 0.10344825000001379
                },
                {
                    "name": "F#4",
                    "midi": 66,
                    "time": 139.327551375001,
                    "velocity": 0.7874015748031497,
                    "duration": 0.10344825000001379
                },
                {
                    "name": "G4",
                    "midi": 67,
                    "time": 139.43099962500102,
                    "velocity": 0.7637795275590551,
                    "duration": 0.10344825000001379
                },
                {
                    "name": "B4",
                    "midi": 71,
                    "time": 139.53444787500104,
                    "velocity": 0.7716535433070866,
                    "duration": 0.10344825000001379
                },
                {
                    "name": "D5",
                    "midi": 74,
                    "time": 139.63789612500105,
                    "velocity": 0.7401574803149606,
                    "duration": 0.10344825000001379
                },
                {
                    "name": "G5",
                    "midi": 79,
                    "time": 139.74134437500106,
                    "velocity": 0.7322834645669292,
                    "duration": 0.10344825000001379
                },
                {
                    "name": "F#5",
                    "midi": 78,
                    "time": 139.84479262500108,
                    "velocity": 0.937007874015748,
                    "duration": 0.10344825000001379
                },
                {
                    "name": "A5",
                    "midi": 81,
                    "time": 139.9654822500011,
                    "velocity": 0.8110236220472441,
                    "duration": 0.10344824999998536
                },
                {
                    "name": "F#5",
                    "midi": 78,
                    "time": 140.05168912500108,
                    "velocity": 0.7480314960629921,
                    "duration": 0.10344824999998536
                },
                {
                    "name": "E5",
                    "midi": 76,
                    "time": 140.15513737500106,
                    "velocity": 0.7401574803149606,
                    "duration": 0.10344825000001379
                },
                {
                    "name": "D5",
                    "midi": 74,
                    "time": 140.25858562500107,
                    "velocity": 0.7716535433070866,
                    "duration": 0.10344825000001379
                },
                {
                    "name": "F#5",
                    "midi": 78,
                    "time": 140.3620338750011,
                    "velocity": 0.7165354330708661,
                    "duration": 0.10344825000001379
                },
                {
                    "name": "A5",
                    "midi": 81,
                    "time": 140.4654821250011,
                    "velocity": 0.7244094488188977,
                    "duration": 0.10344825000001379
                },
                {
                    "name": "D6",
                    "midi": 86,
                    "time": 140.56893037500112,
                    "velocity": 0.7086614173228346,
                    "duration": 0.10344825000001379
                },
                {
                    "name": "C#6",
                    "midi": 85,
                    "time": 140.67237862500113,
                    "velocity": 1,
                    "duration": 0.10344825000001379
                },
                {
                    "name": "D6",
                    "midi": 86,
                    "time": 140.79306825000114,
                    "velocity": 0.7716535433070866,
                    "duration": 0.10344824999998536
                },
                {
                    "name": "C6",
                    "midi": 84,
                    "time": 140.87927512500113,
                    "velocity": 0.7322834645669292,
                    "duration": 0.10344824999998536
                },
                {
                    "name": "A5",
                    "midi": 81,
                    "time": 140.98272337500111,
                    "velocity": 0.7244094488188977,
                    "duration": 0.10344825000001379
                },
                {
                    "name": "G5",
                    "midi": 79,
                    "time": 141.08617162500113,
                    "velocity": 0.7874015748031497,
                    "duration": 0.10344825000001379
                },
                {
                    "name": "B5",
                    "midi": 83,
                    "time": 141.18961987500114,
                    "velocity": 0.7480314960629921,
                    "duration": 0.10344825000001379
                },
                {
                    "name": "A5",
                    "midi": 81,
                    "time": 141.29306812500116,
                    "velocity": 0.7716535433070866,
                    "duration": 0.10344825000001379
                },
                {
                    "name": "G5",
                    "midi": 79,
                    "time": 141.39651637500117,
                    "velocity": 0.8110236220472441,
                    "duration": 0.10344825000001379
                },
                {
                    "name": "F#5",
                    "midi": 78,
                    "time": 141.49996462500118,
                    "velocity": 1,
                    "duration": 0.10344825000001379
                },
                {
                    "name": "A5",
                    "midi": 81,
                    "time": 141.6206542500012,
                    "velocity": 0.7874015748031497,
                    "duration": 0.10344824999998536
                },
                {
                    "name": "G5",
                    "midi": 79,
                    "time": 141.70686112500118,
                    "velocity": 0.8031496062992126,
                    "duration": 0.10344824999998536
                },
                {
                    "name": "E5",
                    "midi": 76,
                    "time": 141.81030937500117,
                    "velocity": 0.8110236220472441,
                    "duration": 0.10344825000001379
                },
                {
                    "name": "D5",
                    "midi": 74,
                    "time": 141.91375762500118,
                    "velocity": 0.7086614173228346,
                    "duration": 0.10344825000001379
                },
                {
                    "name": "C#5",
                    "midi": 73,
                    "time": 142.0172058750012,
                    "velocity": 0.7480314960629921,
                    "duration": 0.10344825000001379
                },
                {
                    "name": "E5",
                    "midi": 76,
                    "time": 142.1206541250012,
                    "velocity": 0.7086614173228346,
                    "duration": 0.10344825000001379
                },
                {
                    "name": "D5",
                    "midi": 74,
                    "time": 142.22410237500122,
                    "velocity": 0.7559055118110236,
                    "duration": 0.10344825000001379
                },
                {
                    "name": "C5",
                    "midi": 72,
                    "time": 142.32755062500124,
                    "velocity": 0.968503937007874,
                    "duration": 0.10344825000001379
                },
                {
                    "name": "B4",
                    "midi": 71,
                    "time": 142.44824025000125,
                    "velocity": 0.7401574803149606,
                    "duration": 0.10344824999998536
                },
                {
                    "name": "C5",
                    "midi": 72,
                    "time": 142.53444712500124,
                    "velocity": 0.7559055118110236,
                    "duration": 0.10344824999998536
                },
                {
                    "name": "A4",
                    "midi": 69,
                    "time": 142.63789537500122,
                    "velocity": 0.7716535433070866,
                    "duration": 0.10344825000001379
                },
                {
                    "name": "G4",
                    "midi": 67,
                    "time": 142.74134362500124,
                    "velocity": 0.7086614173228346,
                    "duration": 0.10344825000001379
                },
                {
                    "name": "B4",
                    "midi": 71,
                    "time": 142.84479187500125,
                    "velocity": 0.7244094488188977,
                    "duration": 0.10344825000001379
                },
                {
                    "name": "A4",
                    "midi": 69,
                    "time": 142.94824012500126,
                    "velocity": 0.7795275590551181,
                    "duration": 0.10344825000001379
                },
                {
                    "name": "G4",
                    "midi": 67,
                    "time": 143.05168837500128,
                    "velocity": 0.7244094488188977,
                    "duration": 0.10344825000001379
                },
                {
                    "name": "F#4",
                    "midi": 66,
                    "time": 143.1551366250013,
                    "velocity": 0.9921259842519685,
                    "duration": 0.10344825000001379
                },
                {
                    "name": "A4",
                    "midi": 69,
                    "time": 143.2758262500013,
                    "velocity": 0.7086614173228346,
                    "duration": 0.10344824999998536
                },
                {
                    "name": "G4",
                    "midi": 67,
                    "time": 143.3620331250013,
                    "velocity": 0.7086614173228346,
                    "duration": 0.10344824999998536
                },
                {
                    "name": "E4",
                    "midi": 64,
                    "time": 143.46548137500127,
                    "velocity": 0.7480314960629921,
                    "duration": 0.10344825000001379
                },
                {
                    "name": "D4",
                    "midi": 62,
                    "time": 143.5689296250013,
                    "velocity": 0.7007874015748031,
                    "duration": 0.10344825000001379
                },
                {
                    "name": "C#4",
                    "midi": 61,
                    "time": 143.6723778750013,
                    "velocity": 0.8110236220472441,
                    "duration": 0.10344825000001379
                },
                {
                    "name": "E4",
                    "midi": 64,
                    "time": 143.77582612500132,
                    "velocity": 0.7165354330708661,
                    "duration": 0.10344825000001379
                },
                {
                    "name": "D4",
                    "midi": 62,
                    "time": 143.87927437500133,
                    "velocity": 0.7401574803149606,
                    "duration": 0.10344825000001379
                },
                {
                    "name": "C4",
                    "midi": 60,
                    "time": 143.98272262500134,
                    "velocity": 1,
                    "duration": 0.10344825000001379
                },
                {
                    "name": "B3",
                    "midi": 59,
                    "time": 144.10341225000136,
                    "velocity": 0.8031496062992126,
                    "duration": 0.10344824999998536
                },
                {
                    "name": "C4",
                    "midi": 60,
                    "time": 144.18961912500134,
                    "velocity": 0.7007874015748031,
                    "duration": 0.10344824999998536
                },
                {
                    "name": "A3",
                    "midi": 57,
                    "time": 144.29306737500133,
                    "velocity": 0.8031496062992126,
                    "duration": 0.10344825000001379
                },
                {
                    "name": "G3",
                    "midi": 55,
                    "time": 144.39651562500134,
                    "velocity": 0.7007874015748031,
                    "duration": 0.10344825000001379
                },
                {
                    "name": "B3",
                    "midi": 59,
                    "time": 144.49996387500136,
                    "velocity": 0.7322834645669292,
                    "duration": 0.10344825000001379
                },
                {
                    "name": "D4",
                    "midi": 62,
                    "time": 144.60341212500137,
                    "velocity": 0.8031496062992126,
                    "duration": 0.10344825000001379
                },
                {
                    "name": "G4",
                    "midi": 67,
                    "time": 144.70686037500138,
                    "velocity": 0.7322834645669292,
                    "duration": 0.10344825000001379
                },
                {
                    "name": "F#4",
                    "midi": 66,
                    "time": 144.8103086250014,
                    "velocity": 0.9448818897637795,
                    "duration": 0.10344825000001379
                },
                {
                    "name": "D4",
                    "midi": 62,
                    "time": 144.9309982500014,
                    "velocity": 0.7086614173228346,
                    "duration": 0.10344824999998536
                },
                {
                    "name": "C4",
                    "midi": 60,
                    "time": 145.0172051250014,
                    "velocity": 0.7007874015748031,
                    "duration": 0.10344824999998536
                },
                {
                    "name": "A3",
                    "midi": 57,
                    "time": 145.12065337500138,
                    "velocity": 0.7716535433070866,
                    "duration": 0.10344825000001379
                },
                {
                    "name": "G3",
                    "midi": 55,
                    "time": 145.2241016250014,
                    "velocity": 0.7874015748031497,
                    "duration": 0.10344825000001379
                },
                {
                    "name": "B3",
                    "midi": 59,
                    "time": 145.3275498750014,
                    "velocity": 0.7874015748031497,
                    "duration": 0.10344825000001379
                },
                {
                    "name": "D4",
                    "midi": 62,
                    "time": 145.43099812500142,
                    "velocity": 0.8110236220472441,
                    "duration": 0.10344825000001379
                },
                {
                    "name": "G4",
                    "midi": 67,
                    "time": 145.53444637500144,
                    "velocity": 0.7401574803149606,
                    "duration": 0.10344825000001379
                },
                {
                    "name": "F#4",
                    "midi": 66,
                    "time": 145.63789462500145,
                    "velocity": 1,
                    "duration": 0.10344825000001379
                },
                {
                    "name": "D4",
                    "midi": 62,
                    "time": 145.75858425000146,
                    "velocity": 0.7007874015748031,
                    "duration": 0.10344824999998536
                },
                {
                    "name": "C4",
                    "midi": 60,
                    "time": 145.84479112500145,
                    "velocity": 0.7165354330708661,
                    "duration": 0.10344824999998536
                },
                {
                    "name": "A3",
                    "midi": 57,
                    "time": 145.94823937500144,
                    "velocity": 0.7165354330708661,
                    "duration": 0.10344825000001379
                },
                {
                    "name": "G3",
                    "midi": 55,
                    "time": 146.05168762500145,
                    "velocity": 0.7952755905511811,
                    "duration": 0.10344825000001379
                },
                {
                    "name": "B3",
                    "midi": 59,
                    "time": 146.15513587500146,
                    "velocity": 0.7165354330708661,
                    "duration": 0.10344825000001379
                },
                {
                    "name": "D4",
                    "midi": 62,
                    "time": 146.25858412500148,
                    "velocity": 0.7165354330708661,
                    "duration": 0.10344825000001379
                },
                {
                    "name": "G4",
                    "midi": 67,
                    "time": 146.3620323750015,
                    "velocity": 0.7559055118110236,
                    "duration": 0.10344825000001379
                },
                {
                    "name": "B4",
                    "midi": 71,
                    "time": 146.4654806250015,
                    "velocity": 0.7716535433070866,
                    "duration": 0.10344825000001379
                },
                {
                    "name": "D5",
                    "midi": 74,
                    "time": 146.56892887500152,
                    "velocity": 0.8031496062992126,
                    "duration": 0.10344825000001379
                },
                {
                    "name": "F#5",
                    "midi": 78,
                    "time": 146.67237712500153,
                    "velocity": 0.8110236220472441,
                    "duration": 0.10344825000001379
                },
                {
                    "name": "G5",
                    "midi": 79,
                    "time": 146.77582537500155,
                    "velocity": 0.7716535433070866,
                    "duration": 0.10344825000001379
                },
                {
                    "name": "F#5",
                    "midi": 78,
                    "time": 146.87927362500156,
                    "velocity": 0.7086614173228346,
                    "duration": 0.10344825000001379
                },
                {
                    "name": "G5",
                    "midi": 79,
                    "time": 146.98272187500157,
                    "velocity": 0.7401574803149606,
                    "duration": 0.10344825000001379
                },
                {
                    "name": "F#5",
                    "midi": 78,
                    "time": 147.0861701250016,
                    "velocity": 0.7480314960629921,
                    "duration": 0.10344825000001379
                },
                {
                    "name": "G5",
                    "midi": 79,
                    "time": 147.1896183750016,
                    "velocity": 0.7322834645669292,
                    "duration": 0.10344825000001379
                },
                {
                    "name": "F#5",
                    "midi": 78,
                    "time": 147.29306662500161,
                    "velocity": 0.7322834645669292,
                    "duration": 0.10344825000001379
                },
                {
                    "name": "G5",
                    "midi": 79,
                    "time": 147.39651487500163,
                    "velocity": 0.7165354330708661,
                    "duration": 0.10344825000001379
                },
                {
                    "name": "F#5",
                    "midi": 78,
                    "time": 147.49996312500164,
                    "velocity": 0.7244094488188977,
                    "duration": 0.10344825000001379
                },
                {
                    "name": "G5",
                    "midi": 79,
                    "time": 147.60341137500166,
                    "velocity": 0.7952755905511811,
                    "duration": 0.10344825000001379
                },
                {
                    "name": "G#5",
                    "midi": 80,
                    "time": 147.70685962500167,
                    "velocity": 0.6850393700787402,
                    "duration": 0.10344825000001379
                },
                {
                    "name": "A5",
                    "midi": 81,
                    "time": 147.81030787500168,
                    "velocity": 0.7559055118110236,
                    "duration": 0.10344825000001379
                },
                {
                    "name": "G#5",
                    "midi": 80,
                    "time": 147.9137561250017,
                    "velocity": 0.7165354330708661,
                    "duration": 0.10344825000001379
                },
                {
                    "name": "A5",
                    "midi": 81,
                    "time": 148.0172043750017,
                    "velocity": 0.7795275590551181,
                    "duration": 0.10344825000001379
                },
                {
                    "name": "G#5",
                    "midi": 80,
                    "time": 148.12065262500172,
                    "velocity": 0.6929133858267716,
                    "duration": 0.10344825000001379
                },
                {
                    "name": "A5",
                    "midi": 81,
                    "time": 148.22410087500174,
                    "velocity": 0.7716535433070866,
                    "duration": 0.10344825000001379
                },
                {
                    "name": "G#5",
                    "midi": 80,
                    "time": 148.32754912500175,
                    "velocity": 0.7401574803149606,
                    "duration": 0.10344825000001379
                },
                {
                    "name": "A5",
                    "midi": 81,
                    "time": 148.43099737500177,
                    "velocity": 0.7480314960629921,
                    "duration": 0.10344825000001379
                },
                {
                    "name": "G5",
                    "midi": 79,
                    "time": 148.53444562500178,
                    "velocity": 0.7795275590551181,
                    "duration": 0.10344825000001379
                },
                {
                    "name": "F5",
                    "midi": 77,
                    "time": 148.6378938750018,
                    "velocity": 0.7874015748031497,
                    "duration": 0.10344825000001379
                },
                {
                    "name": "E5",
                    "midi": 76,
                    "time": 148.7413421250018,
                    "velocity": 0.7637795275590551,
                    "duration": 0.10344825000001379
                },
                {
                    "name": "F5",
                    "midi": 77,
                    "time": 148.84479037500182,
                    "velocity": 0.8818897637795275,
                    "duration": 0.10344825000001379
                },
                {
                    "name": "G5",
                    "midi": 79,
                    "time": 148.94823862500184,
                    "velocity": 0.8976377952755905,
                    "duration": 0.10344825000001379
                },
                {
                    "name": "F5",
                    "midi": 77,
                    "time": 149.05168687500185,
                    "velocity": 0.7952755905511811,
                    "duration": 0.10344825000001379
                },
                {
                    "name": "E5",
                    "midi": 76,
                    "time": 149.15513512500186,
                    "velocity": 0.8031496062992126,
                    "duration": 0.10344825000001379
                },
                {
                    "name": "D5",
                    "midi": 74,
                    "time": 149.25858337500188,
                    "velocity": 0.84251968503937,
                    "duration": 0.10344825000001379
                },
                {
                    "name": "C5",
                    "midi": 72,
                    "time": 149.3620316250019,
                    "velocity": 0.8346456692913385,
                    "duration": 0.10344825000001379
                },
                {
                    "name": "B4",
                    "midi": 71,
                    "time": 149.4654798750019,
                    "velocity": 0.8818897637795275,
                    "duration": 0.10344825000001379
                },
                {
                    "name": "D5",
                    "midi": 74,
                    "time": 149.56892812500192,
                    "velocity": 0.9212598425196851,
                    "duration": 0.10344825000001379
                },
                {
                    "name": "C5",
                    "midi": 72,
                    "time": 149.67237637500193,
                    "velocity": 0.9212598425196851,
                    "duration": 0.10344825000001379
                },
                {
                    "name": "B4",
                    "midi": 71,
                    "time": 149.77582462500195,
                    "velocity": 0.984251968503937,
                    "duration": 0.10344825000001379
                },
                {
                    "name": "C5",
                    "midi": 72,
                    "time": 149.87927287500196,
                    "velocity": 0.9921259842519685,
                    "duration": 0.10344825000001379
                },
                {
                    "name": "D5",
                    "midi": 74,
                    "time": 149.98272112500197,
                    "velocity": 1,
                    "duration": 0.10344825000001379
                },
                {
                    "name": "E5",
                    "midi": 76,
                    "time": 150.086169375002,
                    "velocity": 0.9212598425196851,
                    "duration": 0.10344825000001379
                },
                {
                    "name": "F5",
                    "midi": 77,
                    "time": 150.189617625002,
                    "velocity": 0.9921259842519685,
                    "duration": 0.10344825000001379
                },
                {
                    "name": "E5",
                    "midi": 76,
                    "time": 150.29306587500201,
                    "velocity": 1,
                    "duration": 0.10344825000001379
                },
                {
                    "name": "D5",
                    "midi": 74,
                    "time": 150.39651412500203,
                    "velocity": 1,
                    "duration": 0.10344825000001379
                },
                {
                    "name": "C5",
                    "midi": 72,
                    "time": 150.49996237500204,
                    "velocity": 0.968503937007874,
                    "duration": 0.10344825000001379
                },
                {
                    "name": "B4",
                    "midi": 71,
                    "time": 150.60341062500206,
                    "velocity": 1,
                    "duration": 0.10344825000001379
                },
                {
                    "name": "D5",
                    "midi": 74,
                    "time": 150.70685887500207,
                    "velocity": 0.9763779527559056,
                    "duration": 0.10344825000001379
                },
                {
                    "name": "B4",
                    "midi": 71,
                    "time": 150.81030712500208,
                    "velocity": 0.984251968503937,
                    "duration": 0.10344825000001379
                },
                {
                    "name": "A4",
                    "midi": 69,
                    "time": 150.9137553750021,
                    "velocity": 0.8661417322834646,
                    "duration": 0.10344825000001379
                },
                {
                    "name": "G#4",
                    "midi": 68,
                    "time": 151.0172036250021,
                    "velocity": 0.84251968503937,
                    "duration": 0.10344825000001379
                },
                {
                    "name": "A4",
                    "midi": 69,
                    "time": 151.12065187500212,
                    "velocity": 0.84251968503937,
                    "duration": 0.10344825000001379
                },
                {
                    "name": "B4",
                    "midi": 71,
                    "time": 151.22410012500214,
                    "velocity": 0.8976377952755905,
                    "duration": 0.10344825000001379
                },
                {
                    "name": "A4",
                    "midi": 69,
                    "time": 151.32754837500215,
                    "velocity": 0.7874015748031497,
                    "duration": 0.10344825000001379
                },
                {
                    "name": "G#4",
                    "midi": 68,
                    "time": 151.43099662500217,
                    "velocity": 0.8346456692913385,
                    "duration": 0.10344825000001379
                },
                {
                    "name": "B4",
                    "midi": 71,
                    "time": 151.53444487500218,
                    "velocity": 0.8346456692913385,
                    "duration": 0.10344825000001379
                },
                {
                    "name": "G#4",
                    "midi": 68,
                    "time": 151.6378931250022,
                    "velocity": 0.7795275590551181,
                    "duration": 0.10344825000001379
                },
                {
                    "name": "F4",
                    "midi": 65,
                    "time": 151.7413413750022,
                    "velocity": 0.8031496062992126,
                    "duration": 0.10344825000001379
                },
                {
                    "name": "E4",
                    "midi": 64,
                    "time": 151.84478962500222,
                    "velocity": 0.7716535433070866,
                    "duration": 0.10344825000001379
                },
                {
                    "name": "F4",
                    "midi": 65,
                    "time": 151.94823787500223,
                    "velocity": 0.7086614173228346,
                    "duration": 0.10344825000001379
                },
                {
                    "name": "D#4",
                    "midi": 63,
                    "time": 152.05168612500225,
                    "velocity": 0.7007874015748031,
                    "duration": 0.10344825000001379
                },
                {
                    "name": "F4",
                    "midi": 65,
                    "time": 152.15513437500226,
                    "velocity": 0.7007874015748031,
                    "duration": 0.10344825000001379
                },
                {
                    "name": "E4",
                    "midi": 64,
                    "time": 152.25858262500228,
                    "velocity": 0.6456692913385826,
                    "duration": 0.10344825000001379
                },
                {
                    "name": "F4",
                    "midi": 65,
                    "time": 152.3620308750023,
                    "velocity": 0.6614173228346457,
                    "duration": 0.10344825000001379
                },
                {
                    "name": "D#4",
                    "midi": 63,
                    "time": 152.4654791250023,
                    "velocity": 0.6141732283464567,
                    "duration": 0.10344825000001379
                },
                {
                    "name": "F4",
                    "midi": 65,
                    "time": 152.56892737500232,
                    "velocity": 0.6377952755905512,
                    "duration": 0.10344825000001379
                },
                {
                    "name": "E4",
                    "midi": 64,
                    "time": 152.67237562500233,
                    "velocity": 0.5669291338582677,
                    "duration": 0.10344825000001379
                },
                {
                    "name": "F4",
                    "midi": 65,
                    "time": 152.77582387500235,
                    "velocity": 0.6377952755905512,
                    "duration": 0.10344825000001379
                },
                {
                    "name": "D#4",
                    "midi": 63,
                    "time": 152.87927212500236,
                    "velocity": 0.6062992125984252,
                    "duration": 0.10344825000001379
                },
                {
                    "name": "E4",
                    "midi": 64,
                    "time": 152.98272037500237,
                    "velocity": 0.5118110236220472,
                    "duration": 0.10344825000001379
                },
                {
                    "name": "F4",
                    "midi": 65,
                    "time": 153.0861686250024,
                    "velocity": 0.5826771653543307,
                    "duration": 0.10344825000001379
                },
                {
                    "name": "F#4",
                    "midi": 66,
                    "time": 153.1896168750024,
                    "velocity": 0.5275590551181102,
                    "duration": 0.10344825000001379
                },
                {
                    "name": "G4",
                    "midi": 67,
                    "time": 153.2930651250024,
                    "velocity": 0.4881889763779528,
                    "duration": 0.10344825000001379
                },
                {
                    "name": "G#4",
                    "midi": 68,
                    "time": 153.39651337500243,
                    "velocity": 0.4566929133858268,
                    "duration": 0.10344825000001379
                },
                {
                    "name": "A4",
                    "midi": 69,
                    "time": 153.49996162500244,
                    "velocity": 0.49606299212598426,
                    "duration": 0.10344825000001379
                },
                {
                    "name": "B4",
                    "midi": 71,
                    "time": 153.60340987500246,
                    "velocity": 0.44881889763779526,
                    "duration": 0.10344825000001379
                },
                {
                    "name": "A4",
                    "midi": 69,
                    "time": 153.70685812500247,
                    "velocity": 0.4645669291338583,
                    "duration": 0.10344825000001379
                },
                {
                    "name": "G#4",
                    "midi": 68,
                    "time": 153.81030637500248,
                    "velocity": 0.36220472440944884,
                    "duration": 0.10344825000001379
                },
                {
                    "name": "A4",
                    "midi": 69,
                    "time": 153.9137546250025,
                    "velocity": 0.3858267716535433,
                    "duration": 0.10344825000001379
                },
                {
                    "name": "B4",
                    "midi": 71,
                    "time": 154.0172028750025,
                    "velocity": 0.4251968503937008,
                    "duration": 0.10344825000001379
                },
                {
                    "name": "C5",
                    "midi": 72,
                    "time": 154.12065112500252,
                    "velocity": 0.3858267716535433,
                    "duration": 0.10344825000001379
                },
                {
                    "name": "A4",
                    "midi": 69,
                    "time": 154.22409937500254,
                    "velocity": 0.33858267716535434,
                    "duration": 0.10344825000001379
                },
                {
                    "name": "B4",
                    "midi": 71,
                    "time": 154.32754762500255,
                    "velocity": 0.3543307086614173,
                    "duration": 0.10344825000001379
                },
                {
                    "name": "A4",
                    "midi": 69,
                    "time": 154.43099587500257,
                    "velocity": 0.36220472440944884,
                    "duration": 0.10344825000001379
                },
                {
                    "name": "G#4",
                    "midi": 68,
                    "time": 154.53444412500258,
                    "velocity": 0.31496062992125984,
                    "duration": 0.10344825000001379
                },
                {
                    "name": "F4",
                    "midi": 65,
                    "time": 154.6378923750026,
                    "velocity": 0.3543307086614173,
                    "duration": 0.10344825000001379
                },
                {
                    "name": "E4",
                    "midi": 64,
                    "time": 154.7413406250026,
                    "velocity": 0.3543307086614173,
                    "duration": 0.10344825000001379
                },
                {
                    "name": "F#4",
                    "midi": 66,
                    "time": 154.84478887500262,
                    "velocity": 0.30708661417322836,
                    "duration": 0.10344825000001379
                },
                {
                    "name": "G#4",
                    "midi": 68,
                    "time": 154.94823712500263,
                    "velocity": 0.29133858267716534,
                    "duration": 0.10344825000001379
                },
                {
                    "name": "A4",
                    "midi": 69,
                    "time": 155.05168537500265,
                    "velocity": 0.30708661417322836,
                    "duration": 0.10344825000001379
                },
                {
                    "name": "B4",
                    "midi": 71,
                    "time": 155.15513362500266,
                    "velocity": 0.3700787401574803,
                    "duration": 0.10344825000001379
                },
                {
                    "name": "C5",
                    "midi": 72,
                    "time": 155.25858187500268,
                    "velocity": 0.30708661417322836,
                    "duration": 0.10344825000001379
                },
                {
                    "name": "D5",
                    "midi": 74,
                    "time": 155.3620301250027,
                    "velocity": 0.29133858267716534,
                    "duration": 0.10344825000001379
                },
                {
                    "name": "C5",
                    "midi": 72,
                    "time": 155.4654783750027,
                    "velocity": 0.2677165354330709,
                    "duration": 0.10344825000001379
                },
                {
                    "name": "E5",
                    "midi": 76,
                    "time": 155.56892662500272,
                    "velocity": 0.31496062992125984,
                    "duration": 0.10344825000001379
                },
                {
                    "name": "D5",
                    "midi": 74,
                    "time": 155.67237487500273,
                    "velocity": 0.36220472440944884,
                    "duration": 0.10344825000001379
                },
                {
                    "name": "C5",
                    "midi": 72,
                    "time": 155.77582312500274,
                    "velocity": 0.36220472440944884,
                    "duration": 0.10344825000001379
                },
                {
                    "name": "B4",
                    "midi": 71,
                    "time": 155.87927137500276,
                    "velocity": 0.33858267716535434,
                    "duration": 0.10344825000001379
                },
                {
                    "name": "C5",
                    "midi": 72,
                    "time": 155.98271962500277,
                    "velocity": 0.29133858267716534,
                    "duration": 0.10344825000001379
                },
                {
                    "name": "D5",
                    "midi": 74,
                    "time": 156.0861678750028,
                    "velocity": 0.36220472440944884,
                    "duration": 0.10344825000001379
                },
                {
                    "name": "C5",
                    "midi": 72,
                    "time": 156.1896161250028,
                    "velocity": 0.28346456692913385,
                    "duration": 0.10344825000001379
                },
                {
                    "name": "B4",
                    "midi": 71,
                    "time": 156.2930643750028,
                    "velocity": 0.3543307086614173,
                    "duration": 0.10344825000001379
                },
                {
                    "name": "A4",
                    "midi": 69,
                    "time": 156.39651262500283,
                    "velocity": 0.31496062992125984,
                    "duration": 0.10344825000001379
                },
                {
                    "name": "G#4",
                    "midi": 68,
                    "time": 156.49996087500284,
                    "velocity": 0.2755905511811024,
                    "duration": 0.10344825000001379
                },
                {
                    "name": "A4",
                    "midi": 69,
                    "time": 156.60340912500286,
                    "velocity": 0.3464566929133858,
                    "duration": 0.10344825000001379
                },
                {
                    "name": "B4",
                    "midi": 71,
                    "time": 156.70685737500287,
                    "velocity": 0.3228346456692913,
                    "duration": 0.10344825000001379
                },
                {
                    "name": "C5",
                    "midi": 72,
                    "time": 156.81030562500288,
                    "velocity": 0.29133858267716534,
                    "duration": 0.10344825000001379
                },
                {
                    "name": "D5",
                    "midi": 74,
                    "time": 156.9137538750029,
                    "velocity": 0.2992125984251969,
                    "duration": 0.10344825000001379
                },
                {
                    "name": "C5",
                    "midi": 72,
                    "time": 157.0172021250029,
                    "velocity": 0.2755905511811024,
                    "duration": 0.10344825000001379
                },
                {
                    "name": "B4",
                    "midi": 71,
                    "time": 157.12065037500292,
                    "velocity": 0.36220472440944884,
                    "duration": 0.10344825000001379
                },
                {
                    "name": "C5",
                    "midi": 72,
                    "time": 157.22409862500294,
                    "velocity": 0.28346456692913385,
                    "duration": 0.10344825000001379
                },
                {
                    "name": "D5",
                    "midi": 74,
                    "time": 157.32754687500295,
                    "velocity": 0.25984251968503935,
                    "duration": 0.10344825000001379
                },
                {
                    "name": "E5",
                    "midi": 76,
                    "time": 157.43099512500297,
                    "velocity": 0.2677165354330709,
                    "duration": 0.10344825000001379
                },
                {
                    "name": "C5",
                    "midi": 72,
                    "time": 157.53444337500298,
                    "velocity": 0.3228346456692913,
                    "duration": 0.10344825000001379
                },
                {
                    "name": "D5",
                    "midi": 74,
                    "time": 157.637891625003,
                    "velocity": 0.2992125984251969,
                    "duration": 0.10344825000001379
                },
                {
                    "name": "C5",
                    "midi": 72,
                    "time": 157.741339875003,
                    "velocity": 0.29133858267716534,
                    "duration": 0.10344825000001379
                },
                {
                    "name": "B4",
                    "midi": 71,
                    "time": 157.84478812500302,
                    "velocity": 0.36220472440944884,
                    "duration": 0.10344825000001379
                },
                {
                    "name": "A4",
                    "midi": 69,
                    "time": 157.94823637500303,
                    "velocity": 0.30708661417322836,
                    "duration": 0.10344825000001379
                },
                {
                    "name": "G4",
                    "midi": 67,
                    "time": 158.05168462500305,
                    "velocity": 0.31496062992125984,
                    "duration": 0.10344825000001379
                },
                {
                    "name": "A4",
                    "midi": 69,
                    "time": 158.15513287500306,
                    "velocity": 0.3700787401574803,
                    "duration": 0.10344825000001379
                },
                {
                    "name": "B4",
                    "midi": 71,
                    "time": 158.25858112500308,
                    "velocity": 0.3700787401574803,
                    "duration": 0.10344825000001379
                },
                {
                    "name": "C5",
                    "midi": 72,
                    "time": 158.3620293750031,
                    "velocity": 0.3228346456692913,
                    "duration": 0.10344825000001379
                },
                {
                    "name": "D5",
                    "midi": 74,
                    "time": 158.4654776250031,
                    "velocity": 0.3700787401574803,
                    "duration": 0.10344825000001379
                },
                {
                    "name": "E5",
                    "midi": 76,
                    "time": 158.56892587500312,
                    "velocity": 0.28346456692913385,
                    "duration": 0.10344825000001379
                },
                {
                    "name": "F5",
                    "midi": 77,
                    "time": 158.67237412500313,
                    "velocity": 0.3228346456692913,
                    "duration": 0.10344825000001379
                },
                {
                    "name": "E5",
                    "midi": 76,
                    "time": 158.77582237500314,
                    "velocity": 0.3700787401574803,
                    "duration": 0.10344825000001379
                },
                {
                    "name": "G5",
                    "midi": 79,
                    "time": 158.87927062500316,
                    "velocity": 0.3700787401574803,
                    "duration": 0.10344825000001379
                },
                {
                    "name": "F5",
                    "midi": 77,
                    "time": 158.98271887500317,
                    "velocity": 0.2677165354330709,
                    "duration": 0.10344825000001379
                },
                {
                    "name": "E5",
                    "midi": 76,
                    "time": 159.0861671250032,
                    "velocity": 0.31496062992125984,
                    "duration": 0.10344825000001379
                },
                {
                    "name": "D5",
                    "midi": 74,
                    "time": 159.1896153750032,
                    "velocity": 0.33070866141732286,
                    "duration": 0.10344825000001379
                },
                {
                    "name": "E5",
                    "midi": 76,
                    "time": 159.2930636250032,
                    "velocity": 0.3700787401574803,
                    "duration": 0.10344825000001379
                },
                {
                    "name": "F5",
                    "midi": 77,
                    "time": 159.39651187500323,
                    "velocity": 0.3228346456692913,
                    "duration": 0.10344825000001379
                },
                {
                    "name": "E5",
                    "midi": 76,
                    "time": 159.49996012500324,
                    "velocity": 0.33070866141732286,
                    "duration": 0.10344825000001379
                },
                {
                    "name": "D5",
                    "midi": 74,
                    "time": 159.60340837500326,
                    "velocity": 0.30708661417322836,
                    "duration": 0.10344825000001379
                },
                {
                    "name": "C5",
                    "midi": 72,
                    "time": 159.70685662500327,
                    "velocity": 0.3464566929133858,
                    "duration": 0.10344825000001379
                },
                {
                    "name": "B4",
                    "midi": 71,
                    "time": 159.81030487500328,
                    "velocity": 0.33858267716535434,
                    "duration": 0.10344825000001379
                },
                {
                    "name": "C5",
                    "midi": 72,
                    "time": 159.9137531250033,
                    "velocity": 0.3464566929133858,
                    "duration": 0.10344825000001379
                },
                {
                    "name": "D5",
                    "midi": 74,
                    "time": 160.0172013750033,
                    "velocity": 0.3543307086614173,
                    "duration": 0.10344825000001379
                },
                {
                    "name": "E5",
                    "midi": 76,
                    "time": 160.12064962500332,
                    "velocity": 0.3228346456692913,
                    "duration": 0.10344825000001379
                },
                {
                    "name": "F#5",
                    "midi": 78,
                    "time": 160.22409787500334,
                    "velocity": 0.2677165354330709,
                    "duration": 0.10344825000001379
                },
                {
                    "name": "E5",
                    "midi": 76,
                    "time": 160.32754612500335,
                    "velocity": 0.31496062992125984,
                    "duration": 0.10344825000001379
                },
                {
                    "name": "D#5",
                    "midi": 75,
                    "time": 160.43099437500337,
                    "velocity": 0.28346456692913385,
                    "duration": 0.10344825000001379
                },
                {
                    "name": "E5",
                    "midi": 76,
                    "time": 160.53444262500338,
                    "velocity": 0.29133858267716534,
                    "duration": 0.10344825000001379
                },
                {
                    "name": "F#5",
                    "midi": 78,
                    "time": 160.6378908750034,
                    "velocity": 0.2755905511811024,
                    "duration": 0.10344825000001379
                },
                {
                    "name": "G5",
                    "midi": 79,
                    "time": 160.7413391250034,
                    "velocity": 0.3700787401574803,
                    "duration": 0.10344825000001379
                },
                {
                    "name": "E5",
                    "midi": 76,
                    "time": 160.84478737500342,
                    "velocity": 0.3464566929133858,
                    "duration": 0.10344825000001379
                },
                {
                    "name": "F#5",
                    "midi": 78,
                    "time": 160.94823562500343,
                    "velocity": 0.30708661417322836,
                    "duration": 0.10344825000001379
                },
                {
                    "name": "E5",
                    "midi": 76,
                    "time": 161.05168387500345,
                    "velocity": 0.3937007874015748,
                    "duration": 0.10344825000001379
                },
                {
                    "name": "D#5",
                    "midi": 75,
                    "time": 161.15513212500346,
                    "velocity": 0.31496062992125984,
                    "duration": 0.10344825000001379
                },
                {
                    "name": "C5",
                    "midi": 72,
                    "time": 161.25858037500348,
                    "velocity": 0.3937007874015748,
                    "duration": 0.10344825000001379
                },
                {
                    "name": "B4",
                    "midi": 71,
                    "time": 161.3620286250035,
                    "velocity": 0.3228346456692913,
                    "duration": 0.10344825000001379
                },
                {
                    "name": "C#5",
                    "midi": 73,
                    "time": 161.4654768750035,
                    "velocity": 0.3779527559055118,
                    "duration": 0.10344825000001379
                },
                {
                    "name": "D#5",
                    "midi": 75,
                    "time": 161.56892512500352,
                    "velocity": 0.3779527559055118,
                    "duration": 0.10344825000001379
                },
                {
                    "name": "E5",
                    "midi": 76,
                    "time": 161.67237337500353,
                    "velocity": 0.41732283464566927,
                    "duration": 0.10344825000001379
                },
                {
                    "name": "F#5",
                    "midi": 78,
                    "time": 161.77582162500354,
                    "velocity": 0.33070866141732286,
                    "duration": 0.10344825000001379
                },
                {
                    "name": "G5",
                    "midi": 79,
                    "time": 161.87926987500356,
                    "velocity": 0.4015748031496063,
                    "duration": 0.10344825000001379
                },
                {
                    "name": "A5",
                    "midi": 81,
                    "time": 161.98271812500357,
                    "velocity": 0.3858267716535433,
                    "duration": 0.10344825000001379
                },
                {
                    "name": "G5",
                    "midi": 79,
                    "time": 162.0861663750036,
                    "velocity": 0.3543307086614173,
                    "duration": 0.10344825000001379
                },
                {
                    "name": "B5",
                    "midi": 83,
                    "time": 162.1896146250036,
                    "velocity": 0.3464566929133858,
                    "duration": 0.10344825000001379
                },
                {
                    "name": "A5",
                    "midi": 81,
                    "time": 162.2930628750036,
                    "velocity": 0.3779527559055118,
                    "duration": 0.10344825000001379
                },
                {
                    "name": "G5",
                    "midi": 79,
                    "time": 162.39651112500363,
                    "velocity": 0.4094488188976378,
                    "duration": 0.10344825000001379
                },
                {
                    "name": "F#5",
                    "midi": 78,
                    "time": 162.49995937500364,
                    "velocity": 0.3779527559055118,
                    "duration": 0.10344825000001379
                },
                {
                    "name": "G5",
                    "midi": 79,
                    "time": 162.60340762500365,
                    "velocity": 0.41732283464566927,
                    "duration": 0.10344825000001379
                },
                {
                    "name": "B5",
                    "midi": 83,
                    "time": 162.70685587500367,
                    "velocity": 0.3858267716535433,
                    "duration": 0.10344825000001379
                },
                {
                    "name": "A#5",
                    "midi": 82,
                    "time": 162.81030412500368,
                    "velocity": 0.41732283464566927,
                    "duration": 0.10344825000001379
                },
                {
                    "name": "B5",
                    "midi": 83,
                    "time": 162.9137523750037,
                    "velocity": 0.3858267716535433,
                    "duration": 0.10344825000001379
                },
                {
                    "name": "C6",
                    "midi": 84,
                    "time": 163.0172006250037,
                    "velocity": 0.41732283464566927,
                    "duration": 0.10344825000001379
                },
                {
                    "name": "B5",
                    "midi": 83,
                    "time": 163.12064887500372,
                    "velocity": 0.4094488188976378,
                    "duration": 0.10344825000001379
                },
                {
                    "name": "A5",
                    "midi": 81,
                    "time": 163.22409712500374,
                    "velocity": 0.4881889763779528,
                    "duration": 0.10344825000001379
                },
                {
                    "name": "G5",
                    "midi": 79,
                    "time": 163.32754537500375,
                    "velocity": 0.4881889763779528,
                    "duration": 0.10344825000001379
                },
                {
                    "name": "F#5",
                    "midi": 78,
                    "time": 163.43099362500377,
                    "velocity": 0.4330708661417323,
                    "duration": 0.10344825000001379
                },
                {
                    "name": "A5",
                    "midi": 81,
                    "time": 163.53444187500378,
                    "velocity": 0.4330708661417323,
                    "duration": 0.10344825000001379
                },
                {
                    "name": "G#5",
                    "midi": 80,
                    "time": 163.6378901250038,
                    "velocity": 0.48031496062992124,
                    "duration": 0.10344825000001379
                },
                {
                    "name": "A5",
                    "midi": 81,
                    "time": 163.7413383750038,
                    "velocity": 0.41732283464566927,
                    "duration": 0.10344825000001379
                },
                {
                    "name": "B5",
                    "midi": 83,
                    "time": 163.84478662500382,
                    "velocity": 0.4645669291338583,
                    "duration": 0.10344825000001379
                },
                {
                    "name": "A5",
                    "midi": 81,
                    "time": 163.94823487500383,
                    "velocity": 0.48031496062992124,
                    "duration": 0.10344825000001379
                },
                {
                    "name": "G5",
                    "midi": 79,
                    "time": 164.05168312500385,
                    "velocity": 0.47244094488188976,
                    "duration": 0.10344825000001379
                },
                {
                    "name": "F#5",
                    "midi": 78,
                    "time": 164.15513137500386,
                    "velocity": 0.47244094488188976,
                    "duration": 0.10344825000001379
                },
                {
                    "name": "E5",
                    "midi": 76,
                    "time": 164.25857962500388,
                    "velocity": 0.4251968503937008,
                    "duration": 0.10344825000001379
                },
                {
                    "name": "G5",
                    "midi": 79,
                    "time": 164.3620278750039,
                    "velocity": 0.47244094488188976,
                    "duration": 0.10344825000001379
                },
                {
                    "name": "F#5",
                    "midi": 78,
                    "time": 164.4654761250039,
                    "velocity": 0.49606299212598426,
                    "duration": 0.10344825000001379
                },
                {
                    "name": "G5",
                    "midi": 79,
                    "time": 164.56892437500392,
                    "velocity": 0.4566929133858268,
                    "duration": 0.10344825000001379
                },
                {
                    "name": "A5",
                    "midi": 81,
                    "time": 164.67237262500393,
                    "velocity": 0.4645669291338583,
                    "duration": 0.10344825000001379
                },
                {
                    "name": "G5",
                    "midi": 79,
                    "time": 164.77582087500394,
                    "velocity": 0.5118110236220472,
                    "duration": 0.10344825000001379
                },
                {
                    "name": "F#5",
                    "midi": 78,
                    "time": 164.87926912500396,
                    "velocity": 0.5118110236220472,
                    "duration": 0.10344825000001379
                },
                {
                    "name": "E5",
                    "midi": 76,
                    "time": 164.98271737500397,
                    "velocity": 0.4645669291338583,
                    "duration": 0.10344825000001379
                },
                {
                    "name": "D#5",
                    "midi": 75,
                    "time": 165.08616562500399,
                    "velocity": 0.48031496062992124,
                    "duration": 0.10344825000001379
                },
                {
                    "name": "E5",
                    "midi": 76,
                    "time": 165.189613875004,
                    "velocity": 0.49606299212598426,
                    "duration": 0.10344825000001379
                },
                {
                    "name": "F#5",
                    "midi": 78,
                    "time": 165.293062125004,
                    "velocity": 0.5275590551181102,
                    "duration": 0.10344825000001379
                },
                {
                    "name": "G5",
                    "midi": 79,
                    "time": 165.39651037500403,
                    "velocity": 0.4645669291338583,
                    "duration": 0.10344825000001379
                },
                {
                    "name": "A5",
                    "midi": 81,
                    "time": 165.49995862500404,
                    "velocity": 0.5354330708661418,
                    "duration": 0.10344825000001379
                },
                {
                    "name": "F#5",
                    "midi": 78,
                    "time": 165.60340687500405,
                    "velocity": 0.49606299212598426,
                    "duration": 0.10344825000001379
                },
                {
                    "name": "E5",
                    "midi": 76,
                    "time": 165.70685512500407,
                    "velocity": 0.5669291338582677,
                    "duration": 0.10344825000001379
                },
                {
                    "name": "D#5",
                    "midi": 75,
                    "time": 165.81030337500408,
                    "velocity": 0.5039370078740157,
                    "duration": 0.10344825000001379
                },
                {
                    "name": "E5",
                    "midi": 76,
                    "time": 165.9137516250041,
                    "velocity": 0.5433070866141733,
                    "duration": 0.10344825000001379
                },
                {
                    "name": "G#5",
                    "midi": 80,
                    "time": 166.0171998750041,
                    "velocity": 0.5511811023622047,
                    "duration": 0.10344825000001379
                },
                {
                    "name": "B5",
                    "midi": 83,
                    "time": 166.12064812500412,
                    "velocity": 0.5196850393700787,
                    "duration": 0.10344825000001379
                },
                {
                    "name": "A5",
                    "midi": 81,
                    "time": 166.22409637500414,
                    "velocity": 0.49606299212598426,
                    "duration": 0.10344825000001379
                },
                {
                    "name": "G#5",
                    "midi": 80,
                    "time": 166.32754462500415,
                    "velocity": 0.6062992125984252,
                    "duration": 0.10344825000001379
                },
                {
                    "name": "F5",
                    "midi": 77,
                    "time": 166.43099287500416,
                    "velocity": 0.5984251968503937,
                    "duration": 0.10344825000001379
                },
                {
                    "name": "E5",
                    "midi": 76,
                    "time": 166.53444112500418,
                    "velocity": 0.5748031496062992,
                    "duration": 0.10344825000001379
                },
                {
                    "name": "D5",
                    "midi": 74,
                    "time": 166.6378893750042,
                    "velocity": 0.5354330708661418,
                    "duration": 0.10344825000001379
                },
                {
                    "name": "C#5",
                    "midi": 73,
                    "time": 166.7413376250042,
                    "velocity": 0.5511811023622047,
                    "duration": 0.10344825000001379
                },
                {
                    "name": "D5",
                    "midi": 74,
                    "time": 166.84478587500422,
                    "velocity": 0.5590551181102362,
                    "duration": 0.10344825000001379
                },
                {
                    "name": "E5",
                    "midi": 76,
                    "time": 166.94823412500423,
                    "velocity": 0.6141732283464567,
                    "duration": 0.10344825000001379
                },
                {
                    "name": "F5",
                    "midi": 77,
                    "time": 167.05168237500425,
                    "velocity": 0.5905511811023622,
                    "duration": 0.10344825000001379
                },
                {
                    "name": "G5",
                    "midi": 79,
                    "time": 167.15513062500426,
                    "velocity": 0.5433070866141733,
                    "duration": 0.10344825000001379
                },
                {
                    "name": "A5",
                    "midi": 81,
                    "time": 167.25857887500428,
                    "velocity": 0.5275590551181102,
                    "duration": 0.10344825000001379
                },
                {
                    "name": "A#5",
                    "midi": 82,
                    "time": 167.3620271250043,
                    "velocity": 0.6062992125984252,
                    "duration": 0.10344825000001379
                },
                {
                    "name": "C#5",
                    "midi": 73,
                    "time": 167.4654753750043,
                    "velocity": 0.5590551181102362,
                    "duration": 0.10344825000001379
                },
                {
                    "name": "C5",
                    "midi": 72,
                    "time": 167.56892362500432,
                    "velocity": 0.6220472440944882,
                    "duration": 0.10344825000001379
                },
                {
                    "name": "F#5",
                    "midi": 78,
                    "time": 167.67237187500433,
                    "velocity": 0.6299212598425197,
                    "duration": 0.10344825000001379
                },
                {
                    "name": "A5",
                    "midi": 81,
                    "time": 167.77582012500434,
                    "velocity": 0.5984251968503937,
                    "duration": 0.10344825000001379
                },
                {
                    "name": "G5",
                    "midi": 79,
                    "time": 167.87926837500436,
                    "velocity": 0.6220472440944882,
                    "duration": 0.10344825000001379
                },
                {
                    "name": "F#5",
                    "midi": 78,
                    "time": 167.98271662500437,
                    "velocity": 0.6692913385826772,
                    "duration": 0.10344825000001379
                },
                {
                    "name": "E5",
                    "midi": 76,
                    "time": 168.08616487500439,
                    "velocity": 0.5748031496062992,
                    "duration": 0.10344825000001379
                },
                {
                    "name": "D5",
                    "midi": 74,
                    "time": 168.1896131250044,
                    "velocity": 0.6220472440944882,
                    "duration": 0.10344825000001379
                },
                {
                    "name": "C5",
                    "midi": 72,
                    "time": 168.2930613750044,
                    "velocity": 0.6456692913385826,
                    "duration": 0.10344825000001379
                },
                {
                    "name": "B4",
                    "midi": 71,
                    "time": 168.39650962500443,
                    "velocity": 0.6771653543307087,
                    "duration": 0.10344825000001379
                },
                {
                    "name": "C5",
                    "midi": 72,
                    "time": 168.49995787500444,
                    "velocity": 0.6535433070866141,
                    "duration": 0.10344825000001379
                },
                {
                    "name": "D5",
                    "midi": 74,
                    "time": 168.60340612500445,
                    "velocity": 0.5826771653543307,
                    "duration": 0.10344825000001379
                },
                {
                    "name": "E5",
                    "midi": 76,
                    "time": 168.70685437500447,
                    "velocity": 0.6535433070866141,
                    "duration": 0.10344825000001379
                },
                {
                    "name": "F5",
                    "midi": 77,
                    "time": 168.81030262500448,
                    "velocity": 0.6614173228346457,
                    "duration": 0.10344825000001379
                },
                {
                    "name": "G5",
                    "midi": 79,
                    "time": 168.9137508750045,
                    "velocity": 0.6692913385826772,
                    "duration": 0.10344825000001379
                },
                {
                    "name": "G#5",
                    "midi": 80,
                    "time": 169.0171991250045,
                    "velocity": 0.6141732283464567,
                    "duration": 0.10344825000001379
                },
                {
                    "name": "B4",
                    "midi": 71,
                    "time": 169.12064737500452,
                    "velocity": 0.6062992125984252,
                    "duration": 0.10344825000001379
                },
                {
                    "name": "A#4",
                    "midi": 70,
                    "time": 169.22409562500454,
                    "velocity": 0.6614173228346457,
                    "duration": 0.10344825000001379
                },
                {
                    "name": "E5",
                    "midi": 76,
                    "time": 169.32754387500455,
                    "velocity": 0.6220472440944882,
                    "duration": 0.10344825000001379
                },
                {
                    "name": "G5",
                    "midi": 79,
                    "time": 169.43099212500456,
                    "velocity": 0.6456692913385826,
                    "duration": 0.10344825000001379
                },
                {
                    "name": "F5",
                    "midi": 77,
                    "time": 169.53444037500458,
                    "velocity": 0.6456692913385826,
                    "duration": 0.10344825000001379
                },
                {
                    "name": "E5",
                    "midi": 76,
                    "time": 169.6378886250046,
                    "velocity": 0.7007874015748031,
                    "duration": 0.10344825000001379
                },
                {
                    "name": "D5",
                    "midi": 74,
                    "time": 169.7413368750046,
                    "velocity": 0.7322834645669292,
                    "duration": 0.10344825000001379
                },
                {
                    "name": "C5",
                    "midi": 72,
                    "time": 169.84478512500462,
                    "velocity": 0.6929133858267716,
                    "duration": 0.10344825000001379
                },
                {
                    "name": "A#4",
                    "midi": 70,
                    "time": 169.94823337500463,
                    "velocity": 0.6614173228346457,
                    "duration": 0.10344825000001379
                },
                {
                    "name": "A4",
                    "midi": 69,
                    "time": 170.05168162500465,
                    "velocity": 0.6771653543307087,
                    "duration": 0.10344825000001379
                },
                {
                    "name": "A#4",
                    "midi": 70,
                    "time": 170.15512987500466,
                    "velocity": 0.7480314960629921,
                    "duration": 0.10344825000001379
                },
                {
                    "name": "C5",
                    "midi": 72,
                    "time": 170.25857812500468,
                    "velocity": 0.7165354330708661,
                    "duration": 0.10344825000001379
                },
                {
                    "name": "D5",
                    "midi": 74,
                    "time": 170.3620263750047,
                    "velocity": 0.7244094488188977,
                    "duration": 0.10344825000001379
                },
                {
                    "name": "E5",
                    "midi": 76,
                    "time": 170.4654746250047,
                    "velocity": 0.7559055118110236,
                    "duration": 0.10344825000001379
                },
                {
                    "name": "F5",
                    "midi": 77,
                    "time": 170.56892287500472,
                    "velocity": 0.7007874015748031,
                    "duration": 0.10344825000001379
                },
                {
                    "name": "G5",
                    "midi": 79,
                    "time": 170.67237112500473,
                    "velocity": 0.6850393700787402,
                    "duration": 0.10344825000001379
                },
                {
                    "name": "F5",
                    "midi": 77,
                    "time": 170.77581937500474,
                    "velocity": 0.6692913385826772,
                    "duration": 0.10344825000001379
                },
                {
                    "name": "D5",
                    "midi": 74,
                    "time": 170.87926762500476,
                    "velocity": 0.7795275590551181,
                    "duration": 0.10344825000001379
                },
                {
                    "name": "E5",
                    "midi": 76,
                    "time": 170.98271587500477,
                    "velocity": 0.7480314960629921,
                    "duration": 0.10344825000001379
                },
                {
                    "name": "F5",
                    "midi": 77,
                    "time": 171.08616412500479,
                    "velocity": 0.7401574803149606,
                    "duration": 0.10344825000001379
                },
                {
                    "name": "G5",
                    "midi": 79,
                    "time": 171.1896123750048,
                    "velocity": 0.7007874015748031,
                    "duration": 0.10344825000001379
                },
                {
                    "name": "A5",
                    "midi": 81,
                    "time": 171.2930606250048,
                    "velocity": 0.7086614173228346,
                    "duration": 0.10344825000001379
                },
                {
                    "name": "A#5",
                    "midi": 82,
                    "time": 171.39650887500483,
                    "velocity": 0.7874015748031497,
                    "duration": 0.10344825000001379
                },
                {
                    "name": "C6",
                    "midi": 84,
                    "time": 171.49995712500484,
                    "velocity": 0.7007874015748031,
                    "duration": 0.10344825000001379
                },
                {
                    "name": "D6",
                    "midi": 86,
                    "time": 171.60340537500485,
                    "velocity": 0.7795275590551181,
                    "duration": 0.10344825000001379
                },
                {
                    "name": "D6",
                    "midi": 86,
                    "time": 171.70685362500487,
                    "velocity": 0.9448818897637795,
                    "duration": 0.10344825000001379
                },
                {
                    "name": "C6",
                    "midi": 84,
                    "time": 171.82754325000488,
                    "velocity": 0.7480314960629921,
                    "duration": 0.10344824999998536
                },
                {
                    "name": "A#5",
                    "midi": 82,
                    "time": 171.91375012500487,
                    "velocity": 0.7244094488188977,
                    "duration": 0.10344824999998536
                },
                {
                    "name": "A5",
                    "midi": 81,
                    "time": 172.01719837500485,
                    "velocity": 0.8110236220472441,
                    "duration": 0.10344825000001379
                },
                {
                    "name": "C6",
                    "midi": 84,
                    "time": 172.12064662500487,
                    "velocity": 1,
                    "duration": 0.10344825000001379
                },
                {
                    "name": "A#5",
                    "midi": 82,
                    "time": 172.24133625000488,
                    "velocity": 0.8110236220472441,
                    "duration": 0.10344824999998536
                },
                {
                    "name": "A5",
                    "midi": 81,
                    "time": 172.32754312500487,
                    "velocity": 0.7795275590551181,
                    "duration": 0.10344824999998536
                },
                {
                    "name": "G5",
                    "midi": 79,
                    "time": 172.43099137500485,
                    "velocity": 0.7795275590551181,
                    "duration": 0.10344825000001379
                },
                {
                    "name": "F5",
                    "midi": 77,
                    "time": 172.53443962500486,
                    "velocity": 0.4094488188976378,
                    "duration": 0.10344825000001379
                },
                {
                    "name": "C5",
                    "midi": 72,
                    "time": 172.63788787500488,
                    "velocity": 0.36220472440944884,
                    "duration": 0.10344825000001379
                },
                {
                    "name": "B4",
                    "midi": 71,
                    "time": 172.7413361250049,
                    "velocity": 0.3937007874015748,
                    "duration": 0.10344825000001379
                },
                {
                    "name": "C5",
                    "midi": 72,
                    "time": 172.8447843750049,
                    "velocity": 0.3858267716535433,
                    "duration": 0.10344825000001379
                },
                {
                    "name": "D5",
                    "midi": 74,
                    "time": 172.94823262500492,
                    "velocity": 0.4015748031496063,
                    "duration": 0.10344825000001379
                },
                {
                    "name": "C5",
                    "midi": 72,
                    "time": 173.05168087500493,
                    "velocity": 0.33858267716535434,
                    "duration": 0.10344825000001379
                },
                {
                    "name": "B4",
                    "midi": 71,
                    "time": 173.15512912500495,
                    "velocity": 0.3464566929133858,
                    "duration": 0.10344825000001379
                },
                {
                    "name": "C5",
                    "midi": 72,
                    "time": 173.25857737500496,
                    "velocity": 0.3858267716535433,
                    "duration": 0.10344825000001379
                },
                {
                    "name": "F5",
                    "midi": 77,
                    "time": 173.36202562500497,
                    "velocity": 0.4015748031496063,
                    "duration": 0.10344825000001379
                },
                {
                    "name": "C5",
                    "midi": 72,
                    "time": 173.465473875005,
                    "velocity": 0.36220472440944884,
                    "duration": 0.10344825000001379
                },
                {
                    "name": "B4",
                    "midi": 71,
                    "time": 173.568922125005,
                    "velocity": 0.3700787401574803,
                    "duration": 0.10344825000001379
                },
                {
                    "name": "C5",
                    "midi": 72,
                    "time": 173.67237037500502,
                    "velocity": 0.3779527559055118,
                    "duration": 0.10344825000001379
                },
                {
                    "name": "A5",
                    "midi": 81,
                    "time": 173.77581862500503,
                    "velocity": 0.30708661417322836,
                    "duration": 0.10344825000001379
                },
                {
                    "name": "C5",
                    "midi": 72,
                    "time": 173.87926687500504,
                    "velocity": 0.36220472440944884,
                    "duration": 0.10344825000001379
                },
                {
                    "name": "B4",
                    "midi": 71,
                    "time": 173.98271512500506,
                    "velocity": 0.3937007874015748,
                    "duration": 0.10344825000001379
                },
                {
                    "name": "C5",
                    "midi": 72,
                    "time": 174.08616337500507,
                    "velocity": 0.3543307086614173,
                    "duration": 0.10344825000001379
                },
                {
                    "name": "A#5",
                    "midi": 82,
                    "time": 174.18961162500509,
                    "velocity": 0.3779527559055118,
                    "duration": 0.10344825000001379
                },
                {
                    "name": "C6",
                    "midi": 84,
                    "time": 174.2930598750051,
                    "velocity": 0.33070866141732286,
                    "duration": 0.10344825000001379
                },
                {
                    "name": "A#5",
                    "midi": 82,
                    "time": 174.3965081250051,
                    "velocity": 0.31496062992125984,
                    "duration": 0.10344825000001379
                },
                {
                    "name": "A5",
                    "midi": 81,
                    "time": 174.49995637500513,
                    "velocity": 0.4015748031496063,
                    "duration": 0.10344825000001379
                },
                {
                    "name": "G5",
                    "midi": 79,
                    "time": 174.60340462500514,
                    "velocity": 0.4015748031496063,
                    "duration": 0.10344825000001379
                },
                {
                    "name": "A5",
                    "midi": 81,
                    "time": 174.70685287500515,
                    "velocity": 0.3779527559055118,
                    "duration": 0.10344825000001379
                },
                {
                    "name": "G5",
                    "midi": 79,
                    "time": 174.81030112500517,
                    "velocity": 0.31496062992125984,
                    "duration": 0.10344825000001379
                },
                {
                    "name": "F5",
                    "midi": 77,
                    "time": 174.91374937500518,
                    "velocity": 0.3937007874015748,
                    "duration": 0.10344825000001379
                },
                {
                    "name": "E5",
                    "midi": 76,
                    "time": 175.0171976250052,
                    "velocity": 0.31496062992125984,
                    "duration": 0.10344825000001379
                },
                {
                    "name": "F5",
                    "midi": 77,
                    "time": 175.1206458750052,
                    "velocity": 0.41732283464566927,
                    "duration": 0.10344825000001379
                },
                {
                    "name": "G5",
                    "midi": 79,
                    "time": 175.22409412500522,
                    "velocity": 0.30708661417322836,
                    "duration": 0.10344825000001379
                },
                {
                    "name": "F5",
                    "midi": 77,
                    "time": 175.32754237500524,
                    "velocity": 0.33070866141732286,
                    "duration": 0.10344825000001379
                },
                {
                    "name": "E5",
                    "midi": 76,
                    "time": 175.43099062500525,
                    "velocity": 0.41732283464566927,
                    "duration": 0.10344825000001379
                },
                {
                    "name": "D5",
                    "midi": 74,
                    "time": 175.53443887500526,
                    "velocity": 0.3858267716535433,
                    "duration": 0.10344825000001379
                },
                {
                    "name": "C5",
                    "midi": 72,
                    "time": 175.63788712500528,
                    "velocity": 0.3858267716535433,
                    "duration": 0.10344825000001379
                },
                {
                    "name": "A#4",
                    "midi": 70,
                    "time": 175.7413353750053,
                    "velocity": 0.4094488188976378,
                    "duration": 0.10344825000001379
                },
                {
                    "name": "A4",
                    "midi": 69,
                    "time": 175.8447836250053,
                    "velocity": 0.36220472440944884,
                    "duration": 0.10344825000001379
                },
                {
                    "name": "C5",
                    "midi": 72,
                    "time": 175.94823187500532,
                    "velocity": 0.3700787401574803,
                    "duration": 0.10344825000001379
                },
                {
                    "name": "B4",
                    "midi": 71,
                    "time": 176.05168012500533,
                    "velocity": 0.4094488188976378,
                    "duration": 0.10344825000001379
                },
                {
                    "name": "C5",
                    "midi": 72,
                    "time": 176.15512837500535,
                    "velocity": 0.3700787401574803,
                    "duration": 0.10344825000001379
                },
                {
                    "name": "D5",
                    "midi": 74,
                    "time": 176.25857662500536,
                    "velocity": 0.33070866141732286,
                    "duration": 0.10344825000001379
                },
                {
                    "name": "C5",
                    "midi": 72,
                    "time": 176.36202487500537,
                    "velocity": 0.3228346456692913,
                    "duration": 0.10344825000001379
                },
                {
                    "name": "B4",
                    "midi": 71,
                    "time": 176.4654731250054,
                    "velocity": 0.33858267716535434,
                    "duration": 0.10344825000001379
                },
                {
                    "name": "C5",
                    "midi": 72,
                    "time": 176.5689213750054,
                    "velocity": 0.3543307086614173,
                    "duration": 0.10344825000001379
                },
                {
                    "name": "F5",
                    "midi": 77,
                    "time": 176.67236962500542,
                    "velocity": 0.41732283464566927,
                    "duration": 0.10344825000001379
                },
                {
                    "name": "C5",
                    "midi": 72,
                    "time": 176.77581787500543,
                    "velocity": 0.4094488188976378,
                    "duration": 0.10344825000001379
                },
                {
                    "name": "B4",
                    "midi": 71,
                    "time": 176.87926612500544,
                    "velocity": 0.3700787401574803,
                    "duration": 0.10344825000001379
                },
                {
                    "name": "C5",
                    "midi": 72,
                    "time": 176.98271437500546,
                    "velocity": 0.41732283464566927,
                    "duration": 0.10344825000001379
                },
                {
                    "name": "A5",
                    "midi": 81,
                    "time": 177.08616262500547,
                    "velocity": 0.31496062992125984,
                    "duration": 0.10344825000001379
                },
                {
                    "name": "C5",
                    "midi": 72,
                    "time": 177.18961087500549,
                    "velocity": 0.3543307086614173,
                    "duration": 0.10344825000001379
                },
                {
                    "name": "B4",
                    "midi": 71,
                    "time": 177.2930591250055,
                    "velocity": 0.3858267716535433,
                    "duration": 0.10344825000001379
                },
                {
                    "name": "C5",
                    "midi": 72,
                    "time": 177.3965073750055,
                    "velocity": 0.30708661417322836,
                    "duration": 0.10344825000001379
                },
                {
                    "name": "A#5",
                    "midi": 82,
                    "time": 177.49995562500553,
                    "velocity": 0.3779527559055118,
                    "duration": 0.10344825000001379
                },
                {
                    "name": "C6",
                    "midi": 84,
                    "time": 177.60340387500554,
                    "velocity": 0.36220472440944884,
                    "duration": 0.10344825000001379
                },
                {
                    "name": "A#5",
                    "midi": 82,
                    "time": 177.70685212500555,
                    "velocity": 0.4015748031496063,
                    "duration": 0.10344825000001379
                },
                {
                    "name": "A5",
                    "midi": 81,
                    "time": 177.81030037500557,
                    "velocity": 0.3779527559055118,
                    "duration": 0.10344825000001379
                },
                {
                    "name": "G5",
                    "midi": 79,
                    "time": 177.91374862500558,
                    "velocity": 0.3464566929133858,
                    "duration": 0.10344825000001379
                },
                {
                    "name": "A5",
                    "midi": 81,
                    "time": 178.0171968750056,
                    "velocity": 0.30708661417322836,
                    "duration": 0.10344825000001379
                },
                {
                    "name": "G5",
                    "midi": 79,
                    "time": 178.1206451250056,
                    "velocity": 0.4015748031496063,
                    "duration": 0.10344825000001379
                },
                {
                    "name": "F5",
                    "midi": 77,
                    "time": 178.22409337500562,
                    "velocity": 0.3858267716535433,
                    "duration": 0.10344825000001379
                },
                {
                    "name": "E5",
                    "midi": 76,
                    "time": 178.32754162500564,
                    "velocity": 0.33858267716535434,
                    "duration": 0.10344825000001379
                },
                {
                    "name": "F5",
                    "midi": 77,
                    "time": 178.43098987500565,
                    "velocity": 0.36220472440944884,
                    "duration": 0.10344825000001379
                },
                {
                    "name": "G5",
                    "midi": 79,
                    "time": 178.53443812500566,
                    "velocity": 0.4094488188976378,
                    "duration": 0.10344825000001379
                },
                {
                    "name": "F5",
                    "midi": 77,
                    "time": 178.63788637500568,
                    "velocity": 0.36220472440944884,
                    "duration": 0.10344825000001379
                },
                {
                    "name": "E5",
                    "midi": 76,
                    "time": 178.7413346250057,
                    "velocity": 0.4015748031496063,
                    "duration": 0.10344825000001379
                },
                {
                    "name": "D5",
                    "midi": 74,
                    "time": 178.8447828750057,
                    "velocity": 0.41732283464566927,
                    "duration": 0.10344825000001379
                },
                {
                    "name": "C5",
                    "midi": 72,
                    "time": 178.94823112500572,
                    "velocity": 0.3700787401574803,
                    "duration": 0.10344825000001379
                },
                {
                    "name": "A#4",
                    "midi": 70,
                    "time": 179.05167937500573,
                    "velocity": 0.3464566929133858,
                    "duration": 0.10344825000001379
                },
                {
                    "name": "A4",
                    "midi": 69,
                    "time": 179.15512762500575,
                    "velocity": 0.3937007874015748,
                    "duration": 0.10344825000001379
                },
                {
                    "name": "C5",
                    "midi": 72,
                    "time": 179.25857587500576,
                    "velocity": 0.3228346456692913,
                    "duration": 0.10344825000001379
                },
                {
                    "name": "D5",
                    "midi": 74,
                    "time": 179.36202412500577,
                    "velocity": 0.4094488188976378,
                    "duration": 0.10344825000001379
                },
                {
                    "name": "E5",
                    "midi": 76,
                    "time": 179.4654723750058,
                    "velocity": 0.3700787401574803,
                    "duration": 0.10344825000001379
                },
                {
                    "name": "F5",
                    "midi": 77,
                    "time": 179.5689206250058,
                    "velocity": 0.3700787401574803,
                    "duration": 0.10344825000001379
                },
                {
                    "name": "E5",
                    "midi": 76,
                    "time": 179.67236887500582,
                    "velocity": 0.41732283464566927,
                    "duration": 0.10344825000001379
                },
                {
                    "name": "F5",
                    "midi": 77,
                    "time": 179.77581712500583,
                    "velocity": 0.33858267716535434,
                    "duration": 0.10344825000001379
                },
                {
                    "name": "G5",
                    "midi": 79,
                    "time": 179.87926537500584,
                    "velocity": 0.3779527559055118,
                    "duration": 0.10344825000001379
                },
                {
                    "name": "A5",
                    "midi": 81,
                    "time": 179.98271362500586,
                    "velocity": 0.33858267716535434,
                    "duration": 0.10344825000001379
                },
                {
                    "name": "G5",
                    "midi": 79,
                    "time": 180.08616187500587,
                    "velocity": 0.41732283464566927,
                    "duration": 0.10344825000001379
                },
                {
                    "name": "F5",
                    "midi": 77,
                    "time": 180.18961012500588,
                    "velocity": 0.4015748031496063,
                    "duration": 0.10344825000001379
                },
                {
                    "name": "E5",
                    "midi": 76,
                    "time": 180.2930583750059,
                    "velocity": 0.41732283464566927,
                    "duration": 0.10344825000001379
                },
                {
                    "name": "D5",
                    "midi": 74,
                    "time": 180.3965066250059,
                    "velocity": 0.41732283464566927,
                    "duration": 0.10344825000001379
                },
                {
                    "name": "F5",
                    "midi": 77,
                    "time": 180.49995487500593,
                    "velocity": 0.3779527559055118,
                    "duration": 0.10344825000001379
                },
                {
                    "name": "E5",
                    "midi": 76,
                    "time": 180.60340312500594,
                    "velocity": 0.41732283464566927,
                    "duration": 0.10344825000001379
                },
                {
                    "name": "D5",
                    "midi": 74,
                    "time": 180.70685137500595,
                    "velocity": 0.3858267716535433,
                    "duration": 0.10344825000001379
                },
                {
                    "name": "C#5",
                    "midi": 73,
                    "time": 180.81029962500597,
                    "velocity": 0.4015748031496063,
                    "duration": 0.10344825000001379
                },
                {
                    "name": "D5",
                    "midi": 74,
                    "time": 180.91374787500598,
                    "velocity": 0.3937007874015748,
                    "duration": 0.10344825000001379
                },
                {
                    "name": "E5",
                    "midi": 76,
                    "time": 181.017196125006,
                    "velocity": 0.4015748031496063,
                    "duration": 0.10344825000001379
                },
                {
                    "name": "C#5",
                    "midi": 73,
                    "time": 181.120644375006,
                    "velocity": 0.3858267716535433,
                    "duration": 0.10344825000001379
                },
                {
                    "name": "A4",
                    "midi": 69,
                    "time": 181.22409262500602,
                    "velocity": 0.3543307086614173,
                    "duration": 0.10344825000001379
                },
                {
                    "name": "C#5",
                    "midi": 73,
                    "time": 181.32754087500604,
                    "velocity": 0.4094488188976378,
                    "duration": 0.10344825000001379
                },
                {
                    "name": "D5",
                    "midi": 74,
                    "time": 181.43098912500605,
                    "velocity": 0.3937007874015748,
                    "duration": 0.10344825000001379
                },
                {
                    "name": "E5",
                    "midi": 76,
                    "time": 181.53443737500606,
                    "velocity": 0.4409448818897638,
                    "duration": 0.10344825000001379
                },
                {
                    "name": "F5",
                    "midi": 77,
                    "time": 181.63788562500608,
                    "velocity": 0.4094488188976378,
                    "duration": 0.10344825000001379
                },
                {
                    "name": "E5",
                    "midi": 76,
                    "time": 181.7413338750061,
                    "velocity": 0.4645669291338583,
                    "duration": 0.10344825000001379
                },
                {
                    "name": "D5",
                    "midi": 74,
                    "time": 181.8447821250061,
                    "velocity": 0.4566929133858268,
                    "duration": 0.10344825000001379
                },
                {
                    "name": "C#5",
                    "midi": 73,
                    "time": 181.94823037500612,
                    "velocity": 0.5039370078740157,
                    "duration": 0.10344825000001379
                },
                {
                    "name": "D5",
                    "midi": 74,
                    "time": 182.05167862500613,
                    "velocity": 0.47244094488188976,
                    "duration": 0.10344825000001379
                },
                {
                    "name": "C5",
                    "midi": 72,
                    "time": 182.15512687500615,
                    "velocity": 0.4409448818897638,
                    "duration": 0.10344825000001379
                },
                {
                    "name": "B4",
                    "midi": 71,
                    "time": 182.25857512500616,
                    "velocity": 0.5354330708661418,
                    "duration": 0.10344825000001379
                },
                {
                    "name": "A4",
                    "midi": 69,
                    "time": 182.36202337500617,
                    "velocity": 0.4881889763779528,
                    "duration": 0.10344825000001379
                },
                {
                    "name": "G#4",
                    "midi": 68,
                    "time": 182.4654716250062,
                    "velocity": 0.5275590551181102,
                    "duration": 0.10344825000001379
                },
                {
                    "name": "A4",
                    "midi": 69,
                    "time": 182.5689198750062,
                    "velocity": 0.5118110236220472,
                    "duration": 0.10344825000001379
                },
                {
                    "name": "B4",
                    "midi": 71,
                    "time": 182.67236812500622,
                    "velocity": 0.5669291338582677,
                    "duration": 0.10344825000001379
                },
                {
                    "name": "G#4",
                    "midi": 68,
                    "time": 182.77581637500623,
                    "velocity": 0.5039370078740157,
                    "duration": 0.10344825000001379
                },
                {
                    "name": "E4",
                    "midi": 64,
                    "time": 182.87926462500624,
                    "velocity": 0.5511811023622047,
                    "duration": 0.10344825000001379
                },
                {
                    "name": "D5",
                    "midi": 74,
                    "time": 182.98271287500626,
                    "velocity": 0.6062992125984252,
                    "duration": 0.10344825000001379
                },
                {
                    "name": "C5",
                    "midi": 72,
                    "time": 183.08616112500627,
                    "velocity": 0.6141732283464567,
                    "duration": 0.10344825000001379
                },
                {
                    "name": "B4",
                    "midi": 71,
                    "time": 183.18960937500628,
                    "velocity": 0.6299212598425197,
                    "duration": 0.10344825000001379
                },
                {
                    "name": "A4",
                    "midi": 69,
                    "time": 183.2930576250063,
                    "velocity": 0.6535433070866141,
                    "duration": 0.10344825000001379
                },
                {
                    "name": "G#4",
                    "midi": 68,
                    "time": 183.3965058750063,
                    "velocity": 0.6456692913385826,
                    "duration": 0.10344825000001379
                },
                {
                    "name": "A4",
                    "midi": 69,
                    "time": 183.49995412500633,
                    "velocity": 0.5826771653543307,
                    "duration": 0.10344825000001379
                },
                {
                    "name": "C5",
                    "midi": 72,
                    "time": 183.60340237500634,
                    "velocity": 0.6771653543307087,
                    "duration": 0.10344825000001379
                },
                {
                    "name": "B4",
                    "midi": 71,
                    "time": 183.70685062500635,
                    "velocity": 0.6771653543307087,
                    "duration": 0.10344825000001379
                },
                {
                    "name": "A#4",
                    "midi": 70,
                    "time": 183.81029887500637,
                    "velocity": 0.7086614173228346,
                    "duration": 0.10344825000001379
                },
                {
                    "name": "B4",
                    "midi": 71,
                    "time": 183.91374712500638,
                    "velocity": 0.6535433070866141,
                    "duration": 0.10344825000001379
                },
                {
                    "name": "D5",
                    "midi": 74,
                    "time": 184.0171953750064,
                    "velocity": 0.7007874015748031,
                    "duration": 0.10344825000001379
                },
                {
                    "name": "C5",
                    "midi": 72,
                    "time": 184.1206436250064,
                    "velocity": 0.6535433070866141,
                    "duration": 0.10344825000001379
                },
                {
                    "name": "B4",
                    "midi": 71,
                    "time": 184.22409187500642,
                    "velocity": 0.6614173228346457,
                    "duration": 0.10344825000001379
                },
                {
                    "name": "C5",
                    "midi": 72,
                    "time": 184.32754012500644,
                    "velocity": 0.6929133858267716,
                    "duration": 0.10344825000001379
                },
                {
                    "name": "E5",
                    "midi": 76,
                    "time": 184.43098837500645,
                    "velocity": 0.7165354330708661,
                    "duration": 0.10344825000001379
                },
                {
                    "name": "C#5",
                    "midi": 73,
                    "time": 184.53443662500646,
                    "velocity": 0.6929133858267716,
                    "duration": 0.10344825000001379
                },
                {
                    "name": "A5",
                    "midi": 81,
                    "time": 184.63788487500648,
                    "velocity": 0.7322834645669292,
                    "duration": 0.10344825000001379
                },
                {
                    "name": "G5",
                    "midi": 79,
                    "time": 184.7413331250065,
                    "velocity": 0.6929133858267716,
                    "duration": 0.10344825000001379
                },
                {
                    "name": "E5",
                    "midi": 76,
                    "time": 184.8447813750065,
                    "velocity": 0.7795275590551181,
                    "duration": 0.10344825000001379
                },
                {
                    "name": "D5",
                    "midi": 74,
                    "time": 184.94822962500652,
                    "velocity": 0.7086614173228346,
                    "duration": 0.10344825000001379
                },
                {
                    "name": "A5",
                    "midi": 81,
                    "time": 185.05167787500653,
                    "velocity": 0.8031496062992126,
                    "duration": 0.10344825000001379
                },
                {
                    "name": "F#5",
                    "midi": 78,
                    "time": 185.15512612500655,
                    "velocity": 0.8346456692913385,
                    "duration": 0.10344825000001379
                },
                {
                    "name": "E5",
                    "midi": 76,
                    "time": 185.25857437500656,
                    "velocity": 0.7480314960629921,
                    "duration": 0.10344825000001379
                },
                {
                    "name": "D#5",
                    "midi": 75,
                    "time": 185.36202262500657,
                    "velocity": 0.7716535433070866,
                    "duration": 0.10344825000001379
                },
                {
                    "name": "C6",
                    "midi": 84,
                    "time": 185.4654708750066,
                    "velocity": 0.8503937007874016,
                    "duration": 0.10344825000001379
                },
                {
                    "name": "B5",
                    "midi": 83,
                    "time": 185.5689191250066,
                    "velocity": 0.8031496062992126,
                    "duration": 0.10344825000001379
                },
                {
                    "name": "A5",
                    "midi": 81,
                    "time": 185.67236737500662,
                    "velocity": 0.8740157480314961,
                    "duration": 0.10344825000001379
                },
                {
                    "name": "G#5",
                    "midi": 80,
                    "time": 185.77581562500663,
                    "velocity": 0.8031496062992126,
                    "duration": 0.10344825000001379
                },
                {
                    "name": "E5",
                    "midi": 76,
                    "time": 185.87926387500664,
                    "velocity": 0.6062992125984252,
                    "duration": 0.10344825000001379
                },
                {
                    "name": "D#5",
                    "midi": 75,
                    "time": 185.98271212500666,
                    "velocity": 0.2992125984251969,
                    "duration": 0.10344825000001379
                },
                {
                    "name": "E5",
                    "midi": 76,
                    "time": 186.08616037500667,
                    "velocity": 0.3464566929133858,
                    "duration": 0.10344825000001379
                },
                {
                    "name": "F5",
                    "midi": 77,
                    "time": 186.18960862500668,
                    "velocity": 0.2677165354330709,
                    "duration": 0.10344825000001379
                },
                {
                    "name": "E5",
                    "midi": 76,
                    "time": 186.2930568750067,
                    "velocity": 0.33858267716535434,
                    "duration": 0.10344825000001379
                },
                {
                    "name": "D#5",
                    "midi": 75,
                    "time": 186.3965051250067,
                    "velocity": 0.2755905511811024,
                    "duration": 0.10344825000001379
                },
                {
                    "name": "E5",
                    "midi": 76,
                    "time": 186.49995337500673,
                    "velocity": 0.3228346456692913,
                    "duration": 0.10344825000001379
                },
                {
                    "name": "G#5",
                    "midi": 80,
                    "time": 186.60340162500674,
                    "velocity": 0.3464566929133858,
                    "duration": 0.10344825000001379
                },
                {
                    "name": "E5",
                    "midi": 76,
                    "time": 186.70684987500675,
                    "velocity": 0.30708661417322836,
                    "duration": 0.10344825000001379
                },
                {
                    "name": "D#5",
                    "midi": 75,
                    "time": 186.81029812500677,
                    "velocity": 0.33070866141732286,
                    "duration": 0.10344825000001379
                },
                {
                    "name": "E5",
                    "midi": 76,
                    "time": 186.91374637500678,
                    "velocity": 0.25984251968503935,
                    "duration": 0.10344825000001379
                },
                {
                    "name": "B5",
                    "midi": 83,
                    "time": 187.0171946250068,
                    "velocity": 0.25984251968503935,
                    "duration": 0.10344825000001379
                },
                {
                    "name": "E5",
                    "midi": 76,
                    "time": 187.1206428750068,
                    "velocity": 0.31496062992125984,
                    "duration": 0.10344825000001379
                },
                {
                    "name": "D#5",
                    "midi": 75,
                    "time": 187.22409112500682,
                    "velocity": 0.2755905511811024,
                    "duration": 0.10344825000001379
                },
                {
                    "name": "E5",
                    "midi": 76,
                    "time": 187.32753937500684,
                    "velocity": 0.30708661417322836,
                    "duration": 0.10344825000001379
                },
                {
                    "name": "C6",
                    "midi": 84,
                    "time": 187.43098762500685,
                    "velocity": 0.2677165354330709,
                    "duration": 0.10344825000001379
                },
                {
                    "name": "D6",
                    "midi": 86,
                    "time": 187.53443587500686,
                    "velocity": 0.31496062992125984,
                    "duration": 0.10344825000001379
                },
                {
                    "name": "C6",
                    "midi": 84,
                    "time": 187.63788412500688,
                    "velocity": 0.33070866141732286,
                    "duration": 0.10344825000001379
                },
                {
                    "name": "B5",
                    "midi": 83,
                    "time": 187.7413323750069,
                    "velocity": 0.33858267716535434,
                    "duration": 0.10344825000001379
                },
                {
                    "name": "A5",
                    "midi": 81,
                    "time": 187.8447806250069,
                    "velocity": 0.3543307086614173,
                    "duration": 0.10344825000001379
                },
                {
                    "name": "B5",
                    "midi": 83,
                    "time": 187.94822887500692,
                    "velocity": 0.25984251968503935,
                    "duration": 0.10344825000001379
                },
                {
                    "name": "A5",
                    "midi": 81,
                    "time": 188.05167712500693,
                    "velocity": 0.33070866141732286,
                    "duration": 0.10344825000001379
                },
                {
                    "name": "G#5",
                    "midi": 80,
                    "time": 188.15512537500695,
                    "velocity": 0.33070866141732286,
                    "duration": 0.10344825000001379
                },
                {
                    "name": "A5",
                    "midi": 81,
                    "time": 188.25857362500696,
                    "velocity": 0.31496062992125984,
                    "duration": 0.10344825000001379
                },
                {
                    "name": "E5",
                    "midi": 76,
                    "time": 188.36202187500697,
                    "velocity": 0.33858267716535434,
                    "duration": 0.10344825000001379
                },
                {
                    "name": "F5",
                    "midi": 77,
                    "time": 188.465470125007,
                    "velocity": 0.36220472440944884,
                    "duration": 0.10344825000001379
                },
                {
                    "name": "E5",
                    "midi": 76,
                    "time": 188.568918375007,
                    "velocity": 0.33858267716535434,
                    "duration": 0.10344825000001379
                },
                {
                    "name": "D5",
                    "midi": 74,
                    "time": 188.67236662500702,
                    "velocity": 0.28346456692913385,
                    "duration": 0.10344825000001379
                },
                {
                    "name": "C5",
                    "midi": 72,
                    "time": 188.77581487500703,
                    "velocity": 0.29133858267716534,
                    "duration": 0.10344825000001379
                },
                {
                    "name": "B4",
                    "midi": 71,
                    "time": 188.87926312500704,
                    "velocity": 0.25984251968503935,
                    "duration": 0.10344825000001379
                },
                {
                    "name": "A4",
                    "midi": 69,
                    "time": 188.98271137500706,
                    "velocity": 0.33070866141732286,
                    "duration": 0.10344825000001379
                },
                {
                    "name": "G#4",
                    "midi": 68,
                    "time": 189.08615962500707,
                    "velocity": 0.3464566929133858,
                    "duration": 0.10344825000001379
                },
                {
                    "name": "E4",
                    "midi": 64,
                    "time": 189.18960787500708,
                    "velocity": 0.29133858267716534,
                    "duration": 0.10344825000001379
                },
                {
                    "name": "D#4",
                    "midi": 63,
                    "time": 189.2930561250071,
                    "velocity": 0.33858267716535434,
                    "duration": 0.10344825000001379
                },
                {
                    "name": "E4",
                    "midi": 64,
                    "time": 189.3965043750071,
                    "velocity": 0.36220472440944884,
                    "duration": 0.10344825000001379
                },
                {
                    "name": "F4",
                    "midi": 65,
                    "time": 189.49995262500713,
                    "velocity": 0.33858267716535434,
                    "duration": 0.10344825000001379
                },
                {
                    "name": "E4",
                    "midi": 64,
                    "time": 189.60340087500714,
                    "velocity": 0.31496062992125984,
                    "duration": 0.10344825000001379
                },
                {
                    "name": "D#4",
                    "midi": 63,
                    "time": 189.70684912500715,
                    "velocity": 0.28346456692913385,
                    "duration": 0.10344825000001379
                },
                {
                    "name": "E4",
                    "midi": 64,
                    "time": 189.81029737500717,
                    "velocity": 0.3543307086614173,
                    "duration": 0.10344825000001379
                },
                {
                    "name": "G#4",
                    "midi": 68,
                    "time": 189.91374562500718,
                    "velocity": 0.36220472440944884,
                    "duration": 0.10344825000001379
                },
                {
                    "name": "E4",
                    "midi": 64,
                    "time": 190.0171938750072,
                    "velocity": 0.2755905511811024,
                    "duration": 0.10344825000001379
                },
                {
                    "name": "D#4",
                    "midi": 63,
                    "time": 190.1206421250072,
                    "velocity": 0.3464566929133858,
                    "duration": 0.10344825000001379
                },
                {
                    "name": "E4",
                    "midi": 64,
                    "time": 190.22409037500722,
                    "velocity": 0.33858267716535434,
                    "duration": 0.10344825000001379
                },
                {
                    "name": "B4",
                    "midi": 71,
                    "time": 190.32753862500724,
                    "velocity": 0.2992125984251969,
                    "duration": 0.10344825000001379
                },
                {
                    "name": "E4",
                    "midi": 64,
                    "time": 190.43098687500725,
                    "velocity": 0.3464566929133858,
                    "duration": 0.10344825000001379
                },
                {
                    "name": "D#4",
                    "midi": 63,
                    "time": 190.53443512500726,
                    "velocity": 0.31496062992125984,
                    "duration": 0.10344825000001379
                },
                {
                    "name": "E4",
                    "midi": 64,
                    "time": 190.63788337500728,
                    "velocity": 0.3228346456692913,
                    "duration": 0.10344825000001379
                },
                {
                    "name": "C5",
                    "midi": 72,
                    "time": 190.7413316250073,
                    "velocity": 0.2755905511811024,
                    "duration": 0.10344825000001379
                },
                {
                    "name": "D5",
                    "midi": 74,
                    "time": 190.8447798750073,
                    "velocity": 0.25984251968503935,
                    "duration": 0.10344825000001379
                },
                {
                    "name": "C5",
                    "midi": 72,
                    "time": 190.94822812500732,
                    "velocity": 0.36220472440944884,
                    "duration": 0.10344825000001379
                },
                {
                    "name": "B4",
                    "midi": 71,
                    "time": 191.05167637500733,
                    "velocity": 0.3700787401574803,
                    "duration": 0.10344825000001379
                },
                {
                    "name": "A4",
                    "midi": 69,
                    "time": 191.15512462500735,
                    "velocity": 0.3228346456692913,
                    "duration": 0.10344825000001379
                },
                {
                    "name": "B4",
                    "midi": 71,
                    "time": 191.25857287500736,
                    "velocity": 0.29133858267716534,
                    "duration": 0.10344825000001379
                },
                {
                    "name": "A4",
                    "midi": 69,
                    "time": 191.36202112500737,
                    "velocity": 0.3543307086614173,
                    "duration": 0.10344825000001379
                },
                {
                    "name": "G#4",
                    "midi": 68,
                    "time": 191.4654693750074,
                    "velocity": 0.25984251968503935,
                    "duration": 0.10344825000001379
                },
                {
                    "name": "A4",
                    "midi": 69,
                    "time": 191.5689176250074,
                    "velocity": 0.36220472440944884,
                    "duration": 0.10344825000001379
                },
                {
                    "name": "E4",
                    "midi": 64,
                    "time": 191.67236587500742,
                    "velocity": 0.3700787401574803,
                    "duration": 0.10344825000001379
                },
                {
                    "name": "F4",
                    "midi": 65,
                    "time": 191.77581412500743,
                    "velocity": 0.2992125984251969,
                    "duration": 0.10344825000001379
                },
                {
                    "name": "E4",
                    "midi": 64,
                    "time": 191.87926237500744,
                    "velocity": 0.2992125984251969,
                    "duration": 0.10344825000001379
                },
                {
                    "name": "D4",
                    "midi": 62,
                    "time": 191.98271062500746,
                    "velocity": 0.30708661417322836,
                    "duration": 0.10344825000001379
                },
                {
                    "name": "C4",
                    "midi": 60,
                    "time": 192.08615887500747,
                    "velocity": 0.36220472440944884,
                    "duration": 0.10344825000001379
                },
                {
                    "name": "B3",
                    "midi": 59,
                    "time": 192.18960712500748,
                    "velocity": 0.25984251968503935,
                    "duration": 0.10344825000001379
                },
                {
                    "name": "A3",
                    "midi": 57,
                    "time": 192.2930553750075,
                    "velocity": 0.29133858267716534,
                    "duration": 0.10344825000001379
                },
                {
                    "name": "E4",
                    "midi": 64,
                    "time": 192.3965036250075,
                    "velocity": 0.3464566929133858,
                    "duration": 0.10344825000001379
                },
                {
                    "name": "E5",
                    "midi": 76,
                    "time": 192.49995187500753,
                    "velocity": 0.3228346456692913,
                    "duration": 0.10344825000001379
                },
                {
                    "name": "F5",
                    "midi": 77,
                    "time": 192.60340012500754,
                    "velocity": 0.31496062992125984,
                    "duration": 0.10344825000001379
                },
                {
                    "name": "E5",
                    "midi": 76,
                    "time": 192.70684837500755,
                    "velocity": 0.25984251968503935,
                    "duration": 0.10344825000001379
                },
                {
                    "name": "G#5",
                    "midi": 80,
                    "time": 192.81029662500757,
                    "velocity": 0.2677165354330709,
                    "duration": 0.10344825000001379
                },
                {
                    "name": "E5",
                    "midi": 76,
                    "time": 192.91374487500758,
                    "velocity": 0.3700787401574803,
                    "duration": 0.10344825000001379
                },
                {
                    "name": "F5",
                    "midi": 77,
                    "time": 193.0171931250076,
                    "velocity": 0.33858267716535434,
                    "duration": 0.10344825000001379
                },
                {
                    "name": "E5",
                    "midi": 76,
                    "time": 193.1206413750076,
                    "velocity": 0.33858267716535434,
                    "duration": 0.10344825000001379
                },
                {
                    "name": "A5",
                    "midi": 81,
                    "time": 193.22408962500762,
                    "velocity": 0.2755905511811024,
                    "duration": 0.10344825000001379
                },
                {
                    "name": "E5",
                    "midi": 76,
                    "time": 193.32753787500764,
                    "velocity": 0.2677165354330709,
                    "duration": 0.10344825000001379
                },
                {
                    "name": "F5",
                    "midi": 77,
                    "time": 193.43098612500765,
                    "velocity": 0.3228346456692913,
                    "duration": 0.10344825000001379
                },
                {
                    "name": "E5",
                    "midi": 76,
                    "time": 193.53443437500766,
                    "velocity": 0.2755905511811024,
                    "duration": 0.10344825000001379
                },
                {
                    "name": "B5",
                    "midi": 83,
                    "time": 193.63788262500768,
                    "velocity": 0.3700787401574803,
                    "duration": 0.10344825000001379
                },
                {
                    "name": "E5",
                    "midi": 76,
                    "time": 193.7413308750077,
                    "velocity": 0.33858267716535434,
                    "duration": 0.10344825000001379
                },
                {
                    "name": "F5",
                    "midi": 77,
                    "time": 193.8447791250077,
                    "velocity": 0.3464566929133858,
                    "duration": 0.10344825000001379
                },
                {
                    "name": "E5",
                    "midi": 76,
                    "time": 193.94822737500772,
                    "velocity": 0.3464566929133858,
                    "duration": 0.10344825000001379
                },
                {
                    "name": "C6",
                    "midi": 84,
                    "time": 194.05167562500773,
                    "velocity": 0.33858267716535434,
                    "duration": 0.10344825000001379
                },
                {
                    "name": "A5",
                    "midi": 81,
                    "time": 194.15512387500775,
                    "velocity": 0.31496062992125984,
                    "duration": 0.10344825000001379
                },
                {
                    "name": "B5",
                    "midi": 83,
                    "time": 194.25857212500776,
                    "velocity": 0.3543307086614173,
                    "duration": 0.10344825000001379
                },
                {
                    "name": "A5",
                    "midi": 81,
                    "time": 194.36202037500777,
                    "velocity": 0.28346456692913385,
                    "duration": 0.10344825000001379
                },
                {
                    "name": "C#6",
                    "midi": 85,
                    "time": 194.4654686250078,
                    "velocity": 0.3779527559055118,
                    "duration": 0.10344825000001379
                },
                {
                    "name": "A5",
                    "midi": 81,
                    "time": 194.5689168750078,
                    "velocity": 0.28346456692913385,
                    "duration": 0.10344825000001379
                },
                {
                    "name": "A#5",
                    "midi": 82,
                    "time": 194.67236512500781,
                    "velocity": 0.3228346456692913,
                    "duration": 0.10344825000001379
                },
                {
                    "name": "A5",
                    "midi": 81,
                    "time": 194.77581337500783,
                    "velocity": 0.3858267716535433,
                    "duration": 0.10344825000001379
                },
                {
                    "name": "D6",
                    "midi": 86,
                    "time": 194.87926162500784,
                    "velocity": 0.2755905511811024,
                    "duration": 0.10344825000001379
                },
                {
                    "name": "A5",
                    "midi": 81,
                    "time": 194.98270987500786,
                    "velocity": 0.3700787401574803,
                    "duration": 0.10344825000001379
                },
                {
                    "name": "A#5",
                    "midi": 82,
                    "time": 195.08615812500787,
                    "velocity": 0.3700787401574803,
                    "duration": 0.10344825000001379
                },
                {
                    "name": "A5",
                    "midi": 81,
                    "time": 195.18960637500788,
                    "velocity": 0.30708661417322836,
                    "duration": 0.10344825000001379
                },
                {
                    "name": "E6",
                    "midi": 88,
                    "time": 195.2930546250079,
                    "velocity": 0.3228346456692913,
                    "duration": 0.10344825000001379
                },
                {
                    "name": "A5",
                    "midi": 81,
                    "time": 195.3965028750079,
                    "velocity": 0.3464566929133858,
                    "duration": 0.10344825000001379
                },
                {
                    "name": "A#5",
                    "midi": 82,
                    "time": 195.49995112500793,
                    "velocity": 0.3543307086614173,
                    "duration": 0.10344825000001379
                },
                {
                    "name": "A5",
                    "midi": 81,
                    "time": 195.60339937500794,
                    "velocity": 0.4094488188976378,
                    "duration": 0.10344825000001379
                },
                {
                    "name": "F6",
                    "midi": 89,
                    "time": 195.70684762500795,
                    "velocity": 0.36220472440944884,
                    "duration": 0.10344825000001379
                },
                {
                    "name": "E6",
                    "midi": 88,
                    "time": 195.81029587500797,
                    "velocity": 0.3858267716535433,
                    "duration": 0.10344825000001379
                },
                {
                    "name": "D6",
                    "midi": 86,
                    "time": 195.91374412500798,
                    "velocity": 0.36220472440944884,
                    "duration": 0.10344825000001379
                },
                {
                    "name": "C#6",
                    "midi": 85,
                    "time": 196.017192375008,
                    "velocity": 0.3700787401574803,
                    "duration": 0.10344825000001379
                },
                {
                    "name": "D6",
                    "midi": 86,
                    "time": 196.120640625008,
                    "velocity": 0.4251968503937008,
                    "duration": 0.10344825000001379
                },
                {
                    "name": "C#6",
                    "midi": 85,
                    "time": 196.22408887500802,
                    "velocity": 0.3937007874015748,
                    "duration": 0.10344825000001379
                },
                {
                    "name": "D6",
                    "midi": 86,
                    "time": 196.32753712500804,
                    "velocity": 0.3937007874015748,
                    "duration": 0.10344825000001379
                },
                {
                    "name": "E6",
                    "midi": 88,
                    "time": 196.43098537500805,
                    "velocity": 0.3779527559055118,
                    "duration": 0.10344825000001379
                },
                {
                    "name": "F6",
                    "midi": 89,
                    "time": 196.53443362500806,
                    "velocity": 0.4251968503937008,
                    "duration": 0.10344825000001379
                },
                {
                    "name": "E6",
                    "midi": 88,
                    "time": 196.63788187500808,
                    "velocity": 0.4330708661417323,
                    "duration": 0.10344825000001379
                },
                {
                    "name": "G6",
                    "midi": 91,
                    "time": 196.7413301250081,
                    "velocity": 0.3700787401574803,
                    "duration": 0.10344825000001379
                },
                {
                    "name": "F6",
                    "midi": 89,
                    "time": 196.8447783750081,
                    "velocity": 0.4094488188976378,
                    "duration": 0.10344825000001379
                },
                {
                    "name": "E6",
                    "midi": 88,
                    "time": 196.94822662500812,
                    "velocity": 0.33858267716535434,
                    "duration": 0.10344825000001379
                },
                {
                    "name": "D6",
                    "midi": 86,
                    "time": 197.05167487500813,
                    "velocity": 0.3937007874015748,
                    "duration": 0.10344825000001379
                },
                {
                    "name": "C6",
                    "midi": 84,
                    "time": 197.15512312500815,
                    "velocity": 0.41732283464566927,
                    "duration": 0.10344825000001379
                },
                {
                    "name": "A#5",
                    "midi": 82,
                    "time": 197.25857137500816,
                    "velocity": 0.3937007874015748,
                    "duration": 0.10344825000001379
                },
                {
                    "name": "A5",
                    "midi": 81,
                    "time": 197.36201962500817,
                    "velocity": 0.44881889763779526,
                    "duration": 0.10344825000001379
                },
                {
                    "name": "G#5",
                    "midi": 80,
                    "time": 197.4654678750082,
                    "velocity": 0.41732283464566927,
                    "duration": 0.10344825000001379
                },
                {
                    "name": "A5",
                    "midi": 81,
                    "time": 197.5689161250082,
                    "velocity": 0.4409448818897638,
                    "duration": 0.10344825000001379
                },
                {
                    "name": "B5",
                    "midi": 83,
                    "time": 197.67236437500821,
                    "velocity": 0.3937007874015748,
                    "duration": 0.10344825000001379
                },
                {
                    "name": "C6",
                    "midi": 84,
                    "time": 197.77581262500823,
                    "velocity": 0.4015748031496063,
                    "duration": 0.10344825000001379
                },
                {
                    "name": "D6",
                    "midi": 86,
                    "time": 197.87926087500824,
                    "velocity": 0.4015748031496063,
                    "duration": 0.10344825000001379
                },
                {
                    "name": "E6",
                    "midi": 88,
                    "time": 197.98270912500826,
                    "velocity": 0.44881889763779526,
                    "duration": 0.10344825000001379
                },
                {
                    "name": "F6",
                    "midi": 89,
                    "time": 198.08615737500827,
                    "velocity": 0.4330708661417323,
                    "duration": 0.10344825000001379
                },
                {
                    "name": "E6",
                    "midi": 88,
                    "time": 198.18960562500828,
                    "velocity": 0.3937007874015748,
                    "duration": 0.10344825000001379
                },
                {
                    "name": "D#6",
                    "midi": 87,
                    "time": 198.2930538750083,
                    "velocity": 0.4566929133858268,
                    "duration": 0.10344825000001379
                },
                {
                    "name": "E6",
                    "midi": 88,
                    "time": 198.3965021250083,
                    "velocity": 0.4881889763779528,
                    "duration": 0.10344825000001379
                },
                {
                    "name": "F6",
                    "midi": 89,
                    "time": 198.49995037500832,
                    "velocity": 0.4015748031496063,
                    "duration": 0.10344825000001379
                },
                {
                    "name": "E6",
                    "midi": 88,
                    "time": 198.60339862500834,
                    "velocity": 0.44881889763779526,
                    "duration": 0.10344825000001379
                },
                {
                    "name": "D6",
                    "midi": 86,
                    "time": 198.70684687500835,
                    "velocity": 0.4094488188976378,
                    "duration": 0.10344825000001379
                },
                {
                    "name": "C6",
                    "midi": 84,
                    "time": 198.81029512500837,
                    "velocity": 0.49606299212598426,
                    "duration": 0.10344825000001379
                },
                {
                    "name": "B5",
                    "midi": 83,
                    "time": 198.91374337500838,
                    "velocity": 0.4645669291338583,
                    "duration": 0.10344825000001379
                },
                {
                    "name": "A5",
                    "midi": 81,
                    "time": 199.0171916250084,
                    "velocity": 0.4015748031496063,
                    "duration": 0.10344825000001379
                },
                {
                    "name": "A5",
                    "midi": 81,
                    "time": 199.1206398750084,
                    "velocity": 0.41732283464566927,
                    "duration": 0.10344825000001379
                },
                {
                    "name": "A#5",
                    "midi": 82,
                    "time": 199.22408812500842,
                    "velocity": 0.44881889763779526,
                    "duration": 0.10344825000001379
                },
                {
                    "name": "A5",
                    "midi": 81,
                    "time": 199.32753637500844,
                    "velocity": 0.4015748031496063,
                    "duration": 0.10344825000001379
                },
                {
                    "name": "G5",
                    "midi": 79,
                    "time": 199.43098462500845,
                    "velocity": 0.5039370078740157,
                    "duration": 0.10344825000001379
                },
                {
                    "name": "F5",
                    "midi": 77,
                    "time": 199.53443287500846,
                    "velocity": 0.41732283464566927,
                    "duration": 0.10344825000001379
                },
                {
                    "name": "E5",
                    "midi": 76,
                    "time": 199.63788112500848,
                    "velocity": 0.4330708661417323,
                    "duration": 0.10344825000001379
                },
                {
                    "name": "G5",
                    "midi": 79,
                    "time": 199.7413293750085,
                    "velocity": 0.5039370078740157,
                    "duration": 0.10344825000001379
                },
                {
                    "name": "F5",
                    "midi": 77,
                    "time": 199.8447776250085,
                    "velocity": 0.41732283464566927,
                    "duration": 0.10344825000001379
                },
                {
                    "name": "E5",
                    "midi": 76,
                    "time": 199.94822587500852,
                    "velocity": 0.5275590551181102,
                    "duration": 0.10344825000001379
                },
                {
                    "name": "D5",
                    "midi": 74,
                    "time": 200.05167412500853,
                    "velocity": 0.4251968503937008,
                    "duration": 0.10344825000001379
                },
                {
                    "name": "F5",
                    "midi": 77,
                    "time": 200.15512237500855,
                    "velocity": 0.47244094488188976,
                    "duration": 0.10344825000001379
                },
                {
                    "name": "E5",
                    "midi": 76,
                    "time": 200.25857062500856,
                    "velocity": 0.44881889763779526,
                    "duration": 0.10344825000001379
                },
                {
                    "name": "D5",
                    "midi": 74,
                    "time": 200.36201887500857,
                    "velocity": 0.5118110236220472,
                    "duration": 0.10344825000001379
                },
                {
                    "name": "C#5",
                    "midi": 73,
                    "time": 200.4654671250086,
                    "velocity": 0.4409448818897638,
                    "duration": 0.10344825000001379
                },
                {
                    "name": "E5",
                    "midi": 76,
                    "time": 200.5689153750086,
                    "velocity": 0.5039370078740157,
                    "duration": 0.10344825000001379
                },
                {
                    "name": "D5",
                    "midi": 74,
                    "time": 200.67236362500861,
                    "velocity": 0.5511811023622047,
                    "duration": 0.10344825000001379
                },
                {
                    "name": "E5",
                    "midi": 76,
                    "time": 200.77581187500863,
                    "velocity": 0.4881889763779528,
                    "duration": 0.10344825000001379
                },
                {
                    "name": "F5",
                    "midi": 77,
                    "time": 200.87926012500864,
                    "velocity": 0.4566929133858268,
                    "duration": 0.10344825000001379
                },
                {
                    "name": "G5",
                    "midi": 79,
                    "time": 200.98270837500866,
                    "velocity": 0.4881889763779528,
                    "duration": 0.10344825000001379
                },
                {
                    "name": "F5",
                    "midi": 77,
                    "time": 201.08615662500867,
                    "velocity": 0.4566929133858268,
                    "duration": 0.10344825000001379
                },
                {
                    "name": "E5",
                    "midi": 76,
                    "time": 201.18960487500868,
                    "velocity": 0.5118110236220472,
                    "duration": 0.10344825000001379
                },
                {
                    "name": "D5",
                    "midi": 74,
                    "time": 201.2930531250087,
                    "velocity": 0.5590551181102362,
                    "duration": 0.10344825000001379
                },
                {
                    "name": "F5",
                    "midi": 77,
                    "time": 201.3965013750087,
                    "velocity": 0.49606299212598426,
                    "duration": 0.10344825000001379
                },
                {
                    "name": "E5",
                    "midi": 76,
                    "time": 201.49994962500872,
                    "velocity": 0.5118110236220472,
                    "duration": 0.10344825000001379
                },
                {
                    "name": "D5",
                    "midi": 74,
                    "time": 201.60339787500874,
                    "velocity": 0.5039370078740157,
                    "duration": 0.10344825000001379
                },
                {
                    "name": "C5",
                    "midi": 72,
                    "time": 201.70684612500875,
                    "velocity": 0.48031496062992124,
                    "duration": 0.10344825000001379
                },
                {
                    "name": "E5",
                    "midi": 76,
                    "time": 201.81029437500877,
                    "velocity": 0.5039370078740157,
                    "duration": 0.10344825000001379
                },
                {
                    "name": "D5",
                    "midi": 74,
                    "time": 201.91374262500878,
                    "velocity": 0.5196850393700787,
                    "duration": 0.10344825000001379
                },
                {
                    "name": "C5",
                    "midi": 72,
                    "time": 202.0171908750088,
                    "velocity": 0.5433070866141733,
                    "duration": 0.10344825000001379
                },
                {
                    "name": "B4",
                    "midi": 71,
                    "time": 202.1206391250088,
                    "velocity": 0.4881889763779528,
                    "duration": 0.10344825000001379
                },
                {
                    "name": "D5",
                    "midi": 74,
                    "time": 202.22408737500882,
                    "velocity": 0.4881889763779528,
                    "duration": 0.10344825000001379
                },
                {
                    "name": "C5",
                    "midi": 72,
                    "time": 202.32753562500884,
                    "velocity": 0.5196850393700787,
                    "duration": 0.10344825000001379
                },
                {
                    "name": "D5",
                    "midi": 74,
                    "time": 202.43098387500885,
                    "velocity": 0.5748031496062992,
                    "duration": 0.10344825000001379
                },
                {
                    "name": "E5",
                    "midi": 76,
                    "time": 202.53443212500886,
                    "velocity": 0.5748031496062992,
                    "duration": 0.10344825000001379
                },
                {
                    "name": "F5",
                    "midi": 77,
                    "time": 202.63788037500888,
                    "velocity": 0.5511811023622047,
                    "duration": 0.10344825000001379
                },
                {
                    "name": "E5",
                    "midi": 76,
                    "time": 202.7413286250089,
                    "velocity": 0.5118110236220472,
                    "duration": 0.10344825000001379
                },
                {
                    "name": "D5",
                    "midi": 74,
                    "time": 202.8447768750089,
                    "velocity": 0.5433070866141733,
                    "duration": 0.10344825000001379
                },
                {
                    "name": "C5",
                    "midi": 72,
                    "time": 202.94822512500892,
                    "velocity": 0.6062992125984252,
                    "duration": 0.10344825000001379
                },
                {
                    "name": "E5",
                    "midi": 76,
                    "time": 203.05167337500893,
                    "velocity": 0.5669291338582677,
                    "duration": 0.10344825000001379
                },
                {
                    "name": "D5",
                    "midi": 74,
                    "time": 203.15512162500895,
                    "velocity": 0.6141732283464567,
                    "duration": 0.10344825000001379
                },
                {
                    "name": "C5",
                    "midi": 72,
                    "time": 203.25856987500896,
                    "velocity": 0.5118110236220472,
                    "duration": 0.10344825000001379
                },
                {
                    "name": "B4",
                    "midi": 71,
                    "time": 203.36201812500897,
                    "velocity": 0.6220472440944882,
                    "duration": 0.10344825000001379
                },
                {
                    "name": "D5",
                    "midi": 74,
                    "time": 203.465466375009,
                    "velocity": 0.5826771653543307,
                    "duration": 0.10344825000001379
                },
                {
                    "name": "C5",
                    "midi": 72,
                    "time": 203.568914625009,
                    "velocity": 0.5826771653543307,
                    "duration": 0.10344825000001379
                },
                {
                    "name": "B4",
                    "midi": 71,
                    "time": 203.67236287500901,
                    "velocity": 0.5748031496062992,
                    "duration": 0.10344825000001379
                },
                {
                    "name": "A4",
                    "midi": 69,
                    "time": 203.77581112500903,
                    "velocity": 0.6141732283464567,
                    "duration": 0.10344825000001379
                },
                {
                    "name": "C5",
                    "midi": 72,
                    "time": 203.87925937500904,
                    "velocity": 0.5433070866141733,
                    "duration": 0.10344825000001379
                },
                {
                    "name": "B4",
                    "midi": 71,
                    "time": 203.98270762500906,
                    "velocity": 0.5433070866141733,
                    "duration": 0.10344825000001379
                },
                {
                    "name": "D#5",
                    "midi": 75,
                    "time": 204.08615587500907,
                    "velocity": 0.6141732283464567,
                    "duration": 0.10344825000001379
                },
                {
                    "name": "E5",
                    "midi": 76,
                    "time": 204.18960412500908,
                    "velocity": 0.5511811023622047,
                    "duration": 0.10344825000001379
                },
                {
                    "name": "F5",
                    "midi": 77,
                    "time": 204.2930523750091,
                    "velocity": 0.5590551181102362,
                    "duration": 0.10344825000001379
                },
                {
                    "name": "E5",
                    "midi": 76,
                    "time": 204.3965006250091,
                    "velocity": 0.6377952755905512,
                    "duration": 0.10344825000001379
                },
                {
                    "name": "D5",
                    "midi": 74,
                    "time": 204.49994887500912,
                    "velocity": 0.5669291338582677,
                    "duration": 0.10344825000001379
                },
                {
                    "name": "C5",
                    "midi": 72,
                    "time": 204.60339712500914,
                    "velocity": 0.5905511811023622,
                    "duration": 0.10344825000001379
                },
                {
                    "name": "E5",
                    "midi": 76,
                    "time": 204.70684537500915,
                    "velocity": 0.5511811023622047,
                    "duration": 0.10344825000001379
                },
                {
                    "name": "D5",
                    "midi": 74,
                    "time": 204.81029362500917,
                    "velocity": 0.5826771653543307,
                    "duration": 0.10344825000001379
                },
                {
                    "name": "C5",
                    "midi": 72,
                    "time": 204.91374187500918,
                    "velocity": 0.5984251968503937,
                    "duration": 0.10344825000001379
                },
                {
                    "name": "B4",
                    "midi": 71,
                    "time": 205.0171901250092,
                    "velocity": 0.5748031496062992,
                    "duration": 0.10344825000001379
                },
                {
                    "name": "D5",
                    "midi": 74,
                    "time": 205.1206383750092,
                    "velocity": 0.6141732283464567,
                    "duration": 0.10344825000001379
                },
                {
                    "name": "C5",
                    "midi": 72,
                    "time": 205.22408662500922,
                    "velocity": 0.6692913385826772,
                    "duration": 0.10344825000001379
                },
                {
                    "name": "B4",
                    "midi": 71,
                    "time": 205.32753487500923,
                    "velocity": 0.6299212598425197,
                    "duration": 0.10344825000001379
                },
                {
                    "name": "A4",
                    "midi": 69,
                    "time": 205.43098312500925,
                    "velocity": 0.6456692913385826,
                    "duration": 0.10344825000001379
                },
                {
                    "name": "C5",
                    "midi": 72,
                    "time": 205.53443137500926,
                    "velocity": 0.6535433070866141,
                    "duration": 0.10344825000001379
                },
                {
                    "name": "B4",
                    "midi": 71,
                    "time": 205.63787962500928,
                    "velocity": 0.6220472440944882,
                    "duration": 0.10344825000001379
                },
                {
                    "name": "E5",
                    "midi": 76,
                    "time": 205.7413278750093,
                    "velocity": 0.5984251968503937,
                    "duration": 0.10344825000001379
                },
                {
                    "name": "F5",
                    "midi": 77,
                    "time": 205.8447761250093,
                    "velocity": 0.6850393700787402,
                    "duration": 0.10344825000001379
                },
                {
                    "name": "E5",
                    "midi": 76,
                    "time": 205.94822437500932,
                    "velocity": 0.6850393700787402,
                    "duration": 0.10344825000001379
                },
                {
                    "name": "G#5",
                    "midi": 80,
                    "time": 206.05167262500933,
                    "velocity": 0.6692913385826772,
                    "duration": 0.10344825000001379
                },
                {
                    "name": "E5",
                    "midi": 76,
                    "time": 206.15512087500935,
                    "velocity": 0.6850393700787402,
                    "duration": 0.10344825000001379
                },
                {
                    "name": "F5",
                    "midi": 77,
                    "time": 206.25856912500936,
                    "velocity": 0.5826771653543307,
                    "duration": 0.10344825000001379
                },
                {
                    "name": "E5",
                    "midi": 76,
                    "time": 206.36201737500937,
                    "velocity": 0.6535433070866141,
                    "duration": 0.10344825000001379
                },
                {
                    "name": "A5",
                    "midi": 81,
                    "time": 206.4654656250094,
                    "velocity": 0.6535433070866141,
                    "duration": 0.10344825000001379
                },
                {
                    "name": "E5",
                    "midi": 76,
                    "time": 206.5689138750094,
                    "velocity": 0.6614173228346457,
                    "duration": 0.10344825000001379
                },
                {
                    "name": "F5",
                    "midi": 77,
                    "time": 206.6723621250094,
                    "velocity": 0.6377952755905512,
                    "duration": 0.10344825000001379
                },
                {
                    "name": "E5",
                    "midi": 76,
                    "time": 206.77581037500943,
                    "velocity": 0.6377952755905512,
                    "duration": 0.10344825000001379
                },
                {
                    "name": "B5",
                    "midi": 83,
                    "time": 206.87925862500944,
                    "velocity": 0.5984251968503937,
                    "duration": 0.10344825000001379
                },
                {
                    "name": "E5",
                    "midi": 76,
                    "time": 206.98270687500946,
                    "velocity": 0.6850393700787402,
                    "duration": 0.10344825000001379
                },
                {
                    "name": "F5",
                    "midi": 77,
                    "time": 207.08615512500947,
                    "velocity": 0.5826771653543307,
                    "duration": 0.10344825000001379
                },
                {
                    "name": "E5",
                    "midi": 76,
                    "time": 207.18960337500948,
                    "velocity": 0.6456692913385826,
                    "duration": 0.10344825000001379
                },
                {
                    "name": "C6",
                    "midi": 84,
                    "time": 207.2930516250095,
                    "velocity": 0.6614173228346457,
                    "duration": 0.10344825000001379
                },
                {
                    "name": "A5",
                    "midi": 81,
                    "time": 207.3964998750095,
                    "velocity": 0.6692913385826772,
                    "duration": 0.10344825000001379
                },
                {
                    "name": "B5",
                    "midi": 83,
                    "time": 207.49994812500952,
                    "velocity": 0.5905511811023622,
                    "duration": 0.10344825000001379
                },
                {
                    "name": "A5",
                    "midi": 81,
                    "time": 207.60339637500954,
                    "velocity": 0.6456692913385826,
                    "duration": 0.10344825000001379
                },
                {
                    "name": "C#6",
                    "midi": 85,
                    "time": 207.70684462500955,
                    "velocity": 0.6299212598425197,
                    "duration": 0.10344825000001379
                },
                {
                    "name": "A5",
                    "midi": 81,
                    "time": 207.81029287500957,
                    "velocity": 0.6535433070866141,
                    "duration": 0.10344825000001379
                },
                {
                    "name": "A#5",
                    "midi": 82,
                    "time": 207.91374112500958,
                    "velocity": 0.6614173228346457,
                    "duration": 0.10344825000001379
                },
                {
                    "name": "A5",
                    "midi": 81,
                    "time": 208.0171893750096,
                    "velocity": 0.6299212598425197,
                    "duration": 0.10344825000001379
                },
                {
                    "name": "D6",
                    "midi": 86,
                    "time": 208.1206376250096,
                    "velocity": 0.6377952755905512,
                    "duration": 0.10344825000001379
                },
                {
                    "name": "A5",
                    "midi": 81,
                    "time": 208.22408587500962,
                    "velocity": 0.6377952755905512,
                    "duration": 0.10344825000001379
                },
                {
                    "name": "A#5",
                    "midi": 82,
                    "time": 208.32753412500963,
                    "velocity": 0.5748031496062992,
                    "duration": 0.10344825000001379
                },
                {
                    "name": "A5",
                    "midi": 81,
                    "time": 208.43098237500965,
                    "velocity": 0.6535433070866141,
                    "duration": 0.10344825000001379
                },
                {
                    "name": "E6",
                    "midi": 88,
                    "time": 208.53443062500966,
                    "velocity": 0.6850393700787402,
                    "duration": 0.10344825000001379
                },
                {
                    "name": "A5",
                    "midi": 81,
                    "time": 208.63787887500968,
                    "velocity": 0.6062992125984252,
                    "duration": 0.10344825000001379
                },
                {
                    "name": "A#5",
                    "midi": 82,
                    "time": 208.7413271250097,
                    "velocity": 0.6456692913385826,
                    "duration": 0.10344825000001379
                },
                {
                    "name": "A5",
                    "midi": 81,
                    "time": 208.8447753750097,
                    "velocity": 0.6377952755905512,
                    "duration": 0.10344825000001379
                },
                {
                    "name": "F6",
                    "midi": 89,
                    "time": 208.94822362500972,
                    "velocity": 0.6141732283464567,
                    "duration": 0.10344825000001379
                },
                {
                    "name": "E6",
                    "midi": 88,
                    "time": 209.05167187500973,
                    "velocity": 0.6220472440944882,
                    "duration": 0.10344825000001379
                },
                {
                    "name": "D6",
                    "midi": 86,
                    "time": 209.15512012500974,
                    "velocity": 0.6377952755905512,
                    "duration": 0.10344825000001379
                },
                {
                    "name": "C#6",
                    "midi": 85,
                    "time": 209.25856837500976,
                    "velocity": 0.5905511811023622,
                    "duration": 0.10344825000001379
                },
                {
                    "name": "D6",
                    "midi": 86,
                    "time": 209.36201662500977,
                    "velocity": 0.6614173228346457,
                    "duration": 0.10344825000001379
                },
                {
                    "name": "C#6",
                    "midi": 85,
                    "time": 209.4654648750098,
                    "velocity": 0.6535433070866141,
                    "duration": 0.10344825000001379
                },
                {
                    "name": "D6",
                    "midi": 86,
                    "time": 209.5689131250098,
                    "velocity": 0.6377952755905512,
                    "duration": 0.10344825000001379
                },
                {
                    "name": "E6",
                    "midi": 88,
                    "time": 209.6723613750098,
                    "velocity": 0.6377952755905512,
                    "duration": 0.10344825000001379
                },
                {
                    "name": "F6",
                    "midi": 89,
                    "time": 209.77580962500983,
                    "velocity": 0.6614173228346457,
                    "duration": 0.10344825000001379
                },
                {
                    "name": "E6",
                    "midi": 88,
                    "time": 209.87925787500984,
                    "velocity": 0.5905511811023622,
                    "duration": 0.10344825000001379
                },
                {
                    "name": "G6",
                    "midi": 91,
                    "time": 209.98270612500986,
                    "velocity": 0.5748031496062992,
                    "duration": 0.10344825000001379
                },
                {
                    "name": "F6",
                    "midi": 89,
                    "time": 210.08615437500987,
                    "velocity": 0.6062992125984252,
                    "duration": 0.10344825000001379
                },
                {
                    "name": "E6",
                    "midi": 88,
                    "time": 210.18960262500988,
                    "velocity": 0.6535433070866141,
                    "duration": 0.10344825000001379
                },
                {
                    "name": "D6",
                    "midi": 86,
                    "time": 210.2930508750099,
                    "velocity": 0.6771653543307087,
                    "duration": 0.10344825000001379
                },
                {
                    "name": "C6",
                    "midi": 84,
                    "time": 210.3964991250099,
                    "velocity": 0.5905511811023622,
                    "duration": 0.10344825000001379
                },
                {
                    "name": "A#5",
                    "midi": 82,
                    "time": 210.49994737500992,
                    "velocity": 0.5984251968503937,
                    "duration": 0.10344825000001379
                },
                {
                    "name": "A5",
                    "midi": 81,
                    "time": 210.60339562500994,
                    "velocity": 0.5905511811023622,
                    "duration": 0.10344825000001379
                },
                {
                    "name": "B5",
                    "midi": 83,
                    "time": 210.70684387500995,
                    "velocity": 0.6614173228346457,
                    "duration": 0.10344825000001379
                },
                {
                    "name": "A5",
                    "midi": 81,
                    "time": 210.81029212500997,
                    "velocity": 0.5826771653543307,
                    "duration": 0.10344825000001379
                },
                {
                    "name": "G#5",
                    "midi": 80,
                    "time": 210.91374037500998,
                    "velocity": 0.6456692913385826,
                    "duration": 0.10344825000001379
                },
                {
                    "name": "A5",
                    "midi": 81,
                    "time": 211.01718862501,
                    "velocity": 0.6377952755905512,
                    "duration": 0.10344825000001379
                },
                {
                    "name": "G#5",
                    "midi": 80,
                    "time": 211.12063687501,
                    "velocity": 0.5905511811023622,
                    "duration": 0.10344825000001379
                },
                {
                    "name": "A5",
                    "midi": 81,
                    "time": 211.22408512501002,
                    "velocity": 0.6850393700787402,
                    "duration": 0.10344825000001379
                },
                {
                    "name": "B5",
                    "midi": 83,
                    "time": 211.32753337501003,
                    "velocity": 0.6850393700787402,
                    "duration": 0.10344825000001379
                },
                {
                    "name": "C6",
                    "midi": 84,
                    "time": 211.43098162501005,
                    "velocity": 0.6771653543307087,
                    "duration": 0.10344825000001379
                },
                {
                    "name": "A5",
                    "midi": 81,
                    "time": 211.53442987501006,
                    "velocity": 0.6850393700787402,
                    "duration": 0.10344825000001379
                },
                {
                    "name": "F#5",
                    "midi": 78,
                    "time": 211.63787812501008,
                    "velocity": 0.6141732283464567,
                    "duration": 0.10344825000001379
                },
                {
                    "name": "D#5",
                    "midi": 75,
                    "time": 211.7413263750101,
                    "velocity": 0.6614173228346457,
                    "duration": 0.10344825000001379
                },
                {
                    "name": "C5",
                    "midi": 72,
                    "time": 211.8447746250101,
                    "velocity": 0.6062992125984252,
                    "duration": 0.10344825000001379
                },
                {
                    "name": "A4",
                    "midi": 69,
                    "time": 211.94822287501012,
                    "velocity": 0.6220472440944882,
                    "duration": 0.10344825000001379
                },
                {
                    "name": "F#4",
                    "midi": 66,
                    "time": 212.05167112501013,
                    "velocity": 0.5826771653543307,
                    "duration": 0.10344825000001379
                },
                {
                    "name": "D#4",
                    "midi": 63,
                    "time": 212.15511937501014,
                    "velocity": 0.6614173228346457,
                    "duration": 0.10344825000001379
                },
                {
                    "name": "E4",
                    "midi": 64,
                    "time": 212.25856762501016,
                    "velocity": 0.5984251968503937,
                    "duration": 0.10344825000001379
                },
                {
                    "name": "A4",
                    "midi": 69,
                    "time": 212.36201587501017,
                    "velocity": 0.6220472440944882,
                    "duration": 0.10344825000001379
                },
                {
                    "name": "G#4",
                    "midi": 68,
                    "time": 212.4654641250102,
                    "velocity": 0.6614173228346457,
                    "duration": 0.10344825000001379
                },
                {
                    "name": "B4",
                    "midi": 71,
                    "time": 212.5689123750102,
                    "velocity": 0.6771653543307087,
                    "duration": 0.10344825000001379
                },
                {
                    "name": "A4",
                    "midi": 69,
                    "time": 212.6723606250102,
                    "velocity": 0.6456692913385826,
                    "duration": 0.10344825000001379
                },
                {
                    "name": "C5",
                    "midi": 72,
                    "time": 212.77580887501023,
                    "velocity": 0.6377952755905512,
                    "duration": 0.10344825000001379
                },
                {
                    "name": "B4",
                    "midi": 71,
                    "time": 212.87925712501024,
                    "velocity": 0.5748031496062992,
                    "duration": 0.10344825000001379
                },
                {
                    "name": "D5",
                    "midi": 74,
                    "time": 212.98270537501026,
                    "velocity": 0.6535433070866141,
                    "duration": 0.10344825000001379
                },
                {
                    "name": "C5",
                    "midi": 72,
                    "time": 213.08615362501027,
                    "velocity": 0.6062992125984252,
                    "duration": 0.10344825000001379
                },
                {
                    "name": "E5",
                    "midi": 76,
                    "time": 213.18960187501028,
                    "velocity": 0.5748031496062992,
                    "duration": 0.10344825000001379
                },
                {
                    "name": "D#5",
                    "midi": 75,
                    "time": 213.2930501250103,
                    "velocity": 0.6692913385826772,
                    "duration": 0.10344825000001379
                },
                {
                    "name": "F5",
                    "midi": 77,
                    "time": 213.3964983750103,
                    "velocity": 0.5748031496062992,
                    "duration": 0.10344825000001379
                },
                {
                    "name": "E5",
                    "midi": 76,
                    "time": 213.49994662501032,
                    "velocity": 0.6692913385826772,
                    "duration": 0.10344825000001379
                },
                {
                    "name": "A5",
                    "midi": 81,
                    "time": 213.60339487501034,
                    "velocity": 0.6062992125984252,
                    "duration": 0.10344825000001379
                },
                {
                    "name": "G#5",
                    "midi": 80,
                    "time": 213.70684312501035,
                    "velocity": 0.6299212598425197,
                    "duration": 0.10344825000001379
                },
                {
                    "name": "B5",
                    "midi": 83,
                    "time": 213.81029137501037,
                    "velocity": 0.5826771653543307,
                    "duration": 0.10344825000001379
                },
                {
                    "name": "A5",
                    "midi": 81,
                    "time": 213.91373962501038,
                    "velocity": 0.6614173228346457,
                    "duration": 0.10344825000001379
                },
                {
                    "name": "C6",
                    "midi": 84,
                    "time": 214.0171878750104,
                    "velocity": 0.6692913385826772,
                    "duration": 0.10344825000001379
                },
                {
                    "name": "B5",
                    "midi": 83,
                    "time": 214.1206361250104,
                    "velocity": 0.5826771653543307,
                    "duration": 0.10344825000001379
                },
                {
                    "name": "D6",
                    "midi": 86,
                    "time": 214.22408437501042,
                    "velocity": 0.6771653543307087,
                    "duration": 0.10344825000001379
                },
                {
                    "name": "C6",
                    "midi": 84,
                    "time": 214.32753262501043,
                    "velocity": 0.6062992125984252,
                    "duration": 0.10344825000001379
                },
                {
                    "name": "E6",
                    "midi": 88,
                    "time": 214.43098087501045,
                    "velocity": 0.6614173228346457,
                    "duration": 0.10344825000001379
                },
                {
                    "name": "D6",
                    "midi": 86,
                    "time": 214.53442912501046,
                    "velocity": 0.6535433070866141,
                    "duration": 0.10344825000001379
                },
                {
                    "name": "F6",
                    "midi": 89,
                    "time": 214.63787737501048,
                    "velocity": 0.6614173228346457,
                    "duration": 0.10344825000001379
                },
                {
                    "name": "E6",
                    "midi": 88,
                    "time": 214.7413256250105,
                    "velocity": 0.6141732283464567,
                    "duration": 0.10344825000001379
                },
                {
                    "name": "F6",
                    "midi": 89,
                    "time": 214.8447738750105,
                    "velocity": 0.6141732283464567,
                    "duration": 0.10344825000001379
                },
                {
                    "name": "D#6",
                    "midi": 87,
                    "time": 214.94822212501052,
                    "velocity": 0.5748031496062992,
                    "duration": 0.10344825000001379
                },
                {
                    "name": "F6",
                    "midi": 89,
                    "time": 215.05167037501053,
                    "velocity": 0.6614173228346457,
                    "duration": 0.10344825000001379
                },
                {
                    "name": "E6",
                    "midi": 88,
                    "time": 215.15511862501054,
                    "velocity": 0.5905511811023622,
                    "duration": 0.10344825000001379
                },
                {
                    "name": "F6",
                    "midi": 89,
                    "time": 215.25856687501056,
                    "velocity": 0.6850393700787402,
                    "duration": 0.10344825000001379
                },
                {
                    "name": "D#6",
                    "midi": 87,
                    "time": 215.36201512501057,
                    "velocity": 0.6220472440944882,
                    "duration": 0.10344825000001379
                },
                {
                    "name": "F6",
                    "midi": 89,
                    "time": 215.4654633750106,
                    "velocity": 0.6614173228346457,
                    "duration": 0.10344825000001379
                },
                {
                    "name": "E6",
                    "midi": 88,
                    "time": 215.5689116250106,
                    "velocity": 0.6141732283464567,
                    "duration": 0.10344825000001379
                },
                {
                    "name": "A6",
                    "midi": 93,
                    "time": 215.6723598750106,
                    "velocity": 0.6141732283464567,
                    "duration": 0.10344825000001379
                },
                {
                    "name": "G6",
                    "midi": 91,
                    "time": 215.77580812501063,
                    "velocity": 0.7086614173228346,
                    "duration": 0.10344825000001379
                },
                {
                    "name": "F6",
                    "midi": 89,
                    "time": 215.87925637501064,
                    "velocity": 0.6220472440944882,
                    "duration": 0.10344825000001379
                },
                {
                    "name": "E6",
                    "midi": 88,
                    "time": 215.98270462501065,
                    "velocity": 0.6220472440944882,
                    "duration": 0.10344825000001379
                },
                {
                    "name": "D6",
                    "midi": 86,
                    "time": 216.08615287501067,
                    "velocity": 0.6456692913385826,
                    "duration": 0.10344825000001379
                },
                {
                    "name": "C6",
                    "midi": 84,
                    "time": 216.18960112501068,
                    "velocity": 0.7322834645669292,
                    "duration": 0.10344825000001379
                },
                {
                    "name": "B5",
                    "midi": 83,
                    "time": 216.2930493750107,
                    "velocity": 0.7480314960629921,
                    "duration": 0.10344825000001379
                },
                {
                    "name": "A5",
                    "midi": 81,
                    "time": 216.3964976250107,
                    "velocity": 0.7637795275590551,
                    "duration": 0.10344825000001379
                },
                {
                    "name": "G5",
                    "midi": 79,
                    "time": 216.49994587501072,
                    "velocity": 0.7559055118110236,
                    "duration": 0.10344825000001379
                },
                {
                    "name": "F5",
                    "midi": 77,
                    "time": 216.60339412501074,
                    "velocity": 0.7952755905511811,
                    "duration": 0.10344825000001379
                },
                {
                    "name": "E5",
                    "midi": 76,
                    "time": 216.70684237501075,
                    "velocity": 0.8110236220472441,
                    "duration": 0.10344825000001379
                },
                {
                    "name": "D5",
                    "midi": 74,
                    "time": 216.81029062501077,
                    "velocity": 0.7952755905511811,
                    "duration": 0.10344825000001379
                },
                {
                    "name": "C5",
                    "midi": 72,
                    "time": 216.91373887501078,
                    "velocity": 0.7874015748031497,
                    "duration": 0.10344825000001379
                },
                {
                    "name": "B4",
                    "midi": 71,
                    "time": 217.0171871250108,
                    "velocity": 0.8346456692913385,
                    "duration": 0.10344825000001379
                },
                {
                    "name": "A4",
                    "midi": 69,
                    "time": 217.1206353750108,
                    "velocity": 0.8582677165354331,
                    "duration": 0.10344825000001379
                },
                {
                    "name": "B4",
                    "midi": 71,
                    "time": 217.22408362501082,
                    "velocity": 0.7637795275590551,
                    "duration": 0.10344825000001379
                },
                {
                    "name": "D5",
                    "midi": 74,
                    "time": 217.32753187501083,
                    "velocity": 0.8346456692913385,
                    "duration": 0.10344825000001379
                },
                {
                    "name": "F5",
                    "midi": 77,
                    "time": 217.43098012501085,
                    "velocity": 0.7952755905511811,
                    "duration": 0.10344825000001379
                },
                {
                    "name": "E5",
                    "midi": 76,
                    "time": 217.53442837501086,
                    "velocity": 0.84251968503937,
                    "duration": 0.10344825000001379
                },
                {
                    "name": "D5",
                    "midi": 74,
                    "time": 217.63787662501088,
                    "velocity": 0.9212598425196851,
                    "duration": 0.10344825000001379
                },
                {
                    "name": "C5",
                    "midi": 72,
                    "time": 217.7413248750109,
                    "velocity": 0.8582677165354331,
                    "duration": 0.10344825000001379
                },
                {
                    "name": "B4",
                    "midi": 71,
                    "time": 217.8447731250109,
                    "velocity": 0.8740157480314961,
                    "duration": 0.10344825000001379
                },
                {
                    "name": "A4",
                    "midi": 69,
                    "time": 217.94822137501092,
                    "velocity": 0.8976377952755905,
                    "duration": 0.10344825000001379
                },
                {
                    "name": "G#4",
                    "midi": 68,
                    "time": 218.05166962501093,
                    "velocity": 0.937007874015748,
                    "duration": 0.10344825000001379
                },
                {
                    "name": "F4",
                    "midi": 65,
                    "time": 218.15511787501094,
                    "velocity": 0.889763779527559,
                    "duration": 0.10344825000001379
                },
                {
                    "name": "E4",
                    "midi": 64,
                    "time": 218.25856612501096,
                    "velocity": 0.937007874015748,
                    "duration": 0.10344825000001379
                },
                {
                    "name": "D4",
                    "midi": 62,
                    "time": 218.36201437501097,
                    "velocity": 0.937007874015748,
                    "duration": 0.10344825000001379
                },
                {
                    "name": "C4",
                    "midi": 60,
                    "time": 218.46546262501099,
                    "velocity": 0.9133858267716536,
                    "duration": 0.10344825000001379
                },
                {
                    "name": "B3",
                    "midi": 59,
                    "time": 218.568910875011,
                    "velocity": 0.9291338582677166,
                    "duration": 0.10344825000001379
                },
                {
                    "name": "A3",
                    "midi": 57,
                    "time": 218.672359125011,
                    "velocity": 0.9291338582677166,
                    "duration": 0.10344825000001379
                },
                {
                    "name": "G#3",
                    "midi": 56,
                    "time": 218.77580737501103,
                    "velocity": 0.9448818897637795,
                    "duration": 0.10344825000001379
                },
                {
                    "name": "A3",
                    "midi": 57,
                    "time": 218.87925562501104,
                    "velocity": 0.33858267716535434,
                    "duration": 0.10344825000001379
                },
                {
                    "name": "E5",
                    "midi": 76,
                    "time": 218.98270387501105,
                    "velocity": 0.2755905511811024,
                    "duration": 0.10344825000001379
                },
                {
                    "name": "D#5",
                    "midi": 75,
                    "time": 219.08615212501107,
                    "velocity": 0.2677165354330709,
                    "duration": 0.10344825000001379
                },
                {
                    "name": "E5",
                    "midi": 76,
                    "time": 219.18960037501108,
                    "velocity": 0.31496062992125984,
                    "duration": 0.10344825000001379
                },
                {
                    "name": "F#5",
                    "midi": 78,
                    "time": 219.2930486250111,
                    "velocity": 0.25196850393700787,
                    "duration": 0.10344825000001379
                },
                {
                    "name": "E5",
                    "midi": 76,
                    "time": 219.3964968750111,
                    "velocity": 0.25984251968503935,
                    "duration": 0.10344825000001379
                },
                {
                    "name": "D#5",
                    "midi": 75,
                    "time": 219.49994512501112,
                    "velocity": 0.33070866141732286,
                    "duration": 0.10344825000001379
                },
                {
                    "name": "E5",
                    "midi": 76,
                    "time": 219.60339337501114,
                    "velocity": 0.3543307086614173,
                    "duration": 0.10344825000001379
                },
                {
                    "name": "A5",
                    "midi": 81,
                    "time": 219.70684162501115,
                    "velocity": 0.31496062992125984,
                    "duration": 0.10344825000001379
                },
                {
                    "name": "E5",
                    "midi": 76,
                    "time": 219.81028987501116,
                    "velocity": 0.2440944881889764,
                    "duration": 0.10344825000001379
                },
                {
                    "name": "D#5",
                    "midi": 75,
                    "time": 219.91373812501118,
                    "velocity": 0.30708661417322836,
                    "duration": 0.10344825000001379
                },
                {
                    "name": "E5",
                    "midi": 76,
                    "time": 220.0171863750112,
                    "velocity": 0.25984251968503935,
                    "duration": 0.10344825000001379
                },
                {
                    "name": "C#6",
                    "midi": 85,
                    "time": 220.1206346250112,
                    "velocity": 0.33858267716535434,
                    "duration": 0.10344825000001379
                },
                {
                    "name": "E5",
                    "midi": 76,
                    "time": 220.22408287501122,
                    "velocity": 0.29133858267716534,
                    "duration": 0.10344825000001379
                },
                {
                    "name": "D#5",
                    "midi": 75,
                    "time": 220.32753112501123,
                    "velocity": 0.3464566929133858,
                    "duration": 0.10344825000001379
                },
                {
                    "name": "E5",
                    "midi": 76,
                    "time": 220.43097937501125,
                    "velocity": 0.2677165354330709,
                    "duration": 0.10344825000001379
                },
                {
                    "name": "D6",
                    "midi": 86,
                    "time": 220.53442762501126,
                    "velocity": 0.29133858267716534,
                    "duration": 0.10344825000001379
                },
                {
                    "name": "E6",
                    "midi": 88,
                    "time": 220.63787587501128,
                    "velocity": 0.2992125984251969,
                    "duration": 0.10344825000001379
                },
                {
                    "name": "D6",
                    "midi": 86,
                    "time": 220.7413241250113,
                    "velocity": 0.2440944881889764,
                    "duration": 0.10344825000001379
                },
                {
                    "name": "C#6",
                    "midi": 85,
                    "time": 220.8447723750113,
                    "velocity": 0.33858267716535434,
                    "duration": 0.10344825000001379
                },
                {
                    "name": "B5",
                    "midi": 83,
                    "time": 220.94822062501132,
                    "velocity": 0.29133858267716534,
                    "duration": 0.10344825000001379
                },
                {
                    "name": "C#6",
                    "midi": 85,
                    "time": 221.05166887501133,
                    "velocity": 0.3228346456692913,
                    "duration": 0.10344825000001379
                },
                {
                    "name": "B5",
                    "midi": 83,
                    "time": 221.15511712501134,
                    "velocity": 0.3543307086614173,
                    "duration": 0.10344825000001379
                },
                {
                    "name": "A5",
                    "midi": 81,
                    "time": 221.25856537501136,
                    "velocity": 0.25984251968503935,
                    "duration": 0.10344825000001379
                },
                {
                    "name": "G#5",
                    "midi": 80,
                    "time": 221.36201362501137,
                    "velocity": 0.2440944881889764,
                    "duration": 0.10344825000001379
                },
                {
                    "name": "A5",
                    "midi": 81,
                    "time": 221.46546187501139,
                    "velocity": 0.2992125984251969,
                    "duration": 0.10344825000001379
                },
                {
                    "name": "B5",
                    "midi": 83,
                    "time": 221.5689101250114,
                    "velocity": 0.2992125984251969,
                    "duration": 0.10344825000001379
                },
                {
                    "name": "A5",
                    "midi": 81,
                    "time": 221.6723583750114,
                    "velocity": 0.33070866141732286,
                    "duration": 0.10344825000001379
                },
                {
                    "name": "G#5",
                    "midi": 80,
                    "time": 221.77580662501143,
                    "velocity": 0.3543307086614173,
                    "duration": 0.10344825000001379
                },
                {
                    "name": "F#5",
                    "midi": 78,
                    "time": 221.87925487501144,
                    "velocity": 0.33070866141732286,
                    "duration": 0.10344825000001379
                },
                {
                    "name": "E5",
                    "midi": 76,
                    "time": 221.98270312501145,
                    "velocity": 0.3228346456692913,
                    "duration": 0.10344825000001379
                },
                {
                    "name": "D5",
                    "midi": 74,
                    "time": 222.08615137501147,
                    "velocity": 0.3228346456692913,
                    "duration": 0.10344825000001379
                },
                {
                    "name": "C#5",
                    "midi": 73,
                    "time": 222.18959962501148,
                    "velocity": 0.3543307086614173,
                    "duration": 0.10344825000001379
                },
                {
                    "name": "E5",
                    "midi": 76,
                    "time": 222.2930478750115,
                    "velocity": 0.33070866141732286,
                    "duration": 0.10344825000001379
                },
                {
                    "name": "D#5",
                    "midi": 75,
                    "time": 222.3964961250115,
                    "velocity": 0.3228346456692913,
                    "duration": 0.10344825000001379
                },
                {
                    "name": "E5",
                    "midi": 76,
                    "time": 222.49994437501152,
                    "velocity": 0.2755905511811024,
                    "duration": 0.10344825000001379
                },
                {
                    "name": "F#5",
                    "midi": 78,
                    "time": 222.60339262501154,
                    "velocity": 0.2440944881889764,
                    "duration": 0.10344825000001379
                },
                {
                    "name": "E5",
                    "midi": 76,
                    "time": 222.70684087501155,
                    "velocity": 0.25196850393700787,
                    "duration": 0.10344825000001379
                },
                {
                    "name": "D#5",
                    "midi": 75,
                    "time": 222.81028912501156,
                    "velocity": 0.31496062992125984,
                    "duration": 0.10344825000001379
                },
                {
                    "name": "E5",
                    "midi": 76,
                    "time": 222.91373737501158,
                    "velocity": 0.28346456692913385,
                    "duration": 0.10344825000001379
                },
                {
                    "name": "A5",
                    "midi": 81,
                    "time": 223.0171856250116,
                    "velocity": 0.28346456692913385,
                    "duration": 0.10344825000001379
                },
                {
                    "name": "E5",
                    "midi": 76,
                    "time": 223.1206338750116,
                    "velocity": 0.31496062992125984,
                    "duration": 0.10344825000001379
                },
                {
                    "name": "D#5",
                    "midi": 75,
                    "time": 223.22408212501162,
                    "velocity": 0.31496062992125984,
                    "duration": 0.10344825000001379
                },
                {
                    "name": "E5",
                    "midi": 76,
                    "time": 223.32753037501163,
                    "velocity": 0.33858267716535434,
                    "duration": 0.10344825000001379
                },
                {
                    "name": "C6",
                    "midi": 84,
                    "time": 223.43097862501165,
                    "velocity": 0.33858267716535434,
                    "duration": 0.10344825000001379
                },
                {
                    "name": "E5",
                    "midi": 76,
                    "time": 223.53442687501166,
                    "velocity": 0.25196850393700787,
                    "duration": 0.10344825000001379
                },
                {
                    "name": "D#5",
                    "midi": 75,
                    "time": 223.63787512501167,
                    "velocity": 0.3228346456692913,
                    "duration": 0.10344825000001379
                },
                {
                    "name": "E5",
                    "midi": 76,
                    "time": 223.7413233750117,
                    "velocity": 0.2677165354330709,
                    "duration": 0.10344825000001379
                },
                {
                    "name": "D6",
                    "midi": 86,
                    "time": 223.8447716250117,
                    "velocity": 0.2992125984251969,
                    "duration": 0.10344825000001379
                },
                {
                    "name": "E6",
                    "midi": 88,
                    "time": 223.94821987501172,
                    "velocity": 0.25984251968503935,
                    "duration": 0.10344825000001379
                },
                {
                    "name": "D6",
                    "midi": 86,
                    "time": 224.05166812501173,
                    "velocity": 0.3228346456692913,
                    "duration": 0.10344825000001379
                },
                {
                    "name": "C6",
                    "midi": 84,
                    "time": 224.15511637501174,
                    "velocity": 0.2677165354330709,
                    "duration": 0.10344825000001379
                },
                {
                    "name": "B5",
                    "midi": 83,
                    "time": 224.25856462501176,
                    "velocity": 0.29133858267716534,
                    "duration": 0.10344825000001379
                },
                {
                    "name": "C6",
                    "midi": 84,
                    "time": 224.36201287501177,
                    "velocity": 0.30708661417322836,
                    "duration": 0.10344825000001379
                },
                {
                    "name": "B5",
                    "midi": 83,
                    "time": 224.46546112501179,
                    "velocity": 0.28346456692913385,
                    "duration": 0.10344825000001379
                },
                {
                    "name": "A5",
                    "midi": 81,
                    "time": 224.5689093750118,
                    "velocity": 0.3228346456692913,
                    "duration": 0.10344825000001379
                },
                {
                    "name": "G#5",
                    "midi": 80,
                    "time": 224.6723576250118,
                    "velocity": 0.25196850393700787,
                    "duration": 0.10344825000001379
                },
                {
                    "name": "A5",
                    "midi": 81,
                    "time": 224.77580587501183,
                    "velocity": 0.33858267716535434,
                    "duration": 0.10344825000001379
                },
                {
                    "name": "B5",
                    "midi": 83,
                    "time": 224.87925412501184,
                    "velocity": 0.2755905511811024,
                    "duration": 0.10344825000001379
                },
                {
                    "name": "A5",
                    "midi": 81,
                    "time": 224.98270237501185,
                    "velocity": 0.30708661417322836,
                    "duration": 0.10344825000001379
                },
                {
                    "name": "G#5",
                    "midi": 80,
                    "time": 225.08615062501187,
                    "velocity": 0.33070866141732286,
                    "duration": 0.10344825000001379
                },
                {
                    "name": "F5",
                    "midi": 77,
                    "time": 225.18959887501188,
                    "velocity": 0.33858267716535434,
                    "duration": 0.10344825000001379
                },
                {
                    "name": "E5",
                    "midi": 76,
                    "time": 225.2930471250119,
                    "velocity": 0.25984251968503935,
                    "duration": 0.10344825000001379
                },
                {
                    "name": "D5",
                    "midi": 74,
                    "time": 225.3964953750119,
                    "velocity": 0.30708661417322836,
                    "duration": 0.10344825000001379
                },
                {
                    "name": "C5",
                    "midi": 72,
                    "time": 225.49994362501192,
                    "velocity": 0.25196850393700787,
                    "duration": 0.10344825000001379
                },
                {
                    "name": "A5",
                    "midi": 81,
                    "time": 225.60339187501194,
                    "velocity": 0.25984251968503935,
                    "duration": 0.10344825000001379
                },
                {
                    "name": "G#5",
                    "midi": 80,
                    "time": 225.70684012501195,
                    "velocity": 0.28346456692913385,
                    "duration": 0.10344825000001379
                },
                {
                    "name": "A5",
                    "midi": 81,
                    "time": 225.81028837501196,
                    "velocity": 0.33070866141732286,
                    "duration": 0.10344825000001379
                },
                {
                    "name": "B5",
                    "midi": 83,
                    "time": 225.91373662501198,
                    "velocity": 0.30708661417322836,
                    "duration": 0.10344825000001379
                },
                {
                    "name": "A5",
                    "midi": 81,
                    "time": 226.017184875012,
                    "velocity": 0.2677165354330709,
                    "duration": 0.10344825000001379
                },
                {
                    "name": "G#5",
                    "midi": 80,
                    "time": 226.120633125012,
                    "velocity": 0.33070866141732286,
                    "duration": 0.10344825000001379
                },
                {
                    "name": "A5",
                    "midi": 81,
                    "time": 226.22408137501202,
                    "velocity": 0.2992125984251969,
                    "duration": 0.10344825000001379
                },
                {
                    "name": "A#5",
                    "midi": 82,
                    "time": 226.32752962501203,
                    "velocity": 0.2755905511811024,
                    "duration": 0.10344825000001379
                },
                {
                    "name": "A5",
                    "midi": 81,
                    "time": 226.43097787501205,
                    "velocity": 0.33070866141732286,
                    "duration": 0.10344825000001379
                },
                {
                    "name": "G5",
                    "midi": 79,
                    "time": 226.53442612501206,
                    "velocity": 0.2755905511811024,
                    "duration": 0.10344825000001379
                },
                {
                    "name": "F5",
                    "midi": 77,
                    "time": 226.63787437501207,
                    "velocity": 0.2440944881889764,
                    "duration": 0.10344825000001379
                },
                {
                    "name": "E5",
                    "midi": 76,
                    "time": 226.7413226250121,
                    "velocity": 0.33070866141732286,
                    "duration": 0.10344825000001379
                },
                {
                    "name": "C5",
                    "midi": 72,
                    "time": 226.8447708750121,
                    "velocity": 0.3464566929133858,
                    "duration": 0.10344825000001379
                },
                {
                    "name": "D5",
                    "midi": 74,
                    "time": 226.94821912501212,
                    "velocity": 0.29133858267716534,
                    "duration": 0.10344825000001379
                },
                {
                    "name": "E5",
                    "midi": 76,
                    "time": 227.05166737501213,
                    "velocity": 0.3464566929133858,
                    "duration": 0.10344825000001379
                },
                {
                    "name": "F5",
                    "midi": 77,
                    "time": 227.15511562501214,
                    "velocity": 0.3464566929133858,
                    "duration": 0.10344825000001379
                },
                {
                    "name": "E5",
                    "midi": 76,
                    "time": 227.25856387501216,
                    "velocity": 0.29133858267716534,
                    "duration": 0.10344825000001379
                },
                {
                    "name": "F5",
                    "midi": 77,
                    "time": 227.36201212501217,
                    "velocity": 0.33858267716535434,
                    "duration": 0.10344825000001379
                },
                {
                    "name": "G5",
                    "midi": 79,
                    "time": 227.46546037501219,
                    "velocity": 0.2440944881889764,
                    "duration": 0.10344825000001379
                },
                {
                    "name": "A5",
                    "midi": 81,
                    "time": 227.5689086250122,
                    "velocity": 0.29133858267716534,
                    "duration": 0.10344825000001379
                },
                {
                    "name": "E5",
                    "midi": 76,
                    "time": 227.6723568750122,
                    "velocity": 0.2755905511811024,
                    "duration": 0.10344825000001379
                },
                {
                    "name": "F5",
                    "midi": 77,
                    "time": 227.77580512501223,
                    "velocity": 0.33070866141732286,
                    "duration": 0.10344825000001379
                },
                {
                    "name": "A5",
                    "midi": 81,
                    "time": 227.87925337501224,
                    "velocity": 0.30708661417322836,
                    "duration": 0.10344825000001379
                },
                {
                    "name": "G5",
                    "midi": 79,
                    "time": 227.98270162501225,
                    "velocity": 0.2755905511811024,
                    "duration": 0.10344825000001379
                },
                {
                    "name": "F5",
                    "midi": 77,
                    "time": 228.08614987501227,
                    "velocity": 0.28346456692913385,
                    "duration": 0.10344825000001379
                },
                {
                    "name": "E5",
                    "midi": 76,
                    "time": 228.18959812501228,
                    "velocity": 0.31496062992125984,
                    "duration": 0.10344825000001379
                },
                {
                    "name": "D5",
                    "midi": 74,
                    "time": 228.2930463750123,
                    "velocity": 0.3228346456692913,
                    "duration": 0.10344825000001379
                },
                {
                    "name": "C#5",
                    "midi": 73,
                    "time": 228.3964946250123,
                    "velocity": 0.2440944881889764,
                    "duration": 0.10344825000001379
                },
                {
                    "name": "A4",
                    "midi": 69,
                    "time": 228.49994287501232,
                    "velocity": 0.3228346456692913,
                    "duration": 0.10344825000001379
                },
                {
                    "name": "B4",
                    "midi": 71,
                    "time": 228.60339112501234,
                    "velocity": 0.29133858267716534,
                    "duration": 0.10344825000001379
                },
                {
                    "name": "C#5",
                    "midi": 73,
                    "time": 228.70683937501235,
                    "velocity": 0.2677165354330709,
                    "duration": 0.10344825000001379
                },
                {
                    "name": "D5",
                    "midi": 74,
                    "time": 228.81028762501236,
                    "velocity": 0.31496062992125984,
                    "duration": 0.10344825000001379
                },
                {
                    "name": "C#5",
                    "midi": 73,
                    "time": 228.91373587501238,
                    "velocity": 0.2677165354330709,
                    "duration": 0.10344825000001379
                },
                {
                    "name": "D5",
                    "midi": 74,
                    "time": 229.0171841250124,
                    "velocity": 0.30708661417322836,
                    "duration": 0.10344825000001379
                },
                {
                    "name": "E5",
                    "midi": 76,
                    "time": 229.1206323750124,
                    "velocity": 0.2992125984251969,
                    "duration": 0.10344825000001379
                },
                {
                    "name": "F5",
                    "midi": 77,
                    "time": 229.22408062501242,
                    "velocity": 0.3700787401574803,
                    "duration": 0.10344825000001379
                },
                {
                    "name": "C#5",
                    "midi": 73,
                    "time": 229.32752887501243,
                    "velocity": 0.4094488188976378,
                    "duration": 0.10344825000001379
                },
                {
                    "name": "D5",
                    "midi": 74,
                    "time": 229.43097712501245,
                    "velocity": 0.4566929133858268,
                    "duration": 0.10344825000001379
                },
                {
                    "name": "G5",
                    "midi": 79,
                    "time": 229.53442537501246,
                    "velocity": 0.47244094488188976,
                    "duration": 0.10344825000001379
                },
                {
                    "name": "F5",
                    "midi": 77,
                    "time": 229.63787362501247,
                    "velocity": 0.4094488188976378,
                    "duration": 0.10344825000001379
                },
                {
                    "name": "E5",
                    "midi": 76,
                    "time": 229.7413218750125,
                    "velocity": 0.3937007874015748,
                    "duration": 0.10344825000001379
                },
                {
                    "name": "D5",
                    "midi": 74,
                    "time": 229.8447701250125,
                    "velocity": 0.41732283464566927,
                    "duration": 0.10344825000001379
                },
                {
                    "name": "C5",
                    "midi": 72,
                    "time": 229.94821837501252,
                    "velocity": 0.5196850393700787,
                    "duration": 0.10344825000001379
                },
                {
                    "name": "B4",
                    "midi": 71,
                    "time": 230.05166662501253,
                    "velocity": 0.5433070866141733,
                    "duration": 0.10344825000001379
                },
                {
                    "name": "G4",
                    "midi": 67,
                    "time": 230.15511487501254,
                    "velocity": 0.5511811023622047,
                    "duration": 0.10344825000001379
                },
                {
                    "name": "A4",
                    "midi": 69,
                    "time": 230.25856312501256,
                    "velocity": 0.5196850393700787,
                    "duration": 0.10344825000001379
                },
                {
                    "name": "B4",
                    "midi": 71,
                    "time": 230.36201137501257,
                    "velocity": 0.5905511811023622,
                    "duration": 0.10344825000001379
                },
                {
                    "name": "C5",
                    "midi": 72,
                    "time": 230.46545962501258,
                    "velocity": 0.5275590551181102,
                    "duration": 0.10344825000001379
                },
                {
                    "name": "B4",
                    "midi": 71,
                    "time": 230.5689078750126,
                    "velocity": 0.5196850393700787,
                    "duration": 0.10344825000001379
                },
                {
                    "name": "C5",
                    "midi": 72,
                    "time": 230.6723561250126,
                    "velocity": 0.5275590551181102,
                    "duration": 0.10344825000001379
                },
                {
                    "name": "E5",
                    "midi": 76,
                    "time": 230.77580437501263,
                    "velocity": 0.5826771653543307,
                    "duration": 0.10344825000001379
                },
                {
                    "name": "D5",
                    "midi": 74,
                    "time": 230.87925262501264,
                    "velocity": 0.6535433070866141,
                    "duration": 0.10344825000001379
                },
                {
                    "name": "C#5",
                    "midi": 73,
                    "time": 230.98270087501265,
                    "velocity": 0.6062992125984252,
                    "duration": 0.10344825000001379
                },
                {
                    "name": "D5",
                    "midi": 74,
                    "time": 231.08614912501267,
                    "velocity": 0.6377952755905512,
                    "duration": 0.10344825000001379
                },
                {
                    "name": "F5",
                    "midi": 77,
                    "time": 231.18959737501268,
                    "velocity": 0.6299212598425197,
                    "duration": 0.10344825000001379
                },
                {
                    "name": "E5",
                    "midi": 76,
                    "time": 231.2930456250127,
                    "velocity": 0.6614173228346457,
                    "duration": 0.10344825000001379
                },
                {
                    "name": "D#5",
                    "midi": 75,
                    "time": 231.3964938750127,
                    "velocity": 0.6377952755905512,
                    "duration": 0.10344825000001379
                },
                {
                    "name": "E5",
                    "midi": 76,
                    "time": 231.49994212501272,
                    "velocity": 0.7007874015748031,
                    "duration": 0.10344825000001379
                },
                {
                    "name": "G5",
                    "midi": 79,
                    "time": 231.60339037501274,
                    "velocity": 0.7795275590551181,
                    "duration": 0.10344825000001379
                },
                {
                    "name": "F#5",
                    "midi": 78,
                    "time": 231.70683862501275,
                    "velocity": 0.7244094488188977,
                    "duration": 0.10344825000001379
                },
                {
                    "name": "D6",
                    "midi": 86,
                    "time": 231.81028687501276,
                    "velocity": 0.7165354330708661,
                    "duration": 0.10344825000001379
                },
                {
                    "name": "C6",
                    "midi": 84,
                    "time": 231.91373512501278,
                    "velocity": 0.7952755905511811,
                    "duration": 0.10344825000001379
                },
                {
                    "name": "A5",
                    "midi": 81,
                    "time": 232.0171833750128,
                    "velocity": 0.7322834645669292,
                    "duration": 0.10344825000001379
                },
                {
                    "name": "G5",
                    "midi": 79,
                    "time": 232.1206316250128,
                    "velocity": 0.33858267716535434,
                    "duration": 0.10344825000001379
                },
                {
                    "name": "G5",
                    "midi": 79,
                    "time": 232.22407987501282,
                    "velocity": 0.2440944881889764,
                    "duration": 0.10344825000001379
                },
                {
                    "name": "F#5",
                    "midi": 78,
                    "time": 232.32752812501283,
                    "velocity": 0.25196850393700787,
                    "duration": 0.10344825000001379
                },
                {
                    "name": "G5",
                    "midi": 79,
                    "time": 232.43097637501285,
                    "velocity": 0.31496062992125984,
                    "duration": 0.10344825000001379
                },
                {
                    "name": "A5",
                    "midi": 81,
                    "time": 232.53442462501286,
                    "velocity": 0.2755905511811024,
                    "duration": 0.10344825000001379
                },
                {
                    "name": "G5",
                    "midi": 79,
                    "time": 232.63787287501287,
                    "velocity": 0.31496062992125984,
                    "duration": 0.10344825000001379
                },
                {
                    "name": "F#5",
                    "midi": 78,
                    "time": 232.7413211250129,
                    "velocity": 0.2440944881889764,
                    "duration": 0.10344825000001379
                },
                {
                    "name": "G5",
                    "midi": 79,
                    "time": 232.8447693750129,
                    "velocity": 0.33858267716535434,
                    "duration": 0.10344825000001379
                },
                {
                    "name": "B5",
                    "midi": 83,
                    "time": 232.94821762501292,
                    "velocity": 0.3228346456692913,
                    "duration": 0.10344825000001379
                },
                {
                    "name": "G5",
                    "midi": 79,
                    "time": 233.05166587501293,
                    "velocity": 0.3464566929133858,
                    "duration": 0.10344825000001379
                },
                {
                    "name": "F#5",
                    "midi": 78,
                    "time": 233.15511412501294,
                    "velocity": 0.25984251968503935,
                    "duration": 0.10344825000001379
                },
                {
                    "name": "G5",
                    "midi": 79,
                    "time": 233.25856237501296,
                    "velocity": 0.2755905511811024,
                    "duration": 0.10344825000001379
                },
                {
                    "name": "D6",
                    "midi": 86,
                    "time": 233.36201062501297,
                    "velocity": 0.3464566929133858,
                    "duration": 0.10344825000001379
                },
                {
                    "name": "G5",
                    "midi": 79,
                    "time": 233.46545887501298,
                    "velocity": 0.3464566929133858,
                    "duration": 0.10344825000001379
                },
                {
                    "name": "F#5",
                    "midi": 78,
                    "time": 233.568907125013,
                    "velocity": 0.2677165354330709,
                    "duration": 0.10344825000001379
                },
                {
                    "name": "G5",
                    "midi": 79,
                    "time": 233.672355375013,
                    "velocity": 0.3228346456692913,
                    "duration": 0.10344825000001379
                },
                {
                    "name": "D#6",
                    "midi": 87,
                    "time": 233.77580362501303,
                    "velocity": 0.2677165354330709,
                    "duration": 0.10344825000001379
                },
                {
                    "name": "F6",
                    "midi": 89,
                    "time": 233.87925187501304,
                    "velocity": 0.25984251968503935,
                    "duration": 0.10344825000001379
                },
                {
                    "name": "D#6",
                    "midi": 87,
                    "time": 233.98270012501305,
                    "velocity": 0.3543307086614173,
                    "duration": 0.10344825000001379
                },
                {
                    "name": "D6",
                    "midi": 86,
                    "time": 234.08614837501307,
                    "velocity": 0.3228346456692913,
                    "duration": 0.10344825000001379
                },
                {
                    "name": "C6",
                    "midi": 84,
                    "time": 234.18959662501308,
                    "velocity": 0.3228346456692913,
                    "duration": 0.10344825000001379
                },
                {
                    "name": "D6",
                    "midi": 86,
                    "time": 234.2930448750131,
                    "velocity": 0.3464566929133858,
                    "duration": 0.10344825000001379
                },
                {
                    "name": "C6",
                    "midi": 84,
                    "time": 234.3964931250131,
                    "velocity": 0.3464566929133858,
                    "duration": 0.10344825000001379
                },
                {
                    "name": "B5",
                    "midi": 83,
                    "time": 234.49994137501312,
                    "velocity": 0.31496062992125984,
                    "duration": 0.10344825000001379
                },
                {
                    "name": "C6",
                    "midi": 84,
                    "time": 234.60338962501314,
                    "velocity": 0.3228346456692913,
                    "duration": 0.10344825000001379
                },
                {
                    "name": "G5",
                    "midi": 79,
                    "time": 234.70683787501315,
                    "velocity": 0.25984251968503935,
                    "duration": 0.10344825000001379
                },
                {
                    "name": "G#5",
                    "midi": 80,
                    "time": 234.81028612501316,
                    "velocity": 0.2677165354330709,
                    "duration": 0.10344825000001379
                },
                {
                    "name": "G5",
                    "midi": 79,
                    "time": 234.91373437501318,
                    "velocity": 0.25984251968503935,
                    "duration": 0.10344825000001379
                },
                {
                    "name": "F5",
                    "midi": 77,
                    "time": 235.0171826250132,
                    "velocity": 0.33858267716535434,
                    "duration": 0.10344825000001379
                },
                {
                    "name": "D#5",
                    "midi": 75,
                    "time": 235.1206308750132,
                    "velocity": 0.28346456692913385,
                    "duration": 0.10344825000001379
                },
                {
                    "name": "D5",
                    "midi": 74,
                    "time": 235.22407912501322,
                    "velocity": 0.2755905511811024,
                    "duration": 0.10344825000001379
                },
                {
                    "name": "C5",
                    "midi": 72,
                    "time": 235.32752737501323,
                    "velocity": 0.3464566929133858,
                    "duration": 0.10344825000001379
                },
                {
                    "name": "B4",
                    "midi": 71,
                    "time": 235.43097562501325,
                    "velocity": 0.2755905511811024,
                    "duration": 0.10344825000001379
                },
                {
                    "name": "G4",
                    "midi": 67,
                    "time": 235.53442387501326,
                    "velocity": 0.3543307086614173,
                    "duration": 0.10344825000001379
                },
                {
                    "name": "F#4",
                    "midi": 66,
                    "time": 235.63787212501327,
                    "velocity": 0.33858267716535434,
                    "duration": 0.10344825000001379
                },
                {
                    "name": "G4",
                    "midi": 67,
                    "time": 235.7413203750133,
                    "velocity": 0.2992125984251969,
                    "duration": 0.10344825000001379
                },
                {
                    "name": "G#4",
                    "midi": 68,
                    "time": 235.8447686250133,
                    "velocity": 0.25196850393700787,
                    "duration": 0.10344825000001379
                },
                {
                    "name": "G4",
                    "midi": 67,
                    "time": 235.94821687501332,
                    "velocity": 0.3464566929133858,
                    "duration": 0.10344825000001379
                },
                {
                    "name": "F#4",
                    "midi": 66,
                    "time": 236.05166512501333,
                    "velocity": 0.2755905511811024,
                    "duration": 0.10344825000001379
                },
                {
                    "name": "G4",
                    "midi": 67,
                    "time": 236.15511337501334,
                    "velocity": 0.2677165354330709,
                    "duration": 0.10344825000001379
                },
                {
                    "name": "B4",
                    "midi": 71,
                    "time": 236.25856162501336,
                    "velocity": 0.28346456692913385,
                    "duration": 0.10344825000001379
                },
                {
                    "name": "G4",
                    "midi": 67,
                    "time": 236.36200987501337,
                    "velocity": 0.2755905511811024,
                    "duration": 0.10344825000001379
                },
                {
                    "name": "F#4",
                    "midi": 66,
                    "time": 236.46545812501338,
                    "velocity": 0.3464566929133858,
                    "duration": 0.10344825000001379
                },
                {
                    "name": "G4",
                    "midi": 67,
                    "time": 236.5689063750134,
                    "velocity": 0.30708661417322836,
                    "duration": 0.10344825000001379
                },
                {
                    "name": "D5",
                    "midi": 74,
                    "time": 236.6723546250134,
                    "velocity": 0.30708661417322836,
                    "duration": 0.10344825000001379
                },
                {
                    "name": "G4",
                    "midi": 67,
                    "time": 236.77580287501343,
                    "velocity": 0.33858267716535434,
                    "duration": 0.10344825000001379
                },
                {
                    "name": "F#4",
                    "midi": 66,
                    "time": 236.87925112501344,
                    "velocity": 0.29133858267716534,
                    "duration": 0.10344825000001379
                },
                {
                    "name": "G4",
                    "midi": 67,
                    "time": 236.98269937501345,
                    "velocity": 0.2992125984251969,
                    "duration": 0.10344825000001379
                },
                {
                    "name": "D#5",
                    "midi": 75,
                    "time": 237.08614762501347,
                    "velocity": 0.2992125984251969,
                    "duration": 0.10344825000001379
                },
                {
                    "name": "F5",
                    "midi": 77,
                    "time": 237.18959587501348,
                    "velocity": 0.33070866141732286,
                    "duration": 0.10344825000001379
                },
                {
                    "name": "D#5",
                    "midi": 75,
                    "time": 237.2930441250135,
                    "velocity": 0.2440944881889764,
                    "duration": 0.10344825000001379
                },
                {
                    "name": "D5",
                    "midi": 74,
                    "time": 237.3964923750135,
                    "velocity": 0.2440944881889764,
                    "duration": 0.10344825000001379
                },
                {
                    "name": "C5",
                    "midi": 72,
                    "time": 237.49994062501352,
                    "velocity": 0.3464566929133858,
                    "duration": 0.10344825000001379
                },
                {
                    "name": "D5",
                    "midi": 74,
                    "time": 237.60338887501354,
                    "velocity": 0.2440944881889764,
                    "duration": 0.10344825000001379
                },
                {
                    "name": "C5",
                    "midi": 72,
                    "time": 237.70683712501355,
                    "velocity": 0.33070866141732286,
                    "duration": 0.10344825000001379
                },
                {
                    "name": "B4",
                    "midi": 71,
                    "time": 237.81028537501356,
                    "velocity": 0.31496062992125984,
                    "duration": 0.10344825000001379
                },
                {
                    "name": "C5",
                    "midi": 72,
                    "time": 237.91373362501358,
                    "velocity": 0.2677165354330709,
                    "duration": 0.10344825000001379
                },
                {
                    "name": "G4",
                    "midi": 67,
                    "time": 238.0171818750136,
                    "velocity": 0.33858267716535434,
                    "duration": 0.10344825000001379
                },
                {
                    "name": "G#4",
                    "midi": 68,
                    "time": 238.1206301250136,
                    "velocity": 0.2440944881889764,
                    "duration": 0.10344825000001379
                },
                {
                    "name": "G4",
                    "midi": 67,
                    "time": 238.22407837501362,
                    "velocity": 0.2677165354330709,
                    "duration": 0.10344825000001379
                },
                {
                    "name": "F4",
                    "midi": 65,
                    "time": 238.32752662501363,
                    "velocity": 0.33070866141732286,
                    "duration": 0.10344825000001379
                },
                {
                    "name": "D#4",
                    "midi": 63,
                    "time": 238.43097487501365,
                    "velocity": 0.33070866141732286,
                    "duration": 0.10344825000001379
                },
                {
                    "name": "D4",
                    "midi": 62,
                    "time": 238.53442312501366,
                    "velocity": 0.33070866141732286,
                    "duration": 0.10344825000001379
                },
                {
                    "name": "C4",
                    "midi": 60,
                    "time": 238.63787137501367,
                    "velocity": 0.33070866141732286,
                    "duration": 0.10344825000001379
                },
                {
                    "name": "G3",
                    "midi": 55,
                    "time": 238.7413196250137,
                    "velocity": 0.2992125984251969,
                    "duration": 0.10344825000001379
                },
                {
                    "name": "B3",
                    "midi": 59,
                    "time": 238.8447678750137,
                    "velocity": 0.3228346456692913,
                    "duration": 0.10344825000001379
                },
                {
                    "name": "D4",
                    "midi": 62,
                    "time": 238.94821612501372,
                    "velocity": 0.25196850393700787,
                    "duration": 0.10344825000001379
                },
                {
                    "name": "G4",
                    "midi": 67,
                    "time": 239.05166437501373,
                    "velocity": 0.25984251968503935,
                    "duration": 0.10344825000001379
                },
                {
                    "name": "C5",
                    "midi": 72,
                    "time": 239.15511262501374,
                    "velocity": 0.25196850393700787,
                    "duration": 0.10344825000001379
                },
                {
                    "name": "G4",
                    "midi": 67,
                    "time": 239.25856087501376,
                    "velocity": 0.2677165354330709,
                    "duration": 0.10344825000001379
                },
                {
                    "name": "D#4",
                    "midi": 63,
                    "time": 239.36200912501377,
                    "velocity": 0.31496062992125984,
                    "duration": 0.10344825000001379
                },
                {
                    "name": "C4",
                    "midi": 60,
                    "time": 239.46545737501378,
                    "velocity": 0.2992125984251969,
                    "duration": 0.10344825000001379
                },
                {
                    "name": "G4",
                    "midi": 67,
                    "time": 239.5689056250138,
                    "velocity": 0.33858267716535434,
                    "duration": 0.10344825000001379
                },
                {
                    "name": "B4",
                    "midi": 71,
                    "time": 239.6723538750138,
                    "velocity": 0.3543307086614173,
                    "duration": 0.10344825000001379
                },
                {
                    "name": "D5",
                    "midi": 74,
                    "time": 239.77580212501383,
                    "velocity": 0.2677165354330709,
                    "duration": 0.10344825000001379
                },
                {
                    "name": "G5",
                    "midi": 79,
                    "time": 239.87925037501384,
                    "velocity": 0.30708661417322836,
                    "duration": 0.10344825000001379
                },
                {
                    "name": "C6",
                    "midi": 84,
                    "time": 239.98269862501385,
                    "velocity": 0.25984251968503935,
                    "duration": 0.10344825000001379
                },
                {
                    "name": "G5",
                    "midi": 79,
                    "time": 240.08614687501387,
                    "velocity": 0.2992125984251969,
                    "duration": 0.10344825000001379
                },
                {
                    "name": "D#5",
                    "midi": 75,
                    "time": 240.18959512501388,
                    "velocity": 0.3543307086614173,
                    "duration": 0.10344825000001379
                },
                {
                    "name": "C5",
                    "midi": 72,
                    "time": 240.2930433750139,
                    "velocity": 0.25196850393700787,
                    "duration": 0.10344825000001379
                },
                {
                    "name": "G5",
                    "midi": 79,
                    "time": 240.3964916250139,
                    "velocity": 0.3543307086614173,
                    "duration": 0.10344825000001379
                },
                {
                    "name": "B5",
                    "midi": 83,
                    "time": 240.49993987501392,
                    "velocity": 0.36220472440944884,
                    "duration": 0.10344825000001379
                },
                {
                    "name": "D6",
                    "midi": 86,
                    "time": 240.60338812501394,
                    "velocity": 0.3464566929133858,
                    "duration": 0.10344825000001379
                },
                {
                    "name": "G6",
                    "midi": 91,
                    "time": 240.70683637501395,
                    "velocity": 0.36220472440944884,
                    "duration": 0.10344825000001379
                },
                {
                    "name": "C6",
                    "midi": 84,
                    "time": 240.81028462501396,
                    "velocity": 0.2992125984251969,
                    "duration": 0.10344825000001379
                },
                {
                    "name": "G5",
                    "midi": 79,
                    "time": 240.91373287501398,
                    "velocity": 0.36220472440944884,
                    "duration": 0.10344825000001379
                },
                {
                    "name": "D#5",
                    "midi": 75,
                    "time": 241.017181125014,
                    "velocity": 0.4015748031496063,
                    "duration": 0.10344825000001379
                },
                {
                    "name": "C5",
                    "midi": 72,
                    "time": 241.120629375014,
                    "velocity": 0.3700787401574803,
                    "duration": 0.10344825000001379
                },
                {
                    "name": "G4",
                    "midi": 67,
                    "time": 241.22407762501402,
                    "velocity": 0.3700787401574803,
                    "duration": 0.10344825000001379
                },
                {
                    "name": "B4",
                    "midi": 71,
                    "time": 241.32752587501403,
                    "velocity": 0.4094488188976378,
                    "duration": 0.10344825000001379
                },
                {
                    "name": "D5",
                    "midi": 74,
                    "time": 241.43097412501405,
                    "velocity": 0.33070866141732286,
                    "duration": 0.10344825000001379
                },
                {
                    "name": "G5",
                    "midi": 79,
                    "time": 241.53442237501406,
                    "velocity": 0.4251968503937008,
                    "duration": 0.10344825000001379
                },
                {
                    "name": "C5",
                    "midi": 72,
                    "time": 241.63787062501407,
                    "velocity": 0.41732283464566927,
                    "duration": 0.10344825000001379
                },
                {
                    "name": "G4",
                    "midi": 67,
                    "time": 241.7413188750141,
                    "velocity": 0.3779527559055118,
                    "duration": 0.10344825000001379
                },
                {
                    "name": "D#4",
                    "midi": 63,
                    "time": 241.8447671250141,
                    "velocity": 0.44881889763779526,
                    "duration": 0.10344825000001379
                },
                {
                    "name": "C4",
                    "midi": 60,
                    "time": 241.94821537501412,
                    "velocity": 0.3779527559055118,
                    "duration": 0.10344825000001379
                },
                {
                    "name": "G3",
                    "midi": 55,
                    "time": 242.05166362501413,
                    "velocity": 0.3858267716535433,
                    "duration": 0.10344825000001379
                },
                {
                    "name": "B3",
                    "midi": 59,
                    "time": 242.15511187501414,
                    "velocity": 0.4251968503937008,
                    "duration": 0.10344825000001379
                },
                {
                    "name": "D4",
                    "midi": 62,
                    "time": 242.25856012501416,
                    "velocity": 0.4566929133858268,
                    "duration": 0.10344825000001379
                },
                {
                    "name": "G4",
                    "midi": 67,
                    "time": 242.36200837501417,
                    "velocity": 0.48031496062992124,
                    "duration": 0.10344825000001379
                },
                {
                    "name": "B4",
                    "midi": 71,
                    "time": 242.46545662501418,
                    "velocity": 0.4251968503937008,
                    "duration": 0.10344825000001379
                },
                {
                    "name": "D5",
                    "midi": 74,
                    "time": 242.5689048750142,
                    "velocity": 0.44881889763779526,
                    "duration": 0.10344825000001379
                },
                {
                    "name": "F#5",
                    "midi": 78,
                    "time": 242.6723531250142,
                    "velocity": 0.5275590551181102,
                    "duration": 0.10344825000001379
                },
                {
                    "name": "G5",
                    "midi": 79,
                    "time": 242.77580137501423,
                    "velocity": 0.48031496062992124,
                    "duration": 0.10344825000001379
                },
                {
                    "name": "F#5",
                    "midi": 78,
                    "time": 242.87924962501424,
                    "velocity": 0.4566929133858268,
                    "duration": 0.10344825000001379
                },
                {
                    "name": "G5",
                    "midi": 79,
                    "time": 242.98269787501425,
                    "velocity": 0.4645669291338583,
                    "duration": 0.10344825000001379
                },
                {
                    "name": "F#5",
                    "midi": 78,
                    "time": 243.08614612501427,
                    "velocity": 0.5118110236220472,
                    "duration": 0.10344825000001379
                },
                {
                    "name": "G5",
                    "midi": 79,
                    "time": 243.18959437501428,
                    "velocity": 0.5275590551181102,
                    "duration": 0.10344825000001379
                },
                {
                    "name": "F#5",
                    "midi": 78,
                    "time": 243.2930426250143,
                    "velocity": 0.5118110236220472,
                    "duration": 0.10344825000001379
                },
                {
                    "name": "G5",
                    "midi": 79,
                    "time": 243.3964908750143,
                    "velocity": 0.5039370078740157,
                    "duration": 0.10344825000001379
                },
                {
                    "name": "F#5",
                    "midi": 78,
                    "time": 243.49993912501432,
                    "velocity": 0.5905511811023622,
                    "duration": 0.10344825000001379
                },
                {
                    "name": "G5",
                    "midi": 79,
                    "time": 243.60338737501434,
                    "velocity": 0.5275590551181102,
                    "duration": 0.10344825000001379
                },
                {
                    "name": "G#5",
                    "midi": 80,
                    "time": 243.70683562501435,
                    "velocity": 0.5669291338582677,
                    "duration": 0.10344825000001379
                },
                {
                    "name": "A5",
                    "midi": 81,
                    "time": 243.81028387501436,
                    "velocity": 0.5511811023622047,
                    "duration": 0.10344825000001379
                },
                {
                    "name": "G#5",
                    "midi": 80,
                    "time": 243.91373212501438,
                    "velocity": 0.5905511811023622,
                    "duration": 0.10344825000001379
                },
                {
                    "name": "A5",
                    "midi": 81,
                    "time": 244.0171803750144,
                    "velocity": 0.5590551181102362,
                    "duration": 0.10344825000001379
                },
                {
                    "name": "G#5",
                    "midi": 80,
                    "time": 244.1206286250144,
                    "velocity": 0.5748031496062992,
                    "duration": 0.10344825000001379
                },
                {
                    "name": "A5",
                    "midi": 81,
                    "time": 244.22407687501442,
                    "velocity": 0.6535433070866141,
                    "duration": 0.10344825000001379
                },
                {
                    "name": "B5",
                    "midi": 83,
                    "time": 244.32752512501443,
                    "velocity": 0.6141732283464567,
                    "duration": 0.10344825000001379
                },
                {
                    "name": "A5",
                    "midi": 81,
                    "time": 244.43097337501445,
                    "velocity": 0.5905511811023622,
                    "duration": 0.10344825000001379
                },
                {
                    "name": "G5",
                    "midi": 79,
                    "time": 244.53442162501446,
                    "velocity": 0.6456692913385826,
                    "duration": 0.10344825000001379
                },
                {
                    "name": "F5",
                    "midi": 77,
                    "time": 244.63786987501447,
                    "velocity": 0.6220472440944882,
                    "duration": 0.10344825000001379
                },
                {
                    "name": "E5",
                    "midi": 76,
                    "time": 244.7413181250145,
                    "velocity": 0.6299212598425197,
                    "duration": 0.10344825000001379
                },
                {
                    "name": "F5",
                    "midi": 77,
                    "time": 244.8447663750145,
                    "velocity": 0.7007874015748031,
                    "duration": 0.10344825000001379
                },
                {
                    "name": "G5",
                    "midi": 79,
                    "time": 244.94821462501451,
                    "velocity": 0.6692913385826772,
                    "duration": 0.10344825000001379
                },
                {
                    "name": "F5",
                    "midi": 77,
                    "time": 245.05166287501453,
                    "velocity": 0.7401574803149606,
                    "duration": 0.10344825000001379
                },
                {
                    "name": "E5",
                    "midi": 76,
                    "time": 245.15511112501454,
                    "velocity": 0.6535433070866141,
                    "duration": 0.10344825000001379
                },
                {
                    "name": "D5",
                    "midi": 74,
                    "time": 245.25855937501456,
                    "velocity": 0.6614173228346457,
                    "duration": 0.10344825000001379
                },
                {
                    "name": "C5",
                    "midi": 72,
                    "time": 245.36200762501457,
                    "velocity": 0.7165354330708661,
                    "duration": 0.10344825000001379
                },
                {
                    "name": "B4",
                    "midi": 71,
                    "time": 245.46545587501458,
                    "velocity": 0.7559055118110236,
                    "duration": 0.10344825000001379
                },
                {
                    "name": "D5",
                    "midi": 74,
                    "time": 245.5689041250146,
                    "velocity": 0.7559055118110236,
                    "duration": 0.10344825000001379
                },
                {
                    "name": "C5",
                    "midi": 72,
                    "time": 245.6723523750146,
                    "velocity": 0.7244094488188977,
                    "duration": 0.10344825000001379
                },
                {
                    "name": "B4",
                    "midi": 71,
                    "time": 245.77580062501463,
                    "velocity": 0.7795275590551181,
                    "duration": 0.10344825000001379
                },
                {
                    "name": "C5",
                    "midi": 72,
                    "time": 245.87924887501464,
                    "velocity": 0.7637795275590551,
                    "duration": 0.10344825000001379
                },
                {
                    "name": "A4",
                    "midi": 69,
                    "time": 245.98269712501465,
                    "velocity": 0.7322834645669292,
                    "duration": 0.10344825000001379
                },
                {
                    "name": "B4",
                    "midi": 71,
                    "time": 246.08614537501467,
                    "velocity": 0.7952755905511811,
                    "duration": 0.10344825000001379
                },
                {
                    "name": "G4",
                    "midi": 67,
                    "time": 246.18959362501468,
                    "velocity": 0.8031496062992126,
                    "duration": 0.10344825000001379
                },
                {
                    "name": "A4",
                    "midi": 69,
                    "time": 246.2930418750147,
                    "velocity": 0.7795275590551181,
                    "duration": 0.10344825000001379
                },
                {
                    "name": "G4",
                    "midi": 67,
                    "time": 246.3964901250147,
                    "velocity": 0.7559055118110236,
                    "duration": 0.10344825000001379
                },
                {
                    "name": "F#4",
                    "midi": 66,
                    "time": 246.49993837501472,
                    "velocity": 0.7716535433070866,
                    "duration": 0.10344825000001379
                },
                {
                    "name": "G4",
                    "midi": 67,
                    "time": 246.60338662501474,
                    "velocity": 0.8188976377952756,
                    "duration": 0.10344825000001379
                },
                {
                    "name": "B4",
                    "midi": 71,
                    "time": 246.70683487501475,
                    "velocity": 0.8110236220472441,
                    "duration": 0.10344825000001379
                },
                {
                    "name": "A4",
                    "midi": 69,
                    "time": 246.81028312501476,
                    "velocity": 0.8031496062992126,
                    "duration": 0.10344825000001379
                },
                {
                    "name": "C5",
                    "midi": 72,
                    "time": 246.91373137501478,
                    "velocity": 0.8031496062992126,
                    "duration": 0.10344825000001379
                },
                {
                    "name": "B4",
                    "midi": 71,
                    "time": 247.0171796250148,
                    "velocity": 0.8740157480314961,
                    "duration": 0.10344825000001379
                },
                {
                    "name": "D5",
                    "midi": 74,
                    "time": 247.1206278750148,
                    "velocity": 0.8976377952755905,
                    "duration": 0.10344825000001379
                },
                {
                    "name": "C5",
                    "midi": 72,
                    "time": 247.22407612501482,
                    "velocity": 0.8582677165354331,
                    "duration": 0.10344825000001379
                },
                {
                    "name": "E5",
                    "midi": 76,
                    "time": 247.32752437501483,
                    "velocity": 0.8503937007874016,
                    "duration": 0.10344825000001379
                },
                {
                    "name": "D5",
                    "midi": 74,
                    "time": 247.43097262501485,
                    "velocity": 0.84251968503937,
                    "duration": 0.10344825000001379
                },
                {
                    "name": "F5",
                    "midi": 77,
                    "time": 247.53442087501486,
                    "velocity": 0.937007874015748,
                    "duration": 0.10344825000001379
                },
                {
                    "name": "E5",
                    "midi": 76,
                    "time": 247.63786912501487,
                    "velocity": 0.889763779527559,
                    "duration": 0.10344825000001379
                },
                {
                    "name": "G5",
                    "midi": 79,
                    "time": 247.7413173750149,
                    "velocity": 0.9448818897637795,
                    "duration": 0.10344825000001379
                },
                {
                    "name": "F5",
                    "midi": 77,
                    "time": 247.8447656250149,
                    "velocity": 0.9606299212598425,
                    "duration": 0.10344825000001379
                },
                {
                    "name": "D5",
                    "midi": 74,
                    "time": 247.94821387501491,
                    "velocity": 0.9921259842519685,
                    "duration": 0.10344825000001379
                },
                {
                    "name": "B4",
                    "midi": 71,
                    "time": 248.05166212501493,
                    "velocity": 0.9448818897637795,
                    "duration": 0.10344825000001379
                },
                {
                    "name": "G4",
                    "midi": 67,
                    "time": 248.15511037501494,
                    "velocity": 0.9763779527559056,
                    "duration": 0.10344825000001379
                },
                {
                    "name": "G#4",
                    "midi": 68,
                    "time": 248.25855862501496,
                    "velocity": 0.937007874015748,
                    "duration": 0.10344825000001379
                },
                {
                    "name": "G4",
                    "midi": 67,
                    "time": 248.36200687501497,
                    "velocity": 0.968503937007874,
                    "duration": 0.10344825000001379
                },
                {
                    "name": "F#4",
                    "midi": 66,
                    "time": 248.46545512501498,
                    "velocity": 1,
                    "duration": 0.10344825000001379
                },
                {
                    "name": "G4",
                    "midi": 67,
                    "time": 248.568903375015,
                    "velocity": 1,
                    "duration": 0.10344825000001379
                },
                {
                    "name": "A4",
                    "midi": 69,
                    "time": 248.672351625015,
                    "velocity": 0.8503937007874016,
                    "duration": 0.10344825000001379
                },
                {
                    "name": "G4",
                    "midi": 67,
                    "time": 248.77579987501503,
                    "velocity": 0.7795275590551181,
                    "duration": 0.10344825000001379
                },
                {
                    "name": "F#4",
                    "midi": 66,
                    "time": 248.87924812501504,
                    "velocity": 0.7874015748031497,
                    "duration": 0.10344825000001379
                },
                {
                    "name": "G4",
                    "midi": 67,
                    "time": 248.98269637501505,
                    "velocity": 0.6299212598425197,
                    "duration": 0.10344825000001379
                },
                {
                    "name": "G#4",
                    "midi": 68,
                    "time": 249.08614462501507,
                    "velocity": 0.6062992125984252,
                    "duration": 0.10344825000001379
                },
                {
                    "name": "A4",
                    "midi": 69,
                    "time": 249.18959287501508,
                    "velocity": 0.5196850393700787,
                    "duration": 0.10344825000001379
                },
                {
                    "name": "A#4",
                    "midi": 70,
                    "time": 249.2930411250151,
                    "velocity": 0.5039370078740157,
                    "duration": 0.10344825000001379
                },
                {
                    "name": "B4",
                    "midi": 71,
                    "time": 249.3964893750151,
                    "velocity": 0.41732283464566927,
                    "duration": 0.10344825000001379
                },
                {
                    "name": "C5",
                    "midi": 72,
                    "time": 249.49993762501512,
                    "velocity": 0.3464566929133858,
                    "duration": 0.10344825000001379
                },
                {
                    "name": "D5",
                    "midi": 74,
                    "time": 249.60338587501514,
                    "velocity": 0.23622047244094488,
                    "duration": 0.10344825000001379
                },
                {
                    "name": "C5",
                    "midi": 72,
                    "time": 249.70683412501515,
                    "velocity": 0.2755905511811024,
                    "duration": 0.10344825000001379
                },
                {
                    "name": "B4",
                    "midi": 71,
                    "time": 249.81028237501516,
                    "velocity": 0.28346456692913385,
                    "duration": 0.10344825000001379
                },
                {
                    "name": "C5",
                    "midi": 72,
                    "time": 249.91373062501518,
                    "velocity": 0.33070866141732286,
                    "duration": 0.10344825000001379
                },
                {
                    "name": "D5",
                    "midi": 74,
                    "time": 250.0171788750152,
                    "velocity": 0.2283464566929134,
                    "duration": 0.10344825000001379
                },
                {
                    "name": "E5",
                    "midi": 76,
                    "time": 250.1206271250152,
                    "velocity": 0.25984251968503935,
                    "duration": 0.10344825000001379
                },
                {
                    "name": "C5",
                    "midi": 72,
                    "time": 250.22407537501522,
                    "velocity": 0.2204724409448819,
                    "duration": 0.10344825000001379
                },
                {
                    "name": "D5",
                    "midi": 74,
                    "time": 250.32752362501523,
                    "velocity": 0.28346456692913385,
                    "duration": 0.10344825000001379
                },
                {
                    "name": "C5",
                    "midi": 72,
                    "time": 250.43097187501525,
                    "velocity": 0.23622047244094488,
                    "duration": 0.10344825000001379
                },
                {
                    "name": "B4",
                    "midi": 71,
                    "time": 250.53442012501526,
                    "velocity": 0.2755905511811024,
                    "duration": 0.10344825000001379
                },
                {
                    "name": "A4",
                    "midi": 69,
                    "time": 250.63786837501527,
                    "velocity": 0.2283464566929134,
                    "duration": 0.10344825000001379
                },
                {
                    "name": "G4",
                    "midi": 67,
                    "time": 250.7413166250153,
                    "velocity": 0.31496062992125984,
                    "duration": 0.10344825000001379
                },
                {
                    "name": "A4",
                    "midi": 69,
                    "time": 250.8447648750153,
                    "velocity": 0.25196850393700787,
                    "duration": 0.10344825000001379
                },
                {
                    "name": "B4",
                    "midi": 71,
                    "time": 250.94821312501531,
                    "velocity": 0.33070866141732286,
                    "duration": 0.10344825000001379
                },
                {
                    "name": "C5",
                    "midi": 72,
                    "time": 251.05166137501533,
                    "velocity": 0.28346456692913385,
                    "duration": 0.10344825000001379
                },
                {
                    "name": "D5",
                    "midi": 74,
                    "time": 251.15510962501534,
                    "velocity": 0.25984251968503935,
                    "duration": 0.10344825000001379
                },
                {
                    "name": "E5",
                    "midi": 76,
                    "time": 251.25855787501536,
                    "velocity": 0.2755905511811024,
                    "duration": 0.10344825000001379
                },
                {
                    "name": "F5",
                    "midi": 77,
                    "time": 251.36200612501537,
                    "velocity": 0.28346456692913385,
                    "duration": 0.10344825000001379
                },
                {
                    "name": "E5",
                    "midi": 76,
                    "time": 251.46545437501538,
                    "velocity": 0.2677165354330709,
                    "duration": 0.10344825000001379
                },
                {
                    "name": "G5",
                    "midi": 79,
                    "time": 251.5689026250154,
                    "velocity": 0.2992125984251969,
                    "duration": 0.10344825000001379
                },
                {
                    "name": "F5",
                    "midi": 77,
                    "time": 251.6723508750154,
                    "velocity": 0.29133858267716534,
                    "duration": 0.10344825000001379
                },
                {
                    "name": "E5",
                    "midi": 76,
                    "time": 251.77579912501542,
                    "velocity": 0.25984251968503935,
                    "duration": 0.10344825000001379
                },
                {
                    "name": "D5",
                    "midi": 74,
                    "time": 251.87924737501544,
                    "velocity": 0.3228346456692913,
                    "duration": 0.10344825000001379
                },
                {
                    "name": "E5",
                    "midi": 76,
                    "time": 251.98269562501545,
                    "velocity": 0.28346456692913385,
                    "duration": 0.10344825000001379
                },
                {
                    "name": "F5",
                    "midi": 77,
                    "time": 252.08614387501547,
                    "velocity": 0.25984251968503935,
                    "duration": 0.10344825000001379
                },
                {
                    "name": "E5",
                    "midi": 76,
                    "time": 252.18959212501548,
                    "velocity": 0.31496062992125984,
                    "duration": 0.10344825000001379
                },
                {
                    "name": "D5",
                    "midi": 74,
                    "time": 252.2930403750155,
                    "velocity": 0.2755905511811024,
                    "duration": 0.10344825000001379
                },
                {
                    "name": "C5",
                    "midi": 72,
                    "time": 252.3964886250155,
                    "velocity": 0.2755905511811024,
                    "duration": 0.10344825000001379
                },
                {
                    "name": "D5",
                    "midi": 74,
                    "time": 252.49993687501552,
                    "velocity": 0.29133858267716534,
                    "duration": 0.10344825000001379
                },
                {
                    "name": "E5",
                    "midi": 76,
                    "time": 252.60338512501554,
                    "velocity": 0.2204724409448819,
                    "duration": 0.10344825000001379
                },
                {
                    "name": "F5",
                    "midi": 77,
                    "time": 252.70683337501555,
                    "velocity": 0.2283464566929134,
                    "duration": 0.10344825000001379
                },
                {
                    "name": "G5",
                    "midi": 79,
                    "time": 252.81028162501556,
                    "velocity": 0.2677165354330709,
                    "duration": 0.10344825000001379
                },
                {
                    "name": "F5",
                    "midi": 77,
                    "time": 252.91372987501558,
                    "velocity": 0.30708661417322836,
                    "duration": 0.10344825000001379
                },
                {
                    "name": "E5",
                    "midi": 76,
                    "time": 253.0171781250156,
                    "velocity": 0.2440944881889764,
                    "duration": 0.10344825000001379
                },
                {
                    "name": "D5",
                    "midi": 74,
                    "time": 253.1206263750156,
                    "velocity": 0.31496062992125984,
                    "duration": 0.10344825000001379
                },
                {
                    "name": "C#5",
                    "midi": 73,
                    "time": 253.22407462501562,
                    "velocity": 0.23622047244094488,
                    "duration": 0.10344825000001379
                },
                {
                    "name": "E5",
                    "midi": 76,
                    "time": 253.32752287501563,
                    "velocity": 0.31496062992125984,
                    "duration": 0.10344825000001379
                },
                {
                    "name": "A5",
                    "midi": 81,
                    "time": 253.43097112501565,
                    "velocity": 0.2204724409448819,
                    "duration": 0.10344825000001379
                },
                {
                    "name": "G5",
                    "midi": 79,
                    "time": 253.53441937501566,
                    "velocity": 0.2992125984251969,
                    "duration": 0.10344825000001379
                },
                {
                    "name": "F5",
                    "midi": 77,
                    "time": 253.63786762501567,
                    "velocity": 0.2440944881889764,
                    "duration": 0.10344825000001379
                },
                {
                    "name": "E5",
                    "midi": 76,
                    "time": 253.7413158750157,
                    "velocity": 0.23622047244094488,
                    "duration": 0.10344825000001379
                },
                {
                    "name": "D5",
                    "midi": 74,
                    "time": 253.8447641250157,
                    "velocity": 0.25196850393700787,
                    "duration": 0.10344825000001379
                },
                {
                    "name": "C5",
                    "midi": 72,
                    "time": 253.94821237501571,
                    "velocity": 0.2440944881889764,
                    "duration": 0.10344825000001379
                },
                {
                    "name": "B4",
                    "midi": 71,
                    "time": 254.05166062501573,
                    "velocity": 0.28346456692913385,
                    "duration": 0.10344825000001379
                },
                {
                    "name": "D5",
                    "midi": 74,
                    "time": 254.15510887501574,
                    "velocity": 0.30708661417322836,
                    "duration": 0.10344825000001379
                },
                {
                    "name": "G5",
                    "midi": 79,
                    "time": 254.25855712501576,
                    "velocity": 0.2204724409448819,
                    "duration": 0.10344825000001379
                },
                {
                    "name": "F5",
                    "midi": 77,
                    "time": 254.36200537501577,
                    "velocity": 0.30708661417322836,
                    "duration": 0.10344825000001379
                },
                {
                    "name": "E5",
                    "midi": 76,
                    "time": 254.46545362501578,
                    "velocity": 0.2283464566929134,
                    "duration": 0.10344825000001379
                },
                {
                    "name": "D5",
                    "midi": 74,
                    "time": 254.5689018750158,
                    "velocity": 0.2204724409448819,
                    "duration": 0.10344825000001379
                },
                {
                    "name": "C5",
                    "midi": 72,
                    "time": 254.6723501250158,
                    "velocity": 0.28346456692913385,
                    "duration": 0.10344825000001379
                },
                {
                    "name": "B4",
                    "midi": 71,
                    "time": 254.77579837501582,
                    "velocity": 0.30708661417322836,
                    "duration": 0.10344825000001379
                },
                {
                    "name": "A4",
                    "midi": 69,
                    "time": 254.87924662501584,
                    "velocity": 0.2755905511811024,
                    "duration": 0.10344825000001379
                },
                {
                    "name": "D5",
                    "midi": 74,
                    "time": 254.98269487501585,
                    "velocity": 0.3228346456692913,
                    "duration": 0.10344825000001379
                },
                {
                    "name": "E5",
                    "midi": 76,
                    "time": 255.08614312501587,
                    "velocity": 0.31496062992125984,
                    "duration": 0.10344825000001379
                },
                {
                    "name": "D5",
                    "midi": 74,
                    "time": 255.18959137501588,
                    "velocity": 0.31496062992125984,
                    "duration": 0.10344825000001379
                },
                {
                    "name": "C5",
                    "midi": 72,
                    "time": 255.2930396250159,
                    "velocity": 0.2992125984251969,
                    "duration": 0.10344825000001379
                },
                {
                    "name": "B4",
                    "midi": 71,
                    "time": 255.3964878750159,
                    "velocity": 0.2440944881889764,
                    "duration": 0.10344825000001379
                },
                {
                    "name": "A4",
                    "midi": 69,
                    "time": 255.49993612501592,
                    "velocity": 0.29133858267716534,
                    "duration": 0.10344825000001379
                },
                {
                    "name": "G4",
                    "midi": 67,
                    "time": 255.60338437501593,
                    "velocity": 0.25984251968503935,
                    "duration": 0.10344825000001379
                },
                {
                    "name": "F#4",
                    "midi": 66,
                    "time": 255.70683262501595,
                    "velocity": 0.33070866141732286,
                    "duration": 0.10344825000001379
                },
                {
                    "name": "G4",
                    "midi": 67,
                    "time": 255.81028087501596,
                    "velocity": 0.3228346456692913,
                    "duration": 0.10344825000001379
                },
                {
                    "name": "A4",
                    "midi": 69,
                    "time": 255.91372912501598,
                    "velocity": 0.28346456692913385,
                    "duration": 0.10344825000001379
                },
                {
                    "name": "B4",
                    "midi": 71,
                    "time": 256.017177375016,
                    "velocity": 0.2440944881889764,
                    "duration": 0.10344824999998536
                },
                {
                    "name": "C5",
                    "midi": 72,
                    "time": 256.120625625016,
                    "velocity": 0.2992125984251969,
                    "duration": 0.10344824999998536
                },
                {
                    "name": "D5",
                    "midi": 74,
                    "time": 256.22407387501596,
                    "velocity": 0.2992125984251969,
                    "duration": 0.10344824999998536
                },
                {
                    "name": "C5",
                    "midi": 72,
                    "time": 256.32752212501595,
                    "velocity": 0.2440944881889764,
                    "duration": 0.10344824999998536
                },
                {
                    "name": "B4",
                    "midi": 71,
                    "time": 256.43097037501593,
                    "velocity": 0.3228346456692913,
                    "duration": 0.10344824999998536
                },
                {
                    "name": "C5",
                    "midi": 72,
                    "time": 256.5344186250159,
                    "velocity": 0.30708661417322836,
                    "duration": 0.10344824999998536
                },
                {
                    "name": "D5",
                    "midi": 74,
                    "time": 256.6378668750159,
                    "velocity": 0.2440944881889764,
                    "duration": 0.10344824999998536
                },
                {
                    "name": "E5",
                    "midi": 76,
                    "time": 256.7413151250159,
                    "velocity": 0.31496062992125984,
                    "duration": 0.10344824999998536
                },
                {
                    "name": "C5",
                    "midi": 72,
                    "time": 256.8447633750159,
                    "velocity": 0.30708661417322836,
                    "duration": 0.10344824999998536
                },
                {
                    "name": "D5",
                    "midi": 74,
                    "time": 256.94821162501586,
                    "velocity": 0.2992125984251969,
                    "duration": 0.10344824999998536
                },
                {
                    "name": "C5",
                    "midi": 72,
                    "time": 257.05165987501584,
                    "velocity": 0.2677165354330709,
                    "duration": 0.10344824999998536
                },
                {
                    "name": "B4",
                    "midi": 71,
                    "time": 257.15510812501583,
                    "velocity": 0.28346456692913385,
                    "duration": 0.10344824999998536
                },
                {
                    "name": "A4",
                    "midi": 69,
                    "time": 257.2585563750158,
                    "velocity": 0.2677165354330709,
                    "duration": 0.10344824999998536
                },
                {
                    "name": "G4",
                    "midi": 67,
                    "time": 257.3620046250158,
                    "velocity": 0.3228346456692913,
                    "duration": 0.10344824999998536
                },
                {
                    "name": "A4",
                    "midi": 69,
                    "time": 257.4654528750158,
                    "velocity": 0.25196850393700787,
                    "duration": 0.10344824999998536
                },
                {
                    "name": "B4",
                    "midi": 71,
                    "time": 257.56890112501577,
                    "velocity": 0.33070866141732286,
                    "duration": 0.10344824999998536
                },
                {
                    "name": "C5",
                    "midi": 72,
                    "time": 257.67234937501576,
                    "velocity": 0.30708661417322836,
                    "duration": 0.10344824999998536
                },
                {
                    "name": "D5",
                    "midi": 74,
                    "time": 257.77579762501574,
                    "velocity": 0.23622047244094488,
                    "duration": 0.10344824999998536
                },
                {
                    "name": "E5",
                    "midi": 76,
                    "time": 257.8792458750157,
                    "velocity": 0.2440944881889764,
                    "duration": 0.10344824999998536
                },
                {
                    "name": "F5",
                    "midi": 77,
                    "time": 257.9826941250157,
                    "velocity": 0.30708661417322836,
                    "duration": 0.10344824999998536
                },
                {
                    "name": "E5",
                    "midi": 76,
                    "time": 258.0861423750157,
                    "velocity": 0.25196850393700787,
                    "duration": 0.10344824999998536
                },
                {
                    "name": "G5",
                    "midi": 79,
                    "time": 258.1895906250157,
                    "velocity": 0.2992125984251969,
                    "duration": 0.10344824999998536
                },
                {
                    "name": "F5",
                    "midi": 77,
                    "time": 258.29303887501567,
                    "velocity": 0.30708661417322836,
                    "duration": 0.10344824999998536
                },
                {
                    "name": "E5",
                    "midi": 76,
                    "time": 258.39648712501565,
                    "velocity": 0.31496062992125984,
                    "duration": 0.10344824999998536
                },
                {
                    "name": "D5",
                    "midi": 74,
                    "time": 258.49993537501564,
                    "velocity": 0.31496062992125984,
                    "duration": 0.10344824999998536
                },
                {
                    "name": "E5",
                    "midi": 76,
                    "time": 258.6033836250156,
                    "velocity": 0.29133858267716534,
                    "duration": 0.10344824999998536
                },
                {
                    "name": "F5",
                    "midi": 77,
                    "time": 258.7068318750156,
                    "velocity": 0.28346456692913385,
                    "duration": 0.10344824999998536
                },
                {
                    "name": "E5",
                    "midi": 76,
                    "time": 258.8102801250156,
                    "velocity": 0.28346456692913385,
                    "duration": 0.10344824999998536
                },
                {
                    "name": "D5",
                    "midi": 74,
                    "time": 258.9137283750156,
                    "velocity": 0.2283464566929134,
                    "duration": 0.10344824999998536
                },
                {
                    "name": "C5",
                    "midi": 72,
                    "time": 259.01717662501557,
                    "velocity": 0.2992125984251969,
                    "duration": 0.10344824999998536
                },
                {
                    "name": "E5",
                    "midi": 76,
                    "time": 259.12062487501555,
                    "velocity": 0.31496062992125984,
                    "duration": 0.10344824999998536
                },
                {
                    "name": "G5",
                    "midi": 79,
                    "time": 259.22407312501554,
                    "velocity": 0.25984251968503935,
                    "duration": 0.10344824999998536
                },
                {
                    "name": "A5",
                    "midi": 81,
                    "time": 259.3275213750155,
                    "velocity": 0.28346456692913385,
                    "duration": 0.10344824999998536
                },
                {
                    "name": "A#5",
                    "midi": 82,
                    "time": 259.4309696250155,
                    "velocity": 0.33858267716535434,
                    "duration": 0.10344824999998536
                },
                {
                    "name": "A5",
                    "midi": 81,
                    "time": 259.5344178750155,
                    "velocity": 0.25984251968503935,
                    "duration": 0.10344824999998536
                },
                {
                    "name": "G5",
                    "midi": 79,
                    "time": 259.6378661250155,
                    "velocity": 0.3464566929133858,
                    "duration": 0.10344824999998536
                },
                {
                    "name": "F5",
                    "midi": 77,
                    "time": 259.74131437501546,
                    "velocity": 0.33070866141732286,
                    "duration": 0.10344824999998536
                },
                {
                    "name": "E5",
                    "midi": 76,
                    "time": 259.84476262501545,
                    "velocity": 0.33070866141732286,
                    "duration": 0.10344824999998536
                },
                {
                    "name": "D5",
                    "midi": 74,
                    "time": 259.94821087501543,
                    "velocity": 0.30708661417322836,
                    "duration": 0.10344824999998536
                },
                {
                    "name": "C5",
                    "midi": 72,
                    "time": 260.0516591250154,
                    "velocity": 0.3464566929133858,
                    "duration": 0.10344824999998536
                },
                {
                    "name": "A#4",
                    "midi": 70,
                    "time": 260.1551073750154,
                    "velocity": 0.33858267716535434,
                    "duration": 0.10344824999998536
                },
                {
                    "name": "A4",
                    "midi": 69,
                    "time": 260.2585556250154,
                    "velocity": 0.4015748031496063,
                    "duration": 0.10344824999998536
                },
                {
                    "name": "C5",
                    "midi": 72,
                    "time": 260.3620038750154,
                    "velocity": 0.3858267716535433,
                    "duration": 0.10344824999998536
                },
                {
                    "name": "D5",
                    "midi": 74,
                    "time": 260.46545212501536,
                    "velocity": 0.3464566929133858,
                    "duration": 0.10344824999998536
                },
                {
                    "name": "E5",
                    "midi": 76,
                    "time": 260.56890037501535,
                    "velocity": 0.33070866141732286,
                    "duration": 0.10344824999998536
                },
                {
                    "name": "F5",
                    "midi": 77,
                    "time": 260.67234862501533,
                    "velocity": 0.3543307086614173,
                    "duration": 0.10344824999998536
                },
                {
                    "name": "G5",
                    "midi": 79,
                    "time": 260.7757968750153,
                    "velocity": 0.33070866141732286,
                    "duration": 0.10344824999998536
                },
                {
                    "name": "A5",
                    "midi": 81,
                    "time": 260.8792451250153,
                    "velocity": 0.44881889763779526,
                    "duration": 0.10344824999998536
                },
                {
                    "name": "B5",
                    "midi": 83,
                    "time": 260.9826933750153,
                    "velocity": 0.3779527559055118,
                    "duration": 0.10344824999998536
                },
                {
                    "name": "C6",
                    "midi": 84,
                    "time": 261.0861416250153,
                    "velocity": 0.3858267716535433,
                    "duration": 0.10344824999998536
                },
                {
                    "name": "B5",
                    "midi": 83,
                    "time": 261.18958987501526,
                    "velocity": 0.3937007874015748,
                    "duration": 0.10344824999998536
                },
                {
                    "name": "A5",
                    "midi": 81,
                    "time": 261.29303812501524,
                    "velocity": 0.3937007874015748,
                    "duration": 0.10344824999998536
                },
                {
                    "name": "G5",
                    "midi": 79,
                    "time": 261.39648637501523,
                    "velocity": 0.47244094488188976,
                    "duration": 0.10344824999998536
                },
                {
                    "name": "F#5",
                    "midi": 78,
                    "time": 261.4999346250152,
                    "velocity": 0.47244094488188976,
                    "duration": 0.10344824999998536
                },
                {
                    "name": "E5",
                    "midi": 76,
                    "time": 261.6033828750152,
                    "velocity": 0.4251968503937008,
                    "duration": 0.10344824999998536
                },
                {
                    "name": "D5",
                    "midi": 74,
                    "time": 261.7068311250152,
                    "velocity": 0.4015748031496063,
                    "duration": 0.10344824999998536
                },
                {
                    "name": "C5",
                    "midi": 72,
                    "time": 261.81027937501517,
                    "velocity": 0.4881889763779528,
                    "duration": 0.10344824999998536
                },
                {
                    "name": "B4",
                    "midi": 71,
                    "time": 261.91372762501516,
                    "velocity": 0.41732283464566927,
                    "duration": 0.10344824999998536
                },
                {
                    "name": "D5",
                    "midi": 74,
                    "time": 262.01717587501514,
                    "velocity": 0.5275590551181102,
                    "duration": 0.10344824999998536
                },
                {
                    "name": "G5",
                    "midi": 79,
                    "time": 262.1206241250151,
                    "velocity": 0.5196850393700787,
                    "duration": 0.10344824999998536
                },
                {
                    "name": "A5",
                    "midi": 81,
                    "time": 262.2240723750151,
                    "velocity": 0.49606299212598426,
                    "duration": 0.10344824999998536
                },
                {
                    "name": "B5",
                    "midi": 83,
                    "time": 262.3275206250151,
                    "velocity": 0.4645669291338583,
                    "duration": 0.10344824999998536
                },
                {
                    "name": "C6",
                    "midi": 84,
                    "time": 262.4309688750151,
                    "velocity": 0.4645669291338583,
                    "duration": 0.10344824999998536
                },
                {
                    "name": "D6",
                    "midi": 86,
                    "time": 262.53441712501507,
                    "velocity": 0.4645669291338583,
                    "duration": 0.10344824999998536
                },
                {
                    "name": "E6",
                    "midi": 88,
                    "time": 262.63786537501505,
                    "velocity": 0.4881889763779528,
                    "duration": 0.10344824999998536
                },
                {
                    "name": "F6",
                    "midi": 89,
                    "time": 262.74131362501504,
                    "velocity": 0.5118110236220472,
                    "duration": 0.10344824999998536
                },
                {
                    "name": "E6",
                    "midi": 88,
                    "time": 262.844761875015,
                    "velocity": 0.49606299212598426,
                    "duration": 0.10344824999998536
                },
                {
                    "name": "D6",
                    "midi": 86,
                    "time": 262.948210125015,
                    "velocity": 0.4881889763779528,
                    "duration": 0.10344824999998536
                },
                {
                    "name": "C6",
                    "midi": 84,
                    "time": 263.051658375015,
                    "velocity": 0.5039370078740157,
                    "duration": 0.10344824999998536
                },
                {
                    "name": "B5",
                    "midi": 83,
                    "time": 263.155106625015,
                    "velocity": 0.5196850393700787,
                    "duration": 0.10344824999998536
                },
                {
                    "name": "A5",
                    "midi": 81,
                    "time": 263.25855487501497,
                    "velocity": 0.5905511811023622,
                    "duration": 0.10344824999998536
                },
                {
                    "name": "G5",
                    "midi": 79,
                    "time": 263.36200312501495,
                    "velocity": 0.5748031496062992,
                    "duration": 0.10344824999998536
                },
                {
                    "name": "F5",
                    "midi": 77,
                    "time": 263.46545137501494,
                    "velocity": 0.6299212598425197,
                    "duration": 0.10344824999998536
                },
                {
                    "name": "E5",
                    "midi": 76,
                    "time": 263.5688996250149,
                    "velocity": 0.5433070866141733,
                    "duration": 0.10344824999998536
                },
                {
                    "name": "C6",
                    "midi": 84,
                    "time": 263.6723478750149,
                    "velocity": 0.5669291338582677,
                    "duration": 0.10344824999998536
                },
                {
                    "name": "G5",
                    "midi": 79,
                    "time": 263.7757961250149,
                    "velocity": 0.6062992125984252,
                    "duration": 0.10344824999998536
                },
                {
                    "name": "E5",
                    "midi": 76,
                    "time": 263.8792443750149,
                    "velocity": 0.5905511811023622,
                    "duration": 0.10344824999998536
                },
                {
                    "name": "D5",
                    "midi": 74,
                    "time": 263.98269262501486,
                    "velocity": 0.5669291338582677,
                    "duration": 0.10344824999998536
                },
                {
                    "name": "B5",
                    "midi": 83,
                    "time": 264.08614087501485,
                    "velocity": 0.6771653543307087,
                    "duration": 0.10344824999998536
                },
                {
                    "name": "G#5",
                    "midi": 80,
                    "time": 264.18958912501483,
                    "velocity": 0.6535433070866141,
                    "duration": 0.10344824999998536
                },
                {
                    "name": "D5",
                    "midi": 74,
                    "time": 264.2930373750148,
                    "velocity": 0.6062992125984252,
                    "duration": 0.10344824999998536
                },
                {
                    "name": "C5",
                    "midi": 72,
                    "time": 264.3964856250148,
                    "velocity": 0.6771653543307087,
                    "duration": 0.10344824999998536
                },
                {
                    "name": "A5",
                    "midi": 81,
                    "time": 264.4999338750148,
                    "velocity": 0.6299212598425197,
                    "duration": 0.10344824999998536
                },
                {
                    "name": "E5",
                    "midi": 76,
                    "time": 264.6033821250148,
                    "velocity": 0.6141732283464567,
                    "duration": 0.10344824999998536
                },
                {
                    "name": "C5",
                    "midi": 72,
                    "time": 264.70683037501476,
                    "velocity": 0.7165354330708661,
                    "duration": 0.10344824999998536
                },
                {
                    "name": "A#4",
                    "midi": 70,
                    "time": 264.81027862501475,
                    "velocity": 0.6535433070866141,
                    "duration": 0.10344824999998536
                },
                {
                    "name": "G5",
                    "midi": 79,
                    "time": 264.91372687501473,
                    "velocity": 0.7244094488188977,
                    "duration": 0.10344824999998536
                },
                {
                    "name": "E5",
                    "midi": 76,
                    "time": 265.0171751250147,
                    "velocity": 0.7007874015748031,
                    "duration": 0.10344824999998536
                },
                {
                    "name": "A#4",
                    "midi": 70,
                    "time": 265.1206233750147,
                    "velocity": 0.6850393700787402,
                    "duration": 0.10344824999998536
                },
                {
                    "name": "A4",
                    "midi": 69,
                    "time": 265.2240716250147,
                    "velocity": 0.6614173228346457,
                    "duration": 0.10344824999998536
                },
                {
                    "name": "F4",
                    "midi": 65,
                    "time": 265.3275198750147,
                    "velocity": 0.6850393700787402,
                    "duration": 0.10344824999998536
                },
                {
                    "name": "A4",
                    "midi": 69,
                    "time": 265.43096812501466,
                    "velocity": 0.7165354330708661,
                    "duration": 0.10344824999998536
                },
                {
                    "name": "C5",
                    "midi": 72,
                    "time": 265.53441637501464,
                    "velocity": 0.6850393700787402,
                    "duration": 0.10344824999998536
                },
                {
                    "name": "F5",
                    "midi": 77,
                    "time": 265.63786462501463,
                    "velocity": 0.7007874015748031,
                    "duration": 0.10344824999998536
                },
                {
                    "name": "A4",
                    "midi": 69,
                    "time": 265.7413128750146,
                    "velocity": 0.7716535433070866,
                    "duration": 0.10344824999998536
                },
                {
                    "name": "C5",
                    "midi": 72,
                    "time": 265.8447611250146,
                    "velocity": 0.7086614173228346,
                    "duration": 0.10344824999998536
                },
                {
                    "name": "F5",
                    "midi": 77,
                    "time": 265.9482093750146,
                    "velocity": 0.7637795275590551,
                    "duration": 0.10344824999998536
                },
                {
                    "name": "A5",
                    "midi": 81,
                    "time": 266.05165762501457,
                    "velocity": 0.8267716535433071,
                    "duration": 0.10344824999998536
                },
                {
                    "name": "C6",
                    "midi": 84,
                    "time": 266.15510587501456,
                    "velocity": 0.7322834645669292,
                    "duration": 0.10344824999998536
                },
                {
                    "name": "A5",
                    "midi": 81,
                    "time": 266.25855412501454,
                    "velocity": 0.8346456692913385,
                    "duration": 0.10344824999998536
                },
                {
                    "name": "C6",
                    "midi": 84,
                    "time": 266.3620023750145,
                    "velocity": 0.7322834645669292,
                    "duration": 0.10344824999998536
                },
                {
                    "name": "D#6",
                    "midi": 87,
                    "time": 266.4654506250145,
                    "velocity": 0.8346456692913385,
                    "duration": 0.10344824999998536
                },
                {
                    "name": "C6",
                    "midi": 84,
                    "time": 266.5688988750145,
                    "velocity": 0.8503937007874016,
                    "duration": 0.10344824999998536
                },
                {
                    "name": "A5",
                    "midi": 81,
                    "time": 266.6723471250145,
                    "velocity": 0.8346456692913385,
                    "duration": 0.10344824999998536
                },
                {
                    "name": "F#5",
                    "midi": 78,
                    "time": 266.77579537501447,
                    "velocity": 0.8582677165354331,
                    "duration": 0.10344824999998536
                },
                {
                    "name": "G5",
                    "midi": 79,
                    "time": 266.87924362501445,
                    "velocity": 0.8031496062992126,
                    "duration": 0.10344824999998536
                },
                {
                    "name": "E6",
                    "midi": 88,
                    "time": 266.98269187501444,
                    "velocity": 0.8661417322834646,
                    "duration": 0.10344824999998536
                },
                {
                    "name": "D6",
                    "midi": 86,
                    "time": 267.0861401250144,
                    "velocity": 0.8818897637795275,
                    "duration": 0.10344824999998536
                },
                {
                    "name": "C6",
                    "midi": 84,
                    "time": 267.1895883750144,
                    "velocity": 0.7952755905511811,
                    "duration": 0.10344824999998536
                },
                {
                    "name": "B5",
                    "midi": 83,
                    "time": 267.2930366250144,
                    "velocity": 0.8346456692913385,
                    "duration": 0.10344824999998536
                },
                {
                    "name": "D6",
                    "midi": 86,
                    "time": 267.3964848750144,
                    "velocity": 0.9133858267716536,
                    "duration": 0.10344824999998536
                },
                {
                    "name": "C6",
                    "midi": 84,
                    "time": 267.49993312501437,
                    "velocity": 0.8976377952755905,
                    "duration": 0.10344824999998536
                },
                {
                    "name": "A5",
                    "midi": 81,
                    "time": 267.60338137501435,
                    "velocity": 0.905511811023622,
                    "duration": 0.10344824999998536
                },
                {
                    "name": "G5",
                    "midi": 79,
                    "time": 267.70682962501434,
                    "velocity": 0.8818897637795275,
                    "duration": 0.10344824999998536
                },
                {
                    "name": "F#5",
                    "midi": 78,
                    "time": 267.8102778750143,
                    "velocity": 0.9212598425196851,
                    "duration": 0.10344824999998536
                },
                {
                    "name": "A5",
                    "midi": 81,
                    "time": 267.9137261250143,
                    "velocity": 0.8661417322834646,
                    "duration": 0.10344824999998536
                },
                {
                    "name": "G5",
                    "midi": 79,
                    "time": 268.0171743750143,
                    "velocity": 0.8818897637795275,
                    "duration": 0.10344824999998536
                },
                {
                    "name": "F5",
                    "midi": 77,
                    "time": 268.1206226250143,
                    "velocity": 0.8976377952755905,
                    "duration": 0.10344824999998536
                },
                {
                    "name": "E5",
                    "midi": 76,
                    "time": 268.22407087501426,
                    "velocity": 0.8740157480314961,
                    "duration": 0.10344824999998536
                },
                {
                    "name": "F5",
                    "midi": 77,
                    "time": 268.32751912501425,
                    "velocity": 0.905511811023622,
                    "duration": 0.10344824999998536
                },
                {
                    "name": "D5",
                    "midi": 74,
                    "time": 268.43096737501423,
                    "velocity": 0.889763779527559,
                    "duration": 0.10344824999998536
                },
                {
                    "name": "C5",
                    "midi": 72,
                    "time": 268.5344156250142,
                    "velocity": 0.3937007874015748,
                    "duration": 0.10344824999998536
                },
                {
                    "name": "D#5",
                    "midi": 75,
                    "time": 268.6378638750142,
                    "velocity": 0.36220472440944884,
                    "duration": 0.10344824999998536
                },
                {
                    "name": "D5",
                    "midi": 74,
                    "time": 268.7413121250142,
                    "velocity": 0.3937007874015748,
                    "duration": 0.10344824999998536
                },
                {
                    "name": "D#5",
                    "midi": 75,
                    "time": 268.8447603750142,
                    "velocity": 0.4094488188976378,
                    "duration": 0.10344824999998536
                },
                {
                    "name": "F5",
                    "midi": 77,
                    "time": 268.94820862501416,
                    "velocity": 0.4015748031496063,
                    "duration": 0.10344824999998536
                },
                {
                    "name": "D#5",
                    "midi": 75,
                    "time": 269.05165687501415,
                    "velocity": 0.4251968503937008,
                    "duration": 0.10344824999998536
                },
                {
                    "name": "D5",
                    "midi": 74,
                    "time": 269.15510512501413,
                    "velocity": 0.3937007874015748,
                    "duration": 0.10344824999998536
                },
                {
                    "name": "D#5",
                    "midi": 75,
                    "time": 269.2585533750141,
                    "velocity": 0.4409448818897638,
                    "duration": 0.10344824999998536
                },
                {
                    "name": "G#5",
                    "midi": 80,
                    "time": 269.3620016250141,
                    "velocity": 0.33858267716535434,
                    "duration": 0.10344824999998536
                },
                {
                    "name": "D#5",
                    "midi": 75,
                    "time": 269.4654498750141,
                    "velocity": 0.33858267716535434,
                    "duration": 0.10344824999998536
                },
                {
                    "name": "D5",
                    "midi": 74,
                    "time": 269.5688981250141,
                    "velocity": 0.3779527559055118,
                    "duration": 0.10344824999998536
                },
                {
                    "name": "D#5",
                    "midi": 75,
                    "time": 269.67234637501406,
                    "velocity": 0.3937007874015748,
                    "duration": 0.10344824999998536
                },
                {
                    "name": "C6",
                    "midi": 84,
                    "time": 269.77579462501404,
                    "velocity": 0.4015748031496063,
                    "duration": 0.10344824999998536
                },
                {
                    "name": "D#5",
                    "midi": 75,
                    "time": 269.87924287501403,
                    "velocity": 0.36220472440944884,
                    "duration": 0.10344824999998536
                },
                {
                    "name": "D5",
                    "midi": 74,
                    "time": 269.982691125014,
                    "velocity": 0.4094488188976378,
                    "duration": 0.10344824999998536
                },
                {
                    "name": "D#5",
                    "midi": 75,
                    "time": 270.086139375014,
                    "velocity": 0.41732283464566927,
                    "duration": 0.10344824999998536
                },
                {
                    "name": "C#6",
                    "midi": 85,
                    "time": 270.189587625014,
                    "velocity": 0.4330708661417323,
                    "duration": 0.10344824999998536
                },
                {
                    "name": "D#6",
                    "midi": 87,
                    "time": 270.29303587501397,
                    "velocity": 0.4094488188976378,
                    "duration": 0.10344824999998536
                },
                {
                    "name": "C6",
                    "midi": 84,
                    "time": 270.39648412501396,
                    "velocity": 0.44881889763779526,
                    "duration": 0.10344824999998536
                },
                {
                    "name": "C#6",
                    "midi": 85,
                    "time": 270.49993237501394,
                    "velocity": 0.3858267716535433,
                    "duration": 0.10344824999998536
                },
                {
                    "name": "A#5",
                    "midi": 82,
                    "time": 270.6033806250139,
                    "velocity": 0.4330708661417323,
                    "duration": 0.10344824999998536
                },
                {
                    "name": "C6",
                    "midi": 84,
                    "time": 270.7068288750139,
                    "velocity": 0.3937007874015748,
                    "duration": 0.10344824999998536
                },
                {
                    "name": "G#5",
                    "midi": 80,
                    "time": 270.8102771250139,
                    "velocity": 0.33858267716535434,
                    "duration": 0.10344824999998536
                },
                {
                    "name": "A#5",
                    "midi": 82,
                    "time": 270.9137253750139,
                    "velocity": 0.3464566929133858,
                    "duration": 0.10344824999998536
                },
                {
                    "name": "G5",
                    "midi": 79,
                    "time": 271.01717362501387,
                    "velocity": 0.4251968503937008,
                    "duration": 0.10344824999998536
                },
                {
                    "name": "G#5",
                    "midi": 80,
                    "time": 271.12062187501385,
                    "velocity": 0.4094488188976378,
                    "duration": 0.10344824999998536
                },
                {
                    "name": "A#5",
                    "midi": 82,
                    "time": 271.22407012501384,
                    "velocity": 0.4015748031496063,
                    "duration": 0.10344824999998536
                },
                {
                    "name": "G#5",
                    "midi": 80,
                    "time": 271.3275183750138,
                    "velocity": 0.3937007874015748,
                    "duration": 0.10344824999998536
                },
                {
                    "name": "G5",
                    "midi": 79,
                    "time": 271.4309666250138,
                    "velocity": 0.44881889763779526,
                    "duration": 0.10344824999998536
                },
                {
                    "name": "F5",
                    "midi": 77,
                    "time": 271.5344148750138,
                    "velocity": 0.3464566929133858,
                    "duration": 0.10344824999998536
                },
                {
                    "name": "D#5",
                    "midi": 75,
                    "time": 271.6378631250138,
                    "velocity": 0.3858267716535433,
                    "duration": 0.10344824999998536
                },
                {
                    "name": "C#5",
                    "midi": 73,
                    "time": 271.74131137501377,
                    "velocity": 0.4251968503937008,
                    "duration": 0.10344824999998536
                },
                {
                    "name": "C5",
                    "midi": 72,
                    "time": 271.84475962501375,
                    "velocity": 0.3779527559055118,
                    "duration": 0.10344824999998536
                },
                {
                    "name": "G#4",
                    "midi": 68,
                    "time": 271.94820787501374,
                    "velocity": 0.4566929133858268,
                    "duration": 0.10344824999998536
                },
                {
                    "name": "A#4",
                    "midi": 70,
                    "time": 272.0516561250137,
                    "velocity": 0.47244094488188976,
                    "duration": 0.10344824999998536
                },
                {
                    "name": "C5",
                    "midi": 72,
                    "time": 272.1551043750137,
                    "velocity": 0.4409448818897638,
                    "duration": 0.10344824999998536
                },
                {
                    "name": "C#5",
                    "midi": 73,
                    "time": 272.2585526250137,
                    "velocity": 0.47244094488188976,
                    "duration": 0.10344824999998536
                },
                {
                    "name": "D#5",
                    "midi": 75,
                    "time": 272.3620008750137,
                    "velocity": 0.5118110236220472,
                    "duration": 0.10344824999998536
                },
                {
                    "name": "F5",
                    "midi": 77,
                    "time": 272.46544912501366,
                    "velocity": 0.5511811023622047,
                    "duration": 0.10344824999998536
                },
                {
                    "name": "G5",
                    "midi": 79,
                    "time": 272.56889737501365,
                    "velocity": 0.4566929133858268,
                    "duration": 0.10344824999998536
                },
                {
                    "name": "G#5",
                    "midi": 80,
                    "time": 272.67234562501363,
                    "velocity": 0.5196850393700787,
                    "duration": 0.10344824999998536
                },
                {
                    "name": "A#5",
                    "midi": 82,
                    "time": 272.7757938750136,
                    "velocity": 0.5590551181102362,
                    "duration": 0.10344824999998536
                },
                {
                    "name": "C6",
                    "midi": 84,
                    "time": 272.8792421250136,
                    "velocity": 0.5196850393700787,
                    "duration": 0.10344824999998536
                },
                {
                    "name": "D6",
                    "midi": 86,
                    "time": 272.9826903750136,
                    "velocity": 0.5433070866141733,
                    "duration": 0.10344824999998536
                },
                {
                    "name": "D#6",
                    "midi": 87,
                    "time": 273.0861386250136,
                    "velocity": 0.5905511811023622,
                    "duration": 0.10344824999998536
                },
                {
                    "name": "C6",
                    "midi": 84,
                    "time": 273.18958687501356,
                    "velocity": 0.5511811023622047,
                    "duration": 0.10344824999998536
                },
                {
                    "name": "G#5",
                    "midi": 80,
                    "time": 273.29303512501355,
                    "velocity": 0.6456692913385826,
                    "duration": 0.10344824999998536
                },
                {
                    "name": "F#5",
                    "midi": 78,
                    "time": 273.39648337501353,
                    "velocity": 0.6692913385826772,
                    "duration": 0.10344824999998536
                },
                {
                    "name": "G5",
                    "midi": 79,
                    "time": 273.4999316250135,
                    "velocity": 0.6771653543307087,
                    "duration": 0.10344824999998536
                },
                {
                    "name": "F#5",
                    "midi": 78,
                    "time": 273.6033798750135,
                    "velocity": 0.6062992125984252,
                    "duration": 0.10344824999998536
                },
                {
                    "name": "A5",
                    "midi": 81,
                    "time": 273.7068281250135,
                    "velocity": 0.6929133858267716,
                    "duration": 0.10344824999998536
                },
                {
                    "name": "G5",
                    "midi": 79,
                    "time": 273.8102763750135,
                    "velocity": 0.7007874015748031,
                    "duration": 0.10344824999998536
                },
                {
                    "name": "F5",
                    "midi": 77,
                    "time": 273.91372462501346,
                    "velocity": 0.6929133858267716,
                    "duration": 0.10344824999998536
                },
                {
                    "name": "E5",
                    "midi": 76,
                    "time": 274.01717287501344,
                    "velocity": 0.6929133858267716,
                    "duration": 0.10344824999998536
                },
                {
                    "name": "D5",
                    "midi": 74,
                    "time": 274.12062112501343,
                    "velocity": 0.7401574803149606,
                    "duration": 0.10344824999998536
                },
                {
                    "name": "C5",
                    "midi": 72,
                    "time": 274.2240693750134,
                    "velocity": 0.7007874015748031,
                    "duration": 0.10344824999998536
                },
                {
                    "name": "B4",
                    "midi": 71,
                    "time": 274.3275176250134,
                    "velocity": 0.7716535433070866,
                    "duration": 0.10344824999998536
                },
                {
                    "name": "A4",
                    "midi": 69,
                    "time": 274.4309658750134,
                    "velocity": 0.8188976377952756,
                    "duration": 0.10344824999998536
                },
                {
                    "name": "G4",
                    "midi": 67,
                    "time": 274.53441412501337,
                    "velocity": 0.8188976377952756,
                    "duration": 0.10344824999998536
                },
                {
                    "name": "F4",
                    "midi": 65,
                    "time": 274.63786237501336,
                    "velocity": 0.7795275590551181,
                    "duration": 0.10344824999998536
                },
                {
                    "name": "E4",
                    "midi": 64,
                    "time": 274.74131062501334,
                    "velocity": 0.8740157480314961,
                    "duration": 0.10344824999998536
                },
                {
                    "name": "D4",
                    "midi": 62,
                    "time": 274.8447588750133,
                    "velocity": 0.8188976377952756,
                    "duration": 0.10344824999998536
                },
                {
                    "name": "C4",
                    "midi": 60,
                    "time": 274.9482071250133,
                    "velocity": 0.84251968503937,
                    "duration": 0.10344824999998536
                },
                {
                    "name": "B3",
                    "midi": 59,
                    "time": 275.0516553750133,
                    "velocity": 0.8740157480314961,
                    "duration": 0.10344824999998536
                },
                {
                    "name": "C4",
                    "midi": 60,
                    "time": 275.1551036250133,
                    "velocity": 0.31496062992125984,
                    "duration": 0.10344824999998536
                },
                {
                    "name": "D#4",
                    "midi": 63,
                    "time": 275.25855187501327,
                    "velocity": 0.29133858267716534,
                    "duration": 0.10344824999998536
                },
                {
                    "name": "D4",
                    "midi": 62,
                    "time": 275.36200012501325,
                    "velocity": 0.30708661417322836,
                    "duration": 0.10344824999998536
                },
                {
                    "name": "D#4",
                    "midi": 63,
                    "time": 275.46544837501324,
                    "velocity": 0.29133858267716534,
                    "duration": 0.10344824999998536
                },
                {
                    "name": "F4",
                    "midi": 65,
                    "time": 275.5688966250132,
                    "velocity": 0.3700787401574803,
                    "duration": 0.10344824999998536
                },
                {
                    "name": "D#4",
                    "midi": 63,
                    "time": 275.6723448750132,
                    "velocity": 0.3700787401574803,
                    "duration": 0.10344824999998536
                },
                {
                    "name": "D4",
                    "midi": 62,
                    "time": 275.7757931250132,
                    "velocity": 0.3543307086614173,
                    "duration": 0.10344824999998536
                },
                {
                    "name": "D#4",
                    "midi": 63,
                    "time": 275.8792413750132,
                    "velocity": 0.25984251968503935,
                    "duration": 0.10344824999998536
                },
                {
                    "name": "G#4",
                    "midi": 68,
                    "time": 275.98268962501317,
                    "velocity": 0.3543307086614173,
                    "duration": 0.10344824999998536
                },
                {
                    "name": "D#4",
                    "midi": 63,
                    "time": 276.08613787501315,
                    "velocity": 0.2992125984251969,
                    "duration": 0.10344824999998536
                },
                {
                    "name": "D4",
                    "midi": 62,
                    "time": 276.18958612501314,
                    "velocity": 0.28346456692913385,
                    "duration": 0.10344824999998536
                },
                {
                    "name": "D#4",
                    "midi": 63,
                    "time": 276.2930343750131,
                    "velocity": 0.29133858267716534,
                    "duration": 0.10344824999998536
                },
                {
                    "name": "C5",
                    "midi": 72,
                    "time": 276.3964826250131,
                    "velocity": 0.2755905511811024,
                    "duration": 0.10344824999998536
                },
                {
                    "name": "D#4",
                    "midi": 63,
                    "time": 276.4999308750131,
                    "velocity": 0.31496062992125984,
                    "duration": 0.10344824999998536
                },
                {
                    "name": "D4",
                    "midi": 62,
                    "time": 276.6033791250131,
                    "velocity": 0.36220472440944884,
                    "duration": 0.10344824999998536
                },
                {
                    "name": "D#4",
                    "midi": 63,
                    "time": 276.70682737501306,
                    "velocity": 0.2755905511811024,
                    "duration": 0.10344824999998536
                },
                {
                    "name": "C#5",
                    "midi": 73,
                    "time": 276.81027562501305,
                    "velocity": 0.33070866141732286,
                    "duration": 0.10344824999998536
                },
                {
                    "name": "D#5",
                    "midi": 75,
                    "time": 276.91372387501303,
                    "velocity": 0.3228346456692913,
                    "duration": 0.10344824999998536
                },
                {
                    "name": "C5",
                    "midi": 72,
                    "time": 277.017172125013,
                    "velocity": 0.30708661417322836,
                    "duration": 0.10344824999998536
                },
                {
                    "name": "C#5",
                    "midi": 73,
                    "time": 277.120620375013,
                    "velocity": 0.31496062992125984,
                    "duration": 0.10344824999998536
                },
                {
                    "name": "A#4",
                    "midi": 70,
                    "time": 277.224068625013,
                    "velocity": 0.30708661417322836,
                    "duration": 0.10344824999998536
                },
                {
                    "name": "C5",
                    "midi": 72,
                    "time": 277.327516875013,
                    "velocity": 0.33858267716535434,
                    "duration": 0.10344824999998536
                },
                {
                    "name": "G#4",
                    "midi": 68,
                    "time": 277.43096512501296,
                    "velocity": 0.3464566929133858,
                    "duration": 0.10344824999998536
                },
                {
                    "name": "A#4",
                    "midi": 70,
                    "time": 277.53441337501295,
                    "velocity": 0.31496062992125984,
                    "duration": 0.10344824999998536
                },
                {
                    "name": "G4",
                    "midi": 67,
                    "time": 277.63786162501293,
                    "velocity": 0.33070866141732286,
                    "duration": 0.10344824999998536
                },
                {
                    "name": "G#4",
                    "midi": 68,
                    "time": 277.7413098750129,
                    "velocity": 0.3464566929133858,
                    "duration": 0.10344824999998536
                },
                {
                    "name": "A#4",
                    "midi": 70,
                    "time": 277.8447581250129,
                    "velocity": 0.3543307086614173,
                    "duration": 0.10344824999998536
                },
                {
                    "name": "G#4",
                    "midi": 68,
                    "time": 277.9482063750129,
                    "velocity": 0.29133858267716534,
                    "duration": 0.10344824999998536
                },
                {
                    "name": "G4",
                    "midi": 67,
                    "time": 278.0516546250129,
                    "velocity": 0.2677165354330709,
                    "duration": 0.10344824999998536
                },
                {
                    "name": "F4",
                    "midi": 65,
                    "time": 278.15510287501286,
                    "velocity": 0.33070866141732286,
                    "duration": 0.10344824999998536
                },
                {
                    "name": "D#4",
                    "midi": 63,
                    "time": 278.25855112501284,
                    "velocity": 0.36220472440944884,
                    "duration": 0.10344824999998536
                },
                {
                    "name": "C#4",
                    "midi": 61,
                    "time": 278.36199937501283,
                    "velocity": 0.36220472440944884,
                    "duration": 0.10344824999998536
                },
                {
                    "name": "C4",
                    "midi": 60,
                    "time": 278.4654476250128,
                    "velocity": 0.2755905511811024,
                    "duration": 0.10344824999998536
                },
                {
                    "name": "G#3",
                    "midi": 56,
                    "time": 278.5688958750128,
                    "velocity": 0.33858267716535434,
                    "duration": 0.10344824999998536
                },
                {
                    "name": "A#3",
                    "midi": 58,
                    "time": 278.6723441250128,
                    "velocity": 0.36220472440944884,
                    "duration": 0.10344824999998536
                },
                {
                    "name": "C4",
                    "midi": 60,
                    "time": 278.77579237501277,
                    "velocity": 0.3228346456692913,
                    "duration": 0.10344824999998536
                },
                {
                    "name": "C#4",
                    "midi": 61,
                    "time": 278.87924062501276,
                    "velocity": 0.2992125984251969,
                    "duration": 0.10344824999998536
                },
                {
                    "name": "D#4",
                    "midi": 63,
                    "time": 278.98268887501274,
                    "velocity": 0.2992125984251969,
                    "duration": 0.10344824999998536
                },
                {
                    "name": "F4",
                    "midi": 65,
                    "time": 279.0861371250127,
                    "velocity": 0.28346456692913385,
                    "duration": 0.10344824999998536
                },
                {
                    "name": "G4",
                    "midi": 67,
                    "time": 279.1895853750127,
                    "velocity": 0.2677165354330709,
                    "duration": 0.10344824999998536
                },
                {
                    "name": "G#4",
                    "midi": 68,
                    "time": 279.2930336250127,
                    "velocity": 0.28346456692913385,
                    "duration": 0.10344824999998536
                },
                {
                    "name": "A#4",
                    "midi": 70,
                    "time": 279.3964818750127,
                    "velocity": 0.4015748031496063,
                    "duration": 0.10344824999998536
                },
                {
                    "name": "C5",
                    "midi": 72,
                    "time": 279.49993012501267,
                    "velocity": 0.3228346456692913,
                    "duration": 0.10344824999998536
                },
                {
                    "name": "D5",
                    "midi": 74,
                    "time": 279.60337837501265,
                    "velocity": 0.36220472440944884,
                    "duration": 0.10344824999998536
                },
                {
                    "name": "D#5",
                    "midi": 75,
                    "time": 279.70682662501264,
                    "velocity": 0.36220472440944884,
                    "duration": 0.10344824999998536
                },
                {
                    "name": "C5",
                    "midi": 72,
                    "time": 279.8102748750126,
                    "velocity": 0.4094488188976378,
                    "duration": 0.10344824999998536
                },
                {
                    "name": "A4",
                    "midi": 69,
                    "time": 279.9137231250126,
                    "velocity": 0.3700787401574803,
                    "duration": 0.10344824999998536
                },
                {
                    "name": "F#4",
                    "midi": 66,
                    "time": 280.0171713750126,
                    "velocity": 0.4330708661417323,
                    "duration": 0.10344824999998536
                },
                {
                    "name": "G4",
                    "midi": 67,
                    "time": 280.1206196250126,
                    "velocity": 0.47244094488188976,
                    "duration": 0.10344824999998536
                },
                {
                    "name": "C5",
                    "midi": 72,
                    "time": 280.22406787501257,
                    "velocity": 0.48031496062992124,
                    "duration": 0.10344824999998536
                },
                {
                    "name": "E5",
                    "midi": 76,
                    "time": 280.32751612501255,
                    "velocity": 0.5196850393700787,
                    "duration": 0.10344824999998536
                },
                {
                    "name": "G5",
                    "midi": 79,
                    "time": 280.43096437501254,
                    "velocity": 0.4881889763779528,
                    "duration": 0.10344824999998536
                },
                {
                    "name": "F#5",
                    "midi": 78,
                    "time": 280.5344126250125,
                    "velocity": 0.4881889763779528,
                    "duration": 0.10344824999998536
                },
                {
                    "name": "G5",
                    "midi": 79,
                    "time": 280.6378608750125,
                    "velocity": 0.5826771653543307,
                    "duration": 0.10344824999998536
                },
                {
                    "name": "F5",
                    "midi": 77,
                    "time": 280.7413091250125,
                    "velocity": 0.5748031496062992,
                    "duration": 0.10344824999998536
                },
                {
                    "name": "E5",
                    "midi": 76,
                    "time": 280.8447573750125,
                    "velocity": 0.5511811023622047,
                    "duration": 0.10344824999998536
                },
                {
                    "name": "D5",
                    "midi": 74,
                    "time": 280.94820562501246,
                    "velocity": 0.6141732283464567,
                    "duration": 0.10344824999998536
                },
                {
                    "name": "C5",
                    "midi": 72,
                    "time": 281.05165387501245,
                    "velocity": 0.5748031496062992,
                    "duration": 0.10344824999998536
                },
                {
                    "name": "B4",
                    "midi": 71,
                    "time": 281.15510212501243,
                    "velocity": 0.5826771653543307,
                    "duration": 0.10344824999998536
                },
                {
                    "name": "A4",
                    "midi": 69,
                    "time": 281.2585503750124,
                    "velocity": 0.6929133858267716,
                    "duration": 0.10344824999998536
                },
                {
                    "name": "G4",
                    "midi": 67,
                    "time": 281.3619986250124,
                    "velocity": 0.6535433070866141,
                    "duration": 0.10344824999998536
                },
                {
                    "name": "F4",
                    "midi": 65,
                    "time": 281.4654468750124,
                    "velocity": 0.6220472440944882,
                    "duration": 0.10344824999998536
                },
                {
                    "name": "E4",
                    "midi": 64,
                    "time": 281.5688951250124,
                    "velocity": 0.6850393700787402,
                    "duration": 0.10344824999998536
                },
                {
                    "name": "D4",
                    "midi": 62,
                    "time": 281.67234337501236,
                    "velocity": 0.6692913385826772,
                    "duration": 0.10344824999998536
                },
                {
                    "name": "C4",
                    "midi": 60,
                    "time": 281.77579162501235,
                    "velocity": 0.7086614173228346,
                    "duration": 0.10344824999998536
                },
                {
                    "name": "E5",
                    "midi": 76,
                    "time": 281.87923987501233,
                    "velocity": 0.7165354330708661,
                    "duration": 0.10344824999998536
                },
                {
                    "name": "E6",
                    "midi": 88,
                    "time": 281.9826881250123,
                    "velocity": 0.6929133858267716,
                    "duration": 0.10344824999998536
                },
                {
                    "name": "D6",
                    "midi": 86,
                    "time": 282.0861363750123,
                    "velocity": 0.8188976377952756,
                    "duration": 0.10344824999998536
                },
                {
                    "name": "C#6",
                    "midi": 85,
                    "time": 282.1895846250123,
                    "velocity": 0.7480314960629921,
                    "duration": 0.10344824999998536
                },
                {
                    "name": "A5",
                    "midi": 81,
                    "time": 282.2930328750123,
                    "velocity": 0.8503937007874016,
                    "duration": 0.10344824999998536
                },
                {
                    "name": "B5",
                    "midi": 83,
                    "time": 282.39648112501226,
                    "velocity": 0.8582677165354331,
                    "duration": 0.10344824999998536
                },
                {
                    "name": "C#6",
                    "midi": 85,
                    "time": 282.49992937501224,
                    "velocity": 0.84251968503937,
                    "duration": 0.10344824999998536
                },
                {
                    "name": "D6",
                    "midi": 86,
                    "time": 282.60337762501223,
                    "velocity": 0.8740157480314961,
                    "duration": 0.10344824999998536
                },
                {
                    "name": "F6",
                    "midi": 89,
                    "time": 282.7068258750122,
                    "velocity": 0.8110236220472441,
                    "duration": 0.10344824999998536
                },
                {
                    "name": "D6",
                    "midi": 86,
                    "time": 282.8102741250122,
                    "velocity": 0.8582677165354331,
                    "duration": 0.10344824999998536
                },
                {
                    "name": "C6",
                    "midi": 84,
                    "time": 282.9137223750122,
                    "velocity": 0.8503937007874016,
                    "duration": 0.10344824999998536
                },
                {
                    "name": "B5",
                    "midi": 83,
                    "time": 283.01717062501217,
                    "velocity": 0.905511811023622,
                    "duration": 0.10344824999998536
                },
                {
                    "name": "G5",
                    "midi": 79,
                    "time": 283.12061887501216,
                    "velocity": 0.905511811023622,
                    "duration": 0.10344824999998536
                },
                {
                    "name": "A5",
                    "midi": 81,
                    "time": 283.22406712501214,
                    "velocity": 0.8188976377952756,
                    "duration": 0.10344824999998536
                },
                {
                    "name": "B5",
                    "midi": 83,
                    "time": 283.3275153750121,
                    "velocity": 0.8188976377952756,
                    "duration": 0.10344824999998536
                },
                {
                    "name": "C6",
                    "midi": 84,
                    "time": 283.4309636250121,
                    "velocity": 0.8188976377952756,
                    "duration": 0.10344824999998536
                },
                {
                    "name": "E6",
                    "midi": 88,
                    "time": 283.5344118750121,
                    "velocity": 0.8740157480314961,
                    "duration": 0.10344824999998536
                },
                {
                    "name": "C6",
                    "midi": 84,
                    "time": 283.6378601250121,
                    "velocity": 0.8110236220472441,
                    "duration": 0.10344824999998536
                },
                {
                    "name": "B5",
                    "midi": 83,
                    "time": 283.74130837501207,
                    "velocity": 0.9133858267716536,
                    "duration": 0.10344824999998536
                },
                {
                    "name": "A5",
                    "midi": 81,
                    "time": 283.84475662501205,
                    "velocity": 0.905511811023622,
                    "duration": 0.10344824999998536
                },
                {
                    "name": "F5",
                    "midi": 77,
                    "time": 283.94820487501204,
                    "velocity": 0.8110236220472441,
                    "duration": 0.10344824999998536
                },
                {
                    "name": "G5",
                    "midi": 79,
                    "time": 284.051653125012,
                    "velocity": 0.84251968503937,
                    "duration": 0.10344824999998536
                },
                {
                    "name": "A5",
                    "midi": 81,
                    "time": 284.155101375012,
                    "velocity": 0.9212598425196851,
                    "duration": 0.10344824999998536
                },
                {
                    "name": "B5",
                    "midi": 83,
                    "time": 284.258549625012,
                    "velocity": 0.8582677165354331,
                    "duration": 0.10344824999998536
                },
                {
                    "name": "D6",
                    "midi": 86,
                    "time": 284.361997875012,
                    "velocity": 0.9212598425196851,
                    "duration": 0.10344824999998536
                },
                {
                    "name": "B5",
                    "midi": 83,
                    "time": 284.46544612501197,
                    "velocity": 0.8661417322834646,
                    "duration": 0.10344824999998536
                },
                {
                    "name": "A5",
                    "midi": 81,
                    "time": 284.56889437501195,
                    "velocity": 0.9212598425196851,
                    "duration": 0.10344824999998536
                },
                {
                    "name": "G#5",
                    "midi": 80,
                    "time": 284.67234262501194,
                    "velocity": 0.889763779527559,
                    "duration": 0.10344824999998536
                },
                {
                    "name": "E5",
                    "midi": 76,
                    "time": 284.7757908750119,
                    "velocity": 0.84251968503937,
                    "duration": 0.10344824999998536
                },
                {
                    "name": "F#5",
                    "midi": 78,
                    "time": 284.8792391250119,
                    "velocity": 0.84251968503937,
                    "duration": 0.10344824999998536
                },
                {
                    "name": "G#5",
                    "midi": 80,
                    "time": 284.9826873750119,
                    "velocity": 0.8661417322834646,
                    "duration": 0.10344824999998536
                },
                {
                    "name": "A5",
                    "midi": 81,
                    "time": 285.0861356250119,
                    "velocity": 0.8661417322834646,
                    "duration": 0.10344824999998536
                },
                {
                    "name": "C6",
                    "midi": 84,
                    "time": 285.18958387501186,
                    "velocity": 0.8976377952755905,
                    "duration": 0.10344824999998536
                },
                {
                    "name": "A5",
                    "midi": 81,
                    "time": 285.29303212501185,
                    "velocity": 0.8582677165354331,
                    "duration": 0.10344824999998536
                },
                {
                    "name": "G5",
                    "midi": 79,
                    "time": 285.39648037501183,
                    "velocity": 0.8976377952755905,
                    "duration": 0.10344824999998536
                },
                {
                    "name": "F#5",
                    "midi": 78,
                    "time": 285.4999286250118,
                    "velocity": 0.889763779527559,
                    "duration": 0.10344824999998536
                },
                {
                    "name": "D5",
                    "midi": 74,
                    "time": 285.6033768750118,
                    "velocity": 0.8582677165354331,
                    "duration": 0.10344824999998536
                },
                {
                    "name": "E5",
                    "midi": 76,
                    "time": 285.7068251250118,
                    "velocity": 0.8346456692913385,
                    "duration": 0.10344824999998536
                },
                {
                    "name": "F#5",
                    "midi": 78,
                    "time": 285.8102733750118,
                    "velocity": 0.8503937007874016,
                    "duration": 0.10344824999998536
                },
                {
                    "name": "G5",
                    "midi": 79,
                    "time": 285.91372162501176,
                    "velocity": 0.8110236220472441,
                    "duration": 0.10344824999998536
                },
                {
                    "name": "A5",
                    "midi": 81,
                    "time": 286.01716987501175,
                    "velocity": 0.889763779527559,
                    "duration": 0.10344824999998536
                },
                {
                    "name": "B5",
                    "midi": 83,
                    "time": 286.12061812501173,
                    "velocity": 0.905511811023622,
                    "duration": 0.10344824999998536
                },
                {
                    "name": "C6",
                    "midi": 84,
                    "time": 286.2240663750117,
                    "velocity": 0.8110236220472441,
                    "duration": 0.10344824999998536
                },
                {
                    "name": "D6",
                    "midi": 86,
                    "time": 286.3275146250117,
                    "velocity": 0.8346456692913385,
                    "duration": 0.10344824999998536
                },
                {
                    "name": "E6",
                    "midi": 88,
                    "time": 286.4309628750117,
                    "velocity": 0.84251968503937,
                    "duration": 0.10344824999998536
                },
                {
                    "name": "F6",
                    "midi": 89,
                    "time": 286.5344111250117,
                    "velocity": 0.8661417322834646,
                    "duration": 0.10344824999998536
                },
                {
                    "name": "D6",
                    "midi": 86,
                    "time": 286.63785937501166,
                    "velocity": 0.84251968503937,
                    "duration": 0.10344824999998536
                },
                {
                    "name": "F6",
                    "midi": 89,
                    "time": 286.74130762501164,
                    "velocity": 0.8818897637795275,
                    "duration": 0.10344824999998536
                },
                {
                    "name": "E6",
                    "midi": 88,
                    "time": 286.84475587501163,
                    "velocity": 0.8661417322834646,
                    "duration": 0.10344824999998536
                },
                {
                    "name": "D6",
                    "midi": 86,
                    "time": 286.9482041250116,
                    "velocity": 0.8740157480314961,
                    "duration": 0.10344824999998536
                },
                {
                    "name": "C6",
                    "midi": 84,
                    "time": 287.0516523750116,
                    "velocity": 0.8582677165354331,
                    "duration": 0.10344824999998536
                },
                {
                    "name": "G#5",
                    "midi": 80,
                    "time": 287.1551006250116,
                    "velocity": 0.8188976377952756,
                    "duration": 0.10344824999998536
                },
                {
                    "name": "A5",
                    "midi": 81,
                    "time": 287.25854887501157,
                    "velocity": 0.8188976377952756,
                    "duration": 0.10344824999998536
                },
                {
                    "name": "F5",
                    "midi": 77,
                    "time": 287.36199712501156,
                    "velocity": 0.9212598425196851,
                    "duration": 0.10344824999998536
                },
                {
                    "name": "D5",
                    "midi": 74,
                    "time": 287.46544537501154,
                    "velocity": 0.9212598425196851,
                    "duration": 0.10344824999998536
                },
                {
                    "name": "A5",
                    "midi": 81,
                    "time": 287.5688936250115,
                    "velocity": 0.8110236220472441,
                    "duration": 0.10344824999998536
                },
                {
                    "name": "G5",
                    "midi": 79,
                    "time": 287.6723418750115,
                    "velocity": 0.8110236220472441,
                    "duration": 0.10344824999998536
                },
                {
                    "name": "E5",
                    "midi": 76,
                    "time": 287.7757901250115,
                    "velocity": 0.8267716535433071,
                    "duration": 0.10344824999998536
                },
                {
                    "name": "C5",
                    "midi": 72,
                    "time": 287.8792383750115,
                    "velocity": 0.9133858267716536,
                    "duration": 0.10344824999998536
                },
                {
                    "name": "G5",
                    "midi": 79,
                    "time": 287.98268662501147,
                    "velocity": 0.8582677165354331,
                    "duration": 0.10344824999998536
                },
                {
                    "name": "F5",
                    "midi": 77,
                    "time": 288.08613487501145,
                    "velocity": 0.9212598425196851,
                    "duration": 0.10344824999998536
                },
                {
                    "name": "D5",
                    "midi": 74,
                    "time": 288.18958312501144,
                    "velocity": 0.84251968503937,
                    "duration": 0.10344824999998536
                },
                {
                    "name": "B4",
                    "midi": 71,
                    "time": 288.2930313750114,
                    "velocity": 0.8818897637795275,
                    "duration": 0.10344824999998536
                },
                {
                    "name": "C5",
                    "midi": 72,
                    "time": 288.3964796250114,
                    "velocity": 0.8661417322834646,
                    "duration": 0.10344824999998536
                },
                {
                    "name": "G5",
                    "midi": 79,
                    "time": 288.4999278750114,
                    "velocity": 0.8503937007874016,
                    "duration": 0.10344824999998536
                },
                {
                    "name": "E5",
                    "midi": 76,
                    "time": 288.6033761250114,
                    "velocity": 0.8818897637795275,
                    "duration": 0.10344824999998536
                },
                {
                    "name": "D5",
                    "midi": 74,
                    "time": 288.70682437501137,
                    "velocity": 0.8976377952755905,
                    "duration": 0.10344824999998536
                },
                {
                    "name": "C#5",
                    "midi": 73,
                    "time": 288.81027262501135,
                    "velocity": 0.905511811023622,
                    "duration": 0.10344824999998536
                },
                {
                    "name": "A#5",
                    "midi": 82,
                    "time": 288.91372087501134,
                    "velocity": 0.8740157480314961,
                    "duration": 0.10344824999998536
                },
                {
                    "name": "A5",
                    "midi": 81,
                    "time": 289.0171691250113,
                    "velocity": 0.8346456692913385,
                    "duration": 0.10344824999998536
                },
                {
                    "name": "G5",
                    "midi": 79,
                    "time": 289.1206173750113,
                    "velocity": 0.8188976377952756,
                    "duration": 0.10344824999998536
                },
                {
                    "name": "F5",
                    "midi": 77,
                    "time": 289.2240656250113,
                    "velocity": 0.8740157480314961,
                    "duration": 0.10344824999998536
                },
                {
                    "name": "E5",
                    "midi": 76,
                    "time": 289.3275138750113,
                    "velocity": 0.889763779527559,
                    "duration": 0.10344824999998536
                },
                {
                    "name": "D5",
                    "midi": 74,
                    "time": 289.43096212501126,
                    "velocity": 0.8818897637795275,
                    "duration": 0.10344824999998536
                },
                {
                    "name": "C5",
                    "midi": 72,
                    "time": 289.53441037501125,
                    "velocity": 0.8503937007874016,
                    "duration": 0.10344824999998536
                },
                {
                    "name": "B4",
                    "midi": 71,
                    "time": 289.63785862501123,
                    "velocity": 0.8188976377952756,
                    "duration": 0.10344824999998536
                },
                {
                    "name": "A5",
                    "midi": 81,
                    "time": 289.7413068750112,
                    "velocity": 0.8503937007874016,
                    "duration": 0.10344824999998536
                },
                {
                    "name": "G5",
                    "midi": 79,
                    "time": 289.8447551250112,
                    "velocity": 0.8740157480314961,
                    "duration": 0.10344824999998536
                },
                {
                    "name": "F5",
                    "midi": 77,
                    "time": 289.9482033750112,
                    "velocity": 0.9133858267716536,
                    "duration": 0.10344824999998536
                },
                {
                    "name": "E5",
                    "midi": 76,
                    "time": 290.0516516250112,
                    "velocity": 0.8740157480314961,
                    "duration": 0.10344824999998536
                },
                {
                    "name": "D5",
                    "midi": 74,
                    "time": 290.15509987501116,
                    "velocity": 0.8110236220472441,
                    "duration": 0.10344824999998536
                },
                {
                    "name": "C5",
                    "midi": 72,
                    "time": 290.25854812501115,
                    "velocity": 0.889763779527559,
                    "duration": 0.10344824999998536
                },
                {
                    "name": "B4",
                    "midi": 71,
                    "time": 290.36199637501113,
                    "velocity": 0.889763779527559,
                    "duration": 0.10344824999998536
                },
                {
                    "name": "A4",
                    "midi": 69,
                    "time": 290.4654446250111,
                    "velocity": 0.8976377952755905,
                    "duration": 0.10344824999998536
                },
                {
                    "name": "G5",
                    "midi": 79,
                    "time": 290.5688928750111,
                    "velocity": 0.9212598425196851,
                    "duration": 0.10344824999998536
                },
                {
                    "name": "F5",
                    "midi": 77,
                    "time": 290.6723411250111,
                    "velocity": 0.9133858267716536,
                    "duration": 0.10344824999998536
                },
                {
                    "name": "E5",
                    "midi": 76,
                    "time": 290.7757893750111,
                    "velocity": 0.8267716535433071,
                    "duration": 0.10344824999998536
                },
                {
                    "name": "D5",
                    "midi": 74,
                    "time": 290.87923762501106,
                    "velocity": 0.8267716535433071,
                    "duration": 0.10344824999998536
                },
                {
                    "name": "C5",
                    "midi": 72,
                    "time": 290.98268587501104,
                    "velocity": 0.84251968503937,
                    "duration": 0.10344824999998536
                },
                {
                    "name": "B4",
                    "midi": 71,
                    "time": 291.08613412501103,
                    "velocity": 0.905511811023622,
                    "duration": 0.10344824999998536
                },
                {
                    "name": "A4",
                    "midi": 69,
                    "time": 291.189582375011,
                    "velocity": 0.8346456692913385,
                    "duration": 0.10344824999998536
                },
                {
                    "name": "G#4",
                    "midi": 68,
                    "time": 291.293030625011,
                    "velocity": 0.8818897637795275,
                    "duration": 0.10344824999998536
                },
                {
                    "name": "F5",
                    "midi": 77,
                    "time": 291.396478875011,
                    "velocity": 0.8661417322834646,
                    "duration": 0.10344824999998536
                },
                {
                    "name": "E5",
                    "midi": 76,
                    "time": 291.49992712501097,
                    "velocity": 0.8976377952755905,
                    "duration": 0.10344824999998536
                },
                {
                    "name": "D5",
                    "midi": 74,
                    "time": 291.60337537501096,
                    "velocity": 0.8110236220472441,
                    "duration": 0.10344824999998536
                },
                {
                    "name": "C5",
                    "midi": 72,
                    "time": 291.70682362501094,
                    "velocity": 0.889763779527559,
                    "duration": 0.10344824999998536
                },
                {
                    "name": "B4",
                    "midi": 71,
                    "time": 291.8102718750109,
                    "velocity": 0.9133858267716536,
                    "duration": 0.10344824999998536
                },
                {
                    "name": "A4",
                    "midi": 69,
                    "time": 291.9137201250109,
                    "velocity": 0.8188976377952756,
                    "duration": 0.10344824999998536
                },
                {
                    "name": "G4",
                    "midi": 67,
                    "time": 292.0171683750109,
                    "velocity": 0.8267716535433071,
                    "duration": 0.10344824999998536
                },
                {
                    "name": "F#4",
                    "midi": 66,
                    "time": 292.1206166250109,
                    "velocity": 0.8661417322834646,
                    "duration": 0.10344824999998536
                },
                {
                    "name": "E5",
                    "midi": 76,
                    "time": 292.22406487501087,
                    "velocity": 0.905511811023622,
                    "duration": 0.10344824999998536
                },
                {
                    "name": "D5",
                    "midi": 74,
                    "time": 292.32751312501085,
                    "velocity": 0.889763779527559,
                    "duration": 0.10344824999998536
                },
                {
                    "name": "C5",
                    "midi": 72,
                    "time": 292.43096137501084,
                    "velocity": 0.8267716535433071,
                    "duration": 0.10344824999998536
                },
                {
                    "name": "B4",
                    "midi": 71,
                    "time": 292.5344096250108,
                    "velocity": 0.8661417322834646,
                    "duration": 0.10344824999998536
                },
                {
                    "name": "G4",
                    "midi": 67,
                    "time": 292.6378578750108,
                    "velocity": 0.8503937007874016,
                    "duration": 0.10344824999998536
                },
                {
                    "name": "A4",
                    "midi": 69,
                    "time": 292.7413061250108,
                    "velocity": 0.8503937007874016,
                    "duration": 0.10344824999998536
                },
                {
                    "name": "B4",
                    "midi": 71,
                    "time": 292.8447543750108,
                    "velocity": 0.9212598425196851,
                    "duration": 0.10344824999998536
                },
                {
                    "name": "C5",
                    "midi": 72,
                    "time": 292.94820262501077,
                    "velocity": 0.8582677165354331,
                    "duration": 0.10344824999998536
                },
                {
                    "name": "D5",
                    "midi": 74,
                    "time": 293.05165087501075,
                    "velocity": 0.8740157480314961,
                    "duration": 0.10344824999998536
                },
                {
                    "name": "E5",
                    "midi": 76,
                    "time": 293.15509912501074,
                    "velocity": 0.9212598425196851,
                    "duration": 0.10344824999998536
                },
                {
                    "name": "F5",
                    "midi": 77,
                    "time": 293.2585473750107,
                    "velocity": 0.889763779527559,
                    "duration": 0.10344824999998536
                },
                {
                    "name": "F5",
                    "midi": 77,
                    "time": 293.3619956250107,
                    "velocity": 0.8740157480314961,
                    "duration": 0.10344824999998536
                },
                {
                    "name": "E5",
                    "midi": 76,
                    "time": 293.4654438750107,
                    "velocity": 0.8267716535433071,
                    "duration": 0.10344824999998536
                },
                {
                    "name": "D5",
                    "midi": 74,
                    "time": 293.5688921250107,
                    "velocity": 0.8661417322834646,
                    "duration": 0.10344824999998536
                },
                {
                    "name": "C5",
                    "midi": 72,
                    "time": 293.67234037501066,
                    "velocity": 0.9212598425196851,
                    "duration": 0.10344824999998536
                },
                {
                    "name": "G#4",
                    "midi": 68,
                    "time": 293.77578862501065,
                    "velocity": 0.8267716535433071,
                    "duration": 0.10344824999998536
                },
                {
                    "name": "A4",
                    "midi": 69,
                    "time": 293.87923687501063,
                    "velocity": 0.8346456692913385,
                    "duration": 0.10344824999998536
                },
                {
                    "name": "F4",
                    "midi": 65,
                    "time": 293.9826851250106,
                    "velocity": 0.9212598425196851,
                    "duration": 0.10344824999998536
                },
                {
                    "name": "D4",
                    "midi": 62,
                    "time": 294.0861333750106,
                    "velocity": 0.8582677165354331,
                    "duration": 0.10344824999998536
                },
                {
                    "name": "A4",
                    "midi": 69,
                    "time": 294.1895816250106,
                    "velocity": 0.8110236220472441,
                    "duration": 0.10344824999998536
                },
                {
                    "name": "G4",
                    "midi": 67,
                    "time": 294.2930298750106,
                    "velocity": 0.8267716535433071,
                    "duration": 0.10344824999998536
                },
                {
                    "name": "E4",
                    "midi": 64,
                    "time": 294.39647812501056,
                    "velocity": 0.8740157480314961,
                    "duration": 0.10344824999998536
                },
                {
                    "name": "C4",
                    "midi": 60,
                    "time": 294.49992637501055,
                    "velocity": 0.8740157480314961,
                    "duration": 0.10344824999998536
                },
                {
                    "name": "G4",
                    "midi": 67,
                    "time": 294.60337462501053,
                    "velocity": 0.905511811023622,
                    "duration": 0.10344824999998536
                },
                {
                    "name": "F4",
                    "midi": 65,
                    "time": 294.7068228750105,
                    "velocity": 0.8582677165354331,
                    "duration": 0.10344824999998536
                },
                {
                    "name": "D4",
                    "midi": 62,
                    "time": 294.8102711250105,
                    "velocity": 0.8267716535433071,
                    "duration": 0.10344824999998536
                },
                {
                    "name": "B3",
                    "midi": 59,
                    "time": 294.9137193750105,
                    "velocity": 0.8110236220472441,
                    "duration": 0.10344824999998536
                },
                {
                    "name": "C4",
                    "midi": 60,
                    "time": 295.0171676250105,
                    "velocity": 0.31496062992125984,
                    "duration": 0.10344824999998536
                },
                {
                    "name": "E4",
                    "midi": 64,
                    "time": 295.12061587501046,
                    "velocity": 0.3700787401574803,
                    "duration": 0.10344824999998536
                },
                {
                    "name": "G4",
                    "midi": 67,
                    "time": 295.22406412501044,
                    "velocity": 0.2755905511811024,
                    "duration": 0.10344824999998536
                },
                {
                    "name": "C5",
                    "midi": 72,
                    "time": 295.32751237501043,
                    "velocity": 0.33070866141732286,
                    "duration": 0.10344824999998536
                },
                {
                    "name": "E5",
                    "midi": 76,
                    "time": 295.4309606250104,
                    "velocity": 0.2755905511811024,
                    "duration": 0.10344824999998536
                },
                {
                    "name": "C5",
                    "midi": 72,
                    "time": 295.5344088750104,
                    "velocity": 0.3228346456692913,
                    "duration": 0.10344824999998536
                },
                {
                    "name": "B4",
                    "midi": 71,
                    "time": 295.6378571250104,
                    "velocity": 0.25984251968503935,
                    "duration": 0.10344824999998536
                },
                {
                    "name": "A4",
                    "midi": 69,
                    "time": 295.74130537501037,
                    "velocity": 0.3543307086614173,
                    "duration": 0.10344824999998536
                },
                {
                    "name": "G4",
                    "midi": 67,
                    "time": 295.84475362501036,
                    "velocity": 0.33070866141732286,
                    "duration": 0.10344824999998536
                },
                {
                    "name": "B4",
                    "midi": 71,
                    "time": 295.94820187501034,
                    "velocity": 0.33858267716535434,
                    "duration": 0.10344824999998536
                },
                {
                    "name": "D5",
                    "midi": 74,
                    "time": 296.0516501250103,
                    "velocity": 0.2677165354330709,
                    "duration": 0.10344824999998536
                },
                {
                    "name": "F#5",
                    "midi": 78,
                    "time": 296.1550983750103,
                    "velocity": 0.33070866141732286,
                    "duration": 0.10344824999998536
                },
                {
                    "name": "G5",
                    "midi": 79,
                    "time": 296.2585466250103,
                    "velocity": 0.31496062992125984,
                    "duration": 0.10344824999998536
                },
                {
                    "name": "F5",
                    "midi": 77,
                    "time": 296.3619948750103,
                    "velocity": 0.36220472440944884,
                    "duration": 0.10344824999998536
                },
                {
                    "name": "D5",
                    "midi": 74,
                    "time": 296.46544312501027,
                    "velocity": 0.30708661417322836,
                    "duration": 0.10344824999998536
                },
                {
                    "name": "B4",
                    "midi": 71,
                    "time": 296.56889137501025,
                    "velocity": 0.3700787401574803,
                    "duration": 0.10344824999998536
                },
                {
                    "name": "C5",
                    "midi": 72,
                    "time": 296.67233962501024,
                    "velocity": 0.2677165354330709,
                    "duration": 0.10344824999998536
                },
                {
                    "name": "E5",
                    "midi": 76,
                    "time": 296.7757878750102,
                    "velocity": 0.25984251968503935,
                    "duration": 0.10344824999998536
                },
                {
                    "name": "G5",
                    "midi": 79,
                    "time": 296.8792361250102,
                    "velocity": 0.2677165354330709,
                    "duration": 0.10344824999998536
                },
                {
                    "name": "C6",
                    "midi": 84,
                    "time": 296.9826843750102,
                    "velocity": 0.3543307086614173,
                    "duration": 0.10344824999998536
                },
                {
                    "name": "E6",
                    "midi": 88,
                    "time": 297.0861326250102,
                    "velocity": 0.33858267716535434,
                    "duration": 0.10344824999998536
                },
                {
                    "name": "C6",
                    "midi": 84,
                    "time": 297.18958087501017,
                    "velocity": 0.31496062992125984,
                    "duration": 0.10344824999998536
                },
                {
                    "name": "B5",
                    "midi": 83,
                    "time": 297.29302912501015,
                    "velocity": 0.33070866141732286,
                    "duration": 0.10344824999998536
                },
                {
                    "name": "A5",
                    "midi": 81,
                    "time": 297.39647737501014,
                    "velocity": 0.29133858267716534,
                    "duration": 0.10344824999998536
                },
                {
                    "name": "G5",
                    "midi": 79,
                    "time": 297.4999256250101,
                    "velocity": 0.33070866141732286,
                    "duration": 0.10344824999998536
                },
                {
                    "name": "A5",
                    "midi": 81,
                    "time": 297.6033738750101,
                    "velocity": 0.36220472440944884,
                    "duration": 0.10344824999998536
                },
                {
                    "name": "B5",
                    "midi": 83,
                    "time": 297.7068221250101,
                    "velocity": 0.3937007874015748,
                    "duration": 0.10344824999998536
                },
                {
                    "name": "C6",
                    "midi": 84,
                    "time": 297.8102703750101,
                    "velocity": 0.33858267716535434,
                    "duration": 0.10344824999998536
                },
                {
                    "name": "D6",
                    "midi": 86,
                    "time": 297.91371862501006,
                    "velocity": 0.36220472440944884,
                    "duration": 0.10344824999998536
                },
                {
                    "name": "F6",
                    "midi": 89,
                    "time": 298.01716687501005,
                    "velocity": 0.3858267716535433,
                    "duration": 0.10344824999998536
                },
                {
                    "name": "D6",
                    "midi": 86,
                    "time": 298.12061512501003,
                    "velocity": 0.33070866141732286,
                    "duration": 0.10344824999998536
                },
                {
                    "name": "B5",
                    "midi": 83,
                    "time": 298.22406337501,
                    "velocity": 0.4015748031496063,
                    "duration": 0.10344824999998536
                },
                {
                    "name": "C6",
                    "midi": 84,
                    "time": 298.32751162501,
                    "velocity": 0.3464566929133858,
                    "duration": 0.10344824999998536
                },
                {
                    "name": "B5",
                    "midi": 83,
                    "time": 298.43095987501,
                    "velocity": 0.4015748031496063,
                    "duration": 0.10344824999998536
                },
                {
                    "name": "C6",
                    "midi": 84,
                    "time": 298.53440812501,
                    "velocity": 0.36220472440944884,
                    "duration": 0.10344824999998536
                },
                {
                    "name": "E6",
                    "midi": 88,
                    "time": 298.63785637500996,
                    "velocity": 0.4094488188976378,
                    "duration": 0.10344824999998536
                },
                {
                    "name": "D6",
                    "midi": 86,
                    "time": 298.74130462500995,
                    "velocity": 0.4015748031496063,
                    "duration": 0.10344824999998536
                },
                {
                    "name": "C6",
                    "midi": 84,
                    "time": 298.84475287500993,
                    "velocity": 0.3700787401574803,
                    "duration": 0.10344824999998536
                },
                {
                    "name": "B5",
                    "midi": 83,
                    "time": 298.9482011250099,
                    "velocity": 0.41732283464566927,
                    "duration": 0.10344824999998536
                },
                {
                    "name": "A5",
                    "midi": 81,
                    "time": 299.0516493750099,
                    "velocity": 0.47244094488188976,
                    "duration": 0.10344824999998536
                },
                {
                    "name": "G5",
                    "midi": 79,
                    "time": 299.1550976250099,
                    "velocity": 0.4094488188976378,
                    "duration": 0.10344824999998536
                },
                {
                    "name": "F#5",
                    "midi": 78,
                    "time": 299.2585458750099,
                    "velocity": 0.41732283464566927,
                    "duration": 0.10344824999998536
                },
                {
                    "name": "A5",
                    "midi": 81,
                    "time": 299.36199412500986,
                    "velocity": 0.4330708661417323,
                    "duration": 0.10344824999998536
                },
                {
                    "name": "G5",
                    "midi": 79,
                    "time": 299.46544237500984,
                    "velocity": 0.4330708661417323,
                    "duration": 0.10344824999998536
                },
                {
                    "name": "F5",
                    "midi": 77,
                    "time": 299.56889062500983,
                    "velocity": 0.5039370078740157,
                    "duration": 0.10344824999998536
                },
                {
                    "name": "E5",
                    "midi": 76,
                    "time": 299.6723388750098,
                    "velocity": 0.5275590551181102,
                    "duration": 0.10344824999998536
                },
                {
                    "name": "F5",
                    "midi": 77,
                    "time": 299.7757871250098,
                    "velocity": 0.5275590551181102,
                    "duration": 0.10344824999998536
                },
                {
                    "name": "D5",
                    "midi": 74,
                    "time": 299.8792353750098,
                    "velocity": 0.5275590551181102,
                    "duration": 0.10344824999998536
                },
                {
                    "name": "C5",
                    "midi": 72,
                    "time": 299.98268362500977,
                    "velocity": 0.5354330708661418,
                    "duration": 0.10344824999998536
                },
                {
                    "name": "B4",
                    "midi": 71,
                    "time": 300.08613187500976,
                    "velocity": 0.5196850393700787,
                    "duration": 0.10344824999998536
                },
                {
                    "name": "C5",
                    "midi": 72,
                    "time": 300.18958012500974,
                    "velocity": 0.5118110236220472,
                    "duration": 0.10344824999998536
                },
                {
                    "name": "E5",
                    "midi": 76,
                    "time": 300.2930283750097,
                    "velocity": 0.5275590551181102,
                    "duration": 0.10344824999998536
                },
                {
                    "name": "D5",
                    "midi": 74,
                    "time": 300.3964766250097,
                    "velocity": 0.49606299212598426,
                    "duration": 0.10344824999998536
                },
                {
                    "name": "C5",
                    "midi": 72,
                    "time": 300.4999248750097,
                    "velocity": 0.4881889763779528,
                    "duration": 0.10344824999998536
                },
                {
                    "name": "B4",
                    "midi": 71,
                    "time": 300.6033731250097,
                    "velocity": 0.5905511811023622,
                    "duration": 0.10344824999998536
                },
                {
                    "name": "A4",
                    "midi": 69,
                    "time": 300.70682137500967,
                    "velocity": 0.5748031496062992,
                    "duration": 0.10344824999998536
                },
                {
                    "name": "G4",
                    "midi": 67,
                    "time": 300.81026962500965,
                    "velocity": 0.5669291338582677,
                    "duration": 0.10344824999998536
                },
                {
                    "name": "F#4",
                    "midi": 66,
                    "time": 300.91371787500964,
                    "velocity": 0.5433070866141733,
                    "duration": 0.10344824999998536
                },
                {
                    "name": "A4",
                    "midi": 69,
                    "time": 301.0171661250096,
                    "velocity": 0.5826771653543307,
                    "duration": 0.10344824999998536
                },
                {
                    "name": "G4",
                    "midi": 67,
                    "time": 301.1206143750096,
                    "velocity": 0.5354330708661418,
                    "duration": 0.10344824999998536
                },
                {
                    "name": "F4",
                    "midi": 65,
                    "time": 301.2240626250096,
                    "velocity": 0.5984251968503937,
                    "duration": 0.10344824999998536
                },
                {
                    "name": "E4",
                    "midi": 64,
                    "time": 301.3275108750096,
                    "velocity": 0.5905511811023622,
                    "duration": 0.10344824999998536
                },
                {
                    "name": "F4",
                    "midi": 65,
                    "time": 301.43095912500957,
                    "velocity": 0.5669291338582677,
                    "duration": 0.10344824999998536
                },
                {
                    "name": "D4",
                    "midi": 62,
                    "time": 301.53440737500955,
                    "velocity": 0.5984251968503937,
                    "duration": 0.10344824999998536
                },
                {
                    "name": "C4",
                    "midi": 60,
                    "time": 301.63785562500954,
                    "velocity": 0.5511811023622047,
                    "duration": 0.10344824999998536
                },
                {
                    "name": "E4",
                    "midi": 64,
                    "time": 301.7413038750095,
                    "velocity": 0.6141732283464567,
                    "duration": 0.10344824999998536
                },
                {
                    "name": "G4",
                    "midi": 67,
                    "time": 301.8447521250095,
                    "velocity": 0.5984251968503937,
                    "duration": 0.10344824999998536
                },
                {
                    "name": "C5",
                    "midi": 72,
                    "time": 301.9482003750095,
                    "velocity": 0.6062992125984252,
                    "duration": 0.10344824999998536
                },
                {
                    "name": "B4",
                    "midi": 71,
                    "time": 302.0516486250095,
                    "velocity": 0.6062992125984252,
                    "duration": 0.10344824999998536
                },
                {
                    "name": "G4",
                    "midi": 67,
                    "time": 302.15509687500946,
                    "velocity": 0.6062992125984252,
                    "duration": 0.10344824999998536
                },
                {
                    "name": "F4",
                    "midi": 65,
                    "time": 302.25854512500945,
                    "velocity": 0.6377952755905512,
                    "duration": 0.10344824999998536
                },
                {
                    "name": "D4",
                    "midi": 62,
                    "time": 302.36199337500943,
                    "velocity": 0.6771653543307087,
                    "duration": 0.10344824999998536
                },
                {
                    "name": "C4",
                    "midi": 60,
                    "time": 302.4654416250094,
                    "velocity": 0.6220472440944882,
                    "duration": 0.10344824999998536
                },
                {
                    "name": "E4",
                    "midi": 64,
                    "time": 302.5688898750094,
                    "velocity": 0.6299212598425197,
                    "duration": 0.10344824999998536
                },
                {
                    "name": "G4",
                    "midi": 67,
                    "time": 302.6723381250094,
                    "velocity": 0.7165354330708661,
                    "duration": 0.10344824999998536
                },
                {
                    "name": "C5",
                    "midi": 72,
                    "time": 302.7757863750094,
                    "velocity": 0.6692913385826772,
                    "duration": 0.10344824999998536
                },
                {
                    "name": "G4",
                    "midi": 67,
                    "time": 302.87923462500936,
                    "velocity": 0.6377952755905512,
                    "duration": 0.10344824999998536
                },
                {
                    "name": "B4",
                    "midi": 71,
                    "time": 302.98268287500935,
                    "velocity": 0.6535433070866141,
                    "duration": 0.10344824999998536
                },
                {
                    "name": "D5",
                    "midi": 74,
                    "time": 303.08613112500933,
                    "velocity": 0.7007874015748031,
                    "duration": 0.10344824999998536
                },
                {
                    "name": "G5",
                    "midi": 79,
                    "time": 303.1895793750093,
                    "velocity": 0.6614173228346457,
                    "duration": 0.10344824999998536
                },
                {
                    "name": "C5",
                    "midi": 72,
                    "time": 303.2930276250093,
                    "velocity": 0.7086614173228346,
                    "duration": 0.10344824999998536
                },
                {
                    "name": "E5",
                    "midi": 76,
                    "time": 303.3964758750093,
                    "velocity": 0.6929133858267716,
                    "duration": 0.10344824999998536
                },
                {
                    "name": "G5",
                    "midi": 79,
                    "time": 303.4999241250093,
                    "velocity": 0.7401574803149606,
                    "duration": 0.10344824999998536
                },
                {
                    "name": "C6",
                    "midi": 84,
                    "time": 303.60337237500926,
                    "velocity": 0.7716535433070866,
                    "duration": 0.10344824999998536
                },
                {
                    "name": "B5",
                    "midi": 83,
                    "time": 303.70682062500924,
                    "velocity": 0.7716535433070866,
                    "duration": 0.10344824999998536
                },
                {
                    "name": "G5",
                    "midi": 79,
                    "time": 303.8102688750092,
                    "velocity": 0.7401574803149606,
                    "duration": 0.10344824999998536
                },
                {
                    "name": "F5",
                    "midi": 77,
                    "time": 303.9137171250092,
                    "velocity": 0.8031496062992126,
                    "duration": 0.10344824999998536
                },
                {
                    "name": "D5",
                    "midi": 74,
                    "time": 304.0171653750092,
                    "velocity": 0.8110236220472441,
                    "duration": 0.10344824999998536
                },
                {
                    "name": "C5",
                    "midi": 72,
                    "time": 304.1206136250092,
                    "velocity": 0.7716535433070866,
                    "duration": 0.10344824999998536
                },
                {
                    "name": "E5",
                    "midi": 76,
                    "time": 304.22406187500917,
                    "velocity": 0.7716535433070866,
                    "duration": 0.10344824999998536
                },
                {
                    "name": "G5",
                    "midi": 79,
                    "time": 304.32751012500916,
                    "velocity": 0.7480314960629921,
                    "duration": 0.10344824999998536
                },
                {
                    "name": "C6",
                    "midi": 84,
                    "time": 304.43095837500914,
                    "velocity": 0.7795275590551181,
                    "duration": 0.10344824999998536
                },
                {
                    "name": "G5",
                    "midi": 79,
                    "time": 304.5344066250091,
                    "velocity": 0.7952755905511811,
                    "duration": 0.10344824999998536
                },
                {
                    "name": "B5",
                    "midi": 83,
                    "time": 304.6378548750091,
                    "velocity": 0.8267716535433071,
                    "duration": 0.10344824999998536
                },
                {
                    "name": "D6",
                    "midi": 86,
                    "time": 304.7413031250091,
                    "velocity": 0.84251968503937,
                    "duration": 0.10344824999998536
                },
                {
                    "name": "G6",
                    "midi": 91,
                    "time": 304.8447513750091,
                    "velocity": 0.7795275590551181,
                    "duration": 0.10344824999998536
                },
                {
                    "name": "C4",
                    "midi": 60,
                    "time": 304.94819962500907,
                    "velocity": 0.84251968503937,
                    "duration": 0.10344824999998536
                },
                {
                    "name": "C4",
                    "midi": 60,
                    "time": 305.05164787500905,
                    "velocity": 0.7716535433070866,
                    "duration": 0.10344824999998536
                },
                {
                    "name": "D4",
                    "midi": 62,
                    "time": 305.15509612500904,
                    "velocity": 0.8661417322834646,
                    "duration": 0.10344824999998536
                },
                {
                    "name": "E4",
                    "midi": 64,
                    "time": 305.258544375009,
                    "velocity": 0.8188976377952756,
                    "duration": 0.10344824999998536
                },
                {
                    "name": "F4",
                    "midi": 65,
                    "time": 305.361992625009,
                    "velocity": 0.8818897637795275,
                    "duration": 0.10344824999998536
                },
                {
                    "name": "G4",
                    "midi": 67,
                    "time": 305.465440875009,
                    "velocity": 0.8188976377952756,
                    "duration": 0.10344824999998536
                },
                {
                    "name": "A4",
                    "midi": 69,
                    "time": 305.568889125009,
                    "velocity": 0.8818897637795275,
                    "duration": 0.10344824999998536
                },
                {
                    "name": "B4",
                    "midi": 71,
                    "time": 305.67233737500896,
                    "velocity": 0.9133858267716536,
                    "duration": 0.10344824999998536
                },
                {
                    "name": "C5",
                    "midi": 72,
                    "time": 305.77578562500895,
                    "velocity": 0.9133858267716536,
                    "duration": 0.10344824999998536
                },
                {
                    "name": "C5",
                    "midi": 72,
                    "time": 305.87923387500894,
                    "velocity": 0.8503937007874016,
                    "duration": 0.10344824999998536
                },
                {
                    "name": "D5",
                    "midi": 74,
                    "time": 305.9826821250089,
                    "velocity": 0.8503937007874016,
                    "duration": 0.10344824999998536
                },
                {
                    "name": "E5",
                    "midi": 76,
                    "time": 306.0861303750089,
                    "velocity": 0.9448818897637795,
                    "duration": 0.10344824999998536
                },
                {
                    "name": "F5",
                    "midi": 77,
                    "time": 306.1895786250089,
                    "velocity": 0.905511811023622,
                    "duration": 0.10344824999998536
                },
                {
                    "name": "G5",
                    "midi": 79,
                    "time": 306.2930268750089,
                    "velocity": 0.937007874015748,
                    "duration": 0.10344824999998536
                },
                {
                    "name": "A5",
                    "midi": 81,
                    "time": 306.39647512500886,
                    "velocity": 0.9133858267716536,
                    "duration": 0.10344824999998536
                },
                {
                    "name": "B5",
                    "midi": 83,
                    "time": 306.49992337500885,
                    "velocity": 0.9212598425196851,
                    "duration": 0.10344824999998536
                },
                {
                    "name": "C6",
                    "midi": 84,
                    "time": 306.60337162500883,
                    "velocity": 0.9448818897637795,
                    "duration": 0.10344824999998536
                },
                {
                    "name": "C6",
                    "midi": 84,
                    "time": 306.7068198750088,
                    "velocity": 0.9291338582677166,
                    "duration": 0.10344824999998536
                },
                {
                    "name": "D6",
                    "midi": 86,
                    "time": 306.8102681250088,
                    "velocity": 0.9212598425196851,
                    "duration": 0.10344824999998536
                },
                {
                    "name": "E6",
                    "midi": 88,
                    "time": 306.9137163750088,
                    "velocity": 0.984251968503937,
                    "duration": 0.10344824999998536
                },
                {
                    "name": "F6",
                    "midi": 89,
                    "time": 307.0171646250088,
                    "velocity": 0.889763779527559,
                    "duration": 0.10344824999998536
                },
                {
                    "name": "G6",
                    "midi": 91,
                    "time": 307.12061287500876,
                    "velocity": 0.9606299212598425,
                    "duration": 0.10344824999998536
                },
                {
                    "name": "A6",
                    "midi": 93,
                    "time": 307.22406112500875,
                    "velocity": 0.8976377952755905,
                    "duration": 0.10344824999998536
                },
                {
                    "name": "B6",
                    "midi": 95,
                    "time": 307.32750937500873,
                    "velocity": 0.984251968503937,
                    "duration": 0.10344824999998536
                },
                {
                    "name": "C7",
                    "midi": 96,
                    "time": 307.4309576250087,
                    "velocity": 0.968503937007874,
                    "duration": 0.10344824999998536
                },
                {
                    "name": "C7",
                    "midi": 96,
                    "time": 307.5344058750087,
                    "velocity": 1,
                    "duration": 0.10344824999998536
                },
                {
                    "name": "B6",
                    "midi": 95,
                    "time": 307.6378541250087,
                    "velocity": 0.9606299212598425,
                    "duration": 0.10344824999998536
                },
                {
                    "name": "A6",
                    "midi": 93,
                    "time": 307.7413023750087,
                    "velocity": 0.9763779527559056,
                    "duration": 0.10344824999998536
                },
                {
                    "name": "G6",
                    "midi": 91,
                    "time": 307.84475062500866,
                    "velocity": 0.9763779527559056,
                    "duration": 0.10344824999998536
                },
                {
                    "name": "F6",
                    "midi": 89,
                    "time": 307.94819887500864,
                    "velocity": 0.9212598425196851,
                    "duration": 0.10344824999998536
                },
                {
                    "name": "E6",
                    "midi": 88,
                    "time": 308.0516471250086,
                    "velocity": 0.968503937007874,
                    "duration": 0.10344824999998536
                },
                {
                    "name": "D6",
                    "midi": 86,
                    "time": 308.1550953750086,
                    "velocity": 1,
                    "duration": 0.10344824999998536
                },
                {
                    "name": "C6",
                    "midi": 84,
                    "time": 308.2585436250086,
                    "velocity": 0.952755905511811,
                    "duration": 0.10344824999998536
                },
                {
                    "name": "C6",
                    "midi": 84,
                    "time": 308.3619918750086,
                    "velocity": 0.9212598425196851,
                    "duration": 0.10344824999998536
                },
                {
                    "name": "B5",
                    "midi": 83,
                    "time": 308.46544012500857,
                    "velocity": 0.968503937007874,
                    "duration": 0.10344824999998536
                },
                {
                    "name": "A5",
                    "midi": 81,
                    "time": 308.56888837500856,
                    "velocity": 0.9133858267716536,
                    "duration": 0.10344824999998536
                },
                {
                    "name": "G5",
                    "midi": 79,
                    "time": 308.67233662500854,
                    "velocity": 0.9921259842519685,
                    "duration": 0.10344824999998536
                },
                {
                    "name": "F5",
                    "midi": 77,
                    "time": 308.7757848750085,
                    "velocity": 0.9763779527559056,
                    "duration": 0.10344824999998536
                },
                {
                    "name": "E5",
                    "midi": 76,
                    "time": 308.8792331250085,
                    "velocity": 0.9133858267716536,
                    "duration": 0.10344824999998536
                },
                {
                    "name": "D5",
                    "midi": 74,
                    "time": 308.9826813750085,
                    "velocity": 0.968503937007874,
                    "duration": 0.10344824999998536
                },
                {
                    "name": "C5",
                    "midi": 72,
                    "time": 309.0861296250085,
                    "velocity": 0.9212598425196851,
                    "duration": 0.10344824999998536
                },
                {
                    "name": "C5",
                    "midi": 72,
                    "time": 309.18957787500847,
                    "velocity": 0.889763779527559,
                    "duration": 0.10344824999998536
                },
                {
                    "name": "B4",
                    "midi": 71,
                    "time": 309.29302612500845,
                    "velocity": 1,
                    "duration": 0.10344824999998536
                },
                {
                    "name": "A4",
                    "midi": 69,
                    "time": 309.39647437500844,
                    "velocity": 0.952755905511811,
                    "duration": 0.10344824999998536
                },
                {
                    "name": "G4",
                    "midi": 67,
                    "time": 309.4999226250084,
                    "velocity": 0.9763779527559056,
                    "duration": 0.10344824999998536
                },
                {
                    "name": "F4",
                    "midi": 65,
                    "time": 309.6033708750084,
                    "velocity": 0.937007874015748,
                    "duration": 0.10344824999998536
                },
                {
                    "name": "E4",
                    "midi": 64,
                    "time": 309.7068191250084,
                    "velocity": 0.9448818897637795,
                    "duration": 0.10344824999998536
                },
                {
                    "name": "D4",
                    "midi": 62,
                    "time": 309.8102673750084,
                    "velocity": 0.9291338582677166,
                    "duration": 0.10344824999998536
                },
                {
                    "name": "C4",
                    "midi": 60,
                    "time": 309.91371562500836,
                    "velocity": 0.9133858267716536,
                    "duration": 0.20689650000002757
                },
                {
                    "name": "C5",
                    "midi": 72,
                    "time": 310.67233612500837,
                    "velocity": 0.9606299212598425,
                    "duration": 0.20689649999997073
                },
                {
                    "name": "G5",
                    "midi": 79,
                    "time": 310.70681887500837,
                    "velocity": 0.952755905511811,
                    "duration": 0.20689649999997073
                },
                {
                    "name": "E6",
                    "midi": 88,
                    "time": 310.74130162500836,
                    "velocity": 0.905511811023622,
                    "duration": 0.27586199999996097
                },
                {
                    "name": "C4",
                    "midi": 60,
                    "time": 311.5688876250083,
                    "velocity": 0.9133858267716536,
                    "duration": 0.8275859999999966
                }
            ],
            "controlChanges": {},
            "id": 3,
            "name": "     sequenced by",
            "instrumentNumber": 40,
            "instrument": "violin",
            "instrumentFamily": "strings",
            "channelNumber": 2,
            "isPercussion": false
        },
        {
            "startTime": 0,
            "duration": 0,
            "length": 0,
            "notes": [],
            "controlChanges": {},
            "id": 4,
            "name": "Bruno Giovannetti"
        },
        {
            "startTime": 0,
            "duration": 0,
            "length": 0,
            "notes": [],
            "controlChanges": {},
            "id": 5,
            "name": "Piazzarola 30  63100 Ascoli"
        },
        {
            "startTime": 0,
            "duration": 0,
            "length": 0,
            "notes": [],
            "controlChanges": {},
            "id": 6,
            "name": "         Italy"
        }
    ]
}