{
    "header": {
        "PPQ": 120,
        "timeSignature": [
            3,
            4
        ],
        "bpm": 130.00013000013,
        "name": "Allegretto Scherzando"
    },
    "startTime": 0,
    "duration": 146.65369950000147,
    "tracks": [
        {
            "startTime": 0,
            "duration": 0,
            "length": 0,
            "notes": [],
            "controlChanges": {},
            "id": 0,
            "name": "Allegretto Scherzando"
        },
        {
            "startTime": 0.6923069999999999,
            "duration": 146.65369950000147,
            "length": 1065,
            "notes": [
                {
                    "name": "D4",
                    "midi": 62,
                    "time": 0.6923069999999999,
                    "velocity": 0.7874015748031497,
                    "duration": 0.6923069999999999
                },
                {
                    "name": "C4",
                    "midi": 60,
                    "time": 1.1538449999999998,
                    "velocity": 0.7874015748031497,
                    "duration": 0.230769
                },
                {
                    "name": "B3",
                    "midi": 59,
                    "time": 1.3846139999999998,
                    "velocity": 0.7874015748031497,
                    "duration": 0.230769
                },
                {
                    "name": "G2",
                    "midi": 43,
                    "time": 1.3846139999999998,
                    "velocity": 0.7874015748031497,
                    "duration": 0.6923069999999998
                },
                {
                    "name": "G3",
                    "midi": 55,
                    "time": 1.6153829999999998,
                    "velocity": 0.7874015748031497,
                    "duration": 0.230769
                },
                {
                    "name": "B3",
                    "midi": 59,
                    "time": 1.8461519999999998,
                    "velocity": 0.7874015748031497,
                    "duration": 0.23076899999999978
                },
                {
                    "name": "E3",
                    "midi": 52,
                    "time": 2.0769209999999996,
                    "velocity": 0.7874015748031497,
                    "duration": 0.461538
                },
                {
                    "name": "G4",
                    "midi": 67,
                    "time": 2.0769209999999996,
                    "velocity": 0.7874015748031497,
                    "duration": 0.461538
                },
                {
                    "name": "D3",
                    "midi": 50,
                    "time": 2.5384589999999996,
                    "velocity": 0.7874015748031497,
                    "duration": 0.230769
                },
                {
                    "name": "F#4",
                    "midi": 66,
                    "time": 2.5384589999999996,
                    "velocity": 0.7874015748031497,
                    "duration": 0.230769
                },
                {
                    "name": "E4",
                    "midi": 64,
                    "time": 2.7692279999999996,
                    "velocity": 0.7874015748031497,
                    "duration": 0.461538
                },
                {
                    "name": "C3",
                    "midi": 48,
                    "time": 2.7692279999999996,
                    "velocity": 0.7874015748031497,
                    "duration": 0.461538
                },
                {
                    "name": "B2",
                    "midi": 47,
                    "time": 3.2307659999999996,
                    "velocity": 0.7874015748031497,
                    "duration": 0.230769
                },
                {
                    "name": "D4",
                    "midi": 62,
                    "time": 3.2307659999999996,
                    "velocity": 0.7874015748031497,
                    "duration": 0.230769
                },
                {
                    "name": "D4",
                    "midi": 62,
                    "time": 3.4615349999999996,
                    "velocity": 0.7874015748031497,
                    "duration": 0.461538
                },
                {
                    "name": "C4",
                    "midi": 60,
                    "time": 3.9230729999999996,
                    "velocity": 0.7874015748031497,
                    "duration": 0.23076899999999956
                },
                {
                    "name": "B3",
                    "midi": 59,
                    "time": 4.153841999999999,
                    "velocity": 0.7874015748031497,
                    "duration": 0.23076899999999956
                },
                {
                    "name": "G2",
                    "midi": 43,
                    "time": 4.153841999999999,
                    "velocity": 0.7874015748031497,
                    "duration": 0.6923069999999987
                },
                {
                    "name": "G3",
                    "midi": 55,
                    "time": 4.384610999999999,
                    "velocity": 0.7874015748031497,
                    "duration": 0.23076899999999956
                },
                {
                    "name": "B3",
                    "midi": 59,
                    "time": 4.615379999999998,
                    "velocity": 0.7874015748031497,
                    "duration": 0.23076899999999956
                },
                {
                    "name": "C4",
                    "midi": 60,
                    "time": 4.846148999999998,
                    "velocity": 0.7874015748031497,
                    "duration": 0.461538
                },
                {
                    "name": "A2",
                    "midi": 45,
                    "time": 4.846148999999998,
                    "velocity": 0.7874015748031497,
                    "duration": 0.461538
                },
                {
                    "name": "G2",
                    "midi": 43,
                    "time": 5.307686999999998,
                    "velocity": 0.7874015748031497,
                    "duration": 0.23076899999999956
                },
                {
                    "name": "B3",
                    "midi": 59,
                    "time": 5.307686999999998,
                    "velocity": 0.7874015748031497,
                    "duration": 0.23076899999999956
                },
                {
                    "name": "A3",
                    "midi": 57,
                    "time": 5.538455999999997,
                    "velocity": 0.7874015748031497,
                    "duration": 0.461538
                },
                {
                    "name": "D3",
                    "midi": 50,
                    "time": 5.538455999999997,
                    "velocity": 0.7874015748031497,
                    "duration": 0.6923069999999996
                },
                {
                    "name": "F#2",
                    "midi": 42,
                    "time": 5.538455999999997,
                    "velocity": 0.7874015748031497,
                    "duration": 0.6923069999999996
                },
                {
                    "name": "A3",
                    "midi": 57,
                    "time": 5.999993999999997,
                    "velocity": 0.7874015748031497,
                    "duration": 0.23076899999999956
                },
                {
                    "name": "D4",
                    "midi": 62,
                    "time": 6.230762999999997,
                    "velocity": 0.7874015748031497,
                    "duration": 0.461538
                },
                {
                    "name": "C4",
                    "midi": 60,
                    "time": 6.692300999999997,
                    "velocity": 0.7874015748031497,
                    "duration": 0.23076899999999956
                },
                {
                    "name": "B3",
                    "midi": 59,
                    "time": 6.9230699999999965,
                    "velocity": 0.7874015748031497,
                    "duration": 0.23076899999999956
                },
                {
                    "name": "G2",
                    "midi": 43,
                    "time": 6.9230699999999965,
                    "velocity": 0.7874015748031497,
                    "duration": 0.6923069999999987
                },
                {
                    "name": "G3",
                    "midi": 55,
                    "time": 7.153838999999996,
                    "velocity": 0.7874015748031497,
                    "duration": 0.23076899999999956
                },
                {
                    "name": "B3",
                    "midi": 59,
                    "time": 7.384607999999996,
                    "velocity": 0.7874015748031497,
                    "duration": 0.23076899999999956
                },
                {
                    "name": "E3",
                    "midi": 52,
                    "time": 7.615376999999995,
                    "velocity": 0.7874015748031497,
                    "duration": 0.4615379999999991
                },
                {
                    "name": "G4",
                    "midi": 67,
                    "time": 7.615376999999995,
                    "velocity": 0.7874015748031497,
                    "duration": 0.4615379999999991
                },
                {
                    "name": "D3",
                    "midi": 50,
                    "time": 8.076914999999994,
                    "velocity": 0.7874015748031497,
                    "duration": 0.23076900000000045
                },
                {
                    "name": "F#4",
                    "midi": 66,
                    "time": 8.076914999999994,
                    "velocity": 0.7874015748031497,
                    "duration": 0.23076900000000045
                },
                {
                    "name": "C3",
                    "midi": 48,
                    "time": 8.307683999999995,
                    "velocity": 0.7874015748031497,
                    "duration": 0.4615379999999991
                },
                {
                    "name": "E4",
                    "midi": 64,
                    "time": 8.307683999999995,
                    "velocity": 0.7874015748031497,
                    "duration": 0.4615379999999991
                },
                {
                    "name": "B2",
                    "midi": 47,
                    "time": 8.769221999999994,
                    "velocity": 0.7874015748031497,
                    "duration": 0.23076900000000045
                },
                {
                    "name": "D4",
                    "midi": 62,
                    "time": 8.769221999999994,
                    "velocity": 0.7874015748031497,
                    "duration": 0.23076900000000045
                },
                {
                    "name": "D4",
                    "midi": 62,
                    "time": 8.999990999999994,
                    "velocity": 0.7874015748031497,
                    "duration": 0.4615379999999991
                },
                {
                    "name": "C4",
                    "midi": 60,
                    "time": 9.461528999999993,
                    "velocity": 0.7874015748031497,
                    "duration": 0.23076900000000045
                },
                {
                    "name": "B2",
                    "midi": 47,
                    "time": 9.692297999999994,
                    "velocity": 0.7874015748031497,
                    "duration": 1.384614000000001
                },
                {
                    "name": "B3",
                    "midi": 59,
                    "time": 9.692297999999994,
                    "velocity": 0.7874015748031497,
                    "duration": 0.23076900000000045
                },
                {
                    "name": "G3",
                    "midi": 55,
                    "time": 9.923066999999994,
                    "velocity": 0.7874015748031497,
                    "duration": 0.23076900000000045
                },
                {
                    "name": "B3",
                    "midi": 59,
                    "time": 10.153835999999995,
                    "velocity": 0.7874015748031497,
                    "duration": 0.23076900000000045
                },
                {
                    "name": "C4",
                    "midi": 60,
                    "time": 10.384604999999995,
                    "velocity": 0.7874015748031497,
                    "duration": 0.4615379999999991
                },
                {
                    "name": "A3",
                    "midi": 57,
                    "time": 10.846142999999994,
                    "velocity": 0.7874015748031497,
                    "duration": 0.23076900000000045
                },
                {
                    "name": "F#2",
                    "midi": 42,
                    "time": 10.846142999999994,
                    "velocity": 0.7874015748031497,
                    "duration": 0.23076900000000045
                },
                {
                    "name": "G2",
                    "midi": 43,
                    "time": 11.076911999999995,
                    "velocity": 1,
                    "duration": 1.384614000000001
                },
                {
                    "name": "B2",
                    "midi": 47,
                    "time": 11.134604249999995,
                    "velocity": 0.7874015748031497,
                    "duration": 0.5961532500000004
                },
                {
                    "name": "D3",
                    "midi": 50,
                    "time": 11.192296499999996,
                    "velocity": 0.7874015748031497,
                    "duration": 0.5384609999999999
                },
                {
                    "name": "G3",
                    "midi": 55,
                    "time": 11.249988749999996,
                    "velocity": 0.7874015748031497,
                    "duration": 0.5192302499999997
                },
                {
                    "name": "G4",
                    "midi": 67,
                    "time": 11.769218999999996,
                    "velocity": 0.7874015748031497,
                    "duration": 0.4615379999999991
                },
                {
                    "name": "B4",
                    "midi": 71,
                    "time": 12.230756999999995,
                    "velocity": 0.7874015748031497,
                    "duration": 0.23076900000000045
                },
                {
                    "name": "A4",
                    "midi": 69,
                    "time": 12.461525999999996,
                    "velocity": 0.7874015748031497,
                    "duration": 0.23076900000000045
                },
                {
                    "name": "F#4",
                    "midi": 66,
                    "time": 12.692294999999996,
                    "velocity": 0.7874015748031497,
                    "duration": 0.23076900000000045
                },
                {
                    "name": "A4",
                    "midi": 69,
                    "time": 12.923063999999997,
                    "velocity": 0.7874015748031497,
                    "duration": 0.23076900000000045
                },
                {
                    "name": "A2",
                    "midi": 45,
                    "time": 13.153832999999997,
                    "velocity": 0.7874015748031497,
                    "duration": 0.4615379999999991
                },
                {
                    "name": "G4",
                    "midi": 67,
                    "time": 13.153832999999997,
                    "velocity": 0.7874015748031497,
                    "duration": 0.4615379999999991
                },
                {
                    "name": "C#3",
                    "midi": 49,
                    "time": 13.615370999999996,
                    "velocity": 0.7874015748031497,
                    "duration": 0.23076900000000045
                },
                {
                    "name": "E4",
                    "midi": 64,
                    "time": 13.615370999999996,
                    "velocity": 0.7874015748031497,
                    "duration": 0.23076900000000045
                },
                {
                    "name": "F#4",
                    "midi": 66,
                    "time": 13.846139999999997,
                    "velocity": 0.7874015748031497,
                    "duration": 0.4615379999999991
                },
                {
                    "name": "D3",
                    "midi": 50,
                    "time": 13.846139999999997,
                    "velocity": 0.7874015748031497,
                    "duration": 0.6923069999999996
                },
                {
                    "name": "D4",
                    "midi": 62,
                    "time": 14.307677999999996,
                    "velocity": 0.7874015748031497,
                    "duration": 0.23076900000000045
                },
                {
                    "name": "G4",
                    "midi": 67,
                    "time": 14.538446999999996,
                    "velocity": 0.7874015748031497,
                    "duration": 0.4615379999999991
                },
                {
                    "name": "B4",
                    "midi": 71,
                    "time": 14.999984999999995,
                    "velocity": 0.7874015748031497,
                    "duration": 0.23076900000000045
                },
                {
                    "name": "A4",
                    "midi": 69,
                    "time": 15.230753999999996,
                    "velocity": 0.7874015748031497,
                    "duration": 0.23076900000000045
                },
                {
                    "name": "F#4",
                    "midi": 66,
                    "time": 15.461522999999996,
                    "velocity": 0.7874015748031497,
                    "duration": 0.23076900000000045
                },
                {
                    "name": "A4",
                    "midi": 69,
                    "time": 15.692291999999997,
                    "velocity": 0.7874015748031497,
                    "duration": 0.23076900000000045
                },
                {
                    "name": "A2",
                    "midi": 45,
                    "time": 15.923060999999997,
                    "velocity": 0.7874015748031497,
                    "duration": 0.4615380000000009
                },
                {
                    "name": "G4",
                    "midi": 67,
                    "time": 15.923060999999997,
                    "velocity": 0.7874015748031497,
                    "duration": 0.4615380000000009
                },
                {
                    "name": "C#3",
                    "midi": 49,
                    "time": 16.384598999999998,
                    "velocity": 0.7874015748031497,
                    "duration": 0.23076899999999867
                },
                {
                    "name": "E4",
                    "midi": 64,
                    "time": 16.384598999999998,
                    "velocity": 0.7874015748031497,
                    "duration": 0.23076899999999867
                },
                {
                    "name": "D4",
                    "midi": 62,
                    "time": 16.615367999999997,
                    "velocity": 0.7874015748031497,
                    "duration": 0.6923069999999996
                },
                {
                    "name": "D3",
                    "midi": 50,
                    "time": 16.615367999999997,
                    "velocity": 0.7874015748031497,
                    "duration": 0.6923069999999996
                },
                {
                    "name": "D4",
                    "midi": 62,
                    "time": 17.307674999999996,
                    "velocity": 0.7874015748031497,
                    "duration": 0.4615380000000009
                },
                {
                    "name": "C4",
                    "midi": 60,
                    "time": 17.769212999999997,
                    "velocity": 0.7874015748031497,
                    "duration": 0.23076899999999867
                },
                {
                    "name": "B3",
                    "midi": 59,
                    "time": 17.999981999999996,
                    "velocity": 0.7874015748031497,
                    "duration": 0.23076899999999867
                },
                {
                    "name": "G2",
                    "midi": 43,
                    "time": 17.999981999999996,
                    "velocity": 0.7874015748031497,
                    "duration": 0.692306999999996
                },
                {
                    "name": "G3",
                    "midi": 55,
                    "time": 18.230750999999994,
                    "velocity": 0.7874015748031497,
                    "duration": 0.23076899999999867
                },
                {
                    "name": "B3",
                    "midi": 59,
                    "time": 18.461519999999993,
                    "velocity": 0.7874015748031497,
                    "duration": 0.23076899999999867
                },
                {
                    "name": "E3",
                    "midi": 52,
                    "time": 18.69228899999999,
                    "velocity": 0.7874015748031497,
                    "duration": 0.4615380000000009
                },
                {
                    "name": "G4",
                    "midi": 67,
                    "time": 18.69228899999999,
                    "velocity": 0.7874015748031497,
                    "duration": 0.4615380000000009
                },
                {
                    "name": "D3",
                    "midi": 50,
                    "time": 19.153826999999993,
                    "velocity": 0.7874015748031497,
                    "duration": 0.23076899999999867
                },
                {
                    "name": "F#4",
                    "midi": 66,
                    "time": 19.153826999999993,
                    "velocity": 0.7874015748031497,
                    "duration": 0.23076899999999867
                },
                {
                    "name": "C3",
                    "midi": 48,
                    "time": 19.38459599999999,
                    "velocity": 0.7874015748031497,
                    "duration": 0.4615380000000009
                },
                {
                    "name": "E4",
                    "midi": 64,
                    "time": 19.38459599999999,
                    "velocity": 0.7874015748031497,
                    "duration": 0.4615380000000009
                },
                {
                    "name": "B2",
                    "midi": 47,
                    "time": 19.846133999999992,
                    "velocity": 0.7874015748031497,
                    "duration": 0.23076899999999867
                },
                {
                    "name": "D4",
                    "midi": 62,
                    "time": 19.846133999999992,
                    "velocity": 0.7874015748031497,
                    "duration": 0.23076899999999867
                },
                {
                    "name": "D4",
                    "midi": 62,
                    "time": 20.07690299999999,
                    "velocity": 0.7874015748031497,
                    "duration": 0.4615380000000009
                },
                {
                    "name": "C4",
                    "midi": 60,
                    "time": 20.53844099999999,
                    "velocity": 0.7874015748031497,
                    "duration": 0.23076899999999867
                },
                {
                    "name": "D3",
                    "midi": 50,
                    "time": 20.76920999999999,
                    "velocity": 0.7874015748031497,
                    "duration": 1.1153834999999965
                },
                {
                    "name": "B3",
                    "midi": 59,
                    "time": 20.76920999999999,
                    "velocity": 0.7874015748031497,
                    "duration": 0.23076899999999867
                },
                {
                    "name": "G3",
                    "midi": 55,
                    "time": 20.99997899999999,
                    "velocity": 0.7874015748031497,
                    "duration": 0.23076899999999867
                },
                {
                    "name": "B3",
                    "midi": 59,
                    "time": 21.230747999999988,
                    "velocity": 0.7874015748031497,
                    "duration": 0.23076899999999867
                },
                {
                    "name": "C4",
                    "midi": 60,
                    "time": 21.461516999999986,
                    "velocity": 0.7874015748031497,
                    "duration": 0.4615380000000009
                },
                {
                    "name": "F#2",
                    "midi": 42,
                    "time": 21.923054999999987,
                    "velocity": 0.7874015748031497,
                    "duration": 0.23076899999999867
                },
                {
                    "name": "A3",
                    "midi": 57,
                    "time": 21.923054999999987,
                    "velocity": 0.7874015748031497,
                    "duration": 0.23076899999999867
                },
                {
                    "name": "G2",
                    "midi": 43,
                    "time": 22.153823999999986,
                    "velocity": 1,
                    "duration": 1.3846139999999956
                },
                {
                    "name": "B2",
                    "midi": 47,
                    "time": 22.211516249999985,
                    "velocity": 0.7874015748031497,
                    "duration": 0.5961532499999969
                },
                {
                    "name": "D3",
                    "midi": 50,
                    "time": 22.269208499999984,
                    "velocity": 0.7874015748031497,
                    "duration": 0.5384609999999981
                },
                {
                    "name": "G3",
                    "midi": 55,
                    "time": 22.326900749999982,
                    "velocity": 0.7874015748031497,
                    "duration": 0.5192302499999997
                },
                {
                    "name": "E4",
                    "midi": 64,
                    "time": 22.846130999999982,
                    "velocity": 0.7874015748031497,
                    "duration": 0.4615380000000009
                },
                {
                    "name": "F#4",
                    "midi": 66,
                    "time": 23.307668999999983,
                    "velocity": 0.7874015748031497,
                    "duration": 0.23076899999999867
                },
                {
                    "name": "G4",
                    "midi": 67,
                    "time": 23.53843799999998,
                    "velocity": 0.7874015748031497,
                    "duration": 0.23076899999999867
                },
                {
                    "name": "E3",
                    "midi": 52,
                    "time": 23.53843799999998,
                    "velocity": 0.7874015748031497,
                    "duration": 1.3846139999999956
                },
                {
                    "name": "F#4",
                    "midi": 66,
                    "time": 23.76920699999998,
                    "velocity": 0.7874015748031497,
                    "duration": 0.23076899999999867
                },
                {
                    "name": "E4",
                    "midi": 64,
                    "time": 23.99997599999998,
                    "velocity": 0.7874015748031497,
                    "duration": 0.23076899999999867
                },
                {
                    "name": "B4",
                    "midi": 71,
                    "time": 24.230744999999978,
                    "velocity": 0.7874015748031497,
                    "duration": 0.4615380000000009
                },
                {
                    "name": "C5",
                    "midi": 72,
                    "time": 24.69228299999998,
                    "velocity": 0.7874015748031497,
                    "duration": 0.23076899999999867
                },
                {
                    "name": "E2",
                    "midi": 40,
                    "time": 24.923051999999977,
                    "velocity": 0.7874015748031497,
                    "duration": 0.6923069999999996
                },
                {
                    "name": "B4",
                    "midi": 71,
                    "time": 24.923051999999977,
                    "velocity": 0.7874015748031497,
                    "duration": 0.6923069999999996
                },
                {
                    "name": "B4",
                    "midi": 71,
                    "time": 25.615358999999977,
                    "velocity": 0.7874015748031497,
                    "duration": 0.4615380000000009
                },
                {
                    "name": "A4",
                    "midi": 69,
                    "time": 26.076896999999978,
                    "velocity": 0.7874015748031497,
                    "duration": 0.23076899999999867
                },
                {
                    "name": "G4",
                    "midi": 67,
                    "time": 26.307665999999976,
                    "velocity": 0.7874015748031497,
                    "duration": 0.23076899999999867
                },
                {
                    "name": "E3",
                    "midi": 52,
                    "time": 26.307665999999976,
                    "velocity": 0.7874015748031497,
                    "duration": 1.3846139999999956
                },
                {
                    "name": "F#4",
                    "midi": 66,
                    "time": 26.538434999999975,
                    "velocity": 0.7874015748031497,
                    "duration": 0.23076899999999867
                },
                {
                    "name": "E4",
                    "midi": 64,
                    "time": 26.769203999999974,
                    "velocity": 0.7874015748031497,
                    "duration": 0.23076899999999867
                },
                {
                    "name": "D#4",
                    "midi": 63,
                    "time": 26.999972999999972,
                    "velocity": 0.7874015748031497,
                    "duration": 0.4615380000000009
                },
                {
                    "name": "E4",
                    "midi": 64,
                    "time": 27.461510999999973,
                    "velocity": 0.7874015748031497,
                    "duration": 0.23076899999999867
                },
                {
                    "name": "F#4",
                    "midi": 66,
                    "time": 27.692279999999972,
                    "velocity": 0.7874015748031497,
                    "duration": 0.4615380000000009
                },
                {
                    "name": "B2",
                    "midi": 47,
                    "time": 27.692279999999972,
                    "velocity": 0.7874015748031497,
                    "duration": 0.6923069999999996
                },
                {
                    "name": "B3",
                    "midi": 59,
                    "time": 28.153817999999973,
                    "velocity": 0.7874015748031497,
                    "duration": 0.23076899999999867
                },
                {
                    "name": "E4",
                    "midi": 64,
                    "time": 28.38458699999997,
                    "velocity": 0.7874015748031497,
                    "duration": 0.4615380000000009
                },
                {
                    "name": "F#4",
                    "midi": 66,
                    "time": 28.846124999999972,
                    "velocity": 0.7874015748031497,
                    "duration": 0.23076899999999867
                },
                {
                    "name": "G4",
                    "midi": 67,
                    "time": 29.07689399999997,
                    "velocity": 0.7874015748031497,
                    "duration": 0.23076899999999867
                },
                {
                    "name": "E3",
                    "midi": 52,
                    "time": 29.07689399999997,
                    "velocity": 0.7874015748031497,
                    "duration": 1.3846139999999956
                },
                {
                    "name": "F#4",
                    "midi": 66,
                    "time": 29.30766299999997,
                    "velocity": 0.7874015748031497,
                    "duration": 0.23076899999999867
                },
                {
                    "name": "E4",
                    "midi": 64,
                    "time": 29.53843199999997,
                    "velocity": 0.7874015748031497,
                    "duration": 0.23076899999999867
                },
                {
                    "name": "B4",
                    "midi": 71,
                    "time": 29.769200999999967,
                    "velocity": 0.7874015748031497,
                    "duration": 0.4615380000000009
                },
                {
                    "name": "C5",
                    "midi": 72,
                    "time": 30.230738999999968,
                    "velocity": 0.7874015748031497,
                    "duration": 0.23076899999999867
                },
                {
                    "name": "B4",
                    "midi": 71,
                    "time": 30.461507999999967,
                    "velocity": 0.7874015748031497,
                    "duration": 0.6923069999999996
                },
                {
                    "name": "E2",
                    "midi": 40,
                    "time": 30.461507999999967,
                    "velocity": 0.7874015748031497,
                    "duration": 0.6923069999999996
                },
                {
                    "name": "B4",
                    "midi": 71,
                    "time": 31.153814999999966,
                    "velocity": 0.7874015748031497,
                    "duration": 0.4615380000000009
                },
                {
                    "name": "A4",
                    "midi": 69,
                    "time": 31.615352999999967,
                    "velocity": 0.7874015748031497,
                    "duration": 0.23076899999999867
                },
                {
                    "name": "G4",
                    "midi": 67,
                    "time": 31.846121999999966,
                    "velocity": 0.7874015748031497,
                    "duration": 0.23076900000000222
                },
                {
                    "name": "E3",
                    "midi": 52,
                    "time": 31.846121999999966,
                    "velocity": 0.7874015748031497,
                    "duration": 0.6923070000000067
                },
                {
                    "name": "F#4",
                    "midi": 66,
                    "time": 32.07689099999997,
                    "velocity": 0.7874015748031497,
                    "duration": 0.23076900000000222
                },
                {
                    "name": "E4",
                    "midi": 64,
                    "time": 32.30765999999997,
                    "velocity": 0.7874015748031497,
                    "duration": 0.23076900000000222
                },
                {
                    "name": "F#4",
                    "midi": 66,
                    "time": 32.53842899999997,
                    "velocity": 0.7874015748031497,
                    "duration": 0.23076900000000222
                },
                {
                    "name": "B2",
                    "midi": 47,
                    "time": 32.53842899999997,
                    "velocity": 0.7874015748031497,
                    "duration": 0.6923070000000067
                },
                {
                    "name": "D#4",
                    "midi": 63,
                    "time": 32.769197999999975,
                    "velocity": 0.7874015748031497,
                    "duration": 0.23076900000000222
                },
                {
                    "name": "F#4",
                    "midi": 66,
                    "time": 32.99996699999998,
                    "velocity": 0.7874015748031497,
                    "duration": 0.23076900000000222
                },
                {
                    "name": "E2",
                    "midi": 40,
                    "time": 33.23073599999998,
                    "velocity": 0.7874015748031497,
                    "duration": 0.6923070000000067
                },
                {
                    "name": "E3",
                    "midi": 52,
                    "time": 33.28842824999998,
                    "velocity": 0.7874015748031497,
                    "duration": 0.576922500000002
                },
                {
                    "name": "G3",
                    "midi": 55,
                    "time": 33.346120499999984,
                    "velocity": 0.7874015748031497,
                    "duration": 0.5192302499999997
                },
                {
                    "name": "B3",
                    "midi": 59,
                    "time": 33.403812749999986,
                    "velocity": 0.7874015748031497,
                    "duration": 0.4038457500000021
                },
                {
                    "name": "E4",
                    "midi": 64,
                    "time": 33.46150499999999,
                    "velocity": 0.7874015748031497,
                    "duration": 0.3846149999999966
                },
                {
                    "name": "G4",
                    "midi": 67,
                    "time": 33.923042999999986,
                    "velocity": 0.7874015748031497,
                    "duration": 0.23076900000000222
                },
                {
                    "name": "F#4",
                    "midi": 66,
                    "time": 34.15381199999999,
                    "velocity": 0.7874015748031497,
                    "duration": 0.23076900000000222
                },
                {
                    "name": "E4",
                    "midi": 64,
                    "time": 34.38458099999999,
                    "velocity": 0.7874015748031497,
                    "duration": 0.23076900000000222
                },
                {
                    "name": "D#4",
                    "midi": 63,
                    "time": 34.61534999999999,
                    "velocity": 0.7874015748031497,
                    "duration": 2.7692280000000054
                },
                {
                    "name": "B2",
                    "midi": 47,
                    "time": 35.07688799999999,
                    "velocity": 1,
                    "duration": 0.23076900000000222
                },
                {
                    "name": "A3",
                    "midi": 57,
                    "time": 35.07688799999999,
                    "velocity": 1,
                    "duration": 0.23076900000000222
                },
                {
                    "name": "B2",
                    "midi": 47,
                    "time": 35.30765699999999,
                    "velocity": 1,
                    "duration": 0.46153799999999734
                },
                {
                    "name": "B3",
                    "midi": 59,
                    "time": 35.30765699999999,
                    "velocity": 1,
                    "duration": 0.46153799999999734
                },
                {
                    "name": "B2",
                    "midi": 47,
                    "time": 35.76919499999999,
                    "velocity": 1,
                    "duration": 0.23076900000000222
                },
                {
                    "name": "B3",
                    "midi": 59,
                    "time": 35.76919499999999,
                    "velocity": 1,
                    "duration": 0.23076900000000222
                },
                {
                    "name": "B2",
                    "midi": 47,
                    "time": 35.99996399999999,
                    "velocity": 1,
                    "duration": 0.6923069999999996
                },
                {
                    "name": "B3",
                    "midi": 59,
                    "time": 35.99996399999999,
                    "velocity": 1,
                    "duration": 0.6923069999999996
                },
                {
                    "name": "A4",
                    "midi": 69,
                    "time": 36.69227099999999,
                    "velocity": 0.7874015748031497,
                    "duration": 0.23076900000000222
                },
                {
                    "name": "G4",
                    "midi": 67,
                    "time": 36.92303999999999,
                    "velocity": 0.7874015748031497,
                    "duration": 0.23076900000000222
                },
                {
                    "name": "F#4",
                    "midi": 66,
                    "time": 37.153808999999995,
                    "velocity": 0.7874015748031497,
                    "duration": 0.23076900000000222
                },
                {
                    "name": "E4",
                    "midi": 64,
                    "time": 37.384578,
                    "velocity": 0.7874015748031497,
                    "duration": 2.538459000000003
                },
                {
                    "name": "E2",
                    "midi": 40,
                    "time": 37.846115999999995,
                    "velocity": 1,
                    "duration": 0.23076900000000222
                },
                {
                    "name": "E3",
                    "midi": 52,
                    "time": 37.846115999999995,
                    "velocity": 1,
                    "duration": 0.23076900000000222
                },
                {
                    "name": "E2",
                    "midi": 40,
                    "time": 38.076885,
                    "velocity": 1,
                    "duration": 0.46153799999999734
                },
                {
                    "name": "E3",
                    "midi": 52,
                    "time": 38.076885,
                    "velocity": 1,
                    "duration": 0.46153799999999734
                },
                {
                    "name": "E3",
                    "midi": 52,
                    "time": 38.538422999999995,
                    "velocity": 1,
                    "duration": 0.23076900000000222
                },
                {
                    "name": "E2",
                    "midi": 40,
                    "time": 38.538422999999995,
                    "velocity": 1,
                    "duration": 0.23076900000000222
                },
                {
                    "name": "E2",
                    "midi": 40,
                    "time": 38.769192,
                    "velocity": 0.9212598425196851,
                    "duration": 1.3846140000000062
                },
                {
                    "name": "B2",
                    "midi": 47,
                    "time": 38.82688425,
                    "velocity": 0.7874015748031497,
                    "duration": 0.8076915000000042
                },
                {
                    "name": "E3",
                    "midi": 52,
                    "time": 38.8845765,
                    "velocity": 0.7874015748031497,
                    "duration": 0.7499992500000019
                },
                {
                    "name": "E4",
                    "midi": 64,
                    "time": 39.461499,
                    "velocity": 0.7874015748031497,
                    "duration": 0.6923069999999996
                },
                {
                    "name": "F#4",
                    "midi": 66,
                    "time": 39.923037,
                    "velocity": 0.7874015748031497,
                    "duration": 0.23076900000000222
                },
                {
                    "name": "G4",
                    "midi": 67,
                    "time": 40.153806,
                    "velocity": 0.7874015748031497,
                    "duration": 0.23076900000000222
                },
                {
                    "name": "D3",
                    "midi": 50,
                    "time": 40.153806,
                    "velocity": 0.7874015748031497,
                    "duration": 1.3846140000000062
                },
                {
                    "name": "F#4",
                    "midi": 66,
                    "time": 40.384575000000005,
                    "velocity": 0.7874015748031497,
                    "duration": 0.23076900000000222
                },
                {
                    "name": "E4",
                    "midi": 64,
                    "time": 40.61534400000001,
                    "velocity": 0.7874015748031497,
                    "duration": 0.23076900000000222
                },
                {
                    "name": "B4",
                    "midi": 71,
                    "time": 40.84611300000001,
                    "velocity": 0.7874015748031497,
                    "duration": 0.46153799999999734
                },
                {
                    "name": "C5",
                    "midi": 72,
                    "time": 41.30765100000001,
                    "velocity": 0.7874015748031497,
                    "duration": 0.23076900000000222
                },
                {
                    "name": "E2",
                    "midi": 40,
                    "time": 41.53842000000001,
                    "velocity": 0.7874015748031497,
                    "duration": 0.6923069999999996
                },
                {
                    "name": "B4",
                    "midi": 71,
                    "time": 41.53842000000001,
                    "velocity": 0.7874015748031497,
                    "duration": 0.6923069999999996
                },
                {
                    "name": "B4",
                    "midi": 71,
                    "time": 42.23072700000001,
                    "velocity": 0.7874015748031497,
                    "duration": 0.46153799999999734
                },
                {
                    "name": "A4",
                    "midi": 69,
                    "time": 42.692265000000006,
                    "velocity": 0.7874015748031497,
                    "duration": 0.23076900000000222
                },
                {
                    "name": "G4",
                    "midi": 67,
                    "time": 42.92303400000001,
                    "velocity": 0.7874015748031497,
                    "duration": 0.23076900000000222
                },
                {
                    "name": "E3",
                    "midi": 52,
                    "time": 42.92303400000001,
                    "velocity": 0.7874015748031497,
                    "duration": 0.6923070000000067
                },
                {
                    "name": "F#4",
                    "midi": 66,
                    "time": 43.15380300000001,
                    "velocity": 0.7874015748031497,
                    "duration": 0.23076900000000222
                },
                {
                    "name": "E4",
                    "midi": 64,
                    "time": 43.38457200000001,
                    "velocity": 0.7874015748031497,
                    "duration": 0.23076900000000222
                },
                {
                    "name": "F#4",
                    "midi": 66,
                    "time": 43.615341000000015,
                    "velocity": 0.7874015748031497,
                    "duration": 0.23076900000000222
                },
                {
                    "name": "B2",
                    "midi": 47,
                    "time": 43.615341000000015,
                    "velocity": 0.7874015748031497,
                    "duration": 0.6923070000000067
                },
                {
                    "name": "E4",
                    "midi": 64,
                    "time": 43.84611000000002,
                    "velocity": 0.7874015748031497,
                    "duration": 0.23076900000000222
                },
                {
                    "name": "D#4",
                    "midi": 63,
                    "time": 44.07687900000002,
                    "velocity": 0.7874015748031497,
                    "duration": 0.23076900000000222
                },
                {
                    "name": "E2",
                    "midi": 40,
                    "time": 44.30764800000002,
                    "velocity": 0.7874015748031497,
                    "duration": 0.6923070000000067
                },
                {
                    "name": "E3",
                    "midi": 52,
                    "time": 44.365340250000024,
                    "velocity": 0.7874015748031497,
                    "duration": 0.576922500000002
                },
                {
                    "name": "G3",
                    "midi": 55,
                    "time": 44.423032500000026,
                    "velocity": 0.7874015748031497,
                    "duration": 0.5192302499999997
                },
                {
                    "name": "B3",
                    "midi": 59,
                    "time": 44.48072475000003,
                    "velocity": 0.7874015748031497,
                    "duration": 0.4038457500000021
                },
                {
                    "name": "E4",
                    "midi": 64,
                    "time": 44.53841700000003,
                    "velocity": 0.7874015748031497,
                    "duration": 0.3846149999999966
                },
                {
                    "name": "D4",
                    "midi": 62,
                    "time": 44.99995500000003,
                    "velocity": 0.7874015748031497,
                    "duration": 0.46153799999999734
                },
                {
                    "name": "C4",
                    "midi": 60,
                    "time": 45.461493000000026,
                    "velocity": 0.7874015748031497,
                    "duration": 0.23076900000000222
                },
                {
                    "name": "B3",
                    "midi": 59,
                    "time": 45.69226200000003,
                    "velocity": 0.7874015748031497,
                    "duration": 0.23076900000000222
                },
                {
                    "name": "G2",
                    "midi": 43,
                    "time": 45.69226200000003,
                    "velocity": 0.7874015748031497,
                    "duration": 0.6923070000000067
                },
                {
                    "name": "G3",
                    "midi": 55,
                    "time": 45.92303100000003,
                    "velocity": 0.7874015748031497,
                    "duration": 0.23076900000000222
                },
                {
                    "name": "B3",
                    "midi": 59,
                    "time": 46.15380000000003,
                    "velocity": 0.7874015748031497,
                    "duration": 0.23076900000000222
                },
                {
                    "name": "E3",
                    "midi": 52,
                    "time": 46.384569000000035,
                    "velocity": 0.7874015748031497,
                    "duration": 0.46153799999999734
                },
                {
                    "name": "G4",
                    "midi": 67,
                    "time": 46.384569000000035,
                    "velocity": 0.7874015748031497,
                    "duration": 0.46153799999999734
                },
                {
                    "name": "D3",
                    "midi": 50,
                    "time": 46.84610700000003,
                    "velocity": 0.7874015748031497,
                    "duration": 0.23076900000000222
                },
                {
                    "name": "F#4",
                    "midi": 66,
                    "time": 46.84610700000003,
                    "velocity": 0.7874015748031497,
                    "duration": 0.23076900000000222
                },
                {
                    "name": "E4",
                    "midi": 64,
                    "time": 47.076876000000034,
                    "velocity": 0.7874015748031497,
                    "duration": 0.46153799999999734
                },
                {
                    "name": "C3",
                    "midi": 48,
                    "time": 47.076876000000034,
                    "velocity": 0.7874015748031497,
                    "duration": 0.46153799999999734
                },
                {
                    "name": "B2",
                    "midi": 47,
                    "time": 47.53841400000003,
                    "velocity": 0.7874015748031497,
                    "duration": 0.23076900000000222
                },
                {
                    "name": "D4",
                    "midi": 62,
                    "time": 47.53841400000003,
                    "velocity": 0.7874015748031497,
                    "duration": 0.23076900000000222
                },
                {
                    "name": "D4",
                    "midi": 62,
                    "time": 47.769183000000034,
                    "velocity": 0.7874015748031497,
                    "duration": 0.46153799999999734
                },
                {
                    "name": "C4",
                    "midi": 60,
                    "time": 48.23072100000003,
                    "velocity": 0.7874015748031497,
                    "duration": 0.23076900000000222
                },
                {
                    "name": "B3",
                    "midi": 59,
                    "time": 48.46149000000003,
                    "velocity": 0.7874015748031497,
                    "duration": 0.23076900000000222
                },
                {
                    "name": "G2",
                    "midi": 43,
                    "time": 48.46149000000003,
                    "velocity": 0.7874015748031497,
                    "duration": 0.6923070000000067
                },
                {
                    "name": "G3",
                    "midi": 55,
                    "time": 48.692259000000035,
                    "velocity": 0.7874015748031497,
                    "duration": 0.23076900000000222
                },
                {
                    "name": "B3",
                    "midi": 59,
                    "time": 48.92302800000004,
                    "velocity": 0.7874015748031497,
                    "duration": 0.23076900000000222
                },
                {
                    "name": "C4",
                    "midi": 60,
                    "time": 49.15379700000004,
                    "velocity": 0.7874015748031497,
                    "duration": 0.46153799999999734
                },
                {
                    "name": "A2",
                    "midi": 45,
                    "time": 49.15379700000004,
                    "velocity": 0.7874015748031497,
                    "duration": 0.46153799999999734
                },
                {
                    "name": "B3",
                    "midi": 59,
                    "time": 49.61533500000004,
                    "velocity": 0.7874015748031497,
                    "duration": 0.23076900000000222
                },
                {
                    "name": "G2",
                    "midi": 43,
                    "time": 49.61533500000004,
                    "velocity": 0.7874015748031497,
                    "duration": 0.23076900000000222
                },
                {
                    "name": "A3",
                    "midi": 57,
                    "time": 49.84610400000004,
                    "velocity": 0.7874015748031497,
                    "duration": 0.46153799999999734
                },
                {
                    "name": "D3",
                    "midi": 50,
                    "time": 49.84610400000004,
                    "velocity": 0.7874015748031497,
                    "duration": 0.6923069999999996
                },
                {
                    "name": "F#2",
                    "midi": 42,
                    "time": 49.84610400000004,
                    "velocity": 0.7874015748031497,
                    "duration": 0.6923069999999996
                },
                {
                    "name": "A3",
                    "midi": 57,
                    "time": 50.30764200000004,
                    "velocity": 0.7874015748031497,
                    "duration": 0.23076900000000222
                },
                {
                    "name": "D4",
                    "midi": 62,
                    "time": 50.53841100000004,
                    "velocity": 0.7874015748031497,
                    "duration": 0.46153799999999734
                },
                {
                    "name": "C4",
                    "midi": 60,
                    "time": 50.999949000000036,
                    "velocity": 0.7874015748031497,
                    "duration": 0.23076900000000222
                },
                {
                    "name": "B3",
                    "midi": 59,
                    "time": 51.23071800000004,
                    "velocity": 0.7874015748031497,
                    "duration": 0.23076900000000222
                },
                {
                    "name": "G2",
                    "midi": 43,
                    "time": 51.23071800000004,
                    "velocity": 0.7874015748031497,
                    "duration": 0.6923070000000067
                },
                {
                    "name": "G3",
                    "midi": 55,
                    "time": 51.46148700000004,
                    "velocity": 0.7874015748031497,
                    "duration": 0.23076900000000222
                },
                {
                    "name": "B3",
                    "midi": 59,
                    "time": 51.69225600000004,
                    "velocity": 0.7874015748031497,
                    "duration": 0.23076900000000222
                },
                {
                    "name": "E3",
                    "midi": 52,
                    "time": 51.923025000000045,
                    "velocity": 0.7874015748031497,
                    "duration": 0.46153799999999734
                },
                {
                    "name": "G4",
                    "midi": 67,
                    "time": 51.923025000000045,
                    "velocity": 0.7874015748031497,
                    "duration": 0.46153799999999734
                },
                {
                    "name": "D3",
                    "midi": 50,
                    "time": 52.38456300000004,
                    "velocity": 0.7874015748031497,
                    "duration": 0.23076900000000222
                },
                {
                    "name": "F#4",
                    "midi": 66,
                    "time": 52.38456300000004,
                    "velocity": 0.7874015748031497,
                    "duration": 0.23076900000000222
                },
                {
                    "name": "E4",
                    "midi": 64,
                    "time": 52.615332000000045,
                    "velocity": 0.7874015748031497,
                    "duration": 0.46153799999999734
                },
                {
                    "name": "C3",
                    "midi": 48,
                    "time": 52.615332000000045,
                    "velocity": 0.7874015748031497,
                    "duration": 0.46153799999999734
                },
                {
                    "name": "B2",
                    "midi": 47,
                    "time": 53.07687000000004,
                    "velocity": 0.7874015748031497,
                    "duration": 0.23076900000000222
                },
                {
                    "name": "D4",
                    "midi": 62,
                    "time": 53.07687000000004,
                    "velocity": 0.7874015748031497,
                    "duration": 0.23076900000000222
                },
                {
                    "name": "D4",
                    "midi": 62,
                    "time": 53.307639000000044,
                    "velocity": 0.7874015748031497,
                    "duration": 0.46153799999999734
                },
                {
                    "name": "C4",
                    "midi": 60,
                    "time": 53.76917700000004,
                    "velocity": 0.7874015748031497,
                    "duration": 0.23076900000000222
                },
                {
                    "name": "B3",
                    "midi": 59,
                    "time": 53.999946000000044,
                    "velocity": 0.7874015748031497,
                    "duration": 0.23076900000000222
                },
                {
                    "name": "D3",
                    "midi": 50,
                    "time": 53.999946000000044,
                    "velocity": 0.7874015748031497,
                    "duration": 1.3076910000000055
                },
                {
                    "name": "G3",
                    "midi": 55,
                    "time": 54.230715000000046,
                    "velocity": 0.7874015748031497,
                    "duration": 0.23076900000000222
                },
                {
                    "name": "B3",
                    "midi": 59,
                    "time": 54.46148400000005,
                    "velocity": 0.7874015748031497,
                    "duration": 0.23076900000000222
                },
                {
                    "name": "C4",
                    "midi": 60,
                    "time": 54.69225300000005,
                    "velocity": 0.7874015748031497,
                    "duration": 0.46153799999999734
                },
                {
                    "name": "F#2",
                    "midi": 42,
                    "time": 55.15379100000005,
                    "velocity": 0.7874015748031497,
                    "duration": 0.23076900000000222
                },
                {
                    "name": "A3",
                    "midi": 57,
                    "time": 55.15379100000005,
                    "velocity": 0.7874015748031497,
                    "duration": 0.23076900000000222
                },
                {
                    "name": "G2",
                    "midi": 43,
                    "time": 55.38456000000005,
                    "velocity": 0.7874015748031497,
                    "duration": 0.9230760000000018
                },
                {
                    "name": "B2",
                    "midi": 47,
                    "time": 55.44225225000005,
                    "velocity": 0.7874015748031497,
                    "duration": 0.7499992500000019
                },
                {
                    "name": "D3",
                    "midi": 50,
                    "time": 55.499944500000055,
                    "velocity": 0.7874015748031497,
                    "duration": 0.6923069999999996
                },
                {
                    "name": "G3",
                    "midi": 55,
                    "time": 55.55763675000006,
                    "velocity": 0.7874015748031497,
                    "duration": 0.6346147499999972
                },
                {
                    "name": "G4",
                    "midi": 67,
                    "time": 56.07686700000006,
                    "velocity": 0.7874015748031497,
                    "duration": 0.46153799999999734
                },
                {
                    "name": "B4",
                    "midi": 71,
                    "time": 56.538405000000054,
                    "velocity": 0.7874015748031497,
                    "duration": 0.23076900000000222
                },
                {
                    "name": "A4",
                    "midi": 69,
                    "time": 56.769174000000056,
                    "velocity": 0.7874015748031497,
                    "duration": 0.23076900000000222
                },
                {
                    "name": "F#4",
                    "midi": 66,
                    "time": 56.99994300000006,
                    "velocity": 0.7874015748031497,
                    "duration": 0.23076900000000222
                },
                {
                    "name": "A4",
                    "midi": 69,
                    "time": 57.23071200000006,
                    "velocity": 0.7874015748031497,
                    "duration": 0.23076900000000222
                },
                {
                    "name": "A2",
                    "midi": 45,
                    "time": 57.46148100000006,
                    "velocity": 0.7874015748031497,
                    "duration": 0.46153799999999734
                },
                {
                    "name": "G4",
                    "midi": 67,
                    "time": 57.46148100000006,
                    "velocity": 0.7874015748031497,
                    "duration": 0.46153799999999734
                },
                {
                    "name": "C#3",
                    "midi": 49,
                    "time": 57.92301900000006,
                    "velocity": 0.7874015748031497,
                    "duration": 0.23076900000000222
                },
                {
                    "name": "E4",
                    "midi": 64,
                    "time": 57.92301900000006,
                    "velocity": 0.7874015748031497,
                    "duration": 0.23076900000000222
                },
                {
                    "name": "F#4",
                    "midi": 66,
                    "time": 58.15378800000006,
                    "velocity": 0.7874015748031497,
                    "duration": 0.46153799999999734
                },
                {
                    "name": "D3",
                    "midi": 50,
                    "time": 58.15378800000006,
                    "velocity": 0.7874015748031497,
                    "duration": 0.6923069999999996
                },
                {
                    "name": "D4",
                    "midi": 62,
                    "time": 58.61532600000006,
                    "velocity": 0.7874015748031497,
                    "duration": 0.23076900000000222
                },
                {
                    "name": "G4",
                    "midi": 67,
                    "time": 58.84609500000006,
                    "velocity": 0.7874015748031497,
                    "duration": 0.46153799999999734
                },
                {
                    "name": "B4",
                    "midi": 71,
                    "time": 59.30763300000006,
                    "velocity": 0.7874015748031497,
                    "duration": 0.23076900000000222
                },
                {
                    "name": "A4",
                    "midi": 69,
                    "time": 59.53840200000006,
                    "velocity": 0.7874015748031497,
                    "duration": 0.23076900000000222
                },
                {
                    "name": "F#4",
                    "midi": 66,
                    "time": 59.769171000000064,
                    "velocity": 0.7874015748031497,
                    "duration": 0.23076900000000222
                },
                {
                    "name": "A4",
                    "midi": 69,
                    "time": 59.999940000000066,
                    "velocity": 0.7874015748031497,
                    "duration": 0.23076900000000222
                },
                {
                    "name": "A2",
                    "midi": 45,
                    "time": 60.23070900000007,
                    "velocity": 0.7874015748031497,
                    "duration": 0.46153799999999734
                },
                {
                    "name": "G4",
                    "midi": 67,
                    "time": 60.23070900000007,
                    "velocity": 0.7874015748031497,
                    "duration": 0.46153799999999734
                },
                {
                    "name": "C#3",
                    "midi": 49,
                    "time": 60.692247000000066,
                    "velocity": 0.7874015748031497,
                    "duration": 0.23076900000000222
                },
                {
                    "name": "E4",
                    "midi": 64,
                    "time": 60.692247000000066,
                    "velocity": 0.7874015748031497,
                    "duration": 0.23076900000000222
                },
                {
                    "name": "D3",
                    "midi": 50,
                    "time": 60.92301600000007,
                    "velocity": 0.7874015748031497,
                    "duration": 0.6923069999999996
                },
                {
                    "name": "D4",
                    "midi": 62,
                    "time": 60.92301600000007,
                    "velocity": 0.7874015748031497,
                    "duration": 0.6923069999999996
                },
                {
                    "name": "D4",
                    "midi": 62,
                    "time": 61.61532300000007,
                    "velocity": 0.7874015748031497,
                    "duration": 0.46153799999999734
                },
                {
                    "name": "C4",
                    "midi": 60,
                    "time": 62.076861000000065,
                    "velocity": 0.7874015748031497,
                    "duration": 0.23076900000000222
                },
                {
                    "name": "B3",
                    "midi": 59,
                    "time": 62.30763000000007,
                    "velocity": 0.7874015748031497,
                    "duration": 0.23076900000000222
                },
                {
                    "name": "D3",
                    "midi": 50,
                    "time": 62.30763000000007,
                    "velocity": 0.7874015748031497,
                    "duration": 1.3076910000000055
                },
                {
                    "name": "G3",
                    "midi": 55,
                    "time": 62.53839900000007,
                    "velocity": 0.7874015748031497,
                    "duration": 0.23076900000000222
                },
                {
                    "name": "B3",
                    "midi": 59,
                    "time": 62.76916800000007,
                    "velocity": 0.7874015748031497,
                    "duration": 0.23076900000000222
                },
                {
                    "name": "C4",
                    "midi": 60,
                    "time": 62.999937000000074,
                    "velocity": 0.7874015748031497,
                    "duration": 0.46153799999999734
                },
                {
                    "name": "F#2",
                    "midi": 42,
                    "time": 63.46147500000007,
                    "velocity": 0.7874015748031497,
                    "duration": 0.23076900000000222
                },
                {
                    "name": "A3",
                    "midi": 57,
                    "time": 63.46147500000007,
                    "velocity": 0.7874015748031497,
                    "duration": 0.23076900000000222
                },
                {
                    "name": "G2",
                    "midi": 43,
                    "time": 63.69224400000007,
                    "velocity": 1,
                    "duration": 1.3846140000000133
                },
                {
                    "name": "D3",
                    "midi": 50,
                    "time": 63.749936250000076,
                    "velocity": 0.7874015748031497,
                    "duration": 1.0961527500000159
                },
                {
                    "name": "G3",
                    "midi": 55,
                    "time": 63.80762850000008,
                    "velocity": 0.7874015748031497,
                    "duration": 1.0384605000000136
                },
                {
                    "name": "B3",
                    "midi": 59,
                    "time": 63.86532075000008,
                    "velocity": 0.7874015748031497,
                    "duration": 0.9807682500000112
                },
                {
                    "name": "D4",
                    "midi": 62,
                    "time": 63.92301300000008,
                    "velocity": 0.7874015748031497,
                    "duration": 0.9230760000000089
                },
                {
                    "name": "G4",
                    "midi": 67,
                    "time": 63.980705250000085,
                    "velocity": 0.7874015748031497,
                    "duration": 0.8653837500000066
                },
                {
                    "name": "F#4",
                    "midi": 66,
                    "time": 65.53839600000009,
                    "velocity": 0.7874015748031497,
                    "duration": 0.46153800000000444
                },
                {
                    "name": "A2",
                    "midi": 45,
                    "time": 65.9999340000001,
                    "velocity": 1,
                    "duration": 0.23076899999999512
                },
                {
                    "name": "G3",
                    "midi": 55,
                    "time": 65.9999340000001,
                    "velocity": 1,
                    "duration": 0.23076899999999512
                },
                {
                    "name": "E4",
                    "midi": 64,
                    "time": 65.9999340000001,
                    "velocity": 1,
                    "duration": 0.23076899999999512
                },
                {
                    "name": "A2",
                    "midi": 45,
                    "time": 66.23070300000009,
                    "velocity": 1,
                    "duration": 0.23076899999999512
                },
                {
                    "name": "G3",
                    "midi": 55,
                    "time": 66.23070300000009,
                    "velocity": 1,
                    "duration": 0.23076899999999512
                },
                {
                    "name": "E4",
                    "midi": 64,
                    "time": 66.23070300000009,
                    "velocity": 1,
                    "duration": 0.23076899999999512
                },
                {
                    "name": "A2",
                    "midi": 45,
                    "time": 66.46147200000009,
                    "velocity": 1,
                    "duration": 0.23076899999999512
                },
                {
                    "name": "G3",
                    "midi": 55,
                    "time": 66.46147200000009,
                    "velocity": 1,
                    "duration": 0.23076899999999512
                },
                {
                    "name": "E4",
                    "midi": 64,
                    "time": 66.46147200000009,
                    "velocity": 1,
                    "duration": 0.23076899999999512
                },
                {
                    "name": "G4",
                    "midi": 67,
                    "time": 66.69224100000008,
                    "velocity": 0.7874015748031497,
                    "duration": 0.11538450000000466
                },
                {
                    "name": "F#4",
                    "midi": 66,
                    "time": 66.80762550000009,
                    "velocity": 0.7874015748031497,
                    "duration": 0.11538450000000466
                },
                {
                    "name": "D4",
                    "midi": 62,
                    "time": 66.92301000000009,
                    "velocity": 0.7874015748031497,
                    "duration": 0.46153800000000444
                },
                {
                    "name": "F#3",
                    "midi": 54,
                    "time": 66.92301000000009,
                    "velocity": 0.7874015748031497,
                    "duration": 0.46153800000000444
                },
                {
                    "name": "D3",
                    "midi": 50,
                    "time": 66.92301000000009,
                    "velocity": 0.7874015748031497,
                    "duration": 0.6923069999999996
                },
                {
                    "name": "A3",
                    "midi": 57,
                    "time": 67.3845480000001,
                    "velocity": 0.7874015748031497,
                    "duration": 0.23076899999999512
                },
                {
                    "name": "F#4",
                    "midi": 66,
                    "time": 67.61531700000009,
                    "velocity": 0.7874015748031497,
                    "duration": 0.23076899999999512
                },
                {
                    "name": "A2",
                    "midi": 45,
                    "time": 67.84608600000008,
                    "velocity": 0.7874015748031497,
                    "duration": 0.23076899999999512
                },
                {
                    "name": "G3",
                    "midi": 55,
                    "time": 67.84608600000008,
                    "velocity": 0.7874015748031497,
                    "duration": 0.23076899999999512
                },
                {
                    "name": "E4",
                    "midi": 64,
                    "time": 67.84608600000008,
                    "velocity": 0.7874015748031497,
                    "duration": 0.23076899999999512
                },
                {
                    "name": "A2",
                    "midi": 45,
                    "time": 68.07685500000008,
                    "velocity": 0.7874015748031497,
                    "duration": 0.23076899999999512
                },
                {
                    "name": "G3",
                    "midi": 55,
                    "time": 68.07685500000008,
                    "velocity": 0.7874015748031497,
                    "duration": 0.23076899999999512
                },
                {
                    "name": "E4",
                    "midi": 64,
                    "time": 68.07685500000008,
                    "velocity": 0.7874015748031497,
                    "duration": 0.23076899999999512
                },
                {
                    "name": "A2",
                    "midi": 45,
                    "time": 68.30762400000008,
                    "velocity": 0.7874015748031497,
                    "duration": 0.23076899999999512
                },
                {
                    "name": "G3",
                    "midi": 55,
                    "time": 68.30762400000008,
                    "velocity": 0.7874015748031497,
                    "duration": 0.23076899999999512
                },
                {
                    "name": "E4",
                    "midi": 64,
                    "time": 68.30762400000008,
                    "velocity": 0.7874015748031497,
                    "duration": 0.23076899999999512
                },
                {
                    "name": "F#4",
                    "midi": 66,
                    "time": 68.53839300000007,
                    "velocity": 0.7874015748031497,
                    "duration": 0.11538450000000466
                },
                {
                    "name": "G4",
                    "midi": 67,
                    "time": 68.65377750000007,
                    "velocity": 0.7874015748031497,
                    "duration": 0.11538450000000466
                },
                {
                    "name": "F4",
                    "midi": 65,
                    "time": 68.76916200000008,
                    "velocity": 0.7874015748031497,
                    "duration": 0.46153800000000444
                },
                {
                    "name": "B4",
                    "midi": 71,
                    "time": 68.76916200000008,
                    "velocity": 0.7874015748031497,
                    "duration": 0.46153800000000444
                },
                {
                    "name": "D3",
                    "midi": 50,
                    "time": 68.76916200000008,
                    "velocity": 0.7874015748031497,
                    "duration": 0.6923069999999996
                },
                {
                    "name": "F#4",
                    "midi": 66,
                    "time": 69.23070000000008,
                    "velocity": 0.7874015748031497,
                    "duration": 0.23076899999999512
                },
                {
                    "name": "A4",
                    "midi": 69,
                    "time": 69.23070000000008,
                    "velocity": 0.7874015748031497,
                    "duration": 0.23076899999999512
                },
                {
                    "name": "F#4",
                    "midi": 66,
                    "time": 69.46146900000008,
                    "velocity": 0.7874015748031497,
                    "duration": 0.23076899999999512
                },
                {
                    "name": "A2",
                    "midi": 45,
                    "time": 69.69223800000007,
                    "velocity": 1,
                    "duration": 0.23076899999999512
                },
                {
                    "name": "G3",
                    "midi": 55,
                    "time": 69.69223800000007,
                    "velocity": 1,
                    "duration": 0.23076899999999512
                },
                {
                    "name": "E4",
                    "midi": 64,
                    "time": 69.69223800000007,
                    "velocity": 1,
                    "duration": 0.23076899999999512
                },
                {
                    "name": "A2",
                    "midi": 45,
                    "time": 69.92300700000007,
                    "velocity": 1,
                    "duration": 0.23076899999999512
                },
                {
                    "name": "G3",
                    "midi": 55,
                    "time": 69.92300700000007,
                    "velocity": 1,
                    "duration": 0.23076899999999512
                },
                {
                    "name": "E4",
                    "midi": 64,
                    "time": 69.92300700000007,
                    "velocity": 1,
                    "duration": 0.23076899999999512
                },
                {
                    "name": "A2",
                    "midi": 45,
                    "time": 70.15377600000006,
                    "velocity": 1,
                    "duration": 0.23076899999999512
                },
                {
                    "name": "G3",
                    "midi": 55,
                    "time": 70.15377600000006,
                    "velocity": 1,
                    "duration": 0.23076899999999512
                },
                {
                    "name": "E4",
                    "midi": 64,
                    "time": 70.15377600000006,
                    "velocity": 1,
                    "duration": 0.23076899999999512
                },
                {
                    "name": "G4",
                    "midi": 67,
                    "time": 70.38454500000006,
                    "velocity": 0.7874015748031497,
                    "duration": 0.11538450000000466
                },
                {
                    "name": "F#4",
                    "midi": 66,
                    "time": 70.49992950000006,
                    "velocity": 0.7874015748031497,
                    "duration": 0.11538450000000466
                },
                {
                    "name": "D4",
                    "midi": 62,
                    "time": 70.61531400000007,
                    "velocity": 0.7874015748031497,
                    "duration": 0.46153800000000444
                },
                {
                    "name": "F#3",
                    "midi": 54,
                    "time": 70.61531400000007,
                    "velocity": 0.7874015748031497,
                    "duration": 0.46153800000000444
                },
                {
                    "name": "D3",
                    "midi": 50,
                    "time": 70.61531400000007,
                    "velocity": 0.7874015748031497,
                    "duration": 0.6923069999999996
                },
                {
                    "name": "A3",
                    "midi": 57,
                    "time": 71.07685200000007,
                    "velocity": 0.7874015748031497,
                    "duration": 0.23076899999999512
                },
                {
                    "name": "F#4",
                    "midi": 66,
                    "time": 71.30762100000007,
                    "velocity": 0.7874015748031497,
                    "duration": 0.23076899999999512
                },
                {
                    "name": "B3",
                    "midi": 59,
                    "time": 71.53839000000006,
                    "velocity": 0.7874015748031497,
                    "duration": 0.23076899999999512
                },
                {
                    "name": "G3",
                    "midi": 55,
                    "time": 71.53839000000006,
                    "velocity": 0.7874015748031497,
                    "duration": 0.46153799999999023
                },
                {
                    "name": "G2",
                    "midi": 43,
                    "time": 71.53839000000006,
                    "velocity": 0.7874015748031497,
                    "duration": 0.46153799999999023
                },
                {
                    "name": "D4",
                    "midi": 62,
                    "time": 71.76915900000006,
                    "velocity": 0.7874015748031497,
                    "duration": 0.23076899999999512
                },
                {
                    "name": "C#4",
                    "midi": 61,
                    "time": 71.99992800000005,
                    "velocity": 0.7874015748031497,
                    "duration": 0.23076899999999512
                },
                {
                    "name": "G3",
                    "midi": 55,
                    "time": 71.99992800000005,
                    "velocity": 0.7874015748031497,
                    "duration": 0.46153799999999023
                },
                {
                    "name": "G2",
                    "midi": 43,
                    "time": 71.99992800000005,
                    "velocity": 0.7874015748031497,
                    "duration": 0.46153799999999023
                },
                {
                    "name": "E4",
                    "midi": 64,
                    "time": 72.23069700000005,
                    "velocity": 0.7874015748031497,
                    "duration": 0.23076899999999512
                },
                {
                    "name": "D3",
                    "midi": 50,
                    "time": 72.46146600000004,
                    "velocity": 0.7874015748031497,
                    "duration": 0.9230759999999947
                },
                {
                    "name": "F#3",
                    "midi": 54,
                    "time": 72.46146600000004,
                    "velocity": 0.7874015748031497,
                    "duration": 0.9230759999999947
                },
                {
                    "name": "D4",
                    "midi": 62,
                    "time": 72.46146600000004,
                    "velocity": 0.7874015748031497,
                    "duration": 0.6923069999999996
                },
                {
                    "name": "F#4",
                    "midi": 66,
                    "time": 73.15377300000004,
                    "velocity": 0.7874015748031497,
                    "duration": 0.23076899999999512
                },
                {
                    "name": "F#4",
                    "midi": 66,
                    "time": 73.38454200000004,
                    "velocity": 0.7874015748031497,
                    "duration": 0.11538450000000466
                },
                {
                    "name": "B2",
                    "midi": 47,
                    "time": 73.38454200000004,
                    "velocity": 0.7874015748031497,
                    "duration": 0.23076900000000933
                },
                {
                    "name": "G4",
                    "midi": 67,
                    "time": 73.49992650000004,
                    "velocity": 0.7874015748031497,
                    "duration": 0.11538450000000466
                },
                {
                    "name": "F#4",
                    "midi": 66,
                    "time": 73.61531100000005,
                    "velocity": 0.7874015748031497,
                    "duration": 0.11538450000000466
                },
                {
                    "name": "B2",
                    "midi": 47,
                    "time": 73.61531100000005,
                    "velocity": 0.7874015748031497,
                    "duration": 0.23076900000000933
                },
                {
                    "name": "G4",
                    "midi": 67,
                    "time": 73.73069550000005,
                    "velocity": 0.7874015748031497,
                    "duration": 0.11538450000000466
                },
                {
                    "name": "F#4",
                    "midi": 66,
                    "time": 73.84608000000006,
                    "velocity": 0.7874015748031497,
                    "duration": 0.11538450000000466
                },
                {
                    "name": "B2",
                    "midi": 47,
                    "time": 73.84608000000006,
                    "velocity": 0.7874015748031497,
                    "duration": 0.23076900000000933
                },
                {
                    "name": "E4",
                    "midi": 64,
                    "time": 73.96146450000006,
                    "velocity": 0.7874015748031497,
                    "duration": 0.11538450000000466
                },
                {
                    "name": "D4",
                    "midi": 62,
                    "time": 74.07684900000007,
                    "velocity": 0.7874015748031497,
                    "duration": 0.11538450000000466
                },
                {
                    "name": "B2",
                    "midi": 47,
                    "time": 74.07684900000007,
                    "velocity": 0.7874015748031497,
                    "duration": 0.23076900000000933
                },
                {
                    "name": "C#4",
                    "midi": 61,
                    "time": 74.19223350000007,
                    "velocity": 0.7874015748031497,
                    "duration": 0.11538450000000466
                },
                {
                    "name": "B3",
                    "midi": 59,
                    "time": 74.30761800000008,
                    "velocity": 0.7874015748031497,
                    "duration": 0.23076899999999512
                },
                {
                    "name": "B2",
                    "midi": 47,
                    "time": 74.30761800000008,
                    "velocity": 0.7874015748031497,
                    "duration": 0.6923069999999854
                },
                {
                    "name": "F#3",
                    "midi": 54,
                    "time": 74.53838700000007,
                    "velocity": 0.7874015748031497,
                    "duration": 0.23076899999999512
                },
                {
                    "name": "F#3",
                    "midi": 54,
                    "time": 74.76915600000007,
                    "velocity": 0.7874015748031497,
                    "duration": 0.23076899999999512
                },
                {
                    "name": "B3",
                    "midi": 59,
                    "time": 74.99992500000006,
                    "velocity": 0.7874015748031497,
                    "duration": 0.23076899999999512
                },
                {
                    "name": "A#3",
                    "midi": 58,
                    "time": 75.23069400000006,
                    "velocity": 0.7874015748031497,
                    "duration": 0.6923069999999996
                },
                {
                    "name": "C#4",
                    "midi": 61,
                    "time": 75.23069400000006,
                    "velocity": 0.7874015748031497,
                    "duration": 0.23076899999999512
                },
                {
                    "name": "F#2",
                    "midi": 42,
                    "time": 75.23069400000006,
                    "velocity": 0.7874015748031497,
                    "duration": 0.23076899999999512
                },
                {
                    "name": "C#4",
                    "midi": 61,
                    "time": 75.46146300000005,
                    "velocity": 0.7874015748031497,
                    "duration": 0.23076899999999512
                },
                {
                    "name": "F#2",
                    "midi": 42,
                    "time": 75.46146300000005,
                    "velocity": 0.7874015748031497,
                    "duration": 0.23076899999999512
                },
                {
                    "name": "D4",
                    "midi": 62,
                    "time": 75.69223200000005,
                    "velocity": 0.7874015748031497,
                    "duration": 0.11538450000000466
                },
                {
                    "name": "F#2",
                    "midi": 42,
                    "time": 75.69223200000005,
                    "velocity": 0.7874015748031497,
                    "duration": 0.46153800000001866
                },
                {
                    "name": "C#4",
                    "midi": 61,
                    "time": 75.80761650000005,
                    "velocity": 0.7874015748031497,
                    "duration": 0.11538450000000466
                },
                {
                    "name": "B3",
                    "midi": 59,
                    "time": 75.92300100000006,
                    "velocity": 0.7874015748031497,
                    "duration": 0.11538450000000466
                },
                {
                    "name": "C#4",
                    "midi": 61,
                    "time": 76.03838550000006,
                    "velocity": 0.7874015748031497,
                    "duration": 0.11538450000000466
                },
                {
                    "name": "D4",
                    "midi": 62,
                    "time": 76.15377000000007,
                    "velocity": 0.7874015748031497,
                    "duration": 0.6923069999999996
                },
                {
                    "name": "B2",
                    "midi": 47,
                    "time": 76.15377000000007,
                    "velocity": 0.7874015748031497,
                    "duration": 0.6923069999999996
                },
                {
                    "name": "B3",
                    "midi": 59,
                    "time": 76.61530800000007,
                    "velocity": 0.7874015748031497,
                    "duration": 0.23076899999999512
                },
                {
                    "name": "F#4",
                    "midi": 66,
                    "time": 76.84607700000007,
                    "velocity": 0.7874015748031497,
                    "duration": 0.23076899999999512
                },
                {
                    "name": "F#4",
                    "midi": 66,
                    "time": 77.07684600000006,
                    "velocity": 0.7874015748031497,
                    "duration": 0.11538450000000466
                },
                {
                    "name": "B2",
                    "midi": 47,
                    "time": 77.07684600000006,
                    "velocity": 0.7874015748031497,
                    "duration": 0.23076900000000933
                },
                {
                    "name": "G4",
                    "midi": 67,
                    "time": 77.19223050000006,
                    "velocity": 0.7874015748031497,
                    "duration": 0.11538450000000466
                },
                {
                    "name": "F#4",
                    "midi": 66,
                    "time": 77.30761500000007,
                    "velocity": 0.7874015748031497,
                    "duration": 0.11538450000000466
                },
                {
                    "name": "B2",
                    "midi": 47,
                    "time": 77.30761500000007,
                    "velocity": 0.7874015748031497,
                    "duration": 0.23076900000000933
                },
                {
                    "name": "G4",
                    "midi": 67,
                    "time": 77.42299950000007,
                    "velocity": 0.7874015748031497,
                    "duration": 0.11538450000000466
                },
                {
                    "name": "F#4",
                    "midi": 66,
                    "time": 77.53838400000008,
                    "velocity": 0.7874015748031497,
                    "duration": 0.11538450000000466
                },
                {
                    "name": "B2",
                    "midi": 47,
                    "time": 77.53838400000008,
                    "velocity": 0.7874015748031497,
                    "duration": 0.23076900000000933
                },
                {
                    "name": "E4",
                    "midi": 64,
                    "time": 77.65376850000008,
                    "velocity": 0.7874015748031497,
                    "duration": 0.11538450000000466
                },
                {
                    "name": "D4",
                    "midi": 62,
                    "time": 77.76915300000009,
                    "velocity": 0.7874015748031497,
                    "duration": 0.11538450000000466
                },
                {
                    "name": "B2",
                    "midi": 47,
                    "time": 77.76915300000009,
                    "velocity": 0.7874015748031497,
                    "duration": 0.23076900000000933
                },
                {
                    "name": "C#4",
                    "midi": 61,
                    "time": 77.88453750000009,
                    "velocity": 0.7874015748031497,
                    "duration": 0.11538450000000466
                },
                {
                    "name": "B3",
                    "midi": 59,
                    "time": 77.9999220000001,
                    "velocity": 0.7874015748031497,
                    "duration": 0.23076899999999512
                },
                {
                    "name": "B2",
                    "midi": 47,
                    "time": 77.9999220000001,
                    "velocity": 0.7874015748031497,
                    "duration": 0.6923069999999854
                },
                {
                    "name": "F#3",
                    "midi": 54,
                    "time": 78.23069100000009,
                    "velocity": 0.7874015748031497,
                    "duration": 0.23076899999999512
                },
                {
                    "name": "F#3",
                    "midi": 54,
                    "time": 78.46146000000009,
                    "velocity": 0.7874015748031497,
                    "duration": 0.23076899999999512
                },
                {
                    "name": "B3",
                    "midi": 59,
                    "time": 78.69222900000008,
                    "velocity": 0.7874015748031497,
                    "duration": 0.23076899999999512
                },
                {
                    "name": "C#4",
                    "midi": 61,
                    "time": 78.92299800000008,
                    "velocity": 0.7874015748031497,
                    "duration": 0.23076899999999512
                },
                {
                    "name": "A#3",
                    "midi": 58,
                    "time": 78.92299800000008,
                    "velocity": 0.7874015748031497,
                    "duration": 0.23076899999999512
                },
                {
                    "name": "F#2",
                    "midi": 42,
                    "time": 78.92299800000008,
                    "velocity": 0.7874015748031497,
                    "duration": 0.23076899999999512
                },
                {
                    "name": "C#4",
                    "midi": 61,
                    "time": 79.15376700000007,
                    "velocity": 0.7874015748031497,
                    "duration": 0.23076899999999512
                },
                {
                    "name": "A#3",
                    "midi": 58,
                    "time": 79.15376700000007,
                    "velocity": 0.7874015748031497,
                    "duration": 0.23076899999999512
                },
                {
                    "name": "F#2",
                    "midi": 42,
                    "time": 79.15376700000007,
                    "velocity": 0.7874015748031497,
                    "duration": 0.23076899999999512
                },
                {
                    "name": "C#4",
                    "midi": 61,
                    "time": 79.38453600000007,
                    "velocity": 0.7874015748031497,
                    "duration": 0.23076899999999512
                },
                {
                    "name": "A#3",
                    "midi": 58,
                    "time": 79.38453600000007,
                    "velocity": 0.7874015748031497,
                    "duration": 0.23076899999999512
                },
                {
                    "name": "F#2",
                    "midi": 42,
                    "time": 79.38453600000007,
                    "velocity": 0.7874015748031497,
                    "duration": 0.23076899999999512
                },
                {
                    "name": "D4",
                    "midi": 62,
                    "time": 79.61530500000006,
                    "velocity": 0.7874015748031497,
                    "duration": 0.11538450000000466
                },
                {
                    "name": "C#4",
                    "midi": 61,
                    "time": 79.73068950000007,
                    "velocity": 0.7874015748031497,
                    "duration": 0.11538450000000466
                },
                {
                    "name": "B2",
                    "midi": 47,
                    "time": 79.84607400000007,
                    "velocity": 0.7874015748031497,
                    "duration": 0.9230760000000231
                },
                {
                    "name": "D3",
                    "midi": 50,
                    "time": 79.90376625000007,
                    "velocity": 0.7874015748031497,
                    "duration": 0.7499992500000161
                },
                {
                    "name": "F#3",
                    "midi": 54,
                    "time": 79.96145850000008,
                    "velocity": 0.7874015748031497,
                    "duration": 0.6923070000000138
                },
                {
                    "name": "B3",
                    "midi": 59,
                    "time": 80.01915075000008,
                    "velocity": 0.7874015748031497,
                    "duration": 0.6346147500000114
                },
                {
                    "name": "F#4",
                    "midi": 66,
                    "time": 80.53838100000009,
                    "velocity": 0.7874015748031497,
                    "duration": 0.23076900000000933
                },
                {
                    "name": "E4",
                    "midi": 64,
                    "time": 80.7691500000001,
                    "velocity": 0.7874015748031497,
                    "duration": 0.23076899999999512
                },
                {
                    "name": "G3",
                    "midi": 55,
                    "time": 80.7691500000001,
                    "velocity": 0.7874015748031497,
                    "duration": 0.23076899999999512
                },
                {
                    "name": "A2",
                    "midi": 45,
                    "time": 80.7691500000001,
                    "velocity": 0.7874015748031497,
                    "duration": 0.23076899999999512
                },
                {
                    "name": "E4",
                    "midi": 64,
                    "time": 80.99991900000009,
                    "velocity": 0.7874015748031497,
                    "duration": 0.23076899999999512
                },
                {
                    "name": "G3",
                    "midi": 55,
                    "time": 80.99991900000009,
                    "velocity": 0.7874015748031497,
                    "duration": 0.23076899999999512
                },
                {
                    "name": "A2",
                    "midi": 45,
                    "time": 80.99991900000009,
                    "velocity": 0.7874015748031497,
                    "duration": 0.23076899999999512
                },
                {
                    "name": "E4",
                    "midi": 64,
                    "time": 81.23068800000009,
                    "velocity": 0.7874015748031497,
                    "duration": 0.23076899999999512
                },
                {
                    "name": "G3",
                    "midi": 55,
                    "time": 81.23068800000009,
                    "velocity": 0.7874015748031497,
                    "duration": 0.23076899999999512
                },
                {
                    "name": "A2",
                    "midi": 45,
                    "time": 81.23068800000009,
                    "velocity": 0.7874015748031497,
                    "duration": 0.23076899999999512
                },
                {
                    "name": "G4",
                    "midi": 67,
                    "time": 81.46145700000008,
                    "velocity": 0.7874015748031497,
                    "duration": 0.11538450000000466
                },
                {
                    "name": "F#4",
                    "midi": 66,
                    "time": 81.57684150000009,
                    "velocity": 0.7874015748031497,
                    "duration": 0.11538450000000466
                },
                {
                    "name": "D4",
                    "midi": 62,
                    "time": 81.69222600000009,
                    "velocity": 0.7874015748031497,
                    "duration": 0.6923069999999996
                },
                {
                    "name": "B2",
                    "midi": 47,
                    "time": 81.69222600000009,
                    "velocity": 0.7874015748031497,
                    "duration": 0.6923069999999996
                },
                {
                    "name": "B3",
                    "midi": 59,
                    "time": 82.1537640000001,
                    "velocity": 0.7874015748031497,
                    "duration": 0.23076899999999512
                },
                {
                    "name": "F#4",
                    "midi": 66,
                    "time": 82.38453300000009,
                    "velocity": 0.7874015748031497,
                    "duration": 0.23076899999999512
                },
                {
                    "name": "E4",
                    "midi": 64,
                    "time": 82.61530200000009,
                    "velocity": 0.7874015748031497,
                    "duration": 0.23076899999999512
                },
                {
                    "name": "G3",
                    "midi": 55,
                    "time": 82.61530200000009,
                    "velocity": 0.7874015748031497,
                    "duration": 0.23076899999999512
                },
                {
                    "name": "A2",
                    "midi": 45,
                    "time": 82.61530200000009,
                    "velocity": 0.7874015748031497,
                    "duration": 0.23076899999999512
                },
                {
                    "name": "E4",
                    "midi": 64,
                    "time": 82.84607100000008,
                    "velocity": 0.7874015748031497,
                    "duration": 0.23076899999999512
                },
                {
                    "name": "G3",
                    "midi": 55,
                    "time": 82.84607100000008,
                    "velocity": 0.7874015748031497,
                    "duration": 0.23076899999999512
                },
                {
                    "name": "A2",
                    "midi": 45,
                    "time": 82.84607100000008,
                    "velocity": 0.7874015748031497,
                    "duration": 0.23076899999999512
                },
                {
                    "name": "E4",
                    "midi": 64,
                    "time": 83.07684000000008,
                    "velocity": 0.7874015748031497,
                    "duration": 0.23076899999999512
                },
                {
                    "name": "G3",
                    "midi": 55,
                    "time": 83.07684000000008,
                    "velocity": 0.7874015748031497,
                    "duration": 0.23076899999999512
                },
                {
                    "name": "A2",
                    "midi": 45,
                    "time": 83.07684000000008,
                    "velocity": 0.7874015748031497,
                    "duration": 0.23076899999999512
                },
                {
                    "name": "F#4",
                    "midi": 66,
                    "time": 83.30760900000007,
                    "velocity": 0.7874015748031497,
                    "duration": 0.11538450000000466
                },
                {
                    "name": "G4",
                    "midi": 67,
                    "time": 83.42299350000008,
                    "velocity": 0.7874015748031497,
                    "duration": 0.11538450000000466
                },
                {
                    "name": "F4",
                    "midi": 65,
                    "time": 83.53837800000008,
                    "velocity": 0.7874015748031497,
                    "duration": 0.46153800000000444
                },
                {
                    "name": "B4",
                    "midi": 71,
                    "time": 83.53837800000008,
                    "velocity": 0.7874015748031497,
                    "duration": 0.46153800000000444
                },
                {
                    "name": "D3",
                    "midi": 50,
                    "time": 83.53837800000008,
                    "velocity": 0.7874015748031497,
                    "duration": 0.6923069999999996
                },
                {
                    "name": "F#4",
                    "midi": 66,
                    "time": 83.99991600000008,
                    "velocity": 0.7874015748031497,
                    "duration": 0.23076899999999512
                },
                {
                    "name": "A4",
                    "midi": 69,
                    "time": 83.99991600000008,
                    "velocity": 0.7874015748031497,
                    "duration": 0.23076899999999512
                },
                {
                    "name": "F#4",
                    "midi": 66,
                    "time": 84.23068500000008,
                    "velocity": 0.7874015748031497,
                    "duration": 0.23076899999999512
                },
                {
                    "name": "A2",
                    "midi": 45,
                    "time": 84.46145400000007,
                    "velocity": 0.7874015748031497,
                    "duration": 0.23076899999999512
                },
                {
                    "name": "G3",
                    "midi": 55,
                    "time": 84.46145400000007,
                    "velocity": 0.7874015748031497,
                    "duration": 0.23076899999999512
                },
                {
                    "name": "E4",
                    "midi": 64,
                    "time": 84.46145400000007,
                    "velocity": 0.7874015748031497,
                    "duration": 0.23076899999999512
                },
                {
                    "name": "A2",
                    "midi": 45,
                    "time": 84.69222300000007,
                    "velocity": 0.7874015748031497,
                    "duration": 0.23076899999999512
                },
                {
                    "name": "G3",
                    "midi": 55,
                    "time": 84.69222300000007,
                    "velocity": 0.7874015748031497,
                    "duration": 0.23076899999999512
                },
                {
                    "name": "E4",
                    "midi": 64,
                    "time": 84.69222300000007,
                    "velocity": 0.7874015748031497,
                    "duration": 0.23076899999999512
                },
                {
                    "name": "A2",
                    "midi": 45,
                    "time": 84.92299200000006,
                    "velocity": 0.7874015748031497,
                    "duration": 0.23076899999999512
                },
                {
                    "name": "G3",
                    "midi": 55,
                    "time": 84.92299200000006,
                    "velocity": 0.7874015748031497,
                    "duration": 0.23076899999999512
                },
                {
                    "name": "E4",
                    "midi": 64,
                    "time": 84.92299200000006,
                    "velocity": 0.7874015748031497,
                    "duration": 0.23076899999999512
                },
                {
                    "name": "G4",
                    "midi": 67,
                    "time": 85.15376100000006,
                    "velocity": 0.7874015748031497,
                    "duration": 0.11538450000000466
                },
                {
                    "name": "F#4",
                    "midi": 66,
                    "time": 85.26914550000006,
                    "velocity": 0.7874015748031497,
                    "duration": 0.11538450000000466
                },
                {
                    "name": "D4",
                    "midi": 62,
                    "time": 85.38453000000007,
                    "velocity": 0.7874015748031497,
                    "duration": 0.46153800000000444
                },
                {
                    "name": "F#3",
                    "midi": 54,
                    "time": 85.38453000000007,
                    "velocity": 0.7874015748031497,
                    "duration": 0.46153800000000444
                },
                {
                    "name": "D3",
                    "midi": 50,
                    "time": 85.38453000000007,
                    "velocity": 0.7874015748031497,
                    "duration": 0.6923069999999996
                },
                {
                    "name": "A3",
                    "midi": 57,
                    "time": 85.84606800000007,
                    "velocity": 0.7874015748031497,
                    "duration": 0.23076899999999512
                },
                {
                    "name": "A3",
                    "midi": 57,
                    "time": 86.07683700000007,
                    "velocity": 0.7874015748031497,
                    "duration": 0.23076899999999512
                },
                {
                    "name": "F#3",
                    "midi": 54,
                    "time": 86.30760600000006,
                    "velocity": 0.7874015748031497,
                    "duration": 0.6923070000000138
                },
                {
                    "name": "B3",
                    "midi": 59,
                    "time": 86.36529825000007,
                    "velocity": 0.7874015748031497,
                    "duration": 0.5769225000000091
                },
                {
                    "name": "D4",
                    "midi": 62,
                    "time": 86.42299050000007,
                    "velocity": 0.7874015748031497,
                    "duration": 0.5192302500000068
                },
                {
                    "name": "F#4",
                    "midi": 66,
                    "time": 86.99991300000008,
                    "velocity": 0.7874015748031497,
                    "duration": 0.23076899999999512
                },
                {
                    "name": "B4",
                    "midi": 71,
                    "time": 87.23068200000007,
                    "velocity": 0.7874015748031497,
                    "duration": 0.23076899999999512
                },
                {
                    "name": "D#4",
                    "midi": 63,
                    "time": 87.23068200000007,
                    "velocity": 0.7874015748031497,
                    "duration": 0.46153799999999023
                },
                {
                    "name": "B2",
                    "midi": 47,
                    "time": 87.23068200000007,
                    "velocity": 0.7874015748031497,
                    "duration": 0.46153799999999023
                },
                {
                    "name": "A4",
                    "midi": 69,
                    "time": 87.46145100000007,
                    "velocity": 0.7874015748031497,
                    "duration": 0.23076899999999512
                },
                {
                    "name": "G4",
                    "midi": 67,
                    "time": 87.69222000000006,
                    "velocity": 0.7874015748031497,
                    "duration": 0.23076899999999512
                },
                {
                    "name": "F#4",
                    "midi": 66,
                    "time": 87.92298900000006,
                    "velocity": 0.7874015748031497,
                    "duration": 0.23076899999999512
                },
                {
                    "name": "A4",
                    "midi": 69,
                    "time": 88.15375800000005,
                    "velocity": 0.7874015748031497,
                    "duration": 0.23076899999999512
                },
                {
                    "name": "E3",
                    "midi": 52,
                    "time": 88.15375800000005,
                    "velocity": 0.7874015748031497,
                    "duration": 0.46153800000000444
                },
                {
                    "name": "G3",
                    "midi": 55,
                    "time": 88.15375800000005,
                    "velocity": 0.7874015748031497,
                    "duration": 0.46153800000000444
                },
                {
                    "name": "G4",
                    "midi": 67,
                    "time": 88.38452700000005,
                    "velocity": 0.7874015748031497,
                    "duration": 0.23076900000000933
                },
                {
                    "name": "G4",
                    "midi": 67,
                    "time": 88.49991150000005,
                    "velocity": 0.7874015748031497,
                    "duration": 0.11538450000000466
                },
                {
                    "name": "F#4",
                    "midi": 66,
                    "time": 88.61529600000006,
                    "velocity": 0.7874015748031497,
                    "duration": 0.23076899999999512
                },
                {
                    "name": "E4",
                    "midi": 64,
                    "time": 88.84606500000005,
                    "velocity": 0.7874015748031497,
                    "duration": 0.23076899999999512
                },
                {
                    "name": "A4",
                    "midi": 69,
                    "time": 89.07683400000005,
                    "velocity": 0.7874015748031497,
                    "duration": 0.23076899999999512
                },
                {
                    "name": "C#4",
                    "midi": 61,
                    "time": 89.07683400000005,
                    "velocity": 0.7874015748031497,
                    "duration": 0.46153799999999023
                },
                {
                    "name": "A2",
                    "midi": 45,
                    "time": 89.07683400000005,
                    "velocity": 0.7874015748031497,
                    "duration": 0.46153799999999023
                },
                {
                    "name": "G4",
                    "midi": 67,
                    "time": 89.30760300000004,
                    "velocity": 0.7874015748031497,
                    "duration": 0.23076899999999512
                },
                {
                    "name": "F#4",
                    "midi": 66,
                    "time": 89.53837200000004,
                    "velocity": 0.7874015748031497,
                    "duration": 0.23076899999999512
                },
                {
                    "name": "A3",
                    "midi": 57,
                    "time": 89.76914100000003,
                    "velocity": 0.7874015748031497,
                    "duration": 0.6923069999999996
                },
                {
                    "name": "E4",
                    "midi": 64,
                    "time": 89.76914100000003,
                    "velocity": 0.7874015748031497,
                    "duration": 0.23076899999999512
                },
                {
                    "name": "G4",
                    "midi": 67,
                    "time": 89.99991000000003,
                    "velocity": 0.7874015748031497,
                    "duration": 0.23076899999999512
                },
                {
                    "name": "D3",
                    "midi": 50,
                    "time": 89.99991000000003,
                    "velocity": 0.7874015748031497,
                    "duration": 0.46153800000000444
                },
                {
                    "name": "F#4",
                    "midi": 66,
                    "time": 90.23067900000002,
                    "velocity": 0.7874015748031497,
                    "duration": 0.23076900000000933
                },
                {
                    "name": "F#4",
                    "midi": 66,
                    "time": 90.34606350000003,
                    "velocity": 0.7874015748031497,
                    "duration": 0.11538450000000466
                },
                {
                    "name": "E4",
                    "midi": 64,
                    "time": 90.46144800000003,
                    "velocity": 0.7874015748031497,
                    "duration": 0.23076899999999512
                },
                {
                    "name": "D4",
                    "midi": 62,
                    "time": 90.69221700000003,
                    "velocity": 0.7874015748031497,
                    "duration": 0.23076899999999512
                },
                {
                    "name": "F#4",
                    "midi": 66,
                    "time": 90.92298600000002,
                    "velocity": 0.7874015748031497,
                    "duration": 0.11538450000000466
                },
                {
                    "name": "B2",
                    "midi": 47,
                    "time": 90.92298600000002,
                    "velocity": 0.7874015748031497,
                    "duration": 0.23076900000000933
                },
                {
                    "name": "G4",
                    "midi": 67,
                    "time": 91.03837050000003,
                    "velocity": 0.7874015748031497,
                    "duration": 0.11538450000000466
                },
                {
                    "name": "F#4",
                    "midi": 66,
                    "time": 91.15375500000003,
                    "velocity": 0.7874015748031497,
                    "duration": 0.11538450000000466
                },
                {
                    "name": "B2",
                    "midi": 47,
                    "time": 91.15375500000003,
                    "velocity": 0.7874015748031497,
                    "duration": 0.23076900000000933
                },
                {
                    "name": "G4",
                    "midi": 67,
                    "time": 91.26913950000004,
                    "velocity": 0.7874015748031497,
                    "duration": 0.11538450000000466
                },
                {
                    "name": "F#4",
                    "midi": 66,
                    "time": 91.38452400000004,
                    "velocity": 0.7874015748031497,
                    "duration": 0.11538450000000466
                },
                {
                    "name": "B2",
                    "midi": 47,
                    "time": 91.38452400000004,
                    "velocity": 0.7874015748031497,
                    "duration": 0.23076900000000933
                },
                {
                    "name": "E4",
                    "midi": 64,
                    "time": 91.49990850000005,
                    "velocity": 0.7874015748031497,
                    "duration": 0.11538450000000466
                },
                {
                    "name": "D4",
                    "midi": 62,
                    "time": 91.61529300000005,
                    "velocity": 0.7874015748031497,
                    "duration": 0.11538450000000466
                },
                {
                    "name": "B2",
                    "midi": 47,
                    "time": 91.61529300000005,
                    "velocity": 0.7874015748031497,
                    "duration": 0.23076900000000933
                },
                {
                    "name": "C#4",
                    "midi": 61,
                    "time": 91.73067750000006,
                    "velocity": 0.7874015748031497,
                    "duration": 0.11538450000000466
                },
                {
                    "name": "B3",
                    "midi": 59,
                    "time": 91.84606200000006,
                    "velocity": 0.7874015748031497,
                    "duration": 0.23076899999999512
                },
                {
                    "name": "B2",
                    "midi": 47,
                    "time": 91.84606200000006,
                    "velocity": 0.7874015748031497,
                    "duration": 0.6923069999999854
                },
                {
                    "name": "G3",
                    "midi": 55,
                    "time": 92.07683100000006,
                    "velocity": 0.7874015748031497,
                    "duration": 0.23076899999999512
                },
                {
                    "name": "G3",
                    "midi": 55,
                    "time": 92.30760000000005,
                    "velocity": 0.7874015748031497,
                    "duration": 0.23076899999999512
                },
                {
                    "name": "B3",
                    "midi": 59,
                    "time": 92.53836900000005,
                    "velocity": 0.7874015748031497,
                    "duration": 0.23076899999999512
                },
                {
                    "name": "C#4",
                    "midi": 61,
                    "time": 92.76913800000004,
                    "velocity": 0.7874015748031497,
                    "duration": 0.23076899999999512
                },
                {
                    "name": "A#3",
                    "midi": 58,
                    "time": 92.76913800000004,
                    "velocity": 0.7874015748031497,
                    "duration": 0.23076899999999512
                },
                {
                    "name": "F#2",
                    "midi": 42,
                    "time": 92.76913800000004,
                    "velocity": 0.7874015748031497,
                    "duration": 0.23076899999999512
                },
                {
                    "name": "C#4",
                    "midi": 61,
                    "time": 92.99990700000004,
                    "velocity": 0.7874015748031497,
                    "duration": 0.23076899999999512
                },
                {
                    "name": "A#3",
                    "midi": 58,
                    "time": 92.99990700000004,
                    "velocity": 0.7874015748031497,
                    "duration": 0.23076899999999512
                },
                {
                    "name": "F#2",
                    "midi": 42,
                    "time": 92.99990700000004,
                    "velocity": 0.7874015748031497,
                    "duration": 0.23076899999999512
                },
                {
                    "name": "C#4",
                    "midi": 61,
                    "time": 93.23067600000003,
                    "velocity": 0.7874015748031497,
                    "duration": 0.23076899999999512
                },
                {
                    "name": "A#3",
                    "midi": 58,
                    "time": 93.23067600000003,
                    "velocity": 0.7874015748031497,
                    "duration": 0.23076899999999512
                },
                {
                    "name": "F#2",
                    "midi": 42,
                    "time": 93.23067600000003,
                    "velocity": 0.7874015748031497,
                    "duration": 0.23076899999999512
                },
                {
                    "name": "D4",
                    "midi": 62,
                    "time": 93.46144500000003,
                    "velocity": 0.7874015748031497,
                    "duration": 0.11538450000000466
                },
                {
                    "name": "C#4",
                    "midi": 61,
                    "time": 93.57682950000003,
                    "velocity": 0.7874015748031497,
                    "duration": 0.11538450000000466
                },
                {
                    "name": "B2",
                    "midi": 47,
                    "time": 93.69221400000004,
                    "velocity": 0.7874015748031497,
                    "duration": 0.9230760000000231
                },
                {
                    "name": "D3",
                    "midi": 50,
                    "time": 93.74990625000004,
                    "velocity": 0.7874015748031497,
                    "duration": 0.7499992500000161
                },
                {
                    "name": "F#3",
                    "midi": 54,
                    "time": 93.80759850000004,
                    "velocity": 0.7874015748031497,
                    "duration": 0.6923070000000138
                },
                {
                    "name": "B3",
                    "midi": 59,
                    "time": 93.86529075000004,
                    "velocity": 0.7874015748031497,
                    "duration": 0.6346147500000114
                },
                {
                    "name": "F#4",
                    "midi": 66,
                    "time": 94.38452100000005,
                    "velocity": 0.7874015748031497,
                    "duration": 0.23076900000000933
                },
                {
                    "name": "A2",
                    "midi": 45,
                    "time": 94.61529000000006,
                    "velocity": 0.7874015748031497,
                    "duration": 0.23076899999999512
                },
                {
                    "name": "G3",
                    "midi": 55,
                    "time": 94.61529000000006,
                    "velocity": 0.7874015748031497,
                    "duration": 0.23076899999999512
                },
                {
                    "name": "E4",
                    "midi": 64,
                    "time": 94.61529000000006,
                    "velocity": 0.7874015748031497,
                    "duration": 0.23076899999999512
                },
                {
                    "name": "A2",
                    "midi": 45,
                    "time": 94.84605900000005,
                    "velocity": 0.7874015748031497,
                    "duration": 0.23076899999999512
                },
                {
                    "name": "G3",
                    "midi": 55,
                    "time": 94.84605900000005,
                    "velocity": 0.7874015748031497,
                    "duration": 0.23076899999999512
                },
                {
                    "name": "E4",
                    "midi": 64,
                    "time": 94.84605900000005,
                    "velocity": 0.7874015748031497,
                    "duration": 0.23076899999999512
                },
                {
                    "name": "A2",
                    "midi": 45,
                    "time": 95.07682800000005,
                    "velocity": 0.7874015748031497,
                    "duration": 0.23076899999999512
                },
                {
                    "name": "G3",
                    "midi": 55,
                    "time": 95.07682800000005,
                    "velocity": 0.7874015748031497,
                    "duration": 0.23076899999999512
                },
                {
                    "name": "E4",
                    "midi": 64,
                    "time": 95.07682800000005,
                    "velocity": 0.7874015748031497,
                    "duration": 0.23076899999999512
                },
                {
                    "name": "G4",
                    "midi": 67,
                    "time": 95.30759700000004,
                    "velocity": 0.7874015748031497,
                    "duration": 0.11538450000000466
                },
                {
                    "name": "F#4",
                    "midi": 66,
                    "time": 95.42298150000005,
                    "velocity": 0.7874015748031497,
                    "duration": 0.11538450000000466
                },
                {
                    "name": "D4",
                    "midi": 62,
                    "time": 95.53836600000005,
                    "velocity": 0.7874015748031497,
                    "duration": 0.6923069999999996
                },
                {
                    "name": "F#3",
                    "midi": 54,
                    "time": 95.53836600000005,
                    "velocity": 0.7874015748031497,
                    "duration": 0.46153800000000444
                },
                {
                    "name": "D3",
                    "midi": 50,
                    "time": 95.53836600000005,
                    "velocity": 0.7874015748031497,
                    "duration": 0.6923069999999996
                },
                {
                    "name": "A3",
                    "midi": 57,
                    "time": 95.99990400000006,
                    "velocity": 0.7874015748031497,
                    "duration": 0.23076899999999512
                },
                {
                    "name": "F#4",
                    "midi": 66,
                    "time": 96.23067300000005,
                    "velocity": 0.7874015748031497,
                    "duration": 0.23076899999999512
                },
                {
                    "name": "A2",
                    "midi": 45,
                    "time": 96.46144200000005,
                    "velocity": 0.7874015748031497,
                    "duration": 0.23076899999999512
                },
                {
                    "name": "G3",
                    "midi": 55,
                    "time": 96.46144200000005,
                    "velocity": 0.7874015748031497,
                    "duration": 0.23076899999999512
                },
                {
                    "name": "E4",
                    "midi": 64,
                    "time": 96.46144200000005,
                    "velocity": 0.7874015748031497,
                    "duration": 0.23076899999999512
                },
                {
                    "name": "A2",
                    "midi": 45,
                    "time": 96.69221100000004,
                    "velocity": 0.7874015748031497,
                    "duration": 0.23076899999999512
                },
                {
                    "name": "G3",
                    "midi": 55,
                    "time": 96.69221100000004,
                    "velocity": 0.7874015748031497,
                    "duration": 0.23076899999999512
                },
                {
                    "name": "E4",
                    "midi": 64,
                    "time": 96.69221100000004,
                    "velocity": 0.7874015748031497,
                    "duration": 0.23076899999999512
                },
                {
                    "name": "A2",
                    "midi": 45,
                    "time": 96.92298000000004,
                    "velocity": 0.7874015748031497,
                    "duration": 0.23076899999999512
                },
                {
                    "name": "G3",
                    "midi": 55,
                    "time": 96.92298000000004,
                    "velocity": 0.7874015748031497,
                    "duration": 0.23076899999999512
                },
                {
                    "name": "E4",
                    "midi": 64,
                    "time": 96.92298000000004,
                    "velocity": 0.7874015748031497,
                    "duration": 0.23076899999999512
                },
                {
                    "name": "F#4",
                    "midi": 66,
                    "time": 97.15374900000003,
                    "velocity": 0.7874015748031497,
                    "duration": 0.11538450000000466
                },
                {
                    "name": "G4",
                    "midi": 67,
                    "time": 97.26913350000004,
                    "velocity": 0.7874015748031497,
                    "duration": 0.11538450000000466
                },
                {
                    "name": "F4",
                    "midi": 65,
                    "time": 97.38451800000004,
                    "velocity": 0.7874015748031497,
                    "duration": 0.46153800000000444
                },
                {
                    "name": "B4",
                    "midi": 71,
                    "time": 97.38451800000004,
                    "velocity": 0.7874015748031497,
                    "duration": 0.46153800000000444
                },
                {
                    "name": "D3",
                    "midi": 50,
                    "time": 97.38451800000004,
                    "velocity": 0.7874015748031497,
                    "duration": 0.6923069999999996
                },
                {
                    "name": "F#4",
                    "midi": 66,
                    "time": 97.84605600000005,
                    "velocity": 0.7874015748031497,
                    "duration": 0.23076899999999512
                },
                {
                    "name": "A4",
                    "midi": 69,
                    "time": 97.84605600000005,
                    "velocity": 0.7874015748031497,
                    "duration": 0.23076899999999512
                },
                {
                    "name": "F#4",
                    "midi": 66,
                    "time": 98.07682500000004,
                    "velocity": 0.7874015748031497,
                    "duration": 0.23076899999999512
                },
                {
                    "name": "A2",
                    "midi": 45,
                    "time": 98.30759400000004,
                    "velocity": 0.7874015748031497,
                    "duration": 0.23076899999999512
                },
                {
                    "name": "G3",
                    "midi": 55,
                    "time": 98.30759400000004,
                    "velocity": 0.7874015748031497,
                    "duration": 0.23076899999999512
                },
                {
                    "name": "E4",
                    "midi": 64,
                    "time": 98.30759400000004,
                    "velocity": 0.7874015748031497,
                    "duration": 0.23076899999999512
                },
                {
                    "name": "A2",
                    "midi": 45,
                    "time": 98.53836300000003,
                    "velocity": 0.7874015748031497,
                    "duration": 0.23076899999999512
                },
                {
                    "name": "G3",
                    "midi": 55,
                    "time": 98.53836300000003,
                    "velocity": 0.7874015748031497,
                    "duration": 0.23076899999999512
                },
                {
                    "name": "E4",
                    "midi": 64,
                    "time": 98.53836300000003,
                    "velocity": 0.7874015748031497,
                    "duration": 0.23076899999999512
                },
                {
                    "name": "A2",
                    "midi": 45,
                    "time": 98.76913200000003,
                    "velocity": 0.7874015748031497,
                    "duration": 0.23076899999999512
                },
                {
                    "name": "G3",
                    "midi": 55,
                    "time": 98.76913200000003,
                    "velocity": 0.7874015748031497,
                    "duration": 0.23076899999999512
                },
                {
                    "name": "E4",
                    "midi": 64,
                    "time": 98.76913200000003,
                    "velocity": 0.7874015748031497,
                    "duration": 0.23076899999999512
                },
                {
                    "name": "G4",
                    "midi": 67,
                    "time": 98.99990100000002,
                    "velocity": 0.7874015748031497,
                    "duration": 0.11538450000000466
                },
                {
                    "name": "F#4",
                    "midi": 66,
                    "time": 99.11528550000003,
                    "velocity": 0.7874015748031497,
                    "duration": 0.11538450000000466
                },
                {
                    "name": "D4",
                    "midi": 62,
                    "time": 99.23067000000003,
                    "velocity": 0.7874015748031497,
                    "duration": 0.46153800000000444
                },
                {
                    "name": "F#3",
                    "midi": 54,
                    "time": 99.23067000000003,
                    "velocity": 0.7874015748031497,
                    "duration": 0.46153800000000444
                },
                {
                    "name": "D3",
                    "midi": 50,
                    "time": 99.23067000000003,
                    "velocity": 0.7874015748031497,
                    "duration": 0.6923069999999996
                },
                {
                    "name": "A3",
                    "midi": 57,
                    "time": 99.69220800000004,
                    "velocity": 0.7874015748031497,
                    "duration": 0.23076899999999512
                },
                {
                    "name": "A3",
                    "midi": 57,
                    "time": 99.92297700000003,
                    "velocity": 0.7874015748031497,
                    "duration": 0.23076899999999512
                },
                {
                    "name": "B3",
                    "midi": 59,
                    "time": 100.15374600000003,
                    "velocity": 0.7874015748031497,
                    "duration": 0.23076899999999512
                },
                {
                    "name": "G3",
                    "midi": 55,
                    "time": 100.15374600000003,
                    "velocity": 0.7874015748031497,
                    "duration": 0.46153800000000444
                },
                {
                    "name": "A2",
                    "midi": 45,
                    "time": 100.15374600000003,
                    "velocity": 0.7874015748031497,
                    "duration": 0.46153800000000444
                },
                {
                    "name": "B3",
                    "midi": 59,
                    "time": 100.38451500000002,
                    "velocity": 0.7874015748031497,
                    "duration": 0.11538450000000466
                },
                {
                    "name": "D4",
                    "midi": 62,
                    "time": 100.49989950000003,
                    "velocity": 0.7874015748031497,
                    "duration": 0.11538450000000466
                },
                {
                    "name": "C#4",
                    "midi": 61,
                    "time": 100.61528400000003,
                    "velocity": 0.7874015748031497,
                    "duration": 0.23076899999999512
                },
                {
                    "name": "G3",
                    "midi": 55,
                    "time": 100.61528400000003,
                    "velocity": 0.7874015748031497,
                    "duration": 0.46153800000000444
                },
                {
                    "name": "A2",
                    "midi": 45,
                    "time": 100.61528400000003,
                    "velocity": 0.7874015748031497,
                    "duration": 0.46153800000000444
                },
                {
                    "name": "C#4",
                    "midi": 61,
                    "time": 100.84605300000003,
                    "velocity": 0.7874015748031497,
                    "duration": 0.11538450000000466
                },
                {
                    "name": "E4",
                    "midi": 64,
                    "time": 100.96143750000003,
                    "velocity": 0.7874015748031497,
                    "duration": 0.11538450000000466
                },
                {
                    "name": "D2",
                    "midi": 38,
                    "time": 101.07682200000004,
                    "velocity": 0.7874015748031497,
                    "duration": 0.9230760000000089
                },
                {
                    "name": "A2",
                    "midi": 45,
                    "time": 101.13451425000004,
                    "velocity": 0.7874015748031497,
                    "duration": 0.8653837500000066
                },
                {
                    "name": "D3",
                    "midi": 50,
                    "time": 101.19220650000004,
                    "velocity": 0.7874015748031497,
                    "duration": 0.8076915000000042
                },
                {
                    "name": "F#3",
                    "midi": 54,
                    "time": 101.24989875000004,
                    "velocity": 0.7874015748031497,
                    "duration": 0.7499992500000019
                },
                {
                    "name": "A3",
                    "midi": 57,
                    "time": 101.30759100000004,
                    "velocity": 0.7874015748031497,
                    "duration": 0.6923069999999996
                },
                {
                    "name": "D4",
                    "midi": 62,
                    "time": 101.36528325000005,
                    "velocity": 0.7874015748031497,
                    "duration": 0.6346147499999972
                },
                {
                    "name": "A3",
                    "midi": 57,
                    "time": 101.99989800000004,
                    "velocity": 0.7874015748031497,
                    "duration": 0.11538450000000466
                },
                {
                    "name": "C#4",
                    "midi": 61,
                    "time": 101.99989800000004,
                    "velocity": 0.7874015748031497,
                    "duration": 0.23076900000000933
                },
                {
                    "name": "A2",
                    "midi": 45,
                    "time": 102.11528250000005,
                    "velocity": 0.7874015748031497,
                    "duration": 0.11538450000000466
                },
                {
                    "name": "B3",
                    "midi": 59,
                    "time": 102.23066700000005,
                    "velocity": 0.7874015748031497,
                    "duration": 0.11538450000000466
                },
                {
                    "name": "D4",
                    "midi": 62,
                    "time": 102.23066700000005,
                    "velocity": 0.7874015748031497,
                    "duration": 0.23076900000000933
                },
                {
                    "name": "A2",
                    "midi": 45,
                    "time": 102.34605150000006,
                    "velocity": 0.7874015748031497,
                    "duration": 0.11538450000000466
                },
                {
                    "name": "C#4",
                    "midi": 61,
                    "time": 102.46143600000006,
                    "velocity": 0.7874015748031497,
                    "duration": 0.11538450000000466
                },
                {
                    "name": "E4",
                    "midi": 64,
                    "time": 102.46143600000006,
                    "velocity": 0.7874015748031497,
                    "duration": 0.23076900000000933
                },
                {
                    "name": "A2",
                    "midi": 45,
                    "time": 102.57682050000007,
                    "velocity": 0.7874015748031497,
                    "duration": 0.11538450000000466
                },
                {
                    "name": "D4",
                    "midi": 62,
                    "time": 102.69220500000007,
                    "velocity": 0.7874015748031497,
                    "duration": 0.11538450000000466
                },
                {
                    "name": "F#4",
                    "midi": 66,
                    "time": 102.69220500000007,
                    "velocity": 0.7874015748031497,
                    "duration": 0.23076900000000933
                },
                {
                    "name": "A2",
                    "midi": 45,
                    "time": 102.80758950000008,
                    "velocity": 0.7874015748031497,
                    "duration": 0.11538450000000466
                },
                {
                    "name": "C#4",
                    "midi": 61,
                    "time": 102.92297400000008,
                    "velocity": 0.7874015748031497,
                    "duration": 0.11538450000000466
                },
                {
                    "name": "E4",
                    "midi": 64,
                    "time": 102.92297400000008,
                    "velocity": 0.7874015748031497,
                    "duration": 0.23076900000000933
                },
                {
                    "name": "A2",
                    "midi": 45,
                    "time": 103.03835850000009,
                    "velocity": 0.7874015748031497,
                    "duration": 0.11538450000000466
                },
                {
                    "name": "C4",
                    "midi": 60,
                    "time": 103.15374300000009,
                    "velocity": 0.7874015748031497,
                    "duration": 0.11538450000000466
                },
                {
                    "name": "D#4",
                    "midi": 63,
                    "time": 103.15374300000009,
                    "velocity": 0.7874015748031497,
                    "duration": 0.23076900000000933
                },
                {
                    "name": "A2",
                    "midi": 45,
                    "time": 103.2691275000001,
                    "velocity": 0.7874015748031497,
                    "duration": 0.23076900000000933
                },
                {
                    "name": "C4",
                    "midi": 60,
                    "time": 103.3845120000001,
                    "velocity": 0.7874015748031497,
                    "duration": 0.23076900000000933
                },
                {
                    "name": "D#4",
                    "midi": 63,
                    "time": 103.3845120000001,
                    "velocity": 0.7874015748031497,
                    "duration": 0.23076900000000933
                },
                {
                    "name": "A2",
                    "midi": 45,
                    "time": 103.3845120000001,
                    "velocity": 0.7874015748031497,
                    "duration": 0.46153800000000444
                },
                {
                    "name": "C#4",
                    "midi": 61,
                    "time": 103.61528100000011,
                    "velocity": 0.7874015748031497,
                    "duration": 0.23076899999999512
                },
                {
                    "name": "E4",
                    "midi": 64,
                    "time": 103.61528100000011,
                    "velocity": 0.7874015748031497,
                    "duration": 0.23076899999999512
                },
                {
                    "name": "C#4",
                    "midi": 61,
                    "time": 103.8460500000001,
                    "velocity": 0.7874015748031497,
                    "duration": 0.23076899999999512
                },
                {
                    "name": "E4",
                    "midi": 64,
                    "time": 103.8460500000001,
                    "velocity": 0.7874015748031497,
                    "duration": 0.23076899999999512
                },
                {
                    "name": "A2",
                    "midi": 45,
                    "time": 103.8460500000001,
                    "velocity": 0.7874015748031497,
                    "duration": 0.23076899999999512
                },
                {
                    "name": "F#4",
                    "midi": 66,
                    "time": 104.0768190000001,
                    "velocity": 0.7874015748031497,
                    "duration": 0.11538450000000466
                },
                {
                    "name": "E4",
                    "midi": 64,
                    "time": 104.1922035000001,
                    "velocity": 0.7874015748031497,
                    "duration": 0.11538450000000466
                },
                {
                    "name": "B2",
                    "midi": 47,
                    "time": 104.30758800000011,
                    "velocity": 0.7874015748031497,
                    "duration": 0.23076899999999512
                },
                {
                    "name": "D#4",
                    "midi": 63,
                    "time": 104.30758800000011,
                    "velocity": 0.7874015748031497,
                    "duration": 0.23076899999999512
                },
                {
                    "name": "A2",
                    "midi": 45,
                    "time": 104.5383570000001,
                    "velocity": 0.7874015748031497,
                    "duration": 0.23076899999999512
                },
                {
                    "name": "C#4",
                    "midi": 61,
                    "time": 104.5383570000001,
                    "velocity": 0.7874015748031497,
                    "duration": 0.23076899999999512
                },
                {
                    "name": "G#3",
                    "midi": 56,
                    "time": 104.7691260000001,
                    "velocity": 0.7874015748031497,
                    "duration": 0.11538450000000466
                },
                {
                    "name": "B3",
                    "midi": 59,
                    "time": 104.7691260000001,
                    "velocity": 0.7874015748031497,
                    "duration": 0.23076900000000933
                },
                {
                    "name": "E2",
                    "midi": 40,
                    "time": 104.8845105000001,
                    "velocity": 0.7874015748031497,
                    "duration": 0.11538450000000466
                },
                {
                    "name": "A3",
                    "midi": 57,
                    "time": 104.99989500000011,
                    "velocity": 0.7874015748031497,
                    "duration": 0.11538450000000466
                },
                {
                    "name": "C#4",
                    "midi": 61,
                    "time": 104.99989500000011,
                    "velocity": 0.7874015748031497,
                    "duration": 0.23076900000000933
                },
                {
                    "name": "E2",
                    "midi": 40,
                    "time": 105.11527950000011,
                    "velocity": 0.7874015748031497,
                    "duration": 0.11538450000000466
                },
                {
                    "name": "B3",
                    "midi": 59,
                    "time": 105.23066400000012,
                    "velocity": 0.7874015748031497,
                    "duration": 0.11538450000000466
                },
                {
                    "name": "D4",
                    "midi": 62,
                    "time": 105.23066400000012,
                    "velocity": 0.7874015748031497,
                    "duration": 0.23076900000000933
                },
                {
                    "name": "E2",
                    "midi": 40,
                    "time": 105.34604850000012,
                    "velocity": 0.7874015748031497,
                    "duration": 0.11538450000000466
                },
                {
                    "name": "C4",
                    "midi": 60,
                    "time": 105.46143300000013,
                    "velocity": 0.7874015748031497,
                    "duration": 0.11538450000000466
                },
                {
                    "name": "D#4",
                    "midi": 63,
                    "time": 105.46143300000013,
                    "velocity": 0.7874015748031497,
                    "duration": 0.23076900000000933
                },
                {
                    "name": "E2",
                    "midi": 40,
                    "time": 105.57681750000013,
                    "velocity": 0.7874015748031497,
                    "duration": 0.11538450000000466
                },
                {
                    "name": "C#4",
                    "midi": 61,
                    "time": 105.69220200000014,
                    "velocity": 0.7874015748031497,
                    "duration": 0.11538450000000466
                },
                {
                    "name": "E4",
                    "midi": 64,
                    "time": 105.69220200000014,
                    "velocity": 0.7874015748031497,
                    "duration": 0.23076900000000933
                },
                {
                    "name": "E2",
                    "midi": 40,
                    "time": 105.80758650000014,
                    "velocity": 0.7874015748031497,
                    "duration": 0.11538450000000466
                },
                {
                    "name": "B3",
                    "midi": 59,
                    "time": 105.92297100000015,
                    "velocity": 0.7874015748031497,
                    "duration": 0.11538450000000466
                },
                {
                    "name": "D4",
                    "midi": 62,
                    "time": 105.92297100000015,
                    "velocity": 0.7874015748031497,
                    "duration": 0.23076900000000933
                },
                {
                    "name": "E2",
                    "midi": 40,
                    "time": 106.03835550000015,
                    "velocity": 0.7874015748031497,
                    "duration": 0.11538450000000466
                },
                {
                    "name": "E2",
                    "midi": 40,
                    "time": 106.15374000000016,
                    "velocity": 0.7874015748031497,
                    "duration": 0.46153799999999023
                },
                {
                    "name": "C4",
                    "midi": 60,
                    "time": 106.15374000000016,
                    "velocity": 0.7874015748031497,
                    "duration": 0.23076899999999512
                },
                {
                    "name": "G#3",
                    "midi": 56,
                    "time": 106.15374000000016,
                    "velocity": 0.7874015748031497,
                    "duration": 0.23076899999999512
                },
                {
                    "name": "C#4",
                    "midi": 61,
                    "time": 106.38450900000015,
                    "velocity": 0.7874015748031497,
                    "duration": 0.23076899999999512
                },
                {
                    "name": "A3",
                    "midi": 57,
                    "time": 106.38450900000015,
                    "velocity": 0.7874015748031497,
                    "duration": 0.23076899999999512
                },
                {
                    "name": "C#4",
                    "midi": 61,
                    "time": 106.61527800000015,
                    "velocity": 0.7874015748031497,
                    "duration": 0.23076899999999512
                },
                {
                    "name": "A3",
                    "midi": 57,
                    "time": 106.61527800000015,
                    "velocity": 0.7874015748031497,
                    "duration": 0.23076899999999512
                },
                {
                    "name": "A2",
                    "midi": 45,
                    "time": 106.61527800000015,
                    "velocity": 0.7874015748031497,
                    "duration": 0.23076899999999512
                },
                {
                    "name": "E4",
                    "midi": 64,
                    "time": 106.84604700000014,
                    "velocity": 0.7874015748031497,
                    "duration": 0.11538450000000466
                },
                {
                    "name": "F#4",
                    "midi": 66,
                    "time": 106.96143150000015,
                    "velocity": 0.7874015748031497,
                    "duration": 0.11538450000000466
                },
                {
                    "name": "C#3",
                    "midi": 49,
                    "time": 107.07681600000015,
                    "velocity": 0.7874015748031497,
                    "duration": 0.23076899999999512
                },
                {
                    "name": "E4",
                    "midi": 64,
                    "time": 107.07681600000015,
                    "velocity": 0.7874015748031497,
                    "duration": 0.23076899999999512
                },
                {
                    "name": "B2",
                    "midi": 47,
                    "time": 107.30758500000015,
                    "velocity": 0.7874015748031497,
                    "duration": 0.23076899999999512
                },
                {
                    "name": "D4",
                    "midi": 62,
                    "time": 107.30758500000015,
                    "velocity": 0.7874015748031497,
                    "duration": 0.23076899999999512
                },
                {
                    "name": "C#4",
                    "midi": 61,
                    "time": 107.53835400000014,
                    "velocity": 0.7874015748031497,
                    "duration": 0.11538450000000466
                },
                {
                    "name": "A2",
                    "midi": 45,
                    "time": 107.53835400000014,
                    "velocity": 0.7874015748031497,
                    "duration": 0.9230760000000373
                },
                {
                    "name": "E4",
                    "midi": 64,
                    "time": 107.65373850000014,
                    "velocity": 0.7874015748031497,
                    "duration": 0.11538450000000466
                },
                {
                    "name": "A4",
                    "midi": 69,
                    "time": 107.76912300000015,
                    "velocity": 0.7874015748031497,
                    "duration": 0.11538450000000466
                },
                {
                    "name": "E4",
                    "midi": 64,
                    "time": 107.88450750000015,
                    "velocity": 0.7874015748031497,
                    "duration": 0.11538450000000466
                },
                {
                    "name": "A4",
                    "midi": 69,
                    "time": 107.99989200000016,
                    "velocity": 0.7874015748031497,
                    "duration": 0.11538450000000466
                },
                {
                    "name": "E4",
                    "midi": 64,
                    "time": 108.11527650000016,
                    "velocity": 0.7874015748031497,
                    "duration": 0.11538450000000466
                },
                {
                    "name": "D4",
                    "midi": 62,
                    "time": 108.23066100000017,
                    "velocity": 0.7874015748031497,
                    "duration": 0.11538450000000466
                },
                {
                    "name": "C#4",
                    "midi": 61,
                    "time": 108.34604550000017,
                    "velocity": 0.7874015748031497,
                    "duration": 0.11538450000000466
                },
                {
                    "name": "B3",
                    "midi": 59,
                    "time": 108.46143000000018,
                    "velocity": 0.7874015748031497,
                    "duration": 0.46153800000001866
                },
                {
                    "name": "E2",
                    "midi": 40,
                    "time": 108.57681450000018,
                    "velocity": 0.7874015748031497,
                    "duration": 0.11538450000000466
                },
                {
                    "name": "F#2",
                    "midi": 42,
                    "time": 108.69219900000019,
                    "velocity": 0.7874015748031497,
                    "duration": 0.11538450000000466
                },
                {
                    "name": "G#2",
                    "midi": 44,
                    "time": 108.80758350000019,
                    "velocity": 0.7874015748031497,
                    "duration": 0.11538450000000466
                },
                {
                    "name": "C#4",
                    "midi": 61,
                    "time": 108.9229680000002,
                    "velocity": 0.7874015748031497,
                    "duration": 0.11538450000000466
                },
                {
                    "name": "A2",
                    "midi": 45,
                    "time": 108.9229680000002,
                    "velocity": 0.7874015748031497,
                    "duration": 0.9230760000000373
                },
                {
                    "name": "E4",
                    "midi": 64,
                    "time": 109.0383525000002,
                    "velocity": 0.7874015748031497,
                    "duration": 0.11538450000000466
                },
                {
                    "name": "A4",
                    "midi": 69,
                    "time": 109.1537370000002,
                    "velocity": 0.7874015748031497,
                    "duration": 0.11538450000000466
                },
                {
                    "name": "E4",
                    "midi": 64,
                    "time": 109.26912150000021,
                    "velocity": 0.7874015748031497,
                    "duration": 0.11538450000000466
                },
                {
                    "name": "A4",
                    "midi": 69,
                    "time": 109.38450600000021,
                    "velocity": 0.7874015748031497,
                    "duration": 0.11538450000000466
                },
                {
                    "name": "E4",
                    "midi": 64,
                    "time": 109.49989050000022,
                    "velocity": 0.7874015748031497,
                    "duration": 0.11538450000000466
                },
                {
                    "name": "D4",
                    "midi": 62,
                    "time": 109.61527500000022,
                    "velocity": 0.7874015748031497,
                    "duration": 0.11538450000000466
                },
                {
                    "name": "C#4",
                    "midi": 61,
                    "time": 109.73065950000023,
                    "velocity": 0.7874015748031497,
                    "duration": 0.11538450000000466
                },
                {
                    "name": "B3",
                    "midi": 59,
                    "time": 109.84604400000023,
                    "velocity": 0.7874015748031497,
                    "duration": 0.46153800000001866
                },
                {
                    "name": "E2",
                    "midi": 40,
                    "time": 109.96142850000024,
                    "velocity": 0.7874015748031497,
                    "duration": 0.11538450000000466
                },
                {
                    "name": "F#2",
                    "midi": 42,
                    "time": 110.07681300000024,
                    "velocity": 0.7874015748031497,
                    "duration": 0.11538450000000466
                },
                {
                    "name": "G#2",
                    "midi": 44,
                    "time": 110.19219750000025,
                    "velocity": 0.7874015748031497,
                    "duration": 0.11538450000000466
                },
                {
                    "name": "C#4",
                    "midi": 61,
                    "time": 110.30758200000025,
                    "velocity": 0.7874015748031497,
                    "duration": 0.11538450000000466
                },
                {
                    "name": "A2",
                    "midi": 45,
                    "time": 110.30758200000025,
                    "velocity": 0.7874015748031497,
                    "duration": 0.46153800000001866
                },
                {
                    "name": "A4",
                    "midi": 69,
                    "time": 110.42296650000026,
                    "velocity": 0.7874015748031497,
                    "duration": 0.11538450000000466
                },
                {
                    "name": "G#4",
                    "midi": 68,
                    "time": 110.53835100000026,
                    "velocity": 0.7874015748031497,
                    "duration": 0.11538450000000466
                },
                {
                    "name": "F#4",
                    "midi": 66,
                    "time": 110.65373550000027,
                    "velocity": 0.7874015748031497,
                    "duration": 0.11538450000000466
                },
                {
                    "name": "B3",
                    "midi": 59,
                    "time": 110.76912000000027,
                    "velocity": 0.7874015748031497,
                    "duration": 0.11538450000000466
                },
                {
                    "name": "B2",
                    "midi": 47,
                    "time": 110.76912000000027,
                    "velocity": 0.7874015748031497,
                    "duration": 0.9230760000000373
                },
                {
                    "name": "E4",
                    "midi": 64,
                    "time": 110.88450450000028,
                    "velocity": 0.7874015748031497,
                    "duration": 0.11538450000000466
                },
                {
                    "name": "F#4",
                    "midi": 66,
                    "time": 110.99988900000028,
                    "velocity": 0.7874015748031497,
                    "duration": 0.11538450000000466
                },
                {
                    "name": "G#4",
                    "midi": 68,
                    "time": 111.11527350000028,
                    "velocity": 0.7874015748031497,
                    "duration": 0.11538450000000466
                },
                {
                    "name": "G#4",
                    "midi": 68,
                    "time": 111.23065800000029,
                    "velocity": 0.7874015748031497,
                    "duration": 0.11538450000000466
                },
                {
                    "name": "F#4",
                    "midi": 66,
                    "time": 111.3460425000003,
                    "velocity": 0.7874015748031497,
                    "duration": 0.11538450000000466
                },
                {
                    "name": "E4",
                    "midi": 64,
                    "time": 111.4614270000003,
                    "velocity": 0.7874015748031497,
                    "duration": 0.11538450000000466
                },
                {
                    "name": "D#4",
                    "midi": 63,
                    "time": 111.5768115000003,
                    "velocity": 0.7874015748031497,
                    "duration": 0.11538450000000466
                },
                {
                    "name": "E2",
                    "midi": 40,
                    "time": 111.69219600000031,
                    "velocity": 0.7874015748031497,
                    "duration": 0.9230760000000373
                },
                {
                    "name": "E4",
                    "midi": 64,
                    "time": 111.80758050000031,
                    "velocity": 0.7874015748031497,
                    "duration": 0.11538450000000466
                },
                {
                    "name": "B3",
                    "midi": 59,
                    "time": 111.92296500000032,
                    "velocity": 0.7874015748031497,
                    "duration": 0.11538450000000466
                },
                {
                    "name": "G#3",
                    "midi": 56,
                    "time": 112.03834950000032,
                    "velocity": 0.7874015748031497,
                    "duration": 0.11538450000000466
                },
                {
                    "name": "E3",
                    "midi": 52,
                    "time": 112.15373400000033,
                    "velocity": 0.7874015748031497,
                    "duration": 0.23076900000000933
                },
                {
                    "name": "G#3",
                    "midi": 56,
                    "time": 112.26911850000033,
                    "velocity": 0.7874015748031497,
                    "duration": 0.11538450000000466
                },
                {
                    "name": "B2",
                    "midi": 47,
                    "time": 112.38450300000034,
                    "velocity": 0.7874015748031497,
                    "duration": 0.23076900000000933
                },
                {
                    "name": "E3",
                    "midi": 52,
                    "time": 112.49988750000034,
                    "velocity": 0.7874015748031497,
                    "duration": 0.11538450000000466
                },
                {
                    "name": "E2",
                    "midi": 40,
                    "time": 112.61527200000035,
                    "velocity": 1,
                    "duration": 0.46153800000000444
                },
                {
                    "name": "B2",
                    "midi": 47,
                    "time": 112.67296425000035,
                    "velocity": 0.7874015748031497,
                    "duration": 0.4038457500000021
                },
                {
                    "name": "E3",
                    "midi": 52,
                    "time": 112.73065650000035,
                    "velocity": 0.7874015748031497,
                    "duration": 0.3461534999999998
                },
                {
                    "name": "A3",
                    "midi": 57,
                    "time": 113.07681000000035,
                    "velocity": 0.7874015748031497,
                    "duration": 0.11538450000000466
                },
                {
                    "name": "C#4",
                    "midi": 61,
                    "time": 113.07681000000035,
                    "velocity": 0.7874015748031497,
                    "duration": 0.23076900000000933
                },
                {
                    "name": "A2",
                    "midi": 45,
                    "time": 113.19219450000035,
                    "velocity": 0.7874015748031497,
                    "duration": 0.11538450000000466
                },
                {
                    "name": "B3",
                    "midi": 59,
                    "time": 113.30757900000036,
                    "velocity": 0.7874015748031497,
                    "duration": 0.11538450000000466
                },
                {
                    "name": "D4",
                    "midi": 62,
                    "time": 113.30757900000036,
                    "velocity": 0.7874015748031497,
                    "duration": 0.23076900000000933
                },
                {
                    "name": "A2",
                    "midi": 45,
                    "time": 113.42296350000036,
                    "velocity": 0.7874015748031497,
                    "duration": 0.11538450000000466
                },
                {
                    "name": "C#4",
                    "midi": 61,
                    "time": 113.53834800000037,
                    "velocity": 0.7874015748031497,
                    "duration": 0.11538450000000466
                },
                {
                    "name": "E4",
                    "midi": 64,
                    "time": 113.53834800000037,
                    "velocity": 0.7874015748031497,
                    "duration": 0.23076900000000933
                },
                {
                    "name": "A2",
                    "midi": 45,
                    "time": 113.65373250000037,
                    "velocity": 0.7874015748031497,
                    "duration": 0.11538450000000466
                },
                {
                    "name": "D4",
                    "midi": 62,
                    "time": 113.76911700000038,
                    "velocity": 0.7874015748031497,
                    "duration": 0.11538450000000466
                },
                {
                    "name": "F#4",
                    "midi": 66,
                    "time": 113.76911700000038,
                    "velocity": 0.7874015748031497,
                    "duration": 0.23076900000000933
                },
                {
                    "name": "A2",
                    "midi": 45,
                    "time": 113.88450150000038,
                    "velocity": 0.7874015748031497,
                    "duration": 0.11538450000000466
                },
                {
                    "name": "C#4",
                    "midi": 61,
                    "time": 113.99988600000039,
                    "velocity": 0.7874015748031497,
                    "duration": 0.11538450000000466
                },
                {
                    "name": "E4",
                    "midi": 64,
                    "time": 113.99988600000039,
                    "velocity": 0.7874015748031497,
                    "duration": 0.23076900000000933
                },
                {
                    "name": "A2",
                    "midi": 45,
                    "time": 114.11527050000039,
                    "velocity": 0.7874015748031497,
                    "duration": 0.11538450000000466
                },
                {
                    "name": "C4",
                    "midi": 60,
                    "time": 114.2306550000004,
                    "velocity": 0.7874015748031497,
                    "duration": 0.11538450000000466
                },
                {
                    "name": "D#4",
                    "midi": 63,
                    "time": 114.2306550000004,
                    "velocity": 0.7874015748031497,
                    "duration": 0.23076900000000933
                },
                {
                    "name": "A2",
                    "midi": 45,
                    "time": 114.3460395000004,
                    "velocity": 0.7874015748031497,
                    "duration": 0.23076900000000933
                },
                {
                    "name": "C4",
                    "midi": 60,
                    "time": 114.4614240000004,
                    "velocity": 0.7874015748031497,
                    "duration": 0.23076900000000933
                },
                {
                    "name": "D#4",
                    "midi": 63,
                    "time": 114.4614240000004,
                    "velocity": 0.7874015748031497,
                    "duration": 0.23076900000000933
                },
                {
                    "name": "A2",
                    "midi": 45,
                    "time": 114.4614240000004,
                    "velocity": 0.7874015748031497,
                    "duration": 0.46153800000000444
                },
                {
                    "name": "C#4",
                    "midi": 61,
                    "time": 114.69219300000042,
                    "velocity": 0.7874015748031497,
                    "duration": 0.23076899999999512
                },
                {
                    "name": "E4",
                    "midi": 64,
                    "time": 114.69219300000042,
                    "velocity": 0.7874015748031497,
                    "duration": 0.23076899999999512
                },
                {
                    "name": "C#4",
                    "midi": 61,
                    "time": 114.92296200000041,
                    "velocity": 0.7874015748031497,
                    "duration": 0.23076899999999512
                },
                {
                    "name": "E4",
                    "midi": 64,
                    "time": 114.92296200000041,
                    "velocity": 0.7874015748031497,
                    "duration": 0.23076899999999512
                },
                {
                    "name": "A2",
                    "midi": 45,
                    "time": 114.92296200000041,
                    "velocity": 0.7874015748031497,
                    "duration": 0.23076899999999512
                },
                {
                    "name": "F#4",
                    "midi": 66,
                    "time": 115.1537310000004,
                    "velocity": 0.7874015748031497,
                    "duration": 0.11538450000000466
                },
                {
                    "name": "E4",
                    "midi": 64,
                    "time": 115.26911550000041,
                    "velocity": 0.7874015748031497,
                    "duration": 0.11538450000000466
                },
                {
                    "name": "B2",
                    "midi": 47,
                    "time": 115.38450000000041,
                    "velocity": 0.7874015748031497,
                    "duration": 0.23076899999999512
                },
                {
                    "name": "D#4",
                    "midi": 63,
                    "time": 115.38450000000041,
                    "velocity": 0.7874015748031497,
                    "duration": 0.23076899999999512
                },
                {
                    "name": "A2",
                    "midi": 45,
                    "time": 115.61526900000041,
                    "velocity": 0.7874015748031497,
                    "duration": 0.23076899999999512
                },
                {
                    "name": "C#4",
                    "midi": 61,
                    "time": 115.61526900000041,
                    "velocity": 0.7874015748031497,
                    "duration": 0.23076899999999512
                },
                {
                    "name": "G#3",
                    "midi": 56,
                    "time": 115.8460380000004,
                    "velocity": 0.7874015748031497,
                    "duration": 0.11538450000000466
                },
                {
                    "name": "B3",
                    "midi": 59,
                    "time": 115.8460380000004,
                    "velocity": 0.7874015748031497,
                    "duration": 0.23076900000000933
                },
                {
                    "name": "E2",
                    "midi": 40,
                    "time": 115.96142250000041,
                    "velocity": 0.7874015748031497,
                    "duration": 0.11538450000000466
                },
                {
                    "name": "A3",
                    "midi": 57,
                    "time": 116.07680700000041,
                    "velocity": 0.7874015748031497,
                    "duration": 0.11538450000000466
                },
                {
                    "name": "C#4",
                    "midi": 61,
                    "time": 116.07680700000041,
                    "velocity": 0.7874015748031497,
                    "duration": 0.23076900000000933
                },
                {
                    "name": "E2",
                    "midi": 40,
                    "time": 116.19219150000042,
                    "velocity": 0.7874015748031497,
                    "duration": 0.11538450000000466
                },
                {
                    "name": "B3",
                    "midi": 59,
                    "time": 116.30757600000042,
                    "velocity": 0.7874015748031497,
                    "duration": 0.11538450000000466
                },
                {
                    "name": "D4",
                    "midi": 62,
                    "time": 116.30757600000042,
                    "velocity": 0.7874015748031497,
                    "duration": 0.23076900000000933
                },
                {
                    "name": "E2",
                    "midi": 40,
                    "time": 116.42296050000043,
                    "velocity": 0.7874015748031497,
                    "duration": 0.11538450000000466
                },
                {
                    "name": "C4",
                    "midi": 60,
                    "time": 116.53834500000043,
                    "velocity": 0.7874015748031497,
                    "duration": 0.11538450000000466
                },
                {
                    "name": "D#4",
                    "midi": 63,
                    "time": 116.53834500000043,
                    "velocity": 0.7874015748031497,
                    "duration": 0.23076900000000933
                },
                {
                    "name": "E2",
                    "midi": 40,
                    "time": 116.65372950000044,
                    "velocity": 0.7874015748031497,
                    "duration": 0.11538450000000466
                },
                {
                    "name": "C#4",
                    "midi": 61,
                    "time": 116.76911400000044,
                    "velocity": 0.7874015748031497,
                    "duration": 0.11538450000000466
                },
                {
                    "name": "E4",
                    "midi": 64,
                    "time": 116.76911400000044,
                    "velocity": 0.7874015748031497,
                    "duration": 0.23076900000000933
                },
                {
                    "name": "E2",
                    "midi": 40,
                    "time": 116.88449850000045,
                    "velocity": 0.7874015748031497,
                    "duration": 0.11538450000000466
                },
                {
                    "name": "B3",
                    "midi": 59,
                    "time": 116.99988300000045,
                    "velocity": 0.7874015748031497,
                    "duration": 0.11538450000000466
                },
                {
                    "name": "D4",
                    "midi": 62,
                    "time": 116.99988300000045,
                    "velocity": 0.7874015748031497,
                    "duration": 0.23076900000000933
                },
                {
                    "name": "E2",
                    "midi": 40,
                    "time": 117.11526750000046,
                    "velocity": 0.7874015748031497,
                    "duration": 0.11538450000000466
                },
                {
                    "name": "E2",
                    "midi": 40,
                    "time": 117.23065200000046,
                    "velocity": 0.7874015748031497,
                    "duration": 0.46153799999999023
                },
                {
                    "name": "C4",
                    "midi": 60,
                    "time": 117.23065200000046,
                    "velocity": 0.7874015748031497,
                    "duration": 0.23076899999999512
                },
                {
                    "name": "G#3",
                    "midi": 56,
                    "time": 117.23065200000046,
                    "velocity": 0.7874015748031497,
                    "duration": 0.23076899999999512
                },
                {
                    "name": "C#4",
                    "midi": 61,
                    "time": 117.46142100000046,
                    "velocity": 0.7874015748031497,
                    "duration": 0.23076899999999512
                },
                {
                    "name": "A3",
                    "midi": 57,
                    "time": 117.46142100000046,
                    "velocity": 0.7874015748031497,
                    "duration": 0.23076899999999512
                },
                {
                    "name": "C#4",
                    "midi": 61,
                    "time": 117.69219000000045,
                    "velocity": 0.7874015748031497,
                    "duration": 0.23076899999999512
                },
                {
                    "name": "A3",
                    "midi": 57,
                    "time": 117.69219000000045,
                    "velocity": 0.7874015748031497,
                    "duration": 0.23076899999999512
                },
                {
                    "name": "A2",
                    "midi": 45,
                    "time": 117.69219000000045,
                    "velocity": 0.7874015748031497,
                    "duration": 0.23076899999999512
                },
                {
                    "name": "E4",
                    "midi": 64,
                    "time": 117.92295900000045,
                    "velocity": 0.7874015748031497,
                    "duration": 0.11538450000000466
                },
                {
                    "name": "F#4",
                    "midi": 66,
                    "time": 118.03834350000045,
                    "velocity": 0.7874015748031497,
                    "duration": 0.11538450000000466
                },
                {
                    "name": "C#3",
                    "midi": 49,
                    "time": 118.15372800000046,
                    "velocity": 0.7874015748031497,
                    "duration": 0.23076899999999512
                },
                {
                    "name": "E4",
                    "midi": 64,
                    "time": 118.15372800000046,
                    "velocity": 0.7874015748031497,
                    "duration": 0.23076899999999512
                },
                {
                    "name": "B2",
                    "midi": 47,
                    "time": 118.38449700000045,
                    "velocity": 0.7874015748031497,
                    "duration": 0.23076899999999512
                },
                {
                    "name": "D4",
                    "midi": 62,
                    "time": 118.38449700000045,
                    "velocity": 0.7874015748031497,
                    "duration": 0.23076899999999512
                },
                {
                    "name": "C#4",
                    "midi": 61,
                    "time": 118.61526600000045,
                    "velocity": 0.7874015748031497,
                    "duration": 0.11538450000000466
                },
                {
                    "name": "A2",
                    "midi": 45,
                    "time": 118.61526600000045,
                    "velocity": 0.7874015748031497,
                    "duration": 0.9230760000000373
                },
                {
                    "name": "E4",
                    "midi": 64,
                    "time": 118.73065050000045,
                    "velocity": 0.7874015748031497,
                    "duration": 0.11538450000000466
                },
                {
                    "name": "A4",
                    "midi": 69,
                    "time": 118.84603500000046,
                    "velocity": 0.7874015748031497,
                    "duration": 0.11538450000000466
                },
                {
                    "name": "E4",
                    "midi": 64,
                    "time": 118.96141950000046,
                    "velocity": 0.7874015748031497,
                    "duration": 0.11538450000000466
                },
                {
                    "name": "A4",
                    "midi": 69,
                    "time": 119.07680400000046,
                    "velocity": 0.7874015748031497,
                    "duration": 0.11538450000000466
                },
                {
                    "name": "E4",
                    "midi": 64,
                    "time": 119.19218850000047,
                    "velocity": 0.7874015748031497,
                    "duration": 0.11538450000000466
                },
                {
                    "name": "D4",
                    "midi": 62,
                    "time": 119.30757300000047,
                    "velocity": 0.7874015748031497,
                    "duration": 0.11538450000000466
                },
                {
                    "name": "C#4",
                    "midi": 61,
                    "time": 119.42295750000048,
                    "velocity": 0.7874015748031497,
                    "duration": 0.11538450000000466
                },
                {
                    "name": "B3",
                    "midi": 59,
                    "time": 119.53834200000048,
                    "velocity": 0.7874015748031497,
                    "duration": 0.46153800000001866
                },
                {
                    "name": "E2",
                    "midi": 40,
                    "time": 119.65372650000049,
                    "velocity": 0.7874015748031497,
                    "duration": 0.11538450000000466
                },
                {
                    "name": "F#2",
                    "midi": 42,
                    "time": 119.76911100000049,
                    "velocity": 0.7874015748031497,
                    "duration": 0.11538450000000466
                },
                {
                    "name": "G#2",
                    "midi": 44,
                    "time": 119.8844955000005,
                    "velocity": 0.7874015748031497,
                    "duration": 0.11538450000000466
                },
                {
                    "name": "C#4",
                    "midi": 61,
                    "time": 119.9998800000005,
                    "velocity": 0.7874015748031497,
                    "duration": 0.11538450000000466
                },
                {
                    "name": "A2",
                    "midi": 45,
                    "time": 119.9998800000005,
                    "velocity": 0.7874015748031497,
                    "duration": 0.9230760000000373
                },
                {
                    "name": "E4",
                    "midi": 64,
                    "time": 120.1152645000005,
                    "velocity": 0.7874015748031497,
                    "duration": 0.11538450000000466
                },
                {
                    "name": "A4",
                    "midi": 69,
                    "time": 120.23064900000051,
                    "velocity": 0.7874015748031497,
                    "duration": 0.11538450000000466
                },
                {
                    "name": "E4",
                    "midi": 64,
                    "time": 120.34603350000052,
                    "velocity": 0.7874015748031497,
                    "duration": 0.11538450000000466
                },
                {
                    "name": "A4",
                    "midi": 69,
                    "time": 120.46141800000052,
                    "velocity": 0.7874015748031497,
                    "duration": 0.11538450000000466
                },
                {
                    "name": "E4",
                    "midi": 64,
                    "time": 120.57680250000053,
                    "velocity": 0.7874015748031497,
                    "duration": 0.11538450000000466
                },
                {
                    "name": "D4",
                    "midi": 62,
                    "time": 120.69218700000053,
                    "velocity": 0.7874015748031497,
                    "duration": 0.11538450000000466
                },
                {
                    "name": "C#4",
                    "midi": 61,
                    "time": 120.80757150000053,
                    "velocity": 0.7874015748031497,
                    "duration": 0.11538450000000466
                },
                {
                    "name": "B3",
                    "midi": 59,
                    "time": 120.92295600000054,
                    "velocity": 0.7874015748031497,
                    "duration": 0.46153800000001866
                },
                {
                    "name": "E2",
                    "midi": 40,
                    "time": 121.03834050000054,
                    "velocity": 0.7874015748031497,
                    "duration": 0.11538450000000466
                },
                {
                    "name": "F#2",
                    "midi": 42,
                    "time": 121.15372500000055,
                    "velocity": 0.7874015748031497,
                    "duration": 0.11538450000000466
                },
                {
                    "name": "G#2",
                    "midi": 44,
                    "time": 121.26910950000055,
                    "velocity": 0.7874015748031497,
                    "duration": 0.11538450000000466
                },
                {
                    "name": "C#4",
                    "midi": 61,
                    "time": 121.38449400000056,
                    "velocity": 0.7874015748031497,
                    "duration": 0.11538450000000466
                },
                {
                    "name": "A2",
                    "midi": 45,
                    "time": 121.38449400000056,
                    "velocity": 0.7874015748031497,
                    "duration": 0.46153800000001866
                },
                {
                    "name": "A4",
                    "midi": 69,
                    "time": 121.49987850000056,
                    "velocity": 0.7874015748031497,
                    "duration": 0.11538450000000466
                },
                {
                    "name": "G#4",
                    "midi": 68,
                    "time": 121.61526300000057,
                    "velocity": 0.7874015748031497,
                    "duration": 0.11538450000000466
                },
                {
                    "name": "F#4",
                    "midi": 66,
                    "time": 121.73064750000057,
                    "velocity": 0.7874015748031497,
                    "duration": 0.11538450000000466
                },
                {
                    "name": "B3",
                    "midi": 59,
                    "time": 121.84603200000058,
                    "velocity": 0.7874015748031497,
                    "duration": 0.11538450000000466
                },
                {
                    "name": "B2",
                    "midi": 47,
                    "time": 121.84603200000058,
                    "velocity": 0.7874015748031497,
                    "duration": 0.9230760000000373
                },
                {
                    "name": "E4",
                    "midi": 64,
                    "time": 121.96141650000058,
                    "velocity": 0.7874015748031497,
                    "duration": 0.11538450000000466
                },
                {
                    "name": "F#4",
                    "midi": 66,
                    "time": 122.07680100000059,
                    "velocity": 0.7874015748031497,
                    "duration": 0.11538450000000466
                },
                {
                    "name": "G#4",
                    "midi": 68,
                    "time": 122.19218550000059,
                    "velocity": 0.7874015748031497,
                    "duration": 0.11538450000000466
                },
                {
                    "name": "G#4",
                    "midi": 68,
                    "time": 122.3075700000006,
                    "velocity": 0.7874015748031497,
                    "duration": 0.11538450000000466
                },
                {
                    "name": "F#4",
                    "midi": 66,
                    "time": 122.4229545000006,
                    "velocity": 0.7874015748031497,
                    "duration": 0.11538450000000466
                },
                {
                    "name": "E4",
                    "midi": 64,
                    "time": 122.5383390000006,
                    "velocity": 0.7874015748031497,
                    "duration": 0.11538450000000466
                },
                {
                    "name": "D#4",
                    "midi": 63,
                    "time": 122.65372350000061,
                    "velocity": 0.7874015748031497,
                    "duration": 0.11538450000000466
                },
                {
                    "name": "E2",
                    "midi": 40,
                    "time": 122.76910800000061,
                    "velocity": 0.7874015748031497,
                    "duration": 0.9230760000000373
                },
                {
                    "name": "E4",
                    "midi": 64,
                    "time": 122.88449250000062,
                    "velocity": 0.7874015748031497,
                    "duration": 0.11538450000000466
                },
                {
                    "name": "B3",
                    "midi": 59,
                    "time": 122.99987700000062,
                    "velocity": 0.7874015748031497,
                    "duration": 0.11538450000000466
                },
                {
                    "name": "G#3",
                    "midi": 56,
                    "time": 123.11526150000063,
                    "velocity": 0.7874015748031497,
                    "duration": 0.11538450000000466
                },
                {
                    "name": "E3",
                    "midi": 52,
                    "time": 123.23064600000063,
                    "velocity": 0.7874015748031497,
                    "duration": 0.23076900000000933
                },
                {
                    "name": "G#3",
                    "midi": 56,
                    "time": 123.34603050000064,
                    "velocity": 0.7874015748031497,
                    "duration": 0.11538450000000466
                },
                {
                    "name": "B2",
                    "midi": 47,
                    "time": 123.46141500000064,
                    "velocity": 0.7874015748031497,
                    "duration": 0.23076900000000933
                },
                {
                    "name": "E3",
                    "midi": 52,
                    "time": 123.57679950000065,
                    "velocity": 0.7874015748031497,
                    "duration": 0.11538450000000466
                },
                {
                    "name": "E2",
                    "midi": 40,
                    "time": 123.69218400000065,
                    "velocity": 1,
                    "duration": 0.46153800000000444
                },
                {
                    "name": "B2",
                    "midi": 47,
                    "time": 123.74987625000065,
                    "velocity": 0.7874015748031497,
                    "duration": 0.4038457500000021
                },
                {
                    "name": "E3",
                    "midi": 52,
                    "time": 123.80756850000066,
                    "velocity": 0.7874015748031497,
                    "duration": 0.3461534999999998
                },
                {
                    "name": "G#3",
                    "midi": 56,
                    "time": 124.15372200000066,
                    "velocity": 0.7874015748031497,
                    "duration": 0.46153800000001866
                },
                {
                    "name": "B3",
                    "midi": 59,
                    "time": 124.15372200000066,
                    "velocity": 0.7874015748031497,
                    "duration": 0.46153800000001866
                },
                {
                    "name": "E2",
                    "midi": 40,
                    "time": 124.26910650000066,
                    "velocity": 1,
                    "duration": 0.11538450000000466
                },
                {
                    "name": "F2",
                    "midi": 41,
                    "time": 124.38449100000066,
                    "velocity": 1,
                    "duration": 0.11538450000000466
                },
                {
                    "name": "E2",
                    "midi": 40,
                    "time": 124.49987550000067,
                    "velocity": 1,
                    "duration": 0.11538450000000466
                },
                {
                    "name": "G#3",
                    "midi": 56,
                    "time": 124.61526000000067,
                    "velocity": 0.7874015748031497,
                    "duration": 0.46153800000001866
                },
                {
                    "name": "B3",
                    "midi": 59,
                    "time": 124.61526000000067,
                    "velocity": 0.7874015748031497,
                    "duration": 0.46153800000001866
                },
                {
                    "name": "E2",
                    "midi": 40,
                    "time": 124.73064450000068,
                    "velocity": 1,
                    "duration": 0.11538450000000466
                },
                {
                    "name": "F2",
                    "midi": 41,
                    "time": 124.84602900000068,
                    "velocity": 1,
                    "duration": 0.11538450000000466
                },
                {
                    "name": "E2",
                    "midi": 40,
                    "time": 124.96141350000069,
                    "velocity": 1,
                    "duration": 0.11538450000000466
                },
                {
                    "name": "C4",
                    "midi": 60,
                    "time": 125.0767980000007,
                    "velocity": 0.7874015748031497,
                    "duration": 0.46153800000001866
                },
                {
                    "name": "A3",
                    "midi": 57,
                    "time": 125.0767980000007,
                    "velocity": 0.7874015748031497,
                    "duration": 0.46153800000001866
                },
                {
                    "name": "E2",
                    "midi": 40,
                    "time": 125.1921825000007,
                    "velocity": 1,
                    "duration": 0.11538450000000466
                },
                {
                    "name": "F2",
                    "midi": 41,
                    "time": 125.3075670000007,
                    "velocity": 1,
                    "duration": 0.11538450000000466
                },
                {
                    "name": "E2",
                    "midi": 40,
                    "time": 125.4229515000007,
                    "velocity": 1,
                    "duration": 0.11538450000000466
                },
                {
                    "name": "G#3",
                    "midi": 56,
                    "time": 125.53833600000071,
                    "velocity": 0.7874015748031497,
                    "duration": 0.46153800000001866
                },
                {
                    "name": "B3",
                    "midi": 59,
                    "time": 125.53833600000071,
                    "velocity": 0.7874015748031497,
                    "duration": 0.46153800000001866
                },
                {
                    "name": "E2",
                    "midi": 40,
                    "time": 125.65372050000072,
                    "velocity": 1,
                    "duration": 0.11538450000000466
                },
                {
                    "name": "F2",
                    "midi": 41,
                    "time": 125.76910500000072,
                    "velocity": 1,
                    "duration": 0.11538450000000466
                },
                {
                    "name": "E2",
                    "midi": 40,
                    "time": 125.88448950000073,
                    "velocity": 1,
                    "duration": 0.11538450000000466
                },
                {
                    "name": "G#3",
                    "midi": 56,
                    "time": 125.99987400000073,
                    "velocity": 0.7874015748031497,
                    "duration": 0.46153800000001866
                },
                {
                    "name": "B3",
                    "midi": 59,
                    "time": 125.99987400000073,
                    "velocity": 0.7874015748031497,
                    "duration": 0.46153800000001866
                },
                {
                    "name": "E2",
                    "midi": 40,
                    "time": 126.11525850000073,
                    "velocity": 1,
                    "duration": 0.11538450000000466
                },
                {
                    "name": "F2",
                    "midi": 41,
                    "time": 126.23064300000074,
                    "velocity": 1,
                    "duration": 0.11538450000000466
                },
                {
                    "name": "E2",
                    "midi": 40,
                    "time": 126.34602750000074,
                    "velocity": 1,
                    "duration": 0.11538450000000466
                },
                {
                    "name": "C4",
                    "midi": 60,
                    "time": 126.46141200000075,
                    "velocity": 0.7874015748031497,
                    "duration": 0.46153800000001866
                },
                {
                    "name": "A3",
                    "midi": 57,
                    "time": 126.46141200000075,
                    "velocity": 0.7874015748031497,
                    "duration": 0.46153800000001866
                },
                {
                    "name": "E2",
                    "midi": 40,
                    "time": 126.57679650000075,
                    "velocity": 1,
                    "duration": 0.11538450000000466
                },
                {
                    "name": "F2",
                    "midi": 41,
                    "time": 126.69218100000076,
                    "velocity": 1,
                    "duration": 0.11538450000000466
                },
                {
                    "name": "E2",
                    "midi": 40,
                    "time": 126.80756550000076,
                    "velocity": 1,
                    "duration": 0.11538450000000466
                },
                {
                    "name": "F4",
                    "midi": 65,
                    "time": 126.92295000000077,
                    "velocity": 1,
                    "duration": 0.46153800000000444
                },
                {
                    "name": "C4",
                    "midi": 60,
                    "time": 126.92295000000077,
                    "velocity": 1,
                    "duration": 0.46153800000000444
                },
                {
                    "name": "A3",
                    "midi": 57,
                    "time": 126.92295000000077,
                    "velocity": 1,
                    "duration": 0.46153800000000444
                },
                {
                    "name": "F3",
                    "midi": 53,
                    "time": 126.92295000000077,
                    "velocity": 1,
                    "duration": 0.46153800000000444
                },
                {
                    "name": "C3",
                    "midi": 48,
                    "time": 126.92295000000077,
                    "velocity": 1,
                    "duration": 0.46153800000000444
                },
                {
                    "name": "F2",
                    "midi": 41,
                    "time": 126.92295000000077,
                    "velocity": 1,
                    "duration": 0.46153800000000444
                },
                {
                    "name": "A4",
                    "midi": 69,
                    "time": 127.38448800000077,
                    "velocity": 0.7874015748031497,
                    "duration": 0.23076899999999512
                },
                {
                    "name": "G4",
                    "midi": 67,
                    "time": 127.61525700000077,
                    "velocity": 0.7874015748031497,
                    "duration": 0.11538450000000466
                },
                {
                    "name": "F4",
                    "midi": 65,
                    "time": 127.73064150000077,
                    "velocity": 0.7874015748031497,
                    "duration": 0.11538450000000466
                },
                {
                    "name": "F4",
                    "midi": 65,
                    "time": 127.84602600000078,
                    "velocity": 0.7874015748031497,
                    "duration": 0.11538450000000466
                },
                {
                    "name": "E4",
                    "midi": 64,
                    "time": 127.96141050000078,
                    "velocity": 0.7874015748031497,
                    "duration": 0.11538449999999045
                },
                {
                    "name": "E4",
                    "midi": 64,
                    "time": 128.07679500000077,
                    "velocity": 0.7874015748031497,
                    "duration": 0.11538450000000466
                },
                {
                    "name": "D#4",
                    "midi": 63,
                    "time": 128.19217950000078,
                    "velocity": 0.7874015748031497,
                    "duration": 0.11538450000000466
                },
                {
                    "name": "E2",
                    "midi": 40,
                    "time": 128.30756400000078,
                    "velocity": 0.7874015748031497,
                    "duration": 0.46153800000001866
                },
                {
                    "name": "E4",
                    "midi": 64,
                    "time": 128.42294850000079,
                    "velocity": 0.7874015748031497,
                    "duration": 0.11538450000000466
                },
                {
                    "name": "B3",
                    "midi": 59,
                    "time": 128.5383330000008,
                    "velocity": 0.7874015748031497,
                    "duration": 0.11538450000000466
                },
                {
                    "name": "E4",
                    "midi": 64,
                    "time": 128.6537175000008,
                    "velocity": 0.7874015748031497,
                    "duration": 0.11538450000000466
                },
                {
                    "name": "G#3",
                    "midi": 56,
                    "time": 128.7691020000008,
                    "velocity": 0.7874015748031497,
                    "duration": 0.23076900000000933
                },
                {
                    "name": "E4",
                    "midi": 64,
                    "time": 128.8844865000008,
                    "velocity": 0.7874015748031497,
                    "duration": 0.11538450000000466
                },
                {
                    "name": "E3",
                    "midi": 52,
                    "time": 128.9998710000008,
                    "velocity": 0.7874015748031497,
                    "duration": 0.23076900000000933
                },
                {
                    "name": "E4",
                    "midi": 64,
                    "time": 129.1152555000008,
                    "velocity": 0.7874015748031497,
                    "duration": 0.11538450000000466
                },
                {
                    "name": "D3",
                    "midi": 50,
                    "time": 129.23064000000082,
                    "velocity": 0.7874015748031497,
                    "duration": 0.23076900000000933
                },
                {
                    "name": "E4",
                    "midi": 64,
                    "time": 129.34602450000082,
                    "velocity": 0.7874015748031497,
                    "duration": 0.11538450000000466
                },
                {
                    "name": "B2",
                    "midi": 47,
                    "time": 129.46140900000083,
                    "velocity": 0.7874015748031497,
                    "duration": 0.23076900000000933
                },
                {
                    "name": "E4",
                    "midi": 64,
                    "time": 129.57679350000083,
                    "velocity": 0.7874015748031497,
                    "duration": 0.11538450000000466
                },
                {
                    "name": "A3",
                    "midi": 57,
                    "time": 129.69217800000084,
                    "velocity": 0.7874015748031497,
                    "duration": 0.11538450000000466
                },
                {
                    "name": "C#4",
                    "midi": 61,
                    "time": 129.69217800000084,
                    "velocity": 0.7874015748031497,
                    "duration": 0.23076900000000933
                },
                {
                    "name": "A2",
                    "midi": 45,
                    "time": 129.80756250000084,
                    "velocity": 0.7874015748031497,
                    "duration": 0.11538450000000466
                },
                {
                    "name": "B3",
                    "midi": 59,
                    "time": 129.92294700000085,
                    "velocity": 0.7874015748031497,
                    "duration": 0.11538450000000466
                },
                {
                    "name": "D4",
                    "midi": 62,
                    "time": 129.92294700000085,
                    "velocity": 0.7874015748031497,
                    "duration": 0.23076900000000933
                },
                {
                    "name": "A2",
                    "midi": 45,
                    "time": 130.03833150000085,
                    "velocity": 0.7874015748031497,
                    "duration": 0.11538450000000466
                },
                {
                    "name": "C#4",
                    "midi": 61,
                    "time": 130.15371600000086,
                    "velocity": 0.7874015748031497,
                    "duration": 0.11538450000000466
                },
                {
                    "name": "E4",
                    "midi": 64,
                    "time": 130.15371600000086,
                    "velocity": 0.7874015748031497,
                    "duration": 0.23076900000000933
                },
                {
                    "name": "A2",
                    "midi": 45,
                    "time": 130.26910050000086,
                    "velocity": 0.7874015748031497,
                    "duration": 0.11538450000000466
                },
                {
                    "name": "D4",
                    "midi": 62,
                    "time": 130.38448500000086,
                    "velocity": 0.7874015748031497,
                    "duration": 0.11538450000000466
                },
                {
                    "name": "F#4",
                    "midi": 66,
                    "time": 130.38448500000086,
                    "velocity": 0.7874015748031497,
                    "duration": 0.23076900000000933
                },
                {
                    "name": "A2",
                    "midi": 45,
                    "time": 130.49986950000087,
                    "velocity": 0.7874015748031497,
                    "duration": 0.11538450000000466
                },
                {
                    "name": "E4",
                    "midi": 64,
                    "time": 130.61525400000087,
                    "velocity": 0.7874015748031497,
                    "duration": 0.11538450000000466
                },
                {
                    "name": "G#4",
                    "midi": 68,
                    "time": 130.61525400000087,
                    "velocity": 0.7874015748031497,
                    "duration": 0.23076900000000933
                },
                {
                    "name": "A2",
                    "midi": 45,
                    "time": 130.73063850000088,
                    "velocity": 0.7874015748031497,
                    "duration": 0.11538450000000466
                },
                {
                    "name": "F#4",
                    "midi": 66,
                    "time": 130.84602300000088,
                    "velocity": 0.7874015748031497,
                    "duration": 0.11538450000000466
                },
                {
                    "name": "A4",
                    "midi": 69,
                    "time": 130.84602300000088,
                    "velocity": 0.7874015748031497,
                    "duration": 0.23076900000000933
                },
                {
                    "name": "A2",
                    "midi": 45,
                    "time": 130.9614075000009,
                    "velocity": 0.7874015748031497,
                    "duration": 0.11538450000000466
                },
                {
                    "name": "F#4",
                    "midi": 66,
                    "time": 131.0767920000009,
                    "velocity": 0.7874015748031497,
                    "duration": 0.11538450000000466
                },
                {
                    "name": "A4",
                    "midi": 69,
                    "time": 131.0767920000009,
                    "velocity": 0.7874015748031497,
                    "duration": 0.23076900000000933
                },
                {
                    "name": "D3",
                    "midi": 50,
                    "time": 131.1921765000009,
                    "velocity": 0.7874015748031497,
                    "duration": 0.11538450000000466
                },
                {
                    "name": "E4",
                    "midi": 64,
                    "time": 131.3075610000009,
                    "velocity": 0.7874015748031497,
                    "duration": 0.11538450000000466
                },
                {
                    "name": "G#4",
                    "midi": 68,
                    "time": 131.3075610000009,
                    "velocity": 0.7874015748031497,
                    "duration": 0.23076900000000933
                },
                {
                    "name": "D3",
                    "midi": 50,
                    "time": 131.4229455000009,
                    "velocity": 0.7874015748031497,
                    "duration": 0.11538450000000466
                },
                {
                    "name": "D4",
                    "midi": 62,
                    "time": 131.5383300000009,
                    "velocity": 0.7874015748031497,
                    "duration": 0.11538450000000466
                },
                {
                    "name": "F#4",
                    "midi": 66,
                    "time": 131.5383300000009,
                    "velocity": 0.7874015748031497,
                    "duration": 0.23076900000000933
                },
                {
                    "name": "D3",
                    "midi": 50,
                    "time": 131.65371450000092,
                    "velocity": 0.7874015748031497,
                    "duration": 0.11538450000000466
                },
                {
                    "name": "C#4",
                    "midi": 61,
                    "time": 131.76909900000092,
                    "velocity": 0.7874015748031497,
                    "duration": 0.11538450000000466
                },
                {
                    "name": "E4",
                    "midi": 64,
                    "time": 131.76909900000092,
                    "velocity": 0.7874015748031497,
                    "duration": 0.23076900000000933
                },
                {
                    "name": "D3",
                    "midi": 50,
                    "time": 131.88448350000093,
                    "velocity": 0.7874015748031497,
                    "duration": 0.11538450000000466
                },
                {
                    "name": "B3",
                    "midi": 59,
                    "time": 131.99986800000093,
                    "velocity": 0.7874015748031497,
                    "duration": 0.11538450000000466
                },
                {
                    "name": "D4",
                    "midi": 62,
                    "time": 131.99986800000093,
                    "velocity": 0.7874015748031497,
                    "duration": 0.23076900000000933
                },
                {
                    "name": "D3",
                    "midi": 50,
                    "time": 132.11525250000093,
                    "velocity": 0.7874015748031497,
                    "duration": 0.11538450000000466
                },
                {
                    "name": "D4",
                    "midi": 62,
                    "time": 132.23063700000094,
                    "velocity": 0.7874015748031497,
                    "duration": 0.11538450000000466
                },
                {
                    "name": "F#4",
                    "midi": 66,
                    "time": 132.23063700000094,
                    "velocity": 0.7874015748031497,
                    "duration": 0.23076900000000933
                },
                {
                    "name": "D3",
                    "midi": 50,
                    "time": 132.34602150000094,
                    "velocity": 0.7874015748031497,
                    "duration": 0.11538450000000466
                },
                {
                    "name": "E4",
                    "midi": 64,
                    "time": 132.46140600000095,
                    "velocity": 0.7874015748031497,
                    "duration": 0.23076900000000933
                },
                {
                    "name": "C#3",
                    "midi": 49,
                    "time": 132.57679050000095,
                    "velocity": 1,
                    "duration": 0.11538450000000466
                },
                {
                    "name": "F#4",
                    "midi": 66,
                    "time": 132.69217500000096,
                    "velocity": 0.7874015748031497,
                    "duration": 0.11538450000000466
                },
                {
                    "name": "D3",
                    "midi": 50,
                    "time": 132.69217500000096,
                    "velocity": 1,
                    "duration": 0.23076900000000933
                },
                {
                    "name": "A4",
                    "midi": 69,
                    "time": 132.80755950000096,
                    "velocity": 0.7874015748031497,
                    "duration": 0.11538450000000466
                },
                {
                    "name": "C#4",
                    "midi": 61,
                    "time": 132.92294400000097,
                    "velocity": 0.7874015748031497,
                    "duration": 0.11538450000000466
                },
                {
                    "name": "E3",
                    "midi": 52,
                    "time": 132.92294400000097,
                    "velocity": 0.7874015748031497,
                    "duration": 0.46153800000001866
                },
                {
                    "name": "A3",
                    "midi": 57,
                    "time": 133.03832850000097,
                    "velocity": 0.7874015748031497,
                    "duration": 0.11538450000000466
                },
                {
                    "name": "C#4",
                    "midi": 61,
                    "time": 133.15371300000098,
                    "velocity": 0.7874015748031497,
                    "duration": 0.11538450000000466
                },
                {
                    "name": "E4",
                    "midi": 64,
                    "time": 133.26909750000098,
                    "velocity": 0.7874015748031497,
                    "duration": 0.11538450000000466
                },
                {
                    "name": "E4",
                    "midi": 64,
                    "time": 133.384482000001,
                    "velocity": 0.7874015748031497,
                    "duration": 0.11538450000000466
                },
                {
                    "name": "E2",
                    "midi": 40,
                    "time": 133.384482000001,
                    "velocity": 0.7874015748031497,
                    "duration": 0.46153800000001866
                },
                {
                    "name": "D4",
                    "midi": 62,
                    "time": 133.499866500001,
                    "velocity": 0.7874015748031497,
                    "duration": 0.11538450000000466
                },
                {
                    "name": "C#4",
                    "midi": 61,
                    "time": 133.615251000001,
                    "velocity": 0.7874015748031497,
                    "duration": 0.11538450000000466
                },
                {
                    "name": "B3",
                    "midi": 59,
                    "time": 133.730635500001,
                    "velocity": 0.7874015748031497,
                    "duration": 0.11538450000000466
                },
                {
                    "name": "G#3",
                    "midi": 56,
                    "time": 133.846020000001,
                    "velocity": 0.7874015748031497,
                    "duration": 0.11538450000000466
                },
                {
                    "name": "A2",
                    "midi": 45,
                    "time": 133.846020000001,
                    "velocity": 0.7874015748031497,
                    "duration": 0.46153800000001866
                },
                {
                    "name": "A3",
                    "midi": 57,
                    "time": 133.961404500001,
                    "velocity": 0.7874015748031497,
                    "duration": 0.11538450000000466
                },
                {
                    "name": "E3",
                    "midi": 52,
                    "time": 134.076789000001,
                    "velocity": 0.7874015748031497,
                    "duration": 0.11538450000000466
                },
                {
                    "name": "A3",
                    "midi": 57,
                    "time": 134.19217350000102,
                    "velocity": 0.7874015748031497,
                    "duration": 0.11538450000000466
                },
                {
                    "name": "C#3",
                    "midi": 49,
                    "time": 134.30755800000102,
                    "velocity": 0.7874015748031497,
                    "duration": 0.11538450000000466
                },
                {
                    "name": "A3",
                    "midi": 57,
                    "time": 134.42294250000103,
                    "velocity": 0.7874015748031497,
                    "duration": 0.11538450000000466
                },
                {
                    "name": "E3",
                    "midi": 52,
                    "time": 134.53832700000103,
                    "velocity": 0.7874015748031497,
                    "duration": 0.11538450000000466
                },
                {
                    "name": "A3",
                    "midi": 57,
                    "time": 134.65371150000104,
                    "velocity": 0.7874015748031497,
                    "duration": 0.11538450000000466
                },
                {
                    "name": "A2",
                    "midi": 45,
                    "time": 134.76909600000104,
                    "velocity": 0.7874015748031497,
                    "duration": 0.46153800000001866
                },
                {
                    "name": "E3",
                    "midi": 52,
                    "time": 134.82678825000104,
                    "velocity": 0.7874015748031497,
                    "duration": 0.4038457500000163
                },
                {
                    "name": "A3",
                    "midi": 57,
                    "time": 134.88448050000105,
                    "velocity": 0.7874015748031497,
                    "duration": 0.346153500000014
                },
                {
                    "name": "G#3",
                    "midi": 56,
                    "time": 135.23063400000106,
                    "velocity": 0.7874015748031497,
                    "duration": 0.46153800000001866
                },
                {
                    "name": "B3",
                    "midi": 59,
                    "time": 135.23063400000106,
                    "velocity": 0.7874015748031497,
                    "duration": 0.46153800000001866
                },
                {
                    "name": "E2",
                    "midi": 40,
                    "time": 135.34601850000107,
                    "velocity": 1,
                    "duration": 0.11538450000000466
                },
                {
                    "name": "F2",
                    "midi": 41,
                    "time": 135.46140300000107,
                    "velocity": 1,
                    "duration": 0.11538450000000466
                },
                {
                    "name": "E2",
                    "midi": 40,
                    "time": 135.57678750000107,
                    "velocity": 1,
                    "duration": 0.11538450000000466
                },
                {
                    "name": "G#3",
                    "midi": 56,
                    "time": 135.69217200000108,
                    "velocity": 0.7874015748031497,
                    "duration": 0.46153800000001866
                },
                {
                    "name": "B3",
                    "midi": 59,
                    "time": 135.69217200000108,
                    "velocity": 0.7874015748031497,
                    "duration": 0.46153800000001866
                },
                {
                    "name": "E2",
                    "midi": 40,
                    "time": 135.80755650000108,
                    "velocity": 1,
                    "duration": 0.11538450000000466
                },
                {
                    "name": "F2",
                    "midi": 41,
                    "time": 135.9229410000011,
                    "velocity": 1,
                    "duration": 0.11538450000000466
                },
                {
                    "name": "E2",
                    "midi": 40,
                    "time": 136.0383255000011,
                    "velocity": 1,
                    "duration": 0.11538450000000466
                },
                {
                    "name": "C4",
                    "midi": 60,
                    "time": 136.1537100000011,
                    "velocity": 0.7874015748031497,
                    "duration": 0.46153800000001866
                },
                {
                    "name": "A3",
                    "midi": 57,
                    "time": 136.1537100000011,
                    "velocity": 0.7874015748031497,
                    "duration": 0.46153800000001866
                },
                {
                    "name": "E2",
                    "midi": 40,
                    "time": 136.2690945000011,
                    "velocity": 1,
                    "duration": 0.11538450000000466
                },
                {
                    "name": "F2",
                    "midi": 41,
                    "time": 136.3844790000011,
                    "velocity": 1,
                    "duration": 0.11538450000000466
                },
                {
                    "name": "E2",
                    "midi": 40,
                    "time": 136.4998635000011,
                    "velocity": 1,
                    "duration": 0.11538450000000466
                },
                {
                    "name": "G#3",
                    "midi": 56,
                    "time": 136.61524800000112,
                    "velocity": 0.7874015748031497,
                    "duration": 0.46153800000001866
                },
                {
                    "name": "B3",
                    "midi": 59,
                    "time": 136.61524800000112,
                    "velocity": 0.7874015748031497,
                    "duration": 0.46153800000001866
                },
                {
                    "name": "E2",
                    "midi": 40,
                    "time": 136.73063250000112,
                    "velocity": 1,
                    "duration": 0.11538450000000466
                },
                {
                    "name": "F2",
                    "midi": 41,
                    "time": 136.84601700000113,
                    "velocity": 1,
                    "duration": 0.11538450000000466
                },
                {
                    "name": "E2",
                    "midi": 40,
                    "time": 136.96140150000113,
                    "velocity": 1,
                    "duration": 0.11538450000000466
                },
                {
                    "name": "G#3",
                    "midi": 56,
                    "time": 137.07678600000114,
                    "velocity": 0.7874015748031497,
                    "duration": 0.46153800000001866
                },
                {
                    "name": "B3",
                    "midi": 59,
                    "time": 137.07678600000114,
                    "velocity": 0.7874015748031497,
                    "duration": 0.46153800000001866
                },
                {
                    "name": "E2",
                    "midi": 40,
                    "time": 137.19217050000114,
                    "velocity": 1,
                    "duration": 0.11538450000000466
                },
                {
                    "name": "F2",
                    "midi": 41,
                    "time": 137.30755500000114,
                    "velocity": 1,
                    "duration": 0.11538450000000466
                },
                {
                    "name": "E2",
                    "midi": 40,
                    "time": 137.42293950000115,
                    "velocity": 1,
                    "duration": 0.11538450000000466
                },
                {
                    "name": "C4",
                    "midi": 60,
                    "time": 137.53832400000115,
                    "velocity": 0.7874015748031497,
                    "duration": 0.46153800000001866
                },
                {
                    "name": "A3",
                    "midi": 57,
                    "time": 137.53832400000115,
                    "velocity": 0.7874015748031497,
                    "duration": 0.46153800000001866
                },
                {
                    "name": "E2",
                    "midi": 40,
                    "time": 137.65370850000116,
                    "velocity": 1,
                    "duration": 0.11538450000000466
                },
                {
                    "name": "F2",
                    "midi": 41,
                    "time": 137.76909300000116,
                    "velocity": 1,
                    "duration": 0.11538450000000466
                },
                {
                    "name": "E2",
                    "midi": 40,
                    "time": 137.88447750000117,
                    "velocity": 1,
                    "duration": 0.11538450000000466
                },
                {
                    "name": "F4",
                    "midi": 65,
                    "time": 137.99986200000117,
                    "velocity": 1,
                    "duration": 0.46153799999999023
                },
                {
                    "name": "C4",
                    "midi": 60,
                    "time": 137.99986200000117,
                    "velocity": 1,
                    "duration": 0.46153799999999023
                },
                {
                    "name": "A3",
                    "midi": 57,
                    "time": 137.99986200000117,
                    "velocity": 1,
                    "duration": 0.46153799999999023
                },
                {
                    "name": "F3",
                    "midi": 53,
                    "time": 137.99986200000117,
                    "velocity": 1,
                    "duration": 0.46153799999999023
                },
                {
                    "name": "C3",
                    "midi": 48,
                    "time": 137.99986200000117,
                    "velocity": 1,
                    "duration": 0.46153799999999023
                },
                {
                    "name": "F2",
                    "midi": 41,
                    "time": 137.99986200000117,
                    "velocity": 1,
                    "duration": 0.46153799999999023
                },
                {
                    "name": "A4",
                    "midi": 69,
                    "time": 138.46140000000116,
                    "velocity": 0.7874015748031497,
                    "duration": 0.23076900000000933
                },
                {
                    "name": "G4",
                    "midi": 67,
                    "time": 138.69216900000117,
                    "velocity": 0.7874015748031497,
                    "duration": 0.11538450000000466
                },
                {
                    "name": "F4",
                    "midi": 65,
                    "time": 138.80755350000118,
                    "velocity": 0.7874015748031497,
                    "duration": 0.11538450000000466
                },
                {
                    "name": "F4",
                    "midi": 65,
                    "time": 138.92293800000118,
                    "velocity": 0.7874015748031497,
                    "duration": 0.11538450000000466
                },
                {
                    "name": "E4",
                    "midi": 64,
                    "time": 139.0383225000012,
                    "velocity": 0.7874015748031497,
                    "duration": 0.11538450000000466
                },
                {
                    "name": "E4",
                    "midi": 64,
                    "time": 139.1537070000012,
                    "velocity": 0.7874015748031497,
                    "duration": 0.11538450000000466
                },
                {
                    "name": "D#4",
                    "midi": 63,
                    "time": 139.2690915000012,
                    "velocity": 0.7874015748031497,
                    "duration": 0.11538450000000466
                },
                {
                    "name": "E2",
                    "midi": 40,
                    "time": 139.3844760000012,
                    "velocity": 0.7874015748031497,
                    "duration": 0.46153800000001866
                },
                {
                    "name": "E4",
                    "midi": 64,
                    "time": 139.4998605000012,
                    "velocity": 0.7874015748031497,
                    "duration": 0.11538450000000466
                },
                {
                    "name": "B3",
                    "midi": 59,
                    "time": 139.6152450000012,
                    "velocity": 0.7874015748031497,
                    "duration": 0.11538450000000466
                },
                {
                    "name": "E4",
                    "midi": 64,
                    "time": 139.7306295000012,
                    "velocity": 0.7874015748031497,
                    "duration": 0.11538450000000466
                },
                {
                    "name": "G#3",
                    "midi": 56,
                    "time": 139.84601400000122,
                    "velocity": 0.7874015748031497,
                    "duration": 0.23076900000000933
                },
                {
                    "name": "E4",
                    "midi": 64,
                    "time": 139.96139850000122,
                    "velocity": 0.7874015748031497,
                    "duration": 0.11538450000000466
                },
                {
                    "name": "E3",
                    "midi": 52,
                    "time": 140.07678300000123,
                    "velocity": 0.7874015748031497,
                    "duration": 0.23076900000000933
                },
                {
                    "name": "E4",
                    "midi": 64,
                    "time": 140.19216750000123,
                    "velocity": 0.7874015748031497,
                    "duration": 0.11538450000000466
                },
                {
                    "name": "D3",
                    "midi": 50,
                    "time": 140.30755200000124,
                    "velocity": 0.7874015748031497,
                    "duration": 0.23076900000000933
                },
                {
                    "name": "E4",
                    "midi": 64,
                    "time": 140.42293650000124,
                    "velocity": 0.7874015748031497,
                    "duration": 0.11538450000000466
                },
                {
                    "name": "B2",
                    "midi": 47,
                    "time": 140.53832100000125,
                    "velocity": 0.7874015748031497,
                    "duration": 0.23076900000000933
                },
                {
                    "name": "E4",
                    "midi": 64,
                    "time": 140.65370550000125,
                    "velocity": 0.7874015748031497,
                    "duration": 0.11538450000000466
                },
                {
                    "name": "A3",
                    "midi": 57,
                    "time": 140.76909000000126,
                    "velocity": 0.7874015748031497,
                    "duration": 0.11538450000000466
                },
                {
                    "name": "C#4",
                    "midi": 61,
                    "time": 140.76909000000126,
                    "velocity": 0.7874015748031497,
                    "duration": 0.23076900000000933
                },
                {
                    "name": "A2",
                    "midi": 45,
                    "time": 140.88447450000126,
                    "velocity": 0.7874015748031497,
                    "duration": 0.11538450000000466
                },
                {
                    "name": "B3",
                    "midi": 59,
                    "time": 140.99985900000127,
                    "velocity": 0.7874015748031497,
                    "duration": 0.11538450000000466
                },
                {
                    "name": "D4",
                    "midi": 62,
                    "time": 140.99985900000127,
                    "velocity": 0.7874015748031497,
                    "duration": 0.23076900000000933
                },
                {
                    "name": "A2",
                    "midi": 45,
                    "time": 141.11524350000127,
                    "velocity": 0.7874015748031497,
                    "duration": 0.11538450000000466
                },
                {
                    "name": "C#4",
                    "midi": 61,
                    "time": 141.23062800000127,
                    "velocity": 0.7874015748031497,
                    "duration": 0.11538450000000466
                },
                {
                    "name": "E4",
                    "midi": 64,
                    "time": 141.23062800000127,
                    "velocity": 0.7874015748031497,
                    "duration": 0.23076900000000933
                },
                {
                    "name": "A2",
                    "midi": 45,
                    "time": 141.34601250000128,
                    "velocity": 0.7874015748031497,
                    "duration": 0.11538450000000466
                },
                {
                    "name": "D4",
                    "midi": 62,
                    "time": 141.46139700000128,
                    "velocity": 0.7874015748031497,
                    "duration": 0.11538450000000466
                },
                {
                    "name": "F#4",
                    "midi": 66,
                    "time": 141.46139700000128,
                    "velocity": 0.7874015748031497,
                    "duration": 0.23076900000000933
                },
                {
                    "name": "A2",
                    "midi": 45,
                    "time": 141.5767815000013,
                    "velocity": 0.7874015748031497,
                    "duration": 0.11538450000000466
                },
                {
                    "name": "E4",
                    "midi": 64,
                    "time": 141.6921660000013,
                    "velocity": 0.7874015748031497,
                    "duration": 0.11538450000000466
                },
                {
                    "name": "G#4",
                    "midi": 68,
                    "time": 141.6921660000013,
                    "velocity": 0.7874015748031497,
                    "duration": 0.23076900000000933
                },
                {
                    "name": "A2",
                    "midi": 45,
                    "time": 141.8075505000013,
                    "velocity": 0.7874015748031497,
                    "duration": 0.11538450000000466
                },
                {
                    "name": "F#4",
                    "midi": 66,
                    "time": 141.9229350000013,
                    "velocity": 0.7874015748031497,
                    "duration": 0.11538450000000466
                },
                {
                    "name": "A4",
                    "midi": 69,
                    "time": 141.9229350000013,
                    "velocity": 0.7874015748031497,
                    "duration": 0.23076900000000933
                },
                {
                    "name": "A2",
                    "midi": 45,
                    "time": 142.0383195000013,
                    "velocity": 0.7874015748031497,
                    "duration": 0.11538450000000466
                },
                {
                    "name": "F#4",
                    "midi": 66,
                    "time": 142.1537040000013,
                    "velocity": 0.7874015748031497,
                    "duration": 0.11538450000000466
                },
                {
                    "name": "A4",
                    "midi": 69,
                    "time": 142.1537040000013,
                    "velocity": 0.7874015748031497,
                    "duration": 0.23076900000000933
                },
                {
                    "name": "D3",
                    "midi": 50,
                    "time": 142.26908850000132,
                    "velocity": 0.7874015748031497,
                    "duration": 0.11538450000000466
                },
                {
                    "name": "E4",
                    "midi": 64,
                    "time": 142.38447300000132,
                    "velocity": 0.7874015748031497,
                    "duration": 0.11538450000000466
                },
                {
                    "name": "G#4",
                    "midi": 68,
                    "time": 142.38447300000132,
                    "velocity": 0.7874015748031497,
                    "duration": 0.23076900000000933
                },
                {
                    "name": "D3",
                    "midi": 50,
                    "time": 142.49985750000133,
                    "velocity": 0.7874015748031497,
                    "duration": 0.11538450000000466
                },
                {
                    "name": "D4",
                    "midi": 62,
                    "time": 142.61524200000133,
                    "velocity": 0.7874015748031497,
                    "duration": 0.11538450000000466
                },
                {
                    "name": "F#4",
                    "midi": 66,
                    "time": 142.61524200000133,
                    "velocity": 0.7874015748031497,
                    "duration": 0.23076900000000933
                },
                {
                    "name": "D3",
                    "midi": 50,
                    "time": 142.73062650000134,
                    "velocity": 0.7874015748031497,
                    "duration": 0.11538450000000466
                },
                {
                    "name": "C#4",
                    "midi": 61,
                    "time": 142.84601100000134,
                    "velocity": 0.7874015748031497,
                    "duration": 0.11538450000000466
                },
                {
                    "name": "E4",
                    "midi": 64,
                    "time": 142.84601100000134,
                    "velocity": 0.7874015748031497,
                    "duration": 0.23076900000000933
                },
                {
                    "name": "D3",
                    "midi": 50,
                    "time": 142.96139550000134,
                    "velocity": 0.7874015748031497,
                    "duration": 0.11538450000000466
                },
                {
                    "name": "B3",
                    "midi": 59,
                    "time": 143.07678000000135,
                    "velocity": 0.7874015748031497,
                    "duration": 0.11538450000000466
                },
                {
                    "name": "D4",
                    "midi": 62,
                    "time": 143.07678000000135,
                    "velocity": 0.7874015748031497,
                    "duration": 0.23076900000000933
                },
                {
                    "name": "D3",
                    "midi": 50,
                    "time": 143.19216450000135,
                    "velocity": 0.7874015748031497,
                    "duration": 0.11538450000000466
                },
                {
                    "name": "D4",
                    "midi": 62,
                    "time": 143.30754900000136,
                    "velocity": 0.7874015748031497,
                    "duration": 0.11538450000000466
                },
                {
                    "name": "F#4",
                    "midi": 66,
                    "time": 143.30754900000136,
                    "velocity": 0.7874015748031497,
                    "duration": 0.23076900000000933
                },
                {
                    "name": "D3",
                    "midi": 50,
                    "time": 143.42293350000136,
                    "velocity": 0.7874015748031497,
                    "duration": 0.11538450000000466
                },
                {
                    "name": "E4",
                    "midi": 64,
                    "time": 143.53831800000137,
                    "velocity": 0.7874015748031497,
                    "duration": 0.23076900000000933
                },
                {
                    "name": "C#3",
                    "midi": 49,
                    "time": 143.65370250000137,
                    "velocity": 1,
                    "duration": 0.11538450000000466
                },
                {
                    "name": "F#4",
                    "midi": 66,
                    "time": 143.76908700000138,
                    "velocity": 0.7874015748031497,
                    "duration": 0.11538450000000466
                },
                {
                    "name": "D3",
                    "midi": 50,
                    "time": 143.76908700000138,
                    "velocity": 1,
                    "duration": 0.23076900000000933
                },
                {
                    "name": "A4",
                    "midi": 69,
                    "time": 143.88447150000138,
                    "velocity": 0.7874015748031497,
                    "duration": 0.11538450000000466
                },
                {
                    "name": "C#4",
                    "midi": 61,
                    "time": 143.9998560000014,
                    "velocity": 0.7874015748031497,
                    "duration": 0.11538450000000466
                },
                {
                    "name": "E3",
                    "midi": 52,
                    "time": 143.9998560000014,
                    "velocity": 0.7874015748031497,
                    "duration": 0.46153800000001866
                },
                {
                    "name": "A3",
                    "midi": 57,
                    "time": 144.1152405000014,
                    "velocity": 0.7874015748031497,
                    "duration": 0.11538450000000466
                },
                {
                    "name": "C#4",
                    "midi": 61,
                    "time": 144.2306250000014,
                    "velocity": 0.7874015748031497,
                    "duration": 0.11538450000000466
                },
                {
                    "name": "E4",
                    "midi": 64,
                    "time": 144.3460095000014,
                    "velocity": 0.7874015748031497,
                    "duration": 0.11538450000000466
                },
                {
                    "name": "E4",
                    "midi": 64,
                    "time": 144.4613940000014,
                    "velocity": 0.7874015748031497,
                    "duration": 0.11538450000000466
                },
                {
                    "name": "E2",
                    "midi": 40,
                    "time": 144.4613940000014,
                    "velocity": 0.7874015748031497,
                    "duration": 0.46153800000001866
                },
                {
                    "name": "D4",
                    "midi": 62,
                    "time": 144.5767785000014,
                    "velocity": 0.7874015748031497,
                    "duration": 0.11538450000000466
                },
                {
                    "name": "C#4",
                    "midi": 61,
                    "time": 144.69216300000141,
                    "velocity": 0.7874015748031497,
                    "duration": 0.11538450000000466
                },
                {
                    "name": "B3",
                    "midi": 59,
                    "time": 144.80754750000142,
                    "velocity": 0.7874015748031497,
                    "duration": 0.11538450000000466
                },
                {
                    "name": "G#3",
                    "midi": 56,
                    "time": 144.92293200000142,
                    "velocity": 0.7874015748031497,
                    "duration": 0.11538450000000466
                },
                {
                    "name": "A2",
                    "midi": 45,
                    "time": 144.92293200000142,
                    "velocity": 0.7874015748031497,
                    "duration": 0.46153800000001866
                },
                {
                    "name": "A3",
                    "midi": 57,
                    "time": 145.03831650000143,
                    "velocity": 0.7874015748031497,
                    "duration": 0.11538450000000466
                },
                {
                    "name": "E3",
                    "midi": 52,
                    "time": 145.15370100000143,
                    "velocity": 0.7874015748031497,
                    "duration": 0.23076900000000933
                },
                {
                    "name": "A3",
                    "midi": 57,
                    "time": 145.26908550000144,
                    "velocity": 0.7874015748031497,
                    "duration": 0.11538450000000466
                },
                {
                    "name": "C#3",
                    "midi": 49,
                    "time": 145.38447000000144,
                    "velocity": 0.7874015748031497,
                    "duration": 0.46153800000001866
                },
                {
                    "name": "A3",
                    "midi": 57,
                    "time": 145.49985450000145,
                    "velocity": 0.7874015748031497,
                    "duration": 0.11538450000000466
                },
                {
                    "name": "E3",
                    "midi": 52,
                    "time": 145.61523900000145,
                    "velocity": 0.7874015748031497,
                    "duration": 0.23076900000000933
                },
                {
                    "name": "A3",
                    "midi": 57,
                    "time": 145.73062350000146,
                    "velocity": 0.7874015748031497,
                    "duration": 0.11538450000000466
                },
                {
                    "name": "A2",
                    "midi": 45,
                    "time": 145.84600800000146,
                    "velocity": 0.7874015748031497,
                    "duration": 0.9230760000000089
                },
                {
                    "name": "E3",
                    "midi": 52,
                    "time": 145.90370025000146,
                    "velocity": 0.7874015748031497,
                    "duration": 0.7499992500000019
                },
                {
                    "name": "A3",
                    "midi": 57,
                    "time": 145.96139250000147,
                    "velocity": 0.7874015748031497,
                    "duration": 0.6923069999999996
                },
                {
                    "name": "C#4",
                    "midi": 61,
                    "time": 146.01908475000147,
                    "velocity": 0.7874015748031497,
                    "duration": 0.6346147499999972
                },
                {
                    "name": "E4",
                    "midi": 64,
                    "time": 146.07677700000147,
                    "velocity": 0.7874015748031497,
                    "duration": 0.5769224999999949
                },
                {
                    "name": "A4",
                    "midi": 69,
                    "time": 146.13446925000147,
                    "velocity": 0.7874015748031497,
                    "duration": 0.5192302499999926
                }
            ],
            "controlChanges": {},
            "id": 1,
            "name": "Allegretto Scherzando",
            "instrumentNumber": 24,
            "instrument": "acoustic guitar (nylon)",
            "instrumentFamily": "guitar",
            "channelNumber": 0,
            "isPercussion": false
        }
    ]
}