{
    "header": {
        "PPQ": 480,
        "bpm": 153.00033660074052,
        "timeSignature": [
            4,
            4
        ],
        "name": "Moto Pepetuo"
    },
    "startTime": 0,
    "duration": 227.77727666666667,
    "tracks": [
        {
            "startTime": 0,
            "duration": 0,
            "length": 0,
            "notes": [],
            "controlChanges": {},
            "id": 0,
            "name": "Moto Pepetuo"
        },
        {
            "startTime": 5.686262,
            "duration": 227.64247304166668,
            "length": 1076,
            "notes": [
                {
                    "name": "G3",
                    "midi": 55,
                    "time": 5.686262,
                    "velocity": 0.47244094488188976,
                    "duration": 0.06535933333333332
                },
                {
                    "name": "C4",
                    "midi": 60,
                    "time": 5.686262,
                    "velocity": 0.47244094488188976,
                    "duration": 0.06535933333333332
                },
                {
                    "name": "E4",
                    "midi": 64,
                    "time": 5.686262,
                    "velocity": 0.47244094488188976,
                    "duration": 0.06535933333333332
                },
                {
                    "name": "G3",
                    "midi": 55,
                    "time": 6.078418,
                    "velocity": 0.47244094488188976,
                    "duration": 0.06535933333333332
                },
                {
                    "name": "C4",
                    "midi": 60,
                    "time": 6.078418,
                    "velocity": 0.47244094488188976,
                    "duration": 0.06535933333333332
                },
                {
                    "name": "E4",
                    "midi": 64,
                    "time": 6.078418,
                    "velocity": 0.47244094488188976,
                    "duration": 0.06535933333333332
                },
                {
                    "name": "G3",
                    "midi": 55,
                    "time": 6.470574,
                    "velocity": 0.47244094488188976,
                    "duration": 0.06535933333333332
                },
                {
                    "name": "B3",
                    "midi": 59,
                    "time": 6.470574,
                    "velocity": 0.47244094488188976,
                    "duration": 0.06535933333333332
                },
                {
                    "name": "D4",
                    "midi": 62,
                    "time": 6.470574,
                    "velocity": 0.47244094488188976,
                    "duration": 0.06535933333333332
                },
                {
                    "name": "F4",
                    "midi": 65,
                    "time": 6.470574,
                    "velocity": 0.47244094488188976,
                    "duration": 0.06535933333333332
                },
                {
                    "name": "G3",
                    "midi": 55,
                    "time": 6.86273,
                    "velocity": 0.47244094488188976,
                    "duration": 0.06535933333333332
                },
                {
                    "name": "B3",
                    "midi": 59,
                    "time": 6.86273,
                    "velocity": 0.47244094488188976,
                    "duration": 0.06535933333333332
                },
                {
                    "name": "D4",
                    "midi": 62,
                    "time": 6.86273,
                    "velocity": 0.47244094488188976,
                    "duration": 0.06535933333333332
                },
                {
                    "name": "F4",
                    "midi": 65,
                    "time": 6.86273,
                    "velocity": 0.47244094488188976,
                    "duration": 0.06535933333333332
                },
                {
                    "name": "G3",
                    "midi": 55,
                    "time": 7.254886,
                    "velocity": 0.47244094488188976,
                    "duration": 0.06535933333333332
                },
                {
                    "name": "B3",
                    "midi": 59,
                    "time": 7.254886,
                    "velocity": 0.47244094488188976,
                    "duration": 0.06535933333333332
                },
                {
                    "name": "D4",
                    "midi": 62,
                    "time": 7.254886,
                    "velocity": 0.47244094488188976,
                    "duration": 0.06535933333333332
                },
                {
                    "name": "F4",
                    "midi": 65,
                    "time": 7.254886,
                    "velocity": 0.47244094488188976,
                    "duration": 0.06535933333333332
                },
                {
                    "name": "G3",
                    "midi": 55,
                    "time": 7.647042,
                    "velocity": 0.47244094488188976,
                    "duration": 0.06535933333333332
                },
                {
                    "name": "B3",
                    "midi": 59,
                    "time": 7.647042,
                    "velocity": 0.47244094488188976,
                    "duration": 0.06535933333333332
                },
                {
                    "name": "D4",
                    "midi": 62,
                    "time": 7.647042,
                    "velocity": 0.47244094488188976,
                    "duration": 0.06535933333333332
                },
                {
                    "name": "F4",
                    "midi": 65,
                    "time": 7.647042,
                    "velocity": 0.47244094488188976,
                    "duration": 0.06535933333333332
                },
                {
                    "name": "G3",
                    "midi": 55,
                    "time": 8.039198,
                    "velocity": 0.47244094488188976,
                    "duration": 0.06535933333333332
                },
                {
                    "name": "C4",
                    "midi": 60,
                    "time": 8.039198,
                    "velocity": 0.47244094488188976,
                    "duration": 0.06535933333333332
                },
                {
                    "name": "E4",
                    "midi": 64,
                    "time": 8.039198,
                    "velocity": 0.47244094488188976,
                    "duration": 0.06535933333333332
                },
                {
                    "name": "G3",
                    "midi": 55,
                    "time": 8.431354,
                    "velocity": 0.47244094488188976,
                    "duration": 0.06535933333333332
                },
                {
                    "name": "C4",
                    "midi": 60,
                    "time": 8.431354,
                    "velocity": 0.47244094488188976,
                    "duration": 0.06535933333333332
                },
                {
                    "name": "E4",
                    "midi": 64,
                    "time": 8.431354,
                    "velocity": 0.47244094488188976,
                    "duration": 0.06535933333333332
                },
                {
                    "name": "E4",
                    "midi": 64,
                    "time": 8.627432,
                    "velocity": 0.47244094488188976,
                    "duration": 0.7843119999999999
                },
                {
                    "name": "G4",
                    "midi": 67,
                    "time": 8.627432,
                    "velocity": 0.47244094488188976,
                    "duration": 0.7843119999999999
                },
                {
                    "name": "D4",
                    "midi": 62,
                    "time": 9.411744,
                    "velocity": 0.47244094488188976,
                    "duration": 0.7843119999999999
                },
                {
                    "name": "F4",
                    "midi": 65,
                    "time": 9.411744,
                    "velocity": 0.47244094488188976,
                    "duration": 0.7843119999999999
                },
                {
                    "name": "C4",
                    "midi": 60,
                    "time": 10.196056,
                    "velocity": 0.47244094488188976,
                    "duration": 0.39215599999999995
                },
                {
                    "name": "E4",
                    "midi": 64,
                    "time": 10.196056,
                    "velocity": 0.47244094488188976,
                    "duration": 0.39215599999999995
                },
                {
                    "name": "D4",
                    "midi": 62,
                    "time": 10.588212,
                    "velocity": 0.47244094488188976,
                    "duration": 0.39215599999999995
                },
                {
                    "name": "F#4",
                    "midi": 66,
                    "time": 10.588212,
                    "velocity": 0.47244094488188976,
                    "duration": 0.39215599999999995
                },
                {
                    "name": "B3",
                    "midi": 59,
                    "time": 10.980368,
                    "velocity": 0.47244094488188976,
                    "duration": 0.19199304166666664
                },
                {
                    "name": "G4",
                    "midi": 67,
                    "time": 10.980368,
                    "velocity": 0.47244094488188976,
                    "duration": 0.19199304166666664
                },
                {
                    "name": "G3",
                    "midi": 55,
                    "time": 11.960758,
                    "velocity": 0.47244094488188976,
                    "duration": 0.06535933333333332
                },
                {
                    "name": "C4",
                    "midi": 60,
                    "time": 11.960758,
                    "velocity": 0.47244094488188976,
                    "duration": 0.06535933333333332
                },
                {
                    "name": "E4",
                    "midi": 64,
                    "time": 11.960758,
                    "velocity": 0.47244094488188976,
                    "duration": 0.06535933333333332
                },
                {
                    "name": "G3",
                    "midi": 55,
                    "time": 12.352914,
                    "velocity": 0.47244094488188976,
                    "duration": 0.06535933333333332
                },
                {
                    "name": "C4",
                    "midi": 60,
                    "time": 12.352914,
                    "velocity": 0.47244094488188976,
                    "duration": 0.06535933333333332
                },
                {
                    "name": "E4",
                    "midi": 64,
                    "time": 12.352914,
                    "velocity": 0.47244094488188976,
                    "duration": 0.06535933333333332
                },
                {
                    "name": "G3",
                    "midi": 55,
                    "time": 12.74507,
                    "velocity": 0.47244094488188976,
                    "duration": 0.06535933333333332
                },
                {
                    "name": "B3",
                    "midi": 59,
                    "time": 12.74507,
                    "velocity": 0.47244094488188976,
                    "duration": 0.06535933333333332
                },
                {
                    "name": "D4",
                    "midi": 62,
                    "time": 12.74507,
                    "velocity": 0.47244094488188976,
                    "duration": 0.06535933333333332
                },
                {
                    "name": "F4",
                    "midi": 65,
                    "time": 12.74507,
                    "velocity": 0.47244094488188976,
                    "duration": 0.06535933333333332
                },
                {
                    "name": "G3",
                    "midi": 55,
                    "time": 13.137226,
                    "velocity": 0.47244094488188976,
                    "duration": 0.06535933333333332
                },
                {
                    "name": "B3",
                    "midi": 59,
                    "time": 13.137226,
                    "velocity": 0.47244094488188976,
                    "duration": 0.06535933333333332
                },
                {
                    "name": "D4",
                    "midi": 62,
                    "time": 13.137226,
                    "velocity": 0.47244094488188976,
                    "duration": 0.06535933333333332
                },
                {
                    "name": "F4",
                    "midi": 65,
                    "time": 13.137226,
                    "velocity": 0.47244094488188976,
                    "duration": 0.06535933333333332
                },
                {
                    "name": "G3",
                    "midi": 55,
                    "time": 13.529382,
                    "velocity": 0.47244094488188976,
                    "duration": 0.06535933333333332
                },
                {
                    "name": "B3",
                    "midi": 59,
                    "time": 13.529382,
                    "velocity": 0.47244094488188976,
                    "duration": 0.06535933333333332
                },
                {
                    "name": "D4",
                    "midi": 62,
                    "time": 13.529382,
                    "velocity": 0.47244094488188976,
                    "duration": 0.06535933333333332
                },
                {
                    "name": "G3",
                    "midi": 55,
                    "time": 13.921538,
                    "velocity": 0.47244094488188976,
                    "duration": 0.06535933333333332
                },
                {
                    "name": "B3",
                    "midi": 59,
                    "time": 13.921538,
                    "velocity": 0.47244094488188976,
                    "duration": 0.06535933333333332
                },
                {
                    "name": "D4",
                    "midi": 62,
                    "time": 13.921538,
                    "velocity": 0.47244094488188976,
                    "duration": 0.06535933333333332
                },
                {
                    "name": "G3",
                    "midi": 55,
                    "time": 14.313694,
                    "velocity": 0.47244094488188976,
                    "duration": 0.06535933333333332
                },
                {
                    "name": "C4",
                    "midi": 60,
                    "time": 14.313694,
                    "velocity": 0.47244094488188976,
                    "duration": 0.06535933333333332
                },
                {
                    "name": "E4",
                    "midi": 64,
                    "time": 14.313694,
                    "velocity": 0.47244094488188976,
                    "duration": 0.06535933333333332
                },
                {
                    "name": "G3",
                    "midi": 55,
                    "time": 14.70585,
                    "velocity": 0.47244094488188976,
                    "duration": 0.06535933333333332
                },
                {
                    "name": "C4",
                    "midi": 60,
                    "time": 14.70585,
                    "velocity": 0.47244094488188976,
                    "duration": 0.06535933333333332
                },
                {
                    "name": "E4",
                    "midi": 64,
                    "time": 14.70585,
                    "velocity": 0.47244094488188976,
                    "duration": 0.06535933333333332
                },
                {
                    "name": "C#4",
                    "midi": 61,
                    "time": 14.901928,
                    "velocity": 0.47244094488188976,
                    "duration": 0.7843119999999999
                },
                {
                    "name": "E4",
                    "midi": 64,
                    "time": 14.901928,
                    "velocity": 0.47244094488188976,
                    "duration": 0.7843119999999999
                },
                {
                    "name": "D4",
                    "midi": 62,
                    "time": 15.68624,
                    "velocity": 0.47244094488188976,
                    "duration": 0.7843120000000017
                },
                {
                    "name": "F4",
                    "midi": 65,
                    "time": 15.68624,
                    "velocity": 0.47244094488188976,
                    "duration": 0.7843120000000017
                },
                {
                    "name": "C4",
                    "midi": 60,
                    "time": 16.470552,
                    "velocity": 0.47244094488188976,
                    "duration": 0.7843119999999999
                },
                {
                    "name": "E4",
                    "midi": 64,
                    "time": 16.470552,
                    "velocity": 0.47244094488188976,
                    "duration": 0.7843119999999999
                },
                {
                    "name": "B3",
                    "midi": 59,
                    "time": 17.254864,
                    "velocity": 0.47244094488188976,
                    "duration": 0.7843119999999999
                },
                {
                    "name": "D4",
                    "midi": 62,
                    "time": 17.254864,
                    "velocity": 0.47244094488188976,
                    "duration": 0.7843119999999999
                },
                {
                    "name": "A3",
                    "midi": 57,
                    "time": 18.039176,
                    "velocity": 0.47244094488188976,
                    "duration": 0.7843119999999999
                },
                {
                    "name": "C4",
                    "midi": 60,
                    "time": 18.039176,
                    "velocity": 0.47244094488188976,
                    "duration": 0.7843119999999999
                },
                {
                    "name": "G3",
                    "midi": 55,
                    "time": 18.823488,
                    "velocity": 0.47244094488188976,
                    "duration": 0.19199304166666664
                },
                {
                    "name": "B3",
                    "midi": 59,
                    "time": 18.823488,
                    "velocity": 0.47244094488188976,
                    "duration": 0.19199304166666664
                },
                {
                    "name": "G3",
                    "midi": 55,
                    "time": 19.803878,
                    "velocity": 0.47244094488188976,
                    "duration": 0.06535933333333332
                },
                {
                    "name": "B3",
                    "midi": 59,
                    "time": 19.803878,
                    "velocity": 0.47244094488188976,
                    "duration": 0.06535933333333332
                },
                {
                    "name": "D4",
                    "midi": 62,
                    "time": 19.803878,
                    "velocity": 0.47244094488188976,
                    "duration": 0.06535933333333332
                },
                {
                    "name": "G3",
                    "midi": 55,
                    "time": 20.196034,
                    "velocity": 0.47244094488188976,
                    "duration": 0.06535933333333332
                },
                {
                    "name": "B3",
                    "midi": 59,
                    "time": 20.196034,
                    "velocity": 0.47244094488188976,
                    "duration": 0.06535933333333332
                },
                {
                    "name": "D4",
                    "midi": 62,
                    "time": 20.196034,
                    "velocity": 0.47244094488188976,
                    "duration": 0.06535933333333332
                },
                {
                    "name": "G3",
                    "midi": 55,
                    "time": 20.58819,
                    "velocity": 0.47244094488188976,
                    "duration": 0.06535933333333332
                },
                {
                    "name": "C4",
                    "midi": 60,
                    "time": 20.58819,
                    "velocity": 0.47244094488188976,
                    "duration": 0.06535933333333332
                },
                {
                    "name": "E4",
                    "midi": 64,
                    "time": 20.58819,
                    "velocity": 0.47244094488188976,
                    "duration": 0.06535933333333332
                },
                {
                    "name": "G3",
                    "midi": 55,
                    "time": 20.980346,
                    "velocity": 0.47244094488188976,
                    "duration": 0.06535933333333332
                },
                {
                    "name": "C4",
                    "midi": 60,
                    "time": 20.980346,
                    "velocity": 0.47244094488188976,
                    "duration": 0.06535933333333332
                },
                {
                    "name": "E4",
                    "midi": 64,
                    "time": 20.980346,
                    "velocity": 0.47244094488188976,
                    "duration": 0.06535933333333332
                },
                {
                    "name": "A3",
                    "midi": 57,
                    "time": 21.372502,
                    "velocity": 0.47244094488188976,
                    "duration": 0.06535933333333332
                },
                {
                    "name": "D4",
                    "midi": 62,
                    "time": 21.372502,
                    "velocity": 0.47244094488188976,
                    "duration": 0.06535933333333332
                },
                {
                    "name": "F4",
                    "midi": 65,
                    "time": 21.372502,
                    "velocity": 0.47244094488188976,
                    "duration": 0.06535933333333332
                },
                {
                    "name": "A3",
                    "midi": 57,
                    "time": 21.764658,
                    "velocity": 0.47244094488188976,
                    "duration": 0.06535933333333332
                },
                {
                    "name": "D4",
                    "midi": 62,
                    "time": 21.764658,
                    "velocity": 0.47244094488188976,
                    "duration": 0.06535933333333332
                },
                {
                    "name": "F4",
                    "midi": 65,
                    "time": 21.764658,
                    "velocity": 0.47244094488188976,
                    "duration": 0.06535933333333332
                },
                {
                    "name": "G3",
                    "midi": 55,
                    "time": 22.156814,
                    "velocity": 0.47244094488188976,
                    "duration": 0.06535933333333332
                },
                {
                    "name": "C4",
                    "midi": 60,
                    "time": 22.156814,
                    "velocity": 0.47244094488188976,
                    "duration": 0.06535933333333332
                },
                {
                    "name": "E4",
                    "midi": 64,
                    "time": 22.156814,
                    "velocity": 0.47244094488188976,
                    "duration": 0.06535933333333332
                },
                {
                    "name": "G3",
                    "midi": 55,
                    "time": 22.54897,
                    "velocity": 0.47244094488188976,
                    "duration": 0.06535933333333332
                },
                {
                    "name": "C4",
                    "midi": 60,
                    "time": 22.54897,
                    "velocity": 0.47244094488188976,
                    "duration": 0.06535933333333332
                },
                {
                    "name": "E4",
                    "midi": 64,
                    "time": 22.54897,
                    "velocity": 0.47244094488188976,
                    "duration": 0.06535933333333332
                },
                {
                    "name": "B3",
                    "midi": 59,
                    "time": 22.941126,
                    "velocity": 0.47244094488188976,
                    "duration": 0.06535933333333332
                },
                {
                    "name": "D4",
                    "midi": 62,
                    "time": 22.941126,
                    "velocity": 0.47244094488188976,
                    "duration": 0.06535933333333332
                },
                {
                    "name": "F4",
                    "midi": 65,
                    "time": 22.941126,
                    "velocity": 0.47244094488188976,
                    "duration": 0.06535933333333332
                },
                {
                    "name": "B3",
                    "midi": 59,
                    "time": 23.333282,
                    "velocity": 0.47244094488188976,
                    "duration": 0.06535933333333332
                },
                {
                    "name": "D4",
                    "midi": 62,
                    "time": 23.333282,
                    "velocity": 0.47244094488188976,
                    "duration": 0.06535933333333332
                },
                {
                    "name": "F4",
                    "midi": 65,
                    "time": 23.333282,
                    "velocity": 0.47244094488188976,
                    "duration": 0.06535933333333332
                },
                {
                    "name": "G3",
                    "midi": 55,
                    "time": 23.725438,
                    "velocity": 0.47244094488188976,
                    "duration": 0.06535933333333332
                },
                {
                    "name": "C4",
                    "midi": 60,
                    "time": 23.725438,
                    "velocity": 0.47244094488188976,
                    "duration": 0.06535933333333332
                },
                {
                    "name": "E4",
                    "midi": 64,
                    "time": 23.725438,
                    "velocity": 0.47244094488188976,
                    "duration": 0.06535933333333332
                },
                {
                    "name": "G3",
                    "midi": 55,
                    "time": 24.117594,
                    "velocity": 0.47244094488188976,
                    "duration": 0.06535933333333332
                },
                {
                    "name": "C4",
                    "midi": 60,
                    "time": 24.117594,
                    "velocity": 0.47244094488188976,
                    "duration": 0.06535933333333332
                },
                {
                    "name": "E4",
                    "midi": 64,
                    "time": 24.117594,
                    "velocity": 0.47244094488188976,
                    "duration": 0.06535933333333332
                },
                {
                    "name": "G3",
                    "midi": 55,
                    "time": 24.50975,
                    "velocity": 0.47244094488188976,
                    "duration": 0.06535933333333332
                },
                {
                    "name": "C4",
                    "midi": 60,
                    "time": 24.50975,
                    "velocity": 0.47244094488188976,
                    "duration": 0.06535933333333332
                },
                {
                    "name": "E4",
                    "midi": 64,
                    "time": 24.50975,
                    "velocity": 0.47244094488188976,
                    "duration": 0.06535933333333332
                },
                {
                    "name": "G3",
                    "midi": 55,
                    "time": 24.901906,
                    "velocity": 0.47244094488188976,
                    "duration": 0.06535933333333332
                },
                {
                    "name": "C4",
                    "midi": 60,
                    "time": 24.901906,
                    "velocity": 0.47244094488188976,
                    "duration": 0.06535933333333332
                },
                {
                    "name": "E4",
                    "midi": 64,
                    "time": 24.901906,
                    "velocity": 0.47244094488188976,
                    "duration": 0.06535933333333332
                },
                {
                    "name": "A3",
                    "midi": 57,
                    "time": 25.294062,
                    "velocity": 0.47244094488188976,
                    "duration": 0.06535933333333332
                },
                {
                    "name": "C4",
                    "midi": 60,
                    "time": 25.294062,
                    "velocity": 0.47244094488188976,
                    "duration": 0.06535933333333332
                },
                {
                    "name": "F4",
                    "midi": 65,
                    "time": 25.294062,
                    "velocity": 0.47244094488188976,
                    "duration": 0.06535933333333332
                },
                {
                    "name": "A3",
                    "midi": 57,
                    "time": 25.686218,
                    "velocity": 0.47244094488188976,
                    "duration": 0.06535933333333332
                },
                {
                    "name": "C4",
                    "midi": 60,
                    "time": 25.686218,
                    "velocity": 0.47244094488188976,
                    "duration": 0.06535933333333332
                },
                {
                    "name": "F4",
                    "midi": 65,
                    "time": 25.686218,
                    "velocity": 0.47244094488188976,
                    "duration": 0.06535933333333332
                },
                {
                    "name": "G3",
                    "midi": 55,
                    "time": 26.078374,
                    "velocity": 0.47244094488188976,
                    "duration": 0.06535933333333332
                },
                {
                    "name": "B3",
                    "midi": 59,
                    "time": 26.078374,
                    "velocity": 0.47244094488188976,
                    "duration": 0.06535933333333332
                },
                {
                    "name": "D4",
                    "midi": 62,
                    "time": 26.078374,
                    "velocity": 0.47244094488188976,
                    "duration": 0.06535933333333332
                },
                {
                    "name": "G3",
                    "midi": 55,
                    "time": 26.47053,
                    "velocity": 0.47244094488188976,
                    "duration": 0.06535933333333332
                },
                {
                    "name": "B3",
                    "midi": 59,
                    "time": 26.47053,
                    "velocity": 0.47244094488188976,
                    "duration": 0.06535933333333332
                },
                {
                    "name": "D4",
                    "midi": 62,
                    "time": 26.47053,
                    "velocity": 0.47244094488188976,
                    "duration": 0.06535933333333332
                },
                {
                    "name": "G3",
                    "midi": 55,
                    "time": 26.862686,
                    "velocity": 0.47244094488188976,
                    "duration": 0.06535933333333332
                },
                {
                    "name": "C4",
                    "midi": 60,
                    "time": 26.862686,
                    "velocity": 0.47244094488188976,
                    "duration": 0.06535933333333332
                },
                {
                    "name": "E4",
                    "midi": 64,
                    "time": 26.862686,
                    "velocity": 0.47244094488188976,
                    "duration": 0.06535933333333332
                },
                {
                    "name": "G3",
                    "midi": 55,
                    "time": 27.254842,
                    "velocity": 0.47244094488188976,
                    "duration": 0.06535933333333332
                },
                {
                    "name": "C4",
                    "midi": 60,
                    "time": 27.254842,
                    "velocity": 0.47244094488188976,
                    "duration": 0.06535933333333332
                },
                {
                    "name": "E4",
                    "midi": 64,
                    "time": 27.254842,
                    "velocity": 0.47244094488188976,
                    "duration": 0.06535933333333332
                },
                {
                    "name": "G3",
                    "midi": 55,
                    "time": 27.646998,
                    "velocity": 0.47244094488188976,
                    "duration": 0.06535933333333332
                },
                {
                    "name": "C4",
                    "midi": 60,
                    "time": 27.646998,
                    "velocity": 0.47244094488188976,
                    "duration": 0.06535933333333332
                },
                {
                    "name": "E4",
                    "midi": 64,
                    "time": 27.646998,
                    "velocity": 0.47244094488188976,
                    "duration": 0.06535933333333332
                },
                {
                    "name": "G3",
                    "midi": 55,
                    "time": 28.039154,
                    "velocity": 0.47244094488188976,
                    "duration": 0.06535933333333332
                },
                {
                    "name": "C4",
                    "midi": 60,
                    "time": 28.039154,
                    "velocity": 0.47244094488188976,
                    "duration": 0.06535933333333332
                },
                {
                    "name": "E4",
                    "midi": 64,
                    "time": 28.039154,
                    "velocity": 0.47244094488188976,
                    "duration": 0.06535933333333332
                },
                {
                    "name": "A3",
                    "midi": 57,
                    "time": 28.43131,
                    "velocity": 0.47244094488188976,
                    "duration": 0.06535933333333332
                },
                {
                    "name": "C4",
                    "midi": 60,
                    "time": 28.43131,
                    "velocity": 0.47244094488188976,
                    "duration": 0.06535933333333332
                },
                {
                    "name": "F4",
                    "midi": 65,
                    "time": 28.43131,
                    "velocity": 0.47244094488188976,
                    "duration": 0.06535933333333332
                },
                {
                    "name": "A3",
                    "midi": 57,
                    "time": 28.823466,
                    "velocity": 0.47244094488188976,
                    "duration": 0.06535933333333332
                },
                {
                    "name": "C4",
                    "midi": 60,
                    "time": 28.823466,
                    "velocity": 0.47244094488188976,
                    "duration": 0.06535933333333332
                },
                {
                    "name": "F4",
                    "midi": 65,
                    "time": 28.823466,
                    "velocity": 0.47244094488188976,
                    "duration": 0.06535933333333332
                },
                {
                    "name": "G3",
                    "midi": 55,
                    "time": 29.215622,
                    "velocity": 0.47244094488188976,
                    "duration": 0.06535933333333332
                },
                {
                    "name": "B3",
                    "midi": 59,
                    "time": 29.215622,
                    "velocity": 0.47244094488188976,
                    "duration": 0.06535933333333332
                },
                {
                    "name": "D4",
                    "midi": 62,
                    "time": 29.215622,
                    "velocity": 0.47244094488188976,
                    "duration": 0.06535933333333332
                },
                {
                    "name": "G3",
                    "midi": 55,
                    "time": 29.607778,
                    "velocity": 0.47244094488188976,
                    "duration": 0.06535933333333332
                },
                {
                    "name": "B3",
                    "midi": 59,
                    "time": 29.607778,
                    "velocity": 0.47244094488188976,
                    "duration": 0.06535933333333332
                },
                {
                    "name": "D4",
                    "midi": 62,
                    "time": 29.607778,
                    "velocity": 0.47244094488188976,
                    "duration": 0.06535933333333332
                },
                {
                    "name": "G3",
                    "midi": 55,
                    "time": 29.999934,
                    "velocity": 0.47244094488188976,
                    "duration": 0.06535933333333332
                },
                {
                    "name": "C4",
                    "midi": 60,
                    "time": 29.999934,
                    "velocity": 0.47244094488188976,
                    "duration": 0.06535933333333332
                },
                {
                    "name": "E4",
                    "midi": 64,
                    "time": 29.999934,
                    "velocity": 0.47244094488188976,
                    "duration": 0.06535933333333332
                },
                {
                    "name": "G3",
                    "midi": 55,
                    "time": 30.39209,
                    "velocity": 0.47244094488188976,
                    "duration": 0.06535933333333332
                },
                {
                    "name": "C4",
                    "midi": 60,
                    "time": 30.39209,
                    "velocity": 0.47244094488188976,
                    "duration": 0.06535933333333332
                },
                {
                    "name": "E4",
                    "midi": 64,
                    "time": 30.39209,
                    "velocity": 0.47244094488188976,
                    "duration": 0.06535933333333332
                },
                {
                    "name": "E4",
                    "midi": 64,
                    "time": 30.588168,
                    "velocity": 0.5905511811023622,
                    "duration": 2.3529360000000032
                },
                {
                    "name": "F#4",
                    "midi": 66,
                    "time": 32.941104,
                    "velocity": 0.5905511811023622,
                    "duration": 0.7843119999999999
                },
                {
                    "name": "G4",
                    "midi": 67,
                    "time": 33.725416,
                    "velocity": 0.5905511811023622,
                    "duration": 2.3529359999999997
                },
                {
                    "name": "F#4",
                    "midi": 66,
                    "time": 36.078352,
                    "velocity": 0.5905511811023622,
                    "duration": 0.1919930416666702
                },
                {
                    "name": "G3",
                    "midi": 55,
                    "time": 37.64697600000001,
                    "velocity": 0.47244094488188976,
                    "duration": 0.06535933333333332
                },
                {
                    "name": "B3",
                    "midi": 59,
                    "time": 37.64697600000001,
                    "velocity": 0.47244094488188976,
                    "duration": 0.06535933333333332
                },
                {
                    "name": "D4",
                    "midi": 62,
                    "time": 37.64697600000001,
                    "velocity": 0.47244094488188976,
                    "duration": 0.06535933333333332
                },
                {
                    "name": "G3",
                    "midi": 55,
                    "time": 38.03913200000001,
                    "velocity": 0.47244094488188976,
                    "duration": 0.06535933333333332
                },
                {
                    "name": "B3",
                    "midi": 59,
                    "time": 38.03913200000001,
                    "velocity": 0.47244094488188976,
                    "duration": 0.06535933333333332
                },
                {
                    "name": "D4",
                    "midi": 62,
                    "time": 38.03913200000001,
                    "velocity": 0.47244094488188976,
                    "duration": 0.06535933333333332
                },
                {
                    "name": "G3",
                    "midi": 55,
                    "time": 38.43128800000001,
                    "velocity": 0.47244094488188976,
                    "duration": 0.06535933333333332
                },
                {
                    "name": "C#4",
                    "midi": 61,
                    "time": 38.43128800000001,
                    "velocity": 0.47244094488188976,
                    "duration": 0.06535933333333332
                },
                {
                    "name": "E4",
                    "midi": 64,
                    "time": 38.43128800000001,
                    "velocity": 0.47244094488188976,
                    "duration": 0.06535933333333332
                },
                {
                    "name": "G3",
                    "midi": 55,
                    "time": 38.82344400000001,
                    "velocity": 0.47244094488188976,
                    "duration": 0.06535933333333332
                },
                {
                    "name": "C#4",
                    "midi": 61,
                    "time": 38.82344400000001,
                    "velocity": 0.47244094488188976,
                    "duration": 0.06535933333333332
                },
                {
                    "name": "E4",
                    "midi": 64,
                    "time": 38.82344400000001,
                    "velocity": 0.47244094488188976,
                    "duration": 0.06535933333333332
                },
                {
                    "name": "A3",
                    "midi": 57,
                    "time": 39.21560000000001,
                    "velocity": 0.47244094488188976,
                    "duration": 0.06535933333333332
                },
                {
                    "name": "D4",
                    "midi": 62,
                    "time": 39.21560000000001,
                    "velocity": 0.47244094488188976,
                    "duration": 0.06535933333333332
                },
                {
                    "name": "F#4",
                    "midi": 66,
                    "time": 39.21560000000001,
                    "velocity": 0.47244094488188976,
                    "duration": 0.06535933333333332
                },
                {
                    "name": "D4",
                    "midi": 62,
                    "time": 40.78422400000001,
                    "velocity": 0.47244094488188976,
                    "duration": 0.06535933333333332
                },
                {
                    "name": "G4",
                    "midi": 67,
                    "time": 40.78422400000001,
                    "velocity": 0.47244094488188976,
                    "duration": 0.06535933333333332
                },
                {
                    "name": "B4",
                    "midi": 71,
                    "time": 40.78422400000001,
                    "velocity": 0.47244094488188976,
                    "duration": 0.06535933333333332
                },
                {
                    "name": "D4",
                    "midi": 62,
                    "time": 41.17638000000001,
                    "velocity": 0.47244094488188976,
                    "duration": 0.06535933333333332
                },
                {
                    "name": "G4",
                    "midi": 67,
                    "time": 41.17638000000001,
                    "velocity": 0.47244094488188976,
                    "duration": 0.06535933333333332
                },
                {
                    "name": "B4",
                    "midi": 71,
                    "time": 41.17638000000001,
                    "velocity": 0.47244094488188976,
                    "duration": 0.06535933333333332
                },
                {
                    "name": "E4",
                    "midi": 64,
                    "time": 41.56853600000001,
                    "velocity": 0.47244094488188976,
                    "duration": 0.06535933333333332
                },
                {
                    "name": "A4",
                    "midi": 69,
                    "time": 41.56853600000001,
                    "velocity": 0.47244094488188976,
                    "duration": 0.06535933333333332
                },
                {
                    "name": "C#5",
                    "midi": 73,
                    "time": 41.56853600000001,
                    "velocity": 0.47244094488188976,
                    "duration": 0.06535933333333332
                },
                {
                    "name": "E4",
                    "midi": 64,
                    "time": 41.96069200000001,
                    "velocity": 0.47244094488188976,
                    "duration": 0.06535933333333332
                },
                {
                    "name": "A4",
                    "midi": 69,
                    "time": 41.96069200000001,
                    "velocity": 0.47244094488188976,
                    "duration": 0.06535933333333332
                },
                {
                    "name": "C#5",
                    "midi": 73,
                    "time": 41.96069200000001,
                    "velocity": 0.47244094488188976,
                    "duration": 0.06535933333333332
                },
                {
                    "name": "F#4",
                    "midi": 66,
                    "time": 42.35284800000001,
                    "velocity": 0.47244094488188976,
                    "duration": 0.06535933333333332
                },
                {
                    "name": "A4",
                    "midi": 69,
                    "time": 42.35284800000001,
                    "velocity": 0.47244094488188976,
                    "duration": 0.06535933333333332
                },
                {
                    "name": "D5",
                    "midi": 74,
                    "time": 42.35284800000001,
                    "velocity": 0.47244094488188976,
                    "duration": 0.06535933333333332
                },
                {
                    "name": "E4",
                    "midi": 64,
                    "time": 42.74500400000001,
                    "velocity": 0.47244094488188976,
                    "duration": 0.39215599999999995
                },
                {
                    "name": "A4",
                    "midi": 69,
                    "time": 42.74500400000001,
                    "velocity": 0.47244094488188976,
                    "duration": 0.39215599999999995
                },
                {
                    "name": "C#5",
                    "midi": 73,
                    "time": 42.74500400000001,
                    "velocity": 0.47244094488188976,
                    "duration": 0.39215599999999995
                },
                {
                    "name": "F#4",
                    "midi": 66,
                    "time": 43.13716000000001,
                    "velocity": 0.47244094488188976,
                    "duration": 0.39215599999999995
                },
                {
                    "name": "A4",
                    "midi": 69,
                    "time": 43.13716000000001,
                    "velocity": 0.47244094488188976,
                    "duration": 0.39215599999999995
                },
                {
                    "name": "D5",
                    "midi": 74,
                    "time": 43.13716000000001,
                    "velocity": 0.47244094488188976,
                    "duration": 0.39215599999999995
                },
                {
                    "name": "G4",
                    "midi": 67,
                    "time": 43.52931600000001,
                    "velocity": 0.47244094488188976,
                    "duration": 0.39215599999999995
                },
                {
                    "name": "A4",
                    "midi": 69,
                    "time": 43.52931600000001,
                    "velocity": 0.47244094488188976,
                    "duration": 0.39215599999999995
                },
                {
                    "name": "C#5",
                    "midi": 73,
                    "time": 43.52931600000001,
                    "velocity": 0.47244094488188976,
                    "duration": 0.39215599999999995
                },
                {
                    "name": "F#4",
                    "midi": 66,
                    "time": 43.92147200000001,
                    "velocity": 0.47244094488188976,
                    "duration": 0.39215599999999995
                },
                {
                    "name": "A4",
                    "midi": 69,
                    "time": 43.92147200000001,
                    "velocity": 0.47244094488188976,
                    "duration": 0.39215599999999995
                },
                {
                    "name": "D5",
                    "midi": 74,
                    "time": 43.92147200000001,
                    "velocity": 0.47244094488188976,
                    "duration": 0.39215599999999995
                },
                {
                    "name": "E4",
                    "midi": 64,
                    "time": 44.31362800000001,
                    "velocity": 0.47244094488188976,
                    "duration": 0.39215599999999995
                },
                {
                    "name": "A4",
                    "midi": 69,
                    "time": 44.31362800000001,
                    "velocity": 0.47244094488188976,
                    "duration": 0.39215599999999995
                },
                {
                    "name": "C#5",
                    "midi": 73,
                    "time": 44.31362800000001,
                    "velocity": 0.47244094488188976,
                    "duration": 0.39215599999999995
                },
                {
                    "name": "F#4",
                    "midi": 66,
                    "time": 44.70578400000001,
                    "velocity": 0.47244094488188976,
                    "duration": 0.39215599999999995
                },
                {
                    "name": "A4",
                    "midi": 69,
                    "time": 44.70578400000001,
                    "velocity": 0.47244094488188976,
                    "duration": 0.39215599999999995
                },
                {
                    "name": "D5",
                    "midi": 74,
                    "time": 44.70578400000001,
                    "velocity": 0.47244094488188976,
                    "duration": 0.39215599999999995
                },
                {
                    "name": "G4",
                    "midi": 67,
                    "time": 45.09794000000001,
                    "velocity": 0.47244094488188976,
                    "duration": 0.39215599999999995
                },
                {
                    "name": "A4",
                    "midi": 69,
                    "time": 45.09794000000001,
                    "velocity": 0.47244094488188976,
                    "duration": 0.39215599999999995
                },
                {
                    "name": "C#5",
                    "midi": 73,
                    "time": 45.09794000000001,
                    "velocity": 0.47244094488188976,
                    "duration": 0.39215599999999995
                },
                {
                    "name": "F#4",
                    "midi": 66,
                    "time": 45.49009600000001,
                    "velocity": 0.47244094488188976,
                    "duration": 0.1919930416666702
                },
                {
                    "name": "A4",
                    "midi": 69,
                    "time": 45.49009600000001,
                    "velocity": 0.47244094488188976,
                    "duration": 0.1919930416666702
                },
                {
                    "name": "D5",
                    "midi": 74,
                    "time": 45.49009600000001,
                    "velocity": 0.47244094488188976,
                    "duration": 0.1919930416666702
                },
                {
                    "name": "A3",
                    "midi": 57,
                    "time": 46.47048600000001,
                    "velocity": 0.47244094488188976,
                    "duration": 0.06535933333333332
                },
                {
                    "name": "C4",
                    "midi": 60,
                    "time": 46.47048600000001,
                    "velocity": 0.47244094488188976,
                    "duration": 0.06535933333333332
                },
                {
                    "name": "D4",
                    "midi": 62,
                    "time": 46.47048600000001,
                    "velocity": 0.47244094488188976,
                    "duration": 0.06535933333333332
                },
                {
                    "name": "F#4",
                    "midi": 66,
                    "time": 46.47048600000001,
                    "velocity": 0.47244094488188976,
                    "duration": 0.06535933333333332
                },
                {
                    "name": "A3",
                    "midi": 57,
                    "time": 46.86264200000001,
                    "velocity": 0.47244094488188976,
                    "duration": 0.06535933333333332
                },
                {
                    "name": "C4",
                    "midi": 60,
                    "time": 46.86264200000001,
                    "velocity": 0.47244094488188976,
                    "duration": 0.06535933333333332
                },
                {
                    "name": "D4",
                    "midi": 62,
                    "time": 46.86264200000001,
                    "velocity": 0.47244094488188976,
                    "duration": 0.06535933333333332
                },
                {
                    "name": "F#4",
                    "midi": 66,
                    "time": 46.86264200000001,
                    "velocity": 0.47244094488188976,
                    "duration": 0.06535933333333332
                },
                {
                    "name": "B3",
                    "midi": 59,
                    "time": 47.25479800000001,
                    "velocity": 0.47244094488188976,
                    "duration": 0.06535933333333332
                },
                {
                    "name": "D4",
                    "midi": 62,
                    "time": 47.25479800000001,
                    "velocity": 0.47244094488188976,
                    "duration": 0.06535933333333332
                },
                {
                    "name": "G4",
                    "midi": 67,
                    "time": 47.25479800000001,
                    "velocity": 0.47244094488188976,
                    "duration": 0.06535933333333332
                },
                {
                    "name": "B3",
                    "midi": 59,
                    "time": 47.64695400000001,
                    "velocity": 0.47244094488188976,
                    "duration": 0.06535933333333332
                },
                {
                    "name": "D4",
                    "midi": 62,
                    "time": 47.64695400000001,
                    "velocity": 0.47244094488188976,
                    "duration": 0.06535933333333332
                },
                {
                    "name": "G4",
                    "midi": 67,
                    "time": 47.64695400000001,
                    "velocity": 0.47244094488188976,
                    "duration": 0.06535933333333332
                },
                {
                    "name": "B3",
                    "midi": 59,
                    "time": 48.03911000000001,
                    "velocity": 0.47244094488188976,
                    "duration": 0.06535933333333332
                },
                {
                    "name": "D#4",
                    "midi": 63,
                    "time": 48.03911000000001,
                    "velocity": 0.47244094488188976,
                    "duration": 0.06535933333333332
                },
                {
                    "name": "F#4",
                    "midi": 66,
                    "time": 48.03911000000001,
                    "velocity": 0.47244094488188976,
                    "duration": 0.06535933333333332
                },
                {
                    "name": "B3",
                    "midi": 59,
                    "time": 48.43126600000001,
                    "velocity": 0.47244094488188976,
                    "duration": 0.06535933333333332
                },
                {
                    "name": "D#4",
                    "midi": 63,
                    "time": 48.43126600000001,
                    "velocity": 0.47244094488188976,
                    "duration": 0.06535933333333332
                },
                {
                    "name": "F#4",
                    "midi": 66,
                    "time": 48.43126600000001,
                    "velocity": 0.47244094488188976,
                    "duration": 0.06535933333333332
                },
                {
                    "name": "B3",
                    "midi": 59,
                    "time": 48.82342200000001,
                    "velocity": 0.47244094488188976,
                    "duration": 0.06535933333333332
                },
                {
                    "name": "E4",
                    "midi": 64,
                    "time": 48.82342200000001,
                    "velocity": 0.47244094488188976,
                    "duration": 0.06535933333333332
                },
                {
                    "name": "G4",
                    "midi": 67,
                    "time": 48.82342200000001,
                    "velocity": 0.47244094488188976,
                    "duration": 0.06535933333333332
                },
                {
                    "name": "B3",
                    "midi": 59,
                    "time": 49.21557800000001,
                    "velocity": 0.47244094488188976,
                    "duration": 0.06535933333333332
                },
                {
                    "name": "E4",
                    "midi": 64,
                    "time": 49.21557800000001,
                    "velocity": 0.47244094488188976,
                    "duration": 0.06535933333333332
                },
                {
                    "name": "G4",
                    "midi": 67,
                    "time": 49.21557800000001,
                    "velocity": 0.47244094488188976,
                    "duration": 0.06535933333333332
                },
                {
                    "name": "B3",
                    "midi": 59,
                    "time": 49.60773400000001,
                    "velocity": 0.47244094488188976,
                    "duration": 0.06535933333333332
                },
                {
                    "name": "D4",
                    "midi": 62,
                    "time": 49.60773400000001,
                    "velocity": 0.47244094488188976,
                    "duration": 0.06535933333333332
                },
                {
                    "name": "G4",
                    "midi": 67,
                    "time": 49.60773400000001,
                    "velocity": 0.47244094488188976,
                    "duration": 0.06535933333333332
                },
                {
                    "name": "B3",
                    "midi": 59,
                    "time": 49.99989000000001,
                    "velocity": 0.47244094488188976,
                    "duration": 0.06535933333333332
                },
                {
                    "name": "D4",
                    "midi": 62,
                    "time": 49.99989000000001,
                    "velocity": 0.47244094488188976,
                    "duration": 0.06535933333333332
                },
                {
                    "name": "G4",
                    "midi": 67,
                    "time": 49.99989000000001,
                    "velocity": 0.47244094488188976,
                    "duration": 0.06535933333333332
                },
                {
                    "name": "C4",
                    "midi": 60,
                    "time": 50.39204600000001,
                    "velocity": 0.47244094488188976,
                    "duration": 0.06535933333333332
                },
                {
                    "name": "E4",
                    "midi": 64,
                    "time": 50.39204600000001,
                    "velocity": 0.47244094488188976,
                    "duration": 0.06535933333333332
                },
                {
                    "name": "G4",
                    "midi": 67,
                    "time": 50.39204600000001,
                    "velocity": 0.47244094488188976,
                    "duration": 0.06535933333333332
                },
                {
                    "name": "C4",
                    "midi": 60,
                    "time": 50.78420200000001,
                    "velocity": 0.47244094488188976,
                    "duration": 0.06535933333333332
                },
                {
                    "name": "E4",
                    "midi": 64,
                    "time": 50.78420200000001,
                    "velocity": 0.47244094488188976,
                    "duration": 0.06535933333333332
                },
                {
                    "name": "G4",
                    "midi": 67,
                    "time": 50.78420200000001,
                    "velocity": 0.47244094488188976,
                    "duration": 0.06535933333333332
                },
                {
                    "name": "G3",
                    "midi": 55,
                    "time": 51.17635800000001,
                    "velocity": 0.47244094488188976,
                    "duration": 0.06535933333333332
                },
                {
                    "name": "C4",
                    "midi": 60,
                    "time": 51.17635800000001,
                    "velocity": 0.47244094488188976,
                    "duration": 0.06535933333333332
                },
                {
                    "name": "E4",
                    "midi": 64,
                    "time": 51.17635800000001,
                    "velocity": 0.47244094488188976,
                    "duration": 0.06535933333333332
                },
                {
                    "name": "B3",
                    "midi": 59,
                    "time": 51.56851400000001,
                    "velocity": 0.47244094488188976,
                    "duration": 0.06535933333333332
                },
                {
                    "name": "D4",
                    "midi": 62,
                    "time": 51.56851400000001,
                    "velocity": 0.47244094488188976,
                    "duration": 0.06535933333333332
                },
                {
                    "name": "G4",
                    "midi": 67,
                    "time": 51.56851400000001,
                    "velocity": 0.47244094488188976,
                    "duration": 0.06535933333333332
                },
                {
                    "name": "G3",
                    "midi": 55,
                    "time": 51.76459200000001,
                    "velocity": 0.47244094488188976,
                    "duration": 0.39215599999999995
                },
                {
                    "name": "G4",
                    "midi": 67,
                    "time": 51.76459200000001,
                    "velocity": 0.47244094488188976,
                    "duration": 0.39215599999999995
                },
                {
                    "name": "G#3",
                    "midi": 56,
                    "time": 52.15674800000001,
                    "velocity": 0.47244094488188976,
                    "duration": 0.39215599999999995
                },
                {
                    "name": "G#4",
                    "midi": 68,
                    "time": 52.15674800000001,
                    "velocity": 0.47244094488188976,
                    "duration": 0.39215599999999995
                },
                {
                    "name": "A3",
                    "midi": 57,
                    "time": 52.54890400000001,
                    "velocity": 0.47244094488188976,
                    "duration": 0.39215599999999995
                },
                {
                    "name": "A4",
                    "midi": 69,
                    "time": 52.54890400000001,
                    "velocity": 0.47244094488188976,
                    "duration": 0.39215599999999995
                },
                {
                    "name": "F#3",
                    "midi": 54,
                    "time": 52.94106000000001,
                    "velocity": 0.47244094488188976,
                    "duration": 0.39215599999999995
                },
                {
                    "name": "F#4",
                    "midi": 66,
                    "time": 52.94106000000001,
                    "velocity": 0.47244094488188976,
                    "duration": 0.39215599999999995
                },
                {
                    "name": "G3",
                    "midi": 55,
                    "time": 53.33321600000001,
                    "velocity": 0.47244094488188976,
                    "duration": 0.39215599999999995
                },
                {
                    "name": "G4",
                    "midi": 67,
                    "time": 53.33321600000001,
                    "velocity": 0.47244094488188976,
                    "duration": 0.39215599999999995
                },
                {
                    "name": "E3",
                    "midi": 52,
                    "time": 53.72537200000001,
                    "velocity": 0.47244094488188976,
                    "duration": 0.39215599999999995
                },
                {
                    "name": "E4",
                    "midi": 64,
                    "time": 53.72537200000001,
                    "velocity": 0.47244094488188976,
                    "duration": 0.39215599999999995
                },
                {
                    "name": "F#3",
                    "midi": 54,
                    "time": 54.11752800000001,
                    "velocity": 0.47244094488188976,
                    "duration": 0.39215599999999995
                },
                {
                    "name": "F#4",
                    "midi": 66,
                    "time": 54.11752800000001,
                    "velocity": 0.47244094488188976,
                    "duration": 0.39215599999999995
                },
                {
                    "name": "D#3",
                    "midi": 51,
                    "time": 54.50968400000001,
                    "velocity": 0.47244094488188976,
                    "duration": 0.39215599999999995
                },
                {
                    "name": "D#4",
                    "midi": 63,
                    "time": 54.50968400000001,
                    "velocity": 0.47244094488188976,
                    "duration": 0.39215599999999995
                },
                {
                    "name": "E3",
                    "midi": 52,
                    "time": 54.90184000000001,
                    "velocity": 0.47244094488188976,
                    "duration": 0.39215599999999995
                },
                {
                    "name": "E4",
                    "midi": 64,
                    "time": 54.90184000000001,
                    "velocity": 0.47244094488188976,
                    "duration": 0.39215599999999995
                },
                {
                    "name": "C#3",
                    "midi": 49,
                    "time": 55.29399600000001,
                    "velocity": 0.47244094488188976,
                    "duration": 0.39215599999999995
                },
                {
                    "name": "C#4",
                    "midi": 61,
                    "time": 55.29399600000001,
                    "velocity": 0.47244094488188976,
                    "duration": 0.39215599999999995
                },
                {
                    "name": "D3",
                    "midi": 50,
                    "time": 55.68615200000001,
                    "velocity": 0.47244094488188976,
                    "duration": 0.39215599999999995
                },
                {
                    "name": "D4",
                    "midi": 62,
                    "time": 55.68615200000001,
                    "velocity": 0.47244094488188976,
                    "duration": 0.39215599999999995
                },
                {
                    "name": "F#3",
                    "midi": 54,
                    "time": 56.07830800000001,
                    "velocity": 0.47244094488188976,
                    "duration": 0.39215599999999995
                },
                {
                    "name": "F#4",
                    "midi": 66,
                    "time": 56.07830800000001,
                    "velocity": 0.47244094488188976,
                    "duration": 0.39215599999999995
                },
                {
                    "name": "G3",
                    "midi": 55,
                    "time": 56.47046400000001,
                    "velocity": 0.47244094488188976,
                    "duration": 0.39215599999999995
                },
                {
                    "name": "G4",
                    "midi": 67,
                    "time": 56.47046400000001,
                    "velocity": 0.47244094488188976,
                    "duration": 0.39215599999999995
                },
                {
                    "name": "A3",
                    "midi": 57,
                    "time": 56.86262000000001,
                    "velocity": 0.47244094488188976,
                    "duration": 0.39215599999999995
                },
                {
                    "name": "A4",
                    "midi": 69,
                    "time": 56.86262000000001,
                    "velocity": 0.47244094488188976,
                    "duration": 0.39215599999999995
                },
                {
                    "name": "G3",
                    "midi": 55,
                    "time": 57.25477600000001,
                    "velocity": 0.47244094488188976,
                    "duration": 0.39215599999999995
                },
                {
                    "name": "G4",
                    "midi": 67,
                    "time": 57.25477600000001,
                    "velocity": 0.47244094488188976,
                    "duration": 0.39215599999999995
                },
                {
                    "name": "F#3",
                    "midi": 54,
                    "time": 57.64693200000001,
                    "velocity": 0.47244094488188976,
                    "duration": 0.39215599999999995
                },
                {
                    "name": "F#4",
                    "midi": 66,
                    "time": 57.64693200000001,
                    "velocity": 0.47244094488188976,
                    "duration": 0.39215599999999995
                },
                {
                    "name": "G3",
                    "midi": 55,
                    "time": 58.03908800000001,
                    "velocity": 0.47244094488188976,
                    "duration": 0.3267966666666666
                },
                {
                    "name": "G4",
                    "midi": 67,
                    "time": 58.03908800000001,
                    "velocity": 0.47244094488188976,
                    "duration": 0.3267966666666666
                },
                {
                    "name": "B3",
                    "midi": 59,
                    "time": 58.62732200000001,
                    "velocity": 0.47244094488188976,
                    "duration": 0.06535933333333332
                },
                {
                    "name": "E4",
                    "midi": 64,
                    "time": 58.62732200000001,
                    "velocity": 0.47244094488188976,
                    "duration": 0.06535933333333332
                },
                {
                    "name": "G#4",
                    "midi": 68,
                    "time": 58.62732200000001,
                    "velocity": 0.47244094488188976,
                    "duration": 0.06535933333333332
                },
                {
                    "name": "C4",
                    "midi": 60,
                    "time": 59.01947800000001,
                    "velocity": 0.47244094488188976,
                    "duration": 0.06535933333333332
                },
                {
                    "name": "E4",
                    "midi": 64,
                    "time": 59.01947800000001,
                    "velocity": 0.47244094488188976,
                    "duration": 0.06535933333333332
                },
                {
                    "name": "A4",
                    "midi": 69,
                    "time": 59.01947800000001,
                    "velocity": 0.47244094488188976,
                    "duration": 0.06535933333333332
                },
                {
                    "name": "A3",
                    "midi": 57,
                    "time": 59.41163400000001,
                    "velocity": 0.47244094488188976,
                    "duration": 0.06535933333333332
                },
                {
                    "name": "D4",
                    "midi": 62,
                    "time": 59.41163400000001,
                    "velocity": 0.47244094488188976,
                    "duration": 0.06535933333333332
                },
                {
                    "name": "F#4",
                    "midi": 66,
                    "time": 59.41163400000001,
                    "velocity": 0.47244094488188976,
                    "duration": 0.06535933333333332
                },
                {
                    "name": "B3",
                    "midi": 59,
                    "time": 59.803790000000006,
                    "velocity": 0.47244094488188976,
                    "duration": 0.06535933333333332
                },
                {
                    "name": "D4",
                    "midi": 62,
                    "time": 59.803790000000006,
                    "velocity": 0.47244094488188976,
                    "duration": 0.06535933333333332
                },
                {
                    "name": "G4",
                    "midi": 67,
                    "time": 59.803790000000006,
                    "velocity": 0.47244094488188976,
                    "duration": 0.06535933333333332
                },
                {
                    "name": "G3",
                    "midi": 55,
                    "time": 60.195946000000006,
                    "velocity": 0.47244094488188976,
                    "duration": 0.06535933333333332
                },
                {
                    "name": "C4",
                    "midi": 60,
                    "time": 60.195946000000006,
                    "velocity": 0.47244094488188976,
                    "duration": 0.06535933333333332
                },
                {
                    "name": "E4",
                    "midi": 64,
                    "time": 60.195946000000006,
                    "velocity": 0.47244094488188976,
                    "duration": 0.06535933333333332
                },
                {
                    "name": "A3",
                    "midi": 57,
                    "time": 60.588102000000006,
                    "velocity": 0.47244094488188976,
                    "duration": 0.06535933333333332
                },
                {
                    "name": "C4",
                    "midi": 60,
                    "time": 60.588102000000006,
                    "velocity": 0.47244094488188976,
                    "duration": 0.06535933333333332
                },
                {
                    "name": "F#4",
                    "midi": 66,
                    "time": 60.588102000000006,
                    "velocity": 0.47244094488188976,
                    "duration": 0.06535933333333332
                },
                {
                    "name": "A4",
                    "midi": 69,
                    "time": 60.588102000000006,
                    "velocity": 0.47244094488188976,
                    "duration": 0.06535933333333332
                },
                {
                    "name": "F#3",
                    "midi": 54,
                    "time": 60.980258000000006,
                    "velocity": 0.47244094488188976,
                    "duration": 0.06535933333333332
                },
                {
                    "name": "B3",
                    "midi": 59,
                    "time": 60.980258000000006,
                    "velocity": 0.47244094488188976,
                    "duration": 0.06535933333333332
                },
                {
                    "name": "D#4",
                    "midi": 63,
                    "time": 60.980258000000006,
                    "velocity": 0.47244094488188976,
                    "duration": 0.06535933333333332
                },
                {
                    "name": "F#4",
                    "midi": 66,
                    "time": 60.980258000000006,
                    "velocity": 0.47244094488188976,
                    "duration": 0.06535933333333332
                },
                {
                    "name": "G3",
                    "midi": 55,
                    "time": 61.372414000000006,
                    "velocity": 0.47244094488188976,
                    "duration": 0.06535933333333332
                },
                {
                    "name": "B3",
                    "midi": 59,
                    "time": 61.372414000000006,
                    "velocity": 0.47244094488188976,
                    "duration": 0.06535933333333332
                },
                {
                    "name": "E4",
                    "midi": 64,
                    "time": 61.372414000000006,
                    "velocity": 0.47244094488188976,
                    "duration": 0.06535933333333332
                },
                {
                    "name": "G4",
                    "midi": 67,
                    "time": 61.372414000000006,
                    "velocity": 0.47244094488188976,
                    "duration": 0.06535933333333332
                },
                {
                    "name": "E3",
                    "midi": 52,
                    "time": 61.764570000000006,
                    "velocity": 0.47244094488188976,
                    "duration": 0.06535933333333332
                },
                {
                    "name": "A3",
                    "midi": 57,
                    "time": 61.764570000000006,
                    "velocity": 0.47244094488188976,
                    "duration": 0.06535933333333332
                },
                {
                    "name": "C#4",
                    "midi": 61,
                    "time": 61.764570000000006,
                    "velocity": 0.47244094488188976,
                    "duration": 0.06535933333333332
                },
                {
                    "name": "E4",
                    "midi": 64,
                    "time": 61.764570000000006,
                    "velocity": 0.47244094488188976,
                    "duration": 0.06535933333333332
                },
                {
                    "name": "A3",
                    "midi": 57,
                    "time": 62.156726000000006,
                    "velocity": 0.47244094488188976,
                    "duration": 0.06535933333333332
                },
                {
                    "name": "D4",
                    "midi": 62,
                    "time": 62.156726000000006,
                    "velocity": 0.47244094488188976,
                    "duration": 0.06535933333333332
                },
                {
                    "name": "F#4",
                    "midi": 66,
                    "time": 62.156726000000006,
                    "velocity": 0.47244094488188976,
                    "duration": 0.06535933333333332
                },
                {
                    "name": "A3",
                    "midi": 57,
                    "time": 62.548882000000006,
                    "velocity": 0.47244094488188976,
                    "duration": 0.06535933333333332
                },
                {
                    "name": "D4",
                    "midi": 62,
                    "time": 62.548882000000006,
                    "velocity": 0.47244094488188976,
                    "duration": 0.06535933333333332
                },
                {
                    "name": "F#4",
                    "midi": 66,
                    "time": 62.548882000000006,
                    "velocity": 0.47244094488188976,
                    "duration": 0.06535933333333332
                },
                {
                    "name": "B3",
                    "midi": 59,
                    "time": 62.941038000000006,
                    "velocity": 0.47244094488188976,
                    "duration": 0.06535933333333332
                },
                {
                    "name": "D4",
                    "midi": 62,
                    "time": 62.941038000000006,
                    "velocity": 0.47244094488188976,
                    "duration": 0.06535933333333332
                },
                {
                    "name": "G4",
                    "midi": 67,
                    "time": 62.941038000000006,
                    "velocity": 0.47244094488188976,
                    "duration": 0.06535933333333332
                },
                {
                    "name": "C4",
                    "midi": 60,
                    "time": 63.333194000000006,
                    "velocity": 0.47244094488188976,
                    "duration": 0.06535933333333332
                },
                {
                    "name": "E4",
                    "midi": 64,
                    "time": 63.333194000000006,
                    "velocity": 0.47244094488188976,
                    "duration": 0.06535933333333332
                },
                {
                    "name": "A4",
                    "midi": 69,
                    "time": 63.333194000000006,
                    "velocity": 0.47244094488188976,
                    "duration": 0.06535933333333332
                },
                {
                    "name": "D4",
                    "midi": 62,
                    "time": 63.725350000000006,
                    "velocity": 0.47244094488188976,
                    "duration": 0.06535933333333332
                },
                {
                    "name": "G4",
                    "midi": 67,
                    "time": 63.725350000000006,
                    "velocity": 0.47244094488188976,
                    "duration": 0.06535933333333332
                },
                {
                    "name": "B4",
                    "midi": 71,
                    "time": 63.725350000000006,
                    "velocity": 0.47244094488188976,
                    "duration": 0.06535933333333332
                },
                {
                    "name": "C4",
                    "midi": 60,
                    "time": 64.117506,
                    "velocity": 0.47244094488188976,
                    "duration": 0.06535933333333332
                },
                {
                    "name": "F#4",
                    "midi": 66,
                    "time": 64.117506,
                    "velocity": 0.47244094488188976,
                    "duration": 0.06535933333333332
                },
                {
                    "name": "A4",
                    "midi": 69,
                    "time": 64.117506,
                    "velocity": 0.47244094488188976,
                    "duration": 0.06535933333333332
                },
                {
                    "name": "B3",
                    "midi": 59,
                    "time": 64.313584,
                    "velocity": 0.5905511811023622,
                    "duration": 0.7843119999999999
                },
                {
                    "name": "G4",
                    "midi": 67,
                    "time": 64.313584,
                    "velocity": 0.5905511811023622,
                    "duration": 0.7843119999999999
                },
                {
                    "name": "A3",
                    "midi": 57,
                    "time": 65.097896,
                    "velocity": 0.5905511811023622,
                    "duration": 0.7843119999999999
                },
                {
                    "name": "F#4",
                    "midi": 66,
                    "time": 65.097896,
                    "velocity": 0.5905511811023622,
                    "duration": 0.7843119999999999
                },
                {
                    "name": "B3",
                    "midi": 59,
                    "time": 65.882208,
                    "velocity": 0.5905511811023622,
                    "duration": 0.7843119999999999
                },
                {
                    "name": "G4",
                    "midi": 67,
                    "time": 65.882208,
                    "velocity": 0.5905511811023622,
                    "duration": 0.7843119999999999
                },
                {
                    "name": "A3",
                    "midi": 57,
                    "time": 66.66652,
                    "velocity": 0.5905511811023622,
                    "duration": 0.7843119999999999
                },
                {
                    "name": "F#4",
                    "midi": 66,
                    "time": 66.66652,
                    "velocity": 0.5905511811023622,
                    "duration": 0.7843119999999999
                },
                {
                    "name": "B3",
                    "midi": 59,
                    "time": 67.450832,
                    "velocity": 0.5905511811023622,
                    "duration": 0.7843119999999999
                },
                {
                    "name": "G4",
                    "midi": 67,
                    "time": 67.450832,
                    "velocity": 0.5905511811023622,
                    "duration": 0.7843119999999999
                },
                {
                    "name": "A3",
                    "midi": 57,
                    "time": 68.235144,
                    "velocity": 0.5905511811023622,
                    "duration": 0.7843119999999999
                },
                {
                    "name": "F#4",
                    "midi": 66,
                    "time": 68.235144,
                    "velocity": 0.5905511811023622,
                    "duration": 0.7843119999999999
                },
                {
                    "name": "B3",
                    "midi": 59,
                    "time": 69.019456,
                    "velocity": 0.5905511811023622,
                    "duration": 0.39215599999999995
                },
                {
                    "name": "G4",
                    "midi": 67,
                    "time": 69.019456,
                    "velocity": 0.5905511811023622,
                    "duration": 0.39215599999999995
                },
                {
                    "name": "A3",
                    "midi": 57,
                    "time": 69.411612,
                    "velocity": 0.5905511811023622,
                    "duration": 0.39215599999999995
                },
                {
                    "name": "F#4",
                    "midi": 66,
                    "time": 69.411612,
                    "velocity": 0.5905511811023622,
                    "duration": 0.39215599999999995
                },
                {
                    "name": "B3",
                    "midi": 59,
                    "time": 69.803768,
                    "velocity": 0.5905511811023622,
                    "duration": 0.06535933333333332
                },
                {
                    "name": "D4",
                    "midi": 62,
                    "time": 69.803768,
                    "velocity": 0.5905511811023622,
                    "duration": 0.06535933333333332
                },
                {
                    "name": "G4",
                    "midi": 67,
                    "time": 69.803768,
                    "velocity": 0.5905511811023622,
                    "duration": 0.06535933333333332
                },
                {
                    "name": "C4",
                    "midi": 60,
                    "time": 70.392002,
                    "velocity": 0.5905511811023622,
                    "duration": 0.06535933333333332
                },
                {
                    "name": "D4",
                    "midi": 62,
                    "time": 70.392002,
                    "velocity": 0.5905511811023622,
                    "duration": 0.06535933333333332
                },
                {
                    "name": "F#4",
                    "midi": 66,
                    "time": 70.392002,
                    "velocity": 0.5905511811023622,
                    "duration": 0.06535933333333332
                },
                {
                    "name": "A4",
                    "midi": 69,
                    "time": 70.392002,
                    "velocity": 0.5905511811023622,
                    "duration": 0.06535933333333332
                },
                {
                    "name": "B3",
                    "midi": 59,
                    "time": 70.58808,
                    "velocity": 0.5905511811023622,
                    "duration": 0.06535933333333332
                },
                {
                    "name": "D4",
                    "midi": 62,
                    "time": 70.58808,
                    "velocity": 0.5905511811023622,
                    "duration": 0.06535933333333332
                },
                {
                    "name": "G4",
                    "midi": 67,
                    "time": 70.58808,
                    "velocity": 0.5905511811023622,
                    "duration": 0.06535933333333332
                },
                {
                    "name": "B3",
                    "midi": 59,
                    "time": 70.784158,
                    "velocity": 0.5905511811023622,
                    "duration": 0.06535933333333332
                },
                {
                    "name": "D4",
                    "midi": 62,
                    "time": 70.784158,
                    "velocity": 0.5905511811023622,
                    "duration": 0.06535933333333332
                },
                {
                    "name": "G4",
                    "midi": 67,
                    "time": 70.784158,
                    "velocity": 0.5905511811023622,
                    "duration": 0.06535933333333332
                },
                {
                    "name": "C3",
                    "midi": 48,
                    "time": 72.156704,
                    "velocity": 0.5905511811023622,
                    "duration": 0.3267966666666666
                },
                {
                    "name": "F3",
                    "midi": 53,
                    "time": 72.156704,
                    "velocity": 0.5905511811023622,
                    "duration": 0.3267966666666666
                },
                {
                    "name": "A3",
                    "midi": 57,
                    "time": 72.156704,
                    "velocity": 0.5905511811023622,
                    "duration": 0.3267966666666666
                },
                {
                    "name": "C4",
                    "midi": 60,
                    "time": 72.156704,
                    "velocity": 0.5905511811023622,
                    "duration": 0.3267966666666666
                },
                {
                    "name": "F4",
                    "midi": 65,
                    "time": 72.156704,
                    "velocity": 0.5905511811023622,
                    "duration": 0.3267966666666666
                },
                {
                    "name": "A4",
                    "midi": 69,
                    "time": 72.156704,
                    "velocity": 0.5905511811023622,
                    "duration": 0.3267966666666666
                },
                {
                    "name": "D3",
                    "midi": 50,
                    "time": 73.725328,
                    "velocity": 0.5905511811023622,
                    "duration": 0.3267966666666666
                },
                {
                    "name": "F3",
                    "midi": 53,
                    "time": 73.725328,
                    "velocity": 0.5905511811023622,
                    "duration": 0.3267966666666666
                },
                {
                    "name": "A3",
                    "midi": 57,
                    "time": 73.725328,
                    "velocity": 0.5905511811023622,
                    "duration": 0.3267966666666666
                },
                {
                    "name": "D4",
                    "midi": 62,
                    "time": 73.725328,
                    "velocity": 0.5905511811023622,
                    "duration": 0.3267966666666666
                },
                {
                    "name": "F4",
                    "midi": 65,
                    "time": 73.725328,
                    "velocity": 0.5905511811023622,
                    "duration": 0.3267966666666666
                },
                {
                    "name": "A4",
                    "midi": 69,
                    "time": 73.725328,
                    "velocity": 0.5905511811023622,
                    "duration": 0.3267966666666666
                },
                {
                    "name": "E3",
                    "midi": 52,
                    "time": 75.293952,
                    "velocity": 0.5905511811023622,
                    "duration": 0.3267966666666666
                },
                {
                    "name": "G#3",
                    "midi": 56,
                    "time": 75.293952,
                    "velocity": 0.5905511811023622,
                    "duration": 0.3267966666666666
                },
                {
                    "name": "B3",
                    "midi": 59,
                    "time": 75.293952,
                    "velocity": 0.5905511811023622,
                    "duration": 0.3267966666666666
                },
                {
                    "name": "E4",
                    "midi": 64,
                    "time": 75.293952,
                    "velocity": 0.5905511811023622,
                    "duration": 0.3267966666666666
                },
                {
                    "name": "G#4",
                    "midi": 68,
                    "time": 75.293952,
                    "velocity": 0.5905511811023622,
                    "duration": 0.3267966666666666
                },
                {
                    "name": "A3",
                    "midi": 57,
                    "time": 77.842966,
                    "velocity": 0.5905511811023622,
                    "duration": 0.06535933333333332
                },
                {
                    "name": "C4",
                    "midi": 60,
                    "time": 77.842966,
                    "velocity": 0.5905511811023622,
                    "duration": 0.06535933333333332
                },
                {
                    "name": "E4",
                    "midi": 64,
                    "time": 77.842966,
                    "velocity": 0.5905511811023622,
                    "duration": 0.06535933333333332
                },
                {
                    "name": "A3",
                    "midi": 57,
                    "time": 78.235122,
                    "velocity": 0.5905511811023622,
                    "duration": 0.06535933333333332
                },
                {
                    "name": "C4",
                    "midi": 60,
                    "time": 78.235122,
                    "velocity": 0.5905511811023622,
                    "duration": 0.06535933333333332
                },
                {
                    "name": "E4",
                    "midi": 64,
                    "time": 78.235122,
                    "velocity": 0.5905511811023622,
                    "duration": 0.06535933333333332
                },
                {
                    "name": "G#3",
                    "midi": 56,
                    "time": 78.627278,
                    "velocity": 0.5905511811023622,
                    "duration": 0.06535933333333332
                },
                {
                    "name": "B3",
                    "midi": 59,
                    "time": 78.627278,
                    "velocity": 0.5905511811023622,
                    "duration": 0.06535933333333332
                },
                {
                    "name": "E4",
                    "midi": 64,
                    "time": 78.627278,
                    "velocity": 0.5905511811023622,
                    "duration": 0.06535933333333332
                },
                {
                    "name": "G#3",
                    "midi": 56,
                    "time": 79.019434,
                    "velocity": 0.5905511811023622,
                    "duration": 0.06535933333333332
                },
                {
                    "name": "B3",
                    "midi": 59,
                    "time": 79.019434,
                    "velocity": 0.5905511811023622,
                    "duration": 0.06535933333333332
                },
                {
                    "name": "E4",
                    "midi": 64,
                    "time": 79.019434,
                    "velocity": 0.5905511811023622,
                    "duration": 0.06535933333333332
                },
                {
                    "name": "G#3",
                    "midi": 56,
                    "time": 79.41159,
                    "velocity": 0.5905511811023622,
                    "duration": 0.06535933333333332
                },
                {
                    "name": "B3",
                    "midi": 59,
                    "time": 79.41159,
                    "velocity": 0.5905511811023622,
                    "duration": 0.06535933333333332
                },
                {
                    "name": "E4",
                    "midi": 64,
                    "time": 79.41159,
                    "velocity": 0.5905511811023622,
                    "duration": 0.06535933333333332
                },
                {
                    "name": "G#3",
                    "midi": 56,
                    "time": 79.803746,
                    "velocity": 0.5905511811023622,
                    "duration": 0.06535933333333332
                },
                {
                    "name": "B3",
                    "midi": 59,
                    "time": 79.803746,
                    "velocity": 0.5905511811023622,
                    "duration": 0.06535933333333332
                },
                {
                    "name": "E4",
                    "midi": 64,
                    "time": 79.803746,
                    "velocity": 0.5905511811023622,
                    "duration": 0.06535933333333332
                },
                {
                    "name": "A3",
                    "midi": 57,
                    "time": 80.195902,
                    "velocity": 0.5905511811023622,
                    "duration": 0.06535933333333332
                },
                {
                    "name": "C4",
                    "midi": 60,
                    "time": 80.195902,
                    "velocity": 0.5905511811023622,
                    "duration": 0.06535933333333332
                },
                {
                    "name": "E4",
                    "midi": 64,
                    "time": 80.195902,
                    "velocity": 0.5905511811023622,
                    "duration": 0.06535933333333332
                },
                {
                    "name": "A3",
                    "midi": 57,
                    "time": 80.588058,
                    "velocity": 0.5905511811023622,
                    "duration": 0.06535933333333332
                },
                {
                    "name": "C4",
                    "midi": 60,
                    "time": 80.588058,
                    "velocity": 0.5905511811023622,
                    "duration": 0.06535933333333332
                },
                {
                    "name": "E4",
                    "midi": 64,
                    "time": 80.588058,
                    "velocity": 0.5905511811023622,
                    "duration": 0.06535933333333332
                },
                {
                    "name": "G3",
                    "midi": 55,
                    "time": 80.980214,
                    "velocity": 0.5905511811023622,
                    "duration": 0.06535933333333332
                },
                {
                    "name": "C4",
                    "midi": 60,
                    "time": 80.980214,
                    "velocity": 0.5905511811023622,
                    "duration": 0.06535933333333332
                },
                {
                    "name": "E4",
                    "midi": 64,
                    "time": 80.980214,
                    "velocity": 0.5905511811023622,
                    "duration": 0.06535933333333332
                },
                {
                    "name": "G3",
                    "midi": 55,
                    "time": 81.37237,
                    "velocity": 0.5905511811023622,
                    "duration": 0.06535933333333332
                },
                {
                    "name": "C4",
                    "midi": 60,
                    "time": 81.37237,
                    "velocity": 0.5905511811023622,
                    "duration": 0.06535933333333332
                },
                {
                    "name": "E4",
                    "midi": 64,
                    "time": 81.37237,
                    "velocity": 0.5905511811023622,
                    "duration": 0.06535933333333332
                },
                {
                    "name": "B3",
                    "midi": 59,
                    "time": 81.764526,
                    "velocity": 0.5905511811023622,
                    "duration": 0.06535933333333332
                },
                {
                    "name": "D4",
                    "midi": 62,
                    "time": 81.764526,
                    "velocity": 0.5905511811023622,
                    "duration": 0.06535933333333332
                },
                {
                    "name": "F4",
                    "midi": 65,
                    "time": 81.764526,
                    "velocity": 0.5905511811023622,
                    "duration": 0.06535933333333332
                },
                {
                    "name": "B3",
                    "midi": 59,
                    "time": 82.156682,
                    "velocity": 0.5905511811023622,
                    "duration": 0.06535933333333332
                },
                {
                    "name": "D4",
                    "midi": 62,
                    "time": 82.156682,
                    "velocity": 0.5905511811023622,
                    "duration": 0.06535933333333332
                },
                {
                    "name": "F4",
                    "midi": 65,
                    "time": 82.156682,
                    "velocity": 0.5905511811023622,
                    "duration": 0.06535933333333332
                },
                {
                    "name": "B3",
                    "midi": 59,
                    "time": 82.548838,
                    "velocity": 0.5905511811023622,
                    "duration": 0.06535933333333332
                },
                {
                    "name": "D4",
                    "midi": 62,
                    "time": 82.548838,
                    "velocity": 0.5905511811023622,
                    "duration": 0.06535933333333332
                },
                {
                    "name": "F4",
                    "midi": 65,
                    "time": 82.548838,
                    "velocity": 0.5905511811023622,
                    "duration": 0.06535933333333332
                },
                {
                    "name": "B3",
                    "midi": 59,
                    "time": 82.940994,
                    "velocity": 0.5905511811023622,
                    "duration": 0.06535933333333332
                },
                {
                    "name": "D4",
                    "midi": 62,
                    "time": 82.940994,
                    "velocity": 0.5905511811023622,
                    "duration": 0.06535933333333332
                },
                {
                    "name": "F4",
                    "midi": 65,
                    "time": 82.940994,
                    "velocity": 0.5905511811023622,
                    "duration": 0.06535933333333332
                },
                {
                    "name": "C4",
                    "midi": 60,
                    "time": 83.33315,
                    "velocity": 0.5905511811023622,
                    "duration": 0.06535933333333332
                },
                {
                    "name": "E4",
                    "midi": 64,
                    "time": 83.33315,
                    "velocity": 0.5905511811023622,
                    "duration": 0.06535933333333332
                },
                {
                    "name": "G4",
                    "midi": 67,
                    "time": 83.33315,
                    "velocity": 0.5905511811023622,
                    "duration": 0.06535933333333332
                },
                {
                    "name": "C4",
                    "midi": 60,
                    "time": 83.725306,
                    "velocity": 0.5905511811023622,
                    "duration": 0.06535933333333332
                },
                {
                    "name": "E4",
                    "midi": 64,
                    "time": 83.725306,
                    "velocity": 0.5905511811023622,
                    "duration": 0.06535933333333332
                },
                {
                    "name": "G4",
                    "midi": 67,
                    "time": 83.725306,
                    "velocity": 0.5905511811023622,
                    "duration": 0.06535933333333332
                },
                {
                    "name": "B3",
                    "midi": 59,
                    "time": 84.117462,
                    "velocity": 0.5905511811023622,
                    "duration": 0.06535933333333332
                },
                {
                    "name": "E4",
                    "midi": 64,
                    "time": 84.117462,
                    "velocity": 0.5905511811023622,
                    "duration": 0.06535933333333332
                },
                {
                    "name": "G4",
                    "midi": 67,
                    "time": 84.117462,
                    "velocity": 0.5905511811023622,
                    "duration": 0.06535933333333332
                },
                {
                    "name": "B3",
                    "midi": 59,
                    "time": 84.509618,
                    "velocity": 0.5905511811023622,
                    "duration": 0.06535933333333332
                },
                {
                    "name": "E4",
                    "midi": 64,
                    "time": 84.509618,
                    "velocity": 0.5905511811023622,
                    "duration": 0.06535933333333332
                },
                {
                    "name": "G4",
                    "midi": 67,
                    "time": 84.509618,
                    "velocity": 0.5905511811023622,
                    "duration": 0.06535933333333332
                },
                {
                    "name": "B3",
                    "midi": 59,
                    "time": 84.901774,
                    "velocity": 0.5905511811023622,
                    "duration": 0.06535933333333332
                },
                {
                    "name": "D#4",
                    "midi": 63,
                    "time": 84.901774,
                    "velocity": 0.5905511811023622,
                    "duration": 0.06535933333333332
                },
                {
                    "name": "F#4",
                    "midi": 66,
                    "time": 84.901774,
                    "velocity": 0.5905511811023622,
                    "duration": 0.06535933333333332
                },
                {
                    "name": "B3",
                    "midi": 59,
                    "time": 85.29393,
                    "velocity": 0.5905511811023622,
                    "duration": 0.06535933333333332
                },
                {
                    "name": "D#4",
                    "midi": 63,
                    "time": 85.29393,
                    "velocity": 0.5905511811023622,
                    "duration": 0.06535933333333332
                },
                {
                    "name": "F#4",
                    "midi": 66,
                    "time": 85.29393,
                    "velocity": 0.5905511811023622,
                    "duration": 0.06535933333333332
                },
                {
                    "name": "B3",
                    "midi": 59,
                    "time": 85.686086,
                    "velocity": 0.5905511811023622,
                    "duration": 0.06535933333333332
                },
                {
                    "name": "D#4",
                    "midi": 63,
                    "time": 85.686086,
                    "velocity": 0.5905511811023622,
                    "duration": 0.06535933333333332
                },
                {
                    "name": "F#4",
                    "midi": 66,
                    "time": 85.686086,
                    "velocity": 0.5905511811023622,
                    "duration": 0.06535933333333332
                },
                {
                    "name": "B3",
                    "midi": 59,
                    "time": 86.078242,
                    "velocity": 0.5905511811023622,
                    "duration": 0.06535933333333332
                },
                {
                    "name": "D#4",
                    "midi": 63,
                    "time": 86.078242,
                    "velocity": 0.5905511811023622,
                    "duration": 0.06535933333333332
                },
                {
                    "name": "F#4",
                    "midi": 66,
                    "time": 86.078242,
                    "velocity": 0.5905511811023622,
                    "duration": 0.06535933333333332
                },
                {
                    "name": "B3",
                    "midi": 59,
                    "time": 86.470398,
                    "velocity": 0.5905511811023622,
                    "duration": 0.06535933333333332
                },
                {
                    "name": "E4",
                    "midi": 64,
                    "time": 86.470398,
                    "velocity": 0.5905511811023622,
                    "duration": 0.06535933333333332
                },
                {
                    "name": "G4",
                    "midi": 67,
                    "time": 86.470398,
                    "velocity": 0.5905511811023622,
                    "duration": 0.06535933333333332
                },
                {
                    "name": "B3",
                    "midi": 59,
                    "time": 86.862554,
                    "velocity": 0.5905511811023622,
                    "duration": 0.06535933333333332
                },
                {
                    "name": "E4",
                    "midi": 64,
                    "time": 86.862554,
                    "velocity": 0.5905511811023622,
                    "duration": 0.06535933333333332
                },
                {
                    "name": "G4",
                    "midi": 67,
                    "time": 86.862554,
                    "velocity": 0.5905511811023622,
                    "duration": 0.06535933333333332
                },
                {
                    "name": "A3",
                    "midi": 57,
                    "time": 87.25471,
                    "velocity": 0.5905511811023622,
                    "duration": 0.06535933333333332
                },
                {
                    "name": "C4",
                    "midi": 60,
                    "time": 87.25471,
                    "velocity": 0.5905511811023622,
                    "duration": 0.06535933333333332
                },
                {
                    "name": "E4",
                    "midi": 64,
                    "time": 87.25471,
                    "velocity": 0.5905511811023622,
                    "duration": 0.06535933333333332
                },
                {
                    "name": "A3",
                    "midi": 57,
                    "time": 87.646866,
                    "velocity": 0.5905511811023622,
                    "duration": 0.06535933333333332
                },
                {
                    "name": "C4",
                    "midi": 60,
                    "time": 87.646866,
                    "velocity": 0.5905511811023622,
                    "duration": 0.06535933333333332
                },
                {
                    "name": "E4",
                    "midi": 64,
                    "time": 87.646866,
                    "velocity": 0.5905511811023622,
                    "duration": 0.06535933333333332
                },
                {
                    "name": "G3",
                    "midi": 55,
                    "time": 88.039022,
                    "velocity": 0.5905511811023622,
                    "duration": 0.06535933333333332
                },
                {
                    "name": "B3",
                    "midi": 59,
                    "time": 88.039022,
                    "velocity": 0.5905511811023622,
                    "duration": 0.06535933333333332
                },
                {
                    "name": "E4",
                    "midi": 64,
                    "time": 88.039022,
                    "velocity": 0.5905511811023622,
                    "duration": 0.06535933333333332
                },
                {
                    "name": "G3",
                    "midi": 55,
                    "time": 88.431178,
                    "velocity": 0.5905511811023622,
                    "duration": 0.06535933333333332
                },
                {
                    "name": "B3",
                    "midi": 59,
                    "time": 88.431178,
                    "velocity": 0.5905511811023622,
                    "duration": 0.06535933333333332
                },
                {
                    "name": "E4",
                    "midi": 64,
                    "time": 88.431178,
                    "velocity": 0.5905511811023622,
                    "duration": 0.06535933333333332
                },
                {
                    "name": "B3",
                    "midi": 59,
                    "time": 88.823334,
                    "velocity": 0.5905511811023622,
                    "duration": 0.06535933333333332
                },
                {
                    "name": "D#4",
                    "midi": 63,
                    "time": 88.823334,
                    "velocity": 0.5905511811023622,
                    "duration": 0.06535933333333332
                },
                {
                    "name": "F#4",
                    "midi": 66,
                    "time": 88.823334,
                    "velocity": 0.5905511811023622,
                    "duration": 0.06535933333333332
                },
                {
                    "name": "B3",
                    "midi": 59,
                    "time": 89.21549,
                    "velocity": 0.5905511811023622,
                    "duration": 0.06535933333333332
                },
                {
                    "name": "D#4",
                    "midi": 63,
                    "time": 89.21549,
                    "velocity": 0.5905511811023622,
                    "duration": 0.06535933333333332
                },
                {
                    "name": "F#4",
                    "midi": 66,
                    "time": 89.21549,
                    "velocity": 0.5905511811023622,
                    "duration": 0.06535933333333332
                },
                {
                    "name": "B3",
                    "midi": 59,
                    "time": 89.607646,
                    "velocity": 0.5905511811023622,
                    "duration": 0.06535933333333332
                },
                {
                    "name": "E4",
                    "midi": 64,
                    "time": 89.607646,
                    "velocity": 0.5905511811023622,
                    "duration": 0.06535933333333332
                },
                {
                    "name": "G#4",
                    "midi": 68,
                    "time": 89.607646,
                    "velocity": 0.5905511811023622,
                    "duration": 0.06535933333333332
                },
                {
                    "name": "B3",
                    "midi": 59,
                    "time": 89.999802,
                    "velocity": 0.5905511811023622,
                    "duration": 0.06535933333333332
                },
                {
                    "name": "E4",
                    "midi": 64,
                    "time": 89.999802,
                    "velocity": 0.5905511811023622,
                    "duration": 0.06535933333333332
                },
                {
                    "name": "G#4",
                    "midi": 68,
                    "time": 89.999802,
                    "velocity": 0.5905511811023622,
                    "duration": 0.06535933333333332
                },
                {
                    "name": "C#4",
                    "midi": 61,
                    "time": 90.391958,
                    "velocity": 0.5905511811023622,
                    "duration": 0.06535933333333332
                },
                {
                    "name": "E4",
                    "midi": 64,
                    "time": 90.391958,
                    "velocity": 0.5905511811023622,
                    "duration": 0.06535933333333332
                },
                {
                    "name": "G4",
                    "midi": 67,
                    "time": 90.391958,
                    "velocity": 0.5905511811023622,
                    "duration": 0.06535933333333332
                },
                {
                    "name": "C#4",
                    "midi": 61,
                    "time": 90.784114,
                    "velocity": 0.5905511811023622,
                    "duration": 0.06535933333333332
                },
                {
                    "name": "E4",
                    "midi": 64,
                    "time": 90.784114,
                    "velocity": 0.5905511811023622,
                    "duration": 0.06535933333333332
                },
                {
                    "name": "G4",
                    "midi": 67,
                    "time": 90.784114,
                    "velocity": 0.5905511811023622,
                    "duration": 0.06535933333333332
                },
                {
                    "name": "A3",
                    "midi": 57,
                    "time": 91.17627,
                    "velocity": 0.5905511811023622,
                    "duration": 0.06535933333333332
                },
                {
                    "name": "D4",
                    "midi": 62,
                    "time": 91.17627,
                    "velocity": 0.5905511811023622,
                    "duration": 0.06535933333333332
                },
                {
                    "name": "F#4",
                    "midi": 66,
                    "time": 91.17627,
                    "velocity": 0.5905511811023622,
                    "duration": 0.06535933333333332
                },
                {
                    "name": "A3",
                    "midi": 57,
                    "time": 91.568426,
                    "velocity": 0.5905511811023622,
                    "duration": 0.06535933333333332
                },
                {
                    "name": "D4",
                    "midi": 62,
                    "time": 91.568426,
                    "velocity": 0.5905511811023622,
                    "duration": 0.06535933333333332
                },
                {
                    "name": "F#4",
                    "midi": 66,
                    "time": 91.568426,
                    "velocity": 0.5905511811023622,
                    "duration": 0.06535933333333332
                },
                {
                    "name": "B3",
                    "midi": 59,
                    "time": 91.960582,
                    "velocity": 0.5905511811023622,
                    "duration": 0.06535933333333332
                },
                {
                    "name": "D4",
                    "midi": 62,
                    "time": 91.960582,
                    "velocity": 0.5905511811023622,
                    "duration": 0.06535933333333332
                },
                {
                    "name": "F4",
                    "midi": 65,
                    "time": 91.960582,
                    "velocity": 0.5905511811023622,
                    "duration": 0.06535933333333332
                },
                {
                    "name": "B3",
                    "midi": 59,
                    "time": 92.352738,
                    "velocity": 0.5905511811023622,
                    "duration": 0.06535933333333332
                },
                {
                    "name": "D4",
                    "midi": 62,
                    "time": 92.352738,
                    "velocity": 0.5905511811023622,
                    "duration": 0.06535933333333332
                },
                {
                    "name": "F4",
                    "midi": 65,
                    "time": 92.352738,
                    "velocity": 0.5905511811023622,
                    "duration": 0.06535933333333332
                },
                {
                    "name": "G3",
                    "midi": 55,
                    "time": 92.744894,
                    "velocity": 0.5905511811023622,
                    "duration": 0.06535933333333332
                },
                {
                    "name": "A3",
                    "midi": 57,
                    "time": 92.744894,
                    "velocity": 0.5905511811023622,
                    "duration": 0.06535933333333332
                },
                {
                    "name": "E4",
                    "midi": 64,
                    "time": 92.744894,
                    "velocity": 0.5905511811023622,
                    "duration": 0.06535933333333332
                },
                {
                    "name": "G3",
                    "midi": 55,
                    "time": 93.13705,
                    "velocity": 0.5905511811023622,
                    "duration": 0.06535933333333332
                },
                {
                    "name": "A3",
                    "midi": 57,
                    "time": 93.13705,
                    "velocity": 0.5905511811023622,
                    "duration": 0.06535933333333332
                },
                {
                    "name": "E4",
                    "midi": 64,
                    "time": 93.13705,
                    "velocity": 0.5905511811023622,
                    "duration": 0.06535933333333332
                },
                {
                    "name": "A3",
                    "midi": 57,
                    "time": 93.529206,
                    "velocity": 0.5905511811023622,
                    "duration": 0.06535933333333332
                },
                {
                    "name": "C4",
                    "midi": 60,
                    "time": 93.529206,
                    "velocity": 0.5905511811023622,
                    "duration": 0.06535933333333332
                },
                {
                    "name": "F4",
                    "midi": 65,
                    "time": 93.529206,
                    "velocity": 0.5905511811023622,
                    "duration": 0.06535933333333332
                },
                {
                    "name": "A3",
                    "midi": 57,
                    "time": 93.921362,
                    "velocity": 0.5905511811023622,
                    "duration": 0.06535933333333332
                },
                {
                    "name": "C4",
                    "midi": 60,
                    "time": 93.921362,
                    "velocity": 0.5905511811023622,
                    "duration": 0.06535933333333332
                },
                {
                    "name": "F4",
                    "midi": 65,
                    "time": 93.921362,
                    "velocity": 0.5905511811023622,
                    "duration": 0.06535933333333332
                },
                {
                    "name": "A3",
                    "midi": 57,
                    "time": 94.313518,
                    "velocity": 0.5905511811023622,
                    "duration": 0.06535933333333332
                },
                {
                    "name": "D4",
                    "midi": 62,
                    "time": 94.313518,
                    "velocity": 0.5905511811023622,
                    "duration": 0.06535933333333332
                },
                {
                    "name": "F4",
                    "midi": 65,
                    "time": 94.313518,
                    "velocity": 0.5905511811023622,
                    "duration": 0.06535933333333332
                },
                {
                    "name": "A3",
                    "midi": 57,
                    "time": 94.705674,
                    "velocity": 0.5905511811023622,
                    "duration": 0.06535933333333332
                },
                {
                    "name": "D4",
                    "midi": 62,
                    "time": 94.705674,
                    "velocity": 0.5905511811023622,
                    "duration": 0.06535933333333332
                },
                {
                    "name": "F4",
                    "midi": 65,
                    "time": 94.705674,
                    "velocity": 0.5905511811023622,
                    "duration": 0.06535933333333332
                },
                {
                    "name": "C4",
                    "midi": 60,
                    "time": 94.901752,
                    "velocity": 0.5905511811023622,
                    "duration": 0.39215599999999995
                },
                {
                    "name": "A4",
                    "midi": 69,
                    "time": 94.901752,
                    "velocity": 0.5905511811023622,
                    "duration": 0.39215599999999995
                },
                {
                    "name": "C5",
                    "midi": 72,
                    "time": 94.901752,
                    "velocity": 0.5905511811023622,
                    "duration": 0.39215599999999995
                },
                {
                    "name": "A#3",
                    "midi": 58,
                    "time": 95.293908,
                    "velocity": 0.5905511811023622,
                    "duration": 0.39215599999999995
                },
                {
                    "name": "G4",
                    "midi": 67,
                    "time": 95.293908,
                    "velocity": 0.5905511811023622,
                    "duration": 0.39215599999999995
                },
                {
                    "name": "A#4",
                    "midi": 70,
                    "time": 95.293908,
                    "velocity": 0.5905511811023622,
                    "duration": 0.39215599999999995
                },
                {
                    "name": "A3",
                    "midi": 57,
                    "time": 95.686064,
                    "velocity": 0.5905511811023622,
                    "duration": 0.1919930416666631
                },
                {
                    "name": "F4",
                    "midi": 65,
                    "time": 95.686064,
                    "velocity": 0.5905511811023622,
                    "duration": 0.1919930416666631
                },
                {
                    "name": "A4",
                    "midi": 69,
                    "time": 95.686064,
                    "velocity": 0.5905511811023622,
                    "duration": 0.1919930416666631
                },
                {
                    "name": "G#3",
                    "midi": 56,
                    "time": 109.019368,
                    "velocity": 0.5905511811023622,
                    "duration": 0.06535933333333332
                },
                {
                    "name": "B3",
                    "midi": 59,
                    "time": 109.019368,
                    "velocity": 0.5905511811023622,
                    "duration": 0.06535933333333332
                },
                {
                    "name": "E4",
                    "midi": 64,
                    "time": 109.019368,
                    "velocity": 0.5905511811023622,
                    "duration": 0.06535933333333332
                },
                {
                    "name": "G#3",
                    "midi": 56,
                    "time": 109.411524,
                    "velocity": 0.5905511811023622,
                    "duration": 0.06535933333333332
                },
                {
                    "name": "B3",
                    "midi": 59,
                    "time": 109.411524,
                    "velocity": 0.5905511811023622,
                    "duration": 0.06535933333333332
                },
                {
                    "name": "E4",
                    "midi": 64,
                    "time": 109.411524,
                    "velocity": 0.5905511811023622,
                    "duration": 0.06535933333333332
                },
                {
                    "name": "A3",
                    "midi": 57,
                    "time": 109.80368,
                    "velocity": 0.5905511811023622,
                    "duration": 0.06535933333333332
                },
                {
                    "name": "C4",
                    "midi": 60,
                    "time": 109.80368,
                    "velocity": 0.5905511811023622,
                    "duration": 0.06535933333333332
                },
                {
                    "name": "E4",
                    "midi": 64,
                    "time": 109.80368,
                    "velocity": 0.5905511811023622,
                    "duration": 0.06535933333333332
                },
                {
                    "name": "A3",
                    "midi": 57,
                    "time": 110.587992,
                    "velocity": 0.5905511811023622,
                    "duration": 0.06535933333333332
                },
                {
                    "name": "C4",
                    "midi": 60,
                    "time": 110.587992,
                    "velocity": 0.5905511811023622,
                    "duration": 0.06535933333333332
                },
                {
                    "name": "E4",
                    "midi": 64,
                    "time": 110.587992,
                    "velocity": 0.5905511811023622,
                    "duration": 0.06535933333333332
                },
                {
                    "name": "G#3",
                    "midi": 56,
                    "time": 111.372304,
                    "velocity": 0.5905511811023622,
                    "duration": 0.06535933333333332
                },
                {
                    "name": "B3",
                    "midi": 59,
                    "time": 111.372304,
                    "velocity": 0.5905511811023622,
                    "duration": 0.06535933333333332
                },
                {
                    "name": "E4",
                    "midi": 64,
                    "time": 111.372304,
                    "velocity": 0.5905511811023622,
                    "duration": 0.06535933333333332
                },
                {
                    "name": "B3",
                    "midi": 59,
                    "time": 112.156616,
                    "velocity": 0.5905511811023622,
                    "duration": 0.06535933333333332
                },
                {
                    "name": "E4",
                    "midi": 64,
                    "time": 112.156616,
                    "velocity": 0.5905511811023622,
                    "duration": 0.06535933333333332
                },
                {
                    "name": "G#4",
                    "midi": 68,
                    "time": 112.156616,
                    "velocity": 0.5905511811023622,
                    "duration": 0.06535933333333332
                },
                {
                    "name": "B3",
                    "midi": 59,
                    "time": 112.548772,
                    "velocity": 0.5905511811023622,
                    "duration": 0.06535933333333332
                },
                {
                    "name": "E4",
                    "midi": 64,
                    "time": 112.548772,
                    "velocity": 0.5905511811023622,
                    "duration": 0.06535933333333332
                },
                {
                    "name": "G#4",
                    "midi": 68,
                    "time": 112.548772,
                    "velocity": 0.5905511811023622,
                    "duration": 0.06535933333333332
                },
                {
                    "name": "C4",
                    "midi": 60,
                    "time": 112.940928,
                    "velocity": 0.5905511811023622,
                    "duration": 0.06535933333333332
                },
                {
                    "name": "E4",
                    "midi": 64,
                    "time": 112.940928,
                    "velocity": 0.5905511811023622,
                    "duration": 0.06535933333333332
                },
                {
                    "name": "A4",
                    "midi": 69,
                    "time": 112.940928,
                    "velocity": 0.5905511811023622,
                    "duration": 0.06535933333333332
                },
                {
                    "name": "C4",
                    "midi": 60,
                    "time": 113.72524,
                    "velocity": 0.5905511811023622,
                    "duration": 0.06535933333333332
                },
                {
                    "name": "E4",
                    "midi": 64,
                    "time": 113.72524,
                    "velocity": 0.5905511811023622,
                    "duration": 0.06535933333333332
                },
                {
                    "name": "A4",
                    "midi": 69,
                    "time": 113.72524,
                    "velocity": 0.5905511811023622,
                    "duration": 0.06535933333333332
                },
                {
                    "name": "E3",
                    "midi": 52,
                    "time": 114.509552,
                    "velocity": 0.5905511811023622,
                    "duration": 0.39215599999999995
                },
                {
                    "name": "G#3",
                    "midi": 56,
                    "time": 114.509552,
                    "velocity": 0.5905511811023622,
                    "duration": 0.39215599999999995
                },
                {
                    "name": "B3",
                    "midi": 59,
                    "time": 114.509552,
                    "velocity": 0.5905511811023622,
                    "duration": 0.39215599999999995
                },
                {
                    "name": "E3",
                    "midi": 52,
                    "time": 114.901708,
                    "velocity": 0.5905511811023622,
                    "duration": 0.39215599999999995
                },
                {
                    "name": "G#3",
                    "midi": 56,
                    "time": 114.901708,
                    "velocity": 0.5905511811023622,
                    "duration": 0.39215599999999995
                },
                {
                    "name": "B3",
                    "midi": 59,
                    "time": 114.901708,
                    "velocity": 0.5905511811023622,
                    "duration": 0.39215599999999995
                },
                {
                    "name": "E3",
                    "midi": 52,
                    "time": 115.293864,
                    "velocity": 0.5905511811023622,
                    "duration": 0.39215599999999995
                },
                {
                    "name": "A3",
                    "midi": 57,
                    "time": 115.293864,
                    "velocity": 0.5905511811023622,
                    "duration": 0.39215599999999995
                },
                {
                    "name": "C4",
                    "midi": 60,
                    "time": 115.293864,
                    "velocity": 0.5905511811023622,
                    "duration": 0.39215599999999995
                },
                {
                    "name": "E3",
                    "midi": 52,
                    "time": 115.68602,
                    "velocity": 0.5905511811023622,
                    "duration": 0.39215599999999995
                },
                {
                    "name": "G#3",
                    "midi": 56,
                    "time": 115.68602,
                    "velocity": 0.5905511811023622,
                    "duration": 0.39215599999999995
                },
                {
                    "name": "B3",
                    "midi": 59,
                    "time": 115.68602,
                    "velocity": 0.5905511811023622,
                    "duration": 0.39215599999999995
                },
                {
                    "name": "E3",
                    "midi": 52,
                    "time": 116.078176,
                    "velocity": 0.5905511811023622,
                    "duration": 0.39215599999999995
                },
                {
                    "name": "A3",
                    "midi": 57,
                    "time": 116.078176,
                    "velocity": 0.5905511811023622,
                    "duration": 0.39215599999999995
                },
                {
                    "name": "C4",
                    "midi": 60,
                    "time": 116.078176,
                    "velocity": 0.5905511811023622,
                    "duration": 0.39215599999999995
                },
                {
                    "name": "E3",
                    "midi": 52,
                    "time": 116.470332,
                    "velocity": 0.5905511811023622,
                    "duration": 0.39215599999999995
                },
                {
                    "name": "A3",
                    "midi": 57,
                    "time": 116.470332,
                    "velocity": 0.5905511811023622,
                    "duration": 0.39215599999999995
                },
                {
                    "name": "C#4",
                    "midi": 61,
                    "time": 116.470332,
                    "velocity": 0.5905511811023622,
                    "duration": 0.39215599999999995
                },
                {
                    "name": "F3",
                    "midi": 53,
                    "time": 116.862488,
                    "velocity": 0.5905511811023622,
                    "duration": 0.39215599999999995
                },
                {
                    "name": "A3",
                    "midi": 57,
                    "time": 116.862488,
                    "velocity": 0.5905511811023622,
                    "duration": 0.39215599999999995
                },
                {
                    "name": "D4",
                    "midi": 62,
                    "time": 116.862488,
                    "velocity": 0.5905511811023622,
                    "duration": 0.39215599999999995
                },
                {
                    "name": "A3",
                    "midi": 57,
                    "time": 117.254644,
                    "velocity": 0.5905511811023622,
                    "duration": 0.39215599999999995
                },
                {
                    "name": "C4",
                    "midi": 60,
                    "time": 117.254644,
                    "velocity": 0.5905511811023622,
                    "duration": 0.39215599999999995
                },
                {
                    "name": "E4",
                    "midi": 64,
                    "time": 117.254644,
                    "velocity": 0.5905511811023622,
                    "duration": 0.39215599999999995
                },
                {
                    "name": "A3",
                    "midi": 57,
                    "time": 117.6468,
                    "velocity": 0.5905511811023622,
                    "duration": 0.1919930416666631
                },
                {
                    "name": "D4",
                    "midi": 62,
                    "time": 117.6468,
                    "velocity": 0.5905511811023622,
                    "duration": 0.1919930416666631
                },
                {
                    "name": "F4",
                    "midi": 65,
                    "time": 117.6468,
                    "velocity": 0.5905511811023622,
                    "duration": 0.1919930416666631
                },
                {
                    "name": "A#3",
                    "midi": 58,
                    "time": 118.431112,
                    "velocity": 0.5905511811023622,
                    "duration": 0.3267966666666666
                },
                {
                    "name": "D4",
                    "midi": 62,
                    "time": 118.431112,
                    "velocity": 0.5905511811023622,
                    "duration": 0.3267966666666666
                },
                {
                    "name": "F4",
                    "midi": 65,
                    "time": 118.431112,
                    "velocity": 0.5905511811023622,
                    "duration": 0.3267966666666666
                },
                {
                    "name": "A3",
                    "midi": 57,
                    "time": 119.215424,
                    "velocity": 0.5905511811023622,
                    "duration": 0.3267966666666666
                },
                {
                    "name": "C4",
                    "midi": 60,
                    "time": 119.215424,
                    "velocity": 0.5905511811023622,
                    "duration": 0.3267966666666666
                },
                {
                    "name": "E4",
                    "midi": 64,
                    "time": 119.215424,
                    "velocity": 0.5905511811023622,
                    "duration": 0.3267966666666666
                },
                {
                    "name": "B3",
                    "midi": 59,
                    "time": 119.999736,
                    "velocity": 0.5905511811023622,
                    "duration": 0.3267966666666666
                },
                {
                    "name": "D4",
                    "midi": 62,
                    "time": 119.999736,
                    "velocity": 0.5905511811023622,
                    "duration": 0.3267966666666666
                },
                {
                    "name": "E4",
                    "midi": 64,
                    "time": 119.999736,
                    "velocity": 0.5905511811023622,
                    "duration": 0.3267966666666666
                },
                {
                    "name": "G#4",
                    "midi": 68,
                    "time": 119.999736,
                    "velocity": 0.5905511811023622,
                    "duration": 0.3267966666666666
                },
                {
                    "name": "G3",
                    "midi": 55,
                    "time": 127.646778,
                    "velocity": 0.47244094488188976,
                    "duration": 0.06535933333333332
                },
                {
                    "name": "B3",
                    "midi": 59,
                    "time": 127.646778,
                    "velocity": 0.47244094488188976,
                    "duration": 0.06535933333333332
                },
                {
                    "name": "D4",
                    "midi": 62,
                    "time": 127.646778,
                    "velocity": 0.47244094488188976,
                    "duration": 0.06535933333333332
                },
                {
                    "name": "A3",
                    "midi": 57,
                    "time": 128.038934,
                    "velocity": 0.47244094488188976,
                    "duration": 0.06535933333333332
                },
                {
                    "name": "C4",
                    "midi": 60,
                    "time": 128.038934,
                    "velocity": 0.47244094488188976,
                    "duration": 0.06535933333333332
                },
                {
                    "name": "E4",
                    "midi": 64,
                    "time": 128.038934,
                    "velocity": 0.47244094488188976,
                    "duration": 0.06535933333333332
                },
                {
                    "name": "G#3",
                    "midi": 56,
                    "time": 128.43109,
                    "velocity": 0.47244094488188976,
                    "duration": 0.06535933333333332
                },
                {
                    "name": "B3",
                    "midi": 59,
                    "time": 128.43109,
                    "velocity": 0.47244094488188976,
                    "duration": 0.06535933333333332
                },
                {
                    "name": "E4",
                    "midi": 64,
                    "time": 128.43109,
                    "velocity": 0.47244094488188976,
                    "duration": 0.06535933333333332
                },
                {
                    "name": "A3",
                    "midi": 57,
                    "time": 128.823246,
                    "velocity": 0.47244094488188976,
                    "duration": 0.06535933333333332
                },
                {
                    "name": "C4",
                    "midi": 60,
                    "time": 128.823246,
                    "velocity": 0.47244094488188976,
                    "duration": 0.06535933333333332
                },
                {
                    "name": "E4",
                    "midi": 64,
                    "time": 128.823246,
                    "velocity": 0.47244094488188976,
                    "duration": 0.06535933333333332
                },
                {
                    "name": "A3",
                    "midi": 57,
                    "time": 129.215402,
                    "velocity": 0.47244094488188976,
                    "duration": 0.06535933333333332
                },
                {
                    "name": "C#4",
                    "midi": 61,
                    "time": 129.215402,
                    "velocity": 0.47244094488188976,
                    "duration": 0.06535933333333332
                },
                {
                    "name": "E4",
                    "midi": 64,
                    "time": 129.215402,
                    "velocity": 0.47244094488188976,
                    "duration": 0.06535933333333332
                },
                {
                    "name": "A3",
                    "midi": 57,
                    "time": 129.607558,
                    "velocity": 0.47244094488188976,
                    "duration": 0.06535933333333332
                },
                {
                    "name": "D4",
                    "midi": 62,
                    "time": 129.607558,
                    "velocity": 0.47244094488188976,
                    "duration": 0.06535933333333332
                },
                {
                    "name": "F4",
                    "midi": 65,
                    "time": 129.607558,
                    "velocity": 0.47244094488188976,
                    "duration": 0.06535933333333332
                },
                {
                    "name": "A3",
                    "midi": 57,
                    "time": 129.999714,
                    "velocity": 0.47244094488188976,
                    "duration": 0.06535933333333332
                },
                {
                    "name": "C4",
                    "midi": 60,
                    "time": 129.999714,
                    "velocity": 0.47244094488188976,
                    "duration": 0.06535933333333332
                },
                {
                    "name": "E4",
                    "midi": 64,
                    "time": 129.999714,
                    "velocity": 0.47244094488188976,
                    "duration": 0.06535933333333332
                },
                {
                    "name": "A3",
                    "midi": 57,
                    "time": 130.195792,
                    "velocity": 0.47244094488188976,
                    "duration": 0.06535933333333332
                },
                {
                    "name": "D4",
                    "midi": 62,
                    "time": 130.195792,
                    "velocity": 0.47244094488188976,
                    "duration": 0.06535933333333332
                },
                {
                    "name": "F4",
                    "midi": 65,
                    "time": 130.195792,
                    "velocity": 0.47244094488188976,
                    "duration": 0.06535933333333332
                },
                {
                    "name": "A#3",
                    "midi": 58,
                    "time": 130.980104,
                    "velocity": 0.47244094488188976,
                    "duration": 0.3267966666666666
                },
                {
                    "name": "D4",
                    "midi": 62,
                    "time": 130.980104,
                    "velocity": 0.47244094488188976,
                    "duration": 0.3267966666666666
                },
                {
                    "name": "F4",
                    "midi": 65,
                    "time": 130.980104,
                    "velocity": 0.47244094488188976,
                    "duration": 0.3267966666666666
                },
                {
                    "name": "A3",
                    "midi": 57,
                    "time": 131.764416,
                    "velocity": 0.47244094488188976,
                    "duration": 0.3267966666666666
                },
                {
                    "name": "C4",
                    "midi": 60,
                    "time": 131.764416,
                    "velocity": 0.47244094488188976,
                    "duration": 0.3267966666666666
                },
                {
                    "name": "D#4",
                    "midi": 63,
                    "time": 131.764416,
                    "velocity": 0.47244094488188976,
                    "duration": 0.3267966666666666
                },
                {
                    "name": "F#4",
                    "midi": 66,
                    "time": 131.764416,
                    "velocity": 0.47244094488188976,
                    "duration": 0.3267966666666666
                },
                {
                    "name": "A3",
                    "midi": 57,
                    "time": 132.548728,
                    "velocity": 0.47244094488188976,
                    "duration": 0.3267966666666666
                },
                {
                    "name": "C4",
                    "midi": 60,
                    "time": 132.548728,
                    "velocity": 0.47244094488188976,
                    "duration": 0.3267966666666666
                },
                {
                    "name": "D#4",
                    "midi": 63,
                    "time": 132.548728,
                    "velocity": 0.47244094488188976,
                    "duration": 0.3267966666666666
                },
                {
                    "name": "F#4",
                    "midi": 66,
                    "time": 132.548728,
                    "velocity": 0.47244094488188976,
                    "duration": 0.3267966666666666
                },
                {
                    "name": "A3",
                    "midi": 57,
                    "time": 133.33304,
                    "velocity": 0.47244094488188976,
                    "duration": 0.3267966666666666
                },
                {
                    "name": "C4",
                    "midi": 60,
                    "time": 133.33304,
                    "velocity": 0.47244094488188976,
                    "duration": 0.3267966666666666
                },
                {
                    "name": "E4",
                    "midi": 64,
                    "time": 133.33304,
                    "velocity": 0.47244094488188976,
                    "duration": 0.3267966666666666
                },
                {
                    "name": "E3",
                    "midi": 52,
                    "time": 134.901664,
                    "velocity": 0.47244094488188976,
                    "duration": 0.3267966666666666
                },
                {
                    "name": "A3",
                    "midi": 57,
                    "time": 134.901664,
                    "velocity": 0.47244094488188976,
                    "duration": 0.3267966666666666
                },
                {
                    "name": "C4",
                    "midi": 60,
                    "time": 134.901664,
                    "velocity": 0.47244094488188976,
                    "duration": 0.3267966666666666
                },
                {
                    "name": "E4",
                    "midi": 64,
                    "time": 134.901664,
                    "velocity": 0.47244094488188976,
                    "duration": 0.3267966666666666
                },
                {
                    "name": "A4",
                    "midi": 69,
                    "time": 134.901664,
                    "velocity": 0.47244094488188976,
                    "duration": 0.3267966666666666
                },
                {
                    "name": "E3",
                    "midi": 52,
                    "time": 136.470288,
                    "velocity": 0.47244094488188976,
                    "duration": 0.3267966666666666
                },
                {
                    "name": "A3",
                    "midi": 57,
                    "time": 136.470288,
                    "velocity": 0.47244094488188976,
                    "duration": 0.3267966666666666
                },
                {
                    "name": "C4",
                    "midi": 60,
                    "time": 136.470288,
                    "velocity": 0.47244094488188976,
                    "duration": 0.3267966666666666
                },
                {
                    "name": "E4",
                    "midi": 64,
                    "time": 136.470288,
                    "velocity": 0.47244094488188976,
                    "duration": 0.3267966666666666
                },
                {
                    "name": "A4",
                    "midi": 69,
                    "time": 136.470288,
                    "velocity": 0.47244094488188976,
                    "duration": 0.3267966666666666
                },
                {
                    "name": "E3",
                    "midi": 52,
                    "time": 138.038912,
                    "velocity": 0.47244094488188976,
                    "duration": 0.3267966666666666
                },
                {
                    "name": "A3",
                    "midi": 57,
                    "time": 138.038912,
                    "velocity": 0.47244094488188976,
                    "duration": 0.3267966666666666
                },
                {
                    "name": "B3",
                    "midi": 59,
                    "time": 138.038912,
                    "velocity": 0.47244094488188976,
                    "duration": 0.3267966666666666
                },
                {
                    "name": "E4",
                    "midi": 64,
                    "time": 138.038912,
                    "velocity": 0.47244094488188976,
                    "duration": 0.3267966666666666
                },
                {
                    "name": "A4",
                    "midi": 69,
                    "time": 138.038912,
                    "velocity": 0.47244094488188976,
                    "duration": 0.3267966666666666
                },
                {
                    "name": "E3",
                    "midi": 52,
                    "time": 138.823224,
                    "velocity": 0.47244094488188976,
                    "duration": 0.3267966666666666
                },
                {
                    "name": "G#3",
                    "midi": 56,
                    "time": 138.823224,
                    "velocity": 0.47244094488188976,
                    "duration": 0.3267966666666666
                },
                {
                    "name": "B3",
                    "midi": 59,
                    "time": 138.823224,
                    "velocity": 0.47244094488188976,
                    "duration": 0.3267966666666666
                },
                {
                    "name": "E4",
                    "midi": 64,
                    "time": 138.823224,
                    "velocity": 0.47244094488188976,
                    "duration": 0.3267966666666666
                },
                {
                    "name": "G#4",
                    "midi": 68,
                    "time": 138.823224,
                    "velocity": 0.47244094488188976,
                    "duration": 0.3267966666666666
                },
                {
                    "name": "C4",
                    "midi": 60,
                    "time": 153.725152,
                    "velocity": 0.5905511811023622,
                    "duration": 1.5686239999999998
                },
                {
                    "name": "D#4",
                    "midi": 63,
                    "time": 153.725152,
                    "velocity": 0.5905511811023622,
                    "duration": 1.5686239999999998
                },
                {
                    "name": "B3",
                    "midi": 59,
                    "time": 155.293776,
                    "velocity": 0.5905511811023622,
                    "duration": 0.3267966666666666
                },
                {
                    "name": "D4",
                    "midi": 62,
                    "time": 155.293776,
                    "velocity": 0.5905511811023622,
                    "duration": 0.3267966666666666
                },
                {
                    "name": "C4",
                    "midi": 60,
                    "time": 156.8624,
                    "velocity": 0.5905511811023622,
                    "duration": 1.5686239999999998
                },
                {
                    "name": "D#4",
                    "midi": 63,
                    "time": 156.8624,
                    "velocity": 0.5905511811023622,
                    "duration": 1.5686239999999998
                },
                {
                    "name": "B3",
                    "midi": 59,
                    "time": 158.431024,
                    "velocity": 0.5905511811023622,
                    "duration": 0.39215599999999995
                },
                {
                    "name": "D4",
                    "midi": 62,
                    "time": 158.431024,
                    "velocity": 0.5905511811023622,
                    "duration": 0.39215599999999995
                },
                {
                    "name": "C4",
                    "midi": 60,
                    "time": 158.82318,
                    "velocity": 0.5905511811023622,
                    "duration": 0.39215599999999995
                },
                {
                    "name": "D#4",
                    "midi": 63,
                    "time": 158.82318,
                    "velocity": 0.5905511811023622,
                    "duration": 0.39215599999999995
                },
                {
                    "name": "B3",
                    "midi": 59,
                    "time": 159.215336,
                    "velocity": 0.5905511811023622,
                    "duration": 0.39215599999999995
                },
                {
                    "name": "D4",
                    "midi": 62,
                    "time": 159.215336,
                    "velocity": 0.5905511811023622,
                    "duration": 0.39215599999999995
                },
                {
                    "name": "C4",
                    "midi": 60,
                    "time": 159.607492,
                    "velocity": 0.5905511811023622,
                    "duration": 0.39215599999999995
                },
                {
                    "name": "D#4",
                    "midi": 63,
                    "time": 159.607492,
                    "velocity": 0.5905511811023622,
                    "duration": 0.39215599999999995
                },
                {
                    "name": "B3",
                    "midi": 59,
                    "time": 159.999648,
                    "velocity": 0.5905511811023622,
                    "duration": 0.39215599999999995
                },
                {
                    "name": "D4",
                    "midi": 62,
                    "time": 159.999648,
                    "velocity": 0.5905511811023622,
                    "duration": 0.39215599999999995
                },
                {
                    "name": "C4",
                    "midi": 60,
                    "time": 160.391804,
                    "velocity": 0.5905511811023622,
                    "duration": 0.39215599999999995
                },
                {
                    "name": "D#4",
                    "midi": 63,
                    "time": 160.391804,
                    "velocity": 0.5905511811023622,
                    "duration": 0.39215599999999995
                },
                {
                    "name": "B3",
                    "midi": 59,
                    "time": 160.78396,
                    "velocity": 0.5905511811023622,
                    "duration": 0.39215599999999995
                },
                {
                    "name": "D4",
                    "midi": 62,
                    "time": 160.78396,
                    "velocity": 0.5905511811023622,
                    "duration": 0.39215599999999995
                },
                {
                    "name": "C4",
                    "midi": 60,
                    "time": 161.176116,
                    "velocity": 0.5905511811023622,
                    "duration": 0.39215599999999995
                },
                {
                    "name": "D#4",
                    "midi": 63,
                    "time": 161.176116,
                    "velocity": 0.5905511811023622,
                    "duration": 0.39215599999999995
                },
                {
                    "name": "B3",
                    "midi": 59,
                    "time": 161.568272,
                    "velocity": 0.5905511811023622,
                    "duration": 0.3267966666666666
                },
                {
                    "name": "D4",
                    "midi": 62,
                    "time": 161.568272,
                    "velocity": 0.5905511811023622,
                    "duration": 0.3267966666666666
                },
                {
                    "name": "C4",
                    "midi": 60,
                    "time": 163.136896,
                    "velocity": 0.5905511811023622,
                    "duration": 0.3267966666666666
                },
                {
                    "name": "F4",
                    "midi": 65,
                    "time": 163.136896,
                    "velocity": 0.5905511811023622,
                    "duration": 0.3267966666666666
                },
                {
                    "name": "A4",
                    "midi": 69,
                    "time": 163.136896,
                    "velocity": 0.5905511811023622,
                    "duration": 0.3267966666666666
                },
                {
                    "name": "G3",
                    "midi": 55,
                    "time": 164.70552,
                    "velocity": 0.5905511811023622,
                    "duration": 0.3267966666666666
                },
                {
                    "name": "B3",
                    "midi": 59,
                    "time": 164.70552,
                    "velocity": 0.5905511811023622,
                    "duration": 0.3267966666666666
                },
                {
                    "name": "D4",
                    "midi": 62,
                    "time": 164.70552,
                    "velocity": 0.5905511811023622,
                    "duration": 0.3267966666666666
                },
                {
                    "name": "F4",
                    "midi": 65,
                    "time": 164.70552,
                    "velocity": 0.5905511811023622,
                    "duration": 0.3267966666666666
                },
                {
                    "name": "G3",
                    "midi": 55,
                    "time": 168.823158,
                    "velocity": 0.47244094488188976,
                    "duration": 0.06535933333333332
                },
                {
                    "name": "C4",
                    "midi": 60,
                    "time": 168.823158,
                    "velocity": 0.47244094488188976,
                    "duration": 0.06535933333333332
                },
                {
                    "name": "E4",
                    "midi": 64,
                    "time": 168.823158,
                    "velocity": 0.47244094488188976,
                    "duration": 0.06535933333333332
                },
                {
                    "name": "G3",
                    "midi": 55,
                    "time": 169.215314,
                    "velocity": 0.47244094488188976,
                    "duration": 0.06535933333333332
                },
                {
                    "name": "C4",
                    "midi": 60,
                    "time": 169.215314,
                    "velocity": 0.47244094488188976,
                    "duration": 0.06535933333333332
                },
                {
                    "name": "E4",
                    "midi": 64,
                    "time": 169.215314,
                    "velocity": 0.47244094488188976,
                    "duration": 0.06535933333333332
                },
                {
                    "name": "B3",
                    "midi": 59,
                    "time": 169.60747,
                    "velocity": 0.47244094488188976,
                    "duration": 0.06535933333333332
                },
                {
                    "name": "D4",
                    "midi": 62,
                    "time": 169.60747,
                    "velocity": 0.47244094488188976,
                    "duration": 0.06535933333333332
                },
                {
                    "name": "F4",
                    "midi": 65,
                    "time": 169.60747,
                    "velocity": 0.47244094488188976,
                    "duration": 0.06535933333333332
                },
                {
                    "name": "B3",
                    "midi": 59,
                    "time": 169.999626,
                    "velocity": 0.47244094488188976,
                    "duration": 0.06535933333333332
                },
                {
                    "name": "D4",
                    "midi": 62,
                    "time": 169.999626,
                    "velocity": 0.47244094488188976,
                    "duration": 0.06535933333333332
                },
                {
                    "name": "F4",
                    "midi": 65,
                    "time": 169.999626,
                    "velocity": 0.47244094488188976,
                    "duration": 0.06535933333333332
                },
                {
                    "name": "B3",
                    "midi": 59,
                    "time": 170.391782,
                    "velocity": 0.47244094488188976,
                    "duration": 0.06535933333333332
                },
                {
                    "name": "D4",
                    "midi": 62,
                    "time": 170.391782,
                    "velocity": 0.47244094488188976,
                    "duration": 0.06535933333333332
                },
                {
                    "name": "F4",
                    "midi": 65,
                    "time": 170.391782,
                    "velocity": 0.47244094488188976,
                    "duration": 0.06535933333333332
                },
                {
                    "name": "B3",
                    "midi": 59,
                    "time": 170.783938,
                    "velocity": 0.47244094488188976,
                    "duration": 0.06535933333333332
                },
                {
                    "name": "D4",
                    "midi": 62,
                    "time": 170.783938,
                    "velocity": 0.47244094488188976,
                    "duration": 0.06535933333333332
                },
                {
                    "name": "F4",
                    "midi": 65,
                    "time": 170.783938,
                    "velocity": 0.47244094488188976,
                    "duration": 0.06535933333333332
                },
                {
                    "name": "G3",
                    "midi": 55,
                    "time": 171.176094,
                    "velocity": 0.47244094488188976,
                    "duration": 0.06535933333333332
                },
                {
                    "name": "C4",
                    "midi": 60,
                    "time": 171.176094,
                    "velocity": 0.47244094488188976,
                    "duration": 0.06535933333333332
                },
                {
                    "name": "E4",
                    "midi": 64,
                    "time": 171.176094,
                    "velocity": 0.47244094488188976,
                    "duration": 0.06535933333333332
                },
                {
                    "name": "G3",
                    "midi": 55,
                    "time": 171.56825,
                    "velocity": 0.47244094488188976,
                    "duration": 0.06535933333333332
                },
                {
                    "name": "C4",
                    "midi": 60,
                    "time": 171.56825,
                    "velocity": 0.47244094488188976,
                    "duration": 0.06535933333333332
                },
                {
                    "name": "E4",
                    "midi": 64,
                    "time": 171.56825,
                    "velocity": 0.47244094488188976,
                    "duration": 0.06535933333333332
                },
                {
                    "name": "A3",
                    "midi": 57,
                    "time": 171.960406,
                    "velocity": 0.47244094488188976,
                    "duration": 0.06535933333333332
                },
                {
                    "name": "C#4",
                    "midi": 61,
                    "time": 171.960406,
                    "velocity": 0.47244094488188976,
                    "duration": 0.06535933333333332
                },
                {
                    "name": "E4",
                    "midi": 64,
                    "time": 171.960406,
                    "velocity": 0.47244094488188976,
                    "duration": 0.06535933333333332
                },
                {
                    "name": "A3",
                    "midi": 57,
                    "time": 172.352562,
                    "velocity": 0.47244094488188976,
                    "duration": 0.06535933333333332
                },
                {
                    "name": "C#4",
                    "midi": 61,
                    "time": 172.352562,
                    "velocity": 0.47244094488188976,
                    "duration": 0.06535933333333332
                },
                {
                    "name": "E4",
                    "midi": 64,
                    "time": 172.352562,
                    "velocity": 0.47244094488188976,
                    "duration": 0.06535933333333332
                },
                {
                    "name": "B3",
                    "midi": 59,
                    "time": 172.54864,
                    "velocity": 0.47244094488188976,
                    "duration": 0.7843119999999999
                },
                {
                    "name": "D4",
                    "midi": 62,
                    "time": 172.54864,
                    "velocity": 0.47244094488188976,
                    "duration": 0.7843119999999999
                },
                {
                    "name": "F4",
                    "midi": 65,
                    "time": 172.54864,
                    "velocity": 0.47244094488188976,
                    "duration": 0.7843119999999999
                },
                {
                    "name": "C4",
                    "midi": 60,
                    "time": 173.332952,
                    "velocity": 0.47244094488188976,
                    "duration": 0.39215599999999995
                },
                {
                    "name": "E4",
                    "midi": 64,
                    "time": 173.332952,
                    "velocity": 0.47244094488188976,
                    "duration": 0.39215599999999995
                },
                {
                    "name": "G4",
                    "midi": 67,
                    "time": 173.332952,
                    "velocity": 0.47244094488188976,
                    "duration": 0.39215599999999995
                },
                {
                    "name": "C4",
                    "midi": 60,
                    "time": 173.725108,
                    "velocity": 0.47244094488188976,
                    "duration": 0.39215599999999995
                },
                {
                    "name": "D4",
                    "midi": 62,
                    "time": 173.725108,
                    "velocity": 0.47244094488188976,
                    "duration": 0.39215599999999995
                },
                {
                    "name": "F#4",
                    "midi": 66,
                    "time": 173.725108,
                    "velocity": 0.47244094488188976,
                    "duration": 0.39215599999999995
                },
                {
                    "name": "B3",
                    "midi": 59,
                    "time": 174.117264,
                    "velocity": 0.47244094488188976,
                    "duration": 0.1919930416666773
                },
                {
                    "name": "D4",
                    "midi": 62,
                    "time": 174.117264,
                    "velocity": 0.47244094488188976,
                    "duration": 0.1919930416666773
                },
                {
                    "name": "G4",
                    "midi": 67,
                    "time": 174.117264,
                    "velocity": 0.47244094488188976,
                    "duration": 0.1919930416666773
                },
                {
                    "name": "G3",
                    "midi": 55,
                    "time": 175.097654,
                    "velocity": 0.47244094488188976,
                    "duration": 0.06535933333333332
                },
                {
                    "name": "C4",
                    "midi": 60,
                    "time": 175.097654,
                    "velocity": 0.47244094488188976,
                    "duration": 0.06535933333333332
                },
                {
                    "name": "E4",
                    "midi": 64,
                    "time": 175.097654,
                    "velocity": 0.47244094488188976,
                    "duration": 0.06535933333333332
                },
                {
                    "name": "G3",
                    "midi": 55,
                    "time": 175.48981,
                    "velocity": 0.47244094488188976,
                    "duration": 0.06535933333333332
                },
                {
                    "name": "C4",
                    "midi": 60,
                    "time": 175.48981,
                    "velocity": 0.47244094488188976,
                    "duration": 0.06535933333333332
                },
                {
                    "name": "E4",
                    "midi": 64,
                    "time": 175.48981,
                    "velocity": 0.47244094488188976,
                    "duration": 0.06535933333333332
                },
                {
                    "name": "B3",
                    "midi": 59,
                    "time": 175.881966,
                    "velocity": 0.47244094488188976,
                    "duration": 0.06535933333333332
                },
                {
                    "name": "D4",
                    "midi": 62,
                    "time": 175.881966,
                    "velocity": 0.47244094488188976,
                    "duration": 0.06535933333333332
                },
                {
                    "name": "F4",
                    "midi": 65,
                    "time": 175.881966,
                    "velocity": 0.47244094488188976,
                    "duration": 0.06535933333333332
                },
                {
                    "name": "B3",
                    "midi": 59,
                    "time": 176.274122,
                    "velocity": 0.47244094488188976,
                    "duration": 0.06535933333333332
                },
                {
                    "name": "D4",
                    "midi": 62,
                    "time": 176.274122,
                    "velocity": 0.47244094488188976,
                    "duration": 0.06535933333333332
                },
                {
                    "name": "F4",
                    "midi": 65,
                    "time": 176.274122,
                    "velocity": 0.47244094488188976,
                    "duration": 0.06535933333333332
                },
                {
                    "name": "B3",
                    "midi": 59,
                    "time": 176.666278,
                    "velocity": 0.47244094488188976,
                    "duration": 0.06535933333333332
                },
                {
                    "name": "D4",
                    "midi": 62,
                    "time": 176.666278,
                    "velocity": 0.47244094488188976,
                    "duration": 0.06535933333333332
                },
                {
                    "name": "F4",
                    "midi": 65,
                    "time": 176.666278,
                    "velocity": 0.47244094488188976,
                    "duration": 0.06535933333333332
                },
                {
                    "name": "B3",
                    "midi": 59,
                    "time": 177.058434,
                    "velocity": 0.47244094488188976,
                    "duration": 0.06535933333333332
                },
                {
                    "name": "D4",
                    "midi": 62,
                    "time": 177.058434,
                    "velocity": 0.47244094488188976,
                    "duration": 0.06535933333333332
                },
                {
                    "name": "F4",
                    "midi": 65,
                    "time": 177.058434,
                    "velocity": 0.47244094488188976,
                    "duration": 0.06535933333333332
                },
                {
                    "name": "C4",
                    "midi": 60,
                    "time": 177.45059,
                    "velocity": 0.47244094488188976,
                    "duration": 0.06535933333333332
                },
                {
                    "name": "E4",
                    "midi": 64,
                    "time": 177.45059,
                    "velocity": 0.47244094488188976,
                    "duration": 0.06535933333333332
                },
                {
                    "name": "G4",
                    "midi": 67,
                    "time": 177.45059,
                    "velocity": 0.47244094488188976,
                    "duration": 0.06535933333333332
                },
                {
                    "name": "C4",
                    "midi": 60,
                    "time": 177.842746,
                    "velocity": 0.47244094488188976,
                    "duration": 0.06535933333333332
                },
                {
                    "name": "E4",
                    "midi": 64,
                    "time": 177.842746,
                    "velocity": 0.47244094488188976,
                    "duration": 0.06535933333333332
                },
                {
                    "name": "G4",
                    "midi": 67,
                    "time": 177.842746,
                    "velocity": 0.47244094488188976,
                    "duration": 0.06535933333333332
                },
                {
                    "name": "C4",
                    "midi": 60,
                    "time": 178.234902,
                    "velocity": 0.47244094488188976,
                    "duration": 0.06535933333333332
                },
                {
                    "name": "E4",
                    "midi": 64,
                    "time": 178.234902,
                    "velocity": 0.47244094488188976,
                    "duration": 0.06535933333333332
                },
                {
                    "name": "G4",
                    "midi": 67,
                    "time": 178.234902,
                    "velocity": 0.47244094488188976,
                    "duration": 0.06535933333333332
                },
                {
                    "name": "C4",
                    "midi": 60,
                    "time": 178.627058,
                    "velocity": 0.47244094488188976,
                    "duration": 0.06535933333333332
                },
                {
                    "name": "E4",
                    "midi": 64,
                    "time": 178.627058,
                    "velocity": 0.47244094488188976,
                    "duration": 0.06535933333333332
                },
                {
                    "name": "G4",
                    "midi": 67,
                    "time": 178.627058,
                    "velocity": 0.47244094488188976,
                    "duration": 0.06535933333333332
                },
                {
                    "name": "A3",
                    "midi": 57,
                    "time": 179.019214,
                    "velocity": 0.47244094488188976,
                    "duration": 0.06535933333333332
                },
                {
                    "name": "C4",
                    "midi": 60,
                    "time": 179.019214,
                    "velocity": 0.47244094488188976,
                    "duration": 0.06535933333333332
                },
                {
                    "name": "F4",
                    "midi": 65,
                    "time": 179.019214,
                    "velocity": 0.47244094488188976,
                    "duration": 0.06535933333333332
                },
                {
                    "name": "A3",
                    "midi": 57,
                    "time": 179.41137,
                    "velocity": 0.47244094488188976,
                    "duration": 0.06535933333333332
                },
                {
                    "name": "C4",
                    "midi": 60,
                    "time": 179.41137,
                    "velocity": 0.47244094488188976,
                    "duration": 0.06535933333333332
                },
                {
                    "name": "F4",
                    "midi": 65,
                    "time": 179.41137,
                    "velocity": 0.47244094488188976,
                    "duration": 0.06535933333333332
                },
                {
                    "name": "A3",
                    "midi": 57,
                    "time": 179.803526,
                    "velocity": 0.47244094488188976,
                    "duration": 0.06535933333333332
                },
                {
                    "name": "C4",
                    "midi": 60,
                    "time": 179.803526,
                    "velocity": 0.47244094488188976,
                    "duration": 0.06535933333333332
                },
                {
                    "name": "D4",
                    "midi": 62,
                    "time": 179.803526,
                    "velocity": 0.47244094488188976,
                    "duration": 0.06535933333333332
                },
                {
                    "name": "F#4",
                    "midi": 66,
                    "time": 179.803526,
                    "velocity": 0.47244094488188976,
                    "duration": 0.06535933333333332
                },
                {
                    "name": "A3",
                    "midi": 57,
                    "time": 180.195682,
                    "velocity": 0.47244094488188976,
                    "duration": 0.06535933333333332
                },
                {
                    "name": "C4",
                    "midi": 60,
                    "time": 180.195682,
                    "velocity": 0.47244094488188976,
                    "duration": 0.06535933333333332
                },
                {
                    "name": "D4",
                    "midi": 62,
                    "time": 180.195682,
                    "velocity": 0.47244094488188976,
                    "duration": 0.06535933333333332
                },
                {
                    "name": "F#4",
                    "midi": 66,
                    "time": 180.195682,
                    "velocity": 0.47244094488188976,
                    "duration": 0.06535933333333332
                },
                {
                    "name": "B3",
                    "midi": 59,
                    "time": 180.587838,
                    "velocity": 0.47244094488188976,
                    "duration": 0.06535933333333332
                },
                {
                    "name": "D4",
                    "midi": 62,
                    "time": 180.587838,
                    "velocity": 0.47244094488188976,
                    "duration": 0.06535933333333332
                },
                {
                    "name": "G4",
                    "midi": 67,
                    "time": 180.587838,
                    "velocity": 0.47244094488188976,
                    "duration": 0.06535933333333332
                },
                {
                    "name": "B3",
                    "midi": 59,
                    "time": 180.979994,
                    "velocity": 0.47244094488188976,
                    "duration": 0.06535933333333332
                },
                {
                    "name": "D4",
                    "midi": 62,
                    "time": 180.979994,
                    "velocity": 0.47244094488188976,
                    "duration": 0.06535933333333332
                },
                {
                    "name": "G4",
                    "midi": 67,
                    "time": 180.979994,
                    "velocity": 0.47244094488188976,
                    "duration": 0.06535933333333332
                },
                {
                    "name": "B3",
                    "midi": 59,
                    "time": 181.37215,
                    "velocity": 0.47244094488188976,
                    "duration": 0.06535933333333332
                },
                {
                    "name": "D4",
                    "midi": 62,
                    "time": 181.37215,
                    "velocity": 0.47244094488188976,
                    "duration": 0.06535933333333332
                },
                {
                    "name": "F4",
                    "midi": 65,
                    "time": 181.37215,
                    "velocity": 0.47244094488188976,
                    "duration": 0.06535933333333332
                },
                {
                    "name": "G4",
                    "midi": 67,
                    "time": 181.37215,
                    "velocity": 0.47244094488188976,
                    "duration": 0.06535933333333332
                },
                {
                    "name": "B3",
                    "midi": 59,
                    "time": 181.764306,
                    "velocity": 0.47244094488188976,
                    "duration": 0.06535933333333332
                },
                {
                    "name": "D4",
                    "midi": 62,
                    "time": 181.764306,
                    "velocity": 0.47244094488188976,
                    "duration": 0.06535933333333332
                },
                {
                    "name": "F4",
                    "midi": 65,
                    "time": 181.764306,
                    "velocity": 0.47244094488188976,
                    "duration": 0.06535933333333332
                },
                {
                    "name": "G4",
                    "midi": 67,
                    "time": 181.764306,
                    "velocity": 0.47244094488188976,
                    "duration": 0.06535933333333332
                },
                {
                    "name": "C4",
                    "midi": 60,
                    "time": 181.960384,
                    "velocity": 0.47244094488188976,
                    "duration": 0.06535933333333332
                },
                {
                    "name": "E4",
                    "midi": 64,
                    "time": 181.960384,
                    "velocity": 0.47244094488188976,
                    "duration": 0.06535933333333332
                },
                {
                    "name": "G4",
                    "midi": 67,
                    "time": 181.960384,
                    "velocity": 0.47244094488188976,
                    "duration": 0.06535933333333332
                },
                {
                    "name": "E4",
                    "midi": 64,
                    "time": 182.35254,
                    "velocity": 0.47244094488188976,
                    "duration": 0.39215599999999995
                },
                {
                    "name": "G#4",
                    "midi": 68,
                    "time": 182.35254,
                    "velocity": 0.47244094488188976,
                    "duration": 0.39215599999999995
                },
                {
                    "name": "B4",
                    "midi": 71,
                    "time": 182.35254,
                    "velocity": 0.47244094488188976,
                    "duration": 0.39215599999999995
                },
                {
                    "name": "D5",
                    "midi": 74,
                    "time": 182.35254,
                    "velocity": 0.47244094488188976,
                    "duration": 0.39215599999999995
                },
                {
                    "name": "E4",
                    "midi": 64,
                    "time": 182.744696,
                    "velocity": 0.47244094488188976,
                    "duration": 0.39215599999999995
                },
                {
                    "name": "A4",
                    "midi": 69,
                    "time": 182.744696,
                    "velocity": 0.47244094488188976,
                    "duration": 0.39215599999999995
                },
                {
                    "name": "C5",
                    "midi": 72,
                    "time": 182.744696,
                    "velocity": 0.47244094488188976,
                    "duration": 0.39215599999999995
                },
                {
                    "name": "C4",
                    "midi": 60,
                    "time": 183.136852,
                    "velocity": 0.47244094488188976,
                    "duration": 0.39215599999999995
                },
                {
                    "name": "E4",
                    "midi": 64,
                    "time": 183.136852,
                    "velocity": 0.47244094488188976,
                    "duration": 0.39215599999999995
                },
                {
                    "name": "G4",
                    "midi": 67,
                    "time": 183.136852,
                    "velocity": 0.47244094488188976,
                    "duration": 0.39215599999999995
                },
                {
                    "name": "A#4",
                    "midi": 70,
                    "time": 183.136852,
                    "velocity": 0.47244094488188976,
                    "duration": 0.39215599999999995
                },
                {
                    "name": "C4",
                    "midi": 60,
                    "time": 183.529008,
                    "velocity": 0.47244094488188976,
                    "duration": 0.6862729999999999
                },
                {
                    "name": "F4",
                    "midi": 65,
                    "time": 183.529008,
                    "velocity": 0.47244094488188976,
                    "duration": 0.6862729999999999
                },
                {
                    "name": "A4",
                    "midi": 69,
                    "time": 183.529008,
                    "velocity": 0.47244094488188976,
                    "duration": 0.6862729999999999
                },
                {
                    "name": "A3",
                    "midi": 57,
                    "time": 184.509398,
                    "velocity": 0.47244094488188976,
                    "duration": 0.06535933333333332
                },
                {
                    "name": "C4",
                    "midi": 60,
                    "time": 184.509398,
                    "velocity": 0.47244094488188976,
                    "duration": 0.06535933333333332
                },
                {
                    "name": "D#4",
                    "midi": 63,
                    "time": 184.509398,
                    "velocity": 0.47244094488188976,
                    "duration": 0.06535933333333332
                },
                {
                    "name": "A3",
                    "midi": 57,
                    "time": 184.901554,
                    "velocity": 0.47244094488188976,
                    "duration": 0.06535933333333332
                },
                {
                    "name": "C4",
                    "midi": 60,
                    "time": 184.901554,
                    "velocity": 0.47244094488188976,
                    "duration": 0.06535933333333332
                },
                {
                    "name": "D#4",
                    "midi": 63,
                    "time": 184.901554,
                    "velocity": 0.47244094488188976,
                    "duration": 0.06535933333333332
                },
                {
                    "name": "G3",
                    "midi": 55,
                    "time": 185.29371,
                    "velocity": 0.47244094488188976,
                    "duration": 0.06535933333333332
                },
                {
                    "name": "C4",
                    "midi": 60,
                    "time": 185.29371,
                    "velocity": 0.47244094488188976,
                    "duration": 0.06535933333333332
                },
                {
                    "name": "E4",
                    "midi": 64,
                    "time": 185.29371,
                    "velocity": 0.47244094488188976,
                    "duration": 0.06535933333333332
                },
                {
                    "name": "G3",
                    "midi": 55,
                    "time": 185.685866,
                    "velocity": 0.47244094488188976,
                    "duration": 0.06535933333333332
                },
                {
                    "name": "C4",
                    "midi": 60,
                    "time": 185.685866,
                    "velocity": 0.47244094488188976,
                    "duration": 0.06535933333333332
                },
                {
                    "name": "E4",
                    "midi": 64,
                    "time": 185.685866,
                    "velocity": 0.47244094488188976,
                    "duration": 0.06535933333333332
                },
                {
                    "name": "B3",
                    "midi": 59,
                    "time": 186.078022,
                    "velocity": 0.47244094488188976,
                    "duration": 0.06535933333333332
                },
                {
                    "name": "D4",
                    "midi": 62,
                    "time": 186.078022,
                    "velocity": 0.47244094488188976,
                    "duration": 0.06535933333333332
                },
                {
                    "name": "F4",
                    "midi": 65,
                    "time": 186.078022,
                    "velocity": 0.47244094488188976,
                    "duration": 0.06535933333333332
                },
                {
                    "name": "B3",
                    "midi": 59,
                    "time": 186.470178,
                    "velocity": 0.47244094488188976,
                    "duration": 0.06535933333333332
                },
                {
                    "name": "D4",
                    "midi": 62,
                    "time": 186.470178,
                    "velocity": 0.47244094488188976,
                    "duration": 0.06535933333333332
                },
                {
                    "name": "F4",
                    "midi": 65,
                    "time": 186.470178,
                    "velocity": 0.47244094488188976,
                    "duration": 0.06535933333333332
                },
                {
                    "name": "G#3",
                    "midi": 56,
                    "time": 186.862334,
                    "velocity": 0.47244094488188976,
                    "duration": 0.06535933333333332
                },
                {
                    "name": "C4",
                    "midi": 60,
                    "time": 186.862334,
                    "velocity": 0.47244094488188976,
                    "duration": 0.06535933333333332
                },
                {
                    "name": "D#4",
                    "midi": 63,
                    "time": 186.862334,
                    "velocity": 0.47244094488188976,
                    "duration": 0.06535933333333332
                },
                {
                    "name": "G#3",
                    "midi": 56,
                    "time": 187.25449,
                    "velocity": 0.47244094488188976,
                    "duration": 0.06535933333333332
                },
                {
                    "name": "C4",
                    "midi": 60,
                    "time": 187.25449,
                    "velocity": 0.47244094488188976,
                    "duration": 0.06535933333333332
                },
                {
                    "name": "D#4",
                    "midi": 63,
                    "time": 187.25449,
                    "velocity": 0.47244094488188976,
                    "duration": 0.06535933333333332
                },
                {
                    "name": "E3",
                    "midi": 52,
                    "time": 187.646646,
                    "velocity": 0.47244094488188976,
                    "duration": 0.06535933333333332
                },
                {
                    "name": "G#3",
                    "midi": 56,
                    "time": 187.646646,
                    "velocity": 0.47244094488188976,
                    "duration": 0.06535933333333332
                },
                {
                    "name": "C4",
                    "midi": 60,
                    "time": 187.646646,
                    "velocity": 0.47244094488188976,
                    "duration": 0.06535933333333332
                },
                {
                    "name": "E3",
                    "midi": 52,
                    "time": 188.038802,
                    "velocity": 0.47244094488188976,
                    "duration": 0.06535933333333332
                },
                {
                    "name": "G#3",
                    "midi": 56,
                    "time": 188.038802,
                    "velocity": 0.47244094488188976,
                    "duration": 0.06535933333333332
                },
                {
                    "name": "C4",
                    "midi": 60,
                    "time": 188.038802,
                    "velocity": 0.47244094488188976,
                    "duration": 0.06535933333333332
                },
                {
                    "name": "D#3",
                    "midi": 51,
                    "time": 188.430958,
                    "velocity": 0.47244094488188976,
                    "duration": 0.06535933333333332
                },
                {
                    "name": "G3",
                    "midi": 55,
                    "time": 188.430958,
                    "velocity": 0.47244094488188976,
                    "duration": 0.06535933333333332
                },
                {
                    "name": "A#3",
                    "midi": 58,
                    "time": 188.430958,
                    "velocity": 0.47244094488188976,
                    "duration": 0.06535933333333332
                },
                {
                    "name": "C#4",
                    "midi": 61,
                    "time": 188.430958,
                    "velocity": 0.47244094488188976,
                    "duration": 0.06535933333333332
                },
                {
                    "name": "D#3",
                    "midi": 51,
                    "time": 188.823114,
                    "velocity": 0.47244094488188976,
                    "duration": 0.06535933333333332
                },
                {
                    "name": "G3",
                    "midi": 55,
                    "time": 188.823114,
                    "velocity": 0.47244094488188976,
                    "duration": 0.06535933333333332
                },
                {
                    "name": "A#3",
                    "midi": 58,
                    "time": 188.823114,
                    "velocity": 0.47244094488188976,
                    "duration": 0.06535933333333332
                },
                {
                    "name": "C#4",
                    "midi": 61,
                    "time": 188.823114,
                    "velocity": 0.47244094488188976,
                    "duration": 0.06535933333333332
                },
                {
                    "name": "D#3",
                    "midi": 51,
                    "time": 189.21527,
                    "velocity": 0.47244094488188976,
                    "duration": 0.06535933333333332
                },
                {
                    "name": "G3",
                    "midi": 55,
                    "time": 189.21527,
                    "velocity": 0.47244094488188976,
                    "duration": 0.06535933333333332
                },
                {
                    "name": "A#3",
                    "midi": 58,
                    "time": 189.21527,
                    "velocity": 0.47244094488188976,
                    "duration": 0.06535933333333332
                },
                {
                    "name": "C#4",
                    "midi": 61,
                    "time": 189.21527,
                    "velocity": 0.47244094488188976,
                    "duration": 0.06535933333333332
                },
                {
                    "name": "D#3",
                    "midi": 51,
                    "time": 189.607426,
                    "velocity": 0.47244094488188976,
                    "duration": 0.06535933333333332
                },
                {
                    "name": "G3",
                    "midi": 55,
                    "time": 189.607426,
                    "velocity": 0.47244094488188976,
                    "duration": 0.06535933333333332
                },
                {
                    "name": "A#3",
                    "midi": 58,
                    "time": 189.607426,
                    "velocity": 0.47244094488188976,
                    "duration": 0.06535933333333332
                },
                {
                    "name": "C#4",
                    "midi": 61,
                    "time": 189.607426,
                    "velocity": 0.47244094488188976,
                    "duration": 0.06535933333333332
                },
                {
                    "name": "D#3",
                    "midi": 51,
                    "time": 189.999582,
                    "velocity": 0.47244094488188976,
                    "duration": 0.06535933333333332
                },
                {
                    "name": "G#3",
                    "midi": 56,
                    "time": 189.999582,
                    "velocity": 0.47244094488188976,
                    "duration": 0.06535933333333332
                },
                {
                    "name": "C4",
                    "midi": 60,
                    "time": 189.999582,
                    "velocity": 0.47244094488188976,
                    "duration": 0.06535933333333332
                },
                {
                    "name": "D#3",
                    "midi": 51,
                    "time": 190.391738,
                    "velocity": 0.47244094488188976,
                    "duration": 0.06535933333333332
                },
                {
                    "name": "G#3",
                    "midi": 56,
                    "time": 190.391738,
                    "velocity": 0.47244094488188976,
                    "duration": 0.06535933333333332
                },
                {
                    "name": "C4",
                    "midi": 60,
                    "time": 190.391738,
                    "velocity": 0.47244094488188976,
                    "duration": 0.06535933333333332
                },
                {
                    "name": "E3",
                    "midi": 52,
                    "time": 190.783894,
                    "velocity": 0.47244094488188976,
                    "duration": 0.06535933333333332
                },
                {
                    "name": "F#3",
                    "midi": 54,
                    "time": 190.783894,
                    "velocity": 0.47244094488188976,
                    "duration": 0.06535933333333332
                },
                {
                    "name": "G#3",
                    "midi": 56,
                    "time": 190.783894,
                    "velocity": 0.47244094488188976,
                    "duration": 0.06535933333333332
                },
                {
                    "name": "C4",
                    "midi": 60,
                    "time": 190.783894,
                    "velocity": 0.47244094488188976,
                    "duration": 0.06535933333333332
                },
                {
                    "name": "E3",
                    "midi": 52,
                    "time": 191.17605,
                    "velocity": 0.47244094488188976,
                    "duration": 0.06535933333333332
                },
                {
                    "name": "F#3",
                    "midi": 54,
                    "time": 191.17605,
                    "velocity": 0.47244094488188976,
                    "duration": 0.06535933333333332
                },
                {
                    "name": "G#3",
                    "midi": 56,
                    "time": 191.17605,
                    "velocity": 0.47244094488188976,
                    "duration": 0.06535933333333332
                },
                {
                    "name": "C4",
                    "midi": 60,
                    "time": 191.17605,
                    "velocity": 0.47244094488188976,
                    "duration": 0.06535933333333332
                },
                {
                    "name": "E3",
                    "midi": 52,
                    "time": 191.568206,
                    "velocity": 0.47244094488188976,
                    "duration": 0.06535933333333332
                },
                {
                    "name": "G3",
                    "midi": 55,
                    "time": 191.568206,
                    "velocity": 0.47244094488188976,
                    "duration": 0.06535933333333332
                },
                {
                    "name": "C4",
                    "midi": 60,
                    "time": 191.568206,
                    "velocity": 0.47244094488188976,
                    "duration": 0.06535933333333332
                },
                {
                    "name": "E3",
                    "midi": 52,
                    "time": 191.960362,
                    "velocity": 0.47244094488188976,
                    "duration": 0.06535933333333332
                },
                {
                    "name": "G3",
                    "midi": 55,
                    "time": 191.960362,
                    "velocity": 0.47244094488188976,
                    "duration": 0.06535933333333332
                },
                {
                    "name": "C4",
                    "midi": 60,
                    "time": 191.960362,
                    "velocity": 0.47244094488188976,
                    "duration": 0.06535933333333332
                },
                {
                    "name": "D3",
                    "midi": 50,
                    "time": 192.352518,
                    "velocity": 0.47244094488188976,
                    "duration": 0.06535933333333332
                },
                {
                    "name": "F3",
                    "midi": 53,
                    "time": 192.352518,
                    "velocity": 0.47244094488188976,
                    "duration": 0.06535933333333332
                },
                {
                    "name": "B3",
                    "midi": 59,
                    "time": 192.352518,
                    "velocity": 0.47244094488188976,
                    "duration": 0.06535933333333332
                },
                {
                    "name": "D3",
                    "midi": 50,
                    "time": 192.744674,
                    "velocity": 0.47244094488188976,
                    "duration": 0.06535933333333332
                },
                {
                    "name": "F3",
                    "midi": 53,
                    "time": 192.744674,
                    "velocity": 0.47244094488188976,
                    "duration": 0.06535933333333332
                },
                {
                    "name": "B3",
                    "midi": 59,
                    "time": 192.744674,
                    "velocity": 0.47244094488188976,
                    "duration": 0.06535933333333332
                },
                {
                    "name": "C3",
                    "midi": 48,
                    "time": 193.13683,
                    "velocity": 0.47244094488188976,
                    "duration": 0.06535933333333332
                },
                {
                    "name": "D#3",
                    "midi": 51,
                    "time": 193.13683,
                    "velocity": 0.47244094488188976,
                    "duration": 0.06535933333333332
                },
                {
                    "name": "G#3",
                    "midi": 56,
                    "time": 193.13683,
                    "velocity": 0.47244094488188976,
                    "duration": 0.06535933333333332
                },
                {
                    "name": "C4",
                    "midi": 60,
                    "time": 193.13683,
                    "velocity": 0.47244094488188976,
                    "duration": 0.06535933333333332
                },
                {
                    "name": "C3",
                    "midi": 48,
                    "time": 193.528986,
                    "velocity": 0.47244094488188976,
                    "duration": 0.06535933333333332
                },
                {
                    "name": "D#3",
                    "midi": 51,
                    "time": 193.528986,
                    "velocity": 0.47244094488188976,
                    "duration": 0.06535933333333332
                },
                {
                    "name": "G#3",
                    "midi": 56,
                    "time": 193.528986,
                    "velocity": 0.47244094488188976,
                    "duration": 0.06535933333333332
                },
                {
                    "name": "C4",
                    "midi": 60,
                    "time": 193.528986,
                    "velocity": 0.47244094488188976,
                    "duration": 0.06535933333333332
                },
                {
                    "name": "D#3",
                    "midi": 51,
                    "time": 193.921142,
                    "velocity": 0.47244094488188976,
                    "duration": 0.06535933333333332
                },
                {
                    "name": "G#3",
                    "midi": 56,
                    "time": 193.921142,
                    "velocity": 0.47244094488188976,
                    "duration": 0.06535933333333332
                },
                {
                    "name": "C4",
                    "midi": 60,
                    "time": 193.921142,
                    "velocity": 0.47244094488188976,
                    "duration": 0.06535933333333332
                },
                {
                    "name": "D#3",
                    "midi": 51,
                    "time": 194.313298,
                    "velocity": 0.47244094488188976,
                    "duration": 0.06535933333333332
                },
                {
                    "name": "G#3",
                    "midi": 56,
                    "time": 194.313298,
                    "velocity": 0.47244094488188976,
                    "duration": 0.06535933333333332
                },
                {
                    "name": "C4",
                    "midi": 60,
                    "time": 194.313298,
                    "velocity": 0.47244094488188976,
                    "duration": 0.06535933333333332
                },
                {
                    "name": "D#3",
                    "midi": 51,
                    "time": 194.705454,
                    "velocity": 0.47244094488188976,
                    "duration": 0.06535933333333332
                },
                {
                    "name": "G3",
                    "midi": 55,
                    "time": 194.705454,
                    "velocity": 0.47244094488188976,
                    "duration": 0.06535933333333332
                },
                {
                    "name": "A#3",
                    "midi": 58,
                    "time": 194.705454,
                    "velocity": 0.47244094488188976,
                    "duration": 0.06535933333333332
                },
                {
                    "name": "C#4",
                    "midi": 61,
                    "time": 194.705454,
                    "velocity": 0.47244094488188976,
                    "duration": 0.06535933333333332
                },
                {
                    "name": "D#3",
                    "midi": 51,
                    "time": 195.09761,
                    "velocity": 0.47244094488188976,
                    "duration": 0.06535933333333332
                },
                {
                    "name": "G3",
                    "midi": 55,
                    "time": 195.09761,
                    "velocity": 0.47244094488188976,
                    "duration": 0.06535933333333332
                },
                {
                    "name": "A#3",
                    "midi": 58,
                    "time": 195.09761,
                    "velocity": 0.47244094488188976,
                    "duration": 0.06535933333333332
                },
                {
                    "name": "C#4",
                    "midi": 61,
                    "time": 195.09761,
                    "velocity": 0.47244094488188976,
                    "duration": 0.06535933333333332
                },
                {
                    "name": "D#3",
                    "midi": 51,
                    "time": 195.489766,
                    "velocity": 0.47244094488188976,
                    "duration": 0.06535933333333332
                },
                {
                    "name": "G3",
                    "midi": 55,
                    "time": 195.489766,
                    "velocity": 0.47244094488188976,
                    "duration": 0.06535933333333332
                },
                {
                    "name": "A#3",
                    "midi": 58,
                    "time": 195.489766,
                    "velocity": 0.47244094488188976,
                    "duration": 0.06535933333333332
                },
                {
                    "name": "C#4",
                    "midi": 61,
                    "time": 195.489766,
                    "velocity": 0.47244094488188976,
                    "duration": 0.06535933333333332
                },
                {
                    "name": "D#3",
                    "midi": 51,
                    "time": 195.881922,
                    "velocity": 0.47244094488188976,
                    "duration": 0.06535933333333332
                },
                {
                    "name": "G3",
                    "midi": 55,
                    "time": 195.881922,
                    "velocity": 0.47244094488188976,
                    "duration": 0.06535933333333332
                },
                {
                    "name": "A#3",
                    "midi": 58,
                    "time": 195.881922,
                    "velocity": 0.47244094488188976,
                    "duration": 0.06535933333333332
                },
                {
                    "name": "C#4",
                    "midi": 61,
                    "time": 195.881922,
                    "velocity": 0.47244094488188976,
                    "duration": 0.06535933333333332
                },
                {
                    "name": "D#3",
                    "midi": 51,
                    "time": 196.274078,
                    "velocity": 0.47244094488188976,
                    "duration": 0.06535933333333332
                },
                {
                    "name": "G#3",
                    "midi": 56,
                    "time": 196.274078,
                    "velocity": 0.47244094488188976,
                    "duration": 0.06535933333333332
                },
                {
                    "name": "C4",
                    "midi": 60,
                    "time": 196.274078,
                    "velocity": 0.47244094488188976,
                    "duration": 0.06535933333333332
                },
                {
                    "name": "D#3",
                    "midi": 51,
                    "time": 196.666234,
                    "velocity": 0.47244094488188976,
                    "duration": 0.06535933333333332
                },
                {
                    "name": "G#3",
                    "midi": 56,
                    "time": 196.666234,
                    "velocity": 0.47244094488188976,
                    "duration": 0.06535933333333332
                },
                {
                    "name": "C4",
                    "midi": 60,
                    "time": 196.666234,
                    "velocity": 0.47244094488188976,
                    "duration": 0.06535933333333332
                },
                {
                    "name": "E3",
                    "midi": 52,
                    "time": 197.05839,
                    "velocity": 0.47244094488188976,
                    "duration": 0.06535933333333332
                },
                {
                    "name": "F#3",
                    "midi": 54,
                    "time": 197.05839,
                    "velocity": 0.47244094488188976,
                    "duration": 0.06535933333333332
                },
                {
                    "name": "G#3",
                    "midi": 56,
                    "time": 197.05839,
                    "velocity": 0.47244094488188976,
                    "duration": 0.06535933333333332
                },
                {
                    "name": "C4",
                    "midi": 60,
                    "time": 197.05839,
                    "velocity": 0.47244094488188976,
                    "duration": 0.06535933333333332
                },
                {
                    "name": "E3",
                    "midi": 52,
                    "time": 197.450546,
                    "velocity": 0.47244094488188976,
                    "duration": 0.06535933333333332
                },
                {
                    "name": "F#3",
                    "midi": 54,
                    "time": 197.450546,
                    "velocity": 0.47244094488188976,
                    "duration": 0.06535933333333332
                },
                {
                    "name": "G#3",
                    "midi": 56,
                    "time": 197.450546,
                    "velocity": 0.47244094488188976,
                    "duration": 0.06535933333333332
                },
                {
                    "name": "C4",
                    "midi": 60,
                    "time": 197.450546,
                    "velocity": 0.47244094488188976,
                    "duration": 0.06535933333333332
                },
                {
                    "name": "E3",
                    "midi": 52,
                    "time": 197.842702,
                    "velocity": 0.47244094488188976,
                    "duration": 0.06535933333333332
                },
                {
                    "name": "G3",
                    "midi": 55,
                    "time": 197.842702,
                    "velocity": 0.47244094488188976,
                    "duration": 0.06535933333333332
                },
                {
                    "name": "C4",
                    "midi": 60,
                    "time": 197.842702,
                    "velocity": 0.47244094488188976,
                    "duration": 0.06535933333333332
                },
                {
                    "name": "E3",
                    "midi": 52,
                    "time": 198.234858,
                    "velocity": 0.47244094488188976,
                    "duration": 0.06535933333333332
                },
                {
                    "name": "G3",
                    "midi": 55,
                    "time": 198.234858,
                    "velocity": 0.47244094488188976,
                    "duration": 0.06535933333333332
                },
                {
                    "name": "C4",
                    "midi": 60,
                    "time": 198.234858,
                    "velocity": 0.47244094488188976,
                    "duration": 0.06535933333333332
                },
                {
                    "name": "D3",
                    "midi": 50,
                    "time": 198.627014,
                    "velocity": 0.47244094488188976,
                    "duration": 0.06535933333333332
                },
                {
                    "name": "G3",
                    "midi": 55,
                    "time": 198.627014,
                    "velocity": 0.47244094488188976,
                    "duration": 0.06535933333333332
                },
                {
                    "name": "B3",
                    "midi": 59,
                    "time": 198.627014,
                    "velocity": 0.47244094488188976,
                    "duration": 0.06535933333333332
                },
                {
                    "name": "D3",
                    "midi": 50,
                    "time": 199.01917,
                    "velocity": 0.47244094488188976,
                    "duration": 0.06535933333333332
                },
                {
                    "name": "G3",
                    "midi": 55,
                    "time": 199.01917,
                    "velocity": 0.47244094488188976,
                    "duration": 0.06535933333333332
                },
                {
                    "name": "B3",
                    "midi": 59,
                    "time": 199.01917,
                    "velocity": 0.47244094488188976,
                    "duration": 0.06535933333333332
                },
                {
                    "name": "E3",
                    "midi": 52,
                    "time": 199.411326,
                    "velocity": 0.47244094488188976,
                    "duration": 0.06535933333333332
                },
                {
                    "name": "G3",
                    "midi": 55,
                    "time": 199.411326,
                    "velocity": 0.47244094488188976,
                    "duration": 0.06535933333333332
                },
                {
                    "name": "C4",
                    "midi": 60,
                    "time": 199.411326,
                    "velocity": 0.47244094488188976,
                    "duration": 0.06535933333333332
                },
                {
                    "name": "E3",
                    "midi": 52,
                    "time": 199.803482,
                    "velocity": 0.47244094488188976,
                    "duration": 0.06535933333333332
                },
                {
                    "name": "G3",
                    "midi": 55,
                    "time": 199.803482,
                    "velocity": 0.47244094488188976,
                    "duration": 0.06535933333333332
                },
                {
                    "name": "C#4",
                    "midi": 61,
                    "time": 199.803482,
                    "velocity": 0.47244094488188976,
                    "duration": 0.06535933333333332
                },
                {
                    "name": "F3",
                    "midi": 53,
                    "time": 200.195638,
                    "velocity": 0.47244094488188976,
                    "duration": 0.06535933333333332
                },
                {
                    "name": "A3",
                    "midi": 57,
                    "time": 200.195638,
                    "velocity": 0.47244094488188976,
                    "duration": 0.06535933333333332
                },
                {
                    "name": "D4",
                    "midi": 62,
                    "time": 200.195638,
                    "velocity": 0.47244094488188976,
                    "duration": 0.06535933333333332
                },
                {
                    "name": "D3",
                    "midi": 50,
                    "time": 200.587794,
                    "velocity": 0.47244094488188976,
                    "duration": 0.06535933333333332
                },
                {
                    "name": "G3",
                    "midi": 55,
                    "time": 200.587794,
                    "velocity": 0.47244094488188976,
                    "duration": 0.06535933333333332
                },
                {
                    "name": "B3",
                    "midi": 59,
                    "time": 200.587794,
                    "velocity": 0.47244094488188976,
                    "duration": 0.06535933333333332
                },
                {
                    "name": "E3",
                    "midi": 52,
                    "time": 200.97995,
                    "velocity": 0.47244094488188976,
                    "duration": 0.06535933333333332
                },
                {
                    "name": "G3",
                    "midi": 55,
                    "time": 200.97995,
                    "velocity": 0.47244094488188976,
                    "duration": 0.06535933333333332
                },
                {
                    "name": "C4",
                    "midi": 60,
                    "time": 200.97995,
                    "velocity": 0.47244094488188976,
                    "duration": 0.06535933333333332
                },
                {
                    "name": "E3",
                    "midi": 52,
                    "time": 201.372106,
                    "velocity": 0.47244094488188976,
                    "duration": 0.06535933333333332
                },
                {
                    "name": "F3",
                    "midi": 53,
                    "time": 201.372106,
                    "velocity": 0.47244094488188976,
                    "duration": 0.06535933333333332
                },
                {
                    "name": "C4",
                    "midi": 60,
                    "time": 201.372106,
                    "velocity": 0.47244094488188976,
                    "duration": 0.06535933333333332
                },
                {
                    "name": "D3",
                    "midi": 50,
                    "time": 201.764262,
                    "velocity": 0.47244094488188976,
                    "duration": 0.06535933333333332
                },
                {
                    "name": "F3",
                    "midi": 53,
                    "time": 201.764262,
                    "velocity": 0.47244094488188976,
                    "duration": 0.06535933333333332
                },
                {
                    "name": "B3",
                    "midi": 59,
                    "time": 201.764262,
                    "velocity": 0.47244094488188976,
                    "duration": 0.06535933333333332
                },
                {
                    "name": "D3",
                    "midi": 50,
                    "time": 202.156418,
                    "velocity": 0.47244094488188976,
                    "duration": 0.06535933333333332
                },
                {
                    "name": "E3",
                    "midi": 52,
                    "time": 202.156418,
                    "velocity": 0.47244094488188976,
                    "duration": 0.06535933333333332
                },
                {
                    "name": "B3",
                    "midi": 59,
                    "time": 202.156418,
                    "velocity": 0.47244094488188976,
                    "duration": 0.06535933333333332
                },
                {
                    "name": "C3",
                    "midi": 48,
                    "time": 202.548574,
                    "velocity": 0.47244094488188976,
                    "duration": 0.06535933333333332
                },
                {
                    "name": "E3",
                    "midi": 52,
                    "time": 202.548574,
                    "velocity": 0.47244094488188976,
                    "duration": 0.06535933333333332
                },
                {
                    "name": "A3",
                    "midi": 57,
                    "time": 202.548574,
                    "velocity": 0.47244094488188976,
                    "duration": 0.06535933333333332
                },
                {
                    "name": "C3",
                    "midi": 48,
                    "time": 202.94073,
                    "velocity": 0.47244094488188976,
                    "duration": 0.06535933333333332
                },
                {
                    "name": "D3",
                    "midi": 50,
                    "time": 202.94073,
                    "velocity": 0.47244094488188976,
                    "duration": 0.06535933333333332
                },
                {
                    "name": "F#3",
                    "midi": 54,
                    "time": 202.94073,
                    "velocity": 0.47244094488188976,
                    "duration": 0.06535933333333332
                },
                {
                    "name": "A3",
                    "midi": 57,
                    "time": 202.94073,
                    "velocity": 0.47244094488188976,
                    "duration": 0.06535933333333332
                },
                {
                    "name": "D3",
                    "midi": 50,
                    "time": 203.332886,
                    "velocity": 0.47244094488188976,
                    "duration": 0.06535933333333332
                },
                {
                    "name": "G3",
                    "midi": 55,
                    "time": 203.332886,
                    "velocity": 0.47244094488188976,
                    "duration": 0.06535933333333332
                },
                {
                    "name": "B3",
                    "midi": 59,
                    "time": 203.332886,
                    "velocity": 0.47244094488188976,
                    "duration": 0.06535933333333332
                },
                {
                    "name": "D3",
                    "midi": 50,
                    "time": 203.725042,
                    "velocity": 0.47244094488188976,
                    "duration": 0.06535933333333332
                },
                {
                    "name": "G3",
                    "midi": 55,
                    "time": 203.725042,
                    "velocity": 0.47244094488188976,
                    "duration": 0.06535933333333332
                },
                {
                    "name": "B3",
                    "midi": 59,
                    "time": 203.725042,
                    "velocity": 0.47244094488188976,
                    "duration": 0.06535933333333332
                },
                {
                    "name": "C3",
                    "midi": 48,
                    "time": 204.117198,
                    "velocity": 0.47244094488188976,
                    "duration": 0.06535933333333332
                },
                {
                    "name": "E3",
                    "midi": 52,
                    "time": 204.117198,
                    "velocity": 0.47244094488188976,
                    "duration": 0.06535933333333332
                },
                {
                    "name": "G3",
                    "midi": 55,
                    "time": 204.117198,
                    "velocity": 0.47244094488188976,
                    "duration": 0.06535933333333332
                },
                {
                    "name": "C4",
                    "midi": 60,
                    "time": 204.117198,
                    "velocity": 0.47244094488188976,
                    "duration": 0.06535933333333332
                },
                {
                    "name": "C3",
                    "midi": 48,
                    "time": 204.509354,
                    "velocity": 0.47244094488188976,
                    "duration": 0.06535933333333332
                },
                {
                    "name": "F3",
                    "midi": 53,
                    "time": 204.509354,
                    "velocity": 0.47244094488188976,
                    "duration": 0.06535933333333332
                },
                {
                    "name": "A3",
                    "midi": 57,
                    "time": 204.509354,
                    "velocity": 0.47244094488188976,
                    "duration": 0.06535933333333332
                },
                {
                    "name": "C3",
                    "midi": 48,
                    "time": 204.90151,
                    "velocity": 0.47244094488188976,
                    "duration": 0.06535933333333332
                },
                {
                    "name": "E3",
                    "midi": 52,
                    "time": 204.90151,
                    "velocity": 0.47244094488188976,
                    "duration": 0.06535933333333332
                },
                {
                    "name": "G3",
                    "midi": 55,
                    "time": 204.90151,
                    "velocity": 0.47244094488188976,
                    "duration": 0.06535933333333332
                },
                {
                    "name": "F3",
                    "midi": 53,
                    "time": 205.293666,
                    "velocity": 0.47244094488188976,
                    "duration": 0.06535933333333332
                },
                {
                    "name": "G3",
                    "midi": 55,
                    "time": 205.293666,
                    "velocity": 0.47244094488188976,
                    "duration": 0.06535933333333332
                },
                {
                    "name": "B3",
                    "midi": 59,
                    "time": 205.293666,
                    "velocity": 0.47244094488188976,
                    "duration": 0.06535933333333332
                },
                {
                    "name": "E3",
                    "midi": 52,
                    "time": 205.685822,
                    "velocity": 0.47244094488188976,
                    "duration": 0.06535933333333332
                },
                {
                    "name": "G3",
                    "midi": 55,
                    "time": 205.685822,
                    "velocity": 0.47244094488188976,
                    "duration": 0.06535933333333332
                },
                {
                    "name": "C4",
                    "midi": 60,
                    "time": 205.685822,
                    "velocity": 0.47244094488188976,
                    "duration": 0.06535933333333332
                },
                {
                    "name": "E3",
                    "midi": 52,
                    "time": 206.077978,
                    "velocity": 0.47244094488188976,
                    "duration": 0.06535933333333332
                },
                {
                    "name": "A3",
                    "midi": 57,
                    "time": 206.077978,
                    "velocity": 0.47244094488188976,
                    "duration": 0.06535933333333332
                },
                {
                    "name": "C#4",
                    "midi": 61,
                    "time": 206.077978,
                    "velocity": 0.47244094488188976,
                    "duration": 0.06535933333333332
                },
                {
                    "name": "D3",
                    "midi": 50,
                    "time": 206.470134,
                    "velocity": 0.47244094488188976,
                    "duration": 0.06535933333333332
                },
                {
                    "name": "F3",
                    "midi": 53,
                    "time": 206.470134,
                    "velocity": 0.47244094488188976,
                    "duration": 0.06535933333333332
                },
                {
                    "name": "A3",
                    "midi": 57,
                    "time": 206.470134,
                    "velocity": 0.47244094488188976,
                    "duration": 0.06535933333333332
                },
                {
                    "name": "D4",
                    "midi": 62,
                    "time": 206.470134,
                    "velocity": 0.47244094488188976,
                    "duration": 0.06535933333333332
                },
                {
                    "name": "D3",
                    "midi": 50,
                    "time": 206.86229,
                    "velocity": 0.47244094488188976,
                    "duration": 0.06535933333333332
                },
                {
                    "name": "G3",
                    "midi": 55,
                    "time": 206.86229,
                    "velocity": 0.47244094488188976,
                    "duration": 0.06535933333333332
                },
                {
                    "name": "B3",
                    "midi": 59,
                    "time": 206.86229,
                    "velocity": 0.47244094488188976,
                    "duration": 0.06535933333333332
                },
                {
                    "name": "E3",
                    "midi": 52,
                    "time": 207.254446,
                    "velocity": 0.47244094488188976,
                    "duration": 0.06535933333333332
                },
                {
                    "name": "G3",
                    "midi": 55,
                    "time": 207.254446,
                    "velocity": 0.47244094488188976,
                    "duration": 0.06535933333333332
                },
                {
                    "name": "C4",
                    "midi": 60,
                    "time": 207.254446,
                    "velocity": 0.47244094488188976,
                    "duration": 0.06535933333333332
                },
                {
                    "name": "E3",
                    "midi": 52,
                    "time": 207.646602,
                    "velocity": 0.47244094488188976,
                    "duration": 0.06535933333333332
                },
                {
                    "name": "F3",
                    "midi": 53,
                    "time": 207.646602,
                    "velocity": 0.47244094488188976,
                    "duration": 0.06535933333333332
                },
                {
                    "name": "C4",
                    "midi": 60,
                    "time": 207.646602,
                    "velocity": 0.47244094488188976,
                    "duration": 0.06535933333333332
                },
                {
                    "name": "D3",
                    "midi": 50,
                    "time": 208.038758,
                    "velocity": 0.47244094488188976,
                    "duration": 0.06535933333333332
                },
                {
                    "name": "F3",
                    "midi": 53,
                    "time": 208.038758,
                    "velocity": 0.47244094488188976,
                    "duration": 0.06535933333333332
                },
                {
                    "name": "B3",
                    "midi": 59,
                    "time": 208.038758,
                    "velocity": 0.47244094488188976,
                    "duration": 0.06535933333333332
                },
                {
                    "name": "D4",
                    "midi": 62,
                    "time": 208.038758,
                    "velocity": 0.47244094488188976,
                    "duration": 0.06535933333333332
                },
                {
                    "name": "D3",
                    "midi": 50,
                    "time": 208.430914,
                    "velocity": 0.47244094488188976,
                    "duration": 0.06535933333333332
                },
                {
                    "name": "E3",
                    "midi": 52,
                    "time": 208.430914,
                    "velocity": 0.47244094488188976,
                    "duration": 0.06535933333333332
                },
                {
                    "name": "G#3",
                    "midi": 56,
                    "time": 208.430914,
                    "velocity": 0.47244094488188976,
                    "duration": 0.06535933333333332
                },
                {
                    "name": "C3",
                    "midi": 48,
                    "time": 208.82307,
                    "velocity": 0.47244094488188976,
                    "duration": 0.06535933333333332
                },
                {
                    "name": "E3",
                    "midi": 52,
                    "time": 208.82307,
                    "velocity": 0.47244094488188976,
                    "duration": 0.06535933333333332
                },
                {
                    "name": "A3",
                    "midi": 57,
                    "time": 208.82307,
                    "velocity": 0.47244094488188976,
                    "duration": 0.06535933333333332
                },
                {
                    "name": "C3",
                    "midi": 48,
                    "time": 209.215226,
                    "velocity": 0.47244094488188976,
                    "duration": 0.06535933333333332
                },
                {
                    "name": "D3",
                    "midi": 50,
                    "time": 209.215226,
                    "velocity": 0.47244094488188976,
                    "duration": 0.06535933333333332
                },
                {
                    "name": "F#3",
                    "midi": 54,
                    "time": 209.215226,
                    "velocity": 0.47244094488188976,
                    "duration": 0.06535933333333332
                },
                {
                    "name": "B2",
                    "midi": 47,
                    "time": 209.607382,
                    "velocity": 0.47244094488188976,
                    "duration": 0.06535933333333332
                },
                {
                    "name": "D3",
                    "midi": 50,
                    "time": 209.607382,
                    "velocity": 0.47244094488188976,
                    "duration": 0.06535933333333332
                },
                {
                    "name": "G3",
                    "midi": 55,
                    "time": 209.607382,
                    "velocity": 0.47244094488188976,
                    "duration": 0.06535933333333332
                },
                {
                    "name": "D3",
                    "midi": 50,
                    "time": 209.999538,
                    "velocity": 0.47244094488188976,
                    "duration": 0.06535933333333332
                },
                {
                    "name": "G3",
                    "midi": 55,
                    "time": 209.999538,
                    "velocity": 0.47244094488188976,
                    "duration": 0.06535933333333332
                },
                {
                    "name": "B3",
                    "midi": 59,
                    "time": 209.999538,
                    "velocity": 0.47244094488188976,
                    "duration": 0.06535933333333332
                },
                {
                    "name": "C3",
                    "midi": 48,
                    "time": 210.391694,
                    "velocity": 0.47244094488188976,
                    "duration": 0.06535933333333332
                },
                {
                    "name": "E3",
                    "midi": 52,
                    "time": 210.391694,
                    "velocity": 0.47244094488188976,
                    "duration": 0.06535933333333332
                },
                {
                    "name": "G3",
                    "midi": 55,
                    "time": 210.391694,
                    "velocity": 0.47244094488188976,
                    "duration": 0.06535933333333332
                },
                {
                    "name": "C4",
                    "midi": 60,
                    "time": 210.391694,
                    "velocity": 0.47244094488188976,
                    "duration": 0.06535933333333332
                },
                {
                    "name": "D3",
                    "midi": 50,
                    "time": 210.78385,
                    "velocity": 0.47244094488188976,
                    "duration": 0.06535933333333332
                },
                {
                    "name": "F3",
                    "midi": 53,
                    "time": 210.78385,
                    "velocity": 0.47244094488188976,
                    "duration": 0.06535933333333332
                },
                {
                    "name": "A3",
                    "midi": 57,
                    "time": 210.78385,
                    "velocity": 0.47244094488188976,
                    "duration": 0.06535933333333332
                },
                {
                    "name": "C3",
                    "midi": 48,
                    "time": 211.176006,
                    "velocity": 0.47244094488188976,
                    "duration": 0.06535933333333332
                },
                {
                    "name": "E3",
                    "midi": 52,
                    "time": 211.176006,
                    "velocity": 0.47244094488188976,
                    "duration": 0.06535933333333332
                },
                {
                    "name": "G3",
                    "midi": 55,
                    "time": 211.176006,
                    "velocity": 0.47244094488188976,
                    "duration": 0.06535933333333332
                },
                {
                    "name": "F3",
                    "midi": 53,
                    "time": 211.568162,
                    "velocity": 0.47244094488188976,
                    "duration": 0.06535933333333332
                },
                {
                    "name": "G3",
                    "midi": 55,
                    "time": 211.568162,
                    "velocity": 0.47244094488188976,
                    "duration": 0.06535933333333332
                },
                {
                    "name": "B3",
                    "midi": 59,
                    "time": 211.568162,
                    "velocity": 0.47244094488188976,
                    "duration": 0.06535933333333332
                },
                {
                    "name": "C4",
                    "midi": 60,
                    "time": 211.76424,
                    "velocity": 0.5905511811023622,
                    "duration": 0.7843119999999999
                },
                {
                    "name": "C5",
                    "midi": 72,
                    "time": 211.76424,
                    "velocity": 0.5905511811023622,
                    "duration": 0.7843119999999999
                },
                {
                    "name": "B3",
                    "midi": 59,
                    "time": 212.548552,
                    "velocity": 0.5905511811023622,
                    "duration": 0.7843119999999999
                },
                {
                    "name": "B4",
                    "midi": 71,
                    "time": 212.548552,
                    "velocity": 0.5905511811023622,
                    "duration": 0.7843119999999999
                },
                {
                    "name": "C4",
                    "midi": 60,
                    "time": 213.332864,
                    "velocity": 0.5905511811023622,
                    "duration": 0.7843119999999999
                },
                {
                    "name": "C5",
                    "midi": 72,
                    "time": 213.332864,
                    "velocity": 0.5905511811023622,
                    "duration": 0.7843119999999999
                },
                {
                    "name": "B3",
                    "midi": 59,
                    "time": 214.117176,
                    "velocity": 0.5905511811023622,
                    "duration": 0.7843119999999999
                },
                {
                    "name": "B4",
                    "midi": 71,
                    "time": 214.117176,
                    "velocity": 0.5905511811023622,
                    "duration": 0.7843119999999999
                },
                {
                    "name": "C4",
                    "midi": 60,
                    "time": 214.901488,
                    "velocity": 0.5905511811023622,
                    "duration": 0.7843119999999999
                },
                {
                    "name": "C5",
                    "midi": 72,
                    "time": 214.901488,
                    "velocity": 0.5905511811023622,
                    "duration": 0.7843119999999999
                },
                {
                    "name": "B3",
                    "midi": 59,
                    "time": 215.6858,
                    "velocity": 0.5905511811023622,
                    "duration": 0.7843119999999999
                },
                {
                    "name": "B4",
                    "midi": 71,
                    "time": 215.6858,
                    "velocity": 0.5905511811023622,
                    "duration": 0.7843119999999999
                },
                {
                    "name": "C4",
                    "midi": 60,
                    "time": 216.470112,
                    "velocity": 0.5905511811023622,
                    "duration": 0.7843119999999999
                },
                {
                    "name": "C5",
                    "midi": 72,
                    "time": 216.470112,
                    "velocity": 0.5905511811023622,
                    "duration": 0.7843119999999999
                },
                {
                    "name": "B3",
                    "midi": 59,
                    "time": 217.254424,
                    "velocity": 0.5905511811023622,
                    "duration": 0.7843119999999999
                },
                {
                    "name": "B4",
                    "midi": 71,
                    "time": 217.254424,
                    "velocity": 0.5905511811023622,
                    "duration": 0.7843119999999999
                },
                {
                    "name": "C4",
                    "midi": 60,
                    "time": 218.038736,
                    "velocity": 0.5905511811023622,
                    "duration": 0.39215599999999995
                },
                {
                    "name": "C5",
                    "midi": 72,
                    "time": 218.038736,
                    "velocity": 0.5905511811023622,
                    "duration": 0.39215599999999995
                },
                {
                    "name": "B3",
                    "midi": 59,
                    "time": 218.430892,
                    "velocity": 0.5905511811023622,
                    "duration": 0.39215599999999995
                },
                {
                    "name": "B4",
                    "midi": 71,
                    "time": 218.430892,
                    "velocity": 0.5905511811023622,
                    "duration": 0.39215599999999995
                },
                {
                    "name": "C4",
                    "midi": 60,
                    "time": 218.823048,
                    "velocity": 0.5905511811023622,
                    "duration": 0.39215599999999995
                },
                {
                    "name": "C5",
                    "midi": 72,
                    "time": 218.823048,
                    "velocity": 0.5905511811023622,
                    "duration": 0.39215599999999995
                },
                {
                    "name": "D4",
                    "midi": 62,
                    "time": 219.215204,
                    "velocity": 0.5905511811023622,
                    "duration": 0.39215599999999995
                },
                {
                    "name": "D5",
                    "midi": 74,
                    "time": 219.215204,
                    "velocity": 0.5905511811023622,
                    "duration": 0.39215599999999995
                },
                {
                    "name": "E4",
                    "midi": 64,
                    "time": 219.60736,
                    "velocity": 0.5905511811023622,
                    "duration": 0.39215599999999995
                },
                {
                    "name": "C5",
                    "midi": 72,
                    "time": 219.60736,
                    "velocity": 0.5905511811023622,
                    "duration": 0.39215599999999995
                },
                {
                    "name": "D4",
                    "midi": 62,
                    "time": 219.999516,
                    "velocity": 0.5905511811023622,
                    "duration": 0.39215599999999995
                },
                {
                    "name": "B4",
                    "midi": 71,
                    "time": 219.999516,
                    "velocity": 0.5905511811023622,
                    "duration": 0.39215599999999995
                },
                {
                    "name": "E4",
                    "midi": 64,
                    "time": 220.391672,
                    "velocity": 0.5905511811023622,
                    "duration": 0.39215599999999995
                },
                {
                    "name": "C5",
                    "midi": 72,
                    "time": 220.391672,
                    "velocity": 0.5905511811023622,
                    "duration": 0.39215599999999995
                },
                {
                    "name": "D4",
                    "midi": 62,
                    "time": 220.783828,
                    "velocity": 0.5905511811023622,
                    "duration": 0.39215599999999995
                },
                {
                    "name": "F4",
                    "midi": 65,
                    "time": 220.783828,
                    "velocity": 0.5905511811023622,
                    "duration": 0.39215599999999995
                },
                {
                    "name": "C4",
                    "midi": 60,
                    "time": 221.175984,
                    "velocity": 0.5905511811023622,
                    "duration": 0.1919930416666773
                },
                {
                    "name": "E4",
                    "midi": 64,
                    "time": 221.175984,
                    "velocity": 0.5905511811023622,
                    "duration": 0.1919930416666773
                },
                {
                    "name": "E4",
                    "midi": 64,
                    "time": 222.744608,
                    "velocity": 0.5905511811023622,
                    "duration": 0.1919930416666773
                },
                {
                    "name": "G4",
                    "midi": 67,
                    "time": 222.744608,
                    "velocity": 0.5905511811023622,
                    "duration": 0.1919930416666773
                },
                {
                    "name": "C5",
                    "midi": 72,
                    "time": 222.744608,
                    "velocity": 0.5905511811023622,
                    "duration": 0.1919930416666773
                },
                {
                    "name": "E3",
                    "midi": 52,
                    "time": 224.313232,
                    "velocity": 0.5905511811023622,
                    "duration": 0.1919930416666773
                },
                {
                    "name": "G3",
                    "midi": 55,
                    "time": 224.313232,
                    "velocity": 0.5905511811023622,
                    "duration": 0.1919930416666773
                },
                {
                    "name": "C4",
                    "midi": 60,
                    "time": 224.313232,
                    "velocity": 0.5905511811023622,
                    "duration": 0.1919930416666773
                },
                {
                    "name": "E3",
                    "midi": 52,
                    "time": 225.881856,
                    "velocity": 0.5905511811023622,
                    "duration": 0.7843119999999999
                },
                {
                    "name": "G3",
                    "midi": 55,
                    "time": 225.881856,
                    "velocity": 0.5905511811023622,
                    "duration": 0.7843119999999999
                },
                {
                    "name": "C4",
                    "midi": 60,
                    "time": 225.881856,
                    "velocity": 0.5905511811023622,
                    "duration": 0.7843119999999999
                },
                {
                    "name": "C4",
                    "midi": 60,
                    "time": 226.666168,
                    "velocity": 0.5905511811023622,
                    "duration": 0.9763050416666772
                },
                {
                    "name": "E4",
                    "midi": 64,
                    "time": 226.666168,
                    "velocity": 0.5905511811023622,
                    "duration": 0.9763050416666772
                }
            ],
            "controlChanges": {
                "7": [
                    {
                        "number": 7,
                        "time": 0,
                        "value": 1
                    }
                ],
                "10": [
                    {
                        "number": 10,
                        "time": 0,
                        "value": 0.7322834645669292
                    }
                ],
                "91": [
                    {
                        "number": 91,
                        "time": 0,
                        "value": 0.49606299212598426
                    }
                ]
            },
            "id": 1,
            "name": "MOTO PERPETUO",
            "instrumentNumber": 60,
            "instrument": "french horn",
            "instrumentFamily": "brass",
            "channelNumber": 0,
            "isPercussion": false
        },
        {
            "startTime": 0.196078,
            "duration": 227.64247304166668,
            "length": 1444,
            "notes": [
                {
                    "name": "C5",
                    "midi": 72,
                    "time": 0.196078,
                    "velocity": 0.5905511811023622,
                    "duration": 0.5228746666666666
                },
                {
                    "name": "E5",
                    "midi": 76,
                    "time": 0.196078,
                    "velocity": 0.5905511811023622,
                    "duration": 0.5228746666666666
                },
                {
                    "name": "G5",
                    "midi": 79,
                    "time": 0.196078,
                    "velocity": 0.5905511811023622,
                    "duration": 0.5228746666666666
                },
                {
                    "name": "A5",
                    "midi": 81,
                    "time": 0.196078,
                    "velocity": 0.5905511811023622,
                    "duration": 0.5228746666666666
                },
                {
                    "name": "G4",
                    "midi": 67,
                    "time": 0.9803899999999999,
                    "velocity": 0.5905511811023622,
                    "duration": 0.5228746666666666
                },
                {
                    "name": "B4",
                    "midi": 71,
                    "time": 0.9803899999999999,
                    "velocity": 0.5905511811023622,
                    "duration": 0.5228746666666666
                },
                {
                    "name": "D5",
                    "midi": 74,
                    "time": 0.9803899999999999,
                    "velocity": 0.5905511811023622,
                    "duration": 0.5228746666666666
                },
                {
                    "name": "F5",
                    "midi": 77,
                    "time": 0.9803899999999999,
                    "velocity": 0.5905511811023622,
                    "duration": 0.5228746666666666
                },
                {
                    "name": "G4",
                    "midi": 67,
                    "time": 1.7647019999999998,
                    "velocity": 0.5905511811023622,
                    "duration": 0.5228746666666666
                },
                {
                    "name": "B4",
                    "midi": 71,
                    "time": 1.7647019999999998,
                    "velocity": 0.5905511811023622,
                    "duration": 0.5228746666666666
                },
                {
                    "name": "D5",
                    "midi": 74,
                    "time": 1.7647019999999998,
                    "velocity": 0.5905511811023622,
                    "duration": 0.5228746666666666
                },
                {
                    "name": "F5",
                    "midi": 77,
                    "time": 1.7647019999999998,
                    "velocity": 0.5905511811023622,
                    "duration": 0.5228746666666666
                },
                {
                    "name": "B4",
                    "midi": 71,
                    "time": 2.5490139999999997,
                    "velocity": 0.5905511811023622,
                    "duration": 0.5228746666666666
                },
                {
                    "name": "C5",
                    "midi": 72,
                    "time": 2.5490139999999997,
                    "velocity": 0.5905511811023622,
                    "duration": 0.5228746666666666
                },
                {
                    "name": "A4",
                    "midi": 69,
                    "time": 3.1372479999999996,
                    "velocity": 0.5905511811023622,
                    "duration": 0.3267966666666666
                },
                {
                    "name": "C5",
                    "midi": 72,
                    "time": 3.1372479999999996,
                    "velocity": 0.5905511811023622,
                    "duration": 0.3267966666666666
                },
                {
                    "name": "G#4",
                    "midi": 68,
                    "time": 3.5294039999999995,
                    "velocity": 0.5905511811023622,
                    "duration": 0.3267966666666666
                },
                {
                    "name": "B4",
                    "midi": 71,
                    "time": 3.5294039999999995,
                    "velocity": 0.5905511811023622,
                    "duration": 0.3267966666666666
                },
                {
                    "name": "D5",
                    "midi": 74,
                    "time": 3.5294039999999995,
                    "velocity": 0.5905511811023622,
                    "duration": 0.3267966666666666
                },
                {
                    "name": "G4",
                    "midi": 67,
                    "time": 4.1176379999999995,
                    "velocity": 0.5905511811023622,
                    "duration": 0.5228746666666666
                },
                {
                    "name": "B4",
                    "midi": 71,
                    "time": 4.1176379999999995,
                    "velocity": 0.5905511811023622,
                    "duration": 0.5228746666666666
                },
                {
                    "name": "D5",
                    "midi": 74,
                    "time": 4.1176379999999995,
                    "velocity": 0.5905511811023622,
                    "duration": 0.5228746666666666
                },
                {
                    "name": "F5",
                    "midi": 77,
                    "time": 4.1176379999999995,
                    "velocity": 0.5905511811023622,
                    "duration": 0.5228746666666666
                },
                {
                    "name": "C5",
                    "midi": 72,
                    "time": 4.901949999999999,
                    "velocity": 0.5905511811023622,
                    "duration": 0.5228746666666666
                },
                {
                    "name": "E5",
                    "midi": 76,
                    "time": 4.901949999999999,
                    "velocity": 0.5905511811023622,
                    "duration": 0.5228746666666666
                },
                {
                    "name": "G5",
                    "midi": 79,
                    "time": 4.901949999999999,
                    "velocity": 0.5905511811023622,
                    "duration": 0.5228746666666666
                },
                {
                    "name": "A5",
                    "midi": 81,
                    "time": 4.901949999999999,
                    "velocity": 0.5905511811023622,
                    "duration": 0.5228746666666666
                },
                {
                    "name": "E4",
                    "midi": 64,
                    "time": 5.686261999999999,
                    "velocity": 0.47244094488188976,
                    "duration": 0.5228746666666666
                },
                {
                    "name": "G4",
                    "midi": 67,
                    "time": 5.686261999999999,
                    "velocity": 0.47244094488188976,
                    "duration": 0.5228746666666666
                },
                {
                    "name": "C5",
                    "midi": 72,
                    "time": 5.686261999999999,
                    "velocity": 0.47244094488188976,
                    "duration": 0.5228746666666666
                },
                {
                    "name": "D4",
                    "midi": 62,
                    "time": 6.470573999999999,
                    "velocity": 0.47244094488188976,
                    "duration": 0.5228746666666666
                },
                {
                    "name": "F4",
                    "midi": 65,
                    "time": 6.470573999999999,
                    "velocity": 0.47244094488188976,
                    "duration": 0.5228746666666666
                },
                {
                    "name": "G4",
                    "midi": 67,
                    "time": 6.470573999999999,
                    "velocity": 0.47244094488188976,
                    "duration": 0.5228746666666666
                },
                {
                    "name": "B4",
                    "midi": 71,
                    "time": 6.470573999999999,
                    "velocity": 0.47244094488188976,
                    "duration": 0.5228746666666666
                },
                {
                    "name": "D4",
                    "midi": 62,
                    "time": 7.254885999999999,
                    "velocity": 0.47244094488188976,
                    "duration": 0.5228746666666666
                },
                {
                    "name": "F4",
                    "midi": 65,
                    "time": 7.254885999999999,
                    "velocity": 0.47244094488188976,
                    "duration": 0.5228746666666666
                },
                {
                    "name": "G4",
                    "midi": 67,
                    "time": 7.254885999999999,
                    "velocity": 0.47244094488188976,
                    "duration": 0.5228746666666666
                },
                {
                    "name": "B4",
                    "midi": 71,
                    "time": 7.254885999999999,
                    "velocity": 0.47244094488188976,
                    "duration": 0.5228746666666666
                },
                {
                    "name": "E4",
                    "midi": 64,
                    "time": 8.039197999999999,
                    "velocity": 0.47244094488188976,
                    "duration": 0.5228746666666666
                },
                {
                    "name": "G4",
                    "midi": 67,
                    "time": 8.039197999999999,
                    "velocity": 0.47244094488188976,
                    "duration": 0.5228746666666666
                },
                {
                    "name": "C5",
                    "midi": 72,
                    "time": 8.039197999999999,
                    "velocity": 0.47244094488188976,
                    "duration": 0.5228746666666666
                },
                {
                    "name": "E4",
                    "midi": 64,
                    "time": 8.627431999999999,
                    "velocity": 0.47244094488188976,
                    "duration": 0.7843119999999999
                },
                {
                    "name": "G4",
                    "midi": 67,
                    "time": 8.627431999999999,
                    "velocity": 0.47244094488188976,
                    "duration": 0.7843119999999999
                },
                {
                    "name": "A4",
                    "midi": 69,
                    "time": 8.627431999999999,
                    "velocity": 0.47244094488188976,
                    "duration": 0.7843119999999999
                },
                {
                    "name": "C#5",
                    "midi": 73,
                    "time": 8.627431999999999,
                    "velocity": 0.47244094488188976,
                    "duration": 0.7843119999999999
                },
                {
                    "name": "D4",
                    "midi": 62,
                    "time": 9.411743999999999,
                    "velocity": 0.47244094488188976,
                    "duration": 0.39215599999999995
                },
                {
                    "name": "F4",
                    "midi": 65,
                    "time": 9.411743999999999,
                    "velocity": 0.47244094488188976,
                    "duration": 0.39215599999999995
                },
                {
                    "name": "A4",
                    "midi": 69,
                    "time": 9.411743999999999,
                    "velocity": 0.47244094488188976,
                    "duration": 0.39215599999999995
                },
                {
                    "name": "D4",
                    "midi": 62,
                    "time": 9.803899999999999,
                    "velocity": 0.47244094488188976,
                    "duration": 0.39215599999999995
                },
                {
                    "name": "F4",
                    "midi": 65,
                    "time": 9.803899999999999,
                    "velocity": 0.47244094488188976,
                    "duration": 0.39215599999999995
                },
                {
                    "name": "B4",
                    "midi": 71,
                    "time": 9.803899999999999,
                    "velocity": 0.47244094488188976,
                    "duration": 0.39215599999999995
                },
                {
                    "name": "C4",
                    "midi": 60,
                    "time": 10.196055999999999,
                    "velocity": 0.47244094488188976,
                    "duration": 0.39215599999999995
                },
                {
                    "name": "E4",
                    "midi": 64,
                    "time": 10.196055999999999,
                    "velocity": 0.47244094488188976,
                    "duration": 0.39215599999999995
                },
                {
                    "name": "G4",
                    "midi": 67,
                    "time": 10.196055999999999,
                    "velocity": 0.47244094488188976,
                    "duration": 0.39215599999999995
                },
                {
                    "name": "C5",
                    "midi": 72,
                    "time": 10.196055999999999,
                    "velocity": 0.47244094488188976,
                    "duration": 0.39215599999999995
                },
                {
                    "name": "F#4",
                    "midi": 66,
                    "time": 10.588211999999999,
                    "velocity": 0.47244094488188976,
                    "duration": 0.39215599999999995
                },
                {
                    "name": "A4",
                    "midi": 69,
                    "time": 10.588211999999999,
                    "velocity": 0.47244094488188976,
                    "duration": 0.39215599999999995
                },
                {
                    "name": "C5",
                    "midi": 72,
                    "time": 10.588211999999999,
                    "velocity": 0.47244094488188976,
                    "duration": 0.39215599999999995
                },
                {
                    "name": "D5",
                    "midi": 74,
                    "time": 10.588211999999999,
                    "velocity": 0.47244094488188976,
                    "duration": 0.39215599999999995
                },
                {
                    "name": "D4",
                    "midi": 62,
                    "time": 10.980367999999999,
                    "velocity": 0.47244094488188976,
                    "duration": 0.19199304166666664
                },
                {
                    "name": "G4",
                    "midi": 67,
                    "time": 10.980367999999999,
                    "velocity": 0.47244094488188976,
                    "duration": 0.19199304166666664
                },
                {
                    "name": "B4",
                    "midi": 71,
                    "time": 10.980367999999999,
                    "velocity": 0.47244094488188976,
                    "duration": 0.19199304166666664
                },
                {
                    "name": "E4",
                    "midi": 64,
                    "time": 11.960757999999998,
                    "velocity": 0.47244094488188976,
                    "duration": 0.5228746666666666
                },
                {
                    "name": "G4",
                    "midi": 67,
                    "time": 11.960757999999998,
                    "velocity": 0.47244094488188976,
                    "duration": 0.5228746666666666
                },
                {
                    "name": "C5",
                    "midi": 72,
                    "time": 11.960757999999998,
                    "velocity": 0.47244094488188976,
                    "duration": 0.5228746666666666
                },
                {
                    "name": "D4",
                    "midi": 62,
                    "time": 12.745069999999998,
                    "velocity": 0.47244094488188976,
                    "duration": 0.5228746666666666
                },
                {
                    "name": "F4",
                    "midi": 65,
                    "time": 12.745069999999998,
                    "velocity": 0.47244094488188976,
                    "duration": 0.5228746666666666
                },
                {
                    "name": "G4",
                    "midi": 67,
                    "time": 12.745069999999998,
                    "velocity": 0.47244094488188976,
                    "duration": 0.5228746666666666
                },
                {
                    "name": "B4",
                    "midi": 71,
                    "time": 12.745069999999998,
                    "velocity": 0.47244094488188976,
                    "duration": 0.5228746666666666
                },
                {
                    "name": "D4",
                    "midi": 62,
                    "time": 13.529381999999998,
                    "velocity": 0.47244094488188976,
                    "duration": 0.5228746666666666
                },
                {
                    "name": "F4",
                    "midi": 65,
                    "time": 13.529381999999998,
                    "velocity": 0.47244094488188976,
                    "duration": 0.5228746666666666
                },
                {
                    "name": "G4",
                    "midi": 67,
                    "time": 13.529381999999998,
                    "velocity": 0.47244094488188976,
                    "duration": 0.5228746666666666
                },
                {
                    "name": "B4",
                    "midi": 71,
                    "time": 13.529381999999998,
                    "velocity": 0.47244094488188976,
                    "duration": 0.5228746666666666
                },
                {
                    "name": "E4",
                    "midi": 64,
                    "time": 14.313693999999998,
                    "velocity": 0.47244094488188976,
                    "duration": 0.5228746666666666
                },
                {
                    "name": "G4",
                    "midi": 67,
                    "time": 14.313693999999998,
                    "velocity": 0.47244094488188976,
                    "duration": 0.5228746666666666
                },
                {
                    "name": "C5",
                    "midi": 72,
                    "time": 14.313693999999998,
                    "velocity": 0.47244094488188976,
                    "duration": 0.5228746666666666
                },
                {
                    "name": "E4",
                    "midi": 64,
                    "time": 14.901927999999998,
                    "velocity": 0.47244094488188976,
                    "duration": 0.7843119999999999
                },
                {
                    "name": "G4",
                    "midi": 67,
                    "time": 14.901927999999998,
                    "velocity": 0.47244094488188976,
                    "duration": 0.7843119999999999
                },
                {
                    "name": "A4",
                    "midi": 69,
                    "time": 14.901927999999998,
                    "velocity": 0.47244094488188976,
                    "duration": 0.7843119999999999
                },
                {
                    "name": "C#5",
                    "midi": 73,
                    "time": 14.901927999999998,
                    "velocity": 0.47244094488188976,
                    "duration": 0.7843119999999999
                },
                {
                    "name": "D4",
                    "midi": 62,
                    "time": 15.686239999999998,
                    "velocity": 0.47244094488188976,
                    "duration": 0.39215599999999995
                },
                {
                    "name": "F4",
                    "midi": 65,
                    "time": 15.686239999999998,
                    "velocity": 0.47244094488188976,
                    "duration": 0.39215599999999995
                },
                {
                    "name": "A4",
                    "midi": 69,
                    "time": 15.686239999999998,
                    "velocity": 0.47244094488188976,
                    "duration": 0.39215599999999995
                },
                {
                    "name": "D4",
                    "midi": 62,
                    "time": 16.078395999999998,
                    "velocity": 0.47244094488188976,
                    "duration": 0.39215599999999995
                },
                {
                    "name": "F4",
                    "midi": 65,
                    "time": 16.078395999999998,
                    "velocity": 0.47244094488188976,
                    "duration": 0.39215599999999995
                },
                {
                    "name": "B4",
                    "midi": 71,
                    "time": 16.078395999999998,
                    "velocity": 0.47244094488188976,
                    "duration": 0.39215599999999995
                },
                {
                    "name": "C4",
                    "midi": 60,
                    "time": 16.470551999999998,
                    "velocity": 0.47244094488188976,
                    "duration": 0.39215599999999995
                },
                {
                    "name": "E4",
                    "midi": 64,
                    "time": 16.470551999999998,
                    "velocity": 0.47244094488188976,
                    "duration": 0.39215599999999995
                },
                {
                    "name": "G4",
                    "midi": 67,
                    "time": 16.470551999999998,
                    "velocity": 0.47244094488188976,
                    "duration": 0.39215599999999995
                },
                {
                    "name": "C5",
                    "midi": 72,
                    "time": 16.470551999999998,
                    "velocity": 0.47244094488188976,
                    "duration": 0.39215599999999995
                },
                {
                    "name": "E4",
                    "midi": 64,
                    "time": 16.862707999999998,
                    "velocity": 0.47244094488188976,
                    "duration": 0.39215599999999995
                },
                {
                    "name": "A4",
                    "midi": 69,
                    "time": 16.862707999999998,
                    "velocity": 0.47244094488188976,
                    "duration": 0.39215599999999995
                },
                {
                    "name": "C5",
                    "midi": 72,
                    "time": 16.862707999999998,
                    "velocity": 0.47244094488188976,
                    "duration": 0.39215599999999995
                },
                {
                    "name": "G4",
                    "midi": 67,
                    "time": 17.254863999999998,
                    "velocity": 0.47244094488188976,
                    "duration": 0.39215599999999995
                },
                {
                    "name": "B4",
                    "midi": 71,
                    "time": 17.254863999999998,
                    "velocity": 0.47244094488188976,
                    "duration": 0.39215599999999995
                },
                {
                    "name": "D5",
                    "midi": 74,
                    "time": 17.254863999999998,
                    "velocity": 0.47244094488188976,
                    "duration": 0.39215599999999995
                },
                {
                    "name": "G#4",
                    "midi": 68,
                    "time": 17.647019999999998,
                    "velocity": 0.47244094488188976,
                    "duration": 0.39215599999999995
                },
                {
                    "name": "B4",
                    "midi": 71,
                    "time": 17.647019999999998,
                    "velocity": 0.47244094488188976,
                    "duration": 0.39215599999999995
                },
                {
                    "name": "D5",
                    "midi": 74,
                    "time": 17.647019999999998,
                    "velocity": 0.47244094488188976,
                    "duration": 0.39215599999999995
                },
                {
                    "name": "F#4",
                    "midi": 66,
                    "time": 18.039175999999998,
                    "velocity": 0.47244094488188976,
                    "duration": 0.39215599999999995
                },
                {
                    "name": "A4",
                    "midi": 69,
                    "time": 18.039175999999998,
                    "velocity": 0.47244094488188976,
                    "duration": 0.39215599999999995
                },
                {
                    "name": "C5",
                    "midi": 72,
                    "time": 18.039175999999998,
                    "velocity": 0.47244094488188976,
                    "duration": 0.39215599999999995
                },
                {
                    "name": "F#4",
                    "midi": 66,
                    "time": 18.431331999999998,
                    "velocity": 0.47244094488188976,
                    "duration": 0.39215599999999995
                },
                {
                    "name": "A4",
                    "midi": 69,
                    "time": 18.431331999999998,
                    "velocity": 0.47244094488188976,
                    "duration": 0.39215599999999995
                },
                {
                    "name": "C5",
                    "midi": 72,
                    "time": 18.431331999999998,
                    "velocity": 0.47244094488188976,
                    "duration": 0.39215599999999995
                },
                {
                    "name": "D4",
                    "midi": 62,
                    "time": 18.823487999999998,
                    "velocity": 0.47244094488188976,
                    "duration": 0.19199304166666664
                },
                {
                    "name": "G4",
                    "midi": 67,
                    "time": 18.823487999999998,
                    "velocity": 0.47244094488188976,
                    "duration": 0.19199304166666664
                },
                {
                    "name": "B4",
                    "midi": 71,
                    "time": 18.823487999999998,
                    "velocity": 0.47244094488188976,
                    "duration": 0.19199304166666664
                },
                {
                    "name": "D4",
                    "midi": 62,
                    "time": 19.803877999999997,
                    "velocity": 0.47244094488188976,
                    "duration": 0.5228746666666666
                },
                {
                    "name": "G4",
                    "midi": 67,
                    "time": 19.803877999999997,
                    "velocity": 0.47244094488188976,
                    "duration": 0.5228746666666666
                },
                {
                    "name": "B4",
                    "midi": 71,
                    "time": 19.803877999999997,
                    "velocity": 0.47244094488188976,
                    "duration": 0.5228746666666666
                },
                {
                    "name": "E4",
                    "midi": 64,
                    "time": 20.588189999999997,
                    "velocity": 0.47244094488188976,
                    "duration": 0.5228746666666666
                },
                {
                    "name": "G4",
                    "midi": 67,
                    "time": 20.588189999999997,
                    "velocity": 0.47244094488188976,
                    "duration": 0.5228746666666666
                },
                {
                    "name": "C5",
                    "midi": 72,
                    "time": 20.588189999999997,
                    "velocity": 0.47244094488188976,
                    "duration": 0.5228746666666666
                },
                {
                    "name": "F4",
                    "midi": 65,
                    "time": 21.372501999999997,
                    "velocity": 0.47244094488188976,
                    "duration": 0.5228746666666666
                },
                {
                    "name": "A4",
                    "midi": 69,
                    "time": 21.372501999999997,
                    "velocity": 0.47244094488188976,
                    "duration": 0.5228746666666666
                },
                {
                    "name": "D5",
                    "midi": 74,
                    "time": 21.372501999999997,
                    "velocity": 0.47244094488188976,
                    "duration": 0.5228746666666666
                },
                {
                    "name": "E4",
                    "midi": 64,
                    "time": 22.156813999999997,
                    "velocity": 0.47244094488188976,
                    "duration": 0.5228746666666666
                },
                {
                    "name": "G4",
                    "midi": 67,
                    "time": 22.156813999999997,
                    "velocity": 0.47244094488188976,
                    "duration": 0.5228746666666666
                },
                {
                    "name": "C5",
                    "midi": 72,
                    "time": 22.156813999999997,
                    "velocity": 0.47244094488188976,
                    "duration": 0.5228746666666666
                },
                {
                    "name": "D4",
                    "midi": 62,
                    "time": 22.941125999999997,
                    "velocity": 0.47244094488188976,
                    "duration": 0.5228746666666666
                },
                {
                    "name": "F4",
                    "midi": 65,
                    "time": 22.941125999999997,
                    "velocity": 0.47244094488188976,
                    "duration": 0.5228746666666666
                },
                {
                    "name": "G4",
                    "midi": 67,
                    "time": 22.941125999999997,
                    "velocity": 0.47244094488188976,
                    "duration": 0.5228746666666666
                },
                {
                    "name": "B4",
                    "midi": 71,
                    "time": 22.941125999999997,
                    "velocity": 0.47244094488188976,
                    "duration": 0.5228746666666666
                },
                {
                    "name": "E4",
                    "midi": 64,
                    "time": 23.725437999999997,
                    "velocity": 0.47244094488188976,
                    "duration": 0.5228746666666666
                },
                {
                    "name": "G4",
                    "midi": 67,
                    "time": 23.725437999999997,
                    "velocity": 0.47244094488188976,
                    "duration": 0.5228746666666666
                },
                {
                    "name": "C5",
                    "midi": 72,
                    "time": 23.725437999999997,
                    "velocity": 0.47244094488188976,
                    "duration": 0.5228746666666666
                },
                {
                    "name": "E4",
                    "midi": 64,
                    "time": 24.509749999999997,
                    "velocity": 0.47244094488188976,
                    "duration": 0.5228746666666666
                },
                {
                    "name": "G4",
                    "midi": 67,
                    "time": 24.509749999999997,
                    "velocity": 0.47244094488188976,
                    "duration": 0.5228746666666666
                },
                {
                    "name": "C5",
                    "midi": 72,
                    "time": 24.509749999999997,
                    "velocity": 0.47244094488188976,
                    "duration": 0.5228746666666666
                },
                {
                    "name": "C4",
                    "midi": 60,
                    "time": 25.294061999999997,
                    "velocity": 0.47244094488188976,
                    "duration": 0.5228746666666666
                },
                {
                    "name": "F4",
                    "midi": 65,
                    "time": 25.294061999999997,
                    "velocity": 0.47244094488188976,
                    "duration": 0.5228746666666666
                },
                {
                    "name": "A4",
                    "midi": 69,
                    "time": 25.294061999999997,
                    "velocity": 0.47244094488188976,
                    "duration": 0.5228746666666666
                },
                {
                    "name": "D4",
                    "midi": 62,
                    "time": 26.078373999999997,
                    "velocity": 0.47244094488188976,
                    "duration": 0.5228746666666666
                },
                {
                    "name": "G4",
                    "midi": 67,
                    "time": 26.078373999999997,
                    "velocity": 0.47244094488188976,
                    "duration": 0.5228746666666666
                },
                {
                    "name": "B4",
                    "midi": 71,
                    "time": 26.078373999999997,
                    "velocity": 0.47244094488188976,
                    "duration": 0.5228746666666666
                },
                {
                    "name": "E4",
                    "midi": 64,
                    "time": 26.862685999999997,
                    "velocity": 0.47244094488188976,
                    "duration": 0.5228746666666666
                },
                {
                    "name": "G4",
                    "midi": 67,
                    "time": 26.862685999999997,
                    "velocity": 0.47244094488188976,
                    "duration": 0.5228746666666666
                },
                {
                    "name": "C5",
                    "midi": 72,
                    "time": 26.862685999999997,
                    "velocity": 0.47244094488188976,
                    "duration": 0.5228746666666666
                },
                {
                    "name": "E4",
                    "midi": 64,
                    "time": 27.646997999999996,
                    "velocity": 0.47244094488188976,
                    "duration": 0.5228746666666666
                },
                {
                    "name": "G4",
                    "midi": 67,
                    "time": 27.646997999999996,
                    "velocity": 0.47244094488188976,
                    "duration": 0.5228746666666666
                },
                {
                    "name": "C5",
                    "midi": 72,
                    "time": 27.646997999999996,
                    "velocity": 0.47244094488188976,
                    "duration": 0.5228746666666666
                },
                {
                    "name": "C4",
                    "midi": 60,
                    "time": 28.431309999999996,
                    "velocity": 0.47244094488188976,
                    "duration": 0.5228746666666666
                },
                {
                    "name": "F4",
                    "midi": 65,
                    "time": 28.431309999999996,
                    "velocity": 0.47244094488188976,
                    "duration": 0.5228746666666666
                },
                {
                    "name": "A4",
                    "midi": 69,
                    "time": 28.431309999999996,
                    "velocity": 0.47244094488188976,
                    "duration": 0.5228746666666666
                },
                {
                    "name": "D4",
                    "midi": 62,
                    "time": 29.215621999999996,
                    "velocity": 0.47244094488188976,
                    "duration": 0.5228746666666666
                },
                {
                    "name": "G4",
                    "midi": 67,
                    "time": 29.215621999999996,
                    "velocity": 0.47244094488188976,
                    "duration": 0.5228746666666666
                },
                {
                    "name": "B4",
                    "midi": 71,
                    "time": 29.215621999999996,
                    "velocity": 0.47244094488188976,
                    "duration": 0.5228746666666666
                },
                {
                    "name": "E4",
                    "midi": 64,
                    "time": 29.999933999999996,
                    "velocity": 0.47244094488188976,
                    "duration": 0.5228746666666666
                },
                {
                    "name": "G4",
                    "midi": 67,
                    "time": 29.999933999999996,
                    "velocity": 0.47244094488188976,
                    "duration": 0.5228746666666666
                },
                {
                    "name": "C5",
                    "midi": 72,
                    "time": 29.999933999999996,
                    "velocity": 0.47244094488188976,
                    "duration": 0.5228746666666666
                },
                {
                    "name": "C4",
                    "midi": 60,
                    "time": 30.784245999999996,
                    "velocity": 0.47244094488188976,
                    "duration": 0.5228746666666666
                },
                {
                    "name": "E4",
                    "midi": 64,
                    "time": 30.784245999999996,
                    "velocity": 0.47244094488188976,
                    "duration": 0.5228746666666666
                },
                {
                    "name": "A4",
                    "midi": 69,
                    "time": 30.784245999999996,
                    "velocity": 0.47244094488188976,
                    "duration": 0.5228746666666666
                },
                {
                    "name": "E4",
                    "midi": 64,
                    "time": 31.568557999999996,
                    "velocity": 0.47244094488188976,
                    "duration": 0.5228746666666666
                },
                {
                    "name": "G#4",
                    "midi": 68,
                    "time": 31.568557999999996,
                    "velocity": 0.47244094488188976,
                    "duration": 0.5228746666666666
                },
                {
                    "name": "B4",
                    "midi": 71,
                    "time": 31.568557999999996,
                    "velocity": 0.47244094488188976,
                    "duration": 0.5228746666666666
                },
                {
                    "name": "D5",
                    "midi": 74,
                    "time": 31.568557999999996,
                    "velocity": 0.47244094488188976,
                    "duration": 0.5228746666666666
                },
                {
                    "name": "E4",
                    "midi": 64,
                    "time": 32.352869999999996,
                    "velocity": 0.47244094488188976,
                    "duration": 0.5228746666666666
                },
                {
                    "name": "A4",
                    "midi": 69,
                    "time": 32.352869999999996,
                    "velocity": 0.47244094488188976,
                    "duration": 0.5228746666666666
                },
                {
                    "name": "C5",
                    "midi": 72,
                    "time": 32.352869999999996,
                    "velocity": 0.47244094488188976,
                    "duration": 0.5228746666666666
                },
                {
                    "name": "D4",
                    "midi": 62,
                    "time": 33.137181999999996,
                    "velocity": 0.47244094488188976,
                    "duration": 0.5228746666666666
                },
                {
                    "name": "F#4",
                    "midi": 66,
                    "time": 33.137181999999996,
                    "velocity": 0.47244094488188976,
                    "duration": 0.5228746666666666
                },
                {
                    "name": "A4",
                    "midi": 69,
                    "time": 33.137181999999996,
                    "velocity": 0.47244094488188976,
                    "duration": 0.5228746666666666
                },
                {
                    "name": "C5",
                    "midi": 72,
                    "time": 33.137181999999996,
                    "velocity": 0.47244094488188976,
                    "duration": 0.5228746666666666
                },
                {
                    "name": "D4",
                    "midi": 62,
                    "time": 33.921493999999996,
                    "velocity": 0.47244094488188976,
                    "duration": 0.5228746666666666
                },
                {
                    "name": "G4",
                    "midi": 67,
                    "time": 33.921493999999996,
                    "velocity": 0.47244094488188976,
                    "duration": 0.5228746666666666
                },
                {
                    "name": "B4",
                    "midi": 71,
                    "time": 33.921493999999996,
                    "velocity": 0.47244094488188976,
                    "duration": 0.5228746666666666
                },
                {
                    "name": "B3",
                    "midi": 59,
                    "time": 34.705805999999995,
                    "velocity": 0.47244094488188976,
                    "duration": 0.5228746666666666
                },
                {
                    "name": "E4",
                    "midi": 64,
                    "time": 34.705805999999995,
                    "velocity": 0.47244094488188976,
                    "duration": 0.5228746666666666
                },
                {
                    "name": "G4",
                    "midi": 67,
                    "time": 34.705805999999995,
                    "velocity": 0.47244094488188976,
                    "duration": 0.5228746666666666
                },
                {
                    "name": "E4",
                    "midi": 64,
                    "time": 35.490117999999995,
                    "velocity": 0.47244094488188976,
                    "duration": 0.5228746666666666
                },
                {
                    "name": "G4",
                    "midi": 67,
                    "time": 35.490117999999995,
                    "velocity": 0.47244094488188976,
                    "duration": 0.5228746666666666
                },
                {
                    "name": "A4",
                    "midi": 69,
                    "time": 35.490117999999995,
                    "velocity": 0.47244094488188976,
                    "duration": 0.5228746666666666
                },
                {
                    "name": "C#5",
                    "midi": 73,
                    "time": 35.490117999999995,
                    "velocity": 0.47244094488188976,
                    "duration": 0.5228746666666666
                },
                {
                    "name": "F#4",
                    "midi": 66,
                    "time": 36.078351999999995,
                    "velocity": 0.47244094488188976,
                    "duration": 0.1919930416666702
                },
                {
                    "name": "A4",
                    "midi": 69,
                    "time": 36.078351999999995,
                    "velocity": 0.47244094488188976,
                    "duration": 0.1919930416666702
                },
                {
                    "name": "D5",
                    "midi": 74,
                    "time": 36.078351999999995,
                    "velocity": 0.47244094488188976,
                    "duration": 0.1919930416666702
                },
                {
                    "name": "D4",
                    "midi": 62,
                    "time": 37.646976,
                    "velocity": 0.47244094488188976,
                    "duration": 0.06535933333333332
                },
                {
                    "name": "G4",
                    "midi": 67,
                    "time": 37.646976,
                    "velocity": 0.47244094488188976,
                    "duration": 0.06535933333333332
                },
                {
                    "name": "B4",
                    "midi": 71,
                    "time": 37.646976,
                    "velocity": 0.47244094488188976,
                    "duration": 0.06535933333333332
                },
                {
                    "name": "D4",
                    "midi": 62,
                    "time": 38.039132,
                    "velocity": 0.47244094488188976,
                    "duration": 0.06535933333333332
                },
                {
                    "name": "G4",
                    "midi": 67,
                    "time": 38.039132,
                    "velocity": 0.47244094488188976,
                    "duration": 0.06535933333333332
                },
                {
                    "name": "B4",
                    "midi": 71,
                    "time": 38.039132,
                    "velocity": 0.47244094488188976,
                    "duration": 0.06535933333333332
                },
                {
                    "name": "E4",
                    "midi": 64,
                    "time": 38.431288,
                    "velocity": 0.47244094488188976,
                    "duration": 0.06535933333333332
                },
                {
                    "name": "G4",
                    "midi": 67,
                    "time": 38.431288,
                    "velocity": 0.47244094488188976,
                    "duration": 0.06535933333333332
                },
                {
                    "name": "C#5",
                    "midi": 73,
                    "time": 38.431288,
                    "velocity": 0.47244094488188976,
                    "duration": 0.06535933333333332
                },
                {
                    "name": "E4",
                    "midi": 64,
                    "time": 38.823444,
                    "velocity": 0.47244094488188976,
                    "duration": 0.06535933333333332
                },
                {
                    "name": "G4",
                    "midi": 67,
                    "time": 38.823444,
                    "velocity": 0.47244094488188976,
                    "duration": 0.06535933333333332
                },
                {
                    "name": "C#5",
                    "midi": 73,
                    "time": 38.823444,
                    "velocity": 0.47244094488188976,
                    "duration": 0.06535933333333332
                },
                {
                    "name": "F#4",
                    "midi": 66,
                    "time": 39.2156,
                    "velocity": 0.47244094488188976,
                    "duration": 0.06535933333333332
                },
                {
                    "name": "A4",
                    "midi": 69,
                    "time": 39.2156,
                    "velocity": 0.47244094488188976,
                    "duration": 0.06535933333333332
                },
                {
                    "name": "D5",
                    "midi": 74,
                    "time": 39.2156,
                    "velocity": 0.47244094488188976,
                    "duration": 0.06535933333333332
                },
                {
                    "name": "D4",
                    "midi": 62,
                    "time": 40.784224,
                    "velocity": 0.47244094488188976,
                    "duration": 0.06535933333333332
                },
                {
                    "name": "G4",
                    "midi": 67,
                    "time": 40.784224,
                    "velocity": 0.47244094488188976,
                    "duration": 0.06535933333333332
                },
                {
                    "name": "B4",
                    "midi": 71,
                    "time": 40.784224,
                    "velocity": 0.47244094488188976,
                    "duration": 0.06535933333333332
                },
                {
                    "name": "D4",
                    "midi": 62,
                    "time": 41.17638,
                    "velocity": 0.47244094488188976,
                    "duration": 0.06535933333333332
                },
                {
                    "name": "G4",
                    "midi": 67,
                    "time": 41.17638,
                    "velocity": 0.47244094488188976,
                    "duration": 0.06535933333333332
                },
                {
                    "name": "B4",
                    "midi": 71,
                    "time": 41.17638,
                    "velocity": 0.47244094488188976,
                    "duration": 0.06535933333333332
                },
                {
                    "name": "E4",
                    "midi": 64,
                    "time": 41.568536,
                    "velocity": 0.47244094488188976,
                    "duration": 0.06535933333333332
                },
                {
                    "name": "A4",
                    "midi": 69,
                    "time": 41.568536,
                    "velocity": 0.47244094488188976,
                    "duration": 0.06535933333333332
                },
                {
                    "name": "C#5",
                    "midi": 73,
                    "time": 41.568536,
                    "velocity": 0.47244094488188976,
                    "duration": 0.06535933333333332
                },
                {
                    "name": "E4",
                    "midi": 64,
                    "time": 41.960692,
                    "velocity": 0.47244094488188976,
                    "duration": 0.06535933333333332
                },
                {
                    "name": "A4",
                    "midi": 69,
                    "time": 41.960692,
                    "velocity": 0.47244094488188976,
                    "duration": 0.06535933333333332
                },
                {
                    "name": "C#5",
                    "midi": 73,
                    "time": 41.960692,
                    "velocity": 0.47244094488188976,
                    "duration": 0.06535933333333332
                },
                {
                    "name": "F#4",
                    "midi": 66,
                    "time": 42.352848,
                    "velocity": 0.47244094488188976,
                    "duration": 0.06535933333333332
                },
                {
                    "name": "A4",
                    "midi": 69,
                    "time": 42.352848,
                    "velocity": 0.47244094488188976,
                    "duration": 0.06535933333333332
                },
                {
                    "name": "D5",
                    "midi": 74,
                    "time": 42.352848,
                    "velocity": 0.47244094488188976,
                    "duration": 0.06535933333333332
                },
                {
                    "name": "E4",
                    "midi": 64,
                    "time": 42.745004,
                    "velocity": 0.47244094488188976,
                    "duration": 0.39215599999999995
                },
                {
                    "name": "A4",
                    "midi": 69,
                    "time": 42.745004,
                    "velocity": 0.47244094488188976,
                    "duration": 0.39215599999999995
                },
                {
                    "name": "C#5",
                    "midi": 73,
                    "time": 42.745004,
                    "velocity": 0.47244094488188976,
                    "duration": 0.39215599999999995
                },
                {
                    "name": "F#4",
                    "midi": 66,
                    "time": 43.13716,
                    "velocity": 0.47244094488188976,
                    "duration": 0.39215599999999995
                },
                {
                    "name": "A4",
                    "midi": 69,
                    "time": 43.13716,
                    "velocity": 0.47244094488188976,
                    "duration": 0.39215599999999995
                },
                {
                    "name": "D5",
                    "midi": 74,
                    "time": 43.13716,
                    "velocity": 0.47244094488188976,
                    "duration": 0.39215599999999995
                },
                {
                    "name": "G4",
                    "midi": 67,
                    "time": 43.529316,
                    "velocity": 0.47244094488188976,
                    "duration": 0.39215599999999995
                },
                {
                    "name": "A4",
                    "midi": 69,
                    "time": 43.529316,
                    "velocity": 0.47244094488188976,
                    "duration": 0.39215599999999995
                },
                {
                    "name": "C#5",
                    "midi": 73,
                    "time": 43.529316,
                    "velocity": 0.47244094488188976,
                    "duration": 0.39215599999999995
                },
                {
                    "name": "F#4",
                    "midi": 66,
                    "time": 43.921472,
                    "velocity": 0.47244094488188976,
                    "duration": 0.39215599999999995
                },
                {
                    "name": "A4",
                    "midi": 69,
                    "time": 43.921472,
                    "velocity": 0.47244094488188976,
                    "duration": 0.39215599999999995
                },
                {
                    "name": "D5",
                    "midi": 74,
                    "time": 43.921472,
                    "velocity": 0.47244094488188976,
                    "duration": 0.39215599999999995
                },
                {
                    "name": "E4",
                    "midi": 64,
                    "time": 44.313628,
                    "velocity": 0.47244094488188976,
                    "duration": 0.39215599999999995
                },
                {
                    "name": "A4",
                    "midi": 69,
                    "time": 44.313628,
                    "velocity": 0.47244094488188976,
                    "duration": 0.39215599999999995
                },
                {
                    "name": "C#5",
                    "midi": 73,
                    "time": 44.313628,
                    "velocity": 0.47244094488188976,
                    "duration": 0.39215599999999995
                },
                {
                    "name": "F#4",
                    "midi": 66,
                    "time": 44.705784,
                    "velocity": 0.47244094488188976,
                    "duration": 0.39215599999999995
                },
                {
                    "name": "A4",
                    "midi": 69,
                    "time": 44.705784,
                    "velocity": 0.47244094488188976,
                    "duration": 0.39215599999999995
                },
                {
                    "name": "D5",
                    "midi": 74,
                    "time": 44.705784,
                    "velocity": 0.47244094488188976,
                    "duration": 0.39215599999999995
                },
                {
                    "name": "G4",
                    "midi": 67,
                    "time": 45.09794,
                    "velocity": 0.47244094488188976,
                    "duration": 0.39215599999999995
                },
                {
                    "name": "A4",
                    "midi": 69,
                    "time": 45.09794,
                    "velocity": 0.47244094488188976,
                    "duration": 0.39215599999999995
                },
                {
                    "name": "C#5",
                    "midi": 73,
                    "time": 45.09794,
                    "velocity": 0.47244094488188976,
                    "duration": 0.39215599999999995
                },
                {
                    "name": "F#4",
                    "midi": 66,
                    "time": 45.490096,
                    "velocity": 0.47244094488188976,
                    "duration": 0.1919930416666702
                },
                {
                    "name": "A4",
                    "midi": 69,
                    "time": 45.490096,
                    "velocity": 0.47244094488188976,
                    "duration": 0.1919930416666702
                },
                {
                    "name": "D5",
                    "midi": 74,
                    "time": 45.490096,
                    "velocity": 0.47244094488188976,
                    "duration": 0.1919930416666702
                },
                {
                    "name": "F#4",
                    "midi": 66,
                    "time": 46.47048600000001,
                    "velocity": 0.47244094488188976,
                    "duration": 0.5228746666666666
                },
                {
                    "name": "A4",
                    "midi": 69,
                    "time": 46.47048600000001,
                    "velocity": 0.47244094488188976,
                    "duration": 0.5228746666666666
                },
                {
                    "name": "C5",
                    "midi": 72,
                    "time": 46.47048600000001,
                    "velocity": 0.47244094488188976,
                    "duration": 0.5228746666666666
                },
                {
                    "name": "D5",
                    "midi": 74,
                    "time": 46.47048600000001,
                    "velocity": 0.47244094488188976,
                    "duration": 0.5228746666666666
                },
                {
                    "name": "D4",
                    "midi": 62,
                    "time": 47.25479800000001,
                    "velocity": 0.47244094488188976,
                    "duration": 0.5228746666666666
                },
                {
                    "name": "G4",
                    "midi": 67,
                    "time": 47.25479800000001,
                    "velocity": 0.47244094488188976,
                    "duration": 0.5228746666666666
                },
                {
                    "name": "B4",
                    "midi": 71,
                    "time": 47.25479800000001,
                    "velocity": 0.47244094488188976,
                    "duration": 0.5228746666666666
                },
                {
                    "name": "F#4",
                    "midi": 66,
                    "time": 48.03911000000001,
                    "velocity": 0.47244094488188976,
                    "duration": 0.5228746666666666
                },
                {
                    "name": "A4",
                    "midi": 69,
                    "time": 48.03911000000001,
                    "velocity": 0.47244094488188976,
                    "duration": 0.5228746666666666
                },
                {
                    "name": "B4",
                    "midi": 71,
                    "time": 48.03911000000001,
                    "velocity": 0.47244094488188976,
                    "duration": 0.5228746666666666
                },
                {
                    "name": "D#5",
                    "midi": 75,
                    "time": 48.03911000000001,
                    "velocity": 0.47244094488188976,
                    "duration": 0.5228746666666666
                },
                {
                    "name": "G4",
                    "midi": 67,
                    "time": 48.82342200000001,
                    "velocity": 0.47244094488188976,
                    "duration": 0.5228746666666666
                },
                {
                    "name": "B4",
                    "midi": 71,
                    "time": 48.82342200000001,
                    "velocity": 0.47244094488188976,
                    "duration": 0.5228746666666666
                },
                {
                    "name": "E5",
                    "midi": 76,
                    "time": 48.82342200000001,
                    "velocity": 0.47244094488188976,
                    "duration": 0.5228746666666666
                },
                {
                    "name": "G4",
                    "midi": 67,
                    "time": 49.60773400000001,
                    "velocity": 0.47244094488188976,
                    "duration": 0.5228746666666666
                },
                {
                    "name": "B4",
                    "midi": 71,
                    "time": 49.60773400000001,
                    "velocity": 0.47244094488188976,
                    "duration": 0.5228746666666666
                },
                {
                    "name": "D5",
                    "midi": 74,
                    "time": 49.60773400000001,
                    "velocity": 0.47244094488188976,
                    "duration": 0.5228746666666666
                },
                {
                    "name": "G4",
                    "midi": 67,
                    "time": 50.39204600000001,
                    "velocity": 0.47244094488188976,
                    "duration": 0.5228746666666666
                },
                {
                    "name": "C5",
                    "midi": 72,
                    "time": 50.39204600000001,
                    "velocity": 0.47244094488188976,
                    "duration": 0.5228746666666666
                },
                {
                    "name": "E5",
                    "midi": 76,
                    "time": 50.39204600000001,
                    "velocity": 0.47244094488188976,
                    "duration": 0.5228746666666666
                },
                {
                    "name": "G3",
                    "midi": 55,
                    "time": 50.98028000000001,
                    "velocity": 0.47244094488188976,
                    "duration": 0.3267966666666666
                },
                {
                    "name": "C4",
                    "midi": 60,
                    "time": 50.98028000000001,
                    "velocity": 0.47244094488188976,
                    "duration": 0.3267966666666666
                },
                {
                    "name": "E4",
                    "midi": 64,
                    "time": 50.98028000000001,
                    "velocity": 0.47244094488188976,
                    "duration": 0.3267966666666666
                },
                {
                    "name": "B3",
                    "midi": 59,
                    "time": 51.37243600000001,
                    "velocity": 0.47244094488188976,
                    "duration": 0.3267966666666666
                },
                {
                    "name": "D4",
                    "midi": 62,
                    "time": 51.37243600000001,
                    "velocity": 0.47244094488188976,
                    "duration": 0.3267966666666666
                },
                {
                    "name": "G4",
                    "midi": 67,
                    "time": 51.37243600000001,
                    "velocity": 0.47244094488188976,
                    "duration": 0.3267966666666666
                },
                {
                    "name": "B3",
                    "midi": 59,
                    "time": 51.76459200000001,
                    "velocity": 0.47244094488188976,
                    "duration": 0.3267966666666666
                },
                {
                    "name": "D4",
                    "midi": 62,
                    "time": 51.76459200000001,
                    "velocity": 0.47244094488188976,
                    "duration": 0.3267966666666666
                },
                {
                    "name": "G4",
                    "midi": 67,
                    "time": 51.76459200000001,
                    "velocity": 0.47244094488188976,
                    "duration": 0.3267966666666666
                },
                {
                    "name": "B3",
                    "midi": 59,
                    "time": 52.15674800000001,
                    "velocity": 0.47244094488188976,
                    "duration": 0.3267966666666666
                },
                {
                    "name": "E4",
                    "midi": 64,
                    "time": 52.15674800000001,
                    "velocity": 0.47244094488188976,
                    "duration": 0.3267966666666666
                },
                {
                    "name": "G#4",
                    "midi": 68,
                    "time": 52.15674800000001,
                    "velocity": 0.47244094488188976,
                    "duration": 0.3267966666666666
                },
                {
                    "name": "C4",
                    "midi": 60,
                    "time": 52.54890400000001,
                    "velocity": 0.47244094488188976,
                    "duration": 0.3267966666666666
                },
                {
                    "name": "E4",
                    "midi": 64,
                    "time": 52.54890400000001,
                    "velocity": 0.47244094488188976,
                    "duration": 0.3267966666666666
                },
                {
                    "name": "A4",
                    "midi": 69,
                    "time": 52.54890400000001,
                    "velocity": 0.47244094488188976,
                    "duration": 0.3267966666666666
                },
                {
                    "name": "A3",
                    "midi": 57,
                    "time": 52.94106000000001,
                    "velocity": 0.47244094488188976,
                    "duration": 0.3267966666666666
                },
                {
                    "name": "D4",
                    "midi": 62,
                    "time": 52.94106000000001,
                    "velocity": 0.47244094488188976,
                    "duration": 0.3267966666666666
                },
                {
                    "name": "F#4",
                    "midi": 66,
                    "time": 52.94106000000001,
                    "velocity": 0.47244094488188976,
                    "duration": 0.3267966666666666
                },
                {
                    "name": "B3",
                    "midi": 59,
                    "time": 53.33321600000001,
                    "velocity": 0.47244094488188976,
                    "duration": 0.3267966666666666
                },
                {
                    "name": "D4",
                    "midi": 62,
                    "time": 53.33321600000001,
                    "velocity": 0.47244094488188976,
                    "duration": 0.3267966666666666
                },
                {
                    "name": "G4",
                    "midi": 67,
                    "time": 53.33321600000001,
                    "velocity": 0.47244094488188976,
                    "duration": 0.3267966666666666
                },
                {
                    "name": "G3",
                    "midi": 55,
                    "time": 53.72537200000001,
                    "velocity": 0.47244094488188976,
                    "duration": 0.3267966666666666
                },
                {
                    "name": "C4",
                    "midi": 60,
                    "time": 53.72537200000001,
                    "velocity": 0.47244094488188976,
                    "duration": 0.3267966666666666
                },
                {
                    "name": "E4",
                    "midi": 64,
                    "time": 53.72537200000001,
                    "velocity": 0.47244094488188976,
                    "duration": 0.3267966666666666
                },
                {
                    "name": "A3",
                    "midi": 57,
                    "time": 54.11752800000001,
                    "velocity": 0.47244094488188976,
                    "duration": 0.3267966666666666
                },
                {
                    "name": "C4",
                    "midi": 60,
                    "time": 54.11752800000001,
                    "velocity": 0.47244094488188976,
                    "duration": 0.3267966666666666
                },
                {
                    "name": "F#4",
                    "midi": 66,
                    "time": 54.11752800000001,
                    "velocity": 0.47244094488188976,
                    "duration": 0.3267966666666666
                },
                {
                    "name": "F#3",
                    "midi": 54,
                    "time": 54.50968400000001,
                    "velocity": 0.47244094488188976,
                    "duration": 0.3267966666666666
                },
                {
                    "name": "B3",
                    "midi": 59,
                    "time": 54.50968400000001,
                    "velocity": 0.47244094488188976,
                    "duration": 0.3267966666666666
                },
                {
                    "name": "D#4",
                    "midi": 63,
                    "time": 54.50968400000001,
                    "velocity": 0.47244094488188976,
                    "duration": 0.3267966666666666
                },
                {
                    "name": "G3",
                    "midi": 55,
                    "time": 54.90184000000001,
                    "velocity": 0.47244094488188976,
                    "duration": 0.3267966666666666
                },
                {
                    "name": "B3",
                    "midi": 59,
                    "time": 54.90184000000001,
                    "velocity": 0.47244094488188976,
                    "duration": 0.3267966666666666
                },
                {
                    "name": "E4",
                    "midi": 64,
                    "time": 54.90184000000001,
                    "velocity": 0.47244094488188976,
                    "duration": 0.3267966666666666
                },
                {
                    "name": "E3",
                    "midi": 52,
                    "time": 55.29399600000001,
                    "velocity": 0.47244094488188976,
                    "duration": 0.3267966666666666
                },
                {
                    "name": "A3",
                    "midi": 57,
                    "time": 55.29399600000001,
                    "velocity": 0.47244094488188976,
                    "duration": 0.3267966666666666
                },
                {
                    "name": "C#4",
                    "midi": 61,
                    "time": 55.29399600000001,
                    "velocity": 0.47244094488188976,
                    "duration": 0.3267966666666666
                },
                {
                    "name": "A3",
                    "midi": 57,
                    "time": 55.68615200000001,
                    "velocity": 0.47244094488188976,
                    "duration": 0.3267966666666666
                },
                {
                    "name": "D4",
                    "midi": 62,
                    "time": 55.68615200000001,
                    "velocity": 0.47244094488188976,
                    "duration": 0.3267966666666666
                },
                {
                    "name": "F#4",
                    "midi": 66,
                    "time": 55.68615200000001,
                    "velocity": 0.47244094488188976,
                    "duration": 0.3267966666666666
                },
                {
                    "name": "A3",
                    "midi": 57,
                    "time": 56.07830800000001,
                    "velocity": 0.47244094488188976,
                    "duration": 0.3267966666666666
                },
                {
                    "name": "D4",
                    "midi": 62,
                    "time": 56.07830800000001,
                    "velocity": 0.47244094488188976,
                    "duration": 0.3267966666666666
                },
                {
                    "name": "F#4",
                    "midi": 66,
                    "time": 56.07830800000001,
                    "velocity": 0.47244094488188976,
                    "duration": 0.3267966666666666
                },
                {
                    "name": "D4",
                    "midi": 62,
                    "time": 56.47046400000001,
                    "velocity": 0.47244094488188976,
                    "duration": 0.3267966666666666
                },
                {
                    "name": "G4",
                    "midi": 67,
                    "time": 56.47046400000001,
                    "velocity": 0.47244094488188976,
                    "duration": 0.3267966666666666
                },
                {
                    "name": "B4",
                    "midi": 71,
                    "time": 56.47046400000001,
                    "velocity": 0.47244094488188976,
                    "duration": 0.3267966666666666
                },
                {
                    "name": "E4",
                    "midi": 64,
                    "time": 56.86262000000001,
                    "velocity": 0.47244094488188976,
                    "duration": 0.3267966666666666
                },
                {
                    "name": "A4",
                    "midi": 69,
                    "time": 56.86262000000001,
                    "velocity": 0.47244094488188976,
                    "duration": 0.3267966666666666
                },
                {
                    "name": "B4",
                    "midi": 71,
                    "time": 56.86262000000001,
                    "velocity": 0.47244094488188976,
                    "duration": 0.3267966666666666
                },
                {
                    "name": "D4",
                    "midi": 62,
                    "time": 57.25477600000001,
                    "velocity": 0.47244094488188976,
                    "duration": 0.3267966666666666
                },
                {
                    "name": "G4",
                    "midi": 67,
                    "time": 57.25477600000001,
                    "velocity": 0.47244094488188976,
                    "duration": 0.3267966666666666
                },
                {
                    "name": "B4",
                    "midi": 71,
                    "time": 57.25477600000001,
                    "velocity": 0.47244094488188976,
                    "duration": 0.3267966666666666
                },
                {
                    "name": "C4",
                    "midi": 60,
                    "time": 57.64693200000001,
                    "velocity": 0.47244094488188976,
                    "duration": 0.3267966666666666
                },
                {
                    "name": "F#4",
                    "midi": 66,
                    "time": 57.64693200000001,
                    "velocity": 0.47244094488188976,
                    "duration": 0.3267966666666666
                },
                {
                    "name": "A4",
                    "midi": 69,
                    "time": 57.64693200000001,
                    "velocity": 0.47244094488188976,
                    "duration": 0.3267966666666666
                },
                {
                    "name": "B3",
                    "midi": 59,
                    "time": 58.03908800000001,
                    "velocity": 0.47244094488188976,
                    "duration": 0.3267966666666666
                },
                {
                    "name": "D4",
                    "midi": 62,
                    "time": 58.03908800000001,
                    "velocity": 0.47244094488188976,
                    "duration": 0.3267966666666666
                },
                {
                    "name": "G4",
                    "midi": 67,
                    "time": 58.03908800000001,
                    "velocity": 0.47244094488188976,
                    "duration": 0.3267966666666666
                },
                {
                    "name": "B3",
                    "midi": 59,
                    "time": 58.43124400000001,
                    "velocity": 0.47244094488188976,
                    "duration": 0.3267966666666666
                },
                {
                    "name": "E4",
                    "midi": 64,
                    "time": 58.43124400000001,
                    "velocity": 0.47244094488188976,
                    "duration": 0.3267966666666666
                },
                {
                    "name": "G#4",
                    "midi": 68,
                    "time": 58.43124400000001,
                    "velocity": 0.47244094488188976,
                    "duration": 0.3267966666666666
                },
                {
                    "name": "C4",
                    "midi": 60,
                    "time": 58.82340000000001,
                    "velocity": 0.47244094488188976,
                    "duration": 0.3267966666666666
                },
                {
                    "name": "E4",
                    "midi": 64,
                    "time": 58.82340000000001,
                    "velocity": 0.47244094488188976,
                    "duration": 0.3267966666666666
                },
                {
                    "name": "A4",
                    "midi": 69,
                    "time": 58.82340000000001,
                    "velocity": 0.47244094488188976,
                    "duration": 0.3267966666666666
                },
                {
                    "name": "A3",
                    "midi": 57,
                    "time": 59.21555600000001,
                    "velocity": 0.47244094488188976,
                    "duration": 0.3267966666666666
                },
                {
                    "name": "D4",
                    "midi": 62,
                    "time": 59.21555600000001,
                    "velocity": 0.47244094488188976,
                    "duration": 0.3267966666666666
                },
                {
                    "name": "F#4",
                    "midi": 66,
                    "time": 59.21555600000001,
                    "velocity": 0.47244094488188976,
                    "duration": 0.3267966666666666
                },
                {
                    "name": "B3",
                    "midi": 59,
                    "time": 59.60771200000001,
                    "velocity": 0.47244094488188976,
                    "duration": 0.3267966666666666
                },
                {
                    "name": "D4",
                    "midi": 62,
                    "time": 59.60771200000001,
                    "velocity": 0.47244094488188976,
                    "duration": 0.3267966666666666
                },
                {
                    "name": "G4",
                    "midi": 67,
                    "time": 59.60771200000001,
                    "velocity": 0.47244094488188976,
                    "duration": 0.3267966666666666
                },
                {
                    "name": "G3",
                    "midi": 55,
                    "time": 59.999868000000006,
                    "velocity": 0.47244094488188976,
                    "duration": 0.3267966666666666
                },
                {
                    "name": "C4",
                    "midi": 60,
                    "time": 59.999868000000006,
                    "velocity": 0.47244094488188976,
                    "duration": 0.3267966666666666
                },
                {
                    "name": "E4",
                    "midi": 64,
                    "time": 59.999868000000006,
                    "velocity": 0.47244094488188976,
                    "duration": 0.3267966666666666
                },
                {
                    "name": "A3",
                    "midi": 57,
                    "time": 60.392024000000006,
                    "velocity": 0.47244094488188976,
                    "duration": 0.3267966666666666
                },
                {
                    "name": "C4",
                    "midi": 60,
                    "time": 60.392024000000006,
                    "velocity": 0.47244094488188976,
                    "duration": 0.3267966666666666
                },
                {
                    "name": "F#4",
                    "midi": 66,
                    "time": 60.392024000000006,
                    "velocity": 0.47244094488188976,
                    "duration": 0.3267966666666666
                },
                {
                    "name": "A4",
                    "midi": 69,
                    "time": 60.392024000000006,
                    "velocity": 0.47244094488188976,
                    "duration": 0.3267966666666666
                },
                {
                    "name": "F#3",
                    "midi": 54,
                    "time": 60.784180000000006,
                    "velocity": 0.47244094488188976,
                    "duration": 0.3267966666666666
                },
                {
                    "name": "B3",
                    "midi": 59,
                    "time": 60.784180000000006,
                    "velocity": 0.47244094488188976,
                    "duration": 0.3267966666666666
                },
                {
                    "name": "D#4",
                    "midi": 63,
                    "time": 60.784180000000006,
                    "velocity": 0.47244094488188976,
                    "duration": 0.3267966666666666
                },
                {
                    "name": "F#4",
                    "midi": 66,
                    "time": 60.784180000000006,
                    "velocity": 0.47244094488188976,
                    "duration": 0.3267966666666666
                },
                {
                    "name": "G3",
                    "midi": 55,
                    "time": 61.176336000000006,
                    "velocity": 0.47244094488188976,
                    "duration": 0.3267966666666666
                },
                {
                    "name": "B3",
                    "midi": 59,
                    "time": 61.176336000000006,
                    "velocity": 0.47244094488188976,
                    "duration": 0.3267966666666666
                },
                {
                    "name": "E4",
                    "midi": 64,
                    "time": 61.176336000000006,
                    "velocity": 0.47244094488188976,
                    "duration": 0.3267966666666666
                },
                {
                    "name": "G4",
                    "midi": 67,
                    "time": 61.176336000000006,
                    "velocity": 0.47244094488188976,
                    "duration": 0.3267966666666666
                },
                {
                    "name": "E3",
                    "midi": 52,
                    "time": 61.568492000000006,
                    "velocity": 0.47244094488188976,
                    "duration": 0.3267966666666666
                },
                {
                    "name": "A3",
                    "midi": 57,
                    "time": 61.568492000000006,
                    "velocity": 0.47244094488188976,
                    "duration": 0.3267966666666666
                },
                {
                    "name": "C#4",
                    "midi": 61,
                    "time": 61.568492000000006,
                    "velocity": 0.47244094488188976,
                    "duration": 0.3267966666666666
                },
                {
                    "name": "E4",
                    "midi": 64,
                    "time": 61.568492000000006,
                    "velocity": 0.47244094488188976,
                    "duration": 0.3267966666666666
                },
                {
                    "name": "A3",
                    "midi": 57,
                    "time": 61.960648000000006,
                    "velocity": 0.47244094488188976,
                    "duration": 0.3267966666666666
                },
                {
                    "name": "D4",
                    "midi": 62,
                    "time": 61.960648000000006,
                    "velocity": 0.47244094488188976,
                    "duration": 0.3267966666666666
                },
                {
                    "name": "F#4",
                    "midi": 66,
                    "time": 61.960648000000006,
                    "velocity": 0.47244094488188976,
                    "duration": 0.3267966666666666
                },
                {
                    "name": "A3",
                    "midi": 57,
                    "time": 62.352804000000006,
                    "velocity": 0.47244094488188976,
                    "duration": 0.3267966666666666
                },
                {
                    "name": "D4",
                    "midi": 62,
                    "time": 62.352804000000006,
                    "velocity": 0.47244094488188976,
                    "duration": 0.3267966666666666
                },
                {
                    "name": "F#4",
                    "midi": 66,
                    "time": 62.352804000000006,
                    "velocity": 0.47244094488188976,
                    "duration": 0.3267966666666666
                },
                {
                    "name": "B3",
                    "midi": 59,
                    "time": 62.744960000000006,
                    "velocity": 0.47244094488188976,
                    "duration": 0.3267966666666666
                },
                {
                    "name": "D4",
                    "midi": 62,
                    "time": 62.744960000000006,
                    "velocity": 0.47244094488188976,
                    "duration": 0.3267966666666666
                },
                {
                    "name": "G4",
                    "midi": 67,
                    "time": 62.744960000000006,
                    "velocity": 0.47244094488188976,
                    "duration": 0.3267966666666666
                },
                {
                    "name": "C4",
                    "midi": 60,
                    "time": 63.137116000000006,
                    "velocity": 0.47244094488188976,
                    "duration": 0.3267966666666666
                },
                {
                    "name": "E4",
                    "midi": 64,
                    "time": 63.137116000000006,
                    "velocity": 0.47244094488188976,
                    "duration": 0.3267966666666666
                },
                {
                    "name": "A4",
                    "midi": 69,
                    "time": 63.137116000000006,
                    "velocity": 0.47244094488188976,
                    "duration": 0.3267966666666666
                },
                {
                    "name": "D4",
                    "midi": 62,
                    "time": 63.529272000000006,
                    "velocity": 0.47244094488188976,
                    "duration": 0.3267966666666666
                },
                {
                    "name": "G4",
                    "midi": 67,
                    "time": 63.529272000000006,
                    "velocity": 0.47244094488188976,
                    "duration": 0.3267966666666666
                },
                {
                    "name": "B4",
                    "midi": 71,
                    "time": 63.529272000000006,
                    "velocity": 0.47244094488188976,
                    "duration": 0.3267966666666666
                },
                {
                    "name": "C4",
                    "midi": 60,
                    "time": 63.921428000000006,
                    "velocity": 0.47244094488188976,
                    "duration": 0.3267966666666666
                },
                {
                    "name": "F#4",
                    "midi": 66,
                    "time": 63.921428000000006,
                    "velocity": 0.47244094488188976,
                    "duration": 0.3267966666666666
                },
                {
                    "name": "A4",
                    "midi": 69,
                    "time": 63.921428000000006,
                    "velocity": 0.47244094488188976,
                    "duration": 0.3267966666666666
                },
                {
                    "name": "B3",
                    "midi": 59,
                    "time": 64.509662,
                    "velocity": 0.47244094488188976,
                    "duration": 0.5228746666666666
                },
                {
                    "name": "D4",
                    "midi": 62,
                    "time": 64.509662,
                    "velocity": 0.47244094488188976,
                    "duration": 0.5228746666666666
                },
                {
                    "name": "G4",
                    "midi": 67,
                    "time": 64.509662,
                    "velocity": 0.47244094488188976,
                    "duration": 0.5228746666666666
                },
                {
                    "name": "C4",
                    "midi": 60,
                    "time": 65.293974,
                    "velocity": 0.47244094488188976,
                    "duration": 0.5228746666666666
                },
                {
                    "name": "D4",
                    "midi": 62,
                    "time": 65.293974,
                    "velocity": 0.47244094488188976,
                    "duration": 0.5228746666666666
                },
                {
                    "name": "F#4",
                    "midi": 66,
                    "time": 65.293974,
                    "velocity": 0.47244094488188976,
                    "duration": 0.5228746666666666
                },
                {
                    "name": "A4",
                    "midi": 69,
                    "time": 65.293974,
                    "velocity": 0.47244094488188976,
                    "duration": 0.5228746666666666
                },
                {
                    "name": "D4",
                    "midi": 62,
                    "time": 66.078286,
                    "velocity": 0.47244094488188976,
                    "duration": 0.5228746666666666
                },
                {
                    "name": "G4",
                    "midi": 67,
                    "time": 66.078286,
                    "velocity": 0.47244094488188976,
                    "duration": 0.5228746666666666
                },
                {
                    "name": "B4",
                    "midi": 71,
                    "time": 66.078286,
                    "velocity": 0.47244094488188976,
                    "duration": 0.5228746666666666
                },
                {
                    "name": "C4",
                    "midi": 60,
                    "time": 66.862598,
                    "velocity": 0.47244094488188976,
                    "duration": 0.5228746666666666
                },
                {
                    "name": "D4",
                    "midi": 62,
                    "time": 66.862598,
                    "velocity": 0.47244094488188976,
                    "duration": 0.5228746666666666
                },
                {
                    "name": "F#4",
                    "midi": 66,
                    "time": 66.862598,
                    "velocity": 0.47244094488188976,
                    "duration": 0.5228746666666666
                },
                {
                    "name": "A4",
                    "midi": 69,
                    "time": 66.862598,
                    "velocity": 0.47244094488188976,
                    "duration": 0.5228746666666666
                },
                {
                    "name": "D4",
                    "midi": 62,
                    "time": 67.64691,
                    "velocity": 0.47244094488188976,
                    "duration": 0.5228746666666666
                },
                {
                    "name": "G4",
                    "midi": 67,
                    "time": 67.64691,
                    "velocity": 0.47244094488188976,
                    "duration": 0.5228746666666666
                },
                {
                    "name": "B4",
                    "midi": 71,
                    "time": 67.64691,
                    "velocity": 0.47244094488188976,
                    "duration": 0.5228746666666666
                },
                {
                    "name": "D4",
                    "midi": 62,
                    "time": 68.431222,
                    "velocity": 0.47244094488188976,
                    "duration": 0.5228746666666666
                },
                {
                    "name": "F#4",
                    "midi": 66,
                    "time": 68.431222,
                    "velocity": 0.47244094488188976,
                    "duration": 0.5228746666666666
                },
                {
                    "name": "A4",
                    "midi": 69,
                    "time": 68.431222,
                    "velocity": 0.47244094488188976,
                    "duration": 0.5228746666666666
                },
                {
                    "name": "C5",
                    "midi": 72,
                    "time": 68.431222,
                    "velocity": 0.47244094488188976,
                    "duration": 0.5228746666666666
                },
                {
                    "name": "B3",
                    "midi": 59,
                    "time": 69.019456,
                    "velocity": 0.47244094488188976,
                    "duration": 0.3267966666666666
                },
                {
                    "name": "D4",
                    "midi": 62,
                    "time": 69.019456,
                    "velocity": 0.47244094488188976,
                    "duration": 0.3267966666666666
                },
                {
                    "name": "G4",
                    "midi": 67,
                    "time": 69.019456,
                    "velocity": 0.47244094488188976,
                    "duration": 0.3267966666666666
                },
                {
                    "name": "C4",
                    "midi": 60,
                    "time": 69.411612,
                    "velocity": 0.47244094488188976,
                    "duration": 0.3267966666666666
                },
                {
                    "name": "D4",
                    "midi": 62,
                    "time": 69.411612,
                    "velocity": 0.47244094488188976,
                    "duration": 0.3267966666666666
                },
                {
                    "name": "F#4",
                    "midi": 66,
                    "time": 69.411612,
                    "velocity": 0.47244094488188976,
                    "duration": 0.3267966666666666
                },
                {
                    "name": "A4",
                    "midi": 69,
                    "time": 69.411612,
                    "velocity": 0.47244094488188976,
                    "duration": 0.3267966666666666
                },
                {
                    "name": "B3",
                    "midi": 59,
                    "time": 69.803768,
                    "velocity": 0.47244094488188976,
                    "duration": 0.3267966666666666
                },
                {
                    "name": "D4",
                    "midi": 62,
                    "time": 69.803768,
                    "velocity": 0.47244094488188976,
                    "duration": 0.3267966666666666
                },
                {
                    "name": "G4",
                    "midi": 67,
                    "time": 69.803768,
                    "velocity": 0.47244094488188976,
                    "duration": 0.3267966666666666
                },
                {
                    "name": "C4",
                    "midi": 60,
                    "time": 70.195924,
                    "velocity": 0.47244094488188976,
                    "duration": 0.3267966666666666
                },
                {
                    "name": "D4",
                    "midi": 62,
                    "time": 70.195924,
                    "velocity": 0.47244094488188976,
                    "duration": 0.3267966666666666
                },
                {
                    "name": "F#4",
                    "midi": 66,
                    "time": 70.195924,
                    "velocity": 0.47244094488188976,
                    "duration": 0.3267966666666666
                },
                {
                    "name": "A4",
                    "midi": 69,
                    "time": 70.195924,
                    "velocity": 0.47244094488188976,
                    "duration": 0.3267966666666666
                },
                {
                    "name": "B3",
                    "midi": 59,
                    "time": 70.58808,
                    "velocity": 0.47244094488188976,
                    "duration": 0.06535933333333332
                },
                {
                    "name": "D4",
                    "midi": 62,
                    "time": 70.58808,
                    "velocity": 0.47244094488188976,
                    "duration": 0.06535933333333332
                },
                {
                    "name": "G4",
                    "midi": 67,
                    "time": 70.58808,
                    "velocity": 0.47244094488188976,
                    "duration": 0.06535933333333332
                },
                {
                    "name": "B3",
                    "midi": 59,
                    "time": 70.784158,
                    "velocity": 0.47244094488188976,
                    "duration": 0.06535933333333332
                },
                {
                    "name": "D4",
                    "midi": 62,
                    "time": 70.784158,
                    "velocity": 0.47244094488188976,
                    "duration": 0.06535933333333332
                },
                {
                    "name": "G4",
                    "midi": 67,
                    "time": 70.784158,
                    "velocity": 0.47244094488188976,
                    "duration": 0.06535933333333332
                },
                {
                    "name": "C4",
                    "midi": 60,
                    "time": 72.156704,
                    "velocity": 0.47244094488188976,
                    "duration": 0.3267966666666666
                },
                {
                    "name": "F4",
                    "midi": 65,
                    "time": 72.156704,
                    "velocity": 0.47244094488188976,
                    "duration": 0.3267966666666666
                },
                {
                    "name": "A4",
                    "midi": 69,
                    "time": 72.156704,
                    "velocity": 0.47244094488188976,
                    "duration": 0.3267966666666666
                },
                {
                    "name": "C5",
                    "midi": 72,
                    "time": 72.156704,
                    "velocity": 0.47244094488188976,
                    "duration": 0.3267966666666666
                },
                {
                    "name": "F5",
                    "midi": 77,
                    "time": 72.156704,
                    "velocity": 0.47244094488188976,
                    "duration": 0.3267966666666666
                },
                {
                    "name": "A5",
                    "midi": 81,
                    "time": 72.156704,
                    "velocity": 0.47244094488188976,
                    "duration": 0.3267966666666666
                },
                {
                    "name": "D4",
                    "midi": 62,
                    "time": 73.725328,
                    "velocity": 0.47244094488188976,
                    "duration": 0.3267966666666666
                },
                {
                    "name": "F4",
                    "midi": 65,
                    "time": 73.725328,
                    "velocity": 0.47244094488188976,
                    "duration": 0.3267966666666666
                },
                {
                    "name": "A4",
                    "midi": 69,
                    "time": 73.725328,
                    "velocity": 0.47244094488188976,
                    "duration": 0.3267966666666666
                },
                {
                    "name": "D5",
                    "midi": 74,
                    "time": 73.725328,
                    "velocity": 0.47244094488188976,
                    "duration": 0.3267966666666666
                },
                {
                    "name": "F5",
                    "midi": 77,
                    "time": 73.725328,
                    "velocity": 0.47244094488188976,
                    "duration": 0.3267966666666666
                },
                {
                    "name": "A5",
                    "midi": 81,
                    "time": 73.725328,
                    "velocity": 0.47244094488188976,
                    "duration": 0.3267966666666666
                },
                {
                    "name": "E4",
                    "midi": 64,
                    "time": 75.293952,
                    "velocity": 0.47244094488188976,
                    "duration": 0.3267966666666666
                },
                {
                    "name": "G#4",
                    "midi": 68,
                    "time": 75.293952,
                    "velocity": 0.47244094488188976,
                    "duration": 0.3267966666666666
                },
                {
                    "name": "B4",
                    "midi": 71,
                    "time": 75.293952,
                    "velocity": 0.47244094488188976,
                    "duration": 0.3267966666666666
                },
                {
                    "name": "E5",
                    "midi": 76,
                    "time": 75.293952,
                    "velocity": 0.47244094488188976,
                    "duration": 0.3267966666666666
                },
                {
                    "name": "G#5",
                    "midi": 80,
                    "time": 75.293952,
                    "velocity": 0.47244094488188976,
                    "duration": 0.3267966666666666
                },
                {
                    "name": "E4",
                    "midi": 64,
                    "time": 77.842966,
                    "velocity": 0.47244094488188976,
                    "duration": 0.5228746666666666
                },
                {
                    "name": "A4",
                    "midi": 69,
                    "time": 77.842966,
                    "velocity": 0.47244094488188976,
                    "duration": 0.5228746666666666
                },
                {
                    "name": "C5",
                    "midi": 72,
                    "time": 77.842966,
                    "velocity": 0.47244094488188976,
                    "duration": 0.5228746666666666
                },
                {
                    "name": "E4",
                    "midi": 64,
                    "time": 78.627278,
                    "velocity": 0.47244094488188976,
                    "duration": 0.5228746666666666
                },
                {
                    "name": "G#4",
                    "midi": 68,
                    "time": 78.627278,
                    "velocity": 0.47244094488188976,
                    "duration": 0.5228746666666666
                },
                {
                    "name": "B4",
                    "midi": 71,
                    "time": 78.627278,
                    "velocity": 0.47244094488188976,
                    "duration": 0.5228746666666666
                },
                {
                    "name": "E4",
                    "midi": 64,
                    "time": 79.41159,
                    "velocity": 0.47244094488188976,
                    "duration": 0.5228746666666666
                },
                {
                    "name": "G#4",
                    "midi": 68,
                    "time": 79.41159,
                    "velocity": 0.47244094488188976,
                    "duration": 0.5228746666666666
                },
                {
                    "name": "B4",
                    "midi": 71,
                    "time": 79.41159,
                    "velocity": 0.47244094488188976,
                    "duration": 0.5228746666666666
                },
                {
                    "name": "E4",
                    "midi": 64,
                    "time": 80.195902,
                    "velocity": 0.47244094488188976,
                    "duration": 0.5228746666666666
                },
                {
                    "name": "A4",
                    "midi": 69,
                    "time": 80.195902,
                    "velocity": 0.47244094488188976,
                    "duration": 0.5228746666666666
                },
                {
                    "name": "C5",
                    "midi": 72,
                    "time": 80.195902,
                    "velocity": 0.47244094488188976,
                    "duration": 0.5228746666666666
                },
                {
                    "name": "E4",
                    "midi": 64,
                    "time": 80.980214,
                    "velocity": 0.47244094488188976,
                    "duration": 0.5228746666666666
                },
                {
                    "name": "G4",
                    "midi": 67,
                    "time": 80.980214,
                    "velocity": 0.47244094488188976,
                    "duration": 0.5228746666666666
                },
                {
                    "name": "C5",
                    "midi": 72,
                    "time": 80.980214,
                    "velocity": 0.47244094488188976,
                    "duration": 0.5228746666666666
                },
                {
                    "name": "D4",
                    "midi": 62,
                    "time": 81.764526,
                    "velocity": 0.47244094488188976,
                    "duration": 0.5228746666666666
                },
                {
                    "name": "F4",
                    "midi": 65,
                    "time": 81.764526,
                    "velocity": 0.47244094488188976,
                    "duration": 0.5228746666666666
                },
                {
                    "name": "G4",
                    "midi": 67,
                    "time": 81.764526,
                    "velocity": 0.47244094488188976,
                    "duration": 0.5228746666666666
                },
                {
                    "name": "B4",
                    "midi": 71,
                    "time": 81.764526,
                    "velocity": 0.47244094488188976,
                    "duration": 0.5228746666666666
                },
                {
                    "name": "D4",
                    "midi": 62,
                    "time": 82.548838,
                    "velocity": 0.47244094488188976,
                    "duration": 0.5228746666666666
                },
                {
                    "name": "F4",
                    "midi": 65,
                    "time": 82.548838,
                    "velocity": 0.47244094488188976,
                    "duration": 0.5228746666666666
                },
                {
                    "name": "G4",
                    "midi": 67,
                    "time": 82.548838,
                    "velocity": 0.47244094488188976,
                    "duration": 0.5228746666666666
                },
                {
                    "name": "B4",
                    "midi": 71,
                    "time": 82.548838,
                    "velocity": 0.47244094488188976,
                    "duration": 0.5228746666666666
                },
                {
                    "name": "E4",
                    "midi": 64,
                    "time": 83.33315,
                    "velocity": 0.47244094488188976,
                    "duration": 0.5228746666666666
                },
                {
                    "name": "G4",
                    "midi": 67,
                    "time": 83.33315,
                    "velocity": 0.47244094488188976,
                    "duration": 0.5228746666666666
                },
                {
                    "name": "C5",
                    "midi": 72,
                    "time": 83.33315,
                    "velocity": 0.47244094488188976,
                    "duration": 0.5228746666666666
                },
                {
                    "name": "E4",
                    "midi": 64,
                    "time": 84.117462,
                    "velocity": 0.47244094488188976,
                    "duration": 0.5228746666666666
                },
                {
                    "name": "G4",
                    "midi": 67,
                    "time": 84.117462,
                    "velocity": 0.47244094488188976,
                    "duration": 0.5228746666666666
                },
                {
                    "name": "B4",
                    "midi": 71,
                    "time": 84.117462,
                    "velocity": 0.47244094488188976,
                    "duration": 0.5228746666666666
                },
                {
                    "name": "F#4",
                    "midi": 66,
                    "time": 84.901774,
                    "velocity": 0.47244094488188976,
                    "duration": 0.5228746666666666
                },
                {
                    "name": "A4",
                    "midi": 69,
                    "time": 84.901774,
                    "velocity": 0.47244094488188976,
                    "duration": 0.5228746666666666
                },
                {
                    "name": "B4",
                    "midi": 71,
                    "time": 84.901774,
                    "velocity": 0.47244094488188976,
                    "duration": 0.5228746666666666
                },
                {
                    "name": "D#5",
                    "midi": 75,
                    "time": 84.901774,
                    "velocity": 0.47244094488188976,
                    "duration": 0.5228746666666666
                },
                {
                    "name": "F#4",
                    "midi": 66,
                    "time": 85.686086,
                    "velocity": 0.47244094488188976,
                    "duration": 0.5228746666666666
                },
                {
                    "name": "A4",
                    "midi": 69,
                    "time": 85.686086,
                    "velocity": 0.47244094488188976,
                    "duration": 0.5228746666666666
                },
                {
                    "name": "B4",
                    "midi": 71,
                    "time": 85.686086,
                    "velocity": 0.47244094488188976,
                    "duration": 0.5228746666666666
                },
                {
                    "name": "D#5",
                    "midi": 75,
                    "time": 85.686086,
                    "velocity": 0.47244094488188976,
                    "duration": 0.5228746666666666
                },
                {
                    "name": "G4",
                    "midi": 67,
                    "time": 86.470398,
                    "velocity": 0.47244094488188976,
                    "duration": 0.5228746666666666
                },
                {
                    "name": "B4",
                    "midi": 71,
                    "time": 86.470398,
                    "velocity": 0.47244094488188976,
                    "duration": 0.5228746666666666
                },
                {
                    "name": "E5",
                    "midi": 76,
                    "time": 86.470398,
                    "velocity": 0.47244094488188976,
                    "duration": 0.5228746666666666
                },
                {
                    "name": "E4",
                    "midi": 64,
                    "time": 87.25471,
                    "velocity": 0.47244094488188976,
                    "duration": 0.5228746666666666
                },
                {
                    "name": "A4",
                    "midi": 69,
                    "time": 87.25471,
                    "velocity": 0.47244094488188976,
                    "duration": 0.5228746666666666
                },
                {
                    "name": "C5",
                    "midi": 72,
                    "time": 87.25471,
                    "velocity": 0.47244094488188976,
                    "duration": 0.5228746666666666
                },
                {
                    "name": "E4",
                    "midi": 64,
                    "time": 88.039022,
                    "velocity": 0.47244094488188976,
                    "duration": 0.5228746666666666
                },
                {
                    "name": "G4",
                    "midi": 67,
                    "time": 88.039022,
                    "velocity": 0.47244094488188976,
                    "duration": 0.5228746666666666
                },
                {
                    "name": "B4",
                    "midi": 71,
                    "time": 88.039022,
                    "velocity": 0.47244094488188976,
                    "duration": 0.5228746666666666
                },
                {
                    "name": "F#4",
                    "midi": 66,
                    "time": 88.823334,
                    "velocity": 0.47244094488188976,
                    "duration": 0.5228746666666666
                },
                {
                    "name": "A4",
                    "midi": 69,
                    "time": 88.823334,
                    "velocity": 0.47244094488188976,
                    "duration": 0.5228746666666666
                },
                {
                    "name": "B4",
                    "midi": 71,
                    "time": 88.823334,
                    "velocity": 0.47244094488188976,
                    "duration": 0.5228746666666666
                },
                {
                    "name": "D#5",
                    "midi": 75,
                    "time": 88.823334,
                    "velocity": 0.47244094488188976,
                    "duration": 0.5228746666666666
                },
                {
                    "name": "G#4",
                    "midi": 68,
                    "time": 89.607646,
                    "velocity": 0.47244094488188976,
                    "duration": 0.5228746666666666
                },
                {
                    "name": "B4",
                    "midi": 71,
                    "time": 89.607646,
                    "velocity": 0.47244094488188976,
                    "duration": 0.5228746666666666
                },
                {
                    "name": "E5",
                    "midi": 76,
                    "time": 89.607646,
                    "velocity": 0.47244094488188976,
                    "duration": 0.5228746666666666
                },
                {
                    "name": "E4",
                    "midi": 64,
                    "time": 90.391958,
                    "velocity": 0.47244094488188976,
                    "duration": 0.5228746666666666
                },
                {
                    "name": "G4",
                    "midi": 67,
                    "time": 90.391958,
                    "velocity": 0.47244094488188976,
                    "duration": 0.5228746666666666
                },
                {
                    "name": "A4",
                    "midi": 69,
                    "time": 90.391958,
                    "velocity": 0.47244094488188976,
                    "duration": 0.5228746666666666
                },
                {
                    "name": "C#5",
                    "midi": 73,
                    "time": 90.391958,
                    "velocity": 0.47244094488188976,
                    "duration": 0.5228746666666666
                },
                {
                    "name": "F#4",
                    "midi": 66,
                    "time": 91.17627,
                    "velocity": 0.47244094488188976,
                    "duration": 0.5228746666666666
                },
                {
                    "name": "A4",
                    "midi": 69,
                    "time": 91.17627,
                    "velocity": 0.47244094488188976,
                    "duration": 0.5228746666666666
                },
                {
                    "name": "D5",
                    "midi": 74,
                    "time": 91.17627,
                    "velocity": 0.47244094488188976,
                    "duration": 0.5228746666666666
                },
                {
                    "name": "D4",
                    "midi": 62,
                    "time": 91.960582,
                    "velocity": 0.47244094488188976,
                    "duration": 0.5228746666666666
                },
                {
                    "name": "F4",
                    "midi": 65,
                    "time": 91.960582,
                    "velocity": 0.47244094488188976,
                    "duration": 0.5228746666666666
                },
                {
                    "name": "G4",
                    "midi": 67,
                    "time": 91.960582,
                    "velocity": 0.47244094488188976,
                    "duration": 0.5228746666666666
                },
                {
                    "name": "B4",
                    "midi": 71,
                    "time": 91.960582,
                    "velocity": 0.47244094488188976,
                    "duration": 0.5228746666666666
                },
                {
                    "name": "E4",
                    "midi": 64,
                    "time": 92.744894,
                    "velocity": 0.47244094488188976,
                    "duration": 0.5228746666666666
                },
                {
                    "name": "G4",
                    "midi": 67,
                    "time": 92.744894,
                    "velocity": 0.47244094488188976,
                    "duration": 0.5228746666666666
                },
                {
                    "name": "A#4",
                    "midi": 70,
                    "time": 92.744894,
                    "velocity": 0.47244094488188976,
                    "duration": 0.5228746666666666
                },
                {
                    "name": "C4",
                    "midi": 60,
                    "time": 93.529206,
                    "velocity": 0.47244094488188976,
                    "duration": 0.5228746666666666
                },
                {
                    "name": "F4",
                    "midi": 65,
                    "time": 93.529206,
                    "velocity": 0.47244094488188976,
                    "duration": 0.5228746666666666
                },
                {
                    "name": "A4",
                    "midi": 69,
                    "time": 93.529206,
                    "velocity": 0.47244094488188976,
                    "duration": 0.5228746666666666
                },
                {
                    "name": "D4",
                    "midi": 62,
                    "time": 94.313518,
                    "velocity": 0.47244094488188976,
                    "duration": 0.5228746666666666
                },
                {
                    "name": "F4",
                    "midi": 65,
                    "time": 94.313518,
                    "velocity": 0.47244094488188976,
                    "duration": 0.5228746666666666
                },
                {
                    "name": "A#4",
                    "midi": 70,
                    "time": 94.313518,
                    "velocity": 0.47244094488188976,
                    "duration": 0.5228746666666666
                },
                {
                    "name": "C4",
                    "midi": 60,
                    "time": 94.901752,
                    "velocity": 0.47244094488188976,
                    "duration": 0.39215599999999995
                },
                {
                    "name": "F4",
                    "midi": 65,
                    "time": 94.901752,
                    "velocity": 0.47244094488188976,
                    "duration": 0.39215599999999995
                },
                {
                    "name": "A4",
                    "midi": 69,
                    "time": 94.901752,
                    "velocity": 0.47244094488188976,
                    "duration": 0.39215599999999995
                },
                {
                    "name": "C5",
                    "midi": 72,
                    "time": 94.901752,
                    "velocity": 0.47244094488188976,
                    "duration": 0.39215599999999995
                },
                {
                    "name": "A#3",
                    "midi": 58,
                    "time": 95.293908,
                    "velocity": 0.47244094488188976,
                    "duration": 0.39215599999999995
                },
                {
                    "name": "E4",
                    "midi": 64,
                    "time": 95.293908,
                    "velocity": 0.47244094488188976,
                    "duration": 0.39215599999999995
                },
                {
                    "name": "G4",
                    "midi": 67,
                    "time": 95.293908,
                    "velocity": 0.47244094488188976,
                    "duration": 0.39215599999999995
                },
                {
                    "name": "A#4",
                    "midi": 70,
                    "time": 95.293908,
                    "velocity": 0.47244094488188976,
                    "duration": 0.39215599999999995
                },
                {
                    "name": "F5",
                    "midi": 77,
                    "time": 95.686064,
                    "velocity": 0.7244094488188977,
                    "duration": 0.0939540416666631
                },
                {
                    "name": "C5",
                    "midi": 72,
                    "time": 95.784103,
                    "velocity": 0.7244094488188977,
                    "duration": 0.0939540416666631
                },
                {
                    "name": "B4",
                    "midi": 71,
                    "time": 95.882142,
                    "velocity": 0.7244094488188977,
                    "duration": 0.0939540416666631
                },
                {
                    "name": "C5",
                    "midi": 72,
                    "time": 95.980181,
                    "velocity": 0.7244094488188977,
                    "duration": 0.0939540416666631
                },
                {
                    "name": "D5",
                    "midi": 74,
                    "time": 96.07822,
                    "velocity": 0.7244094488188977,
                    "duration": 0.0939540416666631
                },
                {
                    "name": "C5",
                    "midi": 72,
                    "time": 96.176259,
                    "velocity": 0.7244094488188977,
                    "duration": 0.0939540416666631
                },
                {
                    "name": "B4",
                    "midi": 71,
                    "time": 96.274298,
                    "velocity": 0.7244094488188977,
                    "duration": 0.0939540416666631
                },
                {
                    "name": "C5",
                    "midi": 72,
                    "time": 96.372337,
                    "velocity": 0.7244094488188977,
                    "duration": 0.0939540416666631
                },
                {
                    "name": "F5",
                    "midi": 77,
                    "time": 96.470376,
                    "velocity": 0.7244094488188977,
                    "duration": 0.0939540416666631
                },
                {
                    "name": "C5",
                    "midi": 72,
                    "time": 96.568415,
                    "velocity": 0.7244094488188977,
                    "duration": 0.0939540416666631
                },
                {
                    "name": "B4",
                    "midi": 71,
                    "time": 96.666454,
                    "velocity": 0.7244094488188977,
                    "duration": 0.0939540416666631
                },
                {
                    "name": "C5",
                    "midi": 72,
                    "time": 96.764493,
                    "velocity": 0.7244094488188977,
                    "duration": 0.0939540416666631
                },
                {
                    "name": "A5",
                    "midi": 81,
                    "time": 96.862532,
                    "velocity": 0.7244094488188977,
                    "duration": 0.1919930416666631
                },
                {
                    "name": "A#5",
                    "midi": 82,
                    "time": 97.05861,
                    "velocity": 1,
                    "duration": 0.2900320416666631
                },
                {
                    "name": "C6",
                    "midi": 84,
                    "time": 97.352727,
                    "velocity": 0.7244094488188977,
                    "duration": 0.0939540416666631
                },
                {
                    "name": "A#5",
                    "midi": 82,
                    "time": 97.450766,
                    "velocity": 0.7244094488188977,
                    "duration": 0.0939540416666631
                },
                {
                    "name": "A5",
                    "midi": 81,
                    "time": 97.548805,
                    "velocity": 0.7244094488188977,
                    "duration": 0.0939540416666631
                },
                {
                    "name": "G5",
                    "midi": 79,
                    "time": 97.646844,
                    "velocity": 0.7244094488188977,
                    "duration": 0.0939540416666631
                },
                {
                    "name": "A5",
                    "midi": 81,
                    "time": 97.744883,
                    "velocity": 0.7244094488188977,
                    "duration": 0.0939540416666631
                },
                {
                    "name": "G5",
                    "midi": 79,
                    "time": 97.842922,
                    "velocity": 0.7244094488188977,
                    "duration": 0.0939540416666631
                },
                {
                    "name": "F5",
                    "midi": 77,
                    "time": 97.940961,
                    "velocity": 0.7244094488188977,
                    "duration": 0.0939540416666631
                },
                {
                    "name": "E5",
                    "midi": 76,
                    "time": 98.039,
                    "velocity": 0.7244094488188977,
                    "duration": 0.0939540416666631
                },
                {
                    "name": "F5",
                    "midi": 77,
                    "time": 98.137039,
                    "velocity": 0.7244094488188977,
                    "duration": 0.0939540416666631
                },
                {
                    "name": "G5",
                    "midi": 79,
                    "time": 98.235078,
                    "velocity": 0.7244094488188977,
                    "duration": 0.0939540416666631
                },
                {
                    "name": "F5",
                    "midi": 77,
                    "time": 98.333117,
                    "velocity": 0.7244094488188977,
                    "duration": 0.0939540416666631
                },
                {
                    "name": "E5",
                    "midi": 76,
                    "time": 98.431156,
                    "velocity": 0.7244094488188977,
                    "duration": 0.0939540416666631
                },
                {
                    "name": "D5",
                    "midi": 74,
                    "time": 98.529195,
                    "velocity": 0.7244094488188977,
                    "duration": 0.0939540416666631
                },
                {
                    "name": "C5",
                    "midi": 72,
                    "time": 98.627234,
                    "velocity": 0.7244094488188977,
                    "duration": 0.0939540416666631
                },
                {
                    "name": "A#4",
                    "midi": 70,
                    "time": 98.725273,
                    "velocity": 0.7244094488188977,
                    "duration": 0.0939540416666631
                },
                {
                    "name": "A4",
                    "midi": 69,
                    "time": 98.823312,
                    "velocity": 0.7244094488188977,
                    "duration": 0.0939540416666631
                },
                {
                    "name": "C5",
                    "midi": 72,
                    "time": 98.921351,
                    "velocity": 0.7244094488188977,
                    "duration": 0.0939540416666631
                },
                {
                    "name": "B4",
                    "midi": 71,
                    "time": 99.01939,
                    "velocity": 0.7244094488188977,
                    "duration": 0.0939540416666631
                },
                {
                    "name": "C5",
                    "midi": 72,
                    "time": 99.117429,
                    "velocity": 0.7244094488188977,
                    "duration": 0.0939540416666631
                },
                {
                    "name": "D5",
                    "midi": 74,
                    "time": 99.215468,
                    "velocity": 0.7244094488188977,
                    "duration": 0.0939540416666631
                },
                {
                    "name": "C5",
                    "midi": 72,
                    "time": 99.313507,
                    "velocity": 0.7244094488188977,
                    "duration": 0.0939540416666631
                },
                {
                    "name": "B4",
                    "midi": 71,
                    "time": 99.411546,
                    "velocity": 0.7244094488188977,
                    "duration": 0.0939540416666631
                },
                {
                    "name": "C5",
                    "midi": 72,
                    "time": 99.509585,
                    "velocity": 0.7244094488188977,
                    "duration": 0.0939540416666631
                },
                {
                    "name": "F5",
                    "midi": 77,
                    "time": 99.607624,
                    "velocity": 0.7244094488188977,
                    "duration": 0.0939540416666631
                },
                {
                    "name": "C5",
                    "midi": 72,
                    "time": 99.705663,
                    "velocity": 0.7244094488188977,
                    "duration": 0.0939540416666631
                },
                {
                    "name": "B4",
                    "midi": 71,
                    "time": 99.803702,
                    "velocity": 0.7244094488188977,
                    "duration": 0.0939540416666631
                },
                {
                    "name": "C5",
                    "midi": 72,
                    "time": 99.901741,
                    "velocity": 0.7244094488188977,
                    "duration": 0.0939540416666631
                },
                {
                    "name": "A5",
                    "midi": 81,
                    "time": 99.99978,
                    "velocity": 0.7244094488188977,
                    "duration": 0.1919930416666631
                },
                {
                    "name": "A#5",
                    "midi": 82,
                    "time": 100.195858,
                    "velocity": 1,
                    "duration": 0.2900320416666631
                },
                {
                    "name": "C6",
                    "midi": 84,
                    "time": 100.489975,
                    "velocity": 0.7244094488188977,
                    "duration": 0.0939540416666631
                },
                {
                    "name": "A#5",
                    "midi": 82,
                    "time": 100.588014,
                    "velocity": 0.7244094488188977,
                    "duration": 0.0939540416666631
                },
                {
                    "name": "A5",
                    "midi": 81,
                    "time": 100.686053,
                    "velocity": 0.7244094488188977,
                    "duration": 0.0939540416666631
                },
                {
                    "name": "G5",
                    "midi": 79,
                    "time": 100.784092,
                    "velocity": 0.7244094488188977,
                    "duration": 0.0939540416666631
                },
                {
                    "name": "A5",
                    "midi": 81,
                    "time": 100.882131,
                    "velocity": 0.7244094488188977,
                    "duration": 0.0939540416666631
                },
                {
                    "name": "G5",
                    "midi": 79,
                    "time": 100.98017,
                    "velocity": 0.7244094488188977,
                    "duration": 0.0939540416666631
                },
                {
                    "name": "F5",
                    "midi": 77,
                    "time": 101.078209,
                    "velocity": 0.7244094488188977,
                    "duration": 0.0939540416666631
                },
                {
                    "name": "E5",
                    "midi": 76,
                    "time": 101.176248,
                    "velocity": 0.7244094488188977,
                    "duration": 0.0939540416666631
                },
                {
                    "name": "F5",
                    "midi": 77,
                    "time": 101.274287,
                    "velocity": 0.7244094488188977,
                    "duration": 0.0939540416666631
                },
                {
                    "name": "G5",
                    "midi": 79,
                    "time": 101.372326,
                    "velocity": 0.7244094488188977,
                    "duration": 0.0939540416666631
                },
                {
                    "name": "F5",
                    "midi": 77,
                    "time": 101.470365,
                    "velocity": 0.7244094488188977,
                    "duration": 0.0939540416666631
                },
                {
                    "name": "E5",
                    "midi": 76,
                    "time": 101.568404,
                    "velocity": 0.7244094488188977,
                    "duration": 0.0939540416666631
                },
                {
                    "name": "D5",
                    "midi": 74,
                    "time": 101.666443,
                    "velocity": 0.7244094488188977,
                    "duration": 0.0939540416666631
                },
                {
                    "name": "C5",
                    "midi": 72,
                    "time": 101.764482,
                    "velocity": 0.7244094488188977,
                    "duration": 0.0939540416666631
                },
                {
                    "name": "A#4",
                    "midi": 70,
                    "time": 101.862521,
                    "velocity": 0.7244094488188977,
                    "duration": 0.0939540416666631
                },
                {
                    "name": "A4",
                    "midi": 69,
                    "time": 101.96056,
                    "velocity": 0.7244094488188977,
                    "duration": 0.0939540416666631
                },
                {
                    "name": "C5",
                    "midi": 72,
                    "time": 102.058599,
                    "velocity": 0.7244094488188977,
                    "duration": 0.0939540416666631
                },
                {
                    "name": "D5",
                    "midi": 74,
                    "time": 102.156638,
                    "velocity": 0.7244094488188977,
                    "duration": 0.0939540416666631
                },
                {
                    "name": "E5",
                    "midi": 76,
                    "time": 102.254677,
                    "velocity": 0.7244094488188977,
                    "duration": 0.0939540416666631
                },
                {
                    "name": "F5",
                    "midi": 77,
                    "time": 102.352716,
                    "velocity": 0.7244094488188977,
                    "duration": 0.0939540416666631
                },
                {
                    "name": "E5",
                    "midi": 76,
                    "time": 102.450755,
                    "velocity": 0.7244094488188977,
                    "duration": 0.0939540416666631
                },
                {
                    "name": "F5",
                    "midi": 77,
                    "time": 102.548794,
                    "velocity": 0.7244094488188977,
                    "duration": 0.0939540416666631
                },
                {
                    "name": "G5",
                    "midi": 79,
                    "time": 102.646833,
                    "velocity": 0.7244094488188977,
                    "duration": 0.0939540416666631
                },
                {
                    "name": "A5",
                    "midi": 81,
                    "time": 102.744872,
                    "velocity": 0.7244094488188977,
                    "duration": 0.0939540416666631
                },
                {
                    "name": "G5",
                    "midi": 79,
                    "time": 102.842911,
                    "velocity": 0.7244094488188977,
                    "duration": 0.0939540416666631
                },
                {
                    "name": "F5",
                    "midi": 77,
                    "time": 102.94095,
                    "velocity": 0.7244094488188977,
                    "duration": 0.0939540416666631
                },
                {
                    "name": "E5",
                    "midi": 76,
                    "time": 103.038989,
                    "velocity": 0.7244094488188977,
                    "duration": 0.0939540416666631
                },
                {
                    "name": "D5",
                    "midi": 74,
                    "time": 103.137028,
                    "velocity": 0.7244094488188977,
                    "duration": 0.0939540416666631
                },
                {
                    "name": "F5",
                    "midi": 77,
                    "time": 103.235067,
                    "velocity": 0.7244094488188977,
                    "duration": 0.0939540416666631
                },
                {
                    "name": "E5",
                    "midi": 76,
                    "time": 103.333106,
                    "velocity": 0.7244094488188977,
                    "duration": 0.0939540416666631
                },
                {
                    "name": "D5",
                    "midi": 74,
                    "time": 103.431145,
                    "velocity": 0.7244094488188977,
                    "duration": 0.0939540416666631
                },
                {
                    "name": "C#5",
                    "midi": 73,
                    "time": 103.529184,
                    "velocity": 0.7244094488188977,
                    "duration": 0.0939540416666631
                },
                {
                    "name": "D5",
                    "midi": 74,
                    "time": 103.627223,
                    "velocity": 0.7244094488188977,
                    "duration": 0.0939540416666631
                },
                {
                    "name": "E5",
                    "midi": 76,
                    "time": 103.725262,
                    "velocity": 0.7244094488188977,
                    "duration": 0.0939540416666631
                },
                {
                    "name": "C#5",
                    "midi": 73,
                    "time": 103.823301,
                    "velocity": 0.7244094488188977,
                    "duration": 0.0939540416666631
                },
                {
                    "name": "A4",
                    "midi": 69,
                    "time": 103.92134,
                    "velocity": 0.7244094488188977,
                    "duration": 0.0939540416666631
                },
                {
                    "name": "C#5",
                    "midi": 73,
                    "time": 104.019379,
                    "velocity": 0.7244094488188977,
                    "duration": 0.0939540416666631
                },
                {
                    "name": "D5",
                    "midi": 74,
                    "time": 104.117418,
                    "velocity": 0.7244094488188977,
                    "duration": 0.0939540416666631
                },
                {
                    "name": "E5",
                    "midi": 76,
                    "time": 104.215457,
                    "velocity": 0.7244094488188977,
                    "duration": 0.0939540416666631
                },
                {
                    "name": "F5",
                    "midi": 77,
                    "time": 104.313496,
                    "velocity": 0.7244094488188977,
                    "duration": 0.0939540416666631
                },
                {
                    "name": "E5",
                    "midi": 76,
                    "time": 104.411535,
                    "velocity": 0.7244094488188977,
                    "duration": 0.0939540416666631
                },
                {
                    "name": "D5",
                    "midi": 74,
                    "time": 104.509574,
                    "velocity": 0.7244094488188977,
                    "duration": 0.0939540416666631
                },
                {
                    "name": "C#5",
                    "midi": 73,
                    "time": 104.607613,
                    "velocity": 0.7244094488188977,
                    "duration": 0.0939540416666631
                },
                {
                    "name": "D5",
                    "midi": 74,
                    "time": 104.705652,
                    "velocity": 0.7244094488188977,
                    "duration": 0.0939540416666631
                },
                {
                    "name": "C5",
                    "midi": 72,
                    "time": 104.803691,
                    "velocity": 0.7244094488188977,
                    "duration": 0.0939540416666631
                },
                {
                    "name": "B4",
                    "midi": 71,
                    "time": 104.90173,
                    "velocity": 0.7244094488188977,
                    "duration": 0.0939540416666631
                },
                {
                    "name": "A4",
                    "midi": 69,
                    "time": 104.999769,
                    "velocity": 0.7244094488188977,
                    "duration": 0.0939540416666631
                },
                {
                    "name": "G#4",
                    "midi": 68,
                    "time": 105.097808,
                    "velocity": 0.7244094488188977,
                    "duration": 0.0939540416666631
                },
                {
                    "name": "A4",
                    "midi": 69,
                    "time": 105.195847,
                    "velocity": 0.7244094488188977,
                    "duration": 0.0939540416666631
                },
                {
                    "name": "B4",
                    "midi": 71,
                    "time": 105.293886,
                    "velocity": 0.7244094488188977,
                    "duration": 0.0939540416666631
                },
                {
                    "name": "G#4",
                    "midi": 68,
                    "time": 105.391925,
                    "velocity": 0.7244094488188977,
                    "duration": 0.0939540416666631
                },
                {
                    "name": "E4",
                    "midi": 64,
                    "time": 105.489964,
                    "velocity": 0.7244094488188977,
                    "duration": 0.0939540416666631
                },
                {
                    "name": "D5",
                    "midi": 74,
                    "time": 105.588003,
                    "velocity": 0.7244094488188977,
                    "duration": 0.0939540416666631
                },
                {
                    "name": "C5",
                    "midi": 72,
                    "time": 105.686042,
                    "velocity": 0.7244094488188977,
                    "duration": 0.0939540416666631
                },
                {
                    "name": "B4",
                    "midi": 71,
                    "time": 105.784081,
                    "velocity": 0.7244094488188977,
                    "duration": 0.0939540416666631
                },
                {
                    "name": "A4",
                    "midi": 69,
                    "time": 105.88212,
                    "velocity": 0.7244094488188977,
                    "duration": 0.0939540416666631
                },
                {
                    "name": "G#4",
                    "midi": 68,
                    "time": 105.980159,
                    "velocity": 0.7244094488188977,
                    "duration": 0.0939540416666631
                },
                {
                    "name": "A4",
                    "midi": 69,
                    "time": 106.078198,
                    "velocity": 0.7244094488188977,
                    "duration": 0.0939540416666631
                },
                {
                    "name": "C5",
                    "midi": 72,
                    "time": 106.176237,
                    "velocity": 0.7244094488188977,
                    "duration": 0.0939540416666631
                },
                {
                    "name": "B4",
                    "midi": 71,
                    "time": 106.274276,
                    "velocity": 0.7244094488188977,
                    "duration": 0.0939540416666631
                },
                {
                    "name": "A#4",
                    "midi": 70,
                    "time": 106.372315,
                    "velocity": 0.7244094488188977,
                    "duration": 0.0939540416666631
                },
                {
                    "name": "B4",
                    "midi": 71,
                    "time": 106.470354,
                    "velocity": 0.7244094488188977,
                    "duration": 0.0939540416666631
                },
                {
                    "name": "D5",
                    "midi": 74,
                    "time": 106.568393,
                    "velocity": 0.7244094488188977,
                    "duration": 0.0939540416666631
                },
                {
                    "name": "C5",
                    "midi": 72,
                    "time": 106.666432,
                    "velocity": 0.7244094488188977,
                    "duration": 0.0939540416666631
                },
                {
                    "name": "B4",
                    "midi": 71,
                    "time": 106.764471,
                    "velocity": 0.7244094488188977,
                    "duration": 0.0939540416666631
                },
                {
                    "name": "C5",
                    "midi": 72,
                    "time": 106.86251,
                    "velocity": 0.7244094488188977,
                    "duration": 0.0939540416666631
                },
                {
                    "name": "E5",
                    "midi": 76,
                    "time": 106.960549,
                    "velocity": 0.7244094488188977,
                    "duration": 0.0939540416666631
                },
                {
                    "name": "C#5",
                    "midi": 73,
                    "time": 107.058588,
                    "velocity": 0.7244094488188977,
                    "duration": 0.0939540416666631
                },
                {
                    "name": "A5",
                    "midi": 81,
                    "time": 107.156627,
                    "velocity": 0.7244094488188977,
                    "duration": 0.0939540416666631
                },
                {
                    "name": "G#5",
                    "midi": 80,
                    "time": 107.254666,
                    "velocity": 0.7244094488188977,
                    "duration": 0.0939540416666631
                },
                {
                    "name": "E5",
                    "midi": 76,
                    "time": 107.352705,
                    "velocity": 0.7244094488188977,
                    "duration": 0.0939540416666631
                },
                {
                    "name": "D5",
                    "midi": 74,
                    "time": 107.450744,
                    "velocity": 0.7244094488188977,
                    "duration": 0.0939540416666631
                },
                {
                    "name": "A5",
                    "midi": 81,
                    "time": 107.548783,
                    "velocity": 0.7244094488188977,
                    "duration": 0.0939540416666631
                },
                {
                    "name": "F#5",
                    "midi": 78,
                    "time": 107.646822,
                    "velocity": 0.7244094488188977,
                    "duration": 0.0939540416666631
                },
                {
                    "name": "E5",
                    "midi": 76,
                    "time": 107.744861,
                    "velocity": 0.7244094488188977,
                    "duration": 0.0939540416666631
                },
                {
                    "name": "D#5",
                    "midi": 75,
                    "time": 107.8429,
                    "velocity": 0.7244094488188977,
                    "duration": 0.0939540416666631
                },
                {
                    "name": "C6",
                    "midi": 84,
                    "time": 107.940939,
                    "velocity": 0.7244094488188977,
                    "duration": 0.0939540416666631
                },
                {
                    "name": "B5",
                    "midi": 83,
                    "time": 108.038978,
                    "velocity": 0.7244094488188977,
                    "duration": 0.0939540416666631
                },
                {
                    "name": "A5",
                    "midi": 81,
                    "time": 108.137017,
                    "velocity": 0.7244094488188977,
                    "duration": 0.0939540416666631
                },
                {
                    "name": "E4",
                    "midi": 64,
                    "time": 108.235056,
                    "velocity": 0.7244094488188977,
                    "duration": 0.1919930416666631
                },
                {
                    "name": "G#4",
                    "midi": 68,
                    "time": 108.235056,
                    "velocity": 0.7244094488188977,
                    "duration": 0.1919930416666631
                },
                {
                    "name": "B4",
                    "midi": 71,
                    "time": 108.235056,
                    "velocity": 0.7244094488188977,
                    "duration": 0.1919930416666631
                },
                {
                    "name": "E5",
                    "midi": 76,
                    "time": 108.235056,
                    "velocity": 0.7244094488188977,
                    "duration": 0.1919930416666631
                },
                {
                    "name": "G#5",
                    "midi": 80,
                    "time": 108.235056,
                    "velocity": 0.7244094488188977,
                    "duration": 0.1919930416666631
                },
                {
                    "name": "B4",
                    "midi": 71,
                    "time": 109.019368,
                    "velocity": 0.47244094488188976,
                    "duration": 0.3267966666666666
                },
                {
                    "name": "E5",
                    "midi": 76,
                    "time": 109.019368,
                    "velocity": 0.47244094488188976,
                    "duration": 0.3267966666666666
                },
                {
                    "name": "G#5",
                    "midi": 80,
                    "time": 109.019368,
                    "velocity": 0.47244094488188976,
                    "duration": 0.3267966666666666
                },
                {
                    "name": "B4",
                    "midi": 71,
                    "time": 109.411524,
                    "velocity": 0.47244094488188976,
                    "duration": 0.3267966666666666
                },
                {
                    "name": "E5",
                    "midi": 76,
                    "time": 109.411524,
                    "velocity": 0.47244094488188976,
                    "duration": 0.3267966666666666
                },
                {
                    "name": "G#5",
                    "midi": 80,
                    "time": 109.411524,
                    "velocity": 0.47244094488188976,
                    "duration": 0.3267966666666666
                },
                {
                    "name": "C5",
                    "midi": 72,
                    "time": 109.80368,
                    "velocity": 0.47244094488188976,
                    "duration": 0.1919930416666631
                },
                {
                    "name": "E5",
                    "midi": 76,
                    "time": 109.80368,
                    "velocity": 0.47244094488188976,
                    "duration": 0.1919930416666631
                },
                {
                    "name": "A5",
                    "midi": 81,
                    "time": 109.80368,
                    "velocity": 0.47244094488188976,
                    "duration": 0.1919930416666631
                },
                {
                    "name": "C5",
                    "midi": 72,
                    "time": 110.587992,
                    "velocity": 0.47244094488188976,
                    "duration": 0.1919930416666631
                },
                {
                    "name": "E5",
                    "midi": 76,
                    "time": 110.587992,
                    "velocity": 0.47244094488188976,
                    "duration": 0.1919930416666631
                },
                {
                    "name": "A5",
                    "midi": 81,
                    "time": 110.587992,
                    "velocity": 0.47244094488188976,
                    "duration": 0.1919930416666631
                },
                {
                    "name": "B4",
                    "midi": 71,
                    "time": 111.372304,
                    "velocity": 0.47244094488188976,
                    "duration": 0.1919930416666631
                },
                {
                    "name": "E5",
                    "midi": 76,
                    "time": 111.372304,
                    "velocity": 0.47244094488188976,
                    "duration": 0.1919930416666631
                },
                {
                    "name": "G#5",
                    "midi": 80,
                    "time": 111.372304,
                    "velocity": 0.47244094488188976,
                    "duration": 0.1919930416666631
                },
                {
                    "name": "B3",
                    "midi": 59,
                    "time": 112.156616,
                    "velocity": 0.47244094488188976,
                    "duration": 0.3267966666666666
                },
                {
                    "name": "E4",
                    "midi": 64,
                    "time": 112.156616,
                    "velocity": 0.47244094488188976,
                    "duration": 0.3267966666666666
                },
                {
                    "name": "G#4",
                    "midi": 68,
                    "time": 112.156616,
                    "velocity": 0.47244094488188976,
                    "duration": 0.3267966666666666
                },
                {
                    "name": "B3",
                    "midi": 59,
                    "time": 112.548772,
                    "velocity": 0.47244094488188976,
                    "duration": 0.3267966666666666
                },
                {
                    "name": "E4",
                    "midi": 64,
                    "time": 112.548772,
                    "velocity": 0.47244094488188976,
                    "duration": 0.3267966666666666
                },
                {
                    "name": "G#4",
                    "midi": 68,
                    "time": 112.548772,
                    "velocity": 0.47244094488188976,
                    "duration": 0.3267966666666666
                },
                {
                    "name": "C4",
                    "midi": 60,
                    "time": 112.940928,
                    "velocity": 0.47244094488188976,
                    "duration": 0.1919930416666631
                },
                {
                    "name": "E4",
                    "midi": 64,
                    "time": 112.940928,
                    "velocity": 0.47244094488188976,
                    "duration": 0.1919930416666631
                },
                {
                    "name": "A4",
                    "midi": 69,
                    "time": 112.940928,
                    "velocity": 0.47244094488188976,
                    "duration": 0.1919930416666631
                },
                {
                    "name": "C4",
                    "midi": 60,
                    "time": 113.72524,
                    "velocity": 0.47244094488188976,
                    "duration": 0.1919930416666631
                },
                {
                    "name": "E4",
                    "midi": 64,
                    "time": 113.72524,
                    "velocity": 0.47244094488188976,
                    "duration": 0.1919930416666631
                },
                {
                    "name": "A4",
                    "midi": 69,
                    "time": 113.72524,
                    "velocity": 0.47244094488188976,
                    "duration": 0.1919930416666631
                },
                {
                    "name": "E4",
                    "midi": 64,
                    "time": 114.509552,
                    "velocity": 0.47244094488188976,
                    "duration": 0.39215599999999995
                },
                {
                    "name": "G#4",
                    "midi": 68,
                    "time": 114.509552,
                    "velocity": 0.47244094488188976,
                    "duration": 0.39215599999999995
                },
                {
                    "name": "B4",
                    "midi": 71,
                    "time": 114.509552,
                    "velocity": 0.47244094488188976,
                    "duration": 0.39215599999999995
                },
                {
                    "name": "E4",
                    "midi": 64,
                    "time": 114.901708,
                    "velocity": 0.47244094488188976,
                    "duration": 0.39215599999999995
                },
                {
                    "name": "G#4",
                    "midi": 68,
                    "time": 114.901708,
                    "velocity": 0.47244094488188976,
                    "duration": 0.39215599999999995
                },
                {
                    "name": "B4",
                    "midi": 71,
                    "time": 114.901708,
                    "velocity": 0.47244094488188976,
                    "duration": 0.39215599999999995
                },
                {
                    "name": "E4",
                    "midi": 64,
                    "time": 115.293864,
                    "velocity": 0.47244094488188976,
                    "duration": 0.39215599999999995
                },
                {
                    "name": "A4",
                    "midi": 69,
                    "time": 115.293864,
                    "velocity": 0.47244094488188976,
                    "duration": 0.39215599999999995
                },
                {
                    "name": "C5",
                    "midi": 72,
                    "time": 115.293864,
                    "velocity": 0.47244094488188976,
                    "duration": 0.39215599999999995
                },
                {
                    "name": "E4",
                    "midi": 64,
                    "time": 115.68602,
                    "velocity": 0.47244094488188976,
                    "duration": 0.39215599999999995
                },
                {
                    "name": "G#4",
                    "midi": 68,
                    "time": 115.68602,
                    "velocity": 0.47244094488188976,
                    "duration": 0.39215599999999995
                },
                {
                    "name": "B4",
                    "midi": 71,
                    "time": 115.68602,
                    "velocity": 0.47244094488188976,
                    "duration": 0.39215599999999995
                },
                {
                    "name": "E4",
                    "midi": 64,
                    "time": 116.078176,
                    "velocity": 0.47244094488188976,
                    "duration": 0.39215599999999995
                },
                {
                    "name": "A4",
                    "midi": 69,
                    "time": 116.078176,
                    "velocity": 0.47244094488188976,
                    "duration": 0.39215599999999995
                },
                {
                    "name": "C5",
                    "midi": 72,
                    "time": 116.078176,
                    "velocity": 0.47244094488188976,
                    "duration": 0.39215599999999995
                },
                {
                    "name": "E4",
                    "midi": 64,
                    "time": 116.470332,
                    "velocity": 0.47244094488188976,
                    "duration": 0.39215599999999995
                },
                {
                    "name": "A4",
                    "midi": 69,
                    "time": 116.470332,
                    "velocity": 0.47244094488188976,
                    "duration": 0.39215599999999995
                },
                {
                    "name": "C#5",
                    "midi": 73,
                    "time": 116.470332,
                    "velocity": 0.47244094488188976,
                    "duration": 0.39215599999999995
                },
                {
                    "name": "F4",
                    "midi": 65,
                    "time": 116.862488,
                    "velocity": 0.47244094488188976,
                    "duration": 0.39215599999999995
                },
                {
                    "name": "A4",
                    "midi": 69,
                    "time": 116.862488,
                    "velocity": 0.47244094488188976,
                    "duration": 0.39215599999999995
                },
                {
                    "name": "D5",
                    "midi": 74,
                    "time": 116.862488,
                    "velocity": 0.47244094488188976,
                    "duration": 0.39215599999999995
                },
                {
                    "name": "A4",
                    "midi": 69,
                    "time": 117.254644,
                    "velocity": 0.47244094488188976,
                    "duration": 0.39215599999999995
                },
                {
                    "name": "C5",
                    "midi": 72,
                    "time": 117.254644,
                    "velocity": 0.47244094488188976,
                    "duration": 0.39215599999999995
                },
                {
                    "name": "E5",
                    "midi": 76,
                    "time": 117.254644,
                    "velocity": 0.47244094488188976,
                    "duration": 0.39215599999999995
                },
                {
                    "name": "A4",
                    "midi": 69,
                    "time": 117.6468,
                    "velocity": 0.47244094488188976,
                    "duration": 0.1919930416666631
                },
                {
                    "name": "D5",
                    "midi": 74,
                    "time": 117.6468,
                    "velocity": 0.47244094488188976,
                    "duration": 0.1919930416666631
                },
                {
                    "name": "F5",
                    "midi": 77,
                    "time": 117.6468,
                    "velocity": 0.47244094488188976,
                    "duration": 0.1919930416666631
                },
                {
                    "name": "A#4",
                    "midi": 70,
                    "time": 118.431112,
                    "velocity": 0.47244094488188976,
                    "duration": 0.3267966666666666
                },
                {
                    "name": "D5",
                    "midi": 74,
                    "time": 118.431112,
                    "velocity": 0.47244094488188976,
                    "duration": 0.3267966666666666
                },
                {
                    "name": "F5",
                    "midi": 77,
                    "time": 118.431112,
                    "velocity": 0.47244094488188976,
                    "duration": 0.3267966666666666
                },
                {
                    "name": "A4",
                    "midi": 69,
                    "time": 119.215424,
                    "velocity": 0.47244094488188976,
                    "duration": 0.3267966666666666
                },
                {
                    "name": "C5",
                    "midi": 72,
                    "time": 119.215424,
                    "velocity": 0.47244094488188976,
                    "duration": 0.3267966666666666
                },
                {
                    "name": "E5",
                    "midi": 76,
                    "time": 119.215424,
                    "velocity": 0.47244094488188976,
                    "duration": 0.3267966666666666
                },
                {
                    "name": "B4",
                    "midi": 71,
                    "time": 119.999736,
                    "velocity": 0.47244094488188976,
                    "duration": 0.3267966666666666
                },
                {
                    "name": "D5",
                    "midi": 74,
                    "time": 119.999736,
                    "velocity": 0.47244094488188976,
                    "duration": 0.3267966666666666
                },
                {
                    "name": "E5",
                    "midi": 76,
                    "time": 119.999736,
                    "velocity": 0.47244094488188976,
                    "duration": 0.3267966666666666
                },
                {
                    "name": "G#5",
                    "midi": 80,
                    "time": 119.999736,
                    "velocity": 0.47244094488188976,
                    "duration": 0.3267966666666666
                },
                {
                    "name": "C5",
                    "midi": 72,
                    "time": 120.784048,
                    "velocity": 0.47244094488188976,
                    "duration": 0.39215599999999995
                },
                {
                    "name": "E5",
                    "midi": 76,
                    "time": 120.784048,
                    "velocity": 0.47244094488188976,
                    "duration": 0.39215599999999995
                },
                {
                    "name": "A5",
                    "midi": 81,
                    "time": 120.784048,
                    "velocity": 0.47244094488188976,
                    "duration": 0.39215599999999995
                },
                {
                    "name": "A4",
                    "midi": 69,
                    "time": 121.176204,
                    "velocity": 0.47244094488188976,
                    "duration": 0.39215599999999995
                },
                {
                    "name": "C#5",
                    "midi": 73,
                    "time": 121.176204,
                    "velocity": 0.47244094488188976,
                    "duration": 0.39215599999999995
                },
                {
                    "name": "E5",
                    "midi": 76,
                    "time": 121.176204,
                    "velocity": 0.47244094488188976,
                    "duration": 0.39215599999999995
                },
                {
                    "name": "G5",
                    "midi": 79,
                    "time": 121.176204,
                    "velocity": 0.47244094488188976,
                    "duration": 0.39215599999999995
                },
                {
                    "name": "A4",
                    "midi": 69,
                    "time": 121.56836,
                    "velocity": 0.47244094488188976,
                    "duration": 0.39215599999999995
                },
                {
                    "name": "D5",
                    "midi": 74,
                    "time": 121.56836,
                    "velocity": 0.47244094488188976,
                    "duration": 0.39215599999999995
                },
                {
                    "name": "F5",
                    "midi": 77,
                    "time": 121.56836,
                    "velocity": 0.47244094488188976,
                    "duration": 0.39215599999999995
                },
                {
                    "name": "G4",
                    "midi": 67,
                    "time": 121.960516,
                    "velocity": 0.47244094488188976,
                    "duration": 0.39215599999999995
                },
                {
                    "name": "C#5",
                    "midi": 73,
                    "time": 121.960516,
                    "velocity": 0.47244094488188976,
                    "duration": 0.39215599999999995
                },
                {
                    "name": "E5",
                    "midi": 76,
                    "time": 121.960516,
                    "velocity": 0.47244094488188976,
                    "duration": 0.39215599999999995
                },
                {
                    "name": "F4",
                    "midi": 65,
                    "time": 122.352672,
                    "velocity": 0.47244094488188976,
                    "duration": 0.39215599999999995
                },
                {
                    "name": "A4",
                    "midi": 69,
                    "time": 122.352672,
                    "velocity": 0.47244094488188976,
                    "duration": 0.39215599999999995
                },
                {
                    "name": "D5",
                    "midi": 74,
                    "time": 122.352672,
                    "velocity": 0.47244094488188976,
                    "duration": 0.39215599999999995
                },
                {
                    "name": "F4",
                    "midi": 65,
                    "time": 122.744828,
                    "velocity": 0.47244094488188976,
                    "duration": 0.39215599999999995
                },
                {
                    "name": "G4",
                    "midi": 67,
                    "time": 122.744828,
                    "velocity": 0.47244094488188976,
                    "duration": 0.39215599999999995
                },
                {
                    "name": "B4",
                    "midi": 71,
                    "time": 122.744828,
                    "velocity": 0.47244094488188976,
                    "duration": 0.39215599999999995
                },
                {
                    "name": "D5",
                    "midi": 74,
                    "time": 122.744828,
                    "velocity": 0.47244094488188976,
                    "duration": 0.39215599999999995
                },
                {
                    "name": "E4",
                    "midi": 64,
                    "time": 123.136984,
                    "velocity": 0.47244094488188976,
                    "duration": 0.39215599999999995
                },
                {
                    "name": "G4",
                    "midi": 67,
                    "time": 123.136984,
                    "velocity": 0.47244094488188976,
                    "duration": 0.39215599999999995
                },
                {
                    "name": "C5",
                    "midi": 72,
                    "time": 123.136984,
                    "velocity": 0.47244094488188976,
                    "duration": 0.39215599999999995
                },
                {
                    "name": "F4",
                    "midi": 65,
                    "time": 123.52914,
                    "velocity": 0.47244094488188976,
                    "duration": 0.39215599999999995
                },
                {
                    "name": "G4",
                    "midi": 67,
                    "time": 123.52914,
                    "velocity": 0.47244094488188976,
                    "duration": 0.39215599999999995
                },
                {
                    "name": "B4",
                    "midi": 71,
                    "time": 123.52914,
                    "velocity": 0.47244094488188976,
                    "duration": 0.39215599999999995
                },
                {
                    "name": "D5",
                    "midi": 74,
                    "time": 123.52914,
                    "velocity": 0.47244094488188976,
                    "duration": 0.39215599999999995
                },
                {
                    "name": "E4",
                    "midi": 64,
                    "time": 123.921296,
                    "velocity": 0.47244094488188976,
                    "duration": 0.39215599999999995
                },
                {
                    "name": "G4",
                    "midi": 67,
                    "time": 123.921296,
                    "velocity": 0.47244094488188976,
                    "duration": 0.39215599999999995
                },
                {
                    "name": "C5",
                    "midi": 72,
                    "time": 123.921296,
                    "velocity": 0.47244094488188976,
                    "duration": 0.39215599999999995
                },
                {
                    "name": "E4",
                    "midi": 64,
                    "time": 124.313452,
                    "velocity": 0.47244094488188976,
                    "duration": 0.39215599999999995
                },
                {
                    "name": "G4",
                    "midi": 67,
                    "time": 124.313452,
                    "velocity": 0.47244094488188976,
                    "duration": 0.39215599999999995
                },
                {
                    "name": "B4",
                    "midi": 71,
                    "time": 124.313452,
                    "velocity": 0.47244094488188976,
                    "duration": 0.39215599999999995
                },
                {
                    "name": "D4",
                    "midi": 62,
                    "time": 124.705608,
                    "velocity": 0.47244094488188976,
                    "duration": 0.39215599999999995
                },
                {
                    "name": "E4",
                    "midi": 64,
                    "time": 124.705608,
                    "velocity": 0.47244094488188976,
                    "duration": 0.39215599999999995
                },
                {
                    "name": "G#4",
                    "midi": 68,
                    "time": 124.705608,
                    "velocity": 0.47244094488188976,
                    "duration": 0.39215599999999995
                },
                {
                    "name": "B4",
                    "midi": 71,
                    "time": 124.705608,
                    "velocity": 0.47244094488188976,
                    "duration": 0.39215599999999995
                },
                {
                    "name": "C4",
                    "midi": 60,
                    "time": 125.097764,
                    "velocity": 0.47244094488188976,
                    "duration": 0.39215599999999995
                },
                {
                    "name": "E4",
                    "midi": 64,
                    "time": 125.097764,
                    "velocity": 0.47244094488188976,
                    "duration": 0.39215599999999995
                },
                {
                    "name": "A4",
                    "midi": 69,
                    "time": 125.097764,
                    "velocity": 0.47244094488188976,
                    "duration": 0.39215599999999995
                },
                {
                    "name": "E4",
                    "midi": 64,
                    "time": 125.48992,
                    "velocity": 0.47244094488188976,
                    "duration": 0.39215599999999995
                },
                {
                    "name": "G#4",
                    "midi": 68,
                    "time": 125.48992,
                    "velocity": 0.47244094488188976,
                    "duration": 0.39215599999999995
                },
                {
                    "name": "B4",
                    "midi": 71,
                    "time": 125.48992,
                    "velocity": 0.47244094488188976,
                    "duration": 0.39215599999999995
                },
                {
                    "name": "E4",
                    "midi": 64,
                    "time": 125.882076,
                    "velocity": 0.47244094488188976,
                    "duration": 0.39215599999999995
                },
                {
                    "name": "G4",
                    "midi": 67,
                    "time": 125.882076,
                    "velocity": 0.47244094488188976,
                    "duration": 0.39215599999999995
                },
                {
                    "name": "C5",
                    "midi": 72,
                    "time": 125.882076,
                    "velocity": 0.47244094488188976,
                    "duration": 0.39215599999999995
                },
                {
                    "name": "E4",
                    "midi": 64,
                    "time": 126.274232,
                    "velocity": 0.47244094488188976,
                    "duration": 0.39215599999999995
                },
                {
                    "name": "G#4",
                    "midi": 68,
                    "time": 126.274232,
                    "velocity": 0.47244094488188976,
                    "duration": 0.39215599999999995
                },
                {
                    "name": "B4",
                    "midi": 71,
                    "time": 126.274232,
                    "velocity": 0.47244094488188976,
                    "duration": 0.39215599999999995
                },
                {
                    "name": "D5",
                    "midi": 74,
                    "time": 126.274232,
                    "velocity": 0.47244094488188976,
                    "duration": 0.39215599999999995
                },
                {
                    "name": "E4",
                    "midi": 64,
                    "time": 126.666388,
                    "velocity": 0.47244094488188976,
                    "duration": 0.39215599999999995
                },
                {
                    "name": "A4",
                    "midi": 69,
                    "time": 126.666388,
                    "velocity": 0.47244094488188976,
                    "duration": 0.39215599999999995
                },
                {
                    "name": "C5",
                    "midi": 72,
                    "time": 126.666388,
                    "velocity": 0.47244094488188976,
                    "duration": 0.39215599999999995
                },
                {
                    "name": "E4",
                    "midi": 64,
                    "time": 127.058544,
                    "velocity": 0.47244094488188976,
                    "duration": 0.39215599999999995
                },
                {
                    "name": "G#4",
                    "midi": 68,
                    "time": 127.058544,
                    "velocity": 0.47244094488188976,
                    "duration": 0.39215599999999995
                },
                {
                    "name": "B4",
                    "midi": 71,
                    "time": 127.058544,
                    "velocity": 0.47244094488188976,
                    "duration": 0.39215599999999995
                },
                {
                    "name": "E4",
                    "midi": 64,
                    "time": 127.4507,
                    "velocity": 0.47244094488188976,
                    "duration": 0.39215599999999995
                },
                {
                    "name": "G#4",
                    "midi": 68,
                    "time": 127.4507,
                    "velocity": 0.47244094488188976,
                    "duration": 0.39215599999999995
                },
                {
                    "name": "B4",
                    "midi": 71,
                    "time": 127.4507,
                    "velocity": 0.47244094488188976,
                    "duration": 0.39215599999999995
                },
                {
                    "name": "D5",
                    "midi": 74,
                    "time": 127.4507,
                    "velocity": 0.47244094488188976,
                    "duration": 0.39215599999999995
                },
                {
                    "name": "E4",
                    "midi": 64,
                    "time": 127.842856,
                    "velocity": 0.47244094488188976,
                    "duration": 0.39215600000001416
                },
                {
                    "name": "A4",
                    "midi": 69,
                    "time": 127.842856,
                    "velocity": 0.47244094488188976,
                    "duration": 0.39215600000001416
                },
                {
                    "name": "C5",
                    "midi": 72,
                    "time": 127.842856,
                    "velocity": 0.47244094488188976,
                    "duration": 0.39215600000001416
                },
                {
                    "name": "E4",
                    "midi": 64,
                    "time": 128.235012,
                    "velocity": 0.47244094488188976,
                    "duration": 0.39215599999999995
                },
                {
                    "name": "G#4",
                    "midi": 68,
                    "time": 128.235012,
                    "velocity": 0.47244094488188976,
                    "duration": 0.39215599999999995
                },
                {
                    "name": "B4",
                    "midi": 71,
                    "time": 128.235012,
                    "velocity": 0.47244094488188976,
                    "duration": 0.39215599999999995
                },
                {
                    "name": "E4",
                    "midi": 64,
                    "time": 128.627168,
                    "velocity": 0.47244094488188976,
                    "duration": 0.39215599999999995
                },
                {
                    "name": "A4",
                    "midi": 69,
                    "time": 128.627168,
                    "velocity": 0.47244094488188976,
                    "duration": 0.39215599999999995
                },
                {
                    "name": "C5",
                    "midi": 72,
                    "time": 128.627168,
                    "velocity": 0.47244094488188976,
                    "duration": 0.39215599999999995
                },
                {
                    "name": "E4",
                    "midi": 64,
                    "time": 129.019324,
                    "velocity": 0.47244094488188976,
                    "duration": 0.39215599999999995
                },
                {
                    "name": "G4",
                    "midi": 67,
                    "time": 129.019324,
                    "velocity": 0.47244094488188976,
                    "duration": 0.39215599999999995
                },
                {
                    "name": "A4",
                    "midi": 69,
                    "time": 129.019324,
                    "velocity": 0.47244094488188976,
                    "duration": 0.39215599999999995
                },
                {
                    "name": "C#5",
                    "midi": 73,
                    "time": 129.019324,
                    "velocity": 0.47244094488188976,
                    "duration": 0.39215599999999995
                },
                {
                    "name": "F4",
                    "midi": 65,
                    "time": 129.41148,
                    "velocity": 0.47244094488188976,
                    "duration": 0.39215599999999995
                },
                {
                    "name": "A4",
                    "midi": 69,
                    "time": 129.41148,
                    "velocity": 0.47244094488188976,
                    "duration": 0.39215599999999995
                },
                {
                    "name": "D5",
                    "midi": 74,
                    "time": 129.41148,
                    "velocity": 0.47244094488188976,
                    "duration": 0.39215599999999995
                },
                {
                    "name": "A4",
                    "midi": 69,
                    "time": 129.803636,
                    "velocity": 0.47244094488188976,
                    "duration": 0.39215599999999995
                },
                {
                    "name": "C5",
                    "midi": 72,
                    "time": 129.803636,
                    "velocity": 0.47244094488188976,
                    "duration": 0.39215599999999995
                },
                {
                    "name": "E5",
                    "midi": 76,
                    "time": 129.803636,
                    "velocity": 0.47244094488188976,
                    "duration": 0.39215599999999995
                },
                {
                    "name": "A4",
                    "midi": 69,
                    "time": 130.195792,
                    "velocity": 0.47244094488188976,
                    "duration": 0.1919930416666773
                },
                {
                    "name": "D5",
                    "midi": 74,
                    "time": 130.195792,
                    "velocity": 0.47244094488188976,
                    "duration": 0.1919930416666773
                },
                {
                    "name": "F5",
                    "midi": 77,
                    "time": 130.195792,
                    "velocity": 0.47244094488188976,
                    "duration": 0.1919930416666773
                },
                {
                    "name": "A4",
                    "midi": 69,
                    "time": 130.980104,
                    "velocity": 0.47244094488188976,
                    "duration": 0.3267966666666666
                },
                {
                    "name": "A#4",
                    "midi": 70,
                    "time": 130.980104,
                    "velocity": 0.47244094488188976,
                    "duration": 0.3267966666666666
                },
                {
                    "name": "D5",
                    "midi": 74,
                    "time": 130.980104,
                    "velocity": 0.47244094488188976,
                    "duration": 0.3267966666666666
                },
                {
                    "name": "F5",
                    "midi": 77,
                    "time": 130.980104,
                    "velocity": 0.47244094488188976,
                    "duration": 0.3267966666666666
                },
                {
                    "name": "A4",
                    "midi": 69,
                    "time": 131.764416,
                    "velocity": 0.47244094488188976,
                    "duration": 0.3267966666666666
                },
                {
                    "name": "C5",
                    "midi": 72,
                    "time": 131.764416,
                    "velocity": 0.47244094488188976,
                    "duration": 0.3267966666666666
                },
                {
                    "name": "D#5",
                    "midi": 75,
                    "time": 131.764416,
                    "velocity": 0.47244094488188976,
                    "duration": 0.3267966666666666
                },
                {
                    "name": "F#5",
                    "midi": 78,
                    "time": 131.764416,
                    "velocity": 0.47244094488188976,
                    "duration": 0.3267966666666666
                },
                {
                    "name": "A4",
                    "midi": 69,
                    "time": 132.548728,
                    "velocity": 0.47244094488188976,
                    "duration": 0.3267966666666666
                },
                {
                    "name": "C5",
                    "midi": 72,
                    "time": 132.548728,
                    "velocity": 0.47244094488188976,
                    "duration": 0.3267966666666666
                },
                {
                    "name": "D#5",
                    "midi": 75,
                    "time": 132.548728,
                    "velocity": 0.47244094488188976,
                    "duration": 0.3267966666666666
                },
                {
                    "name": "F#5",
                    "midi": 78,
                    "time": 132.548728,
                    "velocity": 0.47244094488188976,
                    "duration": 0.3267966666666666
                },
                {
                    "name": "A4",
                    "midi": 69,
                    "time": 133.33304,
                    "velocity": 0.47244094488188976,
                    "duration": 0.3267966666666666
                },
                {
                    "name": "C5",
                    "midi": 72,
                    "time": 133.33304,
                    "velocity": 0.47244094488188976,
                    "duration": 0.3267966666666666
                },
                {
                    "name": "E5",
                    "midi": 76,
                    "time": 133.33304,
                    "velocity": 0.47244094488188976,
                    "duration": 0.3267966666666666
                },
                {
                    "name": "C5",
                    "midi": 72,
                    "time": 134.901664,
                    "velocity": 0.47244094488188976,
                    "duration": 0.3267966666666666
                },
                {
                    "name": "E5",
                    "midi": 76,
                    "time": 134.901664,
                    "velocity": 0.47244094488188976,
                    "duration": 0.3267966666666666
                },
                {
                    "name": "A5",
                    "midi": 81,
                    "time": 134.901664,
                    "velocity": 0.47244094488188976,
                    "duration": 0.3267966666666666
                },
                {
                    "name": "C5",
                    "midi": 72,
                    "time": 136.470288,
                    "velocity": 0.47244094488188976,
                    "duration": 0.3267966666666666
                },
                {
                    "name": "E5",
                    "midi": 76,
                    "time": 136.470288,
                    "velocity": 0.47244094488188976,
                    "duration": 0.3267966666666666
                },
                {
                    "name": "A5",
                    "midi": 81,
                    "time": 136.470288,
                    "velocity": 0.47244094488188976,
                    "duration": 0.3267966666666666
                },
                {
                    "name": "B4",
                    "midi": 71,
                    "time": 138.038912,
                    "velocity": 0.47244094488188976,
                    "duration": 0.3267966666666666
                },
                {
                    "name": "E5",
                    "midi": 76,
                    "time": 138.038912,
                    "velocity": 0.47244094488188976,
                    "duration": 0.3267966666666666
                },
                {
                    "name": "A5",
                    "midi": 81,
                    "time": 138.038912,
                    "velocity": 0.47244094488188976,
                    "duration": 0.3267966666666666
                },
                {
                    "name": "B4",
                    "midi": 71,
                    "time": 138.823224,
                    "velocity": 0.47244094488188976,
                    "duration": 0.3267966666666666
                },
                {
                    "name": "E5",
                    "midi": 76,
                    "time": 138.823224,
                    "velocity": 0.47244094488188976,
                    "duration": 0.3267966666666666
                },
                {
                    "name": "G#5",
                    "midi": 80,
                    "time": 138.823224,
                    "velocity": 0.47244094488188976,
                    "duration": 0.3267966666666666
                },
                {
                    "name": "C#4",
                    "midi": 61,
                    "time": 139.607536,
                    "velocity": 0.7244094488188977,
                    "duration": 0.19607799999999997
                },
                {
                    "name": "C#5",
                    "midi": 73,
                    "time": 139.607536,
                    "velocity": 0.7244094488188977,
                    "duration": 0.19607799999999997
                },
                {
                    "name": "E4",
                    "midi": 64,
                    "time": 139.803614,
                    "velocity": 0.7244094488188977,
                    "duration": 0.06535933333333332
                },
                {
                    "name": "E5",
                    "midi": 76,
                    "time": 139.803614,
                    "velocity": 0.7244094488188977,
                    "duration": 0.06535933333333332
                },
                {
                    "name": "A4",
                    "midi": 69,
                    "time": 140.19577,
                    "velocity": 0.7244094488188977,
                    "duration": 0.1919930416666773
                },
                {
                    "name": "A5",
                    "midi": 81,
                    "time": 140.19577,
                    "velocity": 0.7244094488188977,
                    "duration": 0.1919930416666773
                },
                {
                    "name": "C#5",
                    "midi": 73,
                    "time": 140.587926,
                    "velocity": 0.7244094488188977,
                    "duration": 0.1919930416666773
                },
                {
                    "name": "C#6",
                    "midi": 85,
                    "time": 140.587926,
                    "velocity": 0.7244094488188977,
                    "duration": 0.1919930416666773
                },
                {
                    "name": "D5",
                    "midi": 74,
                    "time": 140.980082,
                    "velocity": 0.7244094488188977,
                    "duration": 0.3880710416666773
                },
                {
                    "name": "D6",
                    "midi": 86,
                    "time": 140.980082,
                    "velocity": 0.7244094488188977,
                    "duration": 0.3880710416666773
                },
                {
                    "name": "C#5",
                    "midi": 73,
                    "time": 141.470277,
                    "velocity": 0.7244094488188977,
                    "duration": 0.09395404166667731
                },
                {
                    "name": "C#6",
                    "midi": 85,
                    "time": 141.470277,
                    "velocity": 0.7244094488188977,
                    "duration": 0.09395404166667731
                },
                {
                    "name": "B4",
                    "midi": 71,
                    "time": 141.568316,
                    "velocity": 0.7244094488188977,
                    "duration": 0.1919930416666773
                },
                {
                    "name": "B5",
                    "midi": 83,
                    "time": 141.568316,
                    "velocity": 0.7244094488188977,
                    "duration": 0.1919930416666773
                },
                {
                    "name": "A4",
                    "midi": 69,
                    "time": 141.862433,
                    "velocity": 0.7244094488188977,
                    "duration": 0.09395404166667731
                },
                {
                    "name": "A5",
                    "midi": 81,
                    "time": 141.862433,
                    "velocity": 0.7244094488188977,
                    "duration": 0.09395404166667731
                },
                {
                    "name": "G#4",
                    "midi": 68,
                    "time": 141.960472,
                    "velocity": 0.7244094488188977,
                    "duration": 0.2900320416666773
                },
                {
                    "name": "G#5",
                    "midi": 80,
                    "time": 141.960472,
                    "velocity": 0.7244094488188977,
                    "duration": 0.2900320416666773
                },
                {
                    "name": "F#4",
                    "midi": 66,
                    "time": 142.254589,
                    "velocity": 0.7244094488188977,
                    "duration": 0.09395404166667731
                },
                {
                    "name": "F#5",
                    "midi": 78,
                    "time": 142.254589,
                    "velocity": 0.7244094488188977,
                    "duration": 0.09395404166667731
                },
                {
                    "name": "E4",
                    "midi": 64,
                    "time": 142.352628,
                    "velocity": 0.7244094488188977,
                    "duration": 0.2900320416666773
                },
                {
                    "name": "E5",
                    "midi": 76,
                    "time": 142.352628,
                    "velocity": 0.7244094488188977,
                    "duration": 0.2900320416666773
                },
                {
                    "name": "D4",
                    "midi": 62,
                    "time": 142.646745,
                    "velocity": 0.7244094488188977,
                    "duration": 0.09395404166667731
                },
                {
                    "name": "D5",
                    "midi": 74,
                    "time": 142.646745,
                    "velocity": 0.7244094488188977,
                    "duration": 0.09395404166667731
                },
                {
                    "name": "C#4",
                    "midi": 61,
                    "time": 142.744784,
                    "velocity": 0.7244094488188977,
                    "duration": 0.19607799999999997
                },
                {
                    "name": "C#5",
                    "midi": 73,
                    "time": 142.744784,
                    "velocity": 0.7244094488188977,
                    "duration": 0.19607799999999997
                },
                {
                    "name": "E4",
                    "midi": 64,
                    "time": 142.940862,
                    "velocity": 0.7244094488188977,
                    "duration": 0.06535933333333332
                },
                {
                    "name": "E5",
                    "midi": 76,
                    "time": 142.940862,
                    "velocity": 0.7244094488188977,
                    "duration": 0.06535933333333332
                },
                {
                    "name": "A4",
                    "midi": 69,
                    "time": 143.333018,
                    "velocity": 0.7244094488188977,
                    "duration": 0.1919930416666773
                },
                {
                    "name": "A5",
                    "midi": 81,
                    "time": 143.333018,
                    "velocity": 0.7244094488188977,
                    "duration": 0.1919930416666773
                },
                {
                    "name": "C5",
                    "midi": 72,
                    "time": 143.725174,
                    "velocity": 0.7244094488188977,
                    "duration": 0.1919930416666773
                },
                {
                    "name": "C6",
                    "midi": 84,
                    "time": 143.725174,
                    "velocity": 0.7244094488188977,
                    "duration": 0.1919930416666773
                },
                {
                    "name": "D5",
                    "midi": 74,
                    "time": 144.11733,
                    "velocity": 0.7244094488188977,
                    "duration": 0.3880710416666773
                },
                {
                    "name": "D6",
                    "midi": 86,
                    "time": 144.11733,
                    "velocity": 0.7244094488188977,
                    "duration": 0.3880710416666773
                },
                {
                    "name": "C#5",
                    "midi": 73,
                    "time": 144.607525,
                    "velocity": 0.7244094488188977,
                    "duration": 0.09395404166667731
                },
                {
                    "name": "C#6",
                    "midi": 85,
                    "time": 144.607525,
                    "velocity": 0.7244094488188977,
                    "duration": 0.09395404166667731
                },
                {
                    "name": "B4",
                    "midi": 71,
                    "time": 144.705564,
                    "velocity": 0.7244094488188977,
                    "duration": 0.1919930416666773
                },
                {
                    "name": "B5",
                    "midi": 83,
                    "time": 144.705564,
                    "velocity": 0.7244094488188977,
                    "duration": 0.1919930416666773
                },
                {
                    "name": "A4",
                    "midi": 69,
                    "time": 144.999681,
                    "velocity": 0.7244094488188977,
                    "duration": 0.09395404166667731
                },
                {
                    "name": "A5",
                    "midi": 81,
                    "time": 144.999681,
                    "velocity": 0.7244094488188977,
                    "duration": 0.09395404166667731
                },
                {
                    "name": "G#4",
                    "midi": 68,
                    "time": 145.09772,
                    "velocity": 0.7244094488188977,
                    "duration": 0.2900320416666773
                },
                {
                    "name": "G#5",
                    "midi": 80,
                    "time": 145.09772,
                    "velocity": 0.7244094488188977,
                    "duration": 0.2900320416666773
                },
                {
                    "name": "F4",
                    "midi": 65,
                    "time": 145.391837,
                    "velocity": 0.7244094488188977,
                    "duration": 0.09395404166667731
                },
                {
                    "name": "F5",
                    "midi": 77,
                    "time": 145.391837,
                    "velocity": 0.7244094488188977,
                    "duration": 0.09395404166667731
                },
                {
                    "name": "E4",
                    "midi": 64,
                    "time": 145.489876,
                    "velocity": 0.7244094488188977,
                    "duration": 0.2900320416666773
                },
                {
                    "name": "E5",
                    "midi": 76,
                    "time": 145.489876,
                    "velocity": 0.7244094488188977,
                    "duration": 0.2900320416666773
                },
                {
                    "name": "D4",
                    "midi": 62,
                    "time": 145.783993,
                    "velocity": 0.7244094488188977,
                    "duration": 0.09395404166667731
                },
                {
                    "name": "D5",
                    "midi": 74,
                    "time": 145.783993,
                    "velocity": 0.7244094488188977,
                    "duration": 0.09395404166667731
                },
                {
                    "name": "C4",
                    "midi": 60,
                    "time": 145.882032,
                    "velocity": 0.7244094488188977,
                    "duration": 0.1919930416666773
                },
                {
                    "name": "C5",
                    "midi": 72,
                    "time": 145.882032,
                    "velocity": 0.7244094488188977,
                    "duration": 0.1919930416666773
                },
                {
                    "name": "C5",
                    "midi": 72,
                    "time": 146.176149,
                    "velocity": 0.7244094488188977,
                    "duration": 0.09395404166667731
                },
                {
                    "name": "C6",
                    "midi": 84,
                    "time": 146.176149,
                    "velocity": 0.7244094488188977,
                    "duration": 0.09395404166667731
                },
                {
                    "name": "B4",
                    "midi": 71,
                    "time": 146.274188,
                    "velocity": 0.7244094488188977,
                    "duration": 0.1919930416666773
                },
                {
                    "name": "B5",
                    "midi": 83,
                    "time": 146.274188,
                    "velocity": 0.7244094488188977,
                    "duration": 0.1919930416666773
                },
                {
                    "name": "C5",
                    "midi": 72,
                    "time": 146.568305,
                    "velocity": 0.7244094488188977,
                    "duration": 0.09395404166667731
                },
                {
                    "name": "C6",
                    "midi": 84,
                    "time": 146.568305,
                    "velocity": 0.7244094488188977,
                    "duration": 0.09395404166667731
                },
                {
                    "name": "A#4",
                    "midi": 70,
                    "time": 146.666344,
                    "velocity": 0.7244094488188977,
                    "duration": 0.1919930416666773
                },
                {
                    "name": "A#5",
                    "midi": 82,
                    "time": 146.666344,
                    "velocity": 0.7244094488188977,
                    "duration": 0.1919930416666773
                },
                {
                    "name": "G4",
                    "midi": 67,
                    "time": 146.960461,
                    "velocity": 0.7244094488188977,
                    "duration": 0.09395404166667731
                },
                {
                    "name": "G5",
                    "midi": 79,
                    "time": 146.960461,
                    "velocity": 0.7244094488188977,
                    "duration": 0.09395404166667731
                },
                {
                    "name": "E4",
                    "midi": 64,
                    "time": 147.0585,
                    "velocity": 0.7244094488188977,
                    "duration": 0.1919930416666773
                },
                {
                    "name": "E5",
                    "midi": 76,
                    "time": 147.0585,
                    "velocity": 0.7244094488188977,
                    "duration": 0.1919930416666773
                },
                {
                    "name": "C4",
                    "midi": 60,
                    "time": 147.352617,
                    "velocity": 0.7244094488188977,
                    "duration": 0.09395404166667731
                },
                {
                    "name": "C5",
                    "midi": 72,
                    "time": 147.352617,
                    "velocity": 0.7244094488188977,
                    "duration": 0.09395404166667731
                },
                {
                    "name": "F4",
                    "midi": 65,
                    "time": 147.450656,
                    "velocity": 0.7244094488188977,
                    "duration": 0.1919930416666773
                },
                {
                    "name": "F5",
                    "midi": 77,
                    "time": 147.450656,
                    "velocity": 0.7244094488188977,
                    "duration": 0.1919930416666773
                },
                {
                    "name": "G4",
                    "midi": 67,
                    "time": 147.744773,
                    "velocity": 0.7244094488188977,
                    "duration": 0.09395404166667731
                },
                {
                    "name": "G5",
                    "midi": 79,
                    "time": 147.744773,
                    "velocity": 0.7244094488188977,
                    "duration": 0.09395404166667731
                },
                {
                    "name": "A4",
                    "midi": 69,
                    "time": 147.842812,
                    "velocity": 0.7244094488188977,
                    "duration": 0.1919930416666773
                },
                {
                    "name": "A5",
                    "midi": 81,
                    "time": 147.842812,
                    "velocity": 0.7244094488188977,
                    "duration": 0.1919930416666773
                },
                {
                    "name": "A#4",
                    "midi": 70,
                    "time": 148.136929,
                    "velocity": 0.7244094488188977,
                    "duration": 0.09395404166667731
                },
                {
                    "name": "A#5",
                    "midi": 82,
                    "time": 148.136929,
                    "velocity": 0.7244094488188977,
                    "duration": 0.09395404166667731
                },
                {
                    "name": "A4",
                    "midi": 69,
                    "time": 148.234968,
                    "velocity": 0.7244094488188977,
                    "duration": 0.1919930416666773
                },
                {
                    "name": "A5",
                    "midi": 81,
                    "time": 148.234968,
                    "velocity": 0.7244094488188977,
                    "duration": 0.1919930416666773
                },
                {
                    "name": "E4",
                    "midi": 64,
                    "time": 148.529085,
                    "velocity": 0.7244094488188977,
                    "duration": 0.09395404166667731
                },
                {
                    "name": "E5",
                    "midi": 76,
                    "time": 148.529085,
                    "velocity": 0.7244094488188977,
                    "duration": 0.09395404166667731
                },
                {
                    "name": "C#4",
                    "midi": 61,
                    "time": 148.627124,
                    "velocity": 0.7244094488188977,
                    "duration": 0.1919930416666773
                },
                {
                    "name": "C#5",
                    "midi": 73,
                    "time": 148.627124,
                    "velocity": 0.7244094488188977,
                    "duration": 0.1919930416666773
                },
                {
                    "name": "A3",
                    "midi": 57,
                    "time": 148.921241,
                    "velocity": 0.7244094488188977,
                    "duration": 0.09395404166667731
                },
                {
                    "name": "A4",
                    "midi": 69,
                    "time": 148.921241,
                    "velocity": 0.7244094488188977,
                    "duration": 0.09395404166667731
                },
                {
                    "name": "D4",
                    "midi": 62,
                    "time": 149.01928,
                    "velocity": 0.7244094488188977,
                    "duration": 0.1919930416666773
                },
                {
                    "name": "D5",
                    "midi": 74,
                    "time": 149.01928,
                    "velocity": 0.7244094488188977,
                    "duration": 0.1919930416666773
                },
                {
                    "name": "E4",
                    "midi": 64,
                    "time": 149.313397,
                    "velocity": 0.7244094488188977,
                    "duration": 0.09395404166667731
                },
                {
                    "name": "E5",
                    "midi": 76,
                    "time": 149.313397,
                    "velocity": 0.7244094488188977,
                    "duration": 0.09395404166667731
                },
                {
                    "name": "F4",
                    "midi": 65,
                    "time": 149.411436,
                    "velocity": 0.7244094488188977,
                    "duration": 0.1919930416666773
                },
                {
                    "name": "F5",
                    "midi": 77,
                    "time": 149.411436,
                    "velocity": 0.7244094488188977,
                    "duration": 0.1919930416666773
                },
                {
                    "name": "G4",
                    "midi": 67,
                    "time": 149.705553,
                    "velocity": 0.7244094488188977,
                    "duration": 0.09395404166667731
                },
                {
                    "name": "G5",
                    "midi": 79,
                    "time": 149.705553,
                    "velocity": 0.7244094488188977,
                    "duration": 0.09395404166667731
                },
                {
                    "name": "F4",
                    "midi": 65,
                    "time": 149.803592,
                    "velocity": 0.7244094488188977,
                    "duration": 0.1919930416666773
                },
                {
                    "name": "F5",
                    "midi": 77,
                    "time": 149.803592,
                    "velocity": 0.7244094488188977,
                    "duration": 0.1919930416666773
                },
                {
                    "name": "D4",
                    "midi": 62,
                    "time": 150.097709,
                    "velocity": 0.7244094488188977,
                    "duration": 0.09395404166667731
                },
                {
                    "name": "D5",
                    "midi": 74,
                    "time": 150.097709,
                    "velocity": 0.7244094488188977,
                    "duration": 0.09395404166667731
                },
                {
                    "name": "B3",
                    "midi": 59,
                    "time": 150.195748,
                    "velocity": 0.7244094488188977,
                    "duration": 0.1919930416666773
                },
                {
                    "name": "B4",
                    "midi": 71,
                    "time": 150.195748,
                    "velocity": 0.7244094488188977,
                    "duration": 0.1919930416666773
                },
                {
                    "name": "B3",
                    "midi": 59,
                    "time": 150.489865,
                    "velocity": 0.7244094488188977,
                    "duration": 0.09395404166667731
                },
                {
                    "name": "B4",
                    "midi": 71,
                    "time": 150.489865,
                    "velocity": 0.7244094488188977,
                    "duration": 0.09395404166667731
                },
                {
                    "name": "C4",
                    "midi": 60,
                    "time": 150.587904,
                    "velocity": 0.7244094488188977,
                    "duration": 0.1919930416666773
                },
                {
                    "name": "C5",
                    "midi": 72,
                    "time": 150.587904,
                    "velocity": 0.7244094488188977,
                    "duration": 0.1919930416666773
                },
                {
                    "name": "C4",
                    "midi": 60,
                    "time": 150.882021,
                    "velocity": 0.7244094488188977,
                    "duration": 0.09395404166667731
                },
                {
                    "name": "C5",
                    "midi": 72,
                    "time": 150.882021,
                    "velocity": 0.7244094488188977,
                    "duration": 0.09395404166667731
                },
                {
                    "name": "D4",
                    "midi": 62,
                    "time": 150.98006,
                    "velocity": 0.7244094488188977,
                    "duration": 0.1919930416666773
                },
                {
                    "name": "D5",
                    "midi": 74,
                    "time": 150.98006,
                    "velocity": 0.7244094488188977,
                    "duration": 0.1919930416666773
                },
                {
                    "name": "D4",
                    "midi": 62,
                    "time": 151.274177,
                    "velocity": 0.7244094488188977,
                    "duration": 0.09395404166667731
                },
                {
                    "name": "D5",
                    "midi": 74,
                    "time": 151.274177,
                    "velocity": 0.7244094488188977,
                    "duration": 0.09395404166667731
                },
                {
                    "name": "E4",
                    "midi": 64,
                    "time": 151.372216,
                    "velocity": 0.7244094488188977,
                    "duration": 0.1919930416666773
                },
                {
                    "name": "E5",
                    "midi": 76,
                    "time": 151.372216,
                    "velocity": 0.7244094488188977,
                    "duration": 0.1919930416666773
                },
                {
                    "name": "E4",
                    "midi": 64,
                    "time": 151.666333,
                    "velocity": 0.7244094488188977,
                    "duration": 0.09395404166667731
                },
                {
                    "name": "E5",
                    "midi": 76,
                    "time": 151.666333,
                    "velocity": 0.7244094488188977,
                    "duration": 0.09395404166667731
                },
                {
                    "name": "F#4",
                    "midi": 66,
                    "time": 151.764372,
                    "velocity": 0.7244094488188977,
                    "duration": 0.1919930416666773
                },
                {
                    "name": "F#5",
                    "midi": 78,
                    "time": 151.764372,
                    "velocity": 0.7244094488188977,
                    "duration": 0.1919930416666773
                },
                {
                    "name": "F#4",
                    "midi": 66,
                    "time": 152.058489,
                    "velocity": 0.7244094488188977,
                    "duration": 0.09395404166667731
                },
                {
                    "name": "F#5",
                    "midi": 78,
                    "time": 152.058489,
                    "velocity": 0.7244094488188977,
                    "duration": 0.09395404166667731
                },
                {
                    "name": "G4",
                    "midi": 67,
                    "time": 152.156528,
                    "velocity": 0.7244094488188977,
                    "duration": 0.1919930416666773
                },
                {
                    "name": "G5",
                    "midi": 79,
                    "time": 152.156528,
                    "velocity": 0.7244094488188977,
                    "duration": 0.1919930416666773
                },
                {
                    "name": "G4",
                    "midi": 67,
                    "time": 152.94084,
                    "velocity": 0.47244094488188976,
                    "duration": 0.3267966666666666
                },
                {
                    "name": "B4",
                    "midi": 71,
                    "time": 152.94084,
                    "velocity": 0.47244094488188976,
                    "duration": 0.3267966666666666
                },
                {
                    "name": "D5",
                    "midi": 74,
                    "time": 152.94084,
                    "velocity": 0.47244094488188976,
                    "duration": 0.3267966666666666
                },
                {
                    "name": "G5",
                    "midi": 79,
                    "time": 152.94084,
                    "velocity": 0.47244094488188976,
                    "duration": 0.3267966666666666
                },
                {
                    "name": "B5",
                    "midi": 83,
                    "time": 152.94084,
                    "velocity": 0.47244094488188976,
                    "duration": 0.3267966666666666
                },
                {
                    "name": "G4",
                    "midi": 67,
                    "time": 153.332996,
                    "velocity": 0.47244094488188976,
                    "duration": 0.3267966666666666
                },
                {
                    "name": "B4",
                    "midi": 71,
                    "time": 153.332996,
                    "velocity": 0.47244094488188976,
                    "duration": 0.3267966666666666
                },
                {
                    "name": "D5",
                    "midi": 74,
                    "time": 153.332996,
                    "velocity": 0.47244094488188976,
                    "duration": 0.3267966666666666
                },
                {
                    "name": "G5",
                    "midi": 79,
                    "time": 153.332996,
                    "velocity": 0.47244094488188976,
                    "duration": 0.3267966666666666
                },
                {
                    "name": "B5",
                    "midi": 83,
                    "time": 153.332996,
                    "velocity": 0.47244094488188976,
                    "duration": 0.3267966666666666
                },
                {
                    "name": "D#4",
                    "midi": 63,
                    "time": 153.725152,
                    "velocity": 0.47244094488188976,
                    "duration": 0.6862729999999999
                },
                {
                    "name": "A4",
                    "midi": 69,
                    "time": 153.725152,
                    "velocity": 0.47244094488188976,
                    "duration": 0.6862729999999999
                },
                {
                    "name": "C5",
                    "midi": 72,
                    "time": 153.725152,
                    "velocity": 0.47244094488188976,
                    "duration": 0.6862729999999999
                },
                {
                    "name": "D#5",
                    "midi": 75,
                    "time": 153.725152,
                    "velocity": 0.47244094488188976,
                    "duration": 0.6862729999999999
                },
                {
                    "name": "G5",
                    "midi": 79,
                    "time": 153.725152,
                    "velocity": 0.47244094488188976,
                    "duration": 0.6862729999999999
                },
                {
                    "name": "C6",
                    "midi": 84,
                    "time": 153.725152,
                    "velocity": 0.47244094488188976,
                    "duration": 0.6862729999999999
                },
                {
                    "name": "D#4",
                    "midi": 63,
                    "time": 154.509464,
                    "velocity": 0.47244094488188976,
                    "duration": 0.6862729999999999
                },
                {
                    "name": "A4",
                    "midi": 69,
                    "time": 154.509464,
                    "velocity": 0.47244094488188976,
                    "duration": 0.6862729999999999
                },
                {
                    "name": "C5",
                    "midi": 72,
                    "time": 154.509464,
                    "velocity": 0.47244094488188976,
                    "duration": 0.6862729999999999
                },
                {
                    "name": "D#5",
                    "midi": 75,
                    "time": 154.509464,
                    "velocity": 0.47244094488188976,
                    "duration": 0.6862729999999999
                },
                {
                    "name": "G5",
                    "midi": 79,
                    "time": 154.509464,
                    "velocity": 0.47244094488188976,
                    "duration": 0.6862729999999999
                },
                {
                    "name": "C6",
                    "midi": 84,
                    "time": 154.509464,
                    "velocity": 0.47244094488188976,
                    "duration": 0.6862729999999999
                },
                {
                    "name": "G4",
                    "midi": 67,
                    "time": 155.293776,
                    "velocity": 0.47244094488188976,
                    "duration": 0.6862729999999999
                },
                {
                    "name": "B4",
                    "midi": 71,
                    "time": 155.293776,
                    "velocity": 0.47244094488188976,
                    "duration": 0.6862729999999999
                },
                {
                    "name": "D5",
                    "midi": 74,
                    "time": 155.293776,
                    "velocity": 0.47244094488188976,
                    "duration": 0.6862729999999999
                },
                {
                    "name": "G5",
                    "midi": 79,
                    "time": 155.293776,
                    "velocity": 0.47244094488188976,
                    "duration": 0.6862729999999999
                },
                {
                    "name": "B5",
                    "midi": 83,
                    "time": 155.293776,
                    "velocity": 0.47244094488188976,
                    "duration": 0.6862729999999999
                },
                {
                    "name": "G4",
                    "midi": 67,
                    "time": 156.078088,
                    "velocity": 0.47244094488188976,
                    "duration": 0.3267966666666666
                },
                {
                    "name": "B4",
                    "midi": 71,
                    "time": 156.078088,
                    "velocity": 0.47244094488188976,
                    "duration": 0.3267966666666666
                },
                {
                    "name": "D5",
                    "midi": 74,
                    "time": 156.078088,
                    "velocity": 0.47244094488188976,
                    "duration": 0.3267966666666666
                },
                {
                    "name": "G5",
                    "midi": 79,
                    "time": 156.078088,
                    "velocity": 0.47244094488188976,
                    "duration": 0.3267966666666666
                },
                {
                    "name": "B5",
                    "midi": 83,
                    "time": 156.078088,
                    "velocity": 0.47244094488188976,
                    "duration": 0.3267966666666666
                },
                {
                    "name": "G4",
                    "midi": 67,
                    "time": 156.470244,
                    "velocity": 0.47244094488188976,
                    "duration": 0.3267966666666666
                },
                {
                    "name": "B4",
                    "midi": 71,
                    "time": 156.470244,
                    "velocity": 0.47244094488188976,
                    "duration": 0.3267966666666666
                },
                {
                    "name": "D5",
                    "midi": 74,
                    "time": 156.470244,
                    "velocity": 0.47244094488188976,
                    "duration": 0.3267966666666666
                },
                {
                    "name": "G5",
                    "midi": 79,
                    "time": 156.470244,
                    "velocity": 0.47244094488188976,
                    "duration": 0.3267966666666666
                },
                {
                    "name": "B5",
                    "midi": 83,
                    "time": 156.470244,
                    "velocity": 0.47244094488188976,
                    "duration": 0.3267966666666666
                },
                {
                    "name": "D#4",
                    "midi": 63,
                    "time": 156.8624,
                    "velocity": 0.47244094488188976,
                    "duration": 0.6862729999999999
                },
                {
                    "name": "A4",
                    "midi": 69,
                    "time": 156.8624,
                    "velocity": 0.47244094488188976,
                    "duration": 0.6862729999999999
                },
                {
                    "name": "C5",
                    "midi": 72,
                    "time": 156.8624,
                    "velocity": 0.47244094488188976,
                    "duration": 0.6862729999999999
                },
                {
                    "name": "D#5",
                    "midi": 75,
                    "time": 156.8624,
                    "velocity": 0.47244094488188976,
                    "duration": 0.6862729999999999
                },
                {
                    "name": "G5",
                    "midi": 79,
                    "time": 156.8624,
                    "velocity": 0.47244094488188976,
                    "duration": 0.6862729999999999
                },
                {
                    "name": "C6",
                    "midi": 84,
                    "time": 156.8624,
                    "velocity": 0.47244094488188976,
                    "duration": 0.6862729999999999
                },
                {
                    "name": "D#4",
                    "midi": 63,
                    "time": 157.646712,
                    "velocity": 0.47244094488188976,
                    "duration": 0.6862729999999999
                },
                {
                    "name": "G4",
                    "midi": 67,
                    "time": 157.646712,
                    "velocity": 0.47244094488188976,
                    "duration": 0.6862729999999999
                },
                {
                    "name": "C5",
                    "midi": 72,
                    "time": 157.646712,
                    "velocity": 0.47244094488188976,
                    "duration": 0.6862729999999999
                },
                {
                    "name": "D#5",
                    "midi": 75,
                    "time": 157.646712,
                    "velocity": 0.47244094488188976,
                    "duration": 0.6862729999999999
                },
                {
                    "name": "G5",
                    "midi": 79,
                    "time": 157.646712,
                    "velocity": 0.47244094488188976,
                    "duration": 0.6862729999999999
                },
                {
                    "name": "C6",
                    "midi": 84,
                    "time": 157.646712,
                    "velocity": 0.47244094488188976,
                    "duration": 0.6862729999999999
                },
                {
                    "name": "G4",
                    "midi": 67,
                    "time": 158.431024,
                    "velocity": 0.47244094488188976,
                    "duration": 0.39215599999999995
                },
                {
                    "name": "B4",
                    "midi": 71,
                    "time": 158.431024,
                    "velocity": 0.47244094488188976,
                    "duration": 0.39215599999999995
                },
                {
                    "name": "D5",
                    "midi": 74,
                    "time": 158.431024,
                    "velocity": 0.47244094488188976,
                    "duration": 0.39215599999999995
                },
                {
                    "name": "G5",
                    "midi": 79,
                    "time": 158.431024,
                    "velocity": 0.47244094488188976,
                    "duration": 0.39215599999999995
                },
                {
                    "name": "B5",
                    "midi": 83,
                    "time": 158.431024,
                    "velocity": 0.47244094488188976,
                    "duration": 0.39215599999999995
                },
                {
                    "name": "G4",
                    "midi": 67,
                    "time": 158.82318,
                    "velocity": 0.47244094488188976,
                    "duration": 0.39215599999999995
                },
                {
                    "name": "C5",
                    "midi": 72,
                    "time": 158.82318,
                    "velocity": 0.47244094488188976,
                    "duration": 0.39215599999999995
                },
                {
                    "name": "D#5",
                    "midi": 75,
                    "time": 158.82318,
                    "velocity": 0.47244094488188976,
                    "duration": 0.39215599999999995
                },
                {
                    "name": "G5",
                    "midi": 79,
                    "time": 158.82318,
                    "velocity": 0.47244094488188976,
                    "duration": 0.39215599999999995
                },
                {
                    "name": "C6",
                    "midi": 84,
                    "time": 158.82318,
                    "velocity": 0.47244094488188976,
                    "duration": 0.39215599999999995
                },
                {
                    "name": "G4",
                    "midi": 67,
                    "time": 159.215336,
                    "velocity": 0.47244094488188976,
                    "duration": 0.39215599999999995
                },
                {
                    "name": "B4",
                    "midi": 71,
                    "time": 159.215336,
                    "velocity": 0.47244094488188976,
                    "duration": 0.39215599999999995
                },
                {
                    "name": "D5",
                    "midi": 74,
                    "time": 159.215336,
                    "velocity": 0.47244094488188976,
                    "duration": 0.39215599999999995
                },
                {
                    "name": "G5",
                    "midi": 79,
                    "time": 159.215336,
                    "velocity": 0.47244094488188976,
                    "duration": 0.39215599999999995
                },
                {
                    "name": "B5",
                    "midi": 83,
                    "time": 159.215336,
                    "velocity": 0.47244094488188976,
                    "duration": 0.39215599999999995
                },
                {
                    "name": "G4",
                    "midi": 67,
                    "time": 159.607492,
                    "velocity": 0.47244094488188976,
                    "duration": 0.39215599999999995
                },
                {
                    "name": "C5",
                    "midi": 72,
                    "time": 159.607492,
                    "velocity": 0.47244094488188976,
                    "duration": 0.39215599999999995
                },
                {
                    "name": "D#5",
                    "midi": 75,
                    "time": 159.607492,
                    "velocity": 0.47244094488188976,
                    "duration": 0.39215599999999995
                },
                {
                    "name": "G5",
                    "midi": 79,
                    "time": 159.607492,
                    "velocity": 0.47244094488188976,
                    "duration": 0.39215599999999995
                },
                {
                    "name": "C6",
                    "midi": 84,
                    "time": 159.607492,
                    "velocity": 0.47244094488188976,
                    "duration": 0.39215599999999995
                },
                {
                    "name": "G4",
                    "midi": 67,
                    "time": 159.999648,
                    "velocity": 0.47244094488188976,
                    "duration": 0.39215599999999995
                },
                {
                    "name": "B4",
                    "midi": 71,
                    "time": 159.999648,
                    "velocity": 0.47244094488188976,
                    "duration": 0.39215599999999995
                },
                {
                    "name": "D5",
                    "midi": 74,
                    "time": 159.999648,
                    "velocity": 0.47244094488188976,
                    "duration": 0.39215599999999995
                },
                {
                    "name": "G5",
                    "midi": 79,
                    "time": 159.999648,
                    "velocity": 0.47244094488188976,
                    "duration": 0.39215599999999995
                },
                {
                    "name": "B5",
                    "midi": 83,
                    "time": 159.999648,
                    "velocity": 0.47244094488188976,
                    "duration": 0.39215599999999995
                },
                {
                    "name": "G4",
                    "midi": 67,
                    "time": 160.391804,
                    "velocity": 0.47244094488188976,
                    "duration": 0.39215599999999995
                },
                {
                    "name": "C5",
                    "midi": 72,
                    "time": 160.391804,
                    "velocity": 0.47244094488188976,
                    "duration": 0.39215599999999995
                },
                {
                    "name": "D#5",
                    "midi": 75,
                    "time": 160.391804,
                    "velocity": 0.47244094488188976,
                    "duration": 0.39215599999999995
                },
                {
                    "name": "G5",
                    "midi": 79,
                    "time": 160.391804,
                    "velocity": 0.47244094488188976,
                    "duration": 0.39215599999999995
                },
                {
                    "name": "C6",
                    "midi": 84,
                    "time": 160.391804,
                    "velocity": 0.47244094488188976,
                    "duration": 0.39215599999999995
                },
                {
                    "name": "G4",
                    "midi": 67,
                    "time": 160.78396,
                    "velocity": 0.47244094488188976,
                    "duration": 0.39215599999999995
                },
                {
                    "name": "B4",
                    "midi": 71,
                    "time": 160.78396,
                    "velocity": 0.47244094488188976,
                    "duration": 0.39215599999999995
                },
                {
                    "name": "D5",
                    "midi": 74,
                    "time": 160.78396,
                    "velocity": 0.47244094488188976,
                    "duration": 0.39215599999999995
                },
                {
                    "name": "G5",
                    "midi": 79,
                    "time": 160.78396,
                    "velocity": 0.47244094488188976,
                    "duration": 0.39215599999999995
                },
                {
                    "name": "B5",
                    "midi": 83,
                    "time": 160.78396,
                    "velocity": 0.47244094488188976,
                    "duration": 0.39215599999999995
                },
                {
                    "name": "D6",
                    "midi": 86,
                    "time": 160.78396,
                    "velocity": 0.47244094488188976,
                    "duration": 0.39215599999999995
                },
                {
                    "name": "G4",
                    "midi": 67,
                    "time": 161.176116,
                    "velocity": 0.47244094488188976,
                    "duration": 0.39215599999999995
                },
                {
                    "name": "C5",
                    "midi": 72,
                    "time": 161.176116,
                    "velocity": 0.47244094488188976,
                    "duration": 0.39215599999999995
                },
                {
                    "name": "D#5",
                    "midi": 75,
                    "time": 161.176116,
                    "velocity": 0.47244094488188976,
                    "duration": 0.39215599999999995
                },
                {
                    "name": "G5",
                    "midi": 79,
                    "time": 161.176116,
                    "velocity": 0.47244094488188976,
                    "duration": 0.39215599999999995
                },
                {
                    "name": "C6",
                    "midi": 84,
                    "time": 161.176116,
                    "velocity": 0.47244094488188976,
                    "duration": 0.39215599999999995
                },
                {
                    "name": "D#6",
                    "midi": 87,
                    "time": 161.176116,
                    "velocity": 0.47244094488188976,
                    "duration": 0.39215599999999995
                },
                {
                    "name": "G4",
                    "midi": 67,
                    "time": 161.568272,
                    "velocity": 0.47244094488188976,
                    "duration": 0.3267966666666666
                },
                {
                    "name": "B4",
                    "midi": 71,
                    "time": 161.568272,
                    "velocity": 0.47244094488188976,
                    "duration": 0.3267966666666666
                },
                {
                    "name": "D5",
                    "midi": 74,
                    "time": 161.568272,
                    "velocity": 0.47244094488188976,
                    "duration": 0.3267966666666666
                },
                {
                    "name": "G5",
                    "midi": 79,
                    "time": 161.568272,
                    "velocity": 0.47244094488188976,
                    "duration": 0.3267966666666666
                },
                {
                    "name": "B5",
                    "midi": 83,
                    "time": 161.568272,
                    "velocity": 0.47244094488188976,
                    "duration": 0.3267966666666666
                },
                {
                    "name": "D6",
                    "midi": 86,
                    "time": 161.568272,
                    "velocity": 0.47244094488188976,
                    "duration": 0.3267966666666666
                },
                {
                    "name": "F4",
                    "midi": 65,
                    "time": 163.136896,
                    "velocity": 0.47244094488188976,
                    "duration": 0.3267966666666666
                },
                {
                    "name": "A4",
                    "midi": 69,
                    "time": 163.136896,
                    "velocity": 0.47244094488188976,
                    "duration": 0.3267966666666666
                },
                {
                    "name": "C5",
                    "midi": 72,
                    "time": 163.136896,
                    "velocity": 0.47244094488188976,
                    "duration": 0.3267966666666666
                },
                {
                    "name": "F5",
                    "midi": 77,
                    "time": 163.136896,
                    "velocity": 0.47244094488188976,
                    "duration": 0.3267966666666666
                },
                {
                    "name": "A5",
                    "midi": 81,
                    "time": 163.136896,
                    "velocity": 0.47244094488188976,
                    "duration": 0.3267966666666666
                },
                {
                    "name": "C6",
                    "midi": 84,
                    "time": 163.136896,
                    "velocity": 0.47244094488188976,
                    "duration": 0.3267966666666666
                },
                {
                    "name": "D5",
                    "midi": 74,
                    "time": 164.70552,
                    "velocity": 0.47244094488188976,
                    "duration": 0.3267966666666666
                },
                {
                    "name": "F5",
                    "midi": 77,
                    "time": 164.70552,
                    "velocity": 0.47244094488188976,
                    "duration": 0.3267966666666666
                },
                {
                    "name": "B5",
                    "midi": 83,
                    "time": 164.70552,
                    "velocity": 0.47244094488188976,
                    "duration": 0.3267966666666666
                },
                {
                    "name": "E4",
                    "midi": 64,
                    "time": 168.823158,
                    "velocity": 0.47244094488188976,
                    "duration": 0.5228746666666666
                },
                {
                    "name": "G4",
                    "midi": 67,
                    "time": 168.823158,
                    "velocity": 0.47244094488188976,
                    "duration": 0.5228746666666666
                },
                {
                    "name": "C5",
                    "midi": 72,
                    "time": 168.823158,
                    "velocity": 0.47244094488188976,
                    "duration": 0.5228746666666666
                },
                {
                    "name": "D4",
                    "midi": 62,
                    "time": 169.60747,
                    "velocity": 0.47244094488188976,
                    "duration": 0.5228746666666666
                },
                {
                    "name": "F4",
                    "midi": 65,
                    "time": 169.60747,
                    "velocity": 0.47244094488188976,
                    "duration": 0.5228746666666666
                },
                {
                    "name": "G4",
                    "midi": 67,
                    "time": 169.60747,
                    "velocity": 0.47244094488188976,
                    "duration": 0.5228746666666666
                },
                {
                    "name": "B4",
                    "midi": 71,
                    "time": 169.60747,
                    "velocity": 0.47244094488188976,
                    "duration": 0.5228746666666666
                },
                {
                    "name": "D4",
                    "midi": 62,
                    "time": 170.391782,
                    "velocity": 0.47244094488188976,
                    "duration": 0.5228746666666666
                },
                {
                    "name": "F4",
                    "midi": 65,
                    "time": 170.391782,
                    "velocity": 0.47244094488188976,
                    "duration": 0.5228746666666666
                },
                {
                    "name": "G4",
                    "midi": 67,
                    "time": 170.391782,
                    "velocity": 0.47244094488188976,
                    "duration": 0.5228746666666666
                },
                {
                    "name": "B4",
                    "midi": 71,
                    "time": 170.391782,
                    "velocity": 0.47244094488188976,
                    "duration": 0.5228746666666666
                },
                {
                    "name": "E4",
                    "midi": 64,
                    "time": 171.176094,
                    "velocity": 0.47244094488188976,
                    "duration": 0.5228746666666666
                },
                {
                    "name": "G4",
                    "midi": 67,
                    "time": 171.176094,
                    "velocity": 0.47244094488188976,
                    "duration": 0.5228746666666666
                },
                {
                    "name": "C5",
                    "midi": 72,
                    "time": 171.176094,
                    "velocity": 0.47244094488188976,
                    "duration": 0.5228746666666666
                },
                {
                    "name": "E4",
                    "midi": 64,
                    "time": 171.960406,
                    "velocity": 0.47244094488188976,
                    "duration": 0.5228746666666666
                },
                {
                    "name": "G4",
                    "midi": 67,
                    "time": 171.960406,
                    "velocity": 0.47244094488188976,
                    "duration": 0.5228746666666666
                },
                {
                    "name": "A4",
                    "midi": 69,
                    "time": 171.960406,
                    "velocity": 0.47244094488188976,
                    "duration": 0.5228746666666666
                },
                {
                    "name": "C#5",
                    "midi": 73,
                    "time": 171.960406,
                    "velocity": 0.47244094488188976,
                    "duration": 0.5228746666666666
                },
                {
                    "name": "D4",
                    "midi": 62,
                    "time": 172.54864,
                    "velocity": 0.47244094488188976,
                    "duration": 0.39215599999999995
                },
                {
                    "name": "F4",
                    "midi": 65,
                    "time": 172.54864,
                    "velocity": 0.47244094488188976,
                    "duration": 0.39215599999999995
                },
                {
                    "name": "A4",
                    "midi": 69,
                    "time": 172.54864,
                    "velocity": 0.47244094488188976,
                    "duration": 0.39215599999999995
                },
                {
                    "name": "D4",
                    "midi": 62,
                    "time": 172.940796,
                    "velocity": 0.47244094488188976,
                    "duration": 0.39215599999999995
                },
                {
                    "name": "F4",
                    "midi": 65,
                    "time": 172.940796,
                    "velocity": 0.47244094488188976,
                    "duration": 0.39215599999999995
                },
                {
                    "name": "B4",
                    "midi": 71,
                    "time": 172.940796,
                    "velocity": 0.47244094488188976,
                    "duration": 0.39215599999999995
                },
                {
                    "name": "C4",
                    "midi": 60,
                    "time": 173.332952,
                    "velocity": 0.47244094488188976,
                    "duration": 0.39215599999999995
                },
                {
                    "name": "E4",
                    "midi": 64,
                    "time": 173.332952,
                    "velocity": 0.47244094488188976,
                    "duration": 0.39215599999999995
                },
                {
                    "name": "G4",
                    "midi": 67,
                    "time": 173.332952,
                    "velocity": 0.47244094488188976,
                    "duration": 0.39215599999999995
                },
                {
                    "name": "C5",
                    "midi": 72,
                    "time": 173.332952,
                    "velocity": 0.47244094488188976,
                    "duration": 0.39215599999999995
                },
                {
                    "name": "F#4",
                    "midi": 66,
                    "time": 173.725108,
                    "velocity": 0.47244094488188976,
                    "duration": 0.39215599999999995
                },
                {
                    "name": "A4",
                    "midi": 69,
                    "time": 173.725108,
                    "velocity": 0.47244094488188976,
                    "duration": 0.39215599999999995
                },
                {
                    "name": "C5",
                    "midi": 72,
                    "time": 173.725108,
                    "velocity": 0.47244094488188976,
                    "duration": 0.39215599999999995
                },
                {
                    "name": "D5",
                    "midi": 74,
                    "time": 173.725108,
                    "velocity": 0.47244094488188976,
                    "duration": 0.39215599999999995
                },
                {
                    "name": "D4",
                    "midi": 62,
                    "time": 174.117264,
                    "velocity": 0.47244094488188976,
                    "duration": 0.1919930416666773
                },
                {
                    "name": "G4",
                    "midi": 67,
                    "time": 174.117264,
                    "velocity": 0.47244094488188976,
                    "duration": 0.1919930416666773
                },
                {
                    "name": "B4",
                    "midi": 71,
                    "time": 174.117264,
                    "velocity": 0.47244094488188976,
                    "duration": 0.1919930416666773
                },
                {
                    "name": "E4",
                    "midi": 64,
                    "time": 175.097654,
                    "velocity": 0.47244094488188976,
                    "duration": 0.5228746666666666
                },
                {
                    "name": "G4",
                    "midi": 67,
                    "time": 175.097654,
                    "velocity": 0.47244094488188976,
                    "duration": 0.5228746666666666
                },
                {
                    "name": "C5",
                    "midi": 72,
                    "time": 175.097654,
                    "velocity": 0.47244094488188976,
                    "duration": 0.5228746666666666
                },
                {
                    "name": "D4",
                    "midi": 62,
                    "time": 175.881966,
                    "velocity": 0.47244094488188976,
                    "duration": 0.5228746666666666
                },
                {
                    "name": "F4",
                    "midi": 65,
                    "time": 175.881966,
                    "velocity": 0.47244094488188976,
                    "duration": 0.5228746666666666
                },
                {
                    "name": "G4",
                    "midi": 67,
                    "time": 175.881966,
                    "velocity": 0.47244094488188976,
                    "duration": 0.5228746666666666
                },
                {
                    "name": "B4",
                    "midi": 71,
                    "time": 175.881966,
                    "velocity": 0.47244094488188976,
                    "duration": 0.5228746666666666
                },
                {
                    "name": "F4",
                    "midi": 65,
                    "time": 176.666278,
                    "velocity": 0.47244094488188976,
                    "duration": 0.5228746666666666
                },
                {
                    "name": "G4",
                    "midi": 67,
                    "time": 176.666278,
                    "velocity": 0.47244094488188976,
                    "duration": 0.5228746666666666
                },
                {
                    "name": "B4",
                    "midi": 71,
                    "time": 176.666278,
                    "velocity": 0.47244094488188976,
                    "duration": 0.5228746666666666
                },
                {
                    "name": "D5",
                    "midi": 74,
                    "time": 176.666278,
                    "velocity": 0.47244094488188976,
                    "duration": 0.5228746666666666
                },
                {
                    "name": "E4",
                    "midi": 64,
                    "time": 177.45059,
                    "velocity": 0.47244094488188976,
                    "duration": 0.5228746666666666
                },
                {
                    "name": "G4",
                    "midi": 67,
                    "time": 177.45059,
                    "velocity": 0.47244094488188976,
                    "duration": 0.5228746666666666
                },
                {
                    "name": "C5",
                    "midi": 72,
                    "time": 177.45059,
                    "velocity": 0.47244094488188976,
                    "duration": 0.5228746666666666
                },
                {
                    "name": "E5",
                    "midi": 76,
                    "time": 177.45059,
                    "velocity": 0.47244094488188976,
                    "duration": 0.5228746666666666
                },
                {
                    "name": "E4",
                    "midi": 64,
                    "time": 178.234902,
                    "velocity": 0.47244094488188976,
                    "duration": 0.5228746666666666
                },
                {
                    "name": "G4",
                    "midi": 67,
                    "time": 178.234902,
                    "velocity": 0.47244094488188976,
                    "duration": 0.5228746666666666
                },
                {
                    "name": "A#4",
                    "midi": 70,
                    "time": 178.234902,
                    "velocity": 0.47244094488188976,
                    "duration": 0.5228746666666666
                },
                {
                    "name": "C5",
                    "midi": 72,
                    "time": 178.234902,
                    "velocity": 0.47244094488188976,
                    "duration": 0.5228746666666666
                },
                {
                    "name": "E5",
                    "midi": 76,
                    "time": 178.234902,
                    "velocity": 0.47244094488188976,
                    "duration": 0.5228746666666666
                },
                {
                    "name": "F4",
                    "midi": 65,
                    "time": 179.019214,
                    "velocity": 0.47244094488188976,
                    "duration": 0.5228746666666666
                },
                {
                    "name": "A4",
                    "midi": 69,
                    "time": 179.019214,
                    "velocity": 0.47244094488188976,
                    "duration": 0.5228746666666666
                },
                {
                    "name": "C5",
                    "midi": 72,
                    "time": 179.019214,
                    "velocity": 0.47244094488188976,
                    "duration": 0.5228746666666666
                },
                {
                    "name": "F5",
                    "midi": 77,
                    "time": 179.019214,
                    "velocity": 0.47244094488188976,
                    "duration": 0.5228746666666666
                },
                {
                    "name": "F#4",
                    "midi": 66,
                    "time": 179.803526,
                    "velocity": 0.47244094488188976,
                    "duration": 0.5228746666666666
                },
                {
                    "name": "A4",
                    "midi": 69,
                    "time": 179.803526,
                    "velocity": 0.47244094488188976,
                    "duration": 0.5228746666666666
                },
                {
                    "name": "C5",
                    "midi": 72,
                    "time": 179.803526,
                    "velocity": 0.47244094488188976,
                    "duration": 0.5228746666666666
                },
                {
                    "name": "D5",
                    "midi": 74,
                    "time": 179.803526,
                    "velocity": 0.47244094488188976,
                    "duration": 0.5228746666666666
                },
                {
                    "name": "D4",
                    "midi": 62,
                    "time": 180.587838,
                    "velocity": 0.47244094488188976,
                    "duration": 0.5228746666666666
                },
                {
                    "name": "G4",
                    "midi": 67,
                    "time": 180.587838,
                    "velocity": 0.47244094488188976,
                    "duration": 0.5228746666666666
                },
                {
                    "name": "B4",
                    "midi": 71,
                    "time": 180.587838,
                    "velocity": 0.47244094488188976,
                    "duration": 0.5228746666666666
                },
                {
                    "name": "D5",
                    "midi": 74,
                    "time": 180.587838,
                    "velocity": 0.47244094488188976,
                    "duration": 0.5228746666666666
                },
                {
                    "name": "G4",
                    "midi": 67,
                    "time": 181.37215,
                    "velocity": 0.47244094488188976,
                    "duration": 0.5228746666666666
                },
                {
                    "name": "B4",
                    "midi": 71,
                    "time": 181.37215,
                    "velocity": 0.47244094488188976,
                    "duration": 0.5228746666666666
                },
                {
                    "name": "D5",
                    "midi": 74,
                    "time": 181.37215,
                    "velocity": 0.47244094488188976,
                    "duration": 0.5228746666666666
                },
                {
                    "name": "F5",
                    "midi": 77,
                    "time": 181.37215,
                    "velocity": 0.47244094488188976,
                    "duration": 0.5228746666666666
                },
                {
                    "name": "G4",
                    "midi": 67,
                    "time": 181.960384,
                    "velocity": 0.47244094488188976,
                    "duration": 0.09803899999999999
                },
                {
                    "name": "C5",
                    "midi": 72,
                    "time": 181.960384,
                    "velocity": 0.47244094488188976,
                    "duration": 0.09803899999999999
                },
                {
                    "name": "E5",
                    "midi": 76,
                    "time": 181.960384,
                    "velocity": 0.47244094488188976,
                    "duration": 0.09803899999999999
                },
                {
                    "name": "E4",
                    "midi": 64,
                    "time": 182.35254,
                    "velocity": 0.47244094488188976,
                    "duration": 0.39215599999999995
                },
                {
                    "name": "G#4",
                    "midi": 68,
                    "time": 182.35254,
                    "velocity": 0.47244094488188976,
                    "duration": 0.39215599999999995
                },
                {
                    "name": "B4",
                    "midi": 71,
                    "time": 182.35254,
                    "velocity": 0.47244094488188976,
                    "duration": 0.39215599999999995
                },
                {
                    "name": "D5",
                    "midi": 74,
                    "time": 182.35254,
                    "velocity": 0.47244094488188976,
                    "duration": 0.39215599999999995
                },
                {
                    "name": "E4",
                    "midi": 64,
                    "time": 182.744696,
                    "velocity": 0.47244094488188976,
                    "duration": 0.39215599999999995
                },
                {
                    "name": "A4",
                    "midi": 69,
                    "time": 182.744696,
                    "velocity": 0.47244094488188976,
                    "duration": 0.39215599999999995
                },
                {
                    "name": "C5",
                    "midi": 72,
                    "time": 182.744696,
                    "velocity": 0.47244094488188976,
                    "duration": 0.39215599999999995
                },
                {
                    "name": "C4",
                    "midi": 60,
                    "time": 183.136852,
                    "velocity": 0.47244094488188976,
                    "duration": 0.39215599999999995
                },
                {
                    "name": "E4",
                    "midi": 64,
                    "time": 183.136852,
                    "velocity": 0.47244094488188976,
                    "duration": 0.39215599999999995
                },
                {
                    "name": "G4",
                    "midi": 67,
                    "time": 183.136852,
                    "velocity": 0.47244094488188976,
                    "duration": 0.39215599999999995
                },
                {
                    "name": "A#4",
                    "midi": 70,
                    "time": 183.136852,
                    "velocity": 0.47244094488188976,
                    "duration": 0.39215599999999995
                },
                {
                    "name": "C4",
                    "midi": 60,
                    "time": 183.529008,
                    "velocity": 0.47244094488188976,
                    "duration": 0.6862729999999999
                },
                {
                    "name": "F4",
                    "midi": 65,
                    "time": 183.529008,
                    "velocity": 0.47244094488188976,
                    "duration": 0.6862729999999999
                },
                {
                    "name": "A4",
                    "midi": 69,
                    "time": 183.529008,
                    "velocity": 0.47244094488188976,
                    "duration": 0.6862729999999999
                },
                {
                    "name": "D#4",
                    "midi": 63,
                    "time": 184.509398,
                    "velocity": 0.47244094488188976,
                    "duration": 0.5228746666666666
                },
                {
                    "name": "A4",
                    "midi": 69,
                    "time": 184.509398,
                    "velocity": 0.47244094488188976,
                    "duration": 0.5228746666666666
                },
                {
                    "name": "C5",
                    "midi": 72,
                    "time": 184.509398,
                    "velocity": 0.47244094488188976,
                    "duration": 0.5228746666666666
                },
                {
                    "name": "D#5",
                    "midi": 75,
                    "time": 184.509398,
                    "velocity": 0.47244094488188976,
                    "duration": 0.5228746666666666
                },
                {
                    "name": "E4",
                    "midi": 64,
                    "time": 185.29371,
                    "velocity": 0.47244094488188976,
                    "duration": 0.5228746666666666
                },
                {
                    "name": "G4",
                    "midi": 67,
                    "time": 185.29371,
                    "velocity": 0.47244094488188976,
                    "duration": 0.1919930416666773
                },
                {
                    "name": "C5",
                    "midi": 72,
                    "time": 185.29371,
                    "velocity": 0.47244094488188976,
                    "duration": 0.5228746666666666
                },
                {
                    "name": "E5",
                    "midi": 76,
                    "time": 185.29371,
                    "velocity": 0.47244094488188976,
                    "duration": 0.5228746666666666
                },
                {
                    "name": "A4",
                    "midi": 69,
                    "time": 185.489788,
                    "velocity": 0.47244094488188976,
                    "duration": 0.3267966666666666
                },
                {
                    "name": "F4",
                    "midi": 65,
                    "time": 186.078022,
                    "velocity": 0.47244094488188976,
                    "duration": 0.5228746666666666
                },
                {
                    "name": "B4",
                    "midi": 71,
                    "time": 186.078022,
                    "velocity": 0.47244094488188976,
                    "duration": 0.5228746666666666
                },
                {
                    "name": "D5",
                    "midi": 74,
                    "time": 186.078022,
                    "velocity": 0.47244094488188976,
                    "duration": 0.5228746666666666
                },
                {
                    "name": "F5",
                    "midi": 77,
                    "time": 186.078022,
                    "velocity": 0.47244094488188976,
                    "duration": 0.5228746666666666
                },
                {
                    "name": "D#4",
                    "midi": 63,
                    "time": 186.862334,
                    "velocity": 0.47244094488188976,
                    "duration": 0.5228746666666666
                },
                {
                    "name": "G#4",
                    "midi": 68,
                    "time": 186.862334,
                    "velocity": 0.47244094488188976,
                    "duration": 0.5228746666666666
                },
                {
                    "name": "C5",
                    "midi": 72,
                    "time": 186.862334,
                    "velocity": 0.47244094488188976,
                    "duration": 0.5228746666666666
                },
                {
                    "name": "D#5",
                    "midi": 75,
                    "time": 186.862334,
                    "velocity": 0.47244094488188976,
                    "duration": 0.5228746666666666
                },
                {
                    "name": "E4",
                    "midi": 64,
                    "time": 187.450568,
                    "velocity": 0.47244094488188976,
                    "duration": 0.3267966666666666
                },
                {
                    "name": "G#4",
                    "midi": 68,
                    "time": 187.450568,
                    "velocity": 0.47244094488188976,
                    "duration": 0.3267966666666666
                },
                {
                    "name": "C5",
                    "midi": 72,
                    "time": 187.450568,
                    "velocity": 0.47244094488188976,
                    "duration": 0.3267966666666666
                },
                {
                    "name": "E4",
                    "midi": 64,
                    "time": 187.842724,
                    "velocity": 0.47244094488188976,
                    "duration": 0.3267966666666666
                },
                {
                    "name": "G#4",
                    "midi": 68,
                    "time": 187.842724,
                    "velocity": 0.47244094488188976,
                    "duration": 0.3267966666666666
                },
                {
                    "name": "C5",
                    "midi": 72,
                    "time": 187.842724,
                    "velocity": 0.47244094488188976,
                    "duration": 0.3267966666666666
                },
                {
                    "name": "D#4",
                    "midi": 63,
                    "time": 188.23488,
                    "velocity": 0.47244094488188976,
                    "duration": 0.6862729999999999
                },
                {
                    "name": "G4",
                    "midi": 67,
                    "time": 188.23488,
                    "velocity": 0.47244094488188976,
                    "duration": 0.6862729999999999
                },
                {
                    "name": "A#4",
                    "midi": 70,
                    "time": 188.23488,
                    "velocity": 0.47244094488188976,
                    "duration": 0.6862729999999999
                },
                {
                    "name": "C#5",
                    "midi": 73,
                    "time": 188.23488,
                    "velocity": 0.47244094488188976,
                    "duration": 0.6862729999999999
                },
                {
                    "name": "D#4",
                    "midi": 63,
                    "time": 189.21527,
                    "velocity": 0.47244094488188976,
                    "duration": 0.5228746666666666
                },
                {
                    "name": "G4",
                    "midi": 67,
                    "time": 189.21527,
                    "velocity": 0.47244094488188976,
                    "duration": 0.5228746666666666
                },
                {
                    "name": "A#4",
                    "midi": 70,
                    "time": 189.21527,
                    "velocity": 0.47244094488188976,
                    "duration": 0.5228746666666666
                },
                {
                    "name": "D#5",
                    "midi": 75,
                    "time": 189.21527,
                    "velocity": 0.47244094488188976,
                    "duration": 0.5228746666666666
                },
                {
                    "name": "D#4",
                    "midi": 63,
                    "time": 189.999582,
                    "velocity": 0.47244094488188976,
                    "duration": 0.5228746666666666
                },
                {
                    "name": "G#4",
                    "midi": 68,
                    "time": 189.999582,
                    "velocity": 0.47244094488188976,
                    "duration": 0.5228746666666666
                },
                {
                    "name": "C5",
                    "midi": 72,
                    "time": 189.999582,
                    "velocity": 0.47244094488188976,
                    "duration": 0.5228746666666666
                },
                {
                    "name": "D#5",
                    "midi": 75,
                    "time": 189.999582,
                    "velocity": 0.47244094488188976,
                    "duration": 0.5228746666666666
                },
                {
                    "name": "E4",
                    "midi": 64,
                    "time": 190.587816,
                    "velocity": 0.47244094488188976,
                    "duration": 0.3267966666666666
                },
                {
                    "name": "F#4",
                    "midi": 66,
                    "time": 190.587816,
                    "velocity": 0.47244094488188976,
                    "duration": 0.3267966666666666
                },
                {
                    "name": "G#4",
                    "midi": 68,
                    "time": 190.587816,
                    "velocity": 0.47244094488188976,
                    "duration": 0.3267966666666666
                },
                {
                    "name": "C5",
                    "midi": 72,
                    "time": 190.587816,
                    "velocity": 0.47244094488188976,
                    "duration": 0.3267966666666666
                },
                {
                    "name": "E4",
                    "midi": 64,
                    "time": 190.979972,
                    "velocity": 0.47244094488188976,
                    "duration": 0.3267966666666666
                },
                {
                    "name": "F#4",
                    "midi": 66,
                    "time": 190.979972,
                    "velocity": 0.47244094488188976,
                    "duration": 0.3267966666666666
                },
                {
                    "name": "G#4",
                    "midi": 68,
                    "time": 190.979972,
                    "velocity": 0.47244094488188976,
                    "duration": 0.3267966666666666
                },
                {
                    "name": "C5",
                    "midi": 72,
                    "time": 190.979972,
                    "velocity": 0.47244094488188976,
                    "duration": 0.3267966666666666
                },
                {
                    "name": "E4",
                    "midi": 64,
                    "time": 191.372128,
                    "velocity": 0.47244094488188976,
                    "duration": 0.6862729999999999
                },
                {
                    "name": "G4",
                    "midi": 67,
                    "time": 191.372128,
                    "velocity": 0.47244094488188976,
                    "duration": 0.6862729999999999
                },
                {
                    "name": "C5",
                    "midi": 72,
                    "time": 191.372128,
                    "velocity": 0.47244094488188976,
                    "duration": 0.6862729999999999
                },
                {
                    "name": "D4",
                    "midi": 62,
                    "time": 192.352518,
                    "velocity": 0.47244094488188976,
                    "duration": 0.5228746666666666
                },
                {
                    "name": "F4",
                    "midi": 65,
                    "time": 192.352518,
                    "velocity": 0.47244094488188976,
                    "duration": 0.5228746666666666
                },
                {
                    "name": "B4",
                    "midi": 71,
                    "time": 192.352518,
                    "velocity": 0.47244094488188976,
                    "duration": 0.5228746666666666
                },
                {
                    "name": "D5",
                    "midi": 74,
                    "time": 192.352518,
                    "velocity": 0.47244094488188976,
                    "duration": 0.5228746666666666
                },
                {
                    "name": "F5",
                    "midi": 77,
                    "time": 192.352518,
                    "velocity": 0.47244094488188976,
                    "duration": 0.5228746666666666
                },
                {
                    "name": "C5",
                    "midi": 72,
                    "time": 192.940752,
                    "velocity": 0.7244094488188977,
                    "duration": 0.09395404166667731
                },
                {
                    "name": "D#5",
                    "midi": 75,
                    "time": 193.038791,
                    "velocity": 0.7244094488188977,
                    "duration": 0.09395404166667731
                },
                {
                    "name": "D5",
                    "midi": 74,
                    "time": 193.13683,
                    "velocity": 0.7244094488188977,
                    "duration": 0.09395404166667731
                },
                {
                    "name": "D#5",
                    "midi": 75,
                    "time": 193.234869,
                    "velocity": 0.7244094488188977,
                    "duration": 0.09395404166667731
                },
                {
                    "name": "F5",
                    "midi": 77,
                    "time": 193.332908,
                    "velocity": 0.7244094488188977,
                    "duration": 0.09395404166667731
                },
                {
                    "name": "D#5",
                    "midi": 75,
                    "time": 193.430947,
                    "velocity": 0.7244094488188977,
                    "duration": 0.09395404166667731
                },
                {
                    "name": "D5",
                    "midi": 74,
                    "time": 193.528986,
                    "velocity": 0.7244094488188977,
                    "duration": 0.09395404166667731
                },
                {
                    "name": "D#5",
                    "midi": 75,
                    "time": 193.627025,
                    "velocity": 0.7244094488188977,
                    "duration": 0.09395404166667731
                },
                {
                    "name": "G#5",
                    "midi": 80,
                    "time": 193.725064,
                    "velocity": 0.7244094488188977,
                    "duration": 0.09395404166667731
                },
                {
                    "name": "D#5",
                    "midi": 75,
                    "time": 193.823103,
                    "velocity": 0.7244094488188977,
                    "duration": 0.09395404166667731
                },
                {
                    "name": "D5",
                    "midi": 74,
                    "time": 193.921142,
                    "velocity": 0.7244094488188977,
                    "duration": 0.09395404166667731
                },
                {
                    "name": "D#5",
                    "midi": 75,
                    "time": 194.019181,
                    "velocity": 0.7244094488188977,
                    "duration": 0.09395404166667731
                },
                {
                    "name": "C6",
                    "midi": 84,
                    "time": 194.11722,
                    "velocity": 0.7244094488188977,
                    "duration": 0.09395404166667731
                },
                {
                    "name": "D#5",
                    "midi": 75,
                    "time": 194.215259,
                    "velocity": 0.7244094488188977,
                    "duration": 0.09395404166667731
                },
                {
                    "name": "D5",
                    "midi": 74,
                    "time": 194.313298,
                    "velocity": 0.7244094488188977,
                    "duration": 0.09395404166667731
                },
                {
                    "name": "D#5",
                    "midi": 75,
                    "time": 194.411337,
                    "velocity": 0.7244094488188977,
                    "duration": 0.09395404166667731
                },
                {
                    "name": "C#6",
                    "midi": 85,
                    "time": 194.509376,
                    "velocity": 0.7244094488188977,
                    "duration": 0.09395404166667731
                },
                {
                    "name": "D#6",
                    "midi": 87,
                    "time": 194.607415,
                    "velocity": 0.7244094488188977,
                    "duration": 0.09395404166667731
                },
                {
                    "name": "C6",
                    "midi": 84,
                    "time": 194.705454,
                    "velocity": 0.7244094488188977,
                    "duration": 0.09395404166667731
                },
                {
                    "name": "C#6",
                    "midi": 85,
                    "time": 194.803493,
                    "velocity": 0.7244094488188977,
                    "duration": 0.09395404166667731
                },
                {
                    "name": "A#5",
                    "midi": 82,
                    "time": 194.901532,
                    "velocity": 0.7244094488188977,
                    "duration": 0.09395404166667731
                },
                {
                    "name": "C6",
                    "midi": 84,
                    "time": 194.999571,
                    "velocity": 0.7244094488188977,
                    "duration": 0.09395404166667731
                },
                {
                    "name": "G#5",
                    "midi": 80,
                    "time": 195.09761,
                    "velocity": 0.7244094488188977,
                    "duration": 0.09395404166667731
                },
                {
                    "name": "A#5",
                    "midi": 82,
                    "time": 195.195649,
                    "velocity": 0.7244094488188977,
                    "duration": 0.09395404166667731
                },
                {
                    "name": "G5",
                    "midi": 79,
                    "time": 195.293688,
                    "velocity": 0.7244094488188977,
                    "duration": 0.09395404166667731
                },
                {
                    "name": "G#5",
                    "midi": 80,
                    "time": 195.391727,
                    "velocity": 0.7244094488188977,
                    "duration": 0.09395404166667731
                },
                {
                    "name": "A#5",
                    "midi": 82,
                    "time": 195.489766,
                    "velocity": 0.7244094488188977,
                    "duration": 0.09395404166667731
                },
                {
                    "name": "G#5",
                    "midi": 80,
                    "time": 195.587805,
                    "velocity": 0.7244094488188977,
                    "duration": 0.09395404166667731
                },
                {
                    "name": "G5",
                    "midi": 79,
                    "time": 195.685844,
                    "velocity": 0.7244094488188977,
                    "duration": 0.09395404166667731
                },
                {
                    "name": "F5",
                    "midi": 77,
                    "time": 195.783883,
                    "velocity": 0.7244094488188977,
                    "duration": 0.09395404166667731
                },
                {
                    "name": "D#5",
                    "midi": 75,
                    "time": 195.881922,
                    "velocity": 0.7244094488188977,
                    "duration": 0.09395404166667731
                },
                {
                    "name": "C#5",
                    "midi": 73,
                    "time": 195.979961,
                    "velocity": 0.7244094488188977,
                    "duration": 0.09395404166667731
                },
                {
                    "name": "C5",
                    "midi": 72,
                    "time": 196.078,
                    "velocity": 0.7244094488188977,
                    "duration": 0.09395404166667731
                },
                {
                    "name": "G#4",
                    "midi": 68,
                    "time": 196.176039,
                    "velocity": 0.7244094488188977,
                    "duration": 0.09395404166667731
                },
                {
                    "name": "A#4",
                    "midi": 70,
                    "time": 196.274078,
                    "velocity": 0.7244094488188977,
                    "duration": 0.09395404166667731
                },
                {
                    "name": "C5",
                    "midi": 72,
                    "time": 196.372117,
                    "velocity": 0.7244094488188977,
                    "duration": 0.09395404166667731
                },
                {
                    "name": "C#5",
                    "midi": 73,
                    "time": 196.470156,
                    "velocity": 0.7244094488188977,
                    "duration": 0.09395404166667731
                },
                {
                    "name": "D#5",
                    "midi": 75,
                    "time": 196.568195,
                    "velocity": 0.7244094488188977,
                    "duration": 0.09395404166667731
                },
                {
                    "name": "F5",
                    "midi": 77,
                    "time": 196.666234,
                    "velocity": 0.7244094488188977,
                    "duration": 0.09395404166667731
                },
                {
                    "name": "G5",
                    "midi": 79,
                    "time": 196.764273,
                    "velocity": 0.7244094488188977,
                    "duration": 0.09395404166667731
                },
                {
                    "name": "G#5",
                    "midi": 80,
                    "time": 196.862312,
                    "velocity": 0.7244094488188977,
                    "duration": 0.09395404166667731
                },
                {
                    "name": "A#5",
                    "midi": 82,
                    "time": 196.960351,
                    "velocity": 0.7244094488188977,
                    "duration": 0.09395404166667731
                },
                {
                    "name": "C6",
                    "midi": 84,
                    "time": 197.05839,
                    "velocity": 0.7244094488188977,
                    "duration": 0.09395404166667731
                },
                {
                    "name": "D6",
                    "midi": 86,
                    "time": 197.156429,
                    "velocity": 0.7244094488188977,
                    "duration": 0.09395404166667731
                },
                {
                    "name": "D#6",
                    "midi": 87,
                    "time": 197.254468,
                    "velocity": 0.7244094488188977,
                    "duration": 0.09395404166667731
                },
                {
                    "name": "C6",
                    "midi": 84,
                    "time": 197.352507,
                    "velocity": 0.7244094488188977,
                    "duration": 0.09395404166667731
                },
                {
                    "name": "A5",
                    "midi": 81,
                    "time": 197.450546,
                    "velocity": 0.7244094488188977,
                    "duration": 0.09395404166667731
                },
                {
                    "name": "F#5",
                    "midi": 78,
                    "time": 197.548585,
                    "velocity": 0.7244094488188977,
                    "duration": 0.09395404166667731
                },
                {
                    "name": "G5",
                    "midi": 79,
                    "time": 197.646624,
                    "velocity": 0.7244094488188977,
                    "duration": 0.09395404166667731
                },
                {
                    "name": "C6",
                    "midi": 84,
                    "time": 197.744663,
                    "velocity": 0.7244094488188977,
                    "duration": 0.09395404166667731
                },
                {
                    "name": "E6",
                    "midi": 88,
                    "time": 197.842702,
                    "velocity": 0.7244094488188977,
                    "duration": 0.09395404166667731
                },
                {
                    "name": "G6",
                    "midi": 91,
                    "time": 197.940741,
                    "velocity": 0.7244094488188977,
                    "duration": 0.09395404166667731
                },
                {
                    "name": "F#6",
                    "midi": 90,
                    "time": 198.03878,
                    "velocity": 0.7244094488188977,
                    "duration": 0.09395404166667731
                },
                {
                    "name": "G6",
                    "midi": 91,
                    "time": 198.136819,
                    "velocity": 0.7244094488188977,
                    "duration": 0.09395404166667731
                },
                {
                    "name": "F6",
                    "midi": 89,
                    "time": 198.234858,
                    "velocity": 0.7244094488188977,
                    "duration": 0.09395404166667731
                },
                {
                    "name": "E6",
                    "midi": 88,
                    "time": 198.332897,
                    "velocity": 0.7244094488188977,
                    "duration": 0.09395404166667731
                },
                {
                    "name": "D6",
                    "midi": 86,
                    "time": 198.430936,
                    "velocity": 0.7244094488188977,
                    "duration": 0.09395404166667731
                },
                {
                    "name": "C6",
                    "midi": 84,
                    "time": 198.528975,
                    "velocity": 0.7244094488188977,
                    "duration": 0.09395404166667731
                },
                {
                    "name": "B5",
                    "midi": 83,
                    "time": 198.627014,
                    "velocity": 0.7244094488188977,
                    "duration": 0.09395404166667731
                },
                {
                    "name": "A5",
                    "midi": 81,
                    "time": 198.725053,
                    "velocity": 0.7244094488188977,
                    "duration": 0.09395404166667731
                },
                {
                    "name": "G5",
                    "midi": 79,
                    "time": 198.823092,
                    "velocity": 0.7244094488188977,
                    "duration": 0.09395404166667731
                },
                {
                    "name": "F5",
                    "midi": 77,
                    "time": 198.921131,
                    "velocity": 0.7244094488188977,
                    "duration": 0.09395404166667731
                },
                {
                    "name": "E5",
                    "midi": 76,
                    "time": 199.01917,
                    "velocity": 0.7244094488188977,
                    "duration": 0.09395404166667731
                },
                {
                    "name": "D5",
                    "midi": 74,
                    "time": 199.117209,
                    "velocity": 0.7244094488188977,
                    "duration": 0.09395404166667731
                },
                {
                    "name": "C4",
                    "midi": 60,
                    "time": 199.215248,
                    "velocity": 0.47244094488188976,
                    "duration": 0.39215599999999995
                },
                {
                    "name": "E4",
                    "midi": 64,
                    "time": 199.215248,
                    "velocity": 0.47244094488188976,
                    "duration": 0.39215599999999995
                },
                {
                    "name": "G4",
                    "midi": 67,
                    "time": 199.215248,
                    "velocity": 0.47244094488188976,
                    "duration": 0.39215599999999995
                },
                {
                    "name": "C5",
                    "midi": 72,
                    "time": 199.215248,
                    "velocity": 0.47244094488188976,
                    "duration": 0.39215599999999995
                },
                {
                    "name": "E5",
                    "midi": 76,
                    "time": 199.215248,
                    "velocity": 0.47244094488188976,
                    "duration": 0.39215599999999995
                },
                {
                    "name": "E4",
                    "midi": 64,
                    "time": 199.607404,
                    "velocity": 0.47244094488188976,
                    "duration": 0.39215599999999995
                },
                {
                    "name": "G4",
                    "midi": 67,
                    "time": 199.607404,
                    "velocity": 0.47244094488188976,
                    "duration": 0.39215599999999995
                },
                {
                    "name": "C#5",
                    "midi": 73,
                    "time": 199.607404,
                    "velocity": 0.47244094488188976,
                    "duration": 0.39215599999999995
                },
                {
                    "name": "E5",
                    "midi": 76,
                    "time": 199.607404,
                    "velocity": 0.47244094488188976,
                    "duration": 0.39215599999999995
                },
                {
                    "name": "F4",
                    "midi": 65,
                    "time": 199.99956,
                    "velocity": 0.47244094488188976,
                    "duration": 0.39215599999999995
                },
                {
                    "name": "A4",
                    "midi": 69,
                    "time": 199.99956,
                    "velocity": 0.47244094488188976,
                    "duration": 0.39215599999999995
                },
                {
                    "name": "D5",
                    "midi": 74,
                    "time": 199.99956,
                    "velocity": 0.47244094488188976,
                    "duration": 0.39215599999999995
                },
                {
                    "name": "F5",
                    "midi": 77,
                    "time": 199.99956,
                    "velocity": 0.47244094488188976,
                    "duration": 0.39215599999999995
                },
                {
                    "name": "D4",
                    "midi": 62,
                    "time": 200.391716,
                    "velocity": 0.47244094488188976,
                    "duration": 0.39215599999999995
                },
                {
                    "name": "G4",
                    "midi": 67,
                    "time": 200.391716,
                    "velocity": 0.47244094488188976,
                    "duration": 0.39215599999999995
                },
                {
                    "name": "B4",
                    "midi": 71,
                    "time": 200.391716,
                    "velocity": 0.47244094488188976,
                    "duration": 0.39215599999999995
                },
                {
                    "name": "D5",
                    "midi": 74,
                    "time": 200.391716,
                    "velocity": 0.47244094488188976,
                    "duration": 0.39215599999999995
                },
                {
                    "name": "G5",
                    "midi": 79,
                    "time": 200.391716,
                    "velocity": 0.47244094488188976,
                    "duration": 0.39215599999999995
                },
                {
                    "name": "E4",
                    "midi": 64,
                    "time": 200.783872,
                    "velocity": 0.47244094488188976,
                    "duration": 0.39215599999999995
                },
                {
                    "name": "G4",
                    "midi": 67,
                    "time": 200.783872,
                    "velocity": 0.47244094488188976,
                    "duration": 0.39215599999999995
                },
                {
                    "name": "C5",
                    "midi": 72,
                    "time": 200.783872,
                    "velocity": 0.47244094488188976,
                    "duration": 0.39215599999999995
                },
                {
                    "name": "E5",
                    "midi": 76,
                    "time": 200.783872,
                    "velocity": 0.47244094488188976,
                    "duration": 0.39215599999999995
                },
                {
                    "name": "E4",
                    "midi": 64,
                    "time": 201.176028,
                    "velocity": 0.47244094488188976,
                    "duration": 0.39215599999999995
                },
                {
                    "name": "F4",
                    "midi": 65,
                    "time": 201.176028,
                    "velocity": 0.47244094488188976,
                    "duration": 0.39215599999999995
                },
                {
                    "name": "C5",
                    "midi": 72,
                    "time": 201.176028,
                    "velocity": 0.47244094488188976,
                    "duration": 0.39215599999999995
                },
                {
                    "name": "E5",
                    "midi": 76,
                    "time": 201.176028,
                    "velocity": 0.47244094488188976,
                    "duration": 0.39215599999999995
                },
                {
                    "name": "F5",
                    "midi": 77,
                    "time": 201.176028,
                    "velocity": 0.47244094488188976,
                    "duration": 0.39215599999999995
                },
                {
                    "name": "D4",
                    "midi": 62,
                    "time": 201.568184,
                    "velocity": 0.47244094488188976,
                    "duration": 0.39215599999999995
                },
                {
                    "name": "F4",
                    "midi": 65,
                    "time": 201.568184,
                    "velocity": 0.47244094488188976,
                    "duration": 0.39215599999999995
                },
                {
                    "name": "B4",
                    "midi": 71,
                    "time": 201.568184,
                    "velocity": 0.47244094488188976,
                    "duration": 0.39215599999999995
                },
                {
                    "name": "D5",
                    "midi": 74,
                    "time": 201.568184,
                    "velocity": 0.47244094488188976,
                    "duration": 0.39215599999999995
                },
                {
                    "name": "F5",
                    "midi": 77,
                    "time": 201.568184,
                    "velocity": 0.47244094488188976,
                    "duration": 0.39215599999999995
                },
                {
                    "name": "D4",
                    "midi": 62,
                    "time": 201.96034,
                    "velocity": 0.47244094488188976,
                    "duration": 0.39215599999999995
                },
                {
                    "name": "E4",
                    "midi": 64,
                    "time": 201.96034,
                    "velocity": 0.47244094488188976,
                    "duration": 0.39215599999999995
                },
                {
                    "name": "B4",
                    "midi": 71,
                    "time": 201.96034,
                    "velocity": 0.47244094488188976,
                    "duration": 0.39215599999999995
                },
                {
                    "name": "D5",
                    "midi": 74,
                    "time": 201.96034,
                    "velocity": 0.47244094488188976,
                    "duration": 0.39215599999999995
                },
                {
                    "name": "E5",
                    "midi": 76,
                    "time": 201.96034,
                    "velocity": 0.47244094488188976,
                    "duration": 0.39215599999999995
                },
                {
                    "name": "C4",
                    "midi": 60,
                    "time": 202.352496,
                    "velocity": 0.47244094488188976,
                    "duration": 0.39215599999999995
                },
                {
                    "name": "E4",
                    "midi": 64,
                    "time": 202.352496,
                    "velocity": 0.47244094488188976,
                    "duration": 0.39215599999999995
                },
                {
                    "name": "A4",
                    "midi": 69,
                    "time": 202.352496,
                    "velocity": 0.47244094488188976,
                    "duration": 0.39215599999999995
                },
                {
                    "name": "C5",
                    "midi": 72,
                    "time": 202.352496,
                    "velocity": 0.47244094488188976,
                    "duration": 0.39215599999999995
                },
                {
                    "name": "E5",
                    "midi": 76,
                    "time": 202.352496,
                    "velocity": 0.47244094488188976,
                    "duration": 0.39215599999999995
                },
                {
                    "name": "C4",
                    "midi": 60,
                    "time": 202.744652,
                    "velocity": 0.47244094488188976,
                    "duration": 0.39215599999999995
                },
                {
                    "name": "D4",
                    "midi": 62,
                    "time": 202.744652,
                    "velocity": 0.47244094488188976,
                    "duration": 0.39215599999999995
                },
                {
                    "name": "F#4",
                    "midi": 66,
                    "time": 202.744652,
                    "velocity": 0.47244094488188976,
                    "duration": 0.39215599999999995
                },
                {
                    "name": "A4",
                    "midi": 69,
                    "time": 202.744652,
                    "velocity": 0.47244094488188976,
                    "duration": 0.39215599999999995
                },
                {
                    "name": "C5",
                    "midi": 72,
                    "time": 202.744652,
                    "velocity": 0.47244094488188976,
                    "duration": 0.39215599999999995
                },
                {
                    "name": "D5",
                    "midi": 74,
                    "time": 202.744652,
                    "velocity": 0.47244094488188976,
                    "duration": 0.39215599999999995
                },
                {
                    "name": "F#5",
                    "midi": 78,
                    "time": 202.744652,
                    "velocity": 0.47244094488188976,
                    "duration": 0.39215599999999995
                },
                {
                    "name": "D4",
                    "midi": 62,
                    "time": 203.136808,
                    "velocity": 0.47244094488188976,
                    "duration": 0.39215599999999995
                },
                {
                    "name": "G4",
                    "midi": 67,
                    "time": 203.136808,
                    "velocity": 0.47244094488188976,
                    "duration": 0.39215599999999995
                },
                {
                    "name": "B4",
                    "midi": 71,
                    "time": 203.136808,
                    "velocity": 0.47244094488188976,
                    "duration": 0.39215599999999995
                },
                {
                    "name": "D5",
                    "midi": 74,
                    "time": 203.136808,
                    "velocity": 0.47244094488188976,
                    "duration": 0.39215599999999995
                },
                {
                    "name": "G5",
                    "midi": 79,
                    "time": 203.136808,
                    "velocity": 0.47244094488188976,
                    "duration": 0.39215599999999995
                },
                {
                    "name": "D4",
                    "midi": 62,
                    "time": 203.528964,
                    "velocity": 0.47244094488188976,
                    "duration": 0.39215599999999995
                },
                {
                    "name": "G4",
                    "midi": 67,
                    "time": 203.528964,
                    "velocity": 0.47244094488188976,
                    "duration": 0.39215599999999995
                },
                {
                    "name": "B4",
                    "midi": 71,
                    "time": 203.528964,
                    "velocity": 0.47244094488188976,
                    "duration": 0.39215599999999995
                },
                {
                    "name": "D5",
                    "midi": 74,
                    "time": 203.528964,
                    "velocity": 0.47244094488188976,
                    "duration": 0.39215599999999995
                },
                {
                    "name": "G5",
                    "midi": 79,
                    "time": 203.528964,
                    "velocity": 0.47244094488188976,
                    "duration": 0.39215599999999995
                },
                {
                    "name": "C4",
                    "midi": 60,
                    "time": 203.92112,
                    "velocity": 0.47244094488188976,
                    "duration": 0.39215599999999995
                },
                {
                    "name": "E4",
                    "midi": 64,
                    "time": 203.92112,
                    "velocity": 0.47244094488188976,
                    "duration": 0.39215599999999995
                },
                {
                    "name": "G4",
                    "midi": 67,
                    "time": 203.92112,
                    "velocity": 0.47244094488188976,
                    "duration": 0.39215599999999995
                },
                {
                    "name": "C5",
                    "midi": 72,
                    "time": 203.92112,
                    "velocity": 0.47244094488188976,
                    "duration": 0.39215599999999995
                },
                {
                    "name": "E5",
                    "midi": 76,
                    "time": 203.92112,
                    "velocity": 0.47244094488188976,
                    "duration": 0.39215599999999995
                },
                {
                    "name": "C4",
                    "midi": 60,
                    "time": 204.313276,
                    "velocity": 0.47244094488188976,
                    "duration": 0.39215599999999995
                },
                {
                    "name": "F4",
                    "midi": 65,
                    "time": 204.313276,
                    "velocity": 0.47244094488188976,
                    "duration": 0.39215599999999995
                },
                {
                    "name": "A4",
                    "midi": 69,
                    "time": 204.313276,
                    "velocity": 0.47244094488188976,
                    "duration": 0.39215599999999995
                },
                {
                    "name": "C5",
                    "midi": 72,
                    "time": 204.313276,
                    "velocity": 0.47244094488188976,
                    "duration": 0.39215599999999995
                },
                {
                    "name": "F5",
                    "midi": 77,
                    "time": 204.313276,
                    "velocity": 0.47244094488188976,
                    "duration": 0.39215599999999995
                },
                {
                    "name": "C4",
                    "midi": 60,
                    "time": 204.705432,
                    "velocity": 0.47244094488188976,
                    "duration": 0.39215599999999995
                },
                {
                    "name": "E4",
                    "midi": 64,
                    "time": 204.705432,
                    "velocity": 0.47244094488188976,
                    "duration": 0.39215599999999995
                },
                {
                    "name": "G4",
                    "midi": 67,
                    "time": 204.705432,
                    "velocity": 0.47244094488188976,
                    "duration": 0.39215599999999995
                },
                {
                    "name": "C5",
                    "midi": 72,
                    "time": 204.705432,
                    "velocity": 0.47244094488188976,
                    "duration": 0.39215599999999995
                },
                {
                    "name": "E5",
                    "midi": 76,
                    "time": 204.705432,
                    "velocity": 0.47244094488188976,
                    "duration": 0.39215599999999995
                },
                {
                    "name": "F4",
                    "midi": 65,
                    "time": 205.097588,
                    "velocity": 0.47244094488188976,
                    "duration": 0.39215599999999995
                },
                {
                    "name": "G4",
                    "midi": 67,
                    "time": 205.097588,
                    "velocity": 0.47244094488188976,
                    "duration": 0.39215599999999995
                },
                {
                    "name": "B4",
                    "midi": 71,
                    "time": 205.097588,
                    "velocity": 0.47244094488188976,
                    "duration": 0.39215599999999995
                },
                {
                    "name": "F5",
                    "midi": 77,
                    "time": 205.097588,
                    "velocity": 0.47244094488188976,
                    "duration": 0.39215599999999995
                },
                {
                    "name": "E4",
                    "midi": 64,
                    "time": 205.489744,
                    "velocity": 0.47244094488188976,
                    "duration": 0.39215599999999995
                },
                {
                    "name": "G4",
                    "midi": 67,
                    "time": 205.489744,
                    "velocity": 0.47244094488188976,
                    "duration": 0.39215599999999995
                },
                {
                    "name": "C5",
                    "midi": 72,
                    "time": 205.489744,
                    "velocity": 0.47244094488188976,
                    "duration": 0.39215599999999995
                },
                {
                    "name": "E5",
                    "midi": 76,
                    "time": 205.489744,
                    "velocity": 0.47244094488188976,
                    "duration": 0.39215599999999995
                },
                {
                    "name": "E4",
                    "midi": 64,
                    "time": 205.8819,
                    "velocity": 0.47244094488188976,
                    "duration": 0.39215599999999995
                },
                {
                    "name": "A4",
                    "midi": 69,
                    "time": 205.8819,
                    "velocity": 0.47244094488188976,
                    "duration": 0.39215599999999995
                },
                {
                    "name": "C#5",
                    "midi": 73,
                    "time": 205.8819,
                    "velocity": 0.47244094488188976,
                    "duration": 0.39215599999999995
                },
                {
                    "name": "E5",
                    "midi": 76,
                    "time": 205.8819,
                    "velocity": 0.47244094488188976,
                    "duration": 0.39215599999999995
                },
                {
                    "name": "D4",
                    "midi": 62,
                    "time": 206.274056,
                    "velocity": 0.47244094488188976,
                    "duration": 0.39215599999999995
                },
                {
                    "name": "F4",
                    "midi": 65,
                    "time": 206.274056,
                    "velocity": 0.47244094488188976,
                    "duration": 0.39215599999999995
                },
                {
                    "name": "A4",
                    "midi": 69,
                    "time": 206.274056,
                    "velocity": 0.47244094488188976,
                    "duration": 0.39215599999999995
                },
                {
                    "name": "D5",
                    "midi": 74,
                    "time": 206.274056,
                    "velocity": 0.47244094488188976,
                    "duration": 0.39215599999999995
                },
                {
                    "name": "D4",
                    "midi": 62,
                    "time": 206.666212,
                    "velocity": 0.47244094488188976,
                    "duration": 0.39215599999999995
                },
                {
                    "name": "G4",
                    "midi": 67,
                    "time": 206.666212,
                    "velocity": 0.47244094488188976,
                    "duration": 0.39215599999999995
                },
                {
                    "name": "B4",
                    "midi": 71,
                    "time": 206.666212,
                    "velocity": 0.47244094488188976,
                    "duration": 0.39215599999999995
                },
                {
                    "name": "D5",
                    "midi": 74,
                    "time": 206.666212,
                    "velocity": 0.47244094488188976,
                    "duration": 0.39215599999999995
                },
                {
                    "name": "E4",
                    "midi": 64,
                    "time": 207.058368,
                    "velocity": 0.47244094488188976,
                    "duration": 0.39215599999999995
                },
                {
                    "name": "G4",
                    "midi": 67,
                    "time": 207.058368,
                    "velocity": 0.47244094488188976,
                    "duration": 0.39215599999999995
                },
                {
                    "name": "C5",
                    "midi": 72,
                    "time": 207.058368,
                    "velocity": 0.47244094488188976,
                    "duration": 0.39215599999999995
                },
                {
                    "name": "E5",
                    "midi": 76,
                    "time": 207.058368,
                    "velocity": 0.47244094488188976,
                    "duration": 0.39215599999999995
                },
                {
                    "name": "E4",
                    "midi": 64,
                    "time": 207.450524,
                    "velocity": 0.47244094488188976,
                    "duration": 0.39215599999999995
                },
                {
                    "name": "F4",
                    "midi": 65,
                    "time": 207.450524,
                    "velocity": 0.47244094488188976,
                    "duration": 0.39215599999999995
                },
                {
                    "name": "C5",
                    "midi": 72,
                    "time": 207.450524,
                    "velocity": 0.47244094488188976,
                    "duration": 0.39215599999999995
                },
                {
                    "name": "F5",
                    "midi": 77,
                    "time": 207.450524,
                    "velocity": 0.47244094488188976,
                    "duration": 0.39215599999999995
                },
                {
                    "name": "D4",
                    "midi": 62,
                    "time": 207.84268,
                    "velocity": 0.47244094488188976,
                    "duration": 0.39215599999999995
                },
                {
                    "name": "F4",
                    "midi": 65,
                    "time": 207.84268,
                    "velocity": 0.47244094488188976,
                    "duration": 0.39215599999999995
                },
                {
                    "name": "B4",
                    "midi": 71,
                    "time": 207.84268,
                    "velocity": 0.47244094488188976,
                    "duration": 0.39215599999999995
                },
                {
                    "name": "D5",
                    "midi": 74,
                    "time": 207.84268,
                    "velocity": 0.47244094488188976,
                    "duration": 0.39215599999999995
                },
                {
                    "name": "F5",
                    "midi": 77,
                    "time": 207.84268,
                    "velocity": 0.47244094488188976,
                    "duration": 0.39215599999999995
                },
                {
                    "name": "D4",
                    "midi": 62,
                    "time": 208.234836,
                    "velocity": 0.47244094488188976,
                    "duration": 0.39215599999999995
                },
                {
                    "name": "E4",
                    "midi": 64,
                    "time": 208.234836,
                    "velocity": 0.47244094488188976,
                    "duration": 0.39215599999999995
                },
                {
                    "name": "G#4",
                    "midi": 68,
                    "time": 208.234836,
                    "velocity": 0.47244094488188976,
                    "duration": 0.39215599999999995
                },
                {
                    "name": "D5",
                    "midi": 74,
                    "time": 208.234836,
                    "velocity": 0.47244094488188976,
                    "duration": 0.39215599999999995
                },
                {
                    "name": "E5",
                    "midi": 76,
                    "time": 208.234836,
                    "velocity": 0.47244094488188976,
                    "duration": 0.39215599999999995
                },
                {
                    "name": "G#5",
                    "midi": 80,
                    "time": 208.234836,
                    "velocity": 0.47244094488188976,
                    "duration": 0.39215599999999995
                },
                {
                    "name": "C4",
                    "midi": 60,
                    "time": 208.626992,
                    "velocity": 0.47244094488188976,
                    "duration": 0.39215599999999995
                },
                {
                    "name": "E4",
                    "midi": 64,
                    "time": 208.626992,
                    "velocity": 0.47244094488188976,
                    "duration": 0.39215599999999995
                },
                {
                    "name": "A4",
                    "midi": 69,
                    "time": 208.626992,
                    "velocity": 0.47244094488188976,
                    "duration": 0.39215599999999995
                },
                {
                    "name": "C5",
                    "midi": 72,
                    "time": 208.626992,
                    "velocity": 0.47244094488188976,
                    "duration": 0.39215599999999995
                },
                {
                    "name": "E5",
                    "midi": 76,
                    "time": 208.626992,
                    "velocity": 0.47244094488188976,
                    "duration": 0.39215599999999995
                },
                {
                    "name": "C4",
                    "midi": 60,
                    "time": 209.019148,
                    "velocity": 0.47244094488188976,
                    "duration": 0.39215599999999995
                },
                {
                    "name": "D4",
                    "midi": 62,
                    "time": 209.019148,
                    "velocity": 0.47244094488188976,
                    "duration": 0.39215599999999995
                },
                {
                    "name": "F#4",
                    "midi": 66,
                    "time": 209.019148,
                    "velocity": 0.47244094488188976,
                    "duration": 0.39215599999999995
                },
                {
                    "name": "C5",
                    "midi": 72,
                    "time": 209.019148,
                    "velocity": 0.47244094488188976,
                    "duration": 0.39215599999999995
                },
                {
                    "name": "D5",
                    "midi": 74,
                    "time": 209.019148,
                    "velocity": 0.47244094488188976,
                    "duration": 0.39215599999999995
                },
                {
                    "name": "F#5",
                    "midi": 78,
                    "time": 209.019148,
                    "velocity": 0.47244094488188976,
                    "duration": 0.39215599999999995
                },
                {
                    "name": "B3",
                    "midi": 59,
                    "time": 209.411304,
                    "velocity": 0.47244094488188976,
                    "duration": 0.39215599999999995
                },
                {
                    "name": "D4",
                    "midi": 62,
                    "time": 209.411304,
                    "velocity": 0.47244094488188976,
                    "duration": 0.39215599999999995
                },
                {
                    "name": "G4",
                    "midi": 67,
                    "time": 209.411304,
                    "velocity": 0.47244094488188976,
                    "duration": 0.39215599999999995
                },
                {
                    "name": "B4",
                    "midi": 71,
                    "time": 209.411304,
                    "velocity": 0.47244094488188976,
                    "duration": 0.39215599999999995
                },
                {
                    "name": "D5",
                    "midi": 74,
                    "time": 209.411304,
                    "velocity": 0.47244094488188976,
                    "duration": 0.39215599999999995
                },
                {
                    "name": "D4",
                    "midi": 62,
                    "time": 209.80346,
                    "velocity": 0.47244094488188976,
                    "duration": 0.39215599999999995
                },
                {
                    "name": "G4",
                    "midi": 67,
                    "time": 209.80346,
                    "velocity": 0.47244094488188976,
                    "duration": 0.39215599999999995
                },
                {
                    "name": "B4",
                    "midi": 71,
                    "time": 209.80346,
                    "velocity": 0.47244094488188976,
                    "duration": 0.39215599999999995
                },
                {
                    "name": "D5",
                    "midi": 74,
                    "time": 209.80346,
                    "velocity": 0.47244094488188976,
                    "duration": 0.39215599999999995
                },
                {
                    "name": "C4",
                    "midi": 60,
                    "time": 210.195616,
                    "velocity": 0.47244094488188976,
                    "duration": 0.39215599999999995
                },
                {
                    "name": "E4",
                    "midi": 64,
                    "time": 210.195616,
                    "velocity": 0.47244094488188976,
                    "duration": 0.39215599999999995
                },
                {
                    "name": "G4",
                    "midi": 67,
                    "time": 210.195616,
                    "velocity": 0.47244094488188976,
                    "duration": 0.39215599999999995
                },
                {
                    "name": "C5",
                    "midi": 72,
                    "time": 210.195616,
                    "velocity": 0.47244094488188976,
                    "duration": 0.39215599999999995
                },
                {
                    "name": "E5",
                    "midi": 76,
                    "time": 210.195616,
                    "velocity": 0.47244094488188976,
                    "duration": 0.39215599999999995
                },
                {
                    "name": "D4",
                    "midi": 62,
                    "time": 210.587772,
                    "velocity": 0.47244094488188976,
                    "duration": 0.39215599999999995
                },
                {
                    "name": "F4",
                    "midi": 65,
                    "time": 210.587772,
                    "velocity": 0.47244094488188976,
                    "duration": 0.39215599999999995
                },
                {
                    "name": "A4",
                    "midi": 69,
                    "time": 210.587772,
                    "velocity": 0.47244094488188976,
                    "duration": 0.39215599999999995
                },
                {
                    "name": "D5",
                    "midi": 74,
                    "time": 210.587772,
                    "velocity": 0.47244094488188976,
                    "duration": 0.39215599999999995
                },
                {
                    "name": "F5",
                    "midi": 77,
                    "time": 210.587772,
                    "velocity": 0.47244094488188976,
                    "duration": 0.39215599999999995
                },
                {
                    "name": "C4",
                    "midi": 60,
                    "time": 210.979928,
                    "velocity": 0.47244094488188976,
                    "duration": 0.39215599999999995
                },
                {
                    "name": "E4",
                    "midi": 64,
                    "time": 210.979928,
                    "velocity": 0.47244094488188976,
                    "duration": 0.39215599999999995
                },
                {
                    "name": "G4",
                    "midi": 67,
                    "time": 210.979928,
                    "velocity": 0.47244094488188976,
                    "duration": 0.39215599999999995
                },
                {
                    "name": "C5",
                    "midi": 72,
                    "time": 210.979928,
                    "velocity": 0.47244094488188976,
                    "duration": 0.39215599999999995
                },
                {
                    "name": "E5",
                    "midi": 76,
                    "time": 210.979928,
                    "velocity": 0.47244094488188976,
                    "duration": 0.39215599999999995
                },
                {
                    "name": "G5",
                    "midi": 79,
                    "time": 210.979928,
                    "velocity": 0.47244094488188976,
                    "duration": 0.39215599999999995
                },
                {
                    "name": "F4",
                    "midi": 65,
                    "time": 211.372084,
                    "velocity": 0.47244094488188976,
                    "duration": 0.3267966666666666
                },
                {
                    "name": "G4",
                    "midi": 67,
                    "time": 211.372084,
                    "velocity": 0.47244094488188976,
                    "duration": 0.3267966666666666
                },
                {
                    "name": "B4",
                    "midi": 71,
                    "time": 211.372084,
                    "velocity": 0.47244094488188976,
                    "duration": 0.3267966666666666
                },
                {
                    "name": "F5",
                    "midi": 77,
                    "time": 211.372084,
                    "velocity": 0.47244094488188976,
                    "duration": 0.3267966666666666
                },
                {
                    "name": "E4",
                    "midi": 64,
                    "time": 212.156396,
                    "velocity": 0.47244094488188976,
                    "duration": 0.3267966666666666
                },
                {
                    "name": "G4",
                    "midi": 67,
                    "time": 212.156396,
                    "velocity": 0.47244094488188976,
                    "duration": 0.3267966666666666
                },
                {
                    "name": "C5",
                    "midi": 72,
                    "time": 212.156396,
                    "velocity": 0.47244094488188976,
                    "duration": 0.3267966666666666
                },
                {
                    "name": "E5",
                    "midi": 76,
                    "time": 212.156396,
                    "velocity": 0.47244094488188976,
                    "duration": 0.3267966666666666
                },
                {
                    "name": "F4",
                    "midi": 65,
                    "time": 212.940708,
                    "velocity": 0.47244094488188976,
                    "duration": 0.3267966666666666
                },
                {
                    "name": "G4",
                    "midi": 67,
                    "time": 212.940708,
                    "velocity": 0.47244094488188976,
                    "duration": 0.3267966666666666
                },
                {
                    "name": "B4",
                    "midi": 71,
                    "time": 212.940708,
                    "velocity": 0.47244094488188976,
                    "duration": 0.3267966666666666
                },
                {
                    "name": "E4",
                    "midi": 64,
                    "time": 213.72502,
                    "velocity": 0.47244094488188976,
                    "duration": 0.3267966666666666
                },
                {
                    "name": "G4",
                    "midi": 67,
                    "time": 213.72502,
                    "velocity": 0.47244094488188976,
                    "duration": 0.3267966666666666
                },
                {
                    "name": "C5",
                    "midi": 72,
                    "time": 213.72502,
                    "velocity": 0.47244094488188976,
                    "duration": 0.3267966666666666
                },
                {
                    "name": "F4",
                    "midi": 65,
                    "time": 214.509332,
                    "velocity": 0.47244094488188976,
                    "duration": 0.3267966666666666
                },
                {
                    "name": "G4",
                    "midi": 67,
                    "time": 214.509332,
                    "velocity": 0.47244094488188976,
                    "duration": 0.3267966666666666
                },
                {
                    "name": "B4",
                    "midi": 71,
                    "time": 214.509332,
                    "velocity": 0.47244094488188976,
                    "duration": 0.3267966666666666
                },
                {
                    "name": "E4",
                    "midi": 64,
                    "time": 215.293644,
                    "velocity": 0.47244094488188976,
                    "duration": 0.3267966666666666
                },
                {
                    "name": "G4",
                    "midi": 67,
                    "time": 215.293644,
                    "velocity": 0.47244094488188976,
                    "duration": 0.3267966666666666
                },
                {
                    "name": "C5",
                    "midi": 72,
                    "time": 215.293644,
                    "velocity": 0.47244094488188976,
                    "duration": 0.3267966666666666
                },
                {
                    "name": "F4",
                    "midi": 65,
                    "time": 216.077956,
                    "velocity": 0.47244094488188976,
                    "duration": 0.3267966666666666
                },
                {
                    "name": "G4",
                    "midi": 67,
                    "time": 216.077956,
                    "velocity": 0.47244094488188976,
                    "duration": 0.3267966666666666
                },
                {
                    "name": "B4",
                    "midi": 71,
                    "time": 216.077956,
                    "velocity": 0.47244094488188976,
                    "duration": 0.3267966666666666
                },
                {
                    "name": "E4",
                    "midi": 64,
                    "time": 216.862268,
                    "velocity": 0.47244094488188976,
                    "duration": 0.3267966666666666
                },
                {
                    "name": "G4",
                    "midi": 67,
                    "time": 216.862268,
                    "velocity": 0.47244094488188976,
                    "duration": 0.3267966666666666
                },
                {
                    "name": "C5",
                    "midi": 72,
                    "time": 216.862268,
                    "velocity": 0.47244094488188976,
                    "duration": 0.3267966666666666
                },
                {
                    "name": "F4",
                    "midi": 65,
                    "time": 217.64658,
                    "velocity": 0.47244094488188976,
                    "duration": 0.39215599999999995
                },
                {
                    "name": "G4",
                    "midi": 67,
                    "time": 217.64658,
                    "velocity": 0.47244094488188976,
                    "duration": 0.39215599999999995
                },
                {
                    "name": "B4",
                    "midi": 71,
                    "time": 217.64658,
                    "velocity": 0.47244094488188976,
                    "duration": 0.39215599999999995
                },
                {
                    "name": "E4",
                    "midi": 64,
                    "time": 218.038736,
                    "velocity": 0.5511811023622047,
                    "duration": 0.39215599999999995
                },
                {
                    "name": "G4",
                    "midi": 67,
                    "time": 218.038736,
                    "velocity": 0.5511811023622047,
                    "duration": 0.39215599999999995
                },
                {
                    "name": "C5",
                    "midi": 72,
                    "time": 218.038736,
                    "velocity": 0.5511811023622047,
                    "duration": 0.39215599999999995
                },
                {
                    "name": "F4",
                    "midi": 65,
                    "time": 218.430892,
                    "velocity": 0.6377952755905512,
                    "duration": 0.39215599999999995
                },
                {
                    "name": "G4",
                    "midi": 67,
                    "time": 218.430892,
                    "velocity": 0.6377952755905512,
                    "duration": 0.39215599999999995
                },
                {
                    "name": "B4",
                    "midi": 71,
                    "time": 218.430892,
                    "velocity": 0.6377952755905512,
                    "duration": 0.39215599999999995
                },
                {
                    "name": "E4",
                    "midi": 64,
                    "time": 218.823048,
                    "velocity": 0.7244094488188977,
                    "duration": 0.39215599999999995
                },
                {
                    "name": "G4",
                    "midi": 67,
                    "time": 218.823048,
                    "velocity": 0.7244094488188977,
                    "duration": 0.39215599999999995
                },
                {
                    "name": "C5",
                    "midi": 72,
                    "time": 218.823048,
                    "velocity": 0.7244094488188977,
                    "duration": 0.39215599999999995
                },
                {
                    "name": "G4",
                    "midi": 67,
                    "time": 219.215204,
                    "velocity": 0.7244094488188977,
                    "duration": 0.39215599999999995
                },
                {
                    "name": "B4",
                    "midi": 71,
                    "time": 219.215204,
                    "velocity": 0.7244094488188977,
                    "duration": 0.39215599999999995
                },
                {
                    "name": "D5",
                    "midi": 74,
                    "time": 219.215204,
                    "velocity": 0.7244094488188977,
                    "duration": 0.39215599999999995
                },
                {
                    "name": "G4",
                    "midi": 67,
                    "time": 219.60736,
                    "velocity": 0.7244094488188977,
                    "duration": 0.39215599999999995
                },
                {
                    "name": "C5",
                    "midi": 72,
                    "time": 219.60736,
                    "velocity": 0.7244094488188977,
                    "duration": 0.39215599999999995
                },
                {
                    "name": "E5",
                    "midi": 76,
                    "time": 219.60736,
                    "velocity": 0.7244094488188977,
                    "duration": 0.39215599999999995
                },
                {
                    "name": "B4",
                    "midi": 71,
                    "time": 219.999516,
                    "velocity": 0.7244094488188977,
                    "duration": 0.39215599999999995
                },
                {
                    "name": "D5",
                    "midi": 74,
                    "time": 219.999516,
                    "velocity": 0.7244094488188977,
                    "duration": 0.39215599999999995
                },
                {
                    "name": "G5",
                    "midi": 79,
                    "time": 219.999516,
                    "velocity": 0.7244094488188977,
                    "duration": 0.39215599999999995
                },
                {
                    "name": "C5",
                    "midi": 72,
                    "time": 220.391672,
                    "velocity": 0.7244094488188977,
                    "duration": 0.39215599999999995
                },
                {
                    "name": "E5",
                    "midi": 76,
                    "time": 220.391672,
                    "velocity": 0.7244094488188977,
                    "duration": 0.39215599999999995
                },
                {
                    "name": "G5",
                    "midi": 79,
                    "time": 220.391672,
                    "velocity": 0.7244094488188977,
                    "duration": 0.39215599999999995
                },
                {
                    "name": "D5",
                    "midi": 74,
                    "time": 220.783828,
                    "velocity": 0.7244094488188977,
                    "duration": 0.39215599999999995
                },
                {
                    "name": "G5",
                    "midi": 79,
                    "time": 220.783828,
                    "velocity": 0.7244094488188977,
                    "duration": 0.39215599999999995
                },
                {
                    "name": "B5",
                    "midi": 83,
                    "time": 220.783828,
                    "velocity": 0.7244094488188977,
                    "duration": 0.39215599999999995
                },
                {
                    "name": "E5",
                    "midi": 76,
                    "time": 221.175984,
                    "velocity": 0.7244094488188977,
                    "duration": 0.1919930416666773
                },
                {
                    "name": "G5",
                    "midi": 79,
                    "time": 221.175984,
                    "velocity": 0.7244094488188977,
                    "duration": 0.1919930416666773
                },
                {
                    "name": "C6",
                    "midi": 84,
                    "time": 221.175984,
                    "velocity": 0.7244094488188977,
                    "duration": 0.1919930416666773
                },
                {
                    "name": "E5",
                    "midi": 76,
                    "time": 222.744608,
                    "velocity": 0.7244094488188977,
                    "duration": 0.1919930416666773
                },
                {
                    "name": "G5",
                    "midi": 79,
                    "time": 222.744608,
                    "velocity": 0.7244094488188977,
                    "duration": 0.1919930416666773
                },
                {
                    "name": "C6",
                    "midi": 84,
                    "time": 222.744608,
                    "velocity": 0.7244094488188977,
                    "duration": 0.1919930416666773
                },
                {
                    "name": "E4",
                    "midi": 64,
                    "time": 224.313232,
                    "velocity": 0.7244094488188977,
                    "duration": 0.1919930416666773
                },
                {
                    "name": "G4",
                    "midi": 67,
                    "time": 224.313232,
                    "velocity": 0.7244094488188977,
                    "duration": 0.1919930416666773
                },
                {
                    "name": "C5",
                    "midi": 72,
                    "time": 224.313232,
                    "velocity": 0.7244094488188977,
                    "duration": 0.1919930416666773
                },
                {
                    "name": "E4",
                    "midi": 64,
                    "time": 225.881856,
                    "velocity": 0.7244094488188977,
                    "duration": 0.1919930416666773
                },
                {
                    "name": "G4",
                    "midi": 67,
                    "time": 225.881856,
                    "velocity": 0.7244094488188977,
                    "duration": 0.1919930416666773
                },
                {
                    "name": "C5",
                    "midi": 72,
                    "time": 225.881856,
                    "velocity": 0.7244094488188977,
                    "duration": 0.1919930416666773
                },
                {
                    "name": "E4",
                    "midi": 64,
                    "time": 226.274012,
                    "velocity": 0.7244094488188977,
                    "duration": 0.1919930416666773
                },
                {
                    "name": "G4",
                    "midi": 67,
                    "time": 226.274012,
                    "velocity": 0.7244094488188977,
                    "duration": 0.1919930416666773
                },
                {
                    "name": "C5",
                    "midi": 72,
                    "time": 226.274012,
                    "velocity": 0.7244094488188977,
                    "duration": 0.1919930416666773
                },
                {
                    "name": "E4",
                    "midi": 64,
                    "time": 226.666168,
                    "velocity": 0.7244094488188977,
                    "duration": 0.6862729999999999
                },
                {
                    "name": "G4",
                    "midi": 67,
                    "time": 226.666168,
                    "velocity": 0.7244094488188977,
                    "duration": 0.6862729999999999
                },
                {
                    "name": "C5",
                    "midi": 72,
                    "time": 226.666168,
                    "velocity": 0.7244094488188977,
                    "duration": 0.6862729999999999
                },
                {
                    "name": "C4",
                    "midi": 60,
                    "time": 227.45048,
                    "velocity": 0.7244094488188977,
                    "duration": 0.1919930416666773
                },
                {
                    "name": "E4",
                    "midi": 64,
                    "time": 227.45048,
                    "velocity": 0.7244094488188977,
                    "duration": 0.1919930416666773
                },
                {
                    "name": "G4",
                    "midi": 67,
                    "time": 227.45048,
                    "velocity": 0.7244094488188977,
                    "duration": 0.1919930416666773
                },
                {
                    "name": "C5",
                    "midi": 72,
                    "time": 227.45048,
                    "velocity": 0.7244094488188977,
                    "duration": 0.1919930416666773
                }
            ],
            "controlChanges": {
                "7": [
                    {
                        "number": 7,
                        "time": 0,
                        "value": 1
                    }
                ],
                "10": [
                    {
                        "number": 10,
                        "time": 0,
                        "value": 0.44881889763779526
                    }
                ],
                "91": [
                    {
                        "number": 91,
                        "time": 0,
                        "value": 0.5590551181102362
                    }
                ]
            },
            "id": 2,
            "name": "by Niccolo Paganini",
            "instrumentNumber": 6,
            "instrument": "harpsichord",
            "instrumentFamily": "piano",
            "channelNumber": 1,
            "isPercussion": false
        },
        {
            "startTime": 0,
            "duration": 227.64247304166668,
            "length": 579,
            "notes": [
                {
                    "name": "C3",
                    "midi": 48,
                    "time": 0,
                    "velocity": 0.5905511811023622,
                    "duration": 0.3267966666666667
                },
                {
                    "name": "A4",
                    "midi": 69,
                    "time": 0,
                    "velocity": 0.5905511811023622,
                    "duration": 0.3267966666666667
                },
                {
                    "name": "D3",
                    "midi": 50,
                    "time": 0.392156,
                    "velocity": 0.5905511811023622,
                    "duration": 0.3267966666666667
                },
                {
                    "name": "G#4",
                    "midi": 68,
                    "time": 0.392156,
                    "velocity": 0.5905511811023622,
                    "duration": 0.3267966666666667
                },
                {
                    "name": "E3",
                    "midi": 52,
                    "time": 0.784312,
                    "velocity": 0.5905511811023622,
                    "duration": 0.32679666666666674
                },
                {
                    "name": "G4",
                    "midi": 67,
                    "time": 0.784312,
                    "velocity": 0.5905511811023622,
                    "duration": 0.32679666666666674
                },
                {
                    "name": "F3",
                    "midi": 53,
                    "time": 1.176468,
                    "velocity": 0.5905511811023622,
                    "duration": 0.3267966666666666
                },
                {
                    "name": "F4",
                    "midi": 65,
                    "time": 1.176468,
                    "velocity": 0.5905511811023622,
                    "duration": 0.3267966666666666
                },
                {
                    "name": "G3",
                    "midi": 55,
                    "time": 1.568624,
                    "velocity": 0.5905511811023622,
                    "duration": 0.3267966666666666
                },
                {
                    "name": "E4",
                    "midi": 64,
                    "time": 1.568624,
                    "velocity": 0.5905511811023622,
                    "duration": 0.3267966666666666
                },
                {
                    "name": "A3",
                    "midi": 57,
                    "time": 1.96078,
                    "velocity": 0.5905511811023622,
                    "duration": 0.32679666666666685
                },
                {
                    "name": "D4",
                    "midi": 62,
                    "time": 1.96078,
                    "velocity": 0.5905511811023622,
                    "duration": 0.32679666666666685
                },
                {
                    "name": "B3",
                    "midi": 59,
                    "time": 2.352936,
                    "velocity": 0.5905511811023622,
                    "duration": 0.3267966666666666
                },
                {
                    "name": "C4",
                    "midi": 60,
                    "time": 2.352936,
                    "velocity": 0.5905511811023622,
                    "duration": 0.3267966666666666
                },
                {
                    "name": "B3",
                    "midi": 59,
                    "time": 2.745092,
                    "velocity": 0.5905511811023622,
                    "duration": 0.3267966666666666
                },
                {
                    "name": "C4",
                    "midi": 60,
                    "time": 2.745092,
                    "velocity": 0.5905511811023622,
                    "duration": 0.3267966666666666
                },
                {
                    "name": "A3",
                    "midi": 57,
                    "time": 3.137248,
                    "velocity": 0.5905511811023622,
                    "duration": 0.3267966666666666
                },
                {
                    "name": "D4",
                    "midi": 62,
                    "time": 3.137248,
                    "velocity": 0.5905511811023622,
                    "duration": 0.3267966666666666
                },
                {
                    "name": "G#3",
                    "midi": 56,
                    "time": 3.529404,
                    "velocity": 0.5905511811023622,
                    "duration": 0.3267966666666666
                },
                {
                    "name": "E4",
                    "midi": 64,
                    "time": 3.529404,
                    "velocity": 0.5905511811023622,
                    "duration": 0.3267966666666666
                },
                {
                    "name": "G3",
                    "midi": 55,
                    "time": 3.92156,
                    "velocity": 0.5905511811023622,
                    "duration": 0.32679666666666707
                },
                {
                    "name": "F4",
                    "midi": 65,
                    "time": 3.92156,
                    "velocity": 0.5905511811023622,
                    "duration": 0.32679666666666707
                },
                {
                    "name": "F3",
                    "midi": 53,
                    "time": 4.313716,
                    "velocity": 0.5905511811023622,
                    "duration": 0.3267966666666666
                },
                {
                    "name": "G4",
                    "midi": 67,
                    "time": 4.313716,
                    "velocity": 0.5905511811023622,
                    "duration": 0.3267966666666666
                },
                {
                    "name": "E3",
                    "midi": 52,
                    "time": 4.705872,
                    "velocity": 0.5905511811023622,
                    "duration": 0.3267966666666666
                },
                {
                    "name": "A4",
                    "midi": 69,
                    "time": 4.705872,
                    "velocity": 0.5905511811023622,
                    "duration": 0.3267966666666666
                },
                {
                    "name": "D3",
                    "midi": 50,
                    "time": 5.098028,
                    "velocity": 0.5905511811023622,
                    "duration": 0.3267966666666666
                },
                {
                    "name": "B4",
                    "midi": 71,
                    "time": 5.098028,
                    "velocity": 0.5905511811023622,
                    "duration": 0.3267966666666666
                },
                {
                    "name": "C3",
                    "midi": 48,
                    "time": 5.490184,
                    "velocity": 0.47244094488188976,
                    "duration": 0.3267966666666666
                },
                {
                    "name": "C4",
                    "midi": 60,
                    "time": 5.490184,
                    "velocity": 0.47244094488188976,
                    "duration": 0.3267966666666666
                },
                {
                    "name": "C5",
                    "midi": 72,
                    "time": 5.490184,
                    "velocity": 0.47244094488188976,
                    "duration": 0.3267966666666666
                },
                {
                    "name": "B2",
                    "midi": 47,
                    "time": 6.274496,
                    "velocity": 0.47244094488188976,
                    "duration": 0.3267966666666666
                },
                {
                    "name": "B2",
                    "midi": 47,
                    "time": 7.058808,
                    "velocity": 0.47244094488188976,
                    "duration": 0.3267966666666666
                },
                {
                    "name": "C3",
                    "midi": 48,
                    "time": 7.84312,
                    "velocity": 0.47244094488188976,
                    "duration": 0.3267966666666675
                },
                {
                    "name": "C#3",
                    "midi": 49,
                    "time": 8.627432,
                    "velocity": 0.47244094488188976,
                    "duration": 0.7843119999999999
                },
                {
                    "name": "D3",
                    "midi": 50,
                    "time": 9.411744,
                    "velocity": 0.47244094488188976,
                    "duration": 0.39215599999999995
                },
                {
                    "name": "G2",
                    "midi": 43,
                    "time": 9.8039,
                    "velocity": 0.47244094488188976,
                    "duration": 0.39215599999999995
                },
                {
                    "name": "C3",
                    "midi": 48,
                    "time": 10.196056,
                    "velocity": 0.47244094488188976,
                    "duration": 0.39215599999999995
                },
                {
                    "name": "D3",
                    "midi": 50,
                    "time": 10.588212,
                    "velocity": 0.47244094488188976,
                    "duration": 0.39215599999999995
                },
                {
                    "name": "G2",
                    "midi": 43,
                    "time": 10.980368,
                    "velocity": 0.47244094488188976,
                    "duration": 0.19199304166666664
                },
                {
                    "name": "C3",
                    "midi": 48,
                    "time": 11.76468,
                    "velocity": 0.47244094488188976,
                    "duration": 0.3267966666666666
                },
                {
                    "name": "B2",
                    "midi": 47,
                    "time": 12.548992,
                    "velocity": 0.47244094488188976,
                    "duration": 0.3267966666666666
                },
                {
                    "name": "B2",
                    "midi": 47,
                    "time": 13.333304,
                    "velocity": 0.47244094488188976,
                    "duration": 0.3267966666666666
                },
                {
                    "name": "C3",
                    "midi": 48,
                    "time": 14.117616,
                    "velocity": 0.47244094488188976,
                    "duration": 0.3267966666666666
                },
                {
                    "name": "C#3",
                    "midi": 49,
                    "time": 14.901928,
                    "velocity": 0.47244094488188976,
                    "duration": 0.3267966666666666
                },
                {
                    "name": "D3",
                    "midi": 50,
                    "time": 15.68624,
                    "velocity": 0.47244094488188976,
                    "duration": 0.3921560000000017
                },
                {
                    "name": "G2",
                    "midi": 43,
                    "time": 16.078396,
                    "velocity": 0.47244094488188976,
                    "duration": 0.39215599999999995
                },
                {
                    "name": "C3",
                    "midi": 48,
                    "time": 16.470552,
                    "velocity": 0.47244094488188976,
                    "duration": 0.39215599999999995
                },
                {
                    "name": "F2",
                    "midi": 41,
                    "time": 16.862708,
                    "velocity": 0.47244094488188976,
                    "duration": 0.39215599999999995
                },
                {
                    "name": "B2",
                    "midi": 47,
                    "time": 17.254864,
                    "velocity": 0.47244094488188976,
                    "duration": 0.39215599999999995
                },
                {
                    "name": "D2",
                    "midi": 38,
                    "time": 17.64702,
                    "velocity": 0.47244094488188976,
                    "duration": 0.39215599999999995
                },
                {
                    "name": "A2",
                    "midi": 45,
                    "time": 18.039176,
                    "velocity": 0.47244094488188976,
                    "duration": 0.39215599999999995
                },
                {
                    "name": "D2",
                    "midi": 38,
                    "time": 18.431332,
                    "velocity": 0.47244094488188976,
                    "duration": 0.39215599999999995
                },
                {
                    "name": "G2",
                    "midi": 43,
                    "time": 18.823488,
                    "velocity": 0.47244094488188976,
                    "duration": 0.19199304166666664
                },
                {
                    "name": "F3",
                    "midi": 53,
                    "time": 19.6078,
                    "velocity": 0.47244094488188976,
                    "duration": 0.3267966666666666
                },
                {
                    "name": "E3",
                    "midi": 52,
                    "time": 20.392112,
                    "velocity": 0.47244094488188976,
                    "duration": 0.3267966666666666
                },
                {
                    "name": "F3",
                    "midi": 53,
                    "time": 21.176424,
                    "velocity": 0.47244094488188976,
                    "duration": 0.3267966666666666
                },
                {
                    "name": "G3",
                    "midi": 55,
                    "time": 21.960736,
                    "velocity": 0.47244094488188976,
                    "duration": 0.3267966666666666
                },
                {
                    "name": "G2",
                    "midi": 43,
                    "time": 22.745048,
                    "velocity": 0.47244094488188976,
                    "duration": 0.3267966666666666
                },
                {
                    "name": "C3",
                    "midi": 48,
                    "time": 23.52936,
                    "velocity": 0.47244094488188976,
                    "duration": 0.3267966666666666
                },
                {
                    "name": "E3",
                    "midi": 52,
                    "time": 24.313672,
                    "velocity": 0.47244094488188976,
                    "duration": 0.3267966666666666
                },
                {
                    "name": "F3",
                    "midi": 53,
                    "time": 25.097984,
                    "velocity": 0.47244094488188976,
                    "duration": 0.3267966666666666
                },
                {
                    "name": "G3",
                    "midi": 55,
                    "time": 25.882296,
                    "velocity": 0.47244094488188976,
                    "duration": 0.3267966666666666
                },
                {
                    "name": "C3",
                    "midi": 48,
                    "time": 26.666608,
                    "velocity": 0.47244094488188976,
                    "duration": 0.3267966666666666
                },
                {
                    "name": "E3",
                    "midi": 52,
                    "time": 27.45092,
                    "velocity": 0.47244094488188976,
                    "duration": 0.3267966666666666
                },
                {
                    "name": "F3",
                    "midi": 53,
                    "time": 28.235232,
                    "velocity": 0.47244094488188976,
                    "duration": 0.3267966666666666
                },
                {
                    "name": "G3",
                    "midi": 55,
                    "time": 29.019544,
                    "velocity": 0.47244094488188976,
                    "duration": 0.3267966666666666
                },
                {
                    "name": "C3",
                    "midi": 48,
                    "time": 29.803856,
                    "velocity": 0.47244094488188976,
                    "duration": 0.3267966666666666
                },
                {
                    "name": "A2",
                    "midi": 45,
                    "time": 30.588168,
                    "velocity": 0.47244094488188976,
                    "duration": 0.3267966666666666
                },
                {
                    "name": "E3",
                    "midi": 52,
                    "time": 31.37248,
                    "velocity": 0.47244094488188976,
                    "duration": 0.3267966666666666
                },
                {
                    "name": "A2",
                    "midi": 45,
                    "time": 32.156792,
                    "velocity": 0.47244094488188976,
                    "duration": 0.3267966666666666
                },
                {
                    "name": "D3",
                    "midi": 50,
                    "time": 32.941104,
                    "velocity": 0.47244094488188976,
                    "duration": 0.3267966666666666
                },
                {
                    "name": "G2",
                    "midi": 43,
                    "time": 33.725416,
                    "velocity": 0.47244094488188976,
                    "duration": 0.3267966666666666
                },
                {
                    "name": "E3",
                    "midi": 52,
                    "time": 34.509728,
                    "velocity": 0.47244094488188976,
                    "duration": 0.3267966666666666
                },
                {
                    "name": "A2",
                    "midi": 45,
                    "time": 35.29404,
                    "velocity": 0.47244094488188976,
                    "duration": 0.3267966666666666
                },
                {
                    "name": "D3",
                    "midi": 50,
                    "time": 36.078352,
                    "velocity": 0.47244094488188976,
                    "duration": 0.1919930416666702
                },
                {
                    "name": "G2",
                    "midi": 43,
                    "time": 37.64697600000001,
                    "velocity": 0.47244094488188976,
                    "duration": 0.06535933333333332
                },
                {
                    "name": "G3",
                    "midi": 55,
                    "time": 37.64697600000001,
                    "velocity": 0.47244094488188976,
                    "duration": 0.06535933333333332
                },
                {
                    "name": "E2",
                    "midi": 40,
                    "time": 38.03913200000001,
                    "velocity": 0.47244094488188976,
                    "duration": 0.06535933333333332
                },
                {
                    "name": "E3",
                    "midi": 52,
                    "time": 38.03913200000001,
                    "velocity": 0.47244094488188976,
                    "duration": 0.06535933333333332
                },
                {
                    "name": "A2",
                    "midi": 45,
                    "time": 38.43128800000001,
                    "velocity": 0.47244094488188976,
                    "duration": 0.06535933333333332
                },
                {
                    "name": "A3",
                    "midi": 57,
                    "time": 38.43128800000001,
                    "velocity": 0.47244094488188976,
                    "duration": 0.06535933333333332
                },
                {
                    "name": "A1",
                    "midi": 33,
                    "time": 38.82344400000001,
                    "velocity": 0.47244094488188976,
                    "duration": 0.06535933333333332
                },
                {
                    "name": "A2",
                    "midi": 45,
                    "time": 38.82344400000001,
                    "velocity": 0.47244094488188976,
                    "duration": 0.06535933333333332
                },
                {
                    "name": "D2",
                    "midi": 38,
                    "time": 39.21560000000001,
                    "velocity": 0.47244094488188976,
                    "duration": 0.06535933333333332
                },
                {
                    "name": "D3",
                    "midi": 50,
                    "time": 39.21560000000001,
                    "velocity": 0.47244094488188976,
                    "duration": 0.06535933333333332
                },
                {
                    "name": "G2",
                    "midi": 43,
                    "time": 40.78422400000001,
                    "velocity": 0.47244094488188976,
                    "duration": 0.06535933333333332
                },
                {
                    "name": "G3",
                    "midi": 55,
                    "time": 40.78422400000001,
                    "velocity": 0.47244094488188976,
                    "duration": 0.06535933333333332
                },
                {
                    "name": "E2",
                    "midi": 40,
                    "time": 41.17638000000001,
                    "velocity": 0.47244094488188976,
                    "duration": 0.06535933333333332
                },
                {
                    "name": "E3",
                    "midi": 52,
                    "time": 41.17638000000001,
                    "velocity": 0.47244094488188976,
                    "duration": 0.06535933333333332
                },
                {
                    "name": "A2",
                    "midi": 45,
                    "time": 41.56853600000001,
                    "velocity": 0.47244094488188976,
                    "duration": 0.06535933333333332
                },
                {
                    "name": "A3",
                    "midi": 57,
                    "time": 41.56853600000001,
                    "velocity": 0.47244094488188976,
                    "duration": 0.06535933333333332
                },
                {
                    "name": "A1",
                    "midi": 33,
                    "time": 41.96069200000001,
                    "velocity": 0.47244094488188976,
                    "duration": 0.06535933333333332
                },
                {
                    "name": "A2",
                    "midi": 45,
                    "time": 41.96069200000001,
                    "velocity": 0.47244094488188976,
                    "duration": 0.06535933333333332
                },
                {
                    "name": "D2",
                    "midi": 38,
                    "time": 42.35284800000001,
                    "velocity": 0.47244094488188976,
                    "duration": 0.06535933333333332
                },
                {
                    "name": "D3",
                    "midi": 50,
                    "time": 42.35284800000001,
                    "velocity": 0.47244094488188976,
                    "duration": 0.06535933333333332
                },
                {
                    "name": "A3",
                    "midi": 57,
                    "time": 42.74500400000001,
                    "velocity": 0.47244094488188976,
                    "duration": 0.39215599999999995
                },
                {
                    "name": "D3",
                    "midi": 50,
                    "time": 43.13716000000001,
                    "velocity": 0.47244094488188976,
                    "duration": 0.39215599999999995
                },
                {
                    "name": "A2",
                    "midi": 45,
                    "time": 43.52931600000001,
                    "velocity": 0.47244094488188976,
                    "duration": 0.39215599999999995
                },
                {
                    "name": "D3",
                    "midi": 50,
                    "time": 43.92147200000001,
                    "velocity": 0.47244094488188976,
                    "duration": 0.39215599999999995
                },
                {
                    "name": "A3",
                    "midi": 57,
                    "time": 44.31362800000001,
                    "velocity": 0.47244094488188976,
                    "duration": 0.39215599999999995
                },
                {
                    "name": "D3",
                    "midi": 50,
                    "time": 44.70578400000001,
                    "velocity": 0.47244094488188976,
                    "duration": 0.39215599999999995
                },
                {
                    "name": "A2",
                    "midi": 45,
                    "time": 45.09794000000001,
                    "velocity": 0.47244094488188976,
                    "duration": 0.39215599999999995
                },
                {
                    "name": "D3",
                    "midi": 50,
                    "time": 45.49009600000001,
                    "velocity": 0.47244094488188976,
                    "duration": 0.1919930416666702
                },
                {
                    "name": "F#3",
                    "midi": 54,
                    "time": 46.274408000000015,
                    "velocity": 0.47244094488188976,
                    "duration": 0.3267966666666666
                },
                {
                    "name": "G3",
                    "midi": 55,
                    "time": 47.058720000000015,
                    "velocity": 0.47244094488188976,
                    "duration": 0.3267966666666666
                },
                {
                    "name": "D#3",
                    "midi": 51,
                    "time": 47.843032000000015,
                    "velocity": 0.47244094488188976,
                    "duration": 0.3267966666666666
                },
                {
                    "name": "E3",
                    "midi": 52,
                    "time": 48.627344000000015,
                    "velocity": 0.47244094488188976,
                    "duration": 0.3267966666666666
                },
                {
                    "name": "G2",
                    "midi": 43,
                    "time": 49.411656000000015,
                    "velocity": 0.47244094488188976,
                    "duration": 0.3267966666666666
                },
                {
                    "name": "C3",
                    "midi": 48,
                    "time": 50.195968000000015,
                    "velocity": 0.47244094488188976,
                    "duration": 0.3267966666666666
                },
                {
                    "name": "D3",
                    "midi": 50,
                    "time": 50.980280000000015,
                    "velocity": 0.47244094488188976,
                    "duration": 0.3267966666666666
                },
                {
                    "name": "D3",
                    "midi": 50,
                    "time": 51.372436000000015,
                    "velocity": 0.47244094488188976,
                    "duration": 0.3267966666666666
                },
                {
                    "name": "G3",
                    "midi": 55,
                    "time": 51.764592000000015,
                    "velocity": 0.47244094488188976,
                    "duration": 0.3267966666666666
                },
                {
                    "name": "E3",
                    "midi": 52,
                    "time": 52.156748000000015,
                    "velocity": 0.47244094488188976,
                    "duration": 0.3267966666666666
                },
                {
                    "name": "A2",
                    "midi": 45,
                    "time": 52.548904000000014,
                    "velocity": 0.47244094488188976,
                    "duration": 0.3267966666666666
                },
                {
                    "name": "D3",
                    "midi": 50,
                    "time": 52.941060000000014,
                    "velocity": 0.47244094488188976,
                    "duration": 0.3267966666666666
                },
                {
                    "name": "G2",
                    "midi": 43,
                    "time": 53.333216000000014,
                    "velocity": 0.47244094488188976,
                    "duration": 0.3267966666666666
                },
                {
                    "name": "C3",
                    "midi": 48,
                    "time": 53.725372000000014,
                    "velocity": 0.47244094488188976,
                    "duration": 0.3267966666666666
                },
                {
                    "name": "F#2",
                    "midi": 42,
                    "time": 54.117528000000014,
                    "velocity": 0.47244094488188976,
                    "duration": 0.3267966666666666
                },
                {
                    "name": "B2",
                    "midi": 47,
                    "time": 54.509684000000014,
                    "velocity": 0.47244094488188976,
                    "duration": 0.3267966666666666
                },
                {
                    "name": "E2",
                    "midi": 40,
                    "time": 54.901840000000014,
                    "velocity": 0.47244094488188976,
                    "duration": 0.3267966666666666
                },
                {
                    "name": "A2",
                    "midi": 45,
                    "time": 55.293996000000014,
                    "velocity": 0.47244094488188976,
                    "duration": 0.3267966666666666
                },
                {
                    "name": "D3",
                    "midi": 50,
                    "time": 55.686152000000014,
                    "velocity": 0.47244094488188976,
                    "duration": 0.3267966666666666
                },
                {
                    "name": "C3",
                    "midi": 48,
                    "time": 56.078308000000014,
                    "velocity": 0.47244094488188976,
                    "duration": 0.3267966666666666
                },
                {
                    "name": "B2",
                    "midi": 47,
                    "time": 56.470464000000014,
                    "velocity": 0.47244094488188976,
                    "duration": 0.3267966666666666
                },
                {
                    "name": "C3",
                    "midi": 48,
                    "time": 56.862620000000014,
                    "velocity": 0.47244094488188976,
                    "duration": 0.3267966666666666
                },
                {
                    "name": "D3",
                    "midi": 50,
                    "time": 57.254776000000014,
                    "velocity": 0.47244094488188976,
                    "duration": 0.3267966666666666
                },
                {
                    "name": "D2",
                    "midi": 38,
                    "time": 57.646932000000014,
                    "velocity": 0.47244094488188976,
                    "duration": 0.3267966666666666
                },
                {
                    "name": "G2",
                    "midi": 43,
                    "time": 58.039088000000014,
                    "velocity": 0.47244094488188976,
                    "duration": 0.3267966666666666
                },
                {
                    "name": "E3",
                    "midi": 52,
                    "time": 58.431244000000014,
                    "velocity": 0.47244094488188976,
                    "duration": 0.3267966666666666
                },
                {
                    "name": "A2",
                    "midi": 45,
                    "time": 58.823400000000014,
                    "velocity": 0.47244094488188976,
                    "duration": 0.3267966666666666
                },
                {
                    "name": "D3",
                    "midi": 50,
                    "time": 59.215556000000014,
                    "velocity": 0.47244094488188976,
                    "duration": 0.3267966666666666
                },
                {
                    "name": "G2",
                    "midi": 43,
                    "time": 59.607712000000014,
                    "velocity": 0.47244094488188976,
                    "duration": 0.3267966666666666
                },
                {
                    "name": "C3",
                    "midi": 48,
                    "time": 59.99986800000001,
                    "velocity": 0.47244094488188976,
                    "duration": 0.3267966666666666
                },
                {
                    "name": "F#2",
                    "midi": 42,
                    "time": 60.39202400000001,
                    "velocity": 0.47244094488188976,
                    "duration": 0.3267966666666666
                },
                {
                    "name": "B2",
                    "midi": 47,
                    "time": 60.78418000000001,
                    "velocity": 0.47244094488188976,
                    "duration": 0.3267966666666666
                },
                {
                    "name": "E2",
                    "midi": 40,
                    "time": 61.17633600000001,
                    "velocity": 0.47244094488188976,
                    "duration": 0.3267966666666666
                },
                {
                    "name": "A2",
                    "midi": 45,
                    "time": 61.56849200000001,
                    "velocity": 0.47244094488188976,
                    "duration": 0.3267966666666666
                },
                {
                    "name": "D3",
                    "midi": 50,
                    "time": 61.96064800000001,
                    "velocity": 0.47244094488188976,
                    "duration": 0.3267966666666666
                },
                {
                    "name": "C3",
                    "midi": 48,
                    "time": 62.35280400000001,
                    "velocity": 0.47244094488188976,
                    "duration": 0.3267966666666666
                },
                {
                    "name": "B2",
                    "midi": 47,
                    "time": 62.74496000000001,
                    "velocity": 0.47244094488188976,
                    "duration": 0.3267966666666666
                },
                {
                    "name": "C3",
                    "midi": 48,
                    "time": 63.13711600000001,
                    "velocity": 0.47244094488188976,
                    "duration": 0.3267966666666666
                },
                {
                    "name": "D3",
                    "midi": 50,
                    "time": 63.52927200000001,
                    "velocity": 0.47244094488188976,
                    "duration": 0.3267966666666666
                },
                {
                    "name": "D2",
                    "midi": 38,
                    "time": 63.92142800000001,
                    "velocity": 0.47244094488188976,
                    "duration": 0.32679666666667373
                },
                {
                    "name": "G2",
                    "midi": 43,
                    "time": 64.31358400000002,
                    "velocity": 0.47244094488188976,
                    "duration": 0.3267966666666666
                },
                {
                    "name": "G3",
                    "midi": 55,
                    "time": 64.70574000000002,
                    "velocity": 0.47244094488188976,
                    "duration": 0.3267966666666666
                },
                {
                    "name": "F#2",
                    "midi": 42,
                    "time": 65.09789600000002,
                    "velocity": 0.47244094488188976,
                    "duration": 0.3267966666666666
                },
                {
                    "name": "G2",
                    "midi": 43,
                    "time": 65.88220800000002,
                    "velocity": 0.47244094488188976,
                    "duration": 0.3267966666666666
                },
                {
                    "name": "D3",
                    "midi": 50,
                    "time": 66.66652000000002,
                    "velocity": 0.47244094488188976,
                    "duration": 0.3267966666666666
                },
                {
                    "name": "G2",
                    "midi": 43,
                    "time": 67.45083200000002,
                    "velocity": 0.47244094488188976,
                    "duration": 0.3267966666666666
                },
                {
                    "name": "D3",
                    "midi": 50,
                    "time": 68.23514400000002,
                    "velocity": 0.47244094488188976,
                    "duration": 0.3267966666666666
                },
                {
                    "name": "G2",
                    "midi": 43,
                    "time": 69.01945600000002,
                    "velocity": 0.47244094488188976,
                    "duration": 0.3267966666666666
                },
                {
                    "name": "D2",
                    "midi": 38,
                    "time": 69.41161200000002,
                    "velocity": 0.47244094488188976,
                    "duration": 0.3267966666666666
                },
                {
                    "name": "D3",
                    "midi": 50,
                    "time": 69.41161200000002,
                    "velocity": 0.47244094488188976,
                    "duration": 0.3267966666666666
                },
                {
                    "name": "G2",
                    "midi": 43,
                    "time": 69.80376800000002,
                    "velocity": 0.47244094488188976,
                    "duration": 0.3267966666666666
                },
                {
                    "name": "D2",
                    "midi": 38,
                    "time": 70.19592400000002,
                    "velocity": 0.47244094488188976,
                    "duration": 0.3267966666666666
                },
                {
                    "name": "D3",
                    "midi": 50,
                    "time": 70.19592400000002,
                    "velocity": 0.47244094488188976,
                    "duration": 0.3267966666666666
                },
                {
                    "name": "G3",
                    "midi": 55,
                    "time": 70.58808000000002,
                    "velocity": 0.47244094488188976,
                    "duration": 0.06535933333333332
                },
                {
                    "name": "G2",
                    "midi": 43,
                    "time": 70.78415800000002,
                    "velocity": 0.47244094488188976,
                    "duration": 0.06535933333333332
                },
                {
                    "name": "F3",
                    "midi": 53,
                    "time": 72.15670400000002,
                    "velocity": 0.47244094488188976,
                    "duration": 0.3267966666666666
                },
                {
                    "name": "D3",
                    "midi": 50,
                    "time": 73.72532800000002,
                    "velocity": 0.47244094488188976,
                    "duration": 0.3267966666666666
                },
                {
                    "name": "E3",
                    "midi": 52,
                    "time": 75.29395200000002,
                    "velocity": 0.47244094488188976,
                    "duration": 0.3267966666666666
                },
                {
                    "name": "A2",
                    "midi": 45,
                    "time": 77.64688800000002,
                    "velocity": 0.47244094488188976,
                    "duration": 0.6862729999999999
                },
                {
                    "name": "E3",
                    "midi": 52,
                    "time": 78.43120000000002,
                    "velocity": 0.47244094488188976,
                    "duration": 0.6862729999999999
                },
                {
                    "name": "E2",
                    "midi": 40,
                    "time": 79.21551200000002,
                    "velocity": 0.47244094488188976,
                    "duration": 0.6862729999999999
                },
                {
                    "name": "A2",
                    "midi": 45,
                    "time": 79.99982400000002,
                    "velocity": 0.47244094488188976,
                    "duration": 0.6862729999999999
                },
                {
                    "name": "C3",
                    "midi": 48,
                    "time": 80.78413600000002,
                    "velocity": 0.47244094488188976,
                    "duration": 0.6862729999999999
                },
                {
                    "name": "G3",
                    "midi": 55,
                    "time": 81.56844800000002,
                    "velocity": 0.47244094488188976,
                    "duration": 0.6862729999999999
                },
                {
                    "name": "G2",
                    "midi": 43,
                    "time": 82.35276000000002,
                    "velocity": 0.47244094488188976,
                    "duration": 0.6862729999999999
                },
                {
                    "name": "C3",
                    "midi": 48,
                    "time": 83.13707200000002,
                    "velocity": 0.47244094488188976,
                    "duration": 0.6862729999999999
                },
                {
                    "name": "E3",
                    "midi": 52,
                    "time": 83.92138400000002,
                    "velocity": 0.47244094488188976,
                    "duration": 0.6862729999999999
                },
                {
                    "name": "B3",
                    "midi": 59,
                    "time": 84.70569600000002,
                    "velocity": 0.47244094488188976,
                    "duration": 0.6862729999999999
                },
                {
                    "name": "B2",
                    "midi": 47,
                    "time": 85.49000800000002,
                    "velocity": 0.47244094488188976,
                    "duration": 0.6862729999999999
                },
                {
                    "name": "E3",
                    "midi": 52,
                    "time": 86.27432000000002,
                    "velocity": 0.47244094488188976,
                    "duration": 0.6862729999999999
                },
                {
                    "name": "A3",
                    "midi": 57,
                    "time": 87.05863200000002,
                    "velocity": 0.47244094488188976,
                    "duration": 0.6862729999999999
                },
                {
                    "name": "B3",
                    "midi": 59,
                    "time": 87.84294400000002,
                    "velocity": 0.47244094488188976,
                    "duration": 0.6862729999999999
                },
                {
                    "name": "B2",
                    "midi": 47,
                    "time": 88.62725600000002,
                    "velocity": 0.47244094488188976,
                    "duration": 0.6862729999999999
                },
                {
                    "name": "E3",
                    "midi": 52,
                    "time": 89.41156800000002,
                    "velocity": 0.47244094488188976,
                    "duration": 0.6862729999999999
                },
                {
                    "name": "A3",
                    "midi": 57,
                    "time": 90.19588000000002,
                    "velocity": 0.47244094488188976,
                    "duration": 0.6862729999999999
                },
                {
                    "name": "D3",
                    "midi": 50,
                    "time": 90.98019200000002,
                    "velocity": 0.47244094488188976,
                    "duration": 0.6862729999999999
                },
                {
                    "name": "G3",
                    "midi": 55,
                    "time": 91.76450400000002,
                    "velocity": 0.47244094488188976,
                    "duration": 0.6862729999999999
                },
                {
                    "name": "C3",
                    "midi": 48,
                    "time": 92.54881600000002,
                    "velocity": 0.47244094488188976,
                    "duration": 0.6862729999999999
                },
                {
                    "name": "F3",
                    "midi": 53,
                    "time": 93.33312800000002,
                    "velocity": 0.47244094488188976,
                    "duration": 0.6862729999999999
                },
                {
                    "name": "A#3",
                    "midi": 58,
                    "time": 94.11744000000002,
                    "velocity": 0.47244094488188976,
                    "duration": 0.6862729999999999
                },
                {
                    "name": "C4",
                    "midi": 60,
                    "time": 94.90175200000002,
                    "velocity": 0.47244094488188976,
                    "duration": 0.39215599999999995
                },
                {
                    "name": "C3",
                    "midi": 48,
                    "time": 95.29390800000002,
                    "velocity": 0.47244094488188976,
                    "duration": 0.39215599999999995
                },
                {
                    "name": "F3",
                    "midi": 53,
                    "time": 95.68606400000002,
                    "velocity": 0.7244094488188977,
                    "duration": 0.0939540416666631
                },
                {
                    "name": "C3",
                    "midi": 48,
                    "time": 95.78410300000002,
                    "velocity": 0.7244094488188977,
                    "duration": 0.0939540416666631
                },
                {
                    "name": "B2",
                    "midi": 47,
                    "time": 95.88214200000002,
                    "velocity": 0.7244094488188977,
                    "duration": 0.0939540416666631
                },
                {
                    "name": "C3",
                    "midi": 48,
                    "time": 95.98018100000002,
                    "velocity": 0.7244094488188977,
                    "duration": 0.0939540416666631
                },
                {
                    "name": "D3",
                    "midi": 50,
                    "time": 96.07822000000002,
                    "velocity": 0.7244094488188977,
                    "duration": 0.0939540416666631
                },
                {
                    "name": "C3",
                    "midi": 48,
                    "time": 96.17625900000002,
                    "velocity": 0.7244094488188977,
                    "duration": 0.0939540416666631
                },
                {
                    "name": "B2",
                    "midi": 47,
                    "time": 96.27429800000002,
                    "velocity": 0.7244094488188977,
                    "duration": 0.0939540416666631
                },
                {
                    "name": "C3",
                    "midi": 48,
                    "time": 96.37233700000002,
                    "velocity": 0.7244094488188977,
                    "duration": 0.0939540416666631
                },
                {
                    "name": "F3",
                    "midi": 53,
                    "time": 96.47037600000002,
                    "velocity": 0.7244094488188977,
                    "duration": 0.0939540416666631
                },
                {
                    "name": "C3",
                    "midi": 48,
                    "time": 96.56841500000002,
                    "velocity": 0.7244094488188977,
                    "duration": 0.0939540416666631
                },
                {
                    "name": "B2",
                    "midi": 47,
                    "time": 96.66645400000002,
                    "velocity": 0.7244094488188977,
                    "duration": 0.0939540416666631
                },
                {
                    "name": "C3",
                    "midi": 48,
                    "time": 96.76449300000002,
                    "velocity": 0.7244094488188977,
                    "duration": 0.0939540416666631
                },
                {
                    "name": "A3",
                    "midi": 57,
                    "time": 96.86253200000002,
                    "velocity": 0.7244094488188977,
                    "duration": 0.1919930416666631
                },
                {
                    "name": "A#3",
                    "midi": 58,
                    "time": 97.05861000000002,
                    "velocity": 1,
                    "duration": 0.2900320416666631
                },
                {
                    "name": "C4",
                    "midi": 60,
                    "time": 97.35272700000002,
                    "velocity": 0.7244094488188977,
                    "duration": 0.0939540416666631
                },
                {
                    "name": "A#3",
                    "midi": 58,
                    "time": 97.45076600000002,
                    "velocity": 0.7244094488188977,
                    "duration": 0.0939540416666631
                },
                {
                    "name": "A3",
                    "midi": 57,
                    "time": 97.54880500000002,
                    "velocity": 0.7244094488188977,
                    "duration": 0.0939540416666631
                },
                {
                    "name": "G3",
                    "midi": 55,
                    "time": 97.64684400000002,
                    "velocity": 0.7244094488188977,
                    "duration": 0.0939540416666631
                },
                {
                    "name": "A3",
                    "midi": 57,
                    "time": 97.74488300000002,
                    "velocity": 0.7244094488188977,
                    "duration": 0.0939540416666631
                },
                {
                    "name": "G3",
                    "midi": 55,
                    "time": 97.84292200000002,
                    "velocity": 0.7244094488188977,
                    "duration": 0.0939540416666631
                },
                {
                    "name": "F3",
                    "midi": 53,
                    "time": 97.94096100000002,
                    "velocity": 0.7244094488188977,
                    "duration": 0.0939540416666631
                },
                {
                    "name": "E3",
                    "midi": 52,
                    "time": 98.03900000000002,
                    "velocity": 0.7244094488188977,
                    "duration": 0.0939540416666631
                },
                {
                    "name": "F3",
                    "midi": 53,
                    "time": 98.13703900000002,
                    "velocity": 0.7244094488188977,
                    "duration": 0.0939540416666631
                },
                {
                    "name": "G3",
                    "midi": 55,
                    "time": 98.23507800000002,
                    "velocity": 0.7244094488188977,
                    "duration": 0.0939540416666631
                },
                {
                    "name": "F3",
                    "midi": 53,
                    "time": 98.33311700000002,
                    "velocity": 0.7244094488188977,
                    "duration": 0.0939540416666631
                },
                {
                    "name": "E3",
                    "midi": 52,
                    "time": 98.43115600000002,
                    "velocity": 0.7244094488188977,
                    "duration": 0.0939540416666631
                },
                {
                    "name": "D3",
                    "midi": 50,
                    "time": 98.52919500000002,
                    "velocity": 0.7244094488188977,
                    "duration": 0.0939540416666631
                },
                {
                    "name": "C3",
                    "midi": 48,
                    "time": 98.62723400000002,
                    "velocity": 0.7244094488188977,
                    "duration": 0.0939540416666631
                },
                {
                    "name": "A#2",
                    "midi": 46,
                    "time": 98.72527300000002,
                    "velocity": 0.7244094488188977,
                    "duration": 0.0939540416666631
                },
                {
                    "name": "A2",
                    "midi": 45,
                    "time": 98.82331200000002,
                    "velocity": 0.7244094488188977,
                    "duration": 0.0939540416666631
                },
                {
                    "name": "C3",
                    "midi": 48,
                    "time": 98.92135100000002,
                    "velocity": 0.7244094488188977,
                    "duration": 0.0939540416666631
                },
                {
                    "name": "B2",
                    "midi": 47,
                    "time": 99.01939000000002,
                    "velocity": 0.7244094488188977,
                    "duration": 0.0939540416666631
                },
                {
                    "name": "C3",
                    "midi": 48,
                    "time": 99.11742900000002,
                    "velocity": 0.7244094488188977,
                    "duration": 0.0939540416666631
                },
                {
                    "name": "D3",
                    "midi": 50,
                    "time": 99.21546800000002,
                    "velocity": 0.7244094488188977,
                    "duration": 0.0939540416666631
                },
                {
                    "name": "C3",
                    "midi": 48,
                    "time": 99.31350700000002,
                    "velocity": 0.7244094488188977,
                    "duration": 0.0939540416666631
                },
                {
                    "name": "B2",
                    "midi": 47,
                    "time": 99.41154600000002,
                    "velocity": 0.7244094488188977,
                    "duration": 0.0939540416666631
                },
                {
                    "name": "C3",
                    "midi": 48,
                    "time": 99.50958500000002,
                    "velocity": 0.7244094488188977,
                    "duration": 0.0939540416666631
                },
                {
                    "name": "F3",
                    "midi": 53,
                    "time": 99.60762400000002,
                    "velocity": 0.7244094488188977,
                    "duration": 0.0939540416666631
                },
                {
                    "name": "C3",
                    "midi": 48,
                    "time": 99.70566300000002,
                    "velocity": 0.7244094488188977,
                    "duration": 0.0939540416666631
                },
                {
                    "name": "B2",
                    "midi": 47,
                    "time": 99.80370200000002,
                    "velocity": 0.7244094488188977,
                    "duration": 0.0939540416666631
                },
                {
                    "name": "C3",
                    "midi": 48,
                    "time": 99.90174100000002,
                    "velocity": 0.7244094488188977,
                    "duration": 0.0939540416666631
                },
                {
                    "name": "A3",
                    "midi": 57,
                    "time": 99.99978000000002,
                    "velocity": 0.7244094488188977,
                    "duration": 0.1919930416666631
                },
                {
                    "name": "A#3",
                    "midi": 58,
                    "time": 100.19585800000002,
                    "velocity": 1,
                    "duration": 0.2900320416666631
                },
                {
                    "name": "C4",
                    "midi": 60,
                    "time": 100.48997500000002,
                    "velocity": 0.7244094488188977,
                    "duration": 0.0939540416666631
                },
                {
                    "name": "A#3",
                    "midi": 58,
                    "time": 100.58801400000002,
                    "velocity": 0.7244094488188977,
                    "duration": 0.0939540416666631
                },
                {
                    "name": "A3",
                    "midi": 57,
                    "time": 100.68605300000002,
                    "velocity": 0.7244094488188977,
                    "duration": 0.0939540416666631
                },
                {
                    "name": "G3",
                    "midi": 55,
                    "time": 100.78409200000002,
                    "velocity": 0.7244094488188977,
                    "duration": 0.0939540416666631
                },
                {
                    "name": "A3",
                    "midi": 57,
                    "time": 100.88213100000002,
                    "velocity": 0.7244094488188977,
                    "duration": 0.0939540416666631
                },
                {
                    "name": "G3",
                    "midi": 55,
                    "time": 100.98017000000002,
                    "velocity": 0.7244094488188977,
                    "duration": 0.0939540416666631
                },
                {
                    "name": "F3",
                    "midi": 53,
                    "time": 101.07820900000002,
                    "velocity": 0.7244094488188977,
                    "duration": 0.0939540416666631
                },
                {
                    "name": "E3",
                    "midi": 52,
                    "time": 101.17624800000002,
                    "velocity": 0.7244094488188977,
                    "duration": 0.0939540416666631
                },
                {
                    "name": "F3",
                    "midi": 53,
                    "time": 101.27428700000002,
                    "velocity": 0.7244094488188977,
                    "duration": 0.0939540416666631
                },
                {
                    "name": "G3",
                    "midi": 55,
                    "time": 101.37232600000002,
                    "velocity": 0.7244094488188977,
                    "duration": 0.0939540416666631
                },
                {
                    "name": "F3",
                    "midi": 53,
                    "time": 101.47036500000002,
                    "velocity": 0.7244094488188977,
                    "duration": 0.0939540416666631
                },
                {
                    "name": "E3",
                    "midi": 52,
                    "time": 101.56840400000002,
                    "velocity": 0.7244094488188977,
                    "duration": 0.0939540416666631
                },
                {
                    "name": "D3",
                    "midi": 50,
                    "time": 101.66644300000002,
                    "velocity": 0.7244094488188977,
                    "duration": 0.0939540416666631
                },
                {
                    "name": "C3",
                    "midi": 48,
                    "time": 101.76448200000002,
                    "velocity": 0.7244094488188977,
                    "duration": 0.0939540416666631
                },
                {
                    "name": "A#2",
                    "midi": 46,
                    "time": 101.86252100000002,
                    "velocity": 0.7244094488188977,
                    "duration": 0.0939540416666631
                },
                {
                    "name": "A2",
                    "midi": 45,
                    "time": 101.96056000000002,
                    "velocity": 0.7244094488188977,
                    "duration": 0.0939540416666631
                },
                {
                    "name": "C3",
                    "midi": 48,
                    "time": 102.05859900000002,
                    "velocity": 0.7244094488188977,
                    "duration": 0.0939540416666631
                },
                {
                    "name": "D3",
                    "midi": 50,
                    "time": 102.15663800000002,
                    "velocity": 0.7244094488188977,
                    "duration": 0.0939540416666631
                },
                {
                    "name": "E3",
                    "midi": 52,
                    "time": 102.25467700000002,
                    "velocity": 0.7244094488188977,
                    "duration": 0.0939540416666631
                },
                {
                    "name": "F3",
                    "midi": 53,
                    "time": 102.35271600000002,
                    "velocity": 0.7244094488188977,
                    "duration": 0.0939540416666631
                },
                {
                    "name": "E3",
                    "midi": 52,
                    "time": 102.45075500000002,
                    "velocity": 0.7244094488188977,
                    "duration": 0.0939540416666631
                },
                {
                    "name": "F3",
                    "midi": 53,
                    "time": 102.54879400000002,
                    "velocity": 0.7244094488188977,
                    "duration": 0.0939540416666631
                },
                {
                    "name": "G3",
                    "midi": 55,
                    "time": 102.64683300000002,
                    "velocity": 0.7244094488188977,
                    "duration": 0.0939540416666631
                },
                {
                    "name": "A3",
                    "midi": 57,
                    "time": 102.74487200000002,
                    "velocity": 0.7244094488188977,
                    "duration": 0.0939540416666631
                },
                {
                    "name": "G3",
                    "midi": 55,
                    "time": 102.84291100000002,
                    "velocity": 0.7244094488188977,
                    "duration": 0.0939540416666631
                },
                {
                    "name": "F3",
                    "midi": 53,
                    "time": 102.94095000000002,
                    "velocity": 0.7244094488188977,
                    "duration": 0.0939540416666631
                },
                {
                    "name": "E3",
                    "midi": 52,
                    "time": 103.03898900000002,
                    "velocity": 0.7244094488188977,
                    "duration": 0.0939540416666631
                },
                {
                    "name": "D3",
                    "midi": 50,
                    "time": 103.13702800000002,
                    "velocity": 0.7244094488188977,
                    "duration": 0.0939540416666631
                },
                {
                    "name": "F3",
                    "midi": 53,
                    "time": 103.23506700000002,
                    "velocity": 0.7244094488188977,
                    "duration": 0.0939540416666631
                },
                {
                    "name": "E3",
                    "midi": 52,
                    "time": 103.33310600000002,
                    "velocity": 0.7244094488188977,
                    "duration": 0.0939540416666631
                },
                {
                    "name": "D3",
                    "midi": 50,
                    "time": 103.43114500000001,
                    "velocity": 0.7244094488188977,
                    "duration": 0.0939540416666631
                },
                {
                    "name": "C#3",
                    "midi": 49,
                    "time": 103.52918400000001,
                    "velocity": 0.7244094488188977,
                    "duration": 0.0939540416666631
                },
                {
                    "name": "D3",
                    "midi": 50,
                    "time": 103.62722300000001,
                    "velocity": 0.7244094488188977,
                    "duration": 0.0939540416666631
                },
                {
                    "name": "E3",
                    "midi": 52,
                    "time": 103.72526200000001,
                    "velocity": 0.7244094488188977,
                    "duration": 0.0939540416666631
                },
                {
                    "name": "C#3",
                    "midi": 49,
                    "time": 103.82330100000001,
                    "velocity": 0.7244094488188977,
                    "duration": 0.0939540416666631
                },
                {
                    "name": "A2",
                    "midi": 45,
                    "time": 103.92134000000001,
                    "velocity": 0.7244094488188977,
                    "duration": 0.0939540416666631
                },
                {
                    "name": "C#3",
                    "midi": 49,
                    "time": 104.01937900000001,
                    "velocity": 0.7244094488188977,
                    "duration": 0.0939540416666631
                },
                {
                    "name": "D3",
                    "midi": 50,
                    "time": 104.11741800000001,
                    "velocity": 0.7244094488188977,
                    "duration": 0.0939540416666631
                },
                {
                    "name": "E3",
                    "midi": 52,
                    "time": 104.21545700000001,
                    "velocity": 0.7244094488188977,
                    "duration": 0.0939540416666631
                },
                {
                    "name": "F3",
                    "midi": 53,
                    "time": 104.31349600000001,
                    "velocity": 0.7244094488188977,
                    "duration": 0.0939540416666631
                },
                {
                    "name": "E3",
                    "midi": 52,
                    "time": 104.41153500000001,
                    "velocity": 0.7244094488188977,
                    "duration": 0.0939540416666631
                },
                {
                    "name": "D3",
                    "midi": 50,
                    "time": 104.50957400000001,
                    "velocity": 0.7244094488188977,
                    "duration": 0.0939540416666631
                },
                {
                    "name": "C#3",
                    "midi": 49,
                    "time": 104.60761300000001,
                    "velocity": 0.7244094488188977,
                    "duration": 0.0939540416666631
                },
                {
                    "name": "D3",
                    "midi": 50,
                    "time": 104.70565200000001,
                    "velocity": 0.7244094488188977,
                    "duration": 0.0939540416666631
                },
                {
                    "name": "C3",
                    "midi": 48,
                    "time": 104.80369100000001,
                    "velocity": 0.7244094488188977,
                    "duration": 0.0939540416666631
                },
                {
                    "name": "B2",
                    "midi": 47,
                    "time": 104.90173000000001,
                    "velocity": 0.7244094488188977,
                    "duration": 0.0939540416666631
                },
                {
                    "name": "A2",
                    "midi": 45,
                    "time": 104.99976900000001,
                    "velocity": 0.7244094488188977,
                    "duration": 0.0939540416666631
                },
                {
                    "name": "G#2",
                    "midi": 44,
                    "time": 105.09780800000001,
                    "velocity": 0.7244094488188977,
                    "duration": 0.0939540416666631
                },
                {
                    "name": "A2",
                    "midi": 45,
                    "time": 105.19584700000001,
                    "velocity": 0.7244094488188977,
                    "duration": 0.0939540416666631
                },
                {
                    "name": "B2",
                    "midi": 47,
                    "time": 105.29388600000001,
                    "velocity": 0.7244094488188977,
                    "duration": 0.0939540416666631
                },
                {
                    "name": "G#2",
                    "midi": 44,
                    "time": 105.39192500000001,
                    "velocity": 0.7244094488188977,
                    "duration": 0.0939540416666631
                },
                {
                    "name": "E2",
                    "midi": 40,
                    "time": 105.48996400000001,
                    "velocity": 0.7244094488188977,
                    "duration": 0.0939540416666631
                },
                {
                    "name": "D3",
                    "midi": 50,
                    "time": 105.58800300000001,
                    "velocity": 0.7244094488188977,
                    "duration": 0.0939540416666631
                },
                {
                    "name": "C3",
                    "midi": 48,
                    "time": 105.68604200000001,
                    "velocity": 0.7244094488188977,
                    "duration": 0.0939540416666631
                },
                {
                    "name": "B2",
                    "midi": 47,
                    "time": 105.78408100000001,
                    "velocity": 0.7244094488188977,
                    "duration": 0.0939540416666631
                },
                {
                    "name": "A2",
                    "midi": 45,
                    "time": 105.88212000000001,
                    "velocity": 0.7244094488188977,
                    "duration": 0.0939540416666631
                },
                {
                    "name": "G#2",
                    "midi": 44,
                    "time": 105.98015900000001,
                    "velocity": 0.7244094488188977,
                    "duration": 0.0939540416666631
                },
                {
                    "name": "A2",
                    "midi": 45,
                    "time": 106.07819800000001,
                    "velocity": 0.7244094488188977,
                    "duration": 0.0939540416666631
                },
                {
                    "name": "C3",
                    "midi": 48,
                    "time": 106.17623700000001,
                    "velocity": 0.7244094488188977,
                    "duration": 0.0939540416666631
                },
                {
                    "name": "B2",
                    "midi": 47,
                    "time": 106.27427600000001,
                    "velocity": 0.7244094488188977,
                    "duration": 0.0939540416666631
                },
                {
                    "name": "A#2",
                    "midi": 46,
                    "time": 106.37231500000001,
                    "velocity": 0.7244094488188977,
                    "duration": 0.0939540416666631
                },
                {
                    "name": "B2",
                    "midi": 47,
                    "time": 106.47035400000001,
                    "velocity": 0.7244094488188977,
                    "duration": 0.0939540416666631
                },
                {
                    "name": "D3",
                    "midi": 50,
                    "time": 106.56839300000001,
                    "velocity": 0.7244094488188977,
                    "duration": 0.0939540416666631
                },
                {
                    "name": "C3",
                    "midi": 48,
                    "time": 106.66643200000001,
                    "velocity": 0.7244094488188977,
                    "duration": 0.0939540416666631
                },
                {
                    "name": "B2",
                    "midi": 47,
                    "time": 106.76447100000001,
                    "velocity": 0.7244094488188977,
                    "duration": 0.0939540416666631
                },
                {
                    "name": "C3",
                    "midi": 48,
                    "time": 106.86251000000001,
                    "velocity": 0.7244094488188977,
                    "duration": 0.0939540416666631
                },
                {
                    "name": "E3",
                    "midi": 52,
                    "time": 106.96054900000001,
                    "velocity": 0.7244094488188977,
                    "duration": 0.0939540416666631
                },
                {
                    "name": "C#3",
                    "midi": 49,
                    "time": 107.05858800000001,
                    "velocity": 0.7244094488188977,
                    "duration": 0.0939540416666631
                },
                {
                    "name": "A3",
                    "midi": 57,
                    "time": 107.15662700000001,
                    "velocity": 0.7244094488188977,
                    "duration": 0.0939540416666631
                },
                {
                    "name": "G#3",
                    "midi": 56,
                    "time": 107.25466600000001,
                    "velocity": 0.7244094488188977,
                    "duration": 0.0939540416666631
                },
                {
                    "name": "E3",
                    "midi": 52,
                    "time": 107.35270500000001,
                    "velocity": 0.7244094488188977,
                    "duration": 0.0939540416666631
                },
                {
                    "name": "D3",
                    "midi": 50,
                    "time": 107.45074400000001,
                    "velocity": 0.7244094488188977,
                    "duration": 0.0939540416666631
                },
                {
                    "name": "A3",
                    "midi": 57,
                    "time": 107.54878300000001,
                    "velocity": 0.7244094488188977,
                    "duration": 0.0939540416666631
                },
                {
                    "name": "F#3",
                    "midi": 54,
                    "time": 107.64682200000001,
                    "velocity": 0.7244094488188977,
                    "duration": 0.0939540416666631
                },
                {
                    "name": "E3",
                    "midi": 52,
                    "time": 107.74486100000001,
                    "velocity": 0.7244094488188977,
                    "duration": 0.0939540416666631
                },
                {
                    "name": "D#3",
                    "midi": 51,
                    "time": 107.84290000000001,
                    "velocity": 0.7244094488188977,
                    "duration": 0.0939540416666631
                },
                {
                    "name": "C4",
                    "midi": 60,
                    "time": 107.94093900000001,
                    "velocity": 0.7244094488188977,
                    "duration": 0.0939540416666631
                },
                {
                    "name": "B3",
                    "midi": 59,
                    "time": 108.03897800000001,
                    "velocity": 0.7244094488188977,
                    "duration": 0.0939540416666631
                },
                {
                    "name": "A3",
                    "midi": 57,
                    "time": 108.13701700000001,
                    "velocity": 0.7244094488188977,
                    "duration": 0.0939540416666631
                },
                {
                    "name": "E3",
                    "midi": 52,
                    "time": 108.23505600000001,
                    "velocity": 0.7244094488188977,
                    "duration": 0.1919930416666631
                },
                {
                    "name": "E4",
                    "midi": 64,
                    "time": 108.23505600000001,
                    "velocity": 0.7244094488188977,
                    "duration": 0.1919930416666631
                },
                {
                    "name": "E3",
                    "midi": 52,
                    "time": 109.01936800000001,
                    "velocity": 0.47244094488188976,
                    "duration": 0.3267966666666666
                },
                {
                    "name": "E3",
                    "midi": 52,
                    "time": 109.41152400000001,
                    "velocity": 0.47244094488188976,
                    "duration": 0.3267966666666666
                },
                {
                    "name": "A3",
                    "midi": 57,
                    "time": 109.80368000000001,
                    "velocity": 0.47244094488188976,
                    "duration": 0.1919930416666631
                },
                {
                    "name": "A3",
                    "midi": 57,
                    "time": 110.58799200000001,
                    "velocity": 0.47244094488188976,
                    "duration": 0.1919930416666631
                },
                {
                    "name": "E3",
                    "midi": 52,
                    "time": 111.37230400000001,
                    "velocity": 0.47244094488188976,
                    "duration": 0.1919930416666631
                },
                {
                    "name": "E3",
                    "midi": 52,
                    "time": 112.15661600000001,
                    "velocity": 0.47244094488188976,
                    "duration": 0.3267966666666666
                },
                {
                    "name": "E3",
                    "midi": 52,
                    "time": 112.54877200000001,
                    "velocity": 0.47244094488188976,
                    "duration": 0.3267966666666666
                },
                {
                    "name": "A3",
                    "midi": 57,
                    "time": 112.94092800000001,
                    "velocity": 0.47244094488188976,
                    "duration": 0.1919930416666631
                },
                {
                    "name": "A3",
                    "midi": 57,
                    "time": 113.72524000000001,
                    "velocity": 0.47244094488188976,
                    "duration": 0.1919930416666631
                },
                {
                    "name": "E3",
                    "midi": 52,
                    "time": 114.50955200000001,
                    "velocity": 0.47244094488188976,
                    "duration": 0.39215599999999995
                },
                {
                    "name": "D4",
                    "midi": 62,
                    "time": 114.90170800000001,
                    "velocity": 0.47244094488188976,
                    "duration": 0.39215599999999995
                },
                {
                    "name": "C4",
                    "midi": 60,
                    "time": 115.29386400000001,
                    "velocity": 0.47244094488188976,
                    "duration": 0.39215599999999995
                },
                {
                    "name": "B3",
                    "midi": 59,
                    "time": 115.68602000000001,
                    "velocity": 0.47244094488188976,
                    "duration": 0.39215599999999995
                },
                {
                    "name": "A3",
                    "midi": 57,
                    "time": 116.07817600000001,
                    "velocity": 0.47244094488188976,
                    "duration": 0.39215599999999995
                },
                {
                    "name": "G3",
                    "midi": 55,
                    "time": 116.47033200000001,
                    "velocity": 0.47244094488188976,
                    "duration": 0.39215599999999995
                },
                {
                    "name": "F3",
                    "midi": 53,
                    "time": 116.86248800000001,
                    "velocity": 0.47244094488188976,
                    "duration": 0.39215599999999995
                },
                {
                    "name": "E3",
                    "midi": 52,
                    "time": 117.25464400000001,
                    "velocity": 0.47244094488188976,
                    "duration": 0.39215599999999995
                },
                {
                    "name": "D3",
                    "midi": 50,
                    "time": 117.64680000000001,
                    "velocity": 0.47244094488188976,
                    "duration": 0.1919930416666631
                },
                {
                    "name": "D3",
                    "midi": 50,
                    "time": 118.43111200000001,
                    "velocity": 0.47244094488188976,
                    "duration": 0.3267966666666666
                },
                {
                    "name": "E3",
                    "midi": 52,
                    "time": 119.21542400000001,
                    "velocity": 0.47244094488188976,
                    "duration": 0.3267966666666666
                },
                {
                    "name": "E3",
                    "midi": 52,
                    "time": 119.99973600000001,
                    "velocity": 0.47244094488188976,
                    "duration": 0.3267966666666666
                },
                {
                    "name": "A3",
                    "midi": 57,
                    "time": 120.78404800000001,
                    "velocity": 0.47244094488188976,
                    "duration": 0.39215599999999995
                },
                {
                    "name": "A2",
                    "midi": 45,
                    "time": 121.17620400000001,
                    "velocity": 0.47244094488188976,
                    "duration": 0.39215599999999995
                },
                {
                    "name": "D3",
                    "midi": 50,
                    "time": 121.56836000000001,
                    "velocity": 0.47244094488188976,
                    "duration": 0.39215599999999995
                },
                {
                    "name": "A2",
                    "midi": 45,
                    "time": 121.96051600000001,
                    "velocity": 0.47244094488188976,
                    "duration": 0.39215599999999995
                },
                {
                    "name": "D3",
                    "midi": 50,
                    "time": 122.35267200000001,
                    "velocity": 0.47244094488188976,
                    "duration": 0.39215599999999995
                },
                {
                    "name": "A2",
                    "midi": 45,
                    "time": 122.74482800000001,
                    "velocity": 0.47244094488188976,
                    "duration": 0.39215599999999995
                },
                {
                    "name": "C3",
                    "midi": 48,
                    "time": 123.13698400000001,
                    "velocity": 0.47244094488188976,
                    "duration": 0.39215599999999995
                },
                {
                    "name": "G2",
                    "midi": 43,
                    "time": 123.52914000000001,
                    "velocity": 0.47244094488188976,
                    "duration": 0.39215599999999995
                },
                {
                    "name": "C3",
                    "midi": 48,
                    "time": 123.92129600000001,
                    "velocity": 0.47244094488188976,
                    "duration": 0.39215599999999995
                },
                {
                    "name": "C4",
                    "midi": 60,
                    "time": 124.31345200000001,
                    "velocity": 0.47244094488188976,
                    "duration": 0.39215599999999995
                },
                {
                    "name": "B3",
                    "midi": 59,
                    "time": 124.70560800000001,
                    "velocity": 0.47244094488188976,
                    "duration": 0.39215599999999995
                },
                {
                    "name": "A3",
                    "midi": 57,
                    "time": 125.09776400000001,
                    "velocity": 0.47244094488188976,
                    "duration": 0.39215599999999995
                },
                {
                    "name": "E3",
                    "midi": 52,
                    "time": 125.48992000000001,
                    "velocity": 0.47244094488188976,
                    "duration": 0.39215599999999995
                },
                {
                    "name": "D3",
                    "midi": 50,
                    "time": 125.88207600000001,
                    "velocity": 0.47244094488188976,
                    "duration": 0.39215599999999995
                },
                {
                    "name": "B2",
                    "midi": 47,
                    "time": 126.27423200000001,
                    "velocity": 0.47244094488188976,
                    "duration": 0.39215599999999995
                },
                {
                    "name": "A2",
                    "midi": 45,
                    "time": 126.66638800000001,
                    "velocity": 0.47244094488188976,
                    "duration": 0.39215599999999995
                },
                {
                    "name": "E3",
                    "midi": 52,
                    "time": 127.05854400000001,
                    "velocity": 0.47244094488188976,
                    "duration": 0.39215599999999995
                },
                {
                    "name": "D4",
                    "midi": 62,
                    "time": 127.45070000000001,
                    "velocity": 0.47244094488188976,
                    "duration": 0.39215599999999995
                },
                {
                    "name": "C4",
                    "midi": 60,
                    "time": 127.84285600000001,
                    "velocity": 0.47244094488188976,
                    "duration": 0.39215599999999995
                },
                {
                    "name": "B3",
                    "midi": 59,
                    "time": 128.235012,
                    "velocity": 0.47244094488188976,
                    "duration": 0.39215599999999995
                },
                {
                    "name": "A3",
                    "midi": 57,
                    "time": 128.627168,
                    "velocity": 0.47244094488188976,
                    "duration": 0.39215599999999995
                },
                {
                    "name": "G3",
                    "midi": 55,
                    "time": 129.019324,
                    "velocity": 0.47244094488188976,
                    "duration": 0.39215599999999995
                },
                {
                    "name": "F3",
                    "midi": 53,
                    "time": 129.41148,
                    "velocity": 0.47244094488188976,
                    "duration": 0.39215599999999995
                },
                {
                    "name": "E3",
                    "midi": 52,
                    "time": 129.803636,
                    "velocity": 0.47244094488188976,
                    "duration": 0.39215599999999995
                },
                {
                    "name": "D3",
                    "midi": 50,
                    "time": 130.195792,
                    "velocity": 0.47244094488188976,
                    "duration": 0.1919930416666773
                },
                {
                    "name": "D3",
                    "midi": 50,
                    "time": 130.980104,
                    "velocity": 0.47244094488188976,
                    "duration": 0.3267966666666666
                },
                {
                    "name": "D#3",
                    "midi": 51,
                    "time": 131.764416,
                    "velocity": 0.47244094488188976,
                    "duration": 0.3267966666666666
                },
                {
                    "name": "D#3",
                    "midi": 51,
                    "time": 132.548728,
                    "velocity": 0.47244094488188976,
                    "duration": 0.3267966666666666
                },
                {
                    "name": "E3",
                    "midi": 52,
                    "time": 133.33304,
                    "velocity": 0.47244094488188976,
                    "duration": 0.3267966666666666
                },
                {
                    "name": "E3",
                    "midi": 52,
                    "time": 134.901664,
                    "velocity": 0.47244094488188976,
                    "duration": 0.3267966666666666
                },
                {
                    "name": "E3",
                    "midi": 52,
                    "time": 136.470288,
                    "velocity": 0.47244094488188976,
                    "duration": 0.3267966666666666
                },
                {
                    "name": "E3",
                    "midi": 52,
                    "time": 138.038912,
                    "velocity": 0.47244094488188976,
                    "duration": 0.3267966666666666
                },
                {
                    "name": "E3",
                    "midi": 52,
                    "time": 138.823224,
                    "velocity": 0.47244094488188976,
                    "duration": 0.3267966666666666
                },
                {
                    "name": "A2",
                    "midi": 45,
                    "time": 139.607536,
                    "velocity": 0.7244094488188977,
                    "duration": 0.3267966666666666
                },
                {
                    "name": "C#3",
                    "midi": 49,
                    "time": 139.999692,
                    "velocity": 0.7244094488188977,
                    "duration": 0.3267966666666666
                },
                {
                    "name": "E3",
                    "midi": 52,
                    "time": 140.391848,
                    "velocity": 0.7244094488188977,
                    "duration": 0.3267966666666666
                },
                {
                    "name": "A3",
                    "midi": 57,
                    "time": 140.784004,
                    "velocity": 0.7244094488188977,
                    "duration": 0.3267966666666666
                },
                {
                    "name": "B3",
                    "midi": 59,
                    "time": 141.17616,
                    "velocity": 0.7244094488188977,
                    "duration": 0.3267966666666666
                },
                {
                    "name": "G#3",
                    "midi": 56,
                    "time": 141.568316,
                    "velocity": 0.7244094488188977,
                    "duration": 0.3267966666666666
                },
                {
                    "name": "E3",
                    "midi": 52,
                    "time": 141.960472,
                    "velocity": 0.7244094488188977,
                    "duration": 0.3267966666666666
                },
                {
                    "name": "B2",
                    "midi": 47,
                    "time": 142.352628,
                    "velocity": 0.7244094488188977,
                    "duration": 0.3267966666666666
                },
                {
                    "name": "A2",
                    "midi": 45,
                    "time": 142.744784,
                    "velocity": 0.7244094488188977,
                    "duration": 0.3267966666666666
                },
                {
                    "name": "C#3",
                    "midi": 49,
                    "time": 143.13694,
                    "velocity": 0.7244094488188977,
                    "duration": 0.3267966666666666
                },
                {
                    "name": "E3",
                    "midi": 52,
                    "time": 143.529096,
                    "velocity": 0.7244094488188977,
                    "duration": 0.3267966666666666
                },
                {
                    "name": "A3",
                    "midi": 57,
                    "time": 143.921252,
                    "velocity": 0.7244094488188977,
                    "duration": 0.3267966666666666
                },
                {
                    "name": "B3",
                    "midi": 59,
                    "time": 144.313408,
                    "velocity": 0.7244094488188977,
                    "duration": 0.3267966666666666
                },
                {
                    "name": "G#3",
                    "midi": 56,
                    "time": 144.705564,
                    "velocity": 0.7244094488188977,
                    "duration": 0.3267966666666666
                },
                {
                    "name": "E3",
                    "midi": 52,
                    "time": 145.09772,
                    "velocity": 0.7244094488188977,
                    "duration": 0.3267966666666666
                },
                {
                    "name": "B2",
                    "midi": 47,
                    "time": 145.489876,
                    "velocity": 0.7244094488188977,
                    "duration": 0.3267966666666666
                },
                {
                    "name": "A2",
                    "midi": 45,
                    "time": 145.882032,
                    "velocity": 0.7244094488188977,
                    "duration": 0.3267966666666666
                },
                {
                    "name": "A3",
                    "midi": 57,
                    "time": 146.274188,
                    "velocity": 0.7244094488188977,
                    "duration": 0.3267966666666666
                },
                {
                    "name": "G3",
                    "midi": 55,
                    "time": 146.666344,
                    "velocity": 0.7244094488188977,
                    "duration": 0.3267966666666666
                },
                {
                    "name": "E3",
                    "midi": 52,
                    "time": 147.0585,
                    "velocity": 0.7244094488188977,
                    "duration": 0.3267966666666666
                },
                {
                    "name": "F3",
                    "midi": 53,
                    "time": 147.450656,
                    "velocity": 0.7244094488188977,
                    "duration": 0.3267966666666666
                },
                {
                    "name": "A3",
                    "midi": 57,
                    "time": 147.842812,
                    "velocity": 0.7244094488188977,
                    "duration": 0.3267966666666666
                },
                {
                    "name": "C#3",
                    "midi": 49,
                    "time": 148.234968,
                    "velocity": 0.7244094488188977,
                    "duration": 0.3267966666666666
                },
                {
                    "name": "E3",
                    "midi": 52,
                    "time": 148.627124,
                    "velocity": 0.7244094488188977,
                    "duration": 0.3267966666666666
                },
                {
                    "name": "D3",
                    "midi": 50,
                    "time": 149.01928,
                    "velocity": 0.7244094488188977,
                    "duration": 0.3267966666666666
                },
                {
                    "name": "F3",
                    "midi": 53,
                    "time": 149.411436,
                    "velocity": 0.7244094488188977,
                    "duration": 0.3267966666666666
                },
                {
                    "name": "G2",
                    "midi": 43,
                    "time": 149.803592,
                    "velocity": 0.7244094488188977,
                    "duration": 0.3267966666666666
                },
                {
                    "name": "B2",
                    "midi": 47,
                    "time": 150.195748,
                    "velocity": 0.7244094488188977,
                    "duration": 0.3267966666666666
                },
                {
                    "name": "C3",
                    "midi": 48,
                    "time": 150.587904,
                    "velocity": 0.7244094488188977,
                    "duration": 0.3267966666666666
                },
                {
                    "name": "B2",
                    "midi": 47,
                    "time": 150.98006,
                    "velocity": 0.7244094488188977,
                    "duration": 0.3267966666666666
                },
                {
                    "name": "C3",
                    "midi": 48,
                    "time": 151.372216,
                    "velocity": 0.7244094488188977,
                    "duration": 0.3267966666666666
                },
                {
                    "name": "D3",
                    "midi": 50,
                    "time": 151.764372,
                    "velocity": 0.7244094488188977,
                    "duration": 0.3267966666666666
                },
                {
                    "name": "G3",
                    "midi": 55,
                    "time": 152.156528,
                    "velocity": 0.7244094488188977,
                    "duration": 0.1919930416666773
                },
                {
                    "name": "G2",
                    "midi": 43,
                    "time": 152.94084,
                    "velocity": 0.47244094488188976,
                    "duration": 0.3267966666666666
                },
                {
                    "name": "G2",
                    "midi": 43,
                    "time": 153.332996,
                    "velocity": 0.47244094488188976,
                    "duration": 0.3267966666666666
                },
                {
                    "name": "G2",
                    "midi": 43,
                    "time": 153.725152,
                    "velocity": 0.47244094488188976,
                    "duration": 0.6862729999999999
                },
                {
                    "name": "G2",
                    "midi": 43,
                    "time": 154.509464,
                    "velocity": 0.47244094488188976,
                    "duration": 0.6862729999999999
                },
                {
                    "name": "G2",
                    "midi": 43,
                    "time": 155.293776,
                    "velocity": 0.47244094488188976,
                    "duration": 0.6862729999999999
                },
                {
                    "name": "G2",
                    "midi": 43,
                    "time": 156.078088,
                    "velocity": 0.47244094488188976,
                    "duration": 0.3267966666666666
                },
                {
                    "name": "G2",
                    "midi": 43,
                    "time": 156.470244,
                    "velocity": 0.47244094488188976,
                    "duration": 0.3267966666666666
                },
                {
                    "name": "G2",
                    "midi": 43,
                    "time": 156.8624,
                    "velocity": 0.47244094488188976,
                    "duration": 0.6862729999999999
                },
                {
                    "name": "G2",
                    "midi": 43,
                    "time": 157.646712,
                    "velocity": 0.47244094488188976,
                    "duration": 0.6862729999999999
                },
                {
                    "name": "G2",
                    "midi": 43,
                    "time": 158.431024,
                    "velocity": 0.47244094488188976,
                    "duration": 0.3267966666666666
                },
                {
                    "name": "G3",
                    "midi": 55,
                    "time": 158.82318,
                    "velocity": 0.47244094488188976,
                    "duration": 0.3267966666666666
                },
                {
                    "name": "G2",
                    "midi": 43,
                    "time": 159.215336,
                    "velocity": 0.47244094488188976,
                    "duration": 0.3267966666666666
                },
                {
                    "name": "G3",
                    "midi": 55,
                    "time": 159.607492,
                    "velocity": 0.47244094488188976,
                    "duration": 0.3267966666666666
                },
                {
                    "name": "G2",
                    "midi": 43,
                    "time": 159.999648,
                    "velocity": 0.47244094488188976,
                    "duration": 0.3267966666666666
                },
                {
                    "name": "G3",
                    "midi": 55,
                    "time": 160.391804,
                    "velocity": 0.47244094488188976,
                    "duration": 0.3267966666666666
                },
                {
                    "name": "G2",
                    "midi": 43,
                    "time": 160.78396,
                    "velocity": 0.47244094488188976,
                    "duration": 0.3267966666666666
                },
                {
                    "name": "G3",
                    "midi": 55,
                    "time": 161.176116,
                    "velocity": 0.47244094488188976,
                    "duration": 0.3267966666666666
                },
                {
                    "name": "G2",
                    "midi": 43,
                    "time": 161.568272,
                    "velocity": 0.47244094488188976,
                    "duration": 0.3267966666666666
                },
                {
                    "name": "F2",
                    "midi": 41,
                    "time": 163.136896,
                    "velocity": 0.47244094488188976,
                    "duration": 0.3267966666666666
                },
                {
                    "name": "G2",
                    "midi": 43,
                    "time": 164.70552,
                    "velocity": 0.47244094488188976,
                    "duration": 0.3267966666666666
                },
                {
                    "name": "C3",
                    "midi": 48,
                    "time": 168.62708,
                    "velocity": 0.47244094488188976,
                    "duration": 0.6862729999999999
                },
                {
                    "name": "B2",
                    "midi": 47,
                    "time": 169.411392,
                    "velocity": 0.47244094488188976,
                    "duration": 0.6862729999999999
                },
                {
                    "name": "B2",
                    "midi": 47,
                    "time": 170.195704,
                    "velocity": 0.47244094488188976,
                    "duration": 0.6862729999999999
                },
                {
                    "name": "C3",
                    "midi": 48,
                    "time": 170.980016,
                    "velocity": 0.47244094488188976,
                    "duration": 0.6862729999999999
                },
                {
                    "name": "C#3",
                    "midi": 49,
                    "time": 171.764328,
                    "velocity": 0.47244094488188976,
                    "duration": 0.6862729999999999
                },
                {
                    "name": "D3",
                    "midi": 50,
                    "time": 172.54864,
                    "velocity": 0.47244094488188976,
                    "duration": 0.39215599999999995
                },
                {
                    "name": "G2",
                    "midi": 43,
                    "time": 172.940796,
                    "velocity": 0.47244094488188976,
                    "duration": 0.39215599999999995
                },
                {
                    "name": "C3",
                    "midi": 48,
                    "time": 173.332952,
                    "velocity": 0.47244094488188976,
                    "duration": 0.39215599999999995
                },
                {
                    "name": "D3",
                    "midi": 50,
                    "time": 173.725108,
                    "velocity": 0.47244094488188976,
                    "duration": 0.39215599999999995
                },
                {
                    "name": "G2",
                    "midi": 43,
                    "time": 174.117264,
                    "velocity": 0.47244094488188976,
                    "duration": 0.1919930416666773
                },
                {
                    "name": "C3",
                    "midi": 48,
                    "time": 174.901576,
                    "velocity": 0.47244094488188976,
                    "duration": 0.6862729999999999
                },
                {
                    "name": "B2",
                    "midi": 47,
                    "time": 175.685888,
                    "velocity": 0.47244094488188976,
                    "duration": 0.6862729999999999
                },
                {
                    "name": "B2",
                    "midi": 47,
                    "time": 176.4702,
                    "velocity": 0.47244094488188976,
                    "duration": 0.6862729999999999
                },
                {
                    "name": "C3",
                    "midi": 48,
                    "time": 177.254512,
                    "velocity": 0.47244094488188976,
                    "duration": 0.6862729999999999
                },
                {
                    "name": "E3",
                    "midi": 52,
                    "time": 178.038824,
                    "velocity": 0.47244094488188976,
                    "duration": 0.6862729999999999
                },
                {
                    "name": "F3",
                    "midi": 53,
                    "time": 178.823136,
                    "velocity": 0.47244094488188976,
                    "duration": 0.6862729999999999
                },
                {
                    "name": "F#3",
                    "midi": 54,
                    "time": 179.607448,
                    "velocity": 0.47244094488188976,
                    "duration": 0.6862729999999999
                },
                {
                    "name": "G3",
                    "midi": 55,
                    "time": 180.39176,
                    "velocity": 0.47244094488188976,
                    "duration": 0.6862729999999999
                },
                {
                    "name": "B3",
                    "midi": 59,
                    "time": 181.176072,
                    "velocity": 0.47244094488188976,
                    "duration": 0.6862729999999999
                },
                {
                    "name": "C4",
                    "midi": 60,
                    "time": 181.960384,
                    "velocity": 0.47244094488188976,
                    "duration": 0.09803899999999999
                },
                {
                    "name": "G#3",
                    "midi": 56,
                    "time": 182.35254,
                    "velocity": 0.47244094488188976,
                    "duration": 0.39215599999999995
                },
                {
                    "name": "A3",
                    "midi": 57,
                    "time": 182.744696,
                    "velocity": 0.47244094488188976,
                    "duration": 0.39215599999999995
                },
                {
                    "name": "E3",
                    "midi": 52,
                    "time": 183.136852,
                    "velocity": 0.47244094488188976,
                    "duration": 0.39215599999999995
                },
                {
                    "name": "F3",
                    "midi": 53,
                    "time": 183.529008,
                    "velocity": 0.47244094488188976,
                    "duration": 0.6862729999999999
                },
                {
                    "name": "F#3",
                    "midi": 54,
                    "time": 184.31332,
                    "velocity": 0.47244094488188976,
                    "duration": 0.6862729999999999
                },
                {
                    "name": "G3",
                    "midi": 55,
                    "time": 185.097632,
                    "velocity": 0.47244094488188976,
                    "duration": 0.6862729999999999
                },
                {
                    "name": "G2",
                    "midi": 43,
                    "time": 185.881944,
                    "velocity": 0.47244094488188976,
                    "duration": 0.6862729999999999
                },
                {
                    "name": "G#2",
                    "midi": 44,
                    "time": 186.666256,
                    "velocity": 0.47244094488188976,
                    "duration": 0.6862729999999999
                },
                {
                    "name": "G#2",
                    "midi": 44,
                    "time": 187.450568,
                    "velocity": 0.47244094488188976,
                    "duration": 0.3267966666666666
                },
                {
                    "name": "G#2",
                    "midi": 44,
                    "time": 187.842724,
                    "velocity": 0.47244094488188976,
                    "duration": 0.3267966666666666
                },
                {
                    "name": "G2",
                    "midi": 43,
                    "time": 188.23488,
                    "velocity": 0.47244094488188976,
                    "duration": 0.6862729999999999
                },
                {
                    "name": "D#3",
                    "midi": 51,
                    "time": 189.019192,
                    "velocity": 0.47244094488188976,
                    "duration": 0.6862729999999999
                },
                {
                    "name": "G#2",
                    "midi": 44,
                    "time": 189.803504,
                    "velocity": 0.47244094488188976,
                    "duration": 0.6862729999999999
                },
                {
                    "name": "G#2",
                    "midi": 44,
                    "time": 190.587816,
                    "velocity": 0.47244094488188976,
                    "duration": 0.3267966666666666
                },
                {
                    "name": "G#2",
                    "midi": 44,
                    "time": 190.979972,
                    "velocity": 0.47244094488188976,
                    "duration": 0.3267966666666666
                },
                {
                    "name": "G2",
                    "midi": 43,
                    "time": 191.372128,
                    "velocity": 0.47244094488188976,
                    "duration": 0.6862729999999999
                },
                {
                    "name": "G2",
                    "midi": 43,
                    "time": 192.15644,
                    "velocity": 0.47244094488188976,
                    "duration": 0.6862729999999999
                },
                {
                    "name": "C3",
                    "midi": 48,
                    "time": 192.940752,
                    "velocity": 0.7244094488188977,
                    "duration": 0.09395404166667731
                },
                {
                    "name": "D#3",
                    "midi": 51,
                    "time": 193.038791,
                    "velocity": 0.7244094488188977,
                    "duration": 0.09395404166667731
                },
                {
                    "name": "D3",
                    "midi": 50,
                    "time": 193.13683,
                    "velocity": 0.7244094488188977,
                    "duration": 0.09395404166667731
                },
                {
                    "name": "D#3",
                    "midi": 51,
                    "time": 193.234869,
                    "velocity": 0.7244094488188977,
                    "duration": 0.09395404166667731
                },
                {
                    "name": "F3",
                    "midi": 53,
                    "time": 193.332908,
                    "velocity": 0.7244094488188977,
                    "duration": 0.09395404166667731
                },
                {
                    "name": "D#3",
                    "midi": 51,
                    "time": 193.430947,
                    "velocity": 0.7244094488188977,
                    "duration": 0.09395404166667731
                },
                {
                    "name": "D3",
                    "midi": 50,
                    "time": 193.528986,
                    "velocity": 0.7244094488188977,
                    "duration": 0.09395404166667731
                },
                {
                    "name": "D#3",
                    "midi": 51,
                    "time": 193.627025,
                    "velocity": 0.7244094488188977,
                    "duration": 0.09395404166667731
                },
                {
                    "name": "G#3",
                    "midi": 56,
                    "time": 193.725064,
                    "velocity": 0.7244094488188977,
                    "duration": 0.09395404166667731
                },
                {
                    "name": "D#3",
                    "midi": 51,
                    "time": 193.823103,
                    "velocity": 0.7244094488188977,
                    "duration": 0.09395404166667731
                },
                {
                    "name": "D3",
                    "midi": 50,
                    "time": 193.921142,
                    "velocity": 0.7244094488188977,
                    "duration": 0.09395404166667731
                },
                {
                    "name": "D#3",
                    "midi": 51,
                    "time": 194.019181,
                    "velocity": 0.7244094488188977,
                    "duration": 0.09395404166667731
                },
                {
                    "name": "C4",
                    "midi": 60,
                    "time": 194.11722,
                    "velocity": 0.7244094488188977,
                    "duration": 0.09395404166667731
                },
                {
                    "name": "D#3",
                    "midi": 51,
                    "time": 194.215259,
                    "velocity": 0.7244094488188977,
                    "duration": 0.09395404166667731
                },
                {
                    "name": "D3",
                    "midi": 50,
                    "time": 194.313298,
                    "velocity": 0.7244094488188977,
                    "duration": 0.09395404166667731
                },
                {
                    "name": "D#3",
                    "midi": 51,
                    "time": 194.411337,
                    "velocity": 0.7244094488188977,
                    "duration": 0.09395404166667731
                },
                {
                    "name": "C#4",
                    "midi": 61,
                    "time": 194.509376,
                    "velocity": 0.7244094488188977,
                    "duration": 0.09395404166667731
                },
                {
                    "name": "D#4",
                    "midi": 63,
                    "time": 194.607415,
                    "velocity": 0.7244094488188977,
                    "duration": 0.09395404166667731
                },
                {
                    "name": "C4",
                    "midi": 60,
                    "time": 194.705454,
                    "velocity": 0.7244094488188977,
                    "duration": 0.09395404166667731
                },
                {
                    "name": "C#4",
                    "midi": 61,
                    "time": 194.803493,
                    "velocity": 0.7244094488188977,
                    "duration": 0.09395404166667731
                },
                {
                    "name": "A#3",
                    "midi": 58,
                    "time": 194.901532,
                    "velocity": 0.7244094488188977,
                    "duration": 0.09395404166667731
                },
                {
                    "name": "C4",
                    "midi": 60,
                    "time": 194.999571,
                    "velocity": 0.7244094488188977,
                    "duration": 0.09395404166667731
                },
                {
                    "name": "G#3",
                    "midi": 56,
                    "time": 195.09761,
                    "velocity": 0.7244094488188977,
                    "duration": 0.09395404166667731
                },
                {
                    "name": "A#3",
                    "midi": 58,
                    "time": 195.195649,
                    "velocity": 0.7244094488188977,
                    "duration": 0.09395404166667731
                },
                {
                    "name": "G3",
                    "midi": 55,
                    "time": 195.293688,
                    "velocity": 0.7244094488188977,
                    "duration": 0.09395404166667731
                },
                {
                    "name": "G#3",
                    "midi": 56,
                    "time": 195.391727,
                    "velocity": 0.7244094488188977,
                    "duration": 0.09395404166667731
                },
                {
                    "name": "A#3",
                    "midi": 58,
                    "time": 195.489766,
                    "velocity": 0.7244094488188977,
                    "duration": 0.09395404166667731
                },
                {
                    "name": "G#3",
                    "midi": 56,
                    "time": 195.587805,
                    "velocity": 0.7244094488188977,
                    "duration": 0.09395404166667731
                },
                {
                    "name": "G3",
                    "midi": 55,
                    "time": 195.685844,
                    "velocity": 0.7244094488188977,
                    "duration": 0.09395404166667731
                },
                {
                    "name": "F3",
                    "midi": 53,
                    "time": 195.783883,
                    "velocity": 0.7244094488188977,
                    "duration": 0.09395404166667731
                },
                {
                    "name": "D#3",
                    "midi": 51,
                    "time": 195.881922,
                    "velocity": 0.7244094488188977,
                    "duration": 0.09395404166667731
                },
                {
                    "name": "C#3",
                    "midi": 49,
                    "time": 195.979961,
                    "velocity": 0.7244094488188977,
                    "duration": 0.09395404166667731
                },
                {
                    "name": "C3",
                    "midi": 48,
                    "time": 196.078,
                    "velocity": 0.7244094488188977,
                    "duration": 0.09395404166667731
                },
                {
                    "name": "G#2",
                    "midi": 44,
                    "time": 196.176039,
                    "velocity": 0.7244094488188977,
                    "duration": 0.09395404166667731
                },
                {
                    "name": "A#2",
                    "midi": 46,
                    "time": 196.274078,
                    "velocity": 0.7244094488188977,
                    "duration": 0.09395404166667731
                },
                {
                    "name": "C3",
                    "midi": 48,
                    "time": 196.372117,
                    "velocity": 0.7244094488188977,
                    "duration": 0.09395404166667731
                },
                {
                    "name": "C#3",
                    "midi": 49,
                    "time": 196.470156,
                    "velocity": 0.7244094488188977,
                    "duration": 0.09395404166667731
                },
                {
                    "name": "D#3",
                    "midi": 51,
                    "time": 196.568195,
                    "velocity": 0.7244094488188977,
                    "duration": 0.09395404166667731
                },
                {
                    "name": "F3",
                    "midi": 53,
                    "time": 196.666234,
                    "velocity": 0.7244094488188977,
                    "duration": 0.09395404166667731
                },
                {
                    "name": "G3",
                    "midi": 55,
                    "time": 196.764273,
                    "velocity": 0.7244094488188977,
                    "duration": 0.09395404166667731
                },
                {
                    "name": "G#3",
                    "midi": 56,
                    "time": 196.862312,
                    "velocity": 0.7244094488188977,
                    "duration": 0.09395404166667731
                },
                {
                    "name": "A#3",
                    "midi": 58,
                    "time": 196.960351,
                    "velocity": 0.7244094488188977,
                    "duration": 0.09395404166667731
                },
                {
                    "name": "C4",
                    "midi": 60,
                    "time": 197.05839,
                    "velocity": 0.7244094488188977,
                    "duration": 0.09395404166667731
                },
                {
                    "name": "D4",
                    "midi": 62,
                    "time": 197.156429,
                    "velocity": 0.7244094488188977,
                    "duration": 0.09395404166667731
                },
                {
                    "name": "D#4",
                    "midi": 63,
                    "time": 197.254468,
                    "velocity": 0.7244094488188977,
                    "duration": 0.09395404166667731
                },
                {
                    "name": "C4",
                    "midi": 60,
                    "time": 197.352507,
                    "velocity": 0.7244094488188977,
                    "duration": 0.09395404166667731
                },
                {
                    "name": "A3",
                    "midi": 57,
                    "time": 197.450546,
                    "velocity": 0.7244094488188977,
                    "duration": 0.09395404166667731
                },
                {
                    "name": "F#3",
                    "midi": 54,
                    "time": 197.548585,
                    "velocity": 0.7244094488188977,
                    "duration": 0.09395404166667731
                },
                {
                    "name": "G3",
                    "midi": 55,
                    "time": 197.646624,
                    "velocity": 0.7244094488188977,
                    "duration": 0.09395404166667731
                },
                {
                    "name": "C4",
                    "midi": 60,
                    "time": 197.744663,
                    "velocity": 0.7244094488188977,
                    "duration": 0.09395404166667731
                },
                {
                    "name": "E4",
                    "midi": 64,
                    "time": 197.842702,
                    "velocity": 0.7244094488188977,
                    "duration": 0.09395404166667731
                },
                {
                    "name": "G4",
                    "midi": 67,
                    "time": 197.940741,
                    "velocity": 0.7244094488188977,
                    "duration": 0.09395404166667731
                },
                {
                    "name": "F#4",
                    "midi": 66,
                    "time": 198.03878,
                    "velocity": 0.7244094488188977,
                    "duration": 0.09395404166667731
                },
                {
                    "name": "G4",
                    "midi": 67,
                    "time": 198.136819,
                    "velocity": 0.7244094488188977,
                    "duration": 0.09395404166667731
                },
                {
                    "name": "F4",
                    "midi": 65,
                    "time": 198.234858,
                    "velocity": 0.7244094488188977,
                    "duration": 0.09395404166667731
                },
                {
                    "name": "E4",
                    "midi": 64,
                    "time": 198.332897,
                    "velocity": 0.7244094488188977,
                    "duration": 0.09395404166667731
                },
                {
                    "name": "D4",
                    "midi": 62,
                    "time": 198.430936,
                    "velocity": 0.7244094488188977,
                    "duration": 0.09395404166667731
                },
                {
                    "name": "C4",
                    "midi": 60,
                    "time": 198.528975,
                    "velocity": 0.7244094488188977,
                    "duration": 0.09395404166667731
                },
                {
                    "name": "B3",
                    "midi": 59,
                    "time": 198.627014,
                    "velocity": 0.7244094488188977,
                    "duration": 0.09395404166667731
                },
                {
                    "name": "A3",
                    "midi": 57,
                    "time": 198.725053,
                    "velocity": 0.7244094488188977,
                    "duration": 0.09395404166667731
                },
                {
                    "name": "G3",
                    "midi": 55,
                    "time": 198.823092,
                    "velocity": 0.7244094488188977,
                    "duration": 0.09395404166667731
                },
                {
                    "name": "F3",
                    "midi": 53,
                    "time": 198.921131,
                    "velocity": 0.7244094488188977,
                    "duration": 0.09395404166667731
                },
                {
                    "name": "E3",
                    "midi": 52,
                    "time": 199.01917,
                    "velocity": 0.7244094488188977,
                    "duration": 0.09395404166667731
                },
                {
                    "name": "D3",
                    "midi": 50,
                    "time": 199.117209,
                    "velocity": 0.7244094488188977,
                    "duration": 0.09395404166667731
                },
                {
                    "name": "C3",
                    "midi": 48,
                    "time": 199.215248,
                    "velocity": 0.47244094488188976,
                    "duration": 0.39215599999999995
                },
                {
                    "name": "A2",
                    "midi": 45,
                    "time": 199.607404,
                    "velocity": 0.47244094488188976,
                    "duration": 0.39215599999999995
                },
                {
                    "name": "D3",
                    "midi": 50,
                    "time": 199.99956,
                    "velocity": 0.47244094488188976,
                    "duration": 0.39215599999999995
                },
                {
                    "name": "G2",
                    "midi": 43,
                    "time": 200.391716,
                    "velocity": 0.47244094488188976,
                    "duration": 0.39215599999999995
                },
                {
                    "name": "C3",
                    "midi": 48,
                    "time": 200.783872,
                    "velocity": 0.47244094488188976,
                    "duration": 0.39215599999999995
                },
                {
                    "name": "F2",
                    "midi": 41,
                    "time": 201.176028,
                    "velocity": 0.47244094488188976,
                    "duration": 0.39215599999999995
                },
                {
                    "name": "B2",
                    "midi": 47,
                    "time": 201.568184,
                    "velocity": 0.47244094488188976,
                    "duration": 0.39215599999999995
                },
                {
                    "name": "E2",
                    "midi": 40,
                    "time": 201.96034,
                    "velocity": 0.47244094488188976,
                    "duration": 0.39215599999999995
                },
                {
                    "name": "A2",
                    "midi": 45,
                    "time": 202.352496,
                    "velocity": 0.47244094488188976,
                    "duration": 0.39215599999999995
                },
                {
                    "name": "D2",
                    "midi": 38,
                    "time": 202.744652,
                    "velocity": 0.47244094488188976,
                    "duration": 0.39215599999999995
                },
                {
                    "name": "G2",
                    "midi": 43,
                    "time": 203.136808,
                    "velocity": 0.47244094488188976,
                    "duration": 0.39215599999999995
                },
                {
                    "name": "F3",
                    "midi": 53,
                    "time": 203.528964,
                    "velocity": 0.47244094488188976,
                    "duration": 0.39215599999999995
                },
                {
                    "name": "E3",
                    "midi": 52,
                    "time": 203.92112,
                    "velocity": 0.47244094488188976,
                    "duration": 0.39215599999999995
                },
                {
                    "name": "F3",
                    "midi": 53,
                    "time": 204.313276,
                    "velocity": 0.47244094488188976,
                    "duration": 0.39215599999999995
                },
                {
                    "name": "G3",
                    "midi": 55,
                    "time": 204.705432,
                    "velocity": 0.47244094488188976,
                    "duration": 0.39215599999999995
                },
                {
                    "name": "G2",
                    "midi": 43,
                    "time": 205.097588,
                    "velocity": 0.47244094488188976,
                    "duration": 0.39215599999999995
                },
                {
                    "name": "C3",
                    "midi": 48,
                    "time": 205.489744,
                    "velocity": 0.47244094488188976,
                    "duration": 0.39215599999999995
                },
                {
                    "name": "A2",
                    "midi": 45,
                    "time": 205.8819,
                    "velocity": 0.47244094488188976,
                    "duration": 0.39215599999999995
                },
                {
                    "name": "D3",
                    "midi": 50,
                    "time": 206.274056,
                    "velocity": 0.47244094488188976,
                    "duration": 0.39215599999999995
                },
                {
                    "name": "G2",
                    "midi": 43,
                    "time": 206.666212,
                    "velocity": 0.47244094488188976,
                    "duration": 0.39215599999999995
                },
                {
                    "name": "C3",
                    "midi": 48,
                    "time": 207.058368,
                    "velocity": 0.47244094488188976,
                    "duration": 0.39215599999999995
                },
                {
                    "name": "F2",
                    "midi": 41,
                    "time": 207.450524,
                    "velocity": 0.47244094488188976,
                    "duration": 0.39215599999999995
                },
                {
                    "name": "B2",
                    "midi": 47,
                    "time": 207.84268,
                    "velocity": 0.47244094488188976,
                    "duration": 0.39215599999999995
                },
                {
                    "name": "E2",
                    "midi": 40,
                    "time": 208.234836,
                    "velocity": 0.47244094488188976,
                    "duration": 0.39215599999999995
                },
                {
                    "name": "A2",
                    "midi": 45,
                    "time": 208.626992,
                    "velocity": 0.47244094488188976,
                    "duration": 0.39215599999999995
                },
                {
                    "name": "D2",
                    "midi": 38,
                    "time": 209.019148,
                    "velocity": 0.47244094488188976,
                    "duration": 0.39215599999999995
                },
                {
                    "name": "G2",
                    "midi": 43,
                    "time": 209.411304,
                    "velocity": 0.47244094488188976,
                    "duration": 0.39215599999999995
                },
                {
                    "name": "F3",
                    "midi": 53,
                    "time": 209.80346,
                    "velocity": 0.47244094488188976,
                    "duration": 0.39215599999999995
                },
                {
                    "name": "E3",
                    "midi": 52,
                    "time": 210.195616,
                    "velocity": 0.47244094488188976,
                    "duration": 0.39215599999999995
                },
                {
                    "name": "F3",
                    "midi": 53,
                    "time": 210.587772,
                    "velocity": 0.47244094488188976,
                    "duration": 0.39215599999999995
                },
                {
                    "name": "G3",
                    "midi": 55,
                    "time": 210.979928,
                    "velocity": 0.47244094488188976,
                    "duration": 0.39215599999999995
                },
                {
                    "name": "G2",
                    "midi": 43,
                    "time": 211.372084,
                    "velocity": 0.47244094488188976,
                    "duration": 0.39215599999999995
                },
                {
                    "name": "C3",
                    "midi": 48,
                    "time": 211.76424,
                    "velocity": 0.47244094488188976,
                    "duration": 0.7843119999999999
                },
                {
                    "name": "G2",
                    "midi": 43,
                    "time": 212.548552,
                    "velocity": 0.47244094488188976,
                    "duration": 0.7843119999999999
                },
                {
                    "name": "C3",
                    "midi": 48,
                    "time": 213.332864,
                    "velocity": 0.47244094488188976,
                    "duration": 0.7843119999999999
                },
                {
                    "name": "G3",
                    "midi": 55,
                    "time": 214.117176,
                    "velocity": 0.47244094488188976,
                    "duration": 0.7843119999999999
                },
                {
                    "name": "C3",
                    "midi": 48,
                    "time": 214.901488,
                    "velocity": 0.47244094488188976,
                    "duration": 0.7843119999999999
                },
                {
                    "name": "G2",
                    "midi": 43,
                    "time": 215.6858,
                    "velocity": 0.47244094488188976,
                    "duration": 0.7843119999999999
                },
                {
                    "name": "C3",
                    "midi": 48,
                    "time": 216.470112,
                    "velocity": 0.47244094488188976,
                    "duration": 0.7843119999999999
                },
                {
                    "name": "G2",
                    "midi": 43,
                    "time": 217.254424,
                    "velocity": 0.47244094488188976,
                    "duration": 0.6862729999999999
                },
                {
                    "name": "C3",
                    "midi": 48,
                    "time": 218.038736,
                    "velocity": 0.5984251968503937,
                    "duration": 0.39215599999999995
                },
                {
                    "name": "G2",
                    "midi": 43,
                    "time": 218.430892,
                    "velocity": 0.6614173228346457,
                    "duration": 0.39215599999999995
                },
                {
                    "name": "C3",
                    "midi": 48,
                    "time": 218.823048,
                    "velocity": 0.7244094488188977,
                    "duration": 0.39215599999999995
                },
                {
                    "name": "G3",
                    "midi": 55,
                    "time": 219.215204,
                    "velocity": 0.7244094488188977,
                    "duration": 0.39215599999999995
                },
                {
                    "name": "C4",
                    "midi": 60,
                    "time": 219.60736,
                    "velocity": 0.7244094488188977,
                    "duration": 0.39215599999999995
                },
                {
                    "name": "G3",
                    "midi": 55,
                    "time": 219.999516,
                    "velocity": 0.7244094488188977,
                    "duration": 0.39215599999999995
                },
                {
                    "name": "C4",
                    "midi": 60,
                    "time": 220.391672,
                    "velocity": 0.7244094488188977,
                    "duration": 0.39215599999999995
                },
                {
                    "name": "G3",
                    "midi": 55,
                    "time": 220.783828,
                    "velocity": 0.7244094488188977,
                    "duration": 0.39215599999999995
                },
                {
                    "name": "C3",
                    "midi": 48,
                    "time": 221.175984,
                    "velocity": 0.7244094488188977,
                    "duration": 0.1919930416666773
                },
                {
                    "name": "C3",
                    "midi": 48,
                    "time": 222.744608,
                    "velocity": 0.7244094488188977,
                    "duration": 0.1919930416666773
                },
                {
                    "name": "C3",
                    "midi": 48,
                    "time": 224.313232,
                    "velocity": 0.7244094488188977,
                    "duration": 0.1919930416666773
                },
                {
                    "name": "C4",
                    "midi": 60,
                    "time": 225.881856,
                    "velocity": 0.7244094488188977,
                    "duration": 0.1919930416666773
                },
                {
                    "name": "B3",
                    "midi": 59,
                    "time": 226.077934,
                    "velocity": 0.7244094488188977,
                    "duration": 0.1919930416666773
                },
                {
                    "name": "A3",
                    "midi": 57,
                    "time": 226.274012,
                    "velocity": 0.7244094488188977,
                    "duration": 0.1919930416666773
                },
                {
                    "name": "G#3",
                    "midi": 56,
                    "time": 226.47009,
                    "velocity": 0.7244094488188977,
                    "duration": 0.1919930416666773
                },
                {
                    "name": "G3",
                    "midi": 55,
                    "time": 226.666168,
                    "velocity": 0.7244094488188977,
                    "duration": 0.1919930416666773
                },
                {
                    "name": "F3",
                    "midi": 53,
                    "time": 226.862246,
                    "velocity": 0.7244094488188977,
                    "duration": 0.1919930416666773
                },
                {
                    "name": "E3",
                    "midi": 52,
                    "time": 227.058324,
                    "velocity": 0.7244094488188977,
                    "duration": 0.1919930416666773
                },
                {
                    "name": "D3",
                    "midi": 50,
                    "time": 227.254402,
                    "velocity": 0.7244094488188977,
                    "duration": 0.1919930416666773
                },
                {
                    "name": "C2",
                    "midi": 36,
                    "time": 227.45048,
                    "velocity": 0.7244094488188977,
                    "duration": 0.1919930416666773
                },
                {
                    "name": "C3",
                    "midi": 48,
                    "time": 227.45048,
                    "velocity": 0.7244094488188977,
                    "duration": 0.1919930416666773
                }
            ],
            "controlChanges": {
                "7": [
                    {
                        "number": 7,
                        "time": 0,
                        "value": 1
                    }
                ],
                "10": [
                    {
                        "number": 10,
                        "time": 0,
                        "value": 0.44881889763779526
                    }
                ],
                "91": [
                    {
                        "number": 91,
                        "time": 0,
                        "value": 0.5590551181102362
                    }
                ]
            },
            "id": 3,
            "name": "arr : Pollen (2001)",
            "instrumentNumber": 6,
            "instrument": "harpsichord",
            "instrumentFamily": "piano",
            "channelNumber": 1,
            "isPercussion": false
        },
        {
            "startTime": 5.490184,
            "duration": 227.64247304166665,
            "length": 1878,
            "notes": [
                {
                    "name": "C5",
                    "midi": 72,
                    "time": 5.490184,
                    "velocity": 0.7244094488188977,
                    "duration": 0.06535933333333332
                },
                {
                    "name": "D5",
                    "midi": 74,
                    "time": 5.588223,
                    "velocity": 0.7244094488188977,
                    "duration": 0.06535933333333332
                },
                {
                    "name": "C5",
                    "midi": 72,
                    "time": 5.686262,
                    "velocity": 0.7244094488188977,
                    "duration": 0.06535933333333332
                },
                {
                    "name": "B4",
                    "midi": 71,
                    "time": 5.784301,
                    "velocity": 0.7244094488188977,
                    "duration": 0.06535933333333332
                },
                {
                    "name": "C5",
                    "midi": 72,
                    "time": 5.88234,
                    "velocity": 0.7244094488188977,
                    "duration": 0.06535933333333332
                },
                {
                    "name": "D5",
                    "midi": 74,
                    "time": 5.980379,
                    "velocity": 0.7244094488188977,
                    "duration": 0.06535933333333332
                },
                {
                    "name": "E5",
                    "midi": 76,
                    "time": 6.078418,
                    "velocity": 0.7244094488188977,
                    "duration": 0.06535933333333332
                },
                {
                    "name": "C5",
                    "midi": 72,
                    "time": 6.176457,
                    "velocity": 0.7244094488188977,
                    "duration": 0.06535933333333332
                },
                {
                    "name": "D5",
                    "midi": 74,
                    "time": 6.274496,
                    "velocity": 0.7244094488188977,
                    "duration": 0.06535933333333332
                },
                {
                    "name": "C5",
                    "midi": 72,
                    "time": 6.372535,
                    "velocity": 0.7244094488188977,
                    "duration": 0.06535933333333332
                },
                {
                    "name": "B4",
                    "midi": 71,
                    "time": 6.470574,
                    "velocity": 0.7244094488188977,
                    "duration": 0.06535933333333332
                },
                {
                    "name": "A4",
                    "midi": 69,
                    "time": 6.568613,
                    "velocity": 0.7244094488188977,
                    "duration": 0.06535933333333332
                },
                {
                    "name": "G4",
                    "midi": 67,
                    "time": 6.666652,
                    "velocity": 0.7244094488188977,
                    "duration": 0.06535933333333332
                },
                {
                    "name": "A4",
                    "midi": 69,
                    "time": 6.764691,
                    "velocity": 0.7244094488188977,
                    "duration": 0.06535933333333332
                },
                {
                    "name": "B4",
                    "midi": 71,
                    "time": 6.86273,
                    "velocity": 0.7244094488188977,
                    "duration": 0.06535933333333332
                },
                {
                    "name": "C5",
                    "midi": 72,
                    "time": 6.960769,
                    "velocity": 0.7244094488188977,
                    "duration": 0.06535933333333332
                },
                {
                    "name": "D5",
                    "midi": 74,
                    "time": 7.058808,
                    "velocity": 0.7244094488188977,
                    "duration": 0.06535933333333332
                },
                {
                    "name": "E5",
                    "midi": 76,
                    "time": 7.156847,
                    "velocity": 0.7244094488188977,
                    "duration": 0.06535933333333332
                },
                {
                    "name": "F5",
                    "midi": 77,
                    "time": 7.254886,
                    "velocity": 0.7244094488188977,
                    "duration": 0.06535933333333332
                },
                {
                    "name": "E5",
                    "midi": 76,
                    "time": 7.352925,
                    "velocity": 0.7244094488188977,
                    "duration": 0.06535933333333332
                },
                {
                    "name": "G5",
                    "midi": 79,
                    "time": 7.450964,
                    "velocity": 0.7244094488188977,
                    "duration": 0.06535933333333332
                },
                {
                    "name": "F5",
                    "midi": 77,
                    "time": 7.549003,
                    "velocity": 0.7244094488188977,
                    "duration": 0.06535933333333332
                },
                {
                    "name": "E5",
                    "midi": 76,
                    "time": 7.647042,
                    "velocity": 0.7244094488188977,
                    "duration": 0.06535933333333332
                },
                {
                    "name": "D5",
                    "midi": 74,
                    "time": 7.745081,
                    "velocity": 0.7244094488188977,
                    "duration": 0.06535933333333332
                },
                {
                    "name": "E5",
                    "midi": 76,
                    "time": 7.84312,
                    "velocity": 0.7244094488188977,
                    "duration": 0.06535933333333332
                },
                {
                    "name": "F5",
                    "midi": 77,
                    "time": 7.941159,
                    "velocity": 0.7244094488188977,
                    "duration": 0.06535933333333244
                },
                {
                    "name": "E5",
                    "midi": 76,
                    "time": 8.039197999999999,
                    "velocity": 0.7244094488188977,
                    "duration": 0.06535933333333332
                },
                {
                    "name": "D5",
                    "midi": 74,
                    "time": 8.137236999999999,
                    "velocity": 0.7244094488188977,
                    "duration": 0.06535933333333332
                },
                {
                    "name": "C5",
                    "midi": 72,
                    "time": 8.235275999999999,
                    "velocity": 0.7244094488188977,
                    "duration": 0.06535933333333332
                },
                {
                    "name": "D5",
                    "midi": 74,
                    "time": 8.333314999999999,
                    "velocity": 0.7244094488188977,
                    "duration": 0.06535933333333332
                },
                {
                    "name": "E5",
                    "midi": 76,
                    "time": 8.431353999999999,
                    "velocity": 0.7244094488188977,
                    "duration": 0.06535933333333332
                },
                {
                    "name": "F5",
                    "midi": 77,
                    "time": 8.529392999999999,
                    "velocity": 0.7244094488188977,
                    "duration": 0.06535933333333332
                },
                {
                    "name": "G5",
                    "midi": 79,
                    "time": 8.627431999999999,
                    "velocity": 0.7244094488188977,
                    "duration": 0.06535933333333332
                },
                {
                    "name": "F5",
                    "midi": 77,
                    "time": 8.725470999999999,
                    "velocity": 0.7244094488188977,
                    "duration": 0.06535933333333332
                },
                {
                    "name": "E5",
                    "midi": 76,
                    "time": 8.823509999999999,
                    "velocity": 0.7244094488188977,
                    "duration": 0.06535933333333332
                },
                {
                    "name": "D5",
                    "midi": 74,
                    "time": 8.921548999999999,
                    "velocity": 0.7244094488188977,
                    "duration": 0.06535933333333332
                },
                {
                    "name": "C#5",
                    "midi": 73,
                    "time": 9.019587999999999,
                    "velocity": 0.7244094488188977,
                    "duration": 0.06535933333333332
                },
                {
                    "name": "E5",
                    "midi": 76,
                    "time": 9.117626999999999,
                    "velocity": 0.7244094488188977,
                    "duration": 0.06535933333333332
                },
                {
                    "name": "A5",
                    "midi": 81,
                    "time": 9.215665999999999,
                    "velocity": 0.7244094488188977,
                    "duration": 0.06535933333333332
                },
                {
                    "name": "G5",
                    "midi": 79,
                    "time": 9.313704999999999,
                    "velocity": 0.7244094488188977,
                    "duration": 0.06535933333333332
                },
                {
                    "name": "F5",
                    "midi": 77,
                    "time": 9.411743999999999,
                    "velocity": 0.7244094488188977,
                    "duration": 0.06535933333333332
                },
                {
                    "name": "E5",
                    "midi": 76,
                    "time": 9.509782999999999,
                    "velocity": 0.7244094488188977,
                    "duration": 0.06535933333333332
                },
                {
                    "name": "D5",
                    "midi": 74,
                    "time": 9.607821999999999,
                    "velocity": 0.7244094488188977,
                    "duration": 0.06535933333333332
                },
                {
                    "name": "C5",
                    "midi": 72,
                    "time": 9.705860999999999,
                    "velocity": 0.7244094488188977,
                    "duration": 0.06535933333333332
                },
                {
                    "name": "B4",
                    "midi": 71,
                    "time": 9.803899999999999,
                    "velocity": 0.7244094488188977,
                    "duration": 0.06535933333333332
                },
                {
                    "name": "D5",
                    "midi": 74,
                    "time": 9.901938999999999,
                    "velocity": 0.7244094488188977,
                    "duration": 0.06535933333333332
                },
                {
                    "name": "G5",
                    "midi": 79,
                    "time": 9.999977999999999,
                    "velocity": 0.7244094488188977,
                    "duration": 0.06535933333333332
                },
                {
                    "name": "F5",
                    "midi": 77,
                    "time": 10.098016999999999,
                    "velocity": 0.7244094488188977,
                    "duration": 0.06535933333333332
                },
                {
                    "name": "E5",
                    "midi": 76,
                    "time": 10.196055999999999,
                    "velocity": 0.7244094488188977,
                    "duration": 0.06535933333333332
                },
                {
                    "name": "D5",
                    "midi": 74,
                    "time": 10.294094999999999,
                    "velocity": 0.7244094488188977,
                    "duration": 0.06535933333333332
                },
                {
                    "name": "C5",
                    "midi": 72,
                    "time": 10.392133999999999,
                    "velocity": 0.7244094488188977,
                    "duration": 0.06535933333333332
                },
                {
                    "name": "B4",
                    "midi": 71,
                    "time": 10.490172999999999,
                    "velocity": 0.7244094488188977,
                    "duration": 0.06535933333333332
                },
                {
                    "name": "A4",
                    "midi": 69,
                    "time": 10.588211999999999,
                    "velocity": 0.7244094488188977,
                    "duration": 0.06535933333333332
                },
                {
                    "name": "D5",
                    "midi": 74,
                    "time": 10.686250999999999,
                    "velocity": 0.7244094488188977,
                    "duration": 0.06535933333333332
                },
                {
                    "name": "E5",
                    "midi": 76,
                    "time": 10.784289999999999,
                    "velocity": 0.7244094488188977,
                    "duration": 0.06535933333333332
                },
                {
                    "name": "D5",
                    "midi": 74,
                    "time": 10.882328999999999,
                    "velocity": 0.7244094488188977,
                    "duration": 0.06535933333333332
                },
                {
                    "name": "C5",
                    "midi": 72,
                    "time": 10.980367999999999,
                    "velocity": 0.7244094488188977,
                    "duration": 0.06535933333333332
                },
                {
                    "name": "B4",
                    "midi": 71,
                    "time": 11.078406999999999,
                    "velocity": 0.7244094488188977,
                    "duration": 0.06535933333333332
                },
                {
                    "name": "A4",
                    "midi": 69,
                    "time": 11.176445999999999,
                    "velocity": 0.7244094488188977,
                    "duration": 0.06535933333333332
                },
                {
                    "name": "G4",
                    "midi": 67,
                    "time": 11.274484999999999,
                    "velocity": 0.7244094488188977,
                    "duration": 0.06535933333333332
                },
                {
                    "name": "F#4",
                    "midi": 66,
                    "time": 11.372523999999999,
                    "velocity": 0.7244094488188977,
                    "duration": 0.06535933333333332
                },
                {
                    "name": "G4",
                    "midi": 67,
                    "time": 11.470562999999999,
                    "velocity": 0.7244094488188977,
                    "duration": 0.06535933333333332
                },
                {
                    "name": "A4",
                    "midi": 69,
                    "time": 11.568601999999998,
                    "velocity": 0.7244094488188977,
                    "duration": 0.06535933333333332
                },
                {
                    "name": "B4",
                    "midi": 71,
                    "time": 11.666640999999998,
                    "velocity": 0.7244094488188977,
                    "duration": 0.06535933333333332
                },
                {
                    "name": "C5",
                    "midi": 72,
                    "time": 11.764679999999998,
                    "velocity": 0.7244094488188977,
                    "duration": 0.06535933333333332
                },
                {
                    "name": "D5",
                    "midi": 74,
                    "time": 11.862718999999998,
                    "velocity": 0.7244094488188977,
                    "duration": 0.06535933333333332
                },
                {
                    "name": "C5",
                    "midi": 72,
                    "time": 11.960757999999998,
                    "velocity": 0.7244094488188977,
                    "duration": 0.06535933333333332
                },
                {
                    "name": "B4",
                    "midi": 71,
                    "time": 12.058796999999998,
                    "velocity": 0.7244094488188977,
                    "duration": 0.06535933333333332
                },
                {
                    "name": "C5",
                    "midi": 72,
                    "time": 12.156835999999998,
                    "velocity": 0.7244094488188977,
                    "duration": 0.06535933333333332
                },
                {
                    "name": "D5",
                    "midi": 74,
                    "time": 12.254874999999998,
                    "velocity": 0.7244094488188977,
                    "duration": 0.06535933333333332
                },
                {
                    "name": "E5",
                    "midi": 76,
                    "time": 12.352913999999998,
                    "velocity": 0.7244094488188977,
                    "duration": 0.06535933333333332
                },
                {
                    "name": "C5",
                    "midi": 72,
                    "time": 12.450952999999998,
                    "velocity": 0.7244094488188977,
                    "duration": 0.06535933333333332
                },
                {
                    "name": "D5",
                    "midi": 74,
                    "time": 12.548991999999998,
                    "velocity": 0.7244094488188977,
                    "duration": 0.06535933333333332
                },
                {
                    "name": "C5",
                    "midi": 72,
                    "time": 12.647030999999998,
                    "velocity": 0.7244094488188977,
                    "duration": 0.06535933333333332
                },
                {
                    "name": "B4",
                    "midi": 71,
                    "time": 12.745069999999998,
                    "velocity": 0.7244094488188977,
                    "duration": 0.06535933333333332
                },
                {
                    "name": "A4",
                    "midi": 69,
                    "time": 12.843108999999998,
                    "velocity": 0.7244094488188977,
                    "duration": 0.06535933333333332
                },
                {
                    "name": "G4",
                    "midi": 67,
                    "time": 12.941147999999998,
                    "velocity": 0.7244094488188977,
                    "duration": 0.06535933333333332
                },
                {
                    "name": "A4",
                    "midi": 69,
                    "time": 13.039186999999998,
                    "velocity": 0.7244094488188977,
                    "duration": 0.06535933333333332
                },
                {
                    "name": "B4",
                    "midi": 71,
                    "time": 13.137225999999998,
                    "velocity": 0.7244094488188977,
                    "duration": 0.06535933333333332
                },
                {
                    "name": "C5",
                    "midi": 72,
                    "time": 13.235264999999998,
                    "velocity": 0.7244094488188977,
                    "duration": 0.06535933333333332
                },
                {
                    "name": "D5",
                    "midi": 74,
                    "time": 13.333303999999998,
                    "velocity": 0.7244094488188977,
                    "duration": 0.06535933333333332
                },
                {
                    "name": "E5",
                    "midi": 76,
                    "time": 13.431342999999998,
                    "velocity": 0.7244094488188977,
                    "duration": 0.06535933333333332
                },
                {
                    "name": "F5",
                    "midi": 77,
                    "time": 13.529381999999998,
                    "velocity": 0.7244094488188977,
                    "duration": 0.06535933333333332
                },
                {
                    "name": "E5",
                    "midi": 76,
                    "time": 13.627420999999998,
                    "velocity": 0.7244094488188977,
                    "duration": 0.06535933333333332
                },
                {
                    "name": "G5",
                    "midi": 79,
                    "time": 13.725459999999998,
                    "velocity": 0.7244094488188977,
                    "duration": 0.06535933333333332
                },
                {
                    "name": "F5",
                    "midi": 77,
                    "time": 13.823498999999998,
                    "velocity": 0.7244094488188977,
                    "duration": 0.06535933333333332
                },
                {
                    "name": "E5",
                    "midi": 76,
                    "time": 13.921537999999998,
                    "velocity": 0.7244094488188977,
                    "duration": 0.06535933333333332
                },
                {
                    "name": "D5",
                    "midi": 74,
                    "time": 14.019576999999998,
                    "velocity": 0.7244094488188977,
                    "duration": 0.06535933333333332
                },
                {
                    "name": "E5",
                    "midi": 76,
                    "time": 14.117615999999998,
                    "velocity": 0.7244094488188977,
                    "duration": 0.06535933333333332
                },
                {
                    "name": "F5",
                    "midi": 77,
                    "time": 14.215654999999998,
                    "velocity": 0.7244094488188977,
                    "duration": 0.06535933333333332
                },
                {
                    "name": "E5",
                    "midi": 76,
                    "time": 14.313693999999998,
                    "velocity": 0.7244094488188977,
                    "duration": 0.06535933333333332
                },
                {
                    "name": "D5",
                    "midi": 74,
                    "time": 14.411732999999998,
                    "velocity": 0.7244094488188977,
                    "duration": 0.06535933333333332
                },
                {
                    "name": "C5",
                    "midi": 72,
                    "time": 14.509771999999998,
                    "velocity": 0.7244094488188977,
                    "duration": 0.06535933333333332
                },
                {
                    "name": "D5",
                    "midi": 74,
                    "time": 14.607810999999998,
                    "velocity": 0.7244094488188977,
                    "duration": 0.06535933333333332
                },
                {
                    "name": "E5",
                    "midi": 76,
                    "time": 14.705849999999998,
                    "velocity": 0.7244094488188977,
                    "duration": 0.06535933333333332
                },
                {
                    "name": "F5",
                    "midi": 77,
                    "time": 14.803888999999998,
                    "velocity": 0.7244094488188977,
                    "duration": 0.06535933333333332
                },
                {
                    "name": "G5",
                    "midi": 79,
                    "time": 14.901927999999998,
                    "velocity": 0.7244094488188977,
                    "duration": 0.06535933333333332
                },
                {
                    "name": "F5",
                    "midi": 77,
                    "time": 14.999966999999998,
                    "velocity": 0.7244094488188977,
                    "duration": 0.06535933333333332
                },
                {
                    "name": "E5",
                    "midi": 76,
                    "time": 15.098005999999998,
                    "velocity": 0.7244094488188977,
                    "duration": 0.06535933333333332
                },
                {
                    "name": "D5",
                    "midi": 74,
                    "time": 15.196044999999998,
                    "velocity": 0.7244094488188977,
                    "duration": 0.06535933333333332
                },
                {
                    "name": "C#5",
                    "midi": 73,
                    "time": 15.294083999999998,
                    "velocity": 0.7244094488188977,
                    "duration": 0.06535933333333332
                },
                {
                    "name": "E5",
                    "midi": 76,
                    "time": 15.392122999999998,
                    "velocity": 0.7244094488188977,
                    "duration": 0.06535933333333332
                },
                {
                    "name": "A5",
                    "midi": 81,
                    "time": 15.490161999999998,
                    "velocity": 0.7244094488188977,
                    "duration": 0.06535933333333332
                },
                {
                    "name": "G5",
                    "midi": 79,
                    "time": 15.588200999999998,
                    "velocity": 0.7244094488188977,
                    "duration": 0.06535933333333332
                },
                {
                    "name": "F5",
                    "midi": 77,
                    "time": 15.686239999999998,
                    "velocity": 0.7244094488188977,
                    "duration": 0.06535933333333332
                },
                {
                    "name": "E5",
                    "midi": 76,
                    "time": 15.784278999999998,
                    "velocity": 0.7244094488188977,
                    "duration": 0.06535933333333332
                },
                {
                    "name": "D5",
                    "midi": 74,
                    "time": 15.882317999999998,
                    "velocity": 0.7244094488188977,
                    "duration": 0.06535933333333332
                },
                {
                    "name": "C5",
                    "midi": 72,
                    "time": 15.980356999999998,
                    "velocity": 0.7244094488188977,
                    "duration": 0.06535933333333332
                },
                {
                    "name": "B4",
                    "midi": 71,
                    "time": 16.078395999999998,
                    "velocity": 0.7244094488188977,
                    "duration": 0.06535933333333332
                },
                {
                    "name": "D5",
                    "midi": 74,
                    "time": 16.176434999999998,
                    "velocity": 0.7244094488188977,
                    "duration": 0.06535933333333332
                },
                {
                    "name": "G5",
                    "midi": 79,
                    "time": 16.274473999999998,
                    "velocity": 0.7244094488188977,
                    "duration": 0.06535933333333332
                },
                {
                    "name": "F5",
                    "midi": 77,
                    "time": 16.372512999999998,
                    "velocity": 0.7244094488188977,
                    "duration": 0.06535933333333332
                },
                {
                    "name": "E5",
                    "midi": 76,
                    "time": 16.470551999999998,
                    "velocity": 0.7244094488188977,
                    "duration": 0.06535933333333332
                },
                {
                    "name": "D5",
                    "midi": 74,
                    "time": 16.568590999999998,
                    "velocity": 0.7244094488188977,
                    "duration": 0.06535933333333332
                },
                {
                    "name": "C5",
                    "midi": 72,
                    "time": 16.666629999999998,
                    "velocity": 0.7244094488188977,
                    "duration": 0.06535933333333332
                },
                {
                    "name": "B4",
                    "midi": 71,
                    "time": 16.764668999999998,
                    "velocity": 0.7244094488188977,
                    "duration": 0.06535933333333332
                },
                {
                    "name": "A4",
                    "midi": 69,
                    "time": 16.862707999999998,
                    "velocity": 0.7244094488188977,
                    "duration": 0.06535933333333332
                },
                {
                    "name": "C5",
                    "midi": 72,
                    "time": 16.960746999999998,
                    "velocity": 0.7244094488188977,
                    "duration": 0.06535933333333332
                },
                {
                    "name": "F5",
                    "midi": 77,
                    "time": 17.058785999999998,
                    "velocity": 0.7244094488188977,
                    "duration": 0.06535933333333332
                },
                {
                    "name": "E5",
                    "midi": 76,
                    "time": 17.156824999999998,
                    "velocity": 0.7244094488188977,
                    "duration": 0.06535933333333332
                },
                {
                    "name": "D5",
                    "midi": 74,
                    "time": 17.254863999999998,
                    "velocity": 0.7244094488188977,
                    "duration": 0.06535933333333332
                },
                {
                    "name": "C5",
                    "midi": 72,
                    "time": 17.352902999999998,
                    "velocity": 0.7244094488188977,
                    "duration": 0.06535933333333332
                },
                {
                    "name": "B4",
                    "midi": 71,
                    "time": 17.450941999999998,
                    "velocity": 0.7244094488188977,
                    "duration": 0.06535933333333332
                },
                {
                    "name": "A4",
                    "midi": 69,
                    "time": 17.548980999999998,
                    "velocity": 0.7244094488188977,
                    "duration": 0.06535933333333332
                },
                {
                    "name": "G#4",
                    "midi": 68,
                    "time": 17.647019999999998,
                    "velocity": 0.7244094488188977,
                    "duration": 0.06535933333333332
                },
                {
                    "name": "B4",
                    "midi": 71,
                    "time": 17.745058999999998,
                    "velocity": 0.7244094488188977,
                    "duration": 0.06535933333333332
                },
                {
                    "name": "E5",
                    "midi": 76,
                    "time": 17.843097999999998,
                    "velocity": 0.7244094488188977,
                    "duration": 0.06535933333333332
                },
                {
                    "name": "D5",
                    "midi": 74,
                    "time": 17.941136999999998,
                    "velocity": 0.7244094488188977,
                    "duration": 0.06535933333333332
                },
                {
                    "name": "C5",
                    "midi": 72,
                    "time": 18.039175999999998,
                    "velocity": 0.7244094488188977,
                    "duration": 0.06535933333333332
                },
                {
                    "name": "B4",
                    "midi": 71,
                    "time": 18.137214999999998,
                    "velocity": 0.7244094488188977,
                    "duration": 0.06535933333333332
                },
                {
                    "name": "A4",
                    "midi": 69,
                    "time": 18.235253999999998,
                    "velocity": 0.7244094488188977,
                    "duration": 0.06535933333333332
                },
                {
                    "name": "G4",
                    "midi": 67,
                    "time": 18.333292999999998,
                    "velocity": 0.7244094488188977,
                    "duration": 0.06535933333333332
                },
                {
                    "name": "F#4",
                    "midi": 66,
                    "time": 18.431331999999998,
                    "velocity": 0.7244094488188977,
                    "duration": 0.06535933333333332
                },
                {
                    "name": "A4",
                    "midi": 69,
                    "time": 18.529370999999998,
                    "velocity": 0.7244094488188977,
                    "duration": 0.06535933333333332
                },
                {
                    "name": "D5",
                    "midi": 74,
                    "time": 18.627409999999998,
                    "velocity": 0.7244094488188977,
                    "duration": 0.06535933333333332
                },
                {
                    "name": "C5",
                    "midi": 72,
                    "time": 18.725448999999998,
                    "velocity": 0.7244094488188977,
                    "duration": 0.06535933333333332
                },
                {
                    "name": "B4",
                    "midi": 71,
                    "time": 18.823487999999998,
                    "velocity": 0.7244094488188977,
                    "duration": 0.06535933333333332
                },
                {
                    "name": "A4",
                    "midi": 69,
                    "time": 18.921526999999998,
                    "velocity": 0.7244094488188977,
                    "duration": 0.06535933333333332
                },
                {
                    "name": "G4",
                    "midi": 67,
                    "time": 19.019565999999998,
                    "velocity": 0.7244094488188977,
                    "duration": 0.06535933333333332
                },
                {
                    "name": "A4",
                    "midi": 69,
                    "time": 19.117604999999998,
                    "velocity": 0.7244094488188977,
                    "duration": 0.06535933333333332
                },
                {
                    "name": "B4",
                    "midi": 71,
                    "time": 19.215643999999998,
                    "velocity": 0.7244094488188977,
                    "duration": 0.06535933333333332
                },
                {
                    "name": "C5",
                    "midi": 72,
                    "time": 19.313682999999997,
                    "velocity": 0.7244094488188977,
                    "duration": 0.06535933333333332
                },
                {
                    "name": "D5",
                    "midi": 74,
                    "time": 19.411721999999997,
                    "velocity": 0.7244094488188977,
                    "duration": 0.06535933333333332
                },
                {
                    "name": "C5",
                    "midi": 72,
                    "time": 19.509760999999997,
                    "velocity": 0.7244094488188977,
                    "duration": 0.06535933333333332
                },
                {
                    "name": "B4",
                    "midi": 71,
                    "time": 19.607799999999997,
                    "velocity": 0.7244094488188977,
                    "duration": 0.06535933333333332
                },
                {
                    "name": "C5",
                    "midi": 72,
                    "time": 19.705838999999997,
                    "velocity": 0.7244094488188977,
                    "duration": 0.06535933333333332
                },
                {
                    "name": "D5",
                    "midi": 74,
                    "time": 19.803877999999997,
                    "velocity": 0.7244094488188977,
                    "duration": 0.06535933333333332
                },
                {
                    "name": "E5",
                    "midi": 76,
                    "time": 19.901916999999997,
                    "velocity": 0.7244094488188977,
                    "duration": 0.06535933333333332
                },
                {
                    "name": "F5",
                    "midi": 77,
                    "time": 19.999955999999997,
                    "velocity": 0.7244094488188977,
                    "duration": 0.06535933333333332
                },
                {
                    "name": "G5",
                    "midi": 79,
                    "time": 20.097994999999997,
                    "velocity": 0.7244094488188977,
                    "duration": 0.06535933333333332
                },
                {
                    "name": "A5",
                    "midi": 81,
                    "time": 20.196033999999997,
                    "velocity": 0.7244094488188977,
                    "duration": 0.06535933333333332
                },
                {
                    "name": "G5",
                    "midi": 79,
                    "time": 20.294072999999997,
                    "velocity": 0.7244094488188977,
                    "duration": 0.06535933333333332
                },
                {
                    "name": "A5",
                    "midi": 81,
                    "time": 20.392111999999997,
                    "velocity": 0.7244094488188977,
                    "duration": 0.06535933333333332
                },
                {
                    "name": "G5",
                    "midi": 79,
                    "time": 20.490150999999997,
                    "velocity": 0.7244094488188977,
                    "duration": 0.06535933333333332
                },
                {
                    "name": "F#5",
                    "midi": 78,
                    "time": 20.588189999999997,
                    "velocity": 0.7244094488188977,
                    "duration": 0.06535933333333332
                },
                {
                    "name": "G5",
                    "midi": 79,
                    "time": 20.686228999999997,
                    "velocity": 0.7244094488188977,
                    "duration": 0.06535933333333332
                },
                {
                    "name": "A5",
                    "midi": 81,
                    "time": 20.784267999999997,
                    "velocity": 0.7244094488188977,
                    "duration": 0.06535933333333332
                },
                {
                    "name": "G5",
                    "midi": 79,
                    "time": 20.882306999999997,
                    "velocity": 0.7244094488188977,
                    "duration": 0.06535933333333332
                },
                {
                    "name": "F5",
                    "midi": 77,
                    "time": 20.980345999999997,
                    "velocity": 0.7244094488188977,
                    "duration": 0.06535933333333332
                },
                {
                    "name": "E5",
                    "midi": 76,
                    "time": 21.078384999999997,
                    "velocity": 0.7244094488188977,
                    "duration": 0.06535933333333332
                },
                {
                    "name": "G5",
                    "midi": 79,
                    "time": 21.176423999999997,
                    "velocity": 0.7244094488188977,
                    "duration": 0.06535933333333332
                },
                {
                    "name": "F5",
                    "midi": 77,
                    "time": 21.274462999999997,
                    "velocity": 0.7244094488188977,
                    "duration": 0.06535933333333332
                },
                {
                    "name": "E5",
                    "midi": 76,
                    "time": 21.372501999999997,
                    "velocity": 0.7244094488188977,
                    "duration": 0.06535933333333332
                },
                {
                    "name": "F5",
                    "midi": 77,
                    "time": 21.470540999999997,
                    "velocity": 0.7244094488188977,
                    "duration": 0.06535933333333332
                },
                {
                    "name": "G5",
                    "midi": 79,
                    "time": 21.568579999999997,
                    "velocity": 0.7244094488188977,
                    "duration": 0.06535933333333332
                },
                {
                    "name": "F5",
                    "midi": 77,
                    "time": 21.666618999999997,
                    "velocity": 0.7244094488188977,
                    "duration": 0.06535933333333332
                },
                {
                    "name": "E5",
                    "midi": 76,
                    "time": 21.764657999999997,
                    "velocity": 0.7244094488188977,
                    "duration": 0.06535933333333332
                },
                {
                    "name": "D5",
                    "midi": 74,
                    "time": 21.862696999999997,
                    "velocity": 0.7244094488188977,
                    "duration": 0.06535933333333332
                },
                {
                    "name": "F5",
                    "midi": 77,
                    "time": 21.960735999999997,
                    "velocity": 0.7244094488188977,
                    "duration": 0.06535933333333332
                },
                {
                    "name": "E5",
                    "midi": 76,
                    "time": 22.058774999999997,
                    "velocity": 0.7244094488188977,
                    "duration": 0.06535933333333332
                },
                {
                    "name": "D#5",
                    "midi": 75,
                    "time": 22.156813999999997,
                    "velocity": 0.7244094488188977,
                    "duration": 0.06535933333333332
                },
                {
                    "name": "E5",
                    "midi": 76,
                    "time": 22.254852999999997,
                    "velocity": 0.7244094488188977,
                    "duration": 0.06535933333333332
                },
                {
                    "name": "F5",
                    "midi": 77,
                    "time": 22.352891999999997,
                    "velocity": 0.7244094488188977,
                    "duration": 0.06535933333333332
                },
                {
                    "name": "E5",
                    "midi": 76,
                    "time": 22.450930999999997,
                    "velocity": 0.7244094488188977,
                    "duration": 0.06535933333333332
                },
                {
                    "name": "D5",
                    "midi": 74,
                    "time": 22.548969999999997,
                    "velocity": 0.7244094488188977,
                    "duration": 0.06535933333333332
                },
                {
                    "name": "C5",
                    "midi": 72,
                    "time": 22.647008999999997,
                    "velocity": 0.7244094488188977,
                    "duration": 0.06535933333333332
                },
                {
                    "name": "E5",
                    "midi": 76,
                    "time": 22.745047999999997,
                    "velocity": 0.7244094488188977,
                    "duration": 0.06535933333333332
                },
                {
                    "name": "D5",
                    "midi": 74,
                    "time": 22.843086999999997,
                    "velocity": 0.7244094488188977,
                    "duration": 0.06535933333333332
                },
                {
                    "name": "C#5",
                    "midi": 73,
                    "time": 22.941125999999997,
                    "velocity": 0.7244094488188977,
                    "duration": 0.06535933333333332
                },
                {
                    "name": "D5",
                    "midi": 74,
                    "time": 23.039164999999997,
                    "velocity": 0.7244094488188977,
                    "duration": 0.06535933333333332
                },
                {
                    "name": "E5",
                    "midi": 76,
                    "time": 23.137203999999997,
                    "velocity": 0.7244094488188977,
                    "duration": 0.06535933333333332
                },
                {
                    "name": "D5",
                    "midi": 74,
                    "time": 23.235242999999997,
                    "velocity": 0.7244094488188977,
                    "duration": 0.06535933333333332
                },
                {
                    "name": "C5",
                    "midi": 72,
                    "time": 23.333281999999997,
                    "velocity": 0.7244094488188977,
                    "duration": 0.06535933333333332
                },
                {
                    "name": "B4",
                    "midi": 71,
                    "time": 23.431320999999997,
                    "velocity": 0.7244094488188977,
                    "duration": 0.06535933333333332
                },
                {
                    "name": "C5",
                    "midi": 72,
                    "time": 23.529359999999997,
                    "velocity": 0.7244094488188977,
                    "duration": 0.06535933333333332
                },
                {
                    "name": "G4",
                    "midi": 67,
                    "time": 23.627398999999997,
                    "velocity": 0.7244094488188977,
                    "duration": 0.06535933333333332
                },
                {
                    "name": "A4",
                    "midi": 69,
                    "time": 23.725437999999997,
                    "velocity": 0.7244094488188977,
                    "duration": 0.06535933333333332
                },
                {
                    "name": "B4",
                    "midi": 71,
                    "time": 23.823476999999997,
                    "velocity": 0.7244094488188977,
                    "duration": 0.06535933333333332
                },
                {
                    "name": "C5",
                    "midi": 72,
                    "time": 23.921515999999997,
                    "velocity": 0.7244094488188977,
                    "duration": 0.06535933333333332
                },
                {
                    "name": "D5",
                    "midi": 74,
                    "time": 24.019554999999997,
                    "velocity": 0.7244094488188977,
                    "duration": 0.06535933333333332
                },
                {
                    "name": "E5",
                    "midi": 76,
                    "time": 24.117593999999997,
                    "velocity": 0.7244094488188977,
                    "duration": 0.06535933333333332
                },
                {
                    "name": "F5",
                    "midi": 77,
                    "time": 24.215632999999997,
                    "velocity": 0.7244094488188977,
                    "duration": 0.06535933333333332
                },
                {
                    "name": "G5",
                    "midi": 79,
                    "time": 24.313671999999997,
                    "velocity": 0.7244094488188977,
                    "duration": 0.06535933333333332
                },
                {
                    "name": "F5",
                    "midi": 77,
                    "time": 24.411710999999997,
                    "velocity": 0.7244094488188977,
                    "duration": 0.06535933333333332
                },
                {
                    "name": "E5",
                    "midi": 76,
                    "time": 24.509749999999997,
                    "velocity": 0.7244094488188977,
                    "duration": 0.06535933333333332
                },
                {
                    "name": "F5",
                    "midi": 77,
                    "time": 24.607788999999997,
                    "velocity": 0.7244094488188977,
                    "duration": 0.06535933333333332
                },
                {
                    "name": "G5",
                    "midi": 79,
                    "time": 24.705827999999997,
                    "velocity": 0.7244094488188977,
                    "duration": 0.06535933333333332
                },
                {
                    "name": "A5",
                    "midi": 81,
                    "time": 24.803866999999997,
                    "velocity": 0.7244094488188977,
                    "duration": 0.06535933333333332
                },
                {
                    "name": "B5",
                    "midi": 83,
                    "time": 24.901905999999997,
                    "velocity": 0.7244094488188977,
                    "duration": 0.06535933333333332
                },
                {
                    "name": "C6",
                    "midi": 84,
                    "time": 24.999944999999997,
                    "velocity": 0.7244094488188977,
                    "duration": 0.06535933333333332
                },
                {
                    "name": "A5",
                    "midi": 81,
                    "time": 25.097983999999997,
                    "velocity": 0.7244094488188977,
                    "duration": 0.06535933333333332
                },
                {
                    "name": "B5",
                    "midi": 83,
                    "time": 25.196022999999997,
                    "velocity": 0.7244094488188977,
                    "duration": 0.06535933333333332
                },
                {
                    "name": "C6",
                    "midi": 84,
                    "time": 25.294061999999997,
                    "velocity": 0.7244094488188977,
                    "duration": 0.06535933333333332
                },
                {
                    "name": "B5",
                    "midi": 83,
                    "time": 25.392100999999997,
                    "velocity": 0.7244094488188977,
                    "duration": 0.06535933333333332
                },
                {
                    "name": "D6",
                    "midi": 86,
                    "time": 25.490139999999997,
                    "velocity": 0.7244094488188977,
                    "duration": 0.06535933333333332
                },
                {
                    "name": "C6",
                    "midi": 84,
                    "time": 25.588178999999997,
                    "velocity": 0.7244094488188977,
                    "duration": 0.06535933333333332
                },
                {
                    "name": "B5",
                    "midi": 83,
                    "time": 25.686217999999997,
                    "velocity": 0.7244094488188977,
                    "duration": 0.06535933333333332
                },
                {
                    "name": "A5",
                    "midi": 81,
                    "time": 25.784256999999997,
                    "velocity": 0.7244094488188977,
                    "duration": 0.06535933333333332
                },
                {
                    "name": "A5",
                    "midi": 81,
                    "time": 25.882295999999997,
                    "velocity": 0.7244094488188977,
                    "duration": 0.06535933333333332
                },
                {
                    "name": "G5",
                    "midi": 79,
                    "time": 25.980334999999997,
                    "velocity": 0.7244094488188977,
                    "duration": 0.06535933333333332
                },
                {
                    "name": "F#5",
                    "midi": 78,
                    "time": 26.078373999999997,
                    "velocity": 0.7244094488188977,
                    "duration": 0.06535933333333332
                },
                {
                    "name": "G5",
                    "midi": 79,
                    "time": 26.176412999999997,
                    "velocity": 0.7244094488188977,
                    "duration": 0.06535933333333332
                },
                {
                    "name": "B5",
                    "midi": 83,
                    "time": 26.274451999999997,
                    "velocity": 0.7244094488188977,
                    "duration": 0.06535933333333332
                },
                {
                    "name": "A5",
                    "midi": 81,
                    "time": 26.372490999999997,
                    "velocity": 0.7244094488188977,
                    "duration": 0.06535933333333332
                },
                {
                    "name": "G5",
                    "midi": 79,
                    "time": 26.470529999999997,
                    "velocity": 0.7244094488188977,
                    "duration": 0.06535933333333332
                },
                {
                    "name": "F5",
                    "midi": 77,
                    "time": 26.568568999999997,
                    "velocity": 0.7244094488188977,
                    "duration": 0.06535933333333332
                },
                {
                    "name": "E5",
                    "midi": 76,
                    "time": 26.666607999999997,
                    "velocity": 0.7244094488188977,
                    "duration": 0.06535933333333332
                },
                {
                    "name": "G4",
                    "midi": 67,
                    "time": 26.764646999999997,
                    "velocity": 0.7244094488188977,
                    "duration": 0.06535933333333332
                },
                {
                    "name": "A4",
                    "midi": 69,
                    "time": 26.862685999999997,
                    "velocity": 0.7244094488188977,
                    "duration": 0.06535933333333332
                },
                {
                    "name": "B4",
                    "midi": 71,
                    "time": 26.960724999999996,
                    "velocity": 0.7244094488188977,
                    "duration": 0.06535933333333332
                },
                {
                    "name": "C5",
                    "midi": 72,
                    "time": 27.058763999999996,
                    "velocity": 0.7244094488188977,
                    "duration": 0.06535933333333332
                },
                {
                    "name": "D5",
                    "midi": 74,
                    "time": 27.156802999999996,
                    "velocity": 0.7244094488188977,
                    "duration": 0.06535933333333332
                },
                {
                    "name": "E5",
                    "midi": 76,
                    "time": 27.254841999999996,
                    "velocity": 0.7244094488188977,
                    "duration": 0.06535933333333332
                },
                {
                    "name": "F5",
                    "midi": 77,
                    "time": 27.352880999999996,
                    "velocity": 0.7244094488188977,
                    "duration": 0.06535933333333332
                },
                {
                    "name": "G5",
                    "midi": 79,
                    "time": 27.450919999999996,
                    "velocity": 0.7244094488188977,
                    "duration": 0.06535933333333332
                },
                {
                    "name": "F5",
                    "midi": 77,
                    "time": 27.548958999999996,
                    "velocity": 0.7244094488188977,
                    "duration": 0.06535933333333332
                },
                {
                    "name": "E5",
                    "midi": 76,
                    "time": 27.646997999999996,
                    "velocity": 0.7244094488188977,
                    "duration": 0.06535933333333332
                },
                {
                    "name": "F5",
                    "midi": 77,
                    "time": 27.745036999999996,
                    "velocity": 0.7244094488188977,
                    "duration": 0.06535933333333332
                },
                {
                    "name": "G5",
                    "midi": 79,
                    "time": 27.843075999999996,
                    "velocity": 0.7244094488188977,
                    "duration": 0.06535933333333332
                },
                {
                    "name": "A5",
                    "midi": 81,
                    "time": 27.941114999999996,
                    "velocity": 0.7244094488188977,
                    "duration": 0.06535933333333332
                },
                {
                    "name": "B5",
                    "midi": 83,
                    "time": 28.039153999999996,
                    "velocity": 0.7244094488188977,
                    "duration": 0.06535933333333332
                },
                {
                    "name": "C6",
                    "midi": 84,
                    "time": 28.137192999999996,
                    "velocity": 0.7244094488188977,
                    "duration": 0.06535933333333332
                },
                {
                    "name": "A5",
                    "midi": 81,
                    "time": 28.235231999999996,
                    "velocity": 0.7244094488188977,
                    "duration": 0.06535933333333332
                },
                {
                    "name": "B5",
                    "midi": 83,
                    "time": 28.333270999999996,
                    "velocity": 0.7244094488188977,
                    "duration": 0.06535933333333332
                },
                {
                    "name": "C6",
                    "midi": 84,
                    "time": 28.431309999999996,
                    "velocity": 0.7244094488188977,
                    "duration": 0.06535933333333332
                },
                {
                    "name": "B5",
                    "midi": 83,
                    "time": 28.529348999999996,
                    "velocity": 0.7244094488188977,
                    "duration": 0.06535933333333332
                },
                {
                    "name": "D6",
                    "midi": 86,
                    "time": 28.627387999999996,
                    "velocity": 0.7244094488188977,
                    "duration": 0.06535933333333332
                },
                {
                    "name": "C6",
                    "midi": 84,
                    "time": 28.725426999999996,
                    "velocity": 0.7244094488188977,
                    "duration": 0.06535933333333332
                },
                {
                    "name": "B5",
                    "midi": 83,
                    "time": 28.823465999999996,
                    "velocity": 0.7244094488188977,
                    "duration": 0.06535933333333332
                },
                {
                    "name": "A5",
                    "midi": 81,
                    "time": 28.921504999999996,
                    "velocity": 0.7244094488188977,
                    "duration": 0.06535933333333332
                },
                {
                    "name": "A5",
                    "midi": 81,
                    "time": 29.019543999999996,
                    "velocity": 0.7244094488188977,
                    "duration": 0.06535933333333332
                },
                {
                    "name": "G5",
                    "midi": 79,
                    "time": 29.117582999999996,
                    "velocity": 0.7244094488188977,
                    "duration": 0.06535933333333332
                },
                {
                    "name": "F#5",
                    "midi": 78,
                    "time": 29.215621999999996,
                    "velocity": 0.7244094488188977,
                    "duration": 0.06535933333333332
                },
                {
                    "name": "G5",
                    "midi": 79,
                    "time": 29.313660999999996,
                    "velocity": 0.7244094488188977,
                    "duration": 0.06535933333333332
                },
                {
                    "name": "B5",
                    "midi": 83,
                    "time": 29.411699999999996,
                    "velocity": 0.7244094488188977,
                    "duration": 0.06535933333333332
                },
                {
                    "name": "A5",
                    "midi": 81,
                    "time": 29.509738999999996,
                    "velocity": 0.7244094488188977,
                    "duration": 0.06535933333333332
                },
                {
                    "name": "G5",
                    "midi": 79,
                    "time": 29.607777999999996,
                    "velocity": 0.7244094488188977,
                    "duration": 0.06535933333333332
                },
                {
                    "name": "F5",
                    "midi": 77,
                    "time": 29.705816999999996,
                    "velocity": 0.7244094488188977,
                    "duration": 0.06535933333333332
                },
                {
                    "name": "E5",
                    "midi": 76,
                    "time": 29.803855999999996,
                    "velocity": 0.7244094488188977,
                    "duration": 0.06535933333333332
                },
                {
                    "name": "G5",
                    "midi": 79,
                    "time": 29.901894999999996,
                    "velocity": 0.7244094488188977,
                    "duration": 0.06535933333333332
                },
                {
                    "name": "F5",
                    "midi": 77,
                    "time": 29.999933999999996,
                    "velocity": 0.7244094488188977,
                    "duration": 0.06535933333333332
                },
                {
                    "name": "E5",
                    "midi": 76,
                    "time": 30.097972999999996,
                    "velocity": 0.7244094488188977,
                    "duration": 0.06535933333333332
                },
                {
                    "name": "F5",
                    "midi": 77,
                    "time": 30.196011999999996,
                    "velocity": 0.7244094488188977,
                    "duration": 0.06535933333333332
                },
                {
                    "name": "G5",
                    "midi": 79,
                    "time": 30.294050999999996,
                    "velocity": 0.7244094488188977,
                    "duration": 0.06535933333333332
                },
                {
                    "name": "A5",
                    "midi": 81,
                    "time": 30.392089999999996,
                    "velocity": 0.7244094488188977,
                    "duration": 0.06535933333333332
                },
                {
                    "name": "B5",
                    "midi": 83,
                    "time": 30.490128999999996,
                    "velocity": 0.7244094488188977,
                    "duration": 0.06535933333333332
                },
                {
                    "name": "C6",
                    "midi": 84,
                    "time": 30.588167999999996,
                    "velocity": 0.7244094488188977,
                    "duration": 0.06535933333333332
                },
                {
                    "name": "B5",
                    "midi": 83,
                    "time": 30.686206999999996,
                    "velocity": 0.7244094488188977,
                    "duration": 0.06535933333333332
                },
                {
                    "name": "C6",
                    "midi": 84,
                    "time": 30.784245999999996,
                    "velocity": 0.7244094488188977,
                    "duration": 0.06535933333333332
                },
                {
                    "name": "B5",
                    "midi": 83,
                    "time": 30.882284999999996,
                    "velocity": 0.7244094488188977,
                    "duration": 0.06535933333333332
                },
                {
                    "name": "D6",
                    "midi": 86,
                    "time": 30.980323999999996,
                    "velocity": 0.7244094488188977,
                    "duration": 0.06535933333333332
                },
                {
                    "name": "C6",
                    "midi": 84,
                    "time": 31.078362999999996,
                    "velocity": 0.7244094488188977,
                    "duration": 0.06535933333333332
                },
                {
                    "name": "B5",
                    "midi": 83,
                    "time": 31.176401999999996,
                    "velocity": 0.7244094488188977,
                    "duration": 0.06535933333333332
                },
                {
                    "name": "A5",
                    "midi": 81,
                    "time": 31.274440999999996,
                    "velocity": 0.7244094488188977,
                    "duration": 0.06535933333333332
                },
                {
                    "name": "G#5",
                    "midi": 80,
                    "time": 31.372479999999996,
                    "velocity": 0.7244094488188977,
                    "duration": 0.06535933333333332
                },
                {
                    "name": "A5",
                    "midi": 81,
                    "time": 31.470518999999996,
                    "velocity": 0.7244094488188977,
                    "duration": 0.06535933333333332
                },
                {
                    "name": "B5",
                    "midi": 83,
                    "time": 31.568557999999996,
                    "velocity": 0.7244094488188977,
                    "duration": 0.06535933333333332
                },
                {
                    "name": "A5",
                    "midi": 81,
                    "time": 31.666596999999996,
                    "velocity": 0.7244094488188977,
                    "duration": 0.06535933333333332
                },
                {
                    "name": "G#5",
                    "midi": 80,
                    "time": 31.764635999999996,
                    "velocity": 0.7244094488188977,
                    "duration": 0.06535933333333332
                },
                {
                    "name": "E5",
                    "midi": 76,
                    "time": 31.862674999999996,
                    "velocity": 0.7244094488188977,
                    "duration": 0.06535933333333332
                },
                {
                    "name": "F#5",
                    "midi": 78,
                    "time": 31.960713999999996,
                    "velocity": 0.7244094488188977,
                    "duration": 0.06535933333333332
                },
                {
                    "name": "G#5",
                    "midi": 80,
                    "time": 32.058752999999996,
                    "velocity": 0.7244094488188977,
                    "duration": 0.06535933333333332
                },
                {
                    "name": "A5",
                    "midi": 81,
                    "time": 32.156791999999996,
                    "velocity": 0.7244094488188977,
                    "duration": 0.06535933333333332
                },
                {
                    "name": "B5",
                    "midi": 83,
                    "time": 32.254830999999996,
                    "velocity": 0.7244094488188977,
                    "duration": 0.06535933333333332
                },
                {
                    "name": "C6",
                    "midi": 84,
                    "time": 32.352869999999996,
                    "velocity": 0.7244094488188977,
                    "duration": 0.06535933333333332
                },
                {
                    "name": "B5",
                    "midi": 83,
                    "time": 32.450908999999996,
                    "velocity": 0.7244094488188977,
                    "duration": 0.06535933333333332
                },
                {
                    "name": "C6",
                    "midi": 84,
                    "time": 32.548947999999996,
                    "velocity": 0.7244094488188977,
                    "duration": 0.06535933333333332
                },
                {
                    "name": "B5",
                    "midi": 83,
                    "time": 32.646986999999996,
                    "velocity": 0.7244094488188977,
                    "duration": 0.06535933333333332
                },
                {
                    "name": "A5",
                    "midi": 81,
                    "time": 32.745025999999996,
                    "velocity": 0.7244094488188977,
                    "duration": 0.06535933333333332
                },
                {
                    "name": "G5",
                    "midi": 79,
                    "time": 32.843064999999996,
                    "velocity": 0.7244094488188977,
                    "duration": 0.06535933333333332
                },
                {
                    "name": "F#5",
                    "midi": 78,
                    "time": 32.941103999999996,
                    "velocity": 0.7244094488188977,
                    "duration": 0.06535933333333332
                },
                {
                    "name": "G5",
                    "midi": 79,
                    "time": 33.039142999999996,
                    "velocity": 0.7244094488188977,
                    "duration": 0.06535933333333332
                },
                {
                    "name": "A5",
                    "midi": 81,
                    "time": 33.137181999999996,
                    "velocity": 0.7244094488188977,
                    "duration": 0.06535933333333332
                },
                {
                    "name": "G5",
                    "midi": 79,
                    "time": 33.235220999999996,
                    "velocity": 0.7244094488188977,
                    "duration": 0.06535933333333332
                },
                {
                    "name": "F#5",
                    "midi": 78,
                    "time": 33.333259999999996,
                    "velocity": 0.7244094488188977,
                    "duration": 0.06535933333333332
                },
                {
                    "name": "D5",
                    "midi": 74,
                    "time": 33.431298999999996,
                    "velocity": 0.7244094488188977,
                    "duration": 0.06535933333333332
                },
                {
                    "name": "E5",
                    "midi": 76,
                    "time": 33.529337999999996,
                    "velocity": 0.7244094488188977,
                    "duration": 0.06535933333333332
                },
                {
                    "name": "F#5",
                    "midi": 78,
                    "time": 33.627376999999996,
                    "velocity": 0.7244094488188977,
                    "duration": 0.06535933333333332
                },
                {
                    "name": "G5",
                    "midi": 79,
                    "time": 33.725415999999996,
                    "velocity": 0.7244094488188977,
                    "duration": 0.06535933333333332
                },
                {
                    "name": "F#5",
                    "midi": 78,
                    "time": 33.823454999999996,
                    "velocity": 0.7244094488188977,
                    "duration": 0.06535933333333332
                },
                {
                    "name": "G5",
                    "midi": 79,
                    "time": 33.921493999999996,
                    "velocity": 0.7244094488188977,
                    "duration": 0.06535933333333332
                },
                {
                    "name": "A5",
                    "midi": 81,
                    "time": 34.019532999999996,
                    "velocity": 0.7244094488188977,
                    "duration": 0.06535933333333332
                },
                {
                    "name": "B5",
                    "midi": 83,
                    "time": 34.117571999999996,
                    "velocity": 0.7244094488188977,
                    "duration": 0.06535933333333332
                },
                {
                    "name": "A5",
                    "midi": 81,
                    "time": 34.215610999999996,
                    "velocity": 0.7244094488188977,
                    "duration": 0.06535933333333332
                },
                {
                    "name": "G5",
                    "midi": 79,
                    "time": 34.313649999999996,
                    "velocity": 0.7244094488188977,
                    "duration": 0.06535933333333332
                },
                {
                    "name": "F#5",
                    "midi": 78,
                    "time": 34.411688999999996,
                    "velocity": 0.7244094488188977,
                    "duration": 0.06535933333333332
                },
                {
                    "name": "G5",
                    "midi": 79,
                    "time": 34.509727999999996,
                    "velocity": 0.7244094488188977,
                    "duration": 0.06535933333333332
                },
                {
                    "name": "F#5",
                    "midi": 78,
                    "time": 34.607766999999996,
                    "velocity": 0.7244094488188977,
                    "duration": 0.06535933333333332
                },
                {
                    "name": "E5",
                    "midi": 76,
                    "time": 34.705805999999995,
                    "velocity": 0.7244094488188977,
                    "duration": 0.06535933333333332
                },
                {
                    "name": "D#5",
                    "midi": 75,
                    "time": 34.803844999999995,
                    "velocity": 0.7244094488188977,
                    "duration": 0.06535933333333332
                },
                {
                    "name": "E5",
                    "midi": 76,
                    "time": 34.901883999999995,
                    "velocity": 0.7244094488188977,
                    "duration": 0.06535933333333332
                },
                {
                    "name": "F#5",
                    "midi": 78,
                    "time": 34.999922999999995,
                    "velocity": 0.7244094488188977,
                    "duration": 0.06535933333333332
                },
                {
                    "name": "G5",
                    "midi": 79,
                    "time": 35.097961999999995,
                    "velocity": 0.7244094488188977,
                    "duration": 0.06535933333333332
                },
                {
                    "name": "F#5",
                    "midi": 78,
                    "time": 35.196000999999995,
                    "velocity": 0.7244094488188977,
                    "duration": 0.06535933333333332
                },
                {
                    "name": "A5",
                    "midi": 81,
                    "time": 35.294039999999995,
                    "velocity": 0.7244094488188977,
                    "duration": 0.06535933333333332
                },
                {
                    "name": "G5",
                    "midi": 79,
                    "time": 35.392078999999995,
                    "velocity": 0.7244094488188977,
                    "duration": 0.06535933333333332
                },
                {
                    "name": "F#5",
                    "midi": 78,
                    "time": 35.490117999999995,
                    "velocity": 0.7244094488188977,
                    "duration": 0.06535933333333332
                },
                {
                    "name": "E5",
                    "midi": 76,
                    "time": 35.588156999999995,
                    "velocity": 0.7244094488188977,
                    "duration": 0.06535933333333332
                },
                {
                    "name": "D5",
                    "midi": 74,
                    "time": 35.686195999999995,
                    "velocity": 0.7244094488188977,
                    "duration": 0.06535933333333332
                },
                {
                    "name": "C#5",
                    "midi": 73,
                    "time": 35.784234999999995,
                    "velocity": 0.7244094488188977,
                    "duration": 0.06535933333333332
                },
                {
                    "name": "B4",
                    "midi": 71,
                    "time": 35.882273999999995,
                    "velocity": 0.7244094488188977,
                    "duration": 0.06535933333333332
                },
                {
                    "name": "C#5",
                    "midi": 73,
                    "time": 35.980312999999995,
                    "velocity": 0.7244094488188977,
                    "duration": 0.06535933333333332
                },
                {
                    "name": "D5",
                    "midi": 74,
                    "time": 36.078351999999995,
                    "velocity": 0.7244094488188977,
                    "duration": 0.06535933333333332
                },
                {
                    "name": "D4",
                    "midi": 62,
                    "time": 36.176390999999995,
                    "velocity": 0.7244094488188977,
                    "duration": 0.06535933333333332
                },
                {
                    "name": "E4",
                    "midi": 64,
                    "time": 36.274429999999995,
                    "velocity": 0.7244094488188977,
                    "duration": 0.06535933333333332
                },
                {
                    "name": "F#4",
                    "midi": 66,
                    "time": 36.372468999999995,
                    "velocity": 0.7244094488188977,
                    "duration": 0.06535933333333332
                },
                {
                    "name": "G4",
                    "midi": 67,
                    "time": 36.470507999999995,
                    "velocity": 0.7244094488188977,
                    "duration": 0.06535933333333332
                },
                {
                    "name": "A4",
                    "midi": 69,
                    "time": 36.568546999999995,
                    "velocity": 0.7244094488188977,
                    "duration": 0.06535933333333332
                },
                {
                    "name": "B4",
                    "midi": 71,
                    "time": 36.666585999999995,
                    "velocity": 0.7244094488188977,
                    "duration": 0.06535933333333332
                },
                {
                    "name": "C#5",
                    "midi": 73,
                    "time": 36.764624999999995,
                    "velocity": 0.7244094488188977,
                    "duration": 0.06535933333333332
                },
                {
                    "name": "D5",
                    "midi": 74,
                    "time": 36.862663999999995,
                    "velocity": 0.7244094488188977,
                    "duration": 0.06535933333333332
                },
                {
                    "name": "E5",
                    "midi": 76,
                    "time": 36.960702999999995,
                    "velocity": 0.7244094488188977,
                    "duration": 0.06535933333333332
                },
                {
                    "name": "F#5",
                    "midi": 78,
                    "time": 37.058741999999995,
                    "velocity": 0.7244094488188977,
                    "duration": 0.06535933333333332
                },
                {
                    "name": "G5",
                    "midi": 79,
                    "time": 37.156780999999995,
                    "velocity": 0.7244094488188977,
                    "duration": 0.06535933333333332
                },
                {
                    "name": "A5",
                    "midi": 81,
                    "time": 37.254819999999995,
                    "velocity": 0.7244094488188977,
                    "duration": 0.06535933333333332
                },
                {
                    "name": "B5",
                    "midi": 83,
                    "time": 37.352858999999995,
                    "velocity": 0.7244094488188977,
                    "duration": 0.06535933333333332
                },
                {
                    "name": "C6",
                    "midi": 84,
                    "time": 37.450897999999995,
                    "velocity": 0.7244094488188977,
                    "duration": 0.06535933333333332
                },
                {
                    "name": "D6",
                    "midi": 86,
                    "time": 37.548936999999995,
                    "velocity": 0.7244094488188977,
                    "duration": 0.06535933333333332
                },
                {
                    "name": "C6",
                    "midi": 84,
                    "time": 37.646975999999995,
                    "velocity": 0.7244094488188977,
                    "duration": 0.06535933333333332
                },
                {
                    "name": "B5",
                    "midi": 83,
                    "time": 37.745014999999995,
                    "velocity": 0.7244094488188977,
                    "duration": 0.06535933333333332
                },
                {
                    "name": "D6",
                    "midi": 86,
                    "time": 37.843053999999995,
                    "velocity": 0.7244094488188977,
                    "duration": 0.06535933333333332
                },
                {
                    "name": "B5",
                    "midi": 83,
                    "time": 37.941092999999995,
                    "velocity": 0.7244094488188977,
                    "duration": 0.06535933333333332
                },
                {
                    "name": "A5",
                    "midi": 81,
                    "time": 38.039131999999995,
                    "velocity": 0.7244094488188977,
                    "duration": 0.06535933333333332
                },
                {
                    "name": "G5",
                    "midi": 79,
                    "time": 38.137170999999995,
                    "velocity": 0.7244094488188977,
                    "duration": 0.06535933333333332
                },
                {
                    "name": "B5",
                    "midi": 83,
                    "time": 38.235209999999995,
                    "velocity": 0.7244094488188977,
                    "duration": 0.06535933333333332
                },
                {
                    "name": "G5",
                    "midi": 79,
                    "time": 38.333248999999995,
                    "velocity": 0.7244094488188977,
                    "duration": 0.06535933333333332
                },
                {
                    "name": "F#5",
                    "midi": 78,
                    "time": 38.431287999999995,
                    "velocity": 0.7244094488188977,
                    "duration": 0.06535933333333332
                },
                {
                    "name": "E5",
                    "midi": 76,
                    "time": 38.529326999999995,
                    "velocity": 0.7244094488188977,
                    "duration": 0.06535933333333332
                },
                {
                    "name": "G5",
                    "midi": 79,
                    "time": 38.627365999999995,
                    "velocity": 0.7244094488188977,
                    "duration": 0.06535933333333332
                },
                {
                    "name": "E5",
                    "midi": 76,
                    "time": 38.725404999999995,
                    "velocity": 0.7244094488188977,
                    "duration": 0.06535933333333332
                },
                {
                    "name": "D5",
                    "midi": 74,
                    "time": 38.823443999999995,
                    "velocity": 0.7244094488188977,
                    "duration": 0.06535933333333332
                },
                {
                    "name": "C#5",
                    "midi": 73,
                    "time": 38.921482999999995,
                    "velocity": 0.7244094488188977,
                    "duration": 0.06535933333333332
                },
                {
                    "name": "E5",
                    "midi": 76,
                    "time": 39.019521999999995,
                    "velocity": 0.7244094488188977,
                    "duration": 0.06535933333333332
                },
                {
                    "name": "C#5",
                    "midi": 73,
                    "time": 39.117560999999995,
                    "velocity": 0.7244094488188977,
                    "duration": 0.06535933333333332
                },
                {
                    "name": "D5",
                    "midi": 74,
                    "time": 39.215599999999995,
                    "velocity": 0.7244094488188977,
                    "duration": 0.06535933333333332
                },
                {
                    "name": "D4",
                    "midi": 62,
                    "time": 39.313638999999995,
                    "velocity": 0.7244094488188977,
                    "duration": 0.06535933333333332
                },
                {
                    "name": "E4",
                    "midi": 64,
                    "time": 39.411677999999995,
                    "velocity": 0.7244094488188977,
                    "duration": 0.06535933333333332
                },
                {
                    "name": "F#4",
                    "midi": 66,
                    "time": 39.509716999999995,
                    "velocity": 0.7244094488188977,
                    "duration": 0.06535933333333332
                },
                {
                    "name": "G4",
                    "midi": 67,
                    "time": 39.607755999999995,
                    "velocity": 0.7244094488188977,
                    "duration": 0.06535933333333332
                },
                {
                    "name": "A4",
                    "midi": 69,
                    "time": 39.705794999999995,
                    "velocity": 0.7244094488188977,
                    "duration": 0.06535933333333332
                },
                {
                    "name": "B4",
                    "midi": 71,
                    "time": 39.803833999999995,
                    "velocity": 0.7244094488188977,
                    "duration": 0.06535933333333332
                },
                {
                    "name": "C#5",
                    "midi": 73,
                    "time": 39.901872999999995,
                    "velocity": 0.7244094488188977,
                    "duration": 0.06535933333333332
                },
                {
                    "name": "D5",
                    "midi": 74,
                    "time": 39.999911999999995,
                    "velocity": 0.7244094488188977,
                    "duration": 0.06535933333333332
                },
                {
                    "name": "E5",
                    "midi": 76,
                    "time": 40.097950999999995,
                    "velocity": 0.7244094488188977,
                    "duration": 0.06535933333333332
                },
                {
                    "name": "F#5",
                    "midi": 78,
                    "time": 40.195989999999995,
                    "velocity": 0.7244094488188977,
                    "duration": 0.06535933333333332
                },
                {
                    "name": "G5",
                    "midi": 79,
                    "time": 40.294028999999995,
                    "velocity": 0.7244094488188977,
                    "duration": 0.06535933333333332
                },
                {
                    "name": "A5",
                    "midi": 81,
                    "time": 40.392067999999995,
                    "velocity": 0.7244094488188977,
                    "duration": 0.06535933333333332
                },
                {
                    "name": "F#5",
                    "midi": 78,
                    "time": 40.490106999999995,
                    "velocity": 0.7244094488188977,
                    "duration": 0.06535933333333332
                },
                {
                    "name": "D5",
                    "midi": 74,
                    "time": 40.588145999999995,
                    "velocity": 0.7244094488188977,
                    "duration": 0.06535933333333332
                },
                {
                    "name": "C5",
                    "midi": 72,
                    "time": 40.686184999999995,
                    "velocity": 0.7244094488188977,
                    "duration": 0.06535933333333332
                },
                {
                    "name": "C5",
                    "midi": 72,
                    "time": 40.784223999999995,
                    "velocity": 0.7244094488188977,
                    "duration": 0.06535933333333332
                },
                {
                    "name": "B4",
                    "midi": 71,
                    "time": 40.882262999999995,
                    "velocity": 0.7244094488188977,
                    "duration": 0.06535933333333332
                },
                {
                    "name": "D5",
                    "midi": 74,
                    "time": 40.980301999999995,
                    "velocity": 0.7244094488188977,
                    "duration": 0.06535933333333332
                },
                {
                    "name": "B4",
                    "midi": 71,
                    "time": 41.078340999999995,
                    "velocity": 0.7244094488188977,
                    "duration": 0.06535933333333332
                },
                {
                    "name": "A4",
                    "midi": 69,
                    "time": 41.176379999999995,
                    "velocity": 0.7244094488188977,
                    "duration": 0.06535933333333332
                },
                {
                    "name": "G4",
                    "midi": 67,
                    "time": 41.274418999999995,
                    "velocity": 0.7244094488188977,
                    "duration": 0.06535933333333332
                },
                {
                    "name": "B4",
                    "midi": 71,
                    "time": 41.372457999999995,
                    "velocity": 0.7244094488188977,
                    "duration": 0.06535933333333332
                },
                {
                    "name": "G4",
                    "midi": 67,
                    "time": 41.470496999999995,
                    "velocity": 0.7244094488188977,
                    "duration": 0.06535933333333332
                },
                {
                    "name": "F#4",
                    "midi": 66,
                    "time": 41.568535999999995,
                    "velocity": 0.7244094488188977,
                    "duration": 0.06535933333333332
                },
                {
                    "name": "E4",
                    "midi": 64,
                    "time": 41.666574999999995,
                    "velocity": 0.7244094488188977,
                    "duration": 0.06535933333333332
                },
                {
                    "name": "G4",
                    "midi": 67,
                    "time": 41.764613999999995,
                    "velocity": 0.7244094488188977,
                    "duration": 0.06535933333333332
                },
                {
                    "name": "E4",
                    "midi": 64,
                    "time": 41.862652999999995,
                    "velocity": 0.7244094488188977,
                    "duration": 0.06535933333333332
                },
                {
                    "name": "D4",
                    "midi": 62,
                    "time": 41.960691999999995,
                    "velocity": 0.7244094488188977,
                    "duration": 0.06535933333333332
                },
                {
                    "name": "C#4",
                    "midi": 61,
                    "time": 42.058730999999995,
                    "velocity": 0.7244094488188977,
                    "duration": 0.06535933333333332
                },
                {
                    "name": "E4",
                    "midi": 64,
                    "time": 42.156769999999995,
                    "velocity": 0.7244094488188977,
                    "duration": 0.06535933333333332
                },
                {
                    "name": "C#4",
                    "midi": 61,
                    "time": 42.254808999999995,
                    "velocity": 0.7244094488188977,
                    "duration": 0.06535933333333332
                },
                {
                    "name": "D4",
                    "midi": 62,
                    "time": 42.352847999999994,
                    "velocity": 0.7244094488188977,
                    "duration": 0.06535933333333332
                },
                {
                    "name": "F#4",
                    "midi": 66,
                    "time": 42.450886999999994,
                    "velocity": 0.7244094488188977,
                    "duration": 0.06535933333333332
                },
                {
                    "name": "A4",
                    "midi": 69,
                    "time": 42.548925999999994,
                    "velocity": 0.7244094488188977,
                    "duration": 0.06535933333333332
                },
                {
                    "name": "D5",
                    "midi": 74,
                    "time": 42.646964999999994,
                    "velocity": 0.7244094488188977,
                    "duration": 0.06535933333333332
                },
                {
                    "name": "C#5",
                    "midi": 73,
                    "time": 42.745003999999994,
                    "velocity": 0.7244094488188977,
                    "duration": 0.06535933333333332
                },
                {
                    "name": "E5",
                    "midi": 76,
                    "time": 42.843042999999994,
                    "velocity": 0.7244094488188977,
                    "duration": 0.06535933333333332
                },
                {
                    "name": "A5",
                    "midi": 81,
                    "time": 42.941081999999994,
                    "velocity": 0.7244094488188977,
                    "duration": 0.06535933333333332
                },
                {
                    "name": "G5",
                    "midi": 79,
                    "time": 43.039120999999994,
                    "velocity": 0.7244094488188977,
                    "duration": 0.06535933333333332
                },
                {
                    "name": "F#5",
                    "midi": 78,
                    "time": 43.137159999999994,
                    "velocity": 0.7244094488188977,
                    "duration": 0.06535933333333332
                },
                {
                    "name": "A5",
                    "midi": 81,
                    "time": 43.235198999999994,
                    "velocity": 0.7244094488188977,
                    "duration": 0.06535933333333332
                },
                {
                    "name": "F#5",
                    "midi": 78,
                    "time": 43.333237999999994,
                    "velocity": 0.7244094488188977,
                    "duration": 0.06535933333333332
                },
                {
                    "name": "D5",
                    "midi": 74,
                    "time": 43.431276999999994,
                    "velocity": 0.7244094488188977,
                    "duration": 0.06535933333333332
                },
                {
                    "name": "C#5",
                    "midi": 73,
                    "time": 43.529315999999994,
                    "velocity": 0.7244094488188977,
                    "duration": 0.06535933333333332
                },
                {
                    "name": "A4",
                    "midi": 69,
                    "time": 43.627354999999994,
                    "velocity": 0.7244094488188977,
                    "duration": 0.06535933333333332
                },
                {
                    "name": "G4",
                    "midi": 67,
                    "time": 43.725393999999994,
                    "velocity": 0.7244094488188977,
                    "duration": 0.06535933333333332
                },
                {
                    "name": "E4",
                    "midi": 64,
                    "time": 43.823432999999994,
                    "velocity": 0.7244094488188977,
                    "duration": 0.06535933333333332
                },
                {
                    "name": "D4",
                    "midi": 62,
                    "time": 43.921471999999994,
                    "velocity": 0.7244094488188977,
                    "duration": 0.06535933333333332
                },
                {
                    "name": "F#4",
                    "midi": 66,
                    "time": 44.019510999999994,
                    "velocity": 0.7244094488188977,
                    "duration": 0.06535933333333332
                },
                {
                    "name": "A4",
                    "midi": 69,
                    "time": 44.117549999999994,
                    "velocity": 0.7244094488188977,
                    "duration": 0.06535933333333332
                },
                {
                    "name": "D5",
                    "midi": 74,
                    "time": 44.215588999999994,
                    "velocity": 0.7244094488188977,
                    "duration": 0.06535933333333332
                },
                {
                    "name": "C#5",
                    "midi": 73,
                    "time": 44.313627999999994,
                    "velocity": 0.7244094488188977,
                    "duration": 0.06535933333333332
                },
                {
                    "name": "E5",
                    "midi": 76,
                    "time": 44.411666999999994,
                    "velocity": 0.7244094488188977,
                    "duration": 0.06535933333333332
                },
                {
                    "name": "A5",
                    "midi": 81,
                    "time": 44.509705999999994,
                    "velocity": 0.7244094488188977,
                    "duration": 0.06535933333333332
                },
                {
                    "name": "G5",
                    "midi": 79,
                    "time": 44.607744999999994,
                    "velocity": 0.7244094488188977,
                    "duration": 0.06535933333333332
                },
                {
                    "name": "F#5",
                    "midi": 78,
                    "time": 44.705783999999994,
                    "velocity": 0.7244094488188977,
                    "duration": 0.06535933333333332
                },
                {
                    "name": "A5",
                    "midi": 81,
                    "time": 44.803822999999994,
                    "velocity": 0.7244094488188977,
                    "duration": 0.06535933333333332
                },
                {
                    "name": "F#5",
                    "midi": 78,
                    "time": 44.901861999999994,
                    "velocity": 0.7244094488188977,
                    "duration": 0.06535933333333332
                },
                {
                    "name": "D5",
                    "midi": 74,
                    "time": 44.999900999999994,
                    "velocity": 0.7244094488188977,
                    "duration": 0.06535933333333332
                },
                {
                    "name": "C#5",
                    "midi": 73,
                    "time": 45.097939999999994,
                    "velocity": 0.7244094488188977,
                    "duration": 0.06535933333333332
                },
                {
                    "name": "A4",
                    "midi": 69,
                    "time": 45.195978999999994,
                    "velocity": 0.7244094488188977,
                    "duration": 0.06535933333333332
                },
                {
                    "name": "G4",
                    "midi": 67,
                    "time": 45.294017999999994,
                    "velocity": 0.7244094488188977,
                    "duration": 0.06535933333333332
                },
                {
                    "name": "E4",
                    "midi": 64,
                    "time": 45.392056999999994,
                    "velocity": 0.7244094488188977,
                    "duration": 0.06535933333333332
                },
                {
                    "name": "D4",
                    "midi": 62,
                    "time": 45.490095999999994,
                    "velocity": 0.7244094488188977,
                    "duration": 0.06535933333333332
                },
                {
                    "name": "F#4",
                    "midi": 66,
                    "time": 45.588134999999994,
                    "velocity": 0.7244094488188977,
                    "duration": 0.06535933333333332
                },
                {
                    "name": "A4",
                    "midi": 69,
                    "time": 45.686173999999994,
                    "velocity": 0.7244094488188977,
                    "duration": 0.06535933333333332
                },
                {
                    "name": "D5",
                    "midi": 74,
                    "time": 45.784212999999994,
                    "velocity": 0.7244094488188977,
                    "duration": 0.06535933333333332
                },
                {
                    "name": "F#5",
                    "midi": 78,
                    "time": 45.882251999999994,
                    "velocity": 0.7244094488188977,
                    "duration": 0.06535933333333332
                },
                {
                    "name": "A5",
                    "midi": 81,
                    "time": 45.980290999999994,
                    "velocity": 0.7244094488188977,
                    "duration": 0.06535933333333332
                },
                {
                    "name": "C#6",
                    "midi": 85,
                    "time": 46.078329999999994,
                    "velocity": 0.7244094488188977,
                    "duration": 0.06535933333333332
                },
                {
                    "name": "D6",
                    "midi": 86,
                    "time": 46.176368999999994,
                    "velocity": 0.7244094488188977,
                    "duration": 0.06535933333333332
                },
                {
                    "name": "C6",
                    "midi": 84,
                    "time": 46.274407999999994,
                    "velocity": 0.7244094488188977,
                    "duration": 0.06535933333333332
                },
                {
                    "name": "B5",
                    "midi": 83,
                    "time": 46.372446999999994,
                    "velocity": 0.7244094488188977,
                    "duration": 0.06535933333333332
                },
                {
                    "name": "A5",
                    "midi": 81,
                    "time": 46.470485999999994,
                    "velocity": 0.7244094488188977,
                    "duration": 0.06535933333333332
                },
                {
                    "name": "G5",
                    "midi": 79,
                    "time": 46.568524999999994,
                    "velocity": 0.7244094488188977,
                    "duration": 0.06535933333333332
                },
                {
                    "name": "F#5",
                    "midi": 78,
                    "time": 46.666563999999994,
                    "velocity": 0.7244094488188977,
                    "duration": 0.06535933333333332
                },
                {
                    "name": "E5",
                    "midi": 76,
                    "time": 46.764602999999994,
                    "velocity": 0.7244094488188977,
                    "duration": 0.06535933333333332
                },
                {
                    "name": "D5",
                    "midi": 74,
                    "time": 46.862641999999994,
                    "velocity": 0.7244094488188977,
                    "duration": 0.06535933333333332
                },
                {
                    "name": "C5",
                    "midi": 72,
                    "time": 46.960680999999994,
                    "velocity": 0.7244094488188977,
                    "duration": 0.06535933333333332
                },
                {
                    "name": "B4",
                    "midi": 71,
                    "time": 47.058719999999994,
                    "velocity": 0.7244094488188977,
                    "duration": 0.06535933333333332
                },
                {
                    "name": "C5",
                    "midi": 72,
                    "time": 47.156758999999994,
                    "velocity": 0.7244094488188977,
                    "duration": 0.06535933333333332
                },
                {
                    "name": "D5",
                    "midi": 74,
                    "time": 47.254797999999994,
                    "velocity": 0.7244094488188977,
                    "duration": 0.06535933333333332
                },
                {
                    "name": "E5",
                    "midi": 76,
                    "time": 47.352836999999994,
                    "velocity": 0.7244094488188977,
                    "duration": 0.06535933333333332
                },
                {
                    "name": "F#5",
                    "midi": 78,
                    "time": 47.450875999999994,
                    "velocity": 0.7244094488188977,
                    "duration": 0.06535933333333332
                },
                {
                    "name": "G5",
                    "midi": 79,
                    "time": 47.548914999999994,
                    "velocity": 0.7244094488188977,
                    "duration": 0.06535933333333332
                },
                {
                    "name": "A5",
                    "midi": 81,
                    "time": 47.646953999999994,
                    "velocity": 0.7244094488188977,
                    "duration": 0.06535933333333332
                },
                {
                    "name": "B5",
                    "midi": 83,
                    "time": 47.744992999999994,
                    "velocity": 0.7244094488188977,
                    "duration": 0.06535933333333332
                },
                {
                    "name": "A5",
                    "midi": 81,
                    "time": 47.843031999999994,
                    "velocity": 0.7244094488188977,
                    "duration": 0.06535933333333332
                },
                {
                    "name": "G5",
                    "midi": 79,
                    "time": 47.941070999999994,
                    "velocity": 0.7244094488188977,
                    "duration": 0.06535933333333332
                },
                {
                    "name": "F5",
                    "midi": 77,
                    "time": 48.039109999999994,
                    "velocity": 0.7244094488188977,
                    "duration": 0.06535933333333332
                },
                {
                    "name": "E5",
                    "midi": 76,
                    "time": 48.137148999999994,
                    "velocity": 0.7244094488188977,
                    "duration": 0.06535933333333332
                },
                {
                    "name": "D#5",
                    "midi": 75,
                    "time": 48.235187999999994,
                    "velocity": 0.7244094488188977,
                    "duration": 0.06535933333333332
                },
                {
                    "name": "C5",
                    "midi": 72,
                    "time": 48.333226999999994,
                    "velocity": 0.7244094488188977,
                    "duration": 0.06535933333333332
                },
                {
                    "name": "B4",
                    "midi": 71,
                    "time": 48.431265999999994,
                    "velocity": 0.7244094488188977,
                    "duration": 0.06535933333333332
                },
                {
                    "name": "A4",
                    "midi": 69,
                    "time": 48.529304999999994,
                    "velocity": 0.7244094488188977,
                    "duration": 0.06535933333333332
                },
                {
                    "name": "G4",
                    "midi": 67,
                    "time": 48.627343999999994,
                    "velocity": 0.7244094488188977,
                    "duration": 0.06535933333333332
                },
                {
                    "name": "A4",
                    "midi": 69,
                    "time": 48.725382999999994,
                    "velocity": 0.7244094488188977,
                    "duration": 0.06535933333333332
                },
                {
                    "name": "B4",
                    "midi": 71,
                    "time": 48.823421999999994,
                    "velocity": 0.7244094488188977,
                    "duration": 0.06535933333333332
                },
                {
                    "name": "C#5",
                    "midi": 73,
                    "time": 48.921460999999994,
                    "velocity": 0.7244094488188977,
                    "duration": 0.06535933333333332
                },
                {
                    "name": "D#5",
                    "midi": 75,
                    "time": 49.019499999999994,
                    "velocity": 0.7244094488188977,
                    "duration": 0.06535933333333332
                },
                {
                    "name": "E5",
                    "midi": 76,
                    "time": 49.117538999999994,
                    "velocity": 0.7244094488188977,
                    "duration": 0.06535933333333332
                },
                {
                    "name": "F#5",
                    "midi": 78,
                    "time": 49.215577999999994,
                    "velocity": 0.7244094488188977,
                    "duration": 0.06535933333333332
                },
                {
                    "name": "G5",
                    "midi": 79,
                    "time": 49.313616999999994,
                    "velocity": 0.7244094488188977,
                    "duration": 0.06535933333333332
                },
                {
                    "name": "F5",
                    "midi": 77,
                    "time": 49.411655999999994,
                    "velocity": 0.7244094488188977,
                    "duration": 0.06535933333333332
                },
                {
                    "name": "E5",
                    "midi": 76,
                    "time": 49.509694999999994,
                    "velocity": 0.7244094488188977,
                    "duration": 0.06535933333333332
                },
                {
                    "name": "D5",
                    "midi": 74,
                    "time": 49.607733999999994,
                    "velocity": 0.7244094488188977,
                    "duration": 0.06535933333333332
                },
                {
                    "name": "C5",
                    "midi": 72,
                    "time": 49.70577299999999,
                    "velocity": 0.7244094488188977,
                    "duration": 0.06535933333333332
                },
                {
                    "name": "B4",
                    "midi": 71,
                    "time": 49.80381199999999,
                    "velocity": 0.7244094488188977,
                    "duration": 0.06535933333333332
                },
                {
                    "name": "A4",
                    "midi": 69,
                    "time": 49.90185099999999,
                    "velocity": 0.7244094488188977,
                    "duration": 0.06535933333333332
                },
                {
                    "name": "G4",
                    "midi": 67,
                    "time": 49.99988999999999,
                    "velocity": 0.7244094488188977,
                    "duration": 0.06535933333333332
                },
                {
                    "name": "F4",
                    "midi": 65,
                    "time": 50.09792899999999,
                    "velocity": 0.7244094488188977,
                    "duration": 0.06535933333333332
                },
                {
                    "name": "E4",
                    "midi": 64,
                    "time": 50.19596799999999,
                    "velocity": 0.7244094488188977,
                    "duration": 0.06535933333333332
                },
                {
                    "name": "F#4",
                    "midi": 66,
                    "time": 50.29400699999999,
                    "velocity": 0.7244094488188977,
                    "duration": 0.06535933333333332
                },
                {
                    "name": "G4",
                    "midi": 67,
                    "time": 50.39204599999999,
                    "velocity": 0.7244094488188977,
                    "duration": 0.06535933333333332
                },
                {
                    "name": "A4",
                    "midi": 69,
                    "time": 50.49008499999999,
                    "velocity": 0.7244094488188977,
                    "duration": 0.06535933333333332
                },
                {
                    "name": "B4",
                    "midi": 71,
                    "time": 50.58812399999999,
                    "velocity": 0.7244094488188977,
                    "duration": 0.06535933333333332
                },
                {
                    "name": "C5",
                    "midi": 72,
                    "time": 50.68616299999999,
                    "velocity": 0.7244094488188977,
                    "duration": 0.06535933333333332
                },
                {
                    "name": "D5",
                    "midi": 74,
                    "time": 50.78420199999999,
                    "velocity": 0.7244094488188977,
                    "duration": 0.06535933333333332
                },
                {
                    "name": "E5",
                    "midi": 76,
                    "time": 50.88224099999999,
                    "velocity": 0.7244094488188977,
                    "duration": 0.06535933333333332
                },
                {
                    "name": "E5",
                    "midi": 76,
                    "time": 50.98027999999999,
                    "velocity": 0.7244094488188977,
                    "duration": 0.06535933333333332
                },
                {
                    "name": "D5",
                    "midi": 74,
                    "time": 51.07831899999999,
                    "velocity": 0.7244094488188977,
                    "duration": 0.06535933333333332
                },
                {
                    "name": "B4",
                    "midi": 71,
                    "time": 51.17635799999999,
                    "velocity": 0.7244094488188977,
                    "duration": 0.06535933333333332
                },
                {
                    "name": "D5",
                    "midi": 74,
                    "time": 51.27439699999999,
                    "velocity": 0.7244094488188977,
                    "duration": 0.06535933333333332
                },
                {
                    "name": "D5",
                    "midi": 74,
                    "time": 51.37243599999999,
                    "velocity": 0.7244094488188977,
                    "duration": 0.06535933333333332
                },
                {
                    "name": "C5",
                    "midi": 72,
                    "time": 51.47047499999999,
                    "velocity": 0.7244094488188977,
                    "duration": 0.06535933333333332
                },
                {
                    "name": "B4",
                    "midi": 71,
                    "time": 51.56851399999999,
                    "velocity": 0.7244094488188977,
                    "duration": 0.06535933333333332
                },
                {
                    "name": "A4",
                    "midi": 69,
                    "time": 51.66655299999999,
                    "velocity": 0.7244094488188977,
                    "duration": 0.06535933333333332
                },
                {
                    "name": "G4",
                    "midi": 67,
                    "time": 51.76459199999999,
                    "velocity": 0.7244094488188977,
                    "duration": 0.06535933333333332
                },
                {
                    "name": "D6",
                    "midi": 86,
                    "time": 51.86263099999999,
                    "velocity": 0.7244094488188977,
                    "duration": 0.06535933333333332
                },
                {
                    "name": "B5",
                    "midi": 83,
                    "time": 51.96066999999999,
                    "velocity": 0.7244094488188977,
                    "duration": 0.06535933333333332
                },
                {
                    "name": "A5",
                    "midi": 81,
                    "time": 52.05870899999999,
                    "velocity": 0.7244094488188977,
                    "duration": 0.06535933333333332
                },
                {
                    "name": "G#5",
                    "midi": 80,
                    "time": 52.15674799999999,
                    "velocity": 0.7244094488188977,
                    "duration": 0.06535933333333332
                },
                {
                    "name": "B5",
                    "midi": 83,
                    "time": 52.25478699999999,
                    "velocity": 0.7244094488188977,
                    "duration": 0.06535933333333332
                },
                {
                    "name": "E5",
                    "midi": 76,
                    "time": 52.35282599999999,
                    "velocity": 0.7244094488188977,
                    "duration": 0.06535933333333332
                },
                {
                    "name": "G#5",
                    "midi": 80,
                    "time": 52.45086499999999,
                    "velocity": 0.7244094488188977,
                    "duration": 0.06535933333333332
                },
                {
                    "name": "A5",
                    "midi": 81,
                    "time": 52.54890399999999,
                    "velocity": 0.7244094488188977,
                    "duration": 0.06535933333333332
                },
                {
                    "name": "C6",
                    "midi": 84,
                    "time": 52.64694299999999,
                    "velocity": 0.7244094488188977,
                    "duration": 0.06535933333333332
                },
                {
                    "name": "A5",
                    "midi": 81,
                    "time": 52.74498199999999,
                    "velocity": 0.7244094488188977,
                    "duration": 0.06535933333333332
                },
                {
                    "name": "G5",
                    "midi": 79,
                    "time": 52.84302099999999,
                    "velocity": 0.7244094488188977,
                    "duration": 0.06535933333333332
                },
                {
                    "name": "F#5",
                    "midi": 78,
                    "time": 52.94105999999999,
                    "velocity": 0.7244094488188977,
                    "duration": 0.06535933333333332
                },
                {
                    "name": "A5",
                    "midi": 81,
                    "time": 53.03909899999999,
                    "velocity": 0.7244094488188977,
                    "duration": 0.06535933333333332
                },
                {
                    "name": "D5",
                    "midi": 74,
                    "time": 53.13713799999999,
                    "velocity": 0.7244094488188977,
                    "duration": 0.06535933333333332
                },
                {
                    "name": "F#5",
                    "midi": 78,
                    "time": 53.23517699999999,
                    "velocity": 0.7244094488188977,
                    "duration": 0.06535933333333332
                },
                {
                    "name": "G5",
                    "midi": 79,
                    "time": 53.33321599999999,
                    "velocity": 0.7244094488188977,
                    "duration": 0.06535933333333332
                },
                {
                    "name": "B5",
                    "midi": 83,
                    "time": 53.43125499999999,
                    "velocity": 0.7244094488188977,
                    "duration": 0.06535933333333332
                },
                {
                    "name": "G5",
                    "midi": 79,
                    "time": 53.52929399999999,
                    "velocity": 0.7244094488188977,
                    "duration": 0.06535933333333332
                },
                {
                    "name": "F#5",
                    "midi": 78,
                    "time": 53.62733299999999,
                    "velocity": 0.7244094488188977,
                    "duration": 0.06535933333333332
                },
                {
                    "name": "E5",
                    "midi": 76,
                    "time": 53.72537199999999,
                    "velocity": 0.7244094488188977,
                    "duration": 0.06535933333333332
                },
                {
                    "name": "G5",
                    "midi": 79,
                    "time": 53.82341099999999,
                    "velocity": 0.7244094488188977,
                    "duration": 0.06535933333333332
                },
                {
                    "name": "C5",
                    "midi": 72,
                    "time": 53.92144999999999,
                    "velocity": 0.7244094488188977,
                    "duration": 0.06535933333333332
                },
                {
                    "name": "E5",
                    "midi": 76,
                    "time": 54.01948899999999,
                    "velocity": 0.7244094488188977,
                    "duration": 0.06535933333333332
                },
                {
                    "name": "F#5",
                    "midi": 78,
                    "time": 54.11752799999999,
                    "velocity": 0.7244094488188977,
                    "duration": 0.06535933333333332
                },
                {
                    "name": "A5",
                    "midi": 81,
                    "time": 54.21556699999999,
                    "velocity": 0.7244094488188977,
                    "duration": 0.06535933333333332
                },
                {
                    "name": "F#5",
                    "midi": 78,
                    "time": 54.31360599999999,
                    "velocity": 0.7244094488188977,
                    "duration": 0.06535933333333332
                },
                {
                    "name": "E5",
                    "midi": 76,
                    "time": 54.41164499999999,
                    "velocity": 0.7244094488188977,
                    "duration": 0.06535933333333332
                },
                {
                    "name": "D#5",
                    "midi": 75,
                    "time": 54.50968399999999,
                    "velocity": 0.7244094488188977,
                    "duration": 0.06535933333333332
                },
                {
                    "name": "F#5",
                    "midi": 78,
                    "time": 54.60772299999999,
                    "velocity": 0.7244094488188977,
                    "duration": 0.06535933333333332
                },
                {
                    "name": "B4",
                    "midi": 71,
                    "time": 54.70576199999999,
                    "velocity": 0.7244094488188977,
                    "duration": 0.06535933333333332
                },
                {
                    "name": "D#5",
                    "midi": 75,
                    "time": 54.80380099999999,
                    "velocity": 0.7244094488188977,
                    "duration": 0.06535933333333332
                },
                {
                    "name": "E5",
                    "midi": 76,
                    "time": 54.90183999999999,
                    "velocity": 0.7244094488188977,
                    "duration": 0.06535933333333332
                },
                {
                    "name": "G5",
                    "midi": 79,
                    "time": 54.99987899999999,
                    "velocity": 0.7244094488188977,
                    "duration": 0.06535933333333332
                },
                {
                    "name": "E5",
                    "midi": 76,
                    "time": 55.09791799999999,
                    "velocity": 0.7244094488188977,
                    "duration": 0.06535933333333332
                },
                {
                    "name": "D5",
                    "midi": 74,
                    "time": 55.19595699999999,
                    "velocity": 0.7244094488188977,
                    "duration": 0.06535933333333332
                },
                {
                    "name": "C#5",
                    "midi": 73,
                    "time": 55.29399599999999,
                    "velocity": 0.7244094488188977,
                    "duration": 0.06535933333333332
                },
                {
                    "name": "E5",
                    "midi": 76,
                    "time": 55.39203499999999,
                    "velocity": 0.7244094488188977,
                    "duration": 0.06535933333333332
                },
                {
                    "name": "A4",
                    "midi": 69,
                    "time": 55.49007399999999,
                    "velocity": 0.7244094488188977,
                    "duration": 0.06535933333333332
                },
                {
                    "name": "C#5",
                    "midi": 73,
                    "time": 55.58811299999999,
                    "velocity": 0.7244094488188977,
                    "duration": 0.06535933333333332
                },
                {
                    "name": "D5",
                    "midi": 74,
                    "time": 55.68615199999999,
                    "velocity": 0.7244094488188977,
                    "duration": 0.06535933333333332
                },
                {
                    "name": "E5",
                    "midi": 76,
                    "time": 55.78419099999999,
                    "velocity": 0.7244094488188977,
                    "duration": 0.06535933333333332
                },
                {
                    "name": "F#5",
                    "midi": 78,
                    "time": 55.88222999999999,
                    "velocity": 0.7244094488188977,
                    "duration": 0.06535933333333332
                },
                {
                    "name": "G5",
                    "midi": 79,
                    "time": 55.98026899999999,
                    "velocity": 0.7244094488188977,
                    "duration": 0.06535933333333332
                },
                {
                    "name": "A5",
                    "midi": 81,
                    "time": 56.07830799999999,
                    "velocity": 0.7244094488188977,
                    "duration": 0.06535933333333332
                },
                {
                    "name": "B5",
                    "midi": 83,
                    "time": 56.17634699999999,
                    "velocity": 0.7244094488188977,
                    "duration": 0.06535933333333332
                },
                {
                    "name": "C6",
                    "midi": 84,
                    "time": 56.27438599999999,
                    "velocity": 0.7244094488188977,
                    "duration": 0.06535933333333332
                },
                {
                    "name": "D6",
                    "midi": 86,
                    "time": 56.37242499999999,
                    "velocity": 0.7244094488188977,
                    "duration": 0.06535933333333332
                },
                {
                    "name": "C6",
                    "midi": 84,
                    "time": 56.47046399999999,
                    "velocity": 0.7244094488188977,
                    "duration": 0.06535933333333332
                },
                {
                    "name": "B5",
                    "midi": 83,
                    "time": 56.56850299999999,
                    "velocity": 0.7244094488188977,
                    "duration": 0.06535933333333332
                },
                {
                    "name": "D6",
                    "midi": 86,
                    "time": 56.66654199999999,
                    "velocity": 0.7244094488188977,
                    "duration": 0.06535933333333332
                },
                {
                    "name": "B5",
                    "midi": 83,
                    "time": 56.76458099999999,
                    "velocity": 0.7244094488188977,
                    "duration": 0.06535933333333332
                },
                {
                    "name": "B5",
                    "midi": 83,
                    "time": 56.86261999999999,
                    "velocity": 0.7244094488188977,
                    "duration": 0.06535933333333332
                },
                {
                    "name": "A5",
                    "midi": 81,
                    "time": 56.96065899999999,
                    "velocity": 0.7244094488188977,
                    "duration": 0.06535933333333332
                },
                {
                    "name": "C6",
                    "midi": 84,
                    "time": 57.05869799999999,
                    "velocity": 0.7244094488188977,
                    "duration": 0.06535933333333332
                },
                {
                    "name": "A5",
                    "midi": 81,
                    "time": 57.15673699999999,
                    "velocity": 0.7244094488188977,
                    "duration": 0.06535933333333332
                },
                {
                    "name": "A5",
                    "midi": 81,
                    "time": 57.25477599999999,
                    "velocity": 0.7244094488188977,
                    "duration": 0.06535933333333332
                },
                {
                    "name": "G5",
                    "midi": 79,
                    "time": 57.35281499999999,
                    "velocity": 0.7244094488188977,
                    "duration": 0.06535933333333332
                },
                {
                    "name": "B5",
                    "midi": 83,
                    "time": 57.45085399999999,
                    "velocity": 0.7244094488188977,
                    "duration": 0.06535933333333332
                },
                {
                    "name": "G5",
                    "midi": 79,
                    "time": 57.54889299999999,
                    "velocity": 0.7244094488188977,
                    "duration": 0.06535933333333332
                },
                {
                    "name": "G5",
                    "midi": 79,
                    "time": 57.64693199999999,
                    "velocity": 0.7244094488188977,
                    "duration": 0.06535933333333332
                },
                {
                    "name": "F#5",
                    "midi": 78,
                    "time": 57.74497099999999,
                    "velocity": 0.7244094488188977,
                    "duration": 0.06535933333333332
                },
                {
                    "name": "A5",
                    "midi": 81,
                    "time": 57.84300999999999,
                    "velocity": 0.7244094488188977,
                    "duration": 0.06535933333333332
                },
                {
                    "name": "F#5",
                    "midi": 78,
                    "time": 57.94104899999999,
                    "velocity": 0.7244094488188977,
                    "duration": 0.06535933333333332
                },
                {
                    "name": "G5",
                    "midi": 79,
                    "time": 58.03908799999999,
                    "velocity": 0.7244094488188977,
                    "duration": 0.06535933333333332
                },
                {
                    "name": "D5",
                    "midi": 74,
                    "time": 58.13712699999999,
                    "velocity": 0.7244094488188977,
                    "duration": 0.06535933333333332
                },
                {
                    "name": "B4",
                    "midi": 71,
                    "time": 58.23516599999999,
                    "velocity": 0.7244094488188977,
                    "duration": 0.06535933333333332
                },
                {
                    "name": "A4",
                    "midi": 69,
                    "time": 58.33320499999999,
                    "velocity": 0.7244094488188977,
                    "duration": 0.06535933333333332
                },
                {
                    "name": "G#4",
                    "midi": 68,
                    "time": 58.43124399999999,
                    "velocity": 0.7244094488188977,
                    "duration": 0.06535933333333332
                },
                {
                    "name": "F5",
                    "midi": 77,
                    "time": 58.52928299999999,
                    "velocity": 0.7244094488188977,
                    "duration": 0.06535933333333332
                },
                {
                    "name": "E5",
                    "midi": 76,
                    "time": 58.62732199999999,
                    "velocity": 0.7244094488188977,
                    "duration": 0.06535933333333332
                },
                {
                    "name": "D5",
                    "midi": 74,
                    "time": 58.72536099999999,
                    "velocity": 0.7244094488188977,
                    "duration": 0.06535933333333332
                },
                {
                    "name": "C5",
                    "midi": 72,
                    "time": 58.82339999999999,
                    "velocity": 0.7244094488188977,
                    "duration": 0.06535933333333332
                },
                {
                    "name": "B4",
                    "midi": 71,
                    "time": 58.92143899999999,
                    "velocity": 0.7244094488188977,
                    "duration": 0.06535933333333332
                },
                {
                    "name": "A4",
                    "midi": 69,
                    "time": 59.01947799999999,
                    "velocity": 0.7244094488188977,
                    "duration": 0.06535933333333332
                },
                {
                    "name": "G4",
                    "midi": 67,
                    "time": 59.11751699999999,
                    "velocity": 0.7244094488188977,
                    "duration": 0.06535933333333332
                },
                {
                    "name": "F#4",
                    "midi": 66,
                    "time": 59.21555599999999,
                    "velocity": 0.7244094488188977,
                    "duration": 0.06535933333333332
                },
                {
                    "name": "E5",
                    "midi": 76,
                    "time": 59.31359499999999,
                    "velocity": 0.7244094488188977,
                    "duration": 0.06535933333333332
                },
                {
                    "name": "D5",
                    "midi": 74,
                    "time": 59.41163399999999,
                    "velocity": 0.7244094488188977,
                    "duration": 0.06535933333333332
                },
                {
                    "name": "C5",
                    "midi": 72,
                    "time": 59.50967299999999,
                    "velocity": 0.7244094488188977,
                    "duration": 0.06535933333333332
                },
                {
                    "name": "B4",
                    "midi": 71,
                    "time": 59.60771199999999,
                    "velocity": 0.7244094488188977,
                    "duration": 0.06535933333333332
                },
                {
                    "name": "A4",
                    "midi": 69,
                    "time": 59.70575099999999,
                    "velocity": 0.7244094488188977,
                    "duration": 0.06535933333333332
                },
                {
                    "name": "G4",
                    "midi": 67,
                    "time": 59.80378999999999,
                    "velocity": 0.7244094488188977,
                    "duration": 0.06535933333333332
                },
                {
                    "name": "F#4",
                    "midi": 66,
                    "time": 59.90182899999999,
                    "velocity": 0.7244094488188977,
                    "duration": 0.06535933333333332
                },
                {
                    "name": "E4",
                    "midi": 64,
                    "time": 59.99986799999999,
                    "velocity": 0.7244094488188977,
                    "duration": 0.06535933333333332
                },
                {
                    "name": "D5",
                    "midi": 74,
                    "time": 60.09790699999999,
                    "velocity": 0.7244094488188977,
                    "duration": 0.06535933333333332
                },
                {
                    "name": "C5",
                    "midi": 72,
                    "time": 60.19594599999999,
                    "velocity": 0.7244094488188977,
                    "duration": 0.06535933333333332
                },
                {
                    "name": "B4",
                    "midi": 71,
                    "time": 60.29398499999999,
                    "velocity": 0.7244094488188977,
                    "duration": 0.06535933333333332
                },
                {
                    "name": "A4",
                    "midi": 69,
                    "time": 60.39202399999999,
                    "velocity": 0.7244094488188977,
                    "duration": 0.06535933333333332
                },
                {
                    "name": "G4",
                    "midi": 67,
                    "time": 60.49006299999999,
                    "velocity": 0.7244094488188977,
                    "duration": 0.06535933333333332
                },
                {
                    "name": "F#4",
                    "midi": 66,
                    "time": 60.58810199999999,
                    "velocity": 0.7244094488188977,
                    "duration": 0.06535933333333332
                },
                {
                    "name": "E4",
                    "midi": 64,
                    "time": 60.68614099999999,
                    "velocity": 0.7244094488188977,
                    "duration": 0.06535933333333332
                },
                {
                    "name": "D#4",
                    "midi": 63,
                    "time": 60.78417999999999,
                    "velocity": 0.7244094488188977,
                    "duration": 0.06535933333333332
                },
                {
                    "name": "C5",
                    "midi": 72,
                    "time": 60.88221899999999,
                    "velocity": 0.7244094488188977,
                    "duration": 0.06535933333333332
                },
                {
                    "name": "B4",
                    "midi": 71,
                    "time": 60.98025799999999,
                    "velocity": 0.7244094488188977,
                    "duration": 0.06535933333333332
                },
                {
                    "name": "A4",
                    "midi": 69,
                    "time": 61.07829699999999,
                    "velocity": 0.7244094488188977,
                    "duration": 0.06535933333333332
                },
                {
                    "name": "G4",
                    "midi": 67,
                    "time": 61.17633599999999,
                    "velocity": 0.7244094488188977,
                    "duration": 0.06535933333333332
                },
                {
                    "name": "F#4",
                    "midi": 66,
                    "time": 61.27437499999999,
                    "velocity": 0.7244094488188977,
                    "duration": 0.06535933333333332
                },
                {
                    "name": "E4",
                    "midi": 64,
                    "time": 61.37241399999999,
                    "velocity": 0.7244094488188977,
                    "duration": 0.06535933333333332
                },
                {
                    "name": "D4",
                    "midi": 62,
                    "time": 61.47045299999999,
                    "velocity": 0.7244094488188977,
                    "duration": 0.06535933333333332
                },
                {
                    "name": "C#4",
                    "midi": 61,
                    "time": 61.56849199999999,
                    "velocity": 0.7244094488188977,
                    "duration": 0.06535933333333332
                },
                {
                    "name": "B4",
                    "midi": 71,
                    "time": 61.66653099999999,
                    "velocity": 0.7244094488188977,
                    "duration": 0.06535933333333332
                },
                {
                    "name": "A4",
                    "midi": 69,
                    "time": 61.76456999999999,
                    "velocity": 0.7244094488188977,
                    "duration": 0.06535933333333332
                },
                {
                    "name": "G4",
                    "midi": 67,
                    "time": 61.86260899999999,
                    "velocity": 0.7244094488188977,
                    "duration": 0.06535933333333332
                },
                {
                    "name": "F#4",
                    "midi": 66,
                    "time": 61.96064799999999,
                    "velocity": 0.7244094488188977,
                    "duration": 0.06535933333333332
                },
                {
                    "name": "D4",
                    "midi": 62,
                    "time": 62.05868699999999,
                    "velocity": 0.7244094488188977,
                    "duration": 0.06535933333333332
                },
                {
                    "name": "E4",
                    "midi": 64,
                    "time": 62.15672599999999,
                    "velocity": 0.7244094488188977,
                    "duration": 0.06535933333333332
                },
                {
                    "name": "F#4",
                    "midi": 66,
                    "time": 62.25476499999999,
                    "velocity": 0.7244094488188977,
                    "duration": 0.06535933333333332
                },
                {
                    "name": "G4",
                    "midi": 67,
                    "time": 62.35280399999999,
                    "velocity": 0.7244094488188977,
                    "duration": 0.06535933333333332
                },
                {
                    "name": "A4",
                    "midi": 69,
                    "time": 62.45084299999999,
                    "velocity": 0.7244094488188977,
                    "duration": 0.06535933333333332
                },
                {
                    "name": "B4",
                    "midi": 71,
                    "time": 62.54888199999999,
                    "velocity": 0.7244094488188977,
                    "duration": 0.06535933333333332
                },
                {
                    "name": "C5",
                    "midi": 72,
                    "time": 62.64692099999999,
                    "velocity": 0.7244094488188977,
                    "duration": 0.06535933333333332
                },
                {
                    "name": "D5",
                    "midi": 74,
                    "time": 62.74495999999999,
                    "velocity": 0.7244094488188977,
                    "duration": 0.06535933333333332
                },
                {
                    "name": "E5",
                    "midi": 76,
                    "time": 62.84299899999999,
                    "velocity": 0.7244094488188977,
                    "duration": 0.06535933333333332
                },
                {
                    "name": "D5",
                    "midi": 74,
                    "time": 62.94103799999999,
                    "velocity": 0.7244094488188977,
                    "duration": 0.06535933333333332
                },
                {
                    "name": "B4",
                    "midi": 71,
                    "time": 63.03907699999999,
                    "velocity": 0.7244094488188977,
                    "duration": 0.06535933333333332
                },
                {
                    "name": "C5",
                    "midi": 72,
                    "time": 63.13711599999999,
                    "velocity": 0.7244094488188977,
                    "duration": 0.06535933333333332
                },
                {
                    "name": "D5",
                    "midi": 74,
                    "time": 63.23515499999999,
                    "velocity": 0.7244094488188977,
                    "duration": 0.06535933333333332
                },
                {
                    "name": "C5",
                    "midi": 72,
                    "time": 63.33319399999999,
                    "velocity": 0.7244094488188977,
                    "duration": 0.06535933333333332
                },
                {
                    "name": "A4",
                    "midi": 69,
                    "time": 63.43123299999999,
                    "velocity": 0.7244094488188977,
                    "duration": 0.06535933333333332
                },
                {
                    "name": "B4",
                    "midi": 71,
                    "time": 63.52927199999999,
                    "velocity": 0.7244094488188977,
                    "duration": 0.06535933333333332
                },
                {
                    "name": "C5",
                    "midi": 72,
                    "time": 63.62731099999999,
                    "velocity": 0.7244094488188977,
                    "duration": 0.06535933333333332
                },
                {
                    "name": "B4",
                    "midi": 71,
                    "time": 63.72534999999999,
                    "velocity": 0.7244094488188977,
                    "duration": 0.06535933333333332
                },
                {
                    "name": "G4",
                    "midi": 67,
                    "time": 63.82338899999999,
                    "velocity": 0.7244094488188977,
                    "duration": 0.06535933333333332
                },
                {
                    "name": "A4",
                    "midi": 69,
                    "time": 63.92142799999999,
                    "velocity": 0.7244094488188977,
                    "duration": 0.06535933333333332
                },
                {
                    "name": "B4",
                    "midi": 71,
                    "time": 64.01946699999999,
                    "velocity": 0.7244094488188977,
                    "duration": 0.06535933333333332
                },
                {
                    "name": "A4",
                    "midi": 69,
                    "time": 64.11750599999999,
                    "velocity": 0.7244094488188977,
                    "duration": 0.06535933333333332
                },
                {
                    "name": "F#4",
                    "midi": 66,
                    "time": 64.21554499999999,
                    "velocity": 0.7244094488188977,
                    "duration": 0.06535933333333332
                },
                {
                    "name": "G4",
                    "midi": 67,
                    "time": 64.31358399999999,
                    "velocity": 0.7244094488188977,
                    "duration": 0.06535933333333332
                },
                {
                    "name": "B4",
                    "midi": 71,
                    "time": 64.41162299999999,
                    "velocity": 0.7244094488188977,
                    "duration": 0.06535933333333332
                },
                {
                    "name": "D5",
                    "midi": 74,
                    "time": 64.50966199999999,
                    "velocity": 0.7244094488188977,
                    "duration": 0.06535933333333332
                },
                {
                    "name": "G5",
                    "midi": 79,
                    "time": 64.60770099999999,
                    "velocity": 0.7244094488188977,
                    "duration": 0.06535933333333332
                },
                {
                    "name": "F#5",
                    "midi": 78,
                    "time": 64.70573999999999,
                    "velocity": 0.7244094488188977,
                    "duration": 0.06535933333333332
                },
                {
                    "name": "A5",
                    "midi": 81,
                    "time": 64.80377899999999,
                    "velocity": 0.7244094488188977,
                    "duration": 0.06535933333333332
                },
                {
                    "name": "F#5",
                    "midi": 78,
                    "time": 64.90181799999999,
                    "velocity": 0.7244094488188977,
                    "duration": 0.06535933333333332
                },
                {
                    "name": "E5",
                    "midi": 76,
                    "time": 64.99985699999999,
                    "velocity": 0.7244094488188977,
                    "duration": 0.06535933333333332
                },
                {
                    "name": "D5",
                    "midi": 74,
                    "time": 65.09789599999999,
                    "velocity": 0.7244094488188977,
                    "duration": 0.06535933333333332
                },
                {
                    "name": "F#5",
                    "midi": 78,
                    "time": 65.19593499999999,
                    "velocity": 0.7244094488188977,
                    "duration": 0.06535933333333332
                },
                {
                    "name": "A5",
                    "midi": 81,
                    "time": 65.29397399999999,
                    "velocity": 0.7244094488188977,
                    "duration": 0.06535933333333332
                },
                {
                    "name": "D6",
                    "midi": 86,
                    "time": 65.39201299999999,
                    "velocity": 0.7244094488188977,
                    "duration": 0.06535933333333332
                },
                {
                    "name": "C#6",
                    "midi": 85,
                    "time": 65.49005199999999,
                    "velocity": 0.7244094488188977,
                    "duration": 0.06535933333333332
                },
                {
                    "name": "D6",
                    "midi": 86,
                    "time": 65.58809099999999,
                    "velocity": 0.7244094488188977,
                    "duration": 0.06535933333333332
                },
                {
                    "name": "C6",
                    "midi": 84,
                    "time": 65.68612999999999,
                    "velocity": 0.7244094488188977,
                    "duration": 0.06535933333333332
                },
                {
                    "name": "A5",
                    "midi": 81,
                    "time": 65.78416899999999,
                    "velocity": 0.7244094488188977,
                    "duration": 0.06535933333333332
                },
                {
                    "name": "G5",
                    "midi": 79,
                    "time": 65.88220799999999,
                    "velocity": 0.7244094488188977,
                    "duration": 0.06535933333333332
                },
                {
                    "name": "B5",
                    "midi": 83,
                    "time": 65.98024699999999,
                    "velocity": 0.7244094488188977,
                    "duration": 0.06535933333333332
                },
                {
                    "name": "A5",
                    "midi": 81,
                    "time": 66.07828599999999,
                    "velocity": 0.7244094488188977,
                    "duration": 0.06535933333333332
                },
                {
                    "name": "G5",
                    "midi": 79,
                    "time": 66.17632499999999,
                    "velocity": 0.7244094488188977,
                    "duration": 0.06535933333333332
                },
                {
                    "name": "F#5",
                    "midi": 78,
                    "time": 66.27436399999999,
                    "velocity": 0.7244094488188977,
                    "duration": 0.06535933333333332
                },
                {
                    "name": "A5",
                    "midi": 81,
                    "time": 66.37240299999999,
                    "velocity": 0.7244094488188977,
                    "duration": 0.06535933333333332
                },
                {
                    "name": "G5",
                    "midi": 79,
                    "time": 66.47044199999999,
                    "velocity": 0.7244094488188977,
                    "duration": 0.06535933333333332
                },
                {
                    "name": "E5",
                    "midi": 76,
                    "time": 66.56848099999999,
                    "velocity": 0.7244094488188977,
                    "duration": 0.06535933333333332
                },
                {
                    "name": "D5",
                    "midi": 74,
                    "time": 66.66651999999999,
                    "velocity": 0.7244094488188977,
                    "duration": 0.06535933333333332
                },
                {
                    "name": "C#5",
                    "midi": 73,
                    "time": 66.76455899999999,
                    "velocity": 0.7244094488188977,
                    "duration": 0.06535933333333332
                },
                {
                    "name": "E5",
                    "midi": 76,
                    "time": 66.86259799999999,
                    "velocity": 0.7244094488188977,
                    "duration": 0.06535933333333332
                },
                {
                    "name": "D5",
                    "midi": 74,
                    "time": 66.96063699999999,
                    "velocity": 0.7244094488188977,
                    "duration": 0.06535933333333332
                },
                {
                    "name": "C5",
                    "midi": 72,
                    "time": 67.05867599999999,
                    "velocity": 0.7244094488188977,
                    "duration": 0.06535933333333332
                },
                {
                    "name": "B4",
                    "midi": 71,
                    "time": 67.15671499999999,
                    "velocity": 0.7244094488188977,
                    "duration": 0.06535933333333332
                },
                {
                    "name": "C5",
                    "midi": 72,
                    "time": 67.25475399999999,
                    "velocity": 0.7244094488188977,
                    "duration": 0.06535933333333332
                },
                {
                    "name": "A4",
                    "midi": 69,
                    "time": 67.35279299999999,
                    "velocity": 0.7244094488188977,
                    "duration": 0.06535933333333332
                },
                {
                    "name": "G4",
                    "midi": 67,
                    "time": 67.45083199999999,
                    "velocity": 0.7244094488188977,
                    "duration": 0.06535933333333332
                },
                {
                    "name": "B4",
                    "midi": 71,
                    "time": 67.54887099999999,
                    "velocity": 0.7244094488188977,
                    "duration": 0.06535933333333332
                },
                {
                    "name": "A4",
                    "midi": 69,
                    "time": 67.64690999999999,
                    "velocity": 0.7244094488188977,
                    "duration": 0.06535933333333332
                },
                {
                    "name": "G4",
                    "midi": 67,
                    "time": 67.74494899999999,
                    "velocity": 0.7244094488188977,
                    "duration": 0.06535933333333332
                },
                {
                    "name": "F#4",
                    "midi": 66,
                    "time": 67.84298799999999,
                    "velocity": 0.7244094488188977,
                    "duration": 0.06535933333333332
                },
                {
                    "name": "A4",
                    "midi": 69,
                    "time": 67.94102699999999,
                    "velocity": 0.7244094488188977,
                    "duration": 0.06535933333333332
                },
                {
                    "name": "G4",
                    "midi": 67,
                    "time": 68.03906599999999,
                    "velocity": 0.7244094488188977,
                    "duration": 0.06535933333333332
                },
                {
                    "name": "E4",
                    "midi": 64,
                    "time": 68.13710499999999,
                    "velocity": 0.7244094488188977,
                    "duration": 0.06535933333333332
                },
                {
                    "name": "D4",
                    "midi": 62,
                    "time": 68.23514399999999,
                    "velocity": 0.7244094488188977,
                    "duration": 0.06535933333333332
                },
                {
                    "name": "C#4",
                    "midi": 61,
                    "time": 68.33318299999999,
                    "velocity": 0.7244094488188977,
                    "duration": 0.06535933333333332
                },
                {
                    "name": "E4",
                    "midi": 64,
                    "time": 68.43122199999999,
                    "velocity": 0.7244094488188977,
                    "duration": 0.06535933333333332
                },
                {
                    "name": "D4",
                    "midi": 62,
                    "time": 68.52926099999999,
                    "velocity": 0.7244094488188977,
                    "duration": 0.06535933333333332
                },
                {
                    "name": "C4",
                    "midi": 60,
                    "time": 68.62729999999999,
                    "velocity": 0.7244094488188977,
                    "duration": 0.06535933333333332
                },
                {
                    "name": "B3",
                    "midi": 59,
                    "time": 68.72533899999999,
                    "velocity": 0.7244094488188977,
                    "duration": 0.06535933333333332
                },
                {
                    "name": "C4",
                    "midi": 60,
                    "time": 68.82337799999999,
                    "velocity": 0.7244094488188977,
                    "duration": 0.06535933333333332
                },
                {
                    "name": "A3",
                    "midi": 57,
                    "time": 68.92141699999999,
                    "velocity": 0.7244094488188977,
                    "duration": 0.06535933333333332
                },
                {
                    "name": "G3",
                    "midi": 55,
                    "time": 69.01945599999999,
                    "velocity": 0.7244094488188977,
                    "duration": 0.06535933333333332
                },
                {
                    "name": "B3",
                    "midi": 59,
                    "time": 69.11749499999999,
                    "velocity": 0.7244094488188977,
                    "duration": 0.06535933333333332
                },
                {
                    "name": "D4",
                    "midi": 62,
                    "time": 69.21553399999999,
                    "velocity": 0.7244094488188977,
                    "duration": 0.06535933333333332
                },
                {
                    "name": "G4",
                    "midi": 67,
                    "time": 69.31357299999999,
                    "velocity": 0.7244094488188977,
                    "duration": 0.06535933333333332
                },
                {
                    "name": "F#4",
                    "midi": 66,
                    "time": 69.41161199999999,
                    "velocity": 0.7244094488188977,
                    "duration": 0.06535933333333332
                },
                {
                    "name": "D4",
                    "midi": 62,
                    "time": 69.50965099999999,
                    "velocity": 0.7244094488188977,
                    "duration": 0.06535933333333332
                },
                {
                    "name": "C4",
                    "midi": 60,
                    "time": 69.60768999999999,
                    "velocity": 0.7244094488188977,
                    "duration": 0.06535933333333332
                },
                {
                    "name": "A3",
                    "midi": 57,
                    "time": 69.70572899999999,
                    "velocity": 0.7244094488188977,
                    "duration": 0.06535933333333332
                },
                {
                    "name": "G3",
                    "midi": 55,
                    "time": 69.80376799999999,
                    "velocity": 0.7244094488188977,
                    "duration": 0.06535933333333332
                },
                {
                    "name": "B3",
                    "midi": 59,
                    "time": 69.90180699999999,
                    "velocity": 0.7244094488188977,
                    "duration": 0.06535933333333332
                },
                {
                    "name": "D4",
                    "midi": 62,
                    "time": 69.99984599999999,
                    "velocity": 0.7244094488188977,
                    "duration": 0.06535933333333332
                },
                {
                    "name": "G4",
                    "midi": 67,
                    "time": 70.09788499999999,
                    "velocity": 0.7244094488188977,
                    "duration": 0.06535933333333332
                },
                {
                    "name": "F#4",
                    "midi": 66,
                    "time": 70.19592399999999,
                    "velocity": 0.7244094488188977,
                    "duration": 0.06535933333333332
                },
                {
                    "name": "D4",
                    "midi": 62,
                    "time": 70.29396299999999,
                    "velocity": 0.7244094488188977,
                    "duration": 0.06535933333333332
                },
                {
                    "name": "C4",
                    "midi": 60,
                    "time": 70.39200199999999,
                    "velocity": 0.7244094488188977,
                    "duration": 0.06535933333333332
                },
                {
                    "name": "A3",
                    "midi": 57,
                    "time": 70.49004099999999,
                    "velocity": 0.7244094488188977,
                    "duration": 0.06535933333333332
                },
                {
                    "name": "G3",
                    "midi": 55,
                    "time": 70.58807999999999,
                    "velocity": 0.7244094488188977,
                    "duration": 0.06535933333333332
                },
                {
                    "name": "B3",
                    "midi": 59,
                    "time": 70.68611899999999,
                    "velocity": 0.7244094488188977,
                    "duration": 0.06535933333333332
                },
                {
                    "name": "D4",
                    "midi": 62,
                    "time": 70.78415799999999,
                    "velocity": 0.7244094488188977,
                    "duration": 0.06535933333333332
                },
                {
                    "name": "G4",
                    "midi": 67,
                    "time": 70.88219699999999,
                    "velocity": 0.7244094488188977,
                    "duration": 0.06535933333333332
                },
                {
                    "name": "B4",
                    "midi": 71,
                    "time": 70.98023599999999,
                    "velocity": 0.7244094488188977,
                    "duration": 0.06535933333333332
                },
                {
                    "name": "D5",
                    "midi": 74,
                    "time": 71.07827499999999,
                    "velocity": 0.7244094488188977,
                    "duration": 0.06535933333333332
                },
                {
                    "name": "F#5",
                    "midi": 78,
                    "time": 71.17631399999999,
                    "velocity": 0.7244094488188977,
                    "duration": 0.06535933333333332
                },
                {
                    "name": "G5",
                    "midi": 79,
                    "time": 71.27435299999999,
                    "velocity": 0.7244094488188977,
                    "duration": 0.06535933333333332
                },
                {
                    "name": "F#5",
                    "midi": 78,
                    "time": 71.37239199999999,
                    "velocity": 0.7244094488188977,
                    "duration": 0.06535933333333332
                },
                {
                    "name": "G5",
                    "midi": 79,
                    "time": 71.47043099999999,
                    "velocity": 0.7244094488188977,
                    "duration": 0.06535933333333332
                },
                {
                    "name": "F#5",
                    "midi": 78,
                    "time": 71.56846999999999,
                    "velocity": 0.7244094488188977,
                    "duration": 0.06535933333333332
                },
                {
                    "name": "G5",
                    "midi": 79,
                    "time": 71.66650899999999,
                    "velocity": 0.7244094488188977,
                    "duration": 0.06535933333333332
                },
                {
                    "name": "F#5",
                    "midi": 78,
                    "time": 71.76454799999999,
                    "velocity": 0.7244094488188977,
                    "duration": 0.06535933333333332
                },
                {
                    "name": "G5",
                    "midi": 79,
                    "time": 71.86258699999999,
                    "velocity": 0.7244094488188977,
                    "duration": 0.06535933333333332
                },
                {
                    "name": "F#5",
                    "midi": 78,
                    "time": 71.96062599999999,
                    "velocity": 0.7244094488188977,
                    "duration": 0.06535933333333332
                },
                {
                    "name": "G5",
                    "midi": 79,
                    "time": 72.05866499999999,
                    "velocity": 0.7244094488188977,
                    "duration": 0.06535933333333332
                },
                {
                    "name": "G#5",
                    "midi": 80,
                    "time": 72.15670399999999,
                    "velocity": 0.7244094488188977,
                    "duration": 0.06535933333333332
                },
                {
                    "name": "A5",
                    "midi": 81,
                    "time": 72.25474299999999,
                    "velocity": 0.7244094488188977,
                    "duration": 0.06535933333333332
                },
                {
                    "name": "G#5",
                    "midi": 80,
                    "time": 72.35278199999999,
                    "velocity": 0.7244094488188977,
                    "duration": 0.06535933333333332
                },
                {
                    "name": "A5",
                    "midi": 81,
                    "time": 72.45082099999999,
                    "velocity": 0.7244094488188977,
                    "duration": 0.06535933333333332
                },
                {
                    "name": "G#5",
                    "midi": 80,
                    "time": 72.54885999999999,
                    "velocity": 0.7244094488188977,
                    "duration": 0.06535933333333332
                },
                {
                    "name": "A5",
                    "midi": 81,
                    "time": 72.64689899999999,
                    "velocity": 0.7244094488188977,
                    "duration": 0.06535933333333332
                },
                {
                    "name": "G#5",
                    "midi": 80,
                    "time": 72.74493799999999,
                    "velocity": 0.7244094488188977,
                    "duration": 0.06535933333333332
                },
                {
                    "name": "A5",
                    "midi": 81,
                    "time": 72.84297699999999,
                    "velocity": 0.7244094488188977,
                    "duration": 0.06535933333333332
                },
                {
                    "name": "G5",
                    "midi": 79,
                    "time": 72.94101599999999,
                    "velocity": 0.7244094488188977,
                    "duration": 0.06535933333333332
                },
                {
                    "name": "F5",
                    "midi": 77,
                    "time": 73.03905499999999,
                    "velocity": 0.7244094488188977,
                    "duration": 0.06535933333333332
                },
                {
                    "name": "E5",
                    "midi": 76,
                    "time": 73.13709399999999,
                    "velocity": 0.7244094488188977,
                    "duration": 0.06535933333333332
                },
                {
                    "name": "F5",
                    "midi": 77,
                    "time": 73.23513299999999,
                    "velocity": 0.7244094488188977,
                    "duration": 0.06535933333333332
                },
                {
                    "name": "G5",
                    "midi": 79,
                    "time": 73.33317199999999,
                    "velocity": 0.7244094488188977,
                    "duration": 0.06535933333333332
                },
                {
                    "name": "F5",
                    "midi": 77,
                    "time": 73.43121099999999,
                    "velocity": 0.7244094488188977,
                    "duration": 0.06535933333333332
                },
                {
                    "name": "E5",
                    "midi": 76,
                    "time": 73.52924999999999,
                    "velocity": 0.7244094488188977,
                    "duration": 0.06535933333333332
                },
                {
                    "name": "D5",
                    "midi": 74,
                    "time": 73.62728899999999,
                    "velocity": 0.7244094488188977,
                    "duration": 0.06535933333333332
                },
                {
                    "name": "C5",
                    "midi": 72,
                    "time": 73.72532799999999,
                    "velocity": 0.7244094488188977,
                    "duration": 0.06535933333333332
                },
                {
                    "name": "B4",
                    "midi": 71,
                    "time": 73.82336699999999,
                    "velocity": 0.7244094488188977,
                    "duration": 0.06535933333333332
                },
                {
                    "name": "D5",
                    "midi": 74,
                    "time": 73.92140599999999,
                    "velocity": 0.7244094488188977,
                    "duration": 0.06535933333333332
                },
                {
                    "name": "C5",
                    "midi": 72,
                    "time": 74.01944499999999,
                    "velocity": 0.7244094488188977,
                    "duration": 0.06535933333333332
                },
                {
                    "name": "B4",
                    "midi": 71,
                    "time": 74.11748399999999,
                    "velocity": 0.7244094488188977,
                    "duration": 0.06535933333333332
                },
                {
                    "name": "C5",
                    "midi": 72,
                    "time": 74.21552299999999,
                    "velocity": 0.7244094488188977,
                    "duration": 0.06535933333333332
                },
                {
                    "name": "D5",
                    "midi": 74,
                    "time": 74.31356199999999,
                    "velocity": 0.7244094488188977,
                    "duration": 0.06535933333333332
                },
                {
                    "name": "E5",
                    "midi": 76,
                    "time": 74.41160099999999,
                    "velocity": 0.7244094488188977,
                    "duration": 0.06535933333333332
                },
                {
                    "name": "F5",
                    "midi": 77,
                    "time": 74.50963999999999,
                    "velocity": 0.7244094488188977,
                    "duration": 0.06535933333333332
                },
                {
                    "name": "E5",
                    "midi": 76,
                    "time": 74.60767899999999,
                    "velocity": 0.7244094488188977,
                    "duration": 0.06535933333333332
                },
                {
                    "name": "D5",
                    "midi": 74,
                    "time": 74.70571799999999,
                    "velocity": 0.7244094488188977,
                    "duration": 0.06535933333333332
                },
                {
                    "name": "C5",
                    "midi": 72,
                    "time": 74.80375699999999,
                    "velocity": 0.7244094488188977,
                    "duration": 0.06535933333333332
                },
                {
                    "name": "B4",
                    "midi": 71,
                    "time": 74.90179599999999,
                    "velocity": 0.7244094488188977,
                    "duration": 0.06535933333333332
                },
                {
                    "name": "D5",
                    "midi": 74,
                    "time": 74.99983499999999,
                    "velocity": 0.7244094488188977,
                    "duration": 0.06535933333333332
                },
                {
                    "name": "B4",
                    "midi": 71,
                    "time": 75.09787399999999,
                    "velocity": 0.7244094488188977,
                    "duration": 0.06535933333333332
                },
                {
                    "name": "A4",
                    "midi": 69,
                    "time": 75.19591299999999,
                    "velocity": 0.7244094488188977,
                    "duration": 0.06535933333333332
                },
                {
                    "name": "G#4",
                    "midi": 68,
                    "time": 75.29395199999999,
                    "velocity": 0.7244094488188977,
                    "duration": 0.06535933333333332
                },
                {
                    "name": "A4",
                    "midi": 69,
                    "time": 75.39199099999999,
                    "velocity": 0.7244094488188977,
                    "duration": 0.06535933333333332
                },
                {
                    "name": "B4",
                    "midi": 71,
                    "time": 75.49002999999999,
                    "velocity": 0.7244094488188977,
                    "duration": 0.06535933333333332
                },
                {
                    "name": "A4",
                    "midi": 69,
                    "time": 75.58806899999999,
                    "velocity": 0.7244094488188977,
                    "duration": 0.06535933333333332
                },
                {
                    "name": "G#4",
                    "midi": 68,
                    "time": 75.68610799999999,
                    "velocity": 0.7244094488188977,
                    "duration": 0.06535933333333332
                },
                {
                    "name": "B4",
                    "midi": 71,
                    "time": 75.78414699999999,
                    "velocity": 0.7244094488188977,
                    "duration": 0.06535933333333332
                },
                {
                    "name": "G#4",
                    "midi": 68,
                    "time": 75.88218599999999,
                    "velocity": 0.7244094488188977,
                    "duration": 0.06535933333333332
                },
                {
                    "name": "F4",
                    "midi": 65,
                    "time": 75.98022499999999,
                    "velocity": 0.7244094488188977,
                    "duration": 0.06535933333333332
                },
                {
                    "name": "E4",
                    "midi": 64,
                    "time": 76.07826399999999,
                    "velocity": 0.7244094488188977,
                    "duration": 0.06535933333333332
                },
                {
                    "name": "F4",
                    "midi": 65,
                    "time": 76.17630299999999,
                    "velocity": 0.7244094488188977,
                    "duration": 0.06535933333333332
                },
                {
                    "name": "D#4",
                    "midi": 63,
                    "time": 76.27434199999999,
                    "velocity": 0.7244094488188977,
                    "duration": 0.06535933333333332
                },
                {
                    "name": "F4",
                    "midi": 65,
                    "time": 76.37238099999999,
                    "velocity": 0.7244094488188977,
                    "duration": 0.06535933333333332
                },
                {
                    "name": "E4",
                    "midi": 64,
                    "time": 76.47041999999999,
                    "velocity": 0.7244094488188977,
                    "duration": 0.06535933333333332
                },
                {
                    "name": "F4",
                    "midi": 65,
                    "time": 76.56845899999999,
                    "velocity": 0.7244094488188977,
                    "duration": 0.06535933333333332
                },
                {
                    "name": "D#4",
                    "midi": 63,
                    "time": 76.66649799999999,
                    "velocity": 0.7244094488188977,
                    "duration": 0.06535933333333332
                },
                {
                    "name": "F4",
                    "midi": 65,
                    "time": 76.76453699999999,
                    "velocity": 0.7244094488188977,
                    "duration": 0.06535933333333332
                },
                {
                    "name": "E4",
                    "midi": 64,
                    "time": 76.86257599999999,
                    "velocity": 0.7244094488188977,
                    "duration": 0.06535933333333332
                },
                {
                    "name": "F4",
                    "midi": 65,
                    "time": 76.96061499999999,
                    "velocity": 0.7244094488188977,
                    "duration": 0.06535933333333332
                },
                {
                    "name": "D#4",
                    "midi": 63,
                    "time": 77.05865399999999,
                    "velocity": 0.7244094488188977,
                    "duration": 0.06535933333333332
                },
                {
                    "name": "E4",
                    "midi": 64,
                    "time": 77.15669299999999,
                    "velocity": 0.7244094488188977,
                    "duration": 0.06535933333333332
                },
                {
                    "name": "F4",
                    "midi": 65,
                    "time": 77.25473199999999,
                    "velocity": 0.7244094488188977,
                    "duration": 0.06535933333333332
                },
                {
                    "name": "F#4",
                    "midi": 66,
                    "time": 77.35277099999999,
                    "velocity": 0.7244094488188977,
                    "duration": 0.06535933333333332
                },
                {
                    "name": "G4",
                    "midi": 67,
                    "time": 77.45080999999999,
                    "velocity": 0.7244094488188977,
                    "duration": 0.06535933333333332
                },
                {
                    "name": "G#4",
                    "midi": 68,
                    "time": 77.54884899999999,
                    "velocity": 0.7244094488188977,
                    "duration": 0.06535933333333332
                },
                {
                    "name": "A4",
                    "midi": 69,
                    "time": 77.64688799999999,
                    "velocity": 0.7244094488188977,
                    "duration": 0.06535933333333332
                },
                {
                    "name": "E5",
                    "midi": 76,
                    "time": 83.92138399999999,
                    "velocity": 0.7244094488188977,
                    "duration": 0.06535933333333332
                },
                {
                    "name": "F#5",
                    "midi": 78,
                    "time": 84.01942299999999,
                    "velocity": 0.7244094488188977,
                    "duration": 0.06535933333333332
                },
                {
                    "name": "E5",
                    "midi": 76,
                    "time": 84.11746199999999,
                    "velocity": 0.7244094488188977,
                    "duration": 0.06535933333333332
                },
                {
                    "name": "D#5",
                    "midi": 75,
                    "time": 84.21550099999999,
                    "velocity": 0.7244094488188977,
                    "duration": 0.06535933333333332
                },
                {
                    "name": "E5",
                    "midi": 76,
                    "time": 84.31353999999999,
                    "velocity": 0.7244094488188977,
                    "duration": 0.06535933333333332
                },
                {
                    "name": "F#5",
                    "midi": 78,
                    "time": 84.41157899999999,
                    "velocity": 0.7244094488188977,
                    "duration": 0.06535933333333332
                },
                {
                    "name": "G5",
                    "midi": 79,
                    "time": 84.50961799999999,
                    "velocity": 0.7244094488188977,
                    "duration": 0.06535933333333332
                },
                {
                    "name": "E5",
                    "midi": 76,
                    "time": 84.60765699999999,
                    "velocity": 0.7244094488188977,
                    "duration": 0.06535933333333332
                },
                {
                    "name": "F#5",
                    "midi": 78,
                    "time": 84.70569599999999,
                    "velocity": 0.7244094488188977,
                    "duration": 0.06535933333333332
                },
                {
                    "name": "E5",
                    "midi": 76,
                    "time": 84.80373499999999,
                    "velocity": 0.7244094488188977,
                    "duration": 0.06535933333333332
                },
                {
                    "name": "D#5",
                    "midi": 75,
                    "time": 84.90177399999999,
                    "velocity": 0.7244094488188977,
                    "duration": 0.06535933333333332
                },
                {
                    "name": "C5",
                    "midi": 72,
                    "time": 84.99981299999999,
                    "velocity": 0.7244094488188977,
                    "duration": 0.06535933333333332
                },
                {
                    "name": "B4",
                    "midi": 71,
                    "time": 85.09785199999999,
                    "velocity": 0.7244094488188977,
                    "duration": 0.06535933333333332
                },
                {
                    "name": "C#5",
                    "midi": 73,
                    "time": 85.19589099999999,
                    "velocity": 0.7244094488188977,
                    "duration": 0.06535933333333332
                },
                {
                    "name": "D#5",
                    "midi": 75,
                    "time": 85.29392999999999,
                    "velocity": 0.7244094488188977,
                    "duration": 0.06535933333333332
                },
                {
                    "name": "E5",
                    "midi": 76,
                    "time": 85.39196899999999,
                    "velocity": 0.7244094488188977,
                    "duration": 0.06535933333333332
                },
                {
                    "name": "F#5",
                    "midi": 78,
                    "time": 85.49000799999999,
                    "velocity": 0.7244094488188977,
                    "duration": 0.06535933333333332
                },
                {
                    "name": "G5",
                    "midi": 79,
                    "time": 85.58804699999999,
                    "velocity": 0.7244094488188977,
                    "duration": 0.06535933333333332
                },
                {
                    "name": "A5",
                    "midi": 81,
                    "time": 85.68608599999999,
                    "velocity": 0.7244094488188977,
                    "duration": 0.06535933333333332
                },
                {
                    "name": "G5",
                    "midi": 79,
                    "time": 85.78412499999999,
                    "velocity": 0.7244094488188977,
                    "duration": 0.06535933333333332
                },
                {
                    "name": "B5",
                    "midi": 83,
                    "time": 85.88216399999999,
                    "velocity": 0.7244094488188977,
                    "duration": 0.06535933333333332
                },
                {
                    "name": "A5",
                    "midi": 81,
                    "time": 85.98020299999999,
                    "velocity": 0.7244094488188977,
                    "duration": 0.06535933333333332
                },
                {
                    "name": "G5",
                    "midi": 79,
                    "time": 86.07824199999999,
                    "velocity": 0.7244094488188977,
                    "duration": 0.06535933333333332
                },
                {
                    "name": "F#5",
                    "midi": 78,
                    "time": 86.17628099999999,
                    "velocity": 0.7244094488188977,
                    "duration": 0.06535933333333332
                },
                {
                    "name": "G5",
                    "midi": 79,
                    "time": 86.27431999999999,
                    "velocity": 0.7244094488188977,
                    "duration": 0.06535933333333332
                },
                {
                    "name": "B5",
                    "midi": 83,
                    "time": 86.37235899999999,
                    "velocity": 0.7244094488188977,
                    "duration": 0.06535933333333332
                },
                {
                    "name": "A#5",
                    "midi": 82,
                    "time": 86.47039799999999,
                    "velocity": 0.7244094488188977,
                    "duration": 0.06535933333333332
                },
                {
                    "name": "B5",
                    "midi": 83,
                    "time": 86.56843699999999,
                    "velocity": 0.7244094488188977,
                    "duration": 0.06535933333333332
                },
                {
                    "name": "C6",
                    "midi": 84,
                    "time": 86.66647599999999,
                    "velocity": 0.7244094488188977,
                    "duration": 0.06535933333333332
                },
                {
                    "name": "B5",
                    "midi": 83,
                    "time": 86.76451499999999,
                    "velocity": 0.7244094488188977,
                    "duration": 0.06535933333333332
                },
                {
                    "name": "A5",
                    "midi": 81,
                    "time": 86.86255399999999,
                    "velocity": 0.7244094488188977,
                    "duration": 0.06535933333333332
                },
                {
                    "name": "G5",
                    "midi": 79,
                    "time": 86.96059299999999,
                    "velocity": 0.7244094488188977,
                    "duration": 0.06535933333333332
                },
                {
                    "name": "F#5",
                    "midi": 78,
                    "time": 87.05863199999999,
                    "velocity": 0.7244094488188977,
                    "duration": 0.06535933333333332
                },
                {
                    "name": "A5",
                    "midi": 81,
                    "time": 87.15667099999999,
                    "velocity": 0.7244094488188977,
                    "duration": 0.06535933333333332
                },
                {
                    "name": "G#5",
                    "midi": 80,
                    "time": 87.25470999999999,
                    "velocity": 0.7244094488188977,
                    "duration": 0.06535933333333332
                },
                {
                    "name": "A5",
                    "midi": 81,
                    "time": 87.35274899999999,
                    "velocity": 0.7244094488188977,
                    "duration": 0.06535933333333332
                },
                {
                    "name": "B5",
                    "midi": 83,
                    "time": 87.45078799999999,
                    "velocity": 0.7244094488188977,
                    "duration": 0.06535933333333332
                },
                {
                    "name": "A5",
                    "midi": 81,
                    "time": 87.54882699999999,
                    "velocity": 0.7244094488188977,
                    "duration": 0.06535933333333332
                },
                {
                    "name": "G5",
                    "midi": 79,
                    "time": 87.64686599999999,
                    "velocity": 0.7244094488188977,
                    "duration": 0.06535933333333332
                },
                {
                    "name": "F#5",
                    "midi": 78,
                    "time": 87.74490499999999,
                    "velocity": 0.7244094488188977,
                    "duration": 0.06535933333333332
                },
                {
                    "name": "E5",
                    "midi": 76,
                    "time": 87.84294399999999,
                    "velocity": 0.7244094488188977,
                    "duration": 0.06535933333333332
                },
                {
                    "name": "G5",
                    "midi": 79,
                    "time": 87.94098299999999,
                    "velocity": 0.7244094488188977,
                    "duration": 0.06535933333333332
                },
                {
                    "name": "F#5",
                    "midi": 78,
                    "time": 88.03902199999999,
                    "velocity": 0.7244094488188977,
                    "duration": 0.06535933333333332
                },
                {
                    "name": "G5",
                    "midi": 79,
                    "time": 88.13706099999999,
                    "velocity": 0.7244094488188977,
                    "duration": 0.06535933333333332
                },
                {
                    "name": "A5",
                    "midi": 81,
                    "time": 88.23509999999999,
                    "velocity": 0.7244094488188977,
                    "duration": 0.06535933333333332
                },
                {
                    "name": "G5",
                    "midi": 79,
                    "time": 88.33313899999999,
                    "velocity": 0.7244094488188977,
                    "duration": 0.06535933333333332
                },
                {
                    "name": "F#5",
                    "midi": 78,
                    "time": 88.43117799999999,
                    "velocity": 0.7244094488188977,
                    "duration": 0.06535933333333332
                },
                {
                    "name": "E5",
                    "midi": 76,
                    "time": 88.52921699999999,
                    "velocity": 0.7244094488188977,
                    "duration": 0.06535933333333332
                },
                {
                    "name": "D#5",
                    "midi": 75,
                    "time": 88.62725599999999,
                    "velocity": 0.7244094488188977,
                    "duration": 0.06535933333333332
                },
                {
                    "name": "E5",
                    "midi": 76,
                    "time": 89.41156799999999,
                    "velocity": 0.7244094488188977,
                    "duration": 0.06535933333333332
                },
                {
                    "name": "G#5",
                    "midi": 80,
                    "time": 89.50960699999999,
                    "velocity": 0.7244094488188977,
                    "duration": 0.06535933333333332
                },
                {
                    "name": "B5",
                    "midi": 83,
                    "time": 89.60764599999999,
                    "velocity": 0.7244094488188977,
                    "duration": 0.06535933333333332
                },
                {
                    "name": "A5",
                    "midi": 81,
                    "time": 89.70568499999999,
                    "velocity": 0.7244094488188977,
                    "duration": 0.06535933333333332
                },
                {
                    "name": "G#5",
                    "midi": 80,
                    "time": 89.80372399999999,
                    "velocity": 0.7244094488188977,
                    "duration": 0.06535933333333332
                },
                {
                    "name": "F5",
                    "midi": 77,
                    "time": 89.90176299999999,
                    "velocity": 0.7244094488188977,
                    "duration": 0.06535933333333332
                },
                {
                    "name": "E5",
                    "midi": 76,
                    "time": 89.99980199999999,
                    "velocity": 0.7244094488188977,
                    "duration": 0.06535933333333332
                },
                {
                    "name": "D5",
                    "midi": 74,
                    "time": 90.09784099999999,
                    "velocity": 0.7244094488188977,
                    "duration": 0.06535933333333332
                },
                {
                    "name": "C#5",
                    "midi": 73,
                    "time": 90.19587999999999,
                    "velocity": 0.7244094488188977,
                    "duration": 0.06535933333333332
                },
                {
                    "name": "C5",
                    "midi": 72,
                    "time": 90.98019199999999,
                    "velocity": 0.7244094488188977,
                    "duration": 0.06535933333333332
                },
                {
                    "name": "F#5",
                    "midi": 78,
                    "time": 91.07823099999999,
                    "velocity": 0.7244094488188977,
                    "duration": 0.06535933333333332
                },
                {
                    "name": "A5",
                    "midi": 81,
                    "time": 91.17626999999999,
                    "velocity": 0.7244094488188977,
                    "duration": 0.06535933333333332
                },
                {
                    "name": "G5",
                    "midi": 79,
                    "time": 91.27430899999999,
                    "velocity": 0.7244094488188977,
                    "duration": 0.06535933333333332
                },
                {
                    "name": "F#5",
                    "midi": 78,
                    "time": 91.37234799999999,
                    "velocity": 0.7244094488188977,
                    "duration": 0.06535933333333332
                },
                {
                    "name": "E5",
                    "midi": 76,
                    "time": 91.47038699999999,
                    "velocity": 0.7244094488188977,
                    "duration": 0.06535933333333332
                },
                {
                    "name": "D5",
                    "midi": 74,
                    "time": 91.56842599999999,
                    "velocity": 0.7244094488188977,
                    "duration": 0.06535933333333332
                },
                {
                    "name": "C5",
                    "midi": 72,
                    "time": 91.66646499999999,
                    "velocity": 0.7244094488188977,
                    "duration": 0.06535933333333332
                },
                {
                    "name": "B4",
                    "midi": 71,
                    "time": 91.76450399999999,
                    "velocity": 0.7244094488188977,
                    "duration": 0.06535933333333332
                },
                {
                    "name": "A#4",
                    "midi": 70,
                    "time": 92.54881599999999,
                    "velocity": 0.7244094488188977,
                    "duration": 0.06535933333333332
                },
                {
                    "name": "E5",
                    "midi": 76,
                    "time": 92.64685499999999,
                    "velocity": 0.7244094488188977,
                    "duration": 0.06535933333333332
                },
                {
                    "name": "G5",
                    "midi": 79,
                    "time": 92.74489399999999,
                    "velocity": 0.7244094488188977,
                    "duration": 0.06535933333333332
                },
                {
                    "name": "F5",
                    "midi": 77,
                    "time": 92.84293299999999,
                    "velocity": 0.7244094488188977,
                    "duration": 0.06535933333333332
                },
                {
                    "name": "E5",
                    "midi": 76,
                    "time": 92.94097199999999,
                    "velocity": 0.7244094488188977,
                    "duration": 0.06535933333333332
                },
                {
                    "name": "D5",
                    "midi": 74,
                    "time": 93.03901099999999,
                    "velocity": 0.7244094488188977,
                    "duration": 0.06535933333333332
                },
                {
                    "name": "C5",
                    "midi": 72,
                    "time": 93.13704999999999,
                    "velocity": 0.7244094488188977,
                    "duration": 0.06535933333333332
                },
                {
                    "name": "A#4",
                    "midi": 70,
                    "time": 93.23508899999999,
                    "velocity": 0.7244094488188977,
                    "duration": 0.06535933333333332
                },
                {
                    "name": "A4",
                    "midi": 69,
                    "time": 93.33312799999999,
                    "velocity": 0.7244094488188977,
                    "duration": 0.0939540416666631
                },
                {
                    "name": "D5",
                    "midi": 74,
                    "time": 94.11743999999999,
                    "velocity": 0.7244094488188977,
                    "duration": 0.06535933333333332
                },
                {
                    "name": "E5",
                    "midi": 76,
                    "time": 94.21547899999999,
                    "velocity": 0.7244094488188977,
                    "duration": 0.06535933333333332
                },
                {
                    "name": "F5",
                    "midi": 77,
                    "time": 94.31351799999999,
                    "velocity": 0.7244094488188977,
                    "duration": 0.06535933333333332
                },
                {
                    "name": "G5",
                    "midi": 79,
                    "time": 94.41155699999999,
                    "velocity": 0.7244094488188977,
                    "duration": 0.06535933333333332
                },
                {
                    "name": "A5",
                    "midi": 81,
                    "time": 94.50959599999999,
                    "velocity": 0.7244094488188977,
                    "duration": 0.06535933333333332
                },
                {
                    "name": "A#5",
                    "midi": 82,
                    "time": 94.60763499999999,
                    "velocity": 0.7244094488188977,
                    "duration": 0.06535933333333332
                },
                {
                    "name": "C6",
                    "midi": 84,
                    "time": 94.70567399999999,
                    "velocity": 0.7244094488188977,
                    "duration": 0.06535933333333332
                },
                {
                    "name": "D6",
                    "midi": 86,
                    "time": 94.80371299999999,
                    "velocity": 0.7244094488188977,
                    "duration": 0.06535933333333332
                },
                {
                    "name": "D6",
                    "midi": 86,
                    "time": 94.90175199999999,
                    "velocity": 0.7244094488188977,
                    "duration": 0.06535933333333332
                },
                {
                    "name": "C6",
                    "midi": 84,
                    "time": 94.99979099999999,
                    "velocity": 0.7244094488188977,
                    "duration": 0.06535933333333332
                },
                {
                    "name": "A#5",
                    "midi": 82,
                    "time": 95.09782999999999,
                    "velocity": 0.7244094488188977,
                    "duration": 0.06535933333333332
                },
                {
                    "name": "A5",
                    "midi": 81,
                    "time": 95.19586899999999,
                    "velocity": 0.7244094488188977,
                    "duration": 0.06535933333333332
                },
                {
                    "name": "C6",
                    "midi": 84,
                    "time": 95.29390799999999,
                    "velocity": 0.7244094488188977,
                    "duration": 0.06535933333333332
                },
                {
                    "name": "A#5",
                    "midi": 82,
                    "time": 95.39194699999999,
                    "velocity": 0.7244094488188977,
                    "duration": 0.06535933333333332
                },
                {
                    "name": "A5",
                    "midi": 81,
                    "time": 95.48998599999999,
                    "velocity": 0.7244094488188977,
                    "duration": 0.06535933333333332
                },
                {
                    "name": "G5",
                    "midi": 79,
                    "time": 95.58802499999999,
                    "velocity": 0.7244094488188977,
                    "duration": 0.06535933333333332
                },
                {
                    "name": "F5",
                    "midi": 77,
                    "time": 95.68606399999999,
                    "velocity": 0.7244094488188977,
                    "duration": 0.1919930416666631
                },
                {
                    "name": "G#5",
                    "midi": 80,
                    "time": 108.23505599999999,
                    "velocity": 0.7244094488188977,
                    "duration": 0.06535933333333332
                },
                {
                    "name": "E5",
                    "midi": 76,
                    "time": 108.33309499999999,
                    "velocity": 0.7244094488188977,
                    "duration": 0.06535933333333332
                },
                {
                    "name": "D5",
                    "midi": 74,
                    "time": 108.43113399999999,
                    "velocity": 0.7244094488188977,
                    "duration": 0.06535933333333332
                },
                {
                    "name": "E5",
                    "midi": 76,
                    "time": 108.52917299999999,
                    "velocity": 0.7244094488188977,
                    "duration": 0.06535933333333332
                },
                {
                    "name": "F5",
                    "midi": 77,
                    "time": 108.62721199999999,
                    "velocity": 0.7244094488188977,
                    "duration": 0.06535933333333332
                },
                {
                    "name": "E5",
                    "midi": 76,
                    "time": 108.72525099999999,
                    "velocity": 0.7244094488188977,
                    "duration": 0.06535933333333332
                },
                {
                    "name": "D5",
                    "midi": 74,
                    "time": 108.82328999999999,
                    "velocity": 0.7244094488188977,
                    "duration": 0.06535933333333332
                },
                {
                    "name": "E5",
                    "midi": 76,
                    "time": 108.92132899999999,
                    "velocity": 0.7244094488188977,
                    "duration": 0.06535933333333332
                },
                {
                    "name": "G#5",
                    "midi": 80,
                    "time": 109.01936799999999,
                    "velocity": 0.7244094488188977,
                    "duration": 0.06535933333333332
                },
                {
                    "name": "E5",
                    "midi": 76,
                    "time": 109.11740699999999,
                    "velocity": 0.7244094488188977,
                    "duration": 0.06535933333333332
                },
                {
                    "name": "D#5",
                    "midi": 75,
                    "time": 109.21544599999999,
                    "velocity": 0.7244094488188977,
                    "duration": 0.06535933333333332
                },
                {
                    "name": "E5",
                    "midi": 76,
                    "time": 109.31348499999999,
                    "velocity": 0.7244094488188977,
                    "duration": 0.06535933333333332
                },
                {
                    "name": "B5",
                    "midi": 83,
                    "time": 109.41152399999999,
                    "velocity": 0.7244094488188977,
                    "duration": 0.06535933333333332
                },
                {
                    "name": "E5",
                    "midi": 76,
                    "time": 109.50956299999999,
                    "velocity": 0.7244094488188977,
                    "duration": 0.06535933333333332
                },
                {
                    "name": "D#5",
                    "midi": 75,
                    "time": 109.60760199999999,
                    "velocity": 0.7244094488188977,
                    "duration": 0.06535933333333332
                },
                {
                    "name": "E5",
                    "midi": 76,
                    "time": 109.70564099999999,
                    "velocity": 0.7244094488188977,
                    "duration": 0.06535933333333332
                },
                {
                    "name": "C6",
                    "midi": 84,
                    "time": 109.80367999999999,
                    "velocity": 0.7244094488188977,
                    "duration": 0.06535933333333332
                },
                {
                    "name": "D6",
                    "midi": 86,
                    "time": 109.90171899999999,
                    "velocity": 0.7244094488188977,
                    "duration": 0.06535933333333332
                },
                {
                    "name": "C6",
                    "midi": 84,
                    "time": 109.99975799999999,
                    "velocity": 0.7244094488188977,
                    "duration": 0.06535933333333332
                },
                {
                    "name": "B5",
                    "midi": 83,
                    "time": 110.09779699999999,
                    "velocity": 0.7244094488188977,
                    "duration": 0.06535933333333332
                },
                {
                    "name": "A5",
                    "midi": 81,
                    "time": 110.19583599999999,
                    "velocity": 0.7244094488188977,
                    "duration": 0.06535933333333332
                },
                {
                    "name": "B5",
                    "midi": 83,
                    "time": 110.29387499999999,
                    "velocity": 0.7244094488188977,
                    "duration": 0.06535933333333332
                },
                {
                    "name": "A5",
                    "midi": 81,
                    "time": 110.39191399999999,
                    "velocity": 0.7244094488188977,
                    "duration": 0.06535933333333332
                },
                {
                    "name": "G#5",
                    "midi": 80,
                    "time": 110.48995299999999,
                    "velocity": 0.7244094488188977,
                    "duration": 0.06535933333333332
                },
                {
                    "name": "A5",
                    "midi": 81,
                    "time": 110.58799199999999,
                    "velocity": 0.7244094488188977,
                    "duration": 0.06535933333333332
                },
                {
                    "name": "E5",
                    "midi": 76,
                    "time": 110.68603099999999,
                    "velocity": 0.7244094488188977,
                    "duration": 0.06535933333333332
                },
                {
                    "name": "F5",
                    "midi": 77,
                    "time": 110.78406999999999,
                    "velocity": 0.7244094488188977,
                    "duration": 0.06535933333333332
                },
                {
                    "name": "E5",
                    "midi": 76,
                    "time": 110.88210899999999,
                    "velocity": 0.7244094488188977,
                    "duration": 0.06535933333333332
                },
                {
                    "name": "D5",
                    "midi": 74,
                    "time": 110.98014799999999,
                    "velocity": 0.7244094488188977,
                    "duration": 0.06535933333333332
                },
                {
                    "name": "C5",
                    "midi": 72,
                    "time": 111.07818699999999,
                    "velocity": 0.7244094488188977,
                    "duration": 0.06535933333333332
                },
                {
                    "name": "B4",
                    "midi": 71,
                    "time": 111.17622599999999,
                    "velocity": 0.7244094488188977,
                    "duration": 0.06535933333333332
                },
                {
                    "name": "A4",
                    "midi": 69,
                    "time": 111.27426499999999,
                    "velocity": 0.7244094488188977,
                    "duration": 0.06535933333333332
                },
                {
                    "name": "G#4",
                    "midi": 68,
                    "time": 111.37230399999999,
                    "velocity": 0.7244094488188977,
                    "duration": 0.06535933333333332
                },
                {
                    "name": "E4",
                    "midi": 64,
                    "time": 111.47034299999999,
                    "velocity": 0.7244094488188977,
                    "duration": 0.06535933333333332
                },
                {
                    "name": "D#4",
                    "midi": 63,
                    "time": 111.56838199999999,
                    "velocity": 0.7244094488188977,
                    "duration": 0.06535933333333332
                },
                {
                    "name": "E4",
                    "midi": 64,
                    "time": 111.66642099999999,
                    "velocity": 0.7244094488188977,
                    "duration": 0.06535933333333332
                },
                {
                    "name": "F4",
                    "midi": 65,
                    "time": 111.76445999999999,
                    "velocity": 0.7244094488188977,
                    "duration": 0.06535933333333332
                },
                {
                    "name": "E4",
                    "midi": 64,
                    "time": 111.86249899999999,
                    "velocity": 0.7244094488188977,
                    "duration": 0.06535933333333332
                },
                {
                    "name": "D#4",
                    "midi": 63,
                    "time": 111.96053799999999,
                    "velocity": 0.7244094488188977,
                    "duration": 0.06535933333333332
                },
                {
                    "name": "E4",
                    "midi": 64,
                    "time": 112.05857699999999,
                    "velocity": 0.7244094488188977,
                    "duration": 0.06535933333333332
                },
                {
                    "name": "G#4",
                    "midi": 68,
                    "time": 112.15661599999999,
                    "velocity": 0.7244094488188977,
                    "duration": 0.06535933333333332
                },
                {
                    "name": "E4",
                    "midi": 64,
                    "time": 112.25465499999999,
                    "velocity": 0.7244094488188977,
                    "duration": 0.06535933333333332
                },
                {
                    "name": "D#4",
                    "midi": 63,
                    "time": 112.35269399999999,
                    "velocity": 0.7244094488188977,
                    "duration": 0.06535933333333332
                },
                {
                    "name": "E4",
                    "midi": 64,
                    "time": 112.45073299999999,
                    "velocity": 0.7244094488188977,
                    "duration": 0.06535933333333332
                },
                {
                    "name": "B4",
                    "midi": 71,
                    "time": 112.54877199999999,
                    "velocity": 0.7244094488188977,
                    "duration": 0.06535933333333332
                },
                {
                    "name": "E4",
                    "midi": 64,
                    "time": 112.64681099999999,
                    "velocity": 0.7244094488188977,
                    "duration": 0.06535933333333332
                },
                {
                    "name": "D#4",
                    "midi": 63,
                    "time": 112.74484999999999,
                    "velocity": 0.7244094488188977,
                    "duration": 0.06535933333333332
                },
                {
                    "name": "E4",
                    "midi": 64,
                    "time": 112.84288899999999,
                    "velocity": 0.7244094488188977,
                    "duration": 0.06535933333333332
                },
                {
                    "name": "C5",
                    "midi": 72,
                    "time": 112.94092799999999,
                    "velocity": 0.7244094488188977,
                    "duration": 0.06535933333333332
                },
                {
                    "name": "D5",
                    "midi": 74,
                    "time": 113.03896699999999,
                    "velocity": 0.7244094488188977,
                    "duration": 0.06535933333333332
                },
                {
                    "name": "C5",
                    "midi": 72,
                    "time": 113.13700599999999,
                    "velocity": 0.7244094488188977,
                    "duration": 0.06535933333333332
                },
                {
                    "name": "B4",
                    "midi": 71,
                    "time": 113.23504499999999,
                    "velocity": 0.7244094488188977,
                    "duration": 0.06535933333333332
                },
                {
                    "name": "A4",
                    "midi": 69,
                    "time": 113.33308399999999,
                    "velocity": 0.7244094488188977,
                    "duration": 0.06535933333333332
                },
                {
                    "name": "B4",
                    "midi": 71,
                    "time": 113.43112299999999,
                    "velocity": 0.7244094488188977,
                    "duration": 0.06535933333333332
                },
                {
                    "name": "A4",
                    "midi": 69,
                    "time": 113.52916199999999,
                    "velocity": 0.7244094488188977,
                    "duration": 0.06535933333333332
                },
                {
                    "name": "G#4",
                    "midi": 68,
                    "time": 113.62720099999999,
                    "velocity": 0.7244094488188977,
                    "duration": 0.06535933333333332
                },
                {
                    "name": "A4",
                    "midi": 69,
                    "time": 113.72523999999999,
                    "velocity": 0.7244094488188977,
                    "duration": 0.06535933333333332
                },
                {
                    "name": "E4",
                    "midi": 64,
                    "time": 113.82327899999999,
                    "velocity": 0.7244094488188977,
                    "duration": 0.06535933333333332
                },
                {
                    "name": "F4",
                    "midi": 65,
                    "time": 113.92131799999999,
                    "velocity": 0.7244094488188977,
                    "duration": 0.06535933333333332
                },
                {
                    "name": "E4",
                    "midi": 64,
                    "time": 114.01935699999999,
                    "velocity": 0.7244094488188977,
                    "duration": 0.06535933333333332
                },
                {
                    "name": "D4",
                    "midi": 62,
                    "time": 114.11739599999999,
                    "velocity": 0.7244094488188977,
                    "duration": 0.06535933333333332
                },
                {
                    "name": "C4",
                    "midi": 60,
                    "time": 114.21543499999999,
                    "velocity": 0.7244094488188977,
                    "duration": 0.06535933333333332
                },
                {
                    "name": "B3",
                    "midi": 59,
                    "time": 114.31347399999999,
                    "velocity": 0.7244094488188977,
                    "duration": 0.06535933333333332
                },
                {
                    "name": "A3",
                    "midi": 57,
                    "time": 114.41151299999999,
                    "velocity": 0.7244094488188977,
                    "duration": 0.06535933333333332
                },
                {
                    "name": "E4",
                    "midi": 64,
                    "time": 114.50955199999999,
                    "velocity": 0.7244094488188977,
                    "duration": 0.06535933333333332
                },
                {
                    "name": "E5",
                    "midi": 76,
                    "time": 114.60759099999999,
                    "velocity": 0.7244094488188977,
                    "duration": 0.06535933333333332
                },
                {
                    "name": "F5",
                    "midi": 77,
                    "time": 114.70562999999999,
                    "velocity": 0.7244094488188977,
                    "duration": 0.06535933333333332
                },
                {
                    "name": "E5",
                    "midi": 76,
                    "time": 114.80366899999999,
                    "velocity": 0.7244094488188977,
                    "duration": 0.06535933333333332
                },
                {
                    "name": "G#5",
                    "midi": 80,
                    "time": 114.90170799999999,
                    "velocity": 0.7244094488188977,
                    "duration": 0.06535933333333332
                },
                {
                    "name": "E5",
                    "midi": 76,
                    "time": 114.99974699999999,
                    "velocity": 0.7244094488188977,
                    "duration": 0.06535933333333332
                },
                {
                    "name": "F5",
                    "midi": 77,
                    "time": 115.09778599999999,
                    "velocity": 0.7244094488188977,
                    "duration": 0.06535933333333332
                },
                {
                    "name": "E5",
                    "midi": 76,
                    "time": 115.19582499999999,
                    "velocity": 0.7244094488188977,
                    "duration": 0.06535933333333332
                },
                {
                    "name": "A5",
                    "midi": 81,
                    "time": 115.29386399999999,
                    "velocity": 0.7244094488188977,
                    "duration": 0.06535933333333332
                },
                {
                    "name": "E5",
                    "midi": 76,
                    "time": 115.39190299999999,
                    "velocity": 0.7244094488188977,
                    "duration": 0.06535933333333332
                },
                {
                    "name": "F5",
                    "midi": 77,
                    "time": 115.48994199999999,
                    "velocity": 0.7244094488188977,
                    "duration": 0.06535933333333332
                },
                {
                    "name": "E5",
                    "midi": 76,
                    "time": 115.58798099999998,
                    "velocity": 0.7244094488188977,
                    "duration": 0.06535933333333332
                },
                {
                    "name": "B5",
                    "midi": 83,
                    "time": 115.68601999999998,
                    "velocity": 0.7244094488188977,
                    "duration": 0.06535933333333332
                },
                {
                    "name": "E5",
                    "midi": 76,
                    "time": 115.78405899999998,
                    "velocity": 0.7244094488188977,
                    "duration": 0.06535933333333332
                },
                {
                    "name": "F5",
                    "midi": 77,
                    "time": 115.88209799999998,
                    "velocity": 0.7244094488188977,
                    "duration": 0.06535933333333332
                },
                {
                    "name": "E5",
                    "midi": 76,
                    "time": 115.98013699999998,
                    "velocity": 0.7244094488188977,
                    "duration": 0.06535933333333332
                },
                {
                    "name": "C6",
                    "midi": 84,
                    "time": 116.07817599999998,
                    "velocity": 0.7244094488188977,
                    "duration": 0.06535933333333332
                },
                {
                    "name": "A5",
                    "midi": 81,
                    "time": 116.17621499999998,
                    "velocity": 0.7244094488188977,
                    "duration": 0.06535933333333332
                },
                {
                    "name": "B5",
                    "midi": 83,
                    "time": 116.27425399999998,
                    "velocity": 0.7244094488188977,
                    "duration": 0.06535933333333332
                },
                {
                    "name": "A5",
                    "midi": 81,
                    "time": 116.37229299999998,
                    "velocity": 0.7244094488188977,
                    "duration": 0.06535933333333332
                },
                {
                    "name": "C#6",
                    "midi": 85,
                    "time": 116.47033199999998,
                    "velocity": 0.7244094488188977,
                    "duration": 0.06535933333333332
                },
                {
                    "name": "A5",
                    "midi": 81,
                    "time": 116.56837099999998,
                    "velocity": 0.7244094488188977,
                    "duration": 0.06535933333333332
                },
                {
                    "name": "A#5",
                    "midi": 82,
                    "time": 116.66640999999998,
                    "velocity": 0.7244094488188977,
                    "duration": 0.06535933333333332
                },
                {
                    "name": "A5",
                    "midi": 81,
                    "time": 116.76444899999998,
                    "velocity": 0.7244094488188977,
                    "duration": 0.06535933333333332
                },
                {
                    "name": "D6",
                    "midi": 86,
                    "time": 116.86248799999998,
                    "velocity": 0.7244094488188977,
                    "duration": 0.06535933333333332
                },
                {
                    "name": "A5",
                    "midi": 81,
                    "time": 116.96052699999998,
                    "velocity": 0.7244094488188977,
                    "duration": 0.06535933333333332
                },
                {
                    "name": "A#5",
                    "midi": 82,
                    "time": 117.05856599999998,
                    "velocity": 0.7244094488188977,
                    "duration": 0.06535933333333332
                },
                {
                    "name": "A5",
                    "midi": 81,
                    "time": 117.15660499999998,
                    "velocity": 0.7244094488188977,
                    "duration": 0.06535933333333332
                },
                {
                    "name": "E6",
                    "midi": 88,
                    "time": 117.25464399999998,
                    "velocity": 0.7244094488188977,
                    "duration": 0.06535933333333332
                },
                {
                    "name": "A5",
                    "midi": 81,
                    "time": 117.35268299999998,
                    "velocity": 0.7244094488188977,
                    "duration": 0.06535933333333332
                },
                {
                    "name": "A#5",
                    "midi": 82,
                    "time": 117.45072199999998,
                    "velocity": 0.7244094488188977,
                    "duration": 0.06535933333333332
                },
                {
                    "name": "A5",
                    "midi": 81,
                    "time": 117.54876099999998,
                    "velocity": 0.7244094488188977,
                    "duration": 0.06535933333333332
                },
                {
                    "name": "F6",
                    "midi": 89,
                    "time": 117.64679999999998,
                    "velocity": 0.7244094488188977,
                    "duration": 0.06535933333333332
                },
                {
                    "name": "E6",
                    "midi": 88,
                    "time": 117.74483899999998,
                    "velocity": 0.7244094488188977,
                    "duration": 0.06535933333333332
                },
                {
                    "name": "D6",
                    "midi": 86,
                    "time": 117.84287799999998,
                    "velocity": 0.7244094488188977,
                    "duration": 0.06535933333333332
                },
                {
                    "name": "C#6",
                    "midi": 85,
                    "time": 117.94091699999998,
                    "velocity": 0.7244094488188977,
                    "duration": 0.06535933333333332
                },
                {
                    "name": "D6",
                    "midi": 86,
                    "time": 118.03895599999998,
                    "velocity": 0.7244094488188977,
                    "duration": 0.06535933333333332
                },
                {
                    "name": "C#6",
                    "midi": 85,
                    "time": 118.13699499999998,
                    "velocity": 0.7244094488188977,
                    "duration": 0.06535933333333332
                },
                {
                    "name": "D6",
                    "midi": 86,
                    "time": 118.23503399999998,
                    "velocity": 0.7244094488188977,
                    "duration": 0.06535933333333332
                },
                {
                    "name": "E6",
                    "midi": 88,
                    "time": 118.33307299999998,
                    "velocity": 0.7244094488188977,
                    "duration": 0.06535933333333332
                },
                {
                    "name": "F6",
                    "midi": 89,
                    "time": 118.43111199999998,
                    "velocity": 0.7244094488188977,
                    "duration": 0.06535933333333332
                },
                {
                    "name": "E6",
                    "midi": 88,
                    "time": 118.52915099999998,
                    "velocity": 0.7244094488188977,
                    "duration": 0.06535933333333332
                },
                {
                    "name": "G6",
                    "midi": 91,
                    "time": 118.62718999999998,
                    "velocity": 0.7244094488188977,
                    "duration": 0.06535933333333332
                },
                {
                    "name": "F6",
                    "midi": 89,
                    "time": 118.72522899999998,
                    "velocity": 0.7244094488188977,
                    "duration": 0.06535933333333332
                },
                {
                    "name": "E6",
                    "midi": 88,
                    "time": 118.82326799999998,
                    "velocity": 0.7244094488188977,
                    "duration": 0.06535933333333332
                },
                {
                    "name": "D6",
                    "midi": 86,
                    "time": 118.92130699999998,
                    "velocity": 0.7244094488188977,
                    "duration": 0.06535933333333332
                },
                {
                    "name": "C6",
                    "midi": 84,
                    "time": 119.01934599999998,
                    "velocity": 0.7244094488188977,
                    "duration": 0.06535933333333332
                },
                {
                    "name": "A#5",
                    "midi": 82,
                    "time": 119.11738499999998,
                    "velocity": 0.7244094488188977,
                    "duration": 0.06535933333333332
                },
                {
                    "name": "A5",
                    "midi": 81,
                    "time": 119.21542399999998,
                    "velocity": 0.7244094488188977,
                    "duration": 0.06535933333333332
                },
                {
                    "name": "G#5",
                    "midi": 80,
                    "time": 119.31346299999998,
                    "velocity": 0.7244094488188977,
                    "duration": 0.06535933333333332
                },
                {
                    "name": "A5",
                    "midi": 81,
                    "time": 119.41150199999998,
                    "velocity": 0.7244094488188977,
                    "duration": 0.06535933333333332
                },
                {
                    "name": "B5",
                    "midi": 83,
                    "time": 119.50954099999998,
                    "velocity": 0.7244094488188977,
                    "duration": 0.06535933333333332
                },
                {
                    "name": "C6",
                    "midi": 84,
                    "time": 119.60757999999998,
                    "velocity": 0.7244094488188977,
                    "duration": 0.06535933333333332
                },
                {
                    "name": "D6",
                    "midi": 86,
                    "time": 119.70561899999998,
                    "velocity": 0.7244094488188977,
                    "duration": 0.06535933333333332
                },
                {
                    "name": "E6",
                    "midi": 88,
                    "time": 119.80365799999998,
                    "velocity": 0.7244094488188977,
                    "duration": 0.06535933333333332
                },
                {
                    "name": "F6",
                    "midi": 89,
                    "time": 119.90169699999998,
                    "velocity": 0.7244094488188977,
                    "duration": 0.06535933333333332
                },
                {
                    "name": "E6",
                    "midi": 88,
                    "time": 119.99973599999998,
                    "velocity": 0.7244094488188977,
                    "duration": 0.06535933333333332
                },
                {
                    "name": "D#6",
                    "midi": 87,
                    "time": 120.09777499999998,
                    "velocity": 0.7244094488188977,
                    "duration": 0.06535933333333332
                },
                {
                    "name": "E6",
                    "midi": 88,
                    "time": 120.19581399999998,
                    "velocity": 0.7244094488188977,
                    "duration": 0.06535933333333332
                },
                {
                    "name": "F6",
                    "midi": 89,
                    "time": 120.29385299999998,
                    "velocity": 0.7244094488188977,
                    "duration": 0.06535933333333332
                },
                {
                    "name": "E6",
                    "midi": 88,
                    "time": 120.39189199999998,
                    "velocity": 0.7244094488188977,
                    "duration": 0.06535933333333332
                },
                {
                    "name": "D#6",
                    "midi": 87,
                    "time": 120.48993099999998,
                    "velocity": 0.7244094488188977,
                    "duration": 0.06535933333333332
                },
                {
                    "name": "C6",
                    "midi": 84,
                    "time": 120.58796999999998,
                    "velocity": 0.7244094488188977,
                    "duration": 0.06535933333333332
                },
                {
                    "name": "B5",
                    "midi": 83,
                    "time": 120.68600899999998,
                    "velocity": 0.7244094488188977,
                    "duration": 0.06535933333333332
                },
                {
                    "name": "A5",
                    "midi": 81,
                    "time": 120.78404799999998,
                    "velocity": 0.7244094488188977,
                    "duration": 0.06535933333333332
                },
                {
                    "name": "A5",
                    "midi": 81,
                    "time": 120.88208699999998,
                    "velocity": 0.7244094488188977,
                    "duration": 0.06535933333333332
                },
                {
                    "name": "A#5",
                    "midi": 82,
                    "time": 120.98012599999998,
                    "velocity": 0.7244094488188977,
                    "duration": 0.06535933333333332
                },
                {
                    "name": "A5",
                    "midi": 81,
                    "time": 121.07816499999998,
                    "velocity": 0.7244094488188977,
                    "duration": 0.06535933333333332
                },
                {
                    "name": "G5",
                    "midi": 79,
                    "time": 121.17620399999998,
                    "velocity": 0.7244094488188977,
                    "duration": 0.06535933333333332
                },
                {
                    "name": "F5",
                    "midi": 77,
                    "time": 121.27424299999998,
                    "velocity": 0.7244094488188977,
                    "duration": 0.06535933333333332
                },
                {
                    "name": "E5",
                    "midi": 76,
                    "time": 121.37228199999998,
                    "velocity": 0.7244094488188977,
                    "duration": 0.06535933333333332
                },
                {
                    "name": "G5",
                    "midi": 79,
                    "time": 121.47032099999998,
                    "velocity": 0.7244094488188977,
                    "duration": 0.06535933333333332
                },
                {
                    "name": "F5",
                    "midi": 77,
                    "time": 121.56835999999998,
                    "velocity": 0.7244094488188977,
                    "duration": 0.06535933333333332
                },
                {
                    "name": "E5",
                    "midi": 76,
                    "time": 121.66639899999998,
                    "velocity": 0.7244094488188977,
                    "duration": 0.06535933333333332
                },
                {
                    "name": "D5",
                    "midi": 74,
                    "time": 121.76443799999998,
                    "velocity": 0.7244094488188977,
                    "duration": 0.06535933333333332
                },
                {
                    "name": "F5",
                    "midi": 77,
                    "time": 121.86247699999998,
                    "velocity": 0.7244094488188977,
                    "duration": 0.06535933333333332
                },
                {
                    "name": "E5",
                    "midi": 76,
                    "time": 121.96051599999998,
                    "velocity": 0.7244094488188977,
                    "duration": 0.06535933333333332
                },
                {
                    "name": "D5",
                    "midi": 74,
                    "time": 122.05855499999998,
                    "velocity": 0.7244094488188977,
                    "duration": 0.06535933333333332
                },
                {
                    "name": "C#5",
                    "midi": 73,
                    "time": 122.15659399999998,
                    "velocity": 0.7244094488188977,
                    "duration": 0.06535933333333332
                },
                {
                    "name": "E5",
                    "midi": 76,
                    "time": 122.25463299999998,
                    "velocity": 0.7244094488188977,
                    "duration": 0.06535933333333332
                },
                {
                    "name": "D5",
                    "midi": 74,
                    "time": 122.35267199999998,
                    "velocity": 0.7244094488188977,
                    "duration": 0.06535933333333332
                },
                {
                    "name": "E5",
                    "midi": 76,
                    "time": 122.45071099999998,
                    "velocity": 0.7244094488188977,
                    "duration": 0.06535933333333332
                },
                {
                    "name": "F5",
                    "midi": 77,
                    "time": 122.54874999999998,
                    "velocity": 0.7244094488188977,
                    "duration": 0.06535933333333332
                },
                {
                    "name": "G5",
                    "midi": 79,
                    "time": 122.64678899999998,
                    "velocity": 0.7244094488188977,
                    "duration": 0.06535933333333332
                },
                {
                    "name": "F5",
                    "midi": 77,
                    "time": 122.74482799999998,
                    "velocity": 0.7244094488188977,
                    "duration": 0.06535933333333332
                },
                {
                    "name": "E5",
                    "midi": 76,
                    "time": 122.84286699999998,
                    "velocity": 0.7244094488188977,
                    "duration": 0.06535933333333332
                },
                {
                    "name": "D5",
                    "midi": 74,
                    "time": 122.94090599999998,
                    "velocity": 0.7244094488188977,
                    "duration": 0.06535933333333332
                },
                {
                    "name": "F5",
                    "midi": 77,
                    "time": 123.03894499999998,
                    "velocity": 0.7244094488188977,
                    "duration": 0.06535933333333332
                },
                {
                    "name": "E5",
                    "midi": 76,
                    "time": 123.13698399999998,
                    "velocity": 0.7244094488188977,
                    "duration": 0.06535933333333332
                },
                {
                    "name": "D5",
                    "midi": 74,
                    "time": 123.23502299999998,
                    "velocity": 0.7244094488188977,
                    "duration": 0.06535933333333332
                },
                {
                    "name": "C5",
                    "midi": 72,
                    "time": 123.33306199999998,
                    "velocity": 0.7244094488188977,
                    "duration": 0.06535933333333332
                },
                {
                    "name": "E5",
                    "midi": 76,
                    "time": 123.43110099999998,
                    "velocity": 0.7244094488188977,
                    "duration": 0.06535933333333332
                },
                {
                    "name": "D5",
                    "midi": 74,
                    "time": 123.52913999999998,
                    "velocity": 0.7244094488188977,
                    "duration": 0.06535933333333332
                },
                {
                    "name": "C5",
                    "midi": 72,
                    "time": 123.62717899999998,
                    "velocity": 0.7244094488188977,
                    "duration": 0.06535933333333332
                },
                {
                    "name": "B4",
                    "midi": 71,
                    "time": 123.72521799999998,
                    "velocity": 0.7244094488188977,
                    "duration": 0.06535933333333332
                },
                {
                    "name": "D5",
                    "midi": 74,
                    "time": 123.82325699999998,
                    "velocity": 0.7244094488188977,
                    "duration": 0.06535933333333332
                },
                {
                    "name": "C5",
                    "midi": 72,
                    "time": 123.92129599999998,
                    "velocity": 0.7244094488188977,
                    "duration": 0.06535933333333332
                },
                {
                    "name": "D5",
                    "midi": 74,
                    "time": 124.01933499999998,
                    "velocity": 0.7244094488188977,
                    "duration": 0.06535933333333332
                },
                {
                    "name": "E5",
                    "midi": 76,
                    "time": 124.11737399999998,
                    "velocity": 0.7244094488188977,
                    "duration": 0.06535933333333332
                },
                {
                    "name": "F5",
                    "midi": 77,
                    "time": 124.21541299999998,
                    "velocity": 0.7244094488188977,
                    "duration": 0.06535933333333332
                },
                {
                    "name": "E5",
                    "midi": 76,
                    "time": 124.31345199999998,
                    "velocity": 0.7244094488188977,
                    "duration": 0.06535933333333332
                },
                {
                    "name": "D5",
                    "midi": 74,
                    "time": 124.41149099999998,
                    "velocity": 0.7244094488188977,
                    "duration": 0.06535933333333332
                },
                {
                    "name": "C5",
                    "midi": 72,
                    "time": 124.50952999999998,
                    "velocity": 0.7244094488188977,
                    "duration": 0.06535933333333332
                },
                {
                    "name": "E5",
                    "midi": 76,
                    "time": 124.60756899999998,
                    "velocity": 0.7244094488188977,
                    "duration": 0.06535933333333332
                },
                {
                    "name": "D5",
                    "midi": 74,
                    "time": 124.70560799999998,
                    "velocity": 0.7244094488188977,
                    "duration": 0.06535933333333332
                },
                {
                    "name": "C5",
                    "midi": 72,
                    "time": 124.80364699999998,
                    "velocity": 0.7244094488188977,
                    "duration": 0.06535933333333332
                },
                {
                    "name": "B4",
                    "midi": 71,
                    "time": 124.90168599999998,
                    "velocity": 0.7244094488188977,
                    "duration": 0.06535933333333332
                },
                {
                    "name": "D5",
                    "midi": 74,
                    "time": 124.99972499999998,
                    "velocity": 0.7244094488188977,
                    "duration": 0.06535933333333332
                },
                {
                    "name": "C5",
                    "midi": 72,
                    "time": 125.09776399999998,
                    "velocity": 0.7244094488188977,
                    "duration": 0.06535933333333332
                },
                {
                    "name": "B4",
                    "midi": 71,
                    "time": 125.19580299999998,
                    "velocity": 0.7244094488188977,
                    "duration": 0.06535933333333332
                },
                {
                    "name": "A4",
                    "midi": 69,
                    "time": 125.29384199999998,
                    "velocity": 0.7244094488188977,
                    "duration": 0.06535933333333332
                },
                {
                    "name": "C5",
                    "midi": 72,
                    "time": 125.39188099999998,
                    "velocity": 0.7244094488188977,
                    "duration": 0.06535933333333332
                },
                {
                    "name": "B4",
                    "midi": 71,
                    "time": 125.48991999999998,
                    "velocity": 0.7244094488188977,
                    "duration": 0.06535933333333332
                },
                {
                    "name": "D#5",
                    "midi": 75,
                    "time": 125.58795899999998,
                    "velocity": 0.7244094488188977,
                    "duration": 0.06535933333333332
                },
                {
                    "name": "E5",
                    "midi": 76,
                    "time": 125.68599799999998,
                    "velocity": 0.7244094488188977,
                    "duration": 0.06535933333333332
                },
                {
                    "name": "F5",
                    "midi": 77,
                    "time": 125.78403699999998,
                    "velocity": 0.7244094488188977,
                    "duration": 0.06535933333333332
                },
                {
                    "name": "E5",
                    "midi": 76,
                    "time": 125.88207599999998,
                    "velocity": 0.7244094488188977,
                    "duration": 0.06535933333333332
                },
                {
                    "name": "D5",
                    "midi": 74,
                    "time": 125.98011499999998,
                    "velocity": 0.7244094488188977,
                    "duration": 0.06535933333333332
                },
                {
                    "name": "C5",
                    "midi": 72,
                    "time": 126.07815399999998,
                    "velocity": 0.7244094488188977,
                    "duration": 0.06535933333333332
                },
                {
                    "name": "E5",
                    "midi": 76,
                    "time": 126.17619299999998,
                    "velocity": 0.7244094488188977,
                    "duration": 0.06535933333333332
                },
                {
                    "name": "D5",
                    "midi": 74,
                    "time": 126.27423199999998,
                    "velocity": 0.7244094488188977,
                    "duration": 0.06535933333333332
                },
                {
                    "name": "C5",
                    "midi": 72,
                    "time": 126.37227099999998,
                    "velocity": 0.7244094488188977,
                    "duration": 0.06535933333333332
                },
                {
                    "name": "B4",
                    "midi": 71,
                    "time": 126.47030999999998,
                    "velocity": 0.7244094488188977,
                    "duration": 0.06535933333333332
                },
                {
                    "name": "D5",
                    "midi": 74,
                    "time": 126.56834899999998,
                    "velocity": 0.7244094488188977,
                    "duration": 0.06535933333333332
                },
                {
                    "name": "C5",
                    "midi": 72,
                    "time": 126.66638799999998,
                    "velocity": 0.7244094488188977,
                    "duration": 0.06535933333333332
                },
                {
                    "name": "B4",
                    "midi": 71,
                    "time": 126.76442699999998,
                    "velocity": 0.7244094488188977,
                    "duration": 0.06535933333333332
                },
                {
                    "name": "A4",
                    "midi": 69,
                    "time": 126.86246599999998,
                    "velocity": 0.7244094488188977,
                    "duration": 0.06535933333333332
                },
                {
                    "name": "C5",
                    "midi": 72,
                    "time": 126.96050499999998,
                    "velocity": 0.7244094488188977,
                    "duration": 0.06535933333333332
                },
                {
                    "name": "B4",
                    "midi": 71,
                    "time": 127.05854399999998,
                    "velocity": 0.7244094488188977,
                    "duration": 0.06535933333333332
                },
                {
                    "name": "E5",
                    "midi": 76,
                    "time": 127.15658299999998,
                    "velocity": 0.7244094488188977,
                    "duration": 0.06535933333333332
                },
                {
                    "name": "F5",
                    "midi": 77,
                    "time": 127.25462199999998,
                    "velocity": 0.7244094488188977,
                    "duration": 0.06535933333333332
                },
                {
                    "name": "E5",
                    "midi": 76,
                    "time": 127.35266099999998,
                    "velocity": 0.7244094488188977,
                    "duration": 0.06535933333333332
                },
                {
                    "name": "G#5",
                    "midi": 80,
                    "time": 127.45069999999998,
                    "velocity": 0.7244094488188977,
                    "duration": 0.06535933333333332
                },
                {
                    "name": "E5",
                    "midi": 76,
                    "time": 127.54873899999998,
                    "velocity": 0.7244094488188977,
                    "duration": 0.06535933333333332
                },
                {
                    "name": "F5",
                    "midi": 77,
                    "time": 127.64677799999998,
                    "velocity": 0.7244094488188977,
                    "duration": 0.06535933333333332
                },
                {
                    "name": "E5",
                    "midi": 76,
                    "time": 127.74481699999998,
                    "velocity": 0.7244094488188977,
                    "duration": 0.06535933333333332
                },
                {
                    "name": "A5",
                    "midi": 81,
                    "time": 127.84285599999998,
                    "velocity": 0.7244094488188977,
                    "duration": 0.06535933333333332
                },
                {
                    "name": "E5",
                    "midi": 76,
                    "time": 127.94089499999998,
                    "velocity": 0.7244094488188977,
                    "duration": 0.06535933333333332
                },
                {
                    "name": "F5",
                    "midi": 77,
                    "time": 128.03893399999998,
                    "velocity": 0.7244094488188977,
                    "duration": 0.06535933333333332
                },
                {
                    "name": "E5",
                    "midi": 76,
                    "time": 128.13697299999998,
                    "velocity": 0.7244094488188977,
                    "duration": 0.06535933333333332
                },
                {
                    "name": "B5",
                    "midi": 83,
                    "time": 128.23501199999998,
                    "velocity": 0.7244094488188977,
                    "duration": 0.06535933333333332
                },
                {
                    "name": "E5",
                    "midi": 76,
                    "time": 128.33305099999998,
                    "velocity": 0.7244094488188977,
                    "duration": 0.06535933333333332
                },
                {
                    "name": "F5",
                    "midi": 77,
                    "time": 128.43108999999998,
                    "velocity": 0.7244094488188977,
                    "duration": 0.06535933333333332
                },
                {
                    "name": "E5",
                    "midi": 76,
                    "time": 128.52912899999998,
                    "velocity": 0.7244094488188977,
                    "duration": 0.06535933333333332
                },
                {
                    "name": "C6",
                    "midi": 84,
                    "time": 128.62716799999998,
                    "velocity": 0.7244094488188977,
                    "duration": 0.06535933333333332
                },
                {
                    "name": "A5",
                    "midi": 81,
                    "time": 128.72520699999998,
                    "velocity": 0.7244094488188977,
                    "duration": 0.06535933333333332
                },
                {
                    "name": "B5",
                    "midi": 83,
                    "time": 128.82324599999998,
                    "velocity": 0.7244094488188977,
                    "duration": 0.06535933333333332
                },
                {
                    "name": "A5",
                    "midi": 81,
                    "time": 128.92128499999998,
                    "velocity": 0.7244094488188977,
                    "duration": 0.06535933333333332
                },
                {
                    "name": "C#6",
                    "midi": 85,
                    "time": 129.01932399999998,
                    "velocity": 0.7244094488188977,
                    "duration": 0.06535933333333332
                },
                {
                    "name": "A5",
                    "midi": 81,
                    "time": 129.11736299999998,
                    "velocity": 0.7244094488188977,
                    "duration": 0.06535933333333332
                },
                {
                    "name": "A#5",
                    "midi": 82,
                    "time": 129.21540199999998,
                    "velocity": 0.7244094488188977,
                    "duration": 0.06535933333333332
                },
                {
                    "name": "A5",
                    "midi": 81,
                    "time": 129.31344099999998,
                    "velocity": 0.7244094488188977,
                    "duration": 0.06535933333333332
                },
                {
                    "name": "D6",
                    "midi": 86,
                    "time": 129.41147999999998,
                    "velocity": 0.7244094488188977,
                    "duration": 0.06535933333333332
                },
                {
                    "name": "A5",
                    "midi": 81,
                    "time": 129.50951899999998,
                    "velocity": 0.7244094488188977,
                    "duration": 0.06535933333333332
                },
                {
                    "name": "A#5",
                    "midi": 82,
                    "time": 129.60755799999998,
                    "velocity": 0.7244094488188977,
                    "duration": 0.06535933333333332
                },
                {
                    "name": "A5",
                    "midi": 81,
                    "time": 129.70559699999998,
                    "velocity": 0.7244094488188977,
                    "duration": 0.06535933333333332
                },
                {
                    "name": "E6",
                    "midi": 88,
                    "time": 129.80363599999998,
                    "velocity": 0.7244094488188977,
                    "duration": 0.06535933333333332
                },
                {
                    "name": "A5",
                    "midi": 81,
                    "time": 129.90167499999998,
                    "velocity": 0.7244094488188977,
                    "duration": 0.06535933333333332
                },
                {
                    "name": "A#5",
                    "midi": 82,
                    "time": 129.99971399999998,
                    "velocity": 0.7244094488188977,
                    "duration": 0.06535933333333332
                },
                {
                    "name": "A5",
                    "midi": 81,
                    "time": 130.09775299999998,
                    "velocity": 0.7244094488188977,
                    "duration": 0.06535933333333332
                },
                {
                    "name": "F6",
                    "midi": 89,
                    "time": 130.19579199999998,
                    "velocity": 0.7244094488188977,
                    "duration": 0.06535933333333332
                },
                {
                    "name": "E6",
                    "midi": 88,
                    "time": 130.29383099999998,
                    "velocity": 0.7244094488188977,
                    "duration": 0.06535933333333332
                },
                {
                    "name": "D6",
                    "midi": 86,
                    "time": 130.39186999999998,
                    "velocity": 0.7244094488188977,
                    "duration": 0.06535933333333332
                },
                {
                    "name": "C#6",
                    "midi": 85,
                    "time": 130.48990899999998,
                    "velocity": 0.7244094488188977,
                    "duration": 0.06535933333333332
                },
                {
                    "name": "D6",
                    "midi": 86,
                    "time": 130.58794799999998,
                    "velocity": 0.7244094488188977,
                    "duration": 0.06535933333333332
                },
                {
                    "name": "C#6",
                    "midi": 85,
                    "time": 130.68598699999998,
                    "velocity": 0.7244094488188977,
                    "duration": 0.06535933333333332
                },
                {
                    "name": "D6",
                    "midi": 86,
                    "time": 130.78402599999998,
                    "velocity": 0.7244094488188977,
                    "duration": 0.06535933333333332
                },
                {
                    "name": "E6",
                    "midi": 88,
                    "time": 130.88206499999998,
                    "velocity": 0.7244094488188977,
                    "duration": 0.06535933333333332
                },
                {
                    "name": "F6",
                    "midi": 89,
                    "time": 130.98010399999998,
                    "velocity": 0.7244094488188977,
                    "duration": 0.06535933333333332
                },
                {
                    "name": "E6",
                    "midi": 88,
                    "time": 131.07814299999998,
                    "velocity": 0.7244094488188977,
                    "duration": 0.06535933333333332
                },
                {
                    "name": "G6",
                    "midi": 91,
                    "time": 131.17618199999998,
                    "velocity": 0.7244094488188977,
                    "duration": 0.06535933333333332
                },
                {
                    "name": "F6",
                    "midi": 89,
                    "time": 131.27422099999998,
                    "velocity": 0.7244094488188977,
                    "duration": 0.06535933333333332
                },
                {
                    "name": "E6",
                    "midi": 88,
                    "time": 131.37225999999998,
                    "velocity": 0.7244094488188977,
                    "duration": 0.06535933333333332
                },
                {
                    "name": "D6",
                    "midi": 86,
                    "time": 131.47029899999998,
                    "velocity": 0.7244094488188977,
                    "duration": 0.06535933333333332
                },
                {
                    "name": "C6",
                    "midi": 84,
                    "time": 131.56833799999998,
                    "velocity": 0.7244094488188977,
                    "duration": 0.06535933333333332
                },
                {
                    "name": "A#5",
                    "midi": 82,
                    "time": 131.66637699999998,
                    "velocity": 0.7244094488188977,
                    "duration": 0.06535933333333332
                },
                {
                    "name": "A5",
                    "midi": 81,
                    "time": 131.76441599999998,
                    "velocity": 0.7244094488188977,
                    "duration": 0.06535933333333332
                },
                {
                    "name": "B5",
                    "midi": 83,
                    "time": 131.86245499999998,
                    "velocity": 0.7244094488188977,
                    "duration": 0.06535933333333332
                },
                {
                    "name": "A5",
                    "midi": 81,
                    "time": 131.96049399999998,
                    "velocity": 0.7244094488188977,
                    "duration": 0.06535933333333332
                },
                {
                    "name": "G#5",
                    "midi": 80,
                    "time": 132.05853299999998,
                    "velocity": 0.7244094488188977,
                    "duration": 0.06535933333333332
                },
                {
                    "name": "A5",
                    "midi": 81,
                    "time": 132.15657199999998,
                    "velocity": 0.7244094488188977,
                    "duration": 0.06535933333333332
                },
                {
                    "name": "G#5",
                    "midi": 80,
                    "time": 132.25461099999998,
                    "velocity": 0.7244094488188977,
                    "duration": 0.06535933333333332
                },
                {
                    "name": "A5",
                    "midi": 81,
                    "time": 132.35264999999998,
                    "velocity": 0.7244094488188977,
                    "duration": 0.06535933333333332
                },
                {
                    "name": "B5",
                    "midi": 83,
                    "time": 132.45068899999998,
                    "velocity": 0.7244094488188977,
                    "duration": 0.06535933333333332
                },
                {
                    "name": "C6",
                    "midi": 84,
                    "time": 132.54872799999998,
                    "velocity": 0.7244094488188977,
                    "duration": 0.06535933333333332
                },
                {
                    "name": "A5",
                    "midi": 81,
                    "time": 132.64676699999998,
                    "velocity": 0.7244094488188977,
                    "duration": 0.06535933333333332
                },
                {
                    "name": "F#5",
                    "midi": 78,
                    "time": 132.74480599999998,
                    "velocity": 0.7244094488188977,
                    "duration": 0.06535933333333332
                },
                {
                    "name": "D#5",
                    "midi": 75,
                    "time": 132.84284499999998,
                    "velocity": 0.7244094488188977,
                    "duration": 0.06535933333333332
                },
                {
                    "name": "C5",
                    "midi": 72,
                    "time": 132.94088399999998,
                    "velocity": 0.7244094488188977,
                    "duration": 0.06535933333333332
                },
                {
                    "name": "A4",
                    "midi": 69,
                    "time": 133.03892299999998,
                    "velocity": 0.7244094488188977,
                    "duration": 0.06535933333333332
                },
                {
                    "name": "F#4",
                    "midi": 66,
                    "time": 133.13696199999998,
                    "velocity": 0.7244094488188977,
                    "duration": 0.06535933333333332
                },
                {
                    "name": "D#4",
                    "midi": 63,
                    "time": 133.23500099999998,
                    "velocity": 0.7244094488188977,
                    "duration": 0.06535933333333332
                },
                {
                    "name": "E4",
                    "midi": 64,
                    "time": 133.33303999999998,
                    "velocity": 0.7244094488188977,
                    "duration": 0.06535933333333332
                },
                {
                    "name": "A4",
                    "midi": 69,
                    "time": 133.43107899999998,
                    "velocity": 0.7244094488188977,
                    "duration": 0.06535933333333332
                },
                {
                    "name": "G#4",
                    "midi": 68,
                    "time": 133.52911799999998,
                    "velocity": 0.7244094488188977,
                    "duration": 0.06535933333333332
                },
                {
                    "name": "B4",
                    "midi": 71,
                    "time": 133.62715699999998,
                    "velocity": 0.7244094488188977,
                    "duration": 0.06535933333333332
                },
                {
                    "name": "A4",
                    "midi": 69,
                    "time": 133.72519599999998,
                    "velocity": 0.7244094488188977,
                    "duration": 0.06535933333333332
                },
                {
                    "name": "C5",
                    "midi": 72,
                    "time": 133.82323499999998,
                    "velocity": 0.7244094488188977,
                    "duration": 0.06535933333333332
                },
                {
                    "name": "B4",
                    "midi": 71,
                    "time": 133.92127399999998,
                    "velocity": 0.7244094488188977,
                    "duration": 0.06535933333333332
                },
                {
                    "name": "D5",
                    "midi": 74,
                    "time": 134.01931299999998,
                    "velocity": 0.7244094488188977,
                    "duration": 0.06535933333333332
                },
                {
                    "name": "C5",
                    "midi": 72,
                    "time": 134.11735199999998,
                    "velocity": 0.7244094488188977,
                    "duration": 0.06535933333333332
                },
                {
                    "name": "E5",
                    "midi": 76,
                    "time": 134.21539099999998,
                    "velocity": 0.7244094488188977,
                    "duration": 0.06535933333333332
                },
                {
                    "name": "D#5",
                    "midi": 75,
                    "time": 134.31342999999998,
                    "velocity": 0.7244094488188977,
                    "duration": 0.06535933333333332
                },
                {
                    "name": "F5",
                    "midi": 77,
                    "time": 134.41146899999998,
                    "velocity": 0.7244094488188977,
                    "duration": 0.06535933333333332
                },
                {
                    "name": "E5",
                    "midi": 76,
                    "time": 134.50950799999998,
                    "velocity": 0.7244094488188977,
                    "duration": 0.06535933333333332
                },
                {
                    "name": "A5",
                    "midi": 81,
                    "time": 134.60754699999998,
                    "velocity": 0.7244094488188977,
                    "duration": 0.06535933333333332
                },
                {
                    "name": "G#5",
                    "midi": 80,
                    "time": 134.70558599999998,
                    "velocity": 0.7244094488188977,
                    "duration": 0.06535933333333332
                },
                {
                    "name": "B5",
                    "midi": 83,
                    "time": 134.80362499999998,
                    "velocity": 0.7244094488188977,
                    "duration": 0.06535933333333332
                },
                {
                    "name": "A5",
                    "midi": 81,
                    "time": 134.90166399999998,
                    "velocity": 0.7244094488188977,
                    "duration": 0.06535933333333332
                },
                {
                    "name": "C6",
                    "midi": 84,
                    "time": 134.99970299999998,
                    "velocity": 0.7244094488188977,
                    "duration": 0.06535933333333332
                },
                {
                    "name": "B5",
                    "midi": 83,
                    "time": 135.09774199999998,
                    "velocity": 0.7244094488188977,
                    "duration": 0.06535933333333332
                },
                {
                    "name": "D#6",
                    "midi": 87,
                    "time": 135.19578099999998,
                    "velocity": 0.7244094488188977,
                    "duration": 0.06535933333333332
                },
                {
                    "name": "C6",
                    "midi": 84,
                    "time": 135.29381999999998,
                    "velocity": 0.7244094488188977,
                    "duration": 0.06535933333333332
                },
                {
                    "name": "E6",
                    "midi": 88,
                    "time": 135.39185899999998,
                    "velocity": 0.7244094488188977,
                    "duration": 0.06535933333333332
                },
                {
                    "name": "D#6",
                    "midi": 87,
                    "time": 135.48989799999998,
                    "velocity": 0.7244094488188977,
                    "duration": 0.06535933333333332
                },
                {
                    "name": "F6",
                    "midi": 89,
                    "time": 135.58793699999998,
                    "velocity": 0.7244094488188977,
                    "duration": 0.06535933333333332
                },
                {
                    "name": "E6",
                    "midi": 88,
                    "time": 135.68597599999998,
                    "velocity": 0.7244094488188977,
                    "duration": 0.06535933333333332
                },
                {
                    "name": "F6",
                    "midi": 89,
                    "time": 135.78401499999998,
                    "velocity": 0.7244094488188977,
                    "duration": 0.06535933333333332
                },
                {
                    "name": "D#6",
                    "midi": 87,
                    "time": 135.88205399999998,
                    "velocity": 0.7244094488188977,
                    "duration": 0.06535933333333332
                },
                {
                    "name": "F6",
                    "midi": 89,
                    "time": 135.98009299999998,
                    "velocity": 0.7244094488188977,
                    "duration": 0.06535933333333332
                },
                {
                    "name": "E6",
                    "midi": 88,
                    "time": 136.07813199999998,
                    "velocity": 0.7244094488188977,
                    "duration": 0.06535933333333332
                },
                {
                    "name": "F6",
                    "midi": 89,
                    "time": 136.17617099999998,
                    "velocity": 0.7244094488188977,
                    "duration": 0.06535933333333332
                },
                {
                    "name": "D#6",
                    "midi": 87,
                    "time": 136.27420999999998,
                    "velocity": 0.7244094488188977,
                    "duration": 0.06535933333333332
                },
                {
                    "name": "F6",
                    "midi": 89,
                    "time": 136.37224899999998,
                    "velocity": 0.7244094488188977,
                    "duration": 0.06535933333333332
                },
                {
                    "name": "E6",
                    "midi": 88,
                    "time": 136.47028799999998,
                    "velocity": 0.7244094488188977,
                    "duration": 0.06535933333333332
                },
                {
                    "name": "A6",
                    "midi": 93,
                    "time": 136.56832699999998,
                    "velocity": 0.7244094488188977,
                    "duration": 0.06535933333333332
                },
                {
                    "name": "G6",
                    "midi": 91,
                    "time": 136.66636599999998,
                    "velocity": 0.7244094488188977,
                    "duration": 0.06535933333333332
                },
                {
                    "name": "F6",
                    "midi": 89,
                    "time": 136.76440499999998,
                    "velocity": 0.7244094488188977,
                    "duration": 0.06535933333333332
                },
                {
                    "name": "E6",
                    "midi": 88,
                    "time": 136.86244399999998,
                    "velocity": 0.7244094488188977,
                    "duration": 0.06535933333333332
                },
                {
                    "name": "D6",
                    "midi": 86,
                    "time": 136.96048299999998,
                    "velocity": 0.7244094488188977,
                    "duration": 0.06535933333333332
                },
                {
                    "name": "C6",
                    "midi": 84,
                    "time": 137.05852199999998,
                    "velocity": 0.7244094488188977,
                    "duration": 0.06535933333333332
                },
                {
                    "name": "B5",
                    "midi": 83,
                    "time": 137.15656099999998,
                    "velocity": 0.7244094488188977,
                    "duration": 0.06535933333333332
                },
                {
                    "name": "A5",
                    "midi": 81,
                    "time": 137.25459999999998,
                    "velocity": 0.7244094488188977,
                    "duration": 0.06535933333333332
                },
                {
                    "name": "G5",
                    "midi": 79,
                    "time": 137.35263899999998,
                    "velocity": 0.7244094488188977,
                    "duration": 0.06535933333333332
                },
                {
                    "name": "F5",
                    "midi": 77,
                    "time": 137.45067799999998,
                    "velocity": 0.7244094488188977,
                    "duration": 0.06535933333333332
                },
                {
                    "name": "E5",
                    "midi": 76,
                    "time": 137.54871699999998,
                    "velocity": 0.7244094488188977,
                    "duration": 0.06535933333333332
                },
                {
                    "name": "D5",
                    "midi": 74,
                    "time": 137.64675599999998,
                    "velocity": 0.7244094488188977,
                    "duration": 0.06535933333333332
                },
                {
                    "name": "C5",
                    "midi": 72,
                    "time": 137.74479499999998,
                    "velocity": 0.7244094488188977,
                    "duration": 0.06535933333333332
                },
                {
                    "name": "B4",
                    "midi": 71,
                    "time": 137.84283399999998,
                    "velocity": 0.7244094488188977,
                    "duration": 0.06535933333333332
                },
                {
                    "name": "A4",
                    "midi": 69,
                    "time": 137.94087299999998,
                    "velocity": 0.7244094488188977,
                    "duration": 0.06535933333333332
                },
                {
                    "name": "B4",
                    "midi": 71,
                    "time": 138.03891199999998,
                    "velocity": 0.7244094488188977,
                    "duration": 0.06535933333333332
                },
                {
                    "name": "D5",
                    "midi": 74,
                    "time": 138.13695099999998,
                    "velocity": 0.7244094488188977,
                    "duration": 0.06535933333333332
                },
                {
                    "name": "F5",
                    "midi": 77,
                    "time": 138.23498999999998,
                    "velocity": 0.7244094488188977,
                    "duration": 0.06535933333333332
                },
                {
                    "name": "E5",
                    "midi": 76,
                    "time": 138.33302899999998,
                    "velocity": 0.7244094488188977,
                    "duration": 0.06535933333333332
                },
                {
                    "name": "D5",
                    "midi": 74,
                    "time": 138.43106799999998,
                    "velocity": 0.7244094488188977,
                    "duration": 0.06535933333333332
                },
                {
                    "name": "C5",
                    "midi": 72,
                    "time": 138.52910699999998,
                    "velocity": 0.7244094488188977,
                    "duration": 0.06535933333333332
                },
                {
                    "name": "B4",
                    "midi": 71,
                    "time": 138.62714599999998,
                    "velocity": 0.7244094488188977,
                    "duration": 0.06535933333333332
                },
                {
                    "name": "A4",
                    "midi": 69,
                    "time": 138.72518499999998,
                    "velocity": 0.7244094488188977,
                    "duration": 0.06535933333333332
                },
                {
                    "name": "G#4",
                    "midi": 68,
                    "time": 138.82322399999998,
                    "velocity": 0.7244094488188977,
                    "duration": 0.06535933333333332
                },
                {
                    "name": "F4",
                    "midi": 65,
                    "time": 138.92126299999998,
                    "velocity": 0.7244094488188977,
                    "duration": 0.06535933333333332
                },
                {
                    "name": "E4",
                    "midi": 64,
                    "time": 139.01930199999998,
                    "velocity": 0.7244094488188977,
                    "duration": 0.06535933333333332
                },
                {
                    "name": "D4",
                    "midi": 62,
                    "time": 139.11734099999998,
                    "velocity": 0.7244094488188977,
                    "duration": 0.06535933333333332
                },
                {
                    "name": "C4",
                    "midi": 60,
                    "time": 139.21537999999998,
                    "velocity": 0.7244094488188977,
                    "duration": 0.06535933333333332
                },
                {
                    "name": "B3",
                    "midi": 59,
                    "time": 139.31341899999998,
                    "velocity": 0.7244094488188977,
                    "duration": 0.06535933333333332
                },
                {
                    "name": "A3",
                    "midi": 57,
                    "time": 139.41145799999998,
                    "velocity": 0.7244094488188977,
                    "duration": 0.06535933333333332
                },
                {
                    "name": "G#3",
                    "midi": 56,
                    "time": 139.50949699999998,
                    "velocity": 0.7244094488188977,
                    "duration": 0.06535933333333332
                },
                {
                    "name": "A3",
                    "midi": 57,
                    "time": 139.60753599999998,
                    "velocity": 0.7244094488188977,
                    "duration": 0.1919930416666773
                },
                {
                    "name": "G5",
                    "midi": 79,
                    "time": 152.15652799999998,
                    "velocity": 0.7244094488188977,
                    "duration": 0.06535933333333332
                },
                {
                    "name": "G5",
                    "midi": 79,
                    "time": 152.25456699999998,
                    "velocity": 0.7244094488188977,
                    "duration": 0.06535933333333332
                },
                {
                    "name": "F5",
                    "midi": 77,
                    "time": 152.35260599999998,
                    "velocity": 0.7244094488188977,
                    "duration": 0.06535933333333332
                },
                {
                    "name": "G5",
                    "midi": 79,
                    "time": 152.45064499999998,
                    "velocity": 0.7244094488188977,
                    "duration": 0.06535933333333332
                },
                {
                    "name": "A5",
                    "midi": 81,
                    "time": 152.54868399999998,
                    "velocity": 0.7244094488188977,
                    "duration": 0.06535933333333332
                },
                {
                    "name": "G5",
                    "midi": 79,
                    "time": 152.64672299999998,
                    "velocity": 0.7244094488188977,
                    "duration": 0.06535933333333332
                },
                {
                    "name": "F5",
                    "midi": 77,
                    "time": 152.74476199999998,
                    "velocity": 0.7244094488188977,
                    "duration": 0.06535933333333332
                },
                {
                    "name": "G5",
                    "midi": 79,
                    "time": 152.84280099999998,
                    "velocity": 0.7244094488188977,
                    "duration": 0.06535933333333332
                },
                {
                    "name": "B5",
                    "midi": 83,
                    "time": 152.94083999999998,
                    "velocity": 0.7244094488188977,
                    "duration": 0.06535933333333332
                },
                {
                    "name": "G5",
                    "midi": 79,
                    "time": 153.03887899999998,
                    "velocity": 0.7244094488188977,
                    "duration": 0.06535933333333332
                },
                {
                    "name": "F#5",
                    "midi": 78,
                    "time": 153.13691799999998,
                    "velocity": 0.7244094488188977,
                    "duration": 0.06535933333333332
                },
                {
                    "name": "G5",
                    "midi": 79,
                    "time": 153.23495699999998,
                    "velocity": 0.7244094488188977,
                    "duration": 0.06535933333333332
                },
                {
                    "name": "D6",
                    "midi": 86,
                    "time": 153.33299599999998,
                    "velocity": 0.7244094488188977,
                    "duration": 0.06535933333333332
                },
                {
                    "name": "G5",
                    "midi": 79,
                    "time": 153.43103499999998,
                    "velocity": 0.7244094488188977,
                    "duration": 0.06535933333333332
                },
                {
                    "name": "F#5",
                    "midi": 78,
                    "time": 153.52907399999998,
                    "velocity": 0.7244094488188977,
                    "duration": 0.06535933333333332
                },
                {
                    "name": "G5",
                    "midi": 79,
                    "time": 153.62711299999998,
                    "velocity": 0.7244094488188977,
                    "duration": 0.06535933333333332
                },
                {
                    "name": "D#6",
                    "midi": 87,
                    "time": 153.72515199999998,
                    "velocity": 0.7244094488188977,
                    "duration": 0.06535933333333332
                },
                {
                    "name": "F6",
                    "midi": 89,
                    "time": 153.82319099999998,
                    "velocity": 0.7244094488188977,
                    "duration": 0.06535933333333332
                },
                {
                    "name": "D#6",
                    "midi": 87,
                    "time": 153.92122999999998,
                    "velocity": 0.7244094488188977,
                    "duration": 0.06535933333333332
                },
                {
                    "name": "D6",
                    "midi": 86,
                    "time": 154.01926899999998,
                    "velocity": 0.7244094488188977,
                    "duration": 0.06535933333333332
                },
                {
                    "name": "C6",
                    "midi": 84,
                    "time": 154.11730799999998,
                    "velocity": 0.7244094488188977,
                    "duration": 0.06535933333333332
                },
                {
                    "name": "D6",
                    "midi": 86,
                    "time": 154.21534699999998,
                    "velocity": 0.7244094488188977,
                    "duration": 0.06535933333333332
                },
                {
                    "name": "C6",
                    "midi": 84,
                    "time": 154.31338599999998,
                    "velocity": 0.7244094488188977,
                    "duration": 0.06535933333333332
                },
                {
                    "name": "B5",
                    "midi": 83,
                    "time": 154.41142499999998,
                    "velocity": 0.7244094488188977,
                    "duration": 0.06535933333333332
                },
                {
                    "name": "C6",
                    "midi": 84,
                    "time": 154.50946399999998,
                    "velocity": 0.7244094488188977,
                    "duration": 0.06535933333333332
                },
                {
                    "name": "G5",
                    "midi": 79,
                    "time": 154.60750299999998,
                    "velocity": 0.7244094488188977,
                    "duration": 0.06535933333333332
                },
                {
                    "name": "G#5",
                    "midi": 80,
                    "time": 154.70554199999998,
                    "velocity": 0.7244094488188977,
                    "duration": 0.06535933333333332
                },
                {
                    "name": "G5",
                    "midi": 79,
                    "time": 154.80358099999998,
                    "velocity": 0.7244094488188977,
                    "duration": 0.06535933333333332
                },
                {
                    "name": "F5",
                    "midi": 77,
                    "time": 154.90161999999998,
                    "velocity": 0.7244094488188977,
                    "duration": 0.06535933333333332
                },
                {
                    "name": "D#5",
                    "midi": 75,
                    "time": 154.99965899999998,
                    "velocity": 0.7244094488188977,
                    "duration": 0.06535933333333332
                },
                {
                    "name": "D5",
                    "midi": 74,
                    "time": 155.09769799999998,
                    "velocity": 0.7244094488188977,
                    "duration": 0.06535933333333332
                },
                {
                    "name": "C5",
                    "midi": 72,
                    "time": 155.19573699999998,
                    "velocity": 0.7244094488188977,
                    "duration": 0.06535933333333332
                },
                {
                    "name": "B4",
                    "midi": 71,
                    "time": 155.29377599999998,
                    "velocity": 0.7244094488188977,
                    "duration": 0.06535933333333332
                },
                {
                    "name": "G4",
                    "midi": 67,
                    "time": 155.39181499999998,
                    "velocity": 0.7244094488188977,
                    "duration": 0.06535933333333332
                },
                {
                    "name": "F#4",
                    "midi": 66,
                    "time": 155.48985399999998,
                    "velocity": 0.7244094488188977,
                    "duration": 0.06535933333333332
                },
                {
                    "name": "G4",
                    "midi": 67,
                    "time": 155.58789299999998,
                    "velocity": 0.7244094488188977,
                    "duration": 0.06535933333333332
                },
                {
                    "name": "G#4",
                    "midi": 68,
                    "time": 155.68593199999998,
                    "velocity": 0.7244094488188977,
                    "duration": 0.06535933333333332
                },
                {
                    "name": "G4",
                    "midi": 67,
                    "time": 155.78397099999998,
                    "velocity": 0.7244094488188977,
                    "duration": 0.06535933333333332
                },
                {
                    "name": "F#4",
                    "midi": 66,
                    "time": 155.88200999999998,
                    "velocity": 0.7244094488188977,
                    "duration": 0.06535933333333332
                },
                {
                    "name": "G4",
                    "midi": 67,
                    "time": 155.98004899999998,
                    "velocity": 0.7244094488188977,
                    "duration": 0.06535933333333332
                },
                {
                    "name": "B4",
                    "midi": 71,
                    "time": 156.07808799999998,
                    "velocity": 0.7244094488188977,
                    "duration": 0.06535933333333332
                },
                {
                    "name": "G4",
                    "midi": 67,
                    "time": 156.17612699999998,
                    "velocity": 0.7244094488188977,
                    "duration": 0.06535933333333332
                },
                {
                    "name": "F#4",
                    "midi": 66,
                    "time": 156.27416599999998,
                    "velocity": 0.7244094488188977,
                    "duration": 0.06535933333333332
                },
                {
                    "name": "G4",
                    "midi": 67,
                    "time": 156.37220499999998,
                    "velocity": 0.7244094488188977,
                    "duration": 0.06535933333333332
                },
                {
                    "name": "D5",
                    "midi": 74,
                    "time": 156.47024399999998,
                    "velocity": 0.7244094488188977,
                    "duration": 0.06535933333333332
                },
                {
                    "name": "G4",
                    "midi": 67,
                    "time": 156.56828299999998,
                    "velocity": 0.7244094488188977,
                    "duration": 0.06535933333333332
                },
                {
                    "name": "F#4",
                    "midi": 66,
                    "time": 156.66632199999998,
                    "velocity": 0.7244094488188977,
                    "duration": 0.06535933333333332
                },
                {
                    "name": "G4",
                    "midi": 67,
                    "time": 156.76436099999998,
                    "velocity": 0.7244094488188977,
                    "duration": 0.06535933333333332
                },
                {
                    "name": "D#5",
                    "midi": 75,
                    "time": 156.86239999999998,
                    "velocity": 0.7244094488188977,
                    "duration": 0.06535933333333332
                },
                {
                    "name": "F5",
                    "midi": 77,
                    "time": 156.96043899999998,
                    "velocity": 0.7244094488188977,
                    "duration": 0.06535933333333332
                },
                {
                    "name": "D#5",
                    "midi": 75,
                    "time": 157.05847799999998,
                    "velocity": 0.7244094488188977,
                    "duration": 0.06535933333333332
                },
                {
                    "name": "D5",
                    "midi": 74,
                    "time": 157.15651699999998,
                    "velocity": 0.7244094488188977,
                    "duration": 0.06535933333333332
                },
                {
                    "name": "C5",
                    "midi": 72,
                    "time": 157.25455599999998,
                    "velocity": 0.7244094488188977,
                    "duration": 0.06535933333333332
                },
                {
                    "name": "D5",
                    "midi": 74,
                    "time": 157.35259499999998,
                    "velocity": 0.7244094488188977,
                    "duration": 0.06535933333333332
                },
                {
                    "name": "C5",
                    "midi": 72,
                    "time": 157.45063399999998,
                    "velocity": 0.7244094488188977,
                    "duration": 0.06535933333333332
                },
                {
                    "name": "B4",
                    "midi": 71,
                    "time": 157.54867299999998,
                    "velocity": 0.7244094488188977,
                    "duration": 0.06535933333333332
                },
                {
                    "name": "C5",
                    "midi": 72,
                    "time": 157.64671199999998,
                    "velocity": 0.7244094488188977,
                    "duration": 0.06535933333333332
                },
                {
                    "name": "G4",
                    "midi": 67,
                    "time": 157.74475099999998,
                    "velocity": 0.7244094488188977,
                    "duration": 0.06535933333333332
                },
                {
                    "name": "G#4",
                    "midi": 68,
                    "time": 157.84278999999998,
                    "velocity": 0.7244094488188977,
                    "duration": 0.06535933333333332
                },
                {
                    "name": "G4",
                    "midi": 67,
                    "time": 157.94082899999998,
                    "velocity": 0.7244094488188977,
                    "duration": 0.06535933333333332
                },
                {
                    "name": "F4",
                    "midi": 65,
                    "time": 158.03886799999998,
                    "velocity": 0.7244094488188977,
                    "duration": 0.06535933333333332
                },
                {
                    "name": "D#4",
                    "midi": 63,
                    "time": 158.13690699999998,
                    "velocity": 0.7244094488188977,
                    "duration": 0.06535933333333332
                },
                {
                    "name": "D4",
                    "midi": 62,
                    "time": 158.23494599999998,
                    "velocity": 0.7244094488188977,
                    "duration": 0.06535933333333332
                },
                {
                    "name": "C4",
                    "midi": 60,
                    "time": 158.33298499999998,
                    "velocity": 0.7244094488188977,
                    "duration": 0.06535933333333332
                },
                {
                    "name": "G3",
                    "midi": 55,
                    "time": 158.43102399999998,
                    "velocity": 0.7244094488188977,
                    "duration": 0.06535933333333332
                },
                {
                    "name": "B3",
                    "midi": 59,
                    "time": 158.52906299999998,
                    "velocity": 0.7244094488188977,
                    "duration": 0.06535933333333332
                },
                {
                    "name": "D4",
                    "midi": 62,
                    "time": 158.62710199999998,
                    "velocity": 0.7244094488188977,
                    "duration": 0.06535933333333332
                },
                {
                    "name": "G4",
                    "midi": 67,
                    "time": 158.72514099999998,
                    "velocity": 0.7244094488188977,
                    "duration": 0.06535933333333332
                },
                {
                    "name": "C5",
                    "midi": 72,
                    "time": 158.82317999999998,
                    "velocity": 0.7244094488188977,
                    "duration": 0.06535933333333332
                },
                {
                    "name": "G4",
                    "midi": 67,
                    "time": 158.92121899999998,
                    "velocity": 0.7244094488188977,
                    "duration": 0.06535933333333332
                },
                {
                    "name": "D#4",
                    "midi": 63,
                    "time": 159.01925799999998,
                    "velocity": 0.7244094488188977,
                    "duration": 0.06535933333333332
                },
                {
                    "name": "C4",
                    "midi": 60,
                    "time": 159.11729699999998,
                    "velocity": 0.7244094488188977,
                    "duration": 0.06535933333333332
                },
                {
                    "name": "G4",
                    "midi": 67,
                    "time": 159.21533599999998,
                    "velocity": 0.7244094488188977,
                    "duration": 0.06535933333333332
                },
                {
                    "name": "B4",
                    "midi": 71,
                    "time": 159.31337499999998,
                    "velocity": 0.7244094488188977,
                    "duration": 0.06535933333333332
                },
                {
                    "name": "D5",
                    "midi": 74,
                    "time": 159.41141399999998,
                    "velocity": 0.7244094488188977,
                    "duration": 0.06535933333333332
                },
                {
                    "name": "G5",
                    "midi": 79,
                    "time": 159.50945299999998,
                    "velocity": 0.7244094488188977,
                    "duration": 0.06535933333333332
                },
                {
                    "name": "C6",
                    "midi": 84,
                    "time": 159.60749199999998,
                    "velocity": 0.7244094488188977,
                    "duration": 0.06535933333333332
                },
                {
                    "name": "G5",
                    "midi": 79,
                    "time": 159.70553099999998,
                    "velocity": 0.7244094488188977,
                    "duration": 0.06535933333333332
                },
                {
                    "name": "D#5",
                    "midi": 75,
                    "time": 159.80356999999998,
                    "velocity": 0.7244094488188977,
                    "duration": 0.06535933333333332
                },
                {
                    "name": "C5",
                    "midi": 72,
                    "time": 159.90160899999998,
                    "velocity": 0.7244094488188977,
                    "duration": 0.06535933333333332
                },
                {
                    "name": "G5",
                    "midi": 79,
                    "time": 159.99964799999998,
                    "velocity": 0.7244094488188977,
                    "duration": 0.06535933333333332
                },
                {
                    "name": "B5",
                    "midi": 83,
                    "time": 160.09768699999998,
                    "velocity": 0.7244094488188977,
                    "duration": 0.06535933333333332
                },
                {
                    "name": "D6",
                    "midi": 86,
                    "time": 160.19572599999998,
                    "velocity": 0.7244094488188977,
                    "duration": 0.06535933333333332
                },
                {
                    "name": "G6",
                    "midi": 91,
                    "time": 160.29376499999998,
                    "velocity": 0.7244094488188977,
                    "duration": 0.06535933333333332
                },
                {
                    "name": "C6",
                    "midi": 84,
                    "time": 160.39180399999998,
                    "velocity": 0.7244094488188977,
                    "duration": 0.06535933333333332
                },
                {
                    "name": "G5",
                    "midi": 79,
                    "time": 160.48984299999998,
                    "velocity": 0.7244094488188977,
                    "duration": 0.06535933333333332
                },
                {
                    "name": "D#5",
                    "midi": 75,
                    "time": 160.58788199999998,
                    "velocity": 0.7244094488188977,
                    "duration": 0.06535933333333332
                },
                {
                    "name": "C5",
                    "midi": 72,
                    "time": 160.68592099999998,
                    "velocity": 0.7244094488188977,
                    "duration": 0.06535933333333332
                },
                {
                    "name": "G4",
                    "midi": 67,
                    "time": 160.78395999999998,
                    "velocity": 0.7244094488188977,
                    "duration": 0.06535933333333332
                },
                {
                    "name": "B4",
                    "midi": 71,
                    "time": 160.88199899999998,
                    "velocity": 0.7244094488188977,
                    "duration": 0.06535933333333332
                },
                {
                    "name": "D5",
                    "midi": 74,
                    "time": 160.98003799999998,
                    "velocity": 0.7244094488188977,
                    "duration": 0.06535933333333332
                },
                {
                    "name": "G5",
                    "midi": 79,
                    "time": 161.07807699999998,
                    "velocity": 0.7244094488188977,
                    "duration": 0.06535933333333332
                },
                {
                    "name": "C5",
                    "midi": 72,
                    "time": 161.17611599999998,
                    "velocity": 0.7244094488188977,
                    "duration": 0.06535933333333332
                },
                {
                    "name": "G4",
                    "midi": 67,
                    "time": 161.27415499999998,
                    "velocity": 0.7244094488188977,
                    "duration": 0.06535933333333332
                },
                {
                    "name": "D#4",
                    "midi": 63,
                    "time": 161.37219399999998,
                    "velocity": 0.7244094488188977,
                    "duration": 0.06535933333333332
                },
                {
                    "name": "C4",
                    "midi": 60,
                    "time": 161.47023299999998,
                    "velocity": 0.7244094488188977,
                    "duration": 0.06535933333333332
                },
                {
                    "name": "G3",
                    "midi": 55,
                    "time": 161.56827199999998,
                    "velocity": 0.7244094488188977,
                    "duration": 0.06535933333333332
                },
                {
                    "name": "B3",
                    "midi": 59,
                    "time": 161.66631099999998,
                    "velocity": 0.7244094488188977,
                    "duration": 0.06535933333333332
                },
                {
                    "name": "D4",
                    "midi": 62,
                    "time": 161.76434999999998,
                    "velocity": 0.7244094488188977,
                    "duration": 0.06535933333333332
                },
                {
                    "name": "G4",
                    "midi": 67,
                    "time": 161.86238899999998,
                    "velocity": 0.7244094488188977,
                    "duration": 0.06535933333333332
                },
                {
                    "name": "B4",
                    "midi": 71,
                    "time": 161.96042799999998,
                    "velocity": 0.7244094488188977,
                    "duration": 0.06535933333333332
                },
                {
                    "name": "D5",
                    "midi": 74,
                    "time": 162.05846699999998,
                    "velocity": 0.7244094488188977,
                    "duration": 0.06535933333333332
                },
                {
                    "name": "F#5",
                    "midi": 78,
                    "time": 162.15650599999998,
                    "velocity": 0.7244094488188977,
                    "duration": 0.06535933333333332
                },
                {
                    "name": "G5",
                    "midi": 79,
                    "time": 162.25454499999998,
                    "velocity": 0.7244094488188977,
                    "duration": 0.06535933333333332
                },
                {
                    "name": "F#5",
                    "midi": 78,
                    "time": 162.35258399999998,
                    "velocity": 0.7244094488188977,
                    "duration": 0.06535933333333332
                },
                {
                    "name": "G5",
                    "midi": 79,
                    "time": 162.45062299999998,
                    "velocity": 0.7244094488188977,
                    "duration": 0.06535933333333332
                },
                {
                    "name": "F#5",
                    "midi": 78,
                    "time": 162.54866199999998,
                    "velocity": 0.7244094488188977,
                    "duration": 0.06535933333333332
                },
                {
                    "name": "G5",
                    "midi": 79,
                    "time": 162.64670099999998,
                    "velocity": 0.7244094488188977,
                    "duration": 0.06535933333333332
                },
                {
                    "name": "F#5",
                    "midi": 78,
                    "time": 162.74473999999998,
                    "velocity": 0.7244094488188977,
                    "duration": 0.06535933333333332
                },
                {
                    "name": "G5",
                    "midi": 79,
                    "time": 162.84277899999998,
                    "velocity": 0.7244094488188977,
                    "duration": 0.06535933333333332
                },
                {
                    "name": "F#5",
                    "midi": 78,
                    "time": 162.94081799999998,
                    "velocity": 0.7244094488188977,
                    "duration": 0.06535933333333332
                },
                {
                    "name": "G5",
                    "midi": 79,
                    "time": 163.03885699999998,
                    "velocity": 0.7244094488188977,
                    "duration": 0.06535933333333332
                },
                {
                    "name": "G#5",
                    "midi": 80,
                    "time": 163.13689599999998,
                    "velocity": 0.7244094488188977,
                    "duration": 0.06535933333333332
                },
                {
                    "name": "A5",
                    "midi": 81,
                    "time": 163.23493499999998,
                    "velocity": 0.7244094488188977,
                    "duration": 0.06535933333333332
                },
                {
                    "name": "G#5",
                    "midi": 80,
                    "time": 163.33297399999998,
                    "velocity": 0.7244094488188977,
                    "duration": 0.06535933333333332
                },
                {
                    "name": "A5",
                    "midi": 81,
                    "time": 163.43101299999998,
                    "velocity": 0.7244094488188977,
                    "duration": 0.06535933333333332
                },
                {
                    "name": "G#5",
                    "midi": 80,
                    "time": 163.52905199999998,
                    "velocity": 0.7244094488188977,
                    "duration": 0.06535933333333332
                },
                {
                    "name": "A5",
                    "midi": 81,
                    "time": 163.62709099999998,
                    "velocity": 0.7244094488188977,
                    "duration": 0.06535933333333332
                },
                {
                    "name": "B5",
                    "midi": 83,
                    "time": 163.72512999999998,
                    "velocity": 0.7244094488188977,
                    "duration": 0.06535933333333332
                },
                {
                    "name": "A5",
                    "midi": 81,
                    "time": 163.82316899999998,
                    "velocity": 0.7244094488188977,
                    "duration": 0.06535933333333332
                },
                {
                    "name": "G5",
                    "midi": 79,
                    "time": 163.92120799999998,
                    "velocity": 0.7244094488188977,
                    "duration": 0.06535933333333332
                },
                {
                    "name": "F5",
                    "midi": 77,
                    "time": 164.01924699999998,
                    "velocity": 0.7244094488188977,
                    "duration": 0.06535933333333332
                },
                {
                    "name": "E5",
                    "midi": 76,
                    "time": 164.11728599999998,
                    "velocity": 0.7244094488188977,
                    "duration": 0.06535933333333332
                },
                {
                    "name": "F5",
                    "midi": 77,
                    "time": 164.21532499999998,
                    "velocity": 0.7244094488188977,
                    "duration": 0.06535933333333332
                },
                {
                    "name": "G5",
                    "midi": 79,
                    "time": 164.31336399999998,
                    "velocity": 0.7244094488188977,
                    "duration": 0.06535933333333332
                },
                {
                    "name": "F5",
                    "midi": 77,
                    "time": 164.41140299999998,
                    "velocity": 0.7244094488188977,
                    "duration": 0.06535933333333332
                },
                {
                    "name": "E5",
                    "midi": 76,
                    "time": 164.50944199999998,
                    "velocity": 0.7244094488188977,
                    "duration": 0.06535933333333332
                },
                {
                    "name": "D5",
                    "midi": 74,
                    "time": 164.60748099999998,
                    "velocity": 0.7244094488188977,
                    "duration": 0.06535933333333332
                },
                {
                    "name": "C5",
                    "midi": 72,
                    "time": 164.70551999999998,
                    "velocity": 0.7244094488188977,
                    "duration": 0.06535933333333332
                },
                {
                    "name": "B4",
                    "midi": 71,
                    "time": 164.80355899999998,
                    "velocity": 0.7244094488188977,
                    "duration": 0.06535933333333332
                },
                {
                    "name": "D5",
                    "midi": 74,
                    "time": 164.90159799999998,
                    "velocity": 0.7244094488188977,
                    "duration": 0.06535933333333332
                },
                {
                    "name": "C5",
                    "midi": 72,
                    "time": 164.99963699999998,
                    "velocity": 0.7244094488188977,
                    "duration": 0.06535933333333332
                },
                {
                    "name": "B4",
                    "midi": 71,
                    "time": 165.09767599999998,
                    "velocity": 0.7244094488188977,
                    "duration": 0.06535933333333332
                },
                {
                    "name": "C5",
                    "midi": 72,
                    "time": 165.19571499999998,
                    "velocity": 0.7244094488188977,
                    "duration": 0.06535933333333332
                },
                {
                    "name": "A4",
                    "midi": 69,
                    "time": 165.29375399999998,
                    "velocity": 0.7244094488188977,
                    "duration": 0.06535933333333332
                },
                {
                    "name": "B4",
                    "midi": 71,
                    "time": 165.39179299999998,
                    "velocity": 0.7244094488188977,
                    "duration": 0.06535933333333332
                },
                {
                    "name": "G4",
                    "midi": 67,
                    "time": 165.48983199999998,
                    "velocity": 0.7244094488188977,
                    "duration": 0.06535933333333332
                },
                {
                    "name": "A4",
                    "midi": 69,
                    "time": 165.58787099999998,
                    "velocity": 0.7244094488188977,
                    "duration": 0.06535933333333332
                },
                {
                    "name": "G4",
                    "midi": 67,
                    "time": 165.68590999999998,
                    "velocity": 0.7244094488188977,
                    "duration": 0.06535933333333332
                },
                {
                    "name": "F#4",
                    "midi": 66,
                    "time": 165.78394899999998,
                    "velocity": 0.7244094488188977,
                    "duration": 0.06535933333333332
                },
                {
                    "name": "G4",
                    "midi": 67,
                    "time": 165.88198799999998,
                    "velocity": 0.7244094488188977,
                    "duration": 0.06535933333333332
                },
                {
                    "name": "B4",
                    "midi": 71,
                    "time": 165.98002699999998,
                    "velocity": 0.7244094488188977,
                    "duration": 0.06535933333333332
                },
                {
                    "name": "A4",
                    "midi": 69,
                    "time": 166.07806599999998,
                    "velocity": 0.7244094488188977,
                    "duration": 0.06535933333333332
                },
                {
                    "name": "C5",
                    "midi": 72,
                    "time": 166.17610499999998,
                    "velocity": 0.7244094488188977,
                    "duration": 0.06535933333333332
                },
                {
                    "name": "B4",
                    "midi": 71,
                    "time": 166.27414399999998,
                    "velocity": 0.7244094488188977,
                    "duration": 0.06535933333333332
                },
                {
                    "name": "D5",
                    "midi": 74,
                    "time": 166.37218299999998,
                    "velocity": 0.7244094488188977,
                    "duration": 0.06535933333333332
                },
                {
                    "name": "C5",
                    "midi": 72,
                    "time": 166.47022199999998,
                    "velocity": 0.7244094488188977,
                    "duration": 0.06535933333333332
                },
                {
                    "name": "E5",
                    "midi": 76,
                    "time": 166.56826099999998,
                    "velocity": 0.7244094488188977,
                    "duration": 0.06535933333333332
                },
                {
                    "name": "D5",
                    "midi": 74,
                    "time": 166.66629999999998,
                    "velocity": 0.7244094488188977,
                    "duration": 0.06535933333333332
                },
                {
                    "name": "F5",
                    "midi": 77,
                    "time": 166.76433899999998,
                    "velocity": 0.7244094488188977,
                    "duration": 0.06535933333333332
                },
                {
                    "name": "E5",
                    "midi": 76,
                    "time": 166.86237799999998,
                    "velocity": 0.7244094488188977,
                    "duration": 0.06535933333333332
                },
                {
                    "name": "G5",
                    "midi": 79,
                    "time": 166.96041699999998,
                    "velocity": 0.7244094488188977,
                    "duration": 0.06535933333333332
                },
                {
                    "name": "F5",
                    "midi": 77,
                    "time": 167.05845599999998,
                    "velocity": 0.7244094488188977,
                    "duration": 0.06535933333333332
                },
                {
                    "name": "D5",
                    "midi": 74,
                    "time": 167.15649499999998,
                    "velocity": 0.7244094488188977,
                    "duration": 0.06535933333333332
                },
                {
                    "name": "B4",
                    "midi": 71,
                    "time": 167.25453399999998,
                    "velocity": 0.7244094488188977,
                    "duration": 0.06535933333333332
                },
                {
                    "name": "G4",
                    "midi": 67,
                    "time": 167.35257299999998,
                    "velocity": 0.7244094488188977,
                    "duration": 0.06535933333333332
                },
                {
                    "name": "G#4",
                    "midi": 68,
                    "time": 167.45061199999998,
                    "velocity": 0.7244094488188977,
                    "duration": 0.06535933333333332
                },
                {
                    "name": "G4",
                    "midi": 67,
                    "time": 167.54865099999998,
                    "velocity": 0.7244094488188977,
                    "duration": 0.06535933333333332
                },
                {
                    "name": "F#4",
                    "midi": 66,
                    "time": 167.64668999999998,
                    "velocity": 0.7244094488188977,
                    "duration": 0.06535933333333332
                },
                {
                    "name": "G4",
                    "midi": 67,
                    "time": 167.74472899999998,
                    "velocity": 0.7244094488188977,
                    "duration": 0.06535933333333332
                },
                {
                    "name": "A4",
                    "midi": 69,
                    "time": 167.84276799999998,
                    "velocity": 0.7244094488188977,
                    "duration": 0.06535933333333332
                },
                {
                    "name": "G4",
                    "midi": 67,
                    "time": 167.94080699999998,
                    "velocity": 0.7244094488188977,
                    "duration": 0.06535933333333332
                },
                {
                    "name": "F#4",
                    "midi": 66,
                    "time": 168.03884599999998,
                    "velocity": 0.7244094488188977,
                    "duration": 0.06535933333333332
                },
                {
                    "name": "G4",
                    "midi": 67,
                    "time": 168.13688499999998,
                    "velocity": 0.7244094488188977,
                    "duration": 0.06535933333333332
                },
                {
                    "name": "G#4",
                    "midi": 68,
                    "time": 168.23492399999998,
                    "velocity": 0.7244094488188977,
                    "duration": 0.06535933333333332
                },
                {
                    "name": "A4",
                    "midi": 69,
                    "time": 168.33296299999998,
                    "velocity": 0.7244094488188977,
                    "duration": 0.06535933333333332
                },
                {
                    "name": "A#4",
                    "midi": 70,
                    "time": 168.43100199999998,
                    "velocity": 0.7244094488188977,
                    "duration": 0.06535933333333332
                },
                {
                    "name": "B4",
                    "midi": 71,
                    "time": 168.52904099999998,
                    "velocity": 0.7244094488188977,
                    "duration": 0.06535933333333332
                },
                {
                    "name": "C5",
                    "midi": 72,
                    "time": 168.62707999999998,
                    "velocity": 0.7244094488188977,
                    "duration": 0.06535933333333332
                },
                {
                    "name": "D5",
                    "midi": 74,
                    "time": 168.72511899999998,
                    "velocity": 0.7244094488188977,
                    "duration": 0.06535933333333332
                },
                {
                    "name": "C5",
                    "midi": 72,
                    "time": 168.82315799999998,
                    "velocity": 0.7244094488188977,
                    "duration": 0.06535933333333332
                },
                {
                    "name": "B4",
                    "midi": 71,
                    "time": 168.92119699999998,
                    "velocity": 0.7244094488188977,
                    "duration": 0.06535933333333332
                },
                {
                    "name": "C5",
                    "midi": 72,
                    "time": 169.01923599999998,
                    "velocity": 0.7244094488188977,
                    "duration": 0.06535933333333332
                },
                {
                    "name": "D5",
                    "midi": 74,
                    "time": 169.11727499999998,
                    "velocity": 0.7244094488188977,
                    "duration": 0.06535933333333332
                },
                {
                    "name": "E5",
                    "midi": 76,
                    "time": 169.21531399999998,
                    "velocity": 0.7244094488188977,
                    "duration": 0.06535933333333332
                },
                {
                    "name": "C5",
                    "midi": 72,
                    "time": 169.31335299999998,
                    "velocity": 0.7244094488188977,
                    "duration": 0.06535933333333332
                },
                {
                    "name": "D5",
                    "midi": 74,
                    "time": 169.41139199999998,
                    "velocity": 0.7244094488188977,
                    "duration": 0.06535933333333332
                },
                {
                    "name": "C5",
                    "midi": 72,
                    "time": 169.50943099999998,
                    "velocity": 0.7244094488188977,
                    "duration": 0.06535933333333332
                },
                {
                    "name": "B4",
                    "midi": 71,
                    "time": 169.60746999999998,
                    "velocity": 0.7244094488188977,
                    "duration": 0.06535933333333332
                },
                {
                    "name": "A4",
                    "midi": 69,
                    "time": 169.70550899999998,
                    "velocity": 0.7244094488188977,
                    "duration": 0.06535933333333332
                },
                {
                    "name": "G4",
                    "midi": 67,
                    "time": 169.80354799999998,
                    "velocity": 0.7244094488188977,
                    "duration": 0.06535933333333332
                },
                {
                    "name": "A4",
                    "midi": 69,
                    "time": 169.90158699999998,
                    "velocity": 0.7244094488188977,
                    "duration": 0.06535933333333332
                },
                {
                    "name": "B4",
                    "midi": 71,
                    "time": 169.99962599999998,
                    "velocity": 0.7244094488188977,
                    "duration": 0.06535933333333332
                },
                {
                    "name": "C5",
                    "midi": 72,
                    "time": 170.09766499999998,
                    "velocity": 0.7244094488188977,
                    "duration": 0.06535933333333332
                },
                {
                    "name": "D5",
                    "midi": 74,
                    "time": 170.19570399999998,
                    "velocity": 0.7244094488188977,
                    "duration": 0.06535933333333332
                },
                {
                    "name": "E5",
                    "midi": 76,
                    "time": 170.29374299999998,
                    "velocity": 0.7244094488188977,
                    "duration": 0.06535933333333332
                },
                {
                    "name": "F5",
                    "midi": 77,
                    "time": 170.39178199999998,
                    "velocity": 0.7244094488188977,
                    "duration": 0.06535933333333332
                },
                {
                    "name": "E5",
                    "midi": 76,
                    "time": 170.48982099999998,
                    "velocity": 0.7244094488188977,
                    "duration": 0.06535933333333332
                },
                {
                    "name": "G5",
                    "midi": 79,
                    "time": 170.58785999999998,
                    "velocity": 0.7244094488188977,
                    "duration": 0.06535933333333332
                },
                {
                    "name": "F5",
                    "midi": 77,
                    "time": 170.68589899999998,
                    "velocity": 0.7244094488188977,
                    "duration": 0.06535933333333332
                },
                {
                    "name": "E5",
                    "midi": 76,
                    "time": 170.78393799999998,
                    "velocity": 0.7244094488188977,
                    "duration": 0.06535933333333332
                },
                {
                    "name": "D5",
                    "midi": 74,
                    "time": 170.88197699999998,
                    "velocity": 0.7244094488188977,
                    "duration": 0.06535933333333332
                },
                {
                    "name": "E5",
                    "midi": 76,
                    "time": 170.98001599999998,
                    "velocity": 0.7244094488188977,
                    "duration": 0.06535933333333332
                },
                {
                    "name": "F5",
                    "midi": 77,
                    "time": 171.07805499999998,
                    "velocity": 0.7244094488188977,
                    "duration": 0.06535933333333332
                },
                {
                    "name": "E5",
                    "midi": 76,
                    "time": 171.17609399999998,
                    "velocity": 0.7244094488188977,
                    "duration": 0.06535933333333332
                },
                {
                    "name": "D5",
                    "midi": 74,
                    "time": 171.27413299999998,
                    "velocity": 0.7244094488188977,
                    "duration": 0.06535933333333332
                },
                {
                    "name": "C5",
                    "midi": 72,
                    "time": 171.37217199999998,
                    "velocity": 0.7244094488188977,
                    "duration": 0.06535933333333332
                },
                {
                    "name": "D5",
                    "midi": 74,
                    "time": 171.47021099999998,
                    "velocity": 0.7244094488188977,
                    "duration": 0.06535933333333332
                },
                {
                    "name": "E5",
                    "midi": 76,
                    "time": 171.56824999999998,
                    "velocity": 0.7244094488188977,
                    "duration": 0.06535933333333332
                },
                {
                    "name": "F5",
                    "midi": 77,
                    "time": 171.66628899999998,
                    "velocity": 0.7244094488188977,
                    "duration": 0.06535933333333332
                },
                {
                    "name": "G5",
                    "midi": 79,
                    "time": 171.76432799999998,
                    "velocity": 0.7244094488188977,
                    "duration": 0.06535933333333332
                },
                {
                    "name": "F5",
                    "midi": 77,
                    "time": 171.86236699999998,
                    "velocity": 0.7244094488188977,
                    "duration": 0.06535933333333332
                },
                {
                    "name": "E5",
                    "midi": 76,
                    "time": 171.96040599999998,
                    "velocity": 0.7244094488188977,
                    "duration": 0.06535933333333332
                },
                {
                    "name": "D5",
                    "midi": 74,
                    "time": 172.05844499999998,
                    "velocity": 0.7244094488188977,
                    "duration": 0.06535933333333332
                },
                {
                    "name": "C#5",
                    "midi": 73,
                    "time": 172.15648399999998,
                    "velocity": 0.7244094488188977,
                    "duration": 0.06535933333333332
                },
                {
                    "name": "E5",
                    "midi": 76,
                    "time": 172.25452299999998,
                    "velocity": 0.7244094488188977,
                    "duration": 0.06535933333333332
                },
                {
                    "name": "A5",
                    "midi": 81,
                    "time": 172.35256199999998,
                    "velocity": 0.7244094488188977,
                    "duration": 0.06535933333333332
                },
                {
                    "name": "G5",
                    "midi": 79,
                    "time": 172.45060099999998,
                    "velocity": 0.7244094488188977,
                    "duration": 0.06535933333333332
                },
                {
                    "name": "F5",
                    "midi": 77,
                    "time": 172.54863999999998,
                    "velocity": 0.7244094488188977,
                    "duration": 0.06535933333333332
                },
                {
                    "name": "E5",
                    "midi": 76,
                    "time": 172.64667899999998,
                    "velocity": 0.7244094488188977,
                    "duration": 0.06535933333333332
                },
                {
                    "name": "D5",
                    "midi": 74,
                    "time": 172.74471799999998,
                    "velocity": 0.7244094488188977,
                    "duration": 0.06535933333333332
                },
                {
                    "name": "C5",
                    "midi": 72,
                    "time": 172.84275699999998,
                    "velocity": 0.7244094488188977,
                    "duration": 0.06535933333333332
                },
                {
                    "name": "B4",
                    "midi": 71,
                    "time": 172.94079599999998,
                    "velocity": 0.7244094488188977,
                    "duration": 0.06535933333333332
                },
                {
                    "name": "D5",
                    "midi": 74,
                    "time": 173.03883499999998,
                    "velocity": 0.7244094488188977,
                    "duration": 0.06535933333333332
                },
                {
                    "name": "G5",
                    "midi": 79,
                    "time": 173.13687399999998,
                    "velocity": 0.7244094488188977,
                    "duration": 0.06535933333333332
                },
                {
                    "name": "F5",
                    "midi": 77,
                    "time": 173.23491299999998,
                    "velocity": 0.7244094488188977,
                    "duration": 0.06535933333333332
                },
                {
                    "name": "E5",
                    "midi": 76,
                    "time": 173.33295199999998,
                    "velocity": 0.7244094488188977,
                    "duration": 0.06535933333333332
                },
                {
                    "name": "D5",
                    "midi": 74,
                    "time": 173.43099099999998,
                    "velocity": 0.7244094488188977,
                    "duration": 0.06535933333333332
                },
                {
                    "name": "C5",
                    "midi": 72,
                    "time": 173.52902999999998,
                    "velocity": 0.7244094488188977,
                    "duration": 0.06535933333333332
                },
                {
                    "name": "B4",
                    "midi": 71,
                    "time": 173.62706899999998,
                    "velocity": 0.7244094488188977,
                    "duration": 0.06535933333333332
                },
                {
                    "name": "A4",
                    "midi": 69,
                    "time": 173.72510799999998,
                    "velocity": 0.7244094488188977,
                    "duration": 0.06535933333333332
                },
                {
                    "name": "D5",
                    "midi": 74,
                    "time": 173.82314699999998,
                    "velocity": 0.7244094488188977,
                    "duration": 0.06535933333333332
                },
                {
                    "name": "E5",
                    "midi": 76,
                    "time": 173.92118599999998,
                    "velocity": 0.7244094488188977,
                    "duration": 0.06535933333333332
                },
                {
                    "name": "D5",
                    "midi": 74,
                    "time": 174.01922499999998,
                    "velocity": 0.7244094488188977,
                    "duration": 0.06535933333333332
                },
                {
                    "name": "C5",
                    "midi": 72,
                    "time": 174.11726399999998,
                    "velocity": 0.7244094488188977,
                    "duration": 0.06535933333333332
                },
                {
                    "name": "B4",
                    "midi": 71,
                    "time": 174.21530299999998,
                    "velocity": 0.7244094488188977,
                    "duration": 0.06535933333333332
                },
                {
                    "name": "A4",
                    "midi": 69,
                    "time": 174.31334199999998,
                    "velocity": 0.7244094488188977,
                    "duration": 0.06535933333333332
                },
                {
                    "name": "G4",
                    "midi": 67,
                    "time": 174.41138099999998,
                    "velocity": 0.7244094488188977,
                    "duration": 0.06535933333333332
                },
                {
                    "name": "F#4",
                    "midi": 66,
                    "time": 174.50941999999998,
                    "velocity": 0.7244094488188977,
                    "duration": 0.06535933333333332
                },
                {
                    "name": "G4",
                    "midi": 67,
                    "time": 174.60745899999998,
                    "velocity": 0.7244094488188977,
                    "duration": 0.06535933333333332
                },
                {
                    "name": "A4",
                    "midi": 69,
                    "time": 174.70549799999998,
                    "velocity": 0.7244094488188977,
                    "duration": 0.06535933333333332
                },
                {
                    "name": "B4",
                    "midi": 71,
                    "time": 174.80353699999998,
                    "velocity": 0.7244094488188977,
                    "duration": 0.06535933333333332
                },
                {
                    "name": "C5",
                    "midi": 72,
                    "time": 174.90157599999998,
                    "velocity": 0.7244094488188977,
                    "duration": 0.06535933333333332
                },
                {
                    "name": "D5",
                    "midi": 74,
                    "time": 174.99961499999998,
                    "velocity": 0.7244094488188977,
                    "duration": 0.06535933333333332
                },
                {
                    "name": "C5",
                    "midi": 72,
                    "time": 175.09765399999998,
                    "velocity": 0.7244094488188977,
                    "duration": 0.06535933333333332
                },
                {
                    "name": "B4",
                    "midi": 71,
                    "time": 175.19569299999998,
                    "velocity": 0.7244094488188977,
                    "duration": 0.06535933333333332
                },
                {
                    "name": "C5",
                    "midi": 72,
                    "time": 175.29373199999998,
                    "velocity": 0.7244094488188977,
                    "duration": 0.06535933333333332
                },
                {
                    "name": "D5",
                    "midi": 74,
                    "time": 175.39177099999998,
                    "velocity": 0.7244094488188977,
                    "duration": 0.06535933333333332
                },
                {
                    "name": "E5",
                    "midi": 76,
                    "time": 175.48980999999998,
                    "velocity": 0.7244094488188977,
                    "duration": 0.06535933333333332
                },
                {
                    "name": "C5",
                    "midi": 72,
                    "time": 175.58784899999998,
                    "velocity": 0.7244094488188977,
                    "duration": 0.06535933333333332
                },
                {
                    "name": "D5",
                    "midi": 74,
                    "time": 175.68588799999998,
                    "velocity": 0.7244094488188977,
                    "duration": 0.06535933333333332
                },
                {
                    "name": "C5",
                    "midi": 72,
                    "time": 175.78392699999998,
                    "velocity": 0.7244094488188977,
                    "duration": 0.06535933333333332
                },
                {
                    "name": "B4",
                    "midi": 71,
                    "time": 175.88196599999998,
                    "velocity": 0.7244094488188977,
                    "duration": 0.06535933333333332
                },
                {
                    "name": "A4",
                    "midi": 69,
                    "time": 175.98000499999998,
                    "velocity": 0.7244094488188977,
                    "duration": 0.06535933333333332
                },
                {
                    "name": "G4",
                    "midi": 67,
                    "time": 176.07804399999998,
                    "velocity": 0.7244094488188977,
                    "duration": 0.06535933333333332
                },
                {
                    "name": "A4",
                    "midi": 69,
                    "time": 176.17608299999998,
                    "velocity": 0.7244094488188977,
                    "duration": 0.06535933333333332
                },
                {
                    "name": "B4",
                    "midi": 71,
                    "time": 176.27412199999998,
                    "velocity": 0.7244094488188977,
                    "duration": 0.06535933333333332
                },
                {
                    "name": "C5",
                    "midi": 72,
                    "time": 176.37216099999998,
                    "velocity": 0.7244094488188977,
                    "duration": 0.06535933333333332
                },
                {
                    "name": "D5",
                    "midi": 74,
                    "time": 176.47019999999998,
                    "velocity": 0.7244094488188977,
                    "duration": 0.06535933333333332
                },
                {
                    "name": "E5",
                    "midi": 76,
                    "time": 176.56823899999998,
                    "velocity": 0.7244094488188977,
                    "duration": 0.06535933333333332
                },
                {
                    "name": "F5",
                    "midi": 77,
                    "time": 176.66627799999998,
                    "velocity": 0.7244094488188977,
                    "duration": 0.06535933333333332
                },
                {
                    "name": "E5",
                    "midi": 76,
                    "time": 176.76431699999998,
                    "velocity": 0.7244094488188977,
                    "duration": 0.06535933333333332
                },
                {
                    "name": "G5",
                    "midi": 79,
                    "time": 176.86235599999998,
                    "velocity": 0.7244094488188977,
                    "duration": 0.06535933333333332
                },
                {
                    "name": "F5",
                    "midi": 77,
                    "time": 176.96039499999998,
                    "velocity": 0.7244094488188977,
                    "duration": 0.06535933333333332
                },
                {
                    "name": "E5",
                    "midi": 76,
                    "time": 177.05843399999998,
                    "velocity": 0.7244094488188977,
                    "duration": 0.06535933333333332
                },
                {
                    "name": "D5",
                    "midi": 74,
                    "time": 177.15647299999998,
                    "velocity": 0.7244094488188977,
                    "duration": 0.06535933333333332
                },
                {
                    "name": "E5",
                    "midi": 76,
                    "time": 177.25451199999998,
                    "velocity": 0.7244094488188977,
                    "duration": 0.06535933333333332
                },
                {
                    "name": "F5",
                    "midi": 77,
                    "time": 177.35255099999998,
                    "velocity": 0.7244094488188977,
                    "duration": 0.06535933333333332
                },
                {
                    "name": "E5",
                    "midi": 76,
                    "time": 177.45058999999998,
                    "velocity": 0.7244094488188977,
                    "duration": 0.06535933333333332
                },
                {
                    "name": "D5",
                    "midi": 74,
                    "time": 177.54862899999998,
                    "velocity": 0.7244094488188977,
                    "duration": 0.06535933333333332
                },
                {
                    "name": "C5",
                    "midi": 72,
                    "time": 177.64666799999998,
                    "velocity": 0.7244094488188977,
                    "duration": 0.06535933333333332
                },
                {
                    "name": "E5",
                    "midi": 76,
                    "time": 177.74470699999998,
                    "velocity": 0.7244094488188977,
                    "duration": 0.06535933333333332
                },
                {
                    "name": "G5",
                    "midi": 79,
                    "time": 177.84274599999998,
                    "velocity": 0.7244094488188977,
                    "duration": 0.06535933333333332
                },
                {
                    "name": "A5",
                    "midi": 81,
                    "time": 177.94078499999998,
                    "velocity": 0.7244094488188977,
                    "duration": 0.06535933333333332
                },
                {
                    "name": "A#5",
                    "midi": 82,
                    "time": 178.03882399999998,
                    "velocity": 0.7244094488188977,
                    "duration": 0.06535933333333332
                },
                {
                    "name": "A5",
                    "midi": 81,
                    "time": 178.13686299999998,
                    "velocity": 0.7244094488188977,
                    "duration": 0.06535933333333332
                },
                {
                    "name": "G5",
                    "midi": 79,
                    "time": 178.23490199999998,
                    "velocity": 0.7244094488188977,
                    "duration": 0.06535933333333332
                },
                {
                    "name": "F5",
                    "midi": 77,
                    "time": 178.33294099999998,
                    "velocity": 0.7244094488188977,
                    "duration": 0.06535933333333332
                },
                {
                    "name": "E5",
                    "midi": 76,
                    "time": 178.43097999999998,
                    "velocity": 0.7244094488188977,
                    "duration": 0.06535933333333332
                },
                {
                    "name": "D5",
                    "midi": 74,
                    "time": 178.52901899999998,
                    "velocity": 0.7244094488188977,
                    "duration": 0.06535933333333332
                },
                {
                    "name": "C5",
                    "midi": 72,
                    "time": 178.62705799999998,
                    "velocity": 0.7244094488188977,
                    "duration": 0.06535933333333332
                },
                {
                    "name": "A#4",
                    "midi": 70,
                    "time": 178.72509699999998,
                    "velocity": 0.7244094488188977,
                    "duration": 0.06535933333333332
                },
                {
                    "name": "A4",
                    "midi": 69,
                    "time": 178.82313599999998,
                    "velocity": 0.7244094488188977,
                    "duration": 0.06535933333333332
                },
                {
                    "name": "C5",
                    "midi": 72,
                    "time": 178.92117499999998,
                    "velocity": 0.7244094488188977,
                    "duration": 0.06535933333333332
                },
                {
                    "name": "D5",
                    "midi": 74,
                    "time": 179.01921399999998,
                    "velocity": 0.7244094488188977,
                    "duration": 0.06535933333333332
                },
                {
                    "name": "E5",
                    "midi": 76,
                    "time": 179.11725299999998,
                    "velocity": 0.7244094488188977,
                    "duration": 0.06535933333333332
                },
                {
                    "name": "F5",
                    "midi": 77,
                    "time": 179.21529199999998,
                    "velocity": 0.7244094488188977,
                    "duration": 0.06535933333333332
                },
                {
                    "name": "G5",
                    "midi": 79,
                    "time": 179.31333099999998,
                    "velocity": 0.7244094488188977,
                    "duration": 0.06535933333333332
                },
                {
                    "name": "A5",
                    "midi": 81,
                    "time": 179.41136999999998,
                    "velocity": 0.7244094488188977,
                    "duration": 0.06535933333333332
                },
                {
                    "name": "B5",
                    "midi": 83,
                    "time": 179.50940899999998,
                    "velocity": 0.7244094488188977,
                    "duration": 0.06535933333333332
                },
                {
                    "name": "C6",
                    "midi": 84,
                    "time": 179.60744799999998,
                    "velocity": 0.7244094488188977,
                    "duration": 0.06535933333333332
                },
                {
                    "name": "B5",
                    "midi": 83,
                    "time": 179.70548699999998,
                    "velocity": 0.7244094488188977,
                    "duration": 0.06535933333333332
                },
                {
                    "name": "A5",
                    "midi": 81,
                    "time": 179.80352599999998,
                    "velocity": 0.7244094488188977,
                    "duration": 0.06535933333333332
                },
                {
                    "name": "G5",
                    "midi": 79,
                    "time": 179.90156499999998,
                    "velocity": 0.7244094488188977,
                    "duration": 0.06535933333333332
                },
                {
                    "name": "F#5",
                    "midi": 78,
                    "time": 179.99960399999998,
                    "velocity": 0.7244094488188977,
                    "duration": 0.06535933333333332
                },
                {
                    "name": "E5",
                    "midi": 76,
                    "time": 180.09764299999998,
                    "velocity": 0.7244094488188977,
                    "duration": 0.06535933333333332
                },
                {
                    "name": "D5",
                    "midi": 74,
                    "time": 180.19568199999998,
                    "velocity": 0.7244094488188977,
                    "duration": 0.06535933333333332
                },
                {
                    "name": "C5",
                    "midi": 72,
                    "time": 180.29372099999998,
                    "velocity": 0.7244094488188977,
                    "duration": 0.06535933333333332
                },
                {
                    "name": "B4",
                    "midi": 71,
                    "time": 180.39175999999998,
                    "velocity": 0.7244094488188977,
                    "duration": 0.06535933333333332
                },
                {
                    "name": "D5",
                    "midi": 74,
                    "time": 180.48979899999998,
                    "velocity": 0.7244094488188977,
                    "duration": 0.06535933333333332
                },
                {
                    "name": "G5",
                    "midi": 79,
                    "time": 180.58783799999998,
                    "velocity": 0.7244094488188977,
                    "duration": 0.06535933333333332
                },
                {
                    "name": "A5",
                    "midi": 81,
                    "time": 180.68587699999998,
                    "velocity": 0.7244094488188977,
                    "duration": 0.06535933333333332
                },
                {
                    "name": "B5",
                    "midi": 83,
                    "time": 180.78391599999998,
                    "velocity": 0.7244094488188977,
                    "duration": 0.06535933333333332
                },
                {
                    "name": "C6",
                    "midi": 84,
                    "time": 180.88195499999998,
                    "velocity": 0.7244094488188977,
                    "duration": 0.06535933333333332
                },
                {
                    "name": "D6",
                    "midi": 86,
                    "time": 180.97999399999998,
                    "velocity": 0.7244094488188977,
                    "duration": 0.06535933333333332
                },
                {
                    "name": "E6",
                    "midi": 88,
                    "time": 181.07803299999998,
                    "velocity": 0.7244094488188977,
                    "duration": 0.06535933333333332
                },
                {
                    "name": "F6",
                    "midi": 89,
                    "time": 181.17607199999998,
                    "velocity": 0.7244094488188977,
                    "duration": 0.06535933333333332
                },
                {
                    "name": "E6",
                    "midi": 88,
                    "time": 181.27411099999998,
                    "velocity": 0.7244094488188977,
                    "duration": 0.06535933333333332
                },
                {
                    "name": "D6",
                    "midi": 86,
                    "time": 181.37214999999998,
                    "velocity": 0.7244094488188977,
                    "duration": 0.06535933333333332
                },
                {
                    "name": "C6",
                    "midi": 84,
                    "time": 181.47018899999998,
                    "velocity": 0.7244094488188977,
                    "duration": 0.06535933333333332
                },
                {
                    "name": "B5",
                    "midi": 83,
                    "time": 181.56822799999998,
                    "velocity": 0.7244094488188977,
                    "duration": 0.06535933333333332
                },
                {
                    "name": "A5",
                    "midi": 81,
                    "time": 181.66626699999998,
                    "velocity": 0.7244094488188977,
                    "duration": 0.06535933333333332
                },
                {
                    "name": "G5",
                    "midi": 79,
                    "time": 181.76430599999998,
                    "velocity": 0.7244094488188977,
                    "duration": 0.06535933333333332
                },
                {
                    "name": "F5",
                    "midi": 77,
                    "time": 181.86234499999998,
                    "velocity": 0.7244094488188977,
                    "duration": 0.06535933333333332
                },
                {
                    "name": "E5",
                    "midi": 76,
                    "time": 181.96038399999998,
                    "velocity": 0.7244094488188977,
                    "duration": 0.06535933333333332
                },
                {
                    "name": "C6",
                    "midi": 84,
                    "time": 182.05842299999998,
                    "velocity": 0.7244094488188977,
                    "duration": 0.06535933333333332
                },
                {
                    "name": "G5",
                    "midi": 79,
                    "time": 182.15646199999998,
                    "velocity": 0.7244094488188977,
                    "duration": 0.06535933333333332
                },
                {
                    "name": "E5",
                    "midi": 76,
                    "time": 182.25450099999998,
                    "velocity": 0.7244094488188977,
                    "duration": 0.06535933333333332
                },
                {
                    "name": "D5",
                    "midi": 74,
                    "time": 182.35253999999998,
                    "velocity": 0.7244094488188977,
                    "duration": 0.06535933333333332
                },
                {
                    "name": "B5",
                    "midi": 83,
                    "time": 182.45057899999998,
                    "velocity": 0.7244094488188977,
                    "duration": 0.06535933333333332
                },
                {
                    "name": "G#5",
                    "midi": 80,
                    "time": 182.54861799999998,
                    "velocity": 0.7244094488188977,
                    "duration": 0.06535933333333332
                },
                {
                    "name": "D5",
                    "midi": 74,
                    "time": 182.64665699999998,
                    "velocity": 0.7244094488188977,
                    "duration": 0.06535933333333332
                },
                {
                    "name": "C5",
                    "midi": 72,
                    "time": 182.74469599999998,
                    "velocity": 0.7244094488188977,
                    "duration": 0.06535933333333332
                },
                {
                    "name": "A#5",
                    "midi": 82,
                    "time": 182.84273499999998,
                    "velocity": 0.7244094488188977,
                    "duration": 0.06535933333333332
                },
                {
                    "name": "E5",
                    "midi": 76,
                    "time": 182.94077399999998,
                    "velocity": 0.7244094488188977,
                    "duration": 0.06535933333333332
                },
                {
                    "name": "C5",
                    "midi": 72,
                    "time": 183.03881299999998,
                    "velocity": 0.7244094488188977,
                    "duration": 0.06535933333333332
                },
                {
                    "name": "A#4",
                    "midi": 70,
                    "time": 183.13685199999998,
                    "velocity": 0.7244094488188977,
                    "duration": 0.06535933333333332
                },
                {
                    "name": "G5",
                    "midi": 79,
                    "time": 183.23489099999998,
                    "velocity": 0.7244094488188977,
                    "duration": 0.06535933333333332
                },
                {
                    "name": "E5",
                    "midi": 76,
                    "time": 183.33292999999998,
                    "velocity": 0.7244094488188977,
                    "duration": 0.06535933333333332
                },
                {
                    "name": "A#4",
                    "midi": 70,
                    "time": 183.43096899999998,
                    "velocity": 0.7244094488188977,
                    "duration": 0.06535933333333332
                },
                {
                    "name": "A4",
                    "midi": 69,
                    "time": 183.52900799999998,
                    "velocity": 0.7244094488188977,
                    "duration": 0.06535933333333332
                },
                {
                    "name": "F4",
                    "midi": 65,
                    "time": 183.62704699999998,
                    "velocity": 0.7244094488188977,
                    "duration": 0.06535933333333332
                },
                {
                    "name": "A4",
                    "midi": 69,
                    "time": 183.72508599999998,
                    "velocity": 0.7244094488188977,
                    "duration": 0.06535933333333332
                },
                {
                    "name": "C5",
                    "midi": 72,
                    "time": 183.82312499999998,
                    "velocity": 0.7244094488188977,
                    "duration": 0.06535933333333332
                },
                {
                    "name": "F5",
                    "midi": 77,
                    "time": 183.92116399999998,
                    "velocity": 0.7244094488188977,
                    "duration": 0.06535933333333332
                },
                {
                    "name": "A4",
                    "midi": 69,
                    "time": 184.01920299999998,
                    "velocity": 0.7244094488188977,
                    "duration": 0.06535933333333332
                },
                {
                    "name": "C5",
                    "midi": 72,
                    "time": 184.11724199999998,
                    "velocity": 0.7244094488188977,
                    "duration": 0.06535933333333332
                },
                {
                    "name": "F5",
                    "midi": 77,
                    "time": 184.21528099999998,
                    "velocity": 0.7244094488188977,
                    "duration": 0.06535933333333332
                },
                {
                    "name": "A5",
                    "midi": 81,
                    "time": 184.31331999999998,
                    "velocity": 0.7244094488188977,
                    "duration": 0.06535933333333332
                },
                {
                    "name": "C6",
                    "midi": 84,
                    "time": 184.41135899999998,
                    "velocity": 0.7244094488188977,
                    "duration": 0.06535933333333332
                },
                {
                    "name": "A5",
                    "midi": 81,
                    "time": 184.50939799999998,
                    "velocity": 0.7244094488188977,
                    "duration": 0.06535933333333332
                },
                {
                    "name": "C6",
                    "midi": 84,
                    "time": 184.60743699999998,
                    "velocity": 0.7244094488188977,
                    "duration": 0.06535933333333332
                },
                {
                    "name": "D#6",
                    "midi": 87,
                    "time": 184.70547599999998,
                    "velocity": 0.7244094488188977,
                    "duration": 0.06535933333333332
                },
                {
                    "name": "C6",
                    "midi": 84,
                    "time": 184.80351499999998,
                    "velocity": 0.7244094488188977,
                    "duration": 0.06535933333333332
                },
                {
                    "name": "A5",
                    "midi": 81,
                    "time": 184.90155399999998,
                    "velocity": 0.7244094488188977,
                    "duration": 0.06535933333333332
                },
                {
                    "name": "F#5",
                    "midi": 78,
                    "time": 184.99959299999998,
                    "velocity": 0.7244094488188977,
                    "duration": 0.06535933333333332
                },
                {
                    "name": "G5",
                    "midi": 79,
                    "time": 185.09763199999998,
                    "velocity": 0.7244094488188977,
                    "duration": 0.06535933333333332
                },
                {
                    "name": "E6",
                    "midi": 88,
                    "time": 185.19567099999998,
                    "velocity": 0.7244094488188977,
                    "duration": 0.06535933333333332
                },
                {
                    "name": "D6",
                    "midi": 86,
                    "time": 185.29370999999998,
                    "velocity": 0.7244094488188977,
                    "duration": 0.06535933333333332
                },
                {
                    "name": "C6",
                    "midi": 84,
                    "time": 185.39174899999998,
                    "velocity": 0.7244094488188977,
                    "duration": 0.06535933333333332
                },
                {
                    "name": "B5",
                    "midi": 83,
                    "time": 185.48978799999998,
                    "velocity": 0.7244094488188977,
                    "duration": 0.06535933333333332
                },
                {
                    "name": "D6",
                    "midi": 86,
                    "time": 185.58782699999998,
                    "velocity": 0.7244094488188977,
                    "duration": 0.06535933333333332
                },
                {
                    "name": "C6",
                    "midi": 84,
                    "time": 185.68586599999998,
                    "velocity": 0.7244094488188977,
                    "duration": 0.06535933333333332
                },
                {
                    "name": "A5",
                    "midi": 81,
                    "time": 185.78390499999998,
                    "velocity": 0.7244094488188977,
                    "duration": 0.06535933333333332
                },
                {
                    "name": "G5",
                    "midi": 79,
                    "time": 185.88194399999998,
                    "velocity": 0.7244094488188977,
                    "duration": 0.06535933333333332
                },
                {
                    "name": "F#5",
                    "midi": 78,
                    "time": 185.97998299999998,
                    "velocity": 0.7244094488188977,
                    "duration": 0.06535933333333332
                },
                {
                    "name": "A5",
                    "midi": 81,
                    "time": 186.07802199999998,
                    "velocity": 0.7244094488188977,
                    "duration": 0.06535933333333332
                },
                {
                    "name": "G5",
                    "midi": 79,
                    "time": 186.17606099999998,
                    "velocity": 0.7244094488188977,
                    "duration": 0.06535933333333332
                },
                {
                    "name": "F5",
                    "midi": 77,
                    "time": 186.27409999999998,
                    "velocity": 0.7244094488188977,
                    "duration": 0.06535933333333332
                },
                {
                    "name": "E5",
                    "midi": 76,
                    "time": 186.37213899999998,
                    "velocity": 0.7244094488188977,
                    "duration": 0.06535933333333332
                },
                {
                    "name": "F5",
                    "midi": 77,
                    "time": 186.47017799999998,
                    "velocity": 0.7244094488188977,
                    "duration": 0.06535933333333332
                },
                {
                    "name": "D5",
                    "midi": 74,
                    "time": 186.56821699999998,
                    "velocity": 0.7244094488188977,
                    "duration": 0.06535933333333332
                },
                {
                    "name": "C5",
                    "midi": 72,
                    "time": 186.66625599999998,
                    "velocity": 0.7244094488188977,
                    "duration": 0.06535933333333332
                },
                {
                    "name": "D#5",
                    "midi": 75,
                    "time": 186.76429499999998,
                    "velocity": 0.7244094488188977,
                    "duration": 0.06535933333333332
                },
                {
                    "name": "D5",
                    "midi": 74,
                    "time": 186.86233399999998,
                    "velocity": 0.7244094488188977,
                    "duration": 0.06535933333333332
                },
                {
                    "name": "D#5",
                    "midi": 75,
                    "time": 186.96037299999998,
                    "velocity": 0.7244094488188977,
                    "duration": 0.06535933333333332
                },
                {
                    "name": "F5",
                    "midi": 77,
                    "time": 187.05841199999998,
                    "velocity": 0.7244094488188977,
                    "duration": 0.06535933333333332
                },
                {
                    "name": "D#5",
                    "midi": 75,
                    "time": 187.15645099999998,
                    "velocity": 0.7244094488188977,
                    "duration": 0.06535933333333332
                },
                {
                    "name": "D5",
                    "midi": 74,
                    "time": 187.25448999999998,
                    "velocity": 0.7244094488188977,
                    "duration": 0.06535933333333332
                },
                {
                    "name": "D#5",
                    "midi": 75,
                    "time": 187.35252899999998,
                    "velocity": 0.7244094488188977,
                    "duration": 0.06535933333333332
                },
                {
                    "name": "G#5",
                    "midi": 80,
                    "time": 187.45056799999998,
                    "velocity": 0.7244094488188977,
                    "duration": 0.06535933333333332
                },
                {
                    "name": "D#5",
                    "midi": 75,
                    "time": 187.54860699999998,
                    "velocity": 0.7244094488188977,
                    "duration": 0.06535933333333332
                },
                {
                    "name": "D5",
                    "midi": 74,
                    "time": 187.64664599999998,
                    "velocity": 0.7244094488188977,
                    "duration": 0.06535933333333332
                },
                {
                    "name": "D#5",
                    "midi": 75,
                    "time": 187.74468499999998,
                    "velocity": 0.7244094488188977,
                    "duration": 0.06535933333333332
                },
                {
                    "name": "C6",
                    "midi": 84,
                    "time": 187.84272399999998,
                    "velocity": 0.7244094488188977,
                    "duration": 0.06535933333333332
                },
                {
                    "name": "D#5",
                    "midi": 75,
                    "time": 187.94076299999998,
                    "velocity": 0.7244094488188977,
                    "duration": 0.06535933333333332
                },
                {
                    "name": "D5",
                    "midi": 74,
                    "time": 188.03880199999998,
                    "velocity": 0.7244094488188977,
                    "duration": 0.06535933333333332
                },
                {
                    "name": "D#5",
                    "midi": 75,
                    "time": 188.13684099999998,
                    "velocity": 0.7244094488188977,
                    "duration": 0.06535933333333332
                },
                {
                    "name": "C#6",
                    "midi": 85,
                    "time": 188.23487999999998,
                    "velocity": 0.7244094488188977,
                    "duration": 0.06535933333333332
                },
                {
                    "name": "D#6",
                    "midi": 87,
                    "time": 188.33291899999998,
                    "velocity": 0.7244094488188977,
                    "duration": 0.06535933333333332
                },
                {
                    "name": "C6",
                    "midi": 84,
                    "time": 188.43095799999998,
                    "velocity": 0.7244094488188977,
                    "duration": 0.06535933333333332
                },
                {
                    "name": "C#6",
                    "midi": 85,
                    "time": 188.52899699999998,
                    "velocity": 0.7244094488188977,
                    "duration": 0.06535933333333332
                },
                {
                    "name": "A#5",
                    "midi": 82,
                    "time": 188.62703599999998,
                    "velocity": 0.7244094488188977,
                    "duration": 0.06535933333333332
                },
                {
                    "name": "C6",
                    "midi": 84,
                    "time": 188.72507499999998,
                    "velocity": 0.7244094488188977,
                    "duration": 0.06535933333333332
                },
                {
                    "name": "G#5",
                    "midi": 80,
                    "time": 188.82311399999998,
                    "velocity": 0.7244094488188977,
                    "duration": 0.06535933333333332
                },
                {
                    "name": "A#5",
                    "midi": 82,
                    "time": 188.92115299999998,
                    "velocity": 0.7244094488188977,
                    "duration": 0.06535933333333332
                },
                {
                    "name": "G5",
                    "midi": 79,
                    "time": 189.01919199999998,
                    "velocity": 0.7244094488188977,
                    "duration": 0.06535933333333332
                },
                {
                    "name": "G#5",
                    "midi": 80,
                    "time": 189.11723099999998,
                    "velocity": 0.7244094488188977,
                    "duration": 0.06535933333333332
                },
                {
                    "name": "A#5",
                    "midi": 82,
                    "time": 189.21526999999998,
                    "velocity": 0.7244094488188977,
                    "duration": 0.06535933333333332
                },
                {
                    "name": "G#5",
                    "midi": 80,
                    "time": 189.31330899999998,
                    "velocity": 0.7244094488188977,
                    "duration": 0.06535933333333332
                },
                {
                    "name": "G5",
                    "midi": 79,
                    "time": 189.41134799999998,
                    "velocity": 0.7244094488188977,
                    "duration": 0.06535933333333332
                },
                {
                    "name": "F5",
                    "midi": 77,
                    "time": 189.50938699999998,
                    "velocity": 0.7244094488188977,
                    "duration": 0.06535933333333332
                },
                {
                    "name": "D#5",
                    "midi": 75,
                    "time": 189.60742599999998,
                    "velocity": 0.7244094488188977,
                    "duration": 0.06535933333333332
                },
                {
                    "name": "C#5",
                    "midi": 73,
                    "time": 189.70546499999998,
                    "velocity": 0.7244094488188977,
                    "duration": 0.06535933333333332
                },
                {
                    "name": "C5",
                    "midi": 72,
                    "time": 189.80350399999998,
                    "velocity": 0.7244094488188977,
                    "duration": 0.06535933333333332
                },
                {
                    "name": "G#4",
                    "midi": 68,
                    "time": 189.90154299999998,
                    "velocity": 0.7244094488188977,
                    "duration": 0.06535933333333332
                },
                {
                    "name": "A#4",
                    "midi": 70,
                    "time": 189.99958199999998,
                    "velocity": 0.7244094488188977,
                    "duration": 0.06535933333333332
                },
                {
                    "name": "C5",
                    "midi": 72,
                    "time": 190.09762099999998,
                    "velocity": 0.7244094488188977,
                    "duration": 0.06535933333333332
                },
                {
                    "name": "C#5",
                    "midi": 73,
                    "time": 190.19565999999998,
                    "velocity": 0.7244094488188977,
                    "duration": 0.06535933333333332
                },
                {
                    "name": "D#5",
                    "midi": 75,
                    "time": 190.29369899999998,
                    "velocity": 0.7244094488188977,
                    "duration": 0.06535933333333332
                },
                {
                    "name": "F5",
                    "midi": 77,
                    "time": 190.39173799999998,
                    "velocity": 0.7244094488188977,
                    "duration": 0.06535933333333332
                },
                {
                    "name": "G5",
                    "midi": 79,
                    "time": 190.48977699999998,
                    "velocity": 0.7244094488188977,
                    "duration": 0.06535933333333332
                },
                {
                    "name": "G#5",
                    "midi": 80,
                    "time": 190.58781599999998,
                    "velocity": 0.7244094488188977,
                    "duration": 0.06535933333333332
                },
                {
                    "name": "A#5",
                    "midi": 82,
                    "time": 190.68585499999998,
                    "velocity": 0.7244094488188977,
                    "duration": 0.06535933333333332
                },
                {
                    "name": "C6",
                    "midi": 84,
                    "time": 190.78389399999998,
                    "velocity": 0.7244094488188977,
                    "duration": 0.06535933333333332
                },
                {
                    "name": "D6",
                    "midi": 86,
                    "time": 190.88193299999998,
                    "velocity": 0.7244094488188977,
                    "duration": 0.06535933333333332
                },
                {
                    "name": "D#6",
                    "midi": 87,
                    "time": 190.97997199999998,
                    "velocity": 0.7244094488188977,
                    "duration": 0.06535933333333332
                },
                {
                    "name": "C6",
                    "midi": 84,
                    "time": 191.07801099999998,
                    "velocity": 0.7244094488188977,
                    "duration": 0.06535933333333332
                },
                {
                    "name": "G#5",
                    "midi": 80,
                    "time": 191.17604999999998,
                    "velocity": 0.7244094488188977,
                    "duration": 0.06535933333333332
                },
                {
                    "name": "F#5",
                    "midi": 78,
                    "time": 191.27408899999998,
                    "velocity": 0.7244094488188977,
                    "duration": 0.06535933333333332
                },
                {
                    "name": "G5",
                    "midi": 79,
                    "time": 191.37212799999998,
                    "velocity": 0.7244094488188977,
                    "duration": 0.06535933333333332
                },
                {
                    "name": "F#5",
                    "midi": 78,
                    "time": 191.47016699999998,
                    "velocity": 0.7244094488188977,
                    "duration": 0.06535933333333332
                },
                {
                    "name": "A5",
                    "midi": 81,
                    "time": 191.56820599999998,
                    "velocity": 0.7244094488188977,
                    "duration": 0.06535933333333332
                },
                {
                    "name": "G5",
                    "midi": 79,
                    "time": 191.66624499999998,
                    "velocity": 0.7244094488188977,
                    "duration": 0.06535933333333332
                },
                {
                    "name": "F5",
                    "midi": 77,
                    "time": 191.76428399999998,
                    "velocity": 0.7244094488188977,
                    "duration": 0.06535933333333332
                },
                {
                    "name": "E5",
                    "midi": 76,
                    "time": 191.86232299999998,
                    "velocity": 0.7244094488188977,
                    "duration": 0.06535933333333332
                },
                {
                    "name": "D5",
                    "midi": 74,
                    "time": 191.96036199999998,
                    "velocity": 0.7244094488188977,
                    "duration": 0.06535933333333332
                },
                {
                    "name": "C5",
                    "midi": 72,
                    "time": 192.05840099999998,
                    "velocity": 0.7244094488188977,
                    "duration": 0.06535933333333332
                },
                {
                    "name": "B4",
                    "midi": 71,
                    "time": 192.15643999999998,
                    "velocity": 0.7244094488188977,
                    "duration": 0.06535933333333332
                },
                {
                    "name": "A4",
                    "midi": 69,
                    "time": 192.25447899999998,
                    "velocity": 0.7244094488188977,
                    "duration": 0.06535933333333332
                },
                {
                    "name": "G4",
                    "midi": 67,
                    "time": 192.35251799999998,
                    "velocity": 0.7244094488188977,
                    "duration": 0.06535933333333332
                },
                {
                    "name": "F4",
                    "midi": 65,
                    "time": 192.45055699999998,
                    "velocity": 0.7244094488188977,
                    "duration": 0.06535933333333332
                },
                {
                    "name": "E4",
                    "midi": 64,
                    "time": 192.54859599999997,
                    "velocity": 0.7244094488188977,
                    "duration": 0.06535933333333332
                },
                {
                    "name": "D4",
                    "midi": 62,
                    "time": 192.64663499999997,
                    "velocity": 0.7244094488188977,
                    "duration": 0.06535933333333332
                },
                {
                    "name": "C4",
                    "midi": 60,
                    "time": 192.74467399999997,
                    "velocity": 0.7244094488188977,
                    "duration": 0.06535933333333332
                },
                {
                    "name": "B3",
                    "midi": 59,
                    "time": 192.84271299999997,
                    "velocity": 0.7244094488188977,
                    "duration": 0.06535933333333332
                },
                {
                    "name": "C4",
                    "midi": 60,
                    "time": 192.94075199999997,
                    "velocity": 0.7244094488188977,
                    "duration": 0.06535933333333332
                },
                {
                    "name": "C4",
                    "midi": 60,
                    "time": 199.21524799999997,
                    "velocity": 0.7244094488188977,
                    "duration": 0.06535933333333332
                },
                {
                    "name": "E5",
                    "midi": 76,
                    "time": 199.31328699999997,
                    "velocity": 0.7244094488188977,
                    "duration": 0.06535933333333332
                },
                {
                    "name": "E6",
                    "midi": 88,
                    "time": 199.41132599999997,
                    "velocity": 0.7244094488188977,
                    "duration": 0.06535933333333332
                },
                {
                    "name": "D6",
                    "midi": 86,
                    "time": 199.50936499999997,
                    "velocity": 0.7244094488188977,
                    "duration": 0.06535933333333332
                },
                {
                    "name": "C#6",
                    "midi": 85,
                    "time": 199.60740399999997,
                    "velocity": 0.7244094488188977,
                    "duration": 0.06535933333333332
                },
                {
                    "name": "A5",
                    "midi": 81,
                    "time": 199.70544299999997,
                    "velocity": 0.7244094488188977,
                    "duration": 0.06535933333333332
                },
                {
                    "name": "B5",
                    "midi": 83,
                    "time": 199.80348199999997,
                    "velocity": 0.7244094488188977,
                    "duration": 0.06535933333333332
                },
                {
                    "name": "C#6",
                    "midi": 85,
                    "time": 199.90152099999997,
                    "velocity": 0.7244094488188977,
                    "duration": 0.06535933333333332
                },
                {
                    "name": "D6",
                    "midi": 86,
                    "time": 199.99955999999997,
                    "velocity": 0.7244094488188977,
                    "duration": 0.06535933333333332
                },
                {
                    "name": "F6",
                    "midi": 89,
                    "time": 200.09759899999997,
                    "velocity": 0.7244094488188977,
                    "duration": 0.06535933333333332
                },
                {
                    "name": "D6",
                    "midi": 86,
                    "time": 200.19563799999997,
                    "velocity": 0.7244094488188977,
                    "duration": 0.06535933333333332
                },
                {
                    "name": "C6",
                    "midi": 84,
                    "time": 200.29367699999997,
                    "velocity": 0.7244094488188977,
                    "duration": 0.06535933333333332
                },
                {
                    "name": "B5",
                    "midi": 83,
                    "time": 200.39171599999997,
                    "velocity": 0.7244094488188977,
                    "duration": 0.06535933333333332
                },
                {
                    "name": "G5",
                    "midi": 79,
                    "time": 200.48975499999997,
                    "velocity": 0.7244094488188977,
                    "duration": 0.06535933333333332
                },
                {
                    "name": "A5",
                    "midi": 81,
                    "time": 200.58779399999997,
                    "velocity": 0.7244094488188977,
                    "duration": 0.06535933333333332
                },
                {
                    "name": "B5",
                    "midi": 83,
                    "time": 200.68583299999997,
                    "velocity": 0.7244094488188977,
                    "duration": 0.06535933333333332
                },
                {
                    "name": "C6",
                    "midi": 84,
                    "time": 200.78387199999997,
                    "velocity": 0.7244094488188977,
                    "duration": 0.06535933333333332
                },
                {
                    "name": "E6",
                    "midi": 88,
                    "time": 200.88191099999997,
                    "velocity": 0.7244094488188977,
                    "duration": 0.06535933333333332
                },
                {
                    "name": "C6",
                    "midi": 84,
                    "time": 200.97994999999997,
                    "velocity": 0.7244094488188977,
                    "duration": 0.06535933333333332
                },
                {
                    "name": "B5",
                    "midi": 83,
                    "time": 201.07798899999997,
                    "velocity": 0.7244094488188977,
                    "duration": 0.06535933333333332
                },
                {
                    "name": "A5",
                    "midi": 81,
                    "time": 201.17602799999997,
                    "velocity": 0.7244094488188977,
                    "duration": 0.06535933333333332
                },
                {
                    "name": "F5",
                    "midi": 77,
                    "time": 201.27406699999997,
                    "velocity": 0.7244094488188977,
                    "duration": 0.06535933333333332
                },
                {
                    "name": "G5",
                    "midi": 79,
                    "time": 201.37210599999997,
                    "velocity": 0.7244094488188977,
                    "duration": 0.06535933333333332
                },
                {
                    "name": "A5",
                    "midi": 81,
                    "time": 201.47014499999997,
                    "velocity": 0.7244094488188977,
                    "duration": 0.06535933333333332
                },
                {
                    "name": "B5",
                    "midi": 83,
                    "time": 201.56818399999997,
                    "velocity": 0.7244094488188977,
                    "duration": 0.06535933333333332
                },
                {
                    "name": "D6",
                    "midi": 86,
                    "time": 201.66622299999997,
                    "velocity": 0.7244094488188977,
                    "duration": 0.06535933333333332
                },
                {
                    "name": "B5",
                    "midi": 83,
                    "time": 201.76426199999997,
                    "velocity": 0.7244094488188977,
                    "duration": 0.06535933333333332
                },
                {
                    "name": "A5",
                    "midi": 81,
                    "time": 201.86230099999997,
                    "velocity": 0.7244094488188977,
                    "duration": 0.06535933333333332
                },
                {
                    "name": "G#5",
                    "midi": 80,
                    "time": 201.96033999999997,
                    "velocity": 0.7244094488188977,
                    "duration": 0.06535933333333332
                },
                {
                    "name": "E5",
                    "midi": 76,
                    "time": 202.05837899999997,
                    "velocity": 0.7244094488188977,
                    "duration": 0.06535933333333332
                },
                {
                    "name": "F#5",
                    "midi": 78,
                    "time": 202.15641799999997,
                    "velocity": 0.7244094488188977,
                    "duration": 0.06535933333333332
                },
                {
                    "name": "G#5",
                    "midi": 80,
                    "time": 202.25445699999997,
                    "velocity": 0.7244094488188977,
                    "duration": 0.06535933333333332
                },
                {
                    "name": "A5",
                    "midi": 81,
                    "time": 202.35249599999997,
                    "velocity": 0.7244094488188977,
                    "duration": 0.06535933333333332
                },
                {
                    "name": "C6",
                    "midi": 84,
                    "time": 202.45053499999997,
                    "velocity": 0.7244094488188977,
                    "duration": 0.06535933333333332
                },
                {
                    "name": "A5",
                    "midi": 81,
                    "time": 202.54857399999997,
                    "velocity": 0.7244094488188977,
                    "duration": 0.06535933333333332
                },
                {
                    "name": "G5",
                    "midi": 79,
                    "time": 202.64661299999997,
                    "velocity": 0.7244094488188977,
                    "duration": 0.06535933333333332
                },
                {
                    "name": "F#5",
                    "midi": 78,
                    "time": 202.74465199999997,
                    "velocity": 0.7244094488188977,
                    "duration": 0.06535933333333332
                },
                {
                    "name": "D5",
                    "midi": 74,
                    "time": 202.84269099999997,
                    "velocity": 0.7244094488188977,
                    "duration": 0.06535933333333332
                },
                {
                    "name": "E5",
                    "midi": 76,
                    "time": 202.94072999999997,
                    "velocity": 0.7244094488188977,
                    "duration": 0.06535933333333332
                },
                {
                    "name": "F#5",
                    "midi": 78,
                    "time": 203.03876899999997,
                    "velocity": 0.7244094488188977,
                    "duration": 0.06535933333333332
                },
                {
                    "name": "G5",
                    "midi": 79,
                    "time": 203.13680799999997,
                    "velocity": 0.7244094488188977,
                    "duration": 0.06535933333333332
                },
                {
                    "name": "A5",
                    "midi": 81,
                    "time": 203.23484699999997,
                    "velocity": 0.7244094488188977,
                    "duration": 0.06535933333333332
                },
                {
                    "name": "B5",
                    "midi": 83,
                    "time": 203.33288599999997,
                    "velocity": 0.7244094488188977,
                    "duration": 0.06535933333333332
                },
                {
                    "name": "C6",
                    "midi": 84,
                    "time": 203.43092499999997,
                    "velocity": 0.7244094488188977,
                    "duration": 0.06535933333333332
                },
                {
                    "name": "D6",
                    "midi": 86,
                    "time": 203.52896399999997,
                    "velocity": 0.7244094488188977,
                    "duration": 0.06535933333333332
                },
                {
                    "name": "E6",
                    "midi": 88,
                    "time": 203.62700299999997,
                    "velocity": 0.7244094488188977,
                    "duration": 0.06535933333333332
                },
                {
                    "name": "F6",
                    "midi": 89,
                    "time": 203.72504199999997,
                    "velocity": 0.7244094488188977,
                    "duration": 0.06535933333333332
                },
                {
                    "name": "D6",
                    "midi": 86,
                    "time": 203.82308099999997,
                    "velocity": 0.7244094488188977,
                    "duration": 0.06535933333333332
                },
                {
                    "name": "F6",
                    "midi": 89,
                    "time": 203.92111999999997,
                    "velocity": 0.7244094488188977,
                    "duration": 0.06535933333333332
                },
                {
                    "name": "E6",
                    "midi": 88,
                    "time": 204.01915899999997,
                    "velocity": 0.7244094488188977,
                    "duration": 0.06535933333333332
                },
                {
                    "name": "D6",
                    "midi": 86,
                    "time": 204.11719799999997,
                    "velocity": 0.7244094488188977,
                    "duration": 0.06535933333333332
                },
                {
                    "name": "C6",
                    "midi": 84,
                    "time": 204.21523699999997,
                    "velocity": 0.7244094488188977,
                    "duration": 0.06535933333333332
                },
                {
                    "name": "G#5",
                    "midi": 80,
                    "time": 204.31327599999997,
                    "velocity": 0.7244094488188977,
                    "duration": 0.06535933333333332
                },
                {
                    "name": "A5",
                    "midi": 81,
                    "time": 204.41131499999997,
                    "velocity": 0.7244094488188977,
                    "duration": 0.06535933333333332
                },
                {
                    "name": "F5",
                    "midi": 77,
                    "time": 204.50935399999997,
                    "velocity": 0.7244094488188977,
                    "duration": 0.06535933333333332
                },
                {
                    "name": "D5",
                    "midi": 74,
                    "time": 204.60739299999997,
                    "velocity": 0.7244094488188977,
                    "duration": 0.06535933333333332
                },
                {
                    "name": "A5",
                    "midi": 81,
                    "time": 204.70543199999997,
                    "velocity": 0.7244094488188977,
                    "duration": 0.06535933333333332
                },
                {
                    "name": "G5",
                    "midi": 79,
                    "time": 204.80347099999997,
                    "velocity": 0.7244094488188977,
                    "duration": 0.06535933333333332
                },
                {
                    "name": "E5",
                    "midi": 76,
                    "time": 204.90150999999997,
                    "velocity": 0.7244094488188977,
                    "duration": 0.06535933333333332
                },
                {
                    "name": "C5",
                    "midi": 72,
                    "time": 204.99954899999997,
                    "velocity": 0.7244094488188977,
                    "duration": 0.06535933333333332
                },
                {
                    "name": "G5",
                    "midi": 79,
                    "time": 205.09758799999997,
                    "velocity": 0.7244094488188977,
                    "duration": 0.06535933333333332
                },
                {
                    "name": "F5",
                    "midi": 77,
                    "time": 205.19562699999997,
                    "velocity": 0.7244094488188977,
                    "duration": 0.06535933333333332
                },
                {
                    "name": "D5",
                    "midi": 74,
                    "time": 205.29366599999997,
                    "velocity": 0.7244094488188977,
                    "duration": 0.06535933333333332
                },
                {
                    "name": "B4",
                    "midi": 71,
                    "time": 205.39170499999997,
                    "velocity": 0.7244094488188977,
                    "duration": 0.06535933333333332
                },
                {
                    "name": "C5",
                    "midi": 72,
                    "time": 205.48974399999997,
                    "velocity": 0.7244094488188977,
                    "duration": 0.06535933333333332
                },
                {
                    "name": "G5",
                    "midi": 79,
                    "time": 205.58778299999997,
                    "velocity": 0.7244094488188977,
                    "duration": 0.06535933333333332
                },
                {
                    "name": "E5",
                    "midi": 76,
                    "time": 205.68582199999997,
                    "velocity": 0.7244094488188977,
                    "duration": 0.06535933333333332
                },
                {
                    "name": "D5",
                    "midi": 74,
                    "time": 205.78386099999997,
                    "velocity": 0.7244094488188977,
                    "duration": 0.06535933333333332
                },
                {
                    "name": "C#5",
                    "midi": 73,
                    "time": 205.88189999999997,
                    "velocity": 0.7244094488188977,
                    "duration": 0.06535933333333332
                },
                {
                    "name": "A#5",
                    "midi": 82,
                    "time": 205.97993899999997,
                    "velocity": 0.7244094488188977,
                    "duration": 0.06535933333333332
                },
                {
                    "name": "A5",
                    "midi": 81,
                    "time": 206.07797799999997,
                    "velocity": 0.7244094488188977,
                    "duration": 0.06535933333333332
                },
                {
                    "name": "G5",
                    "midi": 79,
                    "time": 206.17601699999997,
                    "velocity": 0.7244094488188977,
                    "duration": 0.06535933333333332
                },
                {
                    "name": "F5",
                    "midi": 77,
                    "time": 206.27405599999997,
                    "velocity": 0.7244094488188977,
                    "duration": 0.06535933333333332
                },
                {
                    "name": "E5",
                    "midi": 76,
                    "time": 206.37209499999997,
                    "velocity": 0.7244094488188977,
                    "duration": 0.06535933333333332
                },
                {
                    "name": "D5",
                    "midi": 74,
                    "time": 206.47013399999997,
                    "velocity": 0.7244094488188977,
                    "duration": 0.06535933333333332
                },
                {
                    "name": "C5",
                    "midi": 72,
                    "time": 206.56817299999997,
                    "velocity": 0.7244094488188977,
                    "duration": 0.06535933333333332
                },
                {
                    "name": "B4",
                    "midi": 71,
                    "time": 206.66621199999997,
                    "velocity": 0.7244094488188977,
                    "duration": 0.06535933333333332
                },
                {
                    "name": "A5",
                    "midi": 81,
                    "time": 206.76425099999997,
                    "velocity": 0.7244094488188977,
                    "duration": 0.06535933333333332
                },
                {
                    "name": "G5",
                    "midi": 79,
                    "time": 206.86228999999997,
                    "velocity": 0.7244094488188977,
                    "duration": 0.06535933333333332
                },
                {
                    "name": "F5",
                    "midi": 77,
                    "time": 206.96032899999997,
                    "velocity": 0.7244094488188977,
                    "duration": 0.06535933333333332
                },
                {
                    "name": "E5",
                    "midi": 76,
                    "time": 207.05836799999997,
                    "velocity": 0.7244094488188977,
                    "duration": 0.06535933333333332
                },
                {
                    "name": "D5",
                    "midi": 74,
                    "time": 207.15640699999997,
                    "velocity": 0.7244094488188977,
                    "duration": 0.06535933333333332
                },
                {
                    "name": "C5",
                    "midi": 72,
                    "time": 207.25444599999997,
                    "velocity": 0.7244094488188977,
                    "duration": 0.06535933333333332
                },
                {
                    "name": "B4",
                    "midi": 71,
                    "time": 207.35248499999997,
                    "velocity": 0.7244094488188977,
                    "duration": 0.06535933333333332
                },
                {
                    "name": "A4",
                    "midi": 69,
                    "time": 207.45052399999997,
                    "velocity": 0.7244094488188977,
                    "duration": 0.06535933333333332
                },
                {
                    "name": "G5",
                    "midi": 79,
                    "time": 207.54856299999997,
                    "velocity": 0.7244094488188977,
                    "duration": 0.06535933333333332
                },
                {
                    "name": "F5",
                    "midi": 77,
                    "time": 207.64660199999997,
                    "velocity": 0.7244094488188977,
                    "duration": 0.06535933333333332
                },
                {
                    "name": "E5",
                    "midi": 76,
                    "time": 207.74464099999997,
                    "velocity": 0.7244094488188977,
                    "duration": 0.06535933333333332
                },
                {
                    "name": "D5",
                    "midi": 74,
                    "time": 207.84267999999997,
                    "velocity": 0.7244094488188977,
                    "duration": 0.06535933333333332
                },
                {
                    "name": "C5",
                    "midi": 72,
                    "time": 207.94071899999997,
                    "velocity": 0.7244094488188977,
                    "duration": 0.06535933333333332
                },
                {
                    "name": "B4",
                    "midi": 71,
                    "time": 208.03875799999997,
                    "velocity": 0.7244094488188977,
                    "duration": 0.06535933333333332
                },
                {
                    "name": "A4",
                    "midi": 69,
                    "time": 208.13679699999997,
                    "velocity": 0.7244094488188977,
                    "duration": 0.06535933333333332
                },
                {
                    "name": "G#4",
                    "midi": 68,
                    "time": 208.23483599999997,
                    "velocity": 0.7244094488188977,
                    "duration": 0.06535933333333332
                },
                {
                    "name": "F5",
                    "midi": 77,
                    "time": 208.33287499999997,
                    "velocity": 0.7244094488188977,
                    "duration": 0.06535933333333332
                },
                {
                    "name": "E5",
                    "midi": 76,
                    "time": 208.43091399999997,
                    "velocity": 0.7244094488188977,
                    "duration": 0.06535933333333332
                },
                {
                    "name": "D5",
                    "midi": 74,
                    "time": 208.52895299999997,
                    "velocity": 0.7244094488188977,
                    "duration": 0.06535933333333332
                },
                {
                    "name": "C5",
                    "midi": 72,
                    "time": 208.62699199999997,
                    "velocity": 0.7244094488188977,
                    "duration": 0.06535933333333332
                },
                {
                    "name": "B4",
                    "midi": 71,
                    "time": 208.72503099999997,
                    "velocity": 0.7244094488188977,
                    "duration": 0.06535933333333332
                },
                {
                    "name": "A4",
                    "midi": 69,
                    "time": 208.82306999999997,
                    "velocity": 0.7244094488188977,
                    "duration": 0.06535933333333332
                },
                {
                    "name": "G4",
                    "midi": 67,
                    "time": 208.92110899999997,
                    "velocity": 0.7244094488188977,
                    "duration": 0.06535933333333332
                },
                {
                    "name": "F#4",
                    "midi": 66,
                    "time": 209.01914799999997,
                    "velocity": 0.7244094488188977,
                    "duration": 0.06535933333333332
                },
                {
                    "name": "E5",
                    "midi": 76,
                    "time": 209.11718699999997,
                    "velocity": 0.7244094488188977,
                    "duration": 0.06535933333333332
                },
                {
                    "name": "D5",
                    "midi": 74,
                    "time": 209.21522599999997,
                    "velocity": 0.7244094488188977,
                    "duration": 0.06535933333333332
                },
                {
                    "name": "C5",
                    "midi": 72,
                    "time": 209.31326499999997,
                    "velocity": 0.7244094488188977,
                    "duration": 0.06535933333333332
                },
                {
                    "name": "B4",
                    "midi": 71,
                    "time": 209.41130399999997,
                    "velocity": 0.7244094488188977,
                    "duration": 0.06535933333333332
                },
                {
                    "name": "G4",
                    "midi": 67,
                    "time": 209.50934299999997,
                    "velocity": 0.7244094488188977,
                    "duration": 0.06535933333333332
                },
                {
                    "name": "A4",
                    "midi": 69,
                    "time": 209.60738199999997,
                    "velocity": 0.7244094488188977,
                    "duration": 0.06535933333333332
                },
                {
                    "name": "B4",
                    "midi": 71,
                    "time": 209.70542099999997,
                    "velocity": 0.7244094488188977,
                    "duration": 0.06535933333333332
                },
                {
                    "name": "C5",
                    "midi": 72,
                    "time": 209.80345999999997,
                    "velocity": 0.7244094488188977,
                    "duration": 0.06535933333333332
                },
                {
                    "name": "D5",
                    "midi": 74,
                    "time": 209.90149899999997,
                    "velocity": 0.7244094488188977,
                    "duration": 0.06535933333333332
                },
                {
                    "name": "E5",
                    "midi": 76,
                    "time": 209.99953799999997,
                    "velocity": 0.7244094488188977,
                    "duration": 0.06535933333333332
                },
                {
                    "name": "F5",
                    "midi": 77,
                    "time": 210.09757699999997,
                    "velocity": 0.7244094488188977,
                    "duration": 0.06535933333333332
                },
                {
                    "name": "F5",
                    "midi": 77,
                    "time": 210.19561599999997,
                    "velocity": 0.7244094488188977,
                    "duration": 0.06535933333333332
                },
                {
                    "name": "E5",
                    "midi": 76,
                    "time": 210.29365499999997,
                    "velocity": 0.7244094488188977,
                    "duration": 0.06535933333333332
                },
                {
                    "name": "D5",
                    "midi": 74,
                    "time": 210.39169399999997,
                    "velocity": 0.7244094488188977,
                    "duration": 0.06535933333333332
                },
                {
                    "name": "C5",
                    "midi": 72,
                    "time": 210.48973299999997,
                    "velocity": 0.7244094488188977,
                    "duration": 0.06535933333333332
                },
                {
                    "name": "G#4",
                    "midi": 68,
                    "time": 210.58777199999997,
                    "velocity": 0.7244094488188977,
                    "duration": 0.06535933333333332
                },
                {
                    "name": "A4",
                    "midi": 69,
                    "time": 210.68581099999997,
                    "velocity": 0.7244094488188977,
                    "duration": 0.06535933333333332
                },
                {
                    "name": "F4",
                    "midi": 65,
                    "time": 210.78384999999997,
                    "velocity": 0.7244094488188977,
                    "duration": 0.06535933333333332
                },
                {
                    "name": "D4",
                    "midi": 62,
                    "time": 210.88188899999997,
                    "velocity": 0.7244094488188977,
                    "duration": 0.06535933333333332
                },
                {
                    "name": "A4",
                    "midi": 69,
                    "time": 210.97992799999997,
                    "velocity": 0.7244094488188977,
                    "duration": 0.06535933333333332
                },
                {
                    "name": "G4",
                    "midi": 67,
                    "time": 211.07796699999997,
                    "velocity": 0.7244094488188977,
                    "duration": 0.06535933333333332
                },
                {
                    "name": "E4",
                    "midi": 64,
                    "time": 211.17600599999997,
                    "velocity": 0.7244094488188977,
                    "duration": 0.06535933333333332
                },
                {
                    "name": "C4",
                    "midi": 60,
                    "time": 211.27404499999997,
                    "velocity": 0.7244094488188977,
                    "duration": 0.06535933333333332
                },
                {
                    "name": "G4",
                    "midi": 67,
                    "time": 211.37208399999997,
                    "velocity": 0.7244094488188977,
                    "duration": 0.06535933333333332
                },
                {
                    "name": "F4",
                    "midi": 65,
                    "time": 211.47012299999997,
                    "velocity": 0.7244094488188977,
                    "duration": 0.06535933333333332
                },
                {
                    "name": "D4",
                    "midi": 62,
                    "time": 211.56816199999997,
                    "velocity": 0.7244094488188977,
                    "duration": 0.06535933333333332
                },
                {
                    "name": "B3",
                    "midi": 59,
                    "time": 211.66620099999997,
                    "velocity": 0.7244094488188977,
                    "duration": 0.06535933333333332
                },
                {
                    "name": "C4",
                    "midi": 60,
                    "time": 211.76423999999997,
                    "velocity": 0.7244094488188977,
                    "duration": 0.06535933333333332
                },
                {
                    "name": "E4",
                    "midi": 64,
                    "time": 211.86227899999997,
                    "velocity": 0.7244094488188977,
                    "duration": 0.06535933333333332
                },
                {
                    "name": "G4",
                    "midi": 67,
                    "time": 211.96031799999997,
                    "velocity": 0.7244094488188977,
                    "duration": 0.06535933333333332
                },
                {
                    "name": "C5",
                    "midi": 72,
                    "time": 212.05835699999997,
                    "velocity": 0.7244094488188977,
                    "duration": 0.06535933333333332
                },
                {
                    "name": "E5",
                    "midi": 76,
                    "time": 212.15639599999997,
                    "velocity": 0.7244094488188977,
                    "duration": 0.06535933333333332
                },
                {
                    "name": "C5",
                    "midi": 72,
                    "time": 212.25443499999997,
                    "velocity": 0.7244094488188977,
                    "duration": 0.06535933333333332
                },
                {
                    "name": "B4",
                    "midi": 71,
                    "time": 212.35247399999997,
                    "velocity": 0.7244094488188977,
                    "duration": 0.06535933333333332
                },
                {
                    "name": "A4",
                    "midi": 69,
                    "time": 212.45051299999997,
                    "velocity": 0.7244094488188977,
                    "duration": 0.06535933333333332
                },
                {
                    "name": "G4",
                    "midi": 67,
                    "time": 212.54855199999997,
                    "velocity": 0.7244094488188977,
                    "duration": 0.06535933333333332
                },
                {
                    "name": "B4",
                    "midi": 71,
                    "time": 212.64659099999997,
                    "velocity": 0.7244094488188977,
                    "duration": 0.06535933333333332
                },
                {
                    "name": "D5",
                    "midi": 74,
                    "time": 212.74462999999997,
                    "velocity": 0.7244094488188977,
                    "duration": 0.06535933333333332
                },
                {
                    "name": "F#5",
                    "midi": 78,
                    "time": 212.84266899999997,
                    "velocity": 0.7244094488188977,
                    "duration": 0.06535933333333332
                },
                {
                    "name": "G5",
                    "midi": 79,
                    "time": 212.94070799999997,
                    "velocity": 0.7244094488188977,
                    "duration": 0.06535933333333332
                },
                {
                    "name": "F5",
                    "midi": 77,
                    "time": 213.03874699999997,
                    "velocity": 0.7244094488188977,
                    "duration": 0.06535933333333332
                },
                {
                    "name": "D5",
                    "midi": 74,
                    "time": 213.13678599999997,
                    "velocity": 0.7244094488188977,
                    "duration": 0.06535933333333332
                },
                {
                    "name": "B4",
                    "midi": 71,
                    "time": 213.23482499999997,
                    "velocity": 0.7244094488188977,
                    "duration": 0.06535933333333332
                },
                {
                    "name": "C5",
                    "midi": 72,
                    "time": 213.33286399999997,
                    "velocity": 0.7244094488188977,
                    "duration": 0.06535933333333332
                },
                {
                    "name": "E5",
                    "midi": 76,
                    "time": 213.43090299999997,
                    "velocity": 0.7244094488188977,
                    "duration": 0.06535933333333332
                },
                {
                    "name": "G5",
                    "midi": 79,
                    "time": 213.52894199999997,
                    "velocity": 0.7244094488188977,
                    "duration": 0.06535933333333332
                },
                {
                    "name": "C6",
                    "midi": 84,
                    "time": 213.62698099999997,
                    "velocity": 0.7244094488188977,
                    "duration": 0.06535933333333332
                },
                {
                    "name": "E6",
                    "midi": 88,
                    "time": 213.72501999999997,
                    "velocity": 0.7244094488188977,
                    "duration": 0.06535933333333332
                },
                {
                    "name": "C6",
                    "midi": 84,
                    "time": 213.82305899999997,
                    "velocity": 0.7244094488188977,
                    "duration": 0.06535933333333332
                },
                {
                    "name": "B5",
                    "midi": 83,
                    "time": 213.92109799999997,
                    "velocity": 0.7244094488188977,
                    "duration": 0.06535933333333332
                },
                {
                    "name": "A5",
                    "midi": 81,
                    "time": 214.01913699999997,
                    "velocity": 0.7244094488188977,
                    "duration": 0.06535933333333332
                },
                {
                    "name": "G5",
                    "midi": 79,
                    "time": 214.11717599999997,
                    "velocity": 0.7244094488188977,
                    "duration": 0.06535933333333332
                },
                {
                    "name": "A5",
                    "midi": 81,
                    "time": 214.21521499999997,
                    "velocity": 0.7244094488188977,
                    "duration": 0.06535933333333332
                },
                {
                    "name": "B5",
                    "midi": 83,
                    "time": 214.31325399999997,
                    "velocity": 0.7244094488188977,
                    "duration": 0.06535933333333332
                },
                {
                    "name": "C6",
                    "midi": 84,
                    "time": 214.41129299999997,
                    "velocity": 0.7244094488188977,
                    "duration": 0.06535933333333332
                },
                {
                    "name": "D6",
                    "midi": 86,
                    "time": 214.50933199999997,
                    "velocity": 0.7244094488188977,
                    "duration": 0.06535933333333332
                },
                {
                    "name": "F6",
                    "midi": 89,
                    "time": 214.60737099999997,
                    "velocity": 0.7244094488188977,
                    "duration": 0.06535933333333332
                },
                {
                    "name": "D6",
                    "midi": 86,
                    "time": 214.70540999999997,
                    "velocity": 0.7244094488188977,
                    "duration": 0.06535933333333332
                },
                {
                    "name": "B5",
                    "midi": 83,
                    "time": 214.80344899999997,
                    "velocity": 0.7244094488188977,
                    "duration": 0.06535933333333332
                },
                {
                    "name": "C6",
                    "midi": 84,
                    "time": 214.90148799999997,
                    "velocity": 0.7244094488188977,
                    "duration": 0.06535933333333332
                },
                {
                    "name": "B5",
                    "midi": 83,
                    "time": 214.99952699999997,
                    "velocity": 0.7244094488188977,
                    "duration": 0.06535933333333332
                },
                {
                    "name": "C6",
                    "midi": 84,
                    "time": 215.09756599999997,
                    "velocity": 0.7244094488188977,
                    "duration": 0.06535933333333332
                },
                {
                    "name": "E6",
                    "midi": 88,
                    "time": 215.19560499999997,
                    "velocity": 0.7244094488188977,
                    "duration": 0.06535933333333332
                },
                {
                    "name": "D6",
                    "midi": 86,
                    "time": 215.29364399999997,
                    "velocity": 0.7244094488188977,
                    "duration": 0.06535933333333332
                },
                {
                    "name": "C6",
                    "midi": 84,
                    "time": 215.39168299999997,
                    "velocity": 0.7244094488188977,
                    "duration": 0.06535933333333332
                },
                {
                    "name": "B5",
                    "midi": 83,
                    "time": 215.48972199999997,
                    "velocity": 0.7244094488188977,
                    "duration": 0.06535933333333332
                },
                {
                    "name": "A5",
                    "midi": 81,
                    "time": 215.58776099999997,
                    "velocity": 0.7244094488188977,
                    "duration": 0.06535933333333332
                },
                {
                    "name": "G5",
                    "midi": 79,
                    "time": 215.68579999999997,
                    "velocity": 0.7244094488188977,
                    "duration": 0.06535933333333332
                },
                {
                    "name": "F#5",
                    "midi": 78,
                    "time": 215.78383899999997,
                    "velocity": 0.7244094488188977,
                    "duration": 0.06535933333333332
                },
                {
                    "name": "A5",
                    "midi": 81,
                    "time": 215.88187799999997,
                    "velocity": 0.7244094488188977,
                    "duration": 0.06535933333333332
                },
                {
                    "name": "G5",
                    "midi": 79,
                    "time": 215.97991699999997,
                    "velocity": 0.7244094488188977,
                    "duration": 0.06535933333333332
                },
                {
                    "name": "F5",
                    "midi": 77,
                    "time": 216.07795599999997,
                    "velocity": 0.7244094488188977,
                    "duration": 0.06535933333333332
                },
                {
                    "name": "E5",
                    "midi": 76,
                    "time": 216.17599499999997,
                    "velocity": 0.7244094488188977,
                    "duration": 0.06535933333333332
                },
                {
                    "name": "F5",
                    "midi": 77,
                    "time": 216.27403399999997,
                    "velocity": 0.7244094488188977,
                    "duration": 0.06535933333333332
                },
                {
                    "name": "D5",
                    "midi": 74,
                    "time": 216.37207299999997,
                    "velocity": 0.7244094488188977,
                    "duration": 0.06535933333333332
                },
                {
                    "name": "C5",
                    "midi": 72,
                    "time": 216.47011199999997,
                    "velocity": 0.7244094488188977,
                    "duration": 0.06535933333333332
                },
                {
                    "name": "B4",
                    "midi": 71,
                    "time": 216.56815099999997,
                    "velocity": 0.7244094488188977,
                    "duration": 0.06535933333333332
                },
                {
                    "name": "C5",
                    "midi": 72,
                    "time": 216.66618999999997,
                    "velocity": 0.7244094488188977,
                    "duration": 0.06535933333333332
                },
                {
                    "name": "E5",
                    "midi": 76,
                    "time": 216.76422899999997,
                    "velocity": 0.7244094488188977,
                    "duration": 0.06535933333333332
                },
                {
                    "name": "D5",
                    "midi": 74,
                    "time": 216.86226799999997,
                    "velocity": 0.7244094488188977,
                    "duration": 0.06535933333333332
                },
                {
                    "name": "C5",
                    "midi": 72,
                    "time": 216.96030699999997,
                    "velocity": 0.7244094488188977,
                    "duration": 0.06535933333333332
                },
                {
                    "name": "B4",
                    "midi": 71,
                    "time": 217.05834599999997,
                    "velocity": 0.7244094488188977,
                    "duration": 0.06535933333333332
                },
                {
                    "name": "A4",
                    "midi": 69,
                    "time": 217.15638499999997,
                    "velocity": 0.7244094488188977,
                    "duration": 0.06535933333333332
                },
                {
                    "name": "G4",
                    "midi": 67,
                    "time": 217.25442399999997,
                    "velocity": 0.7244094488188977,
                    "duration": 0.06535933333333332
                },
                {
                    "name": "F#4",
                    "midi": 66,
                    "time": 217.35246299999997,
                    "velocity": 0.7322834645669292,
                    "duration": 0.06535933333333332
                },
                {
                    "name": "A4",
                    "midi": 69,
                    "time": 217.45050199999997,
                    "velocity": 0.7401574803149606,
                    "duration": 0.06535933333333332
                },
                {
                    "name": "G4",
                    "midi": 67,
                    "time": 217.54854099999997,
                    "velocity": 0.7480314960629921,
                    "duration": 0.06535933333333332
                },
                {
                    "name": "F4",
                    "midi": 65,
                    "time": 217.64657999999997,
                    "velocity": 0.7559055118110236,
                    "duration": 0.06535933333333332
                },
                {
                    "name": "E4",
                    "midi": 64,
                    "time": 217.74461899999997,
                    "velocity": 0.7637795275590551,
                    "duration": 0.06535933333333332
                },
                {
                    "name": "F4",
                    "midi": 65,
                    "time": 217.84265799999997,
                    "velocity": 0.7716535433070866,
                    "duration": 0.06535933333333332
                },
                {
                    "name": "D4",
                    "midi": 62,
                    "time": 217.94069699999997,
                    "velocity": 0.7795275590551181,
                    "duration": 0.06535933333333332
                },
                {
                    "name": "C4",
                    "midi": 60,
                    "time": 218.03873599999997,
                    "velocity": 0.7874015748031497,
                    "duration": 0.06535933333333332
                },
                {
                    "name": "E4",
                    "midi": 64,
                    "time": 218.13677499999997,
                    "velocity": 0.7952755905511811,
                    "duration": 0.06535933333333332
                },
                {
                    "name": "G4",
                    "midi": 67,
                    "time": 218.23481399999997,
                    "velocity": 0.8031496062992126,
                    "duration": 0.06535933333333332
                },
                {
                    "name": "C5",
                    "midi": 72,
                    "time": 218.33285299999997,
                    "velocity": 0.8110236220472441,
                    "duration": 0.06535933333333332
                },
                {
                    "name": "B4",
                    "midi": 71,
                    "time": 218.43089199999997,
                    "velocity": 0.8188976377952756,
                    "duration": 0.06535933333333332
                },
                {
                    "name": "G4",
                    "midi": 67,
                    "time": 218.52893099999997,
                    "velocity": 0.8267716535433071,
                    "duration": 0.06535933333333332
                },
                {
                    "name": "F4",
                    "midi": 65,
                    "time": 218.62696999999997,
                    "velocity": 0.8346456692913385,
                    "duration": 0.06535933333333332
                },
                {
                    "name": "D4",
                    "midi": 62,
                    "time": 218.72500899999997,
                    "velocity": 0.84251968503937,
                    "duration": 0.06535933333333332
                },
                {
                    "name": "C4",
                    "midi": 60,
                    "time": 218.82304799999997,
                    "velocity": 0.8503937007874016,
                    "duration": 0.06535933333333332
                },
                {
                    "name": "E4",
                    "midi": 64,
                    "time": 218.92108699999997,
                    "velocity": 0.8503937007874016,
                    "duration": 0.06535933333333332
                },
                {
                    "name": "G4",
                    "midi": 67,
                    "time": 219.01912599999997,
                    "velocity": 0.8503937007874016,
                    "duration": 0.06535933333333332
                },
                {
                    "name": "C5",
                    "midi": 72,
                    "time": 219.11716499999997,
                    "velocity": 0.8503937007874016,
                    "duration": 0.06535933333333332
                },
                {
                    "name": "G4",
                    "midi": 67,
                    "time": 219.21520399999997,
                    "velocity": 0.8503937007874016,
                    "duration": 0.06535933333333332
                },
                {
                    "name": "B4",
                    "midi": 71,
                    "time": 219.31324299999997,
                    "velocity": 0.8503937007874016,
                    "duration": 0.06535933333333332
                },
                {
                    "name": "D5",
                    "midi": 74,
                    "time": 219.41128199999997,
                    "velocity": 0.8503937007874016,
                    "duration": 0.06535933333333332
                },
                {
                    "name": "G5",
                    "midi": 79,
                    "time": 219.50932099999997,
                    "velocity": 0.8503937007874016,
                    "duration": 0.06535933333333332
                },
                {
                    "name": "C5",
                    "midi": 72,
                    "time": 219.60735999999997,
                    "velocity": 0.8503937007874016,
                    "duration": 0.06535933333333332
                },
                {
                    "name": "E5",
                    "midi": 76,
                    "time": 219.70539899999997,
                    "velocity": 0.8503937007874016,
                    "duration": 0.06535933333333332
                },
                {
                    "name": "G5",
                    "midi": 79,
                    "time": 219.80343799999997,
                    "velocity": 0.8503937007874016,
                    "duration": 0.06535933333333332
                },
                {
                    "name": "C6",
                    "midi": 84,
                    "time": 219.90147699999997,
                    "velocity": 0.8503937007874016,
                    "duration": 0.06535933333333332
                },
                {
                    "name": "B5",
                    "midi": 83,
                    "time": 219.99951599999997,
                    "velocity": 0.8503937007874016,
                    "duration": 0.06535933333333332
                },
                {
                    "name": "G5",
                    "midi": 79,
                    "time": 220.09755499999997,
                    "velocity": 0.8503937007874016,
                    "duration": 0.06535933333333332
                },
                {
                    "name": "F5",
                    "midi": 77,
                    "time": 220.19559399999997,
                    "velocity": 0.8503937007874016,
                    "duration": 0.06535933333333332
                },
                {
                    "name": "D5",
                    "midi": 74,
                    "time": 220.29363299999997,
                    "velocity": 0.8503937007874016,
                    "duration": 0.06535933333333332
                },
                {
                    "name": "C5",
                    "midi": 72,
                    "time": 220.39167199999997,
                    "velocity": 0.8503937007874016,
                    "duration": 0.06535933333333332
                },
                {
                    "name": "E5",
                    "midi": 76,
                    "time": 220.48971099999997,
                    "velocity": 0.8503937007874016,
                    "duration": 0.06535933333333332
                },
                {
                    "name": "G5",
                    "midi": 79,
                    "time": 220.58774999999997,
                    "velocity": 0.8503937007874016,
                    "duration": 0.06535933333333332
                },
                {
                    "name": "C6",
                    "midi": 84,
                    "time": 220.68578899999997,
                    "velocity": 0.8503937007874016,
                    "duration": 0.06535933333333332
                },
                {
                    "name": "G5",
                    "midi": 79,
                    "time": 220.78382799999997,
                    "velocity": 0.8503937007874016,
                    "duration": 0.06535933333333332
                },
                {
                    "name": "B5",
                    "midi": 83,
                    "time": 220.88186699999997,
                    "velocity": 0.8503937007874016,
                    "duration": 0.06535933333333332
                },
                {
                    "name": "D6",
                    "midi": 86,
                    "time": 220.97990599999997,
                    "velocity": 0.8503937007874016,
                    "duration": 0.06535933333333332
                },
                {
                    "name": "G6",
                    "midi": 91,
                    "time": 221.07794499999997,
                    "velocity": 0.8503937007874016,
                    "duration": 0.06535933333333332
                },
                {
                    "name": "C4",
                    "midi": 60,
                    "time": 221.17598399999997,
                    "velocity": 0.8503937007874016,
                    "duration": 0.06535933333333332
                },
                {
                    "name": "C4",
                    "midi": 60,
                    "time": 221.27402299999997,
                    "velocity": 0.8503937007874016,
                    "duration": 0.06535933333333332
                },
                {
                    "name": "D4",
                    "midi": 62,
                    "time": 221.37206199999997,
                    "velocity": 0.8503937007874016,
                    "duration": 0.06535933333333332
                },
                {
                    "name": "E4",
                    "midi": 64,
                    "time": 221.47010099999997,
                    "velocity": 0.8503937007874016,
                    "duration": 0.06535933333333332
                },
                {
                    "name": "F4",
                    "midi": 65,
                    "time": 221.56813999999997,
                    "velocity": 0.8503937007874016,
                    "duration": 0.06535933333333332
                },
                {
                    "name": "G4",
                    "midi": 67,
                    "time": 221.66617899999997,
                    "velocity": 0.8503937007874016,
                    "duration": 0.06535933333333332
                },
                {
                    "name": "A4",
                    "midi": 69,
                    "time": 221.76421799999997,
                    "velocity": 0.8503937007874016,
                    "duration": 0.06535933333333332
                },
                {
                    "name": "B4",
                    "midi": 71,
                    "time": 221.86225699999997,
                    "velocity": 0.8503937007874016,
                    "duration": 0.06535933333333332
                },
                {
                    "name": "C5",
                    "midi": 72,
                    "time": 221.96029599999997,
                    "velocity": 0.8503937007874016,
                    "duration": 0.06535933333333332
                },
                {
                    "name": "C5",
                    "midi": 72,
                    "time": 222.05833499999997,
                    "velocity": 0.8503937007874016,
                    "duration": 0.06535933333333332
                },
                {
                    "name": "D5",
                    "midi": 74,
                    "time": 222.15637399999997,
                    "velocity": 0.8503937007874016,
                    "duration": 0.06535933333333332
                },
                {
                    "name": "E5",
                    "midi": 76,
                    "time": 222.25441299999997,
                    "velocity": 0.8503937007874016,
                    "duration": 0.06535933333333332
                },
                {
                    "name": "F5",
                    "midi": 77,
                    "time": 222.35245199999997,
                    "velocity": 0.8503937007874016,
                    "duration": 0.06535933333333332
                },
                {
                    "name": "G5",
                    "midi": 79,
                    "time": 222.45049099999997,
                    "velocity": 0.8503937007874016,
                    "duration": 0.06535933333333332
                },
                {
                    "name": "A5",
                    "midi": 81,
                    "time": 222.54852999999997,
                    "velocity": 0.8503937007874016,
                    "duration": 0.06535933333333332
                },
                {
                    "name": "B5",
                    "midi": 83,
                    "time": 222.64656899999997,
                    "velocity": 0.8503937007874016,
                    "duration": 0.06535933333333332
                },
                {
                    "name": "C5",
                    "midi": 72,
                    "time": 222.74460799999997,
                    "velocity": 0.8503937007874016,
                    "duration": 0.06535933333333332
                },
                {
                    "name": "C6",
                    "midi": 84,
                    "time": 222.74460799999997,
                    "velocity": 0.8503937007874016,
                    "duration": 0.06535933333333332
                },
                {
                    "name": "C5",
                    "midi": 72,
                    "time": 222.84264699999997,
                    "velocity": 0.8503937007874016,
                    "duration": 0.06535933333333332
                },
                {
                    "name": "C6",
                    "midi": 84,
                    "time": 222.84264699999997,
                    "velocity": 0.8503937007874016,
                    "duration": 0.06535933333333332
                },
                {
                    "name": "D5",
                    "midi": 74,
                    "time": 222.94068599999997,
                    "velocity": 0.8503937007874016,
                    "duration": 0.06535933333333332
                },
                {
                    "name": "D6",
                    "midi": 86,
                    "time": 222.94068599999997,
                    "velocity": 0.8503937007874016,
                    "duration": 0.06535933333333332
                },
                {
                    "name": "E5",
                    "midi": 76,
                    "time": 223.03872499999997,
                    "velocity": 0.8503937007874016,
                    "duration": 0.06535933333333332
                },
                {
                    "name": "E6",
                    "midi": 88,
                    "time": 223.03872499999997,
                    "velocity": 0.8503937007874016,
                    "duration": 0.06535933333333332
                },
                {
                    "name": "F5",
                    "midi": 77,
                    "time": 223.13676399999997,
                    "velocity": 0.8503937007874016,
                    "duration": 0.06535933333333332
                },
                {
                    "name": "F6",
                    "midi": 89,
                    "time": 223.13676399999997,
                    "velocity": 0.8503937007874016,
                    "duration": 0.06535933333333332
                },
                {
                    "name": "G5",
                    "midi": 79,
                    "time": 223.23480299999997,
                    "velocity": 0.8503937007874016,
                    "duration": 0.06535933333333332
                },
                {
                    "name": "G6",
                    "midi": 91,
                    "time": 223.23480299999997,
                    "velocity": 0.8503937007874016,
                    "duration": 0.06535933333333332
                },
                {
                    "name": "A5",
                    "midi": 81,
                    "time": 223.33284199999997,
                    "velocity": 0.8503937007874016,
                    "duration": 0.06535933333333332
                },
                {
                    "name": "A6",
                    "midi": 93,
                    "time": 223.33284199999997,
                    "velocity": 0.8503937007874016,
                    "duration": 0.06535933333333332
                },
                {
                    "name": "B5",
                    "midi": 83,
                    "time": 223.43088099999997,
                    "velocity": 0.8503937007874016,
                    "duration": 0.06535933333333332
                },
                {
                    "name": "B6",
                    "midi": 95,
                    "time": 223.43088099999997,
                    "velocity": 0.8503937007874016,
                    "duration": 0.06535933333333332
                },
                {
                    "name": "C6",
                    "midi": 84,
                    "time": 223.52891999999997,
                    "velocity": 0.8503937007874016,
                    "duration": 0.06535933333333332
                },
                {
                    "name": "C7",
                    "midi": 96,
                    "time": 223.52891999999997,
                    "velocity": 0.8503937007874016,
                    "duration": 0.06535933333333332
                },
                {
                    "name": "C6",
                    "midi": 84,
                    "time": 223.62695899999997,
                    "velocity": 0.8503937007874016,
                    "duration": 0.06535933333333332
                },
                {
                    "name": "C7",
                    "midi": 96,
                    "time": 223.62695899999997,
                    "velocity": 0.8503937007874016,
                    "duration": 0.06535933333333332
                },
                {
                    "name": "B5",
                    "midi": 83,
                    "time": 223.72499799999997,
                    "velocity": 0.8503937007874016,
                    "duration": 0.06535933333333332
                },
                {
                    "name": "B6",
                    "midi": 95,
                    "time": 223.72499799999997,
                    "velocity": 0.8503937007874016,
                    "duration": 0.06535933333333332
                },
                {
                    "name": "A5",
                    "midi": 81,
                    "time": 223.82303699999997,
                    "velocity": 0.8503937007874016,
                    "duration": 0.06535933333333332
                },
                {
                    "name": "A6",
                    "midi": 93,
                    "time": 223.82303699999997,
                    "velocity": 0.8503937007874016,
                    "duration": 0.06535933333333332
                },
                {
                    "name": "G5",
                    "midi": 79,
                    "time": 223.92107599999997,
                    "velocity": 0.8503937007874016,
                    "duration": 0.06535933333333332
                },
                {
                    "name": "G6",
                    "midi": 91,
                    "time": 223.92107599999997,
                    "velocity": 0.8503937007874016,
                    "duration": 0.06535933333333332
                },
                {
                    "name": "F5",
                    "midi": 77,
                    "time": 224.01911499999997,
                    "velocity": 0.8503937007874016,
                    "duration": 0.06535933333333332
                },
                {
                    "name": "F6",
                    "midi": 89,
                    "time": 224.01911499999997,
                    "velocity": 0.8503937007874016,
                    "duration": 0.06535933333333332
                },
                {
                    "name": "E5",
                    "midi": 76,
                    "time": 224.11715399999997,
                    "velocity": 0.8503937007874016,
                    "duration": 0.06535933333333332
                },
                {
                    "name": "E6",
                    "midi": 88,
                    "time": 224.11715399999997,
                    "velocity": 0.8503937007874016,
                    "duration": 0.06535933333333332
                },
                {
                    "name": "D5",
                    "midi": 74,
                    "time": 224.21519299999997,
                    "velocity": 0.8503937007874016,
                    "duration": 0.06535933333333332
                },
                {
                    "name": "D6",
                    "midi": 86,
                    "time": 224.21519299999997,
                    "velocity": 0.8503937007874016,
                    "duration": 0.06535933333333332
                },
                {
                    "name": "C5",
                    "midi": 72,
                    "time": 224.31323199999997,
                    "velocity": 0.8503937007874016,
                    "duration": 0.06535933333333332
                },
                {
                    "name": "C6",
                    "midi": 84,
                    "time": 224.31323199999997,
                    "velocity": 0.8503937007874016,
                    "duration": 0.06535933333333332
                },
                {
                    "name": "C5",
                    "midi": 72,
                    "time": 224.41127099999997,
                    "velocity": 0.8503937007874016,
                    "duration": 0.06535933333333332
                },
                {
                    "name": "C6",
                    "midi": 84,
                    "time": 224.41127099999997,
                    "velocity": 0.8503937007874016,
                    "duration": 0.06535933333333332
                },
                {
                    "name": "B4",
                    "midi": 71,
                    "time": 224.50930999999997,
                    "velocity": 0.8503937007874016,
                    "duration": 0.06535933333333332
                },
                {
                    "name": "B5",
                    "midi": 83,
                    "time": 224.50930999999997,
                    "velocity": 0.8503937007874016,
                    "duration": 0.06535933333333332
                },
                {
                    "name": "A4",
                    "midi": 69,
                    "time": 224.60734899999997,
                    "velocity": 0.8503937007874016,
                    "duration": 0.06535933333333332
                },
                {
                    "name": "A5",
                    "midi": 81,
                    "time": 224.60734899999997,
                    "velocity": 0.8503937007874016,
                    "duration": 0.06535933333333332
                },
                {
                    "name": "G4",
                    "midi": 67,
                    "time": 224.70538799999997,
                    "velocity": 0.8503937007874016,
                    "duration": 0.06535933333333332
                },
                {
                    "name": "G5",
                    "midi": 79,
                    "time": 224.70538799999997,
                    "velocity": 0.8503937007874016,
                    "duration": 0.06535933333333332
                },
                {
                    "name": "F4",
                    "midi": 65,
                    "time": 224.80342699999997,
                    "velocity": 0.8503937007874016,
                    "duration": 0.06535933333333332
                },
                {
                    "name": "F5",
                    "midi": 77,
                    "time": 224.80342699999997,
                    "velocity": 0.8503937007874016,
                    "duration": 0.06535933333333332
                },
                {
                    "name": "E4",
                    "midi": 64,
                    "time": 224.90146599999997,
                    "velocity": 0.8503937007874016,
                    "duration": 0.06535933333333332
                },
                {
                    "name": "E5",
                    "midi": 76,
                    "time": 224.90146599999997,
                    "velocity": 0.8503937007874016,
                    "duration": 0.06535933333333332
                },
                {
                    "name": "D4",
                    "midi": 62,
                    "time": 224.99950499999997,
                    "velocity": 0.8503937007874016,
                    "duration": 0.06535933333333332
                },
                {
                    "name": "D5",
                    "midi": 74,
                    "time": 224.99950499999997,
                    "velocity": 0.8503937007874016,
                    "duration": 0.06535933333333332
                },
                {
                    "name": "C4",
                    "midi": 60,
                    "time": 225.09754399999997,
                    "velocity": 0.8503937007874016,
                    "duration": 0.06535933333333332
                },
                {
                    "name": "C5",
                    "midi": 72,
                    "time": 225.09754399999997,
                    "velocity": 0.8503937007874016,
                    "duration": 0.06535933333333332
                },
                {
                    "name": "C4",
                    "midi": 60,
                    "time": 225.19558299999997,
                    "velocity": 0.8503937007874016,
                    "duration": 0.06535933333333332
                },
                {
                    "name": "C5",
                    "midi": 72,
                    "time": 225.19558299999997,
                    "velocity": 0.8503937007874016,
                    "duration": 0.06535933333333332
                },
                {
                    "name": "B3",
                    "midi": 59,
                    "time": 225.29362199999997,
                    "velocity": 0.8503937007874016,
                    "duration": 0.06535933333333332
                },
                {
                    "name": "B4",
                    "midi": 71,
                    "time": 225.29362199999997,
                    "velocity": 0.8503937007874016,
                    "duration": 0.06535933333333332
                },
                {
                    "name": "A3",
                    "midi": 57,
                    "time": 225.39166099999997,
                    "velocity": 0.8503937007874016,
                    "duration": 0.06535933333333332
                },
                {
                    "name": "A4",
                    "midi": 69,
                    "time": 225.39166099999997,
                    "velocity": 0.8503937007874016,
                    "duration": 0.06535933333333332
                },
                {
                    "name": "G3",
                    "midi": 55,
                    "time": 225.48969999999997,
                    "velocity": 0.8503937007874016,
                    "duration": 0.06535933333333332
                },
                {
                    "name": "G4",
                    "midi": 67,
                    "time": 225.48969999999997,
                    "velocity": 0.8503937007874016,
                    "duration": 0.06535933333333332
                },
                {
                    "name": "F3",
                    "midi": 53,
                    "time": 225.58773899999997,
                    "velocity": 0.8503937007874016,
                    "duration": 0.06535933333333332
                },
                {
                    "name": "F4",
                    "midi": 65,
                    "time": 225.58773899999997,
                    "velocity": 0.8503937007874016,
                    "duration": 0.06535933333333332
                },
                {
                    "name": "E3",
                    "midi": 52,
                    "time": 225.68577799999997,
                    "velocity": 0.8503937007874016,
                    "duration": 0.06535933333333332
                },
                {
                    "name": "E4",
                    "midi": 64,
                    "time": 225.68577799999997,
                    "velocity": 0.8503937007874016,
                    "duration": 0.06535933333333332
                },
                {
                    "name": "D3",
                    "midi": 50,
                    "time": 225.78381699999997,
                    "velocity": 0.8503937007874016,
                    "duration": 0.06535933333333332
                },
                {
                    "name": "D4",
                    "midi": 62,
                    "time": 225.78381699999997,
                    "velocity": 0.8503937007874016,
                    "duration": 0.06535933333333332
                },
                {
                    "name": "C3",
                    "midi": 48,
                    "time": 225.88185599999997,
                    "velocity": 0.8503937007874016,
                    "duration": 0.09803899999999999
                },
                {
                    "name": "C4",
                    "midi": 60,
                    "time": 225.88185599999997,
                    "velocity": 0.8503937007874016,
                    "duration": 0.09803899999999999
                },
                {
                    "name": "C5",
                    "midi": 72,
                    "time": 226.56812899999997,
                    "velocity": 0.8503937007874016,
                    "duration": 0.03267966666666666
                },
                {
                    "name": "G5",
                    "midi": 79,
                    "time": 226.61714849999998,
                    "velocity": 0.8503937007874016,
                    "duration": 0.03267966666666666
                },
                {
                    "name": "E6",
                    "midi": 88,
                    "time": 226.66616799999997,
                    "velocity": 0.8503937007874016,
                    "duration": 0.3267966666666666
                },
                {
                    "name": "C4",
                    "midi": 60,
                    "time": 227.45047999999997,
                    "velocity": 0.8503937007874016,
                    "duration": 0.1919930416666773
                }
            ],
            "controlChanges": {
                "7": [
                    {
                        "number": 7,
                        "time": 0,
                        "value": 1
                    }
                ],
                "10": [
                    {
                        "number": 10,
                        "time": 0,
                        "value": 0
                    }
                ],
                "91": [
                    {
                        "number": 91,
                        "time": 0,
                        "value": 0.36220472440944884
                    }
                ]
            },
            "id": 4,
            "instrumentNumber": 48,
            "instrument": "string ensemble 1",
            "instrumentFamily": "ensemble",
            "channelNumber": 2,
            "isPercussion": false
        },
        {
            "startTime": 5.490184,
            "duration": 227.64247304166665,
            "length": 1878,
            "notes": [
                {
                    "name": "C5",
                    "midi": 72,
                    "time": 5.490184,
                    "velocity": 0.7244094488188977,
                    "duration": 0.06535933333333332
                },
                {
                    "name": "D5",
                    "midi": 74,
                    "time": 5.588223,
                    "velocity": 0.7244094488188977,
                    "duration": 0.06535933333333332
                },
                {
                    "name": "C5",
                    "midi": 72,
                    "time": 5.686262,
                    "velocity": 0.7244094488188977,
                    "duration": 0.06535933333333332
                },
                {
                    "name": "B4",
                    "midi": 71,
                    "time": 5.784301,
                    "velocity": 0.7244094488188977,
                    "duration": 0.06535933333333332
                },
                {
                    "name": "C5",
                    "midi": 72,
                    "time": 5.88234,
                    "velocity": 0.7244094488188977,
                    "duration": 0.06535933333333332
                },
                {
                    "name": "D5",
                    "midi": 74,
                    "time": 5.980379,
                    "velocity": 0.7244094488188977,
                    "duration": 0.06535933333333332
                },
                {
                    "name": "E5",
                    "midi": 76,
                    "time": 6.078418,
                    "velocity": 0.7244094488188977,
                    "duration": 0.06535933333333332
                },
                {
                    "name": "C5",
                    "midi": 72,
                    "time": 6.176457,
                    "velocity": 0.7244094488188977,
                    "duration": 0.06535933333333332
                },
                {
                    "name": "D5",
                    "midi": 74,
                    "time": 6.274496,
                    "velocity": 0.7244094488188977,
                    "duration": 0.06535933333333332
                },
                {
                    "name": "C5",
                    "midi": 72,
                    "time": 6.372535,
                    "velocity": 0.7244094488188977,
                    "duration": 0.06535933333333332
                },
                {
                    "name": "B4",
                    "midi": 71,
                    "time": 6.470574,
                    "velocity": 0.7244094488188977,
                    "duration": 0.06535933333333332
                },
                {
                    "name": "A4",
                    "midi": 69,
                    "time": 6.568613,
                    "velocity": 0.7244094488188977,
                    "duration": 0.06535933333333332
                },
                {
                    "name": "G4",
                    "midi": 67,
                    "time": 6.666652,
                    "velocity": 0.7244094488188977,
                    "duration": 0.06535933333333332
                },
                {
                    "name": "A4",
                    "midi": 69,
                    "time": 6.764691,
                    "velocity": 0.7244094488188977,
                    "duration": 0.06535933333333332
                },
                {
                    "name": "B4",
                    "midi": 71,
                    "time": 6.86273,
                    "velocity": 0.7244094488188977,
                    "duration": 0.06535933333333332
                },
                {
                    "name": "C5",
                    "midi": 72,
                    "time": 6.960769,
                    "velocity": 0.7244094488188977,
                    "duration": 0.06535933333333332
                },
                {
                    "name": "D5",
                    "midi": 74,
                    "time": 7.058808,
                    "velocity": 0.7244094488188977,
                    "duration": 0.06535933333333332
                },
                {
                    "name": "E5",
                    "midi": 76,
                    "time": 7.156847,
                    "velocity": 0.7244094488188977,
                    "duration": 0.06535933333333332
                },
                {
                    "name": "F5",
                    "midi": 77,
                    "time": 7.254886,
                    "velocity": 0.7244094488188977,
                    "duration": 0.06535933333333332
                },
                {
                    "name": "E5",
                    "midi": 76,
                    "time": 7.352925,
                    "velocity": 0.7244094488188977,
                    "duration": 0.06535933333333332
                },
                {
                    "name": "G5",
                    "midi": 79,
                    "time": 7.450964,
                    "velocity": 0.7244094488188977,
                    "duration": 0.06535933333333332
                },
                {
                    "name": "F5",
                    "midi": 77,
                    "time": 7.549003,
                    "velocity": 0.7244094488188977,
                    "duration": 0.06535933333333332
                },
                {
                    "name": "E5",
                    "midi": 76,
                    "time": 7.647042,
                    "velocity": 0.7244094488188977,
                    "duration": 0.06535933333333332
                },
                {
                    "name": "D5",
                    "midi": 74,
                    "time": 7.745081,
                    "velocity": 0.7244094488188977,
                    "duration": 0.06535933333333332
                },
                {
                    "name": "E5",
                    "midi": 76,
                    "time": 7.84312,
                    "velocity": 0.7244094488188977,
                    "duration": 0.06535933333333332
                },
                {
                    "name": "F5",
                    "midi": 77,
                    "time": 7.941159,
                    "velocity": 0.7244094488188977,
                    "duration": 0.06535933333333244
                },
                {
                    "name": "E5",
                    "midi": 76,
                    "time": 8.039197999999999,
                    "velocity": 0.7244094488188977,
                    "duration": 0.06535933333333332
                },
                {
                    "name": "D5",
                    "midi": 74,
                    "time": 8.137236999999999,
                    "velocity": 0.7244094488188977,
                    "duration": 0.06535933333333332
                },
                {
                    "name": "C5",
                    "midi": 72,
                    "time": 8.235275999999999,
                    "velocity": 0.7244094488188977,
                    "duration": 0.06535933333333332
                },
                {
                    "name": "D5",
                    "midi": 74,
                    "time": 8.333314999999999,
                    "velocity": 0.7244094488188977,
                    "duration": 0.06535933333333332
                },
                {
                    "name": "E5",
                    "midi": 76,
                    "time": 8.431353999999999,
                    "velocity": 0.7244094488188977,
                    "duration": 0.06535933333333332
                },
                {
                    "name": "F5",
                    "midi": 77,
                    "time": 8.529392999999999,
                    "velocity": 0.7244094488188977,
                    "duration": 0.06535933333333332
                },
                {
                    "name": "G5",
                    "midi": 79,
                    "time": 8.627431999999999,
                    "velocity": 0.7244094488188977,
                    "duration": 0.06535933333333332
                },
                {
                    "name": "F5",
                    "midi": 77,
                    "time": 8.725470999999999,
                    "velocity": 0.7244094488188977,
                    "duration": 0.06535933333333332
                },
                {
                    "name": "E5",
                    "midi": 76,
                    "time": 8.823509999999999,
                    "velocity": 0.7244094488188977,
                    "duration": 0.06535933333333332
                },
                {
                    "name": "D5",
                    "midi": 74,
                    "time": 8.921548999999999,
                    "velocity": 0.7244094488188977,
                    "duration": 0.06535933333333332
                },
                {
                    "name": "C#5",
                    "midi": 73,
                    "time": 9.019587999999999,
                    "velocity": 0.7244094488188977,
                    "duration": 0.06535933333333332
                },
                {
                    "name": "E5",
                    "midi": 76,
                    "time": 9.117626999999999,
                    "velocity": 0.7244094488188977,
                    "duration": 0.06535933333333332
                },
                {
                    "name": "A5",
                    "midi": 81,
                    "time": 9.215665999999999,
                    "velocity": 0.7244094488188977,
                    "duration": 0.06535933333333332
                },
                {
                    "name": "G5",
                    "midi": 79,
                    "time": 9.313704999999999,
                    "velocity": 0.7244094488188977,
                    "duration": 0.06535933333333332
                },
                {
                    "name": "F5",
                    "midi": 77,
                    "time": 9.411743999999999,
                    "velocity": 0.7244094488188977,
                    "duration": 0.06535933333333332
                },
                {
                    "name": "E5",
                    "midi": 76,
                    "time": 9.509782999999999,
                    "velocity": 0.7244094488188977,
                    "duration": 0.06535933333333332
                },
                {
                    "name": "D5",
                    "midi": 74,
                    "time": 9.607821999999999,
                    "velocity": 0.7244094488188977,
                    "duration": 0.06535933333333332
                },
                {
                    "name": "C5",
                    "midi": 72,
                    "time": 9.705860999999999,
                    "velocity": 0.7244094488188977,
                    "duration": 0.06535933333333332
                },
                {
                    "name": "B4",
                    "midi": 71,
                    "time": 9.803899999999999,
                    "velocity": 0.7244094488188977,
                    "duration": 0.06535933333333332
                },
                {
                    "name": "D5",
                    "midi": 74,
                    "time": 9.901938999999999,
                    "velocity": 0.7244094488188977,
                    "duration": 0.06535933333333332
                },
                {
                    "name": "G5",
                    "midi": 79,
                    "time": 9.999977999999999,
                    "velocity": 0.7244094488188977,
                    "duration": 0.06535933333333332
                },
                {
                    "name": "F5",
                    "midi": 77,
                    "time": 10.098016999999999,
                    "velocity": 0.7244094488188977,
                    "duration": 0.06535933333333332
                },
                {
                    "name": "E5",
                    "midi": 76,
                    "time": 10.196055999999999,
                    "velocity": 0.7244094488188977,
                    "duration": 0.06535933333333332
                },
                {
                    "name": "D5",
                    "midi": 74,
                    "time": 10.294094999999999,
                    "velocity": 0.7244094488188977,
                    "duration": 0.06535933333333332
                },
                {
                    "name": "C5",
                    "midi": 72,
                    "time": 10.392133999999999,
                    "velocity": 0.7244094488188977,
                    "duration": 0.06535933333333332
                },
                {
                    "name": "B4",
                    "midi": 71,
                    "time": 10.490172999999999,
                    "velocity": 0.7244094488188977,
                    "duration": 0.06535933333333332
                },
                {
                    "name": "A4",
                    "midi": 69,
                    "time": 10.588211999999999,
                    "velocity": 0.7244094488188977,
                    "duration": 0.06535933333333332
                },
                {
                    "name": "D5",
                    "midi": 74,
                    "time": 10.686250999999999,
                    "velocity": 0.7244094488188977,
                    "duration": 0.06535933333333332
                },
                {
                    "name": "E5",
                    "midi": 76,
                    "time": 10.784289999999999,
                    "velocity": 0.7244094488188977,
                    "duration": 0.06535933333333332
                },
                {
                    "name": "D5",
                    "midi": 74,
                    "time": 10.882328999999999,
                    "velocity": 0.7244094488188977,
                    "duration": 0.06535933333333332
                },
                {
                    "name": "C5",
                    "midi": 72,
                    "time": 10.980367999999999,
                    "velocity": 0.7244094488188977,
                    "duration": 0.06535933333333332
                },
                {
                    "name": "B4",
                    "midi": 71,
                    "time": 11.078406999999999,
                    "velocity": 0.7244094488188977,
                    "duration": 0.06535933333333332
                },
                {
                    "name": "A4",
                    "midi": 69,
                    "time": 11.176445999999999,
                    "velocity": 0.7244094488188977,
                    "duration": 0.06535933333333332
                },
                {
                    "name": "G4",
                    "midi": 67,
                    "time": 11.274484999999999,
                    "velocity": 0.7244094488188977,
                    "duration": 0.06535933333333332
                },
                {
                    "name": "F#4",
                    "midi": 66,
                    "time": 11.372523999999999,
                    "velocity": 0.7244094488188977,
                    "duration": 0.06535933333333332
                },
                {
                    "name": "G4",
                    "midi": 67,
                    "time": 11.470562999999999,
                    "velocity": 0.7244094488188977,
                    "duration": 0.06535933333333332
                },
                {
                    "name": "A4",
                    "midi": 69,
                    "time": 11.568601999999998,
                    "velocity": 0.7244094488188977,
                    "duration": 0.06535933333333332
                },
                {
                    "name": "B4",
                    "midi": 71,
                    "time": 11.666640999999998,
                    "velocity": 0.7244094488188977,
                    "duration": 0.06535933333333332
                },
                {
                    "name": "C5",
                    "midi": 72,
                    "time": 11.764679999999998,
                    "velocity": 0.7244094488188977,
                    "duration": 0.06535933333333332
                },
                {
                    "name": "D5",
                    "midi": 74,
                    "time": 11.862718999999998,
                    "velocity": 0.7244094488188977,
                    "duration": 0.06535933333333332
                },
                {
                    "name": "C5",
                    "midi": 72,
                    "time": 11.960757999999998,
                    "velocity": 0.7244094488188977,
                    "duration": 0.06535933333333332
                },
                {
                    "name": "B4",
                    "midi": 71,
                    "time": 12.058796999999998,
                    "velocity": 0.7244094488188977,
                    "duration": 0.06535933333333332
                },
                {
                    "name": "C5",
                    "midi": 72,
                    "time": 12.156835999999998,
                    "velocity": 0.7244094488188977,
                    "duration": 0.06535933333333332
                },
                {
                    "name": "D5",
                    "midi": 74,
                    "time": 12.254874999999998,
                    "velocity": 0.7244094488188977,
                    "duration": 0.06535933333333332
                },
                {
                    "name": "E5",
                    "midi": 76,
                    "time": 12.352913999999998,
                    "velocity": 0.7244094488188977,
                    "duration": 0.06535933333333332
                },
                {
                    "name": "C5",
                    "midi": 72,
                    "time": 12.450952999999998,
                    "velocity": 0.7244094488188977,
                    "duration": 0.06535933333333332
                },
                {
                    "name": "D5",
                    "midi": 74,
                    "time": 12.548991999999998,
                    "velocity": 0.7244094488188977,
                    "duration": 0.06535933333333332
                },
                {
                    "name": "C5",
                    "midi": 72,
                    "time": 12.647030999999998,
                    "velocity": 0.7244094488188977,
                    "duration": 0.06535933333333332
                },
                {
                    "name": "B4",
                    "midi": 71,
                    "time": 12.745069999999998,
                    "velocity": 0.7244094488188977,
                    "duration": 0.06535933333333332
                },
                {
                    "name": "A4",
                    "midi": 69,
                    "time": 12.843108999999998,
                    "velocity": 0.7244094488188977,
                    "duration": 0.06535933333333332
                },
                {
                    "name": "G4",
                    "midi": 67,
                    "time": 12.941147999999998,
                    "velocity": 0.7244094488188977,
                    "duration": 0.06535933333333332
                },
                {
                    "name": "A4",
                    "midi": 69,
                    "time": 13.039186999999998,
                    "velocity": 0.7244094488188977,
                    "duration": 0.06535933333333332
                },
                {
                    "name": "B4",
                    "midi": 71,
                    "time": 13.137225999999998,
                    "velocity": 0.7244094488188977,
                    "duration": 0.06535933333333332
                },
                {
                    "name": "C5",
                    "midi": 72,
                    "time": 13.235264999999998,
                    "velocity": 0.7244094488188977,
                    "duration": 0.06535933333333332
                },
                {
                    "name": "D5",
                    "midi": 74,
                    "time": 13.333303999999998,
                    "velocity": 0.7244094488188977,
                    "duration": 0.06535933333333332
                },
                {
                    "name": "E5",
                    "midi": 76,
                    "time": 13.431342999999998,
                    "velocity": 0.7244094488188977,
                    "duration": 0.06535933333333332
                },
                {
                    "name": "F5",
                    "midi": 77,
                    "time": 13.529381999999998,
                    "velocity": 0.7244094488188977,
                    "duration": 0.06535933333333332
                },
                {
                    "name": "E5",
                    "midi": 76,
                    "time": 13.627420999999998,
                    "velocity": 0.7244094488188977,
                    "duration": 0.06535933333333332
                },
                {
                    "name": "G5",
                    "midi": 79,
                    "time": 13.725459999999998,
                    "velocity": 0.7244094488188977,
                    "duration": 0.06535933333333332
                },
                {
                    "name": "F5",
                    "midi": 77,
                    "time": 13.823498999999998,
                    "velocity": 0.7244094488188977,
                    "duration": 0.06535933333333332
                },
                {
                    "name": "E5",
                    "midi": 76,
                    "time": 13.921537999999998,
                    "velocity": 0.7244094488188977,
                    "duration": 0.06535933333333332
                },
                {
                    "name": "D5",
                    "midi": 74,
                    "time": 14.019576999999998,
                    "velocity": 0.7244094488188977,
                    "duration": 0.06535933333333332
                },
                {
                    "name": "E5",
                    "midi": 76,
                    "time": 14.117615999999998,
                    "velocity": 0.7244094488188977,
                    "duration": 0.06535933333333332
                },
                {
                    "name": "F5",
                    "midi": 77,
                    "time": 14.215654999999998,
                    "velocity": 0.7244094488188977,
                    "duration": 0.06535933333333332
                },
                {
                    "name": "E5",
                    "midi": 76,
                    "time": 14.313693999999998,
                    "velocity": 0.7244094488188977,
                    "duration": 0.06535933333333332
                },
                {
                    "name": "D5",
                    "midi": 74,
                    "time": 14.411732999999998,
                    "velocity": 0.7244094488188977,
                    "duration": 0.06535933333333332
                },
                {
                    "name": "C5",
                    "midi": 72,
                    "time": 14.509771999999998,
                    "velocity": 0.7244094488188977,
                    "duration": 0.06535933333333332
                },
                {
                    "name": "D5",
                    "midi": 74,
                    "time": 14.607810999999998,
                    "velocity": 0.7244094488188977,
                    "duration": 0.06535933333333332
                },
                {
                    "name": "E5",
                    "midi": 76,
                    "time": 14.705849999999998,
                    "velocity": 0.7244094488188977,
                    "duration": 0.06535933333333332
                },
                {
                    "name": "F5",
                    "midi": 77,
                    "time": 14.803888999999998,
                    "velocity": 0.7244094488188977,
                    "duration": 0.06535933333333332
                },
                {
                    "name": "G5",
                    "midi": 79,
                    "time": 14.901927999999998,
                    "velocity": 0.7244094488188977,
                    "duration": 0.06535933333333332
                },
                {
                    "name": "F5",
                    "midi": 77,
                    "time": 14.999966999999998,
                    "velocity": 0.7244094488188977,
                    "duration": 0.06535933333333332
                },
                {
                    "name": "E5",
                    "midi": 76,
                    "time": 15.098005999999998,
                    "velocity": 0.7244094488188977,
                    "duration": 0.06535933333333332
                },
                {
                    "name": "D5",
                    "midi": 74,
                    "time": 15.196044999999998,
                    "velocity": 0.7244094488188977,
                    "duration": 0.06535933333333332
                },
                {
                    "name": "C#5",
                    "midi": 73,
                    "time": 15.294083999999998,
                    "velocity": 0.7244094488188977,
                    "duration": 0.06535933333333332
                },
                {
                    "name": "E5",
                    "midi": 76,
                    "time": 15.392122999999998,
                    "velocity": 0.7244094488188977,
                    "duration": 0.06535933333333332
                },
                {
                    "name": "A5",
                    "midi": 81,
                    "time": 15.490161999999998,
                    "velocity": 0.7244094488188977,
                    "duration": 0.06535933333333332
                },
                {
                    "name": "G5",
                    "midi": 79,
                    "time": 15.588200999999998,
                    "velocity": 0.7244094488188977,
                    "duration": 0.06535933333333332
                },
                {
                    "name": "F5",
                    "midi": 77,
                    "time": 15.686239999999998,
                    "velocity": 0.7244094488188977,
                    "duration": 0.06535933333333332
                },
                {
                    "name": "E5",
                    "midi": 76,
                    "time": 15.784278999999998,
                    "velocity": 0.7244094488188977,
                    "duration": 0.06535933333333332
                },
                {
                    "name": "D5",
                    "midi": 74,
                    "time": 15.882317999999998,
                    "velocity": 0.7244094488188977,
                    "duration": 0.06535933333333332
                },
                {
                    "name": "C5",
                    "midi": 72,
                    "time": 15.980356999999998,
                    "velocity": 0.7244094488188977,
                    "duration": 0.06535933333333332
                },
                {
                    "name": "B4",
                    "midi": 71,
                    "time": 16.078395999999998,
                    "velocity": 0.7244094488188977,
                    "duration": 0.06535933333333332
                },
                {
                    "name": "D5",
                    "midi": 74,
                    "time": 16.176434999999998,
                    "velocity": 0.7244094488188977,
                    "duration": 0.06535933333333332
                },
                {
                    "name": "G5",
                    "midi": 79,
                    "time": 16.274473999999998,
                    "velocity": 0.7244094488188977,
                    "duration": 0.06535933333333332
                },
                {
                    "name": "F5",
                    "midi": 77,
                    "time": 16.372512999999998,
                    "velocity": 0.7244094488188977,
                    "duration": 0.06535933333333332
                },
                {
                    "name": "E5",
                    "midi": 76,
                    "time": 16.470551999999998,
                    "velocity": 0.7244094488188977,
                    "duration": 0.06535933333333332
                },
                {
                    "name": "D5",
                    "midi": 74,
                    "time": 16.568590999999998,
                    "velocity": 0.7244094488188977,
                    "duration": 0.06535933333333332
                },
                {
                    "name": "C5",
                    "midi": 72,
                    "time": 16.666629999999998,
                    "velocity": 0.7244094488188977,
                    "duration": 0.06535933333333332
                },
                {
                    "name": "B4",
                    "midi": 71,
                    "time": 16.764668999999998,
                    "velocity": 0.7244094488188977,
                    "duration": 0.06535933333333332
                },
                {
                    "name": "A4",
                    "midi": 69,
                    "time": 16.862707999999998,
                    "velocity": 0.7244094488188977,
                    "duration": 0.06535933333333332
                },
                {
                    "name": "C5",
                    "midi": 72,
                    "time": 16.960746999999998,
                    "velocity": 0.7244094488188977,
                    "duration": 0.06535933333333332
                },
                {
                    "name": "F5",
                    "midi": 77,
                    "time": 17.058785999999998,
                    "velocity": 0.7244094488188977,
                    "duration": 0.06535933333333332
                },
                {
                    "name": "E5",
                    "midi": 76,
                    "time": 17.156824999999998,
                    "velocity": 0.7244094488188977,
                    "duration": 0.06535933333333332
                },
                {
                    "name": "D5",
                    "midi": 74,
                    "time": 17.254863999999998,
                    "velocity": 0.7244094488188977,
                    "duration": 0.06535933333333332
                },
                {
                    "name": "C5",
                    "midi": 72,
                    "time": 17.352902999999998,
                    "velocity": 0.7244094488188977,
                    "duration": 0.06535933333333332
                },
                {
                    "name": "B4",
                    "midi": 71,
                    "time": 17.450941999999998,
                    "velocity": 0.7244094488188977,
                    "duration": 0.06535933333333332
                },
                {
                    "name": "A4",
                    "midi": 69,
                    "time": 17.548980999999998,
                    "velocity": 0.7244094488188977,
                    "duration": 0.06535933333333332
                },
                {
                    "name": "G#4",
                    "midi": 68,
                    "time": 17.647019999999998,
                    "velocity": 0.7244094488188977,
                    "duration": 0.06535933333333332
                },
                {
                    "name": "B4",
                    "midi": 71,
                    "time": 17.745058999999998,
                    "velocity": 0.7244094488188977,
                    "duration": 0.06535933333333332
                },
                {
                    "name": "E5",
                    "midi": 76,
                    "time": 17.843097999999998,
                    "velocity": 0.7244094488188977,
                    "duration": 0.06535933333333332
                },
                {
                    "name": "D5",
                    "midi": 74,
                    "time": 17.941136999999998,
                    "velocity": 0.7244094488188977,
                    "duration": 0.06535933333333332
                },
                {
                    "name": "C5",
                    "midi": 72,
                    "time": 18.039175999999998,
                    "velocity": 0.7244094488188977,
                    "duration": 0.06535933333333332
                },
                {
                    "name": "B4",
                    "midi": 71,
                    "time": 18.137214999999998,
                    "velocity": 0.7244094488188977,
                    "duration": 0.06535933333333332
                },
                {
                    "name": "A4",
                    "midi": 69,
                    "time": 18.235253999999998,
                    "velocity": 0.7244094488188977,
                    "duration": 0.06535933333333332
                },
                {
                    "name": "G4",
                    "midi": 67,
                    "time": 18.333292999999998,
                    "velocity": 0.7244094488188977,
                    "duration": 0.06535933333333332
                },
                {
                    "name": "F#4",
                    "midi": 66,
                    "time": 18.431331999999998,
                    "velocity": 0.7244094488188977,
                    "duration": 0.06535933333333332
                },
                {
                    "name": "A4",
                    "midi": 69,
                    "time": 18.529370999999998,
                    "velocity": 0.7244094488188977,
                    "duration": 0.06535933333333332
                },
                {
                    "name": "D5",
                    "midi": 74,
                    "time": 18.627409999999998,
                    "velocity": 0.7244094488188977,
                    "duration": 0.06535933333333332
                },
                {
                    "name": "C5",
                    "midi": 72,
                    "time": 18.725448999999998,
                    "velocity": 0.7244094488188977,
                    "duration": 0.06535933333333332
                },
                {
                    "name": "B4",
                    "midi": 71,
                    "time": 18.823487999999998,
                    "velocity": 0.7244094488188977,
                    "duration": 0.06535933333333332
                },
                {
                    "name": "A4",
                    "midi": 69,
                    "time": 18.921526999999998,
                    "velocity": 0.7244094488188977,
                    "duration": 0.06535933333333332
                },
                {
                    "name": "G4",
                    "midi": 67,
                    "time": 19.019565999999998,
                    "velocity": 0.7244094488188977,
                    "duration": 0.06535933333333332
                },
                {
                    "name": "A4",
                    "midi": 69,
                    "time": 19.117604999999998,
                    "velocity": 0.7244094488188977,
                    "duration": 0.06535933333333332
                },
                {
                    "name": "B4",
                    "midi": 71,
                    "time": 19.215643999999998,
                    "velocity": 0.7244094488188977,
                    "duration": 0.06535933333333332
                },
                {
                    "name": "C5",
                    "midi": 72,
                    "time": 19.313682999999997,
                    "velocity": 0.7244094488188977,
                    "duration": 0.06535933333333332
                },
                {
                    "name": "D5",
                    "midi": 74,
                    "time": 19.411721999999997,
                    "velocity": 0.7244094488188977,
                    "duration": 0.06535933333333332
                },
                {
                    "name": "C5",
                    "midi": 72,
                    "time": 19.509760999999997,
                    "velocity": 0.7244094488188977,
                    "duration": 0.06535933333333332
                },
                {
                    "name": "B4",
                    "midi": 71,
                    "time": 19.607799999999997,
                    "velocity": 0.7244094488188977,
                    "duration": 0.06535933333333332
                },
                {
                    "name": "C5",
                    "midi": 72,
                    "time": 19.705838999999997,
                    "velocity": 0.7244094488188977,
                    "duration": 0.06535933333333332
                },
                {
                    "name": "D5",
                    "midi": 74,
                    "time": 19.803877999999997,
                    "velocity": 0.7244094488188977,
                    "duration": 0.06535933333333332
                },
                {
                    "name": "E5",
                    "midi": 76,
                    "time": 19.901916999999997,
                    "velocity": 0.7244094488188977,
                    "duration": 0.06535933333333332
                },
                {
                    "name": "F5",
                    "midi": 77,
                    "time": 19.999955999999997,
                    "velocity": 0.7244094488188977,
                    "duration": 0.06535933333333332
                },
                {
                    "name": "G5",
                    "midi": 79,
                    "time": 20.097994999999997,
                    "velocity": 0.7244094488188977,
                    "duration": 0.06535933333333332
                },
                {
                    "name": "A5",
                    "midi": 81,
                    "time": 20.196033999999997,
                    "velocity": 0.7244094488188977,
                    "duration": 0.06535933333333332
                },
                {
                    "name": "G5",
                    "midi": 79,
                    "time": 20.294072999999997,
                    "velocity": 0.7244094488188977,
                    "duration": 0.06535933333333332
                },
                {
                    "name": "A5",
                    "midi": 81,
                    "time": 20.392111999999997,
                    "velocity": 0.7244094488188977,
                    "duration": 0.06535933333333332
                },
                {
                    "name": "G5",
                    "midi": 79,
                    "time": 20.490150999999997,
                    "velocity": 0.7244094488188977,
                    "duration": 0.06535933333333332
                },
                {
                    "name": "F#5",
                    "midi": 78,
                    "time": 20.588189999999997,
                    "velocity": 0.7244094488188977,
                    "duration": 0.06535933333333332
                },
                {
                    "name": "G5",
                    "midi": 79,
                    "time": 20.686228999999997,
                    "velocity": 0.7244094488188977,
                    "duration": 0.06535933333333332
                },
                {
                    "name": "A5",
                    "midi": 81,
                    "time": 20.784267999999997,
                    "velocity": 0.7244094488188977,
                    "duration": 0.06535933333333332
                },
                {
                    "name": "G5",
                    "midi": 79,
                    "time": 20.882306999999997,
                    "velocity": 0.7244094488188977,
                    "duration": 0.06535933333333332
                },
                {
                    "name": "F5",
                    "midi": 77,
                    "time": 20.980345999999997,
                    "velocity": 0.7244094488188977,
                    "duration": 0.06535933333333332
                },
                {
                    "name": "E5",
                    "midi": 76,
                    "time": 21.078384999999997,
                    "velocity": 0.7244094488188977,
                    "duration": 0.06535933333333332
                },
                {
                    "name": "G5",
                    "midi": 79,
                    "time": 21.176423999999997,
                    "velocity": 0.7244094488188977,
                    "duration": 0.06535933333333332
                },
                {
                    "name": "F5",
                    "midi": 77,
                    "time": 21.274462999999997,
                    "velocity": 0.7244094488188977,
                    "duration": 0.06535933333333332
                },
                {
                    "name": "E5",
                    "midi": 76,
                    "time": 21.372501999999997,
                    "velocity": 0.7244094488188977,
                    "duration": 0.06535933333333332
                },
                {
                    "name": "F5",
                    "midi": 77,
                    "time": 21.470540999999997,
                    "velocity": 0.7244094488188977,
                    "duration": 0.06535933333333332
                },
                {
                    "name": "G5",
                    "midi": 79,
                    "time": 21.568579999999997,
                    "velocity": 0.7244094488188977,
                    "duration": 0.06535933333333332
                },
                {
                    "name": "F5",
                    "midi": 77,
                    "time": 21.666618999999997,
                    "velocity": 0.7244094488188977,
                    "duration": 0.06535933333333332
                },
                {
                    "name": "E5",
                    "midi": 76,
                    "time": 21.764657999999997,
                    "velocity": 0.7244094488188977,
                    "duration": 0.06535933333333332
                },
                {
                    "name": "D5",
                    "midi": 74,
                    "time": 21.862696999999997,
                    "velocity": 0.7244094488188977,
                    "duration": 0.06535933333333332
                },
                {
                    "name": "F5",
                    "midi": 77,
                    "time": 21.960735999999997,
                    "velocity": 0.7244094488188977,
                    "duration": 0.06535933333333332
                },
                {
                    "name": "E5",
                    "midi": 76,
                    "time": 22.058774999999997,
                    "velocity": 0.7244094488188977,
                    "duration": 0.06535933333333332
                },
                {
                    "name": "D#5",
                    "midi": 75,
                    "time": 22.156813999999997,
                    "velocity": 0.7244094488188977,
                    "duration": 0.06535933333333332
                },
                {
                    "name": "E5",
                    "midi": 76,
                    "time": 22.254852999999997,
                    "velocity": 0.7244094488188977,
                    "duration": 0.06535933333333332
                },
                {
                    "name": "F5",
                    "midi": 77,
                    "time": 22.352891999999997,
                    "velocity": 0.7244094488188977,
                    "duration": 0.06535933333333332
                },
                {
                    "name": "E5",
                    "midi": 76,
                    "time": 22.450930999999997,
                    "velocity": 0.7244094488188977,
                    "duration": 0.06535933333333332
                },
                {
                    "name": "D5",
                    "midi": 74,
                    "time": 22.548969999999997,
                    "velocity": 0.7244094488188977,
                    "duration": 0.06535933333333332
                },
                {
                    "name": "C5",
                    "midi": 72,
                    "time": 22.647008999999997,
                    "velocity": 0.7244094488188977,
                    "duration": 0.06535933333333332
                },
                {
                    "name": "E5",
                    "midi": 76,
                    "time": 22.745047999999997,
                    "velocity": 0.7244094488188977,
                    "duration": 0.06535933333333332
                },
                {
                    "name": "D5",
                    "midi": 74,
                    "time": 22.843086999999997,
                    "velocity": 0.7244094488188977,
                    "duration": 0.06535933333333332
                },
                {
                    "name": "C#5",
                    "midi": 73,
                    "time": 22.941125999999997,
                    "velocity": 0.7244094488188977,
                    "duration": 0.06535933333333332
                },
                {
                    "name": "D5",
                    "midi": 74,
                    "time": 23.039164999999997,
                    "velocity": 0.7244094488188977,
                    "duration": 0.06535933333333332
                },
                {
                    "name": "E5",
                    "midi": 76,
                    "time": 23.137203999999997,
                    "velocity": 0.7244094488188977,
                    "duration": 0.06535933333333332
                },
                {
                    "name": "D5",
                    "midi": 74,
                    "time": 23.235242999999997,
                    "velocity": 0.7244094488188977,
                    "duration": 0.06535933333333332
                },
                {
                    "name": "C5",
                    "midi": 72,
                    "time": 23.333281999999997,
                    "velocity": 0.7244094488188977,
                    "duration": 0.06535933333333332
                },
                {
                    "name": "B4",
                    "midi": 71,
                    "time": 23.431320999999997,
                    "velocity": 0.7244094488188977,
                    "duration": 0.06535933333333332
                },
                {
                    "name": "C5",
                    "midi": 72,
                    "time": 23.529359999999997,
                    "velocity": 0.7244094488188977,
                    "duration": 0.06535933333333332
                },
                {
                    "name": "G4",
                    "midi": 67,
                    "time": 23.627398999999997,
                    "velocity": 0.7244094488188977,
                    "duration": 0.06535933333333332
                },
                {
                    "name": "A4",
                    "midi": 69,
                    "time": 23.725437999999997,
                    "velocity": 0.7244094488188977,
                    "duration": 0.06535933333333332
                },
                {
                    "name": "B4",
                    "midi": 71,
                    "time": 23.823476999999997,
                    "velocity": 0.7244094488188977,
                    "duration": 0.06535933333333332
                },
                {
                    "name": "C5",
                    "midi": 72,
                    "time": 23.921515999999997,
                    "velocity": 0.7244094488188977,
                    "duration": 0.06535933333333332
                },
                {
                    "name": "D5",
                    "midi": 74,
                    "time": 24.019554999999997,
                    "velocity": 0.7244094488188977,
                    "duration": 0.06535933333333332
                },
                {
                    "name": "E5",
                    "midi": 76,
                    "time": 24.117593999999997,
                    "velocity": 0.7244094488188977,
                    "duration": 0.06535933333333332
                },
                {
                    "name": "F5",
                    "midi": 77,
                    "time": 24.215632999999997,
                    "velocity": 0.7244094488188977,
                    "duration": 0.06535933333333332
                },
                {
                    "name": "G5",
                    "midi": 79,
                    "time": 24.313671999999997,
                    "velocity": 0.7244094488188977,
                    "duration": 0.06535933333333332
                },
                {
                    "name": "F5",
                    "midi": 77,
                    "time": 24.411710999999997,
                    "velocity": 0.7244094488188977,
                    "duration": 0.06535933333333332
                },
                {
                    "name": "E5",
                    "midi": 76,
                    "time": 24.509749999999997,
                    "velocity": 0.7244094488188977,
                    "duration": 0.06535933333333332
                },
                {
                    "name": "F5",
                    "midi": 77,
                    "time": 24.607788999999997,
                    "velocity": 0.7244094488188977,
                    "duration": 0.06535933333333332
                },
                {
                    "name": "G5",
                    "midi": 79,
                    "time": 24.705827999999997,
                    "velocity": 0.7244094488188977,
                    "duration": 0.06535933333333332
                },
                {
                    "name": "A5",
                    "midi": 81,
                    "time": 24.803866999999997,
                    "velocity": 0.7244094488188977,
                    "duration": 0.06535933333333332
                },
                {
                    "name": "B5",
                    "midi": 83,
                    "time": 24.901905999999997,
                    "velocity": 0.7244094488188977,
                    "duration": 0.06535933333333332
                },
                {
                    "name": "C6",
                    "midi": 84,
                    "time": 24.999944999999997,
                    "velocity": 0.7244094488188977,
                    "duration": 0.06535933333333332
                },
                {
                    "name": "A5",
                    "midi": 81,
                    "time": 25.097983999999997,
                    "velocity": 0.7244094488188977,
                    "duration": 0.06535933333333332
                },
                {
                    "name": "B5",
                    "midi": 83,
                    "time": 25.196022999999997,
                    "velocity": 0.7244094488188977,
                    "duration": 0.06535933333333332
                },
                {
                    "name": "C6",
                    "midi": 84,
                    "time": 25.294061999999997,
                    "velocity": 0.7244094488188977,
                    "duration": 0.06535933333333332
                },
                {
                    "name": "B5",
                    "midi": 83,
                    "time": 25.392100999999997,
                    "velocity": 0.7244094488188977,
                    "duration": 0.06535933333333332
                },
                {
                    "name": "D6",
                    "midi": 86,
                    "time": 25.490139999999997,
                    "velocity": 0.7244094488188977,
                    "duration": 0.06535933333333332
                },
                {
                    "name": "C6",
                    "midi": 84,
                    "time": 25.588178999999997,
                    "velocity": 0.7244094488188977,
                    "duration": 0.06535933333333332
                },
                {
                    "name": "B5",
                    "midi": 83,
                    "time": 25.686217999999997,
                    "velocity": 0.7244094488188977,
                    "duration": 0.06535933333333332
                },
                {
                    "name": "A5",
                    "midi": 81,
                    "time": 25.784256999999997,
                    "velocity": 0.7244094488188977,
                    "duration": 0.06535933333333332
                },
                {
                    "name": "A5",
                    "midi": 81,
                    "time": 25.882295999999997,
                    "velocity": 0.7244094488188977,
                    "duration": 0.06535933333333332
                },
                {
                    "name": "G5",
                    "midi": 79,
                    "time": 25.980334999999997,
                    "velocity": 0.7244094488188977,
                    "duration": 0.06535933333333332
                },
                {
                    "name": "F#5",
                    "midi": 78,
                    "time": 26.078373999999997,
                    "velocity": 0.7244094488188977,
                    "duration": 0.06535933333333332
                },
                {
                    "name": "G5",
                    "midi": 79,
                    "time": 26.176412999999997,
                    "velocity": 0.7244094488188977,
                    "duration": 0.06535933333333332
                },
                {
                    "name": "B5",
                    "midi": 83,
                    "time": 26.274451999999997,
                    "velocity": 0.7244094488188977,
                    "duration": 0.06535933333333332
                },
                {
                    "name": "A5",
                    "midi": 81,
                    "time": 26.372490999999997,
                    "velocity": 0.7244094488188977,
                    "duration": 0.06535933333333332
                },
                {
                    "name": "G5",
                    "midi": 79,
                    "time": 26.470529999999997,
                    "velocity": 0.7244094488188977,
                    "duration": 0.06535933333333332
                },
                {
                    "name": "F5",
                    "midi": 77,
                    "time": 26.568568999999997,
                    "velocity": 0.7244094488188977,
                    "duration": 0.06535933333333332
                },
                {
                    "name": "E5",
                    "midi": 76,
                    "time": 26.666607999999997,
                    "velocity": 0.7244094488188977,
                    "duration": 0.06535933333333332
                },
                {
                    "name": "G4",
                    "midi": 67,
                    "time": 26.764646999999997,
                    "velocity": 0.7244094488188977,
                    "duration": 0.06535933333333332
                },
                {
                    "name": "A4",
                    "midi": 69,
                    "time": 26.862685999999997,
                    "velocity": 0.7244094488188977,
                    "duration": 0.06535933333333332
                },
                {
                    "name": "B4",
                    "midi": 71,
                    "time": 26.960724999999996,
                    "velocity": 0.7244094488188977,
                    "duration": 0.06535933333333332
                },
                {
                    "name": "C5",
                    "midi": 72,
                    "time": 27.058763999999996,
                    "velocity": 0.7244094488188977,
                    "duration": 0.06535933333333332
                },
                {
                    "name": "D5",
                    "midi": 74,
                    "time": 27.156802999999996,
                    "velocity": 0.7244094488188977,
                    "duration": 0.06535933333333332
                },
                {
                    "name": "E5",
                    "midi": 76,
                    "time": 27.254841999999996,
                    "velocity": 0.7244094488188977,
                    "duration": 0.06535933333333332
                },
                {
                    "name": "F5",
                    "midi": 77,
                    "time": 27.352880999999996,
                    "velocity": 0.7244094488188977,
                    "duration": 0.06535933333333332
                },
                {
                    "name": "G5",
                    "midi": 79,
                    "time": 27.450919999999996,
                    "velocity": 0.7244094488188977,
                    "duration": 0.06535933333333332
                },
                {
                    "name": "F5",
                    "midi": 77,
                    "time": 27.548958999999996,
                    "velocity": 0.7244094488188977,
                    "duration": 0.06535933333333332
                },
                {
                    "name": "E5",
                    "midi": 76,
                    "time": 27.646997999999996,
                    "velocity": 0.7244094488188977,
                    "duration": 0.06535933333333332
                },
                {
                    "name": "F5",
                    "midi": 77,
                    "time": 27.745036999999996,
                    "velocity": 0.7244094488188977,
                    "duration": 0.06535933333333332
                },
                {
                    "name": "G5",
                    "midi": 79,
                    "time": 27.843075999999996,
                    "velocity": 0.7244094488188977,
                    "duration": 0.06535933333333332
                },
                {
                    "name": "A5",
                    "midi": 81,
                    "time": 27.941114999999996,
                    "velocity": 0.7244094488188977,
                    "duration": 0.06535933333333332
                },
                {
                    "name": "B5",
                    "midi": 83,
                    "time": 28.039153999999996,
                    "velocity": 0.7244094488188977,
                    "duration": 0.06535933333333332
                },
                {
                    "name": "C6",
                    "midi": 84,
                    "time": 28.137192999999996,
                    "velocity": 0.7244094488188977,
                    "duration": 0.06535933333333332
                },
                {
                    "name": "A5",
                    "midi": 81,
                    "time": 28.235231999999996,
                    "velocity": 0.7244094488188977,
                    "duration": 0.06535933333333332
                },
                {
                    "name": "B5",
                    "midi": 83,
                    "time": 28.333270999999996,
                    "velocity": 0.7244094488188977,
                    "duration": 0.06535933333333332
                },
                {
                    "name": "C6",
                    "midi": 84,
                    "time": 28.431309999999996,
                    "velocity": 0.7244094488188977,
                    "duration": 0.06535933333333332
                },
                {
                    "name": "B5",
                    "midi": 83,
                    "time": 28.529348999999996,
                    "velocity": 0.7244094488188977,
                    "duration": 0.06535933333333332
                },
                {
                    "name": "D6",
                    "midi": 86,
                    "time": 28.627387999999996,
                    "velocity": 0.7244094488188977,
                    "duration": 0.06535933333333332
                },
                {
                    "name": "C6",
                    "midi": 84,
                    "time": 28.725426999999996,
                    "velocity": 0.7244094488188977,
                    "duration": 0.06535933333333332
                },
                {
                    "name": "B5",
                    "midi": 83,
                    "time": 28.823465999999996,
                    "velocity": 0.7244094488188977,
                    "duration": 0.06535933333333332
                },
                {
                    "name": "A5",
                    "midi": 81,
                    "time": 28.921504999999996,
                    "velocity": 0.7244094488188977,
                    "duration": 0.06535933333333332
                },
                {
                    "name": "A5",
                    "midi": 81,
                    "time": 29.019543999999996,
                    "velocity": 0.7244094488188977,
                    "duration": 0.06535933333333332
                },
                {
                    "name": "G5",
                    "midi": 79,
                    "time": 29.117582999999996,
                    "velocity": 0.7244094488188977,
                    "duration": 0.06535933333333332
                },
                {
                    "name": "F#5",
                    "midi": 78,
                    "time": 29.215621999999996,
                    "velocity": 0.7244094488188977,
                    "duration": 0.06535933333333332
                },
                {
                    "name": "G5",
                    "midi": 79,
                    "time": 29.313660999999996,
                    "velocity": 0.7244094488188977,
                    "duration": 0.06535933333333332
                },
                {
                    "name": "B5",
                    "midi": 83,
                    "time": 29.411699999999996,
                    "velocity": 0.7244094488188977,
                    "duration": 0.06535933333333332
                },
                {
                    "name": "A5",
                    "midi": 81,
                    "time": 29.509738999999996,
                    "velocity": 0.7244094488188977,
                    "duration": 0.06535933333333332
                },
                {
                    "name": "G5",
                    "midi": 79,
                    "time": 29.607777999999996,
                    "velocity": 0.7244094488188977,
                    "duration": 0.06535933333333332
                },
                {
                    "name": "F5",
                    "midi": 77,
                    "time": 29.705816999999996,
                    "velocity": 0.7244094488188977,
                    "duration": 0.06535933333333332
                },
                {
                    "name": "E5",
                    "midi": 76,
                    "time": 29.803855999999996,
                    "velocity": 0.7244094488188977,
                    "duration": 0.06535933333333332
                },
                {
                    "name": "G5",
                    "midi": 79,
                    "time": 29.901894999999996,
                    "velocity": 0.7244094488188977,
                    "duration": 0.06535933333333332
                },
                {
                    "name": "F5",
                    "midi": 77,
                    "time": 29.999933999999996,
                    "velocity": 0.7244094488188977,
                    "duration": 0.06535933333333332
                },
                {
                    "name": "E5",
                    "midi": 76,
                    "time": 30.097972999999996,
                    "velocity": 0.7244094488188977,
                    "duration": 0.06535933333333332
                },
                {
                    "name": "F5",
                    "midi": 77,
                    "time": 30.196011999999996,
                    "velocity": 0.7244094488188977,
                    "duration": 0.06535933333333332
                },
                {
                    "name": "G5",
                    "midi": 79,
                    "time": 30.294050999999996,
                    "velocity": 0.7244094488188977,
                    "duration": 0.06535933333333332
                },
                {
                    "name": "A5",
                    "midi": 81,
                    "time": 30.392089999999996,
                    "velocity": 0.7244094488188977,
                    "duration": 0.06535933333333332
                },
                {
                    "name": "B5",
                    "midi": 83,
                    "time": 30.490128999999996,
                    "velocity": 0.7244094488188977,
                    "duration": 0.06535933333333332
                },
                {
                    "name": "C6",
                    "midi": 84,
                    "time": 30.588167999999996,
                    "velocity": 0.7244094488188977,
                    "duration": 0.06535933333333332
                },
                {
                    "name": "B5",
                    "midi": 83,
                    "time": 30.686206999999996,
                    "velocity": 0.7244094488188977,
                    "duration": 0.06535933333333332
                },
                {
                    "name": "C6",
                    "midi": 84,
                    "time": 30.784245999999996,
                    "velocity": 0.7244094488188977,
                    "duration": 0.06535933333333332
                },
                {
                    "name": "B5",
                    "midi": 83,
                    "time": 30.882284999999996,
                    "velocity": 0.7244094488188977,
                    "duration": 0.06535933333333332
                },
                {
                    "name": "D6",
                    "midi": 86,
                    "time": 30.980323999999996,
                    "velocity": 0.7244094488188977,
                    "duration": 0.06535933333333332
                },
                {
                    "name": "C6",
                    "midi": 84,
                    "time": 31.078362999999996,
                    "velocity": 0.7244094488188977,
                    "duration": 0.06535933333333332
                },
                {
                    "name": "B5",
                    "midi": 83,
                    "time": 31.176401999999996,
                    "velocity": 0.7244094488188977,
                    "duration": 0.06535933333333332
                },
                {
                    "name": "A5",
                    "midi": 81,
                    "time": 31.274440999999996,
                    "velocity": 0.7244094488188977,
                    "duration": 0.06535933333333332
                },
                {
                    "name": "G#5",
                    "midi": 80,
                    "time": 31.372479999999996,
                    "velocity": 0.7244094488188977,
                    "duration": 0.06535933333333332
                },
                {
                    "name": "A5",
                    "midi": 81,
                    "time": 31.470518999999996,
                    "velocity": 0.7244094488188977,
                    "duration": 0.06535933333333332
                },
                {
                    "name": "B5",
                    "midi": 83,
                    "time": 31.568557999999996,
                    "velocity": 0.7244094488188977,
                    "duration": 0.06535933333333332
                },
                {
                    "name": "A5",
                    "midi": 81,
                    "time": 31.666596999999996,
                    "velocity": 0.7244094488188977,
                    "duration": 0.06535933333333332
                },
                {
                    "name": "G#5",
                    "midi": 80,
                    "time": 31.764635999999996,
                    "velocity": 0.7244094488188977,
                    "duration": 0.06535933333333332
                },
                {
                    "name": "E5",
                    "midi": 76,
                    "time": 31.862674999999996,
                    "velocity": 0.7244094488188977,
                    "duration": 0.06535933333333332
                },
                {
                    "name": "F#5",
                    "midi": 78,
                    "time": 31.960713999999996,
                    "velocity": 0.7244094488188977,
                    "duration": 0.06535933333333332
                },
                {
                    "name": "G#5",
                    "midi": 80,
                    "time": 32.058752999999996,
                    "velocity": 0.7244094488188977,
                    "duration": 0.06535933333333332
                },
                {
                    "name": "A5",
                    "midi": 81,
                    "time": 32.156791999999996,
                    "velocity": 0.7244094488188977,
                    "duration": 0.06535933333333332
                },
                {
                    "name": "B5",
                    "midi": 83,
                    "time": 32.254830999999996,
                    "velocity": 0.7244094488188977,
                    "duration": 0.06535933333333332
                },
                {
                    "name": "C6",
                    "midi": 84,
                    "time": 32.352869999999996,
                    "velocity": 0.7244094488188977,
                    "duration": 0.06535933333333332
                },
                {
                    "name": "B5",
                    "midi": 83,
                    "time": 32.450908999999996,
                    "velocity": 0.7244094488188977,
                    "duration": 0.06535933333333332
                },
                {
                    "name": "C6",
                    "midi": 84,
                    "time": 32.548947999999996,
                    "velocity": 0.7244094488188977,
                    "duration": 0.06535933333333332
                },
                {
                    "name": "B5",
                    "midi": 83,
                    "time": 32.646986999999996,
                    "velocity": 0.7244094488188977,
                    "duration": 0.06535933333333332
                },
                {
                    "name": "A5",
                    "midi": 81,
                    "time": 32.745025999999996,
                    "velocity": 0.7244094488188977,
                    "duration": 0.06535933333333332
                },
                {
                    "name": "G5",
                    "midi": 79,
                    "time": 32.843064999999996,
                    "velocity": 0.7244094488188977,
                    "duration": 0.06535933333333332
                },
                {
                    "name": "F#5",
                    "midi": 78,
                    "time": 32.941103999999996,
                    "velocity": 0.7244094488188977,
                    "duration": 0.06535933333333332
                },
                {
                    "name": "G5",
                    "midi": 79,
                    "time": 33.039142999999996,
                    "velocity": 0.7244094488188977,
                    "duration": 0.06535933333333332
                },
                {
                    "name": "A5",
                    "midi": 81,
                    "time": 33.137181999999996,
                    "velocity": 0.7244094488188977,
                    "duration": 0.06535933333333332
                },
                {
                    "name": "G5",
                    "midi": 79,
                    "time": 33.235220999999996,
                    "velocity": 0.7244094488188977,
                    "duration": 0.06535933333333332
                },
                {
                    "name": "F#5",
                    "midi": 78,
                    "time": 33.333259999999996,
                    "velocity": 0.7244094488188977,
                    "duration": 0.06535933333333332
                },
                {
                    "name": "D5",
                    "midi": 74,
                    "time": 33.431298999999996,
                    "velocity": 0.7244094488188977,
                    "duration": 0.06535933333333332
                },
                {
                    "name": "E5",
                    "midi": 76,
                    "time": 33.529337999999996,
                    "velocity": 0.7244094488188977,
                    "duration": 0.06535933333333332
                },
                {
                    "name": "F#5",
                    "midi": 78,
                    "time": 33.627376999999996,
                    "velocity": 0.7244094488188977,
                    "duration": 0.06535933333333332
                },
                {
                    "name": "G5",
                    "midi": 79,
                    "time": 33.725415999999996,
                    "velocity": 0.7244094488188977,
                    "duration": 0.06535933333333332
                },
                {
                    "name": "F#5",
                    "midi": 78,
                    "time": 33.823454999999996,
                    "velocity": 0.7244094488188977,
                    "duration": 0.06535933333333332
                },
                {
                    "name": "G5",
                    "midi": 79,
                    "time": 33.921493999999996,
                    "velocity": 0.7244094488188977,
                    "duration": 0.06535933333333332
                },
                {
                    "name": "A5",
                    "midi": 81,
                    "time": 34.019532999999996,
                    "velocity": 0.7244094488188977,
                    "duration": 0.06535933333333332
                },
                {
                    "name": "B5",
                    "midi": 83,
                    "time": 34.117571999999996,
                    "velocity": 0.7244094488188977,
                    "duration": 0.06535933333333332
                },
                {
                    "name": "A5",
                    "midi": 81,
                    "time": 34.215610999999996,
                    "velocity": 0.7244094488188977,
                    "duration": 0.06535933333333332
                },
                {
                    "name": "G5",
                    "midi": 79,
                    "time": 34.313649999999996,
                    "velocity": 0.7244094488188977,
                    "duration": 0.06535933333333332
                },
                {
                    "name": "F#5",
                    "midi": 78,
                    "time": 34.411688999999996,
                    "velocity": 0.7244094488188977,
                    "duration": 0.06535933333333332
                },
                {
                    "name": "G5",
                    "midi": 79,
                    "time": 34.509727999999996,
                    "velocity": 0.7244094488188977,
                    "duration": 0.06535933333333332
                },
                {
                    "name": "F#5",
                    "midi": 78,
                    "time": 34.607766999999996,
                    "velocity": 0.7244094488188977,
                    "duration": 0.06535933333333332
                },
                {
                    "name": "E5",
                    "midi": 76,
                    "time": 34.705805999999995,
                    "velocity": 0.7244094488188977,
                    "duration": 0.06535933333333332
                },
                {
                    "name": "D#5",
                    "midi": 75,
                    "time": 34.803844999999995,
                    "velocity": 0.7244094488188977,
                    "duration": 0.06535933333333332
                },
                {
                    "name": "E5",
                    "midi": 76,
                    "time": 34.901883999999995,
                    "velocity": 0.7244094488188977,
                    "duration": 0.06535933333333332
                },
                {
                    "name": "F#5",
                    "midi": 78,
                    "time": 34.999922999999995,
                    "velocity": 0.7244094488188977,
                    "duration": 0.06535933333333332
                },
                {
                    "name": "G5",
                    "midi": 79,
                    "time": 35.097961999999995,
                    "velocity": 0.7244094488188977,
                    "duration": 0.06535933333333332
                },
                {
                    "name": "F#5",
                    "midi": 78,
                    "time": 35.196000999999995,
                    "velocity": 0.7244094488188977,
                    "duration": 0.06535933333333332
                },
                {
                    "name": "A5",
                    "midi": 81,
                    "time": 35.294039999999995,
                    "velocity": 0.7244094488188977,
                    "duration": 0.06535933333333332
                },
                {
                    "name": "G5",
                    "midi": 79,
                    "time": 35.392078999999995,
                    "velocity": 0.7244094488188977,
                    "duration": 0.06535933333333332
                },
                {
                    "name": "F#5",
                    "midi": 78,
                    "time": 35.490117999999995,
                    "velocity": 0.7244094488188977,
                    "duration": 0.06535933333333332
                },
                {
                    "name": "E5",
                    "midi": 76,
                    "time": 35.588156999999995,
                    "velocity": 0.7244094488188977,
                    "duration": 0.06535933333333332
                },
                {
                    "name": "D5",
                    "midi": 74,
                    "time": 35.686195999999995,
                    "velocity": 0.7244094488188977,
                    "duration": 0.06535933333333332
                },
                {
                    "name": "C#5",
                    "midi": 73,
                    "time": 35.784234999999995,
                    "velocity": 0.7244094488188977,
                    "duration": 0.06535933333333332
                },
                {
                    "name": "B4",
                    "midi": 71,
                    "time": 35.882273999999995,
                    "velocity": 0.7244094488188977,
                    "duration": 0.06535933333333332
                },
                {
                    "name": "C#5",
                    "midi": 73,
                    "time": 35.980312999999995,
                    "velocity": 0.7244094488188977,
                    "duration": 0.06535933333333332
                },
                {
                    "name": "D5",
                    "midi": 74,
                    "time": 36.078351999999995,
                    "velocity": 0.7244094488188977,
                    "duration": 0.06535933333333332
                },
                {
                    "name": "D4",
                    "midi": 62,
                    "time": 36.176390999999995,
                    "velocity": 0.7244094488188977,
                    "duration": 0.06535933333333332
                },
                {
                    "name": "E4",
                    "midi": 64,
                    "time": 36.274429999999995,
                    "velocity": 0.7244094488188977,
                    "duration": 0.06535933333333332
                },
                {
                    "name": "F#4",
                    "midi": 66,
                    "time": 36.372468999999995,
                    "velocity": 0.7244094488188977,
                    "duration": 0.06535933333333332
                },
                {
                    "name": "G4",
                    "midi": 67,
                    "time": 36.470507999999995,
                    "velocity": 0.7244094488188977,
                    "duration": 0.06535933333333332
                },
                {
                    "name": "A4",
                    "midi": 69,
                    "time": 36.568546999999995,
                    "velocity": 0.7244094488188977,
                    "duration": 0.06535933333333332
                },
                {
                    "name": "B4",
                    "midi": 71,
                    "time": 36.666585999999995,
                    "velocity": 0.7244094488188977,
                    "duration": 0.06535933333333332
                },
                {
                    "name": "C#5",
                    "midi": 73,
                    "time": 36.764624999999995,
                    "velocity": 0.7244094488188977,
                    "duration": 0.06535933333333332
                },
                {
                    "name": "D5",
                    "midi": 74,
                    "time": 36.862663999999995,
                    "velocity": 0.7244094488188977,
                    "duration": 0.06535933333333332
                },
                {
                    "name": "E5",
                    "midi": 76,
                    "time": 36.960702999999995,
                    "velocity": 0.7244094488188977,
                    "duration": 0.06535933333333332
                },
                {
                    "name": "F#5",
                    "midi": 78,
                    "time": 37.058741999999995,
                    "velocity": 0.7244094488188977,
                    "duration": 0.06535933333333332
                },
                {
                    "name": "G5",
                    "midi": 79,
                    "time": 37.156780999999995,
                    "velocity": 0.7244094488188977,
                    "duration": 0.06535933333333332
                },
                {
                    "name": "A5",
                    "midi": 81,
                    "time": 37.254819999999995,
                    "velocity": 0.7244094488188977,
                    "duration": 0.06535933333333332
                },
                {
                    "name": "B5",
                    "midi": 83,
                    "time": 37.352858999999995,
                    "velocity": 0.7244094488188977,
                    "duration": 0.06535933333333332
                },
                {
                    "name": "C6",
                    "midi": 84,
                    "time": 37.450897999999995,
                    "velocity": 0.7244094488188977,
                    "duration": 0.06535933333333332
                },
                {
                    "name": "D6",
                    "midi": 86,
                    "time": 37.548936999999995,
                    "velocity": 0.7244094488188977,
                    "duration": 0.06535933333333332
                },
                {
                    "name": "C6",
                    "midi": 84,
                    "time": 37.646975999999995,
                    "velocity": 0.7244094488188977,
                    "duration": 0.06535933333333332
                },
                {
                    "name": "B5",
                    "midi": 83,
                    "time": 37.745014999999995,
                    "velocity": 0.7244094488188977,
                    "duration": 0.06535933333333332
                },
                {
                    "name": "D6",
                    "midi": 86,
                    "time": 37.843053999999995,
                    "velocity": 0.7244094488188977,
                    "duration": 0.06535933333333332
                },
                {
                    "name": "B5",
                    "midi": 83,
                    "time": 37.941092999999995,
                    "velocity": 0.7244094488188977,
                    "duration": 0.06535933333333332
                },
                {
                    "name": "A5",
                    "midi": 81,
                    "time": 38.039131999999995,
                    "velocity": 0.7244094488188977,
                    "duration": 0.06535933333333332
                },
                {
                    "name": "G5",
                    "midi": 79,
                    "time": 38.137170999999995,
                    "velocity": 0.7244094488188977,
                    "duration": 0.06535933333333332
                },
                {
                    "name": "B5",
                    "midi": 83,
                    "time": 38.235209999999995,
                    "velocity": 0.7244094488188977,
                    "duration": 0.06535933333333332
                },
                {
                    "name": "G5",
                    "midi": 79,
                    "time": 38.333248999999995,
                    "velocity": 0.7244094488188977,
                    "duration": 0.06535933333333332
                },
                {
                    "name": "F#5",
                    "midi": 78,
                    "time": 38.431287999999995,
                    "velocity": 0.7244094488188977,
                    "duration": 0.06535933333333332
                },
                {
                    "name": "E5",
                    "midi": 76,
                    "time": 38.529326999999995,
                    "velocity": 0.7244094488188977,
                    "duration": 0.06535933333333332
                },
                {
                    "name": "G5",
                    "midi": 79,
                    "time": 38.627365999999995,
                    "velocity": 0.7244094488188977,
                    "duration": 0.06535933333333332
                },
                {
                    "name": "E5",
                    "midi": 76,
                    "time": 38.725404999999995,
                    "velocity": 0.7244094488188977,
                    "duration": 0.06535933333333332
                },
                {
                    "name": "D5",
                    "midi": 74,
                    "time": 38.823443999999995,
                    "velocity": 0.7244094488188977,
                    "duration": 0.06535933333333332
                },
                {
                    "name": "C#5",
                    "midi": 73,
                    "time": 38.921482999999995,
                    "velocity": 0.7244094488188977,
                    "duration": 0.06535933333333332
                },
                {
                    "name": "E5",
                    "midi": 76,
                    "time": 39.019521999999995,
                    "velocity": 0.7244094488188977,
                    "duration": 0.06535933333333332
                },
                {
                    "name": "C#5",
                    "midi": 73,
                    "time": 39.117560999999995,
                    "velocity": 0.7244094488188977,
                    "duration": 0.06535933333333332
                },
                {
                    "name": "D5",
                    "midi": 74,
                    "time": 39.215599999999995,
                    "velocity": 0.7244094488188977,
                    "duration": 0.06535933333333332
                },
                {
                    "name": "D4",
                    "midi": 62,
                    "time": 39.313638999999995,
                    "velocity": 0.7244094488188977,
                    "duration": 0.06535933333333332
                },
                {
                    "name": "E4",
                    "midi": 64,
                    "time": 39.411677999999995,
                    "velocity": 0.7244094488188977,
                    "duration": 0.06535933333333332
                },
                {
                    "name": "F#4",
                    "midi": 66,
                    "time": 39.509716999999995,
                    "velocity": 0.7244094488188977,
                    "duration": 0.06535933333333332
                },
                {
                    "name": "G4",
                    "midi": 67,
                    "time": 39.607755999999995,
                    "velocity": 0.7244094488188977,
                    "duration": 0.06535933333333332
                },
                {
                    "name": "A4",
                    "midi": 69,
                    "time": 39.705794999999995,
                    "velocity": 0.7244094488188977,
                    "duration": 0.06535933333333332
                },
                {
                    "name": "B4",
                    "midi": 71,
                    "time": 39.803833999999995,
                    "velocity": 0.7244094488188977,
                    "duration": 0.06535933333333332
                },
                {
                    "name": "C#5",
                    "midi": 73,
                    "time": 39.901872999999995,
                    "velocity": 0.7244094488188977,
                    "duration": 0.06535933333333332
                },
                {
                    "name": "D5",
                    "midi": 74,
                    "time": 39.999911999999995,
                    "velocity": 0.7244094488188977,
                    "duration": 0.06535933333333332
                },
                {
                    "name": "E5",
                    "midi": 76,
                    "time": 40.097950999999995,
                    "velocity": 0.7244094488188977,
                    "duration": 0.06535933333333332
                },
                {
                    "name": "F#5",
                    "midi": 78,
                    "time": 40.195989999999995,
                    "velocity": 0.7244094488188977,
                    "duration": 0.06535933333333332
                },
                {
                    "name": "G5",
                    "midi": 79,
                    "time": 40.294028999999995,
                    "velocity": 0.7244094488188977,
                    "duration": 0.06535933333333332
                },
                {
                    "name": "A5",
                    "midi": 81,
                    "time": 40.392067999999995,
                    "velocity": 0.7244094488188977,
                    "duration": 0.06535933333333332
                },
                {
                    "name": "F#5",
                    "midi": 78,
                    "time": 40.490106999999995,
                    "velocity": 0.7244094488188977,
                    "duration": 0.06535933333333332
                },
                {
                    "name": "D5",
                    "midi": 74,
                    "time": 40.588145999999995,
                    "velocity": 0.7244094488188977,
                    "duration": 0.06535933333333332
                },
                {
                    "name": "C5",
                    "midi": 72,
                    "time": 40.686184999999995,
                    "velocity": 0.7244094488188977,
                    "duration": 0.06535933333333332
                },
                {
                    "name": "C5",
                    "midi": 72,
                    "time": 40.784223999999995,
                    "velocity": 0.7244094488188977,
                    "duration": 0.06535933333333332
                },
                {
                    "name": "B4",
                    "midi": 71,
                    "time": 40.882262999999995,
                    "velocity": 0.7244094488188977,
                    "duration": 0.06535933333333332
                },
                {
                    "name": "D5",
                    "midi": 74,
                    "time": 40.980301999999995,
                    "velocity": 0.7244094488188977,
                    "duration": 0.06535933333333332
                },
                {
                    "name": "B4",
                    "midi": 71,
                    "time": 41.078340999999995,
                    "velocity": 0.7244094488188977,
                    "duration": 0.06535933333333332
                },
                {
                    "name": "A4",
                    "midi": 69,
                    "time": 41.176379999999995,
                    "velocity": 0.7244094488188977,
                    "duration": 0.06535933333333332
                },
                {
                    "name": "G4",
                    "midi": 67,
                    "time": 41.274418999999995,
                    "velocity": 0.7244094488188977,
                    "duration": 0.06535933333333332
                },
                {
                    "name": "B4",
                    "midi": 71,
                    "time": 41.372457999999995,
                    "velocity": 0.7244094488188977,
                    "duration": 0.06535933333333332
                },
                {
                    "name": "G4",
                    "midi": 67,
                    "time": 41.470496999999995,
                    "velocity": 0.7244094488188977,
                    "duration": 0.06535933333333332
                },
                {
                    "name": "F#4",
                    "midi": 66,
                    "time": 41.568535999999995,
                    "velocity": 0.7244094488188977,
                    "duration": 0.06535933333333332
                },
                {
                    "name": "E4",
                    "midi": 64,
                    "time": 41.666574999999995,
                    "velocity": 0.7244094488188977,
                    "duration": 0.06535933333333332
                },
                {
                    "name": "G4",
                    "midi": 67,
                    "time": 41.764613999999995,
                    "velocity": 0.7244094488188977,
                    "duration": 0.06535933333333332
                },
                {
                    "name": "E4",
                    "midi": 64,
                    "time": 41.862652999999995,
                    "velocity": 0.7244094488188977,
                    "duration": 0.06535933333333332
                },
                {
                    "name": "D4",
                    "midi": 62,
                    "time": 41.960691999999995,
                    "velocity": 0.7244094488188977,
                    "duration": 0.06535933333333332
                },
                {
                    "name": "C#4",
                    "midi": 61,
                    "time": 42.058730999999995,
                    "velocity": 0.7244094488188977,
                    "duration": 0.06535933333333332
                },
                {
                    "name": "E4",
                    "midi": 64,
                    "time": 42.156769999999995,
                    "velocity": 0.7244094488188977,
                    "duration": 0.06535933333333332
                },
                {
                    "name": "C#4",
                    "midi": 61,
                    "time": 42.254808999999995,
                    "velocity": 0.7244094488188977,
                    "duration": 0.06535933333333332
                },
                {
                    "name": "D4",
                    "midi": 62,
                    "time": 42.352847999999994,
                    "velocity": 0.7244094488188977,
                    "duration": 0.06535933333333332
                },
                {
                    "name": "F#4",
                    "midi": 66,
                    "time": 42.450886999999994,
                    "velocity": 0.7244094488188977,
                    "duration": 0.06535933333333332
                },
                {
                    "name": "A4",
                    "midi": 69,
                    "time": 42.548925999999994,
                    "velocity": 0.7244094488188977,
                    "duration": 0.06535933333333332
                },
                {
                    "name": "D5",
                    "midi": 74,
                    "time": 42.646964999999994,
                    "velocity": 0.7244094488188977,
                    "duration": 0.06535933333333332
                },
                {
                    "name": "C#5",
                    "midi": 73,
                    "time": 42.745003999999994,
                    "velocity": 0.7244094488188977,
                    "duration": 0.06535933333333332
                },
                {
                    "name": "E5",
                    "midi": 76,
                    "time": 42.843042999999994,
                    "velocity": 0.7244094488188977,
                    "duration": 0.06535933333333332
                },
                {
                    "name": "A5",
                    "midi": 81,
                    "time": 42.941081999999994,
                    "velocity": 0.7244094488188977,
                    "duration": 0.06535933333333332
                },
                {
                    "name": "G5",
                    "midi": 79,
                    "time": 43.039120999999994,
                    "velocity": 0.7244094488188977,
                    "duration": 0.06535933333333332
                },
                {
                    "name": "F#5",
                    "midi": 78,
                    "time": 43.137159999999994,
                    "velocity": 0.7244094488188977,
                    "duration": 0.06535933333333332
                },
                {
                    "name": "A5",
                    "midi": 81,
                    "time": 43.235198999999994,
                    "velocity": 0.7244094488188977,
                    "duration": 0.06535933333333332
                },
                {
                    "name": "F#5",
                    "midi": 78,
                    "time": 43.333237999999994,
                    "velocity": 0.7244094488188977,
                    "duration": 0.06535933333333332
                },
                {
                    "name": "D5",
                    "midi": 74,
                    "time": 43.431276999999994,
                    "velocity": 0.7244094488188977,
                    "duration": 0.06535933333333332
                },
                {
                    "name": "C#5",
                    "midi": 73,
                    "time": 43.529315999999994,
                    "velocity": 0.7244094488188977,
                    "duration": 0.06535933333333332
                },
                {
                    "name": "A4",
                    "midi": 69,
                    "time": 43.627354999999994,
                    "velocity": 0.7244094488188977,
                    "duration": 0.06535933333333332
                },
                {
                    "name": "G4",
                    "midi": 67,
                    "time": 43.725393999999994,
                    "velocity": 0.7244094488188977,
                    "duration": 0.06535933333333332
                },
                {
                    "name": "E4",
                    "midi": 64,
                    "time": 43.823432999999994,
                    "velocity": 0.7244094488188977,
                    "duration": 0.06535933333333332
                },
                {
                    "name": "D4",
                    "midi": 62,
                    "time": 43.921471999999994,
                    "velocity": 0.7244094488188977,
                    "duration": 0.06535933333333332
                },
                {
                    "name": "F#4",
                    "midi": 66,
                    "time": 44.019510999999994,
                    "velocity": 0.7244094488188977,
                    "duration": 0.06535933333333332
                },
                {
                    "name": "A4",
                    "midi": 69,
                    "time": 44.117549999999994,
                    "velocity": 0.7244094488188977,
                    "duration": 0.06535933333333332
                },
                {
                    "name": "D5",
                    "midi": 74,
                    "time": 44.215588999999994,
                    "velocity": 0.7244094488188977,
                    "duration": 0.06535933333333332
                },
                {
                    "name": "C#5",
                    "midi": 73,
                    "time": 44.313627999999994,
                    "velocity": 0.7244094488188977,
                    "duration": 0.06535933333333332
                },
                {
                    "name": "E5",
                    "midi": 76,
                    "time": 44.411666999999994,
                    "velocity": 0.7244094488188977,
                    "duration": 0.06535933333333332
                },
                {
                    "name": "A5",
                    "midi": 81,
                    "time": 44.509705999999994,
                    "velocity": 0.7244094488188977,
                    "duration": 0.06535933333333332
                },
                {
                    "name": "G5",
                    "midi": 79,
                    "time": 44.607744999999994,
                    "velocity": 0.7244094488188977,
                    "duration": 0.06535933333333332
                },
                {
                    "name": "F#5",
                    "midi": 78,
                    "time": 44.705783999999994,
                    "velocity": 0.7244094488188977,
                    "duration": 0.06535933333333332
                },
                {
                    "name": "A5",
                    "midi": 81,
                    "time": 44.803822999999994,
                    "velocity": 0.7244094488188977,
                    "duration": 0.06535933333333332
                },
                {
                    "name": "F#5",
                    "midi": 78,
                    "time": 44.901861999999994,
                    "velocity": 0.7244094488188977,
                    "duration": 0.06535933333333332
                },
                {
                    "name": "D5",
                    "midi": 74,
                    "time": 44.999900999999994,
                    "velocity": 0.7244094488188977,
                    "duration": 0.06535933333333332
                },
                {
                    "name": "C#5",
                    "midi": 73,
                    "time": 45.097939999999994,
                    "velocity": 0.7244094488188977,
                    "duration": 0.06535933333333332
                },
                {
                    "name": "A4",
                    "midi": 69,
                    "time": 45.195978999999994,
                    "velocity": 0.7244094488188977,
                    "duration": 0.06535933333333332
                },
                {
                    "name": "G4",
                    "midi": 67,
                    "time": 45.294017999999994,
                    "velocity": 0.7244094488188977,
                    "duration": 0.06535933333333332
                },
                {
                    "name": "E4",
                    "midi": 64,
                    "time": 45.392056999999994,
                    "velocity": 0.7244094488188977,
                    "duration": 0.06535933333333332
                },
                {
                    "name": "D4",
                    "midi": 62,
                    "time": 45.490095999999994,
                    "velocity": 0.7244094488188977,
                    "duration": 0.06535933333333332
                },
                {
                    "name": "F#4",
                    "midi": 66,
                    "time": 45.588134999999994,
                    "velocity": 0.7244094488188977,
                    "duration": 0.06535933333333332
                },
                {
                    "name": "A4",
                    "midi": 69,
                    "time": 45.686173999999994,
                    "velocity": 0.7244094488188977,
                    "duration": 0.06535933333333332
                },
                {
                    "name": "D5",
                    "midi": 74,
                    "time": 45.784212999999994,
                    "velocity": 0.7244094488188977,
                    "duration": 0.06535933333333332
                },
                {
                    "name": "F#5",
                    "midi": 78,
                    "time": 45.882251999999994,
                    "velocity": 0.7244094488188977,
                    "duration": 0.06535933333333332
                },
                {
                    "name": "A5",
                    "midi": 81,
                    "time": 45.980290999999994,
                    "velocity": 0.7244094488188977,
                    "duration": 0.06535933333333332
                },
                {
                    "name": "C#6",
                    "midi": 85,
                    "time": 46.078329999999994,
                    "velocity": 0.7244094488188977,
                    "duration": 0.06535933333333332
                },
                {
                    "name": "D6",
                    "midi": 86,
                    "time": 46.176368999999994,
                    "velocity": 0.7244094488188977,
                    "duration": 0.06535933333333332
                },
                {
                    "name": "C6",
                    "midi": 84,
                    "time": 46.274407999999994,
                    "velocity": 0.7244094488188977,
                    "duration": 0.06535933333333332
                },
                {
                    "name": "B5",
                    "midi": 83,
                    "time": 46.372446999999994,
                    "velocity": 0.7244094488188977,
                    "duration": 0.06535933333333332
                },
                {
                    "name": "A5",
                    "midi": 81,
                    "time": 46.470485999999994,
                    "velocity": 0.7244094488188977,
                    "duration": 0.06535933333333332
                },
                {
                    "name": "G5",
                    "midi": 79,
                    "time": 46.568524999999994,
                    "velocity": 0.7244094488188977,
                    "duration": 0.06535933333333332
                },
                {
                    "name": "F#5",
                    "midi": 78,
                    "time": 46.666563999999994,
                    "velocity": 0.7244094488188977,
                    "duration": 0.06535933333333332
                },
                {
                    "name": "E5",
                    "midi": 76,
                    "time": 46.764602999999994,
                    "velocity": 0.7244094488188977,
                    "duration": 0.06535933333333332
                },
                {
                    "name": "D5",
                    "midi": 74,
                    "time": 46.862641999999994,
                    "velocity": 0.7244094488188977,
                    "duration": 0.06535933333333332
                },
                {
                    "name": "C5",
                    "midi": 72,
                    "time": 46.960680999999994,
                    "velocity": 0.7244094488188977,
                    "duration": 0.06535933333333332
                },
                {
                    "name": "B4",
                    "midi": 71,
                    "time": 47.058719999999994,
                    "velocity": 0.7244094488188977,
                    "duration": 0.06535933333333332
                },
                {
                    "name": "C5",
                    "midi": 72,
                    "time": 47.156758999999994,
                    "velocity": 0.7244094488188977,
                    "duration": 0.06535933333333332
                },
                {
                    "name": "D5",
                    "midi": 74,
                    "time": 47.254797999999994,
                    "velocity": 0.7244094488188977,
                    "duration": 0.06535933333333332
                },
                {
                    "name": "E5",
                    "midi": 76,
                    "time": 47.352836999999994,
                    "velocity": 0.7244094488188977,
                    "duration": 0.06535933333333332
                },
                {
                    "name": "F#5",
                    "midi": 78,
                    "time": 47.450875999999994,
                    "velocity": 0.7244094488188977,
                    "duration": 0.06535933333333332
                },
                {
                    "name": "G5",
                    "midi": 79,
                    "time": 47.548914999999994,
                    "velocity": 0.7244094488188977,
                    "duration": 0.06535933333333332
                },
                {
                    "name": "A5",
                    "midi": 81,
                    "time": 47.646953999999994,
                    "velocity": 0.7244094488188977,
                    "duration": 0.06535933333333332
                },
                {
                    "name": "B5",
                    "midi": 83,
                    "time": 47.744992999999994,
                    "velocity": 0.7244094488188977,
                    "duration": 0.06535933333333332
                },
                {
                    "name": "A5",
                    "midi": 81,
                    "time": 47.843031999999994,
                    "velocity": 0.7244094488188977,
                    "duration": 0.06535933333333332
                },
                {
                    "name": "G5",
                    "midi": 79,
                    "time": 47.941070999999994,
                    "velocity": 0.7244094488188977,
                    "duration": 0.06535933333333332
                },
                {
                    "name": "F5",
                    "midi": 77,
                    "time": 48.039109999999994,
                    "velocity": 0.7244094488188977,
                    "duration": 0.06535933333333332
                },
                {
                    "name": "E5",
                    "midi": 76,
                    "time": 48.137148999999994,
                    "velocity": 0.7244094488188977,
                    "duration": 0.06535933333333332
                },
                {
                    "name": "D#5",
                    "midi": 75,
                    "time": 48.235187999999994,
                    "velocity": 0.7244094488188977,
                    "duration": 0.06535933333333332
                },
                {
                    "name": "C5",
                    "midi": 72,
                    "time": 48.333226999999994,
                    "velocity": 0.7244094488188977,
                    "duration": 0.06535933333333332
                },
                {
                    "name": "B4",
                    "midi": 71,
                    "time": 48.431265999999994,
                    "velocity": 0.7244094488188977,
                    "duration": 0.06535933333333332
                },
                {
                    "name": "A4",
                    "midi": 69,
                    "time": 48.529304999999994,
                    "velocity": 0.7244094488188977,
                    "duration": 0.06535933333333332
                },
                {
                    "name": "G4",
                    "midi": 67,
                    "time": 48.627343999999994,
                    "velocity": 0.7244094488188977,
                    "duration": 0.06535933333333332
                },
                {
                    "name": "A4",
                    "midi": 69,
                    "time": 48.725382999999994,
                    "velocity": 0.7244094488188977,
                    "duration": 0.06535933333333332
                },
                {
                    "name": "B4",
                    "midi": 71,
                    "time": 48.823421999999994,
                    "velocity": 0.7244094488188977,
                    "duration": 0.06535933333333332
                },
                {
                    "name": "C#5",
                    "midi": 73,
                    "time": 48.921460999999994,
                    "velocity": 0.7244094488188977,
                    "duration": 0.06535933333333332
                },
                {
                    "name": "D#5",
                    "midi": 75,
                    "time": 49.019499999999994,
                    "velocity": 0.7244094488188977,
                    "duration": 0.06535933333333332
                },
                {
                    "name": "E5",
                    "midi": 76,
                    "time": 49.117538999999994,
                    "velocity": 0.7244094488188977,
                    "duration": 0.06535933333333332
                },
                {
                    "name": "F#5",
                    "midi": 78,
                    "time": 49.215577999999994,
                    "velocity": 0.7244094488188977,
                    "duration": 0.06535933333333332
                },
                {
                    "name": "G5",
                    "midi": 79,
                    "time": 49.313616999999994,
                    "velocity": 0.7244094488188977,
                    "duration": 0.06535933333333332
                },
                {
                    "name": "F5",
                    "midi": 77,
                    "time": 49.411655999999994,
                    "velocity": 0.7244094488188977,
                    "duration": 0.06535933333333332
                },
                {
                    "name": "E5",
                    "midi": 76,
                    "time": 49.509694999999994,
                    "velocity": 0.7244094488188977,
                    "duration": 0.06535933333333332
                },
                {
                    "name": "D5",
                    "midi": 74,
                    "time": 49.607733999999994,
                    "velocity": 0.7244094488188977,
                    "duration": 0.06535933333333332
                },
                {
                    "name": "C5",
                    "midi": 72,
                    "time": 49.70577299999999,
                    "velocity": 0.7244094488188977,
                    "duration": 0.06535933333333332
                },
                {
                    "name": "B4",
                    "midi": 71,
                    "time": 49.80381199999999,
                    "velocity": 0.7244094488188977,
                    "duration": 0.06535933333333332
                },
                {
                    "name": "A4",
                    "midi": 69,
                    "time": 49.90185099999999,
                    "velocity": 0.7244094488188977,
                    "duration": 0.06535933333333332
                },
                {
                    "name": "G4",
                    "midi": 67,
                    "time": 49.99988999999999,
                    "velocity": 0.7244094488188977,
                    "duration": 0.06535933333333332
                },
                {
                    "name": "F4",
                    "midi": 65,
                    "time": 50.09792899999999,
                    "velocity": 0.7244094488188977,
                    "duration": 0.06535933333333332
                },
                {
                    "name": "E4",
                    "midi": 64,
                    "time": 50.19596799999999,
                    "velocity": 0.7244094488188977,
                    "duration": 0.06535933333333332
                },
                {
                    "name": "F#4",
                    "midi": 66,
                    "time": 50.29400699999999,
                    "velocity": 0.7244094488188977,
                    "duration": 0.06535933333333332
                },
                {
                    "name": "G4",
                    "midi": 67,
                    "time": 50.39204599999999,
                    "velocity": 0.7244094488188977,
                    "duration": 0.06535933333333332
                },
                {
                    "name": "A4",
                    "midi": 69,
                    "time": 50.49008499999999,
                    "velocity": 0.7244094488188977,
                    "duration": 0.06535933333333332
                },
                {
                    "name": "B4",
                    "midi": 71,
                    "time": 50.58812399999999,
                    "velocity": 0.7244094488188977,
                    "duration": 0.06535933333333332
                },
                {
                    "name": "C5",
                    "midi": 72,
                    "time": 50.68616299999999,
                    "velocity": 0.7244094488188977,
                    "duration": 0.06535933333333332
                },
                {
                    "name": "D5",
                    "midi": 74,
                    "time": 50.78420199999999,
                    "velocity": 0.7244094488188977,
                    "duration": 0.06535933333333332
                },
                {
                    "name": "E5",
                    "midi": 76,
                    "time": 50.88224099999999,
                    "velocity": 0.7244094488188977,
                    "duration": 0.06535933333333332
                },
                {
                    "name": "E5",
                    "midi": 76,
                    "time": 50.98027999999999,
                    "velocity": 0.7244094488188977,
                    "duration": 0.06535933333333332
                },
                {
                    "name": "D5",
                    "midi": 74,
                    "time": 51.07831899999999,
                    "velocity": 0.7244094488188977,
                    "duration": 0.06535933333333332
                },
                {
                    "name": "B4",
                    "midi": 71,
                    "time": 51.17635799999999,
                    "velocity": 0.7244094488188977,
                    "duration": 0.06535933333333332
                },
                {
                    "name": "D5",
                    "midi": 74,
                    "time": 51.27439699999999,
                    "velocity": 0.7244094488188977,
                    "duration": 0.06535933333333332
                },
                {
                    "name": "D5",
                    "midi": 74,
                    "time": 51.37243599999999,
                    "velocity": 0.7244094488188977,
                    "duration": 0.06535933333333332
                },
                {
                    "name": "C5",
                    "midi": 72,
                    "time": 51.47047499999999,
                    "velocity": 0.7244094488188977,
                    "duration": 0.06535933333333332
                },
                {
                    "name": "B4",
                    "midi": 71,
                    "time": 51.56851399999999,
                    "velocity": 0.7244094488188977,
                    "duration": 0.06535933333333332
                },
                {
                    "name": "A4",
                    "midi": 69,
                    "time": 51.66655299999999,
                    "velocity": 0.7244094488188977,
                    "duration": 0.06535933333333332
                },
                {
                    "name": "G4",
                    "midi": 67,
                    "time": 51.76459199999999,
                    "velocity": 0.7244094488188977,
                    "duration": 0.06535933333333332
                },
                {
                    "name": "D6",
                    "midi": 86,
                    "time": 51.86263099999999,
                    "velocity": 0.7244094488188977,
                    "duration": 0.06535933333333332
                },
                {
                    "name": "B5",
                    "midi": 83,
                    "time": 51.96066999999999,
                    "velocity": 0.7244094488188977,
                    "duration": 0.06535933333333332
                },
                {
                    "name": "A5",
                    "midi": 81,
                    "time": 52.05870899999999,
                    "velocity": 0.7244094488188977,
                    "duration": 0.06535933333333332
                },
                {
                    "name": "G#5",
                    "midi": 80,
                    "time": 52.15674799999999,
                    "velocity": 0.7244094488188977,
                    "duration": 0.06535933333333332
                },
                {
                    "name": "B5",
                    "midi": 83,
                    "time": 52.25478699999999,
                    "velocity": 0.7244094488188977,
                    "duration": 0.06535933333333332
                },
                {
                    "name": "E5",
                    "midi": 76,
                    "time": 52.35282599999999,
                    "velocity": 0.7244094488188977,
                    "duration": 0.06535933333333332
                },
                {
                    "name": "G#5",
                    "midi": 80,
                    "time": 52.45086499999999,
                    "velocity": 0.7244094488188977,
                    "duration": 0.06535933333333332
                },
                {
                    "name": "A5",
                    "midi": 81,
                    "time": 52.54890399999999,
                    "velocity": 0.7244094488188977,
                    "duration": 0.06535933333333332
                },
                {
                    "name": "C6",
                    "midi": 84,
                    "time": 52.64694299999999,
                    "velocity": 0.7244094488188977,
                    "duration": 0.06535933333333332
                },
                {
                    "name": "A5",
                    "midi": 81,
                    "time": 52.74498199999999,
                    "velocity": 0.7244094488188977,
                    "duration": 0.06535933333333332
                },
                {
                    "name": "G5",
                    "midi": 79,
                    "time": 52.84302099999999,
                    "velocity": 0.7244094488188977,
                    "duration": 0.06535933333333332
                },
                {
                    "name": "F#5",
                    "midi": 78,
                    "time": 52.94105999999999,
                    "velocity": 0.7244094488188977,
                    "duration": 0.06535933333333332
                },
                {
                    "name": "A5",
                    "midi": 81,
                    "time": 53.03909899999999,
                    "velocity": 0.7244094488188977,
                    "duration": 0.06535933333333332
                },
                {
                    "name": "D5",
                    "midi": 74,
                    "time": 53.13713799999999,
                    "velocity": 0.7244094488188977,
                    "duration": 0.06535933333333332
                },
                {
                    "name": "F#5",
                    "midi": 78,
                    "time": 53.23517699999999,
                    "velocity": 0.7244094488188977,
                    "duration": 0.06535933333333332
                },
                {
                    "name": "G5",
                    "midi": 79,
                    "time": 53.33321599999999,
                    "velocity": 0.7244094488188977,
                    "duration": 0.06535933333333332
                },
                {
                    "name": "B5",
                    "midi": 83,
                    "time": 53.43125499999999,
                    "velocity": 0.7244094488188977,
                    "duration": 0.06535933333333332
                },
                {
                    "name": "G5",
                    "midi": 79,
                    "time": 53.52929399999999,
                    "velocity": 0.7244094488188977,
                    "duration": 0.06535933333333332
                },
                {
                    "name": "F#5",
                    "midi": 78,
                    "time": 53.62733299999999,
                    "velocity": 0.7244094488188977,
                    "duration": 0.06535933333333332
                },
                {
                    "name": "E5",
                    "midi": 76,
                    "time": 53.72537199999999,
                    "velocity": 0.7244094488188977,
                    "duration": 0.06535933333333332
                },
                {
                    "name": "G5",
                    "midi": 79,
                    "time": 53.82341099999999,
                    "velocity": 0.7244094488188977,
                    "duration": 0.06535933333333332
                },
                {
                    "name": "C5",
                    "midi": 72,
                    "time": 53.92144999999999,
                    "velocity": 0.7244094488188977,
                    "duration": 0.06535933333333332
                },
                {
                    "name": "E5",
                    "midi": 76,
                    "time": 54.01948899999999,
                    "velocity": 0.7244094488188977,
                    "duration": 0.06535933333333332
                },
                {
                    "name": "F#5",
                    "midi": 78,
                    "time": 54.11752799999999,
                    "velocity": 0.7244094488188977,
                    "duration": 0.06535933333333332
                },
                {
                    "name": "A5",
                    "midi": 81,
                    "time": 54.21556699999999,
                    "velocity": 0.7244094488188977,
                    "duration": 0.06535933333333332
                },
                {
                    "name": "F#5",
                    "midi": 78,
                    "time": 54.31360599999999,
                    "velocity": 0.7244094488188977,
                    "duration": 0.06535933333333332
                },
                {
                    "name": "E5",
                    "midi": 76,
                    "time": 54.41164499999999,
                    "velocity": 0.7244094488188977,
                    "duration": 0.06535933333333332
                },
                {
                    "name": "D#5",
                    "midi": 75,
                    "time": 54.50968399999999,
                    "velocity": 0.7244094488188977,
                    "duration": 0.06535933333333332
                },
                {
                    "name": "F#5",
                    "midi": 78,
                    "time": 54.60772299999999,
                    "velocity": 0.7244094488188977,
                    "duration": 0.06535933333333332
                },
                {
                    "name": "B4",
                    "midi": 71,
                    "time": 54.70576199999999,
                    "velocity": 0.7244094488188977,
                    "duration": 0.06535933333333332
                },
                {
                    "name": "D#5",
                    "midi": 75,
                    "time": 54.80380099999999,
                    "velocity": 0.7244094488188977,
                    "duration": 0.06535933333333332
                },
                {
                    "name": "E5",
                    "midi": 76,
                    "time": 54.90183999999999,
                    "velocity": 0.7244094488188977,
                    "duration": 0.06535933333333332
                },
                {
                    "name": "G5",
                    "midi": 79,
                    "time": 54.99987899999999,
                    "velocity": 0.7244094488188977,
                    "duration": 0.06535933333333332
                },
                {
                    "name": "E5",
                    "midi": 76,
                    "time": 55.09791799999999,
                    "velocity": 0.7244094488188977,
                    "duration": 0.06535933333333332
                },
                {
                    "name": "D5",
                    "midi": 74,
                    "time": 55.19595699999999,
                    "velocity": 0.7244094488188977,
                    "duration": 0.06535933333333332
                },
                {
                    "name": "C#5",
                    "midi": 73,
                    "time": 55.29399599999999,
                    "velocity": 0.7244094488188977,
                    "duration": 0.06535933333333332
                },
                {
                    "name": "E5",
                    "midi": 76,
                    "time": 55.39203499999999,
                    "velocity": 0.7244094488188977,
                    "duration": 0.06535933333333332
                },
                {
                    "name": "A4",
                    "midi": 69,
                    "time": 55.49007399999999,
                    "velocity": 0.7244094488188977,
                    "duration": 0.06535933333333332
                },
                {
                    "name": "C#5",
                    "midi": 73,
                    "time": 55.58811299999999,
                    "velocity": 0.7244094488188977,
                    "duration": 0.06535933333333332
                },
                {
                    "name": "D5",
                    "midi": 74,
                    "time": 55.68615199999999,
                    "velocity": 0.7244094488188977,
                    "duration": 0.06535933333333332
                },
                {
                    "name": "E5",
                    "midi": 76,
                    "time": 55.78419099999999,
                    "velocity": 0.7244094488188977,
                    "duration": 0.06535933333333332
                },
                {
                    "name": "F#5",
                    "midi": 78,
                    "time": 55.88222999999999,
                    "velocity": 0.7244094488188977,
                    "duration": 0.06535933333333332
                },
                {
                    "name": "G5",
                    "midi": 79,
                    "time": 55.98026899999999,
                    "velocity": 0.7244094488188977,
                    "duration": 0.06535933333333332
                },
                {
                    "name": "A5",
                    "midi": 81,
                    "time": 56.07830799999999,
                    "velocity": 0.7244094488188977,
                    "duration": 0.06535933333333332
                },
                {
                    "name": "B5",
                    "midi": 83,
                    "time": 56.17634699999999,
                    "velocity": 0.7244094488188977,
                    "duration": 0.06535933333333332
                },
                {
                    "name": "C6",
                    "midi": 84,
                    "time": 56.27438599999999,
                    "velocity": 0.7244094488188977,
                    "duration": 0.06535933333333332
                },
                {
                    "name": "D6",
                    "midi": 86,
                    "time": 56.37242499999999,
                    "velocity": 0.7244094488188977,
                    "duration": 0.06535933333333332
                },
                {
                    "name": "C6",
                    "midi": 84,
                    "time": 56.47046399999999,
                    "velocity": 0.7244094488188977,
                    "duration": 0.06535933333333332
                },
                {
                    "name": "B5",
                    "midi": 83,
                    "time": 56.56850299999999,
                    "velocity": 0.7244094488188977,
                    "duration": 0.06535933333333332
                },
                {
                    "name": "D6",
                    "midi": 86,
                    "time": 56.66654199999999,
                    "velocity": 0.7244094488188977,
                    "duration": 0.06535933333333332
                },
                {
                    "name": "B5",
                    "midi": 83,
                    "time": 56.76458099999999,
                    "velocity": 0.7244094488188977,
                    "duration": 0.06535933333333332
                },
                {
                    "name": "B5",
                    "midi": 83,
                    "time": 56.86261999999999,
                    "velocity": 0.7244094488188977,
                    "duration": 0.06535933333333332
                },
                {
                    "name": "A5",
                    "midi": 81,
                    "time": 56.96065899999999,
                    "velocity": 0.7244094488188977,
                    "duration": 0.06535933333333332
                },
                {
                    "name": "C6",
                    "midi": 84,
                    "time": 57.05869799999999,
                    "velocity": 0.7244094488188977,
                    "duration": 0.06535933333333332
                },
                {
                    "name": "A5",
                    "midi": 81,
                    "time": 57.15673699999999,
                    "velocity": 0.7244094488188977,
                    "duration": 0.06535933333333332
                },
                {
                    "name": "A5",
                    "midi": 81,
                    "time": 57.25477599999999,
                    "velocity": 0.7244094488188977,
                    "duration": 0.06535933333333332
                },
                {
                    "name": "G5",
                    "midi": 79,
                    "time": 57.35281499999999,
                    "velocity": 0.7244094488188977,
                    "duration": 0.06535933333333332
                },
                {
                    "name": "B5",
                    "midi": 83,
                    "time": 57.45085399999999,
                    "velocity": 0.7244094488188977,
                    "duration": 0.06535933333333332
                },
                {
                    "name": "G5",
                    "midi": 79,
                    "time": 57.54889299999999,
                    "velocity": 0.7244094488188977,
                    "duration": 0.06535933333333332
                },
                {
                    "name": "G5",
                    "midi": 79,
                    "time": 57.64693199999999,
                    "velocity": 0.7244094488188977,
                    "duration": 0.06535933333333332
                },
                {
                    "name": "F#5",
                    "midi": 78,
                    "time": 57.74497099999999,
                    "velocity": 0.7244094488188977,
                    "duration": 0.06535933333333332
                },
                {
                    "name": "A5",
                    "midi": 81,
                    "time": 57.84300999999999,
                    "velocity": 0.7244094488188977,
                    "duration": 0.06535933333333332
                },
                {
                    "name": "F#5",
                    "midi": 78,
                    "time": 57.94104899999999,
                    "velocity": 0.7244094488188977,
                    "duration": 0.06535933333333332
                },
                {
                    "name": "G5",
                    "midi": 79,
                    "time": 58.03908799999999,
                    "velocity": 0.7244094488188977,
                    "duration": 0.06535933333333332
                },
                {
                    "name": "D5",
                    "midi": 74,
                    "time": 58.13712699999999,
                    "velocity": 0.7244094488188977,
                    "duration": 0.06535933333333332
                },
                {
                    "name": "B4",
                    "midi": 71,
                    "time": 58.23516599999999,
                    "velocity": 0.7244094488188977,
                    "duration": 0.06535933333333332
                },
                {
                    "name": "A4",
                    "midi": 69,
                    "time": 58.33320499999999,
                    "velocity": 0.7244094488188977,
                    "duration": 0.06535933333333332
                },
                {
                    "name": "G#4",
                    "midi": 68,
                    "time": 58.43124399999999,
                    "velocity": 0.7244094488188977,
                    "duration": 0.06535933333333332
                },
                {
                    "name": "F5",
                    "midi": 77,
                    "time": 58.52928299999999,
                    "velocity": 0.7244094488188977,
                    "duration": 0.06535933333333332
                },
                {
                    "name": "E5",
                    "midi": 76,
                    "time": 58.62732199999999,
                    "velocity": 0.7244094488188977,
                    "duration": 0.06535933333333332
                },
                {
                    "name": "D5",
                    "midi": 74,
                    "time": 58.72536099999999,
                    "velocity": 0.7244094488188977,
                    "duration": 0.06535933333333332
                },
                {
                    "name": "C5",
                    "midi": 72,
                    "time": 58.82339999999999,
                    "velocity": 0.7244094488188977,
                    "duration": 0.06535933333333332
                },
                {
                    "name": "B4",
                    "midi": 71,
                    "time": 58.92143899999999,
                    "velocity": 0.7244094488188977,
                    "duration": 0.06535933333333332
                },
                {
                    "name": "A4",
                    "midi": 69,
                    "time": 59.01947799999999,
                    "velocity": 0.7244094488188977,
                    "duration": 0.06535933333333332
                },
                {
                    "name": "G4",
                    "midi": 67,
                    "time": 59.11751699999999,
                    "velocity": 0.7244094488188977,
                    "duration": 0.06535933333333332
                },
                {
                    "name": "F#4",
                    "midi": 66,
                    "time": 59.21555599999999,
                    "velocity": 0.7244094488188977,
                    "duration": 0.06535933333333332
                },
                {
                    "name": "E5",
                    "midi": 76,
                    "time": 59.31359499999999,
                    "velocity": 0.7244094488188977,
                    "duration": 0.06535933333333332
                },
                {
                    "name": "D5",
                    "midi": 74,
                    "time": 59.41163399999999,
                    "velocity": 0.7244094488188977,
                    "duration": 0.06535933333333332
                },
                {
                    "name": "C5",
                    "midi": 72,
                    "time": 59.50967299999999,
                    "velocity": 0.7244094488188977,
                    "duration": 0.06535933333333332
                },
                {
                    "name": "B4",
                    "midi": 71,
                    "time": 59.60771199999999,
                    "velocity": 0.7244094488188977,
                    "duration": 0.06535933333333332
                },
                {
                    "name": "A4",
                    "midi": 69,
                    "time": 59.70575099999999,
                    "velocity": 0.7244094488188977,
                    "duration": 0.06535933333333332
                },
                {
                    "name": "G4",
                    "midi": 67,
                    "time": 59.80378999999999,
                    "velocity": 0.7244094488188977,
                    "duration": 0.06535933333333332
                },
                {
                    "name": "F#4",
                    "midi": 66,
                    "time": 59.90182899999999,
                    "velocity": 0.7244094488188977,
                    "duration": 0.06535933333333332
                },
                {
                    "name": "E4",
                    "midi": 64,
                    "time": 59.99986799999999,
                    "velocity": 0.7244094488188977,
                    "duration": 0.06535933333333332
                },
                {
                    "name": "D5",
                    "midi": 74,
                    "time": 60.09790699999999,
                    "velocity": 0.7244094488188977,
                    "duration": 0.06535933333333332
                },
                {
                    "name": "C5",
                    "midi": 72,
                    "time": 60.19594599999999,
                    "velocity": 0.7244094488188977,
                    "duration": 0.06535933333333332
                },
                {
                    "name": "B4",
                    "midi": 71,
                    "time": 60.29398499999999,
                    "velocity": 0.7244094488188977,
                    "duration": 0.06535933333333332
                },
                {
                    "name": "A4",
                    "midi": 69,
                    "time": 60.39202399999999,
                    "velocity": 0.7244094488188977,
                    "duration": 0.06535933333333332
                },
                {
                    "name": "G4",
                    "midi": 67,
                    "time": 60.49006299999999,
                    "velocity": 0.7244094488188977,
                    "duration": 0.06535933333333332
                },
                {
                    "name": "F#4",
                    "midi": 66,
                    "time": 60.58810199999999,
                    "velocity": 0.7244094488188977,
                    "duration": 0.06535933333333332
                },
                {
                    "name": "E4",
                    "midi": 64,
                    "time": 60.68614099999999,
                    "velocity": 0.7244094488188977,
                    "duration": 0.06535933333333332
                },
                {
                    "name": "D#4",
                    "midi": 63,
                    "time": 60.78417999999999,
                    "velocity": 0.7244094488188977,
                    "duration": 0.06535933333333332
                },
                {
                    "name": "C5",
                    "midi": 72,
                    "time": 60.88221899999999,
                    "velocity": 0.7244094488188977,
                    "duration": 0.06535933333333332
                },
                {
                    "name": "B4",
                    "midi": 71,
                    "time": 60.98025799999999,
                    "velocity": 0.7244094488188977,
                    "duration": 0.06535933333333332
                },
                {
                    "name": "A4",
                    "midi": 69,
                    "time": 61.07829699999999,
                    "velocity": 0.7244094488188977,
                    "duration": 0.06535933333333332
                },
                {
                    "name": "G4",
                    "midi": 67,
                    "time": 61.17633599999999,
                    "velocity": 0.7244094488188977,
                    "duration": 0.06535933333333332
                },
                {
                    "name": "F#4",
                    "midi": 66,
                    "time": 61.27437499999999,
                    "velocity": 0.7244094488188977,
                    "duration": 0.06535933333333332
                },
                {
                    "name": "E4",
                    "midi": 64,
                    "time": 61.37241399999999,
                    "velocity": 0.7244094488188977,
                    "duration": 0.06535933333333332
                },
                {
                    "name": "D4",
                    "midi": 62,
                    "time": 61.47045299999999,
                    "velocity": 0.7244094488188977,
                    "duration": 0.06535933333333332
                },
                {
                    "name": "C#4",
                    "midi": 61,
                    "time": 61.56849199999999,
                    "velocity": 0.7244094488188977,
                    "duration": 0.06535933333333332
                },
                {
                    "name": "B4",
                    "midi": 71,
                    "time": 61.66653099999999,
                    "velocity": 0.7244094488188977,
                    "duration": 0.06535933333333332
                },
                {
                    "name": "A4",
                    "midi": 69,
                    "time": 61.76456999999999,
                    "velocity": 0.7244094488188977,
                    "duration": 0.06535933333333332
                },
                {
                    "name": "G4",
                    "midi": 67,
                    "time": 61.86260899999999,
                    "velocity": 0.7244094488188977,
                    "duration": 0.06535933333333332
                },
                {
                    "name": "F#4",
                    "midi": 66,
                    "time": 61.96064799999999,
                    "velocity": 0.7244094488188977,
                    "duration": 0.06535933333333332
                },
                {
                    "name": "D4",
                    "midi": 62,
                    "time": 62.05868699999999,
                    "velocity": 0.7244094488188977,
                    "duration": 0.06535933333333332
                },
                {
                    "name": "E4",
                    "midi": 64,
                    "time": 62.15672599999999,
                    "velocity": 0.7244094488188977,
                    "duration": 0.06535933333333332
                },
                {
                    "name": "F#4",
                    "midi": 66,
                    "time": 62.25476499999999,
                    "velocity": 0.7244094488188977,
                    "duration": 0.06535933333333332
                },
                {
                    "name": "G4",
                    "midi": 67,
                    "time": 62.35280399999999,
                    "velocity": 0.7244094488188977,
                    "duration": 0.06535933333333332
                },
                {
                    "name": "A4",
                    "midi": 69,
                    "time": 62.45084299999999,
                    "velocity": 0.7244094488188977,
                    "duration": 0.06535933333333332
                },
                {
                    "name": "B4",
                    "midi": 71,
                    "time": 62.54888199999999,
                    "velocity": 0.7244094488188977,
                    "duration": 0.06535933333333332
                },
                {
                    "name": "C5",
                    "midi": 72,
                    "time": 62.64692099999999,
                    "velocity": 0.7244094488188977,
                    "duration": 0.06535933333333332
                },
                {
                    "name": "D5",
                    "midi": 74,
                    "time": 62.74495999999999,
                    "velocity": 0.7244094488188977,
                    "duration": 0.06535933333333332
                },
                {
                    "name": "E5",
                    "midi": 76,
                    "time": 62.84299899999999,
                    "velocity": 0.7244094488188977,
                    "duration": 0.06535933333333332
                },
                {
                    "name": "D5",
                    "midi": 74,
                    "time": 62.94103799999999,
                    "velocity": 0.7244094488188977,
                    "duration": 0.06535933333333332
                },
                {
                    "name": "B4",
                    "midi": 71,
                    "time": 63.03907699999999,
                    "velocity": 0.7244094488188977,
                    "duration": 0.06535933333333332
                },
                {
                    "name": "C5",
                    "midi": 72,
                    "time": 63.13711599999999,
                    "velocity": 0.7244094488188977,
                    "duration": 0.06535933333333332
                },
                {
                    "name": "D5",
                    "midi": 74,
                    "time": 63.23515499999999,
                    "velocity": 0.7244094488188977,
                    "duration": 0.06535933333333332
                },
                {
                    "name": "C5",
                    "midi": 72,
                    "time": 63.33319399999999,
                    "velocity": 0.7244094488188977,
                    "duration": 0.06535933333333332
                },
                {
                    "name": "A4",
                    "midi": 69,
                    "time": 63.43123299999999,
                    "velocity": 0.7244094488188977,
                    "duration": 0.06535933333333332
                },
                {
                    "name": "B4",
                    "midi": 71,
                    "time": 63.52927199999999,
                    "velocity": 0.7244094488188977,
                    "duration": 0.06535933333333332
                },
                {
                    "name": "C5",
                    "midi": 72,
                    "time": 63.62731099999999,
                    "velocity": 0.7244094488188977,
                    "duration": 0.06535933333333332
                },
                {
                    "name": "B4",
                    "midi": 71,
                    "time": 63.72534999999999,
                    "velocity": 0.7244094488188977,
                    "duration": 0.06535933333333332
                },
                {
                    "name": "G4",
                    "midi": 67,
                    "time": 63.82338899999999,
                    "velocity": 0.7244094488188977,
                    "duration": 0.06535933333333332
                },
                {
                    "name": "A4",
                    "midi": 69,
                    "time": 63.92142799999999,
                    "velocity": 0.7244094488188977,
                    "duration": 0.06535933333333332
                },
                {
                    "name": "B4",
                    "midi": 71,
                    "time": 64.01946699999999,
                    "velocity": 0.7244094488188977,
                    "duration": 0.06535933333333332
                },
                {
                    "name": "A4",
                    "midi": 69,
                    "time": 64.11750599999999,
                    "velocity": 0.7244094488188977,
                    "duration": 0.06535933333333332
                },
                {
                    "name": "F#4",
                    "midi": 66,
                    "time": 64.21554499999999,
                    "velocity": 0.7244094488188977,
                    "duration": 0.06535933333333332
                },
                {
                    "name": "G4",
                    "midi": 67,
                    "time": 64.31358399999999,
                    "velocity": 0.7244094488188977,
                    "duration": 0.06535933333333332
                },
                {
                    "name": "B4",
                    "midi": 71,
                    "time": 64.41162299999999,
                    "velocity": 0.7244094488188977,
                    "duration": 0.06535933333333332
                },
                {
                    "name": "D5",
                    "midi": 74,
                    "time": 64.50966199999999,
                    "velocity": 0.7244094488188977,
                    "duration": 0.06535933333333332
                },
                {
                    "name": "G5",
                    "midi": 79,
                    "time": 64.60770099999999,
                    "velocity": 0.7244094488188977,
                    "duration": 0.06535933333333332
                },
                {
                    "name": "F#5",
                    "midi": 78,
                    "time": 64.70573999999999,
                    "velocity": 0.7244094488188977,
                    "duration": 0.06535933333333332
                },
                {
                    "name": "A5",
                    "midi": 81,
                    "time": 64.80377899999999,
                    "velocity": 0.7244094488188977,
                    "duration": 0.06535933333333332
                },
                {
                    "name": "F#5",
                    "midi": 78,
                    "time": 64.90181799999999,
                    "velocity": 0.7244094488188977,
                    "duration": 0.06535933333333332
                },
                {
                    "name": "E5",
                    "midi": 76,
                    "time": 64.99985699999999,
                    "velocity": 0.7244094488188977,
                    "duration": 0.06535933333333332
                },
                {
                    "name": "D5",
                    "midi": 74,
                    "time": 65.09789599999999,
                    "velocity": 0.7244094488188977,
                    "duration": 0.06535933333333332
                },
                {
                    "name": "F#5",
                    "midi": 78,
                    "time": 65.19593499999999,
                    "velocity": 0.7244094488188977,
                    "duration": 0.06535933333333332
                },
                {
                    "name": "A5",
                    "midi": 81,
                    "time": 65.29397399999999,
                    "velocity": 0.7244094488188977,
                    "duration": 0.06535933333333332
                },
                {
                    "name": "D6",
                    "midi": 86,
                    "time": 65.39201299999999,
                    "velocity": 0.7244094488188977,
                    "duration": 0.06535933333333332
                },
                {
                    "name": "C#6",
                    "midi": 85,
                    "time": 65.49005199999999,
                    "velocity": 0.7244094488188977,
                    "duration": 0.06535933333333332
                },
                {
                    "name": "D6",
                    "midi": 86,
                    "time": 65.58809099999999,
                    "velocity": 0.7244094488188977,
                    "duration": 0.06535933333333332
                },
                {
                    "name": "C6",
                    "midi": 84,
                    "time": 65.68612999999999,
                    "velocity": 0.7244094488188977,
                    "duration": 0.06535933333333332
                },
                {
                    "name": "A5",
                    "midi": 81,
                    "time": 65.78416899999999,
                    "velocity": 0.7244094488188977,
                    "duration": 0.06535933333333332
                },
                {
                    "name": "G5",
                    "midi": 79,
                    "time": 65.88220799999999,
                    "velocity": 0.7244094488188977,
                    "duration": 0.06535933333333332
                },
                {
                    "name": "B5",
                    "midi": 83,
                    "time": 65.98024699999999,
                    "velocity": 0.7244094488188977,
                    "duration": 0.06535933333333332
                },
                {
                    "name": "A5",
                    "midi": 81,
                    "time": 66.07828599999999,
                    "velocity": 0.7244094488188977,
                    "duration": 0.06535933333333332
                },
                {
                    "name": "G5",
                    "midi": 79,
                    "time": 66.17632499999999,
                    "velocity": 0.7244094488188977,
                    "duration": 0.06535933333333332
                },
                {
                    "name": "F#5",
                    "midi": 78,
                    "time": 66.27436399999999,
                    "velocity": 0.7244094488188977,
                    "duration": 0.06535933333333332
                },
                {
                    "name": "A5",
                    "midi": 81,
                    "time": 66.37240299999999,
                    "velocity": 0.7244094488188977,
                    "duration": 0.06535933333333332
                },
                {
                    "name": "G5",
                    "midi": 79,
                    "time": 66.47044199999999,
                    "velocity": 0.7244094488188977,
                    "duration": 0.06535933333333332
                },
                {
                    "name": "E5",
                    "midi": 76,
                    "time": 66.56848099999999,
                    "velocity": 0.7244094488188977,
                    "duration": 0.06535933333333332
                },
                {
                    "name": "D5",
                    "midi": 74,
                    "time": 66.66651999999999,
                    "velocity": 0.7244094488188977,
                    "duration": 0.06535933333333332
                },
                {
                    "name": "C#5",
                    "midi": 73,
                    "time": 66.76455899999999,
                    "velocity": 0.7244094488188977,
                    "duration": 0.06535933333333332
                },
                {
                    "name": "E5",
                    "midi": 76,
                    "time": 66.86259799999999,
                    "velocity": 0.7244094488188977,
                    "duration": 0.06535933333333332
                },
                {
                    "name": "D5",
                    "midi": 74,
                    "time": 66.96063699999999,
                    "velocity": 0.7244094488188977,
                    "duration": 0.06535933333333332
                },
                {
                    "name": "C5",
                    "midi": 72,
                    "time": 67.05867599999999,
                    "velocity": 0.7244094488188977,
                    "duration": 0.06535933333333332
                },
                {
                    "name": "B4",
                    "midi": 71,
                    "time": 67.15671499999999,
                    "velocity": 0.7244094488188977,
                    "duration": 0.06535933333333332
                },
                {
                    "name": "C5",
                    "midi": 72,
                    "time": 67.25475399999999,
                    "velocity": 0.7244094488188977,
                    "duration": 0.06535933333333332
                },
                {
                    "name": "A4",
                    "midi": 69,
                    "time": 67.35279299999999,
                    "velocity": 0.7244094488188977,
                    "duration": 0.06535933333333332
                },
                {
                    "name": "G4",
                    "midi": 67,
                    "time": 67.45083199999999,
                    "velocity": 0.7244094488188977,
                    "duration": 0.06535933333333332
                },
                {
                    "name": "B4",
                    "midi": 71,
                    "time": 67.54887099999999,
                    "velocity": 0.7244094488188977,
                    "duration": 0.06535933333333332
                },
                {
                    "name": "A4",
                    "midi": 69,
                    "time": 67.64690999999999,
                    "velocity": 0.7244094488188977,
                    "duration": 0.06535933333333332
                },
                {
                    "name": "G4",
                    "midi": 67,
                    "time": 67.74494899999999,
                    "velocity": 0.7244094488188977,
                    "duration": 0.06535933333333332
                },
                {
                    "name": "F#4",
                    "midi": 66,
                    "time": 67.84298799999999,
                    "velocity": 0.7244094488188977,
                    "duration": 0.06535933333333332
                },
                {
                    "name": "A4",
                    "midi": 69,
                    "time": 67.94102699999999,
                    "velocity": 0.7244094488188977,
                    "duration": 0.06535933333333332
                },
                {
                    "name": "G4",
                    "midi": 67,
                    "time": 68.03906599999999,
                    "velocity": 0.7244094488188977,
                    "duration": 0.06535933333333332
                },
                {
                    "name": "E4",
                    "midi": 64,
                    "time": 68.13710499999999,
                    "velocity": 0.7244094488188977,
                    "duration": 0.06535933333333332
                },
                {
                    "name": "D4",
                    "midi": 62,
                    "time": 68.23514399999999,
                    "velocity": 0.7244094488188977,
                    "duration": 0.06535933333333332
                },
                {
                    "name": "C#4",
                    "midi": 61,
                    "time": 68.33318299999999,
                    "velocity": 0.7244094488188977,
                    "duration": 0.06535933333333332
                },
                {
                    "name": "E4",
                    "midi": 64,
                    "time": 68.43122199999999,
                    "velocity": 0.7244094488188977,
                    "duration": 0.06535933333333332
                },
                {
                    "name": "D4",
                    "midi": 62,
                    "time": 68.52926099999999,
                    "velocity": 0.7244094488188977,
                    "duration": 0.06535933333333332
                },
                {
                    "name": "C4",
                    "midi": 60,
                    "time": 68.62729999999999,
                    "velocity": 0.7244094488188977,
                    "duration": 0.06535933333333332
                },
                {
                    "name": "B3",
                    "midi": 59,
                    "time": 68.72533899999999,
                    "velocity": 0.7244094488188977,
                    "duration": 0.06535933333333332
                },
                {
                    "name": "C4",
                    "midi": 60,
                    "time": 68.82337799999999,
                    "velocity": 0.7244094488188977,
                    "duration": 0.06535933333333332
                },
                {
                    "name": "A3",
                    "midi": 57,
                    "time": 68.92141699999999,
                    "velocity": 0.7244094488188977,
                    "duration": 0.06535933333333332
                },
                {
                    "name": "G3",
                    "midi": 55,
                    "time": 69.01945599999999,
                    "velocity": 0.7244094488188977,
                    "duration": 0.06535933333333332
                },
                {
                    "name": "B3",
                    "midi": 59,
                    "time": 69.11749499999999,
                    "velocity": 0.7244094488188977,
                    "duration": 0.06535933333333332
                },
                {
                    "name": "D4",
                    "midi": 62,
                    "time": 69.21553399999999,
                    "velocity": 0.7244094488188977,
                    "duration": 0.06535933333333332
                },
                {
                    "name": "G4",
                    "midi": 67,
                    "time": 69.31357299999999,
                    "velocity": 0.7244094488188977,
                    "duration": 0.06535933333333332
                },
                {
                    "name": "F#4",
                    "midi": 66,
                    "time": 69.41161199999999,
                    "velocity": 0.7244094488188977,
                    "duration": 0.06535933333333332
                },
                {
                    "name": "D4",
                    "midi": 62,
                    "time": 69.50965099999999,
                    "velocity": 0.7244094488188977,
                    "duration": 0.06535933333333332
                },
                {
                    "name": "C4",
                    "midi": 60,
                    "time": 69.60768999999999,
                    "velocity": 0.7244094488188977,
                    "duration": 0.06535933333333332
                },
                {
                    "name": "A3",
                    "midi": 57,
                    "time": 69.70572899999999,
                    "velocity": 0.7244094488188977,
                    "duration": 0.06535933333333332
                },
                {
                    "name": "G3",
                    "midi": 55,
                    "time": 69.80376799999999,
                    "velocity": 0.7244094488188977,
                    "duration": 0.06535933333333332
                },
                {
                    "name": "B3",
                    "midi": 59,
                    "time": 69.90180699999999,
                    "velocity": 0.7244094488188977,
                    "duration": 0.06535933333333332
                },
                {
                    "name": "D4",
                    "midi": 62,
                    "time": 69.99984599999999,
                    "velocity": 0.7244094488188977,
                    "duration": 0.06535933333333332
                },
                {
                    "name": "G4",
                    "midi": 67,
                    "time": 70.09788499999999,
                    "velocity": 0.7244094488188977,
                    "duration": 0.06535933333333332
                },
                {
                    "name": "F#4",
                    "midi": 66,
                    "time": 70.19592399999999,
                    "velocity": 0.7244094488188977,
                    "duration": 0.06535933333333332
                },
                {
                    "name": "D4",
                    "midi": 62,
                    "time": 70.29396299999999,
                    "velocity": 0.7244094488188977,
                    "duration": 0.06535933333333332
                },
                {
                    "name": "C4",
                    "midi": 60,
                    "time": 70.39200199999999,
                    "velocity": 0.7244094488188977,
                    "duration": 0.06535933333333332
                },
                {
                    "name": "A3",
                    "midi": 57,
                    "time": 70.49004099999999,
                    "velocity": 0.7244094488188977,
                    "duration": 0.06535933333333332
                },
                {
                    "name": "G3",
                    "midi": 55,
                    "time": 70.58807999999999,
                    "velocity": 0.7244094488188977,
                    "duration": 0.06535933333333332
                },
                {
                    "name": "B3",
                    "midi": 59,
                    "time": 70.68611899999999,
                    "velocity": 0.7244094488188977,
                    "duration": 0.06535933333333332
                },
                {
                    "name": "D4",
                    "midi": 62,
                    "time": 70.78415799999999,
                    "velocity": 0.7244094488188977,
                    "duration": 0.06535933333333332
                },
                {
                    "name": "G4",
                    "midi": 67,
                    "time": 70.88219699999999,
                    "velocity": 0.7244094488188977,
                    "duration": 0.06535933333333332
                },
                {
                    "name": "B4",
                    "midi": 71,
                    "time": 70.98023599999999,
                    "velocity": 0.7244094488188977,
                    "duration": 0.06535933333333332
                },
                {
                    "name": "D5",
                    "midi": 74,
                    "time": 71.07827499999999,
                    "velocity": 0.7244094488188977,
                    "duration": 0.06535933333333332
                },
                {
                    "name": "F#5",
                    "midi": 78,
                    "time": 71.17631399999999,
                    "velocity": 0.7244094488188977,
                    "duration": 0.06535933333333332
                },
                {
                    "name": "G5",
                    "midi": 79,
                    "time": 71.27435299999999,
                    "velocity": 0.7244094488188977,
                    "duration": 0.06535933333333332
                },
                {
                    "name": "F#5",
                    "midi": 78,
                    "time": 71.37239199999999,
                    "velocity": 0.7244094488188977,
                    "duration": 0.06535933333333332
                },
                {
                    "name": "G5",
                    "midi": 79,
                    "time": 71.47043099999999,
                    "velocity": 0.7244094488188977,
                    "duration": 0.06535933333333332
                },
                {
                    "name": "F#5",
                    "midi": 78,
                    "time": 71.56846999999999,
                    "velocity": 0.7244094488188977,
                    "duration": 0.06535933333333332
                },
                {
                    "name": "G5",
                    "midi": 79,
                    "time": 71.66650899999999,
                    "velocity": 0.7244094488188977,
                    "duration": 0.06535933333333332
                },
                {
                    "name": "F#5",
                    "midi": 78,
                    "time": 71.76454799999999,
                    "velocity": 0.7244094488188977,
                    "duration": 0.06535933333333332
                },
                {
                    "name": "G5",
                    "midi": 79,
                    "time": 71.86258699999999,
                    "velocity": 0.7244094488188977,
                    "duration": 0.06535933333333332
                },
                {
                    "name": "F#5",
                    "midi": 78,
                    "time": 71.96062599999999,
                    "velocity": 0.7244094488188977,
                    "duration": 0.06535933333333332
                },
                {
                    "name": "G5",
                    "midi": 79,
                    "time": 72.05866499999999,
                    "velocity": 0.7244094488188977,
                    "duration": 0.06535933333333332
                },
                {
                    "name": "G#5",
                    "midi": 80,
                    "time": 72.15670399999999,
                    "velocity": 0.7244094488188977,
                    "duration": 0.06535933333333332
                },
                {
                    "name": "A5",
                    "midi": 81,
                    "time": 72.25474299999999,
                    "velocity": 0.7244094488188977,
                    "duration": 0.06535933333333332
                },
                {
                    "name": "G#5",
                    "midi": 80,
                    "time": 72.35278199999999,
                    "velocity": 0.7244094488188977,
                    "duration": 0.06535933333333332
                },
                {
                    "name": "A5",
                    "midi": 81,
                    "time": 72.45082099999999,
                    "velocity": 0.7244094488188977,
                    "duration": 0.06535933333333332
                },
                {
                    "name": "G#5",
                    "midi": 80,
                    "time": 72.54885999999999,
                    "velocity": 0.7244094488188977,
                    "duration": 0.06535933333333332
                },
                {
                    "name": "A5",
                    "midi": 81,
                    "time": 72.64689899999999,
                    "velocity": 0.7244094488188977,
                    "duration": 0.06535933333333332
                },
                {
                    "name": "G#5",
                    "midi": 80,
                    "time": 72.74493799999999,
                    "velocity": 0.7244094488188977,
                    "duration": 0.06535933333333332
                },
                {
                    "name": "A5",
                    "midi": 81,
                    "time": 72.84297699999999,
                    "velocity": 0.7244094488188977,
                    "duration": 0.06535933333333332
                },
                {
                    "name": "G5",
                    "midi": 79,
                    "time": 72.94101599999999,
                    "velocity": 0.7244094488188977,
                    "duration": 0.06535933333333332
                },
                {
                    "name": "F5",
                    "midi": 77,
                    "time": 73.03905499999999,
                    "velocity": 0.7244094488188977,
                    "duration": 0.06535933333333332
                },
                {
                    "name": "E5",
                    "midi": 76,
                    "time": 73.13709399999999,
                    "velocity": 0.7244094488188977,
                    "duration": 0.06535933333333332
                },
                {
                    "name": "F5",
                    "midi": 77,
                    "time": 73.23513299999999,
                    "velocity": 0.7244094488188977,
                    "duration": 0.06535933333333332
                },
                {
                    "name": "G5",
                    "midi": 79,
                    "time": 73.33317199999999,
                    "velocity": 0.7244094488188977,
                    "duration": 0.06535933333333332
                },
                {
                    "name": "F5",
                    "midi": 77,
                    "time": 73.43121099999999,
                    "velocity": 0.7244094488188977,
                    "duration": 0.06535933333333332
                },
                {
                    "name": "E5",
                    "midi": 76,
                    "time": 73.52924999999999,
                    "velocity": 0.7244094488188977,
                    "duration": 0.06535933333333332
                },
                {
                    "name": "D5",
                    "midi": 74,
                    "time": 73.62728899999999,
                    "velocity": 0.7244094488188977,
                    "duration": 0.06535933333333332
                },
                {
                    "name": "C5",
                    "midi": 72,
                    "time": 73.72532799999999,
                    "velocity": 0.7244094488188977,
                    "duration": 0.06535933333333332
                },
                {
                    "name": "B4",
                    "midi": 71,
                    "time": 73.82336699999999,
                    "velocity": 0.7244094488188977,
                    "duration": 0.06535933333333332
                },
                {
                    "name": "D5",
                    "midi": 74,
                    "time": 73.92140599999999,
                    "velocity": 0.7244094488188977,
                    "duration": 0.06535933333333332
                },
                {
                    "name": "C5",
                    "midi": 72,
                    "time": 74.01944499999999,
                    "velocity": 0.7244094488188977,
                    "duration": 0.06535933333333332
                },
                {
                    "name": "B4",
                    "midi": 71,
                    "time": 74.11748399999999,
                    "velocity": 0.7244094488188977,
                    "duration": 0.06535933333333332
                },
                {
                    "name": "C5",
                    "midi": 72,
                    "time": 74.21552299999999,
                    "velocity": 0.7244094488188977,
                    "duration": 0.06535933333333332
                },
                {
                    "name": "D5",
                    "midi": 74,
                    "time": 74.31356199999999,
                    "velocity": 0.7244094488188977,
                    "duration": 0.06535933333333332
                },
                {
                    "name": "E5",
                    "midi": 76,
                    "time": 74.41160099999999,
                    "velocity": 0.7244094488188977,
                    "duration": 0.06535933333333332
                },
                {
                    "name": "F5",
                    "midi": 77,
                    "time": 74.50963999999999,
                    "velocity": 0.7244094488188977,
                    "duration": 0.06535933333333332
                },
                {
                    "name": "E5",
                    "midi": 76,
                    "time": 74.60767899999999,
                    "velocity": 0.7244094488188977,
                    "duration": 0.06535933333333332
                },
                {
                    "name": "D5",
                    "midi": 74,
                    "time": 74.70571799999999,
                    "velocity": 0.7244094488188977,
                    "duration": 0.06535933333333332
                },
                {
                    "name": "C5",
                    "midi": 72,
                    "time": 74.80375699999999,
                    "velocity": 0.7244094488188977,
                    "duration": 0.06535933333333332
                },
                {
                    "name": "B4",
                    "midi": 71,
                    "time": 74.90179599999999,
                    "velocity": 0.7244094488188977,
                    "duration": 0.06535933333333332
                },
                {
                    "name": "D5",
                    "midi": 74,
                    "time": 74.99983499999999,
                    "velocity": 0.7244094488188977,
                    "duration": 0.06535933333333332
                },
                {
                    "name": "B4",
                    "midi": 71,
                    "time": 75.09787399999999,
                    "velocity": 0.7244094488188977,
                    "duration": 0.06535933333333332
                },
                {
                    "name": "A4",
                    "midi": 69,
                    "time": 75.19591299999999,
                    "velocity": 0.7244094488188977,
                    "duration": 0.06535933333333332
                },
                {
                    "name": "G#4",
                    "midi": 68,
                    "time": 75.29395199999999,
                    "velocity": 0.7244094488188977,
                    "duration": 0.06535933333333332
                },
                {
                    "name": "A4",
                    "midi": 69,
                    "time": 75.39199099999999,
                    "velocity": 0.7244094488188977,
                    "duration": 0.06535933333333332
                },
                {
                    "name": "B4",
                    "midi": 71,
                    "time": 75.49002999999999,
                    "velocity": 0.7244094488188977,
                    "duration": 0.06535933333333332
                },
                {
                    "name": "A4",
                    "midi": 69,
                    "time": 75.58806899999999,
                    "velocity": 0.7244094488188977,
                    "duration": 0.06535933333333332
                },
                {
                    "name": "G#4",
                    "midi": 68,
                    "time": 75.68610799999999,
                    "velocity": 0.7244094488188977,
                    "duration": 0.06535933333333332
                },
                {
                    "name": "B4",
                    "midi": 71,
                    "time": 75.78414699999999,
                    "velocity": 0.7244094488188977,
                    "duration": 0.06535933333333332
                },
                {
                    "name": "G#4",
                    "midi": 68,
                    "time": 75.88218599999999,
                    "velocity": 0.7244094488188977,
                    "duration": 0.06535933333333332
                },
                {
                    "name": "F4",
                    "midi": 65,
                    "time": 75.98022499999999,
                    "velocity": 0.7244094488188977,
                    "duration": 0.06535933333333332
                },
                {
                    "name": "E4",
                    "midi": 64,
                    "time": 76.07826399999999,
                    "velocity": 0.7244094488188977,
                    "duration": 0.06535933333333332
                },
                {
                    "name": "F4",
                    "midi": 65,
                    "time": 76.17630299999999,
                    "velocity": 0.7244094488188977,
                    "duration": 0.06535933333333332
                },
                {
                    "name": "D#4",
                    "midi": 63,
                    "time": 76.27434199999999,
                    "velocity": 0.7244094488188977,
                    "duration": 0.06535933333333332
                },
                {
                    "name": "F4",
                    "midi": 65,
                    "time": 76.37238099999999,
                    "velocity": 0.7244094488188977,
                    "duration": 0.06535933333333332
                },
                {
                    "name": "E4",
                    "midi": 64,
                    "time": 76.47041999999999,
                    "velocity": 0.7244094488188977,
                    "duration": 0.06535933333333332
                },
                {
                    "name": "F4",
                    "midi": 65,
                    "time": 76.56845899999999,
                    "velocity": 0.7244094488188977,
                    "duration": 0.06535933333333332
                },
                {
                    "name": "D#4",
                    "midi": 63,
                    "time": 76.66649799999999,
                    "velocity": 0.7244094488188977,
                    "duration": 0.06535933333333332
                },
                {
                    "name": "F4",
                    "midi": 65,
                    "time": 76.76453699999999,
                    "velocity": 0.7244094488188977,
                    "duration": 0.06535933333333332
                },
                {
                    "name": "E4",
                    "midi": 64,
                    "time": 76.86257599999999,
                    "velocity": 0.7244094488188977,
                    "duration": 0.06535933333333332
                },
                {
                    "name": "F4",
                    "midi": 65,
                    "time": 76.96061499999999,
                    "velocity": 0.7244094488188977,
                    "duration": 0.06535933333333332
                },
                {
                    "name": "D#4",
                    "midi": 63,
                    "time": 77.05865399999999,
                    "velocity": 0.7244094488188977,
                    "duration": 0.06535933333333332
                },
                {
                    "name": "E4",
                    "midi": 64,
                    "time": 77.15669299999999,
                    "velocity": 0.7244094488188977,
                    "duration": 0.06535933333333332
                },
                {
                    "name": "F4",
                    "midi": 65,
                    "time": 77.25473199999999,
                    "velocity": 0.7244094488188977,
                    "duration": 0.06535933333333332
                },
                {
                    "name": "F#4",
                    "midi": 66,
                    "time": 77.35277099999999,
                    "velocity": 0.7244094488188977,
                    "duration": 0.06535933333333332
                },
                {
                    "name": "G4",
                    "midi": 67,
                    "time": 77.45080999999999,
                    "velocity": 0.7244094488188977,
                    "duration": 0.06535933333333332
                },
                {
                    "name": "G#4",
                    "midi": 68,
                    "time": 77.54884899999999,
                    "velocity": 0.7244094488188977,
                    "duration": 0.06535933333333332
                },
                {
                    "name": "A4",
                    "midi": 69,
                    "time": 77.64688799999999,
                    "velocity": 0.7244094488188977,
                    "duration": 0.06535933333333332
                },
                {
                    "name": "E5",
                    "midi": 76,
                    "time": 83.92138399999999,
                    "velocity": 0.7244094488188977,
                    "duration": 0.06535933333333332
                },
                {
                    "name": "F#5",
                    "midi": 78,
                    "time": 84.01942299999999,
                    "velocity": 0.7244094488188977,
                    "duration": 0.06535933333333332
                },
                {
                    "name": "E5",
                    "midi": 76,
                    "time": 84.11746199999999,
                    "velocity": 0.7244094488188977,
                    "duration": 0.06535933333333332
                },
                {
                    "name": "D#5",
                    "midi": 75,
                    "time": 84.21550099999999,
                    "velocity": 0.7244094488188977,
                    "duration": 0.06535933333333332
                },
                {
                    "name": "E5",
                    "midi": 76,
                    "time": 84.31353999999999,
                    "velocity": 0.7244094488188977,
                    "duration": 0.06535933333333332
                },
                {
                    "name": "F#5",
                    "midi": 78,
                    "time": 84.41157899999999,
                    "velocity": 0.7244094488188977,
                    "duration": 0.06535933333333332
                },
                {
                    "name": "G5",
                    "midi": 79,
                    "time": 84.50961799999999,
                    "velocity": 0.7244094488188977,
                    "duration": 0.06535933333333332
                },
                {
                    "name": "E5",
                    "midi": 76,
                    "time": 84.60765699999999,
                    "velocity": 0.7244094488188977,
                    "duration": 0.06535933333333332
                },
                {
                    "name": "F#5",
                    "midi": 78,
                    "time": 84.70569599999999,
                    "velocity": 0.7244094488188977,
                    "duration": 0.06535933333333332
                },
                {
                    "name": "E5",
                    "midi": 76,
                    "time": 84.80373499999999,
                    "velocity": 0.7244094488188977,
                    "duration": 0.06535933333333332
                },
                {
                    "name": "D#5",
                    "midi": 75,
                    "time": 84.90177399999999,
                    "velocity": 0.7244094488188977,
                    "duration": 0.06535933333333332
                },
                {
                    "name": "C5",
                    "midi": 72,
                    "time": 84.99981299999999,
                    "velocity": 0.7244094488188977,
                    "duration": 0.06535933333333332
                },
                {
                    "name": "B4",
                    "midi": 71,
                    "time": 85.09785199999999,
                    "velocity": 0.7244094488188977,
                    "duration": 0.06535933333333332
                },
                {
                    "name": "C#5",
                    "midi": 73,
                    "time": 85.19589099999999,
                    "velocity": 0.7244094488188977,
                    "duration": 0.06535933333333332
                },
                {
                    "name": "D#5",
                    "midi": 75,
                    "time": 85.29392999999999,
                    "velocity": 0.7244094488188977,
                    "duration": 0.06535933333333332
                },
                {
                    "name": "E5",
                    "midi": 76,
                    "time": 85.39196899999999,
                    "velocity": 0.7244094488188977,
                    "duration": 0.06535933333333332
                },
                {
                    "name": "F#5",
                    "midi": 78,
                    "time": 85.49000799999999,
                    "velocity": 0.7244094488188977,
                    "duration": 0.06535933333333332
                },
                {
                    "name": "G5",
                    "midi": 79,
                    "time": 85.58804699999999,
                    "velocity": 0.7244094488188977,
                    "duration": 0.06535933333333332
                },
                {
                    "name": "A5",
                    "midi": 81,
                    "time": 85.68608599999999,
                    "velocity": 0.7244094488188977,
                    "duration": 0.06535933333333332
                },
                {
                    "name": "G5",
                    "midi": 79,
                    "time": 85.78412499999999,
                    "velocity": 0.7244094488188977,
                    "duration": 0.06535933333333332
                },
                {
                    "name": "B5",
                    "midi": 83,
                    "time": 85.88216399999999,
                    "velocity": 0.7244094488188977,
                    "duration": 0.06535933333333332
                },
                {
                    "name": "A5",
                    "midi": 81,
                    "time": 85.98020299999999,
                    "velocity": 0.7244094488188977,
                    "duration": 0.06535933333333332
                },
                {
                    "name": "G5",
                    "midi": 79,
                    "time": 86.07824199999999,
                    "velocity": 0.7244094488188977,
                    "duration": 0.06535933333333332
                },
                {
                    "name": "F#5",
                    "midi": 78,
                    "time": 86.17628099999999,
                    "velocity": 0.7244094488188977,
                    "duration": 0.06535933333333332
                },
                {
                    "name": "G5",
                    "midi": 79,
                    "time": 86.27431999999999,
                    "velocity": 0.7244094488188977,
                    "duration": 0.06535933333333332
                },
                {
                    "name": "B5",
                    "midi": 83,
                    "time": 86.37235899999999,
                    "velocity": 0.7244094488188977,
                    "duration": 0.06535933333333332
                },
                {
                    "name": "A#5",
                    "midi": 82,
                    "time": 86.47039799999999,
                    "velocity": 0.7244094488188977,
                    "duration": 0.06535933333333332
                },
                {
                    "name": "B5",
                    "midi": 83,
                    "time": 86.56843699999999,
                    "velocity": 0.7244094488188977,
                    "duration": 0.06535933333333332
                },
                {
                    "name": "C6",
                    "midi": 84,
                    "time": 86.66647599999999,
                    "velocity": 0.7244094488188977,
                    "duration": 0.06535933333333332
                },
                {
                    "name": "B5",
                    "midi": 83,
                    "time": 86.76451499999999,
                    "velocity": 0.7244094488188977,
                    "duration": 0.06535933333333332
                },
                {
                    "name": "A5",
                    "midi": 81,
                    "time": 86.86255399999999,
                    "velocity": 0.7244094488188977,
                    "duration": 0.06535933333333332
                },
                {
                    "name": "G5",
                    "midi": 79,
                    "time": 86.96059299999999,
                    "velocity": 0.7244094488188977,
                    "duration": 0.06535933333333332
                },
                {
                    "name": "F#5",
                    "midi": 78,
                    "time": 87.05863199999999,
                    "velocity": 0.7244094488188977,
                    "duration": 0.06535933333333332
                },
                {
                    "name": "A5",
                    "midi": 81,
                    "time": 87.15667099999999,
                    "velocity": 0.7244094488188977,
                    "duration": 0.06535933333333332
                },
                {
                    "name": "G#5",
                    "midi": 80,
                    "time": 87.25470999999999,
                    "velocity": 0.7244094488188977,
                    "duration": 0.06535933333333332
                },
                {
                    "name": "A5",
                    "midi": 81,
                    "time": 87.35274899999999,
                    "velocity": 0.7244094488188977,
                    "duration": 0.06535933333333332
                },
                {
                    "name": "B5",
                    "midi": 83,
                    "time": 87.45078799999999,
                    "velocity": 0.7244094488188977,
                    "duration": 0.06535933333333332
                },
                {
                    "name": "A5",
                    "midi": 81,
                    "time": 87.54882699999999,
                    "velocity": 0.7244094488188977,
                    "duration": 0.06535933333333332
                },
                {
                    "name": "G5",
                    "midi": 79,
                    "time": 87.64686599999999,
                    "velocity": 0.7244094488188977,
                    "duration": 0.06535933333333332
                },
                {
                    "name": "F#5",
                    "midi": 78,
                    "time": 87.74490499999999,
                    "velocity": 0.7244094488188977,
                    "duration": 0.06535933333333332
                },
                {
                    "name": "E5",
                    "midi": 76,
                    "time": 87.84294399999999,
                    "velocity": 0.7244094488188977,
                    "duration": 0.06535933333333332
                },
                {
                    "name": "G5",
                    "midi": 79,
                    "time": 87.94098299999999,
                    "velocity": 0.7244094488188977,
                    "duration": 0.06535933333333332
                },
                {
                    "name": "F#5",
                    "midi": 78,
                    "time": 88.03902199999999,
                    "velocity": 0.7244094488188977,
                    "duration": 0.06535933333333332
                },
                {
                    "name": "G5",
                    "midi": 79,
                    "time": 88.13706099999999,
                    "velocity": 0.7244094488188977,
                    "duration": 0.06535933333333332
                },
                {
                    "name": "A5",
                    "midi": 81,
                    "time": 88.23509999999999,
                    "velocity": 0.7244094488188977,
                    "duration": 0.06535933333333332
                },
                {
                    "name": "G5",
                    "midi": 79,
                    "time": 88.33313899999999,
                    "velocity": 0.7244094488188977,
                    "duration": 0.06535933333333332
                },
                {
                    "name": "F#5",
                    "midi": 78,
                    "time": 88.43117799999999,
                    "velocity": 0.7244094488188977,
                    "duration": 0.06535933333333332
                },
                {
                    "name": "E5",
                    "midi": 76,
                    "time": 88.52921699999999,
                    "velocity": 0.7244094488188977,
                    "duration": 0.06535933333333332
                },
                {
                    "name": "D#5",
                    "midi": 75,
                    "time": 88.62725599999999,
                    "velocity": 0.7244094488188977,
                    "duration": 0.06535933333333332
                },
                {
                    "name": "E5",
                    "midi": 76,
                    "time": 89.41156799999999,
                    "velocity": 0.7244094488188977,
                    "duration": 0.06535933333333332
                },
                {
                    "name": "G#5",
                    "midi": 80,
                    "time": 89.50960699999999,
                    "velocity": 0.7244094488188977,
                    "duration": 0.06535933333333332
                },
                {
                    "name": "B5",
                    "midi": 83,
                    "time": 89.60764599999999,
                    "velocity": 0.7244094488188977,
                    "duration": 0.06535933333333332
                },
                {
                    "name": "A5",
                    "midi": 81,
                    "time": 89.70568499999999,
                    "velocity": 0.7244094488188977,
                    "duration": 0.06535933333333332
                },
                {
                    "name": "G#5",
                    "midi": 80,
                    "time": 89.80372399999999,
                    "velocity": 0.7244094488188977,
                    "duration": 0.06535933333333332
                },
                {
                    "name": "F5",
                    "midi": 77,
                    "time": 89.90176299999999,
                    "velocity": 0.7244094488188977,
                    "duration": 0.06535933333333332
                },
                {
                    "name": "E5",
                    "midi": 76,
                    "time": 89.99980199999999,
                    "velocity": 0.7244094488188977,
                    "duration": 0.06535933333333332
                },
                {
                    "name": "D5",
                    "midi": 74,
                    "time": 90.09784099999999,
                    "velocity": 0.7244094488188977,
                    "duration": 0.06535933333333332
                },
                {
                    "name": "C#5",
                    "midi": 73,
                    "time": 90.19587999999999,
                    "velocity": 0.7244094488188977,
                    "duration": 0.06535933333333332
                },
                {
                    "name": "C5",
                    "midi": 72,
                    "time": 90.98019199999999,
                    "velocity": 0.7244094488188977,
                    "duration": 0.06535933333333332
                },
                {
                    "name": "F#5",
                    "midi": 78,
                    "time": 91.07823099999999,
                    "velocity": 0.7244094488188977,
                    "duration": 0.06535933333333332
                },
                {
                    "name": "A5",
                    "midi": 81,
                    "time": 91.17626999999999,
                    "velocity": 0.7244094488188977,
                    "duration": 0.06535933333333332
                },
                {
                    "name": "G5",
                    "midi": 79,
                    "time": 91.27430899999999,
                    "velocity": 0.7244094488188977,
                    "duration": 0.06535933333333332
                },
                {
                    "name": "F#5",
                    "midi": 78,
                    "time": 91.37234799999999,
                    "velocity": 0.7244094488188977,
                    "duration": 0.06535933333333332
                },
                {
                    "name": "E5",
                    "midi": 76,
                    "time": 91.47038699999999,
                    "velocity": 0.7244094488188977,
                    "duration": 0.06535933333333332
                },
                {
                    "name": "D5",
                    "midi": 74,
                    "time": 91.56842599999999,
                    "velocity": 0.7244094488188977,
                    "duration": 0.06535933333333332
                },
                {
                    "name": "C5",
                    "midi": 72,
                    "time": 91.66646499999999,
                    "velocity": 0.7244094488188977,
                    "duration": 0.06535933333333332
                },
                {
                    "name": "B4",
                    "midi": 71,
                    "time": 91.76450399999999,
                    "velocity": 0.7244094488188977,
                    "duration": 0.06535933333333332
                },
                {
                    "name": "A#4",
                    "midi": 70,
                    "time": 92.54881599999999,
                    "velocity": 0.7244094488188977,
                    "duration": 0.06535933333333332
                },
                {
                    "name": "E5",
                    "midi": 76,
                    "time": 92.64685499999999,
                    "velocity": 0.7244094488188977,
                    "duration": 0.06535933333333332
                },
                {
                    "name": "G5",
                    "midi": 79,
                    "time": 92.74489399999999,
                    "velocity": 0.7244094488188977,
                    "duration": 0.06535933333333332
                },
                {
                    "name": "F5",
                    "midi": 77,
                    "time": 92.84293299999999,
                    "velocity": 0.7244094488188977,
                    "duration": 0.06535933333333332
                },
                {
                    "name": "E5",
                    "midi": 76,
                    "time": 92.94097199999999,
                    "velocity": 0.7244094488188977,
                    "duration": 0.06535933333333332
                },
                {
                    "name": "D5",
                    "midi": 74,
                    "time": 93.03901099999999,
                    "velocity": 0.7244094488188977,
                    "duration": 0.06535933333333332
                },
                {
                    "name": "C5",
                    "midi": 72,
                    "time": 93.13704999999999,
                    "velocity": 0.7244094488188977,
                    "duration": 0.06535933333333332
                },
                {
                    "name": "A#4",
                    "midi": 70,
                    "time": 93.23508899999999,
                    "velocity": 0.7244094488188977,
                    "duration": 0.06535933333333332
                },
                {
                    "name": "A4",
                    "midi": 69,
                    "time": 93.33312799999999,
                    "velocity": 0.7244094488188977,
                    "duration": 0.0939540416666631
                },
                {
                    "name": "D5",
                    "midi": 74,
                    "time": 94.11743999999999,
                    "velocity": 0.7244094488188977,
                    "duration": 0.06535933333333332
                },
                {
                    "name": "E5",
                    "midi": 76,
                    "time": 94.21547899999999,
                    "velocity": 0.7244094488188977,
                    "duration": 0.06535933333333332
                },
                {
                    "name": "F5",
                    "midi": 77,
                    "time": 94.31351799999999,
                    "velocity": 0.7244094488188977,
                    "duration": 0.06535933333333332
                },
                {
                    "name": "G5",
                    "midi": 79,
                    "time": 94.41155699999999,
                    "velocity": 0.7244094488188977,
                    "duration": 0.06535933333333332
                },
                {
                    "name": "A5",
                    "midi": 81,
                    "time": 94.50959599999999,
                    "velocity": 0.7244094488188977,
                    "duration": 0.06535933333333332
                },
                {
                    "name": "A#5",
                    "midi": 82,
                    "time": 94.60763499999999,
                    "velocity": 0.7244094488188977,
                    "duration": 0.06535933333333332
                },
                {
                    "name": "C6",
                    "midi": 84,
                    "time": 94.70567399999999,
                    "velocity": 0.7244094488188977,
                    "duration": 0.06535933333333332
                },
                {
                    "name": "D6",
                    "midi": 86,
                    "time": 94.80371299999999,
                    "velocity": 0.7244094488188977,
                    "duration": 0.06535933333333332
                },
                {
                    "name": "D6",
                    "midi": 86,
                    "time": 94.90175199999999,
                    "velocity": 0.7244094488188977,
                    "duration": 0.06535933333333332
                },
                {
                    "name": "C6",
                    "midi": 84,
                    "time": 94.99979099999999,
                    "velocity": 0.7244094488188977,
                    "duration": 0.06535933333333332
                },
                {
                    "name": "A#5",
                    "midi": 82,
                    "time": 95.09782999999999,
                    "velocity": 0.7244094488188977,
                    "duration": 0.06535933333333332
                },
                {
                    "name": "A5",
                    "midi": 81,
                    "time": 95.19586899999999,
                    "velocity": 0.7244094488188977,
                    "duration": 0.06535933333333332
                },
                {
                    "name": "C6",
                    "midi": 84,
                    "time": 95.29390799999999,
                    "velocity": 0.7244094488188977,
                    "duration": 0.06535933333333332
                },
                {
                    "name": "A#5",
                    "midi": 82,
                    "time": 95.39194699999999,
                    "velocity": 0.7244094488188977,
                    "duration": 0.06535933333333332
                },
                {
                    "name": "A5",
                    "midi": 81,
                    "time": 95.48998599999999,
                    "velocity": 0.7244094488188977,
                    "duration": 0.06535933333333332
                },
                {
                    "name": "G5",
                    "midi": 79,
                    "time": 95.58802499999999,
                    "velocity": 0.7244094488188977,
                    "duration": 0.06535933333333332
                },
                {
                    "name": "F5",
                    "midi": 77,
                    "time": 95.68606399999999,
                    "velocity": 0.7244094488188977,
                    "duration": 0.1919930416666631
                },
                {
                    "name": "G#5",
                    "midi": 80,
                    "time": 108.23505599999999,
                    "velocity": 0.7244094488188977,
                    "duration": 0.06535933333333332
                },
                {
                    "name": "E5",
                    "midi": 76,
                    "time": 108.33309499999999,
                    "velocity": 0.7244094488188977,
                    "duration": 0.06535933333333332
                },
                {
                    "name": "D5",
                    "midi": 74,
                    "time": 108.43113399999999,
                    "velocity": 0.7244094488188977,
                    "duration": 0.06535933333333332
                },
                {
                    "name": "E5",
                    "midi": 76,
                    "time": 108.52917299999999,
                    "velocity": 0.7244094488188977,
                    "duration": 0.06535933333333332
                },
                {
                    "name": "F5",
                    "midi": 77,
                    "time": 108.62721199999999,
                    "velocity": 0.7244094488188977,
                    "duration": 0.06535933333333332
                },
                {
                    "name": "E5",
                    "midi": 76,
                    "time": 108.72525099999999,
                    "velocity": 0.7244094488188977,
                    "duration": 0.06535933333333332
                },
                {
                    "name": "D5",
                    "midi": 74,
                    "time": 108.82328999999999,
                    "velocity": 0.7244094488188977,
                    "duration": 0.06535933333333332
                },
                {
                    "name": "E5",
                    "midi": 76,
                    "time": 108.92132899999999,
                    "velocity": 0.7244094488188977,
                    "duration": 0.06535933333333332
                },
                {
                    "name": "G#5",
                    "midi": 80,
                    "time": 109.01936799999999,
                    "velocity": 0.7244094488188977,
                    "duration": 0.06535933333333332
                },
                {
                    "name": "E5",
                    "midi": 76,
                    "time": 109.11740699999999,
                    "velocity": 0.7244094488188977,
                    "duration": 0.06535933333333332
                },
                {
                    "name": "D#5",
                    "midi": 75,
                    "time": 109.21544599999999,
                    "velocity": 0.7244094488188977,
                    "duration": 0.06535933333333332
                },
                {
                    "name": "E5",
                    "midi": 76,
                    "time": 109.31348499999999,
                    "velocity": 0.7244094488188977,
                    "duration": 0.06535933333333332
                },
                {
                    "name": "B5",
                    "midi": 83,
                    "time": 109.41152399999999,
                    "velocity": 0.7244094488188977,
                    "duration": 0.06535933333333332
                },
                {
                    "name": "E5",
                    "midi": 76,
                    "time": 109.50956299999999,
                    "velocity": 0.7244094488188977,
                    "duration": 0.06535933333333332
                },
                {
                    "name": "D#5",
                    "midi": 75,
                    "time": 109.60760199999999,
                    "velocity": 0.7244094488188977,
                    "duration": 0.06535933333333332
                },
                {
                    "name": "E5",
                    "midi": 76,
                    "time": 109.70564099999999,
                    "velocity": 0.7244094488188977,
                    "duration": 0.06535933333333332
                },
                {
                    "name": "C6",
                    "midi": 84,
                    "time": 109.80367999999999,
                    "velocity": 0.7244094488188977,
                    "duration": 0.06535933333333332
                },
                {
                    "name": "D6",
                    "midi": 86,
                    "time": 109.90171899999999,
                    "velocity": 0.7244094488188977,
                    "duration": 0.06535933333333332
                },
                {
                    "name": "C6",
                    "midi": 84,
                    "time": 109.99975799999999,
                    "velocity": 0.7244094488188977,
                    "duration": 0.06535933333333332
                },
                {
                    "name": "B5",
                    "midi": 83,
                    "time": 110.09779699999999,
                    "velocity": 0.7244094488188977,
                    "duration": 0.06535933333333332
                },
                {
                    "name": "A5",
                    "midi": 81,
                    "time": 110.19583599999999,
                    "velocity": 0.7244094488188977,
                    "duration": 0.06535933333333332
                },
                {
                    "name": "B5",
                    "midi": 83,
                    "time": 110.29387499999999,
                    "velocity": 0.7244094488188977,
                    "duration": 0.06535933333333332
                },
                {
                    "name": "A5",
                    "midi": 81,
                    "time": 110.39191399999999,
                    "velocity": 0.7244094488188977,
                    "duration": 0.06535933333333332
                },
                {
                    "name": "G#5",
                    "midi": 80,
                    "time": 110.48995299999999,
                    "velocity": 0.7244094488188977,
                    "duration": 0.06535933333333332
                },
                {
                    "name": "A5",
                    "midi": 81,
                    "time": 110.58799199999999,
                    "velocity": 0.7244094488188977,
                    "duration": 0.06535933333333332
                },
                {
                    "name": "E5",
                    "midi": 76,
                    "time": 110.68603099999999,
                    "velocity": 0.7244094488188977,
                    "duration": 0.06535933333333332
                },
                {
                    "name": "F5",
                    "midi": 77,
                    "time": 110.78406999999999,
                    "velocity": 0.7244094488188977,
                    "duration": 0.06535933333333332
                },
                {
                    "name": "E5",
                    "midi": 76,
                    "time": 110.88210899999999,
                    "velocity": 0.7244094488188977,
                    "duration": 0.06535933333333332
                },
                {
                    "name": "D5",
                    "midi": 74,
                    "time": 110.98014799999999,
                    "velocity": 0.7244094488188977,
                    "duration": 0.06535933333333332
                },
                {
                    "name": "C5",
                    "midi": 72,
                    "time": 111.07818699999999,
                    "velocity": 0.7244094488188977,
                    "duration": 0.06535933333333332
                },
                {
                    "name": "B4",
                    "midi": 71,
                    "time": 111.17622599999999,
                    "velocity": 0.7244094488188977,
                    "duration": 0.06535933333333332
                },
                {
                    "name": "A4",
                    "midi": 69,
                    "time": 111.27426499999999,
                    "velocity": 0.7244094488188977,
                    "duration": 0.06535933333333332
                },
                {
                    "name": "G#4",
                    "midi": 68,
                    "time": 111.37230399999999,
                    "velocity": 0.7244094488188977,
                    "duration": 0.06535933333333332
                },
                {
                    "name": "E4",
                    "midi": 64,
                    "time": 111.47034299999999,
                    "velocity": 0.7244094488188977,
                    "duration": 0.06535933333333332
                },
                {
                    "name": "D#4",
                    "midi": 63,
                    "time": 111.56838199999999,
                    "velocity": 0.7244094488188977,
                    "duration": 0.06535933333333332
                },
                {
                    "name": "E4",
                    "midi": 64,
                    "time": 111.66642099999999,
                    "velocity": 0.7244094488188977,
                    "duration": 0.06535933333333332
                },
                {
                    "name": "F4",
                    "midi": 65,
                    "time": 111.76445999999999,
                    "velocity": 0.7244094488188977,
                    "duration": 0.06535933333333332
                },
                {
                    "name": "E4",
                    "midi": 64,
                    "time": 111.86249899999999,
                    "velocity": 0.7244094488188977,
                    "duration": 0.06535933333333332
                },
                {
                    "name": "D#4",
                    "midi": 63,
                    "time": 111.96053799999999,
                    "velocity": 0.7244094488188977,
                    "duration": 0.06535933333333332
                },
                {
                    "name": "E4",
                    "midi": 64,
                    "time": 112.05857699999999,
                    "velocity": 0.7244094488188977,
                    "duration": 0.06535933333333332
                },
                {
                    "name": "G#4",
                    "midi": 68,
                    "time": 112.15661599999999,
                    "velocity": 0.7244094488188977,
                    "duration": 0.06535933333333332
                },
                {
                    "name": "E4",
                    "midi": 64,
                    "time": 112.25465499999999,
                    "velocity": 0.7244094488188977,
                    "duration": 0.06535933333333332
                },
                {
                    "name": "D#4",
                    "midi": 63,
                    "time": 112.35269399999999,
                    "velocity": 0.7244094488188977,
                    "duration": 0.06535933333333332
                },
                {
                    "name": "E4",
                    "midi": 64,
                    "time": 112.45073299999999,
                    "velocity": 0.7244094488188977,
                    "duration": 0.06535933333333332
                },
                {
                    "name": "B4",
                    "midi": 71,
                    "time": 112.54877199999999,
                    "velocity": 0.7244094488188977,
                    "duration": 0.06535933333333332
                },
                {
                    "name": "E4",
                    "midi": 64,
                    "time": 112.64681099999999,
                    "velocity": 0.7244094488188977,
                    "duration": 0.06535933333333332
                },
                {
                    "name": "D#4",
                    "midi": 63,
                    "time": 112.74484999999999,
                    "velocity": 0.7244094488188977,
                    "duration": 0.06535933333333332
                },
                {
                    "name": "E4",
                    "midi": 64,
                    "time": 112.84288899999999,
                    "velocity": 0.7244094488188977,
                    "duration": 0.06535933333333332
                },
                {
                    "name": "C5",
                    "midi": 72,
                    "time": 112.94092799999999,
                    "velocity": 0.7244094488188977,
                    "duration": 0.06535933333333332
                },
                {
                    "name": "D5",
                    "midi": 74,
                    "time": 113.03896699999999,
                    "velocity": 0.7244094488188977,
                    "duration": 0.06535933333333332
                },
                {
                    "name": "C5",
                    "midi": 72,
                    "time": 113.13700599999999,
                    "velocity": 0.7244094488188977,
                    "duration": 0.06535933333333332
                },
                {
                    "name": "B4",
                    "midi": 71,
                    "time": 113.23504499999999,
                    "velocity": 0.7244094488188977,
                    "duration": 0.06535933333333332
                },
                {
                    "name": "A4",
                    "midi": 69,
                    "time": 113.33308399999999,
                    "velocity": 0.7244094488188977,
                    "duration": 0.06535933333333332
                },
                {
                    "name": "B4",
                    "midi": 71,
                    "time": 113.43112299999999,
                    "velocity": 0.7244094488188977,
                    "duration": 0.06535933333333332
                },
                {
                    "name": "A4",
                    "midi": 69,
                    "time": 113.52916199999999,
                    "velocity": 0.7244094488188977,
                    "duration": 0.06535933333333332
                },
                {
                    "name": "G#4",
                    "midi": 68,
                    "time": 113.62720099999999,
                    "velocity": 0.7244094488188977,
                    "duration": 0.06535933333333332
                },
                {
                    "name": "A4",
                    "midi": 69,
                    "time": 113.72523999999999,
                    "velocity": 0.7244094488188977,
                    "duration": 0.06535933333333332
                },
                {
                    "name": "E4",
                    "midi": 64,
                    "time": 113.82327899999999,
                    "velocity": 0.7244094488188977,
                    "duration": 0.06535933333333332
                },
                {
                    "name": "F4",
                    "midi": 65,
                    "time": 113.92131799999999,
                    "velocity": 0.7244094488188977,
                    "duration": 0.06535933333333332
                },
                {
                    "name": "E4",
                    "midi": 64,
                    "time": 114.01935699999999,
                    "velocity": 0.7244094488188977,
                    "duration": 0.06535933333333332
                },
                {
                    "name": "D4",
                    "midi": 62,
                    "time": 114.11739599999999,
                    "velocity": 0.7244094488188977,
                    "duration": 0.06535933333333332
                },
                {
                    "name": "C4",
                    "midi": 60,
                    "time": 114.21543499999999,
                    "velocity": 0.7244094488188977,
                    "duration": 0.06535933333333332
                },
                {
                    "name": "B3",
                    "midi": 59,
                    "time": 114.31347399999999,
                    "velocity": 0.7244094488188977,
                    "duration": 0.06535933333333332
                },
                {
                    "name": "A3",
                    "midi": 57,
                    "time": 114.41151299999999,
                    "velocity": 0.7244094488188977,
                    "duration": 0.06535933333333332
                },
                {
                    "name": "E4",
                    "midi": 64,
                    "time": 114.50955199999999,
                    "velocity": 0.7244094488188977,
                    "duration": 0.06535933333333332
                },
                {
                    "name": "E5",
                    "midi": 76,
                    "time": 114.60759099999999,
                    "velocity": 0.7244094488188977,
                    "duration": 0.06535933333333332
                },
                {
                    "name": "F5",
                    "midi": 77,
                    "time": 114.70562999999999,
                    "velocity": 0.7244094488188977,
                    "duration": 0.06535933333333332
                },
                {
                    "name": "E5",
                    "midi": 76,
                    "time": 114.80366899999999,
                    "velocity": 0.7244094488188977,
                    "duration": 0.06535933333333332
                },
                {
                    "name": "G#5",
                    "midi": 80,
                    "time": 114.90170799999999,
                    "velocity": 0.7244094488188977,
                    "duration": 0.06535933333333332
                },
                {
                    "name": "E5",
                    "midi": 76,
                    "time": 114.99974699999999,
                    "velocity": 0.7244094488188977,
                    "duration": 0.06535933333333332
                },
                {
                    "name": "F5",
                    "midi": 77,
                    "time": 115.09778599999999,
                    "velocity": 0.7244094488188977,
                    "duration": 0.06535933333333332
                },
                {
                    "name": "E5",
                    "midi": 76,
                    "time": 115.19582499999999,
                    "velocity": 0.7244094488188977,
                    "duration": 0.06535933333333332
                },
                {
                    "name": "A5",
                    "midi": 81,
                    "time": 115.29386399999999,
                    "velocity": 0.7244094488188977,
                    "duration": 0.06535933333333332
                },
                {
                    "name": "E5",
                    "midi": 76,
                    "time": 115.39190299999999,
                    "velocity": 0.7244094488188977,
                    "duration": 0.06535933333333332
                },
                {
                    "name": "F5",
                    "midi": 77,
                    "time": 115.48994199999999,
                    "velocity": 0.7244094488188977,
                    "duration": 0.06535933333333332
                },
                {
                    "name": "E5",
                    "midi": 76,
                    "time": 115.58798099999998,
                    "velocity": 0.7244094488188977,
                    "duration": 0.06535933333333332
                },
                {
                    "name": "B5",
                    "midi": 83,
                    "time": 115.68601999999998,
                    "velocity": 0.7244094488188977,
                    "duration": 0.06535933333333332
                },
                {
                    "name": "E5",
                    "midi": 76,
                    "time": 115.78405899999998,
                    "velocity": 0.7244094488188977,
                    "duration": 0.06535933333333332
                },
                {
                    "name": "F5",
                    "midi": 77,
                    "time": 115.88209799999998,
                    "velocity": 0.7244094488188977,
                    "duration": 0.06535933333333332
                },
                {
                    "name": "E5",
                    "midi": 76,
                    "time": 115.98013699999998,
                    "velocity": 0.7244094488188977,
                    "duration": 0.06535933333333332
                },
                {
                    "name": "C6",
                    "midi": 84,
                    "time": 116.07817599999998,
                    "velocity": 0.7244094488188977,
                    "duration": 0.06535933333333332
                },
                {
                    "name": "A5",
                    "midi": 81,
                    "time": 116.17621499999998,
                    "velocity": 0.7244094488188977,
                    "duration": 0.06535933333333332
                },
                {
                    "name": "B5",
                    "midi": 83,
                    "time": 116.27425399999998,
                    "velocity": 0.7244094488188977,
                    "duration": 0.06535933333333332
                },
                {
                    "name": "A5",
                    "midi": 81,
                    "time": 116.37229299999998,
                    "velocity": 0.7244094488188977,
                    "duration": 0.06535933333333332
                },
                {
                    "name": "C#6",
                    "midi": 85,
                    "time": 116.47033199999998,
                    "velocity": 0.7244094488188977,
                    "duration": 0.06535933333333332
                },
                {
                    "name": "A5",
                    "midi": 81,
                    "time": 116.56837099999998,
                    "velocity": 0.7244094488188977,
                    "duration": 0.06535933333333332
                },
                {
                    "name": "A#5",
                    "midi": 82,
                    "time": 116.66640999999998,
                    "velocity": 0.7244094488188977,
                    "duration": 0.06535933333333332
                },
                {
                    "name": "A5",
                    "midi": 81,
                    "time": 116.76444899999998,
                    "velocity": 0.7244094488188977,
                    "duration": 0.06535933333333332
                },
                {
                    "name": "D6",
                    "midi": 86,
                    "time": 116.86248799999998,
                    "velocity": 0.7244094488188977,
                    "duration": 0.06535933333333332
                },
                {
                    "name": "A5",
                    "midi": 81,
                    "time": 116.96052699999998,
                    "velocity": 0.7244094488188977,
                    "duration": 0.06535933333333332
                },
                {
                    "name": "A#5",
                    "midi": 82,
                    "time": 117.05856599999998,
                    "velocity": 0.7244094488188977,
                    "duration": 0.06535933333333332
                },
                {
                    "name": "A5",
                    "midi": 81,
                    "time": 117.15660499999998,
                    "velocity": 0.7244094488188977,
                    "duration": 0.06535933333333332
                },
                {
                    "name": "E6",
                    "midi": 88,
                    "time": 117.25464399999998,
                    "velocity": 0.7244094488188977,
                    "duration": 0.06535933333333332
                },
                {
                    "name": "A5",
                    "midi": 81,
                    "time": 117.35268299999998,
                    "velocity": 0.7244094488188977,
                    "duration": 0.06535933333333332
                },
                {
                    "name": "A#5",
                    "midi": 82,
                    "time": 117.45072199999998,
                    "velocity": 0.7244094488188977,
                    "duration": 0.06535933333333332
                },
                {
                    "name": "A5",
                    "midi": 81,
                    "time": 117.54876099999998,
                    "velocity": 0.7244094488188977,
                    "duration": 0.06535933333333332
                },
                {
                    "name": "F6",
                    "midi": 89,
                    "time": 117.64679999999998,
                    "velocity": 0.7244094488188977,
                    "duration": 0.06535933333333332
                },
                {
                    "name": "E6",
                    "midi": 88,
                    "time": 117.74483899999998,
                    "velocity": 0.7244094488188977,
                    "duration": 0.06535933333333332
                },
                {
                    "name": "D6",
                    "midi": 86,
                    "time": 117.84287799999998,
                    "velocity": 0.7244094488188977,
                    "duration": 0.06535933333333332
                },
                {
                    "name": "C#6",
                    "midi": 85,
                    "time": 117.94091699999998,
                    "velocity": 0.7244094488188977,
                    "duration": 0.06535933333333332
                },
                {
                    "name": "D6",
                    "midi": 86,
                    "time": 118.03895599999998,
                    "velocity": 0.7244094488188977,
                    "duration": 0.06535933333333332
                },
                {
                    "name": "C#6",
                    "midi": 85,
                    "time": 118.13699499999998,
                    "velocity": 0.7244094488188977,
                    "duration": 0.06535933333333332
                },
                {
                    "name": "D6",
                    "midi": 86,
                    "time": 118.23503399999998,
                    "velocity": 0.7244094488188977,
                    "duration": 0.06535933333333332
                },
                {
                    "name": "E6",
                    "midi": 88,
                    "time": 118.33307299999998,
                    "velocity": 0.7244094488188977,
                    "duration": 0.06535933333333332
                },
                {
                    "name": "F6",
                    "midi": 89,
                    "time": 118.43111199999998,
                    "velocity": 0.7244094488188977,
                    "duration": 0.06535933333333332
                },
                {
                    "name": "E6",
                    "midi": 88,
                    "time": 118.52915099999998,
                    "velocity": 0.7244094488188977,
                    "duration": 0.06535933333333332
                },
                {
                    "name": "G6",
                    "midi": 91,
                    "time": 118.62718999999998,
                    "velocity": 0.7244094488188977,
                    "duration": 0.06535933333333332
                },
                {
                    "name": "F6",
                    "midi": 89,
                    "time": 118.72522899999998,
                    "velocity": 0.7244094488188977,
                    "duration": 0.06535933333333332
                },
                {
                    "name": "E6",
                    "midi": 88,
                    "time": 118.82326799999998,
                    "velocity": 0.7244094488188977,
                    "duration": 0.06535933333333332
                },
                {
                    "name": "D6",
                    "midi": 86,
                    "time": 118.92130699999998,
                    "velocity": 0.7244094488188977,
                    "duration": 0.06535933333333332
                },
                {
                    "name": "C6",
                    "midi": 84,
                    "time": 119.01934599999998,
                    "velocity": 0.7244094488188977,
                    "duration": 0.06535933333333332
                },
                {
                    "name": "A#5",
                    "midi": 82,
                    "time": 119.11738499999998,
                    "velocity": 0.7244094488188977,
                    "duration": 0.06535933333333332
                },
                {
                    "name": "A5",
                    "midi": 81,
                    "time": 119.21542399999998,
                    "velocity": 0.7244094488188977,
                    "duration": 0.06535933333333332
                },
                {
                    "name": "G#5",
                    "midi": 80,
                    "time": 119.31346299999998,
                    "velocity": 0.7244094488188977,
                    "duration": 0.06535933333333332
                },
                {
                    "name": "A5",
                    "midi": 81,
                    "time": 119.41150199999998,
                    "velocity": 0.7244094488188977,
                    "duration": 0.06535933333333332
                },
                {
                    "name": "B5",
                    "midi": 83,
                    "time": 119.50954099999998,
                    "velocity": 0.7244094488188977,
                    "duration": 0.06535933333333332
                },
                {
                    "name": "C6",
                    "midi": 84,
                    "time": 119.60757999999998,
                    "velocity": 0.7244094488188977,
                    "duration": 0.06535933333333332
                },
                {
                    "name": "D6",
                    "midi": 86,
                    "time": 119.70561899999998,
                    "velocity": 0.7244094488188977,
                    "duration": 0.06535933333333332
                },
                {
                    "name": "E6",
                    "midi": 88,
                    "time": 119.80365799999998,
                    "velocity": 0.7244094488188977,
                    "duration": 0.06535933333333332
                },
                {
                    "name": "F6",
                    "midi": 89,
                    "time": 119.90169699999998,
                    "velocity": 0.7244094488188977,
                    "duration": 0.06535933333333332
                },
                {
                    "name": "E6",
                    "midi": 88,
                    "time": 119.99973599999998,
                    "velocity": 0.7244094488188977,
                    "duration": 0.06535933333333332
                },
                {
                    "name": "D#6",
                    "midi": 87,
                    "time": 120.09777499999998,
                    "velocity": 0.7244094488188977,
                    "duration": 0.06535933333333332
                },
                {
                    "name": "E6",
                    "midi": 88,
                    "time": 120.19581399999998,
                    "velocity": 0.7244094488188977,
                    "duration": 0.06535933333333332
                },
                {
                    "name": "F6",
                    "midi": 89,
                    "time": 120.29385299999998,
                    "velocity": 0.7244094488188977,
                    "duration": 0.06535933333333332
                },
                {
                    "name": "E6",
                    "midi": 88,
                    "time": 120.39189199999998,
                    "velocity": 0.7244094488188977,
                    "duration": 0.06535933333333332
                },
                {
                    "name": "D#6",
                    "midi": 87,
                    "time": 120.48993099999998,
                    "velocity": 0.7244094488188977,
                    "duration": 0.06535933333333332
                },
                {
                    "name": "C6",
                    "midi": 84,
                    "time": 120.58796999999998,
                    "velocity": 0.7244094488188977,
                    "duration": 0.06535933333333332
                },
                {
                    "name": "B5",
                    "midi": 83,
                    "time": 120.68600899999998,
                    "velocity": 0.7244094488188977,
                    "duration": 0.06535933333333332
                },
                {
                    "name": "A5",
                    "midi": 81,
                    "time": 120.78404799999998,
                    "velocity": 0.7244094488188977,
                    "duration": 0.06535933333333332
                },
                {
                    "name": "A5",
                    "midi": 81,
                    "time": 120.88208699999998,
                    "velocity": 0.7244094488188977,
                    "duration": 0.06535933333333332
                },
                {
                    "name": "A#5",
                    "midi": 82,
                    "time": 120.98012599999998,
                    "velocity": 0.7244094488188977,
                    "duration": 0.06535933333333332
                },
                {
                    "name": "A5",
                    "midi": 81,
                    "time": 121.07816499999998,
                    "velocity": 0.7244094488188977,
                    "duration": 0.06535933333333332
                },
                {
                    "name": "G5",
                    "midi": 79,
                    "time": 121.17620399999998,
                    "velocity": 0.7244094488188977,
                    "duration": 0.06535933333333332
                },
                {
                    "name": "F5",
                    "midi": 77,
                    "time": 121.27424299999998,
                    "velocity": 0.7244094488188977,
                    "duration": 0.06535933333333332
                },
                {
                    "name": "E5",
                    "midi": 76,
                    "time": 121.37228199999998,
                    "velocity": 0.7244094488188977,
                    "duration": 0.06535933333333332
                },
                {
                    "name": "G5",
                    "midi": 79,
                    "time": 121.47032099999998,
                    "velocity": 0.7244094488188977,
                    "duration": 0.06535933333333332
                },
                {
                    "name": "F5",
                    "midi": 77,
                    "time": 121.56835999999998,
                    "velocity": 0.7244094488188977,
                    "duration": 0.06535933333333332
                },
                {
                    "name": "E5",
                    "midi": 76,
                    "time": 121.66639899999998,
                    "velocity": 0.7244094488188977,
                    "duration": 0.06535933333333332
                },
                {
                    "name": "D5",
                    "midi": 74,
                    "time": 121.76443799999998,
                    "velocity": 0.7244094488188977,
                    "duration": 0.06535933333333332
                },
                {
                    "name": "F5",
                    "midi": 77,
                    "time": 121.86247699999998,
                    "velocity": 0.7244094488188977,
                    "duration": 0.06535933333333332
                },
                {
                    "name": "E5",
                    "midi": 76,
                    "time": 121.96051599999998,
                    "velocity": 0.7244094488188977,
                    "duration": 0.06535933333333332
                },
                {
                    "name": "D5",
                    "midi": 74,
                    "time": 122.05855499999998,
                    "velocity": 0.7244094488188977,
                    "duration": 0.06535933333333332
                },
                {
                    "name": "C#5",
                    "midi": 73,
                    "time": 122.15659399999998,
                    "velocity": 0.7244094488188977,
                    "duration": 0.06535933333333332
                },
                {
                    "name": "E5",
                    "midi": 76,
                    "time": 122.25463299999998,
                    "velocity": 0.7244094488188977,
                    "duration": 0.06535933333333332
                },
                {
                    "name": "D5",
                    "midi": 74,
                    "time": 122.35267199999998,
                    "velocity": 0.7244094488188977,
                    "duration": 0.06535933333333332
                },
                {
                    "name": "E5",
                    "midi": 76,
                    "time": 122.45071099999998,
                    "velocity": 0.7244094488188977,
                    "duration": 0.06535933333333332
                },
                {
                    "name": "F5",
                    "midi": 77,
                    "time": 122.54874999999998,
                    "velocity": 0.7244094488188977,
                    "duration": 0.06535933333333332
                },
                {
                    "name": "G5",
                    "midi": 79,
                    "time": 122.64678899999998,
                    "velocity": 0.7244094488188977,
                    "duration": 0.06535933333333332
                },
                {
                    "name": "F5",
                    "midi": 77,
                    "time": 122.74482799999998,
                    "velocity": 0.7244094488188977,
                    "duration": 0.06535933333333332
                },
                {
                    "name": "E5",
                    "midi": 76,
                    "time": 122.84286699999998,
                    "velocity": 0.7244094488188977,
                    "duration": 0.06535933333333332
                },
                {
                    "name": "D5",
                    "midi": 74,
                    "time": 122.94090599999998,
                    "velocity": 0.7244094488188977,
                    "duration": 0.06535933333333332
                },
                {
                    "name": "F5",
                    "midi": 77,
                    "time": 123.03894499999998,
                    "velocity": 0.7244094488188977,
                    "duration": 0.06535933333333332
                },
                {
                    "name": "E5",
                    "midi": 76,
                    "time": 123.13698399999998,
                    "velocity": 0.7244094488188977,
                    "duration": 0.06535933333333332
                },
                {
                    "name": "D5",
                    "midi": 74,
                    "time": 123.23502299999998,
                    "velocity": 0.7244094488188977,
                    "duration": 0.06535933333333332
                },
                {
                    "name": "C5",
                    "midi": 72,
                    "time": 123.33306199999998,
                    "velocity": 0.7244094488188977,
                    "duration": 0.06535933333333332
                },
                {
                    "name": "E5",
                    "midi": 76,
                    "time": 123.43110099999998,
                    "velocity": 0.7244094488188977,
                    "duration": 0.06535933333333332
                },
                {
                    "name": "D5",
                    "midi": 74,
                    "time": 123.52913999999998,
                    "velocity": 0.7244094488188977,
                    "duration": 0.06535933333333332
                },
                {
                    "name": "C5",
                    "midi": 72,
                    "time": 123.62717899999998,
                    "velocity": 0.7244094488188977,
                    "duration": 0.06535933333333332
                },
                {
                    "name": "B4",
                    "midi": 71,
                    "time": 123.72521799999998,
                    "velocity": 0.7244094488188977,
                    "duration": 0.06535933333333332
                },
                {
                    "name": "D5",
                    "midi": 74,
                    "time": 123.82325699999998,
                    "velocity": 0.7244094488188977,
                    "duration": 0.06535933333333332
                },
                {
                    "name": "C5",
                    "midi": 72,
                    "time": 123.92129599999998,
                    "velocity": 0.7244094488188977,
                    "duration": 0.06535933333333332
                },
                {
                    "name": "D5",
                    "midi": 74,
                    "time": 124.01933499999998,
                    "velocity": 0.7244094488188977,
                    "duration": 0.06535933333333332
                },
                {
                    "name": "E5",
                    "midi": 76,
                    "time": 124.11737399999998,
                    "velocity": 0.7244094488188977,
                    "duration": 0.06535933333333332
                },
                {
                    "name": "F5",
                    "midi": 77,
                    "time": 124.21541299999998,
                    "velocity": 0.7244094488188977,
                    "duration": 0.06535933333333332
                },
                {
                    "name": "E5",
                    "midi": 76,
                    "time": 124.31345199999998,
                    "velocity": 0.7244094488188977,
                    "duration": 0.06535933333333332
                },
                {
                    "name": "D5",
                    "midi": 74,
                    "time": 124.41149099999998,
                    "velocity": 0.7244094488188977,
                    "duration": 0.06535933333333332
                },
                {
                    "name": "C5",
                    "midi": 72,
                    "time": 124.50952999999998,
                    "velocity": 0.7244094488188977,
                    "duration": 0.06535933333333332
                },
                {
                    "name": "E5",
                    "midi": 76,
                    "time": 124.60756899999998,
                    "velocity": 0.7244094488188977,
                    "duration": 0.06535933333333332
                },
                {
                    "name": "D5",
                    "midi": 74,
                    "time": 124.70560799999998,
                    "velocity": 0.7244094488188977,
                    "duration": 0.06535933333333332
                },
                {
                    "name": "C5",
                    "midi": 72,
                    "time": 124.80364699999998,
                    "velocity": 0.7244094488188977,
                    "duration": 0.06535933333333332
                },
                {
                    "name": "B4",
                    "midi": 71,
                    "time": 124.90168599999998,
                    "velocity": 0.7244094488188977,
                    "duration": 0.06535933333333332
                },
                {
                    "name": "D5",
                    "midi": 74,
                    "time": 124.99972499999998,
                    "velocity": 0.7244094488188977,
                    "duration": 0.06535933333333332
                },
                {
                    "name": "C5",
                    "midi": 72,
                    "time": 125.09776399999998,
                    "velocity": 0.7244094488188977,
                    "duration": 0.06535933333333332
                },
                {
                    "name": "B4",
                    "midi": 71,
                    "time": 125.19580299999998,
                    "velocity": 0.7244094488188977,
                    "duration": 0.06535933333333332
                },
                {
                    "name": "A4",
                    "midi": 69,
                    "time": 125.29384199999998,
                    "velocity": 0.7244094488188977,
                    "duration": 0.06535933333333332
                },
                {
                    "name": "C5",
                    "midi": 72,
                    "time": 125.39188099999998,
                    "velocity": 0.7244094488188977,
                    "duration": 0.06535933333333332
                },
                {
                    "name": "B4",
                    "midi": 71,
                    "time": 125.48991999999998,
                    "velocity": 0.7244094488188977,
                    "duration": 0.06535933333333332
                },
                {
                    "name": "D#5",
                    "midi": 75,
                    "time": 125.58795899999998,
                    "velocity": 0.7244094488188977,
                    "duration": 0.06535933333333332
                },
                {
                    "name": "E5",
                    "midi": 76,
                    "time": 125.68599799999998,
                    "velocity": 0.7244094488188977,
                    "duration": 0.06535933333333332
                },
                {
                    "name": "F5",
                    "midi": 77,
                    "time": 125.78403699999998,
                    "velocity": 0.7244094488188977,
                    "duration": 0.06535933333333332
                },
                {
                    "name": "E5",
                    "midi": 76,
                    "time": 125.88207599999998,
                    "velocity": 0.7244094488188977,
                    "duration": 0.06535933333333332
                },
                {
                    "name": "D5",
                    "midi": 74,
                    "time": 125.98011499999998,
                    "velocity": 0.7244094488188977,
                    "duration": 0.06535933333333332
                },
                {
                    "name": "C5",
                    "midi": 72,
                    "time": 126.07815399999998,
                    "velocity": 0.7244094488188977,
                    "duration": 0.06535933333333332
                },
                {
                    "name": "E5",
                    "midi": 76,
                    "time": 126.17619299999998,
                    "velocity": 0.7244094488188977,
                    "duration": 0.06535933333333332
                },
                {
                    "name": "D5",
                    "midi": 74,
                    "time": 126.27423199999998,
                    "velocity": 0.7244094488188977,
                    "duration": 0.06535933333333332
                },
                {
                    "name": "C5",
                    "midi": 72,
                    "time": 126.37227099999998,
                    "velocity": 0.7244094488188977,
                    "duration": 0.06535933333333332
                },
                {
                    "name": "B4",
                    "midi": 71,
                    "time": 126.47030999999998,
                    "velocity": 0.7244094488188977,
                    "duration": 0.06535933333333332
                },
                {
                    "name": "D5",
                    "midi": 74,
                    "time": 126.56834899999998,
                    "velocity": 0.7244094488188977,
                    "duration": 0.06535933333333332
                },
                {
                    "name": "C5",
                    "midi": 72,
                    "time": 126.66638799999998,
                    "velocity": 0.7244094488188977,
                    "duration": 0.06535933333333332
                },
                {
                    "name": "B4",
                    "midi": 71,
                    "time": 126.76442699999998,
                    "velocity": 0.7244094488188977,
                    "duration": 0.06535933333333332
                },
                {
                    "name": "A4",
                    "midi": 69,
                    "time": 126.86246599999998,
                    "velocity": 0.7244094488188977,
                    "duration": 0.06535933333333332
                },
                {
                    "name": "C5",
                    "midi": 72,
                    "time": 126.96050499999998,
                    "velocity": 0.7244094488188977,
                    "duration": 0.06535933333333332
                },
                {
                    "name": "B4",
                    "midi": 71,
                    "time": 127.05854399999998,
                    "velocity": 0.7244094488188977,
                    "duration": 0.06535933333333332
                },
                {
                    "name": "E5",
                    "midi": 76,
                    "time": 127.15658299999998,
                    "velocity": 0.7244094488188977,
                    "duration": 0.06535933333333332
                },
                {
                    "name": "F5",
                    "midi": 77,
                    "time": 127.25462199999998,
                    "velocity": 0.7244094488188977,
                    "duration": 0.06535933333333332
                },
                {
                    "name": "E5",
                    "midi": 76,
                    "time": 127.35266099999998,
                    "velocity": 0.7244094488188977,
                    "duration": 0.06535933333333332
                },
                {
                    "name": "G#5",
                    "midi": 80,
                    "time": 127.45069999999998,
                    "velocity": 0.7244094488188977,
                    "duration": 0.06535933333333332
                },
                {
                    "name": "E5",
                    "midi": 76,
                    "time": 127.54873899999998,
                    "velocity": 0.7244094488188977,
                    "duration": 0.06535933333333332
                },
                {
                    "name": "F5",
                    "midi": 77,
                    "time": 127.64677799999998,
                    "velocity": 0.7244094488188977,
                    "duration": 0.06535933333333332
                },
                {
                    "name": "E5",
                    "midi": 76,
                    "time": 127.74481699999998,
                    "velocity": 0.7244094488188977,
                    "duration": 0.06535933333333332
                },
                {
                    "name": "A5",
                    "midi": 81,
                    "time": 127.84285599999998,
                    "velocity": 0.7244094488188977,
                    "duration": 0.06535933333333332
                },
                {
                    "name": "E5",
                    "midi": 76,
                    "time": 127.94089499999998,
                    "velocity": 0.7244094488188977,
                    "duration": 0.06535933333333332
                },
                {
                    "name": "F5",
                    "midi": 77,
                    "time": 128.03893399999998,
                    "velocity": 0.7244094488188977,
                    "duration": 0.06535933333333332
                },
                {
                    "name": "E5",
                    "midi": 76,
                    "time": 128.13697299999998,
                    "velocity": 0.7244094488188977,
                    "duration": 0.06535933333333332
                },
                {
                    "name": "B5",
                    "midi": 83,
                    "time": 128.23501199999998,
                    "velocity": 0.7244094488188977,
                    "duration": 0.06535933333333332
                },
                {
                    "name": "E5",
                    "midi": 76,
                    "time": 128.33305099999998,
                    "velocity": 0.7244094488188977,
                    "duration": 0.06535933333333332
                },
                {
                    "name": "F5",
                    "midi": 77,
                    "time": 128.43108999999998,
                    "velocity": 0.7244094488188977,
                    "duration": 0.06535933333333332
                },
                {
                    "name": "E5",
                    "midi": 76,
                    "time": 128.52912899999998,
                    "velocity": 0.7244094488188977,
                    "duration": 0.06535933333333332
                },
                {
                    "name": "C6",
                    "midi": 84,
                    "time": 128.62716799999998,
                    "velocity": 0.7244094488188977,
                    "duration": 0.06535933333333332
                },
                {
                    "name": "A5",
                    "midi": 81,
                    "time": 128.72520699999998,
                    "velocity": 0.7244094488188977,
                    "duration": 0.06535933333333332
                },
                {
                    "name": "B5",
                    "midi": 83,
                    "time": 128.82324599999998,
                    "velocity": 0.7244094488188977,
                    "duration": 0.06535933333333332
                },
                {
                    "name": "A5",
                    "midi": 81,
                    "time": 128.92128499999998,
                    "velocity": 0.7244094488188977,
                    "duration": 0.06535933333333332
                },
                {
                    "name": "C#6",
                    "midi": 85,
                    "time": 129.01932399999998,
                    "velocity": 0.7244094488188977,
                    "duration": 0.06535933333333332
                },
                {
                    "name": "A5",
                    "midi": 81,
                    "time": 129.11736299999998,
                    "velocity": 0.7244094488188977,
                    "duration": 0.06535933333333332
                },
                {
                    "name": "A#5",
                    "midi": 82,
                    "time": 129.21540199999998,
                    "velocity": 0.7244094488188977,
                    "duration": 0.06535933333333332
                },
                {
                    "name": "A5",
                    "midi": 81,
                    "time": 129.31344099999998,
                    "velocity": 0.7244094488188977,
                    "duration": 0.06535933333333332
                },
                {
                    "name": "D6",
                    "midi": 86,
                    "time": 129.41147999999998,
                    "velocity": 0.7244094488188977,
                    "duration": 0.06535933333333332
                },
                {
                    "name": "A5",
                    "midi": 81,
                    "time": 129.50951899999998,
                    "velocity": 0.7244094488188977,
                    "duration": 0.06535933333333332
                },
                {
                    "name": "A#5",
                    "midi": 82,
                    "time": 129.60755799999998,
                    "velocity": 0.7244094488188977,
                    "duration": 0.06535933333333332
                },
                {
                    "name": "A5",
                    "midi": 81,
                    "time": 129.70559699999998,
                    "velocity": 0.7244094488188977,
                    "duration": 0.06535933333333332
                },
                {
                    "name": "E6",
                    "midi": 88,
                    "time": 129.80363599999998,
                    "velocity": 0.7244094488188977,
                    "duration": 0.06535933333333332
                },
                {
                    "name": "A5",
                    "midi": 81,
                    "time": 129.90167499999998,
                    "velocity": 0.7244094488188977,
                    "duration": 0.06535933333333332
                },
                {
                    "name": "A#5",
                    "midi": 82,
                    "time": 129.99971399999998,
                    "velocity": 0.7244094488188977,
                    "duration": 0.06535933333333332
                },
                {
                    "name": "A5",
                    "midi": 81,
                    "time": 130.09775299999998,
                    "velocity": 0.7244094488188977,
                    "duration": 0.06535933333333332
                },
                {
                    "name": "F6",
                    "midi": 89,
                    "time": 130.19579199999998,
                    "velocity": 0.7244094488188977,
                    "duration": 0.06535933333333332
                },
                {
                    "name": "E6",
                    "midi": 88,
                    "time": 130.29383099999998,
                    "velocity": 0.7244094488188977,
                    "duration": 0.06535933333333332
                },
                {
                    "name": "D6",
                    "midi": 86,
                    "time": 130.39186999999998,
                    "velocity": 0.7244094488188977,
                    "duration": 0.06535933333333332
                },
                {
                    "name": "C#6",
                    "midi": 85,
                    "time": 130.48990899999998,
                    "velocity": 0.7244094488188977,
                    "duration": 0.06535933333333332
                },
                {
                    "name": "D6",
                    "midi": 86,
                    "time": 130.58794799999998,
                    "velocity": 0.7244094488188977,
                    "duration": 0.06535933333333332
                },
                {
                    "name": "C#6",
                    "midi": 85,
                    "time": 130.68598699999998,
                    "velocity": 0.7244094488188977,
                    "duration": 0.06535933333333332
                },
                {
                    "name": "D6",
                    "midi": 86,
                    "time": 130.78402599999998,
                    "velocity": 0.7244094488188977,
                    "duration": 0.06535933333333332
                },
                {
                    "name": "E6",
                    "midi": 88,
                    "time": 130.88206499999998,
                    "velocity": 0.7244094488188977,
                    "duration": 0.06535933333333332
                },
                {
                    "name": "F6",
                    "midi": 89,
                    "time": 130.98010399999998,
                    "velocity": 0.7244094488188977,
                    "duration": 0.06535933333333332
                },
                {
                    "name": "E6",
                    "midi": 88,
                    "time": 131.07814299999998,
                    "velocity": 0.7244094488188977,
                    "duration": 0.06535933333333332
                },
                {
                    "name": "G6",
                    "midi": 91,
                    "time": 131.17618199999998,
                    "velocity": 0.7244094488188977,
                    "duration": 0.06535933333333332
                },
                {
                    "name": "F6",
                    "midi": 89,
                    "time": 131.27422099999998,
                    "velocity": 0.7244094488188977,
                    "duration": 0.06535933333333332
                },
                {
                    "name": "E6",
                    "midi": 88,
                    "time": 131.37225999999998,
                    "velocity": 0.7244094488188977,
                    "duration": 0.06535933333333332
                },
                {
                    "name": "D6",
                    "midi": 86,
                    "time": 131.47029899999998,
                    "velocity": 0.7244094488188977,
                    "duration": 0.06535933333333332
                },
                {
                    "name": "C6",
                    "midi": 84,
                    "time": 131.56833799999998,
                    "velocity": 0.7244094488188977,
                    "duration": 0.06535933333333332
                },
                {
                    "name": "A#5",
                    "midi": 82,
                    "time": 131.66637699999998,
                    "velocity": 0.7244094488188977,
                    "duration": 0.06535933333333332
                },
                {
                    "name": "A5",
                    "midi": 81,
                    "time": 131.76441599999998,
                    "velocity": 0.7244094488188977,
                    "duration": 0.06535933333333332
                },
                {
                    "name": "B5",
                    "midi": 83,
                    "time": 131.86245499999998,
                    "velocity": 0.7244094488188977,
                    "duration": 0.06535933333333332
                },
                {
                    "name": "A5",
                    "midi": 81,
                    "time": 131.96049399999998,
                    "velocity": 0.7244094488188977,
                    "duration": 0.06535933333333332
                },
                {
                    "name": "G#5",
                    "midi": 80,
                    "time": 132.05853299999998,
                    "velocity": 0.7244094488188977,
                    "duration": 0.06535933333333332
                },
                {
                    "name": "A5",
                    "midi": 81,
                    "time": 132.15657199999998,
                    "velocity": 0.7244094488188977,
                    "duration": 0.06535933333333332
                },
                {
                    "name": "G#5",
                    "midi": 80,
                    "time": 132.25461099999998,
                    "velocity": 0.7244094488188977,
                    "duration": 0.06535933333333332
                },
                {
                    "name": "A5",
                    "midi": 81,
                    "time": 132.35264999999998,
                    "velocity": 0.7244094488188977,
                    "duration": 0.06535933333333332
                },
                {
                    "name": "B5",
                    "midi": 83,
                    "time": 132.45068899999998,
                    "velocity": 0.7244094488188977,
                    "duration": 0.06535933333333332
                },
                {
                    "name": "C6",
                    "midi": 84,
                    "time": 132.54872799999998,
                    "velocity": 0.7244094488188977,
                    "duration": 0.06535933333333332
                },
                {
                    "name": "A5",
                    "midi": 81,
                    "time": 132.64676699999998,
                    "velocity": 0.7244094488188977,
                    "duration": 0.06535933333333332
                },
                {
                    "name": "F#5",
                    "midi": 78,
                    "time": 132.74480599999998,
                    "velocity": 0.7244094488188977,
                    "duration": 0.06535933333333332
                },
                {
                    "name": "D#5",
                    "midi": 75,
                    "time": 132.84284499999998,
                    "velocity": 0.7244094488188977,
                    "duration": 0.06535933333333332
                },
                {
                    "name": "C5",
                    "midi": 72,
                    "time": 132.94088399999998,
                    "velocity": 0.7244094488188977,
                    "duration": 0.06535933333333332
                },
                {
                    "name": "A4",
                    "midi": 69,
                    "time": 133.03892299999998,
                    "velocity": 0.7244094488188977,
                    "duration": 0.06535933333333332
                },
                {
                    "name": "F#4",
                    "midi": 66,
                    "time": 133.13696199999998,
                    "velocity": 0.7244094488188977,
                    "duration": 0.06535933333333332
                },
                {
                    "name": "D#4",
                    "midi": 63,
                    "time": 133.23500099999998,
                    "velocity": 0.7244094488188977,
                    "duration": 0.06535933333333332
                },
                {
                    "name": "E4",
                    "midi": 64,
                    "time": 133.33303999999998,
                    "velocity": 0.7244094488188977,
                    "duration": 0.06535933333333332
                },
                {
                    "name": "A4",
                    "midi": 69,
                    "time": 133.43107899999998,
                    "velocity": 0.7244094488188977,
                    "duration": 0.06535933333333332
                },
                {
                    "name": "G#4",
                    "midi": 68,
                    "time": 133.52911799999998,
                    "velocity": 0.7244094488188977,
                    "duration": 0.06535933333333332
                },
                {
                    "name": "B4",
                    "midi": 71,
                    "time": 133.62715699999998,
                    "velocity": 0.7244094488188977,
                    "duration": 0.06535933333333332
                },
                {
                    "name": "A4",
                    "midi": 69,
                    "time": 133.72519599999998,
                    "velocity": 0.7244094488188977,
                    "duration": 0.06535933333333332
                },
                {
                    "name": "C5",
                    "midi": 72,
                    "time": 133.82323499999998,
                    "velocity": 0.7244094488188977,
                    "duration": 0.06535933333333332
                },
                {
                    "name": "B4",
                    "midi": 71,
                    "time": 133.92127399999998,
                    "velocity": 0.7244094488188977,
                    "duration": 0.06535933333333332
                },
                {
                    "name": "D5",
                    "midi": 74,
                    "time": 134.01931299999998,
                    "velocity": 0.7244094488188977,
                    "duration": 0.06535933333333332
                },
                {
                    "name": "C5",
                    "midi": 72,
                    "time": 134.11735199999998,
                    "velocity": 0.7244094488188977,
                    "duration": 0.06535933333333332
                },
                {
                    "name": "E5",
                    "midi": 76,
                    "time": 134.21539099999998,
                    "velocity": 0.7244094488188977,
                    "duration": 0.06535933333333332
                },
                {
                    "name": "D#5",
                    "midi": 75,
                    "time": 134.31342999999998,
                    "velocity": 0.7244094488188977,
                    "duration": 0.06535933333333332
                },
                {
                    "name": "F5",
                    "midi": 77,
                    "time": 134.41146899999998,
                    "velocity": 0.7244094488188977,
                    "duration": 0.06535933333333332
                },
                {
                    "name": "E5",
                    "midi": 76,
                    "time": 134.50950799999998,
                    "velocity": 0.7244094488188977,
                    "duration": 0.06535933333333332
                },
                {
                    "name": "A5",
                    "midi": 81,
                    "time": 134.60754699999998,
                    "velocity": 0.7244094488188977,
                    "duration": 0.06535933333333332
                },
                {
                    "name": "G#5",
                    "midi": 80,
                    "time": 134.70558599999998,
                    "velocity": 0.7244094488188977,
                    "duration": 0.06535933333333332
                },
                {
                    "name": "B5",
                    "midi": 83,
                    "time": 134.80362499999998,
                    "velocity": 0.7244094488188977,
                    "duration": 0.06535933333333332
                },
                {
                    "name": "A5",
                    "midi": 81,
                    "time": 134.90166399999998,
                    "velocity": 0.7244094488188977,
                    "duration": 0.06535933333333332
                },
                {
                    "name": "C6",
                    "midi": 84,
                    "time": 134.99970299999998,
                    "velocity": 0.7244094488188977,
                    "duration": 0.06535933333333332
                },
                {
                    "name": "B5",
                    "midi": 83,
                    "time": 135.09774199999998,
                    "velocity": 0.7244094488188977,
                    "duration": 0.06535933333333332
                },
                {
                    "name": "D#6",
                    "midi": 87,
                    "time": 135.19578099999998,
                    "velocity": 0.7244094488188977,
                    "duration": 0.06535933333333332
                },
                {
                    "name": "C6",
                    "midi": 84,
                    "time": 135.29381999999998,
                    "velocity": 0.7244094488188977,
                    "duration": 0.06535933333333332
                },
                {
                    "name": "E6",
                    "midi": 88,
                    "time": 135.39185899999998,
                    "velocity": 0.7244094488188977,
                    "duration": 0.06535933333333332
                },
                {
                    "name": "D#6",
                    "midi": 87,
                    "time": 135.48989799999998,
                    "velocity": 0.7244094488188977,
                    "duration": 0.06535933333333332
                },
                {
                    "name": "F6",
                    "midi": 89,
                    "time": 135.58793699999998,
                    "velocity": 0.7244094488188977,
                    "duration": 0.06535933333333332
                },
                {
                    "name": "E6",
                    "midi": 88,
                    "time": 135.68597599999998,
                    "velocity": 0.7244094488188977,
                    "duration": 0.06535933333333332
                },
                {
                    "name": "F6",
                    "midi": 89,
                    "time": 135.78401499999998,
                    "velocity": 0.7244094488188977,
                    "duration": 0.06535933333333332
                },
                {
                    "name": "D#6",
                    "midi": 87,
                    "time": 135.88205399999998,
                    "velocity": 0.7244094488188977,
                    "duration": 0.06535933333333332
                },
                {
                    "name": "F6",
                    "midi": 89,
                    "time": 135.98009299999998,
                    "velocity": 0.7244094488188977,
                    "duration": 0.06535933333333332
                },
                {
                    "name": "E6",
                    "midi": 88,
                    "time": 136.07813199999998,
                    "velocity": 0.7244094488188977,
                    "duration": 0.06535933333333332
                },
                {
                    "name": "F6",
                    "midi": 89,
                    "time": 136.17617099999998,
                    "velocity": 0.7244094488188977,
                    "duration": 0.06535933333333332
                },
                {
                    "name": "D#6",
                    "midi": 87,
                    "time": 136.27420999999998,
                    "velocity": 0.7244094488188977,
                    "duration": 0.06535933333333332
                },
                {
                    "name": "F6",
                    "midi": 89,
                    "time": 136.37224899999998,
                    "velocity": 0.7244094488188977,
                    "duration": 0.06535933333333332
                },
                {
                    "name": "E6",
                    "midi": 88,
                    "time": 136.47028799999998,
                    "velocity": 0.7244094488188977,
                    "duration": 0.06535933333333332
                },
                {
                    "name": "A6",
                    "midi": 93,
                    "time": 136.56832699999998,
                    "velocity": 0.7244094488188977,
                    "duration": 0.06535933333333332
                },
                {
                    "name": "G6",
                    "midi": 91,
                    "time": 136.66636599999998,
                    "velocity": 0.7244094488188977,
                    "duration": 0.06535933333333332
                },
                {
                    "name": "F6",
                    "midi": 89,
                    "time": 136.76440499999998,
                    "velocity": 0.7244094488188977,
                    "duration": 0.06535933333333332
                },
                {
                    "name": "E6",
                    "midi": 88,
                    "time": 136.86244399999998,
                    "velocity": 0.7244094488188977,
                    "duration": 0.06535933333333332
                },
                {
                    "name": "D6",
                    "midi": 86,
                    "time": 136.96048299999998,
                    "velocity": 0.7244094488188977,
                    "duration": 0.06535933333333332
                },
                {
                    "name": "C6",
                    "midi": 84,
                    "time": 137.05852199999998,
                    "velocity": 0.7244094488188977,
                    "duration": 0.06535933333333332
                },
                {
                    "name": "B5",
                    "midi": 83,
                    "time": 137.15656099999998,
                    "velocity": 0.7244094488188977,
                    "duration": 0.06535933333333332
                },
                {
                    "name": "A5",
                    "midi": 81,
                    "time": 137.25459999999998,
                    "velocity": 0.7244094488188977,
                    "duration": 0.06535933333333332
                },
                {
                    "name": "G5",
                    "midi": 79,
                    "time": 137.35263899999998,
                    "velocity": 0.7244094488188977,
                    "duration": 0.06535933333333332
                },
                {
                    "name": "F5",
                    "midi": 77,
                    "time": 137.45067799999998,
                    "velocity": 0.7244094488188977,
                    "duration": 0.06535933333333332
                },
                {
                    "name": "E5",
                    "midi": 76,
                    "time": 137.54871699999998,
                    "velocity": 0.7244094488188977,
                    "duration": 0.06535933333333332
                },
                {
                    "name": "D5",
                    "midi": 74,
                    "time": 137.64675599999998,
                    "velocity": 0.7244094488188977,
                    "duration": 0.06535933333333332
                },
                {
                    "name": "C5",
                    "midi": 72,
                    "time": 137.74479499999998,
                    "velocity": 0.7244094488188977,
                    "duration": 0.06535933333333332
                },
                {
                    "name": "B4",
                    "midi": 71,
                    "time": 137.84283399999998,
                    "velocity": 0.7244094488188977,
                    "duration": 0.06535933333333332
                },
                {
                    "name": "A4",
                    "midi": 69,
                    "time": 137.94087299999998,
                    "velocity": 0.7244094488188977,
                    "duration": 0.06535933333333332
                },
                {
                    "name": "B4",
                    "midi": 71,
                    "time": 138.03891199999998,
                    "velocity": 0.7244094488188977,
                    "duration": 0.06535933333333332
                },
                {
                    "name": "D5",
                    "midi": 74,
                    "time": 138.13695099999998,
                    "velocity": 0.7244094488188977,
                    "duration": 0.06535933333333332
                },
                {
                    "name": "F5",
                    "midi": 77,
                    "time": 138.23498999999998,
                    "velocity": 0.7244094488188977,
                    "duration": 0.06535933333333332
                },
                {
                    "name": "E5",
                    "midi": 76,
                    "time": 138.33302899999998,
                    "velocity": 0.7244094488188977,
                    "duration": 0.06535933333333332
                },
                {
                    "name": "D5",
                    "midi": 74,
                    "time": 138.43106799999998,
                    "velocity": 0.7244094488188977,
                    "duration": 0.06535933333333332
                },
                {
                    "name": "C5",
                    "midi": 72,
                    "time": 138.52910699999998,
                    "velocity": 0.7244094488188977,
                    "duration": 0.06535933333333332
                },
                {
                    "name": "B4",
                    "midi": 71,
                    "time": 138.62714599999998,
                    "velocity": 0.7244094488188977,
                    "duration": 0.06535933333333332
                },
                {
                    "name": "A4",
                    "midi": 69,
                    "time": 138.72518499999998,
                    "velocity": 0.7244094488188977,
                    "duration": 0.06535933333333332
                },
                {
                    "name": "G#4",
                    "midi": 68,
                    "time": 138.82322399999998,
                    "velocity": 0.7244094488188977,
                    "duration": 0.06535933333333332
                },
                {
                    "name": "F4",
                    "midi": 65,
                    "time": 138.92126299999998,
                    "velocity": 0.7244094488188977,
                    "duration": 0.06535933333333332
                },
                {
                    "name": "E4",
                    "midi": 64,
                    "time": 139.01930199999998,
                    "velocity": 0.7244094488188977,
                    "duration": 0.06535933333333332
                },
                {
                    "name": "D4",
                    "midi": 62,
                    "time": 139.11734099999998,
                    "velocity": 0.7244094488188977,
                    "duration": 0.06535933333333332
                },
                {
                    "name": "C4",
                    "midi": 60,
                    "time": 139.21537999999998,
                    "velocity": 0.7244094488188977,
                    "duration": 0.06535933333333332
                },
                {
                    "name": "B3",
                    "midi": 59,
                    "time": 139.31341899999998,
                    "velocity": 0.7244094488188977,
                    "duration": 0.06535933333333332
                },
                {
                    "name": "A3",
                    "midi": 57,
                    "time": 139.41145799999998,
                    "velocity": 0.7244094488188977,
                    "duration": 0.06535933333333332
                },
                {
                    "name": "G#3",
                    "midi": 56,
                    "time": 139.50949699999998,
                    "velocity": 0.7244094488188977,
                    "duration": 0.06535933333333332
                },
                {
                    "name": "A3",
                    "midi": 57,
                    "time": 139.60753599999998,
                    "velocity": 0.7244094488188977,
                    "duration": 0.1919930416666773
                },
                {
                    "name": "G5",
                    "midi": 79,
                    "time": 152.15652799999998,
                    "velocity": 0.7244094488188977,
                    "duration": 0.06535933333333332
                },
                {
                    "name": "G5",
                    "midi": 79,
                    "time": 152.25456699999998,
                    "velocity": 0.7244094488188977,
                    "duration": 0.06535933333333332
                },
                {
                    "name": "F5",
                    "midi": 77,
                    "time": 152.35260599999998,
                    "velocity": 0.7244094488188977,
                    "duration": 0.06535933333333332
                },
                {
                    "name": "G5",
                    "midi": 79,
                    "time": 152.45064499999998,
                    "velocity": 0.7244094488188977,
                    "duration": 0.06535933333333332
                },
                {
                    "name": "A5",
                    "midi": 81,
                    "time": 152.54868399999998,
                    "velocity": 0.7244094488188977,
                    "duration": 0.06535933333333332
                },
                {
                    "name": "G5",
                    "midi": 79,
                    "time": 152.64672299999998,
                    "velocity": 0.7244094488188977,
                    "duration": 0.06535933333333332
                },
                {
                    "name": "F5",
                    "midi": 77,
                    "time": 152.74476199999998,
                    "velocity": 0.7244094488188977,
                    "duration": 0.06535933333333332
                },
                {
                    "name": "G5",
                    "midi": 79,
                    "time": 152.84280099999998,
                    "velocity": 0.7244094488188977,
                    "duration": 0.06535933333333332
                },
                {
                    "name": "B5",
                    "midi": 83,
                    "time": 152.94083999999998,
                    "velocity": 0.7244094488188977,
                    "duration": 0.06535933333333332
                },
                {
                    "name": "G5",
                    "midi": 79,
                    "time": 153.03887899999998,
                    "velocity": 0.7244094488188977,
                    "duration": 0.06535933333333332
                },
                {
                    "name": "F#5",
                    "midi": 78,
                    "time": 153.13691799999998,
                    "velocity": 0.7244094488188977,
                    "duration": 0.06535933333333332
                },
                {
                    "name": "G5",
                    "midi": 79,
                    "time": 153.23495699999998,
                    "velocity": 0.7244094488188977,
                    "duration": 0.06535933333333332
                },
                {
                    "name": "D6",
                    "midi": 86,
                    "time": 153.33299599999998,
                    "velocity": 0.7244094488188977,
                    "duration": 0.06535933333333332
                },
                {
                    "name": "G5",
                    "midi": 79,
                    "time": 153.43103499999998,
                    "velocity": 0.7244094488188977,
                    "duration": 0.06535933333333332
                },
                {
                    "name": "F#5",
                    "midi": 78,
                    "time": 153.52907399999998,
                    "velocity": 0.7244094488188977,
                    "duration": 0.06535933333333332
                },
                {
                    "name": "G5",
                    "midi": 79,
                    "time": 153.62711299999998,
                    "velocity": 0.7244094488188977,
                    "duration": 0.06535933333333332
                },
                {
                    "name": "D#6",
                    "midi": 87,
                    "time": 153.72515199999998,
                    "velocity": 0.7244094488188977,
                    "duration": 0.06535933333333332
                },
                {
                    "name": "F6",
                    "midi": 89,
                    "time": 153.82319099999998,
                    "velocity": 0.7244094488188977,
                    "duration": 0.06535933333333332
                },
                {
                    "name": "D#6",
                    "midi": 87,
                    "time": 153.92122999999998,
                    "velocity": 0.7244094488188977,
                    "duration": 0.06535933333333332
                },
                {
                    "name": "D6",
                    "midi": 86,
                    "time": 154.01926899999998,
                    "velocity": 0.7244094488188977,
                    "duration": 0.06535933333333332
                },
                {
                    "name": "C6",
                    "midi": 84,
                    "time": 154.11730799999998,
                    "velocity": 0.7244094488188977,
                    "duration": 0.06535933333333332
                },
                {
                    "name": "D6",
                    "midi": 86,
                    "time": 154.21534699999998,
                    "velocity": 0.7244094488188977,
                    "duration": 0.06535933333333332
                },
                {
                    "name": "C6",
                    "midi": 84,
                    "time": 154.31338599999998,
                    "velocity": 0.7244094488188977,
                    "duration": 0.06535933333333332
                },
                {
                    "name": "B5",
                    "midi": 83,
                    "time": 154.41142499999998,
                    "velocity": 0.7244094488188977,
                    "duration": 0.06535933333333332
                },
                {
                    "name": "C6",
                    "midi": 84,
                    "time": 154.50946399999998,
                    "velocity": 0.7244094488188977,
                    "duration": 0.06535933333333332
                },
                {
                    "name": "G5",
                    "midi": 79,
                    "time": 154.60750299999998,
                    "velocity": 0.7244094488188977,
                    "duration": 0.06535933333333332
                },
                {
                    "name": "G#5",
                    "midi": 80,
                    "time": 154.70554199999998,
                    "velocity": 0.7244094488188977,
                    "duration": 0.06535933333333332
                },
                {
                    "name": "G5",
                    "midi": 79,
                    "time": 154.80358099999998,
                    "velocity": 0.7244094488188977,
                    "duration": 0.06535933333333332
                },
                {
                    "name": "F5",
                    "midi": 77,
                    "time": 154.90161999999998,
                    "velocity": 0.7244094488188977,
                    "duration": 0.06535933333333332
                },
                {
                    "name": "D#5",
                    "midi": 75,
                    "time": 154.99965899999998,
                    "velocity": 0.7244094488188977,
                    "duration": 0.06535933333333332
                },
                {
                    "name": "D5",
                    "midi": 74,
                    "time": 155.09769799999998,
                    "velocity": 0.7244094488188977,
                    "duration": 0.06535933333333332
                },
                {
                    "name": "C5",
                    "midi": 72,
                    "time": 155.19573699999998,
                    "velocity": 0.7244094488188977,
                    "duration": 0.06535933333333332
                },
                {
                    "name": "B4",
                    "midi": 71,
                    "time": 155.29377599999998,
                    "velocity": 0.7244094488188977,
                    "duration": 0.06535933333333332
                },
                {
                    "name": "G4",
                    "midi": 67,
                    "time": 155.39181499999998,
                    "velocity": 0.7244094488188977,
                    "duration": 0.06535933333333332
                },
                {
                    "name": "F#4",
                    "midi": 66,
                    "time": 155.48985399999998,
                    "velocity": 0.7244094488188977,
                    "duration": 0.06535933333333332
                },
                {
                    "name": "G4",
                    "midi": 67,
                    "time": 155.58789299999998,
                    "velocity": 0.7244094488188977,
                    "duration": 0.06535933333333332
                },
                {
                    "name": "G#4",
                    "midi": 68,
                    "time": 155.68593199999998,
                    "velocity": 0.7244094488188977,
                    "duration": 0.06535933333333332
                },
                {
                    "name": "G4",
                    "midi": 67,
                    "time": 155.78397099999998,
                    "velocity": 0.7244094488188977,
                    "duration": 0.06535933333333332
                },
                {
                    "name": "F#4",
                    "midi": 66,
                    "time": 155.88200999999998,
                    "velocity": 0.7244094488188977,
                    "duration": 0.06535933333333332
                },
                {
                    "name": "G4",
                    "midi": 67,
                    "time": 155.98004899999998,
                    "velocity": 0.7244094488188977,
                    "duration": 0.06535933333333332
                },
                {
                    "name": "B4",
                    "midi": 71,
                    "time": 156.07808799999998,
                    "velocity": 0.7244094488188977,
                    "duration": 0.06535933333333332
                },
                {
                    "name": "G4",
                    "midi": 67,
                    "time": 156.17612699999998,
                    "velocity": 0.7244094488188977,
                    "duration": 0.06535933333333332
                },
                {
                    "name": "F#4",
                    "midi": 66,
                    "time": 156.27416599999998,
                    "velocity": 0.7244094488188977,
                    "duration": 0.06535933333333332
                },
                {
                    "name": "G4",
                    "midi": 67,
                    "time": 156.37220499999998,
                    "velocity": 0.7244094488188977,
                    "duration": 0.06535933333333332
                },
                {
                    "name": "D5",
                    "midi": 74,
                    "time": 156.47024399999998,
                    "velocity": 0.7244094488188977,
                    "duration": 0.06535933333333332
                },
                {
                    "name": "G4",
                    "midi": 67,
                    "time": 156.56828299999998,
                    "velocity": 0.7244094488188977,
                    "duration": 0.06535933333333332
                },
                {
                    "name": "F#4",
                    "midi": 66,
                    "time": 156.66632199999998,
                    "velocity": 0.7244094488188977,
                    "duration": 0.06535933333333332
                },
                {
                    "name": "G4",
                    "midi": 67,
                    "time": 156.76436099999998,
                    "velocity": 0.7244094488188977,
                    "duration": 0.06535933333333332
                },
                {
                    "name": "D#5",
                    "midi": 75,
                    "time": 156.86239999999998,
                    "velocity": 0.7244094488188977,
                    "duration": 0.06535933333333332
                },
                {
                    "name": "F5",
                    "midi": 77,
                    "time": 156.96043899999998,
                    "velocity": 0.7244094488188977,
                    "duration": 0.06535933333333332
                },
                {
                    "name": "D#5",
                    "midi": 75,
                    "time": 157.05847799999998,
                    "velocity": 0.7244094488188977,
                    "duration": 0.06535933333333332
                },
                {
                    "name": "D5",
                    "midi": 74,
                    "time": 157.15651699999998,
                    "velocity": 0.7244094488188977,
                    "duration": 0.06535933333333332
                },
                {
                    "name": "C5",
                    "midi": 72,
                    "time": 157.25455599999998,
                    "velocity": 0.7244094488188977,
                    "duration": 0.06535933333333332
                },
                {
                    "name": "D5",
                    "midi": 74,
                    "time": 157.35259499999998,
                    "velocity": 0.7244094488188977,
                    "duration": 0.06535933333333332
                },
                {
                    "name": "C5",
                    "midi": 72,
                    "time": 157.45063399999998,
                    "velocity": 0.7244094488188977,
                    "duration": 0.06535933333333332
                },
                {
                    "name": "B4",
                    "midi": 71,
                    "time": 157.54867299999998,
                    "velocity": 0.7244094488188977,
                    "duration": 0.06535933333333332
                },
                {
                    "name": "C5",
                    "midi": 72,
                    "time": 157.64671199999998,
                    "velocity": 0.7244094488188977,
                    "duration": 0.06535933333333332
                },
                {
                    "name": "G4",
                    "midi": 67,
                    "time": 157.74475099999998,
                    "velocity": 0.7244094488188977,
                    "duration": 0.06535933333333332
                },
                {
                    "name": "G#4",
                    "midi": 68,
                    "time": 157.84278999999998,
                    "velocity": 0.7244094488188977,
                    "duration": 0.06535933333333332
                },
                {
                    "name": "G4",
                    "midi": 67,
                    "time": 157.94082899999998,
                    "velocity": 0.7244094488188977,
                    "duration": 0.06535933333333332
                },
                {
                    "name": "F4",
                    "midi": 65,
                    "time": 158.03886799999998,
                    "velocity": 0.7244094488188977,
                    "duration": 0.06535933333333332
                },
                {
                    "name": "D#4",
                    "midi": 63,
                    "time": 158.13690699999998,
                    "velocity": 0.7244094488188977,
                    "duration": 0.06535933333333332
                },
                {
                    "name": "D4",
                    "midi": 62,
                    "time": 158.23494599999998,
                    "velocity": 0.7244094488188977,
                    "duration": 0.06535933333333332
                },
                {
                    "name": "C4",
                    "midi": 60,
                    "time": 158.33298499999998,
                    "velocity": 0.7244094488188977,
                    "duration": 0.06535933333333332
                },
                {
                    "name": "G3",
                    "midi": 55,
                    "time": 158.43102399999998,
                    "velocity": 0.7244094488188977,
                    "duration": 0.06535933333333332
                },
                {
                    "name": "B3",
                    "midi": 59,
                    "time": 158.52906299999998,
                    "velocity": 0.7244094488188977,
                    "duration": 0.06535933333333332
                },
                {
                    "name": "D4",
                    "midi": 62,
                    "time": 158.62710199999998,
                    "velocity": 0.7244094488188977,
                    "duration": 0.06535933333333332
                },
                {
                    "name": "G4",
                    "midi": 67,
                    "time": 158.72514099999998,
                    "velocity": 0.7244094488188977,
                    "duration": 0.06535933333333332
                },
                {
                    "name": "C5",
                    "midi": 72,
                    "time": 158.82317999999998,
                    "velocity": 0.7244094488188977,
                    "duration": 0.06535933333333332
                },
                {
                    "name": "G4",
                    "midi": 67,
                    "time": 158.92121899999998,
                    "velocity": 0.7244094488188977,
                    "duration": 0.06535933333333332
                },
                {
                    "name": "D#4",
                    "midi": 63,
                    "time": 159.01925799999998,
                    "velocity": 0.7244094488188977,
                    "duration": 0.06535933333333332
                },
                {
                    "name": "C4",
                    "midi": 60,
                    "time": 159.11729699999998,
                    "velocity": 0.7244094488188977,
                    "duration": 0.06535933333333332
                },
                {
                    "name": "G4",
                    "midi": 67,
                    "time": 159.21533599999998,
                    "velocity": 0.7244094488188977,
                    "duration": 0.06535933333333332
                },
                {
                    "name": "B4",
                    "midi": 71,
                    "time": 159.31337499999998,
                    "velocity": 0.7244094488188977,
                    "duration": 0.06535933333333332
                },
                {
                    "name": "D5",
                    "midi": 74,
                    "time": 159.41141399999998,
                    "velocity": 0.7244094488188977,
                    "duration": 0.06535933333333332
                },
                {
                    "name": "G5",
                    "midi": 79,
                    "time": 159.50945299999998,
                    "velocity": 0.7244094488188977,
                    "duration": 0.06535933333333332
                },
                {
                    "name": "C6",
                    "midi": 84,
                    "time": 159.60749199999998,
                    "velocity": 0.7244094488188977,
                    "duration": 0.06535933333333332
                },
                {
                    "name": "G5",
                    "midi": 79,
                    "time": 159.70553099999998,
                    "velocity": 0.7244094488188977,
                    "duration": 0.06535933333333332
                },
                {
                    "name": "D#5",
                    "midi": 75,
                    "time": 159.80356999999998,
                    "velocity": 0.7244094488188977,
                    "duration": 0.06535933333333332
                },
                {
                    "name": "C5",
                    "midi": 72,
                    "time": 159.90160899999998,
                    "velocity": 0.7244094488188977,
                    "duration": 0.06535933333333332
                },
                {
                    "name": "G5",
                    "midi": 79,
                    "time": 159.99964799999998,
                    "velocity": 0.7244094488188977,
                    "duration": 0.06535933333333332
                },
                {
                    "name": "B5",
                    "midi": 83,
                    "time": 160.09768699999998,
                    "velocity": 0.7244094488188977,
                    "duration": 0.06535933333333332
                },
                {
                    "name": "D6",
                    "midi": 86,
                    "time": 160.19572599999998,
                    "velocity": 0.7244094488188977,
                    "duration": 0.06535933333333332
                },
                {
                    "name": "G6",
                    "midi": 91,
                    "time": 160.29376499999998,
                    "velocity": 0.7244094488188977,
                    "duration": 0.06535933333333332
                },
                {
                    "name": "C6",
                    "midi": 84,
                    "time": 160.39180399999998,
                    "velocity": 0.7244094488188977,
                    "duration": 0.06535933333333332
                },
                {
                    "name": "G5",
                    "midi": 79,
                    "time": 160.48984299999998,
                    "velocity": 0.7244094488188977,
                    "duration": 0.06535933333333332
                },
                {
                    "name": "D#5",
                    "midi": 75,
                    "time": 160.58788199999998,
                    "velocity": 0.7244094488188977,
                    "duration": 0.06535933333333332
                },
                {
                    "name": "C5",
                    "midi": 72,
                    "time": 160.68592099999998,
                    "velocity": 0.7244094488188977,
                    "duration": 0.06535933333333332
                },
                {
                    "name": "G4",
                    "midi": 67,
                    "time": 160.78395999999998,
                    "velocity": 0.7244094488188977,
                    "duration": 0.06535933333333332
                },
                {
                    "name": "B4",
                    "midi": 71,
                    "time": 160.88199899999998,
                    "velocity": 0.7244094488188977,
                    "duration": 0.06535933333333332
                },
                {
                    "name": "D5",
                    "midi": 74,
                    "time": 160.98003799999998,
                    "velocity": 0.7244094488188977,
                    "duration": 0.06535933333333332
                },
                {
                    "name": "G5",
                    "midi": 79,
                    "time": 161.07807699999998,
                    "velocity": 0.7244094488188977,
                    "duration": 0.06535933333333332
                },
                {
                    "name": "C5",
                    "midi": 72,
                    "time": 161.17611599999998,
                    "velocity": 0.7244094488188977,
                    "duration": 0.06535933333333332
                },
                {
                    "name": "G4",
                    "midi": 67,
                    "time": 161.27415499999998,
                    "velocity": 0.7244094488188977,
                    "duration": 0.06535933333333332
                },
                {
                    "name": "D#4",
                    "midi": 63,
                    "time": 161.37219399999998,
                    "velocity": 0.7244094488188977,
                    "duration": 0.06535933333333332
                },
                {
                    "name": "C4",
                    "midi": 60,
                    "time": 161.47023299999998,
                    "velocity": 0.7244094488188977,
                    "duration": 0.06535933333333332
                },
                {
                    "name": "G3",
                    "midi": 55,
                    "time": 161.56827199999998,
                    "velocity": 0.7244094488188977,
                    "duration": 0.06535933333333332
                },
                {
                    "name": "B3",
                    "midi": 59,
                    "time": 161.66631099999998,
                    "velocity": 0.7244094488188977,
                    "duration": 0.06535933333333332
                },
                {
                    "name": "D4",
                    "midi": 62,
                    "time": 161.76434999999998,
                    "velocity": 0.7244094488188977,
                    "duration": 0.06535933333333332
                },
                {
                    "name": "G4",
                    "midi": 67,
                    "time": 161.86238899999998,
                    "velocity": 0.7244094488188977,
                    "duration": 0.06535933333333332
                },
                {
                    "name": "B4",
                    "midi": 71,
                    "time": 161.96042799999998,
                    "velocity": 0.7244094488188977,
                    "duration": 0.06535933333333332
                },
                {
                    "name": "D5",
                    "midi": 74,
                    "time": 162.05846699999998,
                    "velocity": 0.7244094488188977,
                    "duration": 0.06535933333333332
                },
                {
                    "name": "F#5",
                    "midi": 78,
                    "time": 162.15650599999998,
                    "velocity": 0.7244094488188977,
                    "duration": 0.06535933333333332
                },
                {
                    "name": "G5",
                    "midi": 79,
                    "time": 162.25454499999998,
                    "velocity": 0.7244094488188977,
                    "duration": 0.06535933333333332
                },
                {
                    "name": "F#5",
                    "midi": 78,
                    "time": 162.35258399999998,
                    "velocity": 0.7244094488188977,
                    "duration": 0.06535933333333332
                },
                {
                    "name": "G5",
                    "midi": 79,
                    "time": 162.45062299999998,
                    "velocity": 0.7244094488188977,
                    "duration": 0.06535933333333332
                },
                {
                    "name": "F#5",
                    "midi": 78,
                    "time": 162.54866199999998,
                    "velocity": 0.7244094488188977,
                    "duration": 0.06535933333333332
                },
                {
                    "name": "G5",
                    "midi": 79,
                    "time": 162.64670099999998,
                    "velocity": 0.7244094488188977,
                    "duration": 0.06535933333333332
                },
                {
                    "name": "F#5",
                    "midi": 78,
                    "time": 162.74473999999998,
                    "velocity": 0.7244094488188977,
                    "duration": 0.06535933333333332
                },
                {
                    "name": "G5",
                    "midi": 79,
                    "time": 162.84277899999998,
                    "velocity": 0.7244094488188977,
                    "duration": 0.06535933333333332
                },
                {
                    "name": "F#5",
                    "midi": 78,
                    "time": 162.94081799999998,
                    "velocity": 0.7244094488188977,
                    "duration": 0.06535933333333332
                },
                {
                    "name": "G5",
                    "midi": 79,
                    "time": 163.03885699999998,
                    "velocity": 0.7244094488188977,
                    "duration": 0.06535933333333332
                },
                {
                    "name": "G#5",
                    "midi": 80,
                    "time": 163.13689599999998,
                    "velocity": 0.7244094488188977,
                    "duration": 0.06535933333333332
                },
                {
                    "name": "A5",
                    "midi": 81,
                    "time": 163.23493499999998,
                    "velocity": 0.7244094488188977,
                    "duration": 0.06535933333333332
                },
                {
                    "name": "G#5",
                    "midi": 80,
                    "time": 163.33297399999998,
                    "velocity": 0.7244094488188977,
                    "duration": 0.06535933333333332
                },
                {
                    "name": "A5",
                    "midi": 81,
                    "time": 163.43101299999998,
                    "velocity": 0.7244094488188977,
                    "duration": 0.06535933333333332
                },
                {
                    "name": "G#5",
                    "midi": 80,
                    "time": 163.52905199999998,
                    "velocity": 0.7244094488188977,
                    "duration": 0.06535933333333332
                },
                {
                    "name": "A5",
                    "midi": 81,
                    "time": 163.62709099999998,
                    "velocity": 0.7244094488188977,
                    "duration": 0.06535933333333332
                },
                {
                    "name": "B5",
                    "midi": 83,
                    "time": 163.72512999999998,
                    "velocity": 0.7244094488188977,
                    "duration": 0.06535933333333332
                },
                {
                    "name": "A5",
                    "midi": 81,
                    "time": 163.82316899999998,
                    "velocity": 0.7244094488188977,
                    "duration": 0.06535933333333332
                },
                {
                    "name": "G5",
                    "midi": 79,
                    "time": 163.92120799999998,
                    "velocity": 0.7244094488188977,
                    "duration": 0.06535933333333332
                },
                {
                    "name": "F5",
                    "midi": 77,
                    "time": 164.01924699999998,
                    "velocity": 0.7244094488188977,
                    "duration": 0.06535933333333332
                },
                {
                    "name": "E5",
                    "midi": 76,
                    "time": 164.11728599999998,
                    "velocity": 0.7244094488188977,
                    "duration": 0.06535933333333332
                },
                {
                    "name": "F5",
                    "midi": 77,
                    "time": 164.21532499999998,
                    "velocity": 0.7244094488188977,
                    "duration": 0.06535933333333332
                },
                {
                    "name": "G5",
                    "midi": 79,
                    "time": 164.31336399999998,
                    "velocity": 0.7244094488188977,
                    "duration": 0.06535933333333332
                },
                {
                    "name": "F5",
                    "midi": 77,
                    "time": 164.41140299999998,
                    "velocity": 0.7244094488188977,
                    "duration": 0.06535933333333332
                },
                {
                    "name": "E5",
                    "midi": 76,
                    "time": 164.50944199999998,
                    "velocity": 0.7244094488188977,
                    "duration": 0.06535933333333332
                },
                {
                    "name": "D5",
                    "midi": 74,
                    "time": 164.60748099999998,
                    "velocity": 0.7244094488188977,
                    "duration": 0.06535933333333332
                },
                {
                    "name": "C5",
                    "midi": 72,
                    "time": 164.70551999999998,
                    "velocity": 0.7244094488188977,
                    "duration": 0.06535933333333332
                },
                {
                    "name": "B4",
                    "midi": 71,
                    "time": 164.80355899999998,
                    "velocity": 0.7244094488188977,
                    "duration": 0.06535933333333332
                },
                {
                    "name": "D5",
                    "midi": 74,
                    "time": 164.90159799999998,
                    "velocity": 0.7244094488188977,
                    "duration": 0.06535933333333332
                },
                {
                    "name": "C5",
                    "midi": 72,
                    "time": 164.99963699999998,
                    "velocity": 0.7244094488188977,
                    "duration": 0.06535933333333332
                },
                {
                    "name": "B4",
                    "midi": 71,
                    "time": 165.09767599999998,
                    "velocity": 0.7244094488188977,
                    "duration": 0.06535933333333332
                },
                {
                    "name": "C5",
                    "midi": 72,
                    "time": 165.19571499999998,
                    "velocity": 0.7244094488188977,
                    "duration": 0.06535933333333332
                },
                {
                    "name": "A4",
                    "midi": 69,
                    "time": 165.29375399999998,
                    "velocity": 0.7244094488188977,
                    "duration": 0.06535933333333332
                },
                {
                    "name": "B4",
                    "midi": 71,
                    "time": 165.39179299999998,
                    "velocity": 0.7244094488188977,
                    "duration": 0.06535933333333332
                },
                {
                    "name": "G4",
                    "midi": 67,
                    "time": 165.48983199999998,
                    "velocity": 0.7244094488188977,
                    "duration": 0.06535933333333332
                },
                {
                    "name": "A4",
                    "midi": 69,
                    "time": 165.58787099999998,
                    "velocity": 0.7244094488188977,
                    "duration": 0.06535933333333332
                },
                {
                    "name": "G4",
                    "midi": 67,
                    "time": 165.68590999999998,
                    "velocity": 0.7244094488188977,
                    "duration": 0.06535933333333332
                },
                {
                    "name": "F#4",
                    "midi": 66,
                    "time": 165.78394899999998,
                    "velocity": 0.7244094488188977,
                    "duration": 0.06535933333333332
                },
                {
                    "name": "G4",
                    "midi": 67,
                    "time": 165.88198799999998,
                    "velocity": 0.7244094488188977,
                    "duration": 0.06535933333333332
                },
                {
                    "name": "B4",
                    "midi": 71,
                    "time": 165.98002699999998,
                    "velocity": 0.7244094488188977,
                    "duration": 0.06535933333333332
                },
                {
                    "name": "A4",
                    "midi": 69,
                    "time": 166.07806599999998,
                    "velocity": 0.7244094488188977,
                    "duration": 0.06535933333333332
                },
                {
                    "name": "C5",
                    "midi": 72,
                    "time": 166.17610499999998,
                    "velocity": 0.7244094488188977,
                    "duration": 0.06535933333333332
                },
                {
                    "name": "B4",
                    "midi": 71,
                    "time": 166.27414399999998,
                    "velocity": 0.7244094488188977,
                    "duration": 0.06535933333333332
                },
                {
                    "name": "D5",
                    "midi": 74,
                    "time": 166.37218299999998,
                    "velocity": 0.7244094488188977,
                    "duration": 0.06535933333333332
                },
                {
                    "name": "C5",
                    "midi": 72,
                    "time": 166.47022199999998,
                    "velocity": 0.7244094488188977,
                    "duration": 0.06535933333333332
                },
                {
                    "name": "E5",
                    "midi": 76,
                    "time": 166.56826099999998,
                    "velocity": 0.7244094488188977,
                    "duration": 0.06535933333333332
                },
                {
                    "name": "D5",
                    "midi": 74,
                    "time": 166.66629999999998,
                    "velocity": 0.7244094488188977,
                    "duration": 0.06535933333333332
                },
                {
                    "name": "F5",
                    "midi": 77,
                    "time": 166.76433899999998,
                    "velocity": 0.7244094488188977,
                    "duration": 0.06535933333333332
                },
                {
                    "name": "E5",
                    "midi": 76,
                    "time": 166.86237799999998,
                    "velocity": 0.7244094488188977,
                    "duration": 0.06535933333333332
                },
                {
                    "name": "G5",
                    "midi": 79,
                    "time": 166.96041699999998,
                    "velocity": 0.7244094488188977,
                    "duration": 0.06535933333333332
                },
                {
                    "name": "F5",
                    "midi": 77,
                    "time": 167.05845599999998,
                    "velocity": 0.7244094488188977,
                    "duration": 0.06535933333333332
                },
                {
                    "name": "D5",
                    "midi": 74,
                    "time": 167.15649499999998,
                    "velocity": 0.7244094488188977,
                    "duration": 0.06535933333333332
                },
                {
                    "name": "B4",
                    "midi": 71,
                    "time": 167.25453399999998,
                    "velocity": 0.7244094488188977,
                    "duration": 0.06535933333333332
                },
                {
                    "name": "G4",
                    "midi": 67,
                    "time": 167.35257299999998,
                    "velocity": 0.7244094488188977,
                    "duration": 0.06535933333333332
                },
                {
                    "name": "G#4",
                    "midi": 68,
                    "time": 167.45061199999998,
                    "velocity": 0.7244094488188977,
                    "duration": 0.06535933333333332
                },
                {
                    "name": "G4",
                    "midi": 67,
                    "time": 167.54865099999998,
                    "velocity": 0.7244094488188977,
                    "duration": 0.06535933333333332
                },
                {
                    "name": "F#4",
                    "midi": 66,
                    "time": 167.64668999999998,
                    "velocity": 0.7244094488188977,
                    "duration": 0.06535933333333332
                },
                {
                    "name": "G4",
                    "midi": 67,
                    "time": 167.74472899999998,
                    "velocity": 0.7244094488188977,
                    "duration": 0.06535933333333332
                },
                {
                    "name": "A4",
                    "midi": 69,
                    "time": 167.84276799999998,
                    "velocity": 0.7244094488188977,
                    "duration": 0.06535933333333332
                },
                {
                    "name": "G4",
                    "midi": 67,
                    "time": 167.94080699999998,
                    "velocity": 0.7244094488188977,
                    "duration": 0.06535933333333332
                },
                {
                    "name": "F#4",
                    "midi": 66,
                    "time": 168.03884599999998,
                    "velocity": 0.7244094488188977,
                    "duration": 0.06535933333333332
                },
                {
                    "name": "G4",
                    "midi": 67,
                    "time": 168.13688499999998,
                    "velocity": 0.7244094488188977,
                    "duration": 0.06535933333333332
                },
                {
                    "name": "G#4",
                    "midi": 68,
                    "time": 168.23492399999998,
                    "velocity": 0.7244094488188977,
                    "duration": 0.06535933333333332
                },
                {
                    "name": "A4",
                    "midi": 69,
                    "time": 168.33296299999998,
                    "velocity": 0.7244094488188977,
                    "duration": 0.06535933333333332
                },
                {
                    "name": "A#4",
                    "midi": 70,
                    "time": 168.43100199999998,
                    "velocity": 0.7244094488188977,
                    "duration": 0.06535933333333332
                },
                {
                    "name": "B4",
                    "midi": 71,
                    "time": 168.52904099999998,
                    "velocity": 0.7244094488188977,
                    "duration": 0.06535933333333332
                },
                {
                    "name": "C5",
                    "midi": 72,
                    "time": 168.62707999999998,
                    "velocity": 0.7244094488188977,
                    "duration": 0.06535933333333332
                },
                {
                    "name": "D5",
                    "midi": 74,
                    "time": 168.72511899999998,
                    "velocity": 0.7244094488188977,
                    "duration": 0.06535933333333332
                },
                {
                    "name": "C5",
                    "midi": 72,
                    "time": 168.82315799999998,
                    "velocity": 0.7244094488188977,
                    "duration": 0.06535933333333332
                },
                {
                    "name": "B4",
                    "midi": 71,
                    "time": 168.92119699999998,
                    "velocity": 0.7244094488188977,
                    "duration": 0.06535933333333332
                },
                {
                    "name": "C5",
                    "midi": 72,
                    "time": 169.01923599999998,
                    "velocity": 0.7244094488188977,
                    "duration": 0.06535933333333332
                },
                {
                    "name": "D5",
                    "midi": 74,
                    "time": 169.11727499999998,
                    "velocity": 0.7244094488188977,
                    "duration": 0.06535933333333332
                },
                {
                    "name": "E5",
                    "midi": 76,
                    "time": 169.21531399999998,
                    "velocity": 0.7244094488188977,
                    "duration": 0.06535933333333332
                },
                {
                    "name": "C5",
                    "midi": 72,
                    "time": 169.31335299999998,
                    "velocity": 0.7244094488188977,
                    "duration": 0.06535933333333332
                },
                {
                    "name": "D5",
                    "midi": 74,
                    "time": 169.41139199999998,
                    "velocity": 0.7244094488188977,
                    "duration": 0.06535933333333332
                },
                {
                    "name": "C5",
                    "midi": 72,
                    "time": 169.50943099999998,
                    "velocity": 0.7244094488188977,
                    "duration": 0.06535933333333332
                },
                {
                    "name": "B4",
                    "midi": 71,
                    "time": 169.60746999999998,
                    "velocity": 0.7244094488188977,
                    "duration": 0.06535933333333332
                },
                {
                    "name": "A4",
                    "midi": 69,
                    "time": 169.70550899999998,
                    "velocity": 0.7244094488188977,
                    "duration": 0.06535933333333332
                },
                {
                    "name": "G4",
                    "midi": 67,
                    "time": 169.80354799999998,
                    "velocity": 0.7244094488188977,
                    "duration": 0.06535933333333332
                },
                {
                    "name": "A4",
                    "midi": 69,
                    "time": 169.90158699999998,
                    "velocity": 0.7244094488188977,
                    "duration": 0.06535933333333332
                },
                {
                    "name": "B4",
                    "midi": 71,
                    "time": 169.99962599999998,
                    "velocity": 0.7244094488188977,
                    "duration": 0.06535933333333332
                },
                {
                    "name": "C5",
                    "midi": 72,
                    "time": 170.09766499999998,
                    "velocity": 0.7244094488188977,
                    "duration": 0.06535933333333332
                },
                {
                    "name": "D5",
                    "midi": 74,
                    "time": 170.19570399999998,
                    "velocity": 0.7244094488188977,
                    "duration": 0.06535933333333332
                },
                {
                    "name": "E5",
                    "midi": 76,
                    "time": 170.29374299999998,
                    "velocity": 0.7244094488188977,
                    "duration": 0.06535933333333332
                },
                {
                    "name": "F5",
                    "midi": 77,
                    "time": 170.39178199999998,
                    "velocity": 0.7244094488188977,
                    "duration": 0.06535933333333332
                },
                {
                    "name": "E5",
                    "midi": 76,
                    "time": 170.48982099999998,
                    "velocity": 0.7244094488188977,
                    "duration": 0.06535933333333332
                },
                {
                    "name": "G5",
                    "midi": 79,
                    "time": 170.58785999999998,
                    "velocity": 0.7244094488188977,
                    "duration": 0.06535933333333332
                },
                {
                    "name": "F5",
                    "midi": 77,
                    "time": 170.68589899999998,
                    "velocity": 0.7244094488188977,
                    "duration": 0.06535933333333332
                },
                {
                    "name": "E5",
                    "midi": 76,
                    "time": 170.78393799999998,
                    "velocity": 0.7244094488188977,
                    "duration": 0.06535933333333332
                },
                {
                    "name": "D5",
                    "midi": 74,
                    "time": 170.88197699999998,
                    "velocity": 0.7244094488188977,
                    "duration": 0.06535933333333332
                },
                {
                    "name": "E5",
                    "midi": 76,
                    "time": 170.98001599999998,
                    "velocity": 0.7244094488188977,
                    "duration": 0.06535933333333332
                },
                {
                    "name": "F5",
                    "midi": 77,
                    "time": 171.07805499999998,
                    "velocity": 0.7244094488188977,
                    "duration": 0.06535933333333332
                },
                {
                    "name": "E5",
                    "midi": 76,
                    "time": 171.17609399999998,
                    "velocity": 0.7244094488188977,
                    "duration": 0.06535933333333332
                },
                {
                    "name": "D5",
                    "midi": 74,
                    "time": 171.27413299999998,
                    "velocity": 0.7244094488188977,
                    "duration": 0.06535933333333332
                },
                {
                    "name": "C5",
                    "midi": 72,
                    "time": 171.37217199999998,
                    "velocity": 0.7244094488188977,
                    "duration": 0.06535933333333332
                },
                {
                    "name": "D5",
                    "midi": 74,
                    "time": 171.47021099999998,
                    "velocity": 0.7244094488188977,
                    "duration": 0.06535933333333332
                },
                {
                    "name": "E5",
                    "midi": 76,
                    "time": 171.56824999999998,
                    "velocity": 0.7244094488188977,
                    "duration": 0.06535933333333332
                },
                {
                    "name": "F5",
                    "midi": 77,
                    "time": 171.66628899999998,
                    "velocity": 0.7244094488188977,
                    "duration": 0.06535933333333332
                },
                {
                    "name": "G5",
                    "midi": 79,
                    "time": 171.76432799999998,
                    "velocity": 0.7244094488188977,
                    "duration": 0.06535933333333332
                },
                {
                    "name": "F5",
                    "midi": 77,
                    "time": 171.86236699999998,
                    "velocity": 0.7244094488188977,
                    "duration": 0.06535933333333332
                },
                {
                    "name": "E5",
                    "midi": 76,
                    "time": 171.96040599999998,
                    "velocity": 0.7244094488188977,
                    "duration": 0.06535933333333332
                },
                {
                    "name": "D5",
                    "midi": 74,
                    "time": 172.05844499999998,
                    "velocity": 0.7244094488188977,
                    "duration": 0.06535933333333332
                },
                {
                    "name": "C#5",
                    "midi": 73,
                    "time": 172.15648399999998,
                    "velocity": 0.7244094488188977,
                    "duration": 0.06535933333333332
                },
                {
                    "name": "E5",
                    "midi": 76,
                    "time": 172.25452299999998,
                    "velocity": 0.7244094488188977,
                    "duration": 0.06535933333333332
                },
                {
                    "name": "A5",
                    "midi": 81,
                    "time": 172.35256199999998,
                    "velocity": 0.7244094488188977,
                    "duration": 0.06535933333333332
                },
                {
                    "name": "G5",
                    "midi": 79,
                    "time": 172.45060099999998,
                    "velocity": 0.7244094488188977,
                    "duration": 0.06535933333333332
                },
                {
                    "name": "F5",
                    "midi": 77,
                    "time": 172.54863999999998,
                    "velocity": 0.7244094488188977,
                    "duration": 0.06535933333333332
                },
                {
                    "name": "E5",
                    "midi": 76,
                    "time": 172.64667899999998,
                    "velocity": 0.7244094488188977,
                    "duration": 0.06535933333333332
                },
                {
                    "name": "D5",
                    "midi": 74,
                    "time": 172.74471799999998,
                    "velocity": 0.7244094488188977,
                    "duration": 0.06535933333333332
                },
                {
                    "name": "C5",
                    "midi": 72,
                    "time": 172.84275699999998,
                    "velocity": 0.7244094488188977,
                    "duration": 0.06535933333333332
                },
                {
                    "name": "B4",
                    "midi": 71,
                    "time": 172.94079599999998,
                    "velocity": 0.7244094488188977,
                    "duration": 0.06535933333333332
                },
                {
                    "name": "D5",
                    "midi": 74,
                    "time": 173.03883499999998,
                    "velocity": 0.7244094488188977,
                    "duration": 0.06535933333333332
                },
                {
                    "name": "G5",
                    "midi": 79,
                    "time": 173.13687399999998,
                    "velocity": 0.7244094488188977,
                    "duration": 0.06535933333333332
                },
                {
                    "name": "F5",
                    "midi": 77,
                    "time": 173.23491299999998,
                    "velocity": 0.7244094488188977,
                    "duration": 0.06535933333333332
                },
                {
                    "name": "E5",
                    "midi": 76,
                    "time": 173.33295199999998,
                    "velocity": 0.7244094488188977,
                    "duration": 0.06535933333333332
                },
                {
                    "name": "D5",
                    "midi": 74,
                    "time": 173.43099099999998,
                    "velocity": 0.7244094488188977,
                    "duration": 0.06535933333333332
                },
                {
                    "name": "C5",
                    "midi": 72,
                    "time": 173.52902999999998,
                    "velocity": 0.7244094488188977,
                    "duration": 0.06535933333333332
                },
                {
                    "name": "B4",
                    "midi": 71,
                    "time": 173.62706899999998,
                    "velocity": 0.7244094488188977,
                    "duration": 0.06535933333333332
                },
                {
                    "name": "A4",
                    "midi": 69,
                    "time": 173.72510799999998,
                    "velocity": 0.7244094488188977,
                    "duration": 0.06535933333333332
                },
                {
                    "name": "D5",
                    "midi": 74,
                    "time": 173.82314699999998,
                    "velocity": 0.7244094488188977,
                    "duration": 0.06535933333333332
                },
                {
                    "name": "E5",
                    "midi": 76,
                    "time": 173.92118599999998,
                    "velocity": 0.7244094488188977,
                    "duration": 0.06535933333333332
                },
                {
                    "name": "D5",
                    "midi": 74,
                    "time": 174.01922499999998,
                    "velocity": 0.7244094488188977,
                    "duration": 0.06535933333333332
                },
                {
                    "name": "C5",
                    "midi": 72,
                    "time": 174.11726399999998,
                    "velocity": 0.7244094488188977,
                    "duration": 0.06535933333333332
                },
                {
                    "name": "B4",
                    "midi": 71,
                    "time": 174.21530299999998,
                    "velocity": 0.7244094488188977,
                    "duration": 0.06535933333333332
                },
                {
                    "name": "A4",
                    "midi": 69,
                    "time": 174.31334199999998,
                    "velocity": 0.7244094488188977,
                    "duration": 0.06535933333333332
                },
                {
                    "name": "G4",
                    "midi": 67,
                    "time": 174.41138099999998,
                    "velocity": 0.7244094488188977,
                    "duration": 0.06535933333333332
                },
                {
                    "name": "F#4",
                    "midi": 66,
                    "time": 174.50941999999998,
                    "velocity": 0.7244094488188977,
                    "duration": 0.06535933333333332
                },
                {
                    "name": "G4",
                    "midi": 67,
                    "time": 174.60745899999998,
                    "velocity": 0.7244094488188977,
                    "duration": 0.06535933333333332
                },
                {
                    "name": "A4",
                    "midi": 69,
                    "time": 174.70549799999998,
                    "velocity": 0.7244094488188977,
                    "duration": 0.06535933333333332
                },
                {
                    "name": "B4",
                    "midi": 71,
                    "time": 174.80353699999998,
                    "velocity": 0.7244094488188977,
                    "duration": 0.06535933333333332
                },
                {
                    "name": "C5",
                    "midi": 72,
                    "time": 174.90157599999998,
                    "velocity": 0.7244094488188977,
                    "duration": 0.06535933333333332
                },
                {
                    "name": "D5",
                    "midi": 74,
                    "time": 174.99961499999998,
                    "velocity": 0.7244094488188977,
                    "duration": 0.06535933333333332
                },
                {
                    "name": "C5",
                    "midi": 72,
                    "time": 175.09765399999998,
                    "velocity": 0.7244094488188977,
                    "duration": 0.06535933333333332
                },
                {
                    "name": "B4",
                    "midi": 71,
                    "time": 175.19569299999998,
                    "velocity": 0.7244094488188977,
                    "duration": 0.06535933333333332
                },
                {
                    "name": "C5",
                    "midi": 72,
                    "time": 175.29373199999998,
                    "velocity": 0.7244094488188977,
                    "duration": 0.06535933333333332
                },
                {
                    "name": "D5",
                    "midi": 74,
                    "time": 175.39177099999998,
                    "velocity": 0.7244094488188977,
                    "duration": 0.06535933333333332
                },
                {
                    "name": "E5",
                    "midi": 76,
                    "time": 175.48980999999998,
                    "velocity": 0.7244094488188977,
                    "duration": 0.06535933333333332
                },
                {
                    "name": "C5",
                    "midi": 72,
                    "time": 175.58784899999998,
                    "velocity": 0.7244094488188977,
                    "duration": 0.06535933333333332
                },
                {
                    "name": "D5",
                    "midi": 74,
                    "time": 175.68588799999998,
                    "velocity": 0.7244094488188977,
                    "duration": 0.06535933333333332
                },
                {
                    "name": "C5",
                    "midi": 72,
                    "time": 175.78392699999998,
                    "velocity": 0.7244094488188977,
                    "duration": 0.06535933333333332
                },
                {
                    "name": "B4",
                    "midi": 71,
                    "time": 175.88196599999998,
                    "velocity": 0.7244094488188977,
                    "duration": 0.06535933333333332
                },
                {
                    "name": "A4",
                    "midi": 69,
                    "time": 175.98000499999998,
                    "velocity": 0.7244094488188977,
                    "duration": 0.06535933333333332
                },
                {
                    "name": "G4",
                    "midi": 67,
                    "time": 176.07804399999998,
                    "velocity": 0.7244094488188977,
                    "duration": 0.06535933333333332
                },
                {
                    "name": "A4",
                    "midi": 69,
                    "time": 176.17608299999998,
                    "velocity": 0.7244094488188977,
                    "duration": 0.06535933333333332
                },
                {
                    "name": "B4",
                    "midi": 71,
                    "time": 176.27412199999998,
                    "velocity": 0.7244094488188977,
                    "duration": 0.06535933333333332
                },
                {
                    "name": "C5",
                    "midi": 72,
                    "time": 176.37216099999998,
                    "velocity": 0.7244094488188977,
                    "duration": 0.06535933333333332
                },
                {
                    "name": "D5",
                    "midi": 74,
                    "time": 176.47019999999998,
                    "velocity": 0.7244094488188977,
                    "duration": 0.06535933333333332
                },
                {
                    "name": "E5",
                    "midi": 76,
                    "time": 176.56823899999998,
                    "velocity": 0.7244094488188977,
                    "duration": 0.06535933333333332
                },
                {
                    "name": "F5",
                    "midi": 77,
                    "time": 176.66627799999998,
                    "velocity": 0.7244094488188977,
                    "duration": 0.06535933333333332
                },
                {
                    "name": "E5",
                    "midi": 76,
                    "time": 176.76431699999998,
                    "velocity": 0.7244094488188977,
                    "duration": 0.06535933333333332
                },
                {
                    "name": "G5",
                    "midi": 79,
                    "time": 176.86235599999998,
                    "velocity": 0.7244094488188977,
                    "duration": 0.06535933333333332
                },
                {
                    "name": "F5",
                    "midi": 77,
                    "time": 176.96039499999998,
                    "velocity": 0.7244094488188977,
                    "duration": 0.06535933333333332
                },
                {
                    "name": "E5",
                    "midi": 76,
                    "time": 177.05843399999998,
                    "velocity": 0.7244094488188977,
                    "duration": 0.06535933333333332
                },
                {
                    "name": "D5",
                    "midi": 74,
                    "time": 177.15647299999998,
                    "velocity": 0.7244094488188977,
                    "duration": 0.06535933333333332
                },
                {
                    "name": "E5",
                    "midi": 76,
                    "time": 177.25451199999998,
                    "velocity": 0.7244094488188977,
                    "duration": 0.06535933333333332
                },
                {
                    "name": "F5",
                    "midi": 77,
                    "time": 177.35255099999998,
                    "velocity": 0.7244094488188977,
                    "duration": 0.06535933333333332
                },
                {
                    "name": "E5",
                    "midi": 76,
                    "time": 177.45058999999998,
                    "velocity": 0.7244094488188977,
                    "duration": 0.06535933333333332
                },
                {
                    "name": "D5",
                    "midi": 74,
                    "time": 177.54862899999998,
                    "velocity": 0.7244094488188977,
                    "duration": 0.06535933333333332
                },
                {
                    "name": "C5",
                    "midi": 72,
                    "time": 177.64666799999998,
                    "velocity": 0.7244094488188977,
                    "duration": 0.06535933333333332
                },
                {
                    "name": "E5",
                    "midi": 76,
                    "time": 177.74470699999998,
                    "velocity": 0.7244094488188977,
                    "duration": 0.06535933333333332
                },
                {
                    "name": "G5",
                    "midi": 79,
                    "time": 177.84274599999998,
                    "velocity": 0.7244094488188977,
                    "duration": 0.06535933333333332
                },
                {
                    "name": "A5",
                    "midi": 81,
                    "time": 177.94078499999998,
                    "velocity": 0.7244094488188977,
                    "duration": 0.06535933333333332
                },
                {
                    "name": "A#5",
                    "midi": 82,
                    "time": 178.03882399999998,
                    "velocity": 0.7244094488188977,
                    "duration": 0.06535933333333332
                },
                {
                    "name": "A5",
                    "midi": 81,
                    "time": 178.13686299999998,
                    "velocity": 0.7244094488188977,
                    "duration": 0.06535933333333332
                },
                {
                    "name": "G5",
                    "midi": 79,
                    "time": 178.23490199999998,
                    "velocity": 0.7244094488188977,
                    "duration": 0.06535933333333332
                },
                {
                    "name": "F5",
                    "midi": 77,
                    "time": 178.33294099999998,
                    "velocity": 0.7244094488188977,
                    "duration": 0.06535933333333332
                },
                {
                    "name": "E5",
                    "midi": 76,
                    "time": 178.43097999999998,
                    "velocity": 0.7244094488188977,
                    "duration": 0.06535933333333332
                },
                {
                    "name": "D5",
                    "midi": 74,
                    "time": 178.52901899999998,
                    "velocity": 0.7244094488188977,
                    "duration": 0.06535933333333332
                },
                {
                    "name": "C5",
                    "midi": 72,
                    "time": 178.62705799999998,
                    "velocity": 0.7244094488188977,
                    "duration": 0.06535933333333332
                },
                {
                    "name": "A#4",
                    "midi": 70,
                    "time": 178.72509699999998,
                    "velocity": 0.7244094488188977,
                    "duration": 0.06535933333333332
                },
                {
                    "name": "A4",
                    "midi": 69,
                    "time": 178.82313599999998,
                    "velocity": 0.7244094488188977,
                    "duration": 0.06535933333333332
                },
                {
                    "name": "C5",
                    "midi": 72,
                    "time": 178.92117499999998,
                    "velocity": 0.7244094488188977,
                    "duration": 0.06535933333333332
                },
                {
                    "name": "D5",
                    "midi": 74,
                    "time": 179.01921399999998,
                    "velocity": 0.7244094488188977,
                    "duration": 0.06535933333333332
                },
                {
                    "name": "E5",
                    "midi": 76,
                    "time": 179.11725299999998,
                    "velocity": 0.7244094488188977,
                    "duration": 0.06535933333333332
                },
                {
                    "name": "F5",
                    "midi": 77,
                    "time": 179.21529199999998,
                    "velocity": 0.7244094488188977,
                    "duration": 0.06535933333333332
                },
                {
                    "name": "G5",
                    "midi": 79,
                    "time": 179.31333099999998,
                    "velocity": 0.7244094488188977,
                    "duration": 0.06535933333333332
                },
                {
                    "name": "A5",
                    "midi": 81,
                    "time": 179.41136999999998,
                    "velocity": 0.7244094488188977,
                    "duration": 0.06535933333333332
                },
                {
                    "name": "B5",
                    "midi": 83,
                    "time": 179.50940899999998,
                    "velocity": 0.7244094488188977,
                    "duration": 0.06535933333333332
                },
                {
                    "name": "C6",
                    "midi": 84,
                    "time": 179.60744799999998,
                    "velocity": 0.7244094488188977,
                    "duration": 0.06535933333333332
                },
                {
                    "name": "B5",
                    "midi": 83,
                    "time": 179.70548699999998,
                    "velocity": 0.7244094488188977,
                    "duration": 0.06535933333333332
                },
                {
                    "name": "A5",
                    "midi": 81,
                    "time": 179.80352599999998,
                    "velocity": 0.7244094488188977,
                    "duration": 0.06535933333333332
                },
                {
                    "name": "G5",
                    "midi": 79,
                    "time": 179.90156499999998,
                    "velocity": 0.7244094488188977,
                    "duration": 0.06535933333333332
                },
                {
                    "name": "F#5",
                    "midi": 78,
                    "time": 179.99960399999998,
                    "velocity": 0.7244094488188977,
                    "duration": 0.06535933333333332
                },
                {
                    "name": "E5",
                    "midi": 76,
                    "time": 180.09764299999998,
                    "velocity": 0.7244094488188977,
                    "duration": 0.06535933333333332
                },
                {
                    "name": "D5",
                    "midi": 74,
                    "time": 180.19568199999998,
                    "velocity": 0.7244094488188977,
                    "duration": 0.06535933333333332
                },
                {
                    "name": "C5",
                    "midi": 72,
                    "time": 180.29372099999998,
                    "velocity": 0.7244094488188977,
                    "duration": 0.06535933333333332
                },
                {
                    "name": "B4",
                    "midi": 71,
                    "time": 180.39175999999998,
                    "velocity": 0.7244094488188977,
                    "duration": 0.06535933333333332
                },
                {
                    "name": "D5",
                    "midi": 74,
                    "time": 180.48979899999998,
                    "velocity": 0.7244094488188977,
                    "duration": 0.06535933333333332
                },
                {
                    "name": "G5",
                    "midi": 79,
                    "time": 180.58783799999998,
                    "velocity": 0.7244094488188977,
                    "duration": 0.06535933333333332
                },
                {
                    "name": "A5",
                    "midi": 81,
                    "time": 180.68587699999998,
                    "velocity": 0.7244094488188977,
                    "duration": 0.06535933333333332
                },
                {
                    "name": "B5",
                    "midi": 83,
                    "time": 180.78391599999998,
                    "velocity": 0.7244094488188977,
                    "duration": 0.06535933333333332
                },
                {
                    "name": "C6",
                    "midi": 84,
                    "time": 180.88195499999998,
                    "velocity": 0.7244094488188977,
                    "duration": 0.06535933333333332
                },
                {
                    "name": "D6",
                    "midi": 86,
                    "time": 180.97999399999998,
                    "velocity": 0.7244094488188977,
                    "duration": 0.06535933333333332
                },
                {
                    "name": "E6",
                    "midi": 88,
                    "time": 181.07803299999998,
                    "velocity": 0.7244094488188977,
                    "duration": 0.06535933333333332
                },
                {
                    "name": "F6",
                    "midi": 89,
                    "time": 181.17607199999998,
                    "velocity": 0.7244094488188977,
                    "duration": 0.06535933333333332
                },
                {
                    "name": "E6",
                    "midi": 88,
                    "time": 181.27411099999998,
                    "velocity": 0.7244094488188977,
                    "duration": 0.06535933333333332
                },
                {
                    "name": "D6",
                    "midi": 86,
                    "time": 181.37214999999998,
                    "velocity": 0.7244094488188977,
                    "duration": 0.06535933333333332
                },
                {
                    "name": "C6",
                    "midi": 84,
                    "time": 181.47018899999998,
                    "velocity": 0.7244094488188977,
                    "duration": 0.06535933333333332
                },
                {
                    "name": "B5",
                    "midi": 83,
                    "time": 181.56822799999998,
                    "velocity": 0.7244094488188977,
                    "duration": 0.06535933333333332
                },
                {
                    "name": "A5",
                    "midi": 81,
                    "time": 181.66626699999998,
                    "velocity": 0.7244094488188977,
                    "duration": 0.06535933333333332
                },
                {
                    "name": "G5",
                    "midi": 79,
                    "time": 181.76430599999998,
                    "velocity": 0.7244094488188977,
                    "duration": 0.06535933333333332
                },
                {
                    "name": "F5",
                    "midi": 77,
                    "time": 181.86234499999998,
                    "velocity": 0.7244094488188977,
                    "duration": 0.06535933333333332
                },
                {
                    "name": "E5",
                    "midi": 76,
                    "time": 181.96038399999998,
                    "velocity": 0.7244094488188977,
                    "duration": 0.06535933333333332
                },
                {
                    "name": "C6",
                    "midi": 84,
                    "time": 182.05842299999998,
                    "velocity": 0.7244094488188977,
                    "duration": 0.06535933333333332
                },
                {
                    "name": "G5",
                    "midi": 79,
                    "time": 182.15646199999998,
                    "velocity": 0.7244094488188977,
                    "duration": 0.06535933333333332
                },
                {
                    "name": "E5",
                    "midi": 76,
                    "time": 182.25450099999998,
                    "velocity": 0.7244094488188977,
                    "duration": 0.06535933333333332
                },
                {
                    "name": "D5",
                    "midi": 74,
                    "time": 182.35253999999998,
                    "velocity": 0.7244094488188977,
                    "duration": 0.06535933333333332
                },
                {
                    "name": "B5",
                    "midi": 83,
                    "time": 182.45057899999998,
                    "velocity": 0.7244094488188977,
                    "duration": 0.06535933333333332
                },
                {
                    "name": "G#5",
                    "midi": 80,
                    "time": 182.54861799999998,
                    "velocity": 0.7244094488188977,
                    "duration": 0.06535933333333332
                },
                {
                    "name": "D5",
                    "midi": 74,
                    "time": 182.64665699999998,
                    "velocity": 0.7244094488188977,
                    "duration": 0.06535933333333332
                },
                {
                    "name": "C5",
                    "midi": 72,
                    "time": 182.74469599999998,
                    "velocity": 0.7244094488188977,
                    "duration": 0.06535933333333332
                },
                {
                    "name": "A#5",
                    "midi": 82,
                    "time": 182.84273499999998,
                    "velocity": 0.7244094488188977,
                    "duration": 0.06535933333333332
                },
                {
                    "name": "E5",
                    "midi": 76,
                    "time": 182.94077399999998,
                    "velocity": 0.7244094488188977,
                    "duration": 0.06535933333333332
                },
                {
                    "name": "C5",
                    "midi": 72,
                    "time": 183.03881299999998,
                    "velocity": 0.7244094488188977,
                    "duration": 0.06535933333333332
                },
                {
                    "name": "A#4",
                    "midi": 70,
                    "time": 183.13685199999998,
                    "velocity": 0.7244094488188977,
                    "duration": 0.06535933333333332
                },
                {
                    "name": "G5",
                    "midi": 79,
                    "time": 183.23489099999998,
                    "velocity": 0.7244094488188977,
                    "duration": 0.06535933333333332
                },
                {
                    "name": "E5",
                    "midi": 76,
                    "time": 183.33292999999998,
                    "velocity": 0.7244094488188977,
                    "duration": 0.06535933333333332
                },
                {
                    "name": "A#4",
                    "midi": 70,
                    "time": 183.43096899999998,
                    "velocity": 0.7244094488188977,
                    "duration": 0.06535933333333332
                },
                {
                    "name": "A4",
                    "midi": 69,
                    "time": 183.52900799999998,
                    "velocity": 0.7244094488188977,
                    "duration": 0.06535933333333332
                },
                {
                    "name": "F4",
                    "midi": 65,
                    "time": 183.62704699999998,
                    "velocity": 0.7244094488188977,
                    "duration": 0.06535933333333332
                },
                {
                    "name": "A4",
                    "midi": 69,
                    "time": 183.72508599999998,
                    "velocity": 0.7244094488188977,
                    "duration": 0.06535933333333332
                },
                {
                    "name": "C5",
                    "midi": 72,
                    "time": 183.82312499999998,
                    "velocity": 0.7244094488188977,
                    "duration": 0.06535933333333332
                },
                {
                    "name": "F5",
                    "midi": 77,
                    "time": 183.92116399999998,
                    "velocity": 0.7244094488188977,
                    "duration": 0.06535933333333332
                },
                {
                    "name": "A4",
                    "midi": 69,
                    "time": 184.01920299999998,
                    "velocity": 0.7244094488188977,
                    "duration": 0.06535933333333332
                },
                {
                    "name": "C5",
                    "midi": 72,
                    "time": 184.11724199999998,
                    "velocity": 0.7244094488188977,
                    "duration": 0.06535933333333332
                },
                {
                    "name": "F5",
                    "midi": 77,
                    "time": 184.21528099999998,
                    "velocity": 0.7244094488188977,
                    "duration": 0.06535933333333332
                },
                {
                    "name": "A5",
                    "midi": 81,
                    "time": 184.31331999999998,
                    "velocity": 0.7244094488188977,
                    "duration": 0.06535933333333332
                },
                {
                    "name": "C6",
                    "midi": 84,
                    "time": 184.41135899999998,
                    "velocity": 0.7244094488188977,
                    "duration": 0.06535933333333332
                },
                {
                    "name": "A5",
                    "midi": 81,
                    "time": 184.50939799999998,
                    "velocity": 0.7244094488188977,
                    "duration": 0.06535933333333332
                },
                {
                    "name": "C6",
                    "midi": 84,
                    "time": 184.60743699999998,
                    "velocity": 0.7244094488188977,
                    "duration": 0.06535933333333332
                },
                {
                    "name": "D#6",
                    "midi": 87,
                    "time": 184.70547599999998,
                    "velocity": 0.7244094488188977,
                    "duration": 0.06535933333333332
                },
                {
                    "name": "C6",
                    "midi": 84,
                    "time": 184.80351499999998,
                    "velocity": 0.7244094488188977,
                    "duration": 0.06535933333333332
                },
                {
                    "name": "A5",
                    "midi": 81,
                    "time": 184.90155399999998,
                    "velocity": 0.7244094488188977,
                    "duration": 0.06535933333333332
                },
                {
                    "name": "F#5",
                    "midi": 78,
                    "time": 184.99959299999998,
                    "velocity": 0.7244094488188977,
                    "duration": 0.06535933333333332
                },
                {
                    "name": "G5",
                    "midi": 79,
                    "time": 185.09763199999998,
                    "velocity": 0.7244094488188977,
                    "duration": 0.06535933333333332
                },
                {
                    "name": "E6",
                    "midi": 88,
                    "time": 185.19567099999998,
                    "velocity": 0.7244094488188977,
                    "duration": 0.06535933333333332
                },
                {
                    "name": "D6",
                    "midi": 86,
                    "time": 185.29370999999998,
                    "velocity": 0.7244094488188977,
                    "duration": 0.06535933333333332
                },
                {
                    "name": "C6",
                    "midi": 84,
                    "time": 185.39174899999998,
                    "velocity": 0.7244094488188977,
                    "duration": 0.06535933333333332
                },
                {
                    "name": "B5",
                    "midi": 83,
                    "time": 185.48978799999998,
                    "velocity": 0.7244094488188977,
                    "duration": 0.06535933333333332
                },
                {
                    "name": "D6",
                    "midi": 86,
                    "time": 185.58782699999998,
                    "velocity": 0.7244094488188977,
                    "duration": 0.06535933333333332
                },
                {
                    "name": "C6",
                    "midi": 84,
                    "time": 185.68586599999998,
                    "velocity": 0.7244094488188977,
                    "duration": 0.06535933333333332
                },
                {
                    "name": "A5",
                    "midi": 81,
                    "time": 185.78390499999998,
                    "velocity": 0.7244094488188977,
                    "duration": 0.06535933333333332
                },
                {
                    "name": "G5",
                    "midi": 79,
                    "time": 185.88194399999998,
                    "velocity": 0.7244094488188977,
                    "duration": 0.06535933333333332
                },
                {
                    "name": "F#5",
                    "midi": 78,
                    "time": 185.97998299999998,
                    "velocity": 0.7244094488188977,
                    "duration": 0.06535933333333332
                },
                {
                    "name": "A5",
                    "midi": 81,
                    "time": 186.07802199999998,
                    "velocity": 0.7244094488188977,
                    "duration": 0.06535933333333332
                },
                {
                    "name": "G5",
                    "midi": 79,
                    "time": 186.17606099999998,
                    "velocity": 0.7244094488188977,
                    "duration": 0.06535933333333332
                },
                {
                    "name": "F5",
                    "midi": 77,
                    "time": 186.27409999999998,
                    "velocity": 0.7244094488188977,
                    "duration": 0.06535933333333332
                },
                {
                    "name": "E5",
                    "midi": 76,
                    "time": 186.37213899999998,
                    "velocity": 0.7244094488188977,
                    "duration": 0.06535933333333332
                },
                {
                    "name": "F5",
                    "midi": 77,
                    "time": 186.47017799999998,
                    "velocity": 0.7244094488188977,
                    "duration": 0.06535933333333332
                },
                {
                    "name": "D5",
                    "midi": 74,
                    "time": 186.56821699999998,
                    "velocity": 0.7244094488188977,
                    "duration": 0.06535933333333332
                },
                {
                    "name": "C5",
                    "midi": 72,
                    "time": 186.66625599999998,
                    "velocity": 0.7244094488188977,
                    "duration": 0.06535933333333332
                },
                {
                    "name": "D#5",
                    "midi": 75,
                    "time": 186.76429499999998,
                    "velocity": 0.7244094488188977,
                    "duration": 0.06535933333333332
                },
                {
                    "name": "D5",
                    "midi": 74,
                    "time": 186.86233399999998,
                    "velocity": 0.7244094488188977,
                    "duration": 0.06535933333333332
                },
                {
                    "name": "D#5",
                    "midi": 75,
                    "time": 186.96037299999998,
                    "velocity": 0.7244094488188977,
                    "duration": 0.06535933333333332
                },
                {
                    "name": "F5",
                    "midi": 77,
                    "time": 187.05841199999998,
                    "velocity": 0.7244094488188977,
                    "duration": 0.06535933333333332
                },
                {
                    "name": "D#5",
                    "midi": 75,
                    "time": 187.15645099999998,
                    "velocity": 0.7244094488188977,
                    "duration": 0.06535933333333332
                },
                {
                    "name": "D5",
                    "midi": 74,
                    "time": 187.25448999999998,
                    "velocity": 0.7244094488188977,
                    "duration": 0.06535933333333332
                },
                {
                    "name": "D#5",
                    "midi": 75,
                    "time": 187.35252899999998,
                    "velocity": 0.7244094488188977,
                    "duration": 0.06535933333333332
                },
                {
                    "name": "G#5",
                    "midi": 80,
                    "time": 187.45056799999998,
                    "velocity": 0.7244094488188977,
                    "duration": 0.06535933333333332
                },
                {
                    "name": "D#5",
                    "midi": 75,
                    "time": 187.54860699999998,
                    "velocity": 0.7244094488188977,
                    "duration": 0.06535933333333332
                },
                {
                    "name": "D5",
                    "midi": 74,
                    "time": 187.64664599999998,
                    "velocity": 0.7244094488188977,
                    "duration": 0.06535933333333332
                },
                {
                    "name": "D#5",
                    "midi": 75,
                    "time": 187.74468499999998,
                    "velocity": 0.7244094488188977,
                    "duration": 0.06535933333333332
                },
                {
                    "name": "C6",
                    "midi": 84,
                    "time": 187.84272399999998,
                    "velocity": 0.7244094488188977,
                    "duration": 0.06535933333333332
                },
                {
                    "name": "D#5",
                    "midi": 75,
                    "time": 187.94076299999998,
                    "velocity": 0.7244094488188977,
                    "duration": 0.06535933333333332
                },
                {
                    "name": "D5",
                    "midi": 74,
                    "time": 188.03880199999998,
                    "velocity": 0.7244094488188977,
                    "duration": 0.06535933333333332
                },
                {
                    "name": "D#5",
                    "midi": 75,
                    "time": 188.13684099999998,
                    "velocity": 0.7244094488188977,
                    "duration": 0.06535933333333332
                },
                {
                    "name": "C#6",
                    "midi": 85,
                    "time": 188.23487999999998,
                    "velocity": 0.7244094488188977,
                    "duration": 0.06535933333333332
                },
                {
                    "name": "D#6",
                    "midi": 87,
                    "time": 188.33291899999998,
                    "velocity": 0.7244094488188977,
                    "duration": 0.06535933333333332
                },
                {
                    "name": "C6",
                    "midi": 84,
                    "time": 188.43095799999998,
                    "velocity": 0.7244094488188977,
                    "duration": 0.06535933333333332
                },
                {
                    "name": "C#6",
                    "midi": 85,
                    "time": 188.52899699999998,
                    "velocity": 0.7244094488188977,
                    "duration": 0.06535933333333332
                },
                {
                    "name": "A#5",
                    "midi": 82,
                    "time": 188.62703599999998,
                    "velocity": 0.7244094488188977,
                    "duration": 0.06535933333333332
                },
                {
                    "name": "C6",
                    "midi": 84,
                    "time": 188.72507499999998,
                    "velocity": 0.7244094488188977,
                    "duration": 0.06535933333333332
                },
                {
                    "name": "G#5",
                    "midi": 80,
                    "time": 188.82311399999998,
                    "velocity": 0.7244094488188977,
                    "duration": 0.06535933333333332
                },
                {
                    "name": "A#5",
                    "midi": 82,
                    "time": 188.92115299999998,
                    "velocity": 0.7244094488188977,
                    "duration": 0.06535933333333332
                },
                {
                    "name": "G5",
                    "midi": 79,
                    "time": 189.01919199999998,
                    "velocity": 0.7244094488188977,
                    "duration": 0.06535933333333332
                },
                {
                    "name": "G#5",
                    "midi": 80,
                    "time": 189.11723099999998,
                    "velocity": 0.7244094488188977,
                    "duration": 0.06535933333333332
                },
                {
                    "name": "A#5",
                    "midi": 82,
                    "time": 189.21526999999998,
                    "velocity": 0.7244094488188977,
                    "duration": 0.06535933333333332
                },
                {
                    "name": "G#5",
                    "midi": 80,
                    "time": 189.31330899999998,
                    "velocity": 0.7244094488188977,
                    "duration": 0.06535933333333332
                },
                {
                    "name": "G5",
                    "midi": 79,
                    "time": 189.41134799999998,
                    "velocity": 0.7244094488188977,
                    "duration": 0.06535933333333332
                },
                {
                    "name": "F5",
                    "midi": 77,
                    "time": 189.50938699999998,
                    "velocity": 0.7244094488188977,
                    "duration": 0.06535933333333332
                },
                {
                    "name": "D#5",
                    "midi": 75,
                    "time": 189.60742599999998,
                    "velocity": 0.7244094488188977,
                    "duration": 0.06535933333333332
                },
                {
                    "name": "C#5",
                    "midi": 73,
                    "time": 189.70546499999998,
                    "velocity": 0.7244094488188977,
                    "duration": 0.06535933333333332
                },
                {
                    "name": "C5",
                    "midi": 72,
                    "time": 189.80350399999998,
                    "velocity": 0.7244094488188977,
                    "duration": 0.06535933333333332
                },
                {
                    "name": "G#4",
                    "midi": 68,
                    "time": 189.90154299999998,
                    "velocity": 0.7244094488188977,
                    "duration": 0.06535933333333332
                },
                {
                    "name": "A#4",
                    "midi": 70,
                    "time": 189.99958199999998,
                    "velocity": 0.7244094488188977,
                    "duration": 0.06535933333333332
                },
                {
                    "name": "C5",
                    "midi": 72,
                    "time": 190.09762099999998,
                    "velocity": 0.7244094488188977,
                    "duration": 0.06535933333333332
                },
                {
                    "name": "C#5",
                    "midi": 73,
                    "time": 190.19565999999998,
                    "velocity": 0.7244094488188977,
                    "duration": 0.06535933333333332
                },
                {
                    "name": "D#5",
                    "midi": 75,
                    "time": 190.29369899999998,
                    "velocity": 0.7244094488188977,
                    "duration": 0.06535933333333332
                },
                {
                    "name": "F5",
                    "midi": 77,
                    "time": 190.39173799999998,
                    "velocity": 0.7244094488188977,
                    "duration": 0.06535933333333332
                },
                {
                    "name": "G5",
                    "midi": 79,
                    "time": 190.48977699999998,
                    "velocity": 0.7244094488188977,
                    "duration": 0.06535933333333332
                },
                {
                    "name": "G#5",
                    "midi": 80,
                    "time": 190.58781599999998,
                    "velocity": 0.7244094488188977,
                    "duration": 0.06535933333333332
                },
                {
                    "name": "A#5",
                    "midi": 82,
                    "time": 190.68585499999998,
                    "velocity": 0.7244094488188977,
                    "duration": 0.06535933333333332
                },
                {
                    "name": "C6",
                    "midi": 84,
                    "time": 190.78389399999998,
                    "velocity": 0.7244094488188977,
                    "duration": 0.06535933333333332
                },
                {
                    "name": "D6",
                    "midi": 86,
                    "time": 190.88193299999998,
                    "velocity": 0.7244094488188977,
                    "duration": 0.06535933333333332
                },
                {
                    "name": "D#6",
                    "midi": 87,
                    "time": 190.97997199999998,
                    "velocity": 0.7244094488188977,
                    "duration": 0.06535933333333332
                },
                {
                    "name": "C6",
                    "midi": 84,
                    "time": 191.07801099999998,
                    "velocity": 0.7244094488188977,
                    "duration": 0.06535933333333332
                },
                {
                    "name": "G#5",
                    "midi": 80,
                    "time": 191.17604999999998,
                    "velocity": 0.7244094488188977,
                    "duration": 0.06535933333333332
                },
                {
                    "name": "F#5",
                    "midi": 78,
                    "time": 191.27408899999998,
                    "velocity": 0.7244094488188977,
                    "duration": 0.06535933333333332
                },
                {
                    "name": "G5",
                    "midi": 79,
                    "time": 191.37212799999998,
                    "velocity": 0.7244094488188977,
                    "duration": 0.06535933333333332
                },
                {
                    "name": "F#5",
                    "midi": 78,
                    "time": 191.47016699999998,
                    "velocity": 0.7244094488188977,
                    "duration": 0.06535933333333332
                },
                {
                    "name": "A5",
                    "midi": 81,
                    "time": 191.56820599999998,
                    "velocity": 0.7244094488188977,
                    "duration": 0.06535933333333332
                },
                {
                    "name": "G5",
                    "midi": 79,
                    "time": 191.66624499999998,
                    "velocity": 0.7244094488188977,
                    "duration": 0.06535933333333332
                },
                {
                    "name": "F5",
                    "midi": 77,
                    "time": 191.76428399999998,
                    "velocity": 0.7244094488188977,
                    "duration": 0.06535933333333332
                },
                {
                    "name": "E5",
                    "midi": 76,
                    "time": 191.86232299999998,
                    "velocity": 0.7244094488188977,
                    "duration": 0.06535933333333332
                },
                {
                    "name": "D5",
                    "midi": 74,
                    "time": 191.96036199999998,
                    "velocity": 0.7244094488188977,
                    "duration": 0.06535933333333332
                },
                {
                    "name": "C5",
                    "midi": 72,
                    "time": 192.05840099999998,
                    "velocity": 0.7244094488188977,
                    "duration": 0.06535933333333332
                },
                {
                    "name": "B4",
                    "midi": 71,
                    "time": 192.15643999999998,
                    "velocity": 0.7244094488188977,
                    "duration": 0.06535933333333332
                },
                {
                    "name": "A4",
                    "midi": 69,
                    "time": 192.25447899999998,
                    "velocity": 0.7244094488188977,
                    "duration": 0.06535933333333332
                },
                {
                    "name": "G4",
                    "midi": 67,
                    "time": 192.35251799999998,
                    "velocity": 0.7244094488188977,
                    "duration": 0.06535933333333332
                },
                {
                    "name": "F4",
                    "midi": 65,
                    "time": 192.45055699999998,
                    "velocity": 0.7244094488188977,
                    "duration": 0.06535933333333332
                },
                {
                    "name": "E4",
                    "midi": 64,
                    "time": 192.54859599999997,
                    "velocity": 0.7244094488188977,
                    "duration": 0.06535933333333332
                },
                {
                    "name": "D4",
                    "midi": 62,
                    "time": 192.64663499999997,
                    "velocity": 0.7244094488188977,
                    "duration": 0.06535933333333332
                },
                {
                    "name": "C4",
                    "midi": 60,
                    "time": 192.74467399999997,
                    "velocity": 0.7244094488188977,
                    "duration": 0.06535933333333332
                },
                {
                    "name": "B3",
                    "midi": 59,
                    "time": 192.84271299999997,
                    "velocity": 0.7244094488188977,
                    "duration": 0.06535933333333332
                },
                {
                    "name": "C4",
                    "midi": 60,
                    "time": 192.94075199999997,
                    "velocity": 0.7244094488188977,
                    "duration": 0.06535933333333332
                },
                {
                    "name": "C4",
                    "midi": 60,
                    "time": 199.21524799999997,
                    "velocity": 0.7244094488188977,
                    "duration": 0.06535933333333332
                },
                {
                    "name": "E5",
                    "midi": 76,
                    "time": 199.31328699999997,
                    "velocity": 0.7244094488188977,
                    "duration": 0.06535933333333332
                },
                {
                    "name": "E6",
                    "midi": 88,
                    "time": 199.41132599999997,
                    "velocity": 0.7244094488188977,
                    "duration": 0.06535933333333332
                },
                {
                    "name": "D6",
                    "midi": 86,
                    "time": 199.50936499999997,
                    "velocity": 0.7244094488188977,
                    "duration": 0.06535933333333332
                },
                {
                    "name": "C#6",
                    "midi": 85,
                    "time": 199.60740399999997,
                    "velocity": 0.7244094488188977,
                    "duration": 0.06535933333333332
                },
                {
                    "name": "A5",
                    "midi": 81,
                    "time": 199.70544299999997,
                    "velocity": 0.7244094488188977,
                    "duration": 0.06535933333333332
                },
                {
                    "name": "B5",
                    "midi": 83,
                    "time": 199.80348199999997,
                    "velocity": 0.7244094488188977,
                    "duration": 0.06535933333333332
                },
                {
                    "name": "C#6",
                    "midi": 85,
                    "time": 199.90152099999997,
                    "velocity": 0.7244094488188977,
                    "duration": 0.06535933333333332
                },
                {
                    "name": "D6",
                    "midi": 86,
                    "time": 199.99955999999997,
                    "velocity": 0.7244094488188977,
                    "duration": 0.06535933333333332
                },
                {
                    "name": "F6",
                    "midi": 89,
                    "time": 200.09759899999997,
                    "velocity": 0.7244094488188977,
                    "duration": 0.06535933333333332
                },
                {
                    "name": "D6",
                    "midi": 86,
                    "time": 200.19563799999997,
                    "velocity": 0.7244094488188977,
                    "duration": 0.06535933333333332
                },
                {
                    "name": "C6",
                    "midi": 84,
                    "time": 200.29367699999997,
                    "velocity": 0.7244094488188977,
                    "duration": 0.06535933333333332
                },
                {
                    "name": "B5",
                    "midi": 83,
                    "time": 200.39171599999997,
                    "velocity": 0.7244094488188977,
                    "duration": 0.06535933333333332
                },
                {
                    "name": "G5",
                    "midi": 79,
                    "time": 200.48975499999997,
                    "velocity": 0.7244094488188977,
                    "duration": 0.06535933333333332
                },
                {
                    "name": "A5",
                    "midi": 81,
                    "time": 200.58779399999997,
                    "velocity": 0.7244094488188977,
                    "duration": 0.06535933333333332
                },
                {
                    "name": "B5",
                    "midi": 83,
                    "time": 200.68583299999997,
                    "velocity": 0.7244094488188977,
                    "duration": 0.06535933333333332
                },
                {
                    "name": "C6",
                    "midi": 84,
                    "time": 200.78387199999997,
                    "velocity": 0.7244094488188977,
                    "duration": 0.06535933333333332
                },
                {
                    "name": "E6",
                    "midi": 88,
                    "time": 200.88191099999997,
                    "velocity": 0.7244094488188977,
                    "duration": 0.06535933333333332
                },
                {
                    "name": "C6",
                    "midi": 84,
                    "time": 200.97994999999997,
                    "velocity": 0.7244094488188977,
                    "duration": 0.06535933333333332
                },
                {
                    "name": "B5",
                    "midi": 83,
                    "time": 201.07798899999997,
                    "velocity": 0.7244094488188977,
                    "duration": 0.06535933333333332
                },
                {
                    "name": "A5",
                    "midi": 81,
                    "time": 201.17602799999997,
                    "velocity": 0.7244094488188977,
                    "duration": 0.06535933333333332
                },
                {
                    "name": "F5",
                    "midi": 77,
                    "time": 201.27406699999997,
                    "velocity": 0.7244094488188977,
                    "duration": 0.06535933333333332
                },
                {
                    "name": "G5",
                    "midi": 79,
                    "time": 201.37210599999997,
                    "velocity": 0.7244094488188977,
                    "duration": 0.06535933333333332
                },
                {
                    "name": "A5",
                    "midi": 81,
                    "time": 201.47014499999997,
                    "velocity": 0.7244094488188977,
                    "duration": 0.06535933333333332
                },
                {
                    "name": "B5",
                    "midi": 83,
                    "time": 201.56818399999997,
                    "velocity": 0.7244094488188977,
                    "duration": 0.06535933333333332
                },
                {
                    "name": "D6",
                    "midi": 86,
                    "time": 201.66622299999997,
                    "velocity": 0.7244094488188977,
                    "duration": 0.06535933333333332
                },
                {
                    "name": "B5",
                    "midi": 83,
                    "time": 201.76426199999997,
                    "velocity": 0.7244094488188977,
                    "duration": 0.06535933333333332
                },
                {
                    "name": "A5",
                    "midi": 81,
                    "time": 201.86230099999997,
                    "velocity": 0.7244094488188977,
                    "duration": 0.06535933333333332
                },
                {
                    "name": "G#5",
                    "midi": 80,
                    "time": 201.96033999999997,
                    "velocity": 0.7244094488188977,
                    "duration": 0.06535933333333332
                },
                {
                    "name": "E5",
                    "midi": 76,
                    "time": 202.05837899999997,
                    "velocity": 0.7244094488188977,
                    "duration": 0.06535933333333332
                },
                {
                    "name": "F#5",
                    "midi": 78,
                    "time": 202.15641799999997,
                    "velocity": 0.7244094488188977,
                    "duration": 0.06535933333333332
                },
                {
                    "name": "G#5",
                    "midi": 80,
                    "time": 202.25445699999997,
                    "velocity": 0.7244094488188977,
                    "duration": 0.06535933333333332
                },
                {
                    "name": "A5",
                    "midi": 81,
                    "time": 202.35249599999997,
                    "velocity": 0.7244094488188977,
                    "duration": 0.06535933333333332
                },
                {
                    "name": "C6",
                    "midi": 84,
                    "time": 202.45053499999997,
                    "velocity": 0.7244094488188977,
                    "duration": 0.06535933333333332
                },
                {
                    "name": "A5",
                    "midi": 81,
                    "time": 202.54857399999997,
                    "velocity": 0.7244094488188977,
                    "duration": 0.06535933333333332
                },
                {
                    "name": "G5",
                    "midi": 79,
                    "time": 202.64661299999997,
                    "velocity": 0.7244094488188977,
                    "duration": 0.06535933333333332
                },
                {
                    "name": "F#5",
                    "midi": 78,
                    "time": 202.74465199999997,
                    "velocity": 0.7244094488188977,
                    "duration": 0.06535933333333332
                },
                {
                    "name": "D5",
                    "midi": 74,
                    "time": 202.84269099999997,
                    "velocity": 0.7244094488188977,
                    "duration": 0.06535933333333332
                },
                {
                    "name": "E5",
                    "midi": 76,
                    "time": 202.94072999999997,
                    "velocity": 0.7244094488188977,
                    "duration": 0.06535933333333332
                },
                {
                    "name": "F#5",
                    "midi": 78,
                    "time": 203.03876899999997,
                    "velocity": 0.7244094488188977,
                    "duration": 0.06535933333333332
                },
                {
                    "name": "G5",
                    "midi": 79,
                    "time": 203.13680799999997,
                    "velocity": 0.7244094488188977,
                    "duration": 0.06535933333333332
                },
                {
                    "name": "A5",
                    "midi": 81,
                    "time": 203.23484699999997,
                    "velocity": 0.7244094488188977,
                    "duration": 0.06535933333333332
                },
                {
                    "name": "B5",
                    "midi": 83,
                    "time": 203.33288599999997,
                    "velocity": 0.7244094488188977,
                    "duration": 0.06535933333333332
                },
                {
                    "name": "C6",
                    "midi": 84,
                    "time": 203.43092499999997,
                    "velocity": 0.7244094488188977,
                    "duration": 0.06535933333333332
                },
                {
                    "name": "D6",
                    "midi": 86,
                    "time": 203.52896399999997,
                    "velocity": 0.7244094488188977,
                    "duration": 0.06535933333333332
                },
                {
                    "name": "E6",
                    "midi": 88,
                    "time": 203.62700299999997,
                    "velocity": 0.7244094488188977,
                    "duration": 0.06535933333333332
                },
                {
                    "name": "F6",
                    "midi": 89,
                    "time": 203.72504199999997,
                    "velocity": 0.7244094488188977,
                    "duration": 0.06535933333333332
                },
                {
                    "name": "D6",
                    "midi": 86,
                    "time": 203.82308099999997,
                    "velocity": 0.7244094488188977,
                    "duration": 0.06535933333333332
                },
                {
                    "name": "F6",
                    "midi": 89,
                    "time": 203.92111999999997,
                    "velocity": 0.7244094488188977,
                    "duration": 0.06535933333333332
                },
                {
                    "name": "E6",
                    "midi": 88,
                    "time": 204.01915899999997,
                    "velocity": 0.7244094488188977,
                    "duration": 0.06535933333333332
                },
                {
                    "name": "D6",
                    "midi": 86,
                    "time": 204.11719799999997,
                    "velocity": 0.7244094488188977,
                    "duration": 0.06535933333333332
                },
                {
                    "name": "C6",
                    "midi": 84,
                    "time": 204.21523699999997,
                    "velocity": 0.7244094488188977,
                    "duration": 0.06535933333333332
                },
                {
                    "name": "G#5",
                    "midi": 80,
                    "time": 204.31327599999997,
                    "velocity": 0.7244094488188977,
                    "duration": 0.06535933333333332
                },
                {
                    "name": "A5",
                    "midi": 81,
                    "time": 204.41131499999997,
                    "velocity": 0.7244094488188977,
                    "duration": 0.06535933333333332
                },
                {
                    "name": "F5",
                    "midi": 77,
                    "time": 204.50935399999997,
                    "velocity": 0.7244094488188977,
                    "duration": 0.06535933333333332
                },
                {
                    "name": "D5",
                    "midi": 74,
                    "time": 204.60739299999997,
                    "velocity": 0.7244094488188977,
                    "duration": 0.06535933333333332
                },
                {
                    "name": "A5",
                    "midi": 81,
                    "time": 204.70543199999997,
                    "velocity": 0.7244094488188977,
                    "duration": 0.06535933333333332
                },
                {
                    "name": "G5",
                    "midi": 79,
                    "time": 204.80347099999997,
                    "velocity": 0.7244094488188977,
                    "duration": 0.06535933333333332
                },
                {
                    "name": "E5",
                    "midi": 76,
                    "time": 204.90150999999997,
                    "velocity": 0.7244094488188977,
                    "duration": 0.06535933333333332
                },
                {
                    "name": "C5",
                    "midi": 72,
                    "time": 204.99954899999997,
                    "velocity": 0.7244094488188977,
                    "duration": 0.06535933333333332
                },
                {
                    "name": "G5",
                    "midi": 79,
                    "time": 205.09758799999997,
                    "velocity": 0.7244094488188977,
                    "duration": 0.06535933333333332
                },
                {
                    "name": "F5",
                    "midi": 77,
                    "time": 205.19562699999997,
                    "velocity": 0.7244094488188977,
                    "duration": 0.06535933333333332
                },
                {
                    "name": "D5",
                    "midi": 74,
                    "time": 205.29366599999997,
                    "velocity": 0.7244094488188977,
                    "duration": 0.06535933333333332
                },
                {
                    "name": "B4",
                    "midi": 71,
                    "time": 205.39170499999997,
                    "velocity": 0.7244094488188977,
                    "duration": 0.06535933333333332
                },
                {
                    "name": "C5",
                    "midi": 72,
                    "time": 205.48974399999997,
                    "velocity": 0.7244094488188977,
                    "duration": 0.06535933333333332
                },
                {
                    "name": "G5",
                    "midi": 79,
                    "time": 205.58778299999997,
                    "velocity": 0.7244094488188977,
                    "duration": 0.06535933333333332
                },
                {
                    "name": "E5",
                    "midi": 76,
                    "time": 205.68582199999997,
                    "velocity": 0.7244094488188977,
                    "duration": 0.06535933333333332
                },
                {
                    "name": "D5",
                    "midi": 74,
                    "time": 205.78386099999997,
                    "velocity": 0.7244094488188977,
                    "duration": 0.06535933333333332
                },
                {
                    "name": "C#5",
                    "midi": 73,
                    "time": 205.88189999999997,
                    "velocity": 0.7244094488188977,
                    "duration": 0.06535933333333332
                },
                {
                    "name": "A#5",
                    "midi": 82,
                    "time": 205.97993899999997,
                    "velocity": 0.7244094488188977,
                    "duration": 0.06535933333333332
                },
                {
                    "name": "A5",
                    "midi": 81,
                    "time": 206.07797799999997,
                    "velocity": 0.7244094488188977,
                    "duration": 0.06535933333333332
                },
                {
                    "name": "G5",
                    "midi": 79,
                    "time": 206.17601699999997,
                    "velocity": 0.7244094488188977,
                    "duration": 0.06535933333333332
                },
                {
                    "name": "F5",
                    "midi": 77,
                    "time": 206.27405599999997,
                    "velocity": 0.7244094488188977,
                    "duration": 0.06535933333333332
                },
                {
                    "name": "E5",
                    "midi": 76,
                    "time": 206.37209499999997,
                    "velocity": 0.7244094488188977,
                    "duration": 0.06535933333333332
                },
                {
                    "name": "D5",
                    "midi": 74,
                    "time": 206.47013399999997,
                    "velocity": 0.7244094488188977,
                    "duration": 0.06535933333333332
                },
                {
                    "name": "C5",
                    "midi": 72,
                    "time": 206.56817299999997,
                    "velocity": 0.7244094488188977,
                    "duration": 0.06535933333333332
                },
                {
                    "name": "B4",
                    "midi": 71,
                    "time": 206.66621199999997,
                    "velocity": 0.7244094488188977,
                    "duration": 0.06535933333333332
                },
                {
                    "name": "A5",
                    "midi": 81,
                    "time": 206.76425099999997,
                    "velocity": 0.7244094488188977,
                    "duration": 0.06535933333333332
                },
                {
                    "name": "G5",
                    "midi": 79,
                    "time": 206.86228999999997,
                    "velocity": 0.7244094488188977,
                    "duration": 0.06535933333333332
                },
                {
                    "name": "F5",
                    "midi": 77,
                    "time": 206.96032899999997,
                    "velocity": 0.7244094488188977,
                    "duration": 0.06535933333333332
                },
                {
                    "name": "E5",
                    "midi": 76,
                    "time": 207.05836799999997,
                    "velocity": 0.7244094488188977,
                    "duration": 0.06535933333333332
                },
                {
                    "name": "D5",
                    "midi": 74,
                    "time": 207.15640699999997,
                    "velocity": 0.7244094488188977,
                    "duration": 0.06535933333333332
                },
                {
                    "name": "C5",
                    "midi": 72,
                    "time": 207.25444599999997,
                    "velocity": 0.7244094488188977,
                    "duration": 0.06535933333333332
                },
                {
                    "name": "B4",
                    "midi": 71,
                    "time": 207.35248499999997,
                    "velocity": 0.7244094488188977,
                    "duration": 0.06535933333333332
                },
                {
                    "name": "A4",
                    "midi": 69,
                    "time": 207.45052399999997,
                    "velocity": 0.7244094488188977,
                    "duration": 0.06535933333333332
                },
                {
                    "name": "G5",
                    "midi": 79,
                    "time": 207.54856299999997,
                    "velocity": 0.7244094488188977,
                    "duration": 0.06535933333333332
                },
                {
                    "name": "F5",
                    "midi": 77,
                    "time": 207.64660199999997,
                    "velocity": 0.7244094488188977,
                    "duration": 0.06535933333333332
                },
                {
                    "name": "E5",
                    "midi": 76,
                    "time": 207.74464099999997,
                    "velocity": 0.7244094488188977,
                    "duration": 0.06535933333333332
                },
                {
                    "name": "D5",
                    "midi": 74,
                    "time": 207.84267999999997,
                    "velocity": 0.7244094488188977,
                    "duration": 0.06535933333333332
                },
                {
                    "name": "C5",
                    "midi": 72,
                    "time": 207.94071899999997,
                    "velocity": 0.7244094488188977,
                    "duration": 0.06535933333333332
                },
                {
                    "name": "B4",
                    "midi": 71,
                    "time": 208.03875799999997,
                    "velocity": 0.7244094488188977,
                    "duration": 0.06535933333333332
                },
                {
                    "name": "A4",
                    "midi": 69,
                    "time": 208.13679699999997,
                    "velocity": 0.7244094488188977,
                    "duration": 0.06535933333333332
                },
                {
                    "name": "G#4",
                    "midi": 68,
                    "time": 208.23483599999997,
                    "velocity": 0.7244094488188977,
                    "duration": 0.06535933333333332
                },
                {
                    "name": "F5",
                    "midi": 77,
                    "time": 208.33287499999997,
                    "velocity": 0.7244094488188977,
                    "duration": 0.06535933333333332
                },
                {
                    "name": "E5",
                    "midi": 76,
                    "time": 208.43091399999997,
                    "velocity": 0.7244094488188977,
                    "duration": 0.06535933333333332
                },
                {
                    "name": "D5",
                    "midi": 74,
                    "time": 208.52895299999997,
                    "velocity": 0.7244094488188977,
                    "duration": 0.06535933333333332
                },
                {
                    "name": "C5",
                    "midi": 72,
                    "time": 208.62699199999997,
                    "velocity": 0.7244094488188977,
                    "duration": 0.06535933333333332
                },
                {
                    "name": "B4",
                    "midi": 71,
                    "time": 208.72503099999997,
                    "velocity": 0.7244094488188977,
                    "duration": 0.06535933333333332
                },
                {
                    "name": "A4",
                    "midi": 69,
                    "time": 208.82306999999997,
                    "velocity": 0.7244094488188977,
                    "duration": 0.06535933333333332
                },
                {
                    "name": "G4",
                    "midi": 67,
                    "time": 208.92110899999997,
                    "velocity": 0.7244094488188977,
                    "duration": 0.06535933333333332
                },
                {
                    "name": "F#4",
                    "midi": 66,
                    "time": 209.01914799999997,
                    "velocity": 0.7244094488188977,
                    "duration": 0.06535933333333332
                },
                {
                    "name": "E5",
                    "midi": 76,
                    "time": 209.11718699999997,
                    "velocity": 0.7244094488188977,
                    "duration": 0.06535933333333332
                },
                {
                    "name": "D5",
                    "midi": 74,
                    "time": 209.21522599999997,
                    "velocity": 0.7244094488188977,
                    "duration": 0.06535933333333332
                },
                {
                    "name": "C5",
                    "midi": 72,
                    "time": 209.31326499999997,
                    "velocity": 0.7244094488188977,
                    "duration": 0.06535933333333332
                },
                {
                    "name": "B4",
                    "midi": 71,
                    "time": 209.41130399999997,
                    "velocity": 0.7244094488188977,
                    "duration": 0.06535933333333332
                },
                {
                    "name": "G4",
                    "midi": 67,
                    "time": 209.50934299999997,
                    "velocity": 0.7244094488188977,
                    "duration": 0.06535933333333332
                },
                {
                    "name": "A4",
                    "midi": 69,
                    "time": 209.60738199999997,
                    "velocity": 0.7244094488188977,
                    "duration": 0.06535933333333332
                },
                {
                    "name": "B4",
                    "midi": 71,
                    "time": 209.70542099999997,
                    "velocity": 0.7244094488188977,
                    "duration": 0.06535933333333332
                },
                {
                    "name": "C5",
                    "midi": 72,
                    "time": 209.80345999999997,
                    "velocity": 0.7244094488188977,
                    "duration": 0.06535933333333332
                },
                {
                    "name": "D5",
                    "midi": 74,
                    "time": 209.90149899999997,
                    "velocity": 0.7244094488188977,
                    "duration": 0.06535933333333332
                },
                {
                    "name": "E5",
                    "midi": 76,
                    "time": 209.99953799999997,
                    "velocity": 0.7244094488188977,
                    "duration": 0.06535933333333332
                },
                {
                    "name": "F5",
                    "midi": 77,
                    "time": 210.09757699999997,
                    "velocity": 0.7244094488188977,
                    "duration": 0.06535933333333332
                },
                {
                    "name": "F5",
                    "midi": 77,
                    "time": 210.19561599999997,
                    "velocity": 0.7244094488188977,
                    "duration": 0.06535933333333332
                },
                {
                    "name": "E5",
                    "midi": 76,
                    "time": 210.29365499999997,
                    "velocity": 0.7244094488188977,
                    "duration": 0.06535933333333332
                },
                {
                    "name": "D5",
                    "midi": 74,
                    "time": 210.39169399999997,
                    "velocity": 0.7244094488188977,
                    "duration": 0.06535933333333332
                },
                {
                    "name": "C5",
                    "midi": 72,
                    "time": 210.48973299999997,
                    "velocity": 0.7244094488188977,
                    "duration": 0.06535933333333332
                },
                {
                    "name": "G#4",
                    "midi": 68,
                    "time": 210.58777199999997,
                    "velocity": 0.7244094488188977,
                    "duration": 0.06535933333333332
                },
                {
                    "name": "A4",
                    "midi": 69,
                    "time": 210.68581099999997,
                    "velocity": 0.7244094488188977,
                    "duration": 0.06535933333333332
                },
                {
                    "name": "F4",
                    "midi": 65,
                    "time": 210.78384999999997,
                    "velocity": 0.7244094488188977,
                    "duration": 0.06535933333333332
                },
                {
                    "name": "D4",
                    "midi": 62,
                    "time": 210.88188899999997,
                    "velocity": 0.7244094488188977,
                    "duration": 0.06535933333333332
                },
                {
                    "name": "A4",
                    "midi": 69,
                    "time": 210.97992799999997,
                    "velocity": 0.7244094488188977,
                    "duration": 0.06535933333333332
                },
                {
                    "name": "G4",
                    "midi": 67,
                    "time": 211.07796699999997,
                    "velocity": 0.7244094488188977,
                    "duration": 0.06535933333333332
                },
                {
                    "name": "E4",
                    "midi": 64,
                    "time": 211.17600599999997,
                    "velocity": 0.7244094488188977,
                    "duration": 0.06535933333333332
                },
                {
                    "name": "C4",
                    "midi": 60,
                    "time": 211.27404499999997,
                    "velocity": 0.7244094488188977,
                    "duration": 0.06535933333333332
                },
                {
                    "name": "G4",
                    "midi": 67,
                    "time": 211.37208399999997,
                    "velocity": 0.7244094488188977,
                    "duration": 0.06535933333333332
                },
                {
                    "name": "F4",
                    "midi": 65,
                    "time": 211.47012299999997,
                    "velocity": 0.7244094488188977,
                    "duration": 0.06535933333333332
                },
                {
                    "name": "D4",
                    "midi": 62,
                    "time": 211.56816199999997,
                    "velocity": 0.7244094488188977,
                    "duration": 0.06535933333333332
                },
                {
                    "name": "B3",
                    "midi": 59,
                    "time": 211.66620099999997,
                    "velocity": 0.7244094488188977,
                    "duration": 0.06535933333333332
                },
                {
                    "name": "C4",
                    "midi": 60,
                    "time": 211.76423999999997,
                    "velocity": 0.7244094488188977,
                    "duration": 0.06535933333333332
                },
                {
                    "name": "E4",
                    "midi": 64,
                    "time": 211.86227899999997,
                    "velocity": 0.7244094488188977,
                    "duration": 0.06535933333333332
                },
                {
                    "name": "G4",
                    "midi": 67,
                    "time": 211.96031799999997,
                    "velocity": 0.7244094488188977,
                    "duration": 0.06535933333333332
                },
                {
                    "name": "C5",
                    "midi": 72,
                    "time": 212.05835699999997,
                    "velocity": 0.7244094488188977,
                    "duration": 0.06535933333333332
                },
                {
                    "name": "E5",
                    "midi": 76,
                    "time": 212.15639599999997,
                    "velocity": 0.7244094488188977,
                    "duration": 0.06535933333333332
                },
                {
                    "name": "C5",
                    "midi": 72,
                    "time": 212.25443499999997,
                    "velocity": 0.7244094488188977,
                    "duration": 0.06535933333333332
                },
                {
                    "name": "B4",
                    "midi": 71,
                    "time": 212.35247399999997,
                    "velocity": 0.7244094488188977,
                    "duration": 0.06535933333333332
                },
                {
                    "name": "A4",
                    "midi": 69,
                    "time": 212.45051299999997,
                    "velocity": 0.7244094488188977,
                    "duration": 0.06535933333333332
                },
                {
                    "name": "G4",
                    "midi": 67,
                    "time": 212.54855199999997,
                    "velocity": 0.7244094488188977,
                    "duration": 0.06535933333333332
                },
                {
                    "name": "B4",
                    "midi": 71,
                    "time": 212.64659099999997,
                    "velocity": 0.7244094488188977,
                    "duration": 0.06535933333333332
                },
                {
                    "name": "D5",
                    "midi": 74,
                    "time": 212.74462999999997,
                    "velocity": 0.7244094488188977,
                    "duration": 0.06535933333333332
                },
                {
                    "name": "F#5",
                    "midi": 78,
                    "time": 212.84266899999997,
                    "velocity": 0.7244094488188977,
                    "duration": 0.06535933333333332
                },
                {
                    "name": "G5",
                    "midi": 79,
                    "time": 212.94070799999997,
                    "velocity": 0.7244094488188977,
                    "duration": 0.06535933333333332
                },
                {
                    "name": "F5",
                    "midi": 77,
                    "time": 213.03874699999997,
                    "velocity": 0.7244094488188977,
                    "duration": 0.06535933333333332
                },
                {
                    "name": "D5",
                    "midi": 74,
                    "time": 213.13678599999997,
                    "velocity": 0.7244094488188977,
                    "duration": 0.06535933333333332
                },
                {
                    "name": "B4",
                    "midi": 71,
                    "time": 213.23482499999997,
                    "velocity": 0.7244094488188977,
                    "duration": 0.06535933333333332
                },
                {
                    "name": "C5",
                    "midi": 72,
                    "time": 213.33286399999997,
                    "velocity": 0.7244094488188977,
                    "duration": 0.06535933333333332
                },
                {
                    "name": "E5",
                    "midi": 76,
                    "time": 213.43090299999997,
                    "velocity": 0.7244094488188977,
                    "duration": 0.06535933333333332
                },
                {
                    "name": "G5",
                    "midi": 79,
                    "time": 213.52894199999997,
                    "velocity": 0.7244094488188977,
                    "duration": 0.06535933333333332
                },
                {
                    "name": "C6",
                    "midi": 84,
                    "time": 213.62698099999997,
                    "velocity": 0.7244094488188977,
                    "duration": 0.06535933333333332
                },
                {
                    "name": "E6",
                    "midi": 88,
                    "time": 213.72501999999997,
                    "velocity": 0.7244094488188977,
                    "duration": 0.06535933333333332
                },
                {
                    "name": "C6",
                    "midi": 84,
                    "time": 213.82305899999997,
                    "velocity": 0.7244094488188977,
                    "duration": 0.06535933333333332
                },
                {
                    "name": "B5",
                    "midi": 83,
                    "time": 213.92109799999997,
                    "velocity": 0.7244094488188977,
                    "duration": 0.06535933333333332
                },
                {
                    "name": "A5",
                    "midi": 81,
                    "time": 214.01913699999997,
                    "velocity": 0.7244094488188977,
                    "duration": 0.06535933333333332
                },
                {
                    "name": "G5",
                    "midi": 79,
                    "time": 214.11717599999997,
                    "velocity": 0.7244094488188977,
                    "duration": 0.06535933333333332
                },
                {
                    "name": "A5",
                    "midi": 81,
                    "time": 214.21521499999997,
                    "velocity": 0.7244094488188977,
                    "duration": 0.06535933333333332
                },
                {
                    "name": "B5",
                    "midi": 83,
                    "time": 214.31325399999997,
                    "velocity": 0.7244094488188977,
                    "duration": 0.06535933333333332
                },
                {
                    "name": "C6",
                    "midi": 84,
                    "time": 214.41129299999997,
                    "velocity": 0.7244094488188977,
                    "duration": 0.06535933333333332
                },
                {
                    "name": "D6",
                    "midi": 86,
                    "time": 214.50933199999997,
                    "velocity": 0.7244094488188977,
                    "duration": 0.06535933333333332
                },
                {
                    "name": "F6",
                    "midi": 89,
                    "time": 214.60737099999997,
                    "velocity": 0.7244094488188977,
                    "duration": 0.06535933333333332
                },
                {
                    "name": "D6",
                    "midi": 86,
                    "time": 214.70540999999997,
                    "velocity": 0.7244094488188977,
                    "duration": 0.06535933333333332
                },
                {
                    "name": "B5",
                    "midi": 83,
                    "time": 214.80344899999997,
                    "velocity": 0.7244094488188977,
                    "duration": 0.06535933333333332
                },
                {
                    "name": "C6",
                    "midi": 84,
                    "time": 214.90148799999997,
                    "velocity": 0.7244094488188977,
                    "duration": 0.06535933333333332
                },
                {
                    "name": "B5",
                    "midi": 83,
                    "time": 214.99952699999997,
                    "velocity": 0.7244094488188977,
                    "duration": 0.06535933333333332
                },
                {
                    "name": "C6",
                    "midi": 84,
                    "time": 215.09756599999997,
                    "velocity": 0.7244094488188977,
                    "duration": 0.06535933333333332
                },
                {
                    "name": "E6",
                    "midi": 88,
                    "time": 215.19560499999997,
                    "velocity": 0.7244094488188977,
                    "duration": 0.06535933333333332
                },
                {
                    "name": "D6",
                    "midi": 86,
                    "time": 215.29364399999997,
                    "velocity": 0.7244094488188977,
                    "duration": 0.06535933333333332
                },
                {
                    "name": "C6",
                    "midi": 84,
                    "time": 215.39168299999997,
                    "velocity": 0.7244094488188977,
                    "duration": 0.06535933333333332
                },
                {
                    "name": "B5",
                    "midi": 83,
                    "time": 215.48972199999997,
                    "velocity": 0.7244094488188977,
                    "duration": 0.06535933333333332
                },
                {
                    "name": "A5",
                    "midi": 81,
                    "time": 215.58776099999997,
                    "velocity": 0.7244094488188977,
                    "duration": 0.06535933333333332
                },
                {
                    "name": "G5",
                    "midi": 79,
                    "time": 215.68579999999997,
                    "velocity": 0.7244094488188977,
                    "duration": 0.06535933333333332
                },
                {
                    "name": "F#5",
                    "midi": 78,
                    "time": 215.78383899999997,
                    "velocity": 0.7244094488188977,
                    "duration": 0.06535933333333332
                },
                {
                    "name": "A5",
                    "midi": 81,
                    "time": 215.88187799999997,
                    "velocity": 0.7244094488188977,
                    "duration": 0.06535933333333332
                },
                {
                    "name": "G5",
                    "midi": 79,
                    "time": 215.97991699999997,
                    "velocity": 0.7244094488188977,
                    "duration": 0.06535933333333332
                },
                {
                    "name": "F5",
                    "midi": 77,
                    "time": 216.07795599999997,
                    "velocity": 0.7244094488188977,
                    "duration": 0.06535933333333332
                },
                {
                    "name": "E5",
                    "midi": 76,
                    "time": 216.17599499999997,
                    "velocity": 0.7244094488188977,
                    "duration": 0.06535933333333332
                },
                {
                    "name": "F5",
                    "midi": 77,
                    "time": 216.27403399999997,
                    "velocity": 0.7244094488188977,
                    "duration": 0.06535933333333332
                },
                {
                    "name": "D5",
                    "midi": 74,
                    "time": 216.37207299999997,
                    "velocity": 0.7244094488188977,
                    "duration": 0.06535933333333332
                },
                {
                    "name": "C5",
                    "midi": 72,
                    "time": 216.47011199999997,
                    "velocity": 0.7244094488188977,
                    "duration": 0.06535933333333332
                },
                {
                    "name": "B4",
                    "midi": 71,
                    "time": 216.56815099999997,
                    "velocity": 0.7244094488188977,
                    "duration": 0.06535933333333332
                },
                {
                    "name": "C5",
                    "midi": 72,
                    "time": 216.66618999999997,
                    "velocity": 0.7244094488188977,
                    "duration": 0.06535933333333332
                },
                {
                    "name": "E5",
                    "midi": 76,
                    "time": 216.76422899999997,
                    "velocity": 0.7244094488188977,
                    "duration": 0.06535933333333332
                },
                {
                    "name": "D5",
                    "midi": 74,
                    "time": 216.86226799999997,
                    "velocity": 0.7244094488188977,
                    "duration": 0.06535933333333332
                },
                {
                    "name": "C5",
                    "midi": 72,
                    "time": 216.96030699999997,
                    "velocity": 0.7244094488188977,
                    "duration": 0.06535933333333332
                },
                {
                    "name": "B4",
                    "midi": 71,
                    "time": 217.05834599999997,
                    "velocity": 0.7244094488188977,
                    "duration": 0.06535933333333332
                },
                {
                    "name": "A4",
                    "midi": 69,
                    "time": 217.15638499999997,
                    "velocity": 0.7244094488188977,
                    "duration": 0.06535933333333332
                },
                {
                    "name": "G4",
                    "midi": 67,
                    "time": 217.25442399999997,
                    "velocity": 0.7244094488188977,
                    "duration": 0.06535933333333332
                },
                {
                    "name": "F#4",
                    "midi": 66,
                    "time": 217.35246299999997,
                    "velocity": 0.7322834645669292,
                    "duration": 0.06535933333333332
                },
                {
                    "name": "A4",
                    "midi": 69,
                    "time": 217.45050199999997,
                    "velocity": 0.7401574803149606,
                    "duration": 0.06535933333333332
                },
                {
                    "name": "G4",
                    "midi": 67,
                    "time": 217.54854099999997,
                    "velocity": 0.7480314960629921,
                    "duration": 0.06535933333333332
                },
                {
                    "name": "F4",
                    "midi": 65,
                    "time": 217.64657999999997,
                    "velocity": 0.7559055118110236,
                    "duration": 0.06535933333333332
                },
                {
                    "name": "E4",
                    "midi": 64,
                    "time": 217.74461899999997,
                    "velocity": 0.7637795275590551,
                    "duration": 0.06535933333333332
                },
                {
                    "name": "F4",
                    "midi": 65,
                    "time": 217.84265799999997,
                    "velocity": 0.7716535433070866,
                    "duration": 0.06535933333333332
                },
                {
                    "name": "D4",
                    "midi": 62,
                    "time": 217.94069699999997,
                    "velocity": 0.7795275590551181,
                    "duration": 0.06535933333333332
                },
                {
                    "name": "C4",
                    "midi": 60,
                    "time": 218.03873599999997,
                    "velocity": 0.7874015748031497,
                    "duration": 0.06535933333333332
                },
                {
                    "name": "E4",
                    "midi": 64,
                    "time": 218.13677499999997,
                    "velocity": 0.7952755905511811,
                    "duration": 0.06535933333333332
                },
                {
                    "name": "G4",
                    "midi": 67,
                    "time": 218.23481399999997,
                    "velocity": 0.8031496062992126,
                    "duration": 0.06535933333333332
                },
                {
                    "name": "C5",
                    "midi": 72,
                    "time": 218.33285299999997,
                    "velocity": 0.8110236220472441,
                    "duration": 0.06535933333333332
                },
                {
                    "name": "B4",
                    "midi": 71,
                    "time": 218.43089199999997,
                    "velocity": 0.8188976377952756,
                    "duration": 0.06535933333333332
                },
                {
                    "name": "G4",
                    "midi": 67,
                    "time": 218.52893099999997,
                    "velocity": 0.8267716535433071,
                    "duration": 0.06535933333333332
                },
                {
                    "name": "F4",
                    "midi": 65,
                    "time": 218.62696999999997,
                    "velocity": 0.8346456692913385,
                    "duration": 0.06535933333333332
                },
                {
                    "name": "D4",
                    "midi": 62,
                    "time": 218.72500899999997,
                    "velocity": 0.84251968503937,
                    "duration": 0.06535933333333332
                },
                {
                    "name": "C4",
                    "midi": 60,
                    "time": 218.82304799999997,
                    "velocity": 0.8503937007874016,
                    "duration": 0.06535933333333332
                },
                {
                    "name": "E4",
                    "midi": 64,
                    "time": 218.92108699999997,
                    "velocity": 0.8503937007874016,
                    "duration": 0.06535933333333332
                },
                {
                    "name": "G4",
                    "midi": 67,
                    "time": 219.01912599999997,
                    "velocity": 0.8503937007874016,
                    "duration": 0.06535933333333332
                },
                {
                    "name": "C5",
                    "midi": 72,
                    "time": 219.11716499999997,
                    "velocity": 0.8503937007874016,
                    "duration": 0.06535933333333332
                },
                {
                    "name": "G4",
                    "midi": 67,
                    "time": 219.21520399999997,
                    "velocity": 0.8503937007874016,
                    "duration": 0.06535933333333332
                },
                {
                    "name": "B4",
                    "midi": 71,
                    "time": 219.31324299999997,
                    "velocity": 0.8503937007874016,
                    "duration": 0.06535933333333332
                },
                {
                    "name": "D5",
                    "midi": 74,
                    "time": 219.41128199999997,
                    "velocity": 0.8503937007874016,
                    "duration": 0.06535933333333332
                },
                {
                    "name": "G5",
                    "midi": 79,
                    "time": 219.50932099999997,
                    "velocity": 0.8503937007874016,
                    "duration": 0.06535933333333332
                },
                {
                    "name": "C5",
                    "midi": 72,
                    "time": 219.60735999999997,
                    "velocity": 0.8503937007874016,
                    "duration": 0.06535933333333332
                },
                {
                    "name": "E5",
                    "midi": 76,
                    "time": 219.70539899999997,
                    "velocity": 0.8503937007874016,
                    "duration": 0.06535933333333332
                },
                {
                    "name": "G5",
                    "midi": 79,
                    "time": 219.80343799999997,
                    "velocity": 0.8503937007874016,
                    "duration": 0.06535933333333332
                },
                {
                    "name": "C6",
                    "midi": 84,
                    "time": 219.90147699999997,
                    "velocity": 0.8503937007874016,
                    "duration": 0.06535933333333332
                },
                {
                    "name": "B5",
                    "midi": 83,
                    "time": 219.99951599999997,
                    "velocity": 0.8503937007874016,
                    "duration": 0.06535933333333332
                },
                {
                    "name": "G5",
                    "midi": 79,
                    "time": 220.09755499999997,
                    "velocity": 0.8503937007874016,
                    "duration": 0.06535933333333332
                },
                {
                    "name": "F5",
                    "midi": 77,
                    "time": 220.19559399999997,
                    "velocity": 0.8503937007874016,
                    "duration": 0.06535933333333332
                },
                {
                    "name": "D5",
                    "midi": 74,
                    "time": 220.29363299999997,
                    "velocity": 0.8503937007874016,
                    "duration": 0.06535933333333332
                },
                {
                    "name": "C5",
                    "midi": 72,
                    "time": 220.39167199999997,
                    "velocity": 0.8503937007874016,
                    "duration": 0.06535933333333332
                },
                {
                    "name": "E5",
                    "midi": 76,
                    "time": 220.48971099999997,
                    "velocity": 0.8503937007874016,
                    "duration": 0.06535933333333332
                },
                {
                    "name": "G5",
                    "midi": 79,
                    "time": 220.58774999999997,
                    "velocity": 0.8503937007874016,
                    "duration": 0.06535933333333332
                },
                {
                    "name": "C6",
                    "midi": 84,
                    "time": 220.68578899999997,
                    "velocity": 0.8503937007874016,
                    "duration": 0.06535933333333332
                },
                {
                    "name": "G5",
                    "midi": 79,
                    "time": 220.78382799999997,
                    "velocity": 0.8503937007874016,
                    "duration": 0.06535933333333332
                },
                {
                    "name": "B5",
                    "midi": 83,
                    "time": 220.88186699999997,
                    "velocity": 0.8503937007874016,
                    "duration": 0.06535933333333332
                },
                {
                    "name": "D6",
                    "midi": 86,
                    "time": 220.97990599999997,
                    "velocity": 0.8503937007874016,
                    "duration": 0.06535933333333332
                },
                {
                    "name": "G6",
                    "midi": 91,
                    "time": 221.07794499999997,
                    "velocity": 0.8503937007874016,
                    "duration": 0.06535933333333332
                },
                {
                    "name": "C4",
                    "midi": 60,
                    "time": 221.17598399999997,
                    "velocity": 0.8503937007874016,
                    "duration": 0.06535933333333332
                },
                {
                    "name": "C4",
                    "midi": 60,
                    "time": 221.27402299999997,
                    "velocity": 0.8503937007874016,
                    "duration": 0.06535933333333332
                },
                {
                    "name": "D4",
                    "midi": 62,
                    "time": 221.37206199999997,
                    "velocity": 0.8503937007874016,
                    "duration": 0.06535933333333332
                },
                {
                    "name": "E4",
                    "midi": 64,
                    "time": 221.47010099999997,
                    "velocity": 0.8503937007874016,
                    "duration": 0.06535933333333332
                },
                {
                    "name": "F4",
                    "midi": 65,
                    "time": 221.56813999999997,
                    "velocity": 0.8503937007874016,
                    "duration": 0.06535933333333332
                },
                {
                    "name": "G4",
                    "midi": 67,
                    "time": 221.66617899999997,
                    "velocity": 0.8503937007874016,
                    "duration": 0.06535933333333332
                },
                {
                    "name": "A4",
                    "midi": 69,
                    "time": 221.76421799999997,
                    "velocity": 0.8503937007874016,
                    "duration": 0.06535933333333332
                },
                {
                    "name": "B4",
                    "midi": 71,
                    "time": 221.86225699999997,
                    "velocity": 0.8503937007874016,
                    "duration": 0.06535933333333332
                },
                {
                    "name": "C5",
                    "midi": 72,
                    "time": 221.96029599999997,
                    "velocity": 0.8503937007874016,
                    "duration": 0.06535933333333332
                },
                {
                    "name": "C5",
                    "midi": 72,
                    "time": 222.05833499999997,
                    "velocity": 0.8503937007874016,
                    "duration": 0.06535933333333332
                },
                {
                    "name": "D5",
                    "midi": 74,
                    "time": 222.15637399999997,
                    "velocity": 0.8503937007874016,
                    "duration": 0.06535933333333332
                },
                {
                    "name": "E5",
                    "midi": 76,
                    "time": 222.25441299999997,
                    "velocity": 0.8503937007874016,
                    "duration": 0.06535933333333332
                },
                {
                    "name": "F5",
                    "midi": 77,
                    "time": 222.35245199999997,
                    "velocity": 0.8503937007874016,
                    "duration": 0.06535933333333332
                },
                {
                    "name": "G5",
                    "midi": 79,
                    "time": 222.45049099999997,
                    "velocity": 0.8503937007874016,
                    "duration": 0.06535933333333332
                },
                {
                    "name": "A5",
                    "midi": 81,
                    "time": 222.54852999999997,
                    "velocity": 0.8503937007874016,
                    "duration": 0.06535933333333332
                },
                {
                    "name": "B5",
                    "midi": 83,
                    "time": 222.64656899999997,
                    "velocity": 0.8503937007874016,
                    "duration": 0.06535933333333332
                },
                {
                    "name": "C5",
                    "midi": 72,
                    "time": 222.74460799999997,
                    "velocity": 0.8503937007874016,
                    "duration": 0.06535933333333332
                },
                {
                    "name": "C6",
                    "midi": 84,
                    "time": 222.74460799999997,
                    "velocity": 0.8503937007874016,
                    "duration": 0.06535933333333332
                },
                {
                    "name": "C5",
                    "midi": 72,
                    "time": 222.84264699999997,
                    "velocity": 0.8503937007874016,
                    "duration": 0.06535933333333332
                },
                {
                    "name": "C6",
                    "midi": 84,
                    "time": 222.84264699999997,
                    "velocity": 0.8503937007874016,
                    "duration": 0.06535933333333332
                },
                {
                    "name": "D5",
                    "midi": 74,
                    "time": 222.94068599999997,
                    "velocity": 0.8503937007874016,
                    "duration": 0.06535933333333332
                },
                {
                    "name": "D6",
                    "midi": 86,
                    "time": 222.94068599999997,
                    "velocity": 0.8503937007874016,
                    "duration": 0.06535933333333332
                },
                {
                    "name": "E5",
                    "midi": 76,
                    "time": 223.03872499999997,
                    "velocity": 0.8503937007874016,
                    "duration": 0.06535933333333332
                },
                {
                    "name": "E6",
                    "midi": 88,
                    "time": 223.03872499999997,
                    "velocity": 0.8503937007874016,
                    "duration": 0.06535933333333332
                },
                {
                    "name": "F5",
                    "midi": 77,
                    "time": 223.13676399999997,
                    "velocity": 0.8503937007874016,
                    "duration": 0.06535933333333332
                },
                {
                    "name": "F6",
                    "midi": 89,
                    "time": 223.13676399999997,
                    "velocity": 0.8503937007874016,
                    "duration": 0.06535933333333332
                },
                {
                    "name": "G5",
                    "midi": 79,
                    "time": 223.23480299999997,
                    "velocity": 0.8503937007874016,
                    "duration": 0.06535933333333332
                },
                {
                    "name": "G6",
                    "midi": 91,
                    "time": 223.23480299999997,
                    "velocity": 0.8503937007874016,
                    "duration": 0.06535933333333332
                },
                {
                    "name": "A5",
                    "midi": 81,
                    "time": 223.33284199999997,
                    "velocity": 0.8503937007874016,
                    "duration": 0.06535933333333332
                },
                {
                    "name": "A6",
                    "midi": 93,
                    "time": 223.33284199999997,
                    "velocity": 0.8503937007874016,
                    "duration": 0.06535933333333332
                },
                {
                    "name": "B5",
                    "midi": 83,
                    "time": 223.43088099999997,
                    "velocity": 0.8503937007874016,
                    "duration": 0.06535933333333332
                },
                {
                    "name": "B6",
                    "midi": 95,
                    "time": 223.43088099999997,
                    "velocity": 0.8503937007874016,
                    "duration": 0.06535933333333332
                },
                {
                    "name": "C6",
                    "midi": 84,
                    "time": 223.52891999999997,
                    "velocity": 0.8503937007874016,
                    "duration": 0.06535933333333332
                },
                {
                    "name": "C7",
                    "midi": 96,
                    "time": 223.52891999999997,
                    "velocity": 0.8503937007874016,
                    "duration": 0.06535933333333332
                },
                {
                    "name": "C6",
                    "midi": 84,
                    "time": 223.62695899999997,
                    "velocity": 0.8503937007874016,
                    "duration": 0.06535933333333332
                },
                {
                    "name": "C7",
                    "midi": 96,
                    "time": 223.62695899999997,
                    "velocity": 0.8503937007874016,
                    "duration": 0.06535933333333332
                },
                {
                    "name": "B5",
                    "midi": 83,
                    "time": 223.72499799999997,
                    "velocity": 0.8503937007874016,
                    "duration": 0.06535933333333332
                },
                {
                    "name": "B6",
                    "midi": 95,
                    "time": 223.72499799999997,
                    "velocity": 0.8503937007874016,
                    "duration": 0.06535933333333332
                },
                {
                    "name": "A5",
                    "midi": 81,
                    "time": 223.82303699999997,
                    "velocity": 0.8503937007874016,
                    "duration": 0.06535933333333332
                },
                {
                    "name": "A6",
                    "midi": 93,
                    "time": 223.82303699999997,
                    "velocity": 0.8503937007874016,
                    "duration": 0.06535933333333332
                },
                {
                    "name": "G5",
                    "midi": 79,
                    "time": 223.92107599999997,
                    "velocity": 0.8503937007874016,
                    "duration": 0.06535933333333332
                },
                {
                    "name": "G6",
                    "midi": 91,
                    "time": 223.92107599999997,
                    "velocity": 0.8503937007874016,
                    "duration": 0.06535933333333332
                },
                {
                    "name": "F5",
                    "midi": 77,
                    "time": 224.01911499999997,
                    "velocity": 0.8503937007874016,
                    "duration": 0.06535933333333332
                },
                {
                    "name": "F6",
                    "midi": 89,
                    "time": 224.01911499999997,
                    "velocity": 0.8503937007874016,
                    "duration": 0.06535933333333332
                },
                {
                    "name": "E5",
                    "midi": 76,
                    "time": 224.11715399999997,
                    "velocity": 0.8503937007874016,
                    "duration": 0.06535933333333332
                },
                {
                    "name": "E6",
                    "midi": 88,
                    "time": 224.11715399999997,
                    "velocity": 0.8503937007874016,
                    "duration": 0.06535933333333332
                },
                {
                    "name": "D5",
                    "midi": 74,
                    "time": 224.21519299999997,
                    "velocity": 0.8503937007874016,
                    "duration": 0.06535933333333332
                },
                {
                    "name": "D6",
                    "midi": 86,
                    "time": 224.21519299999997,
                    "velocity": 0.8503937007874016,
                    "duration": 0.06535933333333332
                },
                {
                    "name": "C5",
                    "midi": 72,
                    "time": 224.31323199999997,
                    "velocity": 0.8503937007874016,
                    "duration": 0.06535933333333332
                },
                {
                    "name": "C6",
                    "midi": 84,
                    "time": 224.31323199999997,
                    "velocity": 0.8503937007874016,
                    "duration": 0.06535933333333332
                },
                {
                    "name": "C5",
                    "midi": 72,
                    "time": 224.41127099999997,
                    "velocity": 0.8503937007874016,
                    "duration": 0.06535933333333332
                },
                {
                    "name": "C6",
                    "midi": 84,
                    "time": 224.41127099999997,
                    "velocity": 0.8503937007874016,
                    "duration": 0.06535933333333332
                },
                {
                    "name": "B4",
                    "midi": 71,
                    "time": 224.50930999999997,
                    "velocity": 0.8503937007874016,
                    "duration": 0.06535933333333332
                },
                {
                    "name": "B5",
                    "midi": 83,
                    "time": 224.50930999999997,
                    "velocity": 0.8503937007874016,
                    "duration": 0.06535933333333332
                },
                {
                    "name": "A4",
                    "midi": 69,
                    "time": 224.60734899999997,
                    "velocity": 0.8503937007874016,
                    "duration": 0.06535933333333332
                },
                {
                    "name": "A5",
                    "midi": 81,
                    "time": 224.60734899999997,
                    "velocity": 0.8503937007874016,
                    "duration": 0.06535933333333332
                },
                {
                    "name": "G4",
                    "midi": 67,
                    "time": 224.70538799999997,
                    "velocity": 0.8503937007874016,
                    "duration": 0.06535933333333332
                },
                {
                    "name": "G5",
                    "midi": 79,
                    "time": 224.70538799999997,
                    "velocity": 0.8503937007874016,
                    "duration": 0.06535933333333332
                },
                {
                    "name": "F4",
                    "midi": 65,
                    "time": 224.80342699999997,
                    "velocity": 0.8503937007874016,
                    "duration": 0.06535933333333332
                },
                {
                    "name": "F5",
                    "midi": 77,
                    "time": 224.80342699999997,
                    "velocity": 0.8503937007874016,
                    "duration": 0.06535933333333332
                },
                {
                    "name": "E4",
                    "midi": 64,
                    "time": 224.90146599999997,
                    "velocity": 0.8503937007874016,
                    "duration": 0.06535933333333332
                },
                {
                    "name": "E5",
                    "midi": 76,
                    "time": 224.90146599999997,
                    "velocity": 0.8503937007874016,
                    "duration": 0.06535933333333332
                },
                {
                    "name": "D4",
                    "midi": 62,
                    "time": 224.99950499999997,
                    "velocity": 0.8503937007874016,
                    "duration": 0.06535933333333332
                },
                {
                    "name": "D5",
                    "midi": 74,
                    "time": 224.99950499999997,
                    "velocity": 0.8503937007874016,
                    "duration": 0.06535933333333332
                },
                {
                    "name": "C4",
                    "midi": 60,
                    "time": 225.09754399999997,
                    "velocity": 0.8503937007874016,
                    "duration": 0.06535933333333332
                },
                {
                    "name": "C5",
                    "midi": 72,
                    "time": 225.09754399999997,
                    "velocity": 0.8503937007874016,
                    "duration": 0.06535933333333332
                },
                {
                    "name": "C4",
                    "midi": 60,
                    "time": 225.19558299999997,
                    "velocity": 0.8503937007874016,
                    "duration": 0.06535933333333332
                },
                {
                    "name": "C5",
                    "midi": 72,
                    "time": 225.19558299999997,
                    "velocity": 0.8503937007874016,
                    "duration": 0.06535933333333332
                },
                {
                    "name": "B3",
                    "midi": 59,
                    "time": 225.29362199999997,
                    "velocity": 0.8503937007874016,
                    "duration": 0.06535933333333332
                },
                {
                    "name": "B4",
                    "midi": 71,
                    "time": 225.29362199999997,
                    "velocity": 0.8503937007874016,
                    "duration": 0.06535933333333332
                },
                {
                    "name": "A3",
                    "midi": 57,
                    "time": 225.39166099999997,
                    "velocity": 0.8503937007874016,
                    "duration": 0.06535933333333332
                },
                {
                    "name": "A4",
                    "midi": 69,
                    "time": 225.39166099999997,
                    "velocity": 0.8503937007874016,
                    "duration": 0.06535933333333332
                },
                {
                    "name": "G3",
                    "midi": 55,
                    "time": 225.48969999999997,
                    "velocity": 0.8503937007874016,
                    "duration": 0.06535933333333332
                },
                {
                    "name": "G4",
                    "midi": 67,
                    "time": 225.48969999999997,
                    "velocity": 0.8503937007874016,
                    "duration": 0.06535933333333332
                },
                {
                    "name": "F3",
                    "midi": 53,
                    "time": 225.58773899999997,
                    "velocity": 0.8503937007874016,
                    "duration": 0.06535933333333332
                },
                {
                    "name": "F4",
                    "midi": 65,
                    "time": 225.58773899999997,
                    "velocity": 0.8503937007874016,
                    "duration": 0.06535933333333332
                },
                {
                    "name": "E3",
                    "midi": 52,
                    "time": 225.68577799999997,
                    "velocity": 0.8503937007874016,
                    "duration": 0.06535933333333332
                },
                {
                    "name": "E4",
                    "midi": 64,
                    "time": 225.68577799999997,
                    "velocity": 0.8503937007874016,
                    "duration": 0.06535933333333332
                },
                {
                    "name": "D3",
                    "midi": 50,
                    "time": 225.78381699999997,
                    "velocity": 0.8503937007874016,
                    "duration": 0.06535933333333332
                },
                {
                    "name": "D4",
                    "midi": 62,
                    "time": 225.78381699999997,
                    "velocity": 0.8503937007874016,
                    "duration": 0.06535933333333332
                },
                {
                    "name": "C3",
                    "midi": 48,
                    "time": 225.88185599999997,
                    "velocity": 0.8503937007874016,
                    "duration": 0.09803899999999999
                },
                {
                    "name": "C4",
                    "midi": 60,
                    "time": 225.88185599999997,
                    "velocity": 0.8503937007874016,
                    "duration": 0.09803899999999999
                },
                {
                    "name": "C5",
                    "midi": 72,
                    "time": 226.56812899999997,
                    "velocity": 0.8503937007874016,
                    "duration": 0.03267966666666666
                },
                {
                    "name": "G5",
                    "midi": 79,
                    "time": 226.61714849999998,
                    "velocity": 0.8503937007874016,
                    "duration": 0.03267966666666666
                },
                {
                    "name": "E6",
                    "midi": 88,
                    "time": 226.66616799999997,
                    "velocity": 0.8503937007874016,
                    "duration": 0.3267966666666666
                },
                {
                    "name": "C4",
                    "midi": 60,
                    "time": 227.45047999999997,
                    "velocity": 0.8503937007874016,
                    "duration": 0.1919930416666773
                }
            ],
            "controlChanges": {
                "7": [
                    {
                        "number": 7,
                        "time": 0,
                        "value": 1
                    }
                ],
                "10": [
                    {
                        "number": 10,
                        "time": 0,
                        "value": 1
                    }
                ],
                "91": [
                    {
                        "number": 91,
                        "time": 0,
                        "value": 0.5354330708661418
                    }
                ]
            },
            "id": 5,
            "instrumentNumber": 50,
            "instrument": "synthstrings 1",
            "instrumentFamily": "ensemble",
            "channelNumber": 6,
            "isPercussion": false
        },
        {
            "startTime": 0,
            "duration": 227.64247304166668,
            "length": 1412,
            "notes": [
                {
                    "name": "C4",
                    "midi": 60,
                    "time": 0,
                    "velocity": 0.47244094488188976,
                    "duration": 0.3267966666666667
                },
                {
                    "name": "D4",
                    "midi": 62,
                    "time": 0.392156,
                    "velocity": 0.47244094488188976,
                    "duration": 0.3267966666666667
                },
                {
                    "name": "E4",
                    "midi": 64,
                    "time": 0.784312,
                    "velocity": 0.47244094488188976,
                    "duration": 0.32679666666666674
                },
                {
                    "name": "F4",
                    "midi": 65,
                    "time": 1.176468,
                    "velocity": 0.47244094488188976,
                    "duration": 0.3267966666666666
                },
                {
                    "name": "G4",
                    "midi": 67,
                    "time": 1.568624,
                    "velocity": 0.47244094488188976,
                    "duration": 0.3267966666666666
                },
                {
                    "name": "A4",
                    "midi": 69,
                    "time": 1.96078,
                    "velocity": 0.47244094488188976,
                    "duration": 0.32679666666666685
                },
                {
                    "name": "B4",
                    "midi": 71,
                    "time": 2.352936,
                    "velocity": 0.47244094488188976,
                    "duration": 0.3267966666666666
                },
                {
                    "name": "C5",
                    "midi": 72,
                    "time": 2.745092,
                    "velocity": 0.47244094488188976,
                    "duration": 0.3267966666666666
                },
                {
                    "name": "D5",
                    "midi": 74,
                    "time": 3.137248,
                    "velocity": 0.47244094488188976,
                    "duration": 0.3267966666666666
                },
                {
                    "name": "E5",
                    "midi": 76,
                    "time": 3.529404,
                    "velocity": 0.47244094488188976,
                    "duration": 0.3267966666666666
                },
                {
                    "name": "F5",
                    "midi": 77,
                    "time": 3.92156,
                    "velocity": 0.47244094488188976,
                    "duration": 0.32679666666666707
                },
                {
                    "name": "G5",
                    "midi": 79,
                    "time": 4.313716,
                    "velocity": 0.47244094488188976,
                    "duration": 0.3267966666666666
                },
                {
                    "name": "A5",
                    "midi": 81,
                    "time": 4.705872,
                    "velocity": 0.47244094488188976,
                    "duration": 0.3267966666666666
                },
                {
                    "name": "B5",
                    "midi": 83,
                    "time": 5.098028,
                    "velocity": 0.47244094488188976,
                    "duration": 0.3267966666666666
                },
                {
                    "name": "C6",
                    "midi": 84,
                    "time": 5.490184,
                    "velocity": 0.47244094488188976,
                    "duration": 0.19199304166666664
                },
                {
                    "name": "G3",
                    "midi": 55,
                    "time": 5.686262,
                    "velocity": 0.47244094488188976,
                    "duration": 0.06535933333333332
                },
                {
                    "name": "C4",
                    "midi": 60,
                    "time": 5.686262,
                    "velocity": 0.47244094488188976,
                    "duration": 0.06535933333333332
                },
                {
                    "name": "E4",
                    "midi": 64,
                    "time": 5.686262,
                    "velocity": 0.47244094488188976,
                    "duration": 0.06535933333333332
                },
                {
                    "name": "G3",
                    "midi": 55,
                    "time": 6.078418,
                    "velocity": 0.47244094488188976,
                    "duration": 0.06535933333333332
                },
                {
                    "name": "C4",
                    "midi": 60,
                    "time": 6.078418,
                    "velocity": 0.47244094488188976,
                    "duration": 0.06535933333333332
                },
                {
                    "name": "E4",
                    "midi": 64,
                    "time": 6.078418,
                    "velocity": 0.47244094488188976,
                    "duration": 0.06535933333333332
                },
                {
                    "name": "G3",
                    "midi": 55,
                    "time": 6.470574,
                    "velocity": 0.47244094488188976,
                    "duration": 0.06535933333333332
                },
                {
                    "name": "B3",
                    "midi": 59,
                    "time": 6.470574,
                    "velocity": 0.47244094488188976,
                    "duration": 0.06535933333333332
                },
                {
                    "name": "D4",
                    "midi": 62,
                    "time": 6.470574,
                    "velocity": 0.47244094488188976,
                    "duration": 0.06535933333333332
                },
                {
                    "name": "F4",
                    "midi": 65,
                    "time": 6.470574,
                    "velocity": 0.47244094488188976,
                    "duration": 0.06535933333333332
                },
                {
                    "name": "G3",
                    "midi": 55,
                    "time": 6.86273,
                    "velocity": 0.47244094488188976,
                    "duration": 0.06535933333333332
                },
                {
                    "name": "B3",
                    "midi": 59,
                    "time": 6.86273,
                    "velocity": 0.47244094488188976,
                    "duration": 0.06535933333333332
                },
                {
                    "name": "D4",
                    "midi": 62,
                    "time": 6.86273,
                    "velocity": 0.47244094488188976,
                    "duration": 0.06535933333333332
                },
                {
                    "name": "F4",
                    "midi": 65,
                    "time": 6.86273,
                    "velocity": 0.47244094488188976,
                    "duration": 0.06535933333333332
                },
                {
                    "name": "G3",
                    "midi": 55,
                    "time": 7.254886,
                    "velocity": 0.47244094488188976,
                    "duration": 0.06535933333333332
                },
                {
                    "name": "B3",
                    "midi": 59,
                    "time": 7.254886,
                    "velocity": 0.47244094488188976,
                    "duration": 0.06535933333333332
                },
                {
                    "name": "D4",
                    "midi": 62,
                    "time": 7.254886,
                    "velocity": 0.47244094488188976,
                    "duration": 0.06535933333333332
                },
                {
                    "name": "F4",
                    "midi": 65,
                    "time": 7.254886,
                    "velocity": 0.47244094488188976,
                    "duration": 0.06535933333333332
                },
                {
                    "name": "G3",
                    "midi": 55,
                    "time": 7.647042,
                    "velocity": 0.47244094488188976,
                    "duration": 0.06535933333333332
                },
                {
                    "name": "B3",
                    "midi": 59,
                    "time": 7.647042,
                    "velocity": 0.47244094488188976,
                    "duration": 0.06535933333333332
                },
                {
                    "name": "D4",
                    "midi": 62,
                    "time": 7.647042,
                    "velocity": 0.47244094488188976,
                    "duration": 0.06535933333333332
                },
                {
                    "name": "F4",
                    "midi": 65,
                    "time": 7.647042,
                    "velocity": 0.47244094488188976,
                    "duration": 0.06535933333333332
                },
                {
                    "name": "G3",
                    "midi": 55,
                    "time": 8.039198,
                    "velocity": 0.47244094488188976,
                    "duration": 0.06535933333333332
                },
                {
                    "name": "C4",
                    "midi": 60,
                    "time": 8.039198,
                    "velocity": 0.47244094488188976,
                    "duration": 0.06535933333333332
                },
                {
                    "name": "E4",
                    "midi": 64,
                    "time": 8.039198,
                    "velocity": 0.47244094488188976,
                    "duration": 0.06535933333333332
                },
                {
                    "name": "G3",
                    "midi": 55,
                    "time": 8.431354,
                    "velocity": 0.47244094488188976,
                    "duration": 0.06535933333333332
                },
                {
                    "name": "C4",
                    "midi": 60,
                    "time": 8.431354,
                    "velocity": 0.47244094488188976,
                    "duration": 0.06535933333333332
                },
                {
                    "name": "E4",
                    "midi": 64,
                    "time": 8.431354,
                    "velocity": 0.47244094488188976,
                    "duration": 0.06535933333333332
                },
                {
                    "name": "A3",
                    "midi": 57,
                    "time": 8.627432,
                    "velocity": 0.47244094488188976,
                    "duration": 0.7843119999999999
                },
                {
                    "name": "C#4",
                    "midi": 61,
                    "time": 8.627432,
                    "velocity": 0.47244094488188976,
                    "duration": 0.7843119999999999
                },
                {
                    "name": "E4",
                    "midi": 64,
                    "time": 8.627432,
                    "velocity": 0.47244094488188976,
                    "duration": 0.7843119999999999
                },
                {
                    "name": "G4",
                    "midi": 67,
                    "time": 8.627432,
                    "velocity": 0.47244094488188976,
                    "duration": 0.7843119999999999
                },
                {
                    "name": "A3",
                    "midi": 57,
                    "time": 9.411744,
                    "velocity": 0.47244094488188976,
                    "duration": 0.39215599999999995
                },
                {
                    "name": "D4",
                    "midi": 62,
                    "time": 9.411744,
                    "velocity": 0.47244094488188976,
                    "duration": 0.39215599999999995
                },
                {
                    "name": "F4",
                    "midi": 65,
                    "time": 9.411744,
                    "velocity": 0.47244094488188976,
                    "duration": 0.39215599999999995
                },
                {
                    "name": "B3",
                    "midi": 59,
                    "time": 9.8039,
                    "velocity": 0.47244094488188976,
                    "duration": 0.39215599999999995
                },
                {
                    "name": "D4",
                    "midi": 62,
                    "time": 9.8039,
                    "velocity": 0.47244094488188976,
                    "duration": 0.39215599999999995
                },
                {
                    "name": "F4",
                    "midi": 65,
                    "time": 9.8039,
                    "velocity": 0.47244094488188976,
                    "duration": 0.39215599999999995
                },
                {
                    "name": "C4",
                    "midi": 60,
                    "time": 10.196056,
                    "velocity": 0.47244094488188976,
                    "duration": 0.39215599999999995
                },
                {
                    "name": "E4",
                    "midi": 64,
                    "time": 10.196056,
                    "velocity": 0.47244094488188976,
                    "duration": 0.39215599999999995
                },
                {
                    "name": "G4",
                    "midi": 67,
                    "time": 10.196056,
                    "velocity": 0.47244094488188976,
                    "duration": 0.39215599999999995
                },
                {
                    "name": "C4",
                    "midi": 60,
                    "time": 10.588212,
                    "velocity": 0.47244094488188976,
                    "duration": 0.39215599999999995
                },
                {
                    "name": "D4",
                    "midi": 62,
                    "time": 10.588212,
                    "velocity": 0.47244094488188976,
                    "duration": 0.39215599999999995
                },
                {
                    "name": "F#4",
                    "midi": 66,
                    "time": 10.588212,
                    "velocity": 0.47244094488188976,
                    "duration": 0.39215599999999995
                },
                {
                    "name": "A4",
                    "midi": 69,
                    "time": 10.588212,
                    "velocity": 0.47244094488188976,
                    "duration": 0.39215599999999995
                },
                {
                    "name": "D4",
                    "midi": 62,
                    "time": 10.980368,
                    "velocity": 0.47244094488188976,
                    "duration": 0.19199304166666664
                },
                {
                    "name": "G4",
                    "midi": 67,
                    "time": 10.980368,
                    "velocity": 0.47244094488188976,
                    "duration": 0.19199304166666664
                },
                {
                    "name": "B4",
                    "midi": 71,
                    "time": 10.980368,
                    "velocity": 0.47244094488188976,
                    "duration": 0.19199304166666664
                },
                {
                    "name": "G3",
                    "midi": 55,
                    "time": 11.960758,
                    "velocity": 0.47244094488188976,
                    "duration": 0.06535933333333332
                },
                {
                    "name": "C4",
                    "midi": 60,
                    "time": 11.960758,
                    "velocity": 0.47244094488188976,
                    "duration": 0.06535933333333332
                },
                {
                    "name": "E4",
                    "midi": 64,
                    "time": 11.960758,
                    "velocity": 0.47244094488188976,
                    "duration": 0.06535933333333332
                },
                {
                    "name": "G3",
                    "midi": 55,
                    "time": 12.352914,
                    "velocity": 0.47244094488188976,
                    "duration": 0.06535933333333332
                },
                {
                    "name": "C4",
                    "midi": 60,
                    "time": 12.352914,
                    "velocity": 0.47244094488188976,
                    "duration": 0.06535933333333332
                },
                {
                    "name": "E4",
                    "midi": 64,
                    "time": 12.352914,
                    "velocity": 0.47244094488188976,
                    "duration": 0.06535933333333332
                },
                {
                    "name": "G3",
                    "midi": 55,
                    "time": 12.74507,
                    "velocity": 0.47244094488188976,
                    "duration": 0.06535933333333332
                },
                {
                    "name": "B3",
                    "midi": 59,
                    "time": 12.74507,
                    "velocity": 0.47244094488188976,
                    "duration": 0.06535933333333332
                },
                {
                    "name": "D4",
                    "midi": 62,
                    "time": 12.74507,
                    "velocity": 0.47244094488188976,
                    "duration": 0.06535933333333332
                },
                {
                    "name": "F4",
                    "midi": 65,
                    "time": 12.74507,
                    "velocity": 0.47244094488188976,
                    "duration": 0.06535933333333332
                },
                {
                    "name": "G3",
                    "midi": 55,
                    "time": 13.137226,
                    "velocity": 0.47244094488188976,
                    "duration": 0.06535933333333332
                },
                {
                    "name": "B3",
                    "midi": 59,
                    "time": 13.137226,
                    "velocity": 0.47244094488188976,
                    "duration": 0.06535933333333332
                },
                {
                    "name": "D4",
                    "midi": 62,
                    "time": 13.137226,
                    "velocity": 0.47244094488188976,
                    "duration": 0.06535933333333332
                },
                {
                    "name": "F4",
                    "midi": 65,
                    "time": 13.137226,
                    "velocity": 0.47244094488188976,
                    "duration": 0.06535933333333332
                },
                {
                    "name": "G3",
                    "midi": 55,
                    "time": 13.529382,
                    "velocity": 0.47244094488188976,
                    "duration": 0.06535933333333332
                },
                {
                    "name": "B3",
                    "midi": 59,
                    "time": 13.529382,
                    "velocity": 0.47244094488188976,
                    "duration": 0.06535933333333332
                },
                {
                    "name": "D4",
                    "midi": 62,
                    "time": 13.529382,
                    "velocity": 0.47244094488188976,
                    "duration": 0.06535933333333332
                },
                {
                    "name": "G3",
                    "midi": 55,
                    "time": 13.921538,
                    "velocity": 0.47244094488188976,
                    "duration": 0.06535933333333332
                },
                {
                    "name": "B3",
                    "midi": 59,
                    "time": 13.921538,
                    "velocity": 0.47244094488188976,
                    "duration": 0.06535933333333332
                },
                {
                    "name": "D4",
                    "midi": 62,
                    "time": 13.921538,
                    "velocity": 0.47244094488188976,
                    "duration": 0.06535933333333332
                },
                {
                    "name": "G3",
                    "midi": 55,
                    "time": 14.313694,
                    "velocity": 0.47244094488188976,
                    "duration": 0.06535933333333332
                },
                {
                    "name": "C4",
                    "midi": 60,
                    "time": 14.313694,
                    "velocity": 0.47244094488188976,
                    "duration": 0.06535933333333332
                },
                {
                    "name": "E4",
                    "midi": 64,
                    "time": 14.313694,
                    "velocity": 0.47244094488188976,
                    "duration": 0.06535933333333332
                },
                {
                    "name": "G3",
                    "midi": 55,
                    "time": 14.70585,
                    "velocity": 0.47244094488188976,
                    "duration": 0.06535933333333332
                },
                {
                    "name": "C4",
                    "midi": 60,
                    "time": 14.70585,
                    "velocity": 0.47244094488188976,
                    "duration": 0.06535933333333332
                },
                {
                    "name": "E4",
                    "midi": 64,
                    "time": 14.70585,
                    "velocity": 0.47244094488188976,
                    "duration": 0.06535933333333332
                },
                {
                    "name": "A3",
                    "midi": 57,
                    "time": 14.901928,
                    "velocity": 0.47244094488188976,
                    "duration": 0.7843119999999999
                },
                {
                    "name": "C#4",
                    "midi": 61,
                    "time": 14.901928,
                    "velocity": 0.47244094488188976,
                    "duration": 0.7843119999999999
                },
                {
                    "name": "E4",
                    "midi": 64,
                    "time": 14.901928,
                    "velocity": 0.47244094488188976,
                    "duration": 0.7843119999999999
                },
                {
                    "name": "G4",
                    "midi": 67,
                    "time": 14.901928,
                    "velocity": 0.47244094488188976,
                    "duration": 0.7843119999999999
                },
                {
                    "name": "A3",
                    "midi": 57,
                    "time": 15.68624,
                    "velocity": 0.47244094488188976,
                    "duration": 0.3921560000000017
                },
                {
                    "name": "D4",
                    "midi": 62,
                    "time": 15.68624,
                    "velocity": 0.47244094488188976,
                    "duration": 0.3921560000000017
                },
                {
                    "name": "F4",
                    "midi": 65,
                    "time": 15.68624,
                    "velocity": 0.47244094488188976,
                    "duration": 0.3921560000000017
                },
                {
                    "name": "B3",
                    "midi": 59,
                    "time": 16.078396,
                    "velocity": 0.47244094488188976,
                    "duration": 0.39215599999999995
                },
                {
                    "name": "D4",
                    "midi": 62,
                    "time": 16.078396,
                    "velocity": 0.47244094488188976,
                    "duration": 0.39215599999999995
                },
                {
                    "name": "F4",
                    "midi": 65,
                    "time": 16.078396,
                    "velocity": 0.47244094488188976,
                    "duration": 0.39215599999999995
                },
                {
                    "name": "C4",
                    "midi": 60,
                    "time": 16.470552,
                    "velocity": 0.47244094488188976,
                    "duration": 0.39215599999999995
                },
                {
                    "name": "E4",
                    "midi": 64,
                    "time": 16.470552,
                    "velocity": 0.47244094488188976,
                    "duration": 0.39215599999999995
                },
                {
                    "name": "G4",
                    "midi": 67,
                    "time": 16.470552,
                    "velocity": 0.47244094488188976,
                    "duration": 0.39215599999999995
                },
                {
                    "name": "C4",
                    "midi": 60,
                    "time": 16.862708,
                    "velocity": 0.47244094488188976,
                    "duration": 0.39215599999999995
                },
                {
                    "name": "E4",
                    "midi": 64,
                    "time": 16.862708,
                    "velocity": 0.47244094488188976,
                    "duration": 0.39215599999999995
                },
                {
                    "name": "A4",
                    "midi": 69,
                    "time": 16.862708,
                    "velocity": 0.47244094488188976,
                    "duration": 0.39215599999999995
                },
                {
                    "name": "B3",
                    "midi": 59,
                    "time": 17.254864,
                    "velocity": 0.47244094488188976,
                    "duration": 0.39215599999999995
                },
                {
                    "name": "D4",
                    "midi": 62,
                    "time": 17.254864,
                    "velocity": 0.47244094488188976,
                    "duration": 0.39215599999999995
                },
                {
                    "name": "G4",
                    "midi": 67,
                    "time": 17.254864,
                    "velocity": 0.47244094488188976,
                    "duration": 0.39215599999999995
                },
                {
                    "name": "B3",
                    "midi": 59,
                    "time": 17.64702,
                    "velocity": 0.47244094488188976,
                    "duration": 0.39215599999999995
                },
                {
                    "name": "D4",
                    "midi": 62,
                    "time": 17.64702,
                    "velocity": 0.47244094488188976,
                    "duration": 0.39215599999999995
                },
                {
                    "name": "G#4",
                    "midi": 68,
                    "time": 17.64702,
                    "velocity": 0.47244094488188976,
                    "duration": 0.39215599999999995
                },
                {
                    "name": "C4",
                    "midi": 60,
                    "time": 18.039176,
                    "velocity": 0.47244094488188976,
                    "duration": 0.39215599999999995
                },
                {
                    "name": "F#4",
                    "midi": 66,
                    "time": 18.039176,
                    "velocity": 0.47244094488188976,
                    "duration": 0.39215599999999995
                },
                {
                    "name": "A4",
                    "midi": 69,
                    "time": 18.039176,
                    "velocity": 0.47244094488188976,
                    "duration": 0.39215599999999995
                },
                {
                    "name": "C4",
                    "midi": 60,
                    "time": 18.431332,
                    "velocity": 0.47244094488188976,
                    "duration": 0.39215599999999995
                },
                {
                    "name": "F#4",
                    "midi": 66,
                    "time": 18.431332,
                    "velocity": 0.47244094488188976,
                    "duration": 0.39215599999999995
                },
                {
                    "name": "A4",
                    "midi": 69,
                    "time": 18.431332,
                    "velocity": 0.47244094488188976,
                    "duration": 0.39215599999999995
                },
                {
                    "name": "B3",
                    "midi": 59,
                    "time": 18.823488,
                    "velocity": 0.47244094488188976,
                    "duration": 0.19199304166666664
                },
                {
                    "name": "D4",
                    "midi": 62,
                    "time": 18.823488,
                    "velocity": 0.47244094488188976,
                    "duration": 0.19199304166666664
                },
                {
                    "name": "G4",
                    "midi": 67,
                    "time": 18.823488,
                    "velocity": 0.47244094488188976,
                    "duration": 0.19199304166666664
                },
                {
                    "name": "G3",
                    "midi": 55,
                    "time": 19.803878,
                    "velocity": 0.47244094488188976,
                    "duration": 0.06535933333333332
                },
                {
                    "name": "B3",
                    "midi": 59,
                    "time": 19.803878,
                    "velocity": 0.47244094488188976,
                    "duration": 0.06535933333333332
                },
                {
                    "name": "D4",
                    "midi": 62,
                    "time": 19.803878,
                    "velocity": 0.47244094488188976,
                    "duration": 0.06535933333333332
                },
                {
                    "name": "G3",
                    "midi": 55,
                    "time": 20.196034,
                    "velocity": 0.47244094488188976,
                    "duration": 0.06535933333333332
                },
                {
                    "name": "B3",
                    "midi": 59,
                    "time": 20.196034,
                    "velocity": 0.47244094488188976,
                    "duration": 0.06535933333333332
                },
                {
                    "name": "D4",
                    "midi": 62,
                    "time": 20.196034,
                    "velocity": 0.47244094488188976,
                    "duration": 0.06535933333333332
                },
                {
                    "name": "G3",
                    "midi": 55,
                    "time": 20.58819,
                    "velocity": 0.47244094488188976,
                    "duration": 0.06535933333333332
                },
                {
                    "name": "C4",
                    "midi": 60,
                    "time": 20.58819,
                    "velocity": 0.47244094488188976,
                    "duration": 0.06535933333333332
                },
                {
                    "name": "E4",
                    "midi": 64,
                    "time": 20.58819,
                    "velocity": 0.47244094488188976,
                    "duration": 0.06535933333333332
                },
                {
                    "name": "G3",
                    "midi": 55,
                    "time": 20.980346,
                    "velocity": 0.47244094488188976,
                    "duration": 0.06535933333333332
                },
                {
                    "name": "C4",
                    "midi": 60,
                    "time": 20.980346,
                    "velocity": 0.47244094488188976,
                    "duration": 0.06535933333333332
                },
                {
                    "name": "E4",
                    "midi": 64,
                    "time": 20.980346,
                    "velocity": 0.47244094488188976,
                    "duration": 0.06535933333333332
                },
                {
                    "name": "A3",
                    "midi": 57,
                    "time": 21.372502,
                    "velocity": 0.47244094488188976,
                    "duration": 0.06535933333333332
                },
                {
                    "name": "D4",
                    "midi": 62,
                    "time": 21.372502,
                    "velocity": 0.47244094488188976,
                    "duration": 0.06535933333333332
                },
                {
                    "name": "F4",
                    "midi": 65,
                    "time": 21.372502,
                    "velocity": 0.47244094488188976,
                    "duration": 0.06535933333333332
                },
                {
                    "name": "A3",
                    "midi": 57,
                    "time": 21.764658,
                    "velocity": 0.47244094488188976,
                    "duration": 0.06535933333333332
                },
                {
                    "name": "D4",
                    "midi": 62,
                    "time": 21.764658,
                    "velocity": 0.47244094488188976,
                    "duration": 0.06535933333333332
                },
                {
                    "name": "F4",
                    "midi": 65,
                    "time": 21.764658,
                    "velocity": 0.47244094488188976,
                    "duration": 0.06535933333333332
                },
                {
                    "name": "G3",
                    "midi": 55,
                    "time": 22.156814,
                    "velocity": 0.47244094488188976,
                    "duration": 0.06535933333333332
                },
                {
                    "name": "C4",
                    "midi": 60,
                    "time": 22.156814,
                    "velocity": 0.47244094488188976,
                    "duration": 0.06535933333333332
                },
                {
                    "name": "E4",
                    "midi": 64,
                    "time": 22.156814,
                    "velocity": 0.47244094488188976,
                    "duration": 0.06535933333333332
                },
                {
                    "name": "G3",
                    "midi": 55,
                    "time": 22.54897,
                    "velocity": 0.47244094488188976,
                    "duration": 0.06535933333333332
                },
                {
                    "name": "C4",
                    "midi": 60,
                    "time": 22.54897,
                    "velocity": 0.47244094488188976,
                    "duration": 0.06535933333333332
                },
                {
                    "name": "E4",
                    "midi": 64,
                    "time": 22.54897,
                    "velocity": 0.47244094488188976,
                    "duration": 0.06535933333333332
                },
                {
                    "name": "B3",
                    "midi": 59,
                    "time": 22.941126,
                    "velocity": 0.47244094488188976,
                    "duration": 0.06535933333333332
                },
                {
                    "name": "D4",
                    "midi": 62,
                    "time": 22.941126,
                    "velocity": 0.47244094488188976,
                    "duration": 0.06535933333333332
                },
                {
                    "name": "F4",
                    "midi": 65,
                    "time": 22.941126,
                    "velocity": 0.47244094488188976,
                    "duration": 0.06535933333333332
                },
                {
                    "name": "B3",
                    "midi": 59,
                    "time": 23.333282,
                    "velocity": 0.47244094488188976,
                    "duration": 0.06535933333333332
                },
                {
                    "name": "D4",
                    "midi": 62,
                    "time": 23.333282,
                    "velocity": 0.47244094488188976,
                    "duration": 0.06535933333333332
                },
                {
                    "name": "F4",
                    "midi": 65,
                    "time": 23.333282,
                    "velocity": 0.47244094488188976,
                    "duration": 0.06535933333333332
                },
                {
                    "name": "G3",
                    "midi": 55,
                    "time": 23.725438,
                    "velocity": 0.47244094488188976,
                    "duration": 0.06535933333333332
                },
                {
                    "name": "C4",
                    "midi": 60,
                    "time": 23.725438,
                    "velocity": 0.47244094488188976,
                    "duration": 0.06535933333333332
                },
                {
                    "name": "E4",
                    "midi": 64,
                    "time": 23.725438,
                    "velocity": 0.47244094488188976,
                    "duration": 0.06535933333333332
                },
                {
                    "name": "G3",
                    "midi": 55,
                    "time": 24.117594,
                    "velocity": 0.47244094488188976,
                    "duration": 0.06535933333333332
                },
                {
                    "name": "C4",
                    "midi": 60,
                    "time": 24.117594,
                    "velocity": 0.47244094488188976,
                    "duration": 0.06535933333333332
                },
                {
                    "name": "E4",
                    "midi": 64,
                    "time": 24.117594,
                    "velocity": 0.47244094488188976,
                    "duration": 0.06535933333333332
                },
                {
                    "name": "G3",
                    "midi": 55,
                    "time": 24.50975,
                    "velocity": 0.47244094488188976,
                    "duration": 0.06535933333333332
                },
                {
                    "name": "C4",
                    "midi": 60,
                    "time": 24.50975,
                    "velocity": 0.47244094488188976,
                    "duration": 0.06535933333333332
                },
                {
                    "name": "E4",
                    "midi": 64,
                    "time": 24.50975,
                    "velocity": 0.47244094488188976,
                    "duration": 0.06535933333333332
                },
                {
                    "name": "G3",
                    "midi": 55,
                    "time": 24.901906,
                    "velocity": 0.47244094488188976,
                    "duration": 0.06535933333333332
                },
                {
                    "name": "C4",
                    "midi": 60,
                    "time": 24.901906,
                    "velocity": 0.47244094488188976,
                    "duration": 0.06535933333333332
                },
                {
                    "name": "E4",
                    "midi": 64,
                    "time": 24.901906,
                    "velocity": 0.47244094488188976,
                    "duration": 0.06535933333333332
                },
                {
                    "name": "A3",
                    "midi": 57,
                    "time": 25.294062,
                    "velocity": 0.47244094488188976,
                    "duration": 0.06535933333333332
                },
                {
                    "name": "C4",
                    "midi": 60,
                    "time": 25.294062,
                    "velocity": 0.47244094488188976,
                    "duration": 0.06535933333333332
                },
                {
                    "name": "F4",
                    "midi": 65,
                    "time": 25.294062,
                    "velocity": 0.47244094488188976,
                    "duration": 0.06535933333333332
                },
                {
                    "name": "A3",
                    "midi": 57,
                    "time": 25.686218,
                    "velocity": 0.47244094488188976,
                    "duration": 0.06535933333333332
                },
                {
                    "name": "C4",
                    "midi": 60,
                    "time": 25.686218,
                    "velocity": 0.47244094488188976,
                    "duration": 0.06535933333333332
                },
                {
                    "name": "F4",
                    "midi": 65,
                    "time": 25.686218,
                    "velocity": 0.47244094488188976,
                    "duration": 0.06535933333333332
                },
                {
                    "name": "G3",
                    "midi": 55,
                    "time": 26.078374,
                    "velocity": 0.47244094488188976,
                    "duration": 0.06535933333333332
                },
                {
                    "name": "B3",
                    "midi": 59,
                    "time": 26.078374,
                    "velocity": 0.47244094488188976,
                    "duration": 0.06535933333333332
                },
                {
                    "name": "D4",
                    "midi": 62,
                    "time": 26.078374,
                    "velocity": 0.47244094488188976,
                    "duration": 0.06535933333333332
                },
                {
                    "name": "G3",
                    "midi": 55,
                    "time": 26.47053,
                    "velocity": 0.47244094488188976,
                    "duration": 0.06535933333333332
                },
                {
                    "name": "B3",
                    "midi": 59,
                    "time": 26.47053,
                    "velocity": 0.47244094488188976,
                    "duration": 0.06535933333333332
                },
                {
                    "name": "D4",
                    "midi": 62,
                    "time": 26.47053,
                    "velocity": 0.47244094488188976,
                    "duration": 0.06535933333333332
                },
                {
                    "name": "G3",
                    "midi": 55,
                    "time": 26.862686,
                    "velocity": 0.47244094488188976,
                    "duration": 0.06535933333333332
                },
                {
                    "name": "C4",
                    "midi": 60,
                    "time": 26.862686,
                    "velocity": 0.47244094488188976,
                    "duration": 0.06535933333333332
                },
                {
                    "name": "E4",
                    "midi": 64,
                    "time": 26.862686,
                    "velocity": 0.47244094488188976,
                    "duration": 0.06535933333333332
                },
                {
                    "name": "G3",
                    "midi": 55,
                    "time": 27.254842,
                    "velocity": 0.47244094488188976,
                    "duration": 0.06535933333333332
                },
                {
                    "name": "C4",
                    "midi": 60,
                    "time": 27.254842,
                    "velocity": 0.47244094488188976,
                    "duration": 0.06535933333333332
                },
                {
                    "name": "E4",
                    "midi": 64,
                    "time": 27.254842,
                    "velocity": 0.47244094488188976,
                    "duration": 0.06535933333333332
                },
                {
                    "name": "G3",
                    "midi": 55,
                    "time": 27.646998,
                    "velocity": 0.47244094488188976,
                    "duration": 0.06535933333333332
                },
                {
                    "name": "C4",
                    "midi": 60,
                    "time": 27.646998,
                    "velocity": 0.47244094488188976,
                    "duration": 0.06535933333333332
                },
                {
                    "name": "E4",
                    "midi": 64,
                    "time": 27.646998,
                    "velocity": 0.47244094488188976,
                    "duration": 0.06535933333333332
                },
                {
                    "name": "G3",
                    "midi": 55,
                    "time": 28.039154,
                    "velocity": 0.47244094488188976,
                    "duration": 0.06535933333333332
                },
                {
                    "name": "C4",
                    "midi": 60,
                    "time": 28.039154,
                    "velocity": 0.47244094488188976,
                    "duration": 0.06535933333333332
                },
                {
                    "name": "E4",
                    "midi": 64,
                    "time": 28.039154,
                    "velocity": 0.47244094488188976,
                    "duration": 0.06535933333333332
                },
                {
                    "name": "A3",
                    "midi": 57,
                    "time": 28.43131,
                    "velocity": 0.47244094488188976,
                    "duration": 0.06535933333333332
                },
                {
                    "name": "C4",
                    "midi": 60,
                    "time": 28.43131,
                    "velocity": 0.47244094488188976,
                    "duration": 0.06535933333333332
                },
                {
                    "name": "F4",
                    "midi": 65,
                    "time": 28.43131,
                    "velocity": 0.47244094488188976,
                    "duration": 0.06535933333333332
                },
                {
                    "name": "A3",
                    "midi": 57,
                    "time": 28.823466,
                    "velocity": 0.47244094488188976,
                    "duration": 0.06535933333333332
                },
                {
                    "name": "C4",
                    "midi": 60,
                    "time": 28.823466,
                    "velocity": 0.47244094488188976,
                    "duration": 0.06535933333333332
                },
                {
                    "name": "F4",
                    "midi": 65,
                    "time": 28.823466,
                    "velocity": 0.47244094488188976,
                    "duration": 0.06535933333333332
                },
                {
                    "name": "G3",
                    "midi": 55,
                    "time": 29.215622,
                    "velocity": 0.47244094488188976,
                    "duration": 0.06535933333333332
                },
                {
                    "name": "B3",
                    "midi": 59,
                    "time": 29.215622,
                    "velocity": 0.47244094488188976,
                    "duration": 0.06535933333333332
                },
                {
                    "name": "D4",
                    "midi": 62,
                    "time": 29.215622,
                    "velocity": 0.47244094488188976,
                    "duration": 0.06535933333333332
                },
                {
                    "name": "G3",
                    "midi": 55,
                    "time": 29.607778,
                    "velocity": 0.47244094488188976,
                    "duration": 0.06535933333333332
                },
                {
                    "name": "B3",
                    "midi": 59,
                    "time": 29.607778,
                    "velocity": 0.47244094488188976,
                    "duration": 0.06535933333333332
                },
                {
                    "name": "D4",
                    "midi": 62,
                    "time": 29.607778,
                    "velocity": 0.47244094488188976,
                    "duration": 0.06535933333333332
                },
                {
                    "name": "G3",
                    "midi": 55,
                    "time": 29.999934,
                    "velocity": 0.47244094488188976,
                    "duration": 0.06535933333333332
                },
                {
                    "name": "C4",
                    "midi": 60,
                    "time": 29.999934,
                    "velocity": 0.47244094488188976,
                    "duration": 0.06535933333333332
                },
                {
                    "name": "E4",
                    "midi": 64,
                    "time": 29.999934,
                    "velocity": 0.47244094488188976,
                    "duration": 0.06535933333333332
                },
                {
                    "name": "G3",
                    "midi": 55,
                    "time": 30.39209,
                    "velocity": 0.47244094488188976,
                    "duration": 0.06535933333333332
                },
                {
                    "name": "C4",
                    "midi": 60,
                    "time": 30.39209,
                    "velocity": 0.47244094488188976,
                    "duration": 0.06535933333333332
                },
                {
                    "name": "E4",
                    "midi": 64,
                    "time": 30.39209,
                    "velocity": 0.47244094488188976,
                    "duration": 0.06535933333333332
                },
                {
                    "name": "A3",
                    "midi": 57,
                    "time": 30.784246,
                    "velocity": 0.47244094488188976,
                    "duration": 0.06535933333333332
                },
                {
                    "name": "C4",
                    "midi": 60,
                    "time": 30.784246,
                    "velocity": 0.47244094488188976,
                    "duration": 0.06535933333333332
                },
                {
                    "name": "E4",
                    "midi": 64,
                    "time": 30.784246,
                    "velocity": 0.47244094488188976,
                    "duration": 0.06535933333333332
                },
                {
                    "name": "A3",
                    "midi": 57,
                    "time": 31.176402,
                    "velocity": 0.47244094488188976,
                    "duration": 0.06535933333333332
                },
                {
                    "name": "C4",
                    "midi": 60,
                    "time": 31.176402,
                    "velocity": 0.47244094488188976,
                    "duration": 0.06535933333333332
                },
                {
                    "name": "E4",
                    "midi": 64,
                    "time": 31.176402,
                    "velocity": 0.47244094488188976,
                    "duration": 0.06535933333333332
                },
                {
                    "name": "G#3",
                    "midi": 56,
                    "time": 31.568558,
                    "velocity": 0.47244094488188976,
                    "duration": 0.06535933333333332
                },
                {
                    "name": "B3",
                    "midi": 59,
                    "time": 31.568558,
                    "velocity": 0.47244094488188976,
                    "duration": 0.06535933333333332
                },
                {
                    "name": "E4",
                    "midi": 64,
                    "time": 31.568558,
                    "velocity": 0.47244094488188976,
                    "duration": 0.06535933333333332
                },
                {
                    "name": "G#3",
                    "midi": 56,
                    "time": 31.960714,
                    "velocity": 0.47244094488188976,
                    "duration": 0.06535933333332977
                },
                {
                    "name": "B3",
                    "midi": 59,
                    "time": 31.960714,
                    "velocity": 0.47244094488188976,
                    "duration": 0.06535933333332977
                },
                {
                    "name": "E4",
                    "midi": 64,
                    "time": 31.960714,
                    "velocity": 0.47244094488188976,
                    "duration": 0.06535933333332977
                },
                {
                    "name": "A3",
                    "midi": 57,
                    "time": 32.352869999999996,
                    "velocity": 0.47244094488188976,
                    "duration": 0.06535933333333332
                },
                {
                    "name": "C4",
                    "midi": 60,
                    "time": 32.352869999999996,
                    "velocity": 0.47244094488188976,
                    "duration": 0.06535933333333332
                },
                {
                    "name": "E4",
                    "midi": 64,
                    "time": 32.352869999999996,
                    "velocity": 0.47244094488188976,
                    "duration": 0.06535933333333332
                },
                {
                    "name": "A3",
                    "midi": 57,
                    "time": 32.745025999999996,
                    "velocity": 0.47244094488188976,
                    "duration": 0.06535933333333332
                },
                {
                    "name": "C4",
                    "midi": 60,
                    "time": 32.745025999999996,
                    "velocity": 0.47244094488188976,
                    "duration": 0.06535933333333332
                },
                {
                    "name": "E4",
                    "midi": 64,
                    "time": 32.745025999999996,
                    "velocity": 0.47244094488188976,
                    "duration": 0.06535933333333332
                },
                {
                    "name": "A3",
                    "midi": 57,
                    "time": 33.137181999999996,
                    "velocity": 0.47244094488188976,
                    "duration": 0.06535933333333332
                },
                {
                    "name": "C4",
                    "midi": 60,
                    "time": 33.137181999999996,
                    "velocity": 0.47244094488188976,
                    "duration": 0.06535933333333332
                },
                {
                    "name": "D4",
                    "midi": 62,
                    "time": 33.137181999999996,
                    "velocity": 0.47244094488188976,
                    "duration": 0.06535933333333332
                },
                {
                    "name": "F#4",
                    "midi": 66,
                    "time": 33.137181999999996,
                    "velocity": 0.47244094488188976,
                    "duration": 0.06535933333333332
                },
                {
                    "name": "A3",
                    "midi": 57,
                    "time": 33.529337999999996,
                    "velocity": 0.47244094488188976,
                    "duration": 0.06535933333333332
                },
                {
                    "name": "C4",
                    "midi": 60,
                    "time": 33.529337999999996,
                    "velocity": 0.47244094488188976,
                    "duration": 0.06535933333333332
                },
                {
                    "name": "D4",
                    "midi": 62,
                    "time": 33.529337999999996,
                    "velocity": 0.47244094488188976,
                    "duration": 0.06535933333333332
                },
                {
                    "name": "F#4",
                    "midi": 66,
                    "time": 33.529337999999996,
                    "velocity": 0.47244094488188976,
                    "duration": 0.06535933333333332
                },
                {
                    "name": "B3",
                    "midi": 59,
                    "time": 33.921493999999996,
                    "velocity": 0.47244094488188976,
                    "duration": 0.06535933333333332
                },
                {
                    "name": "D4",
                    "midi": 62,
                    "time": 33.921493999999996,
                    "velocity": 0.47244094488188976,
                    "duration": 0.06535933333333332
                },
                {
                    "name": "G4",
                    "midi": 67,
                    "time": 33.921493999999996,
                    "velocity": 0.47244094488188976,
                    "duration": 0.06535933333333332
                },
                {
                    "name": "B3",
                    "midi": 59,
                    "time": 34.313649999999996,
                    "velocity": 0.47244094488188976,
                    "duration": 0.06535933333333332
                },
                {
                    "name": "D4",
                    "midi": 62,
                    "time": 34.313649999999996,
                    "velocity": 0.47244094488188976,
                    "duration": 0.06535933333333332
                },
                {
                    "name": "G4",
                    "midi": 67,
                    "time": 34.313649999999996,
                    "velocity": 0.47244094488188976,
                    "duration": 0.06535933333333332
                },
                {
                    "name": "B3",
                    "midi": 59,
                    "time": 34.705805999999995,
                    "velocity": 0.47244094488188976,
                    "duration": 0.06535933333333332
                },
                {
                    "name": "E4",
                    "midi": 64,
                    "time": 34.705805999999995,
                    "velocity": 0.47244094488188976,
                    "duration": 0.06535933333333332
                },
                {
                    "name": "G4",
                    "midi": 67,
                    "time": 34.705805999999995,
                    "velocity": 0.47244094488188976,
                    "duration": 0.06535933333333332
                },
                {
                    "name": "B3",
                    "midi": 59,
                    "time": 35.097961999999995,
                    "velocity": 0.47244094488188976,
                    "duration": 0.06535933333333332
                },
                {
                    "name": "E4",
                    "midi": 64,
                    "time": 35.097961999999995,
                    "velocity": 0.47244094488188976,
                    "duration": 0.06535933333333332
                },
                {
                    "name": "G4",
                    "midi": 67,
                    "time": 35.097961999999995,
                    "velocity": 0.47244094488188976,
                    "duration": 0.06535933333333332
                },
                {
                    "name": "A3",
                    "midi": 57,
                    "time": 35.490117999999995,
                    "velocity": 0.47244094488188976,
                    "duration": 0.06535933333333332
                },
                {
                    "name": "C#4",
                    "midi": 61,
                    "time": 35.490117999999995,
                    "velocity": 0.47244094488188976,
                    "duration": 0.06535933333333332
                },
                {
                    "name": "E4",
                    "midi": 64,
                    "time": 35.490117999999995,
                    "velocity": 0.47244094488188976,
                    "duration": 0.06535933333333332
                },
                {
                    "name": "A3",
                    "midi": 57,
                    "time": 35.882273999999995,
                    "velocity": 0.47244094488188976,
                    "duration": 0.06535933333333332
                },
                {
                    "name": "C#4",
                    "midi": 61,
                    "time": 35.882273999999995,
                    "velocity": 0.47244094488188976,
                    "duration": 0.06535933333333332
                },
                {
                    "name": "E4",
                    "midi": 64,
                    "time": 35.882273999999995,
                    "velocity": 0.47244094488188976,
                    "duration": 0.06535933333333332
                },
                {
                    "name": "A3",
                    "midi": 57,
                    "time": 36.078351999999995,
                    "velocity": 0.47244094488188976,
                    "duration": 0.06535933333333332
                },
                {
                    "name": "D4",
                    "midi": 62,
                    "time": 36.078351999999995,
                    "velocity": 0.47244094488188976,
                    "duration": 0.06535933333333332
                },
                {
                    "name": "F#4",
                    "midi": 66,
                    "time": 36.078351999999995,
                    "velocity": 0.47244094488188976,
                    "duration": 0.06535933333333332
                },
                {
                    "name": "G3",
                    "midi": 55,
                    "time": 37.646975999999995,
                    "velocity": 0.47244094488188976,
                    "duration": 0.06535933333333332
                },
                {
                    "name": "B3",
                    "midi": 59,
                    "time": 37.646975999999995,
                    "velocity": 0.47244094488188976,
                    "duration": 0.06535933333333332
                },
                {
                    "name": "D4",
                    "midi": 62,
                    "time": 37.646975999999995,
                    "velocity": 0.47244094488188976,
                    "duration": 0.06535933333333332
                },
                {
                    "name": "G3",
                    "midi": 55,
                    "time": 38.039131999999995,
                    "velocity": 0.47244094488188976,
                    "duration": 0.06535933333333332
                },
                {
                    "name": "B3",
                    "midi": 59,
                    "time": 38.039131999999995,
                    "velocity": 0.47244094488188976,
                    "duration": 0.06535933333333332
                },
                {
                    "name": "D4",
                    "midi": 62,
                    "time": 38.039131999999995,
                    "velocity": 0.47244094488188976,
                    "duration": 0.06535933333333332
                },
                {
                    "name": "G3",
                    "midi": 55,
                    "time": 38.431287999999995,
                    "velocity": 0.47244094488188976,
                    "duration": 0.06535933333333332
                },
                {
                    "name": "C#4",
                    "midi": 61,
                    "time": 38.431287999999995,
                    "velocity": 0.47244094488188976,
                    "duration": 0.06535933333333332
                },
                {
                    "name": "E4",
                    "midi": 64,
                    "time": 38.431287999999995,
                    "velocity": 0.47244094488188976,
                    "duration": 0.06535933333333332
                },
                {
                    "name": "G3",
                    "midi": 55,
                    "time": 38.823443999999995,
                    "velocity": 0.47244094488188976,
                    "duration": 0.06535933333333332
                },
                {
                    "name": "C#4",
                    "midi": 61,
                    "time": 38.823443999999995,
                    "velocity": 0.47244094488188976,
                    "duration": 0.06535933333333332
                },
                {
                    "name": "E4",
                    "midi": 64,
                    "time": 38.823443999999995,
                    "velocity": 0.47244094488188976,
                    "duration": 0.06535933333333332
                },
                {
                    "name": "A3",
                    "midi": 57,
                    "time": 39.215599999999995,
                    "velocity": 0.47244094488188976,
                    "duration": 0.06535933333333332
                },
                {
                    "name": "D4",
                    "midi": 62,
                    "time": 39.215599999999995,
                    "velocity": 0.47244094488188976,
                    "duration": 0.06535933333333332
                },
                {
                    "name": "F#4",
                    "midi": 66,
                    "time": 39.215599999999995,
                    "velocity": 0.47244094488188976,
                    "duration": 0.06535933333333332
                },
                {
                    "name": "D4",
                    "midi": 62,
                    "time": 40.784223999999995,
                    "velocity": 0.47244094488188976,
                    "duration": 0.06535933333333332
                },
                {
                    "name": "G4",
                    "midi": 67,
                    "time": 40.784223999999995,
                    "velocity": 0.47244094488188976,
                    "duration": 0.06535933333333332
                },
                {
                    "name": "B4",
                    "midi": 71,
                    "time": 40.784223999999995,
                    "velocity": 0.47244094488188976,
                    "duration": 0.06535933333333332
                },
                {
                    "name": "D4",
                    "midi": 62,
                    "time": 41.176379999999995,
                    "velocity": 0.47244094488188976,
                    "duration": 0.06535933333333332
                },
                {
                    "name": "G4",
                    "midi": 67,
                    "time": 41.176379999999995,
                    "velocity": 0.47244094488188976,
                    "duration": 0.06535933333333332
                },
                {
                    "name": "B4",
                    "midi": 71,
                    "time": 41.176379999999995,
                    "velocity": 0.47244094488188976,
                    "duration": 0.06535933333333332
                },
                {
                    "name": "E4",
                    "midi": 64,
                    "time": 41.568535999999995,
                    "velocity": 0.47244094488188976,
                    "duration": 0.06535933333333332
                },
                {
                    "name": "A4",
                    "midi": 69,
                    "time": 41.568535999999995,
                    "velocity": 0.47244094488188976,
                    "duration": 0.06535933333333332
                },
                {
                    "name": "C#5",
                    "midi": 73,
                    "time": 41.568535999999995,
                    "velocity": 0.47244094488188976,
                    "duration": 0.06535933333333332
                },
                {
                    "name": "E4",
                    "midi": 64,
                    "time": 41.960691999999995,
                    "velocity": 0.47244094488188976,
                    "duration": 0.06535933333333332
                },
                {
                    "name": "A4",
                    "midi": 69,
                    "time": 41.960691999999995,
                    "velocity": 0.47244094488188976,
                    "duration": 0.06535933333333332
                },
                {
                    "name": "C#5",
                    "midi": 73,
                    "time": 41.960691999999995,
                    "velocity": 0.47244094488188976,
                    "duration": 0.06535933333333332
                },
                {
                    "name": "F#4",
                    "midi": 66,
                    "time": 42.352847999999994,
                    "velocity": 0.47244094488188976,
                    "duration": 0.06535933333333332
                },
                {
                    "name": "A4",
                    "midi": 69,
                    "time": 42.352847999999994,
                    "velocity": 0.47244094488188976,
                    "duration": 0.06535933333333332
                },
                {
                    "name": "D5",
                    "midi": 74,
                    "time": 42.352847999999994,
                    "velocity": 0.47244094488188976,
                    "duration": 0.06535933333333332
                },
                {
                    "name": "E4",
                    "midi": 64,
                    "time": 42.745003999999994,
                    "velocity": 0.47244094488188976,
                    "duration": 0.39215599999999995
                },
                {
                    "name": "A4",
                    "midi": 69,
                    "time": 42.745003999999994,
                    "velocity": 0.47244094488188976,
                    "duration": 0.39215599999999995
                },
                {
                    "name": "C#5",
                    "midi": 73,
                    "time": 42.745003999999994,
                    "velocity": 0.47244094488188976,
                    "duration": 0.39215599999999995
                },
                {
                    "name": "F#4",
                    "midi": 66,
                    "time": 43.137159999999994,
                    "velocity": 0.47244094488188976,
                    "duration": 0.39215599999999995
                },
                {
                    "name": "A4",
                    "midi": 69,
                    "time": 43.137159999999994,
                    "velocity": 0.47244094488188976,
                    "duration": 0.39215599999999995
                },
                {
                    "name": "D5",
                    "midi": 74,
                    "time": 43.137159999999994,
                    "velocity": 0.47244094488188976,
                    "duration": 0.39215599999999995
                },
                {
                    "name": "G4",
                    "midi": 67,
                    "time": 43.529315999999994,
                    "velocity": 0.47244094488188976,
                    "duration": 0.39215599999999995
                },
                {
                    "name": "A4",
                    "midi": 69,
                    "time": 43.529315999999994,
                    "velocity": 0.47244094488188976,
                    "duration": 0.39215599999999995
                },
                {
                    "name": "C#5",
                    "midi": 73,
                    "time": 43.529315999999994,
                    "velocity": 0.47244094488188976,
                    "duration": 0.39215599999999995
                },
                {
                    "name": "F#4",
                    "midi": 66,
                    "time": 43.921471999999994,
                    "velocity": 0.47244094488188976,
                    "duration": 0.39215599999999995
                },
                {
                    "name": "A4",
                    "midi": 69,
                    "time": 43.921471999999994,
                    "velocity": 0.47244094488188976,
                    "duration": 0.39215599999999995
                },
                {
                    "name": "D5",
                    "midi": 74,
                    "time": 43.921471999999994,
                    "velocity": 0.47244094488188976,
                    "duration": 0.39215599999999995
                },
                {
                    "name": "E4",
                    "midi": 64,
                    "time": 44.313627999999994,
                    "velocity": 0.47244094488188976,
                    "duration": 0.39215599999999995
                },
                {
                    "name": "A4",
                    "midi": 69,
                    "time": 44.313627999999994,
                    "velocity": 0.47244094488188976,
                    "duration": 0.39215599999999995
                },
                {
                    "name": "C#5",
                    "midi": 73,
                    "time": 44.313627999999994,
                    "velocity": 0.47244094488188976,
                    "duration": 0.39215599999999995
                },
                {
                    "name": "F#4",
                    "midi": 66,
                    "time": 44.705783999999994,
                    "velocity": 0.47244094488188976,
                    "duration": 0.39215599999999995
                },
                {
                    "name": "A4",
                    "midi": 69,
                    "time": 44.705783999999994,
                    "velocity": 0.47244094488188976,
                    "duration": 0.39215599999999995
                },
                {
                    "name": "D5",
                    "midi": 74,
                    "time": 44.705783999999994,
                    "velocity": 0.47244094488188976,
                    "duration": 0.39215599999999995
                },
                {
                    "name": "G4",
                    "midi": 67,
                    "time": 45.097939999999994,
                    "velocity": 0.47244094488188976,
                    "duration": 0.39215599999999995
                },
                {
                    "name": "A4",
                    "midi": 69,
                    "time": 45.097939999999994,
                    "velocity": 0.47244094488188976,
                    "duration": 0.39215599999999995
                },
                {
                    "name": "C#5",
                    "midi": 73,
                    "time": 45.097939999999994,
                    "velocity": 0.47244094488188976,
                    "duration": 0.39215599999999995
                },
                {
                    "name": "F#4",
                    "midi": 66,
                    "time": 45.490095999999994,
                    "velocity": 0.47244094488188976,
                    "duration": 0.1919930416666702
                },
                {
                    "name": "A4",
                    "midi": 69,
                    "time": 45.490095999999994,
                    "velocity": 0.47244094488188976,
                    "duration": 0.1919930416666702
                },
                {
                    "name": "D5",
                    "midi": 74,
                    "time": 45.490095999999994,
                    "velocity": 0.47244094488188976,
                    "duration": 0.1919930416666702
                },
                {
                    "name": "A3",
                    "midi": 57,
                    "time": 46.470486,
                    "velocity": 0.47244094488188976,
                    "duration": 0.06535933333333332
                },
                {
                    "name": "C4",
                    "midi": 60,
                    "time": 46.470486,
                    "velocity": 0.47244094488188976,
                    "duration": 0.06535933333333332
                },
                {
                    "name": "D4",
                    "midi": 62,
                    "time": 46.470486,
                    "velocity": 0.47244094488188976,
                    "duration": 0.06535933333333332
                },
                {
                    "name": "F#4",
                    "midi": 66,
                    "time": 46.470486,
                    "velocity": 0.47244094488188976,
                    "duration": 0.06535933333333332
                },
                {
                    "name": "A3",
                    "midi": 57,
                    "time": 46.862642,
                    "velocity": 0.47244094488188976,
                    "duration": 0.06535933333333332
                },
                {
                    "name": "C4",
                    "midi": 60,
                    "time": 46.862642,
                    "velocity": 0.47244094488188976,
                    "duration": 0.06535933333333332
                },
                {
                    "name": "D4",
                    "midi": 62,
                    "time": 46.862642,
                    "velocity": 0.47244094488188976,
                    "duration": 0.06535933333333332
                },
                {
                    "name": "F#4",
                    "midi": 66,
                    "time": 46.862642,
                    "velocity": 0.47244094488188976,
                    "duration": 0.06535933333333332
                },
                {
                    "name": "B3",
                    "midi": 59,
                    "time": 47.254798,
                    "velocity": 0.47244094488188976,
                    "duration": 0.06535933333333332
                },
                {
                    "name": "D4",
                    "midi": 62,
                    "time": 47.254798,
                    "velocity": 0.47244094488188976,
                    "duration": 0.06535933333333332
                },
                {
                    "name": "G4",
                    "midi": 67,
                    "time": 47.254798,
                    "velocity": 0.47244094488188976,
                    "duration": 0.06535933333333332
                },
                {
                    "name": "B3",
                    "midi": 59,
                    "time": 47.646954,
                    "velocity": 0.47244094488188976,
                    "duration": 0.06535933333333332
                },
                {
                    "name": "D4",
                    "midi": 62,
                    "time": 47.646954,
                    "velocity": 0.47244094488188976,
                    "duration": 0.06535933333333332
                },
                {
                    "name": "G4",
                    "midi": 67,
                    "time": 47.646954,
                    "velocity": 0.47244094488188976,
                    "duration": 0.06535933333333332
                },
                {
                    "name": "B3",
                    "midi": 59,
                    "time": 48.03911,
                    "velocity": 0.47244094488188976,
                    "duration": 0.06535933333333332
                },
                {
                    "name": "D#4",
                    "midi": 63,
                    "time": 48.03911,
                    "velocity": 0.47244094488188976,
                    "duration": 0.06535933333333332
                },
                {
                    "name": "F#4",
                    "midi": 66,
                    "time": 48.03911,
                    "velocity": 0.47244094488188976,
                    "duration": 0.06535933333333332
                },
                {
                    "name": "B3",
                    "midi": 59,
                    "time": 48.431266,
                    "velocity": 0.47244094488188976,
                    "duration": 0.06535933333333332
                },
                {
                    "name": "D#4",
                    "midi": 63,
                    "time": 48.431266,
                    "velocity": 0.47244094488188976,
                    "duration": 0.06535933333333332
                },
                {
                    "name": "F#4",
                    "midi": 66,
                    "time": 48.431266,
                    "velocity": 0.47244094488188976,
                    "duration": 0.06535933333333332
                },
                {
                    "name": "B3",
                    "midi": 59,
                    "time": 48.823422,
                    "velocity": 0.47244094488188976,
                    "duration": 0.06535933333333332
                },
                {
                    "name": "E4",
                    "midi": 64,
                    "time": 48.823422,
                    "velocity": 0.47244094488188976,
                    "duration": 0.06535933333333332
                },
                {
                    "name": "G4",
                    "midi": 67,
                    "time": 48.823422,
                    "velocity": 0.47244094488188976,
                    "duration": 0.06535933333333332
                },
                {
                    "name": "B3",
                    "midi": 59,
                    "time": 49.215578,
                    "velocity": 0.47244094488188976,
                    "duration": 0.06535933333333332
                },
                {
                    "name": "E4",
                    "midi": 64,
                    "time": 49.215578,
                    "velocity": 0.47244094488188976,
                    "duration": 0.06535933333333332
                },
                {
                    "name": "G4",
                    "midi": 67,
                    "time": 49.215578,
                    "velocity": 0.47244094488188976,
                    "duration": 0.06535933333333332
                },
                {
                    "name": "B3",
                    "midi": 59,
                    "time": 49.607734,
                    "velocity": 0.47244094488188976,
                    "duration": 0.06535933333333332
                },
                {
                    "name": "D4",
                    "midi": 62,
                    "time": 49.607734,
                    "velocity": 0.47244094488188976,
                    "duration": 0.06535933333333332
                },
                {
                    "name": "G4",
                    "midi": 67,
                    "time": 49.607734,
                    "velocity": 0.47244094488188976,
                    "duration": 0.06535933333333332
                },
                {
                    "name": "B3",
                    "midi": 59,
                    "time": 49.99989,
                    "velocity": 0.47244094488188976,
                    "duration": 0.06535933333333332
                },
                {
                    "name": "D4",
                    "midi": 62,
                    "time": 49.99989,
                    "velocity": 0.47244094488188976,
                    "duration": 0.06535933333333332
                },
                {
                    "name": "G4",
                    "midi": 67,
                    "time": 49.99989,
                    "velocity": 0.47244094488188976,
                    "duration": 0.06535933333333332
                },
                {
                    "name": "C4",
                    "midi": 60,
                    "time": 50.392046,
                    "velocity": 0.47244094488188976,
                    "duration": 0.06535933333333332
                },
                {
                    "name": "E4",
                    "midi": 64,
                    "time": 50.392046,
                    "velocity": 0.47244094488188976,
                    "duration": 0.06535933333333332
                },
                {
                    "name": "G4",
                    "midi": 67,
                    "time": 50.392046,
                    "velocity": 0.47244094488188976,
                    "duration": 0.06535933333333332
                },
                {
                    "name": "C4",
                    "midi": 60,
                    "time": 50.784202,
                    "velocity": 0.47244094488188976,
                    "duration": 0.06535933333333332
                },
                {
                    "name": "E4",
                    "midi": 64,
                    "time": 50.784202,
                    "velocity": 0.47244094488188976,
                    "duration": 0.06535933333333332
                },
                {
                    "name": "G4",
                    "midi": 67,
                    "time": 50.784202,
                    "velocity": 0.47244094488188976,
                    "duration": 0.06535933333333332
                },
                {
                    "name": "G3",
                    "midi": 55,
                    "time": 51.176358,
                    "velocity": 0.47244094488188976,
                    "duration": 0.06535933333333332
                },
                {
                    "name": "C4",
                    "midi": 60,
                    "time": 51.176358,
                    "velocity": 0.47244094488188976,
                    "duration": 0.06535933333333332
                },
                {
                    "name": "E4",
                    "midi": 64,
                    "time": 51.176358,
                    "velocity": 0.47244094488188976,
                    "duration": 0.06535933333333332
                },
                {
                    "name": "B3",
                    "midi": 59,
                    "time": 51.568514,
                    "velocity": 0.47244094488188976,
                    "duration": 0.06535933333333332
                },
                {
                    "name": "D4",
                    "midi": 62,
                    "time": 51.568514,
                    "velocity": 0.47244094488188976,
                    "duration": 0.06535933333333332
                },
                {
                    "name": "G4",
                    "midi": 67,
                    "time": 51.568514,
                    "velocity": 0.47244094488188976,
                    "duration": 0.06535933333333332
                },
                {
                    "name": "B3",
                    "midi": 59,
                    "time": 51.96067,
                    "velocity": 0.47244094488188976,
                    "duration": 0.06535933333333332
                },
                {
                    "name": "D4",
                    "midi": 62,
                    "time": 51.96067,
                    "velocity": 0.47244094488188976,
                    "duration": 0.06535933333333332
                },
                {
                    "name": "G4",
                    "midi": 67,
                    "time": 51.96067,
                    "velocity": 0.47244094488188976,
                    "duration": 0.06535933333333332
                },
                {
                    "name": "B3",
                    "midi": 59,
                    "time": 52.352826,
                    "velocity": 0.47244094488188976,
                    "duration": 0.06535933333333332
                },
                {
                    "name": "E4",
                    "midi": 64,
                    "time": 52.352826,
                    "velocity": 0.47244094488188976,
                    "duration": 0.06535933333333332
                },
                {
                    "name": "G#4",
                    "midi": 68,
                    "time": 52.352826,
                    "velocity": 0.47244094488188976,
                    "duration": 0.06535933333333332
                },
                {
                    "name": "C4",
                    "midi": 60,
                    "time": 52.744982,
                    "velocity": 0.47244094488188976,
                    "duration": 0.06535933333333332
                },
                {
                    "name": "E4",
                    "midi": 64,
                    "time": 52.744982,
                    "velocity": 0.47244094488188976,
                    "duration": 0.06535933333333332
                },
                {
                    "name": "A4",
                    "midi": 69,
                    "time": 52.744982,
                    "velocity": 0.47244094488188976,
                    "duration": 0.06535933333333332
                },
                {
                    "name": "A3",
                    "midi": 57,
                    "time": 53.137138,
                    "velocity": 0.47244094488188976,
                    "duration": 0.06535933333333332
                },
                {
                    "name": "D4",
                    "midi": 62,
                    "time": 53.137138,
                    "velocity": 0.47244094488188976,
                    "duration": 0.06535933333333332
                },
                {
                    "name": "F#4",
                    "midi": 66,
                    "time": 53.137138,
                    "velocity": 0.47244094488188976,
                    "duration": 0.06535933333333332
                },
                {
                    "name": "B3",
                    "midi": 59,
                    "time": 53.529294,
                    "velocity": 0.47244094488188976,
                    "duration": 0.06535933333333332
                },
                {
                    "name": "D4",
                    "midi": 62,
                    "time": 53.529294,
                    "velocity": 0.47244094488188976,
                    "duration": 0.06535933333333332
                },
                {
                    "name": "G4",
                    "midi": 67,
                    "time": 53.529294,
                    "velocity": 0.47244094488188976,
                    "duration": 0.06535933333333332
                },
                {
                    "name": "G3",
                    "midi": 55,
                    "time": 53.92145,
                    "velocity": 0.47244094488188976,
                    "duration": 0.06535933333333332
                },
                {
                    "name": "C4",
                    "midi": 60,
                    "time": 53.92145,
                    "velocity": 0.47244094488188976,
                    "duration": 0.06535933333333332
                },
                {
                    "name": "E4",
                    "midi": 64,
                    "time": 53.92145,
                    "velocity": 0.47244094488188976,
                    "duration": 0.06535933333333332
                },
                {
                    "name": "A3",
                    "midi": 57,
                    "time": 54.313606,
                    "velocity": 0.47244094488188976,
                    "duration": 0.06535933333333332
                },
                {
                    "name": "C4",
                    "midi": 60,
                    "time": 54.313606,
                    "velocity": 0.47244094488188976,
                    "duration": 0.06535933333333332
                },
                {
                    "name": "F#4",
                    "midi": 66,
                    "time": 54.313606,
                    "velocity": 0.47244094488188976,
                    "duration": 0.06535933333333332
                },
                {
                    "name": "F#3",
                    "midi": 54,
                    "time": 54.705762,
                    "velocity": 0.47244094488188976,
                    "duration": 0.06535933333333332
                },
                {
                    "name": "B3",
                    "midi": 59,
                    "time": 54.705762,
                    "velocity": 0.47244094488188976,
                    "duration": 0.06535933333333332
                },
                {
                    "name": "D#4",
                    "midi": 63,
                    "time": 54.705762,
                    "velocity": 0.47244094488188976,
                    "duration": 0.06535933333333332
                },
                {
                    "name": "G3",
                    "midi": 55,
                    "time": 55.097918,
                    "velocity": 0.47244094488188976,
                    "duration": 0.06535933333333332
                },
                {
                    "name": "B3",
                    "midi": 59,
                    "time": 55.097918,
                    "velocity": 0.47244094488188976,
                    "duration": 0.06535933333333332
                },
                {
                    "name": "E4",
                    "midi": 64,
                    "time": 55.097918,
                    "velocity": 0.47244094488188976,
                    "duration": 0.06535933333333332
                },
                {
                    "name": "E3",
                    "midi": 52,
                    "time": 55.490074,
                    "velocity": 0.47244094488188976,
                    "duration": 0.06535933333333332
                },
                {
                    "name": "A3",
                    "midi": 57,
                    "time": 55.490074,
                    "velocity": 0.47244094488188976,
                    "duration": 0.06535933333333332
                },
                {
                    "name": "C#4",
                    "midi": 61,
                    "time": 55.490074,
                    "velocity": 0.47244094488188976,
                    "duration": 0.06535933333333332
                },
                {
                    "name": "A3",
                    "midi": 57,
                    "time": 55.88223,
                    "velocity": 0.47244094488188976,
                    "duration": 0.06535933333333332
                },
                {
                    "name": "D4",
                    "midi": 62,
                    "time": 55.88223,
                    "velocity": 0.47244094488188976,
                    "duration": 0.06535933333333332
                },
                {
                    "name": "F#4",
                    "midi": 66,
                    "time": 55.88223,
                    "velocity": 0.47244094488188976,
                    "duration": 0.06535933333333332
                },
                {
                    "name": "A3",
                    "midi": 57,
                    "time": 56.274386,
                    "velocity": 0.47244094488188976,
                    "duration": 0.06535933333333332
                },
                {
                    "name": "D4",
                    "midi": 62,
                    "time": 56.274386,
                    "velocity": 0.47244094488188976,
                    "duration": 0.06535933333333332
                },
                {
                    "name": "F#4",
                    "midi": 66,
                    "time": 56.274386,
                    "velocity": 0.47244094488188976,
                    "duration": 0.06535933333333332
                },
                {
                    "name": "D4",
                    "midi": 62,
                    "time": 56.666542,
                    "velocity": 0.47244094488188976,
                    "duration": 0.06535933333333332
                },
                {
                    "name": "G4",
                    "midi": 67,
                    "time": 56.666542,
                    "velocity": 0.47244094488188976,
                    "duration": 0.06535933333333332
                },
                {
                    "name": "B4",
                    "midi": 71,
                    "time": 56.666542,
                    "velocity": 0.47244094488188976,
                    "duration": 0.06535933333333332
                },
                {
                    "name": "E4",
                    "midi": 64,
                    "time": 57.058698,
                    "velocity": 0.47244094488188976,
                    "duration": 0.06535933333333332
                },
                {
                    "name": "A4",
                    "midi": 69,
                    "time": 57.058698,
                    "velocity": 0.47244094488188976,
                    "duration": 0.06535933333333332
                },
                {
                    "name": "B4",
                    "midi": 71,
                    "time": 57.058698,
                    "velocity": 0.47244094488188976,
                    "duration": 0.06535933333333332
                },
                {
                    "name": "D4",
                    "midi": 62,
                    "time": 57.450854,
                    "velocity": 0.47244094488188976,
                    "duration": 0.06535933333333332
                },
                {
                    "name": "G4",
                    "midi": 67,
                    "time": 57.450854,
                    "velocity": 0.47244094488188976,
                    "duration": 0.06535933333333332
                },
                {
                    "name": "B4",
                    "midi": 71,
                    "time": 57.450854,
                    "velocity": 0.47244094488188976,
                    "duration": 0.06535933333333332
                },
                {
                    "name": "C4",
                    "midi": 60,
                    "time": 57.84301,
                    "velocity": 0.47244094488188976,
                    "duration": 0.06535933333333332
                },
                {
                    "name": "F#4",
                    "midi": 66,
                    "time": 57.84301,
                    "velocity": 0.47244094488188976,
                    "duration": 0.06535933333333332
                },
                {
                    "name": "A4",
                    "midi": 69,
                    "time": 57.84301,
                    "velocity": 0.47244094488188976,
                    "duration": 0.06535933333333332
                },
                {
                    "name": "B3",
                    "midi": 59,
                    "time": 58.235166,
                    "velocity": 0.47244094488188976,
                    "duration": 0.06535933333333332
                },
                {
                    "name": "D4",
                    "midi": 62,
                    "time": 58.235166,
                    "velocity": 0.47244094488188976,
                    "duration": 0.06535933333333332
                },
                {
                    "name": "G4",
                    "midi": 67,
                    "time": 58.235166,
                    "velocity": 0.47244094488188976,
                    "duration": 0.06535933333333332
                },
                {
                    "name": "B3",
                    "midi": 59,
                    "time": 58.627322,
                    "velocity": 0.47244094488188976,
                    "duration": 0.06535933333333332
                },
                {
                    "name": "E4",
                    "midi": 64,
                    "time": 58.627322,
                    "velocity": 0.47244094488188976,
                    "duration": 0.06535933333333332
                },
                {
                    "name": "G#4",
                    "midi": 68,
                    "time": 58.627322,
                    "velocity": 0.47244094488188976,
                    "duration": 0.06535933333333332
                },
                {
                    "name": "C4",
                    "midi": 60,
                    "time": 59.019478,
                    "velocity": 0.47244094488188976,
                    "duration": 0.06535933333333332
                },
                {
                    "name": "E4",
                    "midi": 64,
                    "time": 59.019478,
                    "velocity": 0.47244094488188976,
                    "duration": 0.06535933333333332
                },
                {
                    "name": "A4",
                    "midi": 69,
                    "time": 59.019478,
                    "velocity": 0.47244094488188976,
                    "duration": 0.06535933333333332
                },
                {
                    "name": "A3",
                    "midi": 57,
                    "time": 59.411634,
                    "velocity": 0.47244094488188976,
                    "duration": 0.06535933333333332
                },
                {
                    "name": "D4",
                    "midi": 62,
                    "time": 59.411634,
                    "velocity": 0.47244094488188976,
                    "duration": 0.06535933333333332
                },
                {
                    "name": "F#4",
                    "midi": 66,
                    "time": 59.411634,
                    "velocity": 0.47244094488188976,
                    "duration": 0.06535933333333332
                },
                {
                    "name": "B3",
                    "midi": 59,
                    "time": 59.80379,
                    "velocity": 0.47244094488188976,
                    "duration": 0.06535933333333332
                },
                {
                    "name": "D4",
                    "midi": 62,
                    "time": 59.80379,
                    "velocity": 0.47244094488188976,
                    "duration": 0.06535933333333332
                },
                {
                    "name": "G4",
                    "midi": 67,
                    "time": 59.80379,
                    "velocity": 0.47244094488188976,
                    "duration": 0.06535933333333332
                },
                {
                    "name": "G3",
                    "midi": 55,
                    "time": 60.195946,
                    "velocity": 0.47244094488188976,
                    "duration": 0.06535933333333332
                },
                {
                    "name": "C4",
                    "midi": 60,
                    "time": 60.195946,
                    "velocity": 0.47244094488188976,
                    "duration": 0.06535933333333332
                },
                {
                    "name": "E4",
                    "midi": 64,
                    "time": 60.195946,
                    "velocity": 0.47244094488188976,
                    "duration": 0.06535933333333332
                },
                {
                    "name": "A3",
                    "midi": 57,
                    "time": 60.588102,
                    "velocity": 0.47244094488188976,
                    "duration": 0.06535933333333332
                },
                {
                    "name": "C4",
                    "midi": 60,
                    "time": 60.588102,
                    "velocity": 0.47244094488188976,
                    "duration": 0.06535933333333332
                },
                {
                    "name": "F#4",
                    "midi": 66,
                    "time": 60.588102,
                    "velocity": 0.47244094488188976,
                    "duration": 0.06535933333333332
                },
                {
                    "name": "A4",
                    "midi": 69,
                    "time": 60.588102,
                    "velocity": 0.47244094488188976,
                    "duration": 0.06535933333333332
                },
                {
                    "name": "F#3",
                    "midi": 54,
                    "time": 60.980258,
                    "velocity": 0.47244094488188976,
                    "duration": 0.06535933333333332
                },
                {
                    "name": "B3",
                    "midi": 59,
                    "time": 60.980258,
                    "velocity": 0.47244094488188976,
                    "duration": 0.06535933333333332
                },
                {
                    "name": "D#4",
                    "midi": 63,
                    "time": 60.980258,
                    "velocity": 0.47244094488188976,
                    "duration": 0.06535933333333332
                },
                {
                    "name": "F#4",
                    "midi": 66,
                    "time": 60.980258,
                    "velocity": 0.47244094488188976,
                    "duration": 0.06535933333333332
                },
                {
                    "name": "G3",
                    "midi": 55,
                    "time": 61.372414,
                    "velocity": 0.47244094488188976,
                    "duration": 0.06535933333333332
                },
                {
                    "name": "B3",
                    "midi": 59,
                    "time": 61.372414,
                    "velocity": 0.47244094488188976,
                    "duration": 0.06535933333333332
                },
                {
                    "name": "E4",
                    "midi": 64,
                    "time": 61.372414,
                    "velocity": 0.47244094488188976,
                    "duration": 0.06535933333333332
                },
                {
                    "name": "G4",
                    "midi": 67,
                    "time": 61.372414,
                    "velocity": 0.47244094488188976,
                    "duration": 0.06535933333333332
                },
                {
                    "name": "E3",
                    "midi": 52,
                    "time": 61.76457,
                    "velocity": 0.47244094488188976,
                    "duration": 0.06535933333333332
                },
                {
                    "name": "A3",
                    "midi": 57,
                    "time": 61.76457,
                    "velocity": 0.47244094488188976,
                    "duration": 0.06535933333333332
                },
                {
                    "name": "C#4",
                    "midi": 61,
                    "time": 61.76457,
                    "velocity": 0.47244094488188976,
                    "duration": 0.06535933333333332
                },
                {
                    "name": "E4",
                    "midi": 64,
                    "time": 61.76457,
                    "velocity": 0.47244094488188976,
                    "duration": 0.06535933333333332
                },
                {
                    "name": "A3",
                    "midi": 57,
                    "time": 62.156726,
                    "velocity": 0.47244094488188976,
                    "duration": 0.06535933333333332
                },
                {
                    "name": "D4",
                    "midi": 62,
                    "time": 62.156726,
                    "velocity": 0.47244094488188976,
                    "duration": 0.06535933333333332
                },
                {
                    "name": "F#4",
                    "midi": 66,
                    "time": 62.156726,
                    "velocity": 0.47244094488188976,
                    "duration": 0.06535933333333332
                },
                {
                    "name": "A3",
                    "midi": 57,
                    "time": 62.548882,
                    "velocity": 0.47244094488188976,
                    "duration": 0.06535933333333332
                },
                {
                    "name": "D4",
                    "midi": 62,
                    "time": 62.548882,
                    "velocity": 0.47244094488188976,
                    "duration": 0.06535933333333332
                },
                {
                    "name": "F#4",
                    "midi": 66,
                    "time": 62.548882,
                    "velocity": 0.47244094488188976,
                    "duration": 0.06535933333333332
                },
                {
                    "name": "B3",
                    "midi": 59,
                    "time": 62.941038,
                    "velocity": 0.47244094488188976,
                    "duration": 0.06535933333333332
                },
                {
                    "name": "D4",
                    "midi": 62,
                    "time": 62.941038,
                    "velocity": 0.47244094488188976,
                    "duration": 0.06535933333333332
                },
                {
                    "name": "G4",
                    "midi": 67,
                    "time": 62.941038,
                    "velocity": 0.47244094488188976,
                    "duration": 0.06535933333333332
                },
                {
                    "name": "C4",
                    "midi": 60,
                    "time": 63.333194,
                    "velocity": 0.47244094488188976,
                    "duration": 0.06535933333333332
                },
                {
                    "name": "E4",
                    "midi": 64,
                    "time": 63.333194,
                    "velocity": 0.47244094488188976,
                    "duration": 0.06535933333333332
                },
                {
                    "name": "A4",
                    "midi": 69,
                    "time": 63.333194,
                    "velocity": 0.47244094488188976,
                    "duration": 0.06535933333333332
                },
                {
                    "name": "D4",
                    "midi": 62,
                    "time": 63.72535,
                    "velocity": 0.47244094488188976,
                    "duration": 0.06535933333333332
                },
                {
                    "name": "G4",
                    "midi": 67,
                    "time": 63.72535,
                    "velocity": 0.47244094488188976,
                    "duration": 0.06535933333333332
                },
                {
                    "name": "B4",
                    "midi": 71,
                    "time": 63.72535,
                    "velocity": 0.47244094488188976,
                    "duration": 0.06535933333333332
                },
                {
                    "name": "C4",
                    "midi": 60,
                    "time": 64.117506,
                    "velocity": 0.47244094488188976,
                    "duration": 0.06535933333333332
                },
                {
                    "name": "F#4",
                    "midi": 66,
                    "time": 64.117506,
                    "velocity": 0.47244094488188976,
                    "duration": 0.06535933333333332
                },
                {
                    "name": "A4",
                    "midi": 69,
                    "time": 64.117506,
                    "velocity": 0.47244094488188976,
                    "duration": 0.06535933333333332
                },
                {
                    "name": "B3",
                    "midi": 59,
                    "time": 64.509662,
                    "velocity": 0.47244094488188976,
                    "duration": 0.06535933333333332
                },
                {
                    "name": "D4",
                    "midi": 62,
                    "time": 64.509662,
                    "velocity": 0.47244094488188976,
                    "duration": 0.06535933333333332
                },
                {
                    "name": "G4",
                    "midi": 67,
                    "time": 64.509662,
                    "velocity": 0.47244094488188976,
                    "duration": 0.06535933333333332
                },
                {
                    "name": "B3",
                    "midi": 59,
                    "time": 64.901818,
                    "velocity": 0.47244094488188976,
                    "duration": 0.06535933333333332
                },
                {
                    "name": "D4",
                    "midi": 62,
                    "time": 64.901818,
                    "velocity": 0.47244094488188976,
                    "duration": 0.06535933333333332
                },
                {
                    "name": "G4",
                    "midi": 67,
                    "time": 64.901818,
                    "velocity": 0.47244094488188976,
                    "duration": 0.06535933333333332
                },
                {
                    "name": "A3",
                    "midi": 57,
                    "time": 65.293974,
                    "velocity": 0.47244094488188976,
                    "duration": 0.06535933333333332
                },
                {
                    "name": "C4",
                    "midi": 60,
                    "time": 65.293974,
                    "velocity": 0.47244094488188976,
                    "duration": 0.06535933333333332
                },
                {
                    "name": "D4",
                    "midi": 62,
                    "time": 65.293974,
                    "velocity": 0.47244094488188976,
                    "duration": 0.06535933333333332
                },
                {
                    "name": "F#4",
                    "midi": 66,
                    "time": 65.293974,
                    "velocity": 0.47244094488188976,
                    "duration": 0.06535933333333332
                },
                {
                    "name": "A3",
                    "midi": 57,
                    "time": 65.68613,
                    "velocity": 0.47244094488188976,
                    "duration": 0.06535933333333332
                },
                {
                    "name": "C4",
                    "midi": 60,
                    "time": 65.68613,
                    "velocity": 0.47244094488188976,
                    "duration": 0.06535933333333332
                },
                {
                    "name": "D4",
                    "midi": 62,
                    "time": 65.68613,
                    "velocity": 0.47244094488188976,
                    "duration": 0.06535933333333332
                },
                {
                    "name": "F#4",
                    "midi": 66,
                    "time": 65.68613,
                    "velocity": 0.47244094488188976,
                    "duration": 0.06535933333333332
                },
                {
                    "name": "B3",
                    "midi": 59,
                    "time": 66.078286,
                    "velocity": 0.47244094488188976,
                    "duration": 0.06535933333333332
                },
                {
                    "name": "D4",
                    "midi": 62,
                    "time": 66.078286,
                    "velocity": 0.47244094488188976,
                    "duration": 0.06535933333333332
                },
                {
                    "name": "G4",
                    "midi": 67,
                    "time": 66.078286,
                    "velocity": 0.47244094488188976,
                    "duration": 0.06535933333333332
                },
                {
                    "name": "B3",
                    "midi": 59,
                    "time": 66.470442,
                    "velocity": 0.47244094488188976,
                    "duration": 0.06535933333333332
                },
                {
                    "name": "D4",
                    "midi": 62,
                    "time": 66.470442,
                    "velocity": 0.47244094488188976,
                    "duration": 0.06535933333333332
                },
                {
                    "name": "G4",
                    "midi": 67,
                    "time": 66.470442,
                    "velocity": 0.47244094488188976,
                    "duration": 0.06535933333333332
                },
                {
                    "name": "A3",
                    "midi": 57,
                    "time": 66.862598,
                    "velocity": 0.47244094488188976,
                    "duration": 0.06535933333333332
                },
                {
                    "name": "C4",
                    "midi": 60,
                    "time": 66.862598,
                    "velocity": 0.47244094488188976,
                    "duration": 0.06535933333333332
                },
                {
                    "name": "D4",
                    "midi": 62,
                    "time": 66.862598,
                    "velocity": 0.47244094488188976,
                    "duration": 0.06535933333333332
                },
                {
                    "name": "F#4",
                    "midi": 66,
                    "time": 66.862598,
                    "velocity": 0.47244094488188976,
                    "duration": 0.06535933333333332
                },
                {
                    "name": "A3",
                    "midi": 57,
                    "time": 67.254754,
                    "velocity": 0.47244094488188976,
                    "duration": 0.06535933333333332
                },
                {
                    "name": "C4",
                    "midi": 60,
                    "time": 67.254754,
                    "velocity": 0.47244094488188976,
                    "duration": 0.06535933333333332
                },
                {
                    "name": "D4",
                    "midi": 62,
                    "time": 67.254754,
                    "velocity": 0.47244094488188976,
                    "duration": 0.06535933333333332
                },
                {
                    "name": "F#4",
                    "midi": 66,
                    "time": 67.254754,
                    "velocity": 0.47244094488188976,
                    "duration": 0.06535933333333332
                },
                {
                    "name": "B3",
                    "midi": 59,
                    "time": 67.64691,
                    "velocity": 0.47244094488188976,
                    "duration": 0.06535933333333332
                },
                {
                    "name": "D4",
                    "midi": 62,
                    "time": 67.64691,
                    "velocity": 0.47244094488188976,
                    "duration": 0.06535933333333332
                },
                {
                    "name": "G4",
                    "midi": 67,
                    "time": 67.64691,
                    "velocity": 0.47244094488188976,
                    "duration": 0.06535933333333332
                },
                {
                    "name": "B3",
                    "midi": 59,
                    "time": 68.039066,
                    "velocity": 0.47244094488188976,
                    "duration": 0.06535933333333332
                },
                {
                    "name": "D4",
                    "midi": 62,
                    "time": 68.039066,
                    "velocity": 0.47244094488188976,
                    "duration": 0.06535933333333332
                },
                {
                    "name": "G4",
                    "midi": 67,
                    "time": 68.039066,
                    "velocity": 0.47244094488188976,
                    "duration": 0.06535933333333332
                },
                {
                    "name": "A3",
                    "midi": 57,
                    "time": 68.431222,
                    "velocity": 0.47244094488188976,
                    "duration": 0.06535933333333332
                },
                {
                    "name": "C4",
                    "midi": 60,
                    "time": 68.431222,
                    "velocity": 0.47244094488188976,
                    "duration": 0.06535933333333332
                },
                {
                    "name": "D4",
                    "midi": 62,
                    "time": 68.431222,
                    "velocity": 0.47244094488188976,
                    "duration": 0.06535933333333332
                },
                {
                    "name": "F#4",
                    "midi": 66,
                    "time": 68.431222,
                    "velocity": 0.47244094488188976,
                    "duration": 0.06535933333333332
                },
                {
                    "name": "A3",
                    "midi": 57,
                    "time": 68.823378,
                    "velocity": 0.47244094488188976,
                    "duration": 0.06535933333333332
                },
                {
                    "name": "C4",
                    "midi": 60,
                    "time": 68.823378,
                    "velocity": 0.47244094488188976,
                    "duration": 0.06535933333333332
                },
                {
                    "name": "D4",
                    "midi": 62,
                    "time": 68.823378,
                    "velocity": 0.47244094488188976,
                    "duration": 0.06535933333333332
                },
                {
                    "name": "F#4",
                    "midi": 66,
                    "time": 68.823378,
                    "velocity": 0.47244094488188976,
                    "duration": 0.06535933333333332
                },
                {
                    "name": "B3",
                    "midi": 59,
                    "time": 69.215534,
                    "velocity": 0.47244094488188976,
                    "duration": 0.06535933333333332
                },
                {
                    "name": "D4",
                    "midi": 62,
                    "time": 69.215534,
                    "velocity": 0.47244094488188976,
                    "duration": 0.06535933333333332
                },
                {
                    "name": "G4",
                    "midi": 67,
                    "time": 69.215534,
                    "velocity": 0.47244094488188976,
                    "duration": 0.06535933333333332
                },
                {
                    "name": "C4",
                    "midi": 60,
                    "time": 69.60769,
                    "velocity": 0.47244094488188976,
                    "duration": 0.06535933333333332
                },
                {
                    "name": "D4",
                    "midi": 62,
                    "time": 69.60769,
                    "velocity": 0.47244094488188976,
                    "duration": 0.06535933333333332
                },
                {
                    "name": "F#4",
                    "midi": 66,
                    "time": 69.60769,
                    "velocity": 0.47244094488188976,
                    "duration": 0.06535933333333332
                },
                {
                    "name": "A4",
                    "midi": 69,
                    "time": 69.60769,
                    "velocity": 0.47244094488188976,
                    "duration": 0.06535933333333332
                },
                {
                    "name": "B3",
                    "midi": 59,
                    "time": 69.999846,
                    "velocity": 0.47244094488188976,
                    "duration": 0.06535933333333332
                },
                {
                    "name": "D4",
                    "midi": 62,
                    "time": 69.999846,
                    "velocity": 0.47244094488188976,
                    "duration": 0.06535933333333332
                },
                {
                    "name": "G4",
                    "midi": 67,
                    "time": 69.999846,
                    "velocity": 0.47244094488188976,
                    "duration": 0.06535933333333332
                },
                {
                    "name": "C4",
                    "midi": 60,
                    "time": 70.392002,
                    "velocity": 0.47244094488188976,
                    "duration": 0.06535933333333332
                },
                {
                    "name": "D4",
                    "midi": 62,
                    "time": 70.392002,
                    "velocity": 0.47244094488188976,
                    "duration": 0.06535933333333332
                },
                {
                    "name": "F#4",
                    "midi": 66,
                    "time": 70.392002,
                    "velocity": 0.47244094488188976,
                    "duration": 0.06535933333333332
                },
                {
                    "name": "A4",
                    "midi": 69,
                    "time": 70.392002,
                    "velocity": 0.47244094488188976,
                    "duration": 0.06535933333333332
                },
                {
                    "name": "B3",
                    "midi": 59,
                    "time": 70.58808,
                    "velocity": 0.47244094488188976,
                    "duration": 0.06535933333333332
                },
                {
                    "name": "D4",
                    "midi": 62,
                    "time": 70.58808,
                    "velocity": 0.47244094488188976,
                    "duration": 0.06535933333333332
                },
                {
                    "name": "G4",
                    "midi": 67,
                    "time": 70.58808,
                    "velocity": 0.47244094488188976,
                    "duration": 0.06535933333333332
                },
                {
                    "name": "B3",
                    "midi": 59,
                    "time": 70.784158,
                    "velocity": 0.47244094488188976,
                    "duration": 0.06535933333333332
                },
                {
                    "name": "D4",
                    "midi": 62,
                    "time": 70.784158,
                    "velocity": 0.47244094488188976,
                    "duration": 0.06535933333333332
                },
                {
                    "name": "G4",
                    "midi": 67,
                    "time": 70.784158,
                    "velocity": 0.47244094488188976,
                    "duration": 0.06535933333333332
                },
                {
                    "name": "C4",
                    "midi": 60,
                    "time": 72.156704,
                    "velocity": 0.47244094488188976,
                    "duration": 0.3267966666666666
                },
                {
                    "name": "F4",
                    "midi": 65,
                    "time": 72.156704,
                    "velocity": 0.47244094488188976,
                    "duration": 0.3267966666666666
                },
                {
                    "name": "A4",
                    "midi": 69,
                    "time": 72.156704,
                    "velocity": 0.47244094488188976,
                    "duration": 0.3267966666666666
                },
                {
                    "name": "C5",
                    "midi": 72,
                    "time": 72.156704,
                    "velocity": 0.47244094488188976,
                    "duration": 0.3267966666666666
                },
                {
                    "name": "F5",
                    "midi": 77,
                    "time": 72.156704,
                    "velocity": 0.47244094488188976,
                    "duration": 0.3267966666666666
                },
                {
                    "name": "A5",
                    "midi": 81,
                    "time": 72.156704,
                    "velocity": 0.47244094488188976,
                    "duration": 0.3267966666666666
                },
                {
                    "name": "D4",
                    "midi": 62,
                    "time": 73.725328,
                    "velocity": 0.47244094488188976,
                    "duration": 0.3267966666666666
                },
                {
                    "name": "F4",
                    "midi": 65,
                    "time": 73.725328,
                    "velocity": 0.47244094488188976,
                    "duration": 0.3267966666666666
                },
                {
                    "name": "A4",
                    "midi": 69,
                    "time": 73.725328,
                    "velocity": 0.47244094488188976,
                    "duration": 0.3267966666666666
                },
                {
                    "name": "D5",
                    "midi": 74,
                    "time": 73.725328,
                    "velocity": 0.47244094488188976,
                    "duration": 0.3267966666666666
                },
                {
                    "name": "F5",
                    "midi": 77,
                    "time": 73.725328,
                    "velocity": 0.47244094488188976,
                    "duration": 0.3267966666666666
                },
                {
                    "name": "A5",
                    "midi": 81,
                    "time": 73.725328,
                    "velocity": 0.47244094488188976,
                    "duration": 0.3267966666666666
                },
                {
                    "name": "E4",
                    "midi": 64,
                    "time": 75.293952,
                    "velocity": 0.47244094488188976,
                    "duration": 0.3267966666666666
                },
                {
                    "name": "G#4",
                    "midi": 68,
                    "time": 75.293952,
                    "velocity": 0.47244094488188976,
                    "duration": 0.3267966666666666
                },
                {
                    "name": "B4",
                    "midi": 71,
                    "time": 75.293952,
                    "velocity": 0.47244094488188976,
                    "duration": 0.3267966666666666
                },
                {
                    "name": "E5",
                    "midi": 76,
                    "time": 75.293952,
                    "velocity": 0.47244094488188976,
                    "duration": 0.3267966666666666
                },
                {
                    "name": "G#5",
                    "midi": 80,
                    "time": 75.293952,
                    "velocity": 0.47244094488188976,
                    "duration": 0.3267966666666666
                },
                {
                    "name": "A3",
                    "midi": 57,
                    "time": 77.842966,
                    "velocity": 0.47244094488188976,
                    "duration": 0.06535933333333332
                },
                {
                    "name": "C4",
                    "midi": 60,
                    "time": 77.842966,
                    "velocity": 0.47244094488188976,
                    "duration": 0.06535933333333332
                },
                {
                    "name": "E4",
                    "midi": 64,
                    "time": 77.842966,
                    "velocity": 0.47244094488188976,
                    "duration": 0.06535933333333332
                },
                {
                    "name": "A3",
                    "midi": 57,
                    "time": 78.235122,
                    "velocity": 0.47244094488188976,
                    "duration": 0.06535933333333332
                },
                {
                    "name": "C4",
                    "midi": 60,
                    "time": 78.235122,
                    "velocity": 0.47244094488188976,
                    "duration": 0.06535933333333332
                },
                {
                    "name": "E4",
                    "midi": 64,
                    "time": 78.235122,
                    "velocity": 0.47244094488188976,
                    "duration": 0.06535933333333332
                },
                {
                    "name": "G#3",
                    "midi": 56,
                    "time": 78.627278,
                    "velocity": 0.47244094488188976,
                    "duration": 0.06535933333333332
                },
                {
                    "name": "B3",
                    "midi": 59,
                    "time": 78.627278,
                    "velocity": 0.47244094488188976,
                    "duration": 0.06535933333333332
                },
                {
                    "name": "E4",
                    "midi": 64,
                    "time": 78.627278,
                    "velocity": 0.47244094488188976,
                    "duration": 0.06535933333333332
                },
                {
                    "name": "G#3",
                    "midi": 56,
                    "time": 79.019434,
                    "velocity": 0.47244094488188976,
                    "duration": 0.06535933333333332
                },
                {
                    "name": "B3",
                    "midi": 59,
                    "time": 79.019434,
                    "velocity": 0.47244094488188976,
                    "duration": 0.06535933333333332
                },
                {
                    "name": "E4",
                    "midi": 64,
                    "time": 79.019434,
                    "velocity": 0.47244094488188976,
                    "duration": 0.06535933333333332
                },
                {
                    "name": "G#3",
                    "midi": 56,
                    "time": 79.41159,
                    "velocity": 0.47244094488188976,
                    "duration": 0.06535933333333332
                },
                {
                    "name": "B3",
                    "midi": 59,
                    "time": 79.41159,
                    "velocity": 0.47244094488188976,
                    "duration": 0.06535933333333332
                },
                {
                    "name": "E4",
                    "midi": 64,
                    "time": 79.41159,
                    "velocity": 0.47244094488188976,
                    "duration": 0.06535933333333332
                },
                {
                    "name": "G#3",
                    "midi": 56,
                    "time": 79.803746,
                    "velocity": 0.47244094488188976,
                    "duration": 0.06535933333333332
                },
                {
                    "name": "B3",
                    "midi": 59,
                    "time": 79.803746,
                    "velocity": 0.47244094488188976,
                    "duration": 0.06535933333333332
                },
                {
                    "name": "E4",
                    "midi": 64,
                    "time": 79.803746,
                    "velocity": 0.47244094488188976,
                    "duration": 0.06535933333333332
                },
                {
                    "name": "A3",
                    "midi": 57,
                    "time": 80.195902,
                    "velocity": 0.47244094488188976,
                    "duration": 0.06535933333333332
                },
                {
                    "name": "C4",
                    "midi": 60,
                    "time": 80.195902,
                    "velocity": 0.47244094488188976,
                    "duration": 0.06535933333333332
                },
                {
                    "name": "E4",
                    "midi": 64,
                    "time": 80.195902,
                    "velocity": 0.47244094488188976,
                    "duration": 0.06535933333333332
                },
                {
                    "name": "A3",
                    "midi": 57,
                    "time": 80.588058,
                    "velocity": 0.47244094488188976,
                    "duration": 0.06535933333333332
                },
                {
                    "name": "C4",
                    "midi": 60,
                    "time": 80.588058,
                    "velocity": 0.47244094488188976,
                    "duration": 0.06535933333333332
                },
                {
                    "name": "E4",
                    "midi": 64,
                    "time": 80.588058,
                    "velocity": 0.47244094488188976,
                    "duration": 0.06535933333333332
                },
                {
                    "name": "G3",
                    "midi": 55,
                    "time": 80.980214,
                    "velocity": 0.47244094488188976,
                    "duration": 0.06535933333333332
                },
                {
                    "name": "C4",
                    "midi": 60,
                    "time": 80.980214,
                    "velocity": 0.47244094488188976,
                    "duration": 0.06535933333333332
                },
                {
                    "name": "E4",
                    "midi": 64,
                    "time": 80.980214,
                    "velocity": 0.47244094488188976,
                    "duration": 0.06535933333333332
                },
                {
                    "name": "G3",
                    "midi": 55,
                    "time": 81.37237,
                    "velocity": 0.47244094488188976,
                    "duration": 0.06535933333333332
                },
                {
                    "name": "C4",
                    "midi": 60,
                    "time": 81.37237,
                    "velocity": 0.47244094488188976,
                    "duration": 0.06535933333333332
                },
                {
                    "name": "E4",
                    "midi": 64,
                    "time": 81.37237,
                    "velocity": 0.47244094488188976,
                    "duration": 0.06535933333333332
                },
                {
                    "name": "B3",
                    "midi": 59,
                    "time": 81.764526,
                    "velocity": 0.47244094488188976,
                    "duration": 0.06535933333333332
                },
                {
                    "name": "D4",
                    "midi": 62,
                    "time": 81.764526,
                    "velocity": 0.47244094488188976,
                    "duration": 0.06535933333333332
                },
                {
                    "name": "F4",
                    "midi": 65,
                    "time": 81.764526,
                    "velocity": 0.47244094488188976,
                    "duration": 0.06535933333333332
                },
                {
                    "name": "B3",
                    "midi": 59,
                    "time": 82.156682,
                    "velocity": 0.47244094488188976,
                    "duration": 0.06535933333333332
                },
                {
                    "name": "D4",
                    "midi": 62,
                    "time": 82.156682,
                    "velocity": 0.47244094488188976,
                    "duration": 0.06535933333333332
                },
                {
                    "name": "F4",
                    "midi": 65,
                    "time": 82.156682,
                    "velocity": 0.47244094488188976,
                    "duration": 0.06535933333333332
                },
                {
                    "name": "B3",
                    "midi": 59,
                    "time": 82.548838,
                    "velocity": 0.47244094488188976,
                    "duration": 0.06535933333333332
                },
                {
                    "name": "D4",
                    "midi": 62,
                    "time": 82.548838,
                    "velocity": 0.47244094488188976,
                    "duration": 0.06535933333333332
                },
                {
                    "name": "F4",
                    "midi": 65,
                    "time": 82.548838,
                    "velocity": 0.47244094488188976,
                    "duration": 0.06535933333333332
                },
                {
                    "name": "B3",
                    "midi": 59,
                    "time": 82.940994,
                    "velocity": 0.47244094488188976,
                    "duration": 0.06535933333333332
                },
                {
                    "name": "D4",
                    "midi": 62,
                    "time": 82.940994,
                    "velocity": 0.47244094488188976,
                    "duration": 0.06535933333333332
                },
                {
                    "name": "F4",
                    "midi": 65,
                    "time": 82.940994,
                    "velocity": 0.47244094488188976,
                    "duration": 0.06535933333333332
                },
                {
                    "name": "C4",
                    "midi": 60,
                    "time": 83.33315,
                    "velocity": 0.47244094488188976,
                    "duration": 0.06535933333333332
                },
                {
                    "name": "E4",
                    "midi": 64,
                    "time": 83.33315,
                    "velocity": 0.47244094488188976,
                    "duration": 0.06535933333333332
                },
                {
                    "name": "G4",
                    "midi": 67,
                    "time": 83.33315,
                    "velocity": 0.47244094488188976,
                    "duration": 0.06535933333333332
                },
                {
                    "name": "C4",
                    "midi": 60,
                    "time": 83.725306,
                    "velocity": 0.47244094488188976,
                    "duration": 0.06535933333333332
                },
                {
                    "name": "E4",
                    "midi": 64,
                    "time": 83.725306,
                    "velocity": 0.47244094488188976,
                    "duration": 0.06535933333333332
                },
                {
                    "name": "G4",
                    "midi": 67,
                    "time": 83.725306,
                    "velocity": 0.47244094488188976,
                    "duration": 0.06535933333333332
                },
                {
                    "name": "B3",
                    "midi": 59,
                    "time": 84.117462,
                    "velocity": 0.47244094488188976,
                    "duration": 0.06535933333333332
                },
                {
                    "name": "E4",
                    "midi": 64,
                    "time": 84.117462,
                    "velocity": 0.47244094488188976,
                    "duration": 0.06535933333333332
                },
                {
                    "name": "G4",
                    "midi": 67,
                    "time": 84.117462,
                    "velocity": 0.47244094488188976,
                    "duration": 0.06535933333333332
                },
                {
                    "name": "B3",
                    "midi": 59,
                    "time": 84.509618,
                    "velocity": 0.47244094488188976,
                    "duration": 0.06535933333333332
                },
                {
                    "name": "E4",
                    "midi": 64,
                    "time": 84.509618,
                    "velocity": 0.47244094488188976,
                    "duration": 0.06535933333333332
                },
                {
                    "name": "G4",
                    "midi": 67,
                    "time": 84.509618,
                    "velocity": 0.47244094488188976,
                    "duration": 0.06535933333333332
                },
                {
                    "name": "B3",
                    "midi": 59,
                    "time": 84.901774,
                    "velocity": 0.47244094488188976,
                    "duration": 0.06535933333333332
                },
                {
                    "name": "D#4",
                    "midi": 63,
                    "time": 84.901774,
                    "velocity": 0.47244094488188976,
                    "duration": 0.06535933333333332
                },
                {
                    "name": "F#4",
                    "midi": 66,
                    "time": 84.901774,
                    "velocity": 0.47244094488188976,
                    "duration": 0.06535933333333332
                },
                {
                    "name": "B3",
                    "midi": 59,
                    "time": 85.29393,
                    "velocity": 0.47244094488188976,
                    "duration": 0.06535933333333332
                },
                {
                    "name": "D#4",
                    "midi": 63,
                    "time": 85.29393,
                    "velocity": 0.47244094488188976,
                    "duration": 0.06535933333333332
                },
                {
                    "name": "F#4",
                    "midi": 66,
                    "time": 85.29393,
                    "velocity": 0.47244094488188976,
                    "duration": 0.06535933333333332
                },
                {
                    "name": "B3",
                    "midi": 59,
                    "time": 85.686086,
                    "velocity": 0.47244094488188976,
                    "duration": 0.06535933333333332
                },
                {
                    "name": "D#4",
                    "midi": 63,
                    "time": 85.686086,
                    "velocity": 0.47244094488188976,
                    "duration": 0.06535933333333332
                },
                {
                    "name": "F#4",
                    "midi": 66,
                    "time": 85.686086,
                    "velocity": 0.47244094488188976,
                    "duration": 0.06535933333333332
                },
                {
                    "name": "B3",
                    "midi": 59,
                    "time": 86.078242,
                    "velocity": 0.47244094488188976,
                    "duration": 0.06535933333333332
                },
                {
                    "name": "D#4",
                    "midi": 63,
                    "time": 86.078242,
                    "velocity": 0.47244094488188976,
                    "duration": 0.06535933333333332
                },
                {
                    "name": "F#4",
                    "midi": 66,
                    "time": 86.078242,
                    "velocity": 0.47244094488188976,
                    "duration": 0.06535933333333332
                },
                {
                    "name": "B3",
                    "midi": 59,
                    "time": 86.470398,
                    "velocity": 0.47244094488188976,
                    "duration": 0.06535933333333332
                },
                {
                    "name": "E4",
                    "midi": 64,
                    "time": 86.470398,
                    "velocity": 0.47244094488188976,
                    "duration": 0.06535933333333332
                },
                {
                    "name": "G4",
                    "midi": 67,
                    "time": 86.470398,
                    "velocity": 0.47244094488188976,
                    "duration": 0.06535933333333332
                },
                {
                    "name": "B3",
                    "midi": 59,
                    "time": 86.862554,
                    "velocity": 0.47244094488188976,
                    "duration": 0.06535933333333332
                },
                {
                    "name": "E4",
                    "midi": 64,
                    "time": 86.862554,
                    "velocity": 0.47244094488188976,
                    "duration": 0.06535933333333332
                },
                {
                    "name": "G4",
                    "midi": 67,
                    "time": 86.862554,
                    "velocity": 0.47244094488188976,
                    "duration": 0.06535933333333332
                },
                {
                    "name": "A3",
                    "midi": 57,
                    "time": 87.25471,
                    "velocity": 0.47244094488188976,
                    "duration": 0.06535933333333332
                },
                {
                    "name": "C4",
                    "midi": 60,
                    "time": 87.25471,
                    "velocity": 0.47244094488188976,
                    "duration": 0.06535933333333332
                },
                {
                    "name": "E4",
                    "midi": 64,
                    "time": 87.25471,
                    "velocity": 0.47244094488188976,
                    "duration": 0.06535933333333332
                },
                {
                    "name": "A3",
                    "midi": 57,
                    "time": 87.646866,
                    "velocity": 0.47244094488188976,
                    "duration": 0.06535933333333332
                },
                {
                    "name": "C4",
                    "midi": 60,
                    "time": 87.646866,
                    "velocity": 0.47244094488188976,
                    "duration": 0.06535933333333332
                },
                {
                    "name": "E4",
                    "midi": 64,
                    "time": 87.646866,
                    "velocity": 0.47244094488188976,
                    "duration": 0.06535933333333332
                },
                {
                    "name": "G3",
                    "midi": 55,
                    "time": 88.039022,
                    "velocity": 0.47244094488188976,
                    "duration": 0.06535933333333332
                },
                {
                    "name": "B3",
                    "midi": 59,
                    "time": 88.039022,
                    "velocity": 0.47244094488188976,
                    "duration": 0.06535933333333332
                },
                {
                    "name": "E4",
                    "midi": 64,
                    "time": 88.039022,
                    "velocity": 0.47244094488188976,
                    "duration": 0.06535933333333332
                },
                {
                    "name": "G3",
                    "midi": 55,
                    "time": 88.431178,
                    "velocity": 0.47244094488188976,
                    "duration": 0.06535933333333332
                },
                {
                    "name": "B3",
                    "midi": 59,
                    "time": 88.431178,
                    "velocity": 0.47244094488188976,
                    "duration": 0.06535933333333332
                },
                {
                    "name": "E4",
                    "midi": 64,
                    "time": 88.431178,
                    "velocity": 0.47244094488188976,
                    "duration": 0.06535933333333332
                },
                {
                    "name": "B3",
                    "midi": 59,
                    "time": 88.823334,
                    "velocity": 0.47244094488188976,
                    "duration": 0.06535933333333332
                },
                {
                    "name": "D#4",
                    "midi": 63,
                    "time": 88.823334,
                    "velocity": 0.47244094488188976,
                    "duration": 0.06535933333333332
                },
                {
                    "name": "F#4",
                    "midi": 66,
                    "time": 88.823334,
                    "velocity": 0.47244094488188976,
                    "duration": 0.06535933333333332
                },
                {
                    "name": "B3",
                    "midi": 59,
                    "time": 89.21549,
                    "velocity": 0.47244094488188976,
                    "duration": 0.06535933333333332
                },
                {
                    "name": "D#4",
                    "midi": 63,
                    "time": 89.21549,
                    "velocity": 0.47244094488188976,
                    "duration": 0.06535933333333332
                },
                {
                    "name": "F#4",
                    "midi": 66,
                    "time": 89.21549,
                    "velocity": 0.47244094488188976,
                    "duration": 0.06535933333333332
                },
                {
                    "name": "B3",
                    "midi": 59,
                    "time": 89.607646,
                    "velocity": 0.47244094488188976,
                    "duration": 0.06535933333333332
                },
                {
                    "name": "E4",
                    "midi": 64,
                    "time": 89.607646,
                    "velocity": 0.47244094488188976,
                    "duration": 0.06535933333333332
                },
                {
                    "name": "G#4",
                    "midi": 68,
                    "time": 89.607646,
                    "velocity": 0.47244094488188976,
                    "duration": 0.06535933333333332
                },
                {
                    "name": "B3",
                    "midi": 59,
                    "time": 89.999802,
                    "velocity": 0.47244094488188976,
                    "duration": 0.06535933333333332
                },
                {
                    "name": "E4",
                    "midi": 64,
                    "time": 89.999802,
                    "velocity": 0.47244094488188976,
                    "duration": 0.06535933333333332
                },
                {
                    "name": "G#4",
                    "midi": 68,
                    "time": 89.999802,
                    "velocity": 0.47244094488188976,
                    "duration": 0.06535933333333332
                },
                {
                    "name": "C#4",
                    "midi": 61,
                    "time": 90.391958,
                    "velocity": 0.47244094488188976,
                    "duration": 0.06535933333333332
                },
                {
                    "name": "E4",
                    "midi": 64,
                    "time": 90.391958,
                    "velocity": 0.47244094488188976,
                    "duration": 0.06535933333333332
                },
                {
                    "name": "G4",
                    "midi": 67,
                    "time": 90.391958,
                    "velocity": 0.47244094488188976,
                    "duration": 0.06535933333333332
                },
                {
                    "name": "C#4",
                    "midi": 61,
                    "time": 90.784114,
                    "velocity": 0.47244094488188976,
                    "duration": 0.06535933333333332
                },
                {
                    "name": "E4",
                    "midi": 64,
                    "time": 90.784114,
                    "velocity": 0.47244094488188976,
                    "duration": 0.06535933333333332
                },
                {
                    "name": "G4",
                    "midi": 67,
                    "time": 90.784114,
                    "velocity": 0.47244094488188976,
                    "duration": 0.06535933333333332
                },
                {
                    "name": "A3",
                    "midi": 57,
                    "time": 91.17627,
                    "velocity": 0.47244094488188976,
                    "duration": 0.06535933333333332
                },
                {
                    "name": "D4",
                    "midi": 62,
                    "time": 91.17627,
                    "velocity": 0.47244094488188976,
                    "duration": 0.06535933333333332
                },
                {
                    "name": "F#4",
                    "midi": 66,
                    "time": 91.17627,
                    "velocity": 0.47244094488188976,
                    "duration": 0.06535933333333332
                },
                {
                    "name": "A3",
                    "midi": 57,
                    "time": 91.568426,
                    "velocity": 0.47244094488188976,
                    "duration": 0.06535933333333332
                },
                {
                    "name": "D4",
                    "midi": 62,
                    "time": 91.568426,
                    "velocity": 0.47244094488188976,
                    "duration": 0.06535933333333332
                },
                {
                    "name": "F#4",
                    "midi": 66,
                    "time": 91.568426,
                    "velocity": 0.47244094488188976,
                    "duration": 0.06535933333333332
                },
                {
                    "name": "B3",
                    "midi": 59,
                    "time": 91.960582,
                    "velocity": 0.47244094488188976,
                    "duration": 0.06535933333333332
                },
                {
                    "name": "D4",
                    "midi": 62,
                    "time": 91.960582,
                    "velocity": 0.47244094488188976,
                    "duration": 0.06535933333333332
                },
                {
                    "name": "F4",
                    "midi": 65,
                    "time": 91.960582,
                    "velocity": 0.47244094488188976,
                    "duration": 0.06535933333333332
                },
                {
                    "name": "B3",
                    "midi": 59,
                    "time": 92.352738,
                    "velocity": 0.47244094488188976,
                    "duration": 0.06535933333333332
                },
                {
                    "name": "D4",
                    "midi": 62,
                    "time": 92.352738,
                    "velocity": 0.47244094488188976,
                    "duration": 0.06535933333333332
                },
                {
                    "name": "F4",
                    "midi": 65,
                    "time": 92.352738,
                    "velocity": 0.47244094488188976,
                    "duration": 0.06535933333333332
                },
                {
                    "name": "G3",
                    "midi": 55,
                    "time": 92.744894,
                    "velocity": 0.47244094488188976,
                    "duration": 0.06535933333333332
                },
                {
                    "name": "A#3",
                    "midi": 58,
                    "time": 92.744894,
                    "velocity": 0.47244094488188976,
                    "duration": 0.06535933333333332
                },
                {
                    "name": "E4",
                    "midi": 64,
                    "time": 92.744894,
                    "velocity": 0.47244094488188976,
                    "duration": 0.06535933333333332
                },
                {
                    "name": "G3",
                    "midi": 55,
                    "time": 93.13705,
                    "velocity": 0.47244094488188976,
                    "duration": 0.06535933333333332
                },
                {
                    "name": "A#3",
                    "midi": 58,
                    "time": 93.13705,
                    "velocity": 0.47244094488188976,
                    "duration": 0.06535933333333332
                },
                {
                    "name": "E4",
                    "midi": 64,
                    "time": 93.13705,
                    "velocity": 0.47244094488188976,
                    "duration": 0.06535933333333332
                },
                {
                    "name": "A3",
                    "midi": 57,
                    "time": 93.529206,
                    "velocity": 0.47244094488188976,
                    "duration": 0.06535933333333332
                },
                {
                    "name": "C4",
                    "midi": 60,
                    "time": 93.529206,
                    "velocity": 0.47244094488188976,
                    "duration": 0.06535933333333332
                },
                {
                    "name": "F4",
                    "midi": 65,
                    "time": 93.529206,
                    "velocity": 0.47244094488188976,
                    "duration": 0.06535933333333332
                },
                {
                    "name": "A3",
                    "midi": 57,
                    "time": 93.921362,
                    "velocity": 0.47244094488188976,
                    "duration": 0.06535933333333332
                },
                {
                    "name": "C4",
                    "midi": 60,
                    "time": 93.921362,
                    "velocity": 0.47244094488188976,
                    "duration": 0.06535933333333332
                },
                {
                    "name": "F4",
                    "midi": 65,
                    "time": 93.921362,
                    "velocity": 0.47244094488188976,
                    "duration": 0.06535933333333332
                },
                {
                    "name": "A#3",
                    "midi": 58,
                    "time": 94.313518,
                    "velocity": 0.47244094488188976,
                    "duration": 0.06535933333333332
                },
                {
                    "name": "D4",
                    "midi": 62,
                    "time": 94.313518,
                    "velocity": 0.47244094488188976,
                    "duration": 0.06535933333333332
                },
                {
                    "name": "F4",
                    "midi": 65,
                    "time": 94.313518,
                    "velocity": 0.47244094488188976,
                    "duration": 0.06535933333333332
                },
                {
                    "name": "A#3",
                    "midi": 58,
                    "time": 94.705674,
                    "velocity": 0.47244094488188976,
                    "duration": 0.06535933333333332
                },
                {
                    "name": "D4",
                    "midi": 62,
                    "time": 94.705674,
                    "velocity": 0.47244094488188976,
                    "duration": 0.06535933333333332
                },
                {
                    "name": "F4",
                    "midi": 65,
                    "time": 94.705674,
                    "velocity": 0.47244094488188976,
                    "duration": 0.06535933333333332
                },
                {
                    "name": "C4",
                    "midi": 60,
                    "time": 94.901752,
                    "velocity": 0.47244094488188976,
                    "duration": 0.39215599999999995
                },
                {
                    "name": "F4",
                    "midi": 65,
                    "time": 94.901752,
                    "velocity": 0.47244094488188976,
                    "duration": 0.39215599999999995
                },
                {
                    "name": "A4",
                    "midi": 69,
                    "time": 94.901752,
                    "velocity": 0.47244094488188976,
                    "duration": 0.39215599999999995
                },
                {
                    "name": "C5",
                    "midi": 72,
                    "time": 94.901752,
                    "velocity": 0.47244094488188976,
                    "duration": 0.39215599999999995
                },
                {
                    "name": "A#3",
                    "midi": 58,
                    "time": 95.293908,
                    "velocity": 0.47244094488188976,
                    "duration": 0.39215599999999995
                },
                {
                    "name": "E4",
                    "midi": 64,
                    "time": 95.293908,
                    "velocity": 0.47244094488188976,
                    "duration": 0.39215599999999995
                },
                {
                    "name": "G4",
                    "midi": 67,
                    "time": 95.293908,
                    "velocity": 0.47244094488188976,
                    "duration": 0.39215599999999995
                },
                {
                    "name": "A#4",
                    "midi": 70,
                    "time": 95.293908,
                    "velocity": 0.47244094488188976,
                    "duration": 0.39215599999999995
                },
                {
                    "name": "A3",
                    "midi": 57,
                    "time": 95.686064,
                    "velocity": 0.47244094488188976,
                    "duration": 0.1919930416666631
                },
                {
                    "name": "C4",
                    "midi": 60,
                    "time": 95.686064,
                    "velocity": 0.47244094488188976,
                    "duration": 0.1919930416666631
                },
                {
                    "name": "F4",
                    "midi": 65,
                    "time": 95.686064,
                    "velocity": 0.47244094488188976,
                    "duration": 0.1919930416666631
                },
                {
                    "name": "A4",
                    "midi": 69,
                    "time": 95.686064,
                    "velocity": 0.47244094488188976,
                    "duration": 0.1919930416666631
                },
                {
                    "name": "A3",
                    "midi": 57,
                    "time": 96.470376,
                    "velocity": 0.47244094488188976,
                    "duration": 0.7843119999999999
                },
                {
                    "name": "C4",
                    "midi": 60,
                    "time": 96.470376,
                    "velocity": 0.47244094488188976,
                    "duration": 0.7843119999999999
                },
                {
                    "name": "F4",
                    "midi": 65,
                    "time": 96.470376,
                    "velocity": 0.47244094488188976,
                    "duration": 0.7843119999999999
                },
                {
                    "name": "A4",
                    "midi": 69,
                    "time": 96.470376,
                    "velocity": 0.47244094488188976,
                    "duration": 0.7843119999999999
                },
                {
                    "name": "C5",
                    "midi": 72,
                    "time": 96.470376,
                    "velocity": 0.47244094488188976,
                    "duration": 0.7843119999999999
                },
                {
                    "name": "F5",
                    "midi": 77,
                    "time": 96.470376,
                    "velocity": 0.47244094488188976,
                    "duration": 0.7843119999999999
                },
                {
                    "name": "A#3",
                    "midi": 58,
                    "time": 97.254688,
                    "velocity": 0.47244094488188976,
                    "duration": 0.7843119999999999
                },
                {
                    "name": "C4",
                    "midi": 60,
                    "time": 97.254688,
                    "velocity": 0.47244094488188976,
                    "duration": 0.7843119999999999
                },
                {
                    "name": "E4",
                    "midi": 64,
                    "time": 97.254688,
                    "velocity": 0.47244094488188976,
                    "duration": 0.7843119999999999
                },
                {
                    "name": "G4",
                    "midi": 67,
                    "time": 97.254688,
                    "velocity": 0.47244094488188976,
                    "duration": 0.7843119999999999
                },
                {
                    "name": "A#4",
                    "midi": 70,
                    "time": 97.254688,
                    "velocity": 0.47244094488188976,
                    "duration": 0.7843119999999999
                },
                {
                    "name": "E5",
                    "midi": 76,
                    "time": 97.254688,
                    "velocity": 0.47244094488188976,
                    "duration": 0.7843119999999999
                },
                {
                    "name": "A#3",
                    "midi": 58,
                    "time": 98.039,
                    "velocity": 0.47244094488188976,
                    "duration": 0.7843119999999999
                },
                {
                    "name": "C4",
                    "midi": 60,
                    "time": 98.039,
                    "velocity": 0.47244094488188976,
                    "duration": 0.7843119999999999
                },
                {
                    "name": "E4",
                    "midi": 64,
                    "time": 98.039,
                    "velocity": 0.47244094488188976,
                    "duration": 0.7843119999999999
                },
                {
                    "name": "G4",
                    "midi": 67,
                    "time": 98.039,
                    "velocity": 0.47244094488188976,
                    "duration": 0.7843119999999999
                },
                {
                    "name": "A#4",
                    "midi": 70,
                    "time": 98.039,
                    "velocity": 0.47244094488188976,
                    "duration": 0.7843119999999999
                },
                {
                    "name": "E5",
                    "midi": 76,
                    "time": 98.039,
                    "velocity": 0.47244094488188976,
                    "duration": 0.7843119999999999
                },
                {
                    "name": "A3",
                    "midi": 57,
                    "time": 98.823312,
                    "velocity": 0.47244094488188976,
                    "duration": 0.7843119999999999
                },
                {
                    "name": "C4",
                    "midi": 60,
                    "time": 98.823312,
                    "velocity": 0.47244094488188976,
                    "duration": 0.7843119999999999
                },
                {
                    "name": "F4",
                    "midi": 65,
                    "time": 98.823312,
                    "velocity": 0.47244094488188976,
                    "duration": 0.7843119999999999
                },
                {
                    "name": "A4",
                    "midi": 69,
                    "time": 98.823312,
                    "velocity": 0.47244094488188976,
                    "duration": 0.7843119999999999
                },
                {
                    "name": "C5",
                    "midi": 72,
                    "time": 98.823312,
                    "velocity": 0.47244094488188976,
                    "duration": 0.7843119999999999
                },
                {
                    "name": "F5",
                    "midi": 77,
                    "time": 98.823312,
                    "velocity": 0.47244094488188976,
                    "duration": 0.7843119999999999
                },
                {
                    "name": "A3",
                    "midi": 57,
                    "time": 99.607624,
                    "velocity": 0.47244094488188976,
                    "duration": 0.7843119999999999
                },
                {
                    "name": "C4",
                    "midi": 60,
                    "time": 99.607624,
                    "velocity": 0.47244094488188976,
                    "duration": 0.7843119999999999
                },
                {
                    "name": "F4",
                    "midi": 65,
                    "time": 99.607624,
                    "velocity": 0.47244094488188976,
                    "duration": 0.7843119999999999
                },
                {
                    "name": "A4",
                    "midi": 69,
                    "time": 99.607624,
                    "velocity": 0.47244094488188976,
                    "duration": 0.7843119999999999
                },
                {
                    "name": "C5",
                    "midi": 72,
                    "time": 99.607624,
                    "velocity": 0.47244094488188976,
                    "duration": 0.7843119999999999
                },
                {
                    "name": "F5",
                    "midi": 77,
                    "time": 99.607624,
                    "velocity": 0.47244094488188976,
                    "duration": 0.7843119999999999
                },
                {
                    "name": "A#3",
                    "midi": 58,
                    "time": 100.391936,
                    "velocity": 0.47244094488188976,
                    "duration": 0.7843119999999999
                },
                {
                    "name": "C4",
                    "midi": 60,
                    "time": 100.391936,
                    "velocity": 0.47244094488188976,
                    "duration": 0.7843119999999999
                },
                {
                    "name": "E4",
                    "midi": 64,
                    "time": 100.391936,
                    "velocity": 0.47244094488188976,
                    "duration": 0.7843119999999999
                },
                {
                    "name": "G4",
                    "midi": 67,
                    "time": 100.391936,
                    "velocity": 0.47244094488188976,
                    "duration": 0.7843119999999999
                },
                {
                    "name": "A#4",
                    "midi": 70,
                    "time": 100.391936,
                    "velocity": 0.47244094488188976,
                    "duration": 0.7843119999999999
                },
                {
                    "name": "E5",
                    "midi": 76,
                    "time": 100.391936,
                    "velocity": 0.47244094488188976,
                    "duration": 0.7843119999999999
                },
                {
                    "name": "A#3",
                    "midi": 58,
                    "time": 101.176248,
                    "velocity": 0.47244094488188976,
                    "duration": 0.7843119999999999
                },
                {
                    "name": "C4",
                    "midi": 60,
                    "time": 101.176248,
                    "velocity": 0.47244094488188976,
                    "duration": 0.7843119999999999
                },
                {
                    "name": "E4",
                    "midi": 64,
                    "time": 101.176248,
                    "velocity": 0.47244094488188976,
                    "duration": 0.7843119999999999
                },
                {
                    "name": "G4",
                    "midi": 67,
                    "time": 101.176248,
                    "velocity": 0.47244094488188976,
                    "duration": 0.7843119999999999
                },
                {
                    "name": "A#4",
                    "midi": 70,
                    "time": 101.176248,
                    "velocity": 0.47244094488188976,
                    "duration": 0.7843119999999999
                },
                {
                    "name": "E5",
                    "midi": 76,
                    "time": 101.176248,
                    "velocity": 0.47244094488188976,
                    "duration": 0.7843119999999999
                },
                {
                    "name": "A3",
                    "midi": 57,
                    "time": 101.96056,
                    "velocity": 0.47244094488188976,
                    "duration": 0.7843119999999999
                },
                {
                    "name": "C4",
                    "midi": 60,
                    "time": 101.96056,
                    "velocity": 0.47244094488188976,
                    "duration": 0.7843119999999999
                },
                {
                    "name": "F4",
                    "midi": 65,
                    "time": 101.96056,
                    "velocity": 0.47244094488188976,
                    "duration": 0.7843119999999999
                },
                {
                    "name": "A4",
                    "midi": 69,
                    "time": 101.96056,
                    "velocity": 0.47244094488188976,
                    "duration": 0.7843119999999999
                },
                {
                    "name": "C5",
                    "midi": 72,
                    "time": 101.96056,
                    "velocity": 0.47244094488188976,
                    "duration": 0.7843119999999999
                },
                {
                    "name": "F5",
                    "midi": 77,
                    "time": 101.96056,
                    "velocity": 0.47244094488188976,
                    "duration": 0.7843119999999999
                },
                {
                    "name": "A3",
                    "midi": 57,
                    "time": 102.744872,
                    "velocity": 0.47244094488188976,
                    "duration": 0.7843119999999999
                },
                {
                    "name": "D4",
                    "midi": 62,
                    "time": 102.744872,
                    "velocity": 0.47244094488188976,
                    "duration": 0.7843119999999999
                },
                {
                    "name": "F4",
                    "midi": 65,
                    "time": 102.744872,
                    "velocity": 0.47244094488188976,
                    "duration": 0.7843119999999999
                },
                {
                    "name": "A4",
                    "midi": 69,
                    "time": 102.744872,
                    "velocity": 0.47244094488188976,
                    "duration": 0.7843119999999999
                },
                {
                    "name": "C5",
                    "midi": 72,
                    "time": 102.744872,
                    "velocity": 0.47244094488188976,
                    "duration": 0.7843119999999999
                },
                {
                    "name": "F5",
                    "midi": 77,
                    "time": 102.744872,
                    "velocity": 0.47244094488188976,
                    "duration": 0.7843119999999999
                },
                {
                    "name": "A3",
                    "midi": 57,
                    "time": 103.529184,
                    "velocity": 0.47244094488188976,
                    "duration": 0.7843119999999999
                },
                {
                    "name": "C#4",
                    "midi": 61,
                    "time": 103.529184,
                    "velocity": 0.47244094488188976,
                    "duration": 0.7843119999999999
                },
                {
                    "name": "E4",
                    "midi": 64,
                    "time": 103.529184,
                    "velocity": 0.47244094488188976,
                    "duration": 0.7843119999999999
                },
                {
                    "name": "G4",
                    "midi": 67,
                    "time": 103.529184,
                    "velocity": 0.47244094488188976,
                    "duration": 0.7843119999999999
                },
                {
                    "name": "C#5",
                    "midi": 73,
                    "time": 103.529184,
                    "velocity": 0.47244094488188976,
                    "duration": 0.7843119999999999
                },
                {
                    "name": "E5",
                    "midi": 76,
                    "time": 103.529184,
                    "velocity": 0.47244094488188976,
                    "duration": 0.7843119999999999
                },
                {
                    "name": "A3",
                    "midi": 57,
                    "time": 104.313496,
                    "velocity": 0.47244094488188976,
                    "duration": 0.7843119999999999
                },
                {
                    "name": "D4",
                    "midi": 62,
                    "time": 104.313496,
                    "velocity": 0.47244094488188976,
                    "duration": 0.7843119999999999
                },
                {
                    "name": "F4",
                    "midi": 65,
                    "time": 104.313496,
                    "velocity": 0.47244094488188976,
                    "duration": 0.7843119999999999
                },
                {
                    "name": "A4",
                    "midi": 69,
                    "time": 104.313496,
                    "velocity": 0.47244094488188976,
                    "duration": 0.7843119999999999
                },
                {
                    "name": "D5",
                    "midi": 74,
                    "time": 104.313496,
                    "velocity": 0.47244094488188976,
                    "duration": 0.7843119999999999
                },
                {
                    "name": "F5",
                    "midi": 77,
                    "time": 104.313496,
                    "velocity": 0.47244094488188976,
                    "duration": 0.7843119999999999
                },
                {
                    "name": "G#3",
                    "midi": 56,
                    "time": 105.097808,
                    "velocity": 0.47244094488188976,
                    "duration": 0.7843119999999999
                },
                {
                    "name": "A3",
                    "midi": 57,
                    "time": 105.097808,
                    "velocity": 0.47244094488188976,
                    "duration": 0.7843119999999999
                },
                {
                    "name": "C4",
                    "midi": 60,
                    "time": 105.097808,
                    "velocity": 0.47244094488188976,
                    "duration": 0.7843119999999999
                },
                {
                    "name": "E4",
                    "midi": 64,
                    "time": 105.097808,
                    "velocity": 0.47244094488188976,
                    "duration": 0.7843119999999999
                },
                {
                    "name": "A4",
                    "midi": 69,
                    "time": 105.097808,
                    "velocity": 0.47244094488188976,
                    "duration": 0.7843119999999999
                },
                {
                    "name": "C5",
                    "midi": 72,
                    "time": 105.097808,
                    "velocity": 0.47244094488188976,
                    "duration": 0.7843119999999999
                },
                {
                    "name": "E5",
                    "midi": 76,
                    "time": 105.097808,
                    "velocity": 0.47244094488188976,
                    "duration": 0.7843119999999999
                },
                {
                    "name": "E3",
                    "midi": 52,
                    "time": 105.88212,
                    "velocity": 0.47244094488188976,
                    "duration": 0.39215599999999995
                },
                {
                    "name": "A3",
                    "midi": 57,
                    "time": 105.88212,
                    "velocity": 0.47244094488188976,
                    "duration": 0.39215599999999995
                },
                {
                    "name": "C4",
                    "midi": 60,
                    "time": 105.88212,
                    "velocity": 0.47244094488188976,
                    "duration": 0.39215599999999995
                },
                {
                    "name": "E4",
                    "midi": 64,
                    "time": 105.88212,
                    "velocity": 0.47244094488188976,
                    "duration": 0.39215599999999995
                },
                {
                    "name": "A4",
                    "midi": 69,
                    "time": 105.88212,
                    "velocity": 0.47244094488188976,
                    "duration": 0.39215599999999995
                },
                {
                    "name": "C5",
                    "midi": 72,
                    "time": 105.88212,
                    "velocity": 0.47244094488188976,
                    "duration": 0.39215599999999995
                },
                {
                    "name": "E5",
                    "midi": 76,
                    "time": 105.88212,
                    "velocity": 0.47244094488188976,
                    "duration": 0.39215599999999995
                },
                {
                    "name": "E3",
                    "midi": 52,
                    "time": 106.274276,
                    "velocity": 0.47244094488188976,
                    "duration": 0.39215599999999995
                },
                {
                    "name": "G#3",
                    "midi": 56,
                    "time": 106.274276,
                    "velocity": 0.47244094488188976,
                    "duration": 0.39215599999999995
                },
                {
                    "name": "B3",
                    "midi": 59,
                    "time": 106.274276,
                    "velocity": 0.47244094488188976,
                    "duration": 0.39215599999999995
                },
                {
                    "name": "E4",
                    "midi": 64,
                    "time": 106.274276,
                    "velocity": 0.47244094488188976,
                    "duration": 0.39215599999999995
                },
                {
                    "name": "G#4",
                    "midi": 68,
                    "time": 106.274276,
                    "velocity": 0.47244094488188976,
                    "duration": 0.39215599999999995
                },
                {
                    "name": "B4",
                    "midi": 71,
                    "time": 106.274276,
                    "velocity": 0.47244094488188976,
                    "duration": 0.39215599999999995
                },
                {
                    "name": "E5",
                    "midi": 76,
                    "time": 106.274276,
                    "velocity": 0.47244094488188976,
                    "duration": 0.39215599999999995
                },
                {
                    "name": "E3",
                    "midi": 52,
                    "time": 106.666432,
                    "velocity": 0.47244094488188976,
                    "duration": 0.39215599999999995
                },
                {
                    "name": "A3",
                    "midi": 57,
                    "time": 106.666432,
                    "velocity": 0.47244094488188976,
                    "duration": 0.39215599999999995
                },
                {
                    "name": "C4",
                    "midi": 60,
                    "time": 106.666432,
                    "velocity": 0.47244094488188976,
                    "duration": 0.39215599999999995
                },
                {
                    "name": "A4",
                    "midi": 69,
                    "time": 106.666432,
                    "velocity": 0.47244094488188976,
                    "duration": 0.39215599999999995
                },
                {
                    "name": "C5",
                    "midi": 72,
                    "time": 106.666432,
                    "velocity": 0.47244094488188976,
                    "duration": 0.39215599999999995
                },
                {
                    "name": "E5",
                    "midi": 76,
                    "time": 106.666432,
                    "velocity": 0.47244094488188976,
                    "duration": 0.39215599999999995
                },
                {
                    "name": "A3",
                    "midi": 57,
                    "time": 107.058588,
                    "velocity": 0.47244094488188976,
                    "duration": 0.39215599999999995
                },
                {
                    "name": "C#4",
                    "midi": 61,
                    "time": 107.058588,
                    "velocity": 0.47244094488188976,
                    "duration": 0.39215599999999995
                },
                {
                    "name": "A4",
                    "midi": 69,
                    "time": 107.058588,
                    "velocity": 0.47244094488188976,
                    "duration": 0.39215599999999995
                },
                {
                    "name": "C#5",
                    "midi": 73,
                    "time": 107.058588,
                    "velocity": 0.47244094488188976,
                    "duration": 0.39215599999999995
                },
                {
                    "name": "F#3",
                    "midi": 54,
                    "time": 107.450744,
                    "velocity": 0.47244094488188976,
                    "duration": 0.39215599999999995
                },
                {
                    "name": "A3",
                    "midi": 57,
                    "time": 107.450744,
                    "velocity": 0.47244094488188976,
                    "duration": 0.39215599999999995
                },
                {
                    "name": "D4",
                    "midi": 62,
                    "time": 107.450744,
                    "velocity": 0.47244094488188976,
                    "duration": 0.39215599999999995
                },
                {
                    "name": "A4",
                    "midi": 69,
                    "time": 107.450744,
                    "velocity": 0.47244094488188976,
                    "duration": 0.39215599999999995
                },
                {
                    "name": "F#5",
                    "midi": 78,
                    "time": 107.450744,
                    "velocity": 0.47244094488188976,
                    "duration": 0.39215599999999995
                },
                {
                    "name": "F3",
                    "midi": 53,
                    "time": 107.8429,
                    "velocity": 0.47244094488188976,
                    "duration": 0.39215599999999995
                },
                {
                    "name": "A3",
                    "midi": 57,
                    "time": 107.8429,
                    "velocity": 0.47244094488188976,
                    "duration": 0.39215599999999995
                },
                {
                    "name": "D#4",
                    "midi": 63,
                    "time": 107.8429,
                    "velocity": 0.47244094488188976,
                    "duration": 0.39215599999999995
                },
                {
                    "name": "A4",
                    "midi": 69,
                    "time": 107.8429,
                    "velocity": 0.47244094488188976,
                    "duration": 0.39215599999999995
                },
                {
                    "name": "F5",
                    "midi": 77,
                    "time": 107.8429,
                    "velocity": 0.47244094488188976,
                    "duration": 0.39215599999999995
                },
                {
                    "name": "G#3",
                    "midi": 56,
                    "time": 108.235056,
                    "velocity": 0.47244094488188976,
                    "duration": 0.06535933333333332
                },
                {
                    "name": "B3",
                    "midi": 59,
                    "time": 108.235056,
                    "velocity": 0.47244094488188976,
                    "duration": 0.06535933333333332
                },
                {
                    "name": "E4",
                    "midi": 64,
                    "time": 108.235056,
                    "velocity": 0.47244094488188976,
                    "duration": 0.06535933333333332
                },
                {
                    "name": "G#4",
                    "midi": 68,
                    "time": 108.235056,
                    "velocity": 0.47244094488188976,
                    "duration": 0.06535933333333332
                },
                {
                    "name": "G#5",
                    "midi": 80,
                    "time": 108.235056,
                    "velocity": 0.47244094488188976,
                    "duration": 0.06535933333333332
                },
                {
                    "name": "G#3",
                    "midi": 56,
                    "time": 109.019368,
                    "velocity": 0.47244094488188976,
                    "duration": 0.06535933333333332
                },
                {
                    "name": "B3",
                    "midi": 59,
                    "time": 109.019368,
                    "velocity": 0.47244094488188976,
                    "duration": 0.06535933333333332
                },
                {
                    "name": "E4",
                    "midi": 64,
                    "time": 109.019368,
                    "velocity": 0.47244094488188976,
                    "duration": 0.06535933333333332
                },
                {
                    "name": "G#3",
                    "midi": 56,
                    "time": 109.411524,
                    "velocity": 0.47244094488188976,
                    "duration": 0.06535933333333332
                },
                {
                    "name": "B3",
                    "midi": 59,
                    "time": 109.411524,
                    "velocity": 0.47244094488188976,
                    "duration": 0.06535933333333332
                },
                {
                    "name": "E4",
                    "midi": 64,
                    "time": 109.411524,
                    "velocity": 0.47244094488188976,
                    "duration": 0.06535933333333332
                },
                {
                    "name": "A3",
                    "midi": 57,
                    "time": 109.80368,
                    "velocity": 0.47244094488188976,
                    "duration": 0.06535933333333332
                },
                {
                    "name": "C4",
                    "midi": 60,
                    "time": 109.80368,
                    "velocity": 0.47244094488188976,
                    "duration": 0.06535933333333332
                },
                {
                    "name": "E4",
                    "midi": 64,
                    "time": 109.80368,
                    "velocity": 0.47244094488188976,
                    "duration": 0.06535933333333332
                },
                {
                    "name": "A3",
                    "midi": 57,
                    "time": 110.587992,
                    "velocity": 0.47244094488188976,
                    "duration": 0.06535933333333332
                },
                {
                    "name": "C4",
                    "midi": 60,
                    "time": 110.587992,
                    "velocity": 0.47244094488188976,
                    "duration": 0.06535933333333332
                },
                {
                    "name": "E4",
                    "midi": 64,
                    "time": 110.587992,
                    "velocity": 0.47244094488188976,
                    "duration": 0.06535933333333332
                },
                {
                    "name": "G#3",
                    "midi": 56,
                    "time": 111.372304,
                    "velocity": 0.47244094488188976,
                    "duration": 0.06535933333333332
                },
                {
                    "name": "B3",
                    "midi": 59,
                    "time": 111.372304,
                    "velocity": 0.47244094488188976,
                    "duration": 0.06535933333333332
                },
                {
                    "name": "E4",
                    "midi": 64,
                    "time": 111.372304,
                    "velocity": 0.47244094488188976,
                    "duration": 0.06535933333333332
                },
                {
                    "name": "B3",
                    "midi": 59,
                    "time": 112.156616,
                    "velocity": 0.47244094488188976,
                    "duration": 0.06535933333333332
                },
                {
                    "name": "E4",
                    "midi": 64,
                    "time": 112.156616,
                    "velocity": 0.47244094488188976,
                    "duration": 0.06535933333333332
                },
                {
                    "name": "G#4",
                    "midi": 68,
                    "time": 112.156616,
                    "velocity": 0.47244094488188976,
                    "duration": 0.06535933333333332
                },
                {
                    "name": "B3",
                    "midi": 59,
                    "time": 112.548772,
                    "velocity": 0.47244094488188976,
                    "duration": 0.06535933333333332
                },
                {
                    "name": "E4",
                    "midi": 64,
                    "time": 112.548772,
                    "velocity": 0.47244094488188976,
                    "duration": 0.06535933333333332
                },
                {
                    "name": "G#4",
                    "midi": 68,
                    "time": 112.548772,
                    "velocity": 0.47244094488188976,
                    "duration": 0.06535933333333332
                },
                {
                    "name": "C4",
                    "midi": 60,
                    "time": 112.940928,
                    "velocity": 0.47244094488188976,
                    "duration": 0.06535933333333332
                },
                {
                    "name": "E4",
                    "midi": 64,
                    "time": 112.940928,
                    "velocity": 0.47244094488188976,
                    "duration": 0.06535933333333332
                },
                {
                    "name": "A4",
                    "midi": 69,
                    "time": 112.940928,
                    "velocity": 0.47244094488188976,
                    "duration": 0.06535933333333332
                },
                {
                    "name": "C4",
                    "midi": 60,
                    "time": 113.72524,
                    "velocity": 0.47244094488188976,
                    "duration": 0.06535933333333332
                },
                {
                    "name": "E4",
                    "midi": 64,
                    "time": 113.72524,
                    "velocity": 0.47244094488188976,
                    "duration": 0.06535933333333332
                },
                {
                    "name": "A4",
                    "midi": 69,
                    "time": 113.72524,
                    "velocity": 0.47244094488188976,
                    "duration": 0.06535933333333332
                },
                {
                    "name": "E4",
                    "midi": 64,
                    "time": 114.509552,
                    "velocity": 0.47244094488188976,
                    "duration": 0.39215599999999995
                },
                {
                    "name": "G#4",
                    "midi": 68,
                    "time": 114.509552,
                    "velocity": 0.47244094488188976,
                    "duration": 0.39215599999999995
                },
                {
                    "name": "B4",
                    "midi": 71,
                    "time": 114.509552,
                    "velocity": 0.47244094488188976,
                    "duration": 0.39215599999999995
                },
                {
                    "name": "E4",
                    "midi": 64,
                    "time": 114.901708,
                    "velocity": 0.47244094488188976,
                    "duration": 0.39215599999999995
                },
                {
                    "name": "G#4",
                    "midi": 68,
                    "time": 114.901708,
                    "velocity": 0.47244094488188976,
                    "duration": 0.39215599999999995
                },
                {
                    "name": "B4",
                    "midi": 71,
                    "time": 114.901708,
                    "velocity": 0.47244094488188976,
                    "duration": 0.39215599999999995
                },
                {
                    "name": "E4",
                    "midi": 64,
                    "time": 115.293864,
                    "velocity": 0.47244094488188976,
                    "duration": 0.39215599999999995
                },
                {
                    "name": "A4",
                    "midi": 69,
                    "time": 115.293864,
                    "velocity": 0.47244094488188976,
                    "duration": 0.39215599999999995
                },
                {
                    "name": "C5",
                    "midi": 72,
                    "time": 115.293864,
                    "velocity": 0.47244094488188976,
                    "duration": 0.39215599999999995
                },
                {
                    "name": "E4",
                    "midi": 64,
                    "time": 115.68602,
                    "velocity": 0.47244094488188976,
                    "duration": 0.39215599999999995
                },
                {
                    "name": "G#4",
                    "midi": 68,
                    "time": 115.68602,
                    "velocity": 0.47244094488188976,
                    "duration": 0.39215599999999995
                },
                {
                    "name": "B4",
                    "midi": 71,
                    "time": 115.68602,
                    "velocity": 0.47244094488188976,
                    "duration": 0.39215599999999995
                },
                {
                    "name": "E4",
                    "midi": 64,
                    "time": 116.078176,
                    "velocity": 0.47244094488188976,
                    "duration": 0.39215599999999995
                },
                {
                    "name": "A4",
                    "midi": 69,
                    "time": 116.078176,
                    "velocity": 0.47244094488188976,
                    "duration": 0.39215599999999995
                },
                {
                    "name": "C5",
                    "midi": 72,
                    "time": 116.078176,
                    "velocity": 0.47244094488188976,
                    "duration": 0.39215599999999995
                },
                {
                    "name": "E4",
                    "midi": 64,
                    "time": 116.470332,
                    "velocity": 0.47244094488188976,
                    "duration": 0.39215599999999995
                },
                {
                    "name": "A4",
                    "midi": 69,
                    "time": 116.470332,
                    "velocity": 0.47244094488188976,
                    "duration": 0.39215599999999995
                },
                {
                    "name": "C#5",
                    "midi": 73,
                    "time": 116.470332,
                    "velocity": 0.47244094488188976,
                    "duration": 0.39215599999999995
                },
                {
                    "name": "F4",
                    "midi": 65,
                    "time": 116.862488,
                    "velocity": 0.47244094488188976,
                    "duration": 0.39215599999999995
                },
                {
                    "name": "A4",
                    "midi": 69,
                    "time": 116.862488,
                    "velocity": 0.47244094488188976,
                    "duration": 0.39215599999999995
                },
                {
                    "name": "D5",
                    "midi": 74,
                    "time": 116.862488,
                    "velocity": 0.47244094488188976,
                    "duration": 0.39215599999999995
                },
                {
                    "name": "A4",
                    "midi": 69,
                    "time": 117.254644,
                    "velocity": 0.47244094488188976,
                    "duration": 0.39215599999999995
                },
                {
                    "name": "C5",
                    "midi": 72,
                    "time": 117.254644,
                    "velocity": 0.47244094488188976,
                    "duration": 0.39215599999999995
                },
                {
                    "name": "E5",
                    "midi": 76,
                    "time": 117.254644,
                    "velocity": 0.47244094488188976,
                    "duration": 0.39215599999999995
                },
                {
                    "name": "A4",
                    "midi": 69,
                    "time": 117.6468,
                    "velocity": 0.47244094488188976,
                    "duration": 0.1919930416666631
                },
                {
                    "name": "D5",
                    "midi": 74,
                    "time": 117.6468,
                    "velocity": 0.47244094488188976,
                    "duration": 0.1919930416666631
                },
                {
                    "name": "F5",
                    "midi": 77,
                    "time": 117.6468,
                    "velocity": 0.47244094488188976,
                    "duration": 0.1919930416666631
                },
                {
                    "name": "A#4",
                    "midi": 70,
                    "time": 118.431112,
                    "velocity": 0.47244094488188976,
                    "duration": 0.3267966666666666
                },
                {
                    "name": "D5",
                    "midi": 74,
                    "time": 118.431112,
                    "velocity": 0.47244094488188976,
                    "duration": 0.3267966666666666
                },
                {
                    "name": "F5",
                    "midi": 77,
                    "time": 118.431112,
                    "velocity": 0.47244094488188976,
                    "duration": 0.3267966666666666
                },
                {
                    "name": "A4",
                    "midi": 69,
                    "time": 119.215424,
                    "velocity": 0.47244094488188976,
                    "duration": 0.3267966666666666
                },
                {
                    "name": "C5",
                    "midi": 72,
                    "time": 119.215424,
                    "velocity": 0.47244094488188976,
                    "duration": 0.3267966666666666
                },
                {
                    "name": "E5",
                    "midi": 76,
                    "time": 119.215424,
                    "velocity": 0.47244094488188976,
                    "duration": 0.3267966666666666
                },
                {
                    "name": "B4",
                    "midi": 71,
                    "time": 119.999736,
                    "velocity": 0.47244094488188976,
                    "duration": 0.3267966666666666
                },
                {
                    "name": "D5",
                    "midi": 74,
                    "time": 119.999736,
                    "velocity": 0.47244094488188976,
                    "duration": 0.3267966666666666
                },
                {
                    "name": "E5",
                    "midi": 76,
                    "time": 119.999736,
                    "velocity": 0.47244094488188976,
                    "duration": 0.3267966666666666
                },
                {
                    "name": "G#5",
                    "midi": 80,
                    "time": 119.999736,
                    "velocity": 0.47244094488188976,
                    "duration": 0.3267966666666666
                },
                {
                    "name": "E5",
                    "midi": 76,
                    "time": 120.784048,
                    "velocity": 0.5905511811023622,
                    "duration": 0.39215599999999995
                },
                {
                    "name": "C6",
                    "midi": 84,
                    "time": 120.784048,
                    "velocity": 0.5905511811023622,
                    "duration": 0.39215599999999995
                },
                {
                    "name": "E6",
                    "midi": 88,
                    "time": 120.784048,
                    "velocity": 0.5905511811023622,
                    "duration": 0.39215599999999995
                },
                {
                    "name": "A6",
                    "midi": 93,
                    "time": 120.784048,
                    "velocity": 0.5905511811023622,
                    "duration": 0.39215599999999995
                },
                {
                    "name": "E5",
                    "midi": 76,
                    "time": 121.176204,
                    "velocity": 0.5905511811023622,
                    "duration": 0.39215599999999995
                },
                {
                    "name": "A5",
                    "midi": 81,
                    "time": 121.176204,
                    "velocity": 0.5905511811023622,
                    "duration": 0.39215599999999995
                },
                {
                    "name": "C#6",
                    "midi": 85,
                    "time": 121.176204,
                    "velocity": 0.5905511811023622,
                    "duration": 0.39215599999999995
                },
                {
                    "name": "E6",
                    "midi": 88,
                    "time": 121.176204,
                    "velocity": 0.5905511811023622,
                    "duration": 0.39215599999999995
                },
                {
                    "name": "G6",
                    "midi": 91,
                    "time": 121.176204,
                    "velocity": 0.5905511811023622,
                    "duration": 0.39215599999999995
                },
                {
                    "name": "D5",
                    "midi": 74,
                    "time": 121.56836,
                    "velocity": 0.5905511811023622,
                    "duration": 0.39215599999999995
                },
                {
                    "name": "A5",
                    "midi": 81,
                    "time": 121.56836,
                    "velocity": 0.5905511811023622,
                    "duration": 0.39215599999999995
                },
                {
                    "name": "D6",
                    "midi": 86,
                    "time": 121.56836,
                    "velocity": 0.5905511811023622,
                    "duration": 0.39215599999999995
                },
                {
                    "name": "F6",
                    "midi": 89,
                    "time": 121.56836,
                    "velocity": 0.5905511811023622,
                    "duration": 0.39215599999999995
                },
                {
                    "name": "C#5",
                    "midi": 73,
                    "time": 121.960516,
                    "velocity": 0.5905511811023622,
                    "duration": 0.39215599999999995
                },
                {
                    "name": "G5",
                    "midi": 79,
                    "time": 121.960516,
                    "velocity": 0.5905511811023622,
                    "duration": 0.39215599999999995
                },
                {
                    "name": "C#6",
                    "midi": 85,
                    "time": 121.960516,
                    "velocity": 0.5905511811023622,
                    "duration": 0.39215599999999995
                },
                {
                    "name": "E6",
                    "midi": 88,
                    "time": 121.960516,
                    "velocity": 0.5905511811023622,
                    "duration": 0.39215599999999995
                },
                {
                    "name": "A4",
                    "midi": 69,
                    "time": 122.352672,
                    "velocity": 0.5905511811023622,
                    "duration": 0.39215599999999995
                },
                {
                    "name": "F5",
                    "midi": 77,
                    "time": 122.352672,
                    "velocity": 0.5905511811023622,
                    "duration": 0.39215599999999995
                },
                {
                    "name": "A5",
                    "midi": 81,
                    "time": 122.352672,
                    "velocity": 0.5905511811023622,
                    "duration": 0.39215599999999995
                },
                {
                    "name": "D6",
                    "midi": 86,
                    "time": 122.352672,
                    "velocity": 0.5905511811023622,
                    "duration": 0.39215599999999995
                },
                {
                    "name": "B4",
                    "midi": 71,
                    "time": 122.744828,
                    "velocity": 0.5905511811023622,
                    "duration": 0.39215599999999995
                },
                {
                    "name": "D5",
                    "midi": 74,
                    "time": 122.744828,
                    "velocity": 0.5905511811023622,
                    "duration": 0.39215599999999995
                },
                {
                    "name": "G5",
                    "midi": 79,
                    "time": 122.744828,
                    "velocity": 0.5905511811023622,
                    "duration": 0.39215599999999995
                },
                {
                    "name": "B5",
                    "midi": 83,
                    "time": 122.744828,
                    "velocity": 0.5905511811023622,
                    "duration": 0.39215599999999995
                },
                {
                    "name": "D6",
                    "midi": 86,
                    "time": 122.744828,
                    "velocity": 0.5905511811023622,
                    "duration": 0.39215599999999995
                },
                {
                    "name": "G4",
                    "midi": 67,
                    "time": 123.136984,
                    "velocity": 0.5905511811023622,
                    "duration": 0.39215599999999995
                },
                {
                    "name": "C5",
                    "midi": 72,
                    "time": 123.136984,
                    "velocity": 0.5905511811023622,
                    "duration": 0.39215599999999995
                },
                {
                    "name": "G5",
                    "midi": 79,
                    "time": 123.136984,
                    "velocity": 0.5905511811023622,
                    "duration": 0.39215599999999995
                },
                {
                    "name": "C6",
                    "midi": 84,
                    "time": 123.136984,
                    "velocity": 0.5905511811023622,
                    "duration": 0.39215599999999995
                },
                {
                    "name": "G4",
                    "midi": 67,
                    "time": 123.52914,
                    "velocity": 0.5905511811023622,
                    "duration": 0.39215599999999995
                },
                {
                    "name": "B4",
                    "midi": 71,
                    "time": 123.52914,
                    "velocity": 0.5905511811023622,
                    "duration": 0.39215599999999995
                },
                {
                    "name": "F5",
                    "midi": 77,
                    "time": 123.52914,
                    "velocity": 0.5905511811023622,
                    "duration": 0.39215599999999995
                },
                {
                    "name": "G5",
                    "midi": 79,
                    "time": 123.52914,
                    "velocity": 0.5905511811023622,
                    "duration": 0.39215599999999995
                },
                {
                    "name": "B5",
                    "midi": 83,
                    "time": 123.52914,
                    "velocity": 0.5905511811023622,
                    "duration": 0.39215599999999995
                },
                {
                    "name": "D6",
                    "midi": 86,
                    "time": 123.52914,
                    "velocity": 0.5905511811023622,
                    "duration": 0.39215599999999995
                },
                {
                    "name": "G4",
                    "midi": 67,
                    "time": 123.921296,
                    "velocity": 0.5905511811023622,
                    "duration": 0.39215599999999995
                },
                {
                    "name": "E5",
                    "midi": 76,
                    "time": 123.921296,
                    "velocity": 0.5905511811023622,
                    "duration": 0.39215599999999995
                },
                {
                    "name": "G5",
                    "midi": 79,
                    "time": 123.921296,
                    "velocity": 0.5905511811023622,
                    "duration": 0.39215599999999995
                },
                {
                    "name": "C6",
                    "midi": 84,
                    "time": 123.921296,
                    "velocity": 0.5905511811023622,
                    "duration": 0.39215599999999995
                },
                {
                    "name": "G4",
                    "midi": 67,
                    "time": 124.313452,
                    "velocity": 0.5905511811023622,
                    "duration": 0.39215599999999995
                },
                {
                    "name": "B4",
                    "midi": 71,
                    "time": 124.313452,
                    "velocity": 0.5905511811023622,
                    "duration": 0.39215599999999995
                },
                {
                    "name": "G5",
                    "midi": 79,
                    "time": 124.313452,
                    "velocity": 0.5905511811023622,
                    "duration": 0.39215599999999995
                },
                {
                    "name": "B5",
                    "midi": 83,
                    "time": 124.313452,
                    "velocity": 0.5905511811023622,
                    "duration": 0.39215599999999995
                },
                {
                    "name": "D4",
                    "midi": 62,
                    "time": 124.705608,
                    "velocity": 0.5905511811023622,
                    "duration": 0.39215599999999995
                },
                {
                    "name": "E4",
                    "midi": 64,
                    "time": 124.705608,
                    "velocity": 0.5905511811023622,
                    "duration": 0.39215599999999995
                },
                {
                    "name": "G#4",
                    "midi": 68,
                    "time": 124.705608,
                    "velocity": 0.5905511811023622,
                    "duration": 0.39215599999999995
                },
                {
                    "name": "B4",
                    "midi": 71,
                    "time": 124.705608,
                    "velocity": 0.5905511811023622,
                    "duration": 0.39215599999999995
                },
                {
                    "name": "E5",
                    "midi": 76,
                    "time": 124.705608,
                    "velocity": 0.5905511811023622,
                    "duration": 0.39215599999999995
                },
                {
                    "name": "G#5",
                    "midi": 80,
                    "time": 124.705608,
                    "velocity": 0.5905511811023622,
                    "duration": 0.39215599999999995
                },
                {
                    "name": "B5",
                    "midi": 83,
                    "time": 124.705608,
                    "velocity": 0.5905511811023622,
                    "duration": 0.39215599999999995
                },
                {
                    "name": "C4",
                    "midi": 60,
                    "time": 125.097764,
                    "velocity": 0.5905511811023622,
                    "duration": 0.39215599999999995
                },
                {
                    "name": "E4",
                    "midi": 64,
                    "time": 125.097764,
                    "velocity": 0.5905511811023622,
                    "duration": 0.39215599999999995
                },
                {
                    "name": "A4",
                    "midi": 69,
                    "time": 125.097764,
                    "velocity": 0.5905511811023622,
                    "duration": 0.39215599999999995
                },
                {
                    "name": "B3",
                    "midi": 59,
                    "time": 125.48992,
                    "velocity": 0.5905511811023622,
                    "duration": 0.39215599999999995
                },
                {
                    "name": "E4",
                    "midi": 64,
                    "time": 125.48992,
                    "velocity": 0.5905511811023622,
                    "duration": 0.39215599999999995
                },
                {
                    "name": "G#4",
                    "midi": 68,
                    "time": 125.48992,
                    "velocity": 0.5905511811023622,
                    "duration": 0.39215599999999995
                },
                {
                    "name": "E4",
                    "midi": 64,
                    "time": 125.882076,
                    "velocity": 0.5905511811023622,
                    "duration": 0.39215599999999995
                },
                {
                    "name": "G4",
                    "midi": 67,
                    "time": 125.882076,
                    "velocity": 0.5905511811023622,
                    "duration": 0.39215599999999995
                },
                {
                    "name": "C5",
                    "midi": 72,
                    "time": 125.882076,
                    "velocity": 0.5905511811023622,
                    "duration": 0.39215599999999995
                },
                {
                    "name": "D4",
                    "midi": 62,
                    "time": 126.274232,
                    "velocity": 0.5905511811023622,
                    "duration": 0.39215599999999995
                },
                {
                    "name": "E4",
                    "midi": 64,
                    "time": 126.274232,
                    "velocity": 0.5905511811023622,
                    "duration": 0.39215599999999995
                },
                {
                    "name": "G#4",
                    "midi": 68,
                    "time": 126.274232,
                    "velocity": 0.5905511811023622,
                    "duration": 0.39215599999999995
                },
                {
                    "name": "B4",
                    "midi": 71,
                    "time": 126.274232,
                    "velocity": 0.5905511811023622,
                    "duration": 0.39215599999999995
                },
                {
                    "name": "C4",
                    "midi": 60,
                    "time": 126.666388,
                    "velocity": 0.5905511811023622,
                    "duration": 0.39215599999999995
                },
                {
                    "name": "E4",
                    "midi": 64,
                    "time": 126.666388,
                    "velocity": 0.5905511811023622,
                    "duration": 0.39215599999999995
                },
                {
                    "name": "A4",
                    "midi": 69,
                    "time": 126.666388,
                    "velocity": 0.5905511811023622,
                    "duration": 0.39215599999999995
                },
                {
                    "name": "B3",
                    "midi": 59,
                    "time": 127.058544,
                    "velocity": 0.5905511811023622,
                    "duration": 0.1919930416666631
                },
                {
                    "name": "E4",
                    "midi": 64,
                    "time": 127.058544,
                    "velocity": 0.5905511811023622,
                    "duration": 0.1919930416666631
                },
                {
                    "name": "G#4",
                    "midi": 68,
                    "time": 127.058544,
                    "velocity": 0.5905511811023622,
                    "duration": 0.1919930416666631
                },
                {
                    "name": "G#3",
                    "midi": 56,
                    "time": 127.646778,
                    "velocity": 0.47244094488188976,
                    "duration": 0.06535933333333332
                },
                {
                    "name": "B3",
                    "midi": 59,
                    "time": 127.646778,
                    "velocity": 0.47244094488188976,
                    "duration": 0.06535933333333332
                },
                {
                    "name": "D4",
                    "midi": 62,
                    "time": 127.646778,
                    "velocity": 0.47244094488188976,
                    "duration": 0.06535933333333332
                },
                {
                    "name": "A3",
                    "midi": 57,
                    "time": 128.038934,
                    "velocity": 0.47244094488188976,
                    "duration": 0.06535933333333332
                },
                {
                    "name": "C4",
                    "midi": 60,
                    "time": 128.038934,
                    "velocity": 0.47244094488188976,
                    "duration": 0.06535933333333332
                },
                {
                    "name": "E4",
                    "midi": 64,
                    "time": 128.038934,
                    "velocity": 0.47244094488188976,
                    "duration": 0.06535933333333332
                },
                {
                    "name": "G#3",
                    "midi": 56,
                    "time": 128.43109,
                    "velocity": 0.47244094488188976,
                    "duration": 0.06535933333333332
                },
                {
                    "name": "B3",
                    "midi": 59,
                    "time": 128.43109,
                    "velocity": 0.47244094488188976,
                    "duration": 0.06535933333333332
                },
                {
                    "name": "E4",
                    "midi": 64,
                    "time": 128.43109,
                    "velocity": 0.47244094488188976,
                    "duration": 0.06535933333333332
                },
                {
                    "name": "A3",
                    "midi": 57,
                    "time": 128.823246,
                    "velocity": 0.47244094488188976,
                    "duration": 0.06535933333333332
                },
                {
                    "name": "C4",
                    "midi": 60,
                    "time": 128.823246,
                    "velocity": 0.47244094488188976,
                    "duration": 0.06535933333333332
                },
                {
                    "name": "E4",
                    "midi": 64,
                    "time": 128.823246,
                    "velocity": 0.47244094488188976,
                    "duration": 0.06535933333333332
                },
                {
                    "name": "A3",
                    "midi": 57,
                    "time": 129.215402,
                    "velocity": 0.47244094488188976,
                    "duration": 0.06535933333333332
                },
                {
                    "name": "C#4",
                    "midi": 61,
                    "time": 129.215402,
                    "velocity": 0.47244094488188976,
                    "duration": 0.06535933333333332
                },
                {
                    "name": "E4",
                    "midi": 64,
                    "time": 129.215402,
                    "velocity": 0.47244094488188976,
                    "duration": 0.06535933333333332
                },
                {
                    "name": "A3",
                    "midi": 57,
                    "time": 129.607558,
                    "velocity": 0.47244094488188976,
                    "duration": 0.06535933333333332
                },
                {
                    "name": "D4",
                    "midi": 62,
                    "time": 129.607558,
                    "velocity": 0.47244094488188976,
                    "duration": 0.06535933333333332
                },
                {
                    "name": "F4",
                    "midi": 65,
                    "time": 129.607558,
                    "velocity": 0.47244094488188976,
                    "duration": 0.06535933333333332
                },
                {
                    "name": "A3",
                    "midi": 57,
                    "time": 129.999714,
                    "velocity": 0.47244094488188976,
                    "duration": 0.06535933333333332
                },
                {
                    "name": "C4",
                    "midi": 60,
                    "time": 129.999714,
                    "velocity": 0.47244094488188976,
                    "duration": 0.06535933333333332
                },
                {
                    "name": "E4",
                    "midi": 64,
                    "time": 129.999714,
                    "velocity": 0.47244094488188976,
                    "duration": 0.06535933333333332
                },
                {
                    "name": "A3",
                    "midi": 57,
                    "time": 130.195792,
                    "velocity": 0.47244094488188976,
                    "duration": 0.06535933333333332
                },
                {
                    "name": "D4",
                    "midi": 62,
                    "time": 130.195792,
                    "velocity": 0.47244094488188976,
                    "duration": 0.06535933333333332
                },
                {
                    "name": "F4",
                    "midi": 65,
                    "time": 130.195792,
                    "velocity": 0.47244094488188976,
                    "duration": 0.06535933333333332
                },
                {
                    "name": "A#3",
                    "midi": 58,
                    "time": 130.980104,
                    "velocity": 0.47244094488188976,
                    "duration": 0.3267966666666666
                },
                {
                    "name": "D4",
                    "midi": 62,
                    "time": 130.980104,
                    "velocity": 0.47244094488188976,
                    "duration": 0.3267966666666666
                },
                {
                    "name": "F4",
                    "midi": 65,
                    "time": 130.980104,
                    "velocity": 0.47244094488188976,
                    "duration": 0.3267966666666666
                },
                {
                    "name": "A3",
                    "midi": 57,
                    "time": 131.764416,
                    "velocity": 0.47244094488188976,
                    "duration": 0.3267966666666666
                },
                {
                    "name": "C4",
                    "midi": 60,
                    "time": 131.764416,
                    "velocity": 0.47244094488188976,
                    "duration": 0.3267966666666666
                },
                {
                    "name": "D#4",
                    "midi": 63,
                    "time": 131.764416,
                    "velocity": 0.47244094488188976,
                    "duration": 0.3267966666666666
                },
                {
                    "name": "F#4",
                    "midi": 66,
                    "time": 131.764416,
                    "velocity": 0.47244094488188976,
                    "duration": 0.3267966666666666
                },
                {
                    "name": "A3",
                    "midi": 57,
                    "time": 132.548728,
                    "velocity": 0.47244094488188976,
                    "duration": 0.3267966666666666
                },
                {
                    "name": "C4",
                    "midi": 60,
                    "time": 132.548728,
                    "velocity": 0.47244094488188976,
                    "duration": 0.3267966666666666
                },
                {
                    "name": "D#4",
                    "midi": 63,
                    "time": 132.548728,
                    "velocity": 0.47244094488188976,
                    "duration": 0.3267966666666666
                },
                {
                    "name": "F#4",
                    "midi": 66,
                    "time": 132.548728,
                    "velocity": 0.47244094488188976,
                    "duration": 0.3267966666666666
                },
                {
                    "name": "A3",
                    "midi": 57,
                    "time": 133.33304,
                    "velocity": 0.47244094488188976,
                    "duration": 0.3267966666666666
                },
                {
                    "name": "C4",
                    "midi": 60,
                    "time": 133.33304,
                    "velocity": 0.47244094488188976,
                    "duration": 0.3267966666666666
                },
                {
                    "name": "E4",
                    "midi": 64,
                    "time": 133.33304,
                    "velocity": 0.47244094488188976,
                    "duration": 0.3267966666666666
                },
                {
                    "name": "E4",
                    "midi": 64,
                    "time": 134.901664,
                    "velocity": 0.47244094488188976,
                    "duration": 0.3267966666666666
                },
                {
                    "name": "A4",
                    "midi": 69,
                    "time": 134.901664,
                    "velocity": 0.47244094488188976,
                    "duration": 0.3267966666666666
                },
                {
                    "name": "C5",
                    "midi": 72,
                    "time": 134.901664,
                    "velocity": 0.47244094488188976,
                    "duration": 0.3267966666666666
                },
                {
                    "name": "E5",
                    "midi": 76,
                    "time": 134.901664,
                    "velocity": 0.47244094488188976,
                    "duration": 0.3267966666666666
                },
                {
                    "name": "A5",
                    "midi": 81,
                    "time": 134.901664,
                    "velocity": 0.47244094488188976,
                    "duration": 0.3267966666666666
                },
                {
                    "name": "E4",
                    "midi": 64,
                    "time": 136.470288,
                    "velocity": 0.47244094488188976,
                    "duration": 0.3267966666666666
                },
                {
                    "name": "A4",
                    "midi": 69,
                    "time": 136.470288,
                    "velocity": 0.47244094488188976,
                    "duration": 0.3267966666666666
                },
                {
                    "name": "C5",
                    "midi": 72,
                    "time": 136.470288,
                    "velocity": 0.47244094488188976,
                    "duration": 0.3267966666666666
                },
                {
                    "name": "E5",
                    "midi": 76,
                    "time": 136.470288,
                    "velocity": 0.47244094488188976,
                    "duration": 0.3267966666666666
                },
                {
                    "name": "A5",
                    "midi": 81,
                    "time": 136.470288,
                    "velocity": 0.47244094488188976,
                    "duration": 0.3267966666666666
                },
                {
                    "name": "E4",
                    "midi": 64,
                    "time": 138.038912,
                    "velocity": 0.47244094488188976,
                    "duration": 0.3267966666666666
                },
                {
                    "name": "A4",
                    "midi": 69,
                    "time": 138.038912,
                    "velocity": 0.47244094488188976,
                    "duration": 0.3267966666666666
                },
                {
                    "name": "B4",
                    "midi": 71,
                    "time": 138.038912,
                    "velocity": 0.47244094488188976,
                    "duration": 0.3267966666666666
                },
                {
                    "name": "E5",
                    "midi": 76,
                    "time": 138.038912,
                    "velocity": 0.47244094488188976,
                    "duration": 0.3267966666666666
                },
                {
                    "name": "A5",
                    "midi": 81,
                    "time": 138.038912,
                    "velocity": 0.47244094488188976,
                    "duration": 0.3267966666666666
                },
                {
                    "name": "E4",
                    "midi": 64,
                    "time": 138.823224,
                    "velocity": 0.47244094488188976,
                    "duration": 0.3267966666666666
                },
                {
                    "name": "G#4",
                    "midi": 68,
                    "time": 138.823224,
                    "velocity": 0.47244094488188976,
                    "duration": 0.3267966666666666
                },
                {
                    "name": "B4",
                    "midi": 71,
                    "time": 138.823224,
                    "velocity": 0.47244094488188976,
                    "duration": 0.3267966666666666
                },
                {
                    "name": "E5",
                    "midi": 76,
                    "time": 138.823224,
                    "velocity": 0.47244094488188976,
                    "duration": 0.3267966666666666
                },
                {
                    "name": "G#5",
                    "midi": 80,
                    "time": 138.823224,
                    "velocity": 0.47244094488188976,
                    "duration": 0.3267966666666666
                },
                {
                    "name": "G4",
                    "midi": 67,
                    "time": 152.156528,
                    "velocity": 0.47244094488188976,
                    "duration": 0.3267966666666666
                },
                {
                    "name": "G5",
                    "midi": 79,
                    "time": 152.156528,
                    "velocity": 0.47244094488188976,
                    "duration": 0.3267966666666666
                },
                {
                    "name": "B4",
                    "midi": 71,
                    "time": 152.94084,
                    "velocity": 0.47244094488188976,
                    "duration": 0.39215599999999995
                },
                {
                    "name": "B5",
                    "midi": 83,
                    "time": 152.94084,
                    "velocity": 0.47244094488188976,
                    "duration": 0.39215599999999995
                },
                {
                    "name": "D5",
                    "midi": 74,
                    "time": 153.332996,
                    "velocity": 0.47244094488188976,
                    "duration": 0.39215599999999995
                },
                {
                    "name": "D6",
                    "midi": 86,
                    "time": 153.332996,
                    "velocity": 0.47244094488188976,
                    "duration": 0.39215599999999995
                },
                {
                    "name": "D#5",
                    "midi": 75,
                    "time": 153.725152,
                    "velocity": 0.47244094488188976,
                    "duration": 0.7843119999999999
                },
                {
                    "name": "D#6",
                    "midi": 87,
                    "time": 153.725152,
                    "velocity": 0.47244094488188976,
                    "duration": 0.7843119999999999
                },
                {
                    "name": "C5",
                    "midi": 72,
                    "time": 154.509464,
                    "velocity": 0.47244094488188976,
                    "duration": 0.7843119999999999
                },
                {
                    "name": "C6",
                    "midi": 84,
                    "time": 154.509464,
                    "velocity": 0.47244094488188976,
                    "duration": 0.7843119999999999
                },
                {
                    "name": "B4",
                    "midi": 71,
                    "time": 155.293776,
                    "velocity": 0.47244094488188976,
                    "duration": 0.3267966666666666
                },
                {
                    "name": "B5",
                    "midi": 83,
                    "time": 155.293776,
                    "velocity": 0.47244094488188976,
                    "duration": 0.3267966666666666
                },
                {
                    "name": "D4",
                    "midi": 62,
                    "time": 156.078088,
                    "velocity": 0.47244094488188976,
                    "duration": 0.7843119999999999
                },
                {
                    "name": "G4",
                    "midi": 67,
                    "time": 156.078088,
                    "velocity": 0.47244094488188976,
                    "duration": 0.7843119999999999
                },
                {
                    "name": "B4",
                    "midi": 71,
                    "time": 156.078088,
                    "velocity": 0.47244094488188976,
                    "duration": 0.7843119999999999
                },
                {
                    "name": "D#4",
                    "midi": 63,
                    "time": 156.8624,
                    "velocity": 0.47244094488188976,
                    "duration": 0.7843119999999999
                },
                {
                    "name": "G4",
                    "midi": 67,
                    "time": 156.8624,
                    "velocity": 0.47244094488188976,
                    "duration": 0.7843119999999999
                },
                {
                    "name": "C5",
                    "midi": 72,
                    "time": 156.8624,
                    "velocity": 0.47244094488188976,
                    "duration": 0.7843119999999999
                },
                {
                    "name": "D#4",
                    "midi": 63,
                    "time": 157.646712,
                    "velocity": 0.47244094488188976,
                    "duration": 0.7843119999999999
                },
                {
                    "name": "G4",
                    "midi": 67,
                    "time": 157.646712,
                    "velocity": 0.47244094488188976,
                    "duration": 0.7843119999999999
                },
                {
                    "name": "C5",
                    "midi": 72,
                    "time": 157.646712,
                    "velocity": 0.47244094488188976,
                    "duration": 0.7843119999999999
                },
                {
                    "name": "D4",
                    "midi": 62,
                    "time": 158.431024,
                    "velocity": 0.47244094488188976,
                    "duration": 0.39215599999999995
                },
                {
                    "name": "G4",
                    "midi": 67,
                    "time": 158.431024,
                    "velocity": 0.47244094488188976,
                    "duration": 0.39215599999999995
                },
                {
                    "name": "B4",
                    "midi": 71,
                    "time": 158.431024,
                    "velocity": 0.47244094488188976,
                    "duration": 0.39215599999999995
                },
                {
                    "name": "D#4",
                    "midi": 63,
                    "time": 158.82318,
                    "velocity": 0.47244094488188976,
                    "duration": 0.39215599999999995
                },
                {
                    "name": "G4",
                    "midi": 67,
                    "time": 158.82318,
                    "velocity": 0.47244094488188976,
                    "duration": 0.39215599999999995
                },
                {
                    "name": "C5",
                    "midi": 72,
                    "time": 158.82318,
                    "velocity": 0.47244094488188976,
                    "duration": 0.39215599999999995
                },
                {
                    "name": "D4",
                    "midi": 62,
                    "time": 159.215336,
                    "velocity": 0.47244094488188976,
                    "duration": 0.39215599999999995
                },
                {
                    "name": "G4",
                    "midi": 67,
                    "time": 159.215336,
                    "velocity": 0.47244094488188976,
                    "duration": 0.39215599999999995
                },
                {
                    "name": "B4",
                    "midi": 71,
                    "time": 159.215336,
                    "velocity": 0.47244094488188976,
                    "duration": 0.39215599999999995
                },
                {
                    "name": "D#4",
                    "midi": 63,
                    "time": 159.607492,
                    "velocity": 0.47244094488188976,
                    "duration": 0.39215599999999995
                },
                {
                    "name": "G4",
                    "midi": 67,
                    "time": 159.607492,
                    "velocity": 0.47244094488188976,
                    "duration": 0.39215599999999995
                },
                {
                    "name": "C5",
                    "midi": 72,
                    "time": 159.607492,
                    "velocity": 0.47244094488188976,
                    "duration": 0.39215599999999995
                },
                {
                    "name": "D4",
                    "midi": 62,
                    "time": 159.999648,
                    "velocity": 0.47244094488188976,
                    "duration": 0.39215599999999995
                },
                {
                    "name": "G4",
                    "midi": 67,
                    "time": 159.999648,
                    "velocity": 0.47244094488188976,
                    "duration": 0.39215599999999995
                },
                {
                    "name": "B4",
                    "midi": 71,
                    "time": 159.999648,
                    "velocity": 0.47244094488188976,
                    "duration": 0.39215599999999995
                },
                {
                    "name": "D#4",
                    "midi": 63,
                    "time": 160.391804,
                    "velocity": 0.47244094488188976,
                    "duration": 0.39215599999999995
                },
                {
                    "name": "G4",
                    "midi": 67,
                    "time": 160.391804,
                    "velocity": 0.47244094488188976,
                    "duration": 0.39215599999999995
                },
                {
                    "name": "C5",
                    "midi": 72,
                    "time": 160.391804,
                    "velocity": 0.47244094488188976,
                    "duration": 0.39215599999999995
                },
                {
                    "name": "G4",
                    "midi": 67,
                    "time": 160.78396,
                    "velocity": 0.47244094488188976,
                    "duration": 0.39215599999999995
                },
                {
                    "name": "B4",
                    "midi": 71,
                    "time": 160.78396,
                    "velocity": 0.47244094488188976,
                    "duration": 0.39215599999999995
                },
                {
                    "name": "D5",
                    "midi": 74,
                    "time": 160.78396,
                    "velocity": 0.47244094488188976,
                    "duration": 0.39215599999999995
                },
                {
                    "name": "G4",
                    "midi": 67,
                    "time": 161.176116,
                    "velocity": 0.47244094488188976,
                    "duration": 0.39215599999999995
                },
                {
                    "name": "C5",
                    "midi": 72,
                    "time": 161.176116,
                    "velocity": 0.47244094488188976,
                    "duration": 0.39215599999999995
                },
                {
                    "name": "D#5",
                    "midi": 75,
                    "time": 161.176116,
                    "velocity": 0.47244094488188976,
                    "duration": 0.39215599999999995
                },
                {
                    "name": "B3",
                    "midi": 59,
                    "time": 161.568272,
                    "velocity": 0.47244094488188976,
                    "duration": 0.3267966666666666
                },
                {
                    "name": "D4",
                    "midi": 62,
                    "time": 161.568272,
                    "velocity": 0.47244094488188976,
                    "duration": 0.3267966666666666
                },
                {
                    "name": "G4",
                    "midi": 67,
                    "time": 161.568272,
                    "velocity": 0.47244094488188976,
                    "duration": 0.3267966666666666
                },
                {
                    "name": "C4",
                    "midi": 60,
                    "time": 163.136896,
                    "velocity": 0.47244094488188976,
                    "duration": 0.3267966666666666
                },
                {
                    "name": "F4",
                    "midi": 65,
                    "time": 163.136896,
                    "velocity": 0.47244094488188976,
                    "duration": 0.3267966666666666
                },
                {
                    "name": "A4",
                    "midi": 69,
                    "time": 163.136896,
                    "velocity": 0.47244094488188976,
                    "duration": 0.3267966666666666
                },
                {
                    "name": "D4",
                    "midi": 62,
                    "time": 164.70552,
                    "velocity": 0.47244094488188976,
                    "duration": 0.3267966666666666
                },
                {
                    "name": "F4",
                    "midi": 65,
                    "time": 164.70552,
                    "velocity": 0.47244094488188976,
                    "duration": 0.3267966666666666
                },
                {
                    "name": "B4",
                    "midi": 71,
                    "time": 164.70552,
                    "velocity": 0.47244094488188976,
                    "duration": 0.3267966666666666
                },
                {
                    "name": "G3",
                    "midi": 55,
                    "time": 168.823158,
                    "velocity": 0.47244094488188976,
                    "duration": 0.06535933333333332
                },
                {
                    "name": "C4",
                    "midi": 60,
                    "time": 168.823158,
                    "velocity": 0.47244094488188976,
                    "duration": 0.06535933333333332
                },
                {
                    "name": "E4",
                    "midi": 64,
                    "time": 168.823158,
                    "velocity": 0.47244094488188976,
                    "duration": 0.06535933333333332
                },
                {
                    "name": "G3",
                    "midi": 55,
                    "time": 169.215314,
                    "velocity": 0.47244094488188976,
                    "duration": 0.06535933333333332
                },
                {
                    "name": "C4",
                    "midi": 60,
                    "time": 169.215314,
                    "velocity": 0.47244094488188976,
                    "duration": 0.06535933333333332
                },
                {
                    "name": "E4",
                    "midi": 64,
                    "time": 169.215314,
                    "velocity": 0.47244094488188976,
                    "duration": 0.06535933333333332
                },
                {
                    "name": "B3",
                    "midi": 59,
                    "time": 169.60747,
                    "velocity": 0.47244094488188976,
                    "duration": 0.06535933333333332
                },
                {
                    "name": "D4",
                    "midi": 62,
                    "time": 169.60747,
                    "velocity": 0.47244094488188976,
                    "duration": 0.06535933333333332
                },
                {
                    "name": "F4",
                    "midi": 65,
                    "time": 169.60747,
                    "velocity": 0.47244094488188976,
                    "duration": 0.06535933333333332
                },
                {
                    "name": "B3",
                    "midi": 59,
                    "time": 169.999626,
                    "velocity": 0.47244094488188976,
                    "duration": 0.06535933333333332
                },
                {
                    "name": "D4",
                    "midi": 62,
                    "time": 169.999626,
                    "velocity": 0.47244094488188976,
                    "duration": 0.06535933333333332
                },
                {
                    "name": "F4",
                    "midi": 65,
                    "time": 169.999626,
                    "velocity": 0.47244094488188976,
                    "duration": 0.06535933333333332
                },
                {
                    "name": "B3",
                    "midi": 59,
                    "time": 170.391782,
                    "velocity": 0.47244094488188976,
                    "duration": 0.06535933333333332
                },
                {
                    "name": "D4",
                    "midi": 62,
                    "time": 170.391782,
                    "velocity": 0.47244094488188976,
                    "duration": 0.06535933333333332
                },
                {
                    "name": "F4",
                    "midi": 65,
                    "time": 170.391782,
                    "velocity": 0.47244094488188976,
                    "duration": 0.06535933333333332
                },
                {
                    "name": "B3",
                    "midi": 59,
                    "time": 170.783938,
                    "velocity": 0.47244094488188976,
                    "duration": 0.06535933333333332
                },
                {
                    "name": "D4",
                    "midi": 62,
                    "time": 170.783938,
                    "velocity": 0.47244094488188976,
                    "duration": 0.06535933333333332
                },
                {
                    "name": "F4",
                    "midi": 65,
                    "time": 170.783938,
                    "velocity": 0.47244094488188976,
                    "duration": 0.06535933333333332
                },
                {
                    "name": "G3",
                    "midi": 55,
                    "time": 171.176094,
                    "velocity": 0.47244094488188976,
                    "duration": 0.06535933333333332
                },
                {
                    "name": "C4",
                    "midi": 60,
                    "time": 171.176094,
                    "velocity": 0.47244094488188976,
                    "duration": 0.06535933333333332
                },
                {
                    "name": "E4",
                    "midi": 64,
                    "time": 171.176094,
                    "velocity": 0.47244094488188976,
                    "duration": 0.06535933333333332
                },
                {
                    "name": "G3",
                    "midi": 55,
                    "time": 171.56825,
                    "velocity": 0.47244094488188976,
                    "duration": 0.06535933333333332
                },
                {
                    "name": "C4",
                    "midi": 60,
                    "time": 171.56825,
                    "velocity": 0.47244094488188976,
                    "duration": 0.06535933333333332
                },
                {
                    "name": "E4",
                    "midi": 64,
                    "time": 171.56825,
                    "velocity": 0.47244094488188976,
                    "duration": 0.06535933333333332
                },
                {
                    "name": "A3",
                    "midi": 57,
                    "time": 171.960406,
                    "velocity": 0.47244094488188976,
                    "duration": 0.06535933333333332
                },
                {
                    "name": "C#4",
                    "midi": 61,
                    "time": 171.960406,
                    "velocity": 0.47244094488188976,
                    "duration": 0.06535933333333332
                },
                {
                    "name": "E4",
                    "midi": 64,
                    "time": 171.960406,
                    "velocity": 0.47244094488188976,
                    "duration": 0.06535933333333332
                },
                {
                    "name": "A3",
                    "midi": 57,
                    "time": 172.352562,
                    "velocity": 0.47244094488188976,
                    "duration": 0.06535933333333332
                },
                {
                    "name": "C#4",
                    "midi": 61,
                    "time": 172.352562,
                    "velocity": 0.47244094488188976,
                    "duration": 0.06535933333333332
                },
                {
                    "name": "E4",
                    "midi": 64,
                    "time": 172.352562,
                    "velocity": 0.47244094488188976,
                    "duration": 0.06535933333333332
                },
                {
                    "name": "A3",
                    "midi": 57,
                    "time": 172.54864,
                    "velocity": 0.47244094488188976,
                    "duration": 0.39215599999999995
                },
                {
                    "name": "D4",
                    "midi": 62,
                    "time": 172.54864,
                    "velocity": 0.47244094488188976,
                    "duration": 0.39215599999999995
                },
                {
                    "name": "F4",
                    "midi": 65,
                    "time": 172.54864,
                    "velocity": 0.47244094488188976,
                    "duration": 0.39215599999999995
                },
                {
                    "name": "B3",
                    "midi": 59,
                    "time": 172.940796,
                    "velocity": 0.47244094488188976,
                    "duration": 0.39215599999999995
                },
                {
                    "name": "D4",
                    "midi": 62,
                    "time": 172.940796,
                    "velocity": 0.47244094488188976,
                    "duration": 0.39215599999999995
                },
                {
                    "name": "F4",
                    "midi": 65,
                    "time": 172.940796,
                    "velocity": 0.47244094488188976,
                    "duration": 0.39215599999999995
                },
                {
                    "name": "C4",
                    "midi": 60,
                    "time": 173.332952,
                    "velocity": 0.47244094488188976,
                    "duration": 0.39215599999999995
                },
                {
                    "name": "E4",
                    "midi": 64,
                    "time": 173.332952,
                    "velocity": 0.47244094488188976,
                    "duration": 0.39215599999999995
                },
                {
                    "name": "G4",
                    "midi": 67,
                    "time": 173.332952,
                    "velocity": 0.47244094488188976,
                    "duration": 0.39215599999999995
                },
                {
                    "name": "C4",
                    "midi": 60,
                    "time": 173.725108,
                    "velocity": 0.47244094488188976,
                    "duration": 0.39215599999999995
                },
                {
                    "name": "D4",
                    "midi": 62,
                    "time": 173.725108,
                    "velocity": 0.47244094488188976,
                    "duration": 0.39215599999999995
                },
                {
                    "name": "F#4",
                    "midi": 66,
                    "time": 173.725108,
                    "velocity": 0.47244094488188976,
                    "duration": 0.39215599999999995
                },
                {
                    "name": "B3",
                    "midi": 59,
                    "time": 174.117264,
                    "velocity": 0.47244094488188976,
                    "duration": 0.1919930416666773
                },
                {
                    "name": "D4",
                    "midi": 62,
                    "time": 174.117264,
                    "velocity": 0.47244094488188976,
                    "duration": 0.1919930416666773
                },
                {
                    "name": "G4",
                    "midi": 67,
                    "time": 174.117264,
                    "velocity": 0.47244094488188976,
                    "duration": 0.1919930416666773
                },
                {
                    "name": "G3",
                    "midi": 55,
                    "time": 175.097654,
                    "velocity": 0.47244094488188976,
                    "duration": 0.06535933333333332
                },
                {
                    "name": "C4",
                    "midi": 60,
                    "time": 175.097654,
                    "velocity": 0.47244094488188976,
                    "duration": 0.06535933333333332
                },
                {
                    "name": "E4",
                    "midi": 64,
                    "time": 175.097654,
                    "velocity": 0.47244094488188976,
                    "duration": 0.06535933333333332
                },
                {
                    "name": "G3",
                    "midi": 55,
                    "time": 175.48981,
                    "velocity": 0.47244094488188976,
                    "duration": 0.06535933333333332
                },
                {
                    "name": "C4",
                    "midi": 60,
                    "time": 175.48981,
                    "velocity": 0.47244094488188976,
                    "duration": 0.06535933333333332
                },
                {
                    "name": "E4",
                    "midi": 64,
                    "time": 175.48981,
                    "velocity": 0.47244094488188976,
                    "duration": 0.06535933333333332
                },
                {
                    "name": "B3",
                    "midi": 59,
                    "time": 175.881966,
                    "velocity": 0.47244094488188976,
                    "duration": 0.06535933333333332
                },
                {
                    "name": "D4",
                    "midi": 62,
                    "time": 175.881966,
                    "velocity": 0.47244094488188976,
                    "duration": 0.06535933333333332
                },
                {
                    "name": "F4",
                    "midi": 65,
                    "time": 175.881966,
                    "velocity": 0.47244094488188976,
                    "duration": 0.06535933333333332
                },
                {
                    "name": "B3",
                    "midi": 59,
                    "time": 176.274122,
                    "velocity": 0.47244094488188976,
                    "duration": 0.06535933333333332
                },
                {
                    "name": "D4",
                    "midi": 62,
                    "time": 176.274122,
                    "velocity": 0.47244094488188976,
                    "duration": 0.06535933333333332
                },
                {
                    "name": "F4",
                    "midi": 65,
                    "time": 176.274122,
                    "velocity": 0.47244094488188976,
                    "duration": 0.06535933333333332
                },
                {
                    "name": "B3",
                    "midi": 59,
                    "time": 176.666278,
                    "velocity": 0.47244094488188976,
                    "duration": 0.06535933333333332
                },
                {
                    "name": "D4",
                    "midi": 62,
                    "time": 176.666278,
                    "velocity": 0.47244094488188976,
                    "duration": 0.06535933333333332
                },
                {
                    "name": "F4",
                    "midi": 65,
                    "time": 176.666278,
                    "velocity": 0.47244094488188976,
                    "duration": 0.06535933333333332
                },
                {
                    "name": "B3",
                    "midi": 59,
                    "time": 177.058434,
                    "velocity": 0.47244094488188976,
                    "duration": 0.06535933333333332
                },
                {
                    "name": "D4",
                    "midi": 62,
                    "time": 177.058434,
                    "velocity": 0.47244094488188976,
                    "duration": 0.06535933333333332
                },
                {
                    "name": "F4",
                    "midi": 65,
                    "time": 177.058434,
                    "velocity": 0.47244094488188976,
                    "duration": 0.06535933333333332
                },
                {
                    "name": "C4",
                    "midi": 60,
                    "time": 177.45059,
                    "velocity": 0.47244094488188976,
                    "duration": 0.06535933333333332
                },
                {
                    "name": "E4",
                    "midi": 64,
                    "time": 177.45059,
                    "velocity": 0.47244094488188976,
                    "duration": 0.06535933333333332
                },
                {
                    "name": "G4",
                    "midi": 67,
                    "time": 177.45059,
                    "velocity": 0.47244094488188976,
                    "duration": 0.06535933333333332
                },
                {
                    "name": "C4",
                    "midi": 60,
                    "time": 177.842746,
                    "velocity": 0.47244094488188976,
                    "duration": 0.06535933333333332
                },
                {
                    "name": "E4",
                    "midi": 64,
                    "time": 177.842746,
                    "velocity": 0.47244094488188976,
                    "duration": 0.06535933333333332
                },
                {
                    "name": "G4",
                    "midi": 67,
                    "time": 177.842746,
                    "velocity": 0.47244094488188976,
                    "duration": 0.06535933333333332
                },
                {
                    "name": "C4",
                    "midi": 60,
                    "time": 178.234902,
                    "velocity": 0.47244094488188976,
                    "duration": 0.06535933333333332
                },
                {
                    "name": "E4",
                    "midi": 64,
                    "time": 178.234902,
                    "velocity": 0.47244094488188976,
                    "duration": 0.06535933333333332
                },
                {
                    "name": "G4",
                    "midi": 67,
                    "time": 178.234902,
                    "velocity": 0.47244094488188976,
                    "duration": 0.06535933333333332
                },
                {
                    "name": "C4",
                    "midi": 60,
                    "time": 178.627058,
                    "velocity": 0.47244094488188976,
                    "duration": 0.06535933333333332
                },
                {
                    "name": "E4",
                    "midi": 64,
                    "time": 178.627058,
                    "velocity": 0.47244094488188976,
                    "duration": 0.06535933333333332
                },
                {
                    "name": "G4",
                    "midi": 67,
                    "time": 178.627058,
                    "velocity": 0.47244094488188976,
                    "duration": 0.06535933333333332
                },
                {
                    "name": "A3",
                    "midi": 57,
                    "time": 179.019214,
                    "velocity": 0.47244094488188976,
                    "duration": 0.06535933333333332
                },
                {
                    "name": "C4",
                    "midi": 60,
                    "time": 179.019214,
                    "velocity": 0.47244094488188976,
                    "duration": 0.06535933333333332
                },
                {
                    "name": "F4",
                    "midi": 65,
                    "time": 179.019214,
                    "velocity": 0.47244094488188976,
                    "duration": 0.06535933333333332
                },
                {
                    "name": "A3",
                    "midi": 57,
                    "time": 179.41137,
                    "velocity": 0.47244094488188976,
                    "duration": 0.06535933333333332
                },
                {
                    "name": "C4",
                    "midi": 60,
                    "time": 179.41137,
                    "velocity": 0.47244094488188976,
                    "duration": 0.06535933333333332
                },
                {
                    "name": "F4",
                    "midi": 65,
                    "time": 179.41137,
                    "velocity": 0.47244094488188976,
                    "duration": 0.06535933333333332
                },
                {
                    "name": "A3",
                    "midi": 57,
                    "time": 179.803526,
                    "velocity": 0.47244094488188976,
                    "duration": 0.06535933333333332
                },
                {
                    "name": "C4",
                    "midi": 60,
                    "time": 179.803526,
                    "velocity": 0.47244094488188976,
                    "duration": 0.06535933333333332
                },
                {
                    "name": "D4",
                    "midi": 62,
                    "time": 179.803526,
                    "velocity": 0.47244094488188976,
                    "duration": 0.06535933333333332
                },
                {
                    "name": "F#4",
                    "midi": 66,
                    "time": 179.803526,
                    "velocity": 0.47244094488188976,
                    "duration": 0.06535933333333332
                },
                {
                    "name": "A3",
                    "midi": 57,
                    "time": 180.195682,
                    "velocity": 0.47244094488188976,
                    "duration": 0.06535933333333332
                },
                {
                    "name": "C4",
                    "midi": 60,
                    "time": 180.195682,
                    "velocity": 0.47244094488188976,
                    "duration": 0.06535933333333332
                },
                {
                    "name": "D4",
                    "midi": 62,
                    "time": 180.195682,
                    "velocity": 0.47244094488188976,
                    "duration": 0.06535933333333332
                },
                {
                    "name": "F#4",
                    "midi": 66,
                    "time": 180.195682,
                    "velocity": 0.47244094488188976,
                    "duration": 0.06535933333333332
                },
                {
                    "name": "B3",
                    "midi": 59,
                    "time": 180.587838,
                    "velocity": 0.47244094488188976,
                    "duration": 0.06535933333333332
                },
                {
                    "name": "D4",
                    "midi": 62,
                    "time": 180.587838,
                    "velocity": 0.47244094488188976,
                    "duration": 0.06535933333333332
                },
                {
                    "name": "G4",
                    "midi": 67,
                    "time": 180.587838,
                    "velocity": 0.47244094488188976,
                    "duration": 0.06535933333333332
                },
                {
                    "name": "B3",
                    "midi": 59,
                    "time": 180.979994,
                    "velocity": 0.47244094488188976,
                    "duration": 0.06535933333333332
                },
                {
                    "name": "D4",
                    "midi": 62,
                    "time": 180.979994,
                    "velocity": 0.47244094488188976,
                    "duration": 0.06535933333333332
                },
                {
                    "name": "G4",
                    "midi": 67,
                    "time": 180.979994,
                    "velocity": 0.47244094488188976,
                    "duration": 0.06535933333333332
                },
                {
                    "name": "B3",
                    "midi": 59,
                    "time": 181.37215,
                    "velocity": 0.47244094488188976,
                    "duration": 0.06535933333333332
                },
                {
                    "name": "D4",
                    "midi": 62,
                    "time": 181.37215,
                    "velocity": 0.47244094488188976,
                    "duration": 0.06535933333333332
                },
                {
                    "name": "F4",
                    "midi": 65,
                    "time": 181.37215,
                    "velocity": 0.47244094488188976,
                    "duration": 0.06535933333333332
                },
                {
                    "name": "G4",
                    "midi": 67,
                    "time": 181.37215,
                    "velocity": 0.47244094488188976,
                    "duration": 0.06535933333333332
                },
                {
                    "name": "B3",
                    "midi": 59,
                    "time": 181.764306,
                    "velocity": 0.47244094488188976,
                    "duration": 0.06535933333333332
                },
                {
                    "name": "D4",
                    "midi": 62,
                    "time": 181.764306,
                    "velocity": 0.47244094488188976,
                    "duration": 0.06535933333333332
                },
                {
                    "name": "F4",
                    "midi": 65,
                    "time": 181.764306,
                    "velocity": 0.47244094488188976,
                    "duration": 0.06535933333333332
                },
                {
                    "name": "G4",
                    "midi": 67,
                    "time": 181.764306,
                    "velocity": 0.47244094488188976,
                    "duration": 0.06535933333333332
                },
                {
                    "name": "C4",
                    "midi": 60,
                    "time": 181.960384,
                    "velocity": 0.47244094488188976,
                    "duration": 0.06535933333333332
                },
                {
                    "name": "E4",
                    "midi": 64,
                    "time": 181.960384,
                    "velocity": 0.47244094488188976,
                    "duration": 0.06535933333333332
                },
                {
                    "name": "G4",
                    "midi": 67,
                    "time": 181.960384,
                    "velocity": 0.47244094488188976,
                    "duration": 0.06535933333333332
                },
                {
                    "name": "D4",
                    "midi": 62,
                    "time": 182.35254,
                    "velocity": 0.47244094488188976,
                    "duration": 0.39215599999999995
                },
                {
                    "name": "E4",
                    "midi": 64,
                    "time": 182.35254,
                    "velocity": 0.47244094488188976,
                    "duration": 0.39215599999999995
                },
                {
                    "name": "G#4",
                    "midi": 68,
                    "time": 182.35254,
                    "velocity": 0.47244094488188976,
                    "duration": 0.39215599999999995
                },
                {
                    "name": "B4",
                    "midi": 71,
                    "time": 182.35254,
                    "velocity": 0.47244094488188976,
                    "duration": 0.39215599999999995
                },
                {
                    "name": "C4",
                    "midi": 60,
                    "time": 182.744696,
                    "velocity": 0.47244094488188976,
                    "duration": 0.39215599999999995
                },
                {
                    "name": "E4",
                    "midi": 64,
                    "time": 182.744696,
                    "velocity": 0.47244094488188976,
                    "duration": 0.39215599999999995
                },
                {
                    "name": "A4",
                    "midi": 69,
                    "time": 182.744696,
                    "velocity": 0.47244094488188976,
                    "duration": 0.39215599999999995
                },
                {
                    "name": "C4",
                    "midi": 60,
                    "time": 183.136852,
                    "velocity": 0.47244094488188976,
                    "duration": 0.39215599999999995
                },
                {
                    "name": "E4",
                    "midi": 64,
                    "time": 183.136852,
                    "velocity": 0.47244094488188976,
                    "duration": 0.39215599999999995
                },
                {
                    "name": "G4",
                    "midi": 67,
                    "time": 183.136852,
                    "velocity": 0.47244094488188976,
                    "duration": 0.39215599999999995
                },
                {
                    "name": "C5",
                    "midi": 72,
                    "time": 183.136852,
                    "velocity": 0.47244094488188976,
                    "duration": 0.39215599999999995
                },
                {
                    "name": "C4",
                    "midi": 60,
                    "time": 183.529008,
                    "velocity": 0.47244094488188976,
                    "duration": 0.6862729999999999
                },
                {
                    "name": "F4",
                    "midi": 65,
                    "time": 183.529008,
                    "velocity": 0.47244094488188976,
                    "duration": 0.6862729999999999
                },
                {
                    "name": "C5",
                    "midi": 72,
                    "time": 183.529008,
                    "velocity": 0.47244094488188976,
                    "duration": 0.6862729999999999
                },
                {
                    "name": "A3",
                    "midi": 57,
                    "time": 184.509398,
                    "velocity": 0.47244094488188976,
                    "duration": 0.06535933333333332
                },
                {
                    "name": "C4",
                    "midi": 60,
                    "time": 184.509398,
                    "velocity": 0.47244094488188976,
                    "duration": 0.06535933333333332
                },
                {
                    "name": "D#4",
                    "midi": 63,
                    "time": 184.509398,
                    "velocity": 0.47244094488188976,
                    "duration": 0.06535933333333332
                },
                {
                    "name": "A3",
                    "midi": 57,
                    "time": 184.901554,
                    "velocity": 0.47244094488188976,
                    "duration": 0.06535933333333332
                },
                {
                    "name": "C4",
                    "midi": 60,
                    "time": 184.901554,
                    "velocity": 0.47244094488188976,
                    "duration": 0.06535933333333332
                },
                {
                    "name": "D#4",
                    "midi": 63,
                    "time": 184.901554,
                    "velocity": 0.47244094488188976,
                    "duration": 0.06535933333333332
                },
                {
                    "name": "G3",
                    "midi": 55,
                    "time": 185.29371,
                    "velocity": 0.47244094488188976,
                    "duration": 0.06535933333333332
                },
                {
                    "name": "C4",
                    "midi": 60,
                    "time": 185.29371,
                    "velocity": 0.47244094488188976,
                    "duration": 0.06535933333333332
                },
                {
                    "name": "E4",
                    "midi": 64,
                    "time": 185.29371,
                    "velocity": 0.47244094488188976,
                    "duration": 0.06535933333333332
                },
                {
                    "name": "G3",
                    "midi": 55,
                    "time": 185.685866,
                    "velocity": 0.47244094488188976,
                    "duration": 0.06535933333333332
                },
                {
                    "name": "C4",
                    "midi": 60,
                    "time": 185.685866,
                    "velocity": 0.47244094488188976,
                    "duration": 0.06535933333333332
                },
                {
                    "name": "E4",
                    "midi": 64,
                    "time": 185.685866,
                    "velocity": 0.47244094488188976,
                    "duration": 0.06535933333333332
                },
                {
                    "name": "B3",
                    "midi": 59,
                    "time": 186.078022,
                    "velocity": 0.47244094488188976,
                    "duration": 0.06535933333333332
                },
                {
                    "name": "D4",
                    "midi": 62,
                    "time": 186.078022,
                    "velocity": 0.47244094488188976,
                    "duration": 0.06535933333333332
                },
                {
                    "name": "F4",
                    "midi": 65,
                    "time": 186.078022,
                    "velocity": 0.47244094488188976,
                    "duration": 0.06535933333333332
                },
                {
                    "name": "B3",
                    "midi": 59,
                    "time": 186.470178,
                    "velocity": 0.47244094488188976,
                    "duration": 0.06535933333333332
                },
                {
                    "name": "D4",
                    "midi": 62,
                    "time": 186.470178,
                    "velocity": 0.47244094488188976,
                    "duration": 0.06535933333333332
                },
                {
                    "name": "F4",
                    "midi": 65,
                    "time": 186.470178,
                    "velocity": 0.47244094488188976,
                    "duration": 0.06535933333333332
                },
                {
                    "name": "G#3",
                    "midi": 56,
                    "time": 186.862334,
                    "velocity": 0.47244094488188976,
                    "duration": 0.06535933333333332
                },
                {
                    "name": "C4",
                    "midi": 60,
                    "time": 186.862334,
                    "velocity": 0.47244094488188976,
                    "duration": 0.06535933333333332
                },
                {
                    "name": "D#4",
                    "midi": 63,
                    "time": 186.862334,
                    "velocity": 0.47244094488188976,
                    "duration": 0.06535933333333332
                },
                {
                    "name": "G#3",
                    "midi": 56,
                    "time": 187.25449,
                    "velocity": 0.47244094488188976,
                    "duration": 0.06535933333333332
                },
                {
                    "name": "C4",
                    "midi": 60,
                    "time": 187.25449,
                    "velocity": 0.47244094488188976,
                    "duration": 0.06535933333333332
                },
                {
                    "name": "D#4",
                    "midi": 63,
                    "time": 187.25449,
                    "velocity": 0.47244094488188976,
                    "duration": 0.06535933333333332
                },
                {
                    "name": "E4",
                    "midi": 64,
                    "time": 187.646646,
                    "velocity": 0.47244094488188976,
                    "duration": 0.06535933333333332
                },
                {
                    "name": "G#4",
                    "midi": 68,
                    "time": 187.646646,
                    "velocity": 0.47244094488188976,
                    "duration": 0.06535933333333332
                },
                {
                    "name": "C5",
                    "midi": 72,
                    "time": 187.646646,
                    "velocity": 0.47244094488188976,
                    "duration": 0.06535933333333332
                },
                {
                    "name": "E4",
                    "midi": 64,
                    "time": 188.038802,
                    "velocity": 0.47244094488188976,
                    "duration": 0.06535933333333332
                },
                {
                    "name": "G#4",
                    "midi": 68,
                    "time": 188.038802,
                    "velocity": 0.47244094488188976,
                    "duration": 0.06535933333333332
                },
                {
                    "name": "C5",
                    "midi": 72,
                    "time": 188.038802,
                    "velocity": 0.47244094488188976,
                    "duration": 0.06535933333333332
                },
                {
                    "name": "D#4",
                    "midi": 63,
                    "time": 188.430958,
                    "velocity": 0.47244094488188976,
                    "duration": 0.06535933333333332
                },
                {
                    "name": "G4",
                    "midi": 67,
                    "time": 188.430958,
                    "velocity": 0.47244094488188976,
                    "duration": 0.06535933333333332
                },
                {
                    "name": "A#4",
                    "midi": 70,
                    "time": 188.430958,
                    "velocity": 0.47244094488188976,
                    "duration": 0.06535933333333332
                },
                {
                    "name": "C#5",
                    "midi": 73,
                    "time": 188.430958,
                    "velocity": 0.47244094488188976,
                    "duration": 0.06535933333333332
                },
                {
                    "name": "D#4",
                    "midi": 63,
                    "time": 188.823114,
                    "velocity": 0.47244094488188976,
                    "duration": 0.06535933333333332
                },
                {
                    "name": "G4",
                    "midi": 67,
                    "time": 188.823114,
                    "velocity": 0.47244094488188976,
                    "duration": 0.06535933333333332
                },
                {
                    "name": "A#4",
                    "midi": 70,
                    "time": 188.823114,
                    "velocity": 0.47244094488188976,
                    "duration": 0.06535933333333332
                },
                {
                    "name": "C#5",
                    "midi": 73,
                    "time": 188.823114,
                    "velocity": 0.47244094488188976,
                    "duration": 0.06535933333333332
                },
                {
                    "name": "D#4",
                    "midi": 63,
                    "time": 189.21527,
                    "velocity": 0.47244094488188976,
                    "duration": 0.06535933333333332
                },
                {
                    "name": "G4",
                    "midi": 67,
                    "time": 189.21527,
                    "velocity": 0.47244094488188976,
                    "duration": 0.06535933333333332
                },
                {
                    "name": "A#4",
                    "midi": 70,
                    "time": 189.21527,
                    "velocity": 0.47244094488188976,
                    "duration": 0.06535933333333332
                },
                {
                    "name": "C#5",
                    "midi": 73,
                    "time": 189.21527,
                    "velocity": 0.47244094488188976,
                    "duration": 0.06535933333333332
                },
                {
                    "name": "D#4",
                    "midi": 63,
                    "time": 189.607426,
                    "velocity": 0.47244094488188976,
                    "duration": 0.06535933333333332
                },
                {
                    "name": "G4",
                    "midi": 67,
                    "time": 189.607426,
                    "velocity": 0.47244094488188976,
                    "duration": 0.06535933333333332
                },
                {
                    "name": "A#4",
                    "midi": 70,
                    "time": 189.607426,
                    "velocity": 0.47244094488188976,
                    "duration": 0.06535933333333332
                },
                {
                    "name": "C#5",
                    "midi": 73,
                    "time": 189.607426,
                    "velocity": 0.47244094488188976,
                    "duration": 0.06535933333333332
                },
                {
                    "name": "D#4",
                    "midi": 63,
                    "time": 189.999582,
                    "velocity": 0.47244094488188976,
                    "duration": 0.06535933333333332
                },
                {
                    "name": "G#4",
                    "midi": 68,
                    "time": 189.999582,
                    "velocity": 0.47244094488188976,
                    "duration": 0.06535933333333332
                },
                {
                    "name": "C5",
                    "midi": 72,
                    "time": 189.999582,
                    "velocity": 0.47244094488188976,
                    "duration": 0.06535933333333332
                },
                {
                    "name": "D#4",
                    "midi": 63,
                    "time": 190.391738,
                    "velocity": 0.47244094488188976,
                    "duration": 0.06535933333333332
                },
                {
                    "name": "G#4",
                    "midi": 68,
                    "time": 190.391738,
                    "velocity": 0.47244094488188976,
                    "duration": 0.06535933333333332
                },
                {
                    "name": "C5",
                    "midi": 72,
                    "time": 190.391738,
                    "velocity": 0.47244094488188976,
                    "duration": 0.06535933333333332
                },
                {
                    "name": "E4",
                    "midi": 64,
                    "time": 190.783894,
                    "velocity": 0.47244094488188976,
                    "duration": 0.06535933333333332
                },
                {
                    "name": "F#4",
                    "midi": 66,
                    "time": 190.783894,
                    "velocity": 0.47244094488188976,
                    "duration": 0.06535933333333332
                },
                {
                    "name": "G#4",
                    "midi": 68,
                    "time": 190.783894,
                    "velocity": 0.47244094488188976,
                    "duration": 0.06535933333333332
                },
                {
                    "name": "C5",
                    "midi": 72,
                    "time": 190.783894,
                    "velocity": 0.47244094488188976,
                    "duration": 0.06535933333333332
                },
                {
                    "name": "E4",
                    "midi": 64,
                    "time": 191.17605,
                    "velocity": 0.47244094488188976,
                    "duration": 0.06535933333333332
                },
                {
                    "name": "F#4",
                    "midi": 66,
                    "time": 191.17605,
                    "velocity": 0.47244094488188976,
                    "duration": 0.06535933333333332
                },
                {
                    "name": "G#4",
                    "midi": 68,
                    "time": 191.17605,
                    "velocity": 0.47244094488188976,
                    "duration": 0.06535933333333332
                },
                {
                    "name": "C5",
                    "midi": 72,
                    "time": 191.17605,
                    "velocity": 0.47244094488188976,
                    "duration": 0.06535933333333332
                },
                {
                    "name": "E4",
                    "midi": 64,
                    "time": 191.568206,
                    "velocity": 0.47244094488188976,
                    "duration": 0.06535933333333332
                },
                {
                    "name": "G4",
                    "midi": 67,
                    "time": 191.568206,
                    "velocity": 0.47244094488188976,
                    "duration": 0.06535933333333332
                },
                {
                    "name": "C5",
                    "midi": 72,
                    "time": 191.568206,
                    "velocity": 0.47244094488188976,
                    "duration": 0.06535933333333332
                },
                {
                    "name": "E4",
                    "midi": 64,
                    "time": 191.960362,
                    "velocity": 0.47244094488188976,
                    "duration": 0.06535933333333332
                },
                {
                    "name": "G4",
                    "midi": 67,
                    "time": 191.960362,
                    "velocity": 0.47244094488188976,
                    "duration": 0.06535933333333332
                },
                {
                    "name": "C5",
                    "midi": 72,
                    "time": 191.960362,
                    "velocity": 0.47244094488188976,
                    "duration": 0.06535933333333332
                },
                {
                    "name": "D4",
                    "midi": 62,
                    "time": 192.352518,
                    "velocity": 0.47244094488188976,
                    "duration": 0.06535933333333332
                },
                {
                    "name": "F4",
                    "midi": 65,
                    "time": 192.352518,
                    "velocity": 0.47244094488188976,
                    "duration": 0.06535933333333332
                },
                {
                    "name": "B4",
                    "midi": 71,
                    "time": 192.352518,
                    "velocity": 0.47244094488188976,
                    "duration": 0.06535933333333332
                },
                {
                    "name": "D4",
                    "midi": 62,
                    "time": 192.744674,
                    "velocity": 0.47244094488188976,
                    "duration": 0.06535933333333332
                },
                {
                    "name": "F4",
                    "midi": 65,
                    "time": 192.744674,
                    "velocity": 0.47244094488188976,
                    "duration": 0.06535933333333332
                },
                {
                    "name": "B4",
                    "midi": 71,
                    "time": 192.744674,
                    "velocity": 0.47244094488188976,
                    "duration": 0.06535933333333332
                },
                {
                    "name": "D#4",
                    "midi": 63,
                    "time": 192.940752,
                    "velocity": 0.47244094488188976,
                    "duration": 1.5686239999999998
                },
                {
                    "name": "G#4",
                    "midi": 68,
                    "time": 192.940752,
                    "velocity": 0.47244094488188976,
                    "duration": 1.5686239999999998
                },
                {
                    "name": "C5",
                    "midi": 72,
                    "time": 192.940752,
                    "velocity": 0.47244094488188976,
                    "duration": 1.5686239999999998
                },
                {
                    "name": "D#4",
                    "midi": 63,
                    "time": 194.509376,
                    "velocity": 0.47244094488188976,
                    "duration": 1.5686239999999998
                },
                {
                    "name": "G4",
                    "midi": 67,
                    "time": 194.509376,
                    "velocity": 0.47244094488188976,
                    "duration": 1.5686239999999998
                },
                {
                    "name": "A#4",
                    "midi": 70,
                    "time": 194.509376,
                    "velocity": 0.47244094488188976,
                    "duration": 1.5686239999999998
                },
                {
                    "name": "C#5",
                    "midi": 73,
                    "time": 194.509376,
                    "velocity": 0.47244094488188976,
                    "duration": 1.5686239999999998
                },
                {
                    "name": "D#4",
                    "midi": 63,
                    "time": 196.078,
                    "velocity": 0.47244094488188976,
                    "duration": 0.7843119999999999
                },
                {
                    "name": "G#4",
                    "midi": 68,
                    "time": 196.078,
                    "velocity": 0.47244094488188976,
                    "duration": 0.7843119999999999
                },
                {
                    "name": "C5",
                    "midi": 72,
                    "time": 196.078,
                    "velocity": 0.47244094488188976,
                    "duration": 0.7843119999999999
                },
                {
                    "name": "E4",
                    "midi": 64,
                    "time": 196.862312,
                    "velocity": 0.47244094488188976,
                    "duration": 0.7843119999999999
                },
                {
                    "name": "F#4",
                    "midi": 66,
                    "time": 196.862312,
                    "velocity": 0.47244094488188976,
                    "duration": 0.7843119999999999
                },
                {
                    "name": "G#4",
                    "midi": 68,
                    "time": 196.862312,
                    "velocity": 0.47244094488188976,
                    "duration": 0.7843119999999999
                },
                {
                    "name": "C5",
                    "midi": 72,
                    "time": 196.862312,
                    "velocity": 0.47244094488188976,
                    "duration": 0.7843119999999999
                },
                {
                    "name": "E4",
                    "midi": 64,
                    "time": 197.646624,
                    "velocity": 0.47244094488188976,
                    "duration": 0.7843119999999999
                },
                {
                    "name": "G4",
                    "midi": 67,
                    "time": 197.646624,
                    "velocity": 0.47244094488188976,
                    "duration": 0.7843119999999999
                },
                {
                    "name": "C5",
                    "midi": 72,
                    "time": 197.646624,
                    "velocity": 0.47244094488188976,
                    "duration": 0.7843119999999999
                },
                {
                    "name": "D4",
                    "midi": 62,
                    "time": 198.430936,
                    "velocity": 0.47244094488188976,
                    "duration": 0.6862729999999999
                },
                {
                    "name": "G4",
                    "midi": 67,
                    "time": 198.430936,
                    "velocity": 0.47244094488188976,
                    "duration": 0.6862729999999999
                },
                {
                    "name": "B4",
                    "midi": 71,
                    "time": 198.430936,
                    "velocity": 0.47244094488188976,
                    "duration": 0.6862729999999999
                },
                {
                    "name": "E4",
                    "midi": 64,
                    "time": 199.411326,
                    "velocity": 0.47244094488188976,
                    "duration": 0.06535933333333332
                },
                {
                    "name": "G4",
                    "midi": 67,
                    "time": 199.411326,
                    "velocity": 0.47244094488188976,
                    "duration": 0.06535933333333332
                },
                {
                    "name": "C5",
                    "midi": 72,
                    "time": 199.411326,
                    "velocity": 0.47244094488188976,
                    "duration": 0.06535933333333332
                },
                {
                    "name": "E4",
                    "midi": 64,
                    "time": 199.803482,
                    "velocity": 0.47244094488188976,
                    "duration": 0.06535933333333332
                },
                {
                    "name": "G4",
                    "midi": 67,
                    "time": 199.803482,
                    "velocity": 0.47244094488188976,
                    "duration": 0.06535933333333332
                },
                {
                    "name": "C#5",
                    "midi": 73,
                    "time": 199.803482,
                    "velocity": 0.47244094488188976,
                    "duration": 0.06535933333333332
                },
                {
                    "name": "F4",
                    "midi": 65,
                    "time": 200.195638,
                    "velocity": 0.47244094488188976,
                    "duration": 0.06535933333333332
                },
                {
                    "name": "A4",
                    "midi": 69,
                    "time": 200.195638,
                    "velocity": 0.47244094488188976,
                    "duration": 0.06535933333333332
                },
                {
                    "name": "D5",
                    "midi": 74,
                    "time": 200.195638,
                    "velocity": 0.47244094488188976,
                    "duration": 0.06535933333333332
                },
                {
                    "name": "D4",
                    "midi": 62,
                    "time": 200.587794,
                    "velocity": 0.47244094488188976,
                    "duration": 0.06535933333333332
                },
                {
                    "name": "G4",
                    "midi": 67,
                    "time": 200.587794,
                    "velocity": 0.47244094488188976,
                    "duration": 0.06535933333333332
                },
                {
                    "name": "B4",
                    "midi": 71,
                    "time": 200.587794,
                    "velocity": 0.47244094488188976,
                    "duration": 0.06535933333333332
                },
                {
                    "name": "E4",
                    "midi": 64,
                    "time": 200.97995,
                    "velocity": 0.47244094488188976,
                    "duration": 0.06535933333333332
                },
                {
                    "name": "G4",
                    "midi": 67,
                    "time": 200.97995,
                    "velocity": 0.47244094488188976,
                    "duration": 0.06535933333333332
                },
                {
                    "name": "C5",
                    "midi": 72,
                    "time": 200.97995,
                    "velocity": 0.47244094488188976,
                    "duration": 0.06535933333333332
                },
                {
                    "name": "E4",
                    "midi": 64,
                    "time": 201.372106,
                    "velocity": 0.47244094488188976,
                    "duration": 0.06535933333333332
                },
                {
                    "name": "F4",
                    "midi": 65,
                    "time": 201.372106,
                    "velocity": 0.47244094488188976,
                    "duration": 0.06535933333333332
                },
                {
                    "name": "C5",
                    "midi": 72,
                    "time": 201.372106,
                    "velocity": 0.47244094488188976,
                    "duration": 0.06535933333333332
                },
                {
                    "name": "D4",
                    "midi": 62,
                    "time": 201.764262,
                    "velocity": 0.47244094488188976,
                    "duration": 0.06535933333333332
                },
                {
                    "name": "F4",
                    "midi": 65,
                    "time": 201.764262,
                    "velocity": 0.47244094488188976,
                    "duration": 0.06535933333333332
                },
                {
                    "name": "B4",
                    "midi": 71,
                    "time": 201.764262,
                    "velocity": 0.47244094488188976,
                    "duration": 0.06535933333333332
                },
                {
                    "name": "D4",
                    "midi": 62,
                    "time": 202.156418,
                    "velocity": 0.47244094488188976,
                    "duration": 0.06535933333333332
                },
                {
                    "name": "E4",
                    "midi": 64,
                    "time": 202.156418,
                    "velocity": 0.47244094488188976,
                    "duration": 0.06535933333333332
                },
                {
                    "name": "B4",
                    "midi": 71,
                    "time": 202.156418,
                    "velocity": 0.47244094488188976,
                    "duration": 0.06535933333333332
                },
                {
                    "name": "C4",
                    "midi": 60,
                    "time": 202.548574,
                    "velocity": 0.47244094488188976,
                    "duration": 0.06535933333333332
                },
                {
                    "name": "E4",
                    "midi": 64,
                    "time": 202.548574,
                    "velocity": 0.47244094488188976,
                    "duration": 0.06535933333333332
                },
                {
                    "name": "A4",
                    "midi": 69,
                    "time": 202.548574,
                    "velocity": 0.47244094488188976,
                    "duration": 0.06535933333333332
                },
                {
                    "name": "C4",
                    "midi": 60,
                    "time": 202.94073,
                    "velocity": 0.47244094488188976,
                    "duration": 0.06535933333333332
                },
                {
                    "name": "D4",
                    "midi": 62,
                    "time": 202.94073,
                    "velocity": 0.47244094488188976,
                    "duration": 0.06535933333333332
                },
                {
                    "name": "F#4",
                    "midi": 66,
                    "time": 202.94073,
                    "velocity": 0.47244094488188976,
                    "duration": 0.06535933333333332
                },
                {
                    "name": "A4",
                    "midi": 69,
                    "time": 202.94073,
                    "velocity": 0.47244094488188976,
                    "duration": 0.06535933333333332
                },
                {
                    "name": "D4",
                    "midi": 62,
                    "time": 203.332886,
                    "velocity": 0.47244094488188976,
                    "duration": 0.06535933333333332
                },
                {
                    "name": "G4",
                    "midi": 67,
                    "time": 203.332886,
                    "velocity": 0.47244094488188976,
                    "duration": 0.06535933333333332
                },
                {
                    "name": "B4",
                    "midi": 71,
                    "time": 203.332886,
                    "velocity": 0.47244094488188976,
                    "duration": 0.06535933333333332
                },
                {
                    "name": "D4",
                    "midi": 62,
                    "time": 203.725042,
                    "velocity": 0.47244094488188976,
                    "duration": 0.06535933333333332
                },
                {
                    "name": "G4",
                    "midi": 67,
                    "time": 203.725042,
                    "velocity": 0.47244094488188976,
                    "duration": 0.06535933333333332
                },
                {
                    "name": "B4",
                    "midi": 71,
                    "time": 203.725042,
                    "velocity": 0.47244094488188976,
                    "duration": 0.06535933333333332
                },
                {
                    "name": "C4",
                    "midi": 60,
                    "time": 204.117198,
                    "velocity": 0.47244094488188976,
                    "duration": 0.06535933333333332
                },
                {
                    "name": "E4",
                    "midi": 64,
                    "time": 204.117198,
                    "velocity": 0.47244094488188976,
                    "duration": 0.06535933333333332
                },
                {
                    "name": "G4",
                    "midi": 67,
                    "time": 204.117198,
                    "velocity": 0.47244094488188976,
                    "duration": 0.06535933333333332
                },
                {
                    "name": "C5",
                    "midi": 72,
                    "time": 204.117198,
                    "velocity": 0.47244094488188976,
                    "duration": 0.06535933333333332
                },
                {
                    "name": "C4",
                    "midi": 60,
                    "time": 204.509354,
                    "velocity": 0.47244094488188976,
                    "duration": 0.06535933333333332
                },
                {
                    "name": "F4",
                    "midi": 65,
                    "time": 204.509354,
                    "velocity": 0.47244094488188976,
                    "duration": 0.06535933333333332
                },
                {
                    "name": "A4",
                    "midi": 69,
                    "time": 204.509354,
                    "velocity": 0.47244094488188976,
                    "duration": 0.06535933333333332
                },
                {
                    "name": "C4",
                    "midi": 60,
                    "time": 204.90151,
                    "velocity": 0.47244094488188976,
                    "duration": 0.06535933333333332
                },
                {
                    "name": "E4",
                    "midi": 64,
                    "time": 204.90151,
                    "velocity": 0.47244094488188976,
                    "duration": 0.06535933333333332
                },
                {
                    "name": "G4",
                    "midi": 67,
                    "time": 204.90151,
                    "velocity": 0.47244094488188976,
                    "duration": 0.06535933333333332
                },
                {
                    "name": "F4",
                    "midi": 65,
                    "time": 205.293666,
                    "velocity": 0.47244094488188976,
                    "duration": 0.06535933333333332
                },
                {
                    "name": "G4",
                    "midi": 67,
                    "time": 205.293666,
                    "velocity": 0.47244094488188976,
                    "duration": 0.06535933333333332
                },
                {
                    "name": "B4",
                    "midi": 71,
                    "time": 205.293666,
                    "velocity": 0.47244094488188976,
                    "duration": 0.06535933333333332
                },
                {
                    "name": "E4",
                    "midi": 64,
                    "time": 205.685822,
                    "velocity": 0.47244094488188976,
                    "duration": 0.06535933333333332
                },
                {
                    "name": "G4",
                    "midi": 67,
                    "time": 205.685822,
                    "velocity": 0.47244094488188976,
                    "duration": 0.06535933333333332
                },
                {
                    "name": "C5",
                    "midi": 72,
                    "time": 205.685822,
                    "velocity": 0.47244094488188976,
                    "duration": 0.06535933333333332
                },
                {
                    "name": "E4",
                    "midi": 64,
                    "time": 206.077978,
                    "velocity": 0.47244094488188976,
                    "duration": 0.06535933333333332
                },
                {
                    "name": "A4",
                    "midi": 69,
                    "time": 206.077978,
                    "velocity": 0.47244094488188976,
                    "duration": 0.06535933333333332
                },
                {
                    "name": "C#5",
                    "midi": 73,
                    "time": 206.077978,
                    "velocity": 0.47244094488188976,
                    "duration": 0.06535933333333332
                },
                {
                    "name": "D4",
                    "midi": 62,
                    "time": 206.470134,
                    "velocity": 0.47244094488188976,
                    "duration": 0.06535933333333332
                },
                {
                    "name": "F4",
                    "midi": 65,
                    "time": 206.470134,
                    "velocity": 0.47244094488188976,
                    "duration": 0.06535933333333332
                },
                {
                    "name": "A4",
                    "midi": 69,
                    "time": 206.470134,
                    "velocity": 0.47244094488188976,
                    "duration": 0.06535933333333332
                },
                {
                    "name": "D5",
                    "midi": 74,
                    "time": 206.470134,
                    "velocity": 0.47244094488188976,
                    "duration": 0.06535933333333332
                },
                {
                    "name": "D4",
                    "midi": 62,
                    "time": 206.86229,
                    "velocity": 0.47244094488188976,
                    "duration": 0.06535933333333332
                },
                {
                    "name": "G4",
                    "midi": 67,
                    "time": 206.86229,
                    "velocity": 0.47244094488188976,
                    "duration": 0.06535933333333332
                },
                {
                    "name": "B4",
                    "midi": 71,
                    "time": 206.86229,
                    "velocity": 0.47244094488188976,
                    "duration": 0.06535933333333332
                },
                {
                    "name": "E4",
                    "midi": 64,
                    "time": 207.254446,
                    "velocity": 0.47244094488188976,
                    "duration": 0.06535933333333332
                },
                {
                    "name": "G4",
                    "midi": 67,
                    "time": 207.254446,
                    "velocity": 0.47244094488188976,
                    "duration": 0.06535933333333332
                },
                {
                    "name": "C5",
                    "midi": 72,
                    "time": 207.254446,
                    "velocity": 0.47244094488188976,
                    "duration": 0.06535933333333332
                },
                {
                    "name": "E4",
                    "midi": 64,
                    "time": 207.646602,
                    "velocity": 0.47244094488188976,
                    "duration": 0.06535933333333332
                },
                {
                    "name": "F4",
                    "midi": 65,
                    "time": 207.646602,
                    "velocity": 0.47244094488188976,
                    "duration": 0.06535933333333332
                },
                {
                    "name": "C5",
                    "midi": 72,
                    "time": 207.646602,
                    "velocity": 0.47244094488188976,
                    "duration": 0.06535933333333332
                },
                {
                    "name": "D4",
                    "midi": 62,
                    "time": 208.038758,
                    "velocity": 0.47244094488188976,
                    "duration": 0.06535933333333332
                },
                {
                    "name": "F4",
                    "midi": 65,
                    "time": 208.038758,
                    "velocity": 0.47244094488188976,
                    "duration": 0.06535933333333332
                },
                {
                    "name": "B4",
                    "midi": 71,
                    "time": 208.038758,
                    "velocity": 0.47244094488188976,
                    "duration": 0.06535933333333332
                },
                {
                    "name": "D5",
                    "midi": 74,
                    "time": 208.038758,
                    "velocity": 0.47244094488188976,
                    "duration": 0.06535933333333332
                },
                {
                    "name": "D4",
                    "midi": 62,
                    "time": 208.430914,
                    "velocity": 0.47244094488188976,
                    "duration": 0.06535933333333332
                },
                {
                    "name": "E4",
                    "midi": 64,
                    "time": 208.430914,
                    "velocity": 0.47244094488188976,
                    "duration": 0.06535933333333332
                },
                {
                    "name": "G#4",
                    "midi": 68,
                    "time": 208.430914,
                    "velocity": 0.47244094488188976,
                    "duration": 0.06535933333333332
                },
                {
                    "name": "C4",
                    "midi": 60,
                    "time": 208.82307,
                    "velocity": 0.47244094488188976,
                    "duration": 0.06535933333333332
                },
                {
                    "name": "E4",
                    "midi": 64,
                    "time": 208.82307,
                    "velocity": 0.47244094488188976,
                    "duration": 0.06535933333333332
                },
                {
                    "name": "A4",
                    "midi": 69,
                    "time": 208.82307,
                    "velocity": 0.47244094488188976,
                    "duration": 0.06535933333333332
                },
                {
                    "name": "C4",
                    "midi": 60,
                    "time": 209.215226,
                    "velocity": 0.47244094488188976,
                    "duration": 0.06535933333333332
                },
                {
                    "name": "D4",
                    "midi": 62,
                    "time": 209.215226,
                    "velocity": 0.47244094488188976,
                    "duration": 0.06535933333333332
                },
                {
                    "name": "F#4",
                    "midi": 66,
                    "time": 209.215226,
                    "velocity": 0.47244094488188976,
                    "duration": 0.06535933333333332
                },
                {
                    "name": "B3",
                    "midi": 59,
                    "time": 209.607382,
                    "velocity": 0.47244094488188976,
                    "duration": 0.06535933333333332
                },
                {
                    "name": "D4",
                    "midi": 62,
                    "time": 209.607382,
                    "velocity": 0.47244094488188976,
                    "duration": 0.06535933333333332
                },
                {
                    "name": "G4",
                    "midi": 67,
                    "time": 209.607382,
                    "velocity": 0.47244094488188976,
                    "duration": 0.06535933333333332
                },
                {
                    "name": "D4",
                    "midi": 62,
                    "time": 209.999538,
                    "velocity": 0.47244094488188976,
                    "duration": 0.06535933333333332
                },
                {
                    "name": "G4",
                    "midi": 67,
                    "time": 209.999538,
                    "velocity": 0.47244094488188976,
                    "duration": 0.06535933333333332
                },
                {
                    "name": "B4",
                    "midi": 71,
                    "time": 209.999538,
                    "velocity": 0.47244094488188976,
                    "duration": 0.06535933333333332
                },
                {
                    "name": "C4",
                    "midi": 60,
                    "time": 210.391694,
                    "velocity": 0.47244094488188976,
                    "duration": 0.06535933333333332
                },
                {
                    "name": "E4",
                    "midi": 64,
                    "time": 210.391694,
                    "velocity": 0.47244094488188976,
                    "duration": 0.06535933333333332
                },
                {
                    "name": "G4",
                    "midi": 67,
                    "time": 210.391694,
                    "velocity": 0.47244094488188976,
                    "duration": 0.06535933333333332
                },
                {
                    "name": "C5",
                    "midi": 72,
                    "time": 210.391694,
                    "velocity": 0.47244094488188976,
                    "duration": 0.06535933333333332
                },
                {
                    "name": "D4",
                    "midi": 62,
                    "time": 210.78385,
                    "velocity": 0.47244094488188976,
                    "duration": 0.06535933333333332
                },
                {
                    "name": "F4",
                    "midi": 65,
                    "time": 210.78385,
                    "velocity": 0.47244094488188976,
                    "duration": 0.06535933333333332
                },
                {
                    "name": "A4",
                    "midi": 69,
                    "time": 210.78385,
                    "velocity": 0.47244094488188976,
                    "duration": 0.06535933333333332
                },
                {
                    "name": "C4",
                    "midi": 60,
                    "time": 211.176006,
                    "velocity": 0.47244094488188976,
                    "duration": 0.06535933333333332
                },
                {
                    "name": "E4",
                    "midi": 64,
                    "time": 211.176006,
                    "velocity": 0.47244094488188976,
                    "duration": 0.06535933333333332
                },
                {
                    "name": "G4",
                    "midi": 67,
                    "time": 211.176006,
                    "velocity": 0.47244094488188976,
                    "duration": 0.06535933333333332
                },
                {
                    "name": "F4",
                    "midi": 65,
                    "time": 211.568162,
                    "velocity": 0.47244094488188976,
                    "duration": 0.06535933333333332
                },
                {
                    "name": "G4",
                    "midi": 67,
                    "time": 211.568162,
                    "velocity": 0.47244094488188976,
                    "duration": 0.06535933333333332
                },
                {
                    "name": "B4",
                    "midi": 71,
                    "time": 211.568162,
                    "velocity": 0.47244094488188976,
                    "duration": 0.06535933333333332
                },
                {
                    "name": "E4",
                    "midi": 64,
                    "time": 212.156396,
                    "velocity": 0.47244094488188976,
                    "duration": 0.3267966666666666
                },
                {
                    "name": "G4",
                    "midi": 67,
                    "time": 212.156396,
                    "velocity": 0.47244094488188976,
                    "duration": 0.3267966666666666
                },
                {
                    "name": "C5",
                    "midi": 72,
                    "time": 212.156396,
                    "velocity": 0.47244094488188976,
                    "duration": 0.3267966666666666
                },
                {
                    "name": "F4",
                    "midi": 65,
                    "time": 212.940708,
                    "velocity": 0.47244094488188976,
                    "duration": 0.3267966666666666
                },
                {
                    "name": "G4",
                    "midi": 67,
                    "time": 212.940708,
                    "velocity": 0.47244094488188976,
                    "duration": 0.3267966666666666
                },
                {
                    "name": "B4",
                    "midi": 71,
                    "time": 212.940708,
                    "velocity": 0.47244094488188976,
                    "duration": 0.3267966666666666
                },
                {
                    "name": "E4",
                    "midi": 64,
                    "time": 213.72502,
                    "velocity": 0.47244094488188976,
                    "duration": 0.3267966666666666
                },
                {
                    "name": "G4",
                    "midi": 67,
                    "time": 213.72502,
                    "velocity": 0.47244094488188976,
                    "duration": 0.3267966666666666
                },
                {
                    "name": "C5",
                    "midi": 72,
                    "time": 213.72502,
                    "velocity": 0.47244094488188976,
                    "duration": 0.3267966666666666
                },
                {
                    "name": "F4",
                    "midi": 65,
                    "time": 214.509332,
                    "velocity": 0.47244094488188976,
                    "duration": 0.3267966666666666
                },
                {
                    "name": "G4",
                    "midi": 67,
                    "time": 214.509332,
                    "velocity": 0.47244094488188976,
                    "duration": 0.3267966666666666
                },
                {
                    "name": "B4",
                    "midi": 71,
                    "time": 214.509332,
                    "velocity": 0.47244094488188976,
                    "duration": 0.3267966666666666
                },
                {
                    "name": "E4",
                    "midi": 64,
                    "time": 215.293644,
                    "velocity": 0.47244094488188976,
                    "duration": 0.3267966666666666
                },
                {
                    "name": "G4",
                    "midi": 67,
                    "time": 215.293644,
                    "velocity": 0.47244094488188976,
                    "duration": 0.3267966666666666
                },
                {
                    "name": "C5",
                    "midi": 72,
                    "time": 215.293644,
                    "velocity": 0.47244094488188976,
                    "duration": 0.3267966666666666
                },
                {
                    "name": "F4",
                    "midi": 65,
                    "time": 216.077956,
                    "velocity": 0.47244094488188976,
                    "duration": 0.3267966666666666
                },
                {
                    "name": "G4",
                    "midi": 67,
                    "time": 216.077956,
                    "velocity": 0.47244094488188976,
                    "duration": 0.3267966666666666
                },
                {
                    "name": "B4",
                    "midi": 71,
                    "time": 216.077956,
                    "velocity": 0.47244094488188976,
                    "duration": 0.3267966666666666
                },
                {
                    "name": "E4",
                    "midi": 64,
                    "time": 216.862268,
                    "velocity": 0.47244094488188976,
                    "duration": 0.3267966666666666
                },
                {
                    "name": "G4",
                    "midi": 67,
                    "time": 216.862268,
                    "velocity": 0.47244094488188976,
                    "duration": 0.3267966666666666
                },
                {
                    "name": "C5",
                    "midi": 72,
                    "time": 216.862268,
                    "velocity": 0.47244094488188976,
                    "duration": 0.3267966666666666
                },
                {
                    "name": "F4",
                    "midi": 65,
                    "time": 217.64658,
                    "velocity": 0.47244094488188976,
                    "duration": 0.39215599999999995
                },
                {
                    "name": "G4",
                    "midi": 67,
                    "time": 217.64658,
                    "velocity": 0.47244094488188976,
                    "duration": 0.39215599999999995
                },
                {
                    "name": "B4",
                    "midi": 71,
                    "time": 217.64658,
                    "velocity": 0.47244094488188976,
                    "duration": 0.39215599999999995
                },
                {
                    "name": "E4",
                    "midi": 64,
                    "time": 218.038736,
                    "velocity": 0.5511811023622047,
                    "duration": 0.39215599999999995
                },
                {
                    "name": "G4",
                    "midi": 67,
                    "time": 218.038736,
                    "velocity": 0.5511811023622047,
                    "duration": 0.39215599999999995
                },
                {
                    "name": "C5",
                    "midi": 72,
                    "time": 218.038736,
                    "velocity": 0.5511811023622047,
                    "duration": 0.39215599999999995
                },
                {
                    "name": "F4",
                    "midi": 65,
                    "time": 218.430892,
                    "velocity": 0.6377952755905512,
                    "duration": 0.39215599999999995
                },
                {
                    "name": "G4",
                    "midi": 67,
                    "time": 218.430892,
                    "velocity": 0.6377952755905512,
                    "duration": 0.39215599999999995
                },
                {
                    "name": "B4",
                    "midi": 71,
                    "time": 218.430892,
                    "velocity": 0.6377952755905512,
                    "duration": 0.39215599999999995
                },
                {
                    "name": "E4",
                    "midi": 64,
                    "time": 218.823048,
                    "velocity": 0.7244094488188977,
                    "duration": 0.39215599999999995
                },
                {
                    "name": "G4",
                    "midi": 67,
                    "time": 218.823048,
                    "velocity": 0.7244094488188977,
                    "duration": 0.39215599999999995
                },
                {
                    "name": "C5",
                    "midi": 72,
                    "time": 218.823048,
                    "velocity": 0.7244094488188977,
                    "duration": 0.39215599999999995
                },
                {
                    "name": "G4",
                    "midi": 67,
                    "time": 219.215204,
                    "velocity": 0.7244094488188977,
                    "duration": 0.39215599999999995
                },
                {
                    "name": "B4",
                    "midi": 71,
                    "time": 219.215204,
                    "velocity": 0.7244094488188977,
                    "duration": 0.39215599999999995
                },
                {
                    "name": "D5",
                    "midi": 74,
                    "time": 219.215204,
                    "velocity": 0.7244094488188977,
                    "duration": 0.39215599999999995
                },
                {
                    "name": "G4",
                    "midi": 67,
                    "time": 219.60736,
                    "velocity": 0.7244094488188977,
                    "duration": 0.39215599999999995
                },
                {
                    "name": "C5",
                    "midi": 72,
                    "time": 219.60736,
                    "velocity": 0.7244094488188977,
                    "duration": 0.39215599999999995
                },
                {
                    "name": "E5",
                    "midi": 76,
                    "time": 219.60736,
                    "velocity": 0.7244094488188977,
                    "duration": 0.39215599999999995
                },
                {
                    "name": "B4",
                    "midi": 71,
                    "time": 219.999516,
                    "velocity": 0.7244094488188977,
                    "duration": 0.39215599999999995
                },
                {
                    "name": "D5",
                    "midi": 74,
                    "time": 219.999516,
                    "velocity": 0.7244094488188977,
                    "duration": 0.39215599999999995
                },
                {
                    "name": "G5",
                    "midi": 79,
                    "time": 219.999516,
                    "velocity": 0.7244094488188977,
                    "duration": 0.39215599999999995
                },
                {
                    "name": "C5",
                    "midi": 72,
                    "time": 220.391672,
                    "velocity": 0.7244094488188977,
                    "duration": 0.39215599999999995
                },
                {
                    "name": "E5",
                    "midi": 76,
                    "time": 220.391672,
                    "velocity": 0.7244094488188977,
                    "duration": 0.39215599999999995
                },
                {
                    "name": "G5",
                    "midi": 79,
                    "time": 220.391672,
                    "velocity": 0.7244094488188977,
                    "duration": 0.39215599999999995
                },
                {
                    "name": "D5",
                    "midi": 74,
                    "time": 220.783828,
                    "velocity": 0.7244094488188977,
                    "duration": 0.39215599999999995
                },
                {
                    "name": "G5",
                    "midi": 79,
                    "time": 220.783828,
                    "velocity": 0.7244094488188977,
                    "duration": 0.39215599999999995
                },
                {
                    "name": "B5",
                    "midi": 83,
                    "time": 220.783828,
                    "velocity": 0.7244094488188977,
                    "duration": 0.39215599999999995
                },
                {
                    "name": "E5",
                    "midi": 76,
                    "time": 221.175984,
                    "velocity": 0.7244094488188977,
                    "duration": 0.1919930416666773
                },
                {
                    "name": "G5",
                    "midi": 79,
                    "time": 221.175984,
                    "velocity": 0.7244094488188977,
                    "duration": 0.1919930416666773
                },
                {
                    "name": "C6",
                    "midi": 84,
                    "time": 221.175984,
                    "velocity": 0.7244094488188977,
                    "duration": 0.1919930416666773
                },
                {
                    "name": "E5",
                    "midi": 76,
                    "time": 222.744608,
                    "velocity": 0.7244094488188977,
                    "duration": 0.1919930416666773
                },
                {
                    "name": "G5",
                    "midi": 79,
                    "time": 222.744608,
                    "velocity": 0.7244094488188977,
                    "duration": 0.1919930416666773
                },
                {
                    "name": "C6",
                    "midi": 84,
                    "time": 222.744608,
                    "velocity": 0.7244094488188977,
                    "duration": 0.1919930416666773
                },
                {
                    "name": "E4",
                    "midi": 64,
                    "time": 224.313232,
                    "velocity": 0.7244094488188977,
                    "duration": 0.1919930416666773
                },
                {
                    "name": "G4",
                    "midi": 67,
                    "time": 224.313232,
                    "velocity": 0.7244094488188977,
                    "duration": 0.1919930416666773
                },
                {
                    "name": "C5",
                    "midi": 72,
                    "time": 224.313232,
                    "velocity": 0.7244094488188977,
                    "duration": 0.1919930416666773
                },
                {
                    "name": "E4",
                    "midi": 64,
                    "time": 225.881856,
                    "velocity": 0.7244094488188977,
                    "duration": 0.3267966666666666
                },
                {
                    "name": "G4",
                    "midi": 67,
                    "time": 225.881856,
                    "velocity": 0.7244094488188977,
                    "duration": 0.3267966666666666
                },
                {
                    "name": "C5",
                    "midi": 72,
                    "time": 225.881856,
                    "velocity": 0.7244094488188977,
                    "duration": 0.3267966666666666
                },
                {
                    "name": "E4",
                    "midi": 64,
                    "time": 226.274012,
                    "velocity": 0.7244094488188977,
                    "duration": 0.3267966666666666
                },
                {
                    "name": "G4",
                    "midi": 67,
                    "time": 226.274012,
                    "velocity": 0.7244094488188977,
                    "duration": 0.3267966666666666
                },
                {
                    "name": "C5",
                    "midi": 72,
                    "time": 226.274012,
                    "velocity": 0.7244094488188977,
                    "duration": 0.3267966666666666
                },
                {
                    "name": "E4",
                    "midi": 64,
                    "time": 226.666168,
                    "velocity": 0.7244094488188977,
                    "duration": 0.6862729999999999
                },
                {
                    "name": "G4",
                    "midi": 67,
                    "time": 226.666168,
                    "velocity": 0.7244094488188977,
                    "duration": 0.6862729999999999
                },
                {
                    "name": "C5",
                    "midi": 72,
                    "time": 226.666168,
                    "velocity": 0.7244094488188977,
                    "duration": 0.6862729999999999
                },
                {
                    "name": "E4",
                    "midi": 64,
                    "time": 227.45048,
                    "velocity": 1,
                    "duration": 0.1919930416666773
                },
                {
                    "name": "G4",
                    "midi": 67,
                    "time": 227.45048,
                    "velocity": 1,
                    "duration": 0.1919930416666773
                },
                {
                    "name": "C5",
                    "midi": 72,
                    "time": 227.45048,
                    "velocity": 1,
                    "duration": 0.1919930416666773
                }
            ],
            "controlChanges": {
                "7": [
                    {
                        "number": 7,
                        "time": 0,
                        "value": 1
                    }
                ],
                "10": [
                    {
                        "number": 10,
                        "time": 0,
                        "value": 0.16535433070866143
                    }
                ],
                "91": [
                    {
                        "number": 91,
                        "time": 0,
                        "value": 0.48031496062992124
                    }
                ]
            },
            "id": 6,
            "instrumentNumber": 24,
            "instrument": "acoustic guitar (nylon)",
            "instrumentFamily": "guitar",
            "channelNumber": 3,
            "isPercussion": false
        },
        {
            "startTime": 8.627432,
            "duration": 227.51583933333333,
            "length": 490,
            "notes": [
                {
                    "name": "G3",
                    "midi": 55,
                    "time": 8.627432,
                    "velocity": 0.47244094488188976,
                    "duration": 0.7843119999999999
                },
                {
                    "name": "F3",
                    "midi": 53,
                    "time": 9.411744,
                    "velocity": 0.47244094488188976,
                    "duration": 0.7843119999999999
                },
                {
                    "name": "E3",
                    "midi": 52,
                    "time": 10.196056,
                    "velocity": 0.47244094488188976,
                    "duration": 0.39215599999999995
                },
                {
                    "name": "F#3",
                    "midi": 54,
                    "time": 10.588212,
                    "velocity": 0.47244094488188976,
                    "duration": 0.39215599999999995
                },
                {
                    "name": "G3",
                    "midi": 55,
                    "time": 10.980368,
                    "velocity": 0.47244094488188976,
                    "duration": 0.19199304166666664
                },
                {
                    "name": "F3",
                    "midi": 53,
                    "time": 15.68624,
                    "velocity": 0.47244094488188976,
                    "duration": 0.7843120000000017
                },
                {
                    "name": "E3",
                    "midi": 52,
                    "time": 16.470552,
                    "velocity": 0.47244094488188976,
                    "duration": 0.7843119999999999
                },
                {
                    "name": "D3",
                    "midi": 50,
                    "time": 17.254864,
                    "velocity": 0.47244094488188976,
                    "duration": 0.7843119999999999
                },
                {
                    "name": "C3",
                    "midi": 48,
                    "time": 18.039176,
                    "velocity": 0.47244094488188976,
                    "duration": 0.7843119999999999
                },
                {
                    "name": "B2",
                    "midi": 47,
                    "time": 18.823488,
                    "velocity": 0.47244094488188976,
                    "duration": 0.19199304166666664
                },
                {
                    "name": "A2",
                    "midi": 45,
                    "time": 30.588168000000003,
                    "velocity": 0.47244094488188976,
                    "duration": 0.7843119999999999
                },
                {
                    "name": "E3",
                    "midi": 52,
                    "time": 31.372480000000003,
                    "velocity": 0.47244094488188976,
                    "duration": 0.7843119999999999
                },
                {
                    "name": "A2",
                    "midi": 45,
                    "time": 32.156792,
                    "velocity": 0.47244094488188976,
                    "duration": 0.7843119999999999
                },
                {
                    "name": "D3",
                    "midi": 50,
                    "time": 32.941104,
                    "velocity": 0.47244094488188976,
                    "duration": 0.7843119999999999
                },
                {
                    "name": "G2",
                    "midi": 43,
                    "time": 33.725416,
                    "velocity": 0.47244094488188976,
                    "duration": 0.7843119999999999
                },
                {
                    "name": "E3",
                    "midi": 52,
                    "time": 34.509728,
                    "velocity": 0.47244094488188976,
                    "duration": 0.7843119999999999
                },
                {
                    "name": "A2",
                    "midi": 45,
                    "time": 35.29404,
                    "velocity": 0.47244094488188976,
                    "duration": 0.7843119999999999
                },
                {
                    "name": "D3",
                    "midi": 50,
                    "time": 36.078352,
                    "velocity": 0.47244094488188976,
                    "duration": 0.1919930416666702
                },
                {
                    "name": "G3",
                    "midi": 55,
                    "time": 37.64697600000001,
                    "velocity": 0.47244094488188976,
                    "duration": 0.06535933333333332
                },
                {
                    "name": "E3",
                    "midi": 52,
                    "time": 38.03913200000001,
                    "velocity": 0.47244094488188976,
                    "duration": 0.06535933333333332
                },
                {
                    "name": "A3",
                    "midi": 57,
                    "time": 38.43128800000001,
                    "velocity": 0.47244094488188976,
                    "duration": 0.06535933333333332
                },
                {
                    "name": "A2",
                    "midi": 45,
                    "time": 38.82344400000001,
                    "velocity": 0.47244094488188976,
                    "duration": 0.06535933333333332
                },
                {
                    "name": "D3",
                    "midi": 50,
                    "time": 39.21560000000001,
                    "velocity": 0.47244094488188976,
                    "duration": 0.06535933333333332
                },
                {
                    "name": "G3",
                    "midi": 55,
                    "time": 40.78422400000001,
                    "velocity": 0.47244094488188976,
                    "duration": 0.06535933333333332
                },
                {
                    "name": "E3",
                    "midi": 52,
                    "time": 41.17638000000001,
                    "velocity": 0.47244094488188976,
                    "duration": 0.06535933333333332
                },
                {
                    "name": "A3",
                    "midi": 57,
                    "time": 41.56853600000001,
                    "velocity": 0.47244094488188976,
                    "duration": 0.06535933333333332
                },
                {
                    "name": "A2",
                    "midi": 45,
                    "time": 41.96069200000001,
                    "velocity": 0.47244094488188976,
                    "duration": 0.06535933333333332
                },
                {
                    "name": "D3",
                    "midi": 50,
                    "time": 42.35284800000001,
                    "velocity": 0.47244094488188976,
                    "duration": 0.06535933333333332
                },
                {
                    "name": "A3",
                    "midi": 57,
                    "time": 42.74500400000001,
                    "velocity": 0.47244094488188976,
                    "duration": 0.39215599999999995
                },
                {
                    "name": "D3",
                    "midi": 50,
                    "time": 43.13716000000001,
                    "velocity": 0.47244094488188976,
                    "duration": 0.39215599999999995
                },
                {
                    "name": "A2",
                    "midi": 45,
                    "time": 43.52931600000001,
                    "velocity": 0.47244094488188976,
                    "duration": 0.39215599999999995
                },
                {
                    "name": "D3",
                    "midi": 50,
                    "time": 43.92147200000001,
                    "velocity": 0.47244094488188976,
                    "duration": 0.39215599999999995
                },
                {
                    "name": "A3",
                    "midi": 57,
                    "time": 44.31362800000001,
                    "velocity": 0.47244094488188976,
                    "duration": 0.39215599999999995
                },
                {
                    "name": "D3",
                    "midi": 50,
                    "time": 44.70578400000001,
                    "velocity": 0.47244094488188976,
                    "duration": 0.39215599999999995
                },
                {
                    "name": "A2",
                    "midi": 45,
                    "time": 45.09794000000001,
                    "velocity": 0.47244094488188976,
                    "duration": 0.39215599999999995
                },
                {
                    "name": "D3",
                    "midi": 50,
                    "time": 45.49009600000001,
                    "velocity": 0.47244094488188976,
                    "duration": 0.1919930416666702
                },
                {
                    "name": "G3",
                    "midi": 55,
                    "time": 51.764592000000015,
                    "velocity": 0.47244094488188976,
                    "duration": 0.39215599999999995
                },
                {
                    "name": "E3",
                    "midi": 52,
                    "time": 52.156748000000015,
                    "velocity": 0.47244094488188976,
                    "duration": 0.39215599999999995
                },
                {
                    "name": "A2",
                    "midi": 45,
                    "time": 52.548904000000014,
                    "velocity": 0.47244094488188976,
                    "duration": 0.39215599999999995
                },
                {
                    "name": "D3",
                    "midi": 50,
                    "time": 52.941060000000014,
                    "velocity": 0.47244094488188976,
                    "duration": 0.39215599999999995
                },
                {
                    "name": "G2",
                    "midi": 43,
                    "time": 53.333216000000014,
                    "velocity": 0.47244094488188976,
                    "duration": 0.39215599999999995
                },
                {
                    "name": "C3",
                    "midi": 48,
                    "time": 53.725372000000014,
                    "velocity": 0.47244094488188976,
                    "duration": 0.39215599999999995
                },
                {
                    "name": "F#2",
                    "midi": 42,
                    "time": 54.117528000000014,
                    "velocity": 0.47244094488188976,
                    "duration": 0.39215599999999995
                },
                {
                    "name": "B2",
                    "midi": 47,
                    "time": 54.509684000000014,
                    "velocity": 0.47244094488188976,
                    "duration": 0.39215599999999995
                },
                {
                    "name": "E2",
                    "midi": 40,
                    "time": 54.901840000000014,
                    "velocity": 0.47244094488188976,
                    "duration": 0.39215599999999995
                },
                {
                    "name": "A2",
                    "midi": 45,
                    "time": 55.293996000000014,
                    "velocity": 0.47244094488188976,
                    "duration": 0.39215599999999995
                },
                {
                    "name": "D3",
                    "midi": 50,
                    "time": 55.686152000000014,
                    "velocity": 0.47244094488188976,
                    "duration": 0.39215599999999995
                },
                {
                    "name": "C3",
                    "midi": 48,
                    "time": 56.078308000000014,
                    "velocity": 0.47244094488188976,
                    "duration": 0.39215599999999995
                },
                {
                    "name": "B2",
                    "midi": 47,
                    "time": 56.470464000000014,
                    "velocity": 0.47244094488188976,
                    "duration": 0.39215599999999995
                },
                {
                    "name": "C3",
                    "midi": 48,
                    "time": 56.862620000000014,
                    "velocity": 0.47244094488188976,
                    "duration": 0.39215599999999995
                },
                {
                    "name": "D3",
                    "midi": 50,
                    "time": 57.254776000000014,
                    "velocity": 0.47244094488188976,
                    "duration": 0.7843119999999999
                },
                {
                    "name": "G2",
                    "midi": 43,
                    "time": 58.039088000000014,
                    "velocity": 0.47244094488188976,
                    "duration": 0.3267966666666666
                },
                {
                    "name": "F3",
                    "midi": 53,
                    "time": 72.15670400000002,
                    "velocity": 0.47244094488188976,
                    "duration": 0.09803899999999999
                },
                {
                    "name": "D3",
                    "midi": 50,
                    "time": 73.72532800000002,
                    "velocity": 0.47244094488188976,
                    "duration": 0.09803899999999999
                },
                {
                    "name": "E3",
                    "midi": 52,
                    "time": 75.29395200000002,
                    "velocity": 0.47244094488188976,
                    "duration": 0.09803899999999999
                },
                {
                    "name": "A3",
                    "midi": 57,
                    "time": 77.64688800000002,
                    "velocity": 0.8503937007874016,
                    "duration": 0.06535933333333332
                },
                {
                    "name": "B3",
                    "midi": 59,
                    "time": 77.74492700000002,
                    "velocity": 0.8503937007874016,
                    "duration": 0.06535933333333332
                },
                {
                    "name": "A3",
                    "midi": 57,
                    "time": 77.84296600000002,
                    "velocity": 0.8503937007874016,
                    "duration": 0.06535933333333332
                },
                {
                    "name": "G#3",
                    "midi": 56,
                    "time": 77.94100500000002,
                    "velocity": 0.8503937007874016,
                    "duration": 0.06535933333333332
                },
                {
                    "name": "A3",
                    "midi": 57,
                    "time": 78.03904400000002,
                    "velocity": 0.8503937007874016,
                    "duration": 0.06535933333333332
                },
                {
                    "name": "B3",
                    "midi": 59,
                    "time": 78.13708300000002,
                    "velocity": 0.8503937007874016,
                    "duration": 0.06535933333333332
                },
                {
                    "name": "C4",
                    "midi": 60,
                    "time": 78.23512200000002,
                    "velocity": 0.8503937007874016,
                    "duration": 0.06535933333333332
                },
                {
                    "name": "A3",
                    "midi": 57,
                    "time": 78.33316100000002,
                    "velocity": 0.8503937007874016,
                    "duration": 0.06535933333333332
                },
                {
                    "name": "B3",
                    "midi": 59,
                    "time": 78.43120000000002,
                    "velocity": 0.8503937007874016,
                    "duration": 0.06535933333333332
                },
                {
                    "name": "A3",
                    "midi": 57,
                    "time": 78.52923900000002,
                    "velocity": 0.8503937007874016,
                    "duration": 0.06535933333333332
                },
                {
                    "name": "G#3",
                    "midi": 56,
                    "time": 78.62727800000002,
                    "velocity": 0.8503937007874016,
                    "duration": 0.06535933333333332
                },
                {
                    "name": "F#3",
                    "midi": 54,
                    "time": 78.72531700000002,
                    "velocity": 0.8503937007874016,
                    "duration": 0.06535933333333332
                },
                {
                    "name": "E3",
                    "midi": 52,
                    "time": 78.82335600000002,
                    "velocity": 0.8503937007874016,
                    "duration": 0.06535933333333332
                },
                {
                    "name": "F#3",
                    "midi": 54,
                    "time": 78.92139500000002,
                    "velocity": 0.8503937007874016,
                    "duration": 0.06535933333333332
                },
                {
                    "name": "G#3",
                    "midi": 56,
                    "time": 79.01943400000002,
                    "velocity": 0.8503937007874016,
                    "duration": 0.06535933333333332
                },
                {
                    "name": "A3",
                    "midi": 57,
                    "time": 79.11747300000002,
                    "velocity": 0.8503937007874016,
                    "duration": 0.06535933333333332
                },
                {
                    "name": "B3",
                    "midi": 59,
                    "time": 79.21551200000002,
                    "velocity": 0.8503937007874016,
                    "duration": 0.06535933333333332
                },
                {
                    "name": "C4",
                    "midi": 60,
                    "time": 79.31355100000002,
                    "velocity": 0.8503937007874016,
                    "duration": 0.06535933333333332
                },
                {
                    "name": "D4",
                    "midi": 62,
                    "time": 79.41159000000002,
                    "velocity": 0.8503937007874016,
                    "duration": 0.06535933333333332
                },
                {
                    "name": "C4",
                    "midi": 60,
                    "time": 79.50962900000002,
                    "velocity": 0.8503937007874016,
                    "duration": 0.06535933333333332
                },
                {
                    "name": "E4",
                    "midi": 64,
                    "time": 79.60766800000002,
                    "velocity": 0.8503937007874016,
                    "duration": 0.06535933333333332
                },
                {
                    "name": "D4",
                    "midi": 62,
                    "time": 79.70570700000002,
                    "velocity": 0.8503937007874016,
                    "duration": 0.06535933333333332
                },
                {
                    "name": "C4",
                    "midi": 60,
                    "time": 79.80374600000002,
                    "velocity": 0.8503937007874016,
                    "duration": 0.06535933333333332
                },
                {
                    "name": "B3",
                    "midi": 59,
                    "time": 79.90178500000002,
                    "velocity": 0.8503937007874016,
                    "duration": 0.06535933333333332
                },
                {
                    "name": "C4",
                    "midi": 60,
                    "time": 79.99982400000002,
                    "velocity": 0.8503937007874016,
                    "duration": 0.06535933333333332
                },
                {
                    "name": "D4",
                    "midi": 62,
                    "time": 80.09786300000002,
                    "velocity": 0.8503937007874016,
                    "duration": 0.06535933333333332
                },
                {
                    "name": "C4",
                    "midi": 60,
                    "time": 80.19590200000002,
                    "velocity": 0.8503937007874016,
                    "duration": 0.06535933333333332
                },
                {
                    "name": "B3",
                    "midi": 59,
                    "time": 80.29394100000002,
                    "velocity": 0.8503937007874016,
                    "duration": 0.06535933333333332
                },
                {
                    "name": "A3",
                    "midi": 57,
                    "time": 80.39198000000002,
                    "velocity": 0.8503937007874016,
                    "duration": 0.06535933333333332
                },
                {
                    "name": "G#3",
                    "midi": 56,
                    "time": 80.49001900000002,
                    "velocity": 0.8503937007874016,
                    "duration": 0.06535933333333332
                },
                {
                    "name": "A3",
                    "midi": 57,
                    "time": 80.58805800000002,
                    "velocity": 0.8503937007874016,
                    "duration": 0.06535933333333332
                },
                {
                    "name": "B3",
                    "midi": 59,
                    "time": 80.68609700000002,
                    "velocity": 0.8503937007874016,
                    "duration": 0.06535933333333332
                },
                {
                    "name": "C4",
                    "midi": 60,
                    "time": 80.78413600000002,
                    "velocity": 0.8503937007874016,
                    "duration": 0.06535933333333332
                },
                {
                    "name": "D4",
                    "midi": 62,
                    "time": 80.88217500000002,
                    "velocity": 0.8503937007874016,
                    "duration": 0.06535933333333332
                },
                {
                    "name": "C4",
                    "midi": 60,
                    "time": 80.98021400000002,
                    "velocity": 0.8503937007874016,
                    "duration": 0.06535933333333332
                },
                {
                    "name": "B3",
                    "midi": 59,
                    "time": 81.07825300000002,
                    "velocity": 0.8503937007874016,
                    "duration": 0.06535933333333332
                },
                {
                    "name": "C4",
                    "midi": 60,
                    "time": 81.17629200000002,
                    "velocity": 0.8503937007874016,
                    "duration": 0.06535933333333332
                },
                {
                    "name": "D4",
                    "midi": 62,
                    "time": 81.27433100000002,
                    "velocity": 0.8503937007874016,
                    "duration": 0.06535933333333332
                },
                {
                    "name": "E4",
                    "midi": 64,
                    "time": 81.37237000000002,
                    "velocity": 0.8503937007874016,
                    "duration": 0.06535933333333332
                },
                {
                    "name": "C4",
                    "midi": 60,
                    "time": 81.47040900000002,
                    "velocity": 0.8503937007874016,
                    "duration": 0.06535933333333332
                },
                {
                    "name": "D4",
                    "midi": 62,
                    "time": 81.56844800000002,
                    "velocity": 0.8503937007874016,
                    "duration": 0.06535933333333332
                },
                {
                    "name": "C4",
                    "midi": 60,
                    "time": 81.66648700000002,
                    "velocity": 0.8503937007874016,
                    "duration": 0.06535933333333332
                },
                {
                    "name": "B3",
                    "midi": 59,
                    "time": 81.76452600000002,
                    "velocity": 0.8503937007874016,
                    "duration": 0.06535933333333332
                },
                {
                    "name": "A3",
                    "midi": 57,
                    "time": 81.86256500000002,
                    "velocity": 0.8503937007874016,
                    "duration": 0.06535933333333332
                },
                {
                    "name": "G3",
                    "midi": 55,
                    "time": 81.96060400000002,
                    "velocity": 0.8503937007874016,
                    "duration": 0.06535933333333332
                },
                {
                    "name": "A3",
                    "midi": 57,
                    "time": 82.05864300000002,
                    "velocity": 0.8503937007874016,
                    "duration": 0.06535933333333332
                },
                {
                    "name": "B3",
                    "midi": 59,
                    "time": 82.15668200000002,
                    "velocity": 0.8503937007874016,
                    "duration": 0.06535933333333332
                },
                {
                    "name": "C4",
                    "midi": 60,
                    "time": 82.25472100000002,
                    "velocity": 0.8503937007874016,
                    "duration": 0.06535933333333332
                },
                {
                    "name": "D4",
                    "midi": 62,
                    "time": 82.35276000000002,
                    "velocity": 0.8503937007874016,
                    "duration": 0.06535933333333332
                },
                {
                    "name": "E4",
                    "midi": 64,
                    "time": 82.45079900000002,
                    "velocity": 0.8503937007874016,
                    "duration": 0.06535933333333332
                },
                {
                    "name": "F4",
                    "midi": 65,
                    "time": 82.54883800000002,
                    "velocity": 0.8503937007874016,
                    "duration": 0.06535933333333332
                },
                {
                    "name": "E4",
                    "midi": 64,
                    "time": 82.64687700000002,
                    "velocity": 0.8503937007874016,
                    "duration": 0.06535933333333332
                },
                {
                    "name": "G4",
                    "midi": 67,
                    "time": 82.74491600000002,
                    "velocity": 0.8503937007874016,
                    "duration": 0.06535933333333332
                },
                {
                    "name": "F4",
                    "midi": 65,
                    "time": 82.84295500000002,
                    "velocity": 0.8503937007874016,
                    "duration": 0.06535933333333332
                },
                {
                    "name": "E4",
                    "midi": 64,
                    "time": 82.94099400000002,
                    "velocity": 0.8503937007874016,
                    "duration": 0.06535933333333332
                },
                {
                    "name": "D4",
                    "midi": 62,
                    "time": 83.03903300000002,
                    "velocity": 0.8503937007874016,
                    "duration": 0.06535933333333332
                },
                {
                    "name": "E4",
                    "midi": 64,
                    "time": 83.13707200000002,
                    "velocity": 0.8503937007874016,
                    "duration": 0.06535933333333332
                },
                {
                    "name": "F4",
                    "midi": 65,
                    "time": 83.23511100000002,
                    "velocity": 0.8503937007874016,
                    "duration": 0.06535933333333332
                },
                {
                    "name": "E4",
                    "midi": 64,
                    "time": 83.33315000000002,
                    "velocity": 0.8503937007874016,
                    "duration": 0.06535933333333332
                },
                {
                    "name": "D4",
                    "midi": 62,
                    "time": 83.43118900000002,
                    "velocity": 0.8503937007874016,
                    "duration": 0.06535933333333332
                },
                {
                    "name": "C4",
                    "midi": 60,
                    "time": 83.52922800000002,
                    "velocity": 0.8503937007874016,
                    "duration": 0.06535933333333332
                },
                {
                    "name": "B3",
                    "midi": 59,
                    "time": 83.62726700000002,
                    "velocity": 0.8503937007874016,
                    "duration": 0.06535933333333332
                },
                {
                    "name": "C4",
                    "midi": 60,
                    "time": 83.72530600000002,
                    "velocity": 0.8503937007874016,
                    "duration": 0.06535933333333332
                },
                {
                    "name": "D4",
                    "midi": 62,
                    "time": 83.82334500000002,
                    "velocity": 0.8503937007874016,
                    "duration": 0.06535933333333332
                },
                {
                    "name": "E4",
                    "midi": 64,
                    "time": 83.92138400000002,
                    "velocity": 0.8503937007874016,
                    "duration": 0.06535933333333332
                },
                {
                    "name": "F#4",
                    "midi": 66,
                    "time": 84.01942300000002,
                    "velocity": 0.8503937007874016,
                    "duration": 0.06535933333333332
                },
                {
                    "name": "E4",
                    "midi": 64,
                    "time": 84.11746200000002,
                    "velocity": 0.8503937007874016,
                    "duration": 0.06535933333333332
                },
                {
                    "name": "D#4",
                    "midi": 63,
                    "time": 84.21550100000002,
                    "velocity": 0.8503937007874016,
                    "duration": 0.06535933333333332
                },
                {
                    "name": "E4",
                    "midi": 64,
                    "time": 84.31354000000002,
                    "velocity": 0.8503937007874016,
                    "duration": 0.06535933333333332
                },
                {
                    "name": "F#4",
                    "midi": 66,
                    "time": 84.41157900000002,
                    "velocity": 0.8503937007874016,
                    "duration": 0.06535933333333332
                },
                {
                    "name": "G4",
                    "midi": 67,
                    "time": 84.50961800000002,
                    "velocity": 0.8503937007874016,
                    "duration": 0.06535933333333332
                },
                {
                    "name": "E4",
                    "midi": 64,
                    "time": 84.60765700000002,
                    "velocity": 0.8503937007874016,
                    "duration": 0.06535933333333332
                },
                {
                    "name": "F#4",
                    "midi": 66,
                    "time": 84.70569600000002,
                    "velocity": 0.8503937007874016,
                    "duration": 0.06535933333333332
                },
                {
                    "name": "E4",
                    "midi": 64,
                    "time": 84.80373500000002,
                    "velocity": 0.8503937007874016,
                    "duration": 0.06535933333333332
                },
                {
                    "name": "D#4",
                    "midi": 63,
                    "time": 84.90177400000002,
                    "velocity": 0.8503937007874016,
                    "duration": 0.06535933333333332
                },
                {
                    "name": "C4",
                    "midi": 60,
                    "time": 84.99981300000002,
                    "velocity": 0.8503937007874016,
                    "duration": 0.06535933333333332
                },
                {
                    "name": "B3",
                    "midi": 59,
                    "time": 85.09785200000002,
                    "velocity": 0.8503937007874016,
                    "duration": 0.06535933333333332
                },
                {
                    "name": "C#4",
                    "midi": 61,
                    "time": 85.19589100000002,
                    "velocity": 0.8503937007874016,
                    "duration": 0.06535933333333332
                },
                {
                    "name": "D#4",
                    "midi": 63,
                    "time": 85.29393000000002,
                    "velocity": 0.8503937007874016,
                    "duration": 0.06535933333333332
                },
                {
                    "name": "E4",
                    "midi": 64,
                    "time": 85.39196900000002,
                    "velocity": 0.8503937007874016,
                    "duration": 0.06535933333333332
                },
                {
                    "name": "F#4",
                    "midi": 66,
                    "time": 85.49000800000002,
                    "velocity": 0.8503937007874016,
                    "duration": 0.06535933333333332
                },
                {
                    "name": "G4",
                    "midi": 67,
                    "time": 85.58804700000002,
                    "velocity": 0.8503937007874016,
                    "duration": 0.06535933333333332
                },
                {
                    "name": "A4",
                    "midi": 69,
                    "time": 85.68608600000002,
                    "velocity": 0.8503937007874016,
                    "duration": 0.06535933333333332
                },
                {
                    "name": "G4",
                    "midi": 67,
                    "time": 85.78412500000002,
                    "velocity": 0.8503937007874016,
                    "duration": 0.06535933333333332
                },
                {
                    "name": "B4",
                    "midi": 71,
                    "time": 85.88216400000002,
                    "velocity": 0.8503937007874016,
                    "duration": 0.06535933333333332
                },
                {
                    "name": "A4",
                    "midi": 69,
                    "time": 85.98020300000002,
                    "velocity": 0.8503937007874016,
                    "duration": 0.06535933333333332
                },
                {
                    "name": "G4",
                    "midi": 67,
                    "time": 86.07824200000002,
                    "velocity": 0.8503937007874016,
                    "duration": 0.06535933333333332
                },
                {
                    "name": "F#4",
                    "midi": 66,
                    "time": 86.17628100000002,
                    "velocity": 0.8503937007874016,
                    "duration": 0.06535933333333332
                },
                {
                    "name": "G4",
                    "midi": 67,
                    "time": 86.27432000000002,
                    "velocity": 0.8503937007874016,
                    "duration": 0.06535933333333332
                },
                {
                    "name": "B4",
                    "midi": 71,
                    "time": 86.37235900000002,
                    "velocity": 0.8503937007874016,
                    "duration": 0.06535933333333332
                },
                {
                    "name": "A#4",
                    "midi": 70,
                    "time": 86.47039800000002,
                    "velocity": 0.8503937007874016,
                    "duration": 0.06535933333333332
                },
                {
                    "name": "B4",
                    "midi": 71,
                    "time": 86.56843700000002,
                    "velocity": 0.8503937007874016,
                    "duration": 0.06535933333333332
                },
                {
                    "name": "C5",
                    "midi": 72,
                    "time": 86.66647600000002,
                    "velocity": 0.8503937007874016,
                    "duration": 0.06535933333333332
                },
                {
                    "name": "B4",
                    "midi": 71,
                    "time": 86.76451500000002,
                    "velocity": 0.8503937007874016,
                    "duration": 0.06535933333333332
                },
                {
                    "name": "A4",
                    "midi": 69,
                    "time": 86.86255400000002,
                    "velocity": 0.8503937007874016,
                    "duration": 0.06535933333333332
                },
                {
                    "name": "G4",
                    "midi": 67,
                    "time": 86.96059300000002,
                    "velocity": 0.8503937007874016,
                    "duration": 0.06535933333333332
                },
                {
                    "name": "F#4",
                    "midi": 66,
                    "time": 87.05863200000002,
                    "velocity": 0.8503937007874016,
                    "duration": 0.06535933333333332
                },
                {
                    "name": "A4",
                    "midi": 69,
                    "time": 87.15667100000002,
                    "velocity": 0.8503937007874016,
                    "duration": 0.06535933333333332
                },
                {
                    "name": "G#4",
                    "midi": 68,
                    "time": 87.25471000000002,
                    "velocity": 0.8503937007874016,
                    "duration": 0.06535933333333332
                },
                {
                    "name": "A4",
                    "midi": 69,
                    "time": 87.35274900000002,
                    "velocity": 0.8503937007874016,
                    "duration": 0.06535933333333332
                },
                {
                    "name": "B4",
                    "midi": 71,
                    "time": 87.45078800000002,
                    "velocity": 0.8503937007874016,
                    "duration": 0.06535933333333332
                },
                {
                    "name": "A4",
                    "midi": 69,
                    "time": 87.54882700000002,
                    "velocity": 0.8503937007874016,
                    "duration": 0.06535933333333332
                },
                {
                    "name": "G4",
                    "midi": 67,
                    "time": 87.64686600000002,
                    "velocity": 0.8503937007874016,
                    "duration": 0.06535933333333332
                },
                {
                    "name": "F#4",
                    "midi": 66,
                    "time": 87.74490500000002,
                    "velocity": 0.8503937007874016,
                    "duration": 0.06535933333333332
                },
                {
                    "name": "E4",
                    "midi": 64,
                    "time": 87.84294400000002,
                    "velocity": 0.8503937007874016,
                    "duration": 0.06535933333333332
                },
                {
                    "name": "G4",
                    "midi": 67,
                    "time": 87.94098300000002,
                    "velocity": 0.8503937007874016,
                    "duration": 0.06535933333333332
                },
                {
                    "name": "F#4",
                    "midi": 66,
                    "time": 88.03902200000002,
                    "velocity": 0.8503937007874016,
                    "duration": 0.06535933333333332
                },
                {
                    "name": "G4",
                    "midi": 67,
                    "time": 88.13706100000002,
                    "velocity": 0.8503937007874016,
                    "duration": 0.06535933333333332
                },
                {
                    "name": "A4",
                    "midi": 69,
                    "time": 88.23510000000002,
                    "velocity": 0.8503937007874016,
                    "duration": 0.06535933333333332
                },
                {
                    "name": "G4",
                    "midi": 67,
                    "time": 88.33313900000002,
                    "velocity": 0.8503937007874016,
                    "duration": 0.06535933333333332
                },
                {
                    "name": "F#4",
                    "midi": 66,
                    "time": 88.43117800000002,
                    "velocity": 0.8503937007874016,
                    "duration": 0.06535933333333332
                },
                {
                    "name": "E4",
                    "midi": 64,
                    "time": 88.52921700000002,
                    "velocity": 0.8503937007874016,
                    "duration": 0.06535933333333332
                },
                {
                    "name": "D#4",
                    "midi": 63,
                    "time": 88.62725600000002,
                    "velocity": 0.8503937007874016,
                    "duration": 0.06535933333333332
                },
                {
                    "name": "E4",
                    "midi": 64,
                    "time": 88.72529500000002,
                    "velocity": 0.8503937007874016,
                    "duration": 0.06535933333333332
                },
                {
                    "name": "F4",
                    "midi": 65,
                    "time": 88.82333400000002,
                    "velocity": 0.8503937007874016,
                    "duration": 0.06535933333333332
                },
                {
                    "name": "G4",
                    "midi": 67,
                    "time": 88.92137300000002,
                    "velocity": 0.8503937007874016,
                    "duration": 0.06535933333333332
                },
                {
                    "name": "A4",
                    "midi": 69,
                    "time": 89.01941200000002,
                    "velocity": 0.8503937007874016,
                    "duration": 0.06535933333333332
                },
                {
                    "name": "F#4",
                    "midi": 66,
                    "time": 89.11745100000002,
                    "velocity": 0.8503937007874016,
                    "duration": 0.06535933333333332
                },
                {
                    "name": "E4",
                    "midi": 64,
                    "time": 89.21549000000002,
                    "velocity": 0.8503937007874016,
                    "duration": 0.06535933333333332
                },
                {
                    "name": "D#4",
                    "midi": 63,
                    "time": 89.31352900000002,
                    "velocity": 0.8503937007874016,
                    "duration": 0.06535933333333332
                },
                {
                    "name": "C4",
                    "midi": 60,
                    "time": 89.41156800000002,
                    "velocity": 0.8503937007874016,
                    "duration": 0.0939540416666631
                },
                {
                    "name": "E4",
                    "midi": 64,
                    "time": 89.50960700000002,
                    "velocity": 0.8503937007874016,
                    "duration": 0.0939540416666631
                },
                {
                    "name": "G4",
                    "midi": 67,
                    "time": 89.60764600000002,
                    "velocity": 0.8503937007874016,
                    "duration": 0.0939540416666631
                },
                {
                    "name": "F#4",
                    "midi": 66,
                    "time": 89.70568500000002,
                    "velocity": 0.8503937007874016,
                    "duration": 0.0939540416666631
                },
                {
                    "name": "E4",
                    "midi": 64,
                    "time": 89.80372400000002,
                    "velocity": 0.8503937007874016,
                    "duration": 0.0939540416666631
                },
                {
                    "name": "D#4",
                    "midi": 63,
                    "time": 89.90176300000002,
                    "velocity": 0.8503937007874016,
                    "duration": 0.0939540416666631
                },
                {
                    "name": "C4",
                    "midi": 60,
                    "time": 89.99980200000002,
                    "velocity": 0.8503937007874016,
                    "duration": 0.0939540416666631
                },
                {
                    "name": "B3",
                    "midi": 59,
                    "time": 90.09784100000002,
                    "velocity": 0.8503937007874016,
                    "duration": 0.0939540416666631
                },
                {
                    "name": "C#4",
                    "midi": 61,
                    "time": 90.19588000000002,
                    "velocity": 0.8503937007874016,
                    "duration": 0.06535933333333332
                },
                {
                    "name": "D4",
                    "midi": 62,
                    "time": 90.29391900000002,
                    "velocity": 0.8503937007874016,
                    "duration": 0.06535933333333332
                },
                {
                    "name": "E4",
                    "midi": 64,
                    "time": 90.39195800000002,
                    "velocity": 0.8503937007874016,
                    "duration": 0.06535933333333332
                },
                {
                    "name": "F4",
                    "midi": 65,
                    "time": 90.48999700000002,
                    "velocity": 0.8503937007874016,
                    "duration": 0.06535933333333332
                },
                {
                    "name": "G4",
                    "midi": 67,
                    "time": 90.58803600000002,
                    "velocity": 0.8503937007874016,
                    "duration": 0.06535933333333332
                },
                {
                    "name": "A4",
                    "midi": 69,
                    "time": 90.68607500000002,
                    "velocity": 0.8503937007874016,
                    "duration": 0.06535933333333332
                },
                {
                    "name": "A#4",
                    "midi": 70,
                    "time": 90.78411400000002,
                    "velocity": 0.8503937007874016,
                    "duration": 0.06535933333333332
                },
                {
                    "name": "C#4",
                    "midi": 61,
                    "time": 90.88215300000002,
                    "velocity": 0.8503937007874016,
                    "duration": 0.06535933333333332
                },
                {
                    "name": "C4",
                    "midi": 60,
                    "time": 90.98019200000002,
                    "velocity": 0.8503937007874016,
                    "duration": 0.06535933333333332
                },
                {
                    "name": "D4",
                    "midi": 62,
                    "time": 91.07823100000002,
                    "velocity": 0.8503937007874016,
                    "duration": 0.06535933333333332
                },
                {
                    "name": "F#4",
                    "midi": 66,
                    "time": 91.17627000000002,
                    "velocity": 0.8503937007874016,
                    "duration": 0.06535933333333332
                },
                {
                    "name": "E4",
                    "midi": 64,
                    "time": 91.27430900000002,
                    "velocity": 0.8503937007874016,
                    "duration": 0.06535933333333332
                },
                {
                    "name": "D4",
                    "midi": 62,
                    "time": 91.37234800000002,
                    "velocity": 0.8503937007874016,
                    "duration": 0.06535933333333332
                },
                {
                    "name": "C4",
                    "midi": 60,
                    "time": 91.47038700000002,
                    "velocity": 0.8503937007874016,
                    "duration": 0.06535933333333332
                },
                {
                    "name": "A#3",
                    "midi": 58,
                    "time": 91.56842600000002,
                    "velocity": 0.8503937007874016,
                    "duration": 0.06535933333333332
                },
                {
                    "name": "A3",
                    "midi": 57,
                    "time": 91.66646500000002,
                    "velocity": 0.8503937007874016,
                    "duration": 0.06535933333333332
                },
                {
                    "name": "B3",
                    "midi": 59,
                    "time": 91.76450400000002,
                    "velocity": 0.8503937007874016,
                    "duration": 0.06535933333333332
                },
                {
                    "name": "C4",
                    "midi": 60,
                    "time": 91.86254300000002,
                    "velocity": 0.8503937007874016,
                    "duration": 0.06535933333333332
                },
                {
                    "name": "D4",
                    "midi": 62,
                    "time": 91.96058200000002,
                    "velocity": 0.8503937007874016,
                    "duration": 0.06535933333333332
                },
                {
                    "name": "E4",
                    "midi": 64,
                    "time": 92.05862100000002,
                    "velocity": 0.8503937007874016,
                    "duration": 0.06535933333333332
                },
                {
                    "name": "F4",
                    "midi": 65,
                    "time": 92.15666000000002,
                    "velocity": 0.8503937007874016,
                    "duration": 0.06535933333333332
                },
                {
                    "name": "G4",
                    "midi": 67,
                    "time": 92.25469900000002,
                    "velocity": 0.8503937007874016,
                    "duration": 0.06535933333333332
                },
                {
                    "name": "G#4",
                    "midi": 68,
                    "time": 92.35273800000002,
                    "velocity": 0.8503937007874016,
                    "duration": 0.06535933333333332
                },
                {
                    "name": "B3",
                    "midi": 59,
                    "time": 92.45077700000002,
                    "velocity": 0.8503937007874016,
                    "duration": 0.06535933333333332
                },
                {
                    "name": "A#3",
                    "midi": 58,
                    "time": 92.54881600000002,
                    "velocity": 0.8503937007874016,
                    "duration": 0.06535933333333332
                },
                {
                    "name": "C4",
                    "midi": 60,
                    "time": 92.64685500000002,
                    "velocity": 0.8503937007874016,
                    "duration": 0.06535933333333332
                },
                {
                    "name": "E4",
                    "midi": 64,
                    "time": 92.74489400000002,
                    "velocity": 0.8503937007874016,
                    "duration": 0.06535933333333332
                },
                {
                    "name": "D4",
                    "midi": 62,
                    "time": 92.84293300000002,
                    "velocity": 0.8503937007874016,
                    "duration": 0.06535933333333332
                },
                {
                    "name": "C4",
                    "midi": 60,
                    "time": 92.94097200000002,
                    "velocity": 0.8503937007874016,
                    "duration": 0.06535933333333332
                },
                {
                    "name": "A#3",
                    "midi": 58,
                    "time": 93.03901100000002,
                    "velocity": 0.8503937007874016,
                    "duration": 0.06535933333333332
                },
                {
                    "name": "G#3",
                    "midi": 56,
                    "time": 93.13705000000002,
                    "velocity": 0.8503937007874016,
                    "duration": 0.06535933333333332
                },
                {
                    "name": "G3",
                    "midi": 55,
                    "time": 93.23508900000002,
                    "velocity": 0.8503937007874016,
                    "duration": 0.06535933333333332
                },
                {
                    "name": "A3",
                    "midi": 57,
                    "time": 93.33312800000002,
                    "velocity": 0.8503937007874016,
                    "duration": 0.06535933333333332
                },
                {
                    "name": "B3",
                    "midi": 59,
                    "time": 93.43116700000002,
                    "velocity": 0.8503937007874016,
                    "duration": 0.06535933333333332
                },
                {
                    "name": "C4",
                    "midi": 60,
                    "time": 93.52920600000002,
                    "velocity": 0.8503937007874016,
                    "duration": 0.06535933333333332
                },
                {
                    "name": "D4",
                    "midi": 62,
                    "time": 93.62724500000002,
                    "velocity": 0.8503937007874016,
                    "duration": 0.06535933333333332
                },
                {
                    "name": "E4",
                    "midi": 64,
                    "time": 93.72528400000002,
                    "velocity": 0.8503937007874016,
                    "duration": 0.06535933333333332
                },
                {
                    "name": "F4",
                    "midi": 65,
                    "time": 93.82332300000002,
                    "velocity": 0.8503937007874016,
                    "duration": 0.06535933333333332
                },
                {
                    "name": "G4",
                    "midi": 67,
                    "time": 93.92136200000002,
                    "velocity": 0.8503937007874016,
                    "duration": 0.06535933333333332
                },
                {
                    "name": "F4",
                    "midi": 65,
                    "time": 94.01940100000002,
                    "velocity": 0.8503937007874016,
                    "duration": 0.06535933333333332
                },
                {
                    "name": "A4",
                    "midi": 69,
                    "time": 94.11744000000002,
                    "velocity": 0.8503937007874016,
                    "duration": 0.06535933333333332
                },
                {
                    "name": "A#4",
                    "midi": 70,
                    "time": 94.21547900000002,
                    "velocity": 0.8503937007874016,
                    "duration": 0.06535933333333332
                },
                {
                    "name": "C5",
                    "midi": 72,
                    "time": 94.31351800000002,
                    "velocity": 0.8503937007874016,
                    "duration": 0.06535933333333332
                },
                {
                    "name": "D5",
                    "midi": 74,
                    "time": 94.41155700000002,
                    "velocity": 0.8503937007874016,
                    "duration": 0.06535933333333332
                },
                {
                    "name": "E5",
                    "midi": 76,
                    "time": 94.50959600000002,
                    "velocity": 0.8503937007874016,
                    "duration": 0.06535933333333332
                },
                {
                    "name": "F5",
                    "midi": 77,
                    "time": 94.60763500000002,
                    "velocity": 0.8503937007874016,
                    "duration": 0.06535933333333332
                },
                {
                    "name": "G5",
                    "midi": 79,
                    "time": 94.70567400000002,
                    "velocity": 0.8503937007874016,
                    "duration": 0.06535933333333332
                },
                {
                    "name": "A5",
                    "midi": 81,
                    "time": 94.80371300000002,
                    "velocity": 0.8503937007874016,
                    "duration": 0.06535933333333332
                },
                {
                    "name": "A5",
                    "midi": 81,
                    "time": 94.90175200000002,
                    "velocity": 0.8503937007874016,
                    "duration": 0.06535933333333332
                },
                {
                    "name": "G5",
                    "midi": 79,
                    "time": 94.99979100000002,
                    "velocity": 0.8503937007874016,
                    "duration": 0.06535933333333332
                },
                {
                    "name": "F5",
                    "midi": 77,
                    "time": 95.09783000000002,
                    "velocity": 0.8503937007874016,
                    "duration": 0.06535933333333332
                },
                {
                    "name": "E5",
                    "midi": 76,
                    "time": 95.19586900000002,
                    "velocity": 0.8503937007874016,
                    "duration": 0.06535933333333332
                },
                {
                    "name": "G5",
                    "midi": 79,
                    "time": 95.29390800000002,
                    "velocity": 0.8503937007874016,
                    "duration": 0.06535933333333332
                },
                {
                    "name": "F5",
                    "midi": 77,
                    "time": 95.39194700000002,
                    "velocity": 0.8503937007874016,
                    "duration": 0.06535933333333332
                },
                {
                    "name": "E5",
                    "midi": 76,
                    "time": 95.48998600000002,
                    "velocity": 0.8503937007874016,
                    "duration": 0.06535933333333332
                },
                {
                    "name": "D5",
                    "midi": 74,
                    "time": 95.58802500000002,
                    "velocity": 0.8503937007874016,
                    "duration": 0.06535933333333332
                },
                {
                    "name": "C5",
                    "midi": 72,
                    "time": 95.68606400000002,
                    "velocity": 0.8503937007874016,
                    "duration": 0.06535933333333332
                },
                {
                    "name": "E3",
                    "midi": 52,
                    "time": 108.23505600000001,
                    "velocity": 0.47244094488188976,
                    "duration": 0.09803899999999999
                },
                {
                    "name": "E3",
                    "midi": 52,
                    "time": 109.01936800000001,
                    "velocity": 0.47244094488188976,
                    "duration": 0.09803899999999999
                },
                {
                    "name": "E3",
                    "midi": 52,
                    "time": 109.41152400000001,
                    "velocity": 0.47244094488188976,
                    "duration": 0.09803899999999999
                },
                {
                    "name": "A3",
                    "midi": 57,
                    "time": 109.80368000000001,
                    "velocity": 0.47244094488188976,
                    "duration": 0.09803899999999999
                },
                {
                    "name": "A3",
                    "midi": 57,
                    "time": 110.58799200000001,
                    "velocity": 0.47244094488188976,
                    "duration": 0.09803899999999999
                },
                {
                    "name": "E3",
                    "midi": 52,
                    "time": 111.37230400000001,
                    "velocity": 0.47244094488188976,
                    "duration": 0.09803899999999999
                },
                {
                    "name": "E3",
                    "midi": 52,
                    "time": 112.15661600000001,
                    "velocity": 0.47244094488188976,
                    "duration": 0.09803899999999999
                },
                {
                    "name": "E3",
                    "midi": 52,
                    "time": 112.54877200000001,
                    "velocity": 0.47244094488188976,
                    "duration": 0.09803899999999999
                },
                {
                    "name": "A3",
                    "midi": 57,
                    "time": 112.94092800000001,
                    "velocity": 0.47244094488188976,
                    "duration": 0.09803899999999999
                },
                {
                    "name": "A3",
                    "midi": 57,
                    "time": 113.72524000000001,
                    "velocity": 0.47244094488188976,
                    "duration": 0.09803899999999999
                },
                {
                    "name": "E3",
                    "midi": 52,
                    "time": 114.50955200000001,
                    "velocity": 0.47244094488188976,
                    "duration": 0.39215599999999995
                },
                {
                    "name": "D4",
                    "midi": 62,
                    "time": 114.90170800000001,
                    "velocity": 0.47244094488188976,
                    "duration": 0.39215599999999995
                },
                {
                    "name": "C4",
                    "midi": 60,
                    "time": 115.29386400000001,
                    "velocity": 0.47244094488188976,
                    "duration": 0.39215599999999995
                },
                {
                    "name": "B3",
                    "midi": 59,
                    "time": 115.68602000000001,
                    "velocity": 0.47244094488188976,
                    "duration": 0.39215599999999995
                },
                {
                    "name": "A3",
                    "midi": 57,
                    "time": 116.07817600000001,
                    "velocity": 0.47244094488188976,
                    "duration": 0.39215599999999995
                },
                {
                    "name": "G3",
                    "midi": 55,
                    "time": 116.47033200000001,
                    "velocity": 0.47244094488188976,
                    "duration": 0.39215599999999995
                },
                {
                    "name": "F3",
                    "midi": 53,
                    "time": 116.86248800000001,
                    "velocity": 0.47244094488188976,
                    "duration": 0.39215599999999995
                },
                {
                    "name": "E3",
                    "midi": 52,
                    "time": 117.25464400000001,
                    "velocity": 0.47244094488188976,
                    "duration": 0.39215599999999995
                },
                {
                    "name": "D3",
                    "midi": 50,
                    "time": 117.64680000000001,
                    "velocity": 0.47244094488188976,
                    "duration": 0.1919930416666631
                },
                {
                    "name": "D3",
                    "midi": 50,
                    "time": 118.43111200000001,
                    "velocity": 0.47244094488188976,
                    "duration": 0.09803899999999999
                },
                {
                    "name": "E3",
                    "midi": 52,
                    "time": 119.21542400000001,
                    "velocity": 0.47244094488188976,
                    "duration": 0.09803899999999999
                },
                {
                    "name": "E3",
                    "midi": 52,
                    "time": 119.99973600000001,
                    "velocity": 0.47244094488188976,
                    "duration": 0.09803899999999999
                },
                {
                    "name": "A3",
                    "midi": 57,
                    "time": 120.78404800000001,
                    "velocity": 0.47244094488188976,
                    "duration": 0.39215599999999995
                },
                {
                    "name": "A2",
                    "midi": 45,
                    "time": 121.17620400000001,
                    "velocity": 0.47244094488188976,
                    "duration": 0.39215599999999995
                },
                {
                    "name": "D3",
                    "midi": 50,
                    "time": 121.56836000000001,
                    "velocity": 0.47244094488188976,
                    "duration": 0.39215599999999995
                },
                {
                    "name": "A2",
                    "midi": 45,
                    "time": 121.96051600000001,
                    "velocity": 0.47244094488188976,
                    "duration": 0.39215599999999995
                },
                {
                    "name": "D3",
                    "midi": 50,
                    "time": 122.35267200000001,
                    "velocity": 0.47244094488188976,
                    "duration": 0.39215599999999995
                },
                {
                    "name": "A2",
                    "midi": 45,
                    "time": 122.74482800000001,
                    "velocity": 0.47244094488188976,
                    "duration": 0.39215599999999995
                },
                {
                    "name": "C3",
                    "midi": 48,
                    "time": 123.13698400000001,
                    "velocity": 0.47244094488188976,
                    "duration": 0.39215599999999995
                },
                {
                    "name": "G2",
                    "midi": 43,
                    "time": 123.52914000000001,
                    "velocity": 0.47244094488188976,
                    "duration": 0.39215599999999995
                },
                {
                    "name": "C3",
                    "midi": 48,
                    "time": 123.92129600000001,
                    "velocity": 0.47244094488188976,
                    "duration": 0.39215599999999995
                },
                {
                    "name": "C4",
                    "midi": 60,
                    "time": 124.31345200000001,
                    "velocity": 0.47244094488188976,
                    "duration": 0.39215599999999995
                },
                {
                    "name": "B3",
                    "midi": 59,
                    "time": 124.70560800000001,
                    "velocity": 0.47244094488188976,
                    "duration": 0.39215599999999995
                },
                {
                    "name": "A3",
                    "midi": 57,
                    "time": 125.09776400000001,
                    "velocity": 0.47244094488188976,
                    "duration": 0.39215599999999995
                },
                {
                    "name": "E3",
                    "midi": 52,
                    "time": 125.48992000000001,
                    "velocity": 0.47244094488188976,
                    "duration": 0.39215599999999995
                },
                {
                    "name": "D3",
                    "midi": 50,
                    "time": 125.88207600000001,
                    "velocity": 0.47244094488188976,
                    "duration": 0.39215599999999995
                },
                {
                    "name": "B2",
                    "midi": 47,
                    "time": 126.27423200000001,
                    "velocity": 0.47244094488188976,
                    "duration": 0.39215599999999995
                },
                {
                    "name": "A2",
                    "midi": 45,
                    "time": 126.66638800000001,
                    "velocity": 0.47244094488188976,
                    "duration": 0.39215599999999995
                },
                {
                    "name": "E3",
                    "midi": 52,
                    "time": 127.05854400000001,
                    "velocity": 0.47244094488188976,
                    "duration": 0.39215599999999995
                },
                {
                    "name": "D4",
                    "midi": 62,
                    "time": 127.45070000000001,
                    "velocity": 0.47244094488188976,
                    "duration": 0.39215599999999995
                },
                {
                    "name": "C4",
                    "midi": 60,
                    "time": 127.84285600000001,
                    "velocity": 0.47244094488188976,
                    "duration": 0.39215599999999995
                },
                {
                    "name": "B3",
                    "midi": 59,
                    "time": 128.235012,
                    "velocity": 0.47244094488188976,
                    "duration": 0.39215599999999995
                },
                {
                    "name": "A3",
                    "midi": 57,
                    "time": 128.627168,
                    "velocity": 0.47244094488188976,
                    "duration": 0.39215599999999995
                },
                {
                    "name": "G3",
                    "midi": 55,
                    "time": 129.019324,
                    "velocity": 0.47244094488188976,
                    "duration": 0.39215599999999995
                },
                {
                    "name": "F3",
                    "midi": 53,
                    "time": 129.41148,
                    "velocity": 0.47244094488188976,
                    "duration": 0.39215599999999995
                },
                {
                    "name": "E3",
                    "midi": 52,
                    "time": 129.803636,
                    "velocity": 0.47244094488188976,
                    "duration": 0.39215599999999995
                },
                {
                    "name": "D3",
                    "midi": 50,
                    "time": 130.195792,
                    "velocity": 0.47244094488188976,
                    "duration": 0.1919930416666773
                },
                {
                    "name": "D3",
                    "midi": 50,
                    "time": 130.980104,
                    "velocity": 0.47244094488188976,
                    "duration": 0.09803899999999999
                },
                {
                    "name": "D#3",
                    "midi": 51,
                    "time": 131.764416,
                    "velocity": 0.47244094488188976,
                    "duration": 0.09803899999999999
                },
                {
                    "name": "D#3",
                    "midi": 51,
                    "time": 132.548728,
                    "velocity": 0.47244094488188976,
                    "duration": 0.09803899999999999
                },
                {
                    "name": "E3",
                    "midi": 52,
                    "time": 133.33304,
                    "velocity": 0.47244094488188976,
                    "duration": 0.09803899999999999
                },
                {
                    "name": "E3",
                    "midi": 52,
                    "time": 134.901664,
                    "velocity": 0.47244094488188976,
                    "duration": 0.09803899999999999
                },
                {
                    "name": "E3",
                    "midi": 52,
                    "time": 136.470288,
                    "velocity": 0.47244094488188976,
                    "duration": 0.09803899999999999
                },
                {
                    "name": "E3",
                    "midi": 52,
                    "time": 138.038912,
                    "velocity": 0.47244094488188976,
                    "duration": 0.09803899999999999
                },
                {
                    "name": "E3",
                    "midi": 52,
                    "time": 138.823224,
                    "velocity": 0.47244094488188976,
                    "duration": 0.09803899999999999
                },
                {
                    "name": "G3",
                    "midi": 55,
                    "time": 152.94084,
                    "velocity": 0.47244094488188976,
                    "duration": 0.09803899999999999
                },
                {
                    "name": "G3",
                    "midi": 55,
                    "time": 153.332996,
                    "velocity": 0.47244094488188976,
                    "duration": 0.09803899999999999
                },
                {
                    "name": "G3",
                    "midi": 55,
                    "time": 153.725152,
                    "velocity": 0.47244094488188976,
                    "duration": 8.137236999999999
                },
                {
                    "name": "F3",
                    "midi": 53,
                    "time": 163.136896,
                    "velocity": 0.47244094488188976,
                    "duration": 0.09803899999999999
                },
                {
                    "name": "G3",
                    "midi": 55,
                    "time": 164.70552,
                    "velocity": 0.47244094488188976,
                    "duration": 0.09803899999999999
                },
                {
                    "name": "D3",
                    "midi": 50,
                    "time": 172.54864,
                    "velocity": 0.47244094488188976,
                    "duration": 0.39215599999999995
                },
                {
                    "name": "G2",
                    "midi": 43,
                    "time": 172.940796,
                    "velocity": 0.47244094488188976,
                    "duration": 0.39215599999999995
                },
                {
                    "name": "C3",
                    "midi": 48,
                    "time": 173.332952,
                    "velocity": 0.47244094488188976,
                    "duration": 0.39215599999999995
                },
                {
                    "name": "D3",
                    "midi": 50,
                    "time": 173.725108,
                    "velocity": 0.47244094488188976,
                    "duration": 0.39215599999999995
                },
                {
                    "name": "G2",
                    "midi": 43,
                    "time": 174.117264,
                    "velocity": 0.47244094488188976,
                    "duration": 0.1919930416666773
                },
                {
                    "name": "G#3",
                    "midi": 56,
                    "time": 182.35254,
                    "velocity": 0.47244094488188976,
                    "duration": 0.39215599999999995
                },
                {
                    "name": "A3",
                    "midi": 57,
                    "time": 182.744696,
                    "velocity": 0.47244094488188976,
                    "duration": 0.39215599999999995
                },
                {
                    "name": "E3",
                    "midi": 52,
                    "time": 183.136852,
                    "velocity": 0.47244094488188976,
                    "duration": 0.39215599999999995
                },
                {
                    "name": "F3",
                    "midi": 53,
                    "time": 183.529008,
                    "velocity": 0.47244094488188976,
                    "duration": 0.6862729999999999
                },
                {
                    "name": "F#3",
                    "midi": 54,
                    "time": 184.31332,
                    "velocity": 0.47244094488188976,
                    "duration": 0.7843119999999999
                },
                {
                    "name": "G3",
                    "midi": 55,
                    "time": 185.097632,
                    "velocity": 0.47244094488188976,
                    "duration": 0.7843119999999999
                },
                {
                    "name": "G2",
                    "midi": 43,
                    "time": 185.881944,
                    "velocity": 0.47244094488188976,
                    "duration": 0.7843119999999999
                },
                {
                    "name": "G#2",
                    "midi": 44,
                    "time": 186.666256,
                    "velocity": 0.47244094488188976,
                    "duration": 0.7843119999999999
                },
                {
                    "name": "G#2",
                    "midi": 44,
                    "time": 187.450568,
                    "velocity": 0.47244094488188976,
                    "duration": 0.39215599999999995
                },
                {
                    "name": "G#2",
                    "midi": 44,
                    "time": 187.842724,
                    "velocity": 0.47244094488188976,
                    "duration": 0.39215599999999995
                },
                {
                    "name": "G2",
                    "midi": 43,
                    "time": 188.23488,
                    "velocity": 0.47244094488188976,
                    "duration": 0.7843119999999999
                },
                {
                    "name": "D#3",
                    "midi": 51,
                    "time": 189.019192,
                    "velocity": 0.47244094488188976,
                    "duration": 0.7843119999999999
                },
                {
                    "name": "G#2",
                    "midi": 44,
                    "time": 189.803504,
                    "velocity": 0.47244094488188976,
                    "duration": 0.7843119999999999
                },
                {
                    "name": "G#2",
                    "midi": 44,
                    "time": 190.587816,
                    "velocity": 0.47244094488188976,
                    "duration": 0.39215599999999995
                },
                {
                    "name": "G#2",
                    "midi": 44,
                    "time": 190.979972,
                    "velocity": 0.47244094488188976,
                    "duration": 0.39215599999999995
                },
                {
                    "name": "G2",
                    "midi": 43,
                    "time": 191.372128,
                    "velocity": 0.47244094488188976,
                    "duration": 0.7843119999999999
                },
                {
                    "name": "G2",
                    "midi": 43,
                    "time": 192.15644,
                    "velocity": 0.47244094488188976,
                    "duration": 0.6862729999999999
                },
                {
                    "name": "C4",
                    "midi": 60,
                    "time": 193.725064,
                    "velocity": 0.47244094488188976,
                    "duration": 0.7843119999999999
                },
                {
                    "name": "C#4",
                    "midi": 61,
                    "time": 194.509376,
                    "velocity": 0.47244094488188976,
                    "duration": 1.5686239999999998
                },
                {
                    "name": "C4",
                    "midi": 60,
                    "time": 196.078,
                    "velocity": 0.47244094488188976,
                    "duration": 2.3529359999999997
                },
                {
                    "name": "B3",
                    "midi": 59,
                    "time": 198.430936,
                    "velocity": 0.47244094488188976,
                    "duration": 0.6862729999999999
                },
                {
                    "name": "C3",
                    "midi": 48,
                    "time": 199.215248,
                    "velocity": 0.47244094488188976,
                    "duration": 0.39215599999999995
                },
                {
                    "name": "A2",
                    "midi": 45,
                    "time": 199.607404,
                    "velocity": 0.47244094488188976,
                    "duration": 0.39215599999999995
                },
                {
                    "name": "D3",
                    "midi": 50,
                    "time": 199.99956,
                    "velocity": 0.47244094488188976,
                    "duration": 0.39215599999999995
                },
                {
                    "name": "G2",
                    "midi": 43,
                    "time": 200.391716,
                    "velocity": 0.47244094488188976,
                    "duration": 0.39215599999999995
                },
                {
                    "name": "C3",
                    "midi": 48,
                    "time": 200.783872,
                    "velocity": 0.47244094488188976,
                    "duration": 0.39215599999999995
                },
                {
                    "name": "F2",
                    "midi": 41,
                    "time": 201.176028,
                    "velocity": 0.47244094488188976,
                    "duration": 0.39215599999999995
                },
                {
                    "name": "B2",
                    "midi": 47,
                    "time": 201.568184,
                    "velocity": 0.47244094488188976,
                    "duration": 0.39215599999999995
                },
                {
                    "name": "E2",
                    "midi": 40,
                    "time": 201.96034,
                    "velocity": 0.47244094488188976,
                    "duration": 0.39215599999999995
                },
                {
                    "name": "A2",
                    "midi": 45,
                    "time": 202.352496,
                    "velocity": 0.47244094488188976,
                    "duration": 0.39215599999999995
                },
                {
                    "name": "D2",
                    "midi": 38,
                    "time": 202.744652,
                    "velocity": 0.47244094488188976,
                    "duration": 0.39215599999999995
                },
                {
                    "name": "G2",
                    "midi": 43,
                    "time": 203.136808,
                    "velocity": 0.47244094488188976,
                    "duration": 0.39215599999999995
                },
                {
                    "name": "F3",
                    "midi": 53,
                    "time": 203.528964,
                    "velocity": 0.47244094488188976,
                    "duration": 0.39215599999999995
                },
                {
                    "name": "E3",
                    "midi": 52,
                    "time": 203.92112,
                    "velocity": 0.47244094488188976,
                    "duration": 0.39215599999999995
                },
                {
                    "name": "F3",
                    "midi": 53,
                    "time": 204.313276,
                    "velocity": 0.47244094488188976,
                    "duration": 0.39215599999999995
                },
                {
                    "name": "G3",
                    "midi": 55,
                    "time": 204.705432,
                    "velocity": 0.47244094488188976,
                    "duration": 0.39215599999999995
                },
                {
                    "name": "G2",
                    "midi": 43,
                    "time": 205.097588,
                    "velocity": 0.47244094488188976,
                    "duration": 0.39215599999999995
                },
                {
                    "name": "C3",
                    "midi": 48,
                    "time": 205.489744,
                    "velocity": 0.47244094488188976,
                    "duration": 0.39215599999999995
                },
                {
                    "name": "A2",
                    "midi": 45,
                    "time": 205.8819,
                    "velocity": 0.47244094488188976,
                    "duration": 0.39215599999999995
                },
                {
                    "name": "D3",
                    "midi": 50,
                    "time": 206.274056,
                    "velocity": 0.47244094488188976,
                    "duration": 0.39215599999999995
                },
                {
                    "name": "G2",
                    "midi": 43,
                    "time": 206.666212,
                    "velocity": 0.47244094488188976,
                    "duration": 0.39215599999999995
                },
                {
                    "name": "C3",
                    "midi": 48,
                    "time": 207.058368,
                    "velocity": 0.47244094488188976,
                    "duration": 0.39215599999999995
                },
                {
                    "name": "F2",
                    "midi": 41,
                    "time": 207.450524,
                    "velocity": 0.47244094488188976,
                    "duration": 0.39215599999999995
                },
                {
                    "name": "B2",
                    "midi": 47,
                    "time": 207.84268,
                    "velocity": 0.47244094488188976,
                    "duration": 0.39215599999999995
                },
                {
                    "name": "E2",
                    "midi": 40,
                    "time": 208.234836,
                    "velocity": 0.47244094488188976,
                    "duration": 0.39215599999999995
                },
                {
                    "name": "A2",
                    "midi": 45,
                    "time": 208.626992,
                    "velocity": 0.47244094488188976,
                    "duration": 0.39215599999999995
                },
                {
                    "name": "D2",
                    "midi": 38,
                    "time": 209.019148,
                    "velocity": 0.47244094488188976,
                    "duration": 0.39215599999999995
                },
                {
                    "name": "G2",
                    "midi": 43,
                    "time": 209.411304,
                    "velocity": 0.47244094488188976,
                    "duration": 0.39215599999999995
                },
                {
                    "name": "F3",
                    "midi": 53,
                    "time": 209.80346,
                    "velocity": 0.47244094488188976,
                    "duration": 0.39215599999999995
                },
                {
                    "name": "E3",
                    "midi": 52,
                    "time": 210.195616,
                    "velocity": 0.47244094488188976,
                    "duration": 0.39215599999999995
                },
                {
                    "name": "F3",
                    "midi": 53,
                    "time": 210.587772,
                    "velocity": 0.47244094488188976,
                    "duration": 0.39215599999999995
                },
                {
                    "name": "G3",
                    "midi": 55,
                    "time": 210.979928,
                    "velocity": 0.47244094488188976,
                    "duration": 0.39215599999999995
                },
                {
                    "name": "G2",
                    "midi": 43,
                    "time": 211.372084,
                    "velocity": 0.47244094488188976,
                    "duration": 0.39215599999999995
                },
                {
                    "name": "C3",
                    "midi": 48,
                    "time": 211.76424,
                    "velocity": 0.47244094488188976,
                    "duration": 0.7843119999999999
                },
                {
                    "name": "G2",
                    "midi": 43,
                    "time": 212.548552,
                    "velocity": 0.47244094488188976,
                    "duration": 0.7843119999999999
                },
                {
                    "name": "C3",
                    "midi": 48,
                    "time": 213.332864,
                    "velocity": 0.47244094488188976,
                    "duration": 0.7843119999999999
                },
                {
                    "name": "G3",
                    "midi": 55,
                    "time": 214.117176,
                    "velocity": 0.47244094488188976,
                    "duration": 0.7843119999999999
                },
                {
                    "name": "C3",
                    "midi": 48,
                    "time": 214.901488,
                    "velocity": 0.47244094488188976,
                    "duration": 0.7843119999999999
                },
                {
                    "name": "G2",
                    "midi": 43,
                    "time": 215.6858,
                    "velocity": 0.47244094488188976,
                    "duration": 0.7843119999999999
                },
                {
                    "name": "C3",
                    "midi": 48,
                    "time": 216.470112,
                    "velocity": 0.47244094488188976,
                    "duration": 0.7843119999999999
                },
                {
                    "name": "G2",
                    "midi": 43,
                    "time": 217.254424,
                    "velocity": 0.47244094488188976,
                    "duration": 0.7843119999999999
                },
                {
                    "name": "C3",
                    "midi": 48,
                    "time": 218.038736,
                    "velocity": 0.47244094488188976,
                    "duration": 0.39215599999999995
                },
                {
                    "name": "G2",
                    "midi": 43,
                    "time": 218.430892,
                    "velocity": 0.47244094488188976,
                    "duration": 0.3267966666666666
                },
                {
                    "name": "C3",
                    "midi": 48,
                    "time": 218.823048,
                    "velocity": 0.8503937007874016,
                    "duration": 0.06535933333333332
                },
                {
                    "name": "E3",
                    "midi": 52,
                    "time": 218.921087,
                    "velocity": 0.8503937007874016,
                    "duration": 0.06535933333333332
                },
                {
                    "name": "G3",
                    "midi": 55,
                    "time": 219.019126,
                    "velocity": 0.8503937007874016,
                    "duration": 0.06535933333333332
                },
                {
                    "name": "C4",
                    "midi": 60,
                    "time": 219.117165,
                    "velocity": 0.8503937007874016,
                    "duration": 0.06535933333333332
                },
                {
                    "name": "G3",
                    "midi": 55,
                    "time": 219.215204,
                    "velocity": 0.8503937007874016,
                    "duration": 0.06535933333333332
                },
                {
                    "name": "B3",
                    "midi": 59,
                    "time": 219.313243,
                    "velocity": 0.8503937007874016,
                    "duration": 0.06535933333333332
                },
                {
                    "name": "D4",
                    "midi": 62,
                    "time": 219.411282,
                    "velocity": 0.8503937007874016,
                    "duration": 0.06535933333333332
                },
                {
                    "name": "G4",
                    "midi": 67,
                    "time": 219.509321,
                    "velocity": 0.8503937007874016,
                    "duration": 0.06535933333333332
                },
                {
                    "name": "C4",
                    "midi": 60,
                    "time": 219.60736,
                    "velocity": 0.8503937007874016,
                    "duration": 0.06535933333333332
                },
                {
                    "name": "E4",
                    "midi": 64,
                    "time": 219.705399,
                    "velocity": 0.8503937007874016,
                    "duration": 0.06535933333333332
                },
                {
                    "name": "G4",
                    "midi": 67,
                    "time": 219.803438,
                    "velocity": 0.8503937007874016,
                    "duration": 0.06535933333333332
                },
                {
                    "name": "C5",
                    "midi": 72,
                    "time": 219.901477,
                    "velocity": 0.8503937007874016,
                    "duration": 0.06535933333333332
                },
                {
                    "name": "B4",
                    "midi": 71,
                    "time": 219.999516,
                    "velocity": 0.8503937007874016,
                    "duration": 0.06535933333333332
                },
                {
                    "name": "G4",
                    "midi": 67,
                    "time": 220.097555,
                    "velocity": 0.8503937007874016,
                    "duration": 0.06535933333333332
                },
                {
                    "name": "F4",
                    "midi": 65,
                    "time": 220.195594,
                    "velocity": 0.8503937007874016,
                    "duration": 0.06535933333333332
                },
                {
                    "name": "D4",
                    "midi": 62,
                    "time": 220.293633,
                    "velocity": 0.8503937007874016,
                    "duration": 0.06535933333333332
                },
                {
                    "name": "C4",
                    "midi": 60,
                    "time": 220.391672,
                    "velocity": 0.8503937007874016,
                    "duration": 0.06535933333333332
                },
                {
                    "name": "E4",
                    "midi": 64,
                    "time": 220.489711,
                    "velocity": 0.8503937007874016,
                    "duration": 0.06535933333333332
                },
                {
                    "name": "G4",
                    "midi": 67,
                    "time": 220.58775,
                    "velocity": 0.8503937007874016,
                    "duration": 0.06535933333333332
                },
                {
                    "name": "C5",
                    "midi": 72,
                    "time": 220.685789,
                    "velocity": 0.8503937007874016,
                    "duration": 0.06535933333333332
                },
                {
                    "name": "G4",
                    "midi": 67,
                    "time": 220.783828,
                    "velocity": 0.8503937007874016,
                    "duration": 0.06535933333333332
                },
                {
                    "name": "B4",
                    "midi": 71,
                    "time": 220.881867,
                    "velocity": 0.8503937007874016,
                    "duration": 0.06535933333333332
                },
                {
                    "name": "D5",
                    "midi": 74,
                    "time": 220.979906,
                    "velocity": 0.8503937007874016,
                    "duration": 0.06535933333333332
                },
                {
                    "name": "G5",
                    "midi": 79,
                    "time": 221.077945,
                    "velocity": 0.8503937007874016,
                    "duration": 0.06535933333333332
                },
                {
                    "name": "C3",
                    "midi": 48,
                    "time": 221.175984,
                    "velocity": 0.8503937007874016,
                    "duration": 0.06535933333333332
                },
                {
                    "name": "C3",
                    "midi": 48,
                    "time": 221.274023,
                    "velocity": 0.8503937007874016,
                    "duration": 0.06535933333333332
                },
                {
                    "name": "D3",
                    "midi": 50,
                    "time": 221.372062,
                    "velocity": 0.8503937007874016,
                    "duration": 0.06535933333333332
                },
                {
                    "name": "E3",
                    "midi": 52,
                    "time": 221.470101,
                    "velocity": 0.8503937007874016,
                    "duration": 0.06535933333333332
                },
                {
                    "name": "F3",
                    "midi": 53,
                    "time": 221.56814,
                    "velocity": 0.8503937007874016,
                    "duration": 0.06535933333333332
                },
                {
                    "name": "G3",
                    "midi": 55,
                    "time": 221.666179,
                    "velocity": 0.8503937007874016,
                    "duration": 0.06535933333333332
                },
                {
                    "name": "A3",
                    "midi": 57,
                    "time": 221.764218,
                    "velocity": 0.8503937007874016,
                    "duration": 0.06535933333333332
                },
                {
                    "name": "B3",
                    "midi": 59,
                    "time": 221.862257,
                    "velocity": 0.8503937007874016,
                    "duration": 0.06535933333333332
                },
                {
                    "name": "C4",
                    "midi": 60,
                    "time": 221.960296,
                    "velocity": 0.8503937007874016,
                    "duration": 0.06535933333333332
                },
                {
                    "name": "C4",
                    "midi": 60,
                    "time": 222.058335,
                    "velocity": 0.8503937007874016,
                    "duration": 0.06535933333333332
                },
                {
                    "name": "D4",
                    "midi": 62,
                    "time": 222.156374,
                    "velocity": 0.8503937007874016,
                    "duration": 0.06535933333333332
                },
                {
                    "name": "E4",
                    "midi": 64,
                    "time": 222.254413,
                    "velocity": 0.8503937007874016,
                    "duration": 0.06535933333333332
                },
                {
                    "name": "F4",
                    "midi": 65,
                    "time": 222.352452,
                    "velocity": 0.8503937007874016,
                    "duration": 0.06535933333333332
                },
                {
                    "name": "G4",
                    "midi": 67,
                    "time": 222.450491,
                    "velocity": 0.8503937007874016,
                    "duration": 0.06535933333333332
                },
                {
                    "name": "A4",
                    "midi": 69,
                    "time": 222.54853,
                    "velocity": 0.8503937007874016,
                    "duration": 0.06535933333333332
                },
                {
                    "name": "B4",
                    "midi": 71,
                    "time": 222.646569,
                    "velocity": 0.8503937007874016,
                    "duration": 0.06535933333333332
                },
                {
                    "name": "C4",
                    "midi": 60,
                    "time": 222.744608,
                    "velocity": 0.8503937007874016,
                    "duration": 0.06535933333333332
                },
                {
                    "name": "C5",
                    "midi": 72,
                    "time": 222.744608,
                    "velocity": 0.8503937007874016,
                    "duration": 0.06535933333333332
                },
                {
                    "name": "C4",
                    "midi": 60,
                    "time": 222.842647,
                    "velocity": 0.8503937007874016,
                    "duration": 0.06535933333333332
                },
                {
                    "name": "C5",
                    "midi": 72,
                    "time": 222.842647,
                    "velocity": 0.8503937007874016,
                    "duration": 0.06535933333333332
                },
                {
                    "name": "D4",
                    "midi": 62,
                    "time": 222.940686,
                    "velocity": 0.8503937007874016,
                    "duration": 0.06535933333333332
                },
                {
                    "name": "D5",
                    "midi": 74,
                    "time": 222.940686,
                    "velocity": 0.8503937007874016,
                    "duration": 0.06535933333333332
                },
                {
                    "name": "E4",
                    "midi": 64,
                    "time": 223.038725,
                    "velocity": 0.8503937007874016,
                    "duration": 0.06535933333333332
                },
                {
                    "name": "E5",
                    "midi": 76,
                    "time": 223.038725,
                    "velocity": 0.8503937007874016,
                    "duration": 0.06535933333333332
                },
                {
                    "name": "F4",
                    "midi": 65,
                    "time": 223.136764,
                    "velocity": 0.8503937007874016,
                    "duration": 0.06535933333333332
                },
                {
                    "name": "F5",
                    "midi": 77,
                    "time": 223.136764,
                    "velocity": 0.8503937007874016,
                    "duration": 0.06535933333333332
                },
                {
                    "name": "G4",
                    "midi": 67,
                    "time": 223.234803,
                    "velocity": 0.8503937007874016,
                    "duration": 0.06535933333333332
                },
                {
                    "name": "G5",
                    "midi": 79,
                    "time": 223.234803,
                    "velocity": 0.8503937007874016,
                    "duration": 0.06535933333333332
                },
                {
                    "name": "A4",
                    "midi": 69,
                    "time": 223.332842,
                    "velocity": 0.8503937007874016,
                    "duration": 0.06535933333333332
                },
                {
                    "name": "A5",
                    "midi": 81,
                    "time": 223.332842,
                    "velocity": 0.8503937007874016,
                    "duration": 0.06535933333333332
                },
                {
                    "name": "B4",
                    "midi": 71,
                    "time": 223.430881,
                    "velocity": 0.8503937007874016,
                    "duration": 0.06535933333333332
                },
                {
                    "name": "B5",
                    "midi": 83,
                    "time": 223.430881,
                    "velocity": 0.8503937007874016,
                    "duration": 0.06535933333333332
                },
                {
                    "name": "C5",
                    "midi": 72,
                    "time": 223.52892,
                    "velocity": 0.8503937007874016,
                    "duration": 0.06535933333333332
                },
                {
                    "name": "C6",
                    "midi": 84,
                    "time": 223.52892,
                    "velocity": 0.8503937007874016,
                    "duration": 0.06535933333333332
                },
                {
                    "name": "C5",
                    "midi": 72,
                    "time": 223.626959,
                    "velocity": 0.8503937007874016,
                    "duration": 0.06535933333333332
                },
                {
                    "name": "C6",
                    "midi": 84,
                    "time": 223.626959,
                    "velocity": 0.8503937007874016,
                    "duration": 0.06535933333333332
                },
                {
                    "name": "B4",
                    "midi": 71,
                    "time": 223.724998,
                    "velocity": 0.8503937007874016,
                    "duration": 0.06535933333333332
                },
                {
                    "name": "B5",
                    "midi": 83,
                    "time": 223.724998,
                    "velocity": 0.8503937007874016,
                    "duration": 0.06535933333333332
                },
                {
                    "name": "A4",
                    "midi": 69,
                    "time": 223.823037,
                    "velocity": 0.8503937007874016,
                    "duration": 0.06535933333333332
                },
                {
                    "name": "A5",
                    "midi": 81,
                    "time": 223.823037,
                    "velocity": 0.8503937007874016,
                    "duration": 0.06535933333333332
                },
                {
                    "name": "G4",
                    "midi": 67,
                    "time": 223.921076,
                    "velocity": 0.8503937007874016,
                    "duration": 0.06535933333333332
                },
                {
                    "name": "G5",
                    "midi": 79,
                    "time": 223.921076,
                    "velocity": 0.8503937007874016,
                    "duration": 0.06535933333333332
                },
                {
                    "name": "F4",
                    "midi": 65,
                    "time": 224.019115,
                    "velocity": 0.8503937007874016,
                    "duration": 0.06535933333333332
                },
                {
                    "name": "F5",
                    "midi": 77,
                    "time": 224.019115,
                    "velocity": 0.8503937007874016,
                    "duration": 0.06535933333333332
                },
                {
                    "name": "E4",
                    "midi": 64,
                    "time": 224.117154,
                    "velocity": 0.8503937007874016,
                    "duration": 0.06535933333333332
                },
                {
                    "name": "E5",
                    "midi": 76,
                    "time": 224.117154,
                    "velocity": 0.8503937007874016,
                    "duration": 0.06535933333333332
                },
                {
                    "name": "D4",
                    "midi": 62,
                    "time": 224.215193,
                    "velocity": 0.8503937007874016,
                    "duration": 0.06535933333333332
                },
                {
                    "name": "D5",
                    "midi": 74,
                    "time": 224.215193,
                    "velocity": 0.8503937007874016,
                    "duration": 0.06535933333333332
                },
                {
                    "name": "C4",
                    "midi": 60,
                    "time": 224.313232,
                    "velocity": 0.8503937007874016,
                    "duration": 0.06535933333333332
                },
                {
                    "name": "C5",
                    "midi": 72,
                    "time": 224.313232,
                    "velocity": 0.8503937007874016,
                    "duration": 0.06535933333333332
                },
                {
                    "name": "C4",
                    "midi": 60,
                    "time": 224.411271,
                    "velocity": 0.8503937007874016,
                    "duration": 0.06535933333333332
                },
                {
                    "name": "C5",
                    "midi": 72,
                    "time": 224.411271,
                    "velocity": 0.8503937007874016,
                    "duration": 0.06535933333333332
                },
                {
                    "name": "B3",
                    "midi": 59,
                    "time": 224.50931,
                    "velocity": 0.8503937007874016,
                    "duration": 0.06535933333333332
                },
                {
                    "name": "B4",
                    "midi": 71,
                    "time": 224.50931,
                    "velocity": 0.8503937007874016,
                    "duration": 0.06535933333333332
                },
                {
                    "name": "A3",
                    "midi": 57,
                    "time": 224.607349,
                    "velocity": 0.8503937007874016,
                    "duration": 0.06535933333333332
                },
                {
                    "name": "A4",
                    "midi": 69,
                    "time": 224.607349,
                    "velocity": 0.8503937007874016,
                    "duration": 0.06535933333333332
                },
                {
                    "name": "G3",
                    "midi": 55,
                    "time": 224.705388,
                    "velocity": 0.8503937007874016,
                    "duration": 0.06535933333333332
                },
                {
                    "name": "G4",
                    "midi": 67,
                    "time": 224.705388,
                    "velocity": 0.8503937007874016,
                    "duration": 0.06535933333333332
                },
                {
                    "name": "F3",
                    "midi": 53,
                    "time": 224.803427,
                    "velocity": 0.8503937007874016,
                    "duration": 0.06535933333333332
                },
                {
                    "name": "F4",
                    "midi": 65,
                    "time": 224.803427,
                    "velocity": 0.8503937007874016,
                    "duration": 0.06535933333333332
                },
                {
                    "name": "E3",
                    "midi": 52,
                    "time": 224.901466,
                    "velocity": 0.8503937007874016,
                    "duration": 0.06535933333333332
                },
                {
                    "name": "E4",
                    "midi": 64,
                    "time": 224.901466,
                    "velocity": 0.8503937007874016,
                    "duration": 0.06535933333333332
                },
                {
                    "name": "D3",
                    "midi": 50,
                    "time": 224.999505,
                    "velocity": 0.8503937007874016,
                    "duration": 0.06535933333333332
                },
                {
                    "name": "D4",
                    "midi": 62,
                    "time": 224.999505,
                    "velocity": 0.8503937007874016,
                    "duration": 0.06535933333333332
                },
                {
                    "name": "C3",
                    "midi": 48,
                    "time": 225.097544,
                    "velocity": 0.8503937007874016,
                    "duration": 0.06535933333333332
                },
                {
                    "name": "C4",
                    "midi": 60,
                    "time": 225.097544,
                    "velocity": 0.8503937007874016,
                    "duration": 0.06535933333333332
                },
                {
                    "name": "C3",
                    "midi": 48,
                    "time": 225.195583,
                    "velocity": 0.8503937007874016,
                    "duration": 0.06535933333333332
                },
                {
                    "name": "C4",
                    "midi": 60,
                    "time": 225.195583,
                    "velocity": 0.8503937007874016,
                    "duration": 0.06535933333333332
                },
                {
                    "name": "B2",
                    "midi": 47,
                    "time": 225.293622,
                    "velocity": 0.8503937007874016,
                    "duration": 0.06535933333333332
                },
                {
                    "name": "B3",
                    "midi": 59,
                    "time": 225.293622,
                    "velocity": 0.8503937007874016,
                    "duration": 0.06535933333333332
                },
                {
                    "name": "A2",
                    "midi": 45,
                    "time": 225.391661,
                    "velocity": 0.8503937007874016,
                    "duration": 0.06535933333333332
                },
                {
                    "name": "A3",
                    "midi": 57,
                    "time": 225.391661,
                    "velocity": 0.8503937007874016,
                    "duration": 0.06535933333333332
                },
                {
                    "name": "G2",
                    "midi": 43,
                    "time": 225.4897,
                    "velocity": 0.8503937007874016,
                    "duration": 0.06535933333333332
                },
                {
                    "name": "G3",
                    "midi": 55,
                    "time": 225.4897,
                    "velocity": 0.8503937007874016,
                    "duration": 0.06535933333333332
                },
                {
                    "name": "F2",
                    "midi": 41,
                    "time": 225.587739,
                    "velocity": 0.8503937007874016,
                    "duration": 0.06535933333333332
                },
                {
                    "name": "F3",
                    "midi": 53,
                    "time": 225.587739,
                    "velocity": 0.8503937007874016,
                    "duration": 0.06535933333333332
                },
                {
                    "name": "E2",
                    "midi": 40,
                    "time": 225.685778,
                    "velocity": 0.8503937007874016,
                    "duration": 0.06535933333333332
                },
                {
                    "name": "E3",
                    "midi": 52,
                    "time": 225.685778,
                    "velocity": 0.8503937007874016,
                    "duration": 0.06535933333333332
                },
                {
                    "name": "D2",
                    "midi": 38,
                    "time": 225.783817,
                    "velocity": 0.8503937007874016,
                    "duration": 0.06535933333333332
                },
                {
                    "name": "D3",
                    "midi": 50,
                    "time": 225.783817,
                    "velocity": 0.8503937007874016,
                    "duration": 0.06535933333333332
                },
                {
                    "name": "C2",
                    "midi": 36,
                    "time": 225.881856,
                    "velocity": 0.8503937007874016,
                    "duration": 0.06535933333333332
                },
                {
                    "name": "C3",
                    "midi": 48,
                    "time": 225.881856,
                    "velocity": 0.8503937007874016,
                    "duration": 0.06535933333333332
                },
                {
                    "name": "B1",
                    "midi": 35,
                    "time": 226.077934,
                    "velocity": 0.8503937007874016,
                    "duration": 0.06535933333333332
                },
                {
                    "name": "B2",
                    "midi": 47,
                    "time": 226.077934,
                    "velocity": 0.8503937007874016,
                    "duration": 0.06535933333333332
                },
                {
                    "name": "A1",
                    "midi": 33,
                    "time": 226.274012,
                    "velocity": 0.8503937007874016,
                    "duration": 0.06535933333333332
                },
                {
                    "name": "A2",
                    "midi": 45,
                    "time": 226.274012,
                    "velocity": 0.8503937007874016,
                    "duration": 0.06535933333333332
                },
                {
                    "name": "G#1",
                    "midi": 32,
                    "time": 226.47009,
                    "velocity": 0.8503937007874016,
                    "duration": 0.06535933333333332
                },
                {
                    "name": "G#2",
                    "midi": 44,
                    "time": 226.47009,
                    "velocity": 0.8503937007874016,
                    "duration": 0.06535933333333332
                },
                {
                    "name": "G1",
                    "midi": 31,
                    "time": 226.666168,
                    "velocity": 0.8503937007874016,
                    "duration": 0.06535933333333332
                },
                {
                    "name": "G2",
                    "midi": 43,
                    "time": 226.666168,
                    "velocity": 0.8503937007874016,
                    "duration": 0.06535933333333332
                },
                {
                    "name": "F1",
                    "midi": 29,
                    "time": 226.862246,
                    "velocity": 0.8503937007874016,
                    "duration": 0.06535933333333332
                },
                {
                    "name": "F2",
                    "midi": 41,
                    "time": 226.862246,
                    "velocity": 0.8503937007874016,
                    "duration": 0.06535933333333332
                },
                {
                    "name": "E1",
                    "midi": 28,
                    "time": 227.058324,
                    "velocity": 0.8503937007874016,
                    "duration": 0.06535933333333332
                },
                {
                    "name": "E2",
                    "midi": 40,
                    "time": 227.058324,
                    "velocity": 0.8503937007874016,
                    "duration": 0.06535933333333332
                },
                {
                    "name": "D1",
                    "midi": 26,
                    "time": 227.254402,
                    "velocity": 0.8503937007874016,
                    "duration": 0.06535933333333332
                },
                {
                    "name": "D2",
                    "midi": 38,
                    "time": 227.254402,
                    "velocity": 0.8503937007874016,
                    "duration": 0.06535933333333332
                },
                {
                    "name": "C1",
                    "midi": 24,
                    "time": 227.45048,
                    "velocity": 1,
                    "duration": 0.06535933333333332
                },
                {
                    "name": "C2",
                    "midi": 36,
                    "time": 227.45048,
                    "velocity": 1,
                    "duration": 0.06535933333333332
                }
            ],
            "controlChanges": {
                "7": [
                    {
                        "number": 7,
                        "time": 0,
                        "value": 1
                    }
                ],
                "10": [
                    {
                        "number": 10,
                        "time": 0,
                        "value": 0.8110236220472441
                    }
                ],
                "91": [
                    {
                        "number": 91,
                        "time": 0,
                        "value": 0.952755905511811
                    }
                ]
            },
            "id": 7,
            "instrumentNumber": 48,
            "instrument": "string ensemble 1",
            "instrumentFamily": "ensemble",
            "channelNumber": 4,
            "isPercussion": false
        },
        {
            "startTime": 8.627432,
            "duration": 227.51583933333333,
            "length": 490,
            "notes": [
                {
                    "name": "G3",
                    "midi": 55,
                    "time": 8.627432,
                    "velocity": 0.47244094488188976,
                    "duration": 0.7843119999999999
                },
                {
                    "name": "F3",
                    "midi": 53,
                    "time": 9.411744,
                    "velocity": 0.47244094488188976,
                    "duration": 0.7843119999999999
                },
                {
                    "name": "E3",
                    "midi": 52,
                    "time": 10.196056,
                    "velocity": 0.47244094488188976,
                    "duration": 0.39215599999999995
                },
                {
                    "name": "F#3",
                    "midi": 54,
                    "time": 10.588212,
                    "velocity": 0.47244094488188976,
                    "duration": 0.39215599999999995
                },
                {
                    "name": "G3",
                    "midi": 55,
                    "time": 10.980368,
                    "velocity": 0.47244094488188976,
                    "duration": 0.19199304166666664
                },
                {
                    "name": "F3",
                    "midi": 53,
                    "time": 15.68624,
                    "velocity": 0.47244094488188976,
                    "duration": 0.7843120000000017
                },
                {
                    "name": "E3",
                    "midi": 52,
                    "time": 16.470552,
                    "velocity": 0.47244094488188976,
                    "duration": 0.7843119999999999
                },
                {
                    "name": "D3",
                    "midi": 50,
                    "time": 17.254864,
                    "velocity": 0.47244094488188976,
                    "duration": 0.7843119999999999
                },
                {
                    "name": "C3",
                    "midi": 48,
                    "time": 18.039176,
                    "velocity": 0.47244094488188976,
                    "duration": 0.7843119999999999
                },
                {
                    "name": "B2",
                    "midi": 47,
                    "time": 18.823488,
                    "velocity": 0.47244094488188976,
                    "duration": 0.19199304166666664
                },
                {
                    "name": "A2",
                    "midi": 45,
                    "time": 30.588168000000003,
                    "velocity": 0.47244094488188976,
                    "duration": 0.7843119999999999
                },
                {
                    "name": "E3",
                    "midi": 52,
                    "time": 31.372480000000003,
                    "velocity": 0.47244094488188976,
                    "duration": 0.7843119999999999
                },
                {
                    "name": "A2",
                    "midi": 45,
                    "time": 32.156792,
                    "velocity": 0.47244094488188976,
                    "duration": 0.7843119999999999
                },
                {
                    "name": "D3",
                    "midi": 50,
                    "time": 32.941104,
                    "velocity": 0.47244094488188976,
                    "duration": 0.7843119999999999
                },
                {
                    "name": "G2",
                    "midi": 43,
                    "time": 33.725416,
                    "velocity": 0.47244094488188976,
                    "duration": 0.7843119999999999
                },
                {
                    "name": "E3",
                    "midi": 52,
                    "time": 34.509728,
                    "velocity": 0.47244094488188976,
                    "duration": 0.7843119999999999
                },
                {
                    "name": "A2",
                    "midi": 45,
                    "time": 35.29404,
                    "velocity": 0.47244094488188976,
                    "duration": 0.7843119999999999
                },
                {
                    "name": "D3",
                    "midi": 50,
                    "time": 36.078352,
                    "velocity": 0.47244094488188976,
                    "duration": 0.1919930416666702
                },
                {
                    "name": "G3",
                    "midi": 55,
                    "time": 37.64697600000001,
                    "velocity": 0.47244094488188976,
                    "duration": 0.06535933333333332
                },
                {
                    "name": "E3",
                    "midi": 52,
                    "time": 38.03913200000001,
                    "velocity": 0.47244094488188976,
                    "duration": 0.06535933333333332
                },
                {
                    "name": "A3",
                    "midi": 57,
                    "time": 38.43128800000001,
                    "velocity": 0.47244094488188976,
                    "duration": 0.06535933333333332
                },
                {
                    "name": "A2",
                    "midi": 45,
                    "time": 38.82344400000001,
                    "velocity": 0.47244094488188976,
                    "duration": 0.06535933333333332
                },
                {
                    "name": "D3",
                    "midi": 50,
                    "time": 39.21560000000001,
                    "velocity": 0.47244094488188976,
                    "duration": 0.06535933333333332
                },
                {
                    "name": "G3",
                    "midi": 55,
                    "time": 40.78422400000001,
                    "velocity": 0.47244094488188976,
                    "duration": 0.06535933333333332
                },
                {
                    "name": "E3",
                    "midi": 52,
                    "time": 41.17638000000001,
                    "velocity": 0.47244094488188976,
                    "duration": 0.06535933333333332
                },
                {
                    "name": "A3",
                    "midi": 57,
                    "time": 41.56853600000001,
                    "velocity": 0.47244094488188976,
                    "duration": 0.06535933333333332
                },
                {
                    "name": "A2",
                    "midi": 45,
                    "time": 41.96069200000001,
                    "velocity": 0.47244094488188976,
                    "duration": 0.06535933333333332
                },
                {
                    "name": "D3",
                    "midi": 50,
                    "time": 42.35284800000001,
                    "velocity": 0.47244094488188976,
                    "duration": 0.06535933333333332
                },
                {
                    "name": "A3",
                    "midi": 57,
                    "time": 42.74500400000001,
                    "velocity": 0.47244094488188976,
                    "duration": 0.39215599999999995
                },
                {
                    "name": "D3",
                    "midi": 50,
                    "time": 43.13716000000001,
                    "velocity": 0.47244094488188976,
                    "duration": 0.39215599999999995
                },
                {
                    "name": "A2",
                    "midi": 45,
                    "time": 43.52931600000001,
                    "velocity": 0.47244094488188976,
                    "duration": 0.39215599999999995
                },
                {
                    "name": "D3",
                    "midi": 50,
                    "time": 43.92147200000001,
                    "velocity": 0.47244094488188976,
                    "duration": 0.39215599999999995
                },
                {
                    "name": "A3",
                    "midi": 57,
                    "time": 44.31362800000001,
                    "velocity": 0.47244094488188976,
                    "duration": 0.39215599999999995
                },
                {
                    "name": "D3",
                    "midi": 50,
                    "time": 44.70578400000001,
                    "velocity": 0.47244094488188976,
                    "duration": 0.39215599999999995
                },
                {
                    "name": "A2",
                    "midi": 45,
                    "time": 45.09794000000001,
                    "velocity": 0.47244094488188976,
                    "duration": 0.39215599999999995
                },
                {
                    "name": "D3",
                    "midi": 50,
                    "time": 45.49009600000001,
                    "velocity": 0.47244094488188976,
                    "duration": 0.1919930416666702
                },
                {
                    "name": "G3",
                    "midi": 55,
                    "time": 51.764592000000015,
                    "velocity": 0.47244094488188976,
                    "duration": 0.39215599999999995
                },
                {
                    "name": "E3",
                    "midi": 52,
                    "time": 52.156748000000015,
                    "velocity": 0.47244094488188976,
                    "duration": 0.39215599999999995
                },
                {
                    "name": "A2",
                    "midi": 45,
                    "time": 52.548904000000014,
                    "velocity": 0.47244094488188976,
                    "duration": 0.39215599999999995
                },
                {
                    "name": "D3",
                    "midi": 50,
                    "time": 52.941060000000014,
                    "velocity": 0.47244094488188976,
                    "duration": 0.39215599999999995
                },
                {
                    "name": "G2",
                    "midi": 43,
                    "time": 53.333216000000014,
                    "velocity": 0.47244094488188976,
                    "duration": 0.39215599999999995
                },
                {
                    "name": "C3",
                    "midi": 48,
                    "time": 53.725372000000014,
                    "velocity": 0.47244094488188976,
                    "duration": 0.39215599999999995
                },
                {
                    "name": "F#2",
                    "midi": 42,
                    "time": 54.117528000000014,
                    "velocity": 0.47244094488188976,
                    "duration": 0.39215599999999995
                },
                {
                    "name": "B2",
                    "midi": 47,
                    "time": 54.509684000000014,
                    "velocity": 0.47244094488188976,
                    "duration": 0.39215599999999995
                },
                {
                    "name": "E2",
                    "midi": 40,
                    "time": 54.901840000000014,
                    "velocity": 0.47244094488188976,
                    "duration": 0.39215599999999995
                },
                {
                    "name": "A2",
                    "midi": 45,
                    "time": 55.293996000000014,
                    "velocity": 0.47244094488188976,
                    "duration": 0.39215599999999995
                },
                {
                    "name": "D3",
                    "midi": 50,
                    "time": 55.686152000000014,
                    "velocity": 0.47244094488188976,
                    "duration": 0.39215599999999995
                },
                {
                    "name": "C3",
                    "midi": 48,
                    "time": 56.078308000000014,
                    "velocity": 0.47244094488188976,
                    "duration": 0.39215599999999995
                },
                {
                    "name": "B2",
                    "midi": 47,
                    "time": 56.470464000000014,
                    "velocity": 0.47244094488188976,
                    "duration": 0.39215599999999995
                },
                {
                    "name": "C3",
                    "midi": 48,
                    "time": 56.862620000000014,
                    "velocity": 0.47244094488188976,
                    "duration": 0.39215599999999995
                },
                {
                    "name": "D3",
                    "midi": 50,
                    "time": 57.254776000000014,
                    "velocity": 0.47244094488188976,
                    "duration": 0.7843119999999999
                },
                {
                    "name": "G2",
                    "midi": 43,
                    "time": 58.039088000000014,
                    "velocity": 0.47244094488188976,
                    "duration": 0.3267966666666666
                },
                {
                    "name": "F3",
                    "midi": 53,
                    "time": 72.15670400000002,
                    "velocity": 0.47244094488188976,
                    "duration": 0.09803899999999999
                },
                {
                    "name": "D3",
                    "midi": 50,
                    "time": 73.72532800000002,
                    "velocity": 0.47244094488188976,
                    "duration": 0.09803899999999999
                },
                {
                    "name": "E3",
                    "midi": 52,
                    "time": 75.29395200000002,
                    "velocity": 0.47244094488188976,
                    "duration": 0.09803899999999999
                },
                {
                    "name": "A3",
                    "midi": 57,
                    "time": 77.64688800000002,
                    "velocity": 0.8503937007874016,
                    "duration": 0.06535933333333332
                },
                {
                    "name": "B3",
                    "midi": 59,
                    "time": 77.74492700000002,
                    "velocity": 0.8503937007874016,
                    "duration": 0.06535933333333332
                },
                {
                    "name": "A3",
                    "midi": 57,
                    "time": 77.84296600000002,
                    "velocity": 0.8503937007874016,
                    "duration": 0.06535933333333332
                },
                {
                    "name": "G#3",
                    "midi": 56,
                    "time": 77.94100500000002,
                    "velocity": 0.8503937007874016,
                    "duration": 0.06535933333333332
                },
                {
                    "name": "A3",
                    "midi": 57,
                    "time": 78.03904400000002,
                    "velocity": 0.8503937007874016,
                    "duration": 0.06535933333333332
                },
                {
                    "name": "B3",
                    "midi": 59,
                    "time": 78.13708300000002,
                    "velocity": 0.8503937007874016,
                    "duration": 0.06535933333333332
                },
                {
                    "name": "C4",
                    "midi": 60,
                    "time": 78.23512200000002,
                    "velocity": 0.8503937007874016,
                    "duration": 0.06535933333333332
                },
                {
                    "name": "A3",
                    "midi": 57,
                    "time": 78.33316100000002,
                    "velocity": 0.8503937007874016,
                    "duration": 0.06535933333333332
                },
                {
                    "name": "B3",
                    "midi": 59,
                    "time": 78.43120000000002,
                    "velocity": 0.8503937007874016,
                    "duration": 0.06535933333333332
                },
                {
                    "name": "A3",
                    "midi": 57,
                    "time": 78.52923900000002,
                    "velocity": 0.8503937007874016,
                    "duration": 0.06535933333333332
                },
                {
                    "name": "G#3",
                    "midi": 56,
                    "time": 78.62727800000002,
                    "velocity": 0.8503937007874016,
                    "duration": 0.06535933333333332
                },
                {
                    "name": "F#3",
                    "midi": 54,
                    "time": 78.72531700000002,
                    "velocity": 0.8503937007874016,
                    "duration": 0.06535933333333332
                },
                {
                    "name": "E3",
                    "midi": 52,
                    "time": 78.82335600000002,
                    "velocity": 0.8503937007874016,
                    "duration": 0.06535933333333332
                },
                {
                    "name": "F#3",
                    "midi": 54,
                    "time": 78.92139500000002,
                    "velocity": 0.8503937007874016,
                    "duration": 0.06535933333333332
                },
                {
                    "name": "G#3",
                    "midi": 56,
                    "time": 79.01943400000002,
                    "velocity": 0.8503937007874016,
                    "duration": 0.06535933333333332
                },
                {
                    "name": "A3",
                    "midi": 57,
                    "time": 79.11747300000002,
                    "velocity": 0.8503937007874016,
                    "duration": 0.06535933333333332
                },
                {
                    "name": "B3",
                    "midi": 59,
                    "time": 79.21551200000002,
                    "velocity": 0.8503937007874016,
                    "duration": 0.06535933333333332
                },
                {
                    "name": "C4",
                    "midi": 60,
                    "time": 79.31355100000002,
                    "velocity": 0.8503937007874016,
                    "duration": 0.06535933333333332
                },
                {
                    "name": "D4",
                    "midi": 62,
                    "time": 79.41159000000002,
                    "velocity": 0.8503937007874016,
                    "duration": 0.06535933333333332
                },
                {
                    "name": "C4",
                    "midi": 60,
                    "time": 79.50962900000002,
                    "velocity": 0.8503937007874016,
                    "duration": 0.06535933333333332
                },
                {
                    "name": "E4",
                    "midi": 64,
                    "time": 79.60766800000002,
                    "velocity": 0.8503937007874016,
                    "duration": 0.06535933333333332
                },
                {
                    "name": "D4",
                    "midi": 62,
                    "time": 79.70570700000002,
                    "velocity": 0.8503937007874016,
                    "duration": 0.06535933333333332
                },
                {
                    "name": "C4",
                    "midi": 60,
                    "time": 79.80374600000002,
                    "velocity": 0.8503937007874016,
                    "duration": 0.06535933333333332
                },
                {
                    "name": "B3",
                    "midi": 59,
                    "time": 79.90178500000002,
                    "velocity": 0.8503937007874016,
                    "duration": 0.06535933333333332
                },
                {
                    "name": "C4",
                    "midi": 60,
                    "time": 79.99982400000002,
                    "velocity": 0.8503937007874016,
                    "duration": 0.06535933333333332
                },
                {
                    "name": "D4",
                    "midi": 62,
                    "time": 80.09786300000002,
                    "velocity": 0.8503937007874016,
                    "duration": 0.06535933333333332
                },
                {
                    "name": "C4",
                    "midi": 60,
                    "time": 80.19590200000002,
                    "velocity": 0.8503937007874016,
                    "duration": 0.06535933333333332
                },
                {
                    "name": "B3",
                    "midi": 59,
                    "time": 80.29394100000002,
                    "velocity": 0.8503937007874016,
                    "duration": 0.06535933333333332
                },
                {
                    "name": "A3",
                    "midi": 57,
                    "time": 80.39198000000002,
                    "velocity": 0.8503937007874016,
                    "duration": 0.06535933333333332
                },
                {
                    "name": "G#3",
                    "midi": 56,
                    "time": 80.49001900000002,
                    "velocity": 0.8503937007874016,
                    "duration": 0.06535933333333332
                },
                {
                    "name": "A3",
                    "midi": 57,
                    "time": 80.58805800000002,
                    "velocity": 0.8503937007874016,
                    "duration": 0.06535933333333332
                },
                {
                    "name": "B3",
                    "midi": 59,
                    "time": 80.68609700000002,
                    "velocity": 0.8503937007874016,
                    "duration": 0.06535933333333332
                },
                {
                    "name": "C4",
                    "midi": 60,
                    "time": 80.78413600000002,
                    "velocity": 0.8503937007874016,
                    "duration": 0.06535933333333332
                },
                {
                    "name": "D4",
                    "midi": 62,
                    "time": 80.88217500000002,
                    "velocity": 0.8503937007874016,
                    "duration": 0.06535933333333332
                },
                {
                    "name": "C4",
                    "midi": 60,
                    "time": 80.98021400000002,
                    "velocity": 0.8503937007874016,
                    "duration": 0.06535933333333332
                },
                {
                    "name": "B3",
                    "midi": 59,
                    "time": 81.07825300000002,
                    "velocity": 0.8503937007874016,
                    "duration": 0.06535933333333332
                },
                {
                    "name": "C4",
                    "midi": 60,
                    "time": 81.17629200000002,
                    "velocity": 0.8503937007874016,
                    "duration": 0.06535933333333332
                },
                {
                    "name": "D4",
                    "midi": 62,
                    "time": 81.27433100000002,
                    "velocity": 0.8503937007874016,
                    "duration": 0.06535933333333332
                },
                {
                    "name": "E4",
                    "midi": 64,
                    "time": 81.37237000000002,
                    "velocity": 0.8503937007874016,
                    "duration": 0.06535933333333332
                },
                {
                    "name": "C4",
                    "midi": 60,
                    "time": 81.47040900000002,
                    "velocity": 0.8503937007874016,
                    "duration": 0.06535933333333332
                },
                {
                    "name": "D4",
                    "midi": 62,
                    "time": 81.56844800000002,
                    "velocity": 0.8503937007874016,
                    "duration": 0.06535933333333332
                },
                {
                    "name": "C4",
                    "midi": 60,
                    "time": 81.66648700000002,
                    "velocity": 0.8503937007874016,
                    "duration": 0.06535933333333332
                },
                {
                    "name": "B3",
                    "midi": 59,
                    "time": 81.76452600000002,
                    "velocity": 0.8503937007874016,
                    "duration": 0.06535933333333332
                },
                {
                    "name": "A3",
                    "midi": 57,
                    "time": 81.86256500000002,
                    "velocity": 0.8503937007874016,
                    "duration": 0.06535933333333332
                },
                {
                    "name": "G3",
                    "midi": 55,
                    "time": 81.96060400000002,
                    "velocity": 0.8503937007874016,
                    "duration": 0.06535933333333332
                },
                {
                    "name": "A3",
                    "midi": 57,
                    "time": 82.05864300000002,
                    "velocity": 0.8503937007874016,
                    "duration": 0.06535933333333332
                },
                {
                    "name": "B3",
                    "midi": 59,
                    "time": 82.15668200000002,
                    "velocity": 0.8503937007874016,
                    "duration": 0.06535933333333332
                },
                {
                    "name": "C4",
                    "midi": 60,
                    "time": 82.25472100000002,
                    "velocity": 0.8503937007874016,
                    "duration": 0.06535933333333332
                },
                {
                    "name": "D4",
                    "midi": 62,
                    "time": 82.35276000000002,
                    "velocity": 0.8503937007874016,
                    "duration": 0.06535933333333332
                },
                {
                    "name": "E4",
                    "midi": 64,
                    "time": 82.45079900000002,
                    "velocity": 0.8503937007874016,
                    "duration": 0.06535933333333332
                },
                {
                    "name": "F4",
                    "midi": 65,
                    "time": 82.54883800000002,
                    "velocity": 0.8503937007874016,
                    "duration": 0.06535933333333332
                },
                {
                    "name": "E4",
                    "midi": 64,
                    "time": 82.64687700000002,
                    "velocity": 0.8503937007874016,
                    "duration": 0.06535933333333332
                },
                {
                    "name": "G4",
                    "midi": 67,
                    "time": 82.74491600000002,
                    "velocity": 0.8503937007874016,
                    "duration": 0.06535933333333332
                },
                {
                    "name": "F4",
                    "midi": 65,
                    "time": 82.84295500000002,
                    "velocity": 0.8503937007874016,
                    "duration": 0.06535933333333332
                },
                {
                    "name": "E4",
                    "midi": 64,
                    "time": 82.94099400000002,
                    "velocity": 0.8503937007874016,
                    "duration": 0.06535933333333332
                },
                {
                    "name": "D4",
                    "midi": 62,
                    "time": 83.03903300000002,
                    "velocity": 0.8503937007874016,
                    "duration": 0.06535933333333332
                },
                {
                    "name": "E4",
                    "midi": 64,
                    "time": 83.13707200000002,
                    "velocity": 0.8503937007874016,
                    "duration": 0.06535933333333332
                },
                {
                    "name": "F4",
                    "midi": 65,
                    "time": 83.23511100000002,
                    "velocity": 0.8503937007874016,
                    "duration": 0.06535933333333332
                },
                {
                    "name": "E4",
                    "midi": 64,
                    "time": 83.33315000000002,
                    "velocity": 0.8503937007874016,
                    "duration": 0.06535933333333332
                },
                {
                    "name": "D4",
                    "midi": 62,
                    "time": 83.43118900000002,
                    "velocity": 0.8503937007874016,
                    "duration": 0.06535933333333332
                },
                {
                    "name": "C4",
                    "midi": 60,
                    "time": 83.52922800000002,
                    "velocity": 0.8503937007874016,
                    "duration": 0.06535933333333332
                },
                {
                    "name": "B3",
                    "midi": 59,
                    "time": 83.62726700000002,
                    "velocity": 0.8503937007874016,
                    "duration": 0.06535933333333332
                },
                {
                    "name": "C4",
                    "midi": 60,
                    "time": 83.72530600000002,
                    "velocity": 0.8503937007874016,
                    "duration": 0.06535933333333332
                },
                {
                    "name": "D4",
                    "midi": 62,
                    "time": 83.82334500000002,
                    "velocity": 0.8503937007874016,
                    "duration": 0.06535933333333332
                },
                {
                    "name": "E4",
                    "midi": 64,
                    "time": 83.92138400000002,
                    "velocity": 0.8503937007874016,
                    "duration": 0.06535933333333332
                },
                {
                    "name": "F#4",
                    "midi": 66,
                    "time": 84.01942300000002,
                    "velocity": 0.8503937007874016,
                    "duration": 0.06535933333333332
                },
                {
                    "name": "E4",
                    "midi": 64,
                    "time": 84.11746200000002,
                    "velocity": 0.8503937007874016,
                    "duration": 0.06535933333333332
                },
                {
                    "name": "D#4",
                    "midi": 63,
                    "time": 84.21550100000002,
                    "velocity": 0.8503937007874016,
                    "duration": 0.06535933333333332
                },
                {
                    "name": "E4",
                    "midi": 64,
                    "time": 84.31354000000002,
                    "velocity": 0.8503937007874016,
                    "duration": 0.06535933333333332
                },
                {
                    "name": "F#4",
                    "midi": 66,
                    "time": 84.41157900000002,
                    "velocity": 0.8503937007874016,
                    "duration": 0.06535933333333332
                },
                {
                    "name": "G4",
                    "midi": 67,
                    "time": 84.50961800000002,
                    "velocity": 0.8503937007874016,
                    "duration": 0.06535933333333332
                },
                {
                    "name": "E4",
                    "midi": 64,
                    "time": 84.60765700000002,
                    "velocity": 0.8503937007874016,
                    "duration": 0.06535933333333332
                },
                {
                    "name": "F#4",
                    "midi": 66,
                    "time": 84.70569600000002,
                    "velocity": 0.8503937007874016,
                    "duration": 0.06535933333333332
                },
                {
                    "name": "E4",
                    "midi": 64,
                    "time": 84.80373500000002,
                    "velocity": 0.8503937007874016,
                    "duration": 0.06535933333333332
                },
                {
                    "name": "D#4",
                    "midi": 63,
                    "time": 84.90177400000002,
                    "velocity": 0.8503937007874016,
                    "duration": 0.06535933333333332
                },
                {
                    "name": "C4",
                    "midi": 60,
                    "time": 84.99981300000002,
                    "velocity": 0.8503937007874016,
                    "duration": 0.06535933333333332
                },
                {
                    "name": "B3",
                    "midi": 59,
                    "time": 85.09785200000002,
                    "velocity": 0.8503937007874016,
                    "duration": 0.06535933333333332
                },
                {
                    "name": "C#4",
                    "midi": 61,
                    "time": 85.19589100000002,
                    "velocity": 0.8503937007874016,
                    "duration": 0.06535933333333332
                },
                {
                    "name": "D#4",
                    "midi": 63,
                    "time": 85.29393000000002,
                    "velocity": 0.8503937007874016,
                    "duration": 0.06535933333333332
                },
                {
                    "name": "E4",
                    "midi": 64,
                    "time": 85.39196900000002,
                    "velocity": 0.8503937007874016,
                    "duration": 0.06535933333333332
                },
                {
                    "name": "F#4",
                    "midi": 66,
                    "time": 85.49000800000002,
                    "velocity": 0.8503937007874016,
                    "duration": 0.06535933333333332
                },
                {
                    "name": "G4",
                    "midi": 67,
                    "time": 85.58804700000002,
                    "velocity": 0.8503937007874016,
                    "duration": 0.06535933333333332
                },
                {
                    "name": "A4",
                    "midi": 69,
                    "time": 85.68608600000002,
                    "velocity": 0.8503937007874016,
                    "duration": 0.06535933333333332
                },
                {
                    "name": "G4",
                    "midi": 67,
                    "time": 85.78412500000002,
                    "velocity": 0.8503937007874016,
                    "duration": 0.06535933333333332
                },
                {
                    "name": "B4",
                    "midi": 71,
                    "time": 85.88216400000002,
                    "velocity": 0.8503937007874016,
                    "duration": 0.06535933333333332
                },
                {
                    "name": "A4",
                    "midi": 69,
                    "time": 85.98020300000002,
                    "velocity": 0.8503937007874016,
                    "duration": 0.06535933333333332
                },
                {
                    "name": "G4",
                    "midi": 67,
                    "time": 86.07824200000002,
                    "velocity": 0.8503937007874016,
                    "duration": 0.06535933333333332
                },
                {
                    "name": "F#4",
                    "midi": 66,
                    "time": 86.17628100000002,
                    "velocity": 0.8503937007874016,
                    "duration": 0.06535933333333332
                },
                {
                    "name": "G4",
                    "midi": 67,
                    "time": 86.27432000000002,
                    "velocity": 0.8503937007874016,
                    "duration": 0.06535933333333332
                },
                {
                    "name": "B4",
                    "midi": 71,
                    "time": 86.37235900000002,
                    "velocity": 0.8503937007874016,
                    "duration": 0.06535933333333332
                },
                {
                    "name": "A#4",
                    "midi": 70,
                    "time": 86.47039800000002,
                    "velocity": 0.8503937007874016,
                    "duration": 0.06535933333333332
                },
                {
                    "name": "B4",
                    "midi": 71,
                    "time": 86.56843700000002,
                    "velocity": 0.8503937007874016,
                    "duration": 0.06535933333333332
                },
                {
                    "name": "C5",
                    "midi": 72,
                    "time": 86.66647600000002,
                    "velocity": 0.8503937007874016,
                    "duration": 0.06535933333333332
                },
                {
                    "name": "B4",
                    "midi": 71,
                    "time": 86.76451500000002,
                    "velocity": 0.8503937007874016,
                    "duration": 0.06535933333333332
                },
                {
                    "name": "A4",
                    "midi": 69,
                    "time": 86.86255400000002,
                    "velocity": 0.8503937007874016,
                    "duration": 0.06535933333333332
                },
                {
                    "name": "G4",
                    "midi": 67,
                    "time": 86.96059300000002,
                    "velocity": 0.8503937007874016,
                    "duration": 0.06535933333333332
                },
                {
                    "name": "F#4",
                    "midi": 66,
                    "time": 87.05863200000002,
                    "velocity": 0.8503937007874016,
                    "duration": 0.06535933333333332
                },
                {
                    "name": "A4",
                    "midi": 69,
                    "time": 87.15667100000002,
                    "velocity": 0.8503937007874016,
                    "duration": 0.06535933333333332
                },
                {
                    "name": "G#4",
                    "midi": 68,
                    "time": 87.25471000000002,
                    "velocity": 0.8503937007874016,
                    "duration": 0.06535933333333332
                },
                {
                    "name": "A4",
                    "midi": 69,
                    "time": 87.35274900000002,
                    "velocity": 0.8503937007874016,
                    "duration": 0.06535933333333332
                },
                {
                    "name": "B4",
                    "midi": 71,
                    "time": 87.45078800000002,
                    "velocity": 0.8503937007874016,
                    "duration": 0.06535933333333332
                },
                {
                    "name": "A4",
                    "midi": 69,
                    "time": 87.54882700000002,
                    "velocity": 0.8503937007874016,
                    "duration": 0.06535933333333332
                },
                {
                    "name": "G4",
                    "midi": 67,
                    "time": 87.64686600000002,
                    "velocity": 0.8503937007874016,
                    "duration": 0.06535933333333332
                },
                {
                    "name": "F#4",
                    "midi": 66,
                    "time": 87.74490500000002,
                    "velocity": 0.8503937007874016,
                    "duration": 0.06535933333333332
                },
                {
                    "name": "E4",
                    "midi": 64,
                    "time": 87.84294400000002,
                    "velocity": 0.8503937007874016,
                    "duration": 0.06535933333333332
                },
                {
                    "name": "G4",
                    "midi": 67,
                    "time": 87.94098300000002,
                    "velocity": 0.8503937007874016,
                    "duration": 0.06535933333333332
                },
                {
                    "name": "F#4",
                    "midi": 66,
                    "time": 88.03902200000002,
                    "velocity": 0.8503937007874016,
                    "duration": 0.06535933333333332
                },
                {
                    "name": "G4",
                    "midi": 67,
                    "time": 88.13706100000002,
                    "velocity": 0.8503937007874016,
                    "duration": 0.06535933333333332
                },
                {
                    "name": "A4",
                    "midi": 69,
                    "time": 88.23510000000002,
                    "velocity": 0.8503937007874016,
                    "duration": 0.06535933333333332
                },
                {
                    "name": "G4",
                    "midi": 67,
                    "time": 88.33313900000002,
                    "velocity": 0.8503937007874016,
                    "duration": 0.06535933333333332
                },
                {
                    "name": "F#4",
                    "midi": 66,
                    "time": 88.43117800000002,
                    "velocity": 0.8503937007874016,
                    "duration": 0.06535933333333332
                },
                {
                    "name": "E4",
                    "midi": 64,
                    "time": 88.52921700000002,
                    "velocity": 0.8503937007874016,
                    "duration": 0.06535933333333332
                },
                {
                    "name": "D#4",
                    "midi": 63,
                    "time": 88.62725600000002,
                    "velocity": 0.8503937007874016,
                    "duration": 0.06535933333333332
                },
                {
                    "name": "E4",
                    "midi": 64,
                    "time": 88.72529500000002,
                    "velocity": 0.8503937007874016,
                    "duration": 0.06535933333333332
                },
                {
                    "name": "F4",
                    "midi": 65,
                    "time": 88.82333400000002,
                    "velocity": 0.8503937007874016,
                    "duration": 0.06535933333333332
                },
                {
                    "name": "G4",
                    "midi": 67,
                    "time": 88.92137300000002,
                    "velocity": 0.8503937007874016,
                    "duration": 0.06535933333333332
                },
                {
                    "name": "A4",
                    "midi": 69,
                    "time": 89.01941200000002,
                    "velocity": 0.8503937007874016,
                    "duration": 0.06535933333333332
                },
                {
                    "name": "F#4",
                    "midi": 66,
                    "time": 89.11745100000002,
                    "velocity": 0.8503937007874016,
                    "duration": 0.06535933333333332
                },
                {
                    "name": "E4",
                    "midi": 64,
                    "time": 89.21549000000002,
                    "velocity": 0.8503937007874016,
                    "duration": 0.06535933333333332
                },
                {
                    "name": "D#4",
                    "midi": 63,
                    "time": 89.31352900000002,
                    "velocity": 0.8503937007874016,
                    "duration": 0.06535933333333332
                },
                {
                    "name": "C4",
                    "midi": 60,
                    "time": 89.41156800000002,
                    "velocity": 0.8503937007874016,
                    "duration": 0.0939540416666631
                },
                {
                    "name": "E4",
                    "midi": 64,
                    "time": 89.50960700000002,
                    "velocity": 0.8503937007874016,
                    "duration": 0.0939540416666631
                },
                {
                    "name": "G4",
                    "midi": 67,
                    "time": 89.60764600000002,
                    "velocity": 0.8503937007874016,
                    "duration": 0.0939540416666631
                },
                {
                    "name": "F#4",
                    "midi": 66,
                    "time": 89.70568500000002,
                    "velocity": 0.8503937007874016,
                    "duration": 0.0939540416666631
                },
                {
                    "name": "E4",
                    "midi": 64,
                    "time": 89.80372400000002,
                    "velocity": 0.8503937007874016,
                    "duration": 0.0939540416666631
                },
                {
                    "name": "D#4",
                    "midi": 63,
                    "time": 89.90176300000002,
                    "velocity": 0.8503937007874016,
                    "duration": 0.0939540416666631
                },
                {
                    "name": "C4",
                    "midi": 60,
                    "time": 89.99980200000002,
                    "velocity": 0.8503937007874016,
                    "duration": 0.0939540416666631
                },
                {
                    "name": "B3",
                    "midi": 59,
                    "time": 90.09784100000002,
                    "velocity": 0.8503937007874016,
                    "duration": 0.0939540416666631
                },
                {
                    "name": "C#4",
                    "midi": 61,
                    "time": 90.19588000000002,
                    "velocity": 0.8503937007874016,
                    "duration": 0.06535933333333332
                },
                {
                    "name": "D4",
                    "midi": 62,
                    "time": 90.29391900000002,
                    "velocity": 0.8503937007874016,
                    "duration": 0.06535933333333332
                },
                {
                    "name": "E4",
                    "midi": 64,
                    "time": 90.39195800000002,
                    "velocity": 0.8503937007874016,
                    "duration": 0.06535933333333332
                },
                {
                    "name": "F4",
                    "midi": 65,
                    "time": 90.48999700000002,
                    "velocity": 0.8503937007874016,
                    "duration": 0.06535933333333332
                },
                {
                    "name": "G4",
                    "midi": 67,
                    "time": 90.58803600000002,
                    "velocity": 0.8503937007874016,
                    "duration": 0.06535933333333332
                },
                {
                    "name": "A4",
                    "midi": 69,
                    "time": 90.68607500000002,
                    "velocity": 0.8503937007874016,
                    "duration": 0.06535933333333332
                },
                {
                    "name": "A#4",
                    "midi": 70,
                    "time": 90.78411400000002,
                    "velocity": 0.8503937007874016,
                    "duration": 0.06535933333333332
                },
                {
                    "name": "C#4",
                    "midi": 61,
                    "time": 90.88215300000002,
                    "velocity": 0.8503937007874016,
                    "duration": 0.06535933333333332
                },
                {
                    "name": "C4",
                    "midi": 60,
                    "time": 90.98019200000002,
                    "velocity": 0.8503937007874016,
                    "duration": 0.06535933333333332
                },
                {
                    "name": "D4",
                    "midi": 62,
                    "time": 91.07823100000002,
                    "velocity": 0.8503937007874016,
                    "duration": 0.06535933333333332
                },
                {
                    "name": "F#4",
                    "midi": 66,
                    "time": 91.17627000000002,
                    "velocity": 0.8503937007874016,
                    "duration": 0.06535933333333332
                },
                {
                    "name": "E4",
                    "midi": 64,
                    "time": 91.27430900000002,
                    "velocity": 0.8503937007874016,
                    "duration": 0.06535933333333332
                },
                {
                    "name": "D4",
                    "midi": 62,
                    "time": 91.37234800000002,
                    "velocity": 0.8503937007874016,
                    "duration": 0.06535933333333332
                },
                {
                    "name": "C4",
                    "midi": 60,
                    "time": 91.47038700000002,
                    "velocity": 0.8503937007874016,
                    "duration": 0.06535933333333332
                },
                {
                    "name": "A#3",
                    "midi": 58,
                    "time": 91.56842600000002,
                    "velocity": 0.8503937007874016,
                    "duration": 0.06535933333333332
                },
                {
                    "name": "A3",
                    "midi": 57,
                    "time": 91.66646500000002,
                    "velocity": 0.8503937007874016,
                    "duration": 0.06535933333333332
                },
                {
                    "name": "B3",
                    "midi": 59,
                    "time": 91.76450400000002,
                    "velocity": 0.8503937007874016,
                    "duration": 0.06535933333333332
                },
                {
                    "name": "C4",
                    "midi": 60,
                    "time": 91.86254300000002,
                    "velocity": 0.8503937007874016,
                    "duration": 0.06535933333333332
                },
                {
                    "name": "D4",
                    "midi": 62,
                    "time": 91.96058200000002,
                    "velocity": 0.8503937007874016,
                    "duration": 0.06535933333333332
                },
                {
                    "name": "E4",
                    "midi": 64,
                    "time": 92.05862100000002,
                    "velocity": 0.8503937007874016,
                    "duration": 0.06535933333333332
                },
                {
                    "name": "F4",
                    "midi": 65,
                    "time": 92.15666000000002,
                    "velocity": 0.8503937007874016,
                    "duration": 0.06535933333333332
                },
                {
                    "name": "G4",
                    "midi": 67,
                    "time": 92.25469900000002,
                    "velocity": 0.8503937007874016,
                    "duration": 0.06535933333333332
                },
                {
                    "name": "G#4",
                    "midi": 68,
                    "time": 92.35273800000002,
                    "velocity": 0.8503937007874016,
                    "duration": 0.06535933333333332
                },
                {
                    "name": "B3",
                    "midi": 59,
                    "time": 92.45077700000002,
                    "velocity": 0.8503937007874016,
                    "duration": 0.06535933333333332
                },
                {
                    "name": "A#3",
                    "midi": 58,
                    "time": 92.54881600000002,
                    "velocity": 0.8503937007874016,
                    "duration": 0.06535933333333332
                },
                {
                    "name": "C4",
                    "midi": 60,
                    "time": 92.64685500000002,
                    "velocity": 0.8503937007874016,
                    "duration": 0.06535933333333332
                },
                {
                    "name": "E4",
                    "midi": 64,
                    "time": 92.74489400000002,
                    "velocity": 0.8503937007874016,
                    "duration": 0.06535933333333332
                },
                {
                    "name": "D4",
                    "midi": 62,
                    "time": 92.84293300000002,
                    "velocity": 0.8503937007874016,
                    "duration": 0.06535933333333332
                },
                {
                    "name": "C4",
                    "midi": 60,
                    "time": 92.94097200000002,
                    "velocity": 0.8503937007874016,
                    "duration": 0.06535933333333332
                },
                {
                    "name": "A#3",
                    "midi": 58,
                    "time": 93.03901100000002,
                    "velocity": 0.8503937007874016,
                    "duration": 0.06535933333333332
                },
                {
                    "name": "G#3",
                    "midi": 56,
                    "time": 93.13705000000002,
                    "velocity": 0.8503937007874016,
                    "duration": 0.06535933333333332
                },
                {
                    "name": "G3",
                    "midi": 55,
                    "time": 93.23508900000002,
                    "velocity": 0.8503937007874016,
                    "duration": 0.06535933333333332
                },
                {
                    "name": "A3",
                    "midi": 57,
                    "time": 93.33312800000002,
                    "velocity": 0.8503937007874016,
                    "duration": 0.06535933333333332
                },
                {
                    "name": "B3",
                    "midi": 59,
                    "time": 93.43116700000002,
                    "velocity": 0.8503937007874016,
                    "duration": 0.06535933333333332
                },
                {
                    "name": "C4",
                    "midi": 60,
                    "time": 93.52920600000002,
                    "velocity": 0.8503937007874016,
                    "duration": 0.06535933333333332
                },
                {
                    "name": "D4",
                    "midi": 62,
                    "time": 93.62724500000002,
                    "velocity": 0.8503937007874016,
                    "duration": 0.06535933333333332
                },
                {
                    "name": "E4",
                    "midi": 64,
                    "time": 93.72528400000002,
                    "velocity": 0.8503937007874016,
                    "duration": 0.06535933333333332
                },
                {
                    "name": "F4",
                    "midi": 65,
                    "time": 93.82332300000002,
                    "velocity": 0.8503937007874016,
                    "duration": 0.06535933333333332
                },
                {
                    "name": "G4",
                    "midi": 67,
                    "time": 93.92136200000002,
                    "velocity": 0.8503937007874016,
                    "duration": 0.06535933333333332
                },
                {
                    "name": "F4",
                    "midi": 65,
                    "time": 94.01940100000002,
                    "velocity": 0.8503937007874016,
                    "duration": 0.06535933333333332
                },
                {
                    "name": "A4",
                    "midi": 69,
                    "time": 94.11744000000002,
                    "velocity": 0.8503937007874016,
                    "duration": 0.06535933333333332
                },
                {
                    "name": "A#4",
                    "midi": 70,
                    "time": 94.21547900000002,
                    "velocity": 0.8503937007874016,
                    "duration": 0.06535933333333332
                },
                {
                    "name": "C5",
                    "midi": 72,
                    "time": 94.31351800000002,
                    "velocity": 0.8503937007874016,
                    "duration": 0.06535933333333332
                },
                {
                    "name": "D5",
                    "midi": 74,
                    "time": 94.41155700000002,
                    "velocity": 0.8503937007874016,
                    "duration": 0.06535933333333332
                },
                {
                    "name": "E5",
                    "midi": 76,
                    "time": 94.50959600000002,
                    "velocity": 0.8503937007874016,
                    "duration": 0.06535933333333332
                },
                {
                    "name": "F5",
                    "midi": 77,
                    "time": 94.60763500000002,
                    "velocity": 0.8503937007874016,
                    "duration": 0.06535933333333332
                },
                {
                    "name": "G5",
                    "midi": 79,
                    "time": 94.70567400000002,
                    "velocity": 0.8503937007874016,
                    "duration": 0.06535933333333332
                },
                {
                    "name": "A5",
                    "midi": 81,
                    "time": 94.80371300000002,
                    "velocity": 0.8503937007874016,
                    "duration": 0.06535933333333332
                },
                {
                    "name": "A5",
                    "midi": 81,
                    "time": 94.90175200000002,
                    "velocity": 0.8503937007874016,
                    "duration": 0.06535933333333332
                },
                {
                    "name": "G5",
                    "midi": 79,
                    "time": 94.99979100000002,
                    "velocity": 0.8503937007874016,
                    "duration": 0.06535933333333332
                },
                {
                    "name": "F5",
                    "midi": 77,
                    "time": 95.09783000000002,
                    "velocity": 0.8503937007874016,
                    "duration": 0.06535933333333332
                },
                {
                    "name": "E5",
                    "midi": 76,
                    "time": 95.19586900000002,
                    "velocity": 0.8503937007874016,
                    "duration": 0.06535933333333332
                },
                {
                    "name": "G5",
                    "midi": 79,
                    "time": 95.29390800000002,
                    "velocity": 0.8503937007874016,
                    "duration": 0.06535933333333332
                },
                {
                    "name": "F5",
                    "midi": 77,
                    "time": 95.39194700000002,
                    "velocity": 0.8503937007874016,
                    "duration": 0.06535933333333332
                },
                {
                    "name": "E5",
                    "midi": 76,
                    "time": 95.48998600000002,
                    "velocity": 0.8503937007874016,
                    "duration": 0.06535933333333332
                },
                {
                    "name": "D5",
                    "midi": 74,
                    "time": 95.58802500000002,
                    "velocity": 0.8503937007874016,
                    "duration": 0.06535933333333332
                },
                {
                    "name": "C5",
                    "midi": 72,
                    "time": 95.68606400000002,
                    "velocity": 0.8503937007874016,
                    "duration": 0.06535933333333332
                },
                {
                    "name": "E3",
                    "midi": 52,
                    "time": 108.23505600000001,
                    "velocity": 0.47244094488188976,
                    "duration": 0.09803899999999999
                },
                {
                    "name": "E3",
                    "midi": 52,
                    "time": 109.01936800000001,
                    "velocity": 0.47244094488188976,
                    "duration": 0.09803899999999999
                },
                {
                    "name": "E3",
                    "midi": 52,
                    "time": 109.41152400000001,
                    "velocity": 0.47244094488188976,
                    "duration": 0.09803899999999999
                },
                {
                    "name": "A3",
                    "midi": 57,
                    "time": 109.80368000000001,
                    "velocity": 0.47244094488188976,
                    "duration": 0.09803899999999999
                },
                {
                    "name": "A3",
                    "midi": 57,
                    "time": 110.58799200000001,
                    "velocity": 0.47244094488188976,
                    "duration": 0.09803899999999999
                },
                {
                    "name": "E3",
                    "midi": 52,
                    "time": 111.37230400000001,
                    "velocity": 0.47244094488188976,
                    "duration": 0.09803899999999999
                },
                {
                    "name": "E3",
                    "midi": 52,
                    "time": 112.15661600000001,
                    "velocity": 0.47244094488188976,
                    "duration": 0.09803899999999999
                },
                {
                    "name": "E3",
                    "midi": 52,
                    "time": 112.54877200000001,
                    "velocity": 0.47244094488188976,
                    "duration": 0.09803899999999999
                },
                {
                    "name": "A3",
                    "midi": 57,
                    "time": 112.94092800000001,
                    "velocity": 0.47244094488188976,
                    "duration": 0.09803899999999999
                },
                {
                    "name": "A3",
                    "midi": 57,
                    "time": 113.72524000000001,
                    "velocity": 0.47244094488188976,
                    "duration": 0.09803899999999999
                },
                {
                    "name": "E3",
                    "midi": 52,
                    "time": 114.50955200000001,
                    "velocity": 0.47244094488188976,
                    "duration": 0.39215599999999995
                },
                {
                    "name": "D4",
                    "midi": 62,
                    "time": 114.90170800000001,
                    "velocity": 0.47244094488188976,
                    "duration": 0.39215599999999995
                },
                {
                    "name": "C4",
                    "midi": 60,
                    "time": 115.29386400000001,
                    "velocity": 0.47244094488188976,
                    "duration": 0.39215599999999995
                },
                {
                    "name": "B3",
                    "midi": 59,
                    "time": 115.68602000000001,
                    "velocity": 0.47244094488188976,
                    "duration": 0.39215599999999995
                },
                {
                    "name": "A3",
                    "midi": 57,
                    "time": 116.07817600000001,
                    "velocity": 0.47244094488188976,
                    "duration": 0.39215599999999995
                },
                {
                    "name": "G3",
                    "midi": 55,
                    "time": 116.47033200000001,
                    "velocity": 0.47244094488188976,
                    "duration": 0.39215599999999995
                },
                {
                    "name": "F3",
                    "midi": 53,
                    "time": 116.86248800000001,
                    "velocity": 0.47244094488188976,
                    "duration": 0.39215599999999995
                },
                {
                    "name": "E3",
                    "midi": 52,
                    "time": 117.25464400000001,
                    "velocity": 0.47244094488188976,
                    "duration": 0.39215599999999995
                },
                {
                    "name": "D3",
                    "midi": 50,
                    "time": 117.64680000000001,
                    "velocity": 0.47244094488188976,
                    "duration": 0.1919930416666631
                },
                {
                    "name": "D3",
                    "midi": 50,
                    "time": 118.43111200000001,
                    "velocity": 0.47244094488188976,
                    "duration": 0.09803899999999999
                },
                {
                    "name": "E3",
                    "midi": 52,
                    "time": 119.21542400000001,
                    "velocity": 0.47244094488188976,
                    "duration": 0.09803899999999999
                },
                {
                    "name": "E3",
                    "midi": 52,
                    "time": 119.99973600000001,
                    "velocity": 0.47244094488188976,
                    "duration": 0.09803899999999999
                },
                {
                    "name": "A3",
                    "midi": 57,
                    "time": 120.78404800000001,
                    "velocity": 0.47244094488188976,
                    "duration": 0.39215599999999995
                },
                {
                    "name": "A2",
                    "midi": 45,
                    "time": 121.17620400000001,
                    "velocity": 0.47244094488188976,
                    "duration": 0.39215599999999995
                },
                {
                    "name": "D3",
                    "midi": 50,
                    "time": 121.56836000000001,
                    "velocity": 0.47244094488188976,
                    "duration": 0.39215599999999995
                },
                {
                    "name": "A2",
                    "midi": 45,
                    "time": 121.96051600000001,
                    "velocity": 0.47244094488188976,
                    "duration": 0.39215599999999995
                },
                {
                    "name": "D3",
                    "midi": 50,
                    "time": 122.35267200000001,
                    "velocity": 0.47244094488188976,
                    "duration": 0.39215599999999995
                },
                {
                    "name": "A2",
                    "midi": 45,
                    "time": 122.74482800000001,
                    "velocity": 0.47244094488188976,
                    "duration": 0.39215599999999995
                },
                {
                    "name": "C3",
                    "midi": 48,
                    "time": 123.13698400000001,
                    "velocity": 0.47244094488188976,
                    "duration": 0.39215599999999995
                },
                {
                    "name": "G2",
                    "midi": 43,
                    "time": 123.52914000000001,
                    "velocity": 0.47244094488188976,
                    "duration": 0.39215599999999995
                },
                {
                    "name": "C3",
                    "midi": 48,
                    "time": 123.92129600000001,
                    "velocity": 0.47244094488188976,
                    "duration": 0.39215599999999995
                },
                {
                    "name": "C4",
                    "midi": 60,
                    "time": 124.31345200000001,
                    "velocity": 0.47244094488188976,
                    "duration": 0.39215599999999995
                },
                {
                    "name": "B3",
                    "midi": 59,
                    "time": 124.70560800000001,
                    "velocity": 0.47244094488188976,
                    "duration": 0.39215599999999995
                },
                {
                    "name": "A3",
                    "midi": 57,
                    "time": 125.09776400000001,
                    "velocity": 0.47244094488188976,
                    "duration": 0.39215599999999995
                },
                {
                    "name": "E3",
                    "midi": 52,
                    "time": 125.48992000000001,
                    "velocity": 0.47244094488188976,
                    "duration": 0.39215599999999995
                },
                {
                    "name": "D3",
                    "midi": 50,
                    "time": 125.88207600000001,
                    "velocity": 0.47244094488188976,
                    "duration": 0.39215599999999995
                },
                {
                    "name": "B2",
                    "midi": 47,
                    "time": 126.27423200000001,
                    "velocity": 0.47244094488188976,
                    "duration": 0.39215599999999995
                },
                {
                    "name": "A2",
                    "midi": 45,
                    "time": 126.66638800000001,
                    "velocity": 0.47244094488188976,
                    "duration": 0.39215599999999995
                },
                {
                    "name": "E3",
                    "midi": 52,
                    "time": 127.05854400000001,
                    "velocity": 0.47244094488188976,
                    "duration": 0.39215599999999995
                },
                {
                    "name": "D4",
                    "midi": 62,
                    "time": 127.45070000000001,
                    "velocity": 0.47244094488188976,
                    "duration": 0.39215599999999995
                },
                {
                    "name": "C4",
                    "midi": 60,
                    "time": 127.84285600000001,
                    "velocity": 0.47244094488188976,
                    "duration": 0.39215599999999995
                },
                {
                    "name": "B3",
                    "midi": 59,
                    "time": 128.235012,
                    "velocity": 0.47244094488188976,
                    "duration": 0.39215599999999995
                },
                {
                    "name": "A3",
                    "midi": 57,
                    "time": 128.627168,
                    "velocity": 0.47244094488188976,
                    "duration": 0.39215599999999995
                },
                {
                    "name": "G3",
                    "midi": 55,
                    "time": 129.019324,
                    "velocity": 0.47244094488188976,
                    "duration": 0.39215599999999995
                },
                {
                    "name": "F3",
                    "midi": 53,
                    "time": 129.41148,
                    "velocity": 0.47244094488188976,
                    "duration": 0.39215599999999995
                },
                {
                    "name": "E3",
                    "midi": 52,
                    "time": 129.803636,
                    "velocity": 0.47244094488188976,
                    "duration": 0.39215599999999995
                },
                {
                    "name": "D3",
                    "midi": 50,
                    "time": 130.195792,
                    "velocity": 0.47244094488188976,
                    "duration": 0.1919930416666773
                },
                {
                    "name": "D3",
                    "midi": 50,
                    "time": 130.980104,
                    "velocity": 0.47244094488188976,
                    "duration": 0.09803899999999999
                },
                {
                    "name": "D#3",
                    "midi": 51,
                    "time": 131.764416,
                    "velocity": 0.47244094488188976,
                    "duration": 0.09803899999999999
                },
                {
                    "name": "D#3",
                    "midi": 51,
                    "time": 132.548728,
                    "velocity": 0.47244094488188976,
                    "duration": 0.09803899999999999
                },
                {
                    "name": "E3",
                    "midi": 52,
                    "time": 133.33304,
                    "velocity": 0.47244094488188976,
                    "duration": 0.09803899999999999
                },
                {
                    "name": "E3",
                    "midi": 52,
                    "time": 134.901664,
                    "velocity": 0.47244094488188976,
                    "duration": 0.09803899999999999
                },
                {
                    "name": "E3",
                    "midi": 52,
                    "time": 136.470288,
                    "velocity": 0.47244094488188976,
                    "duration": 0.09803899999999999
                },
                {
                    "name": "E3",
                    "midi": 52,
                    "time": 138.038912,
                    "velocity": 0.47244094488188976,
                    "duration": 0.09803899999999999
                },
                {
                    "name": "E3",
                    "midi": 52,
                    "time": 138.823224,
                    "velocity": 0.47244094488188976,
                    "duration": 0.09803899999999999
                },
                {
                    "name": "G3",
                    "midi": 55,
                    "time": 152.94084,
                    "velocity": 0.47244094488188976,
                    "duration": 0.09803899999999999
                },
                {
                    "name": "G3",
                    "midi": 55,
                    "time": 153.332996,
                    "velocity": 0.47244094488188976,
                    "duration": 0.09803899999999999
                },
                {
                    "name": "G3",
                    "midi": 55,
                    "time": 153.725152,
                    "velocity": 0.47244094488188976,
                    "duration": 8.137236999999999
                },
                {
                    "name": "F3",
                    "midi": 53,
                    "time": 163.136896,
                    "velocity": 0.47244094488188976,
                    "duration": 0.09803899999999999
                },
                {
                    "name": "G3",
                    "midi": 55,
                    "time": 164.70552,
                    "velocity": 0.47244094488188976,
                    "duration": 0.09803899999999999
                },
                {
                    "name": "D3",
                    "midi": 50,
                    "time": 172.54864,
                    "velocity": 0.47244094488188976,
                    "duration": 0.39215599999999995
                },
                {
                    "name": "G2",
                    "midi": 43,
                    "time": 172.940796,
                    "velocity": 0.47244094488188976,
                    "duration": 0.39215599999999995
                },
                {
                    "name": "C3",
                    "midi": 48,
                    "time": 173.332952,
                    "velocity": 0.47244094488188976,
                    "duration": 0.39215599999999995
                },
                {
                    "name": "D3",
                    "midi": 50,
                    "time": 173.725108,
                    "velocity": 0.47244094488188976,
                    "duration": 0.39215599999999995
                },
                {
                    "name": "G2",
                    "midi": 43,
                    "time": 174.117264,
                    "velocity": 0.47244094488188976,
                    "duration": 0.1919930416666773
                },
                {
                    "name": "G#3",
                    "midi": 56,
                    "time": 182.35254,
                    "velocity": 0.47244094488188976,
                    "duration": 0.39215599999999995
                },
                {
                    "name": "A3",
                    "midi": 57,
                    "time": 182.744696,
                    "velocity": 0.47244094488188976,
                    "duration": 0.39215599999999995
                },
                {
                    "name": "E3",
                    "midi": 52,
                    "time": 183.136852,
                    "velocity": 0.47244094488188976,
                    "duration": 0.39215599999999995
                },
                {
                    "name": "F3",
                    "midi": 53,
                    "time": 183.529008,
                    "velocity": 0.47244094488188976,
                    "duration": 0.6862729999999999
                },
                {
                    "name": "F#3",
                    "midi": 54,
                    "time": 184.31332,
                    "velocity": 0.47244094488188976,
                    "duration": 0.7843119999999999
                },
                {
                    "name": "G3",
                    "midi": 55,
                    "time": 185.097632,
                    "velocity": 0.47244094488188976,
                    "duration": 0.7843119999999999
                },
                {
                    "name": "G2",
                    "midi": 43,
                    "time": 185.881944,
                    "velocity": 0.47244094488188976,
                    "duration": 0.7843119999999999
                },
                {
                    "name": "G#2",
                    "midi": 44,
                    "time": 186.666256,
                    "velocity": 0.47244094488188976,
                    "duration": 0.7843119999999999
                },
                {
                    "name": "G#2",
                    "midi": 44,
                    "time": 187.450568,
                    "velocity": 0.47244094488188976,
                    "duration": 0.39215599999999995
                },
                {
                    "name": "G#2",
                    "midi": 44,
                    "time": 187.842724,
                    "velocity": 0.47244094488188976,
                    "duration": 0.39215599999999995
                },
                {
                    "name": "G2",
                    "midi": 43,
                    "time": 188.23488,
                    "velocity": 0.47244094488188976,
                    "duration": 0.7843119999999999
                },
                {
                    "name": "D#3",
                    "midi": 51,
                    "time": 189.019192,
                    "velocity": 0.47244094488188976,
                    "duration": 0.7843119999999999
                },
                {
                    "name": "G#2",
                    "midi": 44,
                    "time": 189.803504,
                    "velocity": 0.47244094488188976,
                    "duration": 0.7843119999999999
                },
                {
                    "name": "G#2",
                    "midi": 44,
                    "time": 190.587816,
                    "velocity": 0.47244094488188976,
                    "duration": 0.39215599999999995
                },
                {
                    "name": "G#2",
                    "midi": 44,
                    "time": 190.979972,
                    "velocity": 0.47244094488188976,
                    "duration": 0.39215599999999995
                },
                {
                    "name": "G2",
                    "midi": 43,
                    "time": 191.372128,
                    "velocity": 0.47244094488188976,
                    "duration": 0.7843119999999999
                },
                {
                    "name": "G2",
                    "midi": 43,
                    "time": 192.15644,
                    "velocity": 0.47244094488188976,
                    "duration": 0.6862729999999999
                },
                {
                    "name": "C4",
                    "midi": 60,
                    "time": 193.725064,
                    "velocity": 0.47244094488188976,
                    "duration": 0.7843119999999999
                },
                {
                    "name": "C#4",
                    "midi": 61,
                    "time": 194.509376,
                    "velocity": 0.47244094488188976,
                    "duration": 1.5686239999999998
                },
                {
                    "name": "C4",
                    "midi": 60,
                    "time": 196.078,
                    "velocity": 0.47244094488188976,
                    "duration": 2.3529359999999997
                },
                {
                    "name": "B3",
                    "midi": 59,
                    "time": 198.430936,
                    "velocity": 0.47244094488188976,
                    "duration": 0.6862729999999999
                },
                {
                    "name": "C3",
                    "midi": 48,
                    "time": 199.215248,
                    "velocity": 0.47244094488188976,
                    "duration": 0.39215599999999995
                },
                {
                    "name": "A2",
                    "midi": 45,
                    "time": 199.607404,
                    "velocity": 0.47244094488188976,
                    "duration": 0.39215599999999995
                },
                {
                    "name": "D3",
                    "midi": 50,
                    "time": 199.99956,
                    "velocity": 0.47244094488188976,
                    "duration": 0.39215599999999995
                },
                {
                    "name": "G2",
                    "midi": 43,
                    "time": 200.391716,
                    "velocity": 0.47244094488188976,
                    "duration": 0.39215599999999995
                },
                {
                    "name": "C3",
                    "midi": 48,
                    "time": 200.783872,
                    "velocity": 0.47244094488188976,
                    "duration": 0.39215599999999995
                },
                {
                    "name": "F2",
                    "midi": 41,
                    "time": 201.176028,
                    "velocity": 0.47244094488188976,
                    "duration": 0.39215599999999995
                },
                {
                    "name": "B2",
                    "midi": 47,
                    "time": 201.568184,
                    "velocity": 0.47244094488188976,
                    "duration": 0.39215599999999995
                },
                {
                    "name": "E2",
                    "midi": 40,
                    "time": 201.96034,
                    "velocity": 0.47244094488188976,
                    "duration": 0.39215599999999995
                },
                {
                    "name": "A2",
                    "midi": 45,
                    "time": 202.352496,
                    "velocity": 0.47244094488188976,
                    "duration": 0.39215599999999995
                },
                {
                    "name": "D2",
                    "midi": 38,
                    "time": 202.744652,
                    "velocity": 0.47244094488188976,
                    "duration": 0.39215599999999995
                },
                {
                    "name": "G2",
                    "midi": 43,
                    "time": 203.136808,
                    "velocity": 0.47244094488188976,
                    "duration": 0.39215599999999995
                },
                {
                    "name": "F3",
                    "midi": 53,
                    "time": 203.528964,
                    "velocity": 0.47244094488188976,
                    "duration": 0.39215599999999995
                },
                {
                    "name": "E3",
                    "midi": 52,
                    "time": 203.92112,
                    "velocity": 0.47244094488188976,
                    "duration": 0.39215599999999995
                },
                {
                    "name": "F3",
                    "midi": 53,
                    "time": 204.313276,
                    "velocity": 0.47244094488188976,
                    "duration": 0.39215599999999995
                },
                {
                    "name": "G3",
                    "midi": 55,
                    "time": 204.705432,
                    "velocity": 0.47244094488188976,
                    "duration": 0.39215599999999995
                },
                {
                    "name": "G2",
                    "midi": 43,
                    "time": 205.097588,
                    "velocity": 0.47244094488188976,
                    "duration": 0.39215599999999995
                },
                {
                    "name": "C3",
                    "midi": 48,
                    "time": 205.489744,
                    "velocity": 0.47244094488188976,
                    "duration": 0.39215599999999995
                },
                {
                    "name": "A2",
                    "midi": 45,
                    "time": 205.8819,
                    "velocity": 0.47244094488188976,
                    "duration": 0.39215599999999995
                },
                {
                    "name": "D3",
                    "midi": 50,
                    "time": 206.274056,
                    "velocity": 0.47244094488188976,
                    "duration": 0.39215599999999995
                },
                {
                    "name": "G2",
                    "midi": 43,
                    "time": 206.666212,
                    "velocity": 0.47244094488188976,
                    "duration": 0.39215599999999995
                },
                {
                    "name": "C3",
                    "midi": 48,
                    "time": 207.058368,
                    "velocity": 0.47244094488188976,
                    "duration": 0.39215599999999995
                },
                {
                    "name": "F2",
                    "midi": 41,
                    "time": 207.450524,
                    "velocity": 0.47244094488188976,
                    "duration": 0.39215599999999995
                },
                {
                    "name": "B2",
                    "midi": 47,
                    "time": 207.84268,
                    "velocity": 0.47244094488188976,
                    "duration": 0.39215599999999995
                },
                {
                    "name": "E2",
                    "midi": 40,
                    "time": 208.234836,
                    "velocity": 0.47244094488188976,
                    "duration": 0.39215599999999995
                },
                {
                    "name": "A2",
                    "midi": 45,
                    "time": 208.626992,
                    "velocity": 0.47244094488188976,
                    "duration": 0.39215599999999995
                },
                {
                    "name": "D2",
                    "midi": 38,
                    "time": 209.019148,
                    "velocity": 0.47244094488188976,
                    "duration": 0.39215599999999995
                },
                {
                    "name": "G2",
                    "midi": 43,
                    "time": 209.411304,
                    "velocity": 0.47244094488188976,
                    "duration": 0.39215599999999995
                },
                {
                    "name": "F3",
                    "midi": 53,
                    "time": 209.80346,
                    "velocity": 0.47244094488188976,
                    "duration": 0.39215599999999995
                },
                {
                    "name": "E3",
                    "midi": 52,
                    "time": 210.195616,
                    "velocity": 0.47244094488188976,
                    "duration": 0.39215599999999995
                },
                {
                    "name": "F3",
                    "midi": 53,
                    "time": 210.587772,
                    "velocity": 0.47244094488188976,
                    "duration": 0.39215599999999995
                },
                {
                    "name": "G3",
                    "midi": 55,
                    "time": 210.979928,
                    "velocity": 0.47244094488188976,
                    "duration": 0.39215599999999995
                },
                {
                    "name": "G2",
                    "midi": 43,
                    "time": 211.372084,
                    "velocity": 0.47244094488188976,
                    "duration": 0.39215599999999995
                },
                {
                    "name": "C3",
                    "midi": 48,
                    "time": 211.76424,
                    "velocity": 0.47244094488188976,
                    "duration": 0.7843119999999999
                },
                {
                    "name": "G2",
                    "midi": 43,
                    "time": 212.548552,
                    "velocity": 0.47244094488188976,
                    "duration": 0.7843119999999999
                },
                {
                    "name": "C3",
                    "midi": 48,
                    "time": 213.332864,
                    "velocity": 0.47244094488188976,
                    "duration": 0.7843119999999999
                },
                {
                    "name": "G3",
                    "midi": 55,
                    "time": 214.117176,
                    "velocity": 0.47244094488188976,
                    "duration": 0.7843119999999999
                },
                {
                    "name": "C3",
                    "midi": 48,
                    "time": 214.901488,
                    "velocity": 0.47244094488188976,
                    "duration": 0.7843119999999999
                },
                {
                    "name": "G2",
                    "midi": 43,
                    "time": 215.6858,
                    "velocity": 0.47244094488188976,
                    "duration": 0.7843119999999999
                },
                {
                    "name": "C3",
                    "midi": 48,
                    "time": 216.470112,
                    "velocity": 0.47244094488188976,
                    "duration": 0.7843119999999999
                },
                {
                    "name": "G2",
                    "midi": 43,
                    "time": 217.254424,
                    "velocity": 0.47244094488188976,
                    "duration": 0.7843119999999999
                },
                {
                    "name": "C3",
                    "midi": 48,
                    "time": 218.038736,
                    "velocity": 0.47244094488188976,
                    "duration": 0.39215599999999995
                },
                {
                    "name": "G2",
                    "midi": 43,
                    "time": 218.430892,
                    "velocity": 0.47244094488188976,
                    "duration": 0.3267966666666666
                },
                {
                    "name": "C3",
                    "midi": 48,
                    "time": 218.823048,
                    "velocity": 0.8503937007874016,
                    "duration": 0.06535933333333332
                },
                {
                    "name": "E3",
                    "midi": 52,
                    "time": 218.921087,
                    "velocity": 0.8503937007874016,
                    "duration": 0.06535933333333332
                },
                {
                    "name": "G3",
                    "midi": 55,
                    "time": 219.019126,
                    "velocity": 0.8503937007874016,
                    "duration": 0.06535933333333332
                },
                {
                    "name": "C4",
                    "midi": 60,
                    "time": 219.117165,
                    "velocity": 0.8503937007874016,
                    "duration": 0.06535933333333332
                },
                {
                    "name": "G3",
                    "midi": 55,
                    "time": 219.215204,
                    "velocity": 0.8503937007874016,
                    "duration": 0.06535933333333332
                },
                {
                    "name": "B3",
                    "midi": 59,
                    "time": 219.313243,
                    "velocity": 0.8503937007874016,
                    "duration": 0.06535933333333332
                },
                {
                    "name": "D4",
                    "midi": 62,
                    "time": 219.411282,
                    "velocity": 0.8503937007874016,
                    "duration": 0.06535933333333332
                },
                {
                    "name": "G4",
                    "midi": 67,
                    "time": 219.509321,
                    "velocity": 0.8503937007874016,
                    "duration": 0.06535933333333332
                },
                {
                    "name": "C4",
                    "midi": 60,
                    "time": 219.60736,
                    "velocity": 0.8503937007874016,
                    "duration": 0.06535933333333332
                },
                {
                    "name": "E4",
                    "midi": 64,
                    "time": 219.705399,
                    "velocity": 0.8503937007874016,
                    "duration": 0.06535933333333332
                },
                {
                    "name": "G4",
                    "midi": 67,
                    "time": 219.803438,
                    "velocity": 0.8503937007874016,
                    "duration": 0.06535933333333332
                },
                {
                    "name": "C5",
                    "midi": 72,
                    "time": 219.901477,
                    "velocity": 0.8503937007874016,
                    "duration": 0.06535933333333332
                },
                {
                    "name": "B4",
                    "midi": 71,
                    "time": 219.999516,
                    "velocity": 0.8503937007874016,
                    "duration": 0.06535933333333332
                },
                {
                    "name": "G4",
                    "midi": 67,
                    "time": 220.097555,
                    "velocity": 0.8503937007874016,
                    "duration": 0.06535933333333332
                },
                {
                    "name": "F4",
                    "midi": 65,
                    "time": 220.195594,
                    "velocity": 0.8503937007874016,
                    "duration": 0.06535933333333332
                },
                {
                    "name": "D4",
                    "midi": 62,
                    "time": 220.293633,
                    "velocity": 0.8503937007874016,
                    "duration": 0.06535933333333332
                },
                {
                    "name": "C4",
                    "midi": 60,
                    "time": 220.391672,
                    "velocity": 0.8503937007874016,
                    "duration": 0.06535933333333332
                },
                {
                    "name": "E4",
                    "midi": 64,
                    "time": 220.489711,
                    "velocity": 0.8503937007874016,
                    "duration": 0.06535933333333332
                },
                {
                    "name": "G4",
                    "midi": 67,
                    "time": 220.58775,
                    "velocity": 0.8503937007874016,
                    "duration": 0.06535933333333332
                },
                {
                    "name": "C5",
                    "midi": 72,
                    "time": 220.685789,
                    "velocity": 0.8503937007874016,
                    "duration": 0.06535933333333332
                },
                {
                    "name": "G4",
                    "midi": 67,
                    "time": 220.783828,
                    "velocity": 0.8503937007874016,
                    "duration": 0.06535933333333332
                },
                {
                    "name": "B4",
                    "midi": 71,
                    "time": 220.881867,
                    "velocity": 0.8503937007874016,
                    "duration": 0.06535933333333332
                },
                {
                    "name": "D5",
                    "midi": 74,
                    "time": 220.979906,
                    "velocity": 0.8503937007874016,
                    "duration": 0.06535933333333332
                },
                {
                    "name": "G5",
                    "midi": 79,
                    "time": 221.077945,
                    "velocity": 0.8503937007874016,
                    "duration": 0.06535933333333332
                },
                {
                    "name": "C3",
                    "midi": 48,
                    "time": 221.175984,
                    "velocity": 0.8503937007874016,
                    "duration": 0.06535933333333332
                },
                {
                    "name": "C3",
                    "midi": 48,
                    "time": 221.274023,
                    "velocity": 0.8503937007874016,
                    "duration": 0.06535933333333332
                },
                {
                    "name": "D3",
                    "midi": 50,
                    "time": 221.372062,
                    "velocity": 0.8503937007874016,
                    "duration": 0.06535933333333332
                },
                {
                    "name": "E3",
                    "midi": 52,
                    "time": 221.470101,
                    "velocity": 0.8503937007874016,
                    "duration": 0.06535933333333332
                },
                {
                    "name": "F3",
                    "midi": 53,
                    "time": 221.56814,
                    "velocity": 0.8503937007874016,
                    "duration": 0.06535933333333332
                },
                {
                    "name": "G3",
                    "midi": 55,
                    "time": 221.666179,
                    "velocity": 0.8503937007874016,
                    "duration": 0.06535933333333332
                },
                {
                    "name": "A3",
                    "midi": 57,
                    "time": 221.764218,
                    "velocity": 0.8503937007874016,
                    "duration": 0.06535933333333332
                },
                {
                    "name": "B3",
                    "midi": 59,
                    "time": 221.862257,
                    "velocity": 0.8503937007874016,
                    "duration": 0.06535933333333332
                },
                {
                    "name": "C4",
                    "midi": 60,
                    "time": 221.960296,
                    "velocity": 0.8503937007874016,
                    "duration": 0.06535933333333332
                },
                {
                    "name": "C4",
                    "midi": 60,
                    "time": 222.058335,
                    "velocity": 0.8503937007874016,
                    "duration": 0.06535933333333332
                },
                {
                    "name": "D4",
                    "midi": 62,
                    "time": 222.156374,
                    "velocity": 0.8503937007874016,
                    "duration": 0.06535933333333332
                },
                {
                    "name": "E4",
                    "midi": 64,
                    "time": 222.254413,
                    "velocity": 0.8503937007874016,
                    "duration": 0.06535933333333332
                },
                {
                    "name": "F4",
                    "midi": 65,
                    "time": 222.352452,
                    "velocity": 0.8503937007874016,
                    "duration": 0.06535933333333332
                },
                {
                    "name": "G4",
                    "midi": 67,
                    "time": 222.450491,
                    "velocity": 0.8503937007874016,
                    "duration": 0.06535933333333332
                },
                {
                    "name": "A4",
                    "midi": 69,
                    "time": 222.54853,
                    "velocity": 0.8503937007874016,
                    "duration": 0.06535933333333332
                },
                {
                    "name": "B4",
                    "midi": 71,
                    "time": 222.646569,
                    "velocity": 0.8503937007874016,
                    "duration": 0.06535933333333332
                },
                {
                    "name": "C4",
                    "midi": 60,
                    "time": 222.744608,
                    "velocity": 0.8503937007874016,
                    "duration": 0.06535933333333332
                },
                {
                    "name": "C5",
                    "midi": 72,
                    "time": 222.744608,
                    "velocity": 0.8503937007874016,
                    "duration": 0.06535933333333332
                },
                {
                    "name": "C4",
                    "midi": 60,
                    "time": 222.842647,
                    "velocity": 0.8503937007874016,
                    "duration": 0.06535933333333332
                },
                {
                    "name": "C5",
                    "midi": 72,
                    "time": 222.842647,
                    "velocity": 0.8503937007874016,
                    "duration": 0.06535933333333332
                },
                {
                    "name": "D4",
                    "midi": 62,
                    "time": 222.940686,
                    "velocity": 0.8503937007874016,
                    "duration": 0.06535933333333332
                },
                {
                    "name": "D5",
                    "midi": 74,
                    "time": 222.940686,
                    "velocity": 0.8503937007874016,
                    "duration": 0.06535933333333332
                },
                {
                    "name": "E4",
                    "midi": 64,
                    "time": 223.038725,
                    "velocity": 0.8503937007874016,
                    "duration": 0.06535933333333332
                },
                {
                    "name": "E5",
                    "midi": 76,
                    "time": 223.038725,
                    "velocity": 0.8503937007874016,
                    "duration": 0.06535933333333332
                },
                {
                    "name": "F4",
                    "midi": 65,
                    "time": 223.136764,
                    "velocity": 0.8503937007874016,
                    "duration": 0.06535933333333332
                },
                {
                    "name": "F5",
                    "midi": 77,
                    "time": 223.136764,
                    "velocity": 0.8503937007874016,
                    "duration": 0.06535933333333332
                },
                {
                    "name": "G4",
                    "midi": 67,
                    "time": 223.234803,
                    "velocity": 0.8503937007874016,
                    "duration": 0.06535933333333332
                },
                {
                    "name": "G5",
                    "midi": 79,
                    "time": 223.234803,
                    "velocity": 0.8503937007874016,
                    "duration": 0.06535933333333332
                },
                {
                    "name": "A4",
                    "midi": 69,
                    "time": 223.332842,
                    "velocity": 0.8503937007874016,
                    "duration": 0.06535933333333332
                },
                {
                    "name": "A5",
                    "midi": 81,
                    "time": 223.332842,
                    "velocity": 0.8503937007874016,
                    "duration": 0.06535933333333332
                },
                {
                    "name": "B4",
                    "midi": 71,
                    "time": 223.430881,
                    "velocity": 0.8503937007874016,
                    "duration": 0.06535933333333332
                },
                {
                    "name": "B5",
                    "midi": 83,
                    "time": 223.430881,
                    "velocity": 0.8503937007874016,
                    "duration": 0.06535933333333332
                },
                {
                    "name": "C5",
                    "midi": 72,
                    "time": 223.52892,
                    "velocity": 0.8503937007874016,
                    "duration": 0.06535933333333332
                },
                {
                    "name": "C6",
                    "midi": 84,
                    "time": 223.52892,
                    "velocity": 0.8503937007874016,
                    "duration": 0.06535933333333332
                },
                {
                    "name": "C5",
                    "midi": 72,
                    "time": 223.626959,
                    "velocity": 0.8503937007874016,
                    "duration": 0.06535933333333332
                },
                {
                    "name": "C6",
                    "midi": 84,
                    "time": 223.626959,
                    "velocity": 0.8503937007874016,
                    "duration": 0.06535933333333332
                },
                {
                    "name": "B4",
                    "midi": 71,
                    "time": 223.724998,
                    "velocity": 0.8503937007874016,
                    "duration": 0.06535933333333332
                },
                {
                    "name": "B5",
                    "midi": 83,
                    "time": 223.724998,
                    "velocity": 0.8503937007874016,
                    "duration": 0.06535933333333332
                },
                {
                    "name": "A4",
                    "midi": 69,
                    "time": 223.823037,
                    "velocity": 0.8503937007874016,
                    "duration": 0.06535933333333332
                },
                {
                    "name": "A5",
                    "midi": 81,
                    "time": 223.823037,
                    "velocity": 0.8503937007874016,
                    "duration": 0.06535933333333332
                },
                {
                    "name": "G4",
                    "midi": 67,
                    "time": 223.921076,
                    "velocity": 0.8503937007874016,
                    "duration": 0.06535933333333332
                },
                {
                    "name": "G5",
                    "midi": 79,
                    "time": 223.921076,
                    "velocity": 0.8503937007874016,
                    "duration": 0.06535933333333332
                },
                {
                    "name": "F4",
                    "midi": 65,
                    "time": 224.019115,
                    "velocity": 0.8503937007874016,
                    "duration": 0.06535933333333332
                },
                {
                    "name": "F5",
                    "midi": 77,
                    "time": 224.019115,
                    "velocity": 0.8503937007874016,
                    "duration": 0.06535933333333332
                },
                {
                    "name": "E4",
                    "midi": 64,
                    "time": 224.117154,
                    "velocity": 0.8503937007874016,
                    "duration": 0.06535933333333332
                },
                {
                    "name": "E5",
                    "midi": 76,
                    "time": 224.117154,
                    "velocity": 0.8503937007874016,
                    "duration": 0.06535933333333332
                },
                {
                    "name": "D4",
                    "midi": 62,
                    "time": 224.215193,
                    "velocity": 0.8503937007874016,
                    "duration": 0.06535933333333332
                },
                {
                    "name": "D5",
                    "midi": 74,
                    "time": 224.215193,
                    "velocity": 0.8503937007874016,
                    "duration": 0.06535933333333332
                },
                {
                    "name": "C4",
                    "midi": 60,
                    "time": 224.313232,
                    "velocity": 0.8503937007874016,
                    "duration": 0.06535933333333332
                },
                {
                    "name": "C5",
                    "midi": 72,
                    "time": 224.313232,
                    "velocity": 0.8503937007874016,
                    "duration": 0.06535933333333332
                },
                {
                    "name": "C4",
                    "midi": 60,
                    "time": 224.411271,
                    "velocity": 0.8503937007874016,
                    "duration": 0.06535933333333332
                },
                {
                    "name": "C5",
                    "midi": 72,
                    "time": 224.411271,
                    "velocity": 0.8503937007874016,
                    "duration": 0.06535933333333332
                },
                {
                    "name": "B3",
                    "midi": 59,
                    "time": 224.50931,
                    "velocity": 0.8503937007874016,
                    "duration": 0.06535933333333332
                },
                {
                    "name": "B4",
                    "midi": 71,
                    "time": 224.50931,
                    "velocity": 0.8503937007874016,
                    "duration": 0.06535933333333332
                },
                {
                    "name": "A3",
                    "midi": 57,
                    "time": 224.607349,
                    "velocity": 0.8503937007874016,
                    "duration": 0.06535933333333332
                },
                {
                    "name": "A4",
                    "midi": 69,
                    "time": 224.607349,
                    "velocity": 0.8503937007874016,
                    "duration": 0.06535933333333332
                },
                {
                    "name": "G3",
                    "midi": 55,
                    "time": 224.705388,
                    "velocity": 0.8503937007874016,
                    "duration": 0.06535933333333332
                },
                {
                    "name": "G4",
                    "midi": 67,
                    "time": 224.705388,
                    "velocity": 0.8503937007874016,
                    "duration": 0.06535933333333332
                },
                {
                    "name": "F3",
                    "midi": 53,
                    "time": 224.803427,
                    "velocity": 0.8503937007874016,
                    "duration": 0.06535933333333332
                },
                {
                    "name": "F4",
                    "midi": 65,
                    "time": 224.803427,
                    "velocity": 0.8503937007874016,
                    "duration": 0.06535933333333332
                },
                {
                    "name": "E3",
                    "midi": 52,
                    "time": 224.901466,
                    "velocity": 0.8503937007874016,
                    "duration": 0.06535933333333332
                },
                {
                    "name": "E4",
                    "midi": 64,
                    "time": 224.901466,
                    "velocity": 0.8503937007874016,
                    "duration": 0.06535933333333332
                },
                {
                    "name": "D3",
                    "midi": 50,
                    "time": 224.999505,
                    "velocity": 0.8503937007874016,
                    "duration": 0.06535933333333332
                },
                {
                    "name": "D4",
                    "midi": 62,
                    "time": 224.999505,
                    "velocity": 0.8503937007874016,
                    "duration": 0.06535933333333332
                },
                {
                    "name": "C3",
                    "midi": 48,
                    "time": 225.097544,
                    "velocity": 0.8503937007874016,
                    "duration": 0.06535933333333332
                },
                {
                    "name": "C4",
                    "midi": 60,
                    "time": 225.097544,
                    "velocity": 0.8503937007874016,
                    "duration": 0.06535933333333332
                },
                {
                    "name": "C3",
                    "midi": 48,
                    "time": 225.195583,
                    "velocity": 0.8503937007874016,
                    "duration": 0.06535933333333332
                },
                {
                    "name": "C4",
                    "midi": 60,
                    "time": 225.195583,
                    "velocity": 0.8503937007874016,
                    "duration": 0.06535933333333332
                },
                {
                    "name": "B2",
                    "midi": 47,
                    "time": 225.293622,
                    "velocity": 0.8503937007874016,
                    "duration": 0.06535933333333332
                },
                {
                    "name": "B3",
                    "midi": 59,
                    "time": 225.293622,
                    "velocity": 0.8503937007874016,
                    "duration": 0.06535933333333332
                },
                {
                    "name": "A2",
                    "midi": 45,
                    "time": 225.391661,
                    "velocity": 0.8503937007874016,
                    "duration": 0.06535933333333332
                },
                {
                    "name": "A3",
                    "midi": 57,
                    "time": 225.391661,
                    "velocity": 0.8503937007874016,
                    "duration": 0.06535933333333332
                },
                {
                    "name": "G2",
                    "midi": 43,
                    "time": 225.4897,
                    "velocity": 0.8503937007874016,
                    "duration": 0.06535933333333332
                },
                {
                    "name": "G3",
                    "midi": 55,
                    "time": 225.4897,
                    "velocity": 0.8503937007874016,
                    "duration": 0.06535933333333332
                },
                {
                    "name": "F2",
                    "midi": 41,
                    "time": 225.587739,
                    "velocity": 0.8503937007874016,
                    "duration": 0.06535933333333332
                },
                {
                    "name": "F3",
                    "midi": 53,
                    "time": 225.587739,
                    "velocity": 0.8503937007874016,
                    "duration": 0.06535933333333332
                },
                {
                    "name": "E2",
                    "midi": 40,
                    "time": 225.685778,
                    "velocity": 0.8503937007874016,
                    "duration": 0.06535933333333332
                },
                {
                    "name": "E3",
                    "midi": 52,
                    "time": 225.685778,
                    "velocity": 0.8503937007874016,
                    "duration": 0.06535933333333332
                },
                {
                    "name": "D2",
                    "midi": 38,
                    "time": 225.783817,
                    "velocity": 0.8503937007874016,
                    "duration": 0.06535933333333332
                },
                {
                    "name": "D3",
                    "midi": 50,
                    "time": 225.783817,
                    "velocity": 0.8503937007874016,
                    "duration": 0.06535933333333332
                },
                {
                    "name": "C2",
                    "midi": 36,
                    "time": 225.881856,
                    "velocity": 0.8503937007874016,
                    "duration": 0.06535933333333332
                },
                {
                    "name": "C3",
                    "midi": 48,
                    "time": 225.881856,
                    "velocity": 0.8503937007874016,
                    "duration": 0.06535933333333332
                },
                {
                    "name": "B1",
                    "midi": 35,
                    "time": 226.077934,
                    "velocity": 0.8503937007874016,
                    "duration": 0.06535933333333332
                },
                {
                    "name": "B2",
                    "midi": 47,
                    "time": 226.077934,
                    "velocity": 0.8503937007874016,
                    "duration": 0.06535933333333332
                },
                {
                    "name": "A1",
                    "midi": 33,
                    "time": 226.274012,
                    "velocity": 0.8503937007874016,
                    "duration": 0.06535933333333332
                },
                {
                    "name": "A2",
                    "midi": 45,
                    "time": 226.274012,
                    "velocity": 0.8503937007874016,
                    "duration": 0.06535933333333332
                },
                {
                    "name": "G#1",
                    "midi": 32,
                    "time": 226.47009,
                    "velocity": 0.8503937007874016,
                    "duration": 0.06535933333333332
                },
                {
                    "name": "G#2",
                    "midi": 44,
                    "time": 226.47009,
                    "velocity": 0.8503937007874016,
                    "duration": 0.06535933333333332
                },
                {
                    "name": "G1",
                    "midi": 31,
                    "time": 226.666168,
                    "velocity": 0.8503937007874016,
                    "duration": 0.06535933333333332
                },
                {
                    "name": "G2",
                    "midi": 43,
                    "time": 226.666168,
                    "velocity": 0.8503937007874016,
                    "duration": 0.06535933333333332
                },
                {
                    "name": "F1",
                    "midi": 29,
                    "time": 226.862246,
                    "velocity": 0.8503937007874016,
                    "duration": 0.06535933333333332
                },
                {
                    "name": "F2",
                    "midi": 41,
                    "time": 226.862246,
                    "velocity": 0.8503937007874016,
                    "duration": 0.06535933333333332
                },
                {
                    "name": "E1",
                    "midi": 28,
                    "time": 227.058324,
                    "velocity": 0.8503937007874016,
                    "duration": 0.06535933333333332
                },
                {
                    "name": "E2",
                    "midi": 40,
                    "time": 227.058324,
                    "velocity": 0.8503937007874016,
                    "duration": 0.06535933333333332
                },
                {
                    "name": "D1",
                    "midi": 26,
                    "time": 227.254402,
                    "velocity": 0.8503937007874016,
                    "duration": 0.06535933333333332
                },
                {
                    "name": "D2",
                    "midi": 38,
                    "time": 227.254402,
                    "velocity": 0.8503937007874016,
                    "duration": 0.06535933333333332
                },
                {
                    "name": "C1",
                    "midi": 24,
                    "time": 227.45048,
                    "velocity": 0.8503937007874016,
                    "duration": 0.06535933333333332
                },
                {
                    "name": "C2",
                    "midi": 36,
                    "time": 227.45048,
                    "velocity": 0.8503937007874016,
                    "duration": 0.06535933333333332
                }
            ],
            "controlChanges": {
                "7": [
                    {
                        "number": 7,
                        "time": 0,
                        "value": 1
                    }
                ],
                "10": [
                    {
                        "number": 10,
                        "time": 0,
                        "value": 0.33070866141732286
                    }
                ],
                "91": [
                    {
                        "number": 91,
                        "time": 0,
                        "value": 0.5118110236220472
                    }
                ]
            },
            "id": 8,
            "instrumentNumber": 50,
            "instrumentFamily": "drums",
            "channelNumber": 10,
            "isPercussion": true
        },
        {
            "startTime": 0,
            "duration": 227.6424730416667,
            "length": 785,
            "notes": [
                {
                    "name": "A3",
                    "midi": 57,
                    "time": 0,
                    "velocity": 0.5905511811023622,
                    "duration": 0.19199304166666667
                },
                {
                    "name": "A3",
                    "midi": 57,
                    "time": 0.196078,
                    "velocity": 0.5905511811023622,
                    "duration": 0.19199304166666667
                },
                {
                    "name": "G#3",
                    "midi": 56,
                    "time": 0.392156,
                    "velocity": 0.5905511811023622,
                    "duration": 0.1919930416666667
                },
                {
                    "name": "G#3",
                    "midi": 56,
                    "time": 0.588234,
                    "velocity": 0.5905511811023622,
                    "duration": 0.19199304166666664
                },
                {
                    "name": "G3",
                    "midi": 55,
                    "time": 0.784312,
                    "velocity": 0.5905511811023622,
                    "duration": 0.19199304166666664
                },
                {
                    "name": "G3",
                    "midi": 55,
                    "time": 0.98039,
                    "velocity": 0.5905511811023622,
                    "duration": 0.19199304166666675
                },
                {
                    "name": "F3",
                    "midi": 53,
                    "time": 1.176468,
                    "velocity": 0.5905511811023622,
                    "duration": 0.19199304166666664
                },
                {
                    "name": "F3",
                    "midi": 53,
                    "time": 1.372546,
                    "velocity": 0.5905511811023622,
                    "duration": 0.19199304166666664
                },
                {
                    "name": "E3",
                    "midi": 52,
                    "time": 1.568624,
                    "velocity": 0.5905511811023622,
                    "duration": 0.19199304166666664
                },
                {
                    "name": "E3",
                    "midi": 52,
                    "time": 1.764702,
                    "velocity": 0.5905511811023622,
                    "duration": 0.19199304166666664
                },
                {
                    "name": "D3",
                    "midi": 50,
                    "time": 1.96078,
                    "velocity": 0.5905511811023622,
                    "duration": 0.19199304166666686
                },
                {
                    "name": "D3",
                    "midi": 50,
                    "time": 2.156858,
                    "velocity": 0.5905511811023622,
                    "duration": 0.19199304166666664
                },
                {
                    "name": "C3",
                    "midi": 48,
                    "time": 2.352936,
                    "velocity": 0.5905511811023622,
                    "duration": 0.19199304166666664
                },
                {
                    "name": "C3",
                    "midi": 48,
                    "time": 2.549014,
                    "velocity": 0.5905511811023622,
                    "duration": 0.19199304166666664
                },
                {
                    "name": "B2",
                    "midi": 47,
                    "time": 2.745092,
                    "velocity": 0.5905511811023622,
                    "duration": 0.19199304166666664
                },
                {
                    "name": "B2",
                    "midi": 47,
                    "time": 2.94117,
                    "velocity": 0.5905511811023622,
                    "duration": 0.19199304166666664
                },
                {
                    "name": "A2",
                    "midi": 45,
                    "time": 3.137248,
                    "velocity": 0.5905511811023622,
                    "duration": 0.19199304166666664
                },
                {
                    "name": "A2",
                    "midi": 45,
                    "time": 3.333326,
                    "velocity": 0.5905511811023622,
                    "duration": 0.19199304166666664
                },
                {
                    "name": "G#2",
                    "midi": 44,
                    "time": 3.529404,
                    "velocity": 0.5905511811023622,
                    "duration": 0.19199304166666664
                },
                {
                    "name": "G#2",
                    "midi": 44,
                    "time": 3.725482,
                    "velocity": 0.5905511811023622,
                    "duration": 0.19199304166666664
                },
                {
                    "name": "G2",
                    "midi": 43,
                    "time": 3.92156,
                    "velocity": 0.5905511811023622,
                    "duration": 0.19199304166666709
                },
                {
                    "name": "G2",
                    "midi": 43,
                    "time": 4.117638,
                    "velocity": 0.5905511811023622,
                    "duration": 0.19199304166666664
                },
                {
                    "name": "F2",
                    "midi": 41,
                    "time": 4.313716,
                    "velocity": 0.5905511811023622,
                    "duration": 0.19199304166666664
                },
                {
                    "name": "F2",
                    "midi": 41,
                    "time": 4.509794,
                    "velocity": 0.5905511811023622,
                    "duration": 0.19199304166666664
                },
                {
                    "name": "E2",
                    "midi": 40,
                    "time": 4.705872,
                    "velocity": 0.5905511811023622,
                    "duration": 0.19199304166666664
                },
                {
                    "name": "E2",
                    "midi": 40,
                    "time": 4.90195,
                    "velocity": 0.5905511811023622,
                    "duration": 0.19199304166666664
                },
                {
                    "name": "D2",
                    "midi": 38,
                    "time": 5.098028,
                    "velocity": 0.5905511811023622,
                    "duration": 0.19199304166666664
                },
                {
                    "name": "D2",
                    "midi": 38,
                    "time": 5.294106,
                    "velocity": 0.5905511811023622,
                    "duration": 0.19199304166666664
                },
                {
                    "name": "C2",
                    "midi": 36,
                    "time": 5.490184,
                    "velocity": 0.7244094488188977,
                    "duration": 0.19199304166666664
                },
                {
                    "name": "E2",
                    "midi": 40,
                    "time": 5.686262,
                    "velocity": 0.7244094488188977,
                    "duration": 0.19199304166666664
                },
                {
                    "name": "D2",
                    "midi": 38,
                    "time": 5.88234,
                    "velocity": 0.7244094488188977,
                    "duration": 0.19199304166666664
                },
                {
                    "name": "C2",
                    "midi": 36,
                    "time": 6.078418,
                    "velocity": 0.7244094488188977,
                    "duration": 0.19199304166666664
                },
                {
                    "name": "B1",
                    "midi": 35,
                    "time": 6.274496,
                    "velocity": 0.7244094488188977,
                    "duration": 0.19199304166666664
                },
                {
                    "name": "D2",
                    "midi": 38,
                    "time": 6.470574,
                    "velocity": 0.7244094488188977,
                    "duration": 0.19199304166666664
                },
                {
                    "name": "C2",
                    "midi": 36,
                    "time": 6.666652,
                    "velocity": 0.7244094488188977,
                    "duration": 0.19199304166666664
                },
                {
                    "name": "B1",
                    "midi": 35,
                    "time": 6.86273,
                    "velocity": 0.7244094488188977,
                    "duration": 0.19199304166666664
                },
                {
                    "name": "A1",
                    "midi": 33,
                    "time": 7.058808,
                    "velocity": 0.7244094488188977,
                    "duration": 0.19199304166666664
                },
                {
                    "name": "C2",
                    "midi": 36,
                    "time": 7.254886,
                    "velocity": 0.7244094488188977,
                    "duration": 0.19199304166666664
                },
                {
                    "name": "B1",
                    "midi": 35,
                    "time": 7.450964,
                    "velocity": 0.7244094488188977,
                    "duration": 0.19199304166666664
                },
                {
                    "name": "A1",
                    "midi": 33,
                    "time": 7.647042,
                    "velocity": 0.7244094488188977,
                    "duration": 0.19199304166666664
                },
                {
                    "name": "G1",
                    "midi": 31,
                    "time": 7.84312,
                    "velocity": 0.7244094488188977,
                    "duration": 0.19199304166666753
                },
                {
                    "name": "B1",
                    "midi": 35,
                    "time": 8.039198,
                    "velocity": 0.7244094488188977,
                    "duration": 0.19199304166666664
                },
                {
                    "name": "A1",
                    "midi": 33,
                    "time": 8.235276,
                    "velocity": 0.7244094488188977,
                    "duration": 0.19199304166666664
                },
                {
                    "name": "G1",
                    "midi": 31,
                    "time": 8.431354,
                    "velocity": 0.7244094488188977,
                    "duration": 0.19199304166666664
                },
                {
                    "name": "C#2",
                    "midi": 37,
                    "time": 8.627432,
                    "velocity": 0.7244094488188977,
                    "duration": 0.19199304166666664
                },
                {
                    "name": "A1",
                    "midi": 33,
                    "time": 8.82351,
                    "velocity": 0.7244094488188977,
                    "duration": 0.19199304166666664
                },
                {
                    "name": "B1",
                    "midi": 35,
                    "time": 9.019588,
                    "velocity": 0.7244094488188977,
                    "duration": 0.19199304166666664
                },
                {
                    "name": "C#2",
                    "midi": 37,
                    "time": 9.215666,
                    "velocity": 0.7244094488188977,
                    "duration": 0.19199304166666664
                },
                {
                    "name": "D2",
                    "midi": 38,
                    "time": 9.411744,
                    "velocity": 0.7244094488188977,
                    "duration": 0.19199304166666664
                },
                {
                    "name": "D2",
                    "midi": 38,
                    "time": 9.607822,
                    "velocity": 0.7244094488188977,
                    "duration": 0.19199304166666664
                },
                {
                    "name": "G1",
                    "midi": 31,
                    "time": 9.8039,
                    "velocity": 0.7244094488188977,
                    "duration": 0.19199304166666664
                },
                {
                    "name": "G1",
                    "midi": 31,
                    "time": 9.999978,
                    "velocity": 0.7244094488188977,
                    "duration": 0.19199304166666664
                },
                {
                    "name": "C2",
                    "midi": 36,
                    "time": 10.196056,
                    "velocity": 0.7244094488188977,
                    "duration": 0.19199304166666664
                },
                {
                    "name": "C2",
                    "midi": 36,
                    "time": 10.392134,
                    "velocity": 0.7244094488188977,
                    "duration": 0.19199304166666664
                },
                {
                    "name": "D2",
                    "midi": 38,
                    "time": 10.588212,
                    "velocity": 0.7244094488188977,
                    "duration": 0.19199304166666664
                },
                {
                    "name": "D2",
                    "midi": 38,
                    "time": 10.78429,
                    "velocity": 0.7244094488188977,
                    "duration": 0.19199304166666664
                },
                {
                    "name": "G2",
                    "midi": 43,
                    "time": 10.980368,
                    "velocity": 0.7244094488188977,
                    "duration": 0.19199304166666664
                },
                {
                    "name": "F2",
                    "midi": 41,
                    "time": 11.176446,
                    "velocity": 0.7244094488188977,
                    "duration": 0.19199304166666664
                },
                {
                    "name": "E2",
                    "midi": 40,
                    "time": 11.372524,
                    "velocity": 0.7244094488188977,
                    "duration": 0.19199304166666664
                },
                {
                    "name": "D2",
                    "midi": 38,
                    "time": 11.568602,
                    "velocity": 0.7244094488188977,
                    "duration": 0.19199304166666664
                },
                {
                    "name": "C2",
                    "midi": 36,
                    "time": 11.76468,
                    "velocity": 0.7244094488188977,
                    "duration": 0.19199304166666664
                },
                {
                    "name": "D2",
                    "midi": 38,
                    "time": 11.960758,
                    "velocity": 0.7244094488188977,
                    "duration": 0.19199304166666664
                },
                {
                    "name": "E2",
                    "midi": 40,
                    "time": 12.156836,
                    "velocity": 0.7244094488188977,
                    "duration": 0.19199304166666664
                },
                {
                    "name": "C2",
                    "midi": 36,
                    "time": 12.352914,
                    "velocity": 0.7244094488188977,
                    "duration": 0.19199304166666664
                },
                {
                    "name": "B1",
                    "midi": 35,
                    "time": 12.548992,
                    "velocity": 0.7244094488188977,
                    "duration": 0.19199304166666664
                },
                {
                    "name": "C2",
                    "midi": 36,
                    "time": 12.74507,
                    "velocity": 0.7244094488188977,
                    "duration": 0.19199304166666664
                },
                {
                    "name": "D2",
                    "midi": 38,
                    "time": 12.941148,
                    "velocity": 0.7244094488188977,
                    "duration": 0.19199304166666664
                },
                {
                    "name": "B1",
                    "midi": 35,
                    "time": 13.137226,
                    "velocity": 0.7244094488188977,
                    "duration": 0.19199304166666664
                },
                {
                    "name": "D2",
                    "midi": 38,
                    "time": 13.333304,
                    "velocity": 0.7244094488188977,
                    "duration": 0.19199304166666664
                },
                {
                    "name": "E2",
                    "midi": 40,
                    "time": 13.529382,
                    "velocity": 0.7244094488188977,
                    "duration": 0.19199304166666664
                },
                {
                    "name": "F2",
                    "midi": 41,
                    "time": 13.72546,
                    "velocity": 0.7244094488188977,
                    "duration": 0.19199304166666664
                },
                {
                    "name": "D2",
                    "midi": 38,
                    "time": 13.921538,
                    "velocity": 0.7244094488188977,
                    "duration": 0.19199304166666664
                },
                {
                    "name": "C2",
                    "midi": 36,
                    "time": 14.117616,
                    "velocity": 0.7244094488188977,
                    "duration": 0.19199304166666664
                },
                {
                    "name": "D2",
                    "midi": 38,
                    "time": 14.313694,
                    "velocity": 0.7244094488188977,
                    "duration": 0.19199304166666664
                },
                {
                    "name": "E2",
                    "midi": 40,
                    "time": 14.509772,
                    "velocity": 0.7244094488188977,
                    "duration": 0.19199304166666664
                },
                {
                    "name": "C2",
                    "midi": 36,
                    "time": 14.70585,
                    "velocity": 0.7244094488188977,
                    "duration": 0.19199304166666664
                },
                {
                    "name": "C#2",
                    "midi": 37,
                    "time": 14.901928,
                    "velocity": 0.7244094488188977,
                    "duration": 0.19199304166666664
                },
                {
                    "name": "A1",
                    "midi": 33,
                    "time": 15.098006,
                    "velocity": 0.7244094488188977,
                    "duration": 0.19199304166666664
                },
                {
                    "name": "B1",
                    "midi": 35,
                    "time": 15.294084,
                    "velocity": 0.7244094488188977,
                    "duration": 0.19199304166666664
                },
                {
                    "name": "C#2",
                    "midi": 37,
                    "time": 15.490162,
                    "velocity": 0.7244094488188977,
                    "duration": 0.19199304166666664
                },
                {
                    "name": "D2",
                    "midi": 38,
                    "time": 15.68624,
                    "velocity": 0.7244094488188977,
                    "duration": 0.19199304166666664
                },
                {
                    "name": "D2",
                    "midi": 38,
                    "time": 15.882318,
                    "velocity": 0.7244094488188977,
                    "duration": 0.19199304166666842
                },
                {
                    "name": "G1",
                    "midi": 31,
                    "time": 16.078396,
                    "velocity": 0.7244094488188977,
                    "duration": 0.19199304166666664
                },
                {
                    "name": "G1",
                    "midi": 31,
                    "time": 16.274474,
                    "velocity": 0.7244094488188977,
                    "duration": 0.19199304166666664
                },
                {
                    "name": "C2",
                    "midi": 36,
                    "time": 16.470552,
                    "velocity": 0.7244094488188977,
                    "duration": 0.19199304166666664
                },
                {
                    "name": "C2",
                    "midi": 36,
                    "time": 16.66663,
                    "velocity": 0.7244094488188977,
                    "duration": 0.19199304166666664
                },
                {
                    "name": "F1",
                    "midi": 29,
                    "time": 16.862708,
                    "velocity": 0.7244094488188977,
                    "duration": 0.19199304166666664
                },
                {
                    "name": "F1",
                    "midi": 29,
                    "time": 17.058786,
                    "velocity": 0.7244094488188977,
                    "duration": 0.19199304166666664
                },
                {
                    "name": "B1",
                    "midi": 35,
                    "time": 17.254864,
                    "velocity": 0.7244094488188977,
                    "duration": 0.19199304166666664
                },
                {
                    "name": "B1",
                    "midi": 35,
                    "time": 17.450942,
                    "velocity": 0.7244094488188977,
                    "duration": 0.19199304166666664
                },
                {
                    "name": "E2",
                    "midi": 40,
                    "time": 17.64702,
                    "velocity": 0.7244094488188977,
                    "duration": 0.19199304166666664
                },
                {
                    "name": "E2",
                    "midi": 40,
                    "time": 17.843098,
                    "velocity": 0.7244094488188977,
                    "duration": 0.19199304166666664
                },
                {
                    "name": "A2",
                    "midi": 45,
                    "time": 18.039176,
                    "velocity": 0.7244094488188977,
                    "duration": 0.19199304166666664
                },
                {
                    "name": "A2",
                    "midi": 45,
                    "time": 18.235254,
                    "velocity": 0.7244094488188977,
                    "duration": 0.19199304166666664
                },
                {
                    "name": "D2",
                    "midi": 38,
                    "time": 18.431332,
                    "velocity": 0.7244094488188977,
                    "duration": 0.19199304166666664
                },
                {
                    "name": "D2",
                    "midi": 38,
                    "time": 18.62741,
                    "velocity": 0.7244094488188977,
                    "duration": 0.19199304166666664
                },
                {
                    "name": "G2",
                    "midi": 43,
                    "time": 18.823488,
                    "velocity": 0.7244094488188977,
                    "duration": 0.19199304166666664
                },
                {
                    "name": "F2",
                    "midi": 41,
                    "time": 19.019566,
                    "velocity": 0.7244094488188977,
                    "duration": 0.19199304166666664
                },
                {
                    "name": "E2",
                    "midi": 40,
                    "time": 19.215644,
                    "velocity": 0.7244094488188977,
                    "duration": 0.19199304166666664
                },
                {
                    "name": "B1",
                    "midi": 35,
                    "time": 19.411722,
                    "velocity": 0.7244094488188977,
                    "duration": 0.19199304166666664
                },
                {
                    "name": "F2",
                    "midi": 41,
                    "time": 19.6078,
                    "velocity": 0.7244094488188977,
                    "duration": 0.19199304166666664
                },
                {
                    "name": "D2",
                    "midi": 38,
                    "time": 19.803878,
                    "velocity": 0.7244094488188977,
                    "duration": 0.19199304166666664
                },
                {
                    "name": "E2",
                    "midi": 40,
                    "time": 19.999956,
                    "velocity": 0.7244094488188977,
                    "duration": 0.19199304166666664
                },
                {
                    "name": "F2",
                    "midi": 41,
                    "time": 20.196034,
                    "velocity": 0.7244094488188977,
                    "duration": 0.19199304166666664
                },
                {
                    "name": "E2",
                    "midi": 40,
                    "time": 20.392112,
                    "velocity": 0.7244094488188977,
                    "duration": 0.19199304166666664
                },
                {
                    "name": "F2",
                    "midi": 41,
                    "time": 20.58819,
                    "velocity": 0.7244094488188977,
                    "duration": 0.19199304166666664
                },
                {
                    "name": "G2",
                    "midi": 43,
                    "time": 20.784268,
                    "velocity": 0.7244094488188977,
                    "duration": 0.19199304166666664
                },
                {
                    "name": "E2",
                    "midi": 40,
                    "time": 20.980346,
                    "velocity": 0.7244094488188977,
                    "duration": 0.19199304166666664
                },
                {
                    "name": "F2",
                    "midi": 41,
                    "time": 21.176424,
                    "velocity": 0.7244094488188977,
                    "duration": 0.19199304166666664
                },
                {
                    "name": "G2",
                    "midi": 43,
                    "time": 21.372502,
                    "velocity": 0.7244094488188977,
                    "duration": 0.19199304166666664
                },
                {
                    "name": "A2",
                    "midi": 45,
                    "time": 21.56858,
                    "velocity": 0.7244094488188977,
                    "duration": 0.19199304166666664
                },
                {
                    "name": "F2",
                    "midi": 41,
                    "time": 21.764658,
                    "velocity": 0.7244094488188977,
                    "duration": 0.19199304166666664
                },
                {
                    "name": "G2",
                    "midi": 43,
                    "time": 21.960736,
                    "velocity": 0.7244094488188977,
                    "duration": 0.19199304166666664
                },
                {
                    "name": "A2",
                    "midi": 45,
                    "time": 22.156814,
                    "velocity": 0.7244094488188977,
                    "duration": 0.19199304166666664
                },
                {
                    "name": "B2",
                    "midi": 47,
                    "time": 22.352892,
                    "velocity": 0.7244094488188977,
                    "duration": 0.19199304166666664
                },
                {
                    "name": "A2",
                    "midi": 45,
                    "time": 22.54897,
                    "velocity": 0.7244094488188977,
                    "duration": 0.19199304166666664
                },
                {
                    "name": "G2",
                    "midi": 43,
                    "time": 22.745048,
                    "velocity": 0.7244094488188977,
                    "duration": 0.19199304166666664
                },
                {
                    "name": "F2",
                    "midi": 41,
                    "time": 22.941126,
                    "velocity": 0.7244094488188977,
                    "duration": 0.19199304166666664
                },
                {
                    "name": "E2",
                    "midi": 40,
                    "time": 23.137204,
                    "velocity": 0.7244094488188977,
                    "duration": 0.19199304166666664
                },
                {
                    "name": "D2",
                    "midi": 38,
                    "time": 23.333282,
                    "velocity": 0.7244094488188977,
                    "duration": 0.19199304166666664
                },
                {
                    "name": "C2",
                    "midi": 36,
                    "time": 23.52936,
                    "velocity": 0.7244094488188977,
                    "duration": 0.19199304166666664
                },
                {
                    "name": "D2",
                    "midi": 38,
                    "time": 23.725438,
                    "velocity": 0.7244094488188977,
                    "duration": 0.19199304166666664
                },
                {
                    "name": "E2",
                    "midi": 40,
                    "time": 23.921516,
                    "velocity": 0.7244094488188977,
                    "duration": 0.19199304166666664
                },
                {
                    "name": "F2",
                    "midi": 41,
                    "time": 24.117594,
                    "velocity": 0.7244094488188977,
                    "duration": 0.19199304166666664
                },
                {
                    "name": "E2",
                    "midi": 40,
                    "time": 24.313672,
                    "velocity": 0.7244094488188977,
                    "duration": 0.19199304166666664
                },
                {
                    "name": "F2",
                    "midi": 41,
                    "time": 24.50975,
                    "velocity": 0.7244094488188977,
                    "duration": 0.19199304166666664
                },
                {
                    "name": "G2",
                    "midi": 43,
                    "time": 24.705828,
                    "velocity": 0.7244094488188977,
                    "duration": 0.19199304166666664
                },
                {
                    "name": "E2",
                    "midi": 40,
                    "time": 24.901906,
                    "velocity": 0.7244094488188977,
                    "duration": 0.19199304166666664
                },
                {
                    "name": "F2",
                    "midi": 41,
                    "time": 25.097984,
                    "velocity": 0.7244094488188977,
                    "duration": 0.19199304166666664
                },
                {
                    "name": "G2",
                    "midi": 43,
                    "time": 25.294062,
                    "velocity": 0.7244094488188977,
                    "duration": 0.19199304166666664
                },
                {
                    "name": "A2",
                    "midi": 45,
                    "time": 25.49014,
                    "velocity": 0.7244094488188977,
                    "duration": 0.19199304166666664
                },
                {
                    "name": "F2",
                    "midi": 41,
                    "time": 25.686218,
                    "velocity": 0.7244094488188977,
                    "duration": 0.19199304166666664
                },
                {
                    "name": "D2",
                    "midi": 38,
                    "time": 25.882296,
                    "velocity": 0.7244094488188977,
                    "duration": 0.19199304166666664
                },
                {
                    "name": "F2",
                    "midi": 41,
                    "time": 26.078374,
                    "velocity": 0.7244094488188977,
                    "duration": 0.19199304166666664
                },
                {
                    "name": "E2",
                    "midi": 40,
                    "time": 26.274452,
                    "velocity": 0.7244094488188977,
                    "duration": 0.19199304166666664
                },
                {
                    "name": "D2",
                    "midi": 38,
                    "time": 26.47053,
                    "velocity": 0.7244094488188977,
                    "duration": 0.19199304166666664
                },
                {
                    "name": "C2",
                    "midi": 36,
                    "time": 26.666608,
                    "velocity": 0.7244094488188977,
                    "duration": 0.19199304166666664
                },
                {
                    "name": "D2",
                    "midi": 38,
                    "time": 26.862686,
                    "velocity": 0.7244094488188977,
                    "duration": 0.19199304166666664
                },
                {
                    "name": "E2",
                    "midi": 40,
                    "time": 27.058764,
                    "velocity": 0.7244094488188977,
                    "duration": 0.19199304166666664
                },
                {
                    "name": "F2",
                    "midi": 41,
                    "time": 27.254842,
                    "velocity": 0.7244094488188977,
                    "duration": 0.19199304166666664
                },
                {
                    "name": "E2",
                    "midi": 40,
                    "time": 27.45092,
                    "velocity": 0.7244094488188977,
                    "duration": 0.19199304166666664
                },
                {
                    "name": "C2",
                    "midi": 36,
                    "time": 27.646998,
                    "velocity": 0.7244094488188977,
                    "duration": 0.19199304166666664
                },
                {
                    "name": "D2",
                    "midi": 38,
                    "time": 27.843076,
                    "velocity": 0.7244094488188977,
                    "duration": 0.19199304166666664
                },
                {
                    "name": "E2",
                    "midi": 40,
                    "time": 28.039154,
                    "velocity": 0.7244094488188977,
                    "duration": 0.19199304166666664
                },
                {
                    "name": "F2",
                    "midi": 41,
                    "time": 28.235232,
                    "velocity": 0.7244094488188977,
                    "duration": 0.19199304166666664
                },
                {
                    "name": "D2",
                    "midi": 38,
                    "time": 28.43131,
                    "velocity": 0.7244094488188977,
                    "duration": 0.19199304166666664
                },
                {
                    "name": "E2",
                    "midi": 40,
                    "time": 28.627388,
                    "velocity": 0.7244094488188977,
                    "duration": 0.19199304166666664
                },
                {
                    "name": "F2",
                    "midi": 41,
                    "time": 28.823466,
                    "velocity": 0.7244094488188977,
                    "duration": 0.19199304166666664
                },
                {
                    "name": "G2",
                    "midi": 43,
                    "time": 29.019544,
                    "velocity": 0.7244094488188977,
                    "duration": 0.19199304166666664
                },
                {
                    "name": "F2",
                    "midi": 41,
                    "time": 29.215622,
                    "velocity": 0.7244094488188977,
                    "duration": 0.19199304166666664
                },
                {
                    "name": "E2",
                    "midi": 40,
                    "time": 29.4117,
                    "velocity": 0.7244094488188977,
                    "duration": 0.19199304166666664
                },
                {
                    "name": "D2",
                    "midi": 38,
                    "time": 29.607778,
                    "velocity": 0.7244094488188977,
                    "duration": 0.19199304166666664
                },
                {
                    "name": "C2",
                    "midi": 36,
                    "time": 29.803856,
                    "velocity": 0.7244094488188977,
                    "duration": 0.19199304166666664
                },
                {
                    "name": "D2",
                    "midi": 38,
                    "time": 29.999934,
                    "velocity": 0.7244094488188977,
                    "duration": 0.19199304166666664
                },
                {
                    "name": "E2",
                    "midi": 40,
                    "time": 30.196012,
                    "velocity": 0.7244094488188977,
                    "duration": 0.19199304166666664
                },
                {
                    "name": "C2",
                    "midi": 36,
                    "time": 30.39209,
                    "velocity": 0.7244094488188977,
                    "duration": 0.19199304166666664
                },
                {
                    "name": "A1",
                    "midi": 33,
                    "time": 30.588168,
                    "velocity": 0.7244094488188977,
                    "duration": 0.19199304166666664
                },
                {
                    "name": "C2",
                    "midi": 36,
                    "time": 30.784246,
                    "velocity": 0.7244094488188977,
                    "duration": 0.19199304166666664
                },
                {
                    "name": "E2",
                    "midi": 40,
                    "time": 30.980324,
                    "velocity": 0.7244094488188977,
                    "duration": 0.19199304166666664
                },
                {
                    "name": "A2",
                    "midi": 45,
                    "time": 31.176402,
                    "velocity": 0.7244094488188977,
                    "duration": 0.19199304166666664
                },
                {
                    "name": "G#2",
                    "midi": 44,
                    "time": 31.37248,
                    "velocity": 0.7244094488188977,
                    "duration": 0.19199304166666664
                },
                {
                    "name": "A2",
                    "midi": 45,
                    "time": 31.568558,
                    "velocity": 0.7244094488188977,
                    "duration": 0.19199304166666664
                },
                {
                    "name": "B2",
                    "midi": 47,
                    "time": 31.764636,
                    "velocity": 0.7244094488188977,
                    "duration": 0.19199304166666664
                },
                {
                    "name": "G#2",
                    "midi": 44,
                    "time": 31.960714,
                    "velocity": 0.7244094488188977,
                    "duration": 0.19199304166666664
                },
                {
                    "name": "A2",
                    "midi": 45,
                    "time": 32.156791999999996,
                    "velocity": 0.7244094488188977,
                    "duration": 0.1919930416666702
                },
                {
                    "name": "E2",
                    "midi": 40,
                    "time": 32.352869999999996,
                    "velocity": 0.7244094488188977,
                    "duration": 0.1919930416666702
                },
                {
                    "name": "C2",
                    "midi": 36,
                    "time": 32.548947999999996,
                    "velocity": 0.7244094488188977,
                    "duration": 0.1919930416666702
                },
                {
                    "name": "A1",
                    "midi": 33,
                    "time": 32.745025999999996,
                    "velocity": 0.7244094488188977,
                    "duration": 0.1919930416666702
                },
                {
                    "name": "D2",
                    "midi": 38,
                    "time": 32.941103999999996,
                    "velocity": 0.7244094488188977,
                    "duration": 0.1919930416666702
                },
                {
                    "name": "E2",
                    "midi": 40,
                    "time": 33.137181999999996,
                    "velocity": 0.7244094488188977,
                    "duration": 0.1919930416666702
                },
                {
                    "name": "F#2",
                    "midi": 42,
                    "time": 33.333259999999996,
                    "velocity": 0.7244094488188977,
                    "duration": 0.1919930416666702
                },
                {
                    "name": "D2",
                    "midi": 38,
                    "time": 33.529337999999996,
                    "velocity": 0.7244094488188977,
                    "duration": 0.1919930416666702
                },
                {
                    "name": "G2",
                    "midi": 43,
                    "time": 33.725415999999996,
                    "velocity": 0.7244094488188977,
                    "duration": 0.1919930416666702
                },
                {
                    "name": "D2",
                    "midi": 38,
                    "time": 33.921493999999996,
                    "velocity": 0.7244094488188977,
                    "duration": 0.1919930416666702
                },
                {
                    "name": "B1",
                    "midi": 35,
                    "time": 34.117571999999996,
                    "velocity": 0.7244094488188977,
                    "duration": 0.1919930416666702
                },
                {
                    "name": "D2",
                    "midi": 38,
                    "time": 34.313649999999996,
                    "velocity": 0.7244094488188977,
                    "duration": 0.1919930416666702
                },
                {
                    "name": "E2",
                    "midi": 40,
                    "time": 34.509727999999996,
                    "velocity": 0.7244094488188977,
                    "duration": 0.1919930416666702
                },
                {
                    "name": "F#2",
                    "midi": 42,
                    "time": 34.705805999999995,
                    "velocity": 0.7244094488188977,
                    "duration": 0.1919930416666702
                },
                {
                    "name": "G2",
                    "midi": 43,
                    "time": 34.901883999999995,
                    "velocity": 0.7244094488188977,
                    "duration": 0.1919930416666702
                },
                {
                    "name": "E2",
                    "midi": 40,
                    "time": 35.097961999999995,
                    "velocity": 0.7244094488188977,
                    "duration": 0.1919930416666702
                },
                {
                    "name": "A2",
                    "midi": 45,
                    "time": 35.294039999999995,
                    "velocity": 0.7244094488188977,
                    "duration": 0.1919930416666702
                },
                {
                    "name": "A1",
                    "midi": 33,
                    "time": 35.490117999999995,
                    "velocity": 0.7244094488188977,
                    "duration": 0.1919930416666702
                },
                {
                    "name": "B1",
                    "midi": 35,
                    "time": 35.686195999999995,
                    "velocity": 0.7244094488188977,
                    "duration": 0.1919930416666702
                },
                {
                    "name": "C#2",
                    "midi": 37,
                    "time": 35.882273999999995,
                    "velocity": 0.7244094488188977,
                    "duration": 0.1919930416666702
                },
                {
                    "name": "D2",
                    "midi": 38,
                    "time": 36.078351999999995,
                    "velocity": 0.7244094488188977,
                    "duration": 0.1919930416666702
                },
                {
                    "name": "G2",
                    "midi": 43,
                    "time": 37.646976,
                    "velocity": 0.7244094488188977,
                    "duration": 0.1919930416666702
                },
                {
                    "name": "E2",
                    "midi": 40,
                    "time": 38.03913200000001,
                    "velocity": 0.7244094488188977,
                    "duration": 0.1919930416666702
                },
                {
                    "name": "A2",
                    "midi": 45,
                    "time": 38.43128800000001,
                    "velocity": 0.7244094488188977,
                    "duration": 0.1919930416666702
                },
                {
                    "name": "A1",
                    "midi": 33,
                    "time": 38.82344400000001,
                    "velocity": 0.7244094488188977,
                    "duration": 0.1919930416666702
                },
                {
                    "name": "D2",
                    "midi": 38,
                    "time": 39.21560000000001,
                    "velocity": 0.7244094488188977,
                    "duration": 0.1919930416666702
                },
                {
                    "name": "G2",
                    "midi": 43,
                    "time": 40.784224000000016,
                    "velocity": 0.7244094488188977,
                    "duration": 0.1919930416666702
                },
                {
                    "name": "E2",
                    "midi": 40,
                    "time": 41.17638000000002,
                    "velocity": 0.7244094488188977,
                    "duration": 0.1919930416666702
                },
                {
                    "name": "A2",
                    "midi": 45,
                    "time": 41.56853600000002,
                    "velocity": 0.7244094488188977,
                    "duration": 0.1919930416666702
                },
                {
                    "name": "A1",
                    "midi": 33,
                    "time": 41.96069200000002,
                    "velocity": 0.7244094488188977,
                    "duration": 0.1919930416666702
                },
                {
                    "name": "D2",
                    "midi": 38,
                    "time": 42.35284800000002,
                    "velocity": 0.7244094488188977,
                    "duration": 0.1919930416666702
                },
                {
                    "name": "A2",
                    "midi": 45,
                    "time": 42.74500400000002,
                    "velocity": 0.7244094488188977,
                    "duration": 0.3267966666666666
                },
                {
                    "name": "D2",
                    "midi": 38,
                    "time": 43.13716000000002,
                    "velocity": 0.7244094488188977,
                    "duration": 0.3267966666666666
                },
                {
                    "name": "A1",
                    "midi": 33,
                    "time": 43.52931600000002,
                    "velocity": 0.7244094488188977,
                    "duration": 0.3267966666666666
                },
                {
                    "name": "D2",
                    "midi": 38,
                    "time": 43.92147200000002,
                    "velocity": 0.7244094488188977,
                    "duration": 0.3267966666666666
                },
                {
                    "name": "A2",
                    "midi": 45,
                    "time": 44.31362800000002,
                    "velocity": 0.7244094488188977,
                    "duration": 0.3267966666666666
                },
                {
                    "name": "D2",
                    "midi": 38,
                    "time": 44.70578400000002,
                    "velocity": 0.7244094488188977,
                    "duration": 0.3267966666666666
                },
                {
                    "name": "A1",
                    "midi": 33,
                    "time": 45.09794000000002,
                    "velocity": 0.7244094488188977,
                    "duration": 0.3267966666666666
                },
                {
                    "name": "D2",
                    "midi": 38,
                    "time": 45.49009600000002,
                    "velocity": 0.7244094488188977,
                    "duration": 0.1919930416666702
                },
                {
                    "name": "D2",
                    "midi": 38,
                    "time": 46.27440800000003,
                    "velocity": 0.7244094488188977,
                    "duration": 0.1919930416666702
                },
                {
                    "name": "E2",
                    "midi": 40,
                    "time": 46.47048600000004,
                    "velocity": 0.7244094488188977,
                    "duration": 0.1919930416666702
                },
                {
                    "name": "F#2",
                    "midi": 42,
                    "time": 46.66656400000004,
                    "velocity": 0.7244094488188977,
                    "duration": 0.1919930416666702
                },
                {
                    "name": "D2",
                    "midi": 38,
                    "time": 46.86264200000004,
                    "velocity": 0.7244094488188977,
                    "duration": 0.1919930416666702
                },
                {
                    "name": "G2",
                    "midi": 43,
                    "time": 47.05872000000004,
                    "velocity": 0.7244094488188977,
                    "duration": 0.1919930416666702
                },
                {
                    "name": "A2",
                    "midi": 45,
                    "time": 47.25479800000004,
                    "velocity": 0.7244094488188977,
                    "duration": 0.1919930416666702
                },
                {
                    "name": "B2",
                    "midi": 47,
                    "time": 47.45087600000004,
                    "velocity": 0.7244094488188977,
                    "duration": 0.1919930416666702
                },
                {
                    "name": "G2",
                    "midi": 43,
                    "time": 47.646954000000036,
                    "velocity": 0.7244094488188977,
                    "duration": 0.1919930416666702
                },
                {
                    "name": "F#2",
                    "midi": 42,
                    "time": 47.843032000000036,
                    "velocity": 0.7244094488188977,
                    "duration": 0.1919930416666702
                },
                {
                    "name": "A2",
                    "midi": 45,
                    "time": 48.039110000000036,
                    "velocity": 0.7244094488188977,
                    "duration": 0.1919930416666702
                },
                {
                    "name": "F#2",
                    "midi": 42,
                    "time": 48.235188000000036,
                    "velocity": 0.7244094488188977,
                    "duration": 0.1919930416666702
                },
                {
                    "name": "D#2",
                    "midi": 39,
                    "time": 48.431266000000036,
                    "velocity": 0.7244094488188977,
                    "duration": 0.1919930416666702
                },
                {
                    "name": "E2",
                    "midi": 40,
                    "time": 48.627344000000036,
                    "velocity": 0.7244094488188977,
                    "duration": 0.1919930416666702
                },
                {
                    "name": "F#2",
                    "midi": 42,
                    "time": 48.823422000000036,
                    "velocity": 0.7244094488188977,
                    "duration": 0.1919930416666702
                },
                {
                    "name": "G2",
                    "midi": 43,
                    "time": 49.019500000000036,
                    "velocity": 0.7244094488188977,
                    "duration": 0.1919930416666702
                },
                {
                    "name": "E2",
                    "midi": 40,
                    "time": 49.215578000000036,
                    "velocity": 0.7244094488188977,
                    "duration": 0.1919930416666702
                },
                {
                    "name": "G2",
                    "midi": 43,
                    "time": 49.411656000000036,
                    "velocity": 0.7244094488188977,
                    "duration": 0.1919930416666702
                },
                {
                    "name": "D2",
                    "midi": 38,
                    "time": 49.607734000000036,
                    "velocity": 0.7244094488188977,
                    "duration": 0.1919930416666702
                },
                {
                    "name": "B1",
                    "midi": 35,
                    "time": 49.803812000000036,
                    "velocity": 0.7244094488188977,
                    "duration": 0.1919930416666702
                },
                {
                    "name": "D2",
                    "midi": 38,
                    "time": 49.999890000000036,
                    "velocity": 0.7244094488188977,
                    "duration": 0.1919930416666702
                },
                {
                    "name": "C2",
                    "midi": 36,
                    "time": 50.195968000000036,
                    "velocity": 0.7244094488188977,
                    "duration": 0.1919930416666702
                },
                {
                    "name": "D2",
                    "midi": 38,
                    "time": 50.392046000000036,
                    "velocity": 0.7244094488188977,
                    "duration": 0.1919930416666702
                },
                {
                    "name": "E2",
                    "midi": 40,
                    "time": 50.588124000000036,
                    "velocity": 0.7244094488188977,
                    "duration": 0.1919930416666702
                },
                {
                    "name": "C2",
                    "midi": 36,
                    "time": 50.784202000000036,
                    "velocity": 0.7244094488188977,
                    "duration": 0.1919930416666702
                },
                {
                    "name": "D2",
                    "midi": 38,
                    "time": 50.980280000000036,
                    "velocity": 0.7244094488188977,
                    "duration": 0.1919930416666702
                },
                {
                    "name": "E2",
                    "midi": 40,
                    "time": 51.176358000000036,
                    "velocity": 0.7244094488188977,
                    "duration": 0.1919930416666702
                },
                {
                    "name": "F#2",
                    "midi": 42,
                    "time": 51.372436000000036,
                    "velocity": 0.7244094488188977,
                    "duration": 0.1919930416666702
                },
                {
                    "name": "D2",
                    "midi": 38,
                    "time": 51.568514000000036,
                    "velocity": 0.7244094488188977,
                    "duration": 0.1919930416666702
                },
                {
                    "name": "G2",
                    "midi": 43,
                    "time": 51.764592000000036,
                    "velocity": 0.7244094488188977,
                    "duration": 0.1919930416666702
                },
                {
                    "name": "E2",
                    "midi": 40,
                    "time": 51.960670000000036,
                    "velocity": 0.7244094488188977,
                    "duration": 0.1919930416666702
                },
                {
                    "name": "F#2",
                    "midi": 42,
                    "time": 52.156748000000036,
                    "velocity": 0.7244094488188977,
                    "duration": 0.1919930416666702
                },
                {
                    "name": "G#2",
                    "midi": 44,
                    "time": 52.352826000000036,
                    "velocity": 0.7244094488188977,
                    "duration": 0.1919930416666702
                },
                {
                    "name": "A2",
                    "midi": 45,
                    "time": 52.548904000000036,
                    "velocity": 0.7244094488188977,
                    "duration": 0.1919930416666702
                },
                {
                    "name": "A2",
                    "midi": 45,
                    "time": 52.744982000000036,
                    "velocity": 0.7244094488188977,
                    "duration": 0.1919930416666702
                },
                {
                    "name": "D2",
                    "midi": 38,
                    "time": 52.941060000000036,
                    "velocity": 0.7244094488188977,
                    "duration": 0.1919930416666702
                },
                {
                    "name": "D2",
                    "midi": 38,
                    "time": 53.137138000000036,
                    "velocity": 0.7244094488188977,
                    "duration": 0.1919930416666702
                },
                {
                    "name": "G2",
                    "midi": 43,
                    "time": 53.333216000000036,
                    "velocity": 0.7244094488188977,
                    "duration": 0.1919930416666702
                },
                {
                    "name": "G2",
                    "midi": 43,
                    "time": 53.529294000000036,
                    "velocity": 0.7244094488188977,
                    "duration": 0.1919930416666702
                },
                {
                    "name": "C2",
                    "midi": 36,
                    "time": 53.725372000000036,
                    "velocity": 0.7244094488188977,
                    "duration": 0.1919930416666702
                },
                {
                    "name": "C2",
                    "midi": 36,
                    "time": 53.921450000000036,
                    "velocity": 0.7244094488188977,
                    "duration": 0.1919930416666702
                },
                {
                    "name": "F#2",
                    "midi": 42,
                    "time": 54.117528000000036,
                    "velocity": 0.7244094488188977,
                    "duration": 0.1919930416666702
                },
                {
                    "name": "F#2",
                    "midi": 42,
                    "time": 54.313606000000036,
                    "velocity": 0.7244094488188977,
                    "duration": 0.1919930416666702
                },
                {
                    "name": "B1",
                    "midi": 35,
                    "time": 54.509684000000036,
                    "velocity": 0.7244094488188977,
                    "duration": 0.1919930416666702
                },
                {
                    "name": "B1",
                    "midi": 35,
                    "time": 54.705762000000036,
                    "velocity": 0.7244094488188977,
                    "duration": 0.1919930416666702
                },
                {
                    "name": "E2",
                    "midi": 40,
                    "time": 54.901840000000036,
                    "velocity": 0.7244094488188977,
                    "duration": 0.1919930416666702
                },
                {
                    "name": "E2",
                    "midi": 40,
                    "time": 55.097918000000035,
                    "velocity": 0.7244094488188977,
                    "duration": 0.1919930416666702
                },
                {
                    "name": "A1",
                    "midi": 33,
                    "time": 55.293996000000035,
                    "velocity": 0.7244094488188977,
                    "duration": 0.1919930416666702
                },
                {
                    "name": "A1",
                    "midi": 33,
                    "time": 55.490074000000035,
                    "velocity": 0.7244094488188977,
                    "duration": 0.1919930416666702
                },
                {
                    "name": "D2",
                    "midi": 38,
                    "time": 55.686152000000035,
                    "velocity": 0.7244094488188977,
                    "duration": 0.1919930416666702
                },
                {
                    "name": "D2",
                    "midi": 38,
                    "time": 55.882230000000035,
                    "velocity": 0.7244094488188977,
                    "duration": 0.1919930416666702
                },
                {
                    "name": "C2",
                    "midi": 36,
                    "time": 56.078308000000035,
                    "velocity": 0.7244094488188977,
                    "duration": 0.1919930416666702
                },
                {
                    "name": "C2",
                    "midi": 36,
                    "time": 56.274386000000035,
                    "velocity": 0.7244094488188977,
                    "duration": 0.1919930416666702
                },
                {
                    "name": "B1",
                    "midi": 35,
                    "time": 56.470464000000035,
                    "velocity": 0.7244094488188977,
                    "duration": 0.1919930416666702
                },
                {
                    "name": "B1",
                    "midi": 35,
                    "time": 56.666542000000035,
                    "velocity": 0.7244094488188977,
                    "duration": 0.1919930416666702
                },
                {
                    "name": "C2",
                    "midi": 36,
                    "time": 56.862620000000035,
                    "velocity": 0.7244094488188977,
                    "duration": 0.1919930416666702
                },
                {
                    "name": "C2",
                    "midi": 36,
                    "time": 57.058698000000035,
                    "velocity": 0.7244094488188977,
                    "duration": 0.1919930416666702
                },
                {
                    "name": "D2",
                    "midi": 38,
                    "time": 57.254776000000035,
                    "velocity": 0.7244094488188977,
                    "duration": 0.1919930416666702
                },
                {
                    "name": "E2",
                    "midi": 40,
                    "time": 57.450854000000035,
                    "velocity": 0.7244094488188977,
                    "duration": 0.1919930416666702
                },
                {
                    "name": "F#2",
                    "midi": 42,
                    "time": 57.646932000000035,
                    "velocity": 0.7244094488188977,
                    "duration": 0.1919930416666702
                },
                {
                    "name": "D2",
                    "midi": 38,
                    "time": 57.843010000000035,
                    "velocity": 0.7244094488188977,
                    "duration": 0.1919930416666702
                },
                {
                    "name": "G2",
                    "midi": 43,
                    "time": 58.039088000000035,
                    "velocity": 0.7244094488188977,
                    "duration": 0.1919930416666702
                },
                {
                    "name": "G2",
                    "midi": 43,
                    "time": 58.235166000000035,
                    "velocity": 0.7244094488188977,
                    "duration": 0.1919930416666702
                },
                {
                    "name": "E2",
                    "midi": 40,
                    "time": 58.431244000000035,
                    "velocity": 0.7244094488188977,
                    "duration": 0.1919930416666702
                },
                {
                    "name": "E2",
                    "midi": 40,
                    "time": 58.627322000000035,
                    "velocity": 0.7244094488188977,
                    "duration": 0.1919930416666702
                },
                {
                    "name": "A2",
                    "midi": 45,
                    "time": 58.823400000000035,
                    "velocity": 0.7244094488188977,
                    "duration": 0.1919930416666702
                },
                {
                    "name": "A2",
                    "midi": 45,
                    "time": 59.019478000000035,
                    "velocity": 0.7244094488188977,
                    "duration": 0.1919930416666702
                },
                {
                    "name": "D2",
                    "midi": 38,
                    "time": 59.215556000000035,
                    "velocity": 0.7244094488188977,
                    "duration": 0.1919930416666702
                },
                {
                    "name": "D2",
                    "midi": 38,
                    "time": 59.411634000000035,
                    "velocity": 0.7244094488188977,
                    "duration": 0.1919930416666702
                },
                {
                    "name": "G2",
                    "midi": 43,
                    "time": 59.607712000000035,
                    "velocity": 0.7244094488188977,
                    "duration": 0.1919930416666702
                },
                {
                    "name": "G2",
                    "midi": 43,
                    "time": 59.803790000000035,
                    "velocity": 0.7244094488188977,
                    "duration": 0.1919930416666702
                },
                {
                    "name": "C2",
                    "midi": 36,
                    "time": 59.999868000000035,
                    "velocity": 0.7244094488188977,
                    "duration": 0.1919930416666702
                },
                {
                    "name": "C2",
                    "midi": 36,
                    "time": 60.195946000000035,
                    "velocity": 0.7244094488188977,
                    "duration": 0.1919930416666702
                },
                {
                    "name": "F#2",
                    "midi": 42,
                    "time": 60.392024000000035,
                    "velocity": 0.7244094488188977,
                    "duration": 0.1919930416666702
                },
                {
                    "name": "F#2",
                    "midi": 42,
                    "time": 60.588102000000035,
                    "velocity": 0.7244094488188977,
                    "duration": 0.1919930416666702
                },
                {
                    "name": "B1",
                    "midi": 35,
                    "time": 60.784180000000035,
                    "velocity": 0.7244094488188977,
                    "duration": 0.1919930416666702
                },
                {
                    "name": "B1",
                    "midi": 35,
                    "time": 60.980258000000035,
                    "velocity": 0.7244094488188977,
                    "duration": 0.1919930416666702
                },
                {
                    "name": "E2",
                    "midi": 40,
                    "time": 61.176336000000035,
                    "velocity": 0.7244094488188977,
                    "duration": 0.1919930416666702
                },
                {
                    "name": "E2",
                    "midi": 40,
                    "time": 61.372414000000035,
                    "velocity": 0.7244094488188977,
                    "duration": 0.1919930416666702
                },
                {
                    "name": "A1",
                    "midi": 33,
                    "time": 61.568492000000035,
                    "velocity": 0.7244094488188977,
                    "duration": 0.1919930416666702
                },
                {
                    "name": "A1",
                    "midi": 33,
                    "time": 61.764570000000035,
                    "velocity": 0.7244094488188977,
                    "duration": 0.1919930416666702
                },
                {
                    "name": "D2",
                    "midi": 38,
                    "time": 61.960648000000035,
                    "velocity": 0.7244094488188977,
                    "duration": 0.1919930416666702
                },
                {
                    "name": "D2",
                    "midi": 38,
                    "time": 62.156726000000035,
                    "velocity": 0.7244094488188977,
                    "duration": 0.1919930416666702
                },
                {
                    "name": "C2",
                    "midi": 36,
                    "time": 62.352804000000035,
                    "velocity": 0.7244094488188977,
                    "duration": 0.1919930416666702
                },
                {
                    "name": "C2",
                    "midi": 36,
                    "time": 62.548882000000035,
                    "velocity": 0.7244094488188977,
                    "duration": 0.1919930416666702
                },
                {
                    "name": "B1",
                    "midi": 35,
                    "time": 62.744960000000034,
                    "velocity": 0.7244094488188977,
                    "duration": 0.1919930416666702
                },
                {
                    "name": "B1",
                    "midi": 35,
                    "time": 62.941038000000034,
                    "velocity": 0.7244094488188977,
                    "duration": 0.1919930416666702
                },
                {
                    "name": "C2",
                    "midi": 36,
                    "time": 63.137116000000034,
                    "velocity": 0.7244094488188977,
                    "duration": 0.1919930416666702
                },
                {
                    "name": "C2",
                    "midi": 36,
                    "time": 63.333194000000034,
                    "velocity": 0.7244094488188977,
                    "duration": 0.1919930416666702
                },
                {
                    "name": "D2",
                    "midi": 38,
                    "time": 63.529272000000034,
                    "velocity": 0.7244094488188977,
                    "duration": 0.1919930416666702
                },
                {
                    "name": "E2",
                    "midi": 40,
                    "time": 63.725350000000034,
                    "velocity": 0.7244094488188977,
                    "duration": 0.1919930416666702
                },
                {
                    "name": "F#2",
                    "midi": 42,
                    "time": 63.921428000000034,
                    "velocity": 0.7244094488188977,
                    "duration": 0.1919930416666631
                },
                {
                    "name": "D2",
                    "midi": 38,
                    "time": 64.11750600000003,
                    "velocity": 0.7244094488188977,
                    "duration": 0.1919930416666631
                },
                {
                    "name": "G2",
                    "midi": 43,
                    "time": 64.31358400000003,
                    "velocity": 0.7244094488188977,
                    "duration": 0.1919930416666631
                },
                {
                    "name": "A2",
                    "midi": 45,
                    "time": 64.50966200000003,
                    "velocity": 0.7244094488188977,
                    "duration": 0.1919930416666631
                },
                {
                    "name": "B2",
                    "midi": 47,
                    "time": 64.70574000000003,
                    "velocity": 0.7244094488188977,
                    "duration": 0.1919930416666631
                },
                {
                    "name": "G2",
                    "midi": 43,
                    "time": 64.90181800000003,
                    "velocity": 0.7244094488188977,
                    "duration": 0.1919930416666631
                },
                {
                    "name": "F#2",
                    "midi": 42,
                    "time": 65.09789600000003,
                    "velocity": 0.7244094488188977,
                    "duration": 0.1919930416666631
                },
                {
                    "name": "G2",
                    "midi": 43,
                    "time": 65.29397400000003,
                    "velocity": 0.7244094488188977,
                    "duration": 0.1919930416666631
                },
                {
                    "name": "A2",
                    "midi": 45,
                    "time": 65.49005200000003,
                    "velocity": 0.7244094488188977,
                    "duration": 0.1919930416666631
                },
                {
                    "name": "F#2",
                    "midi": 42,
                    "time": 65.68613000000003,
                    "velocity": 0.7244094488188977,
                    "duration": 0.1919930416666631
                },
                {
                    "name": "G2",
                    "midi": 43,
                    "time": 65.88220800000003,
                    "velocity": 0.7244094488188977,
                    "duration": 0.1919930416666631
                },
                {
                    "name": "A2",
                    "midi": 45,
                    "time": 66.07828600000003,
                    "velocity": 0.7244094488188977,
                    "duration": 0.1919930416666631
                },
                {
                    "name": "B2",
                    "midi": 47,
                    "time": 66.27436400000003,
                    "velocity": 0.7244094488188977,
                    "duration": 0.1919930416666631
                },
                {
                    "name": "G2",
                    "midi": 43,
                    "time": 66.47044200000003,
                    "velocity": 0.7244094488188977,
                    "duration": 0.1919930416666631
                },
                {
                    "name": "A2",
                    "midi": 45,
                    "time": 66.66652000000003,
                    "velocity": 0.7244094488188977,
                    "duration": 0.1919930416666631
                },
                {
                    "name": "F#2",
                    "midi": 42,
                    "time": 66.86259800000003,
                    "velocity": 0.7244094488188977,
                    "duration": 0.1919930416666631
                },
                {
                    "name": "D2",
                    "midi": 38,
                    "time": 67.05867600000003,
                    "velocity": 0.7244094488188977,
                    "duration": 0.1919930416666631
                },
                {
                    "name": "F#2",
                    "midi": 42,
                    "time": 67.25475400000003,
                    "velocity": 0.7244094488188977,
                    "duration": 0.1919930416666631
                },
                {
                    "name": "G2",
                    "midi": 43,
                    "time": 67.45083200000003,
                    "velocity": 0.7244094488188977,
                    "duration": 0.1919930416666631
                },
                {
                    "name": "A2",
                    "midi": 45,
                    "time": 67.64691000000003,
                    "velocity": 0.7244094488188977,
                    "duration": 0.1919930416666631
                },
                {
                    "name": "B2",
                    "midi": 47,
                    "time": 67.84298800000003,
                    "velocity": 0.7244094488188977,
                    "duration": 0.1919930416666631
                },
                {
                    "name": "G2",
                    "midi": 43,
                    "time": 68.03906600000003,
                    "velocity": 0.7244094488188977,
                    "duration": 0.1919930416666631
                },
                {
                    "name": "D2",
                    "midi": 38,
                    "time": 68.23514400000003,
                    "velocity": 0.7244094488188977,
                    "duration": 0.1919930416666631
                },
                {
                    "name": "F#2",
                    "midi": 42,
                    "time": 68.43122200000003,
                    "velocity": 0.7244094488188977,
                    "duration": 0.1919930416666631
                },
                {
                    "name": "A2",
                    "midi": 45,
                    "time": 68.62730000000003,
                    "velocity": 0.7244094488188977,
                    "duration": 0.1919930416666631
                },
                {
                    "name": "D2",
                    "midi": 38,
                    "time": 68.82337800000003,
                    "velocity": 0.7244094488188977,
                    "duration": 0.1919930416666631
                },
                {
                    "name": "G2",
                    "midi": 43,
                    "time": 69.01945600000003,
                    "velocity": 0.7244094488188977,
                    "duration": 0.1919930416666631
                },
                {
                    "name": "D2",
                    "midi": 38,
                    "time": 69.21553400000003,
                    "velocity": 0.7244094488188977,
                    "duration": 0.1919930416666631
                },
                {
                    "name": "F#2",
                    "midi": 42,
                    "time": 69.41161200000003,
                    "velocity": 0.7244094488188977,
                    "duration": 0.1919930416666631
                },
                {
                    "name": "A2",
                    "midi": 45,
                    "time": 69.60769000000003,
                    "velocity": 0.7244094488188977,
                    "duration": 0.1919930416666631
                },
                {
                    "name": "G2",
                    "midi": 43,
                    "time": 69.80376800000003,
                    "velocity": 0.7244094488188977,
                    "duration": 0.1919930416666631
                },
                {
                    "name": "D2",
                    "midi": 38,
                    "time": 69.99984600000003,
                    "velocity": 0.7244094488188977,
                    "duration": 0.1919930416666631
                },
                {
                    "name": "F#2",
                    "midi": 42,
                    "time": 70.19592400000003,
                    "velocity": 0.7244094488188977,
                    "duration": 0.1919930416666631
                },
                {
                    "name": "A2",
                    "midi": 45,
                    "time": 70.39200200000003,
                    "velocity": 0.7244094488188977,
                    "duration": 0.1919930416666631
                },
                {
                    "name": "G2",
                    "midi": 43,
                    "time": 70.58808000000003,
                    "velocity": 0.7244094488188977,
                    "duration": 0.1919930416666631
                },
                {
                    "name": "G1",
                    "midi": 31,
                    "time": 70.78415800000003,
                    "velocity": 0.7244094488188977,
                    "duration": 0.1919930416666631
                },
                {
                    "name": "F2",
                    "midi": 41,
                    "time": 72.15670400000003,
                    "velocity": 0.7244094488188977,
                    "duration": 0.3267966666666666
                },
                {
                    "name": "D2",
                    "midi": 38,
                    "time": 73.72532800000003,
                    "velocity": 0.7244094488188977,
                    "duration": 0.3267966666666666
                },
                {
                    "name": "E2",
                    "midi": 40,
                    "time": 75.29395200000003,
                    "velocity": 0.7244094488188977,
                    "duration": 0.3267966666666666
                },
                {
                    "name": "A1",
                    "midi": 33,
                    "time": 77.64688800000003,
                    "velocity": 0.7244094488188977,
                    "duration": 0.6862729999999999
                },
                {
                    "name": "E2",
                    "midi": 40,
                    "time": 78.43120000000003,
                    "velocity": 0.7244094488188977,
                    "duration": 0.6862729999999999
                },
                {
                    "name": "E1",
                    "midi": 28,
                    "time": 79.21551200000003,
                    "velocity": 0.7244094488188977,
                    "duration": 0.6862729999999999
                },
                {
                    "name": "A1",
                    "midi": 33,
                    "time": 79.99982400000003,
                    "velocity": 0.7244094488188977,
                    "duration": 0.6862729999999999
                },
                {
                    "name": "C2",
                    "midi": 36,
                    "time": 80.78413600000003,
                    "velocity": 0.7244094488188977,
                    "duration": 0.6862729999999999
                },
                {
                    "name": "G2",
                    "midi": 43,
                    "time": 81.56844800000003,
                    "velocity": 0.7244094488188977,
                    "duration": 0.6862729999999999
                },
                {
                    "name": "G1",
                    "midi": 31,
                    "time": 82.35276000000003,
                    "velocity": 0.7244094488188977,
                    "duration": 0.6862729999999999
                },
                {
                    "name": "C2",
                    "midi": 36,
                    "time": 83.13707200000003,
                    "velocity": 0.7244094488188977,
                    "duration": 0.6862729999999999
                },
                {
                    "name": "E2",
                    "midi": 40,
                    "time": 83.92138400000003,
                    "velocity": 0.7244094488188977,
                    "duration": 0.6862729999999999
                },
                {
                    "name": "B2",
                    "midi": 47,
                    "time": 84.70569600000003,
                    "velocity": 0.7244094488188977,
                    "duration": 0.6862729999999999
                },
                {
                    "name": "B1",
                    "midi": 35,
                    "time": 85.49000800000003,
                    "velocity": 0.7244094488188977,
                    "duration": 0.6862729999999999
                },
                {
                    "name": "E2",
                    "midi": 40,
                    "time": 86.27432000000003,
                    "velocity": 0.7244094488188977,
                    "duration": 0.6862729999999999
                },
                {
                    "name": "A2",
                    "midi": 45,
                    "time": 87.05863200000003,
                    "velocity": 0.7244094488188977,
                    "duration": 0.6862729999999999
                },
                {
                    "name": "B2",
                    "midi": 47,
                    "time": 87.84294400000003,
                    "velocity": 0.7244094488188977,
                    "duration": 0.6862729999999999
                },
                {
                    "name": "B1",
                    "midi": 35,
                    "time": 88.62725600000003,
                    "velocity": 0.7244094488188977,
                    "duration": 0.6862729999999999
                },
                {
                    "name": "E2",
                    "midi": 40,
                    "time": 89.41156800000003,
                    "velocity": 0.7244094488188977,
                    "duration": 0.6862729999999999
                },
                {
                    "name": "A2",
                    "midi": 45,
                    "time": 90.19588000000003,
                    "velocity": 0.7244094488188977,
                    "duration": 0.6862729999999999
                },
                {
                    "name": "D2",
                    "midi": 38,
                    "time": 90.98019200000003,
                    "velocity": 0.7244094488188977,
                    "duration": 0.6862729999999999
                },
                {
                    "name": "G2",
                    "midi": 43,
                    "time": 91.76450400000003,
                    "velocity": 0.7244094488188977,
                    "duration": 0.6862729999999999
                },
                {
                    "name": "C2",
                    "midi": 36,
                    "time": 92.54881600000003,
                    "velocity": 0.7244094488188977,
                    "duration": 0.6862729999999999
                },
                {
                    "name": "F2",
                    "midi": 41,
                    "time": 93.33312800000003,
                    "velocity": 0.7244094488188977,
                    "duration": 0.6862729999999999
                },
                {
                    "name": "A#1",
                    "midi": 34,
                    "time": 94.11744000000003,
                    "velocity": 0.7244094488188977,
                    "duration": 0.6862729999999999
                },
                {
                    "name": "C2",
                    "midi": 36,
                    "time": 94.90175200000003,
                    "velocity": 0.7244094488188977,
                    "duration": 0.6862729999999999
                },
                {
                    "name": "F2",
                    "midi": 41,
                    "time": 95.68606400000003,
                    "velocity": 0.5905511811023622,
                    "duration": 0.1919930416666631
                },
                {
                    "name": "A1",
                    "midi": 33,
                    "time": 95.88214200000003,
                    "velocity": 0.5905511811023622,
                    "duration": 0.1919930416666631
                },
                {
                    "name": "C2",
                    "midi": 36,
                    "time": 96.07822000000003,
                    "velocity": 0.5905511811023622,
                    "duration": 0.1919930416666631
                },
                {
                    "name": "F2",
                    "midi": 41,
                    "time": 96.27429800000003,
                    "velocity": 0.5905511811023622,
                    "duration": 0.1919930416666631
                },
                {
                    "name": "A2",
                    "midi": 45,
                    "time": 96.47037600000003,
                    "velocity": 0.5905511811023622,
                    "duration": 0.1919930416666631
                },
                {
                    "name": "B2",
                    "midi": 47,
                    "time": 96.66645400000003,
                    "velocity": 0.5905511811023622,
                    "duration": 0.1919930416666631
                },
                {
                    "name": "C3",
                    "midi": 48,
                    "time": 96.86253200000003,
                    "velocity": 0.5905511811023622,
                    "duration": 0.1919930416666631
                },
                {
                    "name": "A#2",
                    "midi": 46,
                    "time": 97.05861000000003,
                    "velocity": 0.8267716535433071,
                    "duration": 0.38807104166666306
                },
                {
                    "name": "G2",
                    "midi": 43,
                    "time": 97.45076600000003,
                    "velocity": 0.5905511811023622,
                    "duration": 0.1919930416666631
                },
                {
                    "name": "E2",
                    "midi": 40,
                    "time": 97.64684400000003,
                    "velocity": 0.5905511811023622,
                    "duration": 0.1919930416666631
                },
                {
                    "name": "C2",
                    "midi": 36,
                    "time": 97.84292200000003,
                    "velocity": 0.5905511811023622,
                    "duration": 0.1919930416666631
                },
                {
                    "name": "A#1",
                    "midi": 34,
                    "time": 98.03900000000003,
                    "velocity": 0.5905511811023622,
                    "duration": 0.1919930416666631
                },
                {
                    "name": "C2",
                    "midi": 36,
                    "time": 98.23507800000003,
                    "velocity": 0.5905511811023622,
                    "duration": 0.1919930416666631
                },
                {
                    "name": "E2",
                    "midi": 40,
                    "time": 98.43115600000003,
                    "velocity": 0.5905511811023622,
                    "duration": 0.1919930416666631
                },
                {
                    "name": "G2",
                    "midi": 43,
                    "time": 98.62723400000003,
                    "velocity": 0.5905511811023622,
                    "duration": 0.1919930416666631
                },
                {
                    "name": "F2",
                    "midi": 41,
                    "time": 98.82331200000003,
                    "velocity": 0.5905511811023622,
                    "duration": 0.1919930416666631
                },
                {
                    "name": "G2",
                    "midi": 43,
                    "time": 99.01939000000003,
                    "velocity": 0.5905511811023622,
                    "duration": 0.1919930416666631
                },
                {
                    "name": "A2",
                    "midi": 45,
                    "time": 99.21546800000003,
                    "velocity": 0.5905511811023622,
                    "duration": 0.1919930416666631
                },
                {
                    "name": "F2",
                    "midi": 41,
                    "time": 99.41154600000003,
                    "velocity": 0.5905511811023622,
                    "duration": 0.1919930416666631
                },
                {
                    "name": "A2",
                    "midi": 45,
                    "time": 99.60762400000003,
                    "velocity": 0.5905511811023622,
                    "duration": 0.1919930416666631
                },
                {
                    "name": "F2",
                    "midi": 41,
                    "time": 99.80370200000003,
                    "velocity": 0.5905511811023622,
                    "duration": 0.1919930416666631
                },
                {
                    "name": "C2",
                    "midi": 36,
                    "time": 99.99978000000003,
                    "velocity": 0.5905511811023622,
                    "duration": 0.1919930416666631
                },
                {
                    "name": "A#1",
                    "midi": 34,
                    "time": 100.19585800000003,
                    "velocity": 0.8267716535433071,
                    "duration": 0.38807104166666306
                },
                {
                    "name": "C2",
                    "midi": 36,
                    "time": 100.58801400000003,
                    "velocity": 0.5905511811023622,
                    "duration": 0.1919930416666631
                },
                {
                    "name": "E2",
                    "midi": 40,
                    "time": 100.78409200000003,
                    "velocity": 0.5905511811023622,
                    "duration": 0.1919930416666631
                },
                {
                    "name": "G2",
                    "midi": 43,
                    "time": 100.98017000000003,
                    "velocity": 0.5905511811023622,
                    "duration": 0.1919930416666631
                },
                {
                    "name": "E2",
                    "midi": 40,
                    "time": 101.17624800000003,
                    "velocity": 0.5905511811023622,
                    "duration": 0.1919930416666631
                },
                {
                    "name": "C2",
                    "midi": 36,
                    "time": 101.37232600000003,
                    "velocity": 0.5905511811023622,
                    "duration": 0.1919930416666631
                },
                {
                    "name": "A#1",
                    "midi": 34,
                    "time": 101.56840400000003,
                    "velocity": 0.5905511811023622,
                    "duration": 0.1919930416666631
                },
                {
                    "name": "C2",
                    "midi": 36,
                    "time": 101.76448200000003,
                    "velocity": 0.5905511811023622,
                    "duration": 0.1919930416666631
                },
                {
                    "name": "F2",
                    "midi": 41,
                    "time": 101.96056000000003,
                    "velocity": 0.5905511811023622,
                    "duration": 0.1919930416666631
                },
                {
                    "name": "G2",
                    "midi": 43,
                    "time": 102.15663800000003,
                    "velocity": 0.5905511811023622,
                    "duration": 0.1919930416666631
                },
                {
                    "name": "A2",
                    "midi": 45,
                    "time": 102.35271600000003,
                    "velocity": 0.5905511811023622,
                    "duration": 0.1919930416666631
                },
                {
                    "name": "F2",
                    "midi": 41,
                    "time": 102.54879400000003,
                    "velocity": 0.5905511811023622,
                    "duration": 0.1919930416666631
                },
                {
                    "name": "D2",
                    "midi": 38,
                    "time": 102.74487200000003,
                    "velocity": 0.5905511811023622,
                    "duration": 0.1919930416666631
                },
                {
                    "name": "E2",
                    "midi": 40,
                    "time": 102.94095000000003,
                    "velocity": 0.5905511811023622,
                    "duration": 0.1919930416666631
                },
                {
                    "name": "F2",
                    "midi": 41,
                    "time": 103.13702800000003,
                    "velocity": 0.5905511811023622,
                    "duration": 0.1919930416666631
                },
                {
                    "name": "D2",
                    "midi": 38,
                    "time": 103.33310600000003,
                    "velocity": 0.5905511811023622,
                    "duration": 0.1919930416666631
                },
                {
                    "name": "C#2",
                    "midi": 37,
                    "time": 103.52918400000003,
                    "velocity": 0.5905511811023622,
                    "duration": 0.1919930416666631
                },
                {
                    "name": "D2",
                    "midi": 38,
                    "time": 103.72526200000003,
                    "velocity": 0.5905511811023622,
                    "duration": 0.1919930416666631
                },
                {
                    "name": "E2",
                    "midi": 40,
                    "time": 103.92134000000003,
                    "velocity": 0.5905511811023622,
                    "duration": 0.1919930416666631
                },
                {
                    "name": "G2",
                    "midi": 43,
                    "time": 104.11741800000003,
                    "velocity": 0.5905511811023622,
                    "duration": 0.1919930416666631
                },
                {
                    "name": "A2",
                    "midi": 45,
                    "time": 104.31349600000003,
                    "velocity": 0.5905511811023622,
                    "duration": 0.1919930416666631
                },
                {
                    "name": "F2",
                    "midi": 41,
                    "time": 104.50957400000003,
                    "velocity": 0.5905511811023622,
                    "duration": 0.1919930416666631
                },
                {
                    "name": "D2",
                    "midi": 38,
                    "time": 104.70565200000003,
                    "velocity": 0.5905511811023622,
                    "duration": 0.1919930416666631
                },
                {
                    "name": "A1",
                    "midi": 33,
                    "time": 104.90173000000003,
                    "velocity": 0.5905511811023622,
                    "duration": 0.1919930416666631
                },
                {
                    "name": "C2",
                    "midi": 36,
                    "time": 105.09780800000003,
                    "velocity": 0.5905511811023622,
                    "duration": 0.1919930416666631
                },
                {
                    "name": "E2",
                    "midi": 40,
                    "time": 105.29388600000003,
                    "velocity": 0.5905511811023622,
                    "duration": 0.1919930416666631
                },
                {
                    "name": "G#2",
                    "midi": 44,
                    "time": 105.48996400000003,
                    "velocity": 0.5905511811023622,
                    "duration": 0.1919930416666631
                },
                {
                    "name": "E2",
                    "midi": 40,
                    "time": 105.68604200000003,
                    "velocity": 0.5905511811023622,
                    "duration": 0.1919930416666631
                },
                {
                    "name": "C2",
                    "midi": 36,
                    "time": 105.88212000000003,
                    "velocity": 0.5905511811023622,
                    "duration": 0.1919930416666631
                },
                {
                    "name": "E2",
                    "midi": 40,
                    "time": 106.07819800000003,
                    "velocity": 0.5905511811023622,
                    "duration": 0.1919930416666631
                },
                {
                    "name": "G#2",
                    "midi": 44,
                    "time": 106.27427600000003,
                    "velocity": 0.5905511811023622,
                    "duration": 0.1919930416666631
                },
                {
                    "name": "B2",
                    "midi": 47,
                    "time": 106.47035400000003,
                    "velocity": 0.5905511811023622,
                    "duration": 0.1919930416666631
                },
                {
                    "name": "A2",
                    "midi": 45,
                    "time": 106.66643200000003,
                    "velocity": 0.5905511811023622,
                    "duration": 0.1919930416666631
                },
                {
                    "name": "C3",
                    "midi": 48,
                    "time": 106.86251000000003,
                    "velocity": 0.5905511811023622,
                    "duration": 0.1919930416666631
                },
                {
                    "name": "C#3",
                    "midi": 49,
                    "time": 107.05858800000003,
                    "velocity": 0.5905511811023622,
                    "duration": 0.1919930416666631
                },
                {
                    "name": "A2",
                    "midi": 45,
                    "time": 107.25466600000003,
                    "velocity": 0.5905511811023622,
                    "duration": 0.1919930416666631
                },
                {
                    "name": "F#2",
                    "midi": 42,
                    "time": 107.45074400000003,
                    "velocity": 0.5905511811023622,
                    "duration": 0.1919930416666631
                },
                {
                    "name": "D2",
                    "midi": 38,
                    "time": 107.64682200000003,
                    "velocity": 0.5905511811023622,
                    "duration": 0.1919930416666631
                },
                {
                    "name": "D#2",
                    "midi": 39,
                    "time": 107.84290000000003,
                    "velocity": 0.5905511811023622,
                    "duration": 0.1919930416666631
                },
                {
                    "name": "F2",
                    "midi": 41,
                    "time": 108.03897800000003,
                    "velocity": 0.5905511811023622,
                    "duration": 0.1919930416666631
                },
                {
                    "name": "E2",
                    "midi": 40,
                    "time": 108.23505600000003,
                    "velocity": 0.5905511811023622,
                    "duration": 0.3267966666666666
                },
                {
                    "name": "E2",
                    "midi": 40,
                    "time": 109.01936800000003,
                    "velocity": 0.7244094488188977,
                    "duration": 0.3267966666666666
                },
                {
                    "name": "E2",
                    "midi": 40,
                    "time": 109.41152400000003,
                    "velocity": 0.7244094488188977,
                    "duration": 0.3267966666666666
                },
                {
                    "name": "A2",
                    "midi": 45,
                    "time": 109.80368000000003,
                    "velocity": 0.7244094488188977,
                    "duration": 0.3267966666666666
                },
                {
                    "name": "A2",
                    "midi": 45,
                    "time": 110.58799200000003,
                    "velocity": 0.7244094488188977,
                    "duration": 0.3267966666666666
                },
                {
                    "name": "E2",
                    "midi": 40,
                    "time": 111.37230400000003,
                    "velocity": 0.7244094488188977,
                    "duration": 0.3267966666666666
                },
                {
                    "name": "E2",
                    "midi": 40,
                    "time": 112.15661600000003,
                    "velocity": 0.7244094488188977,
                    "duration": 0.3267966666666666
                },
                {
                    "name": "E2",
                    "midi": 40,
                    "time": 112.54877200000003,
                    "velocity": 0.7244094488188977,
                    "duration": 0.3267966666666666
                },
                {
                    "name": "A2",
                    "midi": 45,
                    "time": 112.94092800000003,
                    "velocity": 0.7244094488188977,
                    "duration": 0.3267966666666666
                },
                {
                    "name": "A2",
                    "midi": 45,
                    "time": 113.72524000000003,
                    "velocity": 0.7244094488188977,
                    "duration": 0.3267966666666666
                },
                {
                    "name": "E2",
                    "midi": 40,
                    "time": 114.50955200000003,
                    "velocity": 0.7244094488188977,
                    "duration": 0.3267966666666666
                },
                {
                    "name": "D3",
                    "midi": 50,
                    "time": 114.90170800000003,
                    "velocity": 0.7244094488188977,
                    "duration": 0.3267966666666666
                },
                {
                    "name": "C3",
                    "midi": 48,
                    "time": 115.29386400000003,
                    "velocity": 0.7244094488188977,
                    "duration": 0.3267966666666666
                },
                {
                    "name": "B2",
                    "midi": 47,
                    "time": 115.68602000000003,
                    "velocity": 0.7244094488188977,
                    "duration": 0.3267966666666666
                },
                {
                    "name": "A2",
                    "midi": 45,
                    "time": 116.07817600000003,
                    "velocity": 0.7244094488188977,
                    "duration": 0.3267966666666666
                },
                {
                    "name": "G2",
                    "midi": 43,
                    "time": 116.47033200000003,
                    "velocity": 0.7244094488188977,
                    "duration": 0.3267966666666666
                },
                {
                    "name": "F2",
                    "midi": 41,
                    "time": 116.86248800000003,
                    "velocity": 0.7244094488188977,
                    "duration": 0.3267966666666666
                },
                {
                    "name": "E2",
                    "midi": 40,
                    "time": 117.25464400000003,
                    "velocity": 0.7244094488188977,
                    "duration": 0.3267966666666666
                },
                {
                    "name": "D2",
                    "midi": 38,
                    "time": 117.64680000000003,
                    "velocity": 0.7244094488188977,
                    "duration": 0.1919930416666631
                },
                {
                    "name": "D2",
                    "midi": 38,
                    "time": 118.43111200000003,
                    "velocity": 0.7244094488188977,
                    "duration": 0.3267966666666666
                },
                {
                    "name": "E2",
                    "midi": 40,
                    "time": 119.21542400000003,
                    "velocity": 0.7244094488188977,
                    "duration": 0.3267966666666666
                },
                {
                    "name": "E2",
                    "midi": 40,
                    "time": 119.99973600000003,
                    "velocity": 0.7244094488188977,
                    "duration": 0.3267966666666666
                },
                {
                    "name": "A2",
                    "midi": 45,
                    "time": 120.78404800000003,
                    "velocity": 0.7244094488188977,
                    "duration": 0.3267966666666666
                },
                {
                    "name": "A1",
                    "midi": 33,
                    "time": 121.17620400000003,
                    "velocity": 0.7244094488188977,
                    "duration": 0.3267966666666666
                },
                {
                    "name": "D2",
                    "midi": 38,
                    "time": 121.56836000000003,
                    "velocity": 0.7244094488188977,
                    "duration": 0.3267966666666666
                },
                {
                    "name": "A1",
                    "midi": 33,
                    "time": 121.96051600000003,
                    "velocity": 0.7244094488188977,
                    "duration": 0.3267966666666666
                },
                {
                    "name": "D2",
                    "midi": 38,
                    "time": 122.35267200000003,
                    "velocity": 0.7244094488188977,
                    "duration": 0.3267966666666666
                },
                {
                    "name": "A1",
                    "midi": 33,
                    "time": 122.74482800000003,
                    "velocity": 0.7244094488188977,
                    "duration": 0.3267966666666666
                },
                {
                    "name": "C2",
                    "midi": 36,
                    "time": 123.13698400000003,
                    "velocity": 0.7244094488188977,
                    "duration": 0.3267966666666666
                },
                {
                    "name": "G1",
                    "midi": 31,
                    "time": 123.52914000000003,
                    "velocity": 0.7244094488188977,
                    "duration": 0.3267966666666666
                },
                {
                    "name": "C2",
                    "midi": 36,
                    "time": 123.92129600000003,
                    "velocity": 0.7244094488188977,
                    "duration": 0.3267966666666666
                },
                {
                    "name": "C3",
                    "midi": 48,
                    "time": 124.31345200000003,
                    "velocity": 0.7244094488188977,
                    "duration": 0.3267966666666666
                },
                {
                    "name": "B2",
                    "midi": 47,
                    "time": 124.70560800000003,
                    "velocity": 0.7244094488188977,
                    "duration": 0.3267966666666666
                },
                {
                    "name": "A2",
                    "midi": 45,
                    "time": 125.09776400000003,
                    "velocity": 0.7244094488188977,
                    "duration": 0.3267966666666666
                },
                {
                    "name": "E2",
                    "midi": 40,
                    "time": 125.48992000000003,
                    "velocity": 0.7244094488188977,
                    "duration": 0.3267966666666666
                },
                {
                    "name": "D2",
                    "midi": 38,
                    "time": 125.88207600000003,
                    "velocity": 0.7244094488188977,
                    "duration": 0.3267966666666666
                },
                {
                    "name": "B1",
                    "midi": 35,
                    "time": 126.27423200000003,
                    "velocity": 0.7244094488188977,
                    "duration": 0.3267966666666666
                },
                {
                    "name": "A1",
                    "midi": 33,
                    "time": 126.66638800000003,
                    "velocity": 0.7244094488188977,
                    "duration": 0.3267966666666666
                },
                {
                    "name": "E2",
                    "midi": 40,
                    "time": 127.05854400000003,
                    "velocity": 0.7244094488188977,
                    "duration": 0.3267966666666666
                },
                {
                    "name": "D3",
                    "midi": 50,
                    "time": 127.45070000000003,
                    "velocity": 0.7244094488188977,
                    "duration": 0.3267966666666666
                },
                {
                    "name": "C3",
                    "midi": 48,
                    "time": 127.84285600000003,
                    "velocity": 0.7244094488188977,
                    "duration": 0.32679666666668084
                },
                {
                    "name": "B2",
                    "midi": 47,
                    "time": 128.23501200000004,
                    "velocity": 0.7244094488188977,
                    "duration": 0.3267966666666666
                },
                {
                    "name": "A2",
                    "midi": 45,
                    "time": 128.62716800000004,
                    "velocity": 0.7244094488188977,
                    "duration": 0.3267966666666666
                },
                {
                    "name": "G2",
                    "midi": 43,
                    "time": 129.01932400000004,
                    "velocity": 0.7244094488188977,
                    "duration": 0.3267966666666666
                },
                {
                    "name": "F2",
                    "midi": 41,
                    "time": 129.41148000000004,
                    "velocity": 0.7244094488188977,
                    "duration": 0.3267966666666666
                },
                {
                    "name": "E2",
                    "midi": 40,
                    "time": 129.80363600000004,
                    "velocity": 0.7244094488188977,
                    "duration": 0.3267966666666666
                },
                {
                    "name": "D2",
                    "midi": 38,
                    "time": 130.19579200000004,
                    "velocity": 0.7244094488188977,
                    "duration": 0.3267966666666666
                },
                {
                    "name": "D2",
                    "midi": 38,
                    "time": 130.98010400000004,
                    "velocity": 0.7244094488188977,
                    "duration": 0.3267966666666666
                },
                {
                    "name": "D#2",
                    "midi": 39,
                    "time": 131.76441600000004,
                    "velocity": 0.7244094488188977,
                    "duration": 0.3267966666666666
                },
                {
                    "name": "D#2",
                    "midi": 39,
                    "time": 132.54872800000004,
                    "velocity": 0.7244094488188977,
                    "duration": 0.3267966666666666
                },
                {
                    "name": "E2",
                    "midi": 40,
                    "time": 133.33304000000004,
                    "velocity": 0.7244094488188977,
                    "duration": 0.3267966666666666
                },
                {
                    "name": "E2",
                    "midi": 40,
                    "time": 134.90166400000004,
                    "velocity": 0.7244094488188977,
                    "duration": 0.3267966666666666
                },
                {
                    "name": "E2",
                    "midi": 40,
                    "time": 136.47028800000004,
                    "velocity": 0.7244094488188977,
                    "duration": 0.3267966666666666
                },
                {
                    "name": "E2",
                    "midi": 40,
                    "time": 138.03891200000004,
                    "velocity": 0.7244094488188977,
                    "duration": 0.3267966666666666
                },
                {
                    "name": "E2",
                    "midi": 40,
                    "time": 138.82322400000004,
                    "velocity": 0.7244094488188977,
                    "duration": 0.3267966666666666
                },
                {
                    "name": "A1",
                    "midi": 33,
                    "time": 139.60753600000004,
                    "velocity": 0.5905511811023622,
                    "duration": 0.3267966666666666
                },
                {
                    "name": "C#2",
                    "midi": 37,
                    "time": 139.99969200000004,
                    "velocity": 0.5905511811023622,
                    "duration": 0.3267966666666666
                },
                {
                    "name": "E2",
                    "midi": 40,
                    "time": 140.39184800000004,
                    "velocity": 0.5905511811023622,
                    "duration": 0.3267966666666666
                },
                {
                    "name": "E2",
                    "midi": 40,
                    "time": 140.78400400000004,
                    "velocity": 0.5905511811023622,
                    "duration": 0.12663370833334398
                },
                {
                    "name": "F2",
                    "midi": 41,
                    "time": 140.9147226666667,
                    "velocity": 0.5905511811023622,
                    "duration": 0.12663370833334398
                },
                {
                    "name": "A2",
                    "midi": 45,
                    "time": 141.04544133333337,
                    "velocity": 0.5905511811023622,
                    "duration": 0.12663370833334398
                },
                {
                    "name": "B2",
                    "midi": 47,
                    "time": 141.17616000000004,
                    "velocity": 0.5905511811023622,
                    "duration": 0.3267966666666666
                },
                {
                    "name": "G#2",
                    "midi": 44,
                    "time": 141.56831600000004,
                    "velocity": 0.5905511811023622,
                    "duration": 0.3267966666666666
                },
                {
                    "name": "E2",
                    "midi": 40,
                    "time": 141.96047200000004,
                    "velocity": 0.5905511811023622,
                    "duration": 0.3267966666666666
                },
                {
                    "name": "B1",
                    "midi": 35,
                    "time": 142.35262800000004,
                    "velocity": 0.5905511811023622,
                    "duration": 0.2900320416666773
                },
                {
                    "name": "E2",
                    "midi": 40,
                    "time": 142.64674500000004,
                    "velocity": 0.5905511811023622,
                    "duration": 0.09395404166667731
                },
                {
                    "name": "A1",
                    "midi": 33,
                    "time": 142.74478400000004,
                    "velocity": 0.5905511811023622,
                    "duration": 0.3267966666666666
                },
                {
                    "name": "C#2",
                    "midi": 37,
                    "time": 143.13694000000004,
                    "velocity": 0.5905511811023622,
                    "duration": 0.3267966666666666
                },
                {
                    "name": "E2",
                    "midi": 40,
                    "time": 143.52909600000004,
                    "velocity": 0.5905511811023622,
                    "duration": 0.2900320416666773
                },
                {
                    "name": "G2",
                    "midi": 43,
                    "time": 143.82321300000004,
                    "velocity": 0.5905511811023622,
                    "duration": 0.09395404166667731
                },
                {
                    "name": "A2",
                    "midi": 45,
                    "time": 143.92125200000004,
                    "velocity": 0.5905511811023622,
                    "duration": 0.3267966666666666
                },
                {
                    "name": "B2",
                    "midi": 47,
                    "time": 144.31340800000004,
                    "velocity": 0.5905511811023622,
                    "duration": 0.3267966666666666
                },
                {
                    "name": "G#2",
                    "midi": 44,
                    "time": 144.70556400000004,
                    "velocity": 0.5905511811023622,
                    "duration": 0.3267966666666666
                },
                {
                    "name": "E2",
                    "midi": 40,
                    "time": 145.09772000000004,
                    "velocity": 0.5905511811023622,
                    "duration": 0.3267966666666666
                },
                {
                    "name": "B1",
                    "midi": 35,
                    "time": 145.48987600000004,
                    "velocity": 0.5905511811023622,
                    "duration": 0.2900320416666773
                },
                {
                    "name": "E2",
                    "midi": 40,
                    "time": 145.78399300000004,
                    "velocity": 0.5905511811023622,
                    "duration": 0.09395404166667731
                },
                {
                    "name": "A1",
                    "midi": 33,
                    "time": 145.88203200000004,
                    "velocity": 0.5905511811023622,
                    "duration": 0.2900320416666773
                },
                {
                    "name": "E2",
                    "midi": 40,
                    "time": 146.17614900000004,
                    "velocity": 0.5905511811023622,
                    "duration": 0.09395404166667731
                },
                {
                    "name": "A2",
                    "midi": 45,
                    "time": 146.27418800000004,
                    "velocity": 0.5905511811023622,
                    "duration": 0.2900320416666773
                },
                {
                    "name": "A1",
                    "midi": 33,
                    "time": 146.56830500000004,
                    "velocity": 0.5905511811023622,
                    "duration": 0.09395404166667731
                },
                {
                    "name": "G2",
                    "midi": 43,
                    "time": 146.66634400000004,
                    "velocity": 0.5905511811023622,
                    "duration": 0.3267966666666666
                },
                {
                    "name": "E2",
                    "midi": 40,
                    "time": 147.05850000000004,
                    "velocity": 0.5905511811023622,
                    "duration": 0.2900320416666773
                },
                {
                    "name": "G2",
                    "midi": 43,
                    "time": 147.35261700000004,
                    "velocity": 0.5905511811023622,
                    "duration": 0.09395404166667731
                },
                {
                    "name": "F2",
                    "midi": 41,
                    "time": 147.45065600000004,
                    "velocity": 0.5905511811023622,
                    "duration": 0.3267966666666666
                },
                {
                    "name": "A2",
                    "midi": 45,
                    "time": 147.84281200000004,
                    "velocity": 0.5905511811023622,
                    "duration": 0.3267966666666666
                },
                {
                    "name": "C#2",
                    "midi": 37,
                    "time": 148.23496800000004,
                    "velocity": 0.5905511811023622,
                    "duration": 0.2900320416666773
                },
                {
                    "name": "D2",
                    "midi": 38,
                    "time": 148.52908500000004,
                    "velocity": 0.5905511811023622,
                    "duration": 0.09395404166667731
                },
                {
                    "name": "E2",
                    "midi": 40,
                    "time": 148.62712400000004,
                    "velocity": 0.5905511811023622,
                    "duration": 0.3267966666666666
                },
                {
                    "name": "D2",
                    "midi": 38,
                    "time": 149.01928000000004,
                    "velocity": 0.5905511811023622,
                    "duration": 0.3267966666666666
                },
                {
                    "name": "F2",
                    "midi": 41,
                    "time": 149.41143600000004,
                    "velocity": 0.5905511811023622,
                    "duration": 0.2900320416666773
                },
                {
                    "name": "A2",
                    "midi": 45,
                    "time": 149.70555300000004,
                    "velocity": 0.5905511811023622,
                    "duration": 0.09395404166667731
                },
                {
                    "name": "G1",
                    "midi": 31,
                    "time": 149.80359200000004,
                    "velocity": 0.5905511811023622,
                    "duration": 0.2900320416666773
                },
                {
                    "name": "A1",
                    "midi": 33,
                    "time": 150.09770900000004,
                    "velocity": 0.5905511811023622,
                    "duration": 0.09395404166667731
                },
                {
                    "name": "B1",
                    "midi": 35,
                    "time": 150.19574800000004,
                    "velocity": 0.5905511811023622,
                    "duration": 0.3267966666666666
                },
                {
                    "name": "C2",
                    "midi": 36,
                    "time": 150.58790400000004,
                    "velocity": 0.5905511811023622,
                    "duration": 0.3267966666666666
                },
                {
                    "name": "B1",
                    "midi": 35,
                    "time": 150.98006000000004,
                    "velocity": 0.5905511811023622,
                    "duration": 0.3267966666666666
                },
                {
                    "name": "C2",
                    "midi": 36,
                    "time": 151.37221600000004,
                    "velocity": 0.5905511811023622,
                    "duration": 0.3267966666666666
                },
                {
                    "name": "D2",
                    "midi": 38,
                    "time": 151.76437200000004,
                    "velocity": 0.5905511811023622,
                    "duration": 0.2900320416666773
                },
                {
                    "name": "F#2",
                    "midi": 42,
                    "time": 152.05848900000004,
                    "velocity": 0.5905511811023622,
                    "duration": 0.09395404166667731
                },
                {
                    "name": "G2",
                    "midi": 43,
                    "time": 152.15652800000004,
                    "velocity": 0.5905511811023622,
                    "duration": 0.6862729999999999
                },
                {
                    "name": "G2",
                    "midi": 43,
                    "time": 152.94084000000004,
                    "velocity": 0.7244094488188977,
                    "duration": 0.3267966666666666
                },
                {
                    "name": "G2",
                    "midi": 43,
                    "time": 153.33299600000004,
                    "velocity": 0.7244094488188977,
                    "duration": 0.3267966666666666
                },
                {
                    "name": "G2",
                    "midi": 43,
                    "time": 153.72515200000004,
                    "velocity": 0.7244094488188977,
                    "duration": 0.6862729999999999
                },
                {
                    "name": "G1",
                    "midi": 31,
                    "time": 154.50946400000004,
                    "velocity": 0.7244094488188977,
                    "duration": 0.6862729999999999
                },
                {
                    "name": "G1",
                    "midi": 31,
                    "time": 155.29377600000004,
                    "velocity": 0.7244094488188977,
                    "duration": 0.6862729999999999
                },
                {
                    "name": "G1",
                    "midi": 31,
                    "time": 156.07808800000004,
                    "velocity": 0.7244094488188977,
                    "duration": 0.3267966666666666
                },
                {
                    "name": "G1",
                    "midi": 31,
                    "time": 156.47024400000004,
                    "velocity": 0.7244094488188977,
                    "duration": 0.3267966666666666
                },
                {
                    "name": "G1",
                    "midi": 31,
                    "time": 156.86240000000004,
                    "velocity": 0.7244094488188977,
                    "duration": 0.6862729999999999
                },
                {
                    "name": "G1",
                    "midi": 31,
                    "time": 157.64671200000004,
                    "velocity": 0.7244094488188977,
                    "duration": 0.6862729999999999
                },
                {
                    "name": "G1",
                    "midi": 31,
                    "time": 158.43102400000004,
                    "velocity": 0.7244094488188977,
                    "duration": 0.3267966666666666
                },
                {
                    "name": "G2",
                    "midi": 43,
                    "time": 158.82318000000004,
                    "velocity": 0.7244094488188977,
                    "duration": 0.3267966666666666
                },
                {
                    "name": "G1",
                    "midi": 31,
                    "time": 159.21533600000004,
                    "velocity": 0.7244094488188977,
                    "duration": 0.3267966666666666
                },
                {
                    "name": "G2",
                    "midi": 43,
                    "time": 159.60749200000004,
                    "velocity": 0.7244094488188977,
                    "duration": 0.3267966666666666
                },
                {
                    "name": "G1",
                    "midi": 31,
                    "time": 159.99964800000004,
                    "velocity": 0.7244094488188977,
                    "duration": 0.3267966666666666
                },
                {
                    "name": "G2",
                    "midi": 43,
                    "time": 160.39180400000004,
                    "velocity": 0.7244094488188977,
                    "duration": 0.3267966666666666
                },
                {
                    "name": "G1",
                    "midi": 31,
                    "time": 160.78396000000004,
                    "velocity": 0.7244094488188977,
                    "duration": 0.3267966666666666
                },
                {
                    "name": "G2",
                    "midi": 43,
                    "time": 161.17611600000004,
                    "velocity": 0.7244094488188977,
                    "duration": 0.3267966666666666
                },
                {
                    "name": "G1",
                    "midi": 31,
                    "time": 161.56827200000004,
                    "velocity": 0.7244094488188977,
                    "duration": 0.3267966666666666
                },
                {
                    "name": "F2",
                    "midi": 41,
                    "time": 163.13689600000004,
                    "velocity": 0.7244094488188977,
                    "duration": 0.3267966666666666
                },
                {
                    "name": "G2",
                    "midi": 43,
                    "time": 164.70552000000004,
                    "velocity": 0.7244094488188977,
                    "duration": 0.3267966666666666
                },
                {
                    "name": "C2",
                    "midi": 36,
                    "time": 168.62708000000003,
                    "velocity": 0.7244094488188977,
                    "duration": 0.1919930416666773
                },
                {
                    "name": "E2",
                    "midi": 40,
                    "time": 168.82315800000003,
                    "velocity": 0.7244094488188977,
                    "duration": 0.1919930416666773
                },
                {
                    "name": "D2",
                    "midi": 38,
                    "time": 169.01923600000003,
                    "velocity": 0.7244094488188977,
                    "duration": 0.1919930416666773
                },
                {
                    "name": "C2",
                    "midi": 36,
                    "time": 169.21531400000003,
                    "velocity": 0.7244094488188977,
                    "duration": 0.1919930416666773
                },
                {
                    "name": "B1",
                    "midi": 35,
                    "time": 169.41139200000003,
                    "velocity": 0.7244094488188977,
                    "duration": 0.1919930416666773
                },
                {
                    "name": "D2",
                    "midi": 38,
                    "time": 169.60747000000003,
                    "velocity": 0.7244094488188977,
                    "duration": 0.1919930416666773
                },
                {
                    "name": "C2",
                    "midi": 36,
                    "time": 169.80354800000003,
                    "velocity": 0.7244094488188977,
                    "duration": 0.1919930416666773
                },
                {
                    "name": "B1",
                    "midi": 35,
                    "time": 169.99962600000003,
                    "velocity": 0.7244094488188977,
                    "duration": 0.1919930416666773
                },
                {
                    "name": "A1",
                    "midi": 33,
                    "time": 170.19570400000003,
                    "velocity": 0.7244094488188977,
                    "duration": 0.1919930416666773
                },
                {
                    "name": "C2",
                    "midi": 36,
                    "time": 170.39178200000003,
                    "velocity": 0.7244094488188977,
                    "duration": 0.1919930416666773
                },
                {
                    "name": "B1",
                    "midi": 35,
                    "time": 170.58786000000003,
                    "velocity": 0.7244094488188977,
                    "duration": 0.1919930416666773
                },
                {
                    "name": "A1",
                    "midi": 33,
                    "time": 170.78393800000003,
                    "velocity": 0.7244094488188977,
                    "duration": 0.1919930416666773
                },
                {
                    "name": "G1",
                    "midi": 31,
                    "time": 170.98001600000003,
                    "velocity": 0.7244094488188977,
                    "duration": 0.1919930416666773
                },
                {
                    "name": "B1",
                    "midi": 35,
                    "time": 171.17609400000003,
                    "velocity": 0.7244094488188977,
                    "duration": 0.1919930416666773
                },
                {
                    "name": "A1",
                    "midi": 33,
                    "time": 171.37217200000003,
                    "velocity": 0.7244094488188977,
                    "duration": 0.1919930416666773
                },
                {
                    "name": "G1",
                    "midi": 31,
                    "time": 171.56825000000003,
                    "velocity": 0.7244094488188977,
                    "duration": 0.1919930416666773
                },
                {
                    "name": "C#2",
                    "midi": 37,
                    "time": 171.76432800000003,
                    "velocity": 0.7244094488188977,
                    "duration": 0.1919930416666773
                },
                {
                    "name": "A1",
                    "midi": 33,
                    "time": 171.96040600000003,
                    "velocity": 0.7244094488188977,
                    "duration": 0.1919930416666773
                },
                {
                    "name": "B1",
                    "midi": 35,
                    "time": 172.15648400000003,
                    "velocity": 0.7244094488188977,
                    "duration": 0.1919930416666773
                },
                {
                    "name": "C#2",
                    "midi": 37,
                    "time": 172.35256200000003,
                    "velocity": 0.7244094488188977,
                    "duration": 0.1919930416666773
                },
                {
                    "name": "D2",
                    "midi": 38,
                    "time": 172.54864000000003,
                    "velocity": 0.7244094488188977,
                    "duration": 0.1919930416666773
                },
                {
                    "name": "D2",
                    "midi": 38,
                    "time": 172.74471800000003,
                    "velocity": 0.7244094488188977,
                    "duration": 0.1919930416666773
                },
                {
                    "name": "G1",
                    "midi": 31,
                    "time": 172.94079600000003,
                    "velocity": 0.7244094488188977,
                    "duration": 0.1919930416666773
                },
                {
                    "name": "G1",
                    "midi": 31,
                    "time": 173.13687400000003,
                    "velocity": 0.7244094488188977,
                    "duration": 0.1919930416666773
                },
                {
                    "name": "C2",
                    "midi": 36,
                    "time": 173.33295200000003,
                    "velocity": 0.7244094488188977,
                    "duration": 0.1919930416666773
                },
                {
                    "name": "C2",
                    "midi": 36,
                    "time": 173.52903000000003,
                    "velocity": 0.7244094488188977,
                    "duration": 0.1919930416666773
                },
                {
                    "name": "D2",
                    "midi": 38,
                    "time": 173.72510800000003,
                    "velocity": 0.7244094488188977,
                    "duration": 0.1919930416666773
                },
                {
                    "name": "D2",
                    "midi": 38,
                    "time": 173.92118600000003,
                    "velocity": 0.7244094488188977,
                    "duration": 0.1919930416666773
                },
                {
                    "name": "G2",
                    "midi": 43,
                    "time": 174.11726400000003,
                    "velocity": 0.7244094488188977,
                    "duration": 0.1919930416666773
                },
                {
                    "name": "F2",
                    "midi": 41,
                    "time": 174.31334200000003,
                    "velocity": 0.7244094488188977,
                    "duration": 0.1919930416666773
                },
                {
                    "name": "E2",
                    "midi": 40,
                    "time": 174.50942000000003,
                    "velocity": 0.7244094488188977,
                    "duration": 0.1919930416666773
                },
                {
                    "name": "D2",
                    "midi": 38,
                    "time": 174.70549800000003,
                    "velocity": 0.7244094488188977,
                    "duration": 0.1919930416666773
                },
                {
                    "name": "C2",
                    "midi": 36,
                    "time": 174.90157600000003,
                    "velocity": 0.7244094488188977,
                    "duration": 0.1919930416666773
                },
                {
                    "name": "D2",
                    "midi": 38,
                    "time": 175.09765400000003,
                    "velocity": 0.7244094488188977,
                    "duration": 0.1919930416666773
                },
                {
                    "name": "E2",
                    "midi": 40,
                    "time": 175.29373200000003,
                    "velocity": 0.7244094488188977,
                    "duration": 0.1919930416666773
                },
                {
                    "name": "C2",
                    "midi": 36,
                    "time": 175.48981000000003,
                    "velocity": 0.7244094488188977,
                    "duration": 0.1919930416666773
                },
                {
                    "name": "B1",
                    "midi": 35,
                    "time": 175.68588800000003,
                    "velocity": 0.7244094488188977,
                    "duration": 0.1919930416666773
                },
                {
                    "name": "C2",
                    "midi": 36,
                    "time": 175.88196600000003,
                    "velocity": 0.7244094488188977,
                    "duration": 0.1919930416666773
                },
                {
                    "name": "D2",
                    "midi": 38,
                    "time": 176.07804400000003,
                    "velocity": 0.7244094488188977,
                    "duration": 0.1919930416666773
                },
                {
                    "name": "B1",
                    "midi": 35,
                    "time": 176.27412200000003,
                    "velocity": 0.7244094488188977,
                    "duration": 0.1919930416666773
                },
                {
                    "name": "D2",
                    "midi": 38,
                    "time": 176.47020000000003,
                    "velocity": 0.7244094488188977,
                    "duration": 0.1919930416666773
                },
                {
                    "name": "E2",
                    "midi": 40,
                    "time": 176.66627800000003,
                    "velocity": 0.7244094488188977,
                    "duration": 0.1919930416666773
                },
                {
                    "name": "F2",
                    "midi": 41,
                    "time": 176.86235600000003,
                    "velocity": 0.7244094488188977,
                    "duration": 0.1919930416666773
                },
                {
                    "name": "D2",
                    "midi": 38,
                    "time": 177.05843400000003,
                    "velocity": 0.7244094488188977,
                    "duration": 0.1919930416666773
                },
                {
                    "name": "C2",
                    "midi": 36,
                    "time": 177.25451200000003,
                    "velocity": 0.7244094488188977,
                    "duration": 0.1919930416666773
                },
                {
                    "name": "D2",
                    "midi": 38,
                    "time": 177.45059000000003,
                    "velocity": 0.7244094488188977,
                    "duration": 0.1919930416666773
                },
                {
                    "name": "E2",
                    "midi": 40,
                    "time": 177.64666800000003,
                    "velocity": 0.7244094488188977,
                    "duration": 0.1919930416666773
                },
                {
                    "name": "C2",
                    "midi": 36,
                    "time": 177.84274600000003,
                    "velocity": 0.7244094488188977,
                    "duration": 0.1919930416666773
                },
                {
                    "name": "A#1",
                    "midi": 34,
                    "time": 178.03882400000003,
                    "velocity": 0.7244094488188977,
                    "duration": 0.1919930416666773
                },
                {
                    "name": "C2",
                    "midi": 36,
                    "time": 178.23490200000003,
                    "velocity": 0.7244094488188977,
                    "duration": 0.1919930416666773
                },
                {
                    "name": "E2",
                    "midi": 40,
                    "time": 178.43098000000003,
                    "velocity": 0.7244094488188977,
                    "duration": 0.1919930416666773
                },
                {
                    "name": "G2",
                    "midi": 43,
                    "time": 178.62705800000003,
                    "velocity": 0.7244094488188977,
                    "duration": 0.1919930416666773
                },
                {
                    "name": "F2",
                    "midi": 41,
                    "time": 178.82313600000003,
                    "velocity": 0.7244094488188977,
                    "duration": 0.1919930416666773
                },
                {
                    "name": "G2",
                    "midi": 43,
                    "time": 179.01921400000003,
                    "velocity": 0.7244094488188977,
                    "duration": 0.1919930416666773
                },
                {
                    "name": "A2",
                    "midi": 45,
                    "time": 179.21529200000003,
                    "velocity": 0.7244094488188977,
                    "duration": 0.1919930416666773
                },
                {
                    "name": "F2",
                    "midi": 41,
                    "time": 179.41137000000003,
                    "velocity": 0.7244094488188977,
                    "duration": 0.1919930416666773
                },
                {
                    "name": "D2",
                    "midi": 38,
                    "time": 179.60744800000003,
                    "velocity": 0.7244094488188977,
                    "duration": 0.1919930416666773
                },
                {
                    "name": "F#2",
                    "midi": 42,
                    "time": 179.80352600000003,
                    "velocity": 0.7244094488188977,
                    "duration": 0.1919930416666773
                },
                {
                    "name": "A2",
                    "midi": 45,
                    "time": 179.99960400000003,
                    "velocity": 0.7244094488188977,
                    "duration": 0.1919930416666773
                },
                {
                    "name": "C3",
                    "midi": 48,
                    "time": 180.19568200000003,
                    "velocity": 0.7244094488188977,
                    "duration": 0.1919930416666773
                },
                {
                    "name": "G2",
                    "midi": 43,
                    "time": 180.39176000000003,
                    "velocity": 0.7244094488188977,
                    "duration": 0.1919930416666773
                },
                {
                    "name": "A2",
                    "midi": 45,
                    "time": 180.58783800000003,
                    "velocity": 0.7244094488188977,
                    "duration": 0.1919930416666773
                },
                {
                    "name": "B2",
                    "midi": 47,
                    "time": 180.78391600000003,
                    "velocity": 0.7244094488188977,
                    "duration": 0.1919930416666773
                },
                {
                    "name": "G2",
                    "midi": 43,
                    "time": 180.97999400000003,
                    "velocity": 0.7244094488188977,
                    "duration": 0.1919930416666773
                },
                {
                    "name": "B2",
                    "midi": 47,
                    "time": 181.17607200000003,
                    "velocity": 0.7244094488188977,
                    "duration": 0.1919930416666773
                },
                {
                    "name": "G2",
                    "midi": 43,
                    "time": 181.37215000000003,
                    "velocity": 0.7244094488188977,
                    "duration": 0.1919930416666773
                },
                {
                    "name": "D2",
                    "midi": 38,
                    "time": 181.56822800000003,
                    "velocity": 0.7244094488188977,
                    "duration": 0.1919930416666773
                },
                {
                    "name": "B1",
                    "midi": 35,
                    "time": 181.76430600000003,
                    "velocity": 0.7244094488188977,
                    "duration": 0.1919930416666773
                },
                {
                    "name": "C2",
                    "midi": 36,
                    "time": 181.96038400000003,
                    "velocity": 0.7244094488188977,
                    "duration": 0.1919930416666773
                },
                {
                    "name": "E2",
                    "midi": 40,
                    "time": 182.15646200000003,
                    "velocity": 0.7244094488188977,
                    "duration": 0.1919930416666773
                },
                {
                    "name": "G#2",
                    "midi": 44,
                    "time": 182.35254000000003,
                    "velocity": 0.7244094488188977,
                    "duration": 0.1919930416666773
                },
                {
                    "name": "E2",
                    "midi": 40,
                    "time": 182.54861800000003,
                    "velocity": 0.7244094488188977,
                    "duration": 0.1919930416666773
                },
                {
                    "name": "A2",
                    "midi": 45,
                    "time": 182.74469600000003,
                    "velocity": 0.7244094488188977,
                    "duration": 0.1919930416666773
                },
                {
                    "name": "C2",
                    "midi": 36,
                    "time": 182.94077400000003,
                    "velocity": 0.7244094488188977,
                    "duration": 0.1919930416666773
                },
                {
                    "name": "E2",
                    "midi": 40,
                    "time": 183.13685200000003,
                    "velocity": 0.7244094488188977,
                    "duration": 0.1919930416666773
                },
                {
                    "name": "G2",
                    "midi": 43,
                    "time": 183.33293000000003,
                    "velocity": 0.7244094488188977,
                    "duration": 0.1919930416666773
                },
                {
                    "name": "F2",
                    "midi": 41,
                    "time": 183.52900800000003,
                    "velocity": 0.7244094488188977,
                    "duration": 0.1919930416666773
                },
                {
                    "name": "G2",
                    "midi": 43,
                    "time": 183.72508600000003,
                    "velocity": 0.7244094488188977,
                    "duration": 0.1919930416666773
                },
                {
                    "name": "A2",
                    "midi": 45,
                    "time": 183.92116400000003,
                    "velocity": 0.7244094488188977,
                    "duration": 0.1919930416666773
                },
                {
                    "name": "F2",
                    "midi": 41,
                    "time": 184.11724200000003,
                    "velocity": 0.7244094488188977,
                    "duration": 0.1919930416666773
                },
                {
                    "name": "F#2",
                    "midi": 42,
                    "time": 184.31332000000003,
                    "velocity": 0.7244094488188977,
                    "duration": 0.1919930416666773
                },
                {
                    "name": "G2",
                    "midi": 43,
                    "time": 184.50939800000003,
                    "velocity": 0.7244094488188977,
                    "duration": 0.1919930416666773
                },
                {
                    "name": "A2",
                    "midi": 45,
                    "time": 184.70547600000003,
                    "velocity": 0.7244094488188977,
                    "duration": 0.1919930416666773
                },
                {
                    "name": "F#2",
                    "midi": 42,
                    "time": 184.90155400000003,
                    "velocity": 0.7244094488188977,
                    "duration": 0.1919930416666773
                },
                {
                    "name": "G2",
                    "midi": 43,
                    "time": 185.09763200000003,
                    "velocity": 0.7244094488188977,
                    "duration": 0.1919930416666773
                },
                {
                    "name": "A2",
                    "midi": 45,
                    "time": 185.29371000000003,
                    "velocity": 0.7244094488188977,
                    "duration": 0.1919930416666773
                },
                {
                    "name": "B2",
                    "midi": 47,
                    "time": 185.48978800000003,
                    "velocity": 0.7244094488188977,
                    "duration": 0.1919930416666773
                },
                {
                    "name": "A2",
                    "midi": 45,
                    "time": 185.68586600000003,
                    "velocity": 0.7244094488188977,
                    "duration": 0.1919930416666773
                },
                {
                    "name": "G2",
                    "midi": 43,
                    "time": 185.88194400000003,
                    "velocity": 0.7244094488188977,
                    "duration": 0.1919930416666773
                },
                {
                    "name": "F2",
                    "midi": 41,
                    "time": 186.07802200000003,
                    "velocity": 0.7244094488188977,
                    "duration": 0.1919930416666773
                },
                {
                    "name": "E2",
                    "midi": 40,
                    "time": 186.27410000000003,
                    "velocity": 0.7244094488188977,
                    "duration": 0.1919930416666773
                },
                {
                    "name": "D2",
                    "midi": 38,
                    "time": 186.47017800000003,
                    "velocity": 0.7244094488188977,
                    "duration": 0.1919930416666773
                },
                {
                    "name": "D#2",
                    "midi": 39,
                    "time": 186.66625600000003,
                    "velocity": 0.7244094488188977,
                    "duration": 0.1919930416666773
                },
                {
                    "name": "F2",
                    "midi": 41,
                    "time": 186.86233400000003,
                    "velocity": 0.7244094488188977,
                    "duration": 0.1919930416666773
                },
                {
                    "name": "G2",
                    "midi": 43,
                    "time": 187.05841200000003,
                    "velocity": 0.7244094488188977,
                    "duration": 0.1919930416666773
                },
                {
                    "name": "D#2",
                    "midi": 39,
                    "time": 187.25449000000003,
                    "velocity": 0.7244094488188977,
                    "duration": 0.1919930416666773
                },
                {
                    "name": "G#2",
                    "midi": 44,
                    "time": 187.45056800000003,
                    "velocity": 0.7244094488188977,
                    "duration": 0.1919930416666773
                },
                {
                    "name": "G2",
                    "midi": 43,
                    "time": 187.64664600000003,
                    "velocity": 0.7244094488188977,
                    "duration": 0.1919930416666773
                },
                {
                    "name": "F2",
                    "midi": 41,
                    "time": 187.84272400000003,
                    "velocity": 0.7244094488188977,
                    "duration": 0.1919930416666773
                },
                {
                    "name": "D#2",
                    "midi": 39,
                    "time": 188.03880200000003,
                    "velocity": 0.7244094488188977,
                    "duration": 0.1919930416666773
                },
                {
                    "name": "C#2",
                    "midi": 37,
                    "time": 188.23488000000003,
                    "velocity": 0.7244094488188977,
                    "duration": 0.1919930416666773
                },
                {
                    "name": "C2",
                    "midi": 36,
                    "time": 188.43095800000003,
                    "velocity": 0.7244094488188977,
                    "duration": 0.1919930416666773
                },
                {
                    "name": "A#1",
                    "midi": 34,
                    "time": 188.62703600000003,
                    "velocity": 0.7244094488188977,
                    "duration": 0.1919930416666773
                },
                {
                    "name": "C#2",
                    "midi": 37,
                    "time": 188.82311400000003,
                    "velocity": 0.7244094488188977,
                    "duration": 0.1919930416666773
                },
                {
                    "name": "D#2",
                    "midi": 39,
                    "time": 189.01919200000003,
                    "velocity": 0.7244094488188977,
                    "duration": 0.1919930416666773
                },
                {
                    "name": "F2",
                    "midi": 41,
                    "time": 189.21527000000003,
                    "velocity": 0.7244094488188977,
                    "duration": 0.1919930416666773
                },
                {
                    "name": "G2",
                    "midi": 43,
                    "time": 189.41134800000003,
                    "velocity": 0.7244094488188977,
                    "duration": 0.1919930416666773
                },
                {
                    "name": "D#2",
                    "midi": 39,
                    "time": 189.60742600000003,
                    "velocity": 0.7244094488188977,
                    "duration": 0.1919930416666773
                },
                {
                    "name": "G#2",
                    "midi": 44,
                    "time": 189.80350400000003,
                    "velocity": 0.7244094488188977,
                    "duration": 0.1919930416666773
                },
                {
                    "name": "G2",
                    "midi": 43,
                    "time": 189.99958200000003,
                    "velocity": 0.7244094488188977,
                    "duration": 0.1919930416666773
                },
                {
                    "name": "F2",
                    "midi": 41,
                    "time": 190.19566000000003,
                    "velocity": 0.7244094488188977,
                    "duration": 0.1919930416666773
                },
                {
                    "name": "D#2",
                    "midi": 39,
                    "time": 190.39173800000003,
                    "velocity": 0.7244094488188977,
                    "duration": 0.1919930416666773
                },
                {
                    "name": "F#2",
                    "midi": 42,
                    "time": 190.58781600000003,
                    "velocity": 0.7244094488188977,
                    "duration": 0.1919930416666773
                },
                {
                    "name": "E2",
                    "midi": 40,
                    "time": 190.78389400000003,
                    "velocity": 0.7244094488188977,
                    "duration": 0.1919930416666773
                },
                {
                    "name": "C2",
                    "midi": 36,
                    "time": 190.97997200000003,
                    "velocity": 0.7244094488188977,
                    "duration": 0.1919930416666773
                },
                {
                    "name": "E2",
                    "midi": 40,
                    "time": 191.17605000000003,
                    "velocity": 0.7244094488188977,
                    "duration": 0.1919930416666773
                },
                {
                    "name": "C2",
                    "midi": 36,
                    "time": 191.37212800000003,
                    "velocity": 0.7244094488188977,
                    "duration": 0.1919930416666773
                },
                {
                    "name": "D2",
                    "midi": 38,
                    "time": 191.56820600000003,
                    "velocity": 0.7244094488188977,
                    "duration": 0.1919930416666773
                },
                {
                    "name": "E2",
                    "midi": 40,
                    "time": 191.76428400000003,
                    "velocity": 0.7244094488188977,
                    "duration": 0.1919930416666773
                },
                {
                    "name": "C2",
                    "midi": 36,
                    "time": 191.96036200000003,
                    "velocity": 0.7244094488188977,
                    "duration": 0.1919930416666773
                },
                {
                    "name": "G2",
                    "midi": 43,
                    "time": 192.15644000000003,
                    "velocity": 0.7244094488188977,
                    "duration": 0.1919930416666773
                },
                {
                    "name": "A2",
                    "midi": 45,
                    "time": 192.35251800000003,
                    "velocity": 0.7244094488188977,
                    "duration": 0.1919930416666773
                },
                {
                    "name": "B2",
                    "midi": 47,
                    "time": 192.54859600000003,
                    "velocity": 0.7244094488188977,
                    "duration": 0.1919930416666773
                },
                {
                    "name": "G2",
                    "midi": 43,
                    "time": 192.74467400000003,
                    "velocity": 0.7244094488188977,
                    "duration": 0.1919930416666773
                },
                {
                    "name": "G#2",
                    "midi": 44,
                    "time": 192.94075200000003,
                    "velocity": 0.5905511811023622,
                    "duration": 0.1919930416666773
                },
                {
                    "name": "A#2",
                    "midi": 46,
                    "time": 193.13683000000003,
                    "velocity": 0.5905511811023622,
                    "duration": 0.1919930416666773
                },
                {
                    "name": "C3",
                    "midi": 48,
                    "time": 193.33290800000003,
                    "velocity": 0.5905511811023622,
                    "duration": 0.1919930416666773
                },
                {
                    "name": "A#2",
                    "midi": 46,
                    "time": 193.52898600000003,
                    "velocity": 0.5905511811023622,
                    "duration": 0.1919930416666773
                },
                {
                    "name": "G#2",
                    "midi": 44,
                    "time": 193.72506400000003,
                    "velocity": 0.5905511811023622,
                    "duration": 0.1919930416666773
                },
                {
                    "name": "G2",
                    "midi": 43,
                    "time": 193.92114200000003,
                    "velocity": 0.5905511811023622,
                    "duration": 0.1919930416666773
                },
                {
                    "name": "F2",
                    "midi": 41,
                    "time": 194.11722000000003,
                    "velocity": 0.5905511811023622,
                    "duration": 0.1919930416666773
                },
                {
                    "name": "D#2",
                    "midi": 39,
                    "time": 194.31329800000003,
                    "velocity": 0.5905511811023622,
                    "duration": 0.1919930416666773
                },
                {
                    "name": "C#2",
                    "midi": 37,
                    "time": 194.50937600000003,
                    "velocity": 0.5905511811023622,
                    "duration": 0.1919930416666773
                },
                {
                    "name": "D#2",
                    "midi": 39,
                    "time": 194.70545400000003,
                    "velocity": 0.5905511811023622,
                    "duration": 0.1919930416666773
                },
                {
                    "name": "F2",
                    "midi": 41,
                    "time": 194.90153200000003,
                    "velocity": 0.5905511811023622,
                    "duration": 0.1919930416666773
                },
                {
                    "name": "C#2",
                    "midi": 37,
                    "time": 195.09761000000003,
                    "velocity": 0.5905511811023622,
                    "duration": 0.1919930416666773
                },
                {
                    "name": "D#2",
                    "midi": 39,
                    "time": 195.29368800000003,
                    "velocity": 0.5905511811023622,
                    "duration": 0.1919930416666773
                },
                {
                    "name": "F2",
                    "midi": 41,
                    "time": 195.48976600000003,
                    "velocity": 0.5905511811023622,
                    "duration": 0.1919930416666773
                },
                {
                    "name": "G2",
                    "midi": 43,
                    "time": 195.68584400000003,
                    "velocity": 0.5905511811023622,
                    "duration": 0.1919930416666773
                },
                {
                    "name": "D#2",
                    "midi": 39,
                    "time": 195.88192200000003,
                    "velocity": 0.5905511811023622,
                    "duration": 0.1919930416666773
                },
                {
                    "name": "G#2",
                    "midi": 44,
                    "time": 196.07800000000003,
                    "velocity": 0.5905511811023622,
                    "duration": 0.1919930416666773
                },
                {
                    "name": "G2",
                    "midi": 43,
                    "time": 196.27407800000003,
                    "velocity": 0.5905511811023622,
                    "duration": 0.1919930416666773
                },
                {
                    "name": "F2",
                    "midi": 41,
                    "time": 196.47015600000003,
                    "velocity": 0.5905511811023622,
                    "duration": 0.1919930416666773
                },
                {
                    "name": "C2",
                    "midi": 36,
                    "time": 196.66623400000003,
                    "velocity": 0.5905511811023622,
                    "duration": 0.1919930416666773
                },
                {
                    "name": "E2",
                    "midi": 40,
                    "time": 196.86231200000003,
                    "velocity": 0.5905511811023622,
                    "duration": 0.1919930416666773
                },
                {
                    "name": "F#2",
                    "midi": 42,
                    "time": 197.05839000000003,
                    "velocity": 0.5905511811023622,
                    "duration": 0.1919930416666773
                },
                {
                    "name": "G2",
                    "midi": 43,
                    "time": 197.25446800000003,
                    "velocity": 0.5905511811023622,
                    "duration": 0.1919930416666773
                },
                {
                    "name": "G#2",
                    "midi": 44,
                    "time": 197.45054600000003,
                    "velocity": 0.5905511811023622,
                    "duration": 0.1919930416666773
                },
                {
                    "name": "G2",
                    "midi": 43,
                    "time": 197.64662400000003,
                    "velocity": 0.5905511811023622,
                    "duration": 0.1919930416666773
                },
                {
                    "name": "F2",
                    "midi": 41,
                    "time": 197.84270200000003,
                    "velocity": 0.5905511811023622,
                    "duration": 0.1919930416666773
                },
                {
                    "name": "E2",
                    "midi": 40,
                    "time": 198.03878000000003,
                    "velocity": 0.5905511811023622,
                    "duration": 0.1919930416666773
                },
                {
                    "name": "D2",
                    "midi": 38,
                    "time": 198.23485800000003,
                    "velocity": 0.5905511811023622,
                    "duration": 0.1919930416666773
                },
                {
                    "name": "G2",
                    "midi": 43,
                    "time": 198.43093600000003,
                    "velocity": 0.5905511811023622,
                    "duration": 0.1919930416666773
                },
                {
                    "name": "A2",
                    "midi": 45,
                    "time": 198.62701400000003,
                    "velocity": 0.5905511811023622,
                    "duration": 0.1919930416666773
                },
                {
                    "name": "B2",
                    "midi": 47,
                    "time": 198.82309200000003,
                    "velocity": 0.5905511811023622,
                    "duration": 0.1919930416666773
                },
                {
                    "name": "G2",
                    "midi": 43,
                    "time": 199.01917000000003,
                    "velocity": 0.5905511811023622,
                    "duration": 0.1919930416666773
                },
                {
                    "name": "C3",
                    "midi": 48,
                    "time": 199.21524800000003,
                    "velocity": 0.7244094488188977,
                    "duration": 0.1919930416666773
                },
                {
                    "name": "B2",
                    "midi": 47,
                    "time": 199.41132600000003,
                    "velocity": 0.7244094488188977,
                    "duration": 0.1919930416666773
                },
                {
                    "name": "A2",
                    "midi": 45,
                    "time": 199.60740400000003,
                    "velocity": 0.7244094488188977,
                    "duration": 0.1919930416666773
                },
                {
                    "name": "G2",
                    "midi": 43,
                    "time": 199.80348200000003,
                    "velocity": 0.7244094488188977,
                    "duration": 0.1919930416666773
                },
                {
                    "name": "A2",
                    "midi": 45,
                    "time": 199.99956000000003,
                    "velocity": 0.7244094488188977,
                    "duration": 0.1919930416666773
                },
                {
                    "name": "F2",
                    "midi": 41,
                    "time": 200.19563800000003,
                    "velocity": 0.7244094488188977,
                    "duration": 0.1919930416666773
                },
                {
                    "name": "D2",
                    "midi": 38,
                    "time": 200.39171600000003,
                    "velocity": 0.7244094488188977,
                    "duration": 0.1919930416666773
                },
                {
                    "name": "F2",
                    "midi": 41,
                    "time": 200.58779400000003,
                    "velocity": 0.7244094488188977,
                    "duration": 0.1919930416666773
                },
                {
                    "name": "G2",
                    "midi": 43,
                    "time": 200.78387200000003,
                    "velocity": 0.7244094488188977,
                    "duration": 0.1919930416666773
                },
                {
                    "name": "F2",
                    "midi": 41,
                    "time": 200.97995000000003,
                    "velocity": 0.7244094488188977,
                    "duration": 0.1919930416666773
                },
                {
                    "name": "E2",
                    "midi": 40,
                    "time": 201.17602800000003,
                    "velocity": 0.7244094488188977,
                    "duration": 0.1919930416666773
                },
                {
                    "name": "F2",
                    "midi": 41,
                    "time": 201.37210600000003,
                    "velocity": 0.7244094488188977,
                    "duration": 0.1919930416666773
                },
                {
                    "name": "G2",
                    "midi": 43,
                    "time": 201.56818400000003,
                    "velocity": 0.7244094488188977,
                    "duration": 0.1919930416666773
                },
                {
                    "name": "D2",
                    "midi": 38,
                    "time": 201.76426200000003,
                    "velocity": 0.7244094488188977,
                    "duration": 0.1919930416666773
                },
                {
                    "name": "B1",
                    "midi": 35,
                    "time": 201.96034000000003,
                    "velocity": 0.7244094488188977,
                    "duration": 0.1919930416666773
                },
                {
                    "name": "E2",
                    "midi": 40,
                    "time": 202.15641800000003,
                    "velocity": 0.7244094488188977,
                    "duration": 0.1919930416666773
                },
                {
                    "name": "A2",
                    "midi": 45,
                    "time": 202.35249600000003,
                    "velocity": 0.7244094488188977,
                    "duration": 0.1919930416666773
                },
                {
                    "name": "E2",
                    "midi": 40,
                    "time": 202.54857400000003,
                    "velocity": 0.7244094488188977,
                    "duration": 0.1919930416666773
                },
                {
                    "name": "D2",
                    "midi": 38,
                    "time": 202.74465200000003,
                    "velocity": 0.7244094488188977,
                    "duration": 0.1919930416666773
                },
                {
                    "name": "F#2",
                    "midi": 42,
                    "time": 202.94073000000003,
                    "velocity": 0.7244094488188977,
                    "duration": 0.1919930416666773
                },
                {
                    "name": "G2",
                    "midi": 43,
                    "time": 203.13680800000003,
                    "velocity": 0.7244094488188977,
                    "duration": 0.1919930416666773
                },
                {
                    "name": "D2",
                    "midi": 38,
                    "time": 203.33288600000003,
                    "velocity": 0.7244094488188977,
                    "duration": 0.1919930416666773
                },
                {
                    "name": "F2",
                    "midi": 41,
                    "time": 203.52896400000003,
                    "velocity": 0.7244094488188977,
                    "duration": 0.1919930416666773
                },
                {
                    "name": "B1",
                    "midi": 35,
                    "time": 203.72504200000003,
                    "velocity": 0.7244094488188977,
                    "duration": 0.1919930416666773
                },
                {
                    "name": "E2",
                    "midi": 40,
                    "time": 203.92112000000003,
                    "velocity": 0.7244094488188977,
                    "duration": 0.1919930416666773
                },
                {
                    "name": "E2",
                    "midi": 40,
                    "time": 204.11719800000003,
                    "velocity": 0.7244094488188977,
                    "duration": 0.1919930416666773
                },
                {
                    "name": "F2",
                    "midi": 41,
                    "time": 204.31327600000003,
                    "velocity": 0.7244094488188977,
                    "duration": 0.1919930416666773
                },
                {
                    "name": "F2",
                    "midi": 41,
                    "time": 204.50935400000003,
                    "velocity": 0.7244094488188977,
                    "duration": 0.1919930416666773
                },
                {
                    "name": "G2",
                    "midi": 43,
                    "time": 204.70543200000003,
                    "velocity": 0.7244094488188977,
                    "duration": 0.1919930416666773
                },
                {
                    "name": "G2",
                    "midi": 43,
                    "time": 204.90151000000003,
                    "velocity": 0.7244094488188977,
                    "duration": 0.1919930416666773
                },
                {
                    "name": "G1",
                    "midi": 31,
                    "time": 205.09758800000003,
                    "velocity": 0.7244094488188977,
                    "duration": 0.1919930416666773
                },
                {
                    "name": "G1",
                    "midi": 31,
                    "time": 205.29366600000003,
                    "velocity": 0.7244094488188977,
                    "duration": 0.1919930416666773
                },
                {
                    "name": "C2",
                    "midi": 36,
                    "time": 205.48974400000003,
                    "velocity": 0.7244094488188977,
                    "duration": 0.1919930416666773
                },
                {
                    "name": "C2",
                    "midi": 36,
                    "time": 205.68582200000003,
                    "velocity": 0.7244094488188977,
                    "duration": 0.1919930416666773
                },
                {
                    "name": "A1",
                    "midi": 33,
                    "time": 205.88190000000003,
                    "velocity": 0.7244094488188977,
                    "duration": 0.1919930416666773
                },
                {
                    "name": "A1",
                    "midi": 33,
                    "time": 206.07797800000003,
                    "velocity": 0.7244094488188977,
                    "duration": 0.1919930416666773
                },
                {
                    "name": "D2",
                    "midi": 38,
                    "time": 206.27405600000003,
                    "velocity": 0.7244094488188977,
                    "duration": 0.1919930416666773
                },
                {
                    "name": "D2",
                    "midi": 38,
                    "time": 206.47013400000003,
                    "velocity": 0.7244094488188977,
                    "duration": 0.1919930416666773
                },
                {
                    "name": "G2",
                    "midi": 43,
                    "time": 206.66621200000003,
                    "velocity": 0.7244094488188977,
                    "duration": 0.1919930416666773
                },
                {
                    "name": "G2",
                    "midi": 43,
                    "time": 206.86229000000003,
                    "velocity": 0.7244094488188977,
                    "duration": 0.1919930416666773
                },
                {
                    "name": "C2",
                    "midi": 36,
                    "time": 207.05836800000003,
                    "velocity": 0.7244094488188977,
                    "duration": 0.1919930416666773
                },
                {
                    "name": "C2",
                    "midi": 36,
                    "time": 207.25444600000003,
                    "velocity": 0.7244094488188977,
                    "duration": 0.1919930416666773
                },
                {
                    "name": "F2",
                    "midi": 41,
                    "time": 207.45052400000003,
                    "velocity": 0.7244094488188977,
                    "duration": 0.1919930416666773
                },
                {
                    "name": "F2",
                    "midi": 41,
                    "time": 207.64660200000003,
                    "velocity": 0.7244094488188977,
                    "duration": 0.1919930416666773
                },
                {
                    "name": "B1",
                    "midi": 35,
                    "time": 207.84268000000003,
                    "velocity": 0.7244094488188977,
                    "duration": 0.1919930416666773
                },
                {
                    "name": "B1",
                    "midi": 35,
                    "time": 208.03875800000003,
                    "velocity": 0.7244094488188977,
                    "duration": 0.1919930416666773
                },
                {
                    "name": "E2",
                    "midi": 40,
                    "time": 208.23483600000003,
                    "velocity": 0.7244094488188977,
                    "duration": 0.1919930416666773
                },
                {
                    "name": "E2",
                    "midi": 40,
                    "time": 208.43091400000003,
                    "velocity": 0.7244094488188977,
                    "duration": 0.1919930416666773
                },
                {
                    "name": "A1",
                    "midi": 33,
                    "time": 208.62699200000003,
                    "velocity": 0.7244094488188977,
                    "duration": 0.1919930416666773
                },
                {
                    "name": "A1",
                    "midi": 33,
                    "time": 208.82307000000003,
                    "velocity": 0.7244094488188977,
                    "duration": 0.1919930416666773
                },
                {
                    "name": "D2",
                    "midi": 38,
                    "time": 209.01914800000003,
                    "velocity": 0.7244094488188977,
                    "duration": 0.1919930416666773
                },
                {
                    "name": "D2",
                    "midi": 38,
                    "time": 209.21522600000003,
                    "velocity": 0.7244094488188977,
                    "duration": 0.1919930416666773
                },
                {
                    "name": "G2",
                    "midi": 43,
                    "time": 209.41130400000003,
                    "velocity": 0.7244094488188977,
                    "duration": 0.1919930416666773
                },
                {
                    "name": "G2",
                    "midi": 43,
                    "time": 209.60738200000003,
                    "velocity": 0.7244094488188977,
                    "duration": 0.1919930416666773
                },
                {
                    "name": "F2",
                    "midi": 41,
                    "time": 209.80346000000003,
                    "velocity": 0.7244094488188977,
                    "duration": 0.1919930416666773
                },
                {
                    "name": "F2",
                    "midi": 41,
                    "time": 209.99953800000003,
                    "velocity": 0.7244094488188977,
                    "duration": 0.1919930416666773
                },
                {
                    "name": "E2",
                    "midi": 40,
                    "time": 210.19561600000003,
                    "velocity": 0.7244094488188977,
                    "duration": 0.1919930416666773
                },
                {
                    "name": "E2",
                    "midi": 40,
                    "time": 210.39169400000003,
                    "velocity": 0.7244094488188977,
                    "duration": 0.1919930416666773
                },
                {
                    "name": "F2",
                    "midi": 41,
                    "time": 210.58777200000003,
                    "velocity": 0.7244094488188977,
                    "duration": 0.1919930416666773
                },
                {
                    "name": "F2",
                    "midi": 41,
                    "time": 210.78385000000003,
                    "velocity": 0.7244094488188977,
                    "duration": 0.1919930416666773
                },
                {
                    "name": "G2",
                    "midi": 43,
                    "time": 210.97992800000003,
                    "velocity": 0.7244094488188977,
                    "duration": 0.1919930416666773
                },
                {
                    "name": "G2",
                    "midi": 43,
                    "time": 211.17600600000003,
                    "velocity": 0.7244094488188977,
                    "duration": 0.1919930416666773
                },
                {
                    "name": "G1",
                    "midi": 31,
                    "time": 211.37208400000003,
                    "velocity": 0.7244094488188977,
                    "duration": 0.1919930416666773
                },
                {
                    "name": "G1",
                    "midi": 31,
                    "time": 211.56816200000003,
                    "velocity": 0.7244094488188977,
                    "duration": 0.1919930416666773
                },
                {
                    "name": "C2",
                    "midi": 36,
                    "time": 211.76424000000003,
                    "velocity": 0.7244094488188977,
                    "duration": 0.6862729999999999
                },
                {
                    "name": "G1",
                    "midi": 31,
                    "time": 212.54855200000003,
                    "velocity": 0.7244094488188977,
                    "duration": 0.6862729999999999
                },
                {
                    "name": "C2",
                    "midi": 36,
                    "time": 213.33286400000003,
                    "velocity": 0.7244094488188977,
                    "duration": 0.6862729999999999
                },
                {
                    "name": "G2",
                    "midi": 43,
                    "time": 214.11717600000003,
                    "velocity": 0.7244094488188977,
                    "duration": 0.6862729999999999
                },
                {
                    "name": "C2",
                    "midi": 36,
                    "time": 214.90148800000003,
                    "velocity": 0.7244094488188977,
                    "duration": 0.6862729999999999
                },
                {
                    "name": "G1",
                    "midi": 31,
                    "time": 215.68580000000003,
                    "velocity": 0.7244094488188977,
                    "duration": 0.6862729999999999
                },
                {
                    "name": "C2",
                    "midi": 36,
                    "time": 216.47011200000003,
                    "velocity": 0.7244094488188977,
                    "duration": 0.6862729999999999
                },
                {
                    "name": "G1",
                    "midi": 31,
                    "time": 217.25442400000003,
                    "velocity": 0.7244094488188977,
                    "duration": 0.6862729999999999
                },
                {
                    "name": "C2",
                    "midi": 36,
                    "time": 218.03873600000003,
                    "velocity": 0.7244094488188977,
                    "duration": 0.3267966666666666
                },
                {
                    "name": "G1",
                    "midi": 31,
                    "time": 218.43089200000003,
                    "velocity": 0.7874015748031497,
                    "duration": 0.3267966666666666
                },
                {
                    "name": "C2",
                    "midi": 36,
                    "time": 218.82304800000003,
                    "velocity": 0.8503937007874016,
                    "duration": 0.3267966666666666
                },
                {
                    "name": "G2",
                    "midi": 43,
                    "time": 219.21520400000003,
                    "velocity": 0.8503937007874016,
                    "duration": 0.3267966666666666
                },
                {
                    "name": "C3",
                    "midi": 48,
                    "time": 219.60736000000003,
                    "velocity": 0.8503937007874016,
                    "duration": 0.3267966666666666
                },
                {
                    "name": "G2",
                    "midi": 43,
                    "time": 219.99951600000003,
                    "velocity": 0.8503937007874016,
                    "duration": 0.3267966666666666
                },
                {
                    "name": "C3",
                    "midi": 48,
                    "time": 220.39167200000003,
                    "velocity": 0.8503937007874016,
                    "duration": 0.3267966666666666
                },
                {
                    "name": "G2",
                    "midi": 43,
                    "time": 220.78382800000003,
                    "velocity": 0.8503937007874016,
                    "duration": 0.3267966666666666
                },
                {
                    "name": "C2",
                    "midi": 36,
                    "time": 221.17598400000003,
                    "velocity": 0.8503937007874016,
                    "duration": 0.1919930416666773
                },
                {
                    "name": "C2",
                    "midi": 36,
                    "time": 222.74460800000003,
                    "velocity": 0.8503937007874016,
                    "duration": 0.1919930416666773
                },
                {
                    "name": "C2",
                    "midi": 36,
                    "time": 224.31323200000003,
                    "velocity": 0.8503937007874016,
                    "duration": 0.1919930416666773
                },
                {
                    "name": "C3",
                    "midi": 48,
                    "time": 225.88185600000003,
                    "velocity": 0.8503937007874016,
                    "duration": 0.1919930416666773
                },
                {
                    "name": "B2",
                    "midi": 47,
                    "time": 226.07793400000003,
                    "velocity": 0.8503937007874016,
                    "duration": 0.1919930416666773
                },
                {
                    "name": "A2",
                    "midi": 45,
                    "time": 226.27401200000003,
                    "velocity": 0.8503937007874016,
                    "duration": 0.1919930416666773
                },
                {
                    "name": "G#2",
                    "midi": 44,
                    "time": 226.47009000000003,
                    "velocity": 0.8503937007874016,
                    "duration": 0.1919930416666773
                },
                {
                    "name": "G2",
                    "midi": 43,
                    "time": 226.66616800000003,
                    "velocity": 0.8503937007874016,
                    "duration": 0.1919930416666773
                },
                {
                    "name": "F2",
                    "midi": 41,
                    "time": 226.86224600000003,
                    "velocity": 0.8503937007874016,
                    "duration": 0.1919930416666773
                },
                {
                    "name": "E2",
                    "midi": 40,
                    "time": 227.05832400000003,
                    "velocity": 0.8503937007874016,
                    "duration": 0.1919930416666773
                },
                {
                    "name": "D2",
                    "midi": 38,
                    "time": 227.25440200000003,
                    "velocity": 0.8503937007874016,
                    "duration": 0.1919930416666773
                },
                {
                    "name": "C2",
                    "midi": 36,
                    "time": 227.45048000000003,
                    "velocity": 0.8503937007874016,
                    "duration": 0.1919930416666773
                }
            ],
            "controlChanges": {
                "7": [
                    {
                        "number": 7,
                        "time": 0,
                        "value": 1
                    }
                ],
                "10": [
                    {
                        "number": 10,
                        "time": 0,
                        "value": 0.5039370078740157
                    }
                ],
                "91": [
                    {
                        "number": 91,
                        "time": 0,
                        "value": 0.7401574803149606
                    }
                ]
            },
            "id": 9,
            "instrumentNumber": 32,
            "instrument": "acoustic bass",
            "instrumentFamily": "bass",
            "channelNumber": 5,
            "isPercussion": false
        },
        {
            "startTime": 0.196078,
            "duration": 227.64247304166668,
            "length": 496,
            "notes": [
                {
                    "name": "E2",
                    "midi": 40,
                    "time": 0.196078,
                    "velocity": 0.3543307086614173,
                    "duration": 0.19199304166666667
                },
                {
                    "name": "E2",
                    "midi": 40,
                    "time": 0.5882339999999999,
                    "velocity": 0.3543307086614173,
                    "duration": 0.19199304166666664
                },
                {
                    "name": "E2",
                    "midi": 40,
                    "time": 0.9803899999999999,
                    "velocity": 0.3543307086614173,
                    "duration": 0.19199304166666664
                },
                {
                    "name": "E2",
                    "midi": 40,
                    "time": 1.3725459999999998,
                    "velocity": 0.3543307086614173,
                    "duration": 0.19199304166666664
                },
                {
                    "name": "E2",
                    "midi": 40,
                    "time": 1.7647019999999998,
                    "velocity": 0.3543307086614173,
                    "duration": 0.19199304166666664
                },
                {
                    "name": "E2",
                    "midi": 40,
                    "time": 2.1568579999999997,
                    "velocity": 0.3543307086614173,
                    "duration": 0.19199304166666664
                },
                {
                    "name": "E2",
                    "midi": 40,
                    "time": 2.5490139999999997,
                    "velocity": 0.3543307086614173,
                    "duration": 0.19199304166666664
                },
                {
                    "name": "E2",
                    "midi": 40,
                    "time": 2.9411699999999996,
                    "velocity": 0.3543307086614173,
                    "duration": 0.19199304166666664
                },
                {
                    "name": "E2",
                    "midi": 40,
                    "time": 3.3333259999999996,
                    "velocity": 0.3543307086614173,
                    "duration": 0.19199304166666664
                },
                {
                    "name": "E2",
                    "midi": 40,
                    "time": 3.7254819999999995,
                    "velocity": 0.3543307086614173,
                    "duration": 0.19199304166666664
                },
                {
                    "name": "E2",
                    "midi": 40,
                    "time": 4.1176379999999995,
                    "velocity": 0.3543307086614173,
                    "duration": 0.19199304166666664
                },
                {
                    "name": "E2",
                    "midi": 40,
                    "time": 4.509793999999999,
                    "velocity": 0.3543307086614173,
                    "duration": 0.19199304166666664
                },
                {
                    "name": "E2",
                    "midi": 40,
                    "time": 4.901949999999999,
                    "velocity": 0.3543307086614173,
                    "duration": 0.19199304166666664
                },
                {
                    "name": "E2",
                    "midi": 40,
                    "time": 5.294105999999999,
                    "velocity": 0.3543307086614173,
                    "duration": 0.19199304166666664
                },
                {
                    "name": "E2",
                    "midi": 40,
                    "time": 5.686261999999999,
                    "velocity": 0.47244094488188976,
                    "duration": 0.19199304166666664
                },
                {
                    "name": "E2",
                    "midi": 40,
                    "time": 6.078417999999999,
                    "velocity": 0.47244094488188976,
                    "duration": 0.19199304166666664
                },
                {
                    "name": "E2",
                    "midi": 40,
                    "time": 6.470573999999999,
                    "velocity": 0.47244094488188976,
                    "duration": 0.19199304166666664
                },
                {
                    "name": "E2",
                    "midi": 40,
                    "time": 6.862729999999999,
                    "velocity": 0.47244094488188976,
                    "duration": 0.19199304166666664
                },
                {
                    "name": "E2",
                    "midi": 40,
                    "time": 7.254885999999999,
                    "velocity": 0.47244094488188976,
                    "duration": 0.19199304166666664
                },
                {
                    "name": "E2",
                    "midi": 40,
                    "time": 7.647041999999999,
                    "velocity": 0.47244094488188976,
                    "duration": 0.19199304166666664
                },
                {
                    "name": "E2",
                    "midi": 40,
                    "time": 8.039197999999999,
                    "velocity": 0.47244094488188976,
                    "duration": 0.19199304166666664
                },
                {
                    "name": "E2",
                    "midi": 40,
                    "time": 8.431353999999999,
                    "velocity": 0.47244094488188976,
                    "duration": 0.19199304166666664
                },
                {
                    "name": "E2",
                    "midi": 40,
                    "time": 8.823509999999999,
                    "velocity": 0.47244094488188976,
                    "duration": 0.19199304166666664
                },
                {
                    "name": "E2",
                    "midi": 40,
                    "time": 9.215665999999999,
                    "velocity": 0.47244094488188976,
                    "duration": 0.19199304166666664
                },
                {
                    "name": "E2",
                    "midi": 40,
                    "time": 9.411743999999999,
                    "velocity": 0.47244094488188976,
                    "duration": 0.19199304166666664
                },
                {
                    "name": "E2",
                    "midi": 40,
                    "time": 9.607821999999999,
                    "velocity": 0.47244094488188976,
                    "duration": 0.19199304166666664
                },
                {
                    "name": "E2",
                    "midi": 40,
                    "time": 9.803899999999999,
                    "velocity": 0.47244094488188976,
                    "duration": 0.19199304166666664
                },
                {
                    "name": "E2",
                    "midi": 40,
                    "time": 9.999977999999999,
                    "velocity": 0.47244094488188976,
                    "duration": 0.19199304166666664
                },
                {
                    "name": "E2",
                    "midi": 40,
                    "time": 10.196055999999999,
                    "velocity": 0.47244094488188976,
                    "duration": 0.19199304166666664
                },
                {
                    "name": "E2",
                    "midi": 40,
                    "time": 10.392133999999999,
                    "velocity": 0.47244094488188976,
                    "duration": 0.19199304166666664
                },
                {
                    "name": "E2",
                    "midi": 40,
                    "time": 10.588211999999999,
                    "velocity": 0.47244094488188976,
                    "duration": 0.19199304166666664
                },
                {
                    "name": "E2",
                    "midi": 40,
                    "time": 10.784289999999999,
                    "velocity": 0.47244094488188976,
                    "duration": 0.19199304166666664
                },
                {
                    "name": "E2",
                    "midi": 40,
                    "time": 10.980367999999999,
                    "velocity": 0.47244094488188976,
                    "duration": 0.19199304166666664
                },
                {
                    "name": "E2",
                    "midi": 40,
                    "time": 11.960757999999998,
                    "velocity": 0.47244094488188976,
                    "duration": 0.19199304166666664
                },
                {
                    "name": "E2",
                    "midi": 40,
                    "time": 12.352913999999998,
                    "velocity": 0.47244094488188976,
                    "duration": 0.19199304166666664
                },
                {
                    "name": "E2",
                    "midi": 40,
                    "time": 12.745069999999998,
                    "velocity": 0.47244094488188976,
                    "duration": 0.19199304166666664
                },
                {
                    "name": "E2",
                    "midi": 40,
                    "time": 13.137225999999998,
                    "velocity": 0.47244094488188976,
                    "duration": 0.19199304166666664
                },
                {
                    "name": "E2",
                    "midi": 40,
                    "time": 13.529381999999998,
                    "velocity": 0.47244094488188976,
                    "duration": 0.19199304166666664
                },
                {
                    "name": "E2",
                    "midi": 40,
                    "time": 13.921537999999998,
                    "velocity": 0.47244094488188976,
                    "duration": 0.19199304166666664
                },
                {
                    "name": "E2",
                    "midi": 40,
                    "time": 14.313693999999998,
                    "velocity": 0.47244094488188976,
                    "duration": 0.19199304166666664
                },
                {
                    "name": "E2",
                    "midi": 40,
                    "time": 14.705849999999998,
                    "velocity": 0.47244094488188976,
                    "duration": 0.19199304166666664
                },
                {
                    "name": "E2",
                    "midi": 40,
                    "time": 15.098005999999998,
                    "velocity": 0.47244094488188976,
                    "duration": 0.19199304166666664
                },
                {
                    "name": "E2",
                    "midi": 40,
                    "time": 15.490161999999998,
                    "velocity": 0.47244094488188976,
                    "duration": 0.19199304166666664
                },
                {
                    "name": "E2",
                    "midi": 40,
                    "time": 15.882317999999998,
                    "velocity": 0.47244094488188976,
                    "duration": 0.19199304166666664
                },
                {
                    "name": "E2",
                    "midi": 40,
                    "time": 16.274473999999998,
                    "velocity": 0.47244094488188976,
                    "duration": 0.19199304166666664
                },
                {
                    "name": "E2",
                    "midi": 40,
                    "time": 16.666629999999998,
                    "velocity": 0.47244094488188976,
                    "duration": 0.19199304166666664
                },
                {
                    "name": "E2",
                    "midi": 40,
                    "time": 17.058785999999998,
                    "velocity": 0.47244094488188976,
                    "duration": 0.19199304166666664
                },
                {
                    "name": "E2",
                    "midi": 40,
                    "time": 17.450941999999998,
                    "velocity": 0.47244094488188976,
                    "duration": 0.19199304166666664
                },
                {
                    "name": "E2",
                    "midi": 40,
                    "time": 17.843097999999998,
                    "velocity": 0.47244094488188976,
                    "duration": 0.19199304166666664
                },
                {
                    "name": "E2",
                    "midi": 40,
                    "time": 18.235253999999998,
                    "velocity": 0.47244094488188976,
                    "duration": 0.19199304166666664
                },
                {
                    "name": "E2",
                    "midi": 40,
                    "time": 18.627409999999998,
                    "velocity": 0.47244094488188976,
                    "duration": 0.19199304166666664
                },
                {
                    "name": "E2",
                    "midi": 40,
                    "time": 18.823487999999998,
                    "velocity": 0.47244094488188976,
                    "duration": 0.19199304166666664
                },
                {
                    "name": "E2",
                    "midi": 40,
                    "time": 19.803877999999997,
                    "velocity": 0.47244094488188976,
                    "duration": 0.19199304166666664
                },
                {
                    "name": "E2",
                    "midi": 40,
                    "time": 20.196033999999997,
                    "velocity": 0.47244094488188976,
                    "duration": 0.19199304166666664
                },
                {
                    "name": "E2",
                    "midi": 40,
                    "time": 20.588189999999997,
                    "velocity": 0.47244094488188976,
                    "duration": 0.19199304166666664
                },
                {
                    "name": "E2",
                    "midi": 40,
                    "time": 20.980345999999997,
                    "velocity": 0.47244094488188976,
                    "duration": 0.19199304166666664
                },
                {
                    "name": "E2",
                    "midi": 40,
                    "time": 21.372501999999997,
                    "velocity": 0.47244094488188976,
                    "duration": 0.19199304166666664
                },
                {
                    "name": "E2",
                    "midi": 40,
                    "time": 21.764657999999997,
                    "velocity": 0.47244094488188976,
                    "duration": 0.19199304166666664
                },
                {
                    "name": "E2",
                    "midi": 40,
                    "time": 22.156813999999997,
                    "velocity": 0.47244094488188976,
                    "duration": 0.19199304166666664
                },
                {
                    "name": "E2",
                    "midi": 40,
                    "time": 22.548969999999997,
                    "velocity": 0.47244094488188976,
                    "duration": 0.19199304166666664
                },
                {
                    "name": "E2",
                    "midi": 40,
                    "time": 22.941125999999997,
                    "velocity": 0.47244094488188976,
                    "duration": 0.19199304166666664
                },
                {
                    "name": "E2",
                    "midi": 40,
                    "time": 23.333281999999997,
                    "velocity": 0.47244094488188976,
                    "duration": 0.19199304166666664
                },
                {
                    "name": "E2",
                    "midi": 40,
                    "time": 23.725437999999997,
                    "velocity": 0.47244094488188976,
                    "duration": 0.19199304166666664
                },
                {
                    "name": "E2",
                    "midi": 40,
                    "time": 24.117593999999997,
                    "velocity": 0.47244094488188976,
                    "duration": 0.19199304166666664
                },
                {
                    "name": "E2",
                    "midi": 40,
                    "time": 24.509749999999997,
                    "velocity": 0.47244094488188976,
                    "duration": 0.19199304166666664
                },
                {
                    "name": "E2",
                    "midi": 40,
                    "time": 24.901905999999997,
                    "velocity": 0.47244094488188976,
                    "duration": 0.19199304166666664
                },
                {
                    "name": "E2",
                    "midi": 40,
                    "time": 25.294061999999997,
                    "velocity": 0.47244094488188976,
                    "duration": 0.19199304166666664
                },
                {
                    "name": "E2",
                    "midi": 40,
                    "time": 25.686217999999997,
                    "velocity": 0.47244094488188976,
                    "duration": 0.19199304166666664
                },
                {
                    "name": "E2",
                    "midi": 40,
                    "time": 26.078373999999997,
                    "velocity": 0.47244094488188976,
                    "duration": 0.19199304166666664
                },
                {
                    "name": "E2",
                    "midi": 40,
                    "time": 26.470529999999997,
                    "velocity": 0.47244094488188976,
                    "duration": 0.19199304166666664
                },
                {
                    "name": "E2",
                    "midi": 40,
                    "time": 26.862685999999997,
                    "velocity": 0.47244094488188976,
                    "duration": 0.19199304166666664
                },
                {
                    "name": "E2",
                    "midi": 40,
                    "time": 27.254841999999996,
                    "velocity": 0.47244094488188976,
                    "duration": 0.19199304166666664
                },
                {
                    "name": "E2",
                    "midi": 40,
                    "time": 27.646997999999996,
                    "velocity": 0.47244094488188976,
                    "duration": 0.19199304166666664
                },
                {
                    "name": "E2",
                    "midi": 40,
                    "time": 28.039153999999996,
                    "velocity": 0.47244094488188976,
                    "duration": 0.19199304166666664
                },
                {
                    "name": "E2",
                    "midi": 40,
                    "time": 28.431309999999996,
                    "velocity": 0.47244094488188976,
                    "duration": 0.19199304166666664
                },
                {
                    "name": "E2",
                    "midi": 40,
                    "time": 28.823465999999996,
                    "velocity": 0.47244094488188976,
                    "duration": 0.19199304166666664
                },
                {
                    "name": "E2",
                    "midi": 40,
                    "time": 29.215621999999996,
                    "velocity": 0.47244094488188976,
                    "duration": 0.19199304166666664
                },
                {
                    "name": "E2",
                    "midi": 40,
                    "time": 29.607777999999996,
                    "velocity": 0.47244094488188976,
                    "duration": 0.19199304166666664
                },
                {
                    "name": "E2",
                    "midi": 40,
                    "time": 29.999933999999996,
                    "velocity": 0.47244094488188976,
                    "duration": 0.19199304166666664
                },
                {
                    "name": "E2",
                    "midi": 40,
                    "time": 30.392089999999996,
                    "velocity": 0.47244094488188976,
                    "duration": 0.19199304166666664
                },
                {
                    "name": "E2",
                    "midi": 40,
                    "time": 30.784245999999996,
                    "velocity": 0.47244094488188976,
                    "duration": 0.19199304166666664
                },
                {
                    "name": "E2",
                    "midi": 40,
                    "time": 31.176401999999996,
                    "velocity": 0.47244094488188976,
                    "duration": 0.19199304166666664
                },
                {
                    "name": "E2",
                    "midi": 40,
                    "time": 31.568557999999996,
                    "velocity": 0.47244094488188976,
                    "duration": 0.19199304166666664
                },
                {
                    "name": "E2",
                    "midi": 40,
                    "time": 31.960713999999996,
                    "velocity": 0.47244094488188976,
                    "duration": 0.1919930416666702
                },
                {
                    "name": "E2",
                    "midi": 40,
                    "time": 32.352869999999996,
                    "velocity": 0.47244094488188976,
                    "duration": 0.1919930416666702
                },
                {
                    "name": "E2",
                    "midi": 40,
                    "time": 32.745025999999996,
                    "velocity": 0.47244094488188976,
                    "duration": 0.1919930416666702
                },
                {
                    "name": "E2",
                    "midi": 40,
                    "time": 33.137181999999996,
                    "velocity": 0.47244094488188976,
                    "duration": 0.1919930416666702
                },
                {
                    "name": "E2",
                    "midi": 40,
                    "time": 33.529337999999996,
                    "velocity": 0.47244094488188976,
                    "duration": 0.1919930416666702
                },
                {
                    "name": "E2",
                    "midi": 40,
                    "time": 33.921493999999996,
                    "velocity": 0.47244094488188976,
                    "duration": 0.1919930416666702
                },
                {
                    "name": "E2",
                    "midi": 40,
                    "time": 34.313649999999996,
                    "velocity": 0.47244094488188976,
                    "duration": 0.1919930416666702
                },
                {
                    "name": "E2",
                    "midi": 40,
                    "time": 34.705805999999995,
                    "velocity": 0.47244094488188976,
                    "duration": 0.1919930416666702
                },
                {
                    "name": "E2",
                    "midi": 40,
                    "time": 35.097961999999995,
                    "velocity": 0.47244094488188976,
                    "duration": 0.1919930416666702
                },
                {
                    "name": "E2",
                    "midi": 40,
                    "time": 35.490117999999995,
                    "velocity": 0.47244094488188976,
                    "duration": 0.1919930416666702
                },
                {
                    "name": "E2",
                    "midi": 40,
                    "time": 35.882273999999995,
                    "velocity": 0.47244094488188976,
                    "duration": 0.1919930416666702
                },
                {
                    "name": "E2",
                    "midi": 40,
                    "time": 36.078351999999995,
                    "velocity": 0.47244094488188976,
                    "duration": 0.1919930416666702
                },
                {
                    "name": "E2",
                    "midi": 40,
                    "time": 37.646976,
                    "velocity": 0.47244094488188976,
                    "duration": 0.1919930416666702
                },
                {
                    "name": "E2",
                    "midi": 40,
                    "time": 38.03913200000001,
                    "velocity": 0.47244094488188976,
                    "duration": 0.1919930416666702
                },
                {
                    "name": "E2",
                    "midi": 40,
                    "time": 38.43128800000001,
                    "velocity": 0.47244094488188976,
                    "duration": 0.1919930416666702
                },
                {
                    "name": "E2",
                    "midi": 40,
                    "time": 38.82344400000001,
                    "velocity": 0.47244094488188976,
                    "duration": 0.1919930416666702
                },
                {
                    "name": "E2",
                    "midi": 40,
                    "time": 39.21560000000001,
                    "velocity": 0.47244094488188976,
                    "duration": 0.1919930416666702
                },
                {
                    "name": "E2",
                    "midi": 40,
                    "time": 40.784224000000016,
                    "velocity": 0.47244094488188976,
                    "duration": 0.1919930416666702
                },
                {
                    "name": "E2",
                    "midi": 40,
                    "time": 41.17638000000002,
                    "velocity": 0.47244094488188976,
                    "duration": 0.1919930416666702
                },
                {
                    "name": "E2",
                    "midi": 40,
                    "time": 41.56853600000002,
                    "velocity": 0.47244094488188976,
                    "duration": 0.1919930416666702
                },
                {
                    "name": "E2",
                    "midi": 40,
                    "time": 41.96069200000002,
                    "velocity": 0.47244094488188976,
                    "duration": 0.1919930416666702
                },
                {
                    "name": "E2",
                    "midi": 40,
                    "time": 42.35284800000002,
                    "velocity": 0.47244094488188976,
                    "duration": 0.1919930416666702
                },
                {
                    "name": "E2",
                    "midi": 40,
                    "time": 42.74500400000002,
                    "velocity": 0.47244094488188976,
                    "duration": 0.1919930416666702
                },
                {
                    "name": "E2",
                    "midi": 40,
                    "time": 43.13716000000002,
                    "velocity": 0.47244094488188976,
                    "duration": 0.1919930416666702
                },
                {
                    "name": "E2",
                    "midi": 40,
                    "time": 43.52931600000002,
                    "velocity": 0.47244094488188976,
                    "duration": 0.1919930416666702
                },
                {
                    "name": "E2",
                    "midi": 40,
                    "time": 43.92147200000002,
                    "velocity": 0.47244094488188976,
                    "duration": 0.1919930416666702
                },
                {
                    "name": "E2",
                    "midi": 40,
                    "time": 44.31362800000002,
                    "velocity": 0.47244094488188976,
                    "duration": 0.1919930416666702
                },
                {
                    "name": "E2",
                    "midi": 40,
                    "time": 44.70578400000002,
                    "velocity": 0.47244094488188976,
                    "duration": 0.1919930416666702
                },
                {
                    "name": "E2",
                    "midi": 40,
                    "time": 45.09794000000002,
                    "velocity": 0.47244094488188976,
                    "duration": 0.1919930416666702
                },
                {
                    "name": "E2",
                    "midi": 40,
                    "time": 45.49009600000002,
                    "velocity": 0.47244094488188976,
                    "duration": 0.1919930416666702
                },
                {
                    "name": "E2",
                    "midi": 40,
                    "time": 46.47048600000002,
                    "velocity": 0.47244094488188976,
                    "duration": 0.1919930416666702
                },
                {
                    "name": "E2",
                    "midi": 40,
                    "time": 46.86264200000002,
                    "velocity": 0.47244094488188976,
                    "duration": 0.1919930416666702
                },
                {
                    "name": "E2",
                    "midi": 40,
                    "time": 47.25479800000002,
                    "velocity": 0.47244094488188976,
                    "duration": 0.1919930416666702
                },
                {
                    "name": "E2",
                    "midi": 40,
                    "time": 47.64695400000002,
                    "velocity": 0.47244094488188976,
                    "duration": 0.1919930416666702
                },
                {
                    "name": "E2",
                    "midi": 40,
                    "time": 48.03911000000002,
                    "velocity": 0.47244094488188976,
                    "duration": 0.1919930416666702
                },
                {
                    "name": "E2",
                    "midi": 40,
                    "time": 48.43126600000002,
                    "velocity": 0.47244094488188976,
                    "duration": 0.1919930416666702
                },
                {
                    "name": "E2",
                    "midi": 40,
                    "time": 48.82342200000002,
                    "velocity": 0.47244094488188976,
                    "duration": 0.1919930416666702
                },
                {
                    "name": "E2",
                    "midi": 40,
                    "time": 49.21557800000002,
                    "velocity": 0.47244094488188976,
                    "duration": 0.1919930416666702
                },
                {
                    "name": "E2",
                    "midi": 40,
                    "time": 49.60773400000002,
                    "velocity": 0.47244094488188976,
                    "duration": 0.1919930416666702
                },
                {
                    "name": "E2",
                    "midi": 40,
                    "time": 49.99989000000002,
                    "velocity": 0.47244094488188976,
                    "duration": 0.1919930416666702
                },
                {
                    "name": "E2",
                    "midi": 40,
                    "time": 50.39204600000002,
                    "velocity": 0.47244094488188976,
                    "duration": 0.1919930416666702
                },
                {
                    "name": "E2",
                    "midi": 40,
                    "time": 50.78420200000002,
                    "velocity": 0.47244094488188976,
                    "duration": 0.1919930416666702
                },
                {
                    "name": "E2",
                    "midi": 40,
                    "time": 51.17635800000002,
                    "velocity": 0.47244094488188976,
                    "duration": 0.1919930416666702
                },
                {
                    "name": "E2",
                    "midi": 40,
                    "time": 51.56851400000002,
                    "velocity": 0.47244094488188976,
                    "duration": 0.1919930416666702
                },
                {
                    "name": "E2",
                    "midi": 40,
                    "time": 51.96067000000002,
                    "velocity": 0.47244094488188976,
                    "duration": 0.1919930416666702
                },
                {
                    "name": "E2",
                    "midi": 40,
                    "time": 52.35282600000002,
                    "velocity": 0.47244094488188976,
                    "duration": 0.1919930416666702
                },
                {
                    "name": "E2",
                    "midi": 40,
                    "time": 52.74498200000002,
                    "velocity": 0.47244094488188976,
                    "duration": 0.1919930416666702
                },
                {
                    "name": "E2",
                    "midi": 40,
                    "time": 53.13713800000002,
                    "velocity": 0.47244094488188976,
                    "duration": 0.1919930416666702
                },
                {
                    "name": "E2",
                    "midi": 40,
                    "time": 53.52929400000002,
                    "velocity": 0.47244094488188976,
                    "duration": 0.1919930416666702
                },
                {
                    "name": "E2",
                    "midi": 40,
                    "time": 53.92145000000002,
                    "velocity": 0.47244094488188976,
                    "duration": 0.1919930416666702
                },
                {
                    "name": "E2",
                    "midi": 40,
                    "time": 54.31360600000002,
                    "velocity": 0.47244094488188976,
                    "duration": 0.1919930416666702
                },
                {
                    "name": "E2",
                    "midi": 40,
                    "time": 54.70576200000002,
                    "velocity": 0.47244094488188976,
                    "duration": 0.1919930416666702
                },
                {
                    "name": "E2",
                    "midi": 40,
                    "time": 55.09791800000002,
                    "velocity": 0.47244094488188976,
                    "duration": 0.1919930416666702
                },
                {
                    "name": "E2",
                    "midi": 40,
                    "time": 55.49007400000002,
                    "velocity": 0.47244094488188976,
                    "duration": 0.1919930416666702
                },
                {
                    "name": "E2",
                    "midi": 40,
                    "time": 55.88223000000002,
                    "velocity": 0.47244094488188976,
                    "duration": 0.1919930416666702
                },
                {
                    "name": "E2",
                    "midi": 40,
                    "time": 56.27438600000002,
                    "velocity": 0.47244094488188976,
                    "duration": 0.1919930416666702
                },
                {
                    "name": "E2",
                    "midi": 40,
                    "time": 56.66654200000002,
                    "velocity": 0.47244094488188976,
                    "duration": 0.1919930416666702
                },
                {
                    "name": "E2",
                    "midi": 40,
                    "time": 57.05869800000002,
                    "velocity": 0.47244094488188976,
                    "duration": 0.1919930416666702
                },
                {
                    "name": "E2",
                    "midi": 40,
                    "time": 57.45085400000002,
                    "velocity": 0.47244094488188976,
                    "duration": 0.1919930416666702
                },
                {
                    "name": "E2",
                    "midi": 40,
                    "time": 57.84301000000002,
                    "velocity": 0.47244094488188976,
                    "duration": 0.1919930416666702
                },
                {
                    "name": "E2",
                    "midi": 40,
                    "time": 58.23516600000002,
                    "velocity": 0.47244094488188976,
                    "duration": 0.1919930416666702
                },
                {
                    "name": "E2",
                    "midi": 40,
                    "time": 58.62732200000002,
                    "velocity": 0.47244094488188976,
                    "duration": 0.1919930416666702
                },
                {
                    "name": "E2",
                    "midi": 40,
                    "time": 59.01947800000002,
                    "velocity": 0.47244094488188976,
                    "duration": 0.1919930416666702
                },
                {
                    "name": "E2",
                    "midi": 40,
                    "time": 59.41163400000002,
                    "velocity": 0.47244094488188976,
                    "duration": 0.1919930416666702
                },
                {
                    "name": "E2",
                    "midi": 40,
                    "time": 59.80379000000002,
                    "velocity": 0.47244094488188976,
                    "duration": 0.1919930416666702
                },
                {
                    "name": "E2",
                    "midi": 40,
                    "time": 60.19594600000002,
                    "velocity": 0.47244094488188976,
                    "duration": 0.1919930416666702
                },
                {
                    "name": "E2",
                    "midi": 40,
                    "time": 60.58810200000002,
                    "velocity": 0.47244094488188976,
                    "duration": 0.1919930416666702
                },
                {
                    "name": "E2",
                    "midi": 40,
                    "time": 60.98025800000002,
                    "velocity": 0.47244094488188976,
                    "duration": 0.1919930416666702
                },
                {
                    "name": "E2",
                    "midi": 40,
                    "time": 61.37241400000002,
                    "velocity": 0.47244094488188976,
                    "duration": 0.1919930416666702
                },
                {
                    "name": "E2",
                    "midi": 40,
                    "time": 61.76457000000002,
                    "velocity": 0.47244094488188976,
                    "duration": 0.1919930416666702
                },
                {
                    "name": "E2",
                    "midi": 40,
                    "time": 62.15672600000002,
                    "velocity": 0.47244094488188976,
                    "duration": 0.1919930416666702
                },
                {
                    "name": "E2",
                    "midi": 40,
                    "time": 62.54888200000002,
                    "velocity": 0.47244094488188976,
                    "duration": 0.1919930416666702
                },
                {
                    "name": "E2",
                    "midi": 40,
                    "time": 62.94103800000002,
                    "velocity": 0.47244094488188976,
                    "duration": 0.1919930416666702
                },
                {
                    "name": "E2",
                    "midi": 40,
                    "time": 63.33319400000002,
                    "velocity": 0.47244094488188976,
                    "duration": 0.1919930416666702
                },
                {
                    "name": "E2",
                    "midi": 40,
                    "time": 63.72535000000002,
                    "velocity": 0.47244094488188976,
                    "duration": 0.1919930416666702
                },
                {
                    "name": "E2",
                    "midi": 40,
                    "time": 64.11750600000002,
                    "velocity": 0.47244094488188976,
                    "duration": 0.1919930416666631
                },
                {
                    "name": "E2",
                    "midi": 40,
                    "time": 64.50966200000002,
                    "velocity": 0.47244094488188976,
                    "duration": 0.1919930416666631
                },
                {
                    "name": "E2",
                    "midi": 40,
                    "time": 64.90181800000002,
                    "velocity": 0.47244094488188976,
                    "duration": 0.1919930416666631
                },
                {
                    "name": "E2",
                    "midi": 40,
                    "time": 65.29397400000002,
                    "velocity": 0.47244094488188976,
                    "duration": 0.1919930416666631
                },
                {
                    "name": "E2",
                    "midi": 40,
                    "time": 65.68613000000002,
                    "velocity": 0.47244094488188976,
                    "duration": 0.1919930416666631
                },
                {
                    "name": "E2",
                    "midi": 40,
                    "time": 66.07828600000002,
                    "velocity": 0.47244094488188976,
                    "duration": 0.1919930416666631
                },
                {
                    "name": "E2",
                    "midi": 40,
                    "time": 66.47044200000002,
                    "velocity": 0.47244094488188976,
                    "duration": 0.1919930416666631
                },
                {
                    "name": "E2",
                    "midi": 40,
                    "time": 66.86259800000002,
                    "velocity": 0.47244094488188976,
                    "duration": 0.1919930416666631
                },
                {
                    "name": "E2",
                    "midi": 40,
                    "time": 67.25475400000002,
                    "velocity": 0.47244094488188976,
                    "duration": 0.1919930416666631
                },
                {
                    "name": "E2",
                    "midi": 40,
                    "time": 67.64691000000002,
                    "velocity": 0.47244094488188976,
                    "duration": 0.1919930416666631
                },
                {
                    "name": "E2",
                    "midi": 40,
                    "time": 68.03906600000002,
                    "velocity": 0.47244094488188976,
                    "duration": 0.1919930416666631
                },
                {
                    "name": "E2",
                    "midi": 40,
                    "time": 68.43122200000002,
                    "velocity": 0.47244094488188976,
                    "duration": 0.1919930416666631
                },
                {
                    "name": "E2",
                    "midi": 40,
                    "time": 68.82337800000002,
                    "velocity": 0.47244094488188976,
                    "duration": 0.1919930416666631
                },
                {
                    "name": "E2",
                    "midi": 40,
                    "time": 69.21553400000002,
                    "velocity": 0.47244094488188976,
                    "duration": 0.1919930416666631
                },
                {
                    "name": "E2",
                    "midi": 40,
                    "time": 69.60769000000002,
                    "velocity": 0.47244094488188976,
                    "duration": 0.1919930416666631
                },
                {
                    "name": "E2",
                    "midi": 40,
                    "time": 69.99984600000002,
                    "velocity": 0.47244094488188976,
                    "duration": 0.1919930416666631
                },
                {
                    "name": "E2",
                    "midi": 40,
                    "time": 70.39200200000002,
                    "velocity": 0.47244094488188976,
                    "duration": 0.1919930416666631
                },
                {
                    "name": "E2",
                    "midi": 40,
                    "time": 70.58808000000002,
                    "velocity": 0.47244094488188976,
                    "duration": 0.1919930416666631
                },
                {
                    "name": "E2",
                    "midi": 40,
                    "time": 70.78415800000002,
                    "velocity": 0.47244094488188976,
                    "duration": 0.1919930416666631
                },
                {
                    "name": "E2",
                    "midi": 40,
                    "time": 72.15670400000002,
                    "velocity": 0.47244094488188976,
                    "duration": 0.1919930416666631
                },
                {
                    "name": "E2",
                    "midi": 40,
                    "time": 73.72532800000002,
                    "velocity": 0.47244094488188976,
                    "duration": 0.1919930416666631
                },
                {
                    "name": "E2",
                    "midi": 40,
                    "time": 75.29395200000002,
                    "velocity": 0.47244094488188976,
                    "duration": 0.1919930416666631
                },
                {
                    "name": "E2",
                    "midi": 40,
                    "time": 77.84296600000002,
                    "velocity": 0.3543307086614173,
                    "duration": 0.1919930416666631
                },
                {
                    "name": "E2",
                    "midi": 40,
                    "time": 78.23512200000002,
                    "velocity": 0.3543307086614173,
                    "duration": 0.1919930416666631
                },
                {
                    "name": "E2",
                    "midi": 40,
                    "time": 78.62727800000002,
                    "velocity": 0.3543307086614173,
                    "duration": 0.1919930416666631
                },
                {
                    "name": "E2",
                    "midi": 40,
                    "time": 79.01943400000002,
                    "velocity": 0.3543307086614173,
                    "duration": 0.1919930416666631
                },
                {
                    "name": "E2",
                    "midi": 40,
                    "time": 79.41159000000002,
                    "velocity": 0.3543307086614173,
                    "duration": 0.1919930416666631
                },
                {
                    "name": "E2",
                    "midi": 40,
                    "time": 79.80374600000002,
                    "velocity": 0.3543307086614173,
                    "duration": 0.1919930416666631
                },
                {
                    "name": "E2",
                    "midi": 40,
                    "time": 80.19590200000002,
                    "velocity": 0.3543307086614173,
                    "duration": 0.1919930416666631
                },
                {
                    "name": "E2",
                    "midi": 40,
                    "time": 80.58805800000002,
                    "velocity": 0.3543307086614173,
                    "duration": 0.1919930416666631
                },
                {
                    "name": "E2",
                    "midi": 40,
                    "time": 80.98021400000002,
                    "velocity": 0.3543307086614173,
                    "duration": 0.1919930416666631
                },
                {
                    "name": "E2",
                    "midi": 40,
                    "time": 81.37237000000002,
                    "velocity": 0.3543307086614173,
                    "duration": 0.1919930416666631
                },
                {
                    "name": "E2",
                    "midi": 40,
                    "time": 81.76452600000002,
                    "velocity": 0.3543307086614173,
                    "duration": 0.1919930416666631
                },
                {
                    "name": "E2",
                    "midi": 40,
                    "time": 82.15668200000002,
                    "velocity": 0.3543307086614173,
                    "duration": 0.1919930416666631
                },
                {
                    "name": "E2",
                    "midi": 40,
                    "time": 82.54883800000002,
                    "velocity": 0.3543307086614173,
                    "duration": 0.1919930416666631
                },
                {
                    "name": "E2",
                    "midi": 40,
                    "time": 82.94099400000002,
                    "velocity": 0.3543307086614173,
                    "duration": 0.1919930416666631
                },
                {
                    "name": "E2",
                    "midi": 40,
                    "time": 83.33315000000002,
                    "velocity": 0.3543307086614173,
                    "duration": 0.1919930416666631
                },
                {
                    "name": "E2",
                    "midi": 40,
                    "time": 83.72530600000002,
                    "velocity": 0.3543307086614173,
                    "duration": 0.1919930416666631
                },
                {
                    "name": "E2",
                    "midi": 40,
                    "time": 84.11746200000002,
                    "velocity": 0.3543307086614173,
                    "duration": 0.1919930416666631
                },
                {
                    "name": "E2",
                    "midi": 40,
                    "time": 84.50961800000002,
                    "velocity": 0.3543307086614173,
                    "duration": 0.1919930416666631
                },
                {
                    "name": "E2",
                    "midi": 40,
                    "time": 84.90177400000002,
                    "velocity": 0.3543307086614173,
                    "duration": 0.1919930416666631
                },
                {
                    "name": "E2",
                    "midi": 40,
                    "time": 85.29393000000002,
                    "velocity": 0.3543307086614173,
                    "duration": 0.1919930416666631
                },
                {
                    "name": "E2",
                    "midi": 40,
                    "time": 85.68608600000002,
                    "velocity": 0.3543307086614173,
                    "duration": 0.1919930416666631
                },
                {
                    "name": "E2",
                    "midi": 40,
                    "time": 86.07824200000002,
                    "velocity": 0.3543307086614173,
                    "duration": 0.1919930416666631
                },
                {
                    "name": "E2",
                    "midi": 40,
                    "time": 86.47039800000002,
                    "velocity": 0.3543307086614173,
                    "duration": 0.1919930416666631
                },
                {
                    "name": "E2",
                    "midi": 40,
                    "time": 86.86255400000002,
                    "velocity": 0.3543307086614173,
                    "duration": 0.1919930416666631
                },
                {
                    "name": "E2",
                    "midi": 40,
                    "time": 87.25471000000002,
                    "velocity": 0.3543307086614173,
                    "duration": 0.1919930416666631
                },
                {
                    "name": "E2",
                    "midi": 40,
                    "time": 87.64686600000002,
                    "velocity": 0.3543307086614173,
                    "duration": 0.1919930416666631
                },
                {
                    "name": "E2",
                    "midi": 40,
                    "time": 88.03902200000002,
                    "velocity": 0.3543307086614173,
                    "duration": 0.1919930416666631
                },
                {
                    "name": "E2",
                    "midi": 40,
                    "time": 88.43117800000002,
                    "velocity": 0.3543307086614173,
                    "duration": 0.1919930416666631
                },
                {
                    "name": "E2",
                    "midi": 40,
                    "time": 88.82333400000002,
                    "velocity": 0.3543307086614173,
                    "duration": 0.1919930416666631
                },
                {
                    "name": "E2",
                    "midi": 40,
                    "time": 89.21549000000002,
                    "velocity": 0.3543307086614173,
                    "duration": 0.1919930416666631
                },
                {
                    "name": "E2",
                    "midi": 40,
                    "time": 89.60764600000002,
                    "velocity": 0.3543307086614173,
                    "duration": 0.1919930416666631
                },
                {
                    "name": "E2",
                    "midi": 40,
                    "time": 89.99980200000002,
                    "velocity": 0.3543307086614173,
                    "duration": 0.1919930416666631
                },
                {
                    "name": "E2",
                    "midi": 40,
                    "time": 90.39195800000002,
                    "velocity": 0.3543307086614173,
                    "duration": 0.1919930416666631
                },
                {
                    "name": "E2",
                    "midi": 40,
                    "time": 90.78411400000002,
                    "velocity": 0.3543307086614173,
                    "duration": 0.1919930416666631
                },
                {
                    "name": "E2",
                    "midi": 40,
                    "time": 91.17627000000002,
                    "velocity": 0.3543307086614173,
                    "duration": 0.1919930416666631
                },
                {
                    "name": "E2",
                    "midi": 40,
                    "time": 91.56842600000002,
                    "velocity": 0.3543307086614173,
                    "duration": 0.1919930416666631
                },
                {
                    "name": "E2",
                    "midi": 40,
                    "time": 91.96058200000002,
                    "velocity": 0.3543307086614173,
                    "duration": 0.1919930416666631
                },
                {
                    "name": "E2",
                    "midi": 40,
                    "time": 92.35273800000002,
                    "velocity": 0.3543307086614173,
                    "duration": 0.1919930416666631
                },
                {
                    "name": "E2",
                    "midi": 40,
                    "time": 92.74489400000002,
                    "velocity": 0.3543307086614173,
                    "duration": 0.1919930416666631
                },
                {
                    "name": "E2",
                    "midi": 40,
                    "time": 93.13705000000002,
                    "velocity": 0.3543307086614173,
                    "duration": 0.1919930416666631
                },
                {
                    "name": "E2",
                    "midi": 40,
                    "time": 93.52920600000002,
                    "velocity": 0.3543307086614173,
                    "duration": 0.1919930416666631
                },
                {
                    "name": "E2",
                    "midi": 40,
                    "time": 93.92136200000002,
                    "velocity": 0.3543307086614173,
                    "duration": 0.1919930416666631
                },
                {
                    "name": "E2",
                    "midi": 40,
                    "time": 94.31351800000002,
                    "velocity": 0.3543307086614173,
                    "duration": 0.1919930416666631
                },
                {
                    "name": "E2",
                    "midi": 40,
                    "time": 94.70567400000002,
                    "velocity": 0.3543307086614173,
                    "duration": 0.1919930416666631
                },
                {
                    "name": "E2",
                    "midi": 40,
                    "time": 95.09783000000002,
                    "velocity": 0.3543307086614173,
                    "duration": 0.1919930416666631
                },
                {
                    "name": "E2",
                    "midi": 40,
                    "time": 95.48998600000002,
                    "velocity": 0.3543307086614173,
                    "duration": 0.1919930416666631
                },
                {
                    "name": "E2",
                    "midi": 40,
                    "time": 95.88214200000002,
                    "velocity": 0.47244094488188976,
                    "duration": 0.1919930416666631
                },
                {
                    "name": "E2",
                    "midi": 40,
                    "time": 96.27429800000002,
                    "velocity": 0.47244094488188976,
                    "duration": 0.1919930416666631
                },
                {
                    "name": "E2",
                    "midi": 40,
                    "time": 96.66645400000002,
                    "velocity": 0.47244094488188976,
                    "duration": 0.1919930416666631
                },
                {
                    "name": "E2",
                    "midi": 40,
                    "time": 97.05861000000002,
                    "velocity": 0.6614173228346457,
                    "duration": 0.38807104166666306
                },
                {
                    "name": "E2",
                    "midi": 40,
                    "time": 97.45076600000002,
                    "velocity": 0.47244094488188976,
                    "duration": 0.1919930416666631
                },
                {
                    "name": "E2",
                    "midi": 40,
                    "time": 97.84292200000002,
                    "velocity": 0.47244094488188976,
                    "duration": 0.1919930416666631
                },
                {
                    "name": "E2",
                    "midi": 40,
                    "time": 98.23507800000002,
                    "velocity": 0.47244094488188976,
                    "duration": 0.1919930416666631
                },
                {
                    "name": "E2",
                    "midi": 40,
                    "time": 98.62723400000002,
                    "velocity": 0.47244094488188976,
                    "duration": 0.1919930416666631
                },
                {
                    "name": "E2",
                    "midi": 40,
                    "time": 99.01939000000002,
                    "velocity": 0.47244094488188976,
                    "duration": 0.1919930416666631
                },
                {
                    "name": "E2",
                    "midi": 40,
                    "time": 99.41154600000002,
                    "velocity": 0.47244094488188976,
                    "duration": 0.1919930416666631
                },
                {
                    "name": "E2",
                    "midi": 40,
                    "time": 99.80370200000002,
                    "velocity": 0.47244094488188976,
                    "duration": 0.1919930416666631
                },
                {
                    "name": "E2",
                    "midi": 40,
                    "time": 100.19585800000002,
                    "velocity": 0.6614173228346457,
                    "duration": 0.38807104166666306
                },
                {
                    "name": "E2",
                    "midi": 40,
                    "time": 100.58801400000002,
                    "velocity": 0.47244094488188976,
                    "duration": 0.1919930416666631
                },
                {
                    "name": "E2",
                    "midi": 40,
                    "time": 100.98017000000002,
                    "velocity": 0.47244094488188976,
                    "duration": 0.1919930416666631
                },
                {
                    "name": "E2",
                    "midi": 40,
                    "time": 101.37232600000002,
                    "velocity": 0.47244094488188976,
                    "duration": 0.1919930416666631
                },
                {
                    "name": "E2",
                    "midi": 40,
                    "time": 101.76448200000002,
                    "velocity": 0.47244094488188976,
                    "duration": 0.1919930416666631
                },
                {
                    "name": "E2",
                    "midi": 40,
                    "time": 102.15663800000002,
                    "velocity": 0.47244094488188976,
                    "duration": 0.1919930416666631
                },
                {
                    "name": "E2",
                    "midi": 40,
                    "time": 102.54879400000002,
                    "velocity": 0.47244094488188976,
                    "duration": 0.1919930416666631
                },
                {
                    "name": "E2",
                    "midi": 40,
                    "time": 102.94095000000002,
                    "velocity": 0.47244094488188976,
                    "duration": 0.1919930416666631
                },
                {
                    "name": "E2",
                    "midi": 40,
                    "time": 103.33310600000002,
                    "velocity": 0.47244094488188976,
                    "duration": 0.1919930416666631
                },
                {
                    "name": "E2",
                    "midi": 40,
                    "time": 103.72526200000001,
                    "velocity": 0.47244094488188976,
                    "duration": 0.1919930416666631
                },
                {
                    "name": "E2",
                    "midi": 40,
                    "time": 104.11741800000001,
                    "velocity": 0.47244094488188976,
                    "duration": 0.1919930416666631
                },
                {
                    "name": "E2",
                    "midi": 40,
                    "time": 104.50957400000001,
                    "velocity": 0.47244094488188976,
                    "duration": 0.1919930416666631
                },
                {
                    "name": "E2",
                    "midi": 40,
                    "time": 104.90173000000001,
                    "velocity": 0.47244094488188976,
                    "duration": 0.1919930416666631
                },
                {
                    "name": "E2",
                    "midi": 40,
                    "time": 105.29388600000001,
                    "velocity": 0.47244094488188976,
                    "duration": 0.1919930416666631
                },
                {
                    "name": "E2",
                    "midi": 40,
                    "time": 105.68604200000001,
                    "velocity": 0.47244094488188976,
                    "duration": 0.1919930416666631
                },
                {
                    "name": "E2",
                    "midi": 40,
                    "time": 106.07819800000001,
                    "velocity": 0.47244094488188976,
                    "duration": 0.1919930416666631
                },
                {
                    "name": "E2",
                    "midi": 40,
                    "time": 106.47035400000001,
                    "velocity": 0.47244094488188976,
                    "duration": 0.1919930416666631
                },
                {
                    "name": "E2",
                    "midi": 40,
                    "time": 106.86251000000001,
                    "velocity": 0.47244094488188976,
                    "duration": 0.1919930416666631
                },
                {
                    "name": "E2",
                    "midi": 40,
                    "time": 107.25466600000001,
                    "velocity": 0.47244094488188976,
                    "duration": 0.1919930416666631
                },
                {
                    "name": "E2",
                    "midi": 40,
                    "time": 107.64682200000001,
                    "velocity": 0.47244094488188976,
                    "duration": 0.1919930416666631
                },
                {
                    "name": "E2",
                    "midi": 40,
                    "time": 108.03897800000001,
                    "velocity": 0.47244094488188976,
                    "duration": 0.1919930416666631
                },
                {
                    "name": "E2",
                    "midi": 40,
                    "time": 108.23505600000001,
                    "velocity": 0.47244094488188976,
                    "duration": 0.1919930416666631
                },
                {
                    "name": "E2",
                    "midi": 40,
                    "time": 109.01936800000001,
                    "velocity": 0.3543307086614173,
                    "duration": 0.1919930416666631
                },
                {
                    "name": "E2",
                    "midi": 40,
                    "time": 109.41152400000001,
                    "velocity": 0.3543307086614173,
                    "duration": 0.1919930416666631
                },
                {
                    "name": "E2",
                    "midi": 40,
                    "time": 109.80368000000001,
                    "velocity": 0.3543307086614173,
                    "duration": 0.1919930416666631
                },
                {
                    "name": "E2",
                    "midi": 40,
                    "time": 110.58799200000001,
                    "velocity": 0.3543307086614173,
                    "duration": 0.1919930416666631
                },
                {
                    "name": "E2",
                    "midi": 40,
                    "time": 111.37230400000001,
                    "velocity": 0.3543307086614173,
                    "duration": 0.1919930416666631
                },
                {
                    "name": "E2",
                    "midi": 40,
                    "time": 112.15661600000001,
                    "velocity": 0.3543307086614173,
                    "duration": 0.1919930416666631
                },
                {
                    "name": "E2",
                    "midi": 40,
                    "time": 112.54877200000001,
                    "velocity": 0.3543307086614173,
                    "duration": 0.1919930416666631
                },
                {
                    "name": "E2",
                    "midi": 40,
                    "time": 112.94092800000001,
                    "velocity": 0.3543307086614173,
                    "duration": 0.1919930416666631
                },
                {
                    "name": "E2",
                    "midi": 40,
                    "time": 113.72524000000001,
                    "velocity": 0.3543307086614173,
                    "duration": 0.1919930416666631
                },
                {
                    "name": "E2",
                    "midi": 40,
                    "time": 114.70563000000001,
                    "velocity": 0.3543307086614173,
                    "duration": 0.1919930416666631
                },
                {
                    "name": "E2",
                    "midi": 40,
                    "time": 115.09778600000001,
                    "velocity": 0.3543307086614173,
                    "duration": 0.1919930416666631
                },
                {
                    "name": "E2",
                    "midi": 40,
                    "time": 115.48994200000001,
                    "velocity": 0.3543307086614173,
                    "duration": 0.1919930416666631
                },
                {
                    "name": "E2",
                    "midi": 40,
                    "time": 115.88209800000001,
                    "velocity": 0.3543307086614173,
                    "duration": 0.1919930416666631
                },
                {
                    "name": "E2",
                    "midi": 40,
                    "time": 116.27425400000001,
                    "velocity": 0.3543307086614173,
                    "duration": 0.1919930416666631
                },
                {
                    "name": "E2",
                    "midi": 40,
                    "time": 116.66641000000001,
                    "velocity": 0.3543307086614173,
                    "duration": 0.1919930416666631
                },
                {
                    "name": "E2",
                    "midi": 40,
                    "time": 117.05856600000001,
                    "velocity": 0.3543307086614173,
                    "duration": 0.1919930416666631
                },
                {
                    "name": "E2",
                    "midi": 40,
                    "time": 117.45072200000001,
                    "velocity": 0.3543307086614173,
                    "duration": 0.1919930416666631
                },
                {
                    "name": "E2",
                    "midi": 40,
                    "time": 117.64680000000001,
                    "velocity": 0.3543307086614173,
                    "duration": 0.1919930416666631
                },
                {
                    "name": "E2",
                    "midi": 40,
                    "time": 118.43111200000001,
                    "velocity": 0.3543307086614173,
                    "duration": 0.1919930416666631
                },
                {
                    "name": "E2",
                    "midi": 40,
                    "time": 119.21542400000001,
                    "velocity": 0.3543307086614173,
                    "duration": 0.1919930416666631
                },
                {
                    "name": "E2",
                    "midi": 40,
                    "time": 119.99973600000001,
                    "velocity": 0.3543307086614173,
                    "duration": 0.1919930416666631
                },
                {
                    "name": "E2",
                    "midi": 40,
                    "time": 120.78404800000001,
                    "velocity": 0.3543307086614173,
                    "duration": 0.1919930416666631
                },
                {
                    "name": "E2",
                    "midi": 40,
                    "time": 121.17620400000001,
                    "velocity": 0.3543307086614173,
                    "duration": 0.1919930416666631
                },
                {
                    "name": "E2",
                    "midi": 40,
                    "time": 121.76443800000001,
                    "velocity": 0.3543307086614173,
                    "duration": 0.1919930416666631
                },
                {
                    "name": "E2",
                    "midi": 40,
                    "time": 122.15659400000001,
                    "velocity": 0.3543307086614173,
                    "duration": 0.1919930416666631
                },
                {
                    "name": "E2",
                    "midi": 40,
                    "time": 122.54875000000001,
                    "velocity": 0.3543307086614173,
                    "duration": 0.1919930416666631
                },
                {
                    "name": "E2",
                    "midi": 40,
                    "time": 122.94090600000001,
                    "velocity": 0.3543307086614173,
                    "duration": 0.1919930416666631
                },
                {
                    "name": "E2",
                    "midi": 40,
                    "time": 123.33306200000001,
                    "velocity": 0.3543307086614173,
                    "duration": 0.1919930416666631
                },
                {
                    "name": "E2",
                    "midi": 40,
                    "time": 123.72521800000001,
                    "velocity": 0.3543307086614173,
                    "duration": 0.1919930416666631
                },
                {
                    "name": "E2",
                    "midi": 40,
                    "time": 124.11737400000001,
                    "velocity": 0.3543307086614173,
                    "duration": 0.1919930416666631
                },
                {
                    "name": "E2",
                    "midi": 40,
                    "time": 124.50953000000001,
                    "velocity": 0.3543307086614173,
                    "duration": 0.1919930416666631
                },
                {
                    "name": "E2",
                    "midi": 40,
                    "time": 124.90168600000001,
                    "velocity": 0.3543307086614173,
                    "duration": 0.1919930416666631
                },
                {
                    "name": "E2",
                    "midi": 40,
                    "time": 125.29384200000001,
                    "velocity": 0.3543307086614173,
                    "duration": 0.1919930416666631
                },
                {
                    "name": "E2",
                    "midi": 40,
                    "time": 125.68599800000001,
                    "velocity": 0.3543307086614173,
                    "duration": 0.1919930416666631
                },
                {
                    "name": "E2",
                    "midi": 40,
                    "time": 126.07815400000001,
                    "velocity": 0.3543307086614173,
                    "duration": 0.1919930416666631
                },
                {
                    "name": "E2",
                    "midi": 40,
                    "time": 126.47031000000001,
                    "velocity": 0.3543307086614173,
                    "duration": 0.1919930416666631
                },
                {
                    "name": "E2",
                    "midi": 40,
                    "time": 126.86246600000001,
                    "velocity": 0.3543307086614173,
                    "duration": 0.1919930416666631
                },
                {
                    "name": "E2",
                    "midi": 40,
                    "time": 127.25462200000001,
                    "velocity": 0.3543307086614173,
                    "duration": 0.1919930416666631
                },
                {
                    "name": "E2",
                    "midi": 40,
                    "time": 127.64677800000001,
                    "velocity": 0.3543307086614173,
                    "duration": 0.1919930416666631
                },
                {
                    "name": "E2",
                    "midi": 40,
                    "time": 128.038934,
                    "velocity": 0.3543307086614173,
                    "duration": 0.1919930416666773
                },
                {
                    "name": "E2",
                    "midi": 40,
                    "time": 128.43109,
                    "velocity": 0.3543307086614173,
                    "duration": 0.1919930416666773
                },
                {
                    "name": "E2",
                    "midi": 40,
                    "time": 128.823246,
                    "velocity": 0.3543307086614173,
                    "duration": 0.1919930416666773
                },
                {
                    "name": "E2",
                    "midi": 40,
                    "time": 129.215402,
                    "velocity": 0.3543307086614173,
                    "duration": 0.1919930416666773
                },
                {
                    "name": "E2",
                    "midi": 40,
                    "time": 129.607558,
                    "velocity": 0.3543307086614173,
                    "duration": 0.1919930416666773
                },
                {
                    "name": "E2",
                    "midi": 40,
                    "time": 129.999714,
                    "velocity": 0.3543307086614173,
                    "duration": 0.1919930416666773
                },
                {
                    "name": "E2",
                    "midi": 40,
                    "time": 130.195792,
                    "velocity": 0.3543307086614173,
                    "duration": 0.1919930416666773
                },
                {
                    "name": "E2",
                    "midi": 40,
                    "time": 130.980104,
                    "velocity": 0.3543307086614173,
                    "duration": 0.1919930416666773
                },
                {
                    "name": "E2",
                    "midi": 40,
                    "time": 131.764416,
                    "velocity": 0.3543307086614173,
                    "duration": 0.1919930416666773
                },
                {
                    "name": "E2",
                    "midi": 40,
                    "time": 132.548728,
                    "velocity": 0.3543307086614173,
                    "duration": 0.1919930416666773
                },
                {
                    "name": "E2",
                    "midi": 40,
                    "time": 133.33304,
                    "velocity": 0.3543307086614173,
                    "duration": 0.1919930416666773
                },
                {
                    "name": "E2",
                    "midi": 40,
                    "time": 134.901664,
                    "velocity": 0.3543307086614173,
                    "duration": 0.1919930416666773
                },
                {
                    "name": "E2",
                    "midi": 40,
                    "time": 136.470288,
                    "velocity": 0.3543307086614173,
                    "duration": 0.1919930416666773
                },
                {
                    "name": "E2",
                    "midi": 40,
                    "time": 138.038912,
                    "velocity": 0.3543307086614173,
                    "duration": 0.1919930416666773
                },
                {
                    "name": "E2",
                    "midi": 40,
                    "time": 138.823224,
                    "velocity": 0.3543307086614173,
                    "duration": 0.1919930416666773
                },
                {
                    "name": "E2",
                    "midi": 40,
                    "time": 139.999692,
                    "velocity": 0.47244094488188976,
                    "duration": 0.2900320416666773
                },
                {
                    "name": "E2",
                    "midi": 40,
                    "time": 140.293809,
                    "velocity": 0.47244094488188976,
                    "duration": 0.09395404166667731
                },
                {
                    "name": "E2",
                    "midi": 40,
                    "time": 140.784004,
                    "velocity": 0.47244094488188976,
                    "duration": 0.3267966666666666
                },
                {
                    "name": "E2",
                    "midi": 40,
                    "time": 141.568316,
                    "velocity": 0.47244094488188976,
                    "duration": 0.2900320416666773
                },
                {
                    "name": "E2",
                    "midi": 40,
                    "time": 141.862433,
                    "velocity": 0.47244094488188976,
                    "duration": 0.09395404166667731
                },
                {
                    "name": "E2",
                    "midi": 40,
                    "time": 142.352628,
                    "velocity": 0.47244094488188976,
                    "duration": 0.3267966666666666
                },
                {
                    "name": "E2",
                    "midi": 40,
                    "time": 143.13694,
                    "velocity": 0.47244094488188976,
                    "duration": 0.2900320416666773
                },
                {
                    "name": "E2",
                    "midi": 40,
                    "time": 143.431057,
                    "velocity": 0.47244094488188976,
                    "duration": 0.09395404166667731
                },
                {
                    "name": "E2",
                    "midi": 40,
                    "time": 143.921252,
                    "velocity": 0.47244094488188976,
                    "duration": 0.3267966666666666
                },
                {
                    "name": "E2",
                    "midi": 40,
                    "time": 144.705564,
                    "velocity": 0.47244094488188976,
                    "duration": 0.2900320416666773
                },
                {
                    "name": "E2",
                    "midi": 40,
                    "time": 144.999681,
                    "velocity": 0.47244094488188976,
                    "duration": 0.09395404166667731
                },
                {
                    "name": "E2",
                    "midi": 40,
                    "time": 145.489876,
                    "velocity": 0.47244094488188976,
                    "duration": 0.3267966666666666
                },
                {
                    "name": "E2",
                    "midi": 40,
                    "time": 146.274188,
                    "velocity": 0.47244094488188976,
                    "duration": 0.2900320416666773
                },
                {
                    "name": "E2",
                    "midi": 40,
                    "time": 146.568305,
                    "velocity": 0.47244094488188976,
                    "duration": 0.09395404166667731
                },
                {
                    "name": "E2",
                    "midi": 40,
                    "time": 147.0585,
                    "velocity": 0.47244094488188976,
                    "duration": 0.3267966666666666
                },
                {
                    "name": "E2",
                    "midi": 40,
                    "time": 147.842812,
                    "velocity": 0.47244094488188976,
                    "duration": 0.2900320416666773
                },
                {
                    "name": "E2",
                    "midi": 40,
                    "time": 148.136929,
                    "velocity": 0.47244094488188976,
                    "duration": 0.09395404166667731
                },
                {
                    "name": "E2",
                    "midi": 40,
                    "time": 148.627124,
                    "velocity": 0.47244094488188976,
                    "duration": 0.3267966666666666
                },
                {
                    "name": "E2",
                    "midi": 40,
                    "time": 149.411436,
                    "velocity": 0.47244094488188976,
                    "duration": 0.2900320416666773
                },
                {
                    "name": "E2",
                    "midi": 40,
                    "time": 149.705553,
                    "velocity": 0.47244094488188976,
                    "duration": 0.09395404166667731
                },
                {
                    "name": "E2",
                    "midi": 40,
                    "time": 150.195748,
                    "velocity": 0.47244094488188976,
                    "duration": 0.3267966666666666
                },
                {
                    "name": "E2",
                    "midi": 40,
                    "time": 150.98006,
                    "velocity": 0.47244094488188976,
                    "duration": 0.2900320416666773
                },
                {
                    "name": "E2",
                    "midi": 40,
                    "time": 151.274177,
                    "velocity": 0.47244094488188976,
                    "duration": 0.09395404166667731
                },
                {
                    "name": "E2",
                    "midi": 40,
                    "time": 151.764372,
                    "velocity": 0.47244094488188976,
                    "duration": 0.2900320416666773
                },
                {
                    "name": "E2",
                    "midi": 40,
                    "time": 152.058489,
                    "velocity": 0.47244094488188976,
                    "duration": 0.09395404166667731
                },
                {
                    "name": "E2",
                    "midi": 40,
                    "time": 152.156528,
                    "velocity": 0.47244094488188976,
                    "duration": 0.3267966666666666
                },
                {
                    "name": "E2",
                    "midi": 40,
                    "time": 152.94084,
                    "velocity": 0.3543307086614173,
                    "duration": 0.3267966666666666
                },
                {
                    "name": "E2",
                    "midi": 40,
                    "time": 153.332996,
                    "velocity": 0.3543307086614173,
                    "duration": 0.3267966666666666
                },
                {
                    "name": "E2",
                    "midi": 40,
                    "time": 153.725152,
                    "velocity": 0.3543307086614173,
                    "duration": 0.3267966666666666
                },
                {
                    "name": "E2",
                    "midi": 40,
                    "time": 154.509464,
                    "velocity": 0.3543307086614173,
                    "duration": 0.1919930416666773
                },
                {
                    "name": "E2",
                    "midi": 40,
                    "time": 155.293776,
                    "velocity": 0.3543307086614173,
                    "duration": 0.1919930416666773
                },
                {
                    "name": "E2",
                    "midi": 40,
                    "time": 156.078088,
                    "velocity": 0.3543307086614173,
                    "duration": 0.1919930416666773
                },
                {
                    "name": "E2",
                    "midi": 40,
                    "time": 156.470244,
                    "velocity": 0.3543307086614173,
                    "duration": 0.1919930416666773
                },
                {
                    "name": "E2",
                    "midi": 40,
                    "time": 156.8624,
                    "velocity": 0.3543307086614173,
                    "duration": 0.1919930416666773
                },
                {
                    "name": "E2",
                    "midi": 40,
                    "time": 157.646712,
                    "velocity": 0.3543307086614173,
                    "duration": 0.1919930416666773
                },
                {
                    "name": "E2",
                    "midi": 40,
                    "time": 158.431024,
                    "velocity": 0.3543307086614173,
                    "duration": 0.1919930416666773
                },
                {
                    "name": "E2",
                    "midi": 40,
                    "time": 158.82318,
                    "velocity": 0.3543307086614173,
                    "duration": 0.1919930416666773
                },
                {
                    "name": "E2",
                    "midi": 40,
                    "time": 159.215336,
                    "velocity": 0.3543307086614173,
                    "duration": 0.1919930416666773
                },
                {
                    "name": "E2",
                    "midi": 40,
                    "time": 159.607492,
                    "velocity": 0.3543307086614173,
                    "duration": 0.1919930416666773
                },
                {
                    "name": "E2",
                    "midi": 40,
                    "time": 159.999648,
                    "velocity": 0.3543307086614173,
                    "duration": 0.1919930416666773
                },
                {
                    "name": "E2",
                    "midi": 40,
                    "time": 160.391804,
                    "velocity": 0.3543307086614173,
                    "duration": 0.1919930416666773
                },
                {
                    "name": "E2",
                    "midi": 40,
                    "time": 160.78396,
                    "velocity": 0.3543307086614173,
                    "duration": 0.1919930416666773
                },
                {
                    "name": "E2",
                    "midi": 40,
                    "time": 161.176116,
                    "velocity": 0.3543307086614173,
                    "duration": 0.1919930416666773
                },
                {
                    "name": "E2",
                    "midi": 40,
                    "time": 161.568272,
                    "velocity": 0.3543307086614173,
                    "duration": 0.1919930416666773
                },
                {
                    "name": "E2",
                    "midi": 40,
                    "time": 163.136896,
                    "velocity": 0.3543307086614173,
                    "duration": 0.1919930416666773
                },
                {
                    "name": "E2",
                    "midi": 40,
                    "time": 164.70552,
                    "velocity": 0.3543307086614173,
                    "duration": 0.1919930416666773
                },
                {
                    "name": "E2",
                    "midi": 40,
                    "time": 168.823158,
                    "velocity": 0.3543307086614173,
                    "duration": 0.1919930416666773
                },
                {
                    "name": "E2",
                    "midi": 40,
                    "time": 169.215314,
                    "velocity": 0.3543307086614173,
                    "duration": 0.1919930416666773
                },
                {
                    "name": "E2",
                    "midi": 40,
                    "time": 169.60747,
                    "velocity": 0.3543307086614173,
                    "duration": 0.1919930416666773
                },
                {
                    "name": "E2",
                    "midi": 40,
                    "time": 169.999626,
                    "velocity": 0.3543307086614173,
                    "duration": 0.1919930416666773
                },
                {
                    "name": "E2",
                    "midi": 40,
                    "time": 170.391782,
                    "velocity": 0.3543307086614173,
                    "duration": 0.1919930416666773
                },
                {
                    "name": "E2",
                    "midi": 40,
                    "time": 170.783938,
                    "velocity": 0.3543307086614173,
                    "duration": 0.1919930416666773
                },
                {
                    "name": "E2",
                    "midi": 40,
                    "time": 171.176094,
                    "velocity": 0.3543307086614173,
                    "duration": 0.1919930416666773
                },
                {
                    "name": "E2",
                    "midi": 40,
                    "time": 171.56825,
                    "velocity": 0.3543307086614173,
                    "duration": 0.1919930416666773
                },
                {
                    "name": "E2",
                    "midi": 40,
                    "time": 171.960406,
                    "velocity": 0.3543307086614173,
                    "duration": 0.1919930416666773
                },
                {
                    "name": "E2",
                    "midi": 40,
                    "time": 172.352562,
                    "velocity": 0.3543307086614173,
                    "duration": 0.1919930416666773
                },
                {
                    "name": "E2",
                    "midi": 40,
                    "time": 172.744718,
                    "velocity": 0.3543307086614173,
                    "duration": 0.1919930416666773
                },
                {
                    "name": "E2",
                    "midi": 40,
                    "time": 173.136874,
                    "velocity": 0.3543307086614173,
                    "duration": 0.1919930416666773
                },
                {
                    "name": "E2",
                    "midi": 40,
                    "time": 173.52903,
                    "velocity": 0.3543307086614173,
                    "duration": 0.1919930416666773
                },
                {
                    "name": "E2",
                    "midi": 40,
                    "time": 173.921186,
                    "velocity": 0.3543307086614173,
                    "duration": 0.1919930416666773
                },
                {
                    "name": "E2",
                    "midi": 40,
                    "time": 174.117264,
                    "velocity": 0.3543307086614173,
                    "duration": 0.1919930416666773
                },
                {
                    "name": "E2",
                    "midi": 40,
                    "time": 175.097654,
                    "velocity": 0.3543307086614173,
                    "duration": 0.1919930416666773
                },
                {
                    "name": "E2",
                    "midi": 40,
                    "time": 175.48981,
                    "velocity": 0.3543307086614173,
                    "duration": 0.1919930416666773
                },
                {
                    "name": "E2",
                    "midi": 40,
                    "time": 175.881966,
                    "velocity": 0.3543307086614173,
                    "duration": 0.1919930416666773
                },
                {
                    "name": "E2",
                    "midi": 40,
                    "time": 176.274122,
                    "velocity": 0.3543307086614173,
                    "duration": 0.1919930416666773
                },
                {
                    "name": "E2",
                    "midi": 40,
                    "time": 176.666278,
                    "velocity": 0.3543307086614173,
                    "duration": 0.1919930416666773
                },
                {
                    "name": "E2",
                    "midi": 40,
                    "time": 177.058434,
                    "velocity": 0.3543307086614173,
                    "duration": 0.1919930416666773
                },
                {
                    "name": "E2",
                    "midi": 40,
                    "time": 177.45059,
                    "velocity": 0.3543307086614173,
                    "duration": 0.1919930416666773
                },
                {
                    "name": "E2",
                    "midi": 40,
                    "time": 177.842746,
                    "velocity": 0.3543307086614173,
                    "duration": 0.1919930416666773
                },
                {
                    "name": "E2",
                    "midi": 40,
                    "time": 178.234902,
                    "velocity": 0.3543307086614173,
                    "duration": 0.1919930416666773
                },
                {
                    "name": "E2",
                    "midi": 40,
                    "time": 178.627058,
                    "velocity": 0.3543307086614173,
                    "duration": 0.1919930416666773
                },
                {
                    "name": "E2",
                    "midi": 40,
                    "time": 179.019214,
                    "velocity": 0.3543307086614173,
                    "duration": 0.1919930416666773
                },
                {
                    "name": "E2",
                    "midi": 40,
                    "time": 179.41137,
                    "velocity": 0.3543307086614173,
                    "duration": 0.1919930416666773
                },
                {
                    "name": "E2",
                    "midi": 40,
                    "time": 179.803526,
                    "velocity": 0.3543307086614173,
                    "duration": 0.1919930416666773
                },
                {
                    "name": "E2",
                    "midi": 40,
                    "time": 180.195682,
                    "velocity": 0.3543307086614173,
                    "duration": 0.1919930416666773
                },
                {
                    "name": "E2",
                    "midi": 40,
                    "time": 180.587838,
                    "velocity": 0.3543307086614173,
                    "duration": 0.1919930416666773
                },
                {
                    "name": "E2",
                    "midi": 40,
                    "time": 180.979994,
                    "velocity": 0.3543307086614173,
                    "duration": 0.1919930416666773
                },
                {
                    "name": "E2",
                    "midi": 40,
                    "time": 181.37215,
                    "velocity": 0.3543307086614173,
                    "duration": 0.1919930416666773
                },
                {
                    "name": "E2",
                    "midi": 40,
                    "time": 181.764306,
                    "velocity": 0.3543307086614173,
                    "duration": 0.1919930416666773
                },
                {
                    "name": "E2",
                    "midi": 40,
                    "time": 182.156462,
                    "velocity": 0.3543307086614173,
                    "duration": 0.1919930416666773
                },
                {
                    "name": "E2",
                    "midi": 40,
                    "time": 182.548618,
                    "velocity": 0.3543307086614173,
                    "duration": 0.1919930416666773
                },
                {
                    "name": "E2",
                    "midi": 40,
                    "time": 182.940774,
                    "velocity": 0.3543307086614173,
                    "duration": 0.1919930416666773
                },
                {
                    "name": "E2",
                    "midi": 40,
                    "time": 183.33293,
                    "velocity": 0.3543307086614173,
                    "duration": 0.1919930416666773
                },
                {
                    "name": "E2",
                    "midi": 40,
                    "time": 183.725086,
                    "velocity": 0.3543307086614173,
                    "duration": 0.1919930416666773
                },
                {
                    "name": "E2",
                    "midi": 40,
                    "time": 184.117242,
                    "velocity": 0.3543307086614173,
                    "duration": 0.1919930416666773
                },
                {
                    "name": "E2",
                    "midi": 40,
                    "time": 184.509398,
                    "velocity": 0.3543307086614173,
                    "duration": 0.1919930416666773
                },
                {
                    "name": "E2",
                    "midi": 40,
                    "time": 184.901554,
                    "velocity": 0.3543307086614173,
                    "duration": 0.1919930416666773
                },
                {
                    "name": "E2",
                    "midi": 40,
                    "time": 185.29371,
                    "velocity": 0.3543307086614173,
                    "duration": 0.1919930416666773
                },
                {
                    "name": "E2",
                    "midi": 40,
                    "time": 185.685866,
                    "velocity": 0.3543307086614173,
                    "duration": 0.1919930416666773
                },
                {
                    "name": "E2",
                    "midi": 40,
                    "time": 186.078022,
                    "velocity": 0.3543307086614173,
                    "duration": 0.1919930416666773
                },
                {
                    "name": "E2",
                    "midi": 40,
                    "time": 186.470178,
                    "velocity": 0.3543307086614173,
                    "duration": 0.1919930416666773
                },
                {
                    "name": "E2",
                    "midi": 40,
                    "time": 186.862334,
                    "velocity": 0.3543307086614173,
                    "duration": 0.1919930416666773
                },
                {
                    "name": "E2",
                    "midi": 40,
                    "time": 187.25449,
                    "velocity": 0.3543307086614173,
                    "duration": 0.1919930416666773
                },
                {
                    "name": "E2",
                    "midi": 40,
                    "time": 187.646646,
                    "velocity": 0.3543307086614173,
                    "duration": 0.1919930416666773
                },
                {
                    "name": "E2",
                    "midi": 40,
                    "time": 188.038802,
                    "velocity": 0.3543307086614173,
                    "duration": 0.1919930416666773
                },
                {
                    "name": "E2",
                    "midi": 40,
                    "time": 188.430958,
                    "velocity": 0.3543307086614173,
                    "duration": 0.1919930416666773
                },
                {
                    "name": "E2",
                    "midi": 40,
                    "time": 188.823114,
                    "velocity": 0.3543307086614173,
                    "duration": 0.1919930416666773
                },
                {
                    "name": "E2",
                    "midi": 40,
                    "time": 189.21527,
                    "velocity": 0.3543307086614173,
                    "duration": 0.1919930416666773
                },
                {
                    "name": "E2",
                    "midi": 40,
                    "time": 189.607426,
                    "velocity": 0.3543307086614173,
                    "duration": 0.1919930416666773
                },
                {
                    "name": "E2",
                    "midi": 40,
                    "time": 189.999582,
                    "velocity": 0.3543307086614173,
                    "duration": 0.1919930416666773
                },
                {
                    "name": "E2",
                    "midi": 40,
                    "time": 190.391738,
                    "velocity": 0.3543307086614173,
                    "duration": 0.1919930416666773
                },
                {
                    "name": "E2",
                    "midi": 40,
                    "time": 190.783894,
                    "velocity": 0.3543307086614173,
                    "duration": 0.1919930416666773
                },
                {
                    "name": "E2",
                    "midi": 40,
                    "time": 191.17605,
                    "velocity": 0.3543307086614173,
                    "duration": 0.1919930416666773
                },
                {
                    "name": "E2",
                    "midi": 40,
                    "time": 191.568206,
                    "velocity": 0.3543307086614173,
                    "duration": 0.1919930416666773
                },
                {
                    "name": "E2",
                    "midi": 40,
                    "time": 191.960362,
                    "velocity": 0.3543307086614173,
                    "duration": 0.1919930416666773
                },
                {
                    "name": "E2",
                    "midi": 40,
                    "time": 192.352518,
                    "velocity": 0.3543307086614173,
                    "duration": 0.1919930416666773
                },
                {
                    "name": "E2",
                    "midi": 40,
                    "time": 192.744674,
                    "velocity": 0.3543307086614173,
                    "duration": 0.1919930416666773
                },
                {
                    "name": "E2",
                    "midi": 40,
                    "time": 193.13683,
                    "velocity": 0.3543307086614173,
                    "duration": 0.1919930416666773
                },
                {
                    "name": "E2",
                    "midi": 40,
                    "time": 193.528986,
                    "velocity": 0.3543307086614173,
                    "duration": 0.1919930416666773
                },
                {
                    "name": "E2",
                    "midi": 40,
                    "time": 193.921142,
                    "velocity": 0.3543307086614173,
                    "duration": 0.1919930416666773
                },
                {
                    "name": "E2",
                    "midi": 40,
                    "time": 194.313298,
                    "velocity": 0.3543307086614173,
                    "duration": 0.1919930416666773
                },
                {
                    "name": "E2",
                    "midi": 40,
                    "time": 194.705454,
                    "velocity": 0.3543307086614173,
                    "duration": 0.1919930416666773
                },
                {
                    "name": "E2",
                    "midi": 40,
                    "time": 195.09761,
                    "velocity": 0.3543307086614173,
                    "duration": 0.1919930416666773
                },
                {
                    "name": "E2",
                    "midi": 40,
                    "time": 195.489766,
                    "velocity": 0.3543307086614173,
                    "duration": 0.1919930416666773
                },
                {
                    "name": "E2",
                    "midi": 40,
                    "time": 195.881922,
                    "velocity": 0.3543307086614173,
                    "duration": 0.1919930416666773
                },
                {
                    "name": "E2",
                    "midi": 40,
                    "time": 196.274078,
                    "velocity": 0.3543307086614173,
                    "duration": 0.1919930416666773
                },
                {
                    "name": "E2",
                    "midi": 40,
                    "time": 196.666234,
                    "velocity": 0.3543307086614173,
                    "duration": 0.1919930416666773
                },
                {
                    "name": "E2",
                    "midi": 40,
                    "time": 197.05839,
                    "velocity": 0.3543307086614173,
                    "duration": 0.1919930416666773
                },
                {
                    "name": "E2",
                    "midi": 40,
                    "time": 197.450546,
                    "velocity": 0.3543307086614173,
                    "duration": 0.1919930416666773
                },
                {
                    "name": "E2",
                    "midi": 40,
                    "time": 197.842702,
                    "velocity": 0.3543307086614173,
                    "duration": 0.1919930416666773
                },
                {
                    "name": "E2",
                    "midi": 40,
                    "time": 198.234858,
                    "velocity": 0.3543307086614173,
                    "duration": 0.1919930416666773
                },
                {
                    "name": "E2",
                    "midi": 40,
                    "time": 198.627014,
                    "velocity": 0.3543307086614173,
                    "duration": 0.1919930416666773
                },
                {
                    "name": "E2",
                    "midi": 40,
                    "time": 199.01917,
                    "velocity": 0.3543307086614173,
                    "duration": 0.1919930416666773
                },
                {
                    "name": "E2",
                    "midi": 40,
                    "time": 199.411326,
                    "velocity": 0.3543307086614173,
                    "duration": 0.1919930416666773
                },
                {
                    "name": "E2",
                    "midi": 40,
                    "time": 199.803482,
                    "velocity": 0.3543307086614173,
                    "duration": 0.1919930416666773
                },
                {
                    "name": "E2",
                    "midi": 40,
                    "time": 200.195638,
                    "velocity": 0.3543307086614173,
                    "duration": 0.1919930416666773
                },
                {
                    "name": "E2",
                    "midi": 40,
                    "time": 200.587794,
                    "velocity": 0.3543307086614173,
                    "duration": 0.1919930416666773
                },
                {
                    "name": "E2",
                    "midi": 40,
                    "time": 200.97995,
                    "velocity": 0.3543307086614173,
                    "duration": 0.1919930416666773
                },
                {
                    "name": "E2",
                    "midi": 40,
                    "time": 201.372106,
                    "velocity": 0.3543307086614173,
                    "duration": 0.1919930416666773
                },
                {
                    "name": "E2",
                    "midi": 40,
                    "time": 201.764262,
                    "velocity": 0.3543307086614173,
                    "duration": 0.1919930416666773
                },
                {
                    "name": "E2",
                    "midi": 40,
                    "time": 202.156418,
                    "velocity": 0.3543307086614173,
                    "duration": 0.1919930416666773
                },
                {
                    "name": "E2",
                    "midi": 40,
                    "time": 202.548574,
                    "velocity": 0.3543307086614173,
                    "duration": 0.1919930416666773
                },
                {
                    "name": "E2",
                    "midi": 40,
                    "time": 202.94073,
                    "velocity": 0.3543307086614173,
                    "duration": 0.1919930416666773
                },
                {
                    "name": "E2",
                    "midi": 40,
                    "time": 203.332886,
                    "velocity": 0.3543307086614173,
                    "duration": 0.1919930416666773
                },
                {
                    "name": "E2",
                    "midi": 40,
                    "time": 203.725042,
                    "velocity": 0.3543307086614173,
                    "duration": 0.1919930416666773
                },
                {
                    "name": "E2",
                    "midi": 40,
                    "time": 204.117198,
                    "velocity": 0.3543307086614173,
                    "duration": 0.1919930416666773
                },
                {
                    "name": "E2",
                    "midi": 40,
                    "time": 204.509354,
                    "velocity": 0.3543307086614173,
                    "duration": 0.1919930416666773
                },
                {
                    "name": "E2",
                    "midi": 40,
                    "time": 204.90151,
                    "velocity": 0.3543307086614173,
                    "duration": 0.1919930416666773
                },
                {
                    "name": "E2",
                    "midi": 40,
                    "time": 205.293666,
                    "velocity": 0.3543307086614173,
                    "duration": 0.1919930416666773
                },
                {
                    "name": "E2",
                    "midi": 40,
                    "time": 205.685822,
                    "velocity": 0.3543307086614173,
                    "duration": 0.1919930416666773
                },
                {
                    "name": "E2",
                    "midi": 40,
                    "time": 206.077978,
                    "velocity": 0.3543307086614173,
                    "duration": 0.1919930416666773
                },
                {
                    "name": "E2",
                    "midi": 40,
                    "time": 206.470134,
                    "velocity": 0.3543307086614173,
                    "duration": 0.1919930416666773
                },
                {
                    "name": "E2",
                    "midi": 40,
                    "time": 206.86229,
                    "velocity": 0.3543307086614173,
                    "duration": 0.1919930416666773
                },
                {
                    "name": "E2",
                    "midi": 40,
                    "time": 207.254446,
                    "velocity": 0.3543307086614173,
                    "duration": 0.1919930416666773
                },
                {
                    "name": "E2",
                    "midi": 40,
                    "time": 207.646602,
                    "velocity": 0.3543307086614173,
                    "duration": 0.1919930416666773
                },
                {
                    "name": "E2",
                    "midi": 40,
                    "time": 208.038758,
                    "velocity": 0.3543307086614173,
                    "duration": 0.1919930416666773
                },
                {
                    "name": "E2",
                    "midi": 40,
                    "time": 208.430914,
                    "velocity": 0.3543307086614173,
                    "duration": 0.1919930416666773
                },
                {
                    "name": "E2",
                    "midi": 40,
                    "time": 208.82307,
                    "velocity": 0.3543307086614173,
                    "duration": 0.1919930416666773
                },
                {
                    "name": "E2",
                    "midi": 40,
                    "time": 209.215226,
                    "velocity": 0.3543307086614173,
                    "duration": 0.1919930416666773
                },
                {
                    "name": "E2",
                    "midi": 40,
                    "time": 209.607382,
                    "velocity": 0.3543307086614173,
                    "duration": 0.1919930416666773
                },
                {
                    "name": "E2",
                    "midi": 40,
                    "time": 209.999538,
                    "velocity": 0.3543307086614173,
                    "duration": 0.1919930416666773
                },
                {
                    "name": "E2",
                    "midi": 40,
                    "time": 210.391694,
                    "velocity": 0.3543307086614173,
                    "duration": 0.1919930416666773
                },
                {
                    "name": "E2",
                    "midi": 40,
                    "time": 210.78385,
                    "velocity": 0.3543307086614173,
                    "duration": 0.1919930416666773
                },
                {
                    "name": "E2",
                    "midi": 40,
                    "time": 211.176006,
                    "velocity": 0.3543307086614173,
                    "duration": 0.1919930416666773
                },
                {
                    "name": "E2",
                    "midi": 40,
                    "time": 211.568162,
                    "velocity": 0.3543307086614173,
                    "duration": 0.1919930416666773
                },
                {
                    "name": "E2",
                    "midi": 40,
                    "time": 212.156396,
                    "velocity": 0.3543307086614173,
                    "duration": 0.3267966666666666
                },
                {
                    "name": "E2",
                    "midi": 40,
                    "time": 212.940708,
                    "velocity": 0.3543307086614173,
                    "duration": 0.3267966666666666
                },
                {
                    "name": "E2",
                    "midi": 40,
                    "time": 213.72502,
                    "velocity": 0.3543307086614173,
                    "duration": 0.3267966666666666
                },
                {
                    "name": "E2",
                    "midi": 40,
                    "time": 214.509332,
                    "velocity": 0.3543307086614173,
                    "duration": 0.3267966666666666
                },
                {
                    "name": "E2",
                    "midi": 40,
                    "time": 215.293644,
                    "velocity": 0.3543307086614173,
                    "duration": 0.3267966666666666
                },
                {
                    "name": "E2",
                    "midi": 40,
                    "time": 216.077956,
                    "velocity": 0.3543307086614173,
                    "duration": 0.3267966666666666
                },
                {
                    "name": "E2",
                    "midi": 40,
                    "time": 216.862268,
                    "velocity": 0.3543307086614173,
                    "duration": 0.3267966666666666
                },
                {
                    "name": "E2",
                    "midi": 40,
                    "time": 217.842658,
                    "velocity": 0.3937007874015748,
                    "duration": 0.1919930416666773
                },
                {
                    "name": "E2",
                    "midi": 40,
                    "time": 218.234814,
                    "velocity": 0.47244094488188976,
                    "duration": 0.1919930416666773
                },
                {
                    "name": "E2",
                    "midi": 40,
                    "time": 218.62697,
                    "velocity": 0.5511811023622047,
                    "duration": 0.1919930416666773
                },
                {
                    "name": "E2",
                    "midi": 40,
                    "time": 219.019126,
                    "velocity": 0.5905511811023622,
                    "duration": 0.1919930416666773
                },
                {
                    "name": "E2",
                    "midi": 40,
                    "time": 219.411282,
                    "velocity": 0.5905511811023622,
                    "duration": 0.1919930416666773
                },
                {
                    "name": "E2",
                    "midi": 40,
                    "time": 219.803438,
                    "velocity": 0.5905511811023622,
                    "duration": 0.1919930416666773
                },
                {
                    "name": "E2",
                    "midi": 40,
                    "time": 220.195594,
                    "velocity": 0.5905511811023622,
                    "duration": 0.1919930416666773
                },
                {
                    "name": "E2",
                    "midi": 40,
                    "time": 220.58775,
                    "velocity": 0.5905511811023622,
                    "duration": 0.1919930416666773
                },
                {
                    "name": "E2",
                    "midi": 40,
                    "time": 220.979906,
                    "velocity": 0.5905511811023622,
                    "duration": 0.1919930416666773
                },
                {
                    "name": "E2",
                    "midi": 40,
                    "time": 221.175984,
                    "velocity": 0.5905511811023622,
                    "duration": 0.1919930416666773
                },
                {
                    "name": "E2",
                    "midi": 40,
                    "time": 222.744608,
                    "velocity": 0.5905511811023622,
                    "duration": 0.1919930416666773
                },
                {
                    "name": "E2",
                    "midi": 40,
                    "time": 224.313232,
                    "velocity": 0.5905511811023622,
                    "duration": 0.1919930416666773
                },
                {
                    "name": "E2",
                    "midi": 40,
                    "time": 225.881856,
                    "velocity": 0.47244094488188976,
                    "duration": 0.1919930416666773
                },
                {
                    "name": "E2",
                    "midi": 40,
                    "time": 226.077934,
                    "velocity": 0.47244094488188976,
                    "duration": 0.1919930416666773
                },
                {
                    "name": "E2",
                    "midi": 40,
                    "time": 226.274012,
                    "velocity": 0.47244094488188976,
                    "duration": 0.1919930416666773
                },
                {
                    "name": "E2",
                    "midi": 40,
                    "time": 226.47009,
                    "velocity": 0.47244094488188976,
                    "duration": 0.1919930416666773
                },
                {
                    "name": "E2",
                    "midi": 40,
                    "time": 226.666168,
                    "velocity": 0.47244094488188976,
                    "duration": 0.1919930416666773
                },
                {
                    "name": "E2",
                    "midi": 40,
                    "time": 226.862246,
                    "velocity": 0.47244094488188976,
                    "duration": 0.1919930416666773
                },
                {
                    "name": "E2",
                    "midi": 40,
                    "time": 227.058324,
                    "velocity": 0.47244094488188976,
                    "duration": 0.1919930416666773
                },
                {
                    "name": "E2",
                    "midi": 40,
                    "time": 227.254402,
                    "velocity": 0.47244094488188976,
                    "duration": 0.1919930416666773
                },
                {
                    "name": "E2",
                    "midi": 40,
                    "time": 227.45048,
                    "velocity": 0.47244094488188976,
                    "duration": 0.1919930416666773
                }
            ],
            "controlChanges": {
                "7": [
                    {
                        "number": 7,
                        "time": 0,
                        "value": 1
                    }
                ],
                "10": [
                    {
                        "number": 10,
                        "time": 0,
                        "value": 0.6456692913385826
                    }
                ],
                "91": [
                    {
                        "number": 91,
                        "time": 0,
                        "value": 0.49606299212598426
                    }
                ]
            },
            "id": 10,
            "instrumentNumber": 49,
            "instrumentFamily": "drums",
            "channelNumber": 9,
            "isPercussion": true
        },
        {
            "startTime": 5.490184,
            "duration": 227.77727666666667,
            "length": 488,
            "notes": [
                {
                    "name": "A2",
                    "midi": 45,
                    "time": 5.490184,
                    "velocity": 0.3543307086614173,
                    "duration": 0.3267966666666666
                },
                {
                    "name": "A2",
                    "midi": 45,
                    "time": 5.88234,
                    "velocity": 0.3543307086614173,
                    "duration": 0.3267966666666666
                },
                {
                    "name": "A2",
                    "midi": 45,
                    "time": 6.274496,
                    "velocity": 0.3543307086614173,
                    "duration": 0.3267966666666666
                },
                {
                    "name": "A2",
                    "midi": 45,
                    "time": 6.666652,
                    "velocity": 0.3543307086614173,
                    "duration": 0.3267966666666666
                },
                {
                    "name": "A2",
                    "midi": 45,
                    "time": 7.058808,
                    "velocity": 0.3543307086614173,
                    "duration": 0.3267966666666666
                },
                {
                    "name": "A2",
                    "midi": 45,
                    "time": 7.450964,
                    "velocity": 0.3543307086614173,
                    "duration": 0.3267966666666666
                },
                {
                    "name": "A2",
                    "midi": 45,
                    "time": 7.84312,
                    "velocity": 0.3543307086614173,
                    "duration": 0.3267966666666675
                },
                {
                    "name": "A2",
                    "midi": 45,
                    "time": 8.235276,
                    "velocity": 0.3543307086614173,
                    "duration": 0.3267966666666666
                },
                {
                    "name": "A2",
                    "midi": 45,
                    "time": 8.627432,
                    "velocity": 0.3543307086614173,
                    "duration": 0.3267966666666666
                },
                {
                    "name": "A2",
                    "midi": 45,
                    "time": 9.019588,
                    "velocity": 0.3543307086614173,
                    "duration": 0.3267966666666666
                },
                {
                    "name": "A2",
                    "midi": 45,
                    "time": 9.411744,
                    "velocity": 0.3543307086614173,
                    "duration": 0.3267966666666666
                },
                {
                    "name": "A2",
                    "midi": 45,
                    "time": 9.8039,
                    "velocity": 0.3543307086614173,
                    "duration": 0.3267966666666666
                },
                {
                    "name": "A2",
                    "midi": 45,
                    "time": 10.196056,
                    "velocity": 0.3543307086614173,
                    "duration": 0.3267966666666666
                },
                {
                    "name": "A2",
                    "midi": 45,
                    "time": 10.588212,
                    "velocity": 0.3543307086614173,
                    "duration": 0.3267966666666666
                },
                {
                    "name": "A2",
                    "midi": 45,
                    "time": 10.980368,
                    "velocity": 0.3543307086614173,
                    "duration": 0.3267966666666666
                },
                {
                    "name": "A2",
                    "midi": 45,
                    "time": 11.76468,
                    "velocity": 0.3543307086614173,
                    "duration": 0.3267966666666666
                },
                {
                    "name": "A2",
                    "midi": 45,
                    "time": 12.156836,
                    "velocity": 0.3543307086614173,
                    "duration": 0.3267966666666666
                },
                {
                    "name": "A2",
                    "midi": 45,
                    "time": 12.548992,
                    "velocity": 0.3543307086614173,
                    "duration": 0.3267966666666666
                },
                {
                    "name": "A2",
                    "midi": 45,
                    "time": 12.941148,
                    "velocity": 0.3543307086614173,
                    "duration": 0.3267966666666666
                },
                {
                    "name": "A2",
                    "midi": 45,
                    "time": 13.333304,
                    "velocity": 0.3543307086614173,
                    "duration": 0.3267966666666666
                },
                {
                    "name": "A2",
                    "midi": 45,
                    "time": 13.72546,
                    "velocity": 0.3543307086614173,
                    "duration": 0.3267966666666666
                },
                {
                    "name": "A2",
                    "midi": 45,
                    "time": 14.117616,
                    "velocity": 0.3543307086614173,
                    "duration": 0.3267966666666666
                },
                {
                    "name": "A2",
                    "midi": 45,
                    "time": 14.509772,
                    "velocity": 0.3543307086614173,
                    "duration": 0.3267966666666666
                },
                {
                    "name": "A2",
                    "midi": 45,
                    "time": 14.901928,
                    "velocity": 0.3543307086614173,
                    "duration": 0.3267966666666666
                },
                {
                    "name": "A2",
                    "midi": 45,
                    "time": 15.294084,
                    "velocity": 0.3543307086614173,
                    "duration": 0.3267966666666666
                },
                {
                    "name": "A2",
                    "midi": 45,
                    "time": 15.68624,
                    "velocity": 0.3543307086614173,
                    "duration": 0.3267966666666684
                },
                {
                    "name": "A2",
                    "midi": 45,
                    "time": 16.078396,
                    "velocity": 0.3543307086614173,
                    "duration": 0.3267966666666666
                },
                {
                    "name": "A2",
                    "midi": 45,
                    "time": 16.470552,
                    "velocity": 0.3543307086614173,
                    "duration": 0.3267966666666666
                },
                {
                    "name": "A2",
                    "midi": 45,
                    "time": 16.862708,
                    "velocity": 0.3543307086614173,
                    "duration": 0.3267966666666666
                },
                {
                    "name": "A2",
                    "midi": 45,
                    "time": 17.254864,
                    "velocity": 0.3543307086614173,
                    "duration": 0.3267966666666666
                },
                {
                    "name": "A2",
                    "midi": 45,
                    "time": 17.64702,
                    "velocity": 0.3543307086614173,
                    "duration": 0.3267966666666666
                },
                {
                    "name": "A2",
                    "midi": 45,
                    "time": 18.039176,
                    "velocity": 0.3543307086614173,
                    "duration": 0.3267966666666666
                },
                {
                    "name": "A2",
                    "midi": 45,
                    "time": 18.431332,
                    "velocity": 0.3543307086614173,
                    "duration": 0.3267966666666666
                },
                {
                    "name": "A2",
                    "midi": 45,
                    "time": 18.823488,
                    "velocity": 0.3543307086614173,
                    "duration": 0.3267966666666666
                },
                {
                    "name": "A2",
                    "midi": 45,
                    "time": 19.6078,
                    "velocity": 0.3543307086614173,
                    "duration": 0.3267966666666666
                },
                {
                    "name": "A2",
                    "midi": 45,
                    "time": 19.999956,
                    "velocity": 0.3543307086614173,
                    "duration": 0.3267966666666666
                },
                {
                    "name": "A2",
                    "midi": 45,
                    "time": 20.392112,
                    "velocity": 0.3543307086614173,
                    "duration": 0.3267966666666666
                },
                {
                    "name": "A2",
                    "midi": 45,
                    "time": 20.784268,
                    "velocity": 0.3543307086614173,
                    "duration": 0.3267966666666666
                },
                {
                    "name": "A2",
                    "midi": 45,
                    "time": 21.176424,
                    "velocity": 0.3543307086614173,
                    "duration": 0.3267966666666666
                },
                {
                    "name": "A2",
                    "midi": 45,
                    "time": 21.56858,
                    "velocity": 0.3543307086614173,
                    "duration": 0.3267966666666666
                },
                {
                    "name": "A2",
                    "midi": 45,
                    "time": 21.960736,
                    "velocity": 0.3543307086614173,
                    "duration": 0.3267966666666666
                },
                {
                    "name": "A2",
                    "midi": 45,
                    "time": 22.352892,
                    "velocity": 0.3543307086614173,
                    "duration": 0.3267966666666666
                },
                {
                    "name": "A2",
                    "midi": 45,
                    "time": 22.745048,
                    "velocity": 0.3543307086614173,
                    "duration": 0.3267966666666666
                },
                {
                    "name": "A2",
                    "midi": 45,
                    "time": 23.137204,
                    "velocity": 0.3543307086614173,
                    "duration": 0.3267966666666666
                },
                {
                    "name": "A2",
                    "midi": 45,
                    "time": 23.52936,
                    "velocity": 0.3543307086614173,
                    "duration": 0.3267966666666666
                },
                {
                    "name": "A2",
                    "midi": 45,
                    "time": 23.921516,
                    "velocity": 0.3543307086614173,
                    "duration": 0.3267966666666666
                },
                {
                    "name": "A2",
                    "midi": 45,
                    "time": 24.313672,
                    "velocity": 0.3543307086614173,
                    "duration": 0.3267966666666666
                },
                {
                    "name": "A2",
                    "midi": 45,
                    "time": 24.705828,
                    "velocity": 0.3543307086614173,
                    "duration": 0.3267966666666666
                },
                {
                    "name": "A2",
                    "midi": 45,
                    "time": 25.097984,
                    "velocity": 0.3543307086614173,
                    "duration": 0.3267966666666666
                },
                {
                    "name": "A2",
                    "midi": 45,
                    "time": 25.49014,
                    "velocity": 0.3543307086614173,
                    "duration": 0.3267966666666666
                },
                {
                    "name": "A2",
                    "midi": 45,
                    "time": 25.882296,
                    "velocity": 0.3543307086614173,
                    "duration": 0.3267966666666666
                },
                {
                    "name": "A2",
                    "midi": 45,
                    "time": 26.274452,
                    "velocity": 0.3543307086614173,
                    "duration": 0.3267966666666666
                },
                {
                    "name": "A2",
                    "midi": 45,
                    "time": 26.666608,
                    "velocity": 0.3543307086614173,
                    "duration": 0.3267966666666666
                },
                {
                    "name": "A2",
                    "midi": 45,
                    "time": 27.058764,
                    "velocity": 0.3543307086614173,
                    "duration": 0.3267966666666666
                },
                {
                    "name": "A2",
                    "midi": 45,
                    "time": 27.45092,
                    "velocity": 0.3543307086614173,
                    "duration": 0.3267966666666666
                },
                {
                    "name": "A2",
                    "midi": 45,
                    "time": 27.843076,
                    "velocity": 0.3543307086614173,
                    "duration": 0.3267966666666666
                },
                {
                    "name": "A2",
                    "midi": 45,
                    "time": 28.235232,
                    "velocity": 0.3543307086614173,
                    "duration": 0.3267966666666666
                },
                {
                    "name": "A2",
                    "midi": 45,
                    "time": 28.627388,
                    "velocity": 0.3543307086614173,
                    "duration": 0.3267966666666666
                },
                {
                    "name": "A2",
                    "midi": 45,
                    "time": 29.019544,
                    "velocity": 0.3543307086614173,
                    "duration": 0.3267966666666666
                },
                {
                    "name": "A2",
                    "midi": 45,
                    "time": 29.4117,
                    "velocity": 0.3543307086614173,
                    "duration": 0.3267966666666666
                },
                {
                    "name": "A2",
                    "midi": 45,
                    "time": 29.803856,
                    "velocity": 0.3543307086614173,
                    "duration": 0.3267966666666666
                },
                {
                    "name": "A2",
                    "midi": 45,
                    "time": 30.196012,
                    "velocity": 0.3543307086614173,
                    "duration": 0.3267966666666666
                },
                {
                    "name": "A2",
                    "midi": 45,
                    "time": 30.588168,
                    "velocity": 0.3543307086614173,
                    "duration": 0.3267966666666666
                },
                {
                    "name": "A2",
                    "midi": 45,
                    "time": 30.980324,
                    "velocity": 0.3543307086614173,
                    "duration": 0.3267966666666666
                },
                {
                    "name": "A2",
                    "midi": 45,
                    "time": 31.37248,
                    "velocity": 0.3543307086614173,
                    "duration": 0.3267966666666666
                },
                {
                    "name": "A2",
                    "midi": 45,
                    "time": 31.764636,
                    "velocity": 0.3543307086614173,
                    "duration": 0.3267966666666702
                },
                {
                    "name": "A2",
                    "midi": 45,
                    "time": 32.156792,
                    "velocity": 0.3543307086614173,
                    "duration": 0.3267966666666666
                },
                {
                    "name": "A2",
                    "midi": 45,
                    "time": 32.548948,
                    "velocity": 0.3543307086614173,
                    "duration": 0.3267966666666666
                },
                {
                    "name": "A2",
                    "midi": 45,
                    "time": 32.941104,
                    "velocity": 0.3543307086614173,
                    "duration": 0.3267966666666666
                },
                {
                    "name": "A2",
                    "midi": 45,
                    "time": 33.33326,
                    "velocity": 0.3543307086614173,
                    "duration": 0.3267966666666666
                },
                {
                    "name": "A2",
                    "midi": 45,
                    "time": 33.725416,
                    "velocity": 0.3543307086614173,
                    "duration": 0.3267966666666666
                },
                {
                    "name": "A2",
                    "midi": 45,
                    "time": 34.117572,
                    "velocity": 0.3543307086614173,
                    "duration": 0.3267966666666666
                },
                {
                    "name": "A2",
                    "midi": 45,
                    "time": 34.509728,
                    "velocity": 0.3543307086614173,
                    "duration": 0.3267966666666666
                },
                {
                    "name": "A2",
                    "midi": 45,
                    "time": 34.901884,
                    "velocity": 0.3543307086614173,
                    "duration": 0.3267966666666666
                },
                {
                    "name": "A2",
                    "midi": 45,
                    "time": 35.29404,
                    "velocity": 0.3543307086614173,
                    "duration": 0.3267966666666666
                },
                {
                    "name": "A2",
                    "midi": 45,
                    "time": 35.686196,
                    "velocity": 0.3543307086614173,
                    "duration": 0.3267966666666666
                },
                {
                    "name": "A2",
                    "midi": 45,
                    "time": 36.078352,
                    "velocity": 0.3543307086614173,
                    "duration": 0.3267966666666666
                },
                {
                    "name": "A2",
                    "midi": 45,
                    "time": 37.646976,
                    "velocity": 0.3543307086614173,
                    "duration": 0.3267966666666666
                },
                {
                    "name": "A2",
                    "midi": 45,
                    "time": 38.039132,
                    "velocity": 0.3543307086614173,
                    "duration": 0.3267966666666666
                },
                {
                    "name": "A2",
                    "midi": 45,
                    "time": 38.431288,
                    "velocity": 0.3543307086614173,
                    "duration": 0.3267966666666666
                },
                {
                    "name": "A2",
                    "midi": 45,
                    "time": 38.823444,
                    "velocity": 0.3543307086614173,
                    "duration": 0.3267966666666666
                },
                {
                    "name": "A2",
                    "midi": 45,
                    "time": 39.2156,
                    "velocity": 0.3543307086614173,
                    "duration": 0.3267966666666666
                },
                {
                    "name": "A2",
                    "midi": 45,
                    "time": 40.784224,
                    "velocity": 0.3543307086614173,
                    "duration": 0.3267966666666666
                },
                {
                    "name": "A2",
                    "midi": 45,
                    "time": 41.17638,
                    "velocity": 0.3543307086614173,
                    "duration": 0.3267966666666666
                },
                {
                    "name": "A2",
                    "midi": 45,
                    "time": 41.568536,
                    "velocity": 0.3543307086614173,
                    "duration": 0.3267966666666666
                },
                {
                    "name": "A2",
                    "midi": 45,
                    "time": 41.960692,
                    "velocity": 0.3543307086614173,
                    "duration": 0.3267966666666666
                },
                {
                    "name": "A2",
                    "midi": 45,
                    "time": 42.352848,
                    "velocity": 0.3543307086614173,
                    "duration": 0.3267966666666666
                },
                {
                    "name": "A2",
                    "midi": 45,
                    "time": 42.745004,
                    "velocity": 0.3543307086614173,
                    "duration": 0.3267966666666666
                },
                {
                    "name": "A2",
                    "midi": 45,
                    "time": 43.13716,
                    "velocity": 0.3543307086614173,
                    "duration": 0.3267966666666666
                },
                {
                    "name": "A2",
                    "midi": 45,
                    "time": 43.529316,
                    "velocity": 0.3543307086614173,
                    "duration": 0.3267966666666666
                },
                {
                    "name": "A2",
                    "midi": 45,
                    "time": 43.921472,
                    "velocity": 0.3543307086614173,
                    "duration": 0.3267966666666666
                },
                {
                    "name": "A2",
                    "midi": 45,
                    "time": 44.313628,
                    "velocity": 0.3543307086614173,
                    "duration": 0.3267966666666666
                },
                {
                    "name": "A2",
                    "midi": 45,
                    "time": 44.705784,
                    "velocity": 0.3543307086614173,
                    "duration": 0.3267966666666666
                },
                {
                    "name": "A2",
                    "midi": 45,
                    "time": 45.09794,
                    "velocity": 0.3543307086614173,
                    "duration": 0.3267966666666666
                },
                {
                    "name": "A2",
                    "midi": 45,
                    "time": 45.490096,
                    "velocity": 0.3543307086614173,
                    "duration": 0.3267966666666666
                },
                {
                    "name": "A2",
                    "midi": 45,
                    "time": 46.274408,
                    "velocity": 0.3543307086614173,
                    "duration": 0.3267966666666666
                },
                {
                    "name": "A2",
                    "midi": 45,
                    "time": 46.666564,
                    "velocity": 0.3543307086614173,
                    "duration": 0.3267966666666666
                },
                {
                    "name": "A2",
                    "midi": 45,
                    "time": 47.05872,
                    "velocity": 0.3543307086614173,
                    "duration": 0.3267966666666666
                },
                {
                    "name": "A2",
                    "midi": 45,
                    "time": 47.450876,
                    "velocity": 0.3543307086614173,
                    "duration": 0.3267966666666666
                },
                {
                    "name": "A2",
                    "midi": 45,
                    "time": 47.843032,
                    "velocity": 0.3543307086614173,
                    "duration": 0.3267966666666666
                },
                {
                    "name": "A2",
                    "midi": 45,
                    "time": 48.235188,
                    "velocity": 0.3543307086614173,
                    "duration": 0.3267966666666666
                },
                {
                    "name": "A2",
                    "midi": 45,
                    "time": 48.627344,
                    "velocity": 0.3543307086614173,
                    "duration": 0.3267966666666666
                },
                {
                    "name": "A2",
                    "midi": 45,
                    "time": 49.0195,
                    "velocity": 0.3543307086614173,
                    "duration": 0.3267966666666666
                },
                {
                    "name": "A2",
                    "midi": 45,
                    "time": 49.411656,
                    "velocity": 0.3543307086614173,
                    "duration": 0.3267966666666666
                },
                {
                    "name": "A2",
                    "midi": 45,
                    "time": 49.803812,
                    "velocity": 0.3543307086614173,
                    "duration": 0.3267966666666666
                },
                {
                    "name": "A2",
                    "midi": 45,
                    "time": 50.195968,
                    "velocity": 0.3543307086614173,
                    "duration": 0.3267966666666666
                },
                {
                    "name": "A2",
                    "midi": 45,
                    "time": 50.588124,
                    "velocity": 0.3543307086614173,
                    "duration": 0.3267966666666666
                },
                {
                    "name": "A2",
                    "midi": 45,
                    "time": 50.98028,
                    "velocity": 0.3543307086614173,
                    "duration": 0.3267966666666666
                },
                {
                    "name": "A2",
                    "midi": 45,
                    "time": 51.372436,
                    "velocity": 0.3543307086614173,
                    "duration": 0.3267966666666666
                },
                {
                    "name": "A2",
                    "midi": 45,
                    "time": 51.764592,
                    "velocity": 0.3543307086614173,
                    "duration": 0.3267966666666666
                },
                {
                    "name": "A2",
                    "midi": 45,
                    "time": 52.156748,
                    "velocity": 0.3543307086614173,
                    "duration": 0.3267966666666666
                },
                {
                    "name": "A2",
                    "midi": 45,
                    "time": 52.548904,
                    "velocity": 0.3543307086614173,
                    "duration": 0.3267966666666666
                },
                {
                    "name": "A2",
                    "midi": 45,
                    "time": 52.94106,
                    "velocity": 0.3543307086614173,
                    "duration": 0.3267966666666666
                },
                {
                    "name": "A2",
                    "midi": 45,
                    "time": 53.333216,
                    "velocity": 0.3543307086614173,
                    "duration": 0.3267966666666666
                },
                {
                    "name": "A2",
                    "midi": 45,
                    "time": 53.725372,
                    "velocity": 0.3543307086614173,
                    "duration": 0.3267966666666666
                },
                {
                    "name": "A2",
                    "midi": 45,
                    "time": 54.117528,
                    "velocity": 0.3543307086614173,
                    "duration": 0.3267966666666666
                },
                {
                    "name": "A2",
                    "midi": 45,
                    "time": 54.509684,
                    "velocity": 0.3543307086614173,
                    "duration": 0.3267966666666666
                },
                {
                    "name": "A2",
                    "midi": 45,
                    "time": 54.90184,
                    "velocity": 0.3543307086614173,
                    "duration": 0.3267966666666666
                },
                {
                    "name": "A2",
                    "midi": 45,
                    "time": 55.293996,
                    "velocity": 0.3543307086614173,
                    "duration": 0.3267966666666666
                },
                {
                    "name": "A2",
                    "midi": 45,
                    "time": 55.686152,
                    "velocity": 0.3543307086614173,
                    "duration": 0.3267966666666666
                },
                {
                    "name": "A2",
                    "midi": 45,
                    "time": 56.078308,
                    "velocity": 0.3543307086614173,
                    "duration": 0.3267966666666666
                },
                {
                    "name": "A2",
                    "midi": 45,
                    "time": 56.470464,
                    "velocity": 0.3543307086614173,
                    "duration": 0.3267966666666666
                },
                {
                    "name": "A2",
                    "midi": 45,
                    "time": 56.86262,
                    "velocity": 0.3543307086614173,
                    "duration": 0.3267966666666666
                },
                {
                    "name": "A2",
                    "midi": 45,
                    "time": 57.254776,
                    "velocity": 0.3543307086614173,
                    "duration": 0.3267966666666666
                },
                {
                    "name": "A2",
                    "midi": 45,
                    "time": 57.646932,
                    "velocity": 0.3543307086614173,
                    "duration": 0.3267966666666666
                },
                {
                    "name": "A2",
                    "midi": 45,
                    "time": 58.039088,
                    "velocity": 0.3543307086614173,
                    "duration": 0.3267966666666666
                },
                {
                    "name": "A2",
                    "midi": 45,
                    "time": 58.431244,
                    "velocity": 0.3543307086614173,
                    "duration": 0.3267966666666666
                },
                {
                    "name": "A2",
                    "midi": 45,
                    "time": 58.8234,
                    "velocity": 0.3543307086614173,
                    "duration": 0.3267966666666666
                },
                {
                    "name": "A2",
                    "midi": 45,
                    "time": 59.215556,
                    "velocity": 0.3543307086614173,
                    "duration": 0.3267966666666666
                },
                {
                    "name": "A2",
                    "midi": 45,
                    "time": 59.607712,
                    "velocity": 0.3543307086614173,
                    "duration": 0.3267966666666666
                },
                {
                    "name": "A2",
                    "midi": 45,
                    "time": 59.999868,
                    "velocity": 0.3543307086614173,
                    "duration": 0.3267966666666666
                },
                {
                    "name": "A2",
                    "midi": 45,
                    "time": 60.392024,
                    "velocity": 0.3543307086614173,
                    "duration": 0.3267966666666666
                },
                {
                    "name": "A2",
                    "midi": 45,
                    "time": 60.78418,
                    "velocity": 0.3543307086614173,
                    "duration": 0.3267966666666666
                },
                {
                    "name": "A2",
                    "midi": 45,
                    "time": 61.176336,
                    "velocity": 0.3543307086614173,
                    "duration": 0.3267966666666666
                },
                {
                    "name": "A2",
                    "midi": 45,
                    "time": 61.568492,
                    "velocity": 0.3543307086614173,
                    "duration": 0.3267966666666666
                },
                {
                    "name": "A2",
                    "midi": 45,
                    "time": 61.960648,
                    "velocity": 0.3543307086614173,
                    "duration": 0.3267966666666666
                },
                {
                    "name": "A2",
                    "midi": 45,
                    "time": 62.352804,
                    "velocity": 0.3543307086614173,
                    "duration": 0.3267966666666666
                },
                {
                    "name": "A2",
                    "midi": 45,
                    "time": 62.74496,
                    "velocity": 0.3543307086614173,
                    "duration": 0.3267966666666666
                },
                {
                    "name": "A2",
                    "midi": 45,
                    "time": 63.137116,
                    "velocity": 0.3543307086614173,
                    "duration": 0.3267966666666666
                },
                {
                    "name": "A2",
                    "midi": 45,
                    "time": 63.529272,
                    "velocity": 0.3543307086614173,
                    "duration": 0.3267966666666666
                },
                {
                    "name": "A2",
                    "midi": 45,
                    "time": 63.921428,
                    "velocity": 0.3543307086614173,
                    "duration": 0.32679666666667373
                },
                {
                    "name": "A2",
                    "midi": 45,
                    "time": 64.313584,
                    "velocity": 0.3543307086614173,
                    "duration": 0.3267966666666666
                },
                {
                    "name": "A2",
                    "midi": 45,
                    "time": 64.70574,
                    "velocity": 0.3543307086614173,
                    "duration": 0.3267966666666666
                },
                {
                    "name": "A2",
                    "midi": 45,
                    "time": 65.097896,
                    "velocity": 0.3543307086614173,
                    "duration": 0.3267966666666666
                },
                {
                    "name": "A2",
                    "midi": 45,
                    "time": 65.490052,
                    "velocity": 0.3543307086614173,
                    "duration": 0.3267966666666666
                },
                {
                    "name": "A2",
                    "midi": 45,
                    "time": 65.882208,
                    "velocity": 0.3543307086614173,
                    "duration": 0.3267966666666666
                },
                {
                    "name": "A2",
                    "midi": 45,
                    "time": 66.274364,
                    "velocity": 0.3543307086614173,
                    "duration": 0.3267966666666666
                },
                {
                    "name": "A2",
                    "midi": 45,
                    "time": 66.66652,
                    "velocity": 0.3543307086614173,
                    "duration": 0.3267966666666666
                },
                {
                    "name": "A2",
                    "midi": 45,
                    "time": 67.058676,
                    "velocity": 0.3543307086614173,
                    "duration": 0.3267966666666666
                },
                {
                    "name": "A2",
                    "midi": 45,
                    "time": 67.450832,
                    "velocity": 0.3543307086614173,
                    "duration": 0.3267966666666666
                },
                {
                    "name": "A2",
                    "midi": 45,
                    "time": 67.842988,
                    "velocity": 0.3543307086614173,
                    "duration": 0.3267966666666666
                },
                {
                    "name": "A2",
                    "midi": 45,
                    "time": 68.235144,
                    "velocity": 0.3543307086614173,
                    "duration": 0.3267966666666666
                },
                {
                    "name": "A2",
                    "midi": 45,
                    "time": 68.6273,
                    "velocity": 0.3543307086614173,
                    "duration": 0.3267966666666666
                },
                {
                    "name": "A2",
                    "midi": 45,
                    "time": 69.019456,
                    "velocity": 0.3543307086614173,
                    "duration": 0.3267966666666666
                },
                {
                    "name": "A2",
                    "midi": 45,
                    "time": 69.411612,
                    "velocity": 0.3543307086614173,
                    "duration": 0.3267966666666666
                },
                {
                    "name": "A2",
                    "midi": 45,
                    "time": 69.803768,
                    "velocity": 0.3543307086614173,
                    "duration": 0.3267966666666666
                },
                {
                    "name": "A2",
                    "midi": 45,
                    "time": 70.195924,
                    "velocity": 0.3543307086614173,
                    "duration": 0.3267966666666666
                },
                {
                    "name": "A2",
                    "midi": 45,
                    "time": 70.58808,
                    "velocity": 0.3543307086614173,
                    "duration": 0.1919930416666631
                },
                {
                    "name": "A2",
                    "midi": 45,
                    "time": 70.784158,
                    "velocity": 0.3543307086614173,
                    "duration": 0.1919930416666631
                },
                {
                    "name": "A2",
                    "midi": 45,
                    "time": 72.156704,
                    "velocity": 0.3543307086614173,
                    "duration": 0.3267966666666666
                },
                {
                    "name": "A2",
                    "midi": 45,
                    "time": 73.725328,
                    "velocity": 0.3543307086614173,
                    "duration": 0.3267966666666666
                },
                {
                    "name": "A2",
                    "midi": 45,
                    "time": 75.293952,
                    "velocity": 0.3543307086614173,
                    "duration": 0.3267966666666666
                },
                {
                    "name": "A2",
                    "midi": 45,
                    "time": 77.646888,
                    "velocity": 0.3543307086614173,
                    "duration": 0.3267966666666666
                },
                {
                    "name": "A2",
                    "midi": 45,
                    "time": 78.039044,
                    "velocity": 0.3543307086614173,
                    "duration": 0.3267966666666666
                },
                {
                    "name": "A2",
                    "midi": 45,
                    "time": 78.4312,
                    "velocity": 0.3543307086614173,
                    "duration": 0.3267966666666666
                },
                {
                    "name": "A2",
                    "midi": 45,
                    "time": 78.823356,
                    "velocity": 0.3543307086614173,
                    "duration": 0.3267966666666666
                },
                {
                    "name": "A2",
                    "midi": 45,
                    "time": 79.215512,
                    "velocity": 0.3543307086614173,
                    "duration": 0.3267966666666666
                },
                {
                    "name": "A2",
                    "midi": 45,
                    "time": 79.607668,
                    "velocity": 0.3543307086614173,
                    "duration": 0.3267966666666666
                },
                {
                    "name": "A2",
                    "midi": 45,
                    "time": 79.999824,
                    "velocity": 0.3543307086614173,
                    "duration": 0.3267966666666666
                },
                {
                    "name": "A2",
                    "midi": 45,
                    "time": 80.39198,
                    "velocity": 0.3543307086614173,
                    "duration": 0.3267966666666666
                },
                {
                    "name": "A2",
                    "midi": 45,
                    "time": 80.784136,
                    "velocity": 0.3543307086614173,
                    "duration": 0.3267966666666666
                },
                {
                    "name": "A2",
                    "midi": 45,
                    "time": 81.176292,
                    "velocity": 0.3543307086614173,
                    "duration": 0.3267966666666666
                },
                {
                    "name": "A2",
                    "midi": 45,
                    "time": 81.568448,
                    "velocity": 0.3543307086614173,
                    "duration": 0.3267966666666666
                },
                {
                    "name": "A2",
                    "midi": 45,
                    "time": 81.960604,
                    "velocity": 0.3543307086614173,
                    "duration": 0.3267966666666666
                },
                {
                    "name": "A2",
                    "midi": 45,
                    "time": 82.35276,
                    "velocity": 0.3543307086614173,
                    "duration": 0.3267966666666666
                },
                {
                    "name": "A2",
                    "midi": 45,
                    "time": 82.744916,
                    "velocity": 0.3543307086614173,
                    "duration": 0.3267966666666666
                },
                {
                    "name": "A2",
                    "midi": 45,
                    "time": 83.137072,
                    "velocity": 0.3543307086614173,
                    "duration": 0.3267966666666666
                },
                {
                    "name": "A2",
                    "midi": 45,
                    "time": 83.529228,
                    "velocity": 0.3543307086614173,
                    "duration": 0.3267966666666666
                },
                {
                    "name": "A2",
                    "midi": 45,
                    "time": 83.921384,
                    "velocity": 0.3543307086614173,
                    "duration": 0.3267966666666666
                },
                {
                    "name": "A2",
                    "midi": 45,
                    "time": 84.31354,
                    "velocity": 0.3543307086614173,
                    "duration": 0.3267966666666666
                },
                {
                    "name": "A2",
                    "midi": 45,
                    "time": 84.705696,
                    "velocity": 0.3543307086614173,
                    "duration": 0.3267966666666666
                },
                {
                    "name": "A2",
                    "midi": 45,
                    "time": 85.097852,
                    "velocity": 0.3543307086614173,
                    "duration": 0.3267966666666666
                },
                {
                    "name": "A2",
                    "midi": 45,
                    "time": 85.490008,
                    "velocity": 0.3543307086614173,
                    "duration": 0.3267966666666666
                },
                {
                    "name": "A2",
                    "midi": 45,
                    "time": 85.882164,
                    "velocity": 0.3543307086614173,
                    "duration": 0.3267966666666666
                },
                {
                    "name": "A2",
                    "midi": 45,
                    "time": 86.27432,
                    "velocity": 0.3543307086614173,
                    "duration": 0.3267966666666666
                },
                {
                    "name": "A2",
                    "midi": 45,
                    "time": 86.666476,
                    "velocity": 0.3543307086614173,
                    "duration": 0.3267966666666666
                },
                {
                    "name": "A2",
                    "midi": 45,
                    "time": 87.058632,
                    "velocity": 0.3543307086614173,
                    "duration": 0.3267966666666666
                },
                {
                    "name": "A2",
                    "midi": 45,
                    "time": 87.450788,
                    "velocity": 0.3543307086614173,
                    "duration": 0.3267966666666666
                },
                {
                    "name": "A2",
                    "midi": 45,
                    "time": 87.842944,
                    "velocity": 0.3543307086614173,
                    "duration": 0.3267966666666666
                },
                {
                    "name": "A2",
                    "midi": 45,
                    "time": 88.2351,
                    "velocity": 0.3543307086614173,
                    "duration": 0.3267966666666666
                },
                {
                    "name": "A2",
                    "midi": 45,
                    "time": 88.627256,
                    "velocity": 0.3543307086614173,
                    "duration": 0.3267966666666666
                },
                {
                    "name": "A2",
                    "midi": 45,
                    "time": 89.019412,
                    "velocity": 0.3543307086614173,
                    "duration": 0.3267966666666666
                },
                {
                    "name": "A2",
                    "midi": 45,
                    "time": 89.411568,
                    "velocity": 0.3543307086614173,
                    "duration": 0.3267966666666666
                },
                {
                    "name": "A2",
                    "midi": 45,
                    "time": 89.803724,
                    "velocity": 0.3543307086614173,
                    "duration": 0.3267966666666666
                },
                {
                    "name": "A2",
                    "midi": 45,
                    "time": 90.19588,
                    "velocity": 0.3543307086614173,
                    "duration": 0.3267966666666666
                },
                {
                    "name": "A2",
                    "midi": 45,
                    "time": 90.588036,
                    "velocity": 0.3543307086614173,
                    "duration": 0.3267966666666666
                },
                {
                    "name": "A2",
                    "midi": 45,
                    "time": 90.980192,
                    "velocity": 0.3543307086614173,
                    "duration": 0.3267966666666666
                },
                {
                    "name": "A2",
                    "midi": 45,
                    "time": 91.372348,
                    "velocity": 0.3543307086614173,
                    "duration": 0.3267966666666666
                },
                {
                    "name": "A2",
                    "midi": 45,
                    "time": 91.764504,
                    "velocity": 0.3543307086614173,
                    "duration": 0.3267966666666666
                },
                {
                    "name": "A2",
                    "midi": 45,
                    "time": 92.15666,
                    "velocity": 0.3543307086614173,
                    "duration": 0.3267966666666666
                },
                {
                    "name": "A2",
                    "midi": 45,
                    "time": 92.548816,
                    "velocity": 0.3543307086614173,
                    "duration": 0.3267966666666666
                },
                {
                    "name": "A2",
                    "midi": 45,
                    "time": 92.940972,
                    "velocity": 0.3543307086614173,
                    "duration": 0.3267966666666666
                },
                {
                    "name": "A2",
                    "midi": 45,
                    "time": 93.333128,
                    "velocity": 0.3543307086614173,
                    "duration": 0.3267966666666666
                },
                {
                    "name": "A2",
                    "midi": 45,
                    "time": 93.725284,
                    "velocity": 0.3543307086614173,
                    "duration": 0.3267966666666666
                },
                {
                    "name": "A2",
                    "midi": 45,
                    "time": 94.11744,
                    "velocity": 0.3543307086614173,
                    "duration": 0.3267966666666666
                },
                {
                    "name": "A2",
                    "midi": 45,
                    "time": 94.509596,
                    "velocity": 0.3543307086614173,
                    "duration": 0.3267966666666666
                },
                {
                    "name": "A2",
                    "midi": 45,
                    "time": 94.901752,
                    "velocity": 0.3543307086614173,
                    "duration": 0.3267966666666666
                },
                {
                    "name": "A2",
                    "midi": 45,
                    "time": 95.293908,
                    "velocity": 0.3543307086614173,
                    "duration": 0.3267966666666666
                },
                {
                    "name": "A2",
                    "midi": 45,
                    "time": 95.686064,
                    "velocity": 0.47244094488188976,
                    "duration": 0.3267966666666666
                },
                {
                    "name": "A2",
                    "midi": 45,
                    "time": 96.07822,
                    "velocity": 0.47244094488188976,
                    "duration": 0.3267966666666666
                },
                {
                    "name": "A2",
                    "midi": 45,
                    "time": 96.470376,
                    "velocity": 0.47244094488188976,
                    "duration": 0.3267966666666666
                },
                {
                    "name": "A2",
                    "midi": 45,
                    "time": 97.05861,
                    "velocity": 0.6614173228346457,
                    "duration": 0.5228746666666666
                },
                {
                    "name": "A2",
                    "midi": 45,
                    "time": 97.646844,
                    "velocity": 0.47244094488188976,
                    "duration": 0.3267966666666666
                },
                {
                    "name": "A2",
                    "midi": 45,
                    "time": 98.039,
                    "velocity": 0.47244094488188976,
                    "duration": 0.3267966666666666
                },
                {
                    "name": "A2",
                    "midi": 45,
                    "time": 98.431156,
                    "velocity": 0.47244094488188976,
                    "duration": 0.3267966666666666
                },
                {
                    "name": "A2",
                    "midi": 45,
                    "time": 98.823312,
                    "velocity": 0.47244094488188976,
                    "duration": 0.3267966666666666
                },
                {
                    "name": "A2",
                    "midi": 45,
                    "time": 99.215468,
                    "velocity": 0.47244094488188976,
                    "duration": 0.3267966666666666
                },
                {
                    "name": "A2",
                    "midi": 45,
                    "time": 99.607624,
                    "velocity": 0.47244094488188976,
                    "duration": 0.3267966666666666
                },
                {
                    "name": "A2",
                    "midi": 45,
                    "time": 100.195858,
                    "velocity": 0.6614173228346457,
                    "duration": 0.5228746666666666
                },
                {
                    "name": "A2",
                    "midi": 45,
                    "time": 100.784092,
                    "velocity": 0.47244094488188976,
                    "duration": 0.3267966666666666
                },
                {
                    "name": "A2",
                    "midi": 45,
                    "time": 101.176248,
                    "velocity": 0.47244094488188976,
                    "duration": 0.3267966666666666
                },
                {
                    "name": "A2",
                    "midi": 45,
                    "time": 101.568404,
                    "velocity": 0.47244094488188976,
                    "duration": 0.3267966666666666
                },
                {
                    "name": "A2",
                    "midi": 45,
                    "time": 101.96056,
                    "velocity": 0.47244094488188976,
                    "duration": 0.3267966666666666
                },
                {
                    "name": "A2",
                    "midi": 45,
                    "time": 102.352716,
                    "velocity": 0.47244094488188976,
                    "duration": 0.3267966666666666
                },
                {
                    "name": "A2",
                    "midi": 45,
                    "time": 102.744872,
                    "velocity": 0.47244094488188976,
                    "duration": 0.3267966666666666
                },
                {
                    "name": "A2",
                    "midi": 45,
                    "time": 103.137028,
                    "velocity": 0.47244094488188976,
                    "duration": 0.3267966666666666
                },
                {
                    "name": "A2",
                    "midi": 45,
                    "time": 103.529184,
                    "velocity": 0.47244094488188976,
                    "duration": 0.3267966666666666
                },
                {
                    "name": "A2",
                    "midi": 45,
                    "time": 103.92134,
                    "velocity": 0.47244094488188976,
                    "duration": 0.3267966666666666
                },
                {
                    "name": "A2",
                    "midi": 45,
                    "time": 104.313496,
                    "velocity": 0.47244094488188976,
                    "duration": 0.3267966666666666
                },
                {
                    "name": "A2",
                    "midi": 45,
                    "time": 104.705652,
                    "velocity": 0.47244094488188976,
                    "duration": 0.3267966666666666
                },
                {
                    "name": "A2",
                    "midi": 45,
                    "time": 105.097808,
                    "velocity": 0.47244094488188976,
                    "duration": 0.3267966666666666
                },
                {
                    "name": "A2",
                    "midi": 45,
                    "time": 105.489964,
                    "velocity": 0.47244094488188976,
                    "duration": 0.3267966666666666
                },
                {
                    "name": "A2",
                    "midi": 45,
                    "time": 105.88212,
                    "velocity": 0.47244094488188976,
                    "duration": 0.3267966666666666
                },
                {
                    "name": "A2",
                    "midi": 45,
                    "time": 106.274276,
                    "velocity": 0.47244094488188976,
                    "duration": 0.3267966666666666
                },
                {
                    "name": "A2",
                    "midi": 45,
                    "time": 106.666432,
                    "velocity": 0.47244094488188976,
                    "duration": 0.3267966666666666
                },
                {
                    "name": "A2",
                    "midi": 45,
                    "time": 107.058588,
                    "velocity": 0.47244094488188976,
                    "duration": 0.3267966666666666
                },
                {
                    "name": "A2",
                    "midi": 45,
                    "time": 107.450744,
                    "velocity": 0.47244094488188976,
                    "duration": 0.3267966666666666
                },
                {
                    "name": "A2",
                    "midi": 45,
                    "time": 107.8429,
                    "velocity": 0.47244094488188976,
                    "duration": 0.3267966666666666
                },
                {
                    "name": "A2",
                    "midi": 45,
                    "time": 108.235056,
                    "velocity": 0.47244094488188976,
                    "duration": 0.3267966666666666
                },
                {
                    "name": "A2",
                    "midi": 45,
                    "time": 109.019368,
                    "velocity": 0.3543307086614173,
                    "duration": 0.3267966666666666
                },
                {
                    "name": "A2",
                    "midi": 45,
                    "time": 109.411524,
                    "velocity": 0.3543307086614173,
                    "duration": 0.3267966666666666
                },
                {
                    "name": "A2",
                    "midi": 45,
                    "time": 109.80368,
                    "velocity": 0.3543307086614173,
                    "duration": 0.3267966666666666
                },
                {
                    "name": "A2",
                    "midi": 45,
                    "time": 110.587992,
                    "velocity": 0.3543307086614173,
                    "duration": 0.3267966666666666
                },
                {
                    "name": "A2",
                    "midi": 45,
                    "time": 111.372304,
                    "velocity": 0.3543307086614173,
                    "duration": 0.3267966666666666
                },
                {
                    "name": "A2",
                    "midi": 45,
                    "time": 112.156616,
                    "velocity": 0.3543307086614173,
                    "duration": 0.3267966666666666
                },
                {
                    "name": "A2",
                    "midi": 45,
                    "time": 112.548772,
                    "velocity": 0.3543307086614173,
                    "duration": 0.3267966666666666
                },
                {
                    "name": "A2",
                    "midi": 45,
                    "time": 112.940928,
                    "velocity": 0.3543307086614173,
                    "duration": 0.3267966666666666
                },
                {
                    "name": "A2",
                    "midi": 45,
                    "time": 113.72524,
                    "velocity": 0.3543307086614173,
                    "duration": 0.3267966666666666
                },
                {
                    "name": "A2",
                    "midi": 45,
                    "time": 114.509552,
                    "velocity": 0.3543307086614173,
                    "duration": 0.3267966666666666
                },
                {
                    "name": "A2",
                    "midi": 45,
                    "time": 114.901708,
                    "velocity": 0.3543307086614173,
                    "duration": 0.3267966666666666
                },
                {
                    "name": "A2",
                    "midi": 45,
                    "time": 115.293864,
                    "velocity": 0.3543307086614173,
                    "duration": 0.3267966666666666
                },
                {
                    "name": "A2",
                    "midi": 45,
                    "time": 115.68602,
                    "velocity": 0.3543307086614173,
                    "duration": 0.3267966666666666
                },
                {
                    "name": "A2",
                    "midi": 45,
                    "time": 116.078176,
                    "velocity": 0.3543307086614173,
                    "duration": 0.3267966666666666
                },
                {
                    "name": "A2",
                    "midi": 45,
                    "time": 116.470332,
                    "velocity": 0.3543307086614173,
                    "duration": 0.3267966666666666
                },
                {
                    "name": "A2",
                    "midi": 45,
                    "time": 116.862488,
                    "velocity": 0.3543307086614173,
                    "duration": 0.3267966666666666
                },
                {
                    "name": "A2",
                    "midi": 45,
                    "time": 117.254644,
                    "velocity": 0.3543307086614173,
                    "duration": 0.3267966666666666
                },
                {
                    "name": "A2",
                    "midi": 45,
                    "time": 117.6468,
                    "velocity": 0.3543307086614173,
                    "duration": 0.3267966666666666
                },
                {
                    "name": "A2",
                    "midi": 45,
                    "time": 118.431112,
                    "velocity": 0.3543307086614173,
                    "duration": 0.3267966666666666
                },
                {
                    "name": "A2",
                    "midi": 45,
                    "time": 119.215424,
                    "velocity": 0.3543307086614173,
                    "duration": 0.3267966666666666
                },
                {
                    "name": "A2",
                    "midi": 45,
                    "time": 119.999736,
                    "velocity": 0.3543307086614173,
                    "duration": 0.3267966666666666
                },
                {
                    "name": "A2",
                    "midi": 45,
                    "time": 120.784048,
                    "velocity": 0.3543307086614173,
                    "duration": 0.3267966666666666
                },
                {
                    "name": "A2",
                    "midi": 45,
                    "time": 121.176204,
                    "velocity": 0.3543307086614173,
                    "duration": 0.3267966666666666
                },
                {
                    "name": "A2",
                    "midi": 45,
                    "time": 121.56836,
                    "velocity": 0.3543307086614173,
                    "duration": 0.3267966666666666
                },
                {
                    "name": "A2",
                    "midi": 45,
                    "time": 121.960516,
                    "velocity": 0.3543307086614173,
                    "duration": 0.3267966666666666
                },
                {
                    "name": "A2",
                    "midi": 45,
                    "time": 122.352672,
                    "velocity": 0.3543307086614173,
                    "duration": 0.3267966666666666
                },
                {
                    "name": "A2",
                    "midi": 45,
                    "time": 122.744828,
                    "velocity": 0.3543307086614173,
                    "duration": 0.3267966666666666
                },
                {
                    "name": "A2",
                    "midi": 45,
                    "time": 123.136984,
                    "velocity": 0.3543307086614173,
                    "duration": 0.3267966666666666
                },
                {
                    "name": "A2",
                    "midi": 45,
                    "time": 123.52914,
                    "velocity": 0.3543307086614173,
                    "duration": 0.3267966666666666
                },
                {
                    "name": "A2",
                    "midi": 45,
                    "time": 123.921296,
                    "velocity": 0.3543307086614173,
                    "duration": 0.3267966666666666
                },
                {
                    "name": "A2",
                    "midi": 45,
                    "time": 124.313452,
                    "velocity": 0.3543307086614173,
                    "duration": 0.3267966666666666
                },
                {
                    "name": "A2",
                    "midi": 45,
                    "time": 124.705608,
                    "velocity": 0.3543307086614173,
                    "duration": 0.3267966666666666
                },
                {
                    "name": "A2",
                    "midi": 45,
                    "time": 125.097764,
                    "velocity": 0.3543307086614173,
                    "duration": 0.3267966666666666
                },
                {
                    "name": "A2",
                    "midi": 45,
                    "time": 125.48992,
                    "velocity": 0.3543307086614173,
                    "duration": 0.3267966666666666
                },
                {
                    "name": "A2",
                    "midi": 45,
                    "time": 125.882076,
                    "velocity": 0.3543307086614173,
                    "duration": 0.3267966666666666
                },
                {
                    "name": "A2",
                    "midi": 45,
                    "time": 126.274232,
                    "velocity": 0.3543307086614173,
                    "duration": 0.3267966666666666
                },
                {
                    "name": "A2",
                    "midi": 45,
                    "time": 126.666388,
                    "velocity": 0.3543307086614173,
                    "duration": 0.3267966666666666
                },
                {
                    "name": "A2",
                    "midi": 45,
                    "time": 127.058544,
                    "velocity": 0.3543307086614173,
                    "duration": 0.3267966666666666
                },
                {
                    "name": "A2",
                    "midi": 45,
                    "time": 127.4507,
                    "velocity": 0.3543307086614173,
                    "duration": 0.3267966666666666
                },
                {
                    "name": "A2",
                    "midi": 45,
                    "time": 127.842856,
                    "velocity": 0.3543307086614173,
                    "duration": 0.32679666666668084
                },
                {
                    "name": "A2",
                    "midi": 45,
                    "time": 128.235012,
                    "velocity": 0.3543307086614173,
                    "duration": 0.3267966666666666
                },
                {
                    "name": "A2",
                    "midi": 45,
                    "time": 128.627168,
                    "velocity": 0.3543307086614173,
                    "duration": 0.3267966666666666
                },
                {
                    "name": "A2",
                    "midi": 45,
                    "time": 129.019324,
                    "velocity": 0.3543307086614173,
                    "duration": 0.3267966666666666
                },
                {
                    "name": "A2",
                    "midi": 45,
                    "time": 129.41148,
                    "velocity": 0.3543307086614173,
                    "duration": 0.3267966666666666
                },
                {
                    "name": "A2",
                    "midi": 45,
                    "time": 129.803636,
                    "velocity": 0.3543307086614173,
                    "duration": 0.3267966666666666
                },
                {
                    "name": "A2",
                    "midi": 45,
                    "time": 130.195792,
                    "velocity": 0.3543307086614173,
                    "duration": 0.3267966666666666
                },
                {
                    "name": "A2",
                    "midi": 45,
                    "time": 130.980104,
                    "velocity": 0.3543307086614173,
                    "duration": 0.3267966666666666
                },
                {
                    "name": "A2",
                    "midi": 45,
                    "time": 131.764416,
                    "velocity": 0.3543307086614173,
                    "duration": 0.3267966666666666
                },
                {
                    "name": "A2",
                    "midi": 45,
                    "time": 132.548728,
                    "velocity": 0.3543307086614173,
                    "duration": 0.3267966666666666
                },
                {
                    "name": "A2",
                    "midi": 45,
                    "time": 133.33304,
                    "velocity": 0.3543307086614173,
                    "duration": 0.3267966666666666
                },
                {
                    "name": "A2",
                    "midi": 45,
                    "time": 134.901664,
                    "velocity": 0.3543307086614173,
                    "duration": 0.3267966666666666
                },
                {
                    "name": "A2",
                    "midi": 45,
                    "time": 136.470288,
                    "velocity": 0.3543307086614173,
                    "duration": 0.3267966666666666
                },
                {
                    "name": "A2",
                    "midi": 45,
                    "time": 138.038912,
                    "velocity": 0.3543307086614173,
                    "duration": 0.3267966666666666
                },
                {
                    "name": "A2",
                    "midi": 45,
                    "time": 138.823224,
                    "velocity": 0.3543307086614173,
                    "duration": 0.3267966666666666
                },
                {
                    "name": "A2",
                    "midi": 45,
                    "time": 139.607536,
                    "velocity": 0.3543307086614173,
                    "duration": 0.3267966666666666
                },
                {
                    "name": "A2",
                    "midi": 45,
                    "time": 139.999692,
                    "velocity": 0.3543307086614173,
                    "duration": 0.3267966666666666
                },
                {
                    "name": "A2",
                    "midi": 45,
                    "time": 140.391848,
                    "velocity": 0.3543307086614173,
                    "duration": 0.3267966666666666
                },
                {
                    "name": "A2",
                    "midi": 45,
                    "time": 140.784004,
                    "velocity": 0.3543307086614173,
                    "duration": 0.3267966666666666
                },
                {
                    "name": "A2",
                    "midi": 45,
                    "time": 141.17616,
                    "velocity": 0.3543307086614173,
                    "duration": 0.3267966666666666
                },
                {
                    "name": "A2",
                    "midi": 45,
                    "time": 141.568316,
                    "velocity": 0.3543307086614173,
                    "duration": 0.3267966666666666
                },
                {
                    "name": "A2",
                    "midi": 45,
                    "time": 141.960472,
                    "velocity": 0.3543307086614173,
                    "duration": 0.3267966666666666
                },
                {
                    "name": "A2",
                    "midi": 45,
                    "time": 142.352628,
                    "velocity": 0.3543307086614173,
                    "duration": 0.3267966666666666
                },
                {
                    "name": "A2",
                    "midi": 45,
                    "time": 142.744784,
                    "velocity": 0.3543307086614173,
                    "duration": 0.3267966666666666
                },
                {
                    "name": "A2",
                    "midi": 45,
                    "time": 143.13694,
                    "velocity": 0.3543307086614173,
                    "duration": 0.3267966666666666
                },
                {
                    "name": "A2",
                    "midi": 45,
                    "time": 143.529096,
                    "velocity": 0.3543307086614173,
                    "duration": 0.3267966666666666
                },
                {
                    "name": "A2",
                    "midi": 45,
                    "time": 143.921252,
                    "velocity": 0.3543307086614173,
                    "duration": 0.3267966666666666
                },
                {
                    "name": "A2",
                    "midi": 45,
                    "time": 144.313408,
                    "velocity": 0.3543307086614173,
                    "duration": 0.3267966666666666
                },
                {
                    "name": "A2",
                    "midi": 45,
                    "time": 144.705564,
                    "velocity": 0.3543307086614173,
                    "duration": 0.3267966666666666
                },
                {
                    "name": "A2",
                    "midi": 45,
                    "time": 145.09772,
                    "velocity": 0.3543307086614173,
                    "duration": 0.3267966666666666
                },
                {
                    "name": "A2",
                    "midi": 45,
                    "time": 145.489876,
                    "velocity": 0.3543307086614173,
                    "duration": 0.3267966666666666
                },
                {
                    "name": "A2",
                    "midi": 45,
                    "time": 145.882032,
                    "velocity": 0.3543307086614173,
                    "duration": 0.3267966666666666
                },
                {
                    "name": "A2",
                    "midi": 45,
                    "time": 146.274188,
                    "velocity": 0.3543307086614173,
                    "duration": 0.3267966666666666
                },
                {
                    "name": "A2",
                    "midi": 45,
                    "time": 146.666344,
                    "velocity": 0.3543307086614173,
                    "duration": 0.3267966666666666
                },
                {
                    "name": "A2",
                    "midi": 45,
                    "time": 147.0585,
                    "velocity": 0.3543307086614173,
                    "duration": 0.3267966666666666
                },
                {
                    "name": "A2",
                    "midi": 45,
                    "time": 147.450656,
                    "velocity": 0.3543307086614173,
                    "duration": 0.3267966666666666
                },
                {
                    "name": "A2",
                    "midi": 45,
                    "time": 147.842812,
                    "velocity": 0.3543307086614173,
                    "duration": 0.3267966666666666
                },
                {
                    "name": "A2",
                    "midi": 45,
                    "time": 148.234968,
                    "velocity": 0.3543307086614173,
                    "duration": 0.3267966666666666
                },
                {
                    "name": "A2",
                    "midi": 45,
                    "time": 148.627124,
                    "velocity": 0.3543307086614173,
                    "duration": 0.3267966666666666
                },
                {
                    "name": "A2",
                    "midi": 45,
                    "time": 149.01928,
                    "velocity": 0.3543307086614173,
                    "duration": 0.3267966666666666
                },
                {
                    "name": "A2",
                    "midi": 45,
                    "time": 149.411436,
                    "velocity": 0.3543307086614173,
                    "duration": 0.3267966666666666
                },
                {
                    "name": "A2",
                    "midi": 45,
                    "time": 149.803592,
                    "velocity": 0.3543307086614173,
                    "duration": 0.3267966666666666
                },
                {
                    "name": "A2",
                    "midi": 45,
                    "time": 150.195748,
                    "velocity": 0.3543307086614173,
                    "duration": 0.3267966666666666
                },
                {
                    "name": "A2",
                    "midi": 45,
                    "time": 150.587904,
                    "velocity": 0.3543307086614173,
                    "duration": 0.3267966666666666
                },
                {
                    "name": "A2",
                    "midi": 45,
                    "time": 150.98006,
                    "velocity": 0.3543307086614173,
                    "duration": 0.3267966666666666
                },
                {
                    "name": "A2",
                    "midi": 45,
                    "time": 151.372216,
                    "velocity": 0.3543307086614173,
                    "duration": 0.3267966666666666
                },
                {
                    "name": "A2",
                    "midi": 45,
                    "time": 151.764372,
                    "velocity": 0.3543307086614173,
                    "duration": 0.3267966666666666
                },
                {
                    "name": "A2",
                    "midi": 45,
                    "time": 152.156528,
                    "velocity": 0.3543307086614173,
                    "duration": 0.3267966666666666
                },
                {
                    "name": "A2",
                    "midi": 45,
                    "time": 152.94084,
                    "velocity": 0.3543307086614173,
                    "duration": 0.3267966666666666
                },
                {
                    "name": "A2",
                    "midi": 45,
                    "time": 153.332996,
                    "velocity": 0.3543307086614173,
                    "duration": 0.3267966666666666
                },
                {
                    "name": "A2",
                    "midi": 45,
                    "time": 153.725152,
                    "velocity": 0.3543307086614173,
                    "duration": 0.3267966666666666
                },
                {
                    "name": "A2",
                    "midi": 45,
                    "time": 154.509464,
                    "velocity": 0.3543307086614173,
                    "duration": 0.3267966666666666
                },
                {
                    "name": "A2",
                    "midi": 45,
                    "time": 155.293776,
                    "velocity": 0.3543307086614173,
                    "duration": 0.3267966666666666
                },
                {
                    "name": "A2",
                    "midi": 45,
                    "time": 156.078088,
                    "velocity": 0.3543307086614173,
                    "duration": 0.3267966666666666
                },
                {
                    "name": "A2",
                    "midi": 45,
                    "time": 156.470244,
                    "velocity": 0.3543307086614173,
                    "duration": 0.3267966666666666
                },
                {
                    "name": "A2",
                    "midi": 45,
                    "time": 156.8624,
                    "velocity": 0.3543307086614173,
                    "duration": 0.3267966666666666
                },
                {
                    "name": "A2",
                    "midi": 45,
                    "time": 157.646712,
                    "velocity": 0.3543307086614173,
                    "duration": 0.3267966666666666
                },
                {
                    "name": "A2",
                    "midi": 45,
                    "time": 158.431024,
                    "velocity": 0.3543307086614173,
                    "duration": 0.3267966666666666
                },
                {
                    "name": "A2",
                    "midi": 45,
                    "time": 158.82318,
                    "velocity": 0.3543307086614173,
                    "duration": 0.3267966666666666
                },
                {
                    "name": "A2",
                    "midi": 45,
                    "time": 159.215336,
                    "velocity": 0.3543307086614173,
                    "duration": 0.3267966666666666
                },
                {
                    "name": "A2",
                    "midi": 45,
                    "time": 159.607492,
                    "velocity": 0.3543307086614173,
                    "duration": 0.3267966666666666
                },
                {
                    "name": "A2",
                    "midi": 45,
                    "time": 159.999648,
                    "velocity": 0.3543307086614173,
                    "duration": 0.3267966666666666
                },
                {
                    "name": "A2",
                    "midi": 45,
                    "time": 160.391804,
                    "velocity": 0.3543307086614173,
                    "duration": 0.3267966666666666
                },
                {
                    "name": "A2",
                    "midi": 45,
                    "time": 160.78396,
                    "velocity": 0.3543307086614173,
                    "duration": 0.3267966666666666
                },
                {
                    "name": "A2",
                    "midi": 45,
                    "time": 161.176116,
                    "velocity": 0.3543307086614173,
                    "duration": 0.3267966666666666
                },
                {
                    "name": "A2",
                    "midi": 45,
                    "time": 161.568272,
                    "velocity": 0.3543307086614173,
                    "duration": 0.3267966666666666
                },
                {
                    "name": "A2",
                    "midi": 45,
                    "time": 163.136896,
                    "velocity": 0.3543307086614173,
                    "duration": 0.3267966666666666
                },
                {
                    "name": "A2",
                    "midi": 45,
                    "time": 164.70552,
                    "velocity": 0.3543307086614173,
                    "duration": 0.3267966666666666
                },
                {
                    "name": "A2",
                    "midi": 45,
                    "time": 168.62708,
                    "velocity": 0.3543307086614173,
                    "duration": 0.3267966666666666
                },
                {
                    "name": "A2",
                    "midi": 45,
                    "time": 169.019236,
                    "velocity": 0.3543307086614173,
                    "duration": 0.3267966666666666
                },
                {
                    "name": "A2",
                    "midi": 45,
                    "time": 169.411392,
                    "velocity": 0.3543307086614173,
                    "duration": 0.3267966666666666
                },
                {
                    "name": "A2",
                    "midi": 45,
                    "time": 169.803548,
                    "velocity": 0.3543307086614173,
                    "duration": 0.3267966666666666
                },
                {
                    "name": "A2",
                    "midi": 45,
                    "time": 170.195704,
                    "velocity": 0.3543307086614173,
                    "duration": 0.3267966666666666
                },
                {
                    "name": "A2",
                    "midi": 45,
                    "time": 170.58786,
                    "velocity": 0.3543307086614173,
                    "duration": 0.3267966666666666
                },
                {
                    "name": "A2",
                    "midi": 45,
                    "time": 170.980016,
                    "velocity": 0.3543307086614173,
                    "duration": 0.3267966666666666
                },
                {
                    "name": "A2",
                    "midi": 45,
                    "time": 171.372172,
                    "velocity": 0.3543307086614173,
                    "duration": 0.3267966666666666
                },
                {
                    "name": "A2",
                    "midi": 45,
                    "time": 171.764328,
                    "velocity": 0.3543307086614173,
                    "duration": 0.3267966666666666
                },
                {
                    "name": "A2",
                    "midi": 45,
                    "time": 172.156484,
                    "velocity": 0.3543307086614173,
                    "duration": 0.3267966666666666
                },
                {
                    "name": "A2",
                    "midi": 45,
                    "time": 172.54864,
                    "velocity": 0.3543307086614173,
                    "duration": 0.3267966666666666
                },
                {
                    "name": "A2",
                    "midi": 45,
                    "time": 172.940796,
                    "velocity": 0.3543307086614173,
                    "duration": 0.3267966666666666
                },
                {
                    "name": "A2",
                    "midi": 45,
                    "time": 173.332952,
                    "velocity": 0.3543307086614173,
                    "duration": 0.3267966666666666
                },
                {
                    "name": "A2",
                    "midi": 45,
                    "time": 173.725108,
                    "velocity": 0.3543307086614173,
                    "duration": 0.3267966666666666
                },
                {
                    "name": "A2",
                    "midi": 45,
                    "time": 174.117264,
                    "velocity": 0.3543307086614173,
                    "duration": 0.3267966666666666
                },
                {
                    "name": "A2",
                    "midi": 45,
                    "time": 174.50942,
                    "velocity": 0.3543307086614173,
                    "duration": 0.3267966666666666
                },
                {
                    "name": "A2",
                    "midi": 45,
                    "time": 174.901576,
                    "velocity": 0.3543307086614173,
                    "duration": 0.3267966666666666
                },
                {
                    "name": "A2",
                    "midi": 45,
                    "time": 175.293732,
                    "velocity": 0.3543307086614173,
                    "duration": 0.3267966666666666
                },
                {
                    "name": "A2",
                    "midi": 45,
                    "time": 175.685888,
                    "velocity": 0.3543307086614173,
                    "duration": 0.3267966666666666
                },
                {
                    "name": "A2",
                    "midi": 45,
                    "time": 176.078044,
                    "velocity": 0.3543307086614173,
                    "duration": 0.3267966666666666
                },
                {
                    "name": "A2",
                    "midi": 45,
                    "time": 176.4702,
                    "velocity": 0.3543307086614173,
                    "duration": 0.3267966666666666
                },
                {
                    "name": "A2",
                    "midi": 45,
                    "time": 176.862356,
                    "velocity": 0.3543307086614173,
                    "duration": 0.3267966666666666
                },
                {
                    "name": "A2",
                    "midi": 45,
                    "time": 177.254512,
                    "velocity": 0.3543307086614173,
                    "duration": 0.3267966666666666
                },
                {
                    "name": "A2",
                    "midi": 45,
                    "time": 177.646668,
                    "velocity": 0.3543307086614173,
                    "duration": 0.3267966666666666
                },
                {
                    "name": "A2",
                    "midi": 45,
                    "time": 178.038824,
                    "velocity": 0.3543307086614173,
                    "duration": 0.3267966666666666
                },
                {
                    "name": "A2",
                    "midi": 45,
                    "time": 178.43098,
                    "velocity": 0.3543307086614173,
                    "duration": 0.3267966666666666
                },
                {
                    "name": "A2",
                    "midi": 45,
                    "time": 178.823136,
                    "velocity": 0.3543307086614173,
                    "duration": 0.3267966666666666
                },
                {
                    "name": "A2",
                    "midi": 45,
                    "time": 179.215292,
                    "velocity": 0.3543307086614173,
                    "duration": 0.3267966666666666
                },
                {
                    "name": "A2",
                    "midi": 45,
                    "time": 179.607448,
                    "velocity": 0.3543307086614173,
                    "duration": 0.3267966666666666
                },
                {
                    "name": "A2",
                    "midi": 45,
                    "time": 179.999604,
                    "velocity": 0.3543307086614173,
                    "duration": 0.3267966666666666
                },
                {
                    "name": "A2",
                    "midi": 45,
                    "time": 180.39176,
                    "velocity": 0.3543307086614173,
                    "duration": 0.3267966666666666
                },
                {
                    "name": "A2",
                    "midi": 45,
                    "time": 180.783916,
                    "velocity": 0.3543307086614173,
                    "duration": 0.3267966666666666
                },
                {
                    "name": "A2",
                    "midi": 45,
                    "time": 181.176072,
                    "velocity": 0.3543307086614173,
                    "duration": 0.3267966666666666
                },
                {
                    "name": "A2",
                    "midi": 45,
                    "time": 181.568228,
                    "velocity": 0.3543307086614173,
                    "duration": 0.3267966666666666
                },
                {
                    "name": "A2",
                    "midi": 45,
                    "time": 181.960384,
                    "velocity": 0.3543307086614173,
                    "duration": 0.3267966666666666
                },
                {
                    "name": "A2",
                    "midi": 45,
                    "time": 182.35254,
                    "velocity": 0.3543307086614173,
                    "duration": 0.3267966666666666
                },
                {
                    "name": "A2",
                    "midi": 45,
                    "time": 182.744696,
                    "velocity": 0.3543307086614173,
                    "duration": 0.3267966666666666
                },
                {
                    "name": "A2",
                    "midi": 45,
                    "time": 183.136852,
                    "velocity": 0.3543307086614173,
                    "duration": 0.3267966666666666
                },
                {
                    "name": "A2",
                    "midi": 45,
                    "time": 183.529008,
                    "velocity": 0.3543307086614173,
                    "duration": 0.3267966666666666
                },
                {
                    "name": "A2",
                    "midi": 45,
                    "time": 183.921164,
                    "velocity": 0.3543307086614173,
                    "duration": 0.3267966666666666
                },
                {
                    "name": "A2",
                    "midi": 45,
                    "time": 184.31332,
                    "velocity": 0.3543307086614173,
                    "duration": 0.3267966666666666
                },
                {
                    "name": "A2",
                    "midi": 45,
                    "time": 184.705476,
                    "velocity": 0.3543307086614173,
                    "duration": 0.3267966666666666
                },
                {
                    "name": "A2",
                    "midi": 45,
                    "time": 185.097632,
                    "velocity": 0.3543307086614173,
                    "duration": 0.3267966666666666
                },
                {
                    "name": "A2",
                    "midi": 45,
                    "time": 185.489788,
                    "velocity": 0.3543307086614173,
                    "duration": 0.3267966666666666
                },
                {
                    "name": "A2",
                    "midi": 45,
                    "time": 185.881944,
                    "velocity": 0.3543307086614173,
                    "duration": 0.3267966666666666
                },
                {
                    "name": "A2",
                    "midi": 45,
                    "time": 186.2741,
                    "velocity": 0.3543307086614173,
                    "duration": 0.3267966666666666
                },
                {
                    "name": "A2",
                    "midi": 45,
                    "time": 186.666256,
                    "velocity": 0.3543307086614173,
                    "duration": 0.3267966666666666
                },
                {
                    "name": "A2",
                    "midi": 45,
                    "time": 187.058412,
                    "velocity": 0.3543307086614173,
                    "duration": 0.3267966666666666
                },
                {
                    "name": "A2",
                    "midi": 45,
                    "time": 187.450568,
                    "velocity": 0.3543307086614173,
                    "duration": 0.3267966666666666
                },
                {
                    "name": "A2",
                    "midi": 45,
                    "time": 187.842724,
                    "velocity": 0.3543307086614173,
                    "duration": 0.3267966666666666
                },
                {
                    "name": "A2",
                    "midi": 45,
                    "time": 188.23488,
                    "velocity": 0.3543307086614173,
                    "duration": 0.3267966666666666
                },
                {
                    "name": "A2",
                    "midi": 45,
                    "time": 188.627036,
                    "velocity": 0.3543307086614173,
                    "duration": 0.3267966666666666
                },
                {
                    "name": "A2",
                    "midi": 45,
                    "time": 189.019192,
                    "velocity": 0.3543307086614173,
                    "duration": 0.3267966666666666
                },
                {
                    "name": "A2",
                    "midi": 45,
                    "time": 189.411348,
                    "velocity": 0.3543307086614173,
                    "duration": 0.3267966666666666
                },
                {
                    "name": "A2",
                    "midi": 45,
                    "time": 189.803504,
                    "velocity": 0.3543307086614173,
                    "duration": 0.3267966666666666
                },
                {
                    "name": "A2",
                    "midi": 45,
                    "time": 190.19566,
                    "velocity": 0.3543307086614173,
                    "duration": 0.3267966666666666
                },
                {
                    "name": "A2",
                    "midi": 45,
                    "time": 190.587816,
                    "velocity": 0.3543307086614173,
                    "duration": 0.3267966666666666
                },
                {
                    "name": "A2",
                    "midi": 45,
                    "time": 190.979972,
                    "velocity": 0.3543307086614173,
                    "duration": 0.3267966666666666
                },
                {
                    "name": "A2",
                    "midi": 45,
                    "time": 191.372128,
                    "velocity": 0.3543307086614173,
                    "duration": 0.3267966666666666
                },
                {
                    "name": "A2",
                    "midi": 45,
                    "time": 191.764284,
                    "velocity": 0.3543307086614173,
                    "duration": 0.3267966666666666
                },
                {
                    "name": "A2",
                    "midi": 45,
                    "time": 192.15644,
                    "velocity": 0.3543307086614173,
                    "duration": 0.3267966666666666
                },
                {
                    "name": "A2",
                    "midi": 45,
                    "time": 192.548596,
                    "velocity": 0.3543307086614173,
                    "duration": 0.3267966666666666
                },
                {
                    "name": "A2",
                    "midi": 45,
                    "time": 192.940752,
                    "velocity": 0.3543307086614173,
                    "duration": 0.3267966666666666
                },
                {
                    "name": "A2",
                    "midi": 45,
                    "time": 193.332908,
                    "velocity": 0.3543307086614173,
                    "duration": 0.3267966666666666
                },
                {
                    "name": "A2",
                    "midi": 45,
                    "time": 193.725064,
                    "velocity": 0.3543307086614173,
                    "duration": 0.3267966666666666
                },
                {
                    "name": "A2",
                    "midi": 45,
                    "time": 194.11722,
                    "velocity": 0.3543307086614173,
                    "duration": 0.3267966666666666
                },
                {
                    "name": "A2",
                    "midi": 45,
                    "time": 194.509376,
                    "velocity": 0.3543307086614173,
                    "duration": 0.3267966666666666
                },
                {
                    "name": "A2",
                    "midi": 45,
                    "time": 194.901532,
                    "velocity": 0.3543307086614173,
                    "duration": 0.3267966666666666
                },
                {
                    "name": "A2",
                    "midi": 45,
                    "time": 195.293688,
                    "velocity": 0.3543307086614173,
                    "duration": 0.3267966666666666
                },
                {
                    "name": "A2",
                    "midi": 45,
                    "time": 195.685844,
                    "velocity": 0.3543307086614173,
                    "duration": 0.3267966666666666
                },
                {
                    "name": "A2",
                    "midi": 45,
                    "time": 196.078,
                    "velocity": 0.3543307086614173,
                    "duration": 0.3267966666666666
                },
                {
                    "name": "A2",
                    "midi": 45,
                    "time": 196.470156,
                    "velocity": 0.3543307086614173,
                    "duration": 0.3267966666666666
                },
                {
                    "name": "A2",
                    "midi": 45,
                    "time": 196.862312,
                    "velocity": 0.3543307086614173,
                    "duration": 0.3267966666666666
                },
                {
                    "name": "A2",
                    "midi": 45,
                    "time": 197.254468,
                    "velocity": 0.3543307086614173,
                    "duration": 0.3267966666666666
                },
                {
                    "name": "A2",
                    "midi": 45,
                    "time": 197.646624,
                    "velocity": 0.3543307086614173,
                    "duration": 0.3267966666666666
                },
                {
                    "name": "A2",
                    "midi": 45,
                    "time": 198.03878,
                    "velocity": 0.3543307086614173,
                    "duration": 0.3267966666666666
                },
                {
                    "name": "A2",
                    "midi": 45,
                    "time": 198.430936,
                    "velocity": 0.3543307086614173,
                    "duration": 0.3267966666666666
                },
                {
                    "name": "A2",
                    "midi": 45,
                    "time": 198.823092,
                    "velocity": 0.3543307086614173,
                    "duration": 0.3267966666666666
                },
                {
                    "name": "A2",
                    "midi": 45,
                    "time": 199.215248,
                    "velocity": 0.3543307086614173,
                    "duration": 0.3267966666666666
                },
                {
                    "name": "A2",
                    "midi": 45,
                    "time": 199.607404,
                    "velocity": 0.3543307086614173,
                    "duration": 0.3267966666666666
                },
                {
                    "name": "A2",
                    "midi": 45,
                    "time": 199.99956,
                    "velocity": 0.3543307086614173,
                    "duration": 0.3267966666666666
                },
                {
                    "name": "A2",
                    "midi": 45,
                    "time": 200.391716,
                    "velocity": 0.3543307086614173,
                    "duration": 0.3267966666666666
                },
                {
                    "name": "A2",
                    "midi": 45,
                    "time": 200.783872,
                    "velocity": 0.3543307086614173,
                    "duration": 0.3267966666666666
                },
                {
                    "name": "A2",
                    "midi": 45,
                    "time": 201.176028,
                    "velocity": 0.3543307086614173,
                    "duration": 0.3267966666666666
                },
                {
                    "name": "A2",
                    "midi": 45,
                    "time": 201.568184,
                    "velocity": 0.3543307086614173,
                    "duration": 0.3267966666666666
                },
                {
                    "name": "A2",
                    "midi": 45,
                    "time": 201.96034,
                    "velocity": 0.3543307086614173,
                    "duration": 0.3267966666666666
                },
                {
                    "name": "A2",
                    "midi": 45,
                    "time": 202.352496,
                    "velocity": 0.3543307086614173,
                    "duration": 0.3267966666666666
                },
                {
                    "name": "A2",
                    "midi": 45,
                    "time": 202.744652,
                    "velocity": 0.3543307086614173,
                    "duration": 0.3267966666666666
                },
                {
                    "name": "A2",
                    "midi": 45,
                    "time": 203.136808,
                    "velocity": 0.3543307086614173,
                    "duration": 0.3267966666666666
                },
                {
                    "name": "A2",
                    "midi": 45,
                    "time": 203.528964,
                    "velocity": 0.3543307086614173,
                    "duration": 0.3267966666666666
                },
                {
                    "name": "A2",
                    "midi": 45,
                    "time": 203.92112,
                    "velocity": 0.3543307086614173,
                    "duration": 0.3267966666666666
                },
                {
                    "name": "A2",
                    "midi": 45,
                    "time": 204.313276,
                    "velocity": 0.3543307086614173,
                    "duration": 0.3267966666666666
                },
                {
                    "name": "A2",
                    "midi": 45,
                    "time": 204.705432,
                    "velocity": 0.3543307086614173,
                    "duration": 0.3267966666666666
                },
                {
                    "name": "A2",
                    "midi": 45,
                    "time": 205.097588,
                    "velocity": 0.3543307086614173,
                    "duration": 0.3267966666666666
                },
                {
                    "name": "A2",
                    "midi": 45,
                    "time": 205.489744,
                    "velocity": 0.3543307086614173,
                    "duration": 0.3267966666666666
                },
                {
                    "name": "A2",
                    "midi": 45,
                    "time": 205.8819,
                    "velocity": 0.3543307086614173,
                    "duration": 0.3267966666666666
                },
                {
                    "name": "A2",
                    "midi": 45,
                    "time": 206.274056,
                    "velocity": 0.3543307086614173,
                    "duration": 0.3267966666666666
                },
                {
                    "name": "A2",
                    "midi": 45,
                    "time": 206.666212,
                    "velocity": 0.3543307086614173,
                    "duration": 0.3267966666666666
                },
                {
                    "name": "A2",
                    "midi": 45,
                    "time": 207.058368,
                    "velocity": 0.3543307086614173,
                    "duration": 0.3267966666666666
                },
                {
                    "name": "A2",
                    "midi": 45,
                    "time": 207.450524,
                    "velocity": 0.3543307086614173,
                    "duration": 0.3267966666666666
                },
                {
                    "name": "A2",
                    "midi": 45,
                    "time": 207.84268,
                    "velocity": 0.3543307086614173,
                    "duration": 0.3267966666666666
                },
                {
                    "name": "A2",
                    "midi": 45,
                    "time": 208.234836,
                    "velocity": 0.3543307086614173,
                    "duration": 0.3267966666666666
                },
                {
                    "name": "A2",
                    "midi": 45,
                    "time": 208.626992,
                    "velocity": 0.3543307086614173,
                    "duration": 0.3267966666666666
                },
                {
                    "name": "A2",
                    "midi": 45,
                    "time": 209.019148,
                    "velocity": 0.3543307086614173,
                    "duration": 0.3267966666666666
                },
                {
                    "name": "A2",
                    "midi": 45,
                    "time": 209.411304,
                    "velocity": 0.3543307086614173,
                    "duration": 0.3267966666666666
                },
                {
                    "name": "A2",
                    "midi": 45,
                    "time": 209.80346,
                    "velocity": 0.3543307086614173,
                    "duration": 0.3267966666666666
                },
                {
                    "name": "A2",
                    "midi": 45,
                    "time": 210.195616,
                    "velocity": 0.3543307086614173,
                    "duration": 0.3267966666666666
                },
                {
                    "name": "A2",
                    "midi": 45,
                    "time": 210.587772,
                    "velocity": 0.3543307086614173,
                    "duration": 0.3267966666666666
                },
                {
                    "name": "A2",
                    "midi": 45,
                    "time": 210.979928,
                    "velocity": 0.3543307086614173,
                    "duration": 0.3267966666666666
                },
                {
                    "name": "A2",
                    "midi": 45,
                    "time": 211.372084,
                    "velocity": 0.3543307086614173,
                    "duration": 0.3267966666666666
                },
                {
                    "name": "A2",
                    "midi": 45,
                    "time": 211.76424,
                    "velocity": 0.3543307086614173,
                    "duration": 0.3267966666666666
                },
                {
                    "name": "A2",
                    "midi": 45,
                    "time": 212.156396,
                    "velocity": 0.3543307086614173,
                    "duration": 0.3267966666666666
                },
                {
                    "name": "A2",
                    "midi": 45,
                    "time": 212.548552,
                    "velocity": 0.3543307086614173,
                    "duration": 0.3267966666666666
                },
                {
                    "name": "A2",
                    "midi": 45,
                    "time": 212.940708,
                    "velocity": 0.3543307086614173,
                    "duration": 0.3267966666666666
                },
                {
                    "name": "A2",
                    "midi": 45,
                    "time": 213.332864,
                    "velocity": 0.3543307086614173,
                    "duration": 0.3267966666666666
                },
                {
                    "name": "A2",
                    "midi": 45,
                    "time": 213.72502,
                    "velocity": 0.3543307086614173,
                    "duration": 0.3267966666666666
                },
                {
                    "name": "A2",
                    "midi": 45,
                    "time": 214.117176,
                    "velocity": 0.3543307086614173,
                    "duration": 0.3267966666666666
                },
                {
                    "name": "A2",
                    "midi": 45,
                    "time": 214.509332,
                    "velocity": 0.3543307086614173,
                    "duration": 0.3267966666666666
                },
                {
                    "name": "A2",
                    "midi": 45,
                    "time": 214.901488,
                    "velocity": 0.3543307086614173,
                    "duration": 0.3267966666666666
                },
                {
                    "name": "A2",
                    "midi": 45,
                    "time": 215.293644,
                    "velocity": 0.3543307086614173,
                    "duration": 0.3267966666666666
                },
                {
                    "name": "A2",
                    "midi": 45,
                    "time": 215.6858,
                    "velocity": 0.3543307086614173,
                    "duration": 0.3267966666666666
                },
                {
                    "name": "A2",
                    "midi": 45,
                    "time": 216.077956,
                    "velocity": 0.3543307086614173,
                    "duration": 0.3267966666666666
                },
                {
                    "name": "A2",
                    "midi": 45,
                    "time": 216.470112,
                    "velocity": 0.3543307086614173,
                    "duration": 0.3267966666666666
                },
                {
                    "name": "A2",
                    "midi": 45,
                    "time": 216.862268,
                    "velocity": 0.3543307086614173,
                    "duration": 0.3267966666666666
                },
                {
                    "name": "A2",
                    "midi": 45,
                    "time": 217.254424,
                    "velocity": 0.3543307086614173,
                    "duration": 0.3267966666666666
                },
                {
                    "name": "A2",
                    "midi": 45,
                    "time": 217.64658,
                    "velocity": 0.3543307086614173,
                    "duration": 0.3267966666666666
                },
                {
                    "name": "A2",
                    "midi": 45,
                    "time": 218.038736,
                    "velocity": 0.4330708661417323,
                    "duration": 0.3267966666666666
                },
                {
                    "name": "A2",
                    "midi": 45,
                    "time": 218.430892,
                    "velocity": 0.5118110236220472,
                    "duration": 0.3267966666666666
                },
                {
                    "name": "A2",
                    "midi": 45,
                    "time": 218.823048,
                    "velocity": 0.5905511811023622,
                    "duration": 0.3267966666666666
                },
                {
                    "name": "A2",
                    "midi": 45,
                    "time": 219.215204,
                    "velocity": 0.5905511811023622,
                    "duration": 0.3267966666666666
                },
                {
                    "name": "A2",
                    "midi": 45,
                    "time": 219.60736,
                    "velocity": 0.5905511811023622,
                    "duration": 0.3267966666666666
                },
                {
                    "name": "A2",
                    "midi": 45,
                    "time": 219.999516,
                    "velocity": 0.5905511811023622,
                    "duration": 0.3267966666666666
                },
                {
                    "name": "A2",
                    "midi": 45,
                    "time": 220.391672,
                    "velocity": 0.5905511811023622,
                    "duration": 0.3267966666666666
                },
                {
                    "name": "A2",
                    "midi": 45,
                    "time": 220.783828,
                    "velocity": 0.5905511811023622,
                    "duration": 0.3267966666666666
                },
                {
                    "name": "A2",
                    "midi": 45,
                    "time": 221.175984,
                    "velocity": 0.5905511811023622,
                    "duration": 0.3267966666666666
                },
                {
                    "name": "A2",
                    "midi": 45,
                    "time": 222.744608,
                    "velocity": 0.5905511811023622,
                    "duration": 0.3267966666666666
                },
                {
                    "name": "A2",
                    "midi": 45,
                    "time": 224.313232,
                    "velocity": 0.5905511811023622,
                    "duration": 0.3267966666666666
                },
                {
                    "name": "A2",
                    "midi": 45,
                    "time": 225.881856,
                    "velocity": 0.47244094488188976,
                    "duration": 0.3267966666666666
                },
                {
                    "name": "A2",
                    "midi": 45,
                    "time": 226.274012,
                    "velocity": 0.47244094488188976,
                    "duration": 0.3267966666666666
                },
                {
                    "name": "A2",
                    "midi": 45,
                    "time": 226.666168,
                    "velocity": 0.47244094488188976,
                    "duration": 0.3267966666666666
                },
                {
                    "name": "A2",
                    "midi": 45,
                    "time": 227.058324,
                    "velocity": 0.47244094488188976,
                    "duration": 0.3267966666666666
                },
                {
                    "name": "A2",
                    "midi": 45,
                    "time": 227.45048,
                    "velocity": 0.47244094488188976,
                    "duration": 0.3267966666666666
                }
            ],
            "controlChanges": {
                "7": [
                    {
                        "number": 7,
                        "time": 0,
                        "value": 1
                    }
                ],
                "10": [
                    {
                        "number": 10,
                        "time": 0,
                        "value": 0.6456692913385826
                    }
                ],
                "91": [
                    {
                        "number": 91,
                        "time": 0,
                        "value": 0.49606299212598426
                    }
                ]
            },
            "id": 11,
            "instrumentNumber": 0,
            "instrument": "standard kit",
            "instrumentFamily": "drums",
            "channelNumber": 9,
            "isPercussion": true
        },
        {
            "startTime": 5.490184,
            "duration": 227.5158393333333,
            "length": 856,
            "notes": [
                {
                    "name": "A3",
                    "midi": 57,
                    "time": 5.490184,
                    "velocity": 0.3543307086614173,
                    "duration": 0.06535933333333332
                },
                {
                    "name": "A3",
                    "midi": 57,
                    "time": 5.686262,
                    "velocity": 0.3543307086614173,
                    "duration": 0.06535933333333332
                },
                {
                    "name": "A3",
                    "midi": 57,
                    "time": 5.88234,
                    "velocity": 0.3543307086614173,
                    "duration": 0.06535933333333332
                },
                {
                    "name": "A3",
                    "midi": 57,
                    "time": 6.078418,
                    "velocity": 0.3543307086614173,
                    "duration": 0.06535933333333332
                },
                {
                    "name": "A3",
                    "midi": 57,
                    "time": 6.274496,
                    "velocity": 0.3543307086614173,
                    "duration": 0.06535933333333332
                },
                {
                    "name": "A3",
                    "midi": 57,
                    "time": 6.470574,
                    "velocity": 0.3543307086614173,
                    "duration": 0.06535933333333332
                },
                {
                    "name": "A3",
                    "midi": 57,
                    "time": 6.666652,
                    "velocity": 0.3543307086614173,
                    "duration": 0.06535933333333332
                },
                {
                    "name": "A3",
                    "midi": 57,
                    "time": 6.86273,
                    "velocity": 0.3543307086614173,
                    "duration": 0.06535933333333332
                },
                {
                    "name": "A3",
                    "midi": 57,
                    "time": 7.058808,
                    "velocity": 0.3543307086614173,
                    "duration": 0.06535933333333332
                },
                {
                    "name": "A3",
                    "midi": 57,
                    "time": 7.254886,
                    "velocity": 0.3543307086614173,
                    "duration": 0.06535933333333332
                },
                {
                    "name": "A3",
                    "midi": 57,
                    "time": 7.450964,
                    "velocity": 0.3543307086614173,
                    "duration": 0.06535933333333332
                },
                {
                    "name": "A3",
                    "midi": 57,
                    "time": 7.647042,
                    "velocity": 0.3543307086614173,
                    "duration": 0.06535933333333332
                },
                {
                    "name": "A3",
                    "midi": 57,
                    "time": 7.84312,
                    "velocity": 0.3543307086614173,
                    "duration": 0.06535933333333332
                },
                {
                    "name": "A3",
                    "midi": 57,
                    "time": 8.039197999999999,
                    "velocity": 0.3543307086614173,
                    "duration": 0.06535933333333332
                },
                {
                    "name": "A3",
                    "midi": 57,
                    "time": 8.235275999999999,
                    "velocity": 0.3543307086614173,
                    "duration": 0.06535933333333332
                },
                {
                    "name": "A3",
                    "midi": 57,
                    "time": 8.431353999999999,
                    "velocity": 0.3543307086614173,
                    "duration": 0.06535933333333332
                },
                {
                    "name": "A3",
                    "midi": 57,
                    "time": 8.627431999999999,
                    "velocity": 0.3543307086614173,
                    "duration": 0.06535933333333332
                },
                {
                    "name": "A3",
                    "midi": 57,
                    "time": 8.823509999999999,
                    "velocity": 0.3543307086614173,
                    "duration": 0.06535933333333332
                },
                {
                    "name": "A3",
                    "midi": 57,
                    "time": 9.019587999999999,
                    "velocity": 0.3543307086614173,
                    "duration": 0.06535933333333332
                },
                {
                    "name": "A3",
                    "midi": 57,
                    "time": 9.215665999999999,
                    "velocity": 0.3543307086614173,
                    "duration": 0.06535933333333332
                },
                {
                    "name": "A3",
                    "midi": 57,
                    "time": 9.411743999999999,
                    "velocity": 0.3543307086614173,
                    "duration": 0.06535933333333332
                },
                {
                    "name": "A3",
                    "midi": 57,
                    "time": 9.607821999999999,
                    "velocity": 0.3543307086614173,
                    "duration": 0.06535933333333332
                },
                {
                    "name": "A3",
                    "midi": 57,
                    "time": 9.803899999999999,
                    "velocity": 0.3543307086614173,
                    "duration": 0.06535933333333332
                },
                {
                    "name": "A3",
                    "midi": 57,
                    "time": 9.999977999999999,
                    "velocity": 0.3543307086614173,
                    "duration": 0.06535933333333332
                },
                {
                    "name": "A3",
                    "midi": 57,
                    "time": 10.196055999999999,
                    "velocity": 0.3543307086614173,
                    "duration": 0.06535933333333332
                },
                {
                    "name": "A3",
                    "midi": 57,
                    "time": 10.392133999999999,
                    "velocity": 0.3543307086614173,
                    "duration": 0.06535933333333332
                },
                {
                    "name": "A3",
                    "midi": 57,
                    "time": 10.588211999999999,
                    "velocity": 0.3543307086614173,
                    "duration": 0.06535933333333332
                },
                {
                    "name": "A3",
                    "midi": 57,
                    "time": 10.784289999999999,
                    "velocity": 0.3543307086614173,
                    "duration": 0.06535933333333332
                },
                {
                    "name": "A3",
                    "midi": 57,
                    "time": 10.980367999999999,
                    "velocity": 0.3543307086614173,
                    "duration": 0.06535933333333332
                },
                {
                    "name": "A3",
                    "midi": 57,
                    "time": 11.764679999999998,
                    "velocity": 0.3543307086614173,
                    "duration": 0.06535933333333332
                },
                {
                    "name": "A3",
                    "midi": 57,
                    "time": 11.960757999999998,
                    "velocity": 0.3543307086614173,
                    "duration": 0.06535933333333332
                },
                {
                    "name": "A3",
                    "midi": 57,
                    "time": 12.156835999999998,
                    "velocity": 0.3543307086614173,
                    "duration": 0.06535933333333332
                },
                {
                    "name": "A3",
                    "midi": 57,
                    "time": 12.352913999999998,
                    "velocity": 0.3543307086614173,
                    "duration": 0.06535933333333332
                },
                {
                    "name": "A3",
                    "midi": 57,
                    "time": 12.548991999999998,
                    "velocity": 0.3543307086614173,
                    "duration": 0.06535933333333332
                },
                {
                    "name": "A3",
                    "midi": 57,
                    "time": 12.745069999999998,
                    "velocity": 0.3543307086614173,
                    "duration": 0.06535933333333332
                },
                {
                    "name": "A3",
                    "midi": 57,
                    "time": 12.941147999999998,
                    "velocity": 0.3543307086614173,
                    "duration": 0.06535933333333332
                },
                {
                    "name": "A3",
                    "midi": 57,
                    "time": 13.137225999999998,
                    "velocity": 0.3543307086614173,
                    "duration": 0.06535933333333332
                },
                {
                    "name": "A3",
                    "midi": 57,
                    "time": 13.333303999999998,
                    "velocity": 0.3543307086614173,
                    "duration": 0.06535933333333332
                },
                {
                    "name": "A3",
                    "midi": 57,
                    "time": 13.529381999999998,
                    "velocity": 0.3543307086614173,
                    "duration": 0.06535933333333332
                },
                {
                    "name": "A3",
                    "midi": 57,
                    "time": 13.725459999999998,
                    "velocity": 0.3543307086614173,
                    "duration": 0.06535933333333332
                },
                {
                    "name": "A3",
                    "midi": 57,
                    "time": 13.921537999999998,
                    "velocity": 0.3543307086614173,
                    "duration": 0.06535933333333332
                },
                {
                    "name": "A3",
                    "midi": 57,
                    "time": 14.117615999999998,
                    "velocity": 0.3543307086614173,
                    "duration": 0.06535933333333332
                },
                {
                    "name": "A3",
                    "midi": 57,
                    "time": 14.313693999999998,
                    "velocity": 0.3543307086614173,
                    "duration": 0.06535933333333332
                },
                {
                    "name": "A3",
                    "midi": 57,
                    "time": 14.509771999999998,
                    "velocity": 0.3543307086614173,
                    "duration": 0.06535933333333332
                },
                {
                    "name": "A3",
                    "midi": 57,
                    "time": 14.705849999999998,
                    "velocity": 0.3543307086614173,
                    "duration": 0.06535933333333332
                },
                {
                    "name": "A3",
                    "midi": 57,
                    "time": 14.901927999999998,
                    "velocity": 0.3543307086614173,
                    "duration": 0.06535933333333332
                },
                {
                    "name": "A3",
                    "midi": 57,
                    "time": 15.098005999999998,
                    "velocity": 0.3543307086614173,
                    "duration": 0.06535933333333332
                },
                {
                    "name": "A3",
                    "midi": 57,
                    "time": 15.294083999999998,
                    "velocity": 0.3543307086614173,
                    "duration": 0.06535933333333332
                },
                {
                    "name": "A3",
                    "midi": 57,
                    "time": 15.490161999999998,
                    "velocity": 0.3543307086614173,
                    "duration": 0.06535933333333332
                },
                {
                    "name": "A3",
                    "midi": 57,
                    "time": 15.686239999999998,
                    "velocity": 0.3543307086614173,
                    "duration": 0.06535933333333332
                },
                {
                    "name": "A3",
                    "midi": 57,
                    "time": 15.882317999999998,
                    "velocity": 0.3543307086614173,
                    "duration": 0.06535933333333332
                },
                {
                    "name": "A3",
                    "midi": 57,
                    "time": 16.078395999999998,
                    "velocity": 0.3543307086614173,
                    "duration": 0.06535933333333332
                },
                {
                    "name": "A3",
                    "midi": 57,
                    "time": 16.274473999999998,
                    "velocity": 0.3543307086614173,
                    "duration": 0.06535933333333332
                },
                {
                    "name": "A3",
                    "midi": 57,
                    "time": 16.470551999999998,
                    "velocity": 0.3543307086614173,
                    "duration": 0.06535933333333332
                },
                {
                    "name": "A3",
                    "midi": 57,
                    "time": 16.666629999999998,
                    "velocity": 0.3543307086614173,
                    "duration": 0.06535933333333332
                },
                {
                    "name": "A3",
                    "midi": 57,
                    "time": 16.862707999999998,
                    "velocity": 0.3543307086614173,
                    "duration": 0.06535933333333332
                },
                {
                    "name": "A3",
                    "midi": 57,
                    "time": 17.058785999999998,
                    "velocity": 0.3543307086614173,
                    "duration": 0.06535933333333332
                },
                {
                    "name": "A3",
                    "midi": 57,
                    "time": 17.254863999999998,
                    "velocity": 0.3543307086614173,
                    "duration": 0.06535933333333332
                },
                {
                    "name": "A3",
                    "midi": 57,
                    "time": 17.450941999999998,
                    "velocity": 0.3543307086614173,
                    "duration": 0.06535933333333332
                },
                {
                    "name": "A3",
                    "midi": 57,
                    "time": 17.647019999999998,
                    "velocity": 0.3543307086614173,
                    "duration": 0.06535933333333332
                },
                {
                    "name": "A3",
                    "midi": 57,
                    "time": 17.843097999999998,
                    "velocity": 0.3543307086614173,
                    "duration": 0.06535933333333332
                },
                {
                    "name": "A3",
                    "midi": 57,
                    "time": 18.039175999999998,
                    "velocity": 0.3543307086614173,
                    "duration": 0.06535933333333332
                },
                {
                    "name": "A3",
                    "midi": 57,
                    "time": 18.235253999999998,
                    "velocity": 0.3543307086614173,
                    "duration": 0.06535933333333332
                },
                {
                    "name": "A3",
                    "midi": 57,
                    "time": 18.431331999999998,
                    "velocity": 0.3543307086614173,
                    "duration": 0.06535933333333332
                },
                {
                    "name": "A3",
                    "midi": 57,
                    "time": 18.627409999999998,
                    "velocity": 0.3543307086614173,
                    "duration": 0.06535933333333332
                },
                {
                    "name": "A3",
                    "midi": 57,
                    "time": 18.823487999999998,
                    "velocity": 0.3543307086614173,
                    "duration": 0.06535933333333332
                },
                {
                    "name": "A3",
                    "midi": 57,
                    "time": 19.607799999999997,
                    "velocity": 0.3543307086614173,
                    "duration": 0.06535933333333332
                },
                {
                    "name": "A3",
                    "midi": 57,
                    "time": 19.803877999999997,
                    "velocity": 0.3543307086614173,
                    "duration": 0.06535933333333332
                },
                {
                    "name": "A3",
                    "midi": 57,
                    "time": 19.999955999999997,
                    "velocity": 0.3543307086614173,
                    "duration": 0.06535933333333332
                },
                {
                    "name": "A3",
                    "midi": 57,
                    "time": 20.196033999999997,
                    "velocity": 0.3543307086614173,
                    "duration": 0.06535933333333332
                },
                {
                    "name": "A3",
                    "midi": 57,
                    "time": 20.392111999999997,
                    "velocity": 0.3543307086614173,
                    "duration": 0.06535933333333332
                },
                {
                    "name": "A3",
                    "midi": 57,
                    "time": 20.588189999999997,
                    "velocity": 0.3543307086614173,
                    "duration": 0.06535933333333332
                },
                {
                    "name": "A3",
                    "midi": 57,
                    "time": 20.784267999999997,
                    "velocity": 0.3543307086614173,
                    "duration": 0.06535933333333332
                },
                {
                    "name": "A3",
                    "midi": 57,
                    "time": 20.980345999999997,
                    "velocity": 0.3543307086614173,
                    "duration": 0.06535933333333332
                },
                {
                    "name": "A3",
                    "midi": 57,
                    "time": 21.176423999999997,
                    "velocity": 0.3543307086614173,
                    "duration": 0.06535933333333332
                },
                {
                    "name": "A3",
                    "midi": 57,
                    "time": 21.372501999999997,
                    "velocity": 0.3543307086614173,
                    "duration": 0.06535933333333332
                },
                {
                    "name": "A3",
                    "midi": 57,
                    "time": 21.568579999999997,
                    "velocity": 0.3543307086614173,
                    "duration": 0.06535933333333332
                },
                {
                    "name": "A3",
                    "midi": 57,
                    "time": 21.764657999999997,
                    "velocity": 0.3543307086614173,
                    "duration": 0.06535933333333332
                },
                {
                    "name": "A3",
                    "midi": 57,
                    "time": 21.960735999999997,
                    "velocity": 0.3543307086614173,
                    "duration": 0.06535933333333332
                },
                {
                    "name": "A3",
                    "midi": 57,
                    "time": 22.156813999999997,
                    "velocity": 0.3543307086614173,
                    "duration": 0.06535933333333332
                },
                {
                    "name": "A3",
                    "midi": 57,
                    "time": 22.352891999999997,
                    "velocity": 0.3543307086614173,
                    "duration": 0.06535933333333332
                },
                {
                    "name": "A3",
                    "midi": 57,
                    "time": 22.548969999999997,
                    "velocity": 0.3543307086614173,
                    "duration": 0.06535933333333332
                },
                {
                    "name": "A3",
                    "midi": 57,
                    "time": 22.745047999999997,
                    "velocity": 0.3543307086614173,
                    "duration": 0.06535933333333332
                },
                {
                    "name": "A3",
                    "midi": 57,
                    "time": 22.941125999999997,
                    "velocity": 0.3543307086614173,
                    "duration": 0.06535933333333332
                },
                {
                    "name": "A3",
                    "midi": 57,
                    "time": 23.137203999999997,
                    "velocity": 0.3543307086614173,
                    "duration": 0.06535933333333332
                },
                {
                    "name": "A3",
                    "midi": 57,
                    "time": 23.333281999999997,
                    "velocity": 0.3543307086614173,
                    "duration": 0.06535933333333332
                },
                {
                    "name": "A3",
                    "midi": 57,
                    "time": 23.529359999999997,
                    "velocity": 0.3543307086614173,
                    "duration": 0.06535933333333332
                },
                {
                    "name": "A3",
                    "midi": 57,
                    "time": 23.725437999999997,
                    "velocity": 0.3543307086614173,
                    "duration": 0.06535933333333332
                },
                {
                    "name": "A3",
                    "midi": 57,
                    "time": 23.921515999999997,
                    "velocity": 0.3543307086614173,
                    "duration": 0.06535933333333332
                },
                {
                    "name": "A3",
                    "midi": 57,
                    "time": 24.117593999999997,
                    "velocity": 0.3543307086614173,
                    "duration": 0.06535933333333332
                },
                {
                    "name": "A3",
                    "midi": 57,
                    "time": 24.313671999999997,
                    "velocity": 0.3543307086614173,
                    "duration": 0.06535933333333332
                },
                {
                    "name": "A3",
                    "midi": 57,
                    "time": 24.509749999999997,
                    "velocity": 0.3543307086614173,
                    "duration": 0.06535933333333332
                },
                {
                    "name": "A3",
                    "midi": 57,
                    "time": 24.705827999999997,
                    "velocity": 0.3543307086614173,
                    "duration": 0.06535933333333332
                },
                {
                    "name": "A3",
                    "midi": 57,
                    "time": 24.901905999999997,
                    "velocity": 0.3543307086614173,
                    "duration": 0.06535933333333332
                },
                {
                    "name": "A3",
                    "midi": 57,
                    "time": 25.097983999999997,
                    "velocity": 0.3543307086614173,
                    "duration": 0.06535933333333332
                },
                {
                    "name": "A3",
                    "midi": 57,
                    "time": 25.294061999999997,
                    "velocity": 0.3543307086614173,
                    "duration": 0.06535933333333332
                },
                {
                    "name": "A3",
                    "midi": 57,
                    "time": 25.490139999999997,
                    "velocity": 0.3543307086614173,
                    "duration": 0.06535933333333332
                },
                {
                    "name": "A3",
                    "midi": 57,
                    "time": 25.686217999999997,
                    "velocity": 0.3543307086614173,
                    "duration": 0.06535933333333332
                },
                {
                    "name": "A3",
                    "midi": 57,
                    "time": 25.882295999999997,
                    "velocity": 0.3543307086614173,
                    "duration": 0.06535933333333332
                },
                {
                    "name": "A3",
                    "midi": 57,
                    "time": 26.078373999999997,
                    "velocity": 0.3543307086614173,
                    "duration": 0.06535933333333332
                },
                {
                    "name": "A3",
                    "midi": 57,
                    "time": 26.274451999999997,
                    "velocity": 0.3543307086614173,
                    "duration": 0.06535933333333332
                },
                {
                    "name": "A3",
                    "midi": 57,
                    "time": 26.470529999999997,
                    "velocity": 0.3543307086614173,
                    "duration": 0.06535933333333332
                },
                {
                    "name": "A3",
                    "midi": 57,
                    "time": 26.666607999999997,
                    "velocity": 0.3543307086614173,
                    "duration": 0.06535933333333332
                },
                {
                    "name": "A3",
                    "midi": 57,
                    "time": 26.862685999999997,
                    "velocity": 0.3543307086614173,
                    "duration": 0.06535933333333332
                },
                {
                    "name": "A3",
                    "midi": 57,
                    "time": 27.058763999999996,
                    "velocity": 0.3543307086614173,
                    "duration": 0.06535933333333332
                },
                {
                    "name": "A3",
                    "midi": 57,
                    "time": 27.254841999999996,
                    "velocity": 0.3543307086614173,
                    "duration": 0.06535933333333332
                },
                {
                    "name": "A3",
                    "midi": 57,
                    "time": 27.450919999999996,
                    "velocity": 0.3543307086614173,
                    "duration": 0.06535933333333332
                },
                {
                    "name": "A3",
                    "midi": 57,
                    "time": 27.646997999999996,
                    "velocity": 0.3543307086614173,
                    "duration": 0.06535933333333332
                },
                {
                    "name": "A3",
                    "midi": 57,
                    "time": 27.843075999999996,
                    "velocity": 0.3543307086614173,
                    "duration": 0.06535933333333332
                },
                {
                    "name": "A3",
                    "midi": 57,
                    "time": 28.039153999999996,
                    "velocity": 0.3543307086614173,
                    "duration": 0.06535933333333332
                },
                {
                    "name": "A3",
                    "midi": 57,
                    "time": 28.235231999999996,
                    "velocity": 0.3543307086614173,
                    "duration": 0.06535933333333332
                },
                {
                    "name": "A3",
                    "midi": 57,
                    "time": 28.431309999999996,
                    "velocity": 0.3543307086614173,
                    "duration": 0.06535933333333332
                },
                {
                    "name": "A3",
                    "midi": 57,
                    "time": 28.627387999999996,
                    "velocity": 0.3543307086614173,
                    "duration": 0.06535933333333332
                },
                {
                    "name": "A3",
                    "midi": 57,
                    "time": 28.823465999999996,
                    "velocity": 0.3543307086614173,
                    "duration": 0.06535933333333332
                },
                {
                    "name": "A3",
                    "midi": 57,
                    "time": 29.019543999999996,
                    "velocity": 0.3543307086614173,
                    "duration": 0.06535933333333332
                },
                {
                    "name": "A3",
                    "midi": 57,
                    "time": 29.215621999999996,
                    "velocity": 0.3543307086614173,
                    "duration": 0.06535933333333332
                },
                {
                    "name": "A3",
                    "midi": 57,
                    "time": 29.411699999999996,
                    "velocity": 0.3543307086614173,
                    "duration": 0.06535933333333332
                },
                {
                    "name": "A3",
                    "midi": 57,
                    "time": 29.607777999999996,
                    "velocity": 0.3543307086614173,
                    "duration": 0.06535933333333332
                },
                {
                    "name": "A3",
                    "midi": 57,
                    "time": 29.803855999999996,
                    "velocity": 0.3543307086614173,
                    "duration": 0.06535933333333332
                },
                {
                    "name": "A3",
                    "midi": 57,
                    "time": 29.999933999999996,
                    "velocity": 0.3543307086614173,
                    "duration": 0.06535933333333332
                },
                {
                    "name": "A3",
                    "midi": 57,
                    "time": 30.196011999999996,
                    "velocity": 0.3543307086614173,
                    "duration": 0.06535933333333332
                },
                {
                    "name": "A3",
                    "midi": 57,
                    "time": 30.392089999999996,
                    "velocity": 0.3543307086614173,
                    "duration": 0.06535933333333332
                },
                {
                    "name": "A3",
                    "midi": 57,
                    "time": 30.588167999999996,
                    "velocity": 0.3543307086614173,
                    "duration": 0.06535933333333332
                },
                {
                    "name": "A3",
                    "midi": 57,
                    "time": 30.784245999999996,
                    "velocity": 0.3543307086614173,
                    "duration": 0.06535933333333332
                },
                {
                    "name": "A3",
                    "midi": 57,
                    "time": 30.980323999999996,
                    "velocity": 0.3543307086614173,
                    "duration": 0.06535933333333332
                },
                {
                    "name": "A3",
                    "midi": 57,
                    "time": 31.176401999999996,
                    "velocity": 0.3543307086614173,
                    "duration": 0.06535933333333332
                },
                {
                    "name": "A3",
                    "midi": 57,
                    "time": 31.372479999999996,
                    "velocity": 0.3543307086614173,
                    "duration": 0.06535933333333332
                },
                {
                    "name": "A3",
                    "midi": 57,
                    "time": 31.568557999999996,
                    "velocity": 0.3543307086614173,
                    "duration": 0.06535933333333332
                },
                {
                    "name": "A3",
                    "midi": 57,
                    "time": 31.764635999999996,
                    "velocity": 0.3543307086614173,
                    "duration": 0.06535933333333332
                },
                {
                    "name": "A3",
                    "midi": 57,
                    "time": 31.960713999999996,
                    "velocity": 0.3543307086614173,
                    "duration": 0.06535933333333332
                },
                {
                    "name": "A3",
                    "midi": 57,
                    "time": 32.156791999999996,
                    "velocity": 0.3543307086614173,
                    "duration": 0.06535933333333332
                },
                {
                    "name": "A3",
                    "midi": 57,
                    "time": 32.352869999999996,
                    "velocity": 0.3543307086614173,
                    "duration": 0.06535933333333332
                },
                {
                    "name": "A3",
                    "midi": 57,
                    "time": 32.548947999999996,
                    "velocity": 0.3543307086614173,
                    "duration": 0.06535933333333332
                },
                {
                    "name": "A3",
                    "midi": 57,
                    "time": 32.745025999999996,
                    "velocity": 0.3543307086614173,
                    "duration": 0.06535933333333332
                },
                {
                    "name": "A3",
                    "midi": 57,
                    "time": 32.941103999999996,
                    "velocity": 0.3543307086614173,
                    "duration": 0.06535933333333332
                },
                {
                    "name": "A3",
                    "midi": 57,
                    "time": 33.137181999999996,
                    "velocity": 0.3543307086614173,
                    "duration": 0.06535933333333332
                },
                {
                    "name": "A3",
                    "midi": 57,
                    "time": 33.333259999999996,
                    "velocity": 0.3543307086614173,
                    "duration": 0.06535933333333332
                },
                {
                    "name": "A3",
                    "midi": 57,
                    "time": 33.529337999999996,
                    "velocity": 0.3543307086614173,
                    "duration": 0.06535933333333332
                },
                {
                    "name": "A3",
                    "midi": 57,
                    "time": 33.725415999999996,
                    "velocity": 0.3543307086614173,
                    "duration": 0.06535933333333332
                },
                {
                    "name": "A3",
                    "midi": 57,
                    "time": 33.921493999999996,
                    "velocity": 0.3543307086614173,
                    "duration": 0.06535933333333332
                },
                {
                    "name": "A3",
                    "midi": 57,
                    "time": 34.117571999999996,
                    "velocity": 0.3543307086614173,
                    "duration": 0.06535933333333332
                },
                {
                    "name": "A3",
                    "midi": 57,
                    "time": 34.313649999999996,
                    "velocity": 0.3543307086614173,
                    "duration": 0.06535933333333332
                },
                {
                    "name": "A3",
                    "midi": 57,
                    "time": 34.509727999999996,
                    "velocity": 0.3543307086614173,
                    "duration": 0.06535933333333332
                },
                {
                    "name": "A3",
                    "midi": 57,
                    "time": 34.705805999999995,
                    "velocity": 0.3543307086614173,
                    "duration": 0.06535933333333332
                },
                {
                    "name": "A3",
                    "midi": 57,
                    "time": 34.901883999999995,
                    "velocity": 0.3543307086614173,
                    "duration": 0.06535933333333332
                },
                {
                    "name": "A3",
                    "midi": 57,
                    "time": 35.097961999999995,
                    "velocity": 0.3543307086614173,
                    "duration": 0.06535933333333332
                },
                {
                    "name": "A3",
                    "midi": 57,
                    "time": 35.294039999999995,
                    "velocity": 0.3543307086614173,
                    "duration": 0.06535933333333332
                },
                {
                    "name": "A3",
                    "midi": 57,
                    "time": 35.490117999999995,
                    "velocity": 0.3543307086614173,
                    "duration": 0.06535933333333332
                },
                {
                    "name": "A3",
                    "midi": 57,
                    "time": 35.686195999999995,
                    "velocity": 0.3543307086614173,
                    "duration": 0.06535933333333332
                },
                {
                    "name": "A3",
                    "midi": 57,
                    "time": 35.882273999999995,
                    "velocity": 0.3543307086614173,
                    "duration": 0.06535933333333332
                },
                {
                    "name": "A3",
                    "midi": 57,
                    "time": 36.078351999999995,
                    "velocity": 0.3543307086614173,
                    "duration": 0.06535933333333332
                },
                {
                    "name": "A3",
                    "midi": 57,
                    "time": 37.646975999999995,
                    "velocity": 0.3543307086614173,
                    "duration": 0.06535933333333332
                },
                {
                    "name": "A3",
                    "midi": 57,
                    "time": 38.039131999999995,
                    "velocity": 0.3543307086614173,
                    "duration": 0.06535933333333332
                },
                {
                    "name": "A3",
                    "midi": 57,
                    "time": 38.431287999999995,
                    "velocity": 0.3543307086614173,
                    "duration": 0.06535933333333332
                },
                {
                    "name": "A3",
                    "midi": 57,
                    "time": 38.823443999999995,
                    "velocity": 0.3543307086614173,
                    "duration": 0.06535933333333332
                },
                {
                    "name": "A3",
                    "midi": 57,
                    "time": 39.215599999999995,
                    "velocity": 0.3543307086614173,
                    "duration": 0.06535933333333332
                },
                {
                    "name": "A3",
                    "midi": 57,
                    "time": 40.784223999999995,
                    "velocity": 0.3543307086614173,
                    "duration": 0.06535933333333332
                },
                {
                    "name": "A3",
                    "midi": 57,
                    "time": 41.176379999999995,
                    "velocity": 0.3543307086614173,
                    "duration": 0.06535933333333332
                },
                {
                    "name": "A3",
                    "midi": 57,
                    "time": 41.568535999999995,
                    "velocity": 0.3543307086614173,
                    "duration": 0.09803899999999999
                },
                {
                    "name": "A3",
                    "midi": 57,
                    "time": 41.960691999999995,
                    "velocity": 0.3543307086614173,
                    "duration": 0.09803899999999999
                },
                {
                    "name": "A3",
                    "midi": 57,
                    "time": 42.352847999999994,
                    "velocity": 0.3543307086614173,
                    "duration": 0.09803899999999999
                },
                {
                    "name": "A3",
                    "midi": 57,
                    "time": 42.745003999999994,
                    "velocity": 0.3543307086614173,
                    "duration": 0.09803899999999999
                },
                {
                    "name": "A3",
                    "midi": 57,
                    "time": 43.137159999999994,
                    "velocity": 0.3543307086614173,
                    "duration": 0.09803899999999999
                },
                {
                    "name": "A3",
                    "midi": 57,
                    "time": 43.529315999999994,
                    "velocity": 0.3543307086614173,
                    "duration": 0.09803899999999999
                },
                {
                    "name": "A3",
                    "midi": 57,
                    "time": 43.921471999999994,
                    "velocity": 0.3543307086614173,
                    "duration": 0.09803899999999999
                },
                {
                    "name": "A3",
                    "midi": 57,
                    "time": 44.313627999999994,
                    "velocity": 0.3543307086614173,
                    "duration": 0.09803899999999999
                },
                {
                    "name": "A3",
                    "midi": 57,
                    "time": 44.705783999999994,
                    "velocity": 0.3543307086614173,
                    "duration": 0.09803899999999999
                },
                {
                    "name": "A3",
                    "midi": 57,
                    "time": 45.097939999999994,
                    "velocity": 0.3543307086614173,
                    "duration": 0.09803899999999999
                },
                {
                    "name": "A3",
                    "midi": 57,
                    "time": 45.490095999999994,
                    "velocity": 0.3543307086614173,
                    "duration": 0.09803899999999999
                },
                {
                    "name": "A3",
                    "midi": 57,
                    "time": 46.274407999999994,
                    "velocity": 0.3543307086614173,
                    "duration": 0.06535933333333332
                },
                {
                    "name": "A3",
                    "midi": 57,
                    "time": 46.470485999999994,
                    "velocity": 0.3543307086614173,
                    "duration": 0.06535933333333332
                },
                {
                    "name": "A3",
                    "midi": 57,
                    "time": 46.666563999999994,
                    "velocity": 0.3543307086614173,
                    "duration": 0.06535933333333332
                },
                {
                    "name": "A3",
                    "midi": 57,
                    "time": 46.862641999999994,
                    "velocity": 0.3543307086614173,
                    "duration": 0.06535933333333332
                },
                {
                    "name": "A3",
                    "midi": 57,
                    "time": 47.058719999999994,
                    "velocity": 0.3543307086614173,
                    "duration": 0.06535933333333332
                },
                {
                    "name": "A3",
                    "midi": 57,
                    "time": 47.254797999999994,
                    "velocity": 0.3543307086614173,
                    "duration": 0.06535933333333332
                },
                {
                    "name": "A3",
                    "midi": 57,
                    "time": 47.450875999999994,
                    "velocity": 0.3543307086614173,
                    "duration": 0.06535933333333332
                },
                {
                    "name": "A3",
                    "midi": 57,
                    "time": 47.646953999999994,
                    "velocity": 0.3543307086614173,
                    "duration": 0.06535933333333332
                },
                {
                    "name": "A3",
                    "midi": 57,
                    "time": 47.843031999999994,
                    "velocity": 0.3543307086614173,
                    "duration": 0.06535933333333332
                },
                {
                    "name": "A3",
                    "midi": 57,
                    "time": 48.039109999999994,
                    "velocity": 0.3543307086614173,
                    "duration": 0.06535933333333332
                },
                {
                    "name": "A3",
                    "midi": 57,
                    "time": 48.235187999999994,
                    "velocity": 0.3543307086614173,
                    "duration": 0.06535933333333332
                },
                {
                    "name": "A3",
                    "midi": 57,
                    "time": 48.431265999999994,
                    "velocity": 0.3543307086614173,
                    "duration": 0.06535933333333332
                },
                {
                    "name": "A3",
                    "midi": 57,
                    "time": 48.627343999999994,
                    "velocity": 0.3543307086614173,
                    "duration": 0.06535933333333332
                },
                {
                    "name": "A3",
                    "midi": 57,
                    "time": 48.823421999999994,
                    "velocity": 0.3543307086614173,
                    "duration": 0.06535933333333332
                },
                {
                    "name": "A3",
                    "midi": 57,
                    "time": 49.019499999999994,
                    "velocity": 0.3543307086614173,
                    "duration": 0.06535933333333332
                },
                {
                    "name": "A3",
                    "midi": 57,
                    "time": 49.215577999999994,
                    "velocity": 0.3543307086614173,
                    "duration": 0.06535933333333332
                },
                {
                    "name": "A3",
                    "midi": 57,
                    "time": 49.411655999999994,
                    "velocity": 0.3543307086614173,
                    "duration": 0.06535933333333332
                },
                {
                    "name": "A3",
                    "midi": 57,
                    "time": 49.607733999999994,
                    "velocity": 0.3543307086614173,
                    "duration": 0.06535933333333332
                },
                {
                    "name": "A3",
                    "midi": 57,
                    "time": 49.80381199999999,
                    "velocity": 0.3543307086614173,
                    "duration": 0.06535933333333332
                },
                {
                    "name": "A3",
                    "midi": 57,
                    "time": 49.99988999999999,
                    "velocity": 0.3543307086614173,
                    "duration": 0.06535933333333332
                },
                {
                    "name": "A3",
                    "midi": 57,
                    "time": 50.19596799999999,
                    "velocity": 0.3543307086614173,
                    "duration": 0.06535933333333332
                },
                {
                    "name": "A3",
                    "midi": 57,
                    "time": 50.39204599999999,
                    "velocity": 0.3543307086614173,
                    "duration": 0.06535933333333332
                },
                {
                    "name": "A3",
                    "midi": 57,
                    "time": 50.58812399999999,
                    "velocity": 0.3543307086614173,
                    "duration": 0.06535933333333332
                },
                {
                    "name": "A3",
                    "midi": 57,
                    "time": 50.78420199999999,
                    "velocity": 0.3543307086614173,
                    "duration": 0.06535933333333332
                },
                {
                    "name": "A3",
                    "midi": 57,
                    "time": 50.98027999999999,
                    "velocity": 0.3543307086614173,
                    "duration": 0.06535933333333332
                },
                {
                    "name": "A3",
                    "midi": 57,
                    "time": 51.17635799999999,
                    "velocity": 0.3543307086614173,
                    "duration": 0.06535933333333332
                },
                {
                    "name": "A3",
                    "midi": 57,
                    "time": 51.37243599999999,
                    "velocity": 0.3543307086614173,
                    "duration": 0.06535933333333332
                },
                {
                    "name": "A3",
                    "midi": 57,
                    "time": 51.56851399999999,
                    "velocity": 0.3543307086614173,
                    "duration": 0.06535933333333332
                },
                {
                    "name": "A3",
                    "midi": 57,
                    "time": 51.76459199999999,
                    "velocity": 0.3543307086614173,
                    "duration": 0.06535933333333332
                },
                {
                    "name": "A3",
                    "midi": 57,
                    "time": 51.96066999999999,
                    "velocity": 0.3543307086614173,
                    "duration": 0.06535933333333332
                },
                {
                    "name": "A3",
                    "midi": 57,
                    "time": 52.15674799999999,
                    "velocity": 0.3543307086614173,
                    "duration": 0.06535933333333332
                },
                {
                    "name": "A3",
                    "midi": 57,
                    "time": 52.35282599999999,
                    "velocity": 0.3543307086614173,
                    "duration": 0.06535933333333332
                },
                {
                    "name": "A3",
                    "midi": 57,
                    "time": 52.54890399999999,
                    "velocity": 0.3543307086614173,
                    "duration": 0.06535933333333332
                },
                {
                    "name": "A3",
                    "midi": 57,
                    "time": 52.74498199999999,
                    "velocity": 0.3543307086614173,
                    "duration": 0.06535933333333332
                },
                {
                    "name": "A3",
                    "midi": 57,
                    "time": 52.94105999999999,
                    "velocity": 0.3543307086614173,
                    "duration": 0.06535933333333332
                },
                {
                    "name": "A3",
                    "midi": 57,
                    "time": 53.13713799999999,
                    "velocity": 0.3543307086614173,
                    "duration": 0.06535933333333332
                },
                {
                    "name": "A3",
                    "midi": 57,
                    "time": 53.33321599999999,
                    "velocity": 0.3543307086614173,
                    "duration": 0.06535933333333332
                },
                {
                    "name": "A3",
                    "midi": 57,
                    "time": 53.52929399999999,
                    "velocity": 0.3543307086614173,
                    "duration": 0.06535933333333332
                },
                {
                    "name": "A3",
                    "midi": 57,
                    "time": 53.72537199999999,
                    "velocity": 0.3543307086614173,
                    "duration": 0.06535933333333332
                },
                {
                    "name": "A3",
                    "midi": 57,
                    "time": 53.92144999999999,
                    "velocity": 0.3543307086614173,
                    "duration": 0.06535933333333332
                },
                {
                    "name": "A3",
                    "midi": 57,
                    "time": 54.11752799999999,
                    "velocity": 0.3543307086614173,
                    "duration": 0.06535933333333332
                },
                {
                    "name": "A3",
                    "midi": 57,
                    "time": 54.31360599999999,
                    "velocity": 0.3543307086614173,
                    "duration": 0.06535933333333332
                },
                {
                    "name": "A3",
                    "midi": 57,
                    "time": 54.50968399999999,
                    "velocity": 0.3543307086614173,
                    "duration": 0.06535933333333332
                },
                {
                    "name": "A3",
                    "midi": 57,
                    "time": 54.70576199999999,
                    "velocity": 0.3543307086614173,
                    "duration": 0.06535933333333332
                },
                {
                    "name": "A3",
                    "midi": 57,
                    "time": 54.90183999999999,
                    "velocity": 0.3543307086614173,
                    "duration": 0.06535933333333332
                },
                {
                    "name": "A3",
                    "midi": 57,
                    "time": 55.09791799999999,
                    "velocity": 0.3543307086614173,
                    "duration": 0.06535933333333332
                },
                {
                    "name": "A3",
                    "midi": 57,
                    "time": 55.29399599999999,
                    "velocity": 0.3543307086614173,
                    "duration": 0.06535933333333332
                },
                {
                    "name": "A3",
                    "midi": 57,
                    "time": 55.49007399999999,
                    "velocity": 0.3543307086614173,
                    "duration": 0.06535933333333332
                },
                {
                    "name": "A3",
                    "midi": 57,
                    "time": 55.68615199999999,
                    "velocity": 0.3543307086614173,
                    "duration": 0.06535933333333332
                },
                {
                    "name": "A3",
                    "midi": 57,
                    "time": 55.88222999999999,
                    "velocity": 0.3543307086614173,
                    "duration": 0.06535933333333332
                },
                {
                    "name": "A3",
                    "midi": 57,
                    "time": 56.07830799999999,
                    "velocity": 0.3543307086614173,
                    "duration": 0.06535933333333332
                },
                {
                    "name": "A3",
                    "midi": 57,
                    "time": 56.27438599999999,
                    "velocity": 0.3543307086614173,
                    "duration": 0.06535933333333332
                },
                {
                    "name": "A3",
                    "midi": 57,
                    "time": 56.47046399999999,
                    "velocity": 0.3543307086614173,
                    "duration": 0.06535933333333332
                },
                {
                    "name": "A3",
                    "midi": 57,
                    "time": 56.66654199999999,
                    "velocity": 0.3543307086614173,
                    "duration": 0.06535933333333332
                },
                {
                    "name": "A3",
                    "midi": 57,
                    "time": 56.86261999999999,
                    "velocity": 0.3543307086614173,
                    "duration": 0.06535933333333332
                },
                {
                    "name": "A3",
                    "midi": 57,
                    "time": 57.05869799999999,
                    "velocity": 0.3543307086614173,
                    "duration": 0.06535933333333332
                },
                {
                    "name": "A3",
                    "midi": 57,
                    "time": 57.25477599999999,
                    "velocity": 0.3543307086614173,
                    "duration": 0.06535933333333332
                },
                {
                    "name": "A3",
                    "midi": 57,
                    "time": 57.45085399999999,
                    "velocity": 0.3543307086614173,
                    "duration": 0.06535933333333332
                },
                {
                    "name": "A3",
                    "midi": 57,
                    "time": 57.64693199999999,
                    "velocity": 0.3543307086614173,
                    "duration": 0.06535933333333332
                },
                {
                    "name": "A3",
                    "midi": 57,
                    "time": 57.84300999999999,
                    "velocity": 0.3543307086614173,
                    "duration": 0.06535933333333332
                },
                {
                    "name": "A3",
                    "midi": 57,
                    "time": 58.03908799999999,
                    "velocity": 0.3543307086614173,
                    "duration": 0.06535933333333332
                },
                {
                    "name": "A3",
                    "midi": 57,
                    "time": 58.23516599999999,
                    "velocity": 0.3543307086614173,
                    "duration": 0.06535933333333332
                },
                {
                    "name": "A3",
                    "midi": 57,
                    "time": 58.43124399999999,
                    "velocity": 0.3543307086614173,
                    "duration": 0.06535933333333332
                },
                {
                    "name": "A3",
                    "midi": 57,
                    "time": 58.62732199999999,
                    "velocity": 0.3543307086614173,
                    "duration": 0.06535933333333332
                },
                {
                    "name": "A3",
                    "midi": 57,
                    "time": 58.82339999999999,
                    "velocity": 0.3543307086614173,
                    "duration": 0.06535933333333332
                },
                {
                    "name": "A3",
                    "midi": 57,
                    "time": 59.01947799999999,
                    "velocity": 0.3543307086614173,
                    "duration": 0.06535933333333332
                },
                {
                    "name": "A3",
                    "midi": 57,
                    "time": 59.21555599999999,
                    "velocity": 0.3543307086614173,
                    "duration": 0.06535933333333332
                },
                {
                    "name": "A3",
                    "midi": 57,
                    "time": 59.41163399999999,
                    "velocity": 0.3543307086614173,
                    "duration": 0.06535933333333332
                },
                {
                    "name": "A3",
                    "midi": 57,
                    "time": 59.60771199999999,
                    "velocity": 0.3543307086614173,
                    "duration": 0.06535933333333332
                },
                {
                    "name": "A3",
                    "midi": 57,
                    "time": 59.80378999999999,
                    "velocity": 0.3543307086614173,
                    "duration": 0.06535933333333332
                },
                {
                    "name": "A3",
                    "midi": 57,
                    "time": 59.99986799999999,
                    "velocity": 0.3543307086614173,
                    "duration": 0.06535933333333332
                },
                {
                    "name": "A3",
                    "midi": 57,
                    "time": 60.19594599999999,
                    "velocity": 0.3543307086614173,
                    "duration": 0.06535933333333332
                },
                {
                    "name": "A3",
                    "midi": 57,
                    "time": 60.39202399999999,
                    "velocity": 0.3543307086614173,
                    "duration": 0.06535933333333332
                },
                {
                    "name": "A3",
                    "midi": 57,
                    "time": 60.58810199999999,
                    "velocity": 0.3543307086614173,
                    "duration": 0.06535933333333332
                },
                {
                    "name": "A3",
                    "midi": 57,
                    "time": 60.78417999999999,
                    "velocity": 0.3543307086614173,
                    "duration": 0.06535933333333332
                },
                {
                    "name": "A3",
                    "midi": 57,
                    "time": 60.98025799999999,
                    "velocity": 0.3543307086614173,
                    "duration": 0.06535933333333332
                },
                {
                    "name": "A3",
                    "midi": 57,
                    "time": 61.17633599999999,
                    "velocity": 0.3543307086614173,
                    "duration": 0.06535933333333332
                },
                {
                    "name": "A3",
                    "midi": 57,
                    "time": 61.37241399999999,
                    "velocity": 0.3543307086614173,
                    "duration": 0.06535933333333332
                },
                {
                    "name": "A3",
                    "midi": 57,
                    "time": 61.56849199999999,
                    "velocity": 0.3543307086614173,
                    "duration": 0.06535933333333332
                },
                {
                    "name": "A3",
                    "midi": 57,
                    "time": 61.76456999999999,
                    "velocity": 0.3543307086614173,
                    "duration": 0.06535933333333332
                },
                {
                    "name": "A3",
                    "midi": 57,
                    "time": 61.96064799999999,
                    "velocity": 0.3543307086614173,
                    "duration": 0.06535933333333332
                },
                {
                    "name": "A3",
                    "midi": 57,
                    "time": 62.15672599999999,
                    "velocity": 0.3543307086614173,
                    "duration": 0.06535933333333332
                },
                {
                    "name": "A3",
                    "midi": 57,
                    "time": 62.35280399999999,
                    "velocity": 0.3543307086614173,
                    "duration": 0.06535933333333332
                },
                {
                    "name": "A3",
                    "midi": 57,
                    "time": 62.54888199999999,
                    "velocity": 0.3543307086614173,
                    "duration": 0.06535933333333332
                },
                {
                    "name": "A3",
                    "midi": 57,
                    "time": 62.74495999999999,
                    "velocity": 0.3543307086614173,
                    "duration": 0.06535933333333332
                },
                {
                    "name": "A3",
                    "midi": 57,
                    "time": 62.94103799999999,
                    "velocity": 0.3543307086614173,
                    "duration": 0.06535933333333332
                },
                {
                    "name": "A3",
                    "midi": 57,
                    "time": 63.13711599999999,
                    "velocity": 0.3543307086614173,
                    "duration": 0.06535933333333332
                },
                {
                    "name": "A3",
                    "midi": 57,
                    "time": 63.33319399999999,
                    "velocity": 0.3543307086614173,
                    "duration": 0.06535933333333332
                },
                {
                    "name": "A3",
                    "midi": 57,
                    "time": 63.52927199999999,
                    "velocity": 0.3543307086614173,
                    "duration": 0.06535933333333332
                },
                {
                    "name": "A3",
                    "midi": 57,
                    "time": 63.72534999999999,
                    "velocity": 0.3543307086614173,
                    "duration": 0.06535933333333332
                },
                {
                    "name": "A3",
                    "midi": 57,
                    "time": 63.92142799999999,
                    "velocity": 0.3543307086614173,
                    "duration": 0.06535933333333332
                },
                {
                    "name": "A3",
                    "midi": 57,
                    "time": 64.11750599999999,
                    "velocity": 0.3543307086614173,
                    "duration": 0.06535933333333332
                },
                {
                    "name": "A3",
                    "midi": 57,
                    "time": 64.31358399999999,
                    "velocity": 0.3543307086614173,
                    "duration": 0.06535933333333332
                },
                {
                    "name": "A3",
                    "midi": 57,
                    "time": 64.50966199999999,
                    "velocity": 0.3543307086614173,
                    "duration": 0.06535933333333332
                },
                {
                    "name": "A3",
                    "midi": 57,
                    "time": 64.70573999999999,
                    "velocity": 0.3543307086614173,
                    "duration": 0.06535933333333332
                },
                {
                    "name": "A3",
                    "midi": 57,
                    "time": 64.90181799999999,
                    "velocity": 0.3543307086614173,
                    "duration": 0.06535933333333332
                },
                {
                    "name": "A3",
                    "midi": 57,
                    "time": 65.09789599999999,
                    "velocity": 0.3543307086614173,
                    "duration": 0.06535933333333332
                },
                {
                    "name": "A3",
                    "midi": 57,
                    "time": 65.29397399999999,
                    "velocity": 0.3543307086614173,
                    "duration": 0.06535933333333332
                },
                {
                    "name": "A3",
                    "midi": 57,
                    "time": 65.49005199999999,
                    "velocity": 0.3543307086614173,
                    "duration": 0.06535933333333332
                },
                {
                    "name": "A3",
                    "midi": 57,
                    "time": 65.68612999999999,
                    "velocity": 0.3543307086614173,
                    "duration": 0.06535933333333332
                },
                {
                    "name": "A3",
                    "midi": 57,
                    "time": 65.88220799999999,
                    "velocity": 0.3543307086614173,
                    "duration": 0.06535933333333332
                },
                {
                    "name": "A3",
                    "midi": 57,
                    "time": 66.07828599999999,
                    "velocity": 0.3543307086614173,
                    "duration": 0.06535933333333332
                },
                {
                    "name": "A3",
                    "midi": 57,
                    "time": 66.27436399999999,
                    "velocity": 0.3543307086614173,
                    "duration": 0.06535933333333332
                },
                {
                    "name": "A3",
                    "midi": 57,
                    "time": 66.47044199999999,
                    "velocity": 0.3543307086614173,
                    "duration": 0.06535933333333332
                },
                {
                    "name": "A3",
                    "midi": 57,
                    "time": 66.66651999999999,
                    "velocity": 0.3543307086614173,
                    "duration": 0.06535933333333332
                },
                {
                    "name": "A3",
                    "midi": 57,
                    "time": 66.86259799999999,
                    "velocity": 0.3543307086614173,
                    "duration": 0.06535933333333332
                },
                {
                    "name": "A3",
                    "midi": 57,
                    "time": 67.05867599999999,
                    "velocity": 0.3543307086614173,
                    "duration": 0.06535933333333332
                },
                {
                    "name": "A3",
                    "midi": 57,
                    "time": 67.25475399999999,
                    "velocity": 0.3543307086614173,
                    "duration": 0.06535933333333332
                },
                {
                    "name": "A3",
                    "midi": 57,
                    "time": 67.45083199999999,
                    "velocity": 0.3543307086614173,
                    "duration": 0.06535933333333332
                },
                {
                    "name": "A3",
                    "midi": 57,
                    "time": 67.64690999999999,
                    "velocity": 0.3543307086614173,
                    "duration": 0.06535933333333332
                },
                {
                    "name": "A3",
                    "midi": 57,
                    "time": 67.84298799999999,
                    "velocity": 0.3543307086614173,
                    "duration": 0.06535933333333332
                },
                {
                    "name": "A3",
                    "midi": 57,
                    "time": 68.03906599999999,
                    "velocity": 0.3543307086614173,
                    "duration": 0.06535933333333332
                },
                {
                    "name": "A3",
                    "midi": 57,
                    "time": 68.23514399999999,
                    "velocity": 0.3543307086614173,
                    "duration": 0.06535933333333332
                },
                {
                    "name": "A3",
                    "midi": 57,
                    "time": 68.43122199999999,
                    "velocity": 0.3543307086614173,
                    "duration": 0.06535933333333332
                },
                {
                    "name": "A3",
                    "midi": 57,
                    "time": 68.62729999999999,
                    "velocity": 0.3543307086614173,
                    "duration": 0.06535933333333332
                },
                {
                    "name": "A3",
                    "midi": 57,
                    "time": 68.82337799999999,
                    "velocity": 0.3543307086614173,
                    "duration": 0.06535933333333332
                },
                {
                    "name": "A3",
                    "midi": 57,
                    "time": 69.01945599999999,
                    "velocity": 0.3543307086614173,
                    "duration": 0.06535933333333332
                },
                {
                    "name": "A3",
                    "midi": 57,
                    "time": 69.21553399999999,
                    "velocity": 0.3543307086614173,
                    "duration": 0.06535933333333332
                },
                {
                    "name": "A3",
                    "midi": 57,
                    "time": 69.41161199999999,
                    "velocity": 0.3543307086614173,
                    "duration": 0.06535933333333332
                },
                {
                    "name": "A3",
                    "midi": 57,
                    "time": 69.60768999999999,
                    "velocity": 0.3543307086614173,
                    "duration": 0.06535933333333332
                },
                {
                    "name": "A3",
                    "midi": 57,
                    "time": 69.80376799999999,
                    "velocity": 0.3543307086614173,
                    "duration": 0.06535933333333332
                },
                {
                    "name": "A3",
                    "midi": 57,
                    "time": 69.99984599999999,
                    "velocity": 0.3543307086614173,
                    "duration": 0.06535933333333332
                },
                {
                    "name": "A3",
                    "midi": 57,
                    "time": 70.19592399999999,
                    "velocity": 0.3543307086614173,
                    "duration": 0.06535933333333332
                },
                {
                    "name": "A3",
                    "midi": 57,
                    "time": 70.39200199999999,
                    "velocity": 0.3543307086614173,
                    "duration": 0.06535933333333332
                },
                {
                    "name": "A3",
                    "midi": 57,
                    "time": 70.58807999999999,
                    "velocity": 0.3543307086614173,
                    "duration": 0.06535933333333332
                },
                {
                    "name": "A3",
                    "midi": 57,
                    "time": 72.15670399999999,
                    "velocity": 0.3543307086614173,
                    "duration": 0.06535933333333332
                },
                {
                    "name": "A3",
                    "midi": 57,
                    "time": 73.72532799999999,
                    "velocity": 0.3543307086614173,
                    "duration": 0.06535933333333332
                },
                {
                    "name": "A3",
                    "midi": 57,
                    "time": 75.29395199999999,
                    "velocity": 0.3543307086614173,
                    "duration": 0.06535933333333332
                },
                {
                    "name": "A3",
                    "midi": 57,
                    "time": 77.64688799999999,
                    "velocity": 0.3543307086614173,
                    "duration": 0.06535933333333332
                },
                {
                    "name": "A3",
                    "midi": 57,
                    "time": 77.84296599999999,
                    "velocity": 0.3543307086614173,
                    "duration": 0.06535933333333332
                },
                {
                    "name": "A3",
                    "midi": 57,
                    "time": 78.03904399999999,
                    "velocity": 0.3543307086614173,
                    "duration": 0.06535933333333332
                },
                {
                    "name": "A3",
                    "midi": 57,
                    "time": 78.23512199999999,
                    "velocity": 0.3543307086614173,
                    "duration": 0.06535933333333332
                },
                {
                    "name": "A3",
                    "midi": 57,
                    "time": 78.43119999999999,
                    "velocity": 0.3543307086614173,
                    "duration": 0.06535933333333332
                },
                {
                    "name": "A3",
                    "midi": 57,
                    "time": 78.62727799999999,
                    "velocity": 0.3543307086614173,
                    "duration": 0.06535933333333332
                },
                {
                    "name": "A3",
                    "midi": 57,
                    "time": 78.82335599999999,
                    "velocity": 0.3543307086614173,
                    "duration": 0.06535933333333332
                },
                {
                    "name": "A3",
                    "midi": 57,
                    "time": 79.01943399999999,
                    "velocity": 0.3543307086614173,
                    "duration": 0.06535933333333332
                },
                {
                    "name": "A3",
                    "midi": 57,
                    "time": 79.21551199999999,
                    "velocity": 0.3543307086614173,
                    "duration": 0.06535933333333332
                },
                {
                    "name": "A3",
                    "midi": 57,
                    "time": 79.41158999999999,
                    "velocity": 0.3543307086614173,
                    "duration": 0.06535933333333332
                },
                {
                    "name": "A3",
                    "midi": 57,
                    "time": 79.60766799999999,
                    "velocity": 0.3543307086614173,
                    "duration": 0.06535933333333332
                },
                {
                    "name": "A3",
                    "midi": 57,
                    "time": 79.80374599999999,
                    "velocity": 0.3543307086614173,
                    "duration": 0.06535933333333332
                },
                {
                    "name": "A3",
                    "midi": 57,
                    "time": 79.99982399999999,
                    "velocity": 0.3543307086614173,
                    "duration": 0.06535933333333332
                },
                {
                    "name": "A3",
                    "midi": 57,
                    "time": 80.19590199999999,
                    "velocity": 0.3543307086614173,
                    "duration": 0.06535933333333332
                },
                {
                    "name": "A3",
                    "midi": 57,
                    "time": 80.39197999999999,
                    "velocity": 0.3543307086614173,
                    "duration": 0.06535933333333332
                },
                {
                    "name": "A3",
                    "midi": 57,
                    "time": 80.58805799999999,
                    "velocity": 0.3543307086614173,
                    "duration": 0.06535933333333332
                },
                {
                    "name": "A3",
                    "midi": 57,
                    "time": 80.78413599999999,
                    "velocity": 0.3543307086614173,
                    "duration": 0.06535933333333332
                },
                {
                    "name": "A3",
                    "midi": 57,
                    "time": 80.98021399999999,
                    "velocity": 0.3543307086614173,
                    "duration": 0.06535933333333332
                },
                {
                    "name": "A3",
                    "midi": 57,
                    "time": 81.17629199999999,
                    "velocity": 0.3543307086614173,
                    "duration": 0.06535933333333332
                },
                {
                    "name": "A3",
                    "midi": 57,
                    "time": 81.37236999999999,
                    "velocity": 0.3543307086614173,
                    "duration": 0.06535933333333332
                },
                {
                    "name": "A3",
                    "midi": 57,
                    "time": 81.56844799999999,
                    "velocity": 0.3543307086614173,
                    "duration": 0.06535933333333332
                },
                {
                    "name": "A3",
                    "midi": 57,
                    "time": 81.76452599999999,
                    "velocity": 0.3543307086614173,
                    "duration": 0.06535933333333332
                },
                {
                    "name": "A3",
                    "midi": 57,
                    "time": 81.96060399999999,
                    "velocity": 0.3543307086614173,
                    "duration": 0.06535933333333332
                },
                {
                    "name": "A3",
                    "midi": 57,
                    "time": 82.15668199999999,
                    "velocity": 0.3543307086614173,
                    "duration": 0.06535933333333332
                },
                {
                    "name": "A3",
                    "midi": 57,
                    "time": 82.35275999999999,
                    "velocity": 0.3543307086614173,
                    "duration": 0.06535933333333332
                },
                {
                    "name": "A3",
                    "midi": 57,
                    "time": 82.54883799999999,
                    "velocity": 0.3543307086614173,
                    "duration": 0.06535933333333332
                },
                {
                    "name": "A3",
                    "midi": 57,
                    "time": 82.74491599999999,
                    "velocity": 0.3543307086614173,
                    "duration": 0.06535933333333332
                },
                {
                    "name": "A3",
                    "midi": 57,
                    "time": 82.94099399999999,
                    "velocity": 0.3543307086614173,
                    "duration": 0.06535933333333332
                },
                {
                    "name": "A3",
                    "midi": 57,
                    "time": 83.13707199999999,
                    "velocity": 0.3543307086614173,
                    "duration": 0.06535933333333332
                },
                {
                    "name": "A3",
                    "midi": 57,
                    "time": 83.33314999999999,
                    "velocity": 0.3543307086614173,
                    "duration": 0.06535933333333332
                },
                {
                    "name": "A3",
                    "midi": 57,
                    "time": 83.52922799999999,
                    "velocity": 0.3543307086614173,
                    "duration": 0.06535933333333332
                },
                {
                    "name": "A3",
                    "midi": 57,
                    "time": 83.72530599999999,
                    "velocity": 0.3543307086614173,
                    "duration": 0.06535933333333332
                },
                {
                    "name": "A3",
                    "midi": 57,
                    "time": 83.92138399999999,
                    "velocity": 0.3543307086614173,
                    "duration": 0.06535933333333332
                },
                {
                    "name": "A3",
                    "midi": 57,
                    "time": 84.11746199999999,
                    "velocity": 0.3543307086614173,
                    "duration": 0.06535933333333332
                },
                {
                    "name": "A3",
                    "midi": 57,
                    "time": 84.31353999999999,
                    "velocity": 0.3543307086614173,
                    "duration": 0.06535933333333332
                },
                {
                    "name": "A3",
                    "midi": 57,
                    "time": 84.50961799999999,
                    "velocity": 0.3543307086614173,
                    "duration": 0.06535933333333332
                },
                {
                    "name": "A3",
                    "midi": 57,
                    "time": 84.70569599999999,
                    "velocity": 0.3543307086614173,
                    "duration": 0.06535933333333332
                },
                {
                    "name": "A3",
                    "midi": 57,
                    "time": 84.90177399999999,
                    "velocity": 0.3543307086614173,
                    "duration": 0.06535933333333332
                },
                {
                    "name": "A3",
                    "midi": 57,
                    "time": 85.09785199999999,
                    "velocity": 0.3543307086614173,
                    "duration": 0.06535933333333332
                },
                {
                    "name": "A3",
                    "midi": 57,
                    "time": 85.29392999999999,
                    "velocity": 0.3543307086614173,
                    "duration": 0.06535933333333332
                },
                {
                    "name": "A3",
                    "midi": 57,
                    "time": 85.49000799999999,
                    "velocity": 0.3543307086614173,
                    "duration": 0.06535933333333332
                },
                {
                    "name": "A3",
                    "midi": 57,
                    "time": 85.68608599999999,
                    "velocity": 0.3543307086614173,
                    "duration": 0.06535933333333332
                },
                {
                    "name": "A3",
                    "midi": 57,
                    "time": 85.88216399999999,
                    "velocity": 0.3543307086614173,
                    "duration": 0.06535933333333332
                },
                {
                    "name": "A3",
                    "midi": 57,
                    "time": 86.07824199999999,
                    "velocity": 0.3543307086614173,
                    "duration": 0.06535933333333332
                },
                {
                    "name": "A3",
                    "midi": 57,
                    "time": 86.27431999999999,
                    "velocity": 0.3543307086614173,
                    "duration": 0.06535933333333332
                },
                {
                    "name": "A3",
                    "midi": 57,
                    "time": 86.47039799999999,
                    "velocity": 0.3543307086614173,
                    "duration": 0.06535933333333332
                },
                {
                    "name": "A3",
                    "midi": 57,
                    "time": 86.66647599999999,
                    "velocity": 0.3543307086614173,
                    "duration": 0.06535933333333332
                },
                {
                    "name": "A3",
                    "midi": 57,
                    "time": 86.86255399999999,
                    "velocity": 0.3543307086614173,
                    "duration": 0.06535933333333332
                },
                {
                    "name": "A3",
                    "midi": 57,
                    "time": 87.05863199999999,
                    "velocity": 0.3543307086614173,
                    "duration": 0.06535933333333332
                },
                {
                    "name": "A3",
                    "midi": 57,
                    "time": 87.25470999999999,
                    "velocity": 0.3543307086614173,
                    "duration": 0.06535933333333332
                },
                {
                    "name": "A3",
                    "midi": 57,
                    "time": 87.45078799999999,
                    "velocity": 0.3543307086614173,
                    "duration": 0.06535933333333332
                },
                {
                    "name": "A3",
                    "midi": 57,
                    "time": 87.64686599999999,
                    "velocity": 0.3543307086614173,
                    "duration": 0.06535933333333332
                },
                {
                    "name": "A3",
                    "midi": 57,
                    "time": 87.84294399999999,
                    "velocity": 0.3543307086614173,
                    "duration": 0.06535933333333332
                },
                {
                    "name": "A3",
                    "midi": 57,
                    "time": 88.03902199999999,
                    "velocity": 0.3543307086614173,
                    "duration": 0.06535933333333332
                },
                {
                    "name": "A3",
                    "midi": 57,
                    "time": 88.23509999999999,
                    "velocity": 0.3543307086614173,
                    "duration": 0.06535933333333332
                },
                {
                    "name": "A3",
                    "midi": 57,
                    "time": 88.43117799999999,
                    "velocity": 0.3543307086614173,
                    "duration": 0.06535933333333332
                },
                {
                    "name": "A3",
                    "midi": 57,
                    "time": 88.62725599999999,
                    "velocity": 0.3543307086614173,
                    "duration": 0.06535933333333332
                },
                {
                    "name": "A3",
                    "midi": 57,
                    "time": 88.82333399999999,
                    "velocity": 0.3543307086614173,
                    "duration": 0.06535933333333332
                },
                {
                    "name": "A3",
                    "midi": 57,
                    "time": 89.01941199999999,
                    "velocity": 0.3543307086614173,
                    "duration": 0.06535933333333332
                },
                {
                    "name": "A3",
                    "midi": 57,
                    "time": 89.21548999999999,
                    "velocity": 0.3543307086614173,
                    "duration": 0.06535933333333332
                },
                {
                    "name": "A3",
                    "midi": 57,
                    "time": 89.41156799999999,
                    "velocity": 0.3543307086614173,
                    "duration": 0.06535933333333332
                },
                {
                    "name": "A3",
                    "midi": 57,
                    "time": 89.60764599999999,
                    "velocity": 0.3543307086614173,
                    "duration": 0.06535933333333332
                },
                {
                    "name": "A3",
                    "midi": 57,
                    "time": 89.80372399999999,
                    "velocity": 0.3543307086614173,
                    "duration": 0.06535933333333332
                },
                {
                    "name": "A3",
                    "midi": 57,
                    "time": 89.99980199999999,
                    "velocity": 0.3543307086614173,
                    "duration": 0.06535933333333332
                },
                {
                    "name": "A3",
                    "midi": 57,
                    "time": 90.19587999999999,
                    "velocity": 0.3543307086614173,
                    "duration": 0.06535933333333332
                },
                {
                    "name": "A3",
                    "midi": 57,
                    "time": 90.39195799999999,
                    "velocity": 0.3543307086614173,
                    "duration": 0.06535933333333332
                },
                {
                    "name": "A3",
                    "midi": 57,
                    "time": 90.58803599999999,
                    "velocity": 0.3543307086614173,
                    "duration": 0.06535933333333332
                },
                {
                    "name": "A3",
                    "midi": 57,
                    "time": 90.78411399999999,
                    "velocity": 0.3543307086614173,
                    "duration": 0.06535933333333332
                },
                {
                    "name": "A3",
                    "midi": 57,
                    "time": 90.98019199999999,
                    "velocity": 0.3543307086614173,
                    "duration": 0.06535933333333332
                },
                {
                    "name": "A3",
                    "midi": 57,
                    "time": 91.17626999999999,
                    "velocity": 0.3543307086614173,
                    "duration": 0.06535933333333332
                },
                {
                    "name": "A3",
                    "midi": 57,
                    "time": 91.37234799999999,
                    "velocity": 0.3543307086614173,
                    "duration": 0.06535933333333332
                },
                {
                    "name": "A3",
                    "midi": 57,
                    "time": 91.56842599999999,
                    "velocity": 0.3543307086614173,
                    "duration": 0.06535933333333332
                },
                {
                    "name": "A3",
                    "midi": 57,
                    "time": 91.76450399999999,
                    "velocity": 0.3543307086614173,
                    "duration": 0.06535933333333332
                },
                {
                    "name": "A3",
                    "midi": 57,
                    "time": 91.96058199999999,
                    "velocity": 0.3543307086614173,
                    "duration": 0.06535933333333332
                },
                {
                    "name": "A3",
                    "midi": 57,
                    "time": 92.15665999999999,
                    "velocity": 0.3543307086614173,
                    "duration": 0.06535933333333332
                },
                {
                    "name": "A3",
                    "midi": 57,
                    "time": 92.35273799999999,
                    "velocity": 0.3543307086614173,
                    "duration": 0.06535933333333332
                },
                {
                    "name": "A3",
                    "midi": 57,
                    "time": 92.54881599999999,
                    "velocity": 0.3543307086614173,
                    "duration": 0.06535933333333332
                },
                {
                    "name": "A3",
                    "midi": 57,
                    "time": 92.74489399999999,
                    "velocity": 0.3543307086614173,
                    "duration": 0.06535933333333332
                },
                {
                    "name": "A3",
                    "midi": 57,
                    "time": 92.94097199999999,
                    "velocity": 0.3543307086614173,
                    "duration": 0.06535933333333332
                },
                {
                    "name": "A3",
                    "midi": 57,
                    "time": 93.13704999999999,
                    "velocity": 0.3543307086614173,
                    "duration": 0.06535933333333332
                },
                {
                    "name": "A3",
                    "midi": 57,
                    "time": 93.33312799999999,
                    "velocity": 0.3543307086614173,
                    "duration": 0.06535933333333332
                },
                {
                    "name": "A3",
                    "midi": 57,
                    "time": 93.52920599999999,
                    "velocity": 0.3543307086614173,
                    "duration": 0.06535933333333332
                },
                {
                    "name": "A3",
                    "midi": 57,
                    "time": 93.72528399999999,
                    "velocity": 0.3543307086614173,
                    "duration": 0.06535933333333332
                },
                {
                    "name": "A3",
                    "midi": 57,
                    "time": 93.92136199999999,
                    "velocity": 0.3543307086614173,
                    "duration": 0.06535933333333332
                },
                {
                    "name": "A3",
                    "midi": 57,
                    "time": 94.11743999999999,
                    "velocity": 0.3543307086614173,
                    "duration": 0.06535933333333332
                },
                {
                    "name": "A3",
                    "midi": 57,
                    "time": 94.31351799999999,
                    "velocity": 0.3543307086614173,
                    "duration": 0.06535933333333332
                },
                {
                    "name": "A3",
                    "midi": 57,
                    "time": 94.50959599999999,
                    "velocity": 0.3543307086614173,
                    "duration": 0.06535933333333332
                },
                {
                    "name": "A3",
                    "midi": 57,
                    "time": 94.70567399999999,
                    "velocity": 0.3543307086614173,
                    "duration": 0.06535933333333332
                },
                {
                    "name": "A3",
                    "midi": 57,
                    "time": 94.90175199999999,
                    "velocity": 0.3543307086614173,
                    "duration": 0.06535933333333332
                },
                {
                    "name": "A3",
                    "midi": 57,
                    "time": 95.09782999999999,
                    "velocity": 0.3543307086614173,
                    "duration": 0.06535933333333332
                },
                {
                    "name": "A3",
                    "midi": 57,
                    "time": 95.29390799999999,
                    "velocity": 0.3543307086614173,
                    "duration": 0.06535933333333332
                },
                {
                    "name": "A3",
                    "midi": 57,
                    "time": 95.48998599999999,
                    "velocity": 0.3543307086614173,
                    "duration": 0.06535933333333332
                },
                {
                    "name": "A3",
                    "midi": 57,
                    "time": 95.68606399999999,
                    "velocity": 0.47244094488188976,
                    "duration": 0.06535933333333332
                },
                {
                    "name": "A3",
                    "midi": 57,
                    "time": 95.88214199999999,
                    "velocity": 0.47244094488188976,
                    "duration": 0.06535933333333332
                },
                {
                    "name": "A3",
                    "midi": 57,
                    "time": 96.07821999999999,
                    "velocity": 0.47244094488188976,
                    "duration": 0.06535933333333332
                },
                {
                    "name": "A3",
                    "midi": 57,
                    "time": 96.27429799999999,
                    "velocity": 0.47244094488188976,
                    "duration": 0.06535933333333332
                },
                {
                    "name": "A3",
                    "midi": 57,
                    "time": 96.47037599999999,
                    "velocity": 0.47244094488188976,
                    "duration": 0.06535933333333332
                },
                {
                    "name": "A3",
                    "midi": 57,
                    "time": 96.66645399999999,
                    "velocity": 0.47244094488188976,
                    "duration": 0.06535933333333332
                },
                {
                    "name": "A3",
                    "midi": 57,
                    "time": 96.86253199999999,
                    "velocity": 0.47244094488188976,
                    "duration": 0.06535933333333332
                },
                {
                    "name": "A3",
                    "midi": 57,
                    "time": 97.05860999999999,
                    "velocity": 0.6614173228346457,
                    "duration": 0.38807104166666306
                },
                {
                    "name": "A3",
                    "midi": 57,
                    "time": 97.45076599999999,
                    "velocity": 0.47244094488188976,
                    "duration": 0.06535933333333332
                },
                {
                    "name": "A3",
                    "midi": 57,
                    "time": 97.64684399999999,
                    "velocity": 0.47244094488188976,
                    "duration": 0.06535933333333332
                },
                {
                    "name": "A3",
                    "midi": 57,
                    "time": 97.84292199999999,
                    "velocity": 0.47244094488188976,
                    "duration": 0.06535933333333332
                },
                {
                    "name": "A3",
                    "midi": 57,
                    "time": 98.03899999999999,
                    "velocity": 0.47244094488188976,
                    "duration": 0.06535933333333332
                },
                {
                    "name": "A3",
                    "midi": 57,
                    "time": 98.23507799999999,
                    "velocity": 0.47244094488188976,
                    "duration": 0.06535933333333332
                },
                {
                    "name": "A3",
                    "midi": 57,
                    "time": 98.43115599999999,
                    "velocity": 0.47244094488188976,
                    "duration": 0.06535933333333332
                },
                {
                    "name": "A3",
                    "midi": 57,
                    "time": 98.62723399999999,
                    "velocity": 0.47244094488188976,
                    "duration": 0.06535933333333332
                },
                {
                    "name": "A3",
                    "midi": 57,
                    "time": 98.82331199999999,
                    "velocity": 0.47244094488188976,
                    "duration": 0.06535933333333332
                },
                {
                    "name": "A3",
                    "midi": 57,
                    "time": 99.01938999999999,
                    "velocity": 0.47244094488188976,
                    "duration": 0.06535933333333332
                },
                {
                    "name": "A3",
                    "midi": 57,
                    "time": 99.21546799999999,
                    "velocity": 0.47244094488188976,
                    "duration": 0.06535933333333332
                },
                {
                    "name": "A3",
                    "midi": 57,
                    "time": 99.41154599999999,
                    "velocity": 0.47244094488188976,
                    "duration": 0.06535933333333332
                },
                {
                    "name": "A3",
                    "midi": 57,
                    "time": 99.60762399999999,
                    "velocity": 0.47244094488188976,
                    "duration": 0.06535933333333332
                },
                {
                    "name": "A3",
                    "midi": 57,
                    "time": 99.80370199999999,
                    "velocity": 0.47244094488188976,
                    "duration": 0.06535933333333332
                },
                {
                    "name": "A3",
                    "midi": 57,
                    "time": 99.99977999999999,
                    "velocity": 0.47244094488188976,
                    "duration": 0.06535933333333332
                },
                {
                    "name": "A3",
                    "midi": 57,
                    "time": 100.19585799999999,
                    "velocity": 0.6614173228346457,
                    "duration": 0.38807104166666306
                },
                {
                    "name": "A3",
                    "midi": 57,
                    "time": 100.58801399999999,
                    "velocity": 0.47244094488188976,
                    "duration": 0.06535933333333332
                },
                {
                    "name": "A3",
                    "midi": 57,
                    "time": 100.78409199999999,
                    "velocity": 0.47244094488188976,
                    "duration": 0.06535933333333332
                },
                {
                    "name": "A3",
                    "midi": 57,
                    "time": 100.98016999999999,
                    "velocity": 0.47244094488188976,
                    "duration": 0.06535933333333332
                },
                {
                    "name": "A3",
                    "midi": 57,
                    "time": 101.17624799999999,
                    "velocity": 0.47244094488188976,
                    "duration": 0.06535933333333332
                },
                {
                    "name": "A3",
                    "midi": 57,
                    "time": 101.37232599999999,
                    "velocity": 0.47244094488188976,
                    "duration": 0.06535933333333332
                },
                {
                    "name": "A3",
                    "midi": 57,
                    "time": 101.56840399999999,
                    "velocity": 0.47244094488188976,
                    "duration": 0.06535933333333332
                },
                {
                    "name": "A3",
                    "midi": 57,
                    "time": 101.76448199999999,
                    "velocity": 0.47244094488188976,
                    "duration": 0.06535933333333332
                },
                {
                    "name": "A3",
                    "midi": 57,
                    "time": 101.96055999999999,
                    "velocity": 0.47244094488188976,
                    "duration": 0.06535933333333332
                },
                {
                    "name": "A3",
                    "midi": 57,
                    "time": 102.15663799999999,
                    "velocity": 0.47244094488188976,
                    "duration": 0.06535933333333332
                },
                {
                    "name": "A3",
                    "midi": 57,
                    "time": 102.35271599999999,
                    "velocity": 0.47244094488188976,
                    "duration": 0.06535933333333332
                },
                {
                    "name": "A3",
                    "midi": 57,
                    "time": 102.54879399999999,
                    "velocity": 0.47244094488188976,
                    "duration": 0.06535933333333332
                },
                {
                    "name": "A3",
                    "midi": 57,
                    "time": 102.74487199999999,
                    "velocity": 0.47244094488188976,
                    "duration": 0.06535933333333332
                },
                {
                    "name": "A3",
                    "midi": 57,
                    "time": 102.94094999999999,
                    "velocity": 0.47244094488188976,
                    "duration": 0.06535933333333332
                },
                {
                    "name": "A3",
                    "midi": 57,
                    "time": 103.13702799999999,
                    "velocity": 0.47244094488188976,
                    "duration": 0.06535933333333332
                },
                {
                    "name": "A3",
                    "midi": 57,
                    "time": 103.33310599999999,
                    "velocity": 0.47244094488188976,
                    "duration": 0.06535933333333332
                },
                {
                    "name": "A3",
                    "midi": 57,
                    "time": 103.52918399999999,
                    "velocity": 0.47244094488188976,
                    "duration": 0.06535933333333332
                },
                {
                    "name": "A3",
                    "midi": 57,
                    "time": 103.72526199999999,
                    "velocity": 0.47244094488188976,
                    "duration": 0.06535933333333332
                },
                {
                    "name": "A3",
                    "midi": 57,
                    "time": 103.92133999999999,
                    "velocity": 0.47244094488188976,
                    "duration": 0.06535933333333332
                },
                {
                    "name": "A3",
                    "midi": 57,
                    "time": 104.11741799999999,
                    "velocity": 0.47244094488188976,
                    "duration": 0.06535933333333332
                },
                {
                    "name": "A3",
                    "midi": 57,
                    "time": 104.31349599999999,
                    "velocity": 0.47244094488188976,
                    "duration": 0.06535933333333332
                },
                {
                    "name": "A3",
                    "midi": 57,
                    "time": 104.50957399999999,
                    "velocity": 0.47244094488188976,
                    "duration": 0.06535933333333332
                },
                {
                    "name": "A3",
                    "midi": 57,
                    "time": 104.70565199999999,
                    "velocity": 0.47244094488188976,
                    "duration": 0.06535933333333332
                },
                {
                    "name": "A3",
                    "midi": 57,
                    "time": 104.90172999999999,
                    "velocity": 0.47244094488188976,
                    "duration": 0.06535933333333332
                },
                {
                    "name": "A3",
                    "midi": 57,
                    "time": 105.09780799999999,
                    "velocity": 0.47244094488188976,
                    "duration": 0.06535933333333332
                },
                {
                    "name": "A3",
                    "midi": 57,
                    "time": 105.29388599999999,
                    "velocity": 0.47244094488188976,
                    "duration": 0.06535933333333332
                },
                {
                    "name": "A3",
                    "midi": 57,
                    "time": 105.48996399999999,
                    "velocity": 0.47244094488188976,
                    "duration": 0.06535933333333332
                },
                {
                    "name": "A3",
                    "midi": 57,
                    "time": 105.68604199999999,
                    "velocity": 0.47244094488188976,
                    "duration": 0.06535933333333332
                },
                {
                    "name": "A3",
                    "midi": 57,
                    "time": 105.88211999999999,
                    "velocity": 0.47244094488188976,
                    "duration": 0.06535933333333332
                },
                {
                    "name": "A3",
                    "midi": 57,
                    "time": 106.07819799999999,
                    "velocity": 0.47244094488188976,
                    "duration": 0.06535933333333332
                },
                {
                    "name": "A3",
                    "midi": 57,
                    "time": 106.27427599999999,
                    "velocity": 0.47244094488188976,
                    "duration": 0.06535933333333332
                },
                {
                    "name": "A3",
                    "midi": 57,
                    "time": 106.47035399999999,
                    "velocity": 0.47244094488188976,
                    "duration": 0.06535933333333332
                },
                {
                    "name": "A3",
                    "midi": 57,
                    "time": 106.66643199999999,
                    "velocity": 0.47244094488188976,
                    "duration": 0.06535933333333332
                },
                {
                    "name": "A3",
                    "midi": 57,
                    "time": 106.86250999999999,
                    "velocity": 0.47244094488188976,
                    "duration": 0.06535933333333332
                },
                {
                    "name": "A3",
                    "midi": 57,
                    "time": 107.05858799999999,
                    "velocity": 0.47244094488188976,
                    "duration": 0.06535933333333332
                },
                {
                    "name": "A3",
                    "midi": 57,
                    "time": 107.25466599999999,
                    "velocity": 0.47244094488188976,
                    "duration": 0.06535933333333332
                },
                {
                    "name": "A3",
                    "midi": 57,
                    "time": 107.45074399999999,
                    "velocity": 0.47244094488188976,
                    "duration": 0.06535933333333332
                },
                {
                    "name": "A3",
                    "midi": 57,
                    "time": 107.64682199999999,
                    "velocity": 0.47244094488188976,
                    "duration": 0.06535933333333332
                },
                {
                    "name": "A3",
                    "midi": 57,
                    "time": 107.84289999999999,
                    "velocity": 0.47244094488188976,
                    "duration": 0.06535933333333332
                },
                {
                    "name": "A3",
                    "midi": 57,
                    "time": 108.03897799999999,
                    "velocity": 0.47244094488188976,
                    "duration": 0.06535933333333332
                },
                {
                    "name": "A3",
                    "midi": 57,
                    "time": 108.23505599999999,
                    "velocity": 0.47244094488188976,
                    "duration": 0.06535933333333332
                },
                {
                    "name": "A3",
                    "midi": 57,
                    "time": 109.01936799999999,
                    "velocity": 0.3543307086614173,
                    "duration": 0.06535933333333332
                },
                {
                    "name": "A3",
                    "midi": 57,
                    "time": 109.41152399999999,
                    "velocity": 0.3543307086614173,
                    "duration": 0.06535933333333332
                },
                {
                    "name": "A3",
                    "midi": 57,
                    "time": 109.80367999999999,
                    "velocity": 0.3543307086614173,
                    "duration": 0.06535933333333332
                },
                {
                    "name": "A3",
                    "midi": 57,
                    "time": 110.58799199999999,
                    "velocity": 0.3543307086614173,
                    "duration": 0.06535933333333332
                },
                {
                    "name": "A3",
                    "midi": 57,
                    "time": 111.37230399999999,
                    "velocity": 0.3543307086614173,
                    "duration": 0.06535933333333332
                },
                {
                    "name": "A3",
                    "midi": 57,
                    "time": 112.15661599999999,
                    "velocity": 0.3543307086614173,
                    "duration": 0.06535933333333332
                },
                {
                    "name": "A3",
                    "midi": 57,
                    "time": 112.54877199999999,
                    "velocity": 0.3543307086614173,
                    "duration": 0.06535933333333332
                },
                {
                    "name": "A3",
                    "midi": 57,
                    "time": 112.94092799999999,
                    "velocity": 0.3543307086614173,
                    "duration": 0.06535933333333332
                },
                {
                    "name": "A3",
                    "midi": 57,
                    "time": 113.72523999999999,
                    "velocity": 0.3543307086614173,
                    "duration": 0.06535933333333332
                },
                {
                    "name": "A3",
                    "midi": 57,
                    "time": 114.50955199999999,
                    "velocity": 0.3543307086614173,
                    "duration": 0.06535933333333332
                },
                {
                    "name": "A3",
                    "midi": 57,
                    "time": 114.70562999999999,
                    "velocity": 0.3543307086614173,
                    "duration": 0.06535933333333332
                },
                {
                    "name": "A3",
                    "midi": 57,
                    "time": 114.90170799999999,
                    "velocity": 0.3543307086614173,
                    "duration": 0.06535933333333332
                },
                {
                    "name": "A3",
                    "midi": 57,
                    "time": 115.09778599999999,
                    "velocity": 0.3543307086614173,
                    "duration": 0.06535933333333332
                },
                {
                    "name": "A3",
                    "midi": 57,
                    "time": 115.29386399999999,
                    "velocity": 0.3543307086614173,
                    "duration": 0.06535933333333332
                },
                {
                    "name": "A3",
                    "midi": 57,
                    "time": 115.48994199999999,
                    "velocity": 0.3543307086614173,
                    "duration": 0.06535933333333332
                },
                {
                    "name": "A3",
                    "midi": 57,
                    "time": 115.68601999999998,
                    "velocity": 0.3543307086614173,
                    "duration": 0.06535933333333332
                },
                {
                    "name": "A3",
                    "midi": 57,
                    "time": 115.88209799999998,
                    "velocity": 0.3543307086614173,
                    "duration": 0.06535933333333332
                },
                {
                    "name": "A3",
                    "midi": 57,
                    "time": 116.07817599999998,
                    "velocity": 0.3543307086614173,
                    "duration": 0.06535933333333332
                },
                {
                    "name": "A3",
                    "midi": 57,
                    "time": 116.27425399999998,
                    "velocity": 0.3543307086614173,
                    "duration": 0.06535933333333332
                },
                {
                    "name": "A3",
                    "midi": 57,
                    "time": 116.47033199999998,
                    "velocity": 0.3543307086614173,
                    "duration": 0.06535933333333332
                },
                {
                    "name": "A3",
                    "midi": 57,
                    "time": 116.66640999999998,
                    "velocity": 0.3543307086614173,
                    "duration": 0.06535933333333332
                },
                {
                    "name": "A3",
                    "midi": 57,
                    "time": 116.86248799999998,
                    "velocity": 0.3543307086614173,
                    "duration": 0.06535933333333332
                },
                {
                    "name": "A3",
                    "midi": 57,
                    "time": 117.05856599999998,
                    "velocity": 0.3543307086614173,
                    "duration": 0.06535933333333332
                },
                {
                    "name": "A3",
                    "midi": 57,
                    "time": 117.25464399999998,
                    "velocity": 0.3543307086614173,
                    "duration": 0.06535933333333332
                },
                {
                    "name": "A3",
                    "midi": 57,
                    "time": 117.45072199999998,
                    "velocity": 0.3543307086614173,
                    "duration": 0.06535933333333332
                },
                {
                    "name": "A3",
                    "midi": 57,
                    "time": 117.64679999999998,
                    "velocity": 0.3543307086614173,
                    "duration": 0.06535933333333332
                },
                {
                    "name": "A3",
                    "midi": 57,
                    "time": 118.43111199999998,
                    "velocity": 0.3543307086614173,
                    "duration": 0.3267966666666666
                },
                {
                    "name": "A3",
                    "midi": 57,
                    "time": 119.21542399999998,
                    "velocity": 0.3543307086614173,
                    "duration": 0.3267966666666666
                },
                {
                    "name": "A3",
                    "midi": 57,
                    "time": 119.99973599999998,
                    "velocity": 0.3543307086614173,
                    "duration": 0.3267966666666666
                },
                {
                    "name": "A3",
                    "midi": 57,
                    "time": 120.78404799999998,
                    "velocity": 0.3543307086614173,
                    "duration": 0.3267966666666666
                },
                {
                    "name": "A3",
                    "midi": 57,
                    "time": 121.17620399999998,
                    "velocity": 0.3543307086614173,
                    "duration": 0.3267966666666666
                },
                {
                    "name": "A3",
                    "midi": 57,
                    "time": 121.56835999999998,
                    "velocity": 0.3543307086614173,
                    "duration": 0.06535933333333332
                },
                {
                    "name": "A3",
                    "midi": 57,
                    "time": 121.76443799999998,
                    "velocity": 0.3543307086614173,
                    "duration": 0.06535933333333332
                },
                {
                    "name": "A3",
                    "midi": 57,
                    "time": 121.96051599999998,
                    "velocity": 0.3543307086614173,
                    "duration": 0.06535933333333332
                },
                {
                    "name": "A3",
                    "midi": 57,
                    "time": 122.15659399999998,
                    "velocity": 0.3543307086614173,
                    "duration": 0.06535933333333332
                },
                {
                    "name": "A3",
                    "midi": 57,
                    "time": 122.35267199999998,
                    "velocity": 0.3543307086614173,
                    "duration": 0.06535933333333332
                },
                {
                    "name": "A3",
                    "midi": 57,
                    "time": 122.54874999999998,
                    "velocity": 0.3543307086614173,
                    "duration": 0.06535933333333332
                },
                {
                    "name": "A3",
                    "midi": 57,
                    "time": 122.74482799999998,
                    "velocity": 0.3543307086614173,
                    "duration": 0.06535933333333332
                },
                {
                    "name": "A3",
                    "midi": 57,
                    "time": 122.94090599999998,
                    "velocity": 0.3543307086614173,
                    "duration": 0.06535933333333332
                },
                {
                    "name": "A3",
                    "midi": 57,
                    "time": 123.13698399999998,
                    "velocity": 0.3543307086614173,
                    "duration": 0.06535933333333332
                },
                {
                    "name": "A3",
                    "midi": 57,
                    "time": 123.33306199999998,
                    "velocity": 0.3543307086614173,
                    "duration": 0.06535933333333332
                },
                {
                    "name": "A3",
                    "midi": 57,
                    "time": 123.52913999999998,
                    "velocity": 0.3543307086614173,
                    "duration": 0.06535933333333332
                },
                {
                    "name": "A3",
                    "midi": 57,
                    "time": 123.72521799999998,
                    "velocity": 0.3543307086614173,
                    "duration": 0.06535933333333332
                },
                {
                    "name": "A3",
                    "midi": 57,
                    "time": 123.92129599999998,
                    "velocity": 0.3543307086614173,
                    "duration": 0.06535933333333332
                },
                {
                    "name": "A3",
                    "midi": 57,
                    "time": 124.11737399999998,
                    "velocity": 0.3543307086614173,
                    "duration": 0.06535933333333332
                },
                {
                    "name": "A3",
                    "midi": 57,
                    "time": 124.31345199999998,
                    "velocity": 0.3543307086614173,
                    "duration": 0.06535933333333332
                },
                {
                    "name": "A3",
                    "midi": 57,
                    "time": 124.50952999999998,
                    "velocity": 0.3543307086614173,
                    "duration": 0.06535933333333332
                },
                {
                    "name": "A3",
                    "midi": 57,
                    "time": 124.70560799999998,
                    "velocity": 0.3543307086614173,
                    "duration": 0.06535933333333332
                },
                {
                    "name": "A3",
                    "midi": 57,
                    "time": 124.90168599999998,
                    "velocity": 0.3543307086614173,
                    "duration": 0.06535933333333332
                },
                {
                    "name": "A3",
                    "midi": 57,
                    "time": 125.09776399999998,
                    "velocity": 0.3543307086614173,
                    "duration": 0.06535933333333332
                },
                {
                    "name": "A3",
                    "midi": 57,
                    "time": 125.29384199999998,
                    "velocity": 0.3543307086614173,
                    "duration": 0.06535933333333332
                },
                {
                    "name": "A3",
                    "midi": 57,
                    "time": 125.48991999999998,
                    "velocity": 0.3543307086614173,
                    "duration": 0.06535933333333332
                },
                {
                    "name": "A3",
                    "midi": 57,
                    "time": 125.68599799999998,
                    "velocity": 0.3543307086614173,
                    "duration": 0.06535933333333332
                },
                {
                    "name": "A3",
                    "midi": 57,
                    "time": 125.88207599999998,
                    "velocity": 0.3543307086614173,
                    "duration": 0.06535933333333332
                },
                {
                    "name": "A3",
                    "midi": 57,
                    "time": 126.07815399999998,
                    "velocity": 0.3543307086614173,
                    "duration": 0.06535933333333332
                },
                {
                    "name": "A3",
                    "midi": 57,
                    "time": 126.27423199999998,
                    "velocity": 0.3543307086614173,
                    "duration": 0.06535933333333332
                },
                {
                    "name": "A3",
                    "midi": 57,
                    "time": 126.47030999999998,
                    "velocity": 0.3543307086614173,
                    "duration": 0.06535933333333332
                },
                {
                    "name": "A3",
                    "midi": 57,
                    "time": 126.66638799999998,
                    "velocity": 0.3543307086614173,
                    "duration": 0.06535933333333332
                },
                {
                    "name": "A3",
                    "midi": 57,
                    "time": 126.86246599999998,
                    "velocity": 0.3543307086614173,
                    "duration": 0.06535933333333332
                },
                {
                    "name": "A3",
                    "midi": 57,
                    "time": 127.05854399999998,
                    "velocity": 0.3543307086614173,
                    "duration": 0.06535933333333332
                },
                {
                    "name": "A3",
                    "midi": 57,
                    "time": 127.25462199999998,
                    "velocity": 0.3543307086614173,
                    "duration": 0.06535933333333332
                },
                {
                    "name": "A3",
                    "midi": 57,
                    "time": 127.45069999999998,
                    "velocity": 0.3543307086614173,
                    "duration": 0.06535933333333332
                },
                {
                    "name": "A3",
                    "midi": 57,
                    "time": 127.64677799999998,
                    "velocity": 0.3543307086614173,
                    "duration": 0.06535933333333332
                },
                {
                    "name": "A3",
                    "midi": 57,
                    "time": 127.84285599999998,
                    "velocity": 0.3543307086614173,
                    "duration": 0.06535933333333332
                },
                {
                    "name": "A3",
                    "midi": 57,
                    "time": 128.03893399999998,
                    "velocity": 0.3543307086614173,
                    "duration": 0.06535933333333332
                },
                {
                    "name": "A3",
                    "midi": 57,
                    "time": 128.23501199999998,
                    "velocity": 0.3543307086614173,
                    "duration": 0.06535933333333332
                },
                {
                    "name": "A3",
                    "midi": 57,
                    "time": 128.43108999999998,
                    "velocity": 0.3543307086614173,
                    "duration": 0.06535933333333332
                },
                {
                    "name": "A3",
                    "midi": 57,
                    "time": 128.62716799999998,
                    "velocity": 0.3543307086614173,
                    "duration": 0.06535933333333332
                },
                {
                    "name": "A3",
                    "midi": 57,
                    "time": 128.82324599999998,
                    "velocity": 0.3543307086614173,
                    "duration": 0.06535933333333332
                },
                {
                    "name": "A3",
                    "midi": 57,
                    "time": 129.01932399999998,
                    "velocity": 0.3543307086614173,
                    "duration": 0.06535933333333332
                },
                {
                    "name": "A3",
                    "midi": 57,
                    "time": 129.21540199999998,
                    "velocity": 0.3543307086614173,
                    "duration": 0.06535933333333332
                },
                {
                    "name": "A3",
                    "midi": 57,
                    "time": 129.41147999999998,
                    "velocity": 0.3543307086614173,
                    "duration": 0.06535933333333332
                },
                {
                    "name": "A3",
                    "midi": 57,
                    "time": 129.60755799999998,
                    "velocity": 0.3543307086614173,
                    "duration": 0.06535933333333332
                },
                {
                    "name": "A3",
                    "midi": 57,
                    "time": 129.80363599999998,
                    "velocity": 0.3543307086614173,
                    "duration": 0.06535933333333332
                },
                {
                    "name": "A3",
                    "midi": 57,
                    "time": 129.99971399999998,
                    "velocity": 0.3543307086614173,
                    "duration": 0.06535933333333332
                },
                {
                    "name": "A3",
                    "midi": 57,
                    "time": 130.19579199999998,
                    "velocity": 0.3543307086614173,
                    "duration": 0.06535933333333332
                },
                {
                    "name": "A3",
                    "midi": 57,
                    "time": 130.98010399999998,
                    "velocity": 0.3543307086614173,
                    "duration": 0.06535933333333332
                },
                {
                    "name": "A3",
                    "midi": 57,
                    "time": 131.76441599999998,
                    "velocity": 0.3543307086614173,
                    "duration": 0.06535933333333332
                },
                {
                    "name": "A3",
                    "midi": 57,
                    "time": 132.54872799999998,
                    "velocity": 0.3543307086614173,
                    "duration": 0.06535933333333332
                },
                {
                    "name": "A3",
                    "midi": 57,
                    "time": 133.33303999999998,
                    "velocity": 0.3543307086614173,
                    "duration": 0.06535933333333332
                },
                {
                    "name": "A3",
                    "midi": 57,
                    "time": 134.90166399999998,
                    "velocity": 0.3543307086614173,
                    "duration": 0.06535933333333332
                },
                {
                    "name": "A3",
                    "midi": 57,
                    "time": 136.47028799999998,
                    "velocity": 0.3543307086614173,
                    "duration": 0.06535933333333332
                },
                {
                    "name": "A3",
                    "midi": 57,
                    "time": 138.03891199999998,
                    "velocity": 0.3543307086614173,
                    "duration": 0.06535933333333332
                },
                {
                    "name": "A3",
                    "midi": 57,
                    "time": 138.82322399999998,
                    "velocity": 0.3543307086614173,
                    "duration": 0.06535933333333332
                },
                {
                    "name": "A3",
                    "midi": 57,
                    "time": 139.60753599999998,
                    "velocity": 0.3543307086614173,
                    "duration": 0.09803899999999999
                },
                {
                    "name": "A3",
                    "midi": 57,
                    "time": 139.99969199999998,
                    "velocity": 0.3543307086614173,
                    "duration": 0.2900320416666773
                },
                {
                    "name": "A3",
                    "midi": 57,
                    "time": 140.29380899999998,
                    "velocity": 0.3543307086614173,
                    "duration": 0.09395404166667731
                },
                {
                    "name": "A3",
                    "midi": 57,
                    "time": 140.39184799999998,
                    "velocity": 0.3543307086614173,
                    "duration": 0.3267966666666666
                },
                {
                    "name": "A3",
                    "midi": 57,
                    "time": 140.78400399999998,
                    "velocity": 0.3543307086614173,
                    "duration": 0.2900320416666773
                },
                {
                    "name": "A3",
                    "midi": 57,
                    "time": 141.07812099999998,
                    "velocity": 0.3543307086614173,
                    "duration": 0.09395404166667731
                },
                {
                    "name": "A3",
                    "midi": 57,
                    "time": 141.17615999999998,
                    "velocity": 0.3543307086614173,
                    "duration": 0.3267966666666666
                },
                {
                    "name": "A3",
                    "midi": 57,
                    "time": 141.56831599999998,
                    "velocity": 0.3543307086614173,
                    "duration": 0.2900320416666773
                },
                {
                    "name": "A3",
                    "midi": 57,
                    "time": 141.86243299999998,
                    "velocity": 0.3543307086614173,
                    "duration": 0.09395404166667731
                },
                {
                    "name": "A3",
                    "midi": 57,
                    "time": 141.96047199999998,
                    "velocity": 0.3543307086614173,
                    "duration": 0.3267966666666666
                },
                {
                    "name": "A3",
                    "midi": 57,
                    "time": 142.35262799999998,
                    "velocity": 0.3543307086614173,
                    "duration": 0.2900320416666773
                },
                {
                    "name": "A3",
                    "midi": 57,
                    "time": 142.64674499999998,
                    "velocity": 0.3543307086614173,
                    "duration": 0.09395404166667731
                },
                {
                    "name": "A3",
                    "midi": 57,
                    "time": 142.74478399999998,
                    "velocity": 0.3543307086614173,
                    "duration": 0.3267966666666666
                },
                {
                    "name": "A3",
                    "midi": 57,
                    "time": 143.13693999999998,
                    "velocity": 0.3543307086614173,
                    "duration": 0.2900320416666773
                },
                {
                    "name": "A3",
                    "midi": 57,
                    "time": 143.43105699999998,
                    "velocity": 0.3543307086614173,
                    "duration": 0.09395404166667731
                },
                {
                    "name": "A3",
                    "midi": 57,
                    "time": 143.52909599999998,
                    "velocity": 0.3543307086614173,
                    "duration": 0.3267966666666666
                },
                {
                    "name": "A3",
                    "midi": 57,
                    "time": 143.92125199999998,
                    "velocity": 0.3543307086614173,
                    "duration": 0.2900320416666773
                },
                {
                    "name": "A3",
                    "midi": 57,
                    "time": 144.21536899999998,
                    "velocity": 0.3543307086614173,
                    "duration": 0.09395404166667731
                },
                {
                    "name": "A3",
                    "midi": 57,
                    "time": 144.31340799999998,
                    "velocity": 0.3543307086614173,
                    "duration": 0.3267966666666666
                },
                {
                    "name": "A3",
                    "midi": 57,
                    "time": 144.70556399999998,
                    "velocity": 0.3543307086614173,
                    "duration": 0.2900320416666773
                },
                {
                    "name": "A3",
                    "midi": 57,
                    "time": 144.99968099999998,
                    "velocity": 0.3543307086614173,
                    "duration": 0.09395404166667731
                },
                {
                    "name": "A3",
                    "midi": 57,
                    "time": 145.09771999999998,
                    "velocity": 0.3543307086614173,
                    "duration": 0.3267966666666666
                },
                {
                    "name": "A3",
                    "midi": 57,
                    "time": 145.48987599999998,
                    "velocity": 0.3543307086614173,
                    "duration": 0.2900320416666773
                },
                {
                    "name": "A3",
                    "midi": 57,
                    "time": 145.78399299999998,
                    "velocity": 0.3543307086614173,
                    "duration": 0.09395404166667731
                },
                {
                    "name": "A3",
                    "midi": 57,
                    "time": 145.88203199999998,
                    "velocity": 0.3543307086614173,
                    "duration": 0.3267966666666666
                },
                {
                    "name": "A3",
                    "midi": 57,
                    "time": 146.27418799999998,
                    "velocity": 0.3543307086614173,
                    "duration": 0.2900320416666773
                },
                {
                    "name": "A3",
                    "midi": 57,
                    "time": 146.56830499999998,
                    "velocity": 0.3543307086614173,
                    "duration": 0.09395404166667731
                },
                {
                    "name": "A3",
                    "midi": 57,
                    "time": 146.66634399999998,
                    "velocity": 0.3543307086614173,
                    "duration": 0.3267966666666666
                },
                {
                    "name": "A3",
                    "midi": 57,
                    "time": 147.05849999999998,
                    "velocity": 0.3543307086614173,
                    "duration": 0.2900320416666773
                },
                {
                    "name": "A3",
                    "midi": 57,
                    "time": 147.35261699999998,
                    "velocity": 0.3543307086614173,
                    "duration": 0.09395404166667731
                },
                {
                    "name": "A3",
                    "midi": 57,
                    "time": 147.45065599999998,
                    "velocity": 0.3543307086614173,
                    "duration": 0.3267966666666666
                },
                {
                    "name": "A3",
                    "midi": 57,
                    "time": 147.84281199999998,
                    "velocity": 0.3543307086614173,
                    "duration": 0.2900320416666773
                },
                {
                    "name": "A3",
                    "midi": 57,
                    "time": 148.13692899999998,
                    "velocity": 0.3543307086614173,
                    "duration": 0.09395404166667731
                },
                {
                    "name": "A3",
                    "midi": 57,
                    "time": 148.23496799999998,
                    "velocity": 0.3543307086614173,
                    "duration": 0.3267966666666666
                },
                {
                    "name": "A3",
                    "midi": 57,
                    "time": 148.62712399999998,
                    "velocity": 0.3543307086614173,
                    "duration": 0.2900320416666773
                },
                {
                    "name": "A3",
                    "midi": 57,
                    "time": 148.92124099999998,
                    "velocity": 0.3543307086614173,
                    "duration": 0.09395404166667731
                },
                {
                    "name": "A3",
                    "midi": 57,
                    "time": 149.01927999999998,
                    "velocity": 0.3543307086614173,
                    "duration": 0.3267966666666666
                },
                {
                    "name": "A3",
                    "midi": 57,
                    "time": 149.41143599999998,
                    "velocity": 0.3543307086614173,
                    "duration": 0.2900320416666773
                },
                {
                    "name": "A3",
                    "midi": 57,
                    "time": 149.70555299999998,
                    "velocity": 0.3543307086614173,
                    "duration": 0.09395404166667731
                },
                {
                    "name": "A3",
                    "midi": 57,
                    "time": 149.80359199999998,
                    "velocity": 0.3543307086614173,
                    "duration": 0.3267966666666666
                },
                {
                    "name": "A3",
                    "midi": 57,
                    "time": 150.19574799999998,
                    "velocity": 0.3543307086614173,
                    "duration": 0.2900320416666773
                },
                {
                    "name": "A3",
                    "midi": 57,
                    "time": 150.48986499999998,
                    "velocity": 0.3543307086614173,
                    "duration": 0.09395404166667731
                },
                {
                    "name": "A3",
                    "midi": 57,
                    "time": 150.58790399999998,
                    "velocity": 0.3543307086614173,
                    "duration": 0.3267966666666666
                },
                {
                    "name": "A3",
                    "midi": 57,
                    "time": 150.98005999999998,
                    "velocity": 0.3543307086614173,
                    "duration": 0.2900320416666773
                },
                {
                    "name": "A3",
                    "midi": 57,
                    "time": 151.27417699999998,
                    "velocity": 0.3543307086614173,
                    "duration": 0.09395404166667731
                },
                {
                    "name": "A3",
                    "midi": 57,
                    "time": 151.37221599999998,
                    "velocity": 0.3543307086614173,
                    "duration": 0.3267966666666666
                },
                {
                    "name": "A3",
                    "midi": 57,
                    "time": 151.76437199999998,
                    "velocity": 0.3543307086614173,
                    "duration": 0.2900320416666773
                },
                {
                    "name": "A3",
                    "midi": 57,
                    "time": 152.05848899999998,
                    "velocity": 0.3543307086614173,
                    "duration": 0.09395404166667731
                },
                {
                    "name": "A3",
                    "midi": 57,
                    "time": 152.15652799999998,
                    "velocity": 0.3543307086614173,
                    "duration": 0.3267966666666666
                },
                {
                    "name": "A3",
                    "midi": 57,
                    "time": 152.94083999999998,
                    "velocity": 0.3543307086614173,
                    "duration": 0.09803899999999999
                },
                {
                    "name": "A3",
                    "midi": 57,
                    "time": 153.72515199999998,
                    "velocity": 0.3543307086614173,
                    "duration": 0.09803899999999999
                },
                {
                    "name": "A3",
                    "midi": 57,
                    "time": 154.50946399999998,
                    "velocity": 0.3543307086614173,
                    "duration": 0.09803899999999999
                },
                {
                    "name": "A3",
                    "midi": 57,
                    "time": 155.29377599999998,
                    "velocity": 0.3543307086614173,
                    "duration": 0.09803899999999999
                },
                {
                    "name": "A3",
                    "midi": 57,
                    "time": 156.07808799999998,
                    "velocity": 0.3543307086614173,
                    "duration": 0.09803899999999999
                },
                {
                    "name": "A3",
                    "midi": 57,
                    "time": 156.47024399999998,
                    "velocity": 0.3543307086614173,
                    "duration": 0.09803899999999999
                },
                {
                    "name": "A3",
                    "midi": 57,
                    "time": 156.86239999999998,
                    "velocity": 0.3543307086614173,
                    "duration": 0.09803899999999999
                },
                {
                    "name": "A3",
                    "midi": 57,
                    "time": 157.64671199999998,
                    "velocity": 0.3543307086614173,
                    "duration": 0.09803899999999999
                },
                {
                    "name": "A3",
                    "midi": 57,
                    "time": 158.43102399999998,
                    "velocity": 0.3543307086614173,
                    "duration": 0.09803899999999999
                },
                {
                    "name": "A3",
                    "midi": 57,
                    "time": 158.82317999999998,
                    "velocity": 0.3543307086614173,
                    "duration": 0.09803899999999999
                },
                {
                    "name": "A3",
                    "midi": 57,
                    "time": 159.21533599999998,
                    "velocity": 0.3543307086614173,
                    "duration": 0.09803899999999999
                },
                {
                    "name": "A3",
                    "midi": 57,
                    "time": 159.60749199999998,
                    "velocity": 0.3543307086614173,
                    "duration": 0.09803899999999999
                },
                {
                    "name": "A3",
                    "midi": 57,
                    "time": 159.99964799999998,
                    "velocity": 0.3543307086614173,
                    "duration": 0.09803899999999999
                },
                {
                    "name": "A3",
                    "midi": 57,
                    "time": 160.39180399999998,
                    "velocity": 0.3543307086614173,
                    "duration": 0.09803899999999999
                },
                {
                    "name": "A3",
                    "midi": 57,
                    "time": 160.78395999999998,
                    "velocity": 0.3543307086614173,
                    "duration": 0.09803899999999999
                },
                {
                    "name": "A3",
                    "midi": 57,
                    "time": 161.17611599999998,
                    "velocity": 0.3543307086614173,
                    "duration": 0.09803899999999999
                },
                {
                    "name": "A3",
                    "midi": 57,
                    "time": 161.56827199999998,
                    "velocity": 0.3543307086614173,
                    "duration": 0.09803899999999999
                },
                {
                    "name": "A3",
                    "midi": 57,
                    "time": 163.13689599999998,
                    "velocity": 0.3543307086614173,
                    "duration": 0.09803899999999999
                },
                {
                    "name": "A3",
                    "midi": 57,
                    "time": 164.70551999999998,
                    "velocity": 0.3543307086614173,
                    "duration": 0.09803899999999999
                },
                {
                    "name": "A3",
                    "midi": 57,
                    "time": 168.62707999999998,
                    "velocity": 0.3543307086614173,
                    "duration": 0.06535933333333332
                },
                {
                    "name": "A3",
                    "midi": 57,
                    "time": 168.82315799999998,
                    "velocity": 0.3543307086614173,
                    "duration": 0.06535933333333332
                },
                {
                    "name": "A3",
                    "midi": 57,
                    "time": 169.01923599999998,
                    "velocity": 0.3543307086614173,
                    "duration": 0.06535933333333332
                },
                {
                    "name": "A3",
                    "midi": 57,
                    "time": 169.21531399999998,
                    "velocity": 0.3543307086614173,
                    "duration": 0.06535933333333332
                },
                {
                    "name": "A3",
                    "midi": 57,
                    "time": 169.41139199999998,
                    "velocity": 0.3543307086614173,
                    "duration": 0.06535933333333332
                },
                {
                    "name": "A3",
                    "midi": 57,
                    "time": 169.60746999999998,
                    "velocity": 0.3543307086614173,
                    "duration": 0.06535933333333332
                },
                {
                    "name": "A3",
                    "midi": 57,
                    "time": 169.80354799999998,
                    "velocity": 0.3543307086614173,
                    "duration": 0.06535933333333332
                },
                {
                    "name": "A3",
                    "midi": 57,
                    "time": 169.99962599999998,
                    "velocity": 0.3543307086614173,
                    "duration": 0.06535933333333332
                },
                {
                    "name": "A3",
                    "midi": 57,
                    "time": 170.19570399999998,
                    "velocity": 0.3543307086614173,
                    "duration": 0.06535933333333332
                },
                {
                    "name": "A3",
                    "midi": 57,
                    "time": 170.39178199999998,
                    "velocity": 0.3543307086614173,
                    "duration": 0.06535933333333332
                },
                {
                    "name": "A3",
                    "midi": 57,
                    "time": 170.58785999999998,
                    "velocity": 0.3543307086614173,
                    "duration": 0.06535933333333332
                },
                {
                    "name": "A3",
                    "midi": 57,
                    "time": 170.78393799999998,
                    "velocity": 0.3543307086614173,
                    "duration": 0.06535933333333332
                },
                {
                    "name": "A3",
                    "midi": 57,
                    "time": 170.98001599999998,
                    "velocity": 0.3543307086614173,
                    "duration": 0.06535933333333332
                },
                {
                    "name": "A3",
                    "midi": 57,
                    "time": 171.17609399999998,
                    "velocity": 0.3543307086614173,
                    "duration": 0.06535933333333332
                },
                {
                    "name": "A3",
                    "midi": 57,
                    "time": 171.37217199999998,
                    "velocity": 0.3543307086614173,
                    "duration": 0.06535933333333332
                },
                {
                    "name": "A3",
                    "midi": 57,
                    "time": 171.56824999999998,
                    "velocity": 0.3543307086614173,
                    "duration": 0.06535933333333332
                },
                {
                    "name": "A3",
                    "midi": 57,
                    "time": 171.76432799999998,
                    "velocity": 0.3543307086614173,
                    "duration": 0.06535933333333332
                },
                {
                    "name": "A3",
                    "midi": 57,
                    "time": 171.96040599999998,
                    "velocity": 0.3543307086614173,
                    "duration": 0.06535933333333332
                },
                {
                    "name": "A3",
                    "midi": 57,
                    "time": 172.15648399999998,
                    "velocity": 0.3543307086614173,
                    "duration": 0.06535933333333332
                },
                {
                    "name": "A3",
                    "midi": 57,
                    "time": 172.35256199999998,
                    "velocity": 0.3543307086614173,
                    "duration": 0.06535933333333332
                },
                {
                    "name": "A3",
                    "midi": 57,
                    "time": 172.54863999999998,
                    "velocity": 0.3543307086614173,
                    "duration": 0.06535933333333332
                },
                {
                    "name": "A3",
                    "midi": 57,
                    "time": 172.74471799999998,
                    "velocity": 0.3543307086614173,
                    "duration": 0.06535933333333332
                },
                {
                    "name": "A3",
                    "midi": 57,
                    "time": 172.94079599999998,
                    "velocity": 0.3543307086614173,
                    "duration": 0.06535933333333332
                },
                {
                    "name": "A3",
                    "midi": 57,
                    "time": 173.13687399999998,
                    "velocity": 0.3543307086614173,
                    "duration": 0.06535933333333332
                },
                {
                    "name": "A3",
                    "midi": 57,
                    "time": 173.33295199999998,
                    "velocity": 0.3543307086614173,
                    "duration": 0.06535933333333332
                },
                {
                    "name": "A3",
                    "midi": 57,
                    "time": 173.52902999999998,
                    "velocity": 0.3543307086614173,
                    "duration": 0.06535933333333332
                },
                {
                    "name": "A3",
                    "midi": 57,
                    "time": 173.72510799999998,
                    "velocity": 0.3543307086614173,
                    "duration": 0.06535933333333332
                },
                {
                    "name": "A3",
                    "midi": 57,
                    "time": 173.92118599999998,
                    "velocity": 0.3543307086614173,
                    "duration": 0.06535933333333332
                },
                {
                    "name": "A3",
                    "midi": 57,
                    "time": 174.11726399999998,
                    "velocity": 0.3543307086614173,
                    "duration": 0.06535933333333332
                },
                {
                    "name": "A3",
                    "midi": 57,
                    "time": 174.90157599999998,
                    "velocity": 0.3543307086614173,
                    "duration": 0.06535933333333332
                },
                {
                    "name": "A3",
                    "midi": 57,
                    "time": 175.09765399999998,
                    "velocity": 0.3543307086614173,
                    "duration": 0.06535933333333332
                },
                {
                    "name": "A3",
                    "midi": 57,
                    "time": 175.29373199999998,
                    "velocity": 0.3543307086614173,
                    "duration": 0.06535933333333332
                },
                {
                    "name": "A3",
                    "midi": 57,
                    "time": 175.48980999999998,
                    "velocity": 0.3543307086614173,
                    "duration": 0.06535933333333332
                },
                {
                    "name": "A3",
                    "midi": 57,
                    "time": 175.68588799999998,
                    "velocity": 0.3543307086614173,
                    "duration": 0.06535933333333332
                },
                {
                    "name": "A3",
                    "midi": 57,
                    "time": 175.88196599999998,
                    "velocity": 0.3543307086614173,
                    "duration": 0.06535933333333332
                },
                {
                    "name": "A3",
                    "midi": 57,
                    "time": 176.07804399999998,
                    "velocity": 0.3543307086614173,
                    "duration": 0.06535933333333332
                },
                {
                    "name": "A3",
                    "midi": 57,
                    "time": 176.27412199999998,
                    "velocity": 0.3543307086614173,
                    "duration": 0.06535933333333332
                },
                {
                    "name": "A3",
                    "midi": 57,
                    "time": 176.47019999999998,
                    "velocity": 0.3543307086614173,
                    "duration": 0.06535933333333332
                },
                {
                    "name": "A3",
                    "midi": 57,
                    "time": 176.66627799999998,
                    "velocity": 0.3543307086614173,
                    "duration": 0.06535933333333332
                },
                {
                    "name": "A3",
                    "midi": 57,
                    "time": 176.86235599999998,
                    "velocity": 0.3543307086614173,
                    "duration": 0.06535933333333332
                },
                {
                    "name": "A3",
                    "midi": 57,
                    "time": 177.05843399999998,
                    "velocity": 0.3543307086614173,
                    "duration": 0.06535933333333332
                },
                {
                    "name": "A3",
                    "midi": 57,
                    "time": 177.25451199999998,
                    "velocity": 0.3543307086614173,
                    "duration": 0.06535933333333332
                },
                {
                    "name": "A3",
                    "midi": 57,
                    "time": 177.45058999999998,
                    "velocity": 0.3543307086614173,
                    "duration": 0.06535933333333332
                },
                {
                    "name": "A3",
                    "midi": 57,
                    "time": 177.64666799999998,
                    "velocity": 0.3543307086614173,
                    "duration": 0.06535933333333332
                },
                {
                    "name": "A3",
                    "midi": 57,
                    "time": 177.84274599999998,
                    "velocity": 0.3543307086614173,
                    "duration": 0.06535933333333332
                },
                {
                    "name": "A3",
                    "midi": 57,
                    "time": 178.03882399999998,
                    "velocity": 0.3543307086614173,
                    "duration": 0.06535933333333332
                },
                {
                    "name": "A3",
                    "midi": 57,
                    "time": 178.23490199999998,
                    "velocity": 0.3543307086614173,
                    "duration": 0.06535933333333332
                },
                {
                    "name": "A3",
                    "midi": 57,
                    "time": 178.43097999999998,
                    "velocity": 0.3543307086614173,
                    "duration": 0.06535933333333332
                },
                {
                    "name": "A3",
                    "midi": 57,
                    "time": 178.62705799999998,
                    "velocity": 0.3543307086614173,
                    "duration": 0.06535933333333332
                },
                {
                    "name": "A3",
                    "midi": 57,
                    "time": 178.82313599999998,
                    "velocity": 0.3543307086614173,
                    "duration": 0.06535933333333332
                },
                {
                    "name": "A3",
                    "midi": 57,
                    "time": 179.01921399999998,
                    "velocity": 0.3543307086614173,
                    "duration": 0.06535933333333332
                },
                {
                    "name": "A3",
                    "midi": 57,
                    "time": 179.21529199999998,
                    "velocity": 0.3543307086614173,
                    "duration": 0.06535933333333332
                },
                {
                    "name": "A3",
                    "midi": 57,
                    "time": 179.41136999999998,
                    "velocity": 0.3543307086614173,
                    "duration": 0.06535933333333332
                },
                {
                    "name": "A3",
                    "midi": 57,
                    "time": 179.60744799999998,
                    "velocity": 0.3543307086614173,
                    "duration": 0.06535933333333332
                },
                {
                    "name": "A3",
                    "midi": 57,
                    "time": 179.80352599999998,
                    "velocity": 0.3543307086614173,
                    "duration": 0.06535933333333332
                },
                {
                    "name": "A3",
                    "midi": 57,
                    "time": 179.99960399999998,
                    "velocity": 0.3543307086614173,
                    "duration": 0.06535933333333332
                },
                {
                    "name": "A3",
                    "midi": 57,
                    "time": 180.19568199999998,
                    "velocity": 0.3543307086614173,
                    "duration": 0.06535933333333332
                },
                {
                    "name": "A3",
                    "midi": 57,
                    "time": 180.39175999999998,
                    "velocity": 0.3543307086614173,
                    "duration": 0.06535933333333332
                },
                {
                    "name": "A3",
                    "midi": 57,
                    "time": 180.58783799999998,
                    "velocity": 0.3543307086614173,
                    "duration": 0.06535933333333332
                },
                {
                    "name": "A3",
                    "midi": 57,
                    "time": 180.78391599999998,
                    "velocity": 0.3543307086614173,
                    "duration": 0.06535933333333332
                },
                {
                    "name": "A3",
                    "midi": 57,
                    "time": 180.97999399999998,
                    "velocity": 0.3543307086614173,
                    "duration": 0.06535933333333332
                },
                {
                    "name": "A3",
                    "midi": 57,
                    "time": 181.17607199999998,
                    "velocity": 0.3543307086614173,
                    "duration": 0.06535933333333332
                },
                {
                    "name": "A3",
                    "midi": 57,
                    "time": 181.37214999999998,
                    "velocity": 0.3543307086614173,
                    "duration": 0.06535933333333332
                },
                {
                    "name": "A3",
                    "midi": 57,
                    "time": 181.56822799999998,
                    "velocity": 0.3543307086614173,
                    "duration": 0.06535933333333332
                },
                {
                    "name": "A3",
                    "midi": 57,
                    "time": 181.76430599999998,
                    "velocity": 0.3543307086614173,
                    "duration": 0.06535933333333332
                },
                {
                    "name": "A3",
                    "midi": 57,
                    "time": 181.96038399999998,
                    "velocity": 0.3543307086614173,
                    "duration": 0.06535933333333332
                },
                {
                    "name": "A3",
                    "midi": 57,
                    "time": 182.15646199999998,
                    "velocity": 0.3543307086614173,
                    "duration": 0.06535933333333332
                },
                {
                    "name": "A3",
                    "midi": 57,
                    "time": 182.35253999999998,
                    "velocity": 0.3543307086614173,
                    "duration": 0.06535933333333332
                },
                {
                    "name": "A3",
                    "midi": 57,
                    "time": 182.54861799999998,
                    "velocity": 0.3543307086614173,
                    "duration": 0.06535933333333332
                },
                {
                    "name": "A3",
                    "midi": 57,
                    "time": 182.74469599999998,
                    "velocity": 0.3543307086614173,
                    "duration": 0.06535933333333332
                },
                {
                    "name": "A3",
                    "midi": 57,
                    "time": 182.94077399999998,
                    "velocity": 0.3543307086614173,
                    "duration": 0.06535933333333332
                },
                {
                    "name": "A3",
                    "midi": 57,
                    "time": 183.13685199999998,
                    "velocity": 0.3543307086614173,
                    "duration": 0.06535933333333332
                },
                {
                    "name": "A3",
                    "midi": 57,
                    "time": 183.33292999999998,
                    "velocity": 0.3543307086614173,
                    "duration": 0.06535933333333332
                },
                {
                    "name": "A3",
                    "midi": 57,
                    "time": 183.52900799999998,
                    "velocity": 0.3543307086614173,
                    "duration": 0.06535933333333332
                },
                {
                    "name": "A3",
                    "midi": 57,
                    "time": 183.72508599999998,
                    "velocity": 0.3543307086614173,
                    "duration": 0.06535933333333332
                },
                {
                    "name": "A3",
                    "midi": 57,
                    "time": 183.92116399999998,
                    "velocity": 0.3543307086614173,
                    "duration": 0.06535933333333332
                },
                {
                    "name": "A3",
                    "midi": 57,
                    "time": 184.11724199999998,
                    "velocity": 0.3543307086614173,
                    "duration": 0.06535933333333332
                },
                {
                    "name": "A3",
                    "midi": 57,
                    "time": 184.31331999999998,
                    "velocity": 0.3543307086614173,
                    "duration": 0.06535933333333332
                },
                {
                    "name": "A3",
                    "midi": 57,
                    "time": 184.50939799999998,
                    "velocity": 0.3543307086614173,
                    "duration": 0.06535933333333332
                },
                {
                    "name": "A3",
                    "midi": 57,
                    "time": 184.70547599999998,
                    "velocity": 0.3543307086614173,
                    "duration": 0.06535933333333332
                },
                {
                    "name": "A3",
                    "midi": 57,
                    "time": 184.90155399999998,
                    "velocity": 0.3543307086614173,
                    "duration": 0.06535933333333332
                },
                {
                    "name": "A3",
                    "midi": 57,
                    "time": 185.09763199999998,
                    "velocity": 0.3543307086614173,
                    "duration": 0.06535933333333332
                },
                {
                    "name": "A3",
                    "midi": 57,
                    "time": 185.29370999999998,
                    "velocity": 0.3543307086614173,
                    "duration": 0.06535933333333332
                },
                {
                    "name": "A3",
                    "midi": 57,
                    "time": 185.48978799999998,
                    "velocity": 0.3543307086614173,
                    "duration": 0.06535933333333332
                },
                {
                    "name": "A3",
                    "midi": 57,
                    "time": 185.68586599999998,
                    "velocity": 0.3543307086614173,
                    "duration": 0.06535933333333332
                },
                {
                    "name": "A3",
                    "midi": 57,
                    "time": 185.88194399999998,
                    "velocity": 0.3543307086614173,
                    "duration": 0.06535933333333332
                },
                {
                    "name": "A3",
                    "midi": 57,
                    "time": 186.07802199999998,
                    "velocity": 0.3543307086614173,
                    "duration": 0.06535933333333332
                },
                {
                    "name": "A3",
                    "midi": 57,
                    "time": 186.27409999999998,
                    "velocity": 0.3543307086614173,
                    "duration": 0.06535933333333332
                },
                {
                    "name": "A3",
                    "midi": 57,
                    "time": 186.47017799999998,
                    "velocity": 0.3543307086614173,
                    "duration": 0.06535933333333332
                },
                {
                    "name": "A3",
                    "midi": 57,
                    "time": 186.66625599999998,
                    "velocity": 0.3543307086614173,
                    "duration": 0.06535933333333332
                },
                {
                    "name": "A3",
                    "midi": 57,
                    "time": 186.86233399999998,
                    "velocity": 0.3543307086614173,
                    "duration": 0.06535933333333332
                },
                {
                    "name": "A3",
                    "midi": 57,
                    "time": 187.05841199999998,
                    "velocity": 0.3543307086614173,
                    "duration": 0.06535933333333332
                },
                {
                    "name": "A3",
                    "midi": 57,
                    "time": 187.25448999999998,
                    "velocity": 0.3543307086614173,
                    "duration": 0.06535933333333332
                },
                {
                    "name": "A3",
                    "midi": 57,
                    "time": 187.45056799999998,
                    "velocity": 0.3543307086614173,
                    "duration": 0.06535933333333332
                },
                {
                    "name": "A3",
                    "midi": 57,
                    "time": 187.64664599999998,
                    "velocity": 0.3543307086614173,
                    "duration": 0.06535933333333332
                },
                {
                    "name": "A3",
                    "midi": 57,
                    "time": 187.84272399999998,
                    "velocity": 0.3543307086614173,
                    "duration": 0.06535933333333332
                },
                {
                    "name": "A3",
                    "midi": 57,
                    "time": 188.03880199999998,
                    "velocity": 0.3543307086614173,
                    "duration": 0.06535933333333332
                },
                {
                    "name": "A3",
                    "midi": 57,
                    "time": 188.23487999999998,
                    "velocity": 0.3543307086614173,
                    "duration": 0.06535933333333332
                },
                {
                    "name": "A3",
                    "midi": 57,
                    "time": 188.43095799999998,
                    "velocity": 0.3543307086614173,
                    "duration": 0.06535933333333332
                },
                {
                    "name": "A3",
                    "midi": 57,
                    "time": 188.62703599999998,
                    "velocity": 0.3543307086614173,
                    "duration": 0.06535933333333332
                },
                {
                    "name": "A3",
                    "midi": 57,
                    "time": 188.82311399999998,
                    "velocity": 0.3543307086614173,
                    "duration": 0.06535933333333332
                },
                {
                    "name": "A3",
                    "midi": 57,
                    "time": 189.01919199999998,
                    "velocity": 0.3543307086614173,
                    "duration": 0.06535933333333332
                },
                {
                    "name": "A3",
                    "midi": 57,
                    "time": 189.21526999999998,
                    "velocity": 0.3543307086614173,
                    "duration": 0.06535933333333332
                },
                {
                    "name": "A3",
                    "midi": 57,
                    "time": 189.41134799999998,
                    "velocity": 0.3543307086614173,
                    "duration": 0.06535933333333332
                },
                {
                    "name": "A3",
                    "midi": 57,
                    "time": 189.60742599999998,
                    "velocity": 0.3543307086614173,
                    "duration": 0.06535933333333332
                },
                {
                    "name": "A3",
                    "midi": 57,
                    "time": 189.80350399999998,
                    "velocity": 0.3543307086614173,
                    "duration": 0.06535933333333332
                },
                {
                    "name": "A3",
                    "midi": 57,
                    "time": 189.99958199999998,
                    "velocity": 0.3543307086614173,
                    "duration": 0.06535933333333332
                },
                {
                    "name": "A3",
                    "midi": 57,
                    "time": 190.19565999999998,
                    "velocity": 0.3543307086614173,
                    "duration": 0.06535933333333332
                },
                {
                    "name": "A3",
                    "midi": 57,
                    "time": 190.39173799999998,
                    "velocity": 0.3543307086614173,
                    "duration": 0.06535933333333332
                },
                {
                    "name": "A3",
                    "midi": 57,
                    "time": 190.58781599999998,
                    "velocity": 0.3543307086614173,
                    "duration": 0.06535933333333332
                },
                {
                    "name": "A3",
                    "midi": 57,
                    "time": 190.78389399999998,
                    "velocity": 0.3543307086614173,
                    "duration": 0.06535933333333332
                },
                {
                    "name": "A3",
                    "midi": 57,
                    "time": 190.97997199999998,
                    "velocity": 0.3543307086614173,
                    "duration": 0.06535933333333332
                },
                {
                    "name": "A3",
                    "midi": 57,
                    "time": 191.17604999999998,
                    "velocity": 0.3543307086614173,
                    "duration": 0.06535933333333332
                },
                {
                    "name": "A3",
                    "midi": 57,
                    "time": 191.37212799999998,
                    "velocity": 0.3543307086614173,
                    "duration": 0.06535933333333332
                },
                {
                    "name": "A3",
                    "midi": 57,
                    "time": 191.56820599999998,
                    "velocity": 0.3543307086614173,
                    "duration": 0.06535933333333332
                },
                {
                    "name": "A3",
                    "midi": 57,
                    "time": 191.76428399999998,
                    "velocity": 0.3543307086614173,
                    "duration": 0.06535933333333332
                },
                {
                    "name": "A3",
                    "midi": 57,
                    "time": 191.96036199999998,
                    "velocity": 0.3543307086614173,
                    "duration": 0.06535933333333332
                },
                {
                    "name": "A3",
                    "midi": 57,
                    "time": 192.15643999999998,
                    "velocity": 0.3543307086614173,
                    "duration": 0.06535933333333332
                },
                {
                    "name": "A3",
                    "midi": 57,
                    "time": 192.35251799999998,
                    "velocity": 0.3543307086614173,
                    "duration": 0.06535933333333332
                },
                {
                    "name": "A3",
                    "midi": 57,
                    "time": 192.54859599999997,
                    "velocity": 0.3543307086614173,
                    "duration": 0.06535933333333332
                },
                {
                    "name": "A3",
                    "midi": 57,
                    "time": 192.74467399999997,
                    "velocity": 0.3543307086614173,
                    "duration": 0.06535933333333332
                },
                {
                    "name": "A3",
                    "midi": 57,
                    "time": 192.94075199999997,
                    "velocity": 0.3543307086614173,
                    "duration": 0.06535933333333332
                },
                {
                    "name": "A3",
                    "midi": 57,
                    "time": 193.13682999999997,
                    "velocity": 0.3543307086614173,
                    "duration": 0.06535933333333332
                },
                {
                    "name": "A3",
                    "midi": 57,
                    "time": 193.33290799999997,
                    "velocity": 0.3543307086614173,
                    "duration": 0.06535933333333332
                },
                {
                    "name": "A3",
                    "midi": 57,
                    "time": 193.52898599999997,
                    "velocity": 0.3543307086614173,
                    "duration": 0.06535933333333332
                },
                {
                    "name": "A3",
                    "midi": 57,
                    "time": 193.72506399999997,
                    "velocity": 0.3543307086614173,
                    "duration": 0.06535933333333332
                },
                {
                    "name": "A3",
                    "midi": 57,
                    "time": 193.92114199999997,
                    "velocity": 0.3543307086614173,
                    "duration": 0.06535933333333332
                },
                {
                    "name": "A3",
                    "midi": 57,
                    "time": 194.11721999999997,
                    "velocity": 0.3543307086614173,
                    "duration": 0.06535933333333332
                },
                {
                    "name": "A3",
                    "midi": 57,
                    "time": 194.31329799999997,
                    "velocity": 0.3543307086614173,
                    "duration": 0.06535933333333332
                },
                {
                    "name": "A3",
                    "midi": 57,
                    "time": 194.50937599999997,
                    "velocity": 0.3543307086614173,
                    "duration": 0.06535933333333332
                },
                {
                    "name": "A3",
                    "midi": 57,
                    "time": 194.70545399999997,
                    "velocity": 0.3543307086614173,
                    "duration": 0.06535933333333332
                },
                {
                    "name": "A3",
                    "midi": 57,
                    "time": 194.90153199999997,
                    "velocity": 0.3543307086614173,
                    "duration": 0.06535933333333332
                },
                {
                    "name": "A3",
                    "midi": 57,
                    "time": 195.09760999999997,
                    "velocity": 0.3543307086614173,
                    "duration": 0.06535933333333332
                },
                {
                    "name": "A3",
                    "midi": 57,
                    "time": 195.29368799999997,
                    "velocity": 0.3543307086614173,
                    "duration": 0.06535933333333332
                },
                {
                    "name": "A3",
                    "midi": 57,
                    "time": 195.48976599999997,
                    "velocity": 0.3543307086614173,
                    "duration": 0.06535933333333332
                },
                {
                    "name": "A3",
                    "midi": 57,
                    "time": 195.68584399999997,
                    "velocity": 0.3543307086614173,
                    "duration": 0.06535933333333332
                },
                {
                    "name": "A3",
                    "midi": 57,
                    "time": 195.88192199999997,
                    "velocity": 0.3543307086614173,
                    "duration": 0.06535933333333332
                },
                {
                    "name": "A3",
                    "midi": 57,
                    "time": 196.07799999999997,
                    "velocity": 0.3543307086614173,
                    "duration": 0.06535933333333332
                },
                {
                    "name": "A3",
                    "midi": 57,
                    "time": 196.27407799999997,
                    "velocity": 0.3543307086614173,
                    "duration": 0.06535933333333332
                },
                {
                    "name": "A3",
                    "midi": 57,
                    "time": 196.47015599999997,
                    "velocity": 0.3543307086614173,
                    "duration": 0.06535933333333332
                },
                {
                    "name": "A3",
                    "midi": 57,
                    "time": 196.66623399999997,
                    "velocity": 0.3543307086614173,
                    "duration": 0.06535933333333332
                },
                {
                    "name": "A3",
                    "midi": 57,
                    "time": 196.86231199999997,
                    "velocity": 0.3543307086614173,
                    "duration": 0.06535933333333332
                },
                {
                    "name": "A3",
                    "midi": 57,
                    "time": 197.05838999999997,
                    "velocity": 0.3543307086614173,
                    "duration": 0.06535933333333332
                },
                {
                    "name": "A3",
                    "midi": 57,
                    "time": 197.25446799999997,
                    "velocity": 0.3543307086614173,
                    "duration": 0.06535933333333332
                },
                {
                    "name": "A3",
                    "midi": 57,
                    "time": 197.45054599999997,
                    "velocity": 0.3543307086614173,
                    "duration": 0.06535933333333332
                },
                {
                    "name": "A3",
                    "midi": 57,
                    "time": 197.64662399999997,
                    "velocity": 0.3543307086614173,
                    "duration": 0.06535933333333332
                },
                {
                    "name": "A3",
                    "midi": 57,
                    "time": 197.84270199999997,
                    "velocity": 0.3543307086614173,
                    "duration": 0.06535933333333332
                },
                {
                    "name": "A3",
                    "midi": 57,
                    "time": 198.03877999999997,
                    "velocity": 0.3543307086614173,
                    "duration": 0.06535933333333332
                },
                {
                    "name": "A3",
                    "midi": 57,
                    "time": 198.23485799999997,
                    "velocity": 0.3543307086614173,
                    "duration": 0.06535933333333332
                },
                {
                    "name": "A3",
                    "midi": 57,
                    "time": 198.43093599999997,
                    "velocity": 0.3543307086614173,
                    "duration": 0.06535933333333332
                },
                {
                    "name": "A3",
                    "midi": 57,
                    "time": 198.62701399999997,
                    "velocity": 0.3543307086614173,
                    "duration": 0.06535933333333332
                },
                {
                    "name": "A3",
                    "midi": 57,
                    "time": 198.82309199999997,
                    "velocity": 0.3543307086614173,
                    "duration": 0.06535933333333332
                },
                {
                    "name": "A3",
                    "midi": 57,
                    "time": 199.01916999999997,
                    "velocity": 0.3543307086614173,
                    "duration": 0.06535933333333332
                },
                {
                    "name": "A3",
                    "midi": 57,
                    "time": 199.21524799999997,
                    "velocity": 0.3543307086614173,
                    "duration": 0.06535933333333332
                },
                {
                    "name": "A3",
                    "midi": 57,
                    "time": 199.41132599999997,
                    "velocity": 0.3543307086614173,
                    "duration": 0.06535933333333332
                },
                {
                    "name": "A3",
                    "midi": 57,
                    "time": 199.60740399999997,
                    "velocity": 0.3543307086614173,
                    "duration": 0.06535933333333332
                },
                {
                    "name": "A3",
                    "midi": 57,
                    "time": 199.80348199999997,
                    "velocity": 0.3543307086614173,
                    "duration": 0.06535933333333332
                },
                {
                    "name": "A3",
                    "midi": 57,
                    "time": 199.99955999999997,
                    "velocity": 0.3543307086614173,
                    "duration": 0.06535933333333332
                },
                {
                    "name": "A3",
                    "midi": 57,
                    "time": 200.19563799999997,
                    "velocity": 0.3543307086614173,
                    "duration": 0.06535933333333332
                },
                {
                    "name": "A3",
                    "midi": 57,
                    "time": 200.39171599999997,
                    "velocity": 0.3543307086614173,
                    "duration": 0.06535933333333332
                },
                {
                    "name": "A3",
                    "midi": 57,
                    "time": 200.58779399999997,
                    "velocity": 0.3543307086614173,
                    "duration": 0.06535933333333332
                },
                {
                    "name": "A3",
                    "midi": 57,
                    "time": 200.78387199999997,
                    "velocity": 0.3543307086614173,
                    "duration": 0.06535933333333332
                },
                {
                    "name": "A3",
                    "midi": 57,
                    "time": 200.97994999999997,
                    "velocity": 0.3543307086614173,
                    "duration": 0.06535933333333332
                },
                {
                    "name": "A3",
                    "midi": 57,
                    "time": 201.17602799999997,
                    "velocity": 0.3543307086614173,
                    "duration": 0.06535933333333332
                },
                {
                    "name": "A3",
                    "midi": 57,
                    "time": 201.37210599999997,
                    "velocity": 0.3543307086614173,
                    "duration": 0.06535933333333332
                },
                {
                    "name": "A3",
                    "midi": 57,
                    "time": 201.56818399999997,
                    "velocity": 0.3543307086614173,
                    "duration": 0.06535933333333332
                },
                {
                    "name": "A3",
                    "midi": 57,
                    "time": 201.76426199999997,
                    "velocity": 0.3543307086614173,
                    "duration": 0.06535933333333332
                },
                {
                    "name": "A3",
                    "midi": 57,
                    "time": 201.96033999999997,
                    "velocity": 0.3543307086614173,
                    "duration": 0.06535933333333332
                },
                {
                    "name": "A3",
                    "midi": 57,
                    "time": 202.15641799999997,
                    "velocity": 0.3543307086614173,
                    "duration": 0.06535933333333332
                },
                {
                    "name": "A3",
                    "midi": 57,
                    "time": 202.35249599999997,
                    "velocity": 0.3543307086614173,
                    "duration": 0.06535933333333332
                },
                {
                    "name": "A3",
                    "midi": 57,
                    "time": 202.54857399999997,
                    "velocity": 0.3543307086614173,
                    "duration": 0.06535933333333332
                },
                {
                    "name": "A3",
                    "midi": 57,
                    "time": 202.74465199999997,
                    "velocity": 0.3543307086614173,
                    "duration": 0.06535933333333332
                },
                {
                    "name": "A3",
                    "midi": 57,
                    "time": 202.94072999999997,
                    "velocity": 0.3543307086614173,
                    "duration": 0.06535933333333332
                },
                {
                    "name": "A3",
                    "midi": 57,
                    "time": 203.13680799999997,
                    "velocity": 0.3543307086614173,
                    "duration": 0.06535933333333332
                },
                {
                    "name": "A3",
                    "midi": 57,
                    "time": 203.33288599999997,
                    "velocity": 0.3543307086614173,
                    "duration": 0.06535933333333332
                },
                {
                    "name": "A3",
                    "midi": 57,
                    "time": 203.52896399999997,
                    "velocity": 0.3543307086614173,
                    "duration": 0.06535933333333332
                },
                {
                    "name": "A3",
                    "midi": 57,
                    "time": 203.72504199999997,
                    "velocity": 0.3543307086614173,
                    "duration": 0.06535933333333332
                },
                {
                    "name": "A3",
                    "midi": 57,
                    "time": 203.92111999999997,
                    "velocity": 0.3543307086614173,
                    "duration": 0.06535933333333332
                },
                {
                    "name": "A3",
                    "midi": 57,
                    "time": 204.11719799999997,
                    "velocity": 0.3543307086614173,
                    "duration": 0.06535933333333332
                },
                {
                    "name": "A3",
                    "midi": 57,
                    "time": 204.31327599999997,
                    "velocity": 0.3543307086614173,
                    "duration": 0.06535933333333332
                },
                {
                    "name": "A3",
                    "midi": 57,
                    "time": 204.50935399999997,
                    "velocity": 0.3543307086614173,
                    "duration": 0.06535933333333332
                },
                {
                    "name": "A3",
                    "midi": 57,
                    "time": 204.70543199999997,
                    "velocity": 0.3543307086614173,
                    "duration": 0.06535933333333332
                },
                {
                    "name": "A3",
                    "midi": 57,
                    "time": 204.90150999999997,
                    "velocity": 0.3543307086614173,
                    "duration": 0.06535933333333332
                },
                {
                    "name": "A3",
                    "midi": 57,
                    "time": 205.09758799999997,
                    "velocity": 0.3543307086614173,
                    "duration": 0.06535933333333332
                },
                {
                    "name": "A3",
                    "midi": 57,
                    "time": 205.29366599999997,
                    "velocity": 0.3543307086614173,
                    "duration": 0.06535933333333332
                },
                {
                    "name": "A3",
                    "midi": 57,
                    "time": 205.48974399999997,
                    "velocity": 0.3543307086614173,
                    "duration": 0.06535933333333332
                },
                {
                    "name": "A3",
                    "midi": 57,
                    "time": 205.68582199999997,
                    "velocity": 0.3543307086614173,
                    "duration": 0.06535933333333332
                },
                {
                    "name": "A3",
                    "midi": 57,
                    "time": 205.88189999999997,
                    "velocity": 0.3543307086614173,
                    "duration": 0.06535933333333332
                },
                {
                    "name": "A3",
                    "midi": 57,
                    "time": 206.07797799999997,
                    "velocity": 0.3543307086614173,
                    "duration": 0.06535933333333332
                },
                {
                    "name": "A3",
                    "midi": 57,
                    "time": 206.27405599999997,
                    "velocity": 0.3543307086614173,
                    "duration": 0.06535933333333332
                },
                {
                    "name": "A3",
                    "midi": 57,
                    "time": 206.47013399999997,
                    "velocity": 0.3543307086614173,
                    "duration": 0.06535933333333332
                },
                {
                    "name": "A3",
                    "midi": 57,
                    "time": 206.66621199999997,
                    "velocity": 0.3543307086614173,
                    "duration": 0.06535933333333332
                },
                {
                    "name": "A3",
                    "midi": 57,
                    "time": 206.86228999999997,
                    "velocity": 0.3543307086614173,
                    "duration": 0.06535933333333332
                },
                {
                    "name": "A3",
                    "midi": 57,
                    "time": 207.05836799999997,
                    "velocity": 0.3543307086614173,
                    "duration": 0.06535933333333332
                },
                {
                    "name": "A3",
                    "midi": 57,
                    "time": 207.25444599999997,
                    "velocity": 0.3543307086614173,
                    "duration": 0.06535933333333332
                },
                {
                    "name": "A3",
                    "midi": 57,
                    "time": 207.45052399999997,
                    "velocity": 0.3543307086614173,
                    "duration": 0.06535933333333332
                },
                {
                    "name": "A3",
                    "midi": 57,
                    "time": 207.64660199999997,
                    "velocity": 0.3543307086614173,
                    "duration": 0.06535933333333332
                },
                {
                    "name": "A3",
                    "midi": 57,
                    "time": 207.84267999999997,
                    "velocity": 0.3543307086614173,
                    "duration": 0.06535933333333332
                },
                {
                    "name": "A3",
                    "midi": 57,
                    "time": 208.03875799999997,
                    "velocity": 0.3543307086614173,
                    "duration": 0.06535933333333332
                },
                {
                    "name": "A3",
                    "midi": 57,
                    "time": 208.23483599999997,
                    "velocity": 0.3543307086614173,
                    "duration": 0.06535933333333332
                },
                {
                    "name": "A3",
                    "midi": 57,
                    "time": 208.43091399999997,
                    "velocity": 0.3543307086614173,
                    "duration": 0.06535933333333332
                },
                {
                    "name": "A3",
                    "midi": 57,
                    "time": 208.62699199999997,
                    "velocity": 0.3543307086614173,
                    "duration": 0.06535933333333332
                },
                {
                    "name": "A3",
                    "midi": 57,
                    "time": 208.82306999999997,
                    "velocity": 0.3543307086614173,
                    "duration": 0.06535933333333332
                },
                {
                    "name": "A3",
                    "midi": 57,
                    "time": 209.01914799999997,
                    "velocity": 0.3543307086614173,
                    "duration": 0.06535933333333332
                },
                {
                    "name": "A3",
                    "midi": 57,
                    "time": 209.21522599999997,
                    "velocity": 0.3543307086614173,
                    "duration": 0.06535933333333332
                },
                {
                    "name": "A3",
                    "midi": 57,
                    "time": 209.41130399999997,
                    "velocity": 0.3543307086614173,
                    "duration": 0.06535933333333332
                },
                {
                    "name": "A3",
                    "midi": 57,
                    "time": 209.60738199999997,
                    "velocity": 0.3543307086614173,
                    "duration": 0.06535933333333332
                },
                {
                    "name": "A3",
                    "midi": 57,
                    "time": 209.80345999999997,
                    "velocity": 0.3543307086614173,
                    "duration": 0.06535933333333332
                },
                {
                    "name": "A3",
                    "midi": 57,
                    "time": 209.99953799999997,
                    "velocity": 0.3543307086614173,
                    "duration": 0.06535933333333332
                },
                {
                    "name": "A3",
                    "midi": 57,
                    "time": 210.19561599999997,
                    "velocity": 0.3543307086614173,
                    "duration": 0.06535933333333332
                },
                {
                    "name": "A3",
                    "midi": 57,
                    "time": 210.39169399999997,
                    "velocity": 0.3543307086614173,
                    "duration": 0.06535933333333332
                },
                {
                    "name": "A3",
                    "midi": 57,
                    "time": 210.58777199999997,
                    "velocity": 0.3543307086614173,
                    "duration": 0.06535933333333332
                },
                {
                    "name": "A3",
                    "midi": 57,
                    "time": 210.78384999999997,
                    "velocity": 0.3543307086614173,
                    "duration": 0.06535933333333332
                },
                {
                    "name": "A3",
                    "midi": 57,
                    "time": 210.97992799999997,
                    "velocity": 0.3543307086614173,
                    "duration": 0.06535933333333332
                },
                {
                    "name": "A3",
                    "midi": 57,
                    "time": 211.17600599999997,
                    "velocity": 0.3543307086614173,
                    "duration": 0.06535933333333332
                },
                {
                    "name": "A3",
                    "midi": 57,
                    "time": 211.37208399999997,
                    "velocity": 0.3543307086614173,
                    "duration": 0.06535933333333332
                },
                {
                    "name": "A3",
                    "midi": 57,
                    "time": 212.15639599999997,
                    "velocity": 0.3543307086614173,
                    "duration": 0.3267966666666666
                },
                {
                    "name": "A3",
                    "midi": 57,
                    "time": 212.94070799999997,
                    "velocity": 0.3543307086614173,
                    "duration": 0.09803899999999999
                },
                {
                    "name": "A3",
                    "midi": 57,
                    "time": 213.72501999999997,
                    "velocity": 0.3543307086614173,
                    "duration": 0.09803899999999999
                },
                {
                    "name": "A3",
                    "midi": 57,
                    "time": 214.50933199999997,
                    "velocity": 0.3543307086614173,
                    "duration": 0.09803899999999999
                },
                {
                    "name": "A3",
                    "midi": 57,
                    "time": 215.29364399999997,
                    "velocity": 0.3543307086614173,
                    "duration": 0.09803899999999999
                },
                {
                    "name": "A3",
                    "midi": 57,
                    "time": 216.07795599999997,
                    "velocity": 0.3543307086614173,
                    "duration": 0.09803899999999999
                },
                {
                    "name": "A3",
                    "midi": 57,
                    "time": 216.86226799999997,
                    "velocity": 0.3543307086614173,
                    "duration": 0.09803899999999999
                },
                {
                    "name": "A3",
                    "midi": 57,
                    "time": 217.64657999999997,
                    "velocity": 0.3543307086614173,
                    "duration": 0.09803899999999999
                },
                {
                    "name": "A3",
                    "midi": 57,
                    "time": 218.03873599999997,
                    "velocity": 0.4330708661417323,
                    "duration": 0.06535933333333332
                },
                {
                    "name": "A3",
                    "midi": 57,
                    "time": 218.23481399999997,
                    "velocity": 0.47244094488188976,
                    "duration": 0.06535933333333332
                },
                {
                    "name": "A3",
                    "midi": 57,
                    "time": 218.43089199999997,
                    "velocity": 0.5118110236220472,
                    "duration": 0.06535933333333332
                },
                {
                    "name": "A3",
                    "midi": 57,
                    "time": 218.62696999999997,
                    "velocity": 0.5511811023622047,
                    "duration": 0.06535933333333332
                },
                {
                    "name": "A3",
                    "midi": 57,
                    "time": 218.82304799999997,
                    "velocity": 0.5905511811023622,
                    "duration": 0.06535933333333332
                },
                {
                    "name": "A3",
                    "midi": 57,
                    "time": 219.01912599999997,
                    "velocity": 0.5905511811023622,
                    "duration": 0.06535933333333332
                },
                {
                    "name": "A3",
                    "midi": 57,
                    "time": 219.21520399999997,
                    "velocity": 0.5905511811023622,
                    "duration": 0.06535933333333332
                },
                {
                    "name": "A3",
                    "midi": 57,
                    "time": 219.41128199999997,
                    "velocity": 0.5905511811023622,
                    "duration": 0.06535933333333332
                },
                {
                    "name": "A3",
                    "midi": 57,
                    "time": 219.60735999999997,
                    "velocity": 0.5905511811023622,
                    "duration": 0.06535933333333332
                },
                {
                    "name": "A3",
                    "midi": 57,
                    "time": 219.80343799999997,
                    "velocity": 0.5905511811023622,
                    "duration": 0.06535933333333332
                },
                {
                    "name": "A3",
                    "midi": 57,
                    "time": 219.99951599999997,
                    "velocity": 0.5905511811023622,
                    "duration": 0.06535933333333332
                },
                {
                    "name": "A3",
                    "midi": 57,
                    "time": 220.19559399999997,
                    "velocity": 0.5905511811023622,
                    "duration": 0.06535933333333332
                },
                {
                    "name": "A3",
                    "midi": 57,
                    "time": 220.39167199999997,
                    "velocity": 0.5905511811023622,
                    "duration": 0.06535933333333332
                },
                {
                    "name": "A3",
                    "midi": 57,
                    "time": 220.58774999999997,
                    "velocity": 0.5905511811023622,
                    "duration": 0.06535933333333332
                },
                {
                    "name": "A3",
                    "midi": 57,
                    "time": 220.78382799999997,
                    "velocity": 0.5905511811023622,
                    "duration": 0.06535933333333332
                },
                {
                    "name": "A3",
                    "midi": 57,
                    "time": 220.97990599999997,
                    "velocity": 0.5905511811023622,
                    "duration": 0.06535933333333332
                },
                {
                    "name": "A3",
                    "midi": 57,
                    "time": 221.17598399999997,
                    "velocity": 0.5905511811023622,
                    "duration": 0.06535933333333332
                },
                {
                    "name": "A3",
                    "midi": 57,
                    "time": 222.74460799999997,
                    "velocity": 0.5905511811023622,
                    "duration": 0.09803899999999999
                },
                {
                    "name": "A3",
                    "midi": 57,
                    "time": 224.31323199999997,
                    "velocity": 0.5905511811023622,
                    "duration": 0.09803899999999999
                },
                {
                    "name": "A3",
                    "midi": 57,
                    "time": 225.88185599999997,
                    "velocity": 0.47244094488188976,
                    "duration": 0.06535933333333332
                },
                {
                    "name": "A3",
                    "midi": 57,
                    "time": 226.07793399999997,
                    "velocity": 0.47244094488188976,
                    "duration": 0.06535933333333332
                },
                {
                    "name": "A3",
                    "midi": 57,
                    "time": 226.27401199999997,
                    "velocity": 0.47244094488188976,
                    "duration": 0.06535933333333332
                },
                {
                    "name": "A3",
                    "midi": 57,
                    "time": 226.47008999999997,
                    "velocity": 0.47244094488188976,
                    "duration": 0.06535933333333332
                },
                {
                    "name": "A3",
                    "midi": 57,
                    "time": 226.66616799999997,
                    "velocity": 0.47244094488188976,
                    "duration": 0.06535933333333332
                },
                {
                    "name": "A3",
                    "midi": 57,
                    "time": 226.86224599999997,
                    "velocity": 0.47244094488188976,
                    "duration": 0.06535933333333332
                },
                {
                    "name": "A3",
                    "midi": 57,
                    "time": 227.05832399999997,
                    "velocity": 0.47244094488188976,
                    "duration": 0.06535933333333332
                },
                {
                    "name": "A3",
                    "midi": 57,
                    "time": 227.25440199999997,
                    "velocity": 0.47244094488188976,
                    "duration": 0.06535933333333332
                },
                {
                    "name": "A3",
                    "midi": 57,
                    "time": 227.45047999999997,
                    "velocity": 0.47244094488188976,
                    "duration": 0.06535933333333332
                }
            ],
            "controlChanges": {
                "7": [
                    {
                        "number": 7,
                        "time": 0,
                        "value": 1
                    }
                ],
                "10": [
                    {
                        "number": 10,
                        "time": 0,
                        "value": 0.6456692913385826
                    }
                ],
                "91": [
                    {
                        "number": 91,
                        "time": 0,
                        "value": 0.49606299212598426
                    }
                ]
            },
            "id": 12,
            "instrumentNumber": 0,
            "instrument": "standard kit",
            "instrumentFamily": "drums",
            "channelNumber": 9,
            "isPercussion": true
        }
    ]
}