{
    "header": {
        "PPQ": 240,
        "timeSignature": [
            6,
            8
        ],
        "bpm": 137.00006393336318,
        "name": ""
    },
    "startTime": 0,
    "duration": 149.56197399999976,
    "tracks": [
        {
            "startTime": 0,
            "duration": 0,
            "length": 0,
            "notes": [],
            "controlChanges": {},
            "id": 0
        },
        {
            "startTime": 0,
            "duration": 149.56197399999976,
            "length": 1246,
            "notes": [
                {
                    "name": "D4",
                    "midi": 62,
                    "time": 0,
                    "velocity": 0.5039370078740157,
                    "duration": 1.3138679999999998
                },
                {
                    "name": "F#5",
                    "midi": 78,
                    "time": 0.027372249999999997,
                    "velocity": 0.5039370078740157,
                    "duration": 0.6295617499999999
                },
                {
                    "name": "G5",
                    "midi": 79,
                    "time": 0.6569339999999999,
                    "velocity": 0.5039370078740157,
                    "duration": 0.218978
                },
                {
                    "name": "E5",
                    "midi": 76,
                    "time": 0.8759119999999999,
                    "velocity": 0.5039370078740157,
                    "duration": 0.218978
                },
                {
                    "name": "F#5",
                    "midi": 78,
                    "time": 1.09489,
                    "velocity": 0.5039370078740157,
                    "duration": 0.2189779999999999
                },
                {
                    "name": "D4",
                    "midi": 62,
                    "time": 1.3138679999999998,
                    "velocity": 0.5039370078740157,
                    "duration": 1.3138679999999998
                },
                {
                    "name": "D5",
                    "midi": 74,
                    "time": 1.3412402499999998,
                    "velocity": 0.5039370078740157,
                    "duration": 0.6295617499999999
                },
                {
                    "name": "A4",
                    "midi": 69,
                    "time": 1.9708019999999997,
                    "velocity": 0.5039370078740157,
                    "duration": 0.21897800000000012
                },
                {
                    "name": "A5",
                    "midi": 81,
                    "time": 2.18978,
                    "velocity": 0.5039370078740157,
                    "duration": 0.2189779999999999
                },
                {
                    "name": "G5",
                    "midi": 79,
                    "time": 2.4087579999999997,
                    "velocity": 0.5039370078740157,
                    "duration": 0.2189779999999999
                },
                {
                    "name": "D4",
                    "midi": 62,
                    "time": 2.6277359999999996,
                    "velocity": 0.5039370078740157,
                    "duration": 1.3138679999999994
                },
                {
                    "name": "F#5",
                    "midi": 78,
                    "time": 2.6551082499999996,
                    "velocity": 0.5039370078740157,
                    "duration": 0.6295617499999997
                },
                {
                    "name": "G5",
                    "midi": 79,
                    "time": 3.2846699999999993,
                    "velocity": 0.5039370078740157,
                    "duration": 0.2189779999999999
                },
                {
                    "name": "E5",
                    "midi": 76,
                    "time": 3.503647999999999,
                    "velocity": 0.5039370078740157,
                    "duration": 0.2189779999999999
                },
                {
                    "name": "F#5",
                    "midi": 78,
                    "time": 3.722625999999999,
                    "velocity": 0.5039370078740157,
                    "duration": 0.2189779999999999
                },
                {
                    "name": "D4",
                    "midi": 62,
                    "time": 3.941603999999999,
                    "velocity": 0.5039370078740157,
                    "duration": 1.3138679999999994
                },
                {
                    "name": "D5",
                    "midi": 74,
                    "time": 3.968976249999999,
                    "velocity": 0.5039370078740157,
                    "duration": 0.6295617499999997
                },
                {
                    "name": "A4",
                    "midi": 69,
                    "time": 4.598537999999999,
                    "velocity": 0.5039370078740157,
                    "duration": 0.2189779999999999
                },
                {
                    "name": "F#5",
                    "midi": 78,
                    "time": 4.817515999999999,
                    "velocity": 0.5039370078740157,
                    "duration": 0.2189779999999999
                },
                {
                    "name": "G5",
                    "midi": 79,
                    "time": 5.0364939999999985,
                    "velocity": 0.5039370078740157,
                    "duration": 0.2189779999999999
                },
                {
                    "name": "D4",
                    "midi": 62,
                    "time": 5.255471999999998,
                    "velocity": 0.5039370078740157,
                    "duration": 1.3138679999999994
                },
                {
                    "name": "A5",
                    "midi": 81,
                    "time": 5.282844249999998,
                    "velocity": 0.5039370078740157,
                    "duration": 0.6295617499999997
                },
                {
                    "name": "B5",
                    "midi": 83,
                    "time": 5.912405999999998,
                    "velocity": 0.5039370078740157,
                    "duration": 0.2189779999999999
                },
                {
                    "name": "A5",
                    "midi": 81,
                    "time": 6.131383999999998,
                    "velocity": 0.5039370078740157,
                    "duration": 0.2189779999999999
                },
                {
                    "name": "G#5",
                    "midi": 80,
                    "time": 6.350361999999998,
                    "velocity": 0.5039370078740157,
                    "duration": 0.2189779999999999
                },
                {
                    "name": "D4",
                    "midi": 62,
                    "time": 6.569339999999998,
                    "velocity": 0.5039370078740157,
                    "duration": 1.3138679999999994
                },
                {
                    "name": "A5",
                    "midi": 81,
                    "time": 6.596712249999998,
                    "velocity": 0.5039370078740157,
                    "duration": 0.6295617499999997
                },
                {
                    "name": "F#5",
                    "midi": 78,
                    "time": 7.226273999999997,
                    "velocity": 0.5039370078740157,
                    "duration": 0.2189779999999999
                },
                {
                    "name": "A5",
                    "midi": 81,
                    "time": 7.445251999999997,
                    "velocity": 0.5039370078740157,
                    "duration": 0.2189779999999999
                },
                {
                    "name": "G5",
                    "midi": 79,
                    "time": 7.664229999999997,
                    "velocity": 0.5039370078740157,
                    "duration": 0.2189779999999999
                },
                {
                    "name": "F#5",
                    "midi": 78,
                    "time": 7.883207999999997,
                    "velocity": 0.5039370078740157,
                    "duration": 0.4379560000000007
                },
                {
                    "name": "G4",
                    "midi": 67,
                    "time": 7.883207999999997,
                    "velocity": 0.5039370078740157,
                    "duration": 0.6569340000000006
                },
                {
                    "name": "E5",
                    "midi": 76,
                    "time": 8.321163999999998,
                    "velocity": 0.5039370078740157,
                    "duration": 0.2189779999999999
                },
                {
                    "name": "G#4",
                    "midi": 68,
                    "time": 8.540141999999998,
                    "velocity": 0.5039370078740157,
                    "duration": 0.6569339999999997
                },
                {
                    "name": "E5",
                    "midi": 76,
                    "time": 8.540141999999998,
                    "velocity": 0.5039370078740157,
                    "duration": 0.2189779999999999
                },
                {
                    "name": "F#5",
                    "midi": 78,
                    "time": 8.759119999999998,
                    "velocity": 0.5039370078740157,
                    "duration": 0.2189779999999999
                },
                {
                    "name": "E5",
                    "midi": 76,
                    "time": 8.978097999999997,
                    "velocity": 0.5039370078740157,
                    "duration": 0.2189779999999999
                },
                {
                    "name": "A4",
                    "midi": 69,
                    "time": 9.197075999999997,
                    "velocity": 0.5039370078740157,
                    "duration": 0.6569339999999997
                },
                {
                    "name": "E5",
                    "midi": 76,
                    "time": 9.197075999999997,
                    "velocity": 0.5039370078740157,
                    "duration": 0.6569339999999997
                },
                {
                    "name": "A5",
                    "midi": 81,
                    "time": 9.854009999999997,
                    "velocity": 0.5039370078740157,
                    "duration": 0.2189779999999999
                },
                {
                    "name": "G#5",
                    "midi": 80,
                    "time": 10.072987999999997,
                    "velocity": 0.5039370078740157,
                    "duration": 0.2189779999999999
                },
                {
                    "name": "G5",
                    "midi": 79,
                    "time": 10.291965999999997,
                    "velocity": 0.5039370078740157,
                    "duration": 0.2189779999999999
                },
                {
                    "name": "D4",
                    "midi": 62,
                    "time": 10.510943999999997,
                    "velocity": 0.5039370078740157,
                    "duration": 1.3138680000000011
                },
                {
                    "name": "F#5",
                    "midi": 78,
                    "time": 10.538316249999998,
                    "velocity": 0.5039370078740157,
                    "duration": 0.6295617500000006
                },
                {
                    "name": "G5",
                    "midi": 79,
                    "time": 11.167877999999998,
                    "velocity": 0.5039370078740157,
                    "duration": 0.2189779999999999
                },
                {
                    "name": "E5",
                    "midi": 76,
                    "time": 11.386855999999998,
                    "velocity": 0.5039370078740157,
                    "duration": 0.2189779999999999
                },
                {
                    "name": "F#5",
                    "midi": 78,
                    "time": 11.605833999999998,
                    "velocity": 0.5039370078740157,
                    "duration": 0.2189779999999999
                },
                {
                    "name": "D4",
                    "midi": 62,
                    "time": 11.824811999999998,
                    "velocity": 0.5039370078740157,
                    "duration": 1.3138680000000011
                },
                {
                    "name": "D5",
                    "midi": 74,
                    "time": 11.852184249999999,
                    "velocity": 0.5039370078740157,
                    "duration": 0.6295617500000006
                },
                {
                    "name": "A4",
                    "midi": 69,
                    "time": 12.481746,
                    "velocity": 0.5039370078740157,
                    "duration": 0.2189779999999999
                },
                {
                    "name": "A5",
                    "midi": 81,
                    "time": 12.700724,
                    "velocity": 0.5039370078740157,
                    "duration": 0.2189779999999999
                },
                {
                    "name": "G5",
                    "midi": 79,
                    "time": 12.919702,
                    "velocity": 0.5039370078740157,
                    "duration": 0.2189779999999999
                },
                {
                    "name": "D4",
                    "midi": 62,
                    "time": 13.138679999999999,
                    "velocity": 0.5039370078740157,
                    "duration": 1.3138680000000011
                },
                {
                    "name": "F#5",
                    "midi": 78,
                    "time": 13.16605225,
                    "velocity": 0.5039370078740157,
                    "duration": 0.6295617500000006
                },
                {
                    "name": "G5",
                    "midi": 79,
                    "time": 13.795614,
                    "velocity": 0.5039370078740157,
                    "duration": 0.2189779999999999
                },
                {
                    "name": "E5",
                    "midi": 76,
                    "time": 14.014592,
                    "velocity": 0.5039370078740157,
                    "duration": 0.2189779999999999
                },
                {
                    "name": "F#5",
                    "midi": 78,
                    "time": 14.23357,
                    "velocity": 0.5039370078740157,
                    "duration": 0.2189779999999999
                },
                {
                    "name": "D4",
                    "midi": 62,
                    "time": 14.452548,
                    "velocity": 0.5039370078740157,
                    "duration": 1.3138680000000011
                },
                {
                    "name": "D5",
                    "midi": 74,
                    "time": 14.479920250000001,
                    "velocity": 0.5039370078740157,
                    "duration": 0.6295617500000006
                },
                {
                    "name": "A4",
                    "midi": 69,
                    "time": 15.109482000000002,
                    "velocity": 0.5039370078740157,
                    "duration": 0.2189779999999999
                },
                {
                    "name": "F#5",
                    "midi": 78,
                    "time": 15.328460000000002,
                    "velocity": 0.5039370078740157,
                    "duration": 0.2189779999999999
                },
                {
                    "name": "G5",
                    "midi": 79,
                    "time": 15.547438000000001,
                    "velocity": 0.5039370078740157,
                    "duration": 0.2189779999999999
                },
                {
                    "name": "D4",
                    "midi": 62,
                    "time": 15.766416000000001,
                    "velocity": 0.5039370078740157,
                    "duration": 1.3138680000000011
                },
                {
                    "name": "A5",
                    "midi": 81,
                    "time": 15.793788250000002,
                    "velocity": 0.5039370078740157,
                    "duration": 0.6295617500000006
                },
                {
                    "name": "B5",
                    "midi": 83,
                    "time": 16.423350000000003,
                    "velocity": 0.5039370078740157,
                    "duration": 0.2189779999999999
                },
                {
                    "name": "A5",
                    "midi": 81,
                    "time": 16.642328000000003,
                    "velocity": 0.5039370078740157,
                    "duration": 0.2189779999999999
                },
                {
                    "name": "G#5",
                    "midi": 80,
                    "time": 16.861306000000003,
                    "velocity": 0.5039370078740157,
                    "duration": 0.2189779999999999
                },
                {
                    "name": "D4",
                    "midi": 62,
                    "time": 17.080284000000002,
                    "velocity": 0.5039370078740157,
                    "duration": 0.6569339999999997
                },
                {
                    "name": "A5",
                    "midi": 81,
                    "time": 17.080284000000002,
                    "velocity": 0.5039370078740157,
                    "duration": 0.4379559999999998
                },
                {
                    "name": "F#5",
                    "midi": 78,
                    "time": 17.518240000000002,
                    "velocity": 0.5039370078740157,
                    "duration": 0.2189779999999999
                },
                {
                    "name": "G4",
                    "midi": 67,
                    "time": 17.737218000000002,
                    "velocity": 0.5039370078740157,
                    "duration": 0.6569339999999997
                },
                {
                    "name": "F#5",
                    "midi": 78,
                    "time": 17.737218000000002,
                    "velocity": 0.5039370078740157,
                    "duration": 0.4379559999999998
                },
                {
                    "name": "E5",
                    "midi": 76,
                    "time": 18.175174000000002,
                    "velocity": 0.5039370078740157,
                    "duration": 0.2189779999999999
                },
                {
                    "name": "A4",
                    "midi": 69,
                    "time": 18.394152000000002,
                    "velocity": 0.5039370078740157,
                    "duration": 0.6569339999999997
                },
                {
                    "name": "D5",
                    "midi": 74,
                    "time": 18.42152425,
                    "velocity": 0.5039370078740157,
                    "duration": 0.6295617500000006
                },
                {
                    "name": "A4",
                    "midi": 69,
                    "time": 19.051086,
                    "velocity": 0.5039370078740157,
                    "duration": 0.2189779999999999
                },
                {
                    "name": "C#5",
                    "midi": 73,
                    "time": 19.051086,
                    "velocity": 0.5039370078740157,
                    "duration": 0.2189779999999999
                },
                {
                    "name": "D5",
                    "midi": 74,
                    "time": 19.270064,
                    "velocity": 0.5039370078740157,
                    "duration": 0.2189779999999999
                },
                {
                    "name": "E5",
                    "midi": 76,
                    "time": 19.489042,
                    "velocity": 0.5039370078740157,
                    "duration": 0.2189779999999999
                },
                {
                    "name": "D4",
                    "midi": 62,
                    "time": 19.70802,
                    "velocity": 0.5039370078740157,
                    "duration": 1.3138679999999994
                },
                {
                    "name": "D5",
                    "midi": 74,
                    "time": 19.73539225,
                    "velocity": 0.5039370078740157,
                    "duration": 1.2864957500000003
                },
                {
                    "name": "D4",
                    "midi": 62,
                    "time": 21.021888,
                    "velocity": 0.5039370078740157,
                    "duration": 0.6569339999999997
                },
                {
                    "name": "A5",
                    "midi": 81,
                    "time": 21.04926025,
                    "velocity": 0.5039370078740157,
                    "duration": 0.6295617500000006
                },
                {
                    "name": "F#6",
                    "midi": 90,
                    "time": 21.0766325,
                    "velocity": 0.5039370078740157,
                    "duration": 0.6021895000000015
                },
                {
                    "name": "D4",
                    "midi": 62,
                    "time": 21.678822,
                    "velocity": 0.5039370078740157,
                    "duration": 0.2189779999999999
                },
                {
                    "name": "B5",
                    "midi": 83,
                    "time": 21.70619425,
                    "velocity": 0.5039370078740157,
                    "duration": 0.1916057500000008
                },
                {
                    "name": "F#6",
                    "midi": 90,
                    "time": 21.7335665,
                    "velocity": 0.5039370078740157,
                    "duration": 0.1642335000000017
                },
                {
                    "name": "D4",
                    "midi": 62,
                    "time": 21.8978,
                    "velocity": 0.5039370078740157,
                    "duration": 0.2189779999999999
                },
                {
                    "name": "A5",
                    "midi": 81,
                    "time": 21.92517225,
                    "velocity": 0.5039370078740157,
                    "duration": 0.1916057500000008
                },
                {
                    "name": "F#6",
                    "midi": 90,
                    "time": 21.9525445,
                    "velocity": 0.5039370078740157,
                    "duration": 0.1642335000000017
                },
                {
                    "name": "D4",
                    "midi": 62,
                    "time": 22.116778,
                    "velocity": 0.5039370078740157,
                    "duration": 0.2189779999999999
                },
                {
                    "name": "G#5",
                    "midi": 80,
                    "time": 22.14415025,
                    "velocity": 0.5039370078740157,
                    "duration": 0.1916057500000008
                },
                {
                    "name": "F6",
                    "midi": 89,
                    "time": 22.1715225,
                    "velocity": 0.5039370078740157,
                    "duration": 0.1642335000000017
                },
                {
                    "name": "D4",
                    "midi": 62,
                    "time": 22.335756,
                    "velocity": 0.5039370078740157,
                    "duration": 0.6569339999999997
                },
                {
                    "name": "A5",
                    "midi": 81,
                    "time": 22.36312825,
                    "velocity": 0.5039370078740157,
                    "duration": 0.6295617500000006
                },
                {
                    "name": "F#6",
                    "midi": 90,
                    "time": 22.390500499999998,
                    "velocity": 0.5039370078740157,
                    "duration": 0.6021895000000015
                },
                {
                    "name": "D4",
                    "midi": 62,
                    "time": 22.99269,
                    "velocity": 0.5039370078740157,
                    "duration": 0.2189779999999999
                },
                {
                    "name": "F#5",
                    "midi": 78,
                    "time": 23.02006225,
                    "velocity": 0.5039370078740157,
                    "duration": 0.1916057500000008
                },
                {
                    "name": "D6",
                    "midi": 86,
                    "time": 23.047434499999998,
                    "velocity": 0.5039370078740157,
                    "duration": 0.1642335000000017
                },
                {
                    "name": "D4",
                    "midi": 62,
                    "time": 23.211668,
                    "velocity": 0.5039370078740157,
                    "duration": 0.2189779999999999
                },
                {
                    "name": "G5",
                    "midi": 79,
                    "time": 23.23904025,
                    "velocity": 0.5039370078740157,
                    "duration": 0.1916057500000008
                },
                {
                    "name": "E6",
                    "midi": 88,
                    "time": 23.266412499999998,
                    "velocity": 0.5039370078740157,
                    "duration": 0.1642335000000017
                },
                {
                    "name": "D4",
                    "midi": 62,
                    "time": 23.430646,
                    "velocity": 0.5039370078740157,
                    "duration": 0.2189779999999999
                },
                {
                    "name": "G#5",
                    "midi": 80,
                    "time": 23.45801825,
                    "velocity": 0.5039370078740157,
                    "duration": 0.1916057500000008
                },
                {
                    "name": "F6",
                    "midi": 89,
                    "time": 23.485390499999998,
                    "velocity": 0.5039370078740157,
                    "duration": 0.1642335000000017
                },
                {
                    "name": "D4",
                    "midi": 62,
                    "time": 23.649624,
                    "velocity": 0.5039370078740157,
                    "duration": 0.6569339999999997
                },
                {
                    "name": "A5",
                    "midi": 81,
                    "time": 23.67699625,
                    "velocity": 0.5039370078740157,
                    "duration": 0.6295617500000006
                },
                {
                    "name": "F#6",
                    "midi": 90,
                    "time": 23.704368499999998,
                    "velocity": 0.5039370078740157,
                    "duration": 0.6021895000000015
                },
                {
                    "name": "D4",
                    "midi": 62,
                    "time": 24.306558,
                    "velocity": 0.5039370078740157,
                    "duration": 0.2189779999999999
                },
                {
                    "name": "B5",
                    "midi": 83,
                    "time": 24.333930249999998,
                    "velocity": 0.5039370078740157,
                    "duration": 0.1916057500000008
                },
                {
                    "name": "G6",
                    "midi": 91,
                    "time": 24.361302499999997,
                    "velocity": 0.5039370078740157,
                    "duration": 0.1642335000000017
                },
                {
                    "name": "D4",
                    "midi": 62,
                    "time": 24.525536,
                    "velocity": 0.5039370078740157,
                    "duration": 0.2189779999999999
                },
                {
                    "name": "A5",
                    "midi": 81,
                    "time": 24.552908249999998,
                    "velocity": 0.5039370078740157,
                    "duration": 0.1916057500000008
                },
                {
                    "name": "F#6",
                    "midi": 90,
                    "time": 24.580280499999997,
                    "velocity": 0.5039370078740157,
                    "duration": 0.1642335000000017
                },
                {
                    "name": "D4",
                    "midi": 62,
                    "time": 24.744514,
                    "velocity": 0.5039370078740157,
                    "duration": 0.2189779999999999
                },
                {
                    "name": "G#5",
                    "midi": 80,
                    "time": 24.771886249999998,
                    "velocity": 0.5039370078740157,
                    "duration": 0.1916057500000008
                },
                {
                    "name": "F6",
                    "midi": 89,
                    "time": 24.799258499999997,
                    "velocity": 0.5039370078740157,
                    "duration": 0.1642335000000017
                },
                {
                    "name": "D4",
                    "midi": 62,
                    "time": 24.963492,
                    "velocity": 0.5039370078740157,
                    "duration": 0.6569339999999997
                },
                {
                    "name": "A5",
                    "midi": 81,
                    "time": 24.990864249999998,
                    "velocity": 0.5039370078740157,
                    "duration": 0.6295617500000006
                },
                {
                    "name": "F#6",
                    "midi": 90,
                    "time": 25.018236499999997,
                    "velocity": 0.5039370078740157,
                    "duration": 0.6021895000000015
                },
                {
                    "name": "D4",
                    "midi": 62,
                    "time": 25.620426,
                    "velocity": 0.5039370078740157,
                    "duration": 0.6569339999999997
                },
                {
                    "name": "F#5",
                    "midi": 78,
                    "time": 25.647798249999997,
                    "velocity": 0.5039370078740157,
                    "duration": 0.6295617500000006
                },
                {
                    "name": "D6",
                    "midi": 86,
                    "time": 25.675170499999997,
                    "velocity": 0.5039370078740157,
                    "duration": 0.6021895000000015
                },
                {
                    "name": "D4",
                    "midi": 62,
                    "time": 26.277359999999998,
                    "velocity": 0.5039370078740157,
                    "duration": 0.6569339999999997
                },
                {
                    "name": "F#4",
                    "midi": 66,
                    "time": 26.304732249999997,
                    "velocity": 0.5039370078740157,
                    "duration": 0.6295617500000006
                },
                {
                    "name": "A5",
                    "midi": 81,
                    "time": 26.332104499999996,
                    "velocity": 0.5039370078740157,
                    "duration": 0.6021895000000015
                },
                {
                    "name": "D4",
                    "midi": 62,
                    "time": 26.934293999999998,
                    "velocity": 0.5039370078740157,
                    "duration": 0.2189779999999999
                },
                {
                    "name": "G4",
                    "midi": 67,
                    "time": 26.961666249999997,
                    "velocity": 0.5039370078740157,
                    "duration": 0.1916057500000008
                },
                {
                    "name": "B5",
                    "midi": 83,
                    "time": 26.989038499999996,
                    "velocity": 0.5039370078740157,
                    "duration": 0.1642335000000017
                },
                {
                    "name": "D4",
                    "midi": 62,
                    "time": 27.153271999999998,
                    "velocity": 0.5039370078740157,
                    "duration": 0.2189779999999999
                },
                {
                    "name": "F#4",
                    "midi": 66,
                    "time": 27.180644249999997,
                    "velocity": 0.5039370078740157,
                    "duration": 0.1916057500000008
                },
                {
                    "name": "A5",
                    "midi": 81,
                    "time": 27.208016499999996,
                    "velocity": 0.5039370078740157,
                    "duration": 0.1642335000000017
                },
                {
                    "name": "D4",
                    "midi": 62,
                    "time": 27.372249999999998,
                    "velocity": 0.5039370078740157,
                    "duration": 0.2189779999999999
                },
                {
                    "name": "F4",
                    "midi": 65,
                    "time": 27.399622249999997,
                    "velocity": 0.5039370078740157,
                    "duration": 0.1916057500000008
                },
                {
                    "name": "G#5",
                    "midi": 80,
                    "time": 27.426994499999996,
                    "velocity": 0.5039370078740157,
                    "duration": 0.1642335000000017
                },
                {
                    "name": "D4",
                    "midi": 62,
                    "time": 27.591227999999997,
                    "velocity": 0.5039370078740157,
                    "duration": 0.6569339999999997
                },
                {
                    "name": "F#4",
                    "midi": 66,
                    "time": 27.618600249999997,
                    "velocity": 0.5039370078740157,
                    "duration": 0.6295617500000006
                },
                {
                    "name": "A5",
                    "midi": 81,
                    "time": 27.645972499999996,
                    "velocity": 0.5039370078740157,
                    "duration": 0.6021895000000015
                },
                {
                    "name": "D4",
                    "midi": 62,
                    "time": 28.248161999999997,
                    "velocity": 0.5039370078740157,
                    "duration": 0.2189779999999999
                },
                {
                    "name": "F#5",
                    "midi": 78,
                    "time": 28.275534249999996,
                    "velocity": 0.5039370078740157,
                    "duration": 0.1916057500000008
                },
                {
                    "name": "D4",
                    "midi": 62,
                    "time": 28.467139999999997,
                    "velocity": 0.5039370078740157,
                    "duration": 0.2189779999999999
                },
                {
                    "name": "C#4",
                    "midi": 61,
                    "time": 28.467139999999997,
                    "velocity": 0.5039370078740157,
                    "duration": 0.2189779999999999
                },
                {
                    "name": "E5",
                    "midi": 76,
                    "time": 28.494512249999996,
                    "velocity": 0.5039370078740157,
                    "duration": 0.1916057500000008
                },
                {
                    "name": "B3",
                    "midi": 59,
                    "time": 28.686117999999997,
                    "velocity": 0.5039370078740157,
                    "duration": 0.2189779999999999
                },
                {
                    "name": "D4",
                    "midi": 62,
                    "time": 28.686117999999997,
                    "velocity": 0.5039370078740157,
                    "duration": 0.2189779999999999
                },
                {
                    "name": "D5",
                    "midi": 74,
                    "time": 28.713490249999996,
                    "velocity": 0.5039370078740157,
                    "duration": 0.1916057500000008
                },
                {
                    "name": "A3",
                    "midi": 57,
                    "time": 28.905095999999997,
                    "velocity": 0.5039370078740157,
                    "duration": 0.6569339999999997
                },
                {
                    "name": "F#4",
                    "midi": 66,
                    "time": 28.932468249999996,
                    "velocity": 0.5039370078740157,
                    "duration": 0.6295617500000006
                },
                {
                    "name": "D5",
                    "midi": 74,
                    "time": 28.959840499999995,
                    "velocity": 0.5039370078740157,
                    "duration": 0.6021895000000015
                },
                {
                    "name": "A3",
                    "midi": 57,
                    "time": 29.562029999999996,
                    "velocity": 0.5039370078740157,
                    "duration": 0.2189779999999999
                },
                {
                    "name": "G4",
                    "midi": 67,
                    "time": 29.589402249999996,
                    "velocity": 0.5039370078740157,
                    "duration": 0.1916057500000008
                },
                {
                    "name": "C#5",
                    "midi": 73,
                    "time": 29.616774499999995,
                    "velocity": 0.5039370078740157,
                    "duration": 0.1642335000000017
                },
                {
                    "name": "A3",
                    "midi": 57,
                    "time": 29.781007999999996,
                    "velocity": 0.5039370078740157,
                    "duration": 0.2189779999999999
                },
                {
                    "name": "G4",
                    "midi": 67,
                    "time": 29.808380249999995,
                    "velocity": 0.5039370078740157,
                    "duration": 0.1916057500000008
                },
                {
                    "name": "D#5",
                    "midi": 75,
                    "time": 29.835752499999995,
                    "velocity": 0.5039370078740157,
                    "duration": 0.1642335000000017
                },
                {
                    "name": "A3",
                    "midi": 57,
                    "time": 29.999985999999996,
                    "velocity": 0.5039370078740157,
                    "duration": 0.2189779999999999
                },
                {
                    "name": "G4",
                    "midi": 67,
                    "time": 30.027358249999995,
                    "velocity": 0.5039370078740157,
                    "duration": 0.1916057500000008
                },
                {
                    "name": "E5",
                    "midi": 76,
                    "time": 30.054730499999994,
                    "velocity": 0.5039370078740157,
                    "duration": 0.1642335000000017
                },
                {
                    "name": "D4",
                    "midi": 62,
                    "time": 30.218963999999996,
                    "velocity": 0.5039370078740157,
                    "duration": 0.2189779999999999
                },
                {
                    "name": "F#4",
                    "midi": 66,
                    "time": 30.246336249999995,
                    "velocity": 0.5039370078740157,
                    "duration": 0.1916057500000008
                },
                {
                    "name": "D5",
                    "midi": 74,
                    "time": 30.273708499999994,
                    "velocity": 0.5039370078740157,
                    "duration": 0.1642335000000017
                },
                {
                    "name": "D4",
                    "midi": 62,
                    "time": 30.437941999999996,
                    "velocity": 0.5039370078740157,
                    "duration": 0.2189779999999999
                },
                {
                    "name": "F#4",
                    "midi": 66,
                    "time": 30.465314249999995,
                    "velocity": 0.5039370078740157,
                    "duration": 0.1916057500000008
                },
                {
                    "name": "D5",
                    "midi": 74,
                    "time": 30.492686499999994,
                    "velocity": 0.5039370078740157,
                    "duration": 0.1642335000000017
                },
                {
                    "name": "D4",
                    "midi": 62,
                    "time": 30.656919999999996,
                    "velocity": 0.5039370078740157,
                    "duration": 0.2189779999999999
                },
                {
                    "name": "F#4",
                    "midi": 66,
                    "time": 30.684292249999995,
                    "velocity": 0.5039370078740157,
                    "duration": 0.1916057500000008
                },
                {
                    "name": "D5",
                    "midi": 74,
                    "time": 30.711664499999994,
                    "velocity": 0.5039370078740157,
                    "duration": 0.1642335000000017
                },
                {
                    "name": "D4",
                    "midi": 62,
                    "time": 30.875897999999996,
                    "velocity": 0.5039370078740157,
                    "duration": 0.4379559999999998
                },
                {
                    "name": "F#4",
                    "midi": 66,
                    "time": 30.903270249999995,
                    "velocity": 0.5039370078740157,
                    "duration": 0.4105837500000007
                },
                {
                    "name": "D5",
                    "midi": 74,
                    "time": 30.930642499999994,
                    "velocity": 0.5039370078740157,
                    "duration": 0.3832115000000016
                },
                {
                    "name": "B3",
                    "midi": 59,
                    "time": 31.532831999999996,
                    "velocity": 0.5039370078740157,
                    "duration": 0.03649633333333213
                },
                {
                    "name": "C#4",
                    "midi": 61,
                    "time": 31.569328333333328,
                    "velocity": 0.5039370078740157,
                    "duration": 0.03649633333333213
                },
                {
                    "name": "B3",
                    "midi": 59,
                    "time": 31.60582466666666,
                    "velocity": 0.5039370078740157,
                    "duration": 0.03649633333333213
                },
                {
                    "name": "A#3",
                    "midi": 58,
                    "time": 31.642320999999992,
                    "velocity": 0.5039370078740157,
                    "duration": 0.10948899999999995
                },
                {
                    "name": "B3",
                    "midi": 59,
                    "time": 31.751809999999992,
                    "velocity": 0.5039370078740157,
                    "duration": 0.10948899999999995
                },
                {
                    "name": "C#4",
                    "midi": 61,
                    "time": 31.861298999999992,
                    "velocity": 0.5039370078740157,
                    "duration": 0.10948899999999995
                },
                {
                    "name": "D4",
                    "midi": 62,
                    "time": 31.97078799999999,
                    "velocity": 0.5039370078740157,
                    "duration": 0.1094890000000035
                },
                {
                    "name": "C#4",
                    "midi": 61,
                    "time": 32.080276999999995,
                    "velocity": 0.5039370078740157,
                    "duration": 0.1094890000000035
                },
                {
                    "name": "B3",
                    "midi": 59,
                    "time": 32.189766,
                    "velocity": 0.5039370078740157,
                    "duration": 0.03649633333333213
                },
                {
                    "name": "C#4",
                    "midi": 61,
                    "time": 32.22626233333333,
                    "velocity": 0.5039370078740157,
                    "duration": 0.03649633333333213
                },
                {
                    "name": "B3",
                    "midi": 59,
                    "time": 32.26275866666666,
                    "velocity": 0.5039370078740157,
                    "duration": 0.03649633333333213
                },
                {
                    "name": "A#3",
                    "midi": 58,
                    "time": 32.299254999999995,
                    "velocity": 0.5039370078740157,
                    "duration": 0.1094890000000035
                },
                {
                    "name": "B3",
                    "midi": 59,
                    "time": 32.408744,
                    "velocity": 0.5039370078740157,
                    "duration": 0.1094890000000035
                },
                {
                    "name": "C#4",
                    "midi": 61,
                    "time": 32.518233,
                    "velocity": 0.5039370078740157,
                    "duration": 0.1094890000000035
                },
                {
                    "name": "D4",
                    "midi": 62,
                    "time": 32.627722000000006,
                    "velocity": 0.5039370078740157,
                    "duration": 0.1094890000000035
                },
                {
                    "name": "C#4",
                    "midi": 61,
                    "time": 32.73721100000001,
                    "velocity": 0.5039370078740157,
                    "duration": 0.1094890000000035
                },
                {
                    "name": "B3",
                    "midi": 59,
                    "time": 32.84670000000001,
                    "velocity": 0.5039370078740157,
                    "duration": 0.03649633333333213
                },
                {
                    "name": "C#4",
                    "midi": 61,
                    "time": 32.883196333333345,
                    "velocity": 0.5039370078740157,
                    "duration": 0.03649633333333213
                },
                {
                    "name": "B3",
                    "midi": 59,
                    "time": 32.91969266666668,
                    "velocity": 0.5039370078740157,
                    "duration": 0.03649633333333213
                },
                {
                    "name": "A#3",
                    "midi": 58,
                    "time": 32.95618900000001,
                    "velocity": 0.5039370078740157,
                    "duration": 0.1094890000000035
                },
                {
                    "name": "B3",
                    "midi": 59,
                    "time": 33.06567800000001,
                    "velocity": 0.5039370078740157,
                    "duration": 0.1094890000000035
                },
                {
                    "name": "C#4",
                    "midi": 61,
                    "time": 33.175167000000016,
                    "velocity": 0.5039370078740157,
                    "duration": 0.1094890000000035
                },
                {
                    "name": "D4",
                    "midi": 62,
                    "time": 33.28465600000002,
                    "velocity": 0.5039370078740157,
                    "duration": 0.1094890000000035
                },
                {
                    "name": "E4",
                    "midi": 64,
                    "time": 33.39414500000002,
                    "velocity": 0.5039370078740157,
                    "duration": 0.1094890000000035
                },
                {
                    "name": "F#4",
                    "midi": 66,
                    "time": 33.50363400000003,
                    "velocity": 0.5039370078740157,
                    "duration": 0.03649633333333213
                },
                {
                    "name": "G#4",
                    "midi": 68,
                    "time": 33.54013033333336,
                    "velocity": 0.5039370078740157,
                    "duration": 0.03649633333333213
                },
                {
                    "name": "F#4",
                    "midi": 66,
                    "time": 33.57662666666669,
                    "velocity": 0.5039370078740157,
                    "duration": 0.03649633333333213
                },
                {
                    "name": "F4",
                    "midi": 65,
                    "time": 33.61312300000002,
                    "velocity": 0.5039370078740157,
                    "duration": 0.1094890000000035
                },
                {
                    "name": "F#4",
                    "midi": 66,
                    "time": 33.72261200000003,
                    "velocity": 0.5039370078740157,
                    "duration": 0.1094890000000035
                },
                {
                    "name": "G#4",
                    "midi": 68,
                    "time": 33.83210100000003,
                    "velocity": 0.5039370078740157,
                    "duration": 0.1094890000000035
                },
                {
                    "name": "A#4",
                    "midi": 70,
                    "time": 33.94159000000003,
                    "velocity": 0.5039370078740157,
                    "duration": 0.1094890000000035
                },
                {
                    "name": "F#4",
                    "midi": 66,
                    "time": 34.05107900000004,
                    "velocity": 0.5039370078740157,
                    "duration": 0.1094890000000035
                },
                {
                    "name": "B4",
                    "midi": 71,
                    "time": 34.16056800000004,
                    "velocity": 0.5039370078740157,
                    "duration": 0.03649633333333213
                },
                {
                    "name": "C#5",
                    "midi": 73,
                    "time": 34.19706433333337,
                    "velocity": 0.5039370078740157,
                    "duration": 0.03649633333333213
                },
                {
                    "name": "B4",
                    "midi": 71,
                    "time": 34.233560666666705,
                    "velocity": 0.5039370078740157,
                    "duration": 0.03649633333333213
                },
                {
                    "name": "A#4",
                    "midi": 70,
                    "time": 34.27005700000004,
                    "velocity": 0.5039370078740157,
                    "duration": 0.1094890000000035
                },
                {
                    "name": "B4",
                    "midi": 71,
                    "time": 34.37954600000004,
                    "velocity": 0.5039370078740157,
                    "duration": 0.1094890000000035
                },
                {
                    "name": "C#5",
                    "midi": 73,
                    "time": 34.489035000000044,
                    "velocity": 0.5039370078740157,
                    "duration": 0.1094890000000035
                },
                {
                    "name": "D5",
                    "midi": 74,
                    "time": 34.59852400000005,
                    "velocity": 0.5039370078740157,
                    "duration": 0.1094890000000035
                },
                {
                    "name": "E5",
                    "midi": 76,
                    "time": 34.70801300000005,
                    "velocity": 0.5039370078740157,
                    "duration": 0.1094890000000035
                },
                {
                    "name": "F#5",
                    "midi": 78,
                    "time": 34.817502000000054,
                    "velocity": 0.5039370078740157,
                    "duration": 0.03649633333333213
                },
                {
                    "name": "G#5",
                    "midi": 80,
                    "time": 34.85399833333339,
                    "velocity": 0.5039370078740157,
                    "duration": 0.03649633333333213
                },
                {
                    "name": "F#5",
                    "midi": 78,
                    "time": 34.89049466666672,
                    "velocity": 0.5039370078740157,
                    "duration": 0.03649633333333213
                },
                {
                    "name": "F5",
                    "midi": 77,
                    "time": 34.92699100000005,
                    "velocity": 0.5039370078740157,
                    "duration": 0.1094890000000035
                },
                {
                    "name": "F#5",
                    "midi": 78,
                    "time": 35.036480000000054,
                    "velocity": 0.5039370078740157,
                    "duration": 0.1094890000000035
                },
                {
                    "name": "D6",
                    "midi": 86,
                    "time": 35.14596900000006,
                    "velocity": 0.5039370078740157,
                    "duration": 0.1094890000000035
                },
                {
                    "name": "C#6",
                    "midi": 85,
                    "time": 35.25545800000006,
                    "velocity": 0.5039370078740157,
                    "duration": 0.1094890000000035
                },
                {
                    "name": "B5",
                    "midi": 83,
                    "time": 35.364947000000065,
                    "velocity": 0.5039370078740157,
                    "duration": 0.1094890000000035
                },
                {
                    "name": "A#5",
                    "midi": 82,
                    "time": 35.47443600000007,
                    "velocity": 0.5039370078740157,
                    "duration": 0.1094890000000035
                },
                {
                    "name": "C#6",
                    "midi": 85,
                    "time": 35.58392500000007,
                    "velocity": 0.5039370078740157,
                    "duration": 0.1094890000000035
                },
                {
                    "name": "F#6",
                    "midi": 90,
                    "time": 35.693414000000075,
                    "velocity": 0.5039370078740157,
                    "duration": 0.1094890000000035
                },
                {
                    "name": "A#6",
                    "midi": 94,
                    "time": 35.80290300000008,
                    "velocity": 0.5039370078740157,
                    "duration": 0.1094890000000035
                },
                {
                    "name": "C#7",
                    "midi": 97,
                    "time": 35.91239200000008,
                    "velocity": 0.5039370078740157,
                    "duration": 0.1094890000000035
                },
                {
                    "name": "F#7",
                    "midi": 102,
                    "time": 36.021881000000086,
                    "velocity": 0.5039370078740157,
                    "duration": 0.1094890000000035
                },
                {
                    "name": "F#5",
                    "midi": 78,
                    "time": 36.13137000000009,
                    "velocity": 0.5039370078740157,
                    "duration": 0.2189779999999999
                },
                {
                    "name": "F#4",
                    "midi": 66,
                    "time": 36.13137000000009,
                    "velocity": 0.5039370078740157,
                    "duration": 0.2189779999999999
                },
                {
                    "name": "F#5",
                    "midi": 78,
                    "time": 36.35034800000009,
                    "velocity": 0.5039370078740157,
                    "duration": 0.2189779999999999
                },
                {
                    "name": "F#4",
                    "midi": 66,
                    "time": 36.35034800000009,
                    "velocity": 0.5039370078740157,
                    "duration": 0.2189779999999999
                },
                {
                    "name": "F#4",
                    "midi": 66,
                    "time": 36.56932600000009,
                    "velocity": 0.5039370078740157,
                    "duration": 0.2189779999999999
                },
                {
                    "name": "F#5",
                    "midi": 78,
                    "time": 36.56932600000009,
                    "velocity": 0.5039370078740157,
                    "duration": 0.2189779999999999
                },
                {
                    "name": "B3",
                    "midi": 59,
                    "time": 36.78830400000009,
                    "velocity": 0.5039370078740157,
                    "duration": 0.03649633333333213
                },
                {
                    "name": "C#4",
                    "midi": 61,
                    "time": 36.82480033333342,
                    "velocity": 0.5039370078740157,
                    "duration": 0.03649633333333213
                },
                {
                    "name": "B3",
                    "midi": 59,
                    "time": 36.86129666666675,
                    "velocity": 0.5039370078740157,
                    "duration": 0.03649633333333213
                },
                {
                    "name": "A#3",
                    "midi": 58,
                    "time": 36.897793000000085,
                    "velocity": 0.5039370078740157,
                    "duration": 0.1094890000000035
                },
                {
                    "name": "B3",
                    "midi": 59,
                    "time": 37.00728200000009,
                    "velocity": 0.5039370078740157,
                    "duration": 0.1094890000000035
                },
                {
                    "name": "C#4",
                    "midi": 61,
                    "time": 37.11677100000009,
                    "velocity": 0.5039370078740157,
                    "duration": 0.1094890000000035
                },
                {
                    "name": "D4",
                    "midi": 62,
                    "time": 37.226260000000096,
                    "velocity": 0.5039370078740157,
                    "duration": 0.1094890000000035
                },
                {
                    "name": "C#4",
                    "midi": 61,
                    "time": 37.3357490000001,
                    "velocity": 0.5039370078740157,
                    "duration": 0.1094890000000035
                },
                {
                    "name": "B3",
                    "midi": 59,
                    "time": 37.4452380000001,
                    "velocity": 0.5039370078740157,
                    "duration": 0.03649633333333213
                },
                {
                    "name": "C#4",
                    "midi": 61,
                    "time": 37.481734333333435,
                    "velocity": 0.5039370078740157,
                    "duration": 0.03649633333333213
                },
                {
                    "name": "B3",
                    "midi": 59,
                    "time": 37.51823066666677,
                    "velocity": 0.5039370078740157,
                    "duration": 0.03649633333333213
                },
                {
                    "name": "A#3",
                    "midi": 58,
                    "time": 37.5547270000001,
                    "velocity": 0.5039370078740157,
                    "duration": 0.1094890000000035
                },
                {
                    "name": "B3",
                    "midi": 59,
                    "time": 37.6642160000001,
                    "velocity": 0.5039370078740157,
                    "duration": 0.1094890000000035
                },
                {
                    "name": "C#4",
                    "midi": 61,
                    "time": 37.773705000000106,
                    "velocity": 0.5039370078740157,
                    "duration": 0.1094890000000035
                },
                {
                    "name": "D4",
                    "midi": 62,
                    "time": 37.88319400000011,
                    "velocity": 0.5039370078740157,
                    "duration": 0.1094890000000035
                },
                {
                    "name": "C#4",
                    "midi": 61,
                    "time": 37.99268300000011,
                    "velocity": 0.5039370078740157,
                    "duration": 0.1094890000000035
                },
                {
                    "name": "B3",
                    "midi": 59,
                    "time": 38.10217200000012,
                    "velocity": 0.5039370078740157,
                    "duration": 0.03649633333333213
                },
                {
                    "name": "C#4",
                    "midi": 61,
                    "time": 38.13866833333345,
                    "velocity": 0.5039370078740157,
                    "duration": 0.03649633333333213
                },
                {
                    "name": "B3",
                    "midi": 59,
                    "time": 38.17516466666678,
                    "velocity": 0.5039370078740157,
                    "duration": 0.03649633333333213
                },
                {
                    "name": "A#3",
                    "midi": 58,
                    "time": 38.21166100000011,
                    "velocity": 0.5039370078740157,
                    "duration": 0.1094890000000035
                },
                {
                    "name": "B3",
                    "midi": 59,
                    "time": 38.32115000000012,
                    "velocity": 0.5039370078740157,
                    "duration": 0.1094890000000035
                },
                {
                    "name": "C#4",
                    "midi": 61,
                    "time": 38.43063900000012,
                    "velocity": 0.5039370078740157,
                    "duration": 0.1094890000000035
                },
                {
                    "name": "D4",
                    "midi": 62,
                    "time": 38.540128000000124,
                    "velocity": 0.5039370078740157,
                    "duration": 0.1094890000000035
                },
                {
                    "name": "E4",
                    "midi": 64,
                    "time": 38.64961700000013,
                    "velocity": 0.5039370078740157,
                    "duration": 0.1094890000000035
                },
                {
                    "name": "F#4",
                    "midi": 66,
                    "time": 38.75910600000013,
                    "velocity": 0.5039370078740157,
                    "duration": 0.03649633333333213
                },
                {
                    "name": "G#4",
                    "midi": 68,
                    "time": 38.79560233333346,
                    "velocity": 0.5039370078740157,
                    "duration": 0.03649633333333213
                },
                {
                    "name": "F#4",
                    "midi": 66,
                    "time": 38.832098666666795,
                    "velocity": 0.5039370078740157,
                    "duration": 0.03649633333333213
                },
                {
                    "name": "F4",
                    "midi": 65,
                    "time": 38.86859500000013,
                    "velocity": 0.5039370078740157,
                    "duration": 0.1094890000000035
                },
                {
                    "name": "F#4",
                    "midi": 66,
                    "time": 38.97808400000013,
                    "velocity": 0.5039370078740157,
                    "duration": 0.1094890000000035
                },
                {
                    "name": "G#4",
                    "midi": 68,
                    "time": 39.087573000000134,
                    "velocity": 0.5039370078740157,
                    "duration": 0.1094890000000035
                },
                {
                    "name": "A#4",
                    "midi": 70,
                    "time": 39.19706200000014,
                    "velocity": 0.5039370078740157,
                    "duration": 0.1094890000000035
                },
                {
                    "name": "F#4",
                    "midi": 66,
                    "time": 39.30655100000014,
                    "velocity": 0.5039370078740157,
                    "duration": 0.1094890000000035
                },
                {
                    "name": "B4",
                    "midi": 71,
                    "time": 39.416040000000145,
                    "velocity": 0.5039370078740157,
                    "duration": 0.03649633333333213
                },
                {
                    "name": "C#5",
                    "midi": 73,
                    "time": 39.45253633333348,
                    "velocity": 0.5039370078740157,
                    "duration": 0.03649633333333213
                },
                {
                    "name": "B4",
                    "midi": 71,
                    "time": 39.48903266666681,
                    "velocity": 0.5039370078740157,
                    "duration": 0.03649633333333213
                },
                {
                    "name": "A#4",
                    "midi": 70,
                    "time": 39.52552900000014,
                    "velocity": 0.5039370078740157,
                    "duration": 0.1094890000000035
                },
                {
                    "name": "B4",
                    "midi": 71,
                    "time": 39.635018000000144,
                    "velocity": 0.5039370078740157,
                    "duration": 0.1094890000000035
                },
                {
                    "name": "C#5",
                    "midi": 73,
                    "time": 39.74450700000015,
                    "velocity": 0.5039370078740157,
                    "duration": 0.1094890000000035
                },
                {
                    "name": "D5",
                    "midi": 74,
                    "time": 39.85399600000015,
                    "velocity": 0.5039370078740157,
                    "duration": 0.1094890000000035
                },
                {
                    "name": "E5",
                    "midi": 76,
                    "time": 39.963485000000155,
                    "velocity": 0.5039370078740157,
                    "duration": 0.1094890000000035
                },
                {
                    "name": "F#5",
                    "midi": 78,
                    "time": 40.07297400000016,
                    "velocity": 0.5039370078740157,
                    "duration": 0.03649633333333213
                },
                {
                    "name": "G#5",
                    "midi": 80,
                    "time": 40.10947033333349,
                    "velocity": 0.5039370078740157,
                    "duration": 0.03649633333333213
                },
                {
                    "name": "F#5",
                    "midi": 78,
                    "time": 40.14596666666682,
                    "velocity": 0.5039370078740157,
                    "duration": 0.03649633333333213
                },
                {
                    "name": "F5",
                    "midi": 77,
                    "time": 40.182463000000155,
                    "velocity": 0.5039370078740157,
                    "duration": 0.1094890000000035
                },
                {
                    "name": "F#5",
                    "midi": 78,
                    "time": 40.29195200000016,
                    "velocity": 0.5039370078740157,
                    "duration": 0.1094890000000035
                },
                {
                    "name": "E6",
                    "midi": 88,
                    "time": 40.40144100000016,
                    "velocity": 0.5039370078740157,
                    "duration": 0.1094890000000035
                },
                {
                    "name": "C#6",
                    "midi": 85,
                    "time": 40.510930000000165,
                    "velocity": 0.5039370078740157,
                    "duration": 0.1094890000000035
                },
                {
                    "name": "A#5",
                    "midi": 82,
                    "time": 40.62041900000017,
                    "velocity": 0.5039370078740157,
                    "duration": 0.1094890000000035
                },
                {
                    "name": "B5",
                    "midi": 83,
                    "time": 40.72990800000017,
                    "velocity": 0.5039370078740157,
                    "duration": 0.03649633333333213
                },
                {
                    "name": "C#6",
                    "midi": 85,
                    "time": 40.766404333333504,
                    "velocity": 0.5039370078740157,
                    "duration": 0.03649633333333213
                },
                {
                    "name": "B5",
                    "midi": 83,
                    "time": 40.80290066666684,
                    "velocity": 0.5039370078740157,
                    "duration": 0.03649633333333213
                },
                {
                    "name": "A#5",
                    "midi": 82,
                    "time": 40.83939700000017,
                    "velocity": 0.5039370078740157,
                    "duration": 0.1094890000000035
                },
                {
                    "name": "B5",
                    "midi": 83,
                    "time": 40.94888600000017,
                    "velocity": 0.5039370078740157,
                    "duration": 0.1094890000000035
                },
                {
                    "name": "D6",
                    "midi": 86,
                    "time": 41.058375000000176,
                    "velocity": 0.5039370078740157,
                    "duration": 0.1094890000000035
                },
                {
                    "name": "F#6",
                    "midi": 90,
                    "time": 41.16786400000018,
                    "velocity": 0.5039370078740157,
                    "duration": 0.1094890000000035
                },
                {
                    "name": "B6",
                    "midi": 95,
                    "time": 41.27735300000018,
                    "velocity": 0.5039370078740157,
                    "duration": 0.1094890000000035
                },
                {
                    "name": "B4",
                    "midi": 71,
                    "time": 41.386842000000186,
                    "velocity": 0.5039370078740157,
                    "duration": 0.2189779999999999
                },
                {
                    "name": "B5",
                    "midi": 83,
                    "time": 41.42333833333352,
                    "velocity": 0.5039370078740157,
                    "duration": 0.18248166666666776
                },
                {
                    "name": "B4",
                    "midi": 71,
                    "time": 41.605820000000186,
                    "velocity": 0.5039370078740157,
                    "duration": 0.2189779999999999
                },
                {
                    "name": "B5",
                    "midi": 83,
                    "time": 41.64231633333352,
                    "velocity": 0.5039370078740157,
                    "duration": 0.18248166666666776
                },
                {
                    "name": "B4",
                    "midi": 71,
                    "time": 41.824798000000186,
                    "velocity": 0.5039370078740157,
                    "duration": 0.2189779999999999
                },
                {
                    "name": "B5",
                    "midi": 83,
                    "time": 41.86129433333352,
                    "velocity": 0.5039370078740157,
                    "duration": 0.18248166666666776
                },
                {
                    "name": "B3",
                    "midi": 59,
                    "time": 42.043776000000186,
                    "velocity": 0.5039370078740157,
                    "duration": 0.03649633333333213
                },
                {
                    "name": "C#4",
                    "midi": 61,
                    "time": 42.08027233333352,
                    "velocity": 0.5039370078740157,
                    "duration": 0.03649633333333213
                },
                {
                    "name": "B3",
                    "midi": 59,
                    "time": 42.11676866666685,
                    "velocity": 0.5039370078740157,
                    "duration": 0.03649633333333213
                },
                {
                    "name": "A#3",
                    "midi": 58,
                    "time": 42.15326500000018,
                    "velocity": 0.5039370078740157,
                    "duration": 0.1094890000000035
                },
                {
                    "name": "B3",
                    "midi": 59,
                    "time": 42.262754000000186,
                    "velocity": 0.5039370078740157,
                    "duration": 0.1094890000000035
                },
                {
                    "name": "C#4",
                    "midi": 61,
                    "time": 42.37224300000019,
                    "velocity": 0.5039370078740157,
                    "duration": 0.1094890000000035
                },
                {
                    "name": "D4",
                    "midi": 62,
                    "time": 42.48173200000019,
                    "velocity": 0.5039370078740157,
                    "duration": 0.1094890000000035
                },
                {
                    "name": "C#4",
                    "midi": 61,
                    "time": 42.591221000000196,
                    "velocity": 0.5039370078740157,
                    "duration": 0.1094890000000035
                },
                {
                    "name": "B3",
                    "midi": 59,
                    "time": 42.7007100000002,
                    "velocity": 0.5039370078740157,
                    "duration": 0.03649633333333213
                },
                {
                    "name": "C#4",
                    "midi": 61,
                    "time": 42.73720633333353,
                    "velocity": 0.5039370078740157,
                    "duration": 0.03649633333333213
                },
                {
                    "name": "B3",
                    "midi": 59,
                    "time": 42.773702666666864,
                    "velocity": 0.5039370078740157,
                    "duration": 0.03649633333333213
                },
                {
                    "name": "A#3",
                    "midi": 58,
                    "time": 42.810199000000196,
                    "velocity": 0.5039370078740157,
                    "duration": 0.1094890000000035
                },
                {
                    "name": "B3",
                    "midi": 59,
                    "time": 42.9196880000002,
                    "velocity": 0.5039370078740157,
                    "duration": 0.1094890000000035
                },
                {
                    "name": "C#4",
                    "midi": 61,
                    "time": 43.0291770000002,
                    "velocity": 0.5039370078740157,
                    "duration": 0.1094890000000035
                },
                {
                    "name": "D4",
                    "midi": 62,
                    "time": 43.13866600000021,
                    "velocity": 0.5039370078740157,
                    "duration": 0.1094890000000035
                },
                {
                    "name": "C#4",
                    "midi": 61,
                    "time": 43.24815500000021,
                    "velocity": 0.5039370078740157,
                    "duration": 0.1094890000000035
                },
                {
                    "name": "B3",
                    "midi": 59,
                    "time": 43.357644000000214,
                    "velocity": 0.5039370078740157,
                    "duration": 0.03649633333333213
                },
                {
                    "name": "C#4",
                    "midi": 61,
                    "time": 43.394140333333546,
                    "velocity": 0.5039370078740157,
                    "duration": 0.03649633333333213
                },
                {
                    "name": "B3",
                    "midi": 59,
                    "time": 43.43063666666688,
                    "velocity": 0.5039370078740157,
                    "duration": 0.03649633333333213
                },
                {
                    "name": "A#3",
                    "midi": 58,
                    "time": 43.46713300000021,
                    "velocity": 0.5039370078740157,
                    "duration": 0.1094890000000035
                },
                {
                    "name": "B3",
                    "midi": 59,
                    "time": 43.576622000000214,
                    "velocity": 0.5039370078740157,
                    "duration": 0.1094890000000035
                },
                {
                    "name": "C#4",
                    "midi": 61,
                    "time": 43.68611100000022,
                    "velocity": 0.5039370078740157,
                    "duration": 0.1094890000000035
                },
                {
                    "name": "D4",
                    "midi": 62,
                    "time": 43.79560000000022,
                    "velocity": 0.5039370078740157,
                    "duration": 0.1094890000000035
                },
                {
                    "name": "E4",
                    "midi": 64,
                    "time": 43.905089000000224,
                    "velocity": 0.5039370078740157,
                    "duration": 0.1094890000000035
                },
                {
                    "name": "F#4",
                    "midi": 66,
                    "time": 44.01457800000023,
                    "velocity": 0.5039370078740157,
                    "duration": 0.03649633333333213
                },
                {
                    "name": "G#4",
                    "midi": 68,
                    "time": 44.05107433333356,
                    "velocity": 0.5039370078740157,
                    "duration": 0.03649633333333213
                },
                {
                    "name": "F#4",
                    "midi": 66,
                    "time": 44.08757066666689,
                    "velocity": 0.5039370078740157,
                    "duration": 0.03649633333333213
                },
                {
                    "name": "F4",
                    "midi": 65,
                    "time": 44.124067000000224,
                    "velocity": 0.5039370078740157,
                    "duration": 0.1094890000000035
                },
                {
                    "name": "F#4",
                    "midi": 66,
                    "time": 44.23355600000023,
                    "velocity": 0.5039370078740157,
                    "duration": 0.1094890000000035
                },
                {
                    "name": "G#4",
                    "midi": 68,
                    "time": 44.34304500000023,
                    "velocity": 0.5039370078740157,
                    "duration": 0.1094890000000035
                },
                {
                    "name": "A#4",
                    "midi": 70,
                    "time": 44.452534000000234,
                    "velocity": 0.5039370078740157,
                    "duration": 0.1094890000000035
                },
                {
                    "name": "F#4",
                    "midi": 66,
                    "time": 44.56202300000024,
                    "velocity": 0.5039370078740157,
                    "duration": 0.1094890000000035
                },
                {
                    "name": "B4",
                    "midi": 71,
                    "time": 44.67151200000024,
                    "velocity": 0.5039370078740157,
                    "duration": 0.03649633333333213
                },
                {
                    "name": "C#5",
                    "midi": 73,
                    "time": 44.708008333333574,
                    "velocity": 0.5039370078740157,
                    "duration": 0.03649633333333213
                },
                {
                    "name": "B4",
                    "midi": 71,
                    "time": 44.744504666666906,
                    "velocity": 0.5039370078740157,
                    "duration": 0.03649633333333213
                },
                {
                    "name": "A#4",
                    "midi": 70,
                    "time": 44.78100100000024,
                    "velocity": 0.5039370078740157,
                    "duration": 0.1094890000000035
                },
                {
                    "name": "B4",
                    "midi": 71,
                    "time": 44.89049000000024,
                    "velocity": 0.5039370078740157,
                    "duration": 0.1094890000000035
                },
                {
                    "name": "C#5",
                    "midi": 73,
                    "time": 44.999979000000245,
                    "velocity": 0.5039370078740157,
                    "duration": 0.1094890000000035
                },
                {
                    "name": "D5",
                    "midi": 74,
                    "time": 45.10946800000025,
                    "velocity": 0.5039370078740157,
                    "duration": 0.1094890000000035
                },
                {
                    "name": "E5",
                    "midi": 76,
                    "time": 45.21895700000025,
                    "velocity": 0.5039370078740157,
                    "duration": 0.1094890000000035
                },
                {
                    "name": "F#5",
                    "midi": 78,
                    "time": 45.328446000000255,
                    "velocity": 0.5039370078740157,
                    "duration": 0.03649633333333213
                },
                {
                    "name": "G#5",
                    "midi": 80,
                    "time": 45.36494233333359,
                    "velocity": 0.5039370078740157,
                    "duration": 0.03649633333333213
                },
                {
                    "name": "F#5",
                    "midi": 78,
                    "time": 45.40143866666692,
                    "velocity": 0.5039370078740157,
                    "duration": 0.03649633333333213
                },
                {
                    "name": "F5",
                    "midi": 77,
                    "time": 45.43793500000025,
                    "velocity": 0.5039370078740157,
                    "duration": 0.1094890000000035
                },
                {
                    "name": "F#5",
                    "midi": 78,
                    "time": 45.547424000000255,
                    "velocity": 0.5039370078740157,
                    "duration": 0.1094890000000035
                },
                {
                    "name": "D6",
                    "midi": 86,
                    "time": 45.65691300000026,
                    "velocity": 0.5039370078740157,
                    "duration": 0.1094890000000035
                },
                {
                    "name": "C#6",
                    "midi": 85,
                    "time": 45.76640200000026,
                    "velocity": 0.5039370078740157,
                    "duration": 0.1094890000000035
                },
                {
                    "name": "B5",
                    "midi": 83,
                    "time": 45.875891000000266,
                    "velocity": 0.5039370078740157,
                    "duration": 0.1094890000000035
                },
                {
                    "name": "A#5",
                    "midi": 82,
                    "time": 45.98538000000027,
                    "velocity": 0.5039370078740157,
                    "duration": 0.1094890000000035
                },
                {
                    "name": "C#6",
                    "midi": 85,
                    "time": 46.09486900000027,
                    "velocity": 0.5039370078740157,
                    "duration": 0.1094890000000035
                },
                {
                    "name": "F#6",
                    "midi": 90,
                    "time": 46.204358000000276,
                    "velocity": 0.5039370078740157,
                    "duration": 0.1094890000000035
                },
                {
                    "name": "A#6",
                    "midi": 94,
                    "time": 46.31384700000028,
                    "velocity": 0.5039370078740157,
                    "duration": 0.1094890000000035
                },
                {
                    "name": "C#7",
                    "midi": 97,
                    "time": 46.42333600000028,
                    "velocity": 0.5039370078740157,
                    "duration": 0.1094890000000035
                },
                {
                    "name": "F#7",
                    "midi": 102,
                    "time": 46.53282500000029,
                    "velocity": 0.5039370078740157,
                    "duration": 0.1094890000000035
                },
                {
                    "name": "F#5",
                    "midi": 78,
                    "time": 46.64231400000029,
                    "velocity": 0.5039370078740157,
                    "duration": 0.2189779999999999
                },
                {
                    "name": "F#4",
                    "midi": 66,
                    "time": 46.64231400000029,
                    "velocity": 0.5039370078740157,
                    "duration": 0.2189779999999999
                },
                {
                    "name": "F#5",
                    "midi": 78,
                    "time": 46.86129200000029,
                    "velocity": 0.5039370078740157,
                    "duration": 0.2189779999999999
                },
                {
                    "name": "F#4",
                    "midi": 66,
                    "time": 46.86129200000029,
                    "velocity": 0.5039370078740157,
                    "duration": 0.2189779999999999
                },
                {
                    "name": "F#4",
                    "midi": 66,
                    "time": 47.08027000000029,
                    "velocity": 0.5039370078740157,
                    "duration": 0.2189779999999999
                },
                {
                    "name": "F#5",
                    "midi": 78,
                    "time": 47.08027000000029,
                    "velocity": 0.5039370078740157,
                    "duration": 0.2189779999999999
                },
                {
                    "name": "B3",
                    "midi": 59,
                    "time": 47.29924800000029,
                    "velocity": 0.5039370078740157,
                    "duration": 0.03649633333333213
                },
                {
                    "name": "C#4",
                    "midi": 61,
                    "time": 47.33574433333362,
                    "velocity": 0.5039370078740157,
                    "duration": 0.03649633333333213
                },
                {
                    "name": "B3",
                    "midi": 59,
                    "time": 47.372240666666954,
                    "velocity": 0.5039370078740157,
                    "duration": 0.03649633333333213
                },
                {
                    "name": "A#3",
                    "midi": 58,
                    "time": 47.408737000000286,
                    "velocity": 0.5039370078740157,
                    "duration": 0.1094890000000035
                },
                {
                    "name": "B3",
                    "midi": 59,
                    "time": 47.51822600000029,
                    "velocity": 0.5039370078740157,
                    "duration": 0.1094890000000035
                },
                {
                    "name": "C#4",
                    "midi": 61,
                    "time": 47.62771500000029,
                    "velocity": 0.5039370078740157,
                    "duration": 0.1094890000000035
                },
                {
                    "name": "D4",
                    "midi": 62,
                    "time": 47.7372040000003,
                    "velocity": 0.5039370078740157,
                    "duration": 0.1094890000000035
                },
                {
                    "name": "C#4",
                    "midi": 61,
                    "time": 47.8466930000003,
                    "velocity": 0.5039370078740157,
                    "duration": 0.1094890000000035
                },
                {
                    "name": "B3",
                    "midi": 59,
                    "time": 47.956182000000304,
                    "velocity": 0.5039370078740157,
                    "duration": 0.03649633333333213
                },
                {
                    "name": "C#4",
                    "midi": 61,
                    "time": 47.992678333333636,
                    "velocity": 0.5039370078740157,
                    "duration": 0.03649633333333213
                },
                {
                    "name": "B3",
                    "midi": 59,
                    "time": 48.02917466666697,
                    "velocity": 0.5039370078740157,
                    "duration": 0.03649633333333213
                },
                {
                    "name": "A#3",
                    "midi": 58,
                    "time": 48.0656710000003,
                    "velocity": 0.5039370078740157,
                    "duration": 0.1094890000000035
                },
                {
                    "name": "B3",
                    "midi": 59,
                    "time": 48.175160000000304,
                    "velocity": 0.5039370078740157,
                    "duration": 0.1094890000000035
                },
                {
                    "name": "C#4",
                    "midi": 61,
                    "time": 48.28464900000031,
                    "velocity": 0.5039370078740157,
                    "duration": 0.1094890000000035
                },
                {
                    "name": "D4",
                    "midi": 62,
                    "time": 48.39413800000031,
                    "velocity": 0.5039370078740157,
                    "duration": 0.1094890000000035
                },
                {
                    "name": "C#4",
                    "midi": 61,
                    "time": 48.503627000000314,
                    "velocity": 0.5039370078740157,
                    "duration": 0.1094890000000035
                },
                {
                    "name": "B3",
                    "midi": 59,
                    "time": 48.61311600000032,
                    "velocity": 0.5039370078740157,
                    "duration": 0.03649633333333213
                },
                {
                    "name": "C#4",
                    "midi": 61,
                    "time": 48.64961233333365,
                    "velocity": 0.5039370078740157,
                    "duration": 0.03649633333333213
                },
                {
                    "name": "B3",
                    "midi": 59,
                    "time": 48.68610866666698,
                    "velocity": 0.5039370078740157,
                    "duration": 0.03649633333333213
                },
                {
                    "name": "A#3",
                    "midi": 58,
                    "time": 48.722605000000314,
                    "velocity": 0.5039370078740157,
                    "duration": 0.1094890000000035
                },
                {
                    "name": "B3",
                    "midi": 59,
                    "time": 48.83209400000032,
                    "velocity": 0.5039370078740157,
                    "duration": 0.1094890000000035
                },
                {
                    "name": "C#4",
                    "midi": 61,
                    "time": 48.94158300000032,
                    "velocity": 0.5039370078740157,
                    "duration": 0.1094890000000035
                },
                {
                    "name": "D4",
                    "midi": 62,
                    "time": 49.051072000000325,
                    "velocity": 0.5039370078740157,
                    "duration": 0.1094890000000035
                },
                {
                    "name": "E4",
                    "midi": 64,
                    "time": 49.16056100000033,
                    "velocity": 0.5039370078740157,
                    "duration": 0.1094890000000035
                },
                {
                    "name": "F#4",
                    "midi": 66,
                    "time": 49.27005000000033,
                    "velocity": 0.5039370078740157,
                    "duration": 0.03649633333333213
                },
                {
                    "name": "G#4",
                    "midi": 68,
                    "time": 49.306546333333664,
                    "velocity": 0.5039370078740157,
                    "duration": 0.03649633333333213
                },
                {
                    "name": "F#4",
                    "midi": 66,
                    "time": 49.343042666666996,
                    "velocity": 0.5039370078740157,
                    "duration": 0.03649633333333213
                },
                {
                    "name": "F4",
                    "midi": 65,
                    "time": 49.37953900000033,
                    "velocity": 0.5039370078740157,
                    "duration": 0.1094890000000035
                },
                {
                    "name": "F#4",
                    "midi": 66,
                    "time": 49.48902800000033,
                    "velocity": 0.5039370078740157,
                    "duration": 0.1094890000000035
                },
                {
                    "name": "G#4",
                    "midi": 68,
                    "time": 49.598517000000335,
                    "velocity": 0.5039370078740157,
                    "duration": 0.1094890000000035
                },
                {
                    "name": "A#4",
                    "midi": 70,
                    "time": 49.70800600000034,
                    "velocity": 0.5039370078740157,
                    "duration": 0.1094890000000035
                },
                {
                    "name": "F#4",
                    "midi": 66,
                    "time": 49.81749500000034,
                    "velocity": 0.5039370078740157,
                    "duration": 0.1094890000000035
                },
                {
                    "name": "B4",
                    "midi": 71,
                    "time": 49.926984000000346,
                    "velocity": 0.5039370078740157,
                    "duration": 0.03649633333333213
                },
                {
                    "name": "C#5",
                    "midi": 73,
                    "time": 49.96348033333368,
                    "velocity": 0.5039370078740157,
                    "duration": 0.03649633333333213
                },
                {
                    "name": "B4",
                    "midi": 71,
                    "time": 49.99997666666701,
                    "velocity": 0.5039370078740157,
                    "duration": 0.03649633333333213
                },
                {
                    "name": "A#4",
                    "midi": 70,
                    "time": 50.03647300000034,
                    "velocity": 0.5039370078740157,
                    "duration": 0.1094890000000035
                },
                {
                    "name": "B4",
                    "midi": 71,
                    "time": 50.145962000000345,
                    "velocity": 0.5039370078740157,
                    "duration": 0.1094890000000035
                },
                {
                    "name": "C#5",
                    "midi": 73,
                    "time": 50.25545100000035,
                    "velocity": 0.5039370078740157,
                    "duration": 0.1094890000000035
                },
                {
                    "name": "D5",
                    "midi": 74,
                    "time": 50.36494000000035,
                    "velocity": 0.5039370078740157,
                    "duration": 0.1094890000000035
                },
                {
                    "name": "E5",
                    "midi": 76,
                    "time": 50.474429000000356,
                    "velocity": 0.5039370078740157,
                    "duration": 0.1094890000000035
                },
                {
                    "name": "F#5",
                    "midi": 78,
                    "time": 50.58391800000036,
                    "velocity": 0.5039370078740157,
                    "duration": 0.03649633333333213
                },
                {
                    "name": "G#5",
                    "midi": 80,
                    "time": 50.62041433333369,
                    "velocity": 0.5039370078740157,
                    "duration": 0.03649633333333213
                },
                {
                    "name": "F#5",
                    "midi": 78,
                    "time": 50.656910666667024,
                    "velocity": 0.5039370078740157,
                    "duration": 0.03649633333333213
                },
                {
                    "name": "F5",
                    "midi": 77,
                    "time": 50.693407000000356,
                    "velocity": 0.5039370078740157,
                    "duration": 0.1094890000000035
                },
                {
                    "name": "F#5",
                    "midi": 78,
                    "time": 50.80289600000036,
                    "velocity": 0.5039370078740157,
                    "duration": 0.1094890000000035
                },
                {
                    "name": "E6",
                    "midi": 88,
                    "time": 50.91238500000036,
                    "velocity": 0.5039370078740157,
                    "duration": 0.1094890000000035
                },
                {
                    "name": "C#6",
                    "midi": 85,
                    "time": 51.021874000000366,
                    "velocity": 0.5039370078740157,
                    "duration": 0.1094890000000035
                },
                {
                    "name": "A#5",
                    "midi": 82,
                    "time": 51.13136300000037,
                    "velocity": 0.5039370078740157,
                    "duration": 0.1094890000000035
                },
                {
                    "name": "B5",
                    "midi": 83,
                    "time": 51.24085200000037,
                    "velocity": 0.5039370078740157,
                    "duration": 0.03649633333333213
                },
                {
                    "name": "C#6",
                    "midi": 85,
                    "time": 51.277348333333705,
                    "velocity": 0.5039370078740157,
                    "duration": 0.03649633333333213
                },
                {
                    "name": "B5",
                    "midi": 83,
                    "time": 51.31384466666704,
                    "velocity": 0.5039370078740157,
                    "duration": 0.03649633333333213
                },
                {
                    "name": "A#5",
                    "midi": 82,
                    "time": 51.35034100000037,
                    "velocity": 0.5039370078740157,
                    "duration": 0.1094890000000035
                },
                {
                    "name": "B5",
                    "midi": 83,
                    "time": 51.45983000000037,
                    "velocity": 0.5039370078740157,
                    "duration": 0.1094890000000035
                },
                {
                    "name": "D6",
                    "midi": 86,
                    "time": 51.56931900000038,
                    "velocity": 0.5039370078740157,
                    "duration": 0.1094890000000035
                },
                {
                    "name": "F#6",
                    "midi": 90,
                    "time": 51.67880800000038,
                    "velocity": 0.5039370078740157,
                    "duration": 0.1094890000000035
                },
                {
                    "name": "B6",
                    "midi": 95,
                    "time": 51.788297000000384,
                    "velocity": 0.5039370078740157,
                    "duration": 0.1094890000000035
                },
                {
                    "name": "B4",
                    "midi": 71,
                    "time": 51.89778600000039,
                    "velocity": 0.5039370078740157,
                    "duration": 0.2189779999999999
                },
                {
                    "name": "B5",
                    "midi": 83,
                    "time": 51.93428233333372,
                    "velocity": 0.5039370078740157,
                    "duration": 0.18248166666666776
                },
                {
                    "name": "B4",
                    "midi": 71,
                    "time": 52.11676400000039,
                    "velocity": 0.5039370078740157,
                    "duration": 0.2189779999999999
                },
                {
                    "name": "B5",
                    "midi": 83,
                    "time": 52.15326033333372,
                    "velocity": 0.5039370078740157,
                    "duration": 0.18248166666666776
                },
                {
                    "name": "B4",
                    "midi": 71,
                    "time": 52.33574200000039,
                    "velocity": 0.5039370078740157,
                    "duration": 0.2189779999999999
                },
                {
                    "name": "B5",
                    "midi": 83,
                    "time": 52.37223833333372,
                    "velocity": 0.5039370078740157,
                    "duration": 0.18248166666666776
                },
                {
                    "name": "A5",
                    "midi": 81,
                    "time": 52.55472000000039,
                    "velocity": 0.5039370078740157,
                    "duration": 0.03649633333333213
                },
                {
                    "name": "B5",
                    "midi": 83,
                    "time": 52.59121633333372,
                    "velocity": 0.5039370078740157,
                    "duration": 0.03649633333333213
                },
                {
                    "name": "A5",
                    "midi": 81,
                    "time": 52.62771266666705,
                    "velocity": 0.5039370078740157,
                    "duration": 0.03649633333333213
                },
                {
                    "name": "G#5",
                    "midi": 80,
                    "time": 52.66420900000038,
                    "velocity": 0.5039370078740157,
                    "duration": 0.1094890000000035
                },
                {
                    "name": "A5",
                    "midi": 81,
                    "time": 52.77369800000039,
                    "velocity": 0.5039370078740157,
                    "duration": 0.1094890000000035
                },
                {
                    "name": "F#5",
                    "midi": 78,
                    "time": 52.88318700000039,
                    "velocity": 0.5039370078740157,
                    "duration": 0.1094890000000035
                },
                {
                    "name": "D#5",
                    "midi": 75,
                    "time": 52.992676000000394,
                    "velocity": 0.5039370078740157,
                    "duration": 0.1094890000000035
                },
                {
                    "name": "B4",
                    "midi": 71,
                    "time": 53.1021650000004,
                    "velocity": 0.5039370078740157,
                    "duration": 0.1094890000000035
                },
                {
                    "name": "A4",
                    "midi": 69,
                    "time": 53.2116540000004,
                    "velocity": 0.5039370078740157,
                    "duration": 0.1094890000000035
                },
                {
                    "name": "F#4",
                    "midi": 66,
                    "time": 53.321143000000404,
                    "velocity": 0.5039370078740157,
                    "duration": 0.1094890000000035
                },
                {
                    "name": "D#4",
                    "midi": 63,
                    "time": 53.43063200000041,
                    "velocity": 0.5039370078740157,
                    "duration": 0.1094890000000035
                },
                {
                    "name": "B3",
                    "midi": 59,
                    "time": 53.54012100000041,
                    "velocity": 0.5039370078740157,
                    "duration": 0.1094890000000035
                },
                {
                    "name": "F#4",
                    "midi": 66,
                    "time": 53.649610000000415,
                    "velocity": 0.5039370078740157,
                    "duration": 0.1094890000000035
                },
                {
                    "name": "A4",
                    "midi": 69,
                    "time": 53.75909900000042,
                    "velocity": 0.5039370078740157,
                    "duration": 0.1094890000000035
                },
                {
                    "name": "G4",
                    "midi": 67,
                    "time": 53.86858800000042,
                    "velocity": 0.5039370078740157,
                    "duration": 0.03649633333333213
                },
                {
                    "name": "A4",
                    "midi": 69,
                    "time": 53.905084333333754,
                    "velocity": 0.5039370078740157,
                    "duration": 0.03649633333333213
                },
                {
                    "name": "G4",
                    "midi": 67,
                    "time": 53.941580666667086,
                    "velocity": 0.5039370078740157,
                    "duration": 0.03649633333333213
                },
                {
                    "name": "F#4",
                    "midi": 66,
                    "time": 53.97807700000042,
                    "velocity": 0.5039370078740157,
                    "duration": 0.1094890000000035
                },
                {
                    "name": "G4",
                    "midi": 67,
                    "time": 54.08756600000042,
                    "velocity": 0.5039370078740157,
                    "duration": 0.1094890000000035
                },
                {
                    "name": "E4",
                    "midi": 64,
                    "time": 54.197055000000425,
                    "velocity": 0.5039370078740157,
                    "duration": 0.1094890000000035
                },
                {
                    "name": "G4",
                    "midi": 67,
                    "time": 54.30654400000043,
                    "velocity": 0.5039370078740157,
                    "duration": 0.1094890000000035
                },
                {
                    "name": "B4",
                    "midi": 71,
                    "time": 54.41603300000043,
                    "velocity": 0.5039370078740157,
                    "duration": 0.1094890000000035
                },
                {
                    "name": "E5",
                    "midi": 76,
                    "time": 54.525522000000436,
                    "velocity": 0.5039370078740157,
                    "duration": 0.2189779999999999
                },
                {
                    "name": "E6",
                    "midi": 88,
                    "time": 54.56201833333377,
                    "velocity": 0.5039370078740157,
                    "duration": 0.18248166666666776
                },
                {
                    "name": "E5",
                    "midi": 76,
                    "time": 54.744500000000436,
                    "velocity": 0.5039370078740157,
                    "duration": 0.2189779999999999
                },
                {
                    "name": "E6",
                    "midi": 88,
                    "time": 54.78099633333377,
                    "velocity": 0.5039370078740157,
                    "duration": 0.18248166666666776
                },
                {
                    "name": "E5",
                    "midi": 76,
                    "time": 54.963478000000435,
                    "velocity": 0.5039370078740157,
                    "duration": 0.2189779999999999
                },
                {
                    "name": "E6",
                    "midi": 88,
                    "time": 54.99997433333377,
                    "velocity": 0.5039370078740157,
                    "duration": 0.18248166666666776
                },
                {
                    "name": "G5",
                    "midi": 79,
                    "time": 55.182456000000435,
                    "velocity": 0.5039370078740157,
                    "duration": 0.03649633333333213
                },
                {
                    "name": "A5",
                    "midi": 81,
                    "time": 55.21895233333377,
                    "velocity": 0.5039370078740157,
                    "duration": 0.03649633333333213
                },
                {
                    "name": "G5",
                    "midi": 79,
                    "time": 55.2554486666671,
                    "velocity": 0.5039370078740157,
                    "duration": 0.03649633333333213
                },
                {
                    "name": "F#5",
                    "midi": 78,
                    "time": 55.29194500000043,
                    "velocity": 0.5039370078740157,
                    "duration": 0.1094890000000035
                },
                {
                    "name": "G5",
                    "midi": 79,
                    "time": 55.401434000000435,
                    "velocity": 0.5039370078740157,
                    "duration": 0.1094890000000035
                },
                {
                    "name": "E5",
                    "midi": 76,
                    "time": 55.51092300000044,
                    "velocity": 0.5039370078740157,
                    "duration": 0.1094890000000035
                },
                {
                    "name": "C#5",
                    "midi": 73,
                    "time": 55.62041200000044,
                    "velocity": 0.5039370078740157,
                    "duration": 0.1094890000000035
                },
                {
                    "name": "A4",
                    "midi": 69,
                    "time": 55.729901000000446,
                    "velocity": 0.5039370078740157,
                    "duration": 0.1094890000000035
                },
                {
                    "name": "G4",
                    "midi": 67,
                    "time": 55.83939000000045,
                    "velocity": 0.5039370078740157,
                    "duration": 0.1094890000000035
                },
                {
                    "name": "E4",
                    "midi": 64,
                    "time": 55.94887900000045,
                    "velocity": 0.5039370078740157,
                    "duration": 0.1094890000000035
                },
                {
                    "name": "C#4",
                    "midi": 61,
                    "time": 56.058368000000456,
                    "velocity": 0.5039370078740157,
                    "duration": 0.1094890000000035
                },
                {
                    "name": "A3",
                    "midi": 57,
                    "time": 56.16785700000046,
                    "velocity": 0.5039370078740157,
                    "duration": 0.1094890000000035
                },
                {
                    "name": "E4",
                    "midi": 64,
                    "time": 56.27734600000046,
                    "velocity": 0.5039370078740157,
                    "duration": 0.1094890000000035
                },
                {
                    "name": "G4",
                    "midi": 67,
                    "time": 56.38683500000047,
                    "velocity": 0.5039370078740157,
                    "duration": 0.1094890000000035
                },
                {
                    "name": "F#4",
                    "midi": 66,
                    "time": 56.49632400000047,
                    "velocity": 0.5039370078740157,
                    "duration": 0.03649633333333213
                },
                {
                    "name": "G4",
                    "midi": 67,
                    "time": 56.5328203333338,
                    "velocity": 0.5039370078740157,
                    "duration": 0.03649633333333213
                },
                {
                    "name": "F#4",
                    "midi": 66,
                    "time": 56.569316666667135,
                    "velocity": 0.5039370078740157,
                    "duration": 0.03649633333333213
                },
                {
                    "name": "E4",
                    "midi": 64,
                    "time": 56.60581300000047,
                    "velocity": 0.5039370078740157,
                    "duration": 0.1094890000000035
                },
                {
                    "name": "F#4",
                    "midi": 66,
                    "time": 56.71530200000047,
                    "velocity": 0.5039370078740157,
                    "duration": 0.1094890000000035
                },
                {
                    "name": "D4",
                    "midi": 62,
                    "time": 56.824791000000474,
                    "velocity": 0.5039370078740157,
                    "duration": 0.1094890000000035
                },
                {
                    "name": "F#4",
                    "midi": 66,
                    "time": 56.93428000000048,
                    "velocity": 0.5039370078740157,
                    "duration": 0.1094890000000035
                },
                {
                    "name": "A4",
                    "midi": 69,
                    "time": 57.04376900000048,
                    "velocity": 0.5039370078740157,
                    "duration": 0.1094890000000035
                },
                {
                    "name": "D5",
                    "midi": 74,
                    "time": 57.153258000000484,
                    "velocity": 0.5039370078740157,
                    "duration": 0.2189779999999999
                },
                {
                    "name": "D6",
                    "midi": 86,
                    "time": 57.189754333333816,
                    "velocity": 0.5039370078740157,
                    "duration": 0.18248166666666776
                },
                {
                    "name": "D5",
                    "midi": 74,
                    "time": 57.372236000000484,
                    "velocity": 0.5039370078740157,
                    "duration": 0.2189779999999999
                },
                {
                    "name": "D6",
                    "midi": 86,
                    "time": 57.408732333333816,
                    "velocity": 0.5039370078740157,
                    "duration": 0.18248166666666776
                },
                {
                    "name": "D5",
                    "midi": 74,
                    "time": 57.591214000000484,
                    "velocity": 0.5039370078740157,
                    "duration": 0.2189779999999999
                },
                {
                    "name": "D6",
                    "midi": 86,
                    "time": 57.627710333333816,
                    "velocity": 0.5039370078740157,
                    "duration": 0.18248166666666776
                },
                {
                    "name": "B5",
                    "midi": 83,
                    "time": 57.810192000000484,
                    "velocity": 0.5039370078740157,
                    "duration": 0.03649633333333213
                },
                {
                    "name": "C#6",
                    "midi": 85,
                    "time": 57.846688333333816,
                    "velocity": 0.5039370078740157,
                    "duration": 0.03649633333333213
                },
                {
                    "name": "B5",
                    "midi": 83,
                    "time": 57.88318466666715,
                    "velocity": 0.5039370078740157,
                    "duration": 0.03649633333333213
                },
                {
                    "name": "A#5",
                    "midi": 82,
                    "time": 57.91968100000048,
                    "velocity": 0.5039370078740157,
                    "duration": 0.1094890000000035
                },
                {
                    "name": "B5",
                    "midi": 83,
                    "time": 58.029170000000484,
                    "velocity": 0.5039370078740157,
                    "duration": 0.1094890000000035
                },
                {
                    "name": "G4",
                    "midi": 67,
                    "time": 58.13865900000049,
                    "velocity": 0.5039370078740157,
                    "duration": 0.1094890000000035
                },
                {
                    "name": "G6",
                    "midi": 91,
                    "time": 58.24814800000049,
                    "velocity": 0.5039370078740157,
                    "duration": 0.1094890000000035
                },
                {
                    "name": "B5",
                    "midi": 83,
                    "time": 58.357637000000494,
                    "velocity": 0.5039370078740157,
                    "duration": 0.1094890000000035
                },
                {
                    "name": "A5",
                    "midi": 81,
                    "time": 58.4671260000005,
                    "velocity": 0.5039370078740157,
                    "duration": 0.03649633333333213
                },
                {
                    "name": "B5",
                    "midi": 83,
                    "time": 58.50362233333383,
                    "velocity": 0.5039370078740157,
                    "duration": 0.03649633333333213
                },
                {
                    "name": "A5",
                    "midi": 81,
                    "time": 58.54011866666716,
                    "velocity": 0.5039370078740157,
                    "duration": 0.03649633333333213
                },
                {
                    "name": "G#5",
                    "midi": 80,
                    "time": 58.576615000000494,
                    "velocity": 0.5039370078740157,
                    "duration": 0.1094890000000035
                },
                {
                    "name": "A5",
                    "midi": 81,
                    "time": 58.6861040000005,
                    "velocity": 0.5039370078740157,
                    "duration": 0.1094890000000035
                },
                {
                    "name": "F#4",
                    "midi": 66,
                    "time": 58.7955930000005,
                    "velocity": 0.5039370078740157,
                    "duration": 0.1094890000000035
                },
                {
                    "name": "F#6",
                    "midi": 90,
                    "time": 58.905082000000505,
                    "velocity": 0.5039370078740157,
                    "duration": 0.1094890000000035
                },
                {
                    "name": "A5",
                    "midi": 81,
                    "time": 59.01457100000051,
                    "velocity": 0.5039370078740157,
                    "duration": 0.1094890000000035
                },
                {
                    "name": "G5",
                    "midi": 79,
                    "time": 59.12406000000051,
                    "velocity": 0.5039370078740157,
                    "duration": 0.03649633333333213
                },
                {
                    "name": "A5",
                    "midi": 81,
                    "time": 59.160556333333844,
                    "velocity": 0.5039370078740157,
                    "duration": 0.03649633333333213
                },
                {
                    "name": "G5",
                    "midi": 79,
                    "time": 59.197052666667176,
                    "velocity": 0.5039370078740157,
                    "duration": 0.03649633333333213
                },
                {
                    "name": "F#5",
                    "midi": 78,
                    "time": 59.23354900000051,
                    "velocity": 0.5039370078740157,
                    "duration": 0.1094890000000035
                },
                {
                    "name": "G5",
                    "midi": 79,
                    "time": 59.34303800000051,
                    "velocity": 0.5039370078740157,
                    "duration": 0.1094890000000035
                },
                {
                    "name": "E4",
                    "midi": 64,
                    "time": 59.452527000000515,
                    "velocity": 0.5039370078740157,
                    "duration": 0.1094890000000035
                },
                {
                    "name": "E6",
                    "midi": 88,
                    "time": 59.56201600000052,
                    "velocity": 0.5039370078740157,
                    "duration": 0.1094890000000035
                },
                {
                    "name": "G5",
                    "midi": 79,
                    "time": 59.67150500000052,
                    "velocity": 0.5039370078740157,
                    "duration": 0.1094890000000035
                },
                {
                    "name": "F#5",
                    "midi": 78,
                    "time": 59.780994000000526,
                    "velocity": 0.5039370078740157,
                    "duration": 0.03649633333333213
                },
                {
                    "name": "G5",
                    "midi": 79,
                    "time": 59.81749033333386,
                    "velocity": 0.5039370078740157,
                    "duration": 0.03649633333333213
                },
                {
                    "name": "F#5",
                    "midi": 78,
                    "time": 59.85398666666719,
                    "velocity": 0.5039370078740157,
                    "duration": 0.03649633333333213
                },
                {
                    "name": "E5",
                    "midi": 76,
                    "time": 59.89048300000052,
                    "velocity": 0.5039370078740157,
                    "duration": 0.1094890000000035
                },
                {
                    "name": "F#5",
                    "midi": 78,
                    "time": 59.999972000000525,
                    "velocity": 0.5039370078740157,
                    "duration": 0.1094890000000035
                },
                {
                    "name": "D4",
                    "midi": 62,
                    "time": 60.10946100000053,
                    "velocity": 0.5039370078740157,
                    "duration": 0.1094890000000035
                },
                {
                    "name": "D6",
                    "midi": 86,
                    "time": 60.21895000000053,
                    "velocity": 0.5039370078740157,
                    "duration": 0.1094890000000035
                },
                {
                    "name": "F#5",
                    "midi": 78,
                    "time": 60.328439000000536,
                    "velocity": 0.5039370078740157,
                    "duration": 0.1094890000000035
                },
                {
                    "name": "E5",
                    "midi": 76,
                    "time": 60.43792800000054,
                    "velocity": 0.5039370078740157,
                    "duration": 0.03649633333333213
                },
                {
                    "name": "F#5",
                    "midi": 78,
                    "time": 60.47442433333387,
                    "velocity": 0.5039370078740157,
                    "duration": 0.03649633333333213
                },
                {
                    "name": "E5",
                    "midi": 76,
                    "time": 60.510920666667204,
                    "velocity": 0.5039370078740157,
                    "duration": 0.03649633333333213
                },
                {
                    "name": "D#5",
                    "midi": 75,
                    "time": 60.547417000000536,
                    "velocity": 0.5039370078740157,
                    "duration": 0.1094890000000035
                },
                {
                    "name": "E5",
                    "midi": 76,
                    "time": 60.65690600000054,
                    "velocity": 0.5039370078740157,
                    "duration": 0.1094890000000035
                },
                {
                    "name": "G3",
                    "midi": 55,
                    "time": 60.76639500000054,
                    "velocity": 0.5039370078740157,
                    "duration": 0.1094890000000035
                },
                {
                    "name": "G5",
                    "midi": 79,
                    "time": 60.875884000000546,
                    "velocity": 0.5039370078740157,
                    "duration": 0.1094890000000035
                },
                {
                    "name": "F#5",
                    "midi": 78,
                    "time": 60.98537300000055,
                    "velocity": 0.5039370078740157,
                    "duration": 0.1094890000000035
                },
                {
                    "name": "E5",
                    "midi": 76,
                    "time": 61.09486200000055,
                    "velocity": 0.5039370078740157,
                    "duration": 0.03649633333333213
                },
                {
                    "name": "F#5",
                    "midi": 78,
                    "time": 61.131358333333885,
                    "velocity": 0.5039370078740157,
                    "duration": 0.03649633333333213
                },
                {
                    "name": "E5",
                    "midi": 76,
                    "time": 61.16785466666722,
                    "velocity": 0.5039370078740157,
                    "duration": 0.03649633333333213
                },
                {
                    "name": "D5",
                    "midi": 74,
                    "time": 61.20435100000055,
                    "velocity": 0.5039370078740157,
                    "duration": 0.1094890000000035
                },
                {
                    "name": "E5",
                    "midi": 76,
                    "time": 61.31384000000055,
                    "velocity": 0.5039370078740157,
                    "duration": 0.1094890000000035
                },
                {
                    "name": "G#3",
                    "midi": 56,
                    "time": 61.42332900000056,
                    "velocity": 0.5039370078740157,
                    "duration": 0.1094890000000035
                },
                {
                    "name": "E5",
                    "midi": 76,
                    "time": 61.53281800000056,
                    "velocity": 0.5039370078740157,
                    "duration": 0.1094890000000035
                },
                {
                    "name": "D5",
                    "midi": 74,
                    "time": 61.642307000000564,
                    "velocity": 0.5039370078740157,
                    "duration": 0.1094890000000035
                },
                {
                    "name": "C#5",
                    "midi": 73,
                    "time": 61.75179600000057,
                    "velocity": 0.5039370078740157,
                    "duration": 0.03649633333333213
                },
                {
                    "name": "D5",
                    "midi": 74,
                    "time": 61.7882923333339,
                    "velocity": 0.5039370078740157,
                    "duration": 0.03649633333333213
                },
                {
                    "name": "C#5",
                    "midi": 73,
                    "time": 61.82478866666723,
                    "velocity": 0.5039370078740157,
                    "duration": 0.03649633333333213
                },
                {
                    "name": "B4",
                    "midi": 71,
                    "time": 61.861285000000564,
                    "velocity": 0.5039370078740157,
                    "duration": 0.1094890000000035
                },
                {
                    "name": "C#5",
                    "midi": 73,
                    "time": 61.97077400000057,
                    "velocity": 0.5039370078740157,
                    "duration": 0.1094890000000035
                },
                {
                    "name": "A3",
                    "midi": 57,
                    "time": 62.08026300000057,
                    "velocity": 0.5039370078740157,
                    "duration": 0.1094890000000035
                },
                {
                    "name": "C#4",
                    "midi": 61,
                    "time": 62.189752000000574,
                    "velocity": 0.5039370078740157,
                    "duration": 0.1094890000000035
                },
                {
                    "name": "E4",
                    "midi": 64,
                    "time": 62.29924100000058,
                    "velocity": 0.5039370078740157,
                    "duration": 0.1094890000000035
                },
                {
                    "name": "A5",
                    "midi": 81,
                    "time": 62.40873000000058,
                    "velocity": 0.5039370078740157,
                    "duration": 0.2189779999999999
                },
                {
                    "name": "A6",
                    "midi": 93,
                    "time": 62.44522633333391,
                    "velocity": 0.5039370078740157,
                    "duration": 0.18248166666666776
                },
                {
                    "name": "A5",
                    "midi": 81,
                    "time": 62.62770800000058,
                    "velocity": 0.5039370078740157,
                    "duration": 0.2189779999999999
                },
                {
                    "name": "A6",
                    "midi": 93,
                    "time": 62.66420433333391,
                    "velocity": 0.5039370078740157,
                    "duration": 0.18248166666666776
                },
                {
                    "name": "A5",
                    "midi": 81,
                    "time": 62.84668600000058,
                    "velocity": 0.5039370078740157,
                    "duration": 0.2189779999999999
                },
                {
                    "name": "A6",
                    "midi": 93,
                    "time": 62.88318233333391,
                    "velocity": 0.5039370078740157,
                    "duration": 0.18248166666666776
                },
                {
                    "name": "D5",
                    "midi": 74,
                    "time": 63.06566400000058,
                    "velocity": 0.5039370078740157,
                    "duration": 0.03649633333333213
                },
                {
                    "name": "E5",
                    "midi": 76,
                    "time": 63.10216033333391,
                    "velocity": 0.5039370078740157,
                    "duration": 0.03649633333333213
                },
                {
                    "name": "D5",
                    "midi": 74,
                    "time": 63.138656666667245,
                    "velocity": 0.5039370078740157,
                    "duration": 0.03649633333333213
                },
                {
                    "name": "C#5",
                    "midi": 73,
                    "time": 63.17515300000058,
                    "velocity": 0.5039370078740157,
                    "duration": 0.1094890000000035
                },
                {
                    "name": "D5",
                    "midi": 74,
                    "time": 63.28464200000058,
                    "velocity": 0.5039370078740157,
                    "duration": 0.1094890000000035
                },
                {
                    "name": "A#3",
                    "midi": 58,
                    "time": 63.394131000000584,
                    "velocity": 0.5039370078740157,
                    "duration": 0.1094890000000035
                },
                {
                    "name": "D4",
                    "midi": 62,
                    "time": 63.50362000000059,
                    "velocity": 0.5039370078740157,
                    "duration": 0.1094890000000035
                },
                {
                    "name": "F4",
                    "midi": 65,
                    "time": 63.61310900000059,
                    "velocity": 0.5039370078740157,
                    "duration": 0.1094890000000035
                },
                {
                    "name": "G#5",
                    "midi": 80,
                    "time": 63.722598000000595,
                    "velocity": 0.5039370078740157,
                    "duration": 0.2189779999999999
                },
                {
                    "name": "G#6",
                    "midi": 92,
                    "time": 63.75909433333393,
                    "velocity": 0.5039370078740157,
                    "duration": 0.18248166666666776
                },
                {
                    "name": "G#5",
                    "midi": 80,
                    "time": 63.941576000000595,
                    "velocity": 0.5039370078740157,
                    "duration": 0.2189779999999928
                },
                {
                    "name": "G#6",
                    "midi": 92,
                    "time": 63.97807233333393,
                    "velocity": 0.5039370078740157,
                    "duration": 0.18248166666666066
                },
                {
                    "name": "G#5",
                    "midi": 80,
                    "time": 64.16055400000059,
                    "velocity": 0.5039370078740157,
                    "duration": 0.2189779999999928
                },
                {
                    "name": "G#6",
                    "midi": 92,
                    "time": 64.19705033333392,
                    "velocity": 0.5039370078740157,
                    "duration": 0.18248166666666066
                },
                {
                    "name": "C#5",
                    "midi": 73,
                    "time": 64.37953200000058,
                    "velocity": 0.5039370078740157,
                    "duration": 0.03649633333333213
                },
                {
                    "name": "D5",
                    "midi": 74,
                    "time": 64.41602833333391,
                    "velocity": 0.5039370078740157,
                    "duration": 0.03649633333333213
                },
                {
                    "name": "C#5",
                    "midi": 73,
                    "time": 64.45252466666724,
                    "velocity": 0.5039370078740157,
                    "duration": 0.03649633333333213
                },
                {
                    "name": "B4",
                    "midi": 71,
                    "time": 64.48902100000058,
                    "velocity": 0.5039370078740157,
                    "duration": 0.1094889999999964
                },
                {
                    "name": "C#5",
                    "midi": 73,
                    "time": 64.59851000000057,
                    "velocity": 0.5039370078740157,
                    "duration": 0.1094889999999964
                },
                {
                    "name": "A3",
                    "midi": 57,
                    "time": 64.70799900000057,
                    "velocity": 0.5039370078740157,
                    "duration": 0.1094889999999964
                },
                {
                    "name": "C#4",
                    "midi": 61,
                    "time": 64.81748800000057,
                    "velocity": 0.5039370078740157,
                    "duration": 0.1094889999999964
                },
                {
                    "name": "E4",
                    "midi": 64,
                    "time": 64.92697700000056,
                    "velocity": 0.5039370078740157,
                    "duration": 0.1094889999999964
                },
                {
                    "name": "A5",
                    "midi": 81,
                    "time": 65.03646600000056,
                    "velocity": 0.5039370078740157,
                    "duration": 0.2189779999999928
                },
                {
                    "name": "A6",
                    "midi": 93,
                    "time": 65.07296233333389,
                    "velocity": 0.5039370078740157,
                    "duration": 0.18248166666666066
                },
                {
                    "name": "A5",
                    "midi": 81,
                    "time": 65.25544400000055,
                    "velocity": 0.5039370078740157,
                    "duration": 0.2189779999999928
                },
                {
                    "name": "A6",
                    "midi": 93,
                    "time": 65.29194033333388,
                    "velocity": 0.5039370078740157,
                    "duration": 0.18248166666666066
                },
                {
                    "name": "A5",
                    "midi": 81,
                    "time": 65.47442200000054,
                    "velocity": 0.5039370078740157,
                    "duration": 0.2189779999999928
                },
                {
                    "name": "A6",
                    "midi": 93,
                    "time": 65.51091833333388,
                    "velocity": 0.5039370078740157,
                    "duration": 0.18248166666666066
                },
                {
                    "name": "D5",
                    "midi": 74,
                    "time": 65.69340000000054,
                    "velocity": 0.5039370078740157,
                    "duration": 0.03649633333333213
                },
                {
                    "name": "E5",
                    "midi": 76,
                    "time": 65.72989633333387,
                    "velocity": 0.5039370078740157,
                    "duration": 0.03649633333333213
                },
                {
                    "name": "D5",
                    "midi": 74,
                    "time": 65.7663926666672,
                    "velocity": 0.5039370078740157,
                    "duration": 0.03649633333333213
                },
                {
                    "name": "C#5",
                    "midi": 73,
                    "time": 65.80288900000053,
                    "velocity": 0.5039370078740157,
                    "duration": 0.1094889999999964
                },
                {
                    "name": "D5",
                    "midi": 74,
                    "time": 65.91237800000053,
                    "velocity": 0.5039370078740157,
                    "duration": 0.1094889999999964
                },
                {
                    "name": "A#3",
                    "midi": 58,
                    "time": 66.02186700000053,
                    "velocity": 0.5039370078740157,
                    "duration": 0.1094889999999964
                },
                {
                    "name": "D4",
                    "midi": 62,
                    "time": 66.13135600000052,
                    "velocity": 0.5039370078740157,
                    "duration": 0.1094889999999964
                },
                {
                    "name": "F4",
                    "midi": 65,
                    "time": 66.24084500000052,
                    "velocity": 0.5039370078740157,
                    "duration": 0.1094889999999964
                },
                {
                    "name": "G#5",
                    "midi": 80,
                    "time": 66.35033400000052,
                    "velocity": 0.5039370078740157,
                    "duration": 0.2189779999999928
                },
                {
                    "name": "G#6",
                    "midi": 92,
                    "time": 66.38683033333385,
                    "velocity": 0.5039370078740157,
                    "duration": 0.18248166666666066
                },
                {
                    "name": "G#5",
                    "midi": 80,
                    "time": 66.56931200000051,
                    "velocity": 0.5039370078740157,
                    "duration": 0.2189779999999928
                },
                {
                    "name": "G#6",
                    "midi": 92,
                    "time": 66.60580833333384,
                    "velocity": 0.5039370078740157,
                    "duration": 0.18248166666666066
                },
                {
                    "name": "G#5",
                    "midi": 80,
                    "time": 66.7882900000005,
                    "velocity": 0.5039370078740157,
                    "duration": 0.2189779999999928
                },
                {
                    "name": "G#6",
                    "midi": 92,
                    "time": 66.82478633333383,
                    "velocity": 0.5039370078740157,
                    "duration": 0.18248166666666066
                },
                {
                    "name": "C#5",
                    "midi": 73,
                    "time": 67.0072680000005,
                    "velocity": 0.5039370078740157,
                    "duration": 0.03649633333333213
                },
                {
                    "name": "D5",
                    "midi": 74,
                    "time": 67.04376433333383,
                    "velocity": 0.5039370078740157,
                    "duration": 0.03649633333333213
                },
                {
                    "name": "C#5",
                    "midi": 73,
                    "time": 67.08026066666716,
                    "velocity": 0.5039370078740157,
                    "duration": 0.03649633333333213
                },
                {
                    "name": "B4",
                    "midi": 71,
                    "time": 67.11675700000049,
                    "velocity": 0.5039370078740157,
                    "duration": 0.1094889999999964
                },
                {
                    "name": "C#5",
                    "midi": 73,
                    "time": 67.22624600000049,
                    "velocity": 0.5039370078740157,
                    "duration": 0.1094889999999964
                },
                {
                    "name": "A4",
                    "midi": 69,
                    "time": 67.33573500000048,
                    "velocity": 0.5039370078740157,
                    "duration": 0.1094889999999964
                },
                {
                    "name": "E4",
                    "midi": 64,
                    "time": 67.44522400000048,
                    "velocity": 0.5039370078740157,
                    "duration": 0.1094889999999964
                },
                {
                    "name": "C#4",
                    "midi": 61,
                    "time": 67.55471300000048,
                    "velocity": 0.5039370078740157,
                    "duration": 0.1094889999999964
                },
                {
                    "name": "A4",
                    "midi": 69,
                    "time": 67.66420200000047,
                    "velocity": 0.5039370078740157,
                    "duration": 0.03649633333333213
                },
                {
                    "name": "B4",
                    "midi": 71,
                    "time": 67.7006983333338,
                    "velocity": 0.5039370078740157,
                    "duration": 0.03649633333333213
                },
                {
                    "name": "A4",
                    "midi": 69,
                    "time": 67.73719466666714,
                    "velocity": 0.5039370078740157,
                    "duration": 0.03649633333333213
                },
                {
                    "name": "G#4",
                    "midi": 68,
                    "time": 67.77369100000047,
                    "velocity": 0.5039370078740157,
                    "duration": 0.1094889999999964
                },
                {
                    "name": "A4",
                    "midi": 69,
                    "time": 67.88318000000046,
                    "velocity": 0.5039370078740157,
                    "duration": 0.1094889999999964
                },
                {
                    "name": "E4",
                    "midi": 64,
                    "time": 67.99266900000046,
                    "velocity": 0.5039370078740157,
                    "duration": 0.1094889999999964
                },
                {
                    "name": "C#4",
                    "midi": 61,
                    "time": 68.10215800000046,
                    "velocity": 0.5039370078740157,
                    "duration": 0.1094889999999964
                },
                {
                    "name": "A3",
                    "midi": 57,
                    "time": 68.21164700000045,
                    "velocity": 0.5039370078740157,
                    "duration": 0.1094889999999964
                },
                {
                    "name": "C#5",
                    "midi": 73,
                    "time": 68.32113600000045,
                    "velocity": 0.5039370078740157,
                    "duration": 0.03649633333333213
                },
                {
                    "name": "D5",
                    "midi": 74,
                    "time": 68.35763233333378,
                    "velocity": 0.5039370078740157,
                    "duration": 0.03649633333333213
                },
                {
                    "name": "C#5",
                    "midi": 73,
                    "time": 68.39412866666711,
                    "velocity": 0.5039370078740157,
                    "duration": 0.03649633333333213
                },
                {
                    "name": "B4",
                    "midi": 71,
                    "time": 68.43062500000045,
                    "velocity": 0.5039370078740157,
                    "duration": 0.1094889999999964
                },
                {
                    "name": "C#5",
                    "midi": 73,
                    "time": 68.54011400000044,
                    "velocity": 0.5039370078740157,
                    "duration": 0.1094889999999964
                },
                {
                    "name": "A4",
                    "midi": 69,
                    "time": 68.64960300000044,
                    "velocity": 0.5039370078740157,
                    "duration": 0.1094889999999964
                },
                {
                    "name": "E4",
                    "midi": 64,
                    "time": 68.75909200000044,
                    "velocity": 0.5039370078740157,
                    "duration": 0.1094889999999964
                },
                {
                    "name": "C#4",
                    "midi": 61,
                    "time": 68.86858100000043,
                    "velocity": 0.5039370078740157,
                    "duration": 0.1094889999999964
                },
                {
                    "name": "A4",
                    "midi": 69,
                    "time": 68.97807000000043,
                    "velocity": 0.5039370078740157,
                    "duration": 0.03649633333333213
                },
                {
                    "name": "B4",
                    "midi": 71,
                    "time": 69.01456633333376,
                    "velocity": 0.5039370078740157,
                    "duration": 0.03649633333333213
                },
                {
                    "name": "A4",
                    "midi": 69,
                    "time": 69.0510626666671,
                    "velocity": 0.5039370078740157,
                    "duration": 0.03649633333333213
                },
                {
                    "name": "G#4",
                    "midi": 68,
                    "time": 69.08755900000043,
                    "velocity": 0.5039370078740157,
                    "duration": 0.1094889999999964
                },
                {
                    "name": "A4",
                    "midi": 69,
                    "time": 69.19704800000042,
                    "velocity": 0.5039370078740157,
                    "duration": 0.1094889999999964
                },
                {
                    "name": "E4",
                    "midi": 64,
                    "time": 69.30653700000042,
                    "velocity": 0.5039370078740157,
                    "duration": 0.1094889999999964
                },
                {
                    "name": "C#4",
                    "midi": 61,
                    "time": 69.41602600000041,
                    "velocity": 0.5039370078740157,
                    "duration": 0.1094889999999964
                },
                {
                    "name": "A3",
                    "midi": 57,
                    "time": 69.52551500000041,
                    "velocity": 0.5039370078740157,
                    "duration": 0.1094889999999964
                },
                {
                    "name": "A#3",
                    "midi": 58,
                    "time": 69.63500400000041,
                    "velocity": 0.5039370078740157,
                    "duration": 0.2189779999999928
                },
                {
                    "name": "A#4",
                    "midi": 70,
                    "time": 69.67150033333374,
                    "velocity": 0.5039370078740157,
                    "duration": 0.18248166666666066
                },
                {
                    "name": "A#3",
                    "midi": 58,
                    "time": 69.8539820000004,
                    "velocity": 0.5039370078740157,
                    "duration": 0.2189779999999928
                },
                {
                    "name": "A#4",
                    "midi": 70,
                    "time": 69.89047833333373,
                    "velocity": 0.5039370078740157,
                    "duration": 0.18248166666666066
                },
                {
                    "name": "A#3",
                    "midi": 58,
                    "time": 70.07296000000039,
                    "velocity": 0.5039370078740157,
                    "duration": 0.2189779999999928
                },
                {
                    "name": "A#4",
                    "midi": 70,
                    "time": 70.10945633333372,
                    "velocity": 0.5039370078740157,
                    "duration": 0.18248166666666066
                },
                {
                    "name": "D4",
                    "midi": 62,
                    "time": 70.29193800000039,
                    "velocity": 0.5039370078740157,
                    "duration": 0.2189779999999928
                },
                {
                    "name": "D5",
                    "midi": 74,
                    "time": 70.32843433333372,
                    "velocity": 0.5039370078740157,
                    "duration": 0.18248166666666066
                },
                {
                    "name": "D4",
                    "midi": 62,
                    "time": 70.51091600000038,
                    "velocity": 0.5039370078740157,
                    "duration": 0.2189779999999928
                },
                {
                    "name": "D5",
                    "midi": 74,
                    "time": 70.54741233333371,
                    "velocity": 0.5039370078740157,
                    "duration": 0.18248166666666066
                },
                {
                    "name": "D4",
                    "midi": 62,
                    "time": 70.72989400000037,
                    "velocity": 0.5039370078740157,
                    "duration": 0.2189779999999928
                },
                {
                    "name": "D5",
                    "midi": 74,
                    "time": 70.7663903333337,
                    "velocity": 0.5039370078740157,
                    "duration": 0.18248166666666066
                },
                {
                    "name": "F4",
                    "midi": 65,
                    "time": 70.94887200000036,
                    "velocity": 0.5039370078740157,
                    "duration": 0.2189779999999928
                },
                {
                    "name": "F5",
                    "midi": 77,
                    "time": 70.9853683333337,
                    "velocity": 0.5039370078740157,
                    "duration": 0.18248166666666066
                },
                {
                    "name": "F4",
                    "midi": 65,
                    "time": 71.16785000000036,
                    "velocity": 0.5039370078740157,
                    "duration": 0.2189779999999928
                },
                {
                    "name": "F5",
                    "midi": 77,
                    "time": 71.20434633333369,
                    "velocity": 0.5039370078740157,
                    "duration": 0.18248166666666066
                },
                {
                    "name": "F4",
                    "midi": 65,
                    "time": 71.38682800000035,
                    "velocity": 0.5039370078740157,
                    "duration": 0.2189779999999928
                },
                {
                    "name": "F5",
                    "midi": 77,
                    "time": 71.42332433333368,
                    "velocity": 0.5039370078740157,
                    "duration": 0.18248166666666066
                },
                {
                    "name": "A#4",
                    "midi": 70,
                    "time": 71.60580600000034,
                    "velocity": 0.5039370078740157,
                    "duration": 0.2189779999999928
                },
                {
                    "name": "A#5",
                    "midi": 82,
                    "time": 71.64230233333367,
                    "velocity": 0.5039370078740157,
                    "duration": 0.18248166666666066
                },
                {
                    "name": "F5",
                    "midi": 77,
                    "time": 71.82478400000034,
                    "velocity": 0.5039370078740157,
                    "duration": 0.1094889999999964
                },
                {
                    "name": "D5",
                    "midi": 74,
                    "time": 71.93427300000033,
                    "velocity": 0.5039370078740157,
                    "duration": 0.1094889999999964
                },
                {
                    "name": "A#4",
                    "midi": 70,
                    "time": 72.04376200000033,
                    "velocity": 0.5039370078740157,
                    "duration": 0.1094889999999964
                },
                {
                    "name": "A4",
                    "midi": 69,
                    "time": 72.15325100000032,
                    "velocity": 0.5039370078740157,
                    "duration": 0.1094889999999964
                },
                {
                    "name": "G#4",
                    "midi": 68,
                    "time": 72.26274000000032,
                    "velocity": 0.5039370078740157,
                    "duration": 0.1094889999999964
                },
                {
                    "name": "B4",
                    "midi": 71,
                    "time": 72.37222900000032,
                    "velocity": 0.5039370078740157,
                    "duration": 0.1094889999999964
                },
                {
                    "name": "D5",
                    "midi": 74,
                    "time": 72.48171800000031,
                    "velocity": 0.5039370078740157,
                    "duration": 0.1094889999999964
                },
                {
                    "name": "F5",
                    "midi": 77,
                    "time": 72.59120700000031,
                    "velocity": 0.5039370078740157,
                    "duration": 0.1094889999999964
                },
                {
                    "name": "A4",
                    "midi": 69,
                    "time": 72.7006960000003,
                    "velocity": 0.5039370078740157,
                    "duration": 0.1094889999999964
                },
                {
                    "name": "C#5",
                    "midi": 73,
                    "time": 72.8101850000003,
                    "velocity": 0.5039370078740157,
                    "duration": 0.1094889999999964
                },
                {
                    "name": "E5",
                    "midi": 76,
                    "time": 72.9196740000003,
                    "velocity": 0.5039370078740157,
                    "duration": 0.1094889999999964
                },
                {
                    "name": "A5",
                    "midi": 81,
                    "time": 73.0291630000003,
                    "velocity": 0.5039370078740157,
                    "duration": 0.1094889999999964
                },
                {
                    "name": "E5",
                    "midi": 76,
                    "time": 73.13865200000029,
                    "velocity": 0.5039370078740157,
                    "duration": 0.1094889999999964
                },
                {
                    "name": "C5",
                    "midi": 72,
                    "time": 73.24814100000029,
                    "velocity": 0.5039370078740157,
                    "duration": 0.1094889999999964
                },
                {
                    "name": "A4",
                    "midi": 69,
                    "time": 73.35763000000028,
                    "velocity": 0.5039370078740157,
                    "duration": 0.1094889999999964
                },
                {
                    "name": "G4",
                    "midi": 67,
                    "time": 73.46711900000028,
                    "velocity": 0.5039370078740157,
                    "duration": 0.1094889999999964
                },
                {
                    "name": "F#4",
                    "midi": 66,
                    "time": 73.57660800000028,
                    "velocity": 0.5039370078740157,
                    "duration": 0.1094889999999964
                },
                {
                    "name": "A4",
                    "midi": 69,
                    "time": 73.68609700000027,
                    "velocity": 0.5039370078740157,
                    "duration": 0.1094889999999964
                },
                {
                    "name": "D5",
                    "midi": 74,
                    "time": 73.79558600000027,
                    "velocity": 0.5039370078740157,
                    "duration": 0.1094889999999964
                },
                {
                    "name": "F#5",
                    "midi": 78,
                    "time": 73.90507500000027,
                    "velocity": 0.5039370078740157,
                    "duration": 0.1094889999999964
                },
                {
                    "name": "G4",
                    "midi": 67,
                    "time": 74.01456400000026,
                    "velocity": 0.5039370078740157,
                    "duration": 0.1094889999999964
                },
                {
                    "name": "B4",
                    "midi": 71,
                    "time": 74.12405300000026,
                    "velocity": 0.5039370078740157,
                    "duration": 0.1094889999999964
                },
                {
                    "name": "D5",
                    "midi": 74,
                    "time": 74.23354200000026,
                    "velocity": 0.5039370078740157,
                    "duration": 0.1094889999999964
                },
                {
                    "name": "G5",
                    "midi": 79,
                    "time": 74.34303100000025,
                    "velocity": 0.5039370078740157,
                    "duration": 0.1094889999999964
                },
                {
                    "name": "D5",
                    "midi": 74,
                    "time": 74.45252000000025,
                    "velocity": 0.5039370078740157,
                    "duration": 0.1094889999999964
                },
                {
                    "name": "B4",
                    "midi": 71,
                    "time": 74.56200900000024,
                    "velocity": 0.5039370078740157,
                    "duration": 0.1094889999999964
                },
                {
                    "name": "G4",
                    "midi": 67,
                    "time": 74.67149800000024,
                    "velocity": 0.5039370078740157,
                    "duration": 0.1094889999999964
                },
                {
                    "name": "F#4",
                    "midi": 66,
                    "time": 74.78098700000024,
                    "velocity": 0.5039370078740157,
                    "duration": 0.1094889999999964
                },
                {
                    "name": "F4",
                    "midi": 65,
                    "time": 74.89047600000023,
                    "velocity": 0.5039370078740157,
                    "duration": 0.1094889999999964
                },
                {
                    "name": "G#4",
                    "midi": 68,
                    "time": 74.99996500000023,
                    "velocity": 0.5039370078740157,
                    "duration": 0.1094889999999964
                },
                {
                    "name": "B4",
                    "midi": 71,
                    "time": 75.10945400000023,
                    "velocity": 0.5039370078740157,
                    "duration": 0.1094889999999964
                },
                {
                    "name": "D5",
                    "midi": 74,
                    "time": 75.21894300000022,
                    "velocity": 0.5039370078740157,
                    "duration": 0.1094889999999964
                },
                {
                    "name": "F#4",
                    "midi": 66,
                    "time": 75.32843200000022,
                    "velocity": 0.5039370078740157,
                    "duration": 0.1094889999999964
                },
                {
                    "name": "A#4",
                    "midi": 70,
                    "time": 75.43792100000022,
                    "velocity": 0.5039370078740157,
                    "duration": 0.1094889999999964
                },
                {
                    "name": "C#5",
                    "midi": 73,
                    "time": 75.54741000000021,
                    "velocity": 0.5039370078740157,
                    "duration": 0.1094889999999964
                },
                {
                    "name": "F#5",
                    "midi": 78,
                    "time": 75.65689900000021,
                    "velocity": 0.5039370078740157,
                    "duration": 0.1094889999999964
                },
                {
                    "name": "E4",
                    "midi": 64,
                    "time": 75.7663880000002,
                    "velocity": 0.5039370078740157,
                    "duration": 0.1094889999999964
                },
                {
                    "name": "A4",
                    "midi": 69,
                    "time": 75.8758770000002,
                    "velocity": 0.5039370078740157,
                    "duration": 0.1094889999999964
                },
                {
                    "name": "C#5",
                    "midi": 73,
                    "time": 75.9853660000002,
                    "velocity": 0.5039370078740157,
                    "duration": 0.1094889999999964
                },
                {
                    "name": "F#5",
                    "midi": 78,
                    "time": 76.0948550000002,
                    "velocity": 0.5039370078740157,
                    "duration": 0.1094889999999964
                },
                {
                    "name": "D4",
                    "midi": 62,
                    "time": 76.20434400000019,
                    "velocity": 0.5039370078740157,
                    "duration": 0.1094889999999964
                },
                {
                    "name": "F#4",
                    "midi": 66,
                    "time": 76.31383300000019,
                    "velocity": 0.5039370078740157,
                    "duration": 0.1094889999999964
                },
                {
                    "name": "B4",
                    "midi": 71,
                    "time": 76.42332200000018,
                    "velocity": 0.5039370078740157,
                    "duration": 0.1094889999999964
                },
                {
                    "name": "D5",
                    "midi": 74,
                    "time": 76.53281100000018,
                    "velocity": 0.5039370078740157,
                    "duration": 0.1094889999999964
                },
                {
                    "name": "E4",
                    "midi": 64,
                    "time": 76.64230000000018,
                    "velocity": 0.5039370078740157,
                    "duration": 0.1094889999999964
                },
                {
                    "name": "G4",
                    "midi": 67,
                    "time": 76.75178900000017,
                    "velocity": 0.5039370078740157,
                    "duration": 0.1094889999999964
                },
                {
                    "name": "B4",
                    "midi": 71,
                    "time": 76.86127800000017,
                    "velocity": 0.5039370078740157,
                    "duration": 0.1094889999999964
                },
                {
                    "name": "E5",
                    "midi": 76,
                    "time": 76.97076700000017,
                    "velocity": 0.5039370078740157,
                    "duration": 0.1094889999999964
                },
                {
                    "name": "F4",
                    "midi": 65,
                    "time": 77.08025600000016,
                    "velocity": 0.5039370078740157,
                    "duration": 0.1094889999999964
                },
                {
                    "name": "G#4",
                    "midi": 68,
                    "time": 77.18974500000016,
                    "velocity": 0.5039370078740157,
                    "duration": 0.1094889999999964
                },
                {
                    "name": "B4",
                    "midi": 71,
                    "time": 77.29923400000015,
                    "velocity": 0.5039370078740157,
                    "duration": 0.1094889999999964
                },
                {
                    "name": "D5",
                    "midi": 74,
                    "time": 77.40872300000015,
                    "velocity": 0.5039370078740157,
                    "duration": 0.1094889999999964
                },
                {
                    "name": "F#4",
                    "midi": 66,
                    "time": 77.51821200000015,
                    "velocity": 0.5039370078740157,
                    "duration": 0.1094889999999964
                },
                {
                    "name": "B4",
                    "midi": 71,
                    "time": 77.62770100000014,
                    "velocity": 0.5039370078740157,
                    "duration": 0.1094889999999964
                },
                {
                    "name": "D5",
                    "midi": 74,
                    "time": 77.73719000000014,
                    "velocity": 0.5039370078740157,
                    "duration": 0.1094889999999964
                },
                {
                    "name": "F#5",
                    "midi": 78,
                    "time": 77.84667900000014,
                    "velocity": 0.5039370078740157,
                    "duration": 0.1094889999999964
                },
                {
                    "name": "B5",
                    "midi": 83,
                    "time": 77.95616800000013,
                    "velocity": 0.5039370078740157,
                    "duration": 0.218978000000007
                },
                {
                    "name": "F#4",
                    "midi": 66,
                    "time": 78.17514600000014,
                    "velocity": 0.5039370078740157,
                    "duration": 0.1094889999999964
                },
                {
                    "name": "A#4",
                    "midi": 70,
                    "time": 78.28463500000014,
                    "velocity": 0.5039370078740157,
                    "duration": 0.1094889999999964
                },
                {
                    "name": "C#5",
                    "midi": 73,
                    "time": 78.39412400000013,
                    "velocity": 0.5039370078740157,
                    "duration": 0.1094889999999964
                },
                {
                    "name": "F#5",
                    "midi": 78,
                    "time": 78.50361300000013,
                    "velocity": 0.5039370078740157,
                    "duration": 0.1094889999999964
                },
                {
                    "name": "A#5",
                    "midi": 82,
                    "time": 78.61310200000013,
                    "velocity": 0.5039370078740157,
                    "duration": 0.218978000000007
                },
                {
                    "name": "B3",
                    "midi": 59,
                    "time": 79.48901400000014,
                    "velocity": 0.5039370078740157,
                    "duration": 0.03649633333333213
                },
                {
                    "name": "C#4",
                    "midi": 61,
                    "time": 79.52551033333347,
                    "velocity": 0.5039370078740157,
                    "duration": 0.03649633333333213
                },
                {
                    "name": "B3",
                    "midi": 59,
                    "time": 79.5620066666668,
                    "velocity": 0.5039370078740157,
                    "duration": 0.03649633333333213
                },
                {
                    "name": "A#3",
                    "midi": 58,
                    "time": 79.59850300000014,
                    "velocity": 0.5039370078740157,
                    "duration": 0.1094889999999964
                },
                {
                    "name": "B3",
                    "midi": 59,
                    "time": 79.70799200000013,
                    "velocity": 0.5039370078740157,
                    "duration": 0.1094889999999964
                },
                {
                    "name": "C#4",
                    "midi": 61,
                    "time": 79.81748100000013,
                    "velocity": 0.5039370078740157,
                    "duration": 0.1094889999999964
                },
                {
                    "name": "D4",
                    "midi": 62,
                    "time": 79.92697000000013,
                    "velocity": 0.5039370078740157,
                    "duration": 0.1094889999999964
                },
                {
                    "name": "C#4",
                    "midi": 61,
                    "time": 80.03645900000012,
                    "velocity": 0.5039370078740157,
                    "duration": 0.1094889999999964
                },
                {
                    "name": "B3",
                    "midi": 59,
                    "time": 80.14594800000012,
                    "velocity": 0.5039370078740157,
                    "duration": 0.03649633333333213
                },
                {
                    "name": "C#4",
                    "midi": 61,
                    "time": 80.18244433333345,
                    "velocity": 0.5039370078740157,
                    "duration": 0.03649633333333213
                },
                {
                    "name": "B3",
                    "midi": 59,
                    "time": 80.21894066666678,
                    "velocity": 0.5039370078740157,
                    "duration": 0.03649633333333213
                },
                {
                    "name": "A#3",
                    "midi": 58,
                    "time": 80.25543700000011,
                    "velocity": 0.5039370078740157,
                    "duration": 0.1094889999999964
                },
                {
                    "name": "B3",
                    "midi": 59,
                    "time": 80.36492600000011,
                    "velocity": 0.5039370078740157,
                    "duration": 0.1094889999999964
                },
                {
                    "name": "C#4",
                    "midi": 61,
                    "time": 80.4744150000001,
                    "velocity": 0.5039370078740157,
                    "duration": 0.1094889999999964
                },
                {
                    "name": "D4",
                    "midi": 62,
                    "time": 80.5839040000001,
                    "velocity": 0.5039370078740157,
                    "duration": 0.1094889999999964
                },
                {
                    "name": "E4",
                    "midi": 64,
                    "time": 80.6933930000001,
                    "velocity": 0.5039370078740157,
                    "duration": 0.1094889999999964
                },
                {
                    "name": "F#4",
                    "midi": 66,
                    "time": 80.8028820000001,
                    "velocity": 0.5039370078740157,
                    "duration": 0.03649633333333213
                },
                {
                    "name": "G4",
                    "midi": 67,
                    "time": 80.83937833333343,
                    "velocity": 0.5039370078740157,
                    "duration": 0.03649633333333213
                },
                {
                    "name": "F#4",
                    "midi": 66,
                    "time": 80.87587466666676,
                    "velocity": 0.5039370078740157,
                    "duration": 0.03649633333333213
                },
                {
                    "name": "F4",
                    "midi": 65,
                    "time": 80.91237100000009,
                    "velocity": 0.5039370078740157,
                    "duration": 0.1094889999999964
                },
                {
                    "name": "F#4",
                    "midi": 66,
                    "time": 81.02186000000009,
                    "velocity": 0.5039370078740157,
                    "duration": 0.1094889999999964
                },
                {
                    "name": "G#4",
                    "midi": 68,
                    "time": 81.13134900000009,
                    "velocity": 0.5039370078740157,
                    "duration": 0.1094889999999964
                },
                {
                    "name": "A#4",
                    "midi": 70,
                    "time": 81.24083800000008,
                    "velocity": 0.5039370078740157,
                    "duration": 0.1094889999999964
                },
                {
                    "name": "F#4",
                    "midi": 66,
                    "time": 81.35032700000008,
                    "velocity": 0.5039370078740157,
                    "duration": 0.1094889999999964
                },
                {
                    "name": "B4",
                    "midi": 71,
                    "time": 81.45981600000007,
                    "velocity": 0.5039370078740157,
                    "duration": 0.03649633333333213
                },
                {
                    "name": "C#5",
                    "midi": 73,
                    "time": 81.4963123333334,
                    "velocity": 0.5039370078740157,
                    "duration": 0.03649633333333213
                },
                {
                    "name": "B4",
                    "midi": 71,
                    "time": 81.53280866666674,
                    "velocity": 0.5039370078740157,
                    "duration": 0.03649633333333213
                },
                {
                    "name": "A#4",
                    "midi": 70,
                    "time": 81.56930500000007,
                    "velocity": 0.5039370078740157,
                    "duration": 0.1094889999999964
                },
                {
                    "name": "B4",
                    "midi": 71,
                    "time": 81.67879400000007,
                    "velocity": 0.5039370078740157,
                    "duration": 0.1094889999999964
                },
                {
                    "name": "C#5",
                    "midi": 73,
                    "time": 81.78828300000006,
                    "velocity": 0.5039370078740157,
                    "duration": 0.1094889999999964
                },
                {
                    "name": "D5",
                    "midi": 74,
                    "time": 81.89777200000006,
                    "velocity": 0.5039370078740157,
                    "duration": 0.1094889999999964
                },
                {
                    "name": "E5",
                    "midi": 76,
                    "time": 82.00726100000006,
                    "velocity": 0.5039370078740157,
                    "duration": 0.1094889999999964
                },
                {
                    "name": "F#5",
                    "midi": 78,
                    "time": 82.11675000000005,
                    "velocity": 0.5039370078740157,
                    "duration": 0.03649633333333213
                },
                {
                    "name": "G5",
                    "midi": 79,
                    "time": 82.15324633333339,
                    "velocity": 0.5039370078740157,
                    "duration": 0.03649633333333213
                },
                {
                    "name": "F#5",
                    "midi": 78,
                    "time": 82.18974266666672,
                    "velocity": 0.5039370078740157,
                    "duration": 0.03649633333333213
                },
                {
                    "name": "F5",
                    "midi": 77,
                    "time": 82.22623900000005,
                    "velocity": 0.5039370078740157,
                    "duration": 0.1094889999999964
                },
                {
                    "name": "F#5",
                    "midi": 78,
                    "time": 82.33572800000005,
                    "velocity": 0.5039370078740157,
                    "duration": 0.1094889999999964
                },
                {
                    "name": "G#5",
                    "midi": 80,
                    "time": 82.44521700000004,
                    "velocity": 0.5039370078740157,
                    "duration": 0.1094889999999964
                },
                {
                    "name": "A#5",
                    "midi": 82,
                    "time": 82.55470600000004,
                    "velocity": 0.5039370078740157,
                    "duration": 0.1094889999999964
                },
                {
                    "name": "F#5",
                    "midi": 78,
                    "time": 82.66419500000003,
                    "velocity": 0.5039370078740157,
                    "duration": 0.1094889999999964
                },
                {
                    "name": "B5",
                    "midi": 83,
                    "time": 82.77368400000003,
                    "velocity": 0.5039370078740157,
                    "duration": 0.03649633333333213
                },
                {
                    "name": "C#6",
                    "midi": 85,
                    "time": 82.81018033333336,
                    "velocity": 0.5039370078740157,
                    "duration": 0.03649633333333213
                },
                {
                    "name": "B5",
                    "midi": 83,
                    "time": 82.8466766666667,
                    "velocity": 0.5039370078740157,
                    "duration": 0.03649633333333213
                },
                {
                    "name": "A#5",
                    "midi": 82,
                    "time": 82.88317300000003,
                    "velocity": 0.5039370078740157,
                    "duration": 0.1094889999999964
                },
                {
                    "name": "B5",
                    "midi": 83,
                    "time": 82.99266200000002,
                    "velocity": 0.5039370078740157,
                    "duration": 0.1094889999999964
                },
                {
                    "name": "C#6",
                    "midi": 85,
                    "time": 83.10215100000002,
                    "velocity": 0.5039370078740157,
                    "duration": 0.1094889999999964
                },
                {
                    "name": "D6",
                    "midi": 86,
                    "time": 83.21164000000002,
                    "velocity": 0.5039370078740157,
                    "duration": 0.1094889999999964
                },
                {
                    "name": "E6",
                    "midi": 88,
                    "time": 83.32112900000001,
                    "velocity": 0.5039370078740157,
                    "duration": 0.1094889999999964
                },
                {
                    "name": "F#5",
                    "midi": 78,
                    "time": 83.43061800000001,
                    "velocity": 0.5039370078740157,
                    "duration": 0.2189779999999928
                },
                {
                    "name": "F#6",
                    "midi": 90,
                    "time": 83.46711433333334,
                    "velocity": 0.5039370078740157,
                    "duration": 0.18248166666666066
                },
                {
                    "name": "F#5",
                    "midi": 78,
                    "time": 83.649596,
                    "velocity": 0.5039370078740157,
                    "duration": 0.2189779999999928
                },
                {
                    "name": "F#6",
                    "midi": 90,
                    "time": 83.68609233333333,
                    "velocity": 0.5039370078740157,
                    "duration": 0.18248166666666066
                },
                {
                    "name": "F#5",
                    "midi": 78,
                    "time": 83.868574,
                    "velocity": 0.5039370078740157,
                    "duration": 0.2189779999999928
                },
                {
                    "name": "F#6",
                    "midi": 90,
                    "time": 83.90507033333333,
                    "velocity": 0.5039370078740157,
                    "duration": 0.18248166666666066
                },
                {
                    "name": "B4",
                    "midi": 71,
                    "time": 84.08755199999999,
                    "velocity": 0.5039370078740157,
                    "duration": 0.2189779999999928
                },
                {
                    "name": "B5",
                    "midi": 83,
                    "time": 84.12404833333332,
                    "velocity": 0.5039370078740157,
                    "duration": 0.18248166666666066
                },
                {
                    "name": "B3",
                    "midi": 59,
                    "time": 84.30652999999998,
                    "velocity": 0.5039370078740157,
                    "duration": 0.4379559999999998
                },
                {
                    "name": "A5",
                    "midi": 81,
                    "time": 85.40141999999999,
                    "velocity": 0.5039370078740157,
                    "duration": 0.03649633333333213
                },
                {
                    "name": "B5",
                    "midi": 83,
                    "time": 85.43791633333332,
                    "velocity": 0.5039370078740157,
                    "duration": 0.03649633333333213
                },
                {
                    "name": "A5",
                    "midi": 81,
                    "time": 85.47441266666665,
                    "velocity": 0.5039370078740157,
                    "duration": 0.03649633333333213
                },
                {
                    "name": "G#5",
                    "midi": 80,
                    "time": 85.51090899999998,
                    "velocity": 0.5039370078740157,
                    "duration": 0.1094889999999964
                },
                {
                    "name": "A5",
                    "midi": 81,
                    "time": 85.62039799999998,
                    "velocity": 0.5039370078740157,
                    "duration": 0.1094889999999964
                },
                {
                    "name": "F#5",
                    "midi": 78,
                    "time": 85.72988699999998,
                    "velocity": 0.5039370078740157,
                    "duration": 0.1094889999999964
                },
                {
                    "name": "D#5",
                    "midi": 75,
                    "time": 85.83937599999997,
                    "velocity": 0.5039370078740157,
                    "duration": 0.1094889999999964
                },
                {
                    "name": "B4",
                    "midi": 71,
                    "time": 85.94886499999997,
                    "velocity": 0.5039370078740157,
                    "duration": 0.1094889999999964
                },
                {
                    "name": "A4",
                    "midi": 69,
                    "time": 86.05835399999997,
                    "velocity": 0.5039370078740157,
                    "duration": 0.1094889999999964
                },
                {
                    "name": "F#4",
                    "midi": 66,
                    "time": 86.16784299999996,
                    "velocity": 0.5039370078740157,
                    "duration": 0.1094889999999964
                },
                {
                    "name": "D#4",
                    "midi": 63,
                    "time": 86.27733199999996,
                    "velocity": 0.5039370078740157,
                    "duration": 0.1094889999999964
                },
                {
                    "name": "B3",
                    "midi": 59,
                    "time": 86.38682099999996,
                    "velocity": 0.5039370078740157,
                    "duration": 0.1094889999999964
                },
                {
                    "name": "F#4",
                    "midi": 66,
                    "time": 86.49630999999995,
                    "velocity": 0.5039370078740157,
                    "duration": 0.1094889999999964
                },
                {
                    "name": "A4",
                    "midi": 69,
                    "time": 86.60579899999995,
                    "velocity": 0.5039370078740157,
                    "duration": 0.1094889999999964
                },
                {
                    "name": "G4",
                    "midi": 67,
                    "time": 86.71528799999994,
                    "velocity": 0.5039370078740157,
                    "duration": 0.03649633333333213
                },
                {
                    "name": "A4",
                    "midi": 69,
                    "time": 86.75178433333328,
                    "velocity": 0.5039370078740157,
                    "duration": 0.03649633333333213
                },
                {
                    "name": "G4",
                    "midi": 67,
                    "time": 86.78828066666661,
                    "velocity": 0.5039370078740157,
                    "duration": 0.03649633333333213
                },
                {
                    "name": "F#4",
                    "midi": 66,
                    "time": 86.82477699999994,
                    "velocity": 0.5039370078740157,
                    "duration": 0.1094889999999964
                },
                {
                    "name": "G4",
                    "midi": 67,
                    "time": 86.93426599999994,
                    "velocity": 0.5039370078740157,
                    "duration": 0.1094889999999964
                },
                {
                    "name": "E4",
                    "midi": 64,
                    "time": 87.04375499999993,
                    "velocity": 0.5039370078740157,
                    "duration": 0.1094889999999964
                },
                {
                    "name": "G4",
                    "midi": 67,
                    "time": 87.15324399999993,
                    "velocity": 0.5039370078740157,
                    "duration": 0.1094889999999964
                },
                {
                    "name": "B4",
                    "midi": 71,
                    "time": 87.26273299999993,
                    "velocity": 0.5039370078740157,
                    "duration": 0.1094889999999964
                },
                {
                    "name": "E5",
                    "midi": 76,
                    "time": 87.37222199999992,
                    "velocity": 0.5039370078740157,
                    "duration": 0.2189779999999928
                },
                {
                    "name": "E6",
                    "midi": 88,
                    "time": 87.40871833333325,
                    "velocity": 0.5039370078740157,
                    "duration": 0.18248166666666066
                },
                {
                    "name": "E5",
                    "midi": 76,
                    "time": 87.59119999999992,
                    "velocity": 0.5039370078740157,
                    "duration": 0.2189779999999928
                },
                {
                    "name": "E6",
                    "midi": 88,
                    "time": 87.62769633333325,
                    "velocity": 0.5039370078740157,
                    "duration": 0.18248166666666066
                },
                {
                    "name": "E5",
                    "midi": 76,
                    "time": 87.81017799999991,
                    "velocity": 0.5039370078740157,
                    "duration": 0.2189779999999928
                },
                {
                    "name": "E6",
                    "midi": 88,
                    "time": 87.84667433333324,
                    "velocity": 0.5039370078740157,
                    "duration": 0.18248166666666066
                },
                {
                    "name": "G5",
                    "midi": 79,
                    "time": 88.0291559999999,
                    "velocity": 0.5039370078740157,
                    "duration": 0.03649633333333213
                },
                {
                    "name": "A5",
                    "midi": 81,
                    "time": 88.06565233333323,
                    "velocity": 0.5039370078740157,
                    "duration": 0.03649633333333213
                },
                {
                    "name": "G5",
                    "midi": 79,
                    "time": 88.10214866666657,
                    "velocity": 0.5039370078740157,
                    "duration": 0.03649633333333213
                },
                {
                    "name": "F#5",
                    "midi": 78,
                    "time": 88.1386449999999,
                    "velocity": 0.5039370078740157,
                    "duration": 0.1094889999999964
                },
                {
                    "name": "G5",
                    "midi": 79,
                    "time": 88.2481339999999,
                    "velocity": 0.5039370078740157,
                    "duration": 0.1094889999999964
                },
                {
                    "name": "E5",
                    "midi": 76,
                    "time": 88.35762299999989,
                    "velocity": 0.5039370078740157,
                    "duration": 0.1094889999999964
                },
                {
                    "name": "C#5",
                    "midi": 73,
                    "time": 88.46711199999989,
                    "velocity": 0.5039370078740157,
                    "duration": 0.1094889999999964
                },
                {
                    "name": "A4",
                    "midi": 69,
                    "time": 88.57660099999988,
                    "velocity": 0.5039370078740157,
                    "duration": 0.1094889999999964
                },
                {
                    "name": "G4",
                    "midi": 67,
                    "time": 88.68608999999988,
                    "velocity": 0.5039370078740157,
                    "duration": 0.1094889999999964
                },
                {
                    "name": "E4",
                    "midi": 64,
                    "time": 88.79557899999988,
                    "velocity": 0.5039370078740157,
                    "duration": 0.1094889999999964
                },
                {
                    "name": "C#4",
                    "midi": 61,
                    "time": 88.90506799999987,
                    "velocity": 0.5039370078740157,
                    "duration": 0.1094889999999964
                },
                {
                    "name": "A3",
                    "midi": 57,
                    "time": 89.01455699999987,
                    "velocity": 0.5039370078740157,
                    "duration": 0.1094889999999964
                },
                {
                    "name": "E4",
                    "midi": 64,
                    "time": 89.12404599999986,
                    "velocity": 0.5039370078740157,
                    "duration": 0.1094889999999964
                },
                {
                    "name": "G4",
                    "midi": 67,
                    "time": 89.23353499999986,
                    "velocity": 0.5039370078740157,
                    "duration": 0.1094889999999964
                },
                {
                    "name": "F#4",
                    "midi": 66,
                    "time": 89.34302399999986,
                    "velocity": 0.5039370078740157,
                    "duration": 0.03649633333333213
                },
                {
                    "name": "G4",
                    "midi": 67,
                    "time": 89.37952033333319,
                    "velocity": 0.5039370078740157,
                    "duration": 0.03649633333333213
                },
                {
                    "name": "F#4",
                    "midi": 66,
                    "time": 89.41601666666652,
                    "velocity": 0.5039370078740157,
                    "duration": 0.03649633333333213
                },
                {
                    "name": "E4",
                    "midi": 64,
                    "time": 89.45251299999985,
                    "velocity": 0.5039370078740157,
                    "duration": 0.1094889999999964
                },
                {
                    "name": "F#4",
                    "midi": 66,
                    "time": 89.56200199999985,
                    "velocity": 0.5039370078740157,
                    "duration": 0.1094889999999964
                },
                {
                    "name": "D4",
                    "midi": 62,
                    "time": 89.67149099999985,
                    "velocity": 0.5039370078740157,
                    "duration": 0.1094889999999964
                },
                {
                    "name": "F#4",
                    "midi": 66,
                    "time": 89.78097999999984,
                    "velocity": 0.5039370078740157,
                    "duration": 0.1094889999999964
                },
                {
                    "name": "A4",
                    "midi": 69,
                    "time": 89.89046899999984,
                    "velocity": 0.5039370078740157,
                    "duration": 0.1094889999999964
                },
                {
                    "name": "D5",
                    "midi": 74,
                    "time": 89.99995799999984,
                    "velocity": 0.5039370078740157,
                    "duration": 0.2189779999999928
                },
                {
                    "name": "D6",
                    "midi": 86,
                    "time": 90.03645433333317,
                    "velocity": 0.5039370078740157,
                    "duration": 0.18248166666666066
                },
                {
                    "name": "D5",
                    "midi": 74,
                    "time": 90.21893599999983,
                    "velocity": 0.5039370078740157,
                    "duration": 0.2189779999999928
                },
                {
                    "name": "D6",
                    "midi": 86,
                    "time": 90.25543233333316,
                    "velocity": 0.5039370078740157,
                    "duration": 0.18248166666666066
                },
                {
                    "name": "D5",
                    "midi": 74,
                    "time": 90.43791399999982,
                    "velocity": 0.5039370078740157,
                    "duration": 0.2189779999999928
                },
                {
                    "name": "D6",
                    "midi": 86,
                    "time": 90.47441033333315,
                    "velocity": 0.5039370078740157,
                    "duration": 0.18248166666666066
                },
                {
                    "name": "B5",
                    "midi": 83,
                    "time": 90.65689199999981,
                    "velocity": 0.5039370078740157,
                    "duration": 0.03649633333333213
                },
                {
                    "name": "C#6",
                    "midi": 85,
                    "time": 90.69338833333315,
                    "velocity": 0.5039370078740157,
                    "duration": 0.03649633333333213
                },
                {
                    "name": "B5",
                    "midi": 83,
                    "time": 90.72988466666648,
                    "velocity": 0.5039370078740157,
                    "duration": 0.03649633333333213
                },
                {
                    "name": "A#5",
                    "midi": 82,
                    "time": 90.76638099999981,
                    "velocity": 0.5039370078740157,
                    "duration": 0.1094889999999964
                },
                {
                    "name": "B5",
                    "midi": 83,
                    "time": 90.87586999999981,
                    "velocity": 0.5039370078740157,
                    "duration": 0.1094889999999964
                },
                {
                    "name": "G4",
                    "midi": 67,
                    "time": 90.9853589999998,
                    "velocity": 0.5039370078740157,
                    "duration": 0.1094889999999964
                },
                {
                    "name": "G6",
                    "midi": 91,
                    "time": 91.0948479999998,
                    "velocity": 0.5039370078740157,
                    "duration": 0.1094889999999964
                },
                {
                    "name": "B5",
                    "midi": 83,
                    "time": 91.2043369999998,
                    "velocity": 0.5039370078740157,
                    "duration": 0.1094889999999964
                },
                {
                    "name": "A5",
                    "midi": 81,
                    "time": 91.31382599999979,
                    "velocity": 0.5039370078740157,
                    "duration": 0.03649633333333213
                },
                {
                    "name": "B5",
                    "midi": 83,
                    "time": 91.35032233333312,
                    "velocity": 0.5039370078740157,
                    "duration": 0.03649633333333213
                },
                {
                    "name": "A5",
                    "midi": 81,
                    "time": 91.38681866666646,
                    "velocity": 0.5039370078740157,
                    "duration": 0.03649633333333213
                },
                {
                    "name": "G#5",
                    "midi": 80,
                    "time": 91.42331499999979,
                    "velocity": 0.5039370078740157,
                    "duration": 0.1094889999999964
                },
                {
                    "name": "A5",
                    "midi": 81,
                    "time": 91.53280399999979,
                    "velocity": 0.5039370078740157,
                    "duration": 0.1094889999999964
                },
                {
                    "name": "F#4",
                    "midi": 66,
                    "time": 91.64229299999978,
                    "velocity": 0.5039370078740157,
                    "duration": 0.1094889999999964
                },
                {
                    "name": "F#6",
                    "midi": 90,
                    "time": 91.75178199999978,
                    "velocity": 0.5039370078740157,
                    "duration": 0.1094889999999964
                },
                {
                    "name": "A5",
                    "midi": 81,
                    "time": 91.86127099999977,
                    "velocity": 0.5039370078740157,
                    "duration": 0.1094889999999964
                },
                {
                    "name": "G5",
                    "midi": 79,
                    "time": 91.97075999999977,
                    "velocity": 0.5039370078740157,
                    "duration": 0.03649633333333213
                },
                {
                    "name": "A5",
                    "midi": 81,
                    "time": 92.0072563333331,
                    "velocity": 0.5039370078740157,
                    "duration": 0.03649633333333213
                },
                {
                    "name": "G5",
                    "midi": 79,
                    "time": 92.04375266666644,
                    "velocity": 0.5039370078740157,
                    "duration": 0.03649633333333213
                },
                {
                    "name": "F#5",
                    "midi": 78,
                    "time": 92.08024899999977,
                    "velocity": 0.5039370078740157,
                    "duration": 0.1094889999999964
                },
                {
                    "name": "G5",
                    "midi": 79,
                    "time": 92.18973799999976,
                    "velocity": 0.5039370078740157,
                    "duration": 0.1094889999999964
                },
                {
                    "name": "E4",
                    "midi": 64,
                    "time": 92.29922699999976,
                    "velocity": 0.5039370078740157,
                    "duration": 0.1094889999999964
                },
                {
                    "name": "E6",
                    "midi": 88,
                    "time": 92.40871599999976,
                    "velocity": 0.5039370078740157,
                    "duration": 0.1094889999999964
                },
                {
                    "name": "G5",
                    "midi": 79,
                    "time": 92.51820499999975,
                    "velocity": 0.5039370078740157,
                    "duration": 0.1094889999999964
                },
                {
                    "name": "F#5",
                    "midi": 78,
                    "time": 92.62769399999975,
                    "velocity": 0.5039370078740157,
                    "duration": 0.03649633333333213
                },
                {
                    "name": "G5",
                    "midi": 79,
                    "time": 92.66419033333308,
                    "velocity": 0.5039370078740157,
                    "duration": 0.03649633333333213
                },
                {
                    "name": "F#5",
                    "midi": 78,
                    "time": 92.70068666666641,
                    "velocity": 0.5039370078740157,
                    "duration": 0.03649633333333213
                },
                {
                    "name": "E5",
                    "midi": 76,
                    "time": 92.73718299999975,
                    "velocity": 0.5039370078740157,
                    "duration": 0.1094889999999964
                },
                {
                    "name": "F#5",
                    "midi": 78,
                    "time": 92.84667199999974,
                    "velocity": 0.5039370078740157,
                    "duration": 0.1094889999999964
                },
                {
                    "name": "D4",
                    "midi": 62,
                    "time": 92.95616099999974,
                    "velocity": 0.5039370078740157,
                    "duration": 0.1094889999999964
                },
                {
                    "name": "D6",
                    "midi": 86,
                    "time": 93.06564999999974,
                    "velocity": 0.5039370078740157,
                    "duration": 0.1094889999999964
                },
                {
                    "name": "F#5",
                    "midi": 78,
                    "time": 93.17513899999973,
                    "velocity": 0.5039370078740157,
                    "duration": 0.1094889999999964
                },
                {
                    "name": "E5",
                    "midi": 76,
                    "time": 93.28462799999973,
                    "velocity": 0.5039370078740157,
                    "duration": 0.03649633333333213
                },
                {
                    "name": "F#5",
                    "midi": 78,
                    "time": 93.32112433333306,
                    "velocity": 0.5039370078740157,
                    "duration": 0.03649633333333213
                },
                {
                    "name": "E5",
                    "midi": 76,
                    "time": 93.35762066666639,
                    "velocity": 0.5039370078740157,
                    "duration": 0.03649633333333213
                },
                {
                    "name": "D#5",
                    "midi": 75,
                    "time": 93.39411699999972,
                    "velocity": 0.5039370078740157,
                    "duration": 0.1094889999999964
                },
                {
                    "name": "E5",
                    "midi": 76,
                    "time": 93.50360599999972,
                    "velocity": 0.5039370078740157,
                    "duration": 0.1094889999999964
                },
                {
                    "name": "G3",
                    "midi": 55,
                    "time": 93.61309499999972,
                    "velocity": 0.5039370078740157,
                    "duration": 0.1094889999999964
                },
                {
                    "name": "G5",
                    "midi": 79,
                    "time": 93.72258399999971,
                    "velocity": 0.5039370078740157,
                    "duration": 0.1094889999999964
                },
                {
                    "name": "F#5",
                    "midi": 78,
                    "time": 93.83207299999971,
                    "velocity": 0.5039370078740157,
                    "duration": 0.1094889999999964
                },
                {
                    "name": "E5",
                    "midi": 76,
                    "time": 93.9415619999997,
                    "velocity": 0.5039370078740157,
                    "duration": 0.03649633333333213
                },
                {
                    "name": "F#5",
                    "midi": 78,
                    "time": 93.97805833333304,
                    "velocity": 0.5039370078740157,
                    "duration": 0.03649633333333213
                },
                {
                    "name": "E5",
                    "midi": 76,
                    "time": 94.01455466666637,
                    "velocity": 0.5039370078740157,
                    "duration": 0.03649633333333213
                },
                {
                    "name": "D5",
                    "midi": 74,
                    "time": 94.0510509999997,
                    "velocity": 0.5039370078740157,
                    "duration": 0.1094889999999964
                },
                {
                    "name": "E5",
                    "midi": 76,
                    "time": 94.1605399999997,
                    "velocity": 0.5039370078740157,
                    "duration": 0.1094889999999964
                },
                {
                    "name": "G#3",
                    "midi": 56,
                    "time": 94.2700289999997,
                    "velocity": 0.5039370078740157,
                    "duration": 0.1094889999999964
                },
                {
                    "name": "E5",
                    "midi": 76,
                    "time": 94.37951799999969,
                    "velocity": 0.5039370078740157,
                    "duration": 0.1094889999999964
                },
                {
                    "name": "D5",
                    "midi": 74,
                    "time": 94.48900699999969,
                    "velocity": 0.5039370078740157,
                    "duration": 0.1094889999999964
                },
                {
                    "name": "C#5",
                    "midi": 73,
                    "time": 94.59849599999968,
                    "velocity": 0.5039370078740157,
                    "duration": 0.03649633333333213
                },
                {
                    "name": "D5",
                    "midi": 74,
                    "time": 94.63499233333302,
                    "velocity": 0.5039370078740157,
                    "duration": 0.03649633333333213
                },
                {
                    "name": "C#5",
                    "midi": 73,
                    "time": 94.67148866666635,
                    "velocity": 0.5039370078740157,
                    "duration": 0.03649633333333213
                },
                {
                    "name": "B4",
                    "midi": 71,
                    "time": 94.70798499999968,
                    "velocity": 0.5039370078740157,
                    "duration": 0.1094889999999964
                },
                {
                    "name": "C#5",
                    "midi": 73,
                    "time": 94.81747399999968,
                    "velocity": 0.5039370078740157,
                    "duration": 0.1094889999999964
                },
                {
                    "name": "A3",
                    "midi": 57,
                    "time": 94.92696299999967,
                    "velocity": 0.5039370078740157,
                    "duration": 0.1094889999999964
                },
                {
                    "name": "C#4",
                    "midi": 61,
                    "time": 95.03645199999967,
                    "velocity": 0.5039370078740157,
                    "duration": 0.1094889999999964
                },
                {
                    "name": "E4",
                    "midi": 64,
                    "time": 95.14594099999967,
                    "velocity": 0.5039370078740157,
                    "duration": 0.1094889999999964
                },
                {
                    "name": "A5",
                    "midi": 81,
                    "time": 95.25542999999966,
                    "velocity": 0.5039370078740157,
                    "duration": 0.2189779999999928
                },
                {
                    "name": "A6",
                    "midi": 93,
                    "time": 95.291926333333,
                    "velocity": 0.5039370078740157,
                    "duration": 0.18248166666666066
                },
                {
                    "name": "A5",
                    "midi": 81,
                    "time": 95.47440799999966,
                    "velocity": 0.5039370078740157,
                    "duration": 0.2189779999999928
                },
                {
                    "name": "A6",
                    "midi": 93,
                    "time": 95.51090433333299,
                    "velocity": 0.5039370078740157,
                    "duration": 0.18248166666666066
                },
                {
                    "name": "A5",
                    "midi": 81,
                    "time": 95.69338599999965,
                    "velocity": 0.5039370078740157,
                    "duration": 0.2189779999999928
                },
                {
                    "name": "A6",
                    "midi": 93,
                    "time": 95.72988233333298,
                    "velocity": 0.5039370078740157,
                    "duration": 0.18248166666666066
                },
                {
                    "name": "D5",
                    "midi": 74,
                    "time": 95.91236399999964,
                    "velocity": 0.5039370078740157,
                    "duration": 0.03649633333333213
                },
                {
                    "name": "E5",
                    "midi": 76,
                    "time": 95.94886033333297,
                    "velocity": 0.5039370078740157,
                    "duration": 0.03649633333333213
                },
                {
                    "name": "D5",
                    "midi": 74,
                    "time": 95.9853566666663,
                    "velocity": 0.5039370078740157,
                    "duration": 0.03649633333333213
                },
                {
                    "name": "C#5",
                    "midi": 73,
                    "time": 96.02185299999964,
                    "velocity": 0.5039370078740157,
                    "duration": 0.1094889999999964
                },
                {
                    "name": "D5",
                    "midi": 74,
                    "time": 96.13134199999963,
                    "velocity": 0.5039370078740157,
                    "duration": 0.1094889999999964
                },
                {
                    "name": "A#3",
                    "midi": 58,
                    "time": 96.24083099999963,
                    "velocity": 0.5039370078740157,
                    "duration": 0.1094889999999964
                },
                {
                    "name": "D4",
                    "midi": 62,
                    "time": 96.35031999999963,
                    "velocity": 0.5039370078740157,
                    "duration": 0.1094889999999964
                },
                {
                    "name": "F4",
                    "midi": 65,
                    "time": 96.45980899999962,
                    "velocity": 0.5039370078740157,
                    "duration": 0.1094889999999964
                },
                {
                    "name": "G#5",
                    "midi": 80,
                    "time": 96.56929799999962,
                    "velocity": 0.5039370078740157,
                    "duration": 0.2189779999999928
                },
                {
                    "name": "G#6",
                    "midi": 92,
                    "time": 96.60579433333295,
                    "velocity": 0.5039370078740157,
                    "duration": 0.18248166666666066
                },
                {
                    "name": "G#5",
                    "midi": 80,
                    "time": 96.78827599999961,
                    "velocity": 0.5039370078740157,
                    "duration": 0.2189779999999928
                },
                {
                    "name": "G#6",
                    "midi": 92,
                    "time": 96.82477233333294,
                    "velocity": 0.5039370078740157,
                    "duration": 0.18248166666666066
                },
                {
                    "name": "G#5",
                    "midi": 80,
                    "time": 97.0072539999996,
                    "velocity": 0.5039370078740157,
                    "duration": 0.2189779999999928
                },
                {
                    "name": "G#6",
                    "midi": 92,
                    "time": 97.04375033333294,
                    "velocity": 0.5039370078740157,
                    "duration": 0.18248166666666066
                },
                {
                    "name": "C#5",
                    "midi": 73,
                    "time": 97.2262319999996,
                    "velocity": 0.5039370078740157,
                    "duration": 0.03649633333333213
                },
                {
                    "name": "D5",
                    "midi": 74,
                    "time": 97.26272833333293,
                    "velocity": 0.5039370078740157,
                    "duration": 0.03649633333333213
                },
                {
                    "name": "C#5",
                    "midi": 73,
                    "time": 97.29922466666626,
                    "velocity": 0.5039370078740157,
                    "duration": 0.03649633333333213
                },
                {
                    "name": "B4",
                    "midi": 71,
                    "time": 97.3357209999996,
                    "velocity": 0.5039370078740157,
                    "duration": 0.1094889999999964
                },
                {
                    "name": "C#5",
                    "midi": 73,
                    "time": 97.44520999999959,
                    "velocity": 0.5039370078740157,
                    "duration": 0.1094889999999964
                },
                {
                    "name": "A3",
                    "midi": 57,
                    "time": 97.55469899999959,
                    "velocity": 0.5039370078740157,
                    "duration": 0.1094889999999964
                },
                {
                    "name": "C#4",
                    "midi": 61,
                    "time": 97.66418799999958,
                    "velocity": 0.5039370078740157,
                    "duration": 0.1094889999999964
                },
                {
                    "name": "E4",
                    "midi": 64,
                    "time": 97.77367699999958,
                    "velocity": 0.5039370078740157,
                    "duration": 0.1094889999999964
                },
                {
                    "name": "A5",
                    "midi": 81,
                    "time": 97.88316599999958,
                    "velocity": 0.5039370078740157,
                    "duration": 0.2189779999999928
                },
                {
                    "name": "A6",
                    "midi": 93,
                    "time": 97.91966233333291,
                    "velocity": 0.5039370078740157,
                    "duration": 0.18248166666666066
                },
                {
                    "name": "A5",
                    "midi": 81,
                    "time": 98.10214399999957,
                    "velocity": 0.5039370078740157,
                    "duration": 0.2189779999999928
                },
                {
                    "name": "A6",
                    "midi": 93,
                    "time": 98.1386403333329,
                    "velocity": 0.5039370078740157,
                    "duration": 0.18248166666666066
                },
                {
                    "name": "A5",
                    "midi": 81,
                    "time": 98.32112199999956,
                    "velocity": 0.5039370078740157,
                    "duration": 0.2189779999999928
                },
                {
                    "name": "A6",
                    "midi": 93,
                    "time": 98.3576183333329,
                    "velocity": 0.5039370078740157,
                    "duration": 0.18248166666666066
                },
                {
                    "name": "D5",
                    "midi": 74,
                    "time": 98.54009999999955,
                    "velocity": 0.5039370078740157,
                    "duration": 0.03649633333333213
                },
                {
                    "name": "E5",
                    "midi": 76,
                    "time": 98.57659633333289,
                    "velocity": 0.5039370078740157,
                    "duration": 0.03649633333333213
                },
                {
                    "name": "D5",
                    "midi": 74,
                    "time": 98.61309266666622,
                    "velocity": 0.5039370078740157,
                    "duration": 0.03649633333333213
                },
                {
                    "name": "C#5",
                    "midi": 73,
                    "time": 98.64958899999955,
                    "velocity": 0.5039370078740157,
                    "duration": 0.1094889999999964
                },
                {
                    "name": "D5",
                    "midi": 74,
                    "time": 98.75907799999955,
                    "velocity": 0.5039370078740157,
                    "duration": 0.1094889999999964
                },
                {
                    "name": "A#3",
                    "midi": 58,
                    "time": 98.86856699999954,
                    "velocity": 0.5039370078740157,
                    "duration": 0.1094889999999964
                },
                {
                    "name": "D4",
                    "midi": 62,
                    "time": 98.97805599999954,
                    "velocity": 0.5039370078740157,
                    "duration": 0.1094889999999964
                },
                {
                    "name": "F4",
                    "midi": 65,
                    "time": 99.08754499999954,
                    "velocity": 0.5039370078740157,
                    "duration": 0.1094889999999964
                },
                {
                    "name": "G#5",
                    "midi": 80,
                    "time": 99.19703399999953,
                    "velocity": 0.5039370078740157,
                    "duration": 0.2189779999999928
                },
                {
                    "name": "G#6",
                    "midi": 92,
                    "time": 99.23353033333287,
                    "velocity": 0.5039370078740157,
                    "duration": 0.18248166666666066
                },
                {
                    "name": "G#5",
                    "midi": 80,
                    "time": 99.41601199999953,
                    "velocity": 0.5039370078740157,
                    "duration": 0.2189779999999928
                },
                {
                    "name": "G#6",
                    "midi": 92,
                    "time": 99.45250833333286,
                    "velocity": 0.5039370078740157,
                    "duration": 0.18248166666666066
                },
                {
                    "name": "G#5",
                    "midi": 80,
                    "time": 99.63498999999952,
                    "velocity": 0.5039370078740157,
                    "duration": 0.2189779999999928
                },
                {
                    "name": "G#6",
                    "midi": 92,
                    "time": 99.67148633333285,
                    "velocity": 0.5039370078740157,
                    "duration": 0.18248166666666066
                },
                {
                    "name": "C#5",
                    "midi": 73,
                    "time": 99.85396799999951,
                    "velocity": 0.5039370078740157,
                    "duration": 0.03649633333333213
                },
                {
                    "name": "D5",
                    "midi": 74,
                    "time": 99.89046433333284,
                    "velocity": 0.5039370078740157,
                    "duration": 0.03649633333333213
                },
                {
                    "name": "C#5",
                    "midi": 73,
                    "time": 99.92696066666618,
                    "velocity": 0.5039370078740157,
                    "duration": 0.03649633333333213
                },
                {
                    "name": "B4",
                    "midi": 71,
                    "time": 99.96345699999951,
                    "velocity": 0.5039370078740157,
                    "duration": 0.1094889999999964
                },
                {
                    "name": "C#5",
                    "midi": 73,
                    "time": 100.0729459999995,
                    "velocity": 0.5039370078740157,
                    "duration": 0.1094889999999964
                },
                {
                    "name": "A4",
                    "midi": 69,
                    "time": 100.1824349999995,
                    "velocity": 0.5039370078740157,
                    "duration": 0.1094889999999964
                },
                {
                    "name": "E4",
                    "midi": 64,
                    "time": 100.2919239999995,
                    "velocity": 0.5039370078740157,
                    "duration": 0.1094889999999964
                },
                {
                    "name": "C#4",
                    "midi": 61,
                    "time": 100.4014129999995,
                    "velocity": 0.5039370078740157,
                    "duration": 0.1094889999999964
                },
                {
                    "name": "A4",
                    "midi": 69,
                    "time": 100.51090199999949,
                    "velocity": 0.5039370078740157,
                    "duration": 0.03649633333333213
                },
                {
                    "name": "B4",
                    "midi": 71,
                    "time": 100.54739833333282,
                    "velocity": 0.5039370078740157,
                    "duration": 0.03649633333333213
                },
                {
                    "name": "A4",
                    "midi": 69,
                    "time": 100.58389466666615,
                    "velocity": 0.5039370078740157,
                    "duration": 0.03649633333333213
                },
                {
                    "name": "G#4",
                    "midi": 68,
                    "time": 100.62039099999949,
                    "velocity": 0.5039370078740157,
                    "duration": 0.1094889999999964
                },
                {
                    "name": "A4",
                    "midi": 69,
                    "time": 100.72987999999948,
                    "velocity": 0.5039370078740157,
                    "duration": 0.1094889999999964
                },
                {
                    "name": "E4",
                    "midi": 64,
                    "time": 100.83936899999948,
                    "velocity": 0.5039370078740157,
                    "duration": 0.1094889999999964
                },
                {
                    "name": "C#4",
                    "midi": 61,
                    "time": 100.94885799999948,
                    "velocity": 0.5039370078740157,
                    "duration": 0.1094889999999964
                },
                {
                    "name": "A3",
                    "midi": 57,
                    "time": 101.05834699999947,
                    "velocity": 0.5039370078740157,
                    "duration": 0.1094889999999964
                },
                {
                    "name": "C#5",
                    "midi": 73,
                    "time": 101.16783599999947,
                    "velocity": 0.5039370078740157,
                    "duration": 0.03649633333333213
                },
                {
                    "name": "D5",
                    "midi": 74,
                    "time": 101.2043323333328,
                    "velocity": 0.5039370078740157,
                    "duration": 0.03649633333333213
                },
                {
                    "name": "C#5",
                    "midi": 73,
                    "time": 101.24082866666613,
                    "velocity": 0.5039370078740157,
                    "duration": 0.03649633333333213
                },
                {
                    "name": "B4",
                    "midi": 71,
                    "time": 101.27732499999946,
                    "velocity": 0.5039370078740157,
                    "duration": 0.1094889999999964
                },
                {
                    "name": "C#5",
                    "midi": 73,
                    "time": 101.38681399999946,
                    "velocity": 0.5039370078740157,
                    "duration": 0.1094889999999964
                },
                {
                    "name": "A4",
                    "midi": 69,
                    "time": 101.49630299999946,
                    "velocity": 0.5039370078740157,
                    "duration": 0.1094889999999964
                },
                {
                    "name": "E4",
                    "midi": 64,
                    "time": 101.60579199999945,
                    "velocity": 0.5039370078740157,
                    "duration": 0.1094889999999964
                },
                {
                    "name": "C#4",
                    "midi": 61,
                    "time": 101.71528099999945,
                    "velocity": 0.5039370078740157,
                    "duration": 0.1094889999999964
                },
                {
                    "name": "A4",
                    "midi": 69,
                    "time": 101.82476999999945,
                    "velocity": 0.5039370078740157,
                    "duration": 0.03649633333333213
                },
                {
                    "name": "B4",
                    "midi": 71,
                    "time": 101.86126633333278,
                    "velocity": 0.5039370078740157,
                    "duration": 0.03649633333333213
                },
                {
                    "name": "A4",
                    "midi": 69,
                    "time": 101.89776266666611,
                    "velocity": 0.5039370078740157,
                    "duration": 0.03649633333333213
                },
                {
                    "name": "G#4",
                    "midi": 68,
                    "time": 101.93425899999944,
                    "velocity": 0.5039370078740157,
                    "duration": 0.1094889999999964
                },
                {
                    "name": "A4",
                    "midi": 69,
                    "time": 102.04374799999944,
                    "velocity": 0.5039370078740157,
                    "duration": 0.1094889999999964
                },
                {
                    "name": "E4",
                    "midi": 64,
                    "time": 102.15323699999944,
                    "velocity": 0.5039370078740157,
                    "duration": 0.1094889999999964
                },
                {
                    "name": "C#4",
                    "midi": 61,
                    "time": 102.26272599999943,
                    "velocity": 0.5039370078740157,
                    "duration": 0.1094889999999964
                },
                {
                    "name": "A3",
                    "midi": 57,
                    "time": 102.37221499999943,
                    "velocity": 0.5039370078740157,
                    "duration": 0.1094889999999964
                },
                {
                    "name": "A#3",
                    "midi": 58,
                    "time": 102.48170399999943,
                    "velocity": 0.5039370078740157,
                    "duration": 0.2189779999999928
                },
                {
                    "name": "A#4",
                    "midi": 70,
                    "time": 102.51820033333276,
                    "velocity": 0.5039370078740157,
                    "duration": 0.18248166666666066
                },
                {
                    "name": "A#3",
                    "midi": 58,
                    "time": 102.70068199999942,
                    "velocity": 0.5039370078740157,
                    "duration": 0.2189779999999928
                },
                {
                    "name": "A#4",
                    "midi": 70,
                    "time": 102.73717833333275,
                    "velocity": 0.5039370078740157,
                    "duration": 0.18248166666666066
                },
                {
                    "name": "A#3",
                    "midi": 58,
                    "time": 102.91965999999941,
                    "velocity": 0.5039370078740157,
                    "duration": 0.2189779999999928
                },
                {
                    "name": "A#4",
                    "midi": 70,
                    "time": 102.95615633333274,
                    "velocity": 0.5039370078740157,
                    "duration": 0.18248166666666066
                },
                {
                    "name": "D4",
                    "midi": 62,
                    "time": 103.1386379999994,
                    "velocity": 0.5039370078740157,
                    "duration": 0.2189779999999928
                },
                {
                    "name": "D5",
                    "midi": 74,
                    "time": 103.17513433333274,
                    "velocity": 0.5039370078740157,
                    "duration": 0.18248166666666066
                },
                {
                    "name": "D4",
                    "midi": 62,
                    "time": 103.3576159999994,
                    "velocity": 0.5039370078740157,
                    "duration": 0.2189779999999928
                },
                {
                    "name": "D5",
                    "midi": 74,
                    "time": 103.39411233333273,
                    "velocity": 0.5039370078740157,
                    "duration": 0.18248166666666066
                },
                {
                    "name": "D4",
                    "midi": 62,
                    "time": 103.57659399999939,
                    "velocity": 0.5039370078740157,
                    "duration": 0.2189779999999928
                },
                {
                    "name": "D5",
                    "midi": 74,
                    "time": 103.61309033333272,
                    "velocity": 0.5039370078740157,
                    "duration": 0.18248166666666066
                },
                {
                    "name": "F4",
                    "midi": 65,
                    "time": 103.79557199999938,
                    "velocity": 0.5039370078740157,
                    "duration": 0.2189779999999928
                },
                {
                    "name": "F5",
                    "midi": 77,
                    "time": 103.83206833333271,
                    "velocity": 0.5039370078740157,
                    "duration": 0.18248166666666066
                },
                {
                    "name": "F4",
                    "midi": 65,
                    "time": 104.01454999999937,
                    "velocity": 0.5039370078740157,
                    "duration": 0.2189779999999928
                },
                {
                    "name": "F5",
                    "midi": 77,
                    "time": 104.0510463333327,
                    "velocity": 0.5039370078740157,
                    "duration": 0.18248166666666066
                },
                {
                    "name": "F4",
                    "midi": 65,
                    "time": 104.23352799999937,
                    "velocity": 0.5039370078740157,
                    "duration": 0.2189779999999928
                },
                {
                    "name": "F5",
                    "midi": 77,
                    "time": 104.2700243333327,
                    "velocity": 0.5039370078740157,
                    "duration": 0.18248166666666066
                },
                {
                    "name": "A#4",
                    "midi": 70,
                    "time": 104.45250599999936,
                    "velocity": 0.5039370078740157,
                    "duration": 0.2189779999999928
                },
                {
                    "name": "A#5",
                    "midi": 82,
                    "time": 104.48900233333269,
                    "velocity": 0.5039370078740157,
                    "duration": 0.18248166666666066
                },
                {
                    "name": "F5",
                    "midi": 77,
                    "time": 104.67148399999935,
                    "velocity": 0.5039370078740157,
                    "duration": 0.1094889999999964
                },
                {
                    "name": "D5",
                    "midi": 74,
                    "time": 104.78097299999935,
                    "velocity": 0.5039370078740157,
                    "duration": 0.1094889999999964
                },
                {
                    "name": "A#4",
                    "midi": 70,
                    "time": 104.89046199999935,
                    "velocity": 0.5039370078740157,
                    "duration": 0.1094889999999964
                },
                {
                    "name": "A4",
                    "midi": 69,
                    "time": 104.99995099999934,
                    "velocity": 0.5039370078740157,
                    "duration": 0.1094889999999964
                },
                {
                    "name": "G#4",
                    "midi": 68,
                    "time": 105.10943999999934,
                    "velocity": 0.5039370078740157,
                    "duration": 0.1094889999999964
                },
                {
                    "name": "B4",
                    "midi": 71,
                    "time": 105.21892899999933,
                    "velocity": 0.5039370078740157,
                    "duration": 0.1094889999999964
                },
                {
                    "name": "D5",
                    "midi": 74,
                    "time": 105.32841799999933,
                    "velocity": 0.5039370078740157,
                    "duration": 0.1094889999999964
                },
                {
                    "name": "F5",
                    "midi": 77,
                    "time": 105.43790699999933,
                    "velocity": 0.5039370078740157,
                    "duration": 0.1094889999999964
                },
                {
                    "name": "A4",
                    "midi": 69,
                    "time": 105.54739599999932,
                    "velocity": 0.5039370078740157,
                    "duration": 0.1094889999999964
                },
                {
                    "name": "C#5",
                    "midi": 73,
                    "time": 105.65688499999932,
                    "velocity": 0.5039370078740157,
                    "duration": 0.1094889999999964
                },
                {
                    "name": "E5",
                    "midi": 76,
                    "time": 105.76637399999932,
                    "velocity": 0.5039370078740157,
                    "duration": 0.1094889999999964
                },
                {
                    "name": "A5",
                    "midi": 81,
                    "time": 105.87586299999931,
                    "velocity": 0.5039370078740157,
                    "duration": 0.1094889999999964
                },
                {
                    "name": "E5",
                    "midi": 76,
                    "time": 105.98535199999931,
                    "velocity": 0.5039370078740157,
                    "duration": 0.1094889999999964
                },
                {
                    "name": "C5",
                    "midi": 72,
                    "time": 106.0948409999993,
                    "velocity": 0.5039370078740157,
                    "duration": 0.1094889999999964
                },
                {
                    "name": "A4",
                    "midi": 69,
                    "time": 106.2043299999993,
                    "velocity": 0.5039370078740157,
                    "duration": 0.1094889999999964
                },
                {
                    "name": "G4",
                    "midi": 67,
                    "time": 106.3138189999993,
                    "velocity": 0.5039370078740157,
                    "duration": 0.1094889999999964
                },
                {
                    "name": "F#4",
                    "midi": 66,
                    "time": 106.4233079999993,
                    "velocity": 0.5039370078740157,
                    "duration": 0.1094889999999964
                },
                {
                    "name": "A4",
                    "midi": 69,
                    "time": 106.53279699999929,
                    "velocity": 0.5039370078740157,
                    "duration": 0.1094889999999964
                },
                {
                    "name": "D5",
                    "midi": 74,
                    "time": 106.64228599999929,
                    "velocity": 0.5039370078740157,
                    "duration": 0.1094889999999964
                },
                {
                    "name": "F#5",
                    "midi": 78,
                    "time": 106.75177499999928,
                    "velocity": 0.5039370078740157,
                    "duration": 0.1094889999999964
                },
                {
                    "name": "G4",
                    "midi": 67,
                    "time": 106.86126399999928,
                    "velocity": 0.5039370078740157,
                    "duration": 0.1094889999999964
                },
                {
                    "name": "B4",
                    "midi": 71,
                    "time": 106.97075299999928,
                    "velocity": 0.5039370078740157,
                    "duration": 0.1094889999999964
                },
                {
                    "name": "D5",
                    "midi": 74,
                    "time": 107.08024199999927,
                    "velocity": 0.5039370078740157,
                    "duration": 0.1094889999999964
                },
                {
                    "name": "G5",
                    "midi": 79,
                    "time": 107.18973099999927,
                    "velocity": 0.5039370078740157,
                    "duration": 0.1094889999999964
                },
                {
                    "name": "D5",
                    "midi": 74,
                    "time": 107.29921999999927,
                    "velocity": 0.5039370078740157,
                    "duration": 0.1094889999999964
                },
                {
                    "name": "B4",
                    "midi": 71,
                    "time": 107.40870899999926,
                    "velocity": 0.5039370078740157,
                    "duration": 0.1094889999999964
                },
                {
                    "name": "G4",
                    "midi": 67,
                    "time": 107.51819799999926,
                    "velocity": 0.5039370078740157,
                    "duration": 0.1094889999999964
                },
                {
                    "name": "F#4",
                    "midi": 66,
                    "time": 107.62768699999926,
                    "velocity": 0.5039370078740157,
                    "duration": 0.1094889999999964
                },
                {
                    "name": "F4",
                    "midi": 65,
                    "time": 107.73717599999925,
                    "velocity": 0.5039370078740157,
                    "duration": 0.1094889999999964
                },
                {
                    "name": "G#4",
                    "midi": 68,
                    "time": 107.84666499999925,
                    "velocity": 0.5039370078740157,
                    "duration": 0.1094889999999964
                },
                {
                    "name": "B4",
                    "midi": 71,
                    "time": 107.95615399999924,
                    "velocity": 0.5039370078740157,
                    "duration": 0.1094889999999964
                },
                {
                    "name": "D5",
                    "midi": 74,
                    "time": 108.06564299999924,
                    "velocity": 0.5039370078740157,
                    "duration": 0.1094889999999964
                },
                {
                    "name": "F#4",
                    "midi": 66,
                    "time": 108.17513199999924,
                    "velocity": 0.5039370078740157,
                    "duration": 0.1094889999999964
                },
                {
                    "name": "A#4",
                    "midi": 70,
                    "time": 108.28462099999923,
                    "velocity": 0.5039370078740157,
                    "duration": 0.1094889999999964
                },
                {
                    "name": "C#5",
                    "midi": 73,
                    "time": 108.39410999999923,
                    "velocity": 0.5039370078740157,
                    "duration": 0.1094889999999964
                },
                {
                    "name": "F#5",
                    "midi": 78,
                    "time": 108.50359899999923,
                    "velocity": 0.5039370078740157,
                    "duration": 0.1094889999999964
                },
                {
                    "name": "E4",
                    "midi": 64,
                    "time": 108.61308799999922,
                    "velocity": 0.5039370078740157,
                    "duration": 0.1094889999999964
                },
                {
                    "name": "A4",
                    "midi": 69,
                    "time": 108.72257699999922,
                    "velocity": 0.5039370078740157,
                    "duration": 0.1094889999999964
                },
                {
                    "name": "C#5",
                    "midi": 73,
                    "time": 108.83206599999922,
                    "velocity": 0.5039370078740157,
                    "duration": 0.1094889999999964
                },
                {
                    "name": "F#5",
                    "midi": 78,
                    "time": 108.94155499999921,
                    "velocity": 0.5039370078740157,
                    "duration": 0.1094889999999964
                },
                {
                    "name": "D4",
                    "midi": 62,
                    "time": 109.05104399999921,
                    "velocity": 0.5039370078740157,
                    "duration": 0.1094889999999964
                },
                {
                    "name": "F#4",
                    "midi": 66,
                    "time": 109.1605329999992,
                    "velocity": 0.5039370078740157,
                    "duration": 0.1094889999999964
                },
                {
                    "name": "B4",
                    "midi": 71,
                    "time": 109.2700219999992,
                    "velocity": 0.5039370078740157,
                    "duration": 0.1094889999999964
                },
                {
                    "name": "D5",
                    "midi": 74,
                    "time": 109.3795109999992,
                    "velocity": 0.5039370078740157,
                    "duration": 0.1094889999999964
                },
                {
                    "name": "E4",
                    "midi": 64,
                    "time": 109.4889999999992,
                    "velocity": 0.5039370078740157,
                    "duration": 0.1094889999999964
                },
                {
                    "name": "G4",
                    "midi": 67,
                    "time": 109.59848899999919,
                    "velocity": 0.5039370078740157,
                    "duration": 0.1094889999999964
                },
                {
                    "name": "B4",
                    "midi": 71,
                    "time": 109.70797799999919,
                    "velocity": 0.5039370078740157,
                    "duration": 0.1094889999999964
                },
                {
                    "name": "E5",
                    "midi": 76,
                    "time": 109.81746699999918,
                    "velocity": 0.5039370078740157,
                    "duration": 0.1094889999999964
                },
                {
                    "name": "F4",
                    "midi": 65,
                    "time": 109.92695599999918,
                    "velocity": 0.5039370078740157,
                    "duration": 0.1094889999999964
                },
                {
                    "name": "G#4",
                    "midi": 68,
                    "time": 110.03644499999918,
                    "velocity": 0.5039370078740157,
                    "duration": 0.1094889999999964
                },
                {
                    "name": "B4",
                    "midi": 71,
                    "time": 110.14593399999917,
                    "velocity": 0.5039370078740157,
                    "duration": 0.1094889999999964
                },
                {
                    "name": "D5",
                    "midi": 74,
                    "time": 110.25542299999917,
                    "velocity": 0.5039370078740157,
                    "duration": 0.1094889999999964
                },
                {
                    "name": "F#4",
                    "midi": 66,
                    "time": 110.36491199999917,
                    "velocity": 0.5039370078740157,
                    "duration": 0.1094889999999964
                },
                {
                    "name": "B4",
                    "midi": 71,
                    "time": 110.47440099999916,
                    "velocity": 0.5039370078740157,
                    "duration": 0.1094889999999964
                },
                {
                    "name": "D5",
                    "midi": 74,
                    "time": 110.58388999999916,
                    "velocity": 0.5039370078740157,
                    "duration": 0.1094889999999964
                },
                {
                    "name": "F#5",
                    "midi": 78,
                    "time": 110.69337899999915,
                    "velocity": 0.5039370078740157,
                    "duration": 0.1094889999999964
                },
                {
                    "name": "B5",
                    "midi": 83,
                    "time": 110.80286799999915,
                    "velocity": 0.5039370078740157,
                    "duration": 0.218978000000007
                },
                {
                    "name": "F#4",
                    "midi": 66,
                    "time": 111.02184599999916,
                    "velocity": 0.5039370078740157,
                    "duration": 0.1094889999999964
                },
                {
                    "name": "A#4",
                    "midi": 70,
                    "time": 111.13133499999915,
                    "velocity": 0.5039370078740157,
                    "duration": 0.1094889999999964
                },
                {
                    "name": "C#5",
                    "midi": 73,
                    "time": 111.24082399999915,
                    "velocity": 0.5039370078740157,
                    "duration": 0.1094889999999964
                },
                {
                    "name": "F#5",
                    "midi": 78,
                    "time": 111.35031299999915,
                    "velocity": 0.5039370078740157,
                    "duration": 0.1094889999999964
                },
                {
                    "name": "A#5",
                    "midi": 82,
                    "time": 111.45980199999914,
                    "velocity": 0.5039370078740157,
                    "duration": 0.218978000000007
                },
                {
                    "name": "B3",
                    "midi": 59,
                    "time": 112.33571399999916,
                    "velocity": 0.5039370078740157,
                    "duration": 0.03649633333333213
                },
                {
                    "name": "C#4",
                    "midi": 61,
                    "time": 112.37221033333249,
                    "velocity": 0.5039370078740157,
                    "duration": 0.03649633333333213
                },
                {
                    "name": "B3",
                    "midi": 59,
                    "time": 112.40870666666582,
                    "velocity": 0.5039370078740157,
                    "duration": 0.03649633333333213
                },
                {
                    "name": "A#3",
                    "midi": 58,
                    "time": 112.44520299999915,
                    "velocity": 0.5039370078740157,
                    "duration": 0.1094889999999964
                },
                {
                    "name": "B3",
                    "midi": 59,
                    "time": 112.55469199999915,
                    "velocity": 0.5039370078740157,
                    "duration": 0.1094889999999964
                },
                {
                    "name": "C#4",
                    "midi": 61,
                    "time": 112.66418099999915,
                    "velocity": 0.5039370078740157,
                    "duration": 0.1094889999999964
                },
                {
                    "name": "D4",
                    "midi": 62,
                    "time": 112.77366999999914,
                    "velocity": 0.5039370078740157,
                    "duration": 0.1094889999999964
                },
                {
                    "name": "C#4",
                    "midi": 61,
                    "time": 112.88315899999914,
                    "velocity": 0.5039370078740157,
                    "duration": 0.1094889999999964
                },
                {
                    "name": "B3",
                    "midi": 59,
                    "time": 112.99264799999914,
                    "velocity": 0.5039370078740157,
                    "duration": 0.03649633333333213
                },
                {
                    "name": "C#4",
                    "midi": 61,
                    "time": 113.02914433333247,
                    "velocity": 0.5039370078740157,
                    "duration": 0.03649633333333213
                },
                {
                    "name": "B3",
                    "midi": 59,
                    "time": 113.0656406666658,
                    "velocity": 0.5039370078740157,
                    "duration": 0.03649633333333213
                },
                {
                    "name": "A#3",
                    "midi": 58,
                    "time": 113.10213699999913,
                    "velocity": 0.5039370078740157,
                    "duration": 0.1094889999999964
                },
                {
                    "name": "B3",
                    "midi": 59,
                    "time": 113.21162599999913,
                    "velocity": 0.5039370078740157,
                    "duration": 0.1094889999999964
                },
                {
                    "name": "C#4",
                    "midi": 61,
                    "time": 113.32111499999912,
                    "velocity": 0.5039370078740157,
                    "duration": 0.1094889999999964
                },
                {
                    "name": "D4",
                    "midi": 62,
                    "time": 113.43060399999912,
                    "velocity": 0.5039370078740157,
                    "duration": 0.1094889999999964
                },
                {
                    "name": "E4",
                    "midi": 64,
                    "time": 113.54009299999912,
                    "velocity": 0.5039370078740157,
                    "duration": 0.1094889999999964
                },
                {
                    "name": "F#4",
                    "midi": 66,
                    "time": 113.64958199999911,
                    "velocity": 0.5039370078740157,
                    "duration": 0.03649633333333213
                },
                {
                    "name": "G4",
                    "midi": 67,
                    "time": 113.68607833333245,
                    "velocity": 0.5039370078740157,
                    "duration": 0.03649633333333213
                },
                {
                    "name": "F#4",
                    "midi": 66,
                    "time": 113.72257466666578,
                    "velocity": 0.5039370078740157,
                    "duration": 0.03649633333333213
                },
                {
                    "name": "F4",
                    "midi": 65,
                    "time": 113.75907099999911,
                    "velocity": 0.5039370078740157,
                    "duration": 0.1094889999999964
                },
                {
                    "name": "F#4",
                    "midi": 66,
                    "time": 113.8685599999991,
                    "velocity": 0.5039370078740157,
                    "duration": 0.1094889999999964
                },
                {
                    "name": "G#4",
                    "midi": 68,
                    "time": 113.9780489999991,
                    "velocity": 0.5039370078740157,
                    "duration": 0.1094889999999964
                },
                {
                    "name": "A#4",
                    "midi": 70,
                    "time": 114.0875379999991,
                    "velocity": 0.5039370078740157,
                    "duration": 0.1094889999999964
                },
                {
                    "name": "F#4",
                    "midi": 66,
                    "time": 114.1970269999991,
                    "velocity": 0.5039370078740157,
                    "duration": 0.1094889999999964
                },
                {
                    "name": "B4",
                    "midi": 71,
                    "time": 114.30651599999909,
                    "velocity": 0.5039370078740157,
                    "duration": 0.03649633333333213
                },
                {
                    "name": "C#5",
                    "midi": 73,
                    "time": 114.34301233333242,
                    "velocity": 0.5039370078740157,
                    "duration": 0.03649633333333213
                },
                {
                    "name": "B4",
                    "midi": 71,
                    "time": 114.37950866666576,
                    "velocity": 0.5039370078740157,
                    "duration": 0.03649633333333213
                },
                {
                    "name": "A#4",
                    "midi": 70,
                    "time": 114.41600499999909,
                    "velocity": 0.5039370078740157,
                    "duration": 0.1094889999999964
                },
                {
                    "name": "B4",
                    "midi": 71,
                    "time": 114.52549399999909,
                    "velocity": 0.5039370078740157,
                    "duration": 0.1094889999999964
                },
                {
                    "name": "C#5",
                    "midi": 73,
                    "time": 114.63498299999908,
                    "velocity": 0.5039370078740157,
                    "duration": 0.1094889999999964
                },
                {
                    "name": "D5",
                    "midi": 74,
                    "time": 114.74447199999908,
                    "velocity": 0.5039370078740157,
                    "duration": 0.1094889999999964
                },
                {
                    "name": "E5",
                    "midi": 76,
                    "time": 114.85396099999907,
                    "velocity": 0.5039370078740157,
                    "duration": 0.1094889999999964
                },
                {
                    "name": "F#5",
                    "midi": 78,
                    "time": 114.96344999999907,
                    "velocity": 0.5039370078740157,
                    "duration": 0.03649633333333213
                },
                {
                    "name": "G5",
                    "midi": 79,
                    "time": 114.9999463333324,
                    "velocity": 0.5039370078740157,
                    "duration": 0.03649633333333213
                },
                {
                    "name": "F#5",
                    "midi": 78,
                    "time": 115.03644266666574,
                    "velocity": 0.5039370078740157,
                    "duration": 0.03649633333333213
                },
                {
                    "name": "F5",
                    "midi": 77,
                    "time": 115.07293899999907,
                    "velocity": 0.5039370078740157,
                    "duration": 0.1094889999999964
                },
                {
                    "name": "F#5",
                    "midi": 78,
                    "time": 115.18242799999906,
                    "velocity": 0.5039370078740157,
                    "duration": 0.1094889999999964
                },
                {
                    "name": "G#5",
                    "midi": 80,
                    "time": 115.29191699999906,
                    "velocity": 0.5039370078740157,
                    "duration": 0.1094889999999964
                },
                {
                    "name": "A#5",
                    "midi": 82,
                    "time": 115.40140599999906,
                    "velocity": 0.5039370078740157,
                    "duration": 0.1094889999999964
                },
                {
                    "name": "F#5",
                    "midi": 78,
                    "time": 115.51089499999905,
                    "velocity": 0.5039370078740157,
                    "duration": 0.1094889999999964
                },
                {
                    "name": "B5",
                    "midi": 83,
                    "time": 115.62038399999905,
                    "velocity": 0.5039370078740157,
                    "duration": 0.03649633333333213
                },
                {
                    "name": "C#6",
                    "midi": 85,
                    "time": 115.65688033333238,
                    "velocity": 0.5039370078740157,
                    "duration": 0.03649633333333213
                },
                {
                    "name": "B5",
                    "midi": 83,
                    "time": 115.69337666666571,
                    "velocity": 0.5039370078740157,
                    "duration": 0.03649633333333213
                },
                {
                    "name": "A#5",
                    "midi": 82,
                    "time": 115.72987299999905,
                    "velocity": 0.5039370078740157,
                    "duration": 0.1094889999999964
                },
                {
                    "name": "B5",
                    "midi": 83,
                    "time": 115.83936199999904,
                    "velocity": 0.5039370078740157,
                    "duration": 0.1094889999999964
                },
                {
                    "name": "C#6",
                    "midi": 85,
                    "time": 115.94885099999904,
                    "velocity": 0.5039370078740157,
                    "duration": 0.1094889999999964
                },
                {
                    "name": "D6",
                    "midi": 86,
                    "time": 116.05833999999903,
                    "velocity": 0.5039370078740157,
                    "duration": 0.1094889999999964
                },
                {
                    "name": "E6",
                    "midi": 88,
                    "time": 116.16782899999903,
                    "velocity": 0.5039370078740157,
                    "duration": 0.1094889999999964
                },
                {
                    "name": "F#5",
                    "midi": 78,
                    "time": 116.27731799999903,
                    "velocity": 0.5039370078740157,
                    "duration": 0.2189779999999928
                },
                {
                    "name": "F#6",
                    "midi": 90,
                    "time": 116.31381433333236,
                    "velocity": 0.5039370078740157,
                    "duration": 0.18248166666666066
                },
                {
                    "name": "F#5",
                    "midi": 78,
                    "time": 116.49629599999902,
                    "velocity": 0.5039370078740157,
                    "duration": 0.2189779999999928
                },
                {
                    "name": "F#6",
                    "midi": 90,
                    "time": 116.53279233333235,
                    "velocity": 0.5039370078740157,
                    "duration": 0.18248166666666066
                },
                {
                    "name": "F#5",
                    "midi": 78,
                    "time": 116.71527399999901,
                    "velocity": 0.5039370078740157,
                    "duration": 0.2189779999999928
                },
                {
                    "name": "F#6",
                    "midi": 90,
                    "time": 116.75177033333235,
                    "velocity": 0.5039370078740157,
                    "duration": 0.18248166666666066
                },
                {
                    "name": "B4",
                    "midi": 71,
                    "time": 116.934251999999,
                    "velocity": 0.5039370078740157,
                    "duration": 0.2189779999999928
                },
                {
                    "name": "B5",
                    "midi": 83,
                    "time": 116.97074833333234,
                    "velocity": 0.5039370078740157,
                    "duration": 0.18248166666666066
                },
                {
                    "name": "B3",
                    "midi": 59,
                    "time": 117.153229999999,
                    "velocity": 0.5039370078740157,
                    "duration": 0.4379559999999998
                },
                {
                    "name": "D4",
                    "midi": 62,
                    "time": 118.248119999999,
                    "velocity": 0.5039370078740157,
                    "duration": 1.3138680000000136
                },
                {
                    "name": "F#5",
                    "midi": 78,
                    "time": 118.275492249999,
                    "velocity": 0.5039370078740157,
                    "duration": 0.6295617499999935
                },
                {
                    "name": "G5",
                    "midi": 79,
                    "time": 118.905053999999,
                    "velocity": 0.5039370078740157,
                    "duration": 0.218978000000007
                },
                {
                    "name": "E5",
                    "midi": 76,
                    "time": 119.124031999999,
                    "velocity": 0.5039370078740157,
                    "duration": 0.218978000000007
                },
                {
                    "name": "F#5",
                    "midi": 78,
                    "time": 119.34300999999901,
                    "velocity": 0.5039370078740157,
                    "duration": 0.218978000000007
                },
                {
                    "name": "D4",
                    "midi": 62,
                    "time": 119.56198799999902,
                    "velocity": 0.5039370078740157,
                    "duration": 1.3138680000000136
                },
                {
                    "name": "D5",
                    "midi": 74,
                    "time": 119.58936024999902,
                    "velocity": 0.5039370078740157,
                    "duration": 0.6295617499999935
                },
                {
                    "name": "A4",
                    "midi": 69,
                    "time": 120.21892199999901,
                    "velocity": 0.5039370078740157,
                    "duration": 0.218978000000007
                },
                {
                    "name": "A5",
                    "midi": 81,
                    "time": 120.43789999999902,
                    "velocity": 0.5039370078740157,
                    "duration": 0.218978000000007
                },
                {
                    "name": "G5",
                    "midi": 79,
                    "time": 120.65687799999903,
                    "velocity": 0.5039370078740157,
                    "duration": 0.218978000000007
                },
                {
                    "name": "D4",
                    "midi": 62,
                    "time": 120.87585599999903,
                    "velocity": 0.5039370078740157,
                    "duration": 1.3138680000000136
                },
                {
                    "name": "F#5",
                    "midi": 78,
                    "time": 120.90322824999903,
                    "velocity": 0.5039370078740157,
                    "duration": 0.6295617499999935
                },
                {
                    "name": "G5",
                    "midi": 79,
                    "time": 121.53278999999903,
                    "velocity": 0.5039370078740157,
                    "duration": 0.218978000000007
                },
                {
                    "name": "E5",
                    "midi": 76,
                    "time": 121.75176799999903,
                    "velocity": 0.5039370078740157,
                    "duration": 0.218978000000007
                },
                {
                    "name": "F#5",
                    "midi": 78,
                    "time": 121.97074599999904,
                    "velocity": 0.5039370078740157,
                    "duration": 0.218978000000007
                },
                {
                    "name": "D4",
                    "midi": 62,
                    "time": 122.18972399999905,
                    "velocity": 0.5039370078740157,
                    "duration": 1.3138680000000136
                },
                {
                    "name": "D5",
                    "midi": 74,
                    "time": 122.21709624999905,
                    "velocity": 0.5039370078740157,
                    "duration": 0.6295617499999935
                },
                {
                    "name": "A4",
                    "midi": 69,
                    "time": 122.84665799999904,
                    "velocity": 0.5039370078740157,
                    "duration": 0.218978000000007
                },
                {
                    "name": "F#5",
                    "midi": 78,
                    "time": 123.06563599999905,
                    "velocity": 0.5039370078740157,
                    "duration": 0.218978000000007
                },
                {
                    "name": "G5",
                    "midi": 79,
                    "time": 123.28461399999905,
                    "velocity": 0.5039370078740157,
                    "duration": 0.218978000000007
                },
                {
                    "name": "D4",
                    "midi": 62,
                    "time": 123.50359199999906,
                    "velocity": 0.5039370078740157,
                    "duration": 1.3138680000000136
                },
                {
                    "name": "A5",
                    "midi": 81,
                    "time": 123.53096424999906,
                    "velocity": 0.5039370078740157,
                    "duration": 0.6295617499999935
                },
                {
                    "name": "B5",
                    "midi": 83,
                    "time": 124.16052599999905,
                    "velocity": 0.5039370078740157,
                    "duration": 0.218978000000007
                },
                {
                    "name": "A5",
                    "midi": 81,
                    "time": 124.37950399999906,
                    "velocity": 0.5039370078740157,
                    "duration": 0.218978000000007
                },
                {
                    "name": "G#5",
                    "midi": 80,
                    "time": 124.59848199999907,
                    "velocity": 0.5039370078740157,
                    "duration": 0.218978000000007
                },
                {
                    "name": "D4",
                    "midi": 62,
                    "time": 124.81745999999907,
                    "velocity": 0.5039370078740157,
                    "duration": 1.3138680000000136
                },
                {
                    "name": "A5",
                    "midi": 81,
                    "time": 124.84483224999907,
                    "velocity": 0.5039370078740157,
                    "duration": 0.6295617499999935
                },
                {
                    "name": "F#5",
                    "midi": 78,
                    "time": 125.47439399999907,
                    "velocity": 0.5039370078740157,
                    "duration": 0.218978000000007
                },
                {
                    "name": "A5",
                    "midi": 81,
                    "time": 125.69337199999907,
                    "velocity": 0.5039370078740157,
                    "duration": 0.218978000000007
                },
                {
                    "name": "G5",
                    "midi": 79,
                    "time": 125.91234999999908,
                    "velocity": 0.5039370078740157,
                    "duration": 0.218978000000007
                },
                {
                    "name": "F#5",
                    "midi": 78,
                    "time": 126.13132799999909,
                    "velocity": 0.5039370078740157,
                    "duration": 0.4379559999999998
                },
                {
                    "name": "G4",
                    "midi": 67,
                    "time": 126.13132799999909,
                    "velocity": 0.5039370078740157,
                    "duration": 0.6569340000000068
                },
                {
                    "name": "E5",
                    "midi": 76,
                    "time": 126.56928399999909,
                    "velocity": 0.5039370078740157,
                    "duration": 0.218978000000007
                },
                {
                    "name": "G#4",
                    "midi": 68,
                    "time": 126.7882619999991,
                    "velocity": 0.5039370078740157,
                    "duration": 0.656934000000021
                },
                {
                    "name": "E5",
                    "midi": 76,
                    "time": 126.7882619999991,
                    "velocity": 0.5039370078740157,
                    "duration": 0.218978000000007
                },
                {
                    "name": "F#5",
                    "midi": 78,
                    "time": 127.0072399999991,
                    "velocity": 0.5039370078740157,
                    "duration": 0.218978000000007
                },
                {
                    "name": "E5",
                    "midi": 76,
                    "time": 127.22621799999911,
                    "velocity": 0.5039370078740157,
                    "duration": 0.218978000000007
                },
                {
                    "name": "A4",
                    "midi": 69,
                    "time": 127.44519599999911,
                    "velocity": 0.5039370078740157,
                    "duration": 0.6569339999999926
                },
                {
                    "name": "E5",
                    "midi": 76,
                    "time": 127.44519599999911,
                    "velocity": 0.5039370078740157,
                    "duration": 0.6569339999999926
                },
                {
                    "name": "A5",
                    "midi": 81,
                    "time": 128.1021299999991,
                    "velocity": 0.5039370078740157,
                    "duration": 0.2189779999999928
                },
                {
                    "name": "G#5",
                    "midi": 80,
                    "time": 128.3211079999991,
                    "velocity": 0.5039370078740157,
                    "duration": 0.2189779999999928
                },
                {
                    "name": "G5",
                    "midi": 79,
                    "time": 128.5400859999991,
                    "velocity": 0.5039370078740157,
                    "duration": 0.2189779999999928
                },
                {
                    "name": "D4",
                    "midi": 62,
                    "time": 128.75906399999909,
                    "velocity": 0.5039370078740157,
                    "duration": 1.3138679999999852
                },
                {
                    "name": "F#5",
                    "midi": 78,
                    "time": 128.7864362499991,
                    "velocity": 0.5039370078740157,
                    "duration": 0.6295617499999935
                },
                {
                    "name": "G5",
                    "midi": 79,
                    "time": 129.4159979999991,
                    "velocity": 0.5039370078740157,
                    "duration": 0.2189779999999928
                },
                {
                    "name": "E5",
                    "midi": 76,
                    "time": 129.63497599999909,
                    "velocity": 0.5039370078740157,
                    "duration": 0.2189779999999928
                },
                {
                    "name": "F#5",
                    "midi": 78,
                    "time": 129.85395399999908,
                    "velocity": 0.5039370078740157,
                    "duration": 0.2189779999999928
                },
                {
                    "name": "D4",
                    "midi": 62,
                    "time": 130.07293199999907,
                    "velocity": 0.5039370078740157,
                    "duration": 1.3138679999999852
                },
                {
                    "name": "D5",
                    "midi": 74,
                    "time": 130.10030424999908,
                    "velocity": 0.5039370078740157,
                    "duration": 0.6295617499999935
                },
                {
                    "name": "A4",
                    "midi": 69,
                    "time": 130.72986599999908,
                    "velocity": 0.5039370078740157,
                    "duration": 0.2189779999999928
                },
                {
                    "name": "A5",
                    "midi": 81,
                    "time": 130.94884399999907,
                    "velocity": 0.5039370078740157,
                    "duration": 0.2189779999999928
                },
                {
                    "name": "G5",
                    "midi": 79,
                    "time": 131.16782199999906,
                    "velocity": 0.5039370078740157,
                    "duration": 0.2189779999999928
                },
                {
                    "name": "D4",
                    "midi": 62,
                    "time": 131.38679999999906,
                    "velocity": 0.5039370078740157,
                    "duration": 1.3138679999999852
                },
                {
                    "name": "F#5",
                    "midi": 78,
                    "time": 131.41417224999907,
                    "velocity": 0.5039370078740157,
                    "duration": 0.6295617499999935
                },
                {
                    "name": "G5",
                    "midi": 79,
                    "time": 132.04373399999906,
                    "velocity": 0.5039370078740157,
                    "duration": 0.2189779999999928
                },
                {
                    "name": "E5",
                    "midi": 76,
                    "time": 132.26271199999906,
                    "velocity": 0.5039370078740157,
                    "duration": 0.2189779999999928
                },
                {
                    "name": "F#5",
                    "midi": 78,
                    "time": 132.48168999999905,
                    "velocity": 0.5039370078740157,
                    "duration": 0.2189779999999928
                },
                {
                    "name": "D4",
                    "midi": 62,
                    "time": 132.70066799999904,
                    "velocity": 0.5039370078740157,
                    "duration": 1.3138679999999852
                },
                {
                    "name": "D5",
                    "midi": 74,
                    "time": 132.72804024999905,
                    "velocity": 0.5039370078740157,
                    "duration": 0.6295617499999935
                },
                {
                    "name": "A4",
                    "midi": 69,
                    "time": 133.35760199999905,
                    "velocity": 0.5039370078740157,
                    "duration": 0.2189779999999928
                },
                {
                    "name": "F#5",
                    "midi": 78,
                    "time": 133.57657999999904,
                    "velocity": 0.5039370078740157,
                    "duration": 0.2189779999999928
                },
                {
                    "name": "G5",
                    "midi": 79,
                    "time": 133.79555799999903,
                    "velocity": 0.5039370078740157,
                    "duration": 0.2189779999999928
                },
                {
                    "name": "D4",
                    "midi": 62,
                    "time": 134.01453599999903,
                    "velocity": 0.5039370078740157,
                    "duration": 1.3138679999999852
                },
                {
                    "name": "A5",
                    "midi": 81,
                    "time": 134.04190824999904,
                    "velocity": 0.5039370078740157,
                    "duration": 0.6295617499999935
                },
                {
                    "name": "B5",
                    "midi": 83,
                    "time": 134.67146999999903,
                    "velocity": 0.5039370078740157,
                    "duration": 0.2189779999999928
                },
                {
                    "name": "A5",
                    "midi": 81,
                    "time": 134.89044799999903,
                    "velocity": 0.5039370078740157,
                    "duration": 0.2189779999999928
                },
                {
                    "name": "G#5",
                    "midi": 80,
                    "time": 135.10942599999902,
                    "velocity": 0.5039370078740157,
                    "duration": 0.2189779999999928
                },
                {
                    "name": "D4",
                    "midi": 62,
                    "time": 135.328403999999,
                    "velocity": 0.5039370078740157,
                    "duration": 0.6569340000000068
                },
                {
                    "name": "A5",
                    "midi": 81,
                    "time": 135.328403999999,
                    "velocity": 0.5039370078740157,
                    "duration": 0.437956000000014
                },
                {
                    "name": "F#5",
                    "midi": 78,
                    "time": 135.76635999999903,
                    "velocity": 0.5039370078740157,
                    "duration": 0.2189779999999928
                },
                {
                    "name": "G4",
                    "midi": 67,
                    "time": 135.98533799999902,
                    "velocity": 0.5039370078740157,
                    "duration": 0.6569340000000068
                },
                {
                    "name": "F#5",
                    "midi": 78,
                    "time": 135.98533799999902,
                    "velocity": 0.5039370078740157,
                    "duration": 0.437956000000014
                },
                {
                    "name": "E5",
                    "midi": 76,
                    "time": 136.42329399999903,
                    "velocity": 0.5039370078740157,
                    "duration": 0.2189779999999928
                },
                {
                    "name": "A4",
                    "midi": 69,
                    "time": 136.64227199999902,
                    "velocity": 0.5039370078740157,
                    "duration": 0.6569340000000068
                },
                {
                    "name": "D5",
                    "midi": 74,
                    "time": 136.66964424999904,
                    "velocity": 0.5039370078740157,
                    "duration": 0.6295617499999935
                },
                {
                    "name": "A4",
                    "midi": 69,
                    "time": 137.29920599999903,
                    "velocity": 0.5039370078740157,
                    "duration": 0.2189779999999928
                },
                {
                    "name": "C#5",
                    "midi": 73,
                    "time": 137.29920599999903,
                    "velocity": 0.5039370078740157,
                    "duration": 0.2189779999999928
                },
                {
                    "name": "D5",
                    "midi": 74,
                    "time": 137.51818399999902,
                    "velocity": 0.5039370078740157,
                    "duration": 0.2189779999999928
                },
                {
                    "name": "E5",
                    "midi": 76,
                    "time": 137.73716199999902,
                    "velocity": 0.5039370078740157,
                    "duration": 0.2189779999999928
                },
                {
                    "name": "D4",
                    "midi": 62,
                    "time": 137.956139999999,
                    "velocity": 0.5039370078740157,
                    "duration": 1.3138680000000136
                },
                {
                    "name": "D5",
                    "midi": 74,
                    "time": 137.98351224999902,
                    "velocity": 0.5039370078740157,
                    "duration": 1.2864957500000003
                },
                {
                    "name": "D4",
                    "midi": 62,
                    "time": 139.27000799999902,
                    "velocity": 0.5039370078740157,
                    "duration": 0.6569340000000352
                },
                {
                    "name": "A5",
                    "midi": 81,
                    "time": 139.29738024999904,
                    "velocity": 0.5039370078740157,
                    "duration": 0.6295617500000219
                },
                {
                    "name": "F#6",
                    "midi": 90,
                    "time": 139.32475249999905,
                    "velocity": 0.5039370078740157,
                    "duration": 0.6021895000000086
                },
                {
                    "name": "D4",
                    "midi": 62,
                    "time": 139.92694199999906,
                    "velocity": 0.5039370078740157,
                    "duration": 0.2189780000000212
                },
                {
                    "name": "B5",
                    "midi": 83,
                    "time": 139.95431424999907,
                    "velocity": 0.5039370078740157,
                    "duration": 0.1916057500000079
                },
                {
                    "name": "F#6",
                    "midi": 90,
                    "time": 139.98168649999909,
                    "velocity": 0.5039370078740157,
                    "duration": 0.1642334999999946
                },
                {
                    "name": "D4",
                    "midi": 62,
                    "time": 140.14591999999908,
                    "velocity": 0.5039370078740157,
                    "duration": 0.2189780000000212
                },
                {
                    "name": "A5",
                    "midi": 81,
                    "time": 140.1732922499991,
                    "velocity": 0.5039370078740157,
                    "duration": 0.1916057500000079
                },
                {
                    "name": "F#6",
                    "midi": 90,
                    "time": 140.2006644999991,
                    "velocity": 0.5039370078740157,
                    "duration": 0.1642334999999946
                },
                {
                    "name": "D4",
                    "midi": 62,
                    "time": 140.3648979999991,
                    "velocity": 0.5039370078740157,
                    "duration": 0.2189780000000212
                },
                {
                    "name": "G#5",
                    "midi": 80,
                    "time": 140.39227024999911,
                    "velocity": 0.5039370078740157,
                    "duration": 0.1916057500000079
                },
                {
                    "name": "F6",
                    "midi": 89,
                    "time": 140.41964249999913,
                    "velocity": 0.5039370078740157,
                    "duration": 0.1642334999999946
                },
                {
                    "name": "D4",
                    "midi": 62,
                    "time": 140.58387599999912,
                    "velocity": 0.5039370078740157,
                    "duration": 0.6569340000000352
                },
                {
                    "name": "A5",
                    "midi": 81,
                    "time": 140.61124824999914,
                    "velocity": 0.5039370078740157,
                    "duration": 0.6295617500000219
                },
                {
                    "name": "F#6",
                    "midi": 90,
                    "time": 140.63862049999915,
                    "velocity": 0.5039370078740157,
                    "duration": 0.6021895000000086
                },
                {
                    "name": "D4",
                    "midi": 62,
                    "time": 141.24080999999916,
                    "velocity": 0.5039370078740157,
                    "duration": 0.2189780000000212
                },
                {
                    "name": "F#5",
                    "midi": 78,
                    "time": 141.26818224999917,
                    "velocity": 0.5039370078740157,
                    "duration": 0.1916057500000079
                },
                {
                    "name": "D6",
                    "midi": 86,
                    "time": 141.29555449999918,
                    "velocity": 0.5039370078740157,
                    "duration": 0.1642334999999946
                },
                {
                    "name": "D4",
                    "midi": 62,
                    "time": 141.45978799999918,
                    "velocity": 0.5039370078740157,
                    "duration": 0.2189780000000212
                },
                {
                    "name": "G5",
                    "midi": 79,
                    "time": 141.4871602499992,
                    "velocity": 0.5039370078740157,
                    "duration": 0.1916057500000079
                },
                {
                    "name": "E6",
                    "midi": 88,
                    "time": 141.5145324999992,
                    "velocity": 0.5039370078740157,
                    "duration": 0.1642334999999946
                },
                {
                    "name": "D4",
                    "midi": 62,
                    "time": 141.6787659999992,
                    "velocity": 0.5039370078740157,
                    "duration": 0.2189780000000212
                },
                {
                    "name": "G#5",
                    "midi": 80,
                    "time": 141.7061382499992,
                    "velocity": 0.5039370078740157,
                    "duration": 0.1916057500000079
                },
                {
                    "name": "F6",
                    "midi": 89,
                    "time": 141.73351049999923,
                    "velocity": 0.5039370078740157,
                    "duration": 0.1642334999999946
                },
                {
                    "name": "D4",
                    "midi": 62,
                    "time": 141.89774399999922,
                    "velocity": 0.5039370078740157,
                    "duration": 0.6569340000000352
                },
                {
                    "name": "A5",
                    "midi": 81,
                    "time": 141.92511624999923,
                    "velocity": 0.5039370078740157,
                    "duration": 0.6295617500000219
                },
                {
                    "name": "F#6",
                    "midi": 90,
                    "time": 141.95248849999925,
                    "velocity": 0.5039370078740157,
                    "duration": 0.6021895000000086
                },
                {
                    "name": "D4",
                    "midi": 62,
                    "time": 142.55467799999926,
                    "velocity": 0.5039370078740157,
                    "duration": 0.2189780000000212
                },
                {
                    "name": "B5",
                    "midi": 83,
                    "time": 142.58205024999927,
                    "velocity": 0.5039370078740157,
                    "duration": 0.1916057500000079
                },
                {
                    "name": "G6",
                    "midi": 91,
                    "time": 142.60942249999928,
                    "velocity": 0.5039370078740157,
                    "duration": 0.1642334999999946
                },
                {
                    "name": "D4",
                    "midi": 62,
                    "time": 142.77365599999928,
                    "velocity": 0.5039370078740157,
                    "duration": 0.2189780000000212
                },
                {
                    "name": "A5",
                    "midi": 81,
                    "time": 142.8010282499993,
                    "velocity": 0.5039370078740157,
                    "duration": 0.1916057500000079
                },
                {
                    "name": "F#6",
                    "midi": 90,
                    "time": 142.8284004999993,
                    "velocity": 0.5039370078740157,
                    "duration": 0.1642334999999946
                },
                {
                    "name": "D4",
                    "midi": 62,
                    "time": 142.9926339999993,
                    "velocity": 0.5039370078740157,
                    "duration": 0.2189780000000212
                },
                {
                    "name": "G#5",
                    "midi": 80,
                    "time": 143.0200062499993,
                    "velocity": 0.5039370078740157,
                    "duration": 0.1916057500000079
                },
                {
                    "name": "F6",
                    "midi": 89,
                    "time": 143.04737849999933,
                    "velocity": 0.5039370078740157,
                    "duration": 0.1642334999999946
                },
                {
                    "name": "D4",
                    "midi": 62,
                    "time": 143.21161199999932,
                    "velocity": 0.5039370078740157,
                    "duration": 0.6569340000000352
                },
                {
                    "name": "A5",
                    "midi": 81,
                    "time": 143.23898424999933,
                    "velocity": 0.5039370078740157,
                    "duration": 0.6295617500000219
                },
                {
                    "name": "F#6",
                    "midi": 90,
                    "time": 143.26635649999935,
                    "velocity": 0.5039370078740157,
                    "duration": 0.6021895000000086
                },
                {
                    "name": "D4",
                    "midi": 62,
                    "time": 143.86854599999936,
                    "velocity": 0.5039370078740157,
                    "duration": 0.6569340000000352
                },
                {
                    "name": "F#5",
                    "midi": 78,
                    "time": 143.89591824999937,
                    "velocity": 0.5039370078740157,
                    "duration": 0.6295617500000219
                },
                {
                    "name": "D6",
                    "midi": 86,
                    "time": 143.92329049999938,
                    "velocity": 0.5039370078740157,
                    "duration": 0.6021895000000086
                },
                {
                    "name": "D4",
                    "midi": 62,
                    "time": 144.5254799999994,
                    "velocity": 0.5039370078740157,
                    "duration": 0.6569340000000352
                },
                {
                    "name": "F#4",
                    "midi": 66,
                    "time": 144.5528522499994,
                    "velocity": 0.5039370078740157,
                    "duration": 0.6295617500000219
                },
                {
                    "name": "A5",
                    "midi": 81,
                    "time": 144.58022449999942,
                    "velocity": 0.5039370078740157,
                    "duration": 0.6021895000000086
                },
                {
                    "name": "D4",
                    "midi": 62,
                    "time": 145.18241399999943,
                    "velocity": 0.5039370078740157,
                    "duration": 0.2189780000000212
                },
                {
                    "name": "G4",
                    "midi": 67,
                    "time": 145.20978624999944,
                    "velocity": 0.5039370078740157,
                    "duration": 0.1916057500000079
                },
                {
                    "name": "B5",
                    "midi": 83,
                    "time": 145.23715849999945,
                    "velocity": 0.5039370078740157,
                    "duration": 0.1642334999999946
                },
                {
                    "name": "D4",
                    "midi": 62,
                    "time": 145.40139199999945,
                    "velocity": 0.5039370078740157,
                    "duration": 0.2189780000000212
                },
                {
                    "name": "F#4",
                    "midi": 66,
                    "time": 145.42876424999946,
                    "velocity": 0.5039370078740157,
                    "duration": 0.1916057500000079
                },
                {
                    "name": "A5",
                    "midi": 81,
                    "time": 145.45613649999947,
                    "velocity": 0.5039370078740157,
                    "duration": 0.1642334999999946
                },
                {
                    "name": "D4",
                    "midi": 62,
                    "time": 145.62036999999947,
                    "velocity": 0.5039370078740157,
                    "duration": 0.2189780000000212
                },
                {
                    "name": "F4",
                    "midi": 65,
                    "time": 145.64774224999948,
                    "velocity": 0.5039370078740157,
                    "duration": 0.1916057500000079
                },
                {
                    "name": "G#5",
                    "midi": 80,
                    "time": 145.6751144999995,
                    "velocity": 0.5039370078740157,
                    "duration": 0.1642334999999946
                },
                {
                    "name": "D4",
                    "midi": 62,
                    "time": 145.8393479999995,
                    "velocity": 0.5039370078740157,
                    "duration": 0.6569340000000352
                },
                {
                    "name": "F#4",
                    "midi": 66,
                    "time": 145.8667202499995,
                    "velocity": 0.5039370078740157,
                    "duration": 0.6295617500000219
                },
                {
                    "name": "A5",
                    "midi": 81,
                    "time": 145.89409249999952,
                    "velocity": 0.5039370078740157,
                    "duration": 0.6021895000000086
                },
                {
                    "name": "D4",
                    "midi": 62,
                    "time": 146.49628199999952,
                    "velocity": 0.5039370078740157,
                    "duration": 0.2189780000000212
                },
                {
                    "name": "F#5",
                    "midi": 78,
                    "time": 146.52365424999954,
                    "velocity": 0.5039370078740157,
                    "duration": 0.1916057500000079
                },
                {
                    "name": "D4",
                    "midi": 62,
                    "time": 146.71525999999955,
                    "velocity": 0.5039370078740157,
                    "duration": 0.2189780000000212
                },
                {
                    "name": "C#4",
                    "midi": 61,
                    "time": 146.71525999999955,
                    "velocity": 0.5039370078740157,
                    "duration": 0.2189780000000212
                },
                {
                    "name": "E5",
                    "midi": 76,
                    "time": 146.74263224999956,
                    "velocity": 0.5039370078740157,
                    "duration": 0.1916057500000079
                },
                {
                    "name": "B3",
                    "midi": 59,
                    "time": 146.93423799999957,
                    "velocity": 0.5039370078740157,
                    "duration": 0.2189780000000212
                },
                {
                    "name": "D4",
                    "midi": 62,
                    "time": 146.93423799999957,
                    "velocity": 0.5039370078740157,
                    "duration": 0.2189780000000212
                },
                {
                    "name": "D5",
                    "midi": 74,
                    "time": 146.96161024999958,
                    "velocity": 0.5039370078740157,
                    "duration": 0.1916057500000079
                },
                {
                    "name": "A3",
                    "midi": 57,
                    "time": 147.1532159999996,
                    "velocity": 0.5039370078740157,
                    "duration": 0.6569340000000352
                },
                {
                    "name": "F#4",
                    "midi": 66,
                    "time": 147.1805882499996,
                    "velocity": 0.5039370078740157,
                    "duration": 0.6295617500000219
                },
                {
                    "name": "D5",
                    "midi": 74,
                    "time": 147.20796049999961,
                    "velocity": 0.5039370078740157,
                    "duration": 0.6021895000000086
                },
                {
                    "name": "A3",
                    "midi": 57,
                    "time": 147.81014999999962,
                    "velocity": 0.5039370078740157,
                    "duration": 0.2189780000000212
                },
                {
                    "name": "G4",
                    "midi": 67,
                    "time": 147.83752224999964,
                    "velocity": 0.5039370078740157,
                    "duration": 0.1916057500000079
                },
                {
                    "name": "C#5",
                    "midi": 73,
                    "time": 147.86489449999965,
                    "velocity": 0.5039370078740157,
                    "duration": 0.1642334999999946
                },
                {
                    "name": "A3",
                    "midi": 57,
                    "time": 148.02912799999964,
                    "velocity": 0.5039370078740157,
                    "duration": 0.2189780000000212
                },
                {
                    "name": "G4",
                    "midi": 67,
                    "time": 148.05650024999966,
                    "velocity": 0.5039370078740157,
                    "duration": 0.1916057500000079
                },
                {
                    "name": "D#5",
                    "midi": 75,
                    "time": 148.08387249999967,
                    "velocity": 0.5039370078740157,
                    "duration": 0.1642334999999946
                },
                {
                    "name": "A3",
                    "midi": 57,
                    "time": 148.24810599999967,
                    "velocity": 0.5039370078740157,
                    "duration": 0.2189780000000212
                },
                {
                    "name": "G4",
                    "midi": 67,
                    "time": 148.27547824999968,
                    "velocity": 0.5039370078740157,
                    "duration": 0.1916057500000079
                },
                {
                    "name": "E5",
                    "midi": 76,
                    "time": 148.3028504999997,
                    "velocity": 0.5039370078740157,
                    "duration": 0.1642334999999946
                },
                {
                    "name": "D4",
                    "midi": 62,
                    "time": 148.4670839999997,
                    "velocity": 0.5039370078740157,
                    "duration": 0.2189780000000212
                },
                {
                    "name": "F#4",
                    "midi": 66,
                    "time": 148.4944562499997,
                    "velocity": 0.5039370078740157,
                    "duration": 0.1916057500000079
                },
                {
                    "name": "D5",
                    "midi": 74,
                    "time": 148.5218284999997,
                    "velocity": 0.5039370078740157,
                    "duration": 0.1642334999999946
                },
                {
                    "name": "D4",
                    "midi": 62,
                    "time": 148.6860619999997,
                    "velocity": 0.5039370078740157,
                    "duration": 0.2189780000000212
                },
                {
                    "name": "F#4",
                    "midi": 66,
                    "time": 148.71343424999972,
                    "velocity": 0.5039370078740157,
                    "duration": 0.1916057500000079
                },
                {
                    "name": "D5",
                    "midi": 74,
                    "time": 148.74080649999974,
                    "velocity": 0.5039370078740157,
                    "duration": 0.1642334999999946
                },
                {
                    "name": "D4",
                    "midi": 62,
                    "time": 148.90503999999973,
                    "velocity": 0.5039370078740157,
                    "duration": 0.2189780000000212
                },
                {
                    "name": "F#4",
                    "midi": 66,
                    "time": 148.93241224999974,
                    "velocity": 0.5039370078740157,
                    "duration": 0.1916057500000079
                },
                {
                    "name": "D5",
                    "midi": 74,
                    "time": 148.95978449999976,
                    "velocity": 0.5039370078740157,
                    "duration": 0.1642334999999946
                },
                {
                    "name": "D4",
                    "midi": 62,
                    "time": 149.12401799999975,
                    "velocity": 0.5039370078740157,
                    "duration": 0.437956000000014
                },
                {
                    "name": "F#4",
                    "midi": 66,
                    "time": 149.15139024999976,
                    "velocity": 0.5039370078740157,
                    "duration": 0.4105837500000007
                },
                {
                    "name": "D5",
                    "midi": 74,
                    "time": 149.17876249999978,
                    "velocity": 0.5039370078740157,
                    "duration": 0.3832114999999874
                }
            ],
            "controlChanges": {
                "7": [
                    {
                        "number": 7,
                        "time": 0,
                        "value": 1
                    }
                ]
            },
            "id": 1,
            "name": "Caprice#20 Paganini ",
            "instrumentNumber": 0,
            "instrument": "acoustic grand piano",
            "instrumentFamily": "piano",
            "channelNumber": 0,
            "isPercussion": false
        }
    ]
}