{
    "header": {
        "PPQ": 480,
        "timeSignature": [
            3,
            8
        ],
        "bpm": 102.38995213269737,
        "name": "Mendelssohn: Lieder ohne Worte Opus 30 Nr. 4"
    },
    "startTime": 0,
    "duration": 156.46066499999873,
    "tracks": [
        {
            "startTime": 0,
            "duration": 0,
            "length": 0,
            "notes": [],
            "controlChanges": {},
            "id": 0,
            "name": "Mendelssohn: Lieder ohne Worte Opus 30 Nr. 4"
        },
        {
            "startTime": 1.4649875,
            "duration": 156.46066499999873,
            "length": 786,
            "notes": [
                {
                    "name": "F#4",
                    "midi": 66,
                    "time": 1.4649875,
                    "velocity": 0.3937007874015748,
                    "duration": 0.1464987499999999
                },
                {
                    "name": "F#4",
                    "midi": 66,
                    "time": 1.7579850000000001,
                    "velocity": 0.4409448818897638,
                    "duration": 0.2929974999999998
                },
                {
                    "name": "G#4",
                    "midi": 68,
                    "time": 2.0509825,
                    "velocity": 0.4566929133858268,
                    "duration": 0.07324937500000006
                },
                {
                    "name": "A#4",
                    "midi": 70,
                    "time": 2.19748125,
                    "velocity": 0.4645669291338583,
                    "duration": 0.07324937500000006
                },
                {
                    "name": "B4",
                    "midi": 71,
                    "time": 2.34398,
                    "velocity": 0.49606299212598426,
                    "duration": 0.07324937500000006
                },
                {
                    "name": "C#5",
                    "midi": 73,
                    "time": 2.4904787500000003,
                    "velocity": 0.5196850393700787,
                    "duration": 0.07324937500000006
                },
                {
                    "name": "D5",
                    "midi": 74,
                    "time": 2.6369775000000004,
                    "velocity": 0.5826771653543307,
                    "duration": 0.29299750000000024
                },
                {
                    "name": "A#4",
                    "midi": 70,
                    "time": 2.9299750000000007,
                    "velocity": 0.49606299212598426,
                    "duration": 0.29299750000000024
                },
                {
                    "name": "B4",
                    "midi": 71,
                    "time": 3.222972500000001,
                    "velocity": 0.5039370078740157,
                    "duration": 0.29299750000000024
                },
                {
                    "name": "E5",
                    "midi": 76,
                    "time": 3.515970000000001,
                    "velocity": 0.5984251968503937,
                    "duration": 0.29299750000000024
                },
                {
                    "name": "A#4",
                    "midi": 70,
                    "time": 3.8089675000000014,
                    "velocity": 0.5196850393700787,
                    "duration": 0.29299750000000024
                },
                {
                    "name": "B4",
                    "midi": 71,
                    "time": 4.101965000000002,
                    "velocity": 0.5590551181102362,
                    "duration": 0.29299750000000024
                },
                {
                    "name": "C#5",
                    "midi": 73,
                    "time": 4.394962500000002,
                    "velocity": 0.6377952755905512,
                    "duration": 0.5859950000000005
                },
                {
                    "name": "G5",
                    "midi": 79,
                    "time": 4.980957500000002,
                    "velocity": 0.6692913385826772,
                    "duration": 0.29299750000000024
                },
                {
                    "name": "F#5",
                    "midi": 78,
                    "time": 5.273955000000003,
                    "velocity": 0.7322834645669292,
                    "duration": 0.43949625000000037
                },
                {
                    "name": "E5",
                    "midi": 76,
                    "time": 5.713451250000003,
                    "velocity": 0.6377952755905512,
                    "duration": 0.07324937499999962
                },
                {
                    "name": "D5",
                    "midi": 74,
                    "time": 5.859950000000002,
                    "velocity": 0.6771653543307087,
                    "duration": 0.07324937499999962
                },
                {
                    "name": "C#5",
                    "midi": 73,
                    "time": 6.0064487500000014,
                    "velocity": 0.6771653543307087,
                    "duration": 0.07324937499999962
                },
                {
                    "name": "E5",
                    "midi": 76,
                    "time": 6.152947500000001,
                    "velocity": 0.7244094488188977,
                    "duration": 0.43949625000000037
                },
                {
                    "name": "D5",
                    "midi": 74,
                    "time": 6.592443750000001,
                    "velocity": 0.5905511811023622,
                    "duration": 0.07324937499999962
                },
                {
                    "name": "C#5",
                    "midi": 73,
                    "time": 6.7389425,
                    "velocity": 0.5905511811023622,
                    "duration": 0.07324937499999962
                },
                {
                    "name": "B4",
                    "midi": 71,
                    "time": 6.8854412499999995,
                    "velocity": 0.6614173228346457,
                    "duration": 0.07324937499999962
                },
                {
                    "name": "A4",
                    "midi": 69,
                    "time": 7.031939999999999,
                    "velocity": 0.7086614173228346,
                    "duration": 0.43949625000000037
                },
                {
                    "name": "G#4",
                    "midi": 68,
                    "time": 7.471436249999999,
                    "velocity": 0.5354330708661418,
                    "duration": 0.07324937499999962
                },
                {
                    "name": "F#4",
                    "midi": 66,
                    "time": 7.617934999999998,
                    "velocity": 0.5196850393700787,
                    "duration": 0.07324937499999962
                },
                {
                    "name": "F4",
                    "midi": 65,
                    "time": 7.764433749999998,
                    "velocity": 0.5669291338582677,
                    "duration": 0.07324937499999962
                },
                {
                    "name": "F4",
                    "midi": 65,
                    "time": 7.910932499999997,
                    "velocity": 0.6141732283464567,
                    "duration": 0.29299749999999936
                },
                {
                    "name": "F#4",
                    "midi": 66,
                    "time": 8.203929999999996,
                    "velocity": 0.5039370078740157,
                    "duration": 0.25637281250000044
                },
                {
                    "name": "F#4",
                    "midi": 66,
                    "time": 8.496927499999996,
                    "velocity": 0.48031496062992124,
                    "duration": 0.14649874999999923
                },
                {
                    "name": "F#4",
                    "midi": 66,
                    "time": 8.789924999999995,
                    "velocity": 0.4409448818897638,
                    "duration": 0.29299750000000024
                },
                {
                    "name": "G#4",
                    "midi": 68,
                    "time": 9.082922499999995,
                    "velocity": 0.4566929133858268,
                    "duration": 0.07324937499999962
                },
                {
                    "name": "A#4",
                    "midi": 70,
                    "time": 9.229421249999994,
                    "velocity": 0.4645669291338583,
                    "duration": 0.07324937499999962
                },
                {
                    "name": "B4",
                    "midi": 71,
                    "time": 9.375919999999994,
                    "velocity": 0.49606299212598426,
                    "duration": 0.07324937499999962
                },
                {
                    "name": "C#5",
                    "midi": 73,
                    "time": 9.522418749999993,
                    "velocity": 0.5196850393700787,
                    "duration": 0.07324937499999962
                },
                {
                    "name": "D5",
                    "midi": 74,
                    "time": 9.668917499999992,
                    "velocity": 0.5826771653543307,
                    "duration": 0.29299750000000024
                },
                {
                    "name": "A#4",
                    "midi": 70,
                    "time": 9.961914999999992,
                    "velocity": 0.49606299212598426,
                    "duration": 0.29299750000000024
                },
                {
                    "name": "B4",
                    "midi": 71,
                    "time": 10.254912499999993,
                    "velocity": 0.5118110236220472,
                    "duration": 0.29299750000000024
                },
                {
                    "name": "F5",
                    "midi": 77,
                    "time": 10.547909999999993,
                    "velocity": 0.6141732283464567,
                    "duration": 0.29299750000000024
                },
                {
                    "name": "C5",
                    "midi": 72,
                    "time": 10.840907499999993,
                    "velocity": 0.5275590551181102,
                    "duration": 0.29299750000000024
                },
                {
                    "name": "C#5",
                    "midi": 73,
                    "time": 11.133904999999993,
                    "velocity": 0.5748031496062992,
                    "duration": 0.29299750000000024
                },
                {
                    "name": "F#5",
                    "midi": 78,
                    "time": 11.426902499999994,
                    "velocity": 0.6771653543307087,
                    "duration": 0.5859950000000005
                },
                {
                    "name": "F#5",
                    "midi": 78,
                    "time": 12.012897499999994,
                    "velocity": 0.6692913385826772,
                    "duration": 0.29299750000000024
                },
                {
                    "name": "E5",
                    "midi": 76,
                    "time": 12.305894999999994,
                    "velocity": 0.7322834645669292,
                    "duration": 0.4394962499999995
                },
                {
                    "name": "D5",
                    "midi": 74,
                    "time": 12.745391249999994,
                    "velocity": 0.6377952755905512,
                    "duration": 0.07324937499999962
                },
                {
                    "name": "C#5",
                    "midi": 73,
                    "time": 12.891889999999993,
                    "velocity": 0.6771653543307087,
                    "duration": 0.07324937499999962
                },
                {
                    "name": "D5",
                    "midi": 74,
                    "time": 13.038388749999992,
                    "velocity": 0.6771653543307087,
                    "duration": 0.07324937499999962
                },
                {
                    "name": "C#5",
                    "midi": 73,
                    "time": 13.184887499999991,
                    "velocity": 0.6377952755905512,
                    "duration": 0.5859950000000005
                },
                {
                    "name": "F#5",
                    "midi": 78,
                    "time": 13.770882499999992,
                    "velocity": 0.6692913385826772,
                    "duration": 0.29299750000000024
                },
                {
                    "name": "E5",
                    "midi": 76,
                    "time": 14.063879999999992,
                    "velocity": 0.7322834645669292,
                    "duration": 0.4394962499999995
                },
                {
                    "name": "D5",
                    "midi": 74,
                    "time": 14.503376249999992,
                    "velocity": 0.6377952755905512,
                    "duration": 0.07324937499999962
                },
                {
                    "name": "C#5",
                    "midi": 73,
                    "time": 14.64987499999999,
                    "velocity": 0.6771653543307087,
                    "duration": 0.07324937499999962
                },
                {
                    "name": "D5",
                    "midi": 74,
                    "time": 14.79637374999999,
                    "velocity": 0.6771653543307087,
                    "duration": 0.07324937499999962
                },
                {
                    "name": "C#5",
                    "midi": 73,
                    "time": 14.94287249999999,
                    "velocity": 0.7322834645669292,
                    "duration": 0.4394962499999995
                },
                {
                    "name": "F#4",
                    "midi": 66,
                    "time": 15.382368749999989,
                    "velocity": 0.4015748031496063,
                    "duration": 0.07324937499999962
                },
                {
                    "name": "F4",
                    "midi": 65,
                    "time": 15.528867499999988,
                    "velocity": 0.41732283464566927,
                    "duration": 0.07324937499999962
                },
                {
                    "name": "F#4",
                    "midi": 66,
                    "time": 15.675366249999987,
                    "velocity": 0.4409448818897638,
                    "duration": 0.07324937499999962
                },
                {
                    "name": "G#4",
                    "midi": 68,
                    "time": 15.821864999999987,
                    "velocity": 0.4566929133858268,
                    "duration": 0.4394962499999995
                },
                {
                    "name": "F#4",
                    "midi": 66,
                    "time": 15.821864999999987,
                    "velocity": 0.3858267716535433,
                    "duration": 0.4394962499999995
                },
                {
                    "name": "D4",
                    "midi": 62,
                    "time": 15.821864999999987,
                    "velocity": 0.3858267716535433,
                    "duration": 0.4394962499999995
                },
                {
                    "name": "G#4",
                    "midi": 68,
                    "time": 16.261361249999986,
                    "velocity": 0.4409448818897638,
                    "duration": 0.07324937499999962
                },
                {
                    "name": "F#4",
                    "midi": 66,
                    "time": 16.407859999999985,
                    "velocity": 0.4645669291338583,
                    "duration": 0.07324937499999962
                },
                {
                    "name": "G#4",
                    "midi": 68,
                    "time": 16.554358749999984,
                    "velocity": 0.4881889763779528,
                    "duration": 0.07324937499999962
                },
                {
                    "name": "F#4",
                    "midi": 66,
                    "time": 16.700857499999984,
                    "velocity": 0.4409448818897638,
                    "duration": 0.36624687500000164
                },
                {
                    "name": "A4",
                    "midi": 69,
                    "time": 16.700857499999984,
                    "velocity": 0.5196850393700787,
                    "duration": 0.36624687500000164
                },
                {
                    "name": "B4",
                    "midi": 71,
                    "time": 17.11593729166665,
                    "velocity": 0.48031496062992124,
                    "duration": 0.02441645833333439
                },
                {
                    "name": "A4",
                    "midi": 69,
                    "time": 17.140353749999985,
                    "velocity": 0.48031496062992124,
                    "duration": 0.07324937499999962
                },
                {
                    "name": "G#4",
                    "midi": 68,
                    "time": 17.286852499999984,
                    "velocity": 0.4881889763779528,
                    "duration": 0.07324937499999962
                },
                {
                    "name": "A4",
                    "midi": 69,
                    "time": 17.433351249999983,
                    "velocity": 0.5196850393700787,
                    "duration": 0.07324937499999962
                },
                {
                    "name": "B4",
                    "midi": 71,
                    "time": 17.579849999999983,
                    "velocity": 0.5669291338582677,
                    "duration": 0.43949625000000125
                },
                {
                    "name": "F#4",
                    "midi": 66,
                    "time": 17.579849999999983,
                    "velocity": 0.48031496062992124,
                    "duration": 0.43949625000000125
                },
                {
                    "name": "B4",
                    "midi": 71,
                    "time": 18.019346249999984,
                    "velocity": 0.49606299212598426,
                    "duration": 0.07324937499999962
                },
                {
                    "name": "A4",
                    "midi": 69,
                    "time": 18.165844999999983,
                    "velocity": 0.5275590551181102,
                    "duration": 0.07324937499999962
                },
                {
                    "name": "B4",
                    "midi": 71,
                    "time": 18.312343749999982,
                    "velocity": 0.5354330708661418,
                    "duration": 0.07324937499999962
                },
                {
                    "name": "C#5",
                    "midi": 73,
                    "time": 18.45884249999998,
                    "velocity": 0.5748031496062992,
                    "duration": 0.36624687500000164
                },
                {
                    "name": "A4",
                    "midi": 69,
                    "time": 18.45884249999998,
                    "velocity": 0.4881889763779528,
                    "duration": 0.36624687500000164
                },
                {
                    "name": "F#4",
                    "midi": 66,
                    "time": 18.45884249999998,
                    "velocity": 0.4881889763779528,
                    "duration": 0.36624687500000164
                },
                {
                    "name": "D5",
                    "midi": 74,
                    "time": 18.87392229166665,
                    "velocity": 0.5354330708661418,
                    "duration": 0.02441645833333439
                },
                {
                    "name": "C#5",
                    "midi": 73,
                    "time": 18.898338749999983,
                    "velocity": 0.5354330708661418,
                    "duration": 0.07324937499999962
                },
                {
                    "name": "C5",
                    "midi": 72,
                    "time": 19.044837499999982,
                    "velocity": 0.5511811023622047,
                    "duration": 0.07324937499999962
                },
                {
                    "name": "C#5",
                    "midi": 73,
                    "time": 19.19133624999998,
                    "velocity": 0.5748031496062992,
                    "duration": 0.07324937499999962
                },
                {
                    "name": "G#4",
                    "midi": 68,
                    "time": 19.33783499999998,
                    "velocity": 0.5433070866141733,
                    "duration": 0.43949625000000125
                },
                {
                    "name": "C#5",
                    "midi": 73,
                    "time": 19.33783499999998,
                    "velocity": 0.5433070866141733,
                    "duration": 0.43949625000000125
                },
                {
                    "name": "F5",
                    "midi": 77,
                    "time": 19.33783499999998,
                    "velocity": 0.6456692913385826,
                    "duration": 0.43949625000000125
                },
                {
                    "name": "F5",
                    "midi": 77,
                    "time": 19.777331249999982,
                    "velocity": 0.5748031496062992,
                    "duration": 0.07324937499999962
                },
                {
                    "name": "D#5",
                    "midi": 75,
                    "time": 19.92382999999998,
                    "velocity": 0.6141732283464567,
                    "duration": 0.07324937499999962
                },
                {
                    "name": "F5",
                    "midi": 77,
                    "time": 20.07032874999998,
                    "velocity": 0.6535433070866141,
                    "duration": 0.07324937499999962
                },
                {
                    "name": "F#5",
                    "midi": 78,
                    "time": 20.21682749999998,
                    "velocity": 0.7322834645669292,
                    "duration": 1.171990000000001
                },
                {
                    "name": "E5",
                    "midi": 76,
                    "time": 21.38881749999998,
                    "velocity": 0.6850393700787402,
                    "duration": 0.29299749999999847
                },
                {
                    "name": "D5",
                    "midi": 74,
                    "time": 21.68181499999998,
                    "velocity": 0.7086614173228346,
                    "duration": 0.25637281250000044
                },
                {
                    "name": "D5",
                    "midi": 74,
                    "time": 21.97481249999998,
                    "velocity": 0.7716535433070866,
                    "duration": 0.29299749999999847
                },
                {
                    "name": "B4",
                    "midi": 71,
                    "time": 22.26780999999998,
                    "velocity": 0.6850393700787402,
                    "duration": 0.29299749999999847
                },
                {
                    "name": "G4",
                    "midi": 67,
                    "time": 22.560807499999978,
                    "velocity": 0.6062992125984252,
                    "duration": 0.29299749999999847
                },
                {
                    "name": "E4",
                    "midi": 64,
                    "time": 22.853804999999976,
                    "velocity": 0.6141732283464567,
                    "duration": 0.5859950000000005
                },
                {
                    "name": "A4",
                    "midi": 69,
                    "time": 23.439799999999977,
                    "velocity": 0.6141732283464567,
                    "duration": 0.29299749999999847
                },
                {
                    "name": "F#4",
                    "midi": 66,
                    "time": 23.732797499999975,
                    "velocity": 0.6141732283464567,
                    "duration": 0.43949625000000125
                },
                {
                    "name": "F#4",
                    "midi": 66,
                    "time": 24.172293749999977,
                    "velocity": 0.6456692913385826,
                    "duration": 0.07324937499999962
                },
                {
                    "name": "A4",
                    "midi": 69,
                    "time": 24.318792499999976,
                    "velocity": 0.6692913385826772,
                    "duration": 0.07324937499999962
                },
                {
                    "name": "D5",
                    "midi": 74,
                    "time": 24.465291249999975,
                    "velocity": 0.7165354330708661,
                    "duration": 0.07324937499999962
                },
                {
                    "name": "F#5",
                    "midi": 78,
                    "time": 24.611789999999974,
                    "velocity": 0.7322834645669292,
                    "duration": 0.29299749999999847
                },
                {
                    "name": "E5",
                    "midi": 76,
                    "time": 24.904787499999973,
                    "velocity": 0.6850393700787402,
                    "duration": 0.29299749999999847
                },
                {
                    "name": "D5",
                    "midi": 74,
                    "time": 25.19778499999997,
                    "velocity": 0.7086614173228346,
                    "duration": 0.25637281250000044
                },
                {
                    "name": "D5",
                    "midi": 74,
                    "time": 25.490782499999973,
                    "velocity": 0.7716535433070866,
                    "duration": 0.29299749999999847
                },
                {
                    "name": "B4",
                    "midi": 71,
                    "time": 25.78377999999997,
                    "velocity": 0.6377952755905512,
                    "duration": 0.29299749999999847
                },
                {
                    "name": "G4",
                    "midi": 67,
                    "time": 26.07677749999997,
                    "velocity": 0.5196850393700787,
                    "duration": 0.29299749999999847
                },
                {
                    "name": "E4",
                    "midi": 64,
                    "time": 26.36977499999997,
                    "velocity": 0.4881889763779528,
                    "duration": 0.5859950000000005
                },
                {
                    "name": "G4",
                    "midi": 67,
                    "time": 26.95576999999997,
                    "velocity": 0.4881889763779528,
                    "duration": 0.29299749999999847
                },
                {
                    "name": "D4",
                    "midi": 62,
                    "time": 27.248767499999968,
                    "velocity": 0.4881889763779528,
                    "duration": 0.5859950000000005
                },
                {
                    "name": "G4",
                    "midi": 67,
                    "time": 27.834762499999968,
                    "velocity": 0.4094488188976378,
                    "duration": 0.29299749999999847
                },
                {
                    "name": "E4",
                    "midi": 64,
                    "time": 28.127759999999967,
                    "velocity": 0.4094488188976378,
                    "duration": 0.5859950000000005
                },
                {
                    "name": "G4",
                    "midi": 67,
                    "time": 28.713754999999967,
                    "velocity": 0.4094488188976378,
                    "duration": 0.29299749999999847
                },
                {
                    "name": "D4",
                    "midi": 62,
                    "time": 29.006752499999966,
                    "velocity": 0.4094488188976378,
                    "duration": 0.5859950000000005
                },
                {
                    "name": "F#4",
                    "midi": 66,
                    "time": 30.471739999999965,
                    "velocity": 0.3937007874015748,
                    "duration": 0.14649874999999923
                },
                {
                    "name": "F#4",
                    "midi": 66,
                    "time": 30.764737499999963,
                    "velocity": 0.4409448818897638,
                    "duration": 0.29299749999999847
                },
                {
                    "name": "G#4",
                    "midi": 68,
                    "time": 31.057734999999962,
                    "velocity": 0.4566929133858268,
                    "duration": 0.07324937499999962
                },
                {
                    "name": "A#4",
                    "midi": 70,
                    "time": 31.20423374999996,
                    "velocity": 0.4645669291338583,
                    "duration": 0.07324937499999962
                },
                {
                    "name": "B4",
                    "midi": 71,
                    "time": 31.35073249999996,
                    "velocity": 0.49606299212598426,
                    "duration": 0.07324937499999962
                },
                {
                    "name": "C#5",
                    "midi": 73,
                    "time": 31.49723124999996,
                    "velocity": 0.5196850393700787,
                    "duration": 0.07324937499999962
                },
                {
                    "name": "D5",
                    "midi": 74,
                    "time": 31.64372999999996,
                    "velocity": 0.5826771653543307,
                    "duration": 0.29299749999999847
                },
                {
                    "name": "A#4",
                    "midi": 70,
                    "time": 31.936727499999957,
                    "velocity": 0.49606299212598426,
                    "duration": 0.292997500000002
                },
                {
                    "name": "B4",
                    "midi": 71,
                    "time": 32.22972499999996,
                    "velocity": 0.5039370078740157,
                    "duration": 0.29299749999999847
                },
                {
                    "name": "E5",
                    "midi": 76,
                    "time": 32.52272249999996,
                    "velocity": 0.5984251968503937,
                    "duration": 0.29299749999999847
                },
                {
                    "name": "A#4",
                    "midi": 70,
                    "time": 32.815719999999956,
                    "velocity": 0.5196850393700787,
                    "duration": 0.29299749999999847
                },
                {
                    "name": "B4",
                    "midi": 71,
                    "time": 33.108717499999955,
                    "velocity": 0.5590551181102362,
                    "duration": 0.29299749999999847
                },
                {
                    "name": "C#5",
                    "midi": 73,
                    "time": 33.40171499999995,
                    "velocity": 0.6377952755905512,
                    "duration": 0.5859949999999969
                },
                {
                    "name": "G5",
                    "midi": 79,
                    "time": 33.98770999999995,
                    "velocity": 0.6692913385826772,
                    "duration": 0.29299749999999847
                },
                {
                    "name": "F#5",
                    "midi": 78,
                    "time": 34.28070749999995,
                    "velocity": 0.7322834645669292,
                    "duration": 0.4394962499999977
                },
                {
                    "name": "E5",
                    "midi": 76,
                    "time": 34.720203749999946,
                    "velocity": 0.6377952755905512,
                    "duration": 0.07324937500000317
                },
                {
                    "name": "D5",
                    "midi": 74,
                    "time": 34.86670249999995,
                    "velocity": 0.6771653543307087,
                    "duration": 0.07324937500000317
                },
                {
                    "name": "C#5",
                    "midi": 73,
                    "time": 35.01320124999996,
                    "velocity": 0.6771653543307087,
                    "duration": 0.07324937500000317
                },
                {
                    "name": "E5",
                    "midi": 76,
                    "time": 35.159699999999965,
                    "velocity": 0.7244094488188977,
                    "duration": 0.4394962499999977
                },
                {
                    "name": "D5",
                    "midi": 74,
                    "time": 35.59919624999996,
                    "velocity": 0.5905511811023622,
                    "duration": 0.07324937500000317
                },
                {
                    "name": "C#5",
                    "midi": 73,
                    "time": 35.74569499999997,
                    "velocity": 0.5905511811023622,
                    "duration": 0.07324937500000317
                },
                {
                    "name": "B4",
                    "midi": 71,
                    "time": 35.892193749999976,
                    "velocity": 0.6614173228346457,
                    "duration": 0.07324937500000317
                },
                {
                    "name": "A4",
                    "midi": 69,
                    "time": 36.03869249999998,
                    "velocity": 0.7086614173228346,
                    "duration": 0.4394962499999977
                },
                {
                    "name": "G#4",
                    "midi": 68,
                    "time": 36.47818874999998,
                    "velocity": 0.5354330708661418,
                    "duration": 0.07324937500000317
                },
                {
                    "name": "F#4",
                    "midi": 66,
                    "time": 36.624687499999986,
                    "velocity": 0.5196850393700787,
                    "duration": 0.07324937500000317
                },
                {
                    "name": "F4",
                    "midi": 65,
                    "time": 36.77118624999999,
                    "velocity": 0.5669291338582677,
                    "duration": 0.07324937500000317
                },
                {
                    "name": "F4",
                    "midi": 65,
                    "time": 36.917685,
                    "velocity": 0.6141732283464567,
                    "duration": 0.29299749999999847
                },
                {
                    "name": "F#4",
                    "midi": 66,
                    "time": 37.2106825,
                    "velocity": 0.5039370078740157,
                    "duration": 0.2563728124999969
                },
                {
                    "name": "F#4",
                    "midi": 66,
                    "time": 37.503679999999996,
                    "velocity": 0.48031496062992124,
                    "duration": 0.14649874999999923
                },
                {
                    "name": "F#4",
                    "midi": 66,
                    "time": 37.796677499999994,
                    "velocity": 0.4409448818897638,
                    "duration": 0.29299749999999847
                },
                {
                    "name": "G#4",
                    "midi": 68,
                    "time": 38.08967499999999,
                    "velocity": 0.4566929133858268,
                    "duration": 0.07324937500000317
                },
                {
                    "name": "A#4",
                    "midi": 70,
                    "time": 38.23617375,
                    "velocity": 0.4645669291338583,
                    "duration": 0.07324937500000317
                },
                {
                    "name": "B4",
                    "midi": 71,
                    "time": 38.382672500000005,
                    "velocity": 0.49606299212598426,
                    "duration": 0.07324937500000317
                },
                {
                    "name": "C#5",
                    "midi": 73,
                    "time": 38.52917125000001,
                    "velocity": 0.5196850393700787,
                    "duration": 0.07324937500000317
                },
                {
                    "name": "D5",
                    "midi": 74,
                    "time": 38.67567000000002,
                    "velocity": 0.5826771653543307,
                    "duration": 0.29299749999999847
                },
                {
                    "name": "A#4",
                    "midi": 70,
                    "time": 38.968667500000016,
                    "velocity": 0.49606299212598426,
                    "duration": 0.29299749999999847
                },
                {
                    "name": "B4",
                    "midi": 71,
                    "time": 39.261665000000015,
                    "velocity": 0.5118110236220472,
                    "duration": 0.29299749999999847
                },
                {
                    "name": "F5",
                    "midi": 77,
                    "time": 39.55466250000001,
                    "velocity": 0.6141732283464567,
                    "duration": 0.29299749999999847
                },
                {
                    "name": "C5",
                    "midi": 72,
                    "time": 39.84766000000001,
                    "velocity": 0.5275590551181102,
                    "duration": 0.29299749999999847
                },
                {
                    "name": "C#5",
                    "midi": 73,
                    "time": 40.14065750000001,
                    "velocity": 0.5748031496062992,
                    "duration": 0.29299749999999847
                },
                {
                    "name": "F#5",
                    "midi": 78,
                    "time": 40.43365500000001,
                    "velocity": 0.6771653543307087,
                    "duration": 0.5859949999999969
                },
                {
                    "name": "F#5",
                    "midi": 78,
                    "time": 41.019650000000006,
                    "velocity": 0.6692913385826772,
                    "duration": 0.29299749999999847
                },
                {
                    "name": "E5",
                    "midi": 76,
                    "time": 41.312647500000004,
                    "velocity": 0.7322834645669292,
                    "duration": 0.4394962499999977
                },
                {
                    "name": "D5",
                    "midi": 74,
                    "time": 41.75214375,
                    "velocity": 0.6377952755905512,
                    "duration": 0.07324937500000317
                },
                {
                    "name": "C#5",
                    "midi": 73,
                    "time": 41.89864250000001,
                    "velocity": 0.6771653543307087,
                    "duration": 0.07324937500000317
                },
                {
                    "name": "D5",
                    "midi": 74,
                    "time": 42.045141250000015,
                    "velocity": 0.6771653543307087,
                    "duration": 0.07324937500000317
                },
                {
                    "name": "C#5",
                    "midi": 73,
                    "time": 42.19164000000002,
                    "velocity": 0.6377952755905512,
                    "duration": 0.5859949999999969
                },
                {
                    "name": "F#5",
                    "midi": 78,
                    "time": 42.77763500000002,
                    "velocity": 0.6692913385826772,
                    "duration": 0.29299749999999847
                },
                {
                    "name": "E5",
                    "midi": 76,
                    "time": 43.070632500000016,
                    "velocity": 0.7322834645669292,
                    "duration": 0.4394962499999977
                },
                {
                    "name": "D5",
                    "midi": 74,
                    "time": 43.510128750000014,
                    "velocity": 0.6377952755905512,
                    "duration": 0.07324937500000317
                },
                {
                    "name": "C#5",
                    "midi": 73,
                    "time": 43.65662750000002,
                    "velocity": 0.6771653543307087,
                    "duration": 0.07324937500000317
                },
                {
                    "name": "D5",
                    "midi": 74,
                    "time": 43.80312625000003,
                    "velocity": 0.6771653543307087,
                    "duration": 0.07324937500000317
                },
                {
                    "name": "C#5",
                    "midi": 73,
                    "time": 43.94962500000003,
                    "velocity": 0.7322834645669292,
                    "duration": 0.4394962499999977
                },
                {
                    "name": "F#4",
                    "midi": 66,
                    "time": 44.38912125000003,
                    "velocity": 0.4015748031496063,
                    "duration": 0.07324937500000317
                },
                {
                    "name": "F4",
                    "midi": 65,
                    "time": 44.53562000000004,
                    "velocity": 0.41732283464566927,
                    "duration": 0.07324937500000317
                },
                {
                    "name": "F#4",
                    "midi": 66,
                    "time": 44.68211875000004,
                    "velocity": 0.4409448818897638,
                    "duration": 0.07324937500000317
                },
                {
                    "name": "G#4",
                    "midi": 68,
                    "time": 44.82861750000005,
                    "velocity": 0.4566929133858268,
                    "duration": 0.4394962499999977
                },
                {
                    "name": "F#4",
                    "midi": 66,
                    "time": 44.82861750000005,
                    "velocity": 0.3858267716535433,
                    "duration": 0.4394962499999977
                },
                {
                    "name": "D4",
                    "midi": 62,
                    "time": 44.82861750000005,
                    "velocity": 0.3858267716535433,
                    "duration": 0.4394962499999977
                },
                {
                    "name": "G#4",
                    "midi": 68,
                    "time": 45.26811375000005,
                    "velocity": 0.4409448818897638,
                    "duration": 0.07324937500000317
                },
                {
                    "name": "F#4",
                    "midi": 66,
                    "time": 45.414612500000054,
                    "velocity": 0.4645669291338583,
                    "duration": 0.07324937500000317
                },
                {
                    "name": "G#4",
                    "midi": 68,
                    "time": 45.56111125000006,
                    "velocity": 0.4881889763779528,
                    "duration": 0.07324937500000317
                },
                {
                    "name": "F#4",
                    "midi": 66,
                    "time": 45.70761000000007,
                    "velocity": 0.4409448818897638,
                    "duration": 0.36624687500000164
                },
                {
                    "name": "A4",
                    "midi": 69,
                    "time": 45.70761000000007,
                    "velocity": 0.5196850393700787,
                    "duration": 0.36624687500000164
                },
                {
                    "name": "B4",
                    "midi": 71,
                    "time": 46.12268979166674,
                    "velocity": 0.48031496062992124,
                    "duration": 0.02441645833333439
                },
                {
                    "name": "A4",
                    "midi": 69,
                    "time": 46.14710625000007,
                    "velocity": 0.48031496062992124,
                    "duration": 0.07324937500000317
                },
                {
                    "name": "G#4",
                    "midi": 68,
                    "time": 46.29360500000008,
                    "velocity": 0.4881889763779528,
                    "duration": 0.07324937500000317
                },
                {
                    "name": "A4",
                    "midi": 69,
                    "time": 46.440103750000084,
                    "velocity": 0.5196850393700787,
                    "duration": 0.07324937500000317
                },
                {
                    "name": "B4",
                    "midi": 71,
                    "time": 46.58660250000009,
                    "velocity": 0.5669291338582677,
                    "duration": 0.4394962499999977
                },
                {
                    "name": "F#4",
                    "midi": 66,
                    "time": 46.58660250000009,
                    "velocity": 0.48031496062992124,
                    "duration": 0.4394962499999977
                },
                {
                    "name": "B4",
                    "midi": 71,
                    "time": 47.02609875000009,
                    "velocity": 0.49606299212598426,
                    "duration": 0.07324937500000317
                },
                {
                    "name": "A4",
                    "midi": 69,
                    "time": 47.172597500000094,
                    "velocity": 0.5275590551181102,
                    "duration": 0.07324937500000317
                },
                {
                    "name": "B4",
                    "midi": 71,
                    "time": 47.3190962500001,
                    "velocity": 0.5354330708661418,
                    "duration": 0.07324937500000317
                },
                {
                    "name": "C#5",
                    "midi": 73,
                    "time": 47.46559500000011,
                    "velocity": 0.5748031496062992,
                    "duration": 0.36624687500000164
                },
                {
                    "name": "A4",
                    "midi": 69,
                    "time": 47.46559500000011,
                    "velocity": 0.4881889763779528,
                    "duration": 0.36624687500000164
                },
                {
                    "name": "F#4",
                    "midi": 66,
                    "time": 47.46559500000011,
                    "velocity": 0.4881889763779528,
                    "duration": 0.36624687500000164
                },
                {
                    "name": "D5",
                    "midi": 74,
                    "time": 47.88067479166678,
                    "velocity": 0.5354330708661418,
                    "duration": 0.02441645833333439
                },
                {
                    "name": "C#5",
                    "midi": 73,
                    "time": 47.90509125000011,
                    "velocity": 0.5354330708661418,
                    "duration": 0.07324937500000317
                },
                {
                    "name": "C5",
                    "midi": 72,
                    "time": 48.05159000000012,
                    "velocity": 0.5511811023622047,
                    "duration": 0.07324937500000317
                },
                {
                    "name": "C#5",
                    "midi": 73,
                    "time": 48.198088750000124,
                    "velocity": 0.5748031496062992,
                    "duration": 0.07324937500000317
                },
                {
                    "name": "G#4",
                    "midi": 68,
                    "time": 48.34458750000013,
                    "velocity": 0.5433070866141733,
                    "duration": 0.4394962499999977
                },
                {
                    "name": "C#5",
                    "midi": 73,
                    "time": 48.34458750000013,
                    "velocity": 0.5433070866141733,
                    "duration": 0.4394962499999977
                },
                {
                    "name": "F5",
                    "midi": 77,
                    "time": 48.34458750000013,
                    "velocity": 0.6456692913385826,
                    "duration": 0.4394962499999977
                },
                {
                    "name": "F5",
                    "midi": 77,
                    "time": 48.78408375000013,
                    "velocity": 0.5748031496062992,
                    "duration": 0.07324937500000317
                },
                {
                    "name": "D#5",
                    "midi": 75,
                    "time": 48.930582500000135,
                    "velocity": 0.6141732283464567,
                    "duration": 0.07324937500000317
                },
                {
                    "name": "F5",
                    "midi": 77,
                    "time": 49.07708125000014,
                    "velocity": 0.6535433070866141,
                    "duration": 0.07324937500000317
                },
                {
                    "name": "F#5",
                    "midi": 78,
                    "time": 49.22358000000015,
                    "velocity": 0.7322834645669292,
                    "duration": 1.171990000000001
                },
                {
                    "name": "E5",
                    "midi": 76,
                    "time": 50.39557000000015,
                    "velocity": 0.6850393700787402,
                    "duration": 0.29299749999999847
                },
                {
                    "name": "D5",
                    "midi": 74,
                    "time": 50.68856750000015,
                    "velocity": 0.7086614173228346,
                    "duration": 0.2563728124999969
                },
                {
                    "name": "D5",
                    "midi": 74,
                    "time": 50.981565000000145,
                    "velocity": 0.7716535433070866,
                    "duration": 0.29299749999999847
                },
                {
                    "name": "B4",
                    "midi": 71,
                    "time": 51.274562500000144,
                    "velocity": 0.6850393700787402,
                    "duration": 0.29299749999999847
                },
                {
                    "name": "G4",
                    "midi": 67,
                    "time": 51.56756000000014,
                    "velocity": 0.6062992125984252,
                    "duration": 0.29299749999999847
                },
                {
                    "name": "E4",
                    "midi": 64,
                    "time": 51.86055750000014,
                    "velocity": 0.6141732283464567,
                    "duration": 0.5859949999999969
                },
                {
                    "name": "A4",
                    "midi": 69,
                    "time": 52.44655250000014,
                    "velocity": 0.6141732283464567,
                    "duration": 0.29299749999999847
                },
                {
                    "name": "F#4",
                    "midi": 66,
                    "time": 52.739550000000136,
                    "velocity": 0.6141732283464567,
                    "duration": 0.4394962499999977
                },
                {
                    "name": "F#4",
                    "midi": 66,
                    "time": 53.179046250000134,
                    "velocity": 0.6456692913385826,
                    "duration": 0.07324937500000317
                },
                {
                    "name": "A4",
                    "midi": 69,
                    "time": 53.32554500000014,
                    "velocity": 0.6692913385826772,
                    "duration": 0.07324937500000317
                },
                {
                    "name": "D5",
                    "midi": 74,
                    "time": 53.47204375000015,
                    "velocity": 0.7165354330708661,
                    "duration": 0.07324937500000317
                },
                {
                    "name": "F#5",
                    "midi": 78,
                    "time": 53.61854250000015,
                    "velocity": 0.7322834645669292,
                    "duration": 0.29299749999999847
                },
                {
                    "name": "E5",
                    "midi": 76,
                    "time": 53.91154000000015,
                    "velocity": 0.6850393700787402,
                    "duration": 0.29299749999999847
                },
                {
                    "name": "D5",
                    "midi": 74,
                    "time": 54.20453750000015,
                    "velocity": 0.7086614173228346,
                    "duration": 0.2563728124999969
                },
                {
                    "name": "D5",
                    "midi": 74,
                    "time": 54.49753500000015,
                    "velocity": 0.7716535433070866,
                    "duration": 0.29299749999999847
                },
                {
                    "name": "B4",
                    "midi": 71,
                    "time": 54.79053250000015,
                    "velocity": 0.6377952755905512,
                    "duration": 0.29299749999999847
                },
                {
                    "name": "G4",
                    "midi": 67,
                    "time": 55.083530000000145,
                    "velocity": 0.5196850393700787,
                    "duration": 0.29299749999999847
                },
                {
                    "name": "E4",
                    "midi": 64,
                    "time": 55.376527500000144,
                    "velocity": 0.4881889763779528,
                    "duration": 0.5859949999999969
                },
                {
                    "name": "G4",
                    "midi": 67,
                    "time": 55.96252250000014,
                    "velocity": 0.4881889763779528,
                    "duration": 0.29299749999999847
                },
                {
                    "name": "D4",
                    "midi": 62,
                    "time": 56.25552000000014,
                    "velocity": 0.4881889763779528,
                    "duration": 0.5859949999999969
                },
                {
                    "name": "G4",
                    "midi": 67,
                    "time": 56.841515000000136,
                    "velocity": 0.4094488188976378,
                    "duration": 0.29299749999999847
                },
                {
                    "name": "E4",
                    "midi": 64,
                    "time": 57.134512500000135,
                    "velocity": 0.4094488188976378,
                    "duration": 0.5859949999999969
                },
                {
                    "name": "G4",
                    "midi": 67,
                    "time": 57.72050750000013,
                    "velocity": 0.4094488188976378,
                    "duration": 0.29299749999999847
                },
                {
                    "name": "D4",
                    "midi": 62,
                    "time": 58.01350500000013,
                    "velocity": 0.4094488188976378,
                    "duration": 0.5859949999999969
                },
                {
                    "name": "G4",
                    "midi": 67,
                    "time": 58.59950000000013,
                    "velocity": 0.4094488188976378,
                    "duration": 0.29299749999999847
                },
                {
                    "name": "D#4",
                    "midi": 63,
                    "time": 58.892497500000125,
                    "velocity": 0.4094488188976378,
                    "duration": 0.5859949999999969
                },
                {
                    "name": "G4",
                    "midi": 67,
                    "time": 59.47849250000012,
                    "velocity": 0.4094488188976378,
                    "duration": 0.29299749999999847
                },
                {
                    "name": "E4",
                    "midi": 64,
                    "time": 59.77149000000012,
                    "velocity": 0.44881889763779526,
                    "duration": 0.5859949999999969
                },
                {
                    "name": "G#4",
                    "midi": 68,
                    "time": 60.35748500000012,
                    "velocity": 0.5039370078740157,
                    "duration": 0.29299749999999847
                },
                {
                    "name": "B4",
                    "midi": 71,
                    "time": 60.650482500000116,
                    "velocity": 0.6062992125984252,
                    "duration": 0.29299749999999847
                },
                {
                    "name": "G#4",
                    "midi": 68,
                    "time": 60.943480000000115,
                    "velocity": 0.5669291338582677,
                    "duration": 0.29299749999999847
                },
                {
                    "name": "E4",
                    "midi": 64,
                    "time": 61.23647750000011,
                    "velocity": 0.5826771653543307,
                    "duration": 0.29299749999999847
                },
                {
                    "name": "E4",
                    "midi": 64,
                    "time": 61.52947500000011,
                    "velocity": 0.5669291338582677,
                    "duration": 0.5859949999999969
                },
                {
                    "name": "A4",
                    "midi": 69,
                    "time": 62.11547000000011,
                    "velocity": 0.4094488188976378,
                    "duration": 0.29299749999999847
                },
                {
                    "name": "F4",
                    "midi": 65,
                    "time": 62.40846750000011,
                    "velocity": 0.4881889763779528,
                    "duration": 0.5859949999999969
                },
                {
                    "name": "A4",
                    "midi": 69,
                    "time": 62.994462500000104,
                    "velocity": 0.5118110236220472,
                    "duration": 0.29299749999999847
                },
                {
                    "name": "F#4",
                    "midi": 66,
                    "time": 63.2874600000001,
                    "velocity": 0.5748031496062992,
                    "duration": 0.5859949999999969
                },
                {
                    "name": "A#4",
                    "midi": 70,
                    "time": 63.8734550000001,
                    "velocity": 0.5669291338582677,
                    "duration": 0.2929975000000056
                },
                {
                    "name": "C#5",
                    "midi": 73,
                    "time": 64.1664525000001,
                    "velocity": 0.6535433070866141,
                    "duration": 0.29299749999999847
                },
                {
                    "name": "A#4",
                    "midi": 70,
                    "time": 64.4594500000001,
                    "velocity": 0.5905511811023622,
                    "duration": 0.29299749999999847
                },
                {
                    "name": "F#4",
                    "midi": 66,
                    "time": 64.7524475000001,
                    "velocity": 0.5826771653543307,
                    "duration": 0.2807892708333384
                },
                {
                    "name": "F#4",
                    "midi": 66,
                    "time": 65.0454450000001,
                    "velocity": 0.5511811023622047,
                    "duration": 0.5859949999999969
                },
                {
                    "name": "B4",
                    "midi": 71,
                    "time": 65.6314400000001,
                    "velocity": 0.5511811023622047,
                    "duration": 0.2807892708333384
                },
                {
                    "name": "B4",
                    "midi": 71,
                    "time": 65.9244375000001,
                    "velocity": 0.5511811023622047,
                    "duration": 0.5737867708333368
                },
                {
                    "name": "B4",
                    "midi": 71,
                    "time": 66.51043250000009,
                    "velocity": 0.5511811023622047,
                    "duration": 0.2807892708333384
                },
                {
                    "name": "B4",
                    "midi": 71,
                    "time": 66.80343000000009,
                    "velocity": 0.6220472440944882,
                    "duration": 0.29299749999999847
                },
                {
                    "name": "C#5",
                    "midi": 73,
                    "time": 67.09642750000009,
                    "velocity": 0.5984251968503937,
                    "duration": 0.07324937500000317
                },
                {
                    "name": "D#5",
                    "midi": 75,
                    "time": 67.2429262500001,
                    "velocity": 0.6062992125984252,
                    "duration": 0.07324937500000317
                },
                {
                    "name": "E5",
                    "midi": 76,
                    "time": 67.3894250000001,
                    "velocity": 0.6220472440944882,
                    "duration": 0.07324937500000317
                },
                {
                    "name": "F#5",
                    "midi": 78,
                    "time": 67.53592375000011,
                    "velocity": 0.6535433070866141,
                    "duration": 0.07324937500000317
                },
                {
                    "name": "G5",
                    "midi": 79,
                    "time": 67.68242250000011,
                    "velocity": 0.6692913385826772,
                    "duration": 0.8789924999999954
                },
                {
                    "name": "G4",
                    "midi": 67,
                    "time": 67.68242250000011,
                    "velocity": 0.6692913385826772,
                    "duration": 1.1719899999999939
                },
                {
                    "name": "E5",
                    "midi": 76,
                    "time": 68.56141500000011,
                    "velocity": 0.6692913385826772,
                    "duration": 0.29299749999999847
                },
                {
                    "name": "G4",
                    "midi": 67,
                    "time": 69.14741000000011,
                    "velocity": 0.5511811023622047,
                    "duration": 0.2807892708333384
                },
                {
                    "name": "G4",
                    "midi": 67,
                    "time": 69.4404075000001,
                    "velocity": 0.5511811023622047,
                    "duration": 0.5737867708333368
                },
                {
                    "name": "G4",
                    "midi": 67,
                    "time": 70.0264025000001,
                    "velocity": 0.5511811023622047,
                    "duration": 0.2807892708333384
                },
                {
                    "name": "G4",
                    "midi": 67,
                    "time": 70.3194000000001,
                    "velocity": 0.6220472440944882,
                    "duration": 0.29299749999999847
                },
                {
                    "name": "A4",
                    "midi": 69,
                    "time": 70.6123975000001,
                    "velocity": 0.5984251968503937,
                    "duration": 0.07324937500000317
                },
                {
                    "name": "B4",
                    "midi": 71,
                    "time": 70.7588962500001,
                    "velocity": 0.6062992125984252,
                    "duration": 0.07324937500000317
                },
                {
                    "name": "C5",
                    "midi": 72,
                    "time": 70.90539500000011,
                    "velocity": 0.6220472440944882,
                    "duration": 0.07324937500000317
                },
                {
                    "name": "D5",
                    "midi": 74,
                    "time": 71.05189375000012,
                    "velocity": 0.6535433070866141,
                    "duration": 0.07324937500000317
                },
                {
                    "name": "E5",
                    "midi": 76,
                    "time": 71.19839250000012,
                    "velocity": 0.6692913385826772,
                    "duration": 0.8789924999999954
                },
                {
                    "name": "E4",
                    "midi": 64,
                    "time": 71.19839250000012,
                    "velocity": 0.6692913385826772,
                    "duration": 1.1719899999999939
                },
                {
                    "name": "C5",
                    "midi": 72,
                    "time": 72.07738500000012,
                    "velocity": 0.6692913385826772,
                    "duration": 0.29299749999999847
                },
                {
                    "name": "C5",
                    "midi": 72,
                    "time": 72.66338000000012,
                    "velocity": 0.5511811023622047,
                    "duration": 0.2807892708333384
                },
                {
                    "name": "B4",
                    "midi": 71,
                    "time": 72.95637750000012,
                    "velocity": 0.6220472440944882,
                    "duration": 0.29299749999999847
                },
                {
                    "name": "C#5",
                    "midi": 73,
                    "time": 73.24937500000011,
                    "velocity": 0.6141732283464567,
                    "duration": 0.07324937500000317
                },
                {
                    "name": "D#5",
                    "midi": 75,
                    "time": 73.39587375000012,
                    "velocity": 0.6614173228346457,
                    "duration": 0.07324937500000317
                },
                {
                    "name": "E5",
                    "midi": 76,
                    "time": 73.54237250000013,
                    "velocity": 0.6692913385826772,
                    "duration": 0.07324937500000317
                },
                {
                    "name": "F#5",
                    "midi": 78,
                    "time": 73.68887125000013,
                    "velocity": 0.6850393700787402,
                    "duration": 0.07324937500000317
                },
                {
                    "name": "G5",
                    "midi": 79,
                    "time": 73.83537000000014,
                    "velocity": 0.7401574803149606,
                    "duration": 0.29299749999999847
                },
                {
                    "name": "E5",
                    "midi": 76,
                    "time": 74.12836750000014,
                    "velocity": 0.6850393700787402,
                    "duration": 0.29299749999999847
                },
                {
                    "name": "C5",
                    "midi": 72,
                    "time": 74.42136500000014,
                    "velocity": 0.6850393700787402,
                    "duration": 0.29299749999999847
                },
                {
                    "name": "G5",
                    "midi": 79,
                    "time": 74.71436250000014,
                    "velocity": 0.7401574803149606,
                    "duration": 0.29299749999999847
                },
                {
                    "name": "E5",
                    "midi": 76,
                    "time": 75.00736000000013,
                    "velocity": 0.6771653543307087,
                    "duration": 0.29299749999999847
                },
                {
                    "name": "B4",
                    "midi": 71,
                    "time": 75.30035750000013,
                    "velocity": 0.6614173228346457,
                    "duration": 0.29299749999999847
                },
                {
                    "name": "G5",
                    "midi": 79,
                    "time": 75.59335500000013,
                    "velocity": 0.7007874015748031,
                    "duration": 0.29299749999999847
                },
                {
                    "name": "E5",
                    "midi": 76,
                    "time": 75.88635250000013,
                    "velocity": 0.6377952755905512,
                    "duration": 0.29299749999999847
                },
                {
                    "name": "A#4",
                    "midi": 70,
                    "time": 76.17935000000013,
                    "velocity": 0.6299212598425197,
                    "duration": 0.29299749999999847
                },
                {
                    "name": "F#5",
                    "midi": 78,
                    "time": 76.47234750000013,
                    "velocity": 0.6614173228346457,
                    "duration": 0.29299749999999847
                },
                {
                    "name": "D5",
                    "midi": 74,
                    "time": 76.76534500000012,
                    "velocity": 0.6062992125984252,
                    "duration": 0.29299749999999847
                },
                {
                    "name": "B4",
                    "midi": 71,
                    "time": 77.05834250000012,
                    "velocity": 0.5905511811023622,
                    "duration": 0.29299749999999847
                },
                {
                    "name": "D5",
                    "midi": 74,
                    "time": 77.35134000000012,
                    "velocity": 0.6220472440944882,
                    "duration": 0.29299749999999847
                },
                {
                    "name": "B4",
                    "midi": 71,
                    "time": 77.64433750000012,
                    "velocity": 0.5748031496062992,
                    "duration": 0.29299749999999847
                },
                {
                    "name": "G4",
                    "midi": 67,
                    "time": 77.93733500000012,
                    "velocity": 0.5590551181102362,
                    "duration": 0.29299749999999847
                },
                {
                    "name": "B4",
                    "midi": 71,
                    "time": 78.23033250000012,
                    "velocity": 0.5511811023622047,
                    "duration": 0.29299749999999847
                },
                {
                    "name": "G4",
                    "midi": 67,
                    "time": 78.52333000000012,
                    "velocity": 0.4645669291338583,
                    "duration": 0.29299749999999847
                },
                {
                    "name": "D4",
                    "midi": 62,
                    "time": 78.81632750000011,
                    "velocity": 0.4251968503937008,
                    "duration": 0.29299749999999847
                },
                {
                    "name": "G4",
                    "midi": 67,
                    "time": 79.10932500000011,
                    "velocity": 0.4094488188976378,
                    "duration": 0.29299749999999847
                },
                {
                    "name": "D4",
                    "midi": 62,
                    "time": 79.40232250000011,
                    "velocity": 0.3779527559055118,
                    "duration": 0.29299749999999847
                },
                {
                    "name": "B3",
                    "midi": 59,
                    "time": 79.69532000000011,
                    "velocity": 0.3779527559055118,
                    "duration": 0.29299749999999847
                },
                {
                    "name": "D4",
                    "midi": 62,
                    "time": 79.98831750000011,
                    "velocity": 0.4094488188976378,
                    "duration": 0.29299749999999847
                },
                {
                    "name": "B3",
                    "midi": 59,
                    "time": 80.2813150000001,
                    "velocity": 0.3779527559055118,
                    "duration": 0.29299749999999847
                },
                {
                    "name": "F3",
                    "midi": 53,
                    "time": 80.5743125000001,
                    "velocity": 0.3779527559055118,
                    "duration": 0.29299749999999847
                },
                {
                    "name": "F#3",
                    "midi": 54,
                    "time": 80.8673100000001,
                    "velocity": 0.4094488188976378,
                    "duration": 0.2197481249999953
                },
                {
                    "name": "A#4",
                    "midi": 70,
                    "time": 81.1603075000001,
                    "velocity": 0.4881889763779528,
                    "duration": 0.07324937500000317
                },
                {
                    "name": "A#3",
                    "midi": 58,
                    "time": 81.1603075000001,
                    "velocity": 0.4094488188976378,
                    "duration": 0.07324937500000317
                },
                {
                    "name": "B4",
                    "midi": 71,
                    "time": 81.30680625000011,
                    "velocity": 0.5118110236220472,
                    "duration": 0.07324937500000317
                },
                {
                    "name": "B3",
                    "midi": 59,
                    "time": 81.30680625000011,
                    "velocity": 0.4330708661417323,
                    "duration": 0.07324937500000317
                },
                {
                    "name": "C#5",
                    "midi": 73,
                    "time": 81.45330500000011,
                    "velocity": 0.5275590551181102,
                    "duration": 0.07324937500000317
                },
                {
                    "name": "C#4",
                    "midi": 61,
                    "time": 81.45330500000011,
                    "velocity": 0.4409448818897638,
                    "duration": 0.07324937500000317
                },
                {
                    "name": "D5",
                    "midi": 74,
                    "time": 81.59980375000012,
                    "velocity": 0.5511811023622047,
                    "duration": 0.07324937500000317
                },
                {
                    "name": "D4",
                    "midi": 62,
                    "time": 81.59980375000012,
                    "velocity": 0.4645669291338583,
                    "duration": 0.07324937500000317
                },
                {
                    "name": "E4",
                    "midi": 64,
                    "time": 81.74630250000013,
                    "velocity": 0.5196850393700787,
                    "duration": 0.8789924999999954
                },
                {
                    "name": "E5",
                    "midi": 76,
                    "time": 81.74630250000013,
                    "velocity": 0.6141732283464567,
                    "duration": 0.8789924999999954
                },
                {
                    "name": "F#4",
                    "midi": 66,
                    "time": 82.77179375000013,
                    "velocity": 0.4645669291338583,
                    "duration": 0.07324937500000317
                },
                {
                    "name": "F#5",
                    "midi": 78,
                    "time": 82.77179375000013,
                    "velocity": 0.5590551181102362,
                    "duration": 0.07324937500000317
                },
                {
                    "name": "A#5",
                    "midi": 82,
                    "time": 82.91829250000013,
                    "velocity": 0.5590551181102362,
                    "duration": 0.07324937500000317
                },
                {
                    "name": "A#4",
                    "midi": 70,
                    "time": 82.91829250000013,
                    "velocity": 0.4645669291338583,
                    "duration": 0.07324937500000317
                },
                {
                    "name": "B5",
                    "midi": 83,
                    "time": 83.06479125000014,
                    "velocity": 0.5826771653543307,
                    "duration": 0.07324937500000317
                },
                {
                    "name": "B4",
                    "midi": 71,
                    "time": 83.06479125000014,
                    "velocity": 0.49606299212598426,
                    "duration": 0.07324937500000317
                },
                {
                    "name": "C#6",
                    "midi": 85,
                    "time": 83.21129000000015,
                    "velocity": 0.6062992125984252,
                    "duration": 0.07324937500000317
                },
                {
                    "name": "C#5",
                    "midi": 73,
                    "time": 83.21129000000015,
                    "velocity": 0.5039370078740157,
                    "duration": 0.07324937500000317
                },
                {
                    "name": "D6",
                    "midi": 86,
                    "time": 83.35778875000015,
                    "velocity": 0.6299212598425197,
                    "duration": 0.07324937500000317
                },
                {
                    "name": "D5",
                    "midi": 74,
                    "time": 83.35778875000015,
                    "velocity": 0.5275590551181102,
                    "duration": 0.07324937500000317
                },
                {
                    "name": "E5",
                    "midi": 76,
                    "time": 83.50428750000016,
                    "velocity": 0.5905511811023622,
                    "duration": 0.988866562499993
                },
                {
                    "name": "E6",
                    "midi": 88,
                    "time": 83.50428750000016,
                    "velocity": 0.7007874015748031,
                    "duration": 0.988866562499993
                },
                {
                    "name": "F#4",
                    "midi": 66,
                    "time": 84.52977875000015,
                    "velocity": 0.41732283464566927,
                    "duration": 0.14649875000000634
                },
                {
                    "name": "A#4",
                    "midi": 70,
                    "time": 84.67627750000015,
                    "velocity": 0.41732283464566927,
                    "duration": 0.14649875000000634
                },
                {
                    "name": "B4",
                    "midi": 71,
                    "time": 84.82277625000016,
                    "velocity": 0.41732283464566927,
                    "duration": 0.14649875000000634
                },
                {
                    "name": "C#5",
                    "midi": 73,
                    "time": 84.96927500000017,
                    "velocity": 0.4330708661417323,
                    "duration": 0.14649875000000634
                },
                {
                    "name": "D5",
                    "midi": 74,
                    "time": 85.11577375000017,
                    "velocity": 0.4409448818897638,
                    "duration": 0.14649875000000634
                },
                {
                    "name": "E5",
                    "midi": 76,
                    "time": 85.26227250000018,
                    "velocity": 0.44881889763779526,
                    "duration": 0.13429052083333204
                },
                {
                    "name": "F#4",
                    "midi": 66,
                    "time": 85.40877125000017,
                    "velocity": 0.4015748031496063,
                    "duration": 0.14649875000000634
                },
                {
                    "name": "A#4",
                    "midi": 70,
                    "time": 85.55527000000018,
                    "velocity": 0.4015748031496063,
                    "duration": 0.14649875000000634
                },
                {
                    "name": "B4",
                    "midi": 71,
                    "time": 85.70176875000018,
                    "velocity": 0.41732283464566927,
                    "duration": 0.14649875000000634
                },
                {
                    "name": "C#5",
                    "midi": 73,
                    "time": 85.84826750000019,
                    "velocity": 0.4251968503937008,
                    "duration": 0.14649875000000634
                },
                {
                    "name": "D5",
                    "midi": 74,
                    "time": 85.9947662500002,
                    "velocity": 0.4330708661417323,
                    "duration": 0.14649875000000634
                },
                {
                    "name": "E5",
                    "midi": 76,
                    "time": 86.1412650000002,
                    "velocity": 0.4566929133858268,
                    "duration": 0.13429052083333204
                },
                {
                    "name": "A#4",
                    "midi": 70,
                    "time": 86.2877637500002,
                    "velocity": 0.4409448818897638,
                    "duration": 0.14649875000000634
                },
                {
                    "name": "C#5",
                    "midi": 73,
                    "time": 86.4342625000002,
                    "velocity": 0.4409448818897638,
                    "duration": 0.14649875000000634
                },
                {
                    "name": "D5",
                    "midi": 74,
                    "time": 86.58076125000021,
                    "velocity": 0.44881889763779526,
                    "duration": 0.14649875000000634
                },
                {
                    "name": "E5",
                    "midi": 76,
                    "time": 86.72726000000021,
                    "velocity": 0.49606299212598426,
                    "duration": 0.14649875000000634
                },
                {
                    "name": "F#5",
                    "midi": 78,
                    "time": 86.87375875000022,
                    "velocity": 0.5275590551181102,
                    "duration": 0.14649875000000634
                },
                {
                    "name": "G5",
                    "midi": 79,
                    "time": 87.02025750000023,
                    "velocity": 0.5354330708661418,
                    "duration": 0.13429052083333204
                },
                {
                    "name": "A#4",
                    "midi": 70,
                    "time": 87.16675625000022,
                    "velocity": 0.4881889763779528,
                    "duration": 0.14649875000000634
                },
                {
                    "name": "C#5",
                    "midi": 73,
                    "time": 87.31325500000023,
                    "velocity": 0.49606299212598426,
                    "duration": 0.14649875000000634
                },
                {
                    "name": "D5",
                    "midi": 74,
                    "time": 87.45975375000023,
                    "velocity": 0.5275590551181102,
                    "duration": 0.14649875000000634
                },
                {
                    "name": "E5",
                    "midi": 76,
                    "time": 87.60625250000024,
                    "velocity": 0.5354330708661418,
                    "duration": 0.14649875000000634
                },
                {
                    "name": "F#5",
                    "midi": 78,
                    "time": 87.75275125000024,
                    "velocity": 0.5590551181102362,
                    "duration": 0.14649875000000634
                },
                {
                    "name": "G5",
                    "midi": 79,
                    "time": 87.89925000000025,
                    "velocity": 0.5511811023622047,
                    "duration": 0.14649875000000634
                },
                {
                    "name": "F#5",
                    "midi": 78,
                    "time": 88.04574875000026,
                    "velocity": 0.5039370078740157,
                    "duration": 0.14649875000000634
                },
                {
                    "name": "E5",
                    "midi": 76,
                    "time": 88.19224750000026,
                    "velocity": 0.5511811023622047,
                    "duration": 0.14649875000000634
                },
                {
                    "name": "D5",
                    "midi": 74,
                    "time": 88.33874625000027,
                    "velocity": 0.5196850393700787,
                    "duration": 0.14649875000000634
                },
                {
                    "name": "C#5",
                    "midi": 73,
                    "time": 88.48524500000028,
                    "velocity": 0.5511811023622047,
                    "duration": 0.14649875000000634
                },
                {
                    "name": "D5",
                    "midi": 74,
                    "time": 88.63174375000028,
                    "velocity": 0.5433070866141733,
                    "duration": 0.14649875000000634
                },
                {
                    "name": "E5",
                    "midi": 76,
                    "time": 88.77824250000029,
                    "velocity": 0.5984251968503937,
                    "duration": 0.14649875000000634
                },
                {
                    "name": "D5",
                    "midi": 74,
                    "time": 88.9247412500003,
                    "velocity": 0.49606299212598426,
                    "duration": 0.14649875000000634
                },
                {
                    "name": "C#5",
                    "midi": 73,
                    "time": 89.0712400000003,
                    "velocity": 0.5196850393700787,
                    "duration": 0.14649875000000634
                },
                {
                    "name": "B4",
                    "midi": 71,
                    "time": 89.21773875000031,
                    "velocity": 0.4645669291338583,
                    "duration": 0.14649875000000634
                },
                {
                    "name": "A#4",
                    "midi": 70,
                    "time": 89.36423750000031,
                    "velocity": 0.49606299212598426,
                    "duration": 0.14649875000000634
                },
                {
                    "name": "B4",
                    "midi": 71,
                    "time": 89.51073625000032,
                    "velocity": 0.4645669291338583,
                    "duration": 0.14649875000000634
                },
                {
                    "name": "C#5",
                    "midi": 73,
                    "time": 89.65723500000033,
                    "velocity": 0.4881889763779528,
                    "duration": 0.14649875000000634
                },
                {
                    "name": "A#4",
                    "midi": 70,
                    "time": 89.80373375000033,
                    "velocity": 0.3937007874015748,
                    "duration": 0.14649875000000634
                },
                {
                    "name": "G4",
                    "midi": 67,
                    "time": 89.95023250000034,
                    "velocity": 0.4645669291338583,
                    "duration": 0.14649875000000634
                },
                {
                    "name": "F#4",
                    "midi": 66,
                    "time": 90.09673125000035,
                    "velocity": 0.4015748031496063,
                    "duration": 0.14649875000000634
                },
                {
                    "name": "E4",
                    "midi": 64,
                    "time": 90.24323000000035,
                    "velocity": 0.4566929133858268,
                    "duration": 0.14649875000000634
                },
                {
                    "name": "F#4",
                    "midi": 66,
                    "time": 90.38972875000036,
                    "velocity": 0.4015748031496063,
                    "duration": 0.14649875000000634
                },
                {
                    "name": "G4",
                    "midi": 67,
                    "time": 90.53622750000036,
                    "velocity": 0.4330708661417323,
                    "duration": 0.14649875000000634
                },
                {
                    "name": "E4",
                    "midi": 64,
                    "time": 90.68272625000037,
                    "velocity": 0.3779527559055118,
                    "duration": 0.14649875000000634
                },
                {
                    "name": "C#4",
                    "midi": 61,
                    "time": 90.82922500000038,
                    "velocity": 0.4015748031496063,
                    "duration": 0.14649875000000634
                },
                {
                    "name": "B3",
                    "midi": 59,
                    "time": 90.97572375000038,
                    "velocity": 0.3779527559055118,
                    "duration": 0.14649875000000634
                },
                {
                    "name": "A#3",
                    "midi": 58,
                    "time": 91.12222250000039,
                    "velocity": 0.3779527559055118,
                    "duration": 0.14649875000000634
                },
                {
                    "name": "F#4",
                    "midi": 66,
                    "time": 91.12222250000039,
                    "velocity": 0.3937007874015748,
                    "duration": 0.2197481250000095
                },
                {
                    "name": "B3",
                    "midi": 59,
                    "time": 91.2687212500004,
                    "velocity": 0.3779527559055118,
                    "duration": 0.14649875000000634
                },
                {
                    "name": "F#4",
                    "midi": 66,
                    "time": 91.4152200000004,
                    "velocity": 0.4409448818897638,
                    "duration": 0.29299749999999847
                },
                {
                    "name": "G#4",
                    "midi": 68,
                    "time": 91.7082175000004,
                    "velocity": 0.4566929133858268,
                    "duration": 0.07324937500000317
                },
                {
                    "name": "A#4",
                    "midi": 70,
                    "time": 91.85471625000041,
                    "velocity": 0.4645669291338583,
                    "duration": 0.07324937500000317
                },
                {
                    "name": "B4",
                    "midi": 71,
                    "time": 92.00121500000041,
                    "velocity": 0.49606299212598426,
                    "duration": 0.07324937500000317
                },
                {
                    "name": "C#5",
                    "midi": 73,
                    "time": 92.14771375000042,
                    "velocity": 0.5196850393700787,
                    "duration": 0.07324937500000317
                },
                {
                    "name": "D5",
                    "midi": 74,
                    "time": 92.29421250000043,
                    "velocity": 0.5826771653543307,
                    "duration": 0.29299749999999847
                },
                {
                    "name": "A#4",
                    "midi": 70,
                    "time": 92.58721000000043,
                    "velocity": 0.49606299212598426,
                    "duration": 0.29299749999999847
                },
                {
                    "name": "B4",
                    "midi": 71,
                    "time": 92.88020750000042,
                    "velocity": 0.5039370078740157,
                    "duration": 0.29299749999999847
                },
                {
                    "name": "E5",
                    "midi": 76,
                    "time": 93.17320500000042,
                    "velocity": 0.5354330708661418,
                    "duration": 0.29299749999999847
                },
                {
                    "name": "A#4",
                    "midi": 70,
                    "time": 93.46620250000042,
                    "velocity": 0.4645669291338583,
                    "duration": 0.29299749999999847
                },
                {
                    "name": "B4",
                    "midi": 71,
                    "time": 93.75920000000042,
                    "velocity": 0.49606299212598426,
                    "duration": 0.29299749999999847
                },
                {
                    "name": "C#5",
                    "midi": 73,
                    "time": 94.05219750000042,
                    "velocity": 0.5669291338582677,
                    "duration": 0.5859949999999969
                },
                {
                    "name": "F#4",
                    "midi": 66,
                    "time": 94.63819250000041,
                    "velocity": 0.48031496062992124,
                    "duration": 0.2197481249999953
                },
                {
                    "name": "F#4",
                    "midi": 66,
                    "time": 94.93119000000041,
                    "velocity": 0.5039370078740157,
                    "duration": 0.29299749999999847
                },
                {
                    "name": "G#4",
                    "midi": 68,
                    "time": 95.22418750000041,
                    "velocity": 0.5196850393700787,
                    "duration": 0.07324937500000317
                },
                {
                    "name": "A#4",
                    "midi": 70,
                    "time": 95.37068625000042,
                    "velocity": 0.5275590551181102,
                    "duration": 0.07324937500000317
                },
                {
                    "name": "B4",
                    "midi": 71,
                    "time": 95.51718500000042,
                    "velocity": 0.5669291338582677,
                    "duration": 0.07324937500000317
                },
                {
                    "name": "C#5",
                    "midi": 73,
                    "time": 95.66368375000043,
                    "velocity": 0.5905511811023622,
                    "duration": 0.07324937500000317
                },
                {
                    "name": "D5",
                    "midi": 74,
                    "time": 95.81018250000044,
                    "velocity": 0.6692913385826772,
                    "duration": 0.29299749999999847
                },
                {
                    "name": "A#4",
                    "midi": 70,
                    "time": 96.10318000000044,
                    "velocity": 0.5669291338582677,
                    "duration": 0.29299749999999847
                },
                {
                    "name": "B4",
                    "midi": 71,
                    "time": 96.39617750000043,
                    "velocity": 0.5748031496062992,
                    "duration": 0.29299749999999847
                },
                {
                    "name": "E5",
                    "midi": 76,
                    "time": 96.68917500000043,
                    "velocity": 0.6850393700787402,
                    "duration": 0.29299749999999847
                },
                {
                    "name": "A#4",
                    "midi": 70,
                    "time": 96.98217250000043,
                    "velocity": 0.5905511811023622,
                    "duration": 0.29299749999999847
                },
                {
                    "name": "B4",
                    "midi": 71,
                    "time": 97.27517000000043,
                    "velocity": 0.6377952755905512,
                    "duration": 0.29299749999999847
                },
                {
                    "name": "C#5",
                    "midi": 73,
                    "time": 97.56816750000043,
                    "velocity": 0.7322834645669292,
                    "duration": 0.5859949999999969
                },
                {
                    "name": "F#4",
                    "midi": 66,
                    "time": 98.15416250000042,
                    "velocity": 0.6377952755905512,
                    "duration": 0.2197481249999953
                },
                {
                    "name": "F#4",
                    "midi": 66,
                    "time": 98.44716000000042,
                    "velocity": 0.7007874015748031,
                    "duration": 0.2868933854166613
                },
                {
                    "name": "G#4",
                    "midi": 68,
                    "time": 98.74015750000042,
                    "velocity": 0.6614173228346457,
                    "duration": 0.07324937500000317
                },
                {
                    "name": "A#4",
                    "midi": 70,
                    "time": 98.88665625000043,
                    "velocity": 0.6692913385826772,
                    "duration": 0.07324937500000317
                },
                {
                    "name": "B4",
                    "midi": 71,
                    "time": 99.03315500000043,
                    "velocity": 0.7007874015748031,
                    "duration": 0.07324937500000317
                },
                {
                    "name": "C#5",
                    "midi": 73,
                    "time": 99.17965375000044,
                    "velocity": 0.7322834645669292,
                    "duration": 0.07324937500000317
                },
                {
                    "name": "F#4",
                    "midi": 66,
                    "time": 99.32615250000045,
                    "velocity": 0.6456692913385826,
                    "duration": 0.29299749999999847
                },
                {
                    "name": "D5",
                    "midi": 74,
                    "time": 99.32615250000045,
                    "velocity": 0.7637795275590551,
                    "duration": 0.29299749999999847
                },
                {
                    "name": "E4",
                    "midi": 64,
                    "time": 99.61915000000045,
                    "velocity": 0.5118110236220472,
                    "duration": 0.29299749999999847
                },
                {
                    "name": "A#4",
                    "midi": 70,
                    "time": 99.61915000000045,
                    "velocity": 0.6062992125984252,
                    "duration": 0.29299749999999847
                },
                {
                    "name": "D4",
                    "midi": 62,
                    "time": 99.91214750000044,
                    "velocity": 0.5669291338582677,
                    "duration": 0.29299749999999847
                },
                {
                    "name": "B4",
                    "midi": 71,
                    "time": 99.91214750000044,
                    "velocity": 0.6692913385826772,
                    "duration": 0.29299749999999847
                },
                {
                    "name": "C4",
                    "midi": 60,
                    "time": 100.20514500000044,
                    "velocity": 0.5748031496062992,
                    "duration": 0.29299749999999847
                },
                {
                    "name": "F#4",
                    "midi": 66,
                    "time": 100.20514500000044,
                    "velocity": 0.6850393700787402,
                    "duration": 0.29299749999999847
                },
                {
                    "name": "B3",
                    "midi": 59,
                    "time": 100.49814250000044,
                    "velocity": 0.5118110236220472,
                    "duration": 0.29299749999999847
                },
                {
                    "name": "G4",
                    "midi": 67,
                    "time": 100.49814250000044,
                    "velocity": 0.6062992125984252,
                    "duration": 0.29299749999999847
                },
                {
                    "name": "C4",
                    "midi": 60,
                    "time": 100.79114000000044,
                    "velocity": 0.5669291338582677,
                    "duration": 0.29299749999999847
                },
                {
                    "name": "F#4",
                    "midi": 66,
                    "time": 100.79114000000044,
                    "velocity": 0.6692913385826772,
                    "duration": 0.29299749999999847
                },
                {
                    "name": "B3",
                    "midi": 59,
                    "time": 101.08413750000044,
                    "velocity": 0.5748031496062992,
                    "duration": 0.29299749999999847
                },
                {
                    "name": "G4",
                    "midi": 67,
                    "time": 101.08413750000044,
                    "velocity": 0.6850393700787402,
                    "duration": 0.29299749999999847
                },
                {
                    "name": "F4",
                    "midi": 65,
                    "time": 101.37713500000044,
                    "velocity": 0.5826771653543307,
                    "duration": 0.29299749999999847
                },
                {
                    "name": "B4",
                    "midi": 71,
                    "time": 101.37713500000044,
                    "velocity": 0.6929133858267716,
                    "duration": 0.29299749999999847
                },
                {
                    "name": "E4",
                    "midi": 64,
                    "time": 101.67013250000043,
                    "velocity": 0.5669291338582677,
                    "duration": 0.29299749999999847
                },
                {
                    "name": "C#5",
                    "midi": 73,
                    "time": 101.67013250000043,
                    "velocity": 0.6692913385826772,
                    "duration": 0.29299749999999847
                },
                {
                    "name": "D4",
                    "midi": 62,
                    "time": 101.96313000000043,
                    "velocity": 0.5748031496062992,
                    "duration": 0.29299749999999847
                },
                {
                    "name": "G#4",
                    "midi": 68,
                    "time": 101.96313000000043,
                    "velocity": 0.6850393700787402,
                    "duration": 0.29299749999999847
                },
                {
                    "name": "C#4",
                    "midi": 61,
                    "time": 102.25612750000043,
                    "velocity": 0.5118110236220472,
                    "duration": 0.29299749999999847
                },
                {
                    "name": "A4",
                    "midi": 69,
                    "time": 102.25612750000043,
                    "velocity": 0.6062992125984252,
                    "duration": 0.29299749999999847
                },
                {
                    "name": "D4",
                    "midi": 62,
                    "time": 102.54912500000043,
                    "velocity": 0.5669291338582677,
                    "duration": 0.29299749999999847
                },
                {
                    "name": "G#4",
                    "midi": 68,
                    "time": 102.54912500000043,
                    "velocity": 0.6692913385826772,
                    "duration": 0.29299749999999847
                },
                {
                    "name": "C#4",
                    "midi": 61,
                    "time": 102.84212250000043,
                    "velocity": 0.5748031496062992,
                    "duration": 0.29299749999999847
                },
                {
                    "name": "A4",
                    "midi": 69,
                    "time": 102.84212250000043,
                    "velocity": 0.6850393700787402,
                    "duration": 0.29299749999999847
                },
                {
                    "name": "B4",
                    "midi": 71,
                    "time": 103.13512000000043,
                    "velocity": 0.5826771653543307,
                    "duration": 0.29299749999999847
                },
                {
                    "name": "F5",
                    "midi": 77,
                    "time": 103.13512000000043,
                    "velocity": 0.6929133858267716,
                    "duration": 0.29299749999999847
                },
                {
                    "name": "A4",
                    "midi": 69,
                    "time": 103.42811750000043,
                    "velocity": 0.5669291338582677,
                    "duration": 0.29299749999999847
                },
                {
                    "name": "F#5",
                    "midi": 78,
                    "time": 103.42811750000043,
                    "velocity": 0.6692913385826772,
                    "duration": 0.29299749999999847
                },
                {
                    "name": "G4",
                    "midi": 67,
                    "time": 103.72111500000042,
                    "velocity": 0.5748031496062992,
                    "duration": 0.29299749999999847
                },
                {
                    "name": "C#5",
                    "midi": 73,
                    "time": 103.72111500000042,
                    "velocity": 0.6850393700787402,
                    "duration": 0.29299749999999847
                },
                {
                    "name": "F#4",
                    "midi": 66,
                    "time": 104.01411250000042,
                    "velocity": 0.5118110236220472,
                    "duration": 0.29299749999999847
                },
                {
                    "name": "D5",
                    "midi": 74,
                    "time": 104.01411250000042,
                    "velocity": 0.6062992125984252,
                    "duration": 0.29299749999999847
                },
                {
                    "name": "G4",
                    "midi": 67,
                    "time": 104.30711000000042,
                    "velocity": 0.5669291338582677,
                    "duration": 0.29299749999999847
                },
                {
                    "name": "C#5",
                    "midi": 73,
                    "time": 104.30711000000042,
                    "velocity": 0.6692913385826772,
                    "duration": 0.29299749999999847
                },
                {
                    "name": "F#4",
                    "midi": 66,
                    "time": 104.60010750000042,
                    "velocity": 0.5748031496062992,
                    "duration": 0.29299749999999847
                },
                {
                    "name": "D5",
                    "midi": 74,
                    "time": 104.60010750000042,
                    "velocity": 0.6850393700787402,
                    "duration": 0.29299749999999847
                },
                {
                    "name": "A#3",
                    "midi": 58,
                    "time": 104.89310500000042,
                    "velocity": 0.5826771653543307,
                    "duration": 0.29299749999999847
                },
                {
                    "name": "A#4",
                    "midi": 70,
                    "time": 104.89310500000042,
                    "velocity": 0.6929133858267716,
                    "duration": 0.29299749999999847
                },
                {
                    "name": "B3",
                    "midi": 59,
                    "time": 105.18610250000042,
                    "velocity": 0.5669291338582677,
                    "duration": 0.29299749999999847
                },
                {
                    "name": "B4",
                    "midi": 71,
                    "time": 105.18610250000042,
                    "velocity": 0.6692913385826772,
                    "duration": 0.29299749999999847
                },
                {
                    "name": "C#4",
                    "midi": 61,
                    "time": 105.47910000000041,
                    "velocity": 0.5748031496062992,
                    "duration": 0.29299749999999847
                },
                {
                    "name": "C#5",
                    "midi": 73,
                    "time": 105.47910000000041,
                    "velocity": 0.6850393700787402,
                    "duration": 0.29299749999999847
                },
                {
                    "name": "D4",
                    "midi": 62,
                    "time": 105.77209750000041,
                    "velocity": 0.5826771653543307,
                    "duration": 0.29299749999999847
                },
                {
                    "name": "D5",
                    "midi": 74,
                    "time": 105.77209750000041,
                    "velocity": 0.6929133858267716,
                    "duration": 0.29299749999999847
                },
                {
                    "name": "E4",
                    "midi": 64,
                    "time": 106.06509500000041,
                    "velocity": 0.5748031496062992,
                    "duration": 0.29299749999999847
                },
                {
                    "name": "E5",
                    "midi": 76,
                    "time": 106.06509500000041,
                    "velocity": 0.6771653543307087,
                    "duration": 0.29299749999999847
                },
                {
                    "name": "F#4",
                    "midi": 66,
                    "time": 106.35809250000041,
                    "velocity": 0.5905511811023622,
                    "duration": 0.29299749999999847
                },
                {
                    "name": "F#5",
                    "midi": 78,
                    "time": 106.35809250000041,
                    "velocity": 0.7007874015748031,
                    "duration": 0.29299749999999847
                },
                {
                    "name": "F4",
                    "midi": 65,
                    "time": 106.65109000000041,
                    "velocity": 0.6062992125984252,
                    "duration": 0.29299749999999847
                },
                {
                    "name": "F5",
                    "midi": 77,
                    "time": 106.65109000000041,
                    "velocity": 0.7244094488188977,
                    "duration": 0.29299749999999847
                },
                {
                    "name": "F#4",
                    "midi": 66,
                    "time": 106.9440875000004,
                    "velocity": 0.5984251968503937,
                    "duration": 0.29299749999999847
                },
                {
                    "name": "F#5",
                    "midi": 78,
                    "time": 106.9440875000004,
                    "velocity": 0.7086614173228346,
                    "duration": 0.29299749999999847
                },
                {
                    "name": "G4",
                    "midi": 67,
                    "time": 107.2370850000004,
                    "velocity": 0.6220472440944882,
                    "duration": 0.29299749999999847
                },
                {
                    "name": "G5",
                    "midi": 79,
                    "time": 107.2370850000004,
                    "velocity": 0.7401574803149606,
                    "duration": 0.29299749999999847
                },
                {
                    "name": "G#4",
                    "midi": 68,
                    "time": 107.5300825000004,
                    "velocity": 0.6377952755905512,
                    "duration": 0.29299749999999847
                },
                {
                    "name": "G#5",
                    "midi": 80,
                    "time": 107.5300825000004,
                    "velocity": 0.7559055118110236,
                    "duration": 0.29299749999999847
                },
                {
                    "name": "A#4",
                    "midi": 70,
                    "time": 107.8230800000004,
                    "velocity": 0.6299212598425197,
                    "duration": 0.29299749999999847
                },
                {
                    "name": "A#5",
                    "midi": 82,
                    "time": 107.8230800000004,
                    "velocity": 0.7401574803149606,
                    "duration": 0.29299749999999847
                },
                {
                    "name": "B5",
                    "midi": 83,
                    "time": 108.1160775000004,
                    "velocity": 0.8031496062992126,
                    "duration": 1.1719899999999939
                },
                {
                    "name": "A5",
                    "midi": 81,
                    "time": 109.2880675000004,
                    "velocity": 0.7480314960629921,
                    "duration": 0.29299749999999847
                },
                {
                    "name": "G5",
                    "midi": 79,
                    "time": 109.5810650000004,
                    "velocity": 0.7795275590551181,
                    "duration": 0.256372812500004
                },
                {
                    "name": "G5",
                    "midi": 79,
                    "time": 109.87406250000039,
                    "velocity": 0.84251968503937,
                    "duration": 0.29299749999999847
                },
                {
                    "name": "E5",
                    "midi": 76,
                    "time": 110.16706000000039,
                    "velocity": 0.7480314960629921,
                    "duration": 0.29299749999999847
                },
                {
                    "name": "C5",
                    "midi": 72,
                    "time": 110.46005750000039,
                    "velocity": 0.6614173228346457,
                    "duration": 0.29299749999999847
                },
                {
                    "name": "A4",
                    "midi": 69,
                    "time": 110.75305500000039,
                    "velocity": 0.6692913385826772,
                    "duration": 0.5859949999999969
                },
                {
                    "name": "D5",
                    "midi": 74,
                    "time": 111.33905000000038,
                    "velocity": 0.6692913385826772,
                    "duration": 0.29299749999999847
                },
                {
                    "name": "B4",
                    "midi": 71,
                    "time": 111.63204750000038,
                    "velocity": 0.6692913385826772,
                    "duration": 0.4394962500000048
                },
                {
                    "name": "B4",
                    "midi": 71,
                    "time": 112.07154375000039,
                    "velocity": 0.7086614173228346,
                    "duration": 0.07324937500000317
                },
                {
                    "name": "D5",
                    "midi": 74,
                    "time": 112.2180425000004,
                    "velocity": 0.7322834645669292,
                    "duration": 0.07324937500000317
                },
                {
                    "name": "G5",
                    "midi": 79,
                    "time": 112.3645412500004,
                    "velocity": 0.7874015748031497,
                    "duration": 0.07324937500000317
                },
                {
                    "name": "B5",
                    "midi": 83,
                    "time": 112.5110400000004,
                    "velocity": 0.8031496062992126,
                    "duration": 0.29299749999999847
                },
                {
                    "name": "A5",
                    "midi": 81,
                    "time": 112.8040375000004,
                    "velocity": 0.7480314960629921,
                    "duration": 0.29299749999999847
                },
                {
                    "name": "G5",
                    "midi": 79,
                    "time": 113.0970350000004,
                    "velocity": 0.7795275590551181,
                    "duration": 0.256372812500004
                },
                {
                    "name": "G5",
                    "midi": 79,
                    "time": 113.3900325000004,
                    "velocity": 0.84251968503937,
                    "duration": 0.29299749999999847
                },
                {
                    "name": "E5",
                    "midi": 76,
                    "time": 113.6830300000004,
                    "velocity": 0.6771653543307087,
                    "duration": 0.29299749999999847
                },
                {
                    "name": "C5",
                    "midi": 72,
                    "time": 113.9760275000004,
                    "velocity": 0.5354330708661418,
                    "duration": 0.29299749999999847
                },
                {
                    "name": "A4",
                    "midi": 69,
                    "time": 114.2690250000004,
                    "velocity": 0.4881889763779528,
                    "duration": 0.5859949999999969
                },
                {
                    "name": "C5",
                    "midi": 72,
                    "time": 114.8550200000004,
                    "velocity": 0.4881889763779528,
                    "duration": 0.29299749999999847
                },
                {
                    "name": "G4",
                    "midi": 67,
                    "time": 115.14801750000039,
                    "velocity": 0.4881889763779528,
                    "duration": 0.5859949999999969
                },
                {
                    "name": "C5",
                    "midi": 72,
                    "time": 115.73401250000039,
                    "velocity": 0.4094488188976378,
                    "duration": 0.29299749999999847
                },
                {
                    "name": "A4",
                    "midi": 69,
                    "time": 116.02701000000039,
                    "velocity": 0.4094488188976378,
                    "duration": 0.5859949999999969
                },
                {
                    "name": "C5",
                    "midi": 72,
                    "time": 116.61300500000038,
                    "velocity": 0.4094488188976378,
                    "duration": 0.29299749999999847
                },
                {
                    "name": "G4",
                    "midi": 67,
                    "time": 116.90600250000038,
                    "velocity": 0.4094488188976378,
                    "duration": 0.5859949999999969
                },
                {
                    "name": "C5",
                    "midi": 72,
                    "time": 118.37099000000038,
                    "velocity": 0.44881889763779526,
                    "duration": 0.29299749999999847
                },
                {
                    "name": "B4",
                    "midi": 71,
                    "time": 118.66398750000037,
                    "velocity": 0.49606299212598426,
                    "duration": 0.5859949999999969
                },
                {
                    "name": "A4",
                    "midi": 69,
                    "time": 119.24998250000037,
                    "velocity": 0.44881889763779526,
                    "duration": 0.29299749999999847
                },
                {
                    "name": "G#4",
                    "midi": 68,
                    "time": 119.54298000000037,
                    "velocity": 0.4881889763779528,
                    "duration": 0.5859949999999969
                },
                {
                    "name": "G4",
                    "midi": 67,
                    "time": 120.12897500000037,
                    "velocity": 0.44881889763779526,
                    "duration": 0.29299749999999847
                },
                {
                    "name": "F#4",
                    "midi": 66,
                    "time": 120.42197250000036,
                    "velocity": 0.4881889763779528,
                    "duration": 0.29299749999999847
                },
                {
                    "name": "A#4",
                    "midi": 70,
                    "time": 120.71497000000036,
                    "velocity": 0.5275590551181102,
                    "duration": 0.29299749999999847
                },
                {
                    "name": "C#5",
                    "midi": 73,
                    "time": 121.00796750000036,
                    "velocity": 0.5511811023622047,
                    "duration": 0.29299749999999847
                },
                {
                    "name": "E5",
                    "midi": 76,
                    "time": 121.30096500000036,
                    "velocity": 0.6614173228346457,
                    "duration": 0.29299749999999847
                },
                {
                    "name": "D#5",
                    "midi": 75,
                    "time": 121.59396250000036,
                    "velocity": 0.6062992125984252,
                    "duration": 0.29299749999999847
                },
                {
                    "name": "C5",
                    "midi": 72,
                    "time": 121.88696000000036,
                    "velocity": 0.5511811023622047,
                    "duration": 0.29299749999999847
                },
                {
                    "name": "B4",
                    "midi": 71,
                    "time": 122.17995750000036,
                    "velocity": 0.5748031496062992,
                    "duration": 0.5859949999999969
                },
                {
                    "name": "A4",
                    "midi": 69,
                    "time": 122.76595250000035,
                    "velocity": 0.5196850393700787,
                    "duration": 0.29299749999999847
                },
                {
                    "name": "G#4",
                    "midi": 68,
                    "time": 123.05895000000035,
                    "velocity": 0.48031496062992124,
                    "duration": 0.5859949999999969
                },
                {
                    "name": "G4",
                    "midi": 67,
                    "time": 123.64494500000035,
                    "velocity": 0.48031496062992124,
                    "duration": 0.29299749999999847
                },
                {
                    "name": "F#4",
                    "midi": 66,
                    "time": 123.93794250000035,
                    "velocity": 0.4881889763779528,
                    "duration": 0.29299749999999847
                },
                {
                    "name": "A#4",
                    "midi": 70,
                    "time": 124.23094000000034,
                    "velocity": 0.5275590551181102,
                    "duration": 0.29299749999999847
                },
                {
                    "name": "C#5",
                    "midi": 73,
                    "time": 124.52393750000034,
                    "velocity": 0.5511811023622047,
                    "duration": 0.29299749999999847
                },
                {
                    "name": "E5",
                    "midi": 76,
                    "time": 124.81693500000034,
                    "velocity": 0.6692913385826772,
                    "duration": 0.29299749999999847
                },
                {
                    "name": "D#5",
                    "midi": 75,
                    "time": 125.10993250000034,
                    "velocity": 0.6062992125984252,
                    "duration": 0.29299749999999847
                },
                {
                    "name": "C5",
                    "midi": 72,
                    "time": 125.40293000000034,
                    "velocity": 0.5748031496062992,
                    "duration": 0.29299749999999847
                },
                {
                    "name": "B4",
                    "midi": 71,
                    "time": 125.69592750000034,
                    "velocity": 0.6692913385826772,
                    "duration": 1.1719899999999939
                },
                {
                    "name": "D5",
                    "midi": 74,
                    "time": 127.16091500000033,
                    "velocity": 0.5748031496062992,
                    "duration": 0.29299749999999847
                },
                {
                    "name": "C#5",
                    "midi": 73,
                    "time": 127.45391250000033,
                    "velocity": 0.6692913385826772,
                    "duration": 1.171990000000008
                },
                {
                    "name": "E5",
                    "midi": 76,
                    "time": 128.91890000000035,
                    "velocity": 0.5748031496062992,
                    "duration": 0.2929975000000127
                },
                {
                    "name": "D5",
                    "midi": 74,
                    "time": 129.21189750000036,
                    "velocity": 0.6692913385826772,
                    "duration": 0.2929975000000127
                },
                {
                    "name": "E5",
                    "midi": 76,
                    "time": 129.50489500000037,
                    "velocity": 0.6614173228346457,
                    "duration": 0.07324937499998896
                },
                {
                    "name": "F#4",
                    "midi": 66,
                    "time": 129.50489500000037,
                    "velocity": 0.5590551181102362,
                    "duration": 0.07324937499998896
                },
                {
                    "name": "F#4",
                    "midi": 66,
                    "time": 129.65139375000035,
                    "velocity": 0.4881889763779528,
                    "duration": 0.07324937499998896
                },
                {
                    "name": "D5",
                    "midi": 74,
                    "time": 129.65139375000035,
                    "velocity": 0.5826771653543307,
                    "duration": 0.07324937499998896
                },
                {
                    "name": "C#5",
                    "midi": 73,
                    "time": 129.79789250000033,
                    "velocity": 0.6456692913385826,
                    "duration": 0.07324937499998896
                },
                {
                    "name": "F#4",
                    "midi": 66,
                    "time": 129.79789250000033,
                    "velocity": 0.5433070866141733,
                    "duration": 0.07324937499998896
                },
                {
                    "name": "B4",
                    "midi": 71,
                    "time": 129.9443912500003,
                    "velocity": 0.6220472440944882,
                    "duration": 0.07324937499998896
                },
                {
                    "name": "F#4",
                    "midi": 66,
                    "time": 129.9443912500003,
                    "velocity": 0.5275590551181102,
                    "duration": 0.07324937499998896
                },
                {
                    "name": "G5",
                    "midi": 79,
                    "time": 130.0908900000003,
                    "velocity": 0.6692913385826772,
                    "duration": 0.14649875000000634
                },
                {
                    "name": "A#4",
                    "midi": 70,
                    "time": 130.3838875000003,
                    "velocity": 0.6614173228346457,
                    "duration": 0.4394962499999906
                },
                {
                    "name": "G4",
                    "midi": 67,
                    "time": 130.3838875000003,
                    "velocity": 0.5590551181102362,
                    "duration": 0.4394962499999906
                },
                {
                    "name": "B4",
                    "midi": 71,
                    "time": 130.8233837500003,
                    "velocity": 0.6220472440944882,
                    "duration": 0.13429052083333204
                },
                {
                    "name": "F#4",
                    "midi": 66,
                    "time": 130.8233837500003,
                    "velocity": 0.5275590551181102,
                    "duration": 0.13429052083333204
                },
                {
                    "name": "F#4",
                    "midi": 66,
                    "time": 130.9698825000003,
                    "velocity": 0.5275590551181102,
                    "duration": 0.14649875000000634
                },
                {
                    "name": "B4",
                    "midi": 71,
                    "time": 130.9698825000003,
                    "velocity": 0.6220472440944882,
                    "duration": 0.14649875000000634
                },
                {
                    "name": "D#4",
                    "midi": 63,
                    "time": 131.1163812500003,
                    "velocity": 0.4330708661417323,
                    "duration": 0.07324937499998896
                },
                {
                    "name": "C5",
                    "midi": 72,
                    "time": 131.1163812500003,
                    "velocity": 0.4330708661417323,
                    "duration": 0.07324937499998896
                },
                {
                    "name": "A4",
                    "midi": 69,
                    "time": 131.1163812500003,
                    "velocity": 0.4330708661417323,
                    "duration": 0.07324937499998896
                },
                {
                    "name": "F#4",
                    "midi": 66,
                    "time": 131.1163812500003,
                    "velocity": 0.4330708661417323,
                    "duration": 0.07324937499998896
                },
                {
                    "name": "D#4",
                    "midi": 63,
                    "time": 131.26288000000028,
                    "velocity": 0.3779527559055118,
                    "duration": 0.07324937499998896
                },
                {
                    "name": "F#4",
                    "midi": 66,
                    "time": 131.26288000000028,
                    "velocity": 0.3779527559055118,
                    "duration": 0.07324937499998896
                },
                {
                    "name": "A4",
                    "midi": 69,
                    "time": 131.26288000000028,
                    "velocity": 0.3779527559055118,
                    "duration": 0.07324937499998896
                },
                {
                    "name": "C5",
                    "midi": 72,
                    "time": 131.26288000000028,
                    "velocity": 0.3779527559055118,
                    "duration": 0.07324937499998896
                },
                {
                    "name": "D#4",
                    "midi": 63,
                    "time": 131.40937875000026,
                    "velocity": 0.4645669291338583,
                    "duration": 0.07324937499998896
                },
                {
                    "name": "C5",
                    "midi": 72,
                    "time": 131.40937875000026,
                    "velocity": 0.4645669291338583,
                    "duration": 0.07324937499998896
                },
                {
                    "name": "A4",
                    "midi": 69,
                    "time": 131.40937875000026,
                    "velocity": 0.4645669291338583,
                    "duration": 0.07324937499998896
                },
                {
                    "name": "F#4",
                    "midi": 66,
                    "time": 131.40937875000026,
                    "velocity": 0.4645669291338583,
                    "duration": 0.07324937499998896
                },
                {
                    "name": "D#4",
                    "midi": 63,
                    "time": 131.55587750000024,
                    "velocity": 0.4251968503937008,
                    "duration": 0.07324937499998896
                },
                {
                    "name": "F#4",
                    "midi": 66,
                    "time": 131.55587750000024,
                    "velocity": 0.4251968503937008,
                    "duration": 0.07324937499998896
                },
                {
                    "name": "A4",
                    "midi": 69,
                    "time": 131.55587750000024,
                    "velocity": 0.4251968503937008,
                    "duration": 0.07324937499998896
                },
                {
                    "name": "C5",
                    "midi": 72,
                    "time": 131.55587750000024,
                    "velocity": 0.4251968503937008,
                    "duration": 0.07324937499998896
                },
                {
                    "name": "D#4",
                    "midi": 63,
                    "time": 131.7023762500002,
                    "velocity": 0.5196850393700787,
                    "duration": 0.07324937499998896
                },
                {
                    "name": "C5",
                    "midi": 72,
                    "time": 131.7023762500002,
                    "velocity": 0.5196850393700787,
                    "duration": 0.07324937499998896
                },
                {
                    "name": "A4",
                    "midi": 69,
                    "time": 131.7023762500002,
                    "velocity": 0.5196850393700787,
                    "duration": 0.07324937499998896
                },
                {
                    "name": "F#4",
                    "midi": 66,
                    "time": 131.7023762500002,
                    "velocity": 0.5196850393700787,
                    "duration": 0.07324937499998896
                },
                {
                    "name": "D#4",
                    "midi": 63,
                    "time": 131.8488750000002,
                    "velocity": 0.4645669291338583,
                    "duration": 0.07324937499998896
                },
                {
                    "name": "F#4",
                    "midi": 66,
                    "time": 131.8488750000002,
                    "velocity": 0.4645669291338583,
                    "duration": 0.07324937499998896
                },
                {
                    "name": "A4",
                    "midi": 69,
                    "time": 131.8488750000002,
                    "velocity": 0.4645669291338583,
                    "duration": 0.07324937499998896
                },
                {
                    "name": "C5",
                    "midi": 72,
                    "time": 131.8488750000002,
                    "velocity": 0.4645669291338583,
                    "duration": 0.07324937499998896
                },
                {
                    "name": "D#4",
                    "midi": 63,
                    "time": 131.99537375000017,
                    "velocity": 0.5511811023622047,
                    "duration": 0.07324937499998896
                },
                {
                    "name": "C5",
                    "midi": 72,
                    "time": 131.99537375000017,
                    "velocity": 0.5511811023622047,
                    "duration": 0.07324937499998896
                },
                {
                    "name": "A4",
                    "midi": 69,
                    "time": 131.99537375000017,
                    "velocity": 0.5511811023622047,
                    "duration": 0.07324937499998896
                },
                {
                    "name": "F#4",
                    "midi": 66,
                    "time": 131.99537375000017,
                    "velocity": 0.5511811023622047,
                    "duration": 0.07324937499998896
                },
                {
                    "name": "D#4",
                    "midi": 63,
                    "time": 132.14187250000015,
                    "velocity": 0.48031496062992124,
                    "duration": 0.07324937499998896
                },
                {
                    "name": "F#4",
                    "midi": 66,
                    "time": 132.14187250000015,
                    "velocity": 0.48031496062992124,
                    "duration": 0.07324937499998896
                },
                {
                    "name": "A4",
                    "midi": 69,
                    "time": 132.14187250000015,
                    "velocity": 0.48031496062992124,
                    "duration": 0.07324937499998896
                },
                {
                    "name": "C5",
                    "midi": 72,
                    "time": 132.14187250000015,
                    "velocity": 0.48031496062992124,
                    "duration": 0.07324937499998896
                },
                {
                    "name": "D#4",
                    "midi": 63,
                    "time": 132.28837125000013,
                    "velocity": 0.5669291338582677,
                    "duration": 0.07324937499998896
                },
                {
                    "name": "C5",
                    "midi": 72,
                    "time": 132.28837125000013,
                    "velocity": 0.5669291338582677,
                    "duration": 0.07324937499998896
                },
                {
                    "name": "A4",
                    "midi": 69,
                    "time": 132.28837125000013,
                    "velocity": 0.5669291338582677,
                    "duration": 0.07324937499998896
                },
                {
                    "name": "F#4",
                    "midi": 66,
                    "time": 132.28837125000013,
                    "velocity": 0.5669291338582677,
                    "duration": 0.07324937499998896
                },
                {
                    "name": "D#4",
                    "midi": 63,
                    "time": 132.4348700000001,
                    "velocity": 0.4881889763779528,
                    "duration": 0.07324937499998896
                },
                {
                    "name": "F#4",
                    "midi": 66,
                    "time": 132.4348700000001,
                    "velocity": 0.4881889763779528,
                    "duration": 0.07324937499998896
                },
                {
                    "name": "A4",
                    "midi": 69,
                    "time": 132.4348700000001,
                    "velocity": 0.4881889763779528,
                    "duration": 0.07324937499998896
                },
                {
                    "name": "C5",
                    "midi": 72,
                    "time": 132.4348700000001,
                    "velocity": 0.4881889763779528,
                    "duration": 0.07324937499998896
                },
                {
                    "name": "D#4",
                    "midi": 63,
                    "time": 132.58136875000008,
                    "velocity": 0.5826771653543307,
                    "duration": 0.07324937499998896
                },
                {
                    "name": "C5",
                    "midi": 72,
                    "time": 132.58136875000008,
                    "velocity": 0.5826771653543307,
                    "duration": 0.07324937499998896
                },
                {
                    "name": "A4",
                    "midi": 69,
                    "time": 132.58136875000008,
                    "velocity": 0.5826771653543307,
                    "duration": 0.07324937499998896
                },
                {
                    "name": "F#4",
                    "midi": 66,
                    "time": 132.58136875000008,
                    "velocity": 0.5826771653543307,
                    "duration": 0.07324937499998896
                },
                {
                    "name": "E4",
                    "midi": 64,
                    "time": 132.72786750000006,
                    "velocity": 0.6456692913385826,
                    "duration": 0.2929975000000127
                },
                {
                    "name": "G#4",
                    "midi": 68,
                    "time": 132.72786750000006,
                    "velocity": 0.6456692913385826,
                    "duration": 0.2929975000000127
                },
                {
                    "name": "B4",
                    "midi": 71,
                    "time": 132.72786750000006,
                    "velocity": 0.7637795275590551,
                    "duration": 0.2929975000000127
                },
                {
                    "name": "G4",
                    "midi": 67,
                    "time": 133.02086500000007,
                    "velocity": 0.6377952755905512,
                    "duration": 0.07324937499998896
                },
                {
                    "name": "C#5",
                    "midi": 73,
                    "time": 133.02086500000007,
                    "velocity": 0.7559055118110236,
                    "duration": 0.07324937499998896
                },
                {
                    "name": "A#4",
                    "midi": 70,
                    "time": 133.02086500000007,
                    "velocity": 0.6377952755905512,
                    "duration": 0.07324937499998896
                },
                {
                    "name": "G4",
                    "midi": 67,
                    "time": 133.16736375000005,
                    "velocity": 0.5590551181102362,
                    "duration": 0.07324937499998896
                },
                {
                    "name": "A#4",
                    "midi": 70,
                    "time": 133.16736375000005,
                    "velocity": 0.5590551181102362,
                    "duration": 0.07324937499998896
                },
                {
                    "name": "D5",
                    "midi": 74,
                    "time": 133.16736375000005,
                    "velocity": 0.6692913385826772,
                    "duration": 0.07324937499998896
                },
                {
                    "name": "G4",
                    "midi": 67,
                    "time": 133.31386250000003,
                    "velocity": 0.6220472440944882,
                    "duration": 0.07324937499998896
                },
                {
                    "name": "E5",
                    "midi": 76,
                    "time": 133.31386250000003,
                    "velocity": 0.7401574803149606,
                    "duration": 0.07324937499998896
                },
                {
                    "name": "A#4",
                    "midi": 70,
                    "time": 133.31386250000003,
                    "velocity": 0.6220472440944882,
                    "duration": 0.07324937499998896
                },
                {
                    "name": "G4",
                    "midi": 67,
                    "time": 133.46036125,
                    "velocity": 0.6062992125984252,
                    "duration": 0.07324937499998896
                },
                {
                    "name": "F#5",
                    "midi": 78,
                    "time": 133.46036125,
                    "velocity": 0.7086614173228346,
                    "duration": 0.07324937499998896
                },
                {
                    "name": "A4",
                    "midi": 69,
                    "time": 133.46036125,
                    "velocity": 0.6062992125984252,
                    "duration": 0.07324937499998896
                },
                {
                    "name": "G4",
                    "midi": 67,
                    "time": 133.60685999999998,
                    "velocity": 0.6456692913385826,
                    "duration": 0.14649875000000634
                },
                {
                    "name": "A#4",
                    "midi": 70,
                    "time": 133.60685999999998,
                    "velocity": 0.6456692913385826,
                    "duration": 0.14649875000000634
                },
                {
                    "name": "G5",
                    "midi": 79,
                    "time": 133.60685999999998,
                    "velocity": 0.7637795275590551,
                    "duration": 0.14649875000000634
                },
                {
                    "name": "E4",
                    "midi": 64,
                    "time": 133.8998575,
                    "velocity": 0.5590551181102362,
                    "duration": 0.439496250000019
                },
                {
                    "name": "A#4",
                    "midi": 70,
                    "time": 133.8998575,
                    "velocity": 0.6614173228346457,
                    "duration": 0.439496250000019
                },
                {
                    "name": "F#4",
                    "midi": 66,
                    "time": 133.8998575,
                    "velocity": 0.5590551181102362,
                    "duration": 0.43583378125001104
                },
                {
                    "name": "D4",
                    "midi": 62,
                    "time": 134.33935375000001,
                    "velocity": 0.5275590551181102,
                    "duration": 0.13429052083333204
                },
                {
                    "name": "B4",
                    "midi": 71,
                    "time": 134.33935375000001,
                    "velocity": 0.6220472440944882,
                    "duration": 0.13429052083333204
                },
                {
                    "name": "F#4",
                    "midi": 66,
                    "time": 134.33935375000001,
                    "velocity": 0.5275590551181102,
                    "duration": 0.13429052083333204
                },
                {
                    "name": "D4",
                    "midi": 62,
                    "time": 134.48585250000002,
                    "velocity": 0.5275590551181102,
                    "duration": 0.14649875000000634
                },
                {
                    "name": "F#4",
                    "midi": 66,
                    "time": 134.48585250000002,
                    "velocity": 0.5275590551181102,
                    "duration": 0.14649875000000634
                },
                {
                    "name": "B4",
                    "midi": 71,
                    "time": 134.48585250000002,
                    "velocity": 0.6220472440944882,
                    "duration": 0.14649875000000634
                },
                {
                    "name": "D#4",
                    "midi": 63,
                    "time": 134.63235125000003,
                    "velocity": 0.4330708661417323,
                    "duration": 0.07324937499998896
                },
                {
                    "name": "C5",
                    "midi": 72,
                    "time": 134.63235125000003,
                    "velocity": 0.4330708661417323,
                    "duration": 0.07324937499998896
                },
                {
                    "name": "A4",
                    "midi": 69,
                    "time": 134.63235125000003,
                    "velocity": 0.4330708661417323,
                    "duration": 0.07324937499998896
                },
                {
                    "name": "F#4",
                    "midi": 66,
                    "time": 134.63235125000003,
                    "velocity": 0.4330708661417323,
                    "duration": 0.07324937499998896
                },
                {
                    "name": "D#4",
                    "midi": 63,
                    "time": 134.77885,
                    "velocity": 0.3779527559055118,
                    "duration": 0.07324937499998896
                },
                {
                    "name": "F#4",
                    "midi": 66,
                    "time": 134.77885,
                    "velocity": 0.3779527559055118,
                    "duration": 0.07324937499998896
                },
                {
                    "name": "A4",
                    "midi": 69,
                    "time": 134.77885,
                    "velocity": 0.3779527559055118,
                    "duration": 0.07324937499998896
                },
                {
                    "name": "C5",
                    "midi": 72,
                    "time": 134.77885,
                    "velocity": 0.3779527559055118,
                    "duration": 0.07324937499998896
                },
                {
                    "name": "D#4",
                    "midi": 63,
                    "time": 134.92534874999998,
                    "velocity": 0.4645669291338583,
                    "duration": 0.07324937499998896
                },
                {
                    "name": "C5",
                    "midi": 72,
                    "time": 134.92534874999998,
                    "velocity": 0.4645669291338583,
                    "duration": 0.07324937499998896
                },
                {
                    "name": "A4",
                    "midi": 69,
                    "time": 134.92534874999998,
                    "velocity": 0.4645669291338583,
                    "duration": 0.07324937499998896
                },
                {
                    "name": "F#4",
                    "midi": 66,
                    "time": 134.92534874999998,
                    "velocity": 0.4645669291338583,
                    "duration": 0.07324937499998896
                },
                {
                    "name": "D#4",
                    "midi": 63,
                    "time": 135.07184749999996,
                    "velocity": 0.4251968503937008,
                    "duration": 0.07324937499998896
                },
                {
                    "name": "F#4",
                    "midi": 66,
                    "time": 135.07184749999996,
                    "velocity": 0.4251968503937008,
                    "duration": 0.07324937499998896
                },
                {
                    "name": "A4",
                    "midi": 69,
                    "time": 135.07184749999996,
                    "velocity": 0.4251968503937008,
                    "duration": 0.07324937499998896
                },
                {
                    "name": "C5",
                    "midi": 72,
                    "time": 135.07184749999996,
                    "velocity": 0.4251968503937008,
                    "duration": 0.07324937499998896
                },
                {
                    "name": "D#4",
                    "midi": 63,
                    "time": 135.21834624999994,
                    "velocity": 0.5196850393700787,
                    "duration": 0.07324937499998896
                },
                {
                    "name": "C5",
                    "midi": 72,
                    "time": 135.21834624999994,
                    "velocity": 0.5196850393700787,
                    "duration": 0.07324937499998896
                },
                {
                    "name": "A4",
                    "midi": 69,
                    "time": 135.21834624999994,
                    "velocity": 0.5196850393700787,
                    "duration": 0.07324937499998896
                },
                {
                    "name": "F#4",
                    "midi": 66,
                    "time": 135.21834624999994,
                    "velocity": 0.5196850393700787,
                    "duration": 0.07324937499998896
                },
                {
                    "name": "D#4",
                    "midi": 63,
                    "time": 135.36484499999992,
                    "velocity": 0.4645669291338583,
                    "duration": 0.07324937499998896
                },
                {
                    "name": "F#4",
                    "midi": 66,
                    "time": 135.36484499999992,
                    "velocity": 0.4645669291338583,
                    "duration": 0.07324937499998896
                },
                {
                    "name": "A4",
                    "midi": 69,
                    "time": 135.36484499999992,
                    "velocity": 0.4645669291338583,
                    "duration": 0.07324937499998896
                },
                {
                    "name": "C5",
                    "midi": 72,
                    "time": 135.36484499999992,
                    "velocity": 0.4645669291338583,
                    "duration": 0.07324937499998896
                },
                {
                    "name": "D#4",
                    "midi": 63,
                    "time": 135.5113437499999,
                    "velocity": 0.5511811023622047,
                    "duration": 0.07324937499998896
                },
                {
                    "name": "C5",
                    "midi": 72,
                    "time": 135.5113437499999,
                    "velocity": 0.5511811023622047,
                    "duration": 0.07324937499998896
                },
                {
                    "name": "A4",
                    "midi": 69,
                    "time": 135.5113437499999,
                    "velocity": 0.5511811023622047,
                    "duration": 0.07324937499998896
                },
                {
                    "name": "F#4",
                    "midi": 66,
                    "time": 135.5113437499999,
                    "velocity": 0.5511811023622047,
                    "duration": 0.07324937499998896
                },
                {
                    "name": "D#4",
                    "midi": 63,
                    "time": 135.65784249999987,
                    "velocity": 0.48031496062992124,
                    "duration": 0.07324937499998896
                },
                {
                    "name": "F#4",
                    "midi": 66,
                    "time": 135.65784249999987,
                    "velocity": 0.48031496062992124,
                    "duration": 0.07324937499998896
                },
                {
                    "name": "A4",
                    "midi": 69,
                    "time": 135.65784249999987,
                    "velocity": 0.48031496062992124,
                    "duration": 0.07324937499998896
                },
                {
                    "name": "C5",
                    "midi": 72,
                    "time": 135.65784249999987,
                    "velocity": 0.48031496062992124,
                    "duration": 0.07324937499998896
                },
                {
                    "name": "D#4",
                    "midi": 63,
                    "time": 135.80434124999985,
                    "velocity": 0.5748031496062992,
                    "duration": 0.07324937499998896
                },
                {
                    "name": "C5",
                    "midi": 72,
                    "time": 135.80434124999985,
                    "velocity": 0.5748031496062992,
                    "duration": 0.07324937499998896
                },
                {
                    "name": "A4",
                    "midi": 69,
                    "time": 135.80434124999985,
                    "velocity": 0.5748031496062992,
                    "duration": 0.07324937499998896
                },
                {
                    "name": "F#4",
                    "midi": 66,
                    "time": 135.80434124999985,
                    "velocity": 0.5748031496062992,
                    "duration": 0.07324937499998896
                },
                {
                    "name": "D#4",
                    "midi": 63,
                    "time": 135.95083999999983,
                    "velocity": 0.4881889763779528,
                    "duration": 0.07324937499998896
                },
                {
                    "name": "F#4",
                    "midi": 66,
                    "time": 135.95083999999983,
                    "velocity": 0.4881889763779528,
                    "duration": 0.07324937499998896
                },
                {
                    "name": "A4",
                    "midi": 69,
                    "time": 135.95083999999983,
                    "velocity": 0.4881889763779528,
                    "duration": 0.07324937499998896
                },
                {
                    "name": "C5",
                    "midi": 72,
                    "time": 135.95083999999983,
                    "velocity": 0.4881889763779528,
                    "duration": 0.07324937499998896
                },
                {
                    "name": "D#4",
                    "midi": 63,
                    "time": 136.0973387499998,
                    "velocity": 0.5905511811023622,
                    "duration": 0.07324937499998896
                },
                {
                    "name": "C5",
                    "midi": 72,
                    "time": 136.0973387499998,
                    "velocity": 0.5905511811023622,
                    "duration": 0.07324937499998896
                },
                {
                    "name": "A4",
                    "midi": 69,
                    "time": 136.0973387499998,
                    "velocity": 0.5905511811023622,
                    "duration": 0.07324937499998896
                },
                {
                    "name": "F#4",
                    "midi": 66,
                    "time": 136.0973387499998,
                    "velocity": 0.5905511811023622,
                    "duration": 0.07324937499998896
                },
                {
                    "name": "E4",
                    "midi": 64,
                    "time": 136.24383749999978,
                    "velocity": 0.6456692913385826,
                    "duration": 0.2929975000000127
                },
                {
                    "name": "G#4",
                    "midi": 68,
                    "time": 136.24383749999978,
                    "velocity": 0.6456692913385826,
                    "duration": 0.2929975000000127
                },
                {
                    "name": "B4",
                    "midi": 71,
                    "time": 136.24383749999978,
                    "velocity": 0.7637795275590551,
                    "duration": 0.2929975000000127
                },
                {
                    "name": "G4",
                    "midi": 67,
                    "time": 136.5368349999998,
                    "velocity": 0.6377952755905512,
                    "duration": 0.07324937499998896
                },
                {
                    "name": "C#5",
                    "midi": 73,
                    "time": 136.5368349999998,
                    "velocity": 0.7559055118110236,
                    "duration": 0.07324937499998896
                },
                {
                    "name": "A#4",
                    "midi": 70,
                    "time": 136.5368349999998,
                    "velocity": 0.6377952755905512,
                    "duration": 0.07324937499998896
                },
                {
                    "name": "G4",
                    "midi": 67,
                    "time": 136.68333374999978,
                    "velocity": 0.5590551181102362,
                    "duration": 0.07324937499998896
                },
                {
                    "name": "A#4",
                    "midi": 70,
                    "time": 136.68333374999978,
                    "velocity": 0.5590551181102362,
                    "duration": 0.07324937499998896
                },
                {
                    "name": "D5",
                    "midi": 74,
                    "time": 136.68333374999978,
                    "velocity": 0.6692913385826772,
                    "duration": 0.07324937499998896
                },
                {
                    "name": "G4",
                    "midi": 67,
                    "time": 136.82983249999975,
                    "velocity": 0.6220472440944882,
                    "duration": 0.07324937499998896
                },
                {
                    "name": "E5",
                    "midi": 76,
                    "time": 136.82983249999975,
                    "velocity": 0.7401574803149606,
                    "duration": 0.07324937499998896
                },
                {
                    "name": "A#4",
                    "midi": 70,
                    "time": 136.82983249999975,
                    "velocity": 0.6220472440944882,
                    "duration": 0.07324937499998896
                },
                {
                    "name": "G4",
                    "midi": 67,
                    "time": 136.97633124999973,
                    "velocity": 0.6062992125984252,
                    "duration": 0.07324937499998896
                },
                {
                    "name": "F#5",
                    "midi": 78,
                    "time": 136.97633124999973,
                    "velocity": 0.7086614173228346,
                    "duration": 0.07324937499998896
                },
                {
                    "name": "A#4",
                    "midi": 70,
                    "time": 136.97633124999973,
                    "velocity": 0.6062992125984252,
                    "duration": 0.07324937499998896
                },
                {
                    "name": "G4",
                    "midi": 67,
                    "time": 137.1228299999997,
                    "velocity": 0.6456692913385826,
                    "duration": 0.14649875000000634
                },
                {
                    "name": "A#4",
                    "midi": 70,
                    "time": 137.1228299999997,
                    "velocity": 0.6456692913385826,
                    "duration": 0.14649875000000634
                },
                {
                    "name": "G5",
                    "midi": 79,
                    "time": 137.1228299999997,
                    "velocity": 0.7637795275590551,
                    "duration": 0.14649875000000634
                },
                {
                    "name": "E4",
                    "midi": 64,
                    "time": 137.41582749999972,
                    "velocity": 0.5590551181102362,
                    "duration": 0.5859949999999969
                },
                {
                    "name": "A#4",
                    "midi": 70,
                    "time": 137.41582749999972,
                    "velocity": 0.6614173228346457,
                    "duration": 0.5859949999999969
                },
                {
                    "name": "F#4",
                    "midi": 66,
                    "time": 137.41582749999972,
                    "velocity": 0.5590551181102362,
                    "duration": 0.582332531249989
                },
                {
                    "name": "D4",
                    "midi": 62,
                    "time": 138.00182249999972,
                    "velocity": 0.6299212598425197,
                    "duration": 0.14649875000000634
                },
                {
                    "name": "F#4",
                    "midi": 66,
                    "time": 138.00182249999972,
                    "velocity": 0.6299212598425197,
                    "duration": 0.14649875000000634
                },
                {
                    "name": "B4",
                    "midi": 71,
                    "time": 138.00182249999972,
                    "velocity": 0.7401574803149606,
                    "duration": 0.14649875000000634
                },
                {
                    "name": "G4",
                    "midi": 67,
                    "time": 138.29481999999973,
                    "velocity": 0.6377952755905512,
                    "duration": 0.07324937499998896
                },
                {
                    "name": "C#5",
                    "midi": 73,
                    "time": 138.29481999999973,
                    "velocity": 0.7559055118110236,
                    "duration": 0.07324937499998896
                },
                {
                    "name": "A#4",
                    "midi": 70,
                    "time": 138.29481999999973,
                    "velocity": 0.6377952755905512,
                    "duration": 0.07324937499998896
                },
                {
                    "name": "G4",
                    "midi": 67,
                    "time": 138.4413187499997,
                    "velocity": 0.5590551181102362,
                    "duration": 0.07324937499998896
                },
                {
                    "name": "A#4",
                    "midi": 70,
                    "time": 138.4413187499997,
                    "velocity": 0.5590551181102362,
                    "duration": 0.07324937499998896
                },
                {
                    "name": "D5",
                    "midi": 74,
                    "time": 138.4413187499997,
                    "velocity": 0.6692913385826772,
                    "duration": 0.07324937499998896
                },
                {
                    "name": "G4",
                    "midi": 67,
                    "time": 138.5878174999997,
                    "velocity": 0.6220472440944882,
                    "duration": 0.07324937499998896
                },
                {
                    "name": "E5",
                    "midi": 76,
                    "time": 138.5878174999997,
                    "velocity": 0.7401574803149606,
                    "duration": 0.07324937499998896
                },
                {
                    "name": "A#4",
                    "midi": 70,
                    "time": 138.5878174999997,
                    "velocity": 0.6220472440944882,
                    "duration": 0.07324937499998896
                },
                {
                    "name": "G4",
                    "midi": 67,
                    "time": 138.73431624999967,
                    "velocity": 0.6062992125984252,
                    "duration": 0.07324937499998896
                },
                {
                    "name": "F#5",
                    "midi": 78,
                    "time": 138.73431624999967,
                    "velocity": 0.7086614173228346,
                    "duration": 0.07324937499998896
                },
                {
                    "name": "A#4",
                    "midi": 70,
                    "time": 138.73431624999967,
                    "velocity": 0.6062992125984252,
                    "duration": 0.07324937499998896
                },
                {
                    "name": "G4",
                    "midi": 67,
                    "time": 138.88081499999964,
                    "velocity": 0.6456692913385826,
                    "duration": 0.14649875000000634
                },
                {
                    "name": "A#4",
                    "midi": 70,
                    "time": 138.88081499999964,
                    "velocity": 0.6456692913385826,
                    "duration": 0.14649875000000634
                },
                {
                    "name": "G5",
                    "midi": 79,
                    "time": 138.88081499999964,
                    "velocity": 0.7637795275590551,
                    "duration": 0.14649875000000634
                },
                {
                    "name": "E4",
                    "midi": 64,
                    "time": 139.17381249999966,
                    "velocity": 0.6377952755905512,
                    "duration": 0.5859949999999969
                },
                {
                    "name": "A#4",
                    "midi": 70,
                    "time": 139.17381249999966,
                    "velocity": 0.7559055118110236,
                    "duration": 0.5859949999999969
                },
                {
                    "name": "F#4",
                    "midi": 66,
                    "time": 139.17381249999966,
                    "velocity": 0.6377952755905512,
                    "duration": 0.582332531249989
                },
                {
                    "name": "D4",
                    "midi": 62,
                    "time": 139.75980749999965,
                    "velocity": 0.7244094488188977,
                    "duration": 0.14649875000000634
                },
                {
                    "name": "F#4",
                    "midi": 66,
                    "time": 139.75980749999965,
                    "velocity": 0.7244094488188977,
                    "duration": 0.14649875000000634
                },
                {
                    "name": "B4",
                    "midi": 71,
                    "time": 139.75980749999965,
                    "velocity": 0.8503937007874016,
                    "duration": 0.14649875000000634
                },
                {
                    "name": "G4",
                    "midi": 67,
                    "time": 140.05280499999967,
                    "velocity": 0.7007874015748031,
                    "duration": 0.07324937499998896
                },
                {
                    "name": "C#5",
                    "midi": 73,
                    "time": 140.05280499999967,
                    "velocity": 0.8267716535433071,
                    "duration": 0.07324937499998896
                },
                {
                    "name": "A#4",
                    "midi": 70,
                    "time": 140.05280499999967,
                    "velocity": 0.7007874015748031,
                    "duration": 0.07324937499998896
                },
                {
                    "name": "G4",
                    "midi": 67,
                    "time": 140.19930374999964,
                    "velocity": 0.6141732283464567,
                    "duration": 0.07324937499998896
                },
                {
                    "name": "A#4",
                    "midi": 70,
                    "time": 140.19930374999964,
                    "velocity": 0.6141732283464567,
                    "duration": 0.07324937499998896
                },
                {
                    "name": "D5",
                    "midi": 74,
                    "time": 140.19930374999964,
                    "velocity": 0.7322834645669292,
                    "duration": 0.07324937499998896
                },
                {
                    "name": "G4",
                    "midi": 67,
                    "time": 140.34580249999962,
                    "velocity": 0.6771653543307087,
                    "duration": 0.07324937499998896
                },
                {
                    "name": "E5",
                    "midi": 76,
                    "time": 140.34580249999962,
                    "velocity": 0.8110236220472441,
                    "duration": 0.07324937499998896
                },
                {
                    "name": "A#4",
                    "midi": 70,
                    "time": 140.34580249999962,
                    "velocity": 0.6771653543307087,
                    "duration": 0.07324937499998896
                },
                {
                    "name": "G4",
                    "midi": 67,
                    "time": 140.4923012499996,
                    "velocity": 0.6535433070866141,
                    "duration": 0.07324937499998896
                },
                {
                    "name": "F#5",
                    "midi": 78,
                    "time": 140.4923012499996,
                    "velocity": 0.7716535433070866,
                    "duration": 0.07324937499998896
                },
                {
                    "name": "A#4",
                    "midi": 70,
                    "time": 140.4923012499996,
                    "velocity": 0.6535433070866141,
                    "duration": 0.07324937499998896
                },
                {
                    "name": "C#5",
                    "midi": 73,
                    "time": 140.63879999999958,
                    "velocity": 0.7086614173228346,
                    "duration": 0.5493703125000025
                },
                {
                    "name": "E5",
                    "midi": 76,
                    "time": 140.63879999999958,
                    "velocity": 0.7086614173228346,
                    "duration": 0.5493703125000025
                },
                {
                    "name": "G4",
                    "midi": 67,
                    "time": 140.63879999999958,
                    "velocity": 0.7086614173228346,
                    "duration": 0.5493703125000025
                },
                {
                    "name": "A#4",
                    "midi": 70,
                    "time": 140.63879999999958,
                    "velocity": 0.7086614173228346,
                    "duration": 0.5493703125000025
                },
                {
                    "name": "G5",
                    "midi": 79,
                    "time": 140.63879999999958,
                    "velocity": 0.8346456692913385,
                    "duration": 0.5493703125000025
                },
                {
                    "name": "C#4",
                    "midi": 61,
                    "time": 141.22479499999957,
                    "velocity": 0.6377952755905512,
                    "duration": 0.14649875000000634
                },
                {
                    "name": "E4",
                    "midi": 64,
                    "time": 141.22479499999957,
                    "velocity": 0.6377952755905512,
                    "duration": 0.14649875000000634
                },
                {
                    "name": "F#4",
                    "midi": 66,
                    "time": 141.22479499999957,
                    "velocity": 0.6377952755905512,
                    "duration": 0.14649875000000634
                },
                {
                    "name": "A#4",
                    "midi": 70,
                    "time": 141.22479499999957,
                    "velocity": 0.7559055118110236,
                    "duration": 0.14649875000000634
                },
                {
                    "name": "B3",
                    "midi": 59,
                    "time": 141.5177924999996,
                    "velocity": 0.7244094488188977,
                    "duration": 0.14649875000000634
                },
                {
                    "name": "D4",
                    "midi": 62,
                    "time": 141.5177924999996,
                    "velocity": 0.7244094488188977,
                    "duration": 0.14649875000000634
                },
                {
                    "name": "F#4",
                    "midi": 66,
                    "time": 141.5177924999996,
                    "velocity": 0.7244094488188977,
                    "duration": 0.14649875000000634
                },
                {
                    "name": "B4",
                    "midi": 71,
                    "time": 141.5177924999996,
                    "velocity": 0.8503937007874016,
                    "duration": 0.14649875000000634
                },
                {
                    "name": "E4",
                    "midi": 64,
                    "time": 144.74076499999958,
                    "velocity": 0.36220472440944884,
                    "duration": 0.07324937499998896
                },
                {
                    "name": "G4",
                    "midi": 67,
                    "time": 144.74076499999958,
                    "velocity": 0.4330708661417323,
                    "duration": 0.07324937499998896
                },
                {
                    "name": "E4",
                    "midi": 64,
                    "time": 144.88726374999956,
                    "velocity": 0.30708661417322836,
                    "duration": 0.07324937499998896
                },
                {
                    "name": "G4",
                    "midi": 67,
                    "time": 144.88726374999956,
                    "velocity": 0.3700787401574803,
                    "duration": 0.07324937499998896
                },
                {
                    "name": "F#4",
                    "midi": 66,
                    "time": 145.03376249999954,
                    "velocity": 0.3858267716535433,
                    "duration": 0.07324937499998896
                },
                {
                    "name": "D4",
                    "midi": 62,
                    "time": 145.03376249999954,
                    "velocity": 0.3858267716535433,
                    "duration": 0.07324937499998896
                },
                {
                    "name": "D4",
                    "midi": 62,
                    "time": 145.18026124999952,
                    "velocity": 0.3543307086614173,
                    "duration": 0.07324937499998896
                },
                {
                    "name": "F#4",
                    "midi": 66,
                    "time": 145.18026124999952,
                    "velocity": 0.3543307086614173,
                    "duration": 0.07324937499998896
                },
                {
                    "name": "A#4",
                    "midi": 70,
                    "time": 145.3267599999995,
                    "velocity": 0.4881889763779528,
                    "duration": 0.07324937499998896
                },
                {
                    "name": "E4",
                    "midi": 64,
                    "time": 145.3267599999995,
                    "velocity": 0.4094488188976378,
                    "duration": 0.07324937499998896
                },
                {
                    "name": "E4",
                    "midi": 64,
                    "time": 145.47325874999947,
                    "velocity": 0.3858267716535433,
                    "duration": 0.07324937499998896
                },
                {
                    "name": "A#4",
                    "midi": 70,
                    "time": 145.47325874999947,
                    "velocity": 0.4566929133858268,
                    "duration": 0.07324937499998896
                },
                {
                    "name": "B4",
                    "midi": 71,
                    "time": 145.61975749999945,
                    "velocity": 0.49606299212598426,
                    "duration": 0.07324937499998896
                },
                {
                    "name": "F#4",
                    "midi": 66,
                    "time": 145.61975749999945,
                    "velocity": 0.41732283464566927,
                    "duration": 0.07324937499998896
                },
                {
                    "name": "B4",
                    "midi": 71,
                    "time": 145.76625624999943,
                    "velocity": 0.48031496062992124,
                    "duration": 0.07324937499998896
                },
                {
                    "name": "F#4",
                    "midi": 66,
                    "time": 145.76625624999943,
                    "velocity": 0.4015748031496063,
                    "duration": 0.07324937499998896
                },
                {
                    "name": "G4",
                    "midi": 67,
                    "time": 145.9127549999994,
                    "velocity": 0.5039370078740157,
                    "duration": 0.07324937499998896
                },
                {
                    "name": "C#5",
                    "midi": 73,
                    "time": 145.9127549999994,
                    "velocity": 0.5984251968503937,
                    "duration": 0.07324937499998896
                },
                {
                    "name": "G4",
                    "midi": 67,
                    "time": 146.05925374999939,
                    "velocity": 0.4881889763779528,
                    "duration": 0.07324937499998896
                },
                {
                    "name": "C#5",
                    "midi": 73,
                    "time": 146.05925374999939,
                    "velocity": 0.5748031496062992,
                    "duration": 0.07324937499998896
                },
                {
                    "name": "D5",
                    "midi": 74,
                    "time": 146.20575249999936,
                    "velocity": 0.6220472440944882,
                    "duration": 0.07324937499998896
                },
                {
                    "name": "B4",
                    "midi": 71,
                    "time": 146.20575249999936,
                    "velocity": 0.5275590551181102,
                    "duration": 0.07324937499998896
                },
                {
                    "name": "D5",
                    "midi": 74,
                    "time": 146.35225124999934,
                    "velocity": 0.5669291338582677,
                    "duration": 0.07324937499998896
                },
                {
                    "name": "B4",
                    "midi": 71,
                    "time": 146.35225124999934,
                    "velocity": 0.48031496062992124,
                    "duration": 0.07324937499998896
                },
                {
                    "name": "C#5",
                    "midi": 73,
                    "time": 146.49874999999932,
                    "velocity": 0.6299212598425197,
                    "duration": 0.07324937499998896
                },
                {
                    "name": "G4",
                    "midi": 67,
                    "time": 146.49874999999932,
                    "velocity": 0.5354330708661418,
                    "duration": 0.07324937499998896
                },
                {
                    "name": "G4",
                    "midi": 67,
                    "time": 146.6452487499993,
                    "velocity": 0.4566929133858268,
                    "duration": 0.07324937499998896
                },
                {
                    "name": "C#5",
                    "midi": 73,
                    "time": 146.6452487499993,
                    "velocity": 0.5433070866141733,
                    "duration": 0.07324937499998896
                },
                {
                    "name": "B4",
                    "midi": 71,
                    "time": 146.79174749999927,
                    "velocity": 0.6220472440944882,
                    "duration": 0.07324937499998896
                },
                {
                    "name": "F#4",
                    "midi": 66,
                    "time": 146.79174749999927,
                    "velocity": 0.5275590551181102,
                    "duration": 0.07324937499998896
                },
                {
                    "name": "F#4",
                    "midi": 66,
                    "time": 146.93824624999925,
                    "velocity": 0.4645669291338583,
                    "duration": 0.07324937499998896
                },
                {
                    "name": "B4",
                    "midi": 71,
                    "time": 146.93824624999925,
                    "velocity": 0.5511811023622047,
                    "duration": 0.07324937499998896
                },
                {
                    "name": "A4",
                    "midi": 69,
                    "time": 147.08474499999923,
                    "velocity": 0.5748031496062992,
                    "duration": 0.07324937499998896
                },
                {
                    "name": "F#4",
                    "midi": 66,
                    "time": 147.08474499999923,
                    "velocity": 0.4881889763779528,
                    "duration": 0.07324937499998896
                },
                {
                    "name": "D#4",
                    "midi": 63,
                    "time": 147.08474499999923,
                    "velocity": 0.4881889763779528,
                    "duration": 0.07324937499998896
                },
                {
                    "name": "A4",
                    "midi": 69,
                    "time": 147.2312437499992,
                    "velocity": 0.48031496062992124,
                    "duration": 0.07324937499998896
                },
                {
                    "name": "F#4",
                    "midi": 66,
                    "time": 147.2312437499992,
                    "velocity": 0.4015748031496063,
                    "duration": 0.07324937499998896
                },
                {
                    "name": "D#4",
                    "midi": 63,
                    "time": 147.2312437499992,
                    "velocity": 0.4015748031496063,
                    "duration": 0.07324937499998896
                },
                {
                    "name": "G#4",
                    "midi": 68,
                    "time": 147.3777424999992,
                    "velocity": 0.5590551181102362,
                    "duration": 0.07324937499998896
                },
                {
                    "name": "E4",
                    "midi": 64,
                    "time": 147.3777424999992,
                    "velocity": 0.47244094488188976,
                    "duration": 0.07324937499998896
                },
                {
                    "name": "G#4",
                    "midi": 68,
                    "time": 147.52424124999916,
                    "velocity": 0.48031496062992124,
                    "duration": 0.07324937499998896
                },
                {
                    "name": "E4",
                    "midi": 64,
                    "time": 147.52424124999916,
                    "velocity": 0.4015748031496063,
                    "duration": 0.07324937499998896
                },
                {
                    "name": "E4",
                    "midi": 64,
                    "time": 147.67073999999914,
                    "velocity": 0.41732283464566927,
                    "duration": 0.07324937499998896
                },
                {
                    "name": "G4",
                    "midi": 67,
                    "time": 147.67073999999914,
                    "velocity": 0.49606299212598426,
                    "duration": 0.07324937499998896
                },
                {
                    "name": "G4",
                    "midi": 67,
                    "time": 147.81723874999912,
                    "velocity": 0.4566929133858268,
                    "duration": 0.07324937499998896
                },
                {
                    "name": "E4",
                    "midi": 64,
                    "time": 147.81723874999912,
                    "velocity": 0.3858267716535433,
                    "duration": 0.07324937499998896
                },
                {
                    "name": "F4",
                    "midi": 65,
                    "time": 147.9637374999991,
                    "velocity": 0.4881889763779528,
                    "duration": 0.07324937499998896
                },
                {
                    "name": "C#4",
                    "midi": 61,
                    "time": 147.9637374999991,
                    "velocity": 0.4094488188976378,
                    "duration": 0.07324937499998896
                },
                {
                    "name": "F4",
                    "midi": 65,
                    "time": 148.11023624999908,
                    "velocity": 0.4409448818897638,
                    "duration": 0.07324937499998896
                },
                {
                    "name": "C#4",
                    "midi": 61,
                    "time": 148.11023624999908,
                    "velocity": 0.3700787401574803,
                    "duration": 0.07324937499998896
                },
                {
                    "name": "F#4",
                    "midi": 66,
                    "time": 148.25673499999905,
                    "velocity": 0.4881889763779528,
                    "duration": 0.07324937499998896
                },
                {
                    "name": "D4",
                    "midi": 62,
                    "time": 148.25673499999905,
                    "velocity": 0.4094488188976378,
                    "duration": 0.07324937499998896
                },
                {
                    "name": "F#4",
                    "midi": 66,
                    "time": 148.40323374999903,
                    "velocity": 0.4566929133858268,
                    "duration": 0.07324937499998896
                },
                {
                    "name": "D4",
                    "midi": 62,
                    "time": 148.40323374999903,
                    "velocity": 0.3858267716535433,
                    "duration": 0.07324937499998896
                },
                {
                    "name": "C#4",
                    "midi": 61,
                    "time": 148.549732499999,
                    "velocity": 0.48031496062992124,
                    "duration": 0.07324937499998896
                },
                {
                    "name": "A#3",
                    "midi": 58,
                    "time": 148.549732499999,
                    "velocity": 0.4015748031496063,
                    "duration": 0.07324937499998896
                },
                {
                    "name": "C#4",
                    "midi": 61,
                    "time": 148.696231249999,
                    "velocity": 0.3937007874015748,
                    "duration": 0.07324937499998896
                },
                {
                    "name": "A#3",
                    "midi": 58,
                    "time": 148.696231249999,
                    "velocity": 0.33070866141732286,
                    "duration": 0.07324937499998896
                },
                {
                    "name": "D4",
                    "midi": 62,
                    "time": 148.84272999999897,
                    "velocity": 0.44881889763779526,
                    "duration": 0.07324937499998896
                },
                {
                    "name": "B3",
                    "midi": 59,
                    "time": 148.84272999999897,
                    "velocity": 0.3779527559055118,
                    "duration": 0.07324937499998896
                },
                {
                    "name": "D4",
                    "midi": 62,
                    "time": 148.98922874999894,
                    "velocity": 0.3543307086614173,
                    "duration": 0.07324937499998896
                },
                {
                    "name": "B3",
                    "midi": 59,
                    "time": 148.98922874999894,
                    "velocity": 0.2992125984251969,
                    "duration": 0.07324937499998896
                },
                {
                    "name": "B3",
                    "midi": 59,
                    "time": 149.13572749999892,
                    "velocity": 0.33858267716535434,
                    "duration": 0.07324937499998896
                },
                {
                    "name": "D4",
                    "midi": 62,
                    "time": 149.13572749999892,
                    "velocity": 0.4015748031496063,
                    "duration": 0.07324937499998896
                },
                {
                    "name": "D4",
                    "midi": 62,
                    "time": 149.2822262499989,
                    "velocity": 0.31496062992125984,
                    "duration": 0.07324937499998896
                },
                {
                    "name": "B3",
                    "midi": 59,
                    "time": 149.2822262499989,
                    "velocity": 0.2677165354330709,
                    "duration": 0.07324937499998896
                },
                {
                    "name": "B3",
                    "midi": 59,
                    "time": 149.42872499999888,
                    "velocity": 0.3937007874015748,
                    "duration": 0.07324937499998896
                },
                {
                    "name": "F#3",
                    "midi": 54,
                    "time": 149.42872499999888,
                    "velocity": 0.33070866141732286,
                    "duration": 0.07324937499998896
                },
                {
                    "name": "F#3",
                    "midi": 54,
                    "time": 149.57522374999886,
                    "velocity": 0.28346456692913385,
                    "duration": 0.07324937499998896
                },
                {
                    "name": "B3",
                    "midi": 59,
                    "time": 149.57522374999886,
                    "velocity": 0.33858267716535434,
                    "duration": 0.07324937499998896
                },
                {
                    "name": "B3",
                    "midi": 59,
                    "time": 149.72172249999883,
                    "velocity": 0.3937007874015748,
                    "duration": 0.07324937499998896
                },
                {
                    "name": "F#3",
                    "midi": 54,
                    "time": 149.72172249999883,
                    "velocity": 0.33070866141732286,
                    "duration": 0.07324937499998896
                },
                {
                    "name": "F#3",
                    "midi": 54,
                    "time": 149.8682212499988,
                    "velocity": 0.2755905511811024,
                    "duration": 0.07324937499998896
                },
                {
                    "name": "B3",
                    "midi": 59,
                    "time": 149.8682212499988,
                    "velocity": 0.33070866141732286,
                    "duration": 0.07324937499998896
                },
                {
                    "name": "F#4",
                    "midi": 66,
                    "time": 150.0147199999988,
                    "velocity": 0.3937007874015748,
                    "duration": 0.14649875000000634
                },
                {
                    "name": "F#4",
                    "midi": 66,
                    "time": 150.3077174999988,
                    "velocity": 0.4409448818897638,
                    "duration": 0.2929975000000127
                },
                {
                    "name": "G#4",
                    "midi": 68,
                    "time": 150.60071499999881,
                    "velocity": 0.49606299212598426,
                    "duration": 0.07324937499998896
                },
                {
                    "name": "A#4",
                    "midi": 70,
                    "time": 150.7472137499988,
                    "velocity": 0.5433070866141733,
                    "duration": 0.07324937499998896
                },
                {
                    "name": "B4",
                    "midi": 71,
                    "time": 150.89371249999877,
                    "velocity": 0.6299212598425197,
                    "duration": 0.07324937499998896
                },
                {
                    "name": "C#5",
                    "midi": 73,
                    "time": 151.04021124999875,
                    "velocity": 0.7165354330708661,
                    "duration": 0.07324937499998896
                },
                {
                    "name": "D5",
                    "midi": 74,
                    "time": 151.18670999999873,
                    "velocity": 0.7952755905511811,
                    "duration": 5.273955000000001
                }
            ],
            "controlChanges": {},
            "id": 1,
            "name": "Piano right",
            "instrumentNumber": 0,
            "instrument": "acoustic grand piano",
            "instrumentFamily": "piano",
            "channelNumber": 0,
            "isPercussion": false
        },
        {
            "startTime": 0,
            "duration": 155.87466999999955,
            "length": 2244,
            "notes": [
                {
                    "name": "F#3",
                    "midi": 54,
                    "time": 0,
                    "velocity": 0.33858267716535434,
                    "duration": 0.073249375
                },
                {
                    "name": "F#3",
                    "midi": 54,
                    "time": 0.14649875,
                    "velocity": 0.30708661417322836,
                    "duration": 0.073249375
                },
                {
                    "name": "F#3",
                    "midi": 54,
                    "time": 0.2929975,
                    "velocity": 0.31496062992125984,
                    "duration": 0.073249375
                },
                {
                    "name": "F#3",
                    "midi": 54,
                    "time": 0.43949625000000003,
                    "velocity": 0.29133858267716534,
                    "duration": 0.07324937499999995
                },
                {
                    "name": "F#3",
                    "midi": 54,
                    "time": 0.585995,
                    "velocity": 0.31496062992125984,
                    "duration": 0.07324937500000006
                },
                {
                    "name": "F#3",
                    "midi": 54,
                    "time": 0.7324937500000002,
                    "velocity": 0.29133858267716534,
                    "duration": 0.07324937500000006
                },
                {
                    "name": "F#3",
                    "midi": 54,
                    "time": 0.8789925000000003,
                    "velocity": 0.28346456692913385,
                    "duration": 0.07324937500000006
                },
                {
                    "name": "E4",
                    "midi": 64,
                    "time": 0.8789925000000003,
                    "velocity": 0.31496062992125984,
                    "duration": 0.07324937500000006
                },
                {
                    "name": "C#4",
                    "midi": 61,
                    "time": 0.8789925000000003,
                    "velocity": 0.25196850393700787,
                    "duration": 0.07324937500000006
                },
                {
                    "name": "F#3",
                    "midi": 54,
                    "time": 1.0254912500000004,
                    "velocity": 0.2283464566929134,
                    "duration": 0.07324937500000006
                },
                {
                    "name": "C#4",
                    "midi": 61,
                    "time": 1.0254912500000004,
                    "velocity": 0.2283464566929134,
                    "duration": 0.07324937500000006
                },
                {
                    "name": "E4",
                    "midi": 64,
                    "time": 1.0254912500000004,
                    "velocity": 0.29133858267716534,
                    "duration": 0.07324937500000006
                },
                {
                    "name": "E4",
                    "midi": 64,
                    "time": 1.1719900000000005,
                    "velocity": 0.31496062992125984,
                    "duration": 0.07324937500000006
                },
                {
                    "name": "C#4",
                    "midi": 61,
                    "time": 1.1719900000000005,
                    "velocity": 0.25196850393700787,
                    "duration": 0.07324937500000006
                },
                {
                    "name": "F#3",
                    "midi": 54,
                    "time": 1.1719900000000005,
                    "velocity": 0.25196850393700787,
                    "duration": 0.07324937500000006
                },
                {
                    "name": "F#3",
                    "midi": 54,
                    "time": 1.3184887500000007,
                    "velocity": 0.2283464566929134,
                    "duration": 0.07324937500000006
                },
                {
                    "name": "C#4",
                    "midi": 61,
                    "time": 1.3184887500000007,
                    "velocity": 0.2283464566929134,
                    "duration": 0.07324937500000006
                },
                {
                    "name": "E4",
                    "midi": 64,
                    "time": 1.3184887500000007,
                    "velocity": 0.29133858267716534,
                    "duration": 0.07324937500000006
                },
                {
                    "name": "E4",
                    "midi": 64,
                    "time": 1.4649875000000008,
                    "velocity": 0.31496062992125984,
                    "duration": 0.07324937500000006
                },
                {
                    "name": "C#4",
                    "midi": 61,
                    "time": 1.4649875000000008,
                    "velocity": 0.25196850393700787,
                    "duration": 0.07324937500000006
                },
                {
                    "name": "F#3",
                    "midi": 54,
                    "time": 1.4649875000000008,
                    "velocity": 0.25196850393700787,
                    "duration": 0.07324937500000006
                },
                {
                    "name": "F#3",
                    "midi": 54,
                    "time": 1.611486250000001,
                    "velocity": 0.23622047244094488,
                    "duration": 0.07324937500000006
                },
                {
                    "name": "C#4",
                    "midi": 61,
                    "time": 1.611486250000001,
                    "velocity": 0.23622047244094488,
                    "duration": 0.07324937500000006
                },
                {
                    "name": "E4",
                    "midi": 64,
                    "time": 1.611486250000001,
                    "velocity": 0.2992125984251969,
                    "duration": 0.07324937500000006
                },
                {
                    "name": "A#2",
                    "midi": 46,
                    "time": 1.757985000000001,
                    "velocity": 0.31496062992125984,
                    "duration": 0.07324937500000006
                },
                {
                    "name": "F#3",
                    "midi": 54,
                    "time": 1.9044837500000011,
                    "velocity": 0.25984251968503935,
                    "duration": 0.07324937500000006
                },
                {
                    "name": "C#4",
                    "midi": 61,
                    "time": 1.9044837500000011,
                    "velocity": 0.25984251968503935,
                    "duration": 0.07324937500000006
                },
                {
                    "name": "E4",
                    "midi": 64,
                    "time": 1.9044837500000011,
                    "velocity": 0.33858267716535434,
                    "duration": 0.07324937500000006
                },
                {
                    "name": "F#3",
                    "midi": 54,
                    "time": 2.0509825000000013,
                    "velocity": 0.29133858267716534,
                    "duration": 0.07324937500000006
                },
                {
                    "name": "C#4",
                    "midi": 61,
                    "time": 2.0509825000000013,
                    "velocity": 0.29133858267716534,
                    "duration": 0.07324937500000006
                },
                {
                    "name": "E4",
                    "midi": 64,
                    "time": 2.0509825000000013,
                    "velocity": 0.3700787401574803,
                    "duration": 0.07324937500000006
                },
                {
                    "name": "F#3",
                    "midi": 54,
                    "time": 2.1974812500000014,
                    "velocity": 0.30708661417322836,
                    "duration": 0.07324937500000006
                },
                {
                    "name": "C#4",
                    "midi": 61,
                    "time": 2.1974812500000014,
                    "velocity": 0.30708661417322836,
                    "duration": 0.07324937500000006
                },
                {
                    "name": "E4",
                    "midi": 64,
                    "time": 2.1974812500000014,
                    "velocity": 0.3937007874015748,
                    "duration": 0.07324937500000006
                },
                {
                    "name": "F#3",
                    "midi": 54,
                    "time": 2.3439800000000015,
                    "velocity": 0.33070866141732286,
                    "duration": 0.07324937500000006
                },
                {
                    "name": "C#4",
                    "midi": 61,
                    "time": 2.3439800000000015,
                    "velocity": 0.33070866141732286,
                    "duration": 0.07324937500000006
                },
                {
                    "name": "E4",
                    "midi": 64,
                    "time": 2.3439800000000015,
                    "velocity": 0.41732283464566927,
                    "duration": 0.07324937500000006
                },
                {
                    "name": "F#3",
                    "midi": 54,
                    "time": 2.4904787500000016,
                    "velocity": 0.36220472440944884,
                    "duration": 0.07324937500000006
                },
                {
                    "name": "C#4",
                    "midi": 61,
                    "time": 2.4904787500000016,
                    "velocity": 0.36220472440944884,
                    "duration": 0.07324937500000006
                },
                {
                    "name": "E4",
                    "midi": 64,
                    "time": 2.4904787500000016,
                    "velocity": 0.44881889763779526,
                    "duration": 0.07324937500000006
                },
                {
                    "name": "B2",
                    "midi": 47,
                    "time": 2.6369775000000018,
                    "velocity": 0.47244094488188976,
                    "duration": 0.07324937500000006
                },
                {
                    "name": "D4",
                    "midi": 62,
                    "time": 2.783476250000002,
                    "velocity": 0.33858267716535434,
                    "duration": 0.07324937500000006
                },
                {
                    "name": "B3",
                    "midi": 59,
                    "time": 2.783476250000002,
                    "velocity": 0.2677165354330709,
                    "duration": 0.07324937500000006
                },
                {
                    "name": "F#3",
                    "midi": 54,
                    "time": 2.783476250000002,
                    "velocity": 0.2677165354330709,
                    "duration": 0.07324937500000006
                },
                {
                    "name": "F#3",
                    "midi": 54,
                    "time": 2.929975000000002,
                    "velocity": 0.3228346456692913,
                    "duration": 0.07324937500000006
                },
                {
                    "name": "B3",
                    "midi": 59,
                    "time": 2.929975000000002,
                    "velocity": 0.3228346456692913,
                    "duration": 0.07324937500000006
                },
                {
                    "name": "D4",
                    "midi": 62,
                    "time": 2.929975000000002,
                    "velocity": 0.4094488188976378,
                    "duration": 0.07324937500000006
                },
                {
                    "name": "F#3",
                    "midi": 54,
                    "time": 3.076473750000002,
                    "velocity": 0.30708661417322836,
                    "duration": 0.07324937500000006
                },
                {
                    "name": "B3",
                    "midi": 59,
                    "time": 3.076473750000002,
                    "velocity": 0.30708661417322836,
                    "duration": 0.07324937500000006
                },
                {
                    "name": "D4",
                    "midi": 62,
                    "time": 3.076473750000002,
                    "velocity": 0.3858267716535433,
                    "duration": 0.07324937500000006
                },
                {
                    "name": "D4",
                    "midi": 62,
                    "time": 3.2229725000000022,
                    "velocity": 0.4409448818897638,
                    "duration": 0.07324937500000006
                },
                {
                    "name": "B3",
                    "midi": 59,
                    "time": 3.2229725000000022,
                    "velocity": 0.3464566929133858,
                    "duration": 0.07324937500000006
                },
                {
                    "name": "F#3",
                    "midi": 54,
                    "time": 3.2229725000000022,
                    "velocity": 0.3464566929133858,
                    "duration": 0.07324937500000006
                },
                {
                    "name": "F#3",
                    "midi": 54,
                    "time": 3.3694712500000024,
                    "velocity": 0.33070866141732286,
                    "duration": 0.07324937500000006
                },
                {
                    "name": "B3",
                    "midi": 59,
                    "time": 3.3694712500000024,
                    "velocity": 0.33070866141732286,
                    "duration": 0.07324937500000006
                },
                {
                    "name": "D4",
                    "midi": 62,
                    "time": 3.3694712500000024,
                    "velocity": 0.4251968503937008,
                    "duration": 0.07324937500000006
                },
                {
                    "name": "G2",
                    "midi": 43,
                    "time": 3.5159700000000025,
                    "velocity": 0.5275590551181102,
                    "duration": 0.07324937500000006
                },
                {
                    "name": "E4",
                    "midi": 64,
                    "time": 3.6624687500000026,
                    "velocity": 0.3858267716535433,
                    "duration": 0.07324937500000006
                },
                {
                    "name": "B3",
                    "midi": 59,
                    "time": 3.6624687500000026,
                    "velocity": 0.30708661417322836,
                    "duration": 0.07324937500000006
                },
                {
                    "name": "G3",
                    "midi": 55,
                    "time": 3.6624687500000026,
                    "velocity": 0.30708661417322836,
                    "duration": 0.07324937500000006
                },
                {
                    "name": "G3",
                    "midi": 55,
                    "time": 3.8089675000000027,
                    "velocity": 0.3464566929133858,
                    "duration": 0.07324937500000006
                },
                {
                    "name": "B3",
                    "midi": 59,
                    "time": 3.8089675000000027,
                    "velocity": 0.3464566929133858,
                    "duration": 0.07324937500000006
                },
                {
                    "name": "E4",
                    "midi": 64,
                    "time": 3.8089675000000027,
                    "velocity": 0.4330708661417323,
                    "duration": 0.07324937500000006
                },
                {
                    "name": "G3",
                    "midi": 55,
                    "time": 3.955466250000003,
                    "velocity": 0.33070866141732286,
                    "duration": 0.07324937500000006
                },
                {
                    "name": "B3",
                    "midi": 59,
                    "time": 3.955466250000003,
                    "velocity": 0.33070866141732286,
                    "duration": 0.07324937500000006
                },
                {
                    "name": "E4",
                    "midi": 64,
                    "time": 3.955466250000003,
                    "velocity": 0.4094488188976378,
                    "duration": 0.07324937500000006
                },
                {
                    "name": "G3",
                    "midi": 55,
                    "time": 4.1019650000000025,
                    "velocity": 0.36220472440944884,
                    "duration": 0.07324937499999962
                },
                {
                    "name": "B3",
                    "midi": 59,
                    "time": 4.1019650000000025,
                    "velocity": 0.36220472440944884,
                    "duration": 0.07324937499999962
                },
                {
                    "name": "E4",
                    "midi": 64,
                    "time": 4.1019650000000025,
                    "velocity": 0.44881889763779526,
                    "duration": 0.07324937499999962
                },
                {
                    "name": "G3",
                    "midi": 55,
                    "time": 4.248463750000002,
                    "velocity": 0.4094488188976378,
                    "duration": 0.07324937499999962
                },
                {
                    "name": "B3",
                    "midi": 59,
                    "time": 4.248463750000002,
                    "velocity": 0.4094488188976378,
                    "duration": 0.07324937499999962
                },
                {
                    "name": "E4",
                    "midi": 64,
                    "time": 4.248463750000002,
                    "velocity": 0.5196850393700787,
                    "duration": 0.07324937499999962
                },
                {
                    "name": "F#2",
                    "midi": 42,
                    "time": 4.394962500000001,
                    "velocity": 0.5748031496062992,
                    "duration": 0.07324937499999962
                },
                {
                    "name": "E4",
                    "midi": 64,
                    "time": 4.54146125,
                    "velocity": 0.48031496062992124,
                    "duration": 0.07324937499999962
                },
                {
                    "name": "A#3",
                    "midi": 58,
                    "time": 4.54146125,
                    "velocity": 0.3779527559055118,
                    "duration": 0.07324937499999962
                },
                {
                    "name": "F#3",
                    "midi": 54,
                    "time": 4.54146125,
                    "velocity": 0.3779527559055118,
                    "duration": 0.07324937499999962
                },
                {
                    "name": "E4",
                    "midi": 64,
                    "time": 4.6879599999999995,
                    "velocity": 0.5196850393700787,
                    "duration": 0.07324937499999962
                },
                {
                    "name": "A#3",
                    "midi": 58,
                    "time": 4.6879599999999995,
                    "velocity": 0.4094488188976378,
                    "duration": 0.07324937499999962
                },
                {
                    "name": "F#3",
                    "midi": 54,
                    "time": 4.6879599999999995,
                    "velocity": 0.4094488188976378,
                    "duration": 0.07324937499999962
                },
                {
                    "name": "E4",
                    "midi": 64,
                    "time": 4.834458749999999,
                    "velocity": 0.5511811023622047,
                    "duration": 0.07324937499999962
                },
                {
                    "name": "A#3",
                    "midi": 58,
                    "time": 4.834458749999999,
                    "velocity": 0.4409448818897638,
                    "duration": 0.07324937499999962
                },
                {
                    "name": "F#3",
                    "midi": 54,
                    "time": 4.834458749999999,
                    "velocity": 0.4409448818897638,
                    "duration": 0.07324937499999962
                },
                {
                    "name": "E4",
                    "midi": 64,
                    "time": 4.980957499999998,
                    "velocity": 0.5669291338582677,
                    "duration": 0.07324937499999962
                },
                {
                    "name": "A#3",
                    "midi": 58,
                    "time": 4.980957499999998,
                    "velocity": 0.44881889763779526,
                    "duration": 0.07324937499999962
                },
                {
                    "name": "F#3",
                    "midi": 54,
                    "time": 4.980957499999998,
                    "velocity": 0.44881889763779526,
                    "duration": 0.07324937499999962
                },
                {
                    "name": "F#3",
                    "midi": 54,
                    "time": 5.127456249999997,
                    "velocity": 0.3779527559055118,
                    "duration": 0.07324937499999962
                },
                {
                    "name": "A#3",
                    "midi": 58,
                    "time": 5.127456249999997,
                    "velocity": 0.3779527559055118,
                    "duration": 0.07324937499999962
                },
                {
                    "name": "E4",
                    "midi": 64,
                    "time": 5.127456249999997,
                    "velocity": 0.47244094488188976,
                    "duration": 0.07324937499999962
                },
                {
                    "name": "A#2",
                    "midi": 46,
                    "time": 5.273954999999996,
                    "velocity": 0.6141732283464567,
                    "duration": 0.07324937499999962
                },
                {
                    "name": "F#4",
                    "midi": 66,
                    "time": 5.420453749999996,
                    "velocity": 0.48031496062992124,
                    "duration": 0.07324937499999962
                },
                {
                    "name": "F#3",
                    "midi": 54,
                    "time": 5.420453749999996,
                    "velocity": 0.3779527559055118,
                    "duration": 0.07324937499999962
                },
                {
                    "name": "C#4",
                    "midi": 61,
                    "time": 5.420453749999996,
                    "velocity": 0.3779527559055118,
                    "duration": 0.07324937499999962
                },
                {
                    "name": "E4",
                    "midi": 64,
                    "time": 5.420453749999996,
                    "velocity": 0.4015748031496063,
                    "duration": 0.07324937499999962
                },
                {
                    "name": "F#4",
                    "midi": 66,
                    "time": 5.566952499999995,
                    "velocity": 0.44881889763779526,
                    "duration": 0.07324937499999962
                },
                {
                    "name": "E4",
                    "midi": 64,
                    "time": 5.566952499999995,
                    "velocity": 0.3779527559055118,
                    "duration": 0.07324937499999962
                },
                {
                    "name": "C#4",
                    "midi": 61,
                    "time": 5.566952499999995,
                    "velocity": 0.3543307086614173,
                    "duration": 0.07324937499999962
                },
                {
                    "name": "F#3",
                    "midi": 54,
                    "time": 5.566952499999995,
                    "velocity": 0.3543307086614173,
                    "duration": 0.07324937499999962
                },
                {
                    "name": "F#4",
                    "midi": 66,
                    "time": 5.713451249999994,
                    "velocity": 0.49606299212598426,
                    "duration": 0.07324937499999962
                },
                {
                    "name": "F#3",
                    "midi": 54,
                    "time": 5.713451249999994,
                    "velocity": 0.3937007874015748,
                    "duration": 0.07324937499999962
                },
                {
                    "name": "C#4",
                    "midi": 61,
                    "time": 5.713451249999994,
                    "velocity": 0.3937007874015748,
                    "duration": 0.07324937499999962
                },
                {
                    "name": "E4",
                    "midi": 64,
                    "time": 5.713451249999994,
                    "velocity": 0.41732283464566927,
                    "duration": 0.07324937499999962
                },
                {
                    "name": "F#4",
                    "midi": 66,
                    "time": 5.859949999999993,
                    "velocity": 0.5039370078740157,
                    "duration": 0.07324937499999962
                },
                {
                    "name": "F#3",
                    "midi": 54,
                    "time": 5.859949999999993,
                    "velocity": 0.4015748031496063,
                    "duration": 0.07324937499999962
                },
                {
                    "name": "C#4",
                    "midi": 61,
                    "time": 5.859949999999993,
                    "velocity": 0.4015748031496063,
                    "duration": 0.07324937499999962
                },
                {
                    "name": "E4",
                    "midi": 64,
                    "time": 5.859949999999993,
                    "velocity": 0.4251968503937008,
                    "duration": 0.07324937499999962
                },
                {
                    "name": "F#4",
                    "midi": 66,
                    "time": 6.006448749999993,
                    "velocity": 0.5354330708661418,
                    "duration": 0.07324937499999962
                },
                {
                    "name": "F#3",
                    "midi": 54,
                    "time": 6.006448749999993,
                    "velocity": 0.4251968503937008,
                    "duration": 0.07324937499999962
                },
                {
                    "name": "C#4",
                    "midi": 61,
                    "time": 6.006448749999993,
                    "velocity": 0.4251968503937008,
                    "duration": 0.07324937499999962
                },
                {
                    "name": "E4",
                    "midi": 64,
                    "time": 6.006448749999993,
                    "velocity": 0.44881889763779526,
                    "duration": 0.07324937499999962
                },
                {
                    "name": "B2",
                    "midi": 47,
                    "time": 6.152947499999992,
                    "velocity": 0.5905511811023622,
                    "duration": 0.07324937499999962
                },
                {
                    "name": "F#4",
                    "midi": 66,
                    "time": 6.299446249999991,
                    "velocity": 0.47244094488188976,
                    "duration": 0.07324937499999962
                },
                {
                    "name": "D4",
                    "midi": 62,
                    "time": 6.299446249999991,
                    "velocity": 0.4015748031496063,
                    "duration": 0.07324937499999962
                },
                {
                    "name": "B3",
                    "midi": 59,
                    "time": 6.299446249999991,
                    "velocity": 0.3779527559055118,
                    "duration": 0.07324937499999962
                },
                {
                    "name": "F#3",
                    "midi": 54,
                    "time": 6.299446249999991,
                    "velocity": 0.3779527559055118,
                    "duration": 0.07324937499999962
                },
                {
                    "name": "F#4",
                    "midi": 66,
                    "time": 6.44594499999999,
                    "velocity": 0.47244094488188976,
                    "duration": 0.07324937499999962
                },
                {
                    "name": "D4",
                    "midi": 62,
                    "time": 6.44594499999999,
                    "velocity": 0.4015748031496063,
                    "duration": 0.07324937499999962
                },
                {
                    "name": "B3",
                    "midi": 59,
                    "time": 6.44594499999999,
                    "velocity": 0.3779527559055118,
                    "duration": 0.07324937499999962
                },
                {
                    "name": "F#3",
                    "midi": 54,
                    "time": 6.44594499999999,
                    "velocity": 0.3779527559055118,
                    "duration": 0.07324937499999962
                },
                {
                    "name": "F#4",
                    "midi": 66,
                    "time": 6.5924437499999895,
                    "velocity": 0.4409448818897638,
                    "duration": 0.07324937499999962
                },
                {
                    "name": "D4",
                    "midi": 62,
                    "time": 6.5924437499999895,
                    "velocity": 0.3700787401574803,
                    "duration": 0.07324937499999962
                },
                {
                    "name": "B3",
                    "midi": 59,
                    "time": 6.5924437499999895,
                    "velocity": 0.3464566929133858,
                    "duration": 0.07324937499999962
                },
                {
                    "name": "F#3",
                    "midi": 54,
                    "time": 6.5924437499999895,
                    "velocity": 0.3464566929133858,
                    "duration": 0.07324937499999962
                },
                {
                    "name": "F#4",
                    "midi": 66,
                    "time": 6.738942499999989,
                    "velocity": 0.49606299212598426,
                    "duration": 0.07324937499999962
                },
                {
                    "name": "D4",
                    "midi": 62,
                    "time": 6.738942499999989,
                    "velocity": 0.41732283464566927,
                    "duration": 0.07324937499999962
                },
                {
                    "name": "B3",
                    "midi": 59,
                    "time": 6.738942499999989,
                    "velocity": 0.3937007874015748,
                    "duration": 0.07324937499999962
                },
                {
                    "name": "F#3",
                    "midi": 54,
                    "time": 6.738942499999989,
                    "velocity": 0.3937007874015748,
                    "duration": 0.07324937499999962
                },
                {
                    "name": "F#4",
                    "midi": 66,
                    "time": 6.885441249999988,
                    "velocity": 0.4566929133858268,
                    "duration": 0.07324937499999962
                },
                {
                    "name": "D4",
                    "midi": 62,
                    "time": 6.885441249999988,
                    "velocity": 0.3858267716535433,
                    "duration": 0.07324937499999962
                },
                {
                    "name": "B3",
                    "midi": 59,
                    "time": 6.885441249999988,
                    "velocity": 0.36220472440944884,
                    "duration": 0.07324937499999962
                },
                {
                    "name": "F#3",
                    "midi": 54,
                    "time": 6.885441249999988,
                    "velocity": 0.36220472440944884,
                    "duration": 0.07324937499999962
                },
                {
                    "name": "C#3",
                    "midi": 49,
                    "time": 7.031939999999987,
                    "velocity": 0.5905511811023622,
                    "duration": 0.14649875000000012
                },
                {
                    "name": "F3",
                    "midi": 53,
                    "time": 7.178438749999987,
                    "velocity": 0.33858267716535434,
                    "duration": 0.07324937499999962
                },
                {
                    "name": "B3",
                    "midi": 59,
                    "time": 7.178438749999987,
                    "velocity": 0.33858267716535434,
                    "duration": 0.07324937499999962
                },
                {
                    "name": "C#4",
                    "midi": 61,
                    "time": 7.178438749999987,
                    "velocity": 0.4330708661417323,
                    "duration": 0.07324937499999962
                },
                {
                    "name": "F3",
                    "midi": 53,
                    "time": 7.324937499999987,
                    "velocity": 0.3779527559055118,
                    "duration": 0.07324937499999962
                },
                {
                    "name": "B3",
                    "midi": 59,
                    "time": 7.324937499999987,
                    "velocity": 0.3779527559055118,
                    "duration": 0.07324937499999962
                },
                {
                    "name": "C#4",
                    "midi": 61,
                    "time": 7.324937499999987,
                    "velocity": 0.48031496062992124,
                    "duration": 0.07324937499999962
                },
                {
                    "name": "C#4",
                    "midi": 61,
                    "time": 7.471436249999986,
                    "velocity": 0.41732283464566927,
                    "duration": 0.07324937499999962
                },
                {
                    "name": "B3",
                    "midi": 59,
                    "time": 7.471436249999986,
                    "velocity": 0.33070866141732286,
                    "duration": 0.07324937499999962
                },
                {
                    "name": "F3",
                    "midi": 53,
                    "time": 7.471436249999986,
                    "velocity": 0.33070866141732286,
                    "duration": 0.07324937499999962
                },
                {
                    "name": "C#4",
                    "midi": 61,
                    "time": 7.617934999999985,
                    "velocity": 0.4881889763779528,
                    "duration": 0.07324937499999962
                },
                {
                    "name": "B3",
                    "midi": 59,
                    "time": 7.617934999999985,
                    "velocity": 0.3858267716535433,
                    "duration": 0.07324937499999962
                },
                {
                    "name": "F#3",
                    "midi": 54,
                    "time": 7.617934999999985,
                    "velocity": 0.3858267716535433,
                    "duration": 0.07324937499999962
                },
                {
                    "name": "C#4",
                    "midi": 61,
                    "time": 7.764433749999984,
                    "velocity": 0.4409448818897638,
                    "duration": 0.07324937499999962
                },
                {
                    "name": "B3",
                    "midi": 59,
                    "time": 7.764433749999984,
                    "velocity": 0.3543307086614173,
                    "duration": 0.07324937499999962
                },
                {
                    "name": "G#3",
                    "midi": 56,
                    "time": 7.764433749999984,
                    "velocity": 0.4409448818897638,
                    "duration": 0.07324937499999962
                },
                {
                    "name": "F#3",
                    "midi": 54,
                    "time": 7.9109324999999835,
                    "velocity": 0.4094488188976378,
                    "duration": 0.07324937499999962
                },
                {
                    "name": "A#3",
                    "midi": 58,
                    "time": 7.9109324999999835,
                    "velocity": 0.4094488188976378,
                    "duration": 0.07324937499999962
                },
                {
                    "name": "C#4",
                    "midi": 61,
                    "time": 7.9109324999999835,
                    "velocity": 0.5275590551181102,
                    "duration": 0.07324937499999962
                },
                {
                    "name": "F#3",
                    "midi": 54,
                    "time": 8.057431249999983,
                    "velocity": 0.2992125984251969,
                    "duration": 0.07324937499999962
                },
                {
                    "name": "A#3",
                    "midi": 58,
                    "time": 8.057431249999983,
                    "velocity": 0.2992125984251969,
                    "duration": 0.07324937499999962
                },
                {
                    "name": "C#4",
                    "midi": 61,
                    "time": 8.057431249999983,
                    "velocity": 0.3858267716535433,
                    "duration": 0.07324937499999962
                },
                {
                    "name": "F#3",
                    "midi": 54,
                    "time": 8.203929999999982,
                    "velocity": 0.33070866141732286,
                    "duration": 0.07324937499999962
                },
                {
                    "name": "A#3",
                    "midi": 58,
                    "time": 8.203929999999982,
                    "velocity": 0.33070866141732286,
                    "duration": 0.07324937499999962
                },
                {
                    "name": "C#4",
                    "midi": 61,
                    "time": 8.203929999999982,
                    "velocity": 0.4094488188976378,
                    "duration": 0.07324937499999962
                },
                {
                    "name": "C#4",
                    "midi": 61,
                    "time": 8.350428749999981,
                    "velocity": 0.3228346456692913,
                    "duration": 0.07324937499999962
                },
                {
                    "name": "A#3",
                    "midi": 58,
                    "time": 8.350428749999981,
                    "velocity": 0.25196850393700787,
                    "duration": 0.07324937499999962
                },
                {
                    "name": "F#3",
                    "midi": 54,
                    "time": 8.350428749999981,
                    "velocity": 0.25196850393700787,
                    "duration": 0.07324937499999962
                },
                {
                    "name": "F#3",
                    "midi": 54,
                    "time": 8.49692749999998,
                    "velocity": 0.28346456692913385,
                    "duration": 0.07324937499999962
                },
                {
                    "name": "A#3",
                    "midi": 58,
                    "time": 8.49692749999998,
                    "velocity": 0.28346456692913385,
                    "duration": 0.07324937499999962
                },
                {
                    "name": "C#4",
                    "midi": 61,
                    "time": 8.49692749999998,
                    "velocity": 0.36220472440944884,
                    "duration": 0.07324937499999962
                },
                {
                    "name": "C#4",
                    "midi": 61,
                    "time": 8.64342624999998,
                    "velocity": 0.31496062992125984,
                    "duration": 0.07324937499999962
                },
                {
                    "name": "A#3",
                    "midi": 58,
                    "time": 8.64342624999998,
                    "velocity": 0.25196850393700787,
                    "duration": 0.07324937499999962
                },
                {
                    "name": "F#3",
                    "midi": 54,
                    "time": 8.64342624999998,
                    "velocity": 0.25196850393700787,
                    "duration": 0.07324937499999962
                },
                {
                    "name": "A#2",
                    "midi": 46,
                    "time": 8.789924999999979,
                    "velocity": 0.31496062992125984,
                    "duration": 0.07324937499999962
                },
                {
                    "name": "F#3",
                    "midi": 54,
                    "time": 8.936423749999978,
                    "velocity": 0.25984251968503935,
                    "duration": 0.07324937499999962
                },
                {
                    "name": "C#4",
                    "midi": 61,
                    "time": 8.936423749999978,
                    "velocity": 0.25984251968503935,
                    "duration": 0.07324937499999962
                },
                {
                    "name": "E4",
                    "midi": 64,
                    "time": 8.936423749999978,
                    "velocity": 0.33858267716535434,
                    "duration": 0.07324937499999962
                },
                {
                    "name": "F#3",
                    "midi": 54,
                    "time": 9.082922499999977,
                    "velocity": 0.29133858267716534,
                    "duration": 0.07324937499999962
                },
                {
                    "name": "C#4",
                    "midi": 61,
                    "time": 9.082922499999977,
                    "velocity": 0.29133858267716534,
                    "duration": 0.07324937499999962
                },
                {
                    "name": "E4",
                    "midi": 64,
                    "time": 9.082922499999977,
                    "velocity": 0.3700787401574803,
                    "duration": 0.07324937499999962
                },
                {
                    "name": "F#3",
                    "midi": 54,
                    "time": 9.229421249999977,
                    "velocity": 0.30708661417322836,
                    "duration": 0.07324937499999962
                },
                {
                    "name": "C#4",
                    "midi": 61,
                    "time": 9.229421249999977,
                    "velocity": 0.30708661417322836,
                    "duration": 0.07324937499999962
                },
                {
                    "name": "E4",
                    "midi": 64,
                    "time": 9.229421249999977,
                    "velocity": 0.3937007874015748,
                    "duration": 0.07324937499999962
                },
                {
                    "name": "F#3",
                    "midi": 54,
                    "time": 9.375919999999976,
                    "velocity": 0.33070866141732286,
                    "duration": 0.07324937499999962
                },
                {
                    "name": "C#4",
                    "midi": 61,
                    "time": 9.375919999999976,
                    "velocity": 0.33070866141732286,
                    "duration": 0.07324937499999962
                },
                {
                    "name": "E4",
                    "midi": 64,
                    "time": 9.375919999999976,
                    "velocity": 0.41732283464566927,
                    "duration": 0.07324937499999962
                },
                {
                    "name": "F#3",
                    "midi": 54,
                    "time": 9.522418749999975,
                    "velocity": 0.36220472440944884,
                    "duration": 0.07324937499999962
                },
                {
                    "name": "C#4",
                    "midi": 61,
                    "time": 9.522418749999975,
                    "velocity": 0.36220472440944884,
                    "duration": 0.07324937499999962
                },
                {
                    "name": "E4",
                    "midi": 64,
                    "time": 9.522418749999975,
                    "velocity": 0.44881889763779526,
                    "duration": 0.07324937499999962
                },
                {
                    "name": "B2",
                    "midi": 47,
                    "time": 9.668917499999974,
                    "velocity": 0.47244094488188976,
                    "duration": 0.07324937499999962
                },
                {
                    "name": "D4",
                    "midi": 62,
                    "time": 9.815416249999974,
                    "velocity": 0.33858267716535434,
                    "duration": 0.07324937499999962
                },
                {
                    "name": "B3",
                    "midi": 59,
                    "time": 9.815416249999974,
                    "velocity": 0.2677165354330709,
                    "duration": 0.07324937499999962
                },
                {
                    "name": "F#3",
                    "midi": 54,
                    "time": 9.815416249999974,
                    "velocity": 0.2677165354330709,
                    "duration": 0.07324937499999962
                },
                {
                    "name": "F#3",
                    "midi": 54,
                    "time": 9.961914999999973,
                    "velocity": 0.3228346456692913,
                    "duration": 0.07324937499999962
                },
                {
                    "name": "B3",
                    "midi": 59,
                    "time": 9.961914999999973,
                    "velocity": 0.3228346456692913,
                    "duration": 0.07324937499999962
                },
                {
                    "name": "D4",
                    "midi": 62,
                    "time": 9.961914999999973,
                    "velocity": 0.4094488188976378,
                    "duration": 0.07324937499999962
                },
                {
                    "name": "F#3",
                    "midi": 54,
                    "time": 10.108413749999972,
                    "velocity": 0.30708661417322836,
                    "duration": 0.07324937499999962
                },
                {
                    "name": "B3",
                    "midi": 59,
                    "time": 10.108413749999972,
                    "velocity": 0.30708661417322836,
                    "duration": 0.07324937499999962
                },
                {
                    "name": "D4",
                    "midi": 62,
                    "time": 10.108413749999972,
                    "velocity": 0.3858267716535433,
                    "duration": 0.07324937499999962
                },
                {
                    "name": "D4",
                    "midi": 62,
                    "time": 10.254912499999971,
                    "velocity": 0.44881889763779526,
                    "duration": 0.07324937499999962
                },
                {
                    "name": "B3",
                    "midi": 59,
                    "time": 10.254912499999971,
                    "velocity": 0.3464566929133858,
                    "duration": 0.07324937499999962
                },
                {
                    "name": "F#3",
                    "midi": 54,
                    "time": 10.254912499999971,
                    "velocity": 0.3464566929133858,
                    "duration": 0.07324937499999962
                },
                {
                    "name": "F#3",
                    "midi": 54,
                    "time": 10.40141124999997,
                    "velocity": 0.33070866141732286,
                    "duration": 0.07324937499999962
                },
                {
                    "name": "B3",
                    "midi": 59,
                    "time": 10.40141124999997,
                    "velocity": 0.33070866141732286,
                    "duration": 0.07324937499999962
                },
                {
                    "name": "D4",
                    "midi": 62,
                    "time": 10.40141124999997,
                    "velocity": 0.4330708661417323,
                    "duration": 0.07324937499999962
                },
                {
                    "name": "B2",
                    "midi": 47,
                    "time": 10.54790999999997,
                    "velocity": 0.5433070866141733,
                    "duration": 0.07324937499999962
                },
                {
                    "name": "F4",
                    "midi": 65,
                    "time": 10.694408749999969,
                    "velocity": 0.3937007874015748,
                    "duration": 0.07324937499999962
                },
                {
                    "name": "C#4",
                    "midi": 61,
                    "time": 10.694408749999969,
                    "velocity": 0.31496062992125984,
                    "duration": 0.07324937499999962
                },
                {
                    "name": "G#3",
                    "midi": 56,
                    "time": 10.694408749999969,
                    "velocity": 0.31496062992125984,
                    "duration": 0.07324937499999962
                },
                {
                    "name": "G#3",
                    "midi": 56,
                    "time": 10.840907499999968,
                    "velocity": 0.3543307086614173,
                    "duration": 0.07324937499999962
                },
                {
                    "name": "C#4",
                    "midi": 61,
                    "time": 10.840907499999968,
                    "velocity": 0.3543307086614173,
                    "duration": 0.07324937499999962
                },
                {
                    "name": "F4",
                    "midi": 65,
                    "time": 10.840907499999968,
                    "velocity": 0.4409448818897638,
                    "duration": 0.07324937499999962
                },
                {
                    "name": "G#3",
                    "midi": 56,
                    "time": 10.987406249999967,
                    "velocity": 0.33858267716535434,
                    "duration": 0.07324937499999962
                },
                {
                    "name": "C#4",
                    "midi": 61,
                    "time": 10.987406249999967,
                    "velocity": 0.33858267716535434,
                    "duration": 0.07324937499999962
                },
                {
                    "name": "F4",
                    "midi": 65,
                    "time": 10.987406249999967,
                    "velocity": 0.4251968503937008,
                    "duration": 0.07324937499999962
                },
                {
                    "name": "G#3",
                    "midi": 56,
                    "time": 11.133904999999967,
                    "velocity": 0.3700787401574803,
                    "duration": 0.07324937499999962
                },
                {
                    "name": "C#4",
                    "midi": 61,
                    "time": 11.133904999999967,
                    "velocity": 0.3700787401574803,
                    "duration": 0.07324937499999962
                },
                {
                    "name": "F4",
                    "midi": 65,
                    "time": 11.133904999999967,
                    "velocity": 0.4645669291338583,
                    "duration": 0.07324937499999962
                },
                {
                    "name": "G#3",
                    "midi": 56,
                    "time": 11.280403749999966,
                    "velocity": 0.4251968503937008,
                    "duration": 0.07324937499999962
                },
                {
                    "name": "C#4",
                    "midi": 61,
                    "time": 11.280403749999966,
                    "velocity": 0.4251968503937008,
                    "duration": 0.07324937499999962
                },
                {
                    "name": "F4",
                    "midi": 65,
                    "time": 11.280403749999966,
                    "velocity": 0.5354330708661418,
                    "duration": 0.07324937499999962
                },
                {
                    "name": "A2",
                    "midi": 45,
                    "time": 11.426902499999965,
                    "velocity": 0.5748031496062992,
                    "duration": 0.07324937499999962
                },
                {
                    "name": "F#4",
                    "midi": 66,
                    "time": 11.573401249999964,
                    "velocity": 0.48031496062992124,
                    "duration": 0.07324937499999962
                },
                {
                    "name": "C#4",
                    "midi": 61,
                    "time": 11.573401249999964,
                    "velocity": 0.4015748031496063,
                    "duration": 0.07324937499999962
                },
                {
                    "name": "A3",
                    "midi": 57,
                    "time": 11.573401249999964,
                    "velocity": 0.3779527559055118,
                    "duration": 0.07324937499999962
                },
                {
                    "name": "F#3",
                    "midi": 54,
                    "time": 11.573401249999964,
                    "velocity": 0.3779527559055118,
                    "duration": 0.07324937499999962
                },
                {
                    "name": "F#4",
                    "midi": 66,
                    "time": 11.719899999999964,
                    "velocity": 0.5196850393700787,
                    "duration": 0.07324937499999962
                },
                {
                    "name": "C#4",
                    "midi": 61,
                    "time": 11.719899999999964,
                    "velocity": 0.4409448818897638,
                    "duration": 0.07324937499999962
                },
                {
                    "name": "A3",
                    "midi": 57,
                    "time": 11.719899999999964,
                    "velocity": 0.4094488188976378,
                    "duration": 0.07324937499999962
                },
                {
                    "name": "F#3",
                    "midi": 54,
                    "time": 11.719899999999964,
                    "velocity": 0.4094488188976378,
                    "duration": 0.07324937499999962
                },
                {
                    "name": "F#4",
                    "midi": 66,
                    "time": 11.866398749999963,
                    "velocity": 0.5511811023622047,
                    "duration": 0.07324937499999962
                },
                {
                    "name": "C#4",
                    "midi": 61,
                    "time": 11.866398749999963,
                    "velocity": 0.4645669291338583,
                    "duration": 0.07324937499999962
                },
                {
                    "name": "A3",
                    "midi": 57,
                    "time": 11.866398749999963,
                    "velocity": 0.4409448818897638,
                    "duration": 0.07324937499999962
                },
                {
                    "name": "F#3",
                    "midi": 54,
                    "time": 11.866398749999963,
                    "velocity": 0.4409448818897638,
                    "duration": 0.07324937499999962
                },
                {
                    "name": "F#4",
                    "midi": 66,
                    "time": 12.012897499999962,
                    "velocity": 0.5669291338582677,
                    "duration": 0.07324937499999962
                },
                {
                    "name": "C#4",
                    "midi": 61,
                    "time": 12.012897499999962,
                    "velocity": 0.48031496062992124,
                    "duration": 0.07324937499999962
                },
                {
                    "name": "A3",
                    "midi": 57,
                    "time": 12.012897499999962,
                    "velocity": 0.44881889763779526,
                    "duration": 0.07324937499999962
                },
                {
                    "name": "F#3",
                    "midi": 54,
                    "time": 12.012897499999962,
                    "velocity": 0.44881889763779526,
                    "duration": 0.07324937499999962
                },
                {
                    "name": "F#4",
                    "midi": 66,
                    "time": 12.159396249999961,
                    "velocity": 0.47244094488188976,
                    "duration": 0.07324937499999962
                },
                {
                    "name": "F#3",
                    "midi": 54,
                    "time": 12.159396249999961,
                    "velocity": 0.3779527559055118,
                    "duration": 0.07324937499999962
                },
                {
                    "name": "A3",
                    "midi": 57,
                    "time": 12.159396249999961,
                    "velocity": 0.3779527559055118,
                    "duration": 0.07324937499999962
                },
                {
                    "name": "C#4",
                    "midi": 61,
                    "time": 12.159396249999961,
                    "velocity": 0.4015748031496063,
                    "duration": 0.07324937499999962
                },
                {
                    "name": "B2",
                    "midi": 47,
                    "time": 12.30589499999996,
                    "velocity": 0.6141732283464567,
                    "duration": 0.07324937499999962
                },
                {
                    "name": "F#3",
                    "midi": 54,
                    "time": 12.45239374999996,
                    "velocity": 0.3779527559055118,
                    "duration": 0.07324937499999962
                },
                {
                    "name": "G#3",
                    "midi": 56,
                    "time": 12.45239374999996,
                    "velocity": 0.3779527559055118,
                    "duration": 0.07324937499999962
                },
                {
                    "name": "D4",
                    "midi": 62,
                    "time": 12.45239374999996,
                    "velocity": 0.48031496062992124,
                    "duration": 0.07324937499999962
                },
                {
                    "name": "D4",
                    "midi": 62,
                    "time": 12.598892499999959,
                    "velocity": 0.44881889763779526,
                    "duration": 0.07324937499999962
                },
                {
                    "name": "G#3",
                    "midi": 56,
                    "time": 12.598892499999959,
                    "velocity": 0.3543307086614173,
                    "duration": 0.07324937499999962
                },
                {
                    "name": "F#3",
                    "midi": 54,
                    "time": 12.598892499999959,
                    "velocity": 0.3543307086614173,
                    "duration": 0.07324937499999962
                },
                {
                    "name": "F#3",
                    "midi": 54,
                    "time": 12.745391249999958,
                    "velocity": 0.3937007874015748,
                    "duration": 0.07324937499999962
                },
                {
                    "name": "G#3",
                    "midi": 56,
                    "time": 12.745391249999958,
                    "velocity": 0.3937007874015748,
                    "duration": 0.07324937499999962
                },
                {
                    "name": "D4",
                    "midi": 62,
                    "time": 12.745391249999958,
                    "velocity": 0.49606299212598426,
                    "duration": 0.07324937499999962
                },
                {
                    "name": "F#3",
                    "midi": 54,
                    "time": 12.891889999999957,
                    "velocity": 0.4015748031496063,
                    "duration": 0.07324937499999962
                },
                {
                    "name": "G#3",
                    "midi": 56,
                    "time": 12.891889999999957,
                    "velocity": 0.4015748031496063,
                    "duration": 0.07324937499999962
                },
                {
                    "name": "D4",
                    "midi": 62,
                    "time": 12.891889999999957,
                    "velocity": 0.5039370078740157,
                    "duration": 0.07324937499999962
                },
                {
                    "name": "F#3",
                    "midi": 54,
                    "time": 13.038388749999957,
                    "velocity": 0.4251968503937008,
                    "duration": 0.07324937499999962
                },
                {
                    "name": "G#3",
                    "midi": 56,
                    "time": 13.038388749999957,
                    "velocity": 0.4251968503937008,
                    "duration": 0.07324937499999962
                },
                {
                    "name": "D4",
                    "midi": 62,
                    "time": 13.038388749999957,
                    "velocity": 0.5354330708661418,
                    "duration": 0.07324937499999962
                },
                {
                    "name": "C#3",
                    "midi": 49,
                    "time": 13.184887499999956,
                    "velocity": 0.5748031496062992,
                    "duration": 0.07324937499999962
                },
                {
                    "name": "F#4",
                    "midi": 66,
                    "time": 13.331386249999955,
                    "velocity": 0.48031496062992124,
                    "duration": 0.07324937499999962
                },
                {
                    "name": "C#4",
                    "midi": 61,
                    "time": 13.331386249999955,
                    "velocity": 0.4015748031496063,
                    "duration": 0.07324937499999962
                },
                {
                    "name": "A3",
                    "midi": 57,
                    "time": 13.331386249999955,
                    "velocity": 0.3779527559055118,
                    "duration": 0.07324937499999962
                },
                {
                    "name": "F#3",
                    "midi": 54,
                    "time": 13.331386249999955,
                    "velocity": 0.3779527559055118,
                    "duration": 0.07324937499999962
                },
                {
                    "name": "F#4",
                    "midi": 66,
                    "time": 13.477884999999954,
                    "velocity": 0.5196850393700787,
                    "duration": 0.07324937499999962
                },
                {
                    "name": "C#4",
                    "midi": 61,
                    "time": 13.477884999999954,
                    "velocity": 0.4409448818897638,
                    "duration": 0.07324937499999962
                },
                {
                    "name": "A3",
                    "midi": 57,
                    "time": 13.477884999999954,
                    "velocity": 0.4094488188976378,
                    "duration": 0.07324937499999962
                },
                {
                    "name": "F#3",
                    "midi": 54,
                    "time": 13.477884999999954,
                    "velocity": 0.4094488188976378,
                    "duration": 0.07324937499999962
                },
                {
                    "name": "F#4",
                    "midi": 66,
                    "time": 13.624383749999954,
                    "velocity": 0.5511811023622047,
                    "duration": 0.07324937499999962
                },
                {
                    "name": "C#4",
                    "midi": 61,
                    "time": 13.624383749999954,
                    "velocity": 0.4645669291338583,
                    "duration": 0.07324937499999962
                },
                {
                    "name": "A3",
                    "midi": 57,
                    "time": 13.624383749999954,
                    "velocity": 0.4409448818897638,
                    "duration": 0.07324937499999962
                },
                {
                    "name": "F#3",
                    "midi": 54,
                    "time": 13.624383749999954,
                    "velocity": 0.4409448818897638,
                    "duration": 0.07324937499999962
                },
                {
                    "name": "F#4",
                    "midi": 66,
                    "time": 13.770882499999953,
                    "velocity": 0.5669291338582677,
                    "duration": 0.07324937499999962
                },
                {
                    "name": "C#4",
                    "midi": 61,
                    "time": 13.770882499999953,
                    "velocity": 0.48031496062992124,
                    "duration": 0.07324937499999962
                },
                {
                    "name": "A3",
                    "midi": 57,
                    "time": 13.770882499999953,
                    "velocity": 0.44881889763779526,
                    "duration": 0.07324937499999962
                },
                {
                    "name": "F#3",
                    "midi": 54,
                    "time": 13.770882499999953,
                    "velocity": 0.44881889763779526,
                    "duration": 0.07324937499999962
                },
                {
                    "name": "F#4",
                    "midi": 66,
                    "time": 13.917381249999952,
                    "velocity": 0.47244094488188976,
                    "duration": 0.07324937499999962
                },
                {
                    "name": "F#3",
                    "midi": 54,
                    "time": 13.917381249999952,
                    "velocity": 0.3779527559055118,
                    "duration": 0.07324937499999962
                },
                {
                    "name": "A3",
                    "midi": 57,
                    "time": 13.917381249999952,
                    "velocity": 0.3779527559055118,
                    "duration": 0.07324937499999962
                },
                {
                    "name": "C#4",
                    "midi": 61,
                    "time": 13.917381249999952,
                    "velocity": 0.4015748031496063,
                    "duration": 0.07324937499999962
                },
                {
                    "name": "B2",
                    "midi": 47,
                    "time": 14.063879999999951,
                    "velocity": 0.6141732283464567,
                    "duration": 0.07324937499999962
                },
                {
                    "name": "F#3",
                    "midi": 54,
                    "time": 14.21037874999995,
                    "velocity": 0.3779527559055118,
                    "duration": 0.07324937499999962
                },
                {
                    "name": "G#3",
                    "midi": 56,
                    "time": 14.21037874999995,
                    "velocity": 0.3779527559055118,
                    "duration": 0.07324937499999962
                },
                {
                    "name": "D4",
                    "midi": 62,
                    "time": 14.21037874999995,
                    "velocity": 0.48031496062992124,
                    "duration": 0.07324937499999962
                },
                {
                    "name": "D4",
                    "midi": 62,
                    "time": 14.35687749999995,
                    "velocity": 0.44881889763779526,
                    "duration": 0.07324937499999962
                },
                {
                    "name": "G#3",
                    "midi": 56,
                    "time": 14.35687749999995,
                    "velocity": 0.3543307086614173,
                    "duration": 0.07324937499999962
                },
                {
                    "name": "F#3",
                    "midi": 54,
                    "time": 14.35687749999995,
                    "velocity": 0.3543307086614173,
                    "duration": 0.07324937499999962
                },
                {
                    "name": "F#3",
                    "midi": 54,
                    "time": 14.503376249999949,
                    "velocity": 0.3937007874015748,
                    "duration": 0.07324937499999962
                },
                {
                    "name": "G#3",
                    "midi": 56,
                    "time": 14.503376249999949,
                    "velocity": 0.3937007874015748,
                    "duration": 0.07324937499999962
                },
                {
                    "name": "D4",
                    "midi": 62,
                    "time": 14.503376249999949,
                    "velocity": 0.49606299212598426,
                    "duration": 0.07324937499999962
                },
                {
                    "name": "F#3",
                    "midi": 54,
                    "time": 14.649874999999948,
                    "velocity": 0.4015748031496063,
                    "duration": 0.07324937499999962
                },
                {
                    "name": "G#3",
                    "midi": 56,
                    "time": 14.649874999999948,
                    "velocity": 0.4015748031496063,
                    "duration": 0.07324937499999962
                },
                {
                    "name": "D4",
                    "midi": 62,
                    "time": 14.649874999999948,
                    "velocity": 0.5039370078740157,
                    "duration": 0.07324937499999962
                },
                {
                    "name": "F#3",
                    "midi": 54,
                    "time": 14.796373749999947,
                    "velocity": 0.4251968503937008,
                    "duration": 0.07324937499999962
                },
                {
                    "name": "G#3",
                    "midi": 56,
                    "time": 14.796373749999947,
                    "velocity": 0.4251968503937008,
                    "duration": 0.07324937499999962
                },
                {
                    "name": "D4",
                    "midi": 62,
                    "time": 14.796373749999947,
                    "velocity": 0.5354330708661418,
                    "duration": 0.07324937499999962
                },
                {
                    "name": "C#3",
                    "midi": 49,
                    "time": 14.942872499999947,
                    "velocity": 0.3779527559055118,
                    "duration": 0.07324937499999962
                },
                {
                    "name": "F#3",
                    "midi": 54,
                    "time": 14.942872499999947,
                    "velocity": 0.3779527559055118,
                    "duration": 0.07324937499999962
                },
                {
                    "name": "A3",
                    "midi": 57,
                    "time": 14.942872499999947,
                    "velocity": 0.48031496062992124,
                    "duration": 0.07324937499999962
                },
                {
                    "name": "A3",
                    "midi": 57,
                    "time": 15.089371249999946,
                    "velocity": 0.44881889763779526,
                    "duration": 0.07324937499999962
                },
                {
                    "name": "F#3",
                    "midi": 54,
                    "time": 15.089371249999946,
                    "velocity": 0.3543307086614173,
                    "duration": 0.07324937499999962
                },
                {
                    "name": "C#3",
                    "midi": 49,
                    "time": 15.089371249999946,
                    "velocity": 0.3543307086614173,
                    "duration": 0.07324937499999962
                },
                {
                    "name": "C#3",
                    "midi": 49,
                    "time": 15.235869999999945,
                    "velocity": 0.3937007874015748,
                    "duration": 0.07324937499999962
                },
                {
                    "name": "F#3",
                    "midi": 54,
                    "time": 15.235869999999945,
                    "velocity": 0.3937007874015748,
                    "duration": 0.07324937499999962
                },
                {
                    "name": "A3",
                    "midi": 57,
                    "time": 15.235869999999945,
                    "velocity": 0.49606299212598426,
                    "duration": 0.07324937499999962
                },
                {
                    "name": "B3",
                    "midi": 59,
                    "time": 15.821864999999946,
                    "velocity": 0.49606299212598426,
                    "duration": 0.07324937499999962
                },
                {
                    "name": "C#3",
                    "midi": 49,
                    "time": 15.821864999999946,
                    "velocity": 0.4330708661417323,
                    "duration": 0.07324937499999962
                },
                {
                    "name": "C#3",
                    "midi": 49,
                    "time": 15.968363749999945,
                    "velocity": 0.3858267716535433,
                    "duration": 0.07324937499999962
                },
                {
                    "name": "B3",
                    "midi": 59,
                    "time": 15.968363749999945,
                    "velocity": 0.4409448818897638,
                    "duration": 0.07324937499999962
                },
                {
                    "name": "C#3",
                    "midi": 49,
                    "time": 16.114862499999944,
                    "velocity": 0.3858267716535433,
                    "duration": 0.29299749999999847
                },
                {
                    "name": "B3",
                    "midi": 59,
                    "time": 16.114862499999944,
                    "velocity": 0.4409448818897638,
                    "duration": 0.29299749999999847
                },
                {
                    "name": "C#4",
                    "midi": 61,
                    "time": 16.70085749999994,
                    "velocity": 0.5196850393700787,
                    "duration": 0.07324937499999962
                },
                {
                    "name": "C#3",
                    "midi": 49,
                    "time": 16.70085749999994,
                    "velocity": 0.4566929133858268,
                    "duration": 0.07324937499999962
                },
                {
                    "name": "C#3",
                    "midi": 49,
                    "time": 16.84735624999994,
                    "velocity": 0.3858267716535433,
                    "duration": 0.07324937499999962
                },
                {
                    "name": "C#4",
                    "midi": 61,
                    "time": 16.84735624999994,
                    "velocity": 0.4409448818897638,
                    "duration": 0.07324937499999962
                },
                {
                    "name": "C#4",
                    "midi": 61,
                    "time": 16.99385499999994,
                    "velocity": 0.47244094488188976,
                    "duration": 0.29299749999999847
                },
                {
                    "name": "C#3",
                    "midi": 49,
                    "time": 16.99385499999994,
                    "velocity": 0.41732283464566927,
                    "duration": 0.29299749999999847
                },
                {
                    "name": "D4",
                    "midi": 62,
                    "time": 17.579849999999936,
                    "velocity": 0.5275590551181102,
                    "duration": 0.07324937499999962
                },
                {
                    "name": "C#3",
                    "midi": 49,
                    "time": 17.579849999999936,
                    "velocity": 0.4645669291338583,
                    "duration": 0.07324937499999962
                },
                {
                    "name": "C#3",
                    "midi": 49,
                    "time": 17.726348749999936,
                    "velocity": 0.3858267716535433,
                    "duration": 0.07324937499999962
                },
                {
                    "name": "D4",
                    "midi": 62,
                    "time": 17.726348749999936,
                    "velocity": 0.4409448818897638,
                    "duration": 0.07324937499999962
                },
                {
                    "name": "D4",
                    "midi": 62,
                    "time": 17.872847499999935,
                    "velocity": 0.4566929133858268,
                    "duration": 0.29299749999999847
                },
                {
                    "name": "C#3",
                    "midi": 49,
                    "time": 17.872847499999935,
                    "velocity": 0.4015748031496063,
                    "duration": 0.29299749999999847
                },
                {
                    "name": "C#4",
                    "midi": 61,
                    "time": 18.458842499999932,
                    "velocity": 0.5511811023622047,
                    "duration": 0.07324937499999962
                },
                {
                    "name": "C#3",
                    "midi": 49,
                    "time": 18.458842499999932,
                    "velocity": 0.48031496062992124,
                    "duration": 0.07324937499999962
                },
                {
                    "name": "C#3",
                    "midi": 49,
                    "time": 18.60534124999993,
                    "velocity": 0.3937007874015748,
                    "duration": 0.07324937499999962
                },
                {
                    "name": "C#4",
                    "midi": 61,
                    "time": 18.60534124999993,
                    "velocity": 0.44881889763779526,
                    "duration": 0.07324937499999962
                },
                {
                    "name": "C#4",
                    "midi": 61,
                    "time": 18.75183999999993,
                    "velocity": 0.4881889763779528,
                    "duration": 0.29299749999999847
                },
                {
                    "name": "C#3",
                    "midi": 49,
                    "time": 18.75183999999993,
                    "velocity": 0.4251968503937008,
                    "duration": 0.29299749999999847
                },
                {
                    "name": "B3",
                    "midi": 59,
                    "time": 19.337834999999927,
                    "velocity": 0.5748031496062992,
                    "duration": 0.07324937499999962
                },
                {
                    "name": "C#3",
                    "midi": 49,
                    "time": 19.337834999999927,
                    "velocity": 0.5039370078740157,
                    "duration": 0.07324937499999962
                },
                {
                    "name": "B3",
                    "midi": 59,
                    "time": 19.484333749999927,
                    "velocity": 0.49606299212598426,
                    "duration": 0.07324937499999962
                },
                {
                    "name": "C#3",
                    "midi": 49,
                    "time": 19.484333749999927,
                    "velocity": 0.4330708661417323,
                    "duration": 0.07324937499999962
                },
                {
                    "name": "C#3",
                    "midi": 49,
                    "time": 19.630832499999926,
                    "velocity": 0.3858267716535433,
                    "duration": 0.29299749999999847
                },
                {
                    "name": "B3",
                    "midi": 59,
                    "time": 19.630832499999926,
                    "velocity": 0.4409448818897638,
                    "duration": 0.29299749999999847
                },
                {
                    "name": "D2",
                    "midi": 38,
                    "time": 20.216827499999923,
                    "velocity": 0.6850393700787402,
                    "duration": 0.07324937499999962
                },
                {
                    "name": "A4",
                    "midi": 69,
                    "time": 20.363326249999922,
                    "velocity": 0.5118110236220472,
                    "duration": 0.07324937499999962
                },
                {
                    "name": "F#4",
                    "midi": 66,
                    "time": 20.363326249999922,
                    "velocity": 0.4094488188976378,
                    "duration": 0.07324937499999962
                },
                {
                    "name": "D4",
                    "midi": 62,
                    "time": 20.363326249999922,
                    "velocity": 0.4094488188976378,
                    "duration": 0.07324937499999962
                },
                {
                    "name": "A3",
                    "midi": 57,
                    "time": 20.363326249999922,
                    "velocity": 0.4015748031496063,
                    "duration": 0.07324937499999962
                },
                {
                    "name": "D3",
                    "midi": 50,
                    "time": 20.363326249999922,
                    "velocity": 0.4015748031496063,
                    "duration": 0.07324937499999962
                },
                {
                    "name": "A4",
                    "midi": 69,
                    "time": 20.50982499999992,
                    "velocity": 0.5590551181102362,
                    "duration": 0.07324937499999962
                },
                {
                    "name": "F#4",
                    "midi": 66,
                    "time": 20.50982499999992,
                    "velocity": 0.4409448818897638,
                    "duration": 0.07324937499999962
                },
                {
                    "name": "D4",
                    "midi": 62,
                    "time": 20.50982499999992,
                    "velocity": 0.4409448818897638,
                    "duration": 0.07324937499999962
                },
                {
                    "name": "A3",
                    "midi": 57,
                    "time": 20.50982499999992,
                    "velocity": 0.4330708661417323,
                    "duration": 0.07324937499999962
                },
                {
                    "name": "D3",
                    "midi": 50,
                    "time": 20.50982499999992,
                    "velocity": 0.4330708661417323,
                    "duration": 0.07324937499999962
                },
                {
                    "name": "A4",
                    "midi": 69,
                    "time": 20.65632374999992,
                    "velocity": 0.5905511811023622,
                    "duration": 0.07324937499999962
                },
                {
                    "name": "F#4",
                    "midi": 66,
                    "time": 20.65632374999992,
                    "velocity": 0.47244094488188976,
                    "duration": 0.07324937499999962
                },
                {
                    "name": "D4",
                    "midi": 62,
                    "time": 20.65632374999992,
                    "velocity": 0.47244094488188976,
                    "duration": 0.07324937499999962
                },
                {
                    "name": "A3",
                    "midi": 57,
                    "time": 20.65632374999992,
                    "velocity": 0.47244094488188976,
                    "duration": 0.07324937499999962
                },
                {
                    "name": "D3",
                    "midi": 50,
                    "time": 20.65632374999992,
                    "velocity": 0.47244094488188976,
                    "duration": 0.07324937499999962
                },
                {
                    "name": "A4",
                    "midi": 69,
                    "time": 20.80282249999992,
                    "velocity": 0.6062992125984252,
                    "duration": 0.07324937499999962
                },
                {
                    "name": "F#4",
                    "midi": 66,
                    "time": 20.80282249999992,
                    "velocity": 0.48031496062992124,
                    "duration": 0.07324937499999962
                },
                {
                    "name": "D4",
                    "midi": 62,
                    "time": 20.80282249999992,
                    "velocity": 0.48031496062992124,
                    "duration": 0.07324937499999962
                },
                {
                    "name": "A3",
                    "midi": 57,
                    "time": 20.80282249999992,
                    "velocity": 0.48031496062992124,
                    "duration": 0.07324937499999962
                },
                {
                    "name": "D3",
                    "midi": 50,
                    "time": 20.80282249999992,
                    "velocity": 0.48031496062992124,
                    "duration": 0.07324937499999962
                },
                {
                    "name": "A4",
                    "midi": 69,
                    "time": 20.94932124999992,
                    "velocity": 0.5039370078740157,
                    "duration": 0.07324937499999962
                },
                {
                    "name": "F#4",
                    "midi": 66,
                    "time": 20.94932124999992,
                    "velocity": 0.4015748031496063,
                    "duration": 0.07324937499999962
                },
                {
                    "name": "D3",
                    "midi": 50,
                    "time": 20.94932124999992,
                    "velocity": 0.4015748031496063,
                    "duration": 0.07324937499999962
                },
                {
                    "name": "A3",
                    "midi": 57,
                    "time": 20.94932124999992,
                    "velocity": 0.4015748031496063,
                    "duration": 0.07324937499999962
                },
                {
                    "name": "D4",
                    "midi": 62,
                    "time": 20.94932124999992,
                    "velocity": 0.4015748031496063,
                    "duration": 0.07324937499999962
                },
                {
                    "name": "D4",
                    "midi": 62,
                    "time": 21.095819999999918,
                    "velocity": 0.4881889763779528,
                    "duration": 0.07324937499999962
                },
                {
                    "name": "C4",
                    "midi": 60,
                    "time": 21.095819999999918,
                    "velocity": 0.4881889763779528,
                    "duration": 0.07324937499999962
                },
                {
                    "name": "F#4",
                    "midi": 66,
                    "time": 21.095819999999918,
                    "velocity": 0.4881889763779528,
                    "duration": 0.07324937499999962
                },
                {
                    "name": "A4",
                    "midi": 69,
                    "time": 21.095819999999918,
                    "velocity": 0.6220472440944882,
                    "duration": 0.07324937499999962
                },
                {
                    "name": "A3",
                    "midi": 57,
                    "time": 21.095819999999918,
                    "velocity": 0.4881889763779528,
                    "duration": 0.07324937499999962
                },
                {
                    "name": "D3",
                    "midi": 50,
                    "time": 21.095819999999918,
                    "velocity": 0.4881889763779528,
                    "duration": 0.07324937499999962
                },
                {
                    "name": "D4",
                    "midi": 62,
                    "time": 21.242318749999917,
                    "velocity": 0.44881889763779526,
                    "duration": 0.07324937499999962
                },
                {
                    "name": "C4",
                    "midi": 60,
                    "time": 21.242318749999917,
                    "velocity": 0.44881889763779526,
                    "duration": 0.07324937499999962
                },
                {
                    "name": "F#4",
                    "midi": 66,
                    "time": 21.242318749999917,
                    "velocity": 0.44881889763779526,
                    "duration": 0.07324937499999962
                },
                {
                    "name": "A4",
                    "midi": 69,
                    "time": 21.242318749999917,
                    "velocity": 0.5748031496062992,
                    "duration": 0.07324937499999962
                },
                {
                    "name": "A3",
                    "midi": 57,
                    "time": 21.242318749999917,
                    "velocity": 0.44881889763779526,
                    "duration": 0.07324937499999962
                },
                {
                    "name": "D3",
                    "midi": 50,
                    "time": 21.242318749999917,
                    "velocity": 0.44881889763779526,
                    "duration": 0.07324937499999962
                },
                {
                    "name": "C4",
                    "midi": 60,
                    "time": 21.388817499999917,
                    "velocity": 0.5354330708661418,
                    "duration": 0.07324937499999962
                },
                {
                    "name": "A3",
                    "midi": 57,
                    "time": 21.388817499999917,
                    "velocity": 0.4881889763779528,
                    "duration": 0.07324937499999962
                },
                {
                    "name": "D4",
                    "midi": 62,
                    "time": 21.388817499999917,
                    "velocity": 0.6220472440944882,
                    "duration": 0.07324937499999962
                },
                {
                    "name": "D3",
                    "midi": 50,
                    "time": 21.388817499999917,
                    "velocity": 0.4881889763779528,
                    "duration": 0.07324937499999962
                },
                {
                    "name": "C4",
                    "midi": 60,
                    "time": 21.535316249999916,
                    "velocity": 0.5275590551181102,
                    "duration": 0.07324937499999962
                },
                {
                    "name": "D4",
                    "midi": 62,
                    "time": 21.535316249999916,
                    "velocity": 0.5275590551181102,
                    "duration": 0.07324937499999962
                },
                {
                    "name": "F#4",
                    "midi": 66,
                    "time": 21.535316249999916,
                    "velocity": 0.5275590551181102,
                    "duration": 0.07324937499999962
                },
                {
                    "name": "A4",
                    "midi": 69,
                    "time": 21.535316249999916,
                    "velocity": 0.6299212598425197,
                    "duration": 0.07324937499999962
                },
                {
                    "name": "D3",
                    "midi": 50,
                    "time": 21.535316249999916,
                    "velocity": 0.5275590551181102,
                    "duration": 0.07324937499999962
                },
                {
                    "name": "A3",
                    "midi": 57,
                    "time": 21.535316249999916,
                    "velocity": 0.5275590551181102,
                    "duration": 0.07324937499999962
                },
                {
                    "name": "C4",
                    "midi": 60,
                    "time": 21.681814999999915,
                    "velocity": 0.5354330708661418,
                    "duration": 0.07324937499999962
                },
                {
                    "name": "D4",
                    "midi": 62,
                    "time": 21.681814999999915,
                    "velocity": 0.6771653543307087,
                    "duration": 0.07324937499999962
                },
                {
                    "name": "A3",
                    "midi": 57,
                    "time": 21.681814999999915,
                    "velocity": 0.5354330708661418,
                    "duration": 0.07324937499999962
                },
                {
                    "name": "D3",
                    "midi": 50,
                    "time": 21.681814999999915,
                    "velocity": 0.5354330708661418,
                    "duration": 0.07324937499999962
                },
                {
                    "name": "F#4",
                    "midi": 66,
                    "time": 21.828313749999914,
                    "velocity": 0.44881889763779526,
                    "duration": 0.07324937499999962
                },
                {
                    "name": "C4",
                    "midi": 60,
                    "time": 21.828313749999914,
                    "velocity": 0.44881889763779526,
                    "duration": 0.07324937499999962
                },
                {
                    "name": "D4",
                    "midi": 62,
                    "time": 21.828313749999914,
                    "velocity": 0.44881889763779526,
                    "duration": 0.07324937499999962
                },
                {
                    "name": "A3",
                    "midi": 57,
                    "time": 21.828313749999914,
                    "velocity": 0.44881889763779526,
                    "duration": 0.07324937499999962
                },
                {
                    "name": "A4",
                    "midi": 69,
                    "time": 21.828313749999914,
                    "velocity": 0.5669291338582677,
                    "duration": 0.07324937499999962
                },
                {
                    "name": "D3",
                    "midi": 50,
                    "time": 21.828313749999914,
                    "velocity": 0.44881889763779526,
                    "duration": 0.07324937499999962
                },
                {
                    "name": "G2",
                    "midi": 43,
                    "time": 21.974812499999913,
                    "velocity": 0.6850393700787402,
                    "duration": 0.07324937499999962
                },
                {
                    "name": "D4",
                    "midi": 62,
                    "time": 22.121311249999913,
                    "velocity": 0.4330708661417323,
                    "duration": 0.07324937499999962
                },
                {
                    "name": "G4",
                    "midi": 67,
                    "time": 22.121311249999913,
                    "velocity": 0.5511811023622047,
                    "duration": 0.07324937499999962
                },
                {
                    "name": "B3",
                    "midi": 59,
                    "time": 22.121311249999913,
                    "velocity": 0.4330708661417323,
                    "duration": 0.07324937499999962
                },
                {
                    "name": "G3",
                    "midi": 55,
                    "time": 22.121311249999913,
                    "velocity": 0.4330708661417323,
                    "duration": 0.07324937499999962
                },
                {
                    "name": "B3",
                    "midi": 59,
                    "time": 22.267809999999912,
                    "velocity": 0.5826771653543307,
                    "duration": 0.07324937499999962
                },
                {
                    "name": "G3",
                    "midi": 55,
                    "time": 22.267809999999912,
                    "velocity": 0.4566929133858268,
                    "duration": 0.07324937499999962
                },
                {
                    "name": "B3",
                    "midi": 59,
                    "time": 22.41430874999991,
                    "velocity": 0.5905511811023622,
                    "duration": 0.07324937499999962
                },
                {
                    "name": "G3",
                    "midi": 55,
                    "time": 22.41430874999991,
                    "velocity": 0.47244094488188976,
                    "duration": 0.07324937499999962
                },
                {
                    "name": "A#3",
                    "midi": 58,
                    "time": 22.56080749999991,
                    "velocity": 0.5826771653543307,
                    "duration": 0.07324937499999962
                },
                {
                    "name": "G3",
                    "midi": 55,
                    "time": 22.56080749999991,
                    "velocity": 0.4645669291338583,
                    "duration": 0.07324937499999962
                },
                {
                    "name": "G3",
                    "midi": 55,
                    "time": 22.70730624999991,
                    "velocity": 0.3700787401574803,
                    "duration": 0.07324937499999962
                },
                {
                    "name": "A#3",
                    "midi": 58,
                    "time": 22.70730624999991,
                    "velocity": 0.47244094488188976,
                    "duration": 0.07324937499999962
                },
                {
                    "name": "A2",
                    "midi": 45,
                    "time": 22.85380499999991,
                    "velocity": 0.5433070866141733,
                    "duration": 0.07324937499999962
                },
                {
                    "name": "A3",
                    "midi": 57,
                    "time": 23.000303749999908,
                    "velocity": 0.3543307086614173,
                    "duration": 0.07324937499999962
                },
                {
                    "name": "D4",
                    "midi": 62,
                    "time": 23.000303749999908,
                    "velocity": 0.4566929133858268,
                    "duration": 0.07324937499999962
                },
                {
                    "name": "G3",
                    "midi": 55,
                    "time": 23.000303749999908,
                    "velocity": 0.3543307086614173,
                    "duration": 0.07324937499999962
                },
                {
                    "name": "E3",
                    "midi": 52,
                    "time": 23.000303749999908,
                    "velocity": 0.3543307086614173,
                    "duration": 0.07324937499999962
                },
                {
                    "name": "E3",
                    "midi": 52,
                    "time": 23.146802499999907,
                    "velocity": 0.3858267716535433,
                    "duration": 0.07324937499999962
                },
                {
                    "name": "A3",
                    "midi": 57,
                    "time": 23.146802499999907,
                    "velocity": 0.3858267716535433,
                    "duration": 0.07324937499999962
                },
                {
                    "name": "D4",
                    "midi": 62,
                    "time": 23.146802499999907,
                    "velocity": 0.49606299212598426,
                    "duration": 0.07324937499999962
                },
                {
                    "name": "G3",
                    "midi": 55,
                    "time": 23.146802499999907,
                    "velocity": 0.3858267716535433,
                    "duration": 0.07324937499999962
                },
                {
                    "name": "E3",
                    "midi": 52,
                    "time": 23.293301249999907,
                    "velocity": 0.41732283464566927,
                    "duration": 0.07324937499999962
                },
                {
                    "name": "A3",
                    "midi": 57,
                    "time": 23.293301249999907,
                    "velocity": 0.41732283464566927,
                    "duration": 0.07324937499999962
                },
                {
                    "name": "D4",
                    "midi": 62,
                    "time": 23.293301249999907,
                    "velocity": 0.5275590551181102,
                    "duration": 0.07324937499999962
                },
                {
                    "name": "G3",
                    "midi": 55,
                    "time": 23.293301249999907,
                    "velocity": 0.41732283464566927,
                    "duration": 0.07324937499999962
                },
                {
                    "name": "G3",
                    "midi": 55,
                    "time": 23.439799999999906,
                    "velocity": 0.4251968503937008,
                    "duration": 0.07324937499999962
                },
                {
                    "name": "A3",
                    "midi": 57,
                    "time": 23.439799999999906,
                    "velocity": 0.5354330708661418,
                    "duration": 0.07324937499999962
                },
                {
                    "name": "E3",
                    "midi": 52,
                    "time": 23.439799999999906,
                    "velocity": 0.4251968503937008,
                    "duration": 0.07324937499999962
                },
                {
                    "name": "A3",
                    "midi": 57,
                    "time": 23.586298749999905,
                    "velocity": 0.3543307086614173,
                    "duration": 0.07324937499999962
                },
                {
                    "name": "G3",
                    "midi": 55,
                    "time": 23.586298749999905,
                    "velocity": 0.3543307086614173,
                    "duration": 0.07324937499999962
                },
                {
                    "name": "C#4",
                    "midi": 61,
                    "time": 23.586298749999905,
                    "velocity": 0.3543307086614173,
                    "duration": 0.07324937499999962
                },
                {
                    "name": "E3",
                    "midi": 52,
                    "time": 23.586298749999905,
                    "velocity": 0.3543307086614173,
                    "duration": 0.07324937499999962
                },
                {
                    "name": "E4",
                    "midi": 64,
                    "time": 23.586298749999905,
                    "velocity": 0.44881889763779526,
                    "duration": 0.07324937499999962
                },
                {
                    "name": "D3",
                    "midi": 50,
                    "time": 23.732797499999904,
                    "velocity": 0.5433070866141733,
                    "duration": 0.07324937499999962
                },
                {
                    "name": "A3",
                    "midi": 57,
                    "time": 23.879296249999904,
                    "velocity": 0.3543307086614173,
                    "duration": 0.07324937499999962
                },
                {
                    "name": "D4",
                    "midi": 62,
                    "time": 23.879296249999904,
                    "velocity": 0.4566929133858268,
                    "duration": 0.07324937499999962
                },
                {
                    "name": "F#3",
                    "midi": 54,
                    "time": 23.879296249999904,
                    "velocity": 0.3543307086614173,
                    "duration": 0.07324937499999962
                },
                {
                    "name": "F#3",
                    "midi": 54,
                    "time": 24.025794999999903,
                    "velocity": 0.3858267716535433,
                    "duration": 0.07324937499999962
                },
                {
                    "name": "A3",
                    "midi": 57,
                    "time": 24.025794999999903,
                    "velocity": 0.3858267716535433,
                    "duration": 0.07324937499999962
                },
                {
                    "name": "D4",
                    "midi": 62,
                    "time": 24.025794999999903,
                    "velocity": 0.49606299212598426,
                    "duration": 0.07324937499999962
                },
                {
                    "name": "F#3",
                    "midi": 54,
                    "time": 24.172293749999902,
                    "velocity": 0.41732283464566927,
                    "duration": 0.07324937499999962
                },
                {
                    "name": "A3",
                    "midi": 57,
                    "time": 24.172293749999902,
                    "velocity": 0.41732283464566927,
                    "duration": 0.07324937499999962
                },
                {
                    "name": "D4",
                    "midi": 62,
                    "time": 24.172293749999902,
                    "velocity": 0.5275590551181102,
                    "duration": 0.07324937499999962
                },
                {
                    "name": "A3",
                    "midi": 57,
                    "time": 24.3187924999999,
                    "velocity": 0.4251968503937008,
                    "duration": 0.07324937499999962
                },
                {
                    "name": "D4",
                    "midi": 62,
                    "time": 24.3187924999999,
                    "velocity": 0.5354330708661418,
                    "duration": 0.07324937499999962
                },
                {
                    "name": "F#3",
                    "midi": 54,
                    "time": 24.3187924999999,
                    "velocity": 0.4251968503937008,
                    "duration": 0.07324937499999962
                },
                {
                    "name": "A3",
                    "midi": 57,
                    "time": 24.4652912499999,
                    "velocity": 0.3543307086614173,
                    "duration": 0.07324937499999962
                },
                {
                    "name": "F#3",
                    "midi": 54,
                    "time": 24.4652912499999,
                    "velocity": 0.3543307086614173,
                    "duration": 0.07324937499999962
                },
                {
                    "name": "D4",
                    "midi": 62,
                    "time": 24.4652912499999,
                    "velocity": 0.44881889763779526,
                    "duration": 0.07324937499999962
                },
                {
                    "name": "D3",
                    "midi": 50,
                    "time": 24.6117899999999,
                    "velocity": 0.5433070866141733,
                    "duration": 0.07324937499999962
                },
                {
                    "name": "D4",
                    "midi": 62,
                    "time": 24.7582887499999,
                    "velocity": 0.44881889763779526,
                    "duration": 0.07324937499999962
                },
                {
                    "name": "C4",
                    "midi": 60,
                    "time": 24.7582887499999,
                    "velocity": 0.44881889763779526,
                    "duration": 0.07324937499999962
                },
                {
                    "name": "F#4",
                    "midi": 66,
                    "time": 24.7582887499999,
                    "velocity": 0.44881889763779526,
                    "duration": 0.07324937499999962
                },
                {
                    "name": "A4",
                    "midi": 69,
                    "time": 24.7582887499999,
                    "velocity": 0.5748031496062992,
                    "duration": 0.07324937499999962
                },
                {
                    "name": "A3",
                    "midi": 57,
                    "time": 24.7582887499999,
                    "velocity": 0.44881889763779526,
                    "duration": 0.07324937499999962
                },
                {
                    "name": "C4",
                    "midi": 60,
                    "time": 24.904787499999898,
                    "velocity": 0.5354330708661418,
                    "duration": 0.07324937499999962
                },
                {
                    "name": "A3",
                    "midi": 57,
                    "time": 24.904787499999898,
                    "velocity": 0.4881889763779528,
                    "duration": 0.07324937499999962
                },
                {
                    "name": "D4",
                    "midi": 62,
                    "time": 24.904787499999898,
                    "velocity": 0.6220472440944882,
                    "duration": 0.07324937499999962
                },
                {
                    "name": "C4",
                    "midi": 60,
                    "time": 25.051286249999897,
                    "velocity": 0.5275590551181102,
                    "duration": 0.07324937499999962
                },
                {
                    "name": "D4",
                    "midi": 62,
                    "time": 25.051286249999897,
                    "velocity": 0.5275590551181102,
                    "duration": 0.07324937499999962
                },
                {
                    "name": "F#4",
                    "midi": 66,
                    "time": 25.051286249999897,
                    "velocity": 0.5275590551181102,
                    "duration": 0.07324937499999962
                },
                {
                    "name": "A4",
                    "midi": 69,
                    "time": 25.051286249999897,
                    "velocity": 0.6220472440944882,
                    "duration": 0.07324937499999962
                },
                {
                    "name": "A3",
                    "midi": 57,
                    "time": 25.051286249999897,
                    "velocity": 0.5275590551181102,
                    "duration": 0.07324937499999962
                },
                {
                    "name": "C4",
                    "midi": 60,
                    "time": 25.197784999999897,
                    "velocity": 0.5354330708661418,
                    "duration": 0.07324937499999962
                },
                {
                    "name": "D4",
                    "midi": 62,
                    "time": 25.197784999999897,
                    "velocity": 0.6771653543307087,
                    "duration": 0.07324937499999962
                },
                {
                    "name": "A3",
                    "midi": 57,
                    "time": 25.197784999999897,
                    "velocity": 0.5354330708661418,
                    "duration": 0.07324937499999962
                },
                {
                    "name": "F#4",
                    "midi": 66,
                    "time": 25.344283749999896,
                    "velocity": 0.44881889763779526,
                    "duration": 0.07324937499999962
                },
                {
                    "name": "C4",
                    "midi": 60,
                    "time": 25.344283749999896,
                    "velocity": 0.44881889763779526,
                    "duration": 0.07324937499999962
                },
                {
                    "name": "D4",
                    "midi": 62,
                    "time": 25.344283749999896,
                    "velocity": 0.44881889763779526,
                    "duration": 0.07324937499999962
                },
                {
                    "name": "A3",
                    "midi": 57,
                    "time": 25.344283749999896,
                    "velocity": 0.44881889763779526,
                    "duration": 0.07324937499999962
                },
                {
                    "name": "A4",
                    "midi": 69,
                    "time": 25.344283749999896,
                    "velocity": 0.5669291338582677,
                    "duration": 0.07324937499999962
                },
                {
                    "name": "G3",
                    "midi": 55,
                    "time": 25.490782499999895,
                    "velocity": 0.6850393700787402,
                    "duration": 0.07324937499999962
                },
                {
                    "name": "B3",
                    "midi": 59,
                    "time": 25.637281249999894,
                    "velocity": 0.41732283464566927,
                    "duration": 0.07324937499999962
                },
                {
                    "name": "D4",
                    "midi": 62,
                    "time": 25.637281249999894,
                    "velocity": 0.41732283464566927,
                    "duration": 0.07324937499999962
                },
                {
                    "name": "B3",
                    "midi": 59,
                    "time": 25.783779999999894,
                    "velocity": 0.5433070866141733,
                    "duration": 0.07324937499999962
                },
                {
                    "name": "D4",
                    "midi": 62,
                    "time": 25.783779999999894,
                    "velocity": 0.4251968503937008,
                    "duration": 0.07324937499999962
                },
                {
                    "name": "B3",
                    "midi": 59,
                    "time": 25.930278749999893,
                    "velocity": 0.5275590551181102,
                    "duration": 0.07324937499999962
                },
                {
                    "name": "D4",
                    "midi": 62,
                    "time": 25.930278749999893,
                    "velocity": 0.4251968503937008,
                    "duration": 0.07324937499999962
                },
                {
                    "name": "B3",
                    "midi": 59,
                    "time": 26.076777499999892,
                    "velocity": 0.5039370078740157,
                    "duration": 0.07324937499999962
                },
                {
                    "name": "D4",
                    "midi": 62,
                    "time": 26.076777499999892,
                    "velocity": 0.4015748031496063,
                    "duration": 0.07324937499999962
                },
                {
                    "name": "D4",
                    "midi": 62,
                    "time": 26.22327624999989,
                    "velocity": 0.30708661417322836,
                    "duration": 0.07324937499999962
                },
                {
                    "name": "B3",
                    "midi": 59,
                    "time": 26.22327624999989,
                    "velocity": 0.3937007874015748,
                    "duration": 0.07324937499999962
                },
                {
                    "name": "G2",
                    "midi": 43,
                    "time": 26.36977499999989,
                    "velocity": 0.4330708661417323,
                    "duration": 1.4649874999999923
                },
                {
                    "name": "G3",
                    "midi": 55,
                    "time": 26.51627374999989,
                    "velocity": 0.3464566929133858,
                    "duration": 0.07324937499999962
                },
                {
                    "name": "C4",
                    "midi": 60,
                    "time": 26.51627374999989,
                    "velocity": 0.3464566929133858,
                    "duration": 0.07324937499999962
                },
                {
                    "name": "G3",
                    "midi": 55,
                    "time": 26.66277249999989,
                    "velocity": 0.3464566929133858,
                    "duration": 0.07324937499999962
                },
                {
                    "name": "C4",
                    "midi": 60,
                    "time": 26.66277249999989,
                    "velocity": 0.4645669291338583,
                    "duration": 0.07324937499999962
                },
                {
                    "name": "E3",
                    "midi": 52,
                    "time": 26.66277249999989,
                    "velocity": 0.3937007874015748,
                    "duration": 0.29299749999999847
                },
                {
                    "name": "G3",
                    "midi": 55,
                    "time": 26.809271249999888,
                    "velocity": 0.3464566929133858,
                    "duration": 0.07324937499999962
                },
                {
                    "name": "C4",
                    "midi": 60,
                    "time": 26.809271249999888,
                    "velocity": 0.3464566929133858,
                    "duration": 0.07324937499999962
                },
                {
                    "name": "D#3",
                    "midi": 51,
                    "time": 26.955769999999887,
                    "velocity": 0.4251968503937008,
                    "duration": 0.29299749999999847
                },
                {
                    "name": "G3",
                    "midi": 55,
                    "time": 27.102268749999887,
                    "velocity": 0.3464566929133858,
                    "duration": 0.07324937499999962
                },
                {
                    "name": "C4",
                    "midi": 60,
                    "time": 27.102268749999887,
                    "velocity": 0.3464566929133858,
                    "duration": 0.07324937499999962
                },
                {
                    "name": "G3",
                    "midi": 55,
                    "time": 27.395266249999885,
                    "velocity": 0.3464566929133858,
                    "duration": 0.07324937499999962
                },
                {
                    "name": "B3",
                    "midi": 59,
                    "time": 27.395266249999885,
                    "velocity": 0.3464566929133858,
                    "duration": 0.07324937499999962
                },
                {
                    "name": "G3",
                    "midi": 55,
                    "time": 27.541764999999884,
                    "velocity": 0.3464566929133858,
                    "duration": 0.07324937499999962
                },
                {
                    "name": "B3",
                    "midi": 59,
                    "time": 27.541764999999884,
                    "velocity": 0.4645669291338583,
                    "duration": 0.07324937499999962
                },
                {
                    "name": "G3",
                    "midi": 55,
                    "time": 27.688263749999884,
                    "velocity": 0.3464566929133858,
                    "duration": 0.07324937499999962
                },
                {
                    "name": "B3",
                    "midi": 59,
                    "time": 27.688263749999884,
                    "velocity": 0.3464566929133858,
                    "duration": 0.07324937499999962
                },
                {
                    "name": "G3",
                    "midi": 55,
                    "time": 27.981261249999882,
                    "velocity": 0.29133858267716534,
                    "duration": 0.07324937499999962
                },
                {
                    "name": "B3",
                    "midi": 59,
                    "time": 27.981261249999882,
                    "velocity": 0.29133858267716534,
                    "duration": 0.07324937499999962
                },
                {
                    "name": "G2",
                    "midi": 43,
                    "time": 28.12775999999988,
                    "velocity": 0.36220472440944884,
                    "duration": 1.4649874999999923
                },
                {
                    "name": "G3",
                    "midi": 55,
                    "time": 28.27425874999988,
                    "velocity": 0.29133858267716534,
                    "duration": 0.07324937499999962
                },
                {
                    "name": "C4",
                    "midi": 60,
                    "time": 28.27425874999988,
                    "velocity": 0.29133858267716534,
                    "duration": 0.07324937499999962
                },
                {
                    "name": "G3",
                    "midi": 55,
                    "time": 28.42075749999988,
                    "velocity": 0.29133858267716534,
                    "duration": 0.07324937499999962
                },
                {
                    "name": "C4",
                    "midi": 60,
                    "time": 28.42075749999988,
                    "velocity": 0.3937007874015748,
                    "duration": 0.07324937499999962
                },
                {
                    "name": "E3",
                    "midi": 52,
                    "time": 28.42075749999988,
                    "velocity": 0.33070866141732286,
                    "duration": 0.29299749999999847
                },
                {
                    "name": "G3",
                    "midi": 55,
                    "time": 28.56725624999988,
                    "velocity": 0.29133858267716534,
                    "duration": 0.07324937499999962
                },
                {
                    "name": "C4",
                    "midi": 60,
                    "time": 28.56725624999988,
                    "velocity": 0.29133858267716534,
                    "duration": 0.07324937499999962
                },
                {
                    "name": "D#3",
                    "midi": 51,
                    "time": 28.71375499999988,
                    "velocity": 0.3543307086614173,
                    "duration": 0.29299749999999847
                },
                {
                    "name": "G3",
                    "midi": 55,
                    "time": 28.860253749999877,
                    "velocity": 0.29133858267716534,
                    "duration": 0.07324937499999962
                },
                {
                    "name": "C4",
                    "midi": 60,
                    "time": 28.860253749999877,
                    "velocity": 0.29133858267716534,
                    "duration": 0.07324937499999962
                },
                {
                    "name": "D3",
                    "midi": 50,
                    "time": 29.006752499999877,
                    "velocity": 0.3543307086614173,
                    "duration": 0.5859949999999969
                },
                {
                    "name": "G3",
                    "midi": 55,
                    "time": 29.153251249999876,
                    "velocity": 0.2440944881889764,
                    "duration": 0.07324937499999962
                },
                {
                    "name": "B3",
                    "midi": 59,
                    "time": 29.153251249999876,
                    "velocity": 0.29133858267716534,
                    "duration": 0.07324937499999962
                },
                {
                    "name": "G3",
                    "midi": 55,
                    "time": 29.299749999999875,
                    "velocity": 0.25196850393700787,
                    "duration": 0.07324937499999962
                },
                {
                    "name": "B3",
                    "midi": 59,
                    "time": 29.299749999999875,
                    "velocity": 0.4015748031496063,
                    "duration": 0.07324937499999962
                },
                {
                    "name": "G3",
                    "midi": 55,
                    "time": 29.446248749999874,
                    "velocity": 0.25984251968503935,
                    "duration": 0.07324937499999962
                },
                {
                    "name": "B3",
                    "midi": 59,
                    "time": 29.446248749999874,
                    "velocity": 0.30708661417322836,
                    "duration": 0.07324937499999962
                },
                {
                    "name": "G3",
                    "midi": 55,
                    "time": 29.592747499999874,
                    "velocity": 0.36220472440944884,
                    "duration": 0.07324937499999962
                },
                {
                    "name": "B3",
                    "midi": 59,
                    "time": 29.592747499999874,
                    "velocity": 0.4330708661417323,
                    "duration": 0.07324937499999962
                },
                {
                    "name": "G3",
                    "midi": 55,
                    "time": 29.739246249999873,
                    "velocity": 0.2677165354330709,
                    "duration": 0.07324937499999962
                },
                {
                    "name": "B3",
                    "midi": 59,
                    "time": 29.739246249999873,
                    "velocity": 0.3228346456692913,
                    "duration": 0.07324937499999962
                },
                {
                    "name": "B3",
                    "midi": 59,
                    "time": 29.885744999999872,
                    "velocity": 0.33858267716535434,
                    "duration": 0.07324937499999962
                },
                {
                    "name": "G3",
                    "midi": 55,
                    "time": 29.885744999999872,
                    "velocity": 0.2755905511811024,
                    "duration": 0.07324937499999962
                },
                {
                    "name": "G3",
                    "midi": 55,
                    "time": 30.03224374999987,
                    "velocity": 0.29133858267716534,
                    "duration": 0.07324937499999962
                },
                {
                    "name": "B3",
                    "midi": 59,
                    "time": 30.03224374999987,
                    "velocity": 0.3464566929133858,
                    "duration": 0.07324937499999962
                },
                {
                    "name": "G3",
                    "midi": 55,
                    "time": 30.17874249999987,
                    "velocity": 0.2992125984251969,
                    "duration": 0.07324937499999962
                },
                {
                    "name": "B3",
                    "midi": 59,
                    "time": 30.17874249999987,
                    "velocity": 0.3543307086614173,
                    "duration": 0.07324937499999962
                },
                {
                    "name": "G3",
                    "midi": 55,
                    "time": 30.32524124999987,
                    "velocity": 0.30708661417322836,
                    "duration": 0.07324937499999962
                },
                {
                    "name": "B3",
                    "midi": 59,
                    "time": 30.32524124999987,
                    "velocity": 0.36220472440944884,
                    "duration": 0.07324937499999962
                },
                {
                    "name": "F#3",
                    "midi": 54,
                    "time": 30.47173999999987,
                    "velocity": 0.25196850393700787,
                    "duration": 0.29299749999999847
                },
                {
                    "name": "B3",
                    "midi": 59,
                    "time": 30.61823874999987,
                    "velocity": 0.23622047244094488,
                    "duration": 0.07324937499999962
                },
                {
                    "name": "D4",
                    "midi": 62,
                    "time": 30.61823874999987,
                    "velocity": 0.2992125984251969,
                    "duration": 0.07324937499999962
                },
                {
                    "name": "A#2",
                    "midi": 46,
                    "time": 30.764737499999868,
                    "velocity": 0.31496062992125984,
                    "duration": 0.07324937499999962
                },
                {
                    "name": "F#3",
                    "midi": 54,
                    "time": 30.911236249999867,
                    "velocity": 0.25984251968503935,
                    "duration": 0.07324937499999962
                },
                {
                    "name": "C#4",
                    "midi": 61,
                    "time": 30.911236249999867,
                    "velocity": 0.25984251968503935,
                    "duration": 0.07324937499999962
                },
                {
                    "name": "E4",
                    "midi": 64,
                    "time": 30.911236249999867,
                    "velocity": 0.33858267716535434,
                    "duration": 0.07324937499999962
                },
                {
                    "name": "F#3",
                    "midi": 54,
                    "time": 31.057734999999866,
                    "velocity": 0.29133858267716534,
                    "duration": 0.07324937499999962
                },
                {
                    "name": "C#4",
                    "midi": 61,
                    "time": 31.057734999999866,
                    "velocity": 0.29133858267716534,
                    "duration": 0.07324937499999962
                },
                {
                    "name": "E4",
                    "midi": 64,
                    "time": 31.057734999999866,
                    "velocity": 0.3700787401574803,
                    "duration": 0.07324937499999962
                },
                {
                    "name": "F#3",
                    "midi": 54,
                    "time": 31.204233749999865,
                    "velocity": 0.30708661417322836,
                    "duration": 0.07324937499999962
                },
                {
                    "name": "C#4",
                    "midi": 61,
                    "time": 31.204233749999865,
                    "velocity": 0.30708661417322836,
                    "duration": 0.07324937499999962
                },
                {
                    "name": "E4",
                    "midi": 64,
                    "time": 31.204233749999865,
                    "velocity": 0.3937007874015748,
                    "duration": 0.07324937499999962
                },
                {
                    "name": "F#3",
                    "midi": 54,
                    "time": 31.350732499999864,
                    "velocity": 0.33070866141732286,
                    "duration": 0.07324937499999962
                },
                {
                    "name": "C#4",
                    "midi": 61,
                    "time": 31.350732499999864,
                    "velocity": 0.33070866141732286,
                    "duration": 0.07324937499999962
                },
                {
                    "name": "E4",
                    "midi": 64,
                    "time": 31.350732499999864,
                    "velocity": 0.41732283464566927,
                    "duration": 0.07324937499999962
                },
                {
                    "name": "F#3",
                    "midi": 54,
                    "time": 31.497231249999864,
                    "velocity": 0.36220472440944884,
                    "duration": 0.07324937499999962
                },
                {
                    "name": "C#4",
                    "midi": 61,
                    "time": 31.497231249999864,
                    "velocity": 0.36220472440944884,
                    "duration": 0.07324937499999962
                },
                {
                    "name": "E4",
                    "midi": 64,
                    "time": 31.497231249999864,
                    "velocity": 0.44881889763779526,
                    "duration": 0.07324937499999962
                },
                {
                    "name": "B2",
                    "midi": 47,
                    "time": 31.643729999999863,
                    "velocity": 0.47244094488188976,
                    "duration": 0.07324937499999962
                },
                {
                    "name": "D4",
                    "midi": 62,
                    "time": 31.790228749999862,
                    "velocity": 0.33858267716535434,
                    "duration": 0.07324937499999962
                },
                {
                    "name": "B3",
                    "midi": 59,
                    "time": 31.790228749999862,
                    "velocity": 0.2677165354330709,
                    "duration": 0.07324937499999962
                },
                {
                    "name": "F#3",
                    "midi": 54,
                    "time": 31.790228749999862,
                    "velocity": 0.2677165354330709,
                    "duration": 0.07324937499999962
                },
                {
                    "name": "F#3",
                    "midi": 54,
                    "time": 31.93672749999986,
                    "velocity": 0.3228346456692913,
                    "duration": 0.07324937500000317
                },
                {
                    "name": "B3",
                    "midi": 59,
                    "time": 31.93672749999986,
                    "velocity": 0.3228346456692913,
                    "duration": 0.07324937500000317
                },
                {
                    "name": "D4",
                    "midi": 62,
                    "time": 31.93672749999986,
                    "velocity": 0.4094488188976378,
                    "duration": 0.07324937500000317
                },
                {
                    "name": "F#3",
                    "midi": 54,
                    "time": 32.08322624999987,
                    "velocity": 0.30708661417322836,
                    "duration": 0.07324937500000317
                },
                {
                    "name": "B3",
                    "midi": 59,
                    "time": 32.08322624999987,
                    "velocity": 0.30708661417322836,
                    "duration": 0.07324937500000317
                },
                {
                    "name": "D4",
                    "midi": 62,
                    "time": 32.08322624999987,
                    "velocity": 0.3858267716535433,
                    "duration": 0.07324937500000317
                },
                {
                    "name": "D4",
                    "midi": 62,
                    "time": 32.229724999999874,
                    "velocity": 0.4409448818897638,
                    "duration": 0.07324937500000317
                },
                {
                    "name": "B3",
                    "midi": 59,
                    "time": 32.229724999999874,
                    "velocity": 0.3464566929133858,
                    "duration": 0.07324937500000317
                },
                {
                    "name": "F#3",
                    "midi": 54,
                    "time": 32.229724999999874,
                    "velocity": 0.3464566929133858,
                    "duration": 0.07324937500000317
                },
                {
                    "name": "F#3",
                    "midi": 54,
                    "time": 32.37622374999988,
                    "velocity": 0.33070866141732286,
                    "duration": 0.07324937500000317
                },
                {
                    "name": "B3",
                    "midi": 59,
                    "time": 32.37622374999988,
                    "velocity": 0.33070866141732286,
                    "duration": 0.07324937500000317
                },
                {
                    "name": "D4",
                    "midi": 62,
                    "time": 32.37622374999988,
                    "velocity": 0.4251968503937008,
                    "duration": 0.07324937500000317
                },
                {
                    "name": "G2",
                    "midi": 43,
                    "time": 32.52272249999989,
                    "velocity": 0.5275590551181102,
                    "duration": 0.07324937500000317
                },
                {
                    "name": "E4",
                    "midi": 64,
                    "time": 32.66922124999989,
                    "velocity": 0.3858267716535433,
                    "duration": 0.07324937500000317
                },
                {
                    "name": "B3",
                    "midi": 59,
                    "time": 32.66922124999989,
                    "velocity": 0.30708661417322836,
                    "duration": 0.07324937500000317
                },
                {
                    "name": "G3",
                    "midi": 55,
                    "time": 32.66922124999989,
                    "velocity": 0.30708661417322836,
                    "duration": 0.07324937500000317
                },
                {
                    "name": "G3",
                    "midi": 55,
                    "time": 32.8157199999999,
                    "velocity": 0.3464566929133858,
                    "duration": 0.07324937500000317
                },
                {
                    "name": "B3",
                    "midi": 59,
                    "time": 32.8157199999999,
                    "velocity": 0.3464566929133858,
                    "duration": 0.07324937500000317
                },
                {
                    "name": "E4",
                    "midi": 64,
                    "time": 32.8157199999999,
                    "velocity": 0.4330708661417323,
                    "duration": 0.07324937500000317
                },
                {
                    "name": "G3",
                    "midi": 55,
                    "time": 32.962218749999906,
                    "velocity": 0.33070866141732286,
                    "duration": 0.07324937500000317
                },
                {
                    "name": "B3",
                    "midi": 59,
                    "time": 32.962218749999906,
                    "velocity": 0.33070866141732286,
                    "duration": 0.07324937500000317
                },
                {
                    "name": "E4",
                    "midi": 64,
                    "time": 32.962218749999906,
                    "velocity": 0.4094488188976378,
                    "duration": 0.07324937500000317
                },
                {
                    "name": "G3",
                    "midi": 55,
                    "time": 33.10871749999991,
                    "velocity": 0.36220472440944884,
                    "duration": 0.07324937500000317
                },
                {
                    "name": "B3",
                    "midi": 59,
                    "time": 33.10871749999991,
                    "velocity": 0.36220472440944884,
                    "duration": 0.07324937500000317
                },
                {
                    "name": "E4",
                    "midi": 64,
                    "time": 33.10871749999991,
                    "velocity": 0.44881889763779526,
                    "duration": 0.07324937500000317
                },
                {
                    "name": "G3",
                    "midi": 55,
                    "time": 33.25521624999992,
                    "velocity": 0.4094488188976378,
                    "duration": 0.07324937500000317
                },
                {
                    "name": "B3",
                    "midi": 59,
                    "time": 33.25521624999992,
                    "velocity": 0.4094488188976378,
                    "duration": 0.07324937500000317
                },
                {
                    "name": "E4",
                    "midi": 64,
                    "time": 33.25521624999992,
                    "velocity": 0.5196850393700787,
                    "duration": 0.07324937500000317
                },
                {
                    "name": "F#2",
                    "midi": 42,
                    "time": 33.401714999999925,
                    "velocity": 0.5748031496062992,
                    "duration": 0.07324937500000317
                },
                {
                    "name": "E4",
                    "midi": 64,
                    "time": 33.54821374999993,
                    "velocity": 0.48031496062992124,
                    "duration": 0.07324937500000317
                },
                {
                    "name": "A#3",
                    "midi": 58,
                    "time": 33.54821374999993,
                    "velocity": 0.3779527559055118,
                    "duration": 0.07324937500000317
                },
                {
                    "name": "F#3",
                    "midi": 54,
                    "time": 33.54821374999993,
                    "velocity": 0.3779527559055118,
                    "duration": 0.07324937500000317
                },
                {
                    "name": "E4",
                    "midi": 64,
                    "time": 33.69471249999994,
                    "velocity": 0.5196850393700787,
                    "duration": 0.07324937500000317
                },
                {
                    "name": "A#3",
                    "midi": 58,
                    "time": 33.69471249999994,
                    "velocity": 0.4094488188976378,
                    "duration": 0.07324937500000317
                },
                {
                    "name": "F#3",
                    "midi": 54,
                    "time": 33.69471249999994,
                    "velocity": 0.4094488188976378,
                    "duration": 0.07324937500000317
                },
                {
                    "name": "E4",
                    "midi": 64,
                    "time": 33.841211249999944,
                    "velocity": 0.5511811023622047,
                    "duration": 0.07324937500000317
                },
                {
                    "name": "A#3",
                    "midi": 58,
                    "time": 33.841211249999944,
                    "velocity": 0.4409448818897638,
                    "duration": 0.07324937500000317
                },
                {
                    "name": "F#3",
                    "midi": 54,
                    "time": 33.841211249999944,
                    "velocity": 0.4409448818897638,
                    "duration": 0.07324937500000317
                },
                {
                    "name": "E4",
                    "midi": 64,
                    "time": 33.98770999999995,
                    "velocity": 0.5669291338582677,
                    "duration": 0.07324937500000317
                },
                {
                    "name": "A#3",
                    "midi": 58,
                    "time": 33.98770999999995,
                    "velocity": 0.44881889763779526,
                    "duration": 0.07324937500000317
                },
                {
                    "name": "F#3",
                    "midi": 54,
                    "time": 33.98770999999995,
                    "velocity": 0.44881889763779526,
                    "duration": 0.07324937500000317
                },
                {
                    "name": "F#3",
                    "midi": 54,
                    "time": 34.13420874999996,
                    "velocity": 0.3779527559055118,
                    "duration": 0.07324937500000317
                },
                {
                    "name": "A#3",
                    "midi": 58,
                    "time": 34.13420874999996,
                    "velocity": 0.3779527559055118,
                    "duration": 0.07324937500000317
                },
                {
                    "name": "E4",
                    "midi": 64,
                    "time": 34.13420874999996,
                    "velocity": 0.47244094488188976,
                    "duration": 0.07324937500000317
                },
                {
                    "name": "A#2",
                    "midi": 46,
                    "time": 34.28070749999996,
                    "velocity": 0.6141732283464567,
                    "duration": 0.07324937500000317
                },
                {
                    "name": "F#4",
                    "midi": 66,
                    "time": 34.42720624999997,
                    "velocity": 0.48031496062992124,
                    "duration": 0.07324937500000317
                },
                {
                    "name": "F#3",
                    "midi": 54,
                    "time": 34.42720624999997,
                    "velocity": 0.3779527559055118,
                    "duration": 0.07324937500000317
                },
                {
                    "name": "C#4",
                    "midi": 61,
                    "time": 34.42720624999997,
                    "velocity": 0.3779527559055118,
                    "duration": 0.07324937500000317
                },
                {
                    "name": "E4",
                    "midi": 64,
                    "time": 34.42720624999997,
                    "velocity": 0.4015748031496063,
                    "duration": 0.07324937500000317
                },
                {
                    "name": "F#4",
                    "midi": 66,
                    "time": 34.573704999999975,
                    "velocity": 0.44881889763779526,
                    "duration": 0.07324937500000317
                },
                {
                    "name": "E4",
                    "midi": 64,
                    "time": 34.573704999999975,
                    "velocity": 0.3779527559055118,
                    "duration": 0.07324937500000317
                },
                {
                    "name": "C#4",
                    "midi": 61,
                    "time": 34.573704999999975,
                    "velocity": 0.3543307086614173,
                    "duration": 0.07324937500000317
                },
                {
                    "name": "F#3",
                    "midi": 54,
                    "time": 34.573704999999975,
                    "velocity": 0.3543307086614173,
                    "duration": 0.07324937500000317
                },
                {
                    "name": "F#4",
                    "midi": 66,
                    "time": 34.72020374999998,
                    "velocity": 0.49606299212598426,
                    "duration": 0.07324937500000317
                },
                {
                    "name": "F#3",
                    "midi": 54,
                    "time": 34.72020374999998,
                    "velocity": 0.3937007874015748,
                    "duration": 0.07324937500000317
                },
                {
                    "name": "C#4",
                    "midi": 61,
                    "time": 34.72020374999998,
                    "velocity": 0.3937007874015748,
                    "duration": 0.07324937500000317
                },
                {
                    "name": "E4",
                    "midi": 64,
                    "time": 34.72020374999998,
                    "velocity": 0.41732283464566927,
                    "duration": 0.07324937500000317
                },
                {
                    "name": "F#4",
                    "midi": 66,
                    "time": 34.86670249999999,
                    "velocity": 0.5039370078740157,
                    "duration": 0.07324937500000317
                },
                {
                    "name": "F#3",
                    "midi": 54,
                    "time": 34.86670249999999,
                    "velocity": 0.4015748031496063,
                    "duration": 0.07324937500000317
                },
                {
                    "name": "C#4",
                    "midi": 61,
                    "time": 34.86670249999999,
                    "velocity": 0.4015748031496063,
                    "duration": 0.07324937500000317
                },
                {
                    "name": "E4",
                    "midi": 64,
                    "time": 34.86670249999999,
                    "velocity": 0.4251968503937008,
                    "duration": 0.07324937500000317
                },
                {
                    "name": "F#4",
                    "midi": 66,
                    "time": 35.013201249999995,
                    "velocity": 0.5354330708661418,
                    "duration": 0.07324937500000317
                },
                {
                    "name": "F#3",
                    "midi": 54,
                    "time": 35.013201249999995,
                    "velocity": 0.4251968503937008,
                    "duration": 0.07324937500000317
                },
                {
                    "name": "C#4",
                    "midi": 61,
                    "time": 35.013201249999995,
                    "velocity": 0.4251968503937008,
                    "duration": 0.07324937500000317
                },
                {
                    "name": "E4",
                    "midi": 64,
                    "time": 35.013201249999995,
                    "velocity": 0.44881889763779526,
                    "duration": 0.07324937500000317
                },
                {
                    "name": "B2",
                    "midi": 47,
                    "time": 35.1597,
                    "velocity": 0.5905511811023622,
                    "duration": 0.07324937500000317
                },
                {
                    "name": "F#4",
                    "midi": 66,
                    "time": 35.30619875000001,
                    "velocity": 0.47244094488188976,
                    "duration": 0.07324937500000317
                },
                {
                    "name": "D4",
                    "midi": 62,
                    "time": 35.30619875000001,
                    "velocity": 0.4015748031496063,
                    "duration": 0.07324937500000317
                },
                {
                    "name": "B3",
                    "midi": 59,
                    "time": 35.30619875000001,
                    "velocity": 0.3779527559055118,
                    "duration": 0.07324937500000317
                },
                {
                    "name": "F#3",
                    "midi": 54,
                    "time": 35.30619875000001,
                    "velocity": 0.3779527559055118,
                    "duration": 0.07324937500000317
                },
                {
                    "name": "F#4",
                    "midi": 66,
                    "time": 35.45269750000001,
                    "velocity": 0.47244094488188976,
                    "duration": 0.07324937500000317
                },
                {
                    "name": "D4",
                    "midi": 62,
                    "time": 35.45269750000001,
                    "velocity": 0.4015748031496063,
                    "duration": 0.07324937500000317
                },
                {
                    "name": "B3",
                    "midi": 59,
                    "time": 35.45269750000001,
                    "velocity": 0.3779527559055118,
                    "duration": 0.07324937500000317
                },
                {
                    "name": "F#3",
                    "midi": 54,
                    "time": 35.45269750000001,
                    "velocity": 0.3779527559055118,
                    "duration": 0.07324937500000317
                },
                {
                    "name": "F#4",
                    "midi": 66,
                    "time": 35.59919625000002,
                    "velocity": 0.4409448818897638,
                    "duration": 0.07324937500000317
                },
                {
                    "name": "D4",
                    "midi": 62,
                    "time": 35.59919625000002,
                    "velocity": 0.3700787401574803,
                    "duration": 0.07324937500000317
                },
                {
                    "name": "B3",
                    "midi": 59,
                    "time": 35.59919625000002,
                    "velocity": 0.3464566929133858,
                    "duration": 0.07324937500000317
                },
                {
                    "name": "F#3",
                    "midi": 54,
                    "time": 35.59919625000002,
                    "velocity": 0.3464566929133858,
                    "duration": 0.07324937500000317
                },
                {
                    "name": "F#4",
                    "midi": 66,
                    "time": 35.745695000000026,
                    "velocity": 0.49606299212598426,
                    "duration": 0.07324937500000317
                },
                {
                    "name": "D4",
                    "midi": 62,
                    "time": 35.745695000000026,
                    "velocity": 0.41732283464566927,
                    "duration": 0.07324937500000317
                },
                {
                    "name": "B3",
                    "midi": 59,
                    "time": 35.745695000000026,
                    "velocity": 0.3937007874015748,
                    "duration": 0.07324937500000317
                },
                {
                    "name": "F#3",
                    "midi": 54,
                    "time": 35.745695000000026,
                    "velocity": 0.3937007874015748,
                    "duration": 0.07324937500000317
                },
                {
                    "name": "F#4",
                    "midi": 66,
                    "time": 35.89219375000003,
                    "velocity": 0.4566929133858268,
                    "duration": 0.07324937500000317
                },
                {
                    "name": "D4",
                    "midi": 62,
                    "time": 35.89219375000003,
                    "velocity": 0.3858267716535433,
                    "duration": 0.07324937500000317
                },
                {
                    "name": "B3",
                    "midi": 59,
                    "time": 35.89219375000003,
                    "velocity": 0.36220472440944884,
                    "duration": 0.07324937500000317
                },
                {
                    "name": "F#3",
                    "midi": 54,
                    "time": 35.89219375000003,
                    "velocity": 0.36220472440944884,
                    "duration": 0.07324937500000317
                },
                {
                    "name": "C#3",
                    "midi": 49,
                    "time": 36.03869250000004,
                    "velocity": 0.5905511811023622,
                    "duration": 0.14649874999999923
                },
                {
                    "name": "F3",
                    "midi": 53,
                    "time": 36.18519125000004,
                    "velocity": 0.33858267716535434,
                    "duration": 0.07324937500000317
                },
                {
                    "name": "B3",
                    "midi": 59,
                    "time": 36.18519125000004,
                    "velocity": 0.33858267716535434,
                    "duration": 0.07324937500000317
                },
                {
                    "name": "C#4",
                    "midi": 61,
                    "time": 36.18519125000004,
                    "velocity": 0.4330708661417323,
                    "duration": 0.07324937500000317
                },
                {
                    "name": "F3",
                    "midi": 53,
                    "time": 36.331690000000044,
                    "velocity": 0.3779527559055118,
                    "duration": 0.07324937500000317
                },
                {
                    "name": "B3",
                    "midi": 59,
                    "time": 36.331690000000044,
                    "velocity": 0.3779527559055118,
                    "duration": 0.07324937500000317
                },
                {
                    "name": "C#4",
                    "midi": 61,
                    "time": 36.331690000000044,
                    "velocity": 0.48031496062992124,
                    "duration": 0.07324937500000317
                },
                {
                    "name": "C#4",
                    "midi": 61,
                    "time": 36.47818875000005,
                    "velocity": 0.41732283464566927,
                    "duration": 0.07324937500000317
                },
                {
                    "name": "B3",
                    "midi": 59,
                    "time": 36.47818875000005,
                    "velocity": 0.33070866141732286,
                    "duration": 0.07324937500000317
                },
                {
                    "name": "F3",
                    "midi": 53,
                    "time": 36.47818875000005,
                    "velocity": 0.33070866141732286,
                    "duration": 0.07324937500000317
                },
                {
                    "name": "C#4",
                    "midi": 61,
                    "time": 36.62468750000006,
                    "velocity": 0.4881889763779528,
                    "duration": 0.07324937500000317
                },
                {
                    "name": "B3",
                    "midi": 59,
                    "time": 36.62468750000006,
                    "velocity": 0.3858267716535433,
                    "duration": 0.07324937500000317
                },
                {
                    "name": "F#3",
                    "midi": 54,
                    "time": 36.62468750000006,
                    "velocity": 0.3858267716535433,
                    "duration": 0.07324937500000317
                },
                {
                    "name": "C#4",
                    "midi": 61,
                    "time": 36.77118625000006,
                    "velocity": 0.4409448818897638,
                    "duration": 0.07324937500000317
                },
                {
                    "name": "B3",
                    "midi": 59,
                    "time": 36.77118625000006,
                    "velocity": 0.3543307086614173,
                    "duration": 0.07324937500000317
                },
                {
                    "name": "G#3",
                    "midi": 56,
                    "time": 36.77118625000006,
                    "velocity": 0.4409448818897638,
                    "duration": 0.07324937500000317
                },
                {
                    "name": "F#3",
                    "midi": 54,
                    "time": 36.91768500000007,
                    "velocity": 0.4094488188976378,
                    "duration": 0.07324937500000317
                },
                {
                    "name": "A#3",
                    "midi": 58,
                    "time": 36.91768500000007,
                    "velocity": 0.4094488188976378,
                    "duration": 0.07324937500000317
                },
                {
                    "name": "C#4",
                    "midi": 61,
                    "time": 36.91768500000007,
                    "velocity": 0.5275590551181102,
                    "duration": 0.07324937500000317
                },
                {
                    "name": "F#3",
                    "midi": 54,
                    "time": 37.064183750000076,
                    "velocity": 0.2992125984251969,
                    "duration": 0.07324937500000317
                },
                {
                    "name": "A#3",
                    "midi": 58,
                    "time": 37.064183750000076,
                    "velocity": 0.2992125984251969,
                    "duration": 0.07324937500000317
                },
                {
                    "name": "C#4",
                    "midi": 61,
                    "time": 37.064183750000076,
                    "velocity": 0.3858267716535433,
                    "duration": 0.07324937500000317
                },
                {
                    "name": "F#3",
                    "midi": 54,
                    "time": 37.21068250000008,
                    "velocity": 0.33070866141732286,
                    "duration": 0.07324937500000317
                },
                {
                    "name": "A#3",
                    "midi": 58,
                    "time": 37.21068250000008,
                    "velocity": 0.33070866141732286,
                    "duration": 0.07324937500000317
                },
                {
                    "name": "C#4",
                    "midi": 61,
                    "time": 37.21068250000008,
                    "velocity": 0.4094488188976378,
                    "duration": 0.07324937500000317
                },
                {
                    "name": "C#4",
                    "midi": 61,
                    "time": 37.35718125000009,
                    "velocity": 0.3228346456692913,
                    "duration": 0.07324937500000317
                },
                {
                    "name": "A#3",
                    "midi": 58,
                    "time": 37.35718125000009,
                    "velocity": 0.25196850393700787,
                    "duration": 0.07324937500000317
                },
                {
                    "name": "F#3",
                    "midi": 54,
                    "time": 37.35718125000009,
                    "velocity": 0.25196850393700787,
                    "duration": 0.07324937500000317
                },
                {
                    "name": "F#3",
                    "midi": 54,
                    "time": 37.503680000000095,
                    "velocity": 0.28346456692913385,
                    "duration": 0.07324937500000317
                },
                {
                    "name": "A#3",
                    "midi": 58,
                    "time": 37.503680000000095,
                    "velocity": 0.28346456692913385,
                    "duration": 0.07324937500000317
                },
                {
                    "name": "C#4",
                    "midi": 61,
                    "time": 37.503680000000095,
                    "velocity": 0.36220472440944884,
                    "duration": 0.07324937500000317
                },
                {
                    "name": "C#4",
                    "midi": 61,
                    "time": 37.6501787500001,
                    "velocity": 0.31496062992125984,
                    "duration": 0.07324937500000317
                },
                {
                    "name": "A#3",
                    "midi": 58,
                    "time": 37.6501787500001,
                    "velocity": 0.25196850393700787,
                    "duration": 0.07324937500000317
                },
                {
                    "name": "F#3",
                    "midi": 54,
                    "time": 37.6501787500001,
                    "velocity": 0.25196850393700787,
                    "duration": 0.07324937500000317
                },
                {
                    "name": "A#2",
                    "midi": 46,
                    "time": 37.79667750000011,
                    "velocity": 0.31496062992125984,
                    "duration": 0.07324937500000317
                },
                {
                    "name": "F#3",
                    "midi": 54,
                    "time": 37.943176250000114,
                    "velocity": 0.25984251968503935,
                    "duration": 0.07324937500000317
                },
                {
                    "name": "C#4",
                    "midi": 61,
                    "time": 37.943176250000114,
                    "velocity": 0.25984251968503935,
                    "duration": 0.07324937500000317
                },
                {
                    "name": "E4",
                    "midi": 64,
                    "time": 37.943176250000114,
                    "velocity": 0.33858267716535434,
                    "duration": 0.07324937500000317
                },
                {
                    "name": "F#3",
                    "midi": 54,
                    "time": 38.08967500000012,
                    "velocity": 0.29133858267716534,
                    "duration": 0.07324937500000317
                },
                {
                    "name": "C#4",
                    "midi": 61,
                    "time": 38.08967500000012,
                    "velocity": 0.29133858267716534,
                    "duration": 0.07324937500000317
                },
                {
                    "name": "E4",
                    "midi": 64,
                    "time": 38.08967500000012,
                    "velocity": 0.3700787401574803,
                    "duration": 0.07324937500000317
                },
                {
                    "name": "F#3",
                    "midi": 54,
                    "time": 38.23617375000013,
                    "velocity": 0.30708661417322836,
                    "duration": 0.07324937500000317
                },
                {
                    "name": "C#4",
                    "midi": 61,
                    "time": 38.23617375000013,
                    "velocity": 0.30708661417322836,
                    "duration": 0.07324937500000317
                },
                {
                    "name": "E4",
                    "midi": 64,
                    "time": 38.23617375000013,
                    "velocity": 0.3937007874015748,
                    "duration": 0.07324937500000317
                },
                {
                    "name": "F#3",
                    "midi": 54,
                    "time": 38.38267250000013,
                    "velocity": 0.33070866141732286,
                    "duration": 0.07324937500000317
                },
                {
                    "name": "C#4",
                    "midi": 61,
                    "time": 38.38267250000013,
                    "velocity": 0.33070866141732286,
                    "duration": 0.07324937500000317
                },
                {
                    "name": "E4",
                    "midi": 64,
                    "time": 38.38267250000013,
                    "velocity": 0.41732283464566927,
                    "duration": 0.07324937500000317
                },
                {
                    "name": "F#3",
                    "midi": 54,
                    "time": 38.52917125000014,
                    "velocity": 0.36220472440944884,
                    "duration": 0.07324937500000317
                },
                {
                    "name": "C#4",
                    "midi": 61,
                    "time": 38.52917125000014,
                    "velocity": 0.36220472440944884,
                    "duration": 0.07324937500000317
                },
                {
                    "name": "E4",
                    "midi": 64,
                    "time": 38.52917125000014,
                    "velocity": 0.44881889763779526,
                    "duration": 0.07324937500000317
                },
                {
                    "name": "B2",
                    "midi": 47,
                    "time": 38.675670000000146,
                    "velocity": 0.47244094488188976,
                    "duration": 0.07324937500000317
                },
                {
                    "name": "D4",
                    "midi": 62,
                    "time": 38.82216875000015,
                    "velocity": 0.33858267716535434,
                    "duration": 0.07324937500000317
                },
                {
                    "name": "B3",
                    "midi": 59,
                    "time": 38.82216875000015,
                    "velocity": 0.2677165354330709,
                    "duration": 0.07324937500000317
                },
                {
                    "name": "F#3",
                    "midi": 54,
                    "time": 38.82216875000015,
                    "velocity": 0.2677165354330709,
                    "duration": 0.07324937500000317
                },
                {
                    "name": "F#3",
                    "midi": 54,
                    "time": 38.96866750000016,
                    "velocity": 0.3228346456692913,
                    "duration": 0.07324937500000317
                },
                {
                    "name": "B3",
                    "midi": 59,
                    "time": 38.96866750000016,
                    "velocity": 0.3228346456692913,
                    "duration": 0.07324937500000317
                },
                {
                    "name": "D4",
                    "midi": 62,
                    "time": 38.96866750000016,
                    "velocity": 0.4094488188976378,
                    "duration": 0.07324937500000317
                },
                {
                    "name": "F#3",
                    "midi": 54,
                    "time": 39.115166250000165,
                    "velocity": 0.30708661417322836,
                    "duration": 0.07324937500000317
                },
                {
                    "name": "B3",
                    "midi": 59,
                    "time": 39.115166250000165,
                    "velocity": 0.30708661417322836,
                    "duration": 0.07324937500000317
                },
                {
                    "name": "D4",
                    "midi": 62,
                    "time": 39.115166250000165,
                    "velocity": 0.3858267716535433,
                    "duration": 0.07324937500000317
                },
                {
                    "name": "D4",
                    "midi": 62,
                    "time": 39.26166500000017,
                    "velocity": 0.44881889763779526,
                    "duration": 0.07324937500000317
                },
                {
                    "name": "B3",
                    "midi": 59,
                    "time": 39.26166500000017,
                    "velocity": 0.3464566929133858,
                    "duration": 0.07324937500000317
                },
                {
                    "name": "F#3",
                    "midi": 54,
                    "time": 39.26166500000017,
                    "velocity": 0.3464566929133858,
                    "duration": 0.07324937500000317
                },
                {
                    "name": "F#3",
                    "midi": 54,
                    "time": 39.40816375000018,
                    "velocity": 0.33070866141732286,
                    "duration": 0.07324937500000317
                },
                {
                    "name": "B3",
                    "midi": 59,
                    "time": 39.40816375000018,
                    "velocity": 0.33070866141732286,
                    "duration": 0.07324937500000317
                },
                {
                    "name": "D4",
                    "midi": 62,
                    "time": 39.40816375000018,
                    "velocity": 0.4330708661417323,
                    "duration": 0.07324937500000317
                },
                {
                    "name": "B2",
                    "midi": 47,
                    "time": 39.554662500000184,
                    "velocity": 0.5433070866141733,
                    "duration": 0.07324937500000317
                },
                {
                    "name": "F4",
                    "midi": 65,
                    "time": 39.70116125000019,
                    "velocity": 0.3937007874015748,
                    "duration": 0.07324937500000317
                },
                {
                    "name": "C#4",
                    "midi": 61,
                    "time": 39.70116125000019,
                    "velocity": 0.31496062992125984,
                    "duration": 0.07324937500000317
                },
                {
                    "name": "G#3",
                    "midi": 56,
                    "time": 39.70116125000019,
                    "velocity": 0.31496062992125984,
                    "duration": 0.07324937500000317
                },
                {
                    "name": "G#3",
                    "midi": 56,
                    "time": 39.8476600000002,
                    "velocity": 0.3543307086614173,
                    "duration": 0.07324937500000317
                },
                {
                    "name": "C#4",
                    "midi": 61,
                    "time": 39.8476600000002,
                    "velocity": 0.3543307086614173,
                    "duration": 0.07324937500000317
                },
                {
                    "name": "F4",
                    "midi": 65,
                    "time": 39.8476600000002,
                    "velocity": 0.4409448818897638,
                    "duration": 0.07324937500000317
                },
                {
                    "name": "G#3",
                    "midi": 56,
                    "time": 39.9941587500002,
                    "velocity": 0.33858267716535434,
                    "duration": 0.07324937500000317
                },
                {
                    "name": "C#4",
                    "midi": 61,
                    "time": 39.9941587500002,
                    "velocity": 0.33858267716535434,
                    "duration": 0.07324937500000317
                },
                {
                    "name": "F4",
                    "midi": 65,
                    "time": 39.9941587500002,
                    "velocity": 0.4251968503937008,
                    "duration": 0.07324937500000317
                },
                {
                    "name": "G#3",
                    "midi": 56,
                    "time": 40.14065750000021,
                    "velocity": 0.3700787401574803,
                    "duration": 0.07324937500000317
                },
                {
                    "name": "C#4",
                    "midi": 61,
                    "time": 40.14065750000021,
                    "velocity": 0.3700787401574803,
                    "duration": 0.07324937500000317
                },
                {
                    "name": "F4",
                    "midi": 65,
                    "time": 40.14065750000021,
                    "velocity": 0.4645669291338583,
                    "duration": 0.07324937500000317
                },
                {
                    "name": "G#3",
                    "midi": 56,
                    "time": 40.287156250000216,
                    "velocity": 0.4251968503937008,
                    "duration": 0.07324937500000317
                },
                {
                    "name": "C#4",
                    "midi": 61,
                    "time": 40.287156250000216,
                    "velocity": 0.4251968503937008,
                    "duration": 0.07324937500000317
                },
                {
                    "name": "F4",
                    "midi": 65,
                    "time": 40.287156250000216,
                    "velocity": 0.5354330708661418,
                    "duration": 0.07324937500000317
                },
                {
                    "name": "A2",
                    "midi": 45,
                    "time": 40.43365500000022,
                    "velocity": 0.5748031496062992,
                    "duration": 0.07324937500000317
                },
                {
                    "name": "F#4",
                    "midi": 66,
                    "time": 40.58015375000023,
                    "velocity": 0.48031496062992124,
                    "duration": 0.07324937500000317
                },
                {
                    "name": "C#4",
                    "midi": 61,
                    "time": 40.58015375000023,
                    "velocity": 0.4015748031496063,
                    "duration": 0.07324937500000317
                },
                {
                    "name": "A3",
                    "midi": 57,
                    "time": 40.58015375000023,
                    "velocity": 0.3779527559055118,
                    "duration": 0.07324937500000317
                },
                {
                    "name": "F#3",
                    "midi": 54,
                    "time": 40.58015375000023,
                    "velocity": 0.3779527559055118,
                    "duration": 0.07324937500000317
                },
                {
                    "name": "F#4",
                    "midi": 66,
                    "time": 40.726652500000235,
                    "velocity": 0.5196850393700787,
                    "duration": 0.07324937500000317
                },
                {
                    "name": "C#4",
                    "midi": 61,
                    "time": 40.726652500000235,
                    "velocity": 0.4409448818897638,
                    "duration": 0.07324937500000317
                },
                {
                    "name": "A3",
                    "midi": 57,
                    "time": 40.726652500000235,
                    "velocity": 0.4094488188976378,
                    "duration": 0.07324937500000317
                },
                {
                    "name": "F#3",
                    "midi": 54,
                    "time": 40.726652500000235,
                    "velocity": 0.4094488188976378,
                    "duration": 0.07324937500000317
                },
                {
                    "name": "F#4",
                    "midi": 66,
                    "time": 40.87315125000024,
                    "velocity": 0.5511811023622047,
                    "duration": 0.07324937500000317
                },
                {
                    "name": "C#4",
                    "midi": 61,
                    "time": 40.87315125000024,
                    "velocity": 0.4645669291338583,
                    "duration": 0.07324937500000317
                },
                {
                    "name": "A3",
                    "midi": 57,
                    "time": 40.87315125000024,
                    "velocity": 0.4409448818897638,
                    "duration": 0.07324937500000317
                },
                {
                    "name": "F#3",
                    "midi": 54,
                    "time": 40.87315125000024,
                    "velocity": 0.4409448818897638,
                    "duration": 0.07324937500000317
                },
                {
                    "name": "F#4",
                    "midi": 66,
                    "time": 41.01965000000025,
                    "velocity": 0.5669291338582677,
                    "duration": 0.07324937500000317
                },
                {
                    "name": "C#4",
                    "midi": 61,
                    "time": 41.01965000000025,
                    "velocity": 0.48031496062992124,
                    "duration": 0.07324937500000317
                },
                {
                    "name": "A3",
                    "midi": 57,
                    "time": 41.01965000000025,
                    "velocity": 0.44881889763779526,
                    "duration": 0.07324937500000317
                },
                {
                    "name": "F#3",
                    "midi": 54,
                    "time": 41.01965000000025,
                    "velocity": 0.44881889763779526,
                    "duration": 0.07324937500000317
                },
                {
                    "name": "F#4",
                    "midi": 66,
                    "time": 41.166148750000254,
                    "velocity": 0.47244094488188976,
                    "duration": 0.07324937500000317
                },
                {
                    "name": "F#3",
                    "midi": 54,
                    "time": 41.166148750000254,
                    "velocity": 0.3779527559055118,
                    "duration": 0.07324937500000317
                },
                {
                    "name": "A3",
                    "midi": 57,
                    "time": 41.166148750000254,
                    "velocity": 0.3779527559055118,
                    "duration": 0.07324937500000317
                },
                {
                    "name": "C#4",
                    "midi": 61,
                    "time": 41.166148750000254,
                    "velocity": 0.4015748031496063,
                    "duration": 0.07324937500000317
                },
                {
                    "name": "B2",
                    "midi": 47,
                    "time": 41.31264750000026,
                    "velocity": 0.6141732283464567,
                    "duration": 0.07324937500000317
                },
                {
                    "name": "F#3",
                    "midi": 54,
                    "time": 41.459146250000266,
                    "velocity": 0.3779527559055118,
                    "duration": 0.07324937500000317
                },
                {
                    "name": "G#3",
                    "midi": 56,
                    "time": 41.459146250000266,
                    "velocity": 0.3779527559055118,
                    "duration": 0.07324937500000317
                },
                {
                    "name": "D4",
                    "midi": 62,
                    "time": 41.459146250000266,
                    "velocity": 0.48031496062992124,
                    "duration": 0.07324937500000317
                },
                {
                    "name": "D4",
                    "midi": 62,
                    "time": 41.60564500000027,
                    "velocity": 0.44881889763779526,
                    "duration": 0.07324937500000317
                },
                {
                    "name": "G#3",
                    "midi": 56,
                    "time": 41.60564500000027,
                    "velocity": 0.3543307086614173,
                    "duration": 0.07324937500000317
                },
                {
                    "name": "F#3",
                    "midi": 54,
                    "time": 41.60564500000027,
                    "velocity": 0.3543307086614173,
                    "duration": 0.07324937500000317
                },
                {
                    "name": "F#3",
                    "midi": 54,
                    "time": 41.75214375000028,
                    "velocity": 0.3937007874015748,
                    "duration": 0.07324937500000317
                },
                {
                    "name": "G#3",
                    "midi": 56,
                    "time": 41.75214375000028,
                    "velocity": 0.3937007874015748,
                    "duration": 0.07324937500000317
                },
                {
                    "name": "D4",
                    "midi": 62,
                    "time": 41.75214375000028,
                    "velocity": 0.49606299212598426,
                    "duration": 0.07324937500000317
                },
                {
                    "name": "F#3",
                    "midi": 54,
                    "time": 41.898642500000285,
                    "velocity": 0.4015748031496063,
                    "duration": 0.07324937500000317
                },
                {
                    "name": "G#3",
                    "midi": 56,
                    "time": 41.898642500000285,
                    "velocity": 0.4015748031496063,
                    "duration": 0.07324937500000317
                },
                {
                    "name": "D4",
                    "midi": 62,
                    "time": 41.898642500000285,
                    "velocity": 0.5039370078740157,
                    "duration": 0.07324937500000317
                },
                {
                    "name": "F#3",
                    "midi": 54,
                    "time": 42.04514125000029,
                    "velocity": 0.4251968503937008,
                    "duration": 0.07324937500000317
                },
                {
                    "name": "G#3",
                    "midi": 56,
                    "time": 42.04514125000029,
                    "velocity": 0.4251968503937008,
                    "duration": 0.07324937500000317
                },
                {
                    "name": "D4",
                    "midi": 62,
                    "time": 42.04514125000029,
                    "velocity": 0.5354330708661418,
                    "duration": 0.07324937500000317
                },
                {
                    "name": "C#3",
                    "midi": 49,
                    "time": 42.1916400000003,
                    "velocity": 0.5748031496062992,
                    "duration": 0.07324937500000317
                },
                {
                    "name": "F#4",
                    "midi": 66,
                    "time": 42.338138750000304,
                    "velocity": 0.48031496062992124,
                    "duration": 0.07324937500000317
                },
                {
                    "name": "C#4",
                    "midi": 61,
                    "time": 42.338138750000304,
                    "velocity": 0.4015748031496063,
                    "duration": 0.07324937500000317
                },
                {
                    "name": "A3",
                    "midi": 57,
                    "time": 42.338138750000304,
                    "velocity": 0.3779527559055118,
                    "duration": 0.07324937500000317
                },
                {
                    "name": "F#3",
                    "midi": 54,
                    "time": 42.338138750000304,
                    "velocity": 0.3779527559055118,
                    "duration": 0.07324937500000317
                },
                {
                    "name": "F#4",
                    "midi": 66,
                    "time": 42.48463750000031,
                    "velocity": 0.5196850393700787,
                    "duration": 0.07324937500000317
                },
                {
                    "name": "C#4",
                    "midi": 61,
                    "time": 42.48463750000031,
                    "velocity": 0.4409448818897638,
                    "duration": 0.07324937500000317
                },
                {
                    "name": "A3",
                    "midi": 57,
                    "time": 42.48463750000031,
                    "velocity": 0.4094488188976378,
                    "duration": 0.07324937500000317
                },
                {
                    "name": "F#3",
                    "midi": 54,
                    "time": 42.48463750000031,
                    "velocity": 0.4094488188976378,
                    "duration": 0.07324937500000317
                },
                {
                    "name": "F#4",
                    "midi": 66,
                    "time": 42.63113625000032,
                    "velocity": 0.5511811023622047,
                    "duration": 0.07324937500000317
                },
                {
                    "name": "C#4",
                    "midi": 61,
                    "time": 42.63113625000032,
                    "velocity": 0.4645669291338583,
                    "duration": 0.07324937500000317
                },
                {
                    "name": "A3",
                    "midi": 57,
                    "time": 42.63113625000032,
                    "velocity": 0.4409448818897638,
                    "duration": 0.07324937500000317
                },
                {
                    "name": "F#3",
                    "midi": 54,
                    "time": 42.63113625000032,
                    "velocity": 0.4409448818897638,
                    "duration": 0.07324937500000317
                },
                {
                    "name": "F#4",
                    "midi": 66,
                    "time": 42.77763500000032,
                    "velocity": 0.5669291338582677,
                    "duration": 0.07324937500000317
                },
                {
                    "name": "C#4",
                    "midi": 61,
                    "time": 42.77763500000032,
                    "velocity": 0.48031496062992124,
                    "duration": 0.07324937500000317
                },
                {
                    "name": "A3",
                    "midi": 57,
                    "time": 42.77763500000032,
                    "velocity": 0.44881889763779526,
                    "duration": 0.07324937500000317
                },
                {
                    "name": "F#3",
                    "midi": 54,
                    "time": 42.77763500000032,
                    "velocity": 0.44881889763779526,
                    "duration": 0.07324937500000317
                },
                {
                    "name": "F#4",
                    "midi": 66,
                    "time": 42.92413375000033,
                    "velocity": 0.47244094488188976,
                    "duration": 0.07324937500000317
                },
                {
                    "name": "F#3",
                    "midi": 54,
                    "time": 42.92413375000033,
                    "velocity": 0.3779527559055118,
                    "duration": 0.07324937500000317
                },
                {
                    "name": "A3",
                    "midi": 57,
                    "time": 42.92413375000033,
                    "velocity": 0.3779527559055118,
                    "duration": 0.07324937500000317
                },
                {
                    "name": "C#4",
                    "midi": 61,
                    "time": 42.92413375000033,
                    "velocity": 0.4015748031496063,
                    "duration": 0.07324937500000317
                },
                {
                    "name": "B2",
                    "midi": 47,
                    "time": 43.070632500000336,
                    "velocity": 0.6141732283464567,
                    "duration": 0.07324937500000317
                },
                {
                    "name": "F#3",
                    "midi": 54,
                    "time": 43.21713125000034,
                    "velocity": 0.3779527559055118,
                    "duration": 0.07324937500000317
                },
                {
                    "name": "G#3",
                    "midi": 56,
                    "time": 43.21713125000034,
                    "velocity": 0.3779527559055118,
                    "duration": 0.07324937500000317
                },
                {
                    "name": "D4",
                    "midi": 62,
                    "time": 43.21713125000034,
                    "velocity": 0.48031496062992124,
                    "duration": 0.07324937500000317
                },
                {
                    "name": "D4",
                    "midi": 62,
                    "time": 43.36363000000035,
                    "velocity": 0.44881889763779526,
                    "duration": 0.07324937500000317
                },
                {
                    "name": "G#3",
                    "midi": 56,
                    "time": 43.36363000000035,
                    "velocity": 0.3543307086614173,
                    "duration": 0.07324937500000317
                },
                {
                    "name": "F#3",
                    "midi": 54,
                    "time": 43.36363000000035,
                    "velocity": 0.3543307086614173,
                    "duration": 0.07324937500000317
                },
                {
                    "name": "F#3",
                    "midi": 54,
                    "time": 43.510128750000355,
                    "velocity": 0.3937007874015748,
                    "duration": 0.07324937500000317
                },
                {
                    "name": "G#3",
                    "midi": 56,
                    "time": 43.510128750000355,
                    "velocity": 0.3937007874015748,
                    "duration": 0.07324937500000317
                },
                {
                    "name": "D4",
                    "midi": 62,
                    "time": 43.510128750000355,
                    "velocity": 0.49606299212598426,
                    "duration": 0.07324937500000317
                },
                {
                    "name": "F#3",
                    "midi": 54,
                    "time": 43.65662750000036,
                    "velocity": 0.4015748031496063,
                    "duration": 0.07324937500000317
                },
                {
                    "name": "G#3",
                    "midi": 56,
                    "time": 43.65662750000036,
                    "velocity": 0.4015748031496063,
                    "duration": 0.07324937500000317
                },
                {
                    "name": "D4",
                    "midi": 62,
                    "time": 43.65662750000036,
                    "velocity": 0.5039370078740157,
                    "duration": 0.07324937500000317
                },
                {
                    "name": "F#3",
                    "midi": 54,
                    "time": 43.80312625000037,
                    "velocity": 0.4251968503937008,
                    "duration": 0.07324937500000317
                },
                {
                    "name": "G#3",
                    "midi": 56,
                    "time": 43.80312625000037,
                    "velocity": 0.4251968503937008,
                    "duration": 0.07324937500000317
                },
                {
                    "name": "D4",
                    "midi": 62,
                    "time": 43.80312625000037,
                    "velocity": 0.5354330708661418,
                    "duration": 0.07324937500000317
                },
                {
                    "name": "C#3",
                    "midi": 49,
                    "time": 43.949625000000374,
                    "velocity": 0.3779527559055118,
                    "duration": 0.07324937500000317
                },
                {
                    "name": "F#3",
                    "midi": 54,
                    "time": 43.949625000000374,
                    "velocity": 0.3779527559055118,
                    "duration": 0.07324937500000317
                },
                {
                    "name": "A3",
                    "midi": 57,
                    "time": 43.949625000000374,
                    "velocity": 0.48031496062992124,
                    "duration": 0.07324937500000317
                },
                {
                    "name": "A3",
                    "midi": 57,
                    "time": 44.09612375000038,
                    "velocity": 0.44881889763779526,
                    "duration": 0.07324937500000317
                },
                {
                    "name": "F#3",
                    "midi": 54,
                    "time": 44.09612375000038,
                    "velocity": 0.3543307086614173,
                    "duration": 0.07324937500000317
                },
                {
                    "name": "C#3",
                    "midi": 49,
                    "time": 44.09612375000038,
                    "velocity": 0.3543307086614173,
                    "duration": 0.07324937500000317
                },
                {
                    "name": "C#3",
                    "midi": 49,
                    "time": 44.24262250000039,
                    "velocity": 0.3937007874015748,
                    "duration": 0.07324937500000317
                },
                {
                    "name": "F#3",
                    "midi": 54,
                    "time": 44.24262250000039,
                    "velocity": 0.3937007874015748,
                    "duration": 0.07324937500000317
                },
                {
                    "name": "A3",
                    "midi": 57,
                    "time": 44.24262250000039,
                    "velocity": 0.49606299212598426,
                    "duration": 0.07324937500000317
                },
                {
                    "name": "B3",
                    "midi": 59,
                    "time": 44.82861750000039,
                    "velocity": 0.49606299212598426,
                    "duration": 0.07324937500000317
                },
                {
                    "name": "C#3",
                    "midi": 49,
                    "time": 44.82861750000039,
                    "velocity": 0.4330708661417323,
                    "duration": 0.07324937500000317
                },
                {
                    "name": "C#3",
                    "midi": 49,
                    "time": 44.9751162500004,
                    "velocity": 0.3858267716535433,
                    "duration": 0.07324937500000317
                },
                {
                    "name": "B3",
                    "midi": 59,
                    "time": 44.9751162500004,
                    "velocity": 0.4409448818897638,
                    "duration": 0.07324937500000317
                },
                {
                    "name": "C#3",
                    "midi": 49,
                    "time": 45.1216150000004,
                    "velocity": 0.3858267716535433,
                    "duration": 0.29299749999999847
                },
                {
                    "name": "B3",
                    "midi": 59,
                    "time": 45.1216150000004,
                    "velocity": 0.4409448818897638,
                    "duration": 0.29299749999999847
                },
                {
                    "name": "C#4",
                    "midi": 61,
                    "time": 45.7076100000004,
                    "velocity": 0.5196850393700787,
                    "duration": 0.07324937500000317
                },
                {
                    "name": "C#3",
                    "midi": 49,
                    "time": 45.7076100000004,
                    "velocity": 0.4566929133858268,
                    "duration": 0.07324937500000317
                },
                {
                    "name": "C#3",
                    "midi": 49,
                    "time": 45.85410875000041,
                    "velocity": 0.3858267716535433,
                    "duration": 0.07324937500000317
                },
                {
                    "name": "C#4",
                    "midi": 61,
                    "time": 45.85410875000041,
                    "velocity": 0.4409448818897638,
                    "duration": 0.07324937500000317
                },
                {
                    "name": "C#4",
                    "midi": 61,
                    "time": 46.00060750000041,
                    "velocity": 0.47244094488188976,
                    "duration": 0.29299749999999847
                },
                {
                    "name": "C#3",
                    "midi": 49,
                    "time": 46.00060750000041,
                    "velocity": 0.41732283464566927,
                    "duration": 0.29299749999999847
                },
                {
                    "name": "D4",
                    "midi": 62,
                    "time": 46.58660250000041,
                    "velocity": 0.5275590551181102,
                    "duration": 0.07324937500000317
                },
                {
                    "name": "C#3",
                    "midi": 49,
                    "time": 46.58660250000041,
                    "velocity": 0.4645669291338583,
                    "duration": 0.07324937500000317
                },
                {
                    "name": "C#3",
                    "midi": 49,
                    "time": 46.733101250000416,
                    "velocity": 0.3858267716535433,
                    "duration": 0.07324937500000317
                },
                {
                    "name": "D4",
                    "midi": 62,
                    "time": 46.733101250000416,
                    "velocity": 0.4409448818897638,
                    "duration": 0.07324937500000317
                },
                {
                    "name": "D4",
                    "midi": 62,
                    "time": 46.87960000000042,
                    "velocity": 0.4566929133858268,
                    "duration": 0.29299749999999847
                },
                {
                    "name": "C#3",
                    "midi": 49,
                    "time": 46.87960000000042,
                    "velocity": 0.4015748031496063,
                    "duration": 0.29299749999999847
                },
                {
                    "name": "C#4",
                    "midi": 61,
                    "time": 47.46559500000042,
                    "velocity": 0.5511811023622047,
                    "duration": 0.07324937500000317
                },
                {
                    "name": "C#3",
                    "midi": 49,
                    "time": 47.46559500000042,
                    "velocity": 0.48031496062992124,
                    "duration": 0.07324937500000317
                },
                {
                    "name": "C#3",
                    "midi": 49,
                    "time": 47.612093750000426,
                    "velocity": 0.3937007874015748,
                    "duration": 0.07324937500000317
                },
                {
                    "name": "C#4",
                    "midi": 61,
                    "time": 47.612093750000426,
                    "velocity": 0.44881889763779526,
                    "duration": 0.07324937500000317
                },
                {
                    "name": "C#4",
                    "midi": 61,
                    "time": 47.75859250000043,
                    "velocity": 0.4881889763779528,
                    "duration": 0.29299749999999847
                },
                {
                    "name": "C#3",
                    "midi": 49,
                    "time": 47.75859250000043,
                    "velocity": 0.4251968503937008,
                    "duration": 0.29299749999999847
                },
                {
                    "name": "B3",
                    "midi": 59,
                    "time": 48.34458750000043,
                    "velocity": 0.5748031496062992,
                    "duration": 0.07324937500000317
                },
                {
                    "name": "C#3",
                    "midi": 49,
                    "time": 48.34458750000043,
                    "velocity": 0.5039370078740157,
                    "duration": 0.07324937500000317
                },
                {
                    "name": "B3",
                    "midi": 59,
                    "time": 48.491086250000436,
                    "velocity": 0.49606299212598426,
                    "duration": 0.07324937500000317
                },
                {
                    "name": "C#3",
                    "midi": 49,
                    "time": 48.491086250000436,
                    "velocity": 0.4330708661417323,
                    "duration": 0.07324937500000317
                },
                {
                    "name": "C#3",
                    "midi": 49,
                    "time": 48.63758500000044,
                    "velocity": 0.3858267716535433,
                    "duration": 0.29299749999999847
                },
                {
                    "name": "B3",
                    "midi": 59,
                    "time": 48.63758500000044,
                    "velocity": 0.4409448818897638,
                    "duration": 0.29299749999999847
                },
                {
                    "name": "D2",
                    "midi": 38,
                    "time": 49.22358000000044,
                    "velocity": 0.6850393700787402,
                    "duration": 0.07324937500000317
                },
                {
                    "name": "A4",
                    "midi": 69,
                    "time": 49.370078750000445,
                    "velocity": 0.5118110236220472,
                    "duration": 0.07324937500000317
                },
                {
                    "name": "F#4",
                    "midi": 66,
                    "time": 49.370078750000445,
                    "velocity": 0.4094488188976378,
                    "duration": 0.07324937500000317
                },
                {
                    "name": "D4",
                    "midi": 62,
                    "time": 49.370078750000445,
                    "velocity": 0.4094488188976378,
                    "duration": 0.07324937500000317
                },
                {
                    "name": "A3",
                    "midi": 57,
                    "time": 49.370078750000445,
                    "velocity": 0.4015748031496063,
                    "duration": 0.07324937500000317
                },
                {
                    "name": "D3",
                    "midi": 50,
                    "time": 49.370078750000445,
                    "velocity": 0.4015748031496063,
                    "duration": 0.07324937500000317
                },
                {
                    "name": "A4",
                    "midi": 69,
                    "time": 49.51657750000045,
                    "velocity": 0.5590551181102362,
                    "duration": 0.07324937500000317
                },
                {
                    "name": "F#4",
                    "midi": 66,
                    "time": 49.51657750000045,
                    "velocity": 0.4409448818897638,
                    "duration": 0.07324937500000317
                },
                {
                    "name": "D4",
                    "midi": 62,
                    "time": 49.51657750000045,
                    "velocity": 0.4409448818897638,
                    "duration": 0.07324937500000317
                },
                {
                    "name": "A3",
                    "midi": 57,
                    "time": 49.51657750000045,
                    "velocity": 0.4330708661417323,
                    "duration": 0.07324937500000317
                },
                {
                    "name": "D3",
                    "midi": 50,
                    "time": 49.51657750000045,
                    "velocity": 0.4330708661417323,
                    "duration": 0.07324937500000317
                },
                {
                    "name": "A4",
                    "midi": 69,
                    "time": 49.66307625000046,
                    "velocity": 0.5905511811023622,
                    "duration": 0.07324937500000317
                },
                {
                    "name": "F#4",
                    "midi": 66,
                    "time": 49.66307625000046,
                    "velocity": 0.47244094488188976,
                    "duration": 0.07324937500000317
                },
                {
                    "name": "D4",
                    "midi": 62,
                    "time": 49.66307625000046,
                    "velocity": 0.47244094488188976,
                    "duration": 0.07324937500000317
                },
                {
                    "name": "A3",
                    "midi": 57,
                    "time": 49.66307625000046,
                    "velocity": 0.47244094488188976,
                    "duration": 0.07324937500000317
                },
                {
                    "name": "D3",
                    "midi": 50,
                    "time": 49.66307625000046,
                    "velocity": 0.47244094488188976,
                    "duration": 0.07324937500000317
                },
                {
                    "name": "A4",
                    "midi": 69,
                    "time": 49.809575000000464,
                    "velocity": 0.6062992125984252,
                    "duration": 0.07324937500000317
                },
                {
                    "name": "F#4",
                    "midi": 66,
                    "time": 49.809575000000464,
                    "velocity": 0.48031496062992124,
                    "duration": 0.07324937500000317
                },
                {
                    "name": "D4",
                    "midi": 62,
                    "time": 49.809575000000464,
                    "velocity": 0.48031496062992124,
                    "duration": 0.07324937500000317
                },
                {
                    "name": "A3",
                    "midi": 57,
                    "time": 49.809575000000464,
                    "velocity": 0.48031496062992124,
                    "duration": 0.07324937500000317
                },
                {
                    "name": "D3",
                    "midi": 50,
                    "time": 49.809575000000464,
                    "velocity": 0.48031496062992124,
                    "duration": 0.07324937500000317
                },
                {
                    "name": "A4",
                    "midi": 69,
                    "time": 49.95607375000047,
                    "velocity": 0.5039370078740157,
                    "duration": 0.07324937500000317
                },
                {
                    "name": "F#4",
                    "midi": 66,
                    "time": 49.95607375000047,
                    "velocity": 0.4015748031496063,
                    "duration": 0.07324937500000317
                },
                {
                    "name": "D3",
                    "midi": 50,
                    "time": 49.95607375000047,
                    "velocity": 0.4015748031496063,
                    "duration": 0.07324937500000317
                },
                {
                    "name": "A3",
                    "midi": 57,
                    "time": 49.95607375000047,
                    "velocity": 0.4015748031496063,
                    "duration": 0.07324937500000317
                },
                {
                    "name": "D4",
                    "midi": 62,
                    "time": 49.95607375000047,
                    "velocity": 0.4015748031496063,
                    "duration": 0.07324937500000317
                },
                {
                    "name": "D4",
                    "midi": 62,
                    "time": 50.10257250000048,
                    "velocity": 0.4881889763779528,
                    "duration": 0.07324937500000317
                },
                {
                    "name": "C4",
                    "midi": 60,
                    "time": 50.10257250000048,
                    "velocity": 0.4881889763779528,
                    "duration": 0.07324937500000317
                },
                {
                    "name": "F#4",
                    "midi": 66,
                    "time": 50.10257250000048,
                    "velocity": 0.4881889763779528,
                    "duration": 0.07324937500000317
                },
                {
                    "name": "A4",
                    "midi": 69,
                    "time": 50.10257250000048,
                    "velocity": 0.6220472440944882,
                    "duration": 0.07324937500000317
                },
                {
                    "name": "A3",
                    "midi": 57,
                    "time": 50.10257250000048,
                    "velocity": 0.4881889763779528,
                    "duration": 0.07324937500000317
                },
                {
                    "name": "D3",
                    "midi": 50,
                    "time": 50.10257250000048,
                    "velocity": 0.4881889763779528,
                    "duration": 0.07324937500000317
                },
                {
                    "name": "D4",
                    "midi": 62,
                    "time": 50.24907125000048,
                    "velocity": 0.44881889763779526,
                    "duration": 0.07324937500000317
                },
                {
                    "name": "C4",
                    "midi": 60,
                    "time": 50.24907125000048,
                    "velocity": 0.44881889763779526,
                    "duration": 0.07324937500000317
                },
                {
                    "name": "F#4",
                    "midi": 66,
                    "time": 50.24907125000048,
                    "velocity": 0.44881889763779526,
                    "duration": 0.07324937500000317
                },
                {
                    "name": "A4",
                    "midi": 69,
                    "time": 50.24907125000048,
                    "velocity": 0.5748031496062992,
                    "duration": 0.07324937500000317
                },
                {
                    "name": "A3",
                    "midi": 57,
                    "time": 50.24907125000048,
                    "velocity": 0.44881889763779526,
                    "duration": 0.07324937500000317
                },
                {
                    "name": "D3",
                    "midi": 50,
                    "time": 50.24907125000048,
                    "velocity": 0.44881889763779526,
                    "duration": 0.07324937500000317
                },
                {
                    "name": "C4",
                    "midi": 60,
                    "time": 50.39557000000049,
                    "velocity": 0.5354330708661418,
                    "duration": 0.07324937500000317
                },
                {
                    "name": "A3",
                    "midi": 57,
                    "time": 50.39557000000049,
                    "velocity": 0.4881889763779528,
                    "duration": 0.07324937500000317
                },
                {
                    "name": "D4",
                    "midi": 62,
                    "time": 50.39557000000049,
                    "velocity": 0.6220472440944882,
                    "duration": 0.07324937500000317
                },
                {
                    "name": "D3",
                    "midi": 50,
                    "time": 50.39557000000049,
                    "velocity": 0.4881889763779528,
                    "duration": 0.07324937500000317
                },
                {
                    "name": "C4",
                    "midi": 60,
                    "time": 50.542068750000496,
                    "velocity": 0.5275590551181102,
                    "duration": 0.07324937500000317
                },
                {
                    "name": "D4",
                    "midi": 62,
                    "time": 50.542068750000496,
                    "velocity": 0.5275590551181102,
                    "duration": 0.07324937500000317
                },
                {
                    "name": "F#4",
                    "midi": 66,
                    "time": 50.542068750000496,
                    "velocity": 0.5275590551181102,
                    "duration": 0.07324937500000317
                },
                {
                    "name": "A4",
                    "midi": 69,
                    "time": 50.542068750000496,
                    "velocity": 0.6062992125984252,
                    "duration": 0.07324937500000317
                },
                {
                    "name": "D3",
                    "midi": 50,
                    "time": 50.542068750000496,
                    "velocity": 0.5275590551181102,
                    "duration": 0.07324937500000317
                },
                {
                    "name": "A3",
                    "midi": 57,
                    "time": 50.542068750000496,
                    "velocity": 0.5275590551181102,
                    "duration": 0.07324937500000317
                },
                {
                    "name": "C4",
                    "midi": 60,
                    "time": 50.6885675000005,
                    "velocity": 0.5354330708661418,
                    "duration": 0.07324937500000317
                },
                {
                    "name": "D4",
                    "midi": 62,
                    "time": 50.6885675000005,
                    "velocity": 0.6771653543307087,
                    "duration": 0.07324937500000317
                },
                {
                    "name": "A3",
                    "midi": 57,
                    "time": 50.6885675000005,
                    "velocity": 0.5354330708661418,
                    "duration": 0.07324937500000317
                },
                {
                    "name": "D3",
                    "midi": 50,
                    "time": 50.6885675000005,
                    "velocity": 0.5354330708661418,
                    "duration": 0.07324937500000317
                },
                {
                    "name": "F#4",
                    "midi": 66,
                    "time": 50.83506625000051,
                    "velocity": 0.44881889763779526,
                    "duration": 0.07324937500000317
                },
                {
                    "name": "C4",
                    "midi": 60,
                    "time": 50.83506625000051,
                    "velocity": 0.44881889763779526,
                    "duration": 0.07324937500000317
                },
                {
                    "name": "D4",
                    "midi": 62,
                    "time": 50.83506625000051,
                    "velocity": 0.44881889763779526,
                    "duration": 0.07324937500000317
                },
                {
                    "name": "A3",
                    "midi": 57,
                    "time": 50.83506625000051,
                    "velocity": 0.44881889763779526,
                    "duration": 0.07324937500000317
                },
                {
                    "name": "A4",
                    "midi": 69,
                    "time": 50.83506625000051,
                    "velocity": 0.5669291338582677,
                    "duration": 0.07324937500000317
                },
                {
                    "name": "D3",
                    "midi": 50,
                    "time": 50.83506625000051,
                    "velocity": 0.44881889763779526,
                    "duration": 0.07324937500000317
                },
                {
                    "name": "G2",
                    "midi": 43,
                    "time": 50.981565000000515,
                    "velocity": 0.6850393700787402,
                    "duration": 0.07324937500000317
                },
                {
                    "name": "D4",
                    "midi": 62,
                    "time": 51.12806375000052,
                    "velocity": 0.4330708661417323,
                    "duration": 0.07324937500000317
                },
                {
                    "name": "G4",
                    "midi": 67,
                    "time": 51.12806375000052,
                    "velocity": 0.5511811023622047,
                    "duration": 0.07324937500000317
                },
                {
                    "name": "B3",
                    "midi": 59,
                    "time": 51.12806375000052,
                    "velocity": 0.4330708661417323,
                    "duration": 0.07324937500000317
                },
                {
                    "name": "G3",
                    "midi": 55,
                    "time": 51.12806375000052,
                    "velocity": 0.4330708661417323,
                    "duration": 0.07324937500000317
                },
                {
                    "name": "B3",
                    "midi": 59,
                    "time": 51.27456250000053,
                    "velocity": 0.5826771653543307,
                    "duration": 0.07324937500000317
                },
                {
                    "name": "G3",
                    "midi": 55,
                    "time": 51.27456250000053,
                    "velocity": 0.4566929133858268,
                    "duration": 0.07324937500000317
                },
                {
                    "name": "B3",
                    "midi": 59,
                    "time": 51.421061250000534,
                    "velocity": 0.5905511811023622,
                    "duration": 0.07324937500000317
                },
                {
                    "name": "G3",
                    "midi": 55,
                    "time": 51.421061250000534,
                    "velocity": 0.47244094488188976,
                    "duration": 0.07324937500000317
                },
                {
                    "name": "A#3",
                    "midi": 58,
                    "time": 51.56756000000054,
                    "velocity": 0.5826771653543307,
                    "duration": 0.07324937500000317
                },
                {
                    "name": "G3",
                    "midi": 55,
                    "time": 51.56756000000054,
                    "velocity": 0.4645669291338583,
                    "duration": 0.07324937500000317
                },
                {
                    "name": "G3",
                    "midi": 55,
                    "time": 51.71405875000055,
                    "velocity": 0.3700787401574803,
                    "duration": 0.07324937500000317
                },
                {
                    "name": "A#3",
                    "midi": 58,
                    "time": 51.71405875000055,
                    "velocity": 0.47244094488188976,
                    "duration": 0.07324937500000317
                },
                {
                    "name": "A2",
                    "midi": 45,
                    "time": 51.86055750000055,
                    "velocity": 0.5433070866141733,
                    "duration": 0.07324937500000317
                },
                {
                    "name": "A3",
                    "midi": 57,
                    "time": 52.00705625000056,
                    "velocity": 0.3543307086614173,
                    "duration": 0.07324937500000317
                },
                {
                    "name": "D4",
                    "midi": 62,
                    "time": 52.00705625000056,
                    "velocity": 0.4566929133858268,
                    "duration": 0.07324937500000317
                },
                {
                    "name": "G3",
                    "midi": 55,
                    "time": 52.00705625000056,
                    "velocity": 0.3543307086614173,
                    "duration": 0.07324937500000317
                },
                {
                    "name": "E3",
                    "midi": 52,
                    "time": 52.00705625000056,
                    "velocity": 0.3543307086614173,
                    "duration": 0.07324937500000317
                },
                {
                    "name": "E3",
                    "midi": 52,
                    "time": 52.153555000000566,
                    "velocity": 0.3858267716535433,
                    "duration": 0.07324937500000317
                },
                {
                    "name": "A3",
                    "midi": 57,
                    "time": 52.153555000000566,
                    "velocity": 0.3858267716535433,
                    "duration": 0.07324937500000317
                },
                {
                    "name": "D4",
                    "midi": 62,
                    "time": 52.153555000000566,
                    "velocity": 0.49606299212598426,
                    "duration": 0.07324937500000317
                },
                {
                    "name": "G3",
                    "midi": 55,
                    "time": 52.153555000000566,
                    "velocity": 0.3858267716535433,
                    "duration": 0.07324937500000317
                },
                {
                    "name": "E3",
                    "midi": 52,
                    "time": 52.30005375000057,
                    "velocity": 0.41732283464566927,
                    "duration": 0.07324937500000317
                },
                {
                    "name": "A3",
                    "midi": 57,
                    "time": 52.30005375000057,
                    "velocity": 0.41732283464566927,
                    "duration": 0.07324937500000317
                },
                {
                    "name": "D4",
                    "midi": 62,
                    "time": 52.30005375000057,
                    "velocity": 0.5275590551181102,
                    "duration": 0.07324937500000317
                },
                {
                    "name": "G3",
                    "midi": 55,
                    "time": 52.30005375000057,
                    "velocity": 0.41732283464566927,
                    "duration": 0.07324937500000317
                },
                {
                    "name": "G3",
                    "midi": 55,
                    "time": 52.44655250000058,
                    "velocity": 0.4251968503937008,
                    "duration": 0.07324937500000317
                },
                {
                    "name": "A3",
                    "midi": 57,
                    "time": 52.44655250000058,
                    "velocity": 0.5354330708661418,
                    "duration": 0.07324937500000317
                },
                {
                    "name": "E3",
                    "midi": 52,
                    "time": 52.44655250000058,
                    "velocity": 0.4251968503937008,
                    "duration": 0.07324937500000317
                },
                {
                    "name": "A3",
                    "midi": 57,
                    "time": 52.593051250000585,
                    "velocity": 0.3543307086614173,
                    "duration": 0.07324937500000317
                },
                {
                    "name": "G3",
                    "midi": 55,
                    "time": 52.593051250000585,
                    "velocity": 0.3543307086614173,
                    "duration": 0.07324937500000317
                },
                {
                    "name": "C#4",
                    "midi": 61,
                    "time": 52.593051250000585,
                    "velocity": 0.3543307086614173,
                    "duration": 0.07324937500000317
                },
                {
                    "name": "E3",
                    "midi": 52,
                    "time": 52.593051250000585,
                    "velocity": 0.3543307086614173,
                    "duration": 0.07324937500000317
                },
                {
                    "name": "E4",
                    "midi": 64,
                    "time": 52.593051250000585,
                    "velocity": 0.44881889763779526,
                    "duration": 0.07324937500000317
                },
                {
                    "name": "D3",
                    "midi": 50,
                    "time": 52.73955000000059,
                    "velocity": 0.5433070866141733,
                    "duration": 0.07324937500000317
                },
                {
                    "name": "A3",
                    "midi": 57,
                    "time": 52.8860487500006,
                    "velocity": 0.3543307086614173,
                    "duration": 0.07324937500000317
                },
                {
                    "name": "D4",
                    "midi": 62,
                    "time": 52.8860487500006,
                    "velocity": 0.4566929133858268,
                    "duration": 0.07324937500000317
                },
                {
                    "name": "F#3",
                    "midi": 54,
                    "time": 52.8860487500006,
                    "velocity": 0.3543307086614173,
                    "duration": 0.07324937500000317
                },
                {
                    "name": "F#3",
                    "midi": 54,
                    "time": 53.032547500000604,
                    "velocity": 0.3858267716535433,
                    "duration": 0.07324937500000317
                },
                {
                    "name": "A3",
                    "midi": 57,
                    "time": 53.032547500000604,
                    "velocity": 0.3858267716535433,
                    "duration": 0.07324937500000317
                },
                {
                    "name": "D4",
                    "midi": 62,
                    "time": 53.032547500000604,
                    "velocity": 0.49606299212598426,
                    "duration": 0.07324937500000317
                },
                {
                    "name": "F#3",
                    "midi": 54,
                    "time": 53.17904625000061,
                    "velocity": 0.41732283464566927,
                    "duration": 0.07324937500000317
                },
                {
                    "name": "A3",
                    "midi": 57,
                    "time": 53.17904625000061,
                    "velocity": 0.41732283464566927,
                    "duration": 0.07324937500000317
                },
                {
                    "name": "D4",
                    "midi": 62,
                    "time": 53.17904625000061,
                    "velocity": 0.5275590551181102,
                    "duration": 0.07324937500000317
                },
                {
                    "name": "A3",
                    "midi": 57,
                    "time": 53.325545000000616,
                    "velocity": 0.4251968503937008,
                    "duration": 0.07324937500000317
                },
                {
                    "name": "D4",
                    "midi": 62,
                    "time": 53.325545000000616,
                    "velocity": 0.5354330708661418,
                    "duration": 0.07324937500000317
                },
                {
                    "name": "F#3",
                    "midi": 54,
                    "time": 53.325545000000616,
                    "velocity": 0.4251968503937008,
                    "duration": 0.07324937500000317
                },
                {
                    "name": "A3",
                    "midi": 57,
                    "time": 53.47204375000062,
                    "velocity": 0.3543307086614173,
                    "duration": 0.07324937500000317
                },
                {
                    "name": "F#3",
                    "midi": 54,
                    "time": 53.47204375000062,
                    "velocity": 0.3543307086614173,
                    "duration": 0.07324937500000317
                },
                {
                    "name": "D4",
                    "midi": 62,
                    "time": 53.47204375000062,
                    "velocity": 0.44881889763779526,
                    "duration": 0.07324937500000317
                },
                {
                    "name": "D3",
                    "midi": 50,
                    "time": 53.61854250000063,
                    "velocity": 0.5433070866141733,
                    "duration": 0.07324937500000317
                },
                {
                    "name": "D4",
                    "midi": 62,
                    "time": 53.765041250000635,
                    "velocity": 0.44881889763779526,
                    "duration": 0.07324937500000317
                },
                {
                    "name": "C4",
                    "midi": 60,
                    "time": 53.765041250000635,
                    "velocity": 0.44881889763779526,
                    "duration": 0.07324937500000317
                },
                {
                    "name": "F#4",
                    "midi": 66,
                    "time": 53.765041250000635,
                    "velocity": 0.44881889763779526,
                    "duration": 0.07324937500000317
                },
                {
                    "name": "A4",
                    "midi": 69,
                    "time": 53.765041250000635,
                    "velocity": 0.5748031496062992,
                    "duration": 0.07324937500000317
                },
                {
                    "name": "A3",
                    "midi": 57,
                    "time": 53.765041250000635,
                    "velocity": 0.44881889763779526,
                    "duration": 0.07324937500000317
                },
                {
                    "name": "C4",
                    "midi": 60,
                    "time": 53.91154000000064,
                    "velocity": 0.5354330708661418,
                    "duration": 0.07324937500000317
                },
                {
                    "name": "A3",
                    "midi": 57,
                    "time": 53.91154000000064,
                    "velocity": 0.4881889763779528,
                    "duration": 0.07324937500000317
                },
                {
                    "name": "D4",
                    "midi": 62,
                    "time": 53.91154000000064,
                    "velocity": 0.6220472440944882,
                    "duration": 0.07324937500000317
                },
                {
                    "name": "C4",
                    "midi": 60,
                    "time": 54.05803875000065,
                    "velocity": 0.5275590551181102,
                    "duration": 0.07324937500000317
                },
                {
                    "name": "D4",
                    "midi": 62,
                    "time": 54.05803875000065,
                    "velocity": 0.5275590551181102,
                    "duration": 0.07324937500000317
                },
                {
                    "name": "F#4",
                    "midi": 66,
                    "time": 54.05803875000065,
                    "velocity": 0.5275590551181102,
                    "duration": 0.07324937500000317
                },
                {
                    "name": "A4",
                    "midi": 69,
                    "time": 54.05803875000065,
                    "velocity": 0.5984251968503937,
                    "duration": 0.07324937500000317
                },
                {
                    "name": "A3",
                    "midi": 57,
                    "time": 54.05803875000065,
                    "velocity": 0.5275590551181102,
                    "duration": 0.07324937500000317
                },
                {
                    "name": "C4",
                    "midi": 60,
                    "time": 54.204537500000654,
                    "velocity": 0.5354330708661418,
                    "duration": 0.07324937500000317
                },
                {
                    "name": "D4",
                    "midi": 62,
                    "time": 54.204537500000654,
                    "velocity": 0.6771653543307087,
                    "duration": 0.07324937500000317
                },
                {
                    "name": "A3",
                    "midi": 57,
                    "time": 54.204537500000654,
                    "velocity": 0.5354330708661418,
                    "duration": 0.07324937500000317
                },
                {
                    "name": "F#4",
                    "midi": 66,
                    "time": 54.35103625000066,
                    "velocity": 0.44881889763779526,
                    "duration": 0.07324937500000317
                },
                {
                    "name": "C4",
                    "midi": 60,
                    "time": 54.35103625000066,
                    "velocity": 0.44881889763779526,
                    "duration": 0.07324937500000317
                },
                {
                    "name": "D4",
                    "midi": 62,
                    "time": 54.35103625000066,
                    "velocity": 0.44881889763779526,
                    "duration": 0.07324937500000317
                },
                {
                    "name": "A3",
                    "midi": 57,
                    "time": 54.35103625000066,
                    "velocity": 0.44881889763779526,
                    "duration": 0.07324937500000317
                },
                {
                    "name": "A4",
                    "midi": 69,
                    "time": 54.35103625000066,
                    "velocity": 0.5669291338582677,
                    "duration": 0.07324937500000317
                },
                {
                    "name": "G3",
                    "midi": 55,
                    "time": 54.49753500000067,
                    "velocity": 0.6850393700787402,
                    "duration": 0.07324937500000317
                },
                {
                    "name": "B3",
                    "midi": 59,
                    "time": 54.64403375000067,
                    "velocity": 0.41732283464566927,
                    "duration": 0.07324937500000317
                },
                {
                    "name": "D4",
                    "midi": 62,
                    "time": 54.64403375000067,
                    "velocity": 0.41732283464566927,
                    "duration": 0.07324937500000317
                },
                {
                    "name": "B3",
                    "midi": 59,
                    "time": 54.79053250000068,
                    "velocity": 0.5433070866141733,
                    "duration": 0.07324937500000317
                },
                {
                    "name": "D4",
                    "midi": 62,
                    "time": 54.79053250000068,
                    "velocity": 0.4251968503937008,
                    "duration": 0.07324937500000317
                },
                {
                    "name": "B3",
                    "midi": 59,
                    "time": 54.937031250000686,
                    "velocity": 0.5275590551181102,
                    "duration": 0.07324937500000317
                },
                {
                    "name": "D4",
                    "midi": 62,
                    "time": 54.937031250000686,
                    "velocity": 0.4251968503937008,
                    "duration": 0.07324937500000317
                },
                {
                    "name": "B3",
                    "midi": 59,
                    "time": 55.08353000000069,
                    "velocity": 0.5039370078740157,
                    "duration": 0.07324937500000317
                },
                {
                    "name": "D4",
                    "midi": 62,
                    "time": 55.08353000000069,
                    "velocity": 0.4015748031496063,
                    "duration": 0.07324937500000317
                },
                {
                    "name": "D4",
                    "midi": 62,
                    "time": 55.2300287500007,
                    "velocity": 0.30708661417322836,
                    "duration": 0.07324937500000317
                },
                {
                    "name": "B3",
                    "midi": 59,
                    "time": 55.2300287500007,
                    "velocity": 0.3937007874015748,
                    "duration": 0.07324937500000317
                },
                {
                    "name": "G2",
                    "midi": 43,
                    "time": 55.376527500000705,
                    "velocity": 0.4330708661417323,
                    "duration": 1.464987500000042
                },
                {
                    "name": "G3",
                    "midi": 55,
                    "time": 55.523026250000704,
                    "velocity": 0.3464566929133858,
                    "duration": 0.07324937500000317
                },
                {
                    "name": "C4",
                    "midi": 60,
                    "time": 55.523026250000704,
                    "velocity": 0.3464566929133858,
                    "duration": 0.07324937500000317
                },
                {
                    "name": "G3",
                    "midi": 55,
                    "time": 55.66952500000071,
                    "velocity": 0.3464566929133858,
                    "duration": 0.07324937500000317
                },
                {
                    "name": "C4",
                    "midi": 60,
                    "time": 55.66952500000071,
                    "velocity": 0.4645669291338583,
                    "duration": 0.07324937500000317
                },
                {
                    "name": "E3",
                    "midi": 52,
                    "time": 55.66952500000071,
                    "velocity": 0.3937007874015748,
                    "duration": 0.2929975000000127
                },
                {
                    "name": "G3",
                    "midi": 55,
                    "time": 55.81602375000072,
                    "velocity": 0.3464566929133858,
                    "duration": 0.07324937500000317
                },
                {
                    "name": "C4",
                    "midi": 60,
                    "time": 55.81602375000072,
                    "velocity": 0.3464566929133858,
                    "duration": 0.07324937500000317
                },
                {
                    "name": "D#3",
                    "midi": 51,
                    "time": 55.96252250000072,
                    "velocity": 0.4251968503937008,
                    "duration": 0.2929975000000056
                },
                {
                    "name": "G3",
                    "midi": 55,
                    "time": 56.10902125000072,
                    "velocity": 0.3464566929133858,
                    "duration": 0.07324937500000317
                },
                {
                    "name": "C4",
                    "midi": 60,
                    "time": 56.10902125000072,
                    "velocity": 0.3464566929133858,
                    "duration": 0.07324937500000317
                },
                {
                    "name": "G3",
                    "midi": 55,
                    "time": 56.40201875000073,
                    "velocity": 0.3464566929133858,
                    "duration": 0.07324937500000317
                },
                {
                    "name": "B3",
                    "midi": 59,
                    "time": 56.40201875000073,
                    "velocity": 0.3464566929133858,
                    "duration": 0.07324937500000317
                },
                {
                    "name": "G3",
                    "midi": 55,
                    "time": 56.548517500000735,
                    "velocity": 0.3464566929133858,
                    "duration": 0.07324937500000317
                },
                {
                    "name": "B3",
                    "midi": 59,
                    "time": 56.548517500000735,
                    "velocity": 0.4645669291338583,
                    "duration": 0.07324937500000317
                },
                {
                    "name": "G3",
                    "midi": 55,
                    "time": 56.69501625000074,
                    "velocity": 0.3464566929133858,
                    "duration": 0.07324937500000317
                },
                {
                    "name": "B3",
                    "midi": 59,
                    "time": 56.69501625000074,
                    "velocity": 0.3464566929133858,
                    "duration": 0.07324937500000317
                },
                {
                    "name": "G3",
                    "midi": 55,
                    "time": 56.988013750000746,
                    "velocity": 0.29133858267716534,
                    "duration": 0.07324937500000317
                },
                {
                    "name": "B3",
                    "midi": 59,
                    "time": 56.988013750000746,
                    "velocity": 0.29133858267716534,
                    "duration": 0.07324937500000317
                },
                {
                    "name": "G2",
                    "midi": 43,
                    "time": 57.13451250000075,
                    "velocity": 0.36220472440944884,
                    "duration": 1.464987500000042
                },
                {
                    "name": "G3",
                    "midi": 55,
                    "time": 57.28101125000075,
                    "velocity": 0.29133858267716534,
                    "duration": 0.07324937500000317
                },
                {
                    "name": "C4",
                    "midi": 60,
                    "time": 57.28101125000075,
                    "velocity": 0.29133858267716534,
                    "duration": 0.07324937500000317
                },
                {
                    "name": "G3",
                    "midi": 55,
                    "time": 57.42751000000076,
                    "velocity": 0.29133858267716534,
                    "duration": 0.07324937500000317
                },
                {
                    "name": "C4",
                    "midi": 60,
                    "time": 57.42751000000076,
                    "velocity": 0.3937007874015748,
                    "duration": 0.07324937500000317
                },
                {
                    "name": "E3",
                    "midi": 52,
                    "time": 57.42751000000076,
                    "velocity": 0.33070866141732286,
                    "duration": 0.2929975000000127
                },
                {
                    "name": "G3",
                    "midi": 55,
                    "time": 57.574008750000765,
                    "velocity": 0.29133858267716534,
                    "duration": 0.07324937500000317
                },
                {
                    "name": "C4",
                    "midi": 60,
                    "time": 57.574008750000765,
                    "velocity": 0.29133858267716534,
                    "duration": 0.07324937500000317
                },
                {
                    "name": "D#3",
                    "midi": 51,
                    "time": 57.72050750000077,
                    "velocity": 0.3543307086614173,
                    "duration": 0.2929975000000056
                },
                {
                    "name": "G3",
                    "midi": 55,
                    "time": 57.86700625000077,
                    "velocity": 0.29133858267716534,
                    "duration": 0.07324937500000317
                },
                {
                    "name": "C4",
                    "midi": 60,
                    "time": 57.86700625000077,
                    "velocity": 0.29133858267716534,
                    "duration": 0.07324937500000317
                },
                {
                    "name": "D3",
                    "midi": 50,
                    "time": 58.01350500000078,
                    "velocity": 0.3543307086614173,
                    "duration": 0.5859950000000183
                },
                {
                    "name": "G3",
                    "midi": 55,
                    "time": 58.160003750000776,
                    "velocity": 0.2440944881889764,
                    "duration": 0.07324937500000317
                },
                {
                    "name": "B3",
                    "midi": 59,
                    "time": 58.160003750000776,
                    "velocity": 0.29133858267716534,
                    "duration": 0.07324937500000317
                },
                {
                    "name": "G3",
                    "midi": 55,
                    "time": 58.30650250000078,
                    "velocity": 0.25196850393700787,
                    "duration": 0.07324937500000317
                },
                {
                    "name": "B3",
                    "midi": 59,
                    "time": 58.30650250000078,
                    "velocity": 0.4015748031496063,
                    "duration": 0.07324937500000317
                },
                {
                    "name": "G3",
                    "midi": 55,
                    "time": 58.45300125000079,
                    "velocity": 0.25984251968503935,
                    "duration": 0.07324937500000317
                },
                {
                    "name": "B3",
                    "midi": 59,
                    "time": 58.45300125000079,
                    "velocity": 0.30708661417322836,
                    "duration": 0.07324937500000317
                },
                {
                    "name": "G3",
                    "midi": 55,
                    "time": 58.745998750000794,
                    "velocity": 0.2677165354330709,
                    "duration": 0.07324937500000317
                },
                {
                    "name": "B3",
                    "midi": 59,
                    "time": 58.745998750000794,
                    "velocity": 0.3228346456692913,
                    "duration": 0.07324937500000317
                },
                {
                    "name": "G3",
                    "midi": 55,
                    "time": 59.0389962500008,
                    "velocity": 0.2440944881889764,
                    "duration": 0.07324937500000317
                },
                {
                    "name": "B3",
                    "midi": 59,
                    "time": 59.0389962500008,
                    "velocity": 0.29133858267716534,
                    "duration": 0.07324937500000317
                },
                {
                    "name": "G1",
                    "midi": 31,
                    "time": 59.185495000000806,
                    "velocity": 0.33858267716535434,
                    "duration": 0.2929975000000127
                },
                {
                    "name": "G2",
                    "midi": 43,
                    "time": 59.185495000000806,
                    "velocity": 0.36220472440944884,
                    "duration": 0.2929975000000127
                },
                {
                    "name": "G3",
                    "midi": 55,
                    "time": 59.185495000000806,
                    "velocity": 0.25196850393700787,
                    "duration": 0.07324937500000317
                },
                {
                    "name": "B3",
                    "midi": 59,
                    "time": 59.185495000000806,
                    "velocity": 0.4015748031496063,
                    "duration": 0.07324937500000317
                },
                {
                    "name": "G3",
                    "midi": 55,
                    "time": 59.33199375000081,
                    "velocity": 0.25984251968503935,
                    "duration": 0.07324937500000317
                },
                {
                    "name": "B3",
                    "midi": 59,
                    "time": 59.33199375000081,
                    "velocity": 0.30708661417322836,
                    "duration": 0.07324937500000317
                },
                {
                    "name": "G3",
                    "midi": 55,
                    "time": 59.62499125000082,
                    "velocity": 0.2677165354330709,
                    "duration": 0.07324937500000317
                },
                {
                    "name": "B3",
                    "midi": 59,
                    "time": 59.62499125000082,
                    "velocity": 0.3228346456692913,
                    "duration": 0.07324937500000317
                },
                {
                    "name": "B3",
                    "midi": 59,
                    "time": 59.91798875000082,
                    "velocity": 0.2677165354330709,
                    "duration": 0.07324937500000317
                },
                {
                    "name": "D4",
                    "midi": 62,
                    "time": 59.91798875000082,
                    "velocity": 0.3228346456692913,
                    "duration": 0.07324937500000317
                },
                {
                    "name": "G#1",
                    "midi": 32,
                    "time": 60.06448750000083,
                    "velocity": 0.3858267716535433,
                    "duration": 0.2929975000000127
                },
                {
                    "name": "G#2",
                    "midi": 44,
                    "time": 60.06448750000083,
                    "velocity": 0.4094488188976378,
                    "duration": 0.2929975000000127
                },
                {
                    "name": "B3",
                    "midi": 59,
                    "time": 60.06448750000083,
                    "velocity": 0.28346456692913385,
                    "duration": 0.07324937500000317
                },
                {
                    "name": "D4",
                    "midi": 62,
                    "time": 60.06448750000083,
                    "velocity": 0.4566929133858268,
                    "duration": 0.07324937500000317
                },
                {
                    "name": "B3",
                    "midi": 59,
                    "time": 60.210986250000836,
                    "velocity": 0.2992125984251969,
                    "duration": 0.07324937500000317
                },
                {
                    "name": "D4",
                    "midi": 62,
                    "time": 60.210986250000836,
                    "velocity": 0.3543307086614173,
                    "duration": 0.07324937500000317
                },
                {
                    "name": "B3",
                    "midi": 59,
                    "time": 60.50398375000084,
                    "velocity": 0.3228346456692913,
                    "duration": 0.07324937500000317
                },
                {
                    "name": "D4",
                    "midi": 62,
                    "time": 60.50398375000084,
                    "velocity": 0.3937007874015748,
                    "duration": 0.07324937500000317
                },
                {
                    "name": "B3",
                    "midi": 59,
                    "time": 60.79698125000085,
                    "velocity": 0.30708661417322836,
                    "duration": 0.07324937500000317
                },
                {
                    "name": "D4",
                    "midi": 62,
                    "time": 60.79698125000085,
                    "velocity": 0.36220472440944884,
                    "duration": 0.07324937500000317
                },
                {
                    "name": "E3",
                    "midi": 52,
                    "time": 60.943480000000854,
                    "velocity": 0.4645669291338583,
                    "duration": 0.2929975000000056
                },
                {
                    "name": "E2",
                    "midi": 40,
                    "time": 60.943480000000854,
                    "velocity": 0.4330708661417323,
                    "duration": 0.2929975000000056
                },
                {
                    "name": "B3",
                    "midi": 59,
                    "time": 61.08997875000085,
                    "velocity": 0.33858267716535434,
                    "duration": 0.07324937500000317
                },
                {
                    "name": "D4",
                    "midi": 62,
                    "time": 61.08997875000085,
                    "velocity": 0.4015748031496063,
                    "duration": 0.07324937500000317
                },
                {
                    "name": "B3",
                    "midi": 59,
                    "time": 61.38297625000086,
                    "velocity": 0.36220472440944884,
                    "duration": 0.07324937500000317
                },
                {
                    "name": "D4",
                    "midi": 62,
                    "time": 61.38297625000086,
                    "velocity": 0.4409448818897638,
                    "duration": 0.07324937500000317
                },
                {
                    "name": "A3",
                    "midi": 57,
                    "time": 61.675973750000864,
                    "velocity": 0.33858267716535434,
                    "duration": 0.07324937500000317
                },
                {
                    "name": "C#4",
                    "midi": 61,
                    "time": 61.675973750000864,
                    "velocity": 0.4015748031496063,
                    "duration": 0.07324937500000317
                },
                {
                    "name": "A1",
                    "midi": 33,
                    "time": 61.82247250000087,
                    "velocity": 0.47244094488188976,
                    "duration": 0.2929975000000127
                },
                {
                    "name": "A2",
                    "midi": 45,
                    "time": 61.82247250000087,
                    "velocity": 0.5039370078740157,
                    "duration": 0.2929975000000127
                },
                {
                    "name": "A3",
                    "midi": 57,
                    "time": 61.82247250000087,
                    "velocity": 0.3464566929133858,
                    "duration": 0.07324937500000317
                },
                {
                    "name": "C#4",
                    "midi": 61,
                    "time": 61.82247250000087,
                    "velocity": 0.5590551181102362,
                    "duration": 0.07324937500000317
                },
                {
                    "name": "A3",
                    "midi": 57,
                    "time": 61.96897125000088,
                    "velocity": 0.36220472440944884,
                    "duration": 0.07324937500000317
                },
                {
                    "name": "C#4",
                    "midi": 61,
                    "time": 61.96897125000088,
                    "velocity": 0.4251968503937008,
                    "duration": 0.07324937500000317
                },
                {
                    "name": "A3",
                    "midi": 57,
                    "time": 62.26196875000088,
                    "velocity": 0.2677165354330709,
                    "duration": 0.07324937500000317
                },
                {
                    "name": "C#4",
                    "midi": 61,
                    "time": 62.26196875000088,
                    "velocity": 0.3228346456692913,
                    "duration": 0.07324937500000317
                },
                {
                    "name": "A3",
                    "midi": 57,
                    "time": 62.55496625000089,
                    "velocity": 0.25984251968503935,
                    "duration": 0.07324937500000317
                },
                {
                    "name": "C#4",
                    "midi": 61,
                    "time": 62.55496625000089,
                    "velocity": 0.30708661417322836,
                    "duration": 0.07324937500000317
                },
                {
                    "name": "A1",
                    "midi": 33,
                    "time": 62.701465000000894,
                    "velocity": 0.3700787401574803,
                    "duration": 0.2929975000000127
                },
                {
                    "name": "A2",
                    "midi": 45,
                    "time": 62.701465000000894,
                    "velocity": 0.4015748031496063,
                    "duration": 0.2929975000000127
                },
                {
                    "name": "A3",
                    "midi": 57,
                    "time": 62.701465000000894,
                    "velocity": 0.2755905511811024,
                    "duration": 0.07324937500000317
                },
                {
                    "name": "C#4",
                    "midi": 61,
                    "time": 62.701465000000894,
                    "velocity": 0.4409448818897638,
                    "duration": 0.07324937500000317
                },
                {
                    "name": "A3",
                    "midi": 57,
                    "time": 62.8479637500009,
                    "velocity": 0.29133858267716534,
                    "duration": 0.07324937500000317
                },
                {
                    "name": "C#4",
                    "midi": 61,
                    "time": 62.8479637500009,
                    "velocity": 0.3464566929133858,
                    "duration": 0.07324937500000317
                },
                {
                    "name": "A3",
                    "midi": 57,
                    "time": 63.140961250000906,
                    "velocity": 0.31496062992125984,
                    "duration": 0.07324937500000317
                },
                {
                    "name": "C#4",
                    "midi": 61,
                    "time": 63.140961250000906,
                    "velocity": 0.3858267716535433,
                    "duration": 0.07324937500000317
                },
                {
                    "name": "C#4",
                    "midi": 61,
                    "time": 63.43395875000091,
                    "velocity": 0.2992125984251969,
                    "duration": 0.07324937500000317
                },
                {
                    "name": "E4",
                    "midi": 64,
                    "time": 63.43395875000091,
                    "velocity": 0.36220472440944884,
                    "duration": 0.07324937500000317
                },
                {
                    "name": "A#1",
                    "midi": 34,
                    "time": 63.58045750000092,
                    "velocity": 0.4330708661417323,
                    "duration": 0.2929975000000127
                },
                {
                    "name": "A#2",
                    "midi": 46,
                    "time": 63.58045750000092,
                    "velocity": 0.4566929133858268,
                    "duration": 0.2929975000000127
                },
                {
                    "name": "C#4",
                    "midi": 61,
                    "time": 63.58045750000092,
                    "velocity": 0.31496062992125984,
                    "duration": 0.07324937500000317
                },
                {
                    "name": "E4",
                    "midi": 64,
                    "time": 63.58045750000092,
                    "velocity": 0.5118110236220472,
                    "duration": 0.07324937500000317
                },
                {
                    "name": "C#4",
                    "midi": 61,
                    "time": 63.726956250000924,
                    "velocity": 0.33858267716535434,
                    "duration": 0.07324937500000317
                },
                {
                    "name": "E4",
                    "midi": 64,
                    "time": 63.726956250000924,
                    "velocity": 0.4015748031496063,
                    "duration": 0.07324937500000317
                },
                {
                    "name": "C#4",
                    "midi": 61,
                    "time": 64.01995375000094,
                    "velocity": 0.36220472440944884,
                    "duration": 0.07324937500000317
                },
                {
                    "name": "E4",
                    "midi": 64,
                    "time": 64.01995375000094,
                    "velocity": 0.4409448818897638,
                    "duration": 0.07324937500000317
                },
                {
                    "name": "C#4",
                    "midi": 61,
                    "time": 64.31295125000094,
                    "velocity": 0.3228346456692913,
                    "duration": 0.07324937500000317
                },
                {
                    "name": "E4",
                    "midi": 64,
                    "time": 64.31295125000094,
                    "velocity": 0.3858267716535433,
                    "duration": 0.07324937500000317
                },
                {
                    "name": "F#3",
                    "midi": 54,
                    "time": 64.45945000000094,
                    "velocity": 0.4881889763779528,
                    "duration": 0.2929975000000127
                },
                {
                    "name": "F#2",
                    "midi": 42,
                    "time": 64.45945000000094,
                    "velocity": 0.4566929133858268,
                    "duration": 0.2929975000000127
                },
                {
                    "name": "C#4",
                    "midi": 61,
                    "time": 64.60594875000095,
                    "velocity": 0.3464566929133858,
                    "duration": 0.07324937500000317
                },
                {
                    "name": "E4",
                    "midi": 64,
                    "time": 64.60594875000095,
                    "velocity": 0.4094488188976378,
                    "duration": 0.07324937500000317
                },
                {
                    "name": "C#4",
                    "midi": 61,
                    "time": 64.89894625000096,
                    "velocity": 0.3543307086614173,
                    "duration": 0.07324937500000317
                },
                {
                    "name": "E4",
                    "midi": 64,
                    "time": 64.89894625000096,
                    "velocity": 0.4330708661417323,
                    "duration": 0.07324937500000317
                },
                {
                    "name": "B3",
                    "midi": 59,
                    "time": 65.19194375000096,
                    "velocity": 0.3228346456692913,
                    "duration": 0.07324937500000317
                },
                {
                    "name": "D#4",
                    "midi": 63,
                    "time": 65.19194375000096,
                    "velocity": 0.3858267716535433,
                    "duration": 0.07324937500000317
                },
                {
                    "name": "B1",
                    "midi": 35,
                    "time": 65.33844250000097,
                    "velocity": 0.4566929133858268,
                    "duration": 0.2929975000000127
                },
                {
                    "name": "B2",
                    "midi": 47,
                    "time": 65.33844250000097,
                    "velocity": 0.4881889763779528,
                    "duration": 0.2929975000000127
                },
                {
                    "name": "B3",
                    "midi": 59,
                    "time": 65.33844250000097,
                    "velocity": 0.33858267716535434,
                    "duration": 0.07324937500000317
                },
                {
                    "name": "D#4",
                    "midi": 63,
                    "time": 65.33844250000097,
                    "velocity": 0.5354330708661418,
                    "duration": 0.07324937500000317
                },
                {
                    "name": "B3",
                    "midi": 59,
                    "time": 65.48494125000097,
                    "velocity": 0.3464566929133858,
                    "duration": 0.07324937500000317
                },
                {
                    "name": "D#4",
                    "midi": 63,
                    "time": 65.48494125000097,
                    "velocity": 0.4094488188976378,
                    "duration": 0.07324937500000317
                },
                {
                    "name": "B2",
                    "midi": 47,
                    "time": 65.63144000000098,
                    "velocity": 0.4566929133858268,
                    "duration": 0.2929975000000127
                },
                {
                    "name": "B3",
                    "midi": 59,
                    "time": 65.77793875000098,
                    "velocity": 0.3543307086614173,
                    "duration": 0.07324937500000317
                },
                {
                    "name": "D#4",
                    "midi": 63,
                    "time": 65.77793875000098,
                    "velocity": 0.3543307086614173,
                    "duration": 0.07324937500000317
                },
                {
                    "name": "F#4",
                    "midi": 66,
                    "time": 65.77793875000098,
                    "velocity": 0.4330708661417323,
                    "duration": 0.07324937500000317
                },
                {
                    "name": "B2",
                    "midi": 47,
                    "time": 65.92443750000099,
                    "velocity": 0.4881889763779528,
                    "duration": 0.2929975000000127
                },
                {
                    "name": "F#4",
                    "midi": 66,
                    "time": 66.070936250001,
                    "velocity": 0.33858267716535434,
                    "duration": 0.07324937500000317
                },
                {
                    "name": "A4",
                    "midi": 69,
                    "time": 66.070936250001,
                    "velocity": 0.5354330708661418,
                    "duration": 0.07324937500000317
                },
                {
                    "name": "C#3",
                    "midi": 49,
                    "time": 66.217435000001,
                    "velocity": 0.5354330708661418,
                    "duration": 0.07324937500000317
                },
                {
                    "name": "F#4",
                    "midi": 66,
                    "time": 66.217435000001,
                    "velocity": 0.2677165354330709,
                    "duration": 0.07324937500000317
                },
                {
                    "name": "A4",
                    "midi": 69,
                    "time": 66.217435000001,
                    "velocity": 0.4251968503937008,
                    "duration": 0.07324937500000317
                },
                {
                    "name": "D#3",
                    "midi": 51,
                    "time": 66.36393375000101,
                    "velocity": 0.5748031496062992,
                    "duration": 0.07324937500000317
                },
                {
                    "name": "F#4",
                    "midi": 66,
                    "time": 66.36393375000101,
                    "velocity": 0.2755905511811024,
                    "duration": 0.07324937500000317
                },
                {
                    "name": "A4",
                    "midi": 69,
                    "time": 66.36393375000101,
                    "velocity": 0.3228346456692913,
                    "duration": 0.07324937500000317
                },
                {
                    "name": "E3",
                    "midi": 52,
                    "time": 66.51043250000102,
                    "velocity": 0.5669291338582677,
                    "duration": 0.07324937500000317
                },
                {
                    "name": "F#3",
                    "midi": 54,
                    "time": 66.65693125000102,
                    "velocity": 0.5984251968503937,
                    "duration": 0.07324937500000317
                },
                {
                    "name": "F#4",
                    "midi": 66,
                    "time": 66.65693125000102,
                    "velocity": 0.5984251968503937,
                    "duration": 0.07324937500000317
                },
                {
                    "name": "A4",
                    "midi": 69,
                    "time": 66.65693125000102,
                    "velocity": 0.5984251968503937,
                    "duration": 0.07324937500000317
                },
                {
                    "name": "G3",
                    "midi": 55,
                    "time": 66.80343000000103,
                    "velocity": 0.6614173228346457,
                    "duration": 0.878992500000038
                },
                {
                    "name": "B3",
                    "midi": 59,
                    "time": 66.94992875000104,
                    "velocity": 0.4645669291338583,
                    "duration": 0.07324937500000317
                },
                {
                    "name": "G4",
                    "midi": 67,
                    "time": 66.94992875000104,
                    "velocity": 0.5511811023622047,
                    "duration": 0.07324937500000317
                },
                {
                    "name": "E4",
                    "midi": 64,
                    "time": 66.94992875000104,
                    "velocity": 0.4645669291338583,
                    "duration": 0.07324937500000317
                },
                {
                    "name": "E4",
                    "midi": 64,
                    "time": 67.09642750000104,
                    "velocity": 0.4409448818897638,
                    "duration": 0.07324937500000317
                },
                {
                    "name": "G4",
                    "midi": 67,
                    "time": 67.09642750000104,
                    "velocity": 0.5196850393700787,
                    "duration": 0.07324937500000317
                },
                {
                    "name": "B3",
                    "midi": 59,
                    "time": 67.09642750000104,
                    "velocity": 0.4409448818897638,
                    "duration": 0.07324937500000317
                },
                {
                    "name": "E4",
                    "midi": 64,
                    "time": 67.24292625000105,
                    "velocity": 0.44881889763779526,
                    "duration": 0.07324937500000317
                },
                {
                    "name": "G4",
                    "midi": 67,
                    "time": 67.24292625000105,
                    "velocity": 0.5354330708661418,
                    "duration": 0.07324937500000317
                },
                {
                    "name": "B3",
                    "midi": 59,
                    "time": 67.24292625000105,
                    "velocity": 0.44881889763779526,
                    "duration": 0.07324937500000317
                },
                {
                    "name": "E4",
                    "midi": 64,
                    "time": 67.38942500000105,
                    "velocity": 0.4645669291338583,
                    "duration": 0.07324937500000317
                },
                {
                    "name": "G4",
                    "midi": 67,
                    "time": 67.38942500000105,
                    "velocity": 0.5511811023622047,
                    "duration": 0.07324937500000317
                },
                {
                    "name": "B3",
                    "midi": 59,
                    "time": 67.38942500000105,
                    "velocity": 0.4645669291338583,
                    "duration": 0.07324937500000317
                },
                {
                    "name": "E4",
                    "midi": 64,
                    "time": 67.53592375000106,
                    "velocity": 0.48031496062992124,
                    "duration": 0.07324937500000317
                },
                {
                    "name": "G4",
                    "midi": 67,
                    "time": 67.53592375000106,
                    "velocity": 0.5669291338582677,
                    "duration": 0.07324937500000317
                },
                {
                    "name": "B3",
                    "midi": 59,
                    "time": 67.53592375000106,
                    "velocity": 0.48031496062992124,
                    "duration": 0.07324937500000317
                },
                {
                    "name": "B2",
                    "midi": 47,
                    "time": 67.68242250000107,
                    "velocity": 0.5669291338582677,
                    "duration": 0.14649875000000634
                },
                {
                    "name": "G3",
                    "midi": 55,
                    "time": 67.82892125000107,
                    "velocity": 0.4645669291338583,
                    "duration": 0.10987406249999765
                },
                {
                    "name": "D4",
                    "midi": 62,
                    "time": 67.82892125000107,
                    "velocity": 0.4645669291338583,
                    "duration": 0.10987406249999765
                },
                {
                    "name": "F4",
                    "midi": 65,
                    "time": 67.82892125000107,
                    "velocity": 0.5511811023622047,
                    "duration": 0.10987406249999765
                },
                {
                    "name": "F4",
                    "midi": 65,
                    "time": 67.97542000000107,
                    "velocity": 0.5511811023622047,
                    "duration": 0.10987406249999765
                },
                {
                    "name": "D4",
                    "midi": 62,
                    "time": 67.97542000000107,
                    "velocity": 0.4645669291338583,
                    "duration": 0.10987406249999765
                },
                {
                    "name": "G3",
                    "midi": 55,
                    "time": 67.97542000000107,
                    "velocity": 0.4645669291338583,
                    "duration": 0.10987406249999765
                },
                {
                    "name": "G3",
                    "midi": 55,
                    "time": 68.12191875000106,
                    "velocity": 0.4645669291338583,
                    "duration": 0.10987406249999765
                },
                {
                    "name": "D4",
                    "midi": 62,
                    "time": 68.12191875000106,
                    "velocity": 0.4645669291338583,
                    "duration": 0.10987406249999765
                },
                {
                    "name": "F4",
                    "midi": 65,
                    "time": 68.12191875000106,
                    "velocity": 0.5511811023622047,
                    "duration": 0.10987406249999765
                },
                {
                    "name": "G3",
                    "midi": 55,
                    "time": 68.26841750000105,
                    "velocity": 0.4645669291338583,
                    "duration": 0.10987406249999765
                },
                {
                    "name": "D4",
                    "midi": 62,
                    "time": 68.26841750000105,
                    "velocity": 0.4645669291338583,
                    "duration": 0.10987406249999765
                },
                {
                    "name": "F4",
                    "midi": 65,
                    "time": 68.26841750000105,
                    "velocity": 0.5511811023622047,
                    "duration": 0.10987406249999765
                },
                {
                    "name": "G3",
                    "midi": 55,
                    "time": 68.41491625000104,
                    "velocity": 0.4645669291338583,
                    "duration": 0.10987406249999765
                },
                {
                    "name": "D4",
                    "midi": 62,
                    "time": 68.41491625000104,
                    "velocity": 0.4645669291338583,
                    "duration": 0.10987406249999765
                },
                {
                    "name": "F4",
                    "midi": 65,
                    "time": 68.41491625000104,
                    "velocity": 0.5511811023622047,
                    "duration": 0.10987406249999765
                },
                {
                    "name": "C3",
                    "midi": 48,
                    "time": 68.56141500000103,
                    "velocity": 0.5669291338582677,
                    "duration": 0.14649875000000634
                },
                {
                    "name": "G3",
                    "midi": 55,
                    "time": 68.70791375000104,
                    "velocity": 0.4645669291338583,
                    "duration": 0.10987406249999765
                },
                {
                    "name": "C4",
                    "midi": 60,
                    "time": 68.70791375000104,
                    "velocity": 0.4645669291338583,
                    "duration": 0.10987406249999765
                },
                {
                    "name": "E4",
                    "midi": 64,
                    "time": 68.70791375000104,
                    "velocity": 0.5511811023622047,
                    "duration": 0.10987406249999765
                },
                {
                    "name": "E4",
                    "midi": 64,
                    "time": 68.85441250000103,
                    "velocity": 0.5511811023622047,
                    "duration": 0.10987406249999765
                },
                {
                    "name": "C4",
                    "midi": 60,
                    "time": 68.85441250000103,
                    "velocity": 0.4645669291338583,
                    "duration": 0.10987406249999765
                },
                {
                    "name": "G3",
                    "midi": 55,
                    "time": 68.85441250000103,
                    "velocity": 0.4645669291338583,
                    "duration": 0.10987406249999765
                },
                {
                    "name": "C4",
                    "midi": 60,
                    "time": 69.00091125000102,
                    "velocity": 0.3464566929133858,
                    "duration": 0.07324937500000317
                },
                {
                    "name": "E4",
                    "midi": 64,
                    "time": 69.00091125000102,
                    "velocity": 0.4094488188976378,
                    "duration": 0.07324937500000317
                },
                {
                    "name": "C4",
                    "midi": 60,
                    "time": 69.14741000000103,
                    "velocity": 0.4645669291338583,
                    "duration": 0.07324937500000317
                },
                {
                    "name": "E4",
                    "midi": 64,
                    "time": 69.14741000000103,
                    "velocity": 0.5511811023622047,
                    "duration": 0.07324937500000317
                },
                {
                    "name": "G2",
                    "midi": 43,
                    "time": 69.14741000000103,
                    "velocity": 0.4566929133858268,
                    "duration": 0.2929975000000127
                },
                {
                    "name": "C4",
                    "midi": 60,
                    "time": 69.29390875000104,
                    "velocity": 0.3543307086614173,
                    "duration": 0.07324937500000317
                },
                {
                    "name": "E4",
                    "midi": 64,
                    "time": 69.29390875000104,
                    "velocity": 0.4330708661417323,
                    "duration": 0.07324937500000317
                },
                {
                    "name": "G2",
                    "midi": 43,
                    "time": 69.44040750000104,
                    "velocity": 0.4881889763779528,
                    "duration": 0.2929975000000127
                },
                {
                    "name": "D4",
                    "midi": 62,
                    "time": 69.58690625000105,
                    "velocity": 0.33858267716535434,
                    "duration": 0.07324937500000317
                },
                {
                    "name": "F4",
                    "midi": 65,
                    "time": 69.58690625000105,
                    "velocity": 0.5354330708661418,
                    "duration": 0.07324937500000317
                },
                {
                    "name": "A2",
                    "midi": 45,
                    "time": 69.73340500000106,
                    "velocity": 0.5354330708661418,
                    "duration": 0.07324937500000317
                },
                {
                    "name": "D4",
                    "midi": 62,
                    "time": 69.73340500000106,
                    "velocity": 0.2677165354330709,
                    "duration": 0.07324937500000317
                },
                {
                    "name": "F4",
                    "midi": 65,
                    "time": 69.73340500000106,
                    "velocity": 0.4251968503937008,
                    "duration": 0.07324937500000317
                },
                {
                    "name": "B2",
                    "midi": 47,
                    "time": 69.87990375000106,
                    "velocity": 0.5748031496062992,
                    "duration": 0.07324937500000317
                },
                {
                    "name": "D4",
                    "midi": 62,
                    "time": 69.87990375000106,
                    "velocity": 0.2755905511811024,
                    "duration": 0.07324937500000317
                },
                {
                    "name": "F4",
                    "midi": 65,
                    "time": 69.87990375000106,
                    "velocity": 0.3228346456692913,
                    "duration": 0.07324937500000317
                },
                {
                    "name": "C3",
                    "midi": 48,
                    "time": 70.02640250000107,
                    "velocity": 0.5984251968503937,
                    "duration": 0.07324937500000317
                },
                {
                    "name": "D3",
                    "midi": 50,
                    "time": 70.17290125000108,
                    "velocity": 0.6141732283464567,
                    "duration": 0.07324937500000317
                },
                {
                    "name": "D4",
                    "midi": 62,
                    "time": 70.17290125000108,
                    "velocity": 0.6141732283464567,
                    "duration": 0.07324937500000317
                },
                {
                    "name": "F4",
                    "midi": 65,
                    "time": 70.17290125000108,
                    "velocity": 0.6141732283464567,
                    "duration": 0.07324937500000317
                },
                {
                    "name": "E3",
                    "midi": 52,
                    "time": 70.31940000000108,
                    "velocity": 0.6614173228346457,
                    "duration": 0.878992500000038
                },
                {
                    "name": "G3",
                    "midi": 55,
                    "time": 70.46589875000109,
                    "velocity": 0.4645669291338583,
                    "duration": 0.07324937500000317
                },
                {
                    "name": "E4",
                    "midi": 64,
                    "time": 70.46589875000109,
                    "velocity": 0.5511811023622047,
                    "duration": 0.07324937500000317
                },
                {
                    "name": "C4",
                    "midi": 60,
                    "time": 70.46589875000109,
                    "velocity": 0.4645669291338583,
                    "duration": 0.07324937500000317
                },
                {
                    "name": "C4",
                    "midi": 60,
                    "time": 70.6123975000011,
                    "velocity": 0.4409448818897638,
                    "duration": 0.07324937500000317
                },
                {
                    "name": "E4",
                    "midi": 64,
                    "time": 70.6123975000011,
                    "velocity": 0.5196850393700787,
                    "duration": 0.07324937500000317
                },
                {
                    "name": "G3",
                    "midi": 55,
                    "time": 70.6123975000011,
                    "velocity": 0.4409448818897638,
                    "duration": 0.07324937500000317
                },
                {
                    "name": "C4",
                    "midi": 60,
                    "time": 70.7588962500011,
                    "velocity": 0.44881889763779526,
                    "duration": 0.07324937500000317
                },
                {
                    "name": "E4",
                    "midi": 64,
                    "time": 70.7588962500011,
                    "velocity": 0.5354330708661418,
                    "duration": 0.07324937500000317
                },
                {
                    "name": "G3",
                    "midi": 55,
                    "time": 70.7588962500011,
                    "velocity": 0.44881889763779526,
                    "duration": 0.07324937500000317
                },
                {
                    "name": "C4",
                    "midi": 60,
                    "time": 70.9053950000011,
                    "velocity": 0.4645669291338583,
                    "duration": 0.07324937500000317
                },
                {
                    "name": "E4",
                    "midi": 64,
                    "time": 70.9053950000011,
                    "velocity": 0.5511811023622047,
                    "duration": 0.07324937500000317
                },
                {
                    "name": "G3",
                    "midi": 55,
                    "time": 70.9053950000011,
                    "velocity": 0.4645669291338583,
                    "duration": 0.07324937500000317
                },
                {
                    "name": "C4",
                    "midi": 60,
                    "time": 71.05189375000111,
                    "velocity": 0.48031496062992124,
                    "duration": 0.07324937500000317
                },
                {
                    "name": "E4",
                    "midi": 64,
                    "time": 71.05189375000111,
                    "velocity": 0.5669291338582677,
                    "duration": 0.07324937500000317
                },
                {
                    "name": "G3",
                    "midi": 55,
                    "time": 71.05189375000111,
                    "velocity": 0.48031496062992124,
                    "duration": 0.07324937500000317
                },
                {
                    "name": "G#2",
                    "midi": 44,
                    "time": 71.19839250000112,
                    "velocity": 0.5669291338582677,
                    "duration": 0.14649875000000634
                },
                {
                    "name": "E3",
                    "midi": 52,
                    "time": 71.34489125000113,
                    "velocity": 0.41732283464566927,
                    "duration": 0.10987406249999765
                },
                {
                    "name": "B3",
                    "midi": 59,
                    "time": 71.34489125000113,
                    "velocity": 0.41732283464566927,
                    "duration": 0.10987406249999765
                },
                {
                    "name": "D4",
                    "midi": 62,
                    "time": 71.34489125000113,
                    "velocity": 0.49606299212598426,
                    "duration": 0.10987406249999765
                },
                {
                    "name": "D4",
                    "midi": 62,
                    "time": 71.49139000000112,
                    "velocity": 0.5511811023622047,
                    "duration": 0.10987406249999765
                },
                {
                    "name": "B3",
                    "midi": 59,
                    "time": 71.49139000000112,
                    "velocity": 0.4645669291338583,
                    "duration": 0.10987406249999765
                },
                {
                    "name": "E3",
                    "midi": 52,
                    "time": 71.49139000000112,
                    "velocity": 0.4645669291338583,
                    "duration": 0.10987406249999765
                },
                {
                    "name": "E3",
                    "midi": 52,
                    "time": 71.63788875000111,
                    "velocity": 0.41732283464566927,
                    "duration": 0.10987406249999765
                },
                {
                    "name": "B3",
                    "midi": 59,
                    "time": 71.63788875000111,
                    "velocity": 0.41732283464566927,
                    "duration": 0.10987406249999765
                },
                {
                    "name": "D4",
                    "midi": 62,
                    "time": 71.63788875000111,
                    "velocity": 0.49606299212598426,
                    "duration": 0.10987406249999765
                },
                {
                    "name": "E3",
                    "midi": 52,
                    "time": 71.7843875000011,
                    "velocity": 0.4645669291338583,
                    "duration": 0.10987406249999765
                },
                {
                    "name": "B3",
                    "midi": 59,
                    "time": 71.7843875000011,
                    "velocity": 0.4645669291338583,
                    "duration": 0.10987406249999765
                },
                {
                    "name": "D4",
                    "midi": 62,
                    "time": 71.7843875000011,
                    "velocity": 0.5511811023622047,
                    "duration": 0.10987406249999765
                },
                {
                    "name": "E3",
                    "midi": 52,
                    "time": 71.9308862500011,
                    "velocity": 0.41732283464566927,
                    "duration": 0.10987406249999765
                },
                {
                    "name": "B3",
                    "midi": 59,
                    "time": 71.9308862500011,
                    "velocity": 0.41732283464566927,
                    "duration": 0.10987406249999765
                },
                {
                    "name": "D4",
                    "midi": 62,
                    "time": 71.9308862500011,
                    "velocity": 0.49606299212598426,
                    "duration": 0.10987406249999765
                },
                {
                    "name": "A2",
                    "midi": 45,
                    "time": 72.07738500000109,
                    "velocity": 0.5669291338582677,
                    "duration": 0.14649875000000634
                },
                {
                    "name": "A3",
                    "midi": 57,
                    "time": 72.2238837500011,
                    "velocity": 0.4645669291338583,
                    "duration": 0.10987406249999765
                },
                {
                    "name": "C4",
                    "midi": 60,
                    "time": 72.2238837500011,
                    "velocity": 0.5511811023622047,
                    "duration": 0.10987406249999765
                },
                {
                    "name": "C4",
                    "midi": 60,
                    "time": 72.37038250000109,
                    "velocity": 0.5511811023622047,
                    "duration": 0.10987406249999765
                },
                {
                    "name": "A3",
                    "midi": 57,
                    "time": 72.37038250000109,
                    "velocity": 0.4645669291338583,
                    "duration": 0.10987406249999765
                },
                {
                    "name": "G3",
                    "midi": 55,
                    "time": 72.51688125000108,
                    "velocity": 0.4645669291338583,
                    "duration": 0.10987406249999765
                },
                {
                    "name": "A3",
                    "midi": 57,
                    "time": 72.51688125000108,
                    "velocity": 0.4645669291338583,
                    "duration": 0.10987406249999765
                },
                {
                    "name": "C4",
                    "midi": 60,
                    "time": 72.51688125000108,
                    "velocity": 0.5511811023622047,
                    "duration": 0.10987406249999765
                },
                {
                    "name": "G3",
                    "midi": 55,
                    "time": 72.66338000000107,
                    "velocity": 0.4645669291338583,
                    "duration": 0.10987406249999765
                },
                {
                    "name": "A3",
                    "midi": 57,
                    "time": 72.66338000000107,
                    "velocity": 0.4645669291338583,
                    "duration": 0.10987406249999765
                },
                {
                    "name": "C4",
                    "midi": 60,
                    "time": 72.66338000000107,
                    "velocity": 0.5511811023622047,
                    "duration": 0.10987406249999765
                },
                {
                    "name": "F#3",
                    "midi": 54,
                    "time": 72.80987875000106,
                    "velocity": 0.4645669291338583,
                    "duration": 0.10987406249999765
                },
                {
                    "name": "A3",
                    "midi": 57,
                    "time": 72.80987875000106,
                    "velocity": 0.4645669291338583,
                    "duration": 0.10987406249999765
                },
                {
                    "name": "C4",
                    "midi": 60,
                    "time": 72.80987875000106,
                    "velocity": 0.5511811023622047,
                    "duration": 0.10987406249999765
                },
                {
                    "name": "D#3",
                    "midi": 51,
                    "time": 72.95637750000105,
                    "velocity": 0.5511811023622047,
                    "duration": 0.07324937500000317
                },
                {
                    "name": "F#3",
                    "midi": 54,
                    "time": 72.95637750000105,
                    "velocity": 0.5511811023622047,
                    "duration": 0.07324937500000317
                },
                {
                    "name": "A3",
                    "midi": 57,
                    "time": 72.95637750000105,
                    "velocity": 0.5511811023622047,
                    "duration": 0.07324937500000317
                },
                {
                    "name": "B3",
                    "midi": 59,
                    "time": 72.95637750000105,
                    "velocity": 0.5511811023622047,
                    "duration": 0.07324937500000317
                },
                {
                    "name": "F#3",
                    "midi": 54,
                    "time": 73.10287625000106,
                    "velocity": 0.3543307086614173,
                    "duration": 0.07324937500000317
                },
                {
                    "name": "D#3",
                    "midi": 51,
                    "time": 73.10287625000106,
                    "velocity": 0.3543307086614173,
                    "duration": 0.07447019791666776
                },
                {
                    "name": "A3",
                    "midi": 57,
                    "time": 73.10287625000106,
                    "velocity": 0.3543307086614173,
                    "duration": 0.07447019791666776
                },
                {
                    "name": "B3",
                    "midi": 59,
                    "time": 73.10287625000106,
                    "velocity": 0.41732283464566927,
                    "duration": 0.07447019791666776
                },
                {
                    "name": "F#3",
                    "midi": 54,
                    "time": 73.24937500000107,
                    "velocity": 0.4015748031496063,
                    "duration": 0.07324937500000317
                },
                {
                    "name": "B3",
                    "midi": 59,
                    "time": 73.24937500000107,
                    "velocity": 0.47244094488188976,
                    "duration": 0.07447019791666776
                },
                {
                    "name": "A3",
                    "midi": 57,
                    "time": 73.24937500000107,
                    "velocity": 0.4015748031496063,
                    "duration": 0.07447019791666776
                },
                {
                    "name": "D#3",
                    "midi": 51,
                    "time": 73.24937500000107,
                    "velocity": 0.4015748031496063,
                    "duration": 0.07447019791666776
                },
                {
                    "name": "F#3",
                    "midi": 54,
                    "time": 73.39587375000107,
                    "velocity": 0.4094488188976378,
                    "duration": 0.07324937500000317
                },
                {
                    "name": "D#3",
                    "midi": 51,
                    "time": 73.39587375000107,
                    "velocity": 0.4094488188976378,
                    "duration": 0.07447019791666776
                },
                {
                    "name": "A3",
                    "midi": 57,
                    "time": 73.39587375000107,
                    "velocity": 0.4094488188976378,
                    "duration": 0.07447019791666776
                },
                {
                    "name": "B3",
                    "midi": 59,
                    "time": 73.39587375000107,
                    "velocity": 0.4881889763779528,
                    "duration": 0.07447019791666776
                },
                {
                    "name": "F#3",
                    "midi": 54,
                    "time": 73.54237250000108,
                    "velocity": 0.41732283464566927,
                    "duration": 0.07324937500000317
                },
                {
                    "name": "D#3",
                    "midi": 51,
                    "time": 73.54237250000108,
                    "velocity": 0.41732283464566927,
                    "duration": 0.07447019791666776
                },
                {
                    "name": "A3",
                    "midi": 57,
                    "time": 73.54237250000108,
                    "velocity": 0.41732283464566927,
                    "duration": 0.07447019791666776
                },
                {
                    "name": "B3",
                    "midi": 59,
                    "time": 73.54237250000108,
                    "velocity": 0.49606299212598426,
                    "duration": 0.07447019791666776
                },
                {
                    "name": "F#3",
                    "midi": 54,
                    "time": 73.68887125000109,
                    "velocity": 0.4251968503937008,
                    "duration": 0.07324937500000317
                },
                {
                    "name": "D#3",
                    "midi": 51,
                    "time": 73.68887125000109,
                    "velocity": 0.4251968503937008,
                    "duration": 0.07447019791666776
                },
                {
                    "name": "A3",
                    "midi": 57,
                    "time": 73.68887125000109,
                    "velocity": 0.4251968503937008,
                    "duration": 0.07447019791666776
                },
                {
                    "name": "B3",
                    "midi": 59,
                    "time": 73.68887125000109,
                    "velocity": 0.5118110236220472,
                    "duration": 0.07447019791666776
                },
                {
                    "name": "E3",
                    "midi": 52,
                    "time": 73.83537000000109,
                    "velocity": 0.4409448818897638,
                    "duration": 0.29299749999999847
                },
                {
                    "name": "G3",
                    "midi": 55,
                    "time": 73.83537000000109,
                    "velocity": 0.4409448818897638,
                    "duration": 0.29299749999999847
                },
                {
                    "name": "B3",
                    "midi": 59,
                    "time": 73.83537000000109,
                    "velocity": 0.5196850393700787,
                    "duration": 0.29299749999999847
                },
                {
                    "name": "E4",
                    "midi": 64,
                    "time": 74.2748662500011,
                    "velocity": 0.4251968503937008,
                    "duration": 0.07324937500000317
                },
                {
                    "name": "G4",
                    "midi": 67,
                    "time": 74.2748662500011,
                    "velocity": 0.5039370078740157,
                    "duration": 0.07324937500000317
                },
                {
                    "name": "E4",
                    "midi": 64,
                    "time": 74.4213650000011,
                    "velocity": 0.4409448818897638,
                    "duration": 0.07324937500000317
                },
                {
                    "name": "G4",
                    "midi": 67,
                    "time": 74.4213650000011,
                    "velocity": 0.5196850393700787,
                    "duration": 0.07324937500000317
                },
                {
                    "name": "G4",
                    "midi": 67,
                    "time": 74.56786375000111,
                    "velocity": 0.5039370078740157,
                    "duration": 0.07324937500000317
                },
                {
                    "name": "E4",
                    "midi": 64,
                    "time": 74.56786375000111,
                    "velocity": 0.4251968503937008,
                    "duration": 0.07324937500000317
                },
                {
                    "name": "D4",
                    "midi": 62,
                    "time": 75.1538587500011,
                    "velocity": 0.4094488188976378,
                    "duration": 0.07324937500000317
                },
                {
                    "name": "F#4",
                    "midi": 66,
                    "time": 75.1538587500011,
                    "velocity": 0.4094488188976378,
                    "duration": 0.07324937500000317
                },
                {
                    "name": "G4",
                    "midi": 67,
                    "time": 75.1538587500011,
                    "velocity": 0.4881889763779528,
                    "duration": 0.07324937500000317
                },
                {
                    "name": "D4",
                    "midi": 62,
                    "time": 75.30035750000111,
                    "velocity": 0.4251968503937008,
                    "duration": 0.07324937500000317
                },
                {
                    "name": "F#4",
                    "midi": 66,
                    "time": 75.30035750000111,
                    "velocity": 0.4251968503937008,
                    "duration": 0.07324937500000317
                },
                {
                    "name": "G4",
                    "midi": 67,
                    "time": 75.30035750000111,
                    "velocity": 0.5039370078740157,
                    "duration": 0.07324937500000317
                },
                {
                    "name": "D4",
                    "midi": 62,
                    "time": 75.44685625000112,
                    "velocity": 0.4015748031496063,
                    "duration": 0.07324937500000317
                },
                {
                    "name": "G4",
                    "midi": 67,
                    "time": 75.44685625000112,
                    "velocity": 0.48031496062992124,
                    "duration": 0.07324937500000317
                },
                {
                    "name": "F#4",
                    "midi": 66,
                    "time": 75.44685625000112,
                    "velocity": 0.4015748031496063,
                    "duration": 0.07324937500000317
                },
                {
                    "name": "C#4",
                    "midi": 61,
                    "time": 76.03285125000112,
                    "velocity": 0.3937007874015748,
                    "duration": 0.07324937500000317
                },
                {
                    "name": "E4",
                    "midi": 64,
                    "time": 76.03285125000112,
                    "velocity": 0.3937007874015748,
                    "duration": 0.07324937500000317
                },
                {
                    "name": "G4",
                    "midi": 67,
                    "time": 76.03285125000112,
                    "velocity": 0.4645669291338583,
                    "duration": 0.07324937500000317
                },
                {
                    "name": "C#4",
                    "midi": 61,
                    "time": 76.17935000000112,
                    "velocity": 0.4015748031496063,
                    "duration": 0.07324937500000317
                },
                {
                    "name": "E4",
                    "midi": 64,
                    "time": 76.17935000000112,
                    "velocity": 0.4015748031496063,
                    "duration": 0.07324937500000317
                },
                {
                    "name": "G4",
                    "midi": 67,
                    "time": 76.17935000000112,
                    "velocity": 0.47244094488188976,
                    "duration": 0.07324937500000317
                },
                {
                    "name": "C#4",
                    "midi": 61,
                    "time": 76.32584875000113,
                    "velocity": 0.3858267716535433,
                    "duration": 0.07324937500000317
                },
                {
                    "name": "G4",
                    "midi": 67,
                    "time": 76.32584875000113,
                    "velocity": 0.4566929133858268,
                    "duration": 0.07324937500000317
                },
                {
                    "name": "E4",
                    "midi": 64,
                    "time": 76.32584875000113,
                    "velocity": 0.3858267716535433,
                    "duration": 0.07324937500000317
                },
                {
                    "name": "D4",
                    "midi": 62,
                    "time": 76.91184375000113,
                    "velocity": 0.3700787401574803,
                    "duration": 0.07324937500000317
                },
                {
                    "name": "F#4",
                    "midi": 66,
                    "time": 76.91184375000113,
                    "velocity": 0.4409448818897638,
                    "duration": 0.07324937500000317
                },
                {
                    "name": "D4",
                    "midi": 62,
                    "time": 77.05834250000113,
                    "velocity": 0.3779527559055118,
                    "duration": 0.07324937500000317
                },
                {
                    "name": "F#4",
                    "midi": 66,
                    "time": 77.05834250000113,
                    "velocity": 0.44881889763779526,
                    "duration": 0.07324937500000317
                },
                {
                    "name": "D4",
                    "midi": 62,
                    "time": 77.20484125000114,
                    "velocity": 0.36220472440944884,
                    "duration": 0.07324937500000317
                },
                {
                    "name": "F#4",
                    "midi": 66,
                    "time": 77.20484125000114,
                    "velocity": 0.4330708661417323,
                    "duration": 0.07324937500000317
                },
                {
                    "name": "B3",
                    "midi": 59,
                    "time": 77.79083625000113,
                    "velocity": 0.3464566929133858,
                    "duration": 0.07324937500000317
                },
                {
                    "name": "D4",
                    "midi": 62,
                    "time": 77.79083625000113,
                    "velocity": 0.41732283464566927,
                    "duration": 0.07324937500000317
                },
                {
                    "name": "B3",
                    "midi": 59,
                    "time": 77.93733500000114,
                    "velocity": 0.3543307086614173,
                    "duration": 0.07324937500000317
                },
                {
                    "name": "D4",
                    "midi": 62,
                    "time": 77.93733500000114,
                    "velocity": 0.4251968503937008,
                    "duration": 0.07324937500000317
                },
                {
                    "name": "B3",
                    "midi": 59,
                    "time": 78.08383375000115,
                    "velocity": 0.33858267716535434,
                    "duration": 0.07324937500000317
                },
                {
                    "name": "D4",
                    "midi": 62,
                    "time": 78.08383375000115,
                    "velocity": 0.4015748031496063,
                    "duration": 0.07324937500000317
                },
                {
                    "name": "G3",
                    "midi": 55,
                    "time": 78.66982875000114,
                    "velocity": 0.2755905511811024,
                    "duration": 0.07324937500000317
                },
                {
                    "name": "B3",
                    "midi": 59,
                    "time": 78.66982875000114,
                    "velocity": 0.33070866141732286,
                    "duration": 0.07324937500000317
                },
                {
                    "name": "G3",
                    "midi": 55,
                    "time": 78.81632750000115,
                    "velocity": 0.2755905511811024,
                    "duration": 0.07324937500000317
                },
                {
                    "name": "B3",
                    "midi": 59,
                    "time": 78.81632750000115,
                    "velocity": 0.3228346456692913,
                    "duration": 0.07324937500000317
                },
                {
                    "name": "G3",
                    "midi": 55,
                    "time": 78.96282625000116,
                    "velocity": 0.25196850393700787,
                    "duration": 0.07324937500000317
                },
                {
                    "name": "B3",
                    "midi": 59,
                    "time": 78.96282625000116,
                    "velocity": 0.2992125984251969,
                    "duration": 0.07324937500000317
                },
                {
                    "name": "D3",
                    "midi": 50,
                    "time": 79.54882125000115,
                    "velocity": 0.23622047244094488,
                    "duration": 0.07324937500000317
                },
                {
                    "name": "G3",
                    "midi": 55,
                    "time": 79.54882125000115,
                    "velocity": 0.28346456692913385,
                    "duration": 0.07324937500000317
                },
                {
                    "name": "D3",
                    "midi": 50,
                    "time": 79.69532000000116,
                    "velocity": 0.2440944881889764,
                    "duration": 0.07324937500000317
                },
                {
                    "name": "G3",
                    "midi": 55,
                    "time": 79.69532000000116,
                    "velocity": 0.28346456692913385,
                    "duration": 0.07324937500000317
                },
                {
                    "name": "D3",
                    "midi": 50,
                    "time": 79.84181875000117,
                    "velocity": 0.23622047244094488,
                    "duration": 0.07324937500000317
                },
                {
                    "name": "G3",
                    "midi": 55,
                    "time": 79.84181875000117,
                    "velocity": 0.28346456692913385,
                    "duration": 0.07324937500000317
                },
                {
                    "name": "G2",
                    "midi": 43,
                    "time": 80.42781375000116,
                    "velocity": 0.23622047244094488,
                    "duration": 0.07324937500000317
                },
                {
                    "name": "B2",
                    "midi": 47,
                    "time": 80.42781375000116,
                    "velocity": 0.28346456692913385,
                    "duration": 0.07324937500000317
                },
                {
                    "name": "G2",
                    "midi": 43,
                    "time": 80.57431250000117,
                    "velocity": 0.2440944881889764,
                    "duration": 0.07324937500000317
                },
                {
                    "name": "B2",
                    "midi": 47,
                    "time": 80.57431250000117,
                    "velocity": 0.28346456692913385,
                    "duration": 0.07324937500000317
                },
                {
                    "name": "G2",
                    "midi": 43,
                    "time": 80.72081125000118,
                    "velocity": 0.23622047244094488,
                    "duration": 0.07324937500000317
                },
                {
                    "name": "B2",
                    "midi": 47,
                    "time": 80.72081125000118,
                    "velocity": 0.28346456692913385,
                    "duration": 0.07324937500000317
                },
                {
                    "name": "F#2",
                    "midi": 42,
                    "time": 80.86731000000118,
                    "velocity": 0.28346456692913385,
                    "duration": 0.2197481249999953
                },
                {
                    "name": "A#2",
                    "midi": 46,
                    "time": 80.86731000000118,
                    "velocity": 0.28346456692913385,
                    "duration": 0.2197481249999953
                },
                {
                    "name": "G3",
                    "midi": 55,
                    "time": 81.89280125000118,
                    "velocity": 0.36220472440944884,
                    "duration": 0.07324937500000317
                },
                {
                    "name": "E3",
                    "midi": 52,
                    "time": 81.89280125000118,
                    "velocity": 0.28346456692913385,
                    "duration": 0.07324937500000317
                },
                {
                    "name": "C#3",
                    "midi": 49,
                    "time": 81.89280125000118,
                    "velocity": 0.28346456692913385,
                    "duration": 0.07324937500000317
                },
                {
                    "name": "B2",
                    "midi": 47,
                    "time": 81.89280125000118,
                    "velocity": 0.28346456692913385,
                    "duration": 0.07324937500000317
                },
                {
                    "name": "B2",
                    "midi": 47,
                    "time": 82.03930000000119,
                    "velocity": 0.30708661417322836,
                    "duration": 0.07324937500000317
                },
                {
                    "name": "C#3",
                    "midi": 49,
                    "time": 82.03930000000119,
                    "velocity": 0.30708661417322836,
                    "duration": 0.07324937500000317
                },
                {
                    "name": "E3",
                    "midi": 52,
                    "time": 82.03930000000119,
                    "velocity": 0.30708661417322836,
                    "duration": 0.07324937500000317
                },
                {
                    "name": "G3",
                    "midi": 55,
                    "time": 82.03930000000119,
                    "velocity": 0.3937007874015748,
                    "duration": 0.07324937500000317
                },
                {
                    "name": "G3",
                    "midi": 55,
                    "time": 82.1857987500012,
                    "velocity": 0.36220472440944884,
                    "duration": 0.07324937500000317
                },
                {
                    "name": "E3",
                    "midi": 52,
                    "time": 82.1857987500012,
                    "velocity": 0.28346456692913385,
                    "duration": 0.07324937500000317
                },
                {
                    "name": "C#3",
                    "midi": 49,
                    "time": 82.1857987500012,
                    "velocity": 0.28346456692913385,
                    "duration": 0.07324937500000317
                },
                {
                    "name": "B2",
                    "midi": 47,
                    "time": 82.1857987500012,
                    "velocity": 0.28346456692913385,
                    "duration": 0.07324937500000317
                },
                {
                    "name": "B2",
                    "midi": 47,
                    "time": 82.3322975000012,
                    "velocity": 0.3228346456692913,
                    "duration": 0.07324937500000317
                },
                {
                    "name": "C#3",
                    "midi": 49,
                    "time": 82.3322975000012,
                    "velocity": 0.3228346456692913,
                    "duration": 0.07324937500000317
                },
                {
                    "name": "E3",
                    "midi": 52,
                    "time": 82.3322975000012,
                    "velocity": 0.3228346456692913,
                    "duration": 0.07324937500000317
                },
                {
                    "name": "G3",
                    "midi": 55,
                    "time": 82.3322975000012,
                    "velocity": 0.4094488188976378,
                    "duration": 0.07324937500000317
                },
                {
                    "name": "G3",
                    "midi": 55,
                    "time": 82.47879625000121,
                    "velocity": 0.36220472440944884,
                    "duration": 0.07324937500000317
                },
                {
                    "name": "E3",
                    "midi": 52,
                    "time": 82.47879625000121,
                    "velocity": 0.28346456692913385,
                    "duration": 0.07324937500000317
                },
                {
                    "name": "C#3",
                    "midi": 49,
                    "time": 82.47879625000121,
                    "velocity": 0.28346456692913385,
                    "duration": 0.07324937500000317
                },
                {
                    "name": "B2",
                    "midi": 47,
                    "time": 82.47879625000121,
                    "velocity": 0.28346456692913385,
                    "duration": 0.07324937500000317
                },
                {
                    "name": "A#2",
                    "midi": 46,
                    "time": 82.62529500000122,
                    "velocity": 0.3937007874015748,
                    "duration": 0.29299749999999847
                },
                {
                    "name": "C#3",
                    "midi": 49,
                    "time": 82.62529500000122,
                    "velocity": 0.3937007874015748,
                    "duration": 0.29299749999999847
                },
                {
                    "name": "F#3",
                    "midi": 54,
                    "time": 82.62529500000122,
                    "velocity": 0.44881889763779526,
                    "duration": 0.29299749999999847
                },
                {
                    "name": "G3",
                    "midi": 55,
                    "time": 83.65078625000122,
                    "velocity": 0.36220472440944884,
                    "duration": 0.07324937500000317
                },
                {
                    "name": "E3",
                    "midi": 52,
                    "time": 83.65078625000122,
                    "velocity": 0.28346456692913385,
                    "duration": 0.07324937500000317
                },
                {
                    "name": "C#3",
                    "midi": 49,
                    "time": 83.65078625000122,
                    "velocity": 0.28346456692913385,
                    "duration": 0.07324937500000317
                },
                {
                    "name": "B2",
                    "midi": 47,
                    "time": 83.65078625000122,
                    "velocity": 0.28346456692913385,
                    "duration": 0.07324937500000317
                },
                {
                    "name": "B2",
                    "midi": 47,
                    "time": 83.79728500000122,
                    "velocity": 0.30708661417322836,
                    "duration": 0.07324937500000317
                },
                {
                    "name": "C#3",
                    "midi": 49,
                    "time": 83.79728500000122,
                    "velocity": 0.30708661417322836,
                    "duration": 0.07324937500000317
                },
                {
                    "name": "E3",
                    "midi": 52,
                    "time": 83.79728500000122,
                    "velocity": 0.30708661417322836,
                    "duration": 0.07324937500000317
                },
                {
                    "name": "G3",
                    "midi": 55,
                    "time": 83.79728500000122,
                    "velocity": 0.3937007874015748,
                    "duration": 0.07324937500000317
                },
                {
                    "name": "G3",
                    "midi": 55,
                    "time": 83.94378375000123,
                    "velocity": 0.36220472440944884,
                    "duration": 0.07324937500000317
                },
                {
                    "name": "E3",
                    "midi": 52,
                    "time": 83.94378375000123,
                    "velocity": 0.28346456692913385,
                    "duration": 0.07324937500000317
                },
                {
                    "name": "C#3",
                    "midi": 49,
                    "time": 83.94378375000123,
                    "velocity": 0.28346456692913385,
                    "duration": 0.07324937500000317
                },
                {
                    "name": "B2",
                    "midi": 47,
                    "time": 83.94378375000123,
                    "velocity": 0.28346456692913385,
                    "duration": 0.07324937500000317
                },
                {
                    "name": "B2",
                    "midi": 47,
                    "time": 84.09028250000124,
                    "velocity": 0.3228346456692913,
                    "duration": 0.07324937500000317
                },
                {
                    "name": "C#3",
                    "midi": 49,
                    "time": 84.09028250000124,
                    "velocity": 0.3228346456692913,
                    "duration": 0.07324937500000317
                },
                {
                    "name": "E3",
                    "midi": 52,
                    "time": 84.09028250000124,
                    "velocity": 0.3228346456692913,
                    "duration": 0.07324937500000317
                },
                {
                    "name": "G3",
                    "midi": 55,
                    "time": 84.09028250000124,
                    "velocity": 0.4094488188976378,
                    "duration": 0.07324937500000317
                },
                {
                    "name": "G3",
                    "midi": 55,
                    "time": 84.23678125000124,
                    "velocity": 0.36220472440944884,
                    "duration": 0.07324937500000317
                },
                {
                    "name": "E3",
                    "midi": 52,
                    "time": 84.23678125000124,
                    "velocity": 0.28346456692913385,
                    "duration": 0.07324937500000317
                },
                {
                    "name": "C#3",
                    "midi": 49,
                    "time": 84.23678125000124,
                    "velocity": 0.28346456692913385,
                    "duration": 0.07324937500000317
                },
                {
                    "name": "B2",
                    "midi": 47,
                    "time": 84.23678125000124,
                    "velocity": 0.28346456692913385,
                    "duration": 0.07324937500000317
                },
                {
                    "name": "A#2",
                    "midi": 46,
                    "time": 84.38328000000125,
                    "velocity": 0.3937007874015748,
                    "duration": 0.29299749999999847
                },
                {
                    "name": "C#3",
                    "midi": 49,
                    "time": 84.38328000000125,
                    "velocity": 0.3937007874015748,
                    "duration": 0.29299749999999847
                },
                {
                    "name": "F#3",
                    "midi": 54,
                    "time": 84.38328000000125,
                    "velocity": 0.44881889763779526,
                    "duration": 0.29299749999999847
                },
                {
                    "name": "F#3",
                    "midi": 54,
                    "time": 85.11577375000125,
                    "velocity": 0.3700787401574803,
                    "duration": 0.14649875000000634
                },
                {
                    "name": "A3",
                    "midi": 57,
                    "time": 85.26227250000126,
                    "velocity": 0.3779527559055118,
                    "duration": 0.14649875000000634
                },
                {
                    "name": "B3",
                    "midi": 59,
                    "time": 85.40877125000127,
                    "velocity": 0.33858267716535434,
                    "duration": 0.14649875000000634
                },
                {
                    "name": "C#4",
                    "midi": 61,
                    "time": 85.55527000000127,
                    "velocity": 0.33858267716535434,
                    "duration": 0.14649875000000634
                },
                {
                    "name": "D4",
                    "midi": 62,
                    "time": 85.70176875000128,
                    "velocity": 0.3543307086614173,
                    "duration": 0.14649875000000634
                },
                {
                    "name": "E4",
                    "midi": 64,
                    "time": 85.84826750000128,
                    "velocity": 0.3937007874015748,
                    "duration": 0.13429052083333204
                },
                {
                    "name": "A3",
                    "midi": 57,
                    "time": 85.99476625000128,
                    "velocity": 0.36220472440944884,
                    "duration": 0.14649875000000634
                },
                {
                    "name": "C#4",
                    "midi": 61,
                    "time": 86.14126500000128,
                    "velocity": 0.3700787401574803,
                    "duration": 0.14649875000000634
                },
                {
                    "name": "D4",
                    "midi": 62,
                    "time": 86.28776375000129,
                    "velocity": 0.3700787401574803,
                    "duration": 0.14649875000000634
                },
                {
                    "name": "E4",
                    "midi": 64,
                    "time": 86.4342625000013,
                    "velocity": 0.3700787401574803,
                    "duration": 0.14649875000000634
                },
                {
                    "name": "F#4",
                    "midi": 66,
                    "time": 86.5807612500013,
                    "velocity": 0.3779527559055118,
                    "duration": 0.14649875000000634
                },
                {
                    "name": "G4",
                    "midi": 67,
                    "time": 86.72726000000131,
                    "velocity": 0.41732283464566927,
                    "duration": 0.13429052083333204
                },
                {
                    "name": "A#3",
                    "midi": 58,
                    "time": 86.8737587500013,
                    "velocity": 0.3937007874015748,
                    "duration": 0.14649875000000634
                },
                {
                    "name": "C#4",
                    "midi": 61,
                    "time": 87.0202575000013,
                    "velocity": 0.3937007874015748,
                    "duration": 0.13429052083333204
                },
                {
                    "name": "D4",
                    "midi": 62,
                    "time": 87.1667562500013,
                    "velocity": 0.4094488188976378,
                    "duration": 0.14649875000000634
                },
                {
                    "name": "E4",
                    "midi": 64,
                    "time": 87.3132550000013,
                    "velocity": 0.41732283464566927,
                    "duration": 0.14649875000000634
                },
                {
                    "name": "F#4",
                    "midi": 66,
                    "time": 87.45975375000131,
                    "velocity": 0.4409448818897638,
                    "duration": 0.14649875000000634
                },
                {
                    "name": "G4",
                    "midi": 67,
                    "time": 87.60625250000132,
                    "velocity": 0.44881889763779526,
                    "duration": 0.13429052083333204
                },
                {
                    "name": "F#4",
                    "midi": 66,
                    "time": 87.75275125000131,
                    "velocity": 0.4409448818897638,
                    "duration": 0.14649875000000634
                },
                {
                    "name": "E4",
                    "midi": 64,
                    "time": 87.89925000000132,
                    "velocity": 0.4330708661417323,
                    "duration": 0.14649875000000634
                },
                {
                    "name": "F#4",
                    "midi": 66,
                    "time": 88.04574875000132,
                    "velocity": 0.4251968503937008,
                    "duration": 0.14649875000000634
                },
                {
                    "name": "G4",
                    "midi": 67,
                    "time": 88.19224750000133,
                    "velocity": 0.4645669291338583,
                    "duration": 0.14649875000000634
                },
                {
                    "name": "F#4",
                    "midi": 66,
                    "time": 88.33874625000134,
                    "velocity": 0.4409448818897638,
                    "duration": 0.14649875000000634
                },
                {
                    "name": "E4",
                    "midi": 64,
                    "time": 88.48524500000134,
                    "velocity": 0.4330708661417323,
                    "duration": 0.14649875000000634
                },
                {
                    "name": "D4",
                    "midi": 62,
                    "time": 88.63174375000135,
                    "velocity": 0.41732283464566927,
                    "duration": 0.14649875000000634
                },
                {
                    "name": "C#4",
                    "midi": 61,
                    "time": 88.77824250000135,
                    "velocity": 0.44881889763779526,
                    "duration": 0.14649875000000634
                },
                {
                    "name": "D4",
                    "midi": 62,
                    "time": 88.92474125000136,
                    "velocity": 0.41732283464566927,
                    "duration": 0.14649875000000634
                },
                {
                    "name": "E4",
                    "midi": 64,
                    "time": 89.07124000000137,
                    "velocity": 0.4409448818897638,
                    "duration": 0.14649875000000634
                },
                {
                    "name": "D4",
                    "midi": 62,
                    "time": 89.21773875000137,
                    "velocity": 0.3937007874015748,
                    "duration": 0.14649875000000634
                },
                {
                    "name": "C#4",
                    "midi": 61,
                    "time": 89.36423750000138,
                    "velocity": 0.41732283464566927,
                    "duration": 0.14649875000000634
                },
                {
                    "name": "B3",
                    "midi": 59,
                    "time": 89.51073625000139,
                    "velocity": 0.3937007874015748,
                    "duration": 0.14649875000000634
                },
                {
                    "name": "A#3",
                    "midi": 58,
                    "time": 89.65723500000139,
                    "velocity": 0.3779527559055118,
                    "duration": 0.14649875000000634
                },
                {
                    "name": "B3",
                    "midi": 59,
                    "time": 89.8037337500014,
                    "velocity": 0.33070866141732286,
                    "duration": 0.14649875000000634
                },
                {
                    "name": "C#4",
                    "midi": 61,
                    "time": 89.9502325000014,
                    "velocity": 0.3937007874015748,
                    "duration": 0.14649875000000634
                },
                {
                    "name": "A#3",
                    "midi": 58,
                    "time": 90.09673125000141,
                    "velocity": 0.33858267716535434,
                    "duration": 0.14649875000000634
                },
                {
                    "name": "G3",
                    "midi": 55,
                    "time": 90.24323000000142,
                    "velocity": 0.3858267716535433,
                    "duration": 0.14649875000000634
                },
                {
                    "name": "F#3",
                    "midi": 54,
                    "time": 90.38972875000142,
                    "velocity": 0.33858267716535434,
                    "duration": 0.14649875000000634
                },
                {
                    "name": "E3",
                    "midi": 52,
                    "time": 90.53622750000143,
                    "velocity": 0.36220472440944884,
                    "duration": 0.14649875000000634
                },
                {
                    "name": "F#3",
                    "midi": 54,
                    "time": 90.68272625000144,
                    "velocity": 0.31496062992125984,
                    "duration": 0.14649875000000634
                },
                {
                    "name": "G3",
                    "midi": 55,
                    "time": 90.82922500000144,
                    "velocity": 0.33858267716535434,
                    "duration": 0.14649875000000634
                },
                {
                    "name": "E3",
                    "midi": 52,
                    "time": 90.97572375000145,
                    "velocity": 0.31496062992125984,
                    "duration": 0.14649875000000634
                },
                {
                    "name": "D3",
                    "midi": 50,
                    "time": 91.12222250000146,
                    "velocity": 0.31496062992125984,
                    "duration": 0.14649875000000634
                },
                {
                    "name": "C#3",
                    "midi": 49,
                    "time": 91.26872125000146,
                    "velocity": 0.31496062992125984,
                    "duration": 0.14649875000000634
                },
                {
                    "name": "C#4",
                    "midi": 61,
                    "time": 91.41522000000147,
                    "velocity": 0.3700787401574803,
                    "duration": 0.07324937500000317
                },
                {
                    "name": "A#2",
                    "midi": 46,
                    "time": 91.41522000000147,
                    "velocity": 0.31496062992125984,
                    "duration": 0.07324937500000317
                },
                {
                    "name": "F#3",
                    "midi": 54,
                    "time": 91.56171875000148,
                    "velocity": 0.25984251968503935,
                    "duration": 0.07324937500000317
                },
                {
                    "name": "C#4",
                    "midi": 61,
                    "time": 91.56171875000148,
                    "velocity": 0.25984251968503935,
                    "duration": 0.07324937500000317
                },
                {
                    "name": "E4",
                    "midi": 64,
                    "time": 91.56171875000148,
                    "velocity": 0.33858267716535434,
                    "duration": 0.07324937500000317
                },
                {
                    "name": "F#3",
                    "midi": 54,
                    "time": 91.70821750000148,
                    "velocity": 0.29133858267716534,
                    "duration": 0.07324937500000317
                },
                {
                    "name": "C#4",
                    "midi": 61,
                    "time": 91.70821750000148,
                    "velocity": 0.29133858267716534,
                    "duration": 0.07324937500000317
                },
                {
                    "name": "E4",
                    "midi": 64,
                    "time": 91.70821750000148,
                    "velocity": 0.3700787401574803,
                    "duration": 0.07324937500000317
                },
                {
                    "name": "F#3",
                    "midi": 54,
                    "time": 91.85471625000149,
                    "velocity": 0.30708661417322836,
                    "duration": 0.07324937500000317
                },
                {
                    "name": "C#4",
                    "midi": 61,
                    "time": 91.85471625000149,
                    "velocity": 0.30708661417322836,
                    "duration": 0.07324937500000317
                },
                {
                    "name": "E4",
                    "midi": 64,
                    "time": 91.85471625000149,
                    "velocity": 0.3937007874015748,
                    "duration": 0.07324937500000317
                },
                {
                    "name": "F#3",
                    "midi": 54,
                    "time": 92.0012150000015,
                    "velocity": 0.33070866141732286,
                    "duration": 0.07324937500000317
                },
                {
                    "name": "C#4",
                    "midi": 61,
                    "time": 92.0012150000015,
                    "velocity": 0.33070866141732286,
                    "duration": 0.07324937500000317
                },
                {
                    "name": "E4",
                    "midi": 64,
                    "time": 92.0012150000015,
                    "velocity": 0.41732283464566927,
                    "duration": 0.07324937500000317
                },
                {
                    "name": "F#3",
                    "midi": 54,
                    "time": 92.1477137500015,
                    "velocity": 0.36220472440944884,
                    "duration": 0.07324937500000317
                },
                {
                    "name": "C#4",
                    "midi": 61,
                    "time": 92.1477137500015,
                    "velocity": 0.36220472440944884,
                    "duration": 0.07324937500000317
                },
                {
                    "name": "E4",
                    "midi": 64,
                    "time": 92.1477137500015,
                    "velocity": 0.44881889763779526,
                    "duration": 0.07324937500000317
                },
                {
                    "name": "B2",
                    "midi": 47,
                    "time": 92.2942125000015,
                    "velocity": 0.47244094488188976,
                    "duration": 0.07324937500000317
                },
                {
                    "name": "D4",
                    "midi": 62,
                    "time": 92.44071125000151,
                    "velocity": 0.33858267716535434,
                    "duration": 0.07324937500000317
                },
                {
                    "name": "B3",
                    "midi": 59,
                    "time": 92.44071125000151,
                    "velocity": 0.2677165354330709,
                    "duration": 0.07324937500000317
                },
                {
                    "name": "F#3",
                    "midi": 54,
                    "time": 92.44071125000151,
                    "velocity": 0.2677165354330709,
                    "duration": 0.07324937500000317
                },
                {
                    "name": "F#3",
                    "midi": 54,
                    "time": 92.58721000000152,
                    "velocity": 0.3228346456692913,
                    "duration": 0.07324937500000317
                },
                {
                    "name": "B3",
                    "midi": 59,
                    "time": 92.58721000000152,
                    "velocity": 0.3228346456692913,
                    "duration": 0.07324937500000317
                },
                {
                    "name": "D4",
                    "midi": 62,
                    "time": 92.58721000000152,
                    "velocity": 0.4094488188976378,
                    "duration": 0.07324937500000317
                },
                {
                    "name": "F#3",
                    "midi": 54,
                    "time": 92.73370875000153,
                    "velocity": 0.30708661417322836,
                    "duration": 0.07324937500000317
                },
                {
                    "name": "B3",
                    "midi": 59,
                    "time": 92.73370875000153,
                    "velocity": 0.30708661417322836,
                    "duration": 0.07324937500000317
                },
                {
                    "name": "D4",
                    "midi": 62,
                    "time": 92.73370875000153,
                    "velocity": 0.3858267716535433,
                    "duration": 0.07324937500000317
                },
                {
                    "name": "D4",
                    "midi": 62,
                    "time": 92.88020750000153,
                    "velocity": 0.4409448818897638,
                    "duration": 0.07324937500000317
                },
                {
                    "name": "B3",
                    "midi": 59,
                    "time": 92.88020750000153,
                    "velocity": 0.3464566929133858,
                    "duration": 0.07324937500000317
                },
                {
                    "name": "F#3",
                    "midi": 54,
                    "time": 92.88020750000153,
                    "velocity": 0.3464566929133858,
                    "duration": 0.07324937500000317
                },
                {
                    "name": "F#3",
                    "midi": 54,
                    "time": 93.02670625000154,
                    "velocity": 0.33070866141732286,
                    "duration": 0.07324937500000317
                },
                {
                    "name": "B3",
                    "midi": 59,
                    "time": 93.02670625000154,
                    "velocity": 0.33070866141732286,
                    "duration": 0.07324937500000317
                },
                {
                    "name": "D4",
                    "midi": 62,
                    "time": 93.02670625000154,
                    "velocity": 0.4251968503937008,
                    "duration": 0.07324937500000317
                },
                {
                    "name": "G2",
                    "midi": 43,
                    "time": 93.17320500000154,
                    "velocity": 0.47244094488188976,
                    "duration": 0.07324937500000317
                },
                {
                    "name": "E4",
                    "midi": 64,
                    "time": 93.31970375000155,
                    "velocity": 0.3464566929133858,
                    "duration": 0.07324937500000317
                },
                {
                    "name": "B3",
                    "midi": 59,
                    "time": 93.31970375000155,
                    "velocity": 0.2755905511811024,
                    "duration": 0.07324937500000317
                },
                {
                    "name": "G3",
                    "midi": 55,
                    "time": 93.31970375000155,
                    "velocity": 0.2755905511811024,
                    "duration": 0.07324937500000317
                },
                {
                    "name": "G3",
                    "midi": 55,
                    "time": 93.46620250000156,
                    "velocity": 0.30708661417322836,
                    "duration": 0.07324937500000317
                },
                {
                    "name": "B3",
                    "midi": 59,
                    "time": 93.46620250000156,
                    "velocity": 0.30708661417322836,
                    "duration": 0.07324937500000317
                },
                {
                    "name": "E4",
                    "midi": 64,
                    "time": 93.46620250000156,
                    "velocity": 0.3858267716535433,
                    "duration": 0.07324937500000317
                },
                {
                    "name": "G3",
                    "midi": 55,
                    "time": 93.61270125000156,
                    "velocity": 0.29133858267716534,
                    "duration": 0.07324937500000317
                },
                {
                    "name": "B3",
                    "midi": 59,
                    "time": 93.61270125000156,
                    "velocity": 0.29133858267716534,
                    "duration": 0.07324937500000317
                },
                {
                    "name": "E4",
                    "midi": 64,
                    "time": 93.61270125000156,
                    "velocity": 0.36220472440944884,
                    "duration": 0.07324937500000317
                },
                {
                    "name": "G3",
                    "midi": 55,
                    "time": 93.75920000000157,
                    "velocity": 0.3228346456692913,
                    "duration": 0.07324937500000317
                },
                {
                    "name": "B3",
                    "midi": 59,
                    "time": 93.75920000000157,
                    "velocity": 0.3228346456692913,
                    "duration": 0.07324937500000317
                },
                {
                    "name": "E4",
                    "midi": 64,
                    "time": 93.75920000000157,
                    "velocity": 0.4015748031496063,
                    "duration": 0.07324937500000317
                },
                {
                    "name": "G3",
                    "midi": 55,
                    "time": 93.90569875000158,
                    "velocity": 0.36220472440944884,
                    "duration": 0.07324937500000317
                },
                {
                    "name": "B3",
                    "midi": 59,
                    "time": 93.90569875000158,
                    "velocity": 0.36220472440944884,
                    "duration": 0.07324937500000317
                },
                {
                    "name": "E4",
                    "midi": 64,
                    "time": 93.90569875000158,
                    "velocity": 0.4645669291338583,
                    "duration": 0.07324937500000317
                },
                {
                    "name": "F#2",
                    "midi": 42,
                    "time": 94.05219750000158,
                    "velocity": 0.5118110236220472,
                    "duration": 0.07324937500000317
                },
                {
                    "name": "E4",
                    "midi": 64,
                    "time": 94.19869625000159,
                    "velocity": 0.4251968503937008,
                    "duration": 0.07324937500000317
                },
                {
                    "name": "A#3",
                    "midi": 58,
                    "time": 94.19869625000159,
                    "velocity": 0.33858267716535434,
                    "duration": 0.07324937500000317
                },
                {
                    "name": "F#3",
                    "midi": 54,
                    "time": 94.19869625000159,
                    "velocity": 0.33858267716535434,
                    "duration": 0.07324937500000317
                },
                {
                    "name": "E4",
                    "midi": 64,
                    "time": 94.3451950000016,
                    "velocity": 0.4645669291338583,
                    "duration": 0.07324937500000317
                },
                {
                    "name": "A#3",
                    "midi": 58,
                    "time": 94.3451950000016,
                    "velocity": 0.36220472440944884,
                    "duration": 0.07324937500000317
                },
                {
                    "name": "F#3",
                    "midi": 54,
                    "time": 94.3451950000016,
                    "velocity": 0.36220472440944884,
                    "duration": 0.07324937500000317
                },
                {
                    "name": "E4",
                    "midi": 64,
                    "time": 94.4916937500016,
                    "velocity": 0.49606299212598426,
                    "duration": 0.07324937500000317
                },
                {
                    "name": "A#3",
                    "midi": 58,
                    "time": 94.4916937500016,
                    "velocity": 0.3937007874015748,
                    "duration": 0.07324937500000317
                },
                {
                    "name": "F#3",
                    "midi": 54,
                    "time": 94.4916937500016,
                    "velocity": 0.3937007874015748,
                    "duration": 0.07324937500000317
                },
                {
                    "name": "E4",
                    "midi": 64,
                    "time": 94.63819250000161,
                    "velocity": 0.36220472440944884,
                    "duration": 0.07324937500000317
                },
                {
                    "name": "C#4",
                    "midi": 61,
                    "time": 94.63819250000161,
                    "velocity": 0.28346456692913385,
                    "duration": 0.07324937500000317
                },
                {
                    "name": "F#3",
                    "midi": 54,
                    "time": 94.63819250000161,
                    "velocity": 0.28346456692913385,
                    "duration": 0.07324937500000317
                },
                {
                    "name": "F#3",
                    "midi": 54,
                    "time": 94.78469125000161,
                    "velocity": 0.2677165354330709,
                    "duration": 0.07324937500000317
                },
                {
                    "name": "C#4",
                    "midi": 61,
                    "time": 94.78469125000161,
                    "velocity": 0.2677165354330709,
                    "duration": 0.07324937500000317
                },
                {
                    "name": "E4",
                    "midi": 64,
                    "time": 94.78469125000161,
                    "velocity": 0.33858267716535434,
                    "duration": 0.07324937500000317
                },
                {
                    "name": "A#2",
                    "midi": 46,
                    "time": 94.93119000000162,
                    "velocity": 0.36220472440944884,
                    "duration": 0.07324937500000317
                },
                {
                    "name": "F#3",
                    "midi": 54,
                    "time": 95.07768875000163,
                    "velocity": 0.29133858267716534,
                    "duration": 0.07324937500000317
                },
                {
                    "name": "C#4",
                    "midi": 61,
                    "time": 95.07768875000163,
                    "velocity": 0.29133858267716534,
                    "duration": 0.07324937500000317
                },
                {
                    "name": "E4",
                    "midi": 64,
                    "time": 95.07768875000163,
                    "velocity": 0.3858267716535433,
                    "duration": 0.07324937500000317
                },
                {
                    "name": "F#3",
                    "midi": 54,
                    "time": 95.22418750000163,
                    "velocity": 0.33070866141732286,
                    "duration": 0.07324937500000317
                },
                {
                    "name": "C#4",
                    "midi": 61,
                    "time": 95.22418750000163,
                    "velocity": 0.33070866141732286,
                    "duration": 0.07324937500000317
                },
                {
                    "name": "E4",
                    "midi": 64,
                    "time": 95.22418750000163,
                    "velocity": 0.4251968503937008,
                    "duration": 0.07324937500000317
                },
                {
                    "name": "F#3",
                    "midi": 54,
                    "time": 95.37068625000164,
                    "velocity": 0.3464566929133858,
                    "duration": 0.07324937500000317
                },
                {
                    "name": "C#4",
                    "midi": 61,
                    "time": 95.37068625000164,
                    "velocity": 0.3464566929133858,
                    "duration": 0.07324937500000317
                },
                {
                    "name": "E4",
                    "midi": 64,
                    "time": 95.37068625000164,
                    "velocity": 0.44881889763779526,
                    "duration": 0.07324937500000317
                },
                {
                    "name": "F#3",
                    "midi": 54,
                    "time": 95.51718500000165,
                    "velocity": 0.3779527559055118,
                    "duration": 0.07324937500000317
                },
                {
                    "name": "C#4",
                    "midi": 61,
                    "time": 95.51718500000165,
                    "velocity": 0.3779527559055118,
                    "duration": 0.07324937500000317
                },
                {
                    "name": "E4",
                    "midi": 64,
                    "time": 95.51718500000165,
                    "velocity": 0.47244094488188976,
                    "duration": 0.07324937500000317
                },
                {
                    "name": "F#3",
                    "midi": 54,
                    "time": 95.66368375000165,
                    "velocity": 0.4094488188976378,
                    "duration": 0.07324937500000317
                },
                {
                    "name": "C#4",
                    "midi": 61,
                    "time": 95.66368375000165,
                    "velocity": 0.4094488188976378,
                    "duration": 0.07324937500000317
                },
                {
                    "name": "E4",
                    "midi": 64,
                    "time": 95.66368375000165,
                    "velocity": 0.5118110236220472,
                    "duration": 0.07324937500000317
                },
                {
                    "name": "B2",
                    "midi": 47,
                    "time": 95.81018250000166,
                    "velocity": 0.5433070866141733,
                    "duration": 0.07324937500000317
                },
                {
                    "name": "D4",
                    "midi": 62,
                    "time": 95.95668125000167,
                    "velocity": 0.3858267716535433,
                    "duration": 0.07324937500000317
                },
                {
                    "name": "B3",
                    "midi": 59,
                    "time": 95.95668125000167,
                    "velocity": 0.30708661417322836,
                    "duration": 0.07324937500000317
                },
                {
                    "name": "F#3",
                    "midi": 54,
                    "time": 95.95668125000167,
                    "velocity": 0.30708661417322836,
                    "duration": 0.07324937500000317
                },
                {
                    "name": "F#3",
                    "midi": 54,
                    "time": 96.10318000000167,
                    "velocity": 0.3700787401574803,
                    "duration": 0.07324937500000317
                },
                {
                    "name": "B3",
                    "midi": 59,
                    "time": 96.10318000000167,
                    "velocity": 0.3700787401574803,
                    "duration": 0.07324937500000317
                },
                {
                    "name": "D4",
                    "midi": 62,
                    "time": 96.10318000000167,
                    "velocity": 0.4645669291338583,
                    "duration": 0.07324937500000317
                },
                {
                    "name": "F#3",
                    "midi": 54,
                    "time": 96.24967875000168,
                    "velocity": 0.3464566929133858,
                    "duration": 0.07324937500000317
                },
                {
                    "name": "B3",
                    "midi": 59,
                    "time": 96.24967875000168,
                    "velocity": 0.3464566929133858,
                    "duration": 0.07324937500000317
                },
                {
                    "name": "D4",
                    "midi": 62,
                    "time": 96.24967875000168,
                    "velocity": 0.4409448818897638,
                    "duration": 0.07324937500000317
                },
                {
                    "name": "D4",
                    "midi": 62,
                    "time": 96.39617750000168,
                    "velocity": 0.5039370078740157,
                    "duration": 0.07324937500000317
                },
                {
                    "name": "B3",
                    "midi": 59,
                    "time": 96.39617750000168,
                    "velocity": 0.3937007874015748,
                    "duration": 0.07324937500000317
                },
                {
                    "name": "F#3",
                    "midi": 54,
                    "time": 96.39617750000168,
                    "velocity": 0.3937007874015748,
                    "duration": 0.07324937500000317
                },
                {
                    "name": "F#3",
                    "midi": 54,
                    "time": 96.54267625000169,
                    "velocity": 0.3779527559055118,
                    "duration": 0.07324937500000317
                },
                {
                    "name": "B3",
                    "midi": 59,
                    "time": 96.54267625000169,
                    "velocity": 0.3779527559055118,
                    "duration": 0.07324937500000317
                },
                {
                    "name": "D4",
                    "midi": 62,
                    "time": 96.54267625000169,
                    "velocity": 0.4881889763779528,
                    "duration": 0.07324937500000317
                },
                {
                    "name": "G2",
                    "midi": 43,
                    "time": 96.6891750000017,
                    "velocity": 0.6062992125984252,
                    "duration": 0.07324937500000317
                },
                {
                    "name": "E4",
                    "midi": 64,
                    "time": 96.8356737500017,
                    "velocity": 0.4409448818897638,
                    "duration": 0.07324937500000317
                },
                {
                    "name": "B3",
                    "midi": 59,
                    "time": 96.8356737500017,
                    "velocity": 0.3464566929133858,
                    "duration": 0.07324937500000317
                },
                {
                    "name": "G3",
                    "midi": 55,
                    "time": 96.8356737500017,
                    "velocity": 0.3464566929133858,
                    "duration": 0.07324937500000317
                },
                {
                    "name": "G3",
                    "midi": 55,
                    "time": 96.98217250000171,
                    "velocity": 0.3937007874015748,
                    "duration": 0.07324937500000317
                },
                {
                    "name": "B3",
                    "midi": 59,
                    "time": 96.98217250000171,
                    "velocity": 0.3937007874015748,
                    "duration": 0.07324937500000317
                },
                {
                    "name": "E4",
                    "midi": 64,
                    "time": 96.98217250000171,
                    "velocity": 0.49606299212598426,
                    "duration": 0.07324937500000317
                },
                {
                    "name": "G3",
                    "midi": 55,
                    "time": 97.12867125000172,
                    "velocity": 0.3779527559055118,
                    "duration": 0.07324937500000317
                },
                {
                    "name": "B3",
                    "midi": 59,
                    "time": 97.12867125000172,
                    "velocity": 0.3779527559055118,
                    "duration": 0.07324937500000317
                },
                {
                    "name": "E4",
                    "midi": 64,
                    "time": 97.12867125000172,
                    "velocity": 0.4645669291338583,
                    "duration": 0.07324937500000317
                },
                {
                    "name": "G3",
                    "midi": 55,
                    "time": 97.27517000000172,
                    "velocity": 0.4094488188976378,
                    "duration": 0.07324937500000317
                },
                {
                    "name": "B3",
                    "midi": 59,
                    "time": 97.27517000000172,
                    "velocity": 0.4094488188976378,
                    "duration": 0.07324937500000317
                },
                {
                    "name": "E4",
                    "midi": 64,
                    "time": 97.27517000000172,
                    "velocity": 0.5118110236220472,
                    "duration": 0.07324937500000317
                },
                {
                    "name": "G3",
                    "midi": 55,
                    "time": 97.42166875000173,
                    "velocity": 0.4645669291338583,
                    "duration": 0.07324937500000317
                },
                {
                    "name": "B3",
                    "midi": 59,
                    "time": 97.42166875000173,
                    "velocity": 0.4645669291338583,
                    "duration": 0.07324937500000317
                },
                {
                    "name": "E4",
                    "midi": 64,
                    "time": 97.42166875000173,
                    "velocity": 0.5905511811023622,
                    "duration": 0.07324937500000317
                },
                {
                    "name": "F#2",
                    "midi": 42,
                    "time": 97.56816750000173,
                    "velocity": 0.6535433070866141,
                    "duration": 0.07324937500000317
                },
                {
                    "name": "F#3",
                    "midi": 54,
                    "time": 97.71466625000174,
                    "velocity": 0.4330708661417323,
                    "duration": 0.07324937500000317
                },
                {
                    "name": "A#3",
                    "midi": 58,
                    "time": 97.71466625000174,
                    "velocity": 0.4330708661417323,
                    "duration": 0.07324937500000317
                },
                {
                    "name": "E4",
                    "midi": 64,
                    "time": 97.71466625000174,
                    "velocity": 0.5118110236220472,
                    "duration": 0.07324937500000317
                },
                {
                    "name": "F#3",
                    "midi": 54,
                    "time": 97.86116500000175,
                    "velocity": 0.48031496062992124,
                    "duration": 0.07324937500000317
                },
                {
                    "name": "A#3",
                    "midi": 58,
                    "time": 97.86116500000175,
                    "velocity": 0.48031496062992124,
                    "duration": 0.07324937500000317
                },
                {
                    "name": "E4",
                    "midi": 64,
                    "time": 97.86116500000175,
                    "velocity": 0.5669291338582677,
                    "duration": 0.07324937500000317
                },
                {
                    "name": "F#3",
                    "midi": 54,
                    "time": 98.00766375000175,
                    "velocity": 0.41732283464566927,
                    "duration": 0.07324937500000317
                },
                {
                    "name": "A#3",
                    "midi": 58,
                    "time": 98.00766375000175,
                    "velocity": 0.41732283464566927,
                    "duration": 0.07324937500000317
                },
                {
                    "name": "E4",
                    "midi": 64,
                    "time": 98.00766375000175,
                    "velocity": 0.49606299212598426,
                    "duration": 0.07324937500000317
                },
                {
                    "name": "F#3",
                    "midi": 54,
                    "time": 98.15416250000176,
                    "velocity": 0.4566929133858268,
                    "duration": 0.07324937500000317
                },
                {
                    "name": "A#3",
                    "midi": 58,
                    "time": 98.15416250000176,
                    "velocity": 0.5433070866141733,
                    "duration": 0.07324937500000317
                },
                {
                    "name": "E4",
                    "midi": 64,
                    "time": 98.15416250000176,
                    "velocity": 0.5433070866141733,
                    "duration": 0.07324937500000317
                },
                {
                    "name": "F#3",
                    "midi": 54,
                    "time": 98.30066125000177,
                    "velocity": 0.4015748031496063,
                    "duration": 0.07324937500000317
                },
                {
                    "name": "A#3",
                    "midi": 58,
                    "time": 98.30066125000177,
                    "velocity": 0.48031496062992124,
                    "duration": 0.07324937500000317
                },
                {
                    "name": "E4",
                    "midi": 64,
                    "time": 98.30066125000177,
                    "velocity": 0.48031496062992124,
                    "duration": 0.07324937500000317
                },
                {
                    "name": "E4",
                    "midi": 64,
                    "time": 98.44716000000177,
                    "velocity": 0.5039370078740157,
                    "duration": 0.07324937500000317
                },
                {
                    "name": "A#3",
                    "midi": 58,
                    "time": 98.44716000000177,
                    "velocity": 0.4251968503937008,
                    "duration": 0.07324937500000317
                },
                {
                    "name": "F#3",
                    "midi": 54,
                    "time": 98.44716000000177,
                    "velocity": 0.4251968503937008,
                    "duration": 0.07324937500000317
                },
                {
                    "name": "E4",
                    "midi": 64,
                    "time": 98.59365875000178,
                    "velocity": 0.4566929133858268,
                    "duration": 0.07324937500000317
                },
                {
                    "name": "A#3",
                    "midi": 58,
                    "time": 98.59365875000178,
                    "velocity": 0.3858267716535433,
                    "duration": 0.07324937500000317
                },
                {
                    "name": "F#3",
                    "midi": 54,
                    "time": 98.59365875000178,
                    "velocity": 0.3858267716535433,
                    "duration": 0.07324937500000317
                },
                {
                    "name": "F#4",
                    "midi": 66,
                    "time": 98.74015750000179,
                    "velocity": 0.4881889763779528,
                    "duration": 0.07324937500000317
                },
                {
                    "name": "E4",
                    "midi": 64,
                    "time": 98.74015750000179,
                    "velocity": 0.4094488188976378,
                    "duration": 0.07324937500000317
                },
                {
                    "name": "A#3",
                    "midi": 58,
                    "time": 98.74015750000179,
                    "velocity": 0.4094488188976378,
                    "duration": 0.07324937500000317
                },
                {
                    "name": "F#3",
                    "midi": 54,
                    "time": 98.74015750000179,
                    "velocity": 0.4094488188976378,
                    "duration": 0.07324937500000317
                },
                {
                    "name": "F#4",
                    "midi": 66,
                    "time": 98.88665625000179,
                    "velocity": 0.5118110236220472,
                    "duration": 0.07324937500000317
                },
                {
                    "name": "E4",
                    "midi": 64,
                    "time": 98.88665625000179,
                    "velocity": 0.4330708661417323,
                    "duration": 0.07324937500000317
                },
                {
                    "name": "A#3",
                    "midi": 58,
                    "time": 98.88665625000179,
                    "velocity": 0.4330708661417323,
                    "duration": 0.07324937500000317
                },
                {
                    "name": "F#3",
                    "midi": 54,
                    "time": 98.88665625000179,
                    "velocity": 0.4330708661417323,
                    "duration": 0.07324937500000317
                },
                {
                    "name": "F#4",
                    "midi": 66,
                    "time": 99.0331550000018,
                    "velocity": 0.5354330708661418,
                    "duration": 0.07324937500000317
                },
                {
                    "name": "E4",
                    "midi": 64,
                    "time": 99.0331550000018,
                    "velocity": 0.44881889763779526,
                    "duration": 0.07324937500000317
                },
                {
                    "name": "A#3",
                    "midi": 58,
                    "time": 99.0331550000018,
                    "velocity": 0.44881889763779526,
                    "duration": 0.07324937500000317
                },
                {
                    "name": "F#3",
                    "midi": 54,
                    "time": 99.0331550000018,
                    "velocity": 0.44881889763779526,
                    "duration": 0.07324937500000317
                },
                {
                    "name": "F#4",
                    "midi": 66,
                    "time": 99.1796537500018,
                    "velocity": 0.5669291338582677,
                    "duration": 0.07324937500000317
                },
                {
                    "name": "E4",
                    "midi": 64,
                    "time": 99.1796537500018,
                    "velocity": 0.48031496062992124,
                    "duration": 0.07324937500000317
                },
                {
                    "name": "A#3",
                    "midi": 58,
                    "time": 99.1796537500018,
                    "velocity": 0.48031496062992124,
                    "duration": 0.07324937500000317
                },
                {
                    "name": "F#3",
                    "midi": 54,
                    "time": 99.1796537500018,
                    "velocity": 0.48031496062992124,
                    "duration": 0.07324937500000317
                },
                {
                    "name": "D4",
                    "midi": 62,
                    "time": 99.4726512500018,
                    "velocity": 0.5039370078740157,
                    "duration": 0.07324937500000317
                },
                {
                    "name": "B3",
                    "midi": 59,
                    "time": 99.4726512500018,
                    "velocity": 0.4251968503937008,
                    "duration": 0.07324937500000317
                },
                {
                    "name": "C#4",
                    "midi": 61,
                    "time": 99.7656487500018,
                    "velocity": 0.4566929133858268,
                    "duration": 0.07324937500000317
                },
                {
                    "name": "F#3",
                    "midi": 54,
                    "time": 99.7656487500018,
                    "velocity": 0.3858267716535433,
                    "duration": 0.07324937500000317
                },
                {
                    "name": "G3",
                    "midi": 55,
                    "time": 100.0586462500018,
                    "velocity": 0.4015748031496063,
                    "duration": 0.07324937500000317
                },
                {
                    "name": "B3",
                    "midi": 59,
                    "time": 100.0586462500018,
                    "velocity": 0.47244094488188976,
                    "duration": 0.07324937500000317
                },
                {
                    "name": "A3",
                    "midi": 57,
                    "time": 100.3516437500018,
                    "velocity": 0.5039370078740157,
                    "duration": 0.07324937500000317
                },
                {
                    "name": "D#3",
                    "midi": 51,
                    "time": 100.3516437500018,
                    "velocity": 0.4251968503937008,
                    "duration": 0.07324937500000317
                },
                {
                    "name": "G3",
                    "midi": 55,
                    "time": 100.6446412500018,
                    "velocity": 0.4566929133858268,
                    "duration": 0.07324937500000317
                },
                {
                    "name": "E3",
                    "midi": 52,
                    "time": 100.6446412500018,
                    "velocity": 0.3858267716535433,
                    "duration": 0.07324937500000317
                },
                {
                    "name": "D#3",
                    "midi": 51,
                    "time": 100.9376387500018,
                    "velocity": 0.4015748031496063,
                    "duration": 0.07324937500000317
                },
                {
                    "name": "A3",
                    "midi": 57,
                    "time": 100.9376387500018,
                    "velocity": 0.47244094488188976,
                    "duration": 0.07324937500000317
                },
                {
                    "name": "G3",
                    "midi": 55,
                    "time": 101.2306362500018,
                    "velocity": 0.5039370078740157,
                    "duration": 0.07324937500000317
                },
                {
                    "name": "E3",
                    "midi": 52,
                    "time": 101.2306362500018,
                    "velocity": 0.4251968503937008,
                    "duration": 0.07324937500000317
                },
                {
                    "name": "D4",
                    "midi": 62,
                    "time": 101.52363375000179,
                    "velocity": 0.4566929133858268,
                    "duration": 0.07324937500000317
                },
                {
                    "name": "G#3",
                    "midi": 56,
                    "time": 101.52363375000179,
                    "velocity": 0.3858267716535433,
                    "duration": 0.07324937500000317
                },
                {
                    "name": "A3",
                    "midi": 57,
                    "time": 101.81663125000179,
                    "velocity": 0.4015748031496063,
                    "duration": 0.07324937500000317
                },
                {
                    "name": "C#4",
                    "midi": 61,
                    "time": 101.81663125000179,
                    "velocity": 0.47244094488188976,
                    "duration": 0.07324937500000317
                },
                {
                    "name": "B3",
                    "midi": 59,
                    "time": 102.10962875000179,
                    "velocity": 0.5039370078740157,
                    "duration": 0.07324937500000317
                },
                {
                    "name": "F3",
                    "midi": 53,
                    "time": 102.10962875000179,
                    "velocity": 0.4251968503937008,
                    "duration": 0.07324937500000317
                },
                {
                    "name": "A3",
                    "midi": 57,
                    "time": 102.40262625000179,
                    "velocity": 0.4566929133858268,
                    "duration": 0.07324937500000317
                },
                {
                    "name": "F#3",
                    "midi": 54,
                    "time": 102.40262625000179,
                    "velocity": 0.3858267716535433,
                    "duration": 0.07324937500000317
                },
                {
                    "name": "F3",
                    "midi": 53,
                    "time": 102.69562375000179,
                    "velocity": 0.4015748031496063,
                    "duration": 0.07324937500000317
                },
                {
                    "name": "B3",
                    "midi": 59,
                    "time": 102.69562375000179,
                    "velocity": 0.47244094488188976,
                    "duration": 0.07324937500000317
                },
                {
                    "name": "A3",
                    "midi": 57,
                    "time": 102.98862125000178,
                    "velocity": 0.5039370078740157,
                    "duration": 0.07324937500000317
                },
                {
                    "name": "F#3",
                    "midi": 54,
                    "time": 102.98862125000178,
                    "velocity": 0.4251968503937008,
                    "duration": 0.07324937500000317
                },
                {
                    "name": "G#4",
                    "midi": 68,
                    "time": 103.28161875000178,
                    "velocity": 0.4566929133858268,
                    "duration": 0.07324937500000317
                },
                {
                    "name": "C#4",
                    "midi": 61,
                    "time": 103.28161875000178,
                    "velocity": 0.3858267716535433,
                    "duration": 0.07324937500000317
                },
                {
                    "name": "D4",
                    "midi": 62,
                    "time": 103.57461625000178,
                    "velocity": 0.4015748031496063,
                    "duration": 0.07324937500000317
                },
                {
                    "name": "F#4",
                    "midi": 66,
                    "time": 103.57461625000178,
                    "velocity": 0.47244094488188976,
                    "duration": 0.07324937500000317
                },
                {
                    "name": "E4",
                    "midi": 64,
                    "time": 103.86761375000178,
                    "velocity": 0.5039370078740157,
                    "duration": 0.07324937500000317
                },
                {
                    "name": "A#3",
                    "midi": 58,
                    "time": 103.86761375000178,
                    "velocity": 0.4251968503937008,
                    "duration": 0.07324937500000317
                },
                {
                    "name": "D4",
                    "midi": 62,
                    "time": 104.16061125000178,
                    "velocity": 0.4566929133858268,
                    "duration": 0.07324937500000317
                },
                {
                    "name": "B3",
                    "midi": 59,
                    "time": 104.16061125000178,
                    "velocity": 0.3858267716535433,
                    "duration": 0.07324937500000317
                },
                {
                    "name": "A#3",
                    "midi": 58,
                    "time": 104.45360875000178,
                    "velocity": 0.4015748031496063,
                    "duration": 0.07324937500000317
                },
                {
                    "name": "E4",
                    "midi": 64,
                    "time": 104.45360875000178,
                    "velocity": 0.47244094488188976,
                    "duration": 0.07324937500000317
                },
                {
                    "name": "D4",
                    "midi": 62,
                    "time": 104.74660625000178,
                    "velocity": 0.5039370078740157,
                    "duration": 0.07324937500000317
                },
                {
                    "name": "B3",
                    "midi": 59,
                    "time": 104.74660625000178,
                    "velocity": 0.4251968503937008,
                    "duration": 0.07324937500000317
                },
                {
                    "name": "F#3",
                    "midi": 54,
                    "time": 105.03960375000177,
                    "velocity": 0.4566929133858268,
                    "duration": 0.07324937500000317
                },
                {
                    "name": "D3",
                    "midi": 50,
                    "time": 105.03960375000177,
                    "velocity": 0.3858267716535433,
                    "duration": 0.07324937500000317
                },
                {
                    "name": "D#3",
                    "midi": 51,
                    "time": 105.33260125000177,
                    "velocity": 0.4015748031496063,
                    "duration": 0.07324937500000317
                },
                {
                    "name": "F#3",
                    "midi": 54,
                    "time": 105.33260125000177,
                    "velocity": 0.47244094488188976,
                    "duration": 0.07324937500000317
                },
                {
                    "name": "E3",
                    "midi": 52,
                    "time": 105.62559875000177,
                    "velocity": 0.4251968503937008,
                    "duration": 0.07324937500000317
                },
                {
                    "name": "B3",
                    "midi": 59,
                    "time": 105.62559875000177,
                    "velocity": 0.5039370078740157,
                    "duration": 0.07324937500000317
                },
                {
                    "name": "G3",
                    "midi": 55,
                    "time": 105.62559875000177,
                    "velocity": 0.4251968503937008,
                    "duration": 0.07324937500000317
                },
                {
                    "name": "B3",
                    "midi": 59,
                    "time": 105.91859625000177,
                    "velocity": 0.4566929133858268,
                    "duration": 0.07324937500000317
                },
                {
                    "name": "F#3",
                    "midi": 54,
                    "time": 105.91859625000177,
                    "velocity": 0.3858267716535433,
                    "duration": 0.07324937500000317
                },
                {
                    "name": "G3",
                    "midi": 55,
                    "time": 106.21159375000177,
                    "velocity": 0.4094488188976378,
                    "duration": 0.07324937500000317
                },
                {
                    "name": "B3",
                    "midi": 59,
                    "time": 106.21159375000177,
                    "velocity": 0.48031496062992124,
                    "duration": 0.07324937500000317
                },
                {
                    "name": "F#3",
                    "midi": 54,
                    "time": 106.50459125000177,
                    "velocity": 0.4330708661417323,
                    "duration": 0.07324937500000317
                },
                {
                    "name": "D4",
                    "midi": 62,
                    "time": 106.50459125000177,
                    "velocity": 0.5118110236220472,
                    "duration": 0.07324937500000317
                },
                {
                    "name": "B3",
                    "midi": 59,
                    "time": 106.50459125000177,
                    "velocity": 0.4330708661417323,
                    "duration": 0.07324937500000317
                },
                {
                    "name": "B3",
                    "midi": 59,
                    "time": 106.79758875000176,
                    "velocity": 0.4094488188976378,
                    "duration": 0.07324937500000317
                },
                {
                    "name": "D4",
                    "midi": 62,
                    "time": 106.79758875000176,
                    "velocity": 0.48031496062992124,
                    "duration": 0.07324937500000317
                },
                {
                    "name": "F#3",
                    "midi": 54,
                    "time": 106.79758875000176,
                    "velocity": 0.4094488188976378,
                    "duration": 0.07324937500000317
                },
                {
                    "name": "B3",
                    "midi": 59,
                    "time": 107.09058625000176,
                    "velocity": 0.4330708661417323,
                    "duration": 0.07324937500000317
                },
                {
                    "name": "F#3",
                    "midi": 54,
                    "time": 107.09058625000176,
                    "velocity": 0.4330708661417323,
                    "duration": 0.07324937500000317
                },
                {
                    "name": "D4",
                    "midi": 62,
                    "time": 107.09058625000176,
                    "velocity": 0.5039370078740157,
                    "duration": 0.07324937500000317
                },
                {
                    "name": "F#3",
                    "midi": 54,
                    "time": 107.38358375000176,
                    "velocity": 0.4566929133858268,
                    "duration": 0.07324937500000317
                },
                {
                    "name": "E4",
                    "midi": 64,
                    "time": 107.38358375000176,
                    "velocity": 0.5511811023622047,
                    "duration": 0.07324937500000317
                },
                {
                    "name": "A#3",
                    "midi": 58,
                    "time": 107.38358375000176,
                    "velocity": 0.4566929133858268,
                    "duration": 0.07324937500000317
                },
                {
                    "name": "B3",
                    "midi": 59,
                    "time": 107.67658125000176,
                    "velocity": 0.4251968503937008,
                    "duration": 0.07324937500000317
                },
                {
                    "name": "E4",
                    "midi": 64,
                    "time": 107.67658125000176,
                    "velocity": 0.5039370078740157,
                    "duration": 0.07324937500000317
                },
                {
                    "name": "F#3",
                    "midi": 54,
                    "time": 107.67658125000176,
                    "velocity": 0.4251968503937008,
                    "duration": 0.07324937500000317
                },
                {
                    "name": "C#4",
                    "midi": 61,
                    "time": 107.96957875000176,
                    "velocity": 0.44881889763779526,
                    "duration": 0.07324937500000317
                },
                {
                    "name": "F#3",
                    "midi": 54,
                    "time": 107.96957875000176,
                    "velocity": 0.44881889763779526,
                    "duration": 0.07324937500000317
                },
                {
                    "name": "E4",
                    "midi": 64,
                    "time": 107.96957875000176,
                    "velocity": 0.5275590551181102,
                    "duration": 0.07324937500000317
                },
                {
                    "name": "G2",
                    "midi": 43,
                    "time": 108.11607750000177,
                    "velocity": 0.7480314960629921,
                    "duration": 0.07324937500000317
                },
                {
                    "name": "D5",
                    "midi": 74,
                    "time": 108.26257625000177,
                    "velocity": 0.5669291338582677,
                    "duration": 0.07324937500000317
                },
                {
                    "name": "B4",
                    "midi": 71,
                    "time": 108.26257625000177,
                    "velocity": 0.5669291338582677,
                    "duration": 0.07324937500000317
                },
                {
                    "name": "G4",
                    "midi": 67,
                    "time": 108.26257625000177,
                    "velocity": 0.5669291338582677,
                    "duration": 0.07324937500000317
                },
                {
                    "name": "D4",
                    "midi": 62,
                    "time": 108.26257625000177,
                    "velocity": 0.4330708661417323,
                    "duration": 0.07324937500000317
                },
                {
                    "name": "G3",
                    "midi": 55,
                    "time": 108.26257625000177,
                    "velocity": 0.4330708661417323,
                    "duration": 0.07324937500000317
                },
                {
                    "name": "D5",
                    "midi": 74,
                    "time": 108.40907500000178,
                    "velocity": 0.6062992125984252,
                    "duration": 0.07324937500000317
                },
                {
                    "name": "B4",
                    "midi": 71,
                    "time": 108.40907500000178,
                    "velocity": 0.6062992125984252,
                    "duration": 0.07324937500000317
                },
                {
                    "name": "G4",
                    "midi": 67,
                    "time": 108.40907500000178,
                    "velocity": 0.6062992125984252,
                    "duration": 0.07324937500000317
                },
                {
                    "name": "D4",
                    "midi": 62,
                    "time": 108.40907500000178,
                    "velocity": 0.48031496062992124,
                    "duration": 0.07324937500000317
                },
                {
                    "name": "G3",
                    "midi": 55,
                    "time": 108.40907500000178,
                    "velocity": 0.48031496062992124,
                    "duration": 0.07324937500000317
                },
                {
                    "name": "D5",
                    "midi": 74,
                    "time": 108.55557375000178,
                    "velocity": 0.5748031496062992,
                    "duration": 0.07324937500000317
                },
                {
                    "name": "B4",
                    "midi": 71,
                    "time": 108.55557375000178,
                    "velocity": 0.5748031496062992,
                    "duration": 0.07324937500000317
                },
                {
                    "name": "G4",
                    "midi": 67,
                    "time": 108.55557375000178,
                    "velocity": 0.5748031496062992,
                    "duration": 0.07324937500000317
                },
                {
                    "name": "D4",
                    "midi": 62,
                    "time": 108.55557375000178,
                    "velocity": 0.5118110236220472,
                    "duration": 0.07324937500000317
                },
                {
                    "name": "G3",
                    "midi": 55,
                    "time": 108.55557375000178,
                    "velocity": 0.5118110236220472,
                    "duration": 0.07324937500000317
                },
                {
                    "name": "D5",
                    "midi": 74,
                    "time": 108.70207250000179,
                    "velocity": 0.5905511811023622,
                    "duration": 0.07324937500000317
                },
                {
                    "name": "B4",
                    "midi": 71,
                    "time": 108.70207250000179,
                    "velocity": 0.5905511811023622,
                    "duration": 0.07324937500000317
                },
                {
                    "name": "G4",
                    "midi": 67,
                    "time": 108.70207250000179,
                    "velocity": 0.6614173228346457,
                    "duration": 0.07324937500000317
                },
                {
                    "name": "D4",
                    "midi": 62,
                    "time": 108.70207250000179,
                    "velocity": 0.5196850393700787,
                    "duration": 0.07324937500000317
                },
                {
                    "name": "G3",
                    "midi": 55,
                    "time": 108.70207250000179,
                    "velocity": 0.5196850393700787,
                    "duration": 0.07324937500000317
                },
                {
                    "name": "D5",
                    "midi": 74,
                    "time": 108.8485712500018,
                    "velocity": 0.5590551181102362,
                    "duration": 0.07324937500000317
                },
                {
                    "name": "B4",
                    "midi": 71,
                    "time": 108.8485712500018,
                    "velocity": 0.5590551181102362,
                    "duration": 0.07324937500000317
                },
                {
                    "name": "G3",
                    "midi": 55,
                    "time": 108.8485712500018,
                    "velocity": 0.4330708661417323,
                    "duration": 0.07324937500000317
                },
                {
                    "name": "D4",
                    "midi": 62,
                    "time": 108.8485712500018,
                    "velocity": 0.4330708661417323,
                    "duration": 0.07324937500000317
                },
                {
                    "name": "G4",
                    "midi": 67,
                    "time": 108.8485712500018,
                    "velocity": 0.5590551181102362,
                    "duration": 0.07324937500000317
                },
                {
                    "name": "G4",
                    "midi": 67,
                    "time": 108.9950700000018,
                    "velocity": 0.5354330708661418,
                    "duration": 0.07324937500000317
                },
                {
                    "name": "F4",
                    "midi": 65,
                    "time": 108.9950700000018,
                    "velocity": 0.5354330708661418,
                    "duration": 0.07324937500000317
                },
                {
                    "name": "B4",
                    "midi": 71,
                    "time": 108.9950700000018,
                    "velocity": 0.5354330708661418,
                    "duration": 0.07324937500000317
                },
                {
                    "name": "D5",
                    "midi": 74,
                    "time": 108.9950700000018,
                    "velocity": 0.6771653543307087,
                    "duration": 0.07324937500000317
                },
                {
                    "name": "D4",
                    "midi": 62,
                    "time": 108.9950700000018,
                    "velocity": 0.5354330708661418,
                    "duration": 0.07324937500000317
                },
                {
                    "name": "G3",
                    "midi": 55,
                    "time": 108.9950700000018,
                    "velocity": 0.5354330708661418,
                    "duration": 0.07324937500000317
                },
                {
                    "name": "G4",
                    "midi": 67,
                    "time": 109.14156875000181,
                    "velocity": 0.4881889763779528,
                    "duration": 0.07324937500000317
                },
                {
                    "name": "F4",
                    "midi": 65,
                    "time": 109.14156875000181,
                    "velocity": 0.4881889763779528,
                    "duration": 0.07324937500000317
                },
                {
                    "name": "B4",
                    "midi": 71,
                    "time": 109.14156875000181,
                    "velocity": 0.4881889763779528,
                    "duration": 0.07324937500000317
                },
                {
                    "name": "D5",
                    "midi": 74,
                    "time": 109.14156875000181,
                    "velocity": 0.6299212598425197,
                    "duration": 0.07324937500000317
                },
                {
                    "name": "D4",
                    "midi": 62,
                    "time": 109.14156875000181,
                    "velocity": 0.4881889763779528,
                    "duration": 0.07324937500000317
                },
                {
                    "name": "G3",
                    "midi": 55,
                    "time": 109.14156875000181,
                    "velocity": 0.4881889763779528,
                    "duration": 0.07324937500000317
                },
                {
                    "name": "F4",
                    "midi": 65,
                    "time": 109.28806750000182,
                    "velocity": 0.5826771653543307,
                    "duration": 0.07324937500000317
                },
                {
                    "name": "D4",
                    "midi": 62,
                    "time": 109.28806750000182,
                    "velocity": 0.5354330708661418,
                    "duration": 0.07324937500000317
                },
                {
                    "name": "G4",
                    "midi": 67,
                    "time": 109.28806750000182,
                    "velocity": 0.6771653543307087,
                    "duration": 0.07324937500000317
                },
                {
                    "name": "G3",
                    "midi": 55,
                    "time": 109.28806750000182,
                    "velocity": 0.5354330708661418,
                    "duration": 0.07324937500000317
                },
                {
                    "name": "F4",
                    "midi": 65,
                    "time": 109.43456625000182,
                    "velocity": 0.5433070866141733,
                    "duration": 0.07324937500000317
                },
                {
                    "name": "G4",
                    "midi": 67,
                    "time": 109.43456625000182,
                    "velocity": 0.5433070866141733,
                    "duration": 0.07324937500000317
                },
                {
                    "name": "B4",
                    "midi": 71,
                    "time": 109.43456625000182,
                    "velocity": 0.5433070866141733,
                    "duration": 0.07324937500000317
                },
                {
                    "name": "D5",
                    "midi": 74,
                    "time": 109.43456625000182,
                    "velocity": 0.6220472440944882,
                    "duration": 0.07324937500000317
                },
                {
                    "name": "G3",
                    "midi": 55,
                    "time": 109.43456625000182,
                    "velocity": 0.5433070866141733,
                    "duration": 0.07324937500000317
                },
                {
                    "name": "D4",
                    "midi": 62,
                    "time": 109.43456625000182,
                    "velocity": 0.5433070866141733,
                    "duration": 0.07324937500000317
                },
                {
                    "name": "F4",
                    "midi": 65,
                    "time": 109.58106500000183,
                    "velocity": 0.5826771653543307,
                    "duration": 0.07324937500000317
                },
                {
                    "name": "G4",
                    "midi": 67,
                    "time": 109.58106500000183,
                    "velocity": 0.7401574803149606,
                    "duration": 0.07324937500000317
                },
                {
                    "name": "D4",
                    "midi": 62,
                    "time": 109.58106500000183,
                    "velocity": 0.5826771653543307,
                    "duration": 0.07324937500000317
                },
                {
                    "name": "G3",
                    "midi": 55,
                    "time": 109.58106500000183,
                    "velocity": 0.5826771653543307,
                    "duration": 0.07324937500000317
                },
                {
                    "name": "F4",
                    "midi": 65,
                    "time": 109.72756375000183,
                    "velocity": 0.4881889763779528,
                    "duration": 0.07324937500000317
                },
                {
                    "name": "G4",
                    "midi": 67,
                    "time": 109.72756375000183,
                    "velocity": 0.4881889763779528,
                    "duration": 0.07324937500000317
                },
                {
                    "name": "D4",
                    "midi": 62,
                    "time": 109.72756375000183,
                    "velocity": 0.4881889763779528,
                    "duration": 0.07324937500000317
                },
                {
                    "name": "D5",
                    "midi": 74,
                    "time": 109.72756375000183,
                    "velocity": 0.6220472440944882,
                    "duration": 0.07324937500000317
                },
                {
                    "name": "G3",
                    "midi": 55,
                    "time": 109.72756375000183,
                    "velocity": 0.4881889763779528,
                    "duration": 0.07324937500000317
                },
                {
                    "name": "C3",
                    "midi": 48,
                    "time": 109.87406250000184,
                    "velocity": 0.7480314960629921,
                    "duration": 0.07324937500000317
                },
                {
                    "name": "G3",
                    "midi": 55,
                    "time": 110.02056125000185,
                    "velocity": 0.47244094488188976,
                    "duration": 0.07324937500000317
                },
                {
                    "name": "G4",
                    "midi": 67,
                    "time": 110.02056125000185,
                    "velocity": 0.47244094488188976,
                    "duration": 0.07324937500000317
                },
                {
                    "name": "C5",
                    "midi": 72,
                    "time": 110.02056125000185,
                    "velocity": 0.6062992125984252,
                    "duration": 0.07324937500000317
                },
                {
                    "name": "E4",
                    "midi": 64,
                    "time": 110.02056125000185,
                    "velocity": 0.47244094488188976,
                    "duration": 0.07324937500000317
                },
                {
                    "name": "C4",
                    "midi": 60,
                    "time": 110.02056125000185,
                    "velocity": 0.47244094488188976,
                    "duration": 0.07324937500000317
                },
                {
                    "name": "G3",
                    "midi": 55,
                    "time": 110.16706000000185,
                    "velocity": 0.49606299212598426,
                    "duration": 0.07324937500000317
                },
                {
                    "name": "E4",
                    "midi": 64,
                    "time": 110.16706000000185,
                    "velocity": 0.6377952755905512,
                    "duration": 0.07324937500000317
                },
                {
                    "name": "C4",
                    "midi": 60,
                    "time": 110.16706000000185,
                    "velocity": 0.49606299212598426,
                    "duration": 0.07324937500000317
                },
                {
                    "name": "G3",
                    "midi": 55,
                    "time": 110.31355875000186,
                    "velocity": 0.5196850393700787,
                    "duration": 0.07324937500000317
                },
                {
                    "name": "E4",
                    "midi": 64,
                    "time": 110.31355875000186,
                    "velocity": 0.6456692913385826,
                    "duration": 0.07324937500000317
                },
                {
                    "name": "C4",
                    "midi": 60,
                    "time": 110.31355875000186,
                    "velocity": 0.5196850393700787,
                    "duration": 0.07324937500000317
                },
                {
                    "name": "G3",
                    "midi": 55,
                    "time": 110.46005750000187,
                    "velocity": 0.5039370078740157,
                    "duration": 0.07324937500000317
                },
                {
                    "name": "D#4",
                    "midi": 63,
                    "time": 110.46005750000187,
                    "velocity": 0.6377952755905512,
                    "duration": 0.07324937500000317
                },
                {
                    "name": "C4",
                    "midi": 60,
                    "time": 110.46005750000187,
                    "velocity": 0.5039370078740157,
                    "duration": 0.07324937500000317
                },
                {
                    "name": "G3",
                    "midi": 55,
                    "time": 110.60655625000187,
                    "velocity": 0.4015748031496063,
                    "duration": 0.07324937500000317
                },
                {
                    "name": "C4",
                    "midi": 60,
                    "time": 110.60655625000187,
                    "velocity": 0.4015748031496063,
                    "duration": 0.07324937500000317
                },
                {
                    "name": "D#4",
                    "midi": 63,
                    "time": 110.60655625000187,
                    "velocity": 0.5196850393700787,
                    "duration": 0.07324937500000317
                },
                {
                    "name": "D3",
                    "midi": 50,
                    "time": 110.75305500000188,
                    "velocity": 0.5905511811023622,
                    "duration": 0.07324937500000317
                },
                {
                    "name": "D4",
                    "midi": 62,
                    "time": 110.89955375000189,
                    "velocity": 0.3858267716535433,
                    "duration": 0.07324937500000317
                },
                {
                    "name": "G4",
                    "midi": 67,
                    "time": 110.89955375000189,
                    "velocity": 0.49606299212598426,
                    "duration": 0.07324937500000317
                },
                {
                    "name": "C4",
                    "midi": 60,
                    "time": 110.89955375000189,
                    "velocity": 0.3858267716535433,
                    "duration": 0.07324937500000317
                },
                {
                    "name": "A3",
                    "midi": 57,
                    "time": 110.89955375000189,
                    "velocity": 0.3858267716535433,
                    "duration": 0.07324937500000317
                },
                {
                    "name": "A3",
                    "midi": 57,
                    "time": 111.04605250000189,
                    "velocity": 0.41732283464566927,
                    "duration": 0.07324937500000317
                },
                {
                    "name": "D4",
                    "midi": 62,
                    "time": 111.04605250000189,
                    "velocity": 0.41732283464566927,
                    "duration": 0.07324937500000317
                },
                {
                    "name": "G4",
                    "midi": 67,
                    "time": 111.04605250000189,
                    "velocity": 0.5433070866141733,
                    "duration": 0.07324937500000317
                },
                {
                    "name": "C4",
                    "midi": 60,
                    "time": 111.04605250000189,
                    "velocity": 0.41732283464566927,
                    "duration": 0.07324937500000317
                },
                {
                    "name": "A3",
                    "midi": 57,
                    "time": 111.1925512500019,
                    "velocity": 0.4566929133858268,
                    "duration": 0.07324937500000317
                },
                {
                    "name": "D4",
                    "midi": 62,
                    "time": 111.1925512500019,
                    "velocity": 0.4566929133858268,
                    "duration": 0.07324937500000317
                },
                {
                    "name": "G4",
                    "midi": 67,
                    "time": 111.1925512500019,
                    "velocity": 0.5748031496062992,
                    "duration": 0.07324937500000317
                },
                {
                    "name": "C4",
                    "midi": 60,
                    "time": 111.1925512500019,
                    "velocity": 0.4566929133858268,
                    "duration": 0.07324937500000317
                },
                {
                    "name": "C4",
                    "midi": 60,
                    "time": 111.3390500000019,
                    "velocity": 0.4645669291338583,
                    "duration": 0.07324937500000317
                },
                {
                    "name": "D4",
                    "midi": 62,
                    "time": 111.3390500000019,
                    "velocity": 0.5826771653543307,
                    "duration": 0.07324937500000317
                },
                {
                    "name": "A3",
                    "midi": 57,
                    "time": 111.3390500000019,
                    "velocity": 0.4645669291338583,
                    "duration": 0.07324937500000317
                },
                {
                    "name": "D4",
                    "midi": 62,
                    "time": 111.48554875000191,
                    "velocity": 0.3858267716535433,
                    "duration": 0.07324937500000317
                },
                {
                    "name": "C4",
                    "midi": 60,
                    "time": 111.48554875000191,
                    "velocity": 0.3858267716535433,
                    "duration": 0.07324937500000317
                },
                {
                    "name": "F#4",
                    "midi": 66,
                    "time": 111.48554875000191,
                    "velocity": 0.3858267716535433,
                    "duration": 0.07324937500000317
                },
                {
                    "name": "A3",
                    "midi": 57,
                    "time": 111.48554875000191,
                    "velocity": 0.3858267716535433,
                    "duration": 0.07324937500000317
                },
                {
                    "name": "A4",
                    "midi": 69,
                    "time": 111.48554875000191,
                    "velocity": 0.4881889763779528,
                    "duration": 0.07324937500000317
                },
                {
                    "name": "G3",
                    "midi": 55,
                    "time": 111.63204750000192,
                    "velocity": 0.5905511811023622,
                    "duration": 0.07324937500000317
                },
                {
                    "name": "D4",
                    "midi": 62,
                    "time": 111.77854625000192,
                    "velocity": 0.3858267716535433,
                    "duration": 0.07324937500000317
                },
                {
                    "name": "G4",
                    "midi": 67,
                    "time": 111.77854625000192,
                    "velocity": 0.49606299212598426,
                    "duration": 0.07324937500000317
                },
                {
                    "name": "B3",
                    "midi": 59,
                    "time": 111.77854625000192,
                    "velocity": 0.3858267716535433,
                    "duration": 0.07324937500000317
                },
                {
                    "name": "B3",
                    "midi": 59,
                    "time": 111.92504500000193,
                    "velocity": 0.41732283464566927,
                    "duration": 0.07324937500000317
                },
                {
                    "name": "D4",
                    "midi": 62,
                    "time": 111.92504500000193,
                    "velocity": 0.41732283464566927,
                    "duration": 0.07324937500000317
                },
                {
                    "name": "G4",
                    "midi": 67,
                    "time": 111.92504500000193,
                    "velocity": 0.5433070866141733,
                    "duration": 0.07324937500000317
                },
                {
                    "name": "B3",
                    "midi": 59,
                    "time": 112.07154375000194,
                    "velocity": 0.4566929133858268,
                    "duration": 0.07324937500000317
                },
                {
                    "name": "D4",
                    "midi": 62,
                    "time": 112.07154375000194,
                    "velocity": 0.4566929133858268,
                    "duration": 0.07324937500000317
                },
                {
                    "name": "G4",
                    "midi": 67,
                    "time": 112.07154375000194,
                    "velocity": 0.5748031496062992,
                    "duration": 0.07324937500000317
                },
                {
                    "name": "D4",
                    "midi": 62,
                    "time": 112.21804250000194,
                    "velocity": 0.4645669291338583,
                    "duration": 0.07324937500000317
                },
                {
                    "name": "G4",
                    "midi": 67,
                    "time": 112.21804250000194,
                    "velocity": 0.5826771653543307,
                    "duration": 0.07324937500000317
                },
                {
                    "name": "B3",
                    "midi": 59,
                    "time": 112.21804250000194,
                    "velocity": 0.4645669291338583,
                    "duration": 0.07324937500000317
                },
                {
                    "name": "D4",
                    "midi": 62,
                    "time": 112.36454125000195,
                    "velocity": 0.3858267716535433,
                    "duration": 0.07324937500000317
                },
                {
                    "name": "B3",
                    "midi": 59,
                    "time": 112.36454125000195,
                    "velocity": 0.3858267716535433,
                    "duration": 0.07324937500000317
                },
                {
                    "name": "G4",
                    "midi": 67,
                    "time": 112.36454125000195,
                    "velocity": 0.4881889763779528,
                    "duration": 0.07324937500000317
                },
                {
                    "name": "G2",
                    "midi": 43,
                    "time": 112.51104000000196,
                    "velocity": 0.5905511811023622,
                    "duration": 0.07324937500000317
                },
                {
                    "name": "F4",
                    "midi": 65,
                    "time": 112.65753875000196,
                    "velocity": 0.4566929133858268,
                    "duration": 0.07324937500000317
                },
                {
                    "name": "G3",
                    "midi": 55,
                    "time": 112.65753875000196,
                    "velocity": 0.4566929133858268,
                    "duration": 0.07324937500000317
                },
                {
                    "name": "G4",
                    "midi": 67,
                    "time": 112.65753875000196,
                    "velocity": 0.4566929133858268,
                    "duration": 0.07324937500000317
                },
                {
                    "name": "B4",
                    "midi": 71,
                    "time": 112.65753875000196,
                    "velocity": 0.4566929133858268,
                    "duration": 0.07324937500000317
                },
                {
                    "name": "D5",
                    "midi": 74,
                    "time": 112.65753875000196,
                    "velocity": 0.5984251968503937,
                    "duration": 0.07324937500000317
                },
                {
                    "name": "D4",
                    "midi": 62,
                    "time": 112.65753875000196,
                    "velocity": 0.4566929133858268,
                    "duration": 0.07324937500000317
                },
                {
                    "name": "F4",
                    "midi": 65,
                    "time": 112.80403750000197,
                    "velocity": 0.6062992125984252,
                    "duration": 0.07324937500000317
                },
                {
                    "name": "G3",
                    "midi": 55,
                    "time": 112.80403750000197,
                    "velocity": 0.48031496062992124,
                    "duration": 0.07324937500000317
                },
                {
                    "name": "D4",
                    "midi": 62,
                    "time": 112.80403750000197,
                    "velocity": 0.48031496062992124,
                    "duration": 0.07324937500000317
                },
                {
                    "name": "G4",
                    "midi": 67,
                    "time": 112.80403750000197,
                    "velocity": 0.6062992125984252,
                    "duration": 0.07324937500000317
                },
                {
                    "name": "F4",
                    "midi": 65,
                    "time": 112.95053625000197,
                    "velocity": 0.5433070866141733,
                    "duration": 0.07324937500000317
                },
                {
                    "name": "G3",
                    "midi": 55,
                    "time": 112.95053625000197,
                    "velocity": 0.5433070866141733,
                    "duration": 0.07324937500000317
                },
                {
                    "name": "G4",
                    "midi": 67,
                    "time": 112.95053625000197,
                    "velocity": 0.5433070866141733,
                    "duration": 0.07324937500000317
                },
                {
                    "name": "B4",
                    "midi": 71,
                    "time": 112.95053625000197,
                    "velocity": 0.5433070866141733,
                    "duration": 0.07324937500000317
                },
                {
                    "name": "D5",
                    "midi": 74,
                    "time": 112.95053625000197,
                    "velocity": 0.6141732283464567,
                    "duration": 0.07324937500000317
                },
                {
                    "name": "D4",
                    "midi": 62,
                    "time": 112.95053625000197,
                    "velocity": 0.5433070866141733,
                    "duration": 0.07324937500000317
                },
                {
                    "name": "F4",
                    "midi": 65,
                    "time": 113.09703500000198,
                    "velocity": 0.6535433070866141,
                    "duration": 0.07324937500000317
                },
                {
                    "name": "G3",
                    "midi": 55,
                    "time": 113.09703500000198,
                    "velocity": 0.5196850393700787,
                    "duration": 0.07324937500000317
                },
                {
                    "name": "G4",
                    "midi": 67,
                    "time": 113.09703500000198,
                    "velocity": 0.6614173228346457,
                    "duration": 0.07324937500000317
                },
                {
                    "name": "D4",
                    "midi": 62,
                    "time": 113.09703500000198,
                    "velocity": 0.5196850393700787,
                    "duration": 0.07324937500000317
                },
                {
                    "name": "F4",
                    "midi": 65,
                    "time": 113.24353375000199,
                    "velocity": 0.4881889763779528,
                    "duration": 0.07324937500000317
                },
                {
                    "name": "B4",
                    "midi": 71,
                    "time": 113.24353375000199,
                    "velocity": 0.4881889763779528,
                    "duration": 0.07324937500000317
                },
                {
                    "name": "G3",
                    "midi": 55,
                    "time": 113.24353375000199,
                    "velocity": 0.4881889763779528,
                    "duration": 0.07324937500000317
                },
                {
                    "name": "G4",
                    "midi": 67,
                    "time": 113.24353375000199,
                    "velocity": 0.4881889763779528,
                    "duration": 0.07324937500000317
                },
                {
                    "name": "D4",
                    "midi": 62,
                    "time": 113.24353375000199,
                    "velocity": 0.4881889763779528,
                    "duration": 0.07324937500000317
                },
                {
                    "name": "D5",
                    "midi": 74,
                    "time": 113.24353375000199,
                    "velocity": 0.6220472440944882,
                    "duration": 0.07324937500000317
                },
                {
                    "name": "C3",
                    "midi": 48,
                    "time": 113.390032500002,
                    "velocity": 0.7480314960629921,
                    "duration": 0.07324937500000317
                },
                {
                    "name": "G4",
                    "midi": 67,
                    "time": 113.536531250002,
                    "velocity": 0.44881889763779526,
                    "duration": 0.07324937500000317
                },
                {
                    "name": "C5",
                    "midi": 72,
                    "time": 113.536531250002,
                    "velocity": 0.44881889763779526,
                    "duration": 0.07324937500000317
                },
                {
                    "name": "G3",
                    "midi": 55,
                    "time": 113.536531250002,
                    "velocity": 0.44881889763779526,
                    "duration": 0.07324937500000317
                },
                {
                    "name": "E4",
                    "midi": 64,
                    "time": 113.536531250002,
                    "velocity": 0.44881889763779526,
                    "duration": 0.07324937500000317
                },
                {
                    "name": "C4",
                    "midi": 60,
                    "time": 113.536531250002,
                    "velocity": 0.44881889763779526,
                    "duration": 0.07324937500000317
                },
                {
                    "name": "G3",
                    "midi": 55,
                    "time": 113.683030000002,
                    "velocity": 0.44881889763779526,
                    "duration": 0.07324937500000317
                },
                {
                    "name": "E4",
                    "midi": 64,
                    "time": 113.683030000002,
                    "velocity": 0.5748031496062992,
                    "duration": 0.07324937500000317
                },
                {
                    "name": "C4",
                    "midi": 60,
                    "time": 113.683030000002,
                    "velocity": 0.44881889763779526,
                    "duration": 0.07324937500000317
                },
                {
                    "name": "G3",
                    "midi": 55,
                    "time": 113.82952875000201,
                    "velocity": 0.4409448818897638,
                    "duration": 0.07324937500000317
                },
                {
                    "name": "E4",
                    "midi": 64,
                    "time": 113.82952875000201,
                    "velocity": 0.5511811023622047,
                    "duration": 0.07324937500000317
                },
                {
                    "name": "C4",
                    "midi": 60,
                    "time": 113.82952875000201,
                    "velocity": 0.4409448818897638,
                    "duration": 0.07324937500000317
                },
                {
                    "name": "G3",
                    "midi": 55,
                    "time": 113.97602750000202,
                    "velocity": 0.41732283464566927,
                    "duration": 0.07324937500000317
                },
                {
                    "name": "E4",
                    "midi": 64,
                    "time": 113.97602750000202,
                    "velocity": 0.5196850393700787,
                    "duration": 0.07324937500000317
                },
                {
                    "name": "C4",
                    "midi": 60,
                    "time": 113.97602750000202,
                    "velocity": 0.41732283464566927,
                    "duration": 0.07324937500000317
                },
                {
                    "name": "G3",
                    "midi": 55,
                    "time": 114.12252625000202,
                    "velocity": 0.30708661417322836,
                    "duration": 0.07324937500000317
                },
                {
                    "name": "C4",
                    "midi": 60,
                    "time": 114.12252625000202,
                    "velocity": 0.30708661417322836,
                    "duration": 0.07324937500000317
                },
                {
                    "name": "E4",
                    "midi": 64,
                    "time": 114.12252625000202,
                    "velocity": 0.4015748031496063,
                    "duration": 0.07324937500000317
                },
                {
                    "name": "C3",
                    "midi": 48,
                    "time": 114.26902500000203,
                    "velocity": 0.4330708661417323,
                    "duration": 1.4649875000000634
                },
                {
                    "name": "C4",
                    "midi": 60,
                    "time": 114.41552375000204,
                    "velocity": 0.3464566929133858,
                    "duration": 0.07324937500000317
                },
                {
                    "name": "F4",
                    "midi": 65,
                    "time": 114.41552375000204,
                    "velocity": 0.3464566929133858,
                    "duration": 0.07324937500000317
                },
                {
                    "name": "C4",
                    "midi": 60,
                    "time": 114.56202250000204,
                    "velocity": 0.3464566929133858,
                    "duration": 0.07324937500000317
                },
                {
                    "name": "F4",
                    "midi": 65,
                    "time": 114.56202250000204,
                    "velocity": 0.4645669291338583,
                    "duration": 0.07324937500000317
                },
                {
                    "name": "A3",
                    "midi": 57,
                    "time": 114.56202250000204,
                    "velocity": 0.3937007874015748,
                    "duration": 0.2929975000000127
                },
                {
                    "name": "C4",
                    "midi": 60,
                    "time": 114.70852125000205,
                    "velocity": 0.3464566929133858,
                    "duration": 0.07324937500000317
                },
                {
                    "name": "F4",
                    "midi": 65,
                    "time": 114.70852125000205,
                    "velocity": 0.3464566929133858,
                    "duration": 0.07324937500000317
                },
                {
                    "name": "G#3",
                    "midi": 56,
                    "time": 114.85502000000206,
                    "velocity": 0.4251968503937008,
                    "duration": 0.2929975000000127
                },
                {
                    "name": "C4",
                    "midi": 60,
                    "time": 115.00151875000206,
                    "velocity": 0.3464566929133858,
                    "duration": 0.07324937500000317
                },
                {
                    "name": "F4",
                    "midi": 65,
                    "time": 115.00151875000206,
                    "velocity": 0.3464566929133858,
                    "duration": 0.07324937500000317
                },
                {
                    "name": "G3",
                    "midi": 55,
                    "time": 115.14801750000207,
                    "velocity": 0.4251968503937008,
                    "duration": 0.5859950000000254
                },
                {
                    "name": "C4",
                    "midi": 60,
                    "time": 115.29451625000208,
                    "velocity": 0.3464566929133858,
                    "duration": 0.07324937500000317
                },
                {
                    "name": "E4",
                    "midi": 64,
                    "time": 115.29451625000208,
                    "velocity": 0.3464566929133858,
                    "duration": 0.07324937500000317
                },
                {
                    "name": "C4",
                    "midi": 60,
                    "time": 115.44101500000208,
                    "velocity": 0.3464566929133858,
                    "duration": 0.07324937500000317
                },
                {
                    "name": "E4",
                    "midi": 64,
                    "time": 115.44101500000208,
                    "velocity": 0.4645669291338583,
                    "duration": 0.07324937500000317
                },
                {
                    "name": "C4",
                    "midi": 60,
                    "time": 115.58751375000209,
                    "velocity": 0.3464566929133858,
                    "duration": 0.07324937500000317
                },
                {
                    "name": "E4",
                    "midi": 64,
                    "time": 115.58751375000209,
                    "velocity": 0.3464566929133858,
                    "duration": 0.07324937500000317
                },
                {
                    "name": "C4",
                    "midi": 60,
                    "time": 115.8805112500021,
                    "velocity": 0.29133858267716534,
                    "duration": 0.07324937500000317
                },
                {
                    "name": "E4",
                    "midi": 64,
                    "time": 115.8805112500021,
                    "velocity": 0.29133858267716534,
                    "duration": 0.07324937500000317
                },
                {
                    "name": "F3",
                    "midi": 53,
                    "time": 116.02701000000211,
                    "velocity": 0.36220472440944884,
                    "duration": 0.878992500000038
                },
                {
                    "name": "C3",
                    "midi": 48,
                    "time": 116.02701000000211,
                    "velocity": 0.36220472440944884,
                    "duration": 1.757985000000076
                },
                {
                    "name": "C4",
                    "midi": 60,
                    "time": 116.17350875000211,
                    "velocity": 0.29133858267716534,
                    "duration": 0.07324937500000317
                },
                {
                    "name": "F4",
                    "midi": 65,
                    "time": 116.17350875000211,
                    "velocity": 0.29133858267716534,
                    "duration": 0.07324937500000317
                },
                {
                    "name": "C4",
                    "midi": 60,
                    "time": 116.32000750000212,
                    "velocity": 0.29133858267716534,
                    "duration": 0.07324937500000317
                },
                {
                    "name": "F4",
                    "midi": 65,
                    "time": 116.32000750000212,
                    "velocity": 0.3937007874015748,
                    "duration": 0.07324937500000317
                },
                {
                    "name": "A3",
                    "midi": 57,
                    "time": 116.32000750000212,
                    "velocity": 0.33070866141732286,
                    "duration": 0.2929975000000127
                },
                {
                    "name": "C4",
                    "midi": 60,
                    "time": 116.46650625000213,
                    "velocity": 0.29133858267716534,
                    "duration": 0.07324937500000317
                },
                {
                    "name": "F4",
                    "midi": 65,
                    "time": 116.46650625000213,
                    "velocity": 0.29133858267716534,
                    "duration": 0.07324937500000317
                },
                {
                    "name": "G#3",
                    "midi": 56,
                    "time": 116.61300500000213,
                    "velocity": 0.3543307086614173,
                    "duration": 0.2929975000000127
                },
                {
                    "name": "C4",
                    "midi": 60,
                    "time": 116.75950375000214,
                    "velocity": 0.29133858267716534,
                    "duration": 0.07324937500000317
                },
                {
                    "name": "F4",
                    "midi": 65,
                    "time": 116.75950375000214,
                    "velocity": 0.29133858267716534,
                    "duration": 0.07324937500000317
                },
                {
                    "name": "E3",
                    "midi": 52,
                    "time": 116.90600250000215,
                    "velocity": 0.36220472440944884,
                    "duration": 0.878992500000038
                },
                {
                    "name": "G3",
                    "midi": 55,
                    "time": 116.90600250000215,
                    "velocity": 0.36220472440944884,
                    "duration": 0.878992500000038
                },
                {
                    "name": "C4",
                    "midi": 60,
                    "time": 117.05250125000215,
                    "velocity": 0.2440944881889764,
                    "duration": 0.07324937500000317
                },
                {
                    "name": "E4",
                    "midi": 64,
                    "time": 117.05250125000215,
                    "velocity": 0.29133858267716534,
                    "duration": 0.07324937500000317
                },
                {
                    "name": "C4",
                    "midi": 60,
                    "time": 117.19900000000216,
                    "velocity": 0.25196850393700787,
                    "duration": 0.07324937500000317
                },
                {
                    "name": "E4",
                    "midi": 64,
                    "time": 117.19900000000216,
                    "velocity": 0.4015748031496063,
                    "duration": 0.07324937500000317
                },
                {
                    "name": "C4",
                    "midi": 60,
                    "time": 117.34549875000216,
                    "velocity": 0.25984251968503935,
                    "duration": 0.07324937500000317
                },
                {
                    "name": "E4",
                    "midi": 64,
                    "time": 117.34549875000216,
                    "velocity": 0.30708661417322836,
                    "duration": 0.07324937500000317
                },
                {
                    "name": "C4",
                    "midi": 60,
                    "time": 117.49199750000217,
                    "velocity": 0.36220472440944884,
                    "duration": 0.07324937500000317
                },
                {
                    "name": "E4",
                    "midi": 64,
                    "time": 117.49199750000217,
                    "velocity": 0.4330708661417323,
                    "duration": 0.07324937500000317
                },
                {
                    "name": "C4",
                    "midi": 60,
                    "time": 117.63849625000218,
                    "velocity": 0.2677165354330709,
                    "duration": 0.07324937500000317
                },
                {
                    "name": "E4",
                    "midi": 64,
                    "time": 117.63849625000218,
                    "velocity": 0.3228346456692913,
                    "duration": 0.07324937500000317
                },
                {
                    "name": "E4",
                    "midi": 64,
                    "time": 117.78499500000218,
                    "velocity": 0.33858267716535434,
                    "duration": 0.07324937500000317
                },
                {
                    "name": "C4",
                    "midi": 60,
                    "time": 117.78499500000218,
                    "velocity": 0.2755905511811024,
                    "duration": 0.07324937500000317
                },
                {
                    "name": "C4",
                    "midi": 60,
                    "time": 117.93149375000219,
                    "velocity": 0.29133858267716534,
                    "duration": 0.07324937500000317
                },
                {
                    "name": "E4",
                    "midi": 64,
                    "time": 117.93149375000219,
                    "velocity": 0.3464566929133858,
                    "duration": 0.07324937500000317
                },
                {
                    "name": "C4",
                    "midi": 60,
                    "time": 118.0779925000022,
                    "velocity": 0.2992125984251969,
                    "duration": 0.07324937500000317
                },
                {
                    "name": "E4",
                    "midi": 64,
                    "time": 118.0779925000022,
                    "velocity": 0.3543307086614173,
                    "duration": 0.07324937500000317
                },
                {
                    "name": "C4",
                    "midi": 60,
                    "time": 118.2244912500022,
                    "velocity": 0.30708661417322836,
                    "duration": 0.07324937500000317
                },
                {
                    "name": "E4",
                    "midi": 64,
                    "time": 118.2244912500022,
                    "velocity": 0.36220472440944884,
                    "duration": 0.07324937500000317
                },
                {
                    "name": "E4",
                    "midi": 64,
                    "time": 118.5174887500022,
                    "velocity": 0.31496062992125984,
                    "duration": 0.07324937500000317
                },
                {
                    "name": "G4",
                    "midi": 67,
                    "time": 118.5174887500022,
                    "velocity": 0.31496062992125984,
                    "duration": 0.07324937500000317
                },
                {
                    "name": "D#4",
                    "midi": 63,
                    "time": 118.8104862500022,
                    "velocity": 0.2677165354330709,
                    "duration": 0.07324937500000317
                },
                {
                    "name": "F#4",
                    "midi": 66,
                    "time": 118.8104862500022,
                    "velocity": 0.31496062992125984,
                    "duration": 0.07324937500000317
                },
                {
                    "name": "D#2",
                    "midi": 39,
                    "time": 118.9569850000022,
                    "velocity": 0.4251968503937008,
                    "duration": 0.2929975000000127
                },
                {
                    "name": "D#3",
                    "midi": 51,
                    "time": 118.9569850000022,
                    "velocity": 0.44881889763779526,
                    "duration": 0.2929975000000127
                },
                {
                    "name": "D#4",
                    "midi": 63,
                    "time": 118.9569850000022,
                    "velocity": 0.2755905511811024,
                    "duration": 0.07324937500000317
                },
                {
                    "name": "F#4",
                    "midi": 66,
                    "time": 118.9569850000022,
                    "velocity": 0.4409448818897638,
                    "duration": 0.07324937500000317
                },
                {
                    "name": "D#4",
                    "midi": 63,
                    "time": 119.10348375000221,
                    "velocity": 0.28346456692913385,
                    "duration": 0.07324937500000317
                },
                {
                    "name": "F#4",
                    "midi": 66,
                    "time": 119.10348375000221,
                    "velocity": 0.33070866141732286,
                    "duration": 0.07324937500000317
                },
                {
                    "name": "C4",
                    "midi": 60,
                    "time": 119.39648125000222,
                    "velocity": 0.29133858267716534,
                    "duration": 0.07324937500000317
                },
                {
                    "name": "F#4",
                    "midi": 66,
                    "time": 119.39648125000222,
                    "velocity": 0.3543307086614173,
                    "duration": 0.07324937500000317
                },
                {
                    "name": "B3",
                    "midi": 59,
                    "time": 119.68947875000222,
                    "velocity": 0.2677165354330709,
                    "duration": 0.07324937500000317
                },
                {
                    "name": "E4",
                    "midi": 64,
                    "time": 119.68947875000222,
                    "velocity": 0.31496062992125984,
                    "duration": 0.07324937500000317
                },
                {
                    "name": "B3",
                    "midi": 59,
                    "time": 119.83597750000223,
                    "velocity": 0.2755905511811024,
                    "duration": 0.07324937500000317
                },
                {
                    "name": "E4",
                    "midi": 64,
                    "time": 119.83597750000223,
                    "velocity": 0.4409448818897638,
                    "duration": 0.07324937500000317
                },
                {
                    "name": "E2",
                    "midi": 40,
                    "time": 119.83597750000223,
                    "velocity": 0.4251968503937008,
                    "duration": 0.2929975000000127
                },
                {
                    "name": "E3",
                    "midi": 52,
                    "time": 119.83597750000223,
                    "velocity": 0.44881889763779526,
                    "duration": 0.2929975000000127
                },
                {
                    "name": "B3",
                    "midi": 59,
                    "time": 119.98247625000224,
                    "velocity": 0.28346456692913385,
                    "duration": 0.07324937500000317
                },
                {
                    "name": "E4",
                    "midi": 64,
                    "time": 119.98247625000224,
                    "velocity": 0.33070866141732286,
                    "duration": 0.07324937500000317
                },
                {
                    "name": "B3",
                    "midi": 59,
                    "time": 120.27547375000225,
                    "velocity": 0.29133858267716534,
                    "duration": 0.07324937500000317
                },
                {
                    "name": "E4",
                    "midi": 64,
                    "time": 120.27547375000225,
                    "velocity": 0.3543307086614173,
                    "duration": 0.07324937500000317
                },
                {
                    "name": "A#3",
                    "midi": 58,
                    "time": 120.56847125000225,
                    "velocity": 0.29133858267716534,
                    "duration": 0.07324937500000317
                },
                {
                    "name": "C#4",
                    "midi": 61,
                    "time": 120.56847125000225,
                    "velocity": 0.3543307086614173,
                    "duration": 0.07324937500000317
                },
                {
                    "name": "F#2",
                    "midi": 42,
                    "time": 120.71497000000225,
                    "velocity": 0.47244094488188976,
                    "duration": 0.2929975000000127
                },
                {
                    "name": "F#3",
                    "midi": 54,
                    "time": 120.71497000000225,
                    "velocity": 0.5118110236220472,
                    "duration": 0.2929975000000127
                },
                {
                    "name": "E4",
                    "midi": 64,
                    "time": 120.86146875000226,
                    "velocity": 0.3858267716535433,
                    "duration": 0.07324937500000317
                },
                {
                    "name": "C#4",
                    "midi": 61,
                    "time": 120.86146875000226,
                    "velocity": 0.3228346456692913,
                    "duration": 0.07324937500000317
                },
                {
                    "name": "E4",
                    "midi": 64,
                    "time": 121.15446625000227,
                    "velocity": 0.3543307086614173,
                    "duration": 0.07324937500000317
                },
                {
                    "name": "G4",
                    "midi": 67,
                    "time": 121.15446625000227,
                    "velocity": 0.4330708661417323,
                    "duration": 0.07324937500000317
                },
                {
                    "name": "G4",
                    "midi": 67,
                    "time": 121.44746375000227,
                    "velocity": 0.33070866141732286,
                    "duration": 0.07324937500000317
                },
                {
                    "name": "A#4",
                    "midi": 70,
                    "time": 121.44746375000227,
                    "velocity": 0.3937007874015748,
                    "duration": 0.07324937500000317
                },
                {
                    "name": "B2",
                    "midi": 47,
                    "time": 121.59396250000228,
                    "velocity": 0.5748031496062992,
                    "duration": 0.2929975000000127
                },
                {
                    "name": "B1",
                    "midi": 35,
                    "time": 121.59396250000228,
                    "velocity": 0.5433070866141733,
                    "duration": 0.2929975000000127
                },
                {
                    "name": "F#4",
                    "midi": 66,
                    "time": 121.74046125000228,
                    "velocity": 0.3700787401574803,
                    "duration": 0.07324937500000317
                },
                {
                    "name": "B4",
                    "midi": 71,
                    "time": 121.74046125000228,
                    "velocity": 0.4409448818897638,
                    "duration": 0.07324937500000317
                },
                {
                    "name": "E4",
                    "midi": 64,
                    "time": 122.0334587500023,
                    "velocity": 0.3937007874015748,
                    "duration": 0.07324937500000317
                },
                {
                    "name": "G4",
                    "midi": 67,
                    "time": 122.0334587500023,
                    "velocity": 0.48031496062992124,
                    "duration": 0.07324937500000317
                },
                {
                    "name": "D#4",
                    "midi": 63,
                    "time": 122.3264562500023,
                    "velocity": 0.2677165354330709,
                    "duration": 0.07324937500000317
                },
                {
                    "name": "F#4",
                    "midi": 66,
                    "time": 122.3264562500023,
                    "velocity": 0.31496062992125984,
                    "duration": 0.07324937500000317
                },
                {
                    "name": "D#2",
                    "midi": 39,
                    "time": 122.4729550000023,
                    "velocity": 0.4251968503937008,
                    "duration": 0.2929975000000127
                },
                {
                    "name": "D#3",
                    "midi": 51,
                    "time": 122.4729550000023,
                    "velocity": 0.44881889763779526,
                    "duration": 0.2929975000000127
                },
                {
                    "name": "D#4",
                    "midi": 63,
                    "time": 122.4729550000023,
                    "velocity": 0.2755905511811024,
                    "duration": 0.07324937500000317
                },
                {
                    "name": "F#4",
                    "midi": 66,
                    "time": 122.4729550000023,
                    "velocity": 0.4409448818897638,
                    "duration": 0.07324937500000317
                },
                {
                    "name": "D#4",
                    "midi": 63,
                    "time": 122.61945375000231,
                    "velocity": 0.28346456692913385,
                    "duration": 0.07324937500000317
                },
                {
                    "name": "F#4",
                    "midi": 66,
                    "time": 122.61945375000231,
                    "velocity": 0.33070866141732286,
                    "duration": 0.07324937500000317
                },
                {
                    "name": "C4",
                    "midi": 60,
                    "time": 122.91245125000232,
                    "velocity": 0.29133858267716534,
                    "duration": 0.07324937500000317
                },
                {
                    "name": "F#4",
                    "midi": 66,
                    "time": 122.91245125000232,
                    "velocity": 0.3543307086614173,
                    "duration": 0.07324937500000317
                },
                {
                    "name": "B3",
                    "midi": 59,
                    "time": 123.20544875000232,
                    "velocity": 0.2677165354330709,
                    "duration": 0.07324937500000317
                },
                {
                    "name": "E4",
                    "midi": 64,
                    "time": 123.20544875000232,
                    "velocity": 0.31496062992125984,
                    "duration": 0.07324937500000317
                },
                {
                    "name": "B3",
                    "midi": 59,
                    "time": 123.35194750000232,
                    "velocity": 0.2755905511811024,
                    "duration": 0.07324937500000317
                },
                {
                    "name": "E4",
                    "midi": 64,
                    "time": 123.35194750000232,
                    "velocity": 0.4409448818897638,
                    "duration": 0.07324937500000317
                },
                {
                    "name": "E2",
                    "midi": 40,
                    "time": 123.35194750000232,
                    "velocity": 0.4251968503937008,
                    "duration": 0.2929975000000127
                },
                {
                    "name": "E3",
                    "midi": 52,
                    "time": 123.35194750000232,
                    "velocity": 0.44881889763779526,
                    "duration": 0.2929975000000127
                },
                {
                    "name": "B3",
                    "midi": 59,
                    "time": 123.49844625000233,
                    "velocity": 0.28346456692913385,
                    "duration": 0.07324937500000317
                },
                {
                    "name": "E4",
                    "midi": 64,
                    "time": 123.49844625000233,
                    "velocity": 0.33070866141732286,
                    "duration": 0.07324937500000317
                },
                {
                    "name": "B3",
                    "midi": 59,
                    "time": 123.79144375000234,
                    "velocity": 0.29133858267716534,
                    "duration": 0.07324937500000317
                },
                {
                    "name": "E4",
                    "midi": 64,
                    "time": 123.79144375000234,
                    "velocity": 0.3543307086614173,
                    "duration": 0.07324937500000317
                },
                {
                    "name": "A#3",
                    "midi": 58,
                    "time": 124.08444125000234,
                    "velocity": 0.29133858267716534,
                    "duration": 0.07324937500000317
                },
                {
                    "name": "C#4",
                    "midi": 61,
                    "time": 124.08444125000234,
                    "velocity": 0.3543307086614173,
                    "duration": 0.07324937500000317
                },
                {
                    "name": "F#2",
                    "midi": 42,
                    "time": 124.23094000000235,
                    "velocity": 0.47244094488188976,
                    "duration": 0.2929975000000127
                },
                {
                    "name": "F#3",
                    "midi": 54,
                    "time": 124.23094000000235,
                    "velocity": 0.5118110236220472,
                    "duration": 0.2929975000000127
                },
                {
                    "name": "E4",
                    "midi": 64,
                    "time": 124.37743875000236,
                    "velocity": 0.3858267716535433,
                    "duration": 0.07324937500000317
                },
                {
                    "name": "C#4",
                    "midi": 61,
                    "time": 124.37743875000236,
                    "velocity": 0.3228346456692913,
                    "duration": 0.07324937500000317
                },
                {
                    "name": "E4",
                    "midi": 64,
                    "time": 124.67043625000237,
                    "velocity": 0.3543307086614173,
                    "duration": 0.07324937500000317
                },
                {
                    "name": "G4",
                    "midi": 67,
                    "time": 124.67043625000237,
                    "velocity": 0.4330708661417323,
                    "duration": 0.07324937500000317
                },
                {
                    "name": "G4",
                    "midi": 67,
                    "time": 124.96343375000237,
                    "velocity": 0.33070866141732286,
                    "duration": 0.07324937500000317
                },
                {
                    "name": "A#4",
                    "midi": 70,
                    "time": 124.96343375000237,
                    "velocity": 0.3937007874015748,
                    "duration": 0.07324937500000317
                },
                {
                    "name": "B2",
                    "midi": 47,
                    "time": 125.10993250000237,
                    "velocity": 0.5748031496062992,
                    "duration": 0.2929975000000127
                },
                {
                    "name": "B1",
                    "midi": 35,
                    "time": 125.10993250000237,
                    "velocity": 0.5433070866141733,
                    "duration": 0.2929975000000127
                },
                {
                    "name": "F#4",
                    "midi": 66,
                    "time": 125.25643125000238,
                    "velocity": 0.3700787401574803,
                    "duration": 0.07324937500000317
                },
                {
                    "name": "B4",
                    "midi": 71,
                    "time": 125.25643125000238,
                    "velocity": 0.4409448818897638,
                    "duration": 0.07324937500000317
                },
                {
                    "name": "E4",
                    "midi": 64,
                    "time": 125.54942875000239,
                    "velocity": 0.3937007874015748,
                    "duration": 0.07324937500000317
                },
                {
                    "name": "G4",
                    "midi": 67,
                    "time": 125.54942875000239,
                    "velocity": 0.48031496062992124,
                    "duration": 0.07324937500000317
                },
                {
                    "name": "F#4",
                    "midi": 66,
                    "time": 125.84242625000239,
                    "velocity": 0.48031496062992124,
                    "duration": 0.07324937500000317
                },
                {
                    "name": "B3",
                    "midi": 59,
                    "time": 125.84242625000239,
                    "velocity": 0.3779527559055118,
                    "duration": 0.07324937500000317
                },
                {
                    "name": "A3",
                    "midi": 57,
                    "time": 125.84242625000239,
                    "velocity": 0.3779527559055118,
                    "duration": 0.07324937500000317
                },
                {
                    "name": "F#3",
                    "midi": 54,
                    "time": 125.84242625000239,
                    "velocity": 0.3779527559055118,
                    "duration": 0.07324937500000317
                },
                {
                    "name": "D#3",
                    "midi": 51,
                    "time": 125.84242625000239,
                    "velocity": 0.3779527559055118,
                    "duration": 0.07324937500000317
                },
                {
                    "name": "A4",
                    "midi": 69,
                    "time": 125.84242625000239,
                    "velocity": 0.48031496062992124,
                    "duration": 0.07324937500000317
                },
                {
                    "name": "D#3",
                    "midi": 51,
                    "time": 125.9889250000024,
                    "velocity": 0.33070866141732286,
                    "duration": 0.07324937500000317
                },
                {
                    "name": "F#3",
                    "midi": 54,
                    "time": 125.9889250000024,
                    "velocity": 0.33070866141732286,
                    "duration": 0.07324937500000317
                },
                {
                    "name": "A3",
                    "midi": 57,
                    "time": 125.9889250000024,
                    "velocity": 0.33070866141732286,
                    "duration": 0.07324937500000317
                },
                {
                    "name": "B3",
                    "midi": 59,
                    "time": 125.9889250000024,
                    "velocity": 0.33070866141732286,
                    "duration": 0.07324937500000317
                },
                {
                    "name": "F#4",
                    "midi": 66,
                    "time": 125.9889250000024,
                    "velocity": 0.5433070866141733,
                    "duration": 0.07324937500000317
                },
                {
                    "name": "A4",
                    "midi": 69,
                    "time": 125.9889250000024,
                    "velocity": 0.5433070866141733,
                    "duration": 0.07324937500000317
                },
                {
                    "name": "A4",
                    "midi": 69,
                    "time": 126.1354237500024,
                    "velocity": 0.5118110236220472,
                    "duration": 0.07324937500000317
                },
                {
                    "name": "F#4",
                    "midi": 66,
                    "time": 126.1354237500024,
                    "velocity": 0.5118110236220472,
                    "duration": 0.07324937500000317
                },
                {
                    "name": "B3",
                    "midi": 59,
                    "time": 126.1354237500024,
                    "velocity": 0.4015748031496063,
                    "duration": 0.07324937500000317
                },
                {
                    "name": "A3",
                    "midi": 57,
                    "time": 126.1354237500024,
                    "velocity": 0.4015748031496063,
                    "duration": 0.07324937500000317
                },
                {
                    "name": "F#3",
                    "midi": 54,
                    "time": 126.1354237500024,
                    "velocity": 0.4015748031496063,
                    "duration": 0.07324937500000317
                },
                {
                    "name": "D#3",
                    "midi": 51,
                    "time": 126.1354237500024,
                    "velocity": 0.4015748031496063,
                    "duration": 0.07324937500000317
                },
                {
                    "name": "D#3",
                    "midi": 51,
                    "time": 126.28192250000241,
                    "velocity": 0.36220472440944884,
                    "duration": 0.07324937500000317
                },
                {
                    "name": "F#3",
                    "midi": 54,
                    "time": 126.28192250000241,
                    "velocity": 0.36220472440944884,
                    "duration": 0.07324937500000317
                },
                {
                    "name": "A3",
                    "midi": 57,
                    "time": 126.28192250000241,
                    "velocity": 0.36220472440944884,
                    "duration": 0.07324937500000317
                },
                {
                    "name": "B3",
                    "midi": 59,
                    "time": 126.28192250000241,
                    "velocity": 0.36220472440944884,
                    "duration": 0.07324937500000317
                },
                {
                    "name": "F#4",
                    "midi": 66,
                    "time": 126.28192250000241,
                    "velocity": 0.5905511811023622,
                    "duration": 0.07324937500000317
                },
                {
                    "name": "A4",
                    "midi": 69,
                    "time": 126.28192250000241,
                    "velocity": 0.5905511811023622,
                    "duration": 0.07324937500000317
                },
                {
                    "name": "A4",
                    "midi": 69,
                    "time": 126.42842125000242,
                    "velocity": 0.5511811023622047,
                    "duration": 0.07324937500000317
                },
                {
                    "name": "F#4",
                    "midi": 66,
                    "time": 126.42842125000242,
                    "velocity": 0.5511811023622047,
                    "duration": 0.07324937500000317
                },
                {
                    "name": "B3",
                    "midi": 59,
                    "time": 126.42842125000242,
                    "velocity": 0.4409448818897638,
                    "duration": 0.07324937500000317
                },
                {
                    "name": "A3",
                    "midi": 57,
                    "time": 126.42842125000242,
                    "velocity": 0.4409448818897638,
                    "duration": 0.07324937500000317
                },
                {
                    "name": "F#3",
                    "midi": 54,
                    "time": 126.42842125000242,
                    "velocity": 0.4409448818897638,
                    "duration": 0.07324937500000317
                },
                {
                    "name": "D#3",
                    "midi": 51,
                    "time": 126.42842125000242,
                    "velocity": 0.4409448818897638,
                    "duration": 0.07324937500000317
                },
                {
                    "name": "D#3",
                    "midi": 51,
                    "time": 126.57492000000242,
                    "velocity": 0.3858267716535433,
                    "duration": 0.29299749999999847
                },
                {
                    "name": "F#3",
                    "midi": 54,
                    "time": 126.57492000000242,
                    "velocity": 0.3858267716535433,
                    "duration": 0.29299749999999847
                },
                {
                    "name": "A3",
                    "midi": 57,
                    "time": 126.57492000000242,
                    "velocity": 0.3858267716535433,
                    "duration": 0.29299749999999847
                },
                {
                    "name": "B3",
                    "midi": 59,
                    "time": 126.57492000000242,
                    "velocity": 0.3858267716535433,
                    "duration": 0.5859949999999969
                },
                {
                    "name": "F#4",
                    "midi": 66,
                    "time": 126.57492000000242,
                    "velocity": 0.6299212598425197,
                    "duration": 0.29299749999999847
                },
                {
                    "name": "A4",
                    "midi": 69,
                    "time": 126.57492000000242,
                    "velocity": 0.6299212598425197,
                    "duration": 0.29299749999999847
                },
                {
                    "name": "G#4",
                    "midi": 68,
                    "time": 126.86791750000242,
                    "velocity": 0.48031496062992124,
                    "duration": 0.29299749999999847
                },
                {
                    "name": "E4",
                    "midi": 64,
                    "time": 126.86791750000242,
                    "velocity": 0.48031496062992124,
                    "duration": 0.29299749999999847
                },
                {
                    "name": "G#3",
                    "midi": 56,
                    "time": 126.86791750000242,
                    "velocity": 0.3779527559055118,
                    "duration": 0.29299749999999847
                },
                {
                    "name": "E3",
                    "midi": 52,
                    "time": 126.86791750000242,
                    "velocity": 0.3779527559055118,
                    "duration": 0.29299749999999847
                },
                {
                    "name": "G#4",
                    "midi": 68,
                    "time": 127.60041125000242,
                    "velocity": 0.48031496062992124,
                    "duration": 0.07324937500000317
                },
                {
                    "name": "C#4",
                    "midi": 61,
                    "time": 127.60041125000242,
                    "velocity": 0.3779527559055118,
                    "duration": 0.07324937500000317
                },
                {
                    "name": "B3",
                    "midi": 59,
                    "time": 127.60041125000242,
                    "velocity": 0.3779527559055118,
                    "duration": 0.07324937500000317
                },
                {
                    "name": "G#3",
                    "midi": 56,
                    "time": 127.60041125000242,
                    "velocity": 0.3779527559055118,
                    "duration": 0.07324937500000317
                },
                {
                    "name": "F3",
                    "midi": 53,
                    "time": 127.60041125000242,
                    "velocity": 0.3779527559055118,
                    "duration": 0.07324937500000317
                },
                {
                    "name": "B4",
                    "midi": 71,
                    "time": 127.60041125000242,
                    "velocity": 0.48031496062992124,
                    "duration": 0.07324937500000317
                },
                {
                    "name": "F3",
                    "midi": 53,
                    "time": 127.74691000000243,
                    "velocity": 0.33070866141732286,
                    "duration": 0.07324937500000317
                },
                {
                    "name": "G#3",
                    "midi": 56,
                    "time": 127.74691000000243,
                    "velocity": 0.33070866141732286,
                    "duration": 0.07324937500000317
                },
                {
                    "name": "B3",
                    "midi": 59,
                    "time": 127.74691000000243,
                    "velocity": 0.33070866141732286,
                    "duration": 0.07324937500000317
                },
                {
                    "name": "C#4",
                    "midi": 61,
                    "time": 127.74691000000243,
                    "velocity": 0.33070866141732286,
                    "duration": 0.07324937500000317
                },
                {
                    "name": "G#4",
                    "midi": 68,
                    "time": 127.74691000000243,
                    "velocity": 0.5433070866141733,
                    "duration": 0.07324937500000317
                },
                {
                    "name": "B4",
                    "midi": 71,
                    "time": 127.74691000000243,
                    "velocity": 0.5433070866141733,
                    "duration": 0.07324937500000317
                },
                {
                    "name": "B4",
                    "midi": 71,
                    "time": 127.89340875000244,
                    "velocity": 0.5118110236220472,
                    "duration": 0.07324937500000317
                },
                {
                    "name": "G#4",
                    "midi": 68,
                    "time": 127.89340875000244,
                    "velocity": 0.5118110236220472,
                    "duration": 0.07324937500000317
                },
                {
                    "name": "C#4",
                    "midi": 61,
                    "time": 127.89340875000244,
                    "velocity": 0.4015748031496063,
                    "duration": 0.07324937500000317
                },
                {
                    "name": "B3",
                    "midi": 59,
                    "time": 127.89340875000244,
                    "velocity": 0.4015748031496063,
                    "duration": 0.07324937500000317
                },
                {
                    "name": "G#3",
                    "midi": 56,
                    "time": 127.89340875000244,
                    "velocity": 0.4015748031496063,
                    "duration": 0.07324937500000317
                },
                {
                    "name": "F3",
                    "midi": 53,
                    "time": 127.89340875000244,
                    "velocity": 0.4015748031496063,
                    "duration": 0.07324937500000317
                },
                {
                    "name": "F3",
                    "midi": 53,
                    "time": 128.03990750000244,
                    "velocity": 0.36220472440944884,
                    "duration": 0.07324937499998896
                },
                {
                    "name": "G#3",
                    "midi": 56,
                    "time": 128.03990750000244,
                    "velocity": 0.36220472440944884,
                    "duration": 0.07324937499998896
                },
                {
                    "name": "B3",
                    "midi": 59,
                    "time": 128.03990750000244,
                    "velocity": 0.36220472440944884,
                    "duration": 0.07324937499998896
                },
                {
                    "name": "C#4",
                    "midi": 61,
                    "time": 128.03990750000244,
                    "velocity": 0.36220472440944884,
                    "duration": 0.07324937499998896
                },
                {
                    "name": "G#4",
                    "midi": 68,
                    "time": 128.03990750000244,
                    "velocity": 0.5905511811023622,
                    "duration": 0.07324937499998896
                },
                {
                    "name": "B4",
                    "midi": 71,
                    "time": 128.03990750000244,
                    "velocity": 0.5905511811023622,
                    "duration": 0.07324937499998896
                },
                {
                    "name": "B4",
                    "midi": 71,
                    "time": 128.18640625000242,
                    "velocity": 0.5511811023622047,
                    "duration": 0.07324937499998896
                },
                {
                    "name": "G#4",
                    "midi": 68,
                    "time": 128.18640625000242,
                    "velocity": 0.5511811023622047,
                    "duration": 0.07324937499998896
                },
                {
                    "name": "C#4",
                    "midi": 61,
                    "time": 128.18640625000242,
                    "velocity": 0.4409448818897638,
                    "duration": 0.07324937499998896
                },
                {
                    "name": "B3",
                    "midi": 59,
                    "time": 128.18640625000242,
                    "velocity": 0.4409448818897638,
                    "duration": 0.07324937499998896
                },
                {
                    "name": "G#3",
                    "midi": 56,
                    "time": 128.18640625000242,
                    "velocity": 0.4409448818897638,
                    "duration": 0.07324937499998896
                },
                {
                    "name": "F3",
                    "midi": 53,
                    "time": 128.18640625000242,
                    "velocity": 0.4409448818897638,
                    "duration": 0.07324937499998896
                },
                {
                    "name": "F#3",
                    "midi": 54,
                    "time": 128.3329050000024,
                    "velocity": 0.3858267716535433,
                    "duration": 0.2929975000000127
                },
                {
                    "name": "B3",
                    "midi": 59,
                    "time": 128.3329050000024,
                    "velocity": 0.3858267716535433,
                    "duration": 0.2929975000000127
                },
                {
                    "name": "C#4",
                    "midi": 61,
                    "time": 128.3329050000024,
                    "velocity": 0.3858267716535433,
                    "duration": 0.2929975000000127
                },
                {
                    "name": "F#4",
                    "midi": 66,
                    "time": 128.3329050000024,
                    "velocity": 0.6299212598425197,
                    "duration": 0.2929975000000127
                },
                {
                    "name": "B4",
                    "midi": 71,
                    "time": 128.3329050000024,
                    "velocity": 0.6299212598425197,
                    "duration": 0.2929975000000127
                },
                {
                    "name": "E4",
                    "midi": 64,
                    "time": 128.6259025000024,
                    "velocity": 0.48031496062992124,
                    "duration": 0.2929975000000127
                },
                {
                    "name": "G3",
                    "midi": 55,
                    "time": 128.6259025000024,
                    "velocity": 0.3779527559055118,
                    "duration": 0.2929975000000127
                },
                {
                    "name": "D4",
                    "midi": 62,
                    "time": 129.35839625000241,
                    "velocity": 0.4330708661417323,
                    "duration": 0.07324937499998896
                },
                {
                    "name": "B3",
                    "midi": 59,
                    "time": 129.35839625000241,
                    "velocity": 0.4330708661417323,
                    "duration": 0.07324937499998896
                },
                {
                    "name": "F#3",
                    "midi": 54,
                    "time": 129.35839625000241,
                    "velocity": 0.4330708661417323,
                    "duration": 0.07324937499998896
                },
                {
                    "name": "F#3",
                    "midi": 54,
                    "time": 129.5048950000024,
                    "velocity": 0.3700787401574803,
                    "duration": 0.07324937499998896
                },
                {
                    "name": "B3",
                    "midi": 59,
                    "time": 129.5048950000024,
                    "velocity": 0.3700787401574803,
                    "duration": 0.07324937499998896
                },
                {
                    "name": "D4",
                    "midi": 62,
                    "time": 129.5048950000024,
                    "velocity": 0.3700787401574803,
                    "duration": 0.07324937499998896
                },
                {
                    "name": "D4",
                    "midi": 62,
                    "time": 129.65139375000237,
                    "velocity": 0.4330708661417323,
                    "duration": 0.07324937499998896
                },
                {
                    "name": "B3",
                    "midi": 59,
                    "time": 129.65139375000237,
                    "velocity": 0.4330708661417323,
                    "duration": 0.07324937499998896
                },
                {
                    "name": "F#3",
                    "midi": 54,
                    "time": 129.65139375000237,
                    "velocity": 0.4330708661417323,
                    "duration": 0.07324937499998896
                },
                {
                    "name": "F#3",
                    "midi": 54,
                    "time": 129.79789250000235,
                    "velocity": 0.3700787401574803,
                    "duration": 0.07324937499998896
                },
                {
                    "name": "B3",
                    "midi": 59,
                    "time": 129.79789250000235,
                    "velocity": 0.3700787401574803,
                    "duration": 0.07324937499998896
                },
                {
                    "name": "D4",
                    "midi": 62,
                    "time": 129.79789250000235,
                    "velocity": 0.3700787401574803,
                    "duration": 0.07324937499998896
                },
                {
                    "name": "D4",
                    "midi": 62,
                    "time": 129.94439125000233,
                    "velocity": 0.4330708661417323,
                    "duration": 0.07324937499998896
                },
                {
                    "name": "B3",
                    "midi": 59,
                    "time": 129.94439125000233,
                    "velocity": 0.4330708661417323,
                    "duration": 0.07324937499998896
                },
                {
                    "name": "F#3",
                    "midi": 54,
                    "time": 129.94439125000233,
                    "velocity": 0.4330708661417323,
                    "duration": 0.07324937499998896
                },
                {
                    "name": "E4",
                    "midi": 64,
                    "time": 130.2373887500023,
                    "velocity": 0.4330708661417323,
                    "duration": 0.07324937499998896
                },
                {
                    "name": "C#4",
                    "midi": 61,
                    "time": 130.2373887500023,
                    "velocity": 0.4330708661417323,
                    "duration": 0.07324937499998896
                },
                {
                    "name": "F#3",
                    "midi": 54,
                    "time": 130.2373887500023,
                    "velocity": 0.4330708661417323,
                    "duration": 0.07324937499998896
                },
                {
                    "name": "F#3",
                    "midi": 54,
                    "time": 130.3838875000023,
                    "velocity": 0.3700787401574803,
                    "duration": 0.07324937499998896
                },
                {
                    "name": "C#4",
                    "midi": 61,
                    "time": 130.3838875000023,
                    "velocity": 0.3700787401574803,
                    "duration": 0.07324937499998896
                },
                {
                    "name": "E4",
                    "midi": 64,
                    "time": 130.3838875000023,
                    "velocity": 0.3700787401574803,
                    "duration": 0.07324937499998896
                },
                {
                    "name": "E4",
                    "midi": 64,
                    "time": 130.53038625000227,
                    "velocity": 0.4330708661417323,
                    "duration": 0.07324937499998896
                },
                {
                    "name": "C#4",
                    "midi": 61,
                    "time": 130.53038625000227,
                    "velocity": 0.4330708661417323,
                    "duration": 0.07324937499998896
                },
                {
                    "name": "F#3",
                    "midi": 54,
                    "time": 130.53038625000227,
                    "velocity": 0.4330708661417323,
                    "duration": 0.07324937499998896
                },
                {
                    "name": "F#3",
                    "midi": 54,
                    "time": 130.67688500000224,
                    "velocity": 0.3700787401574803,
                    "duration": 0.07324937499998896
                },
                {
                    "name": "C#4",
                    "midi": 61,
                    "time": 130.67688500000224,
                    "velocity": 0.3700787401574803,
                    "duration": 0.07324937499998896
                },
                {
                    "name": "E4",
                    "midi": 64,
                    "time": 130.67688500000224,
                    "velocity": 0.3700787401574803,
                    "duration": 0.07324937499998896
                },
                {
                    "name": "E4",
                    "midi": 64,
                    "time": 130.82338375000222,
                    "velocity": 0.4330708661417323,
                    "duration": 0.07324937499998896
                },
                {
                    "name": "C#4",
                    "midi": 61,
                    "time": 130.82338375000222,
                    "velocity": 0.4330708661417323,
                    "duration": 0.07324937499998896
                },
                {
                    "name": "F#3",
                    "midi": 54,
                    "time": 130.82338375000222,
                    "velocity": 0.4330708661417323,
                    "duration": 0.07324937499998896
                },
                {
                    "name": "B3",
                    "midi": 59,
                    "time": 130.9698825000022,
                    "velocity": 0.5511811023622047,
                    "duration": 0.2929975000000127
                },
                {
                    "name": "D4",
                    "midi": 62,
                    "time": 130.9698825000022,
                    "velocity": 0.5511811023622047,
                    "duration": 0.2929975000000127
                },
                {
                    "name": "F#3",
                    "midi": 54,
                    "time": 132.87436625000223,
                    "velocity": 0.5039370078740157,
                    "duration": 0.07324937499998896
                },
                {
                    "name": "F#2",
                    "midi": 42,
                    "time": 132.87436625000223,
                    "velocity": 0.5039370078740157,
                    "duration": 0.07324937499998896
                },
                {
                    "name": "F#2",
                    "midi": 42,
                    "time": 133.0208650000022,
                    "velocity": 0.4330708661417323,
                    "duration": 0.07324937499998896
                },
                {
                    "name": "F#3",
                    "midi": 54,
                    "time": 133.0208650000022,
                    "velocity": 0.4330708661417323,
                    "duration": 0.07324937499998896
                },
                {
                    "name": "F#3",
                    "midi": 54,
                    "time": 133.16736375000218,
                    "velocity": 0.5039370078740157,
                    "duration": 0.07324937499998896
                },
                {
                    "name": "F#2",
                    "midi": 42,
                    "time": 133.16736375000218,
                    "velocity": 0.5039370078740157,
                    "duration": 0.07324937499998896
                },
                {
                    "name": "F#2",
                    "midi": 42,
                    "time": 133.31386250000216,
                    "velocity": 0.4330708661417323,
                    "duration": 0.07324937499998896
                },
                {
                    "name": "F#3",
                    "midi": 54,
                    "time": 133.31386250000216,
                    "velocity": 0.4330708661417323,
                    "duration": 0.07324937499998896
                },
                {
                    "name": "F#3",
                    "midi": 54,
                    "time": 133.46036125000214,
                    "velocity": 0.5039370078740157,
                    "duration": 0.07324937499998896
                },
                {
                    "name": "F#2",
                    "midi": 42,
                    "time": 133.46036125000214,
                    "velocity": 0.5039370078740157,
                    "duration": 0.07324937499998896
                },
                {
                    "name": "F#2",
                    "midi": 42,
                    "time": 133.60686000000211,
                    "velocity": 0.5196850393700787,
                    "duration": 0.07324937499998896
                },
                {
                    "name": "F#3",
                    "midi": 54,
                    "time": 133.60686000000211,
                    "velocity": 0.5196850393700787,
                    "duration": 0.07324937499998896
                },
                {
                    "name": "F#3",
                    "midi": 54,
                    "time": 133.7533587500021,
                    "velocity": 0.5039370078740157,
                    "duration": 0.07324937499998896
                },
                {
                    "name": "F#2",
                    "midi": 42,
                    "time": 133.7533587500021,
                    "velocity": 0.5039370078740157,
                    "duration": 0.07324937499998896
                },
                {
                    "name": "F#2",
                    "midi": 42,
                    "time": 133.89985750000207,
                    "velocity": 0.4330708661417323,
                    "duration": 0.07324937499998896
                },
                {
                    "name": "F#3",
                    "midi": 54,
                    "time": 133.89985750000207,
                    "velocity": 0.4330708661417323,
                    "duration": 0.07324937499998896
                },
                {
                    "name": "F#3",
                    "midi": 54,
                    "time": 134.04635625000205,
                    "velocity": 0.5039370078740157,
                    "duration": 0.07324937499998896
                },
                {
                    "name": "F#2",
                    "midi": 42,
                    "time": 134.04635625000205,
                    "velocity": 0.5039370078740157,
                    "duration": 0.07324937499998896
                },
                {
                    "name": "F#2",
                    "midi": 42,
                    "time": 134.19285500000203,
                    "velocity": 0.4330708661417323,
                    "duration": 0.07324937499998896
                },
                {
                    "name": "F#3",
                    "midi": 54,
                    "time": 134.19285500000203,
                    "velocity": 0.4330708661417323,
                    "duration": 0.07324937499998896
                },
                {
                    "name": "F#3",
                    "midi": 54,
                    "time": 134.339353750002,
                    "velocity": 0.5039370078740157,
                    "duration": 0.07324937499998896
                },
                {
                    "name": "F#2",
                    "midi": 42,
                    "time": 134.339353750002,
                    "velocity": 0.5039370078740157,
                    "duration": 0.07324937499998896
                },
                {
                    "name": "B1",
                    "midi": 35,
                    "time": 134.48585250000198,
                    "velocity": 0.6456692913385826,
                    "duration": 0.2929975000000127
                },
                {
                    "name": "B2",
                    "midi": 47,
                    "time": 134.48585250000198,
                    "velocity": 0.6456692913385826,
                    "duration": 0.2929975000000127
                },
                {
                    "name": "F#2",
                    "midi": 42,
                    "time": 136.390336250002,
                    "velocity": 0.5826771653543307,
                    "duration": 0.07324937499998896
                },
                {
                    "name": "F#1",
                    "midi": 30,
                    "time": 136.390336250002,
                    "velocity": 0.5826771653543307,
                    "duration": 0.07324937499998896
                },
                {
                    "name": "F#1",
                    "midi": 30,
                    "time": 136.536835000002,
                    "velocity": 0.49606299212598426,
                    "duration": 0.07324937499998896
                },
                {
                    "name": "F#2",
                    "midi": 42,
                    "time": 136.536835000002,
                    "velocity": 0.49606299212598426,
                    "duration": 0.07324937499998896
                },
                {
                    "name": "F#2",
                    "midi": 42,
                    "time": 136.68333375000196,
                    "velocity": 0.5826771653543307,
                    "duration": 0.07324937499998896
                },
                {
                    "name": "F#1",
                    "midi": 30,
                    "time": 136.68333375000196,
                    "velocity": 0.5826771653543307,
                    "duration": 0.07324937499998896
                },
                {
                    "name": "F#1",
                    "midi": 30,
                    "time": 136.82983250000194,
                    "velocity": 0.49606299212598426,
                    "duration": 0.07324937499998896
                },
                {
                    "name": "F#2",
                    "midi": 42,
                    "time": 136.82983250000194,
                    "velocity": 0.49606299212598426,
                    "duration": 0.07324937499998896
                },
                {
                    "name": "F#2",
                    "midi": 42,
                    "time": 136.97633125000192,
                    "velocity": 0.5826771653543307,
                    "duration": 0.07324937499998896
                },
                {
                    "name": "F#1",
                    "midi": 30,
                    "time": 136.97633125000192,
                    "velocity": 0.5826771653543307,
                    "duration": 0.07324937499998896
                },
                {
                    "name": "F#1",
                    "midi": 30,
                    "time": 137.1228300000019,
                    "velocity": 0.4330708661417323,
                    "duration": 0.07324937499998896
                },
                {
                    "name": "F#2",
                    "midi": 42,
                    "time": 137.1228300000019,
                    "velocity": 0.4330708661417323,
                    "duration": 0.07324937499998896
                },
                {
                    "name": "F#2",
                    "midi": 42,
                    "time": 137.26932875000188,
                    "velocity": 0.5039370078740157,
                    "duration": 0.07324937499998896
                },
                {
                    "name": "F#1",
                    "midi": 30,
                    "time": 137.26932875000188,
                    "velocity": 0.5039370078740157,
                    "duration": 0.07324937499998896
                },
                {
                    "name": "F#1",
                    "midi": 30,
                    "time": 137.41582750000185,
                    "velocity": 0.4330708661417323,
                    "duration": 0.07324937499998896
                },
                {
                    "name": "F#2",
                    "midi": 42,
                    "time": 137.41582750000185,
                    "velocity": 0.4330708661417323,
                    "duration": 0.07324937499998896
                },
                {
                    "name": "F#2",
                    "midi": 42,
                    "time": 137.56232625000183,
                    "velocity": 0.5039370078740157,
                    "duration": 0.07324937499998896
                },
                {
                    "name": "F#1",
                    "midi": 30,
                    "time": 137.56232625000183,
                    "velocity": 0.5039370078740157,
                    "duration": 0.07324937499998896
                },
                {
                    "name": "F#1",
                    "midi": 30,
                    "time": 137.7088250000018,
                    "velocity": 0.4330708661417323,
                    "duration": 0.07324937499998896
                },
                {
                    "name": "F#2",
                    "midi": 42,
                    "time": 137.7088250000018,
                    "velocity": 0.4330708661417323,
                    "duration": 0.07324937499998896
                },
                {
                    "name": "F#2",
                    "midi": 42,
                    "time": 137.8553237500018,
                    "velocity": 0.5039370078740157,
                    "duration": 0.07324937499998896
                },
                {
                    "name": "F#1",
                    "midi": 30,
                    "time": 137.8553237500018,
                    "velocity": 0.5039370078740157,
                    "duration": 0.07324937499998896
                },
                {
                    "name": "F#2",
                    "midi": 42,
                    "time": 138.14832125000177,
                    "velocity": 0.5826771653543307,
                    "duration": 0.07324937499998896
                },
                {
                    "name": "F#1",
                    "midi": 30,
                    "time": 138.14832125000177,
                    "velocity": 0.5826771653543307,
                    "duration": 0.07324937499998896
                },
                {
                    "name": "F#1",
                    "midi": 30,
                    "time": 138.29482000000175,
                    "velocity": 0.49606299212598426,
                    "duration": 0.07324937499998896
                },
                {
                    "name": "F#2",
                    "midi": 42,
                    "time": 138.29482000000175,
                    "velocity": 0.49606299212598426,
                    "duration": 0.07324937499998896
                },
                {
                    "name": "F#2",
                    "midi": 42,
                    "time": 138.44131875000173,
                    "velocity": 0.5826771653543307,
                    "duration": 0.07324937499998896
                },
                {
                    "name": "F#1",
                    "midi": 30,
                    "time": 138.44131875000173,
                    "velocity": 0.5826771653543307,
                    "duration": 0.07324937499998896
                },
                {
                    "name": "F#1",
                    "midi": 30,
                    "time": 138.5878175000017,
                    "velocity": 0.49606299212598426,
                    "duration": 0.07324937499998896
                },
                {
                    "name": "F#2",
                    "midi": 42,
                    "time": 138.5878175000017,
                    "velocity": 0.49606299212598426,
                    "duration": 0.07324937499998896
                },
                {
                    "name": "F#2",
                    "midi": 42,
                    "time": 138.73431625000168,
                    "velocity": 0.5826771653543307,
                    "duration": 0.07324937499998896
                },
                {
                    "name": "F#1",
                    "midi": 30,
                    "time": 138.73431625000168,
                    "velocity": 0.5826771653543307,
                    "duration": 0.07324937499998896
                },
                {
                    "name": "F#1",
                    "midi": 30,
                    "time": 138.88081500000166,
                    "velocity": 0.4330708661417323,
                    "duration": 0.07324937499998896
                },
                {
                    "name": "F#2",
                    "midi": 42,
                    "time": 138.88081500000166,
                    "velocity": 0.4330708661417323,
                    "duration": 0.07324937499998896
                },
                {
                    "name": "F#2",
                    "midi": 42,
                    "time": 139.02731375000164,
                    "velocity": 0.5039370078740157,
                    "duration": 0.07324937499998896
                },
                {
                    "name": "F#1",
                    "midi": 30,
                    "time": 139.02731375000164,
                    "velocity": 0.5039370078740157,
                    "duration": 0.07324937499998896
                },
                {
                    "name": "F#1",
                    "midi": 30,
                    "time": 139.17381250000162,
                    "velocity": 0.4330708661417323,
                    "duration": 0.07324937499998896
                },
                {
                    "name": "F#2",
                    "midi": 42,
                    "time": 139.17381250000162,
                    "velocity": 0.4330708661417323,
                    "duration": 0.07324937499998896
                },
                {
                    "name": "F#2",
                    "midi": 42,
                    "time": 139.3203112500016,
                    "velocity": 0.5039370078740157,
                    "duration": 0.07324937499998896
                },
                {
                    "name": "F#1",
                    "midi": 30,
                    "time": 139.3203112500016,
                    "velocity": 0.5039370078740157,
                    "duration": 0.07324937499998896
                },
                {
                    "name": "F#1",
                    "midi": 30,
                    "time": 139.46681000000157,
                    "velocity": 0.4330708661417323,
                    "duration": 0.07324937499998896
                },
                {
                    "name": "F#2",
                    "midi": 42,
                    "time": 139.46681000000157,
                    "velocity": 0.4330708661417323,
                    "duration": 0.07324937499998896
                },
                {
                    "name": "F#2",
                    "midi": 42,
                    "time": 139.61330875000155,
                    "velocity": 0.5039370078740157,
                    "duration": 0.07324937499998896
                },
                {
                    "name": "F#1",
                    "midi": 30,
                    "time": 139.61330875000155,
                    "velocity": 0.5039370078740157,
                    "duration": 0.07324937499998896
                },
                {
                    "name": "F#3",
                    "midi": 54,
                    "time": 139.90630625000153,
                    "velocity": 0.5826771653543307,
                    "duration": 0.07324937499998896
                },
                {
                    "name": "F#2",
                    "midi": 42,
                    "time": 139.90630625000153,
                    "velocity": 0.5826771653543307,
                    "duration": 0.07324937499998896
                },
                {
                    "name": "F#2",
                    "midi": 42,
                    "time": 140.0528050000015,
                    "velocity": 0.5354330708661418,
                    "duration": 0.07324937499998896
                },
                {
                    "name": "F#3",
                    "midi": 54,
                    "time": 140.0528050000015,
                    "velocity": 0.5354330708661418,
                    "duration": 0.07324937499998896
                },
                {
                    "name": "F#3",
                    "midi": 54,
                    "time": 140.1993037500015,
                    "velocity": 0.6377952755905512,
                    "duration": 0.07324937499998896
                },
                {
                    "name": "F#2",
                    "midi": 42,
                    "time": 140.1993037500015,
                    "velocity": 0.6377952755905512,
                    "duration": 0.07324937499998896
                },
                {
                    "name": "F#2",
                    "midi": 42,
                    "time": 140.34580250000147,
                    "velocity": 0.5354330708661418,
                    "duration": 0.07324937499998896
                },
                {
                    "name": "F#3",
                    "midi": 54,
                    "time": 140.34580250000147,
                    "velocity": 0.5354330708661418,
                    "duration": 0.07324937499998896
                },
                {
                    "name": "F#3",
                    "midi": 54,
                    "time": 140.49230125000145,
                    "velocity": 0.6377952755905512,
                    "duration": 0.07324937499998896
                },
                {
                    "name": "F#2",
                    "midi": 42,
                    "time": 140.49230125000145,
                    "velocity": 0.6377952755905512,
                    "duration": 0.07324937499998896
                },
                {
                    "name": "F#2",
                    "midi": 42,
                    "time": 140.63880000000142,
                    "velocity": 0.47244094488188976,
                    "duration": 0.29299749999995583
                },
                {
                    "name": "F#3",
                    "midi": 54,
                    "time": 140.63880000000142,
                    "velocity": 0.47244094488188976,
                    "duration": 0.07324937499998896
                },
                {
                    "name": "F#3",
                    "midi": 54,
                    "time": 140.7852987500014,
                    "velocity": 0.5511811023622047,
                    "duration": 0.07324937499998896
                },
                {
                    "name": "F#3",
                    "midi": 54,
                    "time": 140.93179750000138,
                    "velocity": 0.47244094488188976,
                    "duration": 0.07324937499998896
                },
                {
                    "name": "F#3",
                    "midi": 54,
                    "time": 141.07829625000136,
                    "velocity": 0.5511811023622047,
                    "duration": 0.07324937499998896
                },
                {
                    "name": "F#2",
                    "midi": 42,
                    "time": 141.22479500000134,
                    "velocity": 0.4330708661417323,
                    "duration": 0.29299749999995583
                },
                {
                    "name": "F#3",
                    "midi": 54,
                    "time": 141.22479500000134,
                    "velocity": 0.4330708661417323,
                    "duration": 0.07324937499998896
                },
                {
                    "name": "F#3",
                    "midi": 54,
                    "time": 141.3712937500013,
                    "velocity": 0.5039370078740157,
                    "duration": 0.07324937499998896
                },
                {
                    "name": "B2",
                    "midi": 47,
                    "time": 141.5177925000013,
                    "velocity": 0.5905511811023622,
                    "duration": 0.07324937499998896
                },
                {
                    "name": "F#3",
                    "midi": 54,
                    "time": 141.66429125000127,
                    "velocity": 0.4015748031496063,
                    "duration": 0.07324937499998896
                },
                {
                    "name": "F#3",
                    "midi": 54,
                    "time": 141.81079000000125,
                    "velocity": 0.4409448818897638,
                    "duration": 0.07324937499998896
                },
                {
                    "name": "F#3",
                    "midi": 54,
                    "time": 141.95728875000123,
                    "velocity": 0.4015748031496063,
                    "duration": 0.07324937499998896
                },
                {
                    "name": "F#3",
                    "midi": 54,
                    "time": 142.1037875000012,
                    "velocity": 0.4409448818897638,
                    "duration": 0.07324937499998896
                },
                {
                    "name": "F#3",
                    "midi": 54,
                    "time": 142.25028625000118,
                    "velocity": 0.30708661417322836,
                    "duration": 0.07324937499998896
                },
                {
                    "name": "F#3",
                    "midi": 54,
                    "time": 142.39678500000116,
                    "velocity": 0.4015748031496063,
                    "duration": 0.07324937499998896
                },
                {
                    "name": "F#3",
                    "midi": 54,
                    "time": 142.54328375000114,
                    "velocity": 0.36220472440944884,
                    "duration": 0.07324937499998896
                },
                {
                    "name": "F#3",
                    "midi": 54,
                    "time": 142.68978250000112,
                    "velocity": 0.4015748031496063,
                    "duration": 0.07324937499998896
                },
                {
                    "name": "F#3",
                    "midi": 54,
                    "time": 142.8362812500011,
                    "velocity": 0.3543307086614173,
                    "duration": 0.07324937499998896
                },
                {
                    "name": "F3",
                    "midi": 53,
                    "time": 142.98278000000107,
                    "velocity": 0.4015748031496063,
                    "duration": 0.07324937499998896
                },
                {
                    "name": "F3",
                    "midi": 53,
                    "time": 143.12927875000105,
                    "velocity": 0.36220472440944884,
                    "duration": 0.07324937499998896
                },
                {
                    "name": "F#3",
                    "midi": 54,
                    "time": 143.27577750000103,
                    "velocity": 0.4409448818897638,
                    "duration": 0.07324937499998896
                },
                {
                    "name": "F#3",
                    "midi": 54,
                    "time": 143.422276250001,
                    "velocity": 0.4015748031496063,
                    "duration": 0.07324937499998896
                },
                {
                    "name": "G3",
                    "midi": 55,
                    "time": 143.56877500000098,
                    "velocity": 0.4881889763779528,
                    "duration": 0.07324937499998896
                },
                {
                    "name": "G3",
                    "midi": 55,
                    "time": 143.71527375000096,
                    "velocity": 0.4409448818897638,
                    "duration": 0.07324937499998896
                },
                {
                    "name": "F#3",
                    "midi": 54,
                    "time": 143.86177250000094,
                    "velocity": 0.44881889763779526,
                    "duration": 0.07324937499998896
                },
                {
                    "name": "F#3",
                    "midi": 54,
                    "time": 144.00827125000092,
                    "velocity": 0.3779527559055118,
                    "duration": 0.07324937499998896
                },
                {
                    "name": "G3",
                    "midi": 55,
                    "time": 144.1547700000009,
                    "velocity": 0.5433070866141733,
                    "duration": 0.07324937499998896
                },
                {
                    "name": "G3",
                    "midi": 55,
                    "time": 144.30126875000087,
                    "velocity": 0.4881889763779528,
                    "duration": 0.07324937499998896
                },
                {
                    "name": "F#3",
                    "midi": 54,
                    "time": 144.44776750000085,
                    "velocity": 0.4881889763779528,
                    "duration": 0.07324937499998896
                },
                {
                    "name": "F#3",
                    "midi": 54,
                    "time": 144.59426625000083,
                    "velocity": 0.41732283464566927,
                    "duration": 0.07324937499998896
                },
                {
                    "name": "A#3",
                    "midi": 58,
                    "time": 144.7407650000008,
                    "velocity": 0.36220472440944884,
                    "duration": 0.07324937499998896
                },
                {
                    "name": "A#3",
                    "midi": 58,
                    "time": 144.88726375000078,
                    "velocity": 0.30708661417322836,
                    "duration": 0.07324937499998896
                },
                {
                    "name": "B3",
                    "midi": 59,
                    "time": 145.03376250000076,
                    "velocity": 0.3858267716535433,
                    "duration": 0.07324937499998896
                },
                {
                    "name": "B3",
                    "midi": 59,
                    "time": 145.18026125000074,
                    "velocity": 0.3543307086614173,
                    "duration": 0.07324937499998896
                },
                {
                    "name": "C#4",
                    "midi": 61,
                    "time": 145.32676000000072,
                    "velocity": 0.4094488188976378,
                    "duration": 0.07324937499998896
                },
                {
                    "name": "C#4",
                    "midi": 61,
                    "time": 145.4732587500007,
                    "velocity": 0.3858267716535433,
                    "duration": 0.07324937499998896
                },
                {
                    "name": "D4",
                    "midi": 62,
                    "time": 145.61975750000067,
                    "velocity": 0.41732283464566927,
                    "duration": 0.07324937499998896
                },
                {
                    "name": "D4",
                    "midi": 62,
                    "time": 145.76625625000065,
                    "velocity": 0.4015748031496063,
                    "duration": 0.07324937499998896
                },
                {
                    "name": "E4",
                    "midi": 64,
                    "time": 145.91275500000063,
                    "velocity": 0.5039370078740157,
                    "duration": 0.07324937499998896
                },
                {
                    "name": "E4",
                    "midi": 64,
                    "time": 146.0592537500006,
                    "velocity": 0.4881889763779528,
                    "duration": 0.07324937499998896
                },
                {
                    "name": "F#4",
                    "midi": 66,
                    "time": 146.20575250000059,
                    "velocity": 0.5275590551181102,
                    "duration": 0.07324937499998896
                },
                {
                    "name": "F#4",
                    "midi": 66,
                    "time": 146.35225125000056,
                    "velocity": 0.48031496062992124,
                    "duration": 0.07324937499998896
                },
                {
                    "name": "E4",
                    "midi": 64,
                    "time": 146.49875000000054,
                    "velocity": 0.5354330708661418,
                    "duration": 0.07324937499998896
                },
                {
                    "name": "E4",
                    "midi": 64,
                    "time": 146.64524875000052,
                    "velocity": 0.4566929133858268,
                    "duration": 0.07324937499998896
                },
                {
                    "name": "D4",
                    "midi": 62,
                    "time": 146.7917475000005,
                    "velocity": 0.5275590551181102,
                    "duration": 0.07324937499998896
                },
                {
                    "name": "D4",
                    "midi": 62,
                    "time": 146.93824625000047,
                    "velocity": 0.4645669291338583,
                    "duration": 0.07324937499998896
                },
                {
                    "name": "C4",
                    "midi": 60,
                    "time": 147.08474500000045,
                    "velocity": 0.4881889763779528,
                    "duration": 0.07324937499998896
                },
                {
                    "name": "C4",
                    "midi": 60,
                    "time": 147.23124375000043,
                    "velocity": 0.4015748031496063,
                    "duration": 0.07324937499998896
                },
                {
                    "name": "B3",
                    "midi": 59,
                    "time": 147.3777425000004,
                    "velocity": 0.47244094488188976,
                    "duration": 0.07324937499998896
                },
                {
                    "name": "B3",
                    "midi": 59,
                    "time": 147.5242412500004,
                    "velocity": 0.4015748031496063,
                    "duration": 0.07324937499998896
                },
                {
                    "name": "A#3",
                    "midi": 58,
                    "time": 147.67074000000036,
                    "velocity": 0.41732283464566927,
                    "duration": 0.07324937499998896
                },
                {
                    "name": "A#3",
                    "midi": 58,
                    "time": 147.81723875000034,
                    "velocity": 0.3858267716535433,
                    "duration": 0.07324937499998896
                },
                {
                    "name": "B3",
                    "midi": 59,
                    "time": 147.96373750000032,
                    "velocity": 0.4094488188976378,
                    "duration": 0.07324937499998896
                },
                {
                    "name": "B3",
                    "midi": 59,
                    "time": 148.1102362500003,
                    "velocity": 0.3700787401574803,
                    "duration": 0.07324937499998896
                },
                {
                    "name": "F#3",
                    "midi": 54,
                    "time": 148.25673500000028,
                    "velocity": 0.4094488188976378,
                    "duration": 0.07324937499998896
                },
                {
                    "name": "F#3",
                    "midi": 54,
                    "time": 148.40323375000025,
                    "velocity": 0.3858267716535433,
                    "duration": 0.07324937499998896
                },
                {
                    "name": "G3",
                    "midi": 55,
                    "time": 148.54973250000023,
                    "velocity": 0.4015748031496063,
                    "duration": 0.07324937499998896
                },
                {
                    "name": "G3",
                    "midi": 55,
                    "time": 148.6962312500002,
                    "velocity": 0.33070866141732286,
                    "duration": 0.07324937499998896
                },
                {
                    "name": "F3",
                    "midi": 53,
                    "time": 148.8427300000002,
                    "velocity": 0.44881889763779526,
                    "duration": 0.07324937499998896
                },
                {
                    "name": "F3",
                    "midi": 53,
                    "time": 148.98922875000017,
                    "velocity": 0.2992125984251969,
                    "duration": 0.07324937499998896
                },
                {
                    "name": "F#3",
                    "midi": 54,
                    "time": 149.13572750000014,
                    "velocity": 0.33858267716535434,
                    "duration": 0.07324937499998896
                },
                {
                    "name": "F#3",
                    "midi": 54,
                    "time": 149.28222625000012,
                    "velocity": 0.2677165354330709,
                    "duration": 0.07324937499998896
                },
                {
                    "name": "C#3",
                    "midi": 49,
                    "time": 149.4287250000001,
                    "velocity": 0.33070866141732286,
                    "duration": 0.07324937499998896
                },
                {
                    "name": "C#3",
                    "midi": 49,
                    "time": 149.57522375000008,
                    "velocity": 0.28346456692913385,
                    "duration": 0.07324937499998896
                },
                {
                    "name": "D3",
                    "midi": 50,
                    "time": 149.72172250000006,
                    "velocity": 0.33070866141732286,
                    "duration": 0.07324937499998896
                },
                {
                    "name": "D3",
                    "midi": 50,
                    "time": 149.86822125000003,
                    "velocity": 0.2755905511811024,
                    "duration": 0.07324937499998896
                },
                {
                    "name": "B3",
                    "midi": 59,
                    "time": 150.01472,
                    "velocity": 0.31496062992125984,
                    "duration": 0.07324937499998896
                },
                {
                    "name": "F#3",
                    "midi": 54,
                    "time": 150.01472,
                    "velocity": 0.25196850393700787,
                    "duration": 0.07324937499998896
                },
                {
                    "name": "F#2",
                    "midi": 42,
                    "time": 150.01472,
                    "velocity": 0.25196850393700787,
                    "duration": 0.07324937499998896
                },
                {
                    "name": "F#2",
                    "midi": 42,
                    "time": 150.16121875,
                    "velocity": 0.23622047244094488,
                    "duration": 0.07324937499998896
                },
                {
                    "name": "F#3",
                    "midi": 54,
                    "time": 150.16121875,
                    "velocity": 0.23622047244094488,
                    "duration": 0.07324937499998896
                },
                {
                    "name": "B3",
                    "midi": 59,
                    "time": 150.16121875,
                    "velocity": 0.2992125984251969,
                    "duration": 0.07324937499998896
                },
                {
                    "name": "B3",
                    "midi": 59,
                    "time": 150.30771749999997,
                    "velocity": 0.25984251968503935,
                    "duration": 0.07324937499998896
                },
                {
                    "name": "F#3",
                    "midi": 54,
                    "time": 150.30771749999997,
                    "velocity": 0.25984251968503935,
                    "duration": 0.07324937499998896
                },
                {
                    "name": "B2",
                    "midi": 47,
                    "time": 150.30771749999997,
                    "velocity": 0.31496062992125984,
                    "duration": 0.07324937499998896
                },
                {
                    "name": "B3",
                    "midi": 59,
                    "time": 150.45421624999994,
                    "velocity": 0.2677165354330709,
                    "duration": 0.07324937499998896
                },
                {
                    "name": "F#3",
                    "midi": 54,
                    "time": 150.45421624999994,
                    "velocity": 0.2677165354330709,
                    "duration": 0.07324937499998896
                },
                {
                    "name": "B2",
                    "midi": 47,
                    "time": 150.45421624999994,
                    "velocity": 0.2677165354330709,
                    "duration": 0.07324937499998896
                },
                {
                    "name": "D4",
                    "midi": 62,
                    "time": 150.45421624999994,
                    "velocity": 0.3543307086614173,
                    "duration": 0.07324937499998896
                },
                {
                    "name": "B3",
                    "midi": 59,
                    "time": 150.60071499999992,
                    "velocity": 0.31496062992125984,
                    "duration": 0.07324937499998896
                },
                {
                    "name": "F#3",
                    "midi": 54,
                    "time": 150.60071499999992,
                    "velocity": 0.31496062992125984,
                    "duration": 0.07324937499998896
                },
                {
                    "name": "B2",
                    "midi": 47,
                    "time": 150.60071499999992,
                    "velocity": 0.31496062992125984,
                    "duration": 0.07324937499998896
                },
                {
                    "name": "D4",
                    "midi": 62,
                    "time": 150.60071499999992,
                    "velocity": 0.31496062992125984,
                    "duration": 0.07324937499998896
                },
                {
                    "name": "F#4",
                    "midi": 66,
                    "time": 150.60071499999992,
                    "velocity": 0.4015748031496063,
                    "duration": 0.07324937499998896
                },
                {
                    "name": "B3",
                    "midi": 59,
                    "time": 150.7472137499999,
                    "velocity": 0.3543307086614173,
                    "duration": 0.07324937499998896
                },
                {
                    "name": "F#3",
                    "midi": 54,
                    "time": 150.7472137499999,
                    "velocity": 0.3543307086614173,
                    "duration": 0.07324937499998896
                },
                {
                    "name": "B2",
                    "midi": 47,
                    "time": 150.7472137499999,
                    "velocity": 0.3543307086614173,
                    "duration": 0.07324937499998896
                },
                {
                    "name": "D4",
                    "midi": 62,
                    "time": 150.7472137499999,
                    "velocity": 0.3543307086614173,
                    "duration": 0.07324937499998896
                },
                {
                    "name": "F#4",
                    "midi": 66,
                    "time": 150.7472137499999,
                    "velocity": 0.4566929133858268,
                    "duration": 0.07324937499998896
                },
                {
                    "name": "B3",
                    "midi": 59,
                    "time": 150.89371249999988,
                    "velocity": 0.41732283464566927,
                    "duration": 0.07324937499998896
                },
                {
                    "name": "F#3",
                    "midi": 54,
                    "time": 150.89371249999988,
                    "velocity": 0.41732283464566927,
                    "duration": 0.07324937499998896
                },
                {
                    "name": "B2",
                    "midi": 47,
                    "time": 150.89371249999988,
                    "velocity": 0.41732283464566927,
                    "duration": 0.07324937499998896
                },
                {
                    "name": "D4",
                    "midi": 62,
                    "time": 150.89371249999988,
                    "velocity": 0.41732283464566927,
                    "duration": 0.07324937499998896
                },
                {
                    "name": "F#4",
                    "midi": 66,
                    "time": 150.89371249999988,
                    "velocity": 0.5275590551181102,
                    "duration": 0.07324937499998896
                },
                {
                    "name": "B3",
                    "midi": 59,
                    "time": 151.04021124999986,
                    "velocity": 0.49606299212598426,
                    "duration": 0.07324937499998896
                },
                {
                    "name": "F#3",
                    "midi": 54,
                    "time": 151.04021124999986,
                    "velocity": 0.49606299212598426,
                    "duration": 0.07324937499998896
                },
                {
                    "name": "B2",
                    "midi": 47,
                    "time": 151.04021124999986,
                    "velocity": 0.49606299212598426,
                    "duration": 0.07324937499998896
                },
                {
                    "name": "D4",
                    "midi": 62,
                    "time": 151.04021124999986,
                    "velocity": 0.49606299212598426,
                    "duration": 0.07324937499998896
                },
                {
                    "name": "F#4",
                    "midi": 66,
                    "time": 151.04021124999986,
                    "velocity": 0.6141732283464567,
                    "duration": 0.07324937499998896
                },
                {
                    "name": "D4",
                    "midi": 62,
                    "time": 151.18670999999983,
                    "velocity": 0.4881889763779528,
                    "duration": 0.07324937499998896
                },
                {
                    "name": "F#4",
                    "midi": 66,
                    "time": 151.18670999999983,
                    "velocity": 0.5826771653543307,
                    "duration": 0.07324937499998896
                },
                {
                    "name": "B3",
                    "midi": 59,
                    "time": 151.18670999999983,
                    "velocity": 0.4881889763779528,
                    "duration": 0.07324937499998896
                },
                {
                    "name": "F#3",
                    "midi": 54,
                    "time": 151.18670999999983,
                    "velocity": 0.4094488188976378,
                    "duration": 0.07324937499998896
                },
                {
                    "name": "B2",
                    "midi": 47,
                    "time": 151.18670999999983,
                    "velocity": 0.4094488188976378,
                    "duration": 0.07324937499998896
                },
                {
                    "name": "F#4",
                    "midi": 66,
                    "time": 151.3332087499998,
                    "velocity": 0.4881889763779528,
                    "duration": 0.07324937499998896
                },
                {
                    "name": "B3",
                    "midi": 59,
                    "time": 151.3332087499998,
                    "velocity": 0.4094488188976378,
                    "duration": 0.07324937499998896
                },
                {
                    "name": "F#3",
                    "midi": 54,
                    "time": 151.3332087499998,
                    "velocity": 0.3464566929133858,
                    "duration": 0.07324937499998896
                },
                {
                    "name": "B2",
                    "midi": 47,
                    "time": 151.3332087499998,
                    "velocity": 0.3464566929133858,
                    "duration": 0.07324937499998896
                },
                {
                    "name": "D4",
                    "midi": 62,
                    "time": 151.3332087499998,
                    "velocity": 0.4094488188976378,
                    "duration": 0.07324937499998896
                },
                {
                    "name": "B3",
                    "midi": 59,
                    "time": 151.4797074999998,
                    "velocity": 0.4566929133858268,
                    "duration": 0.07324937499998896
                },
                {
                    "name": "F#3",
                    "midi": 54,
                    "time": 151.4797074999998,
                    "velocity": 0.3858267716535433,
                    "duration": 0.07324937499998896
                },
                {
                    "name": "B2",
                    "midi": 47,
                    "time": 151.4797074999998,
                    "velocity": 0.3858267716535433,
                    "duration": 0.07324937499998896
                },
                {
                    "name": "D4",
                    "midi": 62,
                    "time": 151.4797074999998,
                    "velocity": 0.4566929133858268,
                    "duration": 0.07324937499998896
                },
                {
                    "name": "F#4",
                    "midi": 66,
                    "time": 151.4797074999998,
                    "velocity": 0.5433070866141733,
                    "duration": 0.07324937499998896
                },
                {
                    "name": "B3",
                    "midi": 59,
                    "time": 151.62620624999977,
                    "velocity": 0.4251968503937008,
                    "duration": 0.07324937499998896
                },
                {
                    "name": "F#3",
                    "midi": 54,
                    "time": 151.62620624999977,
                    "velocity": 0.3543307086614173,
                    "duration": 0.07324937499998896
                },
                {
                    "name": "B2",
                    "midi": 47,
                    "time": 151.62620624999977,
                    "velocity": 0.3543307086614173,
                    "duration": 0.07324937499998896
                },
                {
                    "name": "D4",
                    "midi": 62,
                    "time": 151.62620624999977,
                    "velocity": 0.4251968503937008,
                    "duration": 0.07324937499998896
                },
                {
                    "name": "F#4",
                    "midi": 66,
                    "time": 151.62620624999977,
                    "velocity": 0.49606299212598426,
                    "duration": 0.07324937499998896
                },
                {
                    "name": "B3",
                    "midi": 59,
                    "time": 151.77270499999975,
                    "velocity": 0.4645669291338583,
                    "duration": 0.07324937499998896
                },
                {
                    "name": "F#3",
                    "midi": 54,
                    "time": 151.77270499999975,
                    "velocity": 0.3937007874015748,
                    "duration": 0.07324937499998896
                },
                {
                    "name": "B2",
                    "midi": 47,
                    "time": 151.77270499999975,
                    "velocity": 0.3937007874015748,
                    "duration": 0.07324937499998896
                },
                {
                    "name": "D4",
                    "midi": 62,
                    "time": 151.77270499999975,
                    "velocity": 0.4645669291338583,
                    "duration": 0.07324937499998896
                },
                {
                    "name": "F#4",
                    "midi": 66,
                    "time": 151.77270499999975,
                    "velocity": 0.5511811023622047,
                    "duration": 0.07324937499998896
                },
                {
                    "name": "F#4",
                    "midi": 66,
                    "time": 151.91920374999972,
                    "velocity": 0.4881889763779528,
                    "duration": 0.07324937499998896
                },
                {
                    "name": "D4",
                    "midi": 62,
                    "time": 151.91920374999972,
                    "velocity": 0.41732283464566927,
                    "duration": 0.07324937499998896
                },
                {
                    "name": "B2",
                    "midi": 47,
                    "time": 151.91920374999972,
                    "velocity": 0.3464566929133858,
                    "duration": 0.07324937499998896
                },
                {
                    "name": "F#3",
                    "midi": 54,
                    "time": 151.91920374999972,
                    "velocity": 0.3464566929133858,
                    "duration": 0.07324937499998896
                },
                {
                    "name": "B3",
                    "midi": 59,
                    "time": 151.91920374999972,
                    "velocity": 0.41732283464566927,
                    "duration": 0.07324937499998896
                },
                {
                    "name": "D4",
                    "midi": 62,
                    "time": 152.0657024999997,
                    "velocity": 0.44881889763779526,
                    "duration": 0.07324937499998896
                },
                {
                    "name": "F#4",
                    "midi": 66,
                    "time": 152.0657024999997,
                    "velocity": 0.5354330708661418,
                    "duration": 0.07324937499998896
                },
                {
                    "name": "B3",
                    "midi": 59,
                    "time": 152.0657024999997,
                    "velocity": 0.44881889763779526,
                    "duration": 0.07324937499998896
                },
                {
                    "name": "F#3",
                    "midi": 54,
                    "time": 152.0657024999997,
                    "velocity": 0.3779527559055118,
                    "duration": 0.07324937499998896
                },
                {
                    "name": "B2",
                    "midi": 47,
                    "time": 152.0657024999997,
                    "velocity": 0.3779527559055118,
                    "duration": 0.07324937499998896
                },
                {
                    "name": "F#4",
                    "midi": 66,
                    "time": 152.21220124999968,
                    "velocity": 0.4566929133858268,
                    "duration": 0.07324937499998896
                },
                {
                    "name": "B3",
                    "midi": 59,
                    "time": 152.21220124999968,
                    "velocity": 0.3858267716535433,
                    "duration": 0.07324937499998896
                },
                {
                    "name": "F#3",
                    "midi": 54,
                    "time": 152.21220124999968,
                    "velocity": 0.31496062992125984,
                    "duration": 0.07324937499998896
                },
                {
                    "name": "B2",
                    "midi": 47,
                    "time": 152.21220124999968,
                    "velocity": 0.31496062992125984,
                    "duration": 0.07324937499998896
                },
                {
                    "name": "D4",
                    "midi": 62,
                    "time": 152.21220124999968,
                    "velocity": 0.3858267716535433,
                    "duration": 0.07324937499998896
                },
                {
                    "name": "B3",
                    "midi": 59,
                    "time": 152.35869999999966,
                    "velocity": 0.4330708661417323,
                    "duration": 0.07324937499998896
                },
                {
                    "name": "F#3",
                    "midi": 54,
                    "time": 152.35869999999966,
                    "velocity": 0.36220472440944884,
                    "duration": 0.07324937499998896
                },
                {
                    "name": "B2",
                    "midi": 47,
                    "time": 152.35869999999966,
                    "velocity": 0.36220472440944884,
                    "duration": 0.07324937499998896
                },
                {
                    "name": "D4",
                    "midi": 62,
                    "time": 152.35869999999966,
                    "velocity": 0.4330708661417323,
                    "duration": 0.07324937499998896
                },
                {
                    "name": "F#4",
                    "midi": 66,
                    "time": 152.35869999999966,
                    "velocity": 0.5118110236220472,
                    "duration": 0.07324937499998896
                },
                {
                    "name": "B3",
                    "midi": 59,
                    "time": 152.50519874999964,
                    "velocity": 0.3858267716535433,
                    "duration": 0.07324937499998896
                },
                {
                    "name": "F#3",
                    "midi": 54,
                    "time": 152.50519874999964,
                    "velocity": 0.3228346456692913,
                    "duration": 0.07324937499998896
                },
                {
                    "name": "B2",
                    "midi": 47,
                    "time": 152.50519874999964,
                    "velocity": 0.3228346456692913,
                    "duration": 0.07324937499998896
                },
                {
                    "name": "D4",
                    "midi": 62,
                    "time": 152.50519874999964,
                    "velocity": 0.3858267716535433,
                    "duration": 0.07324937499998896
                },
                {
                    "name": "F#4",
                    "midi": 66,
                    "time": 152.50519874999964,
                    "velocity": 0.4566929133858268,
                    "duration": 0.07324937499998896
                },
                {
                    "name": "B3",
                    "midi": 59,
                    "time": 152.6516974999996,
                    "velocity": 0.41732283464566927,
                    "duration": 0.07324937499998896
                },
                {
                    "name": "F#3",
                    "midi": 54,
                    "time": 152.6516974999996,
                    "velocity": 0.3464566929133858,
                    "duration": 0.07324937499998896
                },
                {
                    "name": "B2",
                    "midi": 47,
                    "time": 152.6516974999996,
                    "velocity": 0.3464566929133858,
                    "duration": 0.07324937499998896
                },
                {
                    "name": "D4",
                    "midi": 62,
                    "time": 152.6516974999996,
                    "velocity": 0.41732283464566927,
                    "duration": 0.07324937499998896
                },
                {
                    "name": "F#4",
                    "midi": 66,
                    "time": 152.6516974999996,
                    "velocity": 0.49606299212598426,
                    "duration": 0.07324937499998896
                },
                {
                    "name": "F#4",
                    "midi": 66,
                    "time": 152.7981962499996,
                    "velocity": 0.4645669291338583,
                    "duration": 0.07324937499998896
                },
                {
                    "name": "D4",
                    "midi": 62,
                    "time": 152.7981962499996,
                    "velocity": 0.3937007874015748,
                    "duration": 0.07324937499998896
                },
                {
                    "name": "B2",
                    "midi": 47,
                    "time": 152.7981962499996,
                    "velocity": 0.33070866141732286,
                    "duration": 0.07324937499998896
                },
                {
                    "name": "F#3",
                    "midi": 54,
                    "time": 152.7981962499996,
                    "velocity": 0.33070866141732286,
                    "duration": 0.07324937499998896
                },
                {
                    "name": "B3",
                    "midi": 59,
                    "time": 152.7981962499996,
                    "velocity": 0.3937007874015748,
                    "duration": 0.07324937499998896
                },
                {
                    "name": "F#4",
                    "midi": 66,
                    "time": 152.94469499999957,
                    "velocity": 0.5118110236220472,
                    "duration": 0.2197481249999953
                },
                {
                    "name": "D4",
                    "midi": 62,
                    "time": 152.94469499999957,
                    "velocity": 0.4330708661417323,
                    "duration": 0.2197481249999953
                },
                {
                    "name": "B3",
                    "midi": 59,
                    "time": 152.94469499999957,
                    "velocity": 0.4330708661417323,
                    "duration": 0.2197481249999953
                },
                {
                    "name": "F#3",
                    "midi": 54,
                    "time": 152.94469499999957,
                    "velocity": 0.36220472440944884,
                    "duration": 0.2197481249999953
                },
                {
                    "name": "B2",
                    "midi": 47,
                    "time": 152.94469499999957,
                    "velocity": 0.36220472440944884,
                    "duration": 0.2197481249999953
                },
                {
                    "name": "F#4",
                    "midi": 66,
                    "time": 153.23769249999955,
                    "velocity": 0.4330708661417323,
                    "duration": 0.2197481249999953
                },
                {
                    "name": "D4",
                    "midi": 62,
                    "time": 153.23769249999955,
                    "velocity": 0.36220472440944884,
                    "duration": 0.2197481249999953
                },
                {
                    "name": "B3",
                    "midi": 59,
                    "time": 153.23769249999955,
                    "velocity": 0.36220472440944884,
                    "duration": 0.2197481249999953
                },
                {
                    "name": "F#3",
                    "midi": 54,
                    "time": 153.23769249999955,
                    "velocity": 0.30708661417322836,
                    "duration": 0.2197481249999953
                },
                {
                    "name": "B2",
                    "midi": 47,
                    "time": 153.23769249999955,
                    "velocity": 0.30708661417322836,
                    "duration": 0.2197481249999953
                },
                {
                    "name": "F#4",
                    "midi": 66,
                    "time": 153.53068999999954,
                    "velocity": 0.41732283464566927,
                    "duration": 0.2197481249999953
                },
                {
                    "name": "D4",
                    "midi": 62,
                    "time": 153.53068999999954,
                    "velocity": 0.3543307086614173,
                    "duration": 0.2197481249999953
                },
                {
                    "name": "B3",
                    "midi": 59,
                    "time": 153.53068999999954,
                    "velocity": 0.3543307086614173,
                    "duration": 0.2197481249999953
                },
                {
                    "name": "F#3",
                    "midi": 54,
                    "time": 153.53068999999954,
                    "velocity": 0.2992125984251969,
                    "duration": 0.2197481249999953
                },
                {
                    "name": "B2",
                    "midi": 47,
                    "time": 153.53068999999954,
                    "velocity": 0.2992125984251969,
                    "duration": 0.2197481249999953
                },
                {
                    "name": "D4",
                    "midi": 62,
                    "time": 153.82368749999952,
                    "velocity": 0.28346456692913385,
                    "duration": 0.2929975000000127
                },
                {
                    "name": "F#4",
                    "midi": 66,
                    "time": 153.82368749999952,
                    "velocity": 0.3464566929133858,
                    "duration": 0.2929975000000127
                },
                {
                    "name": "B3",
                    "midi": 59,
                    "time": 153.82368749999952,
                    "velocity": 0.28346456692913385,
                    "duration": 0.2929975000000127
                },
                {
                    "name": "F#3",
                    "midi": 54,
                    "time": 153.82368749999952,
                    "velocity": 0.23622047244094488,
                    "duration": 0.2929975000000127
                },
                {
                    "name": "B2",
                    "midi": 47,
                    "time": 153.82368749999952,
                    "velocity": 0.23622047244094488,
                    "duration": 0.2929975000000127
                },
                {
                    "name": "B2",
                    "midi": 47,
                    "time": 154.70267999999953,
                    "velocity": 0.2125984251968504,
                    "duration": 0.2929975000000127
                },
                {
                    "name": "F#3",
                    "midi": 54,
                    "time": 154.70267999999953,
                    "velocity": 0.2125984251968504,
                    "duration": 0.2929975000000127
                },
                {
                    "name": "B3",
                    "midi": 59,
                    "time": 154.70267999999953,
                    "velocity": 0.25984251968503935,
                    "duration": 0.2929975000000127
                },
                {
                    "name": "D4",
                    "midi": 62,
                    "time": 154.70267999999953,
                    "velocity": 0.25984251968503935,
                    "duration": 0.2929975000000127
                },
                {
                    "name": "F#4",
                    "midi": 66,
                    "time": 154.70267999999953,
                    "velocity": 0.31496062992125984,
                    "duration": 0.2929975000000127
                },
                {
                    "name": "B2",
                    "midi": 47,
                    "time": 155.58167249999954,
                    "velocity": 0.1889763779527559,
                    "duration": 0.2929975000000127
                },
                {
                    "name": "F#3",
                    "midi": 54,
                    "time": 155.58167249999954,
                    "velocity": 0.1889763779527559,
                    "duration": 0.2929975000000127
                },
                {
                    "name": "B3",
                    "midi": 59,
                    "time": 155.58167249999954,
                    "velocity": 0.2283464566929134,
                    "duration": 0.2929975000000127
                },
                {
                    "name": "D4",
                    "midi": 62,
                    "time": 155.58167249999954,
                    "velocity": 0.2283464566929134,
                    "duration": 0.2929975000000127
                },
                {
                    "name": "F#4",
                    "midi": 66,
                    "time": 155.58167249999954,
                    "velocity": 0.2755905511811024,
                    "duration": 0.2929975000000127
                }
            ],
            "controlChanges": {},
            "id": 2,
            "name": "Piano left",
            "instrumentNumber": 0,
            "instrument": "acoustic grand piano",
            "instrumentFamily": "piano",
            "channelNumber": 0,
            "isPercussion": false
        },
        {
            "startTime": 0,
            "duration": 0,
            "length": 0,
            "notes": [],
            "controlChanges": {
                "64": [
                    {
                        "number": 64,
                        "time": 1.803155447916667,
                        "value": 1
                    },
                    {
                        "number": 64,
                        "time": 2.0619699062500003,
                        "value": 0
                    },
                    {
                        "number": 64,
                        "time": 2.68458959375,
                        "value": 1
                    },
                    {
                        "number": 64,
                        "time": 2.93363746875,
                        "value": 0
                    },
                    {
                        "number": 64,
                        "time": 3.56358209375,
                        "value": 1
                    },
                    {
                        "number": 64,
                        "time": 3.8309423125,
                        "value": 0
                    },
                    {
                        "number": 64,
                        "time": 4.447457885416666,
                        "value": 1
                    },
                    {
                        "number": 64,
                        "time": 5.001711489583333,
                        "value": 0
                    },
                    {
                        "number": 64,
                        "time": 5.05054440625,
                        "value": 1
                    },
                    {
                        "number": 64,
                        "time": 5.273955,
                        "value": 0
                    },
                    {
                        "number": 64,
                        "time": 5.337437791666667,
                        "value": 1
                    },
                    {
                        "number": 64,
                        "time": 5.73176359375,
                        "value": 0
                    },
                    {
                        "number": 64,
                        "time": 6.187130541666667,
                        "value": 1
                    },
                    {
                        "number": 64,
                        "time": 6.6144185625,
                        "value": 0
                    },
                    {
                        "number": 64,
                        "time": 7.060018927083333,
                        "value": 1
                    },
                    {
                        "number": 64,
                        "time": 7.476319541666666,
                        "value": 0
                    },
                    {
                        "number": 64,
                        "time": 7.974415291666666,
                        "value": 1
                    },
                    {
                        "number": 64,
                        "time": 8.232008927083333,
                        "value": 0
                    },
                    {
                        "number": 64,
                        "time": 8.267412791666667,
                        "value": 1
                    },
                    {
                        "number": 64,
                        "time": 8.517681489583333,
                        "value": 0
                    },
                    {
                        "number": 64,
                        "time": 8.825328864583334,
                        "value": 1
                    },
                    {
                        "number": 64,
                        "time": 9.0902474375,
                        "value": 0
                    },
                    {
                        "number": 64,
                        "time": 9.707983833333333,
                        "value": 1
                    },
                    {
                        "number": 64,
                        "time": 9.979006520833334,
                        "value": 0
                    },
                    {
                        "number": 64,
                        "time": 10.048593427083334,
                        "value": 1
                    },
                    {
                        "number": 64,
                        "time": 10.267120729166667,
                        "value": 0
                    },
                    {
                        "number": 64,
                        "time": 10.307407885416668,
                        "value": 1
                    },
                    {
                        "number": 64,
                        "time": 10.555234937500002,
                        "value": 0
                    },
                    {
                        "number": 64,
                        "time": 10.633367604166668,
                        "value": 1
                    },
                    {
                        "number": 64,
                        "time": 10.859219843750003,
                        "value": 0
                    },
                    {
                        "number": 64,
                        "time": 10.916598520833336,
                        "value": 1
                    },
                    {
                        "number": 64,
                        "time": 11.148554875000002,
                        "value": 0
                    },
                    {
                        "number": 64,
                        "time": 11.18273791666667,
                        "value": 1
                    },
                    {
                        "number": 64,
                        "time": 11.434227437500002,
                        "value": 0
                    },
                    {
                        "number": 64,
                        "time": 11.51236010416667,
                        "value": 1
                    },
                    {
                        "number": 64,
                        "time": 12.038534781250002,
                        "value": 0
                    },
                    {
                        "number": 64,
                        "time": 12.103238395833335,
                        "value": 1
                    },
                    {
                        "number": 64,
                        "time": 12.313219937500001,
                        "value": 0
                    },
                    {
                        "number": 64,
                        "time": 12.370598614583335,
                        "value": 1
                    },
                    {
                        "number": 64,
                        "time": 12.756378656250002,
                        "value": 0
                    },
                    {
                        "number": 64,
                        "time": 13.232499593750001,
                        "value": 1
                    },
                    {
                        "number": 64,
                        "time": 13.7928573125,
                        "value": 0
                    },
                    {
                        "number": 64,
                        "time": 13.840469406250001,
                        "value": 1
                    },
                    {
                        "number": 64,
                        "time": 14.074867406250002,
                        "value": 0
                    },
                    {
                        "number": 64,
                        "time": 14.106608802083334,
                        "value": 1
                    },
                    {
                        "number": 64,
                        "time": 14.514363656250001,
                        "value": 0
                    },
                    {
                        "number": 64,
                        "time": 14.963626489583335,
                        "value": 1
                    },
                    {
                        "number": 64,
                        "time": 15.414110145833336,
                        "value": 0
                    },
                    {
                        "number": 64,
                        "time": 15.847502281250001,
                        "value": 1
                    },
                    {
                        "number": 64,
                        "time": 16.29554429166667,
                        "value": 0
                    },
                    {
                        "number": 64,
                        "time": 16.728936427083337,
                        "value": 1
                    },
                    {
                        "number": 64,
                        "time": 17.286852500000002,
                        "value": 0
                    },
                    {
                        "number": 64,
                        "time": 17.62746209375,
                        "value": 1
                    },
                    {
                        "number": 64,
                        "time": 18.218340385416667,
                        "value": 0
                    },
                    {
                        "number": 64,
                        "time": 18.469829906250002,
                        "value": 1
                    },
                    {
                        "number": 64,
                        "time": 19.080241364583337,
                        "value": 0
                    },
                    {
                        "number": 64,
                        "time": 19.352484875000002,
                        "value": 1
                    },
                    {
                        "number": 64,
                        "time": 19.809072645833336,
                        "value": 0
                    },
                    {
                        "number": 64,
                        "time": 20.26932288541667,
                        "value": 1
                    },
                    {
                        "number": 64,
                        "time": 21.112911520833336,
                        "value": 0
                    },
                    {
                        "number": 64,
                        "time": 21.164186083333338,
                        "value": 1
                    },
                    {
                        "number": 64,
                        "time": 21.40468819791667,
                        "value": 0
                    },
                    {
                        "number": 64,
                        "time": 21.432767125,
                        "value": 1
                    },
                    {
                        "number": 64,
                        "time": 21.694023229166667,
                        "value": 0
                    },
                    {
                        "number": 64,
                        "time": 21.72942709375,
                        "value": 1
                    },
                    {
                        "number": 64,
                        "time": 21.9967873125,
                        "value": 0
                    },
                    {
                        "number": 64,
                        "time": 22.02730788541667,
                        "value": 1
                    },
                    {
                        "number": 64,
                        "time": 22.57301572916667,
                        "value": 0
                    },
                    {
                        "number": 64,
                        "time": 22.61696535416667,
                        "value": 1
                    },
                    {
                        "number": 64,
                        "time": 22.879442281250004,
                        "value": 0
                    },
                    {
                        "number": 64,
                        "time": 22.912404500000005,
                        "value": 1
                    },
                    {
                        "number": 64,
                        "time": 23.453229052083337,
                        "value": 0
                    },
                    {
                        "number": 64,
                        "time": 23.502061968750002,
                        "value": 1
                    },
                    {
                        "number": 64,
                        "time": 23.742564083333335,
                        "value": 0
                    },
                    {
                        "number": 64,
                        "time": 23.819475927083335,
                        "value": 1
                    },
                    {
                        "number": 64,
                        "time": 24.621556583333334,
                        "value": 0
                    },
                    {
                        "number": 64,
                        "time": 24.649635510416665,
                        "value": 1
                    },
                    {
                        "number": 64,
                        "time": 25.209993229166667,
                        "value": 0
                    },
                    {
                        "number": 64,
                        "time": 25.239292979166667,
                        "value": 1
                    },
                    {
                        "number": 64,
                        "time": 25.495665791666667,
                        "value": 0
                    },
                    {
                        "number": 64,
                        "time": 25.559148583333332,
                        "value": 1
                    },
                    {
                        "number": 64,
                        "time": 26.39541228125,
                        "value": 0
                    },
                    {
                        "number": 64,
                        "time": 26.43936190625,
                        "value": 1
                    },
                    {
                        "number": 64,
                        "time": 26.971640697916666,
                        "value": 0
                    },
                    {
                        "number": 64,
                        "time": 27.011927854166665,
                        "value": 1
                    },
                    {
                        "number": 64,
                        "time": 27.275625604166663,
                        "value": 0
                    },
                    {
                        "number": 64,
                        "time": 27.318354406249995,
                        "value": 1
                    },
                    {
                        "number": 64,
                        "time": 28.139968229166662,
                        "value": 0
                    },
                    {
                        "number": 64,
                        "time": 28.18025538541666,
                        "value": 1
                    },
                    {
                        "number": 64,
                        "time": 28.727184052083327,
                        "value": 0
                    },
                    {
                        "number": 64,
                        "time": 28.76991285416666,
                        "value": 1
                    },
                    {
                        "number": 64,
                        "time": 29.033610604166658,
                        "value": 0
                    },
                    {
                        "number": 64,
                        "time": 29.05070212499999,
                        "value": 1
                    },
                    {
                        "number": 64,
                        "time": 30.485169052083325,
                        "value": 0
                    },
                    {
                        "number": 64,
                        "time": 30.80990794791666,
                        "value": 1
                    },
                    {
                        "number": 64,
                        "time": 31.068722406249993,
                        "value": 0
                    },
                    {
                        "number": 64,
                        "time": 31.69134209374999,
                        "value": 1
                    },
                    {
                        "number": 64,
                        "time": 31.94038996874999,
                        "value": 0
                    },
                    {
                        "number": 64,
                        "time": 32.57033459374999,
                        "value": 1
                    },
                    {
                        "number": 64,
                        "time": 32.83769481249999,
                        "value": 0
                    },
                    {
                        "number": 64,
                        "time": 33.45421038541666,
                        "value": 1
                    },
                    {
                        "number": 64,
                        "time": 34.008463989583326,
                        "value": 0
                    },
                    {
                        "number": 64,
                        "time": 34.057296906249995,
                        "value": 1
                    },
                    {
                        "number": 64,
                        "time": 34.2807075,
                        "value": 0
                    },
                    {
                        "number": 64,
                        "time": 34.34419029166666,
                        "value": 1
                    },
                    {
                        "number": 64,
                        "time": 34.73851609375,
                        "value": 0
                    },
                    {
                        "number": 64,
                        "time": 35.193883041666666,
                        "value": 1
                    },
                    {
                        "number": 64,
                        "time": 35.6211710625,
                        "value": 0
                    },
                    {
                        "number": 64,
                        "time": 36.06677142708333,
                        "value": 1
                    },
                    {
                        "number": 64,
                        "time": 36.48307204166667,
                        "value": 0
                    },
                    {
                        "number": 64,
                        "time": 36.981167791666664,
                        "value": 1
                    },
                    {
                        "number": 64,
                        "time": 37.23876142708333,
                        "value": 0
                    },
                    {
                        "number": 64,
                        "time": 37.27416529166666,
                        "value": 1
                    },
                    {
                        "number": 64,
                        "time": 37.52443398958333,
                        "value": 0
                    },
                    {
                        "number": 64,
                        "time": 37.83208136458333,
                        "value": 1
                    },
                    {
                        "number": 64,
                        "time": 38.096999937499994,
                        "value": 0
                    },
                    {
                        "number": 64,
                        "time": 38.71473633333333,
                        "value": 1
                    },
                    {
                        "number": 64,
                        "time": 38.98575902083333,
                        "value": 0
                    },
                    {
                        "number": 64,
                        "time": 39.05534592708333,
                        "value": 1
                    },
                    {
                        "number": 64,
                        "time": 39.27387322916666,
                        "value": 0
                    },
                    {
                        "number": 64,
                        "time": 39.31416038541666,
                        "value": 1
                    },
                    {
                        "number": 64,
                        "time": 39.561987437499994,
                        "value": 0
                    },
                    {
                        "number": 64,
                        "time": 39.64012010416666,
                        "value": 1
                    },
                    {
                        "number": 64,
                        "time": 39.865972343749995,
                        "value": 0
                    },
                    {
                        "number": 64,
                        "time": 39.92335102083333,
                        "value": 1
                    },
                    {
                        "number": 64,
                        "time": 40.155307375,
                        "value": 0
                    },
                    {
                        "number": 64,
                        "time": 40.189490416666665,
                        "value": 1
                    },
                    {
                        "number": 64,
                        "time": 40.440979937499996,
                        "value": 0
                    },
                    {
                        "number": 64,
                        "time": 40.519112604166665,
                        "value": 1
                    },
                    {
                        "number": 64,
                        "time": 41.04528728125,
                        "value": 0
                    },
                    {
                        "number": 64,
                        "time": 41.109990895833334,
                        "value": 1
                    },
                    {
                        "number": 64,
                        "time": 41.3199724375,
                        "value": 0
                    },
                    {
                        "number": 64,
                        "time": 41.377351114583334,
                        "value": 1
                    },
                    {
                        "number": 64,
                        "time": 41.76313115625,
                        "value": 0
                    },
                    {
                        "number": 64,
                        "time": 42.23925209375,
                        "value": 1
                    },
                    {
                        "number": 64,
                        "time": 42.799609812499995,
                        "value": 0
                    },
                    {
                        "number": 64,
                        "time": 42.84722190624999,
                        "value": 1
                    },
                    {
                        "number": 64,
                        "time": 43.08161990624999,
                        "value": 0
                    },
                    {
                        "number": 64,
                        "time": 43.11336130208333,
                        "value": 1
                    },
                    {
                        "number": 64,
                        "time": 43.521116156249995,
                        "value": 0
                    },
                    {
                        "number": 64,
                        "time": 43.97037898958333,
                        "value": 1
                    },
                    {
                        "number": 64,
                        "time": 44.42086264583333,
                        "value": 0
                    },
                    {
                        "number": 64,
                        "time": 44.85425478125,
                        "value": 1
                    },
                    {
                        "number": 64,
                        "time": 45.30229679166666,
                        "value": 0
                    },
                    {
                        "number": 64,
                        "time": 45.73568892708333,
                        "value": 1
                    },
                    {
                        "number": 64,
                        "time": 46.293605,
                        "value": 0
                    },
                    {
                        "number": 64,
                        "time": 46.63421459375,
                        "value": 1
                    },
                    {
                        "number": 64,
                        "time": 47.22509288541667,
                        "value": 0
                    },
                    {
                        "number": 64,
                        "time": 47.47658240625,
                        "value": 1
                    },
                    {
                        "number": 64,
                        "time": 48.086993864583334,
                        "value": 0
                    },
                    {
                        "number": 64,
                        "time": 48.359237375,
                        "value": 1
                    },
                    {
                        "number": 64,
                        "time": 48.81582514583333,
                        "value": 0
                    },
                    {
                        "number": 64,
                        "time": 49.27607538541666,
                        "value": 1
                    },
                    {
                        "number": 64,
                        "time": 50.119664020833326,
                        "value": 0
                    },
                    {
                        "number": 64,
                        "time": 50.170938583333324,
                        "value": 1
                    },
                    {
                        "number": 64,
                        "time": 50.41144069791666,
                        "value": 0
                    },
                    {
                        "number": 64,
                        "time": 50.439519624999996,
                        "value": 1
                    },
                    {
                        "number": 64,
                        "time": 50.700775729166665,
                        "value": 0
                    },
                    {
                        "number": 64,
                        "time": 50.736179593749995,
                        "value": 1
                    },
                    {
                        "number": 64,
                        "time": 51.003539812499994,
                        "value": 0
                    },
                    {
                        "number": 64,
                        "time": 51.03406038541666,
                        "value": 1
                    },
                    {
                        "number": 64,
                        "time": 51.57976822916666,
                        "value": 0
                    },
                    {
                        "number": 64,
                        "time": 51.623717854166664,
                        "value": 1
                    },
                    {
                        "number": 64,
                        "time": 51.88619478125,
                        "value": 0
                    },
                    {
                        "number": 64,
                        "time": 51.919157,
                        "value": 1
                    },
                    {
                        "number": 64,
                        "time": 52.459981552083335,
                        "value": 0
                    },
                    {
                        "number": 64,
                        "time": 52.50881446875,
                        "value": 1
                    },
                    {
                        "number": 64,
                        "time": 52.74931658333334,
                        "value": 0
                    },
                    {
                        "number": 64,
                        "time": 52.826228427083336,
                        "value": 1
                    },
                    {
                        "number": 64,
                        "time": 53.628309083333335,
                        "value": 0
                    },
                    {
                        "number": 64,
                        "time": 53.65638801041667,
                        "value": 1
                    },
                    {
                        "number": 64,
                        "time": 54.21674572916667,
                        "value": 0
                    },
                    {
                        "number": 64,
                        "time": 54.24604547916667,
                        "value": 1
                    },
                    {
                        "number": 64,
                        "time": 54.502418291666665,
                        "value": 0
                    },
                    {
                        "number": 64,
                        "time": 54.56590108333333,
                        "value": 1
                    },
                    {
                        "number": 64,
                        "time": 55.40216478124999,
                        "value": 0
                    },
                    {
                        "number": 64,
                        "time": 55.44611440625,
                        "value": 1
                    },
                    {
                        "number": 64,
                        "time": 55.97839319791667,
                        "value": 0
                    },
                    {
                        "number": 64,
                        "time": 56.01868035416667,
                        "value": 1
                    },
                    {
                        "number": 64,
                        "time": 56.28237810416667,
                        "value": 0
                    },
                    {
                        "number": 64,
                        "time": 56.32510690625,
                        "value": 1
                    },
                    {
                        "number": 64,
                        "time": 57.14672072916667,
                        "value": 0
                    },
                    {
                        "number": 64,
                        "time": 57.18700788541667,
                        "value": 1
                    },
                    {
                        "number": 64,
                        "time": 57.733936552083335,
                        "value": 0
                    },
                    {
                        "number": 64,
                        "time": 57.77666535416667,
                        "value": 1
                    },
                    {
                        "number": 64,
                        "time": 58.040363104166666,
                        "value": 0
                    },
                    {
                        "number": 64,
                        "time": 58.057454625,
                        "value": 1
                    },
                    {
                        "number": 64,
                        "time": 58.91935560416667,
                        "value": 0
                    },
                    {
                        "number": 64,
                        "time": 58.99748827083334,
                        "value": 1
                    },
                    {
                        "number": 64,
                        "time": 59.79834810416667,
                        "value": 0
                    },
                    {
                        "number": 64,
                        "time": 59.87525994791667,
                        "value": 1
                    },
                    {
                        "number": 64,
                        "time": 60.6504825,
                        "value": 0
                    },
                    {
                        "number": 64,
                        "time": 60.74204421875,
                        "value": 1
                    },
                    {
                        "number": 64,
                        "time": 61.55633310416667,
                        "value": 0
                    },
                    {
                        "number": 64,
                        "time": 61.63446577083334,
                        "value": 1
                    },
                    {
                        "number": 64,
                        "time": 62.43532560416667,
                        "value": 0
                    },
                    {
                        "number": 64,
                        "time": 62.51223744791667,
                        "value": 1
                    },
                    {
                        "number": 64,
                        "time": 63.31431810416667,
                        "value": 0
                    },
                    {
                        "number": 64,
                        "time": 63.39122994791666,
                        "value": 1
                    },
                    {
                        "number": 64,
                        "time": 64.16645249999999,
                        "value": 0
                    },
                    {
                        "number": 64,
                        "time": 64.25801421874999,
                        "value": 1
                    },
                    {
                        "number": 64,
                        "time": 65.07230310416666,
                        "value": 0
                    },
                    {
                        "number": 64,
                        "time": 65.15043577083333,
                        "value": 1
                    },
                    {
                        "number": 64,
                        "time": 65.95129560416666,
                        "value": 0
                    },
                    {
                        "number": 64,
                        "time": 66.02942827083332,
                        "value": 1
                    },
                    {
                        "number": 64,
                        "time": 66.22842240624999,
                        "value": 0
                    },
                    {
                        "number": 64,
                        "time": 66.80342999999999,
                        "value": 1
                    },
                    {
                        "number": 64,
                        "time": 66.96579944791665,
                        "value": 0
                    },
                    {
                        "number": 64,
                        "time": 67.68974743749999,
                        "value": 1
                    },
                    {
                        "number": 64,
                        "time": 68.56629829166666,
                        "value": 0
                    },
                    {
                        "number": 64,
                        "time": 68.63832684375,
                        "value": 1
                    },
                    {
                        "number": 64,
                        "time": 69.44040749999999,
                        "value": 0
                    },
                    {
                        "number": 64,
                        "time": 69.46726560416666,
                        "value": 0
                    },
                    {
                        "number": 64,
                        "time": 69.54539827083332,
                        "value": 1
                    },
                    {
                        "number": 64,
                        "time": 69.74439240624999,
                        "value": 0
                    },
                    {
                        "number": 64,
                        "time": 70.31939999999999,
                        "value": 1
                    },
                    {
                        "number": 64,
                        "time": 70.48176944791665,
                        "value": 0
                    },
                    {
                        "number": 64,
                        "time": 71.20571743749998,
                        "value": 1
                    },
                    {
                        "number": 64,
                        "time": 72.08226829166665,
                        "value": 0
                    },
                    {
                        "number": 64,
                        "time": 72.15429684374999,
                        "value": 1
                    },
                    {
                        "number": 64,
                        "time": 72.66337999999999,
                        "value": 0
                    },
                    {
                        "number": 64,
                        "time": 72.95881914583332,
                        "value": 1
                    },
                    {
                        "number": 64,
                        "time": 73.26280405208331,
                        "value": 0
                    },
                    {
                        "number": 64,
                        "time": 73.90861937499997,
                        "value": 1
                    },
                    {
                        "number": 64,
                        "time": 74.27486624999997,
                        "value": 0
                    },
                    {
                        "number": 64,
                        "time": 74.78761187499997,
                        "value": 1
                    },
                    {
                        "number": 64,
                        "time": 75.22710812499997,
                        "value": 0
                    },
                    {
                        "number": 64,
                        "time": 75.66660437499998,
                        "value": 1
                    },
                    {
                        "number": 64,
                        "time": 76.10610062499998,
                        "value": 0
                    },
                    {
                        "number": 64,
                        "time": 76.54559687499999,
                        "value": 1
                    },
                    {
                        "number": 64,
                        "time": 76.98509312499999,
                        "value": 0
                    },
                    {
                        "number": 64,
                        "time": 77.424589375,
                        "value": 1
                    },
                    {
                        "number": 64,
                        "time": 77.864085625,
                        "value": 0
                    },
                    {
                        "number": 64,
                        "time": 78.303581875,
                        "value": 1
                    },
                    {
                        "number": 64,
                        "time": 78.74307812500001,
                        "value": 0
                    },
                    {
                        "number": 64,
                        "time": 79.18257437500002,
                        "value": 1
                    },
                    {
                        "number": 64,
                        "time": 79.62207062500002,
                        "value": 0
                    },
                    {
                        "number": 64,
                        "time": 80.06156687500003,
                        "value": 1
                    },
                    {
                        "number": 64,
                        "time": 80.50106312500003,
                        "value": 0
                    },
                    {
                        "number": 64,
                        "time": 81.2091404166667,
                        "value": 1
                    },
                    {
                        "number": 64,
                        "time": 81.7548482604167,
                        "value": 0
                    },
                    {
                        "number": 64,
                        "time": 81.8280976354167,
                        "value": 1
                    },
                    {
                        "number": 64,
                        "time": 82.62529500000004,
                        "value": 0
                    },
                    {
                        "number": 64,
                        "time": 82.94637142708336,
                        "value": 1
                    },
                    {
                        "number": 64,
                        "time": 83.5128332604167,
                        "value": 0
                    },
                    {
                        "number": 64,
                        "time": 83.69717752083336,
                        "value": 1
                    },
                    {
                        "number": 64,
                        "time": 84.39426740625004,
                        "value": 0
                    },
                    {
                        "number": 64,
                        "time": 91.46039044791671,
                        "value": 1
                    },
                    {
                        "number": 64,
                        "time": 91.71920490625004,
                        "value": 0
                    },
                    {
                        "number": 64,
                        "time": 92.34182459375005,
                        "value": 1
                    },
                    {
                        "number": 64,
                        "time": 92.59087246875005,
                        "value": 0
                    },
                    {
                        "number": 64,
                        "time": 93.22081709375004,
                        "value": 1
                    },
                    {
                        "number": 64,
                        "time": 93.48817731250004,
                        "value": 0
                    },
                    {
                        "number": 64,
                        "time": 94.10469288541671,
                        "value": 1
                    },
                    {
                        "number": 64,
                        "time": 94.9763604479167,
                        "value": 1
                    },
                    {
                        "number": 64,
                        "time": 95.23517490625004,
                        "value": 0
                    },
                    {
                        "number": 64,
                        "time": 95.85779459375004,
                        "value": 1
                    },
                    {
                        "number": 64,
                        "time": 96.10684246875005,
                        "value": 0
                    },
                    {
                        "number": 64,
                        "time": 96.73678709375004,
                        "value": 1
                    },
                    {
                        "number": 64,
                        "time": 97.00414731250004,
                        "value": 0
                    },
                    {
                        "number": 64,
                        "time": 97.6206628854167,
                        "value": 1
                    },
                    {
                        "number": 64,
                        "time": 98.4923304479167,
                        "value": 1
                    },
                    {
                        "number": 64,
                        "time": 98.75114490625003,
                        "value": 0
                    },
                    {
                        "number": 64,
                        "time": 99.38719364583336,
                        "value": 1
                    },
                    {
                        "number": 64,
                        "time": 99.6313582291667,
                        "value": 0
                    },
                    {
                        "number": 64,
                        "time": 99.6972826666667,
                        "value": 1
                    },
                    {
                        "number": 64,
                        "time": 99.9206932604167,
                        "value": 0
                    },
                    {
                        "number": 64,
                        "time": 99.95975959375004,
                        "value": 1
                    },
                    {
                        "number": 64,
                        "time": 100.21613240625004,
                        "value": 0
                    },
                    {
                        "number": 64,
                        "time": 100.26496532291671,
                        "value": 1
                    },
                    {
                        "number": 64,
                        "time": 100.51889648958337,
                        "value": 0
                    },
                    {
                        "number": 64,
                        "time": 100.57505434375004,
                        "value": 1
                    },
                    {
                        "number": 64,
                        "time": 100.80578987500004,
                        "value": 0
                    },
                    {
                        "number": 64,
                        "time": 100.85462279166671,
                        "value": 1
                    },
                    {
                        "number": 64,
                        "time": 101.09146243750004,
                        "value": 0
                    },
                    {
                        "number": 64,
                        "time": 101.14762029166671,
                        "value": 1
                    },
                    {
                        "number": 64,
                        "time": 101.39056405208338,
                        "value": 0
                    },
                    {
                        "number": 64,
                        "time": 101.43695532291672,
                        "value": 1
                    },
                    {
                        "number": 64,
                        "time": 101.68844484375005,
                        "value": 0
                    },
                    {
                        "number": 64,
                        "time": 101.72995282291672,
                        "value": 1
                    },
                    {
                        "number": 64,
                        "time": 101.97655905208339,
                        "value": 0
                    },
                    {
                        "number": 64,
                        "time": 102.00830044791672,
                        "value": 1
                    },
                    {
                        "number": 64,
                        "time": 102.27443984375006,
                        "value": 0
                    },
                    {
                        "number": 64,
                        "time": 102.31594782291673,
                        "value": 1
                    },
                    {
                        "number": 64,
                        "time": 102.56377487500006,
                        "value": 0
                    },
                    {
                        "number": 64,
                        "time": 102.60528285416673,
                        "value": 1
                    },
                    {
                        "number": 64,
                        "time": 102.8518890833334,
                        "value": 0
                    },
                    {
                        "number": 64,
                        "time": 102.90560529166673,
                        "value": 1
                    },
                    {
                        "number": 64,
                        "time": 103.14976987500006,
                        "value": 0
                    },
                    {
                        "number": 64,
                        "time": 103.19860279166673,
                        "value": 1
                    },
                    {
                        "number": 64,
                        "time": 103.45741725000006,
                        "value": 0
                    },
                    {
                        "number": 64,
                        "time": 103.49160029166673,
                        "value": 1
                    },
                    {
                        "number": 64,
                        "time": 103.73576487500006,
                        "value": 0
                    },
                    {
                        "number": 64,
                        "time": 103.77361038541673,
                        "value": 1
                    },
                    {
                        "number": 64,
                        "time": 104.0385289583334,
                        "value": 0
                    },
                    {
                        "number": 64,
                        "time": 104.09834928125007,
                        "value": 1
                    },
                    {
                        "number": 64,
                        "time": 104.31809740625006,
                        "value": 0
                    },
                    {
                        "number": 64,
                        "time": 104.35594291666673,
                        "value": 1
                    },
                    {
                        "number": 64,
                        "time": 104.61231572916674,
                        "value": 0
                    },
                    {
                        "number": 64,
                        "time": 104.65626535416673,
                        "value": 1
                    },
                    {
                        "number": 64,
                        "time": 104.90775487500007,
                        "value": 0
                    },
                    {
                        "number": 64,
                        "time": 104.94193791666673,
                        "value": 1
                    },
                    {
                        "number": 64,
                        "time": 105.2105189583334,
                        "value": 0
                    },
                    {
                        "number": 64,
                        "time": 105.25568940625006,
                        "value": 1
                    },
                    {
                        "number": 64,
                        "time": 105.49252905208338,
                        "value": 0
                    },
                    {
                        "number": 64,
                        "time": 105.54014114583339,
                        "value": 1
                    },
                    {
                        "number": 64,
                        "time": 105.78552655208338,
                        "value": 0
                    },
                    {
                        "number": 64,
                        "time": 105.84168440625005,
                        "value": 1
                    },
                    {
                        "number": 64,
                        "time": 106.08218652083339,
                        "value": 0
                    },
                    {
                        "number": 64,
                        "time": 106.12613614583339,
                        "value": 1
                    },
                    {
                        "number": 64,
                        "time": 106.36785908333339,
                        "value": 0
                    },
                    {
                        "number": 64,
                        "time": 106.41913364583338,
                        "value": 1
                    },
                    {
                        "number": 64,
                        "time": 106.66940234375005,
                        "value": 0
                    },
                    {
                        "number": 64,
                        "time": 106.71579361458339,
                        "value": 1
                    },
                    {
                        "number": 64,
                        "time": 106.95629572916673,
                        "value": 0
                    },
                    {
                        "number": 64,
                        "time": 107.0051286458334,
                        "value": 1
                    },
                    {
                        "number": 64,
                        "time": 107.25539734375006,
                        "value": 0
                    },
                    {
                        "number": 64,
                        "time": 107.29324285416673,
                        "value": 1
                    },
                    {
                        "number": 64,
                        "time": 107.53984908333341,
                        "value": 0
                    },
                    {
                        "number": 64,
                        "time": 107.60699434375007,
                        "value": 1
                    },
                    {
                        "number": 64,
                        "time": 107.83650905208341,
                        "value": 0
                    },
                    {
                        "number": 64,
                        "time": 107.89266690625008,
                        "value": 1
                    },
                    {
                        "number": 64,
                        "time": 108.13561066666675,
                        "value": 0
                    },
                    {
                        "number": 64,
                        "time": 108.21984744791675,
                        "value": 1
                    },
                    {
                        "number": 64,
                        "time": 109.01216152083342,
                        "value": 0
                    },
                    {
                        "number": 64,
                        "time": 109.05244867708342,
                        "value": 1
                    },
                    {
                        "number": 64,
                        "time": 109.30393819791675,
                        "value": 0
                    },
                    {
                        "number": 64,
                        "time": 109.33201712500008,
                        "value": 1
                    },
                    {
                        "number": 64,
                        "time": 109.59327322916674,
                        "value": 0
                    },
                    {
                        "number": 64,
                        "time": 109.62867709375007,
                        "value": 1
                    },
                    {
                        "number": 64,
                        "time": 109.89603731250007,
                        "value": 0
                    },
                    {
                        "number": 64,
                        "time": 109.92655788541674,
                        "value": 1
                    },
                    {
                        "number": 64,
                        "time": 110.47226572916674,
                        "value": 0
                    },
                    {
                        "number": 64,
                        "time": 110.51621535416673,
                        "value": 1
                    },
                    {
                        "number": 64,
                        "time": 110.77869228125006,
                        "value": 0
                    },
                    {
                        "number": 64,
                        "time": 110.81165450000006,
                        "value": 1
                    },
                    {
                        "number": 64,
                        "time": 111.3524790520834,
                        "value": 0
                    },
                    {
                        "number": 64,
                        "time": 111.40131196875006,
                        "value": 1
                    },
                    {
                        "number": 64,
                        "time": 111.6418140833334,
                        "value": 0
                    },
                    {
                        "number": 64,
                        "time": 111.7187259270834,
                        "value": 1
                    },
                    {
                        "number": 64,
                        "time": 112.5208065833334,
                        "value": 0
                    },
                    {
                        "number": 64,
                        "time": 112.54888551041672,
                        "value": 1
                    },
                    {
                        "number": 64,
                        "time": 113.10924322916672,
                        "value": 0
                    },
                    {
                        "number": 64,
                        "time": 113.13854297916673,
                        "value": 1
                    },
                    {
                        "number": 64,
                        "time": 113.39491579166673,
                        "value": 0
                    },
                    {
                        "number": 64,
                        "time": 113.4583985833334,
                        "value": 1
                    },
                    {
                        "number": 64,
                        "time": 114.29466228125007,
                        "value": 0
                    },
                    {
                        "number": 64,
                        "time": 114.33861190625007,
                        "value": 1
                    },
                    {
                        "number": 64,
                        "time": 114.87089069791674,
                        "value": 0
                    },
                    {
                        "number": 64,
                        "time": 114.91117785416674,
                        "value": 1
                    },
                    {
                        "number": 64,
                        "time": 115.17487560416674,
                        "value": 0
                    },
                    {
                        "number": 64,
                        "time": 115.21760440625008,
                        "value": 1
                    },
                    {
                        "number": 64,
                        "time": 116.03921822916674,
                        "value": 0
                    },
                    {
                        "number": 64,
                        "time": 116.07950538541674,
                        "value": 1
                    },
                    {
                        "number": 64,
                        "time": 116.62643405208341,
                        "value": 0
                    },
                    {
                        "number": 64,
                        "time": 116.66916285416674,
                        "value": 1
                    },
                    {
                        "number": 64,
                        "time": 116.93286060416675,
                        "value": 0
                    },
                    {
                        "number": 64,
                        "time": 117.01587656250008,
                        "value": 1
                    },
                    {
                        "number": 64,
                        "time": 118.38441905208342,
                        "value": 0
                    },
                    {
                        "number": 64,
                        "time": 118.42714785416675,
                        "value": 1
                    },
                    {
                        "number": 64,
                        "time": 118.69084560416675,
                        "value": 0
                    },
                    {
                        "number": 64,
                        "time": 118.77141991666676,
                        "value": 1
                    },
                    {
                        "number": 64,
                        "time": 119.56983810416676,
                        "value": 0
                    },
                    {
                        "number": 64,
                        "time": 119.64797077083342,
                        "value": 1
                    },
                    {
                        "number": 64,
                        "time": 120.44883060416676,
                        "value": 0
                    },
                    {
                        "number": 64,
                        "time": 120.52574244791676,
                        "value": 1
                    },
                    {
                        "number": 64,
                        "time": 121.30096500000009,
                        "value": 0
                    },
                    {
                        "number": 64,
                        "time": 121.39252671875009,
                        "value": 1
                    },
                    {
                        "number": 64,
                        "time": 121.60617072916676,
                        "value": 0
                    },
                    {
                        "number": 64,
                        "time": 121.6525620000001,
                        "value": 1
                    },
                    {
                        "number": 64,
                        "time": 121.90771398958344,
                        "value": 0
                    },
                    {
                        "number": 64,
                        "time": 121.9675343125001,
                        "value": 1
                    },
                    {
                        "number": 64,
                        "time": 122.20681560416678,
                        "value": 0
                    },
                    {
                        "number": 64,
                        "time": 122.28738991666678,
                        "value": 1
                    },
                    {
                        "number": 64,
                        "time": 123.08580810416679,
                        "value": 0
                    },
                    {
                        "number": 64,
                        "time": 123.16394077083345,
                        "value": 1
                    },
                    {
                        "number": 64,
                        "time": 123.96480060416678,
                        "value": 0
                    },
                    {
                        "number": 64,
                        "time": 124.04171244791678,
                        "value": 1
                    },
                    {
                        "number": 64,
                        "time": 124.81693500000011,
                        "value": 0
                    },
                    {
                        "number": 64,
                        "time": 124.90849671875011,
                        "value": 1
                    },
                    {
                        "number": 64,
                        "time": 125.12214072916679,
                        "value": 0
                    },
                    {
                        "number": 64,
                        "time": 125.16853200000013,
                        "value": 1
                    },
                    {
                        "number": 64,
                        "time": 125.42368398958347,
                        "value": 0
                    },
                    {
                        "number": 64,
                        "time": 125.48350431250013,
                        "value": 1
                    },
                    {
                        "number": 64,
                        "time": 125.69592750000012,
                        "value": 0
                    },
                    {
                        "number": 64,
                        "time": 125.77161852083346,
                        "value": 1
                    },
                    {
                        "number": 64,
                        "time": 126.57492000000012,
                        "value": 0
                    },
                    {
                        "number": 64,
                        "time": 126.68723570833345,
                        "value": 1
                    },
                    {
                        "number": 64,
                        "time": 126.87402161458344,
                        "value": 0
                    },
                    {
                        "number": 64,
                        "time": 126.99366226041677,
                        "value": 1
                    },
                    {
                        "number": 64,
                        "time": 127.1645774687501,
                        "value": 0
                    },
                    {
                        "number": 64,
                        "time": 127.4539125000001,
                        "value": 0
                    },
                    {
                        "number": 64,
                        "time": 127.52960352083343,
                        "value": 1
                    },
                    {
                        "number": 64,
                        "time": 128.3329050000001,
                        "value": 0
                    },
                    {
                        "number": 64,
                        "time": 128.44522070833344,
                        "value": 1
                    },
                    {
                        "number": 64,
                        "time": 128.63200661458345,
                        "value": 0
                    },
                    {
                        "number": 64,
                        "time": 128.75164726041677,
                        "value": 1
                    },
                    {
                        "number": 64,
                        "time": 128.9225624687501,
                        "value": 0
                    },
                    {
                        "number": 64,
                        "time": 129.2118975000001,
                        "value": 0
                    },
                    {
                        "number": 64,
                        "time": 129.28758852083345,
                        "value": 1
                    },
                    {
                        "number": 64,
                        "time": 129.5158824062501,
                        "value": 0
                    },
                    {
                        "number": 64,
                        "time": 130.09089000000012,
                        "value": 0
                    },
                    {
                        "number": 64,
                        "time": 130.16658102083346,
                        "value": 1
                    },
                    {
                        "number": 64,
                        "time": 130.39487490625012,
                        "value": 0
                    },
                    {
                        "number": 64,
                        "time": 130.47422839583345,
                        "value": 1
                    },
                    {
                        "number": 64,
                        "time": 130.9772074375001,
                        "value": 0
                    },
                    {
                        "number": 64,
                        "time": 131.00894883333345,
                        "value": 1
                    },
                    {
                        "number": 64,
                        "time": 131.13347277083344,
                        "value": 0
                    },
                    {
                        "number": 64,
                        "time": 131.1859681562501,
                        "value": 1
                    },
                    {
                        "number": 64,
                        "time": 132.72786750000012,
                        "value": 0
                    },
                    {
                        "number": 64,
                        "time": 132.72786750000012,
                        "value": 0
                    },
                    {
                        "number": 64,
                        "time": 132.80355852083346,
                        "value": 1
                    },
                    {
                        "number": 64,
                        "time": 133.03185240625012,
                        "value": 0
                    },
                    {
                        "number": 64,
                        "time": 133.60686000000013,
                        "value": 0
                    },
                    {
                        "number": 64,
                        "time": 133.68255102083347,
                        "value": 1
                    },
                    {
                        "number": 64,
                        "time": 133.91084490625013,
                        "value": 0
                    },
                    {
                        "number": 64,
                        "time": 133.99019839583346,
                        "value": 1
                    },
                    {
                        "number": 64,
                        "time": 134.49317743750012,
                        "value": 0
                    },
                    {
                        "number": 64,
                        "time": 134.52491883333346,
                        "value": 1
                    },
                    {
                        "number": 64,
                        "time": 134.64944277083345,
                        "value": 0
                    },
                    {
                        "number": 64,
                        "time": 134.70193815625012,
                        "value": 1
                    },
                    {
                        "number": 64,
                        "time": 136.24383750000013,
                        "value": 0
                    },
                    {
                        "number": 64,
                        "time": 136.24383750000013,
                        "value": 0
                    },
                    {
                        "number": 64,
                        "time": 136.31952852083347,
                        "value": 1
                    },
                    {
                        "number": 64,
                        "time": 136.54782240625013,
                        "value": 0
                    },
                    {
                        "number": 64,
                        "time": 137.12283000000014,
                        "value": 0
                    },
                    {
                        "number": 64,
                        "time": 137.19852102083348,
                        "value": 1
                    },
                    {
                        "number": 64,
                        "time": 137.42681490625014,
                        "value": 0
                    },
                    {
                        "number": 64,
                        "time": 137.50616839583347,
                        "value": 1
                    },
                    {
                        "number": 64,
                        "time": 138.01280990625014,
                        "value": 0
                    },
                    {
                        "number": 64,
                        "time": 138.07507187500013,
                        "value": 1
                    },
                    {
                        "number": 64,
                        "time": 138.14343795833346,
                        "value": 0
                    },
                    {
                        "number": 64,
                        "time": 138.9333103854168,
                        "value": 1
                    },
                    {
                        "number": 64,
                        "time": 139.21287883333346,
                        "value": 0
                    },
                    {
                        "number": 64,
                        "time": 139.29101150000014,
                        "value": 1
                    },
                    {
                        "number": 64,
                        "time": 139.76346996875014,
                        "value": 0
                    },
                    {
                        "number": 64,
                        "time": 139.82573193750014,
                        "value": 1
                    },
                    {
                        "number": 64,
                        "time": 139.89409802083347,
                        "value": 0
                    },
                    {
                        "number": 64,
                        "time": 140.6912953854168,
                        "value": 1
                    },
                    {
                        "number": 64,
                        "time": 141.2370032291668,
                        "value": 0
                    },
                    {
                        "number": 64,
                        "time": 141.3029276666668,
                        "value": 1
                    },
                    {
                        "number": 64,
                        "time": 141.5263382604168,
                        "value": 0
                    },
                    {
                        "number": 64,
                        "time": 142.39678500000014,
                        "value": 0
                    },
                    {
                        "number": 64,
                        "time": 143.27577750000015,
                        "value": 0
                    },
                    {
                        "number": 64,
                        "time": 144.15477000000016,
                        "value": 0
                    },
                    {
                        "number": 64,
                        "time": 145.03376250000017,
                        "value": 0
                    },
                    {
                        "number": 64,
                        "time": 145.91275500000017,
                        "value": 0
                    },
                    {
                        "number": 64,
                        "time": 146.79174750000018,
                        "value": 0
                    },
                    {
                        "number": 64,
                        "time": 147.6707400000002,
                        "value": 0
                    },
                    {
                        "number": 64,
                        "time": 148.5497325000002,
                        "value": 0
                    },
                    {
                        "number": 64,
                        "time": 149.4287250000002,
                        "value": 0
                    },
                    {
                        "number": 64,
                        "time": 150.35288794791688,
                        "value": 1
                    },
                    {
                        "number": 64,
                        "time": 150.61170240625023,
                        "value": 0
                    },
                    {
                        "number": 64,
                        "time": 151.23432209375022,
                        "value": 1
                    },
                    {
                        "number": 64,
                        "time": 154.3120166666669,
                        "value": 0
                    }
                ]
            },
            "id": 3,
            "name": "Pedale",
            "instrumentNumber": 0,
            "instrument": "acoustic grand piano",
            "instrumentFamily": "piano",
            "channelNumber": 0,
            "isPercussion": false
        },
        {
            "startTime": 0,
            "duration": 0,
            "length": 0,
            "notes": [],
            "controlChanges": {},
            "id": 4,
            "name": "Mendelssohn: Songs without words Opus 30 No. 4"
        },
        {
            "startTime": 0,
            "duration": 0,
            "length": 0,
            "notes": [],
            "controlChanges": {},
            "id": 5,
            "name": "Copyright  2010 by Bernd Krueger"
        },
        {
            "startTime": 0,
            "duration": 0,
            "length": 0,
            "notes": [],
            "controlChanges": {},
            "id": 6,
            "name": "http://www.piano-midi.de/"
        },
        {
            "startTime": 0,
            "duration": 0,
            "length": 0,
            "notes": [],
            "controlChanges": {},
            "id": 7,
            "name": "Edition: 2015-02-08"
        },
        {
            "startTime": 0,
            "duration": 0,
            "length": 0,
            "notes": [],
            "controlChanges": {},
            "id": 8,
            "name": "Spur 8"
        },
        {
            "startTime": 0,
            "duration": 0,
            "length": 0,
            "notes": [],
            "controlChanges": {},
            "id": 9,
            "name": "Spur 9"
        },
        {
            "startTime": 0,
            "duration": 0,
            "length": 0,
            "notes": [],
            "controlChanges": {},
            "id": 10,
            "name": "Spur 10"
        },
        {
            "startTime": 0,
            "duration": 0,
            "length": 0,
            "notes": [],
            "controlChanges": {},
            "id": 11,
            "name": "Spur 11"
        },
        {
            "startTime": 0,
            "duration": 0,
            "length": 0,
            "notes": [],
            "controlChanges": {},
            "id": 12,
            "name": "Spur 12"
        },
        {
            "startTime": 0,
            "duration": 0,
            "length": 0,
            "notes": [],
            "controlChanges": {},
            "id": 13,
            "name": "Spur 13"
        },
        {
            "startTime": 0,
            "duration": 0,
            "length": 0,
            "notes": [],
            "controlChanges": {},
            "id": 14,
            "name": "Spur 14"
        },
        {
            "startTime": 0,
            "duration": 0,
            "length": 0,
            "notes": [],
            "controlChanges": {},
            "id": 15,
            "name": "Spur 15"
        },
        {
            "startTime": 0,
            "duration": 0,
            "length": 0,
            "notes": [],
            "controlChanges": {},
            "id": 16,
            "name": "Spur 16"
        }
    ]
}