{
    "header": {
        "PPQ": 480,
        "timeSignature": [
            4,
            4
        ],
        "bpm": 94.44000226656006,
        "name": "Mendelssohn: Lieder ohne Worte Opus 19 Nr. 1"
    },
    "startTime": 0,
    "duration": 157.5603520000001,
    "tracks": [
        {
            "startTime": 0,
            "duration": 0,
            "length": 0,
            "notes": [],
            "controlChanges": {},
            "id": 0,
            "name": "Mendelssohn: Lieder ohne Worte Opus 19 Nr. 1"
        },
        {
            "startTime": 4.447268,
            "duration": 157.5603520000001,
            "length": 258,
            "notes": [
                {
                    "name": "A4",
                    "midi": 69,
                    "time": 4.447268,
                    "velocity": 0.4015748031496063,
                    "duration": 0.6353239999999998
                },
                {
                    "name": "G#4",
                    "midi": 68,
                    "time": 5.082592,
                    "velocity": 0.44881889763779526,
                    "duration": 0.6353239999999998
                },
                {
                    "name": "F#4",
                    "midi": 66,
                    "time": 5.717916,
                    "velocity": 0.3779527559055118,
                    "duration": 0.6353239999999998
                },
                {
                    "name": "E4",
                    "midi": 64,
                    "time": 6.3532399999999996,
                    "velocity": 0.3779527559055118,
                    "duration": 0.59561625
                },
                {
                    "name": "E5",
                    "midi": 76,
                    "time": 6.988563999999999,
                    "velocity": 0.5433070866141733,
                    "duration": 0.6353239999999998
                },
                {
                    "name": "D#5",
                    "midi": 75,
                    "time": 7.623887999999999,
                    "velocity": 0.5354330708661418,
                    "duration": 0.6353240000000007
                },
                {
                    "name": "C#5",
                    "midi": 73,
                    "time": 8.259212,
                    "velocity": 0.4409448818897638,
                    "duration": 0.6353240000000007
                },
                {
                    "name": "B4",
                    "midi": 71,
                    "time": 8.894536,
                    "velocity": 0.4094488188976378,
                    "duration": 0.5956162500000008
                },
                {
                    "name": "C#5",
                    "midi": 73,
                    "time": 9.529860000000001,
                    "velocity": 0.48031496062992124,
                    "duration": 0.6353240000000007
                },
                {
                    "name": "A4",
                    "midi": 69,
                    "time": 10.165184000000002,
                    "velocity": 0.4881889763779528,
                    "duration": 0.6353240000000007
                },
                {
                    "name": "B4",
                    "midi": 71,
                    "time": 10.800508000000002,
                    "velocity": 0.4094488188976378,
                    "duration": 0.31766200000000033
                },
                {
                    "name": "F#4",
                    "midi": 66,
                    "time": 11.118170000000003,
                    "velocity": 0.3700787401574803,
                    "duration": 0.31766200000000033
                },
                {
                    "name": "G#4",
                    "midi": 68,
                    "time": 11.435832000000003,
                    "velocity": 0.4094488188976378,
                    "duration": 0.31766200000000033
                },
                {
                    "name": "A4",
                    "midi": 69,
                    "time": 11.753494000000003,
                    "velocity": 0.3937007874015748,
                    "duration": 0.07941549999999964
                },
                {
                    "name": "G#4",
                    "midi": 68,
                    "time": 11.832909500000003,
                    "velocity": 0.30708661417322836,
                    "duration": 0.07941549999999964
                },
                {
                    "name": "F#4",
                    "midi": 66,
                    "time": 11.912325000000003,
                    "velocity": 0.33070866141732286,
                    "duration": 0.07941549999999964
                },
                {
                    "name": "G#4",
                    "midi": 68,
                    "time": 11.991740500000002,
                    "velocity": 0.2677165354330709,
                    "duration": 0.07941549999999964
                },
                {
                    "name": "B4",
                    "midi": 71,
                    "time": 12.071156000000002,
                    "velocity": 0.4094488188976378,
                    "duration": 0.31766200000000033
                },
                {
                    "name": "A4",
                    "midi": 69,
                    "time": 12.388818000000002,
                    "velocity": 0.4094488188976378,
                    "duration": 0.31766200000000033
                },
                {
                    "name": "G#4",
                    "midi": 68,
                    "time": 12.706480000000003,
                    "velocity": 0.4094488188976378,
                    "duration": 1.2706479999999996
                },
                {
                    "name": "F#4",
                    "midi": 66,
                    "time": 13.977128000000002,
                    "velocity": 0.3779527559055118,
                    "duration": 0.31766200000000033
                },
                {
                    "name": "A4",
                    "midi": 69,
                    "time": 14.612452000000003,
                    "velocity": 0.4015748031496063,
                    "duration": 0.6353240000000007
                },
                {
                    "name": "G#4",
                    "midi": 68,
                    "time": 15.247776000000004,
                    "velocity": 0.44881889763779526,
                    "duration": 0.6353240000000007
                },
                {
                    "name": "F#4",
                    "midi": 66,
                    "time": 15.883100000000004,
                    "velocity": 0.3779527559055118,
                    "duration": 0.6353239999999989
                },
                {
                    "name": "E4",
                    "midi": 64,
                    "time": 16.518424000000003,
                    "velocity": 0.3779527559055118,
                    "duration": 0.5956162499999991
                },
                {
                    "name": "E5",
                    "midi": 76,
                    "time": 17.153748000000004,
                    "velocity": 0.5511811023622047,
                    "duration": 0.6353240000000007
                },
                {
                    "name": "D#5",
                    "midi": 75,
                    "time": 17.789072000000004,
                    "velocity": 0.5590551181102362,
                    "duration": 0.6353240000000007
                },
                {
                    "name": "C#5",
                    "midi": 73,
                    "time": 18.424396000000005,
                    "velocity": 0.4251968503937008,
                    "duration": 0.6353240000000007
                },
                {
                    "name": "B4",
                    "midi": 71,
                    "time": 19.059720000000006,
                    "velocity": 0.5039370078740157,
                    "duration": 0.5956162499999991
                },
                {
                    "name": "G#5",
                    "midi": 80,
                    "time": 19.695044000000006,
                    "velocity": 0.6141732283464567,
                    "duration": 0.6353240000000007
                },
                {
                    "name": "C#5",
                    "midi": 73,
                    "time": 20.330368000000007,
                    "velocity": 0.5275590551181102,
                    "duration": 1.8927360833333324
                },
                {
                    "name": "G#5",
                    "midi": 80,
                    "time": 22.236340000000006,
                    "velocity": 0.4251968503937008,
                    "duration": 0.6353240000000007
                },
                {
                    "name": "C#5",
                    "midi": 73,
                    "time": 22.871664000000006,
                    "velocity": 0.3700787401574803,
                    "duration": 1.8927360833333324
                },
                {
                    "name": "C#5",
                    "midi": 73,
                    "time": 24.777636000000005,
                    "velocity": 0.48031496062992124,
                    "duration": 0.6220880833333347
                },
                {
                    "name": "C#5",
                    "midi": 73,
                    "time": 25.412960000000005,
                    "velocity": 0.4881889763779528,
                    "duration": 0.6353240000000007
                },
                {
                    "name": "E5",
                    "midi": 76,
                    "time": 26.048284000000006,
                    "velocity": 0.44881889763779526,
                    "duration": 0.6353240000000007
                },
                {
                    "name": "D#5",
                    "midi": 75,
                    "time": 26.683608000000007,
                    "velocity": 0.3937007874015748,
                    "duration": 0.6353240000000007
                },
                {
                    "name": "C#5",
                    "midi": 73,
                    "time": 27.318932000000007,
                    "velocity": 0.3937007874015748,
                    "duration": 0.31766199999999856
                },
                {
                    "name": "G#4",
                    "midi": 68,
                    "time": 27.636594000000006,
                    "velocity": 0.33858267716535434,
                    "duration": 0.31766199999999856
                },
                {
                    "name": "B4",
                    "midi": 71,
                    "time": 27.954256000000004,
                    "velocity": 0.3858267716535433,
                    "duration": 1.2706480000000013
                },
                {
                    "name": "A#4",
                    "midi": 70,
                    "time": 29.224904000000006,
                    "velocity": 0.3464566929133858,
                    "duration": 1.2706480000000013
                },
                {
                    "name": "A4",
                    "midi": 69,
                    "time": 30.495552000000007,
                    "velocity": 0.33858267716535434,
                    "duration": 1.2706480000000013
                },
                {
                    "name": "G#4",
                    "midi": 68,
                    "time": 31.76620000000001,
                    "velocity": 0.28346456692913385,
                    "duration": 0.3176620000000021
                },
                {
                    "name": "G#4",
                    "midi": 68,
                    "time": 32.40152400000001,
                    "velocity": 0.49606299212598426,
                    "duration": 0.6353239999999971
                },
                {
                    "name": "A#4",
                    "midi": 70,
                    "time": 33.036848000000006,
                    "velocity": 0.5511811023622047,
                    "duration": 0.6353239999999971
                },
                {
                    "name": "B4",
                    "midi": 71,
                    "time": 33.672172,
                    "velocity": 0.6377952755905512,
                    "duration": 0.6353239999999971
                },
                {
                    "name": "D#5",
                    "midi": 75,
                    "time": 34.307496,
                    "velocity": 0.7007874015748031,
                    "duration": 0.6353239999999971
                },
                {
                    "name": "C#5",
                    "midi": 73,
                    "time": 34.94282,
                    "velocity": 0.5905511811023622,
                    "duration": 0.47649299999999783
                },
                {
                    "name": "B4",
                    "midi": 71,
                    "time": 35.419312999999995,
                    "velocity": 0.5275590551181102,
                    "duration": 0.14559508333333326
                },
                {
                    "name": "B4",
                    "midi": 71,
                    "time": 35.578143999999995,
                    "velocity": 0.6299212598425197,
                    "duration": 1.2706480000000013
                },
                {
                    "name": "A4",
                    "midi": 69,
                    "time": 37.48411599999999,
                    "velocity": 0.4015748031496063,
                    "duration": 0.6353239999999971
                },
                {
                    "name": "G#4",
                    "midi": 68,
                    "time": 38.11943999999999,
                    "velocity": 0.44881889763779526,
                    "duration": 0.6353239999999971
                },
                {
                    "name": "F#4",
                    "midi": 66,
                    "time": 38.75476399999999,
                    "velocity": 0.3779527559055118,
                    "duration": 0.6353239999999971
                },
                {
                    "name": "E4",
                    "midi": 64,
                    "time": 39.390087999999984,
                    "velocity": 0.3779527559055118,
                    "duration": 0.5956162499999991
                },
                {
                    "name": "E5",
                    "midi": 76,
                    "time": 40.02541199999998,
                    "velocity": 0.5196850393700787,
                    "duration": 0.6353239999999971
                },
                {
                    "name": "D#5",
                    "midi": 75,
                    "time": 40.66073599999998,
                    "velocity": 0.4881889763779528,
                    "duration": 0.6353239999999971
                },
                {
                    "name": "C#5",
                    "midi": 73,
                    "time": 41.296059999999976,
                    "velocity": 0.4094488188976378,
                    "duration": 0.6353239999999971
                },
                {
                    "name": "B4",
                    "midi": 71,
                    "time": 41.93138399999997,
                    "velocity": 0.4094488188976378,
                    "duration": 0.5956162499999991
                },
                {
                    "name": "C#5",
                    "midi": 73,
                    "time": 42.56670799999997,
                    "velocity": 0.48031496062992124,
                    "duration": 0.6353239999999971
                },
                {
                    "name": "A4",
                    "midi": 69,
                    "time": 43.20203199999997,
                    "velocity": 0.4881889763779528,
                    "duration": 0.6353239999999971
                },
                {
                    "name": "B4",
                    "midi": 71,
                    "time": 43.837355999999964,
                    "velocity": 0.4094488188976378,
                    "duration": 0.31766199999999856
                },
                {
                    "name": "F#4",
                    "midi": 66,
                    "time": 44.15501799999996,
                    "velocity": 0.3700787401574803,
                    "duration": 0.31766199999999856
                },
                {
                    "name": "G#4",
                    "midi": 68,
                    "time": 44.47267999999996,
                    "velocity": 0.4094488188976378,
                    "duration": 0.31766199999999856
                },
                {
                    "name": "A4",
                    "midi": 69,
                    "time": 44.79034199999996,
                    "velocity": 0.3937007874015748,
                    "duration": 0.07941550000000319
                },
                {
                    "name": "G#4",
                    "midi": 68,
                    "time": 44.86975749999996,
                    "velocity": 0.30708661417322836,
                    "duration": 0.07941550000000319
                },
                {
                    "name": "F#4",
                    "midi": 66,
                    "time": 44.949172999999966,
                    "velocity": 0.33070866141732286,
                    "duration": 0.07941550000000319
                },
                {
                    "name": "G#4",
                    "midi": 68,
                    "time": 45.02858849999997,
                    "velocity": 0.2677165354330709,
                    "duration": 0.07941550000000319
                },
                {
                    "name": "B4",
                    "midi": 71,
                    "time": 45.10800399999997,
                    "velocity": 0.4094488188976378,
                    "duration": 0.31766199999999856
                },
                {
                    "name": "A4",
                    "midi": 69,
                    "time": 45.42566599999997,
                    "velocity": 0.4094488188976378,
                    "duration": 0.31766199999999856
                },
                {
                    "name": "G#4",
                    "midi": 68,
                    "time": 45.74332799999997,
                    "velocity": 0.4094488188976378,
                    "duration": 1.2706480000000013
                },
                {
                    "name": "F#4",
                    "midi": 66,
                    "time": 47.01397599999997,
                    "velocity": 0.3779527559055118,
                    "duration": 0.31766199999999856
                },
                {
                    "name": "A4",
                    "midi": 69,
                    "time": 47.64929999999997,
                    "velocity": 0.4015748031496063,
                    "duration": 0.6353239999999971
                },
                {
                    "name": "G#4",
                    "midi": 68,
                    "time": 48.284623999999965,
                    "velocity": 0.44881889763779526,
                    "duration": 0.6353239999999971
                },
                {
                    "name": "F#4",
                    "midi": 66,
                    "time": 48.91994799999996,
                    "velocity": 0.3779527559055118,
                    "duration": 0.6353239999999971
                },
                {
                    "name": "E4",
                    "midi": 64,
                    "time": 49.55527199999996,
                    "velocity": 0.3779527559055118,
                    "duration": 0.5956162499999991
                },
                {
                    "name": "E5",
                    "midi": 76,
                    "time": 50.19059599999996,
                    "velocity": 0.5511811023622047,
                    "duration": 0.6353239999999971
                },
                {
                    "name": "D#5",
                    "midi": 75,
                    "time": 50.825919999999954,
                    "velocity": 0.5590551181102362,
                    "duration": 0.6353239999999971
                },
                {
                    "name": "C#5",
                    "midi": 73,
                    "time": 51.46124399999995,
                    "velocity": 0.4251968503937008,
                    "duration": 0.6353239999999971
                },
                {
                    "name": "B4",
                    "midi": 71,
                    "time": 52.09656799999995,
                    "velocity": 0.5039370078740157,
                    "duration": 0.5956162499999991
                },
                {
                    "name": "G#5",
                    "midi": 80,
                    "time": 52.731891999999945,
                    "velocity": 0.6141732283464567,
                    "duration": 0.6353239999999971
                },
                {
                    "name": "C#5",
                    "midi": 73,
                    "time": 53.36721599999994,
                    "velocity": 0.5275590551181102,
                    "duration": 1.8662642500000004
                },
                {
                    "name": "G#5",
                    "midi": 80,
                    "time": 55.27318799999994,
                    "velocity": 0.4251968503937008,
                    "duration": 0.6353239999999971
                },
                {
                    "name": "C#5",
                    "midi": 73,
                    "time": 55.90851199999994,
                    "velocity": 0.3700787401574803,
                    "duration": 1.8662642500000004
                },
                {
                    "name": "C#5",
                    "midi": 73,
                    "time": 57.814483999999936,
                    "velocity": 0.4409448818897638,
                    "duration": 0.6220880833333311
                },
                {
                    "name": "C#5",
                    "midi": 73,
                    "time": 58.44980799999993,
                    "velocity": 0.4881889763779528,
                    "duration": 0.6353239999999971
                },
                {
                    "name": "E5",
                    "midi": 76,
                    "time": 59.08513199999993,
                    "velocity": 0.44881889763779526,
                    "duration": 0.6353239999999971
                },
                {
                    "name": "D#5",
                    "midi": 75,
                    "time": 59.72045599999993,
                    "velocity": 0.4015748031496063,
                    "duration": 0.6353239999999971
                },
                {
                    "name": "C#5",
                    "midi": 73,
                    "time": 60.355779999999925,
                    "velocity": 0.3937007874015748,
                    "duration": 0.31766199999999856
                },
                {
                    "name": "G#4",
                    "midi": 68,
                    "time": 60.67344199999992,
                    "velocity": 0.3464566929133858,
                    "duration": 0.31766199999999856
                },
                {
                    "name": "B4",
                    "midi": 71,
                    "time": 60.99110399999992,
                    "velocity": 0.3937007874015748,
                    "duration": 1.2706480000000013
                },
                {
                    "name": "A#4",
                    "midi": 70,
                    "time": 62.26175199999992,
                    "velocity": 0.3464566929133858,
                    "duration": 1.2706480000000013
                },
                {
                    "name": "A4",
                    "midi": 69,
                    "time": 63.532399999999924,
                    "velocity": 0.33858267716535434,
                    "duration": 1.2706479999999942
                },
                {
                    "name": "G#4",
                    "midi": 68,
                    "time": 64.80304799999992,
                    "velocity": 0.28346456692913385,
                    "duration": 0.31766199999999856
                },
                {
                    "name": "G#4",
                    "midi": 68,
                    "time": 65.43837199999992,
                    "velocity": 0.49606299212598426,
                    "duration": 0.6353239999999971
                },
                {
                    "name": "A#4",
                    "midi": 70,
                    "time": 66.07369599999991,
                    "velocity": 0.5511811023622047,
                    "duration": 0.6353239999999971
                },
                {
                    "name": "B4",
                    "midi": 71,
                    "time": 66.70901999999991,
                    "velocity": 0.6377952755905512,
                    "duration": 0.6353239999999971
                },
                {
                    "name": "D#5",
                    "midi": 75,
                    "time": 67.34434399999991,
                    "velocity": 0.7007874015748031,
                    "duration": 0.6353239999999971
                },
                {
                    "name": "C#5",
                    "midi": 73,
                    "time": 67.9796679999999,
                    "velocity": 0.5905511811023622,
                    "duration": 0.47649300000000494
                },
                {
                    "name": "B4",
                    "midi": 71,
                    "time": 68.45616099999991,
                    "velocity": 0.5275590551181102,
                    "duration": 0.14559508333333326
                },
                {
                    "name": "B4",
                    "midi": 71,
                    "time": 68.61499199999992,
                    "velocity": 0.6299212598425197,
                    "duration": 1.2706479999999942
                },
                {
                    "name": "F#4",
                    "midi": 66,
                    "time": 70.5209639999999,
                    "velocity": 0.4015748031496063,
                    "duration": 0.23824650000000247
                },
                {
                    "name": "F#4",
                    "midi": 66,
                    "time": 70.8386259999999,
                    "velocity": 0.4015748031496063,
                    "duration": 0.23824650000000247
                },
                {
                    "name": "G4",
                    "midi": 67,
                    "time": 71.1562879999999,
                    "velocity": 0.44881889763779526,
                    "duration": 0.6353239999999971
                },
                {
                    "name": "F#4",
                    "midi": 66,
                    "time": 71.7916119999999,
                    "velocity": 0.3937007874015748,
                    "duration": 0.31766199999999856
                },
                {
                    "name": "E4",
                    "midi": 64,
                    "time": 72.1092739999999,
                    "velocity": 0.4015748031496063,
                    "duration": 0.31766199999999856
                },
                {
                    "name": "A4",
                    "midi": 69,
                    "time": 72.4269359999999,
                    "velocity": 0.41732283464566927,
                    "duration": 0.5956162500000062
                },
                {
                    "name": "A4",
                    "midi": 69,
                    "time": 73.06225999999991,
                    "velocity": 0.5118110236220472,
                    "duration": 0.23824650000000247
                },
                {
                    "name": "A4",
                    "midi": 69,
                    "time": 73.37992199999991,
                    "velocity": 0.5039370078740157,
                    "duration": 0.23824650000000247
                },
                {
                    "name": "B4",
                    "midi": 71,
                    "time": 73.6975839999999,
                    "velocity": 0.5905511811023622,
                    "duration": 0.6353239999999971
                },
                {
                    "name": "A4",
                    "midi": 69,
                    "time": 74.3329079999999,
                    "velocity": 0.48031496062992124,
                    "duration": 0.31766199999999856
                },
                {
                    "name": "G4",
                    "midi": 67,
                    "time": 74.6505699999999,
                    "velocity": 0.49606299212598426,
                    "duration": 0.31766199999999856
                },
                {
                    "name": "C5",
                    "midi": 72,
                    "time": 74.9682319999999,
                    "velocity": 0.5433070866141733,
                    "duration": 0.5956162500000062
                },
                {
                    "name": "C5",
                    "midi": 72,
                    "time": 75.60355599999991,
                    "velocity": 0.6141732283464567,
                    "duration": 0.23824650000000247
                },
                {
                    "name": "C5",
                    "midi": 72,
                    "time": 75.92121799999991,
                    "velocity": 0.5669291338582677,
                    "duration": 0.23824650000000247
                },
                {
                    "name": "D5",
                    "midi": 74,
                    "time": 76.23887999999991,
                    "velocity": 0.6771653543307087,
                    "duration": 0.6353239999999971
                },
                {
                    "name": "C5",
                    "midi": 72,
                    "time": 76.8742039999999,
                    "velocity": 0.5669291338582677,
                    "duration": 0.31766199999999856
                },
                {
                    "name": "B4",
                    "midi": 71,
                    "time": 77.1918659999999,
                    "velocity": 0.5826771653543307,
                    "duration": 0.31766199999999856
                },
                {
                    "name": "G5",
                    "midi": 79,
                    "time": 77.5095279999999,
                    "velocity": 0.6771653543307087,
                    "duration": 0.5956162500000062
                },
                {
                    "name": "F#5",
                    "midi": 78,
                    "time": 78.14485199999991,
                    "velocity": 0.6692913385826772,
                    "duration": 0.31766199999999856
                },
                {
                    "name": "E5",
                    "midi": 76,
                    "time": 78.46251399999991,
                    "velocity": 0.5511811023622047,
                    "duration": 0.31766199999999856
                },
                {
                    "name": "D5",
                    "midi": 74,
                    "time": 78.78017599999991,
                    "velocity": 0.6377952755905512,
                    "duration": 0.5956162500000062
                },
                {
                    "name": "D5",
                    "midi": 74,
                    "time": 79.41549999999992,
                    "velocity": 0.5826771653543307,
                    "duration": 0.6353239999999971
                },
                {
                    "name": "D5",
                    "midi": 74,
                    "time": 80.05082399999992,
                    "velocity": 0.5354330708661418,
                    "duration": 0.15883100000000638
                },
                {
                    "name": "F#5",
                    "midi": 78,
                    "time": 80.20965499999993,
                    "velocity": 0.5039370078740157,
                    "duration": 0.15883100000000638
                },
                {
                    "name": "A5",
                    "midi": 81,
                    "time": 80.36848599999993,
                    "velocity": 0.5433070866141733,
                    "duration": 0.15883100000000638
                },
                {
                    "name": "C6",
                    "midi": 84,
                    "time": 80.52731699999994,
                    "velocity": 0.5433070866141733,
                    "duration": 0.15883100000000638
                },
                {
                    "name": "B5",
                    "midi": 83,
                    "time": 80.68614799999995,
                    "velocity": 0.5826771653543307,
                    "duration": 0.15883100000000638
                },
                {
                    "name": "A5",
                    "midi": 81,
                    "time": 80.84497899999995,
                    "velocity": 0.5196850393700787,
                    "duration": 0.15883100000000638
                },
                {
                    "name": "G5",
                    "midi": 79,
                    "time": 81.00380999999996,
                    "velocity": 0.5511811023622047,
                    "duration": 0.15883100000000638
                },
                {
                    "name": "F#5",
                    "midi": 78,
                    "time": 81.16264099999997,
                    "velocity": 0.5118110236220472,
                    "duration": 0.15883100000000638
                },
                {
                    "name": "E5",
                    "midi": 76,
                    "time": 81.32147199999997,
                    "velocity": 0.5511811023622047,
                    "duration": 0.15883100000000638
                },
                {
                    "name": "D#5",
                    "midi": 75,
                    "time": 81.48030299999998,
                    "velocity": 0.5039370078740157,
                    "duration": 0.15883100000000638
                },
                {
                    "name": "F#5",
                    "midi": 78,
                    "time": 81.63913399999998,
                    "velocity": 0.5511811023622047,
                    "duration": 0.47649300000000494
                },
                {
                    "name": "E5",
                    "midi": 76,
                    "time": 82.11562699999999,
                    "velocity": 0.5196850393700787,
                    "duration": 0.15883100000000638
                },
                {
                    "name": "D5",
                    "midi": 74,
                    "time": 82.274458,
                    "velocity": 0.5039370078740157,
                    "duration": 0.15883100000000638
                },
                {
                    "name": "C5",
                    "midi": 72,
                    "time": 82.433289,
                    "velocity": 0.4566929133858268,
                    "duration": 0.15883100000000638
                },
                {
                    "name": "B4",
                    "midi": 71,
                    "time": 82.59212000000001,
                    "velocity": 0.5039370078740157,
                    "duration": 0.15883100000000638
                },
                {
                    "name": "A4",
                    "midi": 69,
                    "time": 82.75095100000001,
                    "velocity": 0.44881889763779526,
                    "duration": 0.15883100000000638
                },
                {
                    "name": "G#4",
                    "midi": 68,
                    "time": 82.90978200000002,
                    "velocity": 0.48031496062992124,
                    "duration": 0.15883100000000638
                },
                {
                    "name": "A4",
                    "midi": 69,
                    "time": 83.06861300000003,
                    "velocity": 0.3937007874015748,
                    "duration": 0.15883100000000638
                },
                {
                    "name": "G#4",
                    "midi": 68,
                    "time": 83.22744400000003,
                    "velocity": 0.36220472440944884,
                    "duration": 0.15883100000000638
                },
                {
                    "name": "A4",
                    "midi": 69,
                    "time": 83.38627500000004,
                    "velocity": 0.36220472440944884,
                    "duration": 0.07941549999999609
                },
                {
                    "name": "B4",
                    "midi": 71,
                    "time": 83.54510600000003,
                    "velocity": 0.36220472440944884,
                    "duration": 0.07941549999999609
                },
                {
                    "name": "C5",
                    "midi": 72,
                    "time": 83.70393700000002,
                    "velocity": 0.3228346456692913,
                    "duration": 0.07941549999999609
                },
                {
                    "name": "D5",
                    "midi": 74,
                    "time": 83.86276800000002,
                    "velocity": 0.3937007874015748,
                    "duration": 0.6353239999999971
                },
                {
                    "name": "B4",
                    "midi": 71,
                    "time": 84.49809200000001,
                    "velocity": 0.36220472440944884,
                    "duration": 0.6353239999999971
                },
                {
                    "name": "A4",
                    "midi": 69,
                    "time": 85.13341600000001,
                    "velocity": 0.36220472440944884,
                    "duration": 0.5956162500000062
                },
                {
                    "name": "E5",
                    "midi": 76,
                    "time": 85.76874000000002,
                    "velocity": 0.4409448818897638,
                    "duration": 0.6353239999999971
                },
                {
                    "name": "D5",
                    "midi": 74,
                    "time": 86.40406400000002,
                    "velocity": 0.44881889763779526,
                    "duration": 0.6353239999999971
                },
                {
                    "name": "B4",
                    "midi": 71,
                    "time": 87.03938800000002,
                    "velocity": 0.3779527559055118,
                    "duration": 0.6353239999999971
                },
                {
                    "name": "A4",
                    "midi": 69,
                    "time": 87.67471200000001,
                    "velocity": 0.3779527559055118,
                    "duration": 0.5956162500000062
                },
                {
                    "name": "B4",
                    "midi": 71,
                    "time": 88.31003600000003,
                    "velocity": 0.4409448818897638,
                    "duration": 0.31766199999999856
                },
                {
                    "name": "C5",
                    "midi": 72,
                    "time": 88.62769800000002,
                    "velocity": 0.3858267716535433,
                    "duration": 0.31766199999999856
                },
                {
                    "name": "B4",
                    "midi": 71,
                    "time": 88.94536000000002,
                    "velocity": 0.44881889763779526,
                    "duration": 0.15883100000000638
                },
                {
                    "name": "B4",
                    "midi": 71,
                    "time": 89.26302200000003,
                    "velocity": 0.3700787401574803,
                    "duration": 0.31766199999999856
                },
                {
                    "name": "D5",
                    "midi": 74,
                    "time": 89.58068400000003,
                    "velocity": 0.4251968503937008,
                    "duration": 0.31766199999999856
                },
                {
                    "name": "B4",
                    "midi": 71,
                    "time": 89.89834600000003,
                    "velocity": 0.3779527559055118,
                    "duration": 0.2779542499999934
                },
                {
                    "name": "B4",
                    "midi": 71,
                    "time": 90.21600800000003,
                    "velocity": 0.41732283464566927,
                    "duration": 0.31766199999999856
                },
                {
                    "name": "A4",
                    "midi": 69,
                    "time": 90.53367000000003,
                    "velocity": 0.3779527559055118,
                    "duration": 0.31766199999999856
                },
                {
                    "name": "G4",
                    "midi": 67,
                    "time": 90.85133200000003,
                    "velocity": 0.31496062992125984,
                    "duration": 0.31766199999999856
                },
                {
                    "name": "A4",
                    "midi": 69,
                    "time": 91.16899400000003,
                    "velocity": 0.31496062992125984,
                    "duration": 0.31766199999999856
                },
                {
                    "name": "B4",
                    "midi": 71,
                    "time": 91.48665600000002,
                    "velocity": 0.3700787401574803,
                    "duration": 2.858958000000001
                },
                {
                    "name": "B4",
                    "midi": 71,
                    "time": 94.34561400000003,
                    "velocity": 0.2755905511811024,
                    "duration": 0.31766199999999856
                },
                {
                    "name": "D5",
                    "midi": 74,
                    "time": 94.66327600000002,
                    "velocity": 0.31496062992125984,
                    "duration": 0.31766199999999856
                },
                {
                    "name": "B4",
                    "midi": 71,
                    "time": 94.98093800000002,
                    "velocity": 0.28346456692913385,
                    "duration": 0.2779542499999934
                },
                {
                    "name": "B4",
                    "midi": 71,
                    "time": 95.29860000000002,
                    "velocity": 0.30708661417322836,
                    "duration": 0.31766199999999856
                },
                {
                    "name": "A4",
                    "midi": 69,
                    "time": 95.61626200000002,
                    "velocity": 0.28346456692913385,
                    "duration": 0.31766199999999856
                },
                {
                    "name": "G4",
                    "midi": 67,
                    "time": 95.93392400000002,
                    "velocity": 0.23622047244094488,
                    "duration": 0.31766199999999856
                },
                {
                    "name": "A4",
                    "midi": 69,
                    "time": 96.25158600000002,
                    "velocity": 0.23622047244094488,
                    "duration": 0.31766199999999856
                },
                {
                    "name": "B4",
                    "midi": 71,
                    "time": 96.56924800000002,
                    "velocity": 0.2755905511811024,
                    "duration": 1.9059720000000056
                },
                {
                    "name": "A#4",
                    "midi": 70,
                    "time": 98.47522000000002,
                    "velocity": 0.3858267716535433,
                    "duration": 0.6353239999999971
                },
                {
                    "name": "B4",
                    "midi": 71,
                    "time": 99.11054400000002,
                    "velocity": 0.44881889763779526,
                    "duration": 1.2706479999999942
                },
                {
                    "name": "C5",
                    "midi": 72,
                    "time": 101.01651600000001,
                    "velocity": 0.4251968503937008,
                    "duration": 0.6353239999999971
                },
                {
                    "name": "B4",
                    "midi": 71,
                    "time": 101.65184,
                    "velocity": 0.44881889763779526,
                    "duration": 1.2706479999999942
                },
                {
                    "name": "A4",
                    "midi": 69,
                    "time": 103.557812,
                    "velocity": 0.5590551181102362,
                    "duration": 0.6353239999999971
                },
                {
                    "name": "G#4",
                    "midi": 68,
                    "time": 104.193136,
                    "velocity": 0.6220472440944882,
                    "duration": 0.6353239999999971
                },
                {
                    "name": "F#4",
                    "midi": 66,
                    "time": 104.82845999999999,
                    "velocity": 0.5275590551181102,
                    "duration": 0.6353239999999971
                },
                {
                    "name": "E4",
                    "midi": 64,
                    "time": 105.46378399999999,
                    "velocity": 0.5275590551181102,
                    "duration": 0.5956162500000062
                },
                {
                    "name": "E5",
                    "midi": 76,
                    "time": 106.099108,
                    "velocity": 0.6141732283464567,
                    "duration": 0.6353239999999971
                },
                {
                    "name": "D#5",
                    "midi": 75,
                    "time": 106.734432,
                    "velocity": 0.6220472440944882,
                    "duration": 0.6353239999999971
                },
                {
                    "name": "C#5",
                    "midi": 73,
                    "time": 107.369756,
                    "velocity": 0.5275590551181102,
                    "duration": 0.6353239999999971
                },
                {
                    "name": "B4",
                    "midi": 71,
                    "time": 108.00507999999999,
                    "velocity": 0.5275590551181102,
                    "duration": 0.5956162500000062
                },
                {
                    "name": "C#5",
                    "midi": 73,
                    "time": 108.640404,
                    "velocity": 0.6141732283464567,
                    "duration": 0.6353239999999971
                },
                {
                    "name": "A4",
                    "midi": 69,
                    "time": 109.275728,
                    "velocity": 0.6220472440944882,
                    "duration": 0.31766199999999856
                },
                {
                    "name": "C#5",
                    "midi": 73,
                    "time": 109.59339,
                    "velocity": 0.5905511811023622,
                    "duration": 0.31766199999999856
                },
                {
                    "name": "B4",
                    "midi": 71,
                    "time": 109.911052,
                    "velocity": 0.5275590551181102,
                    "duration": 0.31766199999999856
                },
                {
                    "name": "F#4",
                    "midi": 66,
                    "time": 110.228714,
                    "velocity": 0.47244094488188976,
                    "duration": 0.31766199999999856
                },
                {
                    "name": "G#4",
                    "midi": 68,
                    "time": 110.546376,
                    "velocity": 0.5275590551181102,
                    "duration": 0.2779542499999934
                },
                {
                    "name": "G#4",
                    "midi": 68,
                    "time": 110.864038,
                    "velocity": 0.44881889763779526,
                    "duration": 0.31766199999999856
                },
                {
                    "name": "B4",
                    "midi": 71,
                    "time": 111.18169999999999,
                    "velocity": 0.5275590551181102,
                    "duration": 0.31766199999999856
                },
                {
                    "name": "A4",
                    "midi": 69,
                    "time": 111.49936199999999,
                    "velocity": 0.44881889763779526,
                    "duration": 0.31766199999999856
                },
                {
                    "name": "G#4",
                    "midi": 68,
                    "time": 111.81702399999999,
                    "velocity": 0.5275590551181102,
                    "duration": 1.2706479999999942
                },
                {
                    "name": "F#4",
                    "midi": 66,
                    "time": 113.08767199999998,
                    "velocity": 0.48031496062992124,
                    "duration": 0.31766199999999856
                },
                {
                    "name": "G#4",
                    "midi": 68,
                    "time": 113.72299599999998,
                    "velocity": 0.4015748031496063,
                    "duration": 0.31766199999999856
                },
                {
                    "name": "A4",
                    "midi": 69,
                    "time": 114.04065799999998,
                    "velocity": 0.3543307086614173,
                    "duration": 0.31766199999999856
                },
                {
                    "name": "B4",
                    "midi": 71,
                    "time": 114.35831999999998,
                    "velocity": 0.44881889763779526,
                    "duration": 0.6353239999999971
                },
                {
                    "name": "G#4",
                    "midi": 68,
                    "time": 114.99364399999997,
                    "velocity": 0.3779527559055118,
                    "duration": 0.6353239999999971
                },
                {
                    "name": "F#4",
                    "midi": 66,
                    "time": 115.62896799999997,
                    "velocity": 0.3779527559055118,
                    "duration": 0.5956162500000062
                },
                {
                    "name": "C#5",
                    "midi": 73,
                    "time": 116.26429199999998,
                    "velocity": 0.4409448818897638,
                    "duration": 0.6353239999999971
                },
                {
                    "name": "B4",
                    "midi": 71,
                    "time": 116.89961599999998,
                    "velocity": 0.44881889763779526,
                    "duration": 0.6353239999999971
                },
                {
                    "name": "G#4",
                    "midi": 68,
                    "time": 117.53493999999998,
                    "velocity": 0.3779527559055118,
                    "duration": 0.6353239999999971
                },
                {
                    "name": "F#4",
                    "midi": 66,
                    "time": 118.17026399999997,
                    "velocity": 0.3858267716535433,
                    "duration": 0.5956162500000062
                },
                {
                    "name": "E5",
                    "midi": 76,
                    "time": 118.80558799999999,
                    "velocity": 0.5039370078740157,
                    "duration": 0.6353239999999971
                },
                {
                    "name": "E5",
                    "midi": 76,
                    "time": 119.44091199999998,
                    "velocity": 0.47244094488188976,
                    "duration": 0.6353239999999971
                },
                {
                    "name": "B4",
                    "midi": 71,
                    "time": 120.07623599999998,
                    "velocity": 0.4094488188976378,
                    "duration": 0.9397500833333368
                },
                {
                    "name": "B4",
                    "midi": 71,
                    "time": 121.02922199999999,
                    "velocity": 0.4409448818897638,
                    "duration": 0.31766199999999856
                },
                {
                    "name": "C#5",
                    "midi": 73,
                    "time": 121.34688399999999,
                    "velocity": 0.4881889763779528,
                    "duration": 0.31766199999999856
                },
                {
                    "name": "B4",
                    "midi": 71,
                    "time": 121.66454599999999,
                    "velocity": 0.48031496062992124,
                    "duration": 0.31766199999999856
                },
                {
                    "name": "A4",
                    "midi": 69,
                    "time": 121.98220799999999,
                    "velocity": 0.4330708661417323,
                    "duration": 1.2706479999999942
                },
                {
                    "name": "G#4",
                    "midi": 68,
                    "time": 123.25285599999998,
                    "velocity": 0.41732283464566927,
                    "duration": 0.31766199999999856
                },
                {
                    "name": "F#4",
                    "midi": 66,
                    "time": 123.57051799999998,
                    "velocity": 0.47244094488188976,
                    "duration": 0.31766199999999856
                },
                {
                    "name": "G#4",
                    "midi": 68,
                    "time": 123.88817999999998,
                    "velocity": 0.48031496062992124,
                    "duration": 0.31766199999999856
                },
                {
                    "name": "A4",
                    "midi": 69,
                    "time": 124.20584199999998,
                    "velocity": 0.48031496062992124,
                    "duration": 0.31766199999999856
                },
                {
                    "name": "B4",
                    "midi": 71,
                    "time": 124.52350399999997,
                    "velocity": 0.5354330708661418,
                    "duration": 0.6353239999999971
                },
                {
                    "name": "G#4",
                    "midi": 68,
                    "time": 125.15882799999997,
                    "velocity": 0.4645669291338583,
                    "duration": 0.6353239999999971
                },
                {
                    "name": "F#4",
                    "midi": 66,
                    "time": 125.79415199999997,
                    "velocity": 0.47244094488188976,
                    "duration": 0.5956162500000062
                },
                {
                    "name": "C#5",
                    "midi": 73,
                    "time": 126.42947599999998,
                    "velocity": 0.5590551181102362,
                    "duration": 0.6353239999999971
                },
                {
                    "name": "B4",
                    "midi": 71,
                    "time": 127.06479999999998,
                    "velocity": 0.5748031496062992,
                    "duration": 0.6353239999999971
                },
                {
                    "name": "G#4",
                    "midi": 68,
                    "time": 127.70012399999997,
                    "velocity": 0.4881889763779528,
                    "duration": 0.6353240000000113
                },
                {
                    "name": "F#4",
                    "midi": 66,
                    "time": 128.33544799999999,
                    "velocity": 0.49606299212598426,
                    "duration": 0.5956162500000062
                },
                {
                    "name": "E5",
                    "midi": 76,
                    "time": 128.97077199999998,
                    "velocity": 0.5905511811023622,
                    "duration": 0.6353239999999971
                },
                {
                    "name": "D#5",
                    "midi": 75,
                    "time": 129.60609599999998,
                    "velocity": 0.6062992125984252,
                    "duration": 0.6353239999999971
                },
                {
                    "name": "C#5",
                    "midi": 73,
                    "time": 130.24141999999998,
                    "velocity": 0.5196850393700787,
                    "duration": 0.6353239999999971
                },
                {
                    "name": "B4",
                    "midi": 71,
                    "time": 130.87674399999997,
                    "velocity": 0.5433070866141733,
                    "duration": 0.31766200000001277
                },
                {
                    "name": "D#5",
                    "midi": 75,
                    "time": 131.194406,
                    "velocity": 0.5511811023622047,
                    "duration": 0.31766200000001277
                },
                {
                    "name": "F#5",
                    "midi": 78,
                    "time": 131.512068,
                    "velocity": 0.5905511811023622,
                    "duration": 0.31766200000001277
                },
                {
                    "name": "A5",
                    "midi": 81,
                    "time": 131.82973,
                    "velocity": 0.6062992125984252,
                    "duration": 0.31766200000001277
                },
                {
                    "name": "G#5",
                    "midi": 80,
                    "time": 132.14739200000002,
                    "velocity": 0.5905511811023622,
                    "duration": 0.31766200000001277
                },
                {
                    "name": "D#5",
                    "midi": 75,
                    "time": 132.46505400000004,
                    "velocity": 0.49606299212598426,
                    "duration": 0.31766200000001277
                },
                {
                    "name": "F#5",
                    "midi": 78,
                    "time": 132.78271600000005,
                    "velocity": 0.5590551181102362,
                    "duration": 0.31766200000001277
                },
                {
                    "name": "E5",
                    "midi": 76,
                    "time": 133.10037800000006,
                    "velocity": 0.5039370078740157,
                    "duration": 0.31766200000001277
                },
                {
                    "name": "D#5",
                    "midi": 75,
                    "time": 133.41804000000008,
                    "velocity": 0.49606299212598426,
                    "duration": 0.31766200000001277
                },
                {
                    "name": "C#5",
                    "midi": 73,
                    "time": 133.7357020000001,
                    "velocity": 0.4251968503937008,
                    "duration": 0.31766200000001277
                },
                {
                    "name": "A4",
                    "midi": 69,
                    "time": 134.0533640000001,
                    "velocity": 0.4645669291338583,
                    "duration": 0.31766200000001277
                },
                {
                    "name": "F#4",
                    "midi": 66,
                    "time": 134.3710260000001,
                    "velocity": 0.4015748031496063,
                    "duration": 0.31766200000001277
                },
                {
                    "name": "E4",
                    "midi": 64,
                    "time": 134.68868800000013,
                    "velocity": 0.49606299212598426,
                    "duration": 1.2706479999999942
                },
                {
                    "name": "D#4",
                    "midi": 63,
                    "time": 135.95933600000012,
                    "velocity": 0.3464566929133858,
                    "duration": 1.2706479999999942
                },
                {
                    "name": "D4",
                    "midi": 62,
                    "time": 137.22998400000012,
                    "velocity": 0.33858267716535434,
                    "duration": 1.2706479999999942
                },
                {
                    "name": "C#4",
                    "midi": 61,
                    "time": 138.5006320000001,
                    "velocity": 0.28346456692913385,
                    "duration": 0.31766200000001277
                },
                {
                    "name": "C#4",
                    "midi": 61,
                    "time": 139.13595600000014,
                    "velocity": 0.4409448818897638,
                    "duration": 0.6353239999999971
                },
                {
                    "name": "D#4",
                    "midi": 63,
                    "time": 139.77128000000013,
                    "velocity": 0.4566929133858268,
                    "duration": 0.6353239999999971
                },
                {
                    "name": "E4",
                    "midi": 64,
                    "time": 140.40660400000013,
                    "velocity": 0.5118110236220472,
                    "duration": 0.6353239999999971
                },
                {
                    "name": "G#4",
                    "midi": 68,
                    "time": 141.04192800000013,
                    "velocity": 0.5511811023622047,
                    "duration": 0.6353239999999971
                },
                {
                    "name": "F#4",
                    "midi": 66,
                    "time": 141.67725200000012,
                    "velocity": 0.49606299212598426,
                    "duration": 0.47649300000000494
                },
                {
                    "name": "E4",
                    "midi": 64,
                    "time": 142.15374500000013,
                    "velocity": 0.41732283464566927,
                    "duration": 0.14559508333334747
                },
                {
                    "name": "E4",
                    "midi": 64,
                    "time": 142.31257600000015,
                    "velocity": 0.5196850393700787,
                    "duration": 1.2706479999999942
                },
                {
                    "name": "D4",
                    "midi": 62,
                    "time": 144.21854800000014,
                    "velocity": 0.3858267716535433,
                    "duration": 0.6353239999999971
                },
                {
                    "name": "C#4",
                    "midi": 61,
                    "time": 144.85387200000014,
                    "velocity": 0.4330708661417323,
                    "duration": 1.2706479999999942
                },
                {
                    "name": "C4",
                    "midi": 60,
                    "time": 146.75984400000013,
                    "velocity": 0.33070866141732286,
                    "duration": 0.6353239999999971
                },
                {
                    "name": "B3",
                    "midi": 59,
                    "time": 147.39516800000013,
                    "velocity": 0.3700787401574803,
                    "duration": 1.2706479999999942
                },
                {
                    "name": "G#4",
                    "midi": 68,
                    "time": 149.30114000000012,
                    "velocity": 0.28346456692913385,
                    "duration": 0.31766200000001277
                },
                {
                    "name": "F#4",
                    "midi": 66,
                    "time": 149.61880200000013,
                    "velocity": 0.2755905511811024,
                    "duration": 0.31766200000001277
                },
                {
                    "name": "E4",
                    "midi": 64,
                    "time": 149.93646400000014,
                    "velocity": 0.30708661417322836,
                    "duration": 1.2706479999999942
                },
                {
                    "name": "G#4",
                    "midi": 68,
                    "time": 151.84243600000013,
                    "velocity": 0.2677165354330709,
                    "duration": 0.6353239999999971
                },
                {
                    "name": "E4",
                    "midi": 64,
                    "time": 152.47776000000013,
                    "velocity": 0.2992125984251969,
                    "duration": 1.257412083333321
                },
                {
                    "name": "E4",
                    "midi": 64,
                    "time": 153.74840800000013,
                    "velocity": 0.2992125984251969,
                    "duration": 1.257412083333321
                },
                {
                    "name": "G#3",
                    "midi": 56,
                    "time": 155.01905600000012,
                    "velocity": 0.14960629921259844,
                    "duration": 2.5412959999999885
                },
                {
                    "name": "E4",
                    "midi": 64,
                    "time": 155.01905600000012,
                    "velocity": 0.2047244094488189,
                    "duration": 2.5412959999999885
                }
            ],
            "controlChanges": {},
            "id": 1,
            "name": "Piano right",
            "instrumentNumber": 0,
            "instrument": "acoustic grand piano",
            "instrumentFamily": "piano",
            "channelNumber": 0,
            "isPercussion": false
        },
        {
            "startTime": 0,
            "duration": 155.01905600000086,
            "length": 940,
            "notes": [
                {
                    "name": "B2",
                    "midi": 47,
                    "time": 0,
                    "velocity": 0.2204724409448819,
                    "duration": 0.158831
                },
                {
                    "name": "E3",
                    "midi": 52,
                    "time": 0.158831,
                    "velocity": 0.15748031496062992,
                    "duration": 0.158831
                },
                {
                    "name": "G#3",
                    "midi": 56,
                    "time": 0.317662,
                    "velocity": 0.16535433070866143,
                    "duration": 0.158831
                },
                {
                    "name": "B3",
                    "midi": 59,
                    "time": 0.476493,
                    "velocity": 0.15748031496062992,
                    "duration": 0.158831
                },
                {
                    "name": "B2",
                    "midi": 47,
                    "time": 0.635324,
                    "velocity": 0.2047244094488189,
                    "duration": 0.15883099999999994
                },
                {
                    "name": "E3",
                    "midi": 52,
                    "time": 0.7941549999999999,
                    "velocity": 0.15748031496062992,
                    "duration": 0.15883099999999994
                },
                {
                    "name": "G#3",
                    "midi": 56,
                    "time": 0.9529859999999999,
                    "velocity": 0.16535433070866143,
                    "duration": 0.15883099999999994
                },
                {
                    "name": "B3",
                    "midi": 59,
                    "time": 1.1118169999999998,
                    "velocity": 0.14960629921259844,
                    "duration": 0.15883099999999994
                },
                {
                    "name": "B2",
                    "midi": 47,
                    "time": 1.2706479999999998,
                    "velocity": 0.2204724409448819,
                    "duration": 0.15883099999999994
                },
                {
                    "name": "E3",
                    "midi": 52,
                    "time": 1.4294789999999997,
                    "velocity": 0.16535433070866143,
                    "duration": 0.15883099999999994
                },
                {
                    "name": "G#3",
                    "midi": 56,
                    "time": 1.5883099999999997,
                    "velocity": 0.16535433070866143,
                    "duration": 0.15883099999999994
                },
                {
                    "name": "B3",
                    "midi": 59,
                    "time": 1.7471409999999996,
                    "velocity": 0.15748031496062992,
                    "duration": 0.15883099999999994
                },
                {
                    "name": "B2",
                    "midi": 47,
                    "time": 1.9059719999999996,
                    "velocity": 0.2125984251968504,
                    "duration": 0.15883099999999994
                },
                {
                    "name": "E3",
                    "midi": 52,
                    "time": 2.0648029999999995,
                    "velocity": 0.18110236220472442,
                    "duration": 0.15883100000000017
                },
                {
                    "name": "G#3",
                    "midi": 56,
                    "time": 2.2236339999999997,
                    "velocity": 0.1732283464566929,
                    "duration": 0.15883100000000017
                },
                {
                    "name": "B3",
                    "midi": 59,
                    "time": 2.382465,
                    "velocity": 0.15748031496062992,
                    "duration": 0.15883100000000017
                },
                {
                    "name": "B2",
                    "midi": 47,
                    "time": 2.541296,
                    "velocity": 0.2440944881889764,
                    "duration": 0.15883100000000017
                },
                {
                    "name": "D#3",
                    "midi": 51,
                    "time": 2.700127,
                    "velocity": 0.18110236220472442,
                    "duration": 0.15883100000000017
                },
                {
                    "name": "A3",
                    "midi": 57,
                    "time": 2.8589580000000003,
                    "velocity": 0.18110236220472442,
                    "duration": 0.15883100000000017
                },
                {
                    "name": "B3",
                    "midi": 59,
                    "time": 3.0177890000000005,
                    "velocity": 0.18110236220472442,
                    "duration": 0.15883100000000017
                },
                {
                    "name": "B2",
                    "midi": 47,
                    "time": 3.1766200000000007,
                    "velocity": 0.23622047244094488,
                    "duration": 0.15883100000000017
                },
                {
                    "name": "D#3",
                    "midi": 51,
                    "time": 3.335451000000001,
                    "velocity": 0.18110236220472442,
                    "duration": 0.15883100000000017
                },
                {
                    "name": "A3",
                    "midi": 57,
                    "time": 3.494282000000001,
                    "velocity": 0.18110236220472442,
                    "duration": 0.15883100000000017
                },
                {
                    "name": "B3",
                    "midi": 59,
                    "time": 3.653113000000001,
                    "velocity": 0.1732283464566929,
                    "duration": 0.15883100000000017
                },
                {
                    "name": "B2",
                    "midi": 47,
                    "time": 3.8119440000000013,
                    "velocity": 0.25196850393700787,
                    "duration": 0.15883100000000017
                },
                {
                    "name": "D#3",
                    "midi": 51,
                    "time": 3.9707750000000015,
                    "velocity": 0.1968503937007874,
                    "duration": 0.15883100000000017
                },
                {
                    "name": "F#3",
                    "midi": 54,
                    "time": 4.129606000000002,
                    "velocity": 0.2047244094488189,
                    "duration": 0.15883100000000017
                },
                {
                    "name": "B3",
                    "midi": 59,
                    "time": 4.288437000000002,
                    "velocity": 0.2283464566929134,
                    "duration": 0.15883100000000017
                },
                {
                    "name": "B2",
                    "midi": 47,
                    "time": 4.447268000000002,
                    "velocity": 0.2440944881889764,
                    "duration": 0.15883100000000017
                },
                {
                    "name": "D#3",
                    "midi": 51,
                    "time": 4.606099000000002,
                    "velocity": 0.2047244094488189,
                    "duration": 0.15883100000000017
                },
                {
                    "name": "F#3",
                    "midi": 54,
                    "time": 4.764930000000002,
                    "velocity": 0.25196850393700787,
                    "duration": 0.15883100000000017
                },
                {
                    "name": "B3",
                    "midi": 59,
                    "time": 4.9237610000000025,
                    "velocity": 0.2677165354330709,
                    "duration": 0.15883100000000017
                },
                {
                    "name": "B2",
                    "midi": 47,
                    "time": 5.082592000000003,
                    "velocity": 0.31496062992125984,
                    "duration": 0.15883100000000017
                },
                {
                    "name": "E3",
                    "midi": 52,
                    "time": 5.241423000000003,
                    "velocity": 0.2047244094488189,
                    "duration": 0.15883100000000017
                },
                {
                    "name": "G#3",
                    "midi": 56,
                    "time": 5.400254000000003,
                    "velocity": 0.2047244094488189,
                    "duration": 0.15883100000000017
                },
                {
                    "name": "B3",
                    "midi": 59,
                    "time": 5.559085000000003,
                    "velocity": 0.1968503937007874,
                    "duration": 0.15883100000000017
                },
                {
                    "name": "B2",
                    "midi": 47,
                    "time": 5.717916000000003,
                    "velocity": 0.25196850393700787,
                    "duration": 0.15883100000000017
                },
                {
                    "name": "D#3",
                    "midi": 51,
                    "time": 5.8767470000000035,
                    "velocity": 0.1968503937007874,
                    "duration": 0.15883100000000017
                },
                {
                    "name": "A3",
                    "midi": 57,
                    "time": 6.035578000000004,
                    "velocity": 0.1968503937007874,
                    "duration": 0.15883100000000017
                },
                {
                    "name": "B3",
                    "midi": 59,
                    "time": 6.194409000000004,
                    "velocity": 0.18110236220472442,
                    "duration": 0.15883100000000017
                },
                {
                    "name": "B2",
                    "midi": 47,
                    "time": 6.353240000000004,
                    "velocity": 0.25984251968503935,
                    "duration": 0.15883100000000017
                },
                {
                    "name": "E3",
                    "midi": 52,
                    "time": 6.512071000000004,
                    "velocity": 0.2125984251968504,
                    "duration": 0.15883100000000017
                },
                {
                    "name": "G#3",
                    "midi": 56,
                    "time": 6.670902000000004,
                    "velocity": 0.2677165354330709,
                    "duration": 0.15883100000000017
                },
                {
                    "name": "B3",
                    "midi": 59,
                    "time": 6.8297330000000045,
                    "velocity": 0.3464566929133858,
                    "duration": 0.15883100000000017
                },
                {
                    "name": "F#3",
                    "midi": 54,
                    "time": 6.988564000000005,
                    "velocity": 0.41732283464566927,
                    "duration": 0.15883100000000017
                },
                {
                    "name": "C#4",
                    "midi": 61,
                    "time": 7.147395000000005,
                    "velocity": 0.2440944881889764,
                    "duration": 0.15883100000000017
                },
                {
                    "name": "E4",
                    "midi": 64,
                    "time": 7.306226000000005,
                    "velocity": 0.30708661417322836,
                    "duration": 0.15883100000000017
                },
                {
                    "name": "F#4",
                    "midi": 66,
                    "time": 7.465057000000005,
                    "velocity": 0.18110236220472442,
                    "duration": 0.15883100000000017
                },
                {
                    "name": "F#3",
                    "midi": 54,
                    "time": 7.623888000000005,
                    "velocity": 0.2755905511811024,
                    "duration": 0.15883100000000017
                },
                {
                    "name": "B3",
                    "midi": 59,
                    "time": 7.7827190000000055,
                    "velocity": 0.2047244094488189,
                    "duration": 0.15883100000000017
                },
                {
                    "name": "D#4",
                    "midi": 63,
                    "time": 7.941550000000006,
                    "velocity": 0.2047244094488189,
                    "duration": 0.15883100000000017
                },
                {
                    "name": "F#4",
                    "midi": 66,
                    "time": 8.100381000000006,
                    "velocity": 0.1968503937007874,
                    "duration": 0.15883099999999928
                },
                {
                    "name": "F#3",
                    "midi": 54,
                    "time": 8.259212000000005,
                    "velocity": 0.25196850393700787,
                    "duration": 0.15883099999999928
                },
                {
                    "name": "A#3",
                    "midi": 58,
                    "time": 8.418043000000004,
                    "velocity": 0.1968503937007874,
                    "duration": 0.15883099999999928
                },
                {
                    "name": "E4",
                    "midi": 64,
                    "time": 8.576874000000004,
                    "velocity": 0.1968503937007874,
                    "duration": 0.15883099999999928
                },
                {
                    "name": "F#4",
                    "midi": 66,
                    "time": 8.735705000000003,
                    "velocity": 0.18110236220472442,
                    "duration": 0.15883099999999928
                },
                {
                    "name": "F#3",
                    "midi": 54,
                    "time": 8.894536000000002,
                    "velocity": 0.25984251968503935,
                    "duration": 0.15883099999999928
                },
                {
                    "name": "B3",
                    "midi": 59,
                    "time": 9.053367000000001,
                    "velocity": 0.2125984251968504,
                    "duration": 0.15883099999999928
                },
                {
                    "name": "D#4",
                    "midi": 63,
                    "time": 9.212198,
                    "velocity": 0.25984251968503935,
                    "duration": 0.15883099999999928
                },
                {
                    "name": "F#4",
                    "midi": 66,
                    "time": 9.371029,
                    "velocity": 0.31496062992125984,
                    "duration": 0.15883099999999928
                },
                {
                    "name": "G#3",
                    "midi": 56,
                    "time": 9.52986,
                    "velocity": 0.36220472440944884,
                    "duration": 0.15883099999999928
                },
                {
                    "name": "B3",
                    "midi": 59,
                    "time": 9.688690999999999,
                    "velocity": 0.2047244094488189,
                    "duration": 0.15883099999999928
                },
                {
                    "name": "C#4",
                    "midi": 61,
                    "time": 9.847521999999998,
                    "velocity": 0.1968503937007874,
                    "duration": 0.15883099999999928
                },
                {
                    "name": "G#4",
                    "midi": 68,
                    "time": 10.006352999999997,
                    "velocity": 0.18110236220472442,
                    "duration": 0.15883099999999928
                },
                {
                    "name": "A3",
                    "midi": 57,
                    "time": 10.324014999999996,
                    "velocity": 0.2047244094488189,
                    "duration": 0.15883099999999928
                },
                {
                    "name": "C#4",
                    "midi": 61,
                    "time": 10.482845999999995,
                    "velocity": 0.2047244094488189,
                    "duration": 0.15883099999999928
                },
                {
                    "name": "E4",
                    "midi": 64,
                    "time": 10.641676999999994,
                    "velocity": 0.1968503937007874,
                    "duration": 0.15883099999999928
                },
                {
                    "name": "F#3",
                    "midi": 54,
                    "time": 10.800507999999994,
                    "velocity": 0.25196850393700787,
                    "duration": 0.15883099999999928
                },
                {
                    "name": "A3",
                    "midi": 57,
                    "time": 10.959338999999993,
                    "velocity": 0.1968503937007874,
                    "duration": 0.15883099999999928
                },
                {
                    "name": "B3",
                    "midi": 59,
                    "time": 11.118169999999992,
                    "velocity": 0.1968503937007874,
                    "duration": 0.15883099999999928
                },
                {
                    "name": "D#4",
                    "midi": 63,
                    "time": 11.277000999999991,
                    "velocity": 0.18110236220472442,
                    "duration": 0.15883099999999928
                },
                {
                    "name": "G#3",
                    "midi": 56,
                    "time": 11.59466299999999,
                    "velocity": 0.1968503937007874,
                    "duration": 0.15883099999999928
                },
                {
                    "name": "B3",
                    "midi": 59,
                    "time": 11.75349399999999,
                    "velocity": 0.1968503937007874,
                    "duration": 0.15883099999999928
                },
                {
                    "name": "E4",
                    "midi": 64,
                    "time": 11.912324999999989,
                    "velocity": 0.1889763779527559,
                    "duration": 0.15883099999999928
                },
                {
                    "name": "E3",
                    "midi": 52,
                    "time": 12.071155999999988,
                    "velocity": 0.2440944881889764,
                    "duration": 0.15883099999999928
                },
                {
                    "name": "F#3",
                    "midi": 54,
                    "time": 12.229986999999987,
                    "velocity": 0.2047244094488189,
                    "duration": 0.15883099999999928
                },
                {
                    "name": "C#4",
                    "midi": 61,
                    "time": 12.388817999999986,
                    "velocity": 0.1968503937007874,
                    "duration": 0.15883099999999928
                },
                {
                    "name": "E4",
                    "midi": 64,
                    "time": 12.547648999999986,
                    "velocity": 0.18110236220472442,
                    "duration": 0.15883099999999928
                },
                {
                    "name": "E3",
                    "midi": 52,
                    "time": 12.706479999999985,
                    "velocity": 0.2755905511811024,
                    "duration": 0.15883099999999928
                },
                {
                    "name": "G#3",
                    "midi": 56,
                    "time": 12.865310999999984,
                    "velocity": 0.2047244094488189,
                    "duration": 0.15883099999999928
                },
                {
                    "name": "B3",
                    "midi": 59,
                    "time": 13.024141999999983,
                    "velocity": 0.2047244094488189,
                    "duration": 0.15883099999999928
                },
                {
                    "name": "E4",
                    "midi": 64,
                    "time": 13.182972999999983,
                    "velocity": 0.1968503937007874,
                    "duration": 0.15883099999999928
                },
                {
                    "name": "E3",
                    "midi": 52,
                    "time": 13.341803999999982,
                    "velocity": 0.25196850393700787,
                    "duration": 0.15883099999999928
                },
                {
                    "name": "G#3",
                    "midi": 56,
                    "time": 13.500634999999981,
                    "velocity": 0.1968503937007874,
                    "duration": 0.15883099999999928
                },
                {
                    "name": "B3",
                    "midi": 59,
                    "time": 13.65946599999998,
                    "velocity": 0.1968503937007874,
                    "duration": 0.15883099999999928
                },
                {
                    "name": "E4",
                    "midi": 64,
                    "time": 13.81829699999998,
                    "velocity": 0.18110236220472442,
                    "duration": 0.15883099999999928
                },
                {
                    "name": "D#3",
                    "midi": 51,
                    "time": 13.97712799999998,
                    "velocity": 0.2283464566929134,
                    "duration": 0.15883099999999928
                },
                {
                    "name": "F#3",
                    "midi": 54,
                    "time": 14.135958999999978,
                    "velocity": 0.1968503937007874,
                    "duration": 0.15883099999999928
                },
                {
                    "name": "B3",
                    "midi": 59,
                    "time": 14.294789999999978,
                    "velocity": 0.1968503937007874,
                    "duration": 0.15883099999999928
                },
                {
                    "name": "D#4",
                    "midi": 63,
                    "time": 14.453620999999977,
                    "velocity": 0.1889763779527559,
                    "duration": 0.15883099999999928
                },
                {
                    "name": "B2",
                    "midi": 47,
                    "time": 14.612451999999976,
                    "velocity": 0.2440944881889764,
                    "duration": 0.15883099999999928
                },
                {
                    "name": "F#3",
                    "midi": 54,
                    "time": 14.771282999999976,
                    "velocity": 0.2125984251968504,
                    "duration": 0.15883099999999928
                },
                {
                    "name": "A3",
                    "midi": 57,
                    "time": 14.930113999999975,
                    "velocity": 0.2283464566929134,
                    "duration": 0.15883099999999928
                },
                {
                    "name": "B3",
                    "midi": 59,
                    "time": 15.088944999999974,
                    "velocity": 0.25196850393700787,
                    "duration": 0.15883099999999928
                },
                {
                    "name": "B2",
                    "midi": 47,
                    "time": 15.247775999999973,
                    "velocity": 0.31496062992125984,
                    "duration": 0.15883099999999928
                },
                {
                    "name": "E3",
                    "midi": 52,
                    "time": 15.406606999999973,
                    "velocity": 0.2047244094488189,
                    "duration": 0.15883099999999928
                },
                {
                    "name": "G#3",
                    "midi": 56,
                    "time": 15.565437999999972,
                    "velocity": 0.2283464566929134,
                    "duration": 0.15883099999999928
                },
                {
                    "name": "B3",
                    "midi": 59,
                    "time": 15.724268999999971,
                    "velocity": 0.2440944881889764,
                    "duration": 0.15883099999999928
                },
                {
                    "name": "B2",
                    "midi": 47,
                    "time": 15.88309999999997,
                    "velocity": 0.2992125984251969,
                    "duration": 0.15883099999999928
                },
                {
                    "name": "D#3",
                    "midi": 51,
                    "time": 16.04193099999997,
                    "velocity": 0.1968503937007874,
                    "duration": 0.15883099999999928
                },
                {
                    "name": "A3",
                    "midi": 57,
                    "time": 16.20076199999997,
                    "velocity": 0.23622047244094488,
                    "duration": 0.15883099999999928
                },
                {
                    "name": "B3",
                    "midi": 59,
                    "time": 16.35959299999997,
                    "velocity": 0.2047244094488189,
                    "duration": 0.15883099999999928
                },
                {
                    "name": "B2",
                    "midi": 47,
                    "time": 16.518423999999968,
                    "velocity": 0.25984251968503935,
                    "duration": 0.15883099999999928
                },
                {
                    "name": "E3",
                    "midi": 52,
                    "time": 16.677254999999967,
                    "velocity": 0.2283464566929134,
                    "duration": 0.15883099999999928
                },
                {
                    "name": "G#3",
                    "midi": 56,
                    "time": 16.836085999999966,
                    "velocity": 0.2440944881889764,
                    "duration": 0.15883099999999928
                },
                {
                    "name": "B3",
                    "midi": 59,
                    "time": 16.994916999999965,
                    "velocity": 0.28346456692913385,
                    "duration": 0.15883099999999928
                },
                {
                    "name": "F#3",
                    "midi": 54,
                    "time": 17.153747999999965,
                    "velocity": 0.33070866141732286,
                    "duration": 0.15883099999999928
                },
                {
                    "name": "C#4",
                    "midi": 61,
                    "time": 17.312578999999964,
                    "velocity": 0.23622047244094488,
                    "duration": 0.15883099999999928
                },
                {
                    "name": "E4",
                    "midi": 64,
                    "time": 17.471409999999963,
                    "velocity": 0.25196850393700787,
                    "duration": 0.15883099999999928
                },
                {
                    "name": "F#4",
                    "midi": 66,
                    "time": 17.630240999999963,
                    "velocity": 0.2283464566929134,
                    "duration": 0.15883099999999928
                },
                {
                    "name": "F#3",
                    "midi": 54,
                    "time": 17.789071999999962,
                    "velocity": 0.2755905511811024,
                    "duration": 0.15883099999999928
                },
                {
                    "name": "B3",
                    "midi": 59,
                    "time": 17.94790299999996,
                    "velocity": 0.2047244094488189,
                    "duration": 0.15883099999999928
                },
                {
                    "name": "D#4",
                    "midi": 63,
                    "time": 18.10673399999996,
                    "velocity": 0.2047244094488189,
                    "duration": 0.15883099999999928
                },
                {
                    "name": "F#4",
                    "midi": 66,
                    "time": 18.26556499999996,
                    "velocity": 0.1968503937007874,
                    "duration": 0.15883099999999928
                },
                {
                    "name": "F#3",
                    "midi": 54,
                    "time": 18.42439599999996,
                    "velocity": 0.25196850393700787,
                    "duration": 0.15883099999999928
                },
                {
                    "name": "A#3",
                    "midi": 58,
                    "time": 18.583226999999958,
                    "velocity": 0.1968503937007874,
                    "duration": 0.15883099999999928
                },
                {
                    "name": "E4",
                    "midi": 64,
                    "time": 18.742057999999957,
                    "velocity": 0.1968503937007874,
                    "duration": 0.15883099999999928
                },
                {
                    "name": "F#4",
                    "midi": 66,
                    "time": 18.900888999999957,
                    "velocity": 0.18110236220472442,
                    "duration": 0.15883099999999928
                },
                {
                    "name": "F#3",
                    "midi": 54,
                    "time": 19.059719999999956,
                    "velocity": 0.25984251968503935,
                    "duration": 0.15883099999999928
                },
                {
                    "name": "B3",
                    "midi": 59,
                    "time": 19.218550999999955,
                    "velocity": 0.2992125984251969,
                    "duration": 0.15883099999999928
                },
                {
                    "name": "D#4",
                    "midi": 63,
                    "time": 19.377381999999955,
                    "velocity": 0.30708661417322836,
                    "duration": 0.15883099999999928
                },
                {
                    "name": "F#4",
                    "midi": 66,
                    "time": 19.536212999999954,
                    "velocity": 0.3779527559055118,
                    "duration": 0.15883099999999928
                },
                {
                    "name": "B3",
                    "midi": 59,
                    "time": 19.695043999999953,
                    "velocity": 0.4251968503937008,
                    "duration": 0.15883099999999928
                },
                {
                    "name": "C#4",
                    "midi": 61,
                    "time": 19.853874999999952,
                    "velocity": 0.2755905511811024,
                    "duration": 0.15883099999999928
                },
                {
                    "name": "G#4",
                    "midi": 68,
                    "time": 20.01270599999995,
                    "velocity": 0.31496062992125984,
                    "duration": 0.15883099999999928
                },
                {
                    "name": "B4",
                    "midi": 71,
                    "time": 20.17153699999995,
                    "velocity": 0.25984251968503935,
                    "duration": 0.15883099999999928
                },
                {
                    "name": "B3",
                    "midi": 59,
                    "time": 20.33036799999995,
                    "velocity": 0.33070866141732286,
                    "duration": 0.15883099999999928
                },
                {
                    "name": "C#4",
                    "midi": 61,
                    "time": 20.48919899999995,
                    "velocity": 0.2283464566929134,
                    "duration": 0.15883099999999928
                },
                {
                    "name": "G#4",
                    "midi": 68,
                    "time": 20.64802999999995,
                    "velocity": 0.2283464566929134,
                    "duration": 0.15883099999999928
                },
                {
                    "name": "B4",
                    "midi": 71,
                    "time": 20.806860999999948,
                    "velocity": 0.2283464566929134,
                    "duration": 0.15883099999999928
                },
                {
                    "name": "B3",
                    "midi": 59,
                    "time": 20.965691999999947,
                    "velocity": 0.2992125984251969,
                    "duration": 0.15883099999999928
                },
                {
                    "name": "C#4",
                    "midi": 61,
                    "time": 21.124522999999947,
                    "velocity": 0.2047244094488189,
                    "duration": 0.15883099999999928
                },
                {
                    "name": "G#4",
                    "midi": 68,
                    "time": 21.283353999999946,
                    "velocity": 0.2047244094488189,
                    "duration": 0.15883099999999928
                },
                {
                    "name": "B4",
                    "midi": 71,
                    "time": 21.442184999999945,
                    "velocity": 0.2047244094488189,
                    "duration": 0.15883099999999928
                },
                {
                    "name": "B3",
                    "midi": 59,
                    "time": 21.601015999999944,
                    "velocity": 0.2755905511811024,
                    "duration": 0.15883099999999928
                },
                {
                    "name": "C#4",
                    "midi": 61,
                    "time": 21.759846999999944,
                    "velocity": 0.2125984251968504,
                    "duration": 0.15883099999999928
                },
                {
                    "name": "G#4",
                    "midi": 68,
                    "time": 21.918677999999943,
                    "velocity": 0.2125984251968504,
                    "duration": 0.15883099999999928
                },
                {
                    "name": "B4",
                    "midi": 71,
                    "time": 22.077508999999942,
                    "velocity": 0.2125984251968504,
                    "duration": 0.15883099999999928
                },
                {
                    "name": "B3",
                    "midi": 59,
                    "time": 22.23633999999994,
                    "velocity": 0.2755905511811024,
                    "duration": 0.15883099999999928
                },
                {
                    "name": "C#4",
                    "midi": 61,
                    "time": 22.39517099999994,
                    "velocity": 0.14173228346456693,
                    "duration": 0.15883099999999928
                },
                {
                    "name": "G#4",
                    "midi": 68,
                    "time": 22.55400199999994,
                    "velocity": 0.14960629921259844,
                    "duration": 0.15883099999999928
                },
                {
                    "name": "B4",
                    "midi": 71,
                    "time": 22.71283299999994,
                    "velocity": 0.15748031496062992,
                    "duration": 0.15883099999999928
                },
                {
                    "name": "B3",
                    "midi": 59,
                    "time": 22.87166399999994,
                    "velocity": 0.2283464566929134,
                    "duration": 0.15883099999999928
                },
                {
                    "name": "C#4",
                    "midi": 61,
                    "time": 23.030494999999938,
                    "velocity": 0.15748031496062992,
                    "duration": 0.15883099999999928
                },
                {
                    "name": "G#4",
                    "midi": 68,
                    "time": 23.189325999999937,
                    "velocity": 0.15748031496062992,
                    "duration": 0.15883099999999928
                },
                {
                    "name": "B4",
                    "midi": 71,
                    "time": 23.348156999999937,
                    "velocity": 0.15748031496062992,
                    "duration": 0.15883099999999928
                },
                {
                    "name": "B3",
                    "midi": 59,
                    "time": 23.506987999999936,
                    "velocity": 0.2047244094488189,
                    "duration": 0.15883099999999928
                },
                {
                    "name": "C#4",
                    "midi": 61,
                    "time": 23.665818999999935,
                    "velocity": 0.14173228346456693,
                    "duration": 0.15883099999999928
                },
                {
                    "name": "G#4",
                    "midi": 68,
                    "time": 23.824649999999934,
                    "velocity": 0.14173228346456693,
                    "duration": 0.15883099999999928
                },
                {
                    "name": "B4",
                    "midi": 71,
                    "time": 23.983480999999934,
                    "velocity": 0.14173228346456693,
                    "duration": 0.15883099999999928
                },
                {
                    "name": "B3",
                    "midi": 59,
                    "time": 24.142311999999933,
                    "velocity": 0.1889763779527559,
                    "duration": 0.15883099999999928
                },
                {
                    "name": "C#4",
                    "midi": 61,
                    "time": 24.301142999999932,
                    "velocity": 0.14173228346456693,
                    "duration": 0.15883099999999928
                },
                {
                    "name": "G#4",
                    "midi": 68,
                    "time": 24.45997399999993,
                    "velocity": 0.14173228346456693,
                    "duration": 0.15883099999999928
                },
                {
                    "name": "B4",
                    "midi": 71,
                    "time": 24.61880499999993,
                    "velocity": 0.14173228346456693,
                    "duration": 0.15883099999999928
                },
                {
                    "name": "B3",
                    "midi": 59,
                    "time": 24.77763599999993,
                    "velocity": 0.2440944881889764,
                    "duration": 0.15883099999999928
                },
                {
                    "name": "C#4",
                    "midi": 61,
                    "time": 24.93646699999993,
                    "velocity": 0.2047244094488189,
                    "duration": 0.15883099999999928
                },
                {
                    "name": "G#4",
                    "midi": 68,
                    "time": 25.09529799999993,
                    "velocity": 0.1968503937007874,
                    "duration": 0.15883099999999928
                },
                {
                    "name": "B4",
                    "midi": 71,
                    "time": 25.254128999999928,
                    "velocity": 0.18110236220472442,
                    "duration": 0.15883099999999928
                },
                {
                    "name": "A#3",
                    "midi": 58,
                    "time": 25.412959999999927,
                    "velocity": 0.2283464566929134,
                    "duration": 0.15883099999999928
                },
                {
                    "name": "C#4",
                    "midi": 61,
                    "time": 25.571790999999926,
                    "velocity": 0.1968503937007874,
                    "duration": 0.15883099999999928
                },
                {
                    "name": "F#4",
                    "midi": 66,
                    "time": 25.730621999999926,
                    "velocity": 0.2283464566929134,
                    "duration": 0.15883099999999928
                },
                {
                    "name": "A#4",
                    "midi": 70,
                    "time": 25.889452999999925,
                    "velocity": 0.1968503937007874,
                    "duration": 0.15883099999999928
                },
                {
                    "name": "F#3",
                    "midi": 54,
                    "time": 26.048283999999924,
                    "velocity": 0.25196850393700787,
                    "duration": 0.15883099999999928
                },
                {
                    "name": "C#4",
                    "midi": 61,
                    "time": 26.207114999999924,
                    "velocity": 0.1968503937007874,
                    "duration": 0.15883099999999928
                },
                {
                    "name": "E4",
                    "midi": 64,
                    "time": 26.365945999999923,
                    "velocity": 0.1968503937007874,
                    "duration": 0.15883099999999928
                },
                {
                    "name": "F#4",
                    "midi": 66,
                    "time": 26.524776999999922,
                    "velocity": 0.18110236220472442,
                    "duration": 0.15883099999999928
                },
                {
                    "name": "F#3",
                    "midi": 54,
                    "time": 26.68360799999992,
                    "velocity": 0.2283464566929134,
                    "duration": 0.15883099999999928
                },
                {
                    "name": "B3",
                    "midi": 59,
                    "time": 26.84243899999992,
                    "velocity": 0.1968503937007874,
                    "duration": 0.15883099999999928
                },
                {
                    "name": "D#4",
                    "midi": 63,
                    "time": 27.00126999999992,
                    "velocity": 0.1968503937007874,
                    "duration": 0.15883099999999928
                },
                {
                    "name": "F#4",
                    "midi": 66,
                    "time": 27.16010099999992,
                    "velocity": 0.1889763779527559,
                    "duration": 0.15883099999999928
                },
                {
                    "name": "G#3",
                    "midi": 56,
                    "time": 27.477762999999918,
                    "velocity": 0.2047244094488189,
                    "duration": 0.15883099999999928
                },
                {
                    "name": "C#4",
                    "midi": 61,
                    "time": 27.636593999999917,
                    "velocity": 0.1968503937007874,
                    "duration": 0.15883099999999928
                },
                {
                    "name": "E4",
                    "midi": 64,
                    "time": 27.795424999999916,
                    "velocity": 0.18110236220472442,
                    "duration": 0.15883099999999928
                },
                {
                    "name": "B3",
                    "midi": 59,
                    "time": 28.113086999999915,
                    "velocity": 0.2047244094488189,
                    "duration": 0.15883099999999928
                },
                {
                    "name": "D#4",
                    "midi": 63,
                    "time": 28.271917999999914,
                    "velocity": 0.2047244094488189,
                    "duration": 0.15883099999999928
                },
                {
                    "name": "F#4",
                    "midi": 66,
                    "time": 28.430748999999913,
                    "velocity": 0.1968503937007874,
                    "duration": 0.15883099999999928
                },
                {
                    "name": "F#3",
                    "midi": 54,
                    "time": 28.589579999999913,
                    "velocity": 0.25196850393700787,
                    "duration": 0.15883099999999928
                },
                {
                    "name": "B3",
                    "midi": 59,
                    "time": 28.748410999999912,
                    "velocity": 0.1968503937007874,
                    "duration": 0.15883099999999928
                },
                {
                    "name": "D#4",
                    "midi": 63,
                    "time": 28.90724199999991,
                    "velocity": 0.1968503937007874,
                    "duration": 0.15883099999999928
                },
                {
                    "name": "F#4",
                    "midi": 66,
                    "time": 29.06607299999991,
                    "velocity": 0.18110236220472442,
                    "duration": 0.15883099999999928
                },
                {
                    "name": "F#3",
                    "midi": 54,
                    "time": 29.22490399999991,
                    "velocity": 0.2283464566929134,
                    "duration": 0.15883099999999928
                },
                {
                    "name": "C#4",
                    "midi": 61,
                    "time": 29.38373499999991,
                    "velocity": 0.2440944881889764,
                    "duration": 0.15883099999999928
                },
                {
                    "name": "E4",
                    "midi": 64,
                    "time": 29.54256599999991,
                    "velocity": 0.2992125984251969,
                    "duration": 0.15883099999999928
                },
                {
                    "name": "F#4",
                    "midi": 66,
                    "time": 29.701396999999908,
                    "velocity": 0.3464566929133858,
                    "duration": 0.15883099999999928
                },
                {
                    "name": "F#3",
                    "midi": 54,
                    "time": 29.860227999999907,
                    "velocity": 0.3858267716535433,
                    "duration": 0.15883099999999928
                },
                {
                    "name": "C#4",
                    "midi": 61,
                    "time": 30.019058999999906,
                    "velocity": 0.25984251968503935,
                    "duration": 0.15883099999999928
                },
                {
                    "name": "E4",
                    "midi": 64,
                    "time": 30.177889999999906,
                    "velocity": 0.3228346456692913,
                    "duration": 0.15883099999999928
                },
                {
                    "name": "F#4",
                    "midi": 66,
                    "time": 30.336720999999905,
                    "velocity": 0.2440944881889764,
                    "duration": 0.15883099999999928
                },
                {
                    "name": "F#3",
                    "midi": 54,
                    "time": 30.495551999999904,
                    "velocity": 0.25196850393700787,
                    "duration": 0.15883099999999928
                },
                {
                    "name": "C4",
                    "midi": 60,
                    "time": 30.654382999999903,
                    "velocity": 0.2047244094488189,
                    "duration": 0.15883099999999928
                },
                {
                    "name": "D#4",
                    "midi": 63,
                    "time": 30.813213999999903,
                    "velocity": 0.23622047244094488,
                    "duration": 0.15883099999999928
                },
                {
                    "name": "F#4",
                    "midi": 66,
                    "time": 30.972044999999902,
                    "velocity": 0.2992125984251969,
                    "duration": 0.15883099999999928
                },
                {
                    "name": "F#3",
                    "midi": 54,
                    "time": 31.1308759999999,
                    "velocity": 0.3228346456692913,
                    "duration": 0.15883099999999928
                },
                {
                    "name": "C4",
                    "midi": 60,
                    "time": 31.2897069999999,
                    "velocity": 0.1968503937007874,
                    "duration": 0.15883099999999928
                },
                {
                    "name": "D#4",
                    "midi": 63,
                    "time": 31.4485379999999,
                    "velocity": 0.1968503937007874,
                    "duration": 0.15883099999999928
                },
                {
                    "name": "F#4",
                    "midi": 66,
                    "time": 31.6073689999999,
                    "velocity": 0.18110236220472442,
                    "duration": 0.15883099999999928
                },
                {
                    "name": "E3",
                    "midi": 52,
                    "time": 31.7661999999999,
                    "velocity": 0.2283464566929134,
                    "duration": 0.15883099999999928
                },
                {
                    "name": "G#3",
                    "midi": 56,
                    "time": 31.925030999999898,
                    "velocity": 0.1968503937007874,
                    "duration": 0.15883099999999928
                },
                {
                    "name": "C#4",
                    "midi": 61,
                    "time": 32.0838619999999,
                    "velocity": 0.1968503937007874,
                    "duration": 0.15883099999999928
                },
                {
                    "name": "E4",
                    "midi": 64,
                    "time": 32.242692999999896,
                    "velocity": 0.1889763779527559,
                    "duration": 0.14559508333333326
                },
                {
                    "name": "E3",
                    "midi": 52,
                    "time": 32.401523999999895,
                    "velocity": 0.2440944881889764,
                    "duration": 0.15883099999999928
                },
                {
                    "name": "G#3",
                    "midi": 56,
                    "time": 32.560354999999895,
                    "velocity": 0.23622047244094488,
                    "duration": 0.15883099999999928
                },
                {
                    "name": "C#4",
                    "midi": 61,
                    "time": 32.719185999999894,
                    "velocity": 0.25984251968503935,
                    "duration": 0.15883099999999928
                },
                {
                    "name": "E4",
                    "midi": 64,
                    "time": 32.87801699999989,
                    "velocity": 0.2992125984251969,
                    "duration": 0.15883099999999928
                },
                {
                    "name": "E3",
                    "midi": 52,
                    "time": 33.03684799999989,
                    "velocity": 0.3543307086614173,
                    "duration": 0.15883099999999928
                },
                {
                    "name": "A#3",
                    "midi": 58,
                    "time": 33.19567899999989,
                    "velocity": 0.23622047244094488,
                    "duration": 0.15883099999999928
                },
                {
                    "name": "E4",
                    "midi": 64,
                    "time": 33.35450999999989,
                    "velocity": 0.25196850393700787,
                    "duration": 0.15883099999999928
                },
                {
                    "name": "F#4",
                    "midi": 66,
                    "time": 33.51334099999989,
                    "velocity": 0.3228346456692913,
                    "duration": 0.15883099999999928
                },
                {
                    "name": "E3",
                    "midi": 52,
                    "time": 33.67217199999989,
                    "velocity": 0.36220472440944884,
                    "duration": 0.15883099999999928
                },
                {
                    "name": "B3",
                    "midi": 59,
                    "time": 33.83100299999989,
                    "velocity": 0.25984251968503935,
                    "duration": 0.15883099999999928
                },
                {
                    "name": "E4",
                    "midi": 64,
                    "time": 33.98983399999989,
                    "velocity": 0.33858267716535434,
                    "duration": 0.15883099999999928
                },
                {
                    "name": "F#4",
                    "midi": 66,
                    "time": 34.14866499999989,
                    "velocity": 0.41732283464566927,
                    "duration": 0.15883099999999928
                },
                {
                    "name": "F#3",
                    "midi": 54,
                    "time": 34.30749599999989,
                    "velocity": 0.4566929133858268,
                    "duration": 0.15883099999999928
                },
                {
                    "name": "C#4",
                    "midi": 61,
                    "time": 34.466326999999886,
                    "velocity": 0.31496062992125984,
                    "duration": 0.15883099999999928
                },
                {
                    "name": "E4",
                    "midi": 64,
                    "time": 34.625157999999885,
                    "velocity": 0.36220472440944884,
                    "duration": 0.15883099999999928
                },
                {
                    "name": "F#4",
                    "midi": 66,
                    "time": 34.783988999999885,
                    "velocity": 0.2992125984251969,
                    "duration": 0.15883099999999928
                },
                {
                    "name": "F#3",
                    "midi": 54,
                    "time": 34.942819999999884,
                    "velocity": 0.31496062992125984,
                    "duration": 0.15883099999999928
                },
                {
                    "name": "A#3",
                    "midi": 58,
                    "time": 35.10165099999988,
                    "velocity": 0.25196850393700787,
                    "duration": 0.15883099999999928
                },
                {
                    "name": "E4",
                    "midi": 64,
                    "time": 35.26048199999988,
                    "velocity": 0.2440944881889764,
                    "duration": 0.15883099999999928
                },
                {
                    "name": "F#4",
                    "midi": 66,
                    "time": 35.41931299999988,
                    "velocity": 0.2204724409448819,
                    "duration": 0.15883099999999928
                },
                {
                    "name": "F#3",
                    "midi": 54,
                    "time": 35.57814399999988,
                    "velocity": 0.28346456692913385,
                    "duration": 0.15883099999999928
                },
                {
                    "name": "B3",
                    "midi": 59,
                    "time": 35.73697499999988,
                    "velocity": 0.25196850393700787,
                    "duration": 0.15883099999999928
                },
                {
                    "name": "D#4",
                    "midi": 63,
                    "time": 35.89580599999988,
                    "velocity": 0.25196850393700787,
                    "duration": 0.15883099999999928
                },
                {
                    "name": "F#4",
                    "midi": 66,
                    "time": 36.05463699999988,
                    "velocity": 0.2440944881889764,
                    "duration": 0.15883099999999928
                },
                {
                    "name": "F#3",
                    "midi": 54,
                    "time": 36.21346799999988,
                    "velocity": 0.31496062992125984,
                    "duration": 0.15883099999999928
                },
                {
                    "name": "B3",
                    "midi": 59,
                    "time": 36.37229899999988,
                    "velocity": 0.2440944881889764,
                    "duration": 0.15883099999999928
                },
                {
                    "name": "D#4",
                    "midi": 63,
                    "time": 36.53112999999988,
                    "velocity": 0.2440944881889764,
                    "duration": 0.15883099999999928
                },
                {
                    "name": "F#4",
                    "midi": 66,
                    "time": 36.689960999999876,
                    "velocity": 0.2204724409448819,
                    "duration": 0.15883099999999928
                },
                {
                    "name": "D#3",
                    "midi": 51,
                    "time": 36.848791999999875,
                    "velocity": 0.28346456692913385,
                    "duration": 0.15883099999999928
                },
                {
                    "name": "F#3",
                    "midi": 54,
                    "time": 37.007622999999874,
                    "velocity": 0.2440944881889764,
                    "duration": 0.15883099999999928
                },
                {
                    "name": "B3",
                    "midi": 59,
                    "time": 37.166453999999874,
                    "velocity": 0.2440944881889764,
                    "duration": 0.15883099999999928
                },
                {
                    "name": "D#4",
                    "midi": 63,
                    "time": 37.32528499999987,
                    "velocity": 0.23622047244094488,
                    "duration": 0.15883099999999928
                },
                {
                    "name": "B2",
                    "midi": 47,
                    "time": 37.48411599999987,
                    "velocity": 0.2440944881889764,
                    "duration": 0.15883099999999928
                },
                {
                    "name": "D#3",
                    "midi": 51,
                    "time": 37.64294699999987,
                    "velocity": 0.2047244094488189,
                    "duration": 0.15883099999999928
                },
                {
                    "name": "F#3",
                    "midi": 54,
                    "time": 37.80177799999987,
                    "velocity": 0.25196850393700787,
                    "duration": 0.15883099999999928
                },
                {
                    "name": "B3",
                    "midi": 59,
                    "time": 37.96060899999987,
                    "velocity": 0.2677165354330709,
                    "duration": 0.15883099999999928
                },
                {
                    "name": "B2",
                    "midi": 47,
                    "time": 38.11943999999987,
                    "velocity": 0.31496062992125984,
                    "duration": 0.15883099999999928
                },
                {
                    "name": "E3",
                    "midi": 52,
                    "time": 38.27827099999987,
                    "velocity": 0.2047244094488189,
                    "duration": 0.15883099999999928
                },
                {
                    "name": "G#3",
                    "midi": 56,
                    "time": 38.43710199999987,
                    "velocity": 0.2047244094488189,
                    "duration": 0.15883099999999928
                },
                {
                    "name": "B3",
                    "midi": 59,
                    "time": 38.59593299999987,
                    "velocity": 0.1968503937007874,
                    "duration": 0.15883099999999928
                },
                {
                    "name": "B2",
                    "midi": 47,
                    "time": 38.75476399999987,
                    "velocity": 0.25196850393700787,
                    "duration": 0.15883099999999928
                },
                {
                    "name": "D#3",
                    "midi": 51,
                    "time": 38.913594999999866,
                    "velocity": 0.1968503937007874,
                    "duration": 0.15883099999999928
                },
                {
                    "name": "A3",
                    "midi": 57,
                    "time": 39.072425999999865,
                    "velocity": 0.1968503937007874,
                    "duration": 0.15883099999999928
                },
                {
                    "name": "B3",
                    "midi": 59,
                    "time": 39.231256999999864,
                    "velocity": 0.18110236220472442,
                    "duration": 0.15883099999999928
                },
                {
                    "name": "B2",
                    "midi": 47,
                    "time": 39.390087999999864,
                    "velocity": 0.25984251968503935,
                    "duration": 0.15883099999999928
                },
                {
                    "name": "E3",
                    "midi": 52,
                    "time": 39.54891899999986,
                    "velocity": 0.2125984251968504,
                    "duration": 0.15883099999999928
                },
                {
                    "name": "G#3",
                    "midi": 56,
                    "time": 39.70774999999986,
                    "velocity": 0.2677165354330709,
                    "duration": 0.15883099999999928
                },
                {
                    "name": "B3",
                    "midi": 59,
                    "time": 39.86658099999986,
                    "velocity": 0.3464566929133858,
                    "duration": 0.15883099999999928
                },
                {
                    "name": "F#3",
                    "midi": 54,
                    "time": 40.02541199999986,
                    "velocity": 0.41732283464566927,
                    "duration": 0.15883099999999928
                },
                {
                    "name": "C#4",
                    "midi": 61,
                    "time": 40.18424299999986,
                    "velocity": 0.2440944881889764,
                    "duration": 0.15883099999999928
                },
                {
                    "name": "E4",
                    "midi": 64,
                    "time": 40.34307399999986,
                    "velocity": 0.30708661417322836,
                    "duration": 0.15883099999999928
                },
                {
                    "name": "F#4",
                    "midi": 66,
                    "time": 40.50190499999986,
                    "velocity": 0.18110236220472442,
                    "duration": 0.15883099999999928
                },
                {
                    "name": "F#3",
                    "midi": 54,
                    "time": 40.66073599999986,
                    "velocity": 0.2755905511811024,
                    "duration": 0.15883099999999928
                },
                {
                    "name": "B3",
                    "midi": 59,
                    "time": 40.81956699999986,
                    "velocity": 0.2047244094488189,
                    "duration": 0.15883099999999928
                },
                {
                    "name": "D#4",
                    "midi": 63,
                    "time": 40.978397999999856,
                    "velocity": 0.2047244094488189,
                    "duration": 0.15883099999999928
                },
                {
                    "name": "F#4",
                    "midi": 66,
                    "time": 41.137228999999856,
                    "velocity": 0.1968503937007874,
                    "duration": 0.15883099999999928
                },
                {
                    "name": "F#3",
                    "midi": 54,
                    "time": 41.296059999999855,
                    "velocity": 0.25196850393700787,
                    "duration": 0.15883099999999928
                },
                {
                    "name": "A#3",
                    "midi": 58,
                    "time": 41.454890999999854,
                    "velocity": 0.1968503937007874,
                    "duration": 0.15883099999999928
                },
                {
                    "name": "E4",
                    "midi": 64,
                    "time": 41.61372199999985,
                    "velocity": 0.1968503937007874,
                    "duration": 0.15883099999999928
                },
                {
                    "name": "F#4",
                    "midi": 66,
                    "time": 41.77255299999985,
                    "velocity": 0.18110236220472442,
                    "duration": 0.15883099999999928
                },
                {
                    "name": "F#3",
                    "midi": 54,
                    "time": 41.93138399999985,
                    "velocity": 0.25984251968503935,
                    "duration": 0.15883099999999928
                },
                {
                    "name": "B3",
                    "midi": 59,
                    "time": 42.09021499999985,
                    "velocity": 0.2125984251968504,
                    "duration": 0.15883099999999928
                },
                {
                    "name": "D#4",
                    "midi": 63,
                    "time": 42.24904599999985,
                    "velocity": 0.25984251968503935,
                    "duration": 0.15883099999999928
                },
                {
                    "name": "F#4",
                    "midi": 66,
                    "time": 42.40787699999985,
                    "velocity": 0.31496062992125984,
                    "duration": 0.15883099999999928
                },
                {
                    "name": "G#3",
                    "midi": 56,
                    "time": 42.56670799999985,
                    "velocity": 0.36220472440944884,
                    "duration": 0.15883099999999928
                },
                {
                    "name": "B3",
                    "midi": 59,
                    "time": 42.72553899999985,
                    "velocity": 0.2047244094488189,
                    "duration": 0.15883099999999928
                },
                {
                    "name": "C#4",
                    "midi": 61,
                    "time": 42.88436999999985,
                    "velocity": 0.1968503937007874,
                    "duration": 0.15883099999999928
                },
                {
                    "name": "G#4",
                    "midi": 68,
                    "time": 43.04320099999985,
                    "velocity": 0.18110236220472442,
                    "duration": 0.15883099999999928
                },
                {
                    "name": "A3",
                    "midi": 57,
                    "time": 43.360862999999846,
                    "velocity": 0.2047244094488189,
                    "duration": 0.15883099999999928
                },
                {
                    "name": "C#4",
                    "midi": 61,
                    "time": 43.519693999999845,
                    "velocity": 0.2047244094488189,
                    "duration": 0.15883099999999928
                },
                {
                    "name": "E4",
                    "midi": 64,
                    "time": 43.678524999999844,
                    "velocity": 0.1968503937007874,
                    "duration": 0.15883099999999928
                },
                {
                    "name": "F#3",
                    "midi": 54,
                    "time": 43.83735599999984,
                    "velocity": 0.25196850393700787,
                    "duration": 0.15883099999999928
                },
                {
                    "name": "A3",
                    "midi": 57,
                    "time": 43.99618699999984,
                    "velocity": 0.1968503937007874,
                    "duration": 0.15883099999999928
                },
                {
                    "name": "B3",
                    "midi": 59,
                    "time": 44.15501799999984,
                    "velocity": 0.1968503937007874,
                    "duration": 0.15883099999999928
                },
                {
                    "name": "D#4",
                    "midi": 63,
                    "time": 44.31384899999984,
                    "velocity": 0.18110236220472442,
                    "duration": 0.15883099999999928
                },
                {
                    "name": "G#3",
                    "midi": 56,
                    "time": 44.63151099999984,
                    "velocity": 0.1968503937007874,
                    "duration": 0.15883099999999928
                },
                {
                    "name": "B3",
                    "midi": 59,
                    "time": 44.79034199999984,
                    "velocity": 0.1968503937007874,
                    "duration": 0.15883099999999928
                },
                {
                    "name": "E4",
                    "midi": 64,
                    "time": 44.94917299999984,
                    "velocity": 0.1889763779527559,
                    "duration": 0.15883099999999928
                },
                {
                    "name": "E3",
                    "midi": 52,
                    "time": 45.10800399999984,
                    "velocity": 0.2440944881889764,
                    "duration": 0.15883099999999928
                },
                {
                    "name": "F#3",
                    "midi": 54,
                    "time": 45.26683499999984,
                    "velocity": 0.2047244094488189,
                    "duration": 0.15883099999999928
                },
                {
                    "name": "C#4",
                    "midi": 61,
                    "time": 45.425665999999836,
                    "velocity": 0.1968503937007874,
                    "duration": 0.15883099999999928
                },
                {
                    "name": "E4",
                    "midi": 64,
                    "time": 45.584496999999836,
                    "velocity": 0.18110236220472442,
                    "duration": 0.15883099999999928
                },
                {
                    "name": "E3",
                    "midi": 52,
                    "time": 45.743327999999835,
                    "velocity": 0.2755905511811024,
                    "duration": 0.15883099999999928
                },
                {
                    "name": "G#3",
                    "midi": 56,
                    "time": 45.902158999999834,
                    "velocity": 0.2047244094488189,
                    "duration": 0.15883099999999928
                },
                {
                    "name": "B3",
                    "midi": 59,
                    "time": 46.06098999999983,
                    "velocity": 0.2047244094488189,
                    "duration": 0.15883099999999928
                },
                {
                    "name": "E4",
                    "midi": 64,
                    "time": 46.21982099999983,
                    "velocity": 0.1968503937007874,
                    "duration": 0.15883099999999928
                },
                {
                    "name": "E3",
                    "midi": 52,
                    "time": 46.37865199999983,
                    "velocity": 0.25196850393700787,
                    "duration": 0.15883099999999928
                },
                {
                    "name": "G#3",
                    "midi": 56,
                    "time": 46.53748299999983,
                    "velocity": 0.1968503937007874,
                    "duration": 0.15883099999999928
                },
                {
                    "name": "B3",
                    "midi": 59,
                    "time": 46.69631399999983,
                    "velocity": 0.1968503937007874,
                    "duration": 0.15883099999999928
                },
                {
                    "name": "E4",
                    "midi": 64,
                    "time": 46.85514499999983,
                    "velocity": 0.18110236220472442,
                    "duration": 0.15883099999999928
                },
                {
                    "name": "D#3",
                    "midi": 51,
                    "time": 47.01397599999983,
                    "velocity": 0.2283464566929134,
                    "duration": 0.15883099999999928
                },
                {
                    "name": "F#3",
                    "midi": 54,
                    "time": 47.17280699999983,
                    "velocity": 0.1968503937007874,
                    "duration": 0.15883099999999928
                },
                {
                    "name": "B3",
                    "midi": 59,
                    "time": 47.33163799999983,
                    "velocity": 0.1968503937007874,
                    "duration": 0.15883099999999928
                },
                {
                    "name": "D#4",
                    "midi": 63,
                    "time": 47.49046899999983,
                    "velocity": 0.1889763779527559,
                    "duration": 0.15883099999999928
                },
                {
                    "name": "B2",
                    "midi": 47,
                    "time": 47.649299999999826,
                    "velocity": 0.2440944881889764,
                    "duration": 0.15883099999999928
                },
                {
                    "name": "F#3",
                    "midi": 54,
                    "time": 47.808130999999825,
                    "velocity": 0.2125984251968504,
                    "duration": 0.15883099999999928
                },
                {
                    "name": "A3",
                    "midi": 57,
                    "time": 47.966961999999825,
                    "velocity": 0.2283464566929134,
                    "duration": 0.15883099999999928
                },
                {
                    "name": "B3",
                    "midi": 59,
                    "time": 48.125792999999824,
                    "velocity": 0.25196850393700787,
                    "duration": 0.15883099999999928
                },
                {
                    "name": "B2",
                    "midi": 47,
                    "time": 48.28462399999982,
                    "velocity": 0.31496062992125984,
                    "duration": 0.15883099999999928
                },
                {
                    "name": "E3",
                    "midi": 52,
                    "time": 48.44345499999982,
                    "velocity": 0.2047244094488189,
                    "duration": 0.15883099999999928
                },
                {
                    "name": "G#3",
                    "midi": 56,
                    "time": 48.60228599999982,
                    "velocity": 0.2283464566929134,
                    "duration": 0.15883099999999928
                },
                {
                    "name": "B3",
                    "midi": 59,
                    "time": 48.76111699999982,
                    "velocity": 0.2440944881889764,
                    "duration": 0.15883099999999928
                },
                {
                    "name": "B2",
                    "midi": 47,
                    "time": 48.91994799999982,
                    "velocity": 0.2992125984251969,
                    "duration": 0.15883099999999928
                },
                {
                    "name": "D#3",
                    "midi": 51,
                    "time": 49.07877899999982,
                    "velocity": 0.1968503937007874,
                    "duration": 0.15883099999999928
                },
                {
                    "name": "A3",
                    "midi": 57,
                    "time": 49.23760999999982,
                    "velocity": 0.23622047244094488,
                    "duration": 0.15883099999999928
                },
                {
                    "name": "B3",
                    "midi": 59,
                    "time": 49.39644099999982,
                    "velocity": 0.2047244094488189,
                    "duration": 0.15883099999999928
                },
                {
                    "name": "B2",
                    "midi": 47,
                    "time": 49.55527199999982,
                    "velocity": 0.25984251968503935,
                    "duration": 0.15883099999999928
                },
                {
                    "name": "E3",
                    "midi": 52,
                    "time": 49.71410299999982,
                    "velocity": 0.2283464566929134,
                    "duration": 0.15883099999999928
                },
                {
                    "name": "G#3",
                    "midi": 56,
                    "time": 49.872933999999816,
                    "velocity": 0.2440944881889764,
                    "duration": 0.15883099999999928
                },
                {
                    "name": "B3",
                    "midi": 59,
                    "time": 50.031764999999815,
                    "velocity": 0.28346456692913385,
                    "duration": 0.15883099999999928
                },
                {
                    "name": "F#3",
                    "midi": 54,
                    "time": 50.190595999999815,
                    "velocity": 0.33070866141732286,
                    "duration": 0.15883099999999928
                },
                {
                    "name": "C#4",
                    "midi": 61,
                    "time": 50.349426999999814,
                    "velocity": 0.23622047244094488,
                    "duration": 0.15883099999999928
                },
                {
                    "name": "E4",
                    "midi": 64,
                    "time": 50.50825799999981,
                    "velocity": 0.25196850393700787,
                    "duration": 0.15883099999999928
                },
                {
                    "name": "F#4",
                    "midi": 66,
                    "time": 50.66708899999981,
                    "velocity": 0.2283464566929134,
                    "duration": 0.15883099999999928
                },
                {
                    "name": "F#3",
                    "midi": 54,
                    "time": 50.82591999999981,
                    "velocity": 0.2755905511811024,
                    "duration": 0.15883099999999928
                },
                {
                    "name": "B3",
                    "midi": 59,
                    "time": 50.98475099999981,
                    "velocity": 0.2047244094488189,
                    "duration": 0.15883099999999928
                },
                {
                    "name": "D#4",
                    "midi": 63,
                    "time": 51.14358199999981,
                    "velocity": 0.2047244094488189,
                    "duration": 0.15883099999999928
                },
                {
                    "name": "F#4",
                    "midi": 66,
                    "time": 51.30241299999981,
                    "velocity": 0.1968503937007874,
                    "duration": 0.15883099999999928
                },
                {
                    "name": "F#3",
                    "midi": 54,
                    "time": 51.46124399999981,
                    "velocity": 0.25196850393700787,
                    "duration": 0.15883099999999928
                },
                {
                    "name": "A#3",
                    "midi": 58,
                    "time": 51.62007499999981,
                    "velocity": 0.1968503937007874,
                    "duration": 0.15883099999999928
                },
                {
                    "name": "E4",
                    "midi": 64,
                    "time": 51.77890599999981,
                    "velocity": 0.1968503937007874,
                    "duration": 0.15883099999999928
                },
                {
                    "name": "F#4",
                    "midi": 66,
                    "time": 51.93773699999981,
                    "velocity": 0.18110236220472442,
                    "duration": 0.15883099999999928
                },
                {
                    "name": "F#3",
                    "midi": 54,
                    "time": 52.096567999999806,
                    "velocity": 0.25984251968503935,
                    "duration": 0.15883099999999928
                },
                {
                    "name": "B3",
                    "midi": 59,
                    "time": 52.255398999999805,
                    "velocity": 0.2992125984251969,
                    "duration": 0.15883099999999928
                },
                {
                    "name": "D#4",
                    "midi": 63,
                    "time": 52.414229999999804,
                    "velocity": 0.30708661417322836,
                    "duration": 0.15883099999999928
                },
                {
                    "name": "F#4",
                    "midi": 66,
                    "time": 52.573060999999804,
                    "velocity": 0.3779527559055118,
                    "duration": 0.15883099999999928
                },
                {
                    "name": "B3",
                    "midi": 59,
                    "time": 52.7318919999998,
                    "velocity": 0.4251968503937008,
                    "duration": 0.15883099999999928
                },
                {
                    "name": "C#4",
                    "midi": 61,
                    "time": 52.8907229999998,
                    "velocity": 0.2755905511811024,
                    "duration": 0.15883099999999928
                },
                {
                    "name": "G#4",
                    "midi": 68,
                    "time": 53.0495539999998,
                    "velocity": 0.31496062992125984,
                    "duration": 0.15883099999999928
                },
                {
                    "name": "B4",
                    "midi": 71,
                    "time": 53.2083849999998,
                    "velocity": 0.25984251968503935,
                    "duration": 0.15883099999999928
                },
                {
                    "name": "B3",
                    "midi": 59,
                    "time": 53.3672159999998,
                    "velocity": 0.33070866141732286,
                    "duration": 0.15883099999999928
                },
                {
                    "name": "C#4",
                    "midi": 61,
                    "time": 53.5260469999998,
                    "velocity": 0.2283464566929134,
                    "duration": 0.15883099999999928
                },
                {
                    "name": "G#4",
                    "midi": 68,
                    "time": 53.6848779999998,
                    "velocity": 0.2283464566929134,
                    "duration": 0.15883099999999928
                },
                {
                    "name": "B4",
                    "midi": 71,
                    "time": 53.8437089999998,
                    "velocity": 0.2283464566929134,
                    "duration": 0.15883099999999928
                },
                {
                    "name": "B3",
                    "midi": 59,
                    "time": 54.0025399999998,
                    "velocity": 0.2992125984251969,
                    "duration": 0.15883099999999928
                },
                {
                    "name": "C#4",
                    "midi": 61,
                    "time": 54.1613709999998,
                    "velocity": 0.2047244094488189,
                    "duration": 0.15883099999999928
                },
                {
                    "name": "G#4",
                    "midi": 68,
                    "time": 54.320201999999796,
                    "velocity": 0.2047244094488189,
                    "duration": 0.15883099999999928
                },
                {
                    "name": "B4",
                    "midi": 71,
                    "time": 54.479032999999795,
                    "velocity": 0.2047244094488189,
                    "duration": 0.15883099999999928
                },
                {
                    "name": "B3",
                    "midi": 59,
                    "time": 54.637863999999794,
                    "velocity": 0.2755905511811024,
                    "duration": 0.15883099999999928
                },
                {
                    "name": "C#4",
                    "midi": 61,
                    "time": 54.796694999999794,
                    "velocity": 0.2125984251968504,
                    "duration": 0.15883099999999928
                },
                {
                    "name": "G#4",
                    "midi": 68,
                    "time": 54.95552599999979,
                    "velocity": 0.2125984251968504,
                    "duration": 0.15883099999999928
                },
                {
                    "name": "B4",
                    "midi": 71,
                    "time": 55.11435699999979,
                    "velocity": 0.2125984251968504,
                    "duration": 0.15883099999999928
                },
                {
                    "name": "B3",
                    "midi": 59,
                    "time": 55.27318799999979,
                    "velocity": 0.2755905511811024,
                    "duration": 0.15883099999999928
                },
                {
                    "name": "C#4",
                    "midi": 61,
                    "time": 55.43201899999979,
                    "velocity": 0.14173228346456693,
                    "duration": 0.15883099999999928
                },
                {
                    "name": "G#4",
                    "midi": 68,
                    "time": 55.59084999999979,
                    "velocity": 0.14960629921259844,
                    "duration": 0.15883099999999928
                },
                {
                    "name": "B4",
                    "midi": 71,
                    "time": 55.74968099999979,
                    "velocity": 0.15748031496062992,
                    "duration": 0.15883099999999928
                },
                {
                    "name": "B3",
                    "midi": 59,
                    "time": 55.90851199999979,
                    "velocity": 0.2283464566929134,
                    "duration": 0.15883099999999928
                },
                {
                    "name": "C#4",
                    "midi": 61,
                    "time": 56.06734299999979,
                    "velocity": 0.15748031496062992,
                    "duration": 0.15883099999999928
                },
                {
                    "name": "G#4",
                    "midi": 68,
                    "time": 56.22617399999979,
                    "velocity": 0.15748031496062992,
                    "duration": 0.15883099999999928
                },
                {
                    "name": "B4",
                    "midi": 71,
                    "time": 56.385004999999786,
                    "velocity": 0.15748031496062992,
                    "duration": 0.15883099999999928
                },
                {
                    "name": "B3",
                    "midi": 59,
                    "time": 56.543835999999786,
                    "velocity": 0.2047244094488189,
                    "duration": 0.15883099999999928
                },
                {
                    "name": "C#4",
                    "midi": 61,
                    "time": 56.702666999999785,
                    "velocity": 0.14173228346456693,
                    "duration": 0.15883099999999928
                },
                {
                    "name": "G#4",
                    "midi": 68,
                    "time": 56.861497999999784,
                    "velocity": 0.14173228346456693,
                    "duration": 0.15883099999999928
                },
                {
                    "name": "B4",
                    "midi": 71,
                    "time": 57.02032899999978,
                    "velocity": 0.14173228346456693,
                    "duration": 0.15883099999999928
                },
                {
                    "name": "B3",
                    "midi": 59,
                    "time": 57.17915999999978,
                    "velocity": 0.1889763779527559,
                    "duration": 0.15883099999999928
                },
                {
                    "name": "C#4",
                    "midi": 61,
                    "time": 57.33799099999978,
                    "velocity": 0.14173228346456693,
                    "duration": 0.15883099999999928
                },
                {
                    "name": "G#4",
                    "midi": 68,
                    "time": 57.49682199999978,
                    "velocity": 0.14173228346456693,
                    "duration": 0.15883099999999928
                },
                {
                    "name": "B4",
                    "midi": 71,
                    "time": 57.65565299999978,
                    "velocity": 0.14173228346456693,
                    "duration": 0.15883099999999928
                },
                {
                    "name": "B3",
                    "midi": 59,
                    "time": 57.81448399999978,
                    "velocity": 0.2440944881889764,
                    "duration": 0.15883099999999928
                },
                {
                    "name": "C#4",
                    "midi": 61,
                    "time": 57.97331499999978,
                    "velocity": 0.2047244094488189,
                    "duration": 0.15883099999999928
                },
                {
                    "name": "G#4",
                    "midi": 68,
                    "time": 58.13214599999978,
                    "velocity": 0.1968503937007874,
                    "duration": 0.15883099999999928
                },
                {
                    "name": "B4",
                    "midi": 71,
                    "time": 58.29097699999978,
                    "velocity": 0.18110236220472442,
                    "duration": 0.15883099999999928
                },
                {
                    "name": "A#3",
                    "midi": 58,
                    "time": 58.44980799999978,
                    "velocity": 0.2283464566929134,
                    "duration": 0.15883099999999928
                },
                {
                    "name": "C#4",
                    "midi": 61,
                    "time": 58.608638999999776,
                    "velocity": 0.1968503937007874,
                    "duration": 0.15883099999999928
                },
                {
                    "name": "F#4",
                    "midi": 66,
                    "time": 58.767469999999776,
                    "velocity": 0.2283464566929134,
                    "duration": 0.15883099999999928
                },
                {
                    "name": "A#4",
                    "midi": 70,
                    "time": 58.926300999999775,
                    "velocity": 0.1968503937007874,
                    "duration": 0.15883099999999928
                },
                {
                    "name": "F#3",
                    "midi": 54,
                    "time": 59.085131999999774,
                    "velocity": 0.25196850393700787,
                    "duration": 0.15883099999999928
                },
                {
                    "name": "C#4",
                    "midi": 61,
                    "time": 59.24396299999977,
                    "velocity": 0.1968503937007874,
                    "duration": 0.15883099999999928
                },
                {
                    "name": "E4",
                    "midi": 64,
                    "time": 59.40279399999977,
                    "velocity": 0.1968503937007874,
                    "duration": 0.15883099999999928
                },
                {
                    "name": "F#4",
                    "midi": 66,
                    "time": 59.56162499999977,
                    "velocity": 0.18110236220472442,
                    "duration": 0.15883099999999928
                },
                {
                    "name": "F#3",
                    "midi": 54,
                    "time": 59.72045599999977,
                    "velocity": 0.2283464566929134,
                    "duration": 0.15883099999999928
                },
                {
                    "name": "B3",
                    "midi": 59,
                    "time": 59.87928699999977,
                    "velocity": 0.1968503937007874,
                    "duration": 0.15883099999999928
                },
                {
                    "name": "D#4",
                    "midi": 63,
                    "time": 60.03811799999977,
                    "velocity": 0.1968503937007874,
                    "duration": 0.15883099999999928
                },
                {
                    "name": "F#4",
                    "midi": 66,
                    "time": 60.19694899999977,
                    "velocity": 0.1889763779527559,
                    "duration": 0.15883099999999928
                },
                {
                    "name": "G#3",
                    "midi": 56,
                    "time": 60.51461099999977,
                    "velocity": 0.2047244094488189,
                    "duration": 0.15883099999999928
                },
                {
                    "name": "C#4",
                    "midi": 61,
                    "time": 60.67344199999977,
                    "velocity": 0.1968503937007874,
                    "duration": 0.15883099999999928
                },
                {
                    "name": "E4",
                    "midi": 64,
                    "time": 60.832272999999766,
                    "velocity": 0.18110236220472442,
                    "duration": 0.15883099999999928
                },
                {
                    "name": "B3",
                    "midi": 59,
                    "time": 61.149934999999765,
                    "velocity": 0.2047244094488189,
                    "duration": 0.15883099999999928
                },
                {
                    "name": "D#4",
                    "midi": 63,
                    "time": 61.308765999999764,
                    "velocity": 0.2047244094488189,
                    "duration": 0.15883099999999928
                },
                {
                    "name": "F#4",
                    "midi": 66,
                    "time": 61.46759699999976,
                    "velocity": 0.1968503937007874,
                    "duration": 0.15883099999999928
                },
                {
                    "name": "F#3",
                    "midi": 54,
                    "time": 61.62642799999976,
                    "velocity": 0.25196850393700787,
                    "duration": 0.15883099999999928
                },
                {
                    "name": "B3",
                    "midi": 59,
                    "time": 61.78525899999976,
                    "velocity": 0.1968503937007874,
                    "duration": 0.15883099999999928
                },
                {
                    "name": "D#4",
                    "midi": 63,
                    "time": 61.94408999999976,
                    "velocity": 0.1968503937007874,
                    "duration": 0.15883099999999928
                },
                {
                    "name": "F#4",
                    "midi": 66,
                    "time": 62.10292099999976,
                    "velocity": 0.18110236220472442,
                    "duration": 0.15883099999999928
                },
                {
                    "name": "F#3",
                    "midi": 54,
                    "time": 62.26175199999976,
                    "velocity": 0.2283464566929134,
                    "duration": 0.15883099999999928
                },
                {
                    "name": "C#4",
                    "midi": 61,
                    "time": 62.42058299999976,
                    "velocity": 0.2440944881889764,
                    "duration": 0.15883099999999928
                },
                {
                    "name": "E4",
                    "midi": 64,
                    "time": 62.57941399999976,
                    "velocity": 0.2992125984251969,
                    "duration": 0.15883099999999928
                },
                {
                    "name": "F#4",
                    "midi": 66,
                    "time": 62.73824499999976,
                    "velocity": 0.3464566929133858,
                    "duration": 0.15883099999999928
                },
                {
                    "name": "F#3",
                    "midi": 54,
                    "time": 62.89707599999976,
                    "velocity": 0.3858267716535433,
                    "duration": 0.15883099999999928
                },
                {
                    "name": "C#4",
                    "midi": 61,
                    "time": 63.055906999999756,
                    "velocity": 0.25984251968503935,
                    "duration": 0.15883099999999928
                },
                {
                    "name": "E4",
                    "midi": 64,
                    "time": 63.214737999999755,
                    "velocity": 0.3228346456692913,
                    "duration": 0.15883099999999928
                },
                {
                    "name": "F#4",
                    "midi": 66,
                    "time": 63.373568999999755,
                    "velocity": 0.2440944881889764,
                    "duration": 0.15883099999999928
                },
                {
                    "name": "F#3",
                    "midi": 54,
                    "time": 63.532399999999754,
                    "velocity": 0.25196850393700787,
                    "duration": 0.15883099999999928
                },
                {
                    "name": "C4",
                    "midi": 60,
                    "time": 63.69123099999975,
                    "velocity": 0.2047244094488189,
                    "duration": 0.15883099999999928
                },
                {
                    "name": "D#4",
                    "midi": 63,
                    "time": 63.85006199999975,
                    "velocity": 0.23622047244094488,
                    "duration": 0.15883100000000638
                },
                {
                    "name": "F#4",
                    "midi": 66,
                    "time": 64.00889299999976,
                    "velocity": 0.2992125984251969,
                    "duration": 0.15883100000000638
                },
                {
                    "name": "F#3",
                    "midi": 54,
                    "time": 64.16772399999977,
                    "velocity": 0.3228346456692913,
                    "duration": 0.15883100000000638
                },
                {
                    "name": "C4",
                    "midi": 60,
                    "time": 64.32655499999977,
                    "velocity": 0.1968503937007874,
                    "duration": 0.15883100000000638
                },
                {
                    "name": "D#4",
                    "midi": 63,
                    "time": 64.48538599999978,
                    "velocity": 0.1968503937007874,
                    "duration": 0.15883100000000638
                },
                {
                    "name": "F#4",
                    "midi": 66,
                    "time": 64.64421699999978,
                    "velocity": 0.18110236220472442,
                    "duration": 0.15883100000000638
                },
                {
                    "name": "E3",
                    "midi": 52,
                    "time": 64.80304799999979,
                    "velocity": 0.2283464566929134,
                    "duration": 0.15883100000000638
                },
                {
                    "name": "G#3",
                    "midi": 56,
                    "time": 64.9618789999998,
                    "velocity": 0.1968503937007874,
                    "duration": 0.15883100000000638
                },
                {
                    "name": "C#4",
                    "midi": 61,
                    "time": 65.1207099999998,
                    "velocity": 0.1968503937007874,
                    "duration": 0.15883100000000638
                },
                {
                    "name": "E4",
                    "midi": 64,
                    "time": 65.27954099999981,
                    "velocity": 0.1889763779527559,
                    "duration": 0.14559508333333326
                },
                {
                    "name": "E3",
                    "midi": 52,
                    "time": 65.43837199999982,
                    "velocity": 0.2440944881889764,
                    "duration": 0.15883100000000638
                },
                {
                    "name": "G#3",
                    "midi": 56,
                    "time": 65.59720299999982,
                    "velocity": 0.23622047244094488,
                    "duration": 0.15883100000000638
                },
                {
                    "name": "C#4",
                    "midi": 61,
                    "time": 65.75603399999983,
                    "velocity": 0.25984251968503935,
                    "duration": 0.15883100000000638
                },
                {
                    "name": "E4",
                    "midi": 64,
                    "time": 65.91486499999984,
                    "velocity": 0.2992125984251969,
                    "duration": 0.15883100000000638
                },
                {
                    "name": "E3",
                    "midi": 52,
                    "time": 66.07369599999984,
                    "velocity": 0.3543307086614173,
                    "duration": 0.15883100000000638
                },
                {
                    "name": "A#3",
                    "midi": 58,
                    "time": 66.23252699999985,
                    "velocity": 0.23622047244094488,
                    "duration": 0.15883100000000638
                },
                {
                    "name": "E4",
                    "midi": 64,
                    "time": 66.39135799999985,
                    "velocity": 0.25196850393700787,
                    "duration": 0.15883100000000638
                },
                {
                    "name": "F#4",
                    "midi": 66,
                    "time": 66.55018899999986,
                    "velocity": 0.3228346456692913,
                    "duration": 0.15883100000000638
                },
                {
                    "name": "E3",
                    "midi": 52,
                    "time": 66.70901999999987,
                    "velocity": 0.36220472440944884,
                    "duration": 0.15883100000000638
                },
                {
                    "name": "B3",
                    "midi": 59,
                    "time": 66.86785099999987,
                    "velocity": 0.25984251968503935,
                    "duration": 0.15883100000000638
                },
                {
                    "name": "E4",
                    "midi": 64,
                    "time": 67.02668199999988,
                    "velocity": 0.33858267716535434,
                    "duration": 0.15883100000000638
                },
                {
                    "name": "F#4",
                    "midi": 66,
                    "time": 67.18551299999989,
                    "velocity": 0.41732283464566927,
                    "duration": 0.15883100000000638
                },
                {
                    "name": "F#3",
                    "midi": 54,
                    "time": 67.3443439999999,
                    "velocity": 0.4566929133858268,
                    "duration": 0.15883100000000638
                },
                {
                    "name": "C#4",
                    "midi": 61,
                    "time": 67.5031749999999,
                    "velocity": 0.31496062992125984,
                    "duration": 0.15883100000000638
                },
                {
                    "name": "E4",
                    "midi": 64,
                    "time": 67.6620059999999,
                    "velocity": 0.36220472440944884,
                    "duration": 0.15883100000000638
                },
                {
                    "name": "F#4",
                    "midi": 66,
                    "time": 67.82083699999991,
                    "velocity": 0.2992125984251969,
                    "duration": 0.15883100000000638
                },
                {
                    "name": "F#3",
                    "midi": 54,
                    "time": 67.97966799999992,
                    "velocity": 0.31496062992125984,
                    "duration": 0.15883100000000638
                },
                {
                    "name": "A#3",
                    "midi": 58,
                    "time": 68.13849899999992,
                    "velocity": 0.25196850393700787,
                    "duration": 0.15883100000000638
                },
                {
                    "name": "E4",
                    "midi": 64,
                    "time": 68.29732999999993,
                    "velocity": 0.2440944881889764,
                    "duration": 0.15883100000000638
                },
                {
                    "name": "F#4",
                    "midi": 66,
                    "time": 68.45616099999994,
                    "velocity": 0.2204724409448819,
                    "duration": 0.15883100000000638
                },
                {
                    "name": "F#3",
                    "midi": 54,
                    "time": 68.61499199999994,
                    "velocity": 0.28346456692913385,
                    "duration": 0.15883100000000638
                },
                {
                    "name": "B3",
                    "midi": 59,
                    "time": 68.77382299999995,
                    "velocity": 0.25196850393700787,
                    "duration": 0.15883100000000638
                },
                {
                    "name": "D#4",
                    "midi": 63,
                    "time": 68.93265399999996,
                    "velocity": 0.25196850393700787,
                    "duration": 0.15883100000000638
                },
                {
                    "name": "F#4",
                    "midi": 66,
                    "time": 69.09148499999996,
                    "velocity": 0.2440944881889764,
                    "duration": 0.15883100000000638
                },
                {
                    "name": "F#3",
                    "midi": 54,
                    "time": 69.25031599999997,
                    "velocity": 0.31496062992125984,
                    "duration": 0.15883100000000638
                },
                {
                    "name": "B3",
                    "midi": 59,
                    "time": 69.40914699999998,
                    "velocity": 0.2440944881889764,
                    "duration": 0.15883100000000638
                },
                {
                    "name": "D#4",
                    "midi": 63,
                    "time": 69.56797799999998,
                    "velocity": 0.2440944881889764,
                    "duration": 0.15883100000000638
                },
                {
                    "name": "F#4",
                    "midi": 66,
                    "time": 69.72680899999999,
                    "velocity": 0.2204724409448819,
                    "duration": 0.15883100000000638
                },
                {
                    "name": "D#3",
                    "midi": 51,
                    "time": 69.88564,
                    "velocity": 0.28346456692913385,
                    "duration": 0.15883100000000638
                },
                {
                    "name": "F#3",
                    "midi": 54,
                    "time": 70.044471,
                    "velocity": 0.2440944881889764,
                    "duration": 0.15883100000000638
                },
                {
                    "name": "B3",
                    "midi": 59,
                    "time": 70.20330200000001,
                    "velocity": 0.2440944881889764,
                    "duration": 0.15883100000000638
                },
                {
                    "name": "D#4",
                    "midi": 63,
                    "time": 70.36213300000001,
                    "velocity": 0.23622047244094488,
                    "duration": 0.15883100000000638
                },
                {
                    "name": "D#3",
                    "midi": 51,
                    "time": 70.52096400000002,
                    "velocity": 0.2440944881889764,
                    "duration": 0.15883100000000638
                },
                {
                    "name": "F#3",
                    "midi": 54,
                    "time": 70.67979500000003,
                    "velocity": 0.2047244094488189,
                    "duration": 0.15883100000000638
                },
                {
                    "name": "B3",
                    "midi": 59,
                    "time": 70.83862600000003,
                    "velocity": 0.25196850393700787,
                    "duration": 0.15883100000000638
                },
                {
                    "name": "D#4",
                    "midi": 63,
                    "time": 70.99745700000004,
                    "velocity": 0.2677165354330709,
                    "duration": 0.15883100000000638
                },
                {
                    "name": "B2",
                    "midi": 47,
                    "time": 71.15628800000005,
                    "velocity": 0.31496062992125984,
                    "duration": 0.15883100000000638
                },
                {
                    "name": "E3",
                    "midi": 52,
                    "time": 71.31511900000005,
                    "velocity": 0.2047244094488189,
                    "duration": 0.15883100000000638
                },
                {
                    "name": "G3",
                    "midi": 55,
                    "time": 71.47395000000006,
                    "velocity": 0.2047244094488189,
                    "duration": 0.15883100000000638
                },
                {
                    "name": "B3",
                    "midi": 59,
                    "time": 71.63278100000007,
                    "velocity": 0.2047244094488189,
                    "duration": 0.15883100000000638
                },
                {
                    "name": "B2",
                    "midi": 47,
                    "time": 71.79161200000007,
                    "velocity": 0.25984251968503935,
                    "duration": 0.15883100000000638
                },
                {
                    "name": "E3",
                    "midi": 52,
                    "time": 71.95044300000008,
                    "velocity": 0.2047244094488189,
                    "duration": 0.15883100000000638
                },
                {
                    "name": "G3",
                    "midi": 55,
                    "time": 72.10927400000008,
                    "velocity": 0.2125984251968504,
                    "duration": 0.15883100000000638
                },
                {
                    "name": "B3",
                    "midi": 59,
                    "time": 72.26810500000009,
                    "velocity": 0.1968503937007874,
                    "duration": 0.15883100000000638
                },
                {
                    "name": "C3",
                    "midi": 48,
                    "time": 72.4269360000001,
                    "velocity": 0.28346456692913385,
                    "duration": 0.15883100000000638
                },
                {
                    "name": "D3",
                    "midi": 50,
                    "time": 72.5857670000001,
                    "velocity": 0.23622047244094488,
                    "duration": 0.15883100000000638
                },
                {
                    "name": "A3",
                    "midi": 57,
                    "time": 72.74459800000011,
                    "velocity": 0.2992125984251969,
                    "duration": 0.15883100000000638
                },
                {
                    "name": "C4",
                    "midi": 60,
                    "time": 72.90342900000012,
                    "velocity": 0.4015748031496063,
                    "duration": 0.15883100000000638
                },
                {
                    "name": "F#3",
                    "midi": 54,
                    "time": 73.22109100000013,
                    "velocity": 0.28346456692913385,
                    "duration": 0.15883100000000638
                },
                {
                    "name": "C4",
                    "midi": 60,
                    "time": 73.37992200000014,
                    "velocity": 0.36220472440944884,
                    "duration": 0.15883100000000638
                },
                {
                    "name": "D4",
                    "midi": 62,
                    "time": 73.53875300000014,
                    "velocity": 0.2125984251968504,
                    "duration": 0.15883100000000638
                },
                {
                    "name": "D3",
                    "midi": 50,
                    "time": 73.69758400000015,
                    "velocity": 0.3858267716535433,
                    "duration": 0.15883100000000638
                },
                {
                    "name": "G3",
                    "midi": 55,
                    "time": 73.85641500000015,
                    "velocity": 0.25196850393700787,
                    "duration": 0.15883100000000638
                },
                {
                    "name": "B3",
                    "midi": 59,
                    "time": 74.01524600000016,
                    "velocity": 0.25196850393700787,
                    "duration": 0.15883100000000638
                },
                {
                    "name": "D4",
                    "midi": 62,
                    "time": 74.17407700000017,
                    "velocity": 0.2440944881889764,
                    "duration": 0.15883100000000638
                },
                {
                    "name": "E3",
                    "midi": 52,
                    "time": 74.33290800000017,
                    "velocity": 0.3228346456692913,
                    "duration": 0.15883100000000638
                },
                {
                    "name": "G3",
                    "midi": 55,
                    "time": 74.49173900000018,
                    "velocity": 0.25196850393700787,
                    "duration": 0.15883100000000638
                },
                {
                    "name": "B3",
                    "midi": 59,
                    "time": 74.65057000000019,
                    "velocity": 0.25984251968503935,
                    "duration": 0.15883100000000638
                },
                {
                    "name": "E4",
                    "midi": 64,
                    "time": 74.8094010000002,
                    "velocity": 0.23622047244094488,
                    "duration": 0.15883100000000638
                },
                {
                    "name": "E3",
                    "midi": 52,
                    "time": 74.9682320000002,
                    "velocity": 0.3464566929133858,
                    "duration": 0.15883100000000638
                },
                {
                    "name": "A3",
                    "midi": 57,
                    "time": 75.1270630000002,
                    "velocity": 0.28346456692913385,
                    "duration": 0.15883100000000638
                },
                {
                    "name": "C4",
                    "midi": 60,
                    "time": 75.28589400000021,
                    "velocity": 0.36220472440944884,
                    "duration": 0.15883100000000638
                },
                {
                    "name": "E4",
                    "midi": 64,
                    "time": 75.44472500000022,
                    "velocity": 0.33070866141732286,
                    "duration": 0.15883100000000638
                },
                {
                    "name": "D#3",
                    "midi": 51,
                    "time": 75.60355600000022,
                    "velocity": 0.36220472440944884,
                    "duration": 0.15883100000000638
                },
                {
                    "name": "A3",
                    "midi": 57,
                    "time": 75.76238700000023,
                    "velocity": 0.3464566929133858,
                    "duration": 0.15883100000000638
                },
                {
                    "name": "C4",
                    "midi": 60,
                    "time": 75.92121800000024,
                    "velocity": 0.4330708661417323,
                    "duration": 0.15883100000000638
                },
                {
                    "name": "F#4",
                    "midi": 66,
                    "time": 76.08004900000024,
                    "velocity": 0.25984251968503935,
                    "duration": 0.15883100000000638
                },
                {
                    "name": "D3",
                    "midi": 50,
                    "time": 76.23888000000025,
                    "velocity": 0.4566929133858268,
                    "duration": 0.15883100000000638
                },
                {
                    "name": "G3",
                    "midi": 55,
                    "time": 76.39771100000026,
                    "velocity": 0.2992125984251969,
                    "duration": 0.15883100000000638
                },
                {
                    "name": "D4",
                    "midi": 62,
                    "time": 76.55654200000026,
                    "velocity": 0.2992125984251969,
                    "duration": 0.15883100000000638
                },
                {
                    "name": "G4",
                    "midi": 67,
                    "time": 76.71537300000027,
                    "velocity": 0.29133858267716534,
                    "duration": 0.15883100000000638
                },
                {
                    "name": "G3",
                    "midi": 55,
                    "time": 76.87420400000028,
                    "velocity": 0.3779527559055118,
                    "duration": 0.15883100000000638
                },
                {
                    "name": "B3",
                    "midi": 59,
                    "time": 77.03303500000028,
                    "velocity": 0.2992125984251969,
                    "duration": 0.15883100000000638
                },
                {
                    "name": "D4",
                    "midi": 62,
                    "time": 77.19186600000029,
                    "velocity": 0.2992125984251969,
                    "duration": 0.15883100000000638
                },
                {
                    "name": "G4",
                    "midi": 67,
                    "time": 77.3506970000003,
                    "velocity": 0.2755905511811024,
                    "duration": 0.15883100000000638
                },
                {
                    "name": "G3",
                    "midi": 55,
                    "time": 77.5095280000003,
                    "velocity": 0.4094488188976378,
                    "duration": 0.15883100000000638
                },
                {
                    "name": "E4",
                    "midi": 64,
                    "time": 77.66835900000031,
                    "velocity": 0.3543307086614173,
                    "duration": 0.15883100000000638
                },
                {
                    "name": "G4",
                    "midi": 67,
                    "time": 77.82719000000031,
                    "velocity": 0.4251968503937008,
                    "duration": 0.15883100000000638
                },
                {
                    "name": "C5",
                    "midi": 72,
                    "time": 77.98602100000032,
                    "velocity": 0.49606299212598426,
                    "duration": 0.15883100000000638
                },
                {
                    "name": "G3",
                    "midi": 55,
                    "time": 78.14485200000033,
                    "velocity": 0.4409448818897638,
                    "duration": 0.15883100000000638
                },
                {
                    "name": "E4",
                    "midi": 64,
                    "time": 78.30368300000033,
                    "velocity": 0.4094488188976378,
                    "duration": 0.15883100000000638
                },
                {
                    "name": "G4",
                    "midi": 67,
                    "time": 78.46251400000034,
                    "velocity": 0.4409448818897638,
                    "duration": 0.15883100000000638
                },
                {
                    "name": "C5",
                    "midi": 72,
                    "time": 78.62134500000035,
                    "velocity": 0.30708661417322836,
                    "duration": 0.15883100000000638
                },
                {
                    "name": "F#3",
                    "midi": 54,
                    "time": 78.78017600000035,
                    "velocity": 0.4094488188976378,
                    "duration": 0.15883100000000638
                },
                {
                    "name": "C4",
                    "midi": 60,
                    "time": 78.93900700000036,
                    "velocity": 0.3543307086614173,
                    "duration": 0.15883100000000638
                },
                {
                    "name": "D4",
                    "midi": 62,
                    "time": 79.09783800000037,
                    "velocity": 0.4251968503937008,
                    "duration": 0.15883100000000638
                },
                {
                    "name": "A4",
                    "midi": 69,
                    "time": 79.25666900000037,
                    "velocity": 0.3937007874015748,
                    "duration": 0.15883100000000638
                },
                {
                    "name": "G3",
                    "midi": 55,
                    "time": 79.41550000000038,
                    "velocity": 0.4409448818897638,
                    "duration": 0.15883100000000638
                },
                {
                    "name": "C4",
                    "midi": 60,
                    "time": 79.57433100000038,
                    "velocity": 0.4094488188976378,
                    "duration": 0.15883100000000638
                },
                {
                    "name": "D4",
                    "midi": 62,
                    "time": 79.73316200000039,
                    "velocity": 0.4409448818897638,
                    "duration": 0.15883100000000638
                },
                {
                    "name": "G4",
                    "midi": 67,
                    "time": 79.8919930000004,
                    "velocity": 0.30708661417322836,
                    "duration": 0.15883100000000638
                },
                {
                    "name": "D4",
                    "midi": 62,
                    "time": 80.0508240000004,
                    "velocity": 0.4881889763779528,
                    "duration": 0.6353239999999971
                },
                {
                    "name": "C4",
                    "midi": 60,
                    "time": 80.0508240000004,
                    "velocity": 0.4094488188976378,
                    "duration": 0.6353239999999971
                },
                {
                    "name": "A3",
                    "midi": 57,
                    "time": 80.0508240000004,
                    "velocity": 0.4094488188976378,
                    "duration": 0.6353239999999971
                },
                {
                    "name": "F#3",
                    "midi": 54,
                    "time": 80.0508240000004,
                    "velocity": 0.4094488188976378,
                    "duration": 0.6353239999999971
                },
                {
                    "name": "B3",
                    "midi": 59,
                    "time": 84.0215990000004,
                    "velocity": 0.2047244094488189,
                    "duration": 0.15883100000000638
                },
                {
                    "name": "D4",
                    "midi": 62,
                    "time": 84.18043000000041,
                    "velocity": 0.2047244094488189,
                    "duration": 0.15883100000000638
                },
                {
                    "name": "G4",
                    "midi": 67,
                    "time": 84.33926100000042,
                    "velocity": 0.1968503937007874,
                    "duration": 0.15883100000000638
                },
                {
                    "name": "G3",
                    "midi": 55,
                    "time": 84.49809200000043,
                    "velocity": 0.25196850393700787,
                    "duration": 0.15883100000000638
                },
                {
                    "name": "B3",
                    "midi": 59,
                    "time": 84.65692300000043,
                    "velocity": 0.1968503937007874,
                    "duration": 0.15883100000000638
                },
                {
                    "name": "D4",
                    "midi": 62,
                    "time": 84.81575400000044,
                    "velocity": 0.1968503937007874,
                    "duration": 0.15883100000000638
                },
                {
                    "name": "G4",
                    "midi": 67,
                    "time": 84.97458500000045,
                    "velocity": 0.18110236220472442,
                    "duration": 0.15883100000000638
                },
                {
                    "name": "G3",
                    "midi": 55,
                    "time": 85.13341600000045,
                    "velocity": 0.25984251968503935,
                    "duration": 0.15883100000000638
                },
                {
                    "name": "A3",
                    "midi": 57,
                    "time": 85.29224700000046,
                    "velocity": 0.2125984251968504,
                    "duration": 0.15883100000000638
                },
                {
                    "name": "E4",
                    "midi": 64,
                    "time": 85.45107800000046,
                    "velocity": 0.2677165354330709,
                    "duration": 0.15883100000000638
                },
                {
                    "name": "G4",
                    "midi": 67,
                    "time": 85.60990900000047,
                    "velocity": 0.3464566929133858,
                    "duration": 0.15883100000000638
                },
                {
                    "name": "G3",
                    "midi": 55,
                    "time": 85.76874000000048,
                    "velocity": 0.41732283464566927,
                    "duration": 0.15883100000000638
                },
                {
                    "name": "A3",
                    "midi": 57,
                    "time": 85.92757100000048,
                    "velocity": 0.2440944881889764,
                    "duration": 0.15883100000000638
                },
                {
                    "name": "E4",
                    "midi": 64,
                    "time": 86.08640200000049,
                    "velocity": 0.30708661417322836,
                    "duration": 0.15883100000000638
                },
                {
                    "name": "G4",
                    "midi": 67,
                    "time": 86.2452330000005,
                    "velocity": 0.18110236220472442,
                    "duration": 0.15883100000000638
                },
                {
                    "name": "G3",
                    "midi": 55,
                    "time": 86.4040640000005,
                    "velocity": 0.2755905511811024,
                    "duration": 0.15883100000000638
                },
                {
                    "name": "B3",
                    "midi": 59,
                    "time": 86.56289500000051,
                    "velocity": 0.2047244094488189,
                    "duration": 0.15883100000000638
                },
                {
                    "name": "D4",
                    "midi": 62,
                    "time": 86.72172600000052,
                    "velocity": 0.2047244094488189,
                    "duration": 0.15883100000000638
                },
                {
                    "name": "G4",
                    "midi": 67,
                    "time": 86.88055700000052,
                    "velocity": 0.1968503937007874,
                    "duration": 0.15883100000000638
                },
                {
                    "name": "G3",
                    "midi": 55,
                    "time": 87.03938800000053,
                    "velocity": 0.25196850393700787,
                    "duration": 0.15883100000000638
                },
                {
                    "name": "B3",
                    "midi": 59,
                    "time": 87.19821900000053,
                    "velocity": 0.1968503937007874,
                    "duration": 0.15883100000000638
                },
                {
                    "name": "D4",
                    "midi": 62,
                    "time": 87.35705000000054,
                    "velocity": 0.1968503937007874,
                    "duration": 0.15883100000000638
                },
                {
                    "name": "G4",
                    "midi": 67,
                    "time": 87.51588100000055,
                    "velocity": 0.18110236220472442,
                    "duration": 0.15883100000000638
                },
                {
                    "name": "G3",
                    "midi": 55,
                    "time": 87.67471200000055,
                    "velocity": 0.25984251968503935,
                    "duration": 0.15883100000000638
                },
                {
                    "name": "A3",
                    "midi": 57,
                    "time": 87.83354300000056,
                    "velocity": 0.2125984251968504,
                    "duration": 0.15883100000000638
                },
                {
                    "name": "C#4",
                    "midi": 61,
                    "time": 87.99237400000057,
                    "velocity": 0.25984251968503935,
                    "duration": 0.15883100000000638
                },
                {
                    "name": "G4",
                    "midi": 67,
                    "time": 88.15120500000057,
                    "velocity": 0.31496062992125984,
                    "duration": 0.15883100000000638
                },
                {
                    "name": "A3",
                    "midi": 57,
                    "time": 88.31003600000058,
                    "velocity": 0.36220472440944884,
                    "duration": 0.15883100000000638
                },
                {
                    "name": "C4",
                    "midi": 60,
                    "time": 88.46886700000059,
                    "velocity": 0.2047244094488189,
                    "duration": 0.15883100000000638
                },
                {
                    "name": "D4",
                    "midi": 62,
                    "time": 88.62769800000059,
                    "velocity": 0.1968503937007874,
                    "duration": 0.15883100000000638
                },
                {
                    "name": "A4",
                    "midi": 69,
                    "time": 88.7865290000006,
                    "velocity": 0.18110236220472442,
                    "duration": 0.15883100000000638
                },
                {
                    "name": "B3",
                    "midi": 59,
                    "time": 89.10419100000061,
                    "velocity": 0.2047244094488189,
                    "duration": 0.15883100000000638
                },
                {
                    "name": "D4",
                    "midi": 62,
                    "time": 89.26302200000062,
                    "velocity": 0.2047244094488189,
                    "duration": 0.15883100000000638
                },
                {
                    "name": "G4",
                    "midi": 67,
                    "time": 89.42185300000062,
                    "velocity": 0.1968503937007874,
                    "duration": 0.15883100000000638
                },
                {
                    "name": "G3",
                    "midi": 55,
                    "time": 89.58068400000063,
                    "velocity": 0.25196850393700787,
                    "duration": 0.15883100000000638
                },
                {
                    "name": "B3",
                    "midi": 59,
                    "time": 89.73951500000064,
                    "velocity": 0.1968503937007874,
                    "duration": 0.15883100000000638
                },
                {
                    "name": "D4",
                    "midi": 62,
                    "time": 89.89834600000064,
                    "velocity": 0.1968503937007874,
                    "duration": 0.15883100000000638
                },
                {
                    "name": "G4",
                    "midi": 67,
                    "time": 90.05717700000065,
                    "velocity": 0.18110236220472442,
                    "duration": 0.15883100000000638
                },
                {
                    "name": "E3",
                    "midi": 52,
                    "time": 90.21600800000066,
                    "velocity": 0.25984251968503935,
                    "duration": 0.15883100000000638
                },
                {
                    "name": "A3",
                    "midi": 57,
                    "time": 90.37483900000066,
                    "velocity": 0.2125984251968504,
                    "duration": 0.15883100000000638
                },
                {
                    "name": "C4",
                    "midi": 60,
                    "time": 90.53367000000067,
                    "velocity": 0.25984251968503935,
                    "duration": 0.15883100000000638
                },
                {
                    "name": "E4",
                    "midi": 64,
                    "time": 90.69250100000068,
                    "velocity": 0.2440944881889764,
                    "duration": 0.15883100000000638
                },
                {
                    "name": "E3",
                    "midi": 52,
                    "time": 90.85133200000068,
                    "velocity": 0.29133858267716534,
                    "duration": 0.15883100000000638
                },
                {
                    "name": "A3",
                    "midi": 57,
                    "time": 91.01016300000069,
                    "velocity": 0.2047244094488189,
                    "duration": 0.15883100000000638
                },
                {
                    "name": "C4",
                    "midi": 60,
                    "time": 91.1689940000007,
                    "velocity": 0.1968503937007874,
                    "duration": 0.15883100000000638
                },
                {
                    "name": "E4",
                    "midi": 64,
                    "time": 91.3278250000007,
                    "velocity": 0.18110236220472442,
                    "duration": 0.15883100000000638
                },
                {
                    "name": "D#3",
                    "midi": 51,
                    "time": 91.4866560000007,
                    "velocity": 0.25196850393700787,
                    "duration": 0.15883100000000638
                },
                {
                    "name": "F#3",
                    "midi": 54,
                    "time": 91.64548700000071,
                    "velocity": 0.2047244094488189,
                    "duration": 0.15883100000000638
                },
                {
                    "name": "B3",
                    "midi": 59,
                    "time": 91.80431800000072,
                    "velocity": 0.2047244094488189,
                    "duration": 0.15883100000000638
                },
                {
                    "name": "D#4",
                    "midi": 63,
                    "time": 91.96314900000073,
                    "velocity": 0.1968503937007874,
                    "duration": 0.15883100000000638
                },
                {
                    "name": "D#3",
                    "midi": 51,
                    "time": 92.12198000000073,
                    "velocity": 0.25196850393700787,
                    "duration": 0.15883100000000638
                },
                {
                    "name": "F#3",
                    "midi": 54,
                    "time": 92.28081100000074,
                    "velocity": 0.1968503937007874,
                    "duration": 0.15883100000000638
                },
                {
                    "name": "B3",
                    "midi": 59,
                    "time": 92.43964200000075,
                    "velocity": 0.1968503937007874,
                    "duration": 0.15883100000000638
                },
                {
                    "name": "D#4",
                    "midi": 63,
                    "time": 92.59847300000075,
                    "velocity": 0.18110236220472442,
                    "duration": 0.15883100000000638
                },
                {
                    "name": "D#3",
                    "midi": 51,
                    "time": 92.75730400000076,
                    "velocity": 0.25984251968503935,
                    "duration": 0.15883100000000638
                },
                {
                    "name": "F#3",
                    "midi": 54,
                    "time": 92.91613500000076,
                    "velocity": 0.2125984251968504,
                    "duration": 0.15883100000000638
                },
                {
                    "name": "B3",
                    "midi": 59,
                    "time": 93.07496600000077,
                    "velocity": 0.2047244094488189,
                    "duration": 0.15883100000000638
                },
                {
                    "name": "D#4",
                    "midi": 63,
                    "time": 93.23379700000078,
                    "velocity": 0.2047244094488189,
                    "duration": 0.15883100000000638
                },
                {
                    "name": "D#3",
                    "midi": 51,
                    "time": 93.39262800000078,
                    "velocity": 0.23622047244094488,
                    "duration": 0.15883100000000638
                },
                {
                    "name": "F#3",
                    "midi": 54,
                    "time": 93.55145900000079,
                    "velocity": 0.2047244094488189,
                    "duration": 0.15883100000000638
                },
                {
                    "name": "B3",
                    "midi": 59,
                    "time": 93.7102900000008,
                    "velocity": 0.1968503937007874,
                    "duration": 0.15883100000000638
                },
                {
                    "name": "D#4",
                    "midi": 63,
                    "time": 93.8691210000008,
                    "velocity": 0.1732283464566929,
                    "duration": 0.15883100000000638
                },
                {
                    "name": "D3",
                    "midi": 50,
                    "time": 94.02795200000081,
                    "velocity": 0.25196850393700787,
                    "duration": 0.15883100000000638
                },
                {
                    "name": "G3",
                    "midi": 55,
                    "time": 94.18678300000082,
                    "velocity": 0.14960629921259844,
                    "duration": 0.15883100000000638
                },
                {
                    "name": "B3",
                    "midi": 59,
                    "time": 94.34561400000082,
                    "velocity": 0.14960629921259844,
                    "duration": 0.15883100000000638
                },
                {
                    "name": "G4",
                    "midi": 67,
                    "time": 94.50444500000083,
                    "velocity": 0.14173228346456693,
                    "duration": 0.15883100000000638
                },
                {
                    "name": "D3",
                    "midi": 50,
                    "time": 94.66327600000083,
                    "velocity": 0.1889763779527559,
                    "duration": 0.15883100000000638
                },
                {
                    "name": "G3",
                    "midi": 55,
                    "time": 94.82210700000084,
                    "velocity": 0.14173228346456693,
                    "duration": 0.15883100000000638
                },
                {
                    "name": "B3",
                    "midi": 59,
                    "time": 94.98093800000085,
                    "velocity": 0.14173228346456693,
                    "duration": 0.15883100000000638
                },
                {
                    "name": "G4",
                    "midi": 67,
                    "time": 95.13976900000085,
                    "velocity": 0.13385826771653545,
                    "duration": 0.15883100000000638
                },
                {
                    "name": "E3",
                    "midi": 52,
                    "time": 95.29860000000086,
                    "velocity": 0.1889763779527559,
                    "duration": 0.15883100000000638
                },
                {
                    "name": "A3",
                    "midi": 57,
                    "time": 95.45743100000087,
                    "velocity": 0.15748031496062992,
                    "duration": 0.15883100000000638
                },
                {
                    "name": "C4",
                    "midi": 60,
                    "time": 95.61626200000087,
                    "velocity": 0.1889763779527559,
                    "duration": 0.15883100000000638
                },
                {
                    "name": "E4",
                    "midi": 64,
                    "time": 95.77509300000088,
                    "velocity": 0.18110236220472442,
                    "duration": 0.15883100000000638
                },
                {
                    "name": "E3",
                    "midi": 52,
                    "time": 95.93392400000089,
                    "velocity": 0.2125984251968504,
                    "duration": 0.15883100000000638
                },
                {
                    "name": "A3",
                    "midi": 57,
                    "time": 96.09275500000089,
                    "velocity": 0.14960629921259844,
                    "duration": 0.15883100000000638
                },
                {
                    "name": "C4",
                    "midi": 60,
                    "time": 96.2515860000009,
                    "velocity": 0.14173228346456693,
                    "duration": 0.15883100000000638
                },
                {
                    "name": "E4",
                    "midi": 64,
                    "time": 96.4104170000009,
                    "velocity": 0.13385826771653545,
                    "duration": 0.15883100000000638
                },
                {
                    "name": "D#3",
                    "midi": 51,
                    "time": 96.56924800000091,
                    "velocity": 0.1889763779527559,
                    "duration": 0.15883100000000638
                },
                {
                    "name": "F#3",
                    "midi": 54,
                    "time": 96.72807900000092,
                    "velocity": 0.14960629921259844,
                    "duration": 0.15883100000000638
                },
                {
                    "name": "B3",
                    "midi": 59,
                    "time": 96.88691000000092,
                    "velocity": 0.14960629921259844,
                    "duration": 0.15883100000000638
                },
                {
                    "name": "D#4",
                    "midi": 63,
                    "time": 97.04574100000093,
                    "velocity": 0.14173228346456693,
                    "duration": 0.15883100000000638
                },
                {
                    "name": "F#3",
                    "midi": 54,
                    "time": 97.20457200000094,
                    "velocity": 0.1968503937007874,
                    "duration": 0.15883100000000638
                },
                {
                    "name": "A3",
                    "midi": 57,
                    "time": 97.36340300000094,
                    "velocity": 0.14960629921259844,
                    "duration": 0.15883100000000638
                },
                {
                    "name": "B3",
                    "midi": 59,
                    "time": 97.52223400000095,
                    "velocity": 0.14960629921259844,
                    "duration": 0.15883100000000638
                },
                {
                    "name": "D#4",
                    "midi": 63,
                    "time": 97.68106500000096,
                    "velocity": 0.2125984251968504,
                    "duration": 0.15883100000000638
                },
                {
                    "name": "E3",
                    "midi": 52,
                    "time": 97.83989600000096,
                    "velocity": 0.2440944881889764,
                    "duration": 0.15883100000000638
                },
                {
                    "name": "G3",
                    "midi": 55,
                    "time": 97.99872700000097,
                    "velocity": 0.2125984251968504,
                    "duration": 0.15883100000000638
                },
                {
                    "name": "B3",
                    "midi": 59,
                    "time": 98.15755800000098,
                    "velocity": 0.23622047244094488,
                    "duration": 0.15883100000000638
                },
                {
                    "name": "E4",
                    "midi": 64,
                    "time": 98.31638900000098,
                    "velocity": 0.25196850393700787,
                    "duration": 0.15883100000000638
                },
                {
                    "name": "E3",
                    "midi": 52,
                    "time": 98.47522000000099,
                    "velocity": 0.2677165354330709,
                    "duration": 0.15883100000000638
                },
                {
                    "name": "G3",
                    "midi": 55,
                    "time": 98.634051000001,
                    "velocity": 0.23622047244094488,
                    "duration": 0.15883100000000638
                },
                {
                    "name": "B3",
                    "midi": 59,
                    "time": 98.792882000001,
                    "velocity": 0.25196850393700787,
                    "duration": 0.15883100000000638
                },
                {
                    "name": "E4",
                    "midi": 64,
                    "time": 98.951713000001,
                    "velocity": 0.2677165354330709,
                    "duration": 0.15883100000000638
                },
                {
                    "name": "D#3",
                    "midi": 51,
                    "time": 99.11054400000101,
                    "velocity": 0.2755905511811024,
                    "duration": 0.15883100000000638
                },
                {
                    "name": "F#3",
                    "midi": 54,
                    "time": 99.26937500000102,
                    "velocity": 0.2047244094488189,
                    "duration": 0.15883100000000638
                },
                {
                    "name": "B3",
                    "midi": 59,
                    "time": 99.42820600000103,
                    "velocity": 0.2047244094488189,
                    "duration": 0.15883100000000638
                },
                {
                    "name": "D#4",
                    "midi": 63,
                    "time": 99.58703700000103,
                    "velocity": 0.1968503937007874,
                    "duration": 0.15883100000000638
                },
                {
                    "name": "F#3",
                    "midi": 54,
                    "time": 99.74586800000104,
                    "velocity": 0.25196850393700787,
                    "duration": 0.15883100000000638
                },
                {
                    "name": "A3",
                    "midi": 57,
                    "time": 99.90469900000105,
                    "velocity": 0.1968503937007874,
                    "duration": 0.15883100000000638
                },
                {
                    "name": "B3",
                    "midi": 59,
                    "time": 100.06353000000105,
                    "velocity": 0.1968503937007874,
                    "duration": 0.15883100000000638
                },
                {
                    "name": "D#4",
                    "midi": 63,
                    "time": 100.22236100000106,
                    "velocity": 0.18110236220472442,
                    "duration": 0.15883100000000638
                },
                {
                    "name": "E3",
                    "midi": 52,
                    "time": 100.38119200000106,
                    "velocity": 0.25984251968503935,
                    "duration": 0.15883100000000638
                },
                {
                    "name": "G3",
                    "midi": 55,
                    "time": 100.54002300000107,
                    "velocity": 0.2125984251968504,
                    "duration": 0.15883100000000638
                },
                {
                    "name": "B3",
                    "midi": 59,
                    "time": 100.69885400000108,
                    "velocity": 0.25984251968503935,
                    "duration": 0.15883100000000638
                },
                {
                    "name": "E4",
                    "midi": 64,
                    "time": 100.85768500000108,
                    "velocity": 0.31496062992125984,
                    "duration": 0.15883100000000638
                },
                {
                    "name": "E3",
                    "midi": 52,
                    "time": 101.01651600000109,
                    "velocity": 0.2677165354330709,
                    "duration": 0.15883100000000638
                },
                {
                    "name": "G3",
                    "midi": 55,
                    "time": 101.1753470000011,
                    "velocity": 0.23622047244094488,
                    "duration": 0.15883100000000638
                },
                {
                    "name": "B3",
                    "midi": 59,
                    "time": 101.3341780000011,
                    "velocity": 0.25196850393700787,
                    "duration": 0.15883100000000638
                },
                {
                    "name": "E4",
                    "midi": 64,
                    "time": 101.49300900000111,
                    "velocity": 0.2677165354330709,
                    "duration": 0.15883100000000638
                },
                {
                    "name": "D#3",
                    "midi": 51,
                    "time": 101.65184000000112,
                    "velocity": 0.2755905511811024,
                    "duration": 0.15883100000000638
                },
                {
                    "name": "F#3",
                    "midi": 54,
                    "time": 101.81067100000112,
                    "velocity": 0.2047244094488189,
                    "duration": 0.15883100000000638
                },
                {
                    "name": "B3",
                    "midi": 59,
                    "time": 101.96950200000113,
                    "velocity": 0.2047244094488189,
                    "duration": 0.15883100000000638
                },
                {
                    "name": "D#4",
                    "midi": 63,
                    "time": 102.12833300000113,
                    "velocity": 0.1968503937007874,
                    "duration": 0.15883100000000638
                },
                {
                    "name": "D#3",
                    "midi": 51,
                    "time": 102.28716400000114,
                    "velocity": 0.25196850393700787,
                    "duration": 0.15883100000000638
                },
                {
                    "name": "F#3",
                    "midi": 54,
                    "time": 102.44599500000115,
                    "velocity": 0.1968503937007874,
                    "duration": 0.15883100000000638
                },
                {
                    "name": "B3",
                    "midi": 59,
                    "time": 102.60482600000115,
                    "velocity": 0.1968503937007874,
                    "duration": 0.15883100000000638
                },
                {
                    "name": "D#4",
                    "midi": 63,
                    "time": 102.76365700000116,
                    "velocity": 0.18110236220472442,
                    "duration": 0.15883100000000638
                },
                {
                    "name": "F#3",
                    "midi": 54,
                    "time": 102.92248800000117,
                    "velocity": 0.25984251968503935,
                    "duration": 0.15883100000000638
                },
                {
                    "name": "A3",
                    "midi": 57,
                    "time": 103.08131900000117,
                    "velocity": 0.2125984251968504,
                    "duration": 0.15883100000000638
                },
                {
                    "name": "B3",
                    "midi": 59,
                    "time": 103.24015000000118,
                    "velocity": 0.25984251968503935,
                    "duration": 0.15883100000000638
                },
                {
                    "name": "D#4",
                    "midi": 63,
                    "time": 103.39898100000119,
                    "velocity": 0.31496062992125984,
                    "duration": 0.15883100000000638
                },
                {
                    "name": "D#3",
                    "midi": 51,
                    "time": 103.55781200000119,
                    "velocity": 0.33858267716535434,
                    "duration": 0.15883100000000638
                },
                {
                    "name": "F#3",
                    "midi": 54,
                    "time": 103.7166430000012,
                    "velocity": 0.28346456692913385,
                    "duration": 0.15883100000000638
                },
                {
                    "name": "B3",
                    "midi": 59,
                    "time": 103.8754740000012,
                    "velocity": 0.3464566929133858,
                    "duration": 0.15883100000000638
                },
                {
                    "name": "D#4",
                    "midi": 63,
                    "time": 104.03430500000121,
                    "velocity": 0.3700787401574803,
                    "duration": 0.15883100000000638
                },
                {
                    "name": "B2",
                    "midi": 47,
                    "time": 104.19313600000122,
                    "velocity": 0.4409448818897638,
                    "duration": 0.15883100000000638
                },
                {
                    "name": "E3",
                    "midi": 52,
                    "time": 104.35196700000122,
                    "velocity": 0.29133858267716534,
                    "duration": 0.15883100000000638
                },
                {
                    "name": "G#3",
                    "midi": 56,
                    "time": 104.51079800000123,
                    "velocity": 0.2992125984251969,
                    "duration": 0.15883100000000638
                },
                {
                    "name": "B3",
                    "midi": 59,
                    "time": 104.66962900000124,
                    "velocity": 0.2992125984251969,
                    "duration": 0.15883100000000638
                },
                {
                    "name": "B2",
                    "midi": 47,
                    "time": 104.82846000000124,
                    "velocity": 0.3937007874015748,
                    "duration": 0.15883100000000638
                },
                {
                    "name": "D#3",
                    "midi": 51,
                    "time": 104.98729100000125,
                    "velocity": 0.33858267716535434,
                    "duration": 0.15883100000000638
                },
                {
                    "name": "A3",
                    "midi": 57,
                    "time": 105.14612200000126,
                    "velocity": 0.36220472440944884,
                    "duration": 0.15883100000000638
                },
                {
                    "name": "B3",
                    "midi": 59,
                    "time": 105.30495300000126,
                    "velocity": 0.3779527559055118,
                    "duration": 0.15883100000000638
                },
                {
                    "name": "B2",
                    "midi": 47,
                    "time": 105.46378400000127,
                    "velocity": 0.4645669291338583,
                    "duration": 0.15883100000000638
                },
                {
                    "name": "E3",
                    "midi": 52,
                    "time": 105.62261500000128,
                    "velocity": 0.3779527559055118,
                    "duration": 0.15883100000000638
                },
                {
                    "name": "G#3",
                    "midi": 56,
                    "time": 105.78144600000128,
                    "velocity": 0.49606299212598426,
                    "duration": 0.15883100000000638
                },
                {
                    "name": "B3",
                    "midi": 59,
                    "time": 105.94027700000129,
                    "velocity": 0.48031496062992124,
                    "duration": 0.15883100000000638
                },
                {
                    "name": "F#3",
                    "midi": 54,
                    "time": 106.0991080000013,
                    "velocity": 0.5826771653543307,
                    "duration": 0.15883100000000638
                },
                {
                    "name": "C#4",
                    "midi": 61,
                    "time": 106.2579390000013,
                    "velocity": 0.33858267716535434,
                    "duration": 0.15883100000000638
                },
                {
                    "name": "E4",
                    "midi": 64,
                    "time": 106.4167700000013,
                    "velocity": 0.4251968503937008,
                    "duration": 0.15883100000000638
                },
                {
                    "name": "F#4",
                    "midi": 66,
                    "time": 106.57560100000131,
                    "velocity": 0.25196850393700787,
                    "duration": 0.15883100000000638
                },
                {
                    "name": "F#3",
                    "midi": 54,
                    "time": 106.73443200000132,
                    "velocity": 0.3858267716535433,
                    "duration": 0.15883100000000638
                },
                {
                    "name": "B3",
                    "midi": 59,
                    "time": 106.89326300000133,
                    "velocity": 0.28346456692913385,
                    "duration": 0.15883100000000638
                },
                {
                    "name": "D#4",
                    "midi": 63,
                    "time": 107.05209400000133,
                    "velocity": 0.28346456692913385,
                    "duration": 0.15883100000000638
                },
                {
                    "name": "F#4",
                    "midi": 66,
                    "time": 107.21092500000134,
                    "velocity": 0.2755905511811024,
                    "duration": 0.15883100000000638
                },
                {
                    "name": "F#3",
                    "midi": 54,
                    "time": 107.36975600000135,
                    "velocity": 0.3464566929133858,
                    "duration": 0.15883100000000638
                },
                {
                    "name": "A#3",
                    "midi": 58,
                    "time": 107.52858700000135,
                    "velocity": 0.2755905511811024,
                    "duration": 0.15883100000000638
                },
                {
                    "name": "E4",
                    "midi": 64,
                    "time": 107.68741800000136,
                    "velocity": 0.2755905511811024,
                    "duration": 0.15883100000000638
                },
                {
                    "name": "F#4",
                    "midi": 66,
                    "time": 107.84624900000136,
                    "velocity": 0.25196850393700787,
                    "duration": 0.15883100000000638
                },
                {
                    "name": "F#3",
                    "midi": 54,
                    "time": 108.00508000000137,
                    "velocity": 0.36220472440944884,
                    "duration": 0.15883100000000638
                },
                {
                    "name": "B3",
                    "midi": 59,
                    "time": 108.16391100000138,
                    "velocity": 0.29133858267716534,
                    "duration": 0.15883100000000638
                },
                {
                    "name": "D#4",
                    "midi": 63,
                    "time": 108.32274200000138,
                    "velocity": 0.36220472440944884,
                    "duration": 0.15883100000000638
                },
                {
                    "name": "F#4",
                    "midi": 66,
                    "time": 108.48157300000139,
                    "velocity": 0.4409448818897638,
                    "duration": 0.15883100000000638
                },
                {
                    "name": "G#3",
                    "midi": 56,
                    "time": 108.6404040000014,
                    "velocity": 0.5039370078740157,
                    "duration": 0.15883100000000638
                },
                {
                    "name": "B3",
                    "midi": 59,
                    "time": 108.7992350000014,
                    "velocity": 0.3779527559055118,
                    "duration": 0.15883100000000638
                },
                {
                    "name": "C#4",
                    "midi": 61,
                    "time": 108.95806600000141,
                    "velocity": 0.4015748031496063,
                    "duration": 0.15883100000000638
                },
                {
                    "name": "G#4",
                    "midi": 68,
                    "time": 109.11689700000142,
                    "velocity": 0.2992125984251969,
                    "duration": 0.15883100000000638
                },
                {
                    "name": "A3",
                    "midi": 57,
                    "time": 109.27572800000142,
                    "velocity": 0.3858267716535433,
                    "duration": 0.15883100000000638
                },
                {
                    "name": "C#4",
                    "midi": 61,
                    "time": 109.43455900000143,
                    "velocity": 0.36220472440944884,
                    "duration": 0.15883100000000638
                },
                {
                    "name": "E4",
                    "midi": 64,
                    "time": 109.59339000000143,
                    "velocity": 0.3858267716535433,
                    "duration": 0.15883100000000638
                },
                {
                    "name": "F#4",
                    "midi": 66,
                    "time": 109.75222100000144,
                    "velocity": 0.3543307086614173,
                    "duration": 0.15883100000000638
                },
                {
                    "name": "F#3",
                    "midi": 54,
                    "time": 109.91105200000145,
                    "velocity": 0.44881889763779526,
                    "duration": 0.15883100000000638
                },
                {
                    "name": "A3",
                    "midi": 57,
                    "time": 110.06988300000145,
                    "velocity": 0.3543307086614173,
                    "duration": 0.15883100000000638
                },
                {
                    "name": "B3",
                    "midi": 59,
                    "time": 110.22871400000146,
                    "velocity": 0.3543307086614173,
                    "duration": 0.15883100000000638
                },
                {
                    "name": "D#4",
                    "midi": 63,
                    "time": 110.38754500000147,
                    "velocity": 0.3228346456692913,
                    "duration": 0.15883100000000638
                },
                {
                    "name": "G#3",
                    "midi": 56,
                    "time": 110.70520700000148,
                    "velocity": 0.3543307086614173,
                    "duration": 0.15883100000000638
                },
                {
                    "name": "B3",
                    "midi": 59,
                    "time": 110.86403800000149,
                    "velocity": 0.3543307086614173,
                    "duration": 0.15883100000000638
                },
                {
                    "name": "E4",
                    "midi": 64,
                    "time": 111.02286900000149,
                    "velocity": 0.33070866141732286,
                    "duration": 0.15883100000000638
                },
                {
                    "name": "E3",
                    "midi": 52,
                    "time": 111.3405310000015,
                    "velocity": 0.36220472440944884,
                    "duration": 0.15883100000000638
                },
                {
                    "name": "A3",
                    "midi": 57,
                    "time": 111.49936200000151,
                    "velocity": 0.3543307086614173,
                    "duration": 0.15883100000000638
                },
                {
                    "name": "E4",
                    "midi": 64,
                    "time": 111.65819300000152,
                    "velocity": 0.3228346456692913,
                    "duration": 0.15883100000000638
                },
                {
                    "name": "E3",
                    "midi": 52,
                    "time": 111.81702400000152,
                    "velocity": 0.49606299212598426,
                    "duration": 0.15883100000000638
                },
                {
                    "name": "G#3",
                    "midi": 56,
                    "time": 111.97585500000153,
                    "velocity": 0.36220472440944884,
                    "duration": 0.15883100000000638
                },
                {
                    "name": "B3",
                    "midi": 59,
                    "time": 112.13468600000154,
                    "velocity": 0.36220472440944884,
                    "duration": 0.15883100000000638
                },
                {
                    "name": "E4",
                    "midi": 64,
                    "time": 112.29351700000154,
                    "velocity": 0.3543307086614173,
                    "duration": 0.15883100000000638
                },
                {
                    "name": "E3",
                    "midi": 52,
                    "time": 112.45234800000155,
                    "velocity": 0.44881889763779526,
                    "duration": 0.15883100000000638
                },
                {
                    "name": "G#3",
                    "midi": 56,
                    "time": 112.61117900000156,
                    "velocity": 0.3543307086614173,
                    "duration": 0.15883100000000638
                },
                {
                    "name": "B3",
                    "midi": 59,
                    "time": 112.77001000000156,
                    "velocity": 0.3543307086614173,
                    "duration": 0.15883100000000638
                },
                {
                    "name": "E4",
                    "midi": 64,
                    "time": 112.92884100000157,
                    "velocity": 0.3228346456692913,
                    "duration": 0.15883100000000638
                },
                {
                    "name": "D#3",
                    "midi": 51,
                    "time": 113.08767200000158,
                    "velocity": 0.4094488188976378,
                    "duration": 0.15883100000000638
                },
                {
                    "name": "F#3",
                    "midi": 54,
                    "time": 113.24650300000158,
                    "velocity": 0.36220472440944884,
                    "duration": 0.15883100000000638
                },
                {
                    "name": "B3",
                    "midi": 59,
                    "time": 113.40533400000159,
                    "velocity": 0.31496062992125984,
                    "duration": 0.15883100000000638
                },
                {
                    "name": "D#4",
                    "midi": 63,
                    "time": 113.5641650000016,
                    "velocity": 0.2755905511811024,
                    "duration": 0.15883100000000638
                },
                {
                    "name": "D#3",
                    "midi": 51,
                    "time": 113.7229960000016,
                    "velocity": 0.23622047244094488,
                    "duration": 0.15883100000000638
                },
                {
                    "name": "F#3",
                    "midi": 54,
                    "time": 113.8818270000016,
                    "velocity": 0.2047244094488189,
                    "duration": 0.15883100000000638
                },
                {
                    "name": "B3",
                    "midi": 59,
                    "time": 114.04065800000161,
                    "velocity": 0.25196850393700787,
                    "duration": 0.15883100000000638
                },
                {
                    "name": "D#4",
                    "midi": 63,
                    "time": 114.19948900000162,
                    "velocity": 0.2677165354330709,
                    "duration": 0.15883100000000638
                },
                {
                    "name": "E3",
                    "midi": 52,
                    "time": 114.35832000000163,
                    "velocity": 0.31496062992125984,
                    "duration": 0.15883100000000638
                },
                {
                    "name": "G#3",
                    "midi": 56,
                    "time": 114.51715100000163,
                    "velocity": 0.2047244094488189,
                    "duration": 0.15883100000000638
                },
                {
                    "name": "B3",
                    "midi": 59,
                    "time": 114.67598200000164,
                    "velocity": 0.2047244094488189,
                    "duration": 0.15883100000000638
                },
                {
                    "name": "E4",
                    "midi": 64,
                    "time": 114.83481300000165,
                    "velocity": 0.1968503937007874,
                    "duration": 0.15883100000000638
                },
                {
                    "name": "E3",
                    "midi": 52,
                    "time": 114.99364400000165,
                    "velocity": 0.25196850393700787,
                    "duration": 0.15883100000000638
                },
                {
                    "name": "G#3",
                    "midi": 56,
                    "time": 115.15247500000166,
                    "velocity": 0.1968503937007874,
                    "duration": 0.15883100000000638
                },
                {
                    "name": "B3",
                    "midi": 59,
                    "time": 115.31130600000166,
                    "velocity": 0.1968503937007874,
                    "duration": 0.15883100000000638
                },
                {
                    "name": "E4",
                    "midi": 64,
                    "time": 115.47013700000167,
                    "velocity": 0.18110236220472442,
                    "duration": 0.15883100000000638
                },
                {
                    "name": "E3",
                    "midi": 52,
                    "time": 115.62896800000168,
                    "velocity": 0.25984251968503935,
                    "duration": 0.15883100000000638
                },
                {
                    "name": "F#3",
                    "midi": 54,
                    "time": 115.78779900000168,
                    "velocity": 0.2125984251968504,
                    "duration": 0.15883100000000638
                },
                {
                    "name": "C#4",
                    "midi": 61,
                    "time": 115.94663000000169,
                    "velocity": 0.2677165354330709,
                    "duration": 0.15883100000000638
                },
                {
                    "name": "E4",
                    "midi": 64,
                    "time": 116.1054610000017,
                    "velocity": 0.3464566929133858,
                    "duration": 0.15883100000000638
                },
                {
                    "name": "E3",
                    "midi": 52,
                    "time": 116.2642920000017,
                    "velocity": 0.41732283464566927,
                    "duration": 0.15883100000000638
                },
                {
                    "name": "F#3",
                    "midi": 54,
                    "time": 116.42312300000171,
                    "velocity": 0.2440944881889764,
                    "duration": 0.15883100000000638
                },
                {
                    "name": "C#4",
                    "midi": 61,
                    "time": 116.58195400000172,
                    "velocity": 0.30708661417322836,
                    "duration": 0.15883100000000638
                },
                {
                    "name": "E4",
                    "midi": 64,
                    "time": 116.74078500000172,
                    "velocity": 0.18110236220472442,
                    "duration": 0.15883100000000638
                },
                {
                    "name": "E3",
                    "midi": 52,
                    "time": 116.89961600000173,
                    "velocity": 0.2755905511811024,
                    "duration": 0.15883100000000638
                },
                {
                    "name": "G#3",
                    "midi": 56,
                    "time": 117.05844700000173,
                    "velocity": 0.2047244094488189,
                    "duration": 0.15883100000000638
                },
                {
                    "name": "B3",
                    "midi": 59,
                    "time": 117.21727800000174,
                    "velocity": 0.2047244094488189,
                    "duration": 0.15883100000000638
                },
                {
                    "name": "E4",
                    "midi": 64,
                    "time": 117.37610900000175,
                    "velocity": 0.1968503937007874,
                    "duration": 0.15883100000000638
                },
                {
                    "name": "E3",
                    "midi": 52,
                    "time": 117.53494000000175,
                    "velocity": 0.25196850393700787,
                    "duration": 0.15883100000000638
                },
                {
                    "name": "G#3",
                    "midi": 56,
                    "time": 117.69377100000176,
                    "velocity": 0.1968503937007874,
                    "duration": 0.15883100000000638
                },
                {
                    "name": "B3",
                    "midi": 59,
                    "time": 117.85260200000177,
                    "velocity": 0.1968503937007874,
                    "duration": 0.15883100000000638
                },
                {
                    "name": "E4",
                    "midi": 64,
                    "time": 118.01143300000177,
                    "velocity": 0.18110236220472442,
                    "duration": 0.15883100000000638
                },
                {
                    "name": "E3",
                    "midi": 52,
                    "time": 118.17026400000178,
                    "velocity": 0.25984251968503935,
                    "duration": 0.15883100000000638
                },
                {
                    "name": "F#3",
                    "midi": 54,
                    "time": 118.32909500000179,
                    "velocity": 0.2204724409448819,
                    "duration": 0.15883100000000638
                },
                {
                    "name": "A#3",
                    "midi": 58,
                    "time": 118.48792600000179,
                    "velocity": 0.2677165354330709,
                    "duration": 0.15883100000000638
                },
                {
                    "name": "E4",
                    "midi": 64,
                    "time": 118.6467570000018,
                    "velocity": 0.33070866141732286,
                    "duration": 0.15883100000000638
                },
                {
                    "name": "F#3",
                    "midi": 54,
                    "time": 118.8055880000018,
                    "velocity": 0.4330708661417323,
                    "duration": 0.15883100000000638
                },
                {
                    "name": "A#3",
                    "midi": 58,
                    "time": 118.96441900000181,
                    "velocity": 0.25196850393700787,
                    "duration": 0.15883100000000638
                },
                {
                    "name": "E4",
                    "midi": 64,
                    "time": 119.12325000000182,
                    "velocity": 0.3228346456692913,
                    "duration": 0.15883100000000638
                },
                {
                    "name": "F#4",
                    "midi": 66,
                    "time": 119.28208100000182,
                    "velocity": 0.1889763779527559,
                    "duration": 0.15883100000000638
                },
                {
                    "name": "G#3",
                    "midi": 56,
                    "time": 119.44091200000183,
                    "velocity": 0.29133858267716534,
                    "duration": 0.15883100000000638
                },
                {
                    "name": "B3",
                    "midi": 59,
                    "time": 119.59974300000184,
                    "velocity": 0.2125984251968504,
                    "duration": 0.15883100000000638
                },
                {
                    "name": "E4",
                    "midi": 64,
                    "time": 119.75857400000184,
                    "velocity": 0.2204724409448819,
                    "duration": 0.15883100000000638
                },
                {
                    "name": "G#4",
                    "midi": 68,
                    "time": 119.91740500000185,
                    "velocity": 0.2125984251968504,
                    "duration": 0.15883100000000638
                },
                {
                    "name": "G#3",
                    "midi": 56,
                    "time": 120.07623600000186,
                    "velocity": 0.2677165354330709,
                    "duration": 0.15883100000000638
                },
                {
                    "name": "B3",
                    "midi": 59,
                    "time": 120.23506700000186,
                    "velocity": 0.2125984251968504,
                    "duration": 0.15883100000000638
                },
                {
                    "name": "E4",
                    "midi": 64,
                    "time": 120.39389800000187,
                    "velocity": 0.2125984251968504,
                    "duration": 0.15883100000000638
                },
                {
                    "name": "G#4",
                    "midi": 68,
                    "time": 120.55272900000188,
                    "velocity": 0.1968503937007874,
                    "duration": 0.15883100000000638
                },
                {
                    "name": "A3",
                    "midi": 57,
                    "time": 120.71156000000188,
                    "velocity": 0.28346456692913385,
                    "duration": 0.15883100000000638
                },
                {
                    "name": "B3",
                    "midi": 59,
                    "time": 120.87039100000189,
                    "velocity": 0.2283464566929134,
                    "duration": 0.15883100000000638
                },
                {
                    "name": "E4",
                    "midi": 64,
                    "time": 121.0292220000019,
                    "velocity": 0.28346456692913385,
                    "duration": 0.15883100000000638
                },
                {
                    "name": "F#4",
                    "midi": 66,
                    "time": 121.1880530000019,
                    "velocity": 0.3464566929133858,
                    "duration": 0.15883100000000638
                },
                {
                    "name": "A3",
                    "midi": 57,
                    "time": 121.34688400000191,
                    "velocity": 0.28346456692913385,
                    "duration": 0.15883100000000638
                },
                {
                    "name": "B3",
                    "midi": 59,
                    "time": 121.50571500000191,
                    "velocity": 0.29133858267716534,
                    "duration": 0.15883100000000638
                },
                {
                    "name": "D#4",
                    "midi": 63,
                    "time": 121.66454600000192,
                    "velocity": 0.33070866141732286,
                    "duration": 0.15883100000000638
                },
                {
                    "name": "F#4",
                    "midi": 66,
                    "time": 121.82337700000193,
                    "velocity": 0.29133858267716534,
                    "duration": 0.15883100000000638
                },
                {
                    "name": "F#3",
                    "midi": 54,
                    "time": 121.98220800000193,
                    "velocity": 0.3858267716535433,
                    "duration": 0.15883100000000638
                },
                {
                    "name": "A3",
                    "midi": 57,
                    "time": 122.14103900000194,
                    "velocity": 0.29133858267716534,
                    "duration": 0.15883100000000638
                },
                {
                    "name": "B3",
                    "midi": 59,
                    "time": 122.29987000000195,
                    "velocity": 0.33858267716535434,
                    "duration": 0.15883100000000638
                },
                {
                    "name": "D#4",
                    "midi": 63,
                    "time": 122.45870100000195,
                    "velocity": 0.28346456692913385,
                    "duration": 0.15883100000000638
                },
                {
                    "name": "F#3",
                    "midi": 54,
                    "time": 122.61753200000196,
                    "velocity": 0.2755905511811024,
                    "duration": 0.15883100000000638
                },
                {
                    "name": "A3",
                    "midi": 57,
                    "time": 122.77636300000196,
                    "velocity": 0.3464566929133858,
                    "duration": 0.15883100000000638
                },
                {
                    "name": "B3",
                    "midi": 59,
                    "time": 122.93519400000197,
                    "velocity": 0.3464566929133858,
                    "duration": 0.15883100000000638
                },
                {
                    "name": "D#4",
                    "midi": 63,
                    "time": 123.09402500000198,
                    "velocity": 0.30708661417322836,
                    "duration": 0.15883100000000638
                },
                {
                    "name": "G#3",
                    "midi": 56,
                    "time": 123.41168700000199,
                    "velocity": 0.36220472440944884,
                    "duration": 0.15883100000000638
                },
                {
                    "name": "B3",
                    "midi": 59,
                    "time": 123.570518000002,
                    "velocity": 0.31496062992125984,
                    "duration": 0.15883100000000638
                },
                {
                    "name": "E4",
                    "midi": 64,
                    "time": 123.729349000002,
                    "velocity": 0.2677165354330709,
                    "duration": 0.15883100000000638
                },
                {
                    "name": "E3",
                    "midi": 52,
                    "time": 123.88818000000201,
                    "velocity": 0.28346456692913385,
                    "duration": 0.15883100000000638
                },
                {
                    "name": "G#3",
                    "midi": 56,
                    "time": 124.04701100000202,
                    "velocity": 0.2440944881889764,
                    "duration": 0.15883100000000638
                },
                {
                    "name": "B3",
                    "midi": 59,
                    "time": 124.20584200000202,
                    "velocity": 0.2992125984251969,
                    "duration": 0.15883100000000638
                },
                {
                    "name": "E4",
                    "midi": 64,
                    "time": 124.36467300000203,
                    "velocity": 0.3228346456692913,
                    "duration": 0.15883100000000638
                },
                {
                    "name": "E3",
                    "midi": 52,
                    "time": 124.52350400000203,
                    "velocity": 0.3779527559055118,
                    "duration": 0.15883100000000638
                },
                {
                    "name": "G#3",
                    "midi": 56,
                    "time": 124.68233500000204,
                    "velocity": 0.2440944881889764,
                    "duration": 0.15883100000000638
                },
                {
                    "name": "B3",
                    "midi": 59,
                    "time": 124.84116600000205,
                    "velocity": 0.2440944881889764,
                    "duration": 0.15883100000000638
                },
                {
                    "name": "E4",
                    "midi": 64,
                    "time": 124.99999700000205,
                    "velocity": 0.23622047244094488,
                    "duration": 0.15883100000000638
                },
                {
                    "name": "E3",
                    "midi": 52,
                    "time": 125.15882800000206,
                    "velocity": 0.30708661417322836,
                    "duration": 0.15883100000000638
                },
                {
                    "name": "G#3",
                    "midi": 56,
                    "time": 125.31765900000207,
                    "velocity": 0.2440944881889764,
                    "duration": 0.15883100000000638
                },
                {
                    "name": "B3",
                    "midi": 59,
                    "time": 125.47649000000207,
                    "velocity": 0.2440944881889764,
                    "duration": 0.15883100000000638
                },
                {
                    "name": "E4",
                    "midi": 64,
                    "time": 125.63532100000208,
                    "velocity": 0.2204724409448819,
                    "duration": 0.15883100000000638
                },
                {
                    "name": "E3",
                    "midi": 52,
                    "time": 125.79415200000209,
                    "velocity": 0.3228346456692913,
                    "duration": 0.15883100000000638
                },
                {
                    "name": "F#3",
                    "midi": 54,
                    "time": 125.95298300000209,
                    "velocity": 0.2677165354330709,
                    "duration": 0.15883100000000638
                },
                {
                    "name": "C#4",
                    "midi": 61,
                    "time": 126.1118140000021,
                    "velocity": 0.33070866141732286,
                    "duration": 0.15883100000000638
                },
                {
                    "name": "E4",
                    "midi": 64,
                    "time": 126.2706450000021,
                    "velocity": 0.4330708661417323,
                    "duration": 0.15883100000000638
                },
                {
                    "name": "D#3",
                    "midi": 51,
                    "time": 126.42947600000211,
                    "velocity": 0.5275590551181102,
                    "duration": 0.15883100000000638
                },
                {
                    "name": "F#3",
                    "midi": 54,
                    "time": 126.58830700000212,
                    "velocity": 0.30708661417322836,
                    "duration": 0.15883100000000638
                },
                {
                    "name": "D#4",
                    "midi": 63,
                    "time": 126.74713800000212,
                    "velocity": 0.3858267716535433,
                    "duration": 0.15883100000000638
                },
                {
                    "name": "F#4",
                    "midi": 66,
                    "time": 126.90596900000213,
                    "velocity": 0.2283464566929134,
                    "duration": 0.15883100000000638
                },
                {
                    "name": "E3",
                    "midi": 52,
                    "time": 127.06480000000214,
                    "velocity": 0.3543307086614173,
                    "duration": 0.15883100000000638
                },
                {
                    "name": "G#3",
                    "midi": 56,
                    "time": 127.22363100000214,
                    "velocity": 0.25984251968503935,
                    "duration": 0.15883100000000638
                },
                {
                    "name": "B3",
                    "midi": 59,
                    "time": 127.38246200000215,
                    "velocity": 0.25984251968503935,
                    "duration": 0.15883100000000638
                },
                {
                    "name": "E4",
                    "midi": 64,
                    "time": 127.54129300000216,
                    "velocity": 0.25196850393700787,
                    "duration": 0.15883100000000638
                },
                {
                    "name": "E3",
                    "midi": 52,
                    "time": 127.70012400000216,
                    "velocity": 0.3228346456692913,
                    "duration": 0.15883100000000638
                },
                {
                    "name": "G#3",
                    "midi": 56,
                    "time": 127.85895500000217,
                    "velocity": 0.25196850393700787,
                    "duration": 0.15883099999999217
                },
                {
                    "name": "B3",
                    "midi": 59,
                    "time": 128.01778600000216,
                    "velocity": 0.25196850393700787,
                    "duration": 0.15883099999999217
                },
                {
                    "name": "E4",
                    "midi": 64,
                    "time": 128.17661700000215,
                    "velocity": 0.23622047244094488,
                    "duration": 0.15883099999999217
                },
                {
                    "name": "E3",
                    "midi": 52,
                    "time": 128.33544800000215,
                    "velocity": 0.33858267716535434,
                    "duration": 0.15883099999999217
                },
                {
                    "name": "F#3",
                    "midi": 54,
                    "time": 128.49427900000214,
                    "velocity": 0.2755905511811024,
                    "duration": 0.15883099999999217
                },
                {
                    "name": "C#4",
                    "midi": 61,
                    "time": 128.65311000000213,
                    "velocity": 0.33858267716535434,
                    "duration": 0.15883099999999217
                },
                {
                    "name": "E4",
                    "midi": 64,
                    "time": 128.81194100000212,
                    "velocity": 0.41732283464566927,
                    "duration": 0.15883099999999217
                },
                {
                    "name": "F#3",
                    "midi": 54,
                    "time": 128.9707720000021,
                    "velocity": 0.5590551181102362,
                    "duration": 0.15883099999999217
                },
                {
                    "name": "A#3",
                    "midi": 58,
                    "time": 129.1296030000021,
                    "velocity": 0.3228346456692913,
                    "duration": 0.15883099999999217
                },
                {
                    "name": "E4",
                    "midi": 64,
                    "time": 129.2884340000021,
                    "velocity": 0.4094488188976378,
                    "duration": 0.15883099999999217
                },
                {
                    "name": "F#4",
                    "midi": 66,
                    "time": 129.4472650000021,
                    "velocity": 0.2440944881889764,
                    "duration": 0.15883099999999217
                },
                {
                    "name": "F#3",
                    "midi": 54,
                    "time": 129.60609600000208,
                    "velocity": 0.3700787401574803,
                    "duration": 0.15883099999999217
                },
                {
                    "name": "B3",
                    "midi": 59,
                    "time": 129.76492700000207,
                    "velocity": 0.2755905511811024,
                    "duration": 0.15883099999999217
                },
                {
                    "name": "D#4",
                    "midi": 63,
                    "time": 129.92375800000207,
                    "velocity": 0.2755905511811024,
                    "duration": 0.15883099999999217
                },
                {
                    "name": "F#4",
                    "midi": 66,
                    "time": 130.08258900000206,
                    "velocity": 0.2677165354330709,
                    "duration": 0.15883099999999217
                },
                {
                    "name": "A#3",
                    "midi": 58,
                    "time": 130.24142000000205,
                    "velocity": 0.3464566929133858,
                    "duration": 0.15883099999999217
                },
                {
                    "name": "C#4",
                    "midi": 61,
                    "time": 130.40025100000204,
                    "velocity": 0.2677165354330709,
                    "duration": 0.15883099999999217
                },
                {
                    "name": "E4",
                    "midi": 64,
                    "time": 130.55908200000204,
                    "velocity": 0.2677165354330709,
                    "duration": 0.15883099999999217
                },
                {
                    "name": "G4",
                    "midi": 67,
                    "time": 130.71791300000203,
                    "velocity": 0.2440944881889764,
                    "duration": 0.15883099999999217
                },
                {
                    "name": "B3",
                    "midi": 59,
                    "time": 130.87674400000202,
                    "velocity": 0.36220472440944884,
                    "duration": 0.15883099999999217
                },
                {
                    "name": "D#4",
                    "midi": 63,
                    "time": 131.035575000002,
                    "velocity": 0.29133858267716534,
                    "duration": 0.15883099999999217
                },
                {
                    "name": "F#4",
                    "midi": 66,
                    "time": 131.194406000002,
                    "velocity": 0.36220472440944884,
                    "duration": 0.15883099999999217
                },
                {
                    "name": "A4",
                    "midi": 69,
                    "time": 131.353237000002,
                    "velocity": 0.4409448818897638,
                    "duration": 0.15883099999999217
                },
                {
                    "name": "D#4",
                    "midi": 63,
                    "time": 131.512068000002,
                    "velocity": 0.36220472440944884,
                    "duration": 0.15883099999999217
                },
                {
                    "name": "F#4",
                    "midi": 66,
                    "time": 131.67089900000198,
                    "velocity": 0.36220472440944884,
                    "duration": 0.15883099999999217
                },
                {
                    "name": "A4",
                    "midi": 69,
                    "time": 131.82973000000197,
                    "velocity": 0.41732283464566927,
                    "duration": 0.15883099999999217
                },
                {
                    "name": "B4",
                    "midi": 71,
                    "time": 131.98856100000197,
                    "velocity": 0.36220472440944884,
                    "duration": 0.15883099999999217
                },
                {
                    "name": "B3",
                    "midi": 59,
                    "time": 132.14739200000196,
                    "velocity": 0.47244094488188976,
                    "duration": 0.15883099999999217
                },
                {
                    "name": "E4",
                    "midi": 64,
                    "time": 132.30622300000195,
                    "velocity": 0.36220472440944884,
                    "duration": 0.15883099999999217
                },
                {
                    "name": "G#4",
                    "midi": 68,
                    "time": 132.46505400000194,
                    "velocity": 0.41732283464566927,
                    "duration": 0.15883099999999217
                },
                {
                    "name": "B4",
                    "midi": 71,
                    "time": 132.62388500000193,
                    "velocity": 0.3464566929133858,
                    "duration": 0.15883099999999217
                },
                {
                    "name": "C4",
                    "midi": 60,
                    "time": 132.78271600000193,
                    "velocity": 0.33858267716535434,
                    "duration": 0.15883099999999217
                },
                {
                    "name": "E4",
                    "midi": 64,
                    "time": 132.94154700000192,
                    "velocity": 0.36220472440944884,
                    "duration": 0.15883099999999217
                },
                {
                    "name": "G#4",
                    "midi": 68,
                    "time": 133.1003780000019,
                    "velocity": 0.41732283464566927,
                    "duration": 0.15883099999999217
                },
                {
                    "name": "C5",
                    "midi": 72,
                    "time": 133.2592090000019,
                    "velocity": 0.3700787401574803,
                    "duration": 0.15883099999999217
                },
                {
                    "name": "C#4",
                    "midi": 61,
                    "time": 133.5768710000019,
                    "velocity": 0.4251968503937008,
                    "duration": 0.15883099999999217
                },
                {
                    "name": "E4",
                    "midi": 64,
                    "time": 133.73570200000188,
                    "velocity": 0.3700787401574803,
                    "duration": 0.15883099999999217
                },
                {
                    "name": "F#4",
                    "midi": 66,
                    "time": 133.89453300000187,
                    "velocity": 0.31496062992125984,
                    "duration": 0.15883099999999217
                },
                {
                    "name": "E3",
                    "midi": 52,
                    "time": 134.05336400000186,
                    "velocity": 0.33858267716535434,
                    "duration": 0.15883099999999217
                },
                {
                    "name": "F#3",
                    "midi": 54,
                    "time": 134.21219500000186,
                    "velocity": 0.41732283464566927,
                    "duration": 0.15883099999999217
                },
                {
                    "name": "A3",
                    "midi": 57,
                    "time": 134.37102600000185,
                    "velocity": 0.41732283464566927,
                    "duration": 0.15883099999999217
                },
                {
                    "name": "C4",
                    "midi": 60,
                    "time": 134.52985700000184,
                    "velocity": 0.3700787401574803,
                    "duration": 0.15883099999999217
                },
                {
                    "name": "E3",
                    "midi": 52,
                    "time": 134.84751900000182,
                    "velocity": 0.33858267716535434,
                    "duration": 0.15883099999999217
                },
                {
                    "name": "G#3",
                    "midi": 56,
                    "time": 135.00635000000182,
                    "velocity": 0.31496062992125984,
                    "duration": 0.15883099999999217
                },
                {
                    "name": "B3",
                    "midi": 59,
                    "time": 135.1651810000018,
                    "velocity": 0.2677165354330709,
                    "duration": 0.15883099999999217
                },
                {
                    "name": "B2",
                    "midi": 47,
                    "time": 135.3240120000018,
                    "velocity": 0.33070866141732286,
                    "duration": 0.15883099999999217
                },
                {
                    "name": "E3",
                    "midi": 52,
                    "time": 135.4828430000018,
                    "velocity": 0.2677165354330709,
                    "duration": 0.15883099999999217
                },
                {
                    "name": "G#3",
                    "midi": 56,
                    "time": 135.64167400000179,
                    "velocity": 0.31496062992125984,
                    "duration": 0.15883099999999217
                },
                {
                    "name": "B3",
                    "midi": 59,
                    "time": 135.80050500000178,
                    "velocity": 0.28346456692913385,
                    "duration": 0.15883099999999217
                },
                {
                    "name": "B2",
                    "midi": 47,
                    "time": 135.95933600000177,
                    "velocity": 0.2283464566929134,
                    "duration": 0.15883099999999217
                },
                {
                    "name": "F#3",
                    "midi": 54,
                    "time": 136.11816700000176,
                    "velocity": 0.2440944881889764,
                    "duration": 0.15883099999999217
                },
                {
                    "name": "A3",
                    "midi": 57,
                    "time": 136.27699800000175,
                    "velocity": 0.2992125984251969,
                    "duration": 0.15883099999999217
                },
                {
                    "name": "B3",
                    "midi": 59,
                    "time": 136.43582900000175,
                    "velocity": 0.3464566929133858,
                    "duration": 0.15883099999999217
                },
                {
                    "name": "B2",
                    "midi": 47,
                    "time": 136.59466000000174,
                    "velocity": 0.3858267716535433,
                    "duration": 0.15883099999999217
                },
                {
                    "name": "F#3",
                    "midi": 54,
                    "time": 136.75349100000173,
                    "velocity": 0.25984251968503935,
                    "duration": 0.15883099999999217
                },
                {
                    "name": "A3",
                    "midi": 57,
                    "time": 136.91232200000172,
                    "velocity": 0.3228346456692913,
                    "duration": 0.15883099999999217
                },
                {
                    "name": "B3",
                    "midi": 59,
                    "time": 137.07115300000171,
                    "velocity": 0.2440944881889764,
                    "duration": 0.15883099999999217
                },
                {
                    "name": "B2",
                    "midi": 47,
                    "time": 137.2299840000017,
                    "velocity": 0.25196850393700787,
                    "duration": 0.15883099999999217
                },
                {
                    "name": "F3",
                    "midi": 53,
                    "time": 137.3888150000017,
                    "velocity": 0.2047244094488189,
                    "duration": 0.15883099999999217
                },
                {
                    "name": "G#3",
                    "midi": 56,
                    "time": 137.5476460000017,
                    "velocity": 0.23622047244094488,
                    "duration": 0.15883099999999217
                },
                {
                    "name": "B3",
                    "midi": 59,
                    "time": 137.70647700000168,
                    "velocity": 0.2992125984251969,
                    "duration": 0.15883099999999217
                },
                {
                    "name": "B2",
                    "midi": 47,
                    "time": 137.86530800000168,
                    "velocity": 0.3228346456692913,
                    "duration": 0.15883099999999217
                },
                {
                    "name": "F3",
                    "midi": 53,
                    "time": 138.02413900000167,
                    "velocity": 0.1968503937007874,
                    "duration": 0.15883099999999217
                },
                {
                    "name": "G#3",
                    "midi": 56,
                    "time": 138.18297000000166,
                    "velocity": 0.1968503937007874,
                    "duration": 0.15883099999999217
                },
                {
                    "name": "B3",
                    "midi": 59,
                    "time": 138.34180100000165,
                    "velocity": 0.18110236220472442,
                    "duration": 0.15883099999999217
                },
                {
                    "name": "A2",
                    "midi": 45,
                    "time": 138.50063200000164,
                    "velocity": 0.2283464566929134,
                    "duration": 0.15883099999999217
                },
                {
                    "name": "C#3",
                    "midi": 49,
                    "time": 138.65946300000164,
                    "velocity": 0.1968503937007874,
                    "duration": 0.15883099999999217
                },
                {
                    "name": "F#3",
                    "midi": 54,
                    "time": 138.81829400000163,
                    "velocity": 0.1968503937007874,
                    "duration": 0.15883099999999217
                },
                {
                    "name": "A3",
                    "midi": 57,
                    "time": 138.97712500000162,
                    "velocity": 0.1889763779527559,
                    "duration": 0.14559508333334747
                },
                {
                    "name": "A2",
                    "midi": 45,
                    "time": 139.13595600000164,
                    "velocity": 0.2440944881889764,
                    "duration": 0.15883099999999217
                },
                {
                    "name": "C#3",
                    "midi": 49,
                    "time": 139.29478700000163,
                    "velocity": 0.23622047244094488,
                    "duration": 0.15883099999999217
                },
                {
                    "name": "F#3",
                    "midi": 54,
                    "time": 139.45361800000163,
                    "velocity": 0.25984251968503935,
                    "duration": 0.15883099999999217
                },
                {
                    "name": "A3",
                    "midi": 57,
                    "time": 139.61244900000162,
                    "velocity": 0.2992125984251969,
                    "duration": 0.15883099999999217
                },
                {
                    "name": "A2",
                    "midi": 45,
                    "time": 139.7712800000016,
                    "velocity": 0.3543307086614173,
                    "duration": 0.15883099999999217
                },
                {
                    "name": "D#3",
                    "midi": 51,
                    "time": 139.9301110000016,
                    "velocity": 0.23622047244094488,
                    "duration": 0.15883099999999217
                },
                {
                    "name": "A3",
                    "midi": 57,
                    "time": 140.0889420000016,
                    "velocity": 0.25196850393700787,
                    "duration": 0.15883099999999217
                },
                {
                    "name": "B3",
                    "midi": 59,
                    "time": 140.2477730000016,
                    "velocity": 0.29133858267716534,
                    "duration": 0.15883099999999217
                },
                {
                    "name": "A2",
                    "midi": 45,
                    "time": 140.40660400000158,
                    "velocity": 0.3228346456692913,
                    "duration": 0.15883099999999217
                },
                {
                    "name": "E3",
                    "midi": 52,
                    "time": 140.56543500000157,
                    "velocity": 0.25984251968503935,
                    "duration": 0.15883099999999217
                },
                {
                    "name": "A3",
                    "midi": 57,
                    "time": 140.72426600000156,
                    "velocity": 0.29133858267716534,
                    "duration": 0.15883099999999217
                },
                {
                    "name": "B3",
                    "midi": 59,
                    "time": 140.88309700000156,
                    "velocity": 0.3228346456692913,
                    "duration": 0.15883099999999217
                },
                {
                    "name": "B2",
                    "midi": 47,
                    "time": 141.04192800000155,
                    "velocity": 0.3543307086614173,
                    "duration": 0.15883099999999217
                },
                {
                    "name": "F#3",
                    "midi": 54,
                    "time": 141.20075900000154,
                    "velocity": 0.2755905511811024,
                    "duration": 0.15883099999999217
                },
                {
                    "name": "A3",
                    "midi": 57,
                    "time": 141.35959000000153,
                    "velocity": 0.36220472440944884,
                    "duration": 0.15883099999999217
                },
                {
                    "name": "B3",
                    "midi": 59,
                    "time": 141.51842100000152,
                    "velocity": 0.2992125984251969,
                    "duration": 0.15883099999999217
                },
                {
                    "name": "B2",
                    "midi": 47,
                    "time": 141.67725200000152,
                    "velocity": 0.31496062992125984,
                    "duration": 0.15883099999999217
                },
                {
                    "name": "D#3",
                    "midi": 51,
                    "time": 141.8360830000015,
                    "velocity": 0.25196850393700787,
                    "duration": 0.15883099999999217
                },
                {
                    "name": "A3",
                    "midi": 57,
                    "time": 141.9949140000015,
                    "velocity": 0.2440944881889764,
                    "duration": 0.15883099999999217
                },
                {
                    "name": "B3",
                    "midi": 59,
                    "time": 142.1537450000015,
                    "velocity": 0.2204724409448819,
                    "duration": 0.15883099999999217
                },
                {
                    "name": "B2",
                    "midi": 47,
                    "time": 142.31257600000148,
                    "velocity": 0.28346456692913385,
                    "duration": 0.15883099999999217
                },
                {
                    "name": "E3",
                    "midi": 52,
                    "time": 142.47140700000148,
                    "velocity": 0.25196850393700787,
                    "duration": 0.15883099999999217
                },
                {
                    "name": "G#3",
                    "midi": 56,
                    "time": 142.63023800000147,
                    "velocity": 0.25196850393700787,
                    "duration": 0.15883099999999217
                },
                {
                    "name": "B3",
                    "midi": 59,
                    "time": 142.78906900000146,
                    "velocity": 0.2440944881889764,
                    "duration": 0.15883099999999217
                },
                {
                    "name": "B2",
                    "midi": 47,
                    "time": 142.94790000000145,
                    "velocity": 0.31496062992125984,
                    "duration": 0.15883099999999217
                },
                {
                    "name": "E3",
                    "midi": 52,
                    "time": 143.10673100000145,
                    "velocity": 0.2440944881889764,
                    "duration": 0.15883099999999217
                },
                {
                    "name": "G#3",
                    "midi": 56,
                    "time": 143.26556200000144,
                    "velocity": 0.2440944881889764,
                    "duration": 0.15883099999999217
                },
                {
                    "name": "B3",
                    "midi": 59,
                    "time": 143.42439300000143,
                    "velocity": 0.2204724409448819,
                    "duration": 0.15883099999999217
                },
                {
                    "name": "B2",
                    "midi": 47,
                    "time": 143.58322400000142,
                    "velocity": 0.28346456692913385,
                    "duration": 0.15883099999999217
                },
                {
                    "name": "E3",
                    "midi": 52,
                    "time": 143.74205500000141,
                    "velocity": 0.2440944881889764,
                    "duration": 0.15883099999999217
                },
                {
                    "name": "G#3",
                    "midi": 56,
                    "time": 143.9008860000014,
                    "velocity": 0.2440944881889764,
                    "duration": 0.15883099999999217
                },
                {
                    "name": "B3",
                    "midi": 59,
                    "time": 144.0597170000014,
                    "velocity": 0.23622047244094488,
                    "duration": 0.15883099999999217
                },
                {
                    "name": "B2",
                    "midi": 47,
                    "time": 144.2185480000014,
                    "velocity": 0.2677165354330709,
                    "duration": 0.15883099999999217
                },
                {
                    "name": "E3",
                    "midi": 52,
                    "time": 144.37737900000138,
                    "velocity": 0.23622047244094488,
                    "duration": 0.15883099999999217
                },
                {
                    "name": "G#3",
                    "midi": 56,
                    "time": 144.53621000000138,
                    "velocity": 0.2440944881889764,
                    "duration": 0.15883099999999217
                },
                {
                    "name": "B3",
                    "midi": 59,
                    "time": 144.69504100000137,
                    "velocity": 0.25984251968503935,
                    "duration": 0.15883099999999217
                },
                {
                    "name": "A2",
                    "midi": 45,
                    "time": 144.85387200000136,
                    "velocity": 0.25984251968503935,
                    "duration": 0.15883099999999217
                },
                {
                    "name": "C#3",
                    "midi": 49,
                    "time": 145.01270300000135,
                    "velocity": 0.1889763779527559,
                    "duration": 0.15883099999999217
                },
                {
                    "name": "E3",
                    "midi": 52,
                    "time": 145.17153400000134,
                    "velocity": 0.1889763779527559,
                    "duration": 0.15883099999999217
                },
                {
                    "name": "A3",
                    "midi": 57,
                    "time": 145.33036500000134,
                    "velocity": 0.18110236220472442,
                    "duration": 0.15883099999999217
                },
                {
                    "name": "A2",
                    "midi": 45,
                    "time": 145.48919600000133,
                    "velocity": 0.23622047244094488,
                    "duration": 0.15883099999999217
                },
                {
                    "name": "C#3",
                    "midi": 49,
                    "time": 145.64802700000132,
                    "velocity": 0.18110236220472442,
                    "duration": 0.15883099999999217
                },
                {
                    "name": "E3",
                    "midi": 52,
                    "time": 145.8068580000013,
                    "velocity": 0.18110236220472442,
                    "duration": 0.15883099999999217
                },
                {
                    "name": "A3",
                    "midi": 57,
                    "time": 145.9656890000013,
                    "velocity": 0.15748031496062992,
                    "duration": 0.15883099999999217
                },
                {
                    "name": "A2",
                    "midi": 45,
                    "time": 146.1245200000013,
                    "velocity": 0.2283464566929134,
                    "duration": 0.15883099999999217
                },
                {
                    "name": "C#3",
                    "midi": 49,
                    "time": 146.2833510000013,
                    "velocity": 0.1889763779527559,
                    "duration": 0.15883099999999217
                },
                {
                    "name": "E3",
                    "midi": 52,
                    "time": 146.44218200000128,
                    "velocity": 0.2283464566929134,
                    "duration": 0.15883099999999217
                },
                {
                    "name": "A3",
                    "midi": 57,
                    "time": 146.60101300000127,
                    "velocity": 0.2755905511811024,
                    "duration": 0.15883099999999217
                },
                {
                    "name": "A2",
                    "midi": 45,
                    "time": 146.75984400000127,
                    "velocity": 0.2283464566929134,
                    "duration": 0.15883099999999217
                },
                {
                    "name": "C3",
                    "midi": 48,
                    "time": 146.91867500000126,
                    "velocity": 0.1968503937007874,
                    "duration": 0.15883099999999217
                },
                {
                    "name": "E3",
                    "midi": 52,
                    "time": 147.07750600000125,
                    "velocity": 0.2125984251968504,
                    "duration": 0.15883099999999217
                },
                {
                    "name": "A3",
                    "midi": 57,
                    "time": 147.23633700000124,
                    "velocity": 0.2204724409448819,
                    "duration": 0.15883099999999217
                },
                {
                    "name": "F#2",
                    "midi": 42,
                    "time": 147.39516800000123,
                    "velocity": 0.2283464566929134,
                    "duration": 0.15883099999999217
                },
                {
                    "name": "B2",
                    "midi": 47,
                    "time": 147.55399900000123,
                    "velocity": 0.16535433070866143,
                    "duration": 0.15883099999999217
                },
                {
                    "name": "D#3",
                    "midi": 51,
                    "time": 147.71283000000122,
                    "velocity": 0.16535433070866143,
                    "duration": 0.15883099999999217
                },
                {
                    "name": "A3",
                    "midi": 57,
                    "time": 147.8716610000012,
                    "velocity": 0.15748031496062992,
                    "duration": 0.15883099999999217
                },
                {
                    "name": "F#2",
                    "midi": 42,
                    "time": 148.0304920000012,
                    "velocity": 0.1968503937007874,
                    "duration": 0.15883099999999217
                },
                {
                    "name": "B2",
                    "midi": 47,
                    "time": 148.1893230000012,
                    "velocity": 0.15748031496062992,
                    "duration": 0.15883099999999217
                },
                {
                    "name": "D#3",
                    "midi": 51,
                    "time": 148.3481540000012,
                    "velocity": 0.14960629921259844,
                    "duration": 0.15883099999999217
                },
                {
                    "name": "A3",
                    "midi": 57,
                    "time": 148.50698500000118,
                    "velocity": 0.13385826771653545,
                    "duration": 0.15883099999999217
                },
                {
                    "name": "F#2",
                    "midi": 42,
                    "time": 148.66581600000117,
                    "velocity": 0.1968503937007874,
                    "duration": 0.15883099999999217
                },
                {
                    "name": "B2",
                    "midi": 47,
                    "time": 148.82464700000116,
                    "velocity": 0.15748031496062992,
                    "duration": 0.15883099999999217
                },
                {
                    "name": "D#3",
                    "midi": 51,
                    "time": 148.98347800000116,
                    "velocity": 0.1889763779527559,
                    "duration": 0.15883099999999217
                },
                {
                    "name": "A3",
                    "midi": 57,
                    "time": 149.14230900000115,
                    "velocity": 0.23622047244094488,
                    "duration": 0.15883099999999217
                },
                {
                    "name": "B2",
                    "midi": 47,
                    "time": 149.30114000000114,
                    "velocity": 0.1968503937007874,
                    "duration": 0.15883099999999217
                },
                {
                    "name": "D#3",
                    "midi": 51,
                    "time": 149.45997100000113,
                    "velocity": 0.16535433070866143,
                    "duration": 0.15883099999999217
                },
                {
                    "name": "A3",
                    "midi": 57,
                    "time": 149.61880200000112,
                    "velocity": 0.18110236220472442,
                    "duration": 0.15883099999999217
                },
                {
                    "name": "B3",
                    "midi": 59,
                    "time": 149.77763300000112,
                    "velocity": 0.1889763779527559,
                    "duration": 0.15883099999999217
                },
                {
                    "name": "B2",
                    "midi": 47,
                    "time": 149.9364640000011,
                    "velocity": 0.1889763779527559,
                    "duration": 0.15883099999999217
                },
                {
                    "name": "E3",
                    "midi": 52,
                    "time": 150.0952950000011,
                    "velocity": 0.14173228346456693,
                    "duration": 0.15883099999999217
                },
                {
                    "name": "G#3",
                    "midi": 56,
                    "time": 150.2541260000011,
                    "velocity": 0.14173228346456693,
                    "duration": 0.15883099999999217
                },
                {
                    "name": "B3",
                    "midi": 59,
                    "time": 150.4129570000011,
                    "velocity": 0.13385826771653545,
                    "duration": 0.15883099999999217
                },
                {
                    "name": "B2",
                    "midi": 47,
                    "time": 150.57178800000108,
                    "velocity": 0.1732283464566929,
                    "duration": 0.15883099999999217
                },
                {
                    "name": "E3",
                    "midi": 52,
                    "time": 150.73061900000107,
                    "velocity": 0.13385826771653545,
                    "duration": 0.15883099999999217
                },
                {
                    "name": "G#3",
                    "midi": 56,
                    "time": 150.88945000000106,
                    "velocity": 0.13385826771653545,
                    "duration": 0.15883099999999217
                },
                {
                    "name": "B3",
                    "midi": 59,
                    "time": 151.04828100000105,
                    "velocity": 0.12598425196850394,
                    "duration": 0.15883099999999217
                },
                {
                    "name": "B2",
                    "midi": 47,
                    "time": 151.20711200000105,
                    "velocity": 0.18110236220472442,
                    "duration": 0.15883099999999217
                },
                {
                    "name": "E3",
                    "midi": 52,
                    "time": 151.36594300000104,
                    "velocity": 0.11811023622047244,
                    "duration": 0.15883099999999217
                },
                {
                    "name": "G#3",
                    "midi": 56,
                    "time": 151.52477400000103,
                    "velocity": 0.14960629921259844,
                    "duration": 0.15883099999999217
                },
                {
                    "name": "B3",
                    "midi": 59,
                    "time": 151.68360500000102,
                    "velocity": 0.1732283464566929,
                    "duration": 0.15883099999999217
                },
                {
                    "name": "B2",
                    "midi": 47,
                    "time": 151.84243600000102,
                    "velocity": 0.1889763779527559,
                    "duration": 0.15883099999999217
                },
                {
                    "name": "E3",
                    "midi": 52,
                    "time": 152.001267000001,
                    "velocity": 0.14173228346456693,
                    "duration": 0.15883099999999217
                },
                {
                    "name": "G#3",
                    "midi": 56,
                    "time": 152.160098000001,
                    "velocity": 0.15748031496062992,
                    "duration": 0.15883099999999217
                },
                {
                    "name": "B3",
                    "midi": 59,
                    "time": 152.318929000001,
                    "velocity": 0.15748031496062992,
                    "duration": 0.15883099999999217
                },
                {
                    "name": "B2",
                    "midi": 47,
                    "time": 152.47776000000098,
                    "velocity": 0.1889763779527559,
                    "duration": 0.15883099999999217
                },
                {
                    "name": "E3",
                    "midi": 52,
                    "time": 152.63659100000098,
                    "velocity": 0.13385826771653545,
                    "duration": 0.15883099999999217
                },
                {
                    "name": "G#3",
                    "midi": 56,
                    "time": 152.79542200000097,
                    "velocity": 0.13385826771653545,
                    "duration": 0.15883099999999217
                },
                {
                    "name": "B3",
                    "midi": 59,
                    "time": 152.95425300000096,
                    "velocity": 0.13385826771653545,
                    "duration": 0.15883099999999217
                },
                {
                    "name": "B2",
                    "midi": 47,
                    "time": 153.11308400000095,
                    "velocity": 0.16535433070866143,
                    "duration": 0.15883099999999217
                },
                {
                    "name": "E3",
                    "midi": 52,
                    "time": 153.27191500000094,
                    "velocity": 0.13385826771653545,
                    "duration": 0.15883099999999217
                },
                {
                    "name": "G#3",
                    "midi": 56,
                    "time": 153.43074600000094,
                    "velocity": 0.12598425196850394,
                    "duration": 0.15883099999999217
                },
                {
                    "name": "B3",
                    "midi": 59,
                    "time": 153.58957700000093,
                    "velocity": 0.11023622047244094,
                    "duration": 0.15883099999999217
                },
                {
                    "name": "B2",
                    "midi": 47,
                    "time": 153.74840800000092,
                    "velocity": 0.1889763779527559,
                    "duration": 0.15883099999999217
                },
                {
                    "name": "E3",
                    "midi": 52,
                    "time": 153.9072390000009,
                    "velocity": 0.13385826771653545,
                    "duration": 0.15883099999999217
                },
                {
                    "name": "G#3",
                    "midi": 56,
                    "time": 154.0660700000009,
                    "velocity": 0.13385826771653545,
                    "duration": 0.15883099999999217
                },
                {
                    "name": "B3",
                    "midi": 59,
                    "time": 154.2249010000009,
                    "velocity": 0.13385826771653545,
                    "duration": 0.15883099999999217
                },
                {
                    "name": "B2",
                    "midi": 47,
                    "time": 154.3837320000009,
                    "velocity": 0.16535433070866143,
                    "duration": 0.15883099999999217
                },
                {
                    "name": "E3",
                    "midi": 52,
                    "time": 154.54256300000088,
                    "velocity": 0.13385826771653545,
                    "duration": 0.15883099999999217
                },
                {
                    "name": "G#3",
                    "midi": 56,
                    "time": 154.70139400000087,
                    "velocity": 0.12598425196850394,
                    "duration": 0.15883099999999217
                },
                {
                    "name": "B3",
                    "midi": 59,
                    "time": 154.86022500000087,
                    "velocity": 0.11023622047244094,
                    "duration": 0.15883099999999217
                }
            ],
            "controlChanges": {},
            "id": 2,
            "name": "Piano middle",
            "instrumentNumber": 0,
            "instrument": "acoustic grand piano",
            "instrumentFamily": "piano",
            "channelNumber": 0,
            "isPercussion": false
        },
        {
            "startTime": 0,
            "duration": 157.5603519999997,
            "length": 167,
            "notes": [
                {
                    "name": "E2",
                    "midi": 40,
                    "time": 0,
                    "velocity": 0.31496062992125984,
                    "duration": 1.270648
                },
                {
                    "name": "G#2",
                    "midi": 44,
                    "time": 1.270648,
                    "velocity": 0.33070866141732286,
                    "duration": 1.270648
                },
                {
                    "name": "F#2",
                    "midi": 42,
                    "time": 2.541296,
                    "velocity": 0.3543307086614173,
                    "duration": 1.270648
                },
                {
                    "name": "B1",
                    "midi": 35,
                    "time": 3.811944,
                    "velocity": 0.3228346456692913,
                    "duration": 0.6353240000000002
                },
                {
                    "name": "E2",
                    "midi": 40,
                    "time": 5.082592,
                    "velocity": 0.36220472440944884,
                    "duration": 0.6353239999999998
                },
                {
                    "name": "F#2",
                    "midi": 42,
                    "time": 5.717916,
                    "velocity": 0.33070866141732286,
                    "duration": 0.6353239999999998
                },
                {
                    "name": "G#2",
                    "midi": 44,
                    "time": 6.3532399999999996,
                    "velocity": 0.33070866141732286,
                    "duration": 0.6353239999999998
                },
                {
                    "name": "A#2",
                    "midi": 46,
                    "time": 6.988563999999999,
                    "velocity": 0.33070866141732286,
                    "duration": 0.6353239999999998
                },
                {
                    "name": "B2",
                    "midi": 47,
                    "time": 7.623887999999999,
                    "velocity": 0.36220472440944884,
                    "duration": 0.6353240000000007
                },
                {
                    "name": "C#3",
                    "midi": 49,
                    "time": 8.259212,
                    "velocity": 0.33070866141732286,
                    "duration": 0.6353240000000007
                },
                {
                    "name": "D#3",
                    "midi": 51,
                    "time": 8.894536,
                    "velocity": 0.29133858267716534,
                    "duration": 0.6353240000000007
                },
                {
                    "name": "F3",
                    "midi": 53,
                    "time": 9.529860000000001,
                    "velocity": 0.33070866141732286,
                    "duration": 0.6353240000000007
                },
                {
                    "name": "F#3",
                    "midi": 54,
                    "time": 10.165184000000002,
                    "velocity": 0.36220472440944884,
                    "duration": 0.6353240000000007
                },
                {
                    "name": "B2",
                    "midi": 47,
                    "time": 10.800508000000002,
                    "velocity": 0.33070866141732286,
                    "duration": 0.6353240000000007
                },
                {
                    "name": "E3",
                    "midi": 52,
                    "time": 11.435832000000003,
                    "velocity": 0.33070866141732286,
                    "duration": 0.6353240000000007
                },
                {
                    "name": "A2",
                    "midi": 45,
                    "time": 12.071156000000004,
                    "velocity": 0.33070866141732286,
                    "duration": 0.6353240000000007
                },
                {
                    "name": "B2",
                    "midi": 47,
                    "time": 12.706480000000004,
                    "velocity": 0.36220472440944884,
                    "duration": 1.2706479999999996
                },
                {
                    "name": "B2",
                    "midi": 47,
                    "time": 13.977128000000004,
                    "velocity": 0.2992125984251969,
                    "duration": 0.31766200000000033
                },
                {
                    "name": "D#2",
                    "midi": 39,
                    "time": 14.612452000000005,
                    "velocity": 0.33070866141732286,
                    "duration": 0.6353240000000007
                },
                {
                    "name": "E2",
                    "midi": 40,
                    "time": 15.247776000000005,
                    "velocity": 0.36220472440944884,
                    "duration": 0.6353240000000007
                },
                {
                    "name": "F#2",
                    "midi": 42,
                    "time": 15.883100000000006,
                    "velocity": 0.33070866141732286,
                    "duration": 0.6353240000000007
                },
                {
                    "name": "G#2",
                    "midi": 44,
                    "time": 16.518424000000007,
                    "velocity": 0.33070866141732286,
                    "duration": 0.6353240000000007
                },
                {
                    "name": "A#2",
                    "midi": 46,
                    "time": 17.153748000000007,
                    "velocity": 0.33070866141732286,
                    "duration": 0.6353240000000007
                },
                {
                    "name": "B2",
                    "midi": 47,
                    "time": 17.789072000000008,
                    "velocity": 0.36220472440944884,
                    "duration": 0.6353240000000007
                },
                {
                    "name": "C#3",
                    "midi": 49,
                    "time": 18.42439600000001,
                    "velocity": 0.33070866141732286,
                    "duration": 0.6353240000000007
                },
                {
                    "name": "D#3",
                    "midi": 51,
                    "time": 19.05972000000001,
                    "velocity": 0.29133858267716534,
                    "duration": 0.6353240000000007
                },
                {
                    "name": "E3",
                    "midi": 52,
                    "time": 19.69504400000001,
                    "velocity": 0.33070866141732286,
                    "duration": 0.6353240000000007
                },
                {
                    "name": "C#3",
                    "midi": 49,
                    "time": 20.33036800000001,
                    "velocity": 0.3779527559055118,
                    "duration": 0.6353240000000007
                },
                {
                    "name": "G#3",
                    "midi": 56,
                    "time": 20.96569200000001,
                    "velocity": 0.4251968503937008,
                    "duration": 0.6353240000000007
                },
                {
                    "name": "E3",
                    "midi": 52,
                    "time": 21.601016000000012,
                    "velocity": 0.3858267716535433,
                    "duration": 1.9059719999999984
                },
                {
                    "name": "G#3",
                    "midi": 56,
                    "time": 23.50698800000001,
                    "velocity": 0.29133858267716534,
                    "duration": 0.6353240000000007
                },
                {
                    "name": "F3",
                    "midi": 53,
                    "time": 24.14231200000001,
                    "velocity": 0.2677165354330709,
                    "duration": 1.2706480000000013
                },
                {
                    "name": "F#3",
                    "midi": 54,
                    "time": 25.412960000000012,
                    "velocity": 0.36220472440944884,
                    "duration": 0.6353240000000007
                },
                {
                    "name": "A#2",
                    "midi": 46,
                    "time": 26.048284000000013,
                    "velocity": 0.33070866141732286,
                    "duration": 0.6353240000000007
                },
                {
                    "name": "B2",
                    "midi": 47,
                    "time": 26.683608000000014,
                    "velocity": 0.33070866141732286,
                    "duration": 0.6353240000000007
                },
                {
                    "name": "E3",
                    "midi": 52,
                    "time": 27.318932000000014,
                    "velocity": 0.33070866141732286,
                    "duration": 0.6353240000000007
                },
                {
                    "name": "F#3",
                    "midi": 54,
                    "time": 27.954256000000015,
                    "velocity": 0.36220472440944884,
                    "duration": 0.6353240000000007
                },
                {
                    "name": "F#2",
                    "midi": 42,
                    "time": 29.860228000000017,
                    "velocity": 0.2992125984251969,
                    "duration": 1.2706480000000013
                },
                {
                    "name": "F#2",
                    "midi": 42,
                    "time": 31.13087600000002,
                    "velocity": 0.31496062992125984,
                    "duration": 0.6353240000000007
                },
                {
                    "name": "E2",
                    "midi": 40,
                    "time": 31.76620000000002,
                    "velocity": 0.2677165354330709,
                    "duration": 0.6353239999999971
                },
                {
                    "name": "D#2",
                    "midi": 39,
                    "time": 32.401524000000016,
                    "velocity": 0.30708661417322836,
                    "duration": 0.6353239999999971
                },
                {
                    "name": "C#2",
                    "midi": 37,
                    "time": 33.03684800000001,
                    "velocity": 0.3779527559055118,
                    "duration": 0.6353239999999971
                },
                {
                    "name": "B2",
                    "midi": 47,
                    "time": 33.67217200000001,
                    "velocity": 0.41732283464566927,
                    "duration": 0.6353239999999971
                },
                {
                    "name": "A#2",
                    "midi": 46,
                    "time": 34.30749600000001,
                    "velocity": 0.44881889763779526,
                    "duration": 0.6353239999999971
                },
                {
                    "name": "F#2",
                    "midi": 42,
                    "time": 34.942820000000005,
                    "velocity": 0.4881889763779528,
                    "duration": 0.6353239999999971
                },
                {
                    "name": "B2",
                    "midi": 47,
                    "time": 35.578144,
                    "velocity": 0.4330708661417323,
                    "duration": 1.9059719999999984
                },
                {
                    "name": "E2",
                    "midi": 40,
                    "time": 38.11944,
                    "velocity": 0.36220472440944884,
                    "duration": 0.6353239999999971
                },
                {
                    "name": "F#2",
                    "midi": 42,
                    "time": 38.754763999999994,
                    "velocity": 0.33070866141732286,
                    "duration": 0.6353239999999971
                },
                {
                    "name": "G#2",
                    "midi": 44,
                    "time": 39.39008799999999,
                    "velocity": 0.33070866141732286,
                    "duration": 0.6353239999999971
                },
                {
                    "name": "A#2",
                    "midi": 46,
                    "time": 40.02541199999999,
                    "velocity": 0.33070866141732286,
                    "duration": 0.6353239999999971
                },
                {
                    "name": "B2",
                    "midi": 47,
                    "time": 40.660735999999986,
                    "velocity": 0.36220472440944884,
                    "duration": 0.6353239999999971
                },
                {
                    "name": "C#3",
                    "midi": 49,
                    "time": 41.29605999999998,
                    "velocity": 0.33070866141732286,
                    "duration": 0.6353239999999971
                },
                {
                    "name": "D#3",
                    "midi": 51,
                    "time": 41.93138399999998,
                    "velocity": 0.29133858267716534,
                    "duration": 0.6353239999999971
                },
                {
                    "name": "F3",
                    "midi": 53,
                    "time": 42.56670799999998,
                    "velocity": 0.33070866141732286,
                    "duration": 0.6353239999999971
                },
                {
                    "name": "F#3",
                    "midi": 54,
                    "time": 43.202031999999974,
                    "velocity": 0.36220472440944884,
                    "duration": 0.6353239999999971
                },
                {
                    "name": "B2",
                    "midi": 47,
                    "time": 43.83735599999997,
                    "velocity": 0.33070866141732286,
                    "duration": 0.6353239999999971
                },
                {
                    "name": "E3",
                    "midi": 52,
                    "time": 44.47267999999997,
                    "velocity": 0.33070866141732286,
                    "duration": 0.6353239999999971
                },
                {
                    "name": "A2",
                    "midi": 45,
                    "time": 45.108003999999966,
                    "velocity": 0.33070866141732286,
                    "duration": 0.6353239999999971
                },
                {
                    "name": "B2",
                    "midi": 47,
                    "time": 45.74332799999996,
                    "velocity": 0.36220472440944884,
                    "duration": 1.2706480000000013
                },
                {
                    "name": "B2",
                    "midi": 47,
                    "time": 47.013975999999964,
                    "velocity": 0.2992125984251969,
                    "duration": 0.31766199999999856
                },
                {
                    "name": "D#2",
                    "midi": 39,
                    "time": 47.64929999999996,
                    "velocity": 0.33070866141732286,
                    "duration": 0.6353239999999971
                },
                {
                    "name": "E2",
                    "midi": 40,
                    "time": 48.28462399999996,
                    "velocity": 0.36220472440944884,
                    "duration": 0.6353239999999971
                },
                {
                    "name": "F#2",
                    "midi": 42,
                    "time": 48.919947999999955,
                    "velocity": 0.33070866141732286,
                    "duration": 0.6353239999999971
                },
                {
                    "name": "G#2",
                    "midi": 44,
                    "time": 49.55527199999995,
                    "velocity": 0.33070866141732286,
                    "duration": 0.6353239999999971
                },
                {
                    "name": "A#2",
                    "midi": 46,
                    "time": 50.19059599999995,
                    "velocity": 0.33070866141732286,
                    "duration": 0.6353239999999971
                },
                {
                    "name": "B2",
                    "midi": 47,
                    "time": 50.82591999999995,
                    "velocity": 0.36220472440944884,
                    "duration": 0.6353239999999971
                },
                {
                    "name": "C#3",
                    "midi": 49,
                    "time": 51.461243999999944,
                    "velocity": 0.33070866141732286,
                    "duration": 0.6353239999999971
                },
                {
                    "name": "D#3",
                    "midi": 51,
                    "time": 52.09656799999994,
                    "velocity": 0.29133858267716534,
                    "duration": 0.6353239999999971
                },
                {
                    "name": "E3",
                    "midi": 52,
                    "time": 52.73189199999994,
                    "velocity": 0.33070866141732286,
                    "duration": 0.6353239999999971
                },
                {
                    "name": "C#3",
                    "midi": 49,
                    "time": 53.367215999999935,
                    "velocity": 0.3779527559055118,
                    "duration": 0.6353239999999971
                },
                {
                    "name": "G#3",
                    "midi": 56,
                    "time": 54.00253999999993,
                    "velocity": 0.4251968503937008,
                    "duration": 0.6353239999999971
                },
                {
                    "name": "E3",
                    "midi": 52,
                    "time": 54.63786399999993,
                    "velocity": 0.3858267716535433,
                    "duration": 1.9059719999999984
                },
                {
                    "name": "G#3",
                    "midi": 56,
                    "time": 56.54383599999993,
                    "velocity": 0.29133858267716534,
                    "duration": 0.6353239999999971
                },
                {
                    "name": "F3",
                    "midi": 53,
                    "time": 57.179159999999925,
                    "velocity": 0.2677165354330709,
                    "duration": 1.2706480000000013
                },
                {
                    "name": "F#3",
                    "midi": 54,
                    "time": 58.449807999999926,
                    "velocity": 0.36220472440944884,
                    "duration": 0.6353239999999971
                },
                {
                    "name": "A#2",
                    "midi": 46,
                    "time": 59.08513199999992,
                    "velocity": 0.33070866141732286,
                    "duration": 0.6353239999999971
                },
                {
                    "name": "B2",
                    "midi": 47,
                    "time": 59.72045599999992,
                    "velocity": 0.33070866141732286,
                    "duration": 0.6353239999999971
                },
                {
                    "name": "E3",
                    "midi": 52,
                    "time": 60.35577999999992,
                    "velocity": 0.33070866141732286,
                    "duration": 0.6353239999999971
                },
                {
                    "name": "F#3",
                    "midi": 54,
                    "time": 60.991103999999915,
                    "velocity": 0.36220472440944884,
                    "duration": 0.6353239999999971
                },
                {
                    "name": "F#2",
                    "midi": 42,
                    "time": 62.89707599999991,
                    "velocity": 0.2992125984251969,
                    "duration": 1.2706479999999942
                },
                {
                    "name": "F#2",
                    "midi": 42,
                    "time": 64.16772399999991,
                    "velocity": 0.31496062992125984,
                    "duration": 0.6353239999999971
                },
                {
                    "name": "E2",
                    "midi": 40,
                    "time": 64.8030479999999,
                    "velocity": 0.2677165354330709,
                    "duration": 0.6353239999999971
                },
                {
                    "name": "D#2",
                    "midi": 39,
                    "time": 65.4383719999999,
                    "velocity": 0.30708661417322836,
                    "duration": 0.6353239999999971
                },
                {
                    "name": "C#2",
                    "midi": 37,
                    "time": 66.0736959999999,
                    "velocity": 0.3779527559055118,
                    "duration": 0.6353239999999971
                },
                {
                    "name": "B2",
                    "midi": 47,
                    "time": 66.7090199999999,
                    "velocity": 0.41732283464566927,
                    "duration": 0.6353239999999971
                },
                {
                    "name": "A#2",
                    "midi": 46,
                    "time": 67.3443439999999,
                    "velocity": 0.44881889763779526,
                    "duration": 0.6353239999999971
                },
                {
                    "name": "F#2",
                    "midi": 42,
                    "time": 67.97966799999989,
                    "velocity": 0.4881889763779528,
                    "duration": 0.6353239999999971
                },
                {
                    "name": "B2",
                    "midi": 47,
                    "time": 68.61499199999989,
                    "velocity": 0.4330708661417323,
                    "duration": 1.9059720000000056
                },
                {
                    "name": "E2",
                    "midi": 40,
                    "time": 71.15628799999989,
                    "velocity": 0.36220472440944884,
                    "duration": 1.2706479999999942
                },
                {
                    "name": "F#2",
                    "midi": 42,
                    "time": 72.42693599999988,
                    "velocity": 0.36220472440944884,
                    "duration": 0.6353239999999971
                },
                {
                    "name": "D3",
                    "midi": 50,
                    "time": 73.06225999999988,
                    "velocity": 0.3858267716535433,
                    "duration": 0.6353239999999971
                },
                {
                    "name": "G2",
                    "midi": 43,
                    "time": 73.69758399999988,
                    "velocity": 0.4409448818897638,
                    "duration": 1.2706479999999942
                },
                {
                    "name": "A2",
                    "midi": 45,
                    "time": 74.96823199999987,
                    "velocity": 0.4409448818897638,
                    "duration": 1.2706479999999942
                },
                {
                    "name": "B2",
                    "midi": 47,
                    "time": 76.23887999999987,
                    "velocity": 0.5275590551181102,
                    "duration": 1.2706479999999942
                },
                {
                    "name": "C3",
                    "midi": 48,
                    "time": 77.50952799999986,
                    "velocity": 0.5196850393700787,
                    "duration": 1.2706479999999942
                },
                {
                    "name": "D3",
                    "midi": 50,
                    "time": 78.78017599999986,
                    "velocity": 0.5196850393700787,
                    "duration": 0.6353239999999971
                },
                {
                    "name": "E3",
                    "midi": 52,
                    "time": 79.41549999999985,
                    "velocity": 0.4881889763779528,
                    "duration": 0.6353239999999971
                },
                {
                    "name": "B2",
                    "midi": 47,
                    "time": 84.49809199999984,
                    "velocity": 0.33070866141732286,
                    "duration": 0.6353239999999971
                },
                {
                    "name": "C3",
                    "midi": 48,
                    "time": 85.13341599999984,
                    "velocity": 0.33070866141732286,
                    "duration": 1.2706479999999942
                },
                {
                    "name": "D3",
                    "midi": 50,
                    "time": 86.40406399999983,
                    "velocity": 0.36220472440944884,
                    "duration": 1.2706479999999942
                },
                {
                    "name": "E3",
                    "midi": 52,
                    "time": 87.67471199999983,
                    "velocity": 0.29133858267716534,
                    "duration": 0.6353239999999971
                },
                {
                    "name": "F#3",
                    "midi": 54,
                    "time": 88.31003599999983,
                    "velocity": 0.33070866141732286,
                    "duration": 0.6353239999999971
                },
                {
                    "name": "G3",
                    "midi": 55,
                    "time": 88.94535999999982,
                    "velocity": 0.36220472440944884,
                    "duration": 0.6353239999999971
                },
                {
                    "name": "C3",
                    "midi": 48,
                    "time": 90.21600799999982,
                    "velocity": 0.29133858267716534,
                    "duration": 1.2706479999999942
                },
                {
                    "name": "B2",
                    "midi": 47,
                    "time": 91.48665599999981,
                    "velocity": 0.31496062992125984,
                    "duration": 2.5412960000000027
                },
                {
                    "name": "G2",
                    "midi": 43,
                    "time": 94.02795199999981,
                    "velocity": 0.2677165354330709,
                    "duration": 1.2706479999999942
                },
                {
                    "name": "C3",
                    "midi": 48,
                    "time": 95.29859999999981,
                    "velocity": 0.2125984251968504,
                    "duration": 1.2706479999999942
                },
                {
                    "name": "B2",
                    "midi": 47,
                    "time": 96.5692479999998,
                    "velocity": 0.23622047244094488,
                    "duration": 2.5412960000000027
                },
                {
                    "name": "B2",
                    "midi": 47,
                    "time": 99.1105439999998,
                    "velocity": 0.36220472440944884,
                    "duration": 2.5412960000000027
                },
                {
                    "name": "B2",
                    "midi": 47,
                    "time": 101.65183999999981,
                    "velocity": 0.36220472440944884,
                    "duration": 1.9059720000000056
                },
                {
                    "name": "E2",
                    "midi": 40,
                    "time": 104.19313599999981,
                    "velocity": 0.5039370078740157,
                    "duration": 0.6353239999999971
                },
                {
                    "name": "F#2",
                    "midi": 42,
                    "time": 104.82845999999981,
                    "velocity": 0.4566929133858268,
                    "duration": 0.6353239999999971
                },
                {
                    "name": "G#2",
                    "midi": 44,
                    "time": 105.4637839999998,
                    "velocity": 0.4566929133858268,
                    "duration": 0.6353239999999971
                },
                {
                    "name": "A#2",
                    "midi": 46,
                    "time": 106.0991079999998,
                    "velocity": 0.4566929133858268,
                    "duration": 0.6353239999999971
                },
                {
                    "name": "B2",
                    "midi": 47,
                    "time": 106.7344319999998,
                    "velocity": 0.5039370078740157,
                    "duration": 0.6353239999999971
                },
                {
                    "name": "C#3",
                    "midi": 49,
                    "time": 107.3697559999998,
                    "velocity": 0.4566929133858268,
                    "duration": 0.6353239999999971
                },
                {
                    "name": "D#3",
                    "midi": 51,
                    "time": 108.0050799999998,
                    "velocity": 0.4015748031496063,
                    "duration": 0.6353239999999971
                },
                {
                    "name": "F3",
                    "midi": 53,
                    "time": 108.64040399999979,
                    "velocity": 0.4566929133858268,
                    "duration": 0.6353239999999971
                },
                {
                    "name": "F#3",
                    "midi": 54,
                    "time": 109.27572799999979,
                    "velocity": 0.5039370078740157,
                    "duration": 0.6353239999999971
                },
                {
                    "name": "B2",
                    "midi": 47,
                    "time": 109.91105199999978,
                    "velocity": 0.4566929133858268,
                    "duration": 0.6353239999999971
                },
                {
                    "name": "E3",
                    "midi": 52,
                    "time": 110.54637599999978,
                    "velocity": 0.4566929133858268,
                    "duration": 0.6353239999999971
                },
                {
                    "name": "C#3",
                    "midi": 49,
                    "time": 111.18169999999978,
                    "velocity": 0.4566929133858268,
                    "duration": 0.6353239999999971
                },
                {
                    "name": "B2",
                    "midi": 47,
                    "time": 111.81702399999978,
                    "velocity": 0.5039370078740157,
                    "duration": 1.9059720000000056
                },
                {
                    "name": "A2",
                    "midi": 45,
                    "time": 113.72299599999978,
                    "velocity": 0.29133858267716534,
                    "duration": 0.6353239999999971
                },
                {
                    "name": "G#2",
                    "midi": 44,
                    "time": 114.35831999999978,
                    "velocity": 0.36220472440944884,
                    "duration": 1.2706479999999942
                },
                {
                    "name": "A2",
                    "midi": 45,
                    "time": 115.62896799999977,
                    "velocity": 0.33070866141732286,
                    "duration": 1.2706479999999942
                },
                {
                    "name": "B2",
                    "midi": 47,
                    "time": 116.89961599999977,
                    "velocity": 0.36220472440944884,
                    "duration": 1.2706479999999942
                },
                {
                    "name": "C#3",
                    "midi": 49,
                    "time": 118.17026399999976,
                    "velocity": 0.2992125984251969,
                    "duration": 1.2706479999999942
                },
                {
                    "name": "B2",
                    "midi": 47,
                    "time": 119.44091199999976,
                    "velocity": 0.3858267716535433,
                    "duration": 1.2706479999999942
                },
                {
                    "name": "B2",
                    "midi": 47,
                    "time": 120.71155999999975,
                    "velocity": 0.31496062992125984,
                    "duration": 1.2706479999999942
                },
                {
                    "name": "E3",
                    "midi": 52,
                    "time": 121.98220799999974,
                    "velocity": 0.4330708661417323,
                    "duration": 0.6353239999999971
                },
                {
                    "name": "B2",
                    "midi": 47,
                    "time": 122.61753199999974,
                    "velocity": 0.36220472440944884,
                    "duration": 0.6353239999999971
                },
                {
                    "name": "E3",
                    "midi": 52,
                    "time": 123.25285599999974,
                    "velocity": 0.41732283464566927,
                    "duration": 0.6353239999999971
                },
                {
                    "name": "B2",
                    "midi": 47,
                    "time": 125.15882799999973,
                    "velocity": 0.3700787401574803,
                    "duration": 0.6353239999999971
                },
                {
                    "name": "A#2",
                    "midi": 46,
                    "time": 125.79415199999973,
                    "velocity": 0.4094488188976378,
                    "duration": 0.6353239999999971
                },
                {
                    "name": "A2",
                    "midi": 45,
                    "time": 126.42947599999972,
                    "velocity": 0.3700787401574803,
                    "duration": 0.6353239999999971
                },
                {
                    "name": "G#2",
                    "midi": 44,
                    "time": 127.06479999999972,
                    "velocity": 0.4645669291338583,
                    "duration": 0.6353239999999971
                },
                {
                    "name": "B2",
                    "midi": 47,
                    "time": 127.70012399999972,
                    "velocity": 0.41732283464566927,
                    "duration": 0.6353240000000113
                },
                {
                    "name": "A#2",
                    "midi": 46,
                    "time": 128.33544799999973,
                    "velocity": 0.47244094488188976,
                    "duration": 0.6353239999999971
                },
                {
                    "name": "C#3",
                    "midi": 49,
                    "time": 128.97077199999973,
                    "velocity": 0.48031496062992124,
                    "duration": 0.6353239999999971
                },
                {
                    "name": "B2",
                    "midi": 47,
                    "time": 129.60609599999972,
                    "velocity": 0.4881889763779528,
                    "duration": 0.6353239999999971
                },
                {
                    "name": "E3",
                    "midi": 52,
                    "time": 130.24141999999972,
                    "velocity": 0.4566929133858268,
                    "duration": 0.6353239999999971
                },
                {
                    "name": "D#3",
                    "midi": 51,
                    "time": 130.87674399999972,
                    "velocity": 0.5039370078740157,
                    "duration": 0.6353239999999971
                },
                {
                    "name": "B3",
                    "midi": 59,
                    "time": 131.51206799999972,
                    "velocity": 0.48031496062992124,
                    "duration": 0.6353239999999971
                },
                {
                    "name": "E3",
                    "midi": 52,
                    "time": 132.1473919999997,
                    "velocity": 0.5354330708661418,
                    "duration": 0.6353239999999971
                },
                {
                    "name": "G#3",
                    "midi": 56,
                    "time": 132.7827159999997,
                    "velocity": 0.4566929133858268,
                    "duration": 0.6353239999999971
                },
                {
                    "name": "A3",
                    "midi": 57,
                    "time": 133.4180399999997,
                    "velocity": 0.49606299212598426,
                    "duration": 0.6353239999999971
                },
                {
                    "name": "A2",
                    "midi": 45,
                    "time": 134.0533639999997,
                    "velocity": 0.44881889763779526,
                    "duration": 0.6353239999999971
                },
                {
                    "name": "B2",
                    "midi": 47,
                    "time": 134.6886879999997,
                    "velocity": 0.49606299212598426,
                    "duration": 0.6353239999999971
                },
                {
                    "name": "B1",
                    "midi": 35,
                    "time": 136.5946599999997,
                    "velocity": 0.2992125984251969,
                    "duration": 1.2706479999999942
                },
                {
                    "name": "B1",
                    "midi": 35,
                    "time": 137.8653079999997,
                    "velocity": 0.31496062992125984,
                    "duration": 0.6353239999999971
                },
                {
                    "name": "A1",
                    "midi": 33,
                    "time": 138.50063199999968,
                    "velocity": 0.2677165354330709,
                    "duration": 0.6353239999999971
                },
                {
                    "name": "G#1",
                    "midi": 32,
                    "time": 139.13595599999968,
                    "velocity": 0.30708661417322836,
                    "duration": 0.6353239999999971
                },
                {
                    "name": "F#1",
                    "midi": 30,
                    "time": 139.77127999999968,
                    "velocity": 0.3779527559055118,
                    "duration": 0.6353239999999971
                },
                {
                    "name": "E2",
                    "midi": 40,
                    "time": 140.40660399999967,
                    "velocity": 0.41732283464566927,
                    "duration": 0.6353239999999971
                },
                {
                    "name": "D#2",
                    "midi": 39,
                    "time": 141.04192799999967,
                    "velocity": 0.44881889763779526,
                    "duration": 0.6353239999999971
                },
                {
                    "name": "B1",
                    "midi": 35,
                    "time": 141.67725199999967,
                    "velocity": 0.3858267716535433,
                    "duration": 0.6353239999999971
                },
                {
                    "name": "E2",
                    "midi": 40,
                    "time": 142.31257599999967,
                    "velocity": 0.4330708661417323,
                    "duration": 1.257412083333321
                },
                {
                    "name": "E2",
                    "midi": 40,
                    "time": 143.58322399999966,
                    "velocity": 0.3700787401574803,
                    "duration": 2.5280600833333438
                },
                {
                    "name": "E2",
                    "midi": 40,
                    "time": 146.12451999999968,
                    "velocity": 0.33070866141732286,
                    "duration": 2.5280600833333438
                },
                {
                    "name": "E2",
                    "midi": 40,
                    "time": 148.6658159999997,
                    "velocity": 0.28346456692913385,
                    "duration": 2.5280600833333438
                },
                {
                    "name": "E2",
                    "midi": 40,
                    "time": 151.2071119999997,
                    "velocity": 0.25196850393700787,
                    "duration": 1.8927360833333466
                },
                {
                    "name": "E2",
                    "midi": 40,
                    "time": 153.11308399999973,
                    "velocity": 0.1889763779527559,
                    "duration": 0.622088083333324
                },
                {
                    "name": "E2",
                    "midi": 40,
                    "time": 153.74840799999973,
                    "velocity": 0.1889763779527559,
                    "duration": 0.622088083333324
                },
                {
                    "name": "E2",
                    "midi": 40,
                    "time": 154.38373199999972,
                    "velocity": 0.18110236220472442,
                    "duration": 0.622088083333324
                },
                {
                    "name": "E2",
                    "midi": 40,
                    "time": 155.01905599999972,
                    "velocity": 0.11811023622047244,
                    "duration": 2.5412959999999885
                },
                {
                    "name": "B2",
                    "midi": 47,
                    "time": 155.01905599999972,
                    "velocity": 0.11811023622047244,
                    "duration": 2.5412959999999885
                }
            ],
            "controlChanges": {},
            "id": 3,
            "name": "Piano left",
            "channelNumber": 0,
            "isPercussion": false
        },
        {
            "startTime": 0,
            "duration": 0,
            "length": 0,
            "notes": [],
            "controlChanges": {
                "64": [
                    {
                        "number": 64,
                        "time": 0.027795425,
                        "value": 1
                    },
                    {
                        "number": 64,
                        "time": 1.3116793416666668,
                        "value": 0
                    },
                    {
                        "number": 64,
                        "time": 1.3924184333333334,
                        "value": 1
                    },
                    {
                        "number": 64,
                        "time": 2.550561141666667,
                        "value": 0
                    },
                    {
                        "number": 64,
                        "time": 2.6630664333333334,
                        "value": 1
                    },
                    {
                        "number": 64,
                        "time": 4.473739833333333,
                        "value": 0
                    },
                    {
                        "number": 64,
                        "time": 4.569038433333333,
                        "value": 1
                    },
                    {
                        "number": 64,
                        "time": 5.093180733333333,
                        "value": 0
                    },
                    {
                        "number": 64,
                        "time": 5.213627574999999,
                        "value": 1
                    },
                    {
                        "number": 64,
                        "time": 5.74174065,
                        "value": 0
                    },
                    {
                        "number": 64,
                        "time": 5.848951575,
                        "value": 1
                    },
                    {
                        "number": 64,
                        "time": 6.375741058333333,
                        "value": 0
                    },
                    {
                        "number": 64,
                        "time": 6.484275575,
                        "value": 1
                    },
                    {
                        "number": 64,
                        "time": 7.01238865,
                        "value": 0
                    },
                    {
                        "number": 64,
                        "time": 7.09180415,
                        "value": 1
                    },
                    {
                        "number": 64,
                        "time": 7.64771265,
                        "value": 0
                    },
                    {
                        "number": 64,
                        "time": 7.692714766666667,
                        "value": 1
                    },
                    {
                        "number": 64,
                        "time": 8.281713058333333,
                        "value": 0
                    },
                    {
                        "number": 64,
                        "time": 8.365099333333333,
                        "value": 1
                    },
                    {
                        "number": 64,
                        "time": 8.917037058333333,
                        "value": 0
                    },
                    {
                        "number": 64,
                        "time": 9.016306433333334,
                        "value": 1
                    },
                    {
                        "number": 64,
                        "time": 9.552361058333334,
                        "value": 0
                    },
                    {
                        "number": 64,
                        "time": 9.666189941666667,
                        "value": 1
                    },
                    {
                        "number": 64,
                        "time": 10.177096325,
                        "value": 0
                    },
                    {
                        "number": 64,
                        "time": 10.240628725,
                        "value": 1
                    },
                    {
                        "number": 64,
                        "time": 10.815067508333334,
                        "value": 0
                    },
                    {
                        "number": 64,
                        "time": 10.857422441666667,
                        "value": 1
                    },
                    {
                        "number": 64,
                        "time": 11.454362283333333,
                        "value": 0
                    },
                    {
                        "number": 64,
                        "time": 11.511276725,
                        "value": 1
                    },
                    {
                        "number": 64,
                        "time": 11.758788366666666,
                        "value": 0
                    },
                    {
                        "number": 64,
                        "time": 11.805114074999999,
                        "value": 1
                    },
                    {
                        "number": 64,
                        "time": 12.081744733333332,
                        "value": 0
                    },
                    {
                        "number": 64,
                        "time": 12.146600724999999,
                        "value": 1
                    },
                    {
                        "number": 64,
                        "time": 12.717068733333333,
                        "value": 0
                    },
                    {
                        "number": 64,
                        "time": 12.846780716666666,
                        "value": 1
                    },
                    {
                        "number": 64,
                        "time": 13.991687508333333,
                        "value": 0
                    },
                    {
                        "number": 64,
                        "time": 14.089633291666667,
                        "value": 1
                    },
                    {
                        "number": 64,
                        "time": 14.638923833333333,
                        "value": 0
                    },
                    {
                        "number": 64,
                        "time": 14.734222433333333,
                        "value": 1
                    },
                    {
                        "number": 64,
                        "time": 15.258364733333332,
                        "value": 0
                    },
                    {
                        "number": 64,
                        "time": 15.378811574999999,
                        "value": 1
                    },
                    {
                        "number": 64,
                        "time": 15.906924649999999,
                        "value": 0
                    },
                    {
                        "number": 64,
                        "time": 16.014135574999997,
                        "value": 1
                    },
                    {
                        "number": 64,
                        "time": 16.540925058333332,
                        "value": 0
                    },
                    {
                        "number": 64,
                        "time": 16.649459574999998,
                        "value": 1
                    },
                    {
                        "number": 64,
                        "time": 17.17757265,
                        "value": 0
                    },
                    {
                        "number": 64,
                        "time": 17.256988149999998,
                        "value": 1
                    },
                    {
                        "number": 64,
                        "time": 17.81289665,
                        "value": 0
                    },
                    {
                        "number": 64,
                        "time": 17.857898766666665,
                        "value": 1
                    },
                    {
                        "number": 64,
                        "time": 18.44689705833333,
                        "value": 0
                    },
                    {
                        "number": 64,
                        "time": 18.53028333333333,
                        "value": 1
                    },
                    {
                        "number": 64,
                        "time": 19.082221058333328,
                        "value": 0
                    },
                    {
                        "number": 64,
                        "time": 19.181490433333327,
                        "value": 1
                    },
                    {
                        "number": 64,
                        "time": 19.726810199999992,
                        "value": 0
                    },
                    {
                        "number": 64,
                        "time": 19.800931333333324,
                        "value": 1
                    },
                    {
                        "number": 64,
                        "time": 20.33036799999999,
                        "value": 0
                    },
                    {
                        "number": 64,
                        "time": 20.470668716666655,
                        "value": 1
                    },
                    {
                        "number": 64,
                        "time": 21.62484064999999,
                        "value": 0
                    },
                    {
                        "number": 64,
                        "time": 21.778377283333324,
                        "value": 1
                    },
                    {
                        "number": 64,
                        "time": 22.26810619999999,
                        "value": 0
                    },
                    {
                        "number": 64,
                        "time": 22.342227333333323,
                        "value": 1
                    },
                    {
                        "number": 64,
                        "time": 22.87166399999999,
                        "value": 0
                    },
                    {
                        "number": 64,
                        "time": 23.011964716666654,
                        "value": 1
                    },
                    {
                        "number": 64,
                        "time": 24.166136649999988,
                        "value": 0
                    },
                    {
                        "number": 64,
                        "time": 24.319673283333323,
                        "value": 1
                    },
                    {
                        "number": 64,
                        "time": 24.800137058333323,
                        "value": 0
                    },
                    {
                        "number": 64,
                        "time": 24.913965941666657,
                        "value": 1
                    },
                    {
                        "number": 64,
                        "time": 25.42487232499999,
                        "value": 0
                    },
                    {
                        "number": 64,
                        "time": 25.488404724999988,
                        "value": 1
                    },
                    {
                        "number": 64,
                        "time": 26.062843508333323,
                        "value": 0
                    },
                    {
                        "number": 64,
                        "time": 26.105198441666655,
                        "value": 1
                    },
                    {
                        "number": 64,
                        "time": 26.702138283333323,
                        "value": 0
                    },
                    {
                        "number": 64,
                        "time": 26.75905272499999,
                        "value": 1
                    },
                    {
                        "number": 64,
                        "time": 27.348051016666655,
                        "value": 0
                    },
                    {
                        "number": 64,
                        "time": 27.39437672499999,
                        "value": 1
                    },
                    {
                        "number": 64,
                        "time": 27.964844733333322,
                        "value": 0
                    },
                    {
                        "number": 64,
                        "time": 28.094556716666656,
                        "value": 1
                    },
                    {
                        "number": 64,
                        "time": 29.239463508333323,
                        "value": 0
                    },
                    {
                        "number": 64,
                        "time": 29.337409291666656,
                        "value": 1
                    },
                    {
                        "number": 64,
                        "time": 30.50614073333332,
                        "value": 0
                    },
                    {
                        "number": 64,
                        "time": 30.635852716666655,
                        "value": 1
                    },
                    {
                        "number": 64,
                        "time": 31.780759508333322,
                        "value": 0
                    },
                    {
                        "number": 64,
                        "time": 31.878705291666655,
                        "value": 1
                    },
                    {
                        "number": 64,
                        "time": 32.42402505833332,
                        "value": 0
                    },
                    {
                        "number": 64,
                        "time": 32.537853941666654,
                        "value": 1
                    },
                    {
                        "number": 64,
                        "time": 33.04876032499999,
                        "value": 0
                    },
                    {
                        "number": 64,
                        "time": 33.11229272499999,
                        "value": 1
                    },
                    {
                        "number": 64,
                        "time": 33.686731508333324,
                        "value": 0
                    },
                    {
                        "number": 64,
                        "time": 33.72908644166666,
                        "value": 1
                    },
                    {
                        "number": 64,
                        "time": 34.32602628333333,
                        "value": 0
                    },
                    {
                        "number": 64,
                        "time": 34.38294072499999,
                        "value": 1
                    },
                    {
                        "number": 64,
                        "time": 34.97193901666666,
                        "value": 0
                    },
                    {
                        "number": 64,
                        "time": 35.018264724999995,
                        "value": 1
                    },
                    {
                        "number": 64,
                        "time": 35.58873273333333,
                        "value": 0
                    },
                    {
                        "number": 64,
                        "time": 35.71844471666667,
                        "value": 1
                    },
                    {
                        "number": 64,
                        "time": 37.488086775,
                        "value": 0
                    },
                    {
                        "number": 64,
                        "time": 37.51058783333333,
                        "value": 0
                    },
                    {
                        "number": 64,
                        "time": 37.60588643333333,
                        "value": 1
                    },
                    {
                        "number": 64,
                        "time": 38.13002873333333,
                        "value": 0
                    },
                    {
                        "number": 64,
                        "time": 38.250475575,
                        "value": 1
                    },
                    {
                        "number": 64,
                        "time": 38.77858865,
                        "value": 0
                    },
                    {
                        "number": 64,
                        "time": 38.885799575,
                        "value": 1
                    },
                    {
                        "number": 64,
                        "time": 39.41258905833333,
                        "value": 0
                    },
                    {
                        "number": 64,
                        "time": 39.521123575,
                        "value": 1
                    },
                    {
                        "number": 64,
                        "time": 40.04923665,
                        "value": 0
                    },
                    {
                        "number": 64,
                        "time": 40.12865215,
                        "value": 1
                    },
                    {
                        "number": 64,
                        "time": 40.68456065,
                        "value": 0
                    },
                    {
                        "number": 64,
                        "time": 40.72956276666667,
                        "value": 1
                    },
                    {
                        "number": 64,
                        "time": 41.31856105833334,
                        "value": 0
                    },
                    {
                        "number": 64,
                        "time": 41.40194733333334,
                        "value": 1
                    },
                    {
                        "number": 64,
                        "time": 41.95388505833334,
                        "value": 0
                    },
                    {
                        "number": 64,
                        "time": 42.05315443333334,
                        "value": 1
                    },
                    {
                        "number": 64,
                        "time": 42.58920905833334,
                        "value": 0
                    },
                    {
                        "number": 64,
                        "time": 42.70303794166667,
                        "value": 1
                    },
                    {
                        "number": 64,
                        "time": 43.21394432500001,
                        "value": 0
                    },
                    {
                        "number": 64,
                        "time": 43.27747672500001,
                        "value": 1
                    },
                    {
                        "number": 64,
                        "time": 43.85191550833334,
                        "value": 0
                    },
                    {
                        "number": 64,
                        "time": 43.89427044166668,
                        "value": 1
                    },
                    {
                        "number": 64,
                        "time": 44.491210283333345,
                        "value": 0
                    },
                    {
                        "number": 64,
                        "time": 44.54812472500001,
                        "value": 1
                    },
                    {
                        "number": 64,
                        "time": 44.79563636666668,
                        "value": 0
                    },
                    {
                        "number": 64,
                        "time": 44.84196207500001,
                        "value": 1
                    },
                    {
                        "number": 64,
                        "time": 45.118592733333344,
                        "value": 0
                    },
                    {
                        "number": 64,
                        "time": 45.18344872500001,
                        "value": 1
                    },
                    {
                        "number": 64,
                        "time": 45.75391673333335,
                        "value": 0
                    },
                    {
                        "number": 64,
                        "time": 45.88362871666668,
                        "value": 1
                    },
                    {
                        "number": 64,
                        "time": 47.02853550833334,
                        "value": 0
                    },
                    {
                        "number": 64,
                        "time": 47.12648129166667,
                        "value": 1
                    },
                    {
                        "number": 64,
                        "time": 47.675771833333336,
                        "value": 0
                    },
                    {
                        "number": 64,
                        "time": 47.771070433333335,
                        "value": 1
                    },
                    {
                        "number": 64,
                        "time": 48.29521273333334,
                        "value": 0
                    },
                    {
                        "number": 64,
                        "time": 48.41565957500001,
                        "value": 1
                    },
                    {
                        "number": 64,
                        "time": 48.94377265000001,
                        "value": 0
                    },
                    {
                        "number": 64,
                        "time": 49.050983575000004,
                        "value": 1
                    },
                    {
                        "number": 64,
                        "time": 49.577773058333335,
                        "value": 0
                    },
                    {
                        "number": 64,
                        "time": 49.686307575,
                        "value": 1
                    },
                    {
                        "number": 64,
                        "time": 50.21442065,
                        "value": 0
                    },
                    {
                        "number": 64,
                        "time": 50.293836150000004,
                        "value": 1
                    },
                    {
                        "number": 64,
                        "time": 50.849744650000005,
                        "value": 0
                    },
                    {
                        "number": 64,
                        "time": 50.89474676666667,
                        "value": 1
                    },
                    {
                        "number": 64,
                        "time": 51.48374505833334,
                        "value": 0
                    },
                    {
                        "number": 64,
                        "time": 51.56713133333334,
                        "value": 1
                    },
                    {
                        "number": 64,
                        "time": 52.119069058333345,
                        "value": 0
                    },
                    {
                        "number": 64,
                        "time": 52.218338433333344,
                        "value": 1
                    },
                    {
                        "number": 64,
                        "time": 52.76365820000001,
                        "value": 0
                    },
                    {
                        "number": 64,
                        "time": 52.837779333333344,
                        "value": 1
                    },
                    {
                        "number": 64,
                        "time": 53.36721600000001,
                        "value": 0
                    },
                    {
                        "number": 64,
                        "time": 53.50751671666668,
                        "value": 1
                    },
                    {
                        "number": 64,
                        "time": 54.66168865000001,
                        "value": 0
                    },
                    {
                        "number": 64,
                        "time": 54.81522528333334,
                        "value": 1
                    },
                    {
                        "number": 64,
                        "time": 55.304954200000005,
                        "value": 0
                    },
                    {
                        "number": 64,
                        "time": 55.37907533333334,
                        "value": 1
                    },
                    {
                        "number": 64,
                        "time": 55.90851200000001,
                        "value": 0
                    },
                    {
                        "number": 64,
                        "time": 56.048812716666674,
                        "value": 1
                    },
                    {
                        "number": 64,
                        "time": 57.202984650000005,
                        "value": 0
                    },
                    {
                        "number": 64,
                        "time": 57.356521283333336,
                        "value": 1
                    },
                    {
                        "number": 64,
                        "time": 57.83698505833333,
                        "value": 0
                    },
                    {
                        "number": 64,
                        "time": 57.95081394166667,
                        "value": 1
                    },
                    {
                        "number": 64,
                        "time": 58.461720325,
                        "value": 0
                    },
                    {
                        "number": 64,
                        "time": 58.525252725,
                        "value": 1
                    },
                    {
                        "number": 64,
                        "time": 59.099691508333336,
                        "value": 0
                    },
                    {
                        "number": 64,
                        "time": 59.14204644166667,
                        "value": 1
                    },
                    {
                        "number": 64,
                        "time": 59.73898628333334,
                        "value": 0
                    },
                    {
                        "number": 64,
                        "time": 59.795900725,
                        "value": 1
                    },
                    {
                        "number": 64,
                        "time": 60.38489901666667,
                        "value": 0
                    },
                    {
                        "number": 64,
                        "time": 60.43122472500001,
                        "value": 1
                    },
                    {
                        "number": 64,
                        "time": 61.00169273333334,
                        "value": 0
                    },
                    {
                        "number": 64,
                        "time": 61.13140471666668,
                        "value": 1
                    },
                    {
                        "number": 64,
                        "time": 62.27631150833334,
                        "value": 0
                    },
                    {
                        "number": 64,
                        "time": 62.37425729166667,
                        "value": 1
                    },
                    {
                        "number": 64,
                        "time": 63.54298873333334,
                        "value": 0
                    },
                    {
                        "number": 64,
                        "time": 63.67270071666667,
                        "value": 1
                    },
                    {
                        "number": 64,
                        "time": 64.81760750833334,
                        "value": 0
                    },
                    {
                        "number": 64,
                        "time": 64.91555329166667,
                        "value": 1
                    },
                    {
                        "number": 64,
                        "time": 65.46087305833333,
                        "value": 0
                    },
                    {
                        "number": 64,
                        "time": 65.57470194166666,
                        "value": 1
                    },
                    {
                        "number": 64,
                        "time": 66.085608325,
                        "value": 0
                    },
                    {
                        "number": 64,
                        "time": 66.149140725,
                        "value": 1
                    },
                    {
                        "number": 64,
                        "time": 66.72357950833333,
                        "value": 0
                    },
                    {
                        "number": 64,
                        "time": 66.76593444166666,
                        "value": 1
                    },
                    {
                        "number": 64,
                        "time": 67.36287428333333,
                        "value": 0
                    },
                    {
                        "number": 64,
                        "time": 67.41978872499999,
                        "value": 1
                    },
                    {
                        "number": 64,
                        "time": 68.00878701666666,
                        "value": 0
                    },
                    {
                        "number": 64,
                        "time": 68.05511272499999,
                        "value": 1
                    },
                    {
                        "number": 64,
                        "time": 68.62558073333332,
                        "value": 0
                    },
                    {
                        "number": 64,
                        "time": 68.75529271666666,
                        "value": 1
                    },
                    {
                        "number": 64,
                        "time": 70.52493477499999,
                        "value": 0
                    },
                    {
                        "number": 64,
                        "time": 70.54743583333332,
                        "value": 0
                    },
                    {
                        "number": 64,
                        "time": 70.64273443333333,
                        "value": 1
                    },
                    {
                        "number": 64,
                        "time": 71.16687673333332,
                        "value": 0
                    },
                    {
                        "number": 64,
                        "time": 71.28732357499999,
                        "value": 1
                    },
                    {
                        "number": 64,
                        "time": 71.81543664999998,
                        "value": 0
                    },
                    {
                        "number": 64,
                        "time": 71.92264757499998,
                        "value": 1
                    },
                    {
                        "number": 64,
                        "time": 72.44943705833332,
                        "value": 0
                    },
                    {
                        "number": 64,
                        "time": 72.55797157499998,
                        "value": 1
                    },
                    {
                        "number": 64,
                        "time": 73.08608464999998,
                        "value": 0
                    },
                    {
                        "number": 64,
                        "time": 73.16550014999997,
                        "value": 1
                    },
                    {
                        "number": 64,
                        "time": 73.7081727333333,
                        "value": 0
                    },
                    {
                        "number": 64,
                        "time": 73.82861957499996,
                        "value": 1
                    },
                    {
                        "number": 64,
                        "time": 74.35673264999996,
                        "value": 0
                    },
                    {
                        "number": 64,
                        "time": 74.46394357499996,
                        "value": 1
                    },
                    {
                        "number": 64,
                        "time": 74.99073305833329,
                        "value": 0
                    },
                    {
                        "number": 64,
                        "time": 75.09926757499996,
                        "value": 1
                    },
                    {
                        "number": 64,
                        "time": 75.62738064999995,
                        "value": 0
                    },
                    {
                        "number": 64,
                        "time": 75.70679614999995,
                        "value": 1
                    },
                    {
                        "number": 64,
                        "time": 76.24946873333327,
                        "value": 0
                    },
                    {
                        "number": 64,
                        "time": 76.36991557499994,
                        "value": 1
                    },
                    {
                        "number": 64,
                        "time": 76.89802864999993,
                        "value": 0
                    },
                    {
                        "number": 64,
                        "time": 77.00523957499993,
                        "value": 1
                    },
                    {
                        "number": 64,
                        "time": 77.53202905833326,
                        "value": 0
                    },
                    {
                        "number": 64,
                        "time": 77.64056357499993,
                        "value": 1
                    },
                    {
                        "number": 64,
                        "time": 78.16867664999992,
                        "value": 0
                    },
                    {
                        "number": 64,
                        "time": 78.24809214999992,
                        "value": 1
                    },
                    {
                        "number": 64,
                        "time": 78.80267705833326,
                        "value": 0
                    },
                    {
                        "number": 64,
                        "time": 78.91121157499992,
                        "value": 1
                    },
                    {
                        "number": 64,
                        "time": 79.43932464999992,
                        "value": 0
                    },
                    {
                        "number": 64,
                        "time": 79.51874014999991,
                        "value": 1
                    },
                    {
                        "number": 64,
                        "time": 80.05876554999992,
                        "value": 0
                    },
                    {
                        "number": 64,
                        "time": 80.15671133333325,
                        "value": 1
                    },
                    {
                        "number": 64,
                        "time": 80.67158849166658,
                        "value": 0
                    },
                    {
                        "number": 64,
                        "time": 83.87335673333325,
                        "value": 0
                    },
                    {
                        "number": 64,
                        "time": 83.99380357499992,
                        "value": 1
                    },
                    {
                        "number": 64,
                        "time": 84.52191664999991,
                        "value": 0
                    },
                    {
                        "number": 64,
                        "time": 84.62912757499991,
                        "value": 1
                    },
                    {
                        "number": 64,
                        "time": 85.15591705833324,
                        "value": 0
                    },
                    {
                        "number": 64,
                        "time": 85.26445157499991,
                        "value": 1
                    },
                    {
                        "number": 64,
                        "time": 85.7925646499999,
                        "value": 0
                    },
                    {
                        "number": 64,
                        "time": 85.8719801499999,
                        "value": 1
                    },
                    {
                        "number": 64,
                        "time": 86.4278886499999,
                        "value": 0
                    },
                    {
                        "number": 64,
                        "time": 86.48877386666656,
                        "value": 1
                    },
                    {
                        "number": 64,
                        "time": 87.06188905833324,
                        "value": 0
                    },
                    {
                        "number": 64,
                        "time": 87.14527533333323,
                        "value": 1
                    },
                    {
                        "number": 64,
                        "time": 87.69721305833323,
                        "value": 0
                    },
                    {
                        "number": 64,
                        "time": 87.79648243333324,
                        "value": 1
                    },
                    {
                        "number": 64,
                        "time": 88.33253705833324,
                        "value": 0
                    },
                    {
                        "number": 64,
                        "time": 88.44636594166657,
                        "value": 1
                    },
                    {
                        "number": 64,
                        "time": 88.9691846499999,
                        "value": 0
                    },
                    {
                        "number": 64,
                        "time": 89.02742268333324,
                        "value": 1
                    },
                    {
                        "number": 64,
                        "time": 89.60318505833324,
                        "value": 0
                    },
                    {
                        "number": 64,
                        "time": 89.68657133333323,
                        "value": 1
                    },
                    {
                        "number": 64,
                        "time": 90.23850905833324,
                        "value": 0
                    },
                    {
                        "number": 64,
                        "time": 90.33777843333324,
                        "value": 1
                    },
                    {
                        "number": 64,
                        "time": 90.87383305833325,
                        "value": 0
                    },
                    {
                        "number": 64,
                        "time": 90.98766194166657,
                        "value": 1
                    },
                    {
                        "number": 64,
                        "time": 91.5104806499999,
                        "value": 0
                    },
                    {
                        "number": 64,
                        "time": 91.5898961499999,
                        "value": 1
                    },
                    {
                        "number": 64,
                        "time": 94.05177664999991,
                        "value": 0
                    },
                    {
                        "number": 64,
                        "time": 94.11001468333325,
                        "value": 1
                    },
                    {
                        "number": 64,
                        "time": 94.68577705833324,
                        "value": 0
                    },
                    {
                        "number": 64,
                        "time": 94.76916333333324,
                        "value": 1
                    },
                    {
                        "number": 64,
                        "time": 95.32110105833324,
                        "value": 0
                    },
                    {
                        "number": 64,
                        "time": 95.42037043333325,
                        "value": 1
                    },
                    {
                        "number": 64,
                        "time": 95.95642505833325,
                        "value": 0
                    },
                    {
                        "number": 64,
                        "time": 96.07025394166658,
                        "value": 1
                    },
                    {
                        "number": 64,
                        "time": 96.59307264999991,
                        "value": 0
                    },
                    {
                        "number": 64,
                        "time": 96.68175329166658,
                        "value": 1
                    },
                    {
                        "number": 64,
                        "time": 97.83989599999991,
                        "value": 0
                    },
                    {
                        "number": 64,
                        "time": 97.95372488333324,
                        "value": 1
                    },
                    {
                        "number": 64,
                        "time": 98.47786718333323,
                        "value": 0
                    },
                    {
                        "number": 64,
                        "time": 98.57581296666656,
                        "value": 1
                    },
                    {
                        "number": 64,
                        "time": 99.1343686499999,
                        "value": 0
                    },
                    {
                        "number": 64,
                        "time": 99.19525386666656,
                        "value": 1
                    },
                    {
                        "number": 64,
                        "time": 100.40369305833323,
                        "value": 0
                    },
                    {
                        "number": 64,
                        "time": 100.50296243333324,
                        "value": 1
                    },
                    {
                        "number": 64,
                        "time": 101.04298783333324,
                        "value": 0
                    },
                    {
                        "number": 64,
                        "time": 101.11313819166658,
                        "value": 1
                    },
                    {
                        "number": 64,
                        "time": 101.67566464999992,
                        "value": 0
                    },
                    {
                        "number": 64,
                        "time": 101.73654986666658,
                        "value": 1
                    },
                    {
                        "number": 64,
                        "time": 102.94101828333325,
                        "value": 0
                    },
                    {
                        "number": 64,
                        "time": 103.05352357499991,
                        "value": 1
                    },
                    {
                        "number": 64,
                        "time": 103.58428383333325,
                        "value": 0
                    },
                    {
                        "number": 64,
                        "time": 103.67958243333325,
                        "value": 1
                    },
                    {
                        "number": 64,
                        "time": 104.20372473333325,
                        "value": 0
                    },
                    {
                        "number": 64,
                        "time": 104.32417157499991,
                        "value": 1
                    },
                    {
                        "number": 64,
                        "time": 104.8522846499999,
                        "value": 0
                    },
                    {
                        "number": 64,
                        "time": 104.9594955749999,
                        "value": 1
                    },
                    {
                        "number": 64,
                        "time": 105.48628505833324,
                        "value": 0
                    },
                    {
                        "number": 64,
                        "time": 105.5948195749999,
                        "value": 1
                    },
                    {
                        "number": 64,
                        "time": 106.1229326499999,
                        "value": 0
                    },
                    {
                        "number": 64,
                        "time": 106.20234814999989,
                        "value": 1
                    },
                    {
                        "number": 64,
                        "time": 106.7582566499999,
                        "value": 0
                    },
                    {
                        "number": 64,
                        "time": 106.80325876666656,
                        "value": 1
                    },
                    {
                        "number": 64,
                        "time": 107.39225705833323,
                        "value": 0
                    },
                    {
                        "number": 64,
                        "time": 107.47564333333322,
                        "value": 1
                    },
                    {
                        "number": 64,
                        "time": 108.02758105833323,
                        "value": 0
                    },
                    {
                        "number": 64,
                        "time": 108.12685043333323,
                        "value": 1
                    },
                    {
                        "number": 64,
                        "time": 108.66290505833324,
                        "value": 0
                    },
                    {
                        "number": 64,
                        "time": 108.77673394166656,
                        "value": 1
                    },
                    {
                        "number": 64,
                        "time": 109.2876403249999,
                        "value": 0
                    },
                    {
                        "number": 64,
                        "time": 109.3511727249999,
                        "value": 1
                    },
                    {
                        "number": 64,
                        "time": 109.92561150833323,
                        "value": 0
                    },
                    {
                        "number": 64,
                        "time": 109.99179109166657,
                        "value": 1
                    },
                    {
                        "number": 64,
                        "time": 110.56490628333324,
                        "value": 0
                    },
                    {
                        "number": 64,
                        "time": 110.63902741666658,
                        "value": 1
                    },
                    {
                        "number": 64,
                        "time": 110.86933236666658,
                        "value": 0
                    },
                    {
                        "number": 64,
                        "time": 110.93154117499992,
                        "value": 1
                    },
                    {
                        "number": 64,
                        "time": 111.19228873333326,
                        "value": 0
                    },
                    {
                        "number": 64,
                        "time": 111.28494014999993,
                        "value": 1
                    },
                    {
                        "number": 64,
                        "time": 111.82761273333325,
                        "value": 0
                    },
                    {
                        "number": 64,
                        "time": 111.95732471666659,
                        "value": 1
                    },
                    {
                        "number": 64,
                        "time": 113.10223150833326,
                        "value": 0
                    },
                    {
                        "number": 64,
                        "time": 113.20017729166659,
                        "value": 1
                    },
                    {
                        "number": 64,
                        "time": 113.74946783333326,
                        "value": 0
                    },
                    {
                        "number": 64,
                        "time": 113.84476643333326,
                        "value": 1
                    },
                    {
                        "number": 64,
                        "time": 114.36890873333326,
                        "value": 0
                    },
                    {
                        "number": 64,
                        "time": 114.48935557499992,
                        "value": 1
                    },
                    {
                        "number": 64,
                        "time": 115.01746864999991,
                        "value": 0
                    },
                    {
                        "number": 64,
                        "time": 115.12467957499992,
                        "value": 1
                    },
                    {
                        "number": 64,
                        "time": 115.65146905833325,
                        "value": 0
                    },
                    {
                        "number": 64,
                        "time": 115.76000357499991,
                        "value": 1
                    },
                    {
                        "number": 64,
                        "time": 116.2881166499999,
                        "value": 0
                    },
                    {
                        "number": 64,
                        "time": 116.3675321499999,
                        "value": 1
                    },
                    {
                        "number": 64,
                        "time": 116.9234406499999,
                        "value": 0
                    },
                    {
                        "number": 64,
                        "time": 116.96844276666657,
                        "value": 1
                    },
                    {
                        "number": 64,
                        "time": 118.19276505833324,
                        "value": 0
                    },
                    {
                        "number": 64,
                        "time": 118.29203443333324,
                        "value": 1
                    },
                    {
                        "number": 64,
                        "time": 118.82941264999991,
                        "value": 0
                    },
                    {
                        "number": 64,
                        "time": 118.9088281499999,
                        "value": 1
                    },
                    {
                        "number": 64,
                        "time": 119.4647366499999,
                        "value": 0
                    },
                    {
                        "number": 64,
                        "time": 119.50973876666657,
                        "value": 1
                    },
                    {
                        "number": 64,
                        "time": 120.73406105833324,
                        "value": 0
                    },
                    {
                        "number": 64,
                        "time": 120.83333043333324,
                        "value": 1
                    },
                    {
                        "number": 64,
                        "time": 121.03451636666658,
                        "value": 0
                    },
                    {
                        "number": 64,
                        "time": 121.08084207499991,
                        "value": 1
                    },
                    {
                        "number": 64,
                        "time": 121.35747273333324,
                        "value": 0
                    },
                    {
                        "number": 64,
                        "time": 121.4223287249999,
                        "value": 1
                    },
                    {
                        "number": 64,
                        "time": 121.99279673333324,
                        "value": 0
                    },
                    {
                        "number": 64,
                        "time": 122.12250871666657,
                        "value": 1
                    },
                    {
                        "number": 64,
                        "time": 123.26741550833324,
                        "value": 0
                    },
                    {
                        "number": 64,
                        "time": 123.36536129166657,
                        "value": 1
                    },
                    {
                        "number": 64,
                        "time": 123.91465183333324,
                        "value": 0
                    },
                    {
                        "number": 64,
                        "time": 124.00995043333324,
                        "value": 1
                    },
                    {
                        "number": 64,
                        "time": 124.53409273333324,
                        "value": 0
                    },
                    {
                        "number": 64,
                        "time": 124.6545395749999,
                        "value": 1
                    },
                    {
                        "number": 64,
                        "time": 125.81665305833323,
                        "value": 0
                    },
                    {
                        "number": 64,
                        "time": 125.9251875749999,
                        "value": 1
                    },
                    {
                        "number": 64,
                        "time": 126.45330064999989,
                        "value": 0
                    },
                    {
                        "number": 64,
                        "time": 126.53271614999989,
                        "value": 1
                    },
                    {
                        "number": 64,
                        "time": 127.08862464999989,
                        "value": 0
                    },
                    {
                        "number": 64,
                        "time": 127.13362676666655,
                        "value": 1
                    },
                    {
                        "number": 64,
                        "time": 128.35794905833322,
                        "value": 0
                    },
                    {
                        "number": 64,
                        "time": 128.45721843333322,
                        "value": 1
                    },
                    {
                        "number": 64,
                        "time": 128.9945966499999,
                        "value": 0
                    },
                    {
                        "number": 64,
                        "time": 129.0740121499999,
                        "value": 1
                    },
                    {
                        "number": 64,
                        "time": 129.6299206499999,
                        "value": 0
                    },
                    {
                        "number": 64,
                        "time": 129.67492276666655,
                        "value": 1
                    },
                    {
                        "number": 64,
                        "time": 130.2639210583332,
                        "value": 0
                    },
                    {
                        "number": 64,
                        "time": 130.40025099999988,
                        "value": 1
                    },
                    {
                        "number": 64,
                        "time": 130.89262709999988,
                        "value": 0
                    },
                    {
                        "number": 64,
                        "time": 131.01307394166656,
                        "value": 1
                    },
                    {
                        "number": 64,
                        "time": 132.15798073333323,
                        "value": 0
                    },
                    {
                        "number": 64,
                        "time": 132.28769271666656,
                        "value": 1
                    },
                    {
                        "number": 64,
                        "time": 132.80124628333323,
                        "value": 0
                    },
                    {
                        "number": 64,
                        "time": 132.91110439166656,
                        "value": 1
                    },
                    {
                        "number": 64,
                        "time": 133.43259950833323,
                        "value": 0
                    },
                    {
                        "number": 64,
                        "time": 133.53054529166656,
                        "value": 1
                    },
                    {
                        "number": 64,
                        "time": 134.70721828333322,
                        "value": 0
                    },
                    {
                        "number": 64,
                        "time": 134.92296372499987,
                        "value": 1
                    },
                    {
                        "number": 64,
                        "time": 135.97389550833321,
                        "value": 0
                    },
                    {
                        "number": 64,
                        "time": 136.07184129166654,
                        "value": 1
                    },
                    {
                        "number": 64,
                        "time": 137.2405727333332,
                        "value": 0
                    },
                    {
                        "number": 64,
                        "time": 137.37028471666653,
                        "value": 1
                    },
                    {
                        "number": 64,
                        "time": 138.5151915083332,
                        "value": 0
                    },
                    {
                        "number": 64,
                        "time": 138.61313729166653,
                        "value": 1
                    },
                    {
                        "number": 64,
                        "time": 139.1584570583332,
                        "value": 0
                    },
                    {
                        "number": 64,
                        "time": 139.27228594166652,
                        "value": 1
                    },
                    {
                        "number": 64,
                        "time": 139.78319232499985,
                        "value": 0
                    },
                    {
                        "number": 64,
                        "time": 139.84672472499986,
                        "value": 1
                    },
                    {
                        "number": 64,
                        "time": 140.4211635083332,
                        "value": 0
                    },
                    {
                        "number": 64,
                        "time": 140.50984414999985,
                        "value": 1
                    },
                    {
                        "number": 64,
                        "time": 141.0604582833332,
                        "value": 0
                    },
                    {
                        "number": 64,
                        "time": 141.11737272499985,
                        "value": 1
                    },
                    {
                        "number": 64,
                        "time": 141.7063710166665,
                        "value": 0
                    },
                    {
                        "number": 64,
                        "time": 141.78843369999984,
                        "value": 1
                    },
                    {
                        "number": 64,
                        "time": 142.3231647333332,
                        "value": 0
                    },
                    {
                        "number": 64,
                        "time": 142.4528767166665,
                        "value": 1
                    },
                    {
                        "number": 64,
                        "time": 144.22119518333318,
                        "value": 0
                    },
                    {
                        "number": 64,
                        "time": 144.3191409666665,
                        "value": 1
                    },
                    {
                        "number": 64,
                        "time": 144.87769664999985,
                        "value": 0
                    },
                    {
                        "number": 64,
                        "time": 144.9385818666665,
                        "value": 1
                    },
                    {
                        "number": 64,
                        "time": 146.76249118333317,
                        "value": 0
                    },
                    {
                        "number": 64,
                        "time": 146.8604369666665,
                        "value": 1
                    },
                    {
                        "number": 64,
                        "time": 147.41899264999984,
                        "value": 0
                    },
                    {
                        "number": 64,
                        "time": 147.4798778666665,
                        "value": 1
                    },
                    {
                        "number": 64,
                        "time": 149.30378718333316,
                        "value": 0
                    },
                    {
                        "number": 64,
                        "time": 149.4017329666665,
                        "value": 1
                    },
                    {
                        "number": 64,
                        "time": 149.96028864999982,
                        "value": 0
                    },
                    {
                        "number": 64,
                        "time": 150.0211738666665,
                        "value": 1
                    },
                    {
                        "number": 64,
                        "time": 151.22167150833315,
                        "value": 0
                    },
                    {
                        "number": 64,
                        "time": 151.38447328333314,
                        "value": 1
                    },
                    {
                        "number": 64,
                        "time": 159.46632399999982,
                        "value": 0
                    }
                ]
            },
            "id": 4,
            "name": "Pedale",
            "instrumentNumber": 0,
            "instrument": "acoustic grand piano",
            "instrumentFamily": "piano",
            "channelNumber": 0,
            "isPercussion": false
        },
        {
            "startTime": 0,
            "duration": 0,
            "length": 0,
            "notes": [],
            "controlChanges": {},
            "id": 5,
            "name": "Mendelssohn: Song without words Opus 19 No. 1"
        },
        {
            "startTime": 0,
            "duration": 0,
            "length": 0,
            "notes": [],
            "controlChanges": {},
            "id": 6,
            "name": "Copyright  2010 by Bernd Krueger"
        },
        {
            "startTime": 0,
            "duration": 0,
            "length": 0,
            "notes": [],
            "controlChanges": {},
            "id": 7,
            "name": "http://www.piano-midi.de/"
        },
        {
            "startTime": 0,
            "duration": 0,
            "length": 0,
            "notes": [],
            "controlChanges": {},
            "id": 8,
            "name": "Edition: 2014-09-27"
        },
        {
            "startTime": 0,
            "duration": 0,
            "length": 0,
            "notes": [],
            "controlChanges": {},
            "id": 9,
            "name": "Spur 9"
        },
        {
            "startTime": 0,
            "duration": 0,
            "length": 0,
            "notes": [],
            "controlChanges": {},
            "id": 10,
            "name": "Spur 10"
        },
        {
            "startTime": 0,
            "duration": 0,
            "length": 0,
            "notes": [],
            "controlChanges": {},
            "id": 11,
            "name": "Spur 11"
        },
        {
            "startTime": 0,
            "duration": 0,
            "length": 0,
            "notes": [],
            "controlChanges": {},
            "id": 12,
            "name": "Spur 12"
        },
        {
            "startTime": 0,
            "duration": 0,
            "length": 0,
            "notes": [],
            "controlChanges": {},
            "id": 13,
            "name": "Spur 13"
        },
        {
            "startTime": 0,
            "duration": 0,
            "length": 0,
            "notes": [],
            "controlChanges": {},
            "id": 14,
            "name": "Spur 14"
        },
        {
            "startTime": 0,
            "duration": 0,
            "length": 0,
            "notes": [],
            "controlChanges": {},
            "id": 15,
            "name": "Spur 15"
        },
        {
            "startTime": 0,
            "duration": 0,
            "length": 0,
            "notes": [],
            "controlChanges": {},
            "id": 16,
            "name": "Spur 16"
        },
        {
            "startTime": 0,
            "duration": 0,
            "length": 0,
            "notes": [],
            "controlChanges": {},
            "id": 17,
            "name": "Spur 17"
        }
    ]
}