{
    "header": {
        "PPQ": 480,
        "timeSignature": [
            4,
            4
        ],
        "bpm": 140.00014000014,
        "name": "Volkslied"
    },
    "startTime": 0,
    "duration": 143.99985599999997,
    "tracks": [
        {
            "startTime": 0,
            "duration": 0,
            "length": 0,
            "notes": [],
            "controlChanges": {},
            "id": 0,
            "name": "Volkslied"
        },
        {
            "startTime": 1.4999985000000002,
            "duration": 143.99985599999997,
            "length": 1032,
            "notes": [
                {
                    "name": "C5",
                    "midi": 72,
                    "time": 1.4999985000000002,
                    "velocity": 0.25984251968503935,
                    "duration": 0.10714274999999995
                },
                {
                    "name": "D5",
                    "midi": 74,
                    "time": 1.6071412500000002,
                    "velocity": 0.2677165354330709,
                    "duration": 0.10714274999999995
                },
                {
                    "name": "E5",
                    "midi": 76,
                    "time": 1.7142840000000001,
                    "velocity": 0.3228346456692913,
                    "duration": 0.10714274999999995
                },
                {
                    "name": "C5",
                    "midi": 72,
                    "time": 1.82142675,
                    "velocity": 0.2677165354330709,
                    "duration": 0.10714274999999995
                },
                {
                    "name": "A4",
                    "midi": 69,
                    "time": 1.9285695,
                    "velocity": 0.2677165354330709,
                    "duration": 0.16071412500000015
                },
                {
                    "name": "E5",
                    "midi": 76,
                    "time": 2.2499977500000004,
                    "velocity": 0.2755905511811024,
                    "duration": 0.10714274999999995
                },
                {
                    "name": "C5",
                    "midi": 72,
                    "time": 2.3571405000000003,
                    "velocity": 0.2755905511811024,
                    "duration": 0.10714274999999995
                },
                {
                    "name": "A4",
                    "midi": 69,
                    "time": 2.4642832500000003,
                    "velocity": 0.2755905511811024,
                    "duration": 0.10714274999999995
                },
                {
                    "name": "F5",
                    "midi": 77,
                    "time": 2.571426,
                    "velocity": 0.3228346456692913,
                    "duration": 0.10714274999999995
                },
                {
                    "name": "D5",
                    "midi": 74,
                    "time": 2.67856875,
                    "velocity": 0.2755905511811024,
                    "duration": 0.10714274999999995
                },
                {
                    "name": "A4",
                    "midi": 69,
                    "time": 2.7857115,
                    "velocity": 0.2755905511811024,
                    "duration": 0.16071412500000015
                },
                {
                    "name": "F5",
                    "midi": 77,
                    "time": 3.1071397500000004,
                    "velocity": 0.2755905511811024,
                    "duration": 0.10714274999999995
                },
                {
                    "name": "D5",
                    "midi": 74,
                    "time": 3.2142825000000004,
                    "velocity": 0.2755905511811024,
                    "duration": 0.10714274999999995
                },
                {
                    "name": "A4",
                    "midi": 69,
                    "time": 3.3214252500000003,
                    "velocity": 0.2755905511811024,
                    "duration": 0.10714274999999995
                },
                {
                    "name": "D5",
                    "midi": 74,
                    "time": 3.4285680000000003,
                    "velocity": 0.3228346456692913,
                    "duration": 0.10714274999999995
                },
                {
                    "name": "B4",
                    "midi": 71,
                    "time": 3.5357107500000002,
                    "velocity": 0.28346456692913385,
                    "duration": 0.10714274999999995
                },
                {
                    "name": "G#4",
                    "midi": 68,
                    "time": 3.6428535,
                    "velocity": 0.28346456692913385,
                    "duration": 0.16071412500000015
                },
                {
                    "name": "D5",
                    "midi": 74,
                    "time": 3.9642817500000005,
                    "velocity": 0.28346456692913385,
                    "duration": 0.1071427500000004
                },
                {
                    "name": "B4",
                    "midi": 71,
                    "time": 4.071424500000001,
                    "velocity": 0.28346456692913385,
                    "duration": 0.1071427500000004
                },
                {
                    "name": "G#4",
                    "midi": 68,
                    "time": 4.178567250000001,
                    "velocity": 0.28346456692913385,
                    "duration": 0.1071427500000004
                },
                {
                    "name": "E5",
                    "midi": 76,
                    "time": 4.285710000000002,
                    "velocity": 0.3228346456692913,
                    "duration": 0.1071427500000004
                },
                {
                    "name": "C5",
                    "midi": 72,
                    "time": 4.392852750000002,
                    "velocity": 0.2755905511811024,
                    "duration": 0.1071427500000004
                },
                {
                    "name": "A4",
                    "midi": 69,
                    "time": 4.4999955000000025,
                    "velocity": 0.2755905511811024,
                    "duration": 0.16071412500000015
                },
                {
                    "name": "B4",
                    "midi": 71,
                    "time": 4.821423750000003,
                    "velocity": 0.2992125984251969,
                    "duration": 0.1071427500000004
                },
                {
                    "name": "C5",
                    "midi": 72,
                    "time": 4.928566500000003,
                    "velocity": 0.2992125984251969,
                    "duration": 0.1071427500000004
                },
                {
                    "name": "D5",
                    "midi": 74,
                    "time": 5.035709250000004,
                    "velocity": 0.2992125984251969,
                    "duration": 0.1071427500000004
                },
                {
                    "name": "E5",
                    "midi": 76,
                    "time": 5.142852000000004,
                    "velocity": 0.3543307086614173,
                    "duration": 0.1071427500000004
                },
                {
                    "name": "C5",
                    "midi": 72,
                    "time": 5.249994750000004,
                    "velocity": 0.29133858267716534,
                    "duration": 0.1071427500000004
                },
                {
                    "name": "A4",
                    "midi": 69,
                    "time": 5.357137500000005,
                    "velocity": 0.2992125984251969,
                    "duration": 0.16071412500000015
                },
                {
                    "name": "E5",
                    "midi": 76,
                    "time": 5.678565750000005,
                    "velocity": 0.3464566929133858,
                    "duration": 0.1071427500000004
                },
                {
                    "name": "C5",
                    "midi": 72,
                    "time": 5.7857085000000055,
                    "velocity": 0.33070866141732286,
                    "duration": 0.1071427500000004
                },
                {
                    "name": "A4",
                    "midi": 69,
                    "time": 5.892851250000006,
                    "velocity": 0.33070866141732286,
                    "duration": 0.1071427500000004
                },
                {
                    "name": "F5",
                    "midi": 77,
                    "time": 5.999994000000006,
                    "velocity": 0.36220472440944884,
                    "duration": 0.1071427500000004
                },
                {
                    "name": "D5",
                    "midi": 74,
                    "time": 6.107136750000007,
                    "velocity": 0.33858267716535434,
                    "duration": 0.1071427500000004
                },
                {
                    "name": "A4",
                    "midi": 69,
                    "time": 6.214279500000007,
                    "velocity": 0.33858267716535434,
                    "duration": 0.16071412500000015
                },
                {
                    "name": "F5",
                    "midi": 77,
                    "time": 6.535707750000007,
                    "velocity": 0.36220472440944884,
                    "duration": 0.1071427500000004
                },
                {
                    "name": "D5",
                    "midi": 74,
                    "time": 6.642850500000008,
                    "velocity": 0.36220472440944884,
                    "duration": 0.1071427500000004
                },
                {
                    "name": "A4",
                    "midi": 69,
                    "time": 6.749993250000008,
                    "velocity": 0.36220472440944884,
                    "duration": 0.1071427500000004
                },
                {
                    "name": "D5",
                    "midi": 74,
                    "time": 6.857136000000009,
                    "velocity": 0.4094488188976378,
                    "duration": 0.1071427500000004
                },
                {
                    "name": "B4",
                    "midi": 71,
                    "time": 6.964278750000009,
                    "velocity": 0.3700787401574803,
                    "duration": 0.1071427500000004
                },
                {
                    "name": "G#4",
                    "midi": 68,
                    "time": 7.071421500000009,
                    "velocity": 0.3700787401574803,
                    "duration": 0.16071412500000015
                },
                {
                    "name": "D5",
                    "midi": 74,
                    "time": 7.39284975000001,
                    "velocity": 0.3779527559055118,
                    "duration": 0.1071427500000004
                },
                {
                    "name": "B4",
                    "midi": 71,
                    "time": 7.49999250000001,
                    "velocity": 0.3779527559055118,
                    "duration": 0.1071427500000004
                },
                {
                    "name": "G#4",
                    "midi": 68,
                    "time": 7.6071352500000105,
                    "velocity": 0.3779527559055118,
                    "duration": 0.1071427500000004
                },
                {
                    "name": "E5",
                    "midi": 76,
                    "time": 7.714278000000011,
                    "velocity": 0.4409448818897638,
                    "duration": 0.1071427500000004
                },
                {
                    "name": "C5",
                    "midi": 72,
                    "time": 7.821420750000011,
                    "velocity": 0.4094488188976378,
                    "duration": 0.1071427500000004
                },
                {
                    "name": "A4",
                    "midi": 69,
                    "time": 7.928563500000012,
                    "velocity": 0.4094488188976378,
                    "duration": 0.16071412500000015
                },
                {
                    "name": "D5",
                    "midi": 74,
                    "time": 8.249991750000012,
                    "velocity": 0.4330708661417323,
                    "duration": 0.10714274999999951
                },
                {
                    "name": "B4",
                    "midi": 71,
                    "time": 8.357134500000011,
                    "velocity": 0.4330708661417323,
                    "duration": 0.10714274999999951
                },
                {
                    "name": "G#4",
                    "midi": 68,
                    "time": 8.464277250000011,
                    "velocity": 0.4330708661417323,
                    "duration": 0.10714274999999951
                },
                {
                    "name": "E5",
                    "midi": 76,
                    "time": 8.57142000000001,
                    "velocity": 0.5039370078740157,
                    "duration": 0.10714274999999951
                },
                {
                    "name": "C5",
                    "midi": 72,
                    "time": 8.67856275000001,
                    "velocity": 0.4330708661417323,
                    "duration": 0.10714274999999951
                },
                {
                    "name": "A4",
                    "midi": 69,
                    "time": 8.78570550000001,
                    "velocity": 0.4330708661417323,
                    "duration": 0.16071412500000015
                },
                {
                    "name": "D5",
                    "midi": 74,
                    "time": 9.10713375000001,
                    "velocity": 0.4566929133858268,
                    "duration": 0.10714274999999951
                },
                {
                    "name": "B4",
                    "midi": 71,
                    "time": 9.21427650000001,
                    "velocity": 0.4566929133858268,
                    "duration": 0.10714274999999951
                },
                {
                    "name": "G#4",
                    "midi": 68,
                    "time": 9.321419250000009,
                    "velocity": 0.4566929133858268,
                    "duration": 0.10714274999999951
                },
                {
                    "name": "E5",
                    "midi": 76,
                    "time": 9.428562000000008,
                    "velocity": 0.5433070866141733,
                    "duration": 0.10714274999999951
                },
                {
                    "name": "C5",
                    "midi": 72,
                    "time": 9.535704750000008,
                    "velocity": 0.44881889763779526,
                    "duration": 0.10714274999999951
                },
                {
                    "name": "A4",
                    "midi": 69,
                    "time": 9.642847500000007,
                    "velocity": 0.4566929133858268,
                    "duration": 0.16071412500000015
                },
                {
                    "name": "D5",
                    "midi": 74,
                    "time": 9.964275750000008,
                    "velocity": 0.5039370078740157,
                    "duration": 0.10714274999999951
                },
                {
                    "name": "B4",
                    "midi": 71,
                    "time": 10.071418500000007,
                    "velocity": 0.5118110236220472,
                    "duration": 0.10714274999999951
                },
                {
                    "name": "G#4",
                    "midi": 68,
                    "time": 10.178561250000007,
                    "velocity": 0.5118110236220472,
                    "duration": 0.10714274999999951
                },
                {
                    "name": "E5",
                    "midi": 76,
                    "time": 10.285704000000006,
                    "velocity": 0.5590551181102362,
                    "duration": 0.10714274999999951
                },
                {
                    "name": "C5",
                    "midi": 72,
                    "time": 10.392846750000006,
                    "velocity": 0.5118110236220472,
                    "duration": 0.10714274999999951
                },
                {
                    "name": "A4",
                    "midi": 69,
                    "time": 10.499989500000005,
                    "velocity": 0.5039370078740157,
                    "duration": 0.10714274999999951
                },
                {
                    "name": "E4",
                    "midi": 64,
                    "time": 10.607132250000005,
                    "velocity": 0.49606299212598426,
                    "duration": 0.10714274999999951
                },
                {
                    "name": "E4",
                    "midi": 64,
                    "time": 11.571417000000004,
                    "velocity": 0.5590551181102362,
                    "duration": 0.4285709999999998
                },
                {
                    "name": "E4",
                    "midi": 64,
                    "time": 11.999988000000004,
                    "velocity": 0.5039370078740157,
                    "duration": 0.6428565000000006
                },
                {
                    "name": "A4",
                    "midi": 69,
                    "time": 11.999988000000004,
                    "velocity": 0.5590551181102362,
                    "duration": 0.6428565000000006
                },
                {
                    "name": "E4",
                    "midi": 64,
                    "time": 12.642844500000004,
                    "velocity": 0.4881889763779528,
                    "duration": 0.2142855000000008
                },
                {
                    "name": "B4",
                    "midi": 71,
                    "time": 12.642844500000004,
                    "velocity": 0.5354330708661418,
                    "duration": 0.2142855000000008
                },
                {
                    "name": "A4",
                    "midi": 69,
                    "time": 12.857130000000005,
                    "velocity": 0.5039370078740157,
                    "duration": 0.4285709999999998
                },
                {
                    "name": "C5",
                    "midi": 72,
                    "time": 12.857130000000005,
                    "velocity": 0.5590551181102362,
                    "duration": 0.4285709999999998
                },
                {
                    "name": "B4",
                    "midi": 71,
                    "time": 13.285701000000005,
                    "velocity": 0.5039370078740157,
                    "duration": 0.4285709999999998
                },
                {
                    "name": "D5",
                    "midi": 74,
                    "time": 13.285701000000005,
                    "velocity": 0.5590551181102362,
                    "duration": 0.4285709999999998
                },
                {
                    "name": "C5",
                    "midi": 72,
                    "time": 13.714272000000005,
                    "velocity": 0.5039370078740157,
                    "duration": 0.4285709999999998
                },
                {
                    "name": "E5",
                    "midi": 76,
                    "time": 13.714272000000005,
                    "velocity": 0.5748031496062992,
                    "duration": 0.4285709999999998
                },
                {
                    "name": "E5",
                    "midi": 76,
                    "time": 14.142843000000004,
                    "velocity": 0.5354330708661418,
                    "duration": 0.8571419999999996
                },
                {
                    "name": "G5",
                    "midi": 79,
                    "time": 14.142843000000004,
                    "velocity": 0.5984251968503937,
                    "duration": 0.8571419999999996
                },
                {
                    "name": "D5",
                    "midi": 74,
                    "time": 14.999985000000004,
                    "velocity": 0.5039370078740157,
                    "duration": 0.3214282500000003
                },
                {
                    "name": "F5",
                    "midi": 77,
                    "time": 14.999985000000004,
                    "velocity": 0.5748031496062992,
                    "duration": 0.3214282500000003
                },
                {
                    "name": "C5",
                    "midi": 72,
                    "time": 15.321413250000004,
                    "velocity": 0.47244094488188976,
                    "duration": 0.10178561250000051
                },
                {
                    "name": "E5",
                    "midi": 76,
                    "time": 15.321413250000004,
                    "velocity": 0.5275590551181102,
                    "duration": 0.10178561250000051
                },
                {
                    "name": "C5",
                    "midi": 72,
                    "time": 15.428556000000006,
                    "velocity": 0.5039370078740157,
                    "duration": 0.4285709999999998
                },
                {
                    "name": "E5",
                    "midi": 76,
                    "time": 15.428556000000006,
                    "velocity": 0.5590551181102362,
                    "duration": 0.4285709999999998
                },
                {
                    "name": "B4",
                    "midi": 71,
                    "time": 15.857127000000006,
                    "velocity": 0.5039370078740157,
                    "duration": 0.3214282500000003
                },
                {
                    "name": "D5",
                    "midi": 74,
                    "time": 15.857127000000006,
                    "velocity": 0.5590551181102362,
                    "duration": 0.3214282500000003
                },
                {
                    "name": "A4",
                    "midi": 69,
                    "time": 16.178555250000006,
                    "velocity": 0.47244094488188976,
                    "duration": 0.10178561249999873
                },
                {
                    "name": "C5",
                    "midi": 72,
                    "time": 16.178555250000006,
                    "velocity": 0.5275590551181102,
                    "duration": 0.10178561249999873
                },
                {
                    "name": "A4",
                    "midi": 69,
                    "time": 16.285698000000004,
                    "velocity": 0.5039370078740157,
                    "duration": 0.4285710000000016
                },
                {
                    "name": "C5",
                    "midi": 72,
                    "time": 16.285698000000004,
                    "velocity": 0.5590551181102362,
                    "duration": 0.4285710000000016
                },
                {
                    "name": "F4",
                    "midi": 65,
                    "time": 16.714269000000005,
                    "velocity": 0.5118110236220472,
                    "duration": 0.3214282500000003
                },
                {
                    "name": "C5",
                    "midi": 72,
                    "time": 16.714269000000005,
                    "velocity": 0.5118110236220472,
                    "duration": 0.3214282500000003
                },
                {
                    "name": "E5",
                    "midi": 76,
                    "time": 16.714269000000005,
                    "velocity": 0.5826771653543307,
                    "duration": 0.3214282500000003
                },
                {
                    "name": "B4",
                    "midi": 71,
                    "time": 17.035697250000005,
                    "velocity": 0.47244094488188976,
                    "duration": 0.10714275000000129
                },
                {
                    "name": "D5",
                    "midi": 74,
                    "time": 17.035697250000005,
                    "velocity": 0.5275590551181102,
                    "duration": 0.10714275000000129
                },
                {
                    "name": "A4",
                    "midi": 69,
                    "time": 17.142840000000007,
                    "velocity": 0.4566929133858268,
                    "duration": 0.8571419999999996
                },
                {
                    "name": "C5",
                    "midi": 72,
                    "time": 17.142840000000007,
                    "velocity": 0.5196850393700787,
                    "duration": 0.8571419999999996
                },
                {
                    "name": "G#4",
                    "midi": 68,
                    "time": 17.999982000000006,
                    "velocity": 0.44881889763779526,
                    "duration": 0.21428549999999902
                },
                {
                    "name": "B4",
                    "midi": 71,
                    "time": 17.999982000000006,
                    "velocity": 0.5118110236220472,
                    "duration": 0.21428549999999902
                },
                {
                    "name": "D4",
                    "midi": 62,
                    "time": 18.428553000000004,
                    "velocity": 0.5039370078740157,
                    "duration": 0.4285710000000016
                },
                {
                    "name": "E4",
                    "midi": 64,
                    "time": 18.428553000000004,
                    "velocity": 0.5590551181102362,
                    "duration": 0.4285710000000016
                },
                {
                    "name": "C4",
                    "midi": 60,
                    "time": 18.857124000000006,
                    "velocity": 0.5039370078740157,
                    "duration": 0.6428565000000006
                },
                {
                    "name": "E4",
                    "midi": 64,
                    "time": 18.857124000000006,
                    "velocity": 0.5039370078740157,
                    "duration": 0.6428565000000006
                },
                {
                    "name": "A4",
                    "midi": 69,
                    "time": 18.857124000000006,
                    "velocity": 0.5590551181102362,
                    "duration": 0.6428565000000006
                },
                {
                    "name": "E4",
                    "midi": 64,
                    "time": 19.499980500000007,
                    "velocity": 0.4881889763779528,
                    "duration": 0.21428549999999902
                },
                {
                    "name": "B4",
                    "midi": 71,
                    "time": 19.499980500000007,
                    "velocity": 0.5354330708661418,
                    "duration": 0.21428549999999902
                },
                {
                    "name": "A4",
                    "midi": 69,
                    "time": 19.714266000000006,
                    "velocity": 0.5039370078740157,
                    "duration": 0.4285710000000016
                },
                {
                    "name": "C5",
                    "midi": 72,
                    "time": 19.714266000000006,
                    "velocity": 0.5590551181102362,
                    "duration": 0.4285710000000016
                },
                {
                    "name": "B4",
                    "midi": 71,
                    "time": 20.142837000000007,
                    "velocity": 0.5039370078740157,
                    "duration": 0.4285710000000016
                },
                {
                    "name": "D5",
                    "midi": 74,
                    "time": 20.142837000000007,
                    "velocity": 0.5590551181102362,
                    "duration": 0.4285710000000016
                },
                {
                    "name": "C5",
                    "midi": 72,
                    "time": 20.57140800000001,
                    "velocity": 0.5039370078740157,
                    "duration": 0.4071424499999985
                },
                {
                    "name": "E5",
                    "midi": 76,
                    "time": 20.57140800000001,
                    "velocity": 0.5748031496062992,
                    "duration": 0.4071424499999985
                },
                {
                    "name": "G4",
                    "midi": 67,
                    "time": 20.999979000000007,
                    "velocity": 0.5354330708661418,
                    "duration": 0.8571419999999996
                },
                {
                    "name": "E5",
                    "midi": 76,
                    "time": 20.999979000000007,
                    "velocity": 0.5354330708661418,
                    "duration": 0.8571419999999996
                },
                {
                    "name": "G5",
                    "midi": 79,
                    "time": 20.999979000000007,
                    "velocity": 0.5984251968503937,
                    "duration": 0.8571419999999996
                },
                {
                    "name": "D5",
                    "midi": 74,
                    "time": 21.857121000000006,
                    "velocity": 0.5039370078740157,
                    "duration": 0.3214282500000003
                },
                {
                    "name": "F5",
                    "midi": 77,
                    "time": 21.857121000000006,
                    "velocity": 0.5748031496062992,
                    "duration": 0.3214282500000003
                },
                {
                    "name": "C5",
                    "midi": 72,
                    "time": 22.178549250000007,
                    "velocity": 0.47244094488188976,
                    "duration": 0.10178561249999873
                },
                {
                    "name": "E5",
                    "midi": 76,
                    "time": 22.178549250000007,
                    "velocity": 0.5275590551181102,
                    "duration": 0.10178561249999873
                },
                {
                    "name": "C5",
                    "midi": 72,
                    "time": 22.285692000000004,
                    "velocity": 0.5039370078740157,
                    "duration": 0.4285710000000016
                },
                {
                    "name": "E5",
                    "midi": 76,
                    "time": 22.285692000000004,
                    "velocity": 0.5590551181102362,
                    "duration": 0.4285710000000016
                },
                {
                    "name": "B4",
                    "midi": 71,
                    "time": 22.714263000000006,
                    "velocity": 0.5039370078740157,
                    "duration": 0.3214282500000003
                },
                {
                    "name": "D5",
                    "midi": 74,
                    "time": 22.714263000000006,
                    "velocity": 0.5590551181102362,
                    "duration": 0.3214282500000003
                },
                {
                    "name": "A4",
                    "midi": 69,
                    "time": 23.035691250000006,
                    "velocity": 0.47244094488188976,
                    "duration": 0.10178561249999873
                },
                {
                    "name": "C5",
                    "midi": 72,
                    "time": 23.035691250000006,
                    "velocity": 0.5275590551181102,
                    "duration": 0.10178561249999873
                },
                {
                    "name": "A4",
                    "midi": 69,
                    "time": 23.142834000000004,
                    "velocity": 0.5039370078740157,
                    "duration": 0.4285710000000016
                },
                {
                    "name": "C5",
                    "midi": 72,
                    "time": 23.142834000000004,
                    "velocity": 0.5590551181102362,
                    "duration": 0.4285710000000016
                },
                {
                    "name": "G4",
                    "midi": 67,
                    "time": 23.571405000000006,
                    "velocity": 0.5118110236220472,
                    "duration": 0.3214282500000003
                },
                {
                    "name": "B4",
                    "midi": 71,
                    "time": 23.571405000000006,
                    "velocity": 0.5826771653543307,
                    "duration": 0.3214282500000003
                },
                {
                    "name": "F4",
                    "midi": 65,
                    "time": 23.892833250000006,
                    "velocity": 0.47244094488188976,
                    "duration": 0.10178561249999873
                },
                {
                    "name": "A4",
                    "midi": 69,
                    "time": 23.892833250000006,
                    "velocity": 0.5275590551181102,
                    "duration": 0.10178561249999873
                },
                {
                    "name": "F4",
                    "midi": 65,
                    "time": 23.999976000000004,
                    "velocity": 0.44881889763779526,
                    "duration": 0.10714275000000129
                },
                {
                    "name": "A4",
                    "midi": 69,
                    "time": 23.999976000000004,
                    "velocity": 0.5039370078740157,
                    "duration": 0.10714275000000129
                },
                {
                    "name": "B3",
                    "midi": 59,
                    "time": 24.214261500000006,
                    "velocity": 0.44881889763779526,
                    "duration": 0.10714275000000129
                },
                {
                    "name": "G#4",
                    "midi": 68,
                    "time": 24.214261500000006,
                    "velocity": 0.44881889763779526,
                    "duration": 0.10714275000000129
                },
                {
                    "name": "B4",
                    "midi": 71,
                    "time": 24.214261500000006,
                    "velocity": 0.5118110236220472,
                    "duration": 0.10714275000000129
                },
                {
                    "name": "C4",
                    "midi": 60,
                    "time": 24.42854700000001,
                    "velocity": 0.4645669291338583,
                    "duration": 0.10714275000000129
                },
                {
                    "name": "A4",
                    "midi": 69,
                    "time": 24.42854700000001,
                    "velocity": 0.4645669291338583,
                    "duration": 0.10714275000000129
                },
                {
                    "name": "C5",
                    "midi": 72,
                    "time": 24.42854700000001,
                    "velocity": 0.5275590551181102,
                    "duration": 0.10714275000000129
                },
                {
                    "name": "D4",
                    "midi": 62,
                    "time": 24.64283250000001,
                    "velocity": 0.4881889763779528,
                    "duration": 0.10714275000000129
                },
                {
                    "name": "B4",
                    "midi": 71,
                    "time": 24.64283250000001,
                    "velocity": 0.4881889763779528,
                    "duration": 0.10714275000000129
                },
                {
                    "name": "D5",
                    "midi": 74,
                    "time": 24.64283250000001,
                    "velocity": 0.5433070866141733,
                    "duration": 0.10714275000000129
                },
                {
                    "name": "E4",
                    "midi": 64,
                    "time": 24.857118000000014,
                    "velocity": 0.5039370078740157,
                    "duration": 0.10714275000000129
                },
                {
                    "name": "C5",
                    "midi": 72,
                    "time": 24.857118000000014,
                    "velocity": 0.5039370078740157,
                    "duration": 0.10714275000000129
                },
                {
                    "name": "E5",
                    "midi": 76,
                    "time": 24.857118000000014,
                    "velocity": 0.5590551181102362,
                    "duration": 0.10714275000000129
                },
                {
                    "name": "D4",
                    "midi": 62,
                    "time": 25.071403500000017,
                    "velocity": 0.4881889763779528,
                    "duration": 0.10714275000000129
                },
                {
                    "name": "B4",
                    "midi": 71,
                    "time": 25.071403500000017,
                    "velocity": 0.4881889763779528,
                    "duration": 0.10714275000000129
                },
                {
                    "name": "D5",
                    "midi": 74,
                    "time": 25.071403500000017,
                    "velocity": 0.5433070866141733,
                    "duration": 0.10714275000000129
                },
                {
                    "name": "C4",
                    "midi": 60,
                    "time": 25.28568900000002,
                    "velocity": 0.4645669291338583,
                    "duration": 0.10714275000000129
                },
                {
                    "name": "A4",
                    "midi": 69,
                    "time": 25.28568900000002,
                    "velocity": 0.4645669291338583,
                    "duration": 0.10714275000000129
                },
                {
                    "name": "C5",
                    "midi": 72,
                    "time": 25.28568900000002,
                    "velocity": 0.5275590551181102,
                    "duration": 0.10714275000000129
                },
                {
                    "name": "B3",
                    "midi": 59,
                    "time": 25.60711725000002,
                    "velocity": 0.44881889763779526,
                    "duration": 0.10178561249999873
                },
                {
                    "name": "E4",
                    "midi": 64,
                    "time": 25.60711725000002,
                    "velocity": 0.44881889763779526,
                    "duration": 0.10178561249999873
                },
                {
                    "name": "B4",
                    "midi": 71,
                    "time": 25.60711725000002,
                    "velocity": 0.5118110236220472,
                    "duration": 0.10178561249999873
                },
                {
                    "name": "B3",
                    "midi": 59,
                    "time": 25.714260000000017,
                    "velocity": 0.41732283464566927,
                    "duration": 0.8571419999999996
                },
                {
                    "name": "E4",
                    "midi": 64,
                    "time": 25.714260000000017,
                    "velocity": 0.41732283464566927,
                    "duration": 0.8571419999999996
                },
                {
                    "name": "B4",
                    "midi": 71,
                    "time": 25.714260000000017,
                    "velocity": 0.5196850393700787,
                    "duration": 0.8571419999999996
                },
                {
                    "name": "C4",
                    "midi": 60,
                    "time": 26.571402000000017,
                    "velocity": 0.44881889763779526,
                    "duration": 0.21428549999999902
                },
                {
                    "name": "A4",
                    "midi": 69,
                    "time": 26.571402000000017,
                    "velocity": 0.5118110236220472,
                    "duration": 0.21428549999999902
                },
                {
                    "name": "G#4",
                    "midi": 68,
                    "time": 27.214258500000017,
                    "velocity": 0.2755905511811024,
                    "duration": 0.10714275000000129
                },
                {
                    "name": "A4",
                    "midi": 69,
                    "time": 27.32140125000002,
                    "velocity": 0.2755905511811024,
                    "duration": 0.10714275000000129
                },
                {
                    "name": "B4",
                    "midi": 71,
                    "time": 27.42854400000002,
                    "velocity": 0.3228346456692913,
                    "duration": 0.10714275000000129
                },
                {
                    "name": "G#4",
                    "midi": 68,
                    "time": 27.53568675000002,
                    "velocity": 0.2755905511811024,
                    "duration": 0.10714275000000129
                },
                {
                    "name": "E4",
                    "midi": 64,
                    "time": 27.642829500000023,
                    "velocity": 0.2755905511811024,
                    "duration": 0.16071412499999838
                },
                {
                    "name": "B4",
                    "midi": 71,
                    "time": 27.96425775000002,
                    "velocity": 0.2755905511811024,
                    "duration": 0.10714275000000129
                },
                {
                    "name": "G#4",
                    "midi": 68,
                    "time": 28.07140050000002,
                    "velocity": 0.2755905511811024,
                    "duration": 0.10714275000000129
                },
                {
                    "name": "E4",
                    "midi": 64,
                    "time": 28.178543250000022,
                    "velocity": 0.2755905511811024,
                    "duration": 0.10714275000000129
                },
                {
                    "name": "C5",
                    "midi": 72,
                    "time": 28.285686000000023,
                    "velocity": 0.3228346456692913,
                    "duration": 0.10714275000000129
                },
                {
                    "name": "A4",
                    "midi": 69,
                    "time": 28.392828750000024,
                    "velocity": 0.2755905511811024,
                    "duration": 0.10714275000000129
                },
                {
                    "name": "E4",
                    "midi": 64,
                    "time": 28.499971500000026,
                    "velocity": 0.2755905511811024,
                    "duration": 0.16071412499999838
                },
                {
                    "name": "C5",
                    "midi": 72,
                    "time": 28.821399750000023,
                    "velocity": 0.28346456692913385,
                    "duration": 0.10714275000000129
                },
                {
                    "name": "A4",
                    "midi": 69,
                    "time": 28.928542500000024,
                    "velocity": 0.28346456692913385,
                    "duration": 0.10714275000000129
                },
                {
                    "name": "E4",
                    "midi": 64,
                    "time": 29.035685250000025,
                    "velocity": 0.28346456692913385,
                    "duration": 0.10714275000000129
                },
                {
                    "name": "A4",
                    "midi": 69,
                    "time": 29.142828000000026,
                    "velocity": 0.3228346456692913,
                    "duration": 0.10714275000000129
                },
                {
                    "name": "F#4",
                    "midi": 66,
                    "time": 29.249970750000028,
                    "velocity": 0.2755905511811024,
                    "duration": 0.10714275000000129
                },
                {
                    "name": "D#4",
                    "midi": 63,
                    "time": 29.35711350000003,
                    "velocity": 0.2755905511811024,
                    "duration": 0.16071412499999838
                },
                {
                    "name": "A4",
                    "midi": 69,
                    "time": 29.678541750000026,
                    "velocity": 0.28346456692913385,
                    "duration": 0.10714275000000129
                },
                {
                    "name": "F#4",
                    "midi": 66,
                    "time": 29.785684500000027,
                    "velocity": 0.28346456692913385,
                    "duration": 0.10714275000000129
                },
                {
                    "name": "D#4",
                    "midi": 63,
                    "time": 29.89282725000003,
                    "velocity": 0.28346456692913385,
                    "duration": 0.10714275000000129
                },
                {
                    "name": "B4",
                    "midi": 71,
                    "time": 29.99997000000003,
                    "velocity": 0.3228346456692913,
                    "duration": 0.10714275000000129
                },
                {
                    "name": "G#4",
                    "midi": 68,
                    "time": 30.10711275000003,
                    "velocity": 0.2755905511811024,
                    "duration": 0.10714275000000129
                },
                {
                    "name": "E4",
                    "midi": 64,
                    "time": 30.214255500000032,
                    "velocity": 0.2755905511811024,
                    "duration": 0.16071412499999838
                },
                {
                    "name": "F#4",
                    "midi": 66,
                    "time": 30.53568375000003,
                    "velocity": 0.2992125984251969,
                    "duration": 0.10714275000000129
                },
                {
                    "name": "G#4",
                    "midi": 68,
                    "time": 30.64282650000003,
                    "velocity": 0.2992125984251969,
                    "duration": 0.10714275000000129
                },
                {
                    "name": "A4",
                    "midi": 69,
                    "time": 30.74996925000003,
                    "velocity": 0.2992125984251969,
                    "duration": 0.10714275000000129
                },
                {
                    "name": "B4",
                    "midi": 71,
                    "time": 30.857112000000033,
                    "velocity": 0.3543307086614173,
                    "duration": 0.10714275000000129
                },
                {
                    "name": "G#4",
                    "midi": 68,
                    "time": 30.964254750000034,
                    "velocity": 0.29133858267716534,
                    "duration": 0.10714275000000129
                },
                {
                    "name": "E4",
                    "midi": 64,
                    "time": 31.071397500000035,
                    "velocity": 0.2992125984251969,
                    "duration": 0.16071412499999838
                },
                {
                    "name": "B4",
                    "midi": 71,
                    "time": 31.392825750000032,
                    "velocity": 0.3543307086614173,
                    "duration": 0.10714275000000129
                },
                {
                    "name": "G#4",
                    "midi": 68,
                    "time": 31.499968500000033,
                    "velocity": 0.36220472440944884,
                    "duration": 0.10714275000000129
                },
                {
                    "name": "E4",
                    "midi": 64,
                    "time": 31.607111250000035,
                    "velocity": 0.36220472440944884,
                    "duration": 0.10714275000000129
                },
                {
                    "name": "C5",
                    "midi": 72,
                    "time": 31.714254000000036,
                    "velocity": 0.3937007874015748,
                    "duration": 0.10714275000000129
                },
                {
                    "name": "A4",
                    "midi": 69,
                    "time": 31.821396750000037,
                    "velocity": 0.36220472440944884,
                    "duration": 0.10714275000000129
                },
                {
                    "name": "E4",
                    "midi": 64,
                    "time": 31.92853950000004,
                    "velocity": 0.36220472440944884,
                    "duration": 0.16071412500000193
                },
                {
                    "name": "C5",
                    "midi": 72,
                    "time": 32.24996775000004,
                    "velocity": 0.4094488188976378,
                    "duration": 0.10714275000000129
                },
                {
                    "name": "A4",
                    "midi": 69,
                    "time": 32.35711050000004,
                    "velocity": 0.4094488188976378,
                    "duration": 0.10714275000000129
                },
                {
                    "name": "E4",
                    "midi": 64,
                    "time": 32.46425325000004,
                    "velocity": 0.4094488188976378,
                    "duration": 0.10714275000000129
                },
                {
                    "name": "A4",
                    "midi": 69,
                    "time": 32.57139600000004,
                    "velocity": 0.44881889763779526,
                    "duration": 0.10714275000000129
                },
                {
                    "name": "F#4",
                    "midi": 66,
                    "time": 32.678538750000044,
                    "velocity": 0.41732283464566927,
                    "duration": 0.10714275000000129
                },
                {
                    "name": "D#4",
                    "midi": 63,
                    "time": 32.785681500000045,
                    "velocity": 0.41732283464566927,
                    "duration": 0.16071412499999838
                },
                {
                    "name": "A4",
                    "midi": 69,
                    "time": 33.10710975000004,
                    "velocity": 0.4566929133858268,
                    "duration": 0.10714275000000129
                },
                {
                    "name": "F#4",
                    "midi": 66,
                    "time": 33.21425250000004,
                    "velocity": 0.4566929133858268,
                    "duration": 0.10714275000000129
                },
                {
                    "name": "D#4",
                    "midi": 63,
                    "time": 33.321395250000045,
                    "velocity": 0.47244094488188976,
                    "duration": 0.10714275000000129
                },
                {
                    "name": "B4",
                    "midi": 71,
                    "time": 33.428538000000046,
                    "velocity": 0.5196850393700787,
                    "duration": 0.10714275000000129
                },
                {
                    "name": "G#4",
                    "midi": 68,
                    "time": 33.53568075000005,
                    "velocity": 0.4566929133858268,
                    "duration": 0.10714275000000129
                },
                {
                    "name": "E4",
                    "midi": 64,
                    "time": 33.64282350000005,
                    "velocity": 0.44881889763779526,
                    "duration": 0.16071412499999838
                },
                {
                    "name": "E4",
                    "midi": 64,
                    "time": 34.071394500000046,
                    "velocity": 0.5590551181102362,
                    "duration": 0.21428550000000257
                },
                {
                    "name": "E4",
                    "midi": 64,
                    "time": 34.28568000000005,
                    "velocity": 0.5039370078740157,
                    "duration": 0.6428565000000006
                },
                {
                    "name": "B4",
                    "midi": 71,
                    "time": 34.28568000000005,
                    "velocity": 0.5590551181102362,
                    "duration": 0.6428565000000006
                },
                {
                    "name": "A4",
                    "midi": 69,
                    "time": 34.92853650000005,
                    "velocity": 0.4881889763779528,
                    "duration": 0.21428550000000257
                },
                {
                    "name": "C5",
                    "midi": 72,
                    "time": 34.92853650000005,
                    "velocity": 0.5354330708661418,
                    "duration": 0.21428550000000257
                },
                {
                    "name": "G#4",
                    "midi": 68,
                    "time": 35.14282200000005,
                    "velocity": 0.5039370078740157,
                    "duration": 0.42857099999999804
                },
                {
                    "name": "D5",
                    "midi": 74,
                    "time": 35.14282200000005,
                    "velocity": 0.5590551181102362,
                    "duration": 0.42857099999999804
                },
                {
                    "name": "A4",
                    "midi": 69,
                    "time": 35.57139300000005,
                    "velocity": 0.5039370078740157,
                    "duration": 0.42857099999999804
                },
                {
                    "name": "C5",
                    "midi": 72,
                    "time": 35.57139300000005,
                    "velocity": 0.5590551181102362,
                    "duration": 0.42857099999999804
                },
                {
                    "name": "G#4",
                    "midi": 68,
                    "time": 35.99996400000005,
                    "velocity": 0.5039370078740157,
                    "duration": 0.10714275000000129
                },
                {
                    "name": "F5",
                    "midi": 77,
                    "time": 35.99996400000005,
                    "velocity": 0.5748031496062992,
                    "duration": 0.10714275000000129
                },
                {
                    "name": "G#4",
                    "midi": 68,
                    "time": 36.32139225000005,
                    "velocity": 0.5039370078740157,
                    "duration": 0.08035706249999919
                },
                {
                    "name": "E5",
                    "midi": 76,
                    "time": 36.32139225000005,
                    "velocity": 0.5748031496062992,
                    "duration": 0.08035706249999919
                },
                {
                    "name": "G#4",
                    "midi": 68,
                    "time": 36.42853500000005,
                    "velocity": 0.5354330708661418,
                    "duration": 0.8571420000000032
                },
                {
                    "name": "D5",
                    "midi": 74,
                    "time": 36.42853500000005,
                    "velocity": 0.5984251968503937,
                    "duration": 0.8571420000000032
                },
                {
                    "name": "G#4",
                    "midi": 68,
                    "time": 37.28567700000006,
                    "velocity": 0.5039370078740157,
                    "duration": 0.42857099999999804
                },
                {
                    "name": "F5",
                    "midi": 77,
                    "time": 37.28567700000006,
                    "velocity": 0.5748031496062992,
                    "duration": 0.42857099999999804
                },
                {
                    "name": "A4",
                    "midi": 69,
                    "time": 37.714248000000055,
                    "velocity": 0.5039370078740157,
                    "duration": 0.42857099999999804
                },
                {
                    "name": "E5",
                    "midi": 76,
                    "time": 37.714248000000055,
                    "velocity": 0.5590551181102362,
                    "duration": 0.42857099999999804
                },
                {
                    "name": "E4",
                    "midi": 64,
                    "time": 38.14281900000005,
                    "velocity": 0.5039370078740157,
                    "duration": 0.42857099999999804
                },
                {
                    "name": "C5",
                    "midi": 72,
                    "time": 38.14281900000005,
                    "velocity": 0.5590551181102362,
                    "duration": 0.42857099999999804
                },
                {
                    "name": "E4",
                    "midi": 64,
                    "time": 38.57139000000005,
                    "velocity": 0.5039370078740157,
                    "duration": 0.42857099999999804
                },
                {
                    "name": "B4",
                    "midi": 71,
                    "time": 38.57139000000005,
                    "velocity": 0.5433070866141733,
                    "duration": 0.42857099999999804
                },
                {
                    "name": "C4",
                    "midi": 60,
                    "time": 38.99996100000005,
                    "velocity": 0.44881889763779526,
                    "duration": 0.42857099999999804
                },
                {
                    "name": "D#4",
                    "midi": 63,
                    "time": 38.99996100000005,
                    "velocity": 0.5118110236220472,
                    "duration": 0.42857099999999804
                },
                {
                    "name": "A4",
                    "midi": 69,
                    "time": 38.99996100000005,
                    "velocity": 0.5511811023622047,
                    "duration": 0.32142824999999675
                },
                {
                    "name": "B4",
                    "midi": 71,
                    "time": 39.321389250000045,
                    "velocity": 0.5275590551181102,
                    "duration": 0.10714275000000129
                },
                {
                    "name": "C4",
                    "midi": 60,
                    "time": 39.42853200000005,
                    "velocity": 0.4566929133858268,
                    "duration": 0.8571420000000032
                },
                {
                    "name": "D#4",
                    "midi": 63,
                    "time": 39.42853200000005,
                    "velocity": 0.4566929133858268,
                    "duration": 0.8571420000000032
                },
                {
                    "name": "A4",
                    "midi": 69,
                    "time": 39.42853200000005,
                    "velocity": 0.5196850393700787,
                    "duration": 0.8571420000000032
                },
                {
                    "name": "B3",
                    "midi": 59,
                    "time": 40.28567400000005,
                    "velocity": 0.44881889763779526,
                    "duration": 0.42857099999999804
                },
                {
                    "name": "E4",
                    "midi": 64,
                    "time": 40.28567400000005,
                    "velocity": 0.44881889763779526,
                    "duration": 0.42857099999999804
                },
                {
                    "name": "G#4",
                    "midi": 68,
                    "time": 40.28567400000005,
                    "velocity": 0.5118110236220472,
                    "duration": 0.42857099999999804
                },
                {
                    "name": "E4",
                    "midi": 64,
                    "time": 40.71424500000005,
                    "velocity": 0.5590551181102362,
                    "duration": 0.42857099999999804
                },
                {
                    "name": "B3",
                    "midi": 59,
                    "time": 41.142816000000046,
                    "velocity": 0.5039370078740157,
                    "duration": 0.6428565000000006
                },
                {
                    "name": "E4",
                    "midi": 64,
                    "time": 41.142816000000046,
                    "velocity": 0.5039370078740157,
                    "duration": 0.6428565000000006
                },
                {
                    "name": "B4",
                    "midi": 71,
                    "time": 41.142816000000046,
                    "velocity": 0.5590551181102362,
                    "duration": 0.6428565000000006
                },
                {
                    "name": "C4",
                    "midi": 60,
                    "time": 41.78567250000005,
                    "velocity": 0.4881889763779528,
                    "duration": 0.21428550000000257
                },
                {
                    "name": "A4",
                    "midi": 69,
                    "time": 41.78567250000005,
                    "velocity": 0.4881889763779528,
                    "duration": 0.21428550000000257
                },
                {
                    "name": "C5",
                    "midi": 72,
                    "time": 41.78567250000005,
                    "velocity": 0.5354330708661418,
                    "duration": 0.21428550000000257
                },
                {
                    "name": "D4",
                    "midi": 62,
                    "time": 41.99995800000005,
                    "velocity": 0.5039370078740157,
                    "duration": 0.42857099999999804
                },
                {
                    "name": "G#4",
                    "midi": 68,
                    "time": 41.99995800000005,
                    "velocity": 0.5039370078740157,
                    "duration": 0.42857099999999804
                },
                {
                    "name": "D5",
                    "midi": 74,
                    "time": 41.99995800000005,
                    "velocity": 0.5590551181102362,
                    "duration": 0.42857099999999804
                },
                {
                    "name": "F4",
                    "midi": 65,
                    "time": 42.42852900000005,
                    "velocity": 0.5039370078740157,
                    "duration": 0.42857099999999804
                },
                {
                    "name": "G#4",
                    "midi": 68,
                    "time": 42.42852900000005,
                    "velocity": 0.5039370078740157,
                    "duration": 0.42857099999999804
                },
                {
                    "name": "F5",
                    "midi": 77,
                    "time": 42.42852900000005,
                    "velocity": 0.5590551181102362,
                    "duration": 0.42857099999999804
                },
                {
                    "name": "A4",
                    "midi": 69,
                    "time": 42.857100000000045,
                    "velocity": 0.5039370078740157,
                    "duration": 0.10714275000000129
                },
                {
                    "name": "E4",
                    "midi": 64,
                    "time": 42.857100000000045,
                    "velocity": 0.5039370078740157,
                    "duration": 0.10714275000000129
                },
                {
                    "name": "E5",
                    "midi": 76,
                    "time": 42.857100000000045,
                    "velocity": 0.5748031496062992,
                    "duration": 0.10714275000000129
                },
                {
                    "name": "A4",
                    "midi": 69,
                    "time": 43.17852825000005,
                    "velocity": 0.5039370078740157,
                    "duration": 0.08035706249999919
                },
                {
                    "name": "D4",
                    "midi": 62,
                    "time": 43.17852825000005,
                    "velocity": 0.5039370078740157,
                    "duration": 0.08035706249999919
                },
                {
                    "name": "D5",
                    "midi": 74,
                    "time": 43.17852825000005,
                    "velocity": 0.5748031496062992,
                    "duration": 0.08035706249999919
                },
                {
                    "name": "C4",
                    "midi": 60,
                    "time": 43.28567100000005,
                    "velocity": 0.5039370078740157,
                    "duration": 0.8571420000000032
                },
                {
                    "name": "A4",
                    "midi": 69,
                    "time": 43.28567100000005,
                    "velocity": 0.5354330708661418,
                    "duration": 0.8571420000000032
                },
                {
                    "name": "C5",
                    "midi": 72,
                    "time": 43.28567100000005,
                    "velocity": 0.5905511811023622,
                    "duration": 0.8571420000000032
                },
                {
                    "name": "C5",
                    "midi": 72,
                    "time": 44.142813000000054,
                    "velocity": 0.5433070866141733,
                    "duration": 0.42857099999999804
                },
                {
                    "name": "E4",
                    "midi": 64,
                    "time": 44.142813000000054,
                    "velocity": 0.5433070866141733,
                    "duration": 0.42857099999999804
                },
                {
                    "name": "E5",
                    "midi": 76,
                    "time": 44.142813000000054,
                    "velocity": 0.6141732283464567,
                    "duration": 0.42857099999999804
                },
                {
                    "name": "B4",
                    "midi": 71,
                    "time": 44.57138400000005,
                    "velocity": 0.5433070866141733,
                    "duration": 0.42857099999999804
                },
                {
                    "name": "D4",
                    "midi": 62,
                    "time": 44.57138400000005,
                    "velocity": 0.5433070866141733,
                    "duration": 0.42857099999999804
                },
                {
                    "name": "D5",
                    "midi": 74,
                    "time": 44.57138400000005,
                    "velocity": 0.6062992125984252,
                    "duration": 0.42857099999999804
                },
                {
                    "name": "A4",
                    "midi": 69,
                    "time": 44.99995500000005,
                    "velocity": 0.5433070866141733,
                    "duration": 0.42857099999999804
                },
                {
                    "name": "E4",
                    "midi": 64,
                    "time": 44.99995500000005,
                    "velocity": 0.5433070866141733,
                    "duration": 0.42857099999999804
                },
                {
                    "name": "C5",
                    "midi": 72,
                    "time": 44.99995500000005,
                    "velocity": 0.6062992125984252,
                    "duration": 0.42857099999999804
                },
                {
                    "name": "G4",
                    "midi": 67,
                    "time": 45.42852600000005,
                    "velocity": 0.5669291338582677,
                    "duration": 0.42857099999999804
                },
                {
                    "name": "D4",
                    "midi": 62,
                    "time": 45.42852600000005,
                    "velocity": 0.5354330708661418,
                    "duration": 0.42857099999999804
                },
                {
                    "name": "B4",
                    "midi": 71,
                    "time": 45.42852600000005,
                    "velocity": 0.5905511811023622,
                    "duration": 0.42857099999999804
                },
                {
                    "name": "F#4",
                    "midi": 66,
                    "time": 45.857097000000046,
                    "velocity": 0.5590551181102362,
                    "duration": 0.42857099999999804
                },
                {
                    "name": "C4",
                    "midi": 60,
                    "time": 45.857097000000046,
                    "velocity": 0.5590551181102362,
                    "duration": 0.42857099999999804
                },
                {
                    "name": "D4",
                    "midi": 62,
                    "time": 45.857097000000046,
                    "velocity": 0.5590551181102362,
                    "duration": 0.42857099999999804
                },
                {
                    "name": "A4",
                    "midi": 69,
                    "time": 45.857097000000046,
                    "velocity": 0.6220472440944882,
                    "duration": 0.32142824999999675
                },
                {
                    "name": "B4",
                    "midi": 71,
                    "time": 46.17852525000004,
                    "velocity": 0.5826771653543307,
                    "duration": 0.10714275000000129
                },
                {
                    "name": "F#4",
                    "midi": 66,
                    "time": 46.285668000000044,
                    "velocity": 0.5118110236220472,
                    "duration": 0.8571420000000032
                },
                {
                    "name": "C4",
                    "midi": 60,
                    "time": 46.285668000000044,
                    "velocity": 0.5118110236220472,
                    "duration": 0.8571420000000032
                },
                {
                    "name": "D4",
                    "midi": 62,
                    "time": 46.285668000000044,
                    "velocity": 0.5118110236220472,
                    "duration": 0.8571420000000032
                },
                {
                    "name": "A4",
                    "midi": 69,
                    "time": 46.285668000000044,
                    "velocity": 0.5748031496062992,
                    "duration": 0.8571420000000032
                },
                {
                    "name": "B3",
                    "midi": 59,
                    "time": 47.14281000000005,
                    "velocity": 0.5039370078740157,
                    "duration": 0.40714245000000204
                },
                {
                    "name": "D4",
                    "midi": 62,
                    "time": 47.14281000000005,
                    "velocity": 0.5039370078740157,
                    "duration": 0.40714245000000204
                },
                {
                    "name": "G4",
                    "midi": 67,
                    "time": 47.14281000000005,
                    "velocity": 0.5590551181102362,
                    "duration": 0.40714245000000204
                },
                {
                    "name": "G4",
                    "midi": 67,
                    "time": 47.57138100000005,
                    "velocity": 0.6456692913385826,
                    "duration": 0.42857099999999804
                },
                {
                    "name": "G4",
                    "midi": 67,
                    "time": 47.99995200000005,
                    "velocity": 0.5590551181102362,
                    "duration": 0.6428565000000006
                },
                {
                    "name": "E5",
                    "midi": 76,
                    "time": 47.99995200000005,
                    "velocity": 0.5590551181102362,
                    "duration": 0.6428565000000006
                },
                {
                    "name": "G5",
                    "midi": 79,
                    "time": 47.99995200000005,
                    "velocity": 0.6220472440944882,
                    "duration": 0.6428565000000006
                },
                {
                    "name": "F4",
                    "midi": 65,
                    "time": 48.64280850000005,
                    "velocity": 0.5433070866141733,
                    "duration": 0.21428550000000257
                },
                {
                    "name": "D5",
                    "midi": 74,
                    "time": 48.64280850000005,
                    "velocity": 0.5433070866141733,
                    "duration": 0.21428550000000257
                },
                {
                    "name": "F5",
                    "midi": 77,
                    "time": 48.64280850000005,
                    "velocity": 0.5984251968503937,
                    "duration": 0.21428550000000257
                },
                {
                    "name": "E4",
                    "midi": 64,
                    "time": 48.85709400000005,
                    "velocity": 0.5590551181102362,
                    "duration": 0.42857099999999804
                },
                {
                    "name": "C5",
                    "midi": 72,
                    "time": 48.85709400000005,
                    "velocity": 0.5590551181102362,
                    "duration": 0.42857099999999804
                },
                {
                    "name": "E5",
                    "midi": 76,
                    "time": 48.85709400000005,
                    "velocity": 0.6220472440944882,
                    "duration": 0.42857099999999804
                },
                {
                    "name": "F4",
                    "midi": 65,
                    "time": 49.28566500000005,
                    "velocity": 0.5590551181102362,
                    "duration": 0.42857099999999804
                },
                {
                    "name": "D5",
                    "midi": 74,
                    "time": 49.28566500000005,
                    "velocity": 0.5590551181102362,
                    "duration": 0.42857099999999804
                },
                {
                    "name": "F5",
                    "midi": 77,
                    "time": 49.28566500000005,
                    "velocity": 0.6220472440944882,
                    "duration": 0.42857099999999804
                },
                {
                    "name": "C5",
                    "midi": 72,
                    "time": 49.71423600000005,
                    "velocity": 0.5590551181102362,
                    "duration": 0.42857099999999804
                },
                {
                    "name": "E4",
                    "midi": 64,
                    "time": 49.71423600000005,
                    "velocity": 0.5590551181102362,
                    "duration": 0.42857099999999804
                },
                {
                    "name": "E5",
                    "midi": 76,
                    "time": 49.71423600000005,
                    "velocity": 0.6299212598425197,
                    "duration": 0.42857099999999804
                },
                {
                    "name": "D4",
                    "midi": 62,
                    "time": 50.14280700000005,
                    "velocity": 0.5748031496062992,
                    "duration": 0.32142824999999675
                },
                {
                    "name": "B4",
                    "midi": 71,
                    "time": 50.14280700000005,
                    "velocity": 0.5748031496062992,
                    "duration": 0.32142824999999675
                },
                {
                    "name": "D5",
                    "midi": 74,
                    "time": 50.14280700000005,
                    "velocity": 0.6299212598425197,
                    "duration": 0.32142824999999675
                },
                {
                    "name": "C4",
                    "midi": 60,
                    "time": 50.464235250000044,
                    "velocity": 0.5433070866141733,
                    "duration": 0.10714275000000129
                },
                {
                    "name": "A4",
                    "midi": 69,
                    "time": 50.464235250000044,
                    "velocity": 0.5433070866141733,
                    "duration": 0.10714275000000129
                },
                {
                    "name": "C5",
                    "midi": 72,
                    "time": 50.464235250000044,
                    "velocity": 0.5984251968503937,
                    "duration": 0.10714275000000129
                },
                {
                    "name": "D4",
                    "midi": 62,
                    "time": 50.571378000000045,
                    "velocity": 0.5433070866141733,
                    "duration": 0.42857099999999804
                },
                {
                    "name": "B4",
                    "midi": 71,
                    "time": 50.571378000000045,
                    "velocity": 0.5433070866141733,
                    "duration": 0.42857099999999804
                },
                {
                    "name": "D5",
                    "midi": 74,
                    "time": 50.571378000000045,
                    "velocity": 0.6220472440944882,
                    "duration": 0.42857099999999804
                },
                {
                    "name": "F4",
                    "midi": 65,
                    "time": 50.99994900000004,
                    "velocity": 0.5511811023622047,
                    "duration": 0.42857099999999804
                },
                {
                    "name": "G4",
                    "midi": 67,
                    "time": 50.99994900000004,
                    "velocity": 0.6692913385826772,
                    "duration": 0.42857099999999804
                },
                {
                    "name": "C5",
                    "midi": 72,
                    "time": 51.42852000000004,
                    "velocity": 0.5590551181102362,
                    "duration": 0.6428565000000006
                },
                {
                    "name": "E4",
                    "midi": 64,
                    "time": 51.42852000000004,
                    "velocity": 0.5590551181102362,
                    "duration": 0.6428565000000006
                },
                {
                    "name": "E5",
                    "midi": 76,
                    "time": 51.42852000000004,
                    "velocity": 0.6220472440944882,
                    "duration": 0.6428565000000006
                },
                {
                    "name": "D4",
                    "midi": 62,
                    "time": 52.07137650000004,
                    "velocity": 0.5590551181102362,
                    "duration": 0.10714275000000129
                },
                {
                    "name": "B4",
                    "midi": 71,
                    "time": 52.07137650000004,
                    "velocity": 0.5590551181102362,
                    "duration": 0.10714275000000129
                },
                {
                    "name": "D5",
                    "midi": 74,
                    "time": 52.07137650000004,
                    "velocity": 0.6220472440944882,
                    "duration": 0.10714275000000129
                },
                {
                    "name": "C4",
                    "midi": 60,
                    "time": 52.285662000000045,
                    "velocity": 0.5039370078740157,
                    "duration": 0.10714275000000129
                },
                {
                    "name": "A4",
                    "midi": 69,
                    "time": 52.285662000000045,
                    "velocity": 0.5039370078740157,
                    "duration": 0.10714275000000129
                },
                {
                    "name": "C5",
                    "midi": 72,
                    "time": 52.285662000000045,
                    "velocity": 0.5984251968503937,
                    "duration": 0.10714275000000129
                },
                {
                    "name": "D4",
                    "midi": 62,
                    "time": 52.49994750000005,
                    "velocity": 0.5118110236220472,
                    "duration": 0.10714275000000129
                },
                {
                    "name": "B4",
                    "midi": 71,
                    "time": 52.49994750000005,
                    "velocity": 0.5118110236220472,
                    "duration": 0.10714275000000129
                },
                {
                    "name": "D5",
                    "midi": 74,
                    "time": 52.49994750000005,
                    "velocity": 0.6062992125984252,
                    "duration": 0.10714275000000129
                },
                {
                    "name": "E4",
                    "midi": 64,
                    "time": 52.71423300000005,
                    "velocity": 0.5275590551181102,
                    "duration": 0.10714275000000129
                },
                {
                    "name": "C5",
                    "midi": 72,
                    "time": 52.71423300000005,
                    "velocity": 0.5275590551181102,
                    "duration": 0.10714275000000129
                },
                {
                    "name": "E5",
                    "midi": 76,
                    "time": 52.71423300000005,
                    "velocity": 0.6220472440944882,
                    "duration": 0.10714275000000129
                },
                {
                    "name": "D4",
                    "midi": 62,
                    "time": 52.92851850000005,
                    "velocity": 0.5118110236220472,
                    "duration": 0.10714275000000129
                },
                {
                    "name": "B4",
                    "midi": 71,
                    "time": 52.92851850000005,
                    "velocity": 0.5118110236220472,
                    "duration": 0.10714275000000129
                },
                {
                    "name": "D5",
                    "midi": 74,
                    "time": 52.92851850000005,
                    "velocity": 0.6062992125984252,
                    "duration": 0.10714275000000129
                },
                {
                    "name": "A4",
                    "midi": 69,
                    "time": 53.142804000000055,
                    "velocity": 0.5590551181102362,
                    "duration": 0.42857099999999804
                },
                {
                    "name": "C4",
                    "midi": 60,
                    "time": 53.142804000000055,
                    "velocity": 0.5590551181102362,
                    "duration": 0.42857099999999804
                },
                {
                    "name": "C5",
                    "midi": 72,
                    "time": 53.142804000000055,
                    "velocity": 0.6299212598425197,
                    "duration": 0.42857099999999804
                },
                {
                    "name": "B3",
                    "midi": 59,
                    "time": 53.57137500000005,
                    "velocity": 0.5748031496062992,
                    "duration": 0.32142824999999675
                },
                {
                    "name": "G#4",
                    "midi": 68,
                    "time": 53.57137500000005,
                    "velocity": 0.5748031496062992,
                    "duration": 0.32142824999999675
                },
                {
                    "name": "B4",
                    "midi": 71,
                    "time": 53.57137500000005,
                    "velocity": 0.6299212598425197,
                    "duration": 0.32142824999999675
                },
                {
                    "name": "A3",
                    "midi": 57,
                    "time": 53.89280325000005,
                    "velocity": 0.5118110236220472,
                    "duration": 0.10714275000000129
                },
                {
                    "name": "F#4",
                    "midi": 66,
                    "time": 53.89280325000005,
                    "velocity": 0.5118110236220472,
                    "duration": 0.10714275000000129
                },
                {
                    "name": "A4",
                    "midi": 69,
                    "time": 53.89280325000005,
                    "velocity": 0.5748031496062992,
                    "duration": 0.10714275000000129
                },
                {
                    "name": "B3",
                    "midi": 59,
                    "time": 53.99994600000005,
                    "velocity": 0.5118110236220472,
                    "duration": 0.42857099999999804
                },
                {
                    "name": "G#4",
                    "midi": 68,
                    "time": 53.99994600000005,
                    "velocity": 0.5118110236220472,
                    "duration": 0.42857099999999804
                },
                {
                    "name": "B4",
                    "midi": 71,
                    "time": 53.99994600000005,
                    "velocity": 0.5984251968503937,
                    "duration": 0.42857099999999804
                },
                {
                    "name": "D4",
                    "midi": 62,
                    "time": 54.42851700000005,
                    "velocity": 0.5590551181102362,
                    "duration": 0.42857099999999804
                },
                {
                    "name": "E4",
                    "midi": 64,
                    "time": 54.42851700000005,
                    "velocity": 0.6299212598425197,
                    "duration": 0.42857099999999804
                },
                {
                    "name": "C4",
                    "midi": 60,
                    "time": 54.85708800000005,
                    "velocity": 0.5590551181102362,
                    "duration": 0.6428565000000006
                },
                {
                    "name": "E4",
                    "midi": 64,
                    "time": 54.85708800000005,
                    "velocity": 0.5590551181102362,
                    "duration": 0.6428565000000006
                },
                {
                    "name": "A4",
                    "midi": 69,
                    "time": 54.85708800000005,
                    "velocity": 0.6220472440944882,
                    "duration": 0.6428565000000006
                },
                {
                    "name": "E4",
                    "midi": 64,
                    "time": 55.49994450000005,
                    "velocity": 0.5433070866141733,
                    "duration": 0.21428550000000257
                },
                {
                    "name": "B4",
                    "midi": 71,
                    "time": 55.49994450000005,
                    "velocity": 0.5984251968503937,
                    "duration": 0.21428550000000257
                },
                {
                    "name": "A4",
                    "midi": 69,
                    "time": 55.71423000000005,
                    "velocity": 0.5590551181102362,
                    "duration": 0.42857099999999804
                },
                {
                    "name": "C5",
                    "midi": 72,
                    "time": 55.71423000000005,
                    "velocity": 0.6220472440944882,
                    "duration": 0.42857099999999804
                },
                {
                    "name": "B4",
                    "midi": 71,
                    "time": 56.14280100000005,
                    "velocity": 0.5590551181102362,
                    "duration": 0.42857099999999804
                },
                {
                    "name": "D5",
                    "midi": 74,
                    "time": 56.14280100000005,
                    "velocity": 0.6220472440944882,
                    "duration": 0.42857099999999804
                },
                {
                    "name": "C5",
                    "midi": 72,
                    "time": 56.571372000000046,
                    "velocity": 0.5590551181102362,
                    "duration": 0.40714245000000204
                },
                {
                    "name": "E5",
                    "midi": 76,
                    "time": 56.571372000000046,
                    "velocity": 0.6299212598425197,
                    "duration": 0.40714245000000204
                },
                {
                    "name": "G4",
                    "midi": 67,
                    "time": 56.99994300000005,
                    "velocity": 0.5984251968503937,
                    "duration": 0.8571420000000032
                },
                {
                    "name": "E5",
                    "midi": 76,
                    "time": 56.99994300000005,
                    "velocity": 0.5984251968503937,
                    "duration": 0.8571420000000032
                },
                {
                    "name": "G5",
                    "midi": 79,
                    "time": 56.99994300000005,
                    "velocity": 0.6771653543307087,
                    "duration": 0.8571420000000032
                },
                {
                    "name": "D5",
                    "midi": 74,
                    "time": 57.857085000000055,
                    "velocity": 0.5590551181102362,
                    "duration": 0.32142824999999675
                },
                {
                    "name": "F5",
                    "midi": 77,
                    "time": 57.857085000000055,
                    "velocity": 0.6299212598425197,
                    "duration": 0.32142824999999675
                },
                {
                    "name": "C5",
                    "midi": 72,
                    "time": 58.17851325000005,
                    "velocity": 0.5354330708661418,
                    "duration": 0.10178561250000229
                },
                {
                    "name": "E5",
                    "midi": 76,
                    "time": 58.17851325000005,
                    "velocity": 0.5984251968503937,
                    "duration": 0.10178561250000229
                },
                {
                    "name": "C5",
                    "midi": 72,
                    "time": 58.28565600000005,
                    "velocity": 0.5590551181102362,
                    "duration": 0.42857099999999804
                },
                {
                    "name": "E5",
                    "midi": 76,
                    "time": 58.28565600000005,
                    "velocity": 0.6220472440944882,
                    "duration": 0.42857099999999804
                },
                {
                    "name": "B4",
                    "midi": 71,
                    "time": 58.71422700000005,
                    "velocity": 0.5590551181102362,
                    "duration": 0.32142824999999675
                },
                {
                    "name": "D5",
                    "midi": 74,
                    "time": 58.71422700000005,
                    "velocity": 0.6220472440944882,
                    "duration": 0.32142824999999675
                },
                {
                    "name": "A4",
                    "midi": 69,
                    "time": 59.03565525000005,
                    "velocity": 0.5354330708661418,
                    "duration": 0.10178561250000229
                },
                {
                    "name": "C5",
                    "midi": 72,
                    "time": 59.03565525000005,
                    "velocity": 0.5984251968503937,
                    "duration": 0.10178561250000229
                },
                {
                    "name": "A4",
                    "midi": 69,
                    "time": 59.14279800000005,
                    "velocity": 0.5590551181102362,
                    "duration": 0.21428550000000257
                },
                {
                    "name": "C5",
                    "midi": 72,
                    "time": 59.14279800000005,
                    "velocity": 0.6220472440944882,
                    "duration": 0.21428550000000257
                },
                {
                    "name": "C5",
                    "midi": 72,
                    "time": 59.35708350000005,
                    "velocity": 0.6692913385826772,
                    "duration": 0.21428550000000257
                },
                {
                    "name": "E4",
                    "midi": 64,
                    "time": 59.571369000000054,
                    "velocity": 0.5354330708661418,
                    "duration": 0.32142824999999675
                },
                {
                    "name": "F4",
                    "midi": 65,
                    "time": 59.571369000000054,
                    "velocity": 0.5748031496062992,
                    "duration": 0.32142824999999675
                },
                {
                    "name": "C5",
                    "midi": 72,
                    "time": 59.571369000000054,
                    "velocity": 0.5748031496062992,
                    "duration": 0.32142824999999675
                },
                {
                    "name": "E5",
                    "midi": 76,
                    "time": 59.571369000000054,
                    "velocity": 0.6220472440944882,
                    "duration": 0.32142824999999675
                },
                {
                    "name": "B4",
                    "midi": 71,
                    "time": 59.89279725000005,
                    "velocity": 0.5354330708661418,
                    "duration": 0.10714275000000129
                },
                {
                    "name": "D5",
                    "midi": 74,
                    "time": 59.89279725000005,
                    "velocity": 0.5984251968503937,
                    "duration": 0.10714275000000129
                },
                {
                    "name": "A4",
                    "midi": 69,
                    "time": 59.99994000000005,
                    "velocity": 0.5196850393700787,
                    "duration": 0.8571419999999961
                },
                {
                    "name": "C5",
                    "midi": 72,
                    "time": 59.99994000000005,
                    "velocity": 0.5905511811023622,
                    "duration": 0.8571419999999961
                },
                {
                    "name": "D#4",
                    "midi": 63,
                    "time": 60.42851100000005,
                    "velocity": 0.5984251968503937,
                    "duration": 0.32142824999999675
                },
                {
                    "name": "E4",
                    "midi": 64,
                    "time": 60.74993925000005,
                    "velocity": 0.5196850393700787,
                    "duration": 0.10714275000000129
                },
                {
                    "name": "G#4",
                    "midi": 68,
                    "time": 60.85708200000005,
                    "velocity": 0.48031496062992124,
                    "duration": 0.21428550000000257
                },
                {
                    "name": "B4",
                    "midi": 71,
                    "time": 60.85708200000005,
                    "velocity": 0.5433070866141733,
                    "duration": 0.21428550000000257
                },
                {
                    "name": "D4",
                    "midi": 62,
                    "time": 61.28565300000005,
                    "velocity": 0.5590551181102362,
                    "duration": 0.42857099999999804
                },
                {
                    "name": "E4",
                    "midi": 64,
                    "time": 61.28565300000005,
                    "velocity": 0.6299212598425197,
                    "duration": 0.42857099999999804
                },
                {
                    "name": "C4",
                    "midi": 60,
                    "time": 61.71422400000005,
                    "velocity": 0.5590551181102362,
                    "duration": 0.6428565000000006
                },
                {
                    "name": "E4",
                    "midi": 64,
                    "time": 61.71422400000005,
                    "velocity": 0.5590551181102362,
                    "duration": 0.6428565000000006
                },
                {
                    "name": "A4",
                    "midi": 69,
                    "time": 61.71422400000005,
                    "velocity": 0.6220472440944882,
                    "duration": 0.6428565000000006
                },
                {
                    "name": "E4",
                    "midi": 64,
                    "time": 62.35708050000005,
                    "velocity": 0.5433070866141733,
                    "duration": 0.21428550000000257
                },
                {
                    "name": "B4",
                    "midi": 71,
                    "time": 62.35708050000005,
                    "velocity": 0.5984251968503937,
                    "duration": 0.21428550000000257
                },
                {
                    "name": "A4",
                    "midi": 69,
                    "time": 62.571366000000054,
                    "velocity": 0.5590551181102362,
                    "duration": 0.32142824999999675
                },
                {
                    "name": "C5",
                    "midi": 72,
                    "time": 62.571366000000054,
                    "velocity": 0.6220472440944882,
                    "duration": 0.32142824999999675
                },
                {
                    "name": "E4",
                    "midi": 64,
                    "time": 62.89279425000005,
                    "velocity": 0.5590551181102362,
                    "duration": 0.10714275000000129
                },
                {
                    "name": "B4",
                    "midi": 71,
                    "time": 62.89279425000005,
                    "velocity": 0.6220472440944882,
                    "duration": 0.10714275000000129
                },
                {
                    "name": "A4",
                    "midi": 69,
                    "time": 62.99993700000005,
                    "velocity": 0.5590551181102362,
                    "duration": 0.32142824999999675
                },
                {
                    "name": "C5",
                    "midi": 72,
                    "time": 62.99993700000005,
                    "velocity": 0.6220472440944882,
                    "duration": 0.32142824999999675
                },
                {
                    "name": "D5",
                    "midi": 74,
                    "time": 63.32136525000005,
                    "velocity": 0.6220472440944882,
                    "duration": 0.10714275000000129
                },
                {
                    "name": "B4",
                    "midi": 71,
                    "time": 63.32136525000005,
                    "velocity": 0.5590551181102362,
                    "duration": 0.10714275000000129
                },
                {
                    "name": "C5",
                    "midi": 72,
                    "time": 63.42850800000005,
                    "velocity": 0.5590551181102362,
                    "duration": 0.40714245000000204
                },
                {
                    "name": "E5",
                    "midi": 76,
                    "time": 63.42850800000005,
                    "velocity": 0.6299212598425197,
                    "duration": 0.40714245000000204
                },
                {
                    "name": "E5",
                    "midi": 76,
                    "time": 63.857079000000056,
                    "velocity": 0.5984251968503937,
                    "duration": 0.8571419999999961
                },
                {
                    "name": "G5",
                    "midi": 79,
                    "time": 63.857079000000056,
                    "velocity": 0.6771653543307087,
                    "duration": 0.8571419999999961
                },
                {
                    "name": "G5",
                    "midi": 79,
                    "time": 64.71422100000005,
                    "velocity": 0.6062992125984252,
                    "duration": 1.607141249999998
                },
                {
                    "name": "A#5",
                    "midi": 82,
                    "time": 64.71422100000005,
                    "velocity": 0.6929133858267716,
                    "duration": 1.607141249999998
                },
                {
                    "name": "A#4",
                    "midi": 70,
                    "time": 66.32136225000005,
                    "velocity": 0.5275590551181102,
                    "duration": 0.08035706249999919
                },
                {
                    "name": "G5",
                    "midi": 79,
                    "time": 66.32136225000005,
                    "velocity": 0.5275590551181102,
                    "duration": 0.08035706249999919
                },
                {
                    "name": "A#5",
                    "midi": 82,
                    "time": 66.32136225000005,
                    "velocity": 0.6220472440944882,
                    "duration": 0.08035706249999919
                },
                {
                    "name": "A4",
                    "midi": 69,
                    "time": 66.42850500000004,
                    "velocity": 0.5748031496062992,
                    "duration": 0.10714274999999418
                },
                {
                    "name": "F5",
                    "midi": 77,
                    "time": 66.42850500000004,
                    "velocity": 0.5748031496062992,
                    "duration": 0.10714274999999418
                },
                {
                    "name": "A5",
                    "midi": 81,
                    "time": 66.42850500000004,
                    "velocity": 0.6377952755905512,
                    "duration": 0.08035706249999919
                },
                {
                    "name": "G4",
                    "midi": 67,
                    "time": 66.74993325000004,
                    "velocity": 0.5354330708661418,
                    "duration": 0.08035706249999919
                },
                {
                    "name": "E5",
                    "midi": 76,
                    "time": 66.74993325000004,
                    "velocity": 0.5354330708661418,
                    "duration": 0.08035706249999919
                },
                {
                    "name": "G5",
                    "midi": 79,
                    "time": 66.74993325000004,
                    "velocity": 0.5984251968503937,
                    "duration": 0.08035706249999919
                },
                {
                    "name": "F4",
                    "midi": 65,
                    "time": 66.85707600000003,
                    "velocity": 0.5905511811023622,
                    "duration": 1.178570250000007
                },
                {
                    "name": "D5",
                    "midi": 74,
                    "time": 66.85707600000003,
                    "velocity": 0.5905511811023622,
                    "duration": 1.178570250000007
                },
                {
                    "name": "F5",
                    "midi": 77,
                    "time": 66.85707600000003,
                    "velocity": 0.6614173228346457,
                    "duration": 1.178570250000007
                },
                {
                    "name": "F4",
                    "midi": 65,
                    "time": 68.03564625000004,
                    "velocity": 0.5275590551181102,
                    "duration": 0.08035706249999919
                },
                {
                    "name": "D5",
                    "midi": 74,
                    "time": 68.03564625000004,
                    "velocity": 0.5275590551181102,
                    "duration": 0.08035706249999919
                },
                {
                    "name": "F5",
                    "midi": 77,
                    "time": 68.03564625000004,
                    "velocity": 0.6220472440944882,
                    "duration": 0.08035706249999919
                },
                {
                    "name": "E4",
                    "midi": 64,
                    "time": 68.14278900000004,
                    "velocity": 0.5748031496062992,
                    "duration": 0.10714274999999418
                },
                {
                    "name": "C5",
                    "midi": 72,
                    "time": 68.14278900000004,
                    "velocity": 0.5748031496062992,
                    "duration": 0.10714274999999418
                },
                {
                    "name": "E5",
                    "midi": 76,
                    "time": 68.14278900000004,
                    "velocity": 0.6377952755905512,
                    "duration": 0.10714274999999418
                },
                {
                    "name": "D4",
                    "midi": 62,
                    "time": 68.46421725000003,
                    "velocity": 0.5354330708661418,
                    "duration": 0.08035706249999919
                },
                {
                    "name": "B4",
                    "midi": 71,
                    "time": 68.46421725000003,
                    "velocity": 0.5354330708661418,
                    "duration": 0.08035706249999919
                },
                {
                    "name": "D5",
                    "midi": 74,
                    "time": 68.46421725000003,
                    "velocity": 0.5984251968503937,
                    "duration": 0.08035706249999919
                },
                {
                    "name": "C4",
                    "midi": 60,
                    "time": 68.57136000000003,
                    "velocity": 0.5905511811023622,
                    "duration": 1.0714274999999986
                },
                {
                    "name": "A4",
                    "midi": 69,
                    "time": 68.57136000000003,
                    "velocity": 0.5905511811023622,
                    "duration": 1.0714274999999986
                },
                {
                    "name": "C5",
                    "midi": 72,
                    "time": 68.57136000000003,
                    "velocity": 0.6614173228346457,
                    "duration": 1.0714274999999986
                },
                {
                    "name": "B3",
                    "midi": 59,
                    "time": 69.64278750000003,
                    "velocity": 0.5275590551181102,
                    "duration": 0.08035706249999919
                },
                {
                    "name": "G#4",
                    "midi": 68,
                    "time": 69.64278750000003,
                    "velocity": 0.5275590551181102,
                    "duration": 0.08035706249999919
                },
                {
                    "name": "B4",
                    "midi": 71,
                    "time": 69.64278750000003,
                    "velocity": 0.6220472440944882,
                    "duration": 0.08035706249999919
                },
                {
                    "name": "A3",
                    "midi": 57,
                    "time": 69.85707300000003,
                    "velocity": 0.5748031496062992,
                    "duration": 0.10714274999999418
                },
                {
                    "name": "F#4",
                    "midi": 66,
                    "time": 69.85707300000003,
                    "velocity": 0.5748031496062992,
                    "duration": 0.10714274999999418
                },
                {
                    "name": "A4",
                    "midi": 69,
                    "time": 69.85707300000003,
                    "velocity": 0.6377952755905512,
                    "duration": 0.10714274999999418
                },
                {
                    "name": "B3",
                    "midi": 59,
                    "time": 70.07135850000002,
                    "velocity": 0.5354330708661418,
                    "duration": 0.08035706249999919
                },
                {
                    "name": "G#4",
                    "midi": 68,
                    "time": 70.07135850000002,
                    "velocity": 0.5354330708661418,
                    "duration": 0.08035706249999919
                },
                {
                    "name": "B4",
                    "midi": 71,
                    "time": 70.07135850000002,
                    "velocity": 0.5984251968503937,
                    "duration": 0.08035706249999919
                },
                {
                    "name": "C4",
                    "midi": 60,
                    "time": 70.28564400000002,
                    "velocity": 0.5039370078740157,
                    "duration": 0.10714274999999418
                },
                {
                    "name": "A4",
                    "midi": 69,
                    "time": 70.28564400000002,
                    "velocity": 0.5039370078740157,
                    "duration": 0.10714274999999418
                },
                {
                    "name": "C5",
                    "midi": 72,
                    "time": 70.28564400000002,
                    "velocity": 0.5984251968503937,
                    "duration": 0.10714274999999418
                },
                {
                    "name": "D4",
                    "midi": 62,
                    "time": 70.49992950000001,
                    "velocity": 0.5118110236220472,
                    "duration": 0.10714274999999418
                },
                {
                    "name": "B4",
                    "midi": 71,
                    "time": 70.49992950000001,
                    "velocity": 0.5118110236220472,
                    "duration": 0.10714274999999418
                },
                {
                    "name": "D5",
                    "midi": 74,
                    "time": 70.49992950000001,
                    "velocity": 0.6062992125984252,
                    "duration": 0.10714274999999418
                },
                {
                    "name": "E4",
                    "midi": 64,
                    "time": 70.714215,
                    "velocity": 0.5275590551181102,
                    "duration": 0.10714274999999418
                },
                {
                    "name": "C5",
                    "midi": 72,
                    "time": 70.714215,
                    "velocity": 0.5275590551181102,
                    "duration": 0.10714274999999418
                },
                {
                    "name": "E5",
                    "midi": 76,
                    "time": 70.714215,
                    "velocity": 0.6220472440944882,
                    "duration": 0.10714274999999418
                },
                {
                    "name": "F4",
                    "midi": 65,
                    "time": 70.92850049999998,
                    "velocity": 0.5433070866141733,
                    "duration": 0.10714274999999418
                },
                {
                    "name": "D5",
                    "midi": 74,
                    "time": 70.92850049999998,
                    "velocity": 0.5433070866141733,
                    "duration": 0.10714274999999418
                },
                {
                    "name": "F5",
                    "midi": 77,
                    "time": 70.92850049999998,
                    "velocity": 0.6377952755905512,
                    "duration": 0.10714274999999418
                },
                {
                    "name": "E4",
                    "midi": 64,
                    "time": 71.14278599999997,
                    "velocity": 0.5196850393700787,
                    "duration": 0.10714274999999418
                },
                {
                    "name": "C5",
                    "midi": 72,
                    "time": 71.14278599999997,
                    "velocity": 0.5196850393700787,
                    "duration": 0.10714274999999418
                },
                {
                    "name": "E5",
                    "midi": 76,
                    "time": 71.14278599999997,
                    "velocity": 0.6141732283464567,
                    "duration": 0.10714274999999418
                },
                {
                    "name": "D4",
                    "midi": 62,
                    "time": 71.35707149999996,
                    "velocity": 0.5118110236220472,
                    "duration": 0.10714274999999418
                },
                {
                    "name": "B4",
                    "midi": 71,
                    "time": 71.35707149999996,
                    "velocity": 0.5118110236220472,
                    "duration": 0.10714274999999418
                },
                {
                    "name": "D5",
                    "midi": 74,
                    "time": 71.35707149999996,
                    "velocity": 0.6062992125984252,
                    "duration": 0.10714274999999418
                },
                {
                    "name": "C4",
                    "midi": 60,
                    "time": 71.57135699999995,
                    "velocity": 0.5039370078740157,
                    "duration": 0.10714274999999418
                },
                {
                    "name": "A4",
                    "midi": 69,
                    "time": 71.57135699999995,
                    "velocity": 0.5039370078740157,
                    "duration": 0.10714274999999418
                },
                {
                    "name": "C5",
                    "midi": 72,
                    "time": 71.57135699999995,
                    "velocity": 0.5984251968503937,
                    "duration": 0.10714274999999418
                },
                {
                    "name": "E4",
                    "midi": 64,
                    "time": 71.89278524999995,
                    "velocity": 0.5039370078740157,
                    "duration": 0.08035706249999919
                },
                {
                    "name": "B4",
                    "midi": 71,
                    "time": 71.89278524999995,
                    "velocity": 0.5984251968503937,
                    "duration": 0.08035706249999919
                },
                {
                    "name": "E4",
                    "midi": 64,
                    "time": 71.99992799999994,
                    "velocity": 0.5039370078740157,
                    "duration": 0.8571419999999961
                },
                {
                    "name": "B4",
                    "midi": 71,
                    "time": 71.99992799999994,
                    "velocity": 0.5984251968503937,
                    "duration": 0.8571419999999961
                },
                {
                    "name": "C4",
                    "midi": 60,
                    "time": 72.85706999999994,
                    "velocity": 0.5039370078740157,
                    "duration": 0.42857100000000514
                },
                {
                    "name": "A4",
                    "midi": 69,
                    "time": 72.85706999999994,
                    "velocity": 0.5984251968503937,
                    "duration": 0.42857100000000514
                },
                {
                    "name": "A4",
                    "midi": 69,
                    "time": 73.39278374999994,
                    "velocity": 0.2677165354330709,
                    "duration": 0.10714274999999418
                },
                {
                    "name": "G#4",
                    "midi": 68,
                    "time": 73.49992649999993,
                    "velocity": 0.2677165354330709,
                    "duration": 0.10714274999999418
                },
                {
                    "name": "A4",
                    "midi": 69,
                    "time": 73.60706924999992,
                    "velocity": 0.2677165354330709,
                    "duration": 0.10714274999999418
                },
                {
                    "name": "B4",
                    "midi": 71,
                    "time": 73.71421199999992,
                    "velocity": 0.3228346456692913,
                    "duration": 0.10714274999999418
                },
                {
                    "name": "G#4",
                    "midi": 68,
                    "time": 73.82135474999991,
                    "velocity": 0.2755905511811024,
                    "duration": 0.10714274999999418
                },
                {
                    "name": "E4",
                    "midi": 64,
                    "time": 73.9284974999999,
                    "velocity": 0.2755905511811024,
                    "duration": 0.16071412499999838
                },
                {
                    "name": "B4",
                    "midi": 71,
                    "time": 74.2499257499999,
                    "velocity": 0.2677165354330709,
                    "duration": 0.10714274999999418
                },
                {
                    "name": "G#4",
                    "midi": 68,
                    "time": 74.3570684999999,
                    "velocity": 0.2677165354330709,
                    "duration": 0.10714274999999418
                },
                {
                    "name": "E4",
                    "midi": 64,
                    "time": 74.46421124999989,
                    "velocity": 0.2677165354330709,
                    "duration": 0.10714274999999418
                },
                {
                    "name": "C5",
                    "midi": 72,
                    "time": 74.57135399999989,
                    "velocity": 0.3228346456692913,
                    "duration": 0.10714274999999418
                },
                {
                    "name": "A4",
                    "midi": 69,
                    "time": 74.67849674999988,
                    "velocity": 0.2677165354330709,
                    "duration": 0.10714274999999418
                },
                {
                    "name": "E4",
                    "midi": 64,
                    "time": 74.78563949999987,
                    "velocity": 0.2677165354330709,
                    "duration": 0.16071412499999838
                },
                {
                    "name": "C5",
                    "midi": 72,
                    "time": 75.10706774999987,
                    "velocity": 0.28346456692913385,
                    "duration": 0.10714274999999418
                },
                {
                    "name": "A4",
                    "midi": 69,
                    "time": 75.21421049999987,
                    "velocity": 0.28346456692913385,
                    "duration": 0.10714274999999418
                },
                {
                    "name": "E4",
                    "midi": 64,
                    "time": 75.32135324999986,
                    "velocity": 0.28346456692913385,
                    "duration": 0.10714274999999418
                },
                {
                    "name": "A4",
                    "midi": 69,
                    "time": 75.42849599999985,
                    "velocity": 0.3228346456692913,
                    "duration": 0.10714274999999418
                },
                {
                    "name": "F#4",
                    "midi": 66,
                    "time": 75.53563874999985,
                    "velocity": 0.28346456692913385,
                    "duration": 0.10714274999999418
                },
                {
                    "name": "D#4",
                    "midi": 63,
                    "time": 75.64278149999984,
                    "velocity": 0.28346456692913385,
                    "duration": 0.16071412499999838
                },
                {
                    "name": "A4",
                    "midi": 69,
                    "time": 75.96420974999984,
                    "velocity": 0.28346456692913385,
                    "duration": 0.10714274999999418
                },
                {
                    "name": "F#4",
                    "midi": 66,
                    "time": 76.07135249999983,
                    "velocity": 0.28346456692913385,
                    "duration": 0.10714274999999418
                },
                {
                    "name": "D#4",
                    "midi": 63,
                    "time": 76.17849524999983,
                    "velocity": 0.28346456692913385,
                    "duration": 0.10714274999999418
                },
                {
                    "name": "B4",
                    "midi": 71,
                    "time": 76.28563799999982,
                    "velocity": 0.3228346456692913,
                    "duration": 0.10714274999999418
                },
                {
                    "name": "G#4",
                    "midi": 68,
                    "time": 76.39278074999982,
                    "velocity": 0.2755905511811024,
                    "duration": 0.10714274999999418
                },
                {
                    "name": "E4",
                    "midi": 64,
                    "time": 76.49992349999981,
                    "velocity": 0.2755905511811024,
                    "duration": 0.16071412499999838
                },
                {
                    "name": "F#4",
                    "midi": 66,
                    "time": 76.8213517499998,
                    "velocity": 0.30708661417322836,
                    "duration": 0.10714274999999418
                },
                {
                    "name": "G#4",
                    "midi": 68,
                    "time": 76.9284944999998,
                    "velocity": 0.30708661417322836,
                    "duration": 0.10714274999999418
                },
                {
                    "name": "A4",
                    "midi": 69,
                    "time": 77.0356372499998,
                    "velocity": 0.30708661417322836,
                    "duration": 0.10714274999999418
                },
                {
                    "name": "B4",
                    "midi": 71,
                    "time": 77.14277999999979,
                    "velocity": 0.33070866141732286,
                    "duration": 0.10714274999999418
                },
                {
                    "name": "G#4",
                    "midi": 68,
                    "time": 77.24992274999978,
                    "velocity": 0.2992125984251969,
                    "duration": 0.10714274999999418
                },
                {
                    "name": "E4",
                    "midi": 64,
                    "time": 77.35706549999978,
                    "velocity": 0.2992125984251969,
                    "duration": 0.16071412499999838
                },
                {
                    "name": "B4",
                    "midi": 71,
                    "time": 77.67849374999977,
                    "velocity": 0.36220472440944884,
                    "duration": 0.10714274999999418
                },
                {
                    "name": "G#4",
                    "midi": 68,
                    "time": 77.78563649999977,
                    "velocity": 0.3700787401574803,
                    "duration": 0.10714274999999418
                },
                {
                    "name": "E4",
                    "midi": 64,
                    "time": 77.89277924999976,
                    "velocity": 0.3700787401574803,
                    "duration": 0.10714274999999418
                },
                {
                    "name": "C5",
                    "midi": 72,
                    "time": 77.99992199999976,
                    "velocity": 0.41732283464566927,
                    "duration": 0.10714274999999418
                },
                {
                    "name": "A4",
                    "midi": 69,
                    "time": 78.10706474999975,
                    "velocity": 0.3779527559055118,
                    "duration": 0.10714274999999418
                },
                {
                    "name": "E4",
                    "midi": 64,
                    "time": 78.21420749999974,
                    "velocity": 0.3779527559055118,
                    "duration": 0.16071412499999838
                },
                {
                    "name": "C5",
                    "midi": 72,
                    "time": 78.53563574999974,
                    "velocity": 0.41732283464566927,
                    "duration": 0.10714274999999418
                },
                {
                    "name": "A4",
                    "midi": 69,
                    "time": 78.64277849999974,
                    "velocity": 0.4251968503937008,
                    "duration": 0.10714274999999418
                },
                {
                    "name": "E4",
                    "midi": 64,
                    "time": 78.74992124999973,
                    "velocity": 0.4251968503937008,
                    "duration": 0.10714274999999418
                },
                {
                    "name": "A4",
                    "midi": 69,
                    "time": 78.85706399999972,
                    "velocity": 0.47244094488188976,
                    "duration": 0.10714274999999418
                },
                {
                    "name": "F#4",
                    "midi": 66,
                    "time": 78.96420674999972,
                    "velocity": 0.4409448818897638,
                    "duration": 0.10714274999999418
                },
                {
                    "name": "D#4",
                    "midi": 63,
                    "time": 79.07134949999971,
                    "velocity": 0.4409448818897638,
                    "duration": 0.16071412499999838
                },
                {
                    "name": "A4",
                    "midi": 69,
                    "time": 79.39277774999971,
                    "velocity": 0.4566929133858268,
                    "duration": 0.10714274999999418
                },
                {
                    "name": "F#4",
                    "midi": 66,
                    "time": 79.4999204999997,
                    "velocity": 0.4566929133858268,
                    "duration": 0.10714274999999418
                },
                {
                    "name": "D#4",
                    "midi": 63,
                    "time": 79.6070632499997,
                    "velocity": 0.4566929133858268,
                    "duration": 0.10714274999999418
                },
                {
                    "name": "B4",
                    "midi": 71,
                    "time": 79.71420599999969,
                    "velocity": 0.5590551181102362,
                    "duration": 0.10714274999999418
                },
                {
                    "name": "G#4",
                    "midi": 68,
                    "time": 79.82134874999969,
                    "velocity": 0.4645669291338583,
                    "duration": 0.10714274999999418
                },
                {
                    "name": "E4",
                    "midi": 64,
                    "time": 79.92849149999968,
                    "velocity": 0.47244094488188976,
                    "duration": 0.16071412499999838
                },
                {
                    "name": "E4",
                    "midi": 64,
                    "time": 80.35706249999969,
                    "velocity": 0.6220472440944882,
                    "duration": 0.21428550000000257
                },
                {
                    "name": "B3",
                    "midi": 59,
                    "time": 80.57134799999969,
                    "velocity": 0.5590551181102362,
                    "duration": 0.6428564999999935
                },
                {
                    "name": "E4",
                    "midi": 64,
                    "time": 80.57134799999969,
                    "velocity": 0.5590551181102362,
                    "duration": 0.6428564999999935
                },
                {
                    "name": "B4",
                    "midi": 71,
                    "time": 80.57134799999969,
                    "velocity": 0.6220472440944882,
                    "duration": 0.6428564999999935
                },
                {
                    "name": "C4",
                    "midi": 60,
                    "time": 81.21420449999968,
                    "velocity": 0.5433070866141733,
                    "duration": 0.21428550000000257
                },
                {
                    "name": "E4",
                    "midi": 64,
                    "time": 81.21420449999968,
                    "velocity": 0.5433070866141733,
                    "duration": 0.21428550000000257
                },
                {
                    "name": "C5",
                    "midi": 72,
                    "time": 81.21420449999968,
                    "velocity": 0.5984251968503937,
                    "duration": 0.21428550000000257
                },
                {
                    "name": "D4",
                    "midi": 62,
                    "time": 81.42848999999968,
                    "velocity": 0.5590551181102362,
                    "duration": 0.42857100000000514
                },
                {
                    "name": "E4",
                    "midi": 64,
                    "time": 81.42848999999968,
                    "velocity": 0.5590551181102362,
                    "duration": 0.42857100000000514
                },
                {
                    "name": "D5",
                    "midi": 74,
                    "time": 81.42848999999968,
                    "velocity": 0.6220472440944882,
                    "duration": 0.42857100000000514
                },
                {
                    "name": "C4",
                    "midi": 60,
                    "time": 81.85706099999969,
                    "velocity": 0.5590551181102362,
                    "duration": 0.42857100000000514
                },
                {
                    "name": "E4",
                    "midi": 64,
                    "time": 81.85706099999969,
                    "velocity": 0.5590551181102362,
                    "duration": 0.42857100000000514
                },
                {
                    "name": "C5",
                    "midi": 72,
                    "time": 81.85706099999969,
                    "velocity": 0.6220472440944882,
                    "duration": 0.42857100000000514
                },
                {
                    "name": "F4",
                    "midi": 65,
                    "time": 82.2856319999997,
                    "velocity": 0.5590551181102362,
                    "duration": 0.10714274999999418
                },
                {
                    "name": "G#4",
                    "midi": 68,
                    "time": 82.2856319999997,
                    "velocity": 0.5590551181102362,
                    "duration": 0.10714274999999418
                },
                {
                    "name": "F5",
                    "midi": 77,
                    "time": 82.2856319999997,
                    "velocity": 0.6299212598425197,
                    "duration": 0.10714274999999418
                },
                {
                    "name": "E4",
                    "midi": 64,
                    "time": 82.60706024999969,
                    "velocity": 0.5590551181102362,
                    "duration": 0.08035706249999919
                },
                {
                    "name": "G#4",
                    "midi": 68,
                    "time": 82.60706024999969,
                    "velocity": 0.5590551181102362,
                    "duration": 0.08035706249999919
                },
                {
                    "name": "E5",
                    "midi": 76,
                    "time": 82.60706024999969,
                    "velocity": 0.6299212598425197,
                    "duration": 0.08035706249999919
                },
                {
                    "name": "D4",
                    "midi": 62,
                    "time": 82.71420299999969,
                    "velocity": 0.5984251968503937,
                    "duration": 0.8571419999999961
                },
                {
                    "name": "G#4",
                    "midi": 68,
                    "time": 82.71420299999969,
                    "velocity": 0.5984251968503937,
                    "duration": 0.8571419999999961
                },
                {
                    "name": "D5",
                    "midi": 74,
                    "time": 82.71420299999969,
                    "velocity": 0.6771653543307087,
                    "duration": 0.8571419999999961
                },
                {
                    "name": "F4",
                    "midi": 65,
                    "time": 83.57134499999968,
                    "velocity": 0.5590551181102362,
                    "duration": 0.42857100000000514
                },
                {
                    "name": "G#4",
                    "midi": 68,
                    "time": 83.57134499999968,
                    "velocity": 0.5590551181102362,
                    "duration": 0.42857100000000514
                },
                {
                    "name": "F5",
                    "midi": 77,
                    "time": 83.57134499999968,
                    "velocity": 0.6299212598425197,
                    "duration": 0.42857100000000514
                },
                {
                    "name": "E4",
                    "midi": 64,
                    "time": 83.99991599999969,
                    "velocity": 0.5590551181102362,
                    "duration": 0.42857100000000514
                },
                {
                    "name": "A4",
                    "midi": 69,
                    "time": 83.99991599999969,
                    "velocity": 0.5590551181102362,
                    "duration": 0.42857100000000514
                },
                {
                    "name": "E5",
                    "midi": 76,
                    "time": 83.99991599999969,
                    "velocity": 0.6220472440944882,
                    "duration": 0.42857100000000514
                },
                {
                    "name": "C4",
                    "midi": 60,
                    "time": 84.42848699999969,
                    "velocity": 0.5590551181102362,
                    "duration": 0.42857100000000514
                },
                {
                    "name": "E4",
                    "midi": 64,
                    "time": 84.42848699999969,
                    "velocity": 0.5590551181102362,
                    "duration": 0.42857100000000514
                },
                {
                    "name": "C5",
                    "midi": 72,
                    "time": 84.42848699999969,
                    "velocity": 0.6220472440944882,
                    "duration": 0.42857100000000514
                },
                {
                    "name": "B3",
                    "midi": 59,
                    "time": 84.8570579999997,
                    "velocity": 0.5905511811023622,
                    "duration": 0.42857100000000514
                },
                {
                    "name": "E4",
                    "midi": 64,
                    "time": 84.8570579999997,
                    "velocity": 0.5590551181102362,
                    "duration": 0.42857100000000514
                },
                {
                    "name": "B4",
                    "midi": 71,
                    "time": 84.8570579999997,
                    "velocity": 0.5905511811023622,
                    "duration": 0.42857100000000514
                },
                {
                    "name": "C4",
                    "midi": 60,
                    "time": 85.2856289999997,
                    "velocity": 0.5196850393700787,
                    "duration": 0.42857099999999093
                },
                {
                    "name": "D#4",
                    "midi": 63,
                    "time": 85.2856289999997,
                    "velocity": 0.5748031496062992,
                    "duration": 0.42857099999999093
                },
                {
                    "name": "A4",
                    "midi": 69,
                    "time": 85.2856289999997,
                    "velocity": 0.5984251968503937,
                    "duration": 0.32142824999999675
                },
                {
                    "name": "B4",
                    "midi": 71,
                    "time": 85.6070572499997,
                    "velocity": 0.5984251968503937,
                    "duration": 0.10714274999999418
                },
                {
                    "name": "C4",
                    "midi": 60,
                    "time": 85.71419999999969,
                    "velocity": 0.5196850393700787,
                    "duration": 0.8571419999999961
                },
                {
                    "name": "D#4",
                    "midi": 63,
                    "time": 85.71419999999969,
                    "velocity": 0.5196850393700787,
                    "duration": 0.8571419999999961
                },
                {
                    "name": "A4",
                    "midi": 69,
                    "time": 85.71419999999969,
                    "velocity": 0.5905511811023622,
                    "duration": 0.8571419999999961
                },
                {
                    "name": "B3",
                    "midi": 59,
                    "time": 86.57134199999969,
                    "velocity": 0.5118110236220472,
                    "duration": 0.40714244999999494
                },
                {
                    "name": "E4",
                    "midi": 64,
                    "time": 86.57134199999969,
                    "velocity": 0.5118110236220472,
                    "duration": 0.40714244999999494
                },
                {
                    "name": "G#4",
                    "midi": 68,
                    "time": 86.57134199999969,
                    "velocity": 0.5748031496062992,
                    "duration": 0.40714244999999494
                },
                {
                    "name": "E4",
                    "midi": 64,
                    "time": 86.99991299999968,
                    "velocity": 0.6220472440944882,
                    "duration": 0.42857100000000514
                },
                {
                    "name": "B3",
                    "midi": 59,
                    "time": 87.42848399999968,
                    "velocity": 0.5590551181102362,
                    "duration": 0.6428564999999935
                },
                {
                    "name": "E4",
                    "midi": 64,
                    "time": 87.42848399999968,
                    "velocity": 0.5590551181102362,
                    "duration": 0.6428564999999935
                },
                {
                    "name": "B4",
                    "midi": 71,
                    "time": 87.42848399999968,
                    "velocity": 0.6220472440944882,
                    "duration": 0.6428564999999935
                },
                {
                    "name": "C4",
                    "midi": 60,
                    "time": 88.07134049999968,
                    "velocity": 0.5433070866141733,
                    "duration": 0.21428550000000257
                },
                {
                    "name": "A4",
                    "midi": 69,
                    "time": 88.07134049999968,
                    "velocity": 0.5433070866141733,
                    "duration": 0.21428550000000257
                },
                {
                    "name": "C5",
                    "midi": 72,
                    "time": 88.07134049999968,
                    "velocity": 0.5984251968503937,
                    "duration": 0.21428550000000257
                },
                {
                    "name": "D4",
                    "midi": 62,
                    "time": 88.28562599999968,
                    "velocity": 0.5590551181102362,
                    "duration": 0.426785287499996
                },
                {
                    "name": "G#4",
                    "midi": 68,
                    "time": 88.28562599999968,
                    "velocity": 0.5590551181102362,
                    "duration": 0.42857099999999093
                },
                {
                    "name": "D5",
                    "midi": 74,
                    "time": 88.28562599999968,
                    "velocity": 0.6220472440944882,
                    "duration": 0.42857099999999093
                },
                {
                    "name": "F4",
                    "midi": 65,
                    "time": 88.71419699999967,
                    "velocity": 0.5590551181102362,
                    "duration": 0.42857100000000514
                },
                {
                    "name": "G#4",
                    "midi": 68,
                    "time": 88.71419699999967,
                    "velocity": 0.5590551181102362,
                    "duration": 0.42857100000000514
                },
                {
                    "name": "F5",
                    "midi": 77,
                    "time": 88.71419699999967,
                    "velocity": 0.6220472440944882,
                    "duration": 0.42857100000000514
                },
                {
                    "name": "A4",
                    "midi": 69,
                    "time": 89.14276799999968,
                    "velocity": 0.5590551181102362,
                    "duration": 0.10714274999999418
                },
                {
                    "name": "E4",
                    "midi": 64,
                    "time": 89.14276799999968,
                    "velocity": 0.5590551181102362,
                    "duration": 0.10714274999999418
                },
                {
                    "name": "E5",
                    "midi": 76,
                    "time": 89.14276799999968,
                    "velocity": 0.6299212598425197,
                    "duration": 0.10714274999999418
                },
                {
                    "name": "A4",
                    "midi": 69,
                    "time": 89.46419624999967,
                    "velocity": 0.5590551181102362,
                    "duration": 0.08035706249999919
                },
                {
                    "name": "D4",
                    "midi": 62,
                    "time": 89.46419624999967,
                    "velocity": 0.5590551181102362,
                    "duration": 0.08035706249999919
                },
                {
                    "name": "D5",
                    "midi": 74,
                    "time": 89.46419624999967,
                    "velocity": 0.6299212598425197,
                    "duration": 0.08035706249999919
                },
                {
                    "name": "C4",
                    "midi": 60,
                    "time": 89.57133899999967,
                    "velocity": 0.5590551181102362,
                    "duration": 0.8571419999999961
                },
                {
                    "name": "A4",
                    "midi": 69,
                    "time": 89.57133899999967,
                    "velocity": 0.5984251968503937,
                    "duration": 0.8571419999999961
                },
                {
                    "name": "C5",
                    "midi": 72,
                    "time": 89.57133899999967,
                    "velocity": 0.6614173228346457,
                    "duration": 0.8571419999999961
                },
                {
                    "name": "F#4",
                    "midi": 66,
                    "time": 90.42848099999966,
                    "velocity": 0.5905511811023622,
                    "duration": 0.42857100000000514
                },
                {
                    "name": "C5",
                    "midi": 72,
                    "time": 90.42848099999966,
                    "velocity": 0.5905511811023622,
                    "duration": 0.42857100000000514
                },
                {
                    "name": "E4",
                    "midi": 64,
                    "time": 90.42848099999966,
                    "velocity": 0.5905511811023622,
                    "duration": 0.42857100000000514
                },
                {
                    "name": "E5",
                    "midi": 76,
                    "time": 90.42848099999966,
                    "velocity": 0.6614173228346457,
                    "duration": 0.42857100000000514
                },
                {
                    "name": "G4",
                    "midi": 67,
                    "time": 90.85705199999967,
                    "velocity": 0.5905511811023622,
                    "duration": 0.42857100000000514
                },
                {
                    "name": "B4",
                    "midi": 71,
                    "time": 90.85705199999967,
                    "velocity": 0.5905511811023622,
                    "duration": 0.42857100000000514
                },
                {
                    "name": "D4",
                    "midi": 62,
                    "time": 90.85705199999967,
                    "velocity": 0.5905511811023622,
                    "duration": 0.42857100000000514
                },
                {
                    "name": "D5",
                    "midi": 74,
                    "time": 90.85705199999967,
                    "velocity": 0.6535433070866141,
                    "duration": 0.42857100000000514
                },
                {
                    "name": "C4",
                    "midi": 60,
                    "time": 91.28562299999967,
                    "velocity": 0.5905511811023622,
                    "duration": 0.42857100000000514
                },
                {
                    "name": "A4",
                    "midi": 69,
                    "time": 91.28562299999967,
                    "velocity": 0.5905511811023622,
                    "duration": 0.42857100000000514
                },
                {
                    "name": "E4",
                    "midi": 64,
                    "time": 91.28562299999967,
                    "velocity": 0.5905511811023622,
                    "duration": 0.42857100000000514
                },
                {
                    "name": "C5",
                    "midi": 72,
                    "time": 91.28562299999967,
                    "velocity": 0.6535433070866141,
                    "duration": 0.42857100000000514
                },
                {
                    "name": "B3",
                    "midi": 59,
                    "time": 91.71419399999968,
                    "velocity": 0.5826771653543307,
                    "duration": 0.42857100000000514
                },
                {
                    "name": "G4",
                    "midi": 67,
                    "time": 91.71419399999968,
                    "velocity": 0.5984251968503937,
                    "duration": 0.42857100000000514
                },
                {
                    "name": "D4",
                    "midi": 62,
                    "time": 91.71419399999968,
                    "velocity": 0.5826771653543307,
                    "duration": 0.42857100000000514
                },
                {
                    "name": "B4",
                    "midi": 71,
                    "time": 91.71419399999968,
                    "velocity": 0.6299212598425197,
                    "duration": 0.42857100000000514
                },
                {
                    "name": "F#4",
                    "midi": 66,
                    "time": 92.14276499999968,
                    "velocity": 0.5984251968503937,
                    "duration": 0.42857099999999093
                },
                {
                    "name": "A3",
                    "midi": 57,
                    "time": 92.14276499999968,
                    "velocity": 0.5984251968503937,
                    "duration": 0.42857099999999093
                },
                {
                    "name": "C4",
                    "midi": 60,
                    "time": 92.14276499999968,
                    "velocity": 0.5984251968503937,
                    "duration": 0.42857099999999093
                },
                {
                    "name": "A4",
                    "midi": 69,
                    "time": 92.14276499999968,
                    "velocity": 0.6692913385826772,
                    "duration": 0.32142824999999675
                },
                {
                    "name": "B3",
                    "midi": 59,
                    "time": 92.46419324999968,
                    "velocity": 0.6141732283464567,
                    "duration": 0.10714274999999418
                },
                {
                    "name": "B4",
                    "midi": 71,
                    "time": 92.46419324999968,
                    "velocity": 0.6141732283464567,
                    "duration": 0.10714274999999418
                },
                {
                    "name": "F#4",
                    "midi": 66,
                    "time": 92.57133599999968,
                    "velocity": 0.5433070866141733,
                    "duration": 0.8571419999999961
                },
                {
                    "name": "A3",
                    "midi": 57,
                    "time": 92.57133599999968,
                    "velocity": 0.5433070866141733,
                    "duration": 0.8571419999999961
                },
                {
                    "name": "C4",
                    "midi": 60,
                    "time": 92.57133599999968,
                    "velocity": 0.5433070866141733,
                    "duration": 0.8571419999999961
                },
                {
                    "name": "A4",
                    "midi": 69,
                    "time": 92.57133599999968,
                    "velocity": 0.6062992125984252,
                    "duration": 0.8571419999999961
                },
                {
                    "name": "B3",
                    "midi": 59,
                    "time": 93.42847799999967,
                    "velocity": 0.5354330708661418,
                    "duration": 0.40714244999999494
                },
                {
                    "name": "D4",
                    "midi": 62,
                    "time": 93.42847799999967,
                    "velocity": 0.5354330708661418,
                    "duration": 0.40714244999999494
                },
                {
                    "name": "G4",
                    "midi": 67,
                    "time": 93.42847799999967,
                    "velocity": 0.5984251968503937,
                    "duration": 0.40714244999999494
                },
                {
                    "name": "G4",
                    "midi": 67,
                    "time": 93.85704899999966,
                    "velocity": 0.6929133858267716,
                    "duration": 0.42857100000000514
                },
                {
                    "name": "G4",
                    "midi": 67,
                    "time": 94.28561999999967,
                    "velocity": 0.5905511811023622,
                    "duration": 0.6428564999999935
                },
                {
                    "name": "E5",
                    "midi": 76,
                    "time": 94.28561999999967,
                    "velocity": 0.5984251968503937,
                    "duration": 0.6428564999999935
                },
                {
                    "name": "G5",
                    "midi": 79,
                    "time": 94.28561999999967,
                    "velocity": 0.6929133858267716,
                    "duration": 0.6428564999999935
                },
                {
                    "name": "F4",
                    "midi": 65,
                    "time": 94.92847649999966,
                    "velocity": 0.5748031496062992,
                    "duration": 0.21428550000000257
                },
                {
                    "name": "D5",
                    "midi": 74,
                    "time": 94.92847649999966,
                    "velocity": 0.5748031496062992,
                    "duration": 0.21428550000000257
                },
                {
                    "name": "F5",
                    "midi": 77,
                    "time": 94.92847649999966,
                    "velocity": 0.6220472440944882,
                    "duration": 0.21428550000000257
                },
                {
                    "name": "E4",
                    "midi": 64,
                    "time": 95.14276199999966,
                    "velocity": 0.5905511811023622,
                    "duration": 0.42857100000000514
                },
                {
                    "name": "C5",
                    "midi": 72,
                    "time": 95.14276199999966,
                    "velocity": 0.5905511811023622,
                    "duration": 0.42857100000000514
                },
                {
                    "name": "E5",
                    "midi": 76,
                    "time": 95.14276199999966,
                    "velocity": 0.6535433070866141,
                    "duration": 0.42857100000000514
                },
                {
                    "name": "F4",
                    "midi": 65,
                    "time": 95.57133299999967,
                    "velocity": 0.5905511811023622,
                    "duration": 0.42857100000000514
                },
                {
                    "name": "D5",
                    "midi": 74,
                    "time": 95.57133299999967,
                    "velocity": 0.5905511811023622,
                    "duration": 0.42857100000000514
                },
                {
                    "name": "F5",
                    "midi": 77,
                    "time": 95.57133299999967,
                    "velocity": 0.6535433070866141,
                    "duration": 0.42857100000000514
                },
                {
                    "name": "C5",
                    "midi": 72,
                    "time": 95.99990399999967,
                    "velocity": 0.5905511811023622,
                    "duration": 0.42857100000000514
                },
                {
                    "name": "E4",
                    "midi": 64,
                    "time": 95.99990399999967,
                    "velocity": 0.5905511811023622,
                    "duration": 0.42857100000000514
                },
                {
                    "name": "E5",
                    "midi": 76,
                    "time": 95.99990399999967,
                    "velocity": 0.6614173228346457,
                    "duration": 0.42857100000000514
                },
                {
                    "name": "D4",
                    "midi": 62,
                    "time": 96.42847499999968,
                    "velocity": 0.5984251968503937,
                    "duration": 0.32142824999999675
                },
                {
                    "name": "B4",
                    "midi": 71,
                    "time": 96.42847499999968,
                    "velocity": 0.5984251968503937,
                    "duration": 0.32142824999999675
                },
                {
                    "name": "D5",
                    "midi": 74,
                    "time": 96.42847499999968,
                    "velocity": 0.6614173228346457,
                    "duration": 0.32142824999999675
                },
                {
                    "name": "C4",
                    "midi": 60,
                    "time": 96.74990324999968,
                    "velocity": 0.5748031496062992,
                    "duration": 0.10714274999999418
                },
                {
                    "name": "A4",
                    "midi": 69,
                    "time": 96.74990324999968,
                    "velocity": 0.5748031496062992,
                    "duration": 0.10714274999999418
                },
                {
                    "name": "C5",
                    "midi": 72,
                    "time": 96.74990324999968,
                    "velocity": 0.6220472440944882,
                    "duration": 0.10714274999999418
                },
                {
                    "name": "D4",
                    "midi": 62,
                    "time": 96.85704599999967,
                    "velocity": 0.5748031496062992,
                    "duration": 0.42857100000000514
                },
                {
                    "name": "B4",
                    "midi": 71,
                    "time": 96.85704599999967,
                    "velocity": 0.5748031496062992,
                    "duration": 0.42857100000000514
                },
                {
                    "name": "D5",
                    "midi": 74,
                    "time": 96.85704599999967,
                    "velocity": 0.6535433070866141,
                    "duration": 0.42857100000000514
                },
                {
                    "name": "F4",
                    "midi": 65,
                    "time": 97.28561699999968,
                    "velocity": 0.5826771653543307,
                    "duration": 0.42857100000000514
                },
                {
                    "name": "G4",
                    "midi": 67,
                    "time": 97.28561699999968,
                    "velocity": 0.7007874015748031,
                    "duration": 0.42857100000000514
                },
                {
                    "name": "C5",
                    "midi": 72,
                    "time": 97.71418799999968,
                    "velocity": 0.5984251968503937,
                    "duration": 0.6428564999999935
                },
                {
                    "name": "E4",
                    "midi": 64,
                    "time": 97.71418799999968,
                    "velocity": 0.5905511811023622,
                    "duration": 0.6428564999999935
                },
                {
                    "name": "E5",
                    "midi": 76,
                    "time": 97.71418799999968,
                    "velocity": 0.6692913385826772,
                    "duration": 0.6428564999999935
                },
                {
                    "name": "D4",
                    "midi": 62,
                    "time": 98.35704449999967,
                    "velocity": 0.5905511811023622,
                    "duration": 0.10714274999999418
                },
                {
                    "name": "B4",
                    "midi": 71,
                    "time": 98.35704449999967,
                    "velocity": 0.5905511811023622,
                    "duration": 0.10714274999999418
                },
                {
                    "name": "D5",
                    "midi": 74,
                    "time": 98.35704449999967,
                    "velocity": 0.6535433070866141,
                    "duration": 0.10714274999999418
                },
                {
                    "name": "C4",
                    "midi": 60,
                    "time": 98.57132999999966,
                    "velocity": 0.5275590551181102,
                    "duration": 0.10714274999999418
                },
                {
                    "name": "A4",
                    "midi": 69,
                    "time": 98.57132999999966,
                    "velocity": 0.5275590551181102,
                    "duration": 0.10714274999999418
                },
                {
                    "name": "C5",
                    "midi": 72,
                    "time": 98.57132999999966,
                    "velocity": 0.6141732283464567,
                    "duration": 0.10714274999999418
                },
                {
                    "name": "D4",
                    "midi": 62,
                    "time": 98.78561549999965,
                    "velocity": 0.5354330708661418,
                    "duration": 0.10714274999999418
                },
                {
                    "name": "B4",
                    "midi": 71,
                    "time": 98.78561549999965,
                    "velocity": 0.5354330708661418,
                    "duration": 0.10714274999999418
                },
                {
                    "name": "D5",
                    "midi": 74,
                    "time": 98.78561549999965,
                    "velocity": 0.6299212598425197,
                    "duration": 0.10714274999999418
                },
                {
                    "name": "E4",
                    "midi": 64,
                    "time": 98.99990099999964,
                    "velocity": 0.5511811023622047,
                    "duration": 0.10714274999999418
                },
                {
                    "name": "C5",
                    "midi": 72,
                    "time": 98.99990099999964,
                    "velocity": 0.5511811023622047,
                    "duration": 0.10714274999999418
                },
                {
                    "name": "E5",
                    "midi": 76,
                    "time": 98.99990099999964,
                    "velocity": 0.6535433070866141,
                    "duration": 0.10714274999999418
                },
                {
                    "name": "D4",
                    "midi": 62,
                    "time": 99.21418649999963,
                    "velocity": 0.5354330708661418,
                    "duration": 0.10714274999999418
                },
                {
                    "name": "B4",
                    "midi": 71,
                    "time": 99.21418649999963,
                    "velocity": 0.5354330708661418,
                    "duration": 0.10714274999999418
                },
                {
                    "name": "D5",
                    "midi": 74,
                    "time": 99.21418649999963,
                    "velocity": 0.6299212598425197,
                    "duration": 0.10714274999999418
                },
                {
                    "name": "A4",
                    "midi": 69,
                    "time": 99.42847199999962,
                    "velocity": 0.5905511811023622,
                    "duration": 0.42857100000000514
                },
                {
                    "name": "C4",
                    "midi": 60,
                    "time": 99.42847199999962,
                    "velocity": 0.5905511811023622,
                    "duration": 0.42857100000000514
                },
                {
                    "name": "C5",
                    "midi": 72,
                    "time": 99.42847199999962,
                    "velocity": 0.6614173228346457,
                    "duration": 0.42857100000000514
                },
                {
                    "name": "B3",
                    "midi": 59,
                    "time": 99.85704299999962,
                    "velocity": 0.5984251968503937,
                    "duration": 0.32142824999999675
                },
                {
                    "name": "G#4",
                    "midi": 68,
                    "time": 99.85704299999962,
                    "velocity": 0.5984251968503937,
                    "duration": 0.32142824999999675
                },
                {
                    "name": "B4",
                    "midi": 71,
                    "time": 99.85704299999962,
                    "velocity": 0.6614173228346457,
                    "duration": 0.32142824999999675
                },
                {
                    "name": "A3",
                    "midi": 57,
                    "time": 100.17847124999962,
                    "velocity": 0.5354330708661418,
                    "duration": 0.10714274999999418
                },
                {
                    "name": "F#4",
                    "midi": 66,
                    "time": 100.17847124999962,
                    "velocity": 0.5354330708661418,
                    "duration": 0.10714274999999418
                },
                {
                    "name": "A4",
                    "midi": 69,
                    "time": 100.17847124999962,
                    "velocity": 0.5984251968503937,
                    "duration": 0.10714274999999418
                },
                {
                    "name": "B3",
                    "midi": 59,
                    "time": 100.28561399999961,
                    "velocity": 0.5354330708661418,
                    "duration": 0.42857100000000514
                },
                {
                    "name": "G#4",
                    "midi": 68,
                    "time": 100.28561399999961,
                    "velocity": 0.5354330708661418,
                    "duration": 0.42857100000000514
                },
                {
                    "name": "B4",
                    "midi": 71,
                    "time": 100.28561399999961,
                    "velocity": 0.6141732283464567,
                    "duration": 0.42857100000000514
                },
                {
                    "name": "D4",
                    "midi": 62,
                    "time": 100.71418499999962,
                    "velocity": 0.5905511811023622,
                    "duration": 0.42857100000000514
                },
                {
                    "name": "E4",
                    "midi": 64,
                    "time": 100.71418499999962,
                    "velocity": 0.6614173228346457,
                    "duration": 0.42857100000000514
                },
                {
                    "name": "A3",
                    "midi": 57,
                    "time": 101.14275599999962,
                    "velocity": 0.5905511811023622,
                    "duration": 0.6428564999999935
                },
                {
                    "name": "C4",
                    "midi": 60,
                    "time": 101.14275599999962,
                    "velocity": 0.5905511811023622,
                    "duration": 0.6428564999999935
                },
                {
                    "name": "E4",
                    "midi": 64,
                    "time": 101.14275599999962,
                    "velocity": 0.5905511811023622,
                    "duration": 0.6428564999999935
                },
                {
                    "name": "A4",
                    "midi": 69,
                    "time": 101.14275599999962,
                    "velocity": 0.6535433070866141,
                    "duration": 0.6428564999999935
                },
                {
                    "name": "B3",
                    "midi": 59,
                    "time": 101.78561249999962,
                    "velocity": 0.5748031496062992,
                    "duration": 0.21428550000000257
                },
                {
                    "name": "E4",
                    "midi": 64,
                    "time": 101.78561249999962,
                    "velocity": 0.5748031496062992,
                    "duration": 0.21428550000000257
                },
                {
                    "name": "B4",
                    "midi": 71,
                    "time": 101.78561249999962,
                    "velocity": 0.6220472440944882,
                    "duration": 0.21428550000000257
                },
                {
                    "name": "C4",
                    "midi": 60,
                    "time": 101.99989799999962,
                    "velocity": 0.5905511811023622,
                    "duration": 0.42857100000000514
                },
                {
                    "name": "A4",
                    "midi": 69,
                    "time": 101.99989799999962,
                    "velocity": 0.5905511811023622,
                    "duration": 0.42857100000000514
                },
                {
                    "name": "C5",
                    "midi": 72,
                    "time": 101.99989799999962,
                    "velocity": 0.6535433070866141,
                    "duration": 0.42857100000000514
                },
                {
                    "name": "D4",
                    "midi": 62,
                    "time": 102.42846899999962,
                    "velocity": 0.5905511811023622,
                    "duration": 0.42857100000000514
                },
                {
                    "name": "B4",
                    "midi": 71,
                    "time": 102.42846899999962,
                    "velocity": 0.5905511811023622,
                    "duration": 0.42857100000000514
                },
                {
                    "name": "D5",
                    "midi": 74,
                    "time": 102.42846899999962,
                    "velocity": 0.6535433070866141,
                    "duration": 0.42857100000000514
                },
                {
                    "name": "E4",
                    "midi": 64,
                    "time": 102.85703999999963,
                    "velocity": 0.5905511811023622,
                    "duration": 0.42857100000000514
                },
                {
                    "name": "C5",
                    "midi": 72,
                    "time": 102.85703999999963,
                    "velocity": 0.5905511811023622,
                    "duration": 0.42857100000000514
                },
                {
                    "name": "E5",
                    "midi": 76,
                    "time": 102.85703999999963,
                    "velocity": 0.6614173228346457,
                    "duration": 0.42857100000000514
                },
                {
                    "name": "G4",
                    "midi": 67,
                    "time": 103.28561099999963,
                    "velocity": 0.6220472440944882,
                    "duration": 0.8571419999999961
                },
                {
                    "name": "E5",
                    "midi": 76,
                    "time": 103.28561099999963,
                    "velocity": 0.6220472440944882,
                    "duration": 0.8571419999999961
                },
                {
                    "name": "G5",
                    "midi": 79,
                    "time": 103.28561099999963,
                    "velocity": 0.7086614173228346,
                    "duration": 0.8571419999999961
                },
                {
                    "name": "F4",
                    "midi": 65,
                    "time": 104.14275299999963,
                    "velocity": 0.5905511811023622,
                    "duration": 0.32142824999999675
                },
                {
                    "name": "D5",
                    "midi": 74,
                    "time": 104.14275299999963,
                    "velocity": 0.5905511811023622,
                    "duration": 0.32142824999999675
                },
                {
                    "name": "F5",
                    "midi": 77,
                    "time": 104.14275299999963,
                    "velocity": 0.6614173228346457,
                    "duration": 0.32142824999999675
                },
                {
                    "name": "E4",
                    "midi": 64,
                    "time": 104.46418124999963,
                    "velocity": 0.5590551181102362,
                    "duration": 0.10178561249999518
                },
                {
                    "name": "C5",
                    "midi": 72,
                    "time": 104.46418124999963,
                    "velocity": 0.5590551181102362,
                    "duration": 0.10178561249999518
                },
                {
                    "name": "E5",
                    "midi": 76,
                    "time": 104.46418124999963,
                    "velocity": 0.6141732283464567,
                    "duration": 0.10178561249999518
                },
                {
                    "name": "E4",
                    "midi": 64,
                    "time": 104.57132399999962,
                    "velocity": 0.5905511811023622,
                    "duration": 0.42857100000000514
                },
                {
                    "name": "C5",
                    "midi": 72,
                    "time": 104.57132399999962,
                    "velocity": 0.5905511811023622,
                    "duration": 0.42857100000000514
                },
                {
                    "name": "E5",
                    "midi": 76,
                    "time": 104.57132399999962,
                    "velocity": 0.6535433070866141,
                    "duration": 0.42857100000000514
                },
                {
                    "name": "D4",
                    "midi": 62,
                    "time": 104.99989499999963,
                    "velocity": 0.5905511811023622,
                    "duration": 0.32142824999999675
                },
                {
                    "name": "B4",
                    "midi": 71,
                    "time": 104.99989499999963,
                    "velocity": 0.5905511811023622,
                    "duration": 0.32142824999999675
                },
                {
                    "name": "D5",
                    "midi": 74,
                    "time": 104.99989499999963,
                    "velocity": 0.6535433070866141,
                    "duration": 0.32142824999999675
                },
                {
                    "name": "C4",
                    "midi": 60,
                    "time": 105.32132324999962,
                    "velocity": 0.5590551181102362,
                    "duration": 0.10178561249999518
                },
                {
                    "name": "A4",
                    "midi": 69,
                    "time": 105.32132324999962,
                    "velocity": 0.5590551181102362,
                    "duration": 0.10178561249999518
                },
                {
                    "name": "C5",
                    "midi": 72,
                    "time": 105.32132324999962,
                    "velocity": 0.6141732283464567,
                    "duration": 0.10178561249999518
                },
                {
                    "name": "C4",
                    "midi": 60,
                    "time": 105.42846599999962,
                    "velocity": 0.5905511811023622,
                    "duration": 0.42857100000000514
                },
                {
                    "name": "A4",
                    "midi": 69,
                    "time": 105.42846599999962,
                    "velocity": 0.5905511811023622,
                    "duration": 0.42857100000000514
                },
                {
                    "name": "C5",
                    "midi": 72,
                    "time": 105.42846599999962,
                    "velocity": 0.6535433070866141,
                    "duration": 0.42857100000000514
                },
                {
                    "name": "E4",
                    "midi": 64,
                    "time": 105.85703699999962,
                    "velocity": 0.5984251968503937,
                    "duration": 0.32142824999999675
                },
                {
                    "name": "C5",
                    "midi": 72,
                    "time": 105.85703699999962,
                    "velocity": 0.5984251968503937,
                    "duration": 0.32142824999999675
                },
                {
                    "name": "E5",
                    "midi": 76,
                    "time": 105.85703699999962,
                    "velocity": 0.6692913385826772,
                    "duration": 0.32142824999999675
                },
                {
                    "name": "D4",
                    "midi": 62,
                    "time": 106.17846524999962,
                    "velocity": 0.5590551181102362,
                    "duration": 0.10714274999999418
                },
                {
                    "name": "B4",
                    "midi": 71,
                    "time": 106.17846524999962,
                    "velocity": 0.5590551181102362,
                    "duration": 0.10714274999999418
                },
                {
                    "name": "D5",
                    "midi": 74,
                    "time": 106.17846524999962,
                    "velocity": 0.6141732283464567,
                    "duration": 0.10714274999999418
                },
                {
                    "name": "C4",
                    "midi": 60,
                    "time": 106.28560799999961,
                    "velocity": 0.5433070866141733,
                    "duration": 0.8571419999999961
                },
                {
                    "name": "A4",
                    "midi": 69,
                    "time": 106.28560799999961,
                    "velocity": 0.5433070866141733,
                    "duration": 0.8571419999999961
                },
                {
                    "name": "C5",
                    "midi": 72,
                    "time": 106.28560799999961,
                    "velocity": 0.6062992125984252,
                    "duration": 0.8571419999999961
                },
                {
                    "name": "B3",
                    "midi": 59,
                    "time": 107.14274999999961,
                    "velocity": 0.5354330708661418,
                    "duration": 0.42857100000000514
                },
                {
                    "name": "G#4",
                    "midi": 68,
                    "time": 107.14274999999961,
                    "velocity": 0.5354330708661418,
                    "duration": 0.42857100000000514
                },
                {
                    "name": "B4",
                    "midi": 71,
                    "time": 107.14274999999961,
                    "velocity": 0.5984251968503937,
                    "duration": 0.42857100000000514
                },
                {
                    "name": "D4",
                    "midi": 62,
                    "time": 107.57132099999961,
                    "velocity": 0.5905511811023622,
                    "duration": 0.42857100000000514
                },
                {
                    "name": "E4",
                    "midi": 64,
                    "time": 107.57132099999961,
                    "velocity": 0.6614173228346457,
                    "duration": 0.42857100000000514
                },
                {
                    "name": "A3",
                    "midi": 57,
                    "time": 107.99989199999962,
                    "velocity": 0.5905511811023622,
                    "duration": 0.6428564999999935
                },
                {
                    "name": "C4",
                    "midi": 60,
                    "time": 107.99989199999962,
                    "velocity": 0.5905511811023622,
                    "duration": 0.6428564999999935
                },
                {
                    "name": "E4",
                    "midi": 64,
                    "time": 107.99989199999962,
                    "velocity": 0.5905511811023622,
                    "duration": 0.6428564999999935
                },
                {
                    "name": "A4",
                    "midi": 69,
                    "time": 107.99989199999962,
                    "velocity": 0.6535433070866141,
                    "duration": 0.6428564999999935
                },
                {
                    "name": "B3",
                    "midi": 59,
                    "time": 108.64274849999961,
                    "velocity": 0.5748031496062992,
                    "duration": 0.21428550000000257
                },
                {
                    "name": "E4",
                    "midi": 64,
                    "time": 108.64274849999961,
                    "velocity": 0.5748031496062992,
                    "duration": 0.21428550000000257
                },
                {
                    "name": "B4",
                    "midi": 71,
                    "time": 108.64274849999961,
                    "velocity": 0.6220472440944882,
                    "duration": 0.21428550000000257
                },
                {
                    "name": "C4",
                    "midi": 60,
                    "time": 108.85703399999962,
                    "velocity": 0.5905511811023622,
                    "duration": 0.32142824999999675
                },
                {
                    "name": "A4",
                    "midi": 69,
                    "time": 108.85703399999962,
                    "velocity": 0.5905511811023622,
                    "duration": 0.32142824999999675
                },
                {
                    "name": "C5",
                    "midi": 72,
                    "time": 108.85703399999962,
                    "velocity": 0.6535433070866141,
                    "duration": 0.32142824999999675
                },
                {
                    "name": "B3",
                    "midi": 59,
                    "time": 109.17846224999961,
                    "velocity": 0.5905511811023622,
                    "duration": 0.10714274999999418
                },
                {
                    "name": "G#4",
                    "midi": 68,
                    "time": 109.17846224999961,
                    "velocity": 0.5905511811023622,
                    "duration": 0.10714274999999418
                },
                {
                    "name": "B4",
                    "midi": 71,
                    "time": 109.17846224999961,
                    "velocity": 0.6535433070866141,
                    "duration": 0.10714274999999418
                },
                {
                    "name": "C4",
                    "midi": 60,
                    "time": 109.2856049999996,
                    "velocity": 0.5905511811023622,
                    "duration": 0.32142824999999675
                },
                {
                    "name": "A4",
                    "midi": 69,
                    "time": 109.2856049999996,
                    "velocity": 0.5905511811023622,
                    "duration": 0.32142824999999675
                },
                {
                    "name": "C5",
                    "midi": 72,
                    "time": 109.2856049999996,
                    "velocity": 0.6535433070866141,
                    "duration": 0.32142824999999675
                },
                {
                    "name": "D4",
                    "midi": 62,
                    "time": 109.6070332499996,
                    "velocity": 0.5905511811023622,
                    "duration": 0.10714274999999418
                },
                {
                    "name": "D5",
                    "midi": 74,
                    "time": 109.6070332499996,
                    "velocity": 0.6535433070866141,
                    "duration": 0.10714274999999418
                },
                {
                    "name": "B4",
                    "midi": 71,
                    "time": 109.6070332499996,
                    "velocity": 0.5905511811023622,
                    "duration": 0.10714274999999418
                },
                {
                    "name": "E4",
                    "midi": 64,
                    "time": 109.7141759999996,
                    "velocity": 0.5905511811023622,
                    "duration": 0.42857100000000514
                },
                {
                    "name": "C5",
                    "midi": 72,
                    "time": 109.7141759999996,
                    "velocity": 0.5905511811023622,
                    "duration": 0.42857100000000514
                },
                {
                    "name": "E5",
                    "midi": 76,
                    "time": 109.7141759999996,
                    "velocity": 0.6614173228346457,
                    "duration": 0.42857100000000514
                },
                {
                    "name": "G4",
                    "midi": 67,
                    "time": 110.1427469999996,
                    "velocity": 0.6220472440944882,
                    "duration": 0.8571419999999961
                },
                {
                    "name": "E5",
                    "midi": 76,
                    "time": 110.1427469999996,
                    "velocity": 0.6220472440944882,
                    "duration": 0.8571419999999961
                },
                {
                    "name": "G5",
                    "midi": 79,
                    "time": 110.1427469999996,
                    "velocity": 0.7086614173228346,
                    "duration": 0.8571419999999961
                },
                {
                    "name": "A#4",
                    "midi": 70,
                    "time": 110.9998889999996,
                    "velocity": 0.6299212598425197,
                    "duration": 1.607141249999998
                },
                {
                    "name": "G5",
                    "midi": 79,
                    "time": 110.9998889999996,
                    "velocity": 0.6299212598425197,
                    "duration": 1.607141249999998
                },
                {
                    "name": "A#5",
                    "midi": 82,
                    "time": 110.9998889999996,
                    "velocity": 0.7244094488188977,
                    "duration": 1.607141249999998
                },
                {
                    "name": "A#4",
                    "midi": 70,
                    "time": 112.6070302499996,
                    "velocity": 0.5984251968503937,
                    "duration": 0.10714274999999418
                },
                {
                    "name": "G5",
                    "midi": 79,
                    "time": 112.6070302499996,
                    "velocity": 0.5984251968503937,
                    "duration": 0.10714274999999418
                },
                {
                    "name": "A#5",
                    "midi": 82,
                    "time": 112.6070302499996,
                    "velocity": 0.6535433070866141,
                    "duration": 0.10714274999999418
                },
                {
                    "name": "A4",
                    "midi": 69,
                    "time": 112.71417299999959,
                    "velocity": 0.5984251968503937,
                    "duration": 0.32142824999999675
                },
                {
                    "name": "F5",
                    "midi": 77,
                    "time": 112.71417299999959,
                    "velocity": 0.5984251968503937,
                    "duration": 0.32142824999999675
                },
                {
                    "name": "A5",
                    "midi": 81,
                    "time": 112.71417299999959,
                    "velocity": 0.6692913385826772,
                    "duration": 0.32142824999999675
                },
                {
                    "name": "G4",
                    "midi": 67,
                    "time": 113.03560124999959,
                    "velocity": 0.5590551181102362,
                    "duration": 0.10714274999999418
                },
                {
                    "name": "E5",
                    "midi": 76,
                    "time": 113.03560124999959,
                    "velocity": 0.5590551181102362,
                    "duration": 0.10714274999999418
                },
                {
                    "name": "G5",
                    "midi": 79,
                    "time": 113.03560124999959,
                    "velocity": 0.6141732283464567,
                    "duration": 0.10714274999999418
                },
                {
                    "name": "F4",
                    "midi": 65,
                    "time": 113.14274399999958,
                    "velocity": 0.6062992125984252,
                    "duration": 1.178570250000007
                },
                {
                    "name": "D5",
                    "midi": 74,
                    "time": 113.14274399999958,
                    "velocity": 0.6062992125984252,
                    "duration": 1.178570250000007
                },
                {
                    "name": "F5",
                    "midi": 77,
                    "time": 113.14274399999958,
                    "velocity": 0.6929133858267716,
                    "duration": 1.178570250000007
                },
                {
                    "name": "F4",
                    "midi": 65,
                    "time": 114.32131424999959,
                    "velocity": 0.5511811023622047,
                    "duration": 0.10714274999999418
                },
                {
                    "name": "D5",
                    "midi": 74,
                    "time": 114.32131424999959,
                    "velocity": 0.5511811023622047,
                    "duration": 0.10714274999999418
                },
                {
                    "name": "F5",
                    "midi": 77,
                    "time": 114.32131424999959,
                    "velocity": 0.6535433070866141,
                    "duration": 0.10714274999999418
                },
                {
                    "name": "E4",
                    "midi": 64,
                    "time": 114.42845699999958,
                    "velocity": 0.5984251968503937,
                    "duration": 0.32142824999999675
                },
                {
                    "name": "C5",
                    "midi": 72,
                    "time": 114.42845699999958,
                    "velocity": 0.5984251968503937,
                    "duration": 0.32142824999999675
                },
                {
                    "name": "E5",
                    "midi": 76,
                    "time": 114.42845699999958,
                    "velocity": 0.6692913385826772,
                    "duration": 0.32142824999999675
                },
                {
                    "name": "D4",
                    "midi": 62,
                    "time": 114.74988524999958,
                    "velocity": 0.5590551181102362,
                    "duration": 0.10714274999999418
                },
                {
                    "name": "B4",
                    "midi": 71,
                    "time": 114.74988524999958,
                    "velocity": 0.5590551181102362,
                    "duration": 0.10714274999999418
                },
                {
                    "name": "D5",
                    "midi": 74,
                    "time": 114.74988524999958,
                    "velocity": 0.6141732283464567,
                    "duration": 0.10714274999999418
                },
                {
                    "name": "C4",
                    "midi": 60,
                    "time": 114.85702799999957,
                    "velocity": 0.5826771653543307,
                    "duration": 1.1785702499999928
                },
                {
                    "name": "A4",
                    "midi": 69,
                    "time": 114.85702799999957,
                    "velocity": 0.6062992125984252,
                    "duration": 1.1785702499999928
                },
                {
                    "name": "C5",
                    "midi": 72,
                    "time": 114.85702799999957,
                    "velocity": 0.6456692913385826,
                    "duration": 1.1785702499999928
                },
                {
                    "name": "B3",
                    "midi": 59,
                    "time": 115.92845549999957,
                    "velocity": 0.33070866141732286,
                    "duration": 0.10714274999999418
                },
                {
                    "name": "G#4",
                    "midi": 68,
                    "time": 115.92845549999957,
                    "velocity": 0.33070866141732286,
                    "duration": 0.10714274999999418
                },
                {
                    "name": "B4",
                    "midi": 71,
                    "time": 115.92845549999957,
                    "velocity": 0.47244094488188976,
                    "duration": 0.10714274999999418
                },
                {
                    "name": "A3",
                    "midi": 57,
                    "time": 116.14274099999956,
                    "velocity": 0.41732283464566927,
                    "duration": 0.10714274999999418
                },
                {
                    "name": "F#4",
                    "midi": 66,
                    "time": 116.14274099999956,
                    "velocity": 0.41732283464566927,
                    "duration": 0.10714274999999418
                },
                {
                    "name": "A4",
                    "midi": 69,
                    "time": 116.14274099999956,
                    "velocity": 0.5039370078740157,
                    "duration": 0.10714274999999418
                },
                {
                    "name": "B3",
                    "midi": 59,
                    "time": 116.35702649999955,
                    "velocity": 0.4094488188976378,
                    "duration": 0.10714274999999418
                },
                {
                    "name": "G#4",
                    "midi": 68,
                    "time": 116.35702649999955,
                    "velocity": 0.4094488188976378,
                    "duration": 0.10714274999999418
                },
                {
                    "name": "B4",
                    "midi": 71,
                    "time": 116.35702649999955,
                    "velocity": 0.4881889763779528,
                    "duration": 0.10714274999999418
                },
                {
                    "name": "A4",
                    "midi": 69,
                    "time": 116.57131199999954,
                    "velocity": 0.4094488188976378,
                    "duration": 0.10714274999999418
                },
                {
                    "name": "C5",
                    "midi": 72,
                    "time": 116.57131199999954,
                    "velocity": 0.49606299212598426,
                    "duration": 0.10714274999999418
                },
                {
                    "name": "C4",
                    "midi": 60,
                    "time": 116.57131199999954,
                    "velocity": 0.4094488188976378,
                    "duration": 0.10714274999999418
                },
                {
                    "name": "D4",
                    "midi": 62,
                    "time": 116.78559749999953,
                    "velocity": 0.4251968503937008,
                    "duration": 0.10714274999999418
                },
                {
                    "name": "D5",
                    "midi": 74,
                    "time": 116.78559749999953,
                    "velocity": 0.5118110236220472,
                    "duration": 0.10714274999999418
                },
                {
                    "name": "B4",
                    "midi": 71,
                    "time": 116.78559749999953,
                    "velocity": 0.4251968503937008,
                    "duration": 0.10714274999999418
                },
                {
                    "name": "E4",
                    "midi": 64,
                    "time": 116.99988299999951,
                    "velocity": 0.4409448818897638,
                    "duration": 0.10714274999999418
                },
                {
                    "name": "E5",
                    "midi": 76,
                    "time": 116.99988299999951,
                    "velocity": 0.5275590551181102,
                    "duration": 0.10714274999999418
                },
                {
                    "name": "C5",
                    "midi": 72,
                    "time": 116.99988299999951,
                    "velocity": 0.4409448818897638,
                    "duration": 0.10714274999999418
                },
                {
                    "name": "F4",
                    "midi": 65,
                    "time": 117.2141684999995,
                    "velocity": 0.44881889763779526,
                    "duration": 0.10714274999999418
                },
                {
                    "name": "D5",
                    "midi": 74,
                    "time": 117.2141684999995,
                    "velocity": 0.44881889763779526,
                    "duration": 0.10714274999999418
                },
                {
                    "name": "F5",
                    "midi": 77,
                    "time": 117.2141684999995,
                    "velocity": 0.5433070866141733,
                    "duration": 0.10714274999999418
                },
                {
                    "name": "E4",
                    "midi": 64,
                    "time": 117.42845399999949,
                    "velocity": 0.44881889763779526,
                    "duration": 0.10714274999999418
                },
                {
                    "name": "C5",
                    "midi": 72,
                    "time": 117.42845399999949,
                    "velocity": 0.44881889763779526,
                    "duration": 0.10714274999999418
                },
                {
                    "name": "E5",
                    "midi": 76,
                    "time": 117.42845399999949,
                    "velocity": 0.5354330708661418,
                    "duration": 0.10714274999999418
                },
                {
                    "name": "B4",
                    "midi": 71,
                    "time": 117.64273949999948,
                    "velocity": 0.44881889763779526,
                    "duration": 0.10714274999999418
                },
                {
                    "name": "D5",
                    "midi": 74,
                    "time": 117.64273949999948,
                    "velocity": 0.5354330708661418,
                    "duration": 0.10714274999999418
                },
                {
                    "name": "D4",
                    "midi": 62,
                    "time": 117.64273949999948,
                    "velocity": 0.44881889763779526,
                    "duration": 0.10714274999999418
                },
                {
                    "name": "A4",
                    "midi": 69,
                    "time": 117.85702499999947,
                    "velocity": 0.44881889763779526,
                    "duration": 0.10714274999999418
                },
                {
                    "name": "C5",
                    "midi": 72,
                    "time": 117.85702499999947,
                    "velocity": 0.5354330708661418,
                    "duration": 0.10714274999999418
                },
                {
                    "name": "C4",
                    "midi": 60,
                    "time": 117.85702499999947,
                    "velocity": 0.44881889763779526,
                    "duration": 0.10714274999999418
                },
                {
                    "name": "G#4",
                    "midi": 68,
                    "time": 118.07131049999946,
                    "velocity": 0.4566929133858268,
                    "duration": 0.10714274999999418
                },
                {
                    "name": "B4",
                    "midi": 71,
                    "time": 118.07131049999946,
                    "velocity": 0.5354330708661418,
                    "duration": 0.10714274999999418
                },
                {
                    "name": "B3",
                    "midi": 59,
                    "time": 118.07131049999946,
                    "velocity": 0.4566929133858268,
                    "duration": 0.10714274999999418
                },
                {
                    "name": "C5",
                    "midi": 72,
                    "time": 118.28559599999944,
                    "velocity": 0.5511811023622047,
                    "duration": 0.10714274999999418
                },
                {
                    "name": "C4",
                    "midi": 60,
                    "time": 118.28559599999944,
                    "velocity": 0.4645669291338583,
                    "duration": 0.10714274999999418
                },
                {
                    "name": "A4",
                    "midi": 69,
                    "time": 118.28559599999944,
                    "velocity": 0.4645669291338583,
                    "duration": 0.10714274999999418
                },
                {
                    "name": "D4",
                    "midi": 62,
                    "time": 118.49988149999943,
                    "velocity": 0.4645669291338583,
                    "duration": 0.10714274999999418
                },
                {
                    "name": "B4",
                    "midi": 71,
                    "time": 118.49988149999943,
                    "velocity": 0.4645669291338583,
                    "duration": 0.10714274999999418
                },
                {
                    "name": "D5",
                    "midi": 74,
                    "time": 118.49988149999943,
                    "velocity": 0.5590551181102362,
                    "duration": 0.10714274999999418
                },
                {
                    "name": "C5",
                    "midi": 72,
                    "time": 118.71416699999942,
                    "velocity": 0.49606299212598426,
                    "duration": 0.10714274999999418
                },
                {
                    "name": "E5",
                    "midi": 76,
                    "time": 118.71416699999942,
                    "velocity": 0.5984251968503937,
                    "duration": 0.10714274999999418
                },
                {
                    "name": "E4",
                    "midi": 64,
                    "time": 118.71416699999942,
                    "velocity": 0.49606299212598426,
                    "duration": 0.10714274999999418
                },
                {
                    "name": "F4",
                    "midi": 65,
                    "time": 118.92845249999941,
                    "velocity": 0.5118110236220472,
                    "duration": 0.10714274999999418
                },
                {
                    "name": "F5",
                    "midi": 77,
                    "time": 118.92845249999941,
                    "velocity": 0.6141732283464567,
                    "duration": 0.10714274999999418
                },
                {
                    "name": "D5",
                    "midi": 74,
                    "time": 118.92845249999941,
                    "velocity": 0.5118110236220472,
                    "duration": 0.10714274999999418
                },
                {
                    "name": "E4",
                    "midi": 64,
                    "time": 119.1427379999994,
                    "velocity": 0.49606299212598426,
                    "duration": 0.10714274999999418
                },
                {
                    "name": "E5",
                    "midi": 76,
                    "time": 119.1427379999994,
                    "velocity": 0.5984251968503937,
                    "duration": 0.10714274999999418
                },
                {
                    "name": "C5",
                    "midi": 72,
                    "time": 119.1427379999994,
                    "velocity": 0.49606299212598426,
                    "duration": 0.10714274999999418
                },
                {
                    "name": "D4",
                    "midi": 62,
                    "time": 119.35702349999939,
                    "velocity": 0.5039370078740157,
                    "duration": 0.10714274999999418
                },
                {
                    "name": "B4",
                    "midi": 71,
                    "time": 119.35702349999939,
                    "velocity": 0.5039370078740157,
                    "duration": 0.10714274999999418
                },
                {
                    "name": "D5",
                    "midi": 74,
                    "time": 119.35702349999939,
                    "velocity": 0.5984251968503937,
                    "duration": 0.10714274999999418
                },
                {
                    "name": "C4",
                    "midi": 60,
                    "time": 119.57130899999937,
                    "velocity": 0.5039370078740157,
                    "duration": 0.10714274999999418
                },
                {
                    "name": "A4",
                    "midi": 69,
                    "time": 119.57130899999937,
                    "velocity": 0.5039370078740157,
                    "duration": 0.10714274999999418
                },
                {
                    "name": "C5",
                    "midi": 72,
                    "time": 119.57130899999937,
                    "velocity": 0.5984251968503937,
                    "duration": 0.10714274999999418
                },
                {
                    "name": "G#4",
                    "midi": 68,
                    "time": 119.78559449999936,
                    "velocity": 0.5039370078740157,
                    "duration": 0.10714274999999418
                },
                {
                    "name": "B4",
                    "midi": 71,
                    "time": 119.78559449999936,
                    "velocity": 0.5984251968503937,
                    "duration": 0.10714274999999418
                },
                {
                    "name": "B3",
                    "midi": 59,
                    "time": 119.78559449999936,
                    "velocity": 0.5039370078740157,
                    "duration": 0.10714274999999418
                },
                {
                    "name": "A4",
                    "midi": 69,
                    "time": 119.99987999999935,
                    "velocity": 0.5196850393700787,
                    "duration": 0.10714274999999418
                },
                {
                    "name": "C5",
                    "midi": 72,
                    "time": 119.99987999999935,
                    "velocity": 0.6220472440944882,
                    "duration": 0.10714274999999418
                },
                {
                    "name": "C4",
                    "midi": 60,
                    "time": 119.99987999999935,
                    "velocity": 0.5196850393700787,
                    "duration": 0.10714274999999418
                },
                {
                    "name": "D5",
                    "midi": 74,
                    "time": 120.21416549999934,
                    "velocity": 0.6377952755905512,
                    "duration": 0.10714274999999418
                },
                {
                    "name": "B4",
                    "midi": 71,
                    "time": 120.21416549999934,
                    "velocity": 0.5354330708661418,
                    "duration": 0.10714274999999418
                },
                {
                    "name": "D4",
                    "midi": 62,
                    "time": 120.21416549999934,
                    "velocity": 0.5354330708661418,
                    "duration": 0.10714274999999418
                },
                {
                    "name": "E5",
                    "midi": 76,
                    "time": 120.42845099999933,
                    "velocity": 0.6614173228346457,
                    "duration": 0.10714274999999418
                },
                {
                    "name": "C5",
                    "midi": 72,
                    "time": 120.42845099999933,
                    "velocity": 0.5511811023622047,
                    "duration": 0.10714274999999418
                },
                {
                    "name": "E4",
                    "midi": 64,
                    "time": 120.42845099999933,
                    "velocity": 0.5511811023622047,
                    "duration": 0.10714274999999418
                },
                {
                    "name": "F4",
                    "midi": 65,
                    "time": 120.64273649999932,
                    "velocity": 0.5748031496062992,
                    "duration": 0.10714274999999418
                },
                {
                    "name": "D5",
                    "midi": 74,
                    "time": 120.64273649999932,
                    "velocity": 0.5748031496062992,
                    "duration": 0.10714274999999418
                },
                {
                    "name": "F5",
                    "midi": 77,
                    "time": 120.64273649999932,
                    "velocity": 0.6771653543307087,
                    "duration": 0.10714274999999418
                },
                {
                    "name": "E5",
                    "midi": 76,
                    "time": 120.8570219999993,
                    "velocity": 0.6535433070866141,
                    "duration": 0.10714274999999418
                },
                {
                    "name": "E4",
                    "midi": 64,
                    "time": 120.8570219999993,
                    "velocity": 0.5433070866141733,
                    "duration": 0.10714274999999418
                },
                {
                    "name": "C5",
                    "midi": 72,
                    "time": 120.8570219999993,
                    "velocity": 0.5433070866141733,
                    "duration": 0.10714274999999418
                },
                {
                    "name": "D4",
                    "midi": 62,
                    "time": 121.07130749999929,
                    "velocity": 0.5354330708661418,
                    "duration": 0.10714274999999418
                },
                {
                    "name": "B4",
                    "midi": 71,
                    "time": 121.07130749999929,
                    "velocity": 0.5354330708661418,
                    "duration": 0.10714274999999418
                },
                {
                    "name": "D5",
                    "midi": 74,
                    "time": 121.07130749999929,
                    "velocity": 0.6377952755905512,
                    "duration": 0.10714274999999418
                },
                {
                    "name": "C4",
                    "midi": 60,
                    "time": 121.28559299999928,
                    "velocity": 0.5275590551181102,
                    "duration": 0.10714274999999418
                },
                {
                    "name": "A4",
                    "midi": 69,
                    "time": 121.28559299999928,
                    "velocity": 0.5275590551181102,
                    "duration": 0.10714274999999418
                },
                {
                    "name": "C5",
                    "midi": 72,
                    "time": 121.28559299999928,
                    "velocity": 0.6299212598425197,
                    "duration": 0.10714274999999418
                },
                {
                    "name": "G#4",
                    "midi": 68,
                    "time": 121.49987849999927,
                    "velocity": 0.5354330708661418,
                    "duration": 0.10714274999999418
                },
                {
                    "name": "B3",
                    "midi": 59,
                    "time": 121.49987849999927,
                    "velocity": 0.5354330708661418,
                    "duration": 0.10714274999999418
                },
                {
                    "name": "B4",
                    "midi": 71,
                    "time": 121.49987849999927,
                    "velocity": 0.6299212598425197,
                    "duration": 0.10714274999999418
                },
                {
                    "name": "C4",
                    "midi": 60,
                    "time": 121.71416399999926,
                    "velocity": 0.5511811023622047,
                    "duration": 0.10714274999999418
                },
                {
                    "name": "A4",
                    "midi": 69,
                    "time": 121.71416399999926,
                    "velocity": 0.5511811023622047,
                    "duration": 0.10714274999999418
                },
                {
                    "name": "C5",
                    "midi": 72,
                    "time": 121.71416399999926,
                    "velocity": 0.6614173228346457,
                    "duration": 0.10714274999999418
                },
                {
                    "name": "D5",
                    "midi": 74,
                    "time": 121.92844949999925,
                    "velocity": 0.6692913385826772,
                    "duration": 0.10714274999999418
                },
                {
                    "name": "D4",
                    "midi": 62,
                    "time": 121.92844949999925,
                    "velocity": 0.5590551181102362,
                    "duration": 0.10714274999999418
                },
                {
                    "name": "B4",
                    "midi": 71,
                    "time": 121.92844949999925,
                    "velocity": 0.5590551181102362,
                    "duration": 0.10714274999999418
                },
                {
                    "name": "E4",
                    "midi": 64,
                    "time": 122.14273499999923,
                    "velocity": 0.5826771653543307,
                    "duration": 0.10714274999999418
                },
                {
                    "name": "C5",
                    "midi": 72,
                    "time": 122.14273499999923,
                    "velocity": 0.5826771653543307,
                    "duration": 0.10714274999999418
                },
                {
                    "name": "E5",
                    "midi": 76,
                    "time": 122.14273499999923,
                    "velocity": 0.6929133858267716,
                    "duration": 0.10714274999999418
                },
                {
                    "name": "F5",
                    "midi": 77,
                    "time": 122.35702049999922,
                    "velocity": 0.7086614173228346,
                    "duration": 0.10714274999999418
                },
                {
                    "name": "F4",
                    "midi": 65,
                    "time": 122.35702049999922,
                    "velocity": 0.5984251968503937,
                    "duration": 0.10714274999999418
                },
                {
                    "name": "D5",
                    "midi": 74,
                    "time": 122.35702049999922,
                    "velocity": 0.5984251968503937,
                    "duration": 0.10714274999999418
                },
                {
                    "name": "E4",
                    "midi": 64,
                    "time": 122.57130599999921,
                    "velocity": 0.5826771653543307,
                    "duration": 0.10714274999999418
                },
                {
                    "name": "C5",
                    "midi": 72,
                    "time": 122.57130599999921,
                    "velocity": 0.5826771653543307,
                    "duration": 0.10714274999999418
                },
                {
                    "name": "E5",
                    "midi": 76,
                    "time": 122.57130599999921,
                    "velocity": 0.6850393700787402,
                    "duration": 0.10714274999999418
                },
                {
                    "name": "D4",
                    "midi": 62,
                    "time": 122.7855914999992,
                    "velocity": 0.5826771653543307,
                    "duration": 0.10714274999999418
                },
                {
                    "name": "D5",
                    "midi": 74,
                    "time": 122.7855914999992,
                    "velocity": 0.6850393700787402,
                    "duration": 0.10714274999999418
                },
                {
                    "name": "B4",
                    "midi": 71,
                    "time": 122.7855914999992,
                    "velocity": 0.5826771653543307,
                    "duration": 0.10714274999999418
                },
                {
                    "name": "A4",
                    "midi": 69,
                    "time": 122.99987699999919,
                    "velocity": 0.5748031496062992,
                    "duration": 0.10714274999999418
                },
                {
                    "name": "C4",
                    "midi": 60,
                    "time": 122.99987699999919,
                    "velocity": 0.5748031496062992,
                    "duration": 0.10714274999999418
                },
                {
                    "name": "C5",
                    "midi": 72,
                    "time": 122.99987699999919,
                    "velocity": 0.6771653543307087,
                    "duration": 0.10714274999999418
                },
                {
                    "name": "G#4",
                    "midi": 68,
                    "time": 123.21416249999918,
                    "velocity": 0.5748031496062992,
                    "duration": 0.10714274999999418
                },
                {
                    "name": "B3",
                    "midi": 59,
                    "time": 123.21416249999918,
                    "velocity": 0.5748031496062992,
                    "duration": 0.10714274999999418
                },
                {
                    "name": "B4",
                    "midi": 71,
                    "time": 123.21416249999918,
                    "velocity": 0.6771653543307087,
                    "duration": 0.10714274999999418
                },
                {
                    "name": "A4",
                    "midi": 69,
                    "time": 123.42844799999916,
                    "velocity": 0.5669291338582677,
                    "duration": 0.16071412499999838
                },
                {
                    "name": "C5",
                    "midi": 72,
                    "time": 123.42844799999916,
                    "velocity": 0.7322834645669292,
                    "duration": 0.16071412499999838
                },
                {
                    "name": "C4",
                    "midi": 60,
                    "time": 123.42844799999916,
                    "velocity": 0.5669291338582677,
                    "duration": 0.16071412499999838
                },
                {
                    "name": "B4",
                    "midi": 71,
                    "time": 123.64273349999917,
                    "velocity": 0.7007874015748031,
                    "duration": 0.16071412499999838
                },
                {
                    "name": "B3",
                    "midi": 59,
                    "time": 123.64273349999917,
                    "velocity": 0.5433070866141733,
                    "duration": 0.16071412499999838
                },
                {
                    "name": "G#4",
                    "midi": 68,
                    "time": 123.64273349999917,
                    "velocity": 0.5433070866141733,
                    "duration": 0.16071412499999838
                },
                {
                    "name": "C5",
                    "midi": 72,
                    "time": 123.85701899999917,
                    "velocity": 0.7322834645669292,
                    "duration": 0.16071412499999838
                },
                {
                    "name": "C4",
                    "midi": 60,
                    "time": 123.85701899999917,
                    "velocity": 0.5669291338582677,
                    "duration": 0.16071412499999838
                },
                {
                    "name": "A4",
                    "midi": 69,
                    "time": 123.85701899999917,
                    "velocity": 0.5669291338582677,
                    "duration": 0.16071412499999838
                },
                {
                    "name": "B3",
                    "midi": 59,
                    "time": 124.07130449999917,
                    "velocity": 0.5275590551181102,
                    "duration": 0.16071412499999838
                },
                {
                    "name": "G#4",
                    "midi": 68,
                    "time": 124.07130449999917,
                    "velocity": 0.5275590551181102,
                    "duration": 0.16071412499999838
                },
                {
                    "name": "B4",
                    "midi": 71,
                    "time": 124.07130449999917,
                    "velocity": 0.6692913385826772,
                    "duration": 0.16071412499999838
                },
                {
                    "name": "C4",
                    "midi": 60,
                    "time": 124.28558999999917,
                    "velocity": 0.5669291338582677,
                    "duration": 0.16071412499999838
                },
                {
                    "name": "C5",
                    "midi": 72,
                    "time": 124.28558999999917,
                    "velocity": 0.7322834645669292,
                    "duration": 0.16071412499999838
                },
                {
                    "name": "A4",
                    "midi": 69,
                    "time": 124.28558999999917,
                    "velocity": 0.5669291338582677,
                    "duration": 0.16071412499999838
                },
                {
                    "name": "B4",
                    "midi": 71,
                    "time": 124.49987549999918,
                    "velocity": 0.6535433070866141,
                    "duration": 0.16071412499999838
                },
                {
                    "name": "G#4",
                    "midi": 68,
                    "time": 124.49987549999918,
                    "velocity": 0.5196850393700787,
                    "duration": 0.16071412499999838
                },
                {
                    "name": "B3",
                    "midi": 59,
                    "time": 124.49987549999918,
                    "velocity": 0.5196850393700787,
                    "duration": 0.16071412499999838
                },
                {
                    "name": "C4",
                    "midi": 60,
                    "time": 124.71416099999918,
                    "velocity": 0.5669291338582677,
                    "duration": 0.16071412499999838
                },
                {
                    "name": "A4",
                    "midi": 69,
                    "time": 124.71416099999918,
                    "velocity": 0.5669291338582677,
                    "duration": 0.16071412499999838
                },
                {
                    "name": "C5",
                    "midi": 72,
                    "time": 124.71416099999918,
                    "velocity": 0.7322834645669292,
                    "duration": 0.16071412499999838
                },
                {
                    "name": "B4",
                    "midi": 71,
                    "time": 124.92844649999918,
                    "velocity": 0.6535433070866141,
                    "duration": 0.16071412499999838
                },
                {
                    "name": "B3",
                    "midi": 59,
                    "time": 124.92844649999918,
                    "velocity": 0.5196850393700787,
                    "duration": 0.16071412499999838
                },
                {
                    "name": "G#4",
                    "midi": 68,
                    "time": 124.92844649999918,
                    "velocity": 0.5196850393700787,
                    "duration": 0.16071412499999838
                },
                {
                    "name": "C4",
                    "midi": 60,
                    "time": 125.14273199999919,
                    "velocity": 0.5669291338582677,
                    "duration": 0.16071412499999838
                },
                {
                    "name": "A4",
                    "midi": 69,
                    "time": 125.14273199999919,
                    "velocity": 0.5669291338582677,
                    "duration": 0.16071412499999838
                },
                {
                    "name": "C5",
                    "midi": 72,
                    "time": 125.14273199999919,
                    "velocity": 0.7322834645669292,
                    "duration": 0.16071412499999838
                },
                {
                    "name": "B3",
                    "midi": 59,
                    "time": 125.35701749999919,
                    "velocity": 0.5275590551181102,
                    "duration": 0.16071412499999838
                },
                {
                    "name": "G#4",
                    "midi": 68,
                    "time": 125.35701749999919,
                    "velocity": 0.5275590551181102,
                    "duration": 0.16071412499999838
                },
                {
                    "name": "B4",
                    "midi": 71,
                    "time": 125.35701749999919,
                    "velocity": 0.6692913385826772,
                    "duration": 0.16071412499999838
                },
                {
                    "name": "A4",
                    "midi": 69,
                    "time": 125.57130299999919,
                    "velocity": 0.5669291338582677,
                    "duration": 0.16071412499999838
                },
                {
                    "name": "C4",
                    "midi": 60,
                    "time": 125.57130299999919,
                    "velocity": 0.5669291338582677,
                    "duration": 0.16071412499999838
                },
                {
                    "name": "C5",
                    "midi": 72,
                    "time": 125.57130299999919,
                    "velocity": 0.7322834645669292,
                    "duration": 0.16071412499999838
                },
                {
                    "name": "D4",
                    "midi": 62,
                    "time": 125.78558849999919,
                    "velocity": 0.5196850393700787,
                    "duration": 0.16071412499999838
                },
                {
                    "name": "B4",
                    "midi": 71,
                    "time": 125.78558849999919,
                    "velocity": 0.5196850393700787,
                    "duration": 0.16071412499999838
                },
                {
                    "name": "D5",
                    "midi": 74,
                    "time": 125.78558849999919,
                    "velocity": 0.6535433070866141,
                    "duration": 0.16071412499999838
                },
                {
                    "name": "E5",
                    "midi": 76,
                    "time": 125.9998739999992,
                    "velocity": 0.7322834645669292,
                    "duration": 0.42857100000000514
                },
                {
                    "name": "E4",
                    "midi": 64,
                    "time": 125.9998739999992,
                    "velocity": 0.5669291338582677,
                    "duration": 0.42857100000000514
                },
                {
                    "name": "C5",
                    "midi": 72,
                    "time": 125.9998739999992,
                    "velocity": 0.5669291338582677,
                    "duration": 0.42857100000000514
                },
                {
                    "name": "B3",
                    "midi": 59,
                    "time": 126.4284449999992,
                    "velocity": 0.5354330708661418,
                    "duration": 0.32142824999999675
                },
                {
                    "name": "E4",
                    "midi": 64,
                    "time": 126.4284449999992,
                    "velocity": 0.5354330708661418,
                    "duration": 0.32142824999999675
                },
                {
                    "name": "B4",
                    "midi": 71,
                    "time": 126.4284449999992,
                    "velocity": 0.6929133858267716,
                    "duration": 0.32142824999999675
                },
                {
                    "name": "C4",
                    "midi": 60,
                    "time": 126.7498732499992,
                    "velocity": 0.49606299212598426,
                    "duration": 0.10714274999999418
                },
                {
                    "name": "C5",
                    "midi": 72,
                    "time": 126.7498732499992,
                    "velocity": 0.6377952755905512,
                    "duration": 0.10714274999999418
                },
                {
                    "name": "E4",
                    "midi": 64,
                    "time": 126.85701599999919,
                    "velocity": 0.5354330708661418,
                    "duration": 0.8571419999999961
                },
                {
                    "name": "B3",
                    "midi": 59,
                    "time": 126.85701599999919,
                    "velocity": 0.5354330708661418,
                    "duration": 0.8571419999999961
                },
                {
                    "name": "B4",
                    "midi": 71,
                    "time": 126.85701599999919,
                    "velocity": 0.6929133858267716,
                    "duration": 0.8571419999999961
                },
                {
                    "name": "A3",
                    "midi": 57,
                    "time": 127.71415799999919,
                    "velocity": 0.49606299212598426,
                    "duration": 0.42857099999999093
                },
                {
                    "name": "A4",
                    "midi": 69,
                    "time": 127.71415799999919,
                    "velocity": 0.6377952755905512,
                    "duration": 0.42857099999999093
                },
                {
                    "name": "B4",
                    "midi": 71,
                    "time": 128.2498717499992,
                    "velocity": 0.5354330708661418,
                    "duration": 0.10714275000000839
                },
                {
                    "name": "C5",
                    "midi": 72,
                    "time": 128.3570144999992,
                    "velocity": 0.5433070866141733,
                    "duration": 0.10714275000000839
                },
                {
                    "name": "D5",
                    "midi": 74,
                    "time": 128.4641572499992,
                    "velocity": 0.5196850393700787,
                    "duration": 0.10714275000000839
                },
                {
                    "name": "E5",
                    "midi": 76,
                    "time": 128.5712999999992,
                    "velocity": 0.5984251968503937,
                    "duration": 0.10714275000000839
                },
                {
                    "name": "C5",
                    "midi": 72,
                    "time": 128.67844274999922,
                    "velocity": 0.5039370078740157,
                    "duration": 0.10714275000000839
                },
                {
                    "name": "A4",
                    "midi": 69,
                    "time": 128.78558549999923,
                    "velocity": 0.5039370078740157,
                    "duration": 0.16071412499999838
                },
                {
                    "name": "E5",
                    "midi": 76,
                    "time": 129.10701374999923,
                    "velocity": 0.5511811023622047,
                    "duration": 0.10714275000000839
                },
                {
                    "name": "C5",
                    "midi": 72,
                    "time": 129.21415649999923,
                    "velocity": 0.5433070866141733,
                    "duration": 0.10714275000000839
                },
                {
                    "name": "A4",
                    "midi": 69,
                    "time": 129.32129924999924,
                    "velocity": 0.5433070866141733,
                    "duration": 0.10714275000000839
                },
                {
                    "name": "F5",
                    "midi": 77,
                    "time": 129.42844199999925,
                    "velocity": 0.5984251968503937,
                    "duration": 0.10714275000000839
                },
                {
                    "name": "D5",
                    "midi": 74,
                    "time": 129.53558474999926,
                    "velocity": 0.5039370078740157,
                    "duration": 0.10714275000000839
                },
                {
                    "name": "A4",
                    "midi": 69,
                    "time": 129.64272749999927,
                    "velocity": 0.5039370078740157,
                    "duration": 0.16071412499999838
                },
                {
                    "name": "F5",
                    "midi": 77,
                    "time": 129.96415574999926,
                    "velocity": 0.5354330708661418,
                    "duration": 0.10714275000000839
                },
                {
                    "name": "D5",
                    "midi": 74,
                    "time": 130.07129849999927,
                    "velocity": 0.5354330708661418,
                    "duration": 0.10714275000000839
                },
                {
                    "name": "A4",
                    "midi": 69,
                    "time": 130.17844124999928,
                    "velocity": 0.5354330708661418,
                    "duration": 0.10714275000000839
                },
                {
                    "name": "D5",
                    "midi": 74,
                    "time": 130.2855839999993,
                    "velocity": 0.5984251968503937,
                    "duration": 0.10714275000000839
                },
                {
                    "name": "B4",
                    "midi": 71,
                    "time": 130.3927267499993,
                    "velocity": 0.5039370078740157,
                    "duration": 0.10714275000000839
                },
                {
                    "name": "G#4",
                    "midi": 68,
                    "time": 130.4998694999993,
                    "velocity": 0.5039370078740157,
                    "duration": 0.16071412499999838
                },
                {
                    "name": "D5",
                    "midi": 74,
                    "time": 130.8212977499993,
                    "velocity": 0.5039370078740157,
                    "duration": 0.10714275000000839
                },
                {
                    "name": "B4",
                    "midi": 71,
                    "time": 130.9284404999993,
                    "velocity": 0.5039370078740157,
                    "duration": 0.10714275000000839
                },
                {
                    "name": "G#4",
                    "midi": 68,
                    "time": 131.03558324999932,
                    "velocity": 0.5039370078740157,
                    "duration": 0.10714275000000839
                },
                {
                    "name": "E5",
                    "midi": 76,
                    "time": 131.14272599999933,
                    "velocity": 0.5905511811023622,
                    "duration": 0.10714275000000839
                },
                {
                    "name": "C5",
                    "midi": 72,
                    "time": 131.24986874999934,
                    "velocity": 0.4881889763779528,
                    "duration": 0.10714275000000839
                },
                {
                    "name": "A4",
                    "midi": 69,
                    "time": 131.35701149999935,
                    "velocity": 0.49606299212598426,
                    "duration": 0.16071412499999838
                },
                {
                    "name": "B4",
                    "midi": 71,
                    "time": 131.67843974999934,
                    "velocity": 0.3700787401574803,
                    "duration": 0.10714275000000839
                },
                {
                    "name": "C5",
                    "midi": 72,
                    "time": 131.78558249999935,
                    "velocity": 0.3700787401574803,
                    "duration": 0.10714275000000839
                },
                {
                    "name": "D5",
                    "midi": 74,
                    "time": 131.89272524999936,
                    "velocity": 0.3779527559055118,
                    "duration": 0.10714275000000839
                },
                {
                    "name": "E5",
                    "midi": 76,
                    "time": 131.99986799999937,
                    "velocity": 0.44881889763779526,
                    "duration": 0.10714275000000839
                },
                {
                    "name": "C#5",
                    "midi": 73,
                    "time": 132.10701074999938,
                    "velocity": 0.36220472440944884,
                    "duration": 0.10714275000000839
                },
                {
                    "name": "A4",
                    "midi": 69,
                    "time": 132.21415349999938,
                    "velocity": 0.36220472440944884,
                    "duration": 0.16071412499999838
                },
                {
                    "name": "E5",
                    "midi": 76,
                    "time": 132.53558174999938,
                    "velocity": 0.3464566929133858,
                    "duration": 0.10714275000000839
                },
                {
                    "name": "C#5",
                    "midi": 73,
                    "time": 132.6427244999994,
                    "velocity": 0.3464566929133858,
                    "duration": 0.10714275000000839
                },
                {
                    "name": "A4",
                    "midi": 69,
                    "time": 132.7498672499994,
                    "velocity": 0.3464566929133858,
                    "duration": 0.10714275000000839
                },
                {
                    "name": "F5",
                    "midi": 77,
                    "time": 132.8570099999994,
                    "velocity": 0.4094488188976378,
                    "duration": 0.10714275000000839
                },
                {
                    "name": "D5",
                    "midi": 74,
                    "time": 132.9641527499994,
                    "velocity": 0.33070866141732286,
                    "duration": 0.10714275000000839
                },
                {
                    "name": "A4",
                    "midi": 69,
                    "time": 133.07129549999942,
                    "velocity": 0.33070866141732286,
                    "duration": 0.16071412499999838
                },
                {
                    "name": "F5",
                    "midi": 77,
                    "time": 133.39272374999942,
                    "velocity": 0.3464566929133858,
                    "duration": 0.10714275000000839
                },
                {
                    "name": "D5",
                    "midi": 74,
                    "time": 133.49986649999943,
                    "velocity": 0.3464566929133858,
                    "duration": 0.10714275000000839
                },
                {
                    "name": "A4",
                    "midi": 69,
                    "time": 133.60700924999944,
                    "velocity": 0.3464566929133858,
                    "duration": 0.10714275000000839
                },
                {
                    "name": "D5",
                    "midi": 74,
                    "time": 133.71415199999944,
                    "velocity": 0.3937007874015748,
                    "duration": 0.10714275000000839
                },
                {
                    "name": "B4",
                    "midi": 71,
                    "time": 133.82129474999945,
                    "velocity": 0.33070866141732286,
                    "duration": 0.10714275000000839
                },
                {
                    "name": "G#4",
                    "midi": 68,
                    "time": 133.92843749999946,
                    "velocity": 0.33070866141732286,
                    "duration": 0.16071412499999838
                },
                {
                    "name": "D5",
                    "midi": 74,
                    "time": 134.24986574999946,
                    "velocity": 0.33858267716535434,
                    "duration": 0.10714275000000839
                },
                {
                    "name": "B4",
                    "midi": 71,
                    "time": 134.35700849999947,
                    "velocity": 0.33858267716535434,
                    "duration": 0.10714275000000839
                },
                {
                    "name": "G#4",
                    "midi": 68,
                    "time": 134.46415124999947,
                    "velocity": 0.33858267716535434,
                    "duration": 0.10714275000000839
                },
                {
                    "name": "E5",
                    "midi": 76,
                    "time": 134.57129399999948,
                    "velocity": 0.3858267716535433,
                    "duration": 0.10714275000000839
                },
                {
                    "name": "C5",
                    "midi": 72,
                    "time": 134.6784367499995,
                    "velocity": 0.3228346456692913,
                    "duration": 0.10714275000000839
                },
                {
                    "name": "A4",
                    "midi": 69,
                    "time": 134.7855794999995,
                    "velocity": 0.3228346456692913,
                    "duration": 0.16071412499999838
                },
                {
                    "name": "D5",
                    "midi": 74,
                    "time": 135.1070077499995,
                    "velocity": 0.33858267716535434,
                    "duration": 0.10714275000000839
                },
                {
                    "name": "B4",
                    "midi": 71,
                    "time": 135.2141504999995,
                    "velocity": 0.33858267716535434,
                    "duration": 0.10714275000000839
                },
                {
                    "name": "G#4",
                    "midi": 68,
                    "time": 135.3212932499995,
                    "velocity": 0.33858267716535434,
                    "duration": 0.10714275000000839
                },
                {
                    "name": "E5",
                    "midi": 76,
                    "time": 135.42843599999952,
                    "velocity": 0.4094488188976378,
                    "duration": 0.10714275000000839
                },
                {
                    "name": "C5",
                    "midi": 72,
                    "time": 135.53557874999953,
                    "velocity": 0.33858267716535434,
                    "duration": 0.10714275000000839
                },
                {
                    "name": "A4",
                    "midi": 69,
                    "time": 135.64272149999954,
                    "velocity": 0.33858267716535434,
                    "duration": 0.16071412499999838
                },
                {
                    "name": "D5",
                    "midi": 74,
                    "time": 135.96414974999954,
                    "velocity": 0.30708661417322836,
                    "duration": 0.10714275000000839
                },
                {
                    "name": "B4",
                    "midi": 71,
                    "time": 136.07129249999954,
                    "velocity": 0.30708661417322836,
                    "duration": 0.10714275000000839
                },
                {
                    "name": "G#4",
                    "midi": 68,
                    "time": 136.17843524999955,
                    "velocity": 0.30708661417322836,
                    "duration": 0.10714275000000839
                },
                {
                    "name": "E5",
                    "midi": 76,
                    "time": 136.28557799999956,
                    "velocity": 0.3700787401574803,
                    "duration": 0.10714275000000839
                },
                {
                    "name": "C5",
                    "midi": 72,
                    "time": 136.39272074999957,
                    "velocity": 0.30708661417322836,
                    "duration": 0.10714275000000839
                },
                {
                    "name": "A4",
                    "midi": 69,
                    "time": 136.49986349999958,
                    "velocity": 0.2992125984251969,
                    "duration": 0.10714275000000839
                },
                {
                    "name": "D5",
                    "midi": 74,
                    "time": 136.60700624999959,
                    "velocity": 0.2992125984251969,
                    "duration": 0.10714275000000839
                },
                {
                    "name": "B4",
                    "midi": 71,
                    "time": 136.7141489999996,
                    "velocity": 0.2992125984251969,
                    "duration": 0.10714275000000839
                },
                {
                    "name": "G#4",
                    "midi": 68,
                    "time": 136.8212917499996,
                    "velocity": 0.2992125984251969,
                    "duration": 0.10714275000000839
                },
                {
                    "name": "E5",
                    "midi": 76,
                    "time": 136.9284344999996,
                    "velocity": 0.36220472440944884,
                    "duration": 0.10714275000000839
                },
                {
                    "name": "C5",
                    "midi": 72,
                    "time": 137.03557724999962,
                    "velocity": 0.3228346456692913,
                    "duration": 0.10714275000000839
                },
                {
                    "name": "A4",
                    "midi": 69,
                    "time": 137.14271999999963,
                    "velocity": 0.2992125984251969,
                    "duration": 0.10714275000000839
                },
                {
                    "name": "D5",
                    "midi": 74,
                    "time": 137.24986274999964,
                    "velocity": 0.2992125984251969,
                    "duration": 0.10714275000000839
                },
                {
                    "name": "B4",
                    "midi": 71,
                    "time": 137.35700549999964,
                    "velocity": 0.2992125984251969,
                    "duration": 0.10714275000000839
                },
                {
                    "name": "G#4",
                    "midi": 68,
                    "time": 137.46414824999965,
                    "velocity": 0.2992125984251969,
                    "duration": 0.10714275000000839
                },
                {
                    "name": "E5",
                    "midi": 76,
                    "time": 137.57129099999966,
                    "velocity": 0.3543307086614173,
                    "duration": 0.10714275000000839
                },
                {
                    "name": "C5",
                    "midi": 72,
                    "time": 137.67843374999967,
                    "velocity": 0.2992125984251969,
                    "duration": 0.10714275000000839
                },
                {
                    "name": "A4",
                    "midi": 69,
                    "time": 137.78557649999968,
                    "velocity": 0.2992125984251969,
                    "duration": 0.10714275000000839
                },
                {
                    "name": "D5",
                    "midi": 74,
                    "time": 137.8927192499997,
                    "velocity": 0.2992125984251969,
                    "duration": 0.10714275000000839
                },
                {
                    "name": "B4",
                    "midi": 71,
                    "time": 137.9998619999997,
                    "velocity": 0.2992125984251969,
                    "duration": 0.10714275000000839
                },
                {
                    "name": "G#4",
                    "midi": 68,
                    "time": 138.1070047499997,
                    "velocity": 0.29133858267716534,
                    "duration": 0.10714275000000839
                },
                {
                    "name": "E5",
                    "midi": 76,
                    "time": 138.2141474999997,
                    "velocity": 0.3464566929133858,
                    "duration": 0.10714275000000839
                },
                {
                    "name": "C5",
                    "midi": 72,
                    "time": 138.32129024999972,
                    "velocity": 0.29133858267716534,
                    "duration": 0.10714275000000839
                },
                {
                    "name": "A4",
                    "midi": 69,
                    "time": 138.42843299999973,
                    "velocity": 0.29133858267716534,
                    "duration": 0.10714275000000839
                },
                {
                    "name": "D5",
                    "midi": 74,
                    "time": 138.53557574999974,
                    "velocity": 0.29133858267716534,
                    "duration": 0.10714275000000839
                },
                {
                    "name": "B4",
                    "midi": 71,
                    "time": 138.64271849999975,
                    "velocity": 0.29133858267716534,
                    "duration": 0.10714275000000839
                },
                {
                    "name": "G#4",
                    "midi": 68,
                    "time": 138.74986124999975,
                    "velocity": 0.29133858267716534,
                    "duration": 0.10714275000000839
                },
                {
                    "name": "E5",
                    "midi": 76,
                    "time": 138.85700399999976,
                    "velocity": 0.3228346456692913,
                    "duration": 0.10714275000000839
                },
                {
                    "name": "C5",
                    "midi": 72,
                    "time": 138.96414674999977,
                    "velocity": 0.2755905511811024,
                    "duration": 0.10714275000000839
                },
                {
                    "name": "A4",
                    "midi": 69,
                    "time": 139.07128949999978,
                    "velocity": 0.2755905511811024,
                    "duration": 0.10714275000000839
                },
                {
                    "name": "E5",
                    "midi": 76,
                    "time": 139.1784322499998,
                    "velocity": 0.2755905511811024,
                    "duration": 0.10714275000000839
                },
                {
                    "name": "C5",
                    "midi": 72,
                    "time": 139.2855749999998,
                    "velocity": 0.2755905511811024,
                    "duration": 0.10714275000000839
                },
                {
                    "name": "A4",
                    "midi": 69,
                    "time": 139.3927177499998,
                    "velocity": 0.2677165354330709,
                    "duration": 0.10714275000000839
                },
                {
                    "name": "E5",
                    "midi": 76,
                    "time": 139.4998604999998,
                    "velocity": 0.33070866141732286,
                    "duration": 0.10714275000000839
                },
                {
                    "name": "C5",
                    "midi": 72,
                    "time": 139.60700324999982,
                    "velocity": 0.2755905511811024,
                    "duration": 0.10714275000000839
                },
                {
                    "name": "A4",
                    "midi": 69,
                    "time": 139.71414599999983,
                    "velocity": 0.2755905511811024,
                    "duration": 0.10714275000000839
                },
                {
                    "name": "E5",
                    "midi": 76,
                    "time": 139.82128874999984,
                    "velocity": 0.2755905511811024,
                    "duration": 0.10714275000000839
                },
                {
                    "name": "C5",
                    "midi": 72,
                    "time": 139.92843149999985,
                    "velocity": 0.28346456692913385,
                    "duration": 0.10714275000000839
                },
                {
                    "name": "A4",
                    "midi": 69,
                    "time": 140.03557424999985,
                    "velocity": 0.28346456692913385,
                    "duration": 0.10714275000000839
                },
                {
                    "name": "E5",
                    "midi": 76,
                    "time": 140.14271699999986,
                    "velocity": 0.3228346456692913,
                    "duration": 0.10714275000000839
                },
                {
                    "name": "C5",
                    "midi": 72,
                    "time": 140.24985974999987,
                    "velocity": 0.28346456692913385,
                    "duration": 0.10714275000000839
                },
                {
                    "name": "A4",
                    "midi": 69,
                    "time": 140.35700249999988,
                    "velocity": 0.28346456692913385,
                    "duration": 0.10714275000000839
                },
                {
                    "name": "E5",
                    "midi": 76,
                    "time": 140.4641452499999,
                    "velocity": 0.28346456692913385,
                    "duration": 0.10714275000000839
                },
                {
                    "name": "C5",
                    "midi": 72,
                    "time": 140.5712879999999,
                    "velocity": 0.28346456692913385,
                    "duration": 0.10714275000000839
                },
                {
                    "name": "A4",
                    "midi": 69,
                    "time": 140.6784307499999,
                    "velocity": 0.2677165354330709,
                    "duration": 0.10714275000000839
                },
                {
                    "name": "E5",
                    "midi": 76,
                    "time": 140.7855734999999,
                    "velocity": 0.30708661417322836,
                    "duration": 0.10714275000000839
                },
                {
                    "name": "C5",
                    "midi": 72,
                    "time": 140.89271624999992,
                    "velocity": 0.25984251968503935,
                    "duration": 0.10714275000000839
                },
                {
                    "name": "A4",
                    "midi": 69,
                    "time": 140.99985899999993,
                    "velocity": 0.25984251968503935,
                    "duration": 0.10714275000000839
                },
                {
                    "name": "E5",
                    "midi": 76,
                    "time": 141.10700174999994,
                    "velocity": 0.25984251968503935,
                    "duration": 0.10714275000000839
                },
                {
                    "name": "C5",
                    "midi": 72,
                    "time": 141.21414449999995,
                    "velocity": 0.25984251968503935,
                    "duration": 0.10714275000000839
                },
                {
                    "name": "A4",
                    "midi": 69,
                    "time": 141.32128724999995,
                    "velocity": 0.25984251968503935,
                    "duration": 0.10714275000000839
                },
                {
                    "name": "E5",
                    "midi": 76,
                    "time": 141.42842999999996,
                    "velocity": 0.2992125984251969,
                    "duration": 0.8571420000000103
                },
                {
                    "name": "C5",
                    "midi": 72,
                    "time": 142.28557199999997,
                    "velocity": 0.2755905511811024,
                    "duration": 0.42857100000000514
                },
                {
                    "name": "A4",
                    "midi": 69,
                    "time": 142.71414299999998,
                    "velocity": 0.2755905511811024,
                    "duration": 1.285712999999987
                }
            ],
            "controlChanges": {
                "7": [
                    {
                        "number": 7,
                        "time": 0,
                        "value": 1
                    }
                ],
                "10": [
                    {
                        "number": 10,
                        "time": 0,
                        "value": 0.5039370078740157
                    }
                ],
                "91": [
                    {
                        "number": 91,
                        "time": 0,
                        "value": 1
                    }
                ]
            },
            "id": 1,
            "name": "Piano right",
            "instrumentNumber": 0,
            "instrument": "acoustic grand piano",
            "instrumentFamily": "piano",
            "channelNumber": 0,
            "isPercussion": false
        },
        {
            "startTime": 2.142855,
            "duration": 143.9998559999996,
            "length": 776,
            "notes": [
                {
                    "name": "E4",
                    "midi": 64,
                    "time": 2.142855,
                    "velocity": 0.2125984251968504,
                    "duration": 0.4285709999999998
                },
                {
                    "name": "C4",
                    "midi": 60,
                    "time": 2.142855,
                    "velocity": 0.18110236220472442,
                    "duration": 0.4285709999999998
                },
                {
                    "name": "A3",
                    "midi": 57,
                    "time": 2.142855,
                    "velocity": 0.18110236220472442,
                    "duration": 0.4285709999999998
                },
                {
                    "name": "A3",
                    "midi": 57,
                    "time": 2.9999969999999996,
                    "velocity": 0.18110236220472442,
                    "duration": 0.4285709999999998
                },
                {
                    "name": "D4",
                    "midi": 62,
                    "time": 2.9999969999999996,
                    "velocity": 0.18110236220472442,
                    "duration": 0.4285709999999998
                },
                {
                    "name": "F4",
                    "midi": 65,
                    "time": 2.9999969999999996,
                    "velocity": 0.2125984251968504,
                    "duration": 0.4285709999999998
                },
                {
                    "name": "D4",
                    "midi": 62,
                    "time": 3.857138999999999,
                    "velocity": 0.2125984251968504,
                    "duration": 0.4285709999999998
                },
                {
                    "name": "B3",
                    "midi": 59,
                    "time": 3.857138999999999,
                    "velocity": 0.18110236220472442,
                    "duration": 0.4285709999999998
                },
                {
                    "name": "A3",
                    "midi": 57,
                    "time": 3.857138999999999,
                    "velocity": 0.18110236220472442,
                    "duration": 0.4285709999999998
                },
                {
                    "name": "E4",
                    "midi": 64,
                    "time": 4.714280999999999,
                    "velocity": 0.2125984251968504,
                    "duration": 0.4285709999999998
                },
                {
                    "name": "C4",
                    "midi": 60,
                    "time": 4.714280999999999,
                    "velocity": 0.18110236220472442,
                    "duration": 0.4285709999999998
                },
                {
                    "name": "A3",
                    "midi": 57,
                    "time": 4.714280999999999,
                    "velocity": 0.18110236220472442,
                    "duration": 0.4285709999999998
                },
                {
                    "name": "E4",
                    "midi": 64,
                    "time": 5.5714229999999985,
                    "velocity": 0.2440944881889764,
                    "duration": 0.4285709999999998
                },
                {
                    "name": "C4",
                    "midi": 60,
                    "time": 5.5714229999999985,
                    "velocity": 0.1968503937007874,
                    "duration": 0.4285709999999998
                },
                {
                    "name": "A3",
                    "midi": 57,
                    "time": 5.5714229999999985,
                    "velocity": 0.1968503937007874,
                    "duration": 0.4285709999999998
                },
                {
                    "name": "A3",
                    "midi": 57,
                    "time": 6.428564999999998,
                    "velocity": 0.2125984251968504,
                    "duration": 0.4285709999999998
                },
                {
                    "name": "D4",
                    "midi": 62,
                    "time": 6.428564999999998,
                    "velocity": 0.2125984251968504,
                    "duration": 0.4285709999999998
                },
                {
                    "name": "F4",
                    "midi": 65,
                    "time": 6.428564999999998,
                    "velocity": 0.2677165354330709,
                    "duration": 0.4285709999999998
                },
                {
                    "name": "D4",
                    "midi": 62,
                    "time": 7.285706999999998,
                    "velocity": 0.28346456692913385,
                    "duration": 0.4285709999999998
                },
                {
                    "name": "B3",
                    "midi": 59,
                    "time": 7.285706999999998,
                    "velocity": 0.2283464566929134,
                    "duration": 0.4285709999999998
                },
                {
                    "name": "A3",
                    "midi": 57,
                    "time": 7.285706999999998,
                    "velocity": 0.2283464566929134,
                    "duration": 0.4285709999999998
                },
                {
                    "name": "C4",
                    "midi": 60,
                    "time": 7.928563499999997,
                    "velocity": 0.2440944881889764,
                    "duration": 0.16071412500000015
                },
                {
                    "name": "A3",
                    "midi": 57,
                    "time": 7.928563499999997,
                    "velocity": 0.2440944881889764,
                    "duration": 0.16071412500000015
                },
                {
                    "name": "E4",
                    "midi": 64,
                    "time": 7.928563499999997,
                    "velocity": 0.2992125984251969,
                    "duration": 0.16071412500000015
                },
                {
                    "name": "F4",
                    "midi": 65,
                    "time": 8.142848999999998,
                    "velocity": 0.2992125984251969,
                    "duration": 0.4285709999999998
                },
                {
                    "name": "D4",
                    "midi": 62,
                    "time": 8.142848999999998,
                    "velocity": 0.2440944881889764,
                    "duration": 0.4285709999999998
                },
                {
                    "name": "A3",
                    "midi": 57,
                    "time": 8.142848999999998,
                    "velocity": 0.2440944881889764,
                    "duration": 0.4285709999999998
                },
                {
                    "name": "A3",
                    "midi": 57,
                    "time": 8.785705499999999,
                    "velocity": 0.2677165354330709,
                    "duration": 0.16071412500000015
                },
                {
                    "name": "C4",
                    "midi": 60,
                    "time": 8.785705499999999,
                    "velocity": 0.2677165354330709,
                    "duration": 0.16071412500000015
                },
                {
                    "name": "E4",
                    "midi": 64,
                    "time": 8.785705499999999,
                    "velocity": 0.33070866141732286,
                    "duration": 0.16071412500000015
                },
                {
                    "name": "F4",
                    "midi": 65,
                    "time": 8.999991,
                    "velocity": 0.33070866141732286,
                    "duration": 0.4285709999999998
                },
                {
                    "name": "D4",
                    "midi": 62,
                    "time": 8.999991,
                    "velocity": 0.2677165354330709,
                    "duration": 0.4285709999999998
                },
                {
                    "name": "A3",
                    "midi": 57,
                    "time": 8.999991,
                    "velocity": 0.2677165354330709,
                    "duration": 0.4285709999999998
                },
                {
                    "name": "C4",
                    "midi": 60,
                    "time": 9.6428475,
                    "velocity": 0.29133858267716534,
                    "duration": 0.16071412500000015
                },
                {
                    "name": "A3",
                    "midi": 57,
                    "time": 9.6428475,
                    "velocity": 0.29133858267716534,
                    "duration": 0.16071412500000015
                },
                {
                    "name": "E4",
                    "midi": 64,
                    "time": 9.6428475,
                    "velocity": 0.36220472440944884,
                    "duration": 0.16071412500000015
                },
                {
                    "name": "F4",
                    "midi": 65,
                    "time": 9.857133000000001,
                    "velocity": 0.36220472440944884,
                    "duration": 0.4285709999999998
                },
                {
                    "name": "D4",
                    "midi": 62,
                    "time": 9.857133000000001,
                    "velocity": 0.29133858267716534,
                    "duration": 0.4285709999999998
                },
                {
                    "name": "A3",
                    "midi": 57,
                    "time": 9.857133000000001,
                    "velocity": 0.29133858267716534,
                    "duration": 0.4285709999999998
                },
                {
                    "name": "C4",
                    "midi": 60,
                    "time": 10.714275,
                    "velocity": 0.47244094488188976,
                    "duration": 0.10714274999999951
                },
                {
                    "name": "A3",
                    "midi": 57,
                    "time": 10.82141775,
                    "velocity": 0.4566929133858268,
                    "duration": 0.10714274999999951
                },
                {
                    "name": "E3",
                    "midi": 52,
                    "time": 10.9285605,
                    "velocity": 0.4566929133858268,
                    "duration": 0.10714274999999951
                },
                {
                    "name": "C3",
                    "midi": 48,
                    "time": 11.03570325,
                    "velocity": 0.44881889763779526,
                    "duration": 0.10714274999999951
                },
                {
                    "name": "A1",
                    "midi": 33,
                    "time": 11.142845999999999,
                    "velocity": 0.44881889763779526,
                    "duration": 0.2142855000000008
                },
                {
                    "name": "A2",
                    "midi": 45,
                    "time": 11.142845999999999,
                    "velocity": 0.44881889763779526,
                    "duration": 0.2142855000000008
                },
                {
                    "name": "E3",
                    "midi": 52,
                    "time": 11.571417,
                    "velocity": 0.4409448818897638,
                    "duration": 0.4285709999999998
                },
                {
                    "name": "C3",
                    "midi": 48,
                    "time": 11.999988,
                    "velocity": 0.4251968503937008,
                    "duration": 0.6428564999999988
                },
                {
                    "name": "A3",
                    "midi": 57,
                    "time": 11.999988,
                    "velocity": 0.4566929133858268,
                    "duration": 0.6428564999999988
                },
                {
                    "name": "E3",
                    "midi": 52,
                    "time": 12.642844499999999,
                    "velocity": 0.4094488188976378,
                    "duration": 0.2142855000000008
                },
                {
                    "name": "B3",
                    "midi": 59,
                    "time": 12.642844499999999,
                    "velocity": 0.44881889763779526,
                    "duration": 0.2142855000000008
                },
                {
                    "name": "A3",
                    "midi": 57,
                    "time": 12.85713,
                    "velocity": 0.4251968503937008,
                    "duration": 0.4285709999999998
                },
                {
                    "name": "C4",
                    "midi": 60,
                    "time": 12.85713,
                    "velocity": 0.4566929133858268,
                    "duration": 0.4285709999999998
                },
                {
                    "name": "B3",
                    "midi": 59,
                    "time": 13.285701,
                    "velocity": 0.4251968503937008,
                    "duration": 0.4285709999999998
                },
                {
                    "name": "D4",
                    "midi": 62,
                    "time": 13.285701,
                    "velocity": 0.4566929133858268,
                    "duration": 0.4285709999999998
                },
                {
                    "name": "C4",
                    "midi": 60,
                    "time": 13.714272,
                    "velocity": 0.4251968503937008,
                    "duration": 0.4285709999999998
                },
                {
                    "name": "E4",
                    "midi": 64,
                    "time": 13.714272,
                    "velocity": 0.4566929133858268,
                    "duration": 0.4285709999999998
                },
                {
                    "name": "E4",
                    "midi": 64,
                    "time": 14.142843,
                    "velocity": 0.44881889763779526,
                    "duration": 0.8571419999999996
                },
                {
                    "name": "G4",
                    "midi": 67,
                    "time": 14.142843,
                    "velocity": 0.5118110236220472,
                    "duration": 0.8571419999999996
                },
                {
                    "name": "F4",
                    "midi": 65,
                    "time": 14.999984999999999,
                    "velocity": 0.49606299212598426,
                    "duration": 0.3214282500000003
                },
                {
                    "name": "D4",
                    "midi": 62,
                    "time": 14.999984999999999,
                    "velocity": 0.4409448818897638,
                    "duration": 0.3214282500000003
                },
                {
                    "name": "C4",
                    "midi": 60,
                    "time": 15.321413249999999,
                    "velocity": 0.4251968503937008,
                    "duration": 0.10178561250000051
                },
                {
                    "name": "E4",
                    "midi": 64,
                    "time": 15.321413249999999,
                    "velocity": 0.4566929133858268,
                    "duration": 0.10178561250000051
                },
                {
                    "name": "C4",
                    "midi": 60,
                    "time": 15.428556,
                    "velocity": 0.4409448818897638,
                    "duration": 0.4285709999999998
                },
                {
                    "name": "E4",
                    "midi": 64,
                    "time": 15.428556,
                    "velocity": 0.49606299212598426,
                    "duration": 0.4285709999999998
                },
                {
                    "name": "B3",
                    "midi": 59,
                    "time": 15.857127,
                    "velocity": 0.4251968503937008,
                    "duration": 0.3214282499999985
                },
                {
                    "name": "D4",
                    "midi": 62,
                    "time": 15.857127,
                    "velocity": 0.4566929133858268,
                    "duration": 0.3214282499999985
                },
                {
                    "name": "A3",
                    "midi": 57,
                    "time": 16.17855525,
                    "velocity": 0.3937007874015748,
                    "duration": 0.10178561249999873
                },
                {
                    "name": "C4",
                    "midi": 60,
                    "time": 16.17855525,
                    "velocity": 0.4409448818897638,
                    "duration": 0.10178561249999873
                },
                {
                    "name": "A3",
                    "midi": 57,
                    "time": 16.285697999999996,
                    "velocity": 0.4251968503937008,
                    "duration": 0.4285710000000016
                },
                {
                    "name": "C4",
                    "midi": 60,
                    "time": 16.285697999999996,
                    "velocity": 0.4566929133858268,
                    "duration": 0.4285710000000016
                },
                {
                    "name": "D3",
                    "midi": 50,
                    "time": 16.714268999999998,
                    "velocity": 0.4251968503937008,
                    "duration": 0.4285710000000016
                },
                {
                    "name": "C4",
                    "midi": 60,
                    "time": 16.714268999999998,
                    "velocity": 0.4409448818897638,
                    "duration": 0.3214282500000003
                },
                {
                    "name": "E4",
                    "midi": 64,
                    "time": 16.714268999999998,
                    "velocity": 0.49606299212598426,
                    "duration": 0.3214282500000003
                },
                {
                    "name": "D4",
                    "midi": 62,
                    "time": 17.03569725,
                    "velocity": 0.4409448818897638,
                    "duration": 0.10714275000000129
                },
                {
                    "name": "B3",
                    "midi": 59,
                    "time": 17.03569725,
                    "velocity": 0.3937007874015748,
                    "duration": 0.10714275000000129
                },
                {
                    "name": "E3",
                    "midi": 52,
                    "time": 17.14284,
                    "velocity": 0.3858267716535433,
                    "duration": 1.0714274999999986
                },
                {
                    "name": "C4",
                    "midi": 60,
                    "time": 17.14284,
                    "velocity": 0.4409448818897638,
                    "duration": 0.8571419999999996
                },
                {
                    "name": "A3",
                    "midi": 57,
                    "time": 17.14284,
                    "velocity": 0.3858267716535433,
                    "duration": 0.8571419999999996
                },
                {
                    "name": "G#3",
                    "midi": 56,
                    "time": 17.999982,
                    "velocity": 0.3779527559055118,
                    "duration": 0.21428549999999902
                },
                {
                    "name": "B3",
                    "midi": 59,
                    "time": 17.999982,
                    "velocity": 0.4330708661417323,
                    "duration": 0.21428549999999902
                },
                {
                    "name": "E3",
                    "midi": 52,
                    "time": 18.428552999999997,
                    "velocity": 0.4409448818897638,
                    "duration": 0.4285710000000016
                },
                {
                    "name": "A2",
                    "midi": 45,
                    "time": 18.857124,
                    "velocity": 0.4251968503937008,
                    "duration": 0.6428565000000006
                },
                {
                    "name": "C3",
                    "midi": 48,
                    "time": 18.857124,
                    "velocity": 0.4251968503937008,
                    "duration": 0.6428565000000006
                },
                {
                    "name": "A3",
                    "midi": 57,
                    "time": 18.857124,
                    "velocity": 0.4566929133858268,
                    "duration": 0.6428565000000006
                },
                {
                    "name": "E3",
                    "midi": 52,
                    "time": 19.4999805,
                    "velocity": 0.4094488188976378,
                    "duration": 0.21428549999999902
                },
                {
                    "name": "B3",
                    "midi": 59,
                    "time": 19.4999805,
                    "velocity": 0.44881889763779526,
                    "duration": 0.21428549999999902
                },
                {
                    "name": "A3",
                    "midi": 57,
                    "time": 19.714266,
                    "velocity": 0.4251968503937008,
                    "duration": 0.4285710000000016
                },
                {
                    "name": "C4",
                    "midi": 60,
                    "time": 19.714266,
                    "velocity": 0.4566929133858268,
                    "duration": 0.4285710000000016
                },
                {
                    "name": "B3",
                    "midi": 59,
                    "time": 20.142837,
                    "velocity": 0.4251968503937008,
                    "duration": 0.4285710000000016
                },
                {
                    "name": "D4",
                    "midi": 62,
                    "time": 20.142837,
                    "velocity": 0.4566929133858268,
                    "duration": 0.4285710000000016
                },
                {
                    "name": "C4",
                    "midi": 60,
                    "time": 20.571408,
                    "velocity": 0.4251968503937008,
                    "duration": 0.4071424499999985
                },
                {
                    "name": "E4",
                    "midi": 64,
                    "time": 20.571408,
                    "velocity": 0.4566929133858268,
                    "duration": 0.4071424499999985
                },
                {
                    "name": "E3",
                    "midi": 52,
                    "time": 20.999979,
                    "velocity": 0.5275590551181102,
                    "duration": 0.10714275000000129
                },
                {
                    "name": "E4",
                    "midi": 64,
                    "time": 20.999979,
                    "velocity": 0.5275590551181102,
                    "duration": 0.8571420000000067
                },
                {
                    "name": "F3",
                    "midi": 53,
                    "time": 21.214264500000002,
                    "velocity": 0.5433070866141733,
                    "duration": 0.10714275000000129
                },
                {
                    "name": "G3",
                    "midi": 55,
                    "time": 21.428550000000005,
                    "velocity": 0.5905511811023622,
                    "duration": 1.2857130000000012
                },
                {
                    "name": "F4",
                    "midi": 65,
                    "time": 21.857121000000006,
                    "velocity": 0.49606299212598426,
                    "duration": 0.3214282500000003
                },
                {
                    "name": "D4",
                    "midi": 62,
                    "time": 21.857121000000006,
                    "velocity": 0.4409448818897638,
                    "duration": 0.3214282500000003
                },
                {
                    "name": "C4",
                    "midi": 60,
                    "time": 22.178549250000007,
                    "velocity": 0.4251968503937008,
                    "duration": 0.10178561249999873
                },
                {
                    "name": "E4",
                    "midi": 64,
                    "time": 22.178549250000007,
                    "velocity": 0.4566929133858268,
                    "duration": 0.10178561249999873
                },
                {
                    "name": "C4",
                    "midi": 60,
                    "time": 22.285692000000004,
                    "velocity": 0.4409448818897638,
                    "duration": 0.4285710000000016
                },
                {
                    "name": "E4",
                    "midi": 64,
                    "time": 22.285692000000004,
                    "velocity": 0.49606299212598426,
                    "duration": 0.4285710000000016
                },
                {
                    "name": "G3",
                    "midi": 55,
                    "time": 22.714263000000006,
                    "velocity": 0.4251968503937008,
                    "duration": 0.42857099999999804
                },
                {
                    "name": "B3",
                    "midi": 59,
                    "time": 22.714263000000006,
                    "velocity": 0.4251968503937008,
                    "duration": 0.3214282500000003
                },
                {
                    "name": "D4",
                    "midi": 62,
                    "time": 22.714263000000006,
                    "velocity": 0.4566929133858268,
                    "duration": 0.3214282500000003
                },
                {
                    "name": "A3",
                    "midi": 57,
                    "time": 23.035691250000006,
                    "velocity": 0.3937007874015748,
                    "duration": 0.10178561249999873
                },
                {
                    "name": "C4",
                    "midi": 60,
                    "time": 23.035691250000006,
                    "velocity": 0.4409448818897638,
                    "duration": 0.10178561249999873
                },
                {
                    "name": "A3",
                    "midi": 57,
                    "time": 23.142834000000004,
                    "velocity": 0.4251968503937008,
                    "duration": 0.4285710000000016
                },
                {
                    "name": "C4",
                    "midi": 60,
                    "time": 23.142834000000004,
                    "velocity": 0.4566929133858268,
                    "duration": 0.4285710000000016
                },
                {
                    "name": "E3",
                    "midi": 52,
                    "time": 23.571405000000006,
                    "velocity": 0.4094488188976378,
                    "duration": 0.4285710000000016
                },
                {
                    "name": "G3",
                    "midi": 55,
                    "time": 23.571405000000006,
                    "velocity": 0.4094488188976378,
                    "duration": 0.4285710000000016
                },
                {
                    "name": "B3",
                    "midi": 59,
                    "time": 23.571405000000006,
                    "velocity": 0.44881889763779526,
                    "duration": 0.4285710000000016
                },
                {
                    "name": "F3",
                    "midi": 53,
                    "time": 23.999976000000007,
                    "velocity": 0.33070866141732286,
                    "duration": 0.4285710000000016
                },
                {
                    "name": "A3",
                    "midi": 57,
                    "time": 23.999976000000007,
                    "velocity": 0.3700787401574803,
                    "duration": 0.21428549999999902
                },
                {
                    "name": "G#3",
                    "midi": 56,
                    "time": 24.214261500000006,
                    "velocity": 0.3858267716535433,
                    "duration": 0.10714275000000129
                },
                {
                    "name": "E3",
                    "midi": 52,
                    "time": 24.42854700000001,
                    "velocity": 0.36220472440944884,
                    "duration": 0.10714275000000129
                },
                {
                    "name": "A3",
                    "midi": 57,
                    "time": 24.42854700000001,
                    "velocity": 0.4094488188976378,
                    "duration": 0.10714275000000129
                },
                {
                    "name": "D3",
                    "midi": 50,
                    "time": 24.64283250000001,
                    "velocity": 0.3700787401574803,
                    "duration": 0.10714275000000129
                },
                {
                    "name": "B3",
                    "midi": 59,
                    "time": 24.64283250000001,
                    "velocity": 0.4251968503937008,
                    "duration": 0.10714275000000129
                },
                {
                    "name": "C3",
                    "midi": 48,
                    "time": 24.857118000000014,
                    "velocity": 0.3779527559055118,
                    "duration": 0.10714275000000129
                },
                {
                    "name": "C4",
                    "midi": 60,
                    "time": 24.857118000000014,
                    "velocity": 0.4330708661417323,
                    "duration": 0.10714275000000129
                },
                {
                    "name": "D3",
                    "midi": 50,
                    "time": 25.071403500000017,
                    "velocity": 0.36220472440944884,
                    "duration": 0.10714275000000129
                },
                {
                    "name": "B3",
                    "midi": 59,
                    "time": 25.071403500000017,
                    "velocity": 0.41732283464566927,
                    "duration": 0.10714275000000129
                },
                {
                    "name": "E3",
                    "midi": 52,
                    "time": 25.28568900000002,
                    "velocity": 0.3543307086614173,
                    "duration": 0.10714275000000129
                },
                {
                    "name": "A3",
                    "midi": 57,
                    "time": 25.28568900000002,
                    "velocity": 0.3937007874015748,
                    "duration": 0.10714275000000129
                },
                {
                    "name": "E3",
                    "midi": 52,
                    "time": 25.60711725000002,
                    "velocity": 0.3779527559055118,
                    "duration": 0.10178561249999873
                },
                {
                    "name": "E3",
                    "midi": 52,
                    "time": 25.714260000000017,
                    "velocity": 0.4094488188976378,
                    "duration": 0.8571419999999996
                },
                {
                    "name": "A2",
                    "midi": 45,
                    "time": 26.571402000000017,
                    "velocity": 0.3779527559055118,
                    "duration": 0.21428549999999902
                },
                {
                    "name": "A3",
                    "midi": 57,
                    "time": 26.571402000000017,
                    "velocity": 0.4330708661417323,
                    "duration": 0.21428549999999902
                },
                {
                    "name": "B3",
                    "midi": 59,
                    "time": 27.857115000000015,
                    "velocity": 0.2125984251968504,
                    "duration": 0.4285710000000016
                },
                {
                    "name": "G#3",
                    "midi": 56,
                    "time": 27.857115000000015,
                    "velocity": 0.18110236220472442,
                    "duration": 0.4285710000000016
                },
                {
                    "name": "E3",
                    "midi": 52,
                    "time": 27.857115000000015,
                    "velocity": 0.18110236220472442,
                    "duration": 0.4285710000000016
                },
                {
                    "name": "E3",
                    "midi": 52,
                    "time": 28.714257000000018,
                    "velocity": 0.18110236220472442,
                    "duration": 0.4285710000000016
                },
                {
                    "name": "A3",
                    "midi": 57,
                    "time": 28.714257000000018,
                    "velocity": 0.18110236220472442,
                    "duration": 0.4285710000000016
                },
                {
                    "name": "C4",
                    "midi": 60,
                    "time": 28.714257000000018,
                    "velocity": 0.2125984251968504,
                    "duration": 0.4285710000000016
                },
                {
                    "name": "A3",
                    "midi": 57,
                    "time": 29.57139900000002,
                    "velocity": 0.2125984251968504,
                    "duration": 0.4285710000000016
                },
                {
                    "name": "F#3",
                    "midi": 54,
                    "time": 29.57139900000002,
                    "velocity": 0.18110236220472442,
                    "duration": 0.4285710000000016
                },
                {
                    "name": "E3",
                    "midi": 52,
                    "time": 29.57139900000002,
                    "velocity": 0.18110236220472442,
                    "duration": 0.4285710000000016
                },
                {
                    "name": "B3",
                    "midi": 59,
                    "time": 30.428541000000024,
                    "velocity": 0.2125984251968504,
                    "duration": 0.4285710000000016
                },
                {
                    "name": "G#3",
                    "midi": 56,
                    "time": 30.428541000000024,
                    "velocity": 0.18110236220472442,
                    "duration": 0.4285710000000016
                },
                {
                    "name": "E3",
                    "midi": 52,
                    "time": 30.428541000000024,
                    "velocity": 0.18110236220472442,
                    "duration": 0.4285710000000016
                },
                {
                    "name": "D4",
                    "midi": 62,
                    "time": 31.285683000000027,
                    "velocity": 0.2440944881889764,
                    "duration": 0.4285710000000016
                },
                {
                    "name": "B3",
                    "midi": 59,
                    "time": 31.285683000000027,
                    "velocity": 0.1968503937007874,
                    "duration": 0.4285710000000016
                },
                {
                    "name": "E3",
                    "midi": 52,
                    "time": 31.285683000000027,
                    "velocity": 0.1968503937007874,
                    "duration": 0.4285710000000016
                },
                {
                    "name": "E3",
                    "midi": 52,
                    "time": 32.14282500000003,
                    "velocity": 0.2283464566929134,
                    "duration": 0.42857099999999804
                },
                {
                    "name": "A3",
                    "midi": 57,
                    "time": 32.14282500000003,
                    "velocity": 0.2283464566929134,
                    "duration": 0.42857099999999804
                },
                {
                    "name": "C4",
                    "midi": 60,
                    "time": 32.14282500000003,
                    "velocity": 0.29133858267716534,
                    "duration": 0.42857099999999804
                },
                {
                    "name": "A3",
                    "midi": 57,
                    "time": 32.99996700000003,
                    "velocity": 0.2755905511811024,
                    "duration": 0.42857099999999804
                },
                {
                    "name": "C4",
                    "midi": 60,
                    "time": 32.99996700000003,
                    "velocity": 0.33070866141732286,
                    "duration": 0.42857099999999804
                },
                {
                    "name": "F#3",
                    "midi": 54,
                    "time": 32.99996700000003,
                    "velocity": 0.2755905511811024,
                    "duration": 0.42857099999999804
                },
                {
                    "name": "E3",
                    "midi": 52,
                    "time": 32.99996700000003,
                    "velocity": 0.2755905511811024,
                    "duration": 0.42857099999999804
                },
                {
                    "name": "E3",
                    "midi": 52,
                    "time": 33.85710900000002,
                    "velocity": 0.4409448818897638,
                    "duration": 0.21428550000000257
                },
                {
                    "name": "G#3",
                    "midi": 56,
                    "time": 33.85710900000002,
                    "velocity": 0.4409448818897638,
                    "duration": 0.21428550000000257
                },
                {
                    "name": "B3",
                    "midi": 59,
                    "time": 33.85710900000002,
                    "velocity": 0.5196850393700787,
                    "duration": 0.21428550000000257
                },
                {
                    "name": "E3",
                    "midi": 52,
                    "time": 34.071394500000025,
                    "velocity": 0.4409448818897638,
                    "duration": 0.21428550000000257
                },
                {
                    "name": "G#3",
                    "midi": 56,
                    "time": 34.28568000000003,
                    "velocity": 0.4251968503937008,
                    "duration": 0.6428565000000006
                },
                {
                    "name": "B3",
                    "midi": 59,
                    "time": 34.28568000000003,
                    "velocity": 0.4566929133858268,
                    "duration": 0.6428565000000006
                },
                {
                    "name": "A3",
                    "midi": 57,
                    "time": 34.92853650000003,
                    "velocity": 0.4094488188976378,
                    "duration": 0.21428550000000257
                },
                {
                    "name": "C4",
                    "midi": 60,
                    "time": 34.92853650000003,
                    "velocity": 0.44881889763779526,
                    "duration": 0.21428550000000257
                },
                {
                    "name": "B3",
                    "midi": 59,
                    "time": 35.14282200000003,
                    "velocity": 0.4251968503937008,
                    "duration": 0.42857099999999804
                },
                {
                    "name": "D4",
                    "midi": 62,
                    "time": 35.14282200000003,
                    "velocity": 0.4566929133858268,
                    "duration": 0.42857099999999804
                },
                {
                    "name": "A3",
                    "midi": 57,
                    "time": 35.57139300000003,
                    "velocity": 0.4251968503937008,
                    "duration": 0.42857099999999804
                },
                {
                    "name": "C4",
                    "midi": 60,
                    "time": 35.57139300000003,
                    "velocity": 0.4566929133858268,
                    "duration": 0.42857099999999804
                },
                {
                    "name": "D4",
                    "midi": 62,
                    "time": 35.99996400000003,
                    "velocity": 0.4251968503937008,
                    "duration": 0.10714275000000129
                },
                {
                    "name": "F4",
                    "midi": 65,
                    "time": 35.99996400000003,
                    "velocity": 0.4566929133858268,
                    "duration": 0.10714275000000129
                },
                {
                    "name": "C4",
                    "midi": 60,
                    "time": 36.32139225000003,
                    "velocity": 0.4251968503937008,
                    "duration": 0.08035706249999919
                },
                {
                    "name": "E4",
                    "midi": 64,
                    "time": 36.32139225000003,
                    "velocity": 0.4566929133858268,
                    "duration": 0.08035706249999919
                },
                {
                    "name": "B3",
                    "midi": 59,
                    "time": 36.42853500000003,
                    "velocity": 0.44881889763779526,
                    "duration": 0.8571420000000032
                },
                {
                    "name": "D4",
                    "midi": 62,
                    "time": 36.42853500000003,
                    "velocity": 0.5118110236220472,
                    "duration": 0.8571420000000032
                },
                {
                    "name": "F4",
                    "midi": 65,
                    "time": 37.285677000000035,
                    "velocity": 0.49606299212598426,
                    "duration": 0.42857099999999804
                },
                {
                    "name": "D4",
                    "midi": 62,
                    "time": 37.285677000000035,
                    "velocity": 0.4409448818897638,
                    "duration": 0.42857099999999804
                },
                {
                    "name": "C4",
                    "midi": 60,
                    "time": 37.71424800000003,
                    "velocity": 0.4409448818897638,
                    "duration": 0.42857099999999804
                },
                {
                    "name": "E4",
                    "midi": 64,
                    "time": 37.71424800000003,
                    "velocity": 0.49606299212598426,
                    "duration": 0.42857099999999804
                },
                {
                    "name": "A3",
                    "midi": 57,
                    "time": 38.14281900000003,
                    "velocity": 0.4251968503937008,
                    "duration": 0.42857099999999804
                },
                {
                    "name": "C4",
                    "midi": 60,
                    "time": 38.14281900000003,
                    "velocity": 0.4566929133858268,
                    "duration": 0.42857099999999804
                },
                {
                    "name": "G#3",
                    "midi": 56,
                    "time": 38.57139000000003,
                    "velocity": 0.4409448818897638,
                    "duration": 0.42857099999999804
                },
                {
                    "name": "B3",
                    "midi": 59,
                    "time": 38.57139000000003,
                    "velocity": 0.48031496062992124,
                    "duration": 0.42857099999999804
                },
                {
                    "name": "F#3",
                    "midi": 54,
                    "time": 38.99996100000003,
                    "velocity": 0.4330708661417323,
                    "duration": 0.42857099999999804
                },
                {
                    "name": "A3",
                    "midi": 57,
                    "time": 38.99996100000003,
                    "velocity": 0.47244094488188976,
                    "duration": 0.32142824999999675
                },
                {
                    "name": "B3",
                    "midi": 59,
                    "time": 39.321389250000024,
                    "velocity": 0.4409448818897638,
                    "duration": 0.10714275000000129
                },
                {
                    "name": "E3",
                    "midi": 52,
                    "time": 39.428532000000025,
                    "velocity": 0.3858267716535433,
                    "duration": 1.2857130000000012
                },
                {
                    "name": "A3",
                    "midi": 57,
                    "time": 39.428532000000025,
                    "velocity": 0.4409448818897638,
                    "duration": 0.8571420000000032
                },
                {
                    "name": "G#3",
                    "midi": 56,
                    "time": 40.28567400000003,
                    "velocity": 0.4330708661417323,
                    "duration": 0.42857099999999804
                },
                {
                    "name": "E3",
                    "midi": 52,
                    "time": 40.71424500000003,
                    "velocity": 0.4409448818897638,
                    "duration": 0.42857099999999804
                },
                {
                    "name": "G#3",
                    "midi": 56,
                    "time": 41.142816000000025,
                    "velocity": 0.4566929133858268,
                    "duration": 0.6428565000000006
                },
                {
                    "name": "A3",
                    "midi": 57,
                    "time": 41.785672500000025,
                    "velocity": 0.44881889763779526,
                    "duration": 0.21428550000000257
                },
                {
                    "name": "B3",
                    "midi": 59,
                    "time": 41.99995800000003,
                    "velocity": 0.4566929133858268,
                    "duration": 0.42857099999999804
                },
                {
                    "name": "D4",
                    "midi": 62,
                    "time": 42.428529000000026,
                    "velocity": 0.4566929133858268,
                    "duration": 0.42857099999999804
                },
                {
                    "name": "C4",
                    "midi": 60,
                    "time": 42.857100000000024,
                    "velocity": 0.4566929133858268,
                    "duration": 0.10714275000000129
                },
                {
                    "name": "B3",
                    "midi": 59,
                    "time": 43.17852825000003,
                    "velocity": 0.4566929133858268,
                    "duration": 0.08035706249999919
                },
                {
                    "name": "A3",
                    "midi": 57,
                    "time": 43.28567100000003,
                    "velocity": 0.47244094488188976,
                    "duration": 0.8571420000000032
                },
                {
                    "name": "F#3",
                    "midi": 54,
                    "time": 44.14281300000003,
                    "velocity": 0.5354330708661418,
                    "duration": 0.42857099999999804
                },
                {
                    "name": "A2",
                    "midi": 45,
                    "time": 44.14281300000003,
                    "velocity": 0.48031496062992124,
                    "duration": 0.42857099999999804
                },
                {
                    "name": "B2",
                    "midi": 47,
                    "time": 44.57138400000003,
                    "velocity": 0.48031496062992124,
                    "duration": 0.42857099999999804
                },
                {
                    "name": "G3",
                    "midi": 55,
                    "time": 44.57138400000003,
                    "velocity": 0.5354330708661418,
                    "duration": 0.42857099999999804
                },
                {
                    "name": "C3",
                    "midi": 48,
                    "time": 44.99995500000003,
                    "velocity": 0.4566929133858268,
                    "duration": 0.42857099999999804
                },
                {
                    "name": "C4",
                    "midi": 60,
                    "time": 44.99995500000003,
                    "velocity": 0.5118110236220472,
                    "duration": 0.42857099999999804
                },
                {
                    "name": "D3",
                    "midi": 50,
                    "time": 45.428526000000026,
                    "velocity": 0.4566929133858268,
                    "duration": 0.42857099999999804
                },
                {
                    "name": "B3",
                    "midi": 59,
                    "time": 45.428526000000026,
                    "velocity": 0.5118110236220472,
                    "duration": 0.42857099999999804
                },
                {
                    "name": "D3",
                    "midi": 50,
                    "time": 45.857097000000024,
                    "velocity": 0.48031496062992124,
                    "duration": 0.42857100000000514
                },
                {
                    "name": "A3",
                    "midi": 57,
                    "time": 45.857097000000024,
                    "velocity": 0.5354330708661418,
                    "duration": 0.32142825000000386
                },
                {
                    "name": "B3",
                    "midi": 59,
                    "time": 46.17852525000003,
                    "velocity": 0.4881889763779528,
                    "duration": 0.10714275000000129
                },
                {
                    "name": "D3",
                    "midi": 50,
                    "time": 46.28566800000003,
                    "velocity": 0.4330708661417323,
                    "duration": 0.8571420000000032
                },
                {
                    "name": "A3",
                    "midi": 57,
                    "time": 46.28566800000003,
                    "velocity": 0.4881889763779528,
                    "duration": 0.8571420000000032
                },
                {
                    "name": "G2",
                    "midi": 43,
                    "time": 47.14281000000003,
                    "velocity": 0.4094488188976378,
                    "duration": 0.40714245000000204
                },
                {
                    "name": "G3",
                    "midi": 55,
                    "time": 47.14281000000003,
                    "velocity": 0.4645669291338583,
                    "duration": 0.40714245000000204
                },
                {
                    "name": "F3",
                    "midi": 53,
                    "time": 47.57138100000004,
                    "velocity": 0.4881889763779528,
                    "duration": 0.42857099999999804
                },
                {
                    "name": "G3",
                    "midi": 55,
                    "time": 47.57138100000004,
                    "velocity": 0.5275590551181102,
                    "duration": 0.42857099999999804
                },
                {
                    "name": "E3",
                    "midi": 52,
                    "time": 47.999952000000036,
                    "velocity": 0.49606299212598426,
                    "duration": 1.2857130000000083
                },
                {
                    "name": "E4",
                    "midi": 64,
                    "time": 47.999952000000036,
                    "velocity": 0.5196850393700787,
                    "duration": 0.6428565000000006
                },
                {
                    "name": "D4",
                    "midi": 62,
                    "time": 48.64280850000004,
                    "velocity": 0.5039370078740157,
                    "duration": 0.21428550000000257
                },
                {
                    "name": "C4",
                    "midi": 60,
                    "time": 48.85709400000004,
                    "velocity": 0.5196850393700787,
                    "duration": 0.42857100000000514
                },
                {
                    "name": "D3",
                    "midi": 50,
                    "time": 49.285665000000044,
                    "velocity": 0.4645669291338583,
                    "duration": 0.42857099999999804
                },
                {
                    "name": "D4",
                    "midi": 62,
                    "time": 49.285665000000044,
                    "velocity": 0.5196850393700787,
                    "duration": 0.42857099999999804
                },
                {
                    "name": "G3",
                    "midi": 55,
                    "time": 49.71423600000004,
                    "velocity": 0.5196850393700787,
                    "duration": 1.0714274999999986
                },
                {
                    "name": "C4",
                    "midi": 60,
                    "time": 49.71423600000004,
                    "velocity": 0.5196850393700787,
                    "duration": 0.42857099999999804
                },
                {
                    "name": "B3",
                    "midi": 59,
                    "time": 50.14280700000004,
                    "velocity": 0.5354330708661418,
                    "duration": 0.32142824999999675
                },
                {
                    "name": "A3",
                    "midi": 57,
                    "time": 50.46423525000004,
                    "velocity": 0.5748031496062992,
                    "duration": 0.10714275000000129
                },
                {
                    "name": "B3",
                    "midi": 59,
                    "time": 50.57137800000004,
                    "velocity": 0.5196850393700787,
                    "duration": 0.42857100000000514
                },
                {
                    "name": "F3",
                    "midi": 53,
                    "time": 50.78566350000004,
                    "velocity": 0.5748031496062992,
                    "duration": 0.10714275000000129
                },
                {
                    "name": "E3",
                    "midi": 52,
                    "time": 50.99994900000004,
                    "velocity": 0.5984251968503937,
                    "duration": 0.10714275000000129
                },
                {
                    "name": "G3",
                    "midi": 55,
                    "time": 50.99994900000004,
                    "velocity": 0.5590551181102362,
                    "duration": 0.42857100000000514
                },
                {
                    "name": "D3",
                    "midi": 50,
                    "time": 51.214234500000046,
                    "velocity": 0.5748031496062992,
                    "duration": 0.10714275000000129
                },
                {
                    "name": "C3",
                    "midi": 48,
                    "time": 51.42852000000005,
                    "velocity": 0.4881889763779528,
                    "duration": 1.2857130000000083
                },
                {
                    "name": "C4",
                    "midi": 60,
                    "time": 51.42852000000005,
                    "velocity": 0.5511811023622047,
                    "duration": 0.6428565000000006
                },
                {
                    "name": "B3",
                    "midi": 59,
                    "time": 52.07137650000005,
                    "velocity": 0.49606299212598426,
                    "duration": 0.10714275000000129
                },
                {
                    "name": "A3",
                    "midi": 57,
                    "time": 52.28566200000005,
                    "velocity": 0.5039370078740157,
                    "duration": 0.10714275000000129
                },
                {
                    "name": "B3",
                    "midi": 59,
                    "time": 52.499947500000054,
                    "velocity": 0.5354330708661418,
                    "duration": 0.10714275000000129
                },
                {
                    "name": "B2",
                    "midi": 47,
                    "time": 52.71423300000006,
                    "velocity": 0.5354330708661418,
                    "duration": 0.42857100000000514
                },
                {
                    "name": "C4",
                    "midi": 60,
                    "time": 52.71423300000006,
                    "velocity": 0.5354330708661418,
                    "duration": 0.10714275000000129
                },
                {
                    "name": "B3",
                    "midi": 59,
                    "time": 52.92851850000006,
                    "velocity": 0.5196850393700787,
                    "duration": 0.10714275000000129
                },
                {
                    "name": "E3",
                    "midi": 52,
                    "time": 53.14280400000006,
                    "velocity": 0.5196850393700787,
                    "duration": 1.0714275000000058
                },
                {
                    "name": "A3",
                    "midi": 57,
                    "time": 53.14280400000006,
                    "velocity": 0.5196850393700787,
                    "duration": 0.42857099999999804
                },
                {
                    "name": "G#3",
                    "midi": 56,
                    "time": 53.57137500000006,
                    "velocity": 0.5354330708661418,
                    "duration": 0.32142825000000386
                },
                {
                    "name": "F#3",
                    "midi": 54,
                    "time": 53.892803250000064,
                    "velocity": 0.5354330708661418,
                    "duration": 0.10714275000000129
                },
                {
                    "name": "G#3",
                    "midi": 56,
                    "time": 53.999946000000065,
                    "velocity": 0.4881889763779528,
                    "duration": 0.42857100000000514
                },
                {
                    "name": "D3",
                    "midi": 50,
                    "time": 54.21423150000007,
                    "velocity": 0.5984251968503937,
                    "duration": 0.10714275000000129
                },
                {
                    "name": "C3",
                    "midi": 48,
                    "time": 54.42851700000007,
                    "velocity": 0.6220472440944882,
                    "duration": 0.10714275000000129
                },
                {
                    "name": "E3",
                    "midi": 52,
                    "time": 54.42851700000007,
                    "velocity": 0.5826771653543307,
                    "duration": 0.42857100000000514
                },
                {
                    "name": "A2",
                    "midi": 45,
                    "time": 54.64280250000007,
                    "velocity": 0.5984251968503937,
                    "duration": 0.10714275000000129
                },
                {
                    "name": "A2",
                    "midi": 45,
                    "time": 54.857088000000076,
                    "velocity": 0.4645669291338583,
                    "duration": 0.6428565000000006
                },
                {
                    "name": "C3",
                    "midi": 48,
                    "time": 54.857088000000076,
                    "velocity": 0.4645669291338583,
                    "duration": 0.6428565000000006
                },
                {
                    "name": "A3",
                    "midi": 57,
                    "time": 54.857088000000076,
                    "velocity": 0.5196850393700787,
                    "duration": 0.6428565000000006
                },
                {
                    "name": "E3",
                    "midi": 52,
                    "time": 55.499944500000076,
                    "velocity": 0.44881889763779526,
                    "duration": 0.21428550000000257
                },
                {
                    "name": "B3",
                    "midi": 59,
                    "time": 55.499944500000076,
                    "velocity": 0.5039370078740157,
                    "duration": 0.21428550000000257
                },
                {
                    "name": "A3",
                    "midi": 57,
                    "time": 55.71423000000008,
                    "velocity": 0.4645669291338583,
                    "duration": 0.42857100000000514
                },
                {
                    "name": "C4",
                    "midi": 60,
                    "time": 55.71423000000008,
                    "velocity": 0.5196850393700787,
                    "duration": 0.42857100000000514
                },
                {
                    "name": "B3",
                    "midi": 59,
                    "time": 56.142801000000084,
                    "velocity": 0.4645669291338583,
                    "duration": 0.42857099999999804
                },
                {
                    "name": "D4",
                    "midi": 62,
                    "time": 56.142801000000084,
                    "velocity": 0.5196850393700787,
                    "duration": 0.42857099999999804
                },
                {
                    "name": "C4",
                    "midi": 60,
                    "time": 56.57137200000008,
                    "velocity": 0.4645669291338583,
                    "duration": 0.40714245000000204
                },
                {
                    "name": "E4",
                    "midi": 64,
                    "time": 56.57137200000008,
                    "velocity": 0.5196850393700787,
                    "duration": 0.40714245000000204
                },
                {
                    "name": "E3",
                    "midi": 52,
                    "time": 56.99994300000009,
                    "velocity": 0.5984251968503937,
                    "duration": 0.10714275000000129
                },
                {
                    "name": "E4",
                    "midi": 64,
                    "time": 56.99994300000009,
                    "velocity": 0.5984251968503937,
                    "duration": 0.8571420000000032
                },
                {
                    "name": "F3",
                    "midi": 53,
                    "time": 57.21422850000009,
                    "velocity": 0.6062992125984252,
                    "duration": 0.10714275000000129
                },
                {
                    "name": "G3",
                    "midi": 55,
                    "time": 57.42851400000009,
                    "velocity": 0.6614173228346457,
                    "duration": 1.285712999999994
                },
                {
                    "name": "F4",
                    "midi": 65,
                    "time": 57.85708500000009,
                    "velocity": 0.5511811023622047,
                    "duration": 0.32142824999999675
                },
                {
                    "name": "D4",
                    "midi": 62,
                    "time": 57.85708500000009,
                    "velocity": 0.4881889763779528,
                    "duration": 0.32142824999999675
                },
                {
                    "name": "C4",
                    "midi": 60,
                    "time": 58.17851325000009,
                    "velocity": 0.4645669291338583,
                    "duration": 0.10178561250000229
                },
                {
                    "name": "E4",
                    "midi": 64,
                    "time": 58.17851325000009,
                    "velocity": 0.5196850393700787,
                    "duration": 0.10178561250000229
                },
                {
                    "name": "C4",
                    "midi": 60,
                    "time": 58.28565600000009,
                    "velocity": 0.4881889763779528,
                    "duration": 0.42857099999999804
                },
                {
                    "name": "E4",
                    "midi": 64,
                    "time": 58.28565600000009,
                    "velocity": 0.5511811023622047,
                    "duration": 0.42857099999999804
                },
                {
                    "name": "G#3",
                    "midi": 56,
                    "time": 58.714227000000086,
                    "velocity": 0.4645669291338583,
                    "duration": 0.42857099999999804
                },
                {
                    "name": "B3",
                    "midi": 59,
                    "time": 58.714227000000086,
                    "velocity": 0.4645669291338583,
                    "duration": 0.32142824999999675
                },
                {
                    "name": "D4",
                    "midi": 62,
                    "time": 58.714227000000086,
                    "velocity": 0.5196850393700787,
                    "duration": 0.32142824999999675
                },
                {
                    "name": "A3",
                    "midi": 57,
                    "time": 59.03565525000008,
                    "velocity": 0.44881889763779526,
                    "duration": 0.10178561250000229
                },
                {
                    "name": "C4",
                    "midi": 60,
                    "time": 59.03565525000008,
                    "velocity": 0.49606299212598426,
                    "duration": 0.10178561250000229
                },
                {
                    "name": "A3",
                    "midi": 57,
                    "time": 59.142798000000084,
                    "velocity": 0.4645669291338583,
                    "duration": 0.42857099999999804
                },
                {
                    "name": "C4",
                    "midi": 60,
                    "time": 59.142798000000084,
                    "velocity": 0.5196850393700787,
                    "duration": 0.42857099999999804
                },
                {
                    "name": "D3",
                    "midi": 50,
                    "time": 59.57136900000008,
                    "velocity": 0.44881889763779526,
                    "duration": 0.42857099999999804
                },
                {
                    "name": "C4",
                    "midi": 60,
                    "time": 59.57136900000008,
                    "velocity": 0.5039370078740157,
                    "duration": 0.32142824999999675
                },
                {
                    "name": "B3",
                    "midi": 59,
                    "time": 59.89279725000008,
                    "velocity": 0.49606299212598426,
                    "duration": 0.10714275000000129
                },
                {
                    "name": "D4",
                    "midi": 62,
                    "time": 59.89279725000008,
                    "velocity": 0.49606299212598426,
                    "duration": 0.10714275000000129
                },
                {
                    "name": "E3",
                    "midi": 52,
                    "time": 59.99994000000008,
                    "velocity": 0.4409448818897638,
                    "duration": 1.0714275000000058
                },
                {
                    "name": "C4",
                    "midi": 60,
                    "time": 59.99994000000008,
                    "velocity": 0.49606299212598426,
                    "duration": 0.8571420000000032
                },
                {
                    "name": "A3",
                    "midi": 57,
                    "time": 59.99994000000008,
                    "velocity": 0.4409448818897638,
                    "duration": 0.8571420000000032
                },
                {
                    "name": "G#3",
                    "midi": 56,
                    "time": 60.857082000000084,
                    "velocity": 0.4094488188976378,
                    "duration": 0.21428550000000257
                },
                {
                    "name": "B3",
                    "midi": 59,
                    "time": 60.857082000000084,
                    "velocity": 0.44881889763779526,
                    "duration": 0.21428550000000257
                },
                {
                    "name": "E3",
                    "midi": 52,
                    "time": 61.28565300000009,
                    "velocity": 0.5826771653543307,
                    "duration": 0.42857099999999804
                },
                {
                    "name": "A2",
                    "midi": 45,
                    "time": 61.71422400000009,
                    "velocity": 0.4645669291338583,
                    "duration": 0.6428565000000006
                },
                {
                    "name": "C3",
                    "midi": 48,
                    "time": 61.71422400000009,
                    "velocity": 0.4645669291338583,
                    "duration": 0.6428565000000006
                },
                {
                    "name": "A3",
                    "midi": 57,
                    "time": 61.71422400000009,
                    "velocity": 0.5196850393700787,
                    "duration": 0.6428565000000006
                },
                {
                    "name": "E3",
                    "midi": 52,
                    "time": 62.35708050000009,
                    "velocity": 0.44881889763779526,
                    "duration": 0.21428550000000257
                },
                {
                    "name": "B3",
                    "midi": 59,
                    "time": 62.35708050000009,
                    "velocity": 0.5039370078740157,
                    "duration": 0.21428550000000257
                },
                {
                    "name": "C4",
                    "midi": 60,
                    "time": 62.57136600000009,
                    "velocity": 0.5275590551181102,
                    "duration": 0.32142825000000386
                },
                {
                    "name": "A3",
                    "midi": 57,
                    "time": 62.57136600000009,
                    "velocity": 0.4645669291338583,
                    "duration": 0.32142825000000386
                },
                {
                    "name": "B3",
                    "midi": 59,
                    "time": 62.892794250000094,
                    "velocity": 0.49606299212598426,
                    "duration": 0.10714275000000129
                },
                {
                    "name": "E3",
                    "midi": 52,
                    "time": 62.892794250000094,
                    "velocity": 0.41732283464566927,
                    "duration": 0.10714275000000129
                },
                {
                    "name": "C4",
                    "midi": 60,
                    "time": 62.999937000000095,
                    "velocity": 0.5354330708661418,
                    "duration": 0.32142825000000386
                },
                {
                    "name": "A3",
                    "midi": 57,
                    "time": 62.999937000000095,
                    "velocity": 0.44881889763779526,
                    "duration": 0.32142825000000386
                },
                {
                    "name": "D4",
                    "midi": 62,
                    "time": 63.3213652500001,
                    "velocity": 0.4251968503937008,
                    "duration": 0.10714275000000129
                },
                {
                    "name": "B3",
                    "midi": 59,
                    "time": 63.3213652500001,
                    "velocity": 0.4094488188976378,
                    "duration": 0.10714275000000129
                },
                {
                    "name": "E4",
                    "midi": 64,
                    "time": 63.4285080000001,
                    "velocity": 0.5196850393700787,
                    "duration": 0.40714244999999494
                },
                {
                    "name": "C4",
                    "midi": 60,
                    "time": 63.4285080000001,
                    "velocity": 0.4645669291338583,
                    "duration": 0.40714244999999494
                },
                {
                    "name": "G4",
                    "midi": 67,
                    "time": 63.8570790000001,
                    "velocity": 0.5984251968503937,
                    "duration": 0.8571419999999961
                },
                {
                    "name": "E4",
                    "midi": 64,
                    "time": 63.8570790000001,
                    "velocity": 0.5984251968503937,
                    "duration": 0.8571419999999961
                },
                {
                    "name": "G4",
                    "midi": 67,
                    "time": 64.7142210000001,
                    "velocity": 0.5905511811023622,
                    "duration": 1.6071412499999553
                },
                {
                    "name": "A#4",
                    "midi": 70,
                    "time": 64.7142210000001,
                    "velocity": 0.5905511811023622,
                    "duration": 1.6071412499999553
                },
                {
                    "name": "F4",
                    "midi": 65,
                    "time": 65.35707750000009,
                    "velocity": 0.5905511811023622,
                    "duration": 0.10714274999999418
                },
                {
                    "name": "E4",
                    "midi": 64,
                    "time": 65.57136300000008,
                    "velocity": 0.5590551181102362,
                    "duration": 0.10714274999999418
                },
                {
                    "name": "D4",
                    "midi": 62,
                    "time": 65.78564850000006,
                    "velocity": 0.5590551181102362,
                    "duration": 0.10714274999999418
                },
                {
                    "name": "C#4",
                    "midi": 61,
                    "time": 65.99993400000005,
                    "velocity": 0.5196850393700787,
                    "duration": 0.42857099999999093
                },
                {
                    "name": "G4",
                    "midi": 67,
                    "time": 66.32136225000005,
                    "velocity": 0.49606299212598426,
                    "duration": 0.08035706249999919
                },
                {
                    "name": "F4",
                    "midi": 65,
                    "time": 66.42850500000004,
                    "velocity": 0.5118110236220472,
                    "duration": 0.10714275000000839
                },
                {
                    "name": "E4",
                    "midi": 64,
                    "time": 66.74993325000005,
                    "velocity": 0.4645669291338583,
                    "duration": 0.08035706249999919
                },
                {
                    "name": "D4",
                    "midi": 62,
                    "time": 66.85707600000005,
                    "velocity": 0.5590551181102362,
                    "duration": 1.1785702499999644
                },
                {
                    "name": "C4",
                    "midi": 60,
                    "time": 67.07136150000005,
                    "velocity": 0.5590551181102362,
                    "duration": 0.10714274999999418
                },
                {
                    "name": "B3",
                    "midi": 59,
                    "time": 67.28564700000004,
                    "velocity": 0.5590551181102362,
                    "duration": 0.10714274999999418
                },
                {
                    "name": "A3",
                    "midi": 57,
                    "time": 67.49993250000003,
                    "velocity": 0.5590551181102362,
                    "duration": 0.10714274999999418
                },
                {
                    "name": "G#3",
                    "midi": 56,
                    "time": 67.71421800000002,
                    "velocity": 0.5196850393700787,
                    "duration": 0.42857099999999093
                },
                {
                    "name": "D4",
                    "midi": 62,
                    "time": 68.03564625000001,
                    "velocity": 0.49606299212598426,
                    "duration": 0.08035706249999919
                },
                {
                    "name": "C4",
                    "midi": 60,
                    "time": 68.14278900000001,
                    "velocity": 0.5118110236220472,
                    "duration": 0.10714275000000839
                },
                {
                    "name": "B3",
                    "midi": 59,
                    "time": 68.46421725000002,
                    "velocity": 0.4645669291338583,
                    "duration": 0.08035706249999919
                },
                {
                    "name": "A3",
                    "midi": 57,
                    "time": 68.57136000000001,
                    "velocity": 0.5590551181102362,
                    "duration": 1.1785702499999502
                },
                {
                    "name": "G3",
                    "midi": 55,
                    "time": 68.7856455,
                    "velocity": 0.5590551181102362,
                    "duration": 0.10714274999999418
                },
                {
                    "name": "F#3",
                    "midi": 54,
                    "time": 68.99993099999999,
                    "velocity": 0.5590551181102362,
                    "duration": 0.10714274999999418
                },
                {
                    "name": "E3",
                    "midi": 52,
                    "time": 69.21421649999998,
                    "velocity": 0.5590551181102362,
                    "duration": 0.10714274999999418
                },
                {
                    "name": "D#3",
                    "midi": 51,
                    "time": 69.42850199999997,
                    "velocity": 0.5196850393700787,
                    "duration": 0.42857099999999093
                },
                {
                    "name": "G#3",
                    "midi": 56,
                    "time": 69.64278749999997,
                    "velocity": 0.49606299212598426,
                    "duration": 0.08035706249999919
                },
                {
                    "name": "F#3",
                    "midi": 54,
                    "time": 69.85707299999996,
                    "velocity": 0.5118110236220472,
                    "duration": 0.10714274999999418
                },
                {
                    "name": "G#3",
                    "midi": 56,
                    "time": 70.07135849999995,
                    "velocity": 0.4645669291338583,
                    "duration": 0.08035706249999919
                },
                {
                    "name": "E3",
                    "midi": 52,
                    "time": 70.28564399999995,
                    "velocity": 0.4645669291338583,
                    "duration": 1.4285699999999224
                },
                {
                    "name": "A3",
                    "midi": 57,
                    "time": 70.28564399999995,
                    "velocity": 0.5590551181102362,
                    "duration": 0.10714274999999418
                },
                {
                    "name": "B3",
                    "midi": 59,
                    "time": 70.49992949999994,
                    "velocity": 0.5748031496062992,
                    "duration": 0.10714274999999418
                },
                {
                    "name": "C4",
                    "midi": 60,
                    "time": 70.71421499999992,
                    "velocity": 0.5826771653543307,
                    "duration": 0.10714274999999418
                },
                {
                    "name": "D4",
                    "midi": 62,
                    "time": 70.92850049999991,
                    "velocity": 0.5905511811023622,
                    "duration": 0.10714274999999418
                },
                {
                    "name": "C4",
                    "midi": 60,
                    "time": 71.1427859999999,
                    "velocity": 0.5984251968503937,
                    "duration": 0.10714274999999418
                },
                {
                    "name": "B3",
                    "midi": 59,
                    "time": 71.35707149999989,
                    "velocity": 0.5905511811023622,
                    "duration": 0.10714274999999418
                },
                {
                    "name": "A3",
                    "midi": 57,
                    "time": 71.57135699999988,
                    "velocity": 0.5748031496062992,
                    "duration": 0.10714274999999418
                },
                {
                    "name": "E3",
                    "midi": 52,
                    "time": 71.89278524999987,
                    "velocity": 0.4566929133858268,
                    "duration": 0.08035706249999919
                },
                {
                    "name": "B3",
                    "midi": 59,
                    "time": 71.89278524999987,
                    "velocity": 0.5511811023622047,
                    "duration": 0.08035706249999919
                },
                {
                    "name": "E3",
                    "midi": 52,
                    "time": 71.99992799999987,
                    "velocity": 0.4566929133858268,
                    "duration": 0.8571419999999961
                },
                {
                    "name": "B3",
                    "midi": 59,
                    "time": 71.99992799999987,
                    "velocity": 0.5511811023622047,
                    "duration": 0.8571419999999961
                },
                {
                    "name": "A2",
                    "midi": 45,
                    "time": 72.85706999999987,
                    "velocity": 0.4645669291338583,
                    "duration": 0.42857100000000514
                },
                {
                    "name": "A3",
                    "midi": 57,
                    "time": 72.85706999999987,
                    "velocity": 0.5590551181102362,
                    "duration": 0.42857100000000514
                },
                {
                    "name": "B3",
                    "midi": 59,
                    "time": 74.14278299999987,
                    "velocity": 0.2125984251968504,
                    "duration": 0.42857100000000514
                },
                {
                    "name": "G#3",
                    "midi": 56,
                    "time": 74.14278299999987,
                    "velocity": 0.18110236220472442,
                    "duration": 0.42857100000000514
                },
                {
                    "name": "E3",
                    "midi": 52,
                    "time": 74.14278299999987,
                    "velocity": 0.18110236220472442,
                    "duration": 0.42857100000000514
                },
                {
                    "name": "E3",
                    "midi": 52,
                    "time": 74.99992499999988,
                    "velocity": 0.18110236220472442,
                    "duration": 0.42857100000000514
                },
                {
                    "name": "A3",
                    "midi": 57,
                    "time": 74.99992499999988,
                    "velocity": 0.18110236220472442,
                    "duration": 0.42857100000000514
                },
                {
                    "name": "C4",
                    "midi": 60,
                    "time": 74.99992499999988,
                    "velocity": 0.2125984251968504,
                    "duration": 0.42857100000000514
                },
                {
                    "name": "A3",
                    "midi": 57,
                    "time": 75.85706699999989,
                    "velocity": 0.2125984251968504,
                    "duration": 0.42857100000000514
                },
                {
                    "name": "F#3",
                    "midi": 54,
                    "time": 75.85706699999989,
                    "velocity": 0.18110236220472442,
                    "duration": 0.42857100000000514
                },
                {
                    "name": "E3",
                    "midi": 52,
                    "time": 75.85706699999989,
                    "velocity": 0.18110236220472442,
                    "duration": 0.42857100000000514
                },
                {
                    "name": "B3",
                    "midi": 59,
                    "time": 76.7142089999999,
                    "velocity": 0.2125984251968504,
                    "duration": 0.42857100000000514
                },
                {
                    "name": "G#3",
                    "midi": 56,
                    "time": 76.7142089999999,
                    "velocity": 0.18110236220472442,
                    "duration": 0.42857100000000514
                },
                {
                    "name": "E3",
                    "midi": 52,
                    "time": 76.7142089999999,
                    "velocity": 0.18110236220472442,
                    "duration": 0.42857100000000514
                },
                {
                    "name": "E2",
                    "midi": 40,
                    "time": 77.1427799999999,
                    "velocity": 0.2125984251968504,
                    "duration": 0.42857100000000514
                },
                {
                    "name": "E3",
                    "midi": 52,
                    "time": 77.1427799999999,
                    "velocity": 0.25196850393700787,
                    "duration": 0.42857100000000514
                },
                {
                    "name": "D4",
                    "midi": 62,
                    "time": 77.57135099999991,
                    "velocity": 0.2440944881889764,
                    "duration": 0.42857099999999093
                },
                {
                    "name": "B3",
                    "midi": 59,
                    "time": 77.57135099999991,
                    "velocity": 0.1968503937007874,
                    "duration": 0.42857099999999093
                },
                {
                    "name": "E3",
                    "midi": 52,
                    "time": 77.57135099999991,
                    "velocity": 0.1968503937007874,
                    "duration": 0.42857099999999093
                },
                {
                    "name": "E3",
                    "midi": 52,
                    "time": 78.4284929999999,
                    "velocity": 0.25196850393700787,
                    "duration": 0.42857100000000514
                },
                {
                    "name": "A3",
                    "midi": 57,
                    "time": 78.4284929999999,
                    "velocity": 0.25196850393700787,
                    "duration": 0.42857100000000514
                },
                {
                    "name": "C4",
                    "midi": 60,
                    "time": 78.4284929999999,
                    "velocity": 0.2992125984251969,
                    "duration": 0.42857100000000514
                },
                {
                    "name": "E2",
                    "midi": 40,
                    "time": 78.85706399999991,
                    "velocity": 0.25984251968503935,
                    "duration": 0.42857099999999093
                },
                {
                    "name": "E3",
                    "midi": 52,
                    "time": 78.85706399999991,
                    "velocity": 0.2992125984251969,
                    "duration": 0.42857099999999093
                },
                {
                    "name": "A3",
                    "midi": 57,
                    "time": 79.2856349999999,
                    "velocity": 0.29133858267716534,
                    "duration": 0.42857100000000514
                },
                {
                    "name": "C4",
                    "midi": 60,
                    "time": 79.2856349999999,
                    "velocity": 0.3543307086614173,
                    "duration": 0.42857100000000514
                },
                {
                    "name": "F#3",
                    "midi": 54,
                    "time": 79.2856349999999,
                    "velocity": 0.29133858267716534,
                    "duration": 0.42857100000000514
                },
                {
                    "name": "E3",
                    "midi": 52,
                    "time": 79.2856349999999,
                    "velocity": 0.29133858267716534,
                    "duration": 0.42857100000000514
                },
                {
                    "name": "E3",
                    "midi": 52,
                    "time": 80.14277699999991,
                    "velocity": 0.44881889763779526,
                    "duration": 0.21428550000000257
                },
                {
                    "name": "G#3",
                    "midi": 56,
                    "time": 80.14277699999991,
                    "velocity": 0.49606299212598426,
                    "duration": 0.21428550000000257
                },
                {
                    "name": "B3",
                    "midi": 59,
                    "time": 80.14277699999991,
                    "velocity": 0.6141732283464567,
                    "duration": 0.21428550000000257
                },
                {
                    "name": "E2",
                    "midi": 40,
                    "time": 80.35706249999991,
                    "velocity": 0.44881889763779526,
                    "duration": 0.21428550000000257
                },
                {
                    "name": "E3",
                    "midi": 52,
                    "time": 80.35706249999991,
                    "velocity": 0.49606299212598426,
                    "duration": 0.21428550000000257
                },
                {
                    "name": "G#2",
                    "midi": 44,
                    "time": 80.57134799999992,
                    "velocity": 0.4645669291338583,
                    "duration": 0.6428564999999935
                },
                {
                    "name": "E3",
                    "midi": 52,
                    "time": 80.57134799999992,
                    "velocity": 0.5196850393700787,
                    "duration": 0.6428564999999935
                },
                {
                    "name": "A2",
                    "midi": 45,
                    "time": 81.21420449999991,
                    "velocity": 0.44881889763779526,
                    "duration": 0.21428550000000257
                },
                {
                    "name": "E3",
                    "midi": 52,
                    "time": 81.21420449999991,
                    "velocity": 0.5039370078740157,
                    "duration": 0.21428550000000257
                },
                {
                    "name": "B2",
                    "midi": 47,
                    "time": 81.42848999999991,
                    "velocity": 0.4645669291338583,
                    "duration": 0.42857100000000514
                },
                {
                    "name": "E3",
                    "midi": 52,
                    "time": 81.42848999999991,
                    "velocity": 0.5196850393700787,
                    "duration": 0.42857100000000514
                },
                {
                    "name": "A2",
                    "midi": 45,
                    "time": 81.85706099999992,
                    "velocity": 0.4645669291338583,
                    "duration": 0.42857100000000514
                },
                {
                    "name": "E3",
                    "midi": 52,
                    "time": 81.85706099999992,
                    "velocity": 0.5196850393700787,
                    "duration": 0.42857100000000514
                },
                {
                    "name": "D3",
                    "midi": 50,
                    "time": 82.28563199999992,
                    "velocity": 0.4645669291338583,
                    "duration": 0.10714274999999418
                },
                {
                    "name": "E3",
                    "midi": 52,
                    "time": 82.28563199999992,
                    "velocity": 0.5196850393700787,
                    "duration": 0.10714274999999418
                },
                {
                    "name": "C3",
                    "midi": 48,
                    "time": 82.60706024999992,
                    "velocity": 0.4645669291338583,
                    "duration": 0.08035706249999919
                },
                {
                    "name": "E3",
                    "midi": 52,
                    "time": 82.60706024999992,
                    "velocity": 0.5196850393700787,
                    "duration": 0.08035706249999919
                },
                {
                    "name": "B2",
                    "midi": 47,
                    "time": 82.71420299999991,
                    "velocity": 0.5039370078740157,
                    "duration": 0.8571419999999961
                },
                {
                    "name": "E3",
                    "midi": 52,
                    "time": 82.71420299999991,
                    "velocity": 0.5748031496062992,
                    "duration": 0.8571419999999961
                },
                {
                    "name": "D3",
                    "midi": 50,
                    "time": 83.57134499999991,
                    "velocity": 0.4881889763779528,
                    "duration": 0.42857100000000514
                },
                {
                    "name": "D4",
                    "midi": 62,
                    "time": 83.57134499999991,
                    "velocity": 0.5511811023622047,
                    "duration": 0.42857100000000514
                },
                {
                    "name": "E3",
                    "midi": 52,
                    "time": 83.57134499999991,
                    "velocity": 0.4881889763779528,
                    "duration": 0.42857100000000514
                },
                {
                    "name": "C3",
                    "midi": 48,
                    "time": 83.99991599999991,
                    "velocity": 0.4881889763779528,
                    "duration": 0.42857100000000514
                },
                {
                    "name": "E3",
                    "midi": 52,
                    "time": 83.99991599999991,
                    "velocity": 0.4881889763779528,
                    "duration": 0.42857100000000514
                },
                {
                    "name": "C4",
                    "midi": 60,
                    "time": 83.99991599999991,
                    "velocity": 0.5511811023622047,
                    "duration": 0.42857100000000514
                },
                {
                    "name": "E3",
                    "midi": 52,
                    "time": 84.42848699999992,
                    "velocity": 0.4645669291338583,
                    "duration": 0.42857100000000514
                },
                {
                    "name": "A2",
                    "midi": 45,
                    "time": 84.42848699999992,
                    "velocity": 0.4645669291338583,
                    "duration": 0.42857100000000514
                },
                {
                    "name": "A3",
                    "midi": 57,
                    "time": 84.42848699999992,
                    "velocity": 0.5196850393700787,
                    "duration": 0.42857100000000514
                },
                {
                    "name": "E3",
                    "midi": 52,
                    "time": 84.85705799999992,
                    "velocity": 0.4881889763779528,
                    "duration": 0.42857100000000514
                },
                {
                    "name": "G#2",
                    "midi": 44,
                    "time": 84.85705799999992,
                    "velocity": 0.4881889763779528,
                    "duration": 0.42857100000000514
                },
                {
                    "name": "G#3",
                    "midi": 56,
                    "time": 84.85705799999992,
                    "velocity": 0.5433070866141733,
                    "duration": 0.42857100000000514
                },
                {
                    "name": "E3",
                    "midi": 52,
                    "time": 85.28562899999993,
                    "velocity": 0.44881889763779526,
                    "duration": 0.42857099999999093
                },
                {
                    "name": "F#2",
                    "midi": 42,
                    "time": 85.28562899999993,
                    "velocity": 0.44881889763779526,
                    "duration": 0.42857099999999093
                },
                {
                    "name": "F#3",
                    "midi": 54,
                    "time": 85.28562899999993,
                    "velocity": 0.5511811023622047,
                    "duration": 0.42857099999999093
                },
                {
                    "name": "E2",
                    "midi": 40,
                    "time": 85.71419999999992,
                    "velocity": 0.4409448818897638,
                    "duration": 0.42857099999999093
                },
                {
                    "name": "E3",
                    "midi": 52,
                    "time": 85.71419999999992,
                    "velocity": 0.5275590551181102,
                    "duration": 0.42857099999999093
                },
                {
                    "name": "E1",
                    "midi": 28,
                    "time": 86.14277099999991,
                    "velocity": 0.5196850393700787,
                    "duration": 0.8571419999999961
                },
                {
                    "name": "E2",
                    "midi": 40,
                    "time": 86.14277099999991,
                    "velocity": 0.5984251968503937,
                    "duration": 0.8571419999999961
                },
                {
                    "name": "E2",
                    "midi": 40,
                    "time": 86.9999129999999,
                    "velocity": 0.4409448818897638,
                    "duration": 0.42857100000000514
                },
                {
                    "name": "E3",
                    "midi": 52,
                    "time": 86.9999129999999,
                    "velocity": 0.49606299212598426,
                    "duration": 0.42857100000000514
                },
                {
                    "name": "D3",
                    "midi": 50,
                    "time": 87.42848399999991,
                    "velocity": 0.4409448818897638,
                    "duration": 0.6428564999999935
                },
                {
                    "name": "E3",
                    "midi": 52,
                    "time": 87.42848399999991,
                    "velocity": 0.4409448818897638,
                    "duration": 0.6428564999999935
                },
                {
                    "name": "G#3",
                    "midi": 56,
                    "time": 87.42848399999991,
                    "velocity": 0.5196850393700787,
                    "duration": 0.6428564999999935
                },
                {
                    "name": "C3",
                    "midi": 48,
                    "time": 88.0713404999999,
                    "velocity": 0.4251968503937008,
                    "duration": 0.21428550000000257
                },
                {
                    "name": "E3",
                    "midi": 52,
                    "time": 88.0713404999999,
                    "velocity": 0.4251968503937008,
                    "duration": 0.21428550000000257
                },
                {
                    "name": "A3",
                    "midi": 57,
                    "time": 88.0713404999999,
                    "velocity": 0.5039370078740157,
                    "duration": 0.21428550000000257
                },
                {
                    "name": "B2",
                    "midi": 47,
                    "time": 88.28562599999991,
                    "velocity": 0.4409448818897638,
                    "duration": 0.42857100000000514
                },
                {
                    "name": "E3",
                    "midi": 52,
                    "time": 88.28562599999991,
                    "velocity": 0.4409448818897638,
                    "duration": 0.42857100000000514
                },
                {
                    "name": "B3",
                    "midi": 59,
                    "time": 88.28562599999991,
                    "velocity": 0.5196850393700787,
                    "duration": 0.42857100000000514
                },
                {
                    "name": "D3",
                    "midi": 50,
                    "time": 88.71419699999991,
                    "velocity": 0.4409448818897638,
                    "duration": 0.42857100000000514
                },
                {
                    "name": "E3",
                    "midi": 52,
                    "time": 88.71419699999991,
                    "velocity": 0.4409448818897638,
                    "duration": 0.42857100000000514
                },
                {
                    "name": "D4",
                    "midi": 62,
                    "time": 88.71419699999991,
                    "velocity": 0.5196850393700787,
                    "duration": 0.42857100000000514
                },
                {
                    "name": "C3",
                    "midi": 48,
                    "time": 89.14276799999992,
                    "velocity": 0.4409448818897638,
                    "duration": 0.10714274999999418
                },
                {
                    "name": "E3",
                    "midi": 52,
                    "time": 89.14276799999992,
                    "velocity": 0.4409448818897638,
                    "duration": 0.10714274999999418
                },
                {
                    "name": "C4",
                    "midi": 60,
                    "time": 89.14276799999992,
                    "velocity": 0.5196850393700787,
                    "duration": 0.10714274999999418
                },
                {
                    "name": "B2",
                    "midi": 47,
                    "time": 89.46419624999992,
                    "velocity": 0.4409448818897638,
                    "duration": 0.08035706249999919
                },
                {
                    "name": "E3",
                    "midi": 52,
                    "time": 89.46419624999992,
                    "velocity": 0.4409448818897638,
                    "duration": 0.08035706249999919
                },
                {
                    "name": "B3",
                    "midi": 59,
                    "time": 89.46419624999992,
                    "velocity": 0.5196850393700787,
                    "duration": 0.08035706249999919
                },
                {
                    "name": "A2",
                    "midi": 45,
                    "time": 89.57133899999991,
                    "velocity": 0.44881889763779526,
                    "duration": 0.8571419999999961
                },
                {
                    "name": "E3",
                    "midi": 52,
                    "time": 89.57133899999991,
                    "velocity": 0.44881889763779526,
                    "duration": 0.8571419999999961
                },
                {
                    "name": "A3",
                    "midi": 57,
                    "time": 89.57133899999991,
                    "velocity": 0.5354330708661418,
                    "duration": 0.8571419999999961
                },
                {
                    "name": "A2",
                    "midi": 45,
                    "time": 90.4284809999999,
                    "velocity": 0.5826771653543307,
                    "duration": 0.42857100000000514
                },
                {
                    "name": "A1",
                    "midi": 33,
                    "time": 90.4284809999999,
                    "velocity": 0.5118110236220472,
                    "duration": 0.42857100000000514
                },
                {
                    "name": "B1",
                    "midi": 35,
                    "time": 90.85705199999991,
                    "velocity": 0.5118110236220472,
                    "duration": 0.42857100000000514
                },
                {
                    "name": "B2",
                    "midi": 47,
                    "time": 90.85705199999991,
                    "velocity": 0.5826771653543307,
                    "duration": 0.42857100000000514
                },
                {
                    "name": "C2",
                    "midi": 36,
                    "time": 91.28562299999992,
                    "velocity": 0.4881889763779528,
                    "duration": 0.42857100000000514
                },
                {
                    "name": "C3",
                    "midi": 48,
                    "time": 91.28562299999992,
                    "velocity": 0.5433070866141733,
                    "duration": 0.42857100000000514
                },
                {
                    "name": "D2",
                    "midi": 38,
                    "time": 91.71419399999992,
                    "velocity": 0.4881889763779528,
                    "duration": 0.42857100000000514
                },
                {
                    "name": "D3",
                    "midi": 50,
                    "time": 91.71419399999992,
                    "velocity": 0.5433070866141733,
                    "duration": 0.42857100000000514
                },
                {
                    "name": "D2",
                    "midi": 38,
                    "time": 92.14276499999993,
                    "velocity": 0.5118110236220472,
                    "duration": 0.42857099999999093
                },
                {
                    "name": "D3",
                    "midi": 50,
                    "time": 92.14276499999993,
                    "velocity": 0.5826771653543307,
                    "duration": 0.42857099999999093
                },
                {
                    "name": "G1",
                    "midi": 31,
                    "time": 92.57133599999992,
                    "velocity": 0.49606299212598426,
                    "duration": 0.42857100000000514
                },
                {
                    "name": "G2",
                    "midi": 43,
                    "time": 92.57133599999992,
                    "velocity": 0.5748031496062992,
                    "duration": 0.42857100000000514
                },
                {
                    "name": "G2",
                    "midi": 43,
                    "time": 92.99990699999992,
                    "velocity": 0.6062992125984252,
                    "duration": 0.8571419999999961
                },
                {
                    "name": "G3",
                    "midi": 55,
                    "time": 92.99990699999992,
                    "velocity": 0.7086614173228346,
                    "duration": 0.8571419999999961
                },
                {
                    "name": "F2",
                    "midi": 41,
                    "time": 93.85704899999992,
                    "velocity": 0.5433070866141733,
                    "duration": 0.42857100000000514
                },
                {
                    "name": "F3",
                    "midi": 53,
                    "time": 93.85704899999992,
                    "velocity": 0.6141732283464567,
                    "duration": 0.42857100000000514
                },
                {
                    "name": "E2",
                    "midi": 40,
                    "time": 94.28561999999992,
                    "velocity": 0.5196850393700787,
                    "duration": 0.42857099999999093
                },
                {
                    "name": "G2",
                    "midi": 43,
                    "time": 94.28561999999992,
                    "velocity": 0.5196850393700787,
                    "duration": 0.42857099999999093
                },
                {
                    "name": "C3",
                    "midi": 48,
                    "time": 94.28561999999992,
                    "velocity": 0.5196850393700787,
                    "duration": 0.42857099999999093
                },
                {
                    "name": "E3",
                    "midi": 52,
                    "time": 94.28561999999992,
                    "velocity": 0.5511811023622047,
                    "duration": 0.42857099999999093
                },
                {
                    "name": "E3",
                    "midi": 52,
                    "time": 94.71419099999991,
                    "velocity": 0.5196850393700787,
                    "duration": 0.8571419999999961
                },
                {
                    "name": "G3",
                    "midi": 55,
                    "time": 94.71419099999991,
                    "velocity": 0.5196850393700787,
                    "duration": 0.8571419999999961
                },
                {
                    "name": "C4",
                    "midi": 60,
                    "time": 94.71419099999991,
                    "velocity": 0.5196850393700787,
                    "duration": 0.8571419999999961
                },
                {
                    "name": "E4",
                    "midi": 64,
                    "time": 94.71419099999991,
                    "velocity": 0.5196850393700787,
                    "duration": 0.8571419999999961
                },
                {
                    "name": "D2",
                    "midi": 38,
                    "time": 95.57133299999991,
                    "velocity": 0.44881889763779526,
                    "duration": 0.42857100000000514
                },
                {
                    "name": "D3",
                    "midi": 50,
                    "time": 95.57133299999991,
                    "velocity": 0.5433070866141733,
                    "duration": 0.42857100000000514
                },
                {
                    "name": "G2",
                    "midi": 43,
                    "time": 95.99990399999992,
                    "velocity": 0.3779527559055118,
                    "duration": 0.42857100000000514
                },
                {
                    "name": "G3",
                    "midi": 55,
                    "time": 95.99990399999992,
                    "velocity": 0.44881889763779526,
                    "duration": 0.42857100000000514
                },
                {
                    "name": "G1",
                    "midi": 31,
                    "time": 96.42847499999992,
                    "velocity": 0.3779527559055118,
                    "duration": 0.6428565000000077
                },
                {
                    "name": "G2",
                    "midi": 43,
                    "time": 96.42847499999992,
                    "velocity": 0.44881889763779526,
                    "duration": 0.6428565000000077
                },
                {
                    "name": "F2",
                    "midi": 41,
                    "time": 97.07133149999993,
                    "velocity": 0.4645669291338583,
                    "duration": 0.21428550000000257
                },
                {
                    "name": "F3",
                    "midi": 53,
                    "time": 97.07133149999993,
                    "velocity": 0.5433070866141733,
                    "duration": 0.21428550000000257
                },
                {
                    "name": "E2",
                    "midi": 40,
                    "time": 97.28561699999993,
                    "velocity": 0.48031496062992124,
                    "duration": 0.16071412499999838
                },
                {
                    "name": "E3",
                    "midi": 52,
                    "time": 97.28561699999993,
                    "velocity": 0.5748031496062992,
                    "duration": 0.16071412499999838
                },
                {
                    "name": "D2",
                    "midi": 38,
                    "time": 97.49990249999993,
                    "velocity": 0.4645669291338583,
                    "duration": 0.16071412499999838
                },
                {
                    "name": "D3",
                    "midi": 50,
                    "time": 97.49990249999993,
                    "velocity": 0.5433070866141733,
                    "duration": 0.16071412499999838
                },
                {
                    "name": "C2",
                    "midi": 36,
                    "time": 97.71418799999994,
                    "velocity": 0.5196850393700787,
                    "duration": 0.42857100000000514
                },
                {
                    "name": "C3",
                    "midi": 48,
                    "time": 97.71418799999994,
                    "velocity": 0.5590551181102362,
                    "duration": 0.42857100000000514
                },
                {
                    "name": "C3",
                    "midi": 48,
                    "time": 98.14275899999994,
                    "velocity": 0.5196850393700787,
                    "duration": 0.8571419999999961
                },
                {
                    "name": "E3",
                    "midi": 52,
                    "time": 98.14275899999994,
                    "velocity": 0.5196850393700787,
                    "duration": 0.8571419999999961
                },
                {
                    "name": "A3",
                    "midi": 57,
                    "time": 98.14275899999994,
                    "velocity": 0.5196850393700787,
                    "duration": 0.8571419999999961
                },
                {
                    "name": "C4",
                    "midi": 60,
                    "time": 98.14275899999994,
                    "velocity": 0.5196850393700787,
                    "duration": 0.8571419999999961
                },
                {
                    "name": "B1",
                    "midi": 35,
                    "time": 98.99990099999994,
                    "velocity": 0.5275590551181102,
                    "duration": 0.42857100000000514
                },
                {
                    "name": "B2",
                    "midi": 47,
                    "time": 98.99990099999994,
                    "velocity": 0.5590551181102362,
                    "duration": 0.42857100000000514
                },
                {
                    "name": "E2",
                    "midi": 40,
                    "time": 99.42847199999994,
                    "velocity": 0.44881889763779526,
                    "duration": 0.42857100000000514
                },
                {
                    "name": "E3",
                    "midi": 52,
                    "time": 99.42847199999994,
                    "velocity": 0.5433070866141733,
                    "duration": 0.42857100000000514
                },
                {
                    "name": "E1",
                    "midi": 28,
                    "time": 99.85704299999995,
                    "velocity": 0.44881889763779526,
                    "duration": 0.6428565000000077
                },
                {
                    "name": "E2",
                    "midi": 40,
                    "time": 99.85704299999995,
                    "velocity": 0.5433070866141733,
                    "duration": 0.6428565000000077
                },
                {
                    "name": "D2",
                    "midi": 38,
                    "time": 100.49989949999996,
                    "velocity": 0.49606299212598426,
                    "duration": 0.21428550000000257
                },
                {
                    "name": "D3",
                    "midi": 50,
                    "time": 100.49989949999996,
                    "velocity": 0.5984251968503937,
                    "duration": 0.21428550000000257
                },
                {
                    "name": "C2",
                    "midi": 36,
                    "time": 100.71418499999996,
                    "velocity": 0.5275590551181102,
                    "duration": 0.16071412499999838
                },
                {
                    "name": "C3",
                    "midi": 48,
                    "time": 100.71418499999996,
                    "velocity": 0.6220472440944882,
                    "duration": 0.16071412499999838
                },
                {
                    "name": "B1",
                    "midi": 35,
                    "time": 100.92847049999996,
                    "velocity": 0.49606299212598426,
                    "duration": 0.16071412499999838
                },
                {
                    "name": "B2",
                    "midi": 47,
                    "time": 100.92847049999996,
                    "velocity": 0.5984251968503937,
                    "duration": 0.16071412499999838
                },
                {
                    "name": "A1",
                    "midi": 33,
                    "time": 101.14275599999996,
                    "velocity": 0.5118110236220472,
                    "duration": 0.21428549999998836
                },
                {
                    "name": "A2",
                    "midi": 45,
                    "time": 101.14275599999996,
                    "velocity": 0.5984251968503937,
                    "duration": 0.21428549999998836
                },
                {
                    "name": "E2",
                    "midi": 40,
                    "time": 101.35704149999995,
                    "velocity": 0.44881889763779526,
                    "duration": 0.21428550000000257
                },
                {
                    "name": "E3",
                    "midi": 52,
                    "time": 101.35704149999995,
                    "velocity": 0.5433070866141733,
                    "duration": 0.21428550000000257
                },
                {
                    "name": "C2",
                    "midi": 36,
                    "time": 101.57132699999995,
                    "velocity": 0.47244094488188976,
                    "duration": 0.21428550000000257
                },
                {
                    "name": "C3",
                    "midi": 48,
                    "time": 101.57132699999995,
                    "velocity": 0.5826771653543307,
                    "duration": 0.21428550000000257
                },
                {
                    "name": "E2",
                    "midi": 40,
                    "time": 101.78561249999996,
                    "velocity": 0.44881889763779526,
                    "duration": 0.21428550000000257
                },
                {
                    "name": "E3",
                    "midi": 52,
                    "time": 101.78561249999996,
                    "velocity": 0.5433070866141733,
                    "duration": 0.21428550000000257
                },
                {
                    "name": "A2",
                    "midi": 45,
                    "time": 101.99989799999996,
                    "velocity": 0.4881889763779528,
                    "duration": 0.21428550000000257
                },
                {
                    "name": "A3",
                    "midi": 57,
                    "time": 101.99989799999996,
                    "velocity": 0.5905511811023622,
                    "duration": 0.21428550000000257
                },
                {
                    "name": "E2",
                    "midi": 40,
                    "time": 102.21418349999996,
                    "velocity": 0.44881889763779526,
                    "duration": 0.21428550000000257
                },
                {
                    "name": "E3",
                    "midi": 52,
                    "time": 102.21418349999996,
                    "velocity": 0.5433070866141733,
                    "duration": 0.21428550000000257
                },
                {
                    "name": "B2",
                    "midi": 47,
                    "time": 102.42846899999996,
                    "velocity": 0.4881889763779528,
                    "duration": 0.21428550000000257
                },
                {
                    "name": "B3",
                    "midi": 59,
                    "time": 102.42846899999996,
                    "velocity": 0.5905511811023622,
                    "duration": 0.21428550000000257
                },
                {
                    "name": "E2",
                    "midi": 40,
                    "time": 102.64275449999997,
                    "velocity": 0.44881889763779526,
                    "duration": 0.21428550000000257
                },
                {
                    "name": "E3",
                    "midi": 52,
                    "time": 102.64275449999997,
                    "velocity": 0.5433070866141733,
                    "duration": 0.21428550000000257
                },
                {
                    "name": "C3",
                    "midi": 48,
                    "time": 102.85703999999997,
                    "velocity": 0.49606299212598426,
                    "duration": 0.21428550000000257
                },
                {
                    "name": "C4",
                    "midi": 60,
                    "time": 102.85703999999997,
                    "velocity": 0.5984251968503937,
                    "duration": 0.21428550000000257
                },
                {
                    "name": "B2",
                    "midi": 47,
                    "time": 103.07132549999997,
                    "velocity": 0.44881889763779526,
                    "duration": 0.21428550000000257
                },
                {
                    "name": "B3",
                    "midi": 59,
                    "time": 103.07132549999997,
                    "velocity": 0.5433070866141733,
                    "duration": 0.21428550000000257
                },
                {
                    "name": "C3",
                    "midi": 48,
                    "time": 103.28561099999997,
                    "velocity": 0.4566929133858268,
                    "duration": 0.21428550000000257
                },
                {
                    "name": "C4",
                    "midi": 60,
                    "time": 103.28561099999997,
                    "velocity": 0.5511811023622047,
                    "duration": 0.21428550000000257
                },
                {
                    "name": "D3",
                    "midi": 50,
                    "time": 103.49989649999998,
                    "velocity": 0.4645669291338583,
                    "duration": 0.21428550000000257
                },
                {
                    "name": "D4",
                    "midi": 62,
                    "time": 103.49989649999998,
                    "velocity": 0.5748031496062992,
                    "duration": 0.21428550000000257
                },
                {
                    "name": "E3",
                    "midi": 52,
                    "time": 103.71418199999998,
                    "velocity": 0.47244094488188976,
                    "duration": 0.21428550000000257
                },
                {
                    "name": "E4",
                    "midi": 64,
                    "time": 103.71418199999998,
                    "velocity": 0.5826771653543307,
                    "duration": 0.21428550000000257
                },
                {
                    "name": "G2",
                    "midi": 43,
                    "time": 103.92846749999998,
                    "velocity": 0.4409448818897638,
                    "duration": 0.21428550000000257
                },
                {
                    "name": "G3",
                    "midi": 55,
                    "time": 103.92846749999998,
                    "velocity": 0.5275590551181102,
                    "duration": 0.21428550000000257
                },
                {
                    "name": "A2",
                    "midi": 45,
                    "time": 104.14275299999998,
                    "velocity": 0.4566929133858268,
                    "duration": 0.21428550000000257
                },
                {
                    "name": "A3",
                    "midi": 57,
                    "time": 104.14275299999998,
                    "velocity": 0.5511811023622047,
                    "duration": 0.21428550000000257
                },
                {
                    "name": "B2",
                    "midi": 47,
                    "time": 104.35703849999999,
                    "velocity": 0.47244094488188976,
                    "duration": 0.21428550000000257
                },
                {
                    "name": "B3",
                    "midi": 59,
                    "time": 104.35703849999999,
                    "velocity": 0.5826771653543307,
                    "duration": 0.21428550000000257
                },
                {
                    "name": "C3",
                    "midi": 48,
                    "time": 104.57132399999999,
                    "velocity": 0.49606299212598426,
                    "duration": 0.21428550000000257
                },
                {
                    "name": "C4",
                    "midi": 60,
                    "time": 104.57132399999999,
                    "velocity": 0.5984251968503937,
                    "duration": 0.21428550000000257
                },
                {
                    "name": "E2",
                    "midi": 40,
                    "time": 104.78560949999999,
                    "velocity": 0.4409448818897638,
                    "duration": 0.21428550000000257
                },
                {
                    "name": "E3",
                    "midi": 52,
                    "time": 104.78560949999999,
                    "velocity": 0.5275590551181102,
                    "duration": 0.21428550000000257
                },
                {
                    "name": "F#2",
                    "midi": 42,
                    "time": 104.999895,
                    "velocity": 0.44881889763779526,
                    "duration": 0.21428549999998836
                },
                {
                    "name": "F#3",
                    "midi": 54,
                    "time": 104.999895,
                    "velocity": 0.5433070866141733,
                    "duration": 0.21428549999998836
                },
                {
                    "name": "G#2",
                    "midi": 44,
                    "time": 105.21418049999998,
                    "velocity": 0.4566929133858268,
                    "duration": 0.21428550000000257
                },
                {
                    "name": "G#3",
                    "midi": 56,
                    "time": 105.21418049999998,
                    "velocity": 0.5511811023622047,
                    "duration": 0.21428550000000257
                },
                {
                    "name": "A2",
                    "midi": 45,
                    "time": 105.42846599999999,
                    "velocity": 0.4645669291338583,
                    "duration": 0.21428550000000257
                },
                {
                    "name": "A3",
                    "midi": 57,
                    "time": 105.42846599999999,
                    "velocity": 0.5748031496062992,
                    "duration": 0.21428550000000257
                },
                {
                    "name": "C2",
                    "midi": 36,
                    "time": 105.64275149999999,
                    "velocity": 0.44881889763779526,
                    "duration": 0.21428550000000257
                },
                {
                    "name": "C3",
                    "midi": 48,
                    "time": 105.64275149999999,
                    "velocity": 0.5433070866141733,
                    "duration": 0.21428550000000257
                },
                {
                    "name": "F2",
                    "midi": 41,
                    "time": 105.85703699999999,
                    "velocity": 0.47244094488188976,
                    "duration": 0.21428549999998836
                },
                {
                    "name": "F3",
                    "midi": 53,
                    "time": 105.85703699999999,
                    "velocity": 0.5826771653543307,
                    "duration": 0.21428549999998836
                },
                {
                    "name": "D2",
                    "midi": 38,
                    "time": 106.07132249999998,
                    "velocity": 0.44881889763779526,
                    "duration": 0.21428550000000257
                },
                {
                    "name": "D3",
                    "midi": 50,
                    "time": 106.07132249999998,
                    "velocity": 0.5433070866141733,
                    "duration": 0.21428550000000257
                },
                {
                    "name": "E2",
                    "midi": 40,
                    "time": 106.28560799999998,
                    "velocity": 0.4881889763779528,
                    "duration": 0.21428550000000257
                },
                {
                    "name": "E3",
                    "midi": 52,
                    "time": 106.28560799999998,
                    "velocity": 0.5905511811023622,
                    "duration": 0.21428550000000257
                },
                {
                    "name": "D#2",
                    "midi": 39,
                    "time": 106.49989349999998,
                    "velocity": 0.44881889763779526,
                    "duration": 0.21428550000000257
                },
                {
                    "name": "D#3",
                    "midi": 51,
                    "time": 106.49989349999998,
                    "velocity": 0.5433070866141733,
                    "duration": 0.21428550000000257
                },
                {
                    "name": "E2",
                    "midi": 40,
                    "time": 106.71417899999999,
                    "velocity": 0.44881889763779526,
                    "duration": 0.21428550000000257
                },
                {
                    "name": "E3",
                    "midi": 52,
                    "time": 106.71417899999999,
                    "velocity": 0.5433070866141733,
                    "duration": 0.21428550000000257
                },
                {
                    "name": "D#2",
                    "midi": 39,
                    "time": 106.92846449999999,
                    "velocity": 0.44881889763779526,
                    "duration": 0.21428550000000257
                },
                {
                    "name": "D#3",
                    "midi": 51,
                    "time": 106.92846449999999,
                    "velocity": 0.5433070866141733,
                    "duration": 0.21428550000000257
                },
                {
                    "name": "E2",
                    "midi": 40,
                    "time": 107.14274999999999,
                    "velocity": 0.47244094488188976,
                    "duration": 0.21428550000000257
                },
                {
                    "name": "E3",
                    "midi": 52,
                    "time": 107.14274999999999,
                    "velocity": 0.5826771653543307,
                    "duration": 0.21428550000000257
                },
                {
                    "name": "D2",
                    "midi": 38,
                    "time": 107.3570355,
                    "velocity": 0.44881889763779526,
                    "duration": 0.21428550000000257
                },
                {
                    "name": "D3",
                    "midi": 50,
                    "time": 107.3570355,
                    "velocity": 0.5433070866141733,
                    "duration": 0.21428550000000257
                },
                {
                    "name": "B1",
                    "midi": 35,
                    "time": 107.571321,
                    "velocity": 0.44881889763779526,
                    "duration": 0.21428550000000257
                },
                {
                    "name": "B2",
                    "midi": 47,
                    "time": 107.571321,
                    "velocity": 0.5433070866141733,
                    "duration": 0.21428550000000257
                },
                {
                    "name": "C2",
                    "midi": 36,
                    "time": 107.7856065,
                    "velocity": 0.44881889763779526,
                    "duration": 0.21428550000000257
                },
                {
                    "name": "C3",
                    "midi": 48,
                    "time": 107.7856065,
                    "velocity": 0.5433070866141733,
                    "duration": 0.21428550000000257
                },
                {
                    "name": "A1",
                    "midi": 33,
                    "time": 107.999892,
                    "velocity": 0.5118110236220472,
                    "duration": 0.21428550000000257
                },
                {
                    "name": "A2",
                    "midi": 45,
                    "time": 107.999892,
                    "velocity": 0.5984251968503937,
                    "duration": 0.21428550000000257
                },
                {
                    "name": "E3",
                    "midi": 52,
                    "time": 108.2141775,
                    "velocity": 0.5433070866141733,
                    "duration": 0.21428550000000257
                },
                {
                    "name": "E2",
                    "midi": 40,
                    "time": 108.2141775,
                    "velocity": 0.44881889763779526,
                    "duration": 0.21428550000000257
                },
                {
                    "name": "C2",
                    "midi": 36,
                    "time": 108.42846300000001,
                    "velocity": 0.47244094488188976,
                    "duration": 0.21428550000000257
                },
                {
                    "name": "C3",
                    "midi": 48,
                    "time": 108.42846300000001,
                    "velocity": 0.5826771653543307,
                    "duration": 0.21428550000000257
                },
                {
                    "name": "E2",
                    "midi": 40,
                    "time": 108.64274850000001,
                    "velocity": 0.44881889763779526,
                    "duration": 0.21428550000000257
                },
                {
                    "name": "E3",
                    "midi": 52,
                    "time": 108.64274850000001,
                    "velocity": 0.5433070866141733,
                    "duration": 0.21428550000000257
                },
                {
                    "name": "A2",
                    "midi": 45,
                    "time": 108.85703400000001,
                    "velocity": 0.4881889763779528,
                    "duration": 0.21428550000000257
                },
                {
                    "name": "A3",
                    "midi": 57,
                    "time": 108.85703400000001,
                    "velocity": 0.5905511811023622,
                    "duration": 0.21428550000000257
                },
                {
                    "name": "E2",
                    "midi": 40,
                    "time": 109.07131950000002,
                    "velocity": 0.44881889763779526,
                    "duration": 0.21428550000000257
                },
                {
                    "name": "E3",
                    "midi": 52,
                    "time": 109.07131950000002,
                    "velocity": 0.5433070866141733,
                    "duration": 0.21428550000000257
                },
                {
                    "name": "A2",
                    "midi": 45,
                    "time": 109.28560500000002,
                    "velocity": 0.4881889763779528,
                    "duration": 0.21428550000000257
                },
                {
                    "name": "A3",
                    "midi": 57,
                    "time": 109.28560500000002,
                    "velocity": 0.5905511811023622,
                    "duration": 0.21428550000000257
                },
                {
                    "name": "B3",
                    "midi": 59,
                    "time": 109.49989050000002,
                    "velocity": 0.5433070866141733,
                    "duration": 0.21428550000000257
                },
                {
                    "name": "B2",
                    "midi": 47,
                    "time": 109.49989050000002,
                    "velocity": 0.44881889763779526,
                    "duration": 0.21428550000000257
                },
                {
                    "name": "C4",
                    "midi": 60,
                    "time": 109.71417600000002,
                    "velocity": 0.5984251968503937,
                    "duration": 0.21428550000000257
                },
                {
                    "name": "C3",
                    "midi": 48,
                    "time": 109.71417600000002,
                    "velocity": 0.49606299212598426,
                    "duration": 0.21428550000000257
                },
                {
                    "name": "B3",
                    "midi": 59,
                    "time": 109.92846150000003,
                    "velocity": 0.5433070866141733,
                    "duration": 0.21428550000000257
                },
                {
                    "name": "B2",
                    "midi": 47,
                    "time": 109.92846150000003,
                    "velocity": 0.44881889763779526,
                    "duration": 0.21428550000000257
                },
                {
                    "name": "C3",
                    "midi": 48,
                    "time": 110.14274700000003,
                    "velocity": 0.4566929133858268,
                    "duration": 0.21428550000000257
                },
                {
                    "name": "C4",
                    "midi": 60,
                    "time": 110.14274700000003,
                    "velocity": 0.5511811023622047,
                    "duration": 0.21428550000000257
                },
                {
                    "name": "D3",
                    "midi": 50,
                    "time": 110.35703250000003,
                    "velocity": 0.4645669291338583,
                    "duration": 0.21428550000000257
                },
                {
                    "name": "D4",
                    "midi": 62,
                    "time": 110.35703250000003,
                    "velocity": 0.5748031496062992,
                    "duration": 0.21428550000000257
                },
                {
                    "name": "E4",
                    "midi": 64,
                    "time": 110.57131800000003,
                    "velocity": 0.5826771653543307,
                    "duration": 0.21428550000000257
                },
                {
                    "name": "E3",
                    "midi": 52,
                    "time": 110.57131800000003,
                    "velocity": 0.47244094488188976,
                    "duration": 0.21428550000000257
                },
                {
                    "name": "F3",
                    "midi": 53,
                    "time": 110.78560350000004,
                    "velocity": 0.4409448818897638,
                    "duration": 0.21428550000000257
                },
                {
                    "name": "F4",
                    "midi": 65,
                    "time": 110.78560350000004,
                    "velocity": 0.5275590551181102,
                    "duration": 0.21428550000000257
                },
                {
                    "name": "G4",
                    "midi": 67,
                    "time": 110.99988900000004,
                    "velocity": 0.5511811023622047,
                    "duration": 0.21428550000000257
                },
                {
                    "name": "G3",
                    "midi": 55,
                    "time": 110.99988900000004,
                    "velocity": 0.4566929133858268,
                    "duration": 0.21428550000000257
                },
                {
                    "name": "A4",
                    "midi": 69,
                    "time": 111.21417450000004,
                    "velocity": 0.5826771653543307,
                    "duration": 0.21428550000000257
                },
                {
                    "name": "A3",
                    "midi": 57,
                    "time": 111.21417450000004,
                    "velocity": 0.47244094488188976,
                    "duration": 0.21428550000000257
                },
                {
                    "name": "A#3",
                    "midi": 58,
                    "time": 111.42846000000004,
                    "velocity": 0.4881889763779528,
                    "duration": 0.21428550000000257
                },
                {
                    "name": "A#4",
                    "midi": 70,
                    "time": 111.42846000000004,
                    "velocity": 0.5984251968503937,
                    "duration": 0.21428550000000257
                },
                {
                    "name": "G3",
                    "midi": 55,
                    "time": 111.64274550000005,
                    "velocity": 0.5196850393700787,
                    "duration": 0.21428550000000257
                },
                {
                    "name": "G4",
                    "midi": 67,
                    "time": 111.64274550000005,
                    "velocity": 0.6062992125984252,
                    "duration": 0.21428550000000257
                },
                {
                    "name": "E3",
                    "midi": 52,
                    "time": 111.85703100000005,
                    "velocity": 0.4881889763779528,
                    "duration": 0.21428550000000257
                },
                {
                    "name": "E4",
                    "midi": 64,
                    "time": 111.85703100000005,
                    "velocity": 0.5905511811023622,
                    "duration": 0.21428550000000257
                },
                {
                    "name": "D3",
                    "midi": 50,
                    "time": 112.07131650000005,
                    "velocity": 0.4881889763779528,
                    "duration": 0.21428550000000257
                },
                {
                    "name": "D4",
                    "midi": 62,
                    "time": 112.07131650000005,
                    "velocity": 0.5905511811023622,
                    "duration": 0.21428550000000257
                },
                {
                    "name": "C#3",
                    "midi": 49,
                    "time": 112.28560200000005,
                    "velocity": 0.5118110236220472,
                    "duration": 0.42857099999999093
                },
                {
                    "name": "C#4",
                    "midi": 61,
                    "time": 112.28560200000005,
                    "velocity": 0.5433070866141733,
                    "duration": 0.42857099999999093
                },
                {
                    "name": "G4",
                    "midi": 67,
                    "time": 112.60703025000005,
                    "velocity": 0.5196850393700787,
                    "duration": 0.10714274999999418
                },
                {
                    "name": "F4",
                    "midi": 65,
                    "time": 112.71417300000005,
                    "velocity": 0.5354330708661418,
                    "duration": 0.32142824999999675
                },
                {
                    "name": "E4",
                    "midi": 64,
                    "time": 113.03560125000004,
                    "velocity": 0.4881889763779528,
                    "duration": 0.10714274999999418
                },
                {
                    "name": "D3",
                    "midi": 50,
                    "time": 113.14274400000004,
                    "velocity": 0.5118110236220472,
                    "duration": 0.21428550000000257
                },
                {
                    "name": "D4",
                    "midi": 62,
                    "time": 113.14274400000004,
                    "velocity": 0.6062992125984252,
                    "duration": 0.21428550000000257
                },
                {
                    "name": "C3",
                    "midi": 48,
                    "time": 113.35702950000004,
                    "velocity": 0.5118110236220472,
                    "duration": 0.10714274999999418
                },
                {
                    "name": "C4",
                    "midi": 60,
                    "time": 113.35702950000004,
                    "velocity": 0.5826771653543307,
                    "duration": 0.10714274999999418
                },
                {
                    "name": "B2",
                    "midi": 47,
                    "time": 113.57131500000003,
                    "velocity": 0.5118110236220472,
                    "duration": 0.10714274999999418
                },
                {
                    "name": "B3",
                    "midi": 59,
                    "time": 113.57131500000003,
                    "velocity": 0.5826771653543307,
                    "duration": 0.10714274999999418
                },
                {
                    "name": "A2",
                    "midi": 45,
                    "time": 113.78560050000002,
                    "velocity": 0.5118110236220472,
                    "duration": 0.10714274999999418
                },
                {
                    "name": "A3",
                    "midi": 57,
                    "time": 113.78560050000002,
                    "velocity": 0.5826771653543307,
                    "duration": 0.10714274999999418
                },
                {
                    "name": "G#2",
                    "midi": 44,
                    "time": 113.999886,
                    "velocity": 0.4645669291338583,
                    "duration": 0.42857099999999093
                },
                {
                    "name": "G#3",
                    "midi": 56,
                    "time": 113.999886,
                    "velocity": 0.5748031496062992,
                    "duration": 0.42857099999999093
                },
                {
                    "name": "D4",
                    "midi": 62,
                    "time": 114.32131425,
                    "velocity": 0.5196850393700787,
                    "duration": 0.10714274999999418
                },
                {
                    "name": "C4",
                    "midi": 60,
                    "time": 114.428457,
                    "velocity": 0.5354330708661418,
                    "duration": 0.32142824999999675
                },
                {
                    "name": "B3",
                    "midi": 59,
                    "time": 114.74988524999999,
                    "velocity": 0.4881889763779528,
                    "duration": 0.10714274999999418
                },
                {
                    "name": "A2",
                    "midi": 45,
                    "time": 114.85702799999999,
                    "velocity": 0.5118110236220472,
                    "duration": 0.21428549999998836
                },
                {
                    "name": "A3",
                    "midi": 57,
                    "time": 114.85702799999999,
                    "velocity": 0.5748031496062992,
                    "duration": 0.21428549999998836
                },
                {
                    "name": "G2",
                    "midi": 43,
                    "time": 115.07131349999997,
                    "velocity": 0.49606299212598426,
                    "duration": 0.10714274999999418
                },
                {
                    "name": "G3",
                    "midi": 55,
                    "time": 115.07131349999997,
                    "velocity": 0.5748031496062992,
                    "duration": 0.10714274999999418
                },
                {
                    "name": "F#2",
                    "midi": 42,
                    "time": 115.28559899999996,
                    "velocity": 0.5118110236220472,
                    "duration": 0.10714274999999418
                },
                {
                    "name": "F#3",
                    "midi": 54,
                    "time": 115.28559899999996,
                    "velocity": 0.5826771653543307,
                    "duration": 0.10714274999999418
                },
                {
                    "name": "E2",
                    "midi": 40,
                    "time": 115.49988449999995,
                    "velocity": 0.5118110236220472,
                    "duration": 0.10714274999999418
                },
                {
                    "name": "E3",
                    "midi": 52,
                    "time": 115.49988449999995,
                    "velocity": 0.5826771653543307,
                    "duration": 0.10714274999999418
                },
                {
                    "name": "D#2",
                    "midi": 39,
                    "time": 115.71416999999994,
                    "velocity": 0.4645669291338583,
                    "duration": 0.21428550000000257
                },
                {
                    "name": "D#3",
                    "midi": 51,
                    "time": 115.71416999999994,
                    "velocity": 0.5748031496062992,
                    "duration": 0.21428550000000257
                },
                {
                    "name": "G#3",
                    "midi": 56,
                    "time": 115.92845549999994,
                    "velocity": 0.3858267716535433,
                    "duration": 0.10714274999999418
                },
                {
                    "name": "F#3",
                    "midi": 54,
                    "time": 116.14274099999993,
                    "velocity": 0.41732283464566927,
                    "duration": 0.10714274999999418
                },
                {
                    "name": "G#3",
                    "midi": 56,
                    "time": 116.35702649999992,
                    "velocity": 0.3779527559055118,
                    "duration": 0.10714274999999418
                },
                {
                    "name": "E2",
                    "midi": 40,
                    "time": 116.5713119999999,
                    "velocity": 0.3779527559055118,
                    "duration": 0.10714274999999418
                },
                {
                    "name": "E3",
                    "midi": 52,
                    "time": 116.5713119999999,
                    "velocity": 0.4094488188976378,
                    "duration": 0.10714274999999418
                },
                {
                    "name": "B3",
                    "midi": 59,
                    "time": 116.7855974999999,
                    "velocity": 0.4251968503937008,
                    "duration": 0.10714274999999418
                },
                {
                    "name": "C4",
                    "midi": 60,
                    "time": 116.99988299999988,
                    "velocity": 0.4330708661417323,
                    "duration": 0.10714274999999418
                },
                {
                    "name": "D4",
                    "midi": 62,
                    "time": 117.21416849999987,
                    "velocity": 0.44881889763779526,
                    "duration": 0.10714274999999418
                },
                {
                    "name": "C4",
                    "midi": 60,
                    "time": 117.42845399999986,
                    "velocity": 0.4566929133858268,
                    "duration": 0.10714274999999418
                },
                {
                    "name": "B3",
                    "midi": 59,
                    "time": 117.64273949999985,
                    "velocity": 0.4566929133858268,
                    "duration": 0.10714274999999418
                },
                {
                    "name": "A3",
                    "midi": 57,
                    "time": 117.85702499999984,
                    "velocity": 0.44881889763779526,
                    "duration": 0.10714274999999418
                },
                {
                    "name": "E3",
                    "midi": 52,
                    "time": 118.07131049999983,
                    "velocity": 0.4409448818897638,
                    "duration": 0.10714274999999418
                },
                {
                    "name": "A3",
                    "midi": 57,
                    "time": 118.28559599999981,
                    "velocity": 0.44881889763779526,
                    "duration": 0.10714274999999418
                },
                {
                    "name": "B3",
                    "midi": 59,
                    "time": 118.4998814999998,
                    "velocity": 0.4566929133858268,
                    "duration": 0.10714274999999418
                },
                {
                    "name": "C4",
                    "midi": 60,
                    "time": 118.71416699999979,
                    "velocity": 0.4881889763779528,
                    "duration": 0.10714274999999418
                },
                {
                    "name": "D4",
                    "midi": 62,
                    "time": 118.92845249999978,
                    "velocity": 0.5039370078740157,
                    "duration": 0.10714274999999418
                },
                {
                    "name": "C4",
                    "midi": 60,
                    "time": 119.14273799999977,
                    "velocity": 0.5118110236220472,
                    "duration": 0.10714274999999418
                },
                {
                    "name": "B3",
                    "midi": 59,
                    "time": 119.35702349999976,
                    "velocity": 0.5196850393700787,
                    "duration": 0.10714274999999418
                },
                {
                    "name": "A3",
                    "midi": 57,
                    "time": 119.57130899999974,
                    "velocity": 0.5118110236220472,
                    "duration": 0.10714274999999418
                },
                {
                    "name": "G#2",
                    "midi": 44,
                    "time": 119.78559449999973,
                    "velocity": 0.41732283464566927,
                    "duration": 0.10714274999999418
                },
                {
                    "name": "B2",
                    "midi": 47,
                    "time": 119.78559449999973,
                    "velocity": 0.41732283464566927,
                    "duration": 0.10714274999999418
                },
                {
                    "name": "G#3",
                    "midi": 56,
                    "time": 119.78559449999973,
                    "velocity": 0.49606299212598426,
                    "duration": 0.10714274999999418
                },
                {
                    "name": "A2",
                    "midi": 45,
                    "time": 119.99987999999972,
                    "velocity": 0.4409448818897638,
                    "duration": 0.10714274999999418
                },
                {
                    "name": "A3",
                    "midi": 57,
                    "time": 119.99987999999972,
                    "velocity": 0.5196850393700787,
                    "duration": 0.10714274999999418
                },
                {
                    "name": "C3",
                    "midi": 48,
                    "time": 119.99987999999972,
                    "velocity": 0.4409448818897638,
                    "duration": 0.10714274999999418
                },
                {
                    "name": "B2",
                    "midi": 47,
                    "time": 120.21416549999971,
                    "velocity": 0.44881889763779526,
                    "duration": 0.10714274999999418
                },
                {
                    "name": "D3",
                    "midi": 50,
                    "time": 120.21416549999971,
                    "velocity": 0.44881889763779526,
                    "duration": 0.10714274999999418
                },
                {
                    "name": "B3",
                    "midi": 59,
                    "time": 120.21416549999971,
                    "velocity": 0.5354330708661418,
                    "duration": 0.10714274999999418
                },
                {
                    "name": "C3",
                    "midi": 48,
                    "time": 120.4284509999997,
                    "velocity": 0.4566929133858268,
                    "duration": 0.10714274999999418
                },
                {
                    "name": "E3",
                    "midi": 52,
                    "time": 120.4284509999997,
                    "velocity": 0.4566929133858268,
                    "duration": 0.10714274999999418
                },
                {
                    "name": "C4",
                    "midi": 60,
                    "time": 120.4284509999997,
                    "velocity": 0.5433070866141733,
                    "duration": 0.10714274999999418
                },
                {
                    "name": "D3",
                    "midi": 50,
                    "time": 120.64273649999969,
                    "velocity": 0.4566929133858268,
                    "duration": 0.10714274999999418
                },
                {
                    "name": "F3",
                    "midi": 53,
                    "time": 120.64273649999969,
                    "velocity": 0.4566929133858268,
                    "duration": 0.10714274999999418
                },
                {
                    "name": "D4",
                    "midi": 62,
                    "time": 120.64273649999969,
                    "velocity": 0.5511811023622047,
                    "duration": 0.10714274999999418
                },
                {
                    "name": "C3",
                    "midi": 48,
                    "time": 120.85702199999967,
                    "velocity": 0.4645669291338583,
                    "duration": 0.10714274999999418
                },
                {
                    "name": "E3",
                    "midi": 52,
                    "time": 120.85702199999967,
                    "velocity": 0.4645669291338583,
                    "duration": 0.10714274999999418
                },
                {
                    "name": "C4",
                    "midi": 60,
                    "time": 120.85702199999967,
                    "velocity": 0.5590551181102362,
                    "duration": 0.10714274999999418
                },
                {
                    "name": "B2",
                    "midi": 47,
                    "time": 121.07130749999966,
                    "velocity": 0.4566929133858268,
                    "duration": 0.10714274999999418
                },
                {
                    "name": "D3",
                    "midi": 50,
                    "time": 121.07130749999966,
                    "velocity": 0.4566929133858268,
                    "duration": 0.10714274999999418
                },
                {
                    "name": "B3",
                    "midi": 59,
                    "time": 121.07130749999966,
                    "velocity": 0.5511811023622047,
                    "duration": 0.10714274999999418
                },
                {
                    "name": "A2",
                    "midi": 45,
                    "time": 121.28559299999965,
                    "velocity": 0.44881889763779526,
                    "duration": 0.10714274999999418
                },
                {
                    "name": "C3",
                    "midi": 48,
                    "time": 121.28559299999965,
                    "velocity": 0.44881889763779526,
                    "duration": 0.10714274999999418
                },
                {
                    "name": "A3",
                    "midi": 57,
                    "time": 121.28559299999965,
                    "velocity": 0.5354330708661418,
                    "duration": 0.10714274999999418
                },
                {
                    "name": "G#2",
                    "midi": 44,
                    "time": 121.49987849999964,
                    "velocity": 0.44881889763779526,
                    "duration": 0.10714274999999418
                },
                {
                    "name": "B2",
                    "midi": 47,
                    "time": 121.49987849999964,
                    "velocity": 0.44881889763779526,
                    "duration": 0.10714274999999418
                },
                {
                    "name": "G#3",
                    "midi": 56,
                    "time": 121.49987849999964,
                    "velocity": 0.5275590551181102,
                    "duration": 0.10714274999999418
                },
                {
                    "name": "A2",
                    "midi": 45,
                    "time": 121.71416399999963,
                    "velocity": 0.4409448818897638,
                    "duration": 0.10714274999999418
                },
                {
                    "name": "C3",
                    "midi": 48,
                    "time": 121.71416399999963,
                    "velocity": 0.4409448818897638,
                    "duration": 0.10714274999999418
                },
                {
                    "name": "A3",
                    "midi": 57,
                    "time": 121.71416399999963,
                    "velocity": 0.5196850393700787,
                    "duration": 0.10714274999999418
                },
                {
                    "name": "B2",
                    "midi": 47,
                    "time": 121.92844949999962,
                    "velocity": 0.4409448818897638,
                    "duration": 0.10714274999999418
                },
                {
                    "name": "D3",
                    "midi": 50,
                    "time": 121.92844949999962,
                    "velocity": 0.4409448818897638,
                    "duration": 0.10714274999999418
                },
                {
                    "name": "B3",
                    "midi": 59,
                    "time": 121.92844949999962,
                    "velocity": 0.5275590551181102,
                    "duration": 0.10714274999999418
                },
                {
                    "name": "C3",
                    "midi": 48,
                    "time": 122.1427349999996,
                    "velocity": 0.44881889763779526,
                    "duration": 0.10714274999999418
                },
                {
                    "name": "E3",
                    "midi": 52,
                    "time": 122.1427349999996,
                    "velocity": 0.44881889763779526,
                    "duration": 0.10714274999999418
                },
                {
                    "name": "C4",
                    "midi": 60,
                    "time": 122.1427349999996,
                    "velocity": 0.5354330708661418,
                    "duration": 0.10714274999999418
                },
                {
                    "name": "D3",
                    "midi": 50,
                    "time": 122.35702049999959,
                    "velocity": 0.4566929133858268,
                    "duration": 0.10714274999999418
                },
                {
                    "name": "F3",
                    "midi": 53,
                    "time": 122.35702049999959,
                    "velocity": 0.4566929133858268,
                    "duration": 0.10714274999999418
                },
                {
                    "name": "D4",
                    "midi": 62,
                    "time": 122.35702049999959,
                    "velocity": 0.5433070866141733,
                    "duration": 0.10714274999999418
                },
                {
                    "name": "C3",
                    "midi": 48,
                    "time": 122.57130599999958,
                    "velocity": 0.4645669291338583,
                    "duration": 0.10714274999999418
                },
                {
                    "name": "E3",
                    "midi": 52,
                    "time": 122.57130599999958,
                    "velocity": 0.4645669291338583,
                    "duration": 0.10714274999999418
                },
                {
                    "name": "C4",
                    "midi": 60,
                    "time": 122.57130599999958,
                    "velocity": 0.5590551181102362,
                    "duration": 0.10714274999999418
                },
                {
                    "name": "B2",
                    "midi": 47,
                    "time": 122.78559149999957,
                    "velocity": 0.4645669291338583,
                    "duration": 0.10714274999999418
                },
                {
                    "name": "D3",
                    "midi": 50,
                    "time": 122.78559149999957,
                    "velocity": 0.4645669291338583,
                    "duration": 0.10714274999999418
                },
                {
                    "name": "B3",
                    "midi": 59,
                    "time": 122.78559149999957,
                    "velocity": 0.5590551181102362,
                    "duration": 0.10714274999999418
                },
                {
                    "name": "A2",
                    "midi": 45,
                    "time": 122.99987699999956,
                    "velocity": 0.44881889763779526,
                    "duration": 0.10714274999999418
                },
                {
                    "name": "C3",
                    "midi": 48,
                    "time": 122.99987699999956,
                    "velocity": 0.44881889763779526,
                    "duration": 0.10714274999999418
                },
                {
                    "name": "A3",
                    "midi": 57,
                    "time": 122.99987699999956,
                    "velocity": 0.5354330708661418,
                    "duration": 0.10714274999999418
                },
                {
                    "name": "G#2",
                    "midi": 44,
                    "time": 123.21416249999955,
                    "velocity": 0.44881889763779526,
                    "duration": 0.10714274999999418
                },
                {
                    "name": "B2",
                    "midi": 47,
                    "time": 123.21416249999955,
                    "velocity": 0.44881889763779526,
                    "duration": 0.10714274999999418
                },
                {
                    "name": "G#3",
                    "midi": 56,
                    "time": 123.21416249999955,
                    "velocity": 0.5275590551181102,
                    "duration": 0.10714274999999418
                },
                {
                    "name": "A2",
                    "midi": 45,
                    "time": 123.42844799999953,
                    "velocity": 0.4251968503937008,
                    "duration": 0.16071412499999838
                },
                {
                    "name": "C3",
                    "midi": 48,
                    "time": 123.42844799999953,
                    "velocity": 0.4251968503937008,
                    "duration": 0.16071412499999838
                },
                {
                    "name": "A3",
                    "midi": 57,
                    "time": 123.42844799999953,
                    "velocity": 0.5590551181102362,
                    "duration": 0.16071412499999838
                },
                {
                    "name": "B2",
                    "midi": 47,
                    "time": 123.64273349999954,
                    "velocity": 0.4094488188976378,
                    "duration": 0.16071412499999838
                },
                {
                    "name": "G#3",
                    "midi": 56,
                    "time": 123.64273349999954,
                    "velocity": 0.5118110236220472,
                    "duration": 0.16071412499999838
                },
                {
                    "name": "G#2",
                    "midi": 44,
                    "time": 123.64273349999954,
                    "velocity": 0.4094488188976378,
                    "duration": 0.16071412499999838
                },
                {
                    "name": "C3",
                    "midi": 48,
                    "time": 123.85701899999954,
                    "velocity": 0.4251968503937008,
                    "duration": 0.16071412499999838
                },
                {
                    "name": "A3",
                    "midi": 57,
                    "time": 123.85701899999954,
                    "velocity": 0.5590551181102362,
                    "duration": 0.16071412499999838
                },
                {
                    "name": "A2",
                    "midi": 45,
                    "time": 123.85701899999954,
                    "velocity": 0.4251968503937008,
                    "duration": 0.16071412499999838
                },
                {
                    "name": "B2",
                    "midi": 47,
                    "time": 124.07130449999954,
                    "velocity": 0.4015748031496063,
                    "duration": 0.16071412499999838
                },
                {
                    "name": "G#3",
                    "midi": 56,
                    "time": 124.07130449999954,
                    "velocity": 0.5039370078740157,
                    "duration": 0.16071412499999838
                },
                {
                    "name": "G#2",
                    "midi": 44,
                    "time": 124.07130449999954,
                    "velocity": 0.4015748031496063,
                    "duration": 0.16071412499999838
                },
                {
                    "name": "C3",
                    "midi": 48,
                    "time": 124.28558999999954,
                    "velocity": 0.4251968503937008,
                    "duration": 0.16071412499999838
                },
                {
                    "name": "A3",
                    "midi": 57,
                    "time": 124.28558999999954,
                    "velocity": 0.5590551181102362,
                    "duration": 0.16071412499999838
                },
                {
                    "name": "A2",
                    "midi": 45,
                    "time": 124.28558999999954,
                    "velocity": 0.4251968503937008,
                    "duration": 0.16071412499999838
                },
                {
                    "name": "B2",
                    "midi": 47,
                    "time": 124.49987549999955,
                    "velocity": 0.4015748031496063,
                    "duration": 0.16071412499999838
                },
                {
                    "name": "G#3",
                    "midi": 56,
                    "time": 124.49987549999955,
                    "velocity": 0.5039370078740157,
                    "duration": 0.16071412499999838
                },
                {
                    "name": "G#2",
                    "midi": 44,
                    "time": 124.49987549999955,
                    "velocity": 0.4015748031496063,
                    "duration": 0.16071412499999838
                },
                {
                    "name": "C3",
                    "midi": 48,
                    "time": 124.71416099999955,
                    "velocity": 0.4251968503937008,
                    "duration": 0.16071412499999838
                },
                {
                    "name": "A3",
                    "midi": 57,
                    "time": 124.71416099999955,
                    "velocity": 0.5590551181102362,
                    "duration": 0.16071412499999838
                },
                {
                    "name": "A2",
                    "midi": 45,
                    "time": 124.71416099999955,
                    "velocity": 0.4251968503937008,
                    "duration": 0.16071412499999838
                },
                {
                    "name": "B2",
                    "midi": 47,
                    "time": 124.92844649999955,
                    "velocity": 0.3937007874015748,
                    "duration": 0.16071412499999838
                },
                {
                    "name": "G#3",
                    "midi": 56,
                    "time": 124.92844649999955,
                    "velocity": 0.49606299212598426,
                    "duration": 0.16071412499999838
                },
                {
                    "name": "G#2",
                    "midi": 44,
                    "time": 124.92844649999955,
                    "velocity": 0.3937007874015748,
                    "duration": 0.16071412499999838
                },
                {
                    "name": "C3",
                    "midi": 48,
                    "time": 125.14273199999955,
                    "velocity": 0.4251968503937008,
                    "duration": 0.42857100000000514
                },
                {
                    "name": "A3",
                    "midi": 57,
                    "time": 125.14273199999955,
                    "velocity": 0.5590551181102362,
                    "duration": 0.42857100000000514
                },
                {
                    "name": "A2",
                    "midi": 45,
                    "time": 125.14273199999955,
                    "velocity": 0.4251968503937008,
                    "duration": 0.42857100000000514
                },
                {
                    "name": "A2",
                    "midi": 45,
                    "time": 125.57130299999956,
                    "velocity": 0.41732283464566927,
                    "duration": 0.42857100000000514
                },
                {
                    "name": "F3",
                    "midi": 53,
                    "time": 125.57130299999956,
                    "velocity": 0.5196850393700787,
                    "duration": 0.42857100000000514
                },
                {
                    "name": "F2",
                    "midi": 41,
                    "time": 125.57130299999956,
                    "velocity": 0.41732283464566927,
                    "duration": 0.42857100000000514
                },
                {
                    "name": "G#2",
                    "midi": 44,
                    "time": 125.99987399999956,
                    "velocity": 0.41732283464566927,
                    "duration": 0.42857099999999093
                },
                {
                    "name": "E3",
                    "midi": 52,
                    "time": 125.99987399999956,
                    "velocity": 0.5196850393700787,
                    "duration": 0.42857099999999093
                },
                {
                    "name": "E2",
                    "midi": 40,
                    "time": 125.99987399999956,
                    "velocity": 0.41732283464566927,
                    "duration": 0.42857099999999093
                },
                {
                    "name": "E2",
                    "midi": 40,
                    "time": 126.42844499999956,
                    "velocity": 0.4094488188976378,
                    "duration": 0.42857099999999093
                },
                {
                    "name": "E3",
                    "midi": 52,
                    "time": 126.42844499999956,
                    "velocity": 0.5275590551181102,
                    "duration": 0.42857099999999093
                },
                {
                    "name": "B2",
                    "midi": 47,
                    "time": 126.42844499999956,
                    "velocity": 0.5275590551181102,
                    "duration": 0.32142824999999675
                },
                {
                    "name": "C3",
                    "midi": 48,
                    "time": 126.74987324999955,
                    "velocity": 0.4566929133858268,
                    "duration": 0.10714274999999418
                },
                {
                    "name": "E2",
                    "midi": 40,
                    "time": 126.85701599999955,
                    "velocity": 0.4094488188976378,
                    "duration": 0.8571419999999961
                },
                {
                    "name": "B2",
                    "midi": 47,
                    "time": 126.85701599999955,
                    "velocity": 0.4094488188976378,
                    "duration": 0.8571419999999961
                },
                {
                    "name": "E3",
                    "midi": 52,
                    "time": 126.85701599999955,
                    "velocity": 0.5275590551181102,
                    "duration": 0.8571419999999961
                },
                {
                    "name": "A1",
                    "midi": 33,
                    "time": 127.71415799999954,
                    "velocity": 0.3858267716535433,
                    "duration": 0.42857100000000514
                },
                {
                    "name": "A2",
                    "midi": 45,
                    "time": 127.71415799999954,
                    "velocity": 0.4881889763779528,
                    "duration": 0.42857100000000514
                },
                {
                    "name": "E4",
                    "midi": 64,
                    "time": 128.99987099999953,
                    "velocity": 0.36220472440944884,
                    "duration": 0.42857100000000514
                },
                {
                    "name": "C4",
                    "midi": 60,
                    "time": 128.99987099999953,
                    "velocity": 0.2992125984251969,
                    "duration": 0.42857100000000514
                },
                {
                    "name": "A3",
                    "midi": 57,
                    "time": 128.99987099999953,
                    "velocity": 0.2992125984251969,
                    "duration": 0.42857100000000514
                },
                {
                    "name": "A3",
                    "midi": 57,
                    "time": 129.85701299999954,
                    "velocity": 0.2992125984251969,
                    "duration": 0.42857100000000514
                },
                {
                    "name": "D4",
                    "midi": 62,
                    "time": 129.85701299999954,
                    "velocity": 0.2992125984251969,
                    "duration": 0.42857100000000514
                },
                {
                    "name": "F4",
                    "midi": 65,
                    "time": 129.85701299999954,
                    "velocity": 0.36220472440944884,
                    "duration": 0.42857100000000514
                },
                {
                    "name": "D4",
                    "midi": 62,
                    "time": 130.71415499999955,
                    "velocity": 0.3779527559055118,
                    "duration": 0.42857100000000514
                },
                {
                    "name": "B3",
                    "midi": 59,
                    "time": 130.71415499999955,
                    "velocity": 0.30708661417322836,
                    "duration": 0.42857100000000514
                },
                {
                    "name": "A3",
                    "midi": 57,
                    "time": 130.71415499999955,
                    "velocity": 0.30708661417322836,
                    "duration": 0.42857100000000514
                },
                {
                    "name": "E4",
                    "midi": 64,
                    "time": 131.57129699999956,
                    "velocity": 0.2992125984251969,
                    "duration": 0.42857100000000514
                },
                {
                    "name": "C4",
                    "midi": 60,
                    "time": 131.57129699999956,
                    "velocity": 0.25984251968503935,
                    "duration": 0.42857100000000514
                },
                {
                    "name": "A3",
                    "midi": 57,
                    "time": 131.57129699999956,
                    "velocity": 0.25984251968503935,
                    "duration": 0.42857100000000514
                },
                {
                    "name": "G4",
                    "midi": 67,
                    "time": 132.42843899999957,
                    "velocity": 0.29133858267716534,
                    "duration": 0.42857100000000514
                },
                {
                    "name": "E4",
                    "midi": 64,
                    "time": 132.42843899999957,
                    "velocity": 0.25196850393700787,
                    "duration": 0.42857100000000514
                },
                {
                    "name": "A3",
                    "midi": 57,
                    "time": 132.42843899999957,
                    "velocity": 0.25196850393700787,
                    "duration": 0.42857100000000514
                },
                {
                    "name": "A3",
                    "midi": 57,
                    "time": 133.28558099999958,
                    "velocity": 0.2204724409448819,
                    "duration": 0.42857100000000514
                },
                {
                    "name": "D4",
                    "midi": 62,
                    "time": 133.28558099999958,
                    "velocity": 0.2204724409448819,
                    "duration": 0.42857100000000514
                },
                {
                    "name": "F4",
                    "midi": 65,
                    "time": 133.28558099999958,
                    "velocity": 0.28346456692913385,
                    "duration": 0.42857100000000514
                },
                {
                    "name": "D4",
                    "midi": 62,
                    "time": 134.1427229999996,
                    "velocity": 0.2125984251968504,
                    "duration": 0.42857100000000514
                },
                {
                    "name": "F4",
                    "midi": 65,
                    "time": 134.1427229999996,
                    "velocity": 0.25984251968503935,
                    "duration": 0.42857100000000514
                },
                {
                    "name": "B3",
                    "midi": 59,
                    "time": 134.1427229999996,
                    "velocity": 0.2125984251968504,
                    "duration": 0.42857100000000514
                },
                {
                    "name": "A3",
                    "midi": 57,
                    "time": 134.1427229999996,
                    "velocity": 0.2125984251968504,
                    "duration": 0.42857100000000514
                },
                {
                    "name": "C4",
                    "midi": 60,
                    "time": 134.7855794999996,
                    "velocity": 0.2047244094488189,
                    "duration": 0.16071412499999838
                },
                {
                    "name": "A3",
                    "midi": 57,
                    "time": 134.7855794999996,
                    "velocity": 0.2047244094488189,
                    "duration": 0.16071412499999838
                },
                {
                    "name": "E4",
                    "midi": 64,
                    "time": 134.7855794999996,
                    "velocity": 0.2755905511811024,
                    "duration": 0.16071412499999838
                },
                {
                    "name": "F4",
                    "midi": 65,
                    "time": 134.9998649999996,
                    "velocity": 0.2677165354330709,
                    "duration": 0.42857100000000514
                },
                {
                    "name": "D4",
                    "midi": 62,
                    "time": 134.9998649999996,
                    "velocity": 0.2047244094488189,
                    "duration": 0.42857100000000514
                },
                {
                    "name": "A3",
                    "midi": 57,
                    "time": 134.9998649999996,
                    "velocity": 0.2047244094488189,
                    "duration": 0.42857100000000514
                },
                {
                    "name": "A3",
                    "midi": 57,
                    "time": 135.64272149999962,
                    "velocity": 0.2204724409448819,
                    "duration": 0.16071412499999838
                },
                {
                    "name": "C4",
                    "midi": 60,
                    "time": 135.64272149999962,
                    "velocity": 0.2204724409448819,
                    "duration": 0.16071412499999838
                },
                {
                    "name": "E4",
                    "midi": 64,
                    "time": 135.64272149999962,
                    "velocity": 0.29133858267716534,
                    "duration": 0.16071412499999838
                },
                {
                    "name": "F4",
                    "midi": 65,
                    "time": 135.8570069999996,
                    "velocity": 0.2677165354330709,
                    "duration": 0.42857100000000514
                },
                {
                    "name": "D4",
                    "midi": 62,
                    "time": 135.8570069999996,
                    "velocity": 0.2125984251968504,
                    "duration": 0.42857100000000514
                },
                {
                    "name": "A3",
                    "midi": 57,
                    "time": 135.8570069999996,
                    "velocity": 0.2125984251968504,
                    "duration": 0.42857100000000514
                },
                {
                    "name": "A3",
                    "midi": 57,
                    "time": 136.28557799999962,
                    "velocity": 0.2125984251968504,
                    "duration": 1.2857130000000154
                },
                {
                    "name": "E4",
                    "midi": 64,
                    "time": 136.28557799999962,
                    "velocity": 0.2677165354330709,
                    "duration": 0.42857100000000514
                },
                {
                    "name": "C4",
                    "midi": 60,
                    "time": 136.28557799999962,
                    "velocity": 0.2125984251968504,
                    "duration": 0.42857100000000514
                },
                {
                    "name": "D4",
                    "midi": 62,
                    "time": 136.71414899999962,
                    "velocity": 0.1968503937007874,
                    "duration": 0.42857100000000514
                },
                {
                    "name": "F4",
                    "midi": 65,
                    "time": 136.71414899999962,
                    "velocity": 0.2440944881889764,
                    "duration": 0.42857100000000514
                },
                {
                    "name": "E4",
                    "midi": 64,
                    "time": 137.14271999999963,
                    "velocity": 0.25196850393700787,
                    "duration": 0.21428550000001678
                },
                {
                    "name": "C4",
                    "midi": 60,
                    "time": 137.14271999999963,
                    "velocity": 0.1968503937007874,
                    "duration": 0.21428550000001678
                },
                {
                    "name": "D4",
                    "midi": 62,
                    "time": 137.35700549999964,
                    "velocity": 0.1968503937007874,
                    "duration": 0.21428549999998836
                },
                {
                    "name": "F4",
                    "midi": 65,
                    "time": 137.35700549999964,
                    "velocity": 0.25196850393700787,
                    "duration": 0.21428549999998836
                },
                {
                    "name": "E4",
                    "midi": 64,
                    "time": 137.57129099999963,
                    "velocity": 0.25984251968503935,
                    "duration": 0.4285709999999767
                },
                {
                    "name": "C4",
                    "midi": 60,
                    "time": 137.57129099999963,
                    "velocity": 0.2125984251968504,
                    "duration": 0.4285709999999767
                },
                {
                    "name": "A3",
                    "midi": 57,
                    "time": 137.57129099999963,
                    "velocity": 0.25984251968503935,
                    "duration": 1.2857129999999586
                },
                {
                    "name": "D4",
                    "midi": 62,
                    "time": 137.9998619999996,
                    "velocity": 0.1889763779527559,
                    "duration": 0.42857100000000514
                },
                {
                    "name": "F4",
                    "midi": 65,
                    "time": 137.9998619999996,
                    "velocity": 0.2283464566929134,
                    "duration": 0.42857100000000514
                },
                {
                    "name": "C4",
                    "midi": 60,
                    "time": 138.42843299999961,
                    "velocity": 0.1889763779527559,
                    "duration": 0.21428549999998836
                },
                {
                    "name": "E4",
                    "midi": 64,
                    "time": 138.42843299999961,
                    "velocity": 0.2204724409448819,
                    "duration": 0.21428549999998836
                },
                {
                    "name": "D4",
                    "midi": 62,
                    "time": 138.6427184999996,
                    "velocity": 0.1889763779527559,
                    "duration": 0.21428549999998836
                },
                {
                    "name": "F4",
                    "midi": 65,
                    "time": 138.6427184999996,
                    "velocity": 0.2204724409448819,
                    "duration": 0.21428549999998836
                },
                {
                    "name": "E4",
                    "midi": 64,
                    "time": 138.8570039999996,
                    "velocity": 0.25196850393700787,
                    "duration": 5.142852000000005
                },
                {
                    "name": "C4",
                    "midi": 60,
                    "time": 138.8570039999996,
                    "velocity": 0.1968503937007874,
                    "duration": 5.142852000000005
                },
                {
                    "name": "A3",
                    "midi": 57,
                    "time": 138.8570039999996,
                    "velocity": 0.1968503937007874,
                    "duration": 5.142852000000005
                },
                {
                    "name": "A1",
                    "midi": 33,
                    "time": 141.4284299999996,
                    "velocity": 0.1968503937007874,
                    "duration": 2.5714260000000024
                },
                {
                    "name": "A2",
                    "midi": 45,
                    "time": 141.4284299999996,
                    "velocity": 0.2440944881889764,
                    "duration": 2.5714260000000024
                }
            ],
            "controlChanges": {
                "7": [
                    {
                        "number": 7,
                        "time": 0,
                        "value": 1
                    }
                ],
                "10": [
                    {
                        "number": 10,
                        "time": 0,
                        "value": 0.5039370078740157
                    }
                ],
                "64": [
                    {
                        "number": 64,
                        "time": 0,
                        "value": 0
                    },
                    {
                        "number": 64,
                        "time": 10.335703950000001,
                        "value": 1
                    },
                    {
                        "number": 64,
                        "time": 11.36338149375,
                        "value": 0
                    },
                    {
                        "number": 64,
                        "time": 12.11338074375,
                        "value": 1
                    },
                    {
                        "number": 64,
                        "time": 12.8696299875,
                        "value": 0
                    },
                    {
                        "number": 64,
                        "time": 16.71873328125,
                        "value": 1
                    },
                    {
                        "number": 64,
                        "time": 17.1517685625,
                        "value": 0
                    },
                    {
                        "number": 64,
                        "time": 18.97051674375,
                        "value": 1
                    },
                    {
                        "number": 64,
                        "time": 19.7267659875,
                        "value": 0
                    },
                    {
                        "number": 64,
                        "time": 34.39103703750003,
                        "value": 1
                    },
                    {
                        "number": 64,
                        "time": 35.15532198750003,
                        "value": 0
                    },
                    {
                        "number": 64,
                        "time": 39.075853781250025,
                        "value": 1
                    },
                    {
                        "number": 64,
                        "time": 39.428532000000025,
                        "value": 0
                    },
                    {
                        "number": 64,
                        "time": 41.25620874375002,
                        "value": 1
                    },
                    {
                        "number": 64,
                        "time": 42.007993706250026,
                        "value": 0
                    },
                    {
                        "number": 64,
                        "time": 45.926739787500026,
                        "value": 1
                    },
                    {
                        "number": 64,
                        "time": 46.28566800000003,
                        "value": 0
                    },
                    {
                        "number": 64,
                        "time": 48.113344743750034,
                        "value": 1
                    },
                    {
                        "number": 64,
                        "time": 48.86602256250004,
                        "value": 0
                    },
                    {
                        "number": 64,
                        "time": 50.23119976875004,
                        "value": 1
                    },
                    {
                        "number": 64,
                        "time": 50.58030656250004,
                        "value": 0
                    },
                    {
                        "number": 64,
                        "time": 51.48566280000005,
                        "value": 1
                    },
                    {
                        "number": 64,
                        "time": 52.07137650000005,
                        "value": 0
                    },
                    {
                        "number": 64,
                        "time": 53.64816063750006,
                        "value": 1
                    },
                    {
                        "number": 64,
                        "time": 54.00887456250007,
                        "value": 0
                    },
                    {
                        "number": 64,
                        "time": 54.97048074375007,
                        "value": 1
                    },
                    {
                        "number": 64,
                        "time": 55.72315856250008,
                        "value": 0
                    },
                    {
                        "number": 64,
                        "time": 59.65976176875008,
                        "value": 1
                    },
                    {
                        "number": 64,
                        "time": 60.00886856250008,
                        "value": 0
                    },
                    {
                        "number": 64,
                        "time": 61.827616743750085,
                        "value": 1
                    },
                    {
                        "number": 64,
                        "time": 62.58029456250009,
                        "value": 0
                    },
                    {
                        "number": 64,
                        "time": 62.67850875000009,
                        "value": 1
                    },
                    {
                        "number": 64,
                        "time": 63.0088655625001,
                        "value": 0
                    },
                    {
                        "number": 64,
                        "time": 63.107079750000096,
                        "value": 1
                    },
                    {
                        "number": 64,
                        "time": 63.4347579937501,
                        "value": 0
                    },
                    {
                        "number": 64,
                        "time": 66.47939780625005,
                        "value": 1
                    },
                    {
                        "number": 64,
                        "time": 66.86064742500005,
                        "value": 0
                    },
                    {
                        "number": 64,
                        "time": 68.17403896875001,
                        "value": 1
                    },
                    {
                        "number": 64,
                        "time": 68.57582428125001,
                        "value": 0
                    },
                    {
                        "number": 64,
                        "time": 77.18831566874991,
                        "value": 1
                    },
                    {
                        "number": 64,
                        "time": 77.5740295687499,
                        "value": 0
                    },
                    {
                        "number": 64,
                        "time": 77.6838508874999,
                        "value": 1
                    },
                    {
                        "number": 64,
                        "time": 78.0061719937499,
                        "value": 0
                    },
                    {
                        "number": 64,
                        "time": 78.07670763749991,
                        "value": 1
                    },
                    {
                        "number": 64,
                        "time": 78.43206442499991,
                        "value": 0
                    },
                    {
                        "number": 64,
                        "time": 78.57134999999991,
                        "value": 1
                    },
                    {
                        "number": 64,
                        "time": 78.8615282812499,
                        "value": 0
                    },
                    {
                        "number": 64,
                        "time": 78.8981353874999,
                        "value": 1
                    },
                    {
                        "number": 64,
                        "time": 79.2918849937499,
                        "value": 0
                    },
                    {
                        "number": 64,
                        "time": 79.4338491374999,
                        "value": 1
                    },
                    {
                        "number": 64,
                        "time": 79.7195631374999,
                        "value": 0
                    },
                    {
                        "number": 64,
                        "time": 79.77581308124991,
                        "value": 1
                    },
                    {
                        "number": 64,
                        "time": 80.15081270624991,
                        "value": 0
                    },
                    {
                        "number": 64,
                        "time": 80.20884836249991,
                        "value": 1
                    },
                    {
                        "number": 64,
                        "time": 80.57581228124991,
                        "value": 0
                    },
                    {
                        "number": 64,
                        "time": 80.68474074374991,
                        "value": 1
                    },
                    {
                        "number": 64,
                        "time": 81.43741856249991,
                        "value": 0
                    },
                    {
                        "number": 64,
                        "time": 85.34902179374993,
                        "value": 1
                    },
                    {
                        "number": 64,
                        "time": 85.71955713749992,
                        "value": 0
                    },
                    {
                        "number": 64,
                        "time": 85.87759269374992,
                        "value": 1
                    },
                    {
                        "number": 64,
                        "time": 86.5802705624999,
                        "value": 0
                    },
                    {
                        "number": 64,
                        "time": 87.54187674374991,
                        "value": 1
                    },
                    {
                        "number": 64,
                        "time": 88.29455456249991,
                        "value": 0
                    },
                    {
                        "number": 64,
                        "time": 92.19990779999992,
                        "value": 1
                    },
                    {
                        "number": 64,
                        "time": 92.57669313749992,
                        "value": 0
                    },
                    {
                        "number": 64,
                        "time": 92.78562149999992,
                        "value": 1
                    },
                    {
                        "number": 64,
                        "time": 93.43740656249992,
                        "value": 0
                    },
                    {
                        "number": 64,
                        "time": 94.39901274374992,
                        "value": 1
                    },
                    {
                        "number": 64,
                        "time": 95.58026156249991,
                        "value": 0
                    },
                    {
                        "number": 64,
                        "time": 96.50436778124993,
                        "value": 1
                    },
                    {
                        "number": 64,
                        "time": 96.86508170624992,
                        "value": 0
                    },
                    {
                        "number": 64,
                        "time": 97.85883071249994,
                        "value": 1
                    },
                    {
                        "number": 64,
                        "time": 99.00882956249994,
                        "value": 0
                    },
                    {
                        "number": 64,
                        "time": 99.87757869374995,
                        "value": 1
                    },
                    {
                        "number": 64,
                        "time": 100.29454256249996,
                        "value": 0
                    },
                    {
                        "number": 64,
                        "time": 101.18025596249996,
                        "value": 1
                    },
                    {
                        "number": 64,
                        "time": 102.00882656249996,
                        "value": 0
                    },
                    {
                        "number": 64,
                        "time": 102.13829071874996,
                        "value": 1
                    },
                    {
                        "number": 64,
                        "time": 102.43739756249997,
                        "value": 0
                    },
                    {
                        "number": 64,
                        "time": 102.56686171874996,
                        "value": 1
                    },
                    {
                        "number": 64,
                        "time": 102.86507570624997,
                        "value": 0
                    },
                    {
                        "number": 64,
                        "time": 104.17400296874999,
                        "value": 1
                    },
                    {
                        "number": 64,
                        "time": 104.57757399375,
                        "value": 0
                    },
                    {
                        "number": 64,
                        "time": 105.01239498749999,
                        "value": 1
                    },
                    {
                        "number": 64,
                        "time": 105.43739456249999,
                        "value": 0
                    },
                    {
                        "number": 64,
                        "time": 105.91417979999999,
                        "value": 1
                    },
                    {
                        "number": 64,
                        "time": 106.29453656249999,
                        "value": 0
                    },
                    {
                        "number": 64,
                        "time": 107.19364280625,
                        "value": 1
                    },
                    {
                        "number": 64,
                        "time": 107.57846384999999,
                        "value": 0
                    },
                    {
                        "number": 64,
                        "time": 107.69364230625,
                        "value": 1
                    },
                    {
                        "number": 64,
                        "time": 108.0052491375,
                        "value": 0
                    },
                    {
                        "number": 64,
                        "time": 108.05614194375,
                        "value": 1
                    },
                    {
                        "number": 64,
                        "time": 108.86596256250002,
                        "value": 0
                    },
                    {
                        "number": 64,
                        "time": 108.92310536250001,
                        "value": 1
                    },
                    {
                        "number": 64,
                        "time": 109.29453356250002,
                        "value": 0
                    },
                    {
                        "number": 64,
                        "time": 109.37221205625002,
                        "value": 1
                    },
                    {
                        "number": 64,
                        "time": 109.72042599375003,
                        "value": 0
                    },
                    {
                        "number": 64,
                        "time": 111.47845995000004,
                        "value": 1
                    },
                    {
                        "number": 64,
                        "time": 112.29185199375006,
                        "value": 0
                    },
                    {
                        "number": 64,
                        "time": 112.55703030000005,
                        "value": 1
                    },
                    {
                        "number": 64,
                        "time": 113.14810113750003,
                        "value": 0
                    },
                    {
                        "number": 64,
                        "time": 114.30256426875,
                        "value": 1
                    },
                    {
                        "number": 64,
                        "time": 114.86417084999998,
                        "value": 0
                    },
                    {
                        "number": 64,
                        "time": 125.61683866874957,
                        "value": 1
                    },
                    {
                        "number": 64,
                        "time": 126.04094538749956,
                        "value": 0
                    },
                    {
                        "number": 64,
                        "time": 126.52040919374956,
                        "value": 1
                    },
                    {
                        "number": 64,
                        "time": 126.86237313749955,
                        "value": 0
                    },
                    {
                        "number": 64,
                        "time": 128.63469279374954,
                        "value": 1
                    },
                    {
                        "number": 64,
                        "time": 128.91147823124953,
                        "value": 0
                    },
                    {
                        "number": 64,
                        "time": 129.49183479374955,
                        "value": 1
                    },
                    {
                        "number": 64,
                        "time": 129.81326304374954,
                        "value": 0
                    },
                    {
                        "number": 64,
                        "time": 130.33201252499956,
                        "value": 1
                    },
                    {
                        "number": 64,
                        "time": 130.60701224999954,
                        "value": 0
                    },
                    {
                        "number": 64,
                        "time": 131.21415449999955,
                        "value": 1
                    },
                    {
                        "number": 64,
                        "time": 131.50968991874956,
                        "value": 0
                    },
                    {
                        "number": 64,
                        "time": 132.04629652499958,
                        "value": 1
                    },
                    {
                        "number": 64,
                        "time": 132.33647480624958,
                        "value": 0
                    },
                    {
                        "number": 64,
                        "time": 132.91861708124958,
                        "value": 1
                    },
                    {
                        "number": 64,
                        "time": 133.21415249999959,
                        "value": 0
                    },
                    {
                        "number": 64,
                        "time": 133.7605805249996,
                        "value": 1
                    },
                    {
                        "number": 64,
                        "time": 134.0811159187496,
                        "value": 0
                    },
                    {
                        "number": 64,
                        "time": 134.6177225249996,
                        "value": 1
                    },
                    {
                        "number": 64,
                        "time": 134.84718658124962,
                        "value": 0
                    },
                    {
                        "number": 64,
                        "time": 135.47486452499962,
                        "value": 1
                    },
                    {
                        "number": 64,
                        "time": 135.69361430624963,
                        "value": 0
                    },
                    {
                        "number": 64,
                        "time": 136.33647080624962,
                        "value": 1
                    },
                    {
                        "number": 64,
                        "time": 136.7230775624996,
                        "value": 0
                    },
                    {
                        "number": 64,
                        "time": 136.78557749999962,
                        "value": 1
                    },
                    {
                        "number": 64,
                        "time": 137.14896999374963,
                        "value": 0
                    },
                    {
                        "number": 64,
                        "time": 137.18825566874963,
                        "value": 1
                    },
                    {
                        "number": 64,
                        "time": 137.57754099374964,
                        "value": 0
                    },
                    {
                        "number": 64,
                        "time": 137.62486237499962,
                        "value": 1
                    },
                    {
                        "number": 64,
                        "time": 138.00789770624962,
                        "value": 0
                    },
                    {
                        "number": 64,
                        "time": 138.0614690812496,
                        "value": 1
                    },
                    {
                        "number": 64,
                        "time": 138.4373615624996,
                        "value": 0
                    },
                    {
                        "number": 64,
                        "time": 138.4793258062496,
                        "value": 1
                    },
                    {
                        "number": 64,
                        "time": 138.86593256249958,
                        "value": 0
                    },
                    {
                        "number": 64,
                        "time": 138.9239682187496,
                        "value": 1
                    },
                    {
                        "number": 64,
                        "time": 145.3811046187496,
                        "value": 0
                    }
                ]
            },
            "id": 2,
            "name": "Piano left",
            "instrumentNumber": 0,
            "instrument": "acoustic grand piano",
            "instrumentFamily": "piano",
            "channelNumber": 0,
            "isPercussion": false
        },
        {
            "startTime": 0,
            "duration": 0,
            "length": 0,
            "notes": [],
            "controlChanges": {},
            "id": 3,
            "name": "Mendelssohn: Songs without Words, Op. 53 No. 5"
        },
        {
            "startTime": 0,
            "duration": 0,
            "length": 0,
            "notes": [],
            "controlChanges": {},
            "id": 4,
            "name": "Copyright  2004 by Bernd Krger"
        },
        {
            "startTime": 0,
            "duration": 0,
            "length": 0,
            "notes": [],
            "controlChanges": {},
            "id": 5,
            "name": "http://www.piano-midi.de"
        },
        {
            "startTime": 0,
            "duration": 0,
            "length": 0,
            "notes": [],
            "controlChanges": {},
            "id": 6,
            "name": "Edition: 2014-04-03"
        },
        {
            "startTime": 0,
            "duration": 0,
            "length": 0,
            "notes": [],
            "controlChanges": {},
            "id": 7,
            "name": "Spur 7"
        }
    ]
}